<?xml version="1.0" encoding="UTF-8" standalone="no"?>
<svg width="2977.2px" height="4208.4px" viewBox="0 0 2977.2 4208.4"
 xmlns="http://www.w3.org/2000/svg" xmlns:xlink="http://www.w3.org/1999/xlink" version="1.2" baseProfile="tiny">
<title>Santa_Lucia.mscx</title>
<desc>Generated by MuseScore Studio 4.3.1</desc>
<path class="" fill="#ffffff" fill-rule="evenodd" d="M0,0 L2977.2,0 L2977.2,4208.4 L0,4208.4 L0,0 "/>
<polyline class="StaffLines" fill="none" stroke="#000000" stroke-width="2.00" stroke-linejoin="bevel" points="141.732,316.732 2835.47,316.732"/>
<polyline class="StaffLines" fill="none" stroke="#000000" stroke-width="2.00" stroke-linejoin="bevel" points="141.732,341.732 2835.47,341.732"/>
<polyline class="StaffLines" fill="none" stroke="#000000" stroke-width="2.00" stroke-linejoin="bevel" points="141.732,366.733 2835.47,366.733"/>
<polyline class="StaffLines" fill="none" stroke="#000000" stroke-width="2.00" stroke-linejoin="bevel" points="141.732,391.733 2835.47,391.733"/>
<polyline class="StaffLines" fill="none" stroke="#000000" stroke-width="2.00" stroke-linejoin="bevel" points="141.732,416.733 2835.47,416.733"/>
<polyline class="StaffLines" fill="none" stroke="#000000" stroke-width="2.00" stroke-linejoin="bevel" points="141.732,791.733 2835.47,791.733"/>
<polyline class="StaffLines" fill="none" stroke="#000000" stroke-width="2.00" stroke-linejoin="bevel" points="141.732,816.733 2835.47,816.733"/>
<polyline class="StaffLines" fill="none" stroke="#000000" stroke-width="2.00" stroke-linejoin="bevel" points="141.732,841.733 2835.47,841.733"/>
<polyline class="StaffLines" fill="none" stroke="#000000" stroke-width="2.00" stroke-linejoin="bevel" points="141.732,866.733 2835.47,866.733"/>
<polyline class="StaffLines" fill="none" stroke="#000000" stroke-width="2.00" stroke-linejoin="bevel" points="141.732,891.733 2835.47,891.733"/>
<polyline class="StaffLines" fill="none" stroke="#000000" stroke-width="2.00" stroke-linejoin="bevel" points="141.732,1266.73 2835.47,1266.73"/>
<polyline class="StaffLines" fill="none" stroke="#000000" stroke-width="2.00" stroke-linejoin="bevel" points="141.732,1291.73 2835.47,1291.73"/>
<polyline class="StaffLines" fill="none" stroke="#000000" stroke-width="2.00" stroke-linejoin="bevel" points="141.732,1316.73 2835.47,1316.73"/>
<polyline class="StaffLines" fill="none" stroke="#000000" stroke-width="2.00" stroke-linejoin="bevel" points="141.732,1341.73 2835.47,1341.73"/>
<polyline class="StaffLines" fill="none" stroke="#000000" stroke-width="2.00" stroke-linejoin="bevel" points="141.732,1366.73 2835.47,1366.73"/>
<polyline class="StaffLines" fill="none" stroke="#000000" stroke-width="2.00" stroke-linejoin="bevel" points="141.732,1741.73 899.093,1741.73"/>
<polyline class="StaffLines" fill="none" stroke="#000000" stroke-width="2.00" stroke-linejoin="bevel" points="141.732,1766.73 899.093,1766.73"/>
<polyline class="StaffLines" fill="none" stroke="#000000" stroke-width="2.00" stroke-linejoin="bevel" points="141.732,1791.73 899.093,1791.73"/>
<polyline class="StaffLines" fill="none" stroke="#000000" stroke-width="2.00" stroke-linejoin="bevel" points="141.732,1816.73 899.093,1816.73"/>
<polyline class="StaffLines" fill="none" stroke="#000000" stroke-width="2.00" stroke-linejoin="bevel" points="141.732,1841.73 899.093,1841.73"/>
<path class="MeasureNumber" d="M146.514,733.873 C146.514,732.446 146.199,731.181 145.568,730.076 C144.938,728.972 144.178,728.118 143.287,727.514 C142.396,726.91 141.399,726.412 140.295,726.022 C139.191,725.631 138.23,725.376 137.412,725.256 C136.594,725.136 135.883,725.076 135.279,725.076 C134.956,725.076 134.795,724.967 134.795,724.748 C134.795,724.675 134.805,724.613 134.826,724.561 L139.185,715.264 L147.545,715.264 C147.972,715.264 148.313,715.196 148.568,715.061 C148.824,714.925 149.097,714.644 149.389,714.217 L149.748,714.498 L148.232,717.842 C148.128,718.061 147.821,718.17 147.31,718.17 L139.467,718.17 L137.795,721.608 C141.68,722.306 144.571,723.441 146.467,725.014 C148.363,726.587 149.31,728.894 149.31,731.936 C149.31,733.53 149.063,734.946 148.568,736.186 C148.074,737.425 147.446,738.423 146.685,739.178 C145.925,739.933 145.045,740.553 144.045,741.037 C143.045,741.522 142.087,741.853 141.17,742.03 C140.253,742.207 139.326,742.295 138.389,742.295 C136.899,742.295 135.714,742.074 134.834,741.631 C133.954,741.188 133.514,740.582 133.514,739.811 C133.514,738.821 134.087,738.326 135.232,738.326 C135.982,738.326 136.949,738.735 138.131,739.553 C139.313,740.371 140.253,740.78 140.951,740.78 C142.524,740.78 143.844,740.113 144.912,738.78 C145.98,737.446 146.514,735.811 146.514,733.873"/>
<path class="MeasureNumber" d="M127.545,1668.01 C127.066,1668.01 126.107,1668.31 124.67,1668.89 L124.67,1668.34 L131.873,1664.7 L132.185,1664.78 L132.185,1688.78 C132.185,1689.74 132.425,1690.36 132.904,1690.66 C133.383,1690.95 134.409,1691.11 135.982,1691.14 L135.982,1691.73 L124.951,1691.73 L124.951,1691.14 C126.441,1691.08 127.446,1690.85 127.967,1690.47 C128.488,1690.08 128.748,1689.26 128.748,1688.01 L128.748,1669.89 C128.748,1668.64 128.347,1668.01 127.545,1668.01 M159.092,1682.66 L159.092,1685.06 L155.014,1685.06 L155.014,1691.73 L151.935,1691.73 L151.935,1685.06 L140.701,1685.06 L140.701,1682.66 L153.248,1664.7 L155.014,1664.7 L155.014,1682.66 L159.092,1682.66 M151.889,1682.66 L151.889,1668.94 L142.295,1682.66 L151.889,1682.66 "/>
<path class="MeasureNumber" d="M127.045,1193.01 C126.566,1193.01 125.607,1193.31 124.17,1193.89 L124.17,1193.34 L131.373,1189.7 L131.685,1189.78 L131.685,1213.78 C131.685,1214.74 131.925,1215.36 132.404,1215.65 C132.883,1215.95 133.909,1216.11 135.482,1216.14 L135.482,1216.73 L124.451,1216.73 L124.451,1216.14 C125.941,1216.08 126.946,1215.85 127.467,1215.47 C127.988,1215.08 128.248,1214.26 128.248,1213.01 L128.248,1194.89 C128.248,1193.64 127.847,1193.01 127.045,1193.01 M156.271,1213.45 C154.62,1216.01 152.435,1217.3 149.717,1217.3 C146.998,1217.3 144.81,1215.99 143.154,1213.37 C141.498,1210.76 140.67,1207.4 140.67,1203.3 C140.67,1199.43 141.498,1196.2 143.154,1193.6 C144.81,1191 147.05,1189.7 149.873,1189.7 C152.488,1189.7 154.62,1190.98 156.271,1193.54 C157.922,1196.1 158.748,1199.43 158.748,1203.53 C158.748,1207.58 157.922,1210.89 156.271,1213.45 M149.748,1190.73 C146.258,1190.73 144.514,1195.04 144.514,1203.65 C144.514,1212.05 146.248,1216.25 149.717,1216.25 C153.185,1216.25 154.92,1212.04 154.92,1203.61 C154.92,1199.43 154.48,1196.24 153.6,1194.04 C152.719,1191.83 151.435,1190.73 149.748,1190.73"/>
<path class="TieSegment" stroke="#000000" stroke-width="1.75" stroke-linecap="round" stroke-linejoin="round" fill-rule="evenodd" d="M2398.77,285.459 C2425.57,260.301 2505.95,260.301 2532.74,285.459 C2505.95,264.301 2425.57,264.301 2398.77,285.459"/>
<polyline class="BarLine" fill="none" stroke="#000000" stroke-width="4.00" stroke-linejoin="bevel" points="450.889,1740.73 450.889,1842.73"/>
<polyline class="BarLine" fill="none" stroke="#000000" stroke-width="4.00" stroke-linejoin="bevel" points="2833.47,315.732 2833.47,417.733"/>
<polyline class="BarLine" fill="none" stroke="#000000" stroke-width="4.00" stroke-linejoin="bevel" points="2833.47,1265.73 2833.47,1367.73"/>
<polyline class="BarLine" fill="none" stroke="#000000" stroke-width="4.00" stroke-linejoin="bevel" points="2213.85,315.732 2213.85,417.733"/>
<polyline class="BarLine" fill="none" stroke="#000000" stroke-width="4.00" stroke-linejoin="bevel" points="812.021,790.733 812.021,892.733"/>
<polyline class="BarLine" fill="none" stroke="#000000" stroke-width="4.00" stroke-linejoin="bevel" points="2169.03,1265.73 2169.03,1367.73"/>
<polyline class="BarLine" fill="none" stroke="#000000" stroke-width="4.00" stroke-linejoin="bevel" points="1276.68,790.733 1276.68,892.733"/>
<polyline class="BarLine" fill="none" stroke="#000000" stroke-width="4.00" stroke-linejoin="bevel" points="1828.47,790.733 1828.47,892.733"/>
<polyline class="BarLine" fill="none" stroke="#000000" stroke-width="4.00" stroke-linejoin="bevel" points="1573.17,315.732 1573.17,417.733"/>
<polyline class="BarLine" fill="none" stroke="#000000" stroke-width="4.00" stroke-linejoin="bevel" points="2293.12,790.733 2293.12,892.733"/>
<polyline class="BarLine" fill="none" stroke="#000000" stroke-width="4.00" stroke-linejoin="bevel" points="1539.9,1265.73 1539.9,1367.73"/>
<polyline class="BarLine" fill="none" stroke="#000000" stroke-width="4.00" stroke-linejoin="bevel" points="953.549,315.732 953.549,417.733"/>
<polyline class="BarLine" fill="none" stroke="#000000" stroke-width="4.00" stroke-linejoin="bevel" points="673.876,1740.73 673.876,1842.73"/>
<polyline class="BarLine" fill="none" stroke="#000000" stroke-width="4.00" stroke-linejoin="bevel" points="889.367,1265.73 889.367,1367.73"/>
<polyline class="BarLine" fill="none" stroke="#000000" stroke-width="4.00" stroke-linejoin="bevel" points="866.343,1740.73 866.343,1842.73"/>
<polyline class="BarLine" fill="none" stroke="#000000" stroke-width="12.50" stroke-linejoin="bevel" points="892.843,1740.73 892.843,1842.73"/>
<polyline class="BarLine" fill="none" stroke="#000000" stroke-width="4.00" stroke-linejoin="bevel" points="2833.47,790.733 2833.47,892.733"/>
<polyline class="LedgerLine" fill="none" stroke="#000000" stroke-width="4.00" stroke-linejoin="bevel" points="277.732,1216.73 329.647,1216.73"/>
<polyline class="LedgerLine" fill="none" stroke="#000000" stroke-width="4.00" stroke-linejoin="bevel" points="418.941,1241.73 470.855,1241.73"/>
<polyline class="LedgerLine" fill="none" stroke="#000000" stroke-width="4.00" stroke-linejoin="bevel" points="1845.97,766.733 1897.88,766.733"/>
<polyline class="LedgerLine" fill="none" stroke="#000000" stroke-width="4.00" stroke-linejoin="bevel" points="1557.4,1241.73 1609.31,1241.73"/>
<polyline class="LedgerLine" fill="none" stroke="#000000" stroke-width="4.00" stroke-linejoin="bevel" points="2705.79,766.733 2757.71,766.733"/>
<polyline class="LedgerLine" fill="none" stroke="#000000" stroke-width="4.00" stroke-linejoin="bevel" points="2398.34,1241.73 2450.26,1241.73"/>
<polyline class="LedgerLine" fill="none" stroke="#000000" stroke-width="4.00" stroke-linejoin="bevel" points="559.247,1241.73 612.965,1241.73"/>
<polyline class="LedgerLine" fill="none" stroke="#000000" stroke-width="4.00" stroke-linejoin="bevel" points="2705.79,741.733 2757.71,741.733"/>
<polyline class="LedgerLine" fill="none" stroke="#000000" stroke-width="4.00" stroke-linejoin="bevel" points="451.995,766.733 503.909,766.733"/>
<polyline class="LedgerLine" fill="none" stroke="#000000" stroke-width="4.00" stroke-linejoin="bevel" points="277.732,1241.73 329.647,1241.73"/>
<polyline class="LedgerLine" fill="none" stroke="#000000" stroke-width="4.00" stroke-linejoin="bevel" points="1387.19,1241.73 1439.1,1241.73"/>
<polyline class="LedgerLine" fill="none" stroke="#000000" stroke-width="4.00" stroke-linejoin="bevel" points="971.049,266.732 1022.96,266.732"/>
<polyline class="LedgerLine" fill="none" stroke="#000000" stroke-width="4.00" stroke-linejoin="bevel" points="971.049,291.732 1022.96,291.732"/>
<polyline class="LedgerLine" fill="none" stroke="#000000" stroke-width="4.00" stroke-linejoin="bevel" points="1248.09,291.732 1301.81,291.732"/>
<polyline class="LedgerLine" fill="none" stroke="#000000" stroke-width="4.00" stroke-linejoin="bevel" points="2231.35,291.732 2283.26,291.732"/>
<polyline class="LedgerLine" fill="none" stroke="#000000" stroke-width="4.00" stroke-linejoin="bevel" points="1110.02,291.732 1161.93,291.732"/>
<polyline class="LedgerLine" fill="none" stroke="#000000" stroke-width="4.00" stroke-linejoin="bevel" points="803.08,266.732 854.994,266.732"/>
<polyline class="LedgerLine" fill="none" stroke="#000000" stroke-width="4.00" stroke-linejoin="bevel" points="2063.38,291.732 2115.29,291.732"/>
<polyline class="LedgerLine" fill="none" stroke="#000000" stroke-width="4.00" stroke-linejoin="bevel" points="803.08,291.732 854.994,291.732"/>
<polyline class="Stem" fill="none" stroke="#000000" stroke-width="3.25" stroke-linejoin="bevel" points="1568.52,1247.6 1568.52,1316.8"/>
<polyline class="Stem" fill="none" stroke="#000000" stroke-width="3.25" stroke-linejoin="bevel" points="2716.92,747.602 2716.92,842.333"/>
<polyline class="Stem" fill="none" stroke="#000000" stroke-width="3.25" stroke-linejoin="bevel" points="702.501,1784.13 702.501,1860.48"/>
<polyline class="Stem" fill="none" stroke="#000000" stroke-width="3.25" stroke-linejoin="bevel" points="479.514,1747.6 479.514,1829.23"/>
<polyline class="Stem" fill="none" stroke="#000000" stroke-width="3.25" stroke-linejoin="bevel" points="2496.01,785.102 2496.01,866.733"/>
<polyline class="Stem" fill="none" stroke="#000000" stroke-width="3.25" stroke-linejoin="bevel" points="1857.09,772.602 1857.09,854.233"/>
<polyline class="Stem" fill="none" stroke="#000000" stroke-width="3.25" stroke-linejoin="bevel" points="2321.75,785.102 2321.75,866.733"/>
<polyline class="Stem" fill="none" stroke="#000000" stroke-width="3.25" stroke-linejoin="bevel" points="1121.14,285.102 1121.14,366.661"/>
<polyline class="Stem" fill="none" stroke="#000000" stroke-width="3.25" stroke-linejoin="bevel" points="1259.21,284.132 1259.21,366.733"/>
<polyline class="Stem" fill="none" stroke="#000000" stroke-width="3.25" stroke-linejoin="bevel" points="2519.51,309.132 2519.51,391.733"/>
<polyline class="Stem" fill="none" stroke="#000000" stroke-width="3.25" stroke-linejoin="bevel" points="2030.45,784.133 2030.45,866.733"/>
<polyline class="Stem" fill="none" stroke="#000000" stroke-width="3.25" stroke-linejoin="bevel" points="982.174,272.602 982.174,360.554"/>
<polyline class="Stem" fill="none" stroke="#000000" stroke-width="3.25" stroke-linejoin="bevel" points="814.205,272.602 814.205,367.333"/>
<polyline class="Stem" fill="none" stroke="#000000" stroke-width="3.25" stroke-linejoin="bevel" points="288.857,1222.6 288.857,1310.55"/>
<polyline class="Stem" fill="none" stroke="#000000" stroke-width="3.25" stroke-linejoin="bevel" points="544.176,1760.1 544.176,1841.73"/>
<polyline class="Stem" fill="none" stroke="#000000" stroke-width="3.25" stroke-linejoin="bevel" points="1398.31,1247.6 1398.31,1329.83"/>
<polyline class="Stem" fill="none" stroke="#000000" stroke-width="3.25" stroke-linejoin="bevel" points="430.066,1235.1 430.066,1316.66"/>
<polyline class="Stem" fill="none" stroke="#000000" stroke-width="3.25" stroke-linejoin="bevel" points="549.953,310.102 549.953,391.733"/>
<polyline class="Stem" fill="none" stroke="#000000" stroke-width="3.25" stroke-linejoin="bevel" points="570.372,1234.13 570.372,1316.73"/>
<polyline class="Stem" fill="none" stroke="#000000" stroke-width="3.25" stroke-linejoin="bevel" points="341.498,310.102 341.498,391.733"/>
<polyline class="Stem" fill="none" stroke="#000000" stroke-width="3.25" stroke-linejoin="bevel" points="608.839,1772.6 608.839,1854.23"/>
<polyline class="Stem" fill="none" stroke="#000000" stroke-width="3.25" stroke-linejoin="bevel" points="917.992,1272.6 917.992,1354.23"/>
<polyline class="Stem" fill="none" stroke="#000000" stroke-width="3.25" stroke-linejoin="bevel" points="1129.8,1272.6 1129.8,1354.23"/>
<polyline class="Stem" fill="none" stroke="#000000" stroke-width="3.25" stroke-linejoin="bevel" points="1014.01,796.633 1014.01,879.233"/>
<polyline class="Stem" fill="none" stroke="#000000" stroke-width="3.25" stroke-linejoin="bevel" points="288.857,810.102 288.857,891.733"/>
<polyline class="Stem" fill="none" stroke="#000000" stroke-width="3.25" stroke-linejoin="bevel" points="2409.47,1247.6 2409.47,1329.23"/>
<polyline class="Stem" fill="none" stroke="#000000" stroke-width="3.25" stroke-linejoin="bevel" points="463.12,772.602 463.12,854.233"/>
<polyline class="Stem" fill="none" stroke="#000000" stroke-width="3.25" stroke-linejoin="bevel" points="2197.66,1285.1 2197.66,1366.73"/>
<polyline class="Stem" fill="none" stroke="#000000" stroke-width="3.25" stroke-linejoin="bevel" points="2242.47,297.602 2242.47,366.804"/>
<polyline class="Stem" fill="none" stroke="#000000" stroke-width="3.25" stroke-linejoin="bevel" points="637.383,785.102 637.383,866.733"/>
<polyline class="Stem" fill="none" stroke="#000000" stroke-width="3.25" stroke-linejoin="bevel" points="2074.5,297.602 2074.5,379.833"/>
<polyline class="Stem" fill="none" stroke="#000000" stroke-width="3.25" stroke-linejoin="bevel" points="840.646,785.102 840.646,866.733"/>
<polyline class="Stem" fill="none" stroke="#000000" stroke-width="3.25" stroke-linejoin="bevel" points="288.857,1735.1 288.857,1816.73"/>
<polyline class="Stem" fill="none" stroke="#000000" stroke-width="3.25" stroke-linejoin="bevel" points="2381.44,310.102 2381.44,372.911"/>
<polyline class="Stem" fill="none" stroke="#000000" stroke-width="3.25" stroke-linejoin="bevel" points="1601.8,322.602 1601.8,404.233"/>
<polyline class="Stem" fill="none" stroke="#000000" stroke-width="3.25" stroke-linejoin="bevel" points="1305.3,797.602 1305.3,879.233"/>
<polyline class="Stem" fill="none" stroke="#000000" stroke-width="3.25" stroke-linejoin="bevel" points="1850.04,1259.13 1850.04,1341.73"/>
<polyline class="Stem" fill="none" stroke="#000000" stroke-width="3.25" stroke-linejoin="bevel" points="2621.28,1260.1 2621.28,1341.73"/>
<polyline class="Stem" fill="none" stroke="#000000" stroke-width="3.25" stroke-linejoin="bevel" points="1479.57,810.102 1479.57,891.733"/>
<polyline class="Stem" fill="none" stroke="#000000" stroke-width="3.25" stroke-linejoin="bevel" points="1810.25,322.602 1810.25,404.233"/>
<polyline class="Stem" fill="none" stroke="#000000" stroke-width="3.25" stroke-linejoin="bevel" points="1653.83,822.602 1653.83,904.233"/>
<polyline class="Stem" fill="none" stroke="#000000" stroke-width="3.25" stroke-linejoin="bevel" points="1709.73,1260.1 1709.73,1322.91"/>
<polyline class="Stem" fill="none" stroke="#000000" stroke-width="3.25" stroke-linejoin="bevel" points="352.618,1746.63 352.618,1829.23"/>
<path class="Hook" d="M2738.04,769.373 C2739.54,769.373 2741.12,771.798 2742.79,776.647 C2744.45,781.496 2745.28,785.939 2745.28,789.975 C2745.28,794.011 2744.35,797.918 2742.5,801.694 C2740.64,805.47 2738.41,808.79 2735.81,811.655 L2727.79,820.639 C2725.32,823.504 2723.14,826.79 2721.25,830.498 C2719.36,834.207 2718.42,837.952 2718.42,841.733 L2715.29,841.733 L2715.29,816.733 L2718.42,816.733 C2729.36,809.827 2736.23,803.707 2739.03,798.373 C2740.39,795.769 2741.07,793.134 2741.07,790.467 C2741.07,784.28 2739.28,778.123 2735.7,771.998 L2735.7,771.608 C2735.7,771.024 2735.93,770.506 2736.39,770.053 C2736.85,769.6 2737.4,769.373 2738.04,769.373"/>
<path class="Hook" d="M1419.44,1256.87 C1420.94,1256.87 1422.52,1259.3 1424.18,1264.15 C1425.84,1269 1426.67,1273.44 1426.67,1277.48 C1426.67,1281.51 1425.75,1285.42 1423.89,1289.19 C1422.04,1292.97 1419.81,1296.29 1417.2,1299.15 L1409.19,1308.14 C1406.72,1311 1404.54,1314.29 1402.65,1318 C1400.76,1321.71 1399.81,1325.45 1399.81,1329.23 L1396.69,1329.23 L1396.69,1304.23 L1399.81,1304.23 C1410.75,1297.33 1417.62,1291.21 1420.42,1285.87 C1421.79,1283.27 1422.47,1280.63 1422.47,1277.97 C1422.47,1271.78 1420.68,1265.62 1417.09,1259.5 L1417.09,1259.11 C1417.09,1258.52 1417.32,1258.01 1417.78,1257.55 C1418.24,1257.1 1418.79,1256.87 1419.44,1256.87"/>
<path class="Hook" d="M2095.63,306.873 C2097.13,306.873 2098.71,309.298 2100.37,314.147 C2102.03,318.996 2102.86,323.438 2102.86,327.475 C2102.86,331.511 2101.93,335.417 2100.08,339.193 C2098.23,342.969 2096,346.29 2093.39,349.154 L2085.38,358.139 C2082.91,361.003 2080.73,364.29 2078.84,367.998 C2076.95,371.706 2076,375.451 2076,379.233 L2072.88,379.233 L2072.88,354.233 L2076,354.233 C2086.94,347.326 2093.81,341.206 2096.61,335.873 C2097.98,333.269 2098.66,330.634 2098.66,327.967 C2098.66,321.779 2096.87,315.623 2093.28,309.498 L2093.28,309.108 C2093.28,308.524 2093.51,308.006 2093.97,307.553 C2094.43,307.1 2094.98,306.873 2095.63,306.873"/>
<path class="Hook" d="M835.33,294.373 C836.83,294.373 838.41,296.798 840.072,301.647 C841.733,306.496 842.564,310.938 842.564,314.975 C842.564,319.011 841.637,322.917 839.783,326.693 C837.929,330.469 835.699,333.79 833.095,336.654 L825.08,345.639 C822.611,348.503 820.431,351.79 818.541,355.498 C816.65,359.206 815.705,362.951 815.705,366.733 L812.58,366.733 L812.58,341.733 L815.705,341.733 C826.642,334.826 833.512,328.706 836.314,323.373 C837.679,320.769 838.361,318.134 838.361,315.467 C838.361,309.279 836.569,303.123 832.986,296.998 L832.986,296.608 C832.986,296.024 833.215,295.506 833.673,295.053 C834.132,294.6 834.684,294.373 835.33,294.373"/>
<path class="Note" d="M629.183,1752.97 C632.308,1752.97 634.912,1753.75 636.995,1755.31 C639.078,1756.87 640.12,1759.12 640.12,1762.05 C640.12,1766.54 637.795,1770.73 633.144,1774.64 C628.493,1778.55 623.495,1780.5 618.151,1780.5 C615.026,1780.5 612.391,1779.69 610.245,1778.06 C608.224,1776.3 607.214,1774.09 607.214,1771.42 C607.214,1767.06 609.526,1762.89 614.151,1758.92 C618.776,1754.95 623.787,1752.97 629.183,1752.97"/>
<path class="Note" d="M564.52,1740.47 C567.645,1740.47 570.249,1741.25 572.333,1742.81 C574.416,1744.37 575.458,1746.62 575.458,1749.55 C575.458,1754.04 573.132,1758.23 568.481,1762.14 C563.83,1766.05 558.833,1768 553.489,1768 C550.364,1768 547.728,1767.19 545.583,1765.56 C543.562,1763.8 542.551,1761.59 542.551,1758.92 C542.551,1754.56 544.864,1750.39 549.489,1746.42 C554.114,1742.45 559.124,1740.47 564.52,1740.47"/>
<path class="Note" d="M2641.62,1240.47 C2644.75,1240.47 2647.35,1241.25 2649.44,1242.81 C2651.52,1244.37 2652.56,1246.62 2652.56,1249.55 C2652.56,1254.04 2650.24,1258.23 2645.59,1262.14 C2640.93,1266.05 2635.94,1268 2630.59,1268 C2627.47,1268 2624.83,1267.19 2622.69,1265.56 C2620.67,1263.8 2619.66,1261.59 2619.66,1258.92 C2619.66,1254.56 2621.97,1250.39 2626.59,1246.42 C2631.22,1242.45 2636.23,1240.47 2641.62,1240.47"/>
<path class="Note" d="M2429.81,1227.97 C2432.94,1227.97 2435.54,1228.75 2437.62,1230.31 C2439.71,1231.87 2440.75,1234.12 2440.75,1237.05 C2440.75,1241.54 2438.42,1245.73 2433.77,1249.64 C2429.12,1253.55 2424.12,1255.5 2418.78,1255.5 C2415.66,1255.5 2413.02,1254.69 2410.87,1253.06 C2408.85,1251.3 2407.84,1249.09 2407.84,1246.42 C2407.84,1242.06 2410.16,1237.89 2414.78,1233.92 C2419.41,1229.95 2424.42,1227.97 2429.81,1227.97"/>
<path class="Note" d="M1150.15,1252.97 C1153.27,1252.97 1155.88,1253.75 1157.96,1255.31 C1160.04,1256.87 1161.09,1259.12 1161.09,1262.05 C1161.09,1266.54 1158.76,1270.73 1154.11,1274.64 C1149.46,1278.55 1144.46,1280.5 1139.12,1280.5 C1135.99,1280.5 1133.36,1279.69 1131.21,1278.06 C1129.19,1276.3 1128.18,1274.09 1128.18,1271.42 C1128.18,1267.06 1130.49,1262.89 1135.12,1258.92 C1139.74,1254.95 1144.75,1252.97 1150.15,1252.97"/>
<path class="Note" d="M2218,1265.47 C2221.13,1265.47 2223.73,1266.25 2225.81,1267.81 C2227.9,1269.37 2228.94,1271.62 2228.94,1274.55 C2228.94,1279.04 2226.61,1283.23 2221.96,1287.14 C2217.31,1291.05 2212.31,1293 2206.97,1293 C2203.84,1293 2201.21,1292.19 2199.06,1290.56 C2197.04,1288.8 2196.03,1286.59 2196.03,1283.92 C2196.03,1279.56 2198.34,1275.39 2202.97,1271.42 C2207.59,1267.45 2212.6,1265.47 2218,1265.47"/>
<path class="Note" d="M1877.43,752.967 C1880.56,752.967 1883.16,753.748 1885.25,755.311 C1887.33,756.873 1888.37,759.118 1888.37,762.045 C1888.37,766.535 1886.05,770.733 1881.4,774.639 C1876.74,778.545 1871.75,780.498 1866.4,780.498 C1863.28,780.498 1860.64,779.686 1858.5,778.061 C1856.48,776.3 1855.47,774.087 1855.47,771.42 C1855.47,767.056 1857.78,762.889 1862.4,758.92 C1867.03,754.952 1872.04,752.967 1877.43,752.967"/>
<path class="Note" d="M1418.66,1227.97 C1421.78,1227.97 1424.39,1228.75 1426.47,1230.31 C1428.55,1231.87 1429.59,1234.12 1429.59,1237.05 C1429.59,1241.54 1427.27,1245.73 1422.62,1249.64 C1417.97,1253.55 1412.97,1255.5 1407.63,1255.5 C1404.5,1255.5 1401.87,1254.69 1399.72,1253.06 C1397.7,1251.3 1396.69,1249.09 1396.69,1246.42 C1396.69,1242.06 1399,1237.89 1403.63,1233.92 C1408.25,1229.95 1413.26,1227.97 1418.66,1227.97"/>
<path class="Note" d="M499.858,1727.97 C502.983,1727.97 505.587,1728.75 507.67,1730.31 C509.753,1731.87 510.795,1734.12 510.795,1737.05 C510.795,1741.54 508.47,1745.73 503.819,1749.64 C499.167,1753.55 494.17,1755.5 488.826,1755.5 C485.701,1755.5 483.066,1754.69 480.92,1753.06 C478.899,1751.3 477.889,1749.09 477.889,1746.42 C477.889,1742.06 480.201,1737.89 484.826,1733.92 C489.451,1729.95 494.462,1727.97 499.858,1727.97"/>
<path class="Note" d="M1855.83,1264.87 C1857.72,1264.87 1861.67,1262.92 1867.7,1259.01 C1873.73,1255.11 1877.28,1252.49 1878.35,1251.15 C1879.42,1249.82 1879.96,1248.63 1879.96,1247.59 C1879.96,1246.55 1879.53,1245.62 1878.68,1244.81 C1877.84,1244 1876.86,1243.59 1875.75,1243.59 C1873.81,1243.59 1869.82,1245.56 1863.79,1249.5 C1857.77,1253.44 1854.23,1256.06 1853.19,1257.36 C1852.15,1258.66 1851.63,1259.83 1851.63,1260.87 C1851.63,1261.92 1852.04,1262.84 1852.86,1263.65 C1853.67,1264.47 1854.67,1264.87 1855.83,1264.87 M1874.79,1240.47 C1880.38,1240.47 1883.18,1242.87 1883.18,1247.69 C1883.18,1250.03 1882.49,1252.75 1881.13,1255.84 C1879.76,1258.94 1877.94,1261.3 1875.66,1262.92 C1870.65,1266.31 1864.37,1268 1856.82,1268 C1851.21,1268 1848.41,1265.59 1848.41,1260.78 C1848.41,1258.63 1849.08,1255.96 1850.41,1252.77 C1851.74,1249.58 1853.58,1247.17 1855.93,1245.55 C1860.95,1242.16 1867.23,1240.47 1874.79,1240.47"/>
<path class="Note" d="M309.201,1715.47 C312.326,1715.47 314.93,1716.25 317.014,1717.81 C319.097,1719.37 320.139,1721.62 320.139,1724.55 C320.139,1729.04 317.813,1733.23 313.162,1737.14 C308.511,1741.05 303.514,1743 298.17,1743 C295.045,1743 292.41,1742.19 290.264,1740.56 C288.243,1738.8 287.232,1736.59 287.232,1733.92 C287.232,1729.56 289.545,1725.39 294.17,1721.42 C298.795,1717.45 303.805,1715.47 309.201,1715.47"/>
<path class="Note" d="M1730.07,1240.47 C1733.2,1240.47 1735.8,1241.25 1737.89,1242.81 C1739.97,1244.37 1741.01,1246.62 1741.01,1249.55 C1741.01,1254.04 1738.69,1258.23 1734.03,1262.14 C1729.38,1266.05 1724.39,1268 1719.04,1268 C1715.92,1268 1713.28,1267.19 1711.14,1265.56 C1709.12,1263.8 1708.1,1261.59 1708.1,1258.92 C1708.1,1254.56 1710.42,1250.39 1715.04,1246.42 C1719.67,1242.45 1724.68,1240.47 1730.07,1240.47"/>
<path class="Note" d="M1588.87,1227.97 C1591.99,1227.97 1594.59,1228.75 1596.68,1230.31 C1598.76,1231.87 1599.8,1234.12 1599.8,1237.05 C1599.8,1241.54 1597.48,1245.73 1592.83,1249.64 C1588.18,1253.55 1583.18,1255.5 1577.83,1255.5 C1574.71,1255.5 1572.07,1254.69 1569.93,1253.06 C1567.91,1251.3 1566.9,1249.09 1566.9,1246.42 C1566.9,1242.06 1569.21,1237.89 1573.83,1233.92 C1578.46,1229.95 1583.47,1227.97 1588.87,1227.97"/>
<path class="Note" d="M358.415,1752.37 C360.3,1752.37 364.256,1750.42 370.282,1746.51 C376.308,1742.61 379.857,1739.99 380.93,1738.66 C382.003,1737.32 382.54,1736.13 382.54,1735.09 C382.54,1734.05 382.115,1733.12 381.266,1732.31 C380.417,1731.5 379.441,1731.09 378.336,1731.09 C376.388,1731.09 372.402,1733.06 366.375,1737 C360.349,1740.94 356.816,1743.56 355.774,1744.86 C354.732,1746.16 354.211,1747.33 354.211,1748.37 C354.211,1749.42 354.62,1750.34 355.438,1751.16 C356.256,1751.97 357.248,1752.37 358.415,1752.37 M377.368,1727.97 C382.961,1727.97 385.758,1730.37 385.758,1735.19 C385.758,1737.53 385.076,1740.25 383.711,1743.34 C382.347,1746.44 380.524,1748.8 378.243,1750.42 C373.232,1753.81 366.951,1755.5 359.399,1755.5 C353.795,1755.5 350.993,1753.09 350.993,1748.28 C350.993,1746.13 351.659,1743.47 352.993,1740.27 C354.326,1737.08 356.165,1734.67 358.508,1733.05 C363.529,1729.66 369.816,1727.97 377.368,1727.97"/>
<path class="Note" d="M1325.65,777.967 C1328.77,777.967 1331.38,778.748 1333.46,780.311 C1335.54,781.873 1336.58,784.118 1336.58,787.045 C1336.58,791.535 1334.26,795.733 1329.61,799.639 C1324.96,803.545 1319.96,805.498 1314.62,805.498 C1311.49,805.498 1308.85,804.686 1306.71,803.061 C1304.69,801.3 1303.68,799.087 1303.68,796.42 C1303.68,792.056 1305.99,787.889 1310.62,783.92 C1315.24,779.952 1320.25,777.967 1325.65,777.967"/>
<path class="Note" d="M2094.85,277.967 C2097.97,277.967 2100.58,278.748 2102.66,280.311 C2104.74,281.873 2105.78,284.118 2105.78,287.045 C2105.78,291.535 2103.46,295.732 2098.81,299.639 C2094.16,303.545 2089.16,305.498 2083.81,305.498 C2080.69,305.498 2078.05,304.686 2075.91,303.061 C2073.89,301.3 2072.88,299.087 2072.88,296.42 C2072.88,292.055 2075.19,287.889 2079.81,283.92 C2084.44,279.951 2089.45,277.967 2094.85,277.967"/>
<path class="Note" d="M708.298,1789.87 C710.184,1789.87 714.139,1787.92 720.166,1784.01 C726.192,1780.11 729.741,1777.49 730.814,1776.16 C731.887,1774.82 732.423,1773.63 732.423,1772.59 C732.423,1771.55 731.999,1770.62 731.15,1769.81 C730.301,1769 729.324,1768.59 728.22,1768.59 C726.272,1768.59 722.285,1770.56 716.259,1774.5 C710.233,1778.44 706.699,1781.06 705.658,1782.36 C704.616,1783.66 704.095,1784.83 704.095,1785.87 C704.095,1786.92 704.504,1787.84 705.322,1788.66 C706.139,1789.47 707.132,1789.87 708.298,1789.87 M727.251,1765.47 C732.845,1765.47 735.642,1767.87 735.642,1772.69 C735.642,1775.03 734.96,1777.75 733.595,1780.84 C732.231,1783.94 730.408,1786.3 728.126,1787.92 C723.116,1791.31 716.835,1793 709.283,1793 C703.679,1793 700.876,1790.59 700.876,1785.78 C700.876,1783.63 701.543,1780.97 702.876,1777.77 C704.21,1774.58 706.048,1772.17 708.392,1770.55 C713.413,1767.16 719.699,1765.47 727.251,1765.47"/>
<path class="Note" d="M2262.82,277.967 C2265.94,277.967 2268.54,278.748 2270.63,280.311 C2272.71,281.873 2273.75,284.118 2273.75,287.045 C2273.75,291.535 2271.43,295.732 2266.78,299.639 C2262.13,303.545 2257.13,305.498 2251.78,305.498 C2248.66,305.498 2246.02,304.686 2243.88,303.061 C2241.86,301.3 2240.85,299.087 2240.85,296.42 C2240.85,292.055 2243.16,287.889 2247.78,283.92 C2252.41,279.951 2257.42,277.967 2262.82,277.967"/>
<path class="Note" d="M1830.59,302.967 C1833.72,302.967 1836.32,303.748 1838.41,305.311 C1840.49,306.873 1841.53,309.118 1841.53,312.045 C1841.53,316.535 1839.21,320.732 1834.56,324.639 C1829.9,328.545 1824.91,330.498 1819.56,330.498 C1816.44,330.498 1813.8,329.686 1811.66,328.061 C1809.64,326.3 1808.63,324.087 1808.63,321.42 C1808.63,317.055 1810.94,312.889 1815.56,308.92 C1820.19,304.951 1825.2,302.967 1830.59,302.967"/>
<path class="Note" d="M2401.79,290.467 C2404.91,290.467 2407.51,291.248 2409.6,292.811 C2411.68,294.373 2412.72,296.618 2412.72,299.545 C2412.72,304.035 2410.4,308.232 2405.75,312.139 C2401.1,316.045 2396.1,317.998 2390.75,317.998 C2387.63,317.998 2384.99,317.186 2382.85,315.561 C2380.83,313.8 2379.82,311.587 2379.82,308.92 C2379.82,304.555 2382.13,300.389 2386.75,296.42 C2391.38,292.451 2396.39,290.467 2401.79,290.467"/>
<path class="Note" d="M2525.31,314.873 C2527.19,314.873 2531.15,312.92 2537.17,309.014 C2543.2,305.107 2546.75,302.488 2547.82,301.154 C2548.89,299.821 2549.43,298.634 2549.43,297.592 C2549.43,296.55 2549.01,295.623 2548.16,294.811 C2547.31,293.998 2546.33,293.592 2545.23,293.592 C2543.28,293.592 2539.29,295.561 2533.27,299.498 C2527.24,303.436 2523.71,306.055 2522.67,307.357 C2521.62,308.66 2521.1,309.831 2521.1,310.873 C2521.1,311.915 2521.51,312.842 2522.33,313.654 C2523.15,314.467 2524.14,314.873 2525.31,314.873 M2544.26,290.467 C2549.85,290.467 2552.65,292.873 2552.65,297.686 C2552.65,300.029 2551.97,302.748 2550.6,305.842 C2549.24,308.936 2547.42,311.295 2545.13,312.92 C2540.12,316.305 2533.84,317.998 2526.29,317.998 C2520.69,317.998 2517.88,315.592 2517.88,310.779 C2517.88,308.634 2518.55,305.964 2519.88,302.772 C2521.22,299.579 2523.06,297.17 2525.4,295.545 C2530.42,292.16 2536.71,290.467 2544.26,290.467"/>
<path class="Note" d="M1622.14,302.967 C1625.26,302.967 1627.87,303.748 1629.95,305.311 C1632.04,306.873 1633.08,309.118 1633.08,312.045 C1633.08,316.535 1630.75,320.732 1626.1,324.639 C1621.45,328.545 1616.45,330.498 1611.11,330.498 C1607.98,330.498 1605.35,329.686 1603.2,328.061 C1601.18,326.3 1600.17,324.087 1600.17,321.42 C1600.17,317.055 1602.48,312.889 1607.11,308.92 C1611.73,304.951 1616.74,302.967 1622.14,302.967"/>
<path class="Note" d="M1265.01,289.873 C1266.89,289.873 1270.85,287.92 1276.88,284.014 C1282.9,280.107 1286.45,277.488 1287.52,276.154 C1288.6,274.821 1289.13,273.633 1289.13,272.592 C1289.13,271.55 1288.71,270.623 1287.86,269.811 C1287.01,268.998 1286.03,268.592 1284.93,268.592 C1282.98,268.592 1279,270.561 1272.97,274.498 C1266.94,278.436 1263.41,281.055 1262.37,282.357 C1261.33,283.66 1260.81,284.831 1260.81,285.873 C1260.81,286.915 1261.21,287.842 1262.03,288.654 C1262.85,289.467 1263.84,289.873 1265.01,289.873 M1283.96,265.467 C1289.56,265.467 1292.35,267.873 1292.35,272.686 C1292.35,275.029 1291.67,277.748 1290.31,280.842 C1288.94,283.936 1287.12,286.295 1284.84,287.92 C1279.83,291.305 1273.54,292.998 1265.99,292.998 C1260.39,292.998 1257.59,290.592 1257.59,285.779 C1257.59,283.633 1258.25,280.964 1259.59,277.772 C1260.92,274.579 1262.76,272.17 1265.1,270.545 C1270.12,267.16 1276.41,265.467 1283.96,265.467"/>
<path class="Note" d="M309.201,790.467 C312.326,790.467 314.93,791.248 317.014,792.811 C319.097,794.373 320.139,796.618 320.139,799.545 C320.139,804.035 317.813,808.233 313.162,812.139 C308.511,816.045 303.514,817.998 298.17,817.998 C295.045,817.998 292.41,817.186 290.264,815.561 C288.243,813.8 287.232,811.587 287.232,808.92 C287.232,804.556 289.545,800.389 294.17,796.42 C298.795,792.452 303.805,790.467 309.201,790.467"/>
<path class="Note" d="M483.464,752.967 C486.589,752.967 489.193,753.748 491.276,755.311 C493.36,756.873 494.401,759.118 494.401,762.045 C494.401,766.535 492.076,770.733 487.425,774.639 C482.774,778.545 477.776,780.498 472.433,780.498 C469.308,780.498 466.672,779.686 464.526,778.061 C462.506,776.3 461.495,774.087 461.495,771.42 C461.495,767.056 463.808,762.889 468.433,758.92 C473.058,754.952 478.068,752.967 483.464,752.967"/>
<path class="Note" d="M657.727,765.467 C660.852,765.467 663.456,766.248 665.539,767.811 C667.622,769.373 668.664,771.618 668.664,774.545 C668.664,779.035 666.339,783.233 661.688,787.139 C657.037,791.045 652.039,792.998 646.695,792.998 C643.57,792.998 640.935,792.186 638.789,790.561 C636.768,788.8 635.758,786.587 635.758,783.92 C635.758,779.556 638.07,775.389 642.695,771.42 C647.32,767.452 652.331,765.467 657.727,765.467"/>
<path class="Note" d="M1141.49,265.467 C1144.61,265.467 1147.22,266.248 1149.3,267.811 C1151.38,269.373 1152.43,271.618 1152.43,274.545 C1152.43,279.035 1150.1,283.232 1145.45,287.139 C1140.8,291.045 1135.8,292.998 1130.46,292.998 C1127.33,292.998 1124.7,292.186 1122.55,290.561 C1120.53,288.8 1119.52,286.587 1119.52,283.92 C1119.52,279.555 1121.83,275.389 1126.46,271.42 C1131.08,267.451 1136.09,265.467 1141.49,265.467"/>
<path class="Note" d="M860.989,765.467 C864.114,765.467 866.719,766.248 868.802,767.811 C870.885,769.373 871.927,771.618 871.927,774.545 C871.927,779.035 869.601,783.233 864.95,787.139 C860.299,791.045 855.302,792.998 849.958,792.998 C846.833,792.998 844.198,792.186 842.052,790.561 C840.031,788.8 839.021,786.587 839.021,783.92 C839.021,779.556 841.333,775.389 845.958,771.42 C850.583,767.452 855.594,765.467 860.989,765.467"/>
<path class="Note" d="M1019.8,802.373 C1021.69,802.373 1025.64,800.42 1031.67,796.514 C1037.7,792.608 1041.25,789.988 1042.32,788.655 C1043.39,787.321 1043.93,786.134 1043.93,785.092 C1043.93,784.05 1043.5,783.123 1042.65,782.311 C1041.81,781.498 1040.83,781.092 1039.72,781.092 C1037.78,781.092 1033.79,783.061 1027.76,786.998 C1021.74,790.936 1018.2,793.556 1017.16,794.858 C1016.12,796.16 1015.6,797.332 1015.6,798.373 C1015.6,799.415 1016.01,800.342 1016.83,801.155 C1017.64,801.967 1018.64,802.373 1019.8,802.373 M1038.76,777.967 C1044.35,777.967 1047.15,780.373 1047.15,785.186 C1047.15,787.53 1046.46,790.248 1045.1,793.342 C1043.74,796.436 1041.91,798.795 1039.63,800.42 C1034.62,803.806 1028.34,805.498 1020.79,805.498 C1015.18,805.498 1012.38,803.092 1012.38,798.28 C1012.38,796.134 1013.05,793.465 1014.38,790.272 C1015.71,787.079 1017.55,784.67 1019.9,783.045 C1024.92,779.66 1031.2,777.967 1038.76,777.967"/>
<path class="Note" d="M1499.91,790.467 C1503.03,790.467 1505.64,791.248 1507.72,792.811 C1509.8,794.373 1510.85,796.618 1510.85,799.545 C1510.85,804.035 1508.52,808.233 1503.87,812.139 C1499.22,816.045 1494.22,817.998 1488.88,817.998 C1485.75,817.998 1483.12,817.186 1480.97,815.561 C1478.95,813.8 1477.94,811.587 1477.94,808.92 C1477.94,804.556 1480.25,800.389 1484.88,796.42 C1489.5,792.452 1494.51,790.467 1499.91,790.467"/>
<path class="Note" d="M1674.17,802.967 C1677.3,802.967 1679.9,803.748 1681.98,805.311 C1684.07,806.873 1685.11,809.118 1685.11,812.045 C1685.11,816.535 1682.78,820.733 1678.13,824.639 C1673.48,828.545 1668.48,830.498 1663.14,830.498 C1660.02,830.498 1657.38,829.686 1655.23,828.061 C1653.21,826.3 1652.2,824.087 1652.2,821.42 C1652.2,817.056 1654.52,812.889 1659.14,808.92 C1663.77,804.952 1668.78,802.967 1674.17,802.967"/>
<path class="Note" d="M1002.52,252.967 C1005.64,252.967 1008.25,253.748 1010.33,255.311 C1012.41,256.873 1013.46,259.118 1013.46,262.045 C1013.46,266.535 1011.13,270.732 1006.48,274.639 C1001.83,278.545 996.831,280.498 991.487,280.498 C988.362,280.498 985.726,279.686 983.581,278.061 C981.56,276.3 980.549,274.087 980.549,271.42 C980.549,267.055 982.862,262.889 987.487,258.92 C992.112,254.951 997.122,252.967 1002.52,252.967"/>
<path class="Note" d="M834.548,252.967 C837.673,252.967 840.278,253.748 842.361,255.311 C844.444,256.873 845.486,259.118 845.486,262.045 C845.486,266.535 843.16,270.732 838.509,274.639 C833.858,278.545 828.861,280.498 823.517,280.498 C820.392,280.498 817.757,279.686 815.611,278.061 C813.59,276.3 812.58,274.087 812.58,271.42 C812.58,267.055 814.892,262.889 819.517,258.92 C824.142,254.951 829.153,252.967 834.548,252.967"/>
<path class="Note" d="M2036.25,789.873 C2038.13,789.873 2042.09,787.92 2048.12,784.014 C2054.14,780.108 2057.69,777.488 2058.76,776.155 C2059.84,774.821 2060.37,773.634 2060.37,772.592 C2060.37,771.55 2059.95,770.623 2059.1,769.811 C2058.25,768.998 2057.27,768.592 2056.17,768.592 C2054.22,768.592 2050.23,770.561 2044.21,774.498 C2038.18,778.436 2034.65,781.056 2033.61,782.358 C2032.57,783.66 2032.04,784.832 2032.04,785.873 C2032.04,786.915 2032.45,787.842 2033.27,788.655 C2034.09,789.467 2035.08,789.873 2036.25,789.873 M2055.2,765.467 C2060.79,765.467 2063.59,767.873 2063.59,772.686 C2063.59,775.03 2062.91,777.748 2061.54,780.842 C2060.18,783.936 2058.36,786.295 2056.08,787.92 C2051.07,791.306 2044.78,792.998 2037.23,792.998 C2031.63,792.998 2028.83,790.592 2028.83,785.78 C2028.83,783.634 2029.49,780.965 2030.83,777.772 C2032.16,774.579 2034,772.17 2036.34,770.545 C2041.36,767.16 2047.65,765.467 2055.2,765.467"/>
<path class="Note" d="M2342.09,765.467 C2345.22,765.467 2347.82,766.248 2349.9,767.811 C2351.99,769.373 2353.03,771.618 2353.03,774.545 C2353.03,779.035 2350.7,783.233 2346.05,787.139 C2341.4,791.045 2336.4,792.998 2331.06,792.998 C2327.94,792.998 2325.3,792.186 2323.15,790.561 C2321.13,788.8 2320.12,786.587 2320.12,783.92 C2320.12,779.556 2322.44,775.389 2327.06,771.42 C2331.69,767.452 2336.7,765.467 2342.09,765.467"/>
<path class="Note" d="M2516.35,765.467 C2519.48,765.467 2522.08,766.248 2524.17,767.811 C2526.25,769.373 2527.29,771.618 2527.29,774.545 C2527.29,779.035 2524.97,783.233 2520.31,787.139 C2515.66,791.045 2510.67,792.998 2505.32,792.998 C2502.2,792.998 2499.56,792.186 2497.42,790.561 C2495.4,788.8 2494.39,786.587 2494.39,783.92 C2494.39,779.556 2496.7,775.389 2501.32,771.42 C2505.95,767.452 2510.96,765.467 2516.35,765.467"/>
<path class="Note" d="M2737.26,727.967 C2740.39,727.967 2742.99,728.748 2745.07,730.311 C2747.16,731.873 2748.2,734.118 2748.2,737.045 C2748.2,741.535 2745.87,745.733 2741.22,749.639 C2736.57,753.545 2731.57,755.498 2726.23,755.498 C2723.11,755.498 2720.47,754.686 2718.32,753.061 C2716.3,751.3 2715.29,749.087 2715.29,746.42 C2715.29,742.056 2717.61,737.889 2722.23,733.92 C2726.86,729.951 2731.87,727.967 2737.26,727.967"/>
<path class="Note" d="M570.296,290.467 C573.421,290.467 576.026,291.248 578.109,292.811 C580.192,294.373 581.234,296.618 581.234,299.545 C581.234,304.035 578.908,308.232 574.257,312.139 C569.606,316.045 564.609,317.998 559.265,317.998 C556.14,317.998 553.505,317.186 551.359,315.561 C549.338,313.8 548.328,311.587 548.328,308.92 C548.328,304.555 550.64,300.389 555.265,296.42 C559.89,292.451 564.901,290.467 570.296,290.467"/>
<path class="Note" d="M361.842,290.467 C364.967,290.467 367.571,291.248 369.654,292.811 C371.738,294.373 372.779,296.618 372.779,299.545 C372.779,304.035 370.454,308.232 365.803,312.139 C361.152,316.045 356.154,317.998 350.811,317.998 C347.686,317.998 345.05,317.186 342.904,315.561 C340.884,313.8 339.873,311.587 339.873,308.92 C339.873,304.555 342.186,300.389 346.811,296.42 C351.436,292.451 356.446,290.467 361.842,290.467"/>
<path class="Note" d="M309.201,1202.97 C312.326,1202.97 314.93,1203.75 317.014,1205.31 C319.097,1206.87 320.139,1209.12 320.139,1212.05 C320.139,1216.54 317.813,1220.73 313.162,1224.64 C308.511,1228.55 303.514,1230.5 298.17,1230.5 C295.045,1230.5 292.41,1229.69 290.264,1228.06 C288.243,1226.3 287.232,1224.09 287.232,1221.42 C287.232,1217.06 289.545,1212.89 294.17,1208.92 C298.795,1204.95 303.805,1202.97 309.201,1202.97"/>
<path class="Note" d="M938.336,1252.97 C941.461,1252.97 944.065,1253.75 946.149,1255.31 C948.232,1256.87 949.274,1259.12 949.274,1262.05 C949.274,1266.54 946.948,1270.73 942.297,1274.64 C937.646,1278.55 932.649,1280.5 927.305,1280.5 C924.18,1280.5 921.544,1279.69 919.399,1278.06 C917.378,1276.3 916.367,1274.09 916.367,1271.42 C916.367,1267.06 918.68,1262.89 923.305,1258.92 C927.93,1254.95 932.94,1252.97 938.336,1252.97"/>
<path class="Note" d="M450.409,1215.47 C453.534,1215.47 456.139,1216.25 458.222,1217.81 C460.305,1219.37 461.347,1221.62 461.347,1224.55 C461.347,1229.04 459.021,1233.23 454.37,1237.14 C449.719,1241.05 444.722,1243 439.378,1243 C436.253,1243 433.618,1242.19 431.472,1240.56 C429.451,1238.8 428.441,1236.59 428.441,1233.92 C428.441,1229.56 430.753,1225.39 435.378,1221.42 C440.003,1217.45 445.014,1215.47 450.409,1215.47"/>
<path class="Note" d="M576.168,1239.87 C578.054,1239.87 582.01,1237.92 588.036,1234.01 C594.062,1230.11 597.611,1227.49 598.684,1226.15 C599.757,1224.82 600.293,1223.63 600.293,1222.59 C600.293,1221.55 599.869,1220.62 599.02,1219.81 C598.171,1219 597.194,1218.59 596.09,1218.59 C594.142,1218.59 590.155,1220.56 584.129,1224.5 C578.103,1228.44 574.569,1231.06 573.528,1232.36 C572.486,1233.66 571.965,1234.83 571.965,1235.87 C571.965,1236.92 572.374,1237.84 573.192,1238.65 C574.01,1239.47 575.002,1239.87 576.168,1239.87 M595.122,1215.47 C600.715,1215.47 603.512,1217.87 603.512,1222.69 C603.512,1225.03 602.83,1227.75 601.465,1230.84 C600.101,1233.94 598.278,1236.3 595.997,1237.92 C590.986,1241.31 584.705,1243 577.153,1243 C571.549,1243 568.747,1240.59 568.747,1235.78 C568.747,1233.63 569.413,1230.96 570.747,1227.77 C572.08,1224.58 573.918,1222.17 576.262,1220.55 C581.283,1217.16 587.569,1215.47 595.122,1215.47"/>
<path class="Clef" d="M203.623,423.858 L203.623,421.717 C203.56,420.613 203.399,418.889 203.139,416.545 C199.889,417.066 196.993,417.326 194.451,417.326 C185.337,417.326 177.605,413.727 171.256,406.529 C164.907,399.331 161.732,390.753 161.732,380.795 C161.732,378.128 162.253,374.923 163.295,371.178 C164.337,367.433 165.297,364.925 166.178,363.654 C167.058,362.384 168.378,360.154 170.139,356.967 C170.659,355.988 172.352,353.837 175.217,350.514 C175.738,349.805 176.193,349.222 176.584,348.764 C176.975,348.305 177.607,347.49 178.482,346.318 C179.357,345.147 180.3,344.055 181.31,343.045 C182.321,342.035 183.217,341.058 183.998,340.115 C184.779,339.173 185.498,338.378 186.154,337.733 C183.81,329.983 182.378,324.024 181.857,319.858 C181.337,315.691 181.076,310.579 181.076,304.522 C181.076,298.464 182.378,292.962 184.982,288.014 C187.514,282.878 191.06,278.68 195.623,275.42 C195.883,275.222 196.225,275.123 196.646,275.123 C197.068,275.123 197.378,275.222 197.576,275.42 C201.087,279.649 204.128,285.149 206.701,291.92 C209.274,298.691 210.56,305.024 210.56,310.92 C210.56,316.816 209.066,322.498 206.076,327.967 C202.691,333.759 198.326,339.748 192.982,345.936 C194.347,350.227 196.17,356.962 198.451,366.139 L199.045,366.139 C199.305,366.076 199.529,366.045 199.717,366.045 C207.081,366.045 213.089,368.634 217.74,373.811 C222.391,378.988 224.717,384.962 224.717,391.733 C224.717,400.128 221.238,406.899 214.279,412.045 C212.258,413.545 209.878,414.717 207.139,415.561 C207.472,419.79 207.639,422.605 207.639,424.006 C207.639,425.407 207.571,427.899 207.435,431.483 C207.373,437.597 205.29,442.837 201.185,447.201 C197.081,451.566 192.394,453.748 187.123,453.748 C181.852,453.748 177.36,451.876 173.646,448.131 C169.933,444.386 168.076,439.847 168.076,434.514 C168.076,431.712 169.154,429.331 171.31,427.373 C173.519,425.425 176.006,424.451 178.771,424.451 C181.537,424.451 183.8,425.462 185.56,427.483 C187.383,429.368 188.295,431.644 188.295,434.311 C188.295,436.977 187.383,439.222 185.56,441.045 C183.738,442.868 181.555,443.779 179.014,443.779 C177.972,443.779 176.967,443.587 175.998,443.201 C178.863,447.43 182.54,449.545 187.029,449.545 C191.519,449.545 195.36,447.691 198.553,443.983 C201.745,440.274 203.342,435.91 203.342,430.889 L203.623,423.858 M206.748,411.561 C210.133,410.321 212.821,408.123 214.81,404.967 C216.8,401.811 217.795,398.67 217.795,395.545 C217.795,390.92 216.199,386.785 213.006,383.139 C209.813,379.493 205.774,377.441 200.889,376.983 C203.691,390.722 205.644,402.248 206.748,411.561 M168.967,388.998 C168.967,395.446 171.537,401.079 176.678,405.897 C181.818,410.714 187.842,413.123 194.748,413.123 C197.477,413.123 200.144,412.925 202.748,412.529 C201.706,402.634 199.654,390.785 196.592,376.983 C192.758,377.378 189.782,378.699 187.662,380.943 C185.542,383.188 184.482,385.743 184.482,388.608 C184.482,393.555 187.123,397.561 192.404,400.623 C192.852,400.884 193.076,401.324 193.076,401.943 C193.076,402.563 192.865,403.1 192.443,403.553 C192.021,404.006 191.649,404.233 191.326,404.233 C191.003,404.233 190.581,404.17 190.06,404.045 C182.435,399.878 178.623,393.592 178.623,385.186 C178.623,381.217 180.024,377.41 182.826,373.764 C185.753,370.118 189.56,367.774 194.248,366.733 C192.425,359.441 190.93,353.743 189.764,349.639 C180.847,359.67 175.31,367.092 173.154,371.904 C170.363,378.154 168.967,383.852 168.967,388.998 M201.576,289.686 C196.691,292.092 192.834,295.574 190.006,300.131 C187.178,304.688 185.764,309.472 185.764,314.483 C185.764,319.493 186.935,325.972 189.279,333.92 C193.967,328.253 197.514,322.946 199.92,317.998 C202.326,313.05 203.529,308.152 203.529,303.303 C203.529,298.454 202.878,293.915 201.576,289.686"/>
<path class="Clef" d="M203.623,1848.86 L203.623,1846.72 C203.56,1845.61 203.399,1843.89 203.139,1841.55 C199.889,1842.07 196.993,1842.33 194.451,1842.33 C185.337,1842.33 177.605,1838.73 171.256,1831.53 C164.907,1824.33 161.732,1815.75 161.732,1805.8 C161.732,1803.13 162.253,1799.92 163.295,1796.18 C164.337,1792.43 165.297,1789.93 166.178,1788.66 C167.058,1787.38 168.378,1785.16 170.139,1781.97 C170.659,1780.99 172.352,1778.84 175.217,1775.51 C175.738,1774.81 176.193,1774.22 176.584,1773.76 C176.975,1773.31 177.607,1772.49 178.482,1771.32 C179.357,1770.15 180.3,1769.06 181.31,1768.05 C182.321,1767.04 183.217,1766.06 183.998,1765.12 C184.779,1764.17 185.498,1763.38 186.154,1762.73 C183.81,1754.98 182.378,1749.03 181.857,1744.86 C181.337,1740.69 181.076,1735.58 181.076,1729.52 C181.076,1723.47 182.378,1717.96 184.982,1713.01 C187.514,1707.88 191.06,1703.68 195.623,1700.42 C195.883,1700.22 196.225,1700.12 196.646,1700.12 C197.068,1700.12 197.378,1700.22 197.576,1700.42 C201.087,1704.65 204.128,1710.15 206.701,1716.92 C209.274,1723.69 210.56,1730.03 210.56,1735.92 C210.56,1741.82 209.066,1747.5 206.076,1752.97 C202.691,1758.76 198.326,1764.75 192.982,1770.94 C194.347,1775.23 196.17,1781.96 198.451,1791.14 L199.045,1791.14 C199.305,1791.08 199.529,1791.05 199.717,1791.05 C207.081,1791.05 213.089,1793.63 217.74,1798.81 C222.391,1803.99 224.717,1809.96 224.717,1816.73 C224.717,1825.13 221.238,1831.9 214.279,1837.05 C212.258,1838.55 209.878,1839.72 207.139,1840.56 C207.472,1844.79 207.639,1847.61 207.639,1849.01 C207.639,1850.41 207.571,1852.9 207.435,1856.48 C207.373,1862.6 205.29,1867.84 201.185,1872.2 C197.081,1876.57 192.394,1878.75 187.123,1878.75 C181.852,1878.75 177.36,1876.88 173.646,1873.13 C169.933,1869.39 168.076,1864.85 168.076,1859.51 C168.076,1856.71 169.154,1854.33 171.31,1852.37 C173.519,1850.43 176.006,1849.45 178.771,1849.45 C181.537,1849.45 183.8,1850.46 185.56,1852.48 C187.383,1854.37 188.295,1856.64 188.295,1859.31 C188.295,1861.98 187.383,1864.22 185.56,1866.05 C183.738,1867.87 181.555,1868.78 179.014,1868.78 C177.972,1868.78 176.967,1868.59 175.998,1868.2 C178.863,1872.43 182.54,1874.55 187.029,1874.55 C191.519,1874.55 195.36,1872.69 198.553,1868.98 C201.745,1865.28 203.342,1860.91 203.342,1855.89 L203.623,1848.86 M206.748,1836.56 C210.133,1835.32 212.821,1833.12 214.81,1829.97 C216.8,1826.81 217.795,1823.67 217.795,1820.55 C217.795,1815.92 216.199,1811.79 213.006,1808.14 C209.813,1804.49 205.774,1802.44 200.889,1801.98 C203.691,1815.72 205.644,1827.25 206.748,1836.56 M168.967,1814 C168.967,1820.45 171.537,1826.08 176.678,1830.9 C181.818,1835.72 187.842,1838.12 194.748,1838.12 C197.477,1838.12 200.144,1837.93 202.748,1837.53 C201.706,1827.63 199.654,1815.79 196.592,1801.98 C192.758,1802.38 189.782,1803.7 187.662,1805.94 C185.542,1808.19 184.482,1810.74 184.482,1813.61 C184.482,1818.56 187.123,1822.56 192.404,1825.62 C192.852,1825.88 193.076,1826.32 193.076,1826.94 C193.076,1827.56 192.865,1828.1 192.443,1828.55 C192.021,1829.01 191.649,1829.23 191.326,1829.23 C191.003,1829.23 190.581,1829.17 190.06,1829.05 C182.435,1824.88 178.623,1818.59 178.623,1810.19 C178.623,1806.22 180.024,1802.41 182.826,1798.76 C185.753,1795.12 189.56,1792.78 194.248,1791.73 C192.425,1784.44 190.93,1778.74 189.764,1774.64 C180.847,1784.67 175.31,1792.09 173.154,1796.91 C170.363,1803.16 168.967,1808.85 168.967,1814 M201.576,1714.69 C196.691,1717.09 192.834,1720.57 190.006,1725.13 C187.178,1729.69 185.764,1734.47 185.764,1739.48 C185.764,1744.49 186.935,1750.97 189.279,1758.92 C193.967,1753.25 197.514,1747.95 199.92,1743 C202.326,1738.05 203.529,1733.15 203.529,1728.3 C203.529,1723.45 202.878,1718.92 201.576,1714.69"/>
<path class="Clef" d="M203.623,898.858 L203.623,896.717 C203.56,895.613 203.399,893.889 203.139,891.545 C199.889,892.066 196.993,892.327 194.451,892.327 C185.337,892.327 177.605,888.728 171.256,881.53 C164.907,874.332 161.732,865.754 161.732,855.795 C161.732,853.129 162.253,849.923 163.295,846.178 C164.337,842.433 165.297,839.926 166.178,838.655 C167.058,837.384 168.378,835.155 170.139,831.967 C170.659,830.988 172.352,828.837 175.217,825.514 C175.738,824.806 176.193,824.222 176.584,823.764 C176.975,823.306 177.607,822.491 178.482,821.319 C179.357,820.147 180.3,819.056 181.31,818.045 C182.321,817.035 183.217,816.058 183.998,815.116 C184.779,814.173 185.498,813.379 186.154,812.733 C183.81,804.983 182.378,799.024 181.857,794.858 C181.337,790.691 181.076,785.579 181.076,779.522 C181.076,773.465 182.378,767.962 184.982,763.014 C187.514,757.879 191.06,753.681 195.623,750.42 C195.883,750.222 196.225,750.123 196.646,750.123 C197.068,750.123 197.378,750.222 197.576,750.42 C201.087,754.649 204.128,760.149 206.701,766.92 C209.274,773.691 210.56,780.024 210.56,785.92 C210.56,791.816 209.066,797.498 206.076,802.967 C202.691,808.759 198.326,814.748 192.982,820.936 C194.347,825.228 196.17,831.962 198.451,841.139 L199.045,841.139 C199.305,841.077 199.529,841.045 199.717,841.045 C207.081,841.045 213.089,843.634 217.74,848.811 C222.391,853.988 224.717,859.962 224.717,866.733 C224.717,875.129 221.238,881.899 214.279,887.045 C212.258,888.545 209.878,889.717 207.139,890.561 C207.472,894.79 207.639,897.605 207.639,899.006 C207.639,900.407 207.571,902.899 207.435,906.483 C207.373,912.597 205.29,917.837 201.185,922.202 C197.081,926.566 192.394,928.748 187.123,928.748 C181.852,928.748 177.36,926.876 173.646,923.131 C169.933,919.386 168.076,914.847 168.076,909.514 C168.076,906.712 169.154,904.332 171.31,902.373 C173.519,900.426 176.006,899.452 178.771,899.452 C181.537,899.452 183.8,900.462 185.56,902.483 C187.383,904.368 188.295,906.644 188.295,909.311 C188.295,911.978 187.383,914.222 185.56,916.045 C183.738,917.868 181.555,918.78 179.014,918.78 C177.972,918.78 176.967,918.587 175.998,918.202 C178.863,922.431 182.54,924.545 187.029,924.545 C191.519,924.545 195.36,922.691 198.553,918.983 C201.745,915.274 203.342,910.91 203.342,905.889 L203.623,898.858 M206.748,886.561 C210.133,885.321 212.821,883.123 214.81,879.967 C216.8,876.811 217.795,873.67 217.795,870.545 C217.795,865.92 216.199,861.785 213.006,858.139 C209.813,854.493 205.774,852.441 200.889,851.983 C203.691,865.722 205.644,877.248 206.748,886.561 M168.967,863.998 C168.967,870.446 171.537,876.079 176.678,880.897 C181.818,885.715 187.842,888.123 194.748,888.123 C197.477,888.123 200.144,887.926 202.748,887.53 C201.706,877.634 199.654,865.785 196.592,851.983 C192.758,852.379 189.782,853.699 187.662,855.944 C185.542,858.189 184.482,860.743 184.482,863.608 C184.482,868.556 187.123,872.561 192.404,875.623 C192.852,875.884 193.076,876.324 193.076,876.944 C193.076,877.564 192.865,878.1 192.443,878.553 C192.021,879.006 191.649,879.233 191.326,879.233 C191.003,879.233 190.581,879.17 190.06,879.045 C182.435,874.879 178.623,868.592 178.623,860.186 C178.623,856.217 180.024,852.41 182.826,848.764 C185.753,845.118 189.56,842.774 194.248,841.733 C192.425,834.441 190.93,828.743 189.764,824.639 C180.847,834.67 175.31,842.092 173.154,846.905 C170.363,853.155 168.967,858.853 168.967,863.998 M201.576,764.686 C196.691,767.092 192.834,770.574 190.006,775.131 C187.178,779.689 185.764,784.472 185.764,789.483 C185.764,794.493 186.935,800.972 189.279,808.92 C193.967,803.254 197.514,797.946 199.92,792.998 C202.326,788.051 203.529,783.152 203.529,778.303 C203.529,773.454 202.878,768.915 201.576,764.686"/>
<path class="Clef" d="M203.623,1373.86 L203.623,1371.72 C203.56,1370.61 203.399,1368.89 203.139,1366.55 C199.889,1367.07 196.993,1367.33 194.451,1367.33 C185.337,1367.33 177.605,1363.73 171.256,1356.53 C164.907,1349.33 161.732,1340.75 161.732,1330.8 C161.732,1328.13 162.253,1324.92 163.295,1321.18 C164.337,1317.43 165.297,1314.93 166.178,1313.65 C167.058,1312.38 168.378,1310.15 170.139,1306.97 C170.659,1305.99 172.352,1303.84 175.217,1300.51 C175.738,1299.81 176.193,1299.22 176.584,1298.76 C176.975,1298.31 177.607,1297.49 178.482,1296.32 C179.357,1295.15 180.3,1294.06 181.31,1293.05 C182.321,1292.04 183.217,1291.06 183.998,1290.12 C184.779,1289.17 185.498,1288.38 186.154,1287.73 C183.81,1279.98 182.378,1274.02 181.857,1269.86 C181.337,1265.69 181.076,1260.58 181.076,1254.52 C181.076,1248.46 182.378,1242.96 184.982,1238.01 C187.514,1232.88 191.06,1228.68 195.623,1225.42 C195.883,1225.22 196.225,1225.12 196.646,1225.12 C197.068,1225.12 197.378,1225.22 197.576,1225.42 C201.087,1229.65 204.128,1235.15 206.701,1241.92 C209.274,1248.69 210.56,1255.02 210.56,1260.92 C210.56,1266.82 209.066,1272.5 206.076,1277.97 C202.691,1283.76 198.326,1289.75 192.982,1295.94 C194.347,1300.23 196.17,1306.96 198.451,1316.14 L199.045,1316.14 C199.305,1316.08 199.529,1316.05 199.717,1316.05 C207.081,1316.05 213.089,1318.63 217.74,1323.81 C222.391,1328.99 224.717,1334.96 224.717,1341.73 C224.717,1350.13 221.238,1356.9 214.279,1362.05 C212.258,1363.55 209.878,1364.72 207.139,1365.56 C207.472,1369.79 207.639,1372.61 207.639,1374.01 C207.639,1375.41 207.571,1377.9 207.435,1381.48 C207.373,1387.6 205.29,1392.84 201.185,1397.2 C197.081,1401.57 192.394,1403.75 187.123,1403.75 C181.852,1403.75 177.36,1401.88 173.646,1398.13 C169.933,1394.39 168.076,1389.85 168.076,1384.51 C168.076,1381.71 169.154,1379.33 171.31,1377.37 C173.519,1375.43 176.006,1374.45 178.771,1374.45 C181.537,1374.45 183.8,1375.46 185.56,1377.48 C187.383,1379.37 188.295,1381.64 188.295,1384.31 C188.295,1386.98 187.383,1389.22 185.56,1391.05 C183.738,1392.87 181.555,1393.78 179.014,1393.78 C177.972,1393.78 176.967,1393.59 175.998,1393.2 C178.863,1397.43 182.54,1399.55 187.029,1399.55 C191.519,1399.55 195.36,1397.69 198.553,1393.98 C201.745,1390.27 203.342,1385.91 203.342,1380.89 L203.623,1373.86 M206.748,1361.56 C210.133,1360.32 212.821,1358.12 214.81,1354.97 C216.8,1351.81 217.795,1348.67 217.795,1345.55 C217.795,1340.92 216.199,1336.79 213.006,1333.14 C209.813,1329.49 205.774,1327.44 200.889,1326.98 C203.691,1340.72 205.644,1352.25 206.748,1361.56 M168.967,1339 C168.967,1345.45 171.537,1351.08 176.678,1355.9 C181.818,1360.71 187.842,1363.12 194.748,1363.12 C197.477,1363.12 200.144,1362.93 202.748,1362.53 C201.706,1352.63 199.654,1340.79 196.592,1326.98 C192.758,1327.38 189.782,1328.7 187.662,1330.94 C185.542,1333.19 184.482,1335.74 184.482,1338.61 C184.482,1343.56 187.123,1347.56 192.404,1350.62 C192.852,1350.88 193.076,1351.32 193.076,1351.94 C193.076,1352.56 192.865,1353.1 192.443,1353.55 C192.021,1354.01 191.649,1354.23 191.326,1354.23 C191.003,1354.23 190.581,1354.17 190.06,1354.05 C182.435,1349.88 178.623,1343.59 178.623,1335.19 C178.623,1331.22 180.024,1327.41 182.826,1323.76 C185.753,1320.12 189.56,1317.77 194.248,1316.73 C192.425,1309.44 190.93,1303.74 189.764,1299.64 C180.847,1309.67 175.31,1317.09 173.154,1321.9 C170.363,1328.15 168.967,1333.85 168.967,1339 M201.576,1239.69 C196.691,1242.09 192.834,1245.57 190.006,1250.13 C187.178,1254.69 185.764,1259.47 185.764,1264.48 C185.764,1269.49 186.935,1275.97 189.279,1283.92 C193.967,1278.25 197.514,1272.95 199.92,1268 C202.326,1263.05 203.529,1258.15 203.529,1253.3 C203.529,1248.45 202.878,1243.92 201.576,1239.69"/>
<path class="TimeSig" d="M268.686,364.389 C272.852,364.389 274.936,360.514 274.936,352.764 L274.936,351.107 C274.936,349.222 274.87,347.644 274.74,346.373 C274.61,345.102 274.17,344.011 273.42,343.1 C272.67,342.188 271.514,341.732 269.951,341.732 L261.936,341.732 C261.029,341.732 260.576,341.277 260.576,340.365 C260.576,339.454 261.029,338.93 261.936,338.795 L269.951,338.795 C271.774,338.795 273.042,338.274 273.756,337.232 C274.469,336.191 274.863,334.498 274.936,332.154 L274.936,328.154 C274.936,322.102 272.722,319.076 268.295,319.076 C264.316,319.076 262.326,320.149 262.326,322.295 C262.326,323.014 262.93,323.795 264.139,324.639 C265.347,325.482 265.951,326.264 265.951,326.982 C265.951,328.607 265.381,329.99 264.24,331.131 C263.1,332.272 261.732,332.842 260.139,332.842 C258.545,332.842 257.193,332.256 256.084,331.084 C254.975,329.912 254.42,328.545 254.42,326.982 C254.42,323.92 255.79,321.415 258.529,319.467 C261.394,317.644 264.956,316.732 269.217,316.732 C273.477,316.732 277.204,317.66 280.396,319.514 C283.589,321.368 285.186,324.248 285.186,328.154 C285.186,330.956 284.891,333.089 284.303,334.553 C283.714,336.016 283.066,336.91 282.357,337.232 C280.462,338.014 279.514,339.024 279.514,340.264 C279.514,341.107 280.686,342.316 283.029,343.889 C283.811,344.337 284.592,345.36 285.373,346.959 C286.154,348.558 286.545,350.493 286.545,352.764 C286.545,357.264 284.87,360.717 281.521,363.123 C278.173,365.529 274.136,366.732 269.412,366.732 C264.688,366.732 260.863,365.691 257.936,363.607 C254.811,361.66 253.248,358.925 253.248,355.404 C253.248,353.717 253.899,352.154 255.201,350.717 C256.566,349.477 258.144,348.857 259.936,348.857 C261.727,348.857 263.212,349.509 264.389,350.811 C265.691,352.05 266.342,353.581 266.342,355.404 C266.342,356.248 265.691,357.16 264.389,358.139 C263.014,359.055 262.326,360.035 262.326,361.076 C262.326,362.118 262.946,362.93 264.186,363.514 C265.425,364.097 266.925,364.389 268.686,364.389"/>
<path class="TimeSig" d="M273.021,368.084 C274.516,368.084 275.949,367.858 277.318,367.404 C278.688,366.951 279.665,366.725 280.248,366.725 C280.831,366.725 281.222,367.079 281.42,367.787 C281.42,367.86 281.352,368.058 281.217,368.381 L252.811,401.397 L269.498,401.397 L269.498,388.303 C269.498,386.678 270.446,385.506 272.342,384.787 C274.29,384.068 276.503,381.173 278.982,376.1 C279.17,375.704 279.462,375.506 279.857,375.506 C280.639,375.506 281.092,375.964 281.217,376.881 L281.217,401.397 L288.357,401.397 C289.264,401.397 289.751,401.884 289.818,402.858 C289.886,403.831 289.399,404.318 288.357,404.318 L281.217,404.318 L281.217,405.1 C281.217,407.704 281.868,409.917 283.17,411.74 C284.67,413.563 286.43,414.475 288.451,414.475 C289.232,414.475 289.623,414.865 289.623,415.647 C289.623,416.428 289.087,416.818 288.014,416.818 C286.941,416.818 284.938,416.608 282.006,416.186 C279.074,415.764 276.811,415.553 275.217,415.553 C273.623,415.553 271.41,415.764 268.576,416.186 C265.743,416.608 263.613,416.818 262.186,416.818 C261.404,416.818 261.014,416.428 261.014,415.647 C261.014,414.865 261.404,414.475 262.186,414.475 C264.196,414.475 265.951,413.563 267.451,411.74 C268.816,409.855 269.498,407.641 269.498,405.1 L269.498,404.318 L252.811,404.318 C251.956,404.318 251.219,404.092 250.6,403.639 C249.98,403.186 249.67,402.764 249.67,402.373 C249.67,401.983 250.485,400.811 252.115,398.858 C253.745,396.904 256.074,393.144 259.1,387.576 C262.126,382.009 263.639,375.61 263.639,368.381 C263.639,367.339 264.097,366.818 265.014,366.818 C265.212,366.818 265.521,366.884 265.943,367.014 C266.365,367.144 267.277,367.355 268.678,367.647 C270.079,367.938 271.527,368.084 273.021,368.084"/>
<path class="Rest" d="M799.163,1786.45 C798.507,1785.61 798.179,1784.7 798.179,1783.72 C798.179,1781.97 800.267,1779.53 804.444,1776.41 C808.538,1773.21 810.585,1769.56 810.585,1765.47 C810.585,1763.05 809.741,1760.84 808.054,1758.83 L804.538,1754.62 C804.278,1754.36 804.148,1754.04 804.148,1753.65 C804.148,1753.26 804.34,1752.9 804.726,1752.58 C805.184,1752.24 805.609,1752.08 805.999,1752.08 C806.39,1752.08 806.715,1752.28 806.976,1752.67 L822.116,1770.64 C822.762,1771.48 823.085,1772.41 823.085,1773.42 C823.085,1774.43 822.549,1775.52 821.476,1776.69 C820.403,1777.87 818.892,1779.23 816.944,1780.8 C815.444,1781.7 814.028,1783.13 812.694,1785.08 C811.361,1787.04 810.694,1789.25 810.694,1791.73 C810.694,1794.21 811.476,1796.39 813.038,1798.28 L821.429,1808.14 C821.627,1808.34 821.757,1808.66 821.819,1809.12 C821.882,1809.57 821.718,1809.96 821.327,1810.29 C820.937,1810.62 820.629,1810.78 820.405,1810.78 C820.181,1810.78 819.596,1810.41 818.648,1809.66 C817.7,1808.91 816.364,1808.17 814.64,1807.46 C812.916,1806.75 811.208,1806.39 809.515,1806.39 C807.822,1806.39 806.489,1806.85 805.515,1807.76 C804.541,1808.67 804.054,1810.77 804.054,1814.05 C804.054,1817.34 804.997,1820.12 806.882,1822.41 C807.08,1822.67 807.114,1822.96 806.984,1823.28 C806.853,1823.6 806.593,1823.76 806.202,1823.76 C805.812,1823.76 804.817,1822.56 803.218,1820.16 C801.619,1817.75 800.088,1814.9 798.624,1811.61 C797.161,1808.32 796.429,1805.57 796.429,1803.36 C796.429,1800.56 797.861,1799.16 800.726,1799.16 C803.59,1799.16 807.465,1800.2 812.351,1802.28 L799.163,1786.45 "/>
<path class="Beam" fill-rule="evenodd" d="M2240.85,360.476 L2383.07,366.726 L2383.07,379.239 L2240.85,372.989 L2240.85,360.476 "/>
<path class="Beam" fill-rule="evenodd" d="M980.549,354.226 L1122.77,360.476 L1122.77,372.989 L980.549,366.739 L980.549,354.226 "/>
<path class="Beam" fill-rule="evenodd" d="M1566.9,1310.48 L1711.35,1316.73 L1711.35,1329.24 L1566.9,1322.99 L1566.9,1310.48 "/>
<path class="Beam" fill-rule="evenodd" d="M287.232,1304.23 L431.691,1310.48 L431.691,1322.99 L287.232,1316.74 L287.232,1304.23 "/>
<path class="NoteDot" d="M1171.51,1258.24 C1170.4,1257.13 1169.84,1255.8 1169.84,1254.23 C1169.84,1252.67 1170.4,1251.33 1171.51,1250.23 C1172.62,1249.12 1173.95,1248.56 1175.52,1248.56 C1177.08,1248.56 1178.41,1249.12 1179.52,1250.23 C1180.62,1251.33 1181.17,1252.67 1181.17,1254.23 C1181.17,1255.8 1180.62,1257.13 1179.52,1258.24 C1178.41,1259.35 1177.08,1259.9 1175.52,1259.9 C1173.95,1259.9 1172.62,1259.35 1171.51,1258.24"/>
<path class="NoteDot" d="M2537.71,783.241 C2536.6,782.131 2536.05,780.795 2536.05,779.233 C2536.05,777.67 2536.6,776.334 2537.71,775.225 C2538.82,774.116 2540.16,773.561 2541.72,773.561 C2543.28,773.561 2544.62,774.116 2545.72,775.225 C2546.83,776.334 2547.38,777.67 2547.38,779.233 C2547.38,780.795 2546.83,782.131 2545.72,783.241 C2544.62,784.35 2543.28,784.905 2541.72,784.905 C2540.16,784.905 2538.82,784.35 2537.71,783.241"/>
<path class="NoteDot" d="M1851.95,308.24 C1850.84,307.131 1850.29,305.795 1850.29,304.232 C1850.29,302.67 1850.84,301.334 1851.95,300.225 C1853.06,299.115 1854.4,298.561 1855.96,298.561 C1857.52,298.561 1858.86,299.115 1859.96,300.225 C1861.07,301.334 1861.62,302.67 1861.62,304.232 C1861.62,305.795 1861.07,307.131 1859.96,308.24 C1858.86,309.35 1857.52,309.904 1855.96,309.904 C1854.4,309.904 1853.06,309.35 1851.95,308.24"/>
<path class="NoteDot" d="M591.656,308.24 C590.546,307.131 589.992,305.795 589.992,304.232 C589.992,302.67 590.546,301.334 591.656,300.225 C592.765,299.115 594.101,298.561 595.664,298.561 C597.226,298.561 598.559,299.115 599.664,300.225 C600.768,301.334 601.32,302.67 601.32,304.232 C601.32,305.795 600.768,307.131 599.664,308.24 C598.559,309.35 597.226,309.904 595.664,309.904 C594.101,309.904 592.765,309.35 591.656,308.24"/>
</svg>
