<?xml version="1.0" encoding="UTF-8" standalone="no"?>
<svg width="2977.2px" height="4208.4px" viewBox="0 0 2977.2 4208.4"
 xmlns="http://www.w3.org/2000/svg" xmlns:xlink="http://www.w3.org/1999/xlink" version="1.2" baseProfile="tiny">
<title>Danny_Boy.mscx</title>
<desc>Generated by MuseScore Studio 4.3.1</desc>
<path class="" fill="#ffffff" fill-rule="evenodd" d="M0,0 L2977.2,0 L2977.2,4208.4 L0,4208.4 L0,0 "/>
<polyline class="StaffLines" fill="none" stroke="#000000" stroke-width="2.00" stroke-linejoin="bevel" points="141.732,316.732 2835.47,316.732"/>
<polyline class="StaffLines" fill="none" stroke="#000000" stroke-width="2.00" stroke-linejoin="bevel" points="141.732,341.732 2835.47,341.732"/>
<polyline class="StaffLines" fill="none" stroke="#000000" stroke-width="2.00" stroke-linejoin="bevel" points="141.732,366.733 2835.47,366.733"/>
<polyline class="StaffLines" fill="none" stroke="#000000" stroke-width="2.00" stroke-linejoin="bevel" points="141.732,391.733 2835.47,391.733"/>
<polyline class="StaffLines" fill="none" stroke="#000000" stroke-width="2.00" stroke-linejoin="bevel" points="141.732,416.733 2835.47,416.733"/>
<polyline class="StaffLines" fill="none" stroke="#000000" stroke-width="2.00" stroke-linejoin="bevel" points="141.732,791.733 2835.47,791.733"/>
<polyline class="StaffLines" fill="none" stroke="#000000" stroke-width="2.00" stroke-linejoin="bevel" points="141.732,816.733 2835.47,816.733"/>
<polyline class="StaffLines" fill="none" stroke="#000000" stroke-width="2.00" stroke-linejoin="bevel" points="141.732,841.733 2835.47,841.733"/>
<polyline class="StaffLines" fill="none" stroke="#000000" stroke-width="2.00" stroke-linejoin="bevel" points="141.732,866.733 2835.47,866.733"/>
<polyline class="StaffLines" fill="none" stroke="#000000" stroke-width="2.00" stroke-linejoin="bevel" points="141.732,891.733 2835.47,891.733"/>
<polyline class="StaffLines" fill="none" stroke="#000000" stroke-width="2.00" stroke-linejoin="bevel" points="141.732,1266.73 2835.47,1266.73"/>
<polyline class="StaffLines" fill="none" stroke="#000000" stroke-width="2.00" stroke-linejoin="bevel" points="141.732,1291.73 2835.47,1291.73"/>
<polyline class="StaffLines" fill="none" stroke="#000000" stroke-width="2.00" stroke-linejoin="bevel" points="141.732,1316.73 2835.47,1316.73"/>
<polyline class="StaffLines" fill="none" stroke="#000000" stroke-width="2.00" stroke-linejoin="bevel" points="141.732,1341.73 2835.47,1341.73"/>
<polyline class="StaffLines" fill="none" stroke="#000000" stroke-width="2.00" stroke-linejoin="bevel" points="141.732,1366.73 2835.47,1366.73"/>
<path class="MeasureNumber" d="M127.545,1193.01 C127.066,1193.01 126.107,1193.31 124.67,1193.89 L124.67,1193.34 L131.873,1189.7 L132.185,1189.78 L132.185,1213.78 C132.185,1214.74 132.425,1215.36 132.904,1215.65 C133.383,1215.95 134.409,1216.11 135.982,1216.14 L135.982,1216.73 L124.951,1216.73 L124.951,1216.14 C126.441,1216.08 127.446,1215.85 127.967,1215.47 C128.488,1215.08 128.748,1214.26 128.748,1213.01 L128.748,1194.89 C128.748,1193.64 128.347,1193.01 127.545,1193.01 M159.092,1207.65 L159.092,1210.06 L155.014,1210.06 L155.014,1216.73 L151.935,1216.73 L151.935,1210.06 L140.701,1210.06 L140.701,1207.65 L153.248,1189.7 L155.014,1189.7 L155.014,1207.65 L159.092,1207.65 M151.889,1207.65 L151.889,1193.94 L142.295,1207.65 L151.889,1207.65 "/>
<path class="MeasureNumber" d="M143.326,726.858 C145.732,728.639 147.368,730.134 148.232,731.342 C149.097,732.55 149.529,733.925 149.529,735.467 C149.529,737.54 148.816,739.196 147.389,740.436 C145.962,741.675 144.05,742.295 141.654,742.295 C139.383,742.295 137.534,741.675 136.107,740.436 C134.68,739.196 133.967,737.597 133.967,735.639 C133.967,734.274 134.295,733.134 134.951,732.217 C135.607,731.3 137.014,730.035 139.17,728.42 C137.066,726.587 135.714,725.217 135.115,724.311 C134.516,723.405 134.217,722.3 134.217,720.998 C134.217,719.165 134.935,717.644 136.373,716.436 C137.81,715.228 139.623,714.623 141.81,714.623 C143.81,714.623 145.456,715.162 146.748,716.241 C148.04,717.319 148.685,718.691 148.685,720.358 C148.685,721.712 148.287,722.868 147.49,723.826 C146.693,724.785 145.305,725.795 143.326,726.858 M140.217,729.217 C139.04,730.144 138.212,731.074 137.732,732.006 C137.253,732.938 137.014,734.04 137.014,735.311 C137.014,737.04 137.48,738.436 138.412,739.498 C139.344,740.561 140.571,741.092 142.092,741.092 C143.394,741.092 144.451,740.686 145.264,739.873 C146.076,739.061 146.482,738.004 146.482,736.701 C146.482,736.285 146.438,735.889 146.35,735.514 C146.261,735.139 146.17,734.813 146.076,734.537 C145.982,734.261 145.795,733.949 145.514,733.6 C145.232,733.251 145.006,732.978 144.834,732.78 C144.662,732.582 144.35,732.295 143.896,731.92 C143.443,731.545 143.102,731.28 142.873,731.123 C142.644,730.967 142.217,730.662 141.592,730.209 C140.967,729.756 140.508,729.425 140.217,729.217 M142.17,726.139 C142.201,726.118 142.383,725.993 142.717,725.764 C143.05,725.535 143.29,725.355 143.435,725.225 C143.581,725.095 143.808,724.889 144.115,724.608 C144.422,724.326 144.654,724.061 144.81,723.811 C144.967,723.561 145.146,723.256 145.35,722.897 C145.553,722.537 145.701,722.139 145.795,721.701 C145.889,721.264 145.935,720.806 145.935,720.326 C145.935,718.941 145.534,717.842 144.732,717.03 C143.93,716.217 142.852,715.811 141.498,715.811 C140.238,715.811 139.201,716.183 138.389,716.928 C137.576,717.673 137.17,718.618 137.17,719.764 C137.17,720.879 137.558,721.928 138.334,722.912 C139.11,723.897 140.389,724.972 142.17,726.139"/>
<polyline class="BarLine" fill="none" stroke="#000000" stroke-width="4.00" stroke-linejoin="bevel" points="1105.3,790.733 1105.3,892.733"/>
<polyline class="BarLine" fill="none" stroke="#000000" stroke-width="4.00" stroke-linejoin="bevel" points="1322.84,315.732 1322.84,417.733"/>
<polyline class="BarLine" fill="none" stroke="#000000" stroke-width="4.00" stroke-linejoin="bevel" points="1708.81,315.732 1708.81,417.733"/>
<polyline class="BarLine" fill="none" stroke="#000000" stroke-width="4.00" stroke-linejoin="bevel" points="937.47,315.732 937.47,417.733"/>
<polyline class="BarLine" fill="none" stroke="#000000" stroke-width="4.00" stroke-linejoin="bevel" points="2062.13,315.732 2062.13,417.733"/>
<polyline class="BarLine" fill="none" stroke="#000000" stroke-width="4.00" stroke-linejoin="bevel" points="2448.1,315.732 2448.1,417.733"/>
<polyline class="BarLine" fill="none" stroke="#000000" stroke-width="4.00" stroke-linejoin="bevel" points="2833.47,315.732 2833.47,417.733"/>
<polyline class="BarLine" fill="none" stroke="#000000" stroke-width="4.00" stroke-linejoin="bevel" points="2171.61,1265.73 2171.61,1367.73"/>
<polyline class="BarLine" fill="none" stroke="#000000" stroke-width="4.00" stroke-linejoin="bevel" points="701.786,790.733 701.786,892.733"/>
<polyline class="BarLine" fill="none" stroke="#000000" stroke-width="4.00" stroke-linejoin="bevel" points="1473.21,1265.73 1473.21,1367.73"/>
<polyline class="BarLine" fill="none" stroke="#000000" stroke-width="4.00" stroke-linejoin="bevel" points="1546.85,790.733 1546.85,892.733"/>
<polyline class="BarLine" fill="none" stroke="#000000" stroke-width="4.00" stroke-linejoin="bevel" points="551.507,315.732 551.507,417.733"/>
<polyline class="BarLine" fill="none" stroke="#000000" stroke-width="4.00" stroke-linejoin="bevel" points="1988.4,790.733 1988.4,892.733"/>
<polyline class="BarLine" fill="none" stroke="#000000" stroke-width="4.00" stroke-linejoin="bevel" points="2802.72,1265.73 2802.72,1367.73"/>
<polyline class="BarLine" fill="none" stroke="#000000" stroke-width="12.50" stroke-linejoin="bevel" points="2829.22,1265.73 2829.22,1367.73"/>
<polyline class="BarLine" fill="none" stroke="#000000" stroke-width="4.00" stroke-linejoin="bevel" points="866.719,1265.73 866.719,1367.73"/>
<polyline class="BarLine" fill="none" stroke="#000000" stroke-width="4.00" stroke-linejoin="bevel" points="2429.96,790.733 2429.96,892.733"/>
<polyline class="BarLine" fill="none" stroke="#000000" stroke-width="4.00" stroke-linejoin="bevel" points="2491.31,1265.73 2491.31,1367.73"/>
<polyline class="BarLine" fill="none" stroke="#000000" stroke-width="4.00" stroke-linejoin="bevel" points="2833.47,790.733 2833.47,892.733"/>
<polyline class="LedgerLine" fill="none" stroke="#000000" stroke-width="4.00" stroke-linejoin="bevel" points="2239.13,766.733 2291.04,766.733"/>
<polyline class="LedgerLine" fill="none" stroke="#000000" stroke-width="4.00" stroke-linejoin="bevel" points="1356.02,766.733 1407.93,766.733"/>
<polyline class="LedgerLine" fill="none" stroke="#000000" stroke-width="4.00" stroke-linejoin="bevel" points="1857.35,766.733 1909.26,766.733"/>
<polyline class="LedgerLine" fill="none" stroke="#000000" stroke-width="4.00" stroke-linejoin="bevel" points="1296.24,766.733 1348.16,766.733"/>
<polyline class="LedgerLine" fill="none" stroke="#000000" stroke-width="4.00" stroke-linejoin="bevel" points="1917.13,766.733 1969.04,766.733"/>
<polyline class="LedgerLine" fill="none" stroke="#000000" stroke-width="4.00" stroke-linejoin="bevel" points="974.242,766.733 1026.16,766.733"/>
<polyline class="LedgerLine" fill="none" stroke="#000000" stroke-width="4.00" stroke-linejoin="bevel" points="1034.02,766.733 1085.93,766.733"/>
<polyline class="LedgerLine" fill="none" stroke="#000000" stroke-width="4.00" stroke-linejoin="bevel" points="771.543,1241.73 823.458,1241.73"/>
<polyline class="LedgerLine" fill="none" stroke="#000000" stroke-width="4.00" stroke-linejoin="bevel" points="771.543,1216.73 823.458,1216.73"/>
<polyline class="LedgerLine" fill="none" stroke="#000000" stroke-width="4.00" stroke-linejoin="bevel" points="687.868,1241.73 739.782,1241.73"/>
<polyline class="LedgerLine" fill="none" stroke="#000000" stroke-width="4.00" stroke-linejoin="bevel" points="1236.46,766.733 1288.38,766.733"/>
<polyline class="LedgerLine" fill="none" stroke="#000000" stroke-width="4.00" stroke-linejoin="bevel" points="1122.8,766.733 1174.71,766.733"/>
<polyline class="LedgerLine" fill="none" stroke="#000000" stroke-width="4.00" stroke-linejoin="bevel" points="2179.35,766.733 2231.26,766.733"/>
<polyline class="LedgerLine" fill="none" stroke="#000000" stroke-width="4.00" stroke-linejoin="bevel" points="1122.8,741.733 1174.71,741.733"/>
<polyline class="LedgerLine" fill="none" stroke="#000000" stroke-width="4.00" stroke-linejoin="bevel" points="2119.57,766.733 2171.49,766.733"/>
<polyline class="LedgerLine" fill="none" stroke="#000000" stroke-width="4.00" stroke-linejoin="bevel" points="2005.9,766.733 2057.82,766.733"/>
<polyline class="LedgerLine" fill="none" stroke="#000000" stroke-width="4.00" stroke-linejoin="bevel" points="2005.9,741.733 2057.82,741.733"/>
<polyline class="LedgerLine" fill="none" stroke="#000000" stroke-width="4.00" stroke-linejoin="bevel" points="766.319,291.732 818.233,291.732"/>
<polyline class="LedgerLine" fill="none" stroke="#000000" stroke-width="4.00" stroke-linejoin="bevel" points="1436.51,291.732 1488.42,291.732"/>
<polyline class="LedgerLine" fill="none" stroke="#000000" stroke-width="4.00" stroke-linejoin="bevel" points="277.732,1241.73 329.647,1241.73"/>
<polyline class="LedgerLine" fill="none" stroke="#000000" stroke-width="4.00" stroke-linejoin="bevel" points="277.732,1216.73 329.647,1216.73"/>
<polyline class="LedgerLine" fill="none" stroke="#000000" stroke-width="4.00" stroke-linejoin="bevel" points="277.732,1191.73 329.647,1191.73"/>
<polyline class="LedgerLine" fill="none" stroke="#000000" stroke-width="4.00" stroke-linejoin="bevel" points="604.193,1216.73 656.107,1216.73"/>
<polyline class="LedgerLine" fill="none" stroke="#000000" stroke-width="4.00" stroke-linejoin="bevel" points="604.193,1241.73 656.107,1241.73"/>
<polyline class="LedgerLine" fill="none" stroke="#000000" stroke-width="4.00" stroke-linejoin="bevel" points="436.842,1241.73 488.756,1241.73"/>
<polyline class="LedgerLine" fill="none" stroke="#000000" stroke-width="4.00" stroke-linejoin="bevel" points="436.842,1216.73 488.756,1216.73"/>
<polyline class="LedgerLine" fill="none" stroke="#000000" stroke-width="4.00" stroke-linejoin="bevel" points="1574.38,1241.73 1626.29,1241.73"/>
<polyline class="LedgerLine" fill="none" stroke="#000000" stroke-width="4.00" stroke-linejoin="bevel" points="520.517,1241.73 572.431,1241.73"/>
<polyline class="LedgerLine" fill="none" stroke="#000000" stroke-width="4.00" stroke-linejoin="bevel" points="520.517,1216.73 572.431,1216.73"/>
<polyline class="LedgerLine" fill="none" stroke="#000000" stroke-width="4.00" stroke-linejoin="bevel" points="2276.94,291.732 2328.86,291.732"/>
<polyline class="Stem" fill="none" stroke="#000000" stroke-width="3.25" stroke-linejoin="bevel" points="402.524,797.602 402.524,879.833"/>
<polyline class="Stem" fill="none" stroke="#000000" stroke-width="3.25" stroke-linejoin="bevel" points="1016.67,360.102 1016.67,422.794"/>
<polyline class="Stem" fill="none" stroke="#000000" stroke-width="3.25" stroke-linejoin="bevel" points="580.132,335.102 580.132,416.733"/>
<polyline class="Stem" fill="none" stroke="#000000" stroke-width="3.25" stroke-linejoin="bevel" points="1307.37,760.102 1307.37,860.594"/>
<polyline class="Stem" fill="none" stroke="#000000" stroke-width="3.25" stroke-linejoin="bevel" points="1486.7,810.102 1486.7,872.872"/>
<polyline class="Stem" fill="none" stroke="#000000" stroke-width="3.25" stroke-linejoin="bevel" points="1367.14,772.602 1367.14,864.687"/>
<polyline class="Stem" fill="none" stroke="#000000" stroke-width="3.25" stroke-linejoin="bevel" points="1426.92,785.102 1426.92,868.779"/>
<polyline class="Stem" fill="none" stroke="#000000" stroke-width="3.25" stroke-linejoin="bevel" points="1247.59,760.102 1247.59,842.333"/>
<polyline class="Stem" fill="none" stroke="#000000" stroke-width="3.25" stroke-linejoin="bevel" points="1133.92,747.602 1133.92,841.733"/>
<polyline class="Stem" fill="none" stroke="#000000" stroke-width="3.25" stroke-linejoin="bevel" points="1045.14,760.102 1045.14,835.648"/>
<polyline class="Stem" fill="none" stroke="#000000" stroke-width="3.25" stroke-linejoin="bevel" points="985.367,772.602 985.367,841.733"/>
<polyline class="Stem" fill="none" stroke="#000000" stroke-width="3.25" stroke-linejoin="bevel" points="676.297,347.602 676.297,429.833"/>
<polyline class="Stem" fill="none" stroke="#000000" stroke-width="3.25" stroke-linejoin="bevel" points="925.59,785.102 925.59,847.817"/>
<polyline class="Stem" fill="none" stroke="#000000" stroke-width="3.25" stroke-linejoin="bevel" points="1501.83,1285.1 1501.83,1360.48"/>
<polyline class="Stem" fill="none" stroke="#000000" stroke-width="3.25" stroke-linejoin="bevel" points="730.411,834.133 730.411,910.483"/>
<polyline class="Stem" fill="none" stroke="#000000" stroke-width="3.25" stroke-linejoin="bevel" points="726.871,335.102 726.871,410.483"/>
<polyline class="Stem" fill="none" stroke="#000000" stroke-width="3.25" stroke-linejoin="bevel" points="641.634,847.602 641.634,910.316"/>
<polyline class="Stem" fill="none" stroke="#000000" stroke-width="3.25" stroke-linejoin="bevel" points="581.856,835.102 581.856,904.177"/>
<polyline class="Stem" fill="none" stroke="#000000" stroke-width="3.25" stroke-linejoin="bevel" points="522.079,822.602 522.079,898.038"/>
<polyline class="Stem" fill="none" stroke="#000000" stroke-width="3.25" stroke-linejoin="bevel" points="462.302,810.102 462.302,891.9"/>
<polyline class="Stem" fill="none" stroke="#000000" stroke-width="3.25" stroke-linejoin="bevel" points="2369.81,810.102 2369.81,872.872"/>
<polyline class="Stem" fill="none" stroke="#000000" stroke-width="3.25" stroke-linejoin="bevel" points="782.668,1222.6 782.668,1316.73"/>
<polyline class="Stem" fill="none" stroke="#000000" stroke-width="3.25" stroke-linejoin="bevel" points="698.993,1247.6 698.993,1316.73"/>
<polyline class="Stem" fill="none" stroke="#000000" stroke-width="3.25" stroke-linejoin="bevel" points="615.318,1222.6 615.318,1316.73"/>
<polyline class="Stem" fill="none" stroke="#000000" stroke-width="3.25" stroke-linejoin="bevel" points="895.344,1260.1 895.344,1335.72"/>
<polyline class="Stem" fill="none" stroke="#000000" stroke-width="3.25" stroke-linejoin="bevel" points="531.642,1210.1 531.642,1316.73"/>
<polyline class="Stem" fill="none" stroke="#000000" stroke-width="3.25" stroke-linejoin="bevel" points="447.967,1210.1 447.967,1317.33"/>
<polyline class="Stem" fill="none" stroke="#000000" stroke-width="3.25" stroke-linejoin="bevel" points="288.857,1197.6 288.857,1316.73"/>
<polyline class="Stem" fill="none" stroke="#000000" stroke-width="3.25" stroke-linejoin="bevel" points="979.019,1285.1 979.019,1347.75"/>
<polyline class="Stem" fill="none" stroke="#000000" stroke-width="3.25" stroke-linejoin="bevel" points="392.071,372.602 392.071,435.385"/>
<polyline class="Stem" fill="none" stroke="#000000" stroke-width="3.25" stroke-linejoin="bevel" points="2773.32,785.102 2773.32,860.483"/>
<polyline class="Stem" fill="none" stroke="#000000" stroke-width="3.25" stroke-linejoin="bevel" points="2713.54,785.102 2713.54,860.483"/>
<polyline class="Stem" fill="none" stroke="#000000" stroke-width="3.25" stroke-linejoin="bevel" points="1062.69,1310.1 1062.69,1385.48"/>
<polyline class="Stem" fill="none" stroke="#000000" stroke-width="3.25" stroke-linejoin="bevel" points="2653.76,785.102 2653.76,860.483"/>
<polyline class="Stem" fill="none" stroke="#000000" stroke-width="3.25" stroke-linejoin="bevel" points="2458.58,821.633 2458.58,904.233"/>
<polyline class="Stem" fill="none" stroke="#000000" stroke-width="3.25" stroke-linejoin="bevel" points="442.645,360.102 442.645,432.358"/>
<polyline class="Stem" fill="none" stroke="#000000" stroke-width="3.25" stroke-linejoin="bevel" points="1575.48,785.102 1575.48,866.894"/>
<polyline class="Stem" fill="none" stroke="#000000" stroke-width="3.25" stroke-linejoin="bevel" points="2310.03,785.102 2310.03,868.779"/>
<polyline class="Stem" fill="none" stroke="#000000" stroke-width="3.25" stroke-linejoin="bevel" points="2250.25,772.602 2250.25,864.687"/>
<polyline class="Stem" fill="none" stroke="#000000" stroke-width="3.25" stroke-linejoin="bevel" points="1221.8,1322.6 1221.8,1385.42"/>
<polyline class="Stem" fill="none" stroke="#000000" stroke-width="3.25" stroke-linejoin="bevel" points="2190.47,760.102 2190.47,860.594"/>
<polyline class="Stem" fill="none" stroke="#000000" stroke-width="3.25" stroke-linejoin="bevel" points="2130.7,760.102 2130.7,842.333"/>
<polyline class="Stem" fill="none" stroke="#000000" stroke-width="3.25" stroke-linejoin="bevel" points="2017.03,747.602 2017.03,841.733"/>
<polyline class="Stem" fill="none" stroke="#000000" stroke-width="3.25" stroke-linejoin="bevel" points="493.218,347.602 493.218,429.33"/>
<polyline class="Stem" fill="none" stroke="#000000" stroke-width="3.25" stroke-linejoin="bevel" points="1928.25,760.102 1928.25,835.648"/>
<polyline class="Stem" fill="none" stroke="#000000" stroke-width="3.25" stroke-linejoin="bevel" points="1868.47,772.602 1868.47,841.733"/>
<polyline class="Stem" fill="none" stroke="#000000" stroke-width="3.25" stroke-linejoin="bevel" points="1305.48,1310.1 1305.48,1382.36"/>
<polyline class="Stem" fill="none" stroke="#000000" stroke-width="3.25" stroke-linejoin="bevel" points="1808.7,785.102 1808.7,847.817"/>
<polyline class="Stem" fill="none" stroke="#000000" stroke-width="3.25" stroke-linejoin="bevel" points="1695.03,835.102 1695.03,910.483"/>
<polyline class="Stem" fill="none" stroke="#000000" stroke-width="3.25" stroke-linejoin="bevel" points="1635.25,810.102 1635.25,872.822"/>
<polyline class="Stem" fill="none" stroke="#000000" stroke-width="3.25" stroke-linejoin="bevel" points="1389.15,1297.6 1389.15,1379.29"/>
<polyline class="Stem" fill="none" stroke="#000000" stroke-width="3.25" stroke-linejoin="bevel" points="1549.37,335.102 1549.37,422.983"/>
<polyline class="Stem" fill="none" stroke="#000000" stroke-width="3.25" stroke-linejoin="bevel" points="2607.53,373.363 2607.53,297.982"/>
<polyline class="Stem" fill="none" stroke="#000000" stroke-width="3.25" stroke-linejoin="bevel" points="1351.47,310.102 1351.47,391.733"/>
<polyline class="Stem" fill="none" stroke="#000000" stroke-width="3.25" stroke-linejoin="bevel" points="2527.29,360.102 2527.29,422.794"/>
<polyline class="Stem" fill="none" stroke="#000000" stroke-width="3.25" stroke-linejoin="bevel" points="1752.86,1285.1 1752.86,1360.48"/>
<polyline class="Stem" fill="none" stroke="#000000" stroke-width="3.25" stroke-linejoin="bevel" points="2476.72,347.602 2476.72,416.921"/>
<polyline class="Stem" fill="none" stroke="#000000" stroke-width="3.25" stroke-linejoin="bevel" points="2003.88,1335.1 2003.88,1397.98"/>
<polyline class="Stem" fill="none" stroke="#000000" stroke-width="3.25" stroke-linejoin="bevel" points="828.608,310.102 828.608,410.483"/>
<polyline class="Stem" fill="none" stroke="#000000" stroke-width="3.25" stroke-linejoin="bevel" points="2389.81,335.102 2389.81,410.483"/>
<polyline class="Stem" fill="none" stroke="#000000" stroke-width="3.25" stroke-linejoin="bevel" points="1498.8,310.102 1498.8,422.983"/>
<polyline class="Stem" fill="none" stroke="#000000" stroke-width="3.25" stroke-linejoin="bevel" points="2339.23,310.102 2339.23,410.483"/>
<polyline class="Stem" fill="none" stroke="#000000" stroke-width="3.25" stroke-linejoin="bevel" points="2288.07,297.602 2288.07,410.483"/>
<polyline class="Stem" fill="none" stroke="#000000" stroke-width="3.25" stroke-linejoin="bevel" points="2237.5,335.102 2237.5,410.483"/>
<polyline class="Stem" fill="none" stroke="#000000" stroke-width="3.25" stroke-linejoin="bevel" points="1447.63,297.602 1447.63,379.833"/>
<polyline class="Stem" fill="none" stroke="#000000" stroke-width="3.25" stroke-linejoin="bevel" points="1599.94,360.102 1599.94,422.983"/>
<polyline class="Stem" fill="none" stroke="#000000" stroke-width="3.25" stroke-linejoin="bevel" points="2186.92,347.602 2186.92,429.833"/>
<polyline class="Stem" fill="none" stroke="#000000" stroke-width="3.25" stroke-linejoin="bevel" points="1836.53,1297.6 1836.53,1397.98"/>
<polyline class="Stem" fill="none" stroke="#000000" stroke-width="3.25" stroke-linejoin="bevel" points="2090.76,335.102 2090.76,416.733"/>
<polyline class="Stem" fill="none" stroke="#000000" stroke-width="3.25" stroke-linejoin="bevel" points="1650.52,335.102 1650.52,422.983"/>
<polyline class="Stem" fill="none" stroke="#000000" stroke-width="3.25" stroke-linejoin="bevel" points="1585.51,1247.6 1585.51,1360.48"/>
<polyline class="Stem" fill="none" stroke="#000000" stroke-width="3.25" stroke-linejoin="bevel" points="879.181,335.102 879.181,410.483"/>
<polyline class="Stem" fill="none" stroke="#000000" stroke-width="3.25" stroke-linejoin="bevel" points="2003.84,347.602 2003.84,429.33"/>
<polyline class="Stem" fill="none" stroke="#000000" stroke-width="3.25" stroke-linejoin="bevel" points="1953.27,360.102 1953.27,432.358"/>
<polyline class="Stem" fill="none" stroke="#000000" stroke-width="3.25" stroke-linejoin="bevel" points="1737.43,346.632 1737.43,429.233"/>
<polyline class="Stem" fill="none" stroke="#000000" stroke-width="3.25" stroke-linejoin="bevel" points="1902.7,372.602 1902.7,435.385"/>
<polyline class="Stem" fill="none" stroke="#000000" stroke-width="3.25" stroke-linejoin="bevel" points="1920.21,1310.1 1920.21,1397.98"/>
<polyline class="Stem" fill="none" stroke="#000000" stroke-width="3.25" stroke-linejoin="bevel" points="966.095,347.602 966.095,416.921"/>
<polyline class="Stem" fill="none" stroke="#000000" stroke-width="3.25" stroke-linejoin="bevel" points="288.857,810.102 288.857,891.733"/>
<polyline class="Stem" fill="none" stroke="#000000" stroke-width="3.25" stroke-linejoin="bevel" points="2674.03,372.602 2674.03,435.385"/>
<polyline class="Stem" fill="none" stroke="#000000" stroke-width="3.25" stroke-linejoin="bevel" points="1096.91,373.363 1096.91,297.982"/>
<polyline class="Stem" fill="none" stroke="#000000" stroke-width="3.25" stroke-linejoin="bevel" points="2087.56,1322.6 2087.56,1397.98"/>
<polyline class="Stem" fill="none" stroke="#000000" stroke-width="3.25" stroke-linejoin="bevel" points="1163.41,360.102 1163.41,422.788"/>
<polyline class="Stem" fill="none" stroke="#000000" stroke-width="3.25" stroke-linejoin="bevel" points="1264.55,322.602 1264.55,410.677"/>
<polyline class="Stem" fill="none" stroke="#000000" stroke-width="3.25" stroke-linejoin="bevel" points="777.444,297.602 777.444,410.483"/>
<polyline class="Stem" fill="none" stroke="#000000" stroke-width="3.25" stroke-linejoin="bevel" points="1669.18,1260.1 1669.18,1360.48"/>
<polyline class="Stem" fill="none" stroke="#000000" stroke-width="3.25" stroke-linejoin="bevel" points="2775.18,347.602 2775.18,429.33"/>
<polyline class="Stem" fill="none" stroke="#000000" stroke-width="3.25" stroke-linejoin="bevel" points="1213.98,335.102 1213.98,416.733"/>
<polyline class="Stem" fill="none" stroke="#000000" stroke-width="3.25" stroke-linejoin="bevel" points="2724.61,360.102 2724.61,432.358"/>
<path class="Hook" d="M697.422,356.873 C698.922,356.873 700.503,359.298 702.165,364.147 C703.826,368.996 704.657,373.438 704.657,377.475 C704.657,381.511 703.73,385.417 701.876,389.193 C700.021,392.97 697.792,396.29 695.188,399.154 L687.172,408.139 C684.704,411.003 682.524,414.29 680.633,417.998 C678.743,421.706 677.797,425.451 677.797,429.233 L674.672,429.233 L674.672,404.233 L677.797,404.233 C688.735,397.326 695.605,391.206 698.407,385.873 C699.771,383.269 700.454,380.634 700.454,377.967 C700.454,371.779 698.662,365.623 695.079,359.498 L695.079,359.108 C695.079,358.524 695.308,358.006 695.766,357.553 C696.225,357.1 696.777,356.873 697.422,356.873"/>
<path class="Hook" d="M423.649,806.873 C425.149,806.873 426.73,809.298 428.392,814.147 C430.053,818.996 430.884,823.439 430.884,827.475 C430.884,831.511 429.957,835.418 428.103,839.194 C426.248,842.97 424.019,846.29 421.415,849.155 L413.399,858.139 C410.931,861.004 408.751,864.29 406.86,867.998 C404.97,871.707 404.024,875.452 404.024,879.233 L400.899,879.233 L400.899,854.233 L404.024,854.233 C414.962,847.327 421.832,841.207 424.634,835.873 C425.998,833.269 426.681,830.634 426.681,827.967 C426.681,821.78 424.889,815.623 421.306,809.498 L421.306,809.108 C421.306,808.524 421.535,808.006 421.993,807.553 C422.452,807.1 423.004,806.873 423.649,806.873"/>
<path class="Hook" d="M2151.82,769.373 C2153.32,769.373 2154.9,771.798 2156.56,776.647 C2158.22,781.496 2159.06,785.939 2159.06,789.975 C2159.06,794.011 2158.13,797.918 2156.27,801.694 C2154.42,805.47 2152.19,808.79 2149.59,811.655 L2141.57,820.639 C2139.1,823.504 2136.92,826.79 2135.03,830.498 C2133.14,834.207 2132.2,837.952 2132.2,841.733 L2129.07,841.733 L2129.07,816.733 L2132.2,816.733 C2143.13,809.827 2150,803.707 2152.81,798.373 C2154.17,795.769 2154.85,793.134 2154.85,790.467 C2154.85,784.28 2153.06,778.123 2149.48,771.998 L2149.48,771.608 C2149.48,771.024 2149.71,770.506 2150.16,770.053 C2150.62,769.6 2151.18,769.373 2151.82,769.373"/>
<path class="Hook" d="M2208.05,356.873 C2209.55,356.873 2211.13,359.298 2212.79,364.147 C2214.45,368.996 2215.28,373.438 2215.28,377.475 C2215.28,381.511 2214.36,385.417 2212.5,389.193 C2210.65,392.97 2208.42,396.29 2205.81,399.154 L2197.8,408.139 C2195.33,411.003 2193.15,414.29 2191.26,417.998 C2189.37,421.706 2188.42,425.451 2188.42,429.233 L2185.3,429.233 L2185.3,404.233 L2188.42,404.233 C2199.36,397.326 2206.23,391.206 2209.03,385.873 C2210.4,383.269 2211.08,380.634 2211.08,377.967 C2211.08,371.779 2209.29,365.623 2205.7,359.498 L2205.7,359.108 C2205.7,358.524 2205.93,358.006 2206.39,357.553 C2206.85,357.1 2207.4,356.873 2208.05,356.873"/>
<path class="Hook" d="M1268.71,769.373 C1270.21,769.373 1271.79,771.798 1273.46,776.647 C1275.12,781.496 1275.95,785.939 1275.95,789.975 C1275.95,794.011 1275.02,797.918 1273.17,801.694 C1271.31,805.47 1269.08,808.79 1266.48,811.655 L1258.46,820.639 C1256,823.504 1253.82,826.79 1251.92,830.498 C1250.03,834.207 1249.09,837.952 1249.09,841.733 L1245.96,841.733 L1245.96,816.733 L1249.09,816.733 C1260.03,809.827 1266.9,803.707 1269.7,798.373 C1271.06,795.769 1271.75,793.134 1271.75,790.467 C1271.75,784.28 1269.95,778.123 1266.37,771.998 L1266.37,771.608 C1266.37,771.024 1266.6,770.506 1267.06,770.053 C1267.52,769.6 1268.07,769.373 1268.71,769.373"/>
<path class="Hook" d="M469.092,1244.37 C470.592,1244.37 472.173,1246.8 473.834,1251.65 C475.496,1256.5 476.326,1260.94 476.326,1264.98 C476.326,1269.01 475.399,1272.92 473.545,1276.69 C471.691,1280.47 469.462,1283.79 466.857,1286.65 L458.842,1295.64 C456.373,1298.5 454.193,1301.79 452.303,1305.5 C450.412,1309.21 449.467,1312.95 449.467,1316.73 L446.342,1316.73 L446.342,1291.73 L449.467,1291.73 C460.404,1284.83 467.274,1278.71 470.076,1273.37 C471.441,1270.77 472.123,1268.13 472.123,1265.47 C472.123,1259.28 470.331,1253.12 466.748,1247 L466.748,1246.61 C466.748,1246.02 466.977,1245.51 467.436,1245.05 C467.894,1244.6 468.446,1244.37 469.092,1244.37"/>
<path class="Hook" d="M1468.76,306.873 C1470.26,306.873 1471.84,309.298 1473.5,314.147 C1475.16,318.996 1475.99,323.438 1475.99,327.475 C1475.99,331.511 1475.07,335.417 1473.21,339.193 C1471.36,342.969 1469.13,346.29 1466.52,349.154 L1458.51,358.139 C1456.04,361.003 1453.86,364.29 1451.97,367.998 C1450.08,371.706 1449.13,375.451 1449.13,379.233 L1446.01,379.233 L1446.01,354.233 L1449.13,354.233 C1460.07,347.326 1466.94,341.206 1469.74,335.873 C1471.11,333.269 1471.79,330.634 1471.79,327.967 C1471.79,321.779 1470,315.623 1466.41,309.498 L1466.41,309.108 C1466.41,308.524 1466.64,308.006 1467.1,307.553 C1467.56,307.1 1468.11,306.873 1468.76,306.873"/>
<path class="Note" d="M2330.37,765.467 C2333.5,765.467 2336.1,766.248 2338.18,767.811 C2340.27,769.373 2341.31,771.618 2341.31,774.545 C2341.31,779.035 2338.98,783.233 2334.33,787.139 C2329.68,791.045 2324.68,792.998 2319.34,792.998 C2316.22,792.998 2313.58,792.186 2311.43,790.561 C2309.41,788.8 2308.4,786.587 2308.4,783.92 C2308.4,779.556 2310.72,775.389 2315.34,771.42 C2319.97,767.452 2324.98,765.467 2330.37,765.467"/>
<path class="Note" d="M1620.29,340.467 C1623.41,340.467 1626.02,341.248 1628.1,342.811 C1630.18,344.373 1631.23,346.618 1631.23,349.545 C1631.23,354.035 1628.9,358.232 1624.25,362.139 C1619.6,366.045 1614.6,367.998 1609.26,367.998 C1606.13,367.998 1603.5,367.186 1601.35,365.561 C1599.33,363.8 1598.32,361.587 1598.32,358.92 C1598.32,354.555 1600.63,350.389 1605.26,346.42 C1609.88,342.451 1614.89,340.467 1620.29,340.467"/>
<path class="Note" d="M719.337,1227.97 C722.462,1227.97 725.066,1228.75 727.149,1230.31 C729.233,1231.87 730.274,1234.12 730.274,1237.05 C730.274,1241.54 727.949,1245.73 723.298,1249.64 C718.647,1253.55 713.649,1255.5 708.306,1255.5 C705.181,1255.5 702.545,1254.69 700.399,1253.06 C698.378,1251.3 697.368,1249.09 697.368,1246.42 C697.368,1242.06 699.681,1237.89 704.306,1233.92 C708.931,1229.95 713.941,1227.97 719.337,1227.97"/>
<path class="Note" d="M462.988,340.467 C466.113,340.467 468.718,341.248 470.801,342.811 C472.884,344.373 473.926,346.618 473.926,349.545 C473.926,354.035 471.6,358.232 466.949,362.139 C462.298,366.045 457.301,367.998 451.957,367.998 C448.832,367.998 446.197,367.186 444.051,365.561 C442.03,363.8 441.02,361.587 441.02,358.92 C441.02,354.555 443.332,350.389 447.957,346.42 C452.582,342.451 457.593,340.467 462.988,340.467"/>
<path class="Note" d="M1087.59,365.467 C1090.71,365.467 1093.31,366.248 1095.4,367.811 C1097.48,369.373 1098.52,371.618 1098.52,374.545 C1098.52,379.035 1096.2,383.233 1091.55,387.139 C1086.9,391.045 1081.9,392.998 1076.55,392.998 C1073.43,392.998 1070.79,392.186 1068.65,390.561 C1066.63,388.8 1065.62,386.587 1065.62,383.92 C1065.62,379.555 1067.93,375.389 1072.55,371.42 C1077.18,367.451 1082.19,365.467 1087.59,365.467"/>
<path class="Note" d="M1371.81,290.467 C1374.94,290.467 1377.54,291.248 1379.62,292.811 C1381.71,294.373 1382.75,296.618 1382.75,299.545 C1382.75,304.035 1380.42,308.232 1375.77,312.139 C1371.12,316.045 1366.12,317.998 1360.78,317.998 C1357.66,317.998 1355.02,317.186 1352.87,315.561 C1350.85,313.8 1349.84,311.587 1349.84,308.92 C1349.84,304.555 1352.16,300.389 1356.78,296.42 C1361.41,292.451 1366.42,290.467 1371.81,290.467"/>
<path class="Note" d="M2390.15,790.467 C2393.27,790.467 2395.88,791.248 2397.96,792.811 C2400.04,794.373 2401.09,796.618 2401.09,799.545 C2401.09,804.035 2398.76,808.233 2394.11,812.139 C2389.46,816.045 2384.46,817.998 2379.12,817.998 C2375.99,817.998 2373.36,817.186 2371.21,815.561 C2369.19,813.8 2368.18,811.587 2368.18,808.92 C2368.18,804.556 2370.49,800.389 2375.12,796.42 C2379.74,792.452 2384.75,790.467 2390.15,790.467"/>
<path class="Note" d="M1037.01,340.467 C1040.14,340.467 1042.74,341.248 1044.82,342.811 C1046.91,344.373 1047.95,346.618 1047.95,349.545 C1047.95,354.035 1045.62,358.232 1040.97,362.139 C1036.32,366.045 1031.32,367.998 1025.98,367.998 C1022.86,367.998 1020.22,367.186 1018.07,365.561 C1016.05,363.8 1015.04,361.587 1015.04,358.92 C1015.04,354.555 1017.36,350.389 1021.98,346.42 C1026.61,342.451 1031.62,340.467 1037.01,340.467"/>
<path class="Note" d="M1670.86,315.467 C1673.99,315.467 1676.59,316.248 1678.67,317.811 C1680.76,319.373 1681.8,321.618 1681.8,324.545 C1681.8,329.035 1679.47,333.232 1674.82,337.139 C1670.17,341.045 1665.17,342.998 1659.83,342.998 C1656.7,342.998 1654.07,342.186 1651.92,340.561 C1649.9,338.8 1648.89,336.587 1648.89,333.92 C1648.89,329.555 1651.2,325.389 1655.83,321.42 C1660.45,317.451 1665.47,315.467 1670.86,315.467"/>
<path class="Note" d="M468.311,1190.47 C471.436,1190.47 474.04,1191.25 476.123,1192.81 C478.206,1194.37 479.248,1196.62 479.248,1199.55 C479.248,1204.04 476.923,1208.23 472.272,1212.14 C467.621,1216.05 462.623,1218 457.279,1218 C454.154,1218 451.519,1217.19 449.373,1215.56 C447.352,1213.8 446.342,1211.59 446.342,1208.92 C446.342,1204.56 448.654,1200.39 453.279,1196.42 C457.904,1192.45 462.915,1190.47 468.311,1190.47"/>
<path class="Note" d="M899.525,315.467 C902.65,315.467 905.254,316.248 907.338,317.811 C909.421,319.373 910.463,321.618 910.463,324.545 C910.463,329.035 908.137,333.232 903.486,337.139 C898.835,341.045 893.838,342.998 888.494,342.998 C885.369,342.998 882.733,342.186 880.588,340.561 C878.567,338.8 877.556,336.587 877.556,333.92 C877.556,329.555 879.869,325.389 884.494,321.42 C889.119,317.451 894.129,315.467 899.525,315.467"/>
<path class="Note" d="M1284.9,302.967 C1288.02,302.967 1290.63,303.748 1292.71,305.311 C1294.79,306.873 1295.84,309.118 1295.84,312.045 C1295.84,316.535 1293.51,320.732 1288.86,324.639 C1284.21,328.545 1279.21,330.498 1273.87,330.498 C1270.74,330.498 1268.11,329.686 1265.96,328.061 C1263.94,326.3 1262.93,324.087 1262.93,321.42 C1262.93,317.055 1265.24,312.889 1269.87,308.92 C1274.49,304.951 1279.5,302.967 1284.9,302.967"/>
<path class="Note" d="M986.439,327.967 C989.564,327.967 992.168,328.748 994.252,330.311 C996.335,331.873 997.377,334.118 997.377,337.045 C997.377,341.535 995.051,345.732 990.4,349.639 C985.749,353.545 980.752,355.498 975.408,355.498 C972.283,355.498 969.647,354.686 967.502,353.061 C965.481,351.3 964.47,349.087 964.47,346.42 C964.47,342.055 966.783,337.889 971.408,333.92 C976.033,329.951 981.043,327.967 986.439,327.967"/>
<path class="Note" d="M2270.59,752.967 C2273.72,752.967 2276.32,753.748 2278.41,755.311 C2280.49,756.873 2281.53,759.118 2281.53,762.045 C2281.53,766.535 2279.21,770.733 2274.56,774.639 C2269.9,778.545 2264.91,780.498 2259.56,780.498 C2256.44,780.498 2253.8,779.686 2251.66,778.061 C2249.64,776.3 2248.63,774.087 2248.63,771.42 C2248.63,767.056 2250.94,762.889 2255.56,758.92 C2260.19,754.952 2265.2,752.967 2270.59,752.967"/>
<path class="Note" d="M803.012,1202.97 C806.137,1202.97 808.741,1203.75 810.825,1205.31 C812.908,1206.87 813.95,1209.12 813.95,1212.05 C813.95,1216.54 811.624,1220.73 806.973,1224.64 C802.322,1228.55 797.325,1230.5 791.981,1230.5 C788.856,1230.5 786.221,1229.69 784.075,1228.06 C782.054,1226.3 781.043,1224.09 781.043,1221.42 C781.043,1217.06 783.356,1212.89 787.981,1208.92 C792.606,1204.95 797.616,1202.97 803.012,1202.97"/>
<path class="Note" d="M1743.23,352.373 C1745.11,352.373 1749.07,350.42 1755.1,346.514 C1761.12,342.607 1764.67,339.988 1765.74,338.654 C1766.82,337.321 1767.35,336.134 1767.35,335.092 C1767.35,334.05 1766.93,333.123 1766.08,332.311 C1765.23,331.498 1764.25,331.092 1763.15,331.092 C1761.2,331.092 1757.22,333.061 1751.19,336.998 C1745.16,340.936 1741.63,343.555 1740.59,344.857 C1739.55,346.16 1739.03,347.331 1739.03,348.373 C1739.03,349.415 1739.43,350.342 1740.25,351.154 C1741.07,351.967 1742.06,352.373 1743.23,352.373 M1762.18,327.967 C1767.78,327.967 1770.57,330.373 1770.57,335.186 C1770.57,337.529 1769.89,340.248 1768.53,343.342 C1767.16,346.436 1765.34,348.795 1763.06,350.42 C1758.05,353.805 1751.76,355.498 1744.21,355.498 C1738.61,355.498 1735.81,353.092 1735.81,348.279 C1735.81,346.134 1736.47,343.464 1737.81,340.272 C1739.14,337.079 1740.98,334.67 1743.32,333.045 C1748.34,329.66 1754.63,327.967 1762.18,327.967"/>
<path class="Note" d="M2107.9,1302.97 C2111.03,1302.97 2113.63,1303.75 2115.71,1305.31 C2117.8,1306.87 2118.84,1309.12 2118.84,1312.05 C2118.84,1316.54 2116.51,1320.73 2111.86,1324.64 C2107.21,1328.55 2102.21,1330.5 2096.87,1330.5 C2093.75,1330.5 2091.11,1329.69 2088.96,1328.06 C2086.94,1326.3 2085.93,1324.09 2085.93,1321.42 C2085.93,1317.06 2088.25,1312.89 2092.87,1308.92 C2097.5,1304.95 2102.51,1302.97 2107.9,1302.97"/>
<path class="Note" d="M1467.98,277.967 C1471.1,277.967 1473.71,278.748 1475.79,280.311 C1477.87,281.873 1478.91,284.118 1478.91,287.045 C1478.91,291.535 1476.59,295.732 1471.94,299.639 C1467.29,303.545 1462.29,305.498 1456.95,305.498 C1453.82,305.498 1451.19,304.686 1449.04,303.061 C1447.02,301.3 1446.01,299.087 1446.01,296.42 C1446.01,292.055 1448.32,287.889 1452.95,283.92 C1457.57,279.951 1462.58,277.967 1467.98,277.967"/>
<path class="Note" d="M2733.88,765.467 C2737.01,765.467 2739.61,766.248 2741.69,767.811 C2743.78,769.373 2744.82,771.618 2744.82,774.545 C2744.82,779.035 2742.49,783.233 2737.84,787.139 C2733.19,791.045 2728.19,792.998 2722.85,792.998 C2719.73,792.998 2717.09,792.186 2714.94,790.561 C2712.92,788.8 2711.91,786.587 2711.91,783.92 C2711.91,779.556 2714.23,775.389 2718.85,771.42 C2723.48,767.452 2728.49,765.467 2733.88,765.467"/>
<path class="Note" d="M513.562,327.967 C516.687,327.967 519.291,328.748 521.374,330.311 C523.457,331.873 524.499,334.118 524.499,337.045 C524.499,341.535 522.174,345.732 517.523,349.639 C512.872,353.545 507.874,355.498 502.53,355.498 C499.405,355.498 496.77,354.686 494.624,353.061 C492.603,351.3 491.593,349.087 491.593,346.42 C491.593,342.055 493.905,337.889 498.53,333.92 C503.155,329.951 508.166,327.967 513.562,327.967"/>
<path class="Note" d="M1234.32,315.467 C1237.45,315.467 1240.05,316.248 1242.14,317.811 C1244.22,319.373 1245.26,321.618 1245.26,324.545 C1245.26,329.035 1242.94,333.232 1238.29,337.139 C1233.63,341.045 1228.64,342.998 1223.29,342.998 C1220.17,342.998 1217.53,342.186 1215.39,340.561 C1213.37,338.8 1212.36,336.587 1212.36,333.92 C1212.36,329.555 1214.67,325.389 1219.29,321.42 C1223.92,317.451 1228.93,315.467 1234.32,315.467"/>
<path class="Note" d="M999.363,1265.47 C1002.49,1265.47 1005.09,1266.25 1007.18,1267.81 C1009.26,1269.37 1010.3,1271.62 1010.3,1274.55 C1010.3,1279.04 1007.98,1283.23 1003.32,1287.14 C998.673,1291.05 993.676,1293 988.332,1293 C985.207,1293 982.571,1292.19 980.426,1290.56 C978.405,1288.8 977.394,1286.59 977.394,1283.92 C977.394,1279.56 979.707,1275.39 984.332,1271.42 C988.957,1267.45 993.967,1265.47 999.363,1265.47"/>
<path class="Note" d="M1519.14,290.467 C1522.27,290.467 1524.87,291.248 1526.95,292.811 C1529.04,294.373 1530.08,296.618 1530.08,299.545 C1530.08,304.035 1527.75,308.232 1523.1,312.139 C1518.45,316.045 1513.45,317.998 1508.11,317.998 C1504.98,317.998 1502.35,317.186 1500.2,315.561 C1498.18,313.8 1497.17,311.587 1497.17,308.92 C1497.17,304.555 1499.48,300.389 1504.11,296.42 C1508.73,292.451 1513.75,290.467 1519.14,290.467"/>
<path class="Note" d="M412.415,352.967 C415.54,352.967 418.144,353.748 420.228,355.311 C422.311,356.873 423.353,359.118 423.353,362.045 C423.353,366.535 421.027,370.733 416.376,374.639 C411.725,378.545 406.728,380.498 401.384,380.498 C398.259,380.498 395.623,379.686 393.478,378.061 C391.457,376.3 390.446,374.087 390.446,371.42 C390.446,367.055 392.759,362.889 397.384,358.92 C402.009,354.951 407.019,352.967 412.415,352.967"/>
<path class="Note" d="M2215.7,1309.7 C2218.57,1313.55 2222.24,1315.47 2226.73,1315.47 C2231.22,1315.47 2233.47,1312.44 2233.47,1306.39 C2233.47,1303.51 2232.66,1300.97 2231.03,1298.76 C2228.23,1294.92 2224.45,1293 2219.7,1293 C2217.62,1293 2216.03,1293.86 2214.92,1295.58 C2213.82,1297.31 2213.26,1299.54 2213.26,1302.28 C2213.26,1305.02 2214.08,1307.49 2215.7,1309.7 M2206.03,1294.47 C2210.92,1291.8 2216.79,1290.47 2223.66,1290.47 C2230.53,1290.47 2236.33,1291.83 2241.05,1294.57 C2245.76,1297.3 2248.12,1300.56 2248.12,1304.33 C2248.12,1308.11 2245.68,1311.33 2240.8,1314 C2235.91,1316.67 2230.07,1318 2223.26,1318 C2216.46,1318 2210.65,1316.63 2205.84,1313.9 C2201.02,1311.16 2198.61,1307.88 2198.61,1304.04 C2198.61,1300.2 2201.08,1297.01 2206.03,1294.47"/>
<path class="Note" d="M551.986,1190.47 C555.111,1190.47 557.715,1191.25 559.799,1192.81 C561.882,1194.37 562.924,1196.62 562.924,1199.55 C562.924,1204.04 560.598,1208.23 555.947,1212.14 C551.296,1216.05 546.299,1218 540.955,1218 C537.83,1218 535.194,1217.19 533.049,1215.56 C531.028,1213.8 530.017,1211.59 530.017,1208.92 C530.017,1204.56 532.33,1200.39 536.955,1196.42 C541.58,1192.45 546.59,1190.47 551.986,1190.47"/>
<path class="Note" d="M2793.66,765.467 C2796.78,765.467 2799.39,766.248 2801.47,767.811 C2803.56,769.373 2804.6,771.618 2804.6,774.545 C2804.6,779.035 2802.27,783.233 2797.62,787.139 C2792.97,791.045 2787.97,792.998 2782.63,792.998 C2779.5,792.998 2776.87,792.186 2774.72,790.561 C2772.7,788.8 2771.69,786.587 2771.69,783.92 C2771.69,779.556 2774,775.389 2778.63,771.42 C2783.25,767.452 2788.26,765.467 2793.66,765.467"/>
<path class="Note" d="M1940.55,1290.47 C1943.68,1290.47 1946.28,1291.25 1948.36,1292.81 C1950.45,1294.37 1951.49,1296.62 1951.49,1299.55 C1951.49,1304.04 1949.16,1308.23 1944.51,1312.14 C1939.86,1316.05 1934.86,1318 1929.52,1318 C1926.39,1318 1923.76,1317.19 1921.61,1315.56 C1919.59,1313.8 1918.58,1311.59 1918.58,1308.92 C1918.58,1304.56 1920.89,1300.39 1925.52,1296.42 C1930.14,1292.45 1935.16,1290.47 1940.55,1290.47"/>
<path class="Note" d="M2464.38,827.373 C2466.27,827.373 2470.22,825.42 2476.25,821.514 C2482.27,817.608 2485.82,814.988 2486.9,813.655 C2487.97,812.321 2488.5,811.134 2488.5,810.092 C2488.5,809.05 2488.08,808.123 2487.23,807.311 C2486.38,806.498 2485.41,806.092 2484.3,806.092 C2482.35,806.092 2478.37,808.061 2472.34,811.998 C2466.31,815.936 2462.78,818.556 2461.74,819.858 C2460.7,821.16 2460.18,822.332 2460.18,823.373 C2460.18,824.415 2460.59,825.342 2461.4,826.155 C2462.22,826.967 2463.21,827.373 2464.38,827.373 M2483.33,802.967 C2488.93,802.967 2491.72,805.373 2491.72,810.186 C2491.72,812.53 2491.04,815.248 2489.68,818.342 C2488.31,821.436 2486.49,823.795 2484.21,825.42 C2479.2,828.806 2472.92,830.498 2465.36,830.498 C2459.76,830.498 2456.96,828.092 2456.96,823.28 C2456.96,821.134 2457.62,818.465 2458.96,815.272 C2460.29,812.079 2462.13,809.67 2464.47,808.045 C2469.49,804.66 2475.78,802.967 2483.33,802.967"/>
<path class="Note" d="M2024.23,1315.47 C2027.35,1315.47 2029.96,1316.25 2032.04,1317.81 C2034.12,1319.37 2035.16,1321.62 2035.16,1324.55 C2035.16,1329.04 2032.84,1333.23 2028.19,1337.14 C2023.54,1341.05 2018.54,1343 2013.2,1343 C2010.07,1343 2007.43,1342.19 2005.29,1340.56 C2003.27,1338.8 2002.26,1336.59 2002.26,1333.92 C2002.26,1329.56 2004.57,1325.39 2009.2,1321.42 C2013.82,1317.45 2018.83,1315.47 2024.23,1315.47"/>
<path class="Note" d="M1183.75,340.467 C1186.88,340.467 1189.48,341.248 1191.56,342.811 C1193.65,344.373 1194.69,346.618 1194.69,349.545 C1194.69,354.035 1192.36,358.232 1187.71,362.139 C1183.06,366.045 1178.06,367.998 1172.72,367.998 C1169.59,367.998 1166.96,367.186 1164.81,365.561 C1162.79,363.8 1161.78,361.587 1161.78,358.92 C1161.78,354.555 1164.09,350.389 1168.72,346.42 C1173.34,342.451 1178.36,340.467 1183.75,340.467"/>
<path class="Note" d="M1569.71,315.467 C1572.84,315.467 1575.44,316.248 1577.53,317.811 C1579.61,319.373 1580.65,321.618 1580.65,324.545 C1580.65,329.035 1578.33,333.232 1573.68,337.139 C1569.02,341.045 1564.03,342.998 1558.68,342.998 C1555.56,342.998 1552.92,342.186 1550.78,340.561 C1548.76,338.8 1547.75,336.587 1547.75,333.92 C1547.75,329.555 1550.06,325.389 1554.68,321.42 C1559.31,317.451 1564.32,315.467 1569.71,315.467"/>
<path class="Note" d="M2674.11,765.467 C2677.23,765.467 2679.83,766.248 2681.92,767.811 C2684,769.373 2685.04,771.618 2685.04,774.545 C2685.04,779.035 2682.72,783.233 2678.07,787.139 C2673.42,791.045 2668.42,792.998 2663.07,792.998 C2659.95,792.998 2657.31,792.186 2655.17,790.561 C2653.15,788.8 2652.14,786.587 2652.14,783.92 C2652.14,779.556 2654.45,775.389 2659.07,771.42 C2663.7,767.452 2668.71,765.467 2674.11,765.467"/>
<path class="Note" d="M635.661,1202.97 C638.786,1202.97 641.391,1203.75 643.474,1205.31 C645.557,1206.87 646.599,1209.12 646.599,1212.05 C646.599,1216.54 644.273,1220.73 639.622,1224.64 C634.971,1228.55 629.974,1230.5 624.63,1230.5 C621.505,1230.5 618.87,1229.69 616.724,1228.06 C614.703,1226.3 613.693,1224.09 613.693,1221.42 C613.693,1217.06 616.005,1212.89 620.63,1208.92 C625.255,1204.95 630.266,1202.97 635.661,1202.97"/>
<path class="Note" d="M309.201,1177.97 C312.326,1177.97 314.93,1178.75 317.014,1180.31 C319.097,1181.87 320.139,1184.12 320.139,1187.05 C320.139,1191.54 317.813,1195.73 313.162,1199.64 C308.511,1203.55 303.514,1205.5 298.17,1205.5 C295.045,1205.5 292.41,1204.69 290.264,1203.06 C288.243,1201.3 287.232,1199.09 287.232,1196.42 C287.232,1192.06 289.545,1187.89 294.17,1183.92 C298.795,1179.95 303.805,1177.97 309.201,1177.97"/>
<path class="Note" d="M1083.04,1290.47 C1086.16,1290.47 1088.77,1291.25 1090.85,1292.81 C1092.93,1294.37 1093.98,1296.62 1093.98,1299.55 C1093.98,1304.04 1091.65,1308.23 1087,1312.14 C1082.35,1316.05 1077.35,1318 1072.01,1318 C1068.88,1318 1066.25,1317.19 1064.1,1315.56 C1062.08,1313.8 1061.07,1311.59 1061.07,1308.92 C1061.07,1304.56 1063.38,1300.39 1068.01,1296.42 C1072.63,1292.45 1077.64,1290.47 1083.04,1290.47"/>
<path class="Note" d="M915.688,1240.47 C918.813,1240.47 921.417,1241.25 923.5,1242.81 C925.583,1244.37 926.625,1246.62 926.625,1249.55 C926.625,1254.04 924.3,1258.23 919.649,1262.14 C914.998,1266.05 910,1268 904.656,1268 C901.531,1268 898.896,1267.19 896.75,1265.56 C894.729,1263.8 893.719,1261.59 893.719,1258.92 C893.719,1254.56 896.031,1250.39 900.656,1246.42 C905.281,1242.45 910.292,1240.47 915.688,1240.47"/>
<path class="Note" d="M2744.95,340.467 C2748.07,340.467 2750.68,341.248 2752.76,342.811 C2754.85,344.373 2755.89,346.618 2755.89,349.545 C2755.89,354.035 2753.56,358.232 2748.91,362.139 C2744.26,366.045 2739.26,367.998 2733.92,367.998 C2730.79,367.998 2728.16,367.186 2726.01,365.561 C2723.99,363.8 2722.98,361.587 2722.98,358.92 C2722.98,354.555 2725.29,350.389 2729.92,346.42 C2734.54,342.451 2739.55,340.467 2744.95,340.467"/>
<path class="Note" d="M1327.71,740.467 C1330.83,740.467 1333.44,741.248 1335.52,742.811 C1337.61,744.373 1338.65,746.618 1338.65,749.545 C1338.65,754.035 1336.32,758.233 1331.67,762.139 C1327.02,766.045 1322.02,767.998 1316.68,767.998 C1313.55,767.998 1310.92,767.186 1308.77,765.561 C1306.75,763.8 1305.74,761.587 1305.74,758.92 C1305.74,754.556 1308.05,750.389 1312.68,746.42 C1317.3,742.451 1322.31,740.467 1327.71,740.467"/>
<path class="Note" d="M797.788,277.967 C800.913,277.967 803.517,278.748 805.6,280.311 C807.684,281.873 808.725,284.118 808.725,287.045 C808.725,291.535 806.4,295.732 801.749,299.639 C797.098,303.545 792.1,305.498 786.756,305.498 C783.631,305.498 780.996,304.686 778.85,303.061 C776.829,301.3 775.819,299.087 775.819,296.42 C775.819,292.055 778.131,287.889 782.756,283.92 C787.381,279.951 792.392,277.967 797.788,277.967"/>
<path class="Note" d="M1267.93,740.467 C1271.06,740.467 1273.66,741.248 1275.75,742.811 C1277.83,744.373 1278.87,746.618 1278.87,749.545 C1278.87,754.035 1276.54,758.233 1271.89,762.139 C1267.24,766.045 1262.25,767.998 1256.9,767.998 C1253.78,767.998 1251.14,767.186 1249,765.561 C1246.97,763.8 1245.96,761.587 1245.96,758.92 C1245.96,754.556 1248.28,750.389 1252.9,746.42 C1257.53,742.451 1262.54,740.467 1267.93,740.467"/>
<path class="Note" d="M2497.06,327.967 C2500.19,327.967 2502.79,328.748 2504.88,330.311 C2506.96,331.873 2508,334.118 2508,337.045 C2508,341.535 2505.68,345.732 2501.03,349.639 C2496.37,353.545 2491.38,355.498 2486.03,355.498 C2482.91,355.498 2480.27,354.686 2478.13,353.061 C2476.11,351.3 2475.1,349.087 2475.1,346.42 C2475.1,342.055 2477.41,337.889 2482.03,333.92 C2486.66,329.951 2491.67,327.967 2497.06,327.967"/>
<path class="Note" d="M600.476,315.467 C603.601,315.467 606.205,316.248 608.288,317.811 C610.372,319.373 611.413,321.618 611.413,324.545 C611.413,329.035 609.088,333.232 604.437,337.139 C599.786,341.045 594.788,342.998 589.444,342.998 C586.319,342.998 583.684,342.186 581.538,340.561 C579.517,338.8 578.507,336.587 578.507,333.92 C578.507,329.555 580.819,325.389 585.444,321.42 C590.069,317.451 595.08,315.467 600.476,315.467"/>
<path class="Note" d="M1154.27,727.967 C1157.39,727.967 1159.99,728.748 1162.08,730.311 C1164.16,731.873 1165.2,734.118 1165.2,737.045 C1165.2,741.535 1162.88,745.733 1158.23,749.639 C1153.58,753.545 1148.58,755.498 1143.23,755.498 C1140.11,755.498 1137.47,754.686 1135.33,753.061 C1133.31,751.3 1132.3,749.087 1132.3,746.42 C1132.3,742.056 1134.61,737.889 1139.23,733.92 C1143.86,729.951 1148.87,727.967 1154.27,727.967"/>
<path class="Note" d="M2547.64,340.467 C2550.76,340.467 2553.37,341.248 2555.45,342.811 C2557.53,344.373 2558.58,346.618 2558.58,349.545 C2558.58,354.035 2556.25,358.232 2551.6,362.139 C2546.95,366.045 2541.95,367.998 2536.61,367.998 C2533.48,367.998 2530.85,367.186 2528.7,365.561 C2526.68,363.8 2525.67,361.587 2525.67,358.92 C2525.67,354.555 2527.98,350.389 2532.61,346.42 C2537.23,342.451 2542.24,340.467 2547.64,340.467"/>
<path class="Note" d="M1065.49,740.467 C1068.61,740.467 1071.22,741.248 1073.3,742.811 C1075.38,744.373 1076.43,746.618 1076.43,749.545 C1076.43,754.035 1074.1,758.233 1069.45,762.139 C1064.8,766.045 1059.8,767.998 1054.46,767.998 C1051.33,767.998 1048.7,767.186 1046.55,765.561 C1044.53,763.8 1043.52,761.587 1043.52,758.92 C1043.52,754.556 1045.83,750.389 1050.46,746.42 C1055.08,742.451 1060.09,740.467 1065.49,740.467"/>
<path class="Note" d="M2598.21,365.467 C2601.34,365.467 2603.94,366.248 2606.02,367.811 C2608.11,369.373 2609.15,371.618 2609.15,374.545 C2609.15,379.035 2606.82,383.233 2602.17,387.139 C2597.52,391.045 2592.52,392.998 2587.18,392.998 C2584.05,392.998 2581.42,392.186 2579.27,390.561 C2577.25,388.8 2576.24,386.587 2576.24,383.92 C2576.24,379.555 2578.55,375.389 2583.18,371.42 C2587.8,367.451 2592.82,365.467 2598.21,365.467"/>
<path class="Note" d="M1689.52,1240.47 C1692.65,1240.47 1695.25,1241.25 1697.34,1242.81 C1699.42,1244.37 1700.46,1246.62 1700.46,1249.55 C1700.46,1254.04 1698.14,1258.23 1693.49,1262.14 C1688.83,1266.05 1683.84,1268 1678.49,1268 C1675.37,1268 1672.73,1267.19 1670.59,1265.56 C1668.57,1263.8 1667.56,1261.59 1667.56,1258.92 C1667.56,1254.56 1669.87,1250.39 1674.49,1246.42 C1679.12,1242.45 1684.13,1240.47 1689.52,1240.47"/>
<path class="Note" d="M1005.71,752.967 C1008.84,752.967 1011.44,753.748 1013.52,755.311 C1015.61,756.873 1016.65,759.118 1016.65,762.045 C1016.65,766.535 1014.32,770.733 1009.67,774.639 C1005.02,778.545 1000.02,780.498 994.68,780.498 C991.555,780.498 988.919,779.686 986.773,778.061 C984.753,776.3 983.742,774.087 983.742,771.42 C983.742,767.056 986.055,762.889 990.68,758.92 C995.305,754.952 1000.32,752.967 1005.71,752.967"/>
<path class="Note" d="M2694.38,352.967 C2697.5,352.967 2700.11,353.748 2702.19,355.311 C2704.27,356.873 2705.31,359.118 2705.31,362.045 C2705.31,366.535 2702.99,370.733 2698.34,374.639 C2693.69,378.545 2688.69,380.498 2683.35,380.498 C2680.22,380.498 2677.58,379.686 2675.44,378.061 C2673.42,376.3 2672.41,374.087 2672.41,371.42 C2672.41,367.055 2674.72,362.889 2679.35,358.92 C2683.97,354.951 2688.98,352.967 2694.38,352.967"/>
<path class="Note" d="M945.934,765.467 C949.059,765.467 951.663,766.248 953.746,767.811 C955.829,769.373 956.871,771.618 956.871,774.545 C956.871,779.035 954.545,783.233 949.894,787.139 C945.243,791.045 940.246,792.998 934.902,792.998 C931.777,792.998 929.142,792.186 926.996,790.561 C924.975,788.8 923.965,786.587 923.965,783.92 C923.965,779.556 926.277,775.389 930.902,771.42 C935.527,767.452 940.538,765.467 945.934,765.467"/>
<path class="Note" d="M1923.04,352.967 C1926.17,352.967 1928.77,353.748 1930.85,355.311 C1932.94,356.873 1933.98,359.118 1933.98,362.045 C1933.98,366.535 1931.65,370.733 1927,374.639 C1922.35,378.545 1917.35,380.498 1912.01,380.498 C1908.88,380.498 1906.25,379.686 1904.1,378.061 C1902.08,376.3 1901.07,374.087 1901.07,371.42 C1901.07,367.055 1903.38,362.889 1908.01,358.92 C1912.63,354.951 1917.64,352.967 1923.04,352.967"/>
<path class="Note" d="M736.208,839.873 C738.093,839.873 742.049,837.92 748.075,834.014 C754.101,830.108 757.651,827.488 758.724,826.155 C759.797,824.821 760.333,823.634 760.333,822.592 C760.333,821.551 759.909,820.623 759.06,819.811 C758.211,818.998 757.234,818.592 756.13,818.592 C754.182,818.592 750.195,820.561 744.169,824.498 C738.143,828.436 734.609,831.056 733.567,832.358 C732.526,833.66 732.005,834.832 732.005,835.873 C732.005,836.915 732.414,837.842 733.231,838.655 C734.049,839.467 735.041,839.873 736.208,839.873 M755.161,815.467 C760.755,815.467 763.552,817.873 763.552,822.686 C763.552,825.03 762.869,827.748 761.505,830.842 C760.14,833.936 758.317,836.295 756.036,837.92 C751.026,841.306 744.744,842.998 737.192,842.998 C731.588,842.998 728.786,840.592 728.786,835.78 C728.786,833.634 729.453,830.965 730.786,827.772 C732.119,824.579 733.958,822.17 736.302,820.545 C741.323,817.16 747.609,815.467 755.161,815.467"/>
<path class="Note" d="M696.641,327.967 C699.766,327.967 702.37,328.748 704.454,330.311 C706.537,331.873 707.579,334.118 707.579,337.045 C707.579,341.535 705.253,345.732 700.602,349.639 C695.951,353.545 690.954,355.498 685.61,355.498 C682.485,355.498 679.85,354.686 677.704,353.061 C675.683,351.3 674.672,349.087 674.672,346.42 C674.672,342.055 676.985,337.889 681.61,333.92 C686.235,329.951 691.245,327.967 696.641,327.967"/>
<path class="Note" d="M2795.52,327.967 C2798.65,327.967 2801.25,328.748 2803.34,330.311 C2805.42,331.873 2806.46,334.118 2806.46,337.045 C2806.46,341.535 2804.13,345.732 2799.48,349.639 C2794.83,353.545 2789.84,355.498 2784.49,355.498 C2781.37,355.498 2778.73,354.686 2776.59,353.061 C2774.56,351.3 2773.55,349.087 2773.55,346.42 C2773.55,342.055 2775.87,337.889 2780.49,333.92 C2785.12,329.951 2790.13,327.967 2795.52,327.967"/>
<path class="Note" d="M661.978,827.967 C665.103,827.967 667.707,828.748 669.79,830.311 C671.873,831.873 672.915,834.118 672.915,837.045 C672.915,841.535 670.59,845.733 665.938,849.639 C661.287,853.545 656.29,855.498 650.946,855.498 C647.821,855.498 645.186,854.686 643.04,853.061 C641.019,851.301 640.009,849.087 640.009,846.42 C640.009,842.056 642.321,837.889 646.946,833.92 C651.571,829.952 656.582,827.967 661.978,827.967"/>
<path class="Note" d="M602.2,815.467 C605.325,815.467 607.929,816.248 610.013,817.811 C612.096,819.373 613.138,821.618 613.138,824.545 C613.138,829.035 610.812,833.233 606.161,837.139 C601.51,841.045 596.513,842.998 591.169,842.998 C588.044,842.998 585.409,842.186 583.263,840.561 C581.242,838.801 580.231,836.587 580.231,833.92 C580.231,829.556 582.544,825.389 587.169,821.42 C591.794,817.452 596.804,815.467 602.2,815.467"/>
<path class="Note" d="M747.214,315.467 C750.339,315.467 752.944,316.248 755.027,317.811 C757.11,319.373 758.152,321.618 758.152,324.545 C758.152,329.035 755.826,333.232 751.175,337.139 C746.524,341.045 741.527,342.998 736.183,342.998 C733.058,342.998 730.423,342.186 728.277,340.561 C726.256,338.8 725.246,336.587 725.246,333.92 C725.246,329.555 727.558,325.389 732.183,321.42 C736.808,317.451 741.819,315.467 747.214,315.467"/>
<path class="Note" d="M542.423,802.967 C545.548,802.967 548.152,803.748 550.235,805.311 C552.319,806.873 553.36,809.118 553.36,812.045 C553.36,816.535 551.035,820.733 546.384,824.639 C541.733,828.545 536.735,830.498 531.392,830.498 C528.267,830.498 525.631,829.686 523.485,828.061 C521.465,826.3 520.454,824.087 520.454,821.42 C520.454,817.056 522.767,812.889 527.392,808.92 C532.017,804.952 537.027,802.967 542.423,802.967"/>
<path class="Note" d="M1605.85,1227.97 C1608.97,1227.97 1611.58,1228.75 1613.66,1230.31 C1615.75,1231.87 1616.79,1234.12 1616.79,1237.05 C1616.79,1241.54 1614.46,1245.73 1609.81,1249.64 C1605.16,1253.55 1600.16,1255.5 1594.82,1255.5 C1591.69,1255.5 1589.06,1254.69 1586.91,1253.06 C1584.89,1251.3 1583.88,1249.09 1583.88,1246.42 C1583.88,1242.06 1586.19,1237.89 1590.82,1233.92 C1595.44,1229.95 1600.45,1227.97 1605.85,1227.97"/>
<path class="Note" d="M1522.17,1265.47 C1525.3,1265.47 1527.9,1266.25 1529.99,1267.81 C1532.07,1269.37 1533.11,1271.62 1533.11,1274.55 C1533.11,1279.04 1530.79,1283.23 1526.14,1287.14 C1521.48,1291.05 1516.49,1293 1511.14,1293 C1508.02,1293 1505.38,1292.19 1503.24,1290.56 C1501.22,1288.8 1500.21,1286.59 1500.21,1283.92 C1500.21,1279.56 1502.52,1275.39 1507.14,1271.42 C1511.77,1267.45 1516.78,1265.47 1522.17,1265.47"/>
<path class="Note" d="M482.646,790.467 C485.771,790.467 488.375,791.248 490.458,792.811 C492.541,794.373 493.583,796.618 493.583,799.545 C493.583,804.035 491.258,808.233 486.606,812.139 C481.955,816.045 476.958,817.998 471.614,817.998 C468.489,817.998 465.854,817.186 463.708,815.561 C461.687,813.8 460.677,811.587 460.677,808.92 C460.677,804.556 462.989,800.389 467.614,796.42 C472.239,792.452 477.25,790.467 482.646,790.467"/>
<path class="Note" d="M422.868,777.967 C425.993,777.967 428.597,778.748 430.681,780.311 C432.764,781.873 433.806,784.118 433.806,787.045 C433.806,791.535 431.48,795.733 426.829,799.639 C422.178,803.545 417.181,805.498 411.837,805.498 C408.712,805.498 406.077,804.686 403.931,803.061 C401.91,801.3 400.899,799.087 400.899,796.42 C400.899,792.056 403.212,787.889 407.837,783.92 C412.462,779.952 417.472,777.967 422.868,777.967"/>
<path class="Note" d="M309.201,790.467 C312.326,790.467 314.93,791.248 317.014,792.811 C319.097,794.373 320.139,796.618 320.139,799.545 C320.139,804.035 317.813,808.233 313.162,812.139 C308.511,816.045 303.514,817.998 298.17,817.998 C295.045,817.998 292.41,817.186 290.264,815.561 C288.243,813.8 287.232,811.587 287.232,808.92 C287.232,804.556 289.545,800.389 294.17,796.42 C298.795,792.452 303.805,790.467 309.201,790.467"/>
<path class="Note" d="M2410.15,315.467 C2413.28,315.467 2415.88,316.248 2417.96,317.811 C2420.05,319.373 2421.09,321.618 2421.09,324.545 C2421.09,329.035 2418.76,333.232 2414.11,337.139 C2409.46,341.045 2404.46,342.998 2399.12,342.998 C2395.99,342.998 2393.36,342.186 2391.21,340.561 C2389.19,338.8 2388.18,336.587 2388.18,333.92 C2388.18,329.555 2390.49,325.389 2395.12,321.42 C2399.74,317.451 2404.75,315.467 2410.15,315.467"/>
<path class="Note" d="M2210.82,740.467 C2213.94,740.467 2216.55,741.248 2218.63,742.811 C2220.71,744.373 2221.75,746.618 2221.75,749.545 C2221.75,754.035 2219.43,758.233 2214.78,762.139 C2210.13,766.045 2205.13,767.998 2199.79,767.998 C2196.66,767.998 2194.03,767.186 2191.88,765.561 C2189.86,763.8 2188.85,761.587 2188.85,758.92 C2188.85,754.556 2191.16,750.389 2195.79,746.42 C2200.41,742.451 2205.42,740.467 2210.82,740.467"/>
<path class="Note" d="M2151.04,740.467 C2154.16,740.467 2156.77,741.248 2158.85,742.811 C2160.94,744.373 2161.98,746.618 2161.98,749.545 C2161.98,754.035 2159.65,758.233 2155,762.139 C2150.35,766.045 2145.35,767.998 2140.01,767.998 C2136.88,767.998 2134.25,767.186 2132.1,765.561 C2130.08,763.8 2129.07,761.587 2129.07,758.92 C2129.07,754.556 2131.38,750.389 2136.01,746.42 C2140.63,742.451 2145.64,740.467 2151.04,740.467"/>
<path class="Note" d="M1856.88,1277.97 C1860,1277.97 1862.6,1278.75 1864.69,1280.31 C1866.77,1281.87 1867.81,1284.12 1867.81,1287.05 C1867.81,1291.54 1865.49,1295.73 1860.84,1299.64 C1856.19,1303.55 1851.19,1305.5 1845.84,1305.5 C1842.72,1305.5 1840.08,1304.69 1837.94,1303.06 C1835.92,1301.3 1834.91,1299.09 1834.91,1296.42 C1834.91,1292.06 1837.22,1287.89 1841.84,1283.92 C1846.47,1279.95 1851.48,1277.97 1856.88,1277.97"/>
<path class="Note" d="M1242.15,1302.97 C1245.27,1302.97 1247.88,1303.75 1249.96,1305.31 C1252.04,1306.87 1253.09,1309.12 1253.09,1312.05 C1253.09,1316.54 1250.76,1320.73 1246.11,1324.64 C1241.46,1328.55 1236.46,1330.5 1231.12,1330.5 C1227.99,1330.5 1225.36,1329.69 1223.21,1328.06 C1221.19,1326.3 1220.18,1324.09 1220.18,1321.42 C1220.18,1317.06 1222.49,1312.89 1227.12,1308.92 C1231.74,1304.95 1236.75,1302.97 1242.15,1302.97"/>
<path class="Note" d="M2037.37,727.967 C2040.5,727.967 2043.1,728.748 2045.19,730.311 C2047.27,731.873 2048.31,734.118 2048.31,737.045 C2048.31,741.535 2045.98,745.733 2041.33,749.639 C2036.68,753.545 2031.69,755.498 2026.34,755.498 C2023.22,755.498 2020.58,754.686 2018.44,753.061 C2016.41,751.3 2015.4,749.087 2015.4,746.42 C2015.4,742.056 2017.72,737.889 2022.34,733.92 C2026.97,729.951 2031.98,727.967 2037.37,727.967"/>
<path class="Note" d="M1973.61,340.467 C1976.74,340.467 1979.34,341.248 1981.43,342.811 C1983.51,344.373 1984.55,346.618 1984.55,349.545 C1984.55,354.035 1982.23,358.232 1977.57,362.139 C1972.92,366.045 1967.93,367.998 1962.58,367.998 C1959.46,367.998 1956.82,367.186 1954.68,365.561 C1952.66,363.8 1951.65,361.587 1951.65,358.92 C1951.65,354.555 1953.96,350.389 1958.58,346.42 C1963.21,342.451 1968.22,340.467 1973.61,340.467"/>
<path class="Note" d="M2024.19,327.967 C2027.31,327.967 2029.92,328.748 2032,330.311 C2034.08,331.873 2035.12,334.118 2035.12,337.045 C2035.12,341.535 2032.8,345.732 2028.15,349.639 C2023.5,353.545 2018.5,355.498 2013.16,355.498 C2010.03,355.498 2007.4,354.686 2005.25,353.061 C2003.23,351.3 2002.22,349.087 2002.22,346.42 C2002.22,342.055 2004.53,337.889 2009.16,333.92 C2013.78,329.951 2018.79,327.967 2024.19,327.967"/>
<path class="Note" d="M1948.6,740.467 C1951.72,740.467 1954.32,741.248 1956.41,742.811 C1958.49,744.373 1959.53,746.618 1959.53,749.545 C1959.53,754.035 1957.21,758.233 1952.56,762.139 C1947.91,766.045 1942.91,767.998 1937.56,767.998 C1934.44,767.998 1931.8,767.186 1929.66,765.561 C1927.64,763.8 1926.63,761.587 1926.63,758.92 C1926.63,754.556 1928.94,750.389 1933.56,746.42 C1938.19,742.451 1943.2,740.467 1948.6,740.467"/>
<path class="Note" d="M848.952,290.467 C852.077,290.467 854.681,291.248 856.764,292.811 C858.848,294.373 859.889,296.618 859.889,299.545 C859.889,304.035 857.564,308.232 852.913,312.139 C848.262,316.045 843.264,317.998 837.921,317.998 C834.796,317.998 832.16,317.186 830.014,315.561 C827.993,313.8 826.983,311.587 826.983,308.92 C826.983,304.555 829.296,300.389 833.921,296.42 C838.546,292.451 843.556,290.467 848.952,290.467"/>
<path class="Note" d="M1888.82,752.967 C1891.94,752.967 1894.55,753.748 1896.63,755.311 C1898.71,756.873 1899.76,759.118 1899.76,762.045 C1899.76,766.535 1897.43,770.733 1892.78,774.639 C1888.13,778.545 1883.13,780.498 1877.79,780.498 C1874.66,780.498 1872.03,779.686 1869.88,778.061 C1867.86,776.3 1866.85,774.087 1866.85,771.42 C1866.85,767.056 1869.16,762.889 1873.79,758.92 C1878.41,754.952 1883.42,752.967 1888.82,752.967"/>
<path class="Note" d="M2111.1,315.467 C2114.23,315.467 2116.83,316.248 2118.91,317.811 C2121,319.373 2122.04,321.618 2122.04,324.545 C2122.04,329.035 2119.71,333.232 2115.06,337.139 C2110.41,341.045 2105.41,342.998 2100.07,342.998 C2096.94,342.998 2094.31,342.186 2092.16,340.561 C2090.14,338.8 2089.13,336.587 2089.13,333.92 C2089.13,329.555 2091.44,325.389 2096.07,321.42 C2100.69,317.451 2105.71,315.467 2111.1,315.467"/>
<path class="Note" d="M1829.04,765.467 C1832.17,765.467 1834.77,766.248 1836.85,767.811 C1838.94,769.373 1839.98,771.618 1839.98,774.545 C1839.98,779.035 1837.65,783.233 1833,787.139 C1828.35,791.045 1823.35,792.998 1818.01,792.998 C1814.88,792.998 1812.25,792.186 1810.1,790.561 C1808.08,788.8 1807.07,786.587 1807.07,783.92 C1807.07,779.556 1809.38,775.389 1814.01,771.42 C1818.63,767.452 1823.65,765.467 1829.04,765.467"/>
<path class="Note" d="M1325.82,1290.47 C1328.95,1290.47 1331.55,1291.25 1333.64,1292.81 C1335.72,1294.37 1336.76,1296.62 1336.76,1299.55 C1336.76,1304.04 1334.44,1308.23 1329.78,1312.14 C1325.13,1316.05 1320.14,1318 1314.79,1318 C1311.67,1318 1309.03,1317.19 1306.89,1315.56 C1304.86,1313.8 1303.85,1311.59 1303.85,1308.92 C1303.85,1304.56 1306.17,1300.39 1310.79,1296.42 C1315.42,1292.45 1320.43,1290.47 1325.82,1290.47"/>
<path class="Note" d="M1715.37,815.467 C1718.5,815.467 1721.1,816.248 1723.19,817.811 C1725.27,819.373 1726.31,821.618 1726.31,824.545 C1726.31,829.035 1723.99,833.233 1719.33,837.139 C1714.68,841.045 1709.69,842.998 1704.34,842.998 C1701.22,842.998 1698.58,842.186 1696.44,840.561 C1694.42,838.801 1693.41,836.587 1693.41,833.92 C1693.41,829.556 1695.72,825.389 1700.34,821.42 C1704.97,817.452 1709.98,815.467 1715.37,815.467"/>
<path class="Note" d="M2207.27,327.967 C2210.39,327.967 2213,328.748 2215.08,330.311 C2217.16,331.873 2218.2,334.118 2218.2,337.045 C2218.2,341.535 2215.88,345.732 2211.23,349.639 C2206.58,353.545 2201.58,355.498 2196.24,355.498 C2193.11,355.498 2190.47,354.686 2188.33,353.061 C2186.31,351.3 2185.3,349.087 2185.3,346.42 C2185.3,342.055 2187.61,337.889 2192.24,333.92 C2196.86,329.951 2201.87,327.967 2207.27,327.967"/>
<path class="Note" d="M1655.6,790.467 C1658.72,790.467 1661.33,791.248 1663.41,792.811 C1665.49,794.373 1666.53,796.618 1666.53,799.545 C1666.53,804.035 1664.21,808.233 1659.56,812.139 C1654.91,816.045 1649.91,817.998 1644.57,817.998 C1641.44,817.998 1638.8,817.186 1636.66,815.561 C1634.64,813.8 1633.63,811.587 1633.63,808.92 C1633.63,804.556 1635.94,800.389 1640.57,796.42 C1645.19,792.452 1650.2,790.467 1655.6,790.467"/>
<path class="Note" d="M2257.84,315.467 C2260.96,315.467 2263.57,316.248 2265.65,317.811 C2267.74,319.373 2268.78,321.618 2268.78,324.545 C2268.78,329.035 2266.45,333.232 2261.8,337.139 C2257.15,341.045 2252.15,342.998 2246.81,342.998 C2243.68,342.998 2241.05,342.186 2238.9,340.561 C2236.88,338.8 2235.87,336.587 2235.87,333.92 C2235.87,329.555 2238.18,325.389 2242.81,321.42 C2247.43,317.451 2252.44,315.467 2257.84,315.467"/>
<path class="Note" d="M1595.82,765.467 C1598.94,765.467 1601.55,766.248 1603.63,767.811 C1605.71,769.373 1606.76,771.618 1606.76,774.545 C1606.76,779.035 1604.43,783.233 1599.78,787.139 C1595.13,791.045 1590.13,792.998 1584.79,792.998 C1581.66,792.998 1579.03,792.186 1576.88,790.561 C1574.86,788.8 1573.85,786.587 1573.85,783.92 C1573.85,779.556 1576.16,775.389 1580.79,771.42 C1585.41,767.452 1590.42,765.467 1595.82,765.467"/>
<path class="Note" d="M1773.2,1265.47 C1776.33,1265.47 1778.93,1266.25 1781.01,1267.81 C1783.1,1269.37 1784.14,1271.62 1784.14,1274.55 C1784.14,1279.04 1781.81,1283.23 1777.16,1287.14 C1772.51,1291.05 1767.51,1293 1762.17,1293 C1759.04,1293 1756.41,1292.19 1754.26,1290.56 C1752.24,1288.8 1751.23,1286.59 1751.23,1283.92 C1751.23,1279.56 1753.54,1275.39 1758.17,1271.42 C1762.79,1267.45 1767.8,1265.47 1773.2,1265.47"/>
<path class="Note" d="M2308.41,277.967 C2311.54,277.967 2314.14,278.748 2316.23,280.311 C2318.31,281.873 2319.35,284.118 2319.35,287.045 C2319.35,291.535 2317.03,295.732 2312.37,299.639 C2307.72,303.545 2302.73,305.498 2297.38,305.498 C2294.26,305.498 2291.62,304.686 2289.48,303.061 C2287.45,301.3 2286.44,299.087 2286.44,296.42 C2286.44,292.055 2288.76,287.889 2293.38,283.92 C2298.01,279.951 2303.02,277.967 2308.41,277.967"/>
<path class="Note" d="M1507.04,790.467 C1510.17,790.467 1512.77,791.248 1514.85,792.811 C1516.94,794.373 1517.98,796.618 1517.98,799.545 C1517.98,804.035 1515.65,808.233 1511,812.139 C1506.35,816.045 1501.35,817.998 1496.01,817.998 C1492.89,817.998 1490.25,817.186 1488.1,815.561 C1486.08,813.8 1485.07,811.587 1485.07,808.92 C1485.07,804.556 1487.39,800.389 1492.01,796.42 C1496.64,792.452 1501.65,790.467 1507.04,790.467"/>
<path class="Note" d="M1447.26,765.467 C1450.39,765.467 1452.99,766.248 1455.08,767.811 C1457.16,769.373 1458.2,771.618 1458.2,774.545 C1458.2,779.035 1455.88,783.233 1451.23,787.139 C1446.57,791.045 1441.58,792.998 1436.23,792.998 C1433.11,792.998 1430.47,792.186 1428.33,790.561 C1426.31,788.8 1425.3,786.587 1425.3,783.92 C1425.3,779.556 1427.61,775.389 1432.23,771.42 C1436.86,767.452 1441.87,765.467 1447.26,765.467"/>
<path class="Note" d="M2359.58,290.467 C2362.7,290.467 2365.31,291.248 2367.39,292.811 C2369.47,294.373 2370.51,296.618 2370.51,299.545 C2370.51,304.035 2368.19,308.232 2363.54,312.139 C2358.89,316.045 2353.89,317.998 2348.55,317.998 C2345.42,317.998 2342.79,317.186 2340.64,315.561 C2338.62,313.8 2337.61,311.587 2337.61,308.92 C2337.61,304.555 2339.92,300.389 2344.55,296.42 C2349.17,292.451 2354.18,290.467 2359.58,290.467"/>
<path class="Note" d="M1387.49,752.967 C1390.61,752.967 1393.22,753.748 1395.3,755.311 C1397.38,756.873 1398.42,759.118 1398.42,762.045 C1398.42,766.535 1396.1,770.733 1391.45,774.639 C1386.8,778.545 1381.8,780.498 1376.46,780.498 C1373.33,780.498 1370.7,779.686 1368.55,778.061 C1366.53,776.3 1365.52,774.087 1365.52,771.42 C1365.52,767.056 1367.83,762.889 1372.46,758.92 C1377.08,754.952 1382.09,752.967 1387.49,752.967"/>
<path class="Note" d="M1409.5,1277.97 C1412.62,1277.97 1415.23,1278.75 1417.31,1280.31 C1419.39,1281.87 1420.44,1284.12 1420.44,1287.05 C1420.44,1291.54 1418.11,1295.73 1413.46,1299.64 C1408.81,1303.55 1403.81,1305.5 1398.47,1305.5 C1395.34,1305.5 1392.71,1304.69 1390.56,1303.06 C1388.54,1301.3 1387.53,1299.09 1387.53,1296.42 C1387.53,1292.06 1389.84,1287.89 1394.47,1283.92 C1399.09,1279.95 1404.1,1277.97 1409.5,1277.97"/>
<path class="Clef" d="M203.623,423.858 L203.623,421.717 C203.56,420.613 203.399,418.889 203.139,416.545 C199.889,417.066 196.993,417.326 194.451,417.326 C185.337,417.326 177.605,413.727 171.256,406.529 C164.907,399.331 161.732,390.753 161.732,380.795 C161.732,378.128 162.253,374.923 163.295,371.178 C164.337,367.433 165.297,364.925 166.178,363.654 C167.058,362.384 168.378,360.154 170.139,356.967 C170.659,355.988 172.352,353.837 175.217,350.514 C175.738,349.805 176.193,349.222 176.584,348.764 C176.975,348.305 177.607,347.49 178.482,346.318 C179.357,345.147 180.3,344.055 181.31,343.045 C182.321,342.035 183.217,341.058 183.998,340.115 C184.779,339.173 185.498,338.378 186.154,337.733 C183.81,329.983 182.378,324.024 181.857,319.858 C181.337,315.691 181.076,310.579 181.076,304.522 C181.076,298.464 182.378,292.962 184.982,288.014 C187.514,282.878 191.06,278.68 195.623,275.42 C195.883,275.222 196.225,275.123 196.646,275.123 C197.068,275.123 197.378,275.222 197.576,275.42 C201.087,279.649 204.128,285.149 206.701,291.92 C209.274,298.691 210.56,305.024 210.56,310.92 C210.56,316.816 209.066,322.498 206.076,327.967 C202.691,333.759 198.326,339.748 192.982,345.936 C194.347,350.227 196.17,356.962 198.451,366.139 L199.045,366.139 C199.305,366.076 199.529,366.045 199.717,366.045 C207.081,366.045 213.089,368.634 217.74,373.811 C222.391,378.988 224.717,384.962 224.717,391.733 C224.717,400.128 221.238,406.899 214.279,412.045 C212.258,413.545 209.878,414.717 207.139,415.561 C207.472,419.79 207.639,422.605 207.639,424.006 C207.639,425.407 207.571,427.899 207.435,431.483 C207.373,437.597 205.29,442.837 201.185,447.201 C197.081,451.566 192.394,453.748 187.123,453.748 C181.852,453.748 177.36,451.876 173.646,448.131 C169.933,444.386 168.076,439.847 168.076,434.514 C168.076,431.712 169.154,429.331 171.31,427.373 C173.519,425.425 176.006,424.451 178.771,424.451 C181.537,424.451 183.8,425.462 185.56,427.483 C187.383,429.368 188.295,431.644 188.295,434.311 C188.295,436.977 187.383,439.222 185.56,441.045 C183.738,442.868 181.555,443.779 179.014,443.779 C177.972,443.779 176.967,443.587 175.998,443.201 C178.863,447.43 182.54,449.545 187.029,449.545 C191.519,449.545 195.36,447.691 198.553,443.983 C201.745,440.274 203.342,435.91 203.342,430.889 L203.623,423.858 M206.748,411.561 C210.133,410.321 212.821,408.123 214.81,404.967 C216.8,401.811 217.795,398.67 217.795,395.545 C217.795,390.92 216.199,386.785 213.006,383.139 C209.813,379.493 205.774,377.441 200.889,376.983 C203.691,390.722 205.644,402.248 206.748,411.561 M168.967,388.998 C168.967,395.446 171.537,401.079 176.678,405.897 C181.818,410.714 187.842,413.123 194.748,413.123 C197.477,413.123 200.144,412.925 202.748,412.529 C201.706,402.634 199.654,390.785 196.592,376.983 C192.758,377.378 189.782,378.699 187.662,380.943 C185.542,383.188 184.482,385.743 184.482,388.608 C184.482,393.555 187.123,397.561 192.404,400.623 C192.852,400.884 193.076,401.324 193.076,401.943 C193.076,402.563 192.865,403.1 192.443,403.553 C192.021,404.006 191.649,404.233 191.326,404.233 C191.003,404.233 190.581,404.17 190.06,404.045 C182.435,399.878 178.623,393.592 178.623,385.186 C178.623,381.217 180.024,377.41 182.826,373.764 C185.753,370.118 189.56,367.774 194.248,366.733 C192.425,359.441 190.93,353.743 189.764,349.639 C180.847,359.67 175.31,367.092 173.154,371.904 C170.363,378.154 168.967,383.852 168.967,388.998 M201.576,289.686 C196.691,292.092 192.834,295.574 190.006,300.131 C187.178,304.688 185.764,309.472 185.764,314.483 C185.764,319.493 186.935,325.972 189.279,333.92 C193.967,328.253 197.514,322.946 199.92,317.998 C202.326,313.05 203.529,308.152 203.529,303.303 C203.529,298.454 202.878,293.915 201.576,289.686"/>
<path class="Clef" d="M203.623,898.858 L203.623,896.717 C203.56,895.613 203.399,893.889 203.139,891.545 C199.889,892.066 196.993,892.327 194.451,892.327 C185.337,892.327 177.605,888.728 171.256,881.53 C164.907,874.332 161.732,865.754 161.732,855.795 C161.732,853.129 162.253,849.923 163.295,846.178 C164.337,842.433 165.297,839.926 166.178,838.655 C167.058,837.384 168.378,835.155 170.139,831.967 C170.659,830.988 172.352,828.837 175.217,825.514 C175.738,824.806 176.193,824.222 176.584,823.764 C176.975,823.306 177.607,822.491 178.482,821.319 C179.357,820.147 180.3,819.056 181.31,818.045 C182.321,817.035 183.217,816.058 183.998,815.116 C184.779,814.173 185.498,813.379 186.154,812.733 C183.81,804.983 182.378,799.024 181.857,794.858 C181.337,790.691 181.076,785.579 181.076,779.522 C181.076,773.465 182.378,767.962 184.982,763.014 C187.514,757.879 191.06,753.681 195.623,750.42 C195.883,750.222 196.225,750.123 196.646,750.123 C197.068,750.123 197.378,750.222 197.576,750.42 C201.087,754.649 204.128,760.149 206.701,766.92 C209.274,773.691 210.56,780.024 210.56,785.92 C210.56,791.816 209.066,797.498 206.076,802.967 C202.691,808.759 198.326,814.748 192.982,820.936 C194.347,825.228 196.17,831.962 198.451,841.139 L199.045,841.139 C199.305,841.077 199.529,841.045 199.717,841.045 C207.081,841.045 213.089,843.634 217.74,848.811 C222.391,853.988 224.717,859.962 224.717,866.733 C224.717,875.129 221.238,881.899 214.279,887.045 C212.258,888.545 209.878,889.717 207.139,890.561 C207.472,894.79 207.639,897.605 207.639,899.006 C207.639,900.407 207.571,902.899 207.435,906.483 C207.373,912.597 205.29,917.837 201.185,922.202 C197.081,926.566 192.394,928.748 187.123,928.748 C181.852,928.748 177.36,926.876 173.646,923.131 C169.933,919.386 168.076,914.847 168.076,909.514 C168.076,906.712 169.154,904.332 171.31,902.373 C173.519,900.426 176.006,899.452 178.771,899.452 C181.537,899.452 183.8,900.462 185.56,902.483 C187.383,904.368 188.295,906.644 188.295,909.311 C188.295,911.978 187.383,914.222 185.56,916.045 C183.738,917.868 181.555,918.78 179.014,918.78 C177.972,918.78 176.967,918.587 175.998,918.202 C178.863,922.431 182.54,924.545 187.029,924.545 C191.519,924.545 195.36,922.691 198.553,918.983 C201.745,915.274 203.342,910.91 203.342,905.889 L203.623,898.858 M206.748,886.561 C210.133,885.321 212.821,883.123 214.81,879.967 C216.8,876.811 217.795,873.67 217.795,870.545 C217.795,865.92 216.199,861.785 213.006,858.139 C209.813,854.493 205.774,852.441 200.889,851.983 C203.691,865.722 205.644,877.248 206.748,886.561 M168.967,863.998 C168.967,870.446 171.537,876.079 176.678,880.897 C181.818,885.715 187.842,888.123 194.748,888.123 C197.477,888.123 200.144,887.926 202.748,887.53 C201.706,877.634 199.654,865.785 196.592,851.983 C192.758,852.379 189.782,853.699 187.662,855.944 C185.542,858.189 184.482,860.743 184.482,863.608 C184.482,868.556 187.123,872.561 192.404,875.623 C192.852,875.884 193.076,876.324 193.076,876.944 C193.076,877.564 192.865,878.1 192.443,878.553 C192.021,879.006 191.649,879.233 191.326,879.233 C191.003,879.233 190.581,879.17 190.06,879.045 C182.435,874.879 178.623,868.592 178.623,860.186 C178.623,856.217 180.024,852.41 182.826,848.764 C185.753,845.118 189.56,842.774 194.248,841.733 C192.425,834.441 190.93,828.743 189.764,824.639 C180.847,834.67 175.31,842.092 173.154,846.905 C170.363,853.155 168.967,858.853 168.967,863.998 M201.576,764.686 C196.691,767.092 192.834,770.574 190.006,775.131 C187.178,779.689 185.764,784.472 185.764,789.483 C185.764,794.493 186.935,800.972 189.279,808.92 C193.967,803.254 197.514,797.946 199.92,792.998 C202.326,788.051 203.529,783.152 203.529,778.303 C203.529,773.454 202.878,768.915 201.576,764.686"/>
<path class="Clef" d="M203.623,1373.86 L203.623,1371.72 C203.56,1370.61 203.399,1368.89 203.139,1366.55 C199.889,1367.07 196.993,1367.33 194.451,1367.33 C185.337,1367.33 177.605,1363.73 171.256,1356.53 C164.907,1349.33 161.732,1340.75 161.732,1330.8 C161.732,1328.13 162.253,1324.92 163.295,1321.18 C164.337,1317.43 165.297,1314.93 166.178,1313.65 C167.058,1312.38 168.378,1310.15 170.139,1306.97 C170.659,1305.99 172.352,1303.84 175.217,1300.51 C175.738,1299.81 176.193,1299.22 176.584,1298.76 C176.975,1298.31 177.607,1297.49 178.482,1296.32 C179.357,1295.15 180.3,1294.06 181.31,1293.05 C182.321,1292.04 183.217,1291.06 183.998,1290.12 C184.779,1289.17 185.498,1288.38 186.154,1287.73 C183.81,1279.98 182.378,1274.02 181.857,1269.86 C181.337,1265.69 181.076,1260.58 181.076,1254.52 C181.076,1248.46 182.378,1242.96 184.982,1238.01 C187.514,1232.88 191.06,1228.68 195.623,1225.42 C195.883,1225.22 196.225,1225.12 196.646,1225.12 C197.068,1225.12 197.378,1225.22 197.576,1225.42 C201.087,1229.65 204.128,1235.15 206.701,1241.92 C209.274,1248.69 210.56,1255.02 210.56,1260.92 C210.56,1266.82 209.066,1272.5 206.076,1277.97 C202.691,1283.76 198.326,1289.75 192.982,1295.94 C194.347,1300.23 196.17,1306.96 198.451,1316.14 L199.045,1316.14 C199.305,1316.08 199.529,1316.05 199.717,1316.05 C207.081,1316.05 213.089,1318.63 217.74,1323.81 C222.391,1328.99 224.717,1334.96 224.717,1341.73 C224.717,1350.13 221.238,1356.9 214.279,1362.05 C212.258,1363.55 209.878,1364.72 207.139,1365.56 C207.472,1369.79 207.639,1372.61 207.639,1374.01 C207.639,1375.41 207.571,1377.9 207.435,1381.48 C207.373,1387.6 205.29,1392.84 201.185,1397.2 C197.081,1401.57 192.394,1403.75 187.123,1403.75 C181.852,1403.75 177.36,1401.88 173.646,1398.13 C169.933,1394.39 168.076,1389.85 168.076,1384.51 C168.076,1381.71 169.154,1379.33 171.31,1377.37 C173.519,1375.43 176.006,1374.45 178.771,1374.45 C181.537,1374.45 183.8,1375.46 185.56,1377.48 C187.383,1379.37 188.295,1381.64 188.295,1384.31 C188.295,1386.98 187.383,1389.22 185.56,1391.05 C183.738,1392.87 181.555,1393.78 179.014,1393.78 C177.972,1393.78 176.967,1393.59 175.998,1393.2 C178.863,1397.43 182.54,1399.55 187.029,1399.55 C191.519,1399.55 195.36,1397.69 198.553,1393.98 C201.745,1390.27 203.342,1385.91 203.342,1380.89 L203.623,1373.86 M206.748,1361.56 C210.133,1360.32 212.821,1358.12 214.81,1354.97 C216.8,1351.81 217.795,1348.67 217.795,1345.55 C217.795,1340.92 216.199,1336.79 213.006,1333.14 C209.813,1329.49 205.774,1327.44 200.889,1326.98 C203.691,1340.72 205.644,1352.25 206.748,1361.56 M168.967,1339 C168.967,1345.45 171.537,1351.08 176.678,1355.9 C181.818,1360.71 187.842,1363.12 194.748,1363.12 C197.477,1363.12 200.144,1362.93 202.748,1362.53 C201.706,1352.63 199.654,1340.79 196.592,1326.98 C192.758,1327.38 189.782,1328.7 187.662,1330.94 C185.542,1333.19 184.482,1335.74 184.482,1338.61 C184.482,1343.56 187.123,1347.56 192.404,1350.62 C192.852,1350.88 193.076,1351.32 193.076,1351.94 C193.076,1352.56 192.865,1353.1 192.443,1353.55 C192.021,1354.01 191.649,1354.23 191.326,1354.23 C191.003,1354.23 190.581,1354.17 190.06,1354.05 C182.435,1349.88 178.623,1343.59 178.623,1335.19 C178.623,1331.22 180.024,1327.41 182.826,1323.76 C185.753,1320.12 189.56,1317.77 194.248,1316.73 C192.425,1309.44 190.93,1303.74 189.764,1299.64 C180.847,1309.67 175.31,1317.09 173.154,1321.9 C170.363,1328.15 168.967,1333.85 168.967,1339 M201.576,1239.69 C196.691,1242.09 192.834,1245.57 190.006,1250.13 C187.178,1254.69 185.764,1259.47 185.764,1264.48 C185.764,1269.49 186.935,1275.97 189.279,1283.92 C193.967,1278.25 197.514,1272.95 199.92,1268 C202.326,1263.05 203.529,1258.15 203.529,1253.3 C203.529,1248.45 202.878,1243.92 201.576,1239.69"/>
<path class="TimeSig" d="M273.021,317.912 C274.516,317.912 275.949,317.686 277.318,317.232 C278.688,316.779 279.665,316.553 280.248,316.553 C280.831,316.553 281.222,316.907 281.42,317.615 C281.42,317.688 281.352,317.886 281.217,318.209 L252.811,351.225 L269.498,351.225 L269.498,338.131 C269.498,336.506 270.446,335.334 272.342,334.615 C274.29,333.897 276.503,331.001 278.982,325.928 C279.17,325.532 279.462,325.334 279.857,325.334 C280.639,325.334 281.092,325.792 281.217,326.709 L281.217,351.225 L288.357,351.225 C289.264,351.225 289.751,351.712 289.818,352.686 C289.886,353.66 289.399,354.147 288.357,354.147 L281.217,354.147 L281.217,354.928 C281.217,357.532 281.868,359.746 283.17,361.568 C284.67,363.391 286.43,364.303 288.451,364.303 C289.232,364.303 289.623,364.693 289.623,365.475 C289.623,366.256 289.087,366.647 288.014,366.647 C286.941,366.647 284.938,366.436 282.006,366.014 C279.074,365.592 276.811,365.381 275.217,365.381 C273.623,365.381 271.41,365.592 268.576,366.014 C265.743,366.436 263.613,366.647 262.186,366.647 C261.404,366.647 261.014,366.256 261.014,365.475 C261.014,364.693 261.404,364.303 262.186,364.303 C264.196,364.303 265.951,363.391 267.451,361.568 C268.816,359.683 269.498,357.469 269.498,354.928 L269.498,354.147 L252.811,354.147 C251.956,354.147 251.219,353.92 250.6,353.467 C249.98,353.014 249.67,352.592 249.67,352.201 C249.67,351.811 250.485,350.639 252.115,348.686 C253.745,346.732 256.074,342.972 259.1,337.404 C262.126,331.837 263.639,325.438 263.639,318.209 C263.639,317.167 264.097,316.647 265.014,316.647 C265.212,316.647 265.521,316.712 265.943,316.842 C266.365,316.972 267.277,317.183 268.678,317.475 C270.079,317.766 271.527,317.912 273.021,317.912"/>
<path class="TimeSig" d="M273.021,368.084 C274.516,368.084 275.949,367.858 277.318,367.404 C278.688,366.951 279.665,366.725 280.248,366.725 C280.831,366.725 281.222,367.079 281.42,367.787 C281.42,367.86 281.352,368.058 281.217,368.381 L252.811,401.397 L269.498,401.397 L269.498,388.303 C269.498,386.678 270.446,385.506 272.342,384.787 C274.29,384.068 276.503,381.173 278.982,376.1 C279.17,375.704 279.462,375.506 279.857,375.506 C280.639,375.506 281.092,375.964 281.217,376.881 L281.217,401.397 L288.357,401.397 C289.264,401.397 289.751,401.884 289.818,402.858 C289.886,403.831 289.399,404.318 288.357,404.318 L281.217,404.318 L281.217,405.1 C281.217,407.704 281.868,409.917 283.17,411.74 C284.67,413.563 286.43,414.475 288.451,414.475 C289.232,414.475 289.623,414.865 289.623,415.647 C289.623,416.428 289.087,416.818 288.014,416.818 C286.941,416.818 284.938,416.608 282.006,416.186 C279.074,415.764 276.811,415.553 275.217,415.553 C273.623,415.553 271.41,415.764 268.576,416.186 C265.743,416.608 263.613,416.818 262.186,416.818 C261.404,416.818 261.014,416.428 261.014,415.647 C261.014,414.865 261.404,414.475 262.186,414.475 C264.196,414.475 265.951,413.563 267.451,411.74 C268.816,409.855 269.498,407.641 269.498,405.1 L269.498,404.318 L252.811,404.318 C251.956,404.318 251.219,404.092 250.6,403.639 C249.98,403.186 249.67,402.764 249.67,402.373 C249.67,401.983 250.485,400.811 252.115,398.858 C253.745,396.904 256.074,393.144 259.1,387.576 C262.126,382.009 263.639,375.61 263.639,368.381 C263.639,367.339 264.097,366.818 265.014,366.818 C265.212,366.818 265.521,366.884 265.943,367.014 C266.365,367.144 267.277,367.355 268.678,367.647 C270.079,367.938 271.527,368.084 273.021,368.084"/>
<path class="Rest" d="M1869.45,359.108 C1865.28,360.608 1861.9,361.358 1859.3,361.358 C1856.69,361.358 1854.52,360.626 1852.8,359.162 C1851.07,357.699 1850.2,355.876 1850.2,353.693 C1850.2,351.511 1850.92,349.719 1852.35,348.318 C1853.78,346.917 1855.48,346.217 1857.43,346.217 C1859.38,346.217 1860.85,346.772 1861.83,347.881 C1862.81,348.99 1863.34,350.05 1863.44,351.061 C1863.54,352.071 1863.85,353.191 1864.37,354.42 C1864.96,355.462 1865.65,355.983 1866.47,355.983 C1867.28,355.983 1868.37,355.219 1869.74,353.693 C1871.11,352.167 1872.02,350.964 1872.48,350.084 C1872.93,349.204 1873.48,348.779 1874.13,348.811 C1874.78,348.842 1875.24,349.149 1875.5,349.733 L1863.2,391.733 C1862.55,392.389 1861.63,392.717 1860.46,392.717 C1859.29,392.717 1858.38,392.389 1857.73,391.733 L1869.45,359.108 "/>
<path class="Rest" d="M2611.31,834.108 C2607.15,835.608 2603.76,836.358 2601.16,836.358 C2598.55,836.358 2596.39,835.626 2594.66,834.162 C2592.93,832.699 2592.06,830.876 2592.06,828.694 C2592.06,826.511 2592.78,824.72 2594.21,823.319 C2595.64,821.918 2597.34,821.217 2599.29,821.217 C2601.24,821.217 2602.71,821.772 2603.69,822.881 C2604.67,823.991 2605.21,825.051 2605.3,826.061 C2605.4,827.071 2605.71,828.191 2606.23,829.42 C2606.82,830.462 2607.52,830.983 2608.33,830.983 C2609.14,830.983 2610.23,830.22 2611.6,828.694 C2612.97,827.168 2613.88,825.965 2614.34,825.084 C2614.79,824.204 2615.34,823.78 2615.99,823.811 C2616.64,823.842 2617.1,824.149 2617.36,824.733 L2605.06,866.733 C2604.41,867.389 2603.49,867.717 2602.32,867.717 C2601.15,867.717 2600.24,867.389 2599.59,866.733 L2611.31,834.108 "/>
<path class="Rest" d="M883.141,834.108 C878.974,835.608 875.588,836.358 872.984,836.358 C870.38,836.358 868.213,835.626 866.484,834.162 C864.755,832.699 863.891,830.876 863.891,828.694 C863.891,826.511 864.607,824.72 866.039,823.319 C867.471,821.918 869.164,821.217 871.117,821.217 C873.07,821.217 874.536,821.772 875.516,822.881 C876.495,823.991 877.034,825.051 877.133,826.061 C877.232,827.071 877.542,828.191 878.062,829.42 C878.646,830.462 879.344,830.983 880.156,830.983 C880.969,830.983 882.06,830.22 883.43,828.694 C884.799,827.168 885.711,825.965 886.164,825.084 C886.617,824.204 887.169,823.78 887.82,823.811 C888.471,823.842 888.927,824.149 889.187,824.733 L876.891,866.733 C876.234,867.389 875.32,867.717 874.148,867.717 C872.977,867.717 872.068,867.389 871.422,866.733 L883.141,834.108 "/>
<path class="Rest" d="M2554.85,1307.36 L2519.3,1307.36 C2518.64,1307.36 2518.31,1307.04 2518.31,1306.39 L2518.31,1292.72 C2518.31,1292.06 2518.64,1291.73 2519.3,1291.73 L2554.85,1291.73 C2555.49,1291.73 2555.81,1292.06 2555.81,1292.72 L2555.81,1306.39 C2555.81,1307.04 2555.49,1307.36 2554.85,1307.36"/>
<path class="Rest" d="M358.826,359.108 C354.66,360.608 351.274,361.358 348.67,361.358 C346.066,361.358 343.899,360.626 342.17,359.162 C340.441,357.699 339.576,355.876 339.576,353.693 C339.576,351.511 340.292,349.719 341.725,348.318 C343.157,346.917 344.85,346.217 346.803,346.217 C348.756,346.217 350.222,346.772 351.201,347.881 C352.18,348.99 352.719,350.05 352.818,351.061 C352.917,352.071 353.227,353.191 353.748,354.42 C354.331,355.462 355.029,355.983 355.842,355.983 C356.654,355.983 357.746,355.219 359.115,353.693 C360.485,352.167 361.397,350.964 361.85,350.084 C362.303,349.204 362.855,348.779 363.506,348.811 C364.157,348.842 364.613,349.149 364.873,349.733 L352.576,391.733 C351.92,392.389 351.006,392.717 349.834,392.717 C348.662,392.717 347.753,392.389 347.107,391.733 L358.826,359.108 "/>
<path class="Beam" fill-rule="evenodd" d="M1901.07,429.221 L2005.47,422.971 L2005.47,435.494 L1901.07,441.744 L1901.07,429.221 "/>
<path class="Beam" fill-rule="evenodd" d="M2672.41,429.221 L2776.8,422.971 L2776.8,435.494 L2672.41,441.744 L2672.41,429.221 "/>
<path class="Beam" fill-rule="evenodd" d="M2475.1,410.441 L2528.92,416.691 L2528.92,429.275 L2475.1,423.025 L2475.1,410.441 "/>
<path class="Beam" fill-rule="evenodd" d="M2235.87,404.233 L2391.43,404.233 L2391.43,416.733 L2235.87,416.733 L2235.87,404.233 "/>
<path class="Beam" fill-rule="evenodd" d="M725.246,404.233 L880.806,404.233 L880.806,416.733 L725.246,416.733 L725.246,404.233 "/>
<path class="Beam" fill-rule="evenodd" d="M1161.78,416.688 L1266.18,404.188 L1266.18,416.777 L1161.78,429.277 L1161.78,416.688 "/>
<path class="Beam" fill-rule="evenodd" d="M1834.91,1391.73 L2089.18,1391.73 L2089.18,1404.23 L1834.91,1404.23 L1834.91,1391.73 "/>
<path class="Beam" fill-rule="evenodd" d="M1497.17,416.733 L1652.14,416.733 L1652.14,429.233 L1497.17,429.233 L1497.17,416.733 "/>
<path class="Beam" fill-rule="evenodd" d="M964.47,410.441 L1018.29,416.691 L1018.29,429.275 L964.47,423.025 L964.47,410.441 "/>
<path class="Beam" fill-rule="evenodd" d="M390.446,429.221 L494.843,422.971 L494.843,435.494 L390.446,441.744 L390.446,429.221 "/>
<path class="Beam" fill-rule="evenodd" d="M1500.21,1354.23 L1754.48,1354.23 L1754.48,1366.73 L1500.21,1366.73 L1500.21,1354.23 "/>
<path class="Beam" fill-rule="evenodd" d="M460.677,885.45 L643.259,904.2 L643.259,916.766 L460.677,898.016 L460.677,885.45 "/>
<path class="Beam" fill-rule="evenodd" d="M923.965,841.701 L1046.77,829.2 L1046.77,841.765 L923.965,854.265 L923.965,841.701 "/>
<path class="Beam" fill-rule="evenodd" d="M1305.74,854.218 L1488.32,866.718 L1488.32,879.247 L1305.74,866.747 L1305.74,854.218 "/>
<path class="Beam" fill-rule="evenodd" d="M1573.85,860.452 L1636.88,866.702 L1636.88,879.263 L1573.85,873.013 L1573.85,860.452 "/>
<path class="Beam" fill-rule="evenodd" d="M1807.07,841.701 L1929.88,829.2 L1929.88,841.765 L1807.07,854.265 L1807.07,841.701 "/>
<path class="Beam" fill-rule="evenodd" d="M1220.18,1379.23 L1390.78,1372.98 L1390.78,1385.49 L1220.18,1391.74 L1220.18,1379.23 "/>
<path class="Beam" fill-rule="evenodd" d="M2188.85,854.218 L2371.43,866.718 L2371.43,879.247 L2188.85,866.747 L2188.85,854.218 "/>
<path class="Beam" fill-rule="evenodd" d="M2652.14,854.233 L2774.94,854.233 L2774.94,866.733 L2652.14,866.733 L2652.14,854.233 "/>
<path class="Beam" fill-rule="evenodd" d="M893.719,1329.17 L980.644,1341.67 L980.644,1354.3 L893.719,1341.8 L893.719,1329.17 "/>
<path class="Beam" fill-rule="evenodd" d="M530.017,1310.48 L784.293,1310.48 L784.293,1322.98 L530.017,1322.98 L530.017,1310.48 "/>
<path class="NoteDot" d="M621.835,333.24 C620.726,332.131 620.171,330.795 620.171,329.232 C620.171,327.67 620.726,326.334 621.835,325.225 C622.945,324.115 624.28,323.561 625.843,323.561 C627.405,323.561 628.739,324.115 629.843,325.225 C630.947,326.334 631.499,327.67 631.499,329.232 C631.499,330.795 630.947,332.131 629.843,333.24 C628.739,334.35 627.405,334.904 625.843,334.904 C624.28,334.904 622.945,334.35 621.835,333.24"/>
<path class="NoteDot" d="M330.561,1183.24 C329.451,1182.13 328.897,1180.8 328.897,1179.23 C328.897,1177.67 329.451,1176.33 330.561,1175.23 C331.67,1174.12 333.006,1173.56 334.568,1173.56 C336.131,1173.56 337.464,1174.12 338.568,1175.23 C339.673,1176.33 340.225,1177.67 340.225,1179.23 C340.225,1180.8 339.673,1182.13 338.568,1183.24 C337.464,1184.35 336.131,1184.9 334.568,1184.9 C333.006,1184.9 331.67,1184.35 330.561,1183.24"/>
<path class="NoteDot" d="M1108.95,383.24 C1107.84,382.131 1107.28,380.795 1107.28,379.233 C1107.28,377.67 1107.84,376.334 1108.95,375.225 C1110.05,374.115 1111.39,373.561 1112.95,373.561 C1114.52,373.561 1115.85,374.115 1116.95,375.225 C1118.06,376.334 1118.61,377.67 1118.61,379.233 C1118.61,380.795 1118.06,382.131 1116.95,383.24 C1115.85,384.35 1114.52,384.904 1112.95,384.904 C1111.39,384.904 1110.05,384.35 1108.95,383.24"/>
<path class="NoteDot" d="M1393.17,308.24 C1392.06,307.131 1391.51,305.795 1391.51,304.232 C1391.51,302.67 1392.06,301.334 1393.17,300.225 C1394.28,299.115 1395.62,298.561 1397.18,298.561 C1398.74,298.561 1400.07,299.115 1401.18,300.225 C1402.28,301.334 1402.84,302.67 1402.84,304.232 C1402.84,305.795 1402.28,307.131 1401.18,308.24 C1400.07,309.35 1398.74,309.904 1397.18,309.904 C1395.62,309.904 1394.28,309.35 1393.17,308.24"/>
<path class="NoteDot" d="M2132.46,333.24 C2131.35,332.131 2130.8,330.795 2130.8,329.232 C2130.8,327.67 2131.35,326.334 2132.46,325.225 C2133.57,324.115 2134.91,323.561 2136.47,323.561 C2138.03,323.561 2139.36,324.115 2140.47,325.225 C2141.57,326.334 2142.12,327.67 2142.12,329.232 C2142.12,330.795 2141.57,332.131 2140.47,333.24 C2139.36,334.35 2138.03,334.904 2136.47,334.904 C2134.91,334.904 2133.57,334.35 2132.46,333.24"/>
<path class="NoteDot" d="M2619.57,383.24 C2618.46,382.131 2617.91,380.795 2617.91,379.233 C2617.91,377.67 2618.46,376.334 2619.57,375.225 C2620.68,374.115 2622.02,373.561 2623.58,373.561 C2625.14,373.561 2626.47,374.115 2627.58,375.225 C2628.68,376.334 2629.23,377.67 2629.23,379.233 C2629.23,380.795 2628.68,382.131 2627.58,383.24 C2626.47,384.35 2625.14,384.904 2623.58,384.904 C2622.02,384.904 2620.68,384.35 2619.57,383.24"/>
<path class="NoteDot" d="M330.561,808.241 C329.451,807.131 328.897,805.795 328.897,804.233 C328.897,802.67 329.451,801.334 330.561,800.225 C331.67,799.116 333.006,798.561 334.568,798.561 C336.131,798.561 337.464,799.116 338.568,800.225 C339.673,801.334 340.225,802.67 340.225,804.233 C340.225,805.795 339.673,807.131 338.568,808.241 C337.464,809.35 336.131,809.905 334.568,809.905 C333.006,809.905 331.67,809.35 330.561,808.241"/>
<path class="NoteDot" d="M1175.62,733.241 C1174.52,732.131 1173.96,730.795 1173.96,729.233 C1173.96,727.67 1174.52,726.334 1175.62,725.225 C1176.73,724.116 1178.07,723.561 1179.63,723.561 C1181.2,723.561 1182.53,724.116 1183.63,725.225 C1184.74,726.334 1185.29,727.67 1185.29,729.233 C1185.29,730.795 1184.74,732.131 1183.63,733.241 C1182.53,734.35 1181.2,734.905 1179.63,734.905 C1178.07,734.905 1176.73,734.35 1175.62,733.241"/>
<path class="NoteDot" d="M1736.73,833.241 C1735.62,832.131 1735.07,830.795 1735.07,829.233 C1735.07,827.67 1735.62,826.334 1736.73,825.225 C1737.84,824.116 1739.18,823.561 1740.74,823.561 C1742.3,823.561 1743.64,824.116 1744.74,825.225 C1745.85,826.334 1746.4,827.67 1746.4,829.233 C1746.4,830.795 1745.85,832.131 1744.74,833.241 C1743.64,834.35 1742.3,834.905 1740.74,834.905 C1739.18,834.905 1737.84,834.35 1736.73,833.241"/>
<path class="NoteDot" d="M2058.73,733.241 C2057.62,732.131 2057.07,730.795 2057.07,729.233 C2057.07,727.67 2057.62,726.334 2058.73,725.225 C2059.84,724.116 2061.18,723.561 2062.74,723.561 C2064.3,723.561 2065.64,724.116 2066.74,725.225 C2067.84,726.334 2068.4,727.67 2068.4,729.233 C2068.4,730.795 2067.84,732.131 2066.74,733.241 C2065.64,734.35 2064.3,734.905 2062.74,734.905 C2061.18,734.905 2059.84,734.35 2058.73,733.241"/>
<path class="NoteDot" d="M1104.4,1308.24 C1103.29,1307.13 1102.73,1305.8 1102.73,1304.23 C1102.73,1302.67 1103.29,1301.33 1104.4,1300.23 C1105.51,1299.12 1106.84,1298.56 1108.41,1298.56 C1109.97,1298.56 1111.3,1299.12 1112.41,1300.23 C1113.51,1301.33 1114.06,1302.67 1114.06,1304.23 C1114.06,1305.8 1113.51,1307.13 1112.41,1308.24 C1111.3,1309.35 1109.97,1309.9 1108.41,1309.9 C1106.84,1309.9 1105.51,1309.35 1104.4,1308.24"/>
</svg>
