<?xml version="1.0" encoding="UTF-8" standalone="no"?>
<svg width="2977.2px" height="4208.4px" viewBox="0 0 2977.2 4208.4"
 xmlns="http://www.w3.org/2000/svg" xmlns:xlink="http://www.w3.org/1999/xlink" version="1.2" baseProfile="tiny">
<title>E_Minor_Arpeggio.mscx</title>
<desc>Generated by MuseScore Studio 4.3.1</desc>
<path class="" fill="#ffffff" fill-rule="evenodd" d="M0,0 L2977.2,0 L2977.2,4208.4 L0,4208.4 L0,0 "/>
<polyline class="StaffLines" fill="none" stroke="#000000" stroke-width="2.00" stroke-linejoin="bevel" points="141.732,566.733 2835.47,566.733"/>
<polyline class="StaffLines" fill="none" stroke="#000000" stroke-width="2.00" stroke-linejoin="bevel" points="141.732,591.733 2835.47,591.733"/>
<polyline class="StaffLines" fill="none" stroke="#000000" stroke-width="2.00" stroke-linejoin="bevel" points="141.732,616.733 2835.47,616.733"/>
<polyline class="StaffLines" fill="none" stroke="#000000" stroke-width="2.00" stroke-linejoin="bevel" points="141.732,641.733 2835.47,641.733"/>
<polyline class="StaffLines" fill="none" stroke="#000000" stroke-width="2.00" stroke-linejoin="bevel" points="141.732,666.733 2835.47,666.733"/>
<polyline class="BarLine" fill="none" stroke="#000000" stroke-width="4.00" stroke-linejoin="bevel" points="2180.03,565.733 2180.03,667.733"/>
<polyline class="BarLine" fill="none" stroke="#000000" stroke-width="4.00" stroke-linejoin="bevel" points="1557.34,565.733 1557.34,667.733"/>
<polyline class="BarLine" fill="none" stroke="#000000" stroke-width="4.00" stroke-linejoin="bevel" points="2802.72,565.733 2802.72,667.733"/>
<polyline class="BarLine" fill="none" stroke="#000000" stroke-width="12.50" stroke-linejoin="bevel" points="2829.22,565.733 2829.22,667.733"/>
<polyline class="BarLine" fill="none" stroke="#000000" stroke-width="4.00" stroke-linejoin="bevel" points="934.658,565.733 934.658,667.733"/>
<polyline class="Stem" fill="none" stroke="#000000" stroke-width="3.25" stroke-linejoin="bevel" points="1585.97,621.633 1585.97,691.733"/>
<polyline class="Stem" fill="none" stroke="#000000" stroke-width="3.25" stroke-linejoin="bevel" points="963.283,621.633 963.283,691.733"/>
<polyline class="Stem" fill="none" stroke="#000000" stroke-width="3.25" stroke-linejoin="bevel" points="1913.83,636.933 1913.83,554.233"/>
<polyline class="Stem" fill="none" stroke="#000000" stroke-width="3.25" stroke-linejoin="bevel" points="668.457,636.933 668.457,554.233"/>
<polyline class="Stem" fill="none" stroke="#000000" stroke-width="3.25" stroke-linejoin="bevel" points="372.065,661.933 372.065,579.233"/>
<polyline class="Stem" fill="none" stroke="#000000" stroke-width="3.25" stroke-linejoin="bevel" points="2240.13,661.933 2240.13,579.233"/>
<path class="Note" d="M1591.77,627.373 C1593.65,627.373 1597.61,625.42 1603.63,621.514 C1609.66,617.608 1613.21,614.988 1614.28,613.655 C1615.35,612.321 1615.89,611.134 1615.89,610.092 C1615.89,609.05 1615.47,608.123 1614.62,607.311 C1613.77,606.498 1612.79,606.092 1611.69,606.092 C1609.74,606.092 1605.75,608.061 1599.73,611.998 C1593.7,615.936 1590.17,618.556 1589.13,619.858 C1588.08,621.16 1587.56,622.332 1587.56,623.373 C1587.56,624.415 1587.97,625.342 1588.79,626.155 C1589.61,626.967 1590.6,627.373 1591.77,627.373 M1610.72,602.967 C1616.31,602.967 1619.11,605.373 1619.11,610.186 C1619.11,612.53 1618.43,615.248 1617.06,618.342 C1615.7,621.436 1613.88,623.795 1611.59,625.42 C1606.58,628.806 1600.3,630.498 1592.75,630.498 C1587.15,630.498 1584.34,628.092 1584.34,623.28 C1584.34,621.134 1585.01,618.464 1586.34,615.272 C1587.68,612.079 1589.52,609.67 1591.86,608.045 C1596.88,604.66 1603.17,602.967 1610.72,602.967"/>
<path class="Note" d="M1888.16,652.373 C1890.04,652.373 1894,650.42 1900.03,646.514 C1906.05,642.608 1909.6,639.988 1910.67,638.655 C1911.75,637.321 1912.28,636.134 1912.28,635.092 C1912.28,634.05 1911.86,633.123 1911.01,632.311 C1910.16,631.498 1909.18,631.092 1908.08,631.092 C1906.13,631.092 1902.15,633.061 1896.12,636.998 C1890.09,640.936 1886.56,643.556 1885.52,644.858 C1884.48,646.16 1883.96,647.332 1883.96,648.373 C1883.96,649.415 1884.36,650.342 1885.18,651.155 C1886,651.967 1886.99,652.373 1888.16,652.373 M1907.11,627.967 C1912.71,627.967 1915.5,630.373 1915.5,635.186 C1915.5,637.53 1914.82,640.248 1913.46,643.342 C1912.09,646.436 1910.27,648.795 1907.99,650.42 C1902.98,653.806 1896.7,655.498 1889.14,655.498 C1883.54,655.498 1880.74,653.092 1880.74,648.28 C1880.74,646.134 1881.4,643.464 1882.74,640.272 C1884.07,637.079 1885.91,634.67 1888.25,633.045 C1893.27,629.66 1899.56,627.967 1907.11,627.967"/>
<path class="Note" d="M2214.45,677.373 C2216.34,677.373 2220.29,675.42 2226.32,671.514 C2232.35,667.608 2235.9,664.988 2236.97,663.655 C2238.04,662.321 2238.58,661.134 2238.58,660.092 C2238.58,659.05 2238.15,658.123 2237.3,657.311 C2236.46,656.498 2235.48,656.092 2234.38,656.092 C2232.43,656.092 2228.44,658.061 2222.41,661.998 C2216.39,665.936 2212.85,668.556 2211.81,669.858 C2210.77,671.16 2210.25,672.332 2210.25,673.373 C2210.25,674.415 2210.66,675.342 2211.48,676.155 C2212.29,676.967 2213.29,677.373 2214.45,677.373 M2233.41,652.967 C2239,652.967 2241.8,655.373 2241.8,660.186 C2241.8,662.53 2241.11,665.248 2239.75,668.342 C2238.39,671.436 2236.56,673.795 2234.28,675.42 C2229.27,678.806 2222.99,680.498 2215.44,680.498 C2209.83,680.498 2207.03,678.092 2207.03,673.28 C2207.03,671.134 2207.7,668.464 2209.03,665.272 C2210.36,662.079 2212.2,659.67 2214.55,658.045 C2219.57,654.66 2225.85,652.967 2233.41,652.967"/>
<path class="Note" d="M969.08,627.373 C970.965,627.373 974.921,625.42 980.947,621.514 C986.973,617.608 990.522,614.988 991.595,613.655 C992.668,612.321 993.205,611.134 993.205,610.092 C993.205,609.05 992.78,608.123 991.931,607.311 C991.082,606.498 990.106,606.092 989.001,606.092 C987.053,606.092 983.067,608.061 977.04,611.998 C971.014,615.936 967.481,618.556 966.439,619.858 C965.397,621.16 964.876,622.332 964.876,623.373 C964.876,624.415 965.285,625.342 966.103,626.155 C966.921,626.967 967.913,627.373 969.08,627.373 M988.033,602.967 C993.626,602.967 996.423,605.373 996.423,610.186 C996.423,612.53 995.741,615.248 994.376,618.342 C993.012,621.436 991.189,623.795 988.908,625.42 C983.897,628.806 977.616,630.498 970.064,630.498 C964.46,630.498 961.658,628.092 961.658,623.28 C961.658,621.134 962.324,618.464 963.658,615.272 C964.991,612.079 966.83,609.67 969.173,608.045 C974.194,604.66 980.481,602.967 988.033,602.967"/>
<path class="Note" d="M642.785,652.373 C644.67,652.373 648.626,650.42 654.652,646.514 C660.678,642.608 664.228,639.988 665.301,638.655 C666.373,637.321 666.91,636.134 666.91,635.092 C666.91,634.05 666.485,633.123 665.636,632.311 C664.788,631.498 663.811,631.092 662.707,631.092 C660.759,631.092 656.772,633.061 650.746,636.998 C644.72,640.936 641.186,643.556 640.144,644.858 C639.103,646.16 638.582,647.332 638.582,648.373 C638.582,649.415 638.991,650.342 639.808,651.155 C640.626,651.967 641.618,652.373 642.785,652.373 M661.738,627.967 C667.332,627.967 670.129,630.373 670.129,635.186 C670.129,637.53 669.446,640.248 668.082,643.342 C666.717,646.436 664.894,648.795 662.613,650.42 C657.603,653.806 651.321,655.498 643.769,655.498 C638.165,655.498 635.363,653.092 635.363,648.28 C635.363,646.134 636.03,643.464 637.363,640.272 C638.696,637.079 640.535,634.67 642.879,633.045 C647.899,629.66 654.186,627.967 661.738,627.967"/>
<path class="Note" d="M346.393,677.373 C348.278,677.373 352.234,675.42 358.26,671.514 C364.286,667.608 367.835,664.988 368.908,663.655 C369.981,662.321 370.518,661.134 370.518,660.092 C370.518,659.05 370.093,658.123 369.244,657.311 C368.395,656.498 367.419,656.092 366.315,656.092 C364.367,656.092 360.38,658.061 354.354,661.998 C348.328,665.936 344.794,668.556 343.752,669.858 C342.71,671.16 342.19,672.332 342.19,673.373 C342.19,674.415 342.598,675.342 343.416,676.155 C344.234,676.967 345.226,677.373 346.393,677.373 M365.346,652.967 C370.94,652.967 373.736,655.373 373.736,660.186 C373.736,662.53 373.054,665.248 371.69,668.342 C370.325,671.436 368.502,673.795 366.221,675.42 C361.21,678.806 354.929,680.498 347.377,680.498 C341.773,680.498 338.971,678.092 338.971,673.28 C338.971,671.134 339.637,668.464 340.971,665.272 C342.304,662.079 344.143,659.67 346.486,658.045 C351.507,654.66 357.794,652.967 365.346,652.967"/>
<path class="Clef" d="M203.623,673.858 L203.623,671.717 C203.56,670.613 203.399,668.889 203.139,666.545 C199.889,667.066 196.993,667.326 194.451,667.326 C185.337,667.326 177.605,663.727 171.256,656.53 C164.907,649.332 161.732,640.754 161.732,630.795 C161.732,628.129 162.253,624.923 163.295,621.178 C164.337,617.433 165.297,614.925 166.178,613.655 C167.058,612.384 168.378,610.155 170.139,606.967 C170.659,605.988 172.352,603.837 175.217,600.514 C175.738,599.806 176.193,599.222 176.584,598.764 C176.975,598.306 177.607,597.49 178.482,596.319 C179.357,595.147 180.3,594.056 181.31,593.045 C182.321,592.035 183.217,591.058 183.998,590.115 C184.779,589.173 185.498,588.379 186.154,587.733 C183.81,579.983 182.378,574.024 181.857,569.858 C181.337,565.691 181.076,560.579 181.076,554.522 C181.076,548.464 182.378,542.962 184.982,538.014 C187.514,532.879 191.06,528.681 195.623,525.42 C195.883,525.222 196.225,525.123 196.646,525.123 C197.068,525.123 197.378,525.222 197.576,525.42 C201.087,529.649 204.128,535.149 206.701,541.92 C209.274,548.691 210.56,555.024 210.56,560.92 C210.56,566.816 209.066,572.498 206.076,577.967 C202.691,583.759 198.326,589.748 192.982,595.936 C194.347,600.227 196.17,606.962 198.451,616.139 L199.045,616.139 C199.305,616.076 199.529,616.045 199.717,616.045 C207.081,616.045 213.089,618.634 217.74,623.811 C222.391,628.988 224.717,634.962 224.717,641.733 C224.717,650.129 221.238,656.899 214.279,662.045 C212.258,663.545 209.878,664.717 207.139,665.561 C207.472,669.79 207.639,672.605 207.639,674.006 C207.639,675.407 207.571,677.899 207.435,681.483 C207.373,687.597 205.29,692.837 201.185,697.201 C197.081,701.566 192.394,703.748 187.123,703.748 C181.852,703.748 177.36,701.876 173.646,698.131 C169.933,694.386 168.076,689.847 168.076,684.514 C168.076,681.712 169.154,679.332 171.31,677.373 C173.519,675.425 176.006,674.451 178.771,674.451 C181.537,674.451 183.8,675.462 185.56,677.483 C187.383,679.368 188.295,681.644 188.295,684.311 C188.295,686.977 187.383,689.222 185.56,691.045 C183.738,692.868 181.555,693.78 179.014,693.78 C177.972,693.78 176.967,693.587 175.998,693.201 C178.863,697.431 182.54,699.545 187.029,699.545 C191.519,699.545 195.36,697.691 198.553,693.983 C201.745,690.274 203.342,685.91 203.342,680.889 L203.623,673.858 M206.748,661.561 C210.133,660.321 212.821,658.123 214.81,654.967 C216.8,651.811 217.795,648.67 217.795,645.545 C217.795,640.92 216.199,636.785 213.006,633.139 C209.813,629.493 205.774,627.441 200.889,626.983 C203.691,640.722 205.644,652.248 206.748,661.561 M168.967,638.998 C168.967,645.446 171.537,651.079 176.678,655.897 C181.818,660.714 187.842,663.123 194.748,663.123 C197.477,663.123 200.144,662.925 202.748,662.53 C201.706,652.634 199.654,640.785 196.592,626.983 C192.758,627.379 189.782,628.699 187.662,630.944 C185.542,633.188 184.482,635.743 184.482,638.608 C184.482,643.556 187.123,647.561 192.404,650.623 C192.852,650.884 193.076,651.324 193.076,651.944 C193.076,652.563 192.865,653.1 192.443,653.553 C192.021,654.006 191.649,654.233 191.326,654.233 C191.003,654.233 190.581,654.17 190.06,654.045 C182.435,649.879 178.623,643.592 178.623,635.186 C178.623,631.217 180.024,627.41 182.826,623.764 C185.753,620.118 189.56,617.774 194.248,616.733 C192.425,609.441 190.93,603.743 189.764,599.639 C180.847,609.67 175.31,617.092 173.154,621.905 C170.363,628.155 168.967,633.852 168.967,638.998 M201.576,539.686 C196.691,542.092 192.834,545.574 190.006,550.131 C187.178,554.688 185.764,559.472 185.764,564.483 C185.764,569.493 186.935,575.972 189.279,583.92 C193.967,578.254 197.514,572.946 199.92,567.998 C202.326,563.05 203.529,558.152 203.529,553.303 C203.529,548.454 202.878,543.915 201.576,539.686"/>
<path class="TimeSig" d="M273.021,567.912 C274.516,567.912 275.949,567.686 277.318,567.233 C278.688,566.78 279.665,566.553 280.248,566.553 C280.831,566.553 281.222,566.907 281.42,567.615 C281.42,567.688 281.352,567.886 281.217,568.209 L252.811,601.225 L269.498,601.225 L269.498,588.131 C269.498,586.506 270.446,585.334 272.342,584.615 C274.29,583.897 276.503,581.001 278.982,575.928 C279.17,575.532 279.462,575.334 279.857,575.334 C280.639,575.334 281.092,575.793 281.217,576.709 L281.217,601.225 L288.357,601.225 C289.264,601.225 289.751,601.712 289.818,602.686 C289.886,603.66 289.399,604.147 288.357,604.147 L281.217,604.147 L281.217,604.928 C281.217,607.532 281.868,609.746 283.17,611.569 C284.67,613.391 286.43,614.303 288.451,614.303 C289.232,614.303 289.623,614.694 289.623,615.475 C289.623,616.256 289.087,616.647 288.014,616.647 C286.941,616.647 284.938,616.436 282.006,616.014 C279.074,615.592 276.811,615.381 275.217,615.381 C273.623,615.381 271.41,615.592 268.576,616.014 C265.743,616.436 263.613,616.647 262.186,616.647 C261.404,616.647 261.014,616.256 261.014,615.475 C261.014,614.694 261.404,614.303 262.186,614.303 C264.196,614.303 265.951,613.391 267.451,611.569 C268.816,609.683 269.498,607.47 269.498,604.928 L269.498,604.147 L252.811,604.147 C251.956,604.147 251.219,603.92 250.6,603.467 C249.98,603.014 249.67,602.592 249.67,602.201 C249.67,601.811 250.485,600.639 252.115,598.686 C253.745,596.733 256.074,592.972 259.1,587.405 C262.126,581.837 263.639,575.438 263.639,568.209 C263.639,567.168 264.097,566.647 265.014,566.647 C265.212,566.647 265.521,566.712 265.943,566.842 C266.365,566.972 267.277,567.183 268.678,567.475 C270.079,567.766 271.527,567.912 273.021,567.912"/>
<path class="TimeSig" d="M273.021,618.084 C274.516,618.084 275.949,617.858 277.318,617.405 C278.688,616.951 279.665,616.725 280.248,616.725 C280.831,616.725 281.222,617.079 281.42,617.787 C281.42,617.86 281.352,618.058 281.217,618.381 L252.811,651.397 L269.498,651.397 L269.498,638.303 C269.498,636.678 270.446,635.506 272.342,634.787 C274.29,634.069 276.503,631.173 278.982,626.1 C279.17,625.704 279.462,625.506 279.857,625.506 C280.639,625.506 281.092,625.964 281.217,626.881 L281.217,651.397 L288.357,651.397 C289.264,651.397 289.751,651.884 289.818,652.858 C289.886,653.832 289.399,654.319 288.357,654.319 L281.217,654.319 L281.217,655.1 C281.217,657.704 281.868,659.918 283.17,661.74 C284.67,663.563 286.43,664.475 288.451,664.475 C289.232,664.475 289.623,664.865 289.623,665.647 C289.623,666.428 289.087,666.819 288.014,666.819 C286.941,666.819 284.938,666.608 282.006,666.186 C279.074,665.764 276.811,665.553 275.217,665.553 C273.623,665.553 271.41,665.764 268.576,666.186 C265.743,666.608 263.613,666.819 262.186,666.819 C261.404,666.819 261.014,666.428 261.014,665.647 C261.014,664.865 261.404,664.475 262.186,664.475 C264.196,664.475 265.951,663.563 267.451,661.74 C268.816,659.855 269.498,657.642 269.498,655.1 L269.498,654.319 L252.811,654.319 C251.956,654.319 251.219,654.092 250.6,653.639 C249.98,653.186 249.67,652.764 249.67,652.373 C249.67,651.983 250.485,650.811 252.115,648.858 C253.745,646.905 256.074,643.144 259.1,637.576 C262.126,632.009 263.639,625.61 263.639,618.381 C263.639,617.339 264.097,616.819 265.014,616.819 C265.212,616.819 265.521,616.884 265.943,617.014 C266.365,617.144 267.277,617.355 268.678,617.647 C270.079,617.938 271.527,618.084 273.021,618.084"/>
<path class="Rest" d="M1295.48,616.733 L1259.94,616.733 C1259.28,616.733 1258.95,616.405 1258.95,615.748 L1258.95,602.076 C1258.95,601.431 1259.28,601.108 1259.94,601.108 L1295.48,601.108 C1296.13,601.108 1296.45,601.431 1296.45,602.076 L1296.45,615.748 C1296.45,616.405 1296.13,616.733 1295.48,616.733"/>
<path class="Rest" d="M2540.86,616.733 L2505.31,616.733 C2504.65,616.733 2504.33,616.405 2504.33,615.748 L2504.33,602.076 C2504.33,601.431 2504.65,601.108 2505.31,601.108 L2540.86,601.108 C2541.5,601.108 2541.83,601.431 2541.83,602.076 L2541.83,615.748 C2541.83,616.405 2541.5,616.733 2540.86,616.733"/>
</svg>
