<?xml version="1.0" encoding="UTF-8" standalone="no"?>
<svg width="2977.2px" height="4208.4px" viewBox="0 0 2977.2 4208.4"
 xmlns="http://www.w3.org/2000/svg" xmlns:xlink="http://www.w3.org/1999/xlink" version="1.2" baseProfile="tiny">
<title>B_Harmonic_Minor.mscx</title>
<desc>Generated by MuseScore Studio 4.3.1</desc>
<path class="" fill="#ffffff" fill-rule="evenodd" d="M0,0 L2977.2,0 L2977.2,4208.4 L0,4208.4 L0,0 "/>
<polyline class="StaffLines" fill="none" stroke="#000000" stroke-width="2.00" stroke-linejoin="bevel" points="141.732,316.732 2835.47,316.732"/>
<polyline class="StaffLines" fill="none" stroke="#000000" stroke-width="2.00" stroke-linejoin="bevel" points="141.732,341.732 2835.47,341.732"/>
<polyline class="StaffLines" fill="none" stroke="#000000" stroke-width="2.00" stroke-linejoin="bevel" points="141.732,366.733 2835.47,366.733"/>
<polyline class="StaffLines" fill="none" stroke="#000000" stroke-width="2.00" stroke-linejoin="bevel" points="141.732,391.733 2835.47,391.733"/>
<polyline class="StaffLines" fill="none" stroke="#000000" stroke-width="2.00" stroke-linejoin="bevel" points="141.732,416.733 2835.47,416.733"/>
<polyline class="BarLine" fill="none" stroke="#000000" stroke-width="4.00" stroke-linejoin="bevel" points="1954.62,315.732 1954.62,417.733"/>
<polyline class="BarLine" fill="none" stroke="#000000" stroke-width="4.00" stroke-linejoin="bevel" points="1160.07,315.732 1160.07,417.733"/>
<polyline class="BarLine" fill="none" stroke="#000000" stroke-width="4.00" stroke-linejoin="bevel" points="1460.67,315.732 1460.67,417.733"/>
<polyline class="BarLine" fill="none" stroke="#000000" stroke-width="4.00" stroke-linejoin="bevel" points="868.97,315.732 868.97,417.733"/>
<polyline class="BarLine" fill="none" stroke="#000000" stroke-width="4.00" stroke-linejoin="bevel" points="1676.12,315.732 1676.12,417.733"/>
<polyline class="BarLine" fill="none" stroke="#000000" stroke-width="4.00" stroke-linejoin="bevel" points="590.47,315.732 590.47,417.733"/>
<polyline class="BarLine" fill="none" stroke="#000000" stroke-width="4.00" stroke-linejoin="bevel" points="2233.12,315.732 2233.12,417.733"/>
<polyline class="BarLine" fill="none" stroke="#000000" stroke-width="4.00" stroke-linejoin="bevel" points="2511.62,315.732 2511.62,417.733"/>
<polyline class="BarLine" fill="none" stroke="#000000" stroke-width="4.00" stroke-linejoin="bevel" points="2802.72,315.732 2802.72,417.733"/>
<polyline class="BarLine" fill="none" stroke="#000000" stroke-width="12.50" stroke-linejoin="bevel" points="2829.22,315.732 2829.22,417.733"/>
<path class="Accidental" d="M2098.5,294.764 C2099.93,294.368 2100.65,294.722 2100.65,295.826 L2100.65,303.639 C2100.65,304.42 2100.03,305.04 2098.79,305.498 L2095.57,306.764 L2095.57,320.936 L2098.5,319.764 C2099.93,319.368 2100.65,319.727 2100.65,320.842 L2100.65,328.654 C2100.65,329.436 2100.03,330.05 2098.79,330.498 L2095.57,331.779 L2095.57,347.982 C2095.57,349.222 2095.08,349.842 2094.1,349.842 C2093.13,349.842 2092.64,349.222 2092.64,347.982 L2092.64,332.951 L2083.35,336.654 L2083.35,352.764 C2083.35,354.003 2082.87,354.623 2081.89,354.623 C2080.92,354.623 2080.43,354.003 2080.43,352.764 L2080.43,337.826 L2077.89,338.904 C2076.52,339.488 2075.84,339.097 2075.84,337.732 L2075.84,330.014 C2075.84,329.368 2076.43,328.785 2077.6,328.264 L2080.43,327.092 L2080.43,312.826 L2077.89,313.904 C2076.52,314.488 2075.84,314.097 2075.84,312.732 L2075.84,305.014 C2075.84,304.357 2076.43,303.769 2077.6,303.248 L2080.43,302.076 L2080.43,285.967 C2080.43,284.727 2080.92,284.107 2081.89,284.107 C2082.87,284.107 2083.35,284.727 2083.35,285.967 L2083.35,300.904 L2092.64,297.107 L2092.64,281.186 C2092.64,279.946 2093.13,279.326 2094.1,279.326 C2095.08,279.326 2095.57,279.946 2095.57,281.186 L2095.57,295.936 L2098.5,294.764 M2083.35,311.654 L2083.35,325.92 L2092.64,322.107 L2092.64,307.936 L2083.35,311.654 "/>
<path class="Accidental" d="M2543.8,332.264 C2545.23,331.868 2545.95,332.222 2545.95,333.326 L2545.95,341.139 C2545.95,341.92 2545.33,342.54 2544.09,342.998 L2540.88,344.264 L2540.88,358.436 L2543.8,357.264 C2545.23,356.868 2545.95,357.227 2545.95,358.342 L2545.95,366.154 C2545.95,366.936 2545.33,367.55 2544.09,367.998 L2540.88,369.279 L2540.88,385.482 C2540.88,386.722 2540.39,387.342 2539.41,387.342 C2538.43,387.342 2537.94,386.722 2537.94,385.482 L2537.94,370.451 L2528.66,374.154 L2528.66,390.264 C2528.66,391.503 2528.17,392.123 2527.2,392.123 C2526.22,392.123 2525.73,391.503 2525.73,390.264 L2525.73,375.326 L2523.19,376.404 C2521.82,376.988 2521.14,376.597 2521.14,375.232 L2521.14,367.514 C2521.14,366.868 2521.73,366.285 2522.91,365.764 L2525.73,364.592 L2525.73,350.326 L2523.19,351.404 C2521.82,351.988 2521.14,351.597 2521.14,350.232 L2521.14,342.514 C2521.14,341.857 2521.73,341.269 2522.91,340.748 L2525.73,339.576 L2525.73,323.467 C2525.73,322.227 2526.22,321.607 2527.2,321.607 C2528.17,321.607 2528.66,322.227 2528.66,323.467 L2528.66,338.404 L2537.94,334.607 L2537.94,318.686 C2537.94,317.446 2538.43,316.826 2539.41,316.826 C2540.39,316.826 2540.88,317.446 2540.88,318.686 L2540.88,333.436 L2543.8,332.264 M2528.66,349.154 L2528.66,363.42 L2537.94,359.607 L2537.94,345.436 L2528.66,349.154 "/>
<path class="Accidental" d="M1810.5,269.764 C1811.93,269.368 1812.65,269.722 1812.65,270.826 L1812.65,278.639 C1812.65,279.42 1812.03,280.04 1810.79,280.498 L1807.57,281.764 L1807.57,295.936 L1810.5,294.764 C1811.93,294.368 1812.65,294.727 1812.65,295.842 L1812.65,303.654 C1812.65,304.436 1812.03,305.05 1810.79,305.498 L1807.57,306.779 L1807.57,322.982 C1807.57,324.222 1807.08,324.842 1806.11,324.842 C1805.13,324.842 1804.64,324.222 1804.64,322.982 L1804.64,307.951 L1795.36,311.654 L1795.36,327.764 C1795.36,329.003 1794.87,329.623 1793.89,329.623 C1792.92,329.623 1792.43,329.003 1792.43,327.764 L1792.43,312.826 L1789.89,313.904 C1788.52,314.488 1787.84,314.097 1787.84,312.732 L1787.84,305.014 C1787.84,304.368 1788.43,303.785 1789.61,303.264 L1792.43,302.092 L1792.43,287.826 L1789.89,288.904 C1788.52,289.488 1787.84,289.097 1787.84,287.732 L1787.84,280.014 C1787.84,279.357 1788.43,278.769 1789.61,278.248 L1792.43,277.076 L1792.43,260.967 C1792.43,259.727 1792.92,259.107 1793.89,259.107 C1794.87,259.107 1795.36,259.727 1795.36,260.967 L1795.36,275.904 L1804.64,272.107 L1804.64,256.186 C1804.64,254.946 1805.13,254.326 1806.11,254.326 C1807.08,254.326 1807.57,254.946 1807.57,256.186 L1807.57,270.936 L1810.5,269.764 M1795.36,286.654 L1795.36,300.92 L1804.64,297.107 L1804.64,282.936 L1795.36,286.654 "/>
<path class="Accidental" d="M1192.25,269.764 C1193.69,269.368 1194.41,269.722 1194.41,270.826 L1194.41,278.639 C1194.41,279.42 1193.79,280.04 1192.55,280.498 L1189.33,281.764 L1189.33,295.936 L1192.25,294.764 C1193.69,294.368 1194.41,294.727 1194.41,295.842 L1194.41,303.654 C1194.41,304.436 1193.79,305.05 1192.55,305.498 L1189.33,306.779 L1189.33,322.982 C1189.33,324.222 1188.84,324.842 1187.86,324.842 C1186.88,324.842 1186.39,324.222 1186.39,322.982 L1186.39,307.951 L1177.11,311.654 L1177.11,327.764 C1177.11,329.003 1176.62,329.623 1175.65,329.623 C1174.67,329.623 1174.19,329.003 1174.19,327.764 L1174.19,312.826 L1171.64,313.904 C1170.28,314.488 1169.59,314.097 1169.59,312.732 L1169.59,305.014 C1169.59,304.368 1170.18,303.785 1171.36,303.264 L1174.19,302.092 L1174.19,287.826 L1171.64,288.904 C1170.28,289.488 1169.59,289.097 1169.59,287.732 L1169.59,280.014 C1169.59,279.357 1170.18,278.769 1171.36,278.248 L1174.19,277.076 L1174.19,260.967 C1174.19,259.727 1174.67,259.107 1175.65,259.107 C1176.62,259.107 1177.11,259.727 1177.11,260.967 L1177.11,275.904 L1186.39,272.107 L1186.39,256.186 C1186.39,254.946 1186.88,254.326 1187.86,254.326 C1188.84,254.326 1189.33,254.946 1189.33,256.186 L1189.33,270.936 L1192.25,269.764 M1177.11,286.654 L1177.11,300.92 L1186.39,297.107 L1186.39,282.936 L1177.11,286.654 "/>
<path class="Accidental" d="M901.149,294.764 C902.587,294.368 903.305,294.722 903.305,295.826 L903.305,303.639 C903.305,304.42 902.686,305.04 901.446,305.498 L898.227,306.764 L898.227,320.936 L901.149,319.764 C902.587,319.368 903.305,319.727 903.305,320.842 L903.305,328.654 C903.305,329.436 902.686,330.05 901.446,330.498 L898.227,331.779 L898.227,347.982 C898.227,349.222 897.738,349.842 896.759,349.842 C895.779,349.842 895.29,349.222 895.29,347.982 L895.29,332.951 L886.009,336.654 L886.009,352.764 C886.009,354.003 885.522,354.623 884.548,354.623 C883.574,354.623 883.087,354.003 883.087,352.764 L883.087,337.826 L880.54,338.904 C879.175,339.488 878.493,339.097 878.493,337.732 L878.493,330.014 C878.493,329.368 879.082,328.785 880.259,328.264 L883.087,327.092 L883.087,312.826 L880.54,313.904 C879.175,314.488 878.493,314.097 878.493,312.732 L878.493,305.014 C878.493,304.357 879.082,303.769 880.259,303.248 L883.087,302.076 L883.087,285.967 C883.087,284.727 883.574,284.107 884.548,284.107 C885.522,284.107 886.009,284.727 886.009,285.967 L886.009,300.904 L895.29,297.107 L895.29,281.186 C895.29,279.946 895.779,279.326 896.759,279.326 C897.738,279.326 898.227,279.946 898.227,281.186 L898.227,295.936 L901.149,294.764 M886.009,311.654 L886.009,325.92 L895.29,322.107 L895.29,307.936 L886.009,311.654 "/>
<path class="Accidental" d="M455.847,332.264 C457.285,331.868 458.004,332.222 458.004,333.326 L458.004,341.139 C458.004,341.92 457.384,342.54 456.144,342.998 L452.926,344.264 L452.926,358.436 L455.847,357.264 C457.285,356.868 458.004,357.227 458.004,358.342 L458.004,366.154 C458.004,366.936 457.384,367.55 456.144,367.998 L452.926,369.279 L452.926,385.482 C452.926,386.722 452.436,387.342 451.457,387.342 C450.478,387.342 449.988,386.722 449.988,385.482 L449.988,370.451 L440.707,374.154 L440.707,390.264 C440.707,391.503 440.22,392.123 439.246,392.123 C438.272,392.123 437.785,391.503 437.785,390.264 L437.785,375.326 L435.238,376.404 C433.873,376.988 433.191,376.597 433.191,375.232 L433.191,367.514 C433.191,366.868 433.78,366.285 434.957,365.764 L437.785,364.592 L437.785,350.326 L435.238,351.404 C433.873,351.988 433.191,351.597 433.191,350.232 L433.191,342.514 C433.191,341.857 433.78,341.269 434.957,340.748 L437.785,339.576 L437.785,323.467 C437.785,322.227 438.272,321.607 439.246,321.607 C440.22,321.607 440.707,322.227 440.707,323.467 L440.707,338.404 L449.988,334.607 L449.988,318.686 C449.988,317.446 450.478,316.826 451.457,316.826 C452.436,316.826 452.926,317.446 452.926,318.686 L452.926,333.436 L455.847,332.264 M440.707,349.154 L440.707,363.42 L449.988,359.607 L449.988,345.436 L440.707,349.154 "/>
<polyline class="LedgerLine" fill="none" stroke="#000000" stroke-width="4.00" stroke-linejoin="bevel" points="1199.67,291.732 1253.39,291.732"/>
<polyline class="LedgerLine" fill="none" stroke="#000000" stroke-width="4.00" stroke-linejoin="bevel" points="1323.97,291.732 1377.69,291.732"/>
<polyline class="LedgerLine" fill="none" stroke="#000000" stroke-width="4.00" stroke-linejoin="bevel" points="1817.92,291.732 1871.64,291.732"/>
<polyline class="LedgerLine" fill="none" stroke="#000000" stroke-width="4.00" stroke-linejoin="bevel" points="1693.62,291.732 1747.34,291.732"/>
<polyline class="Stem" fill="none" stroke="#000000" stroke-width="3.25" stroke-linejoin="bevel" points="1704.74,284.132 1704.74,366.733"/>
<polyline class="Stem" fill="none" stroke="#000000" stroke-width="3.25" stroke-linejoin="bevel" points="464.894,359.132 464.894,435.483"/>
<polyline class="Stem" fill="none" stroke="#000000" stroke-width="3.25" stroke-linejoin="bevel" points="2107.54,321.632 2107.54,404.233"/>
<polyline class="Stem" fill="none" stroke="#000000" stroke-width="3.25" stroke-linejoin="bevel" points="2261.74,334.132 2261.74,416.733"/>
<polyline class="Stem" fill="none" stroke="#000000" stroke-width="3.25" stroke-linejoin="bevel" points="1983.24,309.132 1983.24,391.733"/>
<polyline class="Stem" fill="none" stroke="#000000" stroke-width="3.25" stroke-linejoin="bevel" points="619.095,346.632 619.095,429.233"/>
<polyline class="Stem" fill="none" stroke="#000000" stroke-width="3.25" stroke-linejoin="bevel" points="2386.04,346.632 2386.04,429.233"/>
<polyline class="Stem" fill="none" stroke="#000000" stroke-width="3.25" stroke-linejoin="bevel" points="1829.04,296.632 1829.04,379.233"/>
<polyline class="Stem" fill="none" stroke="#000000" stroke-width="3.25" stroke-linejoin="bevel" points="743.394,334.132 743.394,416.733"/>
<polyline class="Stem" fill="none" stroke="#000000" stroke-width="3.25" stroke-linejoin="bevel" points="340.596,371.633 340.596,441.733"/>
<polyline class="Stem" fill="none" stroke="#000000" stroke-width="3.25" stroke-linejoin="bevel" points="2677.14,371.633 2677.14,441.733"/>
<polyline class="Stem" fill="none" stroke="#000000" stroke-width="3.25" stroke-linejoin="bevel" points="910.196,321.632 910.196,404.233"/>
<polyline class="Stem" fill="none" stroke="#000000" stroke-width="3.25" stroke-linejoin="bevel" points="2552.84,359.132 2552.84,435.483"/>
<polyline class="Stem" fill="none" stroke="#000000" stroke-width="3.25" stroke-linejoin="bevel" points="1335.1,284.132 1335.1,366.733"/>
<polyline class="Stem" fill="none" stroke="#000000" stroke-width="3.25" stroke-linejoin="bevel" points="1210.8,296.632 1210.8,379.233"/>
<polyline class="Stem" fill="none" stroke="#000000" stroke-width="3.25" stroke-linejoin="bevel" points="1034.49,309.132 1034.49,391.733"/>
<path class="Note" d="M1834.84,302.373 C1836.73,302.373 1840.68,300.42 1846.71,296.514 C1852.73,292.607 1856.28,289.988 1857.36,288.654 C1858.43,287.321 1858.96,286.133 1858.96,285.092 C1858.96,284.05 1858.54,283.123 1857.69,282.311 C1856.84,281.498 1855.87,281.092 1854.76,281.092 C1852.81,281.092 1848.83,283.061 1842.8,286.998 C1836.77,290.936 1833.24,293.555 1832.2,294.857 C1831.16,296.16 1830.64,297.331 1830.64,298.373 C1830.64,299.415 1831.05,300.342 1831.86,301.154 C1832.68,301.967 1833.67,302.373 1834.84,302.373 M1853.79,277.967 C1859.39,277.967 1862.18,280.373 1862.18,285.186 C1862.18,287.529 1861.5,290.248 1860.14,293.342 C1858.77,296.436 1856.95,298.795 1854.67,300.42 C1849.66,303.805 1843.38,305.498 1835.82,305.498 C1830.22,305.498 1827.42,303.092 1827.42,298.279 C1827.42,296.133 1828.08,293.464 1829.42,290.272 C1830.75,287.079 1832.59,284.67 1834.93,283.045 C1839.95,279.66 1846.24,277.967 1853.79,277.967"/>
<path class="Note" d="M2391.84,352.373 C2393.72,352.373 2397.68,350.42 2403.71,346.514 C2409.73,342.607 2413.28,339.988 2414.35,338.654 C2415.43,337.321 2415.96,336.134 2415.96,335.092 C2415.96,334.05 2415.54,333.123 2414.69,332.311 C2413.84,331.498 2412.86,331.092 2411.76,331.092 C2409.81,331.092 2405.83,333.061 2399.8,336.998 C2393.77,340.936 2390.24,343.555 2389.2,344.857 C2388.16,346.16 2387.64,347.331 2387.64,348.373 C2387.64,349.415 2388.04,350.342 2388.86,351.154 C2389.68,351.967 2390.67,352.373 2391.84,352.373 M2410.79,327.967 C2416.39,327.967 2419.18,330.373 2419.18,335.186 C2419.18,337.529 2418.5,340.248 2417.14,343.342 C2415.77,346.436 2413.95,348.795 2411.67,350.42 C2406.66,353.805 2400.37,355.498 2392.82,355.498 C2387.22,355.498 2384.42,353.092 2384.42,348.279 C2384.42,346.134 2385.08,343.464 2386.42,340.272 C2387.75,337.079 2389.59,334.67 2391.93,333.045 C2396.95,329.66 2403.24,327.967 2410.79,327.967"/>
<path class="Note" d="M2267.54,339.873 C2269.43,339.873 2273.38,337.92 2279.41,334.014 C2285.43,330.107 2288.98,327.488 2290.06,326.154 C2291.13,324.821 2291.66,323.634 2291.66,322.592 C2291.66,321.55 2291.24,320.623 2290.39,319.811 C2289.54,318.998 2288.57,318.592 2287.46,318.592 C2285.51,318.592 2281.53,320.561 2275.5,324.498 C2269.47,328.436 2265.94,331.055 2264.9,332.357 C2263.86,333.66 2263.34,334.831 2263.34,335.873 C2263.34,336.915 2263.75,337.842 2264.56,338.654 C2265.38,339.467 2266.37,339.873 2267.54,339.873 M2286.49,315.467 C2292.09,315.467 2294.88,317.873 2294.88,322.686 C2294.88,325.029 2294.2,327.748 2292.84,330.842 C2291.47,333.936 2289.65,336.295 2287.37,337.92 C2282.36,341.305 2276.08,342.998 2268.52,342.998 C2262.92,342.998 2260.12,340.592 2260.12,335.779 C2260.12,333.634 2260.78,330.964 2262.12,327.772 C2263.45,324.579 2265.29,322.17 2267.63,320.545 C2272.65,317.16 2278.94,315.467 2286.49,315.467"/>
<path class="Note" d="M2682.94,377.373 C2684.82,377.373 2688.78,375.42 2694.81,371.514 C2700.83,367.608 2704.38,364.988 2705.45,363.654 C2706.53,362.321 2707.06,361.134 2707.06,360.092 C2707.06,359.05 2706.64,358.123 2705.79,357.311 C2704.94,356.498 2703.97,356.092 2702.86,356.092 C2700.91,356.092 2696.93,358.061 2690.9,361.998 C2684.87,365.936 2681.34,368.555 2680.3,369.858 C2679.26,371.16 2678.74,372.331 2678.74,373.373 C2678.74,374.415 2679.15,375.342 2679.96,376.154 C2680.78,376.967 2681.77,377.373 2682.94,377.373 M2701.89,352.967 C2707.49,352.967 2710.28,355.373 2710.28,360.186 C2710.28,362.529 2709.6,365.248 2708.24,368.342 C2706.87,371.436 2705.05,373.795 2702.77,375.42 C2697.76,378.805 2691.48,380.498 2683.92,380.498 C2678.32,380.498 2675.52,378.092 2675.52,373.279 C2675.52,371.134 2676.18,368.464 2677.52,365.272 C2678.85,362.079 2680.69,359.67 2683.03,358.045 C2688.05,354.66 2694.34,352.967 2701.89,352.967"/>
<path class="Note" d="M2558.64,364.873 C2560.53,364.873 2564.48,362.92 2570.51,359.014 C2576.53,355.107 2580.08,352.488 2581.16,351.154 C2582.23,349.821 2582.77,348.634 2582.77,347.592 C2582.77,346.55 2582.34,345.623 2581.49,344.811 C2580.64,343.998 2579.67,343.592 2578.56,343.592 C2576.61,343.592 2572.63,345.561 2566.6,349.498 C2560.58,353.436 2557.04,356.055 2556,357.357 C2554.96,358.66 2554.44,359.831 2554.44,360.873 C2554.44,361.915 2554.85,362.842 2555.66,363.654 C2556.48,364.467 2557.47,364.873 2558.64,364.873 M2577.59,340.467 C2583.19,340.467 2585.98,342.873 2585.98,347.686 C2585.98,350.029 2585.3,352.748 2583.94,355.842 C2582.57,358.936 2580.75,361.295 2578.47,362.92 C2573.46,366.305 2567.18,367.998 2559.63,367.998 C2554.02,367.998 2551.22,365.592 2551.22,360.779 C2551.22,358.634 2551.89,355.964 2553.22,352.772 C2554.55,349.579 2556.39,347.17 2558.73,345.545 C2563.76,342.16 2570.04,340.467 2577.59,340.467"/>
<path class="Note" d="M346.393,377.373 C348.278,377.373 352.234,375.42 358.26,371.514 C364.286,367.608 367.835,364.988 368.908,363.654 C369.981,362.321 370.518,361.134 370.518,360.092 C370.518,359.05 370.093,358.123 369.244,357.311 C368.395,356.498 367.419,356.092 366.315,356.092 C364.367,356.092 360.38,358.061 354.354,361.998 C348.328,365.936 344.794,368.555 343.752,369.858 C342.71,371.16 342.19,372.331 342.19,373.373 C342.19,374.415 342.598,375.342 343.416,376.154 C344.234,376.967 345.226,377.373 346.393,377.373 M365.346,352.967 C370.94,352.967 373.736,355.373 373.736,360.186 C373.736,362.529 373.054,365.248 371.69,368.342 C370.325,371.436 368.502,373.795 366.221,375.42 C361.21,378.805 354.929,380.498 347.377,380.498 C341.773,380.498 338.971,378.092 338.971,373.279 C338.971,371.134 339.637,368.464 340.971,365.272 C342.304,362.079 344.143,359.67 346.486,358.045 C351.507,354.66 357.794,352.967 365.346,352.967"/>
<path class="Note" d="M470.691,364.873 C472.577,364.873 476.532,362.92 482.558,359.014 C488.584,355.107 492.134,352.488 493.207,351.154 C494.28,349.821 494.816,348.634 494.816,347.592 C494.816,346.55 494.392,345.623 493.543,344.811 C492.694,343.998 491.717,343.592 490.613,343.592 C488.665,343.592 484.678,345.561 478.652,349.498 C472.626,353.436 469.092,356.055 468.051,357.357 C467.009,358.66 466.488,359.831 466.488,360.873 C466.488,361.915 466.897,362.842 467.715,363.654 C468.532,364.467 469.524,364.873 470.691,364.873 M489.644,340.467 C495.238,340.467 498.035,342.873 498.035,347.686 C498.035,350.029 497.353,352.748 495.988,355.842 C494.623,358.936 492.801,361.295 490.519,362.92 C485.509,366.305 479.228,367.998 471.676,367.998 C466.071,367.998 463.269,365.592 463.269,360.779 C463.269,358.634 463.936,355.964 465.269,352.772 C466.603,349.579 468.441,347.17 470.785,345.545 C475.806,342.16 482.092,340.467 489.644,340.467"/>
<path class="Note" d="M2113.34,327.373 C2115.22,327.373 2119.18,325.42 2125.21,321.514 C2131.23,317.607 2134.78,314.988 2135.85,313.654 C2136.93,312.321 2137.46,311.134 2137.46,310.092 C2137.46,309.05 2137.04,308.123 2136.19,307.311 C2135.34,306.498 2134.37,306.092 2133.26,306.092 C2131.31,306.092 2127.33,308.061 2121.3,311.998 C2115.27,315.936 2111.74,318.555 2110.7,319.857 C2109.66,321.16 2109.14,322.331 2109.14,323.373 C2109.14,324.415 2109.54,325.342 2110.36,326.154 C2111.18,326.967 2112.17,327.373 2113.34,327.373 M2132.29,302.967 C2137.89,302.967 2140.68,305.373 2140.68,310.186 C2140.68,312.529 2140,315.248 2138.64,318.342 C2137.27,321.436 2135.45,323.795 2133.17,325.42 C2128.16,328.805 2121.88,330.498 2114.32,330.498 C2108.72,330.498 2105.92,328.092 2105.92,323.279 C2105.92,321.134 2106.58,318.464 2107.92,315.272 C2109.25,312.079 2111.09,309.67 2113.43,308.045 C2118.45,304.66 2124.74,302.967 2132.29,302.967"/>
<path class="Note" d="M1989.04,314.873 C1990.93,314.873 1994.88,312.92 2000.91,309.014 C2006.93,305.107 2010.48,302.488 2011.56,301.154 C2012.63,299.821 2013.17,298.634 2013.17,297.592 C2013.17,296.55 2012.74,295.623 2011.89,294.811 C2011.04,293.998 2010.07,293.592 2008.96,293.592 C2007.01,293.592 2003.03,295.561 1997,299.498 C1990.98,303.436 1987.44,306.055 1986.4,307.357 C1985.36,308.66 1984.84,309.831 1984.84,310.873 C1984.84,311.915 1985.25,312.842 1986.06,313.654 C1986.88,314.467 1987.87,314.873 1989.04,314.873 M2007.99,290.467 C2013.59,290.467 2016.38,292.873 2016.38,297.686 C2016.38,300.029 2015.7,302.748 2014.34,305.842 C2012.97,308.936 2011.15,311.295 2008.87,312.92 C2003.86,316.305 1997.58,317.998 1990.02,317.998 C1984.42,317.998 1981.62,315.592 1981.62,310.779 C1981.62,308.634 1982.29,305.964 1983.62,302.772 C1984.95,299.579 1986.79,297.17 1989.13,295.545 C1994.16,292.16 2000.44,290.467 2007.99,290.467"/>
<path class="Note" d="M624.892,352.373 C626.777,352.373 630.733,350.42 636.759,346.514 C642.785,342.607 646.335,339.988 647.408,338.654 C648.481,337.321 649.017,336.134 649.017,335.092 C649.017,334.05 648.593,333.123 647.744,332.311 C646.895,331.498 645.918,331.092 644.814,331.092 C642.866,331.092 638.879,333.061 632.853,336.998 C626.827,340.936 623.293,343.555 622.251,344.857 C621.21,346.16 620.689,347.331 620.689,348.373 C620.689,349.415 621.098,350.342 621.915,351.154 C622.733,351.967 623.725,352.373 624.892,352.373 M643.845,327.967 C649.439,327.967 652.236,330.373 652.236,335.186 C652.236,337.529 651.553,340.248 650.189,343.342 C648.824,346.436 647.001,348.795 644.72,350.42 C639.71,353.805 633.428,355.498 625.876,355.498 C620.272,355.498 617.47,353.092 617.47,348.279 C617.47,346.134 618.137,343.464 619.47,340.272 C620.803,337.079 622.642,334.67 624.986,333.045 C630.007,329.66 636.293,327.967 643.845,327.967"/>
<path class="Note" d="M1040.29,314.873 C1042.18,314.873 1046.13,312.92 1052.16,309.014 C1058.18,305.107 1061.73,302.488 1062.81,301.154 C1063.88,299.821 1064.42,298.634 1064.42,297.592 C1064.42,296.55 1063.99,295.623 1063.14,294.811 C1062.29,293.998 1061.32,293.592 1060.21,293.592 C1058.27,293.592 1054.28,295.561 1048.25,299.498 C1042.23,303.436 1038.69,306.055 1037.65,307.357 C1036.61,308.66 1036.09,309.831 1036.09,310.873 C1036.09,311.915 1036.5,312.842 1037.31,313.654 C1038.13,314.467 1039.12,314.873 1040.29,314.873 M1059.24,290.467 C1064.84,290.467 1067.64,292.873 1067.64,297.686 C1067.64,300.029 1066.95,302.748 1065.59,305.842 C1064.22,308.936 1062.4,311.295 1060.12,312.92 C1055.11,316.305 1048.83,317.998 1041.28,317.998 C1035.67,317.998 1032.87,315.592 1032.87,310.779 C1032.87,308.634 1033.54,305.964 1034.87,302.772 C1036.2,299.579 1038.04,297.17 1040.39,295.545 C1045.41,292.16 1051.69,290.467 1059.24,290.467"/>
<path class="Note" d="M1710.54,289.873 C1712.43,289.873 1716.38,287.92 1722.41,284.014 C1728.43,280.107 1731.98,277.488 1733.06,276.154 C1734.13,274.821 1734.67,273.633 1734.67,272.592 C1734.67,271.55 1734.24,270.623 1733.39,269.811 C1732.54,268.998 1731.57,268.592 1730.46,268.592 C1728.52,268.592 1724.53,270.561 1718.5,274.498 C1712.48,278.436 1708.94,281.055 1707.9,282.357 C1706.86,283.66 1706.34,284.831 1706.34,285.873 C1706.34,286.915 1706.75,287.842 1707.56,288.654 C1708.38,289.467 1709.37,289.873 1710.54,289.873 M1729.49,265.467 C1735.09,265.467 1737.88,267.873 1737.88,272.686 C1737.88,275.029 1737.2,277.748 1735.84,280.842 C1734.47,283.936 1732.65,286.295 1730.37,287.92 C1725.36,291.305 1719.08,292.998 1711.53,292.998 C1705.92,292.998 1703.12,290.592 1703.12,285.779 C1703.12,283.633 1703.79,280.964 1705.12,277.772 C1706.45,274.579 1708.29,272.17 1710.63,270.545 C1715.66,267.16 1721.94,265.467 1729.49,265.467"/>
<path class="Note" d="M749.191,339.873 C751.076,339.873 755.032,337.92 761.058,334.014 C767.084,330.107 770.633,327.488 771.706,326.154 C772.779,324.821 773.316,323.634 773.316,322.592 C773.316,321.55 772.891,320.623 772.042,319.811 C771.193,318.998 770.217,318.592 769.112,318.592 C767.164,318.592 763.178,320.561 757.151,324.498 C751.125,328.436 747.592,331.055 746.55,332.357 C745.508,333.66 744.987,334.831 744.987,335.873 C744.987,336.915 745.396,337.842 746.214,338.654 C747.032,339.467 748.024,339.873 749.191,339.873 M768.144,315.467 C773.737,315.467 776.534,317.873 776.534,322.686 C776.534,325.029 775.852,327.748 774.487,330.842 C773.123,333.936 771.3,336.295 769.019,337.92 C764.008,341.305 757.727,342.998 750.175,342.998 C744.571,342.998 741.769,340.592 741.769,335.779 C741.769,333.634 742.435,330.964 743.769,327.772 C745.102,324.579 746.941,322.17 749.284,320.545 C754.305,317.16 760.592,315.467 768.144,315.467"/>
<path class="Note" d="M915.993,327.373 C917.878,327.373 921.834,325.42 927.86,321.514 C933.886,317.607 937.436,314.988 938.509,313.654 C939.582,312.321 940.118,311.134 940.118,310.092 C940.118,309.05 939.694,308.123 938.845,307.311 C937.996,306.498 937.019,306.092 935.915,306.092 C933.967,306.092 929.98,308.061 923.954,311.998 C917.928,315.936 914.394,318.555 913.352,319.857 C912.311,321.16 911.79,322.331 911.79,323.373 C911.79,324.415 912.199,325.342 913.016,326.154 C913.834,326.967 914.826,327.373 915.993,327.373 M934.946,302.967 C940.54,302.967 943.337,305.373 943.337,310.186 C943.337,312.529 942.654,315.248 941.29,318.342 C939.925,321.436 938.102,323.795 935.821,325.42 C930.811,328.805 924.529,330.498 916.977,330.498 C911.373,330.498 908.571,328.092 908.571,323.279 C908.571,321.134 909.238,318.464 910.571,315.272 C911.904,312.079 913.743,309.67 916.087,308.045 C921.108,304.66 927.394,302.967 934.946,302.967"/>
<path class="Note" d="M1340.89,289.873 C1342.78,289.873 1346.73,287.92 1352.76,284.014 C1358.79,280.107 1362.34,277.488 1363.41,276.154 C1364.48,274.821 1365.02,273.633 1365.02,272.592 C1365.02,271.55 1364.59,270.623 1363.74,269.811 C1362.9,268.998 1361.92,268.592 1360.81,268.592 C1358.87,268.592 1354.88,270.561 1348.85,274.498 C1342.83,278.436 1339.29,281.055 1338.25,282.357 C1337.21,283.66 1336.69,284.831 1336.69,285.873 C1336.69,286.915 1337.1,287.842 1337.92,288.654 C1338.73,289.467 1339.73,289.873 1340.89,289.873 M1359.85,265.467 C1365.44,265.467 1368.24,267.873 1368.24,272.686 C1368.24,275.029 1367.55,277.748 1366.19,280.842 C1364.82,283.936 1363,286.295 1360.72,287.92 C1355.71,291.305 1349.43,292.998 1341.88,292.998 C1336.27,292.998 1333.47,290.592 1333.47,285.779 C1333.47,283.633 1334.14,280.964 1335.47,277.772 C1336.8,274.579 1338.64,272.17 1340.99,270.545 C1346.01,267.16 1352.29,265.467 1359.85,265.467"/>
<path class="Note" d="M1216.59,302.373 C1218.48,302.373 1222.44,300.42 1228.46,296.514 C1234.49,292.607 1238.04,289.988 1239.11,288.654 C1240.18,287.321 1240.72,286.133 1240.72,285.092 C1240.72,284.05 1240.29,283.123 1239.45,282.311 C1238.6,281.498 1237.62,281.092 1236.52,281.092 C1234.57,281.092 1230.58,283.061 1224.55,286.998 C1218.53,290.936 1214.99,293.555 1213.95,294.857 C1212.91,296.16 1212.39,297.331 1212.39,298.373 C1212.39,299.415 1212.8,300.342 1213.62,301.154 C1214.44,301.967 1215.43,302.373 1216.59,302.373 M1235.55,277.967 C1241.14,277.967 1243.94,280.373 1243.94,285.186 C1243.94,287.529 1243.26,290.248 1241.89,293.342 C1240.53,296.436 1238.7,298.795 1236.42,300.42 C1231.41,303.805 1225.13,305.498 1217.58,305.498 C1211.97,305.498 1209.17,303.092 1209.17,298.279 C1209.17,296.133 1209.84,293.464 1211.17,290.272 C1212.51,287.079 1214.34,284.67 1216.69,283.045 C1221.71,279.66 1227.99,277.967 1235.55,277.967"/>
<path class="Clef" d="M203.623,423.858 L203.623,421.717 C203.56,420.613 203.399,418.889 203.139,416.545 C199.889,417.066 196.993,417.326 194.451,417.326 C185.337,417.326 177.605,413.727 171.256,406.529 C164.907,399.331 161.732,390.753 161.732,380.795 C161.732,378.128 162.253,374.923 163.295,371.178 C164.337,367.433 165.297,364.925 166.178,363.654 C167.058,362.384 168.378,360.154 170.139,356.967 C170.659,355.988 172.352,353.837 175.217,350.514 C175.738,349.805 176.193,349.222 176.584,348.764 C176.975,348.305 177.607,347.49 178.482,346.318 C179.357,345.147 180.3,344.055 181.31,343.045 C182.321,342.035 183.217,341.058 183.998,340.115 C184.779,339.173 185.498,338.378 186.154,337.733 C183.81,329.983 182.378,324.024 181.857,319.858 C181.337,315.691 181.076,310.579 181.076,304.522 C181.076,298.464 182.378,292.962 184.982,288.014 C187.514,282.878 191.06,278.68 195.623,275.42 C195.883,275.222 196.225,275.123 196.646,275.123 C197.068,275.123 197.378,275.222 197.576,275.42 C201.087,279.649 204.128,285.149 206.701,291.92 C209.274,298.691 210.56,305.024 210.56,310.92 C210.56,316.816 209.066,322.498 206.076,327.967 C202.691,333.759 198.326,339.748 192.982,345.936 C194.347,350.227 196.17,356.962 198.451,366.139 L199.045,366.139 C199.305,366.076 199.529,366.045 199.717,366.045 C207.081,366.045 213.089,368.634 217.74,373.811 C222.391,378.988 224.717,384.962 224.717,391.733 C224.717,400.128 221.238,406.899 214.279,412.045 C212.258,413.545 209.878,414.717 207.139,415.561 C207.472,419.79 207.639,422.605 207.639,424.006 C207.639,425.407 207.571,427.899 207.435,431.483 C207.373,437.597 205.29,442.837 201.185,447.201 C197.081,451.566 192.394,453.748 187.123,453.748 C181.852,453.748 177.36,451.876 173.646,448.131 C169.933,444.386 168.076,439.847 168.076,434.514 C168.076,431.712 169.154,429.331 171.31,427.373 C173.519,425.425 176.006,424.451 178.771,424.451 C181.537,424.451 183.8,425.462 185.56,427.483 C187.383,429.368 188.295,431.644 188.295,434.311 C188.295,436.977 187.383,439.222 185.56,441.045 C183.738,442.868 181.555,443.779 179.014,443.779 C177.972,443.779 176.967,443.587 175.998,443.201 C178.863,447.43 182.54,449.545 187.029,449.545 C191.519,449.545 195.36,447.691 198.553,443.983 C201.745,440.274 203.342,435.91 203.342,430.889 L203.623,423.858 M206.748,411.561 C210.133,410.321 212.821,408.123 214.81,404.967 C216.8,401.811 217.795,398.67 217.795,395.545 C217.795,390.92 216.199,386.785 213.006,383.139 C209.813,379.493 205.774,377.441 200.889,376.983 C203.691,390.722 205.644,402.248 206.748,411.561 M168.967,388.998 C168.967,395.446 171.537,401.079 176.678,405.897 C181.818,410.714 187.842,413.123 194.748,413.123 C197.477,413.123 200.144,412.925 202.748,412.529 C201.706,402.634 199.654,390.785 196.592,376.983 C192.758,377.378 189.782,378.699 187.662,380.943 C185.542,383.188 184.482,385.743 184.482,388.608 C184.482,393.555 187.123,397.561 192.404,400.623 C192.852,400.884 193.076,401.324 193.076,401.943 C193.076,402.563 192.865,403.1 192.443,403.553 C192.021,404.006 191.649,404.233 191.326,404.233 C191.003,404.233 190.581,404.17 190.06,404.045 C182.435,399.878 178.623,393.592 178.623,385.186 C178.623,381.217 180.024,377.41 182.826,373.764 C185.753,370.118 189.56,367.774 194.248,366.733 C192.425,359.441 190.93,353.743 189.764,349.639 C180.847,359.67 175.31,367.092 173.154,371.904 C170.363,378.154 168.967,383.852 168.967,388.998 M201.576,289.686 C196.691,292.092 192.834,295.574 190.006,300.131 C187.178,304.688 185.764,309.472 185.764,314.483 C185.764,319.493 186.935,325.972 189.279,333.92 C193.967,328.253 197.514,322.946 199.92,317.998 C202.326,313.05 203.529,308.152 203.529,303.303 C203.529,298.454 202.878,293.915 201.576,289.686"/>
<path class="TimeSig" d="M273.021,317.912 C274.516,317.912 275.949,317.686 277.318,317.232 C278.688,316.779 279.665,316.553 280.248,316.553 C280.831,316.553 281.222,316.907 281.42,317.615 C281.42,317.688 281.352,317.886 281.217,318.209 L252.811,351.225 L269.498,351.225 L269.498,338.131 C269.498,336.506 270.446,335.334 272.342,334.615 C274.29,333.897 276.503,331.001 278.982,325.928 C279.17,325.532 279.462,325.334 279.857,325.334 C280.639,325.334 281.092,325.792 281.217,326.709 L281.217,351.225 L288.357,351.225 C289.264,351.225 289.751,351.712 289.818,352.686 C289.886,353.66 289.399,354.147 288.357,354.147 L281.217,354.147 L281.217,354.928 C281.217,357.532 281.868,359.746 283.17,361.568 C284.67,363.391 286.43,364.303 288.451,364.303 C289.232,364.303 289.623,364.693 289.623,365.475 C289.623,366.256 289.087,366.647 288.014,366.647 C286.941,366.647 284.938,366.436 282.006,366.014 C279.074,365.592 276.811,365.381 275.217,365.381 C273.623,365.381 271.41,365.592 268.576,366.014 C265.743,366.436 263.613,366.647 262.186,366.647 C261.404,366.647 261.014,366.256 261.014,365.475 C261.014,364.693 261.404,364.303 262.186,364.303 C264.196,364.303 265.951,363.391 267.451,361.568 C268.816,359.683 269.498,357.469 269.498,354.928 L269.498,354.147 L252.811,354.147 C251.956,354.147 251.219,353.92 250.6,353.467 C249.98,353.014 249.67,352.592 249.67,352.201 C249.67,351.811 250.485,350.639 252.115,348.686 C253.745,346.732 256.074,342.972 259.1,337.404 C262.126,331.837 263.639,325.438 263.639,318.209 C263.639,317.167 264.097,316.647 265.014,316.647 C265.212,316.647 265.521,316.712 265.943,316.842 C266.365,316.972 267.277,317.183 268.678,317.475 C270.079,317.766 271.527,317.912 273.021,317.912"/>
<path class="TimeSig" d="M273.021,368.084 C274.516,368.084 275.949,367.858 277.318,367.404 C278.688,366.951 279.665,366.725 280.248,366.725 C280.831,366.725 281.222,367.079 281.42,367.787 C281.42,367.86 281.352,368.058 281.217,368.381 L252.811,401.397 L269.498,401.397 L269.498,388.303 C269.498,386.678 270.446,385.506 272.342,384.787 C274.29,384.068 276.503,381.173 278.982,376.1 C279.17,375.704 279.462,375.506 279.857,375.506 C280.639,375.506 281.092,375.964 281.217,376.881 L281.217,401.397 L288.357,401.397 C289.264,401.397 289.751,401.884 289.818,402.858 C289.886,403.831 289.399,404.318 288.357,404.318 L281.217,404.318 L281.217,405.1 C281.217,407.704 281.868,409.917 283.17,411.74 C284.67,413.563 286.43,414.475 288.451,414.475 C289.232,414.475 289.623,414.865 289.623,415.647 C289.623,416.428 289.087,416.818 288.014,416.818 C286.941,416.818 284.938,416.608 282.006,416.186 C279.074,415.764 276.811,415.553 275.217,415.553 C273.623,415.553 271.41,415.764 268.576,416.186 C265.743,416.608 263.613,416.818 262.186,416.818 C261.404,416.818 261.014,416.428 261.014,415.647 C261.014,414.865 261.404,414.475 262.186,414.475 C264.196,414.475 265.951,413.563 267.451,411.74 C268.816,409.855 269.498,407.641 269.498,405.1 L269.498,404.318 L252.811,404.318 C251.956,404.318 251.219,404.092 250.6,403.639 C249.98,403.186 249.67,402.764 249.67,402.373 C249.67,401.983 250.485,400.811 252.115,398.858 C253.745,396.904 256.074,393.144 259.1,387.576 C262.126,382.009 263.639,375.61 263.639,368.381 C263.639,367.339 264.097,366.818 265.014,366.818 C265.212,366.818 265.521,366.884 265.943,367.014 C266.365,367.144 267.277,367.355 268.678,367.647 C270.079,367.938 271.527,368.084 273.021,368.084"/>
<path class="Rest" d="M1586.18,357.357 L1550.63,357.357 C1549.97,357.357 1549.65,357.035 1549.65,356.389 L1549.65,342.717 C1549.65,342.061 1549.97,341.732 1550.63,341.732 L1586.18,341.732 C1586.82,341.732 1587.15,342.061 1587.15,342.717 L1587.15,356.389 C1587.15,357.035 1586.82,357.357 1586.18,357.357"/>
</svg>
