<?xml version="1.0" encoding="UTF-8" standalone="no"?>
<svg width="2977.2px" height="4208.4px" viewBox="0 0 2977.2 4208.4"
 xmlns="http://www.w3.org/2000/svg" xmlns:xlink="http://www.w3.org/1999/xlink" version="1.2" baseProfile="tiny">
<title>Largo_From_The_New_World_Symp.mscx (2)</title>
<desc>Generated by MuseScore Studio 4.3.1</desc>
<path class="" fill="#ffffff" fill-rule="evenodd" d="M0,0 L2977.2,0 L2977.2,4208.4 L0,4208.4 L0,0 "/>
<polyline class="StaffLines" fill="none" stroke="#000000" stroke-width="2.00" stroke-linejoin="bevel" points="141.732,316.732 2835.47,316.732"/>
<polyline class="StaffLines" fill="none" stroke="#000000" stroke-width="2.00" stroke-linejoin="bevel" points="141.732,341.732 2835.47,341.732"/>
<polyline class="StaffLines" fill="none" stroke="#000000" stroke-width="2.00" stroke-linejoin="bevel" points="141.732,366.733 2835.47,366.733"/>
<polyline class="StaffLines" fill="none" stroke="#000000" stroke-width="2.00" stroke-linejoin="bevel" points="141.732,391.733 2835.47,391.733"/>
<polyline class="StaffLines" fill="none" stroke="#000000" stroke-width="2.00" stroke-linejoin="bevel" points="141.732,416.733 2835.47,416.733"/>
<polyline class="StaffLines" fill="none" stroke="#000000" stroke-width="2.00" stroke-linejoin="bevel" points="141.732,791.733 2835.47,791.733"/>
<polyline class="StaffLines" fill="none" stroke="#000000" stroke-width="2.00" stroke-linejoin="bevel" points="141.732,816.733 2835.47,816.733"/>
<polyline class="StaffLines" fill="none" stroke="#000000" stroke-width="2.00" stroke-linejoin="bevel" points="141.732,841.733 2835.47,841.733"/>
<polyline class="StaffLines" fill="none" stroke="#000000" stroke-width="2.00" stroke-linejoin="bevel" points="141.732,866.733 2835.47,866.733"/>
<polyline class="StaffLines" fill="none" stroke="#000000" stroke-width="2.00" stroke-linejoin="bevel" points="141.732,891.733 2835.47,891.733"/>
<path class="MeasureNumber" d="M141.607,257.654 L141.607,260.061 L137.529,260.061 L137.529,266.732 L134.451,266.732 L134.451,260.061 L123.217,260.061 L123.217,257.654 L135.764,239.701 L137.529,239.701 L137.529,257.654 L141.607,257.654 M134.404,257.654 L134.404,243.936 L124.81,257.654 L134.404,257.654 M156.998,258.873 C156.998,257.446 156.683,256.18 156.053,255.076 C155.422,253.972 154.662,253.118 153.771,252.514 C152.881,251.91 151.883,251.412 150.779,251.022 C149.675,250.631 148.714,250.376 147.896,250.256 C147.079,250.136 146.368,250.076 145.764,250.076 C145.441,250.076 145.279,249.967 145.279,249.748 C145.279,249.675 145.29,249.613 145.31,249.561 L149.67,240.264 L158.029,240.264 C158.456,240.264 158.797,240.196 159.053,240.061 C159.308,239.925 159.581,239.644 159.873,239.217 L160.232,239.498 L158.717,242.842 C158.613,243.061 158.305,243.17 157.795,243.17 L149.951,243.17 L148.279,246.607 C152.165,247.305 155.055,248.441 156.951,250.014 C158.847,251.587 159.795,253.894 159.795,256.936 C159.795,258.529 159.547,259.946 159.053,261.186 C158.558,262.425 157.93,263.423 157.17,264.178 C156.409,264.933 155.529,265.553 154.529,266.037 C153.529,266.522 152.571,266.852 151.654,267.029 C150.738,267.206 149.81,267.295 148.873,267.295 C147.383,267.295 146.199,267.074 145.318,266.631 C144.438,266.188 143.998,265.581 143.998,264.811 C143.998,263.821 144.571,263.326 145.717,263.326 C146.467,263.326 147.433,263.735 148.615,264.553 C149.797,265.37 150.738,265.779 151.435,265.779 C153.008,265.779 154.329,265.113 155.396,263.779 C156.464,262.446 156.998,260.811 156.998,258.873"/>
<path class="MeasureNumber" d="M141.107,732.655 L141.107,735.061 L137.029,735.061 L137.029,741.733 L133.951,741.733 L133.951,735.061 L122.717,735.061 L122.717,732.655 L135.264,714.701 L137.029,714.701 L137.029,732.655 L141.107,732.655 M133.904,732.655 L133.904,718.936 L124.31,732.655 L133.904,732.655 M144.576,742.608 L144.451,741.811 C147.493,741.28 150.074,739.983 152.193,737.92 C154.313,735.858 155.784,733.196 156.607,729.936 C154.639,731.478 152.644,732.248 150.623,732.248 C148.456,732.248 146.714,731.501 145.396,730.006 C144.079,728.511 143.42,726.545 143.42,724.108 C143.42,721.399 144.212,719.142 145.795,717.334 C147.378,715.527 149.357,714.623 151.732,714.623 C154.316,714.623 156.435,715.681 158.092,717.795 C159.748,719.91 160.576,722.629 160.576,725.951 C160.576,727.014 160.482,728.108 160.295,729.233 C160.107,730.358 159.672,731.688 158.99,733.225 C158.308,734.761 157.422,736.136 156.334,737.35 C155.245,738.563 153.688,739.665 151.662,740.655 C149.636,741.644 147.274,742.295 144.576,742.608 M152.06,730.498 C152.56,730.498 153.131,730.425 153.771,730.28 C154.412,730.134 155.06,729.813 155.717,729.319 C156.373,728.824 156.701,728.217 156.701,727.498 L156.701,725.951 C156.701,719.191 154.941,715.811 151.42,715.811 C150.587,715.811 149.878,716.032 149.295,716.475 C148.712,716.918 148.266,717.496 147.959,718.209 C147.652,718.923 147.43,719.652 147.295,720.397 C147.159,721.142 147.092,721.931 147.092,722.764 C147.092,725.129 147.54,727.009 148.435,728.405 C149.331,729.8 150.54,730.498 152.06,730.498"/>
<path class="TieSegment" stroke="#000000" stroke-width="1.75" stroke-linecap="round" stroke-linejoin="round" fill-rule="evenodd" d="M1779.08,285.463 C1888.95,241.616 2218.54,241.616 2328.4,285.463 C2218.54,245.616 1888.95,245.616 1779.08,285.463"/>
<path class="TieSegment" stroke="#000000" stroke-width="1.75" stroke-linecap="round" stroke-linejoin="round" fill-rule="evenodd" d="M1761.64,885.502 C1870.17,925.131 2195.77,925.131 2304.31,885.502 C2195.77,929.131 1870.17,929.131 1761.64,885.502"/>
<polyline class="BarLine" fill="none" stroke="#000000" stroke-width="4.00" stroke-linejoin="bevel" points="2833.47,315.732 2833.47,417.733"/>
<polyline class="BarLine" fill="none" stroke="#000000" stroke-width="4.00" stroke-linejoin="bevel" points="2255.05,790.733 2255.05,892.733"/>
<polyline class="BarLine" fill="none" stroke="#000000" stroke-width="4.00" stroke-linejoin="bevel" points="1707.38,790.733 1707.38,892.733"/>
<polyline class="BarLine" fill="none" stroke="#000000" stroke-width="4.00" stroke-linejoin="bevel" points="1019.33,790.733 1019.33,892.733"/>
<polyline class="BarLine" fill="none" stroke="#000000" stroke-width="4.00" stroke-linejoin="bevel" points="2802.72,790.733 2802.72,892.733"/>
<polyline class="BarLine" fill="none" stroke="#000000" stroke-width="12.50" stroke-linejoin="bevel" points="2829.22,790.733 2829.22,892.733"/>
<polyline class="BarLine" fill="none" stroke="#000000" stroke-width="4.00" stroke-linejoin="bevel" points="2279.15,315.732 2279.15,417.733"/>
<polyline class="BarLine" fill="none" stroke="#000000" stroke-width="4.00" stroke-linejoin="bevel" points="1724.83,315.732 1724.83,417.733"/>
<polyline class="BarLine" fill="none" stroke="#000000" stroke-width="4.00" stroke-linejoin="bevel" points="1028.19,315.732 1028.19,417.733"/>
<polyline class="LedgerLine" fill="none" stroke="#000000" stroke-width="4.00" stroke-linejoin="bevel" points="1045.69,291.732 1099.41,291.732"/>
<polyline class="LedgerLine" fill="none" stroke="#000000" stroke-width="4.00" stroke-linejoin="bevel" points="326.432,291.732 380.15,291.732"/>
<polyline class="Stem" fill="none" stroke="#000000" stroke-width="3.25" stroke-linejoin="bevel" points="1056.82,296.632 1056.82,379.233"/>
<polyline class="Stem" fill="none" stroke="#000000" stroke-width="3.25" stroke-linejoin="bevel" points="337.557,296.632 337.557,379.233"/>
<polyline class="Stem" fill="none" stroke="#000000" stroke-width="3.25" stroke-linejoin="bevel" points="1509.84,885.864 1509.84,804.233"/>
<polyline class="Stem" fill="none" stroke="#000000" stroke-width="3.25" stroke-linejoin="bevel" points="369.025,849.433 369.025,772.983"/>
<polyline class="Stem" fill="none" stroke="#000000" stroke-width="3.25" stroke-linejoin="bevel" points="709.271,861.933 709.271,779.233"/>
<polyline class="Stem" fill="none" stroke="#000000" stroke-width="3.25" stroke-linejoin="bevel" points="1079.42,849.433 1079.42,772.983"/>
<polyline class="Stem" fill="none" stroke="#000000" stroke-width="3.25" stroke-linejoin="bevel" points="682.237,309.132 682.237,391.733"/>
<polyline class="Stem" fill="none" stroke="#000000" stroke-width="3.25" stroke-linejoin="bevel" points="1494.66,335.102 1494.66,416.733"/>
<path class="Note" d="M683.599,877.373 C685.485,877.373 689.441,875.42 695.467,871.514 C701.493,867.608 705.042,864.988 706.115,863.655 C707.188,862.321 707.724,861.134 707.724,860.092 C707.724,859.051 707.3,858.123 706.451,857.311 C705.602,856.498 704.626,856.092 703.521,856.092 C701.573,856.092 697.586,858.061 691.56,861.998 C685.534,865.936 682.001,868.556 680.959,869.858 C679.917,871.16 679.396,872.332 679.396,873.373 C679.396,874.415 679.805,875.342 680.623,876.155 C681.441,876.967 682.433,877.373 683.599,877.373 M702.553,852.967 C708.146,852.967 710.943,855.373 710.943,860.186 C710.943,862.53 710.261,865.248 708.896,868.342 C707.532,871.436 705.709,873.795 703.428,875.42 C698.417,878.806 692.136,880.498 684.584,880.498 C678.98,880.498 676.178,878.092 676.178,873.28 C676.178,871.134 676.844,868.465 678.178,865.272 C679.511,862.079 681.349,859.67 683.693,858.045 C688.714,854.66 695.001,852.967 702.553,852.967"/>
<path class="Note" d="M1751.47,872.202 C1754.34,876.045 1758.01,877.967 1762.5,877.967 C1766.99,877.967 1769.24,874.941 1769.24,868.889 C1769.24,866.014 1768.43,863.472 1766.8,861.264 C1764,857.42 1760.22,855.498 1755.47,855.498 C1753.39,855.498 1751.8,856.36 1750.69,858.084 C1749.59,859.808 1749.04,862.04 1749.04,864.78 C1749.04,867.519 1749.85,869.993 1751.47,872.202 M1741.8,856.967 C1746.69,854.301 1752.56,852.967 1759.43,852.967 C1766.3,852.967 1772.1,854.334 1776.82,857.069 C1781.54,859.803 1783.89,863.058 1783.89,866.834 C1783.89,870.61 1781.45,873.832 1776.57,876.498 C1771.68,879.165 1765.84,880.498 1759.04,880.498 C1752.23,880.498 1746.42,879.131 1741.61,876.397 C1736.79,873.663 1734.38,870.376 1734.38,866.538 C1734.38,862.699 1736.85,859.509 1741.8,856.967"/>
<path class="Note" d="M1062.62,302.373 C1064.5,302.373 1068.46,300.42 1074.48,296.514 C1080.51,292.607 1084.06,289.988 1085.13,288.654 C1086.21,287.321 1086.74,286.133 1086.74,285.092 C1086.74,284.05 1086.32,283.123 1085.47,282.311 C1084.62,281.498 1083.64,281.092 1082.54,281.092 C1080.59,281.092 1076.6,283.061 1070.58,286.998 C1064.55,290.936 1061.02,293.555 1059.98,294.857 C1058.93,296.16 1058.41,297.331 1058.41,298.373 C1058.41,299.415 1058.82,300.342 1059.64,301.154 C1060.46,301.967 1061.45,302.373 1062.62,302.373 M1081.57,277.967 C1087.16,277.967 1089.96,280.373 1089.96,285.186 C1089.96,287.529 1089.28,290.248 1087.91,293.342 C1086.55,296.436 1084.73,298.795 1082.44,300.42 C1077.43,303.805 1071.15,305.498 1063.6,305.498 C1058,305.498 1055.19,303.092 1055.19,298.279 C1055.19,296.133 1055.86,293.464 1057.19,290.272 C1058.53,287.079 1060.37,284.67 1062.71,283.045 C1067.73,279.66 1074.02,277.967 1081.57,277.967"/>
<path class="Note" d="M343.354,302.373 C345.239,302.373 349.195,300.42 355.221,296.514 C361.247,292.607 364.796,289.988 365.869,288.654 C366.942,287.321 367.479,286.133 367.479,285.092 C367.479,284.05 367.054,283.123 366.205,282.311 C365.356,281.498 364.38,281.092 363.275,281.092 C361.328,281.092 357.341,283.061 351.315,286.998 C345.288,290.936 341.755,293.555 340.713,294.857 C339.671,296.16 339.15,297.331 339.15,298.373 C339.15,299.415 339.559,300.342 340.377,301.154 C341.195,301.967 342.187,302.373 343.354,302.373 M362.307,277.967 C367.9,277.967 370.697,280.373 370.697,285.186 C370.697,287.529 370.015,290.248 368.65,293.342 C367.286,296.436 365.463,298.795 363.182,300.42 C358.171,303.805 351.89,305.498 344.338,305.498 C338.734,305.498 335.932,303.092 335.932,298.279 C335.932,296.133 336.598,293.464 337.932,290.272 C339.265,287.079 341.104,284.67 343.447,283.045 C348.468,279.66 354.755,277.967 362.307,277.967"/>
<path class="Note" d="M1500.52,877.967 C1503.64,877.967 1506.25,878.748 1508.33,880.311 C1510.41,881.873 1511.45,884.118 1511.45,887.045 C1511.45,891.535 1509.13,895.733 1504.48,899.639 C1499.83,903.545 1494.83,905.498 1489.49,905.498 C1486.36,905.498 1483.73,904.686 1481.58,903.061 C1479.56,901.301 1478.55,899.087 1478.55,896.42 C1478.55,892.056 1480.86,887.889 1485.49,883.92 C1490.11,879.952 1495.12,877.967 1500.52,877.967"/>
<path class="Note" d="M1053.75,864.873 C1055.63,864.873 1059.59,862.92 1065.61,859.014 C1071.64,855.108 1075.19,852.488 1076.26,851.155 C1077.34,849.821 1077.87,848.634 1077.87,847.592 C1077.87,846.551 1077.45,845.623 1076.6,844.811 C1075.75,843.998 1074.77,843.592 1073.67,843.592 C1071.72,843.592 1067.73,845.561 1061.71,849.498 C1055.68,853.436 1052.15,856.056 1051.11,857.358 C1050.07,858.66 1049.54,859.832 1049.54,860.873 C1049.54,861.915 1049.95,862.842 1050.77,863.655 C1051.59,864.467 1052.58,864.873 1053.75,864.873 M1072.7,840.467 C1078.29,840.467 1081.09,842.873 1081.09,847.686 C1081.09,850.03 1080.41,852.748 1079.04,855.842 C1077.68,858.936 1075.86,861.295 1073.58,862.92 C1068.57,866.306 1062.28,867.998 1054.73,867.998 C1049.13,867.998 1046.33,865.592 1046.33,860.78 C1046.33,858.634 1046.99,855.965 1048.33,852.772 C1049.66,849.579 1051.5,847.17 1053.84,845.545 C1058.86,842.16 1065.15,840.467 1072.7,840.467"/>
<path class="Note" d="M688.034,314.873 C689.919,314.873 693.875,312.92 699.901,309.014 C705.927,305.107 709.477,302.488 710.55,301.154 C711.622,299.821 712.159,298.634 712.159,297.592 C712.159,296.55 711.734,295.623 710.886,294.811 C710.037,293.998 709.06,293.592 707.956,293.592 C706.008,293.592 702.021,295.561 695.995,299.498 C689.969,303.436 686.435,306.055 685.393,307.357 C684.352,308.66 683.831,309.831 683.831,310.873 C683.831,311.915 684.24,312.842 685.057,313.654 C685.875,314.467 686.867,314.873 688.034,314.873 M706.987,290.467 C712.581,290.467 715.378,292.873 715.378,297.686 C715.378,300.029 714.695,302.748 713.331,305.842 C711.966,308.936 710.143,311.295 707.862,312.92 C702.852,316.305 696.57,317.998 689.018,317.998 C683.414,317.998 680.612,315.592 680.612,310.779 C680.612,308.634 681.279,305.964 682.612,302.772 C683.945,299.579 685.784,297.17 688.128,295.545 C693.149,292.16 699.435,290.467 706.987,290.467"/>
<path class="Note" d="M343.354,864.873 C345.239,864.873 349.195,862.92 355.221,859.014 C361.247,855.108 364.796,852.488 365.869,851.155 C366.942,849.821 367.479,848.634 367.479,847.592 C367.479,846.551 367.054,845.623 366.205,844.811 C365.356,843.998 364.38,843.592 363.275,843.592 C361.328,843.592 357.341,845.561 351.315,849.498 C345.288,853.436 341.755,856.056 340.713,857.358 C339.671,858.66 339.15,859.832 339.15,860.873 C339.15,861.915 339.559,862.842 340.377,863.655 C341.195,864.467 342.187,864.873 343.354,864.873 M362.307,840.467 C367.9,840.467 370.697,842.873 370.697,847.686 C370.697,850.03 370.015,852.748 368.65,855.842 C367.286,858.936 365.463,861.295 363.182,862.92 C358.171,866.306 351.89,867.998 344.338,867.998 C338.734,867.998 335.932,865.592 335.932,860.78 C335.932,858.634 336.598,855.965 337.932,852.772 C339.265,849.579 341.104,847.17 343.447,845.545 C348.468,842.16 354.755,840.467 362.307,840.467"/>
<path class="Note" d="M2299.14,872.202 C2302.01,876.045 2305.68,877.967 2310.17,877.967 C2314.66,877.967 2316.91,874.941 2316.91,868.889 C2316.91,866.014 2316.1,863.472 2314.47,861.264 C2311.67,857.42 2307.89,855.498 2303.14,855.498 C2301.06,855.498 2299.47,856.36 2298.36,858.084 C2297.26,859.808 2296.7,862.04 2296.7,864.78 C2296.7,867.519 2297.52,869.993 2299.14,872.202 M2289.47,856.967 C2294.36,854.301 2300.23,852.967 2307.1,852.967 C2313.97,852.967 2319.77,854.334 2324.49,857.069 C2329.2,859.803 2331.56,863.058 2331.56,866.834 C2331.56,870.61 2329.12,873.832 2324.24,876.498 C2319.35,879.165 2313.51,880.498 2306.7,880.498 C2299.9,880.498 2294.09,879.131 2289.28,876.397 C2284.46,873.663 2282.05,870.376 2282.05,866.538 C2282.05,862.699 2284.52,859.509 2289.47,856.967"/>
<path class="Note" d="M1515.01,315.467 C1518.13,315.467 1520.74,316.248 1522.82,317.811 C1524.9,319.373 1525.94,321.618 1525.94,324.545 C1525.94,329.035 1523.62,333.232 1518.97,337.139 C1514.32,341.045 1509.32,342.998 1503.98,342.998 C1500.85,342.998 1498.22,342.186 1496.07,340.561 C1494.05,338.8 1493.04,336.587 1493.04,333.92 C1493.04,329.555 1495.35,325.389 1499.98,321.42 C1504.6,317.451 1509.61,315.467 1515.01,315.467"/>
<path class="Note" d="M1768.92,309.701 C1771.78,313.545 1775.46,315.467 1779.95,315.467 C1784.44,315.467 1786.69,312.441 1786.69,306.389 C1786.69,303.514 1785.87,300.972 1784.25,298.764 C1781.45,294.92 1777.67,292.998 1772.92,292.998 C1770.84,292.998 1769.24,293.86 1768.14,295.584 C1767.03,297.308 1766.48,299.54 1766.48,302.279 C1766.48,305.019 1767.29,307.493 1768.92,309.701 M1759.25,294.467 C1764.13,291.8 1770.01,290.467 1776.88,290.467 C1783.75,290.467 1789.54,291.834 1794.26,294.568 C1798.98,297.303 1801.34,300.558 1801.34,304.334 C1801.34,308.11 1798.9,311.331 1794.01,313.998 C1789.13,316.665 1783.28,317.998 1776.48,317.998 C1769.68,317.998 1763.87,316.631 1759.05,313.897 C1754.23,311.162 1751.83,307.876 1751.83,304.037 C1751.83,300.199 1754.3,297.009 1759.25,294.467"/>
<path class="Note" d="M2323.24,309.701 C2326.11,313.545 2329.78,315.467 2334.27,315.467 C2338.76,315.467 2341.01,312.441 2341.01,306.389 C2341.01,303.514 2340.19,300.972 2338.57,298.764 C2335.77,294.92 2331.99,292.998 2327.24,292.998 C2325.16,292.998 2323.56,293.86 2322.46,295.584 C2321.36,297.308 2320.8,299.54 2320.8,302.279 C2320.8,305.019 2321.62,307.493 2323.24,309.701 M2313.57,294.467 C2318.45,291.8 2324.33,290.467 2331.2,290.467 C2338.07,290.467 2343.87,291.834 2348.58,294.568 C2353.3,297.303 2355.66,300.558 2355.66,304.334 C2355.66,308.11 2353.22,311.331 2348.33,313.998 C2343.45,316.665 2337.61,317.998 2330.8,317.998 C2324,317.998 2318.19,316.631 2313.37,313.897 C2308.56,311.162 2306.15,307.876 2306.15,304.037 C2306.15,300.199 2308.62,297.009 2313.57,294.467"/>
<path class="Clef" d="M203.623,423.858 L203.623,421.717 C203.56,420.613 203.399,418.889 203.139,416.545 C199.889,417.066 196.993,417.326 194.451,417.326 C185.337,417.326 177.605,413.727 171.256,406.529 C164.907,399.331 161.732,390.753 161.732,380.795 C161.732,378.128 162.253,374.923 163.295,371.178 C164.337,367.433 165.297,364.925 166.178,363.654 C167.058,362.384 168.378,360.154 170.139,356.967 C170.659,355.988 172.352,353.837 175.217,350.514 C175.738,349.805 176.193,349.222 176.584,348.764 C176.975,348.305 177.607,347.49 178.482,346.318 C179.357,345.147 180.3,344.055 181.31,343.045 C182.321,342.035 183.217,341.058 183.998,340.115 C184.779,339.173 185.498,338.378 186.154,337.733 C183.81,329.983 182.378,324.024 181.857,319.858 C181.337,315.691 181.076,310.579 181.076,304.522 C181.076,298.464 182.378,292.962 184.982,288.014 C187.514,282.878 191.06,278.68 195.623,275.42 C195.883,275.222 196.225,275.123 196.646,275.123 C197.068,275.123 197.378,275.222 197.576,275.42 C201.087,279.649 204.128,285.149 206.701,291.92 C209.274,298.691 210.56,305.024 210.56,310.92 C210.56,316.816 209.066,322.498 206.076,327.967 C202.691,333.759 198.326,339.748 192.982,345.936 C194.347,350.227 196.17,356.962 198.451,366.139 L199.045,366.139 C199.305,366.076 199.529,366.045 199.717,366.045 C207.081,366.045 213.089,368.634 217.74,373.811 C222.391,378.988 224.717,384.962 224.717,391.733 C224.717,400.128 221.238,406.899 214.279,412.045 C212.258,413.545 209.878,414.717 207.139,415.561 C207.472,419.79 207.639,422.605 207.639,424.006 C207.639,425.407 207.571,427.899 207.435,431.483 C207.373,437.597 205.29,442.837 201.185,447.201 C197.081,451.566 192.394,453.748 187.123,453.748 C181.852,453.748 177.36,451.876 173.646,448.131 C169.933,444.386 168.076,439.847 168.076,434.514 C168.076,431.712 169.154,429.331 171.31,427.373 C173.519,425.425 176.006,424.451 178.771,424.451 C181.537,424.451 183.8,425.462 185.56,427.483 C187.383,429.368 188.295,431.644 188.295,434.311 C188.295,436.977 187.383,439.222 185.56,441.045 C183.738,442.868 181.555,443.779 179.014,443.779 C177.972,443.779 176.967,443.587 175.998,443.201 C178.863,447.43 182.54,449.545 187.029,449.545 C191.519,449.545 195.36,447.691 198.553,443.983 C201.745,440.274 203.342,435.91 203.342,430.889 L203.623,423.858 M206.748,411.561 C210.133,410.321 212.821,408.123 214.81,404.967 C216.8,401.811 217.795,398.67 217.795,395.545 C217.795,390.92 216.199,386.785 213.006,383.139 C209.813,379.493 205.774,377.441 200.889,376.983 C203.691,390.722 205.644,402.248 206.748,411.561 M168.967,388.998 C168.967,395.446 171.537,401.079 176.678,405.897 C181.818,410.714 187.842,413.123 194.748,413.123 C197.477,413.123 200.144,412.925 202.748,412.529 C201.706,402.634 199.654,390.785 196.592,376.983 C192.758,377.378 189.782,378.699 187.662,380.943 C185.542,383.188 184.482,385.743 184.482,388.608 C184.482,393.555 187.123,397.561 192.404,400.623 C192.852,400.884 193.076,401.324 193.076,401.943 C193.076,402.563 192.865,403.1 192.443,403.553 C192.021,404.006 191.649,404.233 191.326,404.233 C191.003,404.233 190.581,404.17 190.06,404.045 C182.435,399.878 178.623,393.592 178.623,385.186 C178.623,381.217 180.024,377.41 182.826,373.764 C185.753,370.118 189.56,367.774 194.248,366.733 C192.425,359.441 190.93,353.743 189.764,349.639 C180.847,359.67 175.31,367.092 173.154,371.904 C170.363,378.154 168.967,383.852 168.967,388.998 M201.576,289.686 C196.691,292.092 192.834,295.574 190.006,300.131 C187.178,304.688 185.764,309.472 185.764,314.483 C185.764,319.493 186.935,325.972 189.279,333.92 C193.967,328.253 197.514,322.946 199.92,317.998 C202.326,313.05 203.529,308.152 203.529,303.303 C203.529,298.454 202.878,293.915 201.576,289.686"/>
<path class="Clef" d="M203.623,898.858 L203.623,896.717 C203.56,895.613 203.399,893.889 203.139,891.545 C199.889,892.066 196.993,892.327 194.451,892.327 C185.337,892.327 177.605,888.728 171.256,881.53 C164.907,874.332 161.732,865.754 161.732,855.795 C161.732,853.129 162.253,849.923 163.295,846.178 C164.337,842.433 165.297,839.926 166.178,838.655 C167.058,837.384 168.378,835.155 170.139,831.967 C170.659,830.988 172.352,828.837 175.217,825.514 C175.738,824.806 176.193,824.222 176.584,823.764 C176.975,823.306 177.607,822.491 178.482,821.319 C179.357,820.147 180.3,819.056 181.31,818.045 C182.321,817.035 183.217,816.058 183.998,815.116 C184.779,814.173 185.498,813.379 186.154,812.733 C183.81,804.983 182.378,799.024 181.857,794.858 C181.337,790.691 181.076,785.579 181.076,779.522 C181.076,773.465 182.378,767.962 184.982,763.014 C187.514,757.879 191.06,753.681 195.623,750.42 C195.883,750.222 196.225,750.123 196.646,750.123 C197.068,750.123 197.378,750.222 197.576,750.42 C201.087,754.649 204.128,760.149 206.701,766.92 C209.274,773.691 210.56,780.024 210.56,785.92 C210.56,791.816 209.066,797.498 206.076,802.967 C202.691,808.759 198.326,814.748 192.982,820.936 C194.347,825.228 196.17,831.962 198.451,841.139 L199.045,841.139 C199.305,841.077 199.529,841.045 199.717,841.045 C207.081,841.045 213.089,843.634 217.74,848.811 C222.391,853.988 224.717,859.962 224.717,866.733 C224.717,875.129 221.238,881.899 214.279,887.045 C212.258,888.545 209.878,889.717 207.139,890.561 C207.472,894.79 207.639,897.605 207.639,899.006 C207.639,900.407 207.571,902.899 207.435,906.483 C207.373,912.597 205.29,917.837 201.185,922.202 C197.081,926.566 192.394,928.748 187.123,928.748 C181.852,928.748 177.36,926.876 173.646,923.131 C169.933,919.386 168.076,914.847 168.076,909.514 C168.076,906.712 169.154,904.332 171.31,902.373 C173.519,900.426 176.006,899.452 178.771,899.452 C181.537,899.452 183.8,900.462 185.56,902.483 C187.383,904.368 188.295,906.644 188.295,909.311 C188.295,911.978 187.383,914.222 185.56,916.045 C183.738,917.868 181.555,918.78 179.014,918.78 C177.972,918.78 176.967,918.587 175.998,918.202 C178.863,922.431 182.54,924.545 187.029,924.545 C191.519,924.545 195.36,922.691 198.553,918.983 C201.745,915.274 203.342,910.91 203.342,905.889 L203.623,898.858 M206.748,886.561 C210.133,885.321 212.821,883.123 214.81,879.967 C216.8,876.811 217.795,873.67 217.795,870.545 C217.795,865.92 216.199,861.785 213.006,858.139 C209.813,854.493 205.774,852.441 200.889,851.983 C203.691,865.722 205.644,877.248 206.748,886.561 M168.967,863.998 C168.967,870.446 171.537,876.079 176.678,880.897 C181.818,885.715 187.842,888.123 194.748,888.123 C197.477,888.123 200.144,887.926 202.748,887.53 C201.706,877.634 199.654,865.785 196.592,851.983 C192.758,852.379 189.782,853.699 187.662,855.944 C185.542,858.189 184.482,860.743 184.482,863.608 C184.482,868.556 187.123,872.561 192.404,875.623 C192.852,875.884 193.076,876.324 193.076,876.944 C193.076,877.564 192.865,878.1 192.443,878.553 C192.021,879.006 191.649,879.233 191.326,879.233 C191.003,879.233 190.581,879.17 190.06,879.045 C182.435,874.879 178.623,868.592 178.623,860.186 C178.623,856.217 180.024,852.41 182.826,848.764 C185.753,845.118 189.56,842.774 194.248,841.733 C192.425,834.441 190.93,828.743 189.764,824.639 C180.847,834.67 175.31,842.092 173.154,846.905 C170.363,853.155 168.967,858.853 168.967,863.998 M201.576,764.686 C196.691,767.092 192.834,770.574 190.006,775.131 C187.178,779.689 185.764,784.472 185.764,789.483 C185.764,794.493 186.935,800.972 189.279,808.92 C193.967,803.254 197.514,797.946 199.92,792.998 C202.326,788.051 203.529,783.152 203.529,778.303 C203.529,773.454 202.878,768.915 201.576,764.686"/>
<path class="KeySig" d="M272.412,294.764 C273.85,294.368 274.568,294.722 274.568,295.826 L274.568,303.639 C274.568,304.42 273.949,305.04 272.709,305.498 L269.49,306.764 L269.49,320.936 L272.412,319.764 C273.85,319.368 274.568,319.727 274.568,320.842 L274.568,328.654 C274.568,329.436 273.949,330.05 272.709,330.498 L269.49,331.779 L269.49,347.982 C269.49,349.222 269.001,349.842 268.021,349.842 C267.042,349.842 266.553,349.222 266.553,347.982 L266.553,332.951 L257.271,336.654 L257.271,352.764 C257.271,354.003 256.785,354.623 255.811,354.623 C254.837,354.623 254.35,354.003 254.35,352.764 L254.35,337.826 L251.803,338.904 C250.438,339.488 249.756,339.097 249.756,337.732 L249.756,330.014 C249.756,329.368 250.344,328.785 251.521,328.264 L254.35,327.092 L254.35,312.826 L251.803,313.904 C250.438,314.488 249.756,314.097 249.756,312.732 L249.756,305.014 C249.756,304.357 250.344,303.769 251.521,303.248 L254.35,302.076 L254.35,285.967 C254.35,284.727 254.837,284.107 255.811,284.107 C256.785,284.107 257.271,284.727 257.271,285.967 L257.271,300.904 L266.553,297.107 L266.553,281.186 C266.553,279.946 267.042,279.326 268.021,279.326 C269.001,279.326 269.49,279.946 269.49,281.186 L269.49,295.936 L272.412,294.764 M257.271,311.654 L257.271,325.92 L266.553,322.107 L266.553,307.936 L257.271,311.654 "/>
<path class="KeySig" d="M272.412,769.764 C273.85,769.368 274.568,769.722 274.568,770.827 L274.568,778.639 C274.568,779.42 273.949,780.04 272.709,780.498 L269.49,781.764 L269.49,795.936 L272.412,794.764 C273.85,794.368 274.568,794.728 274.568,795.842 L274.568,803.655 C274.568,804.436 273.949,805.05 272.709,805.498 L269.49,806.78 L269.49,822.983 C269.49,824.222 269.001,824.842 268.021,824.842 C267.042,824.842 266.553,824.222 266.553,822.983 L266.553,807.952 L257.271,811.655 L257.271,827.764 C257.271,829.004 256.785,829.623 255.811,829.623 C254.837,829.623 254.35,829.004 254.35,827.764 L254.35,812.827 L251.803,813.905 C250.438,814.488 249.756,814.097 249.756,812.733 L249.756,805.014 C249.756,804.368 250.344,803.785 251.521,803.264 L254.35,802.092 L254.35,787.827 L251.803,788.905 C250.438,789.488 249.756,789.097 249.756,787.733 L249.756,780.014 C249.756,779.358 250.344,778.769 251.521,778.248 L254.35,777.077 L254.35,760.967 C254.35,759.728 254.837,759.108 255.811,759.108 C256.785,759.108 257.271,759.728 257.271,760.967 L257.271,775.905 L266.553,772.108 L266.553,756.186 C266.553,754.946 267.042,754.327 268.021,754.327 C269.001,754.327 269.49,754.946 269.49,756.186 L269.49,770.936 L272.412,769.764 M257.271,786.655 L257.271,800.92 L266.553,797.108 L266.553,782.936 L257.271,786.655 "/>
<path class="NoteDot" d="M1091.46,858.241 C1090.35,857.131 1089.79,855.795 1089.79,854.233 C1089.79,852.67 1090.35,851.334 1091.46,850.225 C1092.57,849.116 1093.9,848.561 1095.47,848.561 C1097.03,848.561 1098.36,849.116 1099.47,850.225 C1100.57,851.334 1101.12,852.67 1101.12,854.233 C1101.12,855.795 1100.57,857.131 1099.47,858.241 C1098.36,859.35 1097.03,859.905 1095.47,859.905 C1093.9,859.905 1092.57,859.35 1091.46,858.241"/>
<path class="NoteDot" d="M1100.33,283.24 C1099.22,282.131 1098.66,280.795 1098.66,279.232 C1098.66,277.67 1099.22,276.334 1100.33,275.225 C1101.44,274.115 1102.77,273.561 1104.34,273.561 C1105.9,273.561 1107.23,274.115 1108.34,275.225 C1109.44,276.334 1109.99,277.67 1109.99,279.232 C1109.99,280.795 1109.44,282.131 1108.34,283.24 C1107.23,284.35 1105.9,284.904 1104.34,284.904 C1102.77,284.904 1101.44,284.35 1100.33,283.24"/>
<path class="Page" d="M141.953,3976.75 C142.089,3976.14 142.224,3975.61 142.359,3975.15 C142.495,3974.7 142.781,3974.04 143.219,3973.18 C143.656,3972.31 144.148,3971.59 144.695,3971.02 C145.242,3970.45 146.003,3969.93 146.977,3969.48 C147.951,3969.03 149.052,3968.8 150.281,3968.8 C152.354,3968.8 154.104,3969.48 155.531,3970.84 C156.958,3972.2 157.672,3973.87 157.672,3975.86 C157.672,3978.9 155.969,3982.21 152.563,3985.8 L145.844,3992.88 L155.391,3992.88 C156.297,3992.88 156.971,3992.73 157.414,3992.42 C157.857,3992.11 158.453,3991.38 159.203,3990.22 L159.719,3990.43 L157.516,3995.8 L141.922,3995.8 L141.922,3995.33 L149.031,3987.79 C152.5,3984.11 154.234,3980.65 154.234,3977.4 C154.234,3975.71 153.714,3974.34 152.672,3973.29 C151.63,3972.25 150.271,3971.72 148.594,3971.72 C147.208,3971.72 146.096,3972.11 145.258,3972.87 C144.419,3973.64 143.599,3975 142.797,3976.96 L141.953,3976.75 "/>
</svg>
