<?xml version="1.0" encoding="UTF-8" standalone="no"?>
<svg width="2977.2px" height="4208.4px" viewBox="0 0 2977.2 4208.4"
 xmlns="http://www.w3.org/2000/svg" xmlns:xlink="http://www.w3.org/1999/xlink" version="1.2" baseProfile="tiny">
<title>A_Hunting.mscx</title>
<desc>Generated by MuseScore Studio 4.3.1</desc>
<path class="" fill="#ffffff" fill-rule="evenodd" d="M0,0 L2977.2,0 L2977.2,4208.4 L0,4208.4 L0,0 "/>
<polyline class="StaffLines" fill="none" stroke="#000000" stroke-width="2.00" stroke-linejoin="bevel" points="141.732,566.733 2835.47,566.733"/>
<polyline class="StaffLines" fill="none" stroke="#000000" stroke-width="2.00" stroke-linejoin="bevel" points="141.732,591.733 2835.47,591.733"/>
<polyline class="StaffLines" fill="none" stroke="#000000" stroke-width="2.00" stroke-linejoin="bevel" points="141.732,616.733 2835.47,616.733"/>
<polyline class="StaffLines" fill="none" stroke="#000000" stroke-width="2.00" stroke-linejoin="bevel" points="141.732,641.733 2835.47,641.733"/>
<polyline class="StaffLines" fill="none" stroke="#000000" stroke-width="2.00" stroke-linejoin="bevel" points="141.732,666.733 2835.47,666.733"/>
<path class="Text" d="M1077.31,221.451 L1077.31,223.732 L1046.72,223.732 L1046.72,221.451 C1049.91,221.378 1052.11,221.066 1053.31,220.514 C1054.51,219.962 1055.11,218.935 1055.11,217.435 C1055.11,215.55 1054.35,212.909 1052.83,209.514 L1047.9,198.17 L1016.47,198.17 L1010.95,211.998 C1010.32,213.654 1010,215.191 1010,216.607 C1010,219.837 1012.72,221.451 1018.15,221.451 L1018.15,223.732 L994.389,223.732 L994.389,221.451 C997.347,221.295 999.646,220.157 1001.29,218.037 C1002.93,215.917 1005.59,210.498 1009.26,201.779 L1034.23,142.857 L1036.62,142.857 L1066.51,211.014 C1068.43,215.409 1070.03,218.209 1071.31,219.412 C1072.59,220.615 1074.59,221.295 1077.31,221.451 M1018.51,192.889 L1046.23,192.889 L1032.31,159.889 L1018.51,192.889 M1128.04,182.576 L1128.04,211.498 C1128.04,215.654 1128.53,218.331 1129.49,219.529 C1130.45,220.727 1132.7,221.529 1136.22,221.935 L1136.22,223.732 L1110.29,223.732 L1110.29,221.935 C1113.73,221.456 1115.87,220.657 1116.71,219.537 C1117.55,218.417 1117.97,215.738 1117.97,211.498 L1117.97,154.982 C1117.97,152.42 1117.63,150.738 1116.95,149.935 C1116.27,149.133 1114.77,148.732 1112.45,148.732 C1111.89,148.732 1111.21,148.816 1110.4,148.982 L1110.4,147.06 C1116.09,145.54 1121.77,143.779 1127.45,141.779 L1128.04,142.139 L1128.04,178.607 C1130.77,175.014 1133.52,172.435 1136.27,170.873 C1139.03,169.31 1142.16,168.529 1145.69,168.529 C1155.53,168.529 1160.45,174.889 1160.45,187.607 L1160.45,211.498 C1160.45,215.654 1160.83,218.271 1161.59,219.35 C1162.35,220.428 1164.37,221.29 1167.65,221.935 L1167.65,223.732 L1142.22,223.732 L1142.22,221.935 C1145.65,221.613 1147.87,220.81 1148.87,219.529 C1149.87,218.248 1150.37,215.571 1150.37,211.498 L1150.37,187.732 C1150.37,179.253 1147.37,175.014 1141.37,175.014 C1139.05,175.014 1136.87,175.594 1134.83,176.756 C1132.78,177.917 1130.52,179.857 1128.04,182.576 M1225.23,217.498 L1225.23,219.17 C1218.99,220.93 1213.51,222.81 1208.79,224.81 L1208.31,224.56 L1208.31,214.389 C1208.07,214.628 1207.37,215.344 1206.22,216.537 C1205.06,217.73 1204.24,218.555 1203.76,219.014 C1203.28,219.472 1202.46,220.178 1201.3,221.131 C1200.14,222.084 1199.12,222.769 1198.24,223.185 C1197.36,223.602 1196.24,223.998 1194.88,224.373 C1193.52,224.748 1192.16,224.935 1190.79,224.935 C1186.4,224.935 1182.88,223.498 1180.24,220.623 C1177.6,217.748 1176.28,213.92 1176.28,209.139 L1176.28,179.06 C1176.28,176.269 1175.76,174.337 1174.72,173.264 C1173.68,172.191 1171.72,171.576 1168.84,171.42 L1168.84,169.732 L1186.36,169.732 L1186.36,208.654 C1186.36,211.123 1187.2,213.253 1188.88,215.045 C1190.56,216.837 1192.56,217.732 1194.87,217.732 C1195.76,217.732 1196.8,217.613 1198,217.373 C1199.2,217.133 1200.58,216.675 1202.14,215.998 C1203.7,215.321 1205.02,214.248 1206.1,212.779 C1207.18,211.31 1207.72,209.498 1207.72,207.342 L1207.72,179.295 C1207.72,176.347 1207.18,174.396 1206.1,173.443 C1205.02,172.49 1202.6,171.935 1198.84,171.779 L1198.84,169.732 L1217.79,169.732 L1217.79,210.685 C1217.79,213.477 1218.23,215.31 1219.12,216.185 C1220,217.06 1221.84,217.498 1224.64,217.498 L1225.23,217.498 M1227.64,175.857 L1227.64,173.81 C1233.56,172.092 1239.08,170.331 1244.2,168.529 L1245.03,168.764 L1245.03,178.139 C1249.11,174.347 1252.33,171.797 1254.69,170.49 C1257.05,169.183 1259.63,168.529 1262.44,168.529 C1266.83,168.529 1270.29,170.102 1272.81,173.248 C1275.33,176.394 1276.59,180.79 1276.59,186.435 L1276.59,213.998 C1276.59,216.956 1277.07,218.938 1278.03,219.943 C1278.99,220.949 1280.95,221.613 1283.92,221.935 L1283.92,223.732 L1258.95,223.732 L1258.95,221.935 C1261.99,221.696 1264.01,220.894 1265.01,219.529 C1266.01,218.165 1266.51,215.597 1266.51,211.826 L1266.51,186.685 C1266.51,178.904 1263.59,175.014 1257.75,175.014 C1255.75,175.014 1253.91,175.475 1252.23,176.396 C1250.56,177.318 1248.27,179.144 1245.39,181.873 L1245.39,215.67 C1245.39,217.837 1245.95,219.363 1247.07,220.248 C1248.19,221.133 1250.27,221.696 1253.31,221.935 L1253.31,223.732 L1227.87,223.732 L1227.87,221.935 C1230.91,221.696 1232.91,220.993 1233.87,219.826 C1234.83,218.659 1235.31,216.352 1235.31,212.904 L1235.31,183.076 C1235.31,180.107 1234.99,178.081 1234.35,176.998 C1233.71,175.915 1232.55,175.373 1230.87,175.373 C1229.35,175.373 1228.27,175.534 1227.64,175.857 M1315.59,169.732 L1315.59,173.342 L1303.47,173.342 L1303.47,207.654 C1303.47,211.415 1303.95,214.154 1304.91,215.873 C1305.88,217.592 1307.48,218.451 1309.72,218.451 C1312.2,218.451 1314.6,217.05 1316.92,214.248 L1318.47,215.576 C1314.63,221.816 1309.84,224.935 1304.08,224.935 C1296.95,224.935 1293.39,219.831 1293.39,209.623 L1293.39,173.342 L1287.03,173.342 C1286.72,173.113 1286.56,172.847 1286.56,172.545 C1286.56,172.17 1286.68,171.87 1286.92,171.646 C1287.16,171.422 1287.62,171.105 1288.29,170.693 C1288.97,170.282 1289.79,169.691 1290.76,168.92 C1291.72,168.149 1293.04,166.751 1294.72,164.725 C1296.39,162.699 1298.23,160.264 1300.23,157.42 C1301.51,155.555 1302.32,154.42 1302.64,154.014 C1303.19,154.014 1303.47,154.54 1303.47,155.592 L1303.47,169.732 L1315.59,169.732 M1325.9,176.576 C1324.14,176.576 1322.47,176.696 1320.87,176.935 L1320.87,175.139 C1326.47,173.534 1332.66,171.331 1339.47,168.529 L1339.95,168.889 L1339.95,211.498 C1339.95,215.81 1340.45,218.547 1341.45,219.709 C1342.45,220.87 1344.91,221.613 1348.83,221.935 L1348.83,223.732 L1320.39,223.732 L1320.39,221.935 C1324.54,221.696 1327.16,220.975 1328.25,219.771 C1329.33,218.568 1329.87,215.81 1329.87,211.498 L1329.87,183.654 C1329.87,181.019 1329.57,179.18 1328.97,178.139 C1328.36,177.097 1327.34,176.576 1325.9,176.576 M1333.83,141.779 C1335.59,141.779 1337.07,142.378 1338.26,143.576 C1339.46,144.774 1340.06,146.212 1340.06,147.889 C1340.06,149.649 1339.46,151.11 1338.26,152.271 C1337.07,153.433 1335.59,154.014 1333.83,154.014 C1332.15,154.014 1330.73,153.415 1329.57,152.217 C1328.41,151.019 1327.83,149.579 1327.83,147.896 C1327.83,146.214 1328.43,144.774 1329.62,143.576 C1330.82,142.378 1332.22,141.779 1333.83,141.779 M1351.83,175.857 L1351.83,173.81 C1357.74,172.092 1363.26,170.331 1368.39,168.529 L1369.22,168.764 L1369.22,178.139 C1373.3,174.347 1376.52,171.797 1378.88,170.49 C1381.24,169.183 1383.82,168.529 1386.62,168.529 C1391.02,168.529 1394.48,170.102 1397,173.248 C1399.52,176.394 1400.78,180.79 1400.78,186.435 L1400.78,213.998 C1400.78,216.956 1401.26,218.938 1402.22,219.943 C1403.18,220.949 1405.14,221.613 1408.11,221.935 L1408.11,223.732 L1383.14,223.732 L1383.14,221.935 C1386.18,221.696 1388.2,220.894 1389.2,219.529 C1390.2,218.165 1390.7,215.597 1390.7,211.826 L1390.7,186.685 C1390.7,178.904 1387.78,175.014 1381.94,175.014 C1379.94,175.014 1378.1,175.475 1376.42,176.396 C1374.74,177.318 1372.46,179.144 1369.58,181.873 L1369.58,215.67 C1369.58,217.837 1370.14,219.363 1371.26,220.248 C1372.38,221.133 1374.46,221.696 1377.5,221.935 L1377.5,223.732 L1352.06,223.732 L1352.06,221.935 C1355.1,221.696 1357.1,220.993 1358.06,219.826 C1359.02,218.659 1359.5,216.352 1359.5,212.904 L1359.5,183.076 C1359.5,180.107 1359.18,178.081 1358.54,176.998 C1357.9,175.915 1356.74,175.373 1355.06,175.373 C1353.54,175.373 1352.46,175.534 1351.83,175.857 M1416.5,217.154 C1416.5,215.654 1417.04,214.269 1418.12,212.998 C1419.19,211.727 1422.21,208.784 1427.17,204.17 C1423.17,202.159 1420.31,199.909 1418.59,197.42 C1416.87,194.93 1416.01,191.8 1416.01,188.029 C1416.01,182.602 1417.95,177.995 1421.83,174.209 C1425.71,170.422 1430.46,168.529 1436.06,168.529 C1439.18,168.529 1442.51,169.191 1446.08,170.514 C1449.64,171.837 1452.58,172.498 1454.89,172.498 L1464.14,172.498 L1464.14,177.06 L1454.17,177.06 C1455.69,180.508 1456.45,183.883 1456.45,187.185 C1456.45,192.727 1454.59,197.225 1450.87,200.678 C1447.15,204.131 1442.77,205.857 1437.73,205.857 C1436.77,205.857 1434.49,205.654 1430.89,205.248 C1429.29,205.727 1427.7,206.808 1426.1,208.49 C1424.5,210.172 1423.7,211.613 1423.7,212.81 C1423.7,214.727 1426.82,215.805 1433.06,216.045 L1448.53,216.717 C1452.94,216.863 1456.46,218.06 1459.1,220.31 C1461.74,222.56 1463.06,225.503 1463.06,229.139 C1463.06,235.034 1459.76,239.967 1453.15,243.935 C1446.55,247.904 1439.45,249.889 1431.86,249.889 C1426.18,249.889 1421.3,248.756 1417.22,246.49 C1413.13,244.225 1411.09,241.498 1411.09,238.31 C1411.09,235.977 1411.99,233.662 1413.79,231.365 C1415.6,229.068 1418.62,226.295 1422.86,223.045 C1420.38,221.93 1418.7,220.967 1417.82,220.154 C1416.94,219.342 1416.5,218.342 1416.5,217.154 M1425.37,223.373 C1422.89,226.456 1421.29,228.662 1420.58,229.99 C1419.86,231.318 1419.5,232.691 1419.5,234.107 C1419.5,236.909 1421.1,239.159 1424.29,240.857 C1427.49,242.555 1431.73,243.404 1437.01,243.404 C1443.82,243.404 1449.29,242.258 1453.45,239.967 C1457.61,237.675 1459.69,234.706 1459.69,231.06 C1459.69,228.769 1458.57,227.154 1456.33,226.217 C1454.09,225.279 1450.25,224.81 1444.81,224.81 C1436.74,224.81 1430.26,224.331 1425.37,223.373 M1447.22,191.889 C1447.22,190.545 1447.06,188.928 1446.73,187.037 C1446.41,185.146 1445.85,182.998 1445.05,180.592 C1444.26,178.185 1442.98,176.175 1441.22,174.56 C1439.46,172.946 1437.34,172.139 1434.86,172.139 C1432.06,172.139 1429.87,173.107 1428.31,175.045 C1426.75,176.982 1425.97,179.659 1425.97,183.076 C1425.97,189.993 1427.25,195.019 1429.81,198.154 C1432.37,201.29 1435.18,202.857 1438.22,202.857 C1441.02,202.857 1443.22,201.873 1444.82,199.904 C1446.42,197.935 1447.22,195.264 1447.22,191.889 M1535.51,186.529 C1533.35,180.133 1531.69,176.115 1530.53,174.475 C1529.37,172.834 1527.47,171.852 1524.83,171.529 L1524.83,169.732 L1549.19,169.732 L1549.19,171.529 C1546.38,171.935 1544.52,172.417 1543.61,172.975 C1542.69,173.532 1542.23,174.493 1542.23,175.857 C1542.23,176.899 1542.91,179.258 1544.26,182.935 L1554.34,209.81 L1565.15,183.17 C1566.51,179.816 1567.19,177.175 1567.19,175.248 C1567.19,174.217 1566.83,173.441 1566.11,172.92 C1565.39,172.399 1563.99,171.935 1561.9,171.529 L1561.9,169.732 L1576.67,169.732 L1576.67,171.529 C1575.47,171.935 1574.61,172.498 1574.09,173.217 C1573.57,173.935 1572.79,175.534 1571.75,178.014 L1555.19,219.529 C1553.59,223.456 1552.47,225.42 1551.83,225.42 C1551.19,225.42 1550.23,223.696 1548.95,220.248 L1538.03,191.935 L1524.59,220.732 C1523.15,223.857 1522.15,225.42 1521.59,225.42 C1520.95,225.42 1519.9,223.659 1518.47,220.139 L1502.26,179.092 C1501.07,176.05 1500.07,174.071 1499.27,173.154 C1498.47,172.238 1497.35,171.696 1495.9,171.529 L1495.9,169.732 L1517.51,169.732 L1517.51,171.529 C1515.43,171.769 1513.99,172.17 1513.19,172.732 C1512.38,173.295 1511.98,174.217 1511.98,175.498 C1511.98,176.696 1512.23,177.894 1512.72,179.092 L1524.59,210.42 L1535.51,186.529 M1586.5,190.498 C1586.65,195.446 1587.33,199.706 1588.54,203.279 C1589.74,206.852 1591.3,209.521 1593.22,211.287 C1595.13,213.053 1597.07,214.308 1599.04,215.053 C1601,215.797 1603.06,216.17 1605.22,216.17 C1609.06,216.17 1612.4,215.227 1615.24,213.342 C1618.08,211.456 1620.94,208.279 1623.81,203.81 L1625.73,204.623 C1623.25,211.196 1619.81,216.225 1615.41,219.709 C1611.01,223.193 1605.97,224.935 1600.29,224.935 C1593.42,224.935 1587.96,222.503 1583.92,217.639 C1579.88,212.774 1577.86,206.201 1577.86,197.92 C1577.86,189.076 1580.2,181.967 1584.88,176.592 C1589.56,171.217 1595.58,168.529 1602.94,168.529 C1609.02,168.529 1613.74,170.35 1617.1,173.99 C1620.46,177.631 1622.58,183.133 1623.45,190.498 L1586.5,190.498 M1586.73,186.889 L1611.22,186.889 C1610.41,181.691 1609.18,178.092 1607.5,176.092 C1605.82,174.092 1603.14,173.092 1599.45,173.092 C1592.25,173.092 1588.01,177.691 1586.73,186.889 M1698.31,186.529 C1696.14,180.133 1694.48,176.115 1693.33,174.475 C1692.17,172.834 1690.27,171.852 1687.62,171.529 L1687.62,169.732 L1711.98,169.732 L1711.98,171.529 C1709.18,171.935 1707.32,172.417 1706.4,172.975 C1705.49,173.532 1705.03,174.493 1705.03,175.857 C1705.03,176.899 1705.71,179.258 1707.06,182.935 L1717.14,209.81 L1727.95,183.17 C1729.31,179.816 1729.98,177.175 1729.98,175.248 C1729.98,174.217 1729.62,173.441 1728.9,172.92 C1728.19,172.399 1726.78,171.935 1724.7,171.529 L1724.7,169.732 L1739.47,169.732 L1739.47,171.529 C1738.27,171.935 1737.41,172.498 1736.89,173.217 C1736.37,173.935 1735.59,175.534 1734.54,178.014 L1717.98,219.529 C1716.39,223.456 1715.27,225.42 1714.63,225.42 C1713.99,225.42 1713.03,223.696 1711.75,220.248 L1700.83,191.935 L1687.39,220.732 C1685.95,223.857 1684.95,225.42 1684.39,225.42 C1683.74,225.42 1682.7,223.659 1681.26,220.139 L1665.06,179.092 C1663.86,176.05 1662.87,174.071 1662.07,173.154 C1661.27,172.238 1660.15,171.696 1658.7,171.529 L1658.7,169.732 L1680.31,169.732 L1680.31,171.529 C1678.23,171.769 1676.78,172.17 1675.98,172.732 C1675.18,173.295 1674.78,174.217 1674.78,175.498 C1674.78,176.696 1675.02,177.894 1675.51,179.092 L1687.39,210.42 L1698.31,186.529 M1747.5,176.576 C1745.74,176.576 1744.06,176.696 1742.47,176.935 L1742.47,175.139 C1748.06,173.534 1754.26,171.331 1761.06,168.529 L1761.54,168.889 L1761.54,211.498 C1761.54,215.81 1762.04,218.547 1763.04,219.709 C1764.04,220.87 1766.5,221.613 1770.42,221.935 L1770.42,223.732 L1741.98,223.732 L1741.98,221.935 C1746.14,221.696 1748.76,220.975 1749.84,219.771 C1750.93,218.568 1751.47,215.81 1751.47,211.498 L1751.47,183.654 C1751.47,181.019 1751.16,179.18 1750.56,178.139 C1749.96,177.097 1748.94,176.576 1747.5,176.576 M1755.42,141.779 C1757.18,141.779 1758.66,142.378 1759.86,143.576 C1761.06,144.774 1761.65,146.212 1761.65,147.889 C1761.65,149.649 1761.06,151.11 1759.86,152.271 C1758.66,153.433 1757.18,154.014 1755.42,154.014 C1753.74,154.014 1752.32,153.415 1751.16,152.217 C1750,151.019 1749.42,149.579 1749.42,147.896 C1749.42,146.214 1750.02,144.774 1751.22,143.576 C1752.41,142.378 1753.82,141.779 1755.42,141.779 M1773.42,148.982 L1773.42,147.06 C1781.34,145.133 1787.7,143.373 1792.5,141.779 L1792.98,142.014 L1792.98,213.654 C1792.98,216.935 1793.52,219.076 1794.6,220.076 C1795.68,221.076 1798.14,221.696 1801.98,221.935 L1801.98,223.732 L1773.65,223.732 L1773.65,221.935 C1777.41,221.613 1779.89,220.891 1781.09,219.771 C1782.29,218.652 1782.89,216.493 1782.89,213.295 L1782.89,156.06 C1782.89,153.258 1782.53,151.337 1781.81,150.295 C1781.09,149.253 1779.77,148.732 1777.86,148.732 C1776.25,148.732 1774.77,148.816 1773.42,148.982 M1804.37,148.982 L1804.37,147.06 C1812.29,145.133 1818.65,143.373 1823.45,141.779 L1823.94,142.014 L1823.94,213.654 C1823.94,216.935 1824.47,219.076 1825.55,220.076 C1826.63,221.076 1829.09,221.696 1832.94,221.935 L1832.94,223.732 L1804.61,223.732 L1804.61,221.935 C1808.37,221.613 1810.85,220.891 1812.04,219.771 C1813.24,218.652 1813.84,216.493 1813.84,213.295 L1813.84,156.06 C1813.84,153.258 1813.48,151.337 1812.76,150.295 C1812.04,149.253 1810.73,148.732 1808.81,148.732 C1807.21,148.732 1805.73,148.816 1804.37,148.982 M1871.31,217.154 C1871.31,215.654 1871.85,214.269 1872.93,212.998 C1874.01,211.727 1877.02,208.784 1881.98,204.17 C1877.98,202.159 1875.12,199.909 1873.4,197.42 C1871.69,194.93 1870.83,191.8 1870.83,188.029 C1870.83,182.602 1872.77,177.995 1876.65,174.209 C1880.53,170.422 1885.27,168.529 1890.87,168.529 C1893.99,168.529 1897.33,169.191 1900.89,170.514 C1904.45,171.837 1907.39,172.498 1909.7,172.498 L1918.95,172.498 L1918.95,177.06 L1908.98,177.06 C1910.5,180.508 1911.26,183.883 1911.26,187.185 C1911.26,192.727 1909.4,197.225 1905.69,200.678 C1901.97,204.131 1897.59,205.857 1892.54,205.857 C1891.59,205.857 1889.31,205.654 1885.7,205.248 C1884.11,205.727 1882.51,206.808 1880.91,208.49 C1879.31,210.172 1878.51,211.613 1878.51,212.81 C1878.51,214.727 1881.63,215.805 1887.87,216.045 L1903.34,216.717 C1907.75,216.863 1911.27,218.06 1913.91,220.31 C1916.55,222.56 1917.87,225.503 1917.87,229.139 C1917.87,235.034 1914.57,239.967 1907.97,243.935 C1901.36,247.904 1894.26,249.889 1886.67,249.889 C1880.99,249.889 1876.11,248.756 1872.03,246.49 C1867.95,244.225 1865.9,241.498 1865.9,238.31 C1865.9,235.977 1866.81,233.662 1868.61,231.365 C1870.41,229.068 1873.43,226.295 1877.67,223.045 C1875.19,221.93 1873.51,220.967 1872.63,220.154 C1871.75,219.342 1871.31,218.342 1871.31,217.154 M1880.19,223.373 C1877.71,226.456 1876.11,228.662 1875.39,229.99 C1874.67,231.318 1874.31,232.691 1874.31,234.107 C1874.31,236.909 1875.91,239.159 1879.11,240.857 C1882.31,242.555 1886.54,243.404 1891.83,243.404 C1898.63,243.404 1904.11,242.258 1908.26,239.967 C1912.42,237.675 1914.5,234.706 1914.5,231.06 C1914.5,228.769 1913.38,227.154 1911.14,226.217 C1908.9,225.279 1905.06,224.81 1899.62,224.81 C1891.55,224.81 1885.07,224.331 1880.19,223.373 M1902.03,191.889 C1902.03,190.545 1901.87,188.928 1901.54,187.037 C1901.22,185.146 1900.66,182.998 1899.87,180.592 C1899.07,178.185 1897.79,176.175 1896.03,174.56 C1894.27,172.946 1892.15,172.139 1889.67,172.139 C1886.87,172.139 1884.69,173.107 1883.12,175.045 C1881.56,176.982 1880.78,179.659 1880.78,183.076 C1880.78,189.993 1882.06,195.019 1884.62,198.154 C1887.19,201.29 1889.99,202.857 1893.03,202.857 C1895.83,202.857 1898.03,201.873 1899.63,199.904 C1901.23,197.935 1902.03,195.264 1902.03,191.889 M1948.45,168.529 C1956.13,168.529 1962.45,171.092 1967.41,176.217 C1972.38,181.342 1974.86,187.826 1974.86,195.67 C1974.86,203.982 1972.3,210.938 1967.18,216.537 C1962.06,222.136 1955.74,224.935 1948.22,224.935 C1940.7,224.935 1934.44,222.235 1929.44,216.834 C1924.44,211.433 1921.94,204.696 1921.94,196.623 C1921.94,188.383 1924.4,181.641 1929.32,176.396 C1934.24,171.152 1940.62,168.529 1948.45,168.529 M1932.73,190.795 C1932.73,199.274 1934.29,206.482 1937.41,212.42 C1940.53,218.357 1944.61,221.326 1949.65,221.326 C1954.13,221.326 1957.65,219.425 1960.22,215.623 C1962.78,211.821 1964.06,206.555 1964.06,199.826 C1964.06,191.659 1962.46,185.003 1959.26,179.857 C1956.05,174.712 1951.93,172.139 1946.89,172.139 C1942.65,172.139 1939.23,173.842 1936.63,177.248 C1934.03,180.654 1932.73,185.17 1932.73,190.795"/>
<polyline class="BarLine" fill="none" stroke="#000000" stroke-width="4.00" stroke-linejoin="bevel" points="2802.72,565.733 2802.72,667.733"/>
<polyline class="BarLine" fill="none" stroke="#000000" stroke-width="12.50" stroke-linejoin="bevel" points="2829.22,565.733 2829.22,667.733"/>
<polyline class="BarLine" fill="none" stroke="#000000" stroke-width="4.00" stroke-linejoin="bevel" points="2583.87,565.733 2583.87,667.733"/>
<polyline class="BarLine" fill="none" stroke="#000000" stroke-width="4.00" stroke-linejoin="bevel" points="2297.28,565.733 2297.28,667.733"/>
<polyline class="BarLine" fill="none" stroke="#000000" stroke-width="4.00" stroke-linejoin="bevel" points="1985.73,565.733 1985.73,667.733"/>
<polyline class="BarLine" fill="none" stroke="#000000" stroke-width="4.00" stroke-linejoin="bevel" points="1674.18,565.733 1674.18,667.733"/>
<polyline class="BarLine" fill="none" stroke="#000000" stroke-width="4.00" stroke-linejoin="bevel" points="1417.47,565.733 1417.47,667.733"/>
<polyline class="BarLine" fill="none" stroke="#000000" stroke-width="4.00" stroke-linejoin="bevel" points="1130.88,565.733 1130.88,667.733"/>
<polyline class="BarLine" fill="none" stroke="#000000" stroke-width="4.00" stroke-linejoin="bevel" points="874.163,565.733 874.163,667.733"/>
<polyline class="BarLine" fill="none" stroke="#000000" stroke-width="4.00" stroke-linejoin="bevel" points="587.572,565.733 587.572,667.733"/>
<polyline class="Stem" fill="none" stroke="#000000" stroke-width="3.25" stroke-linejoin="bevel" points="1446.09,585.102 1446.09,666.733"/>
<polyline class="Stem" fill="none" stroke="#000000" stroke-width="3.25" stroke-linejoin="bevel" points="2325.91,585.102 2325.91,666.733"/>
<polyline class="Stem" fill="none" stroke="#000000" stroke-width="3.25" stroke-linejoin="bevel" points="2238.99,572.602 2238.99,654.833"/>
<polyline class="Stem" fill="none" stroke="#000000" stroke-width="3.25" stroke-linejoin="bevel" points="1234.38,585.102 1234.38,667.333"/>
<polyline class="Stem" fill="none" stroke="#000000" stroke-width="3.25" stroke-linejoin="bevel" points="2164.12,560.102 2164.12,641.733"/>
<polyline class="Stem" fill="none" stroke="#000000" stroke-width="3.25" stroke-linejoin="bevel" points="1284.3,585.102 1284.3,666.733"/>
<polyline class="Stem" fill="none" stroke="#000000" stroke-width="3.25" stroke-linejoin="bevel" points="2114.2,560.102 2114.2,635.483"/>
<polyline class="Stem" fill="none" stroke="#000000" stroke-width="3.25" stroke-linejoin="bevel" points="1359.18,585.102 1359.18,667.333"/>
<polyline class="Stem" fill="none" stroke="#000000" stroke-width="3.25" stroke-linejoin="bevel" points="2064.28,560.102 2064.28,635.483"/>
<polyline class="Stem" fill="none" stroke="#000000" stroke-width="3.25" stroke-linejoin="bevel" points="1159.5,585.102 1159.5,666.733"/>
<polyline class="Stem" fill="none" stroke="#000000" stroke-width="3.25" stroke-linejoin="bevel" points="2014.36,560.102 2014.36,635.483"/>
<polyline class="Stem" fill="none" stroke="#000000" stroke-width="3.25" stroke-linejoin="bevel" points="1927.44,560.102 1927.44,642.333"/>
<polyline class="Stem" fill="none" stroke="#000000" stroke-width="3.25" stroke-linejoin="bevel" points="1615.89,572.602 1615.89,654.833"/>
<polyline class="Stem" fill="none" stroke="#000000" stroke-width="3.25" stroke-linejoin="bevel" points="1852.57,560.102 1852.57,641.733"/>
<polyline class="Stem" fill="none" stroke="#000000" stroke-width="3.25" stroke-linejoin="bevel" points="1702.81,560.102 1702.81,635.483"/>
<polyline class="Stem" fill="none" stroke="#000000" stroke-width="3.25" stroke-linejoin="bevel" points="1802.65,560.102 1802.65,635.483"/>
<polyline class="Stem" fill="none" stroke="#000000" stroke-width="3.25" stroke-linejoin="bevel" points="1752.73,560.102 1752.73,635.483"/>
<polyline class="Stem" fill="none" stroke="#000000" stroke-width="3.25" stroke-linejoin="bevel" points="815.874,610.102 815.874,686.083"/>
<polyline class="Stem" fill="none" stroke="#000000" stroke-width="3.25" stroke-linejoin="bevel" points="538.174,635.863 538.174,553.533"/>
<polyline class="Stem" fill="none" stroke="#000000" stroke-width="3.25" stroke-linejoin="bevel" points="616.197,610.102 616.197,685.483"/>
<polyline class="Stem" fill="none" stroke="#000000" stroke-width="3.25" stroke-linejoin="bevel" points="2612.5,610.102 2612.5,685.483"/>
<polyline class="Stem" fill="none" stroke="#000000" stroke-width="3.25" stroke-linejoin="bevel" points="691.076,610.102 691.076,686.083"/>
<polyline class="Stem" fill="none" stroke="#000000" stroke-width="3.25" stroke-linejoin="bevel" points="740.995,610.102 740.995,685.483"/>
<polyline class="Stem" fill="none" stroke="#000000" stroke-width="3.25" stroke-linejoin="bevel" points="2525.59,622.602 2525.59,698.583"/>
<polyline class="Stem" fill="none" stroke="#000000" stroke-width="3.25" stroke-linejoin="bevel" points="1072.59,597.602 1072.59,679.833"/>
<polyline class="Stem" fill="none" stroke="#000000" stroke-width="3.25" stroke-linejoin="bevel" points="2450.71,597.602 2450.71,679.233"/>
<polyline class="Stem" fill="none" stroke="#000000" stroke-width="3.25" stroke-linejoin="bevel" points="902.788,610.102 902.788,685.483"/>
<polyline class="Stem" fill="none" stroke="#000000" stroke-width="3.25" stroke-linejoin="bevel" points="2400.79,585.102 2400.79,667.333"/>
<path class="Hook" d="M1093.71,606.873 C1095.21,606.873 1096.79,609.298 1098.46,614.147 C1100.12,618.996 1100.95,623.438 1100.95,627.475 C1100.95,631.511 1100.02,635.418 1098.17,639.194 C1096.31,642.97 1094.08,646.29 1091.48,649.155 L1083.46,658.139 C1080.99,661.004 1078.82,664.29 1076.92,667.998 C1075.03,671.707 1074.09,675.451 1074.09,679.233 L1070.96,679.233 L1070.96,654.233 L1074.09,654.233 C1085.03,647.326 1091.9,641.207 1094.7,635.873 C1096.06,633.269 1096.74,630.634 1096.74,627.967 C1096.74,621.78 1094.95,615.623 1091.37,609.498 L1091.37,609.108 C1091.37,608.524 1091.6,608.006 1092.06,607.553 C1092.52,607.1 1093.07,606.873 1093.71,606.873"/>
<path class="Hook" d="M1948.57,569.373 C1950.07,569.373 1951.65,571.798 1953.31,576.647 C1954.97,581.496 1955.8,585.938 1955.8,589.975 C1955.8,594.011 1954.88,597.918 1953.02,601.694 C1951.17,605.47 1948.94,608.79 1946.34,611.655 L1938.32,620.639 C1935.85,623.504 1933.67,626.79 1931.78,630.498 C1929.89,634.207 1928.94,637.951 1928.94,641.733 L1925.82,641.733 L1925.82,616.733 L1928.94,616.733 C1939.88,609.826 1946.75,603.707 1949.55,598.373 C1950.92,595.769 1951.6,593.134 1951.6,590.467 C1951.6,584.28 1949.81,578.123 1946.23,571.998 L1946.23,571.608 C1946.23,571.024 1946.45,570.506 1946.91,570.053 C1947.37,569.6 1947.92,569.373 1948.57,569.373"/>
<path class="Hook" d="M712.201,613.123 C713.701,613.123 715.282,615.548 716.943,620.397 C718.605,625.246 719.435,629.688 719.435,633.725 C719.435,637.761 718.508,641.668 716.654,645.444 C714.8,649.22 712.571,652.54 709.967,655.405 L701.951,664.389 C699.482,667.254 697.302,670.54 695.412,674.248 C693.521,677.957 692.576,681.701 692.576,685.483 L689.451,685.483 L689.451,660.483 L692.576,660.483 C703.513,653.576 710.383,647.457 713.185,642.123 C714.55,639.519 715.232,636.884 715.232,634.217 C715.232,628.03 713.44,621.873 709.857,615.748 L709.857,615.358 C709.857,614.774 710.086,614.256 710.545,613.803 C711.003,613.35 711.555,613.123 712.201,613.123"/>
<path class="Hook" d="M1637.02,581.873 C1638.52,581.873 1640.1,584.298 1641.76,589.147 C1643.42,593.996 1644.25,598.438 1644.25,602.475 C1644.25,606.511 1643.33,610.418 1641.47,614.194 C1639.62,617.97 1637.39,621.29 1634.78,624.155 L1626.77,633.139 C1624.3,636.004 1622.12,639.29 1620.23,642.998 C1618.34,646.707 1617.39,650.451 1617.39,654.233 L1614.27,654.233 L1614.27,629.233 L1617.39,629.233 C1628.33,622.326 1635.2,616.207 1638,610.873 C1639.37,608.269 1640.05,605.634 1640.05,602.967 C1640.05,596.78 1638.26,590.623 1634.68,584.498 L1634.68,584.108 C1634.68,583.524 1634.9,583.006 1635.36,582.553 C1635.82,582.1 1636.37,581.873 1637.02,581.873"/>
<path class="Hook" d="M2421.91,594.373 C2423.41,594.373 2424.99,596.798 2426.66,601.647 C2428.32,606.496 2429.15,610.938 2429.15,614.975 C2429.15,619.011 2428.22,622.918 2426.37,626.694 C2424.51,630.47 2422.28,633.79 2419.68,636.655 L2411.66,645.639 C2409.19,648.504 2407.01,651.79 2405.12,655.498 C2403.23,659.207 2402.29,662.951 2402.29,666.733 L2399.16,666.733 L2399.16,641.733 L2402.29,641.733 C2413.23,634.826 2420.1,628.707 2422.9,623.373 C2424.26,620.769 2424.94,618.134 2424.94,615.467 C2424.94,609.28 2423.15,603.123 2419.57,596.998 L2419.57,596.608 C2419.57,596.024 2419.8,595.506 2420.26,595.053 C2420.71,594.6 2421.27,594.373 2421.91,594.373"/>
<path class="Hook" d="M836.999,613.123 C838.499,613.123 840.08,615.548 841.741,620.397 C843.403,625.246 844.233,629.688 844.233,633.725 C844.233,637.761 843.306,641.668 841.452,645.444 C839.598,649.22 837.369,652.54 834.764,655.405 L826.749,664.389 C824.28,667.254 822.1,670.54 820.21,674.248 C818.319,677.957 817.374,681.701 817.374,685.483 L814.249,685.483 L814.249,660.483 L817.374,660.483 C828.311,653.576 835.181,647.457 837.983,642.123 C839.348,639.519 840.03,636.884 840.03,634.217 C840.03,628.03 838.238,621.873 834.655,615.748 L834.655,615.358 C834.655,614.774 834.884,614.256 835.343,613.803 C835.801,613.35 836.353,613.123 836.999,613.123"/>
<path class="Hook" d="M2260.12,581.873 C2261.62,581.873 2263.2,584.298 2264.86,589.147 C2266.52,593.996 2267.35,598.438 2267.35,602.475 C2267.35,606.511 2266.43,610.418 2264.57,614.194 C2262.72,617.97 2260.49,621.29 2257.89,624.155 L2249.87,633.139 C2247.4,636.004 2245.22,639.29 2243.33,642.998 C2241.44,646.707 2240.49,650.451 2240.49,654.233 L2237.37,654.233 L2237.37,629.233 L2240.49,629.233 C2251.43,622.326 2258.3,616.207 2261.1,610.873 C2262.47,608.269 2263.15,605.634 2263.15,602.967 C2263.15,596.78 2261.36,590.623 2257.78,584.498 L2257.78,584.108 C2257.78,583.524 2258.01,583.006 2258.46,582.553 C2258.92,582.1 2259.47,581.873 2260.12,581.873"/>
<path class="Hook" d="M2546.71,625.623 C2548.21,625.623 2549.79,628.048 2551.45,632.897 C2553.11,637.746 2553.95,642.188 2553.95,646.225 C2553.95,650.261 2553.02,654.168 2551.16,657.944 C2549.31,661.72 2547.08,665.04 2544.48,667.905 L2536.46,676.889 C2533.99,679.754 2531.81,683.04 2529.92,686.748 C2528.03,690.457 2527.09,694.201 2527.09,697.983 L2523.96,697.983 L2523.96,672.983 L2527.09,672.983 C2538.02,666.076 2544.89,659.957 2547.7,654.623 C2549.06,652.019 2549.74,649.384 2549.74,646.717 C2549.74,640.53 2547.95,634.373 2544.37,628.248 L2544.37,627.858 C2544.37,627.274 2544.6,626.756 2545.05,626.303 C2545.51,625.85 2546.06,625.623 2546.71,625.623"/>
<path class="Hook" d="M1380.3,594.373 C1381.8,594.373 1383.39,596.798 1385.05,601.647 C1386.71,606.496 1387.54,610.938 1387.54,614.975 C1387.54,619.011 1386.61,622.918 1384.76,626.694 C1382.9,630.47 1380.67,633.79 1378.07,636.655 L1370.05,645.639 C1367.59,648.504 1365.41,651.79 1363.52,655.498 C1361.62,659.207 1360.68,662.951 1360.68,666.733 L1357.55,666.733 L1357.55,641.733 L1360.68,641.733 C1371.62,634.826 1378.49,628.707 1381.29,623.373 C1382.65,620.769 1383.34,618.134 1383.34,615.467 C1383.34,609.28 1381.54,603.123 1377.96,596.998 L1377.96,596.608 C1377.96,596.024 1378.19,595.506 1378.65,595.053 C1379.11,594.6 1379.66,594.373 1380.3,594.373"/>
<path class="Hook" d="M536.549,579.233 L536.549,554.233 L539.674,554.233 C539.674,557.941 540.424,561.733 541.924,565.608 C543.424,569.483 544.986,572.707 546.611,575.279 C548.236,577.852 550.252,581.092 552.658,584.998 C557.939,593.529 560.58,601.115 560.58,607.756 C560.58,614.397 559.179,621.233 556.377,628.264 C555.856,629.045 555.254,629.436 554.572,629.436 C553.89,629.436 553.319,629.207 552.861,628.748 C552.403,628.29 552.174,627.769 552.174,627.186 L552.174,626.701 C554.976,620.253 556.377,613.873 556.377,607.561 C556.377,604.3 555.385,600.751 553.4,596.912 C551.416,593.074 549.364,589.933 547.244,587.49 C545.124,585.048 542.601,582.295 539.674,579.233 L536.549,579.233 "/>
<path class="Hook" d="M1255.51,594.373 C1257.01,594.373 1258.59,596.798 1260.25,601.647 C1261.91,606.496 1262.74,610.938 1262.74,614.975 C1262.74,619.011 1261.81,622.918 1259.96,626.694 C1258.11,630.47 1255.88,633.79 1253.27,636.655 L1245.26,645.639 C1242.79,648.504 1240.61,651.79 1238.72,655.498 C1236.83,659.207 1235.88,662.951 1235.88,666.733 L1232.76,666.733 L1232.76,641.733 L1235.88,641.733 C1246.82,634.826 1253.69,628.707 1256.49,623.373 C1257.86,620.769 1258.54,618.134 1258.54,615.467 C1258.54,609.28 1256.75,603.123 1253.16,596.998 L1253.16,596.608 C1253.16,596.024 1253.39,595.506 1253.85,595.053 C1254.31,594.6 1254.86,594.373 1255.51,594.373"/>
<path class="Note" d="M1822.99,540.467 C1826.12,540.467 1828.72,541.248 1830.8,542.811 C1832.89,544.373 1833.93,546.618 1833.93,549.545 C1833.93,554.035 1831.6,558.233 1826.95,562.139 C1822.3,566.045 1817.3,567.998 1811.96,567.998 C1808.83,567.998 1806.2,567.186 1804.05,565.561 C1802.03,563.8 1801.02,561.587 1801.02,558.92 C1801.02,554.556 1803.33,550.389 1807.96,546.42 C1812.58,542.451 1817.59,540.467 1822.99,540.467"/>
<path class="Note" d="M2346.25,565.467 C2349.38,565.467 2351.98,566.248 2354.07,567.811 C2356.15,569.373 2357.19,571.618 2357.19,574.545 C2357.19,579.035 2354.86,583.233 2350.21,587.139 C2345.56,591.045 2340.57,592.998 2335.22,592.998 C2332.1,592.998 2329.46,592.186 2327.32,590.561 C2325.29,588.8 2324.28,586.587 2324.28,583.92 C2324.28,579.556 2326.6,575.389 2331.22,571.42 C2335.85,567.451 2340.86,565.467 2346.25,565.467"/>
<path class="Note" d="M2632.84,590.467 C2635.97,590.467 2638.57,591.248 2640.66,592.811 C2642.74,594.373 2643.78,596.618 2643.78,599.545 C2643.78,604.035 2641.46,608.233 2636.8,612.139 C2632.15,616.045 2627.16,617.998 2621.81,617.998 C2618.69,617.998 2616.05,617.186 2613.91,615.561 C2611.89,613.8 2610.87,611.587 2610.87,608.92 C2610.87,604.556 2613.19,600.389 2617.81,596.42 C2622.44,592.451 2627.45,590.467 2632.84,590.467"/>
<path class="Note" d="M2259.34,552.967 C2262.46,552.967 2265.07,553.748 2267.15,555.311 C2269.23,556.873 2270.28,559.118 2270.28,562.045 C2270.28,566.535 2267.95,570.733 2263.3,574.639 C2258.65,578.545 2253.65,580.498 2248.31,580.498 C2245.18,580.498 2242.55,579.686 2240.4,578.061 C2238.38,576.3 2237.37,574.087 2237.37,571.42 C2237.37,567.056 2239.68,562.889 2244.31,558.92 C2248.93,554.951 2253.94,552.967 2259.34,552.967"/>
<path class="Note" d="M1872.91,540.467 C1876.03,540.467 1878.64,541.248 1880.72,542.811 C1882.81,544.373 1883.85,546.618 1883.85,549.545 C1883.85,554.035 1881.52,558.233 1876.87,562.139 C1872.22,566.045 1867.22,567.998 1861.88,567.998 C1858.75,567.998 1856.12,567.186 1853.97,565.561 C1851.95,563.8 1850.94,561.587 1850.94,558.92 C1850.94,554.556 1853.25,550.389 1857.88,546.42 C1862.5,542.451 1867.51,540.467 1872.91,540.467"/>
<path class="Note" d="M1773.07,540.467 C1776.2,540.467 1778.8,541.248 1780.88,542.811 C1782.97,544.373 1784.01,546.618 1784.01,549.545 C1784.01,554.035 1781.68,558.233 1777.03,562.139 C1772.38,566.045 1767.38,567.998 1762.04,567.998 C1758.91,567.998 1756.28,567.186 1754.13,565.561 C1752.11,563.8 1751.1,561.587 1751.1,558.92 C1751.1,554.556 1753.41,550.389 1758.04,546.42 C1762.66,542.451 1767.68,540.467 1773.07,540.467"/>
<path class="Note" d="M528.853,627.967 C531.978,627.967 534.582,628.748 536.666,630.311 C538.749,631.873 539.791,634.118 539.791,637.045 C539.791,641.535 537.465,645.733 532.814,649.639 C528.163,653.545 523.166,655.498 517.822,655.498 C514.697,655.498 512.062,654.686 509.916,653.061 C507.895,651.3 506.885,649.087 506.885,646.42 C506.885,642.056 509.197,637.889 513.822,633.92 C518.447,629.951 523.457,627.967 528.853,627.967"/>
<path class="Note" d="M1947.79,540.467 C1950.91,540.467 1953.52,541.248 1955.6,542.811 C1957.68,544.373 1958.73,546.618 1958.73,549.545 C1958.73,554.035 1956.4,558.233 1951.75,562.139 C1947.1,566.045 1942.1,567.998 1936.76,567.998 C1933.63,567.998 1931,567.186 1928.85,565.561 C1926.83,563.8 1925.82,561.587 1925.82,558.92 C1925.82,554.556 1928.13,550.389 1932.76,546.42 C1937.38,542.451 1942.39,540.467 1947.79,540.467"/>
<path class="Note" d="M2184.46,540.467 C2187.58,540.467 2190.19,541.248 2192.27,542.811 C2194.36,544.373 2195.4,546.618 2195.4,549.545 C2195.4,554.035 2193.07,558.233 2188.42,562.139 C2183.77,566.045 2178.77,567.998 2173.43,567.998 C2170.3,567.998 2167.67,567.186 2165.52,565.561 C2163.5,563.8 2162.49,561.587 2162.49,558.92 C2162.49,554.556 2164.8,550.389 2169.43,546.42 C2174.05,542.451 2179.06,540.467 2184.46,540.467"/>
<path class="Note" d="M2545.93,602.967 C2549.05,602.967 2551.66,603.748 2553.74,605.311 C2555.83,606.873 2556.87,609.118 2556.87,612.045 C2556.87,616.535 2554.54,620.733 2549.89,624.639 C2545.24,628.545 2540.24,630.498 2534.9,630.498 C2531.77,630.498 2529.14,629.686 2526.99,628.061 C2524.97,626.3 2523.96,624.087 2523.96,621.42 C2523.96,617.056 2526.27,612.889 2530.9,608.92 C2535.52,604.951 2540.53,602.967 2545.93,602.967"/>
<path class="Note" d="M2034.7,540.467 C2037.83,540.467 2040.43,541.248 2042.51,542.811 C2044.6,544.373 2045.64,546.618 2045.64,549.545 C2045.64,554.035 2043.31,558.233 2038.66,562.139 C2034.01,566.045 2029.01,567.998 2023.67,567.998 C2020.55,567.998 2017.91,567.186 2015.76,565.561 C2013.74,563.8 2012.73,561.587 2012.73,558.92 C2012.73,554.556 2015.05,550.389 2019.67,546.42 C2024.3,542.451 2029.31,540.467 2034.7,540.467"/>
<path class="Note" d="M2084.62,540.467 C2087.75,540.467 2090.35,541.248 2092.43,542.811 C2094.52,544.373 2095.56,546.618 2095.56,549.545 C2095.56,554.035 2093.23,558.233 2088.58,562.139 C2083.93,566.045 2078.93,567.998 2073.59,567.998 C2070.47,567.998 2067.83,567.186 2065.68,565.561 C2063.66,563.8 2062.65,561.587 2062.65,558.92 C2062.65,554.556 2064.97,550.389 2069.59,546.42 C2074.22,542.451 2079.23,540.467 2084.62,540.467"/>
<path class="Note" d="M2471.05,577.967 C2474.18,577.967 2476.78,578.748 2478.86,580.311 C2480.95,581.873 2481.99,584.118 2481.99,587.045 C2481.99,591.535 2479.66,595.733 2475.01,599.639 C2470.36,603.545 2465.36,605.498 2460.02,605.498 C2456.89,605.498 2454.26,604.686 2452.11,603.061 C2450.09,601.3 2449.08,599.087 2449.08,596.42 C2449.08,592.056 2451.39,587.889 2456.02,583.92 C2460.64,579.951 2465.65,577.967 2471.05,577.967"/>
<path class="Note" d="M2134.54,540.467 C2137.67,540.467 2140.27,541.248 2142.35,542.811 C2144.44,544.373 2145.48,546.618 2145.48,549.545 C2145.48,554.035 2143.15,558.233 2138.5,562.139 C2133.85,566.045 2128.85,567.998 2123.51,567.998 C2120.38,567.998 2117.75,567.186 2115.6,565.561 C2113.58,563.8 2112.57,561.587 2112.57,558.92 C2112.57,554.556 2114.88,550.389 2119.51,546.42 C2124.13,542.451 2129.14,540.467 2134.54,540.467"/>
<path class="Note" d="M2421.13,565.467 C2424.26,565.467 2426.86,566.248 2428.94,567.811 C2431.03,569.373 2432.07,571.618 2432.07,574.545 C2432.07,579.035 2429.74,583.233 2425.09,587.139 C2420.44,591.045 2415.44,592.998 2410.1,592.998 C2406.98,592.998 2404.34,592.186 2402.19,590.561 C2400.17,588.8 2399.16,586.587 2399.16,583.92 C2399.16,579.556 2401.48,575.389 2406.1,571.42 C2410.73,567.451 2415.74,565.467 2421.13,565.467"/>
<path class="Note" d="M711.42,590.467 C714.545,590.467 717.149,591.248 719.232,592.811 C721.315,594.373 722.357,596.618 722.357,599.545 C722.357,604.035 720.032,608.233 715.381,612.139 C710.73,616.045 705.732,617.998 700.388,617.998 C697.263,617.998 694.628,617.186 692.482,615.561 C690.461,613.8 689.451,611.587 689.451,608.92 C689.451,604.556 691.763,600.389 696.388,596.42 C701.013,592.451 706.024,590.467 711.42,590.467"/>
<path class="Note" d="M1379.52,565.467 C1382.65,565.467 1385.25,566.248 1387.34,567.811 C1389.42,569.373 1390.46,571.618 1390.46,574.545 C1390.46,579.035 1388.14,583.233 1383.48,587.139 C1378.83,591.045 1373.84,592.998 1368.49,592.998 C1365.37,592.998 1362.73,592.186 1360.59,590.561 C1358.56,588.8 1357.55,586.587 1357.55,583.92 C1357.55,579.556 1359.87,575.389 1364.49,571.42 C1369.12,567.451 1374.13,565.467 1379.52,565.467"/>
<path class="Note" d="M836.218,590.467 C839.343,590.467 841.947,591.248 844.03,592.811 C846.113,594.373 847.155,596.618 847.155,599.545 C847.155,604.035 844.83,608.233 840.179,612.139 C835.528,616.045 830.53,617.998 825.186,617.998 C822.061,617.998 819.426,617.186 817.28,615.561 C815.259,613.8 814.249,611.587 814.249,608.92 C814.249,604.556 816.561,600.389 821.186,596.42 C825.811,592.451 830.822,590.467 836.218,590.467"/>
<path class="Note" d="M1304.64,565.467 C1307.77,565.467 1310.37,566.248 1312.46,567.811 C1314.54,569.373 1315.58,571.618 1315.58,574.545 C1315.58,579.035 1313.26,583.233 1308.61,587.139 C1303.95,591.045 1298.96,592.998 1293.61,592.998 C1290.49,592.998 1287.85,592.186 1285.71,590.561 C1283.69,588.8 1282.68,586.587 1282.68,583.92 C1282.68,579.556 1284.99,575.389 1289.61,571.42 C1294.24,567.451 1299.25,565.467 1304.64,565.467"/>
<path class="Note" d="M761.339,590.467 C764.464,590.467 767.068,591.248 769.151,592.811 C771.235,594.373 772.276,596.618 772.276,599.545 C772.276,604.035 769.951,608.233 765.3,612.139 C760.649,616.045 755.651,617.998 750.308,617.998 C747.183,617.998 744.547,617.186 742.401,615.561 C740.381,613.8 739.37,611.587 739.37,608.92 C739.37,604.556 741.683,600.389 746.308,596.42 C750.933,592.451 755.943,590.467 761.339,590.467"/>
<path class="Note" d="M1466.44,565.467 C1469.56,565.467 1472.17,566.248 1474.25,567.811 C1476.33,569.373 1477.37,571.618 1477.37,574.545 C1477.37,579.035 1475.05,583.233 1470.4,587.139 C1465.75,591.045 1460.75,592.998 1455.41,592.998 C1452.28,592.998 1449.65,592.186 1447.5,590.561 C1445.48,588.8 1444.47,586.587 1444.47,583.92 C1444.47,579.556 1446.78,575.389 1451.41,571.42 C1456.03,567.451 1461.04,565.467 1466.44,565.467"/>
<path class="Note" d="M1254.73,565.467 C1257.85,565.467 1260.45,566.248 1262.54,567.811 C1264.62,569.373 1265.66,571.618 1265.66,574.545 C1265.66,579.035 1263.34,583.233 1258.69,587.139 C1254.04,591.045 1249.04,592.998 1243.69,592.998 C1240.57,592.998 1237.93,592.186 1235.79,590.561 C1233.77,588.8 1232.76,586.587 1232.76,583.92 C1232.76,579.556 1235.07,575.389 1239.69,571.42 C1244.32,567.451 1249.33,565.467 1254.73,565.467"/>
<path class="Note" d="M923.132,590.467 C926.257,590.467 928.861,591.248 930.944,592.811 C933.028,594.373 934.069,596.618 934.069,599.545 C934.069,604.035 931.744,608.233 927.093,612.139 C922.442,616.045 917.444,617.998 912.1,617.998 C908.975,617.998 906.34,617.186 904.194,615.561 C902.173,613.8 901.163,611.587 901.163,608.92 C901.163,604.556 903.475,600.389 908.1,596.42 C912.725,592.451 917.736,590.467 923.132,590.467"/>
<path class="Note" d="M1179.85,565.467 C1182.97,565.467 1185.58,566.248 1187.66,567.811 C1189.74,569.373 1190.78,571.618 1190.78,574.545 C1190.78,579.035 1188.46,583.233 1183.81,587.139 C1179.16,591.045 1174.16,592.998 1168.82,592.998 C1165.69,592.998 1163.05,592.186 1160.91,590.561 C1158.89,588.8 1157.88,586.587 1157.88,583.92 C1157.88,579.556 1160.19,575.389 1164.82,571.42 C1169.44,567.451 1174.45,565.467 1179.85,565.467"/>
<path class="Note" d="M1636.24,552.967 C1639.36,552.967 1641.97,553.748 1644.05,555.311 C1646.13,556.873 1647.18,559.118 1647.18,562.045 C1647.18,566.535 1644.85,570.733 1640.2,574.639 C1635.55,578.545 1630.55,580.498 1625.21,580.498 C1622.08,580.498 1619.45,579.686 1617.3,578.061 C1615.28,576.3 1614.27,574.087 1614.27,571.42 C1614.27,567.056 1616.58,562.889 1621.21,558.92 C1625.83,554.951 1630.84,552.967 1636.24,552.967"/>
<path class="Note" d="M636.541,590.467 C639.666,590.467 642.27,591.248 644.353,592.811 C646.437,594.373 647.478,596.618 647.478,599.545 C647.478,604.035 645.153,608.233 640.502,612.139 C635.851,616.045 630.853,617.998 625.51,617.998 C622.385,617.998 619.749,617.186 617.603,615.561 C615.583,613.8 614.572,611.587 614.572,608.92 C614.572,604.556 616.885,600.389 621.51,596.42 C626.135,592.451 631.145,590.467 636.541,590.467"/>
<path class="Note" d="M1723.15,540.467 C1726.28,540.467 1728.88,541.248 1730.96,542.811 C1733.05,544.373 1734.09,546.618 1734.09,549.545 C1734.09,554.035 1731.76,558.233 1727.11,562.139 C1722.46,566.045 1717.46,567.998 1712.12,567.998 C1709,567.998 1706.36,567.186 1704.21,565.561 C1702.19,563.8 1701.18,561.587 1701.18,558.92 C1701.18,554.556 1703.5,550.389 1708.12,546.42 C1712.75,542.451 1717.76,540.467 1723.15,540.467"/>
<path class="Note" d="M1092.93,577.967 C1096.06,577.967 1098.66,578.748 1100.74,580.311 C1102.83,581.873 1103.87,584.118 1103.87,587.045 C1103.87,591.535 1101.54,595.733 1096.89,599.639 C1092.24,603.545 1087.24,605.498 1081.9,605.498 C1078.78,605.498 1076.14,604.686 1073.99,603.061 C1071.97,601.3 1070.96,599.087 1070.96,596.42 C1070.96,592.056 1073.28,587.889 1077.9,583.92 C1082.53,579.951 1087.54,577.967 1092.93,577.967"/>
<path class="Clef" d="M203.623,673.858 L203.623,671.717 C203.56,670.613 203.399,668.889 203.139,666.545 C199.889,667.066 196.993,667.326 194.451,667.326 C185.337,667.326 177.605,663.727 171.256,656.53 C164.907,649.332 161.732,640.754 161.732,630.795 C161.732,628.129 162.253,624.923 163.295,621.178 C164.337,617.433 165.297,614.925 166.178,613.655 C167.058,612.384 168.378,610.155 170.139,606.967 C170.659,605.988 172.352,603.837 175.217,600.514 C175.738,599.806 176.193,599.222 176.584,598.764 C176.975,598.306 177.607,597.49 178.482,596.319 C179.357,595.147 180.3,594.056 181.31,593.045 C182.321,592.035 183.217,591.058 183.998,590.115 C184.779,589.173 185.498,588.379 186.154,587.733 C183.81,579.983 182.378,574.024 181.857,569.858 C181.337,565.691 181.076,560.579 181.076,554.522 C181.076,548.464 182.378,542.962 184.982,538.014 C187.514,532.879 191.06,528.681 195.623,525.42 C195.883,525.222 196.225,525.123 196.646,525.123 C197.068,525.123 197.378,525.222 197.576,525.42 C201.087,529.649 204.128,535.149 206.701,541.92 C209.274,548.691 210.56,555.024 210.56,560.92 C210.56,566.816 209.066,572.498 206.076,577.967 C202.691,583.759 198.326,589.748 192.982,595.936 C194.347,600.227 196.17,606.962 198.451,616.139 L199.045,616.139 C199.305,616.076 199.529,616.045 199.717,616.045 C207.081,616.045 213.089,618.634 217.74,623.811 C222.391,628.988 224.717,634.962 224.717,641.733 C224.717,650.129 221.238,656.899 214.279,662.045 C212.258,663.545 209.878,664.717 207.139,665.561 C207.472,669.79 207.639,672.605 207.639,674.006 C207.639,675.407 207.571,677.899 207.435,681.483 C207.373,687.597 205.29,692.837 201.185,697.201 C197.081,701.566 192.394,703.748 187.123,703.748 C181.852,703.748 177.36,701.876 173.646,698.131 C169.933,694.386 168.076,689.847 168.076,684.514 C168.076,681.712 169.154,679.332 171.31,677.373 C173.519,675.425 176.006,674.451 178.771,674.451 C181.537,674.451 183.8,675.462 185.56,677.483 C187.383,679.368 188.295,681.644 188.295,684.311 C188.295,686.977 187.383,689.222 185.56,691.045 C183.738,692.868 181.555,693.78 179.014,693.78 C177.972,693.78 176.967,693.587 175.998,693.201 C178.863,697.431 182.54,699.545 187.029,699.545 C191.519,699.545 195.36,697.691 198.553,693.983 C201.745,690.274 203.342,685.91 203.342,680.889 L203.623,673.858 M206.748,661.561 C210.133,660.321 212.821,658.123 214.81,654.967 C216.8,651.811 217.795,648.67 217.795,645.545 C217.795,640.92 216.199,636.785 213.006,633.139 C209.813,629.493 205.774,627.441 200.889,626.983 C203.691,640.722 205.644,652.248 206.748,661.561 M168.967,638.998 C168.967,645.446 171.537,651.079 176.678,655.897 C181.818,660.714 187.842,663.123 194.748,663.123 C197.477,663.123 200.144,662.925 202.748,662.53 C201.706,652.634 199.654,640.785 196.592,626.983 C192.758,627.379 189.782,628.699 187.662,630.944 C185.542,633.188 184.482,635.743 184.482,638.608 C184.482,643.556 187.123,647.561 192.404,650.623 C192.852,650.884 193.076,651.324 193.076,651.944 C193.076,652.563 192.865,653.1 192.443,653.553 C192.021,654.006 191.649,654.233 191.326,654.233 C191.003,654.233 190.581,654.17 190.06,654.045 C182.435,649.879 178.623,643.592 178.623,635.186 C178.623,631.217 180.024,627.41 182.826,623.764 C185.753,620.118 189.56,617.774 194.248,616.733 C192.425,609.441 190.93,603.743 189.764,599.639 C180.847,609.67 175.31,617.092 173.154,621.905 C170.363,628.155 168.967,633.852 168.967,638.998 M201.576,539.686 C196.691,542.092 192.834,545.574 190.006,550.131 C187.178,554.688 185.764,559.472 185.764,564.483 C185.764,569.493 186.935,575.972 189.279,583.92 C193.967,578.254 197.514,572.946 199.92,567.998 C202.326,563.05 203.529,558.152 203.529,553.303 C203.529,548.454 202.878,543.915 201.576,539.686"/>
<path class="TimeSig" d="M273.482,594.076 C272.701,592.118 271.04,591.139 268.498,591.139 C265.956,591.139 264.394,592.118 263.811,594.076 C263.352,595.514 263.123,597.925 263.123,601.311 L263.123,604.233 C263.123,607.618 263.352,610.03 263.811,611.467 C264.394,613.415 265.988,614.389 268.592,614.389 C271.196,614.389 272.839,613.282 273.521,611.069 C274.204,608.855 274.545,605.959 274.545,602.381 C274.545,598.803 274.191,596.035 273.482,594.076 M263.123,590.17 C265.081,589.389 266.842,588.931 268.404,588.795 C273.613,588.795 277.779,589.972 280.904,592.326 C283.894,594.733 285.389,598.199 285.389,602.725 C285.389,607.251 283.86,610.717 280.803,613.123 C277.745,615.53 273.579,616.733 268.303,616.733 C263.027,616.733 258.891,614.259 255.896,609.311 C252.902,604.363 251.404,598.535 251.404,591.826 C251.404,585.118 253.165,579.227 256.686,574.155 C260.258,569.207 264.847,566.733 270.451,566.733 C274.097,566.733 277.303,567.675 280.068,569.561 C282.834,571.446 284.217,573.92 284.217,576.983 C284.217,578.868 283.566,580.431 282.264,581.67 C281.097,582.972 279.602,583.623 277.779,583.623 C275.956,583.623 274.394,582.972 273.092,581.67 C271.79,580.368 271.139,578.806 271.139,576.983 C271.139,576.264 271.79,575.451 273.092,574.545 C274.394,573.764 275.045,572.933 275.045,572.053 C275.045,571.173 274.587,570.441 273.67,569.858 C272.628,569.337 271.555,569.076 270.451,569.076 C267.451,569.076 265.467,570.28 264.498,572.686 C263.456,575.03 262.936,578.446 262.936,582.936 C262.936,584.238 262.967,585.444 263.029,586.553 C263.092,587.662 263.123,588.868 263.123,590.17"/>
<path class="TimeSig" d="M275.607,637.92 C278.868,634.337 280.498,631.082 280.498,628.155 C280.498,625.227 279.376,622.983 277.131,621.42 C274.886,619.858 272.378,619.076 269.607,619.076 C266.837,619.076 264.769,619.793 263.404,621.225 C262.04,622.657 261.357,624.399 261.357,626.451 C261.357,628.504 262.368,630.144 264.389,631.373 L275.607,637.92 M251.201,630.592 C251.201,626.686 252.795,623.399 255.982,620.733 C259.17,618.066 263.173,616.733 267.99,616.733 C272.808,616.733 276.813,617.694 280.006,619.615 C283.199,621.537 284.795,624.238 284.795,627.717 C284.795,631.196 282.743,635.149 278.639,639.576 C284.17,642.774 286.936,647.04 286.936,652.373 C286.936,656.352 285.277,659.74 281.959,662.537 C278.641,665.334 274.214,666.733 268.678,666.733 C263.141,666.733 258.649,665.431 255.201,662.826 C251.555,660.222 249.732,656.868 249.732,652.764 C249.732,651.274 250.191,649.748 251.107,648.186 C251.889,646.425 253.972,643.946 257.357,640.748 C253.253,637.884 251.201,634.498 251.201,630.592 M260.373,642.514 C256.279,646.16 254.232,649.626 254.232,652.912 C254.232,656.199 255.581,658.933 258.279,661.115 C260.977,663.298 263.938,664.389 267.162,664.389 C270.386,664.389 272.748,663.545 274.248,661.858 C275.811,660.295 276.592,658.243 276.592,655.701 C276.592,653.16 275.451,651.238 273.17,649.936 L260.373,642.514 "/>
<path class="Rest" d="M2706.19,611.451 C2705.53,610.608 2705.2,609.696 2705.2,608.717 C2705.2,606.967 2707.29,604.53 2711.47,601.405 C2715.56,598.207 2717.61,594.561 2717.61,590.467 C2717.61,588.05 2716.77,585.837 2715.08,583.826 L2711.56,579.623 C2711.3,579.363 2711.17,579.037 2711.17,578.647 C2711.17,578.256 2711.36,577.899 2711.75,577.576 C2712.21,577.243 2712.63,577.076 2713.02,577.076 C2713.41,577.076 2713.74,577.274 2714,577.67 L2729.14,595.639 C2729.79,596.483 2730.11,597.41 2730.11,598.42 C2730.11,599.431 2729.57,600.522 2728.5,601.694 C2727.43,602.865 2725.92,604.233 2723.97,605.795 C2722.47,606.701 2721.05,608.131 2719.72,610.084 C2718.39,612.037 2717.72,614.253 2717.72,616.733 C2717.72,619.212 2718.5,621.394 2720.06,623.28 L2728.45,633.139 C2728.65,633.337 2728.78,633.662 2728.84,634.115 C2728.91,634.569 2728.74,634.959 2728.35,635.287 C2727.96,635.615 2727.65,635.78 2727.43,635.78 C2727.21,635.78 2726.62,635.405 2725.67,634.655 C2724.72,633.905 2723.39,633.173 2721.66,632.459 C2719.94,631.746 2718.23,631.389 2716.54,631.389 C2714.85,631.389 2713.51,631.845 2712.54,632.756 C2711.56,633.668 2711.08,635.767 2711.08,639.053 C2711.08,642.339 2712.02,645.123 2713.91,647.405 C2714.1,647.665 2714.14,647.957 2714.01,648.28 C2713.88,648.602 2713.62,648.764 2713.23,648.764 C2712.84,648.764 2711.84,647.561 2710.24,645.155 C2708.64,642.748 2707.11,639.899 2705.65,636.608 C2704.18,633.316 2703.45,630.566 2703.45,628.358 C2703.45,625.556 2704.89,624.155 2707.75,624.155 C2710.61,624.155 2714.49,625.196 2719.37,627.28 L2706.19,611.451 "/>
<path class="Rest" d="M337.475,611.451 C336.818,610.608 336.49,609.696 336.49,608.717 C336.49,606.967 338.579,604.53 342.756,601.405 C346.85,598.207 348.897,594.561 348.897,590.467 C348.897,588.05 348.053,585.837 346.365,583.826 L342.85,579.623 C342.589,579.363 342.459,579.037 342.459,578.647 C342.459,578.256 342.652,577.899 343.037,577.576 C343.496,577.243 343.92,577.076 344.311,577.076 C344.701,577.076 345.027,577.274 345.287,577.67 L360.428,595.639 C361.074,596.483 361.397,597.41 361.397,598.42 C361.397,599.431 360.86,600.522 359.787,601.694 C358.714,602.865 357.204,604.233 355.256,605.795 C353.756,606.701 352.339,608.131 351.006,610.084 C349.673,612.037 349.006,614.253 349.006,616.733 C349.006,619.212 349.787,621.394 351.35,623.28 L359.74,633.139 C359.938,633.337 360.068,633.662 360.131,634.115 C360.193,634.569 360.029,634.959 359.639,635.287 C359.248,635.615 358.941,635.78 358.717,635.78 C358.493,635.78 357.907,635.405 356.959,634.655 C356.011,633.905 354.675,633.173 352.951,632.459 C351.227,631.746 349.519,631.389 347.826,631.389 C346.134,631.389 344.8,631.845 343.826,632.756 C342.852,633.668 342.365,635.767 342.365,639.053 C342.365,642.339 343.308,645.123 345.193,647.405 C345.391,647.665 345.425,647.957 345.295,648.28 C345.165,648.602 344.904,648.764 344.514,648.764 C344.123,648.764 343.128,647.561 341.529,645.155 C339.93,642.748 338.399,639.899 336.936,636.608 C335.472,633.316 334.74,630.566 334.74,628.358 C334.74,625.556 336.173,624.155 339.037,624.155 C341.902,624.155 345.777,625.196 350.662,627.28 L337.475,611.451 "/>
<path class="Rest" d="M432.396,611.451 C431.74,610.608 431.412,609.696 431.412,608.717 C431.412,606.967 433.501,604.53 437.678,601.405 C441.771,598.207 443.818,594.561 443.818,590.467 C443.818,588.05 442.975,585.837 441.287,583.826 L437.771,579.623 C437.511,579.363 437.381,579.037 437.381,578.647 C437.381,578.256 437.573,577.899 437.959,577.576 C438.417,577.243 438.842,577.076 439.232,577.076 C439.623,577.076 439.948,577.274 440.209,577.67 L455.35,595.639 C455.995,596.483 456.318,597.41 456.318,598.42 C456.318,599.431 455.782,600.522 454.709,601.694 C453.636,602.865 452.126,604.233 450.178,605.795 C448.678,606.701 447.261,608.131 445.928,610.084 C444.594,612.037 443.928,614.253 443.928,616.733 C443.928,619.212 444.709,621.394 446.271,623.28 L454.662,633.139 C454.86,633.337 454.99,633.662 455.053,634.115 C455.115,634.569 454.951,634.959 454.56,635.287 C454.17,635.615 453.863,635.78 453.639,635.78 C453.415,635.78 452.829,635.405 451.881,634.655 C450.933,633.905 449.597,633.173 447.873,632.459 C446.149,631.746 444.441,631.389 442.748,631.389 C441.055,631.389 439.722,631.845 438.748,632.756 C437.774,633.668 437.287,635.767 437.287,639.053 C437.287,642.339 438.23,645.123 440.115,647.405 C440.313,647.665 440.347,647.957 440.217,648.28 C440.086,648.602 439.826,648.764 439.435,648.764 C439.045,648.764 438.05,647.561 436.451,645.155 C434.852,642.748 433.321,639.899 431.857,636.608 C430.394,633.316 429.662,630.566 429.662,628.358 C429.662,625.556 431.094,624.155 433.959,624.155 C436.823,624.155 440.698,625.196 445.584,627.28 L432.396,611.451 "/>
<path class="Rest" d="M996.475,611.451 C995.819,610.608 995.491,609.696 995.491,608.717 C995.491,606.967 997.579,604.53 1001.76,601.405 C1005.85,598.207 1007.9,594.561 1007.9,590.467 C1007.9,588.05 1007.05,585.837 1005.37,583.826 L1001.85,579.623 C1001.59,579.363 1001.46,579.037 1001.46,578.647 C1001.46,578.256 1001.65,577.899 1002.04,577.576 C1002.5,577.243 1002.92,577.076 1003.31,577.076 C1003.7,577.076 1004.03,577.274 1004.29,577.67 L1019.43,595.639 C1020.07,596.483 1020.4,597.41 1020.4,598.42 C1020.4,599.431 1019.86,600.522 1018.79,601.694 C1017.71,602.865 1016.2,604.233 1014.26,605.795 C1012.76,606.701 1011.34,608.131 1010.01,610.084 C1008.67,612.037 1008.01,614.253 1008.01,616.733 C1008.01,619.212 1008.79,621.394 1010.35,623.28 L1018.74,633.139 C1018.94,633.337 1019.07,633.662 1019.13,634.115 C1019.19,634.569 1019.03,634.959 1018.64,635.287 C1018.25,635.615 1017.94,635.78 1017.72,635.78 C1017.49,635.78 1016.91,635.405 1015.96,634.655 C1015.01,633.905 1013.68,633.173 1011.95,632.459 C1010.23,631.746 1008.52,631.389 1006.83,631.389 C1005.13,631.389 1003.8,631.845 1002.83,632.756 C1001.85,633.668 1001.37,635.767 1001.37,639.053 C1001.37,642.339 1002.31,645.123 1004.19,647.405 C1004.39,647.665 1004.43,647.957 1004.3,648.28 C1004.17,648.602 1003.91,648.764 1003.51,648.764 C1003.12,648.764 1002.13,647.561 1000.53,645.155 C998.931,642.748 997.4,639.899 995.936,636.608 C994.473,633.316 993.741,630.566 993.741,628.358 C993.741,625.556 995.173,624.155 998.038,624.155 C1000.9,624.155 1004.78,625.196 1009.66,627.28 L996.475,611.451 "/>
<path class="Rest" d="M1539.78,611.451 C1539.12,610.608 1538.8,609.696 1538.8,608.717 C1538.8,606.967 1540.88,604.53 1545.06,601.405 C1549.16,598.207 1551.2,594.561 1551.2,590.467 C1551.2,588.05 1550.36,585.837 1548.67,583.826 L1545.16,579.623 C1544.9,579.363 1544.77,579.037 1544.77,578.647 C1544.77,578.256 1544.96,577.899 1545.34,577.576 C1545.8,577.243 1546.23,577.076 1546.62,577.076 C1547.01,577.076 1547.33,577.274 1547.59,577.67 L1562.73,595.639 C1563.38,596.483 1563.7,597.41 1563.7,598.42 C1563.7,599.431 1563.17,600.522 1562.09,601.694 C1561.02,602.865 1559.51,604.233 1557.56,605.795 C1556.06,606.701 1554.65,608.131 1553.31,610.084 C1551.98,612.037 1551.31,614.253 1551.31,616.733 C1551.31,619.212 1552.09,621.394 1553.66,623.28 L1562.05,633.139 C1562.24,633.337 1562.37,633.662 1562.44,634.115 C1562.5,634.569 1562.34,634.959 1561.94,635.287 C1561.55,635.615 1561.25,635.78 1561.02,635.78 C1560.8,635.78 1560.21,635.405 1559.27,634.655 C1558.32,633.905 1556.98,633.173 1555.26,632.459 C1553.53,631.746 1551.83,631.389 1550.13,631.389 C1548.44,631.389 1547.11,631.845 1546.13,632.756 C1545.16,633.668 1544.67,635.767 1544.67,639.053 C1544.67,642.339 1545.61,645.123 1547.5,647.405 C1547.7,647.665 1547.73,647.957 1547.6,648.28 C1547.47,648.602 1547.21,648.764 1546.82,648.764 C1546.43,648.764 1545.43,647.561 1543.84,645.155 C1542.24,642.748 1540.71,639.899 1539.24,636.608 C1537.78,633.316 1537.05,630.566 1537.05,628.358 C1537.05,625.556 1538.48,624.155 1541.34,624.155 C1544.21,624.155 1548.08,625.196 1552.97,627.28 L1539.78,611.451 "/>
<path class="Beam" fill-rule="evenodd" d="M2012.73,629.233 L2115.82,629.233 L2115.82,641.733 L2012.73,641.733 L2012.73,629.233 "/>
<path class="Beam" fill-rule="evenodd" d="M1701.18,629.233 L1804.27,629.233 L1804.27,641.733 L1701.18,641.733 L1701.18,629.233 "/>
<path class="StaffText" d="M2450.04,741.53 L2462.33,741.53 L2462.33,744.53 L2450.04,744.53 L2450.04,741.53 M2488.32,742.889 L2488.32,745.889 L2483.22,745.889 L2483.22,754.233 L2479.38,754.233 L2479.38,745.889 L2465.32,745.889 L2465.32,742.889 L2481.02,720.436 L2483.22,720.436 L2483.22,742.889 L2488.32,742.889 M2479.32,742.889 L2479.32,725.733 L2467.32,742.889 L2479.32,742.889 "/>
<path class="StaffText" d="M837.843,742.889 L837.843,745.889 L832.749,745.889 L832.749,754.233 L828.905,754.233 L828.905,745.889 L814.843,745.889 L814.843,742.889 L830.546,720.436 L832.749,720.436 L832.749,742.889 L837.843,742.889 M828.843,742.889 L828.843,725.733 L816.843,742.889 L828.843,742.889 "/>
<path class="StaffText" d="M762.964,742.889 L762.964,745.889 L757.87,745.889 L757.87,754.233 L754.026,754.233 L754.026,745.889 L739.964,745.889 L739.964,742.889 L755.667,720.436 L757.87,720.436 L757.87,742.889 L762.964,742.889 M753.964,742.889 L753.964,725.733 L741.964,742.889 L753.964,742.889 "/>
<path class="StaffText" d="M2416.01,744.405 C2416.01,742.623 2415.62,741.043 2414.83,739.662 C2414.05,738.282 2413.11,737.215 2411.99,736.459 C2410.88,735.704 2409.63,735.082 2408.24,734.592 C2406.86,734.103 2405.66,733.782 2404.64,733.631 C2403.62,733.48 2402.73,733.405 2401.96,733.405 C2401.56,733.405 2401.37,733.269 2401.37,732.998 C2401.37,732.905 2401.38,732.826 2401.41,732.764 L2406.87,721.123 L2417.32,721.123 C2417.85,721.123 2418.27,721.04 2418.59,720.873 C2418.91,720.707 2419.25,720.358 2419.62,719.826 L2420.07,720.186 L2418.16,724.358 C2418.03,724.639 2417.64,724.78 2417.01,724.78 L2407.21,724.78 L2405.12,729.076 C2409.98,729.941 2413.6,731.358 2415.96,733.326 C2418.32,735.295 2419.51,738.181 2419.51,741.983 C2419.51,743.972 2419.2,745.743 2418.58,747.295 C2417.97,748.847 2417.19,750.095 2416.24,751.037 C2415.29,751.98 2414.19,752.756 2412.94,753.366 C2411.69,753.975 2410.49,754.389 2409.34,754.608 C2408.19,754.826 2407.03,754.936 2405.87,754.936 C2404,754.936 2402.52,754.66 2401.41,754.108 C2400.31,753.556 2399.76,752.795 2399.76,751.826 C2399.76,750.597 2400.48,749.983 2401.91,749.983 C2402.85,749.983 2404.06,750.491 2405.54,751.506 C2407.02,752.522 2408.19,753.03 2409.07,753.03 C2411.03,753.03 2412.67,752.199 2414.01,750.537 C2415.34,748.876 2416.01,746.832 2416.01,744.405"/>
<path class="StaffText" d="M2524.91,741.53 L2537.21,741.53 L2537.21,744.53 L2524.91,744.53 L2524.91,741.53 M2543.65,750.326 C2544.42,750.326 2545.56,750.777 2547.08,751.678 C2548.59,752.579 2549.92,753.03 2551.05,753.03 C2552.89,753.03 2554.44,752.319 2555.7,750.897 C2556.97,749.475 2557.6,747.717 2557.6,745.623 C2557.6,744.332 2557.38,743.191 2556.93,742.201 C2556.48,741.212 2555.91,740.444 2555.2,739.897 C2554.5,739.35 2553.67,738.902 2552.7,738.553 C2551.74,738.204 2550.83,737.98 2549.98,737.881 C2549.12,737.782 2548.22,737.733 2547.26,737.733 L2547.26,737.076 C2548.38,736.681 2549.35,736.29 2550.17,735.905 C2550.99,735.519 2551.85,735.004 2552.75,734.358 C2553.65,733.712 2554.34,732.92 2554.83,731.983 C2555.31,731.045 2555.55,729.978 2555.55,728.78 C2555.55,727.217 2555.05,725.936 2554.03,724.936 C2553.02,723.936 2551.69,723.436 2550.05,723.436 C2548.48,723.436 2547.1,723.86 2545.92,724.709 C2544.74,725.558 2543.63,726.899 2542.6,728.733 L2541.85,728.53 C2542.72,726.165 2543.89,724.225 2545.37,722.709 C2546.86,721.194 2548.97,720.436 2551.7,720.436 C2554,720.436 2555.87,721.069 2557.33,722.334 C2558.78,723.6 2559.51,725.248 2559.51,727.28 C2559.51,728.644 2559.16,729.845 2558.45,730.881 C2557.75,731.918 2556.53,733.019 2554.8,734.186 C2556.8,735.05 2558.37,736.155 2559.5,737.498 C2560.63,738.842 2561.2,740.759 2561.2,743.248 C2561.2,746.79 2559.89,749.623 2557.27,751.748 C2554.66,753.873 2551.37,754.936 2547.4,754.936 C2545.67,754.936 2544.3,754.678 2543.28,754.162 C2542.27,753.647 2541.76,752.951 2541.76,752.076 C2541.76,751.545 2541.93,751.121 2542.28,750.803 C2542.63,750.485 2543.09,750.326 2543.65,750.326"/>
<path class="StaffText" d="M713.045,742.889 L713.045,745.889 L707.951,745.889 L707.951,754.233 L704.107,754.233 L704.107,745.889 L690.045,745.889 L690.045,742.889 L705.748,720.436 L707.951,720.436 L707.951,742.889 L713.045,742.889 M704.045,742.889 L704.045,725.733 L692.045,742.889 L704.045,742.889 "/>
<path class="StaffText" d="M924.757,742.889 L924.757,745.889 L919.663,745.889 L919.663,754.233 L915.819,754.233 L915.819,745.889 L901.757,745.889 L901.757,742.889 L917.46,720.436 L919.663,720.436 L919.663,742.889 L924.757,742.889 M915.757,742.889 L915.757,725.733 L903.757,742.889 L915.757,742.889 "/>
<path class="StaffText" d="M638.166,742.889 L638.166,745.889 L633.072,745.889 L633.072,754.233 L629.228,754.233 L629.228,745.889 L615.166,745.889 L615.166,742.889 L630.869,720.436 L633.072,720.436 L633.072,742.889 L638.166,742.889 M629.166,742.889 L629.166,725.733 L617.166,742.889 L629.166,742.889 "/>
<path class="StaffText" d="M2341.13,744.405 C2341.13,742.623 2340.74,741.043 2339.96,739.662 C2339.17,738.282 2338.23,737.215 2337.11,736.459 C2336,735.704 2334.75,735.082 2333.36,734.592 C2331.98,734.103 2330.78,733.782 2329.76,733.631 C2328.74,733.48 2327.85,733.405 2327.08,733.405 C2326.69,733.405 2326.49,733.269 2326.49,732.998 C2326.49,732.905 2326.5,732.826 2326.53,732.764 L2331.99,721.123 L2342.44,721.123 C2342.97,721.123 2343.4,721.04 2343.71,720.873 C2344.03,720.707 2344.37,720.358 2344.74,719.826 L2345.19,720.186 L2343.28,724.358 C2343.15,724.639 2342.76,724.78 2342.13,724.78 L2332.33,724.78 L2330.24,729.076 C2335.1,729.941 2338.72,731.358 2341.08,733.326 C2343.45,735.295 2344.63,738.181 2344.63,741.983 C2344.63,743.972 2344.32,745.743 2343.71,747.295 C2343.09,748.847 2342.31,750.095 2341.36,751.037 C2340.41,751.98 2339.32,752.756 2338.07,753.366 C2336.82,753.975 2335.61,754.389 2334.46,754.608 C2333.31,754.826 2332.15,754.936 2330.99,754.936 C2329.12,754.936 2327.64,754.66 2326.53,754.108 C2325.43,753.556 2324.88,752.795 2324.88,751.826 C2324.88,750.597 2325.6,749.983 2327.03,749.983 C2327.97,749.983 2329.18,750.491 2330.66,751.506 C2332.14,752.522 2333.32,753.03 2334.19,753.03 C2336.15,753.03 2337.79,752.199 2339.13,750.537 C2340.46,748.876 2341.13,746.832 2341.13,744.405"/>
<path class="StaffText" d="M2634.47,742.889 L2634.47,745.889 L2629.37,745.889 L2629.37,754.233 L2625.53,754.233 L2625.53,745.889 L2611.47,745.889 L2611.47,742.889 L2627.17,720.436 L2629.37,720.436 L2629.37,742.889 L2634.47,742.889 M2625.47,742.889 L2625.47,725.733 L2613.47,742.889 L2625.47,742.889 "/>
<path class="StaffText" d="M1763.01,754.936 C1759.63,754.936 1756.92,753.592 1754.88,750.905 C1752.83,748.217 1751.81,744.665 1751.81,740.248 C1751.81,738.884 1751.94,737.478 1752.2,736.03 C1752.47,734.582 1753.05,732.936 1753.95,731.092 C1754.85,729.248 1756.02,727.592 1757.45,726.123 C1758.89,724.655 1760.89,723.347 1763.48,722.201 C1766.06,721.056 1769.03,720.332 1772.4,720.03 L1772.51,720.826 C1768.57,721.462 1765.28,723.056 1762.65,725.608 C1760.01,728.16 1758.36,731.316 1757.7,735.076 C1759.27,734.191 1760.45,733.613 1761.25,733.342 C1762.05,733.071 1763,732.936 1764.1,732.936 C1766.97,732.936 1769.25,733.863 1770.95,735.717 C1772.66,737.571 1773.51,740.076 1773.51,743.233 C1773.51,746.681 1772.53,749.493 1770.58,751.67 C1768.63,753.847 1766.1,754.936 1763.01,754.936 M1762.2,735.139 C1759.94,735.139 1758.41,735.634 1757.63,736.623 C1756.84,737.613 1756.45,739.087 1756.45,741.045 C1756.45,744.889 1757.08,747.915 1758.35,750.123 C1759.62,752.332 1761.36,753.436 1763.56,753.436 C1765.32,753.436 1766.66,752.699 1767.6,751.225 C1768.54,749.751 1769.01,747.655 1769.01,744.936 C1769.01,741.811 1768.41,739.397 1767.23,737.694 C1766.04,735.991 1764.36,735.139 1762.2,735.139"/>
<path class="StaffText" d="M1374.4,744.405 C1374.4,742.623 1374.01,741.043 1373.23,739.662 C1372.44,738.282 1371.5,737.215 1370.38,736.459 C1369.27,735.704 1368.02,735.082 1366.63,734.592 C1365.25,734.103 1364.05,733.782 1363.03,733.631 C1362.02,733.48 1361.12,733.405 1360.35,733.405 C1359.96,733.405 1359.76,733.269 1359.76,732.998 C1359.76,732.905 1359.77,732.826 1359.8,732.764 L1365.26,721.123 L1375.71,721.123 C1376.24,721.123 1376.67,721.04 1376.98,720.873 C1377.3,720.707 1377.64,720.358 1378.01,719.826 L1378.46,720.186 L1376.55,724.358 C1376.42,724.639 1376.03,724.78 1375.4,724.78 L1365.6,724.78 L1363.51,729.076 C1368.37,729.941 1371.99,731.358 1374.35,733.326 C1376.72,735.295 1377.9,738.181 1377.9,741.983 C1377.9,743.972 1377.59,745.743 1376.98,747.295 C1376.36,748.847 1375.58,750.095 1374.63,751.037 C1373.68,751.98 1372.59,752.756 1371.34,753.366 C1370.09,753.975 1368.89,754.389 1367.73,754.608 C1366.58,754.826 1365.42,754.936 1364.26,754.936 C1362.39,754.936 1360.91,754.66 1359.8,754.108 C1358.7,753.556 1358.15,752.795 1358.15,751.826 C1358.15,750.597 1358.87,749.983 1360.3,749.983 C1361.24,749.983 1362.45,750.491 1363.93,751.506 C1365.41,752.522 1366.59,753.03 1367.46,753.03 C1369.42,753.03 1371.06,752.199 1372.4,750.537 C1373.73,748.876 1374.4,746.832 1374.4,744.405"/>
<path class="StaffText" d="M1812.93,754.936 C1809.55,754.936 1806.84,753.592 1804.79,750.905 C1802.75,748.217 1801.72,744.665 1801.72,740.248 C1801.72,738.884 1801.86,737.478 1802.12,736.03 C1802.39,734.582 1802.97,732.936 1803.87,731.092 C1804.77,729.248 1805.94,727.592 1807.37,726.123 C1808.81,724.655 1810.81,723.347 1813.4,722.201 C1815.98,721.056 1818.95,720.332 1822.32,720.03 L1822.43,720.826 C1818.49,721.462 1815.2,723.056 1812.57,725.608 C1809.93,728.16 1808.28,731.316 1807.62,735.076 C1809.19,734.191 1810.37,733.613 1811.17,733.342 C1811.97,733.071 1812.92,732.936 1814.02,732.936 C1816.89,732.936 1819.17,733.863 1820.87,735.717 C1822.58,737.571 1823.43,740.076 1823.43,743.233 C1823.43,746.681 1822.45,749.493 1820.5,751.67 C1818.54,753.847 1816.02,754.936 1812.93,754.936 M1812.12,735.139 C1809.85,735.139 1808.33,735.634 1807.54,736.623 C1806.76,737.613 1806.37,739.087 1806.37,741.045 C1806.37,744.889 1807,747.915 1808.27,750.123 C1809.54,752.332 1811.28,753.436 1813.47,753.436 C1815.24,753.436 1816.58,752.699 1817.52,751.225 C1818.46,749.751 1818.93,747.655 1818.93,744.936 C1818.93,741.811 1818.33,739.397 1817.15,737.694 C1815.96,735.991 1814.28,735.139 1812.12,735.139"/>
<path class="StaffText" d="M1615.22,741.53 L1627.52,741.53 L1627.52,744.53 L1615.22,744.53 L1615.22,741.53 M1647.75,744.405 C1647.75,742.623 1647.36,741.043 1646.58,739.662 C1645.8,738.282 1644.85,737.215 1643.74,736.459 C1642.62,735.704 1641.37,735.082 1639.99,734.592 C1638.6,734.103 1637.4,733.782 1636.39,733.631 C1635.37,733.48 1634.48,733.405 1633.71,733.405 C1633.31,733.405 1633.11,733.269 1633.11,732.998 C1633.11,732.905 1633.13,732.826 1633.16,732.764 L1638.61,721.123 L1649.07,721.123 C1649.6,721.123 1650.02,721.04 1650.34,720.873 C1650.66,720.707 1651,720.358 1651.36,719.826 L1651.82,720.186 L1649.91,724.358 C1649.77,724.639 1649.39,724.78 1648.75,724.78 L1638.96,724.78 L1636.86,729.076 C1641.73,729.941 1645.34,731.358 1647.71,733.326 C1650.07,735.295 1651.25,738.181 1651.25,741.983 C1651.25,743.972 1650.95,745.743 1650.33,747.295 C1649.72,748.847 1648.94,750.095 1647.99,751.037 C1647.04,751.98 1645.94,752.756 1644.69,753.366 C1643.44,753.975 1642.24,754.389 1641.09,754.608 C1639.94,754.826 1638.78,754.936 1637.61,754.936 C1635.75,754.936 1634.26,754.66 1633.16,754.108 C1632.06,753.556 1631.5,752.795 1631.5,751.826 C1631.5,750.597 1632.22,749.983 1633.66,749.983 C1634.6,749.983 1635.81,750.491 1637.28,751.506 C1638.76,752.522 1639.94,753.03 1640.82,753.03 C1642.77,753.03 1644.42,752.199 1645.75,750.537 C1647.09,748.876 1647.75,746.832 1647.75,744.405"/>
<path class="StaffText" d="M1862.85,754.936 C1859.47,754.936 1856.76,753.592 1854.71,750.905 C1852.67,748.217 1851.64,744.665 1851.64,740.248 C1851.64,738.884 1851.78,737.478 1852.04,736.03 C1852.31,734.582 1852.89,732.936 1853.79,731.092 C1854.69,729.248 1855.86,727.592 1857.29,726.123 C1858.72,724.655 1860.73,723.347 1863.32,722.201 C1865.9,721.056 1868.87,720.332 1872.24,720.03 L1872.35,720.826 C1868.41,721.462 1865.12,723.056 1862.49,725.608 C1859.85,728.16 1858.2,731.316 1857.53,735.076 C1859.11,734.191 1860.29,733.613 1861.09,733.342 C1861.89,733.071 1862.84,732.936 1863.94,732.936 C1866.81,732.936 1869.09,733.863 1870.79,735.717 C1872.5,737.571 1873.35,740.076 1873.35,743.233 C1873.35,746.681 1872.37,749.493 1870.42,751.67 C1868.46,753.847 1865.94,754.936 1862.85,754.936 M1862.03,735.139 C1859.77,735.139 1858.25,735.634 1857.46,736.623 C1856.68,737.613 1856.28,739.087 1856.28,741.045 C1856.28,744.889 1856.92,747.915 1858.19,750.123 C1859.46,752.332 1861.2,753.436 1863.39,753.436 C1865.15,753.436 1866.5,752.699 1867.44,751.225 C1868.38,749.751 1868.85,747.655 1868.85,744.936 C1868.85,741.811 1868.25,739.397 1867.07,737.694 C1865.88,735.991 1864.2,735.139 1862.03,735.139"/>
<path class="StaffText" d="M1461.31,744.405 C1461.31,742.623 1460.92,741.043 1460.14,739.662 C1459.36,738.282 1458.41,737.215 1457.3,736.459 C1456.18,735.704 1454.93,735.082 1453.55,734.592 C1452.16,734.103 1450.96,733.782 1449.95,733.631 C1448.93,733.48 1448.04,733.405 1447.27,733.405 C1446.87,733.405 1446.67,733.269 1446.67,732.998 C1446.67,732.905 1446.69,732.826 1446.72,732.764 L1452.17,721.123 L1462.62,721.123 C1463.16,721.123 1463.58,721.04 1463.9,720.873 C1464.22,720.707 1464.56,720.358 1464.92,719.826 L1465.37,720.186 L1463.47,724.358 C1463.33,724.639 1462.95,724.78 1462.31,724.78 L1452.52,724.78 L1450.42,729.076 C1455.29,729.941 1458.9,731.358 1461.27,733.326 C1463.63,735.295 1464.81,738.181 1464.81,741.983 C1464.81,743.972 1464.5,745.743 1463.89,747.295 C1463.28,748.847 1462.49,750.095 1461.55,751.037 C1460.6,751.98 1459.5,752.756 1458.25,753.366 C1457,753.975 1455.8,754.389 1454.65,754.608 C1453.5,754.826 1452.34,754.936 1451.17,754.936 C1449.31,754.936 1447.82,754.66 1446.72,754.108 C1445.61,753.556 1445.06,752.795 1445.06,751.826 C1445.06,750.597 1445.78,749.983 1447.22,749.983 C1448.16,749.983 1449.36,750.491 1450.84,751.506 C1452.32,752.522 1453.5,753.03 1454.37,753.03 C1456.33,753.03 1457.98,752.199 1459.31,750.537 C1460.65,748.876 1461.31,746.832 1461.31,744.405"/>
<path class="StaffText" d="M1937.73,754.936 C1934.35,754.936 1931.64,753.592 1929.59,750.905 C1927.55,748.217 1926.52,744.665 1926.52,740.248 C1926.52,738.884 1926.66,737.478 1926.92,736.03 C1927.19,734.582 1927.77,732.936 1928.67,731.092 C1929.57,729.248 1930.74,727.592 1932.17,726.123 C1933.6,724.655 1935.61,723.347 1938.19,722.201 C1940.78,721.056 1943.75,720.332 1947.12,720.03 L1947.23,720.826 C1943.29,721.462 1940,723.056 1937.37,725.608 C1934.73,728.16 1933.08,731.316 1932.41,735.076 C1933.99,734.191 1935.17,733.613 1935.97,733.342 C1936.76,733.071 1937.72,732.936 1938.82,732.936 C1941.68,732.936 1943.97,733.863 1945.67,735.717 C1947.37,737.571 1948.23,740.076 1948.23,743.233 C1948.23,746.681 1947.25,749.493 1945.3,751.67 C1943.34,753.847 1940.82,754.936 1937.73,754.936 M1936.91,735.139 C1934.65,735.139 1933.13,735.634 1932.34,736.623 C1931.56,737.613 1931.16,739.087 1931.16,741.045 C1931.16,744.889 1931.8,747.915 1933.07,750.123 C1934.34,752.332 1936.07,753.436 1938.27,753.436 C1940.03,753.436 1941.38,752.699 1942.32,751.225 C1943.26,749.751 1943.73,747.655 1943.73,744.936 C1943.73,741.811 1943.13,739.397 1941.94,737.694 C1940.76,735.991 1939.08,735.139 1936.91,735.139"/>
<path class="StaffText" d="M1071.92,741.53 L1084.21,741.53 L1084.21,744.53 L1071.92,744.53 L1071.92,741.53 M1110.2,742.889 L1110.2,745.889 L1105.1,745.889 L1105.1,754.233 L1101.26,754.233 L1101.26,745.889 L1087.2,745.889 L1087.2,742.889 L1102.9,720.436 L1105.1,720.436 L1105.1,742.889 L1110.2,742.889 M1101.2,742.889 L1101.2,725.733 L1089.2,742.889 L1101.2,742.889 "/>
<path class="StaffText" d="M2024.64,754.936 C2021.26,754.936 2018.55,753.592 2016.51,750.905 C2014.46,748.217 2013.44,744.665 2013.44,740.248 C2013.44,738.884 2013.57,737.478 2013.84,736.03 C2014.1,734.582 2014.68,732.936 2015.59,731.092 C2016.49,729.248 2017.65,727.592 2019.09,726.123 C2020.52,724.655 2022.53,723.347 2025.11,722.201 C2027.69,721.056 2030.67,720.332 2034.03,720.03 L2034.14,720.826 C2030.2,721.462 2026.92,723.056 2024.28,725.608 C2021.65,728.16 2019.99,731.316 2019.33,735.076 C2020.9,734.191 2022.09,733.613 2022.88,733.342 C2023.68,733.071 2024.63,732.936 2025.73,732.936 C2028.6,732.936 2030.88,733.863 2032.59,735.717 C2034.29,737.571 2035.14,740.076 2035.14,743.233 C2035.14,746.681 2034.16,749.493 2032.21,751.67 C2030.26,753.847 2027.73,754.936 2024.64,754.936 M2023.83,735.139 C2021.57,735.139 2020.04,735.634 2019.26,736.623 C2018.47,737.613 2018.08,739.087 2018.08,741.045 C2018.08,744.889 2018.71,747.915 2019.98,750.123 C2021.25,752.332 2022.99,753.436 2025.19,753.436 C2026.95,753.436 2028.3,752.699 2029.23,751.225 C2030.17,749.751 2030.64,747.655 2030.64,744.936 C2030.64,741.811 2030.05,739.397 2028.86,737.694 C2027.67,735.991 2025.99,735.139 2023.83,735.139"/>
<path class="StaffText" d="M2074.56,754.936 C2071.18,754.936 2068.47,753.592 2066.43,750.905 C2064.38,748.217 2063.36,744.665 2063.36,740.248 C2063.36,738.884 2063.49,737.478 2063.75,736.03 C2064.02,734.582 2064.6,732.936 2065.5,731.092 C2066.41,729.248 2067.57,727.592 2069,726.123 C2070.44,724.655 2072.44,723.347 2075.03,722.201 C2077.61,721.056 2080.59,720.332 2083.95,720.03 L2084.06,720.826 C2080.12,721.462 2076.84,723.056 2074.2,725.608 C2071.56,728.16 2069.91,731.316 2069.25,735.076 C2070.82,734.191 2072,733.613 2072.8,733.342 C2073.6,733.071 2074.55,732.936 2075.65,732.936 C2078.52,732.936 2080.8,733.863 2082.5,735.717 C2084.21,737.571 2085.06,740.076 2085.06,743.233 C2085.06,746.681 2084.08,749.493 2082.13,751.67 C2080.18,753.847 2077.65,754.936 2074.56,754.936 M2073.75,735.139 C2071.49,735.139 2069.96,735.634 2069.18,736.623 C2068.39,737.613 2068,739.087 2068,741.045 C2068,744.889 2068.63,747.915 2069.9,750.123 C2071.17,752.332 2072.91,753.436 2075.11,753.436 C2076.87,753.436 2078.22,752.699 2079.15,751.225 C2080.09,749.751 2080.56,747.655 2080.56,744.936 C2080.56,741.811 2079.97,739.397 2078.78,737.694 C2077.59,735.991 2075.91,735.139 2073.75,735.139"/>
<path class="StaffText" d="M1299.52,744.405 C1299.52,742.623 1299.13,741.043 1298.35,739.662 C1297.57,738.282 1296.62,737.215 1295.5,736.459 C1294.39,735.704 1293.14,735.082 1291.75,734.592 C1290.37,734.103 1289.17,733.782 1288.15,733.631 C1287.14,733.48 1286.24,733.405 1285.47,733.405 C1285.08,733.405 1284.88,733.269 1284.88,732.998 C1284.88,732.905 1284.89,732.826 1284.93,732.764 L1290.38,721.123 L1300.83,721.123 C1301.36,721.123 1301.79,721.04 1302.11,720.873 C1302.42,720.707 1302.76,720.358 1303.13,719.826 L1303.58,720.186 L1301.68,724.358 C1301.54,724.639 1301.15,724.78 1300.52,724.78 L1290.72,724.78 L1288.63,729.076 C1293.49,729.941 1297.11,731.358 1299.47,733.326 C1301.84,735.295 1303.02,738.181 1303.02,741.983 C1303.02,743.972 1302.71,745.743 1302.1,747.295 C1301.48,748.847 1300.7,750.095 1299.75,751.037 C1298.81,751.98 1297.71,752.756 1296.46,753.366 C1295.21,753.975 1294.01,754.389 1292.86,754.608 C1291.7,754.826 1290.55,754.936 1289.38,754.936 C1287.51,754.936 1286.03,754.66 1284.93,754.108 C1283.82,753.556 1283.27,752.795 1283.27,751.826 C1283.27,750.597 1283.99,749.983 1285.43,749.983 C1286.36,749.983 1287.57,750.491 1289.05,751.506 C1290.53,752.522 1291.71,753.03 1292.58,753.03 C1294.54,753.03 1296.19,752.199 1297.52,750.537 C1298.85,748.876 1299.52,746.832 1299.52,744.405"/>
<path class="StaffText" d="M2124.48,754.936 C2121.1,754.936 2118.39,753.592 2116.35,750.905 C2114.3,748.217 2113.28,744.665 2113.28,740.248 C2113.28,738.884 2113.41,737.478 2113.67,736.03 C2113.94,734.582 2114.52,732.936 2115.42,731.092 C2116.32,729.248 2117.49,727.592 2118.92,726.123 C2120.36,724.655 2122.36,723.347 2124.95,722.201 C2127.53,721.056 2130.5,720.332 2133.87,720.03 L2133.98,720.826 C2130.04,721.462 2126.75,723.056 2124.12,725.608 C2121.48,728.16 2119.83,731.316 2119.17,735.076 C2120.74,734.191 2121.92,733.613 2122.72,733.342 C2123.52,733.071 2124.47,732.936 2125.57,732.936 C2128.44,732.936 2130.72,733.863 2132.42,735.717 C2134.13,737.571 2134.98,740.076 2134.98,743.233 C2134.98,746.681 2134,749.493 2132.05,751.67 C2130.1,753.847 2127.57,754.936 2124.48,754.936 M2123.67,735.139 C2121.41,735.139 2119.88,735.634 2119.1,736.623 C2118.31,737.613 2117.92,739.087 2117.92,741.045 C2117.92,744.889 2118.55,747.915 2119.82,750.123 C2121.09,752.332 2122.83,753.436 2125.03,753.436 C2126.79,753.436 2128.13,752.699 2129.07,751.225 C2130.01,749.751 2130.48,747.655 2130.48,744.936 C2130.48,741.811 2129.88,739.397 2128.7,737.694 C2127.51,735.991 2125.83,735.139 2123.67,735.139"/>
<path class="StaffText" d="M1249.6,744.405 C1249.6,742.623 1249.21,741.043 1248.43,739.662 C1247.65,738.282 1246.7,737.215 1245.58,736.459 C1244.47,735.704 1243.22,735.082 1241.83,734.592 C1240.45,734.103 1239.25,733.782 1238.23,733.631 C1237.22,733.48 1236.32,733.405 1235.55,733.405 C1235.16,733.405 1234.96,733.269 1234.96,732.998 C1234.96,732.905 1234.98,732.826 1235.01,732.764 L1240.46,721.123 L1250.91,721.123 C1251.44,721.123 1251.87,721.04 1252.19,720.873 C1252.5,720.707 1252.84,720.358 1253.21,719.826 L1253.66,720.186 L1251.76,724.358 C1251.62,724.639 1251.24,724.78 1250.6,724.78 L1240.8,724.78 L1238.71,729.076 C1243.57,729.941 1247.19,731.358 1249.55,733.326 C1251.92,735.295 1253.1,738.181 1253.1,741.983 C1253.1,743.972 1252.79,745.743 1252.18,747.295 C1251.56,748.847 1250.78,750.095 1249.83,751.037 C1248.89,751.98 1247.79,752.756 1246.54,753.366 C1245.29,753.975 1244.09,754.389 1242.94,754.608 C1241.79,754.826 1240.63,754.936 1239.46,754.936 C1237.59,754.936 1236.11,754.66 1235.01,754.108 C1233.9,753.556 1233.35,752.795 1233.35,751.826 C1233.35,750.597 1234.07,749.983 1235.51,749.983 C1236.44,749.983 1237.65,750.491 1239.13,751.506 C1240.61,752.522 1241.79,753.03 1242.66,753.03 C1244.62,753.03 1246.27,752.199 1247.6,750.537 C1248.93,748.876 1249.6,746.832 1249.6,744.405"/>
<path class="StaffText" d="M2174.4,754.936 C2171.02,754.936 2168.31,753.592 2166.26,750.905 C2164.22,748.217 2163.19,744.665 2163.19,740.248 C2163.19,738.884 2163.33,737.478 2163.59,736.03 C2163.86,734.582 2164.44,732.936 2165.34,731.092 C2166.24,729.248 2167.41,727.592 2168.84,726.123 C2170.27,724.655 2172.28,723.347 2174.87,722.201 C2177.45,721.056 2180.42,720.332 2183.79,720.03 L2183.9,720.826 C2179.96,721.462 2176.67,723.056 2174.04,725.608 C2171.4,728.16 2169.75,731.316 2169.08,735.076 C2170.66,734.191 2171.84,733.613 2172.64,733.342 C2173.44,733.071 2174.39,732.936 2175.49,732.936 C2178.36,732.936 2180.64,733.863 2182.34,735.717 C2184.05,737.571 2184.9,740.076 2184.9,743.233 C2184.9,746.681 2183.92,749.493 2181.97,751.67 C2180.01,753.847 2177.49,754.936 2174.4,754.936 M2173.58,735.139 C2171.32,735.139 2169.8,735.634 2169.01,736.623 C2168.23,737.613 2167.83,739.087 2167.83,741.045 C2167.83,744.889 2168.47,747.915 2169.74,750.123 C2171.01,752.332 2172.75,753.436 2174.94,753.436 C2176.7,753.436 2178.05,752.699 2178.99,751.225 C2179.93,749.751 2180.4,747.655 2180.4,744.936 C2180.4,741.811 2179.8,739.397 2178.62,737.694 C2177.43,735.991 2175.75,735.139 2173.58,735.139"/>
<path class="StaffText" d="M1713.09,754.936 C1709.71,754.936 1707,753.592 1704.96,750.905 C1702.91,748.217 1701.89,744.665 1701.89,740.248 C1701.89,738.884 1702.02,737.478 1702.28,736.03 C1702.55,734.582 1703.13,732.936 1704.03,731.092 C1704.94,729.248 1706.1,727.592 1707.53,726.123 C1708.97,724.655 1710.97,723.347 1713.56,722.201 C1716.14,721.056 1719.12,720.332 1722.48,720.03 L1722.59,720.826 C1718.65,721.462 1715.37,723.056 1712.73,725.608 C1710.09,728.16 1708.44,731.316 1707.78,735.076 C1709.35,734.191 1710.53,733.613 1711.33,733.342 C1712.13,733.071 1713.08,732.936 1714.18,732.936 C1717.05,732.936 1719.33,733.863 1721.03,735.717 C1722.74,737.571 1723.59,740.076 1723.59,743.233 C1723.59,746.681 1722.61,749.493 1720.66,751.67 C1718.71,753.847 1716.18,754.936 1713.09,754.936 M1712.28,735.139 C1710.02,735.139 1708.49,735.634 1707.71,736.623 C1706.92,737.613 1706.53,739.087 1706.53,741.045 C1706.53,744.889 1707.16,747.915 1708.43,750.123 C1709.7,752.332 1711.44,753.436 1713.64,753.436 C1715.4,753.436 1716.75,752.699 1717.68,751.225 C1718.62,749.751 1719.09,747.655 1719.09,744.936 C1719.09,741.811 1718.5,739.397 1717.31,737.694 C1716.12,735.991 1714.44,735.139 1712.28,735.139"/>
<path class="StaffText" d="M1174.72,744.405 C1174.72,742.623 1174.33,741.043 1173.55,739.662 C1172.77,738.282 1171.82,737.215 1170.71,736.459 C1169.59,735.704 1168.34,735.082 1166.96,734.592 C1165.57,734.103 1164.37,733.782 1163.35,733.631 C1162.34,733.48 1161.45,733.405 1160.67,733.405 C1160.28,733.405 1160.08,733.269 1160.08,732.998 C1160.08,732.905 1160.1,732.826 1160.13,732.764 L1165.58,721.123 L1176.03,721.123 C1176.57,721.123 1176.99,721.04 1177.31,720.873 C1177.62,720.707 1177.97,720.358 1178.33,719.826 L1178.78,720.186 L1176.88,724.358 C1176.74,724.639 1176.36,724.78 1175.72,724.78 L1165.92,724.78 L1163.83,729.076 C1168.7,729.941 1172.31,731.358 1174.67,733.326 C1177.04,735.295 1178.22,738.181 1178.22,741.983 C1178.22,743.972 1177.91,745.743 1177.3,747.295 C1176.68,748.847 1175.9,750.095 1174.96,751.037 C1174.01,751.98 1172.91,752.756 1171.66,753.366 C1170.41,753.975 1169.21,754.389 1168.06,754.608 C1166.91,754.826 1165.75,754.936 1164.58,754.936 C1162.72,754.936 1161.23,754.66 1160.13,754.108 C1159.02,753.556 1158.47,752.795 1158.47,751.826 C1158.47,750.597 1159.19,749.983 1160.63,749.983 C1161.57,749.983 1162.77,750.491 1164.25,751.506 C1165.73,752.522 1166.91,753.03 1167.78,753.03 C1169.74,753.03 1171.39,752.199 1172.72,750.537 C1174.05,748.876 1174.72,746.832 1174.72,744.405"/>
<path class="StaffText" d="M2238.32,741.53 L2250.62,741.53 L2250.62,744.53 L2238.32,744.53 L2238.32,741.53 M2270.85,744.405 C2270.85,742.623 2270.46,741.043 2269.68,739.662 C2268.9,738.282 2267.95,737.215 2266.84,736.459 C2265.72,735.704 2264.47,735.082 2263.09,734.592 C2261.7,734.103 2260.5,733.782 2259.49,733.631 C2258.47,733.48 2257.58,733.405 2256.81,733.405 C2256.41,733.405 2256.21,733.269 2256.21,732.998 C2256.21,732.905 2256.23,732.826 2256.26,732.764 L2261.71,721.123 L2272.17,721.123 C2272.7,721.123 2273.12,721.04 2273.44,720.873 C2273.76,720.707 2274.1,720.358 2274.46,719.826 L2274.92,720.186 L2273.01,724.358 C2272.88,724.639 2272.49,724.78 2271.85,724.78 L2262.06,724.78 L2259.96,729.076 C2264.83,729.941 2268.44,731.358 2270.81,733.326 C2273.17,735.295 2274.35,738.181 2274.35,741.983 C2274.35,743.972 2274.05,745.743 2273.43,747.295 C2272.82,748.847 2272.04,750.095 2271.09,751.037 C2270.14,751.98 2269.04,752.756 2267.79,753.366 C2266.54,753.975 2265.34,754.389 2264.19,754.608 C2263.04,754.826 2261.88,754.936 2260.71,754.936 C2258.85,754.936 2257.36,754.66 2256.26,754.108 C2255.16,753.556 2254.6,752.795 2254.6,751.826 C2254.6,750.597 2255.32,749.983 2256.76,749.983 C2257.7,749.983 2258.91,750.491 2260.39,751.506 C2261.86,752.522 2263.04,753.03 2263.92,753.03 C2265.88,753.03 2267.52,752.199 2268.85,750.537 C2270.19,748.876 2270.85,746.832 2270.85,744.405"/>
<path class="NoteDot" d="M374.162,608.24 C373.053,607.131 372.498,605.795 372.498,604.233 C372.498,602.67 373.053,601.334 374.162,600.225 C375.272,599.115 376.608,598.561 378.17,598.561 C379.733,598.561 381.066,599.115 382.17,600.225 C383.274,601.334 383.826,602.67 383.826,604.233 C383.826,605.795 383.274,607.131 382.17,608.24 C381.066,609.35 379.733,609.905 378.17,609.905 C376.608,609.905 375.272,609.35 374.162,608.24"/>
<path class="NoteDot" d="M2742.87,608.24 C2741.77,607.131 2741.21,605.795 2741.21,604.233 C2741.21,602.67 2741.77,601.334 2742.87,600.225 C2743.98,599.115 2745.32,598.561 2746.88,598.561 C2748.45,598.561 2749.78,599.115 2750.88,600.225 C2751.99,601.334 2752.54,602.67 2752.54,604.233 C2752.54,605.795 2751.99,607.131 2750.88,608.24 C2749.78,609.35 2748.45,609.905 2746.88,609.905 C2745.32,609.905 2743.98,609.35 2742.87,608.24"/>
<path class="NoteDot" d="M2654.2,608.24 C2653.09,607.131 2652.54,605.795 2652.54,604.233 C2652.54,602.67 2653.09,601.334 2654.2,600.225 C2655.31,599.115 2656.65,598.561 2658.21,598.561 C2659.77,598.561 2661.11,599.115 2662.21,600.225 C2663.32,601.334 2663.87,602.67 2663.87,604.233 C2663.87,605.795 2663.32,607.131 2662.21,608.24 C2661.11,609.35 2659.77,609.905 2658.21,609.905 C2656.65,609.905 2655.31,609.35 2654.2,608.24"/>
<path class="NoteDot" d="M1487.8,583.24 C1486.69,582.131 1486.13,580.795 1486.13,579.233 C1486.13,577.67 1486.69,576.334 1487.8,575.225 C1488.91,574.115 1490.24,573.561 1491.8,573.561 C1493.37,573.561 1494.7,574.115 1495.8,575.225 C1496.91,576.334 1497.46,577.67 1497.46,579.233 C1497.46,580.795 1496.91,582.131 1495.8,583.24 C1494.7,584.35 1493.37,584.905 1491.8,584.905 C1490.24,584.905 1488.91,584.35 1487.8,583.24"/>
<path class="NoteDot" d="M944.491,608.24 C943.382,607.131 942.827,605.795 942.827,604.233 C942.827,602.67 943.382,601.334 944.491,600.225 C945.601,599.115 946.936,598.561 948.499,598.561 C950.061,598.561 951.395,599.115 952.499,600.225 C953.603,601.334 954.155,602.67 954.155,604.233 C954.155,605.795 953.603,607.131 952.499,608.24 C951.395,609.35 950.061,609.905 948.499,609.905 C946.936,609.905 945.601,609.35 944.491,608.24"/>
</svg>
