<?xml version="1.0" encoding="UTF-8" standalone="no"?>
<svg width="2977.2px" height="4208.4px" viewBox="0 0 2977.2 4208.4"
 xmlns="http://www.w3.org/2000/svg" xmlns:xlink="http://www.w3.org/1999/xlink" version="1.2" baseProfile="tiny">
<title>Rock_A_Bye_Baby.mscx</title>
<desc>Generated by MuseScore Studio 4.3.1</desc>
<path class="" fill="#ffffff" fill-rule="evenodd" d="M0,0 L2977.2,0 L2977.2,4208.4 L0,4208.4 L0,0 "/>
<polyline class="StaffLines" fill="none" stroke="#000000" stroke-width="2.00" stroke-linejoin="bevel" points="141.732,316.732 2835.47,316.732"/>
<polyline class="StaffLines" fill="none" stroke="#000000" stroke-width="2.00" stroke-linejoin="bevel" points="141.732,341.732 2835.47,341.732"/>
<polyline class="StaffLines" fill="none" stroke="#000000" stroke-width="2.00" stroke-linejoin="bevel" points="141.732,366.733 2835.47,366.733"/>
<polyline class="StaffLines" fill="none" stroke="#000000" stroke-width="2.00" stroke-linejoin="bevel" points="141.732,391.733 2835.47,391.733"/>
<polyline class="StaffLines" fill="none" stroke="#000000" stroke-width="2.00" stroke-linejoin="bevel" points="141.732,416.733 2835.47,416.733"/>
<polyline class="StaffLines" fill="none" stroke="#000000" stroke-width="2.00" stroke-linejoin="bevel" points="141.732,791.733 2835.47,791.733"/>
<polyline class="StaffLines" fill="none" stroke="#000000" stroke-width="2.00" stroke-linejoin="bevel" points="141.732,816.733 2835.47,816.733"/>
<polyline class="StaffLines" fill="none" stroke="#000000" stroke-width="2.00" stroke-linejoin="bevel" points="141.732,841.733 2835.47,841.733"/>
<polyline class="StaffLines" fill="none" stroke="#000000" stroke-width="2.00" stroke-linejoin="bevel" points="141.732,866.733 2835.47,866.733"/>
<polyline class="StaffLines" fill="none" stroke="#000000" stroke-width="2.00" stroke-linejoin="bevel" points="141.732,891.733 2835.47,891.733"/>
<polyline class="StaffLines" fill="none" stroke="#000000" stroke-width="2.00" stroke-linejoin="bevel" points="141.732,1266.73 2835.47,1266.73"/>
<polyline class="StaffLines" fill="none" stroke="#000000" stroke-width="2.00" stroke-linejoin="bevel" points="141.732,1291.73 2835.47,1291.73"/>
<polyline class="StaffLines" fill="none" stroke="#000000" stroke-width="2.00" stroke-linejoin="bevel" points="141.732,1316.73 2835.47,1316.73"/>
<polyline class="StaffLines" fill="none" stroke="#000000" stroke-width="2.00" stroke-linejoin="bevel" points="141.732,1341.73 2835.47,1341.73"/>
<polyline class="StaffLines" fill="none" stroke="#000000" stroke-width="2.00" stroke-linejoin="bevel" points="141.732,1366.73 2835.47,1366.73"/>
<polyline class="StaffLines" fill="none" stroke="#000000" stroke-width="2.00" stroke-linejoin="bevel" points="141.732,1741.73 2835.47,1741.73"/>
<polyline class="StaffLines" fill="none" stroke="#000000" stroke-width="2.00" stroke-linejoin="bevel" points="141.732,1766.73 2835.47,1766.73"/>
<polyline class="StaffLines" fill="none" stroke="#000000" stroke-width="2.00" stroke-linejoin="bevel" points="141.732,1791.73 2835.47,1791.73"/>
<polyline class="StaffLines" fill="none" stroke="#000000" stroke-width="2.00" stroke-linejoin="bevel" points="141.732,1816.73 2835.47,1816.73"/>
<polyline class="StaffLines" fill="none" stroke="#000000" stroke-width="2.00" stroke-linejoin="bevel" points="141.732,1841.73 2835.47,1841.73"/>
<path class="MeasureNumber" d="M146.514,733.873 C146.514,732.446 146.199,731.181 145.568,730.076 C144.938,728.972 144.178,728.118 143.287,727.514 C142.396,726.91 141.399,726.412 140.295,726.022 C139.191,725.631 138.23,725.376 137.412,725.256 C136.594,725.136 135.883,725.076 135.279,725.076 C134.956,725.076 134.795,724.967 134.795,724.748 C134.795,724.675 134.805,724.613 134.826,724.561 L139.185,715.264 L147.545,715.264 C147.972,715.264 148.313,715.196 148.568,715.061 C148.824,714.925 149.097,714.644 149.389,714.217 L149.748,714.498 L148.232,717.842 C148.128,718.061 147.821,718.17 147.31,718.17 L139.467,718.17 L137.795,721.608 C141.68,722.306 144.571,723.441 146.467,725.014 C148.363,726.587 149.31,728.894 149.31,731.936 C149.31,733.53 149.063,734.946 148.568,736.186 C148.074,737.425 147.446,738.423 146.685,739.178 C145.925,739.933 145.045,740.553 144.045,741.037 C143.045,741.522 142.087,741.853 141.17,742.03 C140.253,742.207 139.326,742.295 138.389,742.295 C136.899,742.295 135.714,742.074 134.834,741.631 C133.954,741.188 133.514,740.582 133.514,739.811 C133.514,738.821 134.087,738.326 135.232,738.326 C135.982,738.326 136.949,738.735 138.131,739.553 C139.313,740.371 140.253,740.78 140.951,740.78 C142.524,740.78 143.844,740.113 144.912,738.78 C145.98,737.446 146.514,735.811 146.514,733.873"/>
<path class="MeasureNumber" d="M128.045,1668.01 C127.566,1668.01 126.607,1668.31 125.17,1668.89 L125.17,1668.34 L132.373,1664.7 L132.685,1664.78 L132.685,1688.78 C132.685,1689.74 132.925,1690.36 133.404,1690.66 C133.883,1690.95 134.909,1691.11 136.482,1691.14 L136.482,1691.73 L125.451,1691.73 L125.451,1691.14 C126.941,1691.08 127.946,1690.85 128.467,1690.47 C128.988,1690.08 129.248,1689.26 129.248,1688.01 L129.248,1669.89 C129.248,1668.64 128.847,1668.01 128.045,1668.01 M143.951,1688.61 C144.566,1688.61 145.48,1688.97 146.693,1689.69 C147.907,1690.42 148.967,1690.78 149.873,1690.78 C151.342,1690.78 152.581,1690.21 153.592,1689.07 C154.602,1687.93 155.107,1686.53 155.107,1684.86 C155.107,1683.82 154.928,1682.9 154.568,1682.11 C154.209,1681.32 153.751,1680.7 153.193,1680.26 C152.636,1679.83 151.969,1679.47 151.193,1679.19 C150.417,1678.92 149.691,1678.74 149.014,1678.66 C148.337,1678.57 147.613,1678.53 146.842,1678.53 L146.842,1678.01 C147.748,1677.69 148.527,1677.38 149.178,1677.07 C149.829,1676.76 150.514,1676.35 151.232,1675.83 C151.951,1675.32 152.506,1674.69 152.896,1673.94 C153.287,1673.19 153.482,1672.33 153.482,1671.37 C153.482,1670.12 153.074,1669.1 152.256,1668.3 C151.438,1667.49 150.378,1667.09 149.076,1667.09 C147.826,1667.09 146.727,1667.43 145.779,1668.12 C144.831,1668.8 143.946,1669.87 143.123,1671.34 L142.514,1671.17 C143.212,1669.29 144.154,1667.74 145.342,1666.52 C146.529,1665.31 148.212,1664.7 150.389,1664.7 C152.232,1664.7 153.735,1665.21 154.896,1666.22 C156.058,1667.23 156.639,1668.55 156.639,1670.17 C156.639,1671.26 156.357,1672.23 155.795,1673.05 C155.232,1673.88 154.258,1674.76 152.873,1675.7 C154.477,1676.39 155.732,1677.27 156.639,1678.34 C157.545,1679.42 157.998,1680.95 157.998,1682.95 C157.998,1685.79 156.951,1688.05 154.857,1689.75 C152.764,1691.45 150.128,1692.3 146.951,1692.3 C145.566,1692.3 144.467,1692.09 143.654,1691.67 C142.842,1691.25 142.435,1690.7 142.435,1690.01 C142.435,1689.59 142.576,1689.25 142.857,1688.99 C143.139,1688.74 143.503,1688.61 143.951,1688.61"/>
<path class="MeasureNumber" d="M134.092,1217.61 L133.967,1216.81 C137.008,1216.28 139.589,1214.98 141.709,1212.92 C143.829,1210.86 145.3,1208.2 146.123,1204.94 C144.154,1206.48 142.159,1207.25 140.139,1207.25 C137.972,1207.25 136.23,1206.5 134.912,1205.01 C133.594,1203.51 132.935,1201.55 132.935,1199.11 C132.935,1196.4 133.727,1194.14 135.31,1192.33 C136.894,1190.53 138.873,1189.62 141.248,1189.62 C143.831,1189.62 145.951,1190.68 147.607,1192.8 C149.264,1194.91 150.092,1197.63 150.092,1200.95 C150.092,1202.01 149.998,1203.11 149.81,1204.23 C149.623,1205.36 149.188,1206.69 148.506,1208.23 C147.824,1209.76 146.938,1211.14 145.85,1212.35 C144.761,1213.56 143.204,1214.67 141.178,1215.65 C139.152,1216.64 136.79,1217.3 134.092,1217.61 M141.576,1205.5 C142.076,1205.5 142.646,1205.43 143.287,1205.28 C143.928,1205.13 144.576,1204.81 145.232,1204.32 C145.889,1203.82 146.217,1203.22 146.217,1202.5 L146.217,1200.95 C146.217,1194.19 144.456,1190.81 140.935,1190.81 C140.102,1190.81 139.394,1191.03 138.81,1191.48 C138.227,1191.92 137.782,1192.5 137.475,1193.21 C137.167,1193.92 136.946,1194.65 136.81,1195.4 C136.675,1196.14 136.607,1196.93 136.607,1197.76 C136.607,1200.13 137.055,1202.01 137.951,1203.4 C138.847,1204.8 140.055,1205.5 141.576,1205.5"/>
<polyline class="BarLine" fill="none" stroke="#000000" stroke-width="4.00" stroke-linejoin="bevel" points="2364.31,315.732 2364.31,417.733"/>
<polyline class="BarLine" fill="none" stroke="#000000" stroke-width="4.00" stroke-linejoin="bevel" points="2833.47,315.732 2833.47,417.733"/>
<polyline class="BarLine" fill="none" stroke="#000000" stroke-width="4.00" stroke-linejoin="bevel" points="997.427,790.733 997.427,892.733"/>
<polyline class="BarLine" fill="none" stroke="#000000" stroke-width="4.00" stroke-linejoin="bevel" points="1617.49,790.733 1617.49,892.733"/>
<polyline class="BarLine" fill="none" stroke="#000000" stroke-width="4.00" stroke-linejoin="bevel" points="1642.3,315.732 1642.3,417.733"/>
<polyline class="BarLine" fill="none" stroke="#000000" stroke-width="4.00" stroke-linejoin="bevel" points="2354.69,790.733 2354.69,892.733"/>
<polyline class="BarLine" fill="none" stroke="#000000" stroke-width="4.00" stroke-linejoin="bevel" points="2329.56,1740.73 2329.56,1842.73"/>
<polyline class="BarLine" fill="none" stroke="#000000" stroke-width="4.00" stroke-linejoin="bevel" points="2833.47,790.733 2833.47,892.733"/>
<polyline class="BarLine" fill="none" stroke="#000000" stroke-width="4.00" stroke-linejoin="bevel" points="958.895,1265.73 958.895,1367.73"/>
<polyline class="BarLine" fill="none" stroke="#000000" stroke-width="4.00" stroke-linejoin="bevel" points="1034.89,315.732 1034.89,417.733"/>
<polyline class="BarLine" fill="none" stroke="#000000" stroke-width="4.00" stroke-linejoin="bevel" points="1546.85,1265.73 1546.85,1367.73"/>
<polyline class="BarLine" fill="none" stroke="#000000" stroke-width="4.00" stroke-linejoin="bevel" points="2245.51,1265.73 2245.51,1367.73"/>
<polyline class="BarLine" fill="none" stroke="#000000" stroke-width="4.00" stroke-linejoin="bevel" points="2802.72,1740.73 2802.72,1842.73"/>
<polyline class="BarLine" fill="none" stroke="#000000" stroke-width="12.50" stroke-linejoin="bevel" points="2829.22,1740.73 2829.22,1842.73"/>
<polyline class="BarLine" fill="none" stroke="#000000" stroke-width="4.00" stroke-linejoin="bevel" points="2833.47,1265.73 2833.47,1367.73"/>
<polyline class="BarLine" fill="none" stroke="#000000" stroke-width="4.00" stroke-linejoin="bevel" points="1601.23,1740.73 1601.23,1842.73"/>
<polyline class="BarLine" fill="none" stroke="#000000" stroke-width="4.00" stroke-linejoin="bevel" points="988.558,1740.73 988.558,1842.73"/>
<polyline class="LedgerLine" fill="none" stroke="#000000" stroke-width="4.00" stroke-linejoin="bevel" points="1052.39,291.732 1106.1,291.732"/>
<polyline class="LedgerLine" fill="none" stroke="#000000" stroke-width="4.00" stroke-linejoin="bevel" points="1312.13,1216.73 1364.04,1216.73"/>
<polyline class="LedgerLine" fill="none" stroke="#000000" stroke-width="4.00" stroke-linejoin="bevel" points="1312.13,1241.73 1364.04,1241.73"/>
<polyline class="LedgerLine" fill="none" stroke="#000000" stroke-width="4.00" stroke-linejoin="bevel" points="976.396,1216.73 1030.11,1216.73"/>
<polyline class="LedgerLine" fill="none" stroke="#000000" stroke-width="4.00" stroke-linejoin="bevel" points="976.396,1241.73 1030.11,1241.73"/>
<polyline class="LedgerLine" fill="none" stroke="#000000" stroke-width="4.00" stroke-linejoin="bevel" points="724.174,1191.73 776.089,1191.73"/>
<polyline class="LedgerLine" fill="none" stroke="#000000" stroke-width="4.00" stroke-linejoin="bevel" points="724.174,1216.73 776.089,1216.73"/>
<polyline class="LedgerLine" fill="none" stroke="#000000" stroke-width="4.00" stroke-linejoin="bevel" points="724.174,1241.73 776.089,1241.73"/>
<polyline class="LedgerLine" fill="none" stroke="#000000" stroke-width="4.00" stroke-linejoin="bevel" points="2084.95,1716.73 2136.86,1716.73"/>
<polyline class="LedgerLine" fill="none" stroke="#000000" stroke-width="4.00" stroke-linejoin="bevel" points="792.381,241.732 844.295,241.732"/>
<polyline class="LedgerLine" fill="none" stroke="#000000" stroke-width="4.00" stroke-linejoin="bevel" points="1052.39,266.732 1106.1,266.732"/>
<polyline class="LedgerLine" fill="none" stroke="#000000" stroke-width="4.00" stroke-linejoin="bevel" points="1399.79,291.732 1451.71,291.732"/>
<polyline class="LedgerLine" fill="none" stroke="#000000" stroke-width="4.00" stroke-linejoin="bevel" points="1399.79,266.732 1451.71,266.732"/>
<polyline class="LedgerLine" fill="none" stroke="#000000" stroke-width="4.00" stroke-linejoin="bevel" points="2107.12,766.733 2159.04,766.733"/>
<polyline class="LedgerLine" fill="none" stroke="#000000" stroke-width="4.00" stroke-linejoin="bevel" points="1871.06,741.733 1922.97,741.733"/>
<polyline class="LedgerLine" fill="none" stroke="#000000" stroke-width="4.00" stroke-linejoin="bevel" points="1871.06,766.733 1922.97,766.733"/>
<polyline class="LedgerLine" fill="none" stroke="#000000" stroke-width="4.00" stroke-linejoin="bevel" points="1634.99,741.733 1686.91,741.733"/>
<polyline class="LedgerLine" fill="none" stroke="#000000" stroke-width="4.00" stroke-linejoin="bevel" points="743.95,1691.73 795.864,1691.73"/>
<polyline class="LedgerLine" fill="none" stroke="#000000" stroke-width="4.00" stroke-linejoin="bevel" points="1618.73,1691.73 1670.65,1691.73"/>
<polyline class="LedgerLine" fill="none" stroke="#000000" stroke-width="4.00" stroke-linejoin="bevel" points="1618.73,1716.73 1670.65,1716.73"/>
<polyline class="LedgerLine" fill="none" stroke="#000000" stroke-width="4.00" stroke-linejoin="bevel" points="1356.62,1691.73 1408.54,1691.73"/>
<polyline class="LedgerLine" fill="none" stroke="#000000" stroke-width="4.00" stroke-linejoin="bevel" points="1356.62,1716.73 1408.54,1716.73"/>
<polyline class="LedgerLine" fill="none" stroke="#000000" stroke-width="4.00" stroke-linejoin="bevel" points="1006.06,1666.73 1059.78,1666.73"/>
<polyline class="LedgerLine" fill="none" stroke="#000000" stroke-width="4.00" stroke-linejoin="bevel" points="1006.06,1691.73 1059.78,1691.73"/>
<polyline class="LedgerLine" fill="none" stroke="#000000" stroke-width="4.00" stroke-linejoin="bevel" points="1006.06,1716.73 1059.78,1716.73"/>
<polyline class="LedgerLine" fill="none" stroke="#000000" stroke-width="4.00" stroke-linejoin="bevel" points="743.95,1666.73 795.864,1666.73"/>
<polyline class="LedgerLine" fill="none" stroke="#000000" stroke-width="4.00" stroke-linejoin="bevel" points="2347.06,1691.73 2400.78,1691.73"/>
<polyline class="LedgerLine" fill="none" stroke="#000000" stroke-width="4.00" stroke-linejoin="bevel" points="743.95,1716.73 795.864,1716.73"/>
<polyline class="LedgerLine" fill="none" stroke="#000000" stroke-width="4.00" stroke-linejoin="bevel" points="510.841,1716.73 562.755,1716.73"/>
<polyline class="LedgerLine" fill="none" stroke="#000000" stroke-width="4.00" stroke-linejoin="bevel" points="1851.84,1716.73 1903.76,1716.73"/>
<polyline class="LedgerLine" fill="none" stroke="#000000" stroke-width="4.00" stroke-linejoin="bevel" points="2263.01,1241.73 2316.73,1241.73"/>
<polyline class="LedgerLine" fill="none" stroke="#000000" stroke-width="4.00" stroke-linejoin="bevel" points="792.381,291.732 844.295,291.732"/>
<polyline class="LedgerLine" fill="none" stroke="#000000" stroke-width="4.00" stroke-linejoin="bevel" points="792.381,266.732 844.295,266.732"/>
<polyline class="LedgerLine" fill="none" stroke="#000000" stroke-width="4.00" stroke-linejoin="bevel" points="2010.79,1216.73 2062.71,1216.73"/>
<polyline class="LedgerLine" fill="none" stroke="#000000" stroke-width="4.00" stroke-linejoin="bevel" points="2010.79,1241.73 2062.71,1241.73"/>
<polyline class="LedgerLine" fill="none" stroke="#000000" stroke-width="4.00" stroke-linejoin="bevel" points="1369.93,766.733 1421.84,766.733"/>
<polyline class="LedgerLine" fill="none" stroke="#000000" stroke-width="4.00" stroke-linejoin="bevel" points="1634.99,766.733 1686.91,766.733"/>
<polyline class="LedgerLine" fill="none" stroke="#000000" stroke-width="4.00" stroke-linejoin="bevel" points="1014.93,716.733 1068.65,716.733"/>
<polyline class="LedgerLine" fill="none" stroke="#000000" stroke-width="4.00" stroke-linejoin="bevel" points="513.797,766.733 565.711,766.733"/>
<polyline class="LedgerLine" fill="none" stroke="#000000" stroke-width="4.00" stroke-linejoin="bevel" points="2381.81,291.732 2435.53,291.732"/>
<polyline class="LedgerLine" fill="none" stroke="#000000" stroke-width="4.00" stroke-linejoin="bevel" points="1014.93,741.733 1068.65,741.733"/>
<polyline class="LedgerLine" fill="none" stroke="#000000" stroke-width="4.00" stroke-linejoin="bevel" points="1014.93,766.733 1068.65,766.733"/>
<polyline class="LedgerLine" fill="none" stroke="#000000" stroke-width="4.00" stroke-linejoin="bevel" points="1369.93,741.733 1421.84,741.733"/>
<polyline class="LedgerLine" fill="none" stroke="#000000" stroke-width="4.00" stroke-linejoin="bevel" points="749.862,766.733 801.776,766.733"/>
<polyline class="LedgerLine" fill="none" stroke="#000000" stroke-width="4.00" stroke-linejoin="bevel" points="2347.06,1716.73 2400.78,1716.73"/>
<polyline class="LedgerLine" fill="none" stroke="#000000" stroke-width="4.00" stroke-linejoin="bevel" points="749.862,741.733 801.776,741.733"/>
<polyline class="LedgerLine" fill="none" stroke="#000000" stroke-width="4.00" stroke-linejoin="bevel" points="2121.81,266.732 2173.72,266.732"/>
<polyline class="LedgerLine" fill="none" stroke="#000000" stroke-width="4.00" stroke-linejoin="bevel" points="749.862,716.733 801.776,716.733"/>
<polyline class="LedgerLine" fill="none" stroke="#000000" stroke-width="4.00" stroke-linejoin="bevel" points="2121.81,291.732 2173.72,291.732"/>
<polyline class="Stem" fill="none" stroke="#000000" stroke-width="3.25" stroke-linejoin="bevel" points="2358.18,1696.63 2358.18,1791.73"/>
<polyline class="Stem" fill="none" stroke="#000000" stroke-width="3.25" stroke-linejoin="bevel" points="1575.48,1285.1 1575.48,1366.73"/>
<polyline class="Stem" fill="none" stroke="#000000" stroke-width="3.25" stroke-linejoin="bevel" points="2132.93,272.602 2132.93,366.733"/>
<polyline class="Stem" fill="none" stroke="#000000" stroke-width="3.25" stroke-linejoin="bevel" points="1323.25,1222.6 1323.25,1316.73"/>
<polyline class="Stem" fill="none" stroke="#000000" stroke-width="3.25" stroke-linejoin="bevel" points="1798.7,1260.1 1798.7,1341.73"/>
<polyline class="Stem" fill="none" stroke="#000000" stroke-width="3.25" stroke-linejoin="bevel" points="341.498,335.102 341.498,416.733"/>
<polyline class="Stem" fill="none" stroke="#000000" stroke-width="3.25" stroke-linejoin="bevel" points="2021.92,1222.6 2021.92,1316.73"/>
<polyline class="Stem" fill="none" stroke="#000000" stroke-width="3.25" stroke-linejoin="bevel" points="760.987,710.102 760.987,841.733"/>
<polyline class="Stem" fill="none" stroke="#000000" stroke-width="3.25" stroke-linejoin="bevel" points="987.521,1209.13 987.521,1316.73"/>
<polyline class="Stem" fill="none" stroke="#000000" stroke-width="3.25" stroke-linejoin="bevel" points="755.075,1660.1 755.075,1791.73"/>
<polyline class="Stem" fill="none" stroke="#000000" stroke-width="3.25" stroke-linejoin="bevel" points="524.922,772.602 524.922,854.233"/>
<polyline class="Stem" fill="none" stroke="#000000" stroke-width="3.25" stroke-linejoin="bevel" points="2274.14,1234.13 2274.14,1316.73"/>
<polyline class="Stem" fill="none" stroke="#000000" stroke-width="3.25" stroke-linejoin="bevel" points="1901.93,310.102 1901.93,391.733"/>
<polyline class="Stem" fill="none" stroke="#000000" stroke-width="3.25" stroke-linejoin="bevel" points="2609.87,1285.1 2609.87,1366.73"/>
<polyline class="Stem" fill="none" stroke="#000000" stroke-width="3.25" stroke-linejoin="bevel" points="521.966,1722.6 521.966,1804.23"/>
<polyline class="Stem" fill="none" stroke="#000000" stroke-width="3.25" stroke-linejoin="bevel" points="803.506,247.602 803.506,366.733"/>
<polyline class="Stem" fill="none" stroke="#000000" stroke-width="3.25" stroke-linejoin="bevel" points="572.502,310.102 572.502,391.733"/>
<polyline class="Stem" fill="none" stroke="#000000" stroke-width="3.25" stroke-linejoin="bevel" points="288.857,797.602 288.857,879.233"/>
<polyline class="Stem" fill="none" stroke="#000000" stroke-width="3.25" stroke-linejoin="bevel" points="1862.97,1722.6 1862.97,1804.23"/>
<polyline class="Stem" fill="none" stroke="#000000" stroke-width="3.25" stroke-linejoin="bevel" points="288.857,1747.6 288.857,1829.23"/>
<polyline class="Stem" fill="none" stroke="#000000" stroke-width="3.25" stroke-linejoin="bevel" points="1017.18,1671.63 1017.18,1791.73"/>
<polyline class="Stem" fill="none" stroke="#000000" stroke-width="3.25" stroke-linejoin="bevel" points="1410.92,272.602 1410.92,366.733"/>
<polyline class="Stem" fill="none" stroke="#000000" stroke-width="3.25" stroke-linejoin="bevel" points="2383.31,784.133 2383.31,866.733"/>
<polyline class="Stem" fill="none" stroke="#000000" stroke-width="3.25" stroke-linejoin="bevel" points="1629.86,1685.1 1629.86,1791.73"/>
<polyline class="Stem" fill="none" stroke="#000000" stroke-width="3.25" stroke-linejoin="bevel" points="2392.94,284.132 2392.94,366.733"/>
<polyline class="Stem" fill="none" stroke="#000000" stroke-width="3.25" stroke-linejoin="bevel" points="1381.05,735.102 1381.05,841.733"/>
<polyline class="Stem" fill="none" stroke="#000000" stroke-width="3.25" stroke-linejoin="bevel" points="1367.75,1697.6 1367.75,1791.73"/>
<polyline class="Stem" fill="none" stroke="#000000" stroke-width="3.25" stroke-linejoin="bevel" points="2118.25,772.602 2118.25,854.233"/>
<polyline class="Stem" fill="none" stroke="#000000" stroke-width="3.25" stroke-linejoin="bevel" points="2096.07,1710.1 2096.07,1791.73"/>
<polyline class="Stem" fill="none" stroke="#000000" stroke-width="3.25" stroke-linejoin="bevel" points="288.857,1285.1 288.857,1366.73"/>
<polyline class="Stem" fill="none" stroke="#000000" stroke-width="3.25" stroke-linejoin="bevel" points="512.078,1260.1 512.078,1341.73"/>
<polyline class="Stem" fill="none" stroke="#000000" stroke-width="3.25" stroke-linejoin="bevel" points="735.299,1197.6 735.299,1316.73"/>
<polyline class="Stem" fill="none" stroke="#000000" stroke-width="3.25" stroke-linejoin="bevel" points="1026.05,721.633 1026.05,841.733"/>
<polyline class="Stem" fill="none" stroke="#000000" stroke-width="3.25" stroke-linejoin="bevel" points="1646.12,735.102 1646.12,841.733"/>
<polyline class="Stem" fill="none" stroke="#000000" stroke-width="3.25" stroke-linejoin="bevel" points="1882.18,747.602 1882.18,841.733"/>
<polyline class="Stem" fill="none" stroke="#000000" stroke-width="3.25" stroke-linejoin="bevel" points="1063.51,259.132 1063.51,366.733"/>
<polyline class="Stem" fill="none" stroke="#000000" stroke-width="3.25" stroke-linejoin="bevel" points="1670.92,335.102 1670.92,416.733"/>
<path class="Note" d="M309.201,1727.97 C312.326,1727.97 314.93,1728.75 317.014,1730.31 C319.097,1731.87 320.139,1734.12 320.139,1737.05 C320.139,1741.54 317.813,1745.73 313.162,1749.64 C308.511,1753.55 303.514,1755.5 298.17,1755.5 C295.045,1755.5 292.41,1754.69 290.264,1753.06 C288.243,1751.3 287.232,1749.09 287.232,1746.42 C287.232,1742.06 289.545,1737.89 294.17,1733.92 C298.795,1729.95 303.805,1727.97 309.201,1727.97"/>
<path class="Note" d="M2153.27,252.967 C2156.4,252.967 2159,253.748 2161.09,255.311 C2163.17,256.873 2164.21,259.118 2164.21,262.045 C2164.21,266.535 2161.89,270.732 2157.24,274.639 C2152.58,278.545 2147.59,280.498 2142.24,280.498 C2139.12,280.498 2136.48,279.686 2134.34,278.061 C2132.32,276.3 2131.31,274.087 2131.31,271.42 C2131.31,267.055 2133.62,262.889 2138.24,258.92 C2142.87,254.951 2147.88,252.967 2153.27,252.967"/>
<path class="Note" d="M2363.98,1702.37 C2365.87,1702.37 2369.82,1700.42 2375.85,1696.51 C2381.87,1692.61 2385.42,1689.99 2386.5,1688.66 C2387.57,1687.32 2388.11,1686.13 2388.11,1685.09 C2388.11,1684.05 2387.68,1683.12 2386.83,1682.31 C2385.98,1681.5 2385.01,1681.09 2383.9,1681.09 C2381.95,1681.09 2377.97,1683.06 2371.94,1687 C2365.91,1690.94 2362.38,1693.56 2361.34,1694.86 C2360.3,1696.16 2359.78,1697.33 2359.78,1698.37 C2359.78,1699.42 2360.19,1700.34 2361,1701.16 C2361.82,1701.97 2362.81,1702.37 2363.98,1702.37 M2382.93,1677.97 C2388.53,1677.97 2391.32,1680.37 2391.32,1685.19 C2391.32,1687.53 2390.64,1690.25 2389.28,1693.34 C2387.91,1696.44 2386.09,1698.8 2383.81,1700.42 C2378.8,1703.81 2372.52,1705.5 2364.96,1705.5 C2359.36,1705.5 2356.56,1703.09 2356.56,1698.28 C2356.56,1696.13 2357.22,1693.47 2358.56,1690.27 C2359.89,1687.08 2361.73,1684.67 2364.07,1683.05 C2369.09,1679.66 2375.38,1677.97 2382.93,1677.97"/>
<path class="Note" d="M1650.2,1665.47 C1653.33,1665.47 1655.93,1666.25 1658.01,1667.81 C1660.1,1669.37 1661.14,1671.62 1661.14,1674.55 C1661.14,1679.04 1658.81,1683.23 1654.16,1687.14 C1649.51,1691.05 1644.51,1693 1639.17,1693 C1636.04,1693 1633.41,1692.19 1631.26,1690.56 C1629.24,1688.8 1628.23,1686.59 1628.23,1683.92 C1628.23,1679.56 1630.54,1675.39 1635.17,1671.42 C1639.79,1667.45 1644.81,1665.47 1650.2,1665.47"/>
<path class="Note" d="M542.31,1702.97 C545.435,1702.97 548.039,1703.75 550.122,1705.31 C552.206,1706.87 553.247,1709.12 553.247,1712.05 C553.247,1716.54 550.922,1720.73 546.271,1724.64 C541.62,1728.55 536.622,1730.5 531.279,1730.5 C528.154,1730.5 525.518,1729.69 523.372,1728.06 C521.351,1726.3 520.341,1724.09 520.341,1721.42 C520.341,1717.06 522.654,1712.89 527.279,1708.92 C531.904,1704.95 536.914,1702.97 542.31,1702.97"/>
<path class="Note" d="M1388.09,1677.97 C1391.22,1677.97 1393.82,1678.75 1395.9,1680.31 C1397.99,1681.87 1399.03,1684.12 1399.03,1687.05 C1399.03,1691.54 1396.7,1695.73 1392.05,1699.64 C1387.4,1703.55 1382.4,1705.5 1377.06,1705.5 C1373.94,1705.5 1371.3,1704.69 1369.15,1703.06 C1367.13,1701.3 1366.12,1699.09 1366.12,1696.42 C1366.12,1692.06 1368.44,1687.89 1373.06,1683.92 C1377.69,1679.95 1382.7,1677.97 1388.09,1677.97"/>
<path class="Note" d="M1922.27,290.467 C1925.4,290.467 1928,291.248 1930.08,292.811 C1932.17,294.373 1933.21,296.618 1933.21,299.545 C1933.21,304.035 1930.88,308.232 1926.23,312.139 C1921.58,316.045 1916.58,317.998 1911.24,317.998 C1908.11,317.998 1905.48,317.186 1903.33,315.561 C1901.31,313.8 1900.3,311.587 1900.3,308.92 C1900.3,304.555 1902.61,300.389 1907.24,296.42 C1911.86,292.451 1916.87,290.467 1922.27,290.467"/>
<path class="Note" d="M1022.98,1677.37 C1024.87,1677.37 1028.82,1675.42 1034.85,1671.51 C1040.87,1667.61 1044.42,1664.99 1045.5,1663.66 C1046.57,1662.32 1047.11,1661.13 1047.11,1660.09 C1047.11,1659.05 1046.68,1658.12 1045.83,1657.31 C1044.98,1656.5 1044.01,1656.09 1042.9,1656.09 C1040.95,1656.09 1036.97,1658.06 1030.94,1662 C1024.92,1665.94 1021.38,1668.56 1020.34,1669.86 C1019.3,1671.16 1018.78,1672.33 1018.78,1673.37 C1018.78,1674.42 1019.19,1675.34 1020,1676.16 C1020.82,1676.97 1021.81,1677.37 1022.98,1677.37 M1041.93,1652.97 C1047.53,1652.97 1050.32,1655.37 1050.32,1660.19 C1050.32,1662.53 1049.64,1665.25 1048.28,1668.34 C1046.91,1671.44 1045.09,1673.8 1042.81,1675.42 C1037.8,1678.81 1031.52,1680.5 1023.96,1680.5 C1018.36,1680.5 1015.56,1678.09 1015.56,1673.28 C1015.56,1671.13 1016.23,1668.47 1017.56,1665.27 C1018.89,1662.08 1020.73,1659.67 1023.07,1658.05 C1028.09,1654.66 1034.38,1652.97 1041.93,1652.97"/>
<path class="Note" d="M2398.73,289.873 C2400.62,289.873 2404.57,287.92 2410.6,284.014 C2416.63,280.107 2420.17,277.488 2421.25,276.154 C2422.32,274.821 2422.86,273.633 2422.86,272.592 C2422.86,271.55 2422.43,270.623 2421.58,269.811 C2420.73,268.998 2419.76,268.592 2418.65,268.592 C2416.71,268.592 2412.72,270.561 2406.69,274.498 C2400.67,278.436 2397.13,281.055 2396.09,282.357 C2395.05,283.66 2394.53,284.831 2394.53,285.873 C2394.53,286.915 2394.94,287.842 2395.76,288.654 C2396.57,289.467 2397.57,289.873 2398.73,289.873 M2417.69,265.467 C2423.28,265.467 2426.08,267.873 2426.08,272.686 C2426.08,275.029 2425.39,277.748 2424.03,280.842 C2422.66,283.936 2420.84,286.295 2418.56,287.92 C2413.55,291.305 2407.27,292.998 2399.72,292.998 C2394.11,292.998 2391.31,290.592 2391.31,285.779 C2391.31,283.633 2391.98,280.964 2393.31,277.772 C2394.64,274.579 2396.48,272.17 2398.83,270.545 C2403.85,267.16 2410.13,265.467 2417.69,265.467"/>
<path class="Note" d="M775.418,1640.47 C778.543,1640.47 781.148,1641.25 783.231,1642.81 C785.314,1644.37 786.356,1646.62 786.356,1649.55 C786.356,1654.04 784.03,1658.23 779.379,1662.14 C774.728,1666.05 769.731,1668 764.387,1668 C761.262,1668 758.627,1667.19 756.481,1665.56 C754.46,1663.8 753.45,1661.59 753.45,1658.92 C753.45,1654.56 755.762,1650.39 760.387,1646.42 C765.012,1642.45 770.023,1640.47 775.418,1640.47"/>
<path class="Note" d="M361.842,315.467 C364.967,315.467 367.571,316.248 369.654,317.811 C371.738,319.373 372.779,321.618 372.779,324.545 C372.779,329.035 370.454,333.232 365.803,337.139 C361.152,341.045 356.154,342.998 350.811,342.998 C347.686,342.998 345.05,342.186 342.904,340.561 C340.884,338.8 339.873,336.587 339.873,333.92 C339.873,329.555 342.186,325.389 346.811,321.42 C351.436,317.451 356.446,315.467 361.842,315.467"/>
<path class="Note" d="M1819.04,1240.47 C1822.17,1240.47 1824.77,1241.25 1826.85,1242.81 C1828.94,1244.37 1829.98,1246.62 1829.98,1249.55 C1829.98,1254.04 1827.65,1258.23 1823,1262.14 C1818.35,1266.05 1813.35,1268 1808.01,1268 C1804.88,1268 1802.25,1267.19 1800.1,1265.56 C1798.08,1263.8 1797.07,1261.59 1797.07,1258.92 C1797.07,1254.56 1799.38,1250.39 1804.01,1246.42 C1808.63,1242.45 1813.64,1240.47 1819.04,1240.47"/>
<path class="Note" d="M755.643,1177.97 C758.768,1177.97 761.372,1178.75 763.456,1180.31 C765.539,1181.87 766.581,1184.12 766.581,1187.05 C766.581,1191.54 764.255,1195.73 759.604,1199.64 C754.953,1203.55 749.956,1205.5 744.612,1205.5 C741.487,1205.5 738.852,1204.69 736.706,1203.06 C734.685,1201.3 733.674,1199.09 733.674,1196.42 C733.674,1192.06 735.987,1187.89 740.612,1183.92 C745.237,1179.95 750.247,1177.97 755.643,1177.97"/>
<path class="Note" d="M1666.46,715.467 C1669.59,715.467 1672.19,716.248 1674.27,717.811 C1676.36,719.373 1677.4,721.618 1677.4,724.545 C1677.4,729.035 1675.07,733.233 1670.42,737.139 C1665.77,741.045 1660.77,742.998 1655.43,742.998 C1652.3,742.998 1649.67,742.186 1647.52,740.561 C1645.5,738.8 1644.49,736.587 1644.49,733.92 C1644.49,729.556 1646.8,725.389 1651.43,721.42 C1656.05,717.451 1661.06,715.467 1666.46,715.467"/>
<path class="Note" d="M1431.26,252.967 C1434.39,252.967 1436.99,253.748 1439.08,255.311 C1441.16,256.873 1442.2,259.118 1442.2,262.045 C1442.2,266.535 1439.87,270.732 1435.22,274.639 C1430.57,278.545 1425.58,280.498 1420.23,280.498 C1417.11,280.498 1414.47,279.686 1412.33,278.061 C1410.3,276.3 1409.29,274.087 1409.29,271.42 C1409.29,267.055 1411.61,262.889 1416.23,258.92 C1420.86,254.951 1425.87,252.967 1431.26,252.967"/>
<path class="Note" d="M1902.53,727.967 C1905.65,727.967 1908.25,728.748 1910.34,730.311 C1912.42,731.873 1913.46,734.118 1913.46,737.045 C1913.46,741.535 1911.14,745.733 1906.49,749.639 C1901.84,753.545 1896.84,755.498 1891.49,755.498 C1888.37,755.498 1885.73,754.686 1883.59,753.061 C1881.57,751.3 1880.56,749.087 1880.56,746.42 C1880.56,742.056 1882.87,737.889 1887.49,733.92 C1892.12,729.951 1897.13,727.967 1902.53,727.967"/>
<path class="Note" d="M1401.4,715.467 C1404.52,715.467 1407.12,716.248 1409.21,717.811 C1411.29,719.373 1412.33,721.618 1412.33,724.545 C1412.33,729.035 1410.01,733.233 1405.36,737.139 C1400.71,741.045 1395.71,742.998 1390.36,742.998 C1387.24,742.998 1384.6,742.186 1382.46,740.561 C1380.44,738.8 1379.43,736.587 1379.43,733.92 C1379.43,729.556 1381.74,725.389 1386.36,721.42 C1390.99,717.451 1396,715.467 1401.4,715.467"/>
<path class="Note" d="M2138.59,752.967 C2141.72,752.967 2144.32,753.748 2146.4,755.311 C2148.49,756.873 2149.53,759.118 2149.53,762.045 C2149.53,766.535 2147.2,770.733 2142.55,774.639 C2137.9,778.545 2132.9,780.498 2127.56,780.498 C2124.43,780.498 2121.8,779.686 2119.65,778.061 C2117.63,776.3 2116.62,774.087 2116.62,771.42 C2116.62,767.056 2118.93,762.889 2123.56,758.92 C2128.18,754.952 2133.19,752.967 2138.59,752.967"/>
<path class="Note" d="M2389.11,789.873 C2390.99,789.873 2394.95,787.92 2400.98,784.014 C2407,780.108 2410.55,777.488 2411.62,776.155 C2412.7,774.821 2413.23,773.634 2413.23,772.592 C2413.23,771.55 2412.81,770.623 2411.96,769.811 C2411.11,768.998 2410.13,768.592 2409.03,768.592 C2407.08,768.592 2403.1,770.561 2397.07,774.498 C2391.04,778.436 2387.51,781.056 2386.47,782.358 C2385.43,783.66 2384.91,784.832 2384.91,785.873 C2384.91,786.915 2385.31,787.842 2386.13,788.655 C2386.95,789.467 2387.94,789.873 2389.11,789.873 M2408.06,765.467 C2413.66,765.467 2416.45,767.873 2416.45,772.686 C2416.45,775.03 2415.77,777.748 2414.41,780.842 C2413.04,783.936 2411.22,786.295 2408.94,787.92 C2403.93,791.306 2397.65,792.998 2390.09,792.998 C2384.49,792.998 2381.69,790.592 2381.69,785.78 C2381.69,783.634 2382.35,780.965 2383.69,777.772 C2385.02,774.579 2386.86,772.17 2389.2,770.545 C2394.22,767.16 2400.51,765.467 2408.06,765.467"/>
<path class="Note" d="M2116.42,1690.47 C2119.54,1690.47 2122.15,1691.25 2124.23,1692.81 C2126.31,1694.37 2127.36,1696.62 2127.36,1699.55 C2127.36,1704.04 2125.03,1708.23 2120.38,1712.14 C2115.73,1716.05 2110.73,1718 2105.39,1718 C2102.26,1718 2099.63,1717.19 2097.48,1715.56 C2095.46,1713.8 2094.45,1711.59 2094.45,1708.92 C2094.45,1704.56 2096.76,1700.39 2101.39,1696.42 C2106.01,1692.45 2111.02,1690.47 2116.42,1690.47"/>
<path class="Note" d="M1069.31,264.873 C1071.19,264.873 1075.15,262.92 1081.17,259.014 C1087.2,255.107 1090.75,252.488 1091.82,251.154 C1092.9,249.821 1093.43,248.633 1093.43,247.592 C1093.43,246.55 1093.01,245.623 1092.16,244.811 C1091.31,243.998 1090.33,243.592 1089.23,243.592 C1087.28,243.592 1083.29,245.561 1077.27,249.498 C1071.24,253.436 1067.71,256.055 1066.67,257.357 C1065.62,258.66 1065.1,259.831 1065.1,260.873 C1065.1,261.915 1065.51,262.842 1066.33,263.654 C1067.15,264.467 1068.14,264.873 1069.31,264.873 M1088.26,240.467 C1093.85,240.467 1096.65,242.873 1096.65,247.686 C1096.65,250.029 1095.97,252.748 1094.6,255.842 C1093.24,258.936 1091.42,261.295 1089.14,262.92 C1084.12,266.305 1077.84,267.998 1070.29,267.998 C1064.69,267.998 1061.89,265.592 1061.89,260.779 C1061.89,258.633 1062.55,255.964 1063.89,252.771 C1065.22,249.579 1067.06,247.17 1069.4,245.545 C1074.42,242.16 1080.71,240.467 1088.26,240.467"/>
<path class="Note" d="M1031.85,727.373 C1033.73,727.373 1037.69,725.42 1043.72,721.514 C1049.74,717.608 1053.29,714.988 1054.36,713.655 C1055.44,712.321 1055.97,711.134 1055.97,710.092 C1055.97,709.05 1055.55,708.123 1054.7,707.311 C1053.85,706.498 1052.88,706.092 1051.77,706.092 C1049.82,706.092 1045.84,708.061 1039.81,711.998 C1033.78,715.936 1030.25,718.556 1029.21,719.858 C1028.17,721.16 1027.65,722.332 1027.65,723.373 C1027.65,724.415 1028.05,725.342 1028.87,726.155 C1029.69,726.967 1030.68,727.373 1031.85,727.373 M1050.8,702.967 C1056.4,702.967 1059.19,705.373 1059.19,710.186 C1059.19,712.53 1058.51,715.248 1057.15,718.342 C1055.78,721.436 1053.96,723.795 1051.68,725.42 C1046.67,728.806 1040.39,730.498 1032.83,730.498 C1027.23,730.498 1024.43,728.092 1024.43,723.28 C1024.43,721.134 1025.09,718.464 1026.43,715.272 C1027.76,712.079 1029.6,709.67 1031.94,708.045 C1036.96,704.66 1043.25,702.967 1050.8,702.967"/>
<path class="Note" d="M309.201,1265.47 C312.326,1265.47 314.93,1266.25 317.014,1267.81 C319.097,1269.37 320.139,1271.62 320.139,1274.55 C320.139,1279.04 317.813,1283.23 313.162,1287.14 C308.511,1291.05 303.514,1293 298.17,1293 C295.045,1293 292.41,1292.19 290.264,1290.56 C288.243,1288.8 287.232,1286.59 287.232,1283.92 C287.232,1279.56 289.545,1275.39 294.17,1271.42 C298.795,1267.45 303.805,1265.47 309.201,1265.47"/>
<path class="Note" d="M532.422,1240.47 C535.547,1240.47 538.151,1241.25 540.235,1242.81 C542.318,1244.37 543.36,1246.62 543.36,1249.55 C543.36,1254.04 541.034,1258.23 536.383,1262.14 C531.732,1266.05 526.735,1268 521.391,1268 C518.266,1268 515.631,1267.19 513.485,1265.56 C511.464,1263.8 510.453,1261.59 510.453,1258.92 C510.453,1254.56 512.766,1250.39 517.391,1246.42 C522.016,1242.45 527.026,1240.47 532.422,1240.47"/>
<path class="Note" d="M592.846,290.467 C595.971,290.467 598.575,291.248 600.658,292.811 C602.742,294.373 603.783,296.618 603.783,299.545 C603.783,304.035 601.458,308.232 596.807,312.139 C592.156,316.045 587.158,317.998 581.815,317.998 C578.69,317.998 576.054,317.186 573.908,315.561 C571.888,313.8 570.877,311.587 570.877,308.92 C570.877,304.555 573.19,300.389 577.815,296.42 C582.44,292.451 587.45,290.467 592.846,290.467"/>
<path class="Note" d="M1691.27,315.467 C1694.39,315.467 1697,316.248 1699.08,317.811 C1701.16,319.373 1702.2,321.618 1702.2,324.545 C1702.2,329.035 1699.88,333.232 1695.23,337.139 C1690.58,341.045 1685.58,342.998 1680.24,342.998 C1677.11,342.998 1674.47,342.186 1672.33,340.561 C1670.31,338.8 1669.3,336.587 1669.3,333.92 C1669.3,329.555 1671.61,325.389 1676.24,321.42 C1680.86,317.451 1685.87,315.467 1691.27,315.467"/>
<path class="Note" d="M781.331,690.467 C784.456,690.467 787.06,691.248 789.144,692.811 C791.227,694.373 792.269,696.618 792.269,699.545 C792.269,704.035 789.943,708.233 785.292,712.139 C780.641,716.045 775.644,717.998 770.3,717.998 C767.175,717.998 764.539,717.186 762.394,715.561 C760.373,713.8 759.362,711.587 759.362,708.92 C759.362,704.556 761.675,700.389 766.3,696.42 C770.925,692.451 775.935,690.467 781.331,690.467"/>
<path class="Note" d="M993.317,1214.87 C995.203,1214.87 999.159,1212.92 1005.18,1209.01 C1011.21,1205.11 1014.76,1202.49 1015.83,1201.15 C1016.91,1199.82 1017.44,1198.63 1017.44,1197.59 C1017.44,1196.55 1017.02,1195.62 1016.17,1194.81 C1015.32,1194 1014.34,1193.59 1013.24,1193.59 C1011.29,1193.59 1007.3,1195.56 1001.28,1199.5 C995.252,1203.44 991.718,1206.06 990.677,1207.36 C989.635,1208.66 989.114,1209.83 989.114,1210.87 C989.114,1211.92 989.523,1212.84 990.341,1213.65 C991.159,1214.47 992.151,1214.87 993.317,1214.87 M1012.27,1190.47 C1017.86,1190.47 1020.66,1192.87 1020.66,1197.69 C1020.66,1200.03 1019.98,1202.75 1018.61,1205.84 C1017.25,1208.94 1015.43,1211.3 1013.15,1212.92 C1008.14,1216.31 1001.85,1218 994.302,1218 C988.698,1218 985.896,1215.59 985.896,1210.78 C985.896,1208.63 986.562,1205.96 987.896,1202.77 C989.229,1199.58 991.067,1197.17 993.411,1195.55 C998.432,1192.16 1004.72,1190.47 1012.27,1190.47"/>
<path class="Note" d="M1343.6,1202.97 C1346.72,1202.97 1349.33,1203.75 1351.41,1205.31 C1353.49,1206.87 1354.54,1209.12 1354.54,1212.05 C1354.54,1216.54 1352.21,1220.73 1347.56,1224.64 C1342.91,1228.55 1337.91,1230.5 1332.57,1230.5 C1329.44,1230.5 1326.81,1229.69 1324.66,1228.06 C1322.64,1226.3 1321.63,1224.09 1321.63,1221.42 C1321.63,1217.06 1323.94,1212.89 1328.57,1208.92 C1333.19,1204.95 1338.2,1202.97 1343.6,1202.97"/>
<path class="Note" d="M823.85,227.967 C826.975,227.967 829.579,228.748 831.662,230.311 C833.746,231.873 834.787,234.118 834.787,237.045 C834.787,241.535 832.462,245.732 827.811,249.639 C823.16,253.545 818.162,255.498 812.819,255.498 C809.694,255.498 807.058,254.686 804.912,253.061 C802.892,251.3 801.881,249.087 801.881,246.42 C801.881,242.055 804.194,237.889 808.819,233.92 C813.444,229.951 818.454,227.967 823.85,227.967"/>
<path class="Note" d="M1595.82,1265.47 C1598.94,1265.47 1601.55,1266.25 1603.63,1267.81 C1605.71,1269.37 1606.76,1271.62 1606.76,1274.55 C1606.76,1279.04 1604.43,1283.23 1599.78,1287.14 C1595.13,1291.05 1590.13,1293 1584.79,1293 C1581.66,1293 1579.03,1292.19 1576.88,1290.56 C1574.86,1288.8 1573.85,1286.59 1573.85,1283.92 C1573.85,1279.56 1576.16,1275.39 1580.79,1271.42 C1585.41,1267.45 1590.42,1265.47 1595.82,1265.47"/>
<path class="Note" d="M545.266,752.967 C548.391,752.967 550.995,753.748 553.079,755.311 C555.162,756.873 556.204,759.118 556.204,762.045 C556.204,766.535 553.878,770.733 549.227,774.639 C544.576,778.545 539.579,780.498 534.235,780.498 C531.11,780.498 528.474,779.686 526.329,778.061 C524.308,776.3 523.297,774.087 523.297,771.42 C523.297,767.056 525.61,762.889 530.235,758.92 C534.86,754.952 539.87,752.967 545.266,752.967"/>
<path class="Note" d="M2042.26,1202.97 C2045.39,1202.97 2047.99,1203.75 2050.07,1205.31 C2052.16,1206.87 2053.2,1209.12 2053.2,1212.05 C2053.2,1216.54 2050.87,1220.73 2046.22,1224.64 C2041.57,1228.55 2036.57,1230.5 2031.23,1230.5 C2028.1,1230.5 2025.47,1229.69 2023.32,1228.06 C2021.3,1226.3 2020.29,1224.09 2020.29,1221.42 C2020.29,1217.06 2022.6,1212.89 2027.23,1208.92 C2031.85,1204.95 2036.87,1202.97 2042.26,1202.97"/>
<path class="Note" d="M1883.31,1702.97 C1886.43,1702.97 1889.04,1703.75 1891.12,1705.31 C1893.21,1706.87 1894.25,1709.12 1894.25,1712.05 C1894.25,1716.54 1891.92,1720.73 1887.27,1724.64 C1882.62,1728.55 1877.62,1730.5 1872.28,1730.5 C1869.15,1730.5 1866.52,1729.69 1864.37,1728.06 C1862.35,1726.3 1861.34,1724.09 1861.34,1721.42 C1861.34,1717.06 1863.65,1712.89 1868.28,1708.92 C1872.9,1704.95 1877.91,1702.97 1883.31,1702.97"/>
<path class="Note" d="M309.201,777.967 C312.326,777.967 314.93,778.748 317.014,780.311 C319.097,781.873 320.139,784.118 320.139,787.045 C320.139,791.535 317.813,795.733 313.162,799.639 C308.511,803.545 303.514,805.498 298.17,805.498 C295.045,805.498 292.41,804.686 290.264,803.061 C288.243,801.3 287.232,799.087 287.232,796.42 C287.232,792.056 289.545,787.889 294.17,783.92 C298.795,779.952 303.805,777.967 309.201,777.967"/>
<path class="Note" d="M2279.94,1239.87 C2281.82,1239.87 2285.78,1237.92 2291.8,1234.01 C2297.83,1230.11 2301.38,1227.49 2302.45,1226.15 C2303.52,1224.82 2304.06,1223.63 2304.06,1222.59 C2304.06,1221.55 2303.64,1220.62 2302.79,1219.81 C2301.94,1219 2300.96,1218.59 2299.86,1218.59 C2297.91,1218.59 2293.92,1220.56 2287.9,1224.5 C2281.87,1228.44 2278.34,1231.06 2277.29,1232.36 C2276.25,1233.66 2275.73,1234.83 2275.73,1235.87 C2275.73,1236.92 2276.14,1237.84 2276.96,1238.65 C2277.78,1239.47 2278.77,1239.87 2279.94,1239.87 M2298.89,1215.47 C2304.48,1215.47 2307.28,1217.87 2307.28,1222.69 C2307.28,1225.03 2306.6,1227.75 2305.23,1230.84 C2303.87,1233.94 2302.04,1236.3 2299.76,1237.92 C2294.75,1241.31 2288.47,1243 2280.92,1243 C2275.32,1243 2272.51,1240.59 2272.51,1235.78 C2272.51,1233.63 2273.18,1230.96 2274.51,1227.77 C2275.85,1224.58 2277.69,1222.17 2280.03,1220.55 C2285.05,1217.16 2291.34,1215.47 2298.89,1215.47"/>
<path class="Note" d="M2630.22,1265.47 C2633.34,1265.47 2635.95,1266.25 2638.03,1267.81 C2640.11,1269.37 2641.15,1271.62 2641.15,1274.55 C2641.15,1279.04 2638.83,1283.23 2634.18,1287.14 C2629.53,1291.05 2624.53,1293 2619.18,1293 C2616.06,1293 2613.42,1292.19 2611.28,1290.56 C2609.26,1288.8 2608.25,1286.59 2608.25,1283.92 C2608.25,1279.56 2610.56,1275.39 2615.18,1271.42 C2619.81,1267.45 2624.82,1265.47 2630.22,1265.47"/>
<path class="Clef" d="M203.623,423.858 L203.623,421.717 C203.56,420.613 203.399,418.889 203.139,416.545 C199.889,417.066 196.993,417.326 194.451,417.326 C185.337,417.326 177.605,413.727 171.256,406.529 C164.907,399.331 161.732,390.753 161.732,380.795 C161.732,378.128 162.253,374.923 163.295,371.178 C164.337,367.433 165.297,364.925 166.178,363.654 C167.058,362.384 168.378,360.154 170.139,356.967 C170.659,355.988 172.352,353.837 175.217,350.514 C175.738,349.805 176.193,349.222 176.584,348.764 C176.975,348.305 177.607,347.49 178.482,346.318 C179.357,345.147 180.3,344.055 181.31,343.045 C182.321,342.035 183.217,341.058 183.998,340.115 C184.779,339.173 185.498,338.378 186.154,337.733 C183.81,329.983 182.378,324.024 181.857,319.858 C181.337,315.691 181.076,310.579 181.076,304.522 C181.076,298.464 182.378,292.962 184.982,288.014 C187.514,282.878 191.06,278.68 195.623,275.42 C195.883,275.222 196.225,275.123 196.646,275.123 C197.068,275.123 197.378,275.222 197.576,275.42 C201.087,279.649 204.128,285.149 206.701,291.92 C209.274,298.691 210.56,305.024 210.56,310.92 C210.56,316.816 209.066,322.498 206.076,327.967 C202.691,333.759 198.326,339.748 192.982,345.936 C194.347,350.227 196.17,356.962 198.451,366.139 L199.045,366.139 C199.305,366.076 199.529,366.045 199.717,366.045 C207.081,366.045 213.089,368.634 217.74,373.811 C222.391,378.988 224.717,384.962 224.717,391.733 C224.717,400.128 221.238,406.899 214.279,412.045 C212.258,413.545 209.878,414.717 207.139,415.561 C207.472,419.79 207.639,422.605 207.639,424.006 C207.639,425.407 207.571,427.899 207.435,431.483 C207.373,437.597 205.29,442.837 201.185,447.201 C197.081,451.566 192.394,453.748 187.123,453.748 C181.852,453.748 177.36,451.876 173.646,448.131 C169.933,444.386 168.076,439.847 168.076,434.514 C168.076,431.712 169.154,429.331 171.31,427.373 C173.519,425.425 176.006,424.451 178.771,424.451 C181.537,424.451 183.8,425.462 185.56,427.483 C187.383,429.368 188.295,431.644 188.295,434.311 C188.295,436.977 187.383,439.222 185.56,441.045 C183.738,442.868 181.555,443.779 179.014,443.779 C177.972,443.779 176.967,443.587 175.998,443.201 C178.863,447.43 182.54,449.545 187.029,449.545 C191.519,449.545 195.36,447.691 198.553,443.983 C201.745,440.274 203.342,435.91 203.342,430.889 L203.623,423.858 M206.748,411.561 C210.133,410.321 212.821,408.123 214.81,404.967 C216.8,401.811 217.795,398.67 217.795,395.545 C217.795,390.92 216.199,386.785 213.006,383.139 C209.813,379.493 205.774,377.441 200.889,376.983 C203.691,390.722 205.644,402.248 206.748,411.561 M168.967,388.998 C168.967,395.446 171.537,401.079 176.678,405.897 C181.818,410.714 187.842,413.123 194.748,413.123 C197.477,413.123 200.144,412.925 202.748,412.529 C201.706,402.634 199.654,390.785 196.592,376.983 C192.758,377.378 189.782,378.699 187.662,380.943 C185.542,383.188 184.482,385.743 184.482,388.608 C184.482,393.555 187.123,397.561 192.404,400.623 C192.852,400.884 193.076,401.324 193.076,401.943 C193.076,402.563 192.865,403.1 192.443,403.553 C192.021,404.006 191.649,404.233 191.326,404.233 C191.003,404.233 190.581,404.17 190.06,404.045 C182.435,399.878 178.623,393.592 178.623,385.186 C178.623,381.217 180.024,377.41 182.826,373.764 C185.753,370.118 189.56,367.774 194.248,366.733 C192.425,359.441 190.93,353.743 189.764,349.639 C180.847,359.67 175.31,367.092 173.154,371.904 C170.363,378.154 168.967,383.852 168.967,388.998 M201.576,289.686 C196.691,292.092 192.834,295.574 190.006,300.131 C187.178,304.688 185.764,309.472 185.764,314.483 C185.764,319.493 186.935,325.972 189.279,333.92 C193.967,328.253 197.514,322.946 199.92,317.998 C202.326,313.05 203.529,308.152 203.529,303.303 C203.529,298.454 202.878,293.915 201.576,289.686"/>
<path class="Clef" d="M203.623,1848.86 L203.623,1846.72 C203.56,1845.61 203.399,1843.89 203.139,1841.55 C199.889,1842.07 196.993,1842.33 194.451,1842.33 C185.337,1842.33 177.605,1838.73 171.256,1831.53 C164.907,1824.33 161.732,1815.75 161.732,1805.8 C161.732,1803.13 162.253,1799.92 163.295,1796.18 C164.337,1792.43 165.297,1789.93 166.178,1788.66 C167.058,1787.38 168.378,1785.16 170.139,1781.97 C170.659,1780.99 172.352,1778.84 175.217,1775.51 C175.738,1774.81 176.193,1774.22 176.584,1773.76 C176.975,1773.31 177.607,1772.49 178.482,1771.32 C179.357,1770.15 180.3,1769.06 181.31,1768.05 C182.321,1767.04 183.217,1766.06 183.998,1765.12 C184.779,1764.17 185.498,1763.38 186.154,1762.73 C183.81,1754.98 182.378,1749.03 181.857,1744.86 C181.337,1740.69 181.076,1735.58 181.076,1729.52 C181.076,1723.47 182.378,1717.96 184.982,1713.01 C187.514,1707.88 191.06,1703.68 195.623,1700.42 C195.883,1700.22 196.225,1700.12 196.646,1700.12 C197.068,1700.12 197.378,1700.22 197.576,1700.42 C201.087,1704.65 204.128,1710.15 206.701,1716.92 C209.274,1723.69 210.56,1730.03 210.56,1735.92 C210.56,1741.82 209.066,1747.5 206.076,1752.97 C202.691,1758.76 198.326,1764.75 192.982,1770.94 C194.347,1775.23 196.17,1781.96 198.451,1791.14 L199.045,1791.14 C199.305,1791.08 199.529,1791.05 199.717,1791.05 C207.081,1791.05 213.089,1793.63 217.74,1798.81 C222.391,1803.99 224.717,1809.96 224.717,1816.73 C224.717,1825.13 221.238,1831.9 214.279,1837.05 C212.258,1838.55 209.878,1839.72 207.139,1840.56 C207.472,1844.79 207.639,1847.61 207.639,1849.01 C207.639,1850.41 207.571,1852.9 207.435,1856.48 C207.373,1862.6 205.29,1867.84 201.185,1872.2 C197.081,1876.57 192.394,1878.75 187.123,1878.75 C181.852,1878.75 177.36,1876.88 173.646,1873.13 C169.933,1869.39 168.076,1864.85 168.076,1859.51 C168.076,1856.71 169.154,1854.33 171.31,1852.37 C173.519,1850.43 176.006,1849.45 178.771,1849.45 C181.537,1849.45 183.8,1850.46 185.56,1852.48 C187.383,1854.37 188.295,1856.64 188.295,1859.31 C188.295,1861.98 187.383,1864.22 185.56,1866.05 C183.738,1867.87 181.555,1868.78 179.014,1868.78 C177.972,1868.78 176.967,1868.59 175.998,1868.2 C178.863,1872.43 182.54,1874.55 187.029,1874.55 C191.519,1874.55 195.36,1872.69 198.553,1868.98 C201.745,1865.28 203.342,1860.91 203.342,1855.89 L203.623,1848.86 M206.748,1836.56 C210.133,1835.32 212.821,1833.12 214.81,1829.97 C216.8,1826.81 217.795,1823.67 217.795,1820.55 C217.795,1815.92 216.199,1811.79 213.006,1808.14 C209.813,1804.49 205.774,1802.44 200.889,1801.98 C203.691,1815.72 205.644,1827.25 206.748,1836.56 M168.967,1814 C168.967,1820.45 171.537,1826.08 176.678,1830.9 C181.818,1835.72 187.842,1838.12 194.748,1838.12 C197.477,1838.12 200.144,1837.93 202.748,1837.53 C201.706,1827.63 199.654,1815.79 196.592,1801.98 C192.758,1802.38 189.782,1803.7 187.662,1805.94 C185.542,1808.19 184.482,1810.74 184.482,1813.61 C184.482,1818.56 187.123,1822.56 192.404,1825.62 C192.852,1825.88 193.076,1826.32 193.076,1826.94 C193.076,1827.56 192.865,1828.1 192.443,1828.55 C192.021,1829.01 191.649,1829.23 191.326,1829.23 C191.003,1829.23 190.581,1829.17 190.06,1829.05 C182.435,1824.88 178.623,1818.59 178.623,1810.19 C178.623,1806.22 180.024,1802.41 182.826,1798.76 C185.753,1795.12 189.56,1792.78 194.248,1791.73 C192.425,1784.44 190.93,1778.74 189.764,1774.64 C180.847,1784.67 175.31,1792.09 173.154,1796.91 C170.363,1803.16 168.967,1808.85 168.967,1814 M201.576,1714.69 C196.691,1717.09 192.834,1720.57 190.006,1725.13 C187.178,1729.69 185.764,1734.47 185.764,1739.48 C185.764,1744.49 186.935,1750.97 189.279,1758.92 C193.967,1753.25 197.514,1747.95 199.92,1743 C202.326,1738.05 203.529,1733.15 203.529,1728.3 C203.529,1723.45 202.878,1718.92 201.576,1714.69"/>
<path class="Clef" d="M203.623,1373.86 L203.623,1371.72 C203.56,1370.61 203.399,1368.89 203.139,1366.55 C199.889,1367.07 196.993,1367.33 194.451,1367.33 C185.337,1367.33 177.605,1363.73 171.256,1356.53 C164.907,1349.33 161.732,1340.75 161.732,1330.8 C161.732,1328.13 162.253,1324.92 163.295,1321.18 C164.337,1317.43 165.297,1314.93 166.178,1313.65 C167.058,1312.38 168.378,1310.15 170.139,1306.97 C170.659,1305.99 172.352,1303.84 175.217,1300.51 C175.738,1299.81 176.193,1299.22 176.584,1298.76 C176.975,1298.31 177.607,1297.49 178.482,1296.32 C179.357,1295.15 180.3,1294.06 181.31,1293.05 C182.321,1292.04 183.217,1291.06 183.998,1290.12 C184.779,1289.17 185.498,1288.38 186.154,1287.73 C183.81,1279.98 182.378,1274.02 181.857,1269.86 C181.337,1265.69 181.076,1260.58 181.076,1254.52 C181.076,1248.46 182.378,1242.96 184.982,1238.01 C187.514,1232.88 191.06,1228.68 195.623,1225.42 C195.883,1225.22 196.225,1225.12 196.646,1225.12 C197.068,1225.12 197.378,1225.22 197.576,1225.42 C201.087,1229.65 204.128,1235.15 206.701,1241.92 C209.274,1248.69 210.56,1255.02 210.56,1260.92 C210.56,1266.82 209.066,1272.5 206.076,1277.97 C202.691,1283.76 198.326,1289.75 192.982,1295.94 C194.347,1300.23 196.17,1306.96 198.451,1316.14 L199.045,1316.14 C199.305,1316.08 199.529,1316.05 199.717,1316.05 C207.081,1316.05 213.089,1318.63 217.74,1323.81 C222.391,1328.99 224.717,1334.96 224.717,1341.73 C224.717,1350.13 221.238,1356.9 214.279,1362.05 C212.258,1363.55 209.878,1364.72 207.139,1365.56 C207.472,1369.79 207.639,1372.61 207.639,1374.01 C207.639,1375.41 207.571,1377.9 207.435,1381.48 C207.373,1387.6 205.29,1392.84 201.185,1397.2 C197.081,1401.57 192.394,1403.75 187.123,1403.75 C181.852,1403.75 177.36,1401.88 173.646,1398.13 C169.933,1394.39 168.076,1389.85 168.076,1384.51 C168.076,1381.71 169.154,1379.33 171.31,1377.37 C173.519,1375.43 176.006,1374.45 178.771,1374.45 C181.537,1374.45 183.8,1375.46 185.56,1377.48 C187.383,1379.37 188.295,1381.64 188.295,1384.31 C188.295,1386.98 187.383,1389.22 185.56,1391.05 C183.738,1392.87 181.555,1393.78 179.014,1393.78 C177.972,1393.78 176.967,1393.59 175.998,1393.2 C178.863,1397.43 182.54,1399.55 187.029,1399.55 C191.519,1399.55 195.36,1397.69 198.553,1393.98 C201.745,1390.27 203.342,1385.91 203.342,1380.89 L203.623,1373.86 M206.748,1361.56 C210.133,1360.32 212.821,1358.12 214.81,1354.97 C216.8,1351.81 217.795,1348.67 217.795,1345.55 C217.795,1340.92 216.199,1336.79 213.006,1333.14 C209.813,1329.49 205.774,1327.44 200.889,1326.98 C203.691,1340.72 205.644,1352.25 206.748,1361.56 M168.967,1339 C168.967,1345.45 171.537,1351.08 176.678,1355.9 C181.818,1360.71 187.842,1363.12 194.748,1363.12 C197.477,1363.12 200.144,1362.93 202.748,1362.53 C201.706,1352.63 199.654,1340.79 196.592,1326.98 C192.758,1327.38 189.782,1328.7 187.662,1330.94 C185.542,1333.19 184.482,1335.74 184.482,1338.61 C184.482,1343.56 187.123,1347.56 192.404,1350.62 C192.852,1350.88 193.076,1351.32 193.076,1351.94 C193.076,1352.56 192.865,1353.1 192.443,1353.55 C192.021,1354.01 191.649,1354.23 191.326,1354.23 C191.003,1354.23 190.581,1354.17 190.06,1354.05 C182.435,1349.88 178.623,1343.59 178.623,1335.19 C178.623,1331.22 180.024,1327.41 182.826,1323.76 C185.753,1320.12 189.56,1317.77 194.248,1316.73 C192.425,1309.44 190.93,1303.74 189.764,1299.64 C180.847,1309.67 175.31,1317.09 173.154,1321.9 C170.363,1328.15 168.967,1333.85 168.967,1339 M201.576,1239.69 C196.691,1242.09 192.834,1245.57 190.006,1250.13 C187.178,1254.69 185.764,1259.47 185.764,1264.48 C185.764,1269.49 186.935,1275.97 189.279,1283.92 C193.967,1278.25 197.514,1272.95 199.92,1268 C202.326,1263.05 203.529,1258.15 203.529,1253.3 C203.529,1248.45 202.878,1243.92 201.576,1239.69"/>
<path class="Clef" d="M203.623,898.858 L203.623,896.717 C203.56,895.613 203.399,893.889 203.139,891.545 C199.889,892.066 196.993,892.327 194.451,892.327 C185.337,892.327 177.605,888.728 171.256,881.53 C164.907,874.332 161.732,865.754 161.732,855.795 C161.732,853.129 162.253,849.923 163.295,846.178 C164.337,842.433 165.297,839.926 166.178,838.655 C167.058,837.384 168.378,835.155 170.139,831.967 C170.659,830.988 172.352,828.837 175.217,825.514 C175.738,824.806 176.193,824.222 176.584,823.764 C176.975,823.306 177.607,822.491 178.482,821.319 C179.357,820.147 180.3,819.056 181.31,818.045 C182.321,817.035 183.217,816.058 183.998,815.116 C184.779,814.173 185.498,813.379 186.154,812.733 C183.81,804.983 182.378,799.024 181.857,794.858 C181.337,790.691 181.076,785.579 181.076,779.522 C181.076,773.465 182.378,767.962 184.982,763.014 C187.514,757.879 191.06,753.681 195.623,750.42 C195.883,750.222 196.225,750.123 196.646,750.123 C197.068,750.123 197.378,750.222 197.576,750.42 C201.087,754.649 204.128,760.149 206.701,766.92 C209.274,773.691 210.56,780.024 210.56,785.92 C210.56,791.816 209.066,797.498 206.076,802.967 C202.691,808.759 198.326,814.748 192.982,820.936 C194.347,825.228 196.17,831.962 198.451,841.139 L199.045,841.139 C199.305,841.077 199.529,841.045 199.717,841.045 C207.081,841.045 213.089,843.634 217.74,848.811 C222.391,853.988 224.717,859.962 224.717,866.733 C224.717,875.129 221.238,881.899 214.279,887.045 C212.258,888.545 209.878,889.717 207.139,890.561 C207.472,894.79 207.639,897.605 207.639,899.006 C207.639,900.407 207.571,902.899 207.435,906.483 C207.373,912.597 205.29,917.837 201.185,922.202 C197.081,926.566 192.394,928.748 187.123,928.748 C181.852,928.748 177.36,926.876 173.646,923.131 C169.933,919.386 168.076,914.847 168.076,909.514 C168.076,906.712 169.154,904.332 171.31,902.373 C173.519,900.426 176.006,899.452 178.771,899.452 C181.537,899.452 183.8,900.462 185.56,902.483 C187.383,904.368 188.295,906.644 188.295,909.311 C188.295,911.978 187.383,914.222 185.56,916.045 C183.738,917.868 181.555,918.78 179.014,918.78 C177.972,918.78 176.967,918.587 175.998,918.202 C178.863,922.431 182.54,924.545 187.029,924.545 C191.519,924.545 195.36,922.691 198.553,918.983 C201.745,915.274 203.342,910.91 203.342,905.889 L203.623,898.858 M206.748,886.561 C210.133,885.321 212.821,883.123 214.81,879.967 C216.8,876.811 217.795,873.67 217.795,870.545 C217.795,865.92 216.199,861.785 213.006,858.139 C209.813,854.493 205.774,852.441 200.889,851.983 C203.691,865.722 205.644,877.248 206.748,886.561 M168.967,863.998 C168.967,870.446 171.537,876.079 176.678,880.897 C181.818,885.715 187.842,888.123 194.748,888.123 C197.477,888.123 200.144,887.926 202.748,887.53 C201.706,877.634 199.654,865.785 196.592,851.983 C192.758,852.379 189.782,853.699 187.662,855.944 C185.542,858.189 184.482,860.743 184.482,863.608 C184.482,868.556 187.123,872.561 192.404,875.623 C192.852,875.884 193.076,876.324 193.076,876.944 C193.076,877.564 192.865,878.1 192.443,878.553 C192.021,879.006 191.649,879.233 191.326,879.233 C191.003,879.233 190.581,879.17 190.06,879.045 C182.435,874.879 178.623,868.592 178.623,860.186 C178.623,856.217 180.024,852.41 182.826,848.764 C185.753,845.118 189.56,842.774 194.248,841.733 C192.425,834.441 190.93,828.743 189.764,824.639 C180.847,834.67 175.31,842.092 173.154,846.905 C170.363,853.155 168.967,858.853 168.967,863.998 M201.576,764.686 C196.691,767.092 192.834,770.574 190.006,775.131 C187.178,779.689 185.764,784.472 185.764,789.483 C185.764,794.493 186.935,800.972 189.279,808.92 C193.967,803.254 197.514,797.946 199.92,792.998 C202.326,788.051 203.529,783.152 203.529,778.303 C203.529,773.454 202.878,768.915 201.576,764.686"/>
<path class="TimeSig" d="M268.686,364.389 C272.852,364.389 274.936,360.514 274.936,352.764 L274.936,351.107 C274.936,349.222 274.87,347.644 274.74,346.373 C274.61,345.102 274.17,344.011 273.42,343.1 C272.67,342.188 271.514,341.732 269.951,341.732 L261.936,341.732 C261.029,341.732 260.576,341.277 260.576,340.365 C260.576,339.454 261.029,338.93 261.936,338.795 L269.951,338.795 C271.774,338.795 273.042,338.274 273.756,337.232 C274.469,336.191 274.863,334.498 274.936,332.154 L274.936,328.154 C274.936,322.102 272.722,319.076 268.295,319.076 C264.316,319.076 262.326,320.149 262.326,322.295 C262.326,323.014 262.93,323.795 264.139,324.639 C265.347,325.482 265.951,326.264 265.951,326.982 C265.951,328.607 265.381,329.99 264.24,331.131 C263.1,332.272 261.732,332.842 260.139,332.842 C258.545,332.842 257.193,332.256 256.084,331.084 C254.975,329.912 254.42,328.545 254.42,326.982 C254.42,323.92 255.79,321.415 258.529,319.467 C261.394,317.644 264.956,316.732 269.217,316.732 C273.477,316.732 277.204,317.66 280.396,319.514 C283.589,321.368 285.186,324.248 285.186,328.154 C285.186,330.956 284.891,333.089 284.303,334.553 C283.714,336.016 283.066,336.91 282.357,337.232 C280.462,338.014 279.514,339.024 279.514,340.264 C279.514,341.107 280.686,342.316 283.029,343.889 C283.811,344.337 284.592,345.36 285.373,346.959 C286.154,348.558 286.545,350.493 286.545,352.764 C286.545,357.264 284.87,360.717 281.521,363.123 C278.173,365.529 274.136,366.732 269.412,366.732 C264.688,366.732 260.863,365.691 257.936,363.607 C254.811,361.66 253.248,358.925 253.248,355.404 C253.248,353.717 253.899,352.154 255.201,350.717 C256.566,349.477 258.144,348.857 259.936,348.857 C261.727,348.857 263.212,349.509 264.389,350.811 C265.691,352.05 266.342,353.581 266.342,355.404 C266.342,356.248 265.691,357.16 264.389,358.139 C263.014,359.055 262.326,360.035 262.326,361.076 C262.326,362.118 262.946,362.93 264.186,363.514 C265.425,364.097 266.925,364.389 268.686,364.389"/>
<path class="TimeSig" d="M273.021,368.084 C274.516,368.084 275.949,367.858 277.318,367.404 C278.688,366.951 279.665,366.725 280.248,366.725 C280.831,366.725 281.222,367.079 281.42,367.787 C281.42,367.86 281.352,368.058 281.217,368.381 L252.811,401.397 L269.498,401.397 L269.498,388.303 C269.498,386.678 270.446,385.506 272.342,384.787 C274.29,384.068 276.503,381.173 278.982,376.1 C279.17,375.704 279.462,375.506 279.857,375.506 C280.639,375.506 281.092,375.964 281.217,376.881 L281.217,401.397 L288.357,401.397 C289.264,401.397 289.751,401.884 289.818,402.858 C289.886,403.831 289.399,404.318 288.357,404.318 L281.217,404.318 L281.217,405.1 C281.217,407.704 281.868,409.917 283.17,411.74 C284.67,413.563 286.43,414.475 288.451,414.475 C289.232,414.475 289.623,414.865 289.623,415.647 C289.623,416.428 289.087,416.818 288.014,416.818 C286.941,416.818 284.938,416.608 282.006,416.186 C279.074,415.764 276.811,415.553 275.217,415.553 C273.623,415.553 271.41,415.764 268.576,416.186 C265.743,416.608 263.613,416.818 262.186,416.818 C261.404,416.818 261.014,416.428 261.014,415.647 C261.014,414.865 261.404,414.475 262.186,414.475 C264.196,414.475 265.951,413.563 267.451,411.74 C268.816,409.855 269.498,407.641 269.498,405.1 L269.498,404.318 L252.811,404.318 C251.956,404.318 251.219,404.092 250.6,403.639 C249.98,403.186 249.67,402.764 249.67,402.373 C249.67,401.983 250.485,400.811 252.115,398.858 C253.745,396.904 256.074,393.144 259.1,387.576 C262.126,382.009 263.639,375.61 263.639,368.381 C263.639,367.339 264.097,366.818 265.014,366.818 C265.212,366.818 265.521,366.884 265.943,367.014 C266.365,367.144 267.277,367.355 268.678,367.647 C270.079,367.938 271.527,368.084 273.021,368.084"/>
<path class="NoteDot" d="M2426.82,783.241 C2425.71,782.131 2425.16,780.795 2425.16,779.233 C2425.16,777.67 2425.71,776.334 2426.82,775.225 C2427.93,774.116 2429.26,773.561 2430.83,773.561 C2432.39,773.561 2433.72,774.116 2434.83,775.225 C2435.93,776.334 2436.48,777.67 2436.48,779.233 C2436.48,780.795 2435.93,782.131 2434.83,783.241 C2433.72,784.35 2432.39,784.905 2430.83,784.905 C2429.26,784.905 2427.93,784.35 2426.82,783.241"/>
<path class="NoteDot" d="M2436.44,283.24 C2435.33,282.131 2434.78,280.795 2434.78,279.232 C2434.78,277.67 2435.33,276.334 2436.44,275.225 C2437.55,274.115 2438.89,273.561 2440.45,273.561 C2442.01,273.561 2443.35,274.115 2444.45,275.225 C2445.55,276.334 2446.11,277.67 2446.11,279.232 C2446.11,280.795 2445.55,282.131 2444.45,283.24 C2443.35,284.35 2442.01,284.904 2440.45,284.904 C2438.89,284.904 2437.55,284.35 2436.44,283.24"/>
<path class="NoteDot" d="M2401.69,1683.24 C2400.58,1682.13 2400.03,1680.8 2400.03,1679.23 C2400.03,1677.67 2400.58,1676.33 2401.69,1675.23 C2402.8,1674.12 2404.14,1673.56 2405.7,1673.56 C2407.26,1673.56 2408.59,1674.12 2409.7,1675.23 C2410.8,1676.33 2411.36,1677.67 2411.36,1679.23 C2411.36,1680.8 2410.8,1682.13 2409.7,1683.24 C2408.59,1684.35 2407.26,1684.91 2405.7,1684.91 C2404.14,1684.91 2402.8,1684.35 2401.69,1683.24"/>
</svg>
