<?xml version="1.0" encoding="UTF-8" standalone="no"?>
<svg width="2977.2px" height="4208.4px" viewBox="0 0 2977.2 4208.4"
 xmlns="http://www.w3.org/2000/svg" xmlns:xlink="http://www.w3.org/1999/xlink" version="1.2" baseProfile="tiny">
<title>Deck_The_Halls.mscx</title>
<desc>Generated by MuseScore Studio 4.3.1</desc>
<path class="" fill="#ffffff" fill-rule="evenodd" d="M0,0 L2977.2,0 L2977.2,4208.4 L0,4208.4 L0,0 "/>
<polyline class="StaffLines" fill="none" stroke="#000000" stroke-width="2.00" stroke-linejoin="bevel" points="141.732,316.732 2835.47,316.732"/>
<polyline class="StaffLines" fill="none" stroke="#000000" stroke-width="2.00" stroke-linejoin="bevel" points="141.732,341.732 2835.47,341.732"/>
<polyline class="StaffLines" fill="none" stroke="#000000" stroke-width="2.00" stroke-linejoin="bevel" points="141.732,366.733 2835.47,366.733"/>
<polyline class="StaffLines" fill="none" stroke="#000000" stroke-width="2.00" stroke-linejoin="bevel" points="141.732,391.733 2835.47,391.733"/>
<polyline class="StaffLines" fill="none" stroke="#000000" stroke-width="2.00" stroke-linejoin="bevel" points="141.732,416.733 2835.47,416.733"/>
<polyline class="StaffLines" fill="none" stroke="#000000" stroke-width="2.00" stroke-linejoin="bevel" points="141.732,791.733 2835.47,791.733"/>
<polyline class="StaffLines" fill="none" stroke="#000000" stroke-width="2.00" stroke-linejoin="bevel" points="141.732,816.733 2835.47,816.733"/>
<polyline class="StaffLines" fill="none" stroke="#000000" stroke-width="2.00" stroke-linejoin="bevel" points="141.732,841.733 2835.47,841.733"/>
<polyline class="StaffLines" fill="none" stroke="#000000" stroke-width="2.00" stroke-linejoin="bevel" points="141.732,866.733 2835.47,866.733"/>
<polyline class="StaffLines" fill="none" stroke="#000000" stroke-width="2.00" stroke-linejoin="bevel" points="141.732,891.733 2835.47,891.733"/>
<polyline class="StaffLines" fill="none" stroke="#000000" stroke-width="2.00" stroke-linejoin="bevel" points="141.732,1266.73 2835.47,1266.73"/>
<polyline class="StaffLines" fill="none" stroke="#000000" stroke-width="2.00" stroke-linejoin="bevel" points="141.732,1291.73 2835.47,1291.73"/>
<polyline class="StaffLines" fill="none" stroke="#000000" stroke-width="2.00" stroke-linejoin="bevel" points="141.732,1316.73 2835.47,1316.73"/>
<polyline class="StaffLines" fill="none" stroke="#000000" stroke-width="2.00" stroke-linejoin="bevel" points="141.732,1341.73 2835.47,1341.73"/>
<polyline class="StaffLines" fill="none" stroke="#000000" stroke-width="2.00" stroke-linejoin="bevel" points="141.732,1366.73 2835.47,1366.73"/>
<path class="MeasureNumber" d="M146.514,733.873 C146.514,732.446 146.199,731.181 145.568,730.076 C144.938,728.972 144.178,728.118 143.287,727.514 C142.396,726.91 141.399,726.412 140.295,726.022 C139.191,725.631 138.23,725.376 137.412,725.256 C136.594,725.136 135.883,725.076 135.279,725.076 C134.956,725.076 134.795,724.967 134.795,724.748 C134.795,724.675 134.805,724.613 134.826,724.561 L139.185,715.264 L147.545,715.264 C147.972,715.264 148.313,715.196 148.568,715.061 C148.824,714.925 149.097,714.644 149.389,714.217 L149.748,714.498 L148.232,717.842 C148.128,718.061 147.821,718.17 147.31,718.17 L139.467,718.17 L137.795,721.608 C141.68,722.306 144.571,723.441 146.467,725.014 C148.363,726.587 149.31,728.894 149.31,731.936 C149.31,733.53 149.063,734.946 148.568,736.186 C148.074,737.425 147.446,738.423 146.685,739.178 C145.925,739.933 145.045,740.553 144.045,741.037 C143.045,741.522 142.087,741.853 141.17,742.03 C140.253,742.207 139.326,742.295 138.389,742.295 C136.899,742.295 135.714,742.074 134.834,741.631 C133.954,741.188 133.514,740.582 133.514,739.811 C133.514,738.821 134.087,738.326 135.232,738.326 C135.982,738.326 136.949,738.735 138.131,739.553 C139.313,740.371 140.253,740.78 140.951,740.78 C142.524,740.78 143.844,740.113 144.912,738.78 C145.98,737.446 146.514,735.811 146.514,733.873"/>
<path class="MeasureNumber" d="M134.092,1217.61 L133.967,1216.81 C137.008,1216.28 139.589,1214.98 141.709,1212.92 C143.829,1210.86 145.3,1208.2 146.123,1204.94 C144.154,1206.48 142.159,1207.25 140.139,1207.25 C137.972,1207.25 136.23,1206.5 134.912,1205.01 C133.594,1203.51 132.935,1201.55 132.935,1199.11 C132.935,1196.4 133.727,1194.14 135.31,1192.33 C136.894,1190.53 138.873,1189.62 141.248,1189.62 C143.831,1189.62 145.951,1190.68 147.607,1192.8 C149.264,1194.91 150.092,1197.63 150.092,1200.95 C150.092,1202.01 149.998,1203.11 149.81,1204.23 C149.623,1205.36 149.188,1206.69 148.506,1208.23 C147.824,1209.76 146.938,1211.14 145.85,1212.35 C144.761,1213.56 143.204,1214.67 141.178,1215.65 C139.152,1216.64 136.79,1217.3 134.092,1217.61 M141.576,1205.5 C142.076,1205.5 142.646,1205.43 143.287,1205.28 C143.928,1205.13 144.576,1204.81 145.232,1204.32 C145.889,1203.82 146.217,1203.22 146.217,1202.5 L146.217,1200.95 C146.217,1194.19 144.456,1190.81 140.935,1190.81 C140.102,1190.81 139.394,1191.03 138.81,1191.48 C138.227,1191.92 137.782,1192.5 137.475,1193.21 C137.167,1193.92 136.946,1194.65 136.81,1195.4 C136.675,1196.14 136.607,1196.93 136.607,1197.76 C136.607,1200.13 137.055,1202.01 137.951,1203.4 C138.847,1204.8 140.055,1205.5 141.576,1205.5"/>
<polyline class="BarLine" fill="none" stroke="#000000" stroke-width="4.00" stroke-linejoin="bevel" points="2272.49,790.733 2272.49,892.733"/>
<polyline class="BarLine" fill="none" stroke="#000000" stroke-width="4.00" stroke-linejoin="bevel" points="2279.62,315.732 2279.62,417.733"/>
<polyline class="BarLine" fill="none" stroke="#000000" stroke-width="4.00" stroke-linejoin="bevel" points="2833.47,315.732 2833.47,417.733"/>
<polyline class="BarLine" fill="none" stroke="#000000" stroke-width="4.00" stroke-linejoin="bevel" points="897.208,790.733 897.208,892.733"/>
<polyline class="BarLine" fill="none" stroke="#000000" stroke-width="4.00" stroke-linejoin="bevel" points="1534.18,790.733 1534.18,892.733"/>
<polyline class="BarLine" fill="none" stroke="#000000" stroke-width="4.00" stroke-linejoin="bevel" points="1560.67,315.732 1560.67,417.733"/>
<polyline class="BarLine" fill="none" stroke="#000000" stroke-width="4.00" stroke-linejoin="bevel" points="2244.09,1265.73 2244.09,1367.73"/>
<polyline class="BarLine" fill="none" stroke="#000000" stroke-width="4.00" stroke-linejoin="bevel" points="931.851,315.732 931.851,417.733"/>
<polyline class="BarLine" fill="none" stroke="#000000" stroke-width="4.00" stroke-linejoin="bevel" points="2833.47,790.733 2833.47,892.733"/>
<polyline class="BarLine" fill="none" stroke="#000000" stroke-width="4.00" stroke-linejoin="bevel" points="884.581,1265.73 884.581,1367.73"/>
<polyline class="BarLine" fill="none" stroke="#000000" stroke-width="4.00" stroke-linejoin="bevel" points="2802.72,1265.73 2802.72,1367.73"/>
<polyline class="BarLine" fill="none" stroke="#000000" stroke-width="12.50" stroke-linejoin="bevel" points="2829.22,1265.73 2829.22,1367.73"/>
<polyline class="BarLine" fill="none" stroke="#000000" stroke-width="4.00" stroke-linejoin="bevel" points="1518.87,1265.73 1518.87,1367.73"/>
<polyline class="LedgerLine" fill="none" stroke="#000000" stroke-width="4.00" stroke-linejoin="bevel" points="2441.98,766.733 2493.9,766.733"/>
<polyline class="LedgerLine" fill="none" stroke="#000000" stroke-width="4.00" stroke-linejoin="bevel" points="1906.34,766.733 1958.25,766.733"/>
<polyline class="LedgerLine" fill="none" stroke="#000000" stroke-width="4.00" stroke-linejoin="bevel" points="2007.67,766.733 2059.58,766.733"/>
<polyline class="LedgerLine" fill="none" stroke="#000000" stroke-width="4.00" stroke-linejoin="bevel" points="1536.37,1241.73 1588.28,1241.73"/>
<polyline class="LedgerLine" fill="none" stroke="#000000" stroke-width="4.00" stroke-linejoin="bevel" points="2109,766.733 2160.91,766.733"/>
<polyline class="LedgerLine" fill="none" stroke="#000000" stroke-width="4.00" stroke-linejoin="bevel" points="1637.25,1241.73 1689.16,1241.73"/>
<polyline class="LedgerLine" fill="none" stroke="#000000" stroke-width="4.00" stroke-linejoin="bevel" points="2109,741.733 2160.91,741.733"/>
<polyline class="LedgerLine" fill="none" stroke="#000000" stroke-width="4.00" stroke-linejoin="bevel" points="1738.13,1241.73 1790.04,1241.73"/>
<polyline class="LedgerLine" fill="none" stroke="#000000" stroke-width="4.00" stroke-linejoin="bevel" points="1839.01,1241.73 1890.92,1241.73"/>
<polyline class="LedgerLine" fill="none" stroke="#000000" stroke-width="4.00" stroke-linejoin="bevel" points="2289.99,766.733 2341.9,766.733"/>
<polyline class="Stem" fill="none" stroke="#000000" stroke-width="3.25" stroke-linejoin="bevel" points="2120.12,747.602 2120.12,841.733"/>
<polyline class="Stem" fill="none" stroke="#000000" stroke-width="3.25" stroke-linejoin="bevel" points="781.52,347.602 781.52,429.233"/>
<polyline class="Stem" fill="none" stroke="#000000" stroke-width="3.25" stroke-linejoin="bevel" points="2604.2,784.133 2604.2,866.733"/>
<polyline class="Stem" fill="none" stroke="#000000" stroke-width="3.25" stroke-linejoin="bevel" points="2453.11,772.602 2453.11,854.233"/>
<polyline class="Stem" fill="none" stroke="#000000" stroke-width="3.25" stroke-linejoin="bevel" points="960.476,360.102 960.476,435.483"/>
<polyline class="Stem" fill="none" stroke="#000000" stroke-width="3.25" stroke-linejoin="bevel" points="2301.11,760.102 2301.11,841.733"/>
<polyline class="Stem" fill="none" stroke="#000000" stroke-width="3.25" stroke-linejoin="bevel" points="2142.84,1272.6 2142.84,1354.83"/>
<polyline class="Stem" fill="none" stroke="#000000" stroke-width="3.25" stroke-linejoin="bevel" points="1110.43,347.602 1110.43,429.233"/>
<polyline class="Stem" fill="none" stroke="#000000" stroke-width="3.25" stroke-linejoin="bevel" points="1260.39,335.102 1260.39,416.733"/>
<polyline class="Stem" fill="none" stroke="#000000" stroke-width="3.25" stroke-linejoin="bevel" points="631.564,335.102 631.564,416.733"/>
<polyline class="Stem" fill="none" stroke="#000000" stroke-width="3.25" stroke-linejoin="bevel" points="2018.79,760.102 2018.79,835.58"/>
<polyline class="Stem" fill="none" stroke="#000000" stroke-width="3.25" stroke-linejoin="bevel" points="1410.34,360.102 1410.34,435.483"/>
<polyline class="Stem" fill="none" stroke="#000000" stroke-width="3.25" stroke-linejoin="bevel" points="1917.46,772.602 1917.46,841.636"/>
<polyline class="Stem" fill="none" stroke="#000000" stroke-width="3.25" stroke-linejoin="bevel" points="1765.47,785.102 1765.47,866.733"/>
<polyline class="Stem" fill="none" stroke="#000000" stroke-width="3.25" stroke-linejoin="bevel" points="1664.14,797.602 1664.14,866.83"/>
<polyline class="Stem" fill="none" stroke="#000000" stroke-width="3.25" stroke-linejoin="bevel" points="1562.81,810.102 1562.81,872.886"/>
<polyline class="Stem" fill="none" stroke="#000000" stroke-width="3.25" stroke-linejoin="bevel" points="1589.3,347.602 1589.3,416.733"/>
<polyline class="Stem" fill="none" stroke="#000000" stroke-width="3.25" stroke-linejoin="bevel" points="1381.82,810.102 1381.82,891.733"/>
<polyline class="Stem" fill="none" stroke="#000000" stroke-width="3.25" stroke-linejoin="bevel" points="1064.53,1297.6 1064.53,1379.23"/>
<polyline class="Stem" fill="none" stroke="#000000" stroke-width="3.25" stroke-linejoin="bevel" points="1850.13,1247.6 1850.13,1316.73"/>
<polyline class="Stem" fill="none" stroke="#000000" stroke-width="3.25" stroke-linejoin="bevel" points="1749.25,1247.6 1749.25,1316.73"/>
<polyline class="Stem" fill="none" stroke="#000000" stroke-width="3.25" stroke-linejoin="bevel" points="341.498,310.102 341.498,391.733"/>
<polyline class="Stem" fill="none" stroke="#000000" stroke-width="3.25" stroke-linejoin="bevel" points="1648.37,1247.6 1648.37,1316.73"/>
<polyline class="Stem" fill="none" stroke="#000000" stroke-width="3.25" stroke-linejoin="bevel" points="1547.49,1247.6 1547.49,1316.73"/>
<polyline class="Stem" fill="none" stroke="#000000" stroke-width="3.25" stroke-linejoin="bevel" points="2574.46,1309.13 2574.46,1385.48"/>
<polyline class="Stem" fill="none" stroke="#000000" stroke-width="3.25" stroke-linejoin="bevel" points="1367.17,1310.1 1367.17,1385.48"/>
<polyline class="Stem" fill="none" stroke="#000000" stroke-width="3.25" stroke-linejoin="bevel" points="1215.85,1285.1 1215.85,1366.73"/>
<polyline class="Stem" fill="none" stroke="#000000" stroke-width="3.25" stroke-linejoin="bevel" points="2424.04,1297.6 2424.04,1379.23"/>
<polyline class="Stem" fill="none" stroke="#000000" stroke-width="3.25" stroke-linejoin="bevel" points="913.206,1310.1 913.206,1385.48"/>
<polyline class="Stem" fill="none" stroke="#000000" stroke-width="3.25" stroke-linejoin="bevel" points="531.593,322.602 531.593,404.833"/>
<polyline class="Stem" fill="none" stroke="#000000" stroke-width="3.25" stroke-linejoin="bevel" points="732.885,1297.6 732.885,1379.23"/>
<polyline class="Stem" fill="none" stroke="#000000" stroke-width="3.25" stroke-linejoin="bevel" points="581.564,1285.1 581.564,1366.73"/>
<polyline class="Stem" fill="none" stroke="#000000" stroke-width="3.25" stroke-linejoin="bevel" points="480.683,1272.6 480.683,1354.83"/>
<polyline class="Stem" fill="none" stroke="#000000" stroke-width="3.25" stroke-linejoin="bevel" points="1951.01,1260.1 1951.01,1341.73"/>
<polyline class="Stem" fill="none" stroke="#000000" stroke-width="3.25" stroke-linejoin="bevel" points="288.857,1260.1 288.857,1341.73"/>
<polyline class="Stem" fill="none" stroke="#000000" stroke-width="3.25" stroke-linejoin="bevel" points="2179.28,347.602 2179.28,429.833"/>
<polyline class="Stem" fill="none" stroke="#000000" stroke-width="3.25" stroke-linejoin="bevel" points="2607.26,359.132 2607.26,435.483"/>
<polyline class="Stem" fill="none" stroke="#000000" stroke-width="3.25" stroke-linejoin="bevel" points="1689.27,335.102 1689.27,416.733"/>
<polyline class="Stem" fill="none" stroke="#000000" stroke-width="3.25" stroke-linejoin="bevel" points="1989.18,335.102 1989.18,416.733"/>
<polyline class="Stem" fill="none" stroke="#000000" stroke-width="3.25" stroke-linejoin="bevel" points="744.839,822.602 744.839,904.233"/>
<polyline class="Stem" fill="none" stroke="#000000" stroke-width="3.25" stroke-linejoin="bevel" points="2272.72,1285.1 2272.72,1366.73"/>
<polyline class="Stem" fill="none" stroke="#000000" stroke-width="3.25" stroke-linejoin="bevel" points="925.833,810.102 925.833,891.733"/>
<polyline class="Stem" fill="none" stroke="#000000" stroke-width="3.25" stroke-linejoin="bevel" points="288.857,822.602 288.857,904.233"/>
<polyline class="Stem" fill="none" stroke="#000000" stroke-width="3.25" stroke-linejoin="bevel" points="2308.25,360.102 2308.25,435.483"/>
<polyline class="Stem" fill="none" stroke="#000000" stroke-width="3.25" stroke-linejoin="bevel" points="1077.83,797.602 1077.83,879.233"/>
<polyline class="Stem" fill="none" stroke="#000000" stroke-width="3.25" stroke-linejoin="bevel" points="1789.24,322.602 1789.24,416.733"/>
<polyline class="Stem" fill="none" stroke="#000000" stroke-width="3.25" stroke-linejoin="bevel" points="592.845,797.602 592.845,879.233"/>
<polyline class="Stem" fill="none" stroke="#000000" stroke-width="3.25" stroke-linejoin="bevel" points="2458.2,372.602 2458.2,441.733"/>
<polyline class="Stem" fill="none" stroke="#000000" stroke-width="3.25" stroke-linejoin="bevel" points="1229.82,785.102 1229.82,866.733"/>
<polyline class="Stem" fill="none" stroke="#000000" stroke-width="3.25" stroke-linejoin="bevel" points="1889.21,347.602 1889.21,416.733"/>
<polyline class="Stem" fill="none" stroke="#000000" stroke-width="3.25" stroke-linejoin="bevel" points="440.851,810.102 440.851,891.733"/>
<path class="Hook" d="M501.808,1281.87 C503.308,1281.87 504.889,1284.3 506.55,1289.15 C508.212,1294 509.042,1298.44 509.042,1302.48 C509.042,1306.51 508.115,1310.42 506.261,1314.19 C504.407,1317.97 502.178,1321.29 499.574,1324.15 L491.558,1333.14 C489.089,1336 486.909,1339.29 485.019,1343 C483.128,1346.71 482.183,1350.45 482.183,1354.23 L479.058,1354.23 L479.058,1329.23 L482.183,1329.23 C493.12,1322.33 499.99,1316.21 502.792,1310.87 C504.157,1308.27 504.839,1305.63 504.839,1302.97 C504.839,1296.78 503.048,1290.62 499.464,1284.5 L499.464,1284.11 C499.464,1283.52 499.693,1283.01 500.152,1282.55 C500.61,1282.1 501.162,1281.87 501.808,1281.87"/>
<path class="Hook" d="M552.718,331.873 C554.218,331.873 555.799,334.298 557.46,339.147 C559.122,343.996 559.952,348.438 559.952,352.475 C559.952,356.511 559.025,360.417 557.171,364.193 C555.317,367.97 553.088,371.29 550.484,374.154 L542.468,383.139 C539.999,386.003 537.82,389.29 535.929,392.998 C534.038,396.706 533.093,400.451 533.093,404.233 L529.968,404.233 L529.968,379.233 L533.093,379.233 C544.031,372.326 550.9,366.206 553.702,360.873 C555.067,358.269 555.749,355.634 555.749,352.967 C555.749,346.779 553.958,340.623 550.374,334.498 L550.374,334.108 C550.374,333.524 550.603,333.006 551.062,332.553 C551.52,332.1 552.072,331.873 552.718,331.873"/>
<path class="Hook" d="M2163.96,1281.87 C2165.46,1281.87 2167.04,1284.3 2168.71,1289.15 C2170.37,1294 2171.2,1298.44 2171.2,1302.48 C2171.2,1306.51 2170.27,1310.42 2168.42,1314.19 C2166.56,1317.97 2164.33,1321.29 2161.73,1324.15 L2153.71,1333.14 C2151.24,1336 2149.07,1339.29 2147.17,1343 C2145.28,1346.71 2144.34,1350.45 2144.34,1354.23 L2141.21,1354.23 L2141.21,1329.23 L2144.34,1329.23 C2155.28,1322.33 2162.15,1316.21 2164.95,1310.87 C2166.31,1308.27 2166.99,1305.63 2166.99,1302.97 C2166.99,1296.78 2165.2,1290.62 2161.62,1284.5 L2161.62,1284.11 C2161.62,1283.52 2161.85,1283.01 2162.31,1282.55 C2162.77,1282.1 2163.32,1281.87 2163.96,1281.87"/>
<path class="Hook" d="M2200.4,356.873 C2201.9,356.873 2203.48,359.298 2205.14,364.147 C2206.81,368.996 2207.64,373.438 2207.64,377.475 C2207.64,381.511 2206.71,385.417 2204.85,389.193 C2203,392.97 2200.77,396.29 2198.17,399.154 L2190.15,408.139 C2187.68,411.003 2185.5,414.29 2183.61,417.998 C2181.72,421.706 2180.78,425.451 2180.78,429.233 L2177.65,429.233 L2177.65,404.233 L2180.78,404.233 C2191.71,397.326 2198.58,391.206 2201.39,385.873 C2202.75,383.269 2203.43,380.634 2203.43,377.967 C2203.43,371.779 2201.64,365.623 2198.06,359.498 L2198.06,359.108 C2198.06,358.524 2198.29,358.006 2198.75,357.553 C2199.2,357.1 2199.76,356.873 2200.4,356.873"/>
<path class="Note" d="M753.229,1277.97 C756.354,1277.97 758.958,1278.75 761.041,1280.31 C763.124,1281.87 764.166,1284.12 764.166,1287.05 C764.166,1291.54 761.84,1295.73 757.189,1299.64 C752.538,1303.55 747.541,1305.5 742.197,1305.5 C739.072,1305.5 736.437,1304.69 734.291,1303.06 C732.27,1301.3 731.26,1299.09 731.26,1296.42 C731.26,1292.06 733.572,1287.89 738.197,1283.92 C742.822,1279.95 747.833,1277.97 753.229,1277.97"/>
<path class="Note" d="M601.907,1265.47 C605.032,1265.47 607.637,1266.25 609.72,1267.81 C611.803,1269.37 612.845,1271.62 612.845,1274.55 C612.845,1279.04 610.519,1283.23 605.868,1287.14 C601.217,1291.05 596.22,1293 590.876,1293 C587.751,1293 585.116,1292.19 582.97,1290.56 C580.949,1288.8 579.939,1286.59 579.939,1283.92 C579.939,1279.56 582.251,1275.39 586.876,1271.42 C591.501,1267.45 596.512,1265.47 601.907,1265.47"/>
<path class="Note" d="M551.937,302.967 C555.062,302.967 557.666,303.748 559.749,305.311 C561.833,306.873 562.874,309.118 562.874,312.045 C562.874,316.535 560.549,320.732 555.898,324.639 C551.247,328.545 546.249,330.498 540.906,330.498 C537.781,330.498 535.145,329.686 532.999,328.061 C530.978,326.3 529.968,324.087 529.968,321.42 C529.968,317.055 532.281,312.889 536.906,308.92 C541.531,304.951 546.541,302.967 551.937,302.967"/>
<path class="Note" d="M2613.05,364.873 C2614.94,364.873 2618.9,362.92 2624.92,359.014 C2630.95,355.107 2634.5,352.488 2635.57,351.154 C2636.64,349.821 2637.18,348.634 2637.18,347.592 C2637.18,346.55 2636.75,345.623 2635.91,344.811 C2635.06,343.998 2634.08,343.592 2632.98,343.592 C2631.03,343.592 2627.04,345.561 2621.01,349.498 C2614.99,353.436 2611.46,356.055 2610.41,357.357 C2609.37,358.66 2608.85,359.831 2608.85,360.873 C2608.85,361.915 2609.26,362.842 2610.08,363.654 C2610.9,364.467 2611.89,364.873 2613.05,364.873 M2632.01,340.467 C2637.6,340.467 2640.4,342.873 2640.4,347.686 C2640.4,350.029 2639.72,352.748 2638.35,355.842 C2636.99,358.936 2635.16,361.295 2632.88,362.92 C2627.87,366.305 2621.59,367.998 2614.04,367.998 C2608.43,367.998 2605.63,365.592 2605.63,360.779 C2605.63,358.634 2606.3,355.964 2607.63,352.772 C2608.97,349.579 2610.8,347.17 2613.15,345.545 C2618.17,342.16 2624.46,340.467 2632.01,340.467"/>
<path class="Note" d="M2478.55,352.967 C2481.67,352.967 2484.28,353.748 2486.36,355.311 C2488.44,356.873 2489.48,359.118 2489.48,362.045 C2489.48,366.535 2487.16,370.733 2482.51,374.639 C2477.86,378.545 2472.86,380.498 2467.52,380.498 C2464.39,380.498 2461.76,379.686 2459.61,378.061 C2457.59,376.3 2456.58,374.087 2456.58,371.42 C2456.58,367.055 2458.89,362.889 2463.52,358.92 C2468.14,354.951 2473.15,352.967 2478.55,352.967"/>
<path class="Note" d="M501.027,1252.97 C504.152,1252.97 506.756,1253.75 508.839,1255.31 C510.923,1256.87 511.964,1259.12 511.964,1262.05 C511.964,1266.54 509.639,1270.73 504.988,1274.64 C500.337,1278.55 495.339,1280.5 489.995,1280.5 C486.87,1280.5 484.235,1279.69 482.089,1278.06 C480.068,1276.3 479.058,1274.09 479.058,1271.42 C479.058,1267.06 481.37,1262.89 485.995,1258.92 C490.62,1254.95 495.631,1252.97 501.027,1252.97"/>
<path class="Note" d="M1236.19,1265.47 C1239.32,1265.47 1241.92,1266.25 1244,1267.81 C1246.09,1269.37 1247.13,1271.62 1247.13,1274.55 C1247.13,1279.04 1244.8,1283.23 1240.15,1287.14 C1235.5,1291.05 1230.5,1293 1225.16,1293 C1222.04,1293 1219.4,1292.19 1217.25,1290.56 C1215.23,1288.8 1214.22,1286.59 1214.22,1283.92 C1214.22,1279.56 1216.54,1275.39 1221.16,1271.42 C1225.79,1267.45 1230.8,1265.47 1236.19,1265.47"/>
<path class="Note" d="M933.55,1290.47 C936.675,1290.47 939.279,1291.25 941.362,1292.81 C943.445,1294.37 944.487,1296.62 944.487,1299.55 C944.487,1304.04 942.162,1308.23 937.511,1312.14 C932.86,1316.05 927.862,1318 922.518,1318 C919.393,1318 916.758,1317.19 914.612,1315.56 C912.591,1313.8 911.581,1311.59 911.581,1308.92 C911.581,1304.56 913.893,1300.39 918.518,1296.42 C923.143,1292.45 928.154,1290.47 933.55,1290.47"/>
<path class="Note" d="M2328.59,340.467 C2331.72,340.467 2334.32,341.248 2336.4,342.811 C2338.49,344.373 2339.53,346.618 2339.53,349.545 C2339.53,354.035 2337.2,358.232 2332.55,362.139 C2327.9,366.045 2322.9,367.998 2317.56,367.998 C2314.44,367.998 2311.8,367.186 2309.65,365.561 C2307.63,363.8 2306.62,361.587 2306.62,358.92 C2306.62,354.555 2308.94,350.389 2313.56,346.42 C2318.19,342.451 2323.2,340.467 2328.59,340.467"/>
<path class="Note" d="M1084.87,1277.97 C1088,1277.97 1090.6,1278.75 1092.68,1280.31 C1094.77,1281.87 1095.81,1284.12 1095.81,1287.05 C1095.81,1291.54 1093.48,1295.73 1088.83,1299.64 C1084.18,1303.55 1079.18,1305.5 1073.84,1305.5 C1070.71,1305.5 1068.08,1304.69 1065.93,1303.06 C1063.91,1301.3 1062.9,1299.09 1062.9,1296.42 C1062.9,1292.06 1065.21,1287.89 1069.84,1283.92 C1074.46,1279.95 1079.47,1277.97 1084.87,1277.97"/>
<path class="Note" d="M1402.16,790.467 C1405.28,790.467 1407.89,791.248 1409.97,792.811 C1412.05,794.373 1413.1,796.618 1413.1,799.545 C1413.1,804.035 1410.77,808.233 1406.12,812.139 C1401.47,816.045 1396.47,817.998 1391.13,817.998 C1388,817.998 1385.37,817.186 1383.22,815.561 C1381.2,813.8 1380.19,811.587 1380.19,808.92 C1380.19,804.556 1382.5,800.389 1387.13,796.42 C1391.75,792.452 1396.76,790.467 1402.16,790.467"/>
<path class="Note" d="M1909.56,327.967 C1912.68,327.967 1915.28,328.748 1917.37,330.311 C1919.45,331.873 1920.49,334.118 1920.49,337.045 C1920.49,341.535 1918.17,345.732 1913.52,349.639 C1908.86,353.545 1903.87,355.498 1898.52,355.498 C1895.4,355.498 1892.76,354.686 1890.62,353.061 C1888.6,351.3 1887.59,349.087 1887.59,346.42 C1887.59,342.055 1889.9,337.889 1894.52,333.92 C1899.15,329.951 1904.16,327.967 1909.56,327.967"/>
<path class="Note" d="M1387.51,1290.47 C1390.64,1290.47 1393.24,1291.25 1395.33,1292.81 C1397.41,1294.37 1398.45,1296.62 1398.45,1299.55 C1398.45,1304.04 1396.12,1308.23 1391.47,1312.14 C1386.82,1316.05 1381.83,1318 1376.48,1318 C1373.36,1318 1370.72,1317.19 1368.58,1315.56 C1366.55,1313.8 1365.54,1311.59 1365.54,1308.92 C1365.54,1304.56 1367.86,1300.39 1372.48,1296.42 C1377.11,1292.45 1382.12,1290.47 1387.51,1290.47"/>
<path class="Note" d="M2293.06,1265.47 C2296.19,1265.47 2298.79,1266.25 2300.88,1267.81 C2302.96,1269.37 2304,1271.62 2304,1274.55 C2304,1279.04 2301.68,1283.23 2297.02,1287.14 C2292.37,1291.05 2287.38,1293 2282.03,1293 C2278.91,1293 2276.27,1292.19 2274.13,1290.56 C2272.1,1288.8 2271.09,1286.59 2271.09,1283.92 C2271.09,1279.56 2273.41,1275.39 2278.03,1271.42 C2282.66,1267.45 2287.67,1265.47 2293.06,1265.47"/>
<path class="Note" d="M361.842,290.467 C364.967,290.467 367.571,291.248 369.654,292.811 C371.738,294.373 372.779,296.618 372.779,299.545 C372.779,304.035 370.454,308.232 365.803,312.139 C361.152,316.045 356.154,317.998 350.811,317.998 C347.686,317.998 345.05,317.186 342.904,315.561 C340.884,313.8 339.873,311.587 339.873,308.92 C339.873,304.555 342.186,300.389 346.811,296.42 C351.436,292.451 356.446,290.467 361.842,290.467"/>
<path class="Note" d="M1567.83,1227.97 C1570.96,1227.97 1573.56,1228.75 1575.65,1230.31 C1577.73,1231.87 1578.77,1234.12 1578.77,1237.05 C1578.77,1241.54 1576.45,1245.73 1571.79,1249.64 C1567.14,1253.55 1562.15,1255.5 1556.8,1255.5 C1553.68,1255.5 1551.04,1254.69 1548.9,1253.06 C1546.88,1251.3 1545.87,1249.09 1545.87,1246.42 C1545.87,1242.06 1548.18,1237.89 1552.8,1233.92 C1557.43,1229.95 1562.44,1227.97 1567.83,1227.97"/>
<path class="Note" d="M1870.48,1227.97 C1873.6,1227.97 1876.21,1228.75 1878.29,1230.31 C1880.37,1231.87 1881.41,1234.12 1881.41,1237.05 C1881.41,1241.54 1879.09,1245.73 1874.44,1249.64 C1869.79,1253.55 1864.79,1255.5 1859.45,1255.5 C1856.32,1255.5 1853.68,1254.69 1851.54,1253.06 C1849.52,1251.3 1848.51,1249.09 1848.51,1246.42 C1848.51,1242.06 1850.82,1237.89 1855.45,1233.92 C1860.07,1229.95 1865.08,1227.97 1870.48,1227.97"/>
<path class="Note" d="M2199.62,327.967 C2202.75,327.967 2205.35,328.748 2207.43,330.311 C2209.52,331.873 2210.56,334.118 2210.56,337.045 C2210.56,341.535 2208.23,345.732 2203.58,349.639 C2198.93,353.545 2193.93,355.498 2188.59,355.498 C2185.46,355.498 2182.83,354.686 2180.68,353.061 C2178.66,351.3 2177.65,349.087 2177.65,346.42 C2177.65,342.055 2179.96,337.889 2184.59,333.92 C2189.21,329.951 2194.22,327.967 2199.62,327.967"/>
<path class="Note" d="M1668.71,1227.97 C1671.84,1227.97 1674.44,1228.75 1676.53,1230.31 C1678.61,1231.87 1679.65,1234.12 1679.65,1237.05 C1679.65,1241.54 1677.33,1245.73 1672.68,1249.64 C1668.02,1253.55 1663.03,1255.5 1657.68,1255.5 C1654.56,1255.5 1651.92,1254.69 1649.78,1253.06 C1647.76,1251.3 1646.75,1249.09 1646.75,1246.42 C1646.75,1242.06 1649.06,1237.89 1653.68,1233.92 C1658.31,1229.95 1663.32,1227.97 1668.71,1227.97"/>
<path class="Note" d="M2580.26,1314.87 C2582.14,1314.87 2586.1,1312.92 2592.12,1309.01 C2598.15,1305.11 2601.7,1302.49 2602.77,1301.15 C2603.84,1299.82 2604.38,1298.63 2604.38,1297.59 C2604.38,1296.55 2603.96,1295.62 2603.11,1294.81 C2602.26,1294 2601.28,1293.59 2600.18,1293.59 C2598.23,1293.59 2594.24,1295.56 2588.22,1299.5 C2582.19,1303.44 2578.66,1306.06 2577.62,1307.36 C2576.57,1308.66 2576.05,1309.83 2576.05,1310.87 C2576.05,1311.92 2576.46,1312.84 2577.28,1313.65 C2578.1,1314.47 2579.09,1314.87 2580.26,1314.87 M2599.21,1290.47 C2604.8,1290.47 2607.6,1292.87 2607.6,1297.69 C2607.6,1300.03 2606.92,1302.75 2605.55,1305.84 C2604.19,1308.94 2602.37,1311.3 2600.08,1312.92 C2595.07,1316.31 2588.79,1318 2581.24,1318 C2575.64,1318 2572.83,1315.59 2572.83,1310.78 C2572.83,1308.63 2573.5,1305.96 2574.83,1302.77 C2576.17,1299.58 2578.01,1297.17 2580.35,1295.55 C2585.37,1292.16 2591.66,1290.47 2599.21,1290.47"/>
<path class="Note" d="M1769.6,1227.97 C1772.72,1227.97 1775.32,1228.75 1777.41,1230.31 C1779.49,1231.87 1780.53,1234.12 1780.53,1237.05 C1780.53,1241.54 1778.21,1245.73 1773.56,1249.64 C1768.91,1253.55 1763.91,1255.5 1758.56,1255.5 C1755.44,1255.5 1752.8,1254.69 1750.66,1253.06 C1748.64,1251.3 1747.63,1249.09 1747.63,1246.42 C1747.63,1242.06 1749.94,1237.89 1754.56,1233.92 C1759.19,1229.95 1764.2,1227.97 1769.6,1227.97"/>
<path class="Note" d="M2009.53,315.467 C2012.65,315.467 2015.25,316.248 2017.34,317.811 C2019.42,319.373 2020.46,321.618 2020.46,324.545 C2020.46,329.035 2018.14,333.232 2013.49,337.139 C2008.84,341.045 2003.84,342.998 1998.49,342.998 C1995.37,342.998 1992.73,342.186 1990.59,340.561 C1988.57,338.8 1987.56,336.587 1987.56,333.92 C1987.56,329.555 1989.87,325.389 1994.49,321.42 C1999.12,317.451 2004.13,315.467 2009.53,315.467"/>
<path class="Note" d="M309.201,1240.47 C312.326,1240.47 314.93,1241.25 317.014,1242.81 C319.097,1244.37 320.139,1246.62 320.139,1249.55 C320.139,1254.04 317.813,1258.23 313.162,1262.14 C308.511,1266.05 303.514,1268 298.17,1268 C295.045,1268 292.41,1267.19 290.264,1265.56 C288.243,1263.8 287.232,1261.59 287.232,1258.92 C287.232,1254.56 289.545,1250.39 294.17,1246.42 C298.795,1242.45 303.805,1240.47 309.201,1240.47"/>
<path class="Note" d="M1250.17,765.467 C1253.29,765.467 1255.89,766.248 1257.98,767.811 C1260.06,769.373 1261.1,771.618 1261.1,774.545 C1261.1,779.035 1258.78,783.233 1254.13,787.139 C1249.47,791.045 1244.48,792.998 1239.13,792.998 C1236.01,792.998 1233.37,792.186 1231.23,790.561 C1229.21,788.8 1228.2,786.587 1228.2,783.92 C1228.2,779.556 1230.51,775.389 1235.13,771.42 C1239.76,767.452 1244.77,765.467 1250.17,765.467"/>
<path class="Note" d="M1609.64,327.967 C1612.77,327.967 1615.37,328.748 1617.46,330.311 C1619.54,331.873 1620.58,334.118 1620.58,337.045 C1620.58,341.535 1618.26,345.732 1613.6,349.639 C1608.95,353.545 1603.96,355.498 1598.61,355.498 C1595.49,355.498 1592.85,354.686 1590.71,353.061 C1588.68,351.3 1587.67,349.087 1587.67,346.42 C1587.67,342.055 1589.99,337.889 1594.61,333.92 C1599.24,329.951 1604.25,327.967 1609.64,327.967"/>
<path class="Note" d="M1098.17,777.967 C1101.3,777.967 1103.9,778.748 1105.98,780.311 C1108.07,781.873 1109.11,784.118 1109.11,787.045 C1109.11,791.535 1106.78,795.733 1102.13,799.639 C1097.48,803.545 1092.48,805.498 1087.14,805.498 C1084.01,805.498 1081.38,804.686 1079.23,803.061 C1077.21,801.3 1076.2,799.087 1076.2,796.42 C1076.2,792.056 1078.51,787.889 1083.14,783.92 C1087.76,779.952 1092.78,777.967 1098.17,777.967"/>
<path class="Note" d="M1583.15,790.467 C1586.28,790.467 1588.88,791.248 1590.97,792.811 C1593.05,794.373 1594.09,796.618 1594.09,799.545 C1594.09,804.035 1591.76,808.233 1587.11,812.139 C1582.46,816.045 1577.47,817.998 1572.12,817.998 C1569,817.998 1566.36,817.186 1564.22,815.561 C1562.19,813.8 1561.18,811.587 1561.18,808.92 C1561.18,804.556 1563.5,800.389 1568.12,796.42 C1572.75,792.452 1577.76,790.467 1583.15,790.467"/>
<path class="Note" d="M1430.69,340.467 C1433.81,340.467 1436.42,341.248 1438.5,342.811 C1440.58,344.373 1441.62,346.618 1441.62,349.545 C1441.62,354.035 1439.3,358.232 1434.65,362.139 C1430,366.045 1425,367.998 1419.66,367.998 C1416.53,367.998 1413.9,367.186 1411.75,365.561 C1409.73,363.8 1408.72,361.587 1408.72,358.92 C1408.72,354.555 1411.03,350.389 1415.66,346.42 C1420.28,342.451 1425.29,340.467 1430.69,340.467"/>
<path class="Note" d="M1684.48,777.967 C1687.61,777.967 1690.21,778.748 1692.29,780.311 C1694.38,781.873 1695.42,784.118 1695.42,787.045 C1695.42,791.535 1693.09,795.733 1688.44,799.639 C1683.79,803.545 1678.79,805.498 1673.45,805.498 C1670.33,805.498 1667.69,804.686 1665.54,803.061 C1663.52,801.3 1662.51,799.087 1662.51,796.42 C1662.51,792.056 1664.83,787.889 1669.45,783.92 C1674.08,779.952 1679.09,777.967 1684.48,777.967"/>
<path class="Note" d="M946.177,790.467 C949.302,790.467 951.906,791.248 953.99,792.811 C956.073,794.373 957.115,796.618 957.115,799.545 C957.115,804.035 954.789,808.233 950.138,812.139 C945.487,816.045 940.49,817.998 935.146,817.998 C932.021,817.998 929.385,817.186 927.24,815.561 C925.219,813.8 924.208,811.587 924.208,808.92 C924.208,804.556 926.521,800.389 931.146,796.42 C935.771,792.452 940.781,790.467 946.177,790.467"/>
<path class="Note" d="M1785.81,765.467 C1788.94,765.467 1791.54,766.248 1793.62,767.811 C1795.71,769.373 1796.75,771.618 1796.75,774.545 C1796.75,779.035 1794.42,783.233 1789.77,787.139 C1785.12,791.045 1780.12,792.998 1774.78,792.998 C1771.66,792.998 1769.02,792.186 1766.87,790.561 C1764.85,788.8 1763.84,786.587 1763.84,783.92 C1763.84,779.556 1766.16,775.389 1770.78,771.42 C1775.41,767.452 1780.42,765.467 1785.81,765.467"/>
<path class="Note" d="M2444.38,1277.97 C2447.51,1277.97 2450.11,1278.75 2452.2,1280.31 C2454.28,1281.87 2455.32,1284.12 2455.32,1287.05 C2455.32,1291.54 2453,1295.73 2448.35,1299.64 C2443.69,1303.55 2438.7,1305.5 2433.35,1305.5 C2430.23,1305.5 2427.59,1304.69 2425.45,1303.06 C2423.43,1301.3 2422.42,1299.09 2422.42,1296.42 C2422.42,1292.06 2424.73,1287.89 2429.35,1283.92 C2433.98,1279.95 2438.99,1277.97 2444.38,1277.97"/>
<path class="Note" d="M1937.81,752.967 C1940.93,752.967 1943.53,753.748 1945.62,755.311 C1947.7,756.873 1948.74,759.118 1948.74,762.045 C1948.74,766.535 1946.42,770.733 1941.77,774.639 C1937.12,778.545 1932.12,780.498 1926.77,780.498 C1923.65,780.498 1921.01,779.686 1918.87,778.061 C1916.85,776.3 1915.84,774.087 1915.84,771.42 C1915.84,767.056 1918.15,762.889 1922.77,758.92 C1927.4,754.952 1932.41,752.967 1937.81,752.967"/>
<path class="Note" d="M2163.18,1252.97 C2166.31,1252.97 2168.91,1253.75 2170.99,1255.31 C2173.08,1256.87 2174.12,1259.12 2174.12,1262.05 C2174.12,1266.54 2171.79,1270.73 2167.14,1274.64 C2162.49,1278.55 2157.49,1280.5 2152.15,1280.5 C2149.03,1280.5 2146.39,1279.69 2144.24,1278.06 C2142.22,1276.3 2141.21,1274.09 2141.21,1271.42 C2141.21,1267.06 2143.53,1262.89 2148.15,1258.92 C2152.78,1254.95 2157.79,1252.97 2163.18,1252.97"/>
<path class="Note" d="M1280.73,315.467 C1283.86,315.467 1286.46,316.248 1288.54,317.811 C1290.63,319.373 1291.67,321.618 1291.67,324.545 C1291.67,329.035 1289.34,333.232 1284.69,337.139 C1280.04,341.045 1275.04,342.998 1269.7,342.998 C1266.57,342.998 1263.94,342.186 1261.79,340.561 C1259.77,338.8 1258.76,336.587 1258.76,333.92 C1258.76,329.555 1261.07,325.389 1265.7,321.42 C1270.32,317.451 1275.34,315.467 1280.73,315.467"/>
<path class="Note" d="M2039.13,740.467 C2042.26,740.467 2044.86,741.248 2046.95,742.811 C2049.03,744.373 2050.07,746.618 2050.07,749.545 C2050.07,754.035 2047.75,758.233 2043.1,762.139 C2038.44,766.045 2033.45,767.998 2028.1,767.998 C2024.98,767.998 2022.34,767.186 2020.2,765.561 C2018.18,763.8 2017.17,761.587 2017.17,758.92 C2017.17,754.556 2019.48,750.389 2024.1,746.42 C2028.73,742.451 2033.74,740.467 2039.13,740.467"/>
<path class="Note" d="M765.183,802.967 C768.308,802.967 770.912,803.748 772.996,805.311 C775.079,806.873 776.121,809.118 776.121,812.045 C776.121,816.535 773.795,820.733 769.144,824.639 C764.493,828.545 759.496,830.498 754.152,830.498 C751.027,830.498 748.391,829.686 746.246,828.061 C744.225,826.3 743.214,824.087 743.214,821.42 C743.214,817.056 745.527,812.889 750.152,808.92 C754.777,804.952 759.787,802.967 765.183,802.967"/>
<path class="Note" d="M1130.78,327.967 C1133.9,327.967 1136.5,328.748 1138.59,330.311 C1140.67,331.873 1141.71,334.118 1141.71,337.045 C1141.71,341.535 1139.39,345.732 1134.74,349.639 C1130.09,353.545 1125.09,355.498 1119.74,355.498 C1116.62,355.498 1113.98,354.686 1111.84,353.061 C1109.82,351.3 1108.81,349.087 1108.81,346.42 C1108.81,342.055 1111.12,337.889 1115.74,333.92 C1120.37,329.951 1125.38,327.967 1130.78,327.967"/>
<path class="Note" d="M2140.46,727.967 C2143.59,727.967 2146.19,728.748 2148.28,730.311 C2150.36,731.873 2151.4,734.118 2151.4,737.045 C2151.4,741.535 2149.08,745.733 2144.43,749.639 C2139.77,753.545 2134.78,755.498 2129.43,755.498 C2126.31,755.498 2123.67,754.686 2121.53,753.061 C2119.51,751.3 2118.5,749.087 2118.5,746.42 C2118.5,742.056 2120.81,737.889 2125.43,733.92 C2130.06,729.951 2135.07,727.967 2140.46,727.967"/>
<path class="Note" d="M613.189,777.967 C616.314,777.967 618.918,778.748 621.002,780.311 C623.085,781.873 624.127,784.118 624.127,787.045 C624.127,791.535 621.801,795.733 617.15,799.639 C612.499,803.545 607.502,805.498 602.158,805.498 C599.033,805.498 596.397,804.686 594.252,803.061 C592.231,801.3 591.22,799.087 591.22,796.42 C591.22,792.056 593.533,787.889 598.158,783.92 C602.783,779.952 607.793,777.967 613.189,777.967"/>
<path class="Note" d="M980.819,340.467 C983.944,340.467 986.548,341.248 988.632,342.811 C990.715,344.373 991.757,346.618 991.757,349.545 C991.757,354.035 989.431,358.232 984.78,362.139 C980.129,366.045 975.132,367.998 969.788,367.998 C966.663,367.998 964.028,367.186 961.882,365.561 C959.861,363.8 958.851,361.587 958.851,358.92 C958.851,354.555 961.163,350.389 965.788,346.42 C970.413,342.451 975.423,340.467 980.819,340.467"/>
<path class="Note" d="M461.195,790.467 C464.32,790.467 466.924,791.248 469.008,792.811 C471.091,794.373 472.133,796.618 472.133,799.545 C472.133,804.035 469.807,808.233 465.156,812.139 C460.505,816.045 455.508,817.998 450.164,817.998 C447.039,817.998 444.404,817.186 442.258,815.561 C440.237,813.8 439.226,811.587 439.226,808.92 C439.226,804.556 441.539,800.389 446.164,796.42 C450.789,792.452 455.799,790.467 461.195,790.467"/>
<path class="Note" d="M2321.46,740.467 C2324.58,740.467 2327.19,741.248 2329.27,742.811 C2331.35,744.373 2332.4,746.618 2332.4,749.545 C2332.4,754.035 2330.07,758.233 2325.42,762.139 C2320.77,766.045 2315.77,767.998 2310.43,767.998 C2307.3,767.998 2304.67,767.186 2302.52,765.561 C2300.5,763.8 2299.49,761.587 2299.49,758.92 C2299.49,754.556 2301.8,750.389 2306.43,746.42 C2311.05,742.451 2316.06,740.467 2321.46,740.467"/>
<path class="Note" d="M309.201,802.967 C312.326,802.967 314.93,803.748 317.014,805.311 C319.097,806.873 320.139,809.118 320.139,812.045 C320.139,816.535 317.813,820.733 313.162,824.639 C308.511,828.545 303.514,830.498 298.17,830.498 C295.045,830.498 292.41,829.686 290.264,828.061 C288.243,826.3 287.232,824.087 287.232,821.42 C287.232,817.056 289.545,812.889 294.17,808.92 C298.795,804.952 303.805,802.967 309.201,802.967"/>
<path class="Note" d="M801.863,327.967 C804.988,327.967 807.593,328.748 809.676,330.311 C811.759,331.873 812.801,334.118 812.801,337.045 C812.801,341.535 810.475,345.732 805.824,349.639 C801.173,353.545 796.176,355.498 790.832,355.498 C787.707,355.498 785.072,354.686 782.926,353.061 C780.905,351.3 779.895,349.087 779.895,346.42 C779.895,342.055 782.207,337.889 786.832,333.92 C791.457,329.951 796.468,327.967 801.863,327.967"/>
<path class="Note" d="M2473.45,752.967 C2476.58,752.967 2479.18,753.748 2481.26,755.311 C2483.35,756.873 2484.39,759.118 2484.39,762.045 C2484.39,766.535 2482.06,770.733 2477.41,774.639 C2472.76,778.545 2467.76,780.498 2462.42,780.498 C2459.3,780.498 2456.66,779.686 2454.51,778.061 C2452.49,776.3 2451.48,774.087 2451.48,771.42 C2451.48,767.056 2453.8,762.889 2458.42,758.92 C2463.05,754.952 2468.06,752.967 2473.45,752.967"/>
<path class="Note" d="M2610,789.873 C2611.88,789.873 2615.84,787.92 2621.86,784.014 C2627.89,780.108 2631.44,777.488 2632.51,776.155 C2633.59,774.821 2634.12,773.634 2634.12,772.592 C2634.12,771.55 2633.7,770.623 2632.85,769.811 C2632,768.998 2631.02,768.592 2629.92,768.592 C2627.97,768.592 2623.98,770.561 2617.96,774.498 C2611.93,778.436 2608.4,781.056 2607.36,782.358 C2606.31,783.66 2605.79,784.832 2605.79,785.873 C2605.79,786.915 2606.2,787.842 2607.02,788.655 C2607.84,789.467 2608.83,789.873 2610,789.873 M2628.95,765.467 C2634.54,765.467 2637.34,767.873 2637.34,772.686 C2637.34,775.03 2636.66,777.748 2635.29,780.842 C2633.93,783.936 2632.11,786.295 2629.83,787.92 C2624.81,791.306 2618.53,792.998 2610.98,792.998 C2605.38,792.998 2602.58,790.592 2602.58,785.78 C2602.58,783.634 2603.24,780.965 2604.58,777.772 C2605.91,774.579 2607.75,772.17 2610.09,770.545 C2615.11,767.16 2621.4,765.467 2628.95,765.467"/>
<path class="Note" d="M1709.61,315.467 C1712.74,315.467 1715.34,316.248 1717.43,317.811 C1719.51,319.373 1720.55,321.618 1720.55,324.545 C1720.55,329.035 1718.23,333.232 1713.57,337.139 C1708.92,341.045 1703.93,342.998 1698.58,342.998 C1695.46,342.998 1692.82,342.186 1690.68,340.561 C1688.66,338.8 1687.65,336.587 1687.65,333.92 C1687.65,329.555 1689.96,325.389 1694.58,321.42 C1699.21,317.451 1704.22,315.467 1709.61,315.467"/>
<path class="Note" d="M651.907,315.467 C655.032,315.467 657.637,316.248 659.72,317.811 C661.803,319.373 662.845,321.618 662.845,324.545 C662.845,329.035 660.519,333.232 655.868,337.139 C651.217,341.045 646.22,342.998 640.876,342.998 C637.751,342.998 635.116,342.186 632.97,340.561 C630.949,338.8 629.939,336.587 629.939,333.92 C629.939,329.555 632.251,325.389 636.876,321.42 C641.501,317.451 646.512,315.467 651.907,315.467"/>
<path class="Note" d="M1971.36,1240.47 C1974.48,1240.47 1977.09,1241.25 1979.17,1242.81 C1981.25,1244.37 1982.29,1246.62 1982.29,1249.55 C1982.29,1254.04 1979.97,1258.23 1975.32,1262.14 C1970.67,1266.05 1965.67,1268 1960.33,1268 C1957.2,1268 1954.57,1267.19 1952.42,1265.56 C1950.4,1263.8 1949.39,1261.59 1949.39,1258.92 C1949.39,1254.56 1951.7,1250.39 1956.33,1246.42 C1960.95,1242.45 1965.96,1240.47 1971.36,1240.47"/>
<path class="Note" d="M1809.58,302.967 C1812.71,302.967 1815.31,303.748 1817.4,305.311 C1819.48,306.873 1820.52,309.118 1820.52,312.045 C1820.52,316.535 1818.2,320.732 1813.55,324.639 C1808.89,328.545 1803.9,330.498 1798.55,330.498 C1795.43,330.498 1792.79,329.686 1790.65,328.061 C1788.63,326.3 1787.62,324.087 1787.62,321.42 C1787.62,317.055 1789.93,312.889 1794.55,308.92 C1799.18,304.951 1804.19,302.967 1809.58,302.967"/>
<path class="Clef" d="M203.623,423.858 L203.623,421.717 C203.56,420.613 203.399,418.889 203.139,416.545 C199.889,417.066 196.993,417.326 194.451,417.326 C185.337,417.326 177.605,413.727 171.256,406.529 C164.907,399.331 161.732,390.753 161.732,380.795 C161.732,378.128 162.253,374.923 163.295,371.178 C164.337,367.433 165.297,364.925 166.178,363.654 C167.058,362.384 168.378,360.154 170.139,356.967 C170.659,355.988 172.352,353.837 175.217,350.514 C175.738,349.805 176.193,349.222 176.584,348.764 C176.975,348.305 177.607,347.49 178.482,346.318 C179.357,345.147 180.3,344.055 181.31,343.045 C182.321,342.035 183.217,341.058 183.998,340.115 C184.779,339.173 185.498,338.378 186.154,337.733 C183.81,329.983 182.378,324.024 181.857,319.858 C181.337,315.691 181.076,310.579 181.076,304.522 C181.076,298.464 182.378,292.962 184.982,288.014 C187.514,282.878 191.06,278.68 195.623,275.42 C195.883,275.222 196.225,275.123 196.646,275.123 C197.068,275.123 197.378,275.222 197.576,275.42 C201.087,279.649 204.128,285.149 206.701,291.92 C209.274,298.691 210.56,305.024 210.56,310.92 C210.56,316.816 209.066,322.498 206.076,327.967 C202.691,333.759 198.326,339.748 192.982,345.936 C194.347,350.227 196.17,356.962 198.451,366.139 L199.045,366.139 C199.305,366.076 199.529,366.045 199.717,366.045 C207.081,366.045 213.089,368.634 217.74,373.811 C222.391,378.988 224.717,384.962 224.717,391.733 C224.717,400.128 221.238,406.899 214.279,412.045 C212.258,413.545 209.878,414.717 207.139,415.561 C207.472,419.79 207.639,422.605 207.639,424.006 C207.639,425.407 207.571,427.899 207.435,431.483 C207.373,437.597 205.29,442.837 201.185,447.201 C197.081,451.566 192.394,453.748 187.123,453.748 C181.852,453.748 177.36,451.876 173.646,448.131 C169.933,444.386 168.076,439.847 168.076,434.514 C168.076,431.712 169.154,429.331 171.31,427.373 C173.519,425.425 176.006,424.451 178.771,424.451 C181.537,424.451 183.8,425.462 185.56,427.483 C187.383,429.368 188.295,431.644 188.295,434.311 C188.295,436.977 187.383,439.222 185.56,441.045 C183.738,442.868 181.555,443.779 179.014,443.779 C177.972,443.779 176.967,443.587 175.998,443.201 C178.863,447.43 182.54,449.545 187.029,449.545 C191.519,449.545 195.36,447.691 198.553,443.983 C201.745,440.274 203.342,435.91 203.342,430.889 L203.623,423.858 M206.748,411.561 C210.133,410.321 212.821,408.123 214.81,404.967 C216.8,401.811 217.795,398.67 217.795,395.545 C217.795,390.92 216.199,386.785 213.006,383.139 C209.813,379.493 205.774,377.441 200.889,376.983 C203.691,390.722 205.644,402.248 206.748,411.561 M168.967,388.998 C168.967,395.446 171.537,401.079 176.678,405.897 C181.818,410.714 187.842,413.123 194.748,413.123 C197.477,413.123 200.144,412.925 202.748,412.529 C201.706,402.634 199.654,390.785 196.592,376.983 C192.758,377.378 189.782,378.699 187.662,380.943 C185.542,383.188 184.482,385.743 184.482,388.608 C184.482,393.555 187.123,397.561 192.404,400.623 C192.852,400.884 193.076,401.324 193.076,401.943 C193.076,402.563 192.865,403.1 192.443,403.553 C192.021,404.006 191.649,404.233 191.326,404.233 C191.003,404.233 190.581,404.17 190.06,404.045 C182.435,399.878 178.623,393.592 178.623,385.186 C178.623,381.217 180.024,377.41 182.826,373.764 C185.753,370.118 189.56,367.774 194.248,366.733 C192.425,359.441 190.93,353.743 189.764,349.639 C180.847,359.67 175.31,367.092 173.154,371.904 C170.363,378.154 168.967,383.852 168.967,388.998 M201.576,289.686 C196.691,292.092 192.834,295.574 190.006,300.131 C187.178,304.688 185.764,309.472 185.764,314.483 C185.764,319.493 186.935,325.972 189.279,333.92 C193.967,328.253 197.514,322.946 199.92,317.998 C202.326,313.05 203.529,308.152 203.529,303.303 C203.529,298.454 202.878,293.915 201.576,289.686"/>
<path class="Clef" d="M203.623,1373.86 L203.623,1371.72 C203.56,1370.61 203.399,1368.89 203.139,1366.55 C199.889,1367.07 196.993,1367.33 194.451,1367.33 C185.337,1367.33 177.605,1363.73 171.256,1356.53 C164.907,1349.33 161.732,1340.75 161.732,1330.8 C161.732,1328.13 162.253,1324.92 163.295,1321.18 C164.337,1317.43 165.297,1314.93 166.178,1313.65 C167.058,1312.38 168.378,1310.15 170.139,1306.97 C170.659,1305.99 172.352,1303.84 175.217,1300.51 C175.738,1299.81 176.193,1299.22 176.584,1298.76 C176.975,1298.31 177.607,1297.49 178.482,1296.32 C179.357,1295.15 180.3,1294.06 181.31,1293.05 C182.321,1292.04 183.217,1291.06 183.998,1290.12 C184.779,1289.17 185.498,1288.38 186.154,1287.73 C183.81,1279.98 182.378,1274.02 181.857,1269.86 C181.337,1265.69 181.076,1260.58 181.076,1254.52 C181.076,1248.46 182.378,1242.96 184.982,1238.01 C187.514,1232.88 191.06,1228.68 195.623,1225.42 C195.883,1225.22 196.225,1225.12 196.646,1225.12 C197.068,1225.12 197.378,1225.22 197.576,1225.42 C201.087,1229.65 204.128,1235.15 206.701,1241.92 C209.274,1248.69 210.56,1255.02 210.56,1260.92 C210.56,1266.82 209.066,1272.5 206.076,1277.97 C202.691,1283.76 198.326,1289.75 192.982,1295.94 C194.347,1300.23 196.17,1306.96 198.451,1316.14 L199.045,1316.14 C199.305,1316.08 199.529,1316.05 199.717,1316.05 C207.081,1316.05 213.089,1318.63 217.74,1323.81 C222.391,1328.99 224.717,1334.96 224.717,1341.73 C224.717,1350.13 221.238,1356.9 214.279,1362.05 C212.258,1363.55 209.878,1364.72 207.139,1365.56 C207.472,1369.79 207.639,1372.61 207.639,1374.01 C207.639,1375.41 207.571,1377.9 207.435,1381.48 C207.373,1387.6 205.29,1392.84 201.185,1397.2 C197.081,1401.57 192.394,1403.75 187.123,1403.75 C181.852,1403.75 177.36,1401.88 173.646,1398.13 C169.933,1394.39 168.076,1389.85 168.076,1384.51 C168.076,1381.71 169.154,1379.33 171.31,1377.37 C173.519,1375.43 176.006,1374.45 178.771,1374.45 C181.537,1374.45 183.8,1375.46 185.56,1377.48 C187.383,1379.37 188.295,1381.64 188.295,1384.31 C188.295,1386.98 187.383,1389.22 185.56,1391.05 C183.738,1392.87 181.555,1393.78 179.014,1393.78 C177.972,1393.78 176.967,1393.59 175.998,1393.2 C178.863,1397.43 182.54,1399.55 187.029,1399.55 C191.519,1399.55 195.36,1397.69 198.553,1393.98 C201.745,1390.27 203.342,1385.91 203.342,1380.89 L203.623,1373.86 M206.748,1361.56 C210.133,1360.32 212.821,1358.12 214.81,1354.97 C216.8,1351.81 217.795,1348.67 217.795,1345.55 C217.795,1340.92 216.199,1336.79 213.006,1333.14 C209.813,1329.49 205.774,1327.44 200.889,1326.98 C203.691,1340.72 205.644,1352.25 206.748,1361.56 M168.967,1339 C168.967,1345.45 171.537,1351.08 176.678,1355.9 C181.818,1360.71 187.842,1363.12 194.748,1363.12 C197.477,1363.12 200.144,1362.93 202.748,1362.53 C201.706,1352.63 199.654,1340.79 196.592,1326.98 C192.758,1327.38 189.782,1328.7 187.662,1330.94 C185.542,1333.19 184.482,1335.74 184.482,1338.61 C184.482,1343.56 187.123,1347.56 192.404,1350.62 C192.852,1350.88 193.076,1351.32 193.076,1351.94 C193.076,1352.56 192.865,1353.1 192.443,1353.55 C192.021,1354.01 191.649,1354.23 191.326,1354.23 C191.003,1354.23 190.581,1354.17 190.06,1354.05 C182.435,1349.88 178.623,1343.59 178.623,1335.19 C178.623,1331.22 180.024,1327.41 182.826,1323.76 C185.753,1320.12 189.56,1317.77 194.248,1316.73 C192.425,1309.44 190.93,1303.74 189.764,1299.64 C180.847,1309.67 175.31,1317.09 173.154,1321.9 C170.363,1328.15 168.967,1333.85 168.967,1339 M201.576,1239.69 C196.691,1242.09 192.834,1245.57 190.006,1250.13 C187.178,1254.69 185.764,1259.47 185.764,1264.48 C185.764,1269.49 186.935,1275.97 189.279,1283.92 C193.967,1278.25 197.514,1272.95 199.92,1268 C202.326,1263.05 203.529,1258.15 203.529,1253.3 C203.529,1248.45 202.878,1243.92 201.576,1239.69"/>
<path class="Clef" d="M203.623,898.858 L203.623,896.717 C203.56,895.613 203.399,893.889 203.139,891.545 C199.889,892.066 196.993,892.327 194.451,892.327 C185.337,892.327 177.605,888.728 171.256,881.53 C164.907,874.332 161.732,865.754 161.732,855.795 C161.732,853.129 162.253,849.923 163.295,846.178 C164.337,842.433 165.297,839.926 166.178,838.655 C167.058,837.384 168.378,835.155 170.139,831.967 C170.659,830.988 172.352,828.837 175.217,825.514 C175.738,824.806 176.193,824.222 176.584,823.764 C176.975,823.306 177.607,822.491 178.482,821.319 C179.357,820.147 180.3,819.056 181.31,818.045 C182.321,817.035 183.217,816.058 183.998,815.116 C184.779,814.173 185.498,813.379 186.154,812.733 C183.81,804.983 182.378,799.024 181.857,794.858 C181.337,790.691 181.076,785.579 181.076,779.522 C181.076,773.465 182.378,767.962 184.982,763.014 C187.514,757.879 191.06,753.681 195.623,750.42 C195.883,750.222 196.225,750.123 196.646,750.123 C197.068,750.123 197.378,750.222 197.576,750.42 C201.087,754.649 204.128,760.149 206.701,766.92 C209.274,773.691 210.56,780.024 210.56,785.92 C210.56,791.816 209.066,797.498 206.076,802.967 C202.691,808.759 198.326,814.748 192.982,820.936 C194.347,825.228 196.17,831.962 198.451,841.139 L199.045,841.139 C199.305,841.077 199.529,841.045 199.717,841.045 C207.081,841.045 213.089,843.634 217.74,848.811 C222.391,853.988 224.717,859.962 224.717,866.733 C224.717,875.129 221.238,881.899 214.279,887.045 C212.258,888.545 209.878,889.717 207.139,890.561 C207.472,894.79 207.639,897.605 207.639,899.006 C207.639,900.407 207.571,902.899 207.435,906.483 C207.373,912.597 205.29,917.837 201.185,922.202 C197.081,926.566 192.394,928.748 187.123,928.748 C181.852,928.748 177.36,926.876 173.646,923.131 C169.933,919.386 168.076,914.847 168.076,909.514 C168.076,906.712 169.154,904.332 171.31,902.373 C173.519,900.426 176.006,899.452 178.771,899.452 C181.537,899.452 183.8,900.462 185.56,902.483 C187.383,904.368 188.295,906.644 188.295,909.311 C188.295,911.978 187.383,914.222 185.56,916.045 C183.738,917.868 181.555,918.78 179.014,918.78 C177.972,918.78 176.967,918.587 175.998,918.202 C178.863,922.431 182.54,924.545 187.029,924.545 C191.519,924.545 195.36,922.691 198.553,918.983 C201.745,915.274 203.342,910.91 203.342,905.889 L203.623,898.858 M206.748,886.561 C210.133,885.321 212.821,883.123 214.81,879.967 C216.8,876.811 217.795,873.67 217.795,870.545 C217.795,865.92 216.199,861.785 213.006,858.139 C209.813,854.493 205.774,852.441 200.889,851.983 C203.691,865.722 205.644,877.248 206.748,886.561 M168.967,863.998 C168.967,870.446 171.537,876.079 176.678,880.897 C181.818,885.715 187.842,888.123 194.748,888.123 C197.477,888.123 200.144,887.926 202.748,887.53 C201.706,877.634 199.654,865.785 196.592,851.983 C192.758,852.379 189.782,853.699 187.662,855.944 C185.542,858.189 184.482,860.743 184.482,863.608 C184.482,868.556 187.123,872.561 192.404,875.623 C192.852,875.884 193.076,876.324 193.076,876.944 C193.076,877.564 192.865,878.1 192.443,878.553 C192.021,879.006 191.649,879.233 191.326,879.233 C191.003,879.233 190.581,879.17 190.06,879.045 C182.435,874.879 178.623,868.592 178.623,860.186 C178.623,856.217 180.024,852.41 182.826,848.764 C185.753,845.118 189.56,842.774 194.248,841.733 C192.425,834.441 190.93,828.743 189.764,824.639 C180.847,834.67 175.31,842.092 173.154,846.905 C170.363,853.155 168.967,858.853 168.967,863.998 M201.576,764.686 C196.691,767.092 192.834,770.574 190.006,775.131 C187.178,779.689 185.764,784.472 185.764,789.483 C185.764,794.493 186.935,800.972 189.279,808.92 C193.967,803.254 197.514,797.946 199.92,792.998 C202.326,788.051 203.529,783.152 203.529,778.303 C203.529,773.454 202.878,768.915 201.576,764.686"/>
<path class="TimeSig" d="M273.021,317.912 C274.516,317.912 275.949,317.686 277.318,317.232 C278.688,316.779 279.665,316.553 280.248,316.553 C280.831,316.553 281.222,316.907 281.42,317.615 C281.42,317.688 281.352,317.886 281.217,318.209 L252.811,351.225 L269.498,351.225 L269.498,338.131 C269.498,336.506 270.446,335.334 272.342,334.615 C274.29,333.897 276.503,331.001 278.982,325.928 C279.17,325.532 279.462,325.334 279.857,325.334 C280.639,325.334 281.092,325.792 281.217,326.709 L281.217,351.225 L288.357,351.225 C289.264,351.225 289.751,351.712 289.818,352.686 C289.886,353.66 289.399,354.147 288.357,354.147 L281.217,354.147 L281.217,354.928 C281.217,357.532 281.868,359.746 283.17,361.568 C284.67,363.391 286.43,364.303 288.451,364.303 C289.232,364.303 289.623,364.693 289.623,365.475 C289.623,366.256 289.087,366.647 288.014,366.647 C286.941,366.647 284.938,366.436 282.006,366.014 C279.074,365.592 276.811,365.381 275.217,365.381 C273.623,365.381 271.41,365.592 268.576,366.014 C265.743,366.436 263.613,366.647 262.186,366.647 C261.404,366.647 261.014,366.256 261.014,365.475 C261.014,364.693 261.404,364.303 262.186,364.303 C264.196,364.303 265.951,363.391 267.451,361.568 C268.816,359.683 269.498,357.469 269.498,354.928 L269.498,354.147 L252.811,354.147 C251.956,354.147 251.219,353.92 250.6,353.467 C249.98,353.014 249.67,352.592 249.67,352.201 C249.67,351.811 250.485,350.639 252.115,348.686 C253.745,346.732 256.074,342.972 259.1,337.404 C262.126,331.837 263.639,325.438 263.639,318.209 C263.639,317.167 264.097,316.647 265.014,316.647 C265.212,316.647 265.521,316.712 265.943,316.842 C266.365,316.972 267.277,317.183 268.678,317.475 C270.079,317.766 271.527,317.912 273.021,317.912"/>
<path class="TimeSig" d="M273.021,368.084 C274.516,368.084 275.949,367.858 277.318,367.404 C278.688,366.951 279.665,366.725 280.248,366.725 C280.831,366.725 281.222,367.079 281.42,367.787 C281.42,367.86 281.352,368.058 281.217,368.381 L252.811,401.397 L269.498,401.397 L269.498,388.303 C269.498,386.678 270.446,385.506 272.342,384.787 C274.29,384.068 276.503,381.173 278.982,376.1 C279.17,375.704 279.462,375.506 279.857,375.506 C280.639,375.506 281.092,375.964 281.217,376.881 L281.217,401.397 L288.357,401.397 C289.264,401.397 289.751,401.884 289.818,402.858 C289.886,403.831 289.399,404.318 288.357,404.318 L281.217,404.318 L281.217,405.1 C281.217,407.704 281.868,409.917 283.17,411.74 C284.67,413.563 286.43,414.475 288.451,414.475 C289.232,414.475 289.623,414.865 289.623,415.647 C289.623,416.428 289.087,416.818 288.014,416.818 C286.941,416.818 284.938,416.608 282.006,416.186 C279.074,415.764 276.811,415.553 275.217,415.553 C273.623,415.553 271.41,415.764 268.576,416.186 C265.743,416.608 263.613,416.818 262.186,416.818 C261.404,416.818 261.014,416.428 261.014,415.647 C261.014,414.865 261.404,414.475 262.186,414.475 C264.196,414.475 265.951,413.563 267.451,411.74 C268.816,409.855 269.498,407.641 269.498,405.1 L269.498,404.318 L252.811,404.318 C251.956,404.318 251.219,404.092 250.6,403.639 C249.98,403.186 249.67,402.764 249.67,402.373 C249.67,401.983 250.485,400.811 252.115,398.858 C253.745,396.904 256.074,393.144 259.1,387.576 C262.126,382.009 263.639,375.61 263.639,368.381 C263.639,367.339 264.097,366.818 265.014,366.818 C265.212,366.818 265.521,366.884 265.943,367.014 C266.365,367.144 267.277,367.355 268.678,367.647 C270.079,367.938 271.527,368.084 273.021,368.084"/>
<path class="Beam" fill-rule="evenodd" d="M1545.87,1310.48 L1851.76,1310.48 L1851.76,1322.98 L1545.87,1322.98 L1545.87,1310.48 "/>
<path class="Beam" fill-rule="evenodd" d="M1915.84,835.472 L2020.42,829.222 L2020.42,841.744 L1915.84,847.994 L1915.84,835.472 "/>
<path class="Beam" fill-rule="evenodd" d="M1561.18,866.722 L1665.76,860.472 L1665.76,872.994 L1561.18,879.244 L1561.18,866.722 "/>
<path class="Beam" fill-rule="evenodd" d="M1587.67,410.483 L1890.84,410.483 L1890.84,422.983 L1587.67,422.983 L1587.67,410.483 "/>
<path class="NoteDot" d="M330.561,1258.24 C329.451,1257.13 328.897,1255.8 328.897,1254.23 C328.897,1252.67 329.451,1251.33 330.561,1250.23 C331.67,1249.12 333.006,1248.56 334.568,1248.56 C336.131,1248.56 337.464,1249.12 338.568,1250.23 C339.673,1251.33 340.225,1252.67 340.225,1254.23 C340.225,1255.8 339.673,1257.13 338.568,1258.24 C337.464,1259.35 336.131,1259.9 334.568,1259.9 C333.006,1259.9 331.67,1259.35 330.561,1258.24"/>
<path class="NoteDot" d="M383.201,308.24 C382.092,307.131 381.537,305.795 381.537,304.232 C381.537,302.67 382.092,301.334 383.201,300.225 C384.311,299.115 385.647,298.561 387.209,298.561 C388.772,298.561 390.105,299.115 391.209,300.225 C392.313,301.334 392.865,302.67 392.865,304.232 C392.865,305.795 392.313,307.131 391.209,308.24 C390.105,309.35 388.772,309.904 387.209,309.904 C385.647,309.904 384.311,309.35 383.201,308.24"/>
<path class="NoteDot" d="M2030.89,333.24 C2029.78,332.131 2029.22,330.795 2029.22,329.232 C2029.22,327.67 2029.78,326.334 2030.89,325.225 C2031.99,324.115 2033.33,323.561 2034.89,323.561 C2036.46,323.561 2037.79,324.115 2038.89,325.225 C2040,326.334 2040.55,327.67 2040.55,329.232 C2040.55,330.795 2040,332.131 2038.89,333.24 C2037.79,334.35 2036.46,334.904 2034.89,334.904 C2033.33,334.904 2031.99,334.35 2030.89,333.24"/>
<path class="NoteDot" d="M1992.72,1258.24 C1991.61,1257.13 1991.05,1255.8 1991.05,1254.23 C1991.05,1252.67 1991.61,1251.33 1992.72,1250.23 C1993.83,1249.12 1995.16,1248.56 1996.72,1248.56 C1998.29,1248.56 1999.62,1249.12 2000.72,1250.23 C2001.83,1251.33 2002.38,1252.67 2002.38,1254.23 C2002.38,1255.8 2001.83,1257.13 2000.72,1258.24 C1999.62,1259.35 1998.29,1259.9 1996.72,1259.9 C1995.16,1259.9 1993.83,1259.35 1992.72,1258.24"/>
</svg>
