<?xml version="1.0" encoding="UTF-8" standalone="no"?>
<svg width="2977.2px" height="4208.4px" viewBox="0 0 2977.2 4208.4"
 xmlns="http://www.w3.org/2000/svg" xmlns:xlink="http://www.w3.org/1999/xlink" version="1.2" baseProfile="tiny">
<title>La_Cumparsita.mscx (3)</title>
<desc>Generated by MuseScore Studio 4.3.1</desc>
<path class="" fill="#ffffff" fill-rule="evenodd" d="M0,0 L2977.2,0 L2977.2,4208.4 L0,4208.4 L0,0 "/>
<polyline class="StaffLines" fill="none" stroke="#000000" stroke-width="1.77" stroke-linejoin="bevel" points="113.386,271.644 2862.99,271.644"/>
<polyline class="StaffLines" fill="none" stroke="#000000" stroke-width="1.77" stroke-linejoin="bevel" points="113.386,293.811 2862.99,293.811"/>
<polyline class="StaffLines" fill="none" stroke="#000000" stroke-width="1.77" stroke-linejoin="bevel" points="113.386,315.978 2862.99,315.978"/>
<polyline class="StaffLines" fill="none" stroke="#000000" stroke-width="1.77" stroke-linejoin="bevel" points="113.386,338.145 2862.99,338.145"/>
<polyline class="StaffLines" fill="none" stroke="#000000" stroke-width="1.77" stroke-linejoin="bevel" points="113.386,360.312 2862.99,360.312"/>
<polyline class="StaffLines" fill="none" stroke="#000000" stroke-width="1.77" stroke-linejoin="bevel" points="113.386,637.399 852.676,637.399"/>
<polyline class="StaffLines" fill="none" stroke="#000000" stroke-width="1.77" stroke-linejoin="bevel" points="113.386,659.565 852.676,659.565"/>
<polyline class="StaffLines" fill="none" stroke="#000000" stroke-width="1.77" stroke-linejoin="bevel" points="113.386,681.732 852.676,681.732"/>
<polyline class="StaffLines" fill="none" stroke="#000000" stroke-width="1.77" stroke-linejoin="bevel" points="113.386,703.899 852.676,703.899"/>
<polyline class="StaffLines" fill="none" stroke="#000000" stroke-width="1.77" stroke-linejoin="bevel" points="113.386,726.066 852.676,726.066"/>
<path class="MeasureNumber" d="M111.605,204.138 L111.605,204.685 L104.183,227.592 L101.902,227.592 L108.839,206.701 L101.245,206.701 C100.287,206.701 99.5578,206.875 99.0578,207.224 C98.5578,207.573 97.9328,208.342 97.1828,209.529 L96.5891,209.248 L98.6516,204.138 L111.605,204.138 M122.417,227.795 C120.063,227.795 118.167,226.855 116.73,224.974 C115.292,223.094 114.573,220.612 114.573,217.529 C114.573,216.571 114.667,215.584 114.855,214.568 C115.042,213.553 115.451,212.399 116.081,211.107 C116.711,209.816 117.529,208.657 118.534,207.631 C119.54,206.605 120.946,205.691 122.753,204.888 C124.56,204.086 126.641,203.581 128.995,203.373 L129.073,203.935 C126.313,204.373 124.011,205.485 122.167,207.271 C120.323,209.058 119.172,211.269 118.714,213.904 C119.808,213.279 120.633,212.873 121.191,212.685 C121.748,212.498 122.412,212.404 123.183,212.404 C125.193,212.404 126.792,213.053 127.98,214.349 C129.167,215.646 129.761,217.399 129.761,219.607 C129.761,222.024 129.079,223.993 127.714,225.513 C126.35,227.034 124.584,227.795 122.417,227.795 M121.855,213.935 C120.271,213.935 119.206,214.284 118.659,214.982 C118.113,215.68 117.839,216.711 117.839,218.076 C117.839,220.774 118.282,222.894 119.167,224.435 C120.053,225.977 121.266,226.748 122.808,226.748 C124.037,226.748 124.98,226.232 125.636,225.201 C126.292,224.17 126.62,222.701 126.62,220.795 C126.62,218.618 126.206,216.93 125.378,215.732 C124.55,214.534 123.376,213.935 121.855,213.935"/>
<path class="MeasureNumber" d="M111.605,569.893 L111.605,570.44 L104.183,593.346 L101.902,593.346 L108.839,572.455 L101.245,572.455 C100.287,572.455 99.5578,572.63 99.0578,572.979 C98.5578,573.328 97.9328,574.096 97.1828,575.283 L96.5891,575.002 L98.6516,569.893 L111.605,569.893 M115.448,593.83 L115.339,593.127 C118.006,592.669 120.266,591.536 122.12,589.729 C123.975,587.921 125.261,585.591 125.98,582.737 C124.261,584.091 122.511,584.768 120.73,584.768 C118.844,584.768 117.323,584.112 116.167,582.799 C115.011,581.487 114.433,579.768 114.433,577.643 C114.433,575.268 115.128,573.289 116.519,571.705 C117.909,570.122 119.641,569.33 121.714,569.33 C123.975,569.33 125.829,570.257 127.277,572.112 C128.725,573.966 129.448,576.346 129.448,579.252 C129.448,580.19 129.368,581.148 129.206,582.127 C129.045,583.106 128.667,584.268 128.073,585.612 C127.48,586.955 126.704,588.158 125.745,589.221 C124.787,590.283 123.42,591.247 121.644,592.112 C119.868,592.976 117.803,593.549 115.448,593.83 M121.995,583.221 C122.443,583.221 122.946,583.158 123.503,583.033 C124.06,582.908 124.626,582.63 125.198,582.197 C125.771,581.765 126.058,581.237 126.058,580.612 L126.058,579.252 C126.058,573.336 124.516,570.377 121.433,570.377 C120.714,570.377 120.097,570.57 119.581,570.955 C119.066,571.341 118.675,571.849 118.409,572.479 C118.144,573.109 117.951,573.75 117.831,574.401 C117.711,575.052 117.652,575.737 117.652,576.455 C117.652,578.528 118.042,580.174 118.823,581.393 C119.605,582.612 120.662,583.221 121.995,583.221"/>
<polyline class="BarLine" fill="none" stroke="#000000" stroke-width="3.55" stroke-linejoin="bevel" points="1220.5,270.758 1220.5,361.199"/>
<polyline class="BarLine" fill="none" stroke="#000000" stroke-width="3.55" stroke-linejoin="bevel" points="1914.49,270.758 1914.49,361.199"/>
<polyline class="BarLine" fill="none" stroke="#000000" stroke-width="3.55" stroke-linejoin="bevel" points="2861.22,270.758 2861.22,361.199"/>
<polyline class="BarLine" fill="none" stroke="#000000" stroke-width="3.55" stroke-linejoin="bevel" points="605.94,636.512 605.94,726.953"/>
<polyline class="BarLine" fill="none" stroke="#000000" stroke-width="3.55" stroke-linejoin="bevel" points="823.637,636.512 823.637,726.953"/>
<polyline class="BarLine" fill="none" stroke="#000000" stroke-width="11.08" stroke-linejoin="bevel" points="847.134,636.512 847.134,726.953"/>
<path class="Accidental" transform="matrix(0.886677,0,0,0.886677,423.402,271.644)" d="M22.6563,-21.9688 C24.0938,-22.3646 24.8125,-22.0104 24.8125,-20.9063 L24.8125,-13.0938 C24.8125,-12.3125 24.1927,-11.6927 22.9531,-11.2344 L19.7344,-9.96875 L19.7344,4.20313 L22.6563,3.03125 C24.0938,2.63542 24.8125,2.99479 24.8125,4.10938 L24.8125,11.9219 C24.8125,12.7031 24.1927,13.3177 22.9531,13.7656 L19.7344,15.0469 L19.7344,31.25 C19.7344,32.4896 19.2448,33.1094 18.2656,33.1094 C17.2865,33.1094 16.7969,32.4896 16.7969,31.25 L16.7969,16.2188 L7.51563,19.9219 L7.51563,36.0313 C7.51563,37.2708 7.02865,37.8906 6.05469,37.8906 C5.08073,37.8906 4.59375,37.2708 4.59375,36.0313 L4.59375,21.0938 L2.04688,22.1719 C0.682292,22.7552 0,22.3646 0,21 L0,13.2813 C0,12.6354 0.588542,12.0521 1.76563,11.5313 L4.59375,10.3594 L4.59375,-3.90625 L2.04688,-2.82813 C0.682292,-2.24479 0,-2.63542 0,-4 L0,-11.7188 C0,-12.375 0.588542,-12.9635 1.76563,-13.4844 L4.59375,-14.6563 L4.59375,-30.7656 C4.59375,-32.0052 5.08073,-32.625 6.05469,-32.625 C7.02865,-32.625 7.51563,-32.0052 7.51563,-30.7656 L7.51563,-15.8281 L16.7969,-19.625 L16.7969,-35.5469 C16.7969,-36.7865 17.2865,-37.4063 18.2656,-37.4063 C19.2448,-37.4063 19.7344,-36.7865 19.7344,-35.5469 L19.7344,-20.7969 L22.6563,-21.9688 M7.51563,-5.07813 L7.51563,9.1875 L16.7969,5.375 L16.7969,-8.79688 L7.51563,-5.07813 "/>
<path class="Accidental" transform="matrix(0.886677,0,0,0.886677,2666.82,271.644)" d="M22.6563,-21.9688 C24.0938,-22.3646 24.8125,-22.0104 24.8125,-20.9063 L24.8125,-13.0938 C24.8125,-12.3125 24.1927,-11.6927 22.9531,-11.2344 L19.7344,-9.96875 L19.7344,4.20313 L22.6563,3.03125 C24.0938,2.63542 24.8125,2.99479 24.8125,4.10938 L24.8125,11.9219 C24.8125,12.7031 24.1927,13.3177 22.9531,13.7656 L19.7344,15.0469 L19.7344,31.25 C19.7344,32.4896 19.2448,33.1094 18.2656,33.1094 C17.2865,33.1094 16.7969,32.4896 16.7969,31.25 L16.7969,16.2188 L7.51563,19.9219 L7.51563,36.0313 C7.51563,37.2708 7.02865,37.8906 6.05469,37.8906 C5.08073,37.8906 4.59375,37.2708 4.59375,36.0313 L4.59375,21.0938 L2.04688,22.1719 C0.682292,22.7552 0,22.3646 0,21 L0,13.2813 C0,12.6354 0.588542,12.0521 1.76563,11.5313 L4.59375,10.3594 L4.59375,-3.90625 L2.04688,-2.82813 C0.682292,-2.24479 0,-2.63542 0,-4 L0,-11.7188 C0,-12.375 0.588542,-12.9635 1.76563,-13.4844 L4.59375,-14.6563 L4.59375,-30.7656 C4.59375,-32.0052 5.08073,-32.625 6.05469,-32.625 C7.02865,-32.625 7.51563,-32.0052 7.51563,-30.7656 L7.51563,-15.8281 L16.7969,-19.625 L16.7969,-35.5469 C16.7969,-36.7865 17.2865,-37.4063 18.2656,-37.4063 C19.2448,-37.4063 19.7344,-36.7865 19.7344,-35.5469 L19.7344,-20.7969 L22.6563,-21.9688 M7.51563,-5.07813 L7.51563,9.1875 L16.7969,5.375 L16.7969,-8.79688 L7.51563,-5.07813 "/>
<polyline class="LedgerLine" fill="none" stroke="#000000" stroke-width="2.66" stroke-linejoin="bevel" points="2227.94,249.477 2273.98,249.477"/>
<polyline class="LedgerLine" fill="none" stroke="#000000" stroke-width="2.66" stroke-linejoin="bevel" points="2082.36,227.31 2128.4,227.31"/>
<polyline class="LedgerLine" fill="none" stroke="#000000" stroke-width="2.66" stroke-linejoin="bevel" points="2082.36,249.477 2128.4,249.477"/>
<polyline class="LedgerLine" fill="none" stroke="#000000" stroke-width="2.66" stroke-linejoin="bevel" points="2373.52,249.477 2419.55,249.477"/>
<polyline class="Stem" fill="none" stroke="#000000" stroke-width="2.88" stroke-linejoin="bevel" points="635.755,709.103 635.755,759.151"/>
<polyline class="Stem" fill="none" stroke="#000000" stroke-width="2.88" stroke-linejoin="bevel" points="430.982,664.77 430.982,759.507"/>
<polyline class="Stem" fill="none" stroke="#000000" stroke-width="2.88" stroke-linejoin="bevel" points="2383.39,254.681 2383.39,315.951"/>
<polyline class="Stem" fill="none" stroke="#000000" stroke-width="2.88" stroke-linejoin="bevel" points="470.806,675.853 470.806,764.755"/>
<polyline class="Stem" fill="none" stroke="#000000" stroke-width="2.88" stroke-linejoin="bevel" points="742.672,276.848 742.672,338.145"/>
<polyline class="Stem" fill="none" stroke="#000000" stroke-width="2.88" stroke-linejoin="bevel" points="2237.81,243.598 2237.81,313.207"/>
<polyline class="Stem" fill="none" stroke="#000000" stroke-width="2.88" stroke-linejoin="bevel" points="2528.97,265.765 2528.97,332.651"/>
<polyline class="Stem" fill="none" stroke="#000000" stroke-width="2.88" stroke-linejoin="bevel" points="516.206,686.936 516.206,770.738"/>
<polyline class="Stem" fill="none" stroke="#000000" stroke-width="2.88" stroke-linejoin="bevel" points="391.157,653.686 391.157,726.598"/>
<polyline class="Stem" fill="none" stroke="#000000" stroke-width="2.88" stroke-linejoin="bevel" points="888.251,265.765 888.251,360.454"/>
<polyline class="Stem" fill="none" stroke="#000000" stroke-width="2.88" stroke-linejoin="bevel" points="2092.23,232.514 2092.23,310.463"/>
<polyline class="Stem" fill="none" stroke="#000000" stroke-width="2.88" stroke-linejoin="bevel" points="554.257,698.02 554.257,775.752"/>
<polyline class="Stem" fill="none" stroke="#000000" stroke-width="2.88" stroke-linejoin="bevel" points="2694.93,276.848 2694.93,338.098"/>
<polyline class="Stem" fill="none" stroke="#000000" stroke-width="2.88" stroke-linejoin="bevel" points="681.154,664.77 681.154,753.94"/>
<polyline class="Stem" fill="none" stroke="#000000" stroke-width="2.88" stroke-linejoin="bevel" points="1748.2,299.015 1748.2,360.359"/>
<polyline class="Stem" fill="none" stroke="#000000" stroke-width="2.88" stroke-linejoin="bevel" points="597.092,265.765 597.092,338.145"/>
<polyline class="Stem" fill="none" stroke="#000000" stroke-width="2.88" stroke-linejoin="bevel" points="726.554,631.519 726.554,787.191"/>
<polyline class="Stem" fill="none" stroke="#000000" stroke-width="2.88" stroke-linejoin="bevel" points="1582.24,310.099 1582.24,365.806"/>
<polyline class="Stem" fill="none" stroke="#000000" stroke-width="2.88" stroke-linejoin="bevel" points="305.933,631.519 305.933,704.431"/>
<polyline class="Stem" fill="none" stroke="#000000" stroke-width="2.88" stroke-linejoin="bevel" points="1416.28,299.015 1416.28,371.537"/>
<polyline class="Stem" fill="none" stroke="#000000" stroke-width="2.88" stroke-linejoin="bevel" points="771.954,742.354 771.954,792.402"/>
<polyline class="Stem" fill="none" stroke="#000000" stroke-width="2.88" stroke-linejoin="bevel" points="451.513,276.848 451.513,338.145"/>
<polyline class="Stem" fill="none" stroke="#000000" stroke-width="2.88" stroke-linejoin="bevel" points="1250.32,332.266 1250.32,387.879"/>
<polyline class="Stem" fill="none" stroke="#000000" stroke-width="2.88" stroke-linejoin="bevel" points="1054.21,321.182 1054.21,376.795"/>
<path class="Hook" transform="matrix(0.886677,0,0,0.886677,304.493,703.899)" d="M22.75,-72.3594 C24.25,-72.3594 25.8307,-69.9349 27.4922,-65.0859 C29.1536,-60.237 29.9844,-55.7943 29.9844,-51.7578 C29.9844,-47.7214 29.0573,-43.8151 27.2031,-40.0391 C25.349,-36.263 23.1198,-32.9427 20.5156,-30.0781 L12.5,-21.0938 C10.0313,-18.2292 7.85156,-14.9427 5.96094,-11.2344 C4.07031,-7.52604 3.125,-3.78125 3.125,0 L0,0 L0,-25 L3.125,-25 C14.0625,-31.9063 20.9323,-38.026 23.7344,-43.3594 C25.099,-45.9635 25.7813,-48.599 25.7813,-51.2656 C25.7813,-57.4531 23.9896,-63.6094 20.4063,-69.7344 L20.4063,-70.125 C20.4063,-70.7083 20.6354,-71.2266 21.0938,-71.6797 C21.5521,-72.1328 22.1042,-72.3594 22.75,-72.3594"/>
<path class="Hook" transform="matrix(0.886677,0,0,0.886677,389.717,726.066)" d="M3.125,-17.1875 C13.2813,-23.0521 19.7604,-28.5521 22.5625,-33.6875 C23.8646,-36.1042 24.5156,-38.5 24.5156,-40.875 C24.5156,-43.25 24.0573,-45.6094 23.1406,-47.9531 C22.4323,-47.0365 20.5313,-45.1458 17.4375,-42.2813 C14.3438,-39.4167 11.901,-37.026 10.1094,-35.1094 C8.31771,-33.1927 6.70573,-30.849 5.27344,-28.0781 C3.84115,-25.3073 3.125,-22.4896 3.125,-19.625 L3.125,-17.1875 M29.9844,-63.4844 C29.9844,-59.5781 28.7448,-55.7031 26.2656,-51.8594 C27.901,-48.4115 28.7188,-44.9453 28.7188,-41.4609 C28.7188,-37.9766 27.8073,-34.5417 25.9844,-31.1563 C24.1615,-27.7708 22.0781,-24.9688 19.7344,-22.75 L12.1094,-15.3281 C6.11979,-9.21354 3.125,-3.16146 3.125,2.82813 L0,2.82813 L0,-47.1719 L3.125,-47.1719 L3.125,-39.6563 C18.2292,-47.5313 25.7813,-55.474 25.7813,-63.4844 C25.7813,-65.2344 25.3281,-67.2813 24.4219,-69.625 L24.4219,-70.0156 C24.4219,-70.6719 24.6484,-71.2266 25.1016,-71.6797 C25.5547,-72.1328 26.1094,-72.3594 26.7656,-72.3594 C28.3281,-72.3594 29.3021,-70.375 29.6875,-66.4063 L29.8906,-65.3281 C29.9531,-64.8802 29.9844,-64.2656 29.9844,-63.4844"/>
<path class="Note" transform="matrix(0.886677,0,0,0.886677,429.541,659.565)" d="M21.9688,-13.7656 C25.0938,-13.7656 27.6979,-12.9844 29.7813,-11.4219 C31.8646,-9.85938 32.9063,-7.61458 32.9063,-4.6875 C32.9063,-0.197917 30.5807,4 25.9297,7.90625 C21.2786,11.8125 16.2813,13.7656 10.9375,13.7656 C7.8125,13.7656 5.17708,12.9531 3.03125,11.3281 C1.01042,9.56771 0,7.35417 0,4.6875 C0,0.322917 2.3125,-3.84375 6.9375,-7.8125 C11.5625,-11.7813 16.5729,-13.7656 21.9688,-13.7656"/>
<path class="Note" transform="matrix(0.886677,0,0,0.886677,469.365,670.649)" d="M21.9688,-13.7656 C25.0938,-13.7656 27.6979,-12.9844 29.7813,-11.4219 C31.8646,-9.85938 32.9063,-7.61458 32.9063,-4.6875 C32.9063,-0.197917 30.5807,4 25.9297,7.90625 C21.2786,11.8125 16.2813,13.7656 10.9375,13.7656 C7.8125,13.7656 5.17708,12.9531 3.03125,11.3281 C1.01042,9.56771 0,7.35417 0,4.6875 C0,0.322917 2.3125,-3.84375 6.9375,-7.8125 C11.5625,-11.7813 16.5729,-13.7656 21.9688,-13.7656"/>
<path class="Note" transform="matrix(0.886677,0,0,0.886677,389.717,648.482)" d="M21.9688,-13.7656 C25.0938,-13.7656 27.6979,-12.9844 29.7813,-11.4219 C31.8646,-9.85938 32.9063,-7.61458 32.9063,-4.6875 C32.9063,-0.197917 30.5807,4 25.9297,7.90625 C21.2786,11.8125 16.2813,13.7656 10.9375,13.7656 C7.8125,13.7656 5.17708,12.9531 3.03125,11.3281 C1.01042,9.56771 0,7.35417 0,4.6875 C0,0.322917 2.3125,-3.84375 6.9375,-7.8125 C11.5625,-11.7813 16.5729,-13.7656 21.9688,-13.7656"/>
<path class="Note" transform="matrix(0.886677,0,0,0.886677,514.765,681.732)" d="M21.9688,-13.7656 C25.0938,-13.7656 27.6979,-12.9844 29.7813,-11.4219 C31.8646,-9.85938 32.9063,-7.61458 32.9063,-4.6875 C32.9063,-0.197917 30.5807,4 25.9297,7.90625 C21.2786,11.8125 16.2813,13.7656 10.9375,13.7656 C7.8125,13.7656 5.17708,12.9531 3.03125,11.3281 C1.01042,9.56771 0,7.35417 0,4.6875 C0,0.322917 2.3125,-3.84375 6.9375,-7.8125 C11.5625,-11.7813 16.5729,-13.7656 21.9688,-13.7656"/>
<path class="Note" transform="matrix(0.886677,0,0,0.886677,552.816,692.816)" d="M21.9688,-13.7656 C25.0938,-13.7656 27.6979,-12.9844 29.7813,-11.4219 C31.8646,-9.85938 32.9063,-7.61458 32.9063,-4.6875 C32.9063,-0.197917 30.5807,4 25.9297,7.90625 C21.2786,11.8125 16.2813,13.7656 10.9375,13.7656 C7.8125,13.7656 5.17708,12.9531 3.03125,11.3281 C1.01042,9.56771 0,7.35417 0,4.6875 C0,0.322917 2.3125,-3.84375 6.9375,-7.8125 C11.5625,-11.7813 16.5729,-13.7656 21.9688,-13.7656"/>
<path class="Note" transform="matrix(0.886677,0,0,0.886677,634.314,703.899)" d="M21.9688,-13.7656 C25.0938,-13.7656 27.6979,-12.9844 29.7813,-11.4219 C31.8646,-9.85938 32.9063,-7.61458 32.9063,-4.6875 C32.9063,-0.197917 30.5807,4 25.9297,7.90625 C21.2786,11.8125 16.2813,13.7656 10.9375,13.7656 C7.8125,13.7656 5.17708,12.9531 3.03125,11.3281 C1.01042,9.56771 0,7.35417 0,4.6875 C0,0.322917 2.3125,-3.84375 6.9375,-7.8125 C11.5625,-11.7813 16.5729,-13.7656 21.9688,-13.7656"/>
<path class="Note" transform="matrix(0.886677,0,0,0.886677,679.713,659.565)" d="M21.9688,-13.7656 C25.0938,-13.7656 27.6979,-12.9844 29.7813,-11.4219 C31.8646,-9.85938 32.9063,-7.61458 32.9063,-4.6875 C32.9063,-0.197917 30.5807,4 25.9297,7.90625 C21.2786,11.8125 16.2813,13.7656 10.9375,13.7656 C7.8125,13.7656 5.17708,12.9531 3.03125,11.3281 C1.01042,9.56771 0,7.35417 0,4.6875 C0,0.322917 2.3125,-3.84375 6.9375,-7.8125 C11.5625,-11.7813 16.5729,-13.7656 21.9688,-13.7656"/>
<path class="Note" transform="matrix(0.886677,0,0,0.886677,304.493,626.315)" d="M21.9688,-13.7656 C25.0938,-13.7656 27.6979,-12.9844 29.7813,-11.4219 C31.8646,-9.85938 32.9063,-7.61458 32.9063,-4.6875 C32.9063,-0.197917 30.5807,4 25.9297,7.90625 C21.2786,11.8125 16.2813,13.7656 10.9375,13.7656 C7.8125,13.7656 5.17708,12.9531 3.03125,11.3281 C1.01042,9.56771 0,7.35417 0,4.6875 C0,0.322917 2.3125,-3.84375 6.9375,-7.8125 C11.5625,-11.7813 16.5729,-13.7656 21.9688,-13.7656"/>
<path class="Note" transform="matrix(0.886677,0,0,0.886677,725.113,626.315)" d="M21.9688,-13.7656 C25.0938,-13.7656 27.6979,-12.9844 29.7813,-11.4219 C31.8646,-9.85938 32.9063,-7.61458 32.9063,-4.6875 C32.9063,-0.197917 30.5807,4 25.9297,7.90625 C21.2786,11.8125 16.2813,13.7656 10.9375,13.7656 C7.8125,13.7656 5.17708,12.9531 3.03125,11.3281 C1.01042,9.56771 0,7.35417 0,4.6875 C0,0.322917 2.3125,-3.84375 6.9375,-7.8125 C11.5625,-11.7813 16.5729,-13.7656 21.9688,-13.7656"/>
<path class="Note" transform="matrix(0.886677,0,0,0.886677,770.513,737.15)" d="M21.9688,-13.7656 C25.0938,-13.7656 27.6979,-12.9844 29.7813,-11.4219 C31.8646,-9.85938 32.9063,-7.61458 32.9063,-4.6875 C32.9063,-0.197917 30.5807,4 25.9297,7.90625 C21.2786,11.8125 16.2813,13.7656 10.9375,13.7656 C7.8125,13.7656 5.17708,12.9531 3.03125,11.3281 C1.01042,9.56771 0,7.35417 0,4.6875 C0,0.322917 2.3125,-3.84375 6.9375,-7.8125 C11.5625,-11.7813 16.5729,-13.7656 21.9688,-13.7656"/>
<path class="Note" transform="matrix(0.886677,0,0,0.886677,450.072,271.644)" d="M21.9688,-13.7656 C25.0938,-13.7656 27.6979,-12.9844 29.7813,-11.4219 C31.8646,-9.85938 32.9063,-7.61458 32.9063,-4.6875 C32.9063,-0.197917 30.5807,4 25.9297,7.90625 C21.2786,11.8125 16.2813,13.7656 10.9375,13.7656 C7.8125,13.7656 5.17708,12.9531 3.03125,11.3281 C1.01042,9.56771 0,7.35417 0,4.6875 C0,0.322917 2.3125,-3.84375 6.9375,-7.8125 C11.5625,-11.7813 16.5729,-13.7656 21.9688,-13.7656"/>
<path class="Note" transform="matrix(0.886677,0,0,0.886677,1052.77,315.978)" d="M21.9688,-13.7656 C25.0938,-13.7656 27.6979,-12.9844 29.7813,-11.4219 C31.8646,-9.85938 32.9063,-7.61458 32.9063,-4.6875 C32.9063,-0.197917 30.5807,4 25.9297,7.90625 C21.2786,11.8125 16.2813,13.7656 10.9375,13.7656 C7.8125,13.7656 5.17708,12.9531 3.03125,11.3281 C1.01042,9.56771 0,7.35417 0,4.6875 C0,0.322917 2.3125,-3.84375 6.9375,-7.8125 C11.5625,-11.7813 16.5729,-13.7656 21.9688,-13.7656"/>
<path class="Note" transform="matrix(0.886677,0,0,0.886677,1248.88,327.062)" d="M21.9688,-13.7656 C25.0938,-13.7656 27.6979,-12.9844 29.7813,-11.4219 C31.8646,-9.85938 32.9063,-7.61458 32.9063,-4.6875 C32.9063,-0.197917 30.5807,4 25.9297,7.90625 C21.2786,11.8125 16.2813,13.7656 10.9375,13.7656 C7.8125,13.7656 5.17708,12.9531 3.03125,11.3281 C1.01042,9.56771 0,7.35417 0,4.6875 C0,0.322917 2.3125,-3.84375 6.9375,-7.8125 C11.5625,-11.7813 16.5729,-13.7656 21.9688,-13.7656"/>
<path class="Note" transform="matrix(0.886677,0,0,0.886677,1414.84,293.811)" d="M21.9688,-13.7656 C25.0938,-13.7656 27.6979,-12.9844 29.7813,-11.4219 C31.8646,-9.85938 32.9063,-7.61458 32.9063,-4.6875 C32.9063,-0.197917 30.5807,4 25.9297,7.90625 C21.2786,11.8125 16.2813,13.7656 10.9375,13.7656 C7.8125,13.7656 5.17708,12.9531 3.03125,11.3281 C1.01042,9.56771 0,7.35417 0,4.6875 C0,0.322917 2.3125,-3.84375 6.9375,-7.8125 C11.5625,-11.7813 16.5729,-13.7656 21.9688,-13.7656"/>
<path class="Note" transform="matrix(0.886677,0,0,0.886677,2693.49,271.644)" d="M21.9688,-13.7656 C25.0938,-13.7656 27.6979,-12.9844 29.7813,-11.4219 C31.8646,-9.85938 32.9063,-7.61458 32.9063,-4.6875 C32.9063,-0.197917 30.5807,4 25.9297,7.90625 C21.2786,11.8125 16.2813,13.7656 10.9375,13.7656 C7.8125,13.7656 5.17708,12.9531 3.03125,11.3281 C1.01042,9.56771 0,7.35417 0,4.6875 C0,0.322917 2.3125,-3.84375 6.9375,-7.8125 C11.5625,-11.7813 16.5729,-13.7656 21.9688,-13.7656"/>
<path class="Note" transform="matrix(0.886677,0,0,0.886677,1580.8,304.895)" d="M21.9688,-13.7656 C25.0938,-13.7656 27.6979,-12.9844 29.7813,-11.4219 C31.8646,-9.85938 32.9063,-7.61458 32.9063,-4.6875 C32.9063,-0.197917 30.5807,4 25.9297,7.90625 C21.2786,11.8125 16.2813,13.7656 10.9375,13.7656 C7.8125,13.7656 5.17708,12.9531 3.03125,11.3281 C1.01042,9.56771 0,7.35417 0,4.6875 C0,0.322917 2.3125,-3.84375 6.9375,-7.8125 C11.5625,-11.7813 16.5729,-13.7656 21.9688,-13.7656"/>
<path class="Note" transform="matrix(0.886677,0,0,0.886677,2527.53,260.561)" d="M21.9688,-13.7656 C25.0938,-13.7656 27.6979,-12.9844 29.7813,-11.4219 C31.8646,-9.85938 32.9063,-7.61458 32.9063,-4.6875 C32.9063,-0.197917 30.5807,4 25.9297,7.90625 C21.2786,11.8125 16.2813,13.7656 10.9375,13.7656 C7.8125,13.7656 5.17708,12.9531 3.03125,11.3281 C1.01042,9.56771 0,7.35417 0,4.6875 C0,0.322917 2.3125,-3.84375 6.9375,-7.8125 C11.5625,-11.7813 16.5729,-13.7656 21.9688,-13.7656"/>
<path class="Note" transform="matrix(0.886677,0,0,0.886677,2381.95,249.477)" d="M21.9688,-13.7656 C25.0938,-13.7656 27.6979,-12.9844 29.7813,-11.4219 C31.8646,-9.85938 32.9063,-7.61458 32.9063,-4.6875 C32.9063,-0.197917 30.5807,4 25.9297,7.90625 C21.2786,11.8125 16.2813,13.7656 10.9375,13.7656 C7.8125,13.7656 5.17708,12.9531 3.03125,11.3281 C1.01042,9.56771 0,7.35417 0,4.6875 C0,0.322917 2.3125,-3.84375 6.9375,-7.8125 C11.5625,-11.7813 16.5729,-13.7656 21.9688,-13.7656"/>
<path class="Note" transform="matrix(0.886677,0,0,0.886677,595.651,260.561)" d="M21.9688,-13.7656 C25.0938,-13.7656 27.6979,-12.9844 29.7813,-11.4219 C31.8646,-9.85938 32.9063,-7.61458 32.9063,-4.6875 C32.9063,-0.197917 30.5807,4 25.9297,7.90625 C21.2786,11.8125 16.2813,13.7656 10.9375,13.7656 C7.8125,13.7656 5.17708,12.9531 3.03125,11.3281 C1.01042,9.56771 0,7.35417 0,4.6875 C0,0.322917 2.3125,-3.84375 6.9375,-7.8125 C11.5625,-11.7813 16.5729,-13.7656 21.9688,-13.7656"/>
<path class="Note" transform="matrix(0.886677,0,0,0.886677,1746.76,293.811)" d="M21.9688,-13.7656 C25.0938,-13.7656 27.6979,-12.9844 29.7813,-11.4219 C31.8646,-9.85938 32.9063,-7.61458 32.9063,-4.6875 C32.9063,-0.197917 30.5807,4 25.9297,7.90625 C21.2786,11.8125 16.2813,13.7656 10.9375,13.7656 C7.8125,13.7656 5.17708,12.9531 3.03125,11.3281 C1.01042,9.56771 0,7.35417 0,4.6875 C0,0.322917 2.3125,-3.84375 6.9375,-7.8125 C11.5625,-11.7813 16.5729,-13.7656 21.9688,-13.7656"/>
<path class="Note" transform="matrix(0.886677,0,0,0.886677,2236.37,238.394)" d="M21.9688,-13.7656 C25.0938,-13.7656 27.6979,-12.9844 29.7813,-11.4219 C31.8646,-9.85938 32.9063,-7.61458 32.9063,-4.6875 C32.9063,-0.197917 30.5807,4 25.9297,7.90625 C21.2786,11.8125 16.2813,13.7656 10.9375,13.7656 C7.8125,13.7656 5.17708,12.9531 3.03125,11.3281 C1.01042,9.56771 0,7.35417 0,4.6875 C0,0.322917 2.3125,-3.84375 6.9375,-7.8125 C11.5625,-11.7813 16.5729,-13.7656 21.9688,-13.7656"/>
<path class="Note" transform="matrix(0.886677,0,0,0.886677,886.81,260.561)" d="M21.9688,-13.7656 C25.0938,-13.7656 27.6979,-12.9844 29.7813,-11.4219 C31.8646,-9.85938 32.9063,-7.61458 32.9063,-4.6875 C32.9063,-0.197917 30.5807,4 25.9297,7.90625 C21.2786,11.8125 16.2813,13.7656 10.9375,13.7656 C7.8125,13.7656 5.17708,12.9531 3.03125,11.3281 C1.01042,9.56771 0,7.35417 0,4.6875 C0,0.322917 2.3125,-3.84375 6.9375,-7.8125 C11.5625,-11.7813 16.5729,-13.7656 21.9688,-13.7656"/>
<path class="Note" transform="matrix(0.886677,0,0,0.886677,2090.79,227.31)" d="M21.9688,-13.7656 C25.0938,-13.7656 27.6979,-12.9844 29.7813,-11.4219 C31.8646,-9.85938 32.9063,-7.61458 32.9063,-4.6875 C32.9063,-0.197917 30.5807,4 25.9297,7.90625 C21.2786,11.8125 16.2813,13.7656 10.9375,13.7656 C7.8125,13.7656 5.17708,12.9531 3.03125,11.3281 C1.01042,9.56771 0,7.35417 0,4.6875 C0,0.322917 2.3125,-3.84375 6.9375,-7.8125 C11.5625,-11.7813 16.5729,-13.7656 21.9688,-13.7656"/>
<path class="Note" transform="matrix(0.886677,0,0,0.886677,741.231,271.644)" d="M21.9688,-13.7656 C25.0938,-13.7656 27.6979,-12.9844 29.7813,-11.4219 C31.8646,-9.85938 32.9063,-7.61458 32.9063,-4.6875 C32.9063,-0.197917 30.5807,4 25.9297,7.90625 C21.2786,11.8125 16.2813,13.7656 10.9375,13.7656 C7.8125,13.7656 5.17708,12.9531 3.03125,11.3281 C1.01042,9.56771 0,7.35417 0,4.6875 C0,0.322917 2.3125,-3.84375 6.9375,-7.8125 C11.5625,-11.7813 16.5729,-13.7656 21.9688,-13.7656"/>
<path class="Clef" transform="matrix(0.886677,0,0,0.886677,124.469,703.899)" d="M41.8906,32.125 L41.8906,29.9844 C41.8281,28.8802 41.6667,27.1563 41.4063,24.8125 C38.1563,25.3333 35.2604,25.5938 32.7188,25.5938 C23.6042,25.5938 15.8724,21.9948 9.52344,14.7969 C3.17448,7.59896 0,-0.979167 0,-10.9375 C0,-13.6042 0.520833,-16.8099 1.5625,-20.5547 C2.60417,-24.2995 3.5651,-26.8073 4.44531,-28.0781 C5.32552,-29.349 6.64583,-31.5781 8.40625,-34.7656 C8.92708,-35.7448 10.6198,-37.8958 13.4844,-41.2188 C14.0052,-41.9271 14.4609,-42.5104 14.8516,-42.9688 C15.2422,-43.4271 15.875,-44.2422 16.75,-45.4141 C17.625,-46.5859 18.5677,-47.6771 19.5781,-48.6875 C20.5885,-49.6979 21.4844,-50.6745 22.2656,-51.6172 C23.0469,-52.5599 23.7656,-53.3542 24.4219,-54 C22.0781,-61.75 20.6458,-67.7083 20.125,-71.875 C19.6042,-76.0417 19.3438,-81.1536 19.3438,-87.2109 C19.3438,-93.2682 20.6458,-98.7708 23.25,-103.719 C25.7813,-108.854 29.3281,-113.052 33.8906,-116.313 C34.151,-116.51 34.4922,-116.609 34.9141,-116.609 C35.3359,-116.609 35.6458,-116.51 35.8438,-116.313 C39.3542,-112.083 42.3958,-106.583 44.9688,-99.8125 C47.5417,-93.0417 48.8281,-86.7083 48.8281,-80.8125 C48.8281,-74.9167 47.3333,-69.2344 44.3438,-63.7656 C40.9583,-57.974 36.5938,-51.9844 31.25,-45.7969 C32.6146,-41.5052 34.4375,-34.7708 36.7188,-25.5938 L37.3125,-25.5938 C37.5729,-25.6563 37.7969,-25.6875 37.9844,-25.6875 C45.349,-25.6875 51.3568,-23.099 56.0078,-17.9219 C60.6589,-12.7448 62.9844,-6.77083 62.9844,0 C62.9844,8.39583 59.5052,15.1667 52.5469,20.3125 C50.526,21.8125 48.1458,22.9844 45.4063,23.8281 C45.7396,28.0573 45.9063,30.8724 45.9063,32.2734 C45.9063,33.6745 45.8385,36.1667 45.7031,39.75 C45.6406,45.8646 43.5573,51.1042 39.4531,55.4688 C35.349,59.8333 30.6615,62.0156 25.3906,62.0156 C20.1198,62.0156 15.6276,60.1432 11.9141,56.3984 C8.20052,52.6536 6.34375,48.1146 6.34375,42.7813 C6.34375,39.9792 7.42188,37.599 9.57813,35.6406 C11.7865,33.6927 14.2734,32.7188 17.0391,32.7188 C19.8047,32.7188 22.0677,33.7292 23.8281,35.75 C25.651,37.6354 26.5625,39.9115 26.5625,42.5781 C26.5625,45.2448 25.651,47.4896 23.8281,49.3125 C22.0052,51.1354 19.8229,52.0469 17.2813,52.0469 C16.2396,52.0469 15.2344,51.8542 14.2656,51.4688 C17.1302,55.6979 20.8073,57.8125 25.2969,57.8125 C29.7865,57.8125 33.6276,55.9583 36.8203,52.25 C40.013,48.5417 41.6094,44.1771 41.6094,39.1563 L41.8906,32.125 M45.0156,19.8281 C48.401,18.5885 51.0885,16.3906 53.0781,13.2344 C55.0677,10.0781 56.0625,6.9375 56.0625,3.8125 C56.0625,-0.8125 54.4661,-4.94792 51.2734,-8.59375 C48.0807,-12.2396 44.0417,-14.2917 39.1563,-14.75 C41.9583,-1.01042 43.9115,10.5156 45.0156,19.8281 M7.23438,-2.73438 C7.23438,3.71354 9.80469,9.34635 14.9453,14.1641 C20.0859,18.9818 26.1094,21.3906 33.0156,21.3906 C35.7448,21.3906 38.4115,21.1927 41.0156,20.7969 C39.974,10.901 37.9219,-0.947917 34.8594,-14.75 C31.026,-14.3542 28.0495,-13.0339 25.9297,-10.7891 C23.8099,-8.54427 22.75,-5.98958 22.75,-3.125 C22.75,1.82292 25.3906,5.82813 30.6719,8.89063 C31.1198,9.15104 31.3438,9.59115 31.3438,10.2109 C31.3438,10.8307 31.1328,11.3672 30.7109,11.8203 C30.2891,12.2734 29.9167,12.5 29.5938,12.5 C29.2708,12.5 28.849,12.4375 28.3281,12.3125 C20.7031,8.14583 16.8906,1.85938 16.8906,-6.54688 C16.8906,-10.5156 18.2917,-14.3229 21.0938,-17.9688 C24.0208,-21.6146 27.8281,-23.9583 32.5156,-25 C30.6927,-32.2917 29.1979,-37.9896 28.0313,-42.0938 C19.1146,-32.0625 13.5781,-24.6406 11.4219,-19.8281 C8.63021,-13.5781 7.23438,-7.88021 7.23438,-2.73438 M39.8438,-102.047 C34.9583,-99.6406 31.1016,-96.1589 28.2734,-91.6016 C25.4453,-87.0443 24.0313,-82.2604 24.0313,-77.25 C24.0313,-72.2396 25.2031,-65.7604 27.5469,-57.8125 C32.2344,-63.4792 35.7813,-68.7865 38.1875,-73.7344 C40.5938,-78.6823 41.7969,-83.5807 41.7969,-88.4297 C41.7969,-93.2786 41.1458,-97.8177 39.8438,-102.047"/>
<path class="Clef" transform="matrix(0.886677,0,0,0.886677,124.469,338.145)" d="M41.8906,32.125 L41.8906,29.9844 C41.8281,28.8802 41.6667,27.1563 41.4063,24.8125 C38.1563,25.3333 35.2604,25.5938 32.7188,25.5938 C23.6042,25.5938 15.8724,21.9948 9.52344,14.7969 C3.17448,7.59896 0,-0.979167 0,-10.9375 C0,-13.6042 0.520833,-16.8099 1.5625,-20.5547 C2.60417,-24.2995 3.5651,-26.8073 4.44531,-28.0781 C5.32552,-29.349 6.64583,-31.5781 8.40625,-34.7656 C8.92708,-35.7448 10.6198,-37.8958 13.4844,-41.2188 C14.0052,-41.9271 14.4609,-42.5104 14.8516,-42.9688 C15.2422,-43.4271 15.875,-44.2422 16.75,-45.4141 C17.625,-46.5859 18.5677,-47.6771 19.5781,-48.6875 C20.5885,-49.6979 21.4844,-50.6745 22.2656,-51.6172 C23.0469,-52.5599 23.7656,-53.3542 24.4219,-54 C22.0781,-61.75 20.6458,-67.7083 20.125,-71.875 C19.6042,-76.0417 19.3438,-81.1536 19.3438,-87.2109 C19.3438,-93.2682 20.6458,-98.7708 23.25,-103.719 C25.7813,-108.854 29.3281,-113.052 33.8906,-116.313 C34.151,-116.51 34.4922,-116.609 34.9141,-116.609 C35.3359,-116.609 35.6458,-116.51 35.8438,-116.313 C39.3542,-112.083 42.3958,-106.583 44.9688,-99.8125 C47.5417,-93.0417 48.8281,-86.7083 48.8281,-80.8125 C48.8281,-74.9167 47.3333,-69.2344 44.3438,-63.7656 C40.9583,-57.974 36.5938,-51.9844 31.25,-45.7969 C32.6146,-41.5052 34.4375,-34.7708 36.7188,-25.5938 L37.3125,-25.5938 C37.5729,-25.6563 37.7969,-25.6875 37.9844,-25.6875 C45.349,-25.6875 51.3568,-23.099 56.0078,-17.9219 C60.6589,-12.7448 62.9844,-6.77083 62.9844,0 C62.9844,8.39583 59.5052,15.1667 52.5469,20.3125 C50.526,21.8125 48.1458,22.9844 45.4063,23.8281 C45.7396,28.0573 45.9063,30.8724 45.9063,32.2734 C45.9063,33.6745 45.8385,36.1667 45.7031,39.75 C45.6406,45.8646 43.5573,51.1042 39.4531,55.4688 C35.349,59.8333 30.6615,62.0156 25.3906,62.0156 C20.1198,62.0156 15.6276,60.1432 11.9141,56.3984 C8.20052,52.6536 6.34375,48.1146 6.34375,42.7813 C6.34375,39.9792 7.42188,37.599 9.57813,35.6406 C11.7865,33.6927 14.2734,32.7188 17.0391,32.7188 C19.8047,32.7188 22.0677,33.7292 23.8281,35.75 C25.651,37.6354 26.5625,39.9115 26.5625,42.5781 C26.5625,45.2448 25.651,47.4896 23.8281,49.3125 C22.0052,51.1354 19.8229,52.0469 17.2813,52.0469 C16.2396,52.0469 15.2344,51.8542 14.2656,51.4688 C17.1302,55.6979 20.8073,57.8125 25.2969,57.8125 C29.7865,57.8125 33.6276,55.9583 36.8203,52.25 C40.013,48.5417 41.6094,44.1771 41.6094,39.1563 L41.8906,32.125 M45.0156,19.8281 C48.401,18.5885 51.0885,16.3906 53.0781,13.2344 C55.0677,10.0781 56.0625,6.9375 56.0625,3.8125 C56.0625,-0.8125 54.4661,-4.94792 51.2734,-8.59375 C48.0807,-12.2396 44.0417,-14.2917 39.1563,-14.75 C41.9583,-1.01042 43.9115,10.5156 45.0156,19.8281 M7.23438,-2.73438 C7.23438,3.71354 9.80469,9.34635 14.9453,14.1641 C20.0859,18.9818 26.1094,21.3906 33.0156,21.3906 C35.7448,21.3906 38.4115,21.1927 41.0156,20.7969 C39.974,10.901 37.9219,-0.947917 34.8594,-14.75 C31.026,-14.3542 28.0495,-13.0339 25.9297,-10.7891 C23.8099,-8.54427 22.75,-5.98958 22.75,-3.125 C22.75,1.82292 25.3906,5.82813 30.6719,8.89063 C31.1198,9.15104 31.3438,9.59115 31.3438,10.2109 C31.3438,10.8307 31.1328,11.3672 30.7109,11.8203 C30.2891,12.2734 29.9167,12.5 29.5938,12.5 C29.2708,12.5 28.849,12.4375 28.3281,12.3125 C20.7031,8.14583 16.8906,1.85938 16.8906,-6.54688 C16.8906,-10.5156 18.2917,-14.3229 21.0938,-17.9688 C24.0208,-21.6146 27.8281,-23.9583 32.5156,-25 C30.6927,-32.2917 29.1979,-37.9896 28.0313,-42.0938 C19.1146,-32.0625 13.5781,-24.6406 11.4219,-19.8281 C8.63021,-13.5781 7.23438,-7.88021 7.23438,-2.73438 M39.8438,-102.047 C34.9583,-99.6406 31.1016,-96.1589 28.2734,-91.6016 C25.4453,-87.0443 24.0313,-82.2604 24.0313,-77.25 C24.0313,-72.2396 25.2031,-65.7604 27.5469,-57.8125 C32.2344,-63.4792 35.7813,-68.7865 38.1875,-73.7344 C40.5938,-78.6823 41.7969,-83.5807 41.7969,-88.4297 C41.7969,-93.2786 41.1458,-97.8177 39.8438,-102.047"/>
<path class="KeySig" transform="matrix(0.886677,0,0,0.886677,202.954,315.978)" d="M0.875,17.5781 L-0.390625,-44.5313 C-0.390625,-45.5104 0.375,-46 1.90625,-46 C3.4375,-46 4.20313,-45.5104 4.20313,-44.5313 L3.42188,-10.6406 C5.18229,-12.401 6.69531,-13.6224 7.96094,-14.3047 C9.22656,-14.987 10.9505,-15.3281 13.1328,-15.3281 C15.3151,-15.3281 17.3333,-14.3203 19.1875,-12.3047 C21.0417,-10.2891 21.9688,-7.78125 21.9688,-4.78125 C21.9688,-0.291667 17.25,5.92708 7.8125,13.875 C4.30208,17.0625 2.47917,18.6563 2.34375,18.6563 L1.76563,18.6563 C1.17188,18.6563 0.875,18.2969 0.875,17.5781 M3.32813,-7.51563 L3.03125,14.6563 C5.05208,12.7604 7.10417,9.61458 9.1875,5.21875 C11.2708,0.822917 12.3125,-2.9375 12.3125,-6.0625 C12.3125,-7.625 12.0521,-9.05729 11.5313,-10.3594 C11.0104,-11.6615 10.1953,-12.3125 9.08594,-12.3125 C7.97656,-12.3125 6.98177,-11.9219 6.10156,-11.1406 C5.22135,-10.3594 4.29688,-9.15104 3.32813,-7.51563"/>
<path class="KeySig" transform="matrix(0.886677,0,0,0.886677,229.555,282.728)" d="M0.875,17.5781 L-0.390625,-44.5313 C-0.390625,-45.5104 0.375,-46 1.90625,-46 C3.4375,-46 4.20313,-45.5104 4.20313,-44.5313 L3.42188,-10.6406 C5.18229,-12.401 6.69531,-13.6224 7.96094,-14.3047 C9.22656,-14.987 10.9505,-15.3281 13.1328,-15.3281 C15.3151,-15.3281 17.3333,-14.3203 19.1875,-12.3047 C21.0417,-10.2891 21.9688,-7.78125 21.9688,-4.78125 C21.9688,-0.291667 17.25,5.92708 7.8125,13.875 C4.30208,17.0625 2.47917,18.6563 2.34375,18.6563 L1.76563,18.6563 C1.17188,18.6563 0.875,18.2969 0.875,17.5781 M3.32813,-7.51563 L3.03125,14.6563 C5.05208,12.7604 7.10417,9.61458 9.1875,5.21875 C11.2708,0.822917 12.3125,-2.9375 12.3125,-6.0625 C12.3125,-7.625 12.0521,-9.05729 11.5313,-10.3594 C11.0104,-11.6615 10.1953,-12.3125 9.08594,-12.3125 C7.97656,-12.3125 6.98177,-11.9219 6.10156,-11.1406 C5.22135,-10.3594 4.29688,-9.15104 3.32813,-7.51563"/>
<path class="KeySig" transform="matrix(0.886677,0,0,0.886677,202.954,681.732)" d="M0.875,17.5781 L-0.390625,-44.5313 C-0.390625,-45.5104 0.375,-46 1.90625,-46 C3.4375,-46 4.20313,-45.5104 4.20313,-44.5313 L3.42188,-10.6406 C5.18229,-12.401 6.69531,-13.6224 7.96094,-14.3047 C9.22656,-14.987 10.9505,-15.3281 13.1328,-15.3281 C15.3151,-15.3281 17.3333,-14.3203 19.1875,-12.3047 C21.0417,-10.2891 21.9688,-7.78125 21.9688,-4.78125 C21.9688,-0.291667 17.25,5.92708 7.8125,13.875 C4.30208,17.0625 2.47917,18.6563 2.34375,18.6563 L1.76563,18.6563 C1.17188,18.6563 0.875,18.2969 0.875,17.5781 M3.32813,-7.51563 L3.03125,14.6563 C5.05208,12.7604 7.10417,9.61458 9.1875,5.21875 C11.2708,0.822917 12.3125,-2.9375 12.3125,-6.0625 C12.3125,-7.625 12.0521,-9.05729 11.5313,-10.3594 C11.0104,-11.6615 10.1953,-12.3125 9.08594,-12.3125 C7.97656,-12.3125 6.98177,-11.9219 6.10156,-11.1406 C5.22135,-10.3594 4.29688,-9.15104 3.32813,-7.51563"/>
<path class="KeySig" transform="matrix(0.886677,0,0,0.886677,229.555,648.482)" d="M0.875,17.5781 L-0.390625,-44.5313 C-0.390625,-45.5104 0.375,-46 1.90625,-46 C3.4375,-46 4.20313,-45.5104 4.20313,-44.5313 L3.42188,-10.6406 C5.18229,-12.401 6.69531,-13.6224 7.96094,-14.3047 C9.22656,-14.987 10.9505,-15.3281 13.1328,-15.3281 C15.3151,-15.3281 17.3333,-14.3203 19.1875,-12.3047 C21.0417,-10.2891 21.9688,-7.78125 21.9688,-4.78125 C21.9688,-0.291667 17.25,5.92708 7.8125,13.875 C4.30208,17.0625 2.47917,18.6563 2.34375,18.6563 L1.76563,18.6563 C1.17188,18.6563 0.875,18.2969 0.875,17.5781 M3.32813,-7.51563 L3.03125,14.6563 C5.05208,12.7604 7.10417,9.61458 9.1875,5.21875 C11.2708,0.822917 12.3125,-2.9375 12.3125,-6.0625 C12.3125,-7.625 12.0521,-9.05729 11.5313,-10.3594 C11.0104,-11.6615 10.1953,-12.3125 9.08594,-12.3125 C7.97656,-12.3125 6.98177,-11.9219 6.10156,-11.1406 C5.22135,-10.3594 4.29688,-9.15104 3.32813,-7.51563"/>
<path class="Rest" transform="matrix(0.886677,0,0,0.886677,1945.21,315.978)" d="M24.3125,-7.625 C20.1458,-6.125 16.7786,-5.375 14.2109,-5.375 C11.6432,-5.375 9.49479,-6.10677 7.76563,-7.57031 C6.03646,-9.03385 5.17188,-10.8568 5.17188,-13.0391 C5.17188,-15.2214 5.88802,-17.013 7.32031,-18.4141 C8.7526,-19.8151 10.4635,-20.5156 12.4531,-20.5156 C14.4427,-20.5156 15.875,-19.9766 16.75,-18.8984 C17.625,-17.8203 18.1276,-16.8594 18.2578,-16.0156 C18.388,-15.1719 18.6979,-14.0833 19.1875,-12.75 C19.6771,-11.4167 20.3464,-10.75 21.1953,-10.75 C22.0443,-10.75 23.151,-11.5781 24.5156,-13.2344 C25.8802,-14.8906 26.7578,-16.0938 27.1484,-16.8438 C27.5391,-17.5938 28.0443,-17.9531 28.6641,-17.9219 C29.2839,-17.8906 29.724,-17.5833 29.9844,-17 L12.1094,50 C11.4635,50.6563 10.5547,50.9844 9.38281,50.9844 C8.21094,50.9844 7.29688,50.6563 6.64063,50 L16.7031,17.2813 C12.3385,18.8438 8.88802,19.625 6.35156,19.625 C3.8151,19.625 1.68229,18.8932 -0.046875,17.4297 C-1.77604,15.9661 -2.64063,14.1432 -2.64063,11.9609 C-2.64063,9.77865 -1.9401,7.98958 -0.539063,6.59375 C0.861979,5.19792 2.55469,4.5 4.53906,4.5 C6.52344,4.5 7.97135,5.03646 8.88281,6.10938 C9.79427,7.18229 10.349,8.33854 10.5469,9.57813 C11.0677,12.7031 12.1094,14.2656 13.6719,14.2656 C14.4531,14.2656 15.5625,13.3542 17,11.5313 C18.4896,9.83333 19.401,8.49479 19.7344,7.51563 L24.3125,-7.625 "/>
<path class="Rest" transform="matrix(0.886677,0,0,0.886677,304.493,315.978)" d="M24.3125,-7.625 C20.1458,-6.125 16.7786,-5.375 14.2109,-5.375 C11.6432,-5.375 9.49479,-6.10677 7.76563,-7.57031 C6.03646,-9.03385 5.17188,-10.8568 5.17188,-13.0391 C5.17188,-15.2214 5.88802,-17.013 7.32031,-18.4141 C8.7526,-19.8151 10.4635,-20.5156 12.4531,-20.5156 C14.4427,-20.5156 15.875,-19.9766 16.75,-18.8984 C17.625,-17.8203 18.1276,-16.8594 18.2578,-16.0156 C18.388,-15.1719 18.6979,-14.0833 19.1875,-12.75 C19.6771,-11.4167 20.3464,-10.75 21.1953,-10.75 C22.0443,-10.75 23.151,-11.5781 24.5156,-13.2344 C25.8802,-14.8906 26.7578,-16.0938 27.1484,-16.8438 C27.5391,-17.5938 28.0443,-17.9531 28.6641,-17.9219 C29.2839,-17.8906 29.724,-17.5833 29.9844,-17 L12.1094,50 C11.4635,50.6563 10.5547,50.9844 9.38281,50.9844 C8.21094,50.9844 7.29688,50.6563 6.64063,50 L16.7031,17.2813 C12.3385,18.8438 8.88802,19.625 6.35156,19.625 C3.8151,19.625 1.68229,18.8932 -0.046875,17.4297 C-1.77604,15.9661 -2.64063,14.1432 -2.64063,11.9609 C-2.64063,9.77865 -1.9401,7.98958 -0.539063,6.59375 C0.861979,5.19792 2.55469,4.5 4.53906,4.5 C6.52344,4.5 7.97135,5.03646 8.88281,6.10938 C9.79427,7.18229 10.349,8.33854 10.5469,9.57813 C11.0677,12.7031 12.1094,14.2656 13.6719,14.2656 C14.4531,14.2656 15.5625,13.3542 17,11.5313 C18.4896,9.83333 19.401,8.49479 19.7344,7.51563 L24.3125,-7.625 "/>
<path class="Rest" transform="matrix(0.886677,0,0,0.886677,349.892,681.732)" d="M24.3125,-7.625 C20.1458,-6.125 16.7786,-5.375 14.2109,-5.375 C11.6432,-5.375 9.49479,-6.10677 7.76563,-7.57031 C6.03646,-9.03385 5.17188,-10.8568 5.17188,-13.0391 C5.17188,-15.2214 5.88802,-17.013 7.32031,-18.4141 C8.7526,-19.8151 10.4635,-20.5156 12.4531,-20.5156 C14.4427,-20.5156 15.875,-19.9766 16.75,-18.8984 C17.625,-17.8203 18.1276,-16.8594 18.2578,-16.0156 C18.388,-15.1719 18.6979,-14.0833 19.1875,-12.75 C19.6771,-11.4167 20.3464,-10.75 21.1953,-10.75 C22.0443,-10.75 23.151,-11.5781 24.5156,-13.2344 C25.8802,-14.8906 26.7578,-16.0938 27.1484,-16.8438 C27.5391,-17.5938 28.0443,-17.9531 28.6641,-17.9219 C29.2839,-17.8906 29.724,-17.5833 29.9844,-17 L12.1094,50 C11.4635,50.6563 10.5547,50.9844 9.38281,50.9844 C8.21094,50.9844 7.29688,50.6563 6.64063,50 L16.7031,17.2813 C12.3385,18.8438 8.88802,19.625 6.35156,19.625 C3.8151,19.625 1.68229,18.8932 -0.046875,17.4297 C-1.77604,15.9661 -2.64063,14.1432 -2.64063,11.9609 C-2.64063,9.77865 -1.9401,7.98958 -0.539063,6.59375 C0.861979,5.19792 2.55469,4.5 4.53906,4.5 C6.52344,4.5 7.97135,5.03646 8.88281,6.10938 C9.79427,7.18229 10.349,8.33854 10.5469,9.57813 C11.0677,12.7031 12.1094,14.2656 13.6719,14.2656 C14.4531,14.2656 15.5625,13.3542 17,11.5313 C18.4896,9.83333 19.401,8.49479 19.7344,7.51563 L24.3125,-7.625 "/>
<path class="Fermata" transform="matrix(0.886677,0,0,0.886677,755.664,615.232)" d="M28.4219,-1.95313 C27.1198,-3.25521 26.4688,-4.85156 26.4688,-6.74219 C26.4688,-8.63281 27.1198,-10.2292 28.4219,-11.5313 C29.724,-12.8333 31.3177,-13.4844 33.2031,-13.4844 C35.0885,-13.4844 36.6823,-12.8333 37.9844,-11.5313 C39.2865,-10.2292 39.9375,-8.63281 39.9375,-6.74219 C39.9375,-4.85156 39.2865,-3.25521 37.9844,-1.95313 C36.6823,-0.651042 35.0885,0 33.2031,0 C31.3177,0 29.724,-0.651042 28.4219,-1.95313 M21.875,-35.5469 C25.2604,-37.2448 28.9557,-38.0938 32.9609,-38.0938 C36.9661,-38.0938 40.8411,-37.2474 44.5859,-35.5547 C48.3307,-33.862 51.3073,-31.7135 53.5156,-29.1094 C58.3385,-23.5052 61.6927,-17.9375 63.5781,-12.4063 C65.4635,-6.875 66.4063,-3.22917 66.4063,-1.46875 C66.4063,-1.14583 66.2135,-0.786458 65.8281,-0.390625 C65.3073,-0.130208 64.8802,0 64.5469,0 C63.5781,0 62.9271,-0.588542 62.5938,-1.76563 C61.3646,-9.11979 57.9792,-15.3698 52.4375,-20.5156 C46.9063,-25.4635 40.4948,-27.9375 33.2031,-27.9375 C25.9115,-27.9375 19.5,-25.4635 13.9688,-20.5156 C8.4375,-15.3698 5.05208,-9.11979 3.8125,-1.76563 C3.61458,-0.588542 2.92969,0 1.75781,0 C0.585938,0 0,-0.684896 0,-2.05469 C0,-3.42448 0.716146,-6.19271 2.14844,-10.3594 C3.58073,-14.526 5.15885,-18.0234 6.88281,-20.8516 C8.60677,-23.6797 10.6406,-26.4453 12.9844,-29.1484 C15.3281,-31.8516 18.2917,-33.9844 21.875,-35.5469"/>
<path class="Beam" fill-rule="evenodd" d="M2090.79,305.115 L2384.83,310.657 L2384.83,321.299 L2090.79,315.757 L2090.79,305.115 "/>
<path class="Beam" fill-rule="evenodd" d="M2090.79,288.49 L2384.83,294.032 L2384.83,304.674 L2090.79,299.132 L2090.79,288.49 "/>
<path class="Beam" fill-rule="evenodd" d="M450.072,332.825 L744.112,332.825 L744.112,343.465 L450.072,343.465 L450.072,332.825 "/>
<path class="Beam" fill-rule="evenodd" d="M450.072,316.2 L744.112,316.2 L744.112,326.84 L450.072,326.84 L450.072,316.2 "/>
<path class="Beam" fill-rule="evenodd" d="M1248.88,382.675 L1417.72,366.05 L1417.72,376.741 L1248.88,393.366 L1248.88,382.675 "/>
<path class="Beam" fill-rule="evenodd" d="M725.113,781.67 L773.394,787.212 L773.394,797.922 L725.113,792.38 L725.113,781.67 "/>
<path class="Beam" fill-rule="evenodd" d="M2527.53,327.28 L2696.37,332.822 L2696.37,343.468 L2527.53,337.926 L2527.53,327.28 "/>
<path class="Beam" fill-rule="evenodd" d="M1580.8,360.531 L1749.64,354.989 L1749.64,365.635 L1580.8,371.177 L1580.8,360.531 "/>
<path class="Beam" fill-rule="evenodd" d="M429.541,753.951 L555.697,770.576 L555.697,781.308 L429.541,764.683 L429.541,753.951 "/>
<path class="Beam" fill-rule="evenodd" d="M429.541,737.325 L457.249,740.977 L457.249,751.709 L429.541,748.058 L429.541,737.325 "/>
<path class="Beam" fill-rule="evenodd" d="M514.765,748.556 L555.697,753.951 L555.697,764.683 L514.765,759.289 L514.765,748.556 "/>
<path class="Beam" fill-rule="evenodd" d="M514.765,731.931 L555.697,737.325 L555.697,748.058 L514.765,742.663 L514.765,731.931 "/>
<path class="Beam" fill-rule="evenodd" d="M634.314,753.962 L682.595,748.42 L682.595,759.13 L634.314,764.672 L634.314,753.962 "/>
<path class="Beam" fill-rule="evenodd" d="M886.81,354.966 L1055.65,371.591 L1055.65,382.283 L886.81,365.658 L886.81,354.966 "/>
<path class="Page" d="M2848.22,3991.68 C2848.83,3991.68 2849.75,3992.04 2850.96,3992.76 C2852.17,3993.49 2853.23,3993.85 2854.14,3993.85 C2855.61,3993.85 2856.85,3993.28 2857.86,3992.14 C2858.87,3991 2859.38,3989.59 2859.38,3987.93 C2859.38,3986.88 2859.2,3985.97 2858.84,3985.18 C2858.48,3984.38 2858.02,3983.77 2857.46,3983.33 C2856.9,3982.9 2856.24,3982.54 2855.46,3982.26 C2854.68,3981.99 2853.96,3981.81 2853.28,3981.72 C2852.6,3981.64 2851.88,3981.6 2851.11,3981.6 L2851.11,3981.08 C2852.02,3980.76 2852.79,3980.44 2853.45,3980.14 C2854.1,3979.83 2854.78,3979.42 2855.5,3978.9 C2856.22,3978.39 2856.77,3977.75 2857.16,3977 C2857.55,3976.25 2857.75,3975.4 2857.75,3974.44 C2857.75,3973.19 2857.34,3972.17 2856.52,3971.36 C2855.71,3970.56 2854.65,3970.16 2853.34,3970.16 C2852.09,3970.16 2850.99,3970.5 2850.05,3971.18 C2849.1,3971.87 2848.21,3972.94 2847.39,3974.41 L2846.78,3974.24 C2847.48,3972.35 2848.42,3970.8 2849.61,3969.59 C2850.8,3968.38 2852.48,3967.77 2854.66,3967.77 C2856.5,3967.77 2858,3968.28 2859.16,3969.29 C2860.33,3970.3 2860.91,3971.61 2860.91,3973.24 C2860.91,3974.33 2860.63,3975.29 2860.06,3976.12 C2859.5,3976.95 2858.53,3977.83 2857.14,3978.77 C2858.74,3979.46 2860,3980.34 2860.91,3981.41 C2861.81,3982.48 2862.27,3984.02 2862.27,3986.02 C2862.27,3988.85 2861.22,3991.12 2859.13,3992.82 C2857.03,3994.51 2854.4,3995.36 2851.22,3995.36 C2849.83,3995.36 2848.73,3995.16 2847.92,3994.74 C2847.11,3994.32 2846.7,3993.77 2846.7,3993.08 C2846.7,3992.66 2846.84,3992.31 2847.13,3992.06 C2847.41,3991.8 2847.77,3991.68 2848.22,3991.68"/>
</svg>
