<?xml version="1.0" encoding="UTF-8" standalone="no"?>
<svg width="2977.2px" height="4208.4px" viewBox="0 0 2977.2 4208.4"
 xmlns="http://www.w3.org/2000/svg" xmlns:xlink="http://www.w3.org/1999/xlink" version="1.2" baseProfile="tiny">
<title>Bb_Melodic_Minor.mscx</title>
<desc>Generated by MuseScore Studio 4.3.1</desc>
<path class="" fill="#ffffff" fill-rule="evenodd" d="M0,0 L2977.2,0 L2977.2,4208.4 L0,4208.4 L0,0 "/>
<polyline class="StaffLines" fill="none" stroke="#000000" stroke-width="2.00" stroke-linejoin="bevel" points="141.732,566.733 2835.47,566.733"/>
<polyline class="StaffLines" fill="none" stroke="#000000" stroke-width="2.00" stroke-linejoin="bevel" points="141.732,591.733 2835.47,591.733"/>
<polyline class="StaffLines" fill="none" stroke="#000000" stroke-width="2.00" stroke-linejoin="bevel" points="141.732,616.733 2835.47,616.733"/>
<polyline class="StaffLines" fill="none" stroke="#000000" stroke-width="2.00" stroke-linejoin="bevel" points="141.732,641.733 2835.47,641.733"/>
<polyline class="StaffLines" fill="none" stroke="#000000" stroke-width="2.00" stroke-linejoin="bevel" points="141.732,666.733 2835.47,666.733"/>
<polyline class="BarLine" fill="none" stroke="#000000" stroke-width="4.00" stroke-linejoin="bevel" points="2802.72,565.733 2802.72,667.733"/>
<polyline class="BarLine" fill="none" stroke="#000000" stroke-width="12.50" stroke-linejoin="bevel" points="2829.22,565.733 2829.22,667.733"/>
<polyline class="BarLine" fill="none" stroke="#000000" stroke-width="4.00" stroke-linejoin="bevel" points="880.081,565.733 880.081,667.733"/>
<polyline class="BarLine" fill="none" stroke="#000000" stroke-width="4.00" stroke-linejoin="bevel" points="1159.42,565.733 1159.42,667.733"/>
<polyline class="BarLine" fill="none" stroke="#000000" stroke-width="4.00" stroke-linejoin="bevel" points="590.227,565.733 590.227,667.733"/>
<polyline class="BarLine" fill="none" stroke="#000000" stroke-width="4.00" stroke-linejoin="bevel" points="1438.76,565.733 1438.76,667.733"/>
<polyline class="BarLine" fill="none" stroke="#000000" stroke-width="4.00" stroke-linejoin="bevel" points="1654.83,565.733 1654.83,667.733"/>
<polyline class="BarLine" fill="none" stroke="#000000" stroke-width="4.00" stroke-linejoin="bevel" points="1954.19,565.733 1954.19,667.733"/>
<polyline class="BarLine" fill="none" stroke="#000000" stroke-width="4.00" stroke-linejoin="bevel" points="2233.53,565.733 2233.53,667.733"/>
<polyline class="BarLine" fill="none" stroke="#000000" stroke-width="4.00" stroke-linejoin="bevel" points="2523.38,565.733 2523.38,667.733"/>
<path class="Accidental" d="M311.264,634.311 L309.998,572.201 C309.998,571.222 310.764,570.733 312.295,570.733 C313.826,570.733 314.592,571.222 314.592,572.201 L313.811,606.092 C315.571,604.332 317.084,603.11 318.35,602.428 C319.615,601.746 321.339,601.405 323.522,601.405 C325.704,601.405 327.722,602.412 329.576,604.428 C331.43,606.444 332.357,608.951 332.357,611.951 C332.357,616.441 327.639,622.66 318.201,630.608 C314.691,633.795 312.868,635.389 312.732,635.389 L312.154,635.389 C311.561,635.389 311.264,635.03 311.264,634.311 M313.717,609.217 L313.42,631.389 C315.441,629.493 317.493,626.347 319.576,621.951 C321.66,617.556 322.701,613.795 322.701,610.67 C322.701,609.108 322.441,607.675 321.92,606.373 C321.399,605.071 320.584,604.42 319.475,604.42 C318.365,604.42 317.37,604.811 316.49,605.592 C315.61,606.373 314.686,607.582 313.717,609.217"/>
<path class="Accidental" d="M1275.01,546.811 L1273.75,484.701 C1273.75,483.722 1274.51,483.233 1276.04,483.233 C1277.57,483.233 1278.34,483.722 1278.34,484.701 L1277.56,518.592 C1279.32,516.832 1280.83,515.61 1282.1,514.928 C1283.36,514.246 1285.09,513.904 1287.27,513.904 C1289.45,513.904 1291.47,514.912 1293.32,516.928 C1295.18,518.944 1296.11,521.451 1296.11,524.451 C1296.11,528.941 1291.39,535.16 1281.95,543.108 C1278.44,546.295 1276.62,547.889 1276.48,547.889 L1275.9,547.889 C1275.31,547.889 1275.01,547.529 1275.01,546.811 M1277.47,521.717 L1277.17,543.889 C1279.19,541.993 1281.24,538.847 1283.32,534.451 C1285.41,530.056 1286.45,526.295 1286.45,523.17 C1286.45,521.608 1286.19,520.175 1285.67,518.873 C1285.15,517.571 1284.33,516.92 1283.22,516.92 C1282.11,516.92 1281.12,517.311 1280.24,518.092 C1279.36,518.873 1278.43,520.082 1277.47,521.717"/>
<path class="Accidental" d="M1665.72,546.811 L1664.46,484.701 C1664.46,483.722 1665.22,483.233 1666.76,483.233 C1668.29,483.233 1669.05,483.722 1669.05,484.701 L1668.27,518.592 C1670.03,516.832 1671.55,515.61 1672.81,514.928 C1674.08,514.246 1675.8,513.904 1677.98,513.904 C1680.16,513.904 1682.18,514.912 1684.04,516.928 C1685.89,518.944 1686.82,521.451 1686.82,524.451 C1686.82,528.941 1682.1,535.16 1672.66,543.108 C1669.15,546.295 1667.33,547.889 1667.19,547.889 L1666.62,547.889 C1666.02,547.889 1665.72,547.529 1665.72,546.811 M1668.18,521.717 L1667.88,543.889 C1669.9,541.993 1671.95,538.847 1674.04,534.451 C1676.12,530.056 1677.16,526.295 1677.16,523.17 C1677.16,521.608 1676.9,520.175 1676.38,518.873 C1675.86,517.571 1675.05,516.92 1673.94,516.92 C1672.83,516.92 1671.83,517.311 1670.95,518.092 C1670.07,518.873 1669.15,520.082 1668.18,521.717"/>
<path class="Accidental" d="M2648.47,634.311 L2647.21,572.201 C2647.21,571.222 2647.97,570.733 2649.5,570.733 C2651.04,570.733 2651.8,571.222 2651.8,572.201 L2651.02,606.092 C2652.78,604.332 2654.29,603.11 2655.56,602.428 C2656.82,601.746 2658.55,601.405 2660.73,601.405 C2662.91,601.405 2664.93,602.412 2666.79,604.428 C2668.64,606.444 2669.57,608.951 2669.57,611.951 C2669.57,616.441 2664.85,622.66 2655.41,630.608 C2651.9,633.795 2650.08,635.389 2649.94,635.389 L2649.36,635.389 C2648.77,635.389 2648.47,635.03 2648.47,634.311 M2650.93,609.217 L2650.63,631.389 C2652.65,629.493 2654.7,626.347 2656.79,621.951 C2658.87,617.556 2659.91,613.795 2659.91,610.67 C2659.91,609.108 2659.65,607.675 2659.13,606.373 C2658.61,605.071 2657.79,604.42 2656.68,604.42 C2655.57,604.42 2654.58,604.811 2653.7,605.592 C2652.82,606.373 2651.89,607.582 2650.93,609.217"/>
<path class="Accidental" d="M2369.13,609.311 L2367.87,547.201 C2367.87,546.222 2368.63,545.733 2370.17,545.733 C2371.7,545.733 2372.46,546.222 2372.46,547.201 L2371.68,581.092 C2373.44,579.332 2374.96,578.11 2376.22,577.428 C2377.49,576.746 2379.21,576.405 2381.39,576.405 C2383.57,576.405 2385.59,577.412 2387.45,579.428 C2389.3,581.444 2390.23,583.951 2390.23,586.951 C2390.23,591.441 2385.51,597.66 2376.07,605.608 C2372.56,608.795 2370.74,610.389 2370.6,610.389 L2370.03,610.389 C2369.43,610.389 2369.13,610.03 2369.13,609.311 M2371.59,584.217 L2371.29,606.389 C2373.31,604.493 2375.36,601.347 2377.45,596.951 C2379.53,592.556 2380.57,588.795 2380.57,585.67 C2380.57,584.108 2380.31,582.675 2379.79,581.373 C2379.27,580.071 2378.46,579.42 2377.35,579.42 C2376.24,579.42 2375.24,579.811 2374.36,580.592 C2373.48,581.373 2372.56,582.582 2371.59,584.217"/>
<path class="Accidental" d="M601.118,609.311 L599.852,547.201 C599.852,546.222 600.618,545.733 602.149,545.733 C603.68,545.733 604.446,546.222 604.446,547.201 L603.664,581.092 C605.425,579.332 606.938,578.11 608.204,577.428 C609.469,576.746 611.193,576.405 613.375,576.405 C615.558,576.405 617.576,577.412 619.43,579.428 C621.284,581.444 622.211,583.951 622.211,586.951 C622.211,591.441 617.493,597.66 608.055,605.608 C604.545,608.795 602.722,610.389 602.586,610.389 L602.008,610.389 C601.414,610.389 601.118,610.03 601.118,609.311 M603.571,584.217 L603.274,606.389 C605.295,604.493 607.347,601.347 609.43,596.951 C611.513,592.556 612.555,588.795 612.555,585.67 C612.555,584.108 612.295,582.675 611.774,581.373 C611.253,580.071 610.438,579.42 609.329,579.42 C608.219,579.42 607.224,579.811 606.344,580.592 C605.464,581.373 604.539,582.582 603.571,584.217"/>
<path class="Accidental" d="M2244.42,596.811 L2243.15,534.701 C2243.15,533.722 2243.92,533.233 2245.45,533.233 C2246.98,533.233 2247.75,533.722 2247.75,534.701 L2246.96,568.592 C2248.72,566.832 2250.24,565.61 2251.5,564.928 C2252.77,564.246 2254.49,563.905 2256.67,563.905 C2258.86,563.905 2260.88,564.912 2262.73,566.928 C2264.58,568.944 2265.51,571.451 2265.51,574.451 C2265.51,578.941 2260.79,585.16 2251.35,593.108 C2247.84,596.295 2246.02,597.889 2245.89,597.889 L2245.31,597.889 C2244.71,597.889 2244.42,597.53 2244.42,596.811 M2246.87,571.717 L2246.57,593.889 C2248.59,591.993 2250.65,588.847 2252.73,584.451 C2254.81,580.056 2255.85,576.295 2255.85,573.17 C2255.85,571.608 2255.59,570.175 2255.07,568.873 C2254.55,567.571 2253.74,566.92 2252.63,566.92 C2251.52,566.92 2250.52,567.311 2249.64,568.092 C2248.76,568.873 2247.84,570.082 2246.87,571.717"/>
<path class="Accidental" d="M725.836,596.811 L724.57,534.701 C724.57,533.722 725.336,533.233 726.867,533.233 C728.398,533.233 729.164,533.722 729.164,534.701 L728.382,568.592 C730.143,566.832 731.656,565.61 732.921,564.928 C734.187,564.246 735.911,563.905 738.093,563.905 C740.276,563.905 742.294,564.912 744.148,566.928 C746.002,568.944 746.929,571.451 746.929,574.451 C746.929,578.941 742.211,585.16 732.773,593.108 C729.263,596.295 727.44,597.889 727.304,597.889 L726.726,597.889 C726.132,597.889 725.836,597.53 725.836,596.811 M728.289,571.717 L727.992,593.889 C730.013,591.993 732.065,588.847 734.148,584.451 C736.231,580.056 737.273,576.295 737.273,573.17 C737.273,571.608 737.013,570.175 736.492,568.873 C735.971,567.571 735.156,566.92 734.046,566.92 C732.937,566.92 731.942,567.311 731.062,568.092 C730.182,568.873 729.257,570.082 728.289,571.717"/>
<polyline class="LedgerLine" fill="none" stroke="#000000" stroke-width="4.00" stroke-linejoin="bevel" points="1817.07,541.733 1870.79,541.733"/>
<polyline class="LedgerLine" fill="none" stroke="#000000" stroke-width="4.00" stroke-linejoin="bevel" points="1176.92,541.733 1230.64,541.733"/>
<polyline class="LedgerLine" fill="none" stroke="#000000" stroke-width="4.00" stroke-linejoin="bevel" points="1692.35,541.733 1746.07,541.733"/>
<polyline class="LedgerLine" fill="none" stroke="#000000" stroke-width="4.00" stroke-linejoin="bevel" points="1301.64,541.733 1355.36,541.733"/>
<polyline class="Stem" fill="none" stroke="#000000" stroke-width="3.25" stroke-linejoin="bevel" points="2272.67,584.133 2272.67,666.733"/>
<polyline class="Stem" fill="none" stroke="#000000" stroke-width="3.25" stroke-linejoin="bevel" points="1982.81,559.133 1982.81,641.733"/>
<polyline class="Stem" fill="none" stroke="#000000" stroke-width="3.25" stroke-linejoin="bevel" points="754.086,584.133 754.086,666.733"/>
<polyline class="Stem" fill="none" stroke="#000000" stroke-width="3.25" stroke-linejoin="bevel" points="1828.19,546.633 1828.19,629.233"/>
<polyline class="Stem" fill="none" stroke="#000000" stroke-width="3.25" stroke-linejoin="bevel" points="2107.53,571.633 2107.53,654.233"/>
<polyline class="Stem" fill="none" stroke="#000000" stroke-width="3.25" stroke-linejoin="bevel" points="339.514,621.633 339.514,691.733"/>
<polyline class="Stem" fill="none" stroke="#000000" stroke-width="3.25" stroke-linejoin="bevel" points="1703.47,534.133 1703.47,616.733"/>
<polyline class="Stem" fill="none" stroke="#000000" stroke-width="3.25" stroke-linejoin="bevel" points="2552.01,609.133 2552.01,685.483"/>
<polyline class="Stem" fill="none" stroke="#000000" stroke-width="3.25" stroke-linejoin="bevel" points="464.232,609.133 464.232,685.483"/>
<polyline class="Stem" fill="none" stroke="#000000" stroke-width="3.25" stroke-linejoin="bevel" points="2397.38,596.633 2397.38,679.233"/>
<polyline class="Stem" fill="none" stroke="#000000" stroke-width="3.25" stroke-linejoin="bevel" points="1312.76,534.133 1312.76,616.733"/>
<polyline class="Stem" fill="none" stroke="#000000" stroke-width="3.25" stroke-linejoin="bevel" points="2676.72,621.633 2676.72,691.733"/>
<polyline class="Stem" fill="none" stroke="#000000" stroke-width="3.25" stroke-linejoin="bevel" points="908.706,571.633 908.706,654.233"/>
<polyline class="Stem" fill="none" stroke="#000000" stroke-width="3.25" stroke-linejoin="bevel" points="1188.04,546.633 1188.04,629.233"/>
<polyline class="Stem" fill="none" stroke="#000000" stroke-width="3.25" stroke-linejoin="bevel" points="629.368,596.633 629.368,679.233"/>
<polyline class="Stem" fill="none" stroke="#000000" stroke-width="3.25" stroke-linejoin="bevel" points="1033.42,559.133 1033.42,641.733"/>
<path class="Note" d="M2557.8,614.873 C2559.69,614.873 2563.64,612.92 2569.67,609.014 C2575.7,605.108 2579.24,602.488 2580.32,601.155 C2581.39,599.821 2581.93,598.634 2581.93,597.592 C2581.93,596.55 2581.5,595.623 2580.65,594.811 C2579.8,593.998 2578.83,593.592 2577.72,593.592 C2575.78,593.592 2571.79,595.561 2565.76,599.498 C2559.74,603.436 2556.2,606.056 2555.16,607.358 C2554.12,608.66 2553.6,609.832 2553.6,610.873 C2553.6,611.915 2554.01,612.842 2554.83,613.655 C2555.64,614.467 2556.64,614.873 2557.8,614.873 M2576.76,590.467 C2582.35,590.467 2585.15,592.873 2585.15,597.686 C2585.15,600.03 2584.46,602.748 2583.1,605.842 C2581.73,608.936 2579.91,611.295 2577.63,612.92 C2572.62,616.306 2566.34,617.998 2558.79,617.998 C2553.18,617.998 2550.38,615.592 2550.38,610.78 C2550.38,608.634 2551.05,605.964 2552.38,602.772 C2553.71,599.579 2555.55,597.17 2557.9,595.545 C2562.92,592.16 2569.2,590.467 2576.76,590.467"/>
<path class="Note" d="M2403.18,602.373 C2405.07,602.373 2409.02,600.42 2415.05,596.514 C2421.07,592.608 2424.62,589.988 2425.7,588.655 C2426.77,587.321 2427.31,586.134 2427.31,585.092 C2427.31,584.05 2426.88,583.123 2426.03,582.311 C2425.18,581.498 2424.21,581.092 2423.1,581.092 C2421.16,581.092 2417.17,583.061 2411.14,586.998 C2405.12,590.936 2401.58,593.556 2400.54,594.858 C2399.5,596.16 2398.98,597.332 2398.98,598.373 C2398.98,599.415 2399.39,600.342 2400.21,601.155 C2401.02,601.967 2402.02,602.373 2403.18,602.373 M2422.13,577.967 C2427.73,577.967 2430.53,580.373 2430.53,585.186 C2430.53,587.53 2429.84,590.248 2428.48,593.342 C2427.11,596.436 2425.29,598.795 2423.01,600.42 C2418,603.806 2411.72,605.498 2404.17,605.498 C2398.56,605.498 2395.76,603.092 2395.76,598.28 C2395.76,596.134 2396.43,593.464 2397.76,590.272 C2399.09,587.079 2400.93,584.67 2403.28,583.045 C2408.3,579.66 2414.58,577.967 2422.13,577.967"/>
<path class="Note" d="M759.882,589.873 C761.768,589.873 765.724,587.92 771.75,584.014 C777.776,580.108 781.325,577.488 782.398,576.155 C783.471,574.821 784.007,573.634 784.007,572.592 C784.007,571.55 783.583,570.623 782.734,569.811 C781.885,568.998 780.908,568.592 779.804,568.592 C777.856,568.592 773.869,570.561 767.843,574.498 C761.817,578.436 758.283,581.056 757.242,582.358 C756.2,583.66 755.679,584.832 755.679,585.873 C755.679,586.915 756.088,587.842 756.906,588.655 C757.724,589.467 758.716,589.873 759.882,589.873 M778.836,565.467 C784.429,565.467 787.226,567.873 787.226,572.686 C787.226,575.03 786.544,577.748 785.179,580.842 C783.815,583.936 781.992,586.295 779.711,587.92 C774.7,591.306 768.419,592.998 760.867,592.998 C755.263,592.998 752.461,590.592 752.461,585.78 C752.461,583.634 753.127,580.964 754.461,577.772 C755.794,574.579 757.632,572.17 759.976,570.545 C764.997,567.16 771.283,565.467 778.836,565.467"/>
<path class="Note" d="M2278.46,589.873 C2280.35,589.873 2284.3,587.92 2290.33,584.014 C2296.36,580.108 2299.91,577.488 2300.98,576.155 C2302.05,574.821 2302.59,573.634 2302.59,572.592 C2302.59,571.55 2302.16,570.623 2301.32,569.811 C2300.47,568.998 2299.49,568.592 2298.39,568.592 C2296.44,568.592 2292.45,570.561 2286.42,574.498 C2280.4,578.436 2276.86,581.056 2275.82,582.358 C2274.78,583.66 2274.26,584.832 2274.26,585.873 C2274.26,586.915 2274.67,587.842 2275.49,588.655 C2276.3,589.467 2277.3,589.873 2278.46,589.873 M2297.42,565.467 C2303.01,565.467 2305.81,567.873 2305.81,572.686 C2305.81,575.03 2305.13,577.748 2303.76,580.842 C2302.4,583.936 2300.57,586.295 2298.29,587.92 C2293.28,591.306 2287,592.998 2279.45,592.998 C2273.84,592.998 2271.04,590.592 2271.04,585.78 C2271.04,583.634 2271.71,580.964 2273.04,577.772 C2274.38,574.579 2276.21,572.17 2278.56,570.545 C2283.58,567.16 2289.86,565.467 2297.42,565.467"/>
<path class="Note" d="M635.164,602.373 C637.05,602.373 641.006,600.42 647.032,596.514 C653.058,592.608 656.607,589.988 657.68,588.655 C658.753,587.321 659.289,586.134 659.289,585.092 C659.289,584.05 658.865,583.123 658.016,582.311 C657.167,581.498 656.191,581.092 655.086,581.092 C653.138,581.092 649.151,583.061 643.125,586.998 C637.099,590.936 633.566,593.556 632.524,594.858 C631.482,596.16 630.961,597.332 630.961,598.373 C630.961,599.415 631.37,600.342 632.188,601.155 C633.006,601.967 633.998,602.373 635.164,602.373 M654.118,577.967 C659.711,577.967 662.508,580.373 662.508,585.186 C662.508,587.53 661.826,590.248 660.461,593.342 C659.097,596.436 657.274,598.795 654.993,600.42 C649.982,603.806 643.701,605.498 636.149,605.498 C630.545,605.498 627.743,603.092 627.743,598.28 C627.743,596.134 628.409,593.464 629.743,590.272 C631.076,587.079 632.914,584.67 635.258,583.045 C640.279,579.66 646.566,577.967 654.118,577.967"/>
<path class="Note" d="M2113.33,577.373 C2115.21,577.373 2119.17,575.42 2125.2,571.514 C2131.22,567.608 2134.77,564.988 2135.84,563.655 C2136.92,562.321 2137.45,561.134 2137.45,560.092 C2137.45,559.05 2137.03,558.123 2136.18,557.311 C2135.33,556.498 2134.35,556.092 2133.25,556.092 C2131.3,556.092 2127.31,558.061 2121.29,561.998 C2115.26,565.936 2111.73,568.556 2110.69,569.858 C2109.65,571.16 2109.12,572.332 2109.12,573.373 C2109.12,574.415 2109.53,575.342 2110.35,576.155 C2111.17,576.967 2112.16,577.373 2113.33,577.373 M2132.28,552.967 C2137.87,552.967 2140.67,555.373 2140.67,560.186 C2140.67,562.53 2139.99,565.248 2138.62,568.342 C2137.26,571.436 2135.44,573.795 2133.16,575.42 C2128.15,578.806 2121.86,580.498 2114.31,580.498 C2108.71,580.498 2105.91,578.092 2105.91,573.28 C2105.91,571.134 2106.57,568.464 2107.91,565.272 C2109.24,562.079 2111.08,559.67 2113.42,558.045 C2118.44,554.66 2124.73,552.967 2132.28,552.967"/>
<path class="Note" d="M914.503,577.373 C916.388,577.373 920.344,575.42 926.37,571.514 C932.396,567.608 935.945,564.988 937.018,563.655 C938.091,562.321 938.628,561.134 938.628,560.092 C938.628,559.05 938.203,558.123 937.354,557.311 C936.505,556.498 935.529,556.092 934.425,556.092 C932.477,556.092 928.49,558.061 922.464,561.998 C916.438,565.936 912.904,568.556 911.862,569.858 C910.82,571.16 910.3,572.332 910.3,573.373 C910.3,574.415 910.708,575.342 911.526,576.155 C912.344,576.967 913.336,577.373 914.503,577.373 M933.456,552.967 C939.05,552.967 941.846,555.373 941.846,560.186 C941.846,562.53 941.164,565.248 939.8,568.342 C938.435,571.436 936.612,573.795 934.331,575.42 C929.32,578.806 923.039,580.498 915.487,580.498 C909.883,580.498 907.081,578.092 907.081,573.28 C907.081,571.134 907.747,568.464 909.081,565.272 C910.414,562.079 912.253,559.67 914.596,558.045 C919.617,554.66 925.904,552.967 933.456,552.967"/>
<path class="Note" d="M1988.61,564.873 C1990.5,564.873 1994.45,562.92 2000.48,559.014 C2006.5,555.108 2010.05,552.488 2011.13,551.154 C2012.2,549.821 2012.73,548.634 2012.73,547.592 C2012.73,546.55 2012.31,545.623 2011.46,544.811 C2010.61,543.998 2009.64,543.592 2008.53,543.592 C2006.58,543.592 2002.6,545.561 1996.57,549.498 C1990.54,553.436 1987.01,556.056 1985.97,557.358 C1984.93,558.66 1984.41,559.832 1984.41,560.873 C1984.41,561.915 1984.82,562.842 1985.63,563.654 C1986.45,564.467 1987.44,564.873 1988.61,564.873 M2007.56,540.467 C2013.16,540.467 2015.95,542.873 2015.95,547.686 C2015.95,550.029 2015.27,552.748 2013.91,555.842 C2012.54,558.936 2010.72,561.295 2008.44,562.92 C2003.43,566.306 1997.15,567.998 1989.59,567.998 C1983.99,567.998 1981.19,565.592 1981.19,560.779 C1981.19,558.634 1981.85,555.964 1983.19,552.772 C1984.52,549.579 1986.36,547.17 1988.7,545.545 C1993.72,542.16 2000.01,540.467 2007.56,540.467"/>
<path class="Note" d="M345.311,627.373 C347.196,627.373 351.152,625.42 357.178,621.514 C363.204,617.608 366.753,614.988 367.826,613.655 C368.899,612.321 369.436,611.134 369.436,610.092 C369.436,609.05 369.011,608.123 368.162,607.311 C367.313,606.498 366.337,606.092 365.232,606.092 C363.285,606.092 359.298,608.061 353.272,611.998 C347.246,615.936 343.712,618.556 342.67,619.858 C341.628,621.16 341.107,622.332 341.107,623.373 C341.107,624.415 341.516,625.342 342.334,626.155 C343.152,626.967 344.144,627.373 345.311,627.373 M364.264,602.967 C369.857,602.967 372.654,605.373 372.654,610.186 C372.654,612.53 371.972,615.248 370.607,618.342 C369.243,621.436 367.42,623.795 365.139,625.42 C360.128,628.806 353.847,630.498 346.295,630.498 C340.691,630.498 337.889,628.092 337.889,623.28 C337.889,621.134 338.555,618.464 339.889,615.272 C341.222,612.079 343.061,609.67 345.404,608.045 C350.425,604.66 356.712,602.967 364.264,602.967"/>
<path class="Note" d="M1039.22,564.873 C1041.11,564.873 1045.06,562.92 1051.09,559.014 C1057.11,555.108 1060.66,552.488 1061.74,551.154 C1062.81,549.821 1063.35,548.634 1063.35,547.592 C1063.35,546.55 1062.92,545.623 1062.07,544.811 C1061.22,543.998 1060.25,543.592 1059.14,543.592 C1057.19,543.592 1053.21,545.561 1047.18,549.498 C1041.16,553.436 1037.62,556.056 1036.58,557.358 C1035.54,558.66 1035.02,559.832 1035.02,560.873 C1035.02,561.915 1035.43,562.842 1036.24,563.654 C1037.06,564.467 1038.05,564.873 1039.22,564.873 M1058.17,540.467 C1063.77,540.467 1066.56,542.873 1066.56,547.686 C1066.56,550.029 1065.88,552.748 1064.52,555.842 C1063.15,558.936 1061.33,561.295 1059.05,562.92 C1054.04,566.306 1047.76,567.998 1040.2,567.998 C1034.6,567.998 1031.8,565.592 1031.8,560.779 C1031.8,558.634 1032.47,555.964 1033.8,552.772 C1035.13,549.579 1036.97,547.17 1039.31,545.545 C1044.34,542.16 1050.62,540.467 1058.17,540.467"/>
<path class="Note" d="M1833.99,552.373 C1835.88,552.373 1839.83,550.42 1845.86,546.514 C1851.88,542.608 1855.43,539.988 1856.51,538.654 C1857.58,537.321 1858.11,536.134 1858.11,535.092 C1858.11,534.05 1857.69,533.123 1856.84,532.311 C1855.99,531.498 1855.02,531.092 1853.91,531.092 C1851.96,531.092 1847.98,533.061 1841.95,536.998 C1835.92,540.936 1832.39,543.556 1831.35,544.858 C1830.31,546.16 1829.79,547.332 1829.79,548.373 C1829.79,549.415 1830.2,550.342 1831.01,551.154 C1831.83,551.967 1832.82,552.373 1833.99,552.373 M1852.94,527.967 C1858.54,527.967 1861.33,530.373 1861.33,535.186 C1861.33,537.529 1860.65,540.248 1859.29,543.342 C1857.92,546.436 1856.1,548.795 1853.82,550.42 C1848.81,553.806 1842.53,555.498 1834.97,555.498 C1829.37,555.498 1826.57,553.092 1826.57,548.279 C1826.57,546.134 1827.23,543.464 1828.57,540.272 C1829.9,537.079 1831.74,534.67 1834.08,533.045 C1839.1,529.66 1845.39,527.967 1852.94,527.967"/>
<path class="Note" d="M2682.52,627.373 C2684.41,627.373 2688.36,625.42 2694.39,621.514 C2700.41,617.608 2703.96,614.988 2705.04,613.655 C2706.11,612.321 2706.64,611.134 2706.64,610.092 C2706.64,609.05 2706.22,608.123 2705.37,607.311 C2704.52,606.498 2703.55,606.092 2702.44,606.092 C2700.49,606.092 2696.51,608.061 2690.48,611.998 C2684.45,615.936 2680.92,618.556 2679.88,619.858 C2678.84,621.16 2678.32,622.332 2678.32,623.373 C2678.32,624.415 2678.73,625.342 2679.54,626.155 C2680.36,626.967 2681.35,627.373 2682.52,627.373 M2701.47,602.967 C2707.07,602.967 2709.86,605.373 2709.86,610.186 C2709.86,612.53 2709.18,615.248 2707.82,618.342 C2706.45,621.436 2704.63,623.795 2702.35,625.42 C2697.34,628.806 2691.06,630.498 2683.5,630.498 C2677.9,630.498 2675.1,628.092 2675.1,623.28 C2675.1,621.134 2675.76,618.464 2677.1,615.272 C2678.43,612.079 2680.27,609.67 2682.61,608.045 C2687.63,604.66 2693.92,602.967 2701.47,602.967"/>
<path class="Note" d="M1709.27,539.873 C1711.16,539.873 1715.11,537.92 1721.14,534.014 C1727.16,530.108 1730.71,527.488 1731.79,526.154 C1732.86,524.821 1733.4,523.634 1733.4,522.592 C1733.4,521.55 1732.97,520.623 1732.12,519.811 C1731.27,518.998 1730.3,518.592 1729.19,518.592 C1727.25,518.592 1723.26,520.561 1717.23,524.498 C1711.21,528.436 1707.67,531.056 1706.63,532.358 C1705.59,533.66 1705.07,534.832 1705.07,535.873 C1705.07,536.915 1705.48,537.842 1706.3,538.654 C1707.11,539.467 1708.11,539.873 1709.27,539.873 M1728.22,515.467 C1733.82,515.467 1736.62,517.873 1736.62,522.686 C1736.62,525.029 1735.93,527.748 1734.57,530.842 C1733.2,533.936 1731.38,536.295 1729.1,537.92 C1724.09,541.306 1717.81,542.998 1710.26,542.998 C1704.65,542.998 1701.85,540.592 1701.85,535.779 C1701.85,533.634 1702.52,530.964 1703.85,527.772 C1705.18,524.579 1707.02,522.17 1709.37,520.545 C1714.39,517.16 1720.67,515.467 1728.22,515.467"/>
<path class="Note" d="M1193.84,552.373 C1195.73,552.373 1199.68,550.42 1205.71,546.514 C1211.73,542.608 1215.28,539.988 1216.36,538.654 C1217.43,537.321 1217.97,536.134 1217.97,535.092 C1217.97,534.05 1217.54,533.123 1216.69,532.311 C1215.84,531.498 1214.87,531.092 1213.76,531.092 C1211.81,531.092 1207.83,533.061 1201.8,536.998 C1195.78,540.936 1192.24,543.556 1191.2,544.858 C1190.16,546.16 1189.64,547.332 1189.64,548.373 C1189.64,549.415 1190.05,550.342 1190.86,551.154 C1191.68,551.967 1192.67,552.373 1193.84,552.373 M1212.79,527.967 C1218.39,527.967 1221.18,530.373 1221.18,535.186 C1221.18,537.529 1220.5,540.248 1219.14,543.342 C1217.77,546.436 1215.95,548.795 1213.67,550.42 C1208.66,553.806 1202.38,555.498 1194.83,555.498 C1189.22,555.498 1186.42,553.092 1186.42,548.279 C1186.42,546.134 1187.09,543.464 1188.42,540.272 C1189.75,537.079 1191.59,534.67 1193.93,533.045 C1198.96,529.66 1205.24,527.967 1212.79,527.967"/>
<path class="Note" d="M1318.56,539.873 C1320.44,539.873 1324.4,537.92 1330.43,534.014 C1336.45,530.108 1340,527.488 1341.07,526.154 C1342.15,524.821 1342.68,523.634 1342.68,522.592 C1342.68,521.55 1342.26,520.623 1341.41,519.811 C1340.56,518.998 1339.58,518.592 1338.48,518.592 C1336.53,518.592 1332.55,520.561 1326.52,524.498 C1320.49,528.436 1316.96,531.056 1315.92,532.358 C1314.88,533.66 1314.36,534.832 1314.36,535.873 C1314.36,536.915 1314.76,537.842 1315.58,538.654 C1316.4,539.467 1317.39,539.873 1318.56,539.873 M1337.51,515.467 C1343.11,515.467 1345.9,517.873 1345.9,522.686 C1345.9,525.029 1345.22,527.748 1343.86,530.842 C1342.49,533.936 1340.67,536.295 1338.39,537.92 C1333.38,541.306 1327.1,542.998 1319.54,542.998 C1313.94,542.998 1311.14,540.592 1311.14,535.779 C1311.14,533.634 1311.8,530.964 1313.14,527.772 C1314.47,524.579 1316.31,522.17 1318.65,520.545 C1323.67,517.16 1329.96,515.467 1337.51,515.467"/>
<path class="Note" d="M470.029,614.873 C471.914,614.873 475.87,612.92 481.896,609.014 C487.922,605.108 491.471,602.488 492.544,601.155 C493.617,599.821 494.154,598.634 494.154,597.592 C494.154,596.55 493.729,595.623 492.88,594.811 C492.031,593.998 491.055,593.592 489.95,593.592 C488.002,593.592 484.016,595.561 477.989,599.498 C471.963,603.436 468.43,606.056 467.388,607.358 C466.346,608.66 465.825,609.832 465.825,610.873 C465.825,611.915 466.234,612.842 467.052,613.655 C467.87,614.467 468.862,614.873 470.029,614.873 M488.982,590.467 C494.575,590.467 497.372,592.873 497.372,597.686 C497.372,600.03 496.69,602.748 495.325,605.842 C493.961,608.936 492.138,611.295 489.857,612.92 C484.846,616.306 478.565,617.998 471.013,617.998 C465.409,617.998 462.607,615.592 462.607,610.78 C462.607,608.634 463.273,605.964 464.607,602.772 C465.94,599.579 467.779,597.17 470.122,595.545 C475.143,592.16 481.43,590.467 488.982,590.467"/>
<path class="Clef" d="M203.623,673.858 L203.623,671.717 C203.56,670.613 203.399,668.889 203.139,666.545 C199.889,667.066 196.993,667.326 194.451,667.326 C185.337,667.326 177.605,663.727 171.256,656.53 C164.907,649.332 161.732,640.754 161.732,630.795 C161.732,628.129 162.253,624.923 163.295,621.178 C164.337,617.433 165.297,614.925 166.178,613.655 C167.058,612.384 168.378,610.155 170.139,606.967 C170.659,605.988 172.352,603.837 175.217,600.514 C175.738,599.806 176.193,599.222 176.584,598.764 C176.975,598.306 177.607,597.49 178.482,596.319 C179.357,595.147 180.3,594.056 181.31,593.045 C182.321,592.035 183.217,591.058 183.998,590.115 C184.779,589.173 185.498,588.379 186.154,587.733 C183.81,579.983 182.378,574.024 181.857,569.858 C181.337,565.691 181.076,560.579 181.076,554.522 C181.076,548.464 182.378,542.962 184.982,538.014 C187.514,532.879 191.06,528.681 195.623,525.42 C195.883,525.222 196.225,525.123 196.646,525.123 C197.068,525.123 197.378,525.222 197.576,525.42 C201.087,529.649 204.128,535.149 206.701,541.92 C209.274,548.691 210.56,555.024 210.56,560.92 C210.56,566.816 209.066,572.498 206.076,577.967 C202.691,583.759 198.326,589.748 192.982,595.936 C194.347,600.227 196.17,606.962 198.451,616.139 L199.045,616.139 C199.305,616.076 199.529,616.045 199.717,616.045 C207.081,616.045 213.089,618.634 217.74,623.811 C222.391,628.988 224.717,634.962 224.717,641.733 C224.717,650.129 221.238,656.899 214.279,662.045 C212.258,663.545 209.878,664.717 207.139,665.561 C207.472,669.79 207.639,672.605 207.639,674.006 C207.639,675.407 207.571,677.899 207.435,681.483 C207.373,687.597 205.29,692.837 201.185,697.201 C197.081,701.566 192.394,703.748 187.123,703.748 C181.852,703.748 177.36,701.876 173.646,698.131 C169.933,694.386 168.076,689.847 168.076,684.514 C168.076,681.712 169.154,679.332 171.31,677.373 C173.519,675.425 176.006,674.451 178.771,674.451 C181.537,674.451 183.8,675.462 185.56,677.483 C187.383,679.368 188.295,681.644 188.295,684.311 C188.295,686.977 187.383,689.222 185.56,691.045 C183.738,692.868 181.555,693.78 179.014,693.78 C177.972,693.78 176.967,693.587 175.998,693.201 C178.863,697.431 182.54,699.545 187.029,699.545 C191.519,699.545 195.36,697.691 198.553,693.983 C201.745,690.274 203.342,685.91 203.342,680.889 L203.623,673.858 M206.748,661.561 C210.133,660.321 212.821,658.123 214.81,654.967 C216.8,651.811 217.795,648.67 217.795,645.545 C217.795,640.92 216.199,636.785 213.006,633.139 C209.813,629.493 205.774,627.441 200.889,626.983 C203.691,640.722 205.644,652.248 206.748,661.561 M168.967,638.998 C168.967,645.446 171.537,651.079 176.678,655.897 C181.818,660.714 187.842,663.123 194.748,663.123 C197.477,663.123 200.144,662.925 202.748,662.53 C201.706,652.634 199.654,640.785 196.592,626.983 C192.758,627.379 189.782,628.699 187.662,630.944 C185.542,633.188 184.482,635.743 184.482,638.608 C184.482,643.556 187.123,647.561 192.404,650.623 C192.852,650.884 193.076,651.324 193.076,651.944 C193.076,652.563 192.865,653.1 192.443,653.553 C192.021,654.006 191.649,654.233 191.326,654.233 C191.003,654.233 190.581,654.17 190.06,654.045 C182.435,649.879 178.623,643.592 178.623,635.186 C178.623,631.217 180.024,627.41 182.826,623.764 C185.753,620.118 189.56,617.774 194.248,616.733 C192.425,609.441 190.93,603.743 189.764,599.639 C180.847,609.67 175.31,617.092 173.154,621.905 C170.363,628.155 168.967,633.852 168.967,638.998 M201.576,539.686 C196.691,542.092 192.834,545.574 190.006,550.131 C187.178,554.688 185.764,559.472 185.764,564.483 C185.764,569.493 186.935,575.972 189.279,583.92 C193.967,578.254 197.514,572.946 199.92,567.998 C202.326,563.05 203.529,558.152 203.529,553.303 C203.529,548.454 202.878,543.915 201.576,539.686"/>
<path class="TimeSig" d="M273.021,567.912 C274.516,567.912 275.949,567.686 277.318,567.233 C278.688,566.78 279.665,566.553 280.248,566.553 C280.831,566.553 281.222,566.907 281.42,567.615 C281.42,567.688 281.352,567.886 281.217,568.209 L252.811,601.225 L269.498,601.225 L269.498,588.131 C269.498,586.506 270.446,585.334 272.342,584.615 C274.29,583.897 276.503,581.001 278.982,575.928 C279.17,575.532 279.462,575.334 279.857,575.334 C280.639,575.334 281.092,575.793 281.217,576.709 L281.217,601.225 L288.357,601.225 C289.264,601.225 289.751,601.712 289.818,602.686 C289.886,603.66 289.399,604.147 288.357,604.147 L281.217,604.147 L281.217,604.928 C281.217,607.532 281.868,609.746 283.17,611.569 C284.67,613.391 286.43,614.303 288.451,614.303 C289.232,614.303 289.623,614.694 289.623,615.475 C289.623,616.256 289.087,616.647 288.014,616.647 C286.941,616.647 284.938,616.436 282.006,616.014 C279.074,615.592 276.811,615.381 275.217,615.381 C273.623,615.381 271.41,615.592 268.576,616.014 C265.743,616.436 263.613,616.647 262.186,616.647 C261.404,616.647 261.014,616.256 261.014,615.475 C261.014,614.694 261.404,614.303 262.186,614.303 C264.196,614.303 265.951,613.391 267.451,611.569 C268.816,609.683 269.498,607.47 269.498,604.928 L269.498,604.147 L252.811,604.147 C251.956,604.147 251.219,603.92 250.6,603.467 C249.98,603.014 249.67,602.592 249.67,602.201 C249.67,601.811 250.485,600.639 252.115,598.686 C253.745,596.733 256.074,592.972 259.1,587.405 C262.126,581.837 263.639,575.438 263.639,568.209 C263.639,567.168 264.097,566.647 265.014,566.647 C265.212,566.647 265.521,566.712 265.943,566.842 C266.365,566.972 267.277,567.183 268.678,567.475 C270.079,567.766 271.527,567.912 273.021,567.912"/>
<path class="TimeSig" d="M273.021,618.084 C274.516,618.084 275.949,617.858 277.318,617.405 C278.688,616.951 279.665,616.725 280.248,616.725 C280.831,616.725 281.222,617.079 281.42,617.787 C281.42,617.86 281.352,618.058 281.217,618.381 L252.811,651.397 L269.498,651.397 L269.498,638.303 C269.498,636.678 270.446,635.506 272.342,634.787 C274.29,634.069 276.503,631.173 278.982,626.1 C279.17,625.704 279.462,625.506 279.857,625.506 C280.639,625.506 281.092,625.964 281.217,626.881 L281.217,651.397 L288.357,651.397 C289.264,651.397 289.751,651.884 289.818,652.858 C289.886,653.832 289.399,654.319 288.357,654.319 L281.217,654.319 L281.217,655.1 C281.217,657.704 281.868,659.918 283.17,661.74 C284.67,663.563 286.43,664.475 288.451,664.475 C289.232,664.475 289.623,664.865 289.623,665.647 C289.623,666.428 289.087,666.819 288.014,666.819 C286.941,666.819 284.938,666.608 282.006,666.186 C279.074,665.764 276.811,665.553 275.217,665.553 C273.623,665.553 271.41,665.764 268.576,666.186 C265.743,666.608 263.613,666.819 262.186,666.819 C261.404,666.819 261.014,666.428 261.014,665.647 C261.014,664.865 261.404,664.475 262.186,664.475 C264.196,664.475 265.951,663.563 267.451,661.74 C268.816,659.855 269.498,657.642 269.498,655.1 L269.498,654.319 L252.811,654.319 C251.956,654.319 251.219,654.092 250.6,653.639 C249.98,653.186 249.67,652.764 249.67,652.373 C249.67,651.983 250.485,650.811 252.115,648.858 C253.745,646.905 256.074,643.144 259.1,637.576 C262.126,632.009 263.639,625.61 263.639,618.381 C263.639,617.339 264.097,616.819 265.014,616.819 C265.212,616.819 265.521,616.884 265.943,617.014 C266.365,617.144 267.277,617.355 268.678,617.647 C270.079,617.938 271.527,618.084 273.021,618.084"/>
<path class="Rest" d="M1564.58,607.358 L1529.03,607.358 C1528.37,607.358 1528.05,607.035 1528.05,606.389 L1528.05,592.717 C1528.05,592.061 1528.37,591.733 1529.03,591.733 L1564.58,591.733 C1565.22,591.733 1565.55,592.061 1565.55,592.717 L1565.55,606.389 C1565.55,607.035 1565.22,607.358 1564.58,607.358"/>
<path class="Lyrics" d="M2406.24,742.92 C2406.24,740.962 2405.81,739.225 2404.96,737.709 C2404.1,736.194 2403.05,735.019 2401.82,734.186 C2400.59,733.353 2399.22,732.668 2397.7,732.131 C2396.18,731.595 2394.86,731.243 2393.74,731.076 C2392.62,730.91 2391.63,730.826 2390.79,730.826 C2390.35,730.826 2390.13,730.681 2390.13,730.389 C2390.13,730.274 2390.16,730.186 2390.2,730.123 L2396.18,717.326 L2407.68,717.326 C2408.27,717.326 2408.73,717.235 2409.08,717.053 C2409.43,716.871 2409.81,716.488 2410.21,715.905 L2410.71,716.28 L2408.62,720.889 C2408.47,721.191 2408.05,721.342 2407.35,721.342 L2396.57,721.342 L2394.26,726.061 C2399.61,727.019 2403.59,728.582 2406.2,730.748 C2408.8,732.915 2410.1,736.087 2410.1,740.264 C2410.1,742.451 2409.77,744.397 2409.09,746.1 C2408.41,747.803 2407.55,749.175 2406.5,750.217 C2405.46,751.259 2404.24,752.113 2402.87,752.78 C2401.49,753.446 2400.17,753.899 2398.91,754.139 C2397.64,754.379 2396.37,754.498 2395.09,754.498 C2393.04,754.498 2391.41,754.196 2390.2,753.592 C2388.99,752.988 2388.38,752.155 2388.38,751.092 C2388.38,749.738 2389.17,749.061 2390.74,749.061 C2391.78,749.061 2393.11,749.621 2394.74,750.741 C2396.37,751.86 2397.66,752.42 2398.6,752.42 C2400.77,752.42 2402.59,751.504 2404.05,749.67 C2405.51,747.837 2406.24,745.587 2406.24,742.92 M2425.88,737.076 C2425.88,736.712 2426.13,735.733 2426.63,734.139 C2427.12,732.545 2427.37,730.701 2427.37,728.608 C2425.94,729.493 2424.77,730.451 2423.85,731.483 C2422.94,732.514 2422.25,733.264 2421.79,733.733 C2421.33,734.201 2420.7,734.436 2419.9,734.436 C2418.58,734.436 2417.92,733.785 2417.92,732.483 C2417.92,731.847 2418.15,731.373 2418.63,731.061 C2419.1,730.748 2419.69,730.527 2420.38,730.397 C2421.08,730.267 2422.06,729.972 2423.33,729.514 C2424.6,729.056 2425.82,728.483 2426.99,727.795 C2425.56,727.066 2424,726.501 2422.34,726.1 C2420.67,725.699 2419.52,725.334 2418.88,725.006 C2418.24,724.678 2417.92,724.076 2417.92,723.201 C2417.92,722.649 2418.1,722.183 2418.46,721.803 C2418.83,721.423 2419.27,721.233 2419.79,721.233 C2420.37,721.233 2420.9,721.397 2421.35,721.725 C2421.81,722.053 2422.21,722.454 2422.53,722.928 C2422.86,723.402 2423.46,724.022 2424.32,724.787 C2425.19,725.553 2426.2,726.28 2427.37,726.967 C2427.37,724.884 2427.14,723.035 2426.68,721.42 C2426.22,719.806 2425.99,718.816 2425.99,718.451 C2425.99,717.899 2426.18,717.441 2426.55,717.076 C2426.92,716.712 2427.38,716.53 2427.92,716.53 C2428.47,716.53 2428.94,716.722 2429.32,717.108 C2429.71,717.493 2429.9,717.978 2429.9,718.561 C2429.9,719.04 2429.65,720.04 2429.16,721.561 C2428.66,723.082 2428.42,724.92 2428.42,727.076 C2429.7,726.274 2430.82,725.355 2431.8,724.319 C2432.77,723.282 2433.53,722.491 2434.06,721.944 C2434.59,721.397 2435.18,721.123 2435.84,721.123 C2436.43,721.123 2436.91,721.324 2437.28,721.725 C2437.64,722.126 2437.82,722.634 2437.82,723.248 C2437.82,724.019 2437.46,724.569 2436.72,724.897 C2435.99,725.225 2434.81,725.616 2433.2,726.069 C2431.58,726.522 2430.13,727.113 2428.85,727.842 C2429.96,728.54 2431.13,729.097 2432.38,729.514 C2433.62,729.931 2434.6,730.194 2435.31,730.303 C2436.03,730.412 2436.63,730.634 2437.13,730.967 C2437.62,731.3 2437.87,731.785 2437.87,732.42 C2437.87,733.056 2437.7,733.558 2437.35,733.928 C2437.01,734.298 2436.54,734.483 2435.95,734.483 C2435.18,734.483 2434.54,734.251 2434.03,733.787 C2433.52,733.324 2432.77,732.563 2431.8,731.506 C2430.82,730.449 2429.7,729.483 2428.42,728.608 C2428.42,730.701 2428.67,732.563 2429.19,734.194 C2429.71,735.824 2429.96,736.733 2429.96,736.92 C2429.96,737.504 2429.75,738.017 2429.33,738.459 C2428.91,738.902 2428.4,739.123 2427.81,739.123 C2427.3,739.123 2426.85,738.92 2426.46,738.514 C2426.08,738.108 2425.88,737.629 2425.88,737.076"/>
<path class="Lyrics" d="M2658.6,739.764 L2672.13,739.764 L2672.13,743.061 L2658.6,743.061 L2658.6,739.764 M2679.22,749.436 C2680.07,749.436 2681.32,749.933 2682.99,750.928 C2684.66,751.923 2686.11,752.42 2687.36,752.42 C2689.38,752.42 2691.09,751.636 2692.48,750.069 C2693.87,748.501 2694.57,746.571 2694.57,744.28 C2694.57,742.853 2694.32,741.592 2693.82,740.498 C2693.33,739.405 2692.7,738.558 2691.93,737.959 C2691.16,737.36 2690.24,736.871 2689.18,736.491 C2688.11,736.11 2687.12,735.866 2686.18,735.756 C2685.25,735.647 2684.25,735.592 2683.18,735.592 L2683.18,734.873 C2684.43,734.436 2685.5,734.006 2686.4,733.584 C2687.3,733.162 2688.25,732.592 2689.24,731.873 C2690.23,731.155 2690.99,730.282 2691.52,729.256 C2692.05,728.23 2692.32,727.061 2692.32,725.748 C2692.32,724.019 2691.76,722.605 2690.64,721.506 C2689.52,720.407 2688.06,719.858 2686.27,719.858 C2684.54,719.858 2683.03,720.324 2681.72,721.256 C2680.42,722.188 2679.2,723.665 2678.07,725.686 L2677.24,725.467 C2678.2,722.863 2679.49,720.728 2681.12,719.061 C2682.75,717.394 2685.07,716.561 2688.08,716.561 C2690.61,716.561 2692.68,717.256 2694.27,718.647 C2695.86,720.037 2696.66,721.853 2696.66,724.092 C2696.66,725.592 2696.28,726.91 2695.5,728.045 C2694.73,729.181 2693.39,730.394 2691.49,731.686 C2693.69,732.634 2695.41,733.847 2696.65,735.326 C2697.9,736.806 2698.52,738.915 2698.52,741.655 C2698.52,745.55 2697.08,748.665 2694.21,750.998 C2691.33,753.332 2687.71,754.498 2683.35,754.498 C2681.44,754.498 2679.93,754.214 2678.81,753.647 C2677.69,753.079 2677.13,752.321 2677.13,751.373 C2677.13,750.78 2677.32,750.308 2677.71,749.959 C2678.09,749.61 2678.6,749.436 2679.22,749.436 M2714.04,737.076 C2714.04,736.712 2714.28,735.733 2714.78,734.139 C2715.27,732.545 2715.52,730.701 2715.52,728.608 C2714.09,729.493 2712.92,730.451 2712,731.483 C2711.09,732.514 2710.4,733.264 2709.94,733.733 C2709.48,734.201 2708.85,734.436 2708.05,734.436 C2706.73,734.436 2706.07,733.785 2706.07,732.483 C2706.07,731.847 2706.3,731.373 2706.78,731.061 C2707.25,730.748 2707.84,730.527 2708.54,730.397 C2709.23,730.267 2710.22,729.972 2711.48,729.514 C2712.75,729.056 2713.97,728.483 2715.14,727.795 C2713.71,727.066 2712.16,726.501 2710.49,726.1 C2708.82,725.699 2707.67,725.334 2707.03,725.006 C2706.39,724.678 2706.07,724.076 2706.07,723.201 C2706.07,722.649 2706.25,722.183 2706.61,721.803 C2706.98,721.423 2707.42,721.233 2707.94,721.233 C2708.53,721.233 2709.05,721.397 2709.5,721.725 C2709.96,722.053 2710.36,722.454 2710.68,722.928 C2711.01,723.402 2711.61,724.022 2712.47,724.787 C2713.34,725.553 2714.35,726.28 2715.52,726.967 C2715.52,724.884 2715.29,723.035 2714.83,721.42 C2714.37,719.806 2714.14,718.816 2714.14,718.451 C2714.14,717.899 2714.33,717.441 2714.7,717.076 C2715.07,716.712 2715.53,716.53 2716.07,716.53 C2716.62,716.53 2717.09,716.722 2717.47,717.108 C2717.86,717.493 2718.05,717.978 2718.05,718.561 C2718.05,719.04 2717.8,720.04 2717.31,721.561 C2716.81,723.082 2716.57,724.92 2716.57,727.076 C2717.85,726.274 2718.98,725.355 2719.95,724.319 C2720.92,723.282 2721.68,722.491 2722.21,721.944 C2722.74,721.397 2723.33,721.123 2723.99,721.123 C2724.58,721.123 2725.06,721.324 2725.43,721.725 C2725.79,722.126 2725.97,722.634 2725.97,723.248 C2725.97,724.019 2725.61,724.569 2724.87,724.897 C2724.14,725.225 2722.96,725.616 2721.35,726.069 C2719.73,726.522 2718.29,727.113 2717,727.842 C2718.11,728.54 2719.28,729.097 2720.53,729.514 C2721.77,729.931 2722.75,730.194 2723.47,730.303 C2724.18,730.412 2724.78,730.634 2725.28,730.967 C2725.77,731.3 2726.02,731.785 2726.02,732.42 C2726.02,733.056 2725.85,733.558 2725.5,733.928 C2725.16,734.298 2724.69,734.483 2724.1,734.483 C2723.33,734.483 2722.69,734.251 2722.18,733.787 C2721.67,733.324 2720.92,732.563 2719.95,731.506 C2718.98,730.449 2717.85,729.483 2716.57,728.608 C2716.57,730.701 2716.82,732.563 2717.34,734.194 C2717.86,735.824 2718.11,736.733 2718.11,736.92 C2718.11,737.504 2717.9,738.017 2717.48,738.459 C2717.06,738.902 2716.55,739.123 2715.96,739.123 C2715.45,739.123 2715,738.92 2714.61,738.514 C2714.23,738.108 2714.04,737.629 2714.04,737.076"/>
<path class="Lyrics" d="M2574.36,742.92 C2574.36,740.962 2573.93,739.225 2573.08,737.709 C2572.22,736.194 2571.17,735.019 2569.94,734.186 C2568.71,733.353 2567.34,732.668 2565.82,732.131 C2564.3,731.595 2562.98,731.243 2561.86,731.076 C2560.74,730.91 2559.76,730.826 2558.91,730.826 C2558.47,730.826 2558.26,730.681 2558.26,730.389 C2558.26,730.274 2558.28,730.186 2558.32,730.123 L2564.3,717.326 L2575.8,717.326 C2576.39,717.326 2576.85,717.235 2577.2,717.053 C2577.55,716.871 2577.93,716.488 2578.33,715.905 L2578.83,716.28 L2576.74,720.889 C2576.59,721.191 2576.17,721.342 2575.47,721.342 L2564.69,721.342 L2562.38,726.061 C2567.73,727.019 2571.71,728.582 2574.32,730.748 C2576.92,732.915 2578.22,736.087 2578.22,740.264 C2578.22,742.451 2577.89,744.397 2577.21,746.1 C2576.53,747.803 2575.67,749.175 2574.62,750.217 C2573.58,751.259 2572.36,752.113 2570.99,752.78 C2569.61,753.446 2568.29,753.899 2567.03,754.139 C2565.76,754.379 2564.49,754.498 2563.21,754.498 C2561.16,754.498 2559.53,754.196 2558.32,753.592 C2557.11,752.988 2556.51,752.155 2556.51,751.092 C2556.51,749.738 2557.29,749.061 2558.86,749.061 C2559.9,749.061 2561.23,749.621 2562.86,750.741 C2564.49,751.86 2565.78,752.42 2566.72,752.42 C2568.89,752.42 2570.71,751.504 2572.17,749.67 C2573.63,747.837 2574.36,745.587 2574.36,742.92"/>
<path class="Lyrics" d="M1685.35,739.764 L1698.88,739.764 L1698.88,743.061 L1685.35,743.061 L1685.35,739.764 M1726.21,717.326 L1726.21,718.201 L1714.55,754.17 L1710.97,754.17 L1721.87,721.342 L1709.93,721.342 C1708.43,721.342 1707.28,721.618 1706.5,722.17 C1705.71,722.722 1704.73,723.936 1703.55,725.811 L1702.62,725.358 L1705.87,717.326 L1726.21,717.326 M1740.79,737.076 C1740.79,736.712 1741.03,735.733 1741.53,734.139 C1742.02,732.545 1742.27,730.701 1742.27,728.608 C1740.84,729.493 1739.67,730.451 1738.76,731.483 C1737.84,732.514 1737.15,733.264 1736.69,733.733 C1736.24,734.201 1735.61,734.436 1734.8,734.436 C1733.48,734.436 1732.82,733.785 1732.82,732.483 C1732.82,731.847 1733.06,731.373 1733.53,731.061 C1734,730.748 1734.59,730.527 1735.29,730.397 C1735.99,730.267 1736.97,729.972 1738.23,729.514 C1739.5,729.056 1740.72,728.483 1741.9,727.795 C1740.46,727.066 1738.91,726.501 1737.24,726.1 C1735.57,725.699 1734.42,725.334 1733.78,725.006 C1733.14,724.678 1732.82,724.076 1732.82,723.201 C1732.82,722.649 1733,722.183 1733.37,721.803 C1733.73,721.423 1734.17,721.233 1734.69,721.233 C1735.28,721.233 1735.8,721.397 1736.26,721.725 C1736.71,722.053 1737.11,722.454 1737.44,722.928 C1737.76,723.402 1738.36,724.022 1739.22,724.787 C1740.09,725.553 1741.11,726.28 1742.27,726.967 C1742.27,724.884 1742.04,723.035 1741.58,721.42 C1741.13,719.806 1740.9,718.816 1740.9,718.451 C1740.9,717.899 1741.08,717.441 1741.45,717.076 C1741.82,716.712 1742.28,716.53 1742.83,716.53 C1743.37,716.53 1743.84,716.722 1744.22,717.108 C1744.61,717.493 1744.8,717.978 1744.8,718.561 C1744.8,719.04 1744.56,720.04 1744.06,721.561 C1743.57,723.082 1743.32,724.92 1743.32,727.076 C1744.6,726.274 1745.73,725.355 1746.7,724.319 C1747.68,723.282 1748.43,722.491 1748.96,721.944 C1749.49,721.397 1750.08,721.123 1750.74,721.123 C1751.33,721.123 1751.81,721.324 1752.18,721.725 C1752.54,722.126 1752.72,722.634 1752.72,723.248 C1752.72,724.019 1752.36,724.569 1751.62,724.897 C1750.89,725.225 1749.71,725.616 1748.1,726.069 C1746.49,726.522 1745.04,727.113 1743.76,727.842 C1744.86,728.54 1746.03,729.097 1747.28,729.514 C1748.52,729.931 1749.5,730.194 1750.22,730.303 C1750.93,730.412 1751.53,730.634 1752.03,730.967 C1752.52,731.3 1752.77,731.785 1752.77,732.42 C1752.77,733.056 1752.6,733.558 1752.26,733.928 C1751.91,734.298 1751.44,734.483 1750.85,734.483 C1750.08,734.483 1749.44,734.251 1748.93,733.787 C1748.42,733.324 1747.68,732.563 1746.7,731.506 C1745.73,730.449 1744.6,729.483 1743.32,728.608 C1743.32,730.701 1743.58,732.563 1744.09,734.194 C1744.61,735.824 1744.87,736.733 1744.87,736.92 C1744.87,737.504 1744.65,738.017 1744.23,738.459 C1743.81,738.902 1743.3,739.123 1742.71,739.123 C1742.2,739.123 1741.75,738.92 1741.37,738.514 C1740.98,738.108 1740.79,737.629 1740.79,737.076"/>
<path class="Lyrics" d="M2254.54,739.764 L2268.07,739.764 L2268.07,743.061 L2254.54,743.061 L2254.54,739.764 M2290.34,742.92 C2290.34,740.962 2289.91,739.225 2289.05,737.709 C2288.19,736.194 2287.15,735.019 2285.92,734.186 C2284.69,733.353 2283.31,732.668 2281.79,732.131 C2280.27,731.595 2278.95,731.243 2277.83,731.076 C2276.71,730.91 2275.73,730.826 2274.89,730.826 C2274.45,730.826 2274.23,730.681 2274.23,730.389 C2274.23,730.274 2274.25,730.186 2274.29,730.123 L2280.28,717.326 L2291.78,717.326 C2292.36,717.326 2292.83,717.235 2293.17,717.053 C2293.52,716.871 2293.9,716.488 2294.31,715.905 L2294.81,716.28 L2292.71,720.889 C2292.57,721.191 2292.15,721.342 2291.45,721.342 L2280.67,721.342 L2278.35,726.061 C2283.71,727.019 2287.69,728.582 2290.29,730.748 C2292.9,732.915 2294.2,736.087 2294.2,740.264 C2294.2,742.451 2293.86,744.397 2293.18,746.1 C2292.51,747.803 2291.64,749.175 2290.6,750.217 C2289.55,751.259 2288.34,752.113 2286.96,752.78 C2285.59,753.446 2284.27,753.899 2283,754.139 C2281.74,754.379 2280.46,754.498 2279.18,754.498 C2277.13,754.498 2275.5,754.196 2274.29,753.592 C2273.08,752.988 2272.48,752.155 2272.48,751.092 C2272.48,749.738 2273.27,749.061 2274.84,749.061 C2275.87,749.061 2277.2,749.621 2278.83,750.741 C2280.46,751.86 2281.75,752.42 2282.7,752.42 C2284.86,752.42 2286.68,751.504 2288.14,749.67 C2289.61,747.837 2290.34,745.587 2290.34,742.92 M2309.98,737.076 C2309.98,736.712 2310.23,735.733 2310.72,734.139 C2311.22,732.545 2311.46,730.701 2311.46,728.608 C2310.04,729.493 2308.86,730.451 2307.95,731.483 C2307.03,732.514 2306.34,733.264 2305.89,733.733 C2305.43,734.201 2304.8,734.436 2304,734.436 C2302.67,734.436 2302.01,733.785 2302.01,732.483 C2302.01,731.847 2302.25,731.373 2302.72,731.061 C2303.2,730.748 2303.78,730.527 2304.48,730.397 C2305.18,730.267 2306.16,729.972 2307.42,729.514 C2308.69,729.056 2309.91,728.483 2311.09,727.795 C2309.65,727.066 2308.1,726.501 2306.43,726.1 C2304.77,725.699 2303.61,725.334 2302.97,725.006 C2302.33,724.678 2302.01,724.076 2302.01,723.201 C2302.01,722.649 2302.19,722.183 2302.56,721.803 C2302.92,721.423 2303.36,721.233 2303.89,721.233 C2304.47,721.233 2304.99,721.397 2305.45,721.725 C2305.91,722.053 2306.3,722.454 2306.63,722.928 C2306.96,723.402 2307.55,724.022 2308.42,724.787 C2309.28,725.553 2310.3,726.28 2311.46,726.967 C2311.46,724.884 2311.23,723.035 2310.78,721.42 C2310.32,719.806 2310.09,718.816 2310.09,718.451 C2310.09,717.899 2310.27,717.441 2310.64,717.076 C2311.01,716.712 2311.47,716.53 2312.02,716.53 C2312.57,716.53 2313.03,716.722 2313.42,717.108 C2313.8,717.493 2314,717.978 2314,718.561 C2314,719.04 2313.75,720.04 2313.25,721.561 C2312.76,723.082 2312.51,724.92 2312.51,727.076 C2313.79,726.274 2314.92,725.355 2315.89,724.319 C2316.87,723.282 2317.62,722.491 2318.15,721.944 C2318.68,721.397 2319.28,721.123 2319.93,721.123 C2320.53,721.123 2321.01,721.324 2321.37,721.725 C2321.73,722.126 2321.92,722.634 2321.92,723.248 C2321.92,724.019 2321.55,724.569 2320.82,724.897 C2320.08,725.225 2318.91,725.616 2317.29,726.069 C2315.68,726.522 2314.23,727.113 2312.95,727.842 C2314.05,728.54 2315.23,729.097 2316.47,729.514 C2317.72,729.931 2318.7,730.194 2319.41,730.303 C2320.12,730.412 2320.73,730.634 2321.22,730.967 C2321.72,731.3 2321.96,731.785 2321.96,732.42 C2321.96,733.056 2321.79,733.558 2321.45,733.928 C2321.1,734.298 2320.64,734.483 2320.04,734.483 C2319.27,734.483 2318.63,734.251 2318.12,733.787 C2317.61,733.324 2316.87,732.563 2315.89,731.506 C2314.92,730.449 2313.79,729.483 2312.51,728.608 C2312.51,730.701 2312.77,732.563 2313.28,734.194 C2313.8,735.824 2314.06,736.733 2314.06,736.92 C2314.06,737.504 2313.85,738.017 2313.42,738.459 C2313,738.902 2312.5,739.123 2311.9,739.123 C2311.39,739.123 2310.94,738.92 2310.56,738.514 C2310.17,738.108 2309.98,737.629 2309.98,737.076"/>
<path class="Lyrics" d="M2102.41,739.764 L2115.94,739.764 L2115.94,743.061 L2102.41,743.061 L2102.41,739.764 M2132.77,754.498 C2129.07,754.498 2126.09,753.022 2123.84,750.069 C2121.58,747.116 2120.45,743.212 2120.45,738.358 C2120.45,736.858 2120.6,735.311 2120.89,733.717 C2121.18,732.123 2121.82,730.311 2122.81,728.28 C2123.8,726.248 2125.09,724.428 2126.66,722.819 C2128.24,721.209 2130.45,719.772 2133.29,718.506 C2136.13,717.241 2139.4,716.446 2143.11,716.123 L2143.22,716.998 C2138.89,717.696 2135.27,719.446 2132.37,722.248 C2129.48,725.05 2127.67,728.524 2126.94,732.67 C2128.66,731.691 2129.96,731.053 2130.84,730.756 C2131.72,730.459 2132.76,730.311 2133.97,730.311 C2137.12,730.311 2139.64,731.332 2141.51,733.373 C2143.38,735.415 2144.31,738.17 2144.31,741.639 C2144.31,745.431 2143.24,748.522 2141.09,750.912 C2138.95,753.303 2136.17,754.498 2132.77,754.498 M2131.89,732.733 C2129.39,732.733 2127.71,733.28 2126.85,734.373 C2125.99,735.467 2125.56,737.087 2125.56,739.233 C2125.56,743.462 2126.26,746.79 2127.65,749.217 C2129.04,751.644 2130.95,752.858 2133.37,752.858 C2135.31,752.858 2136.79,752.045 2137.82,750.42 C2138.85,748.795 2139.36,746.488 2139.36,743.498 C2139.36,740.071 2138.71,737.42 2137.41,735.545 C2136.1,733.67 2134.27,732.733 2131.89,732.733"/>
<path class="Lyrics" d="M2010.23,717.326 L2010.23,718.201 L1998.58,754.17 L1995,754.17 L2005.89,721.342 L1993.95,721.342 C1992.45,721.342 1991.31,721.618 1990.52,722.17 C1989.74,722.722 1988.76,723.936 1987.58,725.811 L1986.64,725.358 L1989.89,717.326 L2010.23,717.326 "/>
<path class="Lyrics" d="M1823.57,739.764 L1837.1,739.764 L1837.1,743.061 L1823.57,743.061 L1823.57,739.764 M1864.43,717.326 L1864.43,718.201 L1852.77,754.17 L1849.19,754.17 L1860.08,721.342 L1848.15,721.342 C1846.65,721.342 1845.5,721.618 1844.72,722.17 C1843.93,722.722 1842.95,723.936 1841.77,725.811 L1840.83,725.358 L1844.08,717.326 L1864.43,717.326 "/>
<path class="Lyrics" d="M638.227,742.92 C638.227,740.962 637.797,739.225 636.938,737.709 C636.079,736.194 635.034,735.019 633.805,734.186 C632.576,733.353 631.201,732.668 629.68,732.131 C628.159,731.595 626.839,731.243 625.719,731.076 C624.599,730.91 623.618,730.826 622.774,730.826 C622.336,730.826 622.118,730.681 622.118,730.389 C622.118,730.274 622.138,730.186 622.18,730.123 L628.164,717.326 L639.664,717.326 C640.248,717.326 640.714,717.235 641.063,717.053 C641.412,716.871 641.789,716.488 642.196,715.905 L642.696,716.28 L640.602,720.889 C640.456,721.191 640.034,721.342 639.336,721.342 L628.555,721.342 L626.243,726.061 C631.597,727.019 635.576,728.582 638.18,730.748 C640.784,732.915 642.086,736.087 642.086,740.264 C642.086,742.451 641.748,744.397 641.071,746.1 C640.394,747.803 639.532,749.175 638.485,750.217 C637.438,751.259 636.227,752.113 634.852,752.78 C633.477,753.446 632.157,753.899 630.891,754.139 C629.625,754.379 628.352,754.498 627.071,754.498 C625.019,754.498 623.388,754.196 622.18,753.592 C620.972,752.988 620.368,752.155 620.368,751.092 C620.368,749.738 621.154,749.061 622.727,749.061 C623.758,749.061 625.089,749.621 626.719,750.741 C628.349,751.86 629.638,752.42 630.586,752.42 C632.753,752.42 634.568,751.504 636.032,749.67 C637.495,747.837 638.227,745.587 638.227,742.92 M657.868,737.076 C657.868,736.712 658.115,735.733 658.61,734.139 C659.105,732.545 659.352,730.701 659.352,728.608 C657.925,729.493 656.753,730.451 655.836,731.483 C654.92,732.514 654.232,733.264 653.774,733.733 C653.316,734.201 652.685,734.436 651.883,734.436 C650.56,734.436 649.899,733.785 649.899,732.483 C649.899,731.847 650.136,731.373 650.61,731.061 C651.084,730.748 651.67,730.527 652.368,730.397 C653.066,730.267 654.047,729.972 655.313,729.514 C656.579,729.056 657.8,728.483 658.977,727.795 C657.539,727.066 655.987,726.501 654.321,726.1 C652.654,725.699 651.5,725.334 650.86,725.006 C650.219,724.678 649.899,724.076 649.899,723.201 C649.899,722.649 650.081,722.183 650.446,721.803 C650.81,721.423 651.253,721.233 651.774,721.233 C652.357,721.233 652.878,721.397 653.336,721.725 C653.795,722.053 654.188,722.454 654.516,722.928 C654.844,723.402 655.441,724.022 656.305,724.787 C657.17,725.553 658.185,726.28 659.352,726.967 C659.352,724.884 659.123,723.035 658.664,721.42 C658.206,719.806 657.977,718.816 657.977,718.451 C657.977,717.899 658.162,717.441 658.532,717.076 C658.901,716.712 659.36,716.53 659.907,716.53 C660.454,716.53 660.92,716.722 661.305,717.108 C661.691,717.493 661.883,717.978 661.883,718.561 C661.883,719.04 661.636,720.04 661.141,721.561 C660.646,723.082 660.399,724.92 660.399,727.076 C661.68,726.274 662.808,725.355 663.782,724.319 C664.756,723.282 665.508,722.491 666.039,721.944 C666.571,721.397 667.164,721.123 667.821,721.123 C668.414,721.123 668.894,721.324 669.258,721.725 C669.623,722.126 669.805,722.634 669.805,723.248 C669.805,724.019 669.438,724.569 668.704,724.897 C667.969,725.225 666.795,725.616 665.18,726.069 C663.566,726.522 662.118,727.113 660.836,727.842 C661.941,728.54 663.115,729.097 664.36,729.514 C665.605,729.931 666.584,730.194 667.297,730.303 C668.011,730.412 668.615,730.634 669.11,730.967 C669.605,731.3 669.852,731.785 669.852,732.42 C669.852,733.056 669.68,733.558 669.336,733.928 C668.993,734.298 668.524,734.483 667.93,734.483 C667.159,734.483 666.519,734.251 666.008,733.787 C665.498,733.324 664.756,732.563 663.782,731.506 C662.808,730.449 661.68,729.483 660.399,728.608 C660.399,730.701 660.657,732.563 661.172,734.194 C661.688,735.824 661.946,736.733 661.946,736.92 C661.946,737.504 661.735,738.017 661.313,738.459 C660.891,738.902 660.383,739.123 659.789,739.123 C659.279,739.123 658.831,738.92 658.446,738.514 C658.06,738.108 657.868,737.629 657.868,737.076"/>
<path class="Lyrics" d="M321.389,739.764 L334.92,739.764 L334.92,743.061 L321.389,743.061 L321.389,739.764 M342.014,749.436 C342.857,749.436 344.113,749.933 345.779,750.928 C347.446,751.923 348.904,752.42 350.154,752.42 C352.175,752.42 353.881,751.636 355.272,750.069 C356.662,748.501 357.357,746.571 357.357,744.28 C357.357,742.853 357.11,741.592 356.615,740.498 C356.121,739.405 355.488,738.558 354.717,737.959 C353.946,737.36 353.029,736.871 351.967,736.491 C350.904,736.11 349.907,735.866 348.975,735.756 C348.042,735.647 347.04,735.592 345.967,735.592 L345.967,734.873 C347.217,734.436 348.292,734.006 349.193,733.584 C350.094,733.162 351.04,732.592 352.029,731.873 C353.019,731.155 353.779,730.282 354.311,729.256 C354.842,728.23 355.107,727.061 355.107,725.748 C355.107,724.019 354.548,722.605 353.428,721.506 C352.308,720.407 350.852,719.858 349.061,719.858 C347.331,719.858 345.816,720.324 344.514,721.256 C343.212,722.188 341.993,723.665 340.857,725.686 L340.029,725.467 C340.988,722.863 342.282,720.728 343.912,719.061 C345.542,717.394 347.863,716.561 350.873,716.561 C353.404,716.561 355.467,717.256 357.061,718.647 C358.654,720.037 359.451,721.853 359.451,724.092 C359.451,725.592 359.066,726.91 358.295,728.045 C357.524,729.181 356.186,730.394 354.279,731.686 C356.477,732.634 358.199,733.847 359.443,735.326 C360.688,736.806 361.311,738.915 361.311,741.655 C361.311,745.55 359.873,748.665 356.998,750.998 C354.123,753.332 350.503,754.498 346.139,754.498 C344.232,754.498 342.719,754.214 341.6,753.647 C340.48,753.079 339.92,752.321 339.92,751.373 C339.92,750.78 340.113,750.308 340.498,749.959 C340.884,749.61 341.389,749.436 342.014,749.436 M376.826,737.076 C376.826,736.712 377.074,735.733 377.568,734.139 C378.063,732.545 378.311,730.701 378.311,728.608 C376.884,729.493 375.712,730.451 374.795,731.483 C373.878,732.514 373.191,733.264 372.732,733.733 C372.274,734.201 371.644,734.436 370.842,734.436 C369.519,734.436 368.857,733.785 368.857,732.483 C368.857,731.847 369.094,731.373 369.568,731.061 C370.042,730.748 370.628,730.527 371.326,730.397 C372.024,730.267 373.006,729.972 374.272,729.514 C375.537,729.056 376.759,728.483 377.936,727.795 C376.498,727.066 374.946,726.501 373.279,726.1 C371.613,725.699 370.459,725.334 369.818,725.006 C369.178,724.678 368.857,724.076 368.857,723.201 C368.857,722.649 369.04,722.183 369.404,721.803 C369.769,721.423 370.212,721.233 370.732,721.233 C371.316,721.233 371.837,721.397 372.295,721.725 C372.753,722.053 373.147,722.454 373.475,722.928 C373.803,723.402 374.399,724.022 375.264,724.787 C376.128,725.553 377.144,726.28 378.311,726.967 C378.311,724.884 378.081,723.035 377.623,721.42 C377.165,719.806 376.936,718.816 376.936,718.451 C376.936,717.899 377.121,717.441 377.49,717.076 C377.86,716.712 378.318,716.53 378.865,716.53 C379.412,716.53 379.878,716.722 380.264,717.108 C380.649,717.493 380.842,717.978 380.842,718.561 C380.842,719.04 380.594,720.04 380.1,721.561 C379.605,723.082 379.357,724.92 379.357,727.076 C380.639,726.274 381.766,725.355 382.74,724.319 C383.714,723.282 384.467,722.491 384.998,721.944 C385.529,721.397 386.123,721.123 386.779,721.123 C387.373,721.123 387.852,721.324 388.217,721.725 C388.581,722.126 388.764,722.634 388.764,723.248 C388.764,724.019 388.397,724.569 387.662,724.897 C386.928,725.225 385.753,725.616 384.139,726.069 C382.524,726.522 381.076,727.113 379.795,727.842 C380.899,728.54 382.074,729.097 383.318,729.514 C384.563,729.931 385.542,730.194 386.256,730.303 C386.969,730.412 387.574,730.634 388.068,730.967 C388.563,731.3 388.811,731.785 388.811,732.42 C388.811,733.056 388.639,733.558 388.295,733.928 C387.951,734.298 387.482,734.483 386.889,734.483 C386.118,734.483 385.477,734.251 384.967,733.787 C384.456,733.324 383.714,732.563 382.74,731.506 C381.766,730.449 380.639,729.483 379.357,728.608 C379.357,730.701 379.615,732.563 380.131,734.194 C380.647,735.824 380.904,736.733 380.904,736.92 C380.904,737.504 380.693,738.017 380.272,738.459 C379.85,738.902 379.342,739.123 378.748,739.123 C378.238,739.123 377.79,738.92 377.404,738.514 C377.019,738.108 376.826,737.629 376.826,737.076"/>
<path class="Lyrics" d="M486.591,742.92 C486.591,740.962 486.161,739.225 485.302,737.709 C484.443,736.194 483.398,735.019 482.169,734.186 C480.94,733.353 479.565,732.668 478.044,732.131 C476.523,731.595 475.203,731.243 474.083,731.076 C472.963,730.91 471.982,730.826 471.138,730.826 C470.7,730.826 470.482,730.681 470.482,730.389 C470.482,730.274 470.503,730.186 470.544,730.123 L476.529,717.326 L488.029,717.326 C488.612,717.326 489.078,717.235 489.427,717.053 C489.776,716.871 490.154,716.488 490.56,715.905 L491.06,716.28 L488.966,720.889 C488.82,721.191 488.398,721.342 487.7,721.342 L476.919,721.342 L474.607,726.061 C479.961,727.019 483.94,728.582 486.544,730.748 C489.148,732.915 490.45,736.087 490.45,740.264 C490.45,742.451 490.112,744.397 489.435,746.1 C488.758,747.803 487.896,749.175 486.849,750.217 C485.802,751.259 484.591,752.113 483.216,752.78 C481.841,753.446 480.521,753.899 479.255,754.139 C477.989,754.379 476.716,754.498 475.435,754.498 C473.383,754.498 471.753,754.196 470.544,753.592 C469.336,752.988 468.732,752.155 468.732,751.092 C468.732,749.738 469.518,749.061 471.091,749.061 C472.122,749.061 473.453,749.621 475.083,750.741 C476.713,751.86 478.003,752.42 478.95,752.42 C481.117,752.42 482.932,751.504 484.396,749.67 C485.859,747.837 486.591,745.587 486.591,742.92"/>
<path class="Lyrics" d="M1294.64,739.764 L1308.17,739.764 L1308.17,743.061 L1294.64,743.061 L1294.64,739.764 M1335.5,717.326 L1335.5,718.201 L1323.84,754.17 L1320.26,754.17 L1331.15,721.342 L1319.22,721.342 C1317.72,721.342 1316.57,721.618 1315.79,722.17 C1315,722.722 1314.02,723.936 1312.84,725.811 L1311.9,725.358 L1315.15,717.326 L1335.5,717.326 M1350.07,737.076 C1350.07,736.712 1350.32,735.733 1350.82,734.139 C1351.31,732.545 1351.56,730.701 1351.56,728.608 C1350.13,729.493 1348.96,730.451 1348.04,731.483 C1347.13,732.514 1346.44,733.264 1345.98,733.733 C1345.52,734.201 1344.89,734.436 1344.09,734.436 C1342.77,734.436 1342.11,733.785 1342.11,732.483 C1342.11,731.847 1342.34,731.373 1342.82,731.061 C1343.29,730.748 1343.88,730.527 1344.57,730.397 C1345.27,730.267 1346.25,729.972 1347.52,729.514 C1348.79,729.056 1350.01,728.483 1351.18,727.795 C1349.75,727.066 1348.19,726.501 1346.53,726.1 C1344.86,725.699 1343.71,725.334 1343.07,725.006 C1342.43,724.678 1342.11,724.076 1342.11,723.201 C1342.11,722.649 1342.29,722.183 1342.65,721.803 C1343.02,721.423 1343.46,721.233 1343.98,721.233 C1344.56,721.233 1345.08,721.397 1345.54,721.725 C1346,722.053 1346.39,722.454 1346.72,722.928 C1347.05,723.402 1347.65,724.022 1348.51,724.787 C1349.38,725.553 1350.39,726.28 1351.56,726.967 C1351.56,724.884 1351.33,723.035 1350.87,721.42 C1350.41,719.806 1350.18,718.816 1350.18,718.451 C1350.18,717.899 1350.37,717.441 1350.74,717.076 C1351.11,716.712 1351.57,716.53 1352.11,716.53 C1352.66,716.53 1353.13,716.722 1353.51,717.108 C1353.9,717.493 1354.09,717.978 1354.09,718.561 C1354.09,719.04 1353.84,720.04 1353.35,721.561 C1352.85,723.082 1352.61,724.92 1352.61,727.076 C1353.89,726.274 1355.01,725.355 1355.99,724.319 C1356.96,723.282 1357.72,722.491 1358.25,721.944 C1358.78,721.397 1359.37,721.123 1360.03,721.123 C1360.62,721.123 1361.1,721.324 1361.47,721.725 C1361.83,722.126 1362.01,722.634 1362.01,723.248 C1362.01,724.019 1361.64,724.569 1360.91,724.897 C1360.18,725.225 1359,725.616 1357.39,726.069 C1355.77,726.522 1354.32,727.113 1353.04,727.842 C1354.15,728.54 1355.32,729.097 1356.57,729.514 C1357.81,729.931 1358.79,730.194 1359.5,730.303 C1360.22,730.412 1360.82,730.634 1361.32,730.967 C1361.81,731.3 1362.06,731.785 1362.06,732.42 C1362.06,733.056 1361.89,733.558 1361.54,733.928 C1361.2,734.298 1360.73,734.483 1360.14,734.483 C1359.37,734.483 1358.73,734.251 1358.22,733.787 C1357.7,733.324 1356.96,732.563 1355.99,731.506 C1355.01,730.449 1353.89,729.483 1352.61,728.608 C1352.61,730.701 1352.86,732.563 1353.38,734.194 C1353.89,735.824 1354.15,736.733 1354.15,736.92 C1354.15,737.504 1353.94,738.017 1353.52,738.459 C1353.1,738.902 1352.59,739.123 1352,739.123 C1351.49,739.123 1351.04,738.92 1350.65,738.514 C1350.27,738.108 1350.07,737.629 1350.07,737.076"/>
<path class="Lyrics" d="M1183.42,739.764 L1196.95,739.764 L1196.95,743.061 L1183.42,743.061 L1183.42,739.764 M1224.28,717.326 L1224.28,718.201 L1212.62,754.17 L1209.04,754.17 L1219.93,721.342 L1208,721.342 C1206.5,721.342 1205.35,721.618 1204.57,722.17 C1203.78,722.722 1202.8,723.936 1201.62,725.811 L1200.68,725.358 L1203.93,717.326 L1224.28,717.326 "/>
<path class="Lyrics" d="M1060.85,717.326 L1060.85,718.201 L1049.19,754.17 L1045.61,754.17 L1056.5,721.342 L1044.56,721.342 C1043.06,721.342 1041.92,721.618 1041.13,722.17 C1040.35,722.722 1039.37,723.936 1038.19,725.811 L1037.25,725.358 L1040.5,717.326 L1060.85,717.326 "/>
<path class="Lyrics" d="M903.581,739.764 L917.112,739.764 L917.112,743.061 L903.581,743.061 L903.581,739.764 M933.94,754.498 C930.242,754.498 927.266,753.022 925.011,750.069 C922.755,747.116 921.628,743.212 921.628,738.358 C921.628,736.858 921.774,735.311 922.065,733.717 C922.357,732.123 922.997,730.311 923.987,728.28 C924.977,726.248 926.261,724.428 927.839,722.819 C929.417,721.209 931.625,719.772 934.464,718.506 C937.302,717.241 940.576,716.446 944.284,716.123 L944.393,716.998 C940.06,717.696 936.445,719.446 933.55,722.248 C930.654,725.05 928.841,728.524 928.112,732.67 C929.831,731.691 931.13,731.053 932.011,730.756 C932.891,730.459 933.935,730.311 935.143,730.311 C938.3,730.311 940.813,731.332 942.682,733.373 C944.552,735.415 945.487,738.17 945.487,741.639 C945.487,745.431 944.414,748.522 942.268,750.912 C940.122,753.303 937.346,754.498 933.94,754.498 M933.065,732.733 C930.565,732.733 928.886,733.28 928.026,734.373 C927.167,735.467 926.737,737.087 926.737,739.233 C926.737,743.462 927.432,746.79 928.823,749.217 C930.214,751.644 932.122,752.858 934.55,752.858 C936.487,752.858 937.969,752.045 938.995,750.42 C940.021,748.795 940.534,746.488 940.534,743.498 C940.534,740.071 939.883,737.42 938.581,735.545 C937.279,733.67 935.44,732.733 933.065,732.733"/>
<path class="Lyrics" d="M735.961,739.764 L749.492,739.764 L749.492,743.061 L735.961,743.061 L735.961,739.764 M771.757,742.92 C771.757,740.962 771.328,739.225 770.468,737.709 C769.609,736.194 768.565,735.019 767.336,734.186 C766.106,733.353 764.731,732.668 763.211,732.131 C761.69,731.595 760.369,731.243 759.25,731.076 C758.13,730.91 757.148,730.826 756.304,730.826 C755.867,730.826 755.648,730.681 755.648,730.389 C755.648,730.274 755.669,730.186 755.711,730.123 L761.695,717.326 L773.195,717.326 C773.778,717.326 774.244,717.235 774.593,717.053 C774.942,716.871 775.32,716.488 775.726,715.905 L776.226,716.28 L774.132,720.889 C773.987,721.191 773.565,721.342 772.867,721.342 L762.086,721.342 L759.773,726.061 C765.127,727.019 769.106,728.582 771.711,730.748 C774.315,732.915 775.617,736.087 775.617,740.264 C775.617,742.451 775.278,744.397 774.601,746.1 C773.924,747.803 773.062,749.175 772.015,750.217 C770.968,751.259 769.757,752.113 768.382,752.78 C767.007,753.446 765.687,753.899 764.421,754.139 C763.156,754.379 761.882,754.498 760.601,754.498 C758.549,754.498 756.919,754.196 755.711,753.592 C754.502,752.988 753.898,752.155 753.898,751.092 C753.898,749.738 754.684,749.061 756.257,749.061 C757.289,749.061 758.619,749.621 760.25,750.741 C761.88,751.86 763.169,752.42 764.117,752.42 C766.283,752.42 768.099,751.504 769.562,749.67 C771.026,747.837 771.757,745.587 771.757,742.92 M791.398,737.076 C791.398,736.712 791.645,735.733 792.14,734.139 C792.635,732.545 792.882,730.701 792.882,728.608 C791.455,729.493 790.283,730.451 789.367,731.483 C788.45,732.514 787.763,733.264 787.304,733.733 C786.846,734.201 786.216,734.436 785.414,734.436 C784.091,734.436 783.429,733.785 783.429,732.483 C783.429,731.847 783.666,731.373 784.14,731.061 C784.614,730.748 785.2,730.527 785.898,730.397 C786.596,730.267 787.578,729.972 788.843,729.514 C790.109,729.056 791.33,728.483 792.507,727.795 C791.07,727.066 789.518,726.501 787.851,726.1 C786.184,725.699 785.031,725.334 784.39,725.006 C783.75,724.678 783.429,724.076 783.429,723.201 C783.429,722.649 783.612,722.183 783.976,721.803 C784.341,721.423 784.783,721.233 785.304,721.233 C785.888,721.233 786.408,721.397 786.867,721.725 C787.325,722.053 787.718,722.454 788.046,722.928 C788.375,723.402 788.971,724.022 789.836,724.787 C790.7,725.553 791.716,726.28 792.882,726.967 C792.882,724.884 792.653,723.035 792.195,721.42 C791.737,719.806 791.507,718.816 791.507,718.451 C791.507,717.899 791.692,717.441 792.062,717.076 C792.432,716.712 792.89,716.53 793.437,716.53 C793.984,716.53 794.45,716.722 794.836,717.108 C795.221,717.493 795.414,717.978 795.414,718.561 C795.414,719.04 795.166,720.04 794.671,721.561 C794.177,723.082 793.929,724.92 793.929,727.076 C795.211,726.274 796.338,725.355 797.312,724.319 C798.286,723.282 799.039,722.491 799.57,721.944 C800.101,721.397 800.695,721.123 801.351,721.123 C801.945,721.123 802.424,721.324 802.789,721.725 C803.153,722.126 803.336,722.634 803.336,723.248 C803.336,724.019 802.968,724.569 802.234,724.897 C801.5,725.225 800.325,725.616 798.711,726.069 C797.096,726.522 795.648,727.113 794.367,727.842 C795.471,728.54 796.645,729.097 797.89,729.514 C799.135,729.931 800.114,730.194 800.828,730.303 C801.541,730.412 802.145,730.634 802.64,730.967 C803.135,731.3 803.382,731.785 803.382,732.42 C803.382,733.056 803.211,733.558 802.867,733.928 C802.523,734.298 802.054,734.483 801.461,734.483 C800.69,734.483 800.049,734.251 799.539,733.787 C799.028,733.324 798.286,732.563 797.312,731.506 C796.338,730.449 795.211,729.483 793.929,728.608 C793.929,730.701 794.187,732.563 794.703,734.194 C795.218,735.824 795.476,736.733 795.476,736.92 C795.476,737.504 795.265,738.017 794.843,738.459 C794.421,738.902 793.914,739.123 793.32,739.123 C792.809,739.123 792.362,738.92 791.976,738.514 C791.591,738.108 791.398,737.629 791.398,737.076"/>
</svg>
