<?xml version="1.0" encoding="UTF-8" standalone="no"?>
<svg width="2977.2px" height="4208.4px" viewBox="0 0 2977.2 4208.4"
 xmlns="http://www.w3.org/2000/svg" xmlns:xlink="http://www.w3.org/1999/xlink" version="1.2" baseProfile="tiny">
<title>C_Major_Scale_Patterns_24.mscx</title>
<desc>Generated by MuseScore Studio 4.3.1</desc>
<path class="" fill="#ffffff" fill-rule="evenodd" d="M0,0 L2977.2,0 L2977.2,4208.4 L0,4208.4 L0,0 "/>
<polyline class="StaffLines" fill="none" stroke="#000000" stroke-width="2.00" stroke-linejoin="bevel" points="141.732,566.733 2835.47,566.733"/>
<polyline class="StaffLines" fill="none" stroke="#000000" stroke-width="2.00" stroke-linejoin="bevel" points="141.732,591.733 2835.47,591.733"/>
<polyline class="StaffLines" fill="none" stroke="#000000" stroke-width="2.00" stroke-linejoin="bevel" points="141.732,616.733 2835.47,616.733"/>
<polyline class="StaffLines" fill="none" stroke="#000000" stroke-width="2.00" stroke-linejoin="bevel" points="141.732,641.733 2835.47,641.733"/>
<polyline class="StaffLines" fill="none" stroke="#000000" stroke-width="2.00" stroke-linejoin="bevel" points="141.732,666.733 2835.47,666.733"/>
<polyline class="BarLine" fill="none" stroke="#000000" stroke-width="4.00" stroke-linejoin="bevel" points="2802.72,565.733 2802.72,667.733"/>
<polyline class="BarLine" fill="none" stroke="#000000" stroke-width="12.50" stroke-linejoin="bevel" points="2829.22,565.733 2829.22,667.733"/>
<polyline class="BarLine" fill="none" stroke="#000000" stroke-width="4.00" stroke-linejoin="bevel" points="2259.78,565.733 2259.78,667.733"/>
<polyline class="BarLine" fill="none" stroke="#000000" stroke-width="4.00" stroke-linejoin="bevel" points="1716.84,565.733 1716.84,667.733"/>
<polyline class="BarLine" fill="none" stroke="#000000" stroke-width="4.00" stroke-linejoin="bevel" points="1398.75,565.733 1398.75,667.733"/>
<polyline class="BarLine" fill="none" stroke="#000000" stroke-width="4.00" stroke-linejoin="bevel" points="855.812,565.733 855.812,667.733"/>
<polyline class="LedgerLine" fill="none" stroke="#000000" stroke-width="4.00" stroke-linejoin="bevel" points="1258.77,516.733 1310.68,516.733"/>
<polyline class="LedgerLine" fill="none" stroke="#000000" stroke-width="4.00" stroke-linejoin="bevel" points="1258.77,541.733 1310.68,541.733"/>
<polyline class="LedgerLine" fill="none" stroke="#000000" stroke-width="4.00" stroke-linejoin="bevel" points="1734.34,541.733 1786.26,541.733"/>
<polyline class="LedgerLine" fill="none" stroke="#000000" stroke-width="4.00" stroke-linejoin="bevel" points="1991.31,541.733 2043.22,541.733"/>
<polyline class="LedgerLine" fill="none" stroke="#000000" stroke-width="4.00" stroke-linejoin="bevel" points="1734.34,516.733 1786.26,516.733"/>
<polyline class="LedgerLine" fill="none" stroke="#000000" stroke-width="4.00" stroke-linejoin="bevel" points="1001.8,541.733 1053.71,541.733"/>
<polyline class="LedgerLine" fill="none" stroke="#000000" stroke-width="4.00" stroke-linejoin="bevel" points="1862.83,541.733 1914.74,541.733"/>
<polyline class="LedgerLine" fill="none" stroke="#000000" stroke-width="4.00" stroke-linejoin="bevel" points="1130.28,541.733 1182.2,541.733"/>
<polyline class="Stem" fill="none" stroke="#000000" stroke-width="3.25" stroke-linejoin="bevel" points="341.498,610.102 341.498,685.483"/>
<polyline class="Stem" fill="none" stroke="#000000" stroke-width="3.25" stroke-linejoin="bevel" points="726.952,572.602 726.952,654.233"/>
<polyline class="Stem" fill="none" stroke="#000000" stroke-width="3.25" stroke-linejoin="bevel" points="1745.47,522.602 1745.47,616.733"/>
<polyline class="Stem" fill="none" stroke="#000000" stroke-width="3.25" stroke-linejoin="bevel" points="1873.95,535.102 1873.95,616.733"/>
<polyline class="Stem" fill="none" stroke="#000000" stroke-width="3.25" stroke-linejoin="bevel" points="2002.44,547.602 2002.44,629.233"/>
<polyline class="Stem" fill="none" stroke="#000000" stroke-width="3.25" stroke-linejoin="bevel" points="2130.92,560.102 2130.92,641.733"/>
<polyline class="Stem" fill="none" stroke="#000000" stroke-width="3.25" stroke-linejoin="bevel" points="2288.4,572.602 2288.4,654.233"/>
<polyline class="Stem" fill="none" stroke="#000000" stroke-width="3.25" stroke-linejoin="bevel" points="2416.89,585.102 2416.89,666.733"/>
<polyline class="Stem" fill="none" stroke="#000000" stroke-width="3.25" stroke-linejoin="bevel" points="2545.37,597.602 2545.37,679.233"/>
<polyline class="Stem" fill="none" stroke="#000000" stroke-width="3.25" stroke-linejoin="bevel" points="2673.86,610.102 2673.86,685.483"/>
<polyline class="Stem" fill="none" stroke="#000000" stroke-width="3.25" stroke-linejoin="bevel" points="469.983,597.602 469.983,679.233"/>
<polyline class="Stem" fill="none" stroke="#000000" stroke-width="3.25" stroke-linejoin="bevel" points="1269.89,522.602 1269.89,616.733"/>
<polyline class="Stem" fill="none" stroke="#000000" stroke-width="3.25" stroke-linejoin="bevel" points="1141.41,535.102 1141.41,616.733"/>
<polyline class="Stem" fill="none" stroke="#000000" stroke-width="3.25" stroke-linejoin="bevel" points="598.467,585.102 598.467,666.733"/>
<polyline class="Stem" fill="none" stroke="#000000" stroke-width="3.25" stroke-linejoin="bevel" points="1012.92,547.602 1012.92,629.233"/>
<polyline class="Stem" fill="none" stroke="#000000" stroke-width="3.25" stroke-linejoin="bevel" points="884.437,560.102 884.437,641.733"/>
<path class="Note" d="M2022.78,527.967 C2025.9,527.967 2028.51,528.748 2030.59,530.311 C2032.67,531.873 2033.72,534.118 2033.72,537.045 C2033.72,541.535 2031.39,545.733 2026.74,549.639 C2022.09,553.545 2017.09,555.498 2011.75,555.498 C2008.62,555.498 2005.99,554.686 2003.84,553.061 C2001.82,551.3 2000.81,549.087 2000.81,546.42 C2000.81,542.056 2003.12,537.889 2007.75,533.92 C2012.37,529.951 2017.38,527.967 2022.78,527.967"/>
<path class="Note" d="M2694.2,590.467 C2697.33,590.467 2699.93,591.248 2702.01,592.811 C2704.1,594.373 2705.14,596.618 2705.14,599.545 C2705.14,604.035 2702.81,608.233 2698.16,612.139 C2693.51,616.045 2688.51,617.998 2683.17,617.998 C2680.05,617.998 2677.41,617.186 2675.26,615.561 C2673.24,613.8 2672.23,611.587 2672.23,608.92 C2672.23,604.556 2674.55,600.389 2679.17,596.42 C2683.8,592.451 2688.81,590.467 2694.2,590.467"/>
<path class="Note" d="M618.811,565.467 C621.936,565.467 624.54,566.248 626.624,567.811 C628.707,569.373 629.749,571.618 629.749,574.545 C629.749,579.035 627.423,583.233 622.772,587.139 C618.121,591.045 613.124,592.998 607.78,592.998 C604.655,592.998 602.02,592.186 599.874,590.561 C597.853,588.8 596.842,586.587 596.842,583.92 C596.842,579.556 599.155,575.389 603.78,571.42 C608.405,567.451 613.415,565.467 618.811,565.467"/>
<path class="Note" d="M2565.72,577.967 C2568.84,577.967 2571.45,578.748 2573.53,580.311 C2575.61,581.873 2576.66,584.118 2576.66,587.045 C2576.66,591.535 2574.33,595.733 2569.68,599.639 C2565.03,603.545 2560.03,605.498 2554.69,605.498 C2551.56,605.498 2548.93,604.686 2546.78,603.061 C2544.76,601.3 2543.75,599.087 2543.75,596.42 C2543.75,592.056 2546.06,587.889 2550.69,583.92 C2555.31,579.951 2560.32,577.967 2565.72,577.967"/>
<path class="Note" d="M747.296,552.967 C750.421,552.967 753.025,553.748 755.108,555.311 C757.192,556.873 758.233,559.118 758.233,562.045 C758.233,566.535 755.908,570.733 751.257,574.639 C746.606,578.545 741.608,580.498 736.265,580.498 C733.14,580.498 730.504,579.686 728.358,578.061 C726.338,576.3 725.327,574.087 725.327,571.42 C725.327,567.056 727.64,562.889 732.265,558.92 C736.89,554.951 741.9,552.967 747.296,552.967"/>
<path class="Note" d="M2437.23,565.467 C2440.36,565.467 2442.96,566.248 2445.05,567.811 C2447.13,569.373 2448.17,571.618 2448.17,574.545 C2448.17,579.035 2445.85,583.233 2441.19,587.139 C2436.54,591.045 2431.55,592.998 2426.2,592.998 C2423.08,592.998 2420.44,592.186 2418.3,590.561 C2416.27,588.8 2415.26,586.587 2415.26,583.92 C2415.26,579.556 2417.58,575.389 2422.2,571.42 C2426.83,567.451 2431.84,565.467 2437.23,565.467"/>
<path class="Note" d="M2308.75,552.967 C2311.87,552.967 2314.48,553.748 2316.56,555.311 C2318.64,556.873 2319.69,559.118 2319.69,562.045 C2319.69,566.535 2317.36,570.733 2312.71,574.639 C2308.06,578.545 2303.06,580.498 2297.72,580.498 C2294.59,580.498 2291.96,579.686 2289.81,578.061 C2287.79,576.3 2286.78,574.087 2286.78,571.42 C2286.78,567.056 2289.09,562.889 2293.72,558.92 C2298.34,554.951 2303.35,552.967 2308.75,552.967"/>
<path class="Note" d="M490.327,577.967 C493.452,577.967 496.056,578.748 498.139,580.311 C500.222,581.873 501.264,584.118 501.264,587.045 C501.264,591.535 498.939,595.733 494.287,599.639 C489.636,603.545 484.639,605.498 479.295,605.498 C476.17,605.498 473.535,604.686 471.389,603.061 C469.368,601.3 468.358,599.087 468.358,596.42 C468.358,592.056 470.67,587.889 475.295,583.92 C479.92,579.951 484.931,577.967 490.327,577.967"/>
<path class="Note" d="M2151.26,540.467 C2154.39,540.467 2156.99,541.248 2159.08,542.811 C2161.16,544.373 2162.2,546.618 2162.2,549.545 C2162.2,554.035 2159.88,558.233 2155.22,562.139 C2150.57,566.045 2145.58,567.998 2140.23,567.998 C2137.11,567.998 2134.47,567.186 2132.33,565.561 C2130.31,563.8 2129.29,561.587 2129.29,558.92 C2129.29,554.556 2131.61,550.389 2136.23,546.42 C2140.86,542.451 2145.87,540.467 2151.26,540.467"/>
<path class="Note" d="M904.781,540.467 C907.906,540.467 910.51,541.248 912.593,542.811 C914.676,544.373 915.718,546.618 915.718,549.545 C915.718,554.035 913.393,558.233 908.741,562.139 C904.09,566.045 899.093,567.998 893.749,567.998 C890.624,567.998 887.989,567.186 885.843,565.561 C883.822,563.8 882.812,561.587 882.812,558.92 C882.812,554.556 885.124,550.389 889.749,546.42 C894.374,542.451 899.385,540.467 904.781,540.467"/>
<path class="Note" d="M1894.29,515.467 C1897.42,515.467 1900.02,516.248 1902.11,517.811 C1904.19,519.373 1905.23,521.618 1905.23,524.545 C1905.23,529.035 1902.91,533.233 1898.26,537.139 C1893.6,541.045 1888.61,542.998 1883.26,542.998 C1880.14,542.998 1877.5,542.186 1875.36,540.561 C1873.34,538.8 1872.33,536.587 1872.33,533.92 C1872.33,529.556 1874.64,525.389 1879.26,521.42 C1883.89,517.451 1888.9,515.467 1894.29,515.467"/>
<path class="Note" d="M1033.27,527.967 C1036.39,527.967 1038.99,528.748 1041.08,530.311 C1043.16,531.873 1044.2,534.118 1044.2,537.045 C1044.2,541.535 1041.88,545.733 1037.23,549.639 C1032.58,553.545 1027.58,555.498 1022.23,555.498 C1019.11,555.498 1016.47,554.686 1014.33,553.061 C1012.31,551.3 1011.3,549.087 1011.3,546.42 C1011.3,542.056 1013.61,537.889 1018.23,533.92 C1022.86,529.951 1027.87,527.967 1033.27,527.967"/>
<path class="Note" d="M1765.81,502.967 C1768.93,502.967 1771.54,503.748 1773.62,505.311 C1775.71,506.873 1776.75,509.118 1776.75,512.045 C1776.75,516.535 1774.42,520.733 1769.77,524.639 C1765.12,528.545 1760.12,530.498 1754.78,530.498 C1751.65,530.498 1749.02,529.686 1746.87,528.061 C1744.85,526.3 1743.84,524.087 1743.84,521.42 C1743.84,517.056 1746.15,512.889 1750.78,508.92 C1755.4,504.951 1760.41,502.967 1765.81,502.967"/>
<path class="Note" d="M1161.75,515.467 C1164.87,515.467 1167.48,516.248 1169.56,517.811 C1171.65,519.373 1172.69,521.618 1172.69,524.545 C1172.69,529.035 1170.36,533.233 1165.71,537.139 C1161.06,541.045 1156.06,542.998 1150.72,542.998 C1147.59,542.998 1144.96,542.186 1142.81,540.561 C1140.79,538.8 1139.78,536.587 1139.78,533.92 C1139.78,529.556 1142.09,525.389 1146.72,521.42 C1151.34,517.451 1156.35,515.467 1161.75,515.467"/>
<path class="Note" d="M1290.23,502.967 C1293.36,502.967 1295.96,503.748 1298.05,505.311 C1300.13,506.873 1301.17,509.118 1301.17,512.045 C1301.17,516.535 1298.85,520.733 1294.2,524.639 C1289.54,528.545 1284.55,530.498 1279.2,530.498 C1276.08,530.498 1273.44,529.686 1271.3,528.061 C1269.28,526.3 1268.27,524.087 1268.27,521.42 C1268.27,517.056 1270.58,512.889 1275.2,508.92 C1279.83,504.951 1284.84,502.967 1290.23,502.967"/>
<path class="Note" d="M361.842,590.467 C364.967,590.467 367.571,591.248 369.654,592.811 C371.738,594.373 372.779,596.618 372.779,599.545 C372.779,604.035 370.454,608.233 365.803,612.139 C361.152,616.045 356.154,617.998 350.811,617.998 C347.686,617.998 345.05,617.186 342.904,615.561 C340.884,613.8 339.873,611.587 339.873,608.92 C339.873,604.556 342.186,600.389 346.811,596.42 C351.436,592.451 356.446,590.467 361.842,590.467"/>
<path class="Clef" d="M203.623,673.858 L203.623,671.717 C203.56,670.613 203.399,668.889 203.139,666.545 C199.889,667.066 196.993,667.326 194.451,667.326 C185.337,667.326 177.605,663.727 171.256,656.53 C164.907,649.332 161.732,640.754 161.732,630.795 C161.732,628.129 162.253,624.923 163.295,621.178 C164.337,617.433 165.297,614.925 166.178,613.655 C167.058,612.384 168.378,610.155 170.139,606.967 C170.659,605.988 172.352,603.837 175.217,600.514 C175.738,599.806 176.193,599.222 176.584,598.764 C176.975,598.306 177.607,597.49 178.482,596.319 C179.357,595.147 180.3,594.056 181.31,593.045 C182.321,592.035 183.217,591.058 183.998,590.115 C184.779,589.173 185.498,588.379 186.154,587.733 C183.81,579.983 182.378,574.024 181.857,569.858 C181.337,565.691 181.076,560.579 181.076,554.522 C181.076,548.464 182.378,542.962 184.982,538.014 C187.514,532.879 191.06,528.681 195.623,525.42 C195.883,525.222 196.225,525.123 196.646,525.123 C197.068,525.123 197.378,525.222 197.576,525.42 C201.087,529.649 204.128,535.149 206.701,541.92 C209.274,548.691 210.56,555.024 210.56,560.92 C210.56,566.816 209.066,572.498 206.076,577.967 C202.691,583.759 198.326,589.748 192.982,595.936 C194.347,600.227 196.17,606.962 198.451,616.139 L199.045,616.139 C199.305,616.076 199.529,616.045 199.717,616.045 C207.081,616.045 213.089,618.634 217.74,623.811 C222.391,628.988 224.717,634.962 224.717,641.733 C224.717,650.129 221.238,656.899 214.279,662.045 C212.258,663.545 209.878,664.717 207.139,665.561 C207.472,669.79 207.639,672.605 207.639,674.006 C207.639,675.407 207.571,677.899 207.435,681.483 C207.373,687.597 205.29,692.837 201.185,697.201 C197.081,701.566 192.394,703.748 187.123,703.748 C181.852,703.748 177.36,701.876 173.646,698.131 C169.933,694.386 168.076,689.847 168.076,684.514 C168.076,681.712 169.154,679.332 171.31,677.373 C173.519,675.425 176.006,674.451 178.771,674.451 C181.537,674.451 183.8,675.462 185.56,677.483 C187.383,679.368 188.295,681.644 188.295,684.311 C188.295,686.977 187.383,689.222 185.56,691.045 C183.738,692.868 181.555,693.78 179.014,693.78 C177.972,693.78 176.967,693.587 175.998,693.201 C178.863,697.431 182.54,699.545 187.029,699.545 C191.519,699.545 195.36,697.691 198.553,693.983 C201.745,690.274 203.342,685.91 203.342,680.889 L203.623,673.858 M206.748,661.561 C210.133,660.321 212.821,658.123 214.81,654.967 C216.8,651.811 217.795,648.67 217.795,645.545 C217.795,640.92 216.199,636.785 213.006,633.139 C209.813,629.493 205.774,627.441 200.889,626.983 C203.691,640.722 205.644,652.248 206.748,661.561 M168.967,638.998 C168.967,645.446 171.537,651.079 176.678,655.897 C181.818,660.714 187.842,663.123 194.748,663.123 C197.477,663.123 200.144,662.925 202.748,662.53 C201.706,652.634 199.654,640.785 196.592,626.983 C192.758,627.379 189.782,628.699 187.662,630.944 C185.542,633.188 184.482,635.743 184.482,638.608 C184.482,643.556 187.123,647.561 192.404,650.623 C192.852,650.884 193.076,651.324 193.076,651.944 C193.076,652.563 192.865,653.1 192.443,653.553 C192.021,654.006 191.649,654.233 191.326,654.233 C191.003,654.233 190.581,654.17 190.06,654.045 C182.435,649.879 178.623,643.592 178.623,635.186 C178.623,631.217 180.024,627.41 182.826,623.764 C185.753,620.118 189.56,617.774 194.248,616.733 C192.425,609.441 190.93,603.743 189.764,599.639 C180.847,609.67 175.31,617.092 173.154,621.905 C170.363,628.155 168.967,633.852 168.967,638.998 M201.576,539.686 C196.691,542.092 192.834,545.574 190.006,550.131 C187.178,554.688 185.764,559.472 185.764,564.483 C185.764,569.493 186.935,575.972 189.279,583.92 C193.967,578.254 197.514,572.946 199.92,567.998 C202.326,563.05 203.529,558.152 203.529,553.303 C203.529,548.454 202.878,543.915 201.576,539.686"/>
<path class="TimeSig" d="M273.021,567.912 C274.516,567.912 275.949,567.686 277.318,567.233 C278.688,566.78 279.665,566.553 280.248,566.553 C280.831,566.553 281.222,566.907 281.42,567.615 C281.42,567.688 281.352,567.886 281.217,568.209 L252.811,601.225 L269.498,601.225 L269.498,588.131 C269.498,586.506 270.446,585.334 272.342,584.615 C274.29,583.897 276.503,581.001 278.982,575.928 C279.17,575.532 279.462,575.334 279.857,575.334 C280.639,575.334 281.092,575.793 281.217,576.709 L281.217,601.225 L288.357,601.225 C289.264,601.225 289.751,601.712 289.818,602.686 C289.886,603.66 289.399,604.147 288.357,604.147 L281.217,604.147 L281.217,604.928 C281.217,607.532 281.868,609.746 283.17,611.569 C284.67,613.391 286.43,614.303 288.451,614.303 C289.232,614.303 289.623,614.694 289.623,615.475 C289.623,616.256 289.087,616.647 288.014,616.647 C286.941,616.647 284.938,616.436 282.006,616.014 C279.074,615.592 276.811,615.381 275.217,615.381 C273.623,615.381 271.41,615.592 268.576,616.014 C265.743,616.436 263.613,616.647 262.186,616.647 C261.404,616.647 261.014,616.256 261.014,615.475 C261.014,614.694 261.404,614.303 262.186,614.303 C264.196,614.303 265.951,613.391 267.451,611.569 C268.816,609.683 269.498,607.47 269.498,604.928 L269.498,604.147 L252.811,604.147 C251.956,604.147 251.219,603.92 250.6,603.467 C249.98,603.014 249.67,602.592 249.67,602.201 C249.67,601.811 250.485,600.639 252.115,598.686 C253.745,596.733 256.074,592.972 259.1,587.405 C262.126,581.837 263.639,575.438 263.639,568.209 C263.639,567.168 264.097,566.647 265.014,566.647 C265.212,566.647 265.521,566.712 265.943,566.842 C266.365,566.972 267.277,567.183 268.678,567.475 C270.079,567.766 271.527,567.912 273.021,567.912"/>
<path class="TimeSig" d="M273.021,618.084 C274.516,618.084 275.949,617.858 277.318,617.405 C278.688,616.951 279.665,616.725 280.248,616.725 C280.831,616.725 281.222,617.079 281.42,617.787 C281.42,617.86 281.352,618.058 281.217,618.381 L252.811,651.397 L269.498,651.397 L269.498,638.303 C269.498,636.678 270.446,635.506 272.342,634.787 C274.29,634.069 276.503,631.173 278.982,626.1 C279.17,625.704 279.462,625.506 279.857,625.506 C280.639,625.506 281.092,625.964 281.217,626.881 L281.217,651.397 L288.357,651.397 C289.264,651.397 289.751,651.884 289.818,652.858 C289.886,653.832 289.399,654.319 288.357,654.319 L281.217,654.319 L281.217,655.1 C281.217,657.704 281.868,659.918 283.17,661.74 C284.67,663.563 286.43,664.475 288.451,664.475 C289.232,664.475 289.623,664.865 289.623,665.647 C289.623,666.428 289.087,666.819 288.014,666.819 C286.941,666.819 284.938,666.608 282.006,666.186 C279.074,665.764 276.811,665.553 275.217,665.553 C273.623,665.553 271.41,665.764 268.576,666.186 C265.743,666.608 263.613,666.819 262.186,666.819 C261.404,666.819 261.014,666.428 261.014,665.647 C261.014,664.865 261.404,664.475 262.186,664.475 C264.196,664.475 265.951,663.563 267.451,661.74 C268.816,659.855 269.498,657.642 269.498,655.1 L269.498,654.319 L252.811,654.319 C251.956,654.319 251.219,654.092 250.6,653.639 C249.98,653.186 249.67,652.764 249.67,652.373 C249.67,651.983 250.485,650.811 252.115,648.858 C253.745,646.905 256.074,643.144 259.1,637.576 C262.126,632.009 263.639,625.61 263.639,618.381 C263.639,617.339 264.097,616.819 265.014,616.819 C265.212,616.819 265.521,616.884 265.943,617.014 C266.365,617.144 267.277,617.355 268.678,617.647 C270.079,617.938 271.527,618.084 273.021,618.084"/>
<path class="Rest" d="M1575.58,607.358 L1540.03,607.358 C1539.37,607.358 1539.05,607.035 1539.05,606.389 L1539.05,592.717 C1539.05,592.061 1539.37,591.733 1540.03,591.733 L1575.58,591.733 C1576.22,591.733 1576.55,592.061 1576.55,592.717 L1576.55,606.389 C1576.55,607.035 1576.22,607.358 1575.58,607.358"/>
</svg>
