<?xml version="1.0" encoding="UTF-8" standalone="no"?>
<svg width="2977.2px" height="4208.4px" viewBox="0 0 2977.2 4208.4"
 xmlns="http://www.w3.org/2000/svg" xmlns:xlink="http://www.w3.org/1999/xlink" version="1.2" baseProfile="tiny">
<title>A_Melodic_Minor.mscx</title>
<desc>Generated by MuseScore Studio 4.3.1</desc>
<path class="" fill="#ffffff" fill-rule="evenodd" d="M0,0 L2977.2,0 L2977.2,4208.4 L0,4208.4 L0,0 "/>
<polyline class="StaffLines" fill="none" stroke="#000000" stroke-width="2.00" stroke-linejoin="bevel" points="141.732,566.733 2835.47,566.733"/>
<polyline class="StaffLines" fill="none" stroke="#000000" stroke-width="2.00" stroke-linejoin="bevel" points="141.732,591.733 2835.47,591.733"/>
<polyline class="StaffLines" fill="none" stroke="#000000" stroke-width="2.00" stroke-linejoin="bevel" points="141.732,616.733 2835.47,616.733"/>
<polyline class="StaffLines" fill="none" stroke="#000000" stroke-width="2.00" stroke-linejoin="bevel" points="141.732,641.733 2835.47,641.733"/>
<polyline class="StaffLines" fill="none" stroke="#000000" stroke-width="2.00" stroke-linejoin="bevel" points="141.732,666.733 2835.47,666.733"/>
<polyline class="BarLine" fill="none" stroke="#000000" stroke-width="4.00" stroke-linejoin="bevel" points="2802.72,565.733 2802.72,667.733"/>
<polyline class="BarLine" fill="none" stroke="#000000" stroke-width="12.50" stroke-linejoin="bevel" points="2829.22,565.733 2829.22,667.733"/>
<polyline class="BarLine" fill="none" stroke="#000000" stroke-width="4.00" stroke-linejoin="bevel" points="862.182,565.733 862.182,667.733"/>
<polyline class="BarLine" fill="none" stroke="#000000" stroke-width="4.00" stroke-linejoin="bevel" points="1144.96,565.733 1144.96,667.733"/>
<polyline class="BarLine" fill="none" stroke="#000000" stroke-width="4.00" stroke-linejoin="bevel" points="1440.34,565.733 1440.34,667.733"/>
<polyline class="BarLine" fill="none" stroke="#000000" stroke-width="4.00" stroke-linejoin="bevel" points="579.402,565.733 579.402,667.733"/>
<polyline class="BarLine" fill="none" stroke="#000000" stroke-width="4.00" stroke-linejoin="bevel" points="1659,565.733 1659,667.733"/>
<polyline class="BarLine" fill="none" stroke="#000000" stroke-width="4.00" stroke-linejoin="bevel" points="1941.78,565.733 1941.78,667.733"/>
<polyline class="BarLine" fill="none" stroke="#000000" stroke-width="4.00" stroke-linejoin="bevel" points="2237.16,565.733 2237.16,667.733"/>
<polyline class="BarLine" fill="none" stroke="#000000" stroke-width="4.00" stroke-linejoin="bevel" points="2519.94,565.733 2519.94,667.733"/>
<path class="Accidental" d="M1805.02,532.264 C1806.45,531.868 1807.17,532.222 1807.17,533.326 L1807.17,541.139 C1807.17,541.92 1806.55,542.54 1805.31,542.998 L1802.09,544.264 L1802.09,558.436 L1805.02,557.264 C1806.45,556.868 1807.17,557.227 1807.17,558.342 L1807.17,566.154 C1807.17,566.936 1806.55,567.55 1805.31,567.998 L1802.09,569.279 L1802.09,585.483 C1802.09,586.722 1801.6,587.342 1800.63,587.342 C1799.65,587.342 1799.16,586.722 1799.16,585.483 L1799.16,570.451 L1789.88,574.154 L1789.88,590.264 C1789.88,591.503 1789.39,592.123 1788.41,592.123 C1787.44,592.123 1786.95,591.503 1786.95,590.264 L1786.95,575.326 L1784.41,576.404 C1783.04,576.988 1782.36,576.597 1782.36,575.233 L1782.36,567.514 C1782.36,566.868 1782.95,566.285 1784.13,565.764 L1786.95,564.592 L1786.95,550.326 L1784.41,551.404 C1783.04,551.988 1782.36,551.597 1782.36,550.233 L1782.36,542.514 C1782.36,541.858 1782.95,541.269 1784.13,540.748 L1786.95,539.576 L1786.95,523.467 C1786.95,522.227 1787.44,521.608 1788.41,521.608 C1789.39,521.608 1789.88,522.227 1789.88,523.467 L1789.88,538.404 L1799.16,534.608 L1799.16,518.686 C1799.16,517.446 1799.65,516.826 1800.63,516.826 C1801.6,516.826 1802.09,517.446 1802.09,518.686 L1802.09,533.436 L1805.02,532.264 M1789.88,549.154 L1789.88,563.42 L1799.16,559.608 L1799.16,545.436 L1789.88,549.154 "/>
<path class="Accidental" d="M1008.2,544.764 C1009.64,544.368 1010.35,544.722 1010.35,545.826 L1010.35,553.639 C1010.35,554.42 1009.73,555.04 1008.5,555.498 L1005.28,556.764 L1005.28,570.936 L1008.2,569.764 C1009.64,569.368 1010.35,569.727 1010.35,570.842 L1010.35,578.655 C1010.35,579.436 1009.73,580.05 1008.5,580.498 L1005.28,581.78 L1005.28,597.983 C1005.28,599.222 1004.79,599.842 1003.81,599.842 C1002.83,599.842 1002.34,599.222 1002.34,597.983 L1002.34,582.951 L993.058,586.655 L993.058,602.764 C993.058,604.003 992.571,604.623 991.597,604.623 C990.623,604.623 990.136,604.003 990.136,602.764 L990.136,587.826 L987.589,588.905 C986.224,589.488 985.542,589.097 985.542,587.733 L985.542,580.014 C985.542,579.368 986.131,578.785 987.308,578.264 L990.136,577.092 L990.136,562.826 L987.589,563.905 C986.224,564.488 985.542,564.097 985.542,562.733 L985.542,555.014 C985.542,554.358 986.131,553.769 987.308,553.248 L990.136,552.076 L990.136,535.967 C990.136,534.727 990.623,534.108 991.597,534.108 C992.571,534.108 993.058,534.727 993.058,535.967 L993.058,550.905 L1002.34,547.108 L1002.34,531.186 C1002.34,529.946 1002.83,529.326 1003.81,529.326 C1004.79,529.326 1005.28,529.946 1005.28,531.186 L1005.28,545.936 L1008.2,544.764 M993.058,561.655 L993.058,575.92 L1002.34,572.108 L1002.34,557.936 L993.058,561.655 "/>
<path class="Accidental" d="M1973.96,544.764 C1975.4,544.368 1976.11,544.722 1976.11,545.826 L1976.11,553.639 C1976.11,554.42 1975.5,555.04 1974.26,555.498 L1971.04,556.764 L1971.04,570.936 L1973.96,569.764 C1975.4,569.368 1976.11,569.727 1976.11,570.842 L1976.11,578.655 C1976.11,579.436 1975.5,580.05 1974.26,580.498 L1971.04,581.78 L1971.04,597.983 C1971.04,599.222 1970.55,599.842 1969.57,599.842 C1968.59,599.842 1968.1,599.222 1968.1,597.983 L1968.1,582.951 L1958.82,586.655 L1958.82,602.764 C1958.82,604.003 1958.33,604.623 1957.36,604.623 C1956.38,604.623 1955.9,604.003 1955.9,602.764 L1955.9,587.826 L1953.35,588.905 C1951.98,589.488 1951.3,589.097 1951.3,587.733 L1951.3,580.014 C1951.3,579.368 1951.89,578.785 1953.07,578.264 L1955.9,577.092 L1955.9,562.826 L1953.35,563.905 C1951.98,564.488 1951.3,564.097 1951.3,562.733 L1951.3,555.014 C1951.3,554.358 1951.89,553.769 1953.07,553.248 L1955.9,552.076 L1955.9,535.967 C1955.9,534.727 1956.38,534.108 1957.36,534.108 C1958.33,534.108 1958.82,534.727 1958.82,535.967 L1958.82,550.905 L1968.1,547.108 L1968.1,531.186 C1968.1,529.946 1968.59,529.326 1969.57,529.326 C1970.55,529.326 1971.04,529.946 1971.04,531.186 L1971.04,545.936 L1973.96,544.764 M1958.82,561.655 L1958.82,575.92 L1968.1,572.108 L1968.1,557.936 L1958.82,561.655 "/>
<path class="Accidental" d="M1177.14,532.264 C1178.58,531.868 1179.3,532.222 1179.3,533.326 L1179.3,541.139 C1179.3,541.92 1178.68,542.54 1177.44,542.998 L1174.22,544.264 L1174.22,558.436 L1177.14,557.264 C1178.58,556.868 1179.3,557.227 1179.3,558.342 L1179.3,566.154 C1179.3,566.936 1178.68,567.55 1177.44,567.998 L1174.22,569.279 L1174.22,585.483 C1174.22,586.722 1173.73,587.342 1172.75,587.342 C1171.77,587.342 1171.28,586.722 1171.28,585.483 L1171.28,570.451 L1162,574.154 L1162,590.264 C1162,591.503 1161.51,592.123 1160.54,592.123 C1159.57,592.123 1159.08,591.503 1159.08,590.264 L1159.08,575.326 L1156.53,576.404 C1155.17,576.988 1154.48,576.597 1154.48,575.233 L1154.48,567.514 C1154.48,566.868 1155.07,566.285 1156.25,565.764 L1159.08,564.592 L1159.08,550.326 L1156.53,551.404 C1155.17,551.988 1154.48,551.597 1154.48,550.233 L1154.48,542.514 C1154.48,541.858 1155.07,541.269 1156.25,540.748 L1159.08,539.576 L1159.08,523.467 C1159.08,522.227 1159.57,521.608 1160.54,521.608 C1161.51,521.608 1162,522.227 1162,523.467 L1162,538.404 L1171.28,534.608 L1171.28,518.686 C1171.28,517.446 1171.77,516.826 1172.75,516.826 C1173.73,516.826 1174.22,517.446 1174.22,518.686 L1174.22,533.436 L1177.14,532.264 M1162,549.154 L1162,563.42 L1171.28,559.608 L1171.28,545.436 L1162,549.154 "/>
<polyline class="LedgerLine" fill="none" stroke="#000000" stroke-width="4.00" stroke-linejoin="bevel" points="1676.5,541.733 1730.22,541.733"/>
<polyline class="LedgerLine" fill="none" stroke="#000000" stroke-width="4.00" stroke-linejoin="bevel" points="1301.5,541.733 1355.22,541.733"/>
<polyline class="Stem" fill="none" stroke="#000000" stroke-width="3.25" stroke-linejoin="bevel" points="1814.06,559.133 1814.06,641.733"/>
<polyline class="Stem" fill="none" stroke="#000000" stroke-width="3.25" stroke-linejoin="bevel" points="1687.62,546.633 1687.62,629.233"/>
<polyline class="Stem" fill="none" stroke="#000000" stroke-width="3.25" stroke-linejoin="bevel" points="451.687,621.633 451.687,691.733"/>
<polyline class="Stem" fill="none" stroke="#000000" stroke-width="3.25" stroke-linejoin="bevel" points="2548.56,621.633 2548.56,691.733"/>
<polyline class="Stem" fill="none" stroke="#000000" stroke-width="3.25" stroke-linejoin="bevel" points="1983.01,571.633 1983.01,654.233"/>
<polyline class="Stem" fill="none" stroke="#000000" stroke-width="3.25" stroke-linejoin="bevel" points="1312.63,546.633 1312.63,629.233"/>
<polyline class="Stem" fill="none" stroke="#000000" stroke-width="3.25" stroke-linejoin="bevel" points="1186.19,559.133 1186.19,641.733"/>
<polyline class="Stem" fill="none" stroke="#000000" stroke-width="3.25" stroke-linejoin="bevel" points="608.027,609.133 608.027,685.483"/>
<polyline class="Stem" fill="none" stroke="#000000" stroke-width="3.25" stroke-linejoin="bevel" points="2109.44,584.133 2109.44,666.733"/>
<polyline class="Stem" fill="none" stroke="#000000" stroke-width="3.25" stroke-linejoin="bevel" points="2706.47,624.433 2706.47,547.983"/>
<polyline class="Stem" fill="none" stroke="#000000" stroke-width="3.25" stroke-linejoin="bevel" points="1017.25,571.633 1017.25,654.233"/>
<polyline class="Stem" fill="none" stroke="#000000" stroke-width="3.25" stroke-linejoin="bevel" points="2392.22,609.133 2392.22,685.483"/>
<polyline class="Stem" fill="none" stroke="#000000" stroke-width="3.25" stroke-linejoin="bevel" points="356.717,624.433 356.717,547.983"/>
<polyline class="Stem" fill="none" stroke="#000000" stroke-width="3.25" stroke-linejoin="bevel" points="734.466,596.633 734.466,679.233"/>
<polyline class="Stem" fill="none" stroke="#000000" stroke-width="3.25" stroke-linejoin="bevel" points="890.807,584.133 890.807,666.733"/>
<polyline class="Stem" fill="none" stroke="#000000" stroke-width="3.25" stroke-linejoin="bevel" points="2265.78,596.633 2265.78,679.233"/>
<path class="Note" d="M740.263,602.373 C742.148,602.373 746.104,600.42 752.13,596.514 C758.156,592.608 761.705,589.988 762.778,588.655 C763.851,587.321 764.388,586.134 764.388,585.092 C764.388,584.05 763.963,583.123 763.114,582.311 C762.265,581.498 761.289,581.092 760.185,581.092 C758.237,581.092 754.25,583.061 748.224,586.998 C742.198,590.936 738.664,593.556 737.622,594.858 C736.58,596.16 736.06,597.332 736.06,598.373 C736.06,599.415 736.468,600.342 737.286,601.155 C738.104,601.967 739.096,602.373 740.263,602.373 M759.216,577.967 C764.81,577.967 767.606,580.373 767.606,585.186 C767.606,587.53 766.924,590.248 765.56,593.342 C764.195,596.436 762.372,598.795 760.091,600.42 C755.08,603.806 748.799,605.498 741.247,605.498 C735.643,605.498 732.841,603.092 732.841,598.28 C732.841,596.134 733.508,593.464 734.841,590.272 C736.174,587.079 738.013,584.67 740.356,583.045 C745.377,579.66 751.664,577.967 759.216,577.967"/>
<path class="Note" d="M1819.86,564.873 C1821.75,564.873 1825.7,562.92 1831.73,559.014 C1837.75,555.108 1841.3,552.488 1842.38,551.154 C1843.45,549.821 1843.98,548.634 1843.98,547.592 C1843.98,546.55 1843.56,545.623 1842.71,544.811 C1841.86,543.998 1840.89,543.592 1839.78,543.592 C1837.83,543.592 1833.85,545.561 1827.82,549.498 C1821.79,553.436 1818.26,556.056 1817.22,557.358 C1816.18,558.66 1815.66,559.832 1815.66,560.873 C1815.66,561.915 1816.07,562.842 1816.88,563.654 C1817.7,564.467 1818.69,564.873 1819.86,564.873 M1838.81,540.467 C1844.41,540.467 1847.2,542.873 1847.2,547.686 C1847.2,550.029 1846.52,552.748 1845.16,555.842 C1843.79,558.936 1841.97,561.295 1839.69,562.92 C1834.68,566.306 1828.4,567.998 1820.84,567.998 C1815.24,567.998 1812.44,565.592 1812.44,560.779 C1812.44,558.634 1813.1,555.964 1814.44,552.772 C1815.77,549.579 1817.61,547.17 1819.95,545.545 C1824.97,542.16 1831.26,540.467 1838.81,540.467"/>
<path class="Note" d="M2271.58,602.373 C2273.47,602.373 2277.42,600.42 2283.45,596.514 C2289.47,592.608 2293.02,589.988 2294.1,588.655 C2295.17,587.321 2295.71,586.134 2295.71,585.092 C2295.71,584.05 2295.28,583.123 2294.43,582.311 C2293.58,581.498 2292.61,581.092 2291.5,581.092 C2289.56,581.092 2285.57,583.061 2279.54,586.998 C2273.52,590.936 2269.98,593.556 2268.94,594.858 C2267.9,596.16 2267.38,597.332 2267.38,598.373 C2267.38,599.415 2267.79,600.342 2268.61,601.155 C2269.42,601.967 2270.41,602.373 2271.58,602.373 M2290.53,577.967 C2296.13,577.967 2298.93,580.373 2298.93,585.186 C2298.93,587.53 2298.24,590.248 2296.88,593.342 C2295.51,596.436 2293.69,598.795 2291.41,600.42 C2286.4,603.806 2280.12,605.498 2272.57,605.498 C2266.96,605.498 2264.16,603.092 2264.16,598.28 C2264.16,596.134 2264.83,593.464 2266.16,590.272 C2267.49,587.079 2269.33,584.67 2271.68,583.045 C2276.7,579.66 2282.98,577.967 2290.53,577.967"/>
<path class="Note" d="M331.045,639.873 C332.93,639.873 336.886,637.92 342.912,634.014 C348.938,630.108 352.488,627.488 353.561,626.155 C354.634,624.821 355.17,623.634 355.17,622.592 C355.17,621.55 354.745,620.623 353.897,619.811 C353.048,618.998 352.071,618.592 350.967,618.592 C349.019,618.592 345.032,620.561 339.006,624.498 C332.98,628.436 329.446,631.056 328.404,632.358 C327.363,633.66 326.842,634.832 326.842,635.873 C326.842,636.915 327.251,637.842 328.068,638.655 C328.886,639.467 329.878,639.873 331.045,639.873 M349.998,615.467 C355.592,615.467 358.389,617.873 358.389,622.686 C358.389,625.03 357.706,627.748 356.342,630.842 C354.977,633.936 353.154,636.295 350.873,637.92 C345.863,641.306 339.581,642.998 332.029,642.998 C326.425,642.998 323.623,640.592 323.623,635.78 C323.623,633.634 324.29,630.964 325.623,627.772 C326.956,624.579 328.795,622.17 331.139,620.545 C336.16,617.16 342.446,615.467 349.998,615.467"/>
<path class="Note" d="M1988.8,577.373 C1990.69,577.373 1994.64,575.42 2000.67,571.514 C2006.7,567.608 2010.25,564.988 2011.32,563.655 C2012.39,562.321 2012.93,561.134 2012.93,560.092 C2012.93,559.05 2012.5,558.123 2011.65,557.311 C2010.8,556.498 2009.83,556.092 2008.72,556.092 C2006.78,556.092 2002.79,558.061 1996.76,561.998 C1990.74,565.936 1987.2,568.556 1986.16,569.858 C1985.12,571.16 1984.6,572.332 1984.6,573.373 C1984.6,574.415 1985.01,575.342 1985.83,576.155 C1986.64,576.967 1987.64,577.373 1988.8,577.373 M2007.76,552.967 C2013.35,552.967 2016.15,555.373 2016.15,560.186 C2016.15,562.53 2015.46,565.248 2014.1,568.342 C2012.73,571.436 2010.91,573.795 2008.63,575.42 C2003.62,578.806 1997.34,580.498 1989.79,580.498 C1984.18,580.498 1981.38,578.092 1981.38,573.28 C1981.38,571.134 1982.05,568.464 1983.38,565.272 C1984.71,562.079 1986.55,559.67 1988.9,558.045 C1993.92,554.66 2000.2,552.967 2007.76,552.967"/>
<path class="Note" d="M2115.24,589.873 C2117.13,589.873 2121.08,587.92 2127.11,584.014 C2133.13,580.108 2136.68,577.488 2137.76,576.155 C2138.83,574.821 2139.37,573.634 2139.37,572.592 C2139.37,571.55 2138.94,570.623 2138.09,569.811 C2137.24,568.998 2136.27,568.592 2135.16,568.592 C2133.21,568.592 2129.23,570.561 2123.2,574.498 C2117.18,578.436 2113.64,581.056 2112.6,582.358 C2111.56,583.66 2111.04,584.832 2111.04,585.873 C2111.04,586.915 2111.45,587.842 2112.26,588.655 C2113.08,589.467 2114.07,589.873 2115.24,589.873 M2134.19,565.467 C2139.79,565.467 2142.58,567.873 2142.58,572.686 C2142.58,575.03 2141.9,577.748 2140.54,580.842 C2139.17,583.936 2137.35,586.295 2135.07,587.92 C2130.06,591.306 2123.78,592.998 2116.23,592.998 C2110.62,592.998 2107.82,590.592 2107.82,585.78 C2107.82,583.634 2108.49,580.964 2109.82,577.772 C2111.15,574.579 2112.99,572.17 2115.33,570.545 C2120.36,567.16 2126.64,565.467 2134.19,565.467"/>
<path class="Note" d="M2398.02,614.873 C2399.91,614.873 2403.86,612.92 2409.89,609.014 C2415.91,605.108 2419.46,602.488 2420.54,601.155 C2421.61,599.821 2422.15,598.634 2422.15,597.592 C2422.15,596.55 2421.72,595.623 2420.87,594.811 C2420.02,593.998 2419.05,593.592 2417.94,593.592 C2415.99,593.592 2412.01,595.561 2405.98,599.498 C2399.95,603.436 2396.42,606.056 2395.38,607.358 C2394.34,608.66 2393.82,609.832 2393.82,610.873 C2393.82,611.915 2394.23,612.842 2395.04,613.655 C2395.86,614.467 2396.85,614.873 2398.02,614.873 M2416.97,590.467 C2422.57,590.467 2425.36,592.873 2425.36,597.686 C2425.36,600.03 2424.68,602.748 2423.32,605.842 C2421.95,608.936 2420.13,611.295 2417.85,612.92 C2412.84,616.306 2406.56,617.998 2399,617.998 C2393.4,617.998 2390.6,615.592 2390.6,610.78 C2390.6,608.634 2391.26,605.964 2392.6,602.772 C2393.93,599.579 2395.77,597.17 2398.11,595.545 C2403.13,592.16 2409.42,590.467 2416.97,590.467"/>
<path class="Note" d="M1693.42,552.373 C1695.31,552.373 1699.26,550.42 1705.29,546.514 C1711.31,542.608 1714.86,539.988 1715.94,538.654 C1717.01,537.321 1717.55,536.134 1717.55,535.092 C1717.55,534.05 1717.12,533.123 1716.27,532.311 C1715.42,531.498 1714.45,531.092 1713.34,531.092 C1711.4,531.092 1707.41,533.061 1701.38,536.998 C1695.36,540.936 1691.82,543.556 1690.78,544.858 C1689.74,546.16 1689.22,547.332 1689.22,548.373 C1689.22,549.415 1689.63,550.342 1690.44,551.154 C1691.26,551.967 1692.25,552.373 1693.42,552.373 M1712.37,527.967 C1717.97,527.967 1720.77,530.373 1720.77,535.186 C1720.77,537.529 1720.08,540.248 1718.72,543.342 C1717.35,546.436 1715.53,548.795 1713.25,550.42 C1708.24,553.806 1701.96,555.498 1694.41,555.498 C1688.8,555.498 1686,553.092 1686,548.279 C1686,546.134 1686.67,543.464 1688,540.272 C1689.33,537.079 1691.17,534.67 1693.52,533.045 C1698.54,529.66 1704.82,527.967 1712.37,527.967"/>
<path class="Note" d="M457.483,627.373 C459.369,627.373 463.325,625.42 469.351,621.514 C475.377,617.608 478.926,614.988 479.999,613.655 C481.072,612.321 481.608,611.134 481.608,610.092 C481.608,609.05 481.184,608.123 480.335,607.311 C479.486,606.498 478.509,606.092 477.405,606.092 C475.457,606.092 471.47,608.061 465.444,611.998 C459.418,615.936 455.884,618.556 454.843,619.858 C453.801,621.16 453.28,622.332 453.28,623.373 C453.28,624.415 453.689,625.342 454.507,626.155 C455.325,626.967 456.317,627.373 457.483,627.373 M476.437,602.967 C482.03,602.967 484.827,605.373 484.827,610.186 C484.827,612.53 484.145,615.248 482.78,618.342 C481.416,621.436 479.593,623.795 477.312,625.42 C472.301,628.806 466.02,630.498 458.468,630.498 C452.864,630.498 450.062,628.092 450.062,623.28 C450.062,621.134 450.728,618.464 452.062,615.272 C453.395,612.079 455.233,609.67 457.577,608.045 C462.598,604.66 468.884,602.967 476.437,602.967"/>
<path class="Note" d="M2554.36,627.373 C2556.25,627.373 2560.2,625.42 2566.23,621.514 C2572.25,617.608 2575.8,614.988 2576.88,613.655 C2577.95,612.321 2578.49,611.134 2578.49,610.092 C2578.49,609.05 2578.06,608.123 2577.21,607.311 C2576.36,606.498 2575.39,606.092 2574.28,606.092 C2572.33,606.092 2568.35,608.061 2562.32,611.998 C2556.3,615.936 2552.76,618.556 2551.72,619.858 C2550.68,621.16 2550.16,622.332 2550.16,623.373 C2550.16,624.415 2550.57,625.342 2551.38,626.155 C2552.2,626.967 2553.19,627.373 2554.36,627.373 M2573.31,602.967 C2578.91,602.967 2581.7,605.373 2581.7,610.186 C2581.7,612.53 2581.02,615.248 2579.66,618.342 C2578.29,621.436 2576.47,623.795 2574.19,625.42 C2569.18,628.806 2562.9,630.498 2555.35,630.498 C2549.74,630.498 2546.94,628.092 2546.94,623.28 C2546.94,621.134 2547.61,618.464 2548.94,615.272 C2550.27,612.079 2552.11,609.67 2554.45,608.045 C2559.48,604.66 2565.76,602.967 2573.31,602.967"/>
<path class="Note" d="M1318.42,552.373 C1320.31,552.373 1324.26,550.42 1330.29,546.514 C1336.32,542.608 1339.87,539.988 1340.94,538.654 C1342.01,537.321 1342.55,536.134 1342.55,535.092 C1342.55,534.05 1342.12,533.123 1341.27,532.311 C1340.43,531.498 1339.45,531.092 1338.34,531.092 C1336.4,531.092 1332.41,533.061 1326.38,536.998 C1320.36,540.936 1316.82,543.556 1315.78,544.858 C1314.74,546.16 1314.22,547.332 1314.22,548.373 C1314.22,549.415 1314.63,550.342 1315.45,551.154 C1316.26,551.967 1317.26,552.373 1318.42,552.373 M1337.38,527.967 C1342.97,527.967 1345.77,530.373 1345.77,535.186 C1345.77,537.529 1345.08,540.248 1343.72,543.342 C1342.36,546.436 1340.53,548.795 1338.25,550.42 C1333.24,553.806 1326.96,555.498 1319.41,555.498 C1313.8,555.498 1311,553.092 1311,548.279 C1311,546.134 1311.67,543.464 1313,540.272 C1314.33,537.079 1316.17,534.67 1318.52,533.045 C1323.54,529.66 1329.82,527.967 1337.38,527.967"/>
<path class="Note" d="M1191.98,564.873 C1193.87,564.873 1197.83,562.92 1203.85,559.014 C1209.88,555.108 1213.43,552.488 1214.5,551.154 C1215.57,549.821 1216.11,548.634 1216.11,547.592 C1216.11,546.55 1215.68,545.623 1214.84,544.811 C1213.99,543.998 1213.01,543.592 1211.91,543.592 C1209.96,543.592 1205.97,545.561 1199.95,549.498 C1193.92,553.436 1190.39,556.056 1189.34,557.358 C1188.3,558.66 1187.78,559.832 1187.78,560.873 C1187.78,561.915 1188.19,562.842 1189.01,563.654 C1189.83,564.467 1190.82,564.873 1191.98,564.873 M1210.94,540.467 C1216.53,540.467 1219.33,542.873 1219.33,547.686 C1219.33,550.029 1218.65,552.748 1217.28,555.842 C1215.92,558.936 1214.09,561.295 1211.81,562.92 C1206.8,566.306 1200.52,567.998 1192.97,567.998 C1187.36,567.998 1184.56,565.592 1184.56,560.779 C1184.56,558.634 1185.23,555.964 1186.56,552.772 C1187.9,549.579 1189.73,547.17 1192.08,545.545 C1197.1,542.16 1203.39,540.467 1210.94,540.467"/>
<path class="Note" d="M613.824,614.873 C615.71,614.873 619.665,612.92 625.691,609.014 C631.718,605.108 635.267,602.488 636.34,601.155 C637.413,599.821 637.949,598.634 637.949,597.592 C637.949,596.55 637.525,595.623 636.676,594.811 C635.827,593.998 634.85,593.592 633.746,593.592 C631.798,593.592 627.811,595.561 621.785,599.498 C615.759,603.436 612.225,606.056 611.184,607.358 C610.142,608.66 609.621,609.832 609.621,610.873 C609.621,611.915 610.03,612.842 610.848,613.655 C611.665,614.467 612.658,614.873 613.824,614.873 M632.777,590.467 C638.371,590.467 641.168,592.873 641.168,597.686 C641.168,600.03 640.486,602.748 639.121,605.842 C637.757,608.936 635.934,611.295 633.652,612.92 C628.642,616.306 622.361,617.998 614.809,617.998 C609.204,617.998 606.402,615.592 606.402,610.78 C606.402,608.634 607.069,605.964 608.402,602.772 C609.736,599.579 611.574,597.17 613.918,595.545 C618.939,592.16 625.225,590.467 632.777,590.467"/>
<path class="Note" d="M1023.04,577.373 C1024.93,577.373 1028.88,575.42 1034.91,571.514 C1040.94,567.608 1044.48,564.988 1045.56,563.655 C1046.63,562.321 1047.17,561.134 1047.17,560.092 C1047.17,559.05 1046.74,558.123 1045.89,557.311 C1045.04,556.498 1044.07,556.092 1042.96,556.092 C1041.02,556.092 1037.03,558.061 1031,561.998 C1024.98,565.936 1021.44,568.556 1020.4,569.858 C1019.36,571.16 1018.84,572.332 1018.84,573.373 C1018.84,574.415 1019.25,575.342 1020.07,576.155 C1020.88,576.967 1021.88,577.373 1023.04,577.373 M1042,552.967 C1047.59,552.967 1050.39,555.373 1050.39,560.186 C1050.39,562.53 1049.7,565.248 1048.34,568.342 C1046.97,571.436 1045.15,573.795 1042.87,575.42 C1037.86,578.806 1031.58,580.498 1024.03,580.498 C1018.42,580.498 1015.62,578.092 1015.62,573.28 C1015.62,571.134 1016.29,568.464 1017.62,565.272 C1018.95,562.079 1020.79,559.67 1023.14,558.045 C1028.16,554.66 1034.44,552.967 1042,552.967"/>
<path class="Note" d="M2680.8,639.873 C2682.68,639.873 2686.64,637.92 2692.67,634.014 C2698.69,630.108 2702.24,627.488 2703.32,626.155 C2704.39,624.821 2704.92,623.634 2704.92,622.592 C2704.92,621.55 2704.5,620.623 2703.65,619.811 C2702.8,618.998 2701.83,618.592 2700.72,618.592 C2698.77,618.592 2694.79,620.561 2688.76,624.498 C2682.73,628.436 2679.2,631.056 2678.16,632.358 C2677.12,633.66 2676.6,634.832 2676.6,635.873 C2676.6,636.915 2677.01,637.842 2677.82,638.655 C2678.64,639.467 2679.63,639.873 2680.8,639.873 M2699.75,615.467 C2705.35,615.467 2708.14,617.873 2708.14,622.686 C2708.14,625.03 2707.46,627.748 2706.1,630.842 C2704.73,633.936 2702.91,636.295 2700.63,637.92 C2695.62,641.306 2689.34,642.998 2681.78,642.998 C2676.18,642.998 2673.38,640.592 2673.38,635.78 C2673.38,633.634 2674.04,630.964 2675.38,627.772 C2676.71,624.579 2678.55,622.17 2680.89,620.545 C2685.91,617.16 2692.2,615.467 2699.75,615.467"/>
<path class="Note" d="M896.604,589.873 C898.489,589.873 902.445,587.92 908.471,584.014 C914.497,580.108 918.046,577.488 919.119,576.155 C920.192,574.821 920.729,573.634 920.729,572.592 C920.729,571.55 920.304,570.623 919.455,569.811 C918.606,568.998 917.63,568.592 916.525,568.592 C914.578,568.592 910.591,570.561 904.565,574.498 C898.538,578.436 895.005,581.056 893.963,582.358 C892.921,583.66 892.4,584.832 892.4,585.873 C892.4,586.915 892.809,587.842 893.627,588.655 C894.445,589.467 895.437,589.873 896.604,589.873 M915.557,565.467 C921.15,565.467 923.947,567.873 923.947,572.686 C923.947,575.03 923.265,577.748 921.9,580.842 C920.536,583.936 918.713,586.295 916.432,587.92 C911.421,591.306 905.14,592.998 897.588,592.998 C891.984,592.998 889.182,590.592 889.182,585.78 C889.182,583.634 889.848,580.964 891.182,577.772 C892.515,574.579 894.354,572.17 896.697,570.545 C901.718,567.16 908.005,565.467 915.557,565.467"/>
<path class="Clef" d="M203.623,673.858 L203.623,671.717 C203.56,670.613 203.399,668.889 203.139,666.545 C199.889,667.066 196.993,667.326 194.451,667.326 C185.337,667.326 177.605,663.727 171.256,656.53 C164.907,649.332 161.732,640.754 161.732,630.795 C161.732,628.129 162.253,624.923 163.295,621.178 C164.337,617.433 165.297,614.925 166.178,613.655 C167.058,612.384 168.378,610.155 170.139,606.967 C170.659,605.988 172.352,603.837 175.217,600.514 C175.738,599.806 176.193,599.222 176.584,598.764 C176.975,598.306 177.607,597.49 178.482,596.319 C179.357,595.147 180.3,594.056 181.31,593.045 C182.321,592.035 183.217,591.058 183.998,590.115 C184.779,589.173 185.498,588.379 186.154,587.733 C183.81,579.983 182.378,574.024 181.857,569.858 C181.337,565.691 181.076,560.579 181.076,554.522 C181.076,548.464 182.378,542.962 184.982,538.014 C187.514,532.879 191.06,528.681 195.623,525.42 C195.883,525.222 196.225,525.123 196.646,525.123 C197.068,525.123 197.378,525.222 197.576,525.42 C201.087,529.649 204.128,535.149 206.701,541.92 C209.274,548.691 210.56,555.024 210.56,560.92 C210.56,566.816 209.066,572.498 206.076,577.967 C202.691,583.759 198.326,589.748 192.982,595.936 C194.347,600.227 196.17,606.962 198.451,616.139 L199.045,616.139 C199.305,616.076 199.529,616.045 199.717,616.045 C207.081,616.045 213.089,618.634 217.74,623.811 C222.391,628.988 224.717,634.962 224.717,641.733 C224.717,650.129 221.238,656.899 214.279,662.045 C212.258,663.545 209.878,664.717 207.139,665.561 C207.472,669.79 207.639,672.605 207.639,674.006 C207.639,675.407 207.571,677.899 207.435,681.483 C207.373,687.597 205.29,692.837 201.185,697.201 C197.081,701.566 192.394,703.748 187.123,703.748 C181.852,703.748 177.36,701.876 173.646,698.131 C169.933,694.386 168.076,689.847 168.076,684.514 C168.076,681.712 169.154,679.332 171.31,677.373 C173.519,675.425 176.006,674.451 178.771,674.451 C181.537,674.451 183.8,675.462 185.56,677.483 C187.383,679.368 188.295,681.644 188.295,684.311 C188.295,686.977 187.383,689.222 185.56,691.045 C183.738,692.868 181.555,693.78 179.014,693.78 C177.972,693.78 176.967,693.587 175.998,693.201 C178.863,697.431 182.54,699.545 187.029,699.545 C191.519,699.545 195.36,697.691 198.553,693.983 C201.745,690.274 203.342,685.91 203.342,680.889 L203.623,673.858 M206.748,661.561 C210.133,660.321 212.821,658.123 214.81,654.967 C216.8,651.811 217.795,648.67 217.795,645.545 C217.795,640.92 216.199,636.785 213.006,633.139 C209.813,629.493 205.774,627.441 200.889,626.983 C203.691,640.722 205.644,652.248 206.748,661.561 M168.967,638.998 C168.967,645.446 171.537,651.079 176.678,655.897 C181.818,660.714 187.842,663.123 194.748,663.123 C197.477,663.123 200.144,662.925 202.748,662.53 C201.706,652.634 199.654,640.785 196.592,626.983 C192.758,627.379 189.782,628.699 187.662,630.944 C185.542,633.188 184.482,635.743 184.482,638.608 C184.482,643.556 187.123,647.561 192.404,650.623 C192.852,650.884 193.076,651.324 193.076,651.944 C193.076,652.563 192.865,653.1 192.443,653.553 C192.021,654.006 191.649,654.233 191.326,654.233 C191.003,654.233 190.581,654.17 190.06,654.045 C182.435,649.879 178.623,643.592 178.623,635.186 C178.623,631.217 180.024,627.41 182.826,623.764 C185.753,620.118 189.56,617.774 194.248,616.733 C192.425,609.441 190.93,603.743 189.764,599.639 C180.847,609.67 175.31,617.092 173.154,621.905 C170.363,628.155 168.967,633.852 168.967,638.998 M201.576,539.686 C196.691,542.092 192.834,545.574 190.006,550.131 C187.178,554.688 185.764,559.472 185.764,564.483 C185.764,569.493 186.935,575.972 189.279,583.92 C193.967,578.254 197.514,572.946 199.92,567.998 C202.326,563.05 203.529,558.152 203.529,553.303 C203.529,548.454 202.878,543.915 201.576,539.686"/>
<path class="TimeSig" d="M273.021,567.912 C274.516,567.912 275.949,567.686 277.318,567.233 C278.688,566.78 279.665,566.553 280.248,566.553 C280.831,566.553 281.222,566.907 281.42,567.615 C281.42,567.688 281.352,567.886 281.217,568.209 L252.811,601.225 L269.498,601.225 L269.498,588.131 C269.498,586.506 270.446,585.334 272.342,584.615 C274.29,583.897 276.503,581.001 278.982,575.928 C279.17,575.532 279.462,575.334 279.857,575.334 C280.639,575.334 281.092,575.793 281.217,576.709 L281.217,601.225 L288.357,601.225 C289.264,601.225 289.751,601.712 289.818,602.686 C289.886,603.66 289.399,604.147 288.357,604.147 L281.217,604.147 L281.217,604.928 C281.217,607.532 281.868,609.746 283.17,611.569 C284.67,613.391 286.43,614.303 288.451,614.303 C289.232,614.303 289.623,614.694 289.623,615.475 C289.623,616.256 289.087,616.647 288.014,616.647 C286.941,616.647 284.938,616.436 282.006,616.014 C279.074,615.592 276.811,615.381 275.217,615.381 C273.623,615.381 271.41,615.592 268.576,616.014 C265.743,616.436 263.613,616.647 262.186,616.647 C261.404,616.647 261.014,616.256 261.014,615.475 C261.014,614.694 261.404,614.303 262.186,614.303 C264.196,614.303 265.951,613.391 267.451,611.569 C268.816,609.683 269.498,607.47 269.498,604.928 L269.498,604.147 L252.811,604.147 C251.956,604.147 251.219,603.92 250.6,603.467 C249.98,603.014 249.67,602.592 249.67,602.201 C249.67,601.811 250.485,600.639 252.115,598.686 C253.745,596.733 256.074,592.972 259.1,587.405 C262.126,581.837 263.639,575.438 263.639,568.209 C263.639,567.168 264.097,566.647 265.014,566.647 C265.212,566.647 265.521,566.712 265.943,566.842 C266.365,566.972 267.277,567.183 268.678,567.475 C270.079,567.766 271.527,567.912 273.021,567.912"/>
<path class="TimeSig" d="M273.021,618.084 C274.516,618.084 275.949,617.858 277.318,617.405 C278.688,616.951 279.665,616.725 280.248,616.725 C280.831,616.725 281.222,617.079 281.42,617.787 C281.42,617.86 281.352,618.058 281.217,618.381 L252.811,651.397 L269.498,651.397 L269.498,638.303 C269.498,636.678 270.446,635.506 272.342,634.787 C274.29,634.069 276.503,631.173 278.982,626.1 C279.17,625.704 279.462,625.506 279.857,625.506 C280.639,625.506 281.092,625.964 281.217,626.881 L281.217,651.397 L288.357,651.397 C289.264,651.397 289.751,651.884 289.818,652.858 C289.886,653.832 289.399,654.319 288.357,654.319 L281.217,654.319 L281.217,655.1 C281.217,657.704 281.868,659.918 283.17,661.74 C284.67,663.563 286.43,664.475 288.451,664.475 C289.232,664.475 289.623,664.865 289.623,665.647 C289.623,666.428 289.087,666.819 288.014,666.819 C286.941,666.819 284.938,666.608 282.006,666.186 C279.074,665.764 276.811,665.553 275.217,665.553 C273.623,665.553 271.41,665.764 268.576,666.186 C265.743,666.608 263.613,666.819 262.186,666.819 C261.404,666.819 261.014,666.428 261.014,665.647 C261.014,664.865 261.404,664.475 262.186,664.475 C264.196,664.475 265.951,663.563 267.451,661.74 C268.816,659.855 269.498,657.642 269.498,655.1 L269.498,654.319 L252.811,654.319 C251.956,654.319 251.219,654.092 250.6,653.639 C249.98,653.186 249.67,652.764 249.67,652.373 C249.67,651.983 250.485,650.811 252.115,648.858 C253.745,646.905 256.074,643.144 259.1,637.576 C262.126,632.009 263.639,625.61 263.639,618.381 C263.639,617.339 264.097,616.819 265.014,616.819 C265.212,616.819 265.521,616.884 265.943,617.014 C266.365,617.144 267.277,617.355 268.678,617.647 C270.079,617.938 271.527,618.084 273.021,618.084"/>
<path class="Rest" d="M1567.45,607.358 L1531.91,607.358 C1531.25,607.358 1530.92,607.035 1530.92,606.389 L1530.92,592.717 C1530.92,592.061 1531.25,591.733 1531.91,591.733 L1567.45,591.733 C1568.1,591.733 1568.42,592.061 1568.42,592.717 L1568.42,606.389 C1568.42,607.035 1568.1,607.358 1567.45,607.358"/>
<path class="Lyrics" d="M729.841,739.764 L743.372,739.764 L743.372,743.061 L729.841,743.061 L729.841,739.764 M765.638,742.92 C765.638,740.962 765.208,739.225 764.349,737.709 C763.489,736.194 762.445,735.019 761.216,734.186 C759.987,733.353 758.612,732.668 757.091,732.131 C755.57,731.595 754.25,731.243 753.13,731.076 C752.01,730.91 751.028,730.826 750.185,730.826 C749.747,730.826 749.528,730.681 749.528,730.389 C749.528,730.274 749.549,730.186 749.591,730.123 L755.575,717.326 L767.075,717.326 C767.659,717.326 768.125,717.235 768.474,717.053 C768.823,716.871 769.2,716.488 769.607,715.905 L770.107,716.28 L768.013,720.889 C767.867,721.191 767.445,721.342 766.747,721.342 L755.966,721.342 L753.653,726.061 C759.008,727.019 762.987,728.582 765.591,730.748 C768.195,732.915 769.497,736.087 769.497,740.264 C769.497,742.451 769.159,744.397 768.482,746.1 C767.804,747.803 766.942,749.175 765.896,750.217 C764.849,751.259 763.638,752.113 762.263,752.78 C760.888,753.446 759.567,753.899 758.302,754.139 C757.036,754.379 755.763,754.498 754.482,754.498 C752.429,754.498 750.799,754.196 749.591,753.592 C748.383,752.988 747.778,752.155 747.778,751.092 C747.778,749.738 748.565,749.061 750.138,749.061 C751.169,749.061 752.5,749.621 754.13,750.741 C755.76,751.86 757.049,752.42 757.997,752.42 C760.164,752.42 761.979,751.504 763.442,749.67 C764.906,747.837 765.638,745.587 765.638,742.92"/>
<path class="Lyrics" d="M2670.88,739.764 L2684.41,739.764 L2684.41,743.061 L2670.88,743.061 L2670.88,739.764 M2691.5,749.436 C2692.35,749.436 2693.6,749.933 2695.27,750.928 C2696.93,751.923 2698.39,752.42 2699.64,752.42 C2701.66,752.42 2703.37,751.636 2704.76,750.069 C2706.15,748.501 2706.85,746.571 2706.85,744.28 C2706.85,742.853 2706.6,741.592 2706.1,740.498 C2705.61,739.405 2704.98,738.558 2704.21,737.959 C2703.43,737.36 2702.52,736.871 2701.46,736.491 C2700.39,736.11 2699.4,735.866 2698.46,735.756 C2697.53,735.647 2696.53,735.592 2695.46,735.592 L2695.46,734.873 C2696.71,734.436 2697.78,734.006 2698.68,733.584 C2699.58,733.162 2700.53,732.592 2701.52,731.873 C2702.51,731.155 2703.27,730.282 2703.8,729.256 C2704.33,728.23 2704.6,727.061 2704.6,725.748 C2704.6,724.019 2704.04,722.605 2702.92,721.506 C2701.8,720.407 2700.34,719.858 2698.55,719.858 C2696.82,719.858 2695.3,720.324 2694,721.256 C2692.7,722.188 2691.48,723.665 2690.35,725.686 L2689.52,725.467 C2690.48,722.863 2691.77,720.728 2693.4,719.061 C2695.03,717.394 2697.35,716.561 2700.36,716.561 C2702.89,716.561 2704.96,717.256 2706.55,718.647 C2708.14,720.037 2708.94,721.853 2708.94,724.092 C2708.94,725.592 2708.55,726.91 2707.78,728.045 C2707.01,729.181 2705.67,730.394 2703.77,731.686 C2705.97,732.634 2707.69,733.847 2708.93,735.326 C2710.18,736.806 2710.8,738.915 2710.8,741.655 C2710.8,745.55 2709.36,748.665 2706.49,750.998 C2703.61,753.332 2699.99,754.498 2695.63,754.498 C2693.72,754.498 2692.21,754.214 2691.09,753.647 C2689.97,753.079 2689.41,752.321 2689.41,751.373 C2689.41,750.78 2689.6,750.308 2689.99,749.959 C2690.37,749.61 2690.88,749.436 2691.5,749.436"/>
<path class="Lyrics" d="M2543.44,739.764 L2556.97,739.764 L2556.97,743.061 L2543.44,743.061 L2543.44,739.764 M2585.56,741.248 L2585.56,744.545 L2579.95,744.545 L2579.95,753.733 L2575.72,753.733 L2575.72,744.545 L2560.27,744.545 L2560.27,741.248 L2577.53,716.561 L2579.95,716.561 L2579.95,741.248 L2585.56,741.248 M2575.67,741.248 L2575.67,722.389 L2562.47,741.248 L2575.67,741.248 "/>
<path class="Lyrics" d="M2414.58,742.92 C2414.58,740.962 2414.15,739.225 2413.29,737.709 C2412.43,736.194 2411.39,735.019 2410.16,734.186 C2408.93,733.353 2407.56,732.668 2406.04,732.131 C2404.51,731.595 2403.19,731.243 2402.07,731.076 C2400.96,730.91 2399.97,730.826 2399.13,730.826 C2398.69,730.826 2398.47,730.681 2398.47,730.389 C2398.47,730.274 2398.49,730.186 2398.54,730.123 L2404.52,717.326 L2416.02,717.326 C2416.6,717.326 2417.07,717.235 2417.42,717.053 C2417.77,716.871 2418.15,716.488 2418.55,715.905 L2419.05,716.28 L2416.96,720.889 C2416.81,721.191 2416.39,721.342 2415.69,721.342 L2404.91,721.342 L2402.6,726.061 C2407.95,727.019 2411.93,728.582 2414.54,730.748 C2417.14,732.915 2418.44,736.087 2418.44,740.264 C2418.44,742.451 2418.1,744.397 2417.43,746.1 C2416.75,747.803 2415.89,749.175 2414.84,750.217 C2413.79,751.259 2412.58,752.113 2411.21,752.78 C2409.83,753.446 2408.51,753.899 2407.25,754.139 C2405.98,754.379 2404.71,754.498 2403.43,754.498 C2401.37,754.498 2399.74,754.196 2398.54,753.592 C2397.33,752.988 2396.72,752.155 2396.72,751.092 C2396.72,749.738 2397.51,749.061 2399.08,749.061 C2400.11,749.061 2401.44,749.621 2403.07,750.741 C2404.71,751.86 2405.99,752.42 2406.94,752.42 C2409.11,752.42 2410.92,751.504 2412.39,749.67 C2413.85,747.837 2414.58,745.587 2414.58,742.92"/>
<path class="Lyrics" d="M2261.16,739.764 L2274.69,739.764 L2274.69,743.061 L2261.16,743.061 L2261.16,739.764 M2296.96,742.92 C2296.96,740.962 2296.53,739.225 2295.67,737.709 C2294.81,736.194 2293.76,735.019 2292.53,734.186 C2291.31,733.353 2289.93,732.668 2288.41,732.131 C2286.89,731.595 2285.57,731.243 2284.45,731.076 C2283.33,730.91 2282.35,730.826 2281.5,730.826 C2281.07,730.826 2280.85,730.681 2280.85,730.389 C2280.85,730.274 2280.87,730.186 2280.91,730.123 L2286.89,717.326 L2298.39,717.326 C2298.98,717.326 2299.44,717.235 2299.79,717.053 C2300.14,716.871 2300.52,716.488 2300.93,715.905 L2301.43,716.28 L2299.33,720.889 C2299.19,721.191 2298.76,721.342 2298.07,721.342 L2287.28,721.342 L2284.97,726.061 C2290.33,727.019 2294.31,728.582 2296.91,730.748 C2299.51,732.915 2300.82,736.087 2300.82,740.264 C2300.82,742.451 2300.48,744.397 2299.8,746.1 C2299.12,747.803 2298.26,749.175 2297.21,750.217 C2296.17,751.259 2294.96,752.113 2293.58,752.78 C2292.21,753.446 2290.89,753.899 2289.62,754.139 C2288.36,754.379 2287.08,754.498 2285.8,754.498 C2283.75,754.498 2282.12,754.196 2280.91,753.592 C2279.7,752.988 2279.1,752.155 2279.1,751.092 C2279.1,749.738 2279.88,749.061 2281.46,749.061 C2282.49,749.061 2283.82,749.621 2285.45,750.741 C2287.08,751.86 2288.37,752.42 2289.32,752.42 C2291.48,752.42 2293.3,751.504 2294.76,749.67 C2296.22,747.837 2296.96,745.587 2296.96,742.92"/>
<path class="Lyrics" d="M2125.87,754.498 C2122.17,754.498 2119.19,753.022 2116.94,750.069 C2114.68,747.116 2113.55,743.212 2113.55,738.358 C2113.55,736.858 2113.7,735.311 2113.99,733.717 C2114.28,732.123 2114.92,730.311 2115.91,728.28 C2116.9,726.248 2118.19,724.428 2119.76,722.819 C2121.34,721.209 2123.55,719.772 2126.39,718.506 C2129.23,717.241 2132.5,716.446 2136.21,716.123 L2136.32,716.998 C2131.99,717.696 2128.37,719.446 2125.48,722.248 C2122.58,725.05 2120.77,728.524 2120.04,732.67 C2121.76,731.691 2123.06,731.053 2123.94,730.756 C2124.82,730.459 2125.86,730.311 2127.07,730.311 C2130.23,730.311 2132.74,731.332 2134.61,733.373 C2136.48,735.415 2137.41,738.17 2137.41,741.639 C2137.41,745.431 2136.34,748.522 2134.19,750.912 C2132.05,753.303 2129.27,754.498 2125.87,754.498 M2124.99,732.733 C2122.49,732.733 2120.81,733.28 2119.95,734.373 C2119.09,735.467 2118.66,737.087 2118.66,739.233 C2118.66,743.462 2119.36,746.79 2120.75,749.217 C2122.14,751.644 2124.05,752.858 2126.48,752.858 C2128.41,752.858 2129.89,752.045 2130.92,750.42 C2131.95,748.795 2132.46,746.488 2132.46,743.498 C2132.46,740.071 2131.81,737.42 2130.51,735.545 C2129.2,733.67 2127.37,732.733 2124.99,732.733"/>
<path class="Lyrics" d="M1964.88,739.764 L1978.41,739.764 L1978.41,743.061 L1964.88,743.061 L1964.88,739.764 M1995.24,754.498 C1991.54,754.498 1988.57,753.022 1986.31,750.069 C1984.05,747.116 1982.93,743.212 1982.93,738.358 C1982.93,736.858 1983.07,735.311 1983.36,733.717 C1983.66,732.123 1984.3,730.311 1985.29,728.28 C1986.28,726.248 1987.56,724.428 1989.14,722.819 C1990.72,721.209 1992.92,719.772 1995.76,718.506 C1998.6,717.241 2001.88,716.446 2005.58,716.123 L2005.69,716.998 C2001.36,717.696 1997.75,719.446 1994.85,722.248 C1991.95,725.05 1990.14,728.524 1989.41,732.67 C1991.13,731.691 1992.43,731.053 1993.31,730.756 C1994.19,730.459 1995.23,730.311 1996.44,730.311 C1999.6,730.311 2002.11,731.332 2003.98,733.373 C2005.85,735.415 2006.79,738.17 2006.79,741.639 C2006.79,745.431 2005.71,748.522 2003.57,750.912 C2001.42,753.303 1998.65,754.498 1995.24,754.498 M1994.36,732.733 C1991.86,732.733 1990.19,733.28 1989.33,734.373 C1988.47,735.467 1988.04,737.087 1988.04,739.233 C1988.04,743.462 1988.73,746.79 1990.12,749.217 C1991.51,751.644 1993.42,752.858 1995.85,752.858 C1997.79,752.858 1999.27,752.045 2000.29,750.42 C2001.32,748.795 2001.83,746.488 2001.83,743.498 C2001.83,740.071 2001.18,737.42 1999.88,735.545 C1998.58,733.67 1996.74,732.733 1994.36,732.733 M2020.32,737.076 C2020.32,736.712 2020.57,735.733 2021.06,734.139 C2021.55,732.545 2021.8,730.701 2021.8,728.608 C2020.38,729.493 2019.2,730.451 2018.29,731.483 C2017.37,732.514 2016.68,733.264 2016.22,733.733 C2015.77,734.201 2015.14,734.436 2014.33,734.436 C2013.01,734.436 2012.35,733.785 2012.35,732.483 C2012.35,731.847 2012.59,731.373 2013.06,731.061 C2013.53,730.748 2014.12,730.527 2014.82,730.397 C2015.52,730.267 2016.5,729.972 2017.76,729.514 C2019.03,729.056 2020.25,728.483 2021.43,727.795 C2019.99,727.066 2018.44,726.501 2016.77,726.1 C2015.1,725.699 2013.95,725.334 2013.31,725.006 C2012.67,724.678 2012.35,724.076 2012.35,723.201 C2012.35,722.649 2012.53,722.183 2012.9,721.803 C2013.26,721.423 2013.7,721.233 2014.22,721.233 C2014.81,721.233 2015.33,721.397 2015.79,721.725 C2016.25,722.053 2016.64,722.454 2016.97,722.928 C2017.29,723.402 2017.89,724.022 2018.76,724.787 C2019.62,725.553 2020.64,726.28 2021.8,726.967 C2021.8,724.884 2021.57,723.035 2021.11,721.42 C2020.66,719.806 2020.43,718.816 2020.43,718.451 C2020.43,717.899 2020.61,717.441 2020.98,717.076 C2021.35,716.712 2021.81,716.53 2022.36,716.53 C2022.9,716.53 2023.37,716.722 2023.76,717.108 C2024.14,717.493 2024.33,717.978 2024.33,718.561 C2024.33,719.04 2024.09,720.04 2023.59,721.561 C2023.1,723.082 2022.85,724.92 2022.85,727.076 C2024.13,726.274 2025.26,725.355 2026.23,724.319 C2027.21,723.282 2027.96,722.491 2028.49,721.944 C2029.02,721.397 2029.61,721.123 2030.27,721.123 C2030.86,721.123 2031.34,721.324 2031.71,721.725 C2032.07,722.126 2032.26,722.634 2032.26,723.248 C2032.26,724.019 2031.89,724.569 2031.15,724.897 C2030.42,725.225 2029.25,725.616 2027.63,726.069 C2026.02,726.522 2024.57,727.113 2023.29,727.842 C2024.39,728.54 2025.57,729.097 2026.81,729.514 C2028.05,729.931 2029.03,730.194 2029.75,730.303 C2030.46,730.412 2031.07,730.634 2031.56,730.967 C2032.05,731.3 2032.3,731.785 2032.3,732.42 C2032.3,733.056 2032.13,733.558 2031.79,733.928 C2031.44,734.298 2030.97,734.483 2030.38,734.483 C2029.61,734.483 2028.97,734.251 2028.46,733.787 C2027.95,733.324 2027.21,732.563 2026.23,731.506 C2025.26,730.449 2024.13,729.483 2022.85,728.608 C2022.85,730.701 2023.11,732.563 2023.62,734.194 C2024.14,735.824 2024.4,736.733 2024.4,736.92 C2024.4,737.504 2024.19,738.017 2023.76,738.459 C2023.34,738.902 2022.83,739.123 2022.24,739.123 C2021.73,739.123 2021.28,738.92 2020.9,738.514 C2020.51,738.108 2020.32,737.629 2020.32,737.076"/>
<path class="Lyrics" d="M321.123,739.764 L334.654,739.764 L334.654,743.061 L321.123,743.061 L321.123,739.764 M341.748,749.436 C342.592,749.436 343.847,749.933 345.514,750.928 C347.18,751.923 348.639,752.42 349.889,752.42 C351.91,752.42 353.615,751.636 355.006,750.069 C356.397,748.501 357.092,746.571 357.092,744.28 C357.092,742.853 356.844,741.592 356.35,740.498 C355.855,739.405 355.222,738.558 354.451,737.959 C353.68,737.36 352.764,736.871 351.701,736.491 C350.639,736.11 349.641,735.866 348.709,735.756 C347.777,735.647 346.774,735.592 345.701,735.592 L345.701,734.873 C346.951,734.436 348.027,734.006 348.928,733.584 C349.829,733.162 350.774,732.592 351.764,731.873 C352.753,731.155 353.514,730.282 354.045,729.256 C354.576,728.23 354.842,727.061 354.842,725.748 C354.842,724.019 354.282,722.605 353.162,721.506 C352.042,720.407 350.587,719.858 348.795,719.858 C347.066,719.858 345.55,720.324 344.248,721.256 C342.946,722.188 341.727,723.665 340.592,725.686 L339.764,725.467 C340.722,722.863 342.016,720.728 343.647,719.061 C345.277,717.394 347.597,716.561 350.607,716.561 C353.139,716.561 355.201,717.256 356.795,718.647 C358.389,720.037 359.186,721.853 359.186,724.092 C359.186,725.592 358.8,726.91 358.029,728.045 C357.259,729.181 355.92,730.394 354.014,731.686 C356.212,732.634 357.933,733.847 359.178,735.326 C360.423,736.806 361.045,738.915 361.045,741.655 C361.045,745.55 359.607,748.665 356.732,750.998 C353.857,753.332 350.238,754.498 345.873,754.498 C343.967,754.498 342.454,754.214 341.334,753.647 C340.214,753.079 339.654,752.321 339.654,751.373 C339.654,750.78 339.847,750.308 340.232,749.959 C340.618,749.61 341.123,749.436 341.748,749.436"/>
<path class="Lyrics" d="M1827.98,717.326 L1827.98,718.201 L1816.33,754.17 L1812.75,754.17 L1823.64,721.342 L1811.7,721.342 C1810.2,721.342 1809.06,721.618 1808.27,722.17 C1807.49,722.722 1806.51,723.936 1805.33,725.811 L1804.39,725.358 L1807.64,717.326 L1827.98,717.326 M1842.56,737.076 C1842.56,736.712 1842.81,735.733 1843.31,734.139 C1843.8,732.545 1844.05,730.701 1844.05,728.608 C1842.62,729.493 1841.45,730.451 1840.53,731.483 C1839.62,732.514 1838.93,733.264 1838.47,733.733 C1838.01,734.201 1837.38,734.436 1836.58,734.436 C1835.26,734.436 1834.59,733.785 1834.59,732.483 C1834.59,731.847 1834.83,731.373 1835.31,731.061 C1835.78,730.748 1836.37,730.527 1837.06,730.397 C1837.76,730.267 1838.74,729.972 1840.01,729.514 C1841.27,729.056 1842.5,728.483 1843.67,727.795 C1842.23,727.066 1840.68,726.501 1839.02,726.1 C1837.35,725.699 1836.2,725.334 1835.56,725.006 C1834.91,724.678 1834.59,724.076 1834.59,723.201 C1834.59,722.649 1834.78,722.183 1835.14,721.803 C1835.51,721.423 1835.95,721.233 1836.47,721.233 C1837.05,721.233 1837.57,721.397 1838.03,721.725 C1838.49,722.053 1838.88,722.454 1839.21,722.928 C1839.54,723.402 1840.14,724.022 1841,724.787 C1841.87,725.553 1842.88,726.28 1844.05,726.967 C1844.05,724.884 1843.82,723.035 1843.36,721.42 C1842.9,719.806 1842.67,718.816 1842.67,718.451 C1842.67,717.899 1842.86,717.441 1843.23,717.076 C1843.6,716.712 1844.06,716.53 1844.6,716.53 C1845.15,716.53 1845.62,716.722 1846,717.108 C1846.39,717.493 1846.58,717.978 1846.58,718.561 C1846.58,719.04 1846.33,720.04 1845.84,721.561 C1845.34,723.082 1845.09,724.92 1845.09,727.076 C1846.38,726.274 1847.5,725.355 1848.48,724.319 C1849.45,723.282 1850.2,722.491 1850.73,721.944 C1851.27,721.397 1851.86,721.123 1852.52,721.123 C1853.11,721.123 1853.59,721.324 1853.95,721.725 C1854.32,722.126 1854.5,722.634 1854.5,723.248 C1854.5,724.019 1854.13,724.569 1853.4,724.897 C1852.66,725.225 1851.49,725.616 1849.88,726.069 C1848.26,726.522 1846.81,727.113 1845.53,727.842 C1846.64,728.54 1847.81,729.097 1849.06,729.514 C1850.3,729.931 1851.28,730.194 1851.99,730.303 C1852.71,730.412 1853.31,730.634 1853.81,730.967 C1854.3,731.3 1854.55,731.785 1854.55,732.42 C1854.55,733.056 1854.38,733.558 1854.03,733.928 C1853.69,734.298 1853.22,734.483 1852.63,734.483 C1851.85,734.483 1851.21,734.251 1850.7,733.787 C1850.19,733.324 1849.45,732.563 1848.48,731.506 C1847.5,730.449 1846.38,729.483 1845.09,728.608 C1845.09,730.701 1845.35,732.563 1845.87,734.194 C1846.38,735.824 1846.64,736.733 1846.64,736.92 C1846.64,737.504 1846.43,738.017 1846.01,738.459 C1845.59,738.902 1845.08,739.123 1844.48,739.123 C1843.97,739.123 1843.53,738.92 1843.14,738.514 C1842.76,738.108 1842.56,737.629 1842.56,737.076"/>
<path class="Lyrics" d="M1683,739.764 L1696.53,739.764 L1696.53,743.061 L1683,743.061 L1683,739.764 M1723.86,717.326 L1723.86,718.201 L1712.2,754.17 L1708.62,754.17 L1719.52,721.342 L1707.58,721.342 C1706.08,721.342 1704.93,721.618 1704.15,722.17 C1703.36,722.722 1702.38,723.936 1701.2,725.811 L1700.27,725.358 L1703.52,717.326 L1723.86,717.326 "/>
<path class="Lyrics" d="M446.562,739.764 L460.093,739.764 L460.093,743.061 L446.562,743.061 L446.562,739.764 M488.687,741.248 L488.687,744.545 L483.077,744.545 L483.077,753.733 L478.843,753.733 L478.843,744.545 L463.39,744.545 L463.39,741.248 L480.655,716.561 L483.077,716.561 L483.077,741.248 L488.687,741.248 M478.796,741.248 L478.796,722.389 L465.593,741.248 L478.796,741.248 "/>
<path class="Lyrics" d="M1308,739.764 L1321.53,739.764 L1321.53,743.061 L1308,743.061 L1308,739.764 M1348.86,717.326 L1348.86,718.201 L1337.2,754.17 L1333.63,754.17 L1344.52,721.342 L1332.58,721.342 C1331.08,721.342 1329.94,721.618 1329.15,722.17 C1328.36,722.722 1327.38,723.936 1326.2,725.811 L1325.27,725.358 L1328.52,717.326 L1348.86,717.326 "/>
<path class="Lyrics" d="M1200.11,717.326 L1200.11,718.201 L1188.45,754.17 L1184.88,754.17 L1195.77,721.342 L1183.83,721.342 C1182.33,721.342 1181.18,721.618 1180.4,722.17 C1179.61,722.722 1178.63,723.936 1177.45,725.811 L1176.52,725.358 L1179.77,717.326 L1200.11,717.326 M1214.69,737.076 C1214.69,736.712 1214.93,735.733 1215.43,734.139 C1215.92,732.545 1216.17,730.701 1216.17,728.608 C1214.74,729.493 1213.57,730.451 1212.66,731.483 C1211.74,732.514 1211.05,733.264 1210.59,733.733 C1210.14,734.201 1209.51,734.436 1208.7,734.436 C1207.38,734.436 1206.72,733.785 1206.72,732.483 C1206.72,731.847 1206.96,731.373 1207.43,731.061 C1207.9,730.748 1208.49,730.527 1209.19,730.397 C1209.89,730.267 1210.87,729.972 1212.13,729.514 C1213.4,729.056 1214.62,728.483 1215.8,727.795 C1214.36,727.066 1212.81,726.501 1211.14,726.1 C1209.47,725.699 1208.32,725.334 1207.68,725.006 C1207.04,724.678 1206.72,724.076 1206.72,723.201 C1206.72,722.649 1206.9,722.183 1207.27,721.803 C1207.63,721.423 1208.07,721.233 1208.59,721.233 C1209.18,721.233 1209.7,721.397 1210.16,721.725 C1210.61,722.053 1211.01,722.454 1211.34,722.928 C1211.66,723.402 1212.26,724.022 1213.13,724.787 C1213.99,725.553 1215.01,726.28 1216.17,726.967 C1216.17,724.884 1215.94,723.035 1215.48,721.42 C1215.03,719.806 1214.8,718.816 1214.8,718.451 C1214.8,717.899 1214.98,717.441 1215.35,717.076 C1215.72,716.712 1216.18,716.53 1216.73,716.53 C1217.27,716.53 1217.74,716.722 1218.13,717.108 C1218.51,717.493 1218.7,717.978 1218.7,718.561 C1218.7,719.04 1218.46,720.04 1217.96,721.561 C1217.47,723.082 1217.22,724.92 1217.22,727.076 C1218.5,726.274 1219.63,725.355 1220.6,724.319 C1221.58,723.282 1222.33,722.491 1222.86,721.944 C1223.39,721.397 1223.98,721.123 1224.64,721.123 C1225.23,721.123 1225.71,721.324 1226.08,721.725 C1226.44,722.126 1226.63,722.634 1226.63,723.248 C1226.63,724.019 1226.26,724.569 1225.52,724.897 C1224.79,725.225 1223.61,725.616 1222,726.069 C1220.39,726.522 1218.94,727.113 1217.66,727.842 C1218.76,728.54 1219.93,729.097 1221.18,729.514 C1222.42,729.931 1223.4,730.194 1224.12,730.303 C1224.83,730.412 1225.43,730.634 1225.93,730.967 C1226.42,731.3 1226.67,731.785 1226.67,732.42 C1226.67,733.056 1226.5,733.558 1226.16,733.928 C1225.81,734.298 1225.34,734.483 1224.75,734.483 C1223.98,734.483 1223.34,734.251 1222.83,733.787 C1222.32,733.324 1221.58,732.563 1220.6,731.506 C1219.63,730.449 1218.5,729.483 1217.22,728.608 C1217.22,730.701 1217.48,732.563 1217.99,734.194 C1218.51,735.824 1218.77,736.733 1218.77,736.92 C1218.77,737.504 1218.55,738.017 1218.13,738.459 C1217.71,738.902 1217.2,739.123 1216.61,739.123 C1216.1,739.123 1215.65,738.92 1215.27,738.514 C1214.88,738.108 1214.69,737.629 1214.69,737.076"/>
<path class="Lyrics" d="M999.12,739.764 L1012.65,739.764 L1012.65,743.061 L999.12,743.061 L999.12,739.764 M1029.48,754.498 C1025.78,754.498 1022.81,753.022 1020.55,750.069 C1018.29,747.116 1017.17,743.212 1017.17,738.358 C1017.17,736.858 1017.31,735.311 1017.6,733.717 C1017.9,732.123 1018.54,730.311 1019.53,728.28 C1020.52,726.248 1021.8,724.428 1023.38,722.819 C1024.96,721.209 1027.16,719.772 1030,718.506 C1032.84,717.241 1036.11,716.446 1039.82,716.123 L1039.93,716.998 C1035.6,717.696 1031.98,719.446 1029.09,722.248 C1026.19,725.05 1024.38,728.524 1023.65,732.67 C1025.37,731.691 1026.67,731.053 1027.55,730.756 C1028.43,730.459 1029.47,730.311 1030.68,730.311 C1033.84,730.311 1036.35,731.332 1038.22,733.373 C1040.09,735.415 1041.03,738.17 1041.03,741.639 C1041.03,745.431 1039.95,748.522 1037.81,750.912 C1035.66,753.303 1032.89,754.498 1029.48,754.498 M1028.6,732.733 C1026.1,732.733 1024.42,733.28 1023.57,734.373 C1022.71,735.467 1022.28,737.087 1022.28,739.233 C1022.28,743.462 1022.97,746.79 1024.36,749.217 C1025.75,751.644 1027.66,752.858 1030.09,752.858 C1032.03,752.858 1033.51,752.045 1034.53,750.42 C1035.56,748.795 1036.07,746.488 1036.07,743.498 C1036.07,740.071 1035.42,737.42 1034.12,735.545 C1032.82,733.67 1030.98,732.733 1028.6,732.733 M1054.56,737.076 C1054.56,736.712 1054.81,735.733 1055.3,734.139 C1055.79,732.545 1056.04,730.701 1056.04,728.608 C1054.61,729.493 1053.44,730.451 1052.53,731.483 C1051.61,732.514 1050.92,733.264 1050.46,733.733 C1050.01,734.201 1049.38,734.436 1048.57,734.436 C1047.25,734.436 1046.59,733.785 1046.59,732.483 C1046.59,731.847 1046.83,731.373 1047.3,731.061 C1047.77,730.748 1048.36,730.527 1049.06,730.397 C1049.76,730.267 1050.74,729.972 1052,729.514 C1053.27,729.056 1054.49,728.483 1055.67,727.795 C1054.23,727.066 1052.68,726.501 1051.01,726.1 C1049.34,725.699 1048.19,725.334 1047.55,725.006 C1046.91,724.678 1046.59,724.076 1046.59,723.201 C1046.59,722.649 1046.77,722.183 1047.14,721.803 C1047.5,721.423 1047.94,721.233 1048.46,721.233 C1049.05,721.233 1049.57,721.397 1050.03,721.725 C1050.48,722.053 1050.88,722.454 1051.21,722.928 C1051.53,723.402 1052.13,724.022 1053,724.787 C1053.86,725.553 1054.88,726.28 1056.04,726.967 C1056.04,724.884 1055.81,723.035 1055.35,721.42 C1054.9,719.806 1054.67,718.816 1054.67,718.451 C1054.67,717.899 1054.85,717.441 1055.22,717.076 C1055.59,716.712 1056.05,716.53 1056.6,716.53 C1057.14,716.53 1057.61,716.722 1058,717.108 C1058.38,717.493 1058.57,717.978 1058.57,718.561 C1058.57,719.04 1058.33,720.04 1057.83,721.561 C1057.34,723.082 1057.09,724.92 1057.09,727.076 C1058.37,726.274 1059.5,725.355 1060.47,724.319 C1061.45,723.282 1062.2,722.491 1062.73,721.944 C1063.26,721.397 1063.85,721.123 1064.51,721.123 C1065.1,721.123 1065.58,721.324 1065.95,721.725 C1066.31,722.126 1066.5,722.634 1066.5,723.248 C1066.5,724.019 1066.13,724.569 1065.39,724.897 C1064.66,725.225 1063.48,725.616 1061.87,726.069 C1060.26,726.522 1058.81,727.113 1057.53,727.842 C1058.63,728.54 1059.81,729.097 1061.05,729.514 C1062.29,729.931 1063.27,730.194 1063.99,730.303 C1064.7,730.412 1065.31,730.634 1065.8,730.967 C1066.29,731.3 1066.54,731.785 1066.54,732.42 C1066.54,733.056 1066.37,733.558 1066.03,733.928 C1065.68,734.298 1065.21,734.483 1064.62,734.483 C1063.85,734.483 1063.21,734.251 1062.7,733.787 C1062.19,733.324 1061.45,732.563 1060.47,731.506 C1059.5,730.449 1058.37,729.483 1057.09,728.608 C1057.09,730.701 1057.35,732.563 1057.86,734.194 C1058.38,735.824 1058.64,736.733 1058.64,736.92 C1058.64,737.504 1058.42,738.017 1058,738.459 C1057.58,738.902 1057.07,739.123 1056.48,739.123 C1055.97,739.123 1055.52,738.92 1055.14,738.514 C1054.75,738.108 1054.56,737.629 1054.56,737.076"/>
<path class="Lyrics" d="M907.229,754.498 C903.531,754.498 900.554,753.022 898.299,750.069 C896.044,747.116 894.916,743.212 894.916,738.358 C894.916,736.858 895.062,735.311 895.354,733.717 C895.645,732.123 896.286,730.311 897.275,728.28 C898.265,726.248 899.549,724.428 901.127,722.819 C902.705,721.209 904.913,719.772 907.752,718.506 C910.591,717.241 913.864,716.446 917.572,716.123 L917.682,716.998 C913.348,717.696 909.734,719.446 906.838,722.248 C903.942,725.05 902.13,728.524 901.4,732.67 C903.119,731.691 904.419,731.053 905.299,730.756 C906.179,730.459 907.223,730.311 908.432,730.311 C911.588,730.311 914.101,731.332 915.971,733.373 C917.841,735.415 918.775,738.17 918.775,741.639 C918.775,745.431 917.703,748.522 915.557,750.912 C913.411,753.303 910.635,754.498 907.229,754.498 M906.354,732.733 C903.854,732.733 902.174,733.28 901.315,734.373 C900.455,735.467 900.025,737.087 900.025,739.233 C900.025,743.462 900.721,746.79 902.111,749.217 C903.502,751.644 905.411,752.858 907.838,752.858 C909.775,752.858 911.257,752.045 912.283,750.42 C913.309,748.795 913.822,746.488 913.822,743.498 C913.822,740.071 913.171,737.42 911.869,735.545 C910.567,733.67 908.729,732.733 906.354,732.733"/>
<path class="Lyrics" d="M630.387,742.92 C630.387,740.962 629.957,739.225 629.098,737.709 C628.238,736.194 627.194,735.019 625.965,734.186 C624.736,733.353 623.361,732.668 621.84,732.131 C620.319,731.595 618.999,731.243 617.879,731.076 C616.759,730.91 615.777,730.826 614.934,730.826 C614.496,730.826 614.277,730.681 614.277,730.389 C614.277,730.274 614.298,730.186 614.34,730.123 L620.324,717.326 L631.824,717.326 C632.408,717.326 632.874,717.235 633.223,717.053 C633.572,716.871 633.949,716.488 634.356,715.905 L634.856,716.28 L632.762,720.889 C632.616,721.191 632.194,721.342 631.496,721.342 L620.715,721.342 L618.402,726.061 C623.757,727.019 627.736,728.582 630.34,730.748 C632.944,732.915 634.246,736.087 634.246,740.264 C634.246,742.451 633.908,744.397 633.231,746.1 C632.553,747.803 631.691,749.175 630.645,750.217 C629.598,751.259 628.387,752.113 627.012,752.78 C625.637,753.446 624.316,753.899 623.051,754.139 C621.785,754.379 620.512,754.498 619.231,754.498 C617.178,754.498 615.548,754.196 614.34,753.592 C613.132,752.988 612.527,752.155 612.527,751.092 C612.527,749.738 613.314,749.061 614.887,749.061 C615.918,749.061 617.249,749.621 618.879,750.741 C620.509,751.86 621.798,752.42 622.746,752.42 C624.913,752.42 626.728,751.504 628.191,749.67 C629.655,747.837 630.387,745.587 630.387,742.92"/>
</svg>
