<?xml version="1.0" encoding="UTF-8" standalone="no"?>
<svg width="2977.2px" height="4208.4px" viewBox="0 0 2977.2 4208.4"
 xmlns="http://www.w3.org/2000/svg" xmlns:xlink="http://www.w3.org/1999/xlink" version="1.2" baseProfile="tiny">
<title>Amaj_Scale.mscx</title>
<desc>Generated by MuseScore Studio 4.3.1</desc>
<path class="" fill="#ffffff" fill-rule="evenodd" d="M0,0 L2977.2,0 L2977.2,4208.4 L0,4208.4 L0,0 "/>
<polyline class="StaffLines" fill="none" stroke="#000000" stroke-width="2.00" stroke-linejoin="bevel" points="141.732,566.733 2835.47,566.733"/>
<polyline class="StaffLines" fill="none" stroke="#000000" stroke-width="2.00" stroke-linejoin="bevel" points="141.732,591.733 2835.47,591.733"/>
<polyline class="StaffLines" fill="none" stroke="#000000" stroke-width="2.00" stroke-linejoin="bevel" points="141.732,616.733 2835.47,616.733"/>
<polyline class="StaffLines" fill="none" stroke="#000000" stroke-width="2.00" stroke-linejoin="bevel" points="141.732,641.733 2835.47,641.733"/>
<polyline class="StaffLines" fill="none" stroke="#000000" stroke-width="2.00" stroke-linejoin="bevel" points="141.732,666.733 2835.47,666.733"/>
<polyline class="BarLine" fill="none" stroke="#000000" stroke-width="4.00" stroke-linejoin="bevel" points="2802.72,565.733 2802.72,667.733"/>
<polyline class="BarLine" fill="none" stroke="#000000" stroke-width="12.50" stroke-linejoin="bevel" points="2829.22,565.733 2829.22,667.733"/>
<polyline class="BarLine" fill="none" stroke="#000000" stroke-width="4.00" stroke-linejoin="bevel" points="950.499,565.733 950.499,667.733"/>
<polyline class="BarLine" fill="none" stroke="#000000" stroke-width="4.00" stroke-linejoin="bevel" points="2553.12,565.733 2553.12,667.733"/>
<polyline class="BarLine" fill="none" stroke="#000000" stroke-width="4.00" stroke-linejoin="bevel" points="1263.46,565.733 1263.46,667.733"/>
<polyline class="BarLine" fill="none" stroke="#000000" stroke-width="4.00" stroke-linejoin="bevel" points="2227.56,565.733 2227.56,667.733"/>
<polyline class="BarLine" fill="none" stroke="#000000" stroke-width="4.00" stroke-linejoin="bevel" points="1589.03,565.733 1589.03,667.733"/>
<polyline class="BarLine" fill="none" stroke="#000000" stroke-width="4.00" stroke-linejoin="bevel" points="1914.59,565.733 1914.59,667.733"/>
<polyline class="BarLine" fill="none" stroke="#000000" stroke-width="4.00" stroke-linejoin="bevel" points="624.934,565.733 624.934,667.733"/>
<path class="Accidental" d="M1621.21,532.264 C1622.65,531.868 1623.36,532.222 1623.36,533.326 L1623.36,541.139 C1623.36,541.92 1622.74,542.54 1621.5,542.998 L1618.29,544.264 L1618.29,558.436 L1621.21,557.264 C1622.65,556.868 1623.36,557.227 1623.36,558.342 L1623.36,566.154 C1623.36,566.936 1622.74,567.55 1621.5,567.998 L1618.29,569.279 L1618.29,585.483 C1618.29,586.722 1617.8,587.342 1616.82,587.342 C1615.84,587.342 1615.35,586.722 1615.35,585.483 L1615.35,570.451 L1606.07,574.154 L1606.07,590.264 C1606.07,591.503 1605.58,592.123 1604.61,592.123 C1603.63,592.123 1603.15,591.503 1603.15,590.264 L1603.15,575.326 L1600.6,576.404 C1599.23,576.988 1598.55,576.597 1598.55,575.233 L1598.55,567.514 C1598.55,566.868 1599.14,566.285 1600.32,565.764 L1603.15,564.592 L1603.15,550.326 L1600.6,551.404 C1599.23,551.988 1598.55,551.597 1598.55,550.233 L1598.55,542.514 C1598.55,541.858 1599.14,541.269 1600.32,540.748 L1603.15,539.576 L1603.15,523.467 C1603.15,522.227 1603.63,521.608 1604.61,521.608 C1605.58,521.608 1606.07,522.227 1606.07,523.467 L1606.07,538.404 L1615.35,534.608 L1615.35,518.686 C1615.35,517.446 1615.84,516.826 1616.82,516.826 C1617.8,516.826 1618.29,517.446 1618.29,518.686 L1618.29,533.436 L1621.21,532.264 M1606.07,549.154 L1606.07,563.42 L1615.35,559.608 L1615.35,545.436 L1606.07,549.154 "/>
<path class="Accidental" d="M1762.74,544.764 C1764.18,544.368 1764.89,544.722 1764.89,545.826 L1764.89,553.639 C1764.89,554.42 1764.27,555.04 1763.04,555.498 L1759.82,556.764 L1759.82,570.936 L1762.74,569.764 C1764.18,569.368 1764.89,569.727 1764.89,570.842 L1764.89,578.655 C1764.89,579.436 1764.27,580.05 1763.04,580.498 L1759.82,581.78 L1759.82,597.983 C1759.82,599.222 1759.33,599.842 1758.35,599.842 C1757.37,599.842 1756.88,599.222 1756.88,597.983 L1756.88,582.951 L1747.6,586.655 L1747.6,602.764 C1747.6,604.003 1747.11,604.623 1746.14,604.623 C1745.16,604.623 1744.68,604.003 1744.68,602.764 L1744.68,587.826 L1742.13,588.905 C1740.76,589.488 1740.08,589.097 1740.08,587.733 L1740.08,580.014 C1740.08,579.368 1740.67,578.785 1741.85,578.264 L1744.68,577.092 L1744.68,562.826 L1742.13,563.905 C1740.76,564.488 1740.08,564.097 1740.08,562.733 L1740.08,555.014 C1740.08,554.358 1740.67,553.769 1741.85,553.248 L1744.68,552.076 L1744.68,535.967 C1744.68,534.727 1745.16,534.108 1746.14,534.108 C1747.11,534.108 1747.6,534.727 1747.6,535.967 L1747.6,550.905 L1756.88,547.108 L1756.88,531.186 C1756.88,529.946 1757.37,529.326 1758.35,529.326 C1759.33,529.326 1759.82,529.946 1759.82,531.186 L1759.82,545.936 L1762.74,544.764 M1747.6,561.655 L1747.6,575.92 L1756.88,572.108 L1756.88,557.936 L1747.6,561.655 "/>
<path class="Accidental" d="M657.114,582.264 C658.551,581.868 659.27,582.222 659.27,583.326 L659.27,591.139 C659.27,591.92 658.65,592.54 657.411,592.998 L654.192,594.264 L654.192,608.436 L657.114,607.264 C658.551,606.868 659.27,607.227 659.27,608.342 L659.27,616.155 C659.27,616.936 658.65,617.55 657.411,617.998 L654.192,619.28 L654.192,635.483 C654.192,636.722 653.703,637.342 652.723,637.342 C651.744,637.342 651.255,636.722 651.255,635.483 L651.255,620.451 L641.973,624.155 L641.973,640.264 C641.973,641.503 641.486,642.123 640.512,642.123 C639.538,642.123 639.051,641.503 639.051,640.264 L639.051,625.326 L636.505,626.405 C635.14,626.988 634.458,626.597 634.458,625.233 L634.458,617.514 C634.458,616.868 635.046,616.285 636.223,615.764 L639.051,614.592 L639.051,600.326 L636.505,601.405 C635.14,601.988 634.458,601.597 634.458,600.233 L634.458,592.514 C634.458,591.858 635.046,591.269 636.223,590.748 L639.051,589.576 L639.051,573.467 C639.051,572.227 639.538,571.608 640.512,571.608 C641.486,571.608 641.973,572.227 641.973,573.467 L641.973,588.405 L651.255,584.608 L651.255,568.686 C651.255,567.446 651.744,566.826 652.723,566.826 C653.703,566.826 654.192,567.446 654.192,568.686 L654.192,583.436 L657.114,582.264 M641.973,599.155 L641.973,613.42 L651.255,609.608 L651.255,595.436 L641.973,599.155 "/>
<path class="Accidental" d="M1295.64,532.264 C1297.08,531.868 1297.8,532.222 1297.8,533.326 L1297.8,541.139 C1297.8,541.92 1297.18,542.54 1295.94,542.998 L1292.72,544.264 L1292.72,558.436 L1295.64,557.264 C1297.08,556.868 1297.8,557.227 1297.8,558.342 L1297.8,566.154 C1297.8,566.936 1297.18,567.55 1295.94,567.998 L1292.72,569.279 L1292.72,585.483 C1292.72,586.722 1292.23,587.342 1291.25,587.342 C1290.27,587.342 1289.78,586.722 1289.78,585.483 L1289.78,570.451 L1280.5,574.154 L1280.5,590.264 C1280.5,591.503 1280.01,592.123 1279.04,592.123 C1278.07,592.123 1277.58,591.503 1277.58,590.264 L1277.58,575.326 L1275.03,576.404 C1273.67,576.988 1272.99,576.597 1272.99,575.233 L1272.99,567.514 C1272.99,566.868 1273.57,566.285 1274.75,565.764 L1277.58,564.592 L1277.58,550.326 L1275.03,551.404 C1273.67,551.988 1272.99,551.597 1272.99,550.233 L1272.99,542.514 C1272.99,541.858 1273.57,541.269 1274.75,540.748 L1277.58,539.576 L1277.58,523.467 C1277.58,522.227 1278.07,521.608 1279.04,521.608 C1280.01,521.608 1280.5,522.227 1280.5,523.467 L1280.5,538.404 L1289.78,534.608 L1289.78,518.686 C1289.78,517.446 1290.27,516.826 1291.25,516.826 C1292.23,516.826 1292.72,517.446 1292.72,518.686 L1292.72,533.436 L1295.64,532.264 M1280.5,549.154 L1280.5,563.42 L1289.78,559.608 L1289.78,545.436 L1280.5,549.154 "/>
<path class="Accidental" d="M2259.74,582.264 C2261.17,581.868 2261.89,582.222 2261.89,583.326 L2261.89,591.139 C2261.89,591.92 2261.27,592.54 2260.03,592.998 L2256.81,594.264 L2256.81,608.436 L2259.74,607.264 C2261.17,606.868 2261.89,607.227 2261.89,608.342 L2261.89,616.155 C2261.89,616.936 2261.27,617.55 2260.03,617.998 L2256.81,619.28 L2256.81,635.483 C2256.81,636.722 2256.32,637.342 2255.35,637.342 C2254.37,637.342 2253.88,636.722 2253.88,635.483 L2253.88,620.451 L2244.6,624.155 L2244.6,640.264 C2244.6,641.503 2244.11,642.123 2243.13,642.123 C2242.16,642.123 2241.67,641.503 2241.67,640.264 L2241.67,625.326 L2239.13,626.405 C2237.76,626.988 2237.08,626.597 2237.08,625.233 L2237.08,617.514 C2237.08,616.868 2237.67,616.285 2238.85,615.764 L2241.67,614.592 L2241.67,600.326 L2239.13,601.405 C2237.76,601.988 2237.08,601.597 2237.08,600.233 L2237.08,592.514 C2237.08,591.858 2237.67,591.269 2238.85,590.748 L2241.67,589.576 L2241.67,573.467 C2241.67,572.227 2242.16,571.608 2243.13,571.608 C2244.11,571.608 2244.6,572.227 2244.6,573.467 L2244.6,588.405 L2253.88,584.608 L2253.88,568.686 C2253.88,567.446 2254.37,566.826 2255.35,566.826 C2256.32,566.826 2256.81,567.446 2256.81,568.686 L2256.81,583.436 L2259.74,582.264 M2244.6,599.155 L2244.6,613.42 L2253.88,609.608 L2253.88,595.436 L2244.6,599.155 "/>
<path class="Accidental" d="M1111.61,544.764 C1113.05,544.368 1113.76,544.722 1113.76,545.826 L1113.76,553.639 C1113.76,554.42 1113.14,555.04 1111.9,555.498 L1108.69,556.764 L1108.69,570.936 L1111.61,569.764 C1113.05,569.368 1113.76,569.727 1113.76,570.842 L1113.76,578.655 C1113.76,579.436 1113.14,580.05 1111.9,580.498 L1108.69,581.78 L1108.69,597.983 C1108.69,599.222 1108.2,599.842 1107.22,599.842 C1106.24,599.842 1105.75,599.222 1105.75,597.983 L1105.75,582.951 L1096.47,586.655 L1096.47,602.764 C1096.47,604.003 1095.98,604.623 1095.01,604.623 C1094.03,604.623 1093.55,604.003 1093.55,602.764 L1093.55,587.826 L1091,588.905 C1089.63,589.488 1088.95,589.097 1088.95,587.733 L1088.95,580.014 C1088.95,579.368 1089.54,578.785 1090.72,578.264 L1093.55,577.092 L1093.55,562.826 L1091,563.905 C1089.63,564.488 1088.95,564.097 1088.95,562.733 L1088.95,555.014 C1088.95,554.358 1089.54,553.769 1090.72,553.248 L1093.55,552.076 L1093.55,535.967 C1093.55,534.727 1094.03,534.108 1095.01,534.108 C1095.98,534.108 1096.47,534.727 1096.47,535.967 L1096.47,550.905 L1105.75,547.108 L1105.75,531.186 C1105.75,529.946 1106.24,529.326 1107.22,529.326 C1108.2,529.326 1108.69,529.946 1108.69,531.186 L1108.69,545.936 L1111.61,544.764 M1096.47,561.655 L1096.47,575.92 L1105.75,572.108 L1105.75,557.936 L1096.47,561.655 "/>
<polyline class="LedgerLine" fill="none" stroke="#000000" stroke-width="4.00" stroke-linejoin="bevel" points="1435.1,541.733 1488.81,541.733"/>
<polyline class="Stem" fill="none" stroke="#000000" stroke-width="3.25" stroke-linejoin="bevel" points="807.691,596.633 807.691,679.233"/>
<polyline class="Stem" fill="none" stroke="#000000" stroke-width="3.25" stroke-linejoin="bevel" points="666.161,609.133 666.161,685.483"/>
<polyline class="Stem" fill="none" stroke="#000000" stroke-width="3.25" stroke-linejoin="bevel" points="1630.25,559.133 1630.25,641.733"/>
<polyline class="Stem" fill="none" stroke="#000000" stroke-width="3.25" stroke-linejoin="bevel" points="1771.79,571.633 1771.79,654.233"/>
<polyline class="Stem" fill="none" stroke="#000000" stroke-width="3.25" stroke-linejoin="bevel" points="2410.31,621.633 2410.31,691.733"/>
<polyline class="Stem" fill="none" stroke="#000000" stroke-width="3.25" stroke-linejoin="bevel" points="482.126,621.633 482.126,691.733"/>
<polyline class="Stem" fill="none" stroke="#000000" stroke-width="3.25" stroke-linejoin="bevel" points="1446.22,546.633 1446.22,629.233"/>
<polyline class="Stem" fill="none" stroke="#000000" stroke-width="3.25" stroke-linejoin="bevel" points="1943.22,584.133 1943.22,666.733"/>
<polyline class="Stem" fill="none" stroke="#000000" stroke-width="3.25" stroke-linejoin="bevel" points="1304.69,559.133 1304.69,641.733"/>
<polyline class="Stem" fill="none" stroke="#000000" stroke-width="3.25" stroke-linejoin="bevel" points="372.065,624.433 372.065,547.983"/>
<polyline class="Stem" fill="none" stroke="#000000" stroke-width="3.25" stroke-linejoin="bevel" points="2084.75,596.633 2084.75,679.233"/>
<polyline class="Stem" fill="none" stroke="#000000" stroke-width="3.25" stroke-linejoin="bevel" points="979.124,584.133 979.124,666.733"/>
<polyline class="Stem" fill="none" stroke="#000000" stroke-width="3.25" stroke-linejoin="bevel" points="1120.65,571.633 1120.65,654.233"/>
<polyline class="Stem" fill="none" stroke="#000000" stroke-width="3.25" stroke-linejoin="bevel" points="2268.78,609.133 2268.78,685.483"/>
<path class="Note" d="M1949.01,589.873 C1950.9,589.873 1954.86,587.92 1960.88,584.014 C1966.91,580.108 1970.46,577.488 1971.53,576.155 C1972.6,574.821 1973.14,573.634 1973.14,572.592 C1973.14,571.55 1972.72,570.623 1971.87,569.811 C1971.02,568.998 1970.04,568.592 1968.94,568.592 C1966.99,568.592 1963,570.561 1956.98,574.498 C1950.95,578.436 1947.42,581.056 1946.37,582.358 C1945.33,583.66 1944.81,584.832 1944.81,585.873 C1944.81,586.915 1945.22,587.842 1946.04,588.655 C1946.86,589.467 1947.85,589.873 1949.01,589.873 M1967.97,565.467 C1973.56,565.467 1976.36,567.873 1976.36,572.686 C1976.36,575.03 1975.68,577.748 1974.31,580.842 C1972.95,583.936 1971.12,586.295 1968.84,587.92 C1963.83,591.306 1957.55,592.998 1950,592.998 C1944.4,592.998 1941.59,590.592 1941.59,585.78 C1941.59,583.634 1942.26,580.964 1943.59,577.772 C1944.93,574.579 1946.76,572.17 1949.11,570.545 C1954.13,567.16 1960.42,565.467 1967.97,565.467"/>
<path class="Note" d="M346.393,639.873 C348.278,639.873 352.234,637.92 358.26,634.014 C364.286,630.108 367.835,627.488 368.908,626.155 C369.981,624.821 370.518,623.634 370.518,622.592 C370.518,621.55 370.093,620.623 369.244,619.811 C368.395,618.998 367.419,618.592 366.315,618.592 C364.367,618.592 360.38,620.561 354.354,624.498 C348.328,628.436 344.794,631.056 343.752,632.358 C342.71,633.66 342.19,634.832 342.19,635.873 C342.19,636.915 342.598,637.842 343.416,638.655 C344.234,639.467 345.226,639.873 346.393,639.873 M365.346,615.467 C370.94,615.467 373.736,617.873 373.736,622.686 C373.736,625.03 373.054,627.748 371.69,630.842 C370.325,633.936 368.502,636.295 366.221,637.92 C361.21,641.306 354.929,642.998 347.377,642.998 C341.773,642.998 338.971,640.592 338.971,635.78 C338.971,633.634 339.637,630.964 340.971,627.772 C342.304,624.579 344.143,622.17 346.486,620.545 C351.507,617.16 357.794,615.467 365.346,615.467"/>
<path class="Note" d="M2090.55,602.373 C2092.43,602.373 2096.39,600.42 2102.41,596.514 C2108.44,592.608 2111.99,589.988 2113.06,588.655 C2114.13,587.321 2114.67,586.134 2114.67,585.092 C2114.67,584.05 2114.25,583.123 2113.4,582.311 C2112.55,581.498 2111.57,581.092 2110.47,581.092 C2108.52,581.092 2104.53,583.061 2098.51,586.998 C2092.48,590.936 2088.95,593.556 2087.9,594.858 C2086.86,596.16 2086.34,597.332 2086.34,598.373 C2086.34,599.415 2086.75,600.342 2087.57,601.155 C2088.39,601.967 2089.38,602.373 2090.55,602.373 M2109.5,577.967 C2115.09,577.967 2117.89,580.373 2117.89,585.186 C2117.89,587.53 2117.21,590.248 2115.84,593.342 C2114.48,596.436 2112.65,598.795 2110.37,600.42 C2105.36,603.806 2099.08,605.498 2091.53,605.498 C2085.93,605.498 2083.12,603.092 2083.12,598.28 C2083.12,596.134 2083.79,593.464 2085.12,590.272 C2086.46,587.079 2088.3,584.67 2090.64,583.045 C2095.66,579.66 2101.95,577.967 2109.5,577.967"/>
<path class="Note" d="M487.923,627.373 C489.809,627.373 493.764,625.42 499.79,621.514 C505.816,617.608 509.366,614.988 510.439,613.655 C511.512,612.321 512.048,611.134 512.048,610.092 C512.048,609.05 511.624,608.123 510.775,607.311 C509.926,606.498 508.949,606.092 507.845,606.092 C505.897,606.092 501.91,608.061 495.884,611.998 C489.858,615.936 486.324,618.556 485.283,619.858 C484.241,621.16 483.72,622.332 483.72,623.373 C483.72,624.415 484.129,625.342 484.947,626.155 C485.764,626.967 486.757,627.373 487.923,627.373 M506.876,602.967 C512.47,602.967 515.267,605.373 515.267,610.186 C515.267,612.53 514.585,615.248 513.22,618.342 C511.856,621.436 510.033,623.795 507.751,625.42 C502.741,628.806 496.46,630.498 488.908,630.498 C483.303,630.498 480.501,628.092 480.501,623.28 C480.501,621.134 481.168,618.464 482.501,615.272 C483.835,612.079 485.673,609.67 488.017,608.045 C493.038,604.66 499.324,602.967 506.876,602.967"/>
<path class="Note" d="M1777.58,577.373 C1779.47,577.373 1783.42,575.42 1789.45,571.514 C1795.48,567.608 1799.02,564.988 1800.1,563.655 C1801.17,562.321 1801.71,561.134 1801.71,560.092 C1801.71,559.05 1801.28,558.123 1800.43,557.311 C1799.58,556.498 1798.61,556.092 1797.5,556.092 C1795.56,556.092 1791.57,558.061 1785.54,561.998 C1779.52,565.936 1775.98,568.556 1774.94,569.858 C1773.9,571.16 1773.38,572.332 1773.38,573.373 C1773.38,574.415 1773.79,575.342 1774.61,576.155 C1775.42,576.967 1776.42,577.373 1777.58,577.373 M1796.54,552.967 C1802.13,552.967 1804.93,555.373 1804.93,560.186 C1804.93,562.53 1804.24,565.248 1802.88,568.342 C1801.51,571.436 1799.69,573.795 1797.41,575.42 C1792.4,578.806 1786.12,580.498 1778.57,580.498 C1772.96,580.498 1770.16,578.092 1770.16,573.28 C1770.16,571.134 1770.83,568.464 1772.16,565.272 C1773.49,562.079 1775.33,559.67 1777.68,558.045 C1782.7,554.66 1788.98,552.967 1796.54,552.967"/>
<path class="Note" d="M2274.58,614.873 C2276.47,614.873 2280.42,612.92 2286.45,609.014 C2292.47,605.108 2296.02,602.488 2297.1,601.155 C2298.17,599.821 2298.71,598.634 2298.71,597.592 C2298.71,596.55 2298.28,595.623 2297.43,594.811 C2296.58,593.998 2295.61,593.592 2294.5,593.592 C2292.55,593.592 2288.57,595.561 2282.54,599.498 C2276.51,603.436 2272.98,606.056 2271.94,607.358 C2270.9,608.66 2270.38,609.832 2270.38,610.873 C2270.38,611.915 2270.79,612.842 2271.6,613.655 C2272.42,614.467 2273.41,614.873 2274.58,614.873 M2293.53,590.467 C2299.13,590.467 2301.92,592.873 2301.92,597.686 C2301.92,600.03 2301.24,602.748 2299.88,605.842 C2298.51,608.936 2296.69,611.295 2294.41,612.92 C2289.4,616.306 2283.12,617.998 2275.56,617.998 C2269.96,617.998 2267.16,615.592 2267.16,610.78 C2267.16,608.634 2267.82,605.964 2269.16,602.772 C2270.49,599.579 2272.33,597.17 2274.67,595.545 C2279.69,592.16 2285.98,590.467 2293.53,590.467"/>
<path class="Note" d="M2416.11,627.373 C2418,627.373 2421.95,625.42 2427.98,621.514 C2434,617.608 2437.55,614.988 2438.63,613.655 C2439.7,612.321 2440.24,611.134 2440.24,610.092 C2440.24,609.05 2439.81,608.123 2438.96,607.311 C2438.11,606.498 2437.14,606.092 2436.03,606.092 C2434.08,606.092 2430.1,608.061 2424.07,611.998 C2418.05,615.936 2414.51,618.556 2413.47,619.858 C2412.43,621.16 2411.91,622.332 2411.91,623.373 C2411.91,624.415 2412.32,625.342 2413.13,626.155 C2413.95,626.967 2414.94,627.373 2416.11,627.373 M2435.06,602.967 C2440.66,602.967 2443.45,605.373 2443.45,610.186 C2443.45,612.53 2442.77,615.248 2441.41,618.342 C2440.04,621.436 2438.22,623.795 2435.94,625.42 C2430.93,628.806 2424.65,630.498 2417.09,630.498 C2411.49,630.498 2408.69,628.092 2408.69,623.28 C2408.69,621.134 2409.36,618.464 2410.69,615.272 C2412.02,612.079 2413.86,609.67 2416.2,608.045 C2421.23,604.66 2427.51,602.967 2435.06,602.967"/>
<path class="Note" d="M1636.05,564.873 C1637.94,564.873 1641.89,562.92 1647.92,559.014 C1653.94,555.108 1657.49,552.488 1658.57,551.154 C1659.64,549.821 1660.18,548.634 1660.18,547.592 C1660.18,546.55 1659.75,545.623 1658.9,544.811 C1658.05,543.998 1657.08,543.592 1655.97,543.592 C1654.03,543.592 1650.04,545.561 1644.01,549.498 C1637.99,553.436 1634.45,556.056 1633.41,557.358 C1632.37,558.66 1631.85,559.832 1631.85,560.873 C1631.85,561.915 1632.26,562.842 1633.07,563.654 C1633.89,564.467 1634.88,564.873 1636.05,564.873 M1655,540.467 C1660.6,540.467 1663.4,542.873 1663.4,547.686 C1663.4,550.029 1662.71,552.748 1661.35,555.842 C1659.98,558.936 1658.16,561.295 1655.88,562.92 C1650.87,566.306 1644.59,567.998 1637.04,567.998 C1631.43,567.998 1628.63,565.592 1628.63,560.779 C1628.63,558.634 1629.3,555.964 1630.63,552.772 C1631.96,549.579 1633.8,547.17 1636.15,545.545 C1641.17,542.16 1647.45,540.467 1655,540.467"/>
<path class="Note" d="M671.958,614.873 C673.843,614.873 677.799,612.92 683.825,609.014 C689.851,605.108 693.4,602.488 694.473,601.155 C695.546,599.821 696.083,598.634 696.083,597.592 C696.083,596.55 695.658,595.623 694.809,594.811 C693.96,593.998 692.984,593.592 691.88,593.592 C689.932,593.592 685.945,595.561 679.919,599.498 C673.893,603.436 670.359,606.056 669.317,607.358 C668.275,608.66 667.755,609.832 667.755,610.873 C667.755,611.915 668.163,612.842 668.981,613.655 C669.799,614.467 670.791,614.873 671.958,614.873 M690.911,590.467 C696.505,590.467 699.301,592.873 699.301,597.686 C699.301,600.03 698.619,602.748 697.255,605.842 C695.89,608.936 694.067,611.295 691.786,612.92 C686.775,616.306 680.494,617.998 672.942,617.998 C667.338,617.998 664.536,615.592 664.536,610.78 C664.536,608.634 665.203,605.964 666.536,602.772 C667.869,599.579 669.708,597.17 672.051,595.545 C677.072,592.16 683.359,590.467 690.911,590.467"/>
<path class="Note" d="M1452.02,552.373 C1453.9,552.373 1457.86,550.42 1463.88,546.514 C1469.91,542.608 1473.46,539.988 1474.53,538.654 C1475.61,537.321 1476.14,536.134 1476.14,535.092 C1476.14,534.05 1475.72,533.123 1474.87,532.311 C1474.02,531.498 1473.04,531.092 1471.94,531.092 C1469.99,531.092 1466,533.061 1459.98,536.998 C1453.95,540.936 1450.42,543.556 1449.38,544.858 C1448.33,546.16 1447.81,547.332 1447.81,548.373 C1447.81,549.415 1448.22,550.342 1449.04,551.154 C1449.86,551.967 1450.85,552.373 1452.02,552.373 M1470.97,527.967 C1476.56,527.967 1479.36,530.373 1479.36,535.186 C1479.36,537.529 1478.68,540.248 1477.31,543.342 C1475.95,546.436 1474.13,548.795 1471.85,550.42 C1466.83,553.806 1460.55,555.498 1453,555.498 C1447.4,555.498 1444.6,553.092 1444.6,548.279 C1444.6,546.134 1445.26,543.464 1446.6,540.272 C1447.93,537.079 1449.77,534.67 1452.11,533.045 C1457.13,529.66 1463.42,527.967 1470.97,527.967"/>
<path class="Note" d="M2597.22,634.701 C2600.08,638.545 2603.76,640.467 2608.25,640.467 C2612.74,640.467 2614.98,637.441 2614.98,631.389 C2614.98,628.514 2614.17,625.972 2612.54,623.764 C2609.74,619.92 2605.97,617.998 2601.22,617.998 C2599.13,617.998 2597.54,618.86 2596.43,620.584 C2595.33,622.308 2594.78,624.54 2594.78,627.28 C2594.78,630.019 2595.59,632.493 2597.22,634.701 M2587.54,619.467 C2592.43,616.8 2598.31,615.467 2605.18,615.467 C2612.05,615.467 2617.84,616.834 2622.56,619.569 C2627.28,622.303 2629.64,625.558 2629.64,629.334 C2629.64,633.11 2627.19,636.332 2622.31,638.998 C2617.42,641.665 2611.58,642.998 2604.78,642.998 C2597.98,642.998 2592.17,641.631 2587.35,638.897 C2582.53,636.162 2580.12,632.876 2580.12,629.037 C2580.12,625.199 2582.6,622.009 2587.54,619.467"/>
<path class="Note" d="M1310.49,564.873 C1312.37,564.873 1316.33,562.92 1322.35,559.014 C1328.38,555.108 1331.93,552.488 1333,551.154 C1334.07,549.821 1334.61,548.634 1334.61,547.592 C1334.61,546.55 1334.19,545.623 1333.34,544.811 C1332.49,543.998 1331.51,543.592 1330.41,543.592 C1328.46,543.592 1324.47,545.561 1318.45,549.498 C1312.42,553.436 1308.89,556.056 1307.85,557.358 C1306.8,558.66 1306.28,559.832 1306.28,560.873 C1306.28,561.915 1306.69,562.842 1307.51,563.654 C1308.33,564.467 1309.32,564.873 1310.49,564.873 M1329.44,540.467 C1335.03,540.467 1337.83,542.873 1337.83,547.686 C1337.83,550.029 1337.15,552.748 1335.78,555.842 C1334.42,558.936 1332.6,561.295 1330.31,562.92 C1325.3,566.306 1319.02,567.998 1311.47,567.998 C1305.87,567.998 1303.06,565.592 1303.06,560.779 C1303.06,558.634 1303.73,555.964 1305.06,552.772 C1306.4,549.579 1308.24,547.17 1310.58,545.545 C1315.6,542.16 1321.89,540.467 1329.44,540.467"/>
<path class="Note" d="M813.488,602.373 C815.374,602.373 819.329,600.42 825.355,596.514 C831.382,592.608 834.931,589.988 836.004,588.655 C837.077,587.321 837.613,586.134 837.613,585.092 C837.613,584.05 837.189,583.123 836.34,582.311 C835.491,581.498 834.514,581.092 833.41,581.092 C831.462,581.092 827.475,583.061 821.449,586.998 C815.423,590.936 811.889,593.556 810.848,594.858 C809.806,596.16 809.285,597.332 809.285,598.373 C809.285,599.415 809.694,600.342 810.512,601.155 C811.329,601.967 812.322,602.373 813.488,602.373 M832.441,577.967 C838.035,577.967 840.832,580.373 840.832,585.186 C840.832,587.53 840.15,590.248 838.785,593.342 C837.421,596.436 835.598,598.795 833.316,600.42 C828.306,603.806 822.025,605.498 814.473,605.498 C808.869,605.498 806.066,603.092 806.066,598.28 C806.066,596.134 806.733,593.464 808.066,590.272 C809.4,587.079 811.238,584.67 813.582,583.045 C818.603,579.66 824.889,577.967 832.441,577.967"/>
<path class="Note" d="M1126.45,577.373 C1128.34,577.373 1132.29,575.42 1138.32,571.514 C1144.35,567.608 1147.89,564.988 1148.97,563.655 C1150.04,562.321 1150.58,561.134 1150.58,560.092 C1150.58,559.05 1150.15,558.123 1149.3,557.311 C1148.45,556.498 1147.48,556.092 1146.37,556.092 C1144.43,556.092 1140.44,558.061 1134.41,561.998 C1128.39,565.936 1124.85,568.556 1123.81,569.858 C1122.77,571.16 1122.25,572.332 1122.25,573.373 C1122.25,574.415 1122.66,575.342 1123.48,576.155 C1124.29,576.967 1125.29,577.373 1126.45,577.373 M1145.4,552.967 C1151,552.967 1153.8,555.373 1153.8,560.186 C1153.8,562.53 1153.11,565.248 1151.75,568.342 C1150.38,571.436 1148.56,573.795 1146.28,575.42 C1141.27,578.806 1134.99,580.498 1127.44,580.498 C1121.83,580.498 1119.03,578.092 1119.03,573.28 C1119.03,571.134 1119.7,568.464 1121.03,565.272 C1122.36,562.079 1124.2,559.67 1126.55,558.045 C1131.57,554.66 1137.85,552.967 1145.4,552.967"/>
<path class="Note" d="M984.921,589.873 C986.807,589.873 990.762,587.92 996.788,584.014 C1002.81,580.108 1006.36,577.488 1007.44,576.155 C1008.51,574.821 1009.05,573.634 1009.05,572.592 C1009.05,571.55 1008.62,570.623 1007.77,569.811 C1006.92,568.998 1005.95,568.592 1004.84,568.592 C1002.9,568.592 998.908,570.561 992.882,574.498 C986.856,578.436 983.322,581.056 982.281,582.358 C981.239,583.66 980.718,584.832 980.718,585.873 C980.718,586.915 981.127,587.842 981.945,588.655 C982.762,589.467 983.755,589.873 984.921,589.873 M1003.87,565.467 C1009.47,565.467 1012.26,567.873 1012.26,572.686 C1012.26,575.03 1011.58,577.748 1010.22,580.842 C1008.85,583.936 1007.03,586.295 1004.75,587.92 C999.739,591.306 993.458,592.998 985.906,592.998 C980.301,592.998 977.499,590.592 977.499,585.78 C977.499,583.634 978.166,580.964 979.499,577.772 C980.833,574.579 982.671,572.17 985.015,570.545 C990.036,567.16 996.322,565.467 1003.87,565.467"/>
<path class="Clef" d="M203.623,673.858 L203.623,671.717 C203.56,670.613 203.399,668.889 203.139,666.545 C199.889,667.066 196.993,667.326 194.451,667.326 C185.337,667.326 177.605,663.727 171.256,656.53 C164.907,649.332 161.732,640.754 161.732,630.795 C161.732,628.129 162.253,624.923 163.295,621.178 C164.337,617.433 165.297,614.925 166.178,613.655 C167.058,612.384 168.378,610.155 170.139,606.967 C170.659,605.988 172.352,603.837 175.217,600.514 C175.738,599.806 176.193,599.222 176.584,598.764 C176.975,598.306 177.607,597.49 178.482,596.319 C179.357,595.147 180.3,594.056 181.31,593.045 C182.321,592.035 183.217,591.058 183.998,590.115 C184.779,589.173 185.498,588.379 186.154,587.733 C183.81,579.983 182.378,574.024 181.857,569.858 C181.337,565.691 181.076,560.579 181.076,554.522 C181.076,548.464 182.378,542.962 184.982,538.014 C187.514,532.879 191.06,528.681 195.623,525.42 C195.883,525.222 196.225,525.123 196.646,525.123 C197.068,525.123 197.378,525.222 197.576,525.42 C201.087,529.649 204.128,535.149 206.701,541.92 C209.274,548.691 210.56,555.024 210.56,560.92 C210.56,566.816 209.066,572.498 206.076,577.967 C202.691,583.759 198.326,589.748 192.982,595.936 C194.347,600.227 196.17,606.962 198.451,616.139 L199.045,616.139 C199.305,616.076 199.529,616.045 199.717,616.045 C207.081,616.045 213.089,618.634 217.74,623.811 C222.391,628.988 224.717,634.962 224.717,641.733 C224.717,650.129 221.238,656.899 214.279,662.045 C212.258,663.545 209.878,664.717 207.139,665.561 C207.472,669.79 207.639,672.605 207.639,674.006 C207.639,675.407 207.571,677.899 207.435,681.483 C207.373,687.597 205.29,692.837 201.185,697.201 C197.081,701.566 192.394,703.748 187.123,703.748 C181.852,703.748 177.36,701.876 173.646,698.131 C169.933,694.386 168.076,689.847 168.076,684.514 C168.076,681.712 169.154,679.332 171.31,677.373 C173.519,675.425 176.006,674.451 178.771,674.451 C181.537,674.451 183.8,675.462 185.56,677.483 C187.383,679.368 188.295,681.644 188.295,684.311 C188.295,686.977 187.383,689.222 185.56,691.045 C183.738,692.868 181.555,693.78 179.014,693.78 C177.972,693.78 176.967,693.587 175.998,693.201 C178.863,697.431 182.54,699.545 187.029,699.545 C191.519,699.545 195.36,697.691 198.553,693.983 C201.745,690.274 203.342,685.91 203.342,680.889 L203.623,673.858 M206.748,661.561 C210.133,660.321 212.821,658.123 214.81,654.967 C216.8,651.811 217.795,648.67 217.795,645.545 C217.795,640.92 216.199,636.785 213.006,633.139 C209.813,629.493 205.774,627.441 200.889,626.983 C203.691,640.722 205.644,652.248 206.748,661.561 M168.967,638.998 C168.967,645.446 171.537,651.079 176.678,655.897 C181.818,660.714 187.842,663.123 194.748,663.123 C197.477,663.123 200.144,662.925 202.748,662.53 C201.706,652.634 199.654,640.785 196.592,626.983 C192.758,627.379 189.782,628.699 187.662,630.944 C185.542,633.188 184.482,635.743 184.482,638.608 C184.482,643.556 187.123,647.561 192.404,650.623 C192.852,650.884 193.076,651.324 193.076,651.944 C193.076,652.563 192.865,653.1 192.443,653.553 C192.021,654.006 191.649,654.233 191.326,654.233 C191.003,654.233 190.581,654.17 190.06,654.045 C182.435,649.879 178.623,643.592 178.623,635.186 C178.623,631.217 180.024,627.41 182.826,623.764 C185.753,620.118 189.56,617.774 194.248,616.733 C192.425,609.441 190.93,603.743 189.764,599.639 C180.847,609.67 175.31,617.092 173.154,621.905 C170.363,628.155 168.967,633.852 168.967,638.998 M201.576,539.686 C196.691,542.092 192.834,545.574 190.006,550.131 C187.178,554.688 185.764,559.472 185.764,564.483 C185.764,569.493 186.935,575.972 189.279,583.92 C193.967,578.254 197.514,572.946 199.92,567.998 C202.326,563.05 203.529,558.152 203.529,553.303 C203.529,548.454 202.878,543.915 201.576,539.686"/>
<path class="TimeSig" d="M273.021,567.912 C274.516,567.912 275.949,567.686 277.318,567.233 C278.688,566.78 279.665,566.553 280.248,566.553 C280.831,566.553 281.222,566.907 281.42,567.615 C281.42,567.688 281.352,567.886 281.217,568.209 L252.811,601.225 L269.498,601.225 L269.498,588.131 C269.498,586.506 270.446,585.334 272.342,584.615 C274.29,583.897 276.503,581.001 278.982,575.928 C279.17,575.532 279.462,575.334 279.857,575.334 C280.639,575.334 281.092,575.793 281.217,576.709 L281.217,601.225 L288.357,601.225 C289.264,601.225 289.751,601.712 289.818,602.686 C289.886,603.66 289.399,604.147 288.357,604.147 L281.217,604.147 L281.217,604.928 C281.217,607.532 281.868,609.746 283.17,611.569 C284.67,613.391 286.43,614.303 288.451,614.303 C289.232,614.303 289.623,614.694 289.623,615.475 C289.623,616.256 289.087,616.647 288.014,616.647 C286.941,616.647 284.938,616.436 282.006,616.014 C279.074,615.592 276.811,615.381 275.217,615.381 C273.623,615.381 271.41,615.592 268.576,616.014 C265.743,616.436 263.613,616.647 262.186,616.647 C261.404,616.647 261.014,616.256 261.014,615.475 C261.014,614.694 261.404,614.303 262.186,614.303 C264.196,614.303 265.951,613.391 267.451,611.569 C268.816,609.683 269.498,607.47 269.498,604.928 L269.498,604.147 L252.811,604.147 C251.956,604.147 251.219,603.92 250.6,603.467 C249.98,603.014 249.67,602.592 249.67,602.201 C249.67,601.811 250.485,600.639 252.115,598.686 C253.745,596.733 256.074,592.972 259.1,587.405 C262.126,581.837 263.639,575.438 263.639,568.209 C263.639,567.168 264.097,566.647 265.014,566.647 C265.212,566.647 265.521,566.712 265.943,566.842 C266.365,566.972 267.277,567.183 268.678,567.475 C270.079,567.766 271.527,567.912 273.021,567.912"/>
<path class="TimeSig" d="M273.021,618.084 C274.516,618.084 275.949,617.858 277.318,617.405 C278.688,616.951 279.665,616.725 280.248,616.725 C280.831,616.725 281.222,617.079 281.42,617.787 C281.42,617.86 281.352,618.058 281.217,618.381 L252.811,651.397 L269.498,651.397 L269.498,638.303 C269.498,636.678 270.446,635.506 272.342,634.787 C274.29,634.069 276.503,631.173 278.982,626.1 C279.17,625.704 279.462,625.506 279.857,625.506 C280.639,625.506 281.092,625.964 281.217,626.881 L281.217,651.397 L288.357,651.397 C289.264,651.397 289.751,651.884 289.818,652.858 C289.886,653.832 289.399,654.319 288.357,654.319 L281.217,654.319 L281.217,655.1 C281.217,657.704 281.868,659.918 283.17,661.74 C284.67,663.563 286.43,664.475 288.451,664.475 C289.232,664.475 289.623,664.865 289.623,665.647 C289.623,666.428 289.087,666.819 288.014,666.819 C286.941,666.819 284.938,666.608 282.006,666.186 C279.074,665.764 276.811,665.553 275.217,665.553 C273.623,665.553 271.41,665.764 268.576,666.186 C265.743,666.608 263.613,666.819 262.186,666.819 C261.404,666.819 261.014,666.428 261.014,665.647 C261.014,664.865 261.404,664.475 262.186,664.475 C264.196,664.475 265.951,663.563 267.451,661.74 C268.816,659.855 269.498,657.642 269.498,655.1 L269.498,654.319 L252.811,654.319 C251.956,654.319 251.219,654.092 250.6,653.639 C249.98,653.186 249.67,652.764 249.67,652.373 C249.67,651.983 250.485,650.811 252.115,648.858 C253.745,646.905 256.074,643.144 259.1,637.576 C262.126,632.009 263.639,625.61 263.639,618.381 C263.639,617.339 264.097,616.819 265.014,616.819 C265.212,616.819 265.521,616.884 265.943,617.014 C266.365,617.144 267.277,617.355 268.678,617.647 C270.079,617.938 271.527,618.084 273.021,618.084"/>
<path class="StaffText" d="M2410.54,741.53 L2422.84,741.53 L2422.84,744.53 L2410.54,744.53 L2410.54,741.53 M2448.83,742.889 L2448.83,745.889 L2443.73,745.889 L2443.73,754.233 L2439.89,754.233 L2439.89,745.889 L2425.83,745.889 L2425.83,742.889 L2441.53,720.436 L2443.73,720.436 L2443.73,742.889 L2448.83,742.889 M2439.83,742.889 L2439.83,725.733 L2427.83,742.889 L2439.83,742.889 "/>
<path class="StaffText" d="M2284.9,744.405 C2284.9,742.623 2284.51,741.043 2283.73,739.662 C2282.95,738.282 2282,737.215 2280.89,736.459 C2279.77,735.704 2278.52,735.082 2277.14,734.592 C2275.75,734.103 2274.55,733.782 2273.54,733.631 C2272.52,733.48 2271.63,733.405 2270.86,733.405 C2270.46,733.405 2270.26,733.269 2270.26,732.998 C2270.26,732.905 2270.28,732.826 2270.31,732.764 L2275.76,721.123 L2286.22,721.123 C2286.75,721.123 2287.17,721.04 2287.49,720.873 C2287.81,720.707 2288.15,720.358 2288.51,719.826 L2288.97,720.186 L2287.06,724.358 C2286.93,724.639 2286.54,724.78 2285.9,724.78 L2276.11,724.78 L2274.01,729.076 C2278.88,729.941 2282.49,731.358 2284.86,733.326 C2287.22,735.295 2288.4,738.181 2288.4,741.983 C2288.4,743.972 2288.1,745.743 2287.48,747.295 C2286.87,748.847 2286.09,750.095 2285.14,751.037 C2284.19,751.98 2283.09,752.756 2281.84,753.366 C2280.59,753.975 2279.39,754.389 2278.24,754.608 C2277.09,754.826 2275.93,754.936 2274.76,754.936 C2272.9,754.936 2271.41,754.66 2270.31,754.108 C2269.21,753.556 2268.65,752.795 2268.65,751.826 C2268.65,750.597 2269.37,749.983 2270.81,749.983 C2271.75,749.983 2272.96,750.491 2274.44,751.506 C2275.91,752.522 2277.09,753.03 2277.97,753.03 C2279.93,753.03 2281.57,752.199 2282.9,750.537 C2284.24,748.876 2284.9,746.832 2284.9,744.405 M2302.75,739.092 C2302.75,738.759 2302.97,737.868 2303.42,736.42 C2303.87,734.972 2304.09,733.295 2304.09,731.389 C2302.79,732.191 2301.72,733.063 2300.89,734.006 C2300.06,734.949 2299.43,735.631 2299.01,736.053 C2298.6,736.475 2298.02,736.686 2297.29,736.686 C2296.1,736.686 2295.5,736.092 2295.5,734.905 C2295.5,734.332 2295.71,733.902 2296.15,733.616 C2296.58,733.329 2297.11,733.126 2297.75,733.006 C2298.38,732.886 2299.27,732.621 2300.42,732.209 C2301.57,731.798 2302.68,731.274 2303.75,730.639 C2302.45,729.983 2301.04,729.472 2299.52,729.108 C2298.01,728.743 2296.96,728.412 2296.37,728.116 C2295.79,727.819 2295.5,727.269 2295.5,726.467 C2295.5,725.967 2295.66,725.545 2296,725.201 C2296.33,724.858 2296.73,724.686 2297.2,724.686 C2297.73,724.686 2298.21,724.834 2298.62,725.131 C2299.04,725.428 2299.4,725.793 2299.69,726.225 C2299.99,726.657 2300.53,727.22 2301.32,727.912 C2302.1,728.605 2303.03,729.269 2304.09,729.905 C2304.09,727.998 2303.88,726.313 2303.47,724.85 C2303.05,723.386 2302.84,722.488 2302.84,722.155 C2302.84,721.655 2303.01,721.238 2303.34,720.905 C2303.68,720.571 2304.09,720.405 2304.59,720.405 C2305.09,720.405 2305.52,720.579 2305.87,720.928 C2306.21,721.277 2306.39,721.717 2306.39,722.248 C2306.39,722.686 2306.16,723.595 2305.72,724.975 C2305.27,726.355 2305.04,728.03 2305.04,729.998 C2306.21,729.269 2307.24,728.433 2308.12,727.491 C2309.01,726.548 2309.69,725.826 2310.17,725.326 C2310.65,724.826 2311.19,724.576 2311.79,724.576 C2312.33,724.576 2312.76,724.759 2313.09,725.123 C2313.43,725.488 2313.59,725.951 2313.59,726.514 C2313.59,727.212 2313.26,727.709 2312.59,728.006 C2311.93,728.303 2310.86,728.66 2309.4,729.076 C2307.93,729.493 2306.62,730.035 2305.45,730.701 C2306.45,731.326 2307.52,731.829 2308.65,732.209 C2309.78,732.59 2310.67,732.829 2311.32,732.928 C2311.97,733.027 2312.52,733.23 2312.97,733.537 C2313.41,733.845 2313.64,734.285 2313.64,734.858 C2313.64,735.431 2313.48,735.886 2313.17,736.225 C2312.86,736.563 2312.43,736.733 2311.89,736.733 C2311.19,736.733 2310.61,736.522 2310.15,736.1 C2309.68,735.678 2309.01,734.988 2308.12,734.03 C2307.24,733.071 2306.21,732.191 2305.04,731.389 C2305.04,733.295 2305.28,734.988 2305.75,736.467 C2306.22,737.946 2306.45,738.769 2306.45,738.936 C2306.45,739.478 2306.26,739.946 2305.87,740.342 C2305.49,740.738 2305.03,740.936 2304.5,740.936 C2304.03,740.936 2303.62,740.754 2303.27,740.389 C2302.92,740.024 2302.75,739.592 2302.75,739.092"/>
<path class="StaffText" d="M2589.38,741.53 L2601.67,741.53 L2601.67,744.53 L2589.38,744.53 L2589.38,741.53 M2608.11,750.326 C2608.88,750.326 2610.02,750.777 2611.54,751.678 C2613.06,752.579 2614.38,753.03 2615.52,753.03 C2617.35,753.03 2618.9,752.319 2620.16,750.897 C2621.43,749.475 2622.06,747.717 2622.06,745.623 C2622.06,744.332 2621.84,743.191 2621.39,742.201 C2620.94,741.212 2620.37,740.444 2619.66,739.897 C2618.96,739.35 2618.13,738.902 2617.16,738.553 C2616.2,738.204 2615.29,737.98 2614.44,737.881 C2613.58,737.782 2612.68,737.733 2611.72,737.733 L2611.72,737.076 C2612.84,736.681 2613.82,736.29 2614.63,735.905 C2615.45,735.519 2616.31,735.004 2617.21,734.358 C2618.11,733.712 2618.81,732.92 2619.29,731.983 C2619.77,731.045 2620.02,729.978 2620.02,728.78 C2620.02,727.217 2619.51,725.936 2618.49,724.936 C2617.48,723.936 2616.15,723.436 2614.52,723.436 C2612.94,723.436 2611.57,723.86 2610.38,724.709 C2609.2,725.558 2608.09,726.899 2607.06,728.733 L2606.31,728.53 C2607.18,726.165 2608.35,724.225 2609.84,722.709 C2611.32,721.194 2613.43,720.436 2616.16,720.436 C2618.46,720.436 2620.34,721.069 2621.79,722.334 C2623.24,723.6 2623.97,725.248 2623.97,727.28 C2623.97,728.644 2623.62,729.845 2622.91,730.881 C2622.21,731.918 2621,733.019 2619.27,734.186 C2621.27,735.05 2622.83,736.155 2623.96,737.498 C2625.09,738.842 2625.66,740.759 2625.66,743.248 C2625.66,746.79 2624.35,749.623 2621.73,751.748 C2619.12,753.873 2615.83,754.936 2611.86,754.936 C2610.13,754.936 2608.76,754.678 2607.74,754.162 C2606.73,753.647 2606.22,752.951 2606.22,752.076 C2606.22,751.545 2606.39,751.121 2606.74,750.803 C2607.09,750.485 2607.55,750.326 2608.11,750.326"/>
<path class="StaffText" d="M990.308,754.936 C986.933,754.936 984.222,753.592 982.175,750.905 C980.128,748.217 979.105,744.665 979.105,740.248 C979.105,738.884 979.238,737.478 979.503,736.03 C979.769,734.582 980.352,732.936 981.253,731.092 C982.154,729.248 983.321,727.592 984.753,726.123 C986.186,724.655 988.193,723.347 990.777,722.201 C993.36,721.056 996.334,720.332 999.699,720.03 L999.808,720.826 C995.87,721.462 992.584,723.056 989.949,725.608 C987.313,728.16 985.662,731.316 984.995,735.076 C986.568,734.191 987.753,733.613 988.55,733.342 C989.347,733.071 990.298,732.936 991.402,732.936 C994.266,732.936 996.55,733.863 998.253,735.717 C999.956,737.571 1000.81,740.076 1000.81,743.233 C1000.81,746.681 999.831,749.493 997.878,751.67 C995.925,753.847 993.402,754.936 990.308,754.936 M989.495,735.139 C987.235,735.139 985.712,735.634 984.925,736.623 C984.139,737.613 983.745,739.087 983.745,741.045 C983.745,744.889 984.381,747.915 985.652,750.123 C986.923,752.332 988.657,753.436 990.855,753.436 C992.615,753.436 993.964,752.699 994.902,751.225 C995.839,749.751 996.308,747.655 996.308,744.936 C996.308,741.811 995.714,739.397 994.527,737.694 C993.339,735.991 991.662,735.139 989.495,735.139"/>
<path class="StaffText" d="M340.826,741.53 L353.123,741.53 L353.123,744.53 L340.826,744.53 L340.826,741.53 M359.561,750.326 C360.331,750.326 361.475,750.777 362.99,751.678 C364.506,752.579 365.831,753.03 366.967,753.03 C368.8,753.03 370.35,752.319 371.615,750.897 C372.881,749.475 373.514,747.717 373.514,745.623 C373.514,744.332 373.29,743.191 372.842,742.201 C372.394,741.212 371.818,740.444 371.115,739.897 C370.412,739.35 369.579,738.902 368.615,738.553 C367.652,738.204 366.743,737.98 365.889,737.881 C365.035,737.782 364.128,737.733 363.17,737.733 L363.17,737.076 C364.295,736.681 365.266,736.29 366.084,735.905 C366.902,735.519 367.761,735.004 368.662,734.358 C369.563,733.712 370.256,732.92 370.74,731.983 C371.225,731.045 371.467,729.978 371.467,728.78 C371.467,727.217 370.959,725.936 369.943,724.936 C368.928,723.936 367.602,723.436 365.967,723.436 C364.394,723.436 363.016,723.86 361.834,724.709 C360.652,725.558 359.545,726.899 358.514,728.733 L357.764,728.53 C358.628,726.165 359.803,724.225 361.287,722.709 C362.772,721.194 364.878,720.436 367.607,720.436 C369.91,720.436 371.787,721.069 373.24,722.334 C374.693,723.6 375.42,725.248 375.42,727.28 C375.42,728.644 375.068,729.845 374.365,730.881 C373.662,731.918 372.446,733.019 370.717,734.186 C372.717,735.05 374.282,736.155 375.412,737.498 C376.542,738.842 377.107,740.759 377.107,743.248 C377.107,746.79 375.8,749.623 373.186,751.748 C370.571,753.873 367.279,754.936 363.311,754.936 C361.581,754.936 360.209,754.678 359.193,754.162 C358.178,753.647 357.67,752.951 357.67,752.076 C357.67,751.545 357.844,751.121 358.193,750.803 C358.542,750.485 358.998,750.326 359.561,750.326"/>
<path class="StaffText" d="M2084.98,741.53 L2097.28,741.53 L2097.28,744.53 L2084.98,744.53 L2084.98,741.53 M2117.51,744.405 C2117.51,742.623 2117.12,741.043 2116.34,739.662 C2115.56,738.282 2114.61,737.215 2113.49,736.459 C2112.38,735.704 2111.13,735.082 2109.74,734.592 C2108.36,734.103 2107.16,733.782 2106.14,733.631 C2105.13,733.48 2104.23,733.405 2103.46,733.405 C2103.07,733.405 2102.87,733.269 2102.87,732.998 C2102.87,732.905 2102.89,732.826 2102.92,732.764 L2108.37,721.123 L2118.82,721.123 C2119.35,721.123 2119.78,721.04 2120.1,720.873 C2120.41,720.707 2120.76,720.358 2121.12,719.826 L2121.57,720.186 L2119.67,724.358 C2119.53,724.639 2119.15,724.78 2118.51,724.78 L2108.71,724.78 L2106.62,729.076 C2111.48,729.941 2115.1,731.358 2117.46,733.326 C2119.83,735.295 2121.01,738.181 2121.01,741.983 C2121.01,743.972 2120.7,745.743 2120.09,747.295 C2119.47,748.847 2118.69,750.095 2117.74,751.037 C2116.8,751.98 2115.7,752.756 2114.45,753.366 C2113.2,753.975 2112,754.389 2110.85,754.608 C2109.7,754.826 2108.54,754.936 2107.37,754.936 C2105.51,754.936 2104.02,754.66 2102.92,754.108 C2101.81,753.556 2101.26,752.795 2101.26,751.826 C2101.26,750.597 2101.98,749.983 2103.42,749.983 C2104.35,749.983 2105.56,750.491 2107.04,751.506 C2108.52,752.522 2109.7,753.03 2110.57,753.03 C2112.53,753.03 2114.18,752.199 2115.51,750.537 C2116.84,748.876 2117.51,746.832 2117.51,744.405"/>
<path class="StaffText" d="M1954.4,754.936 C1951.03,754.936 1948.32,753.592 1946.27,750.905 C1944.22,748.217 1943.2,744.665 1943.2,740.248 C1943.2,738.884 1943.33,737.478 1943.6,736.03 C1943.86,734.582 1944.45,732.936 1945.35,731.092 C1946.25,729.248 1947.41,727.592 1948.85,726.123 C1950.28,724.655 1952.29,723.347 1954.87,722.201 C1957.45,721.056 1960.43,720.332 1963.79,720.03 L1963.9,720.826 C1959.96,721.462 1956.68,723.056 1954.04,725.608 C1951.41,728.16 1949.76,731.316 1949.09,735.076 C1950.66,734.191 1951.85,733.613 1952.64,733.342 C1953.44,733.071 1954.39,732.936 1955.5,732.936 C1958.36,732.936 1960.64,733.863 1962.35,735.717 C1964.05,737.571 1964.9,740.076 1964.9,743.233 C1964.9,746.681 1963.93,749.493 1961.97,751.67 C1960.02,753.847 1957.5,754.936 1954.4,754.936 M1953.59,735.139 C1951.33,735.139 1949.81,735.634 1949.02,736.623 C1948.23,737.613 1947.84,739.087 1947.84,741.045 C1947.84,744.889 1948.47,747.915 1949.75,750.123 C1951.02,752.332 1952.75,753.436 1954.95,753.436 C1956.71,753.436 1958.06,752.699 1959,751.225 C1959.93,749.751 1960.4,747.655 1960.4,744.936 C1960.4,741.811 1959.81,739.397 1958.62,737.694 C1957.43,735.991 1955.76,735.139 1953.59,735.139"/>
<path class="StaffText" d="M1772.02,741.53 L1784.31,741.53 L1784.31,744.53 L1772.02,744.53 L1772.02,741.53 M1799.61,754.936 C1796.23,754.936 1793.52,753.592 1791.48,750.905 C1789.43,748.217 1788.41,744.665 1788.41,740.248 C1788.41,738.884 1788.54,737.478 1788.8,736.03 C1789.07,734.582 1789.65,732.936 1790.55,731.092 C1791.46,729.248 1792.62,727.592 1794.05,726.123 C1795.49,724.655 1797.49,723.347 1800.08,722.201 C1802.66,721.056 1805.64,720.332 1809,720.03 L1809.11,720.826 C1805.17,721.462 1801.89,723.056 1799.25,725.608 C1796.61,728.16 1794.96,731.316 1794.3,735.076 C1795.87,734.191 1797.05,733.613 1797.85,733.342 C1798.65,733.071 1799.6,732.936 1800.7,732.936 C1803.57,732.936 1805.85,733.863 1807.55,735.717 C1809.26,737.571 1810.11,740.076 1810.11,743.233 C1810.11,746.681 1809.13,749.493 1807.18,751.67 C1805.23,753.847 1802.7,754.936 1799.61,754.936 M1798.8,735.139 C1796.54,735.139 1795.01,735.634 1794.23,736.623 C1793.44,737.613 1793.05,739.087 1793.05,741.045 C1793.05,744.889 1793.68,747.915 1794.95,750.123 C1796.22,752.332 1797.96,753.436 1800.16,753.436 C1801.92,753.436 1803.27,752.699 1804.2,751.225 C1805.14,749.751 1805.61,747.655 1805.61,744.936 C1805.61,741.811 1805.02,739.397 1803.83,737.694 C1802.64,735.991 1800.96,735.139 1798.8,735.139 M1822.39,739.092 C1822.39,738.759 1822.61,737.868 1823.06,736.42 C1823.51,734.972 1823.73,733.295 1823.73,731.389 C1822.43,732.191 1821.36,733.063 1820.53,734.006 C1819.7,734.949 1819.07,735.631 1818.66,736.053 C1818.24,736.475 1817.67,736.686 1816.94,736.686 C1815.74,736.686 1815.14,736.092 1815.14,734.905 C1815.14,734.332 1815.36,733.902 1815.79,733.616 C1816.22,733.329 1816.76,733.126 1817.39,733.006 C1818.03,732.886 1818.92,732.621 1820.06,732.209 C1821.21,731.798 1822.32,731.274 1823.39,730.639 C1822.09,729.983 1820.68,729.472 1819.16,729.108 C1817.65,728.743 1816.6,728.412 1816.02,728.116 C1815.43,727.819 1815.14,727.269 1815.14,726.467 C1815.14,725.967 1815.31,725.545 1815.64,725.201 C1815.97,724.858 1816.37,724.686 1816.84,724.686 C1817.37,724.686 1817.85,724.834 1818.27,725.131 C1818.68,725.428 1819.04,725.793 1819.34,726.225 C1819.63,726.657 1820.17,727.22 1820.96,727.912 C1821.75,728.605 1822.67,729.269 1823.73,729.905 C1823.73,727.998 1823.53,726.313 1823.11,724.85 C1822.69,723.386 1822.48,722.488 1822.48,722.155 C1822.48,721.655 1822.65,721.238 1822.98,720.905 C1823.32,720.571 1823.73,720.405 1824.23,720.405 C1824.73,720.405 1825.16,720.579 1825.51,720.928 C1825.86,721.277 1826.03,721.717 1826.03,722.248 C1826.03,722.686 1825.81,723.595 1825.36,724.975 C1824.91,726.355 1824.69,728.03 1824.69,729.998 C1825.85,729.269 1826.88,728.433 1827.77,727.491 C1828.65,726.548 1829.33,725.826 1829.81,725.326 C1830.29,724.826 1830.83,724.576 1831.44,724.576 C1831.97,724.576 1832.4,724.759 1832.73,725.123 C1833.07,725.488 1833.23,725.951 1833.23,726.514 C1833.23,727.212 1832.9,727.709 1832.23,728.006 C1831.57,728.303 1830.5,728.66 1829.04,729.076 C1827.58,729.493 1826.26,730.035 1825.09,730.701 C1826.09,731.326 1827.16,731.829 1828.29,732.209 C1829.42,732.59 1830.31,732.829 1830.96,732.928 C1831.61,733.027 1832.16,733.23 1832.61,733.537 C1833.06,733.845 1833.28,734.285 1833.28,734.858 C1833.28,735.431 1833.12,735.886 1832.81,736.225 C1832.5,736.563 1832.07,736.733 1831.53,736.733 C1830.83,736.733 1830.25,736.522 1829.79,736.1 C1829.33,735.678 1828.65,734.988 1827.77,734.03 C1826.88,733.071 1825.85,732.191 1824.69,731.389 C1824.69,733.295 1824.92,734.988 1825.39,736.467 C1825.86,737.946 1826.09,738.769 1826.09,738.936 C1826.09,739.478 1825.9,739.946 1825.52,740.342 C1825.13,740.738 1824.67,740.936 1824.14,740.936 C1823.67,740.936 1823.26,740.754 1822.91,740.389 C1822.57,740.024 1822.39,739.592 1822.39,739.092"/>
<path class="StaffText" d="M482.357,741.53 L494.654,741.53 L494.654,744.53 L482.357,744.53 L482.357,741.53 M520.638,742.889 L520.638,745.889 L515.544,745.889 L515.544,754.233 L511.701,754.233 L511.701,745.889 L497.638,745.889 L497.638,742.889 L513.341,720.436 L515.544,720.436 L515.544,742.889 L520.638,742.889 M511.638,742.889 L511.638,725.733 L499.638,742.889 L511.638,742.889 "/>
<path class="StaffText" d="M1650.99,721.123 L1650.99,721.92 L1640.38,754.639 L1637.13,754.639 L1647.03,724.78 L1636.19,724.78 C1634.81,724.78 1633.77,725.03 1633.06,725.53 C1632.34,726.03 1631.45,727.134 1630.38,728.842 L1629.53,728.436 L1632.49,721.123 L1650.99,721.123 M1664.22,739.092 C1664.22,738.759 1664.44,737.868 1664.89,736.42 C1665.34,734.972 1665.56,733.295 1665.56,731.389 C1664.26,732.191 1663.19,733.063 1662.36,734.006 C1661.53,734.949 1660.9,735.631 1660.49,736.053 C1660.07,736.475 1659.5,736.686 1658.77,736.686 C1657.57,736.686 1656.97,736.092 1656.97,734.905 C1656.97,734.332 1657.19,733.902 1657.62,733.616 C1658.05,733.329 1658.58,733.126 1659.22,733.006 C1659.85,732.886 1660.75,732.621 1661.89,732.209 C1663.04,731.798 1664.15,731.274 1665.22,730.639 C1663.92,729.983 1662.51,729.472 1660.99,729.108 C1659.48,728.743 1658.43,728.412 1657.84,728.116 C1657.26,727.819 1656.97,727.269 1656.97,726.467 C1656.97,725.967 1657.14,725.545 1657.47,725.201 C1657.8,724.858 1658.2,724.686 1658.67,724.686 C1659.2,724.686 1659.68,724.834 1660.09,725.131 C1660.51,725.428 1660.87,725.793 1661.16,726.225 C1661.46,726.657 1662,727.22 1662.79,727.912 C1663.58,728.605 1664.5,729.269 1665.56,729.905 C1665.56,727.998 1665.35,726.313 1664.94,724.85 C1664.52,723.386 1664.31,722.488 1664.31,722.155 C1664.31,721.655 1664.48,721.238 1664.81,720.905 C1665.15,720.571 1665.56,720.405 1666.06,720.405 C1666.56,720.405 1666.99,720.579 1667.34,720.928 C1667.69,721.277 1667.86,721.717 1667.86,722.248 C1667.86,722.686 1667.64,723.595 1667.19,724.975 C1666.74,726.355 1666.52,728.03 1666.52,729.998 C1667.68,729.269 1668.71,728.433 1669.59,727.491 C1670.48,726.548 1671.16,725.826 1671.64,725.326 C1672.12,724.826 1672.66,724.576 1673.27,724.576 C1673.8,724.576 1674.23,724.759 1674.56,725.123 C1674.9,725.488 1675.06,725.951 1675.06,726.514 C1675.06,727.212 1674.73,727.709 1674.06,728.006 C1673.4,728.303 1672.33,728.66 1670.87,729.076 C1669.4,729.493 1668.09,730.035 1666.92,730.701 C1667.92,731.326 1668.99,731.829 1670.12,732.209 C1671.25,732.59 1672.14,732.829 1672.79,732.928 C1673.44,733.027 1673.99,733.23 1674.44,733.537 C1674.89,733.845 1675.11,734.285 1675.11,734.858 C1675.11,735.431 1674.95,735.886 1674.64,736.225 C1674.33,736.563 1673.9,736.733 1673.36,736.733 C1672.66,736.733 1672.08,736.522 1671.62,736.1 C1671.15,735.678 1670.48,734.988 1669.59,734.03 C1668.71,733.071 1667.68,732.191 1666.52,731.389 C1666.52,733.295 1666.75,734.988 1667.22,736.467 C1667.69,737.946 1667.92,738.769 1667.92,738.936 C1667.92,739.478 1667.73,739.946 1667.34,740.342 C1666.96,740.738 1666.5,740.936 1665.97,740.936 C1665.5,740.936 1665.09,740.754 1664.74,740.389 C1664.39,740.024 1664.22,739.592 1664.22,739.092"/>
<path class="StaffText" d="M682.282,744.405 C682.282,742.623 681.891,741.043 681.11,739.662 C680.329,738.282 679.381,737.215 678.266,736.459 C677.152,735.704 675.902,735.082 674.516,734.592 C673.131,734.103 671.93,733.782 670.915,733.631 C669.899,733.48 669.006,733.405 668.235,733.405 C667.839,733.405 667.641,733.269 667.641,732.998 C667.641,732.905 667.657,732.826 667.688,732.764 L673.141,721.123 L683.594,721.123 C684.126,721.123 684.55,721.04 684.868,720.873 C685.186,720.707 685.527,720.358 685.891,719.826 L686.344,720.186 L684.438,724.358 C684.303,724.639 683.917,724.78 683.282,724.78 L673.485,724.78 L671.391,729.076 C676.256,729.941 679.87,731.358 682.235,733.326 C684.6,735.295 685.782,738.181 685.782,741.983 C685.782,743.972 685.475,745.743 684.86,747.295 C684.245,748.847 683.464,750.095 682.516,751.037 C681.568,751.98 680.469,752.756 679.219,753.366 C677.969,753.975 676.769,754.389 675.618,754.608 C674.467,754.826 673.308,754.936 672.141,754.936 C670.277,754.936 668.792,754.66 667.688,754.108 C666.584,753.556 666.032,752.795 666.032,751.826 C666.032,750.597 666.751,749.983 668.188,749.983 C669.126,749.983 670.334,750.491 671.813,751.506 C673.292,752.522 674.469,753.03 675.344,753.03 C677.303,753.03 678.949,752.199 680.282,750.537 C681.615,748.876 682.282,746.832 682.282,744.405 M700.126,739.092 C700.126,738.759 700.35,737.868 700.798,736.42 C701.245,734.972 701.469,733.295 701.469,731.389 C700.167,732.191 699.1,733.063 698.266,734.006 C697.433,734.949 696.808,735.631 696.391,736.053 C695.975,736.475 695.402,736.686 694.673,736.686 C693.475,736.686 692.876,736.092 692.876,734.905 C692.876,734.332 693.092,733.902 693.524,733.616 C693.956,733.329 694.49,733.126 695.126,733.006 C695.761,732.886 696.652,732.621 697.798,732.209 C698.943,731.798 700.053,731.274 701.126,730.639 C699.824,729.983 698.415,729.472 696.899,729.108 C695.384,728.743 694.334,728.412 693.751,728.116 C693.167,727.819 692.876,727.269 692.876,726.467 C692.876,725.967 693.042,725.545 693.376,725.201 C693.709,724.858 694.11,724.686 694.579,724.686 C695.11,724.686 695.584,724.834 696.001,725.131 C696.417,725.428 696.774,725.793 697.071,726.225 C697.368,726.657 697.91,727.22 698.696,727.912 C699.482,728.605 700.407,729.269 701.469,729.905 C701.469,727.998 701.261,726.313 700.844,724.85 C700.428,723.386 700.219,722.488 700.219,722.155 C700.219,721.655 700.386,721.238 700.719,720.905 C701.053,720.571 701.469,720.405 701.969,720.405 C702.469,720.405 702.894,720.579 703.243,720.928 C703.592,721.277 703.766,721.717 703.766,722.248 C703.766,722.686 703.542,723.595 703.094,724.975 C702.647,726.355 702.423,728.03 702.423,729.998 C703.589,729.269 704.615,728.433 705.501,727.491 C706.386,726.548 707.068,725.826 707.548,725.326 C708.027,724.826 708.568,724.576 709.173,724.576 C709.704,724.576 710.136,724.759 710.469,725.123 C710.803,725.488 710.969,725.951 710.969,726.514 C710.969,727.212 710.636,727.709 709.969,728.006 C709.303,728.303 708.238,728.66 706.774,729.076 C705.311,729.493 703.995,730.035 702.829,730.701 C703.829,731.326 704.894,731.829 706.024,732.209 C707.154,732.59 708.045,732.829 708.696,732.928 C709.347,733.027 709.897,733.23 710.344,733.537 C710.792,733.845 711.016,734.285 711.016,734.858 C711.016,735.431 710.86,735.886 710.548,736.225 C710.235,736.563 709.808,736.733 709.266,736.733 C708.568,736.733 707.988,736.522 707.524,736.1 C707.061,735.678 706.386,734.988 705.501,734.03 C704.615,733.071 703.589,732.191 702.423,731.389 C702.423,733.295 702.657,734.988 703.126,736.467 C703.594,737.946 703.829,738.769 703.829,738.936 C703.829,739.478 703.636,739.946 703.251,740.342 C702.865,740.738 702.407,740.936 701.876,740.936 C701.407,740.936 700.998,740.754 700.649,740.389 C700.3,740.024 700.126,739.592 700.126,739.092"/>
<path class="StaffText" d="M1446.45,741.53 L1458.75,741.53 L1458.75,744.53 L1446.45,744.53 L1446.45,741.53 M1483.59,721.123 L1483.59,721.92 L1472.98,754.639 L1469.73,754.639 L1479.64,724.78 L1468.79,724.78 C1467.42,724.78 1466.37,725.03 1465.66,725.53 C1464.95,726.03 1464.05,727.134 1462.98,728.842 L1462.14,728.436 L1465.09,721.123 L1483.59,721.123 "/>
<path class="StaffText" d="M1325.42,721.123 L1325.42,721.92 L1314.81,754.639 L1311.56,754.639 L1321.47,724.78 L1310.62,724.78 C1309.25,724.78 1308.2,725.03 1307.49,725.53 C1306.78,726.03 1305.88,727.134 1304.81,728.842 L1303.97,728.436 L1306.92,721.123 L1325.42,721.123 M1338.65,739.092 C1338.65,738.759 1338.88,737.868 1339.33,736.42 C1339.77,734.972 1340,733.295 1340,731.389 C1338.7,732.191 1337.63,733.063 1336.79,734.006 C1335.96,734.949 1335.34,735.631 1334.92,736.053 C1334.5,736.475 1333.93,736.686 1333.2,736.686 C1332,736.686 1331.4,736.092 1331.4,734.905 C1331.4,734.332 1331.62,733.902 1332.05,733.616 C1332.49,733.329 1333.02,733.126 1333.65,733.006 C1334.29,732.886 1335.18,732.621 1336.33,732.209 C1337.47,731.798 1338.58,731.274 1339.65,730.639 C1338.35,729.983 1336.94,729.472 1335.43,729.108 C1333.91,728.743 1332.86,728.412 1332.28,728.116 C1331.7,727.819 1331.4,727.269 1331.4,726.467 C1331.4,725.967 1331.57,725.545 1331.9,725.201 C1332.24,724.858 1332.64,724.686 1333.11,724.686 C1333.64,724.686 1334.11,724.834 1334.53,725.131 C1334.95,725.428 1335.3,725.793 1335.6,726.225 C1335.9,726.657 1336.44,727.22 1337.22,727.912 C1338.01,728.605 1338.94,729.269 1340,729.905 C1340,727.998 1339.79,726.313 1339.37,724.85 C1338.96,723.386 1338.75,722.488 1338.75,722.155 C1338.75,721.655 1338.91,721.238 1339.25,720.905 C1339.58,720.571 1340,720.405 1340.5,720.405 C1341,720.405 1341.42,720.579 1341.77,720.928 C1342.12,721.277 1342.29,721.717 1342.29,722.248 C1342.29,722.686 1342.07,723.595 1341.62,724.975 C1341.18,726.355 1340.95,728.03 1340.95,729.998 C1342.12,729.269 1343.14,728.433 1344.03,727.491 C1344.91,726.548 1345.6,725.826 1346.08,725.326 C1346.56,724.826 1347.1,724.576 1347.7,724.576 C1348.23,724.576 1348.66,724.759 1349,725.123 C1349.33,725.488 1349.5,725.951 1349.5,726.514 C1349.5,727.212 1349.16,727.709 1348.5,728.006 C1347.83,728.303 1346.77,728.66 1345.3,729.076 C1343.84,729.493 1342.52,730.035 1341.36,730.701 C1342.36,731.326 1343.42,731.829 1344.55,732.209 C1345.68,732.59 1346.57,732.829 1347.22,732.928 C1347.88,733.027 1348.43,733.23 1348.87,733.537 C1349.32,733.845 1349.54,734.285 1349.54,734.858 C1349.54,735.431 1349.39,735.886 1349.08,736.225 C1348.76,736.563 1348.34,736.733 1347.79,736.733 C1347.1,736.733 1346.52,736.522 1346.05,736.1 C1345.59,735.678 1344.91,734.988 1344.03,734.03 C1343.14,733.071 1342.12,732.191 1340.95,731.389 C1340.95,733.295 1341.19,734.988 1341.65,736.467 C1342.12,737.946 1342.36,738.769 1342.36,738.936 C1342.36,739.478 1342.16,739.946 1341.78,740.342 C1341.39,740.738 1340.94,740.936 1340.4,740.936 C1339.94,740.936 1339.53,740.754 1339.18,740.389 C1338.83,740.024 1338.65,739.592 1338.65,739.092"/>
<path class="StaffText" d="M807.922,741.53 L820.219,741.53 L820.219,744.53 L807.922,744.53 L807.922,741.53 M840.453,744.405 C840.453,742.623 840.063,741.043 839.281,739.662 C838.5,738.282 837.552,737.215 836.438,736.459 C835.323,735.704 834.073,735.082 832.688,734.592 C831.302,734.103 830.102,733.782 829.086,733.631 C828.07,733.48 827.177,733.405 826.406,733.405 C826.01,733.405 825.813,733.269 825.813,732.998 C825.813,732.905 825.828,732.826 825.859,732.764 L831.313,721.123 L841.766,721.123 C842.297,721.123 842.721,721.04 843.039,720.873 C843.357,720.707 843.698,720.358 844.063,719.826 L844.516,720.186 L842.609,724.358 C842.474,724.639 842.089,724.78 841.453,724.78 L831.656,724.78 L829.563,729.076 C834.427,729.941 838.042,731.358 840.406,733.326 C842.771,735.295 843.953,738.181 843.953,741.983 C843.953,743.972 843.646,745.743 843.031,747.295 C842.417,748.847 841.635,750.095 840.688,751.037 C839.74,751.98 838.641,752.756 837.391,753.366 C836.141,753.975 834.94,754.389 833.789,754.608 C832.638,754.826 831.479,754.936 830.313,754.936 C828.448,754.936 826.964,754.66 825.859,754.108 C824.755,753.556 824.203,752.795 824.203,751.826 C824.203,750.597 824.922,749.983 826.359,749.983 C827.297,749.983 828.505,750.491 829.984,751.506 C831.464,752.522 832.641,753.03 833.516,753.03 C835.474,753.03 837.12,752.199 838.453,750.537 C839.786,748.876 840.453,746.832 840.453,744.405"/>
<path class="StaffText" d="M1120.89,741.53 L1133.18,741.53 L1133.18,744.53 L1120.89,744.53 L1120.89,741.53 M1148.48,754.936 C1145.1,754.936 1142.39,753.592 1140.35,750.905 C1138.3,748.217 1137.28,744.665 1137.28,740.248 C1137.28,738.884 1137.41,737.478 1137.67,736.03 C1137.94,734.582 1138.52,732.936 1139.42,731.092 C1140.33,729.248 1141.49,727.592 1142.92,726.123 C1144.36,724.655 1146.36,723.347 1148.95,722.201 C1151.53,721.056 1154.51,720.332 1157.87,720.03 L1157.98,720.826 C1154.04,721.462 1150.76,723.056 1148.12,725.608 C1145.48,728.16 1143.83,731.316 1143.17,735.076 C1144.74,734.191 1145.92,733.613 1146.72,733.342 C1147.52,733.071 1148.47,732.936 1149.57,732.936 C1152.44,732.936 1154.72,733.863 1156.42,735.717 C1158.13,737.571 1158.98,740.076 1158.98,743.233 C1158.98,746.681 1158,749.493 1156.05,751.67 C1154.1,753.847 1151.57,754.936 1148.48,754.936 M1147.67,735.139 C1145.41,735.139 1143.88,735.634 1143.1,736.623 C1142.31,737.613 1141.92,739.087 1141.92,741.045 C1141.92,744.889 1142.55,747.915 1143.82,750.123 C1145.09,752.332 1146.83,753.436 1149.03,753.436 C1150.79,753.436 1152.14,752.699 1153.07,751.225 C1154.01,749.751 1154.48,747.655 1154.48,744.936 C1154.48,741.811 1153.89,739.397 1152.7,737.694 C1151.51,735.991 1149.83,735.139 1147.67,735.139 M1171.26,739.092 C1171.26,738.759 1171.48,737.868 1171.93,736.42 C1172.38,734.972 1172.6,733.295 1172.6,731.389 C1171.3,732.191 1170.23,733.063 1169.4,734.006 C1168.57,734.949 1167.94,735.631 1167.53,736.053 C1167.11,736.475 1166.54,736.686 1165.81,736.686 C1164.61,736.686 1164.01,736.092 1164.01,734.905 C1164.01,734.332 1164.23,733.902 1164.66,733.616 C1165.09,733.329 1165.63,733.126 1166.26,733.006 C1166.9,732.886 1167.79,732.621 1168.93,732.209 C1170.08,731.798 1171.19,731.274 1172.26,730.639 C1170.96,729.983 1169.55,729.472 1168.03,729.108 C1166.52,728.743 1165.47,728.412 1164.89,728.116 C1164.3,727.819 1164.01,727.269 1164.01,726.467 C1164.01,725.967 1164.18,725.545 1164.51,725.201 C1164.84,724.858 1165.24,724.686 1165.71,724.686 C1166.24,724.686 1166.72,724.834 1167.14,725.131 C1167.55,725.428 1167.91,725.793 1168.21,726.225 C1168.5,726.657 1169.04,727.22 1169.83,727.912 C1170.62,728.605 1171.54,729.269 1172.6,729.905 C1172.6,727.998 1172.4,726.313 1171.98,724.85 C1171.56,723.386 1171.35,722.488 1171.35,722.155 C1171.35,721.655 1171.52,721.238 1171.85,720.905 C1172.19,720.571 1172.6,720.405 1173.1,720.405 C1173.6,720.405 1174.03,720.579 1174.38,720.928 C1174.73,721.277 1174.9,721.717 1174.9,722.248 C1174.9,722.686 1174.68,723.595 1174.23,724.975 C1173.78,726.355 1173.56,728.03 1173.56,729.998 C1174.72,729.269 1175.75,728.433 1176.64,727.491 C1177.52,726.548 1178.2,725.826 1178.68,725.326 C1179.16,724.826 1179.7,724.576 1180.31,724.576 C1180.84,724.576 1181.27,724.759 1181.6,725.123 C1181.94,725.488 1182.1,725.951 1182.1,726.514 C1182.1,727.212 1181.77,727.709 1181.1,728.006 C1180.44,728.303 1179.37,728.66 1177.91,729.076 C1176.45,729.493 1175.13,730.035 1173.96,730.701 C1174.96,731.326 1176.03,731.829 1177.16,732.209 C1178.29,732.59 1179.18,732.829 1179.83,732.928 C1180.48,733.027 1181.03,733.23 1181.48,733.537 C1181.93,733.845 1182.15,734.285 1182.15,734.858 C1182.15,735.431 1181.99,735.886 1181.68,736.225 C1181.37,736.563 1180.94,736.733 1180.4,736.733 C1179.7,736.733 1179.12,736.522 1178.66,736.1 C1178.2,735.678 1177.52,734.988 1176.64,734.03 C1175.75,733.071 1174.72,732.191 1173.56,731.389 C1173.56,733.295 1173.79,734.988 1174.26,736.467 C1174.73,737.946 1174.96,738.769 1174.96,738.936 C1174.96,739.478 1174.77,739.946 1174.39,740.342 C1174,740.738 1173.54,740.936 1173.01,740.936 C1172.54,740.936 1172.13,740.754 1171.78,740.389 C1171.43,740.024 1171.26,739.592 1171.26,739.092"/>
</svg>
