<?xml version="1.0" encoding="UTF-8" standalone="no"?>
<svg width="2977.2px" height="4208.4px" viewBox="0 0 2977.2 4208.4"
 xmlns="http://www.w3.org/2000/svg" xmlns:xlink="http://www.w3.org/1999/xlink" version="1.2" baseProfile="tiny">
<title>Away_In_A_Manger.mscx</title>
<desc>Generated by MuseScore Studio 4.3.1</desc>
<path class="" fill="#ffffff" fill-rule="evenodd" d="M0,0 L2977.2,0 L2977.2,4208.4 L0,4208.4 L0,0 "/>
<polyline class="StaffLines" fill="none" stroke="#000000" stroke-width="2.00" stroke-linejoin="bevel" points="141.732,316.732 2835.47,316.732"/>
<polyline class="StaffLines" fill="none" stroke="#000000" stroke-width="2.00" stroke-linejoin="bevel" points="141.732,341.732 2835.47,341.732"/>
<polyline class="StaffLines" fill="none" stroke="#000000" stroke-width="2.00" stroke-linejoin="bevel" points="141.732,366.733 2835.47,366.733"/>
<polyline class="StaffLines" fill="none" stroke="#000000" stroke-width="2.00" stroke-linejoin="bevel" points="141.732,391.733 2835.47,391.733"/>
<polyline class="StaffLines" fill="none" stroke="#000000" stroke-width="2.00" stroke-linejoin="bevel" points="141.732,416.733 2835.47,416.733"/>
<polyline class="StaffLines" fill="none" stroke="#000000" stroke-width="2.00" stroke-linejoin="bevel" points="141.732,791.733 2835.47,791.733"/>
<polyline class="StaffLines" fill="none" stroke="#000000" stroke-width="2.00" stroke-linejoin="bevel" points="141.732,816.733 2835.47,816.733"/>
<polyline class="StaffLines" fill="none" stroke="#000000" stroke-width="2.00" stroke-linejoin="bevel" points="141.732,841.733 2835.47,841.733"/>
<polyline class="StaffLines" fill="none" stroke="#000000" stroke-width="2.00" stroke-linejoin="bevel" points="141.732,866.733 2835.47,866.733"/>
<polyline class="StaffLines" fill="none" stroke="#000000" stroke-width="2.00" stroke-linejoin="bevel" points="141.732,891.733 2835.47,891.733"/>
<polyline class="StaffLines" fill="none" stroke="#000000" stroke-width="2.00" stroke-linejoin="bevel" points="141.732,1266.73 2835.47,1266.73"/>
<polyline class="StaffLines" fill="none" stroke="#000000" stroke-width="2.00" stroke-linejoin="bevel" points="141.732,1291.73 2835.47,1291.73"/>
<polyline class="StaffLines" fill="none" stroke="#000000" stroke-width="2.00" stroke-linejoin="bevel" points="141.732,1316.73 2835.47,1316.73"/>
<polyline class="StaffLines" fill="none" stroke="#000000" stroke-width="2.00" stroke-linejoin="bevel" points="141.732,1341.73 2835.47,1341.73"/>
<polyline class="StaffLines" fill="none" stroke="#000000" stroke-width="2.00" stroke-linejoin="bevel" points="141.732,1366.73 2835.47,1366.73"/>
<polyline class="StaffLines" fill="none" stroke="#000000" stroke-width="2.00" stroke-linejoin="bevel" points="141.732,1741.73 2835.47,1741.73"/>
<polyline class="StaffLines" fill="none" stroke="#000000" stroke-width="2.00" stroke-linejoin="bevel" points="141.732,1766.73 2835.47,1766.73"/>
<polyline class="StaffLines" fill="none" stroke="#000000" stroke-width="2.00" stroke-linejoin="bevel" points="141.732,1791.73 2835.47,1791.73"/>
<polyline class="StaffLines" fill="none" stroke="#000000" stroke-width="2.00" stroke-linejoin="bevel" points="141.732,1816.73 2835.47,1816.73"/>
<polyline class="StaffLines" fill="none" stroke="#000000" stroke-width="2.00" stroke-linejoin="bevel" points="141.732,1841.73 2835.47,1841.73"/>
<path class="MeasureNumber" d="M142.045,742.295 C139.357,742.295 137.193,741.22 135.553,739.069 C133.912,736.918 133.092,734.076 133.092,730.545 C133.092,729.462 133.199,728.34 133.412,727.178 C133.626,726.017 134.092,724.699 134.81,723.225 C135.529,721.751 136.462,720.428 137.607,719.256 C138.753,718.084 140.36,717.037 142.428,716.116 C144.495,715.194 146.878,714.613 149.576,714.373 L149.654,715.014 C146.508,715.524 143.881,716.8 141.771,718.842 C139.662,720.884 138.342,723.41 137.81,726.42 C139.06,725.701 140.006,725.235 140.646,725.022 C141.287,724.808 142.05,724.701 142.935,724.701 C145.227,724.701 147.053,725.444 148.412,726.928 C149.771,728.412 150.451,730.415 150.451,732.936 C150.451,735.696 149.67,737.946 148.107,739.686 C146.545,741.425 144.524,742.295 142.045,742.295 M141.404,726.451 C139.592,726.451 138.373,726.85 137.748,727.647 C137.123,728.444 136.81,729.623 136.81,731.186 C136.81,734.259 137.318,736.678 138.334,738.444 C139.35,740.209 140.738,741.092 142.498,741.092 C143.904,741.092 144.982,740.501 145.732,739.319 C146.482,738.136 146.857,736.462 146.857,734.295 C146.857,731.795 146.383,729.863 145.435,728.498 C144.488,727.134 143.144,726.451 141.404,726.451"/>
<path class="MeasureNumber" d="M127.045,1193.01 C126.566,1193.01 125.607,1193.31 124.17,1193.89 L124.17,1193.34 L131.373,1189.7 L131.685,1189.78 L131.685,1213.78 C131.685,1214.74 131.925,1215.36 132.404,1215.65 C132.883,1215.95 133.909,1216.11 135.482,1216.14 L135.482,1216.73 L124.451,1216.73 L124.451,1216.14 C125.941,1216.08 126.946,1215.85 127.467,1215.47 C127.988,1215.08 128.248,1214.26 128.248,1213.01 L128.248,1194.89 C128.248,1193.64 127.847,1193.01 127.045,1193.01 M156.271,1213.45 C154.62,1216.01 152.435,1217.3 149.717,1217.3 C146.998,1217.3 144.81,1215.99 143.154,1213.37 C141.498,1210.76 140.67,1207.4 140.67,1203.3 C140.67,1199.43 141.498,1196.2 143.154,1193.6 C144.81,1191 147.05,1189.7 149.873,1189.7 C152.488,1189.7 154.62,1190.98 156.271,1193.54 C157.922,1196.1 158.748,1199.43 158.748,1203.53 C158.748,1207.58 157.922,1210.89 156.271,1213.45 M149.748,1190.73 C146.258,1190.73 144.514,1195.04 144.514,1203.65 C144.514,1212.05 146.248,1216.25 149.717,1216.25 C153.185,1216.25 154.92,1212.04 154.92,1203.61 C154.92,1199.43 154.48,1196.24 153.6,1194.04 C152.719,1191.83 151.435,1190.73 149.748,1190.73"/>
<path class="MeasureNumber" d="M127.545,1668.01 C127.066,1668.01 126.107,1668.31 124.67,1668.89 L124.67,1668.34 L131.873,1664.7 L132.185,1664.78 L132.185,1688.78 C132.185,1689.74 132.425,1690.36 132.904,1690.66 C133.383,1690.95 134.409,1691.11 135.982,1691.14 L135.982,1691.73 L124.951,1691.73 L124.951,1691.14 C126.441,1691.08 127.446,1690.85 127.967,1690.47 C128.488,1690.08 128.748,1689.26 128.748,1688.01 L128.748,1669.89 C128.748,1668.64 128.347,1668.01 127.545,1668.01 M159.092,1682.66 L159.092,1685.06 L155.014,1685.06 L155.014,1691.73 L151.935,1691.73 L151.935,1685.06 L140.701,1685.06 L140.701,1682.66 L153.248,1664.7 L155.014,1664.7 L155.014,1682.66 L159.092,1682.66 M151.889,1682.66 L151.889,1668.94 L142.295,1682.66 L151.889,1682.66 "/>
<polyline class="BarLine" fill="none" stroke="#000000" stroke-width="4.00" stroke-linejoin="bevel" points="2833.47,1265.73 2833.47,1367.73"/>
<polyline class="BarLine" fill="none" stroke="#000000" stroke-width="4.00" stroke-linejoin="bevel" points="1748.46,315.732 1748.46,417.733"/>
<polyline class="BarLine" fill="none" stroke="#000000" stroke-width="4.00" stroke-linejoin="bevel" points="1628.28,1265.73 1628.28,1367.73"/>
<polyline class="BarLine" fill="none" stroke="#000000" stroke-width="4.00" stroke-linejoin="bevel" points="2833.47,790.733 2833.47,892.733"/>
<polyline class="BarLine" fill="none" stroke="#000000" stroke-width="4.00" stroke-linejoin="bevel" points="2246.8,1265.73 2246.8,1367.73"/>
<polyline class="BarLine" fill="none" stroke="#000000" stroke-width="4.00" stroke-linejoin="bevel" points="911.965,790.733 911.965,892.733"/>
<polyline class="BarLine" fill="none" stroke="#000000" stroke-width="4.00" stroke-linejoin="bevel" points="2305.17,315.732 2305.17,417.733"/>
<polyline class="BarLine" fill="none" stroke="#000000" stroke-width="4.00" stroke-linejoin="bevel" points="1133.12,315.732 1133.12,417.733"/>
<polyline class="BarLine" fill="none" stroke="#000000" stroke-width="4.00" stroke-linejoin="bevel" points="2284.62,790.733 2284.62,892.733"/>
<polyline class="BarLine" fill="none" stroke="#000000" stroke-width="4.00" stroke-linejoin="bevel" points="2260.37,1740.73 2260.37,1842.73"/>
<polyline class="BarLine" fill="none" stroke="#000000" stroke-width="4.00" stroke-linejoin="bevel" points="944.255,1265.73 944.255,1367.73"/>
<polyline class="BarLine" fill="none" stroke="#000000" stroke-width="4.00" stroke-linejoin="bevel" points="1632.89,790.733 1632.89,892.733"/>
<polyline class="BarLine" fill="none" stroke="#000000" stroke-width="4.00" stroke-linejoin="bevel" points="1616.43,1740.73 1616.43,1842.73"/>
<polyline class="BarLine" fill="none" stroke="#000000" stroke-width="4.00" stroke-linejoin="bevel" points="517.776,315.732 517.776,417.733"/>
<polyline class="BarLine" fill="none" stroke="#000000" stroke-width="4.00" stroke-linejoin="bevel" points="904.169,1740.73 904.169,1842.73"/>
<polyline class="BarLine" fill="none" stroke="#000000" stroke-width="4.00" stroke-linejoin="bevel" points="2802.72,1740.73 2802.72,1842.73"/>
<polyline class="BarLine" fill="none" stroke="#000000" stroke-width="12.50" stroke-linejoin="bevel" points="2829.22,1740.73 2829.22,1842.73"/>
<polyline class="BarLine" fill="none" stroke="#000000" stroke-width="4.00" stroke-linejoin="bevel" points="2833.47,315.732 2833.47,417.733"/>
<polyline class="LedgerLine" fill="none" stroke="#000000" stroke-width="4.00" stroke-linejoin="bevel" points="2038.79,1241.73 2090.7,1241.73"/>
<polyline class="LedgerLine" fill="none" stroke="#000000" stroke-width="4.00" stroke-linejoin="bevel" points="2117.77,291.732 2169.68,291.732"/>
<polyline class="Stem" fill="none" stroke="#000000" stroke-width="3.25" stroke-linejoin="bevel" points="1494.13,810.102 1494.13,885.626"/>
<polyline class="Stem" fill="none" stroke="#000000" stroke-width="3.25" stroke-linejoin="bevel" points="2655.18,860.864 2655.18,779.233"/>
<polyline class="Stem" fill="none" stroke="#000000" stroke-width="3.25" stroke-linejoin="bevel" points="1137.77,1760.1 1137.77,1841.73"/>
<polyline class="Stem" fill="none" stroke="#000000" stroke-width="3.25" stroke-linejoin="bevel" points="1661.51,822.602 1661.51,904.233"/>
<polyline class="Stem" fill="none" stroke="#000000" stroke-width="3.25" stroke-linejoin="bevel" points="1898.76,848.364 1898.76,772.983"/>
<polyline class="Stem" fill="none" stroke="#000000" stroke-width="3.25" stroke-linejoin="bevel" points="2076.67,835.102 2076.67,910.483"/>
<polyline class="Stem" fill="none" stroke="#000000" stroke-width="3.25" stroke-linejoin="bevel" points="1645.06,1772.6 1645.06,1854.23"/>
<polyline class="Stem" fill="none" stroke="#000000" stroke-width="3.25" stroke-linejoin="bevel" points="2313.25,846.633 2313.25,916.733"/>
<polyline class="Stem" fill="none" stroke="#000000" stroke-width="3.25" stroke-linejoin="bevel" points="2049.92,1247.6 2049.92,1329.23"/>
<polyline class="Stem" fill="none" stroke="#000000" stroke-width="3.25" stroke-linejoin="bevel" points="932.794,1760.1 932.794,1841.73"/>
<polyline class="Stem" fill="none" stroke="#000000" stroke-width="3.25" stroke-linejoin="bevel" points="698.815,1735.1 698.815,1816.73"/>
<polyline class="Stem" fill="none" stroke="#000000" stroke-width="3.25" stroke-linejoin="bevel" points="493.836,1747.6 493.836,1829.23"/>
<polyline class="Stem" fill="none" stroke="#000000" stroke-width="3.25" stroke-linejoin="bevel" points="288.857,1747.6 288.857,1829.23"/>
<polyline class="Stem" fill="none" stroke="#000000" stroke-width="3.25" stroke-linejoin="bevel" points="1342.75,1785.1 1342.75,1847.84"/>
<polyline class="Stem" fill="none" stroke="#000000" stroke-width="3.25" stroke-linejoin="bevel" points="2702.09,1285.1 2702.09,1360.56"/>
<polyline class="Stem" fill="none" stroke="#000000" stroke-width="3.25" stroke-linejoin="bevel" points="2571.08,1297.6 2571.08,1366.66"/>
<polyline class="Stem" fill="none" stroke="#000000" stroke-width="3.25" stroke-linejoin="bevel" points="2275.42,1271.63 2275.42,1354.23"/>
<polyline class="Stem" fill="none" stroke="#000000" stroke-width="3.25" stroke-linejoin="bevel" points="1479.4,1760.1 1479.4,1835.63"/>
<polyline class="Stem" fill="none" stroke="#000000" stroke-width="3.25" stroke-linejoin="bevel" points="288.857,1310.1 288.857,1385.48"/>
<polyline class="Stem" fill="none" stroke="#000000" stroke-width="3.25" stroke-linejoin="bevel" points="1853.41,1260.1 1853.41,1341.73"/>
<polyline class="Stem" fill="none" stroke="#000000" stroke-width="3.25" stroke-linejoin="bevel" points="1656.9,1260.1 1656.9,1341.73"/>
<polyline class="Stem" fill="none" stroke="#000000" stroke-width="3.25" stroke-linejoin="bevel" points="1496.9,1272.6 1496.9,1341.81"/>
<polyline class="Stem" fill="none" stroke="#000000" stroke-width="3.25" stroke-linejoin="bevel" points="1365.89,1285.1 1365.89,1347.91"/>
<polyline class="Stem" fill="none" stroke="#000000" stroke-width="3.25" stroke-linejoin="bevel" points="1169.39,1310.1 1169.39,1385.48"/>
<polyline class="Stem" fill="none" stroke="#000000" stroke-width="3.25" stroke-linejoin="bevel" points="972.88,1310.1 972.88,1385.48"/>
<polyline class="Stem" fill="none" stroke="#000000" stroke-width="3.25" stroke-linejoin="bevel" points="812.875,1285.1 812.875,1360.56"/>
<polyline class="Stem" fill="none" stroke="#000000" stroke-width="3.25" stroke-linejoin="bevel" points="681.871,1297.6 681.871,1366.66"/>
<polyline class="Stem" fill="none" stroke="#000000" stroke-width="3.25" stroke-linejoin="bevel" points="485.364,1310.1 485.364,1385.48"/>
<polyline class="Stem" fill="none" stroke="#000000" stroke-width="3.25" stroke-linejoin="bevel" points="2333.8,321.632 2333.8,404.233"/>
<polyline class="Stem" fill="none" stroke="#000000" stroke-width="3.25" stroke-linejoin="bevel" points="496.435,797.602 496.435,879.233"/>
<polyline class="Stem" fill="none" stroke="#000000" stroke-width="3.25" stroke-linejoin="bevel" points="288.857,797.602 288.857,879.233"/>
<polyline class="Stem" fill="none" stroke="#000000" stroke-width="3.25" stroke-linejoin="bevel" points="898.208,347.602 898.208,416.648"/>
<polyline class="Stem" fill="none" stroke="#000000" stroke-width="3.25" stroke-linejoin="bevel" points="2055.01,1797.6 2055.01,1866.73"/>
<polyline class="Stem" fill="none" stroke="#000000" stroke-width="3.25" stroke-linejoin="bevel" points="2288.99,1784.13 2288.99,1860.48"/>
<polyline class="Stem" fill="none" stroke="#000000" stroke-width="3.25" stroke-linejoin="bevel" points="2715.82,335.102 2715.82,410.567"/>
<polyline class="Stem" fill="none" stroke="#000000" stroke-width="3.25" stroke-linejoin="bevel" points="1015.48,335.102 1015.48,410.567"/>
<polyline class="Stem" fill="none" stroke="#000000" stroke-width="3.25" stroke-linejoin="bevel" points="2598.56,347.602 2598.56,416.648"/>
<polyline class="Stem" fill="none" stroke="#000000" stroke-width="3.25" stroke-linejoin="bevel" points="1879.7,1798.36 1879.7,1722.98"/>
<polyline class="Stem" fill="none" stroke="#000000" stroke-width="3.25" stroke-linejoin="bevel" points="1161.75,360.102 1161.75,435.483"/>
<polyline class="Stem" fill="none" stroke="#000000" stroke-width="3.25" stroke-linejoin="bevel" points="2128.9,297.602 2128.9,379.233"/>
<polyline class="Stem" fill="none" stroke="#000000" stroke-width="3.25" stroke-linejoin="bevel" points="1337.65,360.102 1337.65,435.483"/>
<polyline class="Stem" fill="none" stroke="#000000" stroke-width="3.25" stroke-linejoin="bevel" points="1513.55,335.102 1513.55,397.898"/>
<polyline class="Stem" fill="none" stroke="#000000" stroke-width="3.25" stroke-linejoin="bevel" points="1952.99,310.102 1952.99,391.733"/>
<polyline class="Stem" fill="none" stroke="#000000" stroke-width="3.25" stroke-linejoin="bevel" points="1777.09,310.102 1777.09,391.733"/>
<polyline class="Stem" fill="none" stroke="#000000" stroke-width="3.25" stroke-linejoin="bevel" points="1630.82,322.602 1630.82,391.817"/>
<polyline class="Stem" fill="none" stroke="#000000" stroke-width="3.25" stroke-linejoin="bevel" points="722.304,360.102 722.304,435.483"/>
<polyline class="Stem" fill="none" stroke="#000000" stroke-width="3.25" stroke-linejoin="bevel" points="704.012,785.102 704.012,866.733"/>
<polyline class="Stem" fill="none" stroke="#000000" stroke-width="3.25" stroke-linejoin="bevel" points="1355.74,835.102 1355.74,897.839"/>
<polyline class="Stem" fill="none" stroke="#000000" stroke-width="3.25" stroke-linejoin="bevel" points="940.59,810.102 940.59,891.733"/>
<polyline class="Stem" fill="none" stroke="#000000" stroke-width="3.25" stroke-linejoin="bevel" points="546.401,360.102 546.401,435.483"/>
<polyline class="Stem" fill="none" stroke="#000000" stroke-width="3.25" stroke-linejoin="bevel" points="371.162,385.863 371.162,304.232"/>
<polyline class="Stem" fill="none" stroke="#000000" stroke-width="3.25" stroke-linejoin="bevel" points="1148.17,835.102 1148.17,910.483"/>
<path class="Note" d="M2281.22,1277.37 C2283.1,1277.37 2287.06,1275.42 2293.09,1271.51 C2299.11,1267.61 2302.66,1264.99 2303.73,1263.65 C2304.81,1262.32 2305.34,1261.13 2305.34,1260.09 C2305.34,1259.05 2304.92,1258.12 2304.07,1257.31 C2303.22,1256.5 2302.25,1256.09 2301.14,1256.09 C2299.19,1256.09 2295.21,1258.06 2289.18,1262 C2283.15,1265.94 2279.62,1268.56 2278.58,1269.86 C2277.54,1271.16 2277.02,1272.33 2277.02,1273.37 C2277.02,1274.42 2277.42,1275.34 2278.24,1276.15 C2279.06,1276.97 2280.05,1277.37 2281.22,1277.37 M2300.17,1252.97 C2305.77,1252.97 2308.56,1255.37 2308.56,1260.19 C2308.56,1262.53 2307.88,1265.25 2306.52,1268.34 C2305.15,1271.44 2303.33,1273.8 2301.05,1275.42 C2296.04,1278.81 2289.76,1280.5 2282.2,1280.5 C2276.6,1280.5 2273.8,1278.09 2273.8,1273.28 C2273.8,1271.13 2274.46,1268.46 2275.8,1265.27 C2277.13,1262.08 2278.97,1259.67 2281.31,1258.05 C2286.33,1254.66 2292.62,1252.97 2300.17,1252.97"/>
<path class="Note" d="M1514.47,790.467 C1517.6,790.467 1520.2,791.248 1522.29,792.811 C1524.37,794.373 1525.41,796.618 1525.41,799.545 C1525.41,804.035 1523.09,808.233 1518.43,812.139 C1513.78,816.045 1508.79,817.998 1503.44,817.998 C1500.32,817.998 1497.68,817.186 1495.54,815.561 C1493.52,813.8 1492.5,811.587 1492.5,808.92 C1492.5,804.556 1494.82,800.389 1499.44,796.42 C1504.07,792.452 1509.08,790.467 1514.47,790.467"/>
<path class="Note" d="M953.138,1740.47 C956.263,1740.47 958.867,1741.25 960.95,1742.81 C963.034,1744.37 964.075,1746.62 964.075,1749.55 C964.075,1754.04 961.75,1758.23 957.099,1762.14 C952.448,1766.05 947.45,1768 942.107,1768 C938.982,1768 936.346,1767.19 934.2,1765.56 C932.18,1763.8 931.169,1761.59 931.169,1758.92 C931.169,1754.56 933.482,1750.39 938.107,1746.42 C942.732,1742.45 947.742,1740.47 953.138,1740.47"/>
<path class="Note" d="M1873.75,1240.47 C1876.88,1240.47 1879.48,1241.25 1881.56,1242.81 C1883.65,1244.37 1884.69,1246.62 1884.69,1249.55 C1884.69,1254.04 1882.36,1258.23 1877.71,1262.14 C1873.06,1266.05 1868.06,1268 1862.72,1268 C1859.6,1268 1856.96,1267.19 1854.81,1265.56 C1852.79,1263.8 1851.78,1261.59 1851.78,1258.92 C1851.78,1254.56 1854.1,1250.39 1858.72,1246.42 C1863.35,1242.45 1868.36,1240.47 1873.75,1240.47"/>
<path class="Note" d="M1533.9,315.467 C1537.02,315.467 1539.62,316.248 1541.71,317.811 C1543.79,319.373 1544.83,321.618 1544.83,324.545 C1544.83,329.035 1542.51,333.232 1537.86,337.139 C1533.21,341.045 1528.21,342.998 1522.86,342.998 C1519.74,342.998 1517.1,342.186 1514.96,340.561 C1512.94,338.8 1511.93,336.587 1511.93,333.92 C1511.93,329.555 1514.24,325.389 1518.86,321.42 C1523.49,317.451 1528.5,315.467 1533.9,315.467"/>
<path class="Note" d="M2294.79,1789.87 C2296.68,1789.87 2300.63,1787.92 2306.66,1784.01 C2312.68,1780.11 2316.23,1777.49 2317.31,1776.16 C2318.38,1774.82 2318.92,1773.63 2318.92,1772.59 C2318.92,1771.55 2318.49,1770.62 2317.64,1769.81 C2316.79,1769 2315.82,1768.59 2314.71,1768.59 C2312.76,1768.59 2308.78,1770.56 2302.75,1774.5 C2296.73,1778.44 2293.19,1781.06 2292.15,1782.36 C2291.11,1783.66 2290.59,1784.83 2290.59,1785.87 C2290.59,1786.92 2291,1787.84 2291.81,1788.66 C2292.63,1789.47 2293.62,1789.87 2294.79,1789.87 M2313.74,1765.47 C2319.34,1765.47 2322.13,1767.87 2322.13,1772.69 C2322.13,1775.03 2321.45,1777.75 2320.09,1780.84 C2318.72,1783.94 2316.9,1786.3 2314.62,1787.92 C2309.61,1791.31 2303.33,1793 2295.78,1793 C2290.17,1793 2287.37,1790.59 2287.37,1785.78 C2287.37,1783.63 2288.04,1780.97 2289.37,1777.77 C2290.7,1774.58 2292.54,1772.17 2294.88,1770.55 C2299.91,1767.16 2306.19,1765.47 2313.74,1765.47"/>
<path class="Note" d="M2070.26,1227.97 C2073.38,1227.97 2075.99,1228.75 2078.07,1230.31 C2080.15,1231.87 2081.2,1234.12 2081.2,1237.05 C2081.2,1241.54 2078.87,1245.73 2074.22,1249.64 C2069.57,1253.55 2064.57,1255.5 2059.23,1255.5 C2056.1,1255.5 2053.47,1254.69 2051.32,1253.06 C2049.3,1251.3 2048.29,1249.09 2048.29,1246.42 C2048.29,1242.06 2050.6,1237.89 2055.23,1233.92 C2059.85,1229.95 2064.86,1227.97 2070.26,1227.97"/>
<path class="Note" d="M1357.99,340.467 C1361.12,340.467 1363.72,341.248 1365.8,342.811 C1367.89,344.373 1368.93,346.618 1368.93,349.545 C1368.93,354.035 1366.6,358.232 1361.95,362.139 C1357.3,366.045 1352.3,367.998 1346.96,367.998 C1343.84,367.998 1341.2,367.186 1339.05,365.561 C1337.03,363.8 1336.02,361.587 1336.02,358.92 C1336.02,354.555 1338.34,350.389 1342.96,346.42 C1347.59,342.451 1352.6,340.467 1357.99,340.467"/>
<path class="Note" d="M1182.09,340.467 C1185.21,340.467 1187.82,341.248 1189.9,342.811 C1191.98,344.373 1193.03,346.618 1193.03,349.545 C1193.03,354.035 1190.7,358.232 1186.05,362.139 C1181.4,366.045 1176.4,367.998 1171.06,367.998 C1167.93,367.998 1165.3,367.186 1163.15,365.561 C1161.13,363.8 1160.12,361.587 1160.12,358.92 C1160.12,354.555 1162.43,350.389 1167.06,346.42 C1171.68,342.451 1176.69,340.467 1182.09,340.467"/>
<path class="Note" d="M361.842,377.967 C364.967,377.967 367.571,378.748 369.654,380.311 C371.738,381.873 372.779,384.118 372.779,387.045 C372.779,391.535 370.454,395.733 365.803,399.639 C361.152,403.545 356.154,405.498 350.811,405.498 C347.686,405.498 345.05,404.686 342.904,403.061 C340.884,401.3 339.873,399.087 339.873,396.42 C339.873,392.055 342.186,387.889 346.811,383.92 C351.436,379.951 356.446,377.967 361.842,377.967"/>
<path class="Note" d="M719.159,1715.47 C722.284,1715.47 724.888,1716.25 726.971,1717.81 C729.055,1719.37 730.096,1721.62 730.096,1724.55 C730.096,1729.04 727.771,1733.23 723.12,1737.14 C718.469,1741.05 713.471,1743 708.128,1743 C705.003,1743 702.367,1742.19 700.221,1740.56 C698.201,1738.8 697.19,1736.59 697.19,1733.92 C697.19,1729.56 699.503,1725.39 704.128,1721.42 C708.753,1717.45 713.763,1715.47 719.159,1715.47"/>
<path class="Note" d="M1158.12,1740.47 C1161.24,1740.47 1163.85,1741.25 1165.93,1742.81 C1168.01,1744.37 1169.05,1746.62 1169.05,1749.55 C1169.05,1754.04 1166.73,1758.23 1162.08,1762.14 C1157.43,1766.05 1152.43,1768 1147.09,1768 C1143.96,1768 1141.33,1767.19 1139.18,1765.56 C1137.16,1763.8 1136.15,1761.59 1136.15,1758.92 C1136.15,1754.56 1138.46,1750.39 1143.09,1746.42 C1147.71,1742.45 1152.72,1740.47 1158.12,1740.47"/>
<path class="Note" d="M1035.82,315.467 C1038.95,315.467 1041.55,316.248 1043.63,317.811 C1045.72,319.373 1046.76,321.618 1046.76,324.545 C1046.76,329.035 1044.43,333.232 1039.78,337.139 C1035.13,341.045 1030.13,342.998 1024.79,342.998 C1021.66,342.998 1019.03,342.186 1016.88,340.561 C1014.86,338.8 1013.85,336.587 1013.85,333.92 C1013.85,329.555 1016.16,325.389 1020.79,321.42 C1025.41,317.451 1030.42,315.467 1035.82,315.467"/>
<path class="Note" d="M2591.43,1277.97 C2594.55,1277.97 2597.16,1278.75 2599.24,1280.31 C2601.32,1281.87 2602.37,1284.12 2602.37,1287.05 C2602.37,1291.54 2600.04,1295.73 2595.39,1299.64 C2590.74,1303.55 2585.74,1305.5 2580.4,1305.5 C2577.27,1305.5 2574.64,1304.69 2572.49,1303.06 C2570.47,1301.3 2569.46,1299.09 2569.46,1296.42 C2569.46,1292.06 2571.77,1287.89 2576.4,1283.92 C2581.02,1279.95 2586.03,1277.97 2591.43,1277.97"/>
<path class="Note" d="M1363.1,1765.47 C1366.22,1765.47 1368.82,1766.25 1370.91,1767.81 C1372.99,1769.37 1374.03,1771.62 1374.03,1774.55 C1374.03,1779.04 1371.71,1783.23 1367.06,1787.14 C1362.41,1791.05 1357.41,1793 1352.06,1793 C1348.94,1793 1346.3,1792.19 1344.16,1790.56 C1342.14,1788.8 1341.13,1786.59 1341.13,1783.92 C1341.13,1779.56 1343.44,1775.39 1348.06,1771.42 C1352.69,1767.45 1357.7,1765.47 1363.1,1765.47"/>
<path class="Note" d="M2722.43,1265.47 C2725.56,1265.47 2728.16,1266.25 2730.25,1267.81 C2732.33,1269.37 2733.37,1271.62 2733.37,1274.55 C2733.37,1279.04 2731.04,1283.23 2726.39,1287.14 C2721.74,1291.05 2716.75,1293 2711.4,1293 C2708.28,1293 2705.64,1292.19 2703.5,1290.56 C2701.47,1288.8 2700.46,1286.59 2700.46,1283.92 C2700.46,1279.56 2702.78,1275.39 2707.4,1271.42 C2712.03,1267.45 2717.04,1265.47 2722.43,1265.47"/>
<path class="Note" d="M514.18,1727.97 C517.305,1727.97 519.909,1728.75 521.993,1730.31 C524.076,1731.87 525.118,1734.12 525.118,1737.05 C525.118,1741.54 522.792,1745.73 518.141,1749.64 C513.49,1753.55 508.493,1755.5 503.149,1755.5 C500.024,1755.5 497.388,1754.69 495.243,1753.06 C493.222,1751.3 492.211,1749.09 492.211,1746.42 C492.211,1742.06 494.524,1737.89 499.149,1733.92 C503.774,1729.95 508.784,1727.97 514.18,1727.97"/>
<path class="Note" d="M566.745,340.467 C569.87,340.467 572.474,341.248 574.558,342.811 C576.641,344.373 577.683,346.618 577.683,349.545 C577.683,354.035 575.357,358.232 570.706,362.139 C566.055,366.045 561.058,367.998 555.714,367.998 C552.589,367.998 549.953,367.186 547.808,365.561 C545.787,363.8 544.776,361.587 544.776,358.92 C544.776,354.555 547.089,350.389 551.714,346.42 C556.339,342.451 561.349,340.467 566.745,340.467"/>
<path class="Note" d="M918.551,327.967 C921.676,327.967 924.281,328.748 926.364,330.311 C928.447,331.873 929.489,334.118 929.489,337.045 C929.489,341.535 927.163,345.732 922.512,349.639 C917.861,353.545 912.864,355.498 907.52,355.498 C904.395,355.498 901.76,354.686 899.614,353.061 C897.593,351.3 896.583,349.087 896.583,346.42 C896.583,342.055 898.895,337.889 903.52,333.92 C908.145,329.951 913.156,327.967 918.551,327.967"/>
<path class="Note" d="M309.201,1727.97 C312.326,1727.97 314.93,1728.75 317.014,1730.31 C319.097,1731.87 320.139,1734.12 320.139,1737.05 C320.139,1741.54 317.813,1745.73 313.162,1749.64 C308.511,1753.55 303.514,1755.5 298.17,1755.5 C295.045,1755.5 292.41,1754.69 290.264,1753.06 C288.243,1751.3 287.232,1749.09 287.232,1746.42 C287.232,1742.06 289.545,1737.89 294.17,1733.92 C298.795,1729.95 303.805,1727.97 309.201,1727.97"/>
<path class="Note" d="M742.648,340.467 C745.773,340.467 748.377,341.248 750.461,342.811 C752.544,344.373 753.586,346.618 753.586,349.545 C753.586,354.035 751.26,358.232 746.609,362.139 C741.958,366.045 736.961,367.998 731.617,367.998 C728.492,367.998 725.857,367.186 723.711,365.561 C721.69,363.8 720.679,361.587 720.679,358.92 C720.679,354.555 722.992,350.389 727.617,346.42 C732.242,342.451 737.252,340.467 742.648,340.467"/>
<path class="Note" d="M1651.16,302.967 C1654.29,302.967 1656.89,303.748 1658.98,305.311 C1661.06,306.873 1662.1,309.118 1662.1,312.045 C1662.1,316.535 1659.78,320.732 1655.13,324.639 C1650.47,328.545 1645.48,330.498 1640.13,330.498 C1637.01,330.498 1634.37,329.686 1632.23,328.061 C1630.21,326.3 1629.2,324.087 1629.2,321.42 C1629.2,317.055 1631.51,312.889 1636.13,308.92 C1640.76,304.951 1645.77,302.967 1651.16,302.967"/>
<path class="Note" d="M1376.09,815.467 C1379.21,815.467 1381.82,816.248 1383.9,817.811 C1385.98,819.373 1387.03,821.618 1387.03,824.545 C1387.03,829.035 1384.7,833.233 1380.05,837.139 C1375.4,841.045 1370.4,842.998 1365.06,842.998 C1361.93,842.998 1359.3,842.186 1357.15,840.561 C1355.13,838.801 1354.12,836.587 1354.12,833.92 C1354.12,829.556 1356.43,825.389 1361.06,821.42 C1365.68,817.452 1370.69,815.467 1376.09,815.467"/>
<path class="Note" d="M1168.51,815.467 C1171.64,815.467 1174.24,816.248 1176.32,817.811 C1178.41,819.373 1179.45,821.618 1179.45,824.545 C1179.45,829.035 1177.12,833.233 1172.47,837.139 C1167.82,841.045 1162.82,842.998 1157.48,842.998 C1154.35,842.998 1151.72,842.186 1149.57,840.561 C1147.55,838.801 1146.54,836.587 1146.54,833.92 C1146.54,829.556 1148.85,825.389 1153.48,821.42 C1158.1,817.452 1163.12,815.467 1168.51,815.467"/>
<path class="Note" d="M1681.86,802.967 C1684.98,802.967 1687.59,803.748 1689.67,805.311 C1691.75,806.873 1692.8,809.118 1692.8,812.045 C1692.8,816.535 1690.47,820.733 1685.82,824.639 C1681.17,828.545 1676.17,830.498 1670.83,830.498 C1667.7,830.498 1665.07,829.686 1662.92,828.061 C1660.9,826.3 1659.89,824.087 1659.89,821.42 C1659.89,817.056 1662.2,812.889 1666.83,808.92 C1671.45,804.952 1676.46,802.967 1681.86,802.967"/>
<path class="Note" d="M1889.44,840.467 C1892.56,840.467 1895.17,841.248 1897.25,842.811 C1899.33,844.373 1900.37,846.618 1900.37,849.545 C1900.37,854.035 1898.05,858.233 1893.4,862.139 C1888.75,866.045 1883.75,867.998 1878.4,867.998 C1875.28,867.998 1872.64,867.186 1870.5,865.561 C1868.48,863.801 1867.47,861.587 1867.47,858.92 C1867.47,854.556 1869.78,850.389 1874.4,846.42 C1879.03,842.452 1884.04,840.467 1889.44,840.467"/>
<path class="Note" d="M960.934,790.467 C964.059,790.467 966.663,791.248 968.746,792.811 C970.829,794.373 971.871,796.618 971.871,799.545 C971.871,804.035 969.546,808.233 964.895,812.139 C960.244,816.045 955.246,817.998 949.902,817.998 C946.777,817.998 944.142,817.186 941.996,815.561 C939.975,813.8 938.965,811.587 938.965,808.92 C938.965,804.556 941.277,800.389 945.902,796.42 C950.527,792.452 955.538,790.467 960.934,790.467"/>
<path class="Note" d="M2097.01,815.467 C2100.14,815.467 2102.74,816.248 2104.83,817.811 C2106.91,819.373 2107.95,821.618 2107.95,824.545 C2107.95,829.035 2105.63,833.233 2100.97,837.139 C2096.32,841.045 2091.33,842.998 2085.98,842.998 C2082.86,842.998 2080.22,842.186 2078.08,840.561 C2076.06,838.801 2075.04,836.587 2075.04,833.92 C2075.04,829.556 2077.36,825.389 2081.98,821.42 C2086.61,817.452 2091.62,815.467 2097.01,815.467"/>
<path class="Note" d="M1665.4,1752.97 C1668.53,1752.97 1671.13,1753.75 1673.21,1755.31 C1675.3,1756.87 1676.34,1759.12 1676.34,1762.05 C1676.34,1766.54 1674.01,1770.73 1669.36,1774.64 C1664.71,1778.55 1659.71,1780.5 1654.37,1780.5 C1651.24,1780.5 1648.61,1779.69 1646.46,1778.06 C1644.44,1776.3 1643.43,1774.09 1643.43,1771.42 C1643.43,1767.06 1645.74,1762.89 1650.37,1758.92 C1654.99,1754.95 1660.01,1752.97 1665.4,1752.97"/>
<path class="Note" d="M724.356,765.467 C727.481,765.467 730.085,766.248 732.169,767.811 C734.252,769.373 735.294,771.618 735.294,774.545 C735.294,779.035 732.968,783.233 728.317,787.139 C723.666,791.045 718.669,792.998 713.325,792.998 C710.2,792.998 707.564,792.186 705.419,790.561 C703.398,788.8 702.387,786.587 702.387,783.92 C702.387,779.556 704.7,775.389 709.325,771.42 C713.95,767.452 718.96,765.467 724.356,765.467"/>
<path class="Note" d="M2319.04,852.373 C2320.93,852.373 2324.89,850.42 2330.91,846.514 C2336.94,842.608 2340.49,839.988 2341.56,838.655 C2342.63,837.321 2343.17,836.134 2343.17,835.092 C2343.17,834.051 2342.74,833.123 2341.9,832.311 C2341.05,831.498 2340.07,831.092 2338.97,831.092 C2337.02,831.092 2333.03,833.061 2327.01,836.998 C2320.98,840.936 2317.45,843.556 2316.4,844.858 C2315.36,846.16 2314.84,847.332 2314.84,848.373 C2314.84,849.415 2315.25,850.342 2316.07,851.155 C2316.89,851.967 2317.88,852.373 2319.04,852.373 M2338,827.967 C2343.59,827.967 2346.39,830.373 2346.39,835.186 C2346.39,837.53 2345.71,840.248 2344.34,843.342 C2342.98,846.436 2341.15,848.795 2338.87,850.42 C2333.86,853.806 2327.58,855.498 2320.03,855.498 C2314.42,855.498 2311.62,853.092 2311.62,848.28 C2311.62,846.134 2312.29,843.465 2313.62,840.272 C2314.96,837.079 2316.79,834.67 2319.14,833.045 C2324.16,829.66 2330.45,827.967 2338,827.967"/>
<path class="Note" d="M516.779,777.967 C519.904,777.967 522.508,778.748 524.591,780.311 C526.675,781.873 527.716,784.118 527.716,787.045 C527.716,791.535 525.391,795.733 520.74,799.639 C516.089,803.545 511.091,805.498 505.747,805.498 C502.622,805.498 499.987,804.686 497.841,803.061 C495.82,801.3 494.81,799.087 494.81,796.42 C494.81,792.056 497.122,787.889 501.747,783.92 C506.372,779.952 511.383,777.967 516.779,777.967"/>
<path class="Note" d="M2645.86,852.967 C2648.98,852.967 2651.59,853.748 2653.67,855.311 C2655.76,856.873 2656.8,859.118 2656.8,862.045 C2656.8,866.535 2654.47,870.733 2649.82,874.639 C2645.17,878.545 2640.17,880.498 2634.83,880.498 C2631.7,880.498 2629.07,879.686 2626.92,878.061 C2624.9,876.301 2623.89,874.087 2623.89,871.42 C2623.89,867.056 2626.2,862.889 2630.83,858.92 C2635.45,854.952 2640.46,852.967 2645.86,852.967"/>
<path class="Note" d="M309.201,777.967 C312.326,777.967 314.93,778.748 317.014,780.311 C319.097,781.873 320.139,784.118 320.139,787.045 C320.139,791.535 317.813,795.733 313.162,799.639 C308.511,803.545 303.514,805.498 298.17,805.498 C295.045,805.498 292.41,804.686 290.264,803.061 C288.243,801.3 287.232,799.087 287.232,796.42 C287.232,792.056 289.545,787.889 294.17,783.92 C298.795,779.952 303.805,777.967 309.201,777.967"/>
<path class="Note" d="M1870.38,1790.47 C1873.5,1790.47 1876.11,1791.25 1878.19,1792.81 C1880.28,1794.37 1881.32,1796.62 1881.32,1799.55 C1881.32,1804.04 1878.99,1808.23 1874.34,1812.14 C1869.69,1816.05 1864.69,1818 1859.35,1818 C1856.22,1818 1853.59,1817.19 1851.44,1815.56 C1849.42,1813.8 1848.41,1811.59 1848.41,1808.92 C1848.41,1804.56 1850.72,1800.39 1855.35,1796.42 C1859.97,1792.45 1864.98,1790.47 1870.38,1790.47"/>
<path class="Note" d="M2736.17,315.467 C2739.29,315.467 2741.9,316.248 2743.98,317.811 C2746.06,319.373 2747.11,321.618 2747.11,324.545 C2747.11,329.035 2744.78,333.232 2740.13,337.139 C2735.48,341.045 2730.48,342.998 2725.14,342.998 C2722.01,342.998 2719.38,342.186 2717.23,340.561 C2715.21,338.8 2714.2,336.587 2714.2,333.92 C2714.2,329.555 2716.51,325.389 2721.14,321.42 C2725.76,317.451 2730.77,315.467 2736.17,315.467"/>
<path class="Note" d="M309.201,1290.47 C312.326,1290.47 314.93,1291.25 317.014,1292.81 C319.097,1294.37 320.139,1296.62 320.139,1299.55 C320.139,1304.04 317.813,1308.23 313.162,1312.14 C308.511,1316.05 303.514,1318 298.17,1318 C295.045,1318 292.41,1317.19 290.264,1315.56 C288.243,1313.8 287.232,1311.59 287.232,1308.92 C287.232,1304.56 289.545,1300.39 294.17,1296.42 C298.795,1292.45 303.805,1290.47 309.201,1290.47"/>
<path class="Note" d="M505.708,1290.47 C508.833,1290.47 511.437,1291.25 513.52,1292.81 C515.604,1294.37 516.645,1296.62 516.645,1299.55 C516.645,1304.04 514.32,1308.23 509.669,1312.14 C505.018,1316.05 500.02,1318 494.677,1318 C491.552,1318 488.916,1317.19 486.77,1315.56 C484.75,1313.8 483.739,1311.59 483.739,1308.92 C483.739,1304.56 486.052,1300.39 490.677,1296.42 C495.302,1292.45 500.312,1290.47 505.708,1290.47"/>
<path class="Note" d="M2075.36,1777.97 C2078.48,1777.97 2081.09,1778.75 2083.17,1780.31 C2085.25,1781.87 2086.3,1784.12 2086.3,1787.05 C2086.3,1791.54 2083.97,1795.73 2079.32,1799.64 C2074.67,1803.55 2069.67,1805.5 2064.33,1805.5 C2061.2,1805.5 2058.57,1804.69 2056.42,1803.06 C2054.4,1801.3 2053.39,1799.09 2053.39,1796.42 C2053.39,1792.06 2055.7,1787.89 2060.33,1783.92 C2064.95,1779.95 2069.96,1777.97 2075.36,1777.97"/>
<path class="Note" d="M702.215,1277.97 C705.34,1277.97 707.944,1278.75 710.027,1280.31 C712.11,1281.87 713.152,1284.12 713.152,1287.05 C713.152,1291.54 710.827,1295.73 706.176,1299.64 C701.524,1303.55 696.527,1305.5 691.183,1305.5 C688.058,1305.5 685.423,1304.69 683.277,1303.06 C681.256,1301.3 680.246,1299.09 680.246,1296.42 C680.246,1292.06 682.558,1287.89 687.183,1283.92 C691.808,1279.95 696.819,1277.97 702.215,1277.97"/>
<path class="Note" d="M2618.9,327.967 C2622.02,327.967 2624.63,328.748 2626.71,330.311 C2628.8,331.873 2629.84,334.118 2629.84,337.045 C2629.84,341.535 2627.51,345.732 2622.86,349.639 C2618.21,353.545 2613.21,355.498 2607.87,355.498 C2604.74,355.498 2602.11,354.686 2599.96,353.061 C2597.94,351.3 2596.93,349.087 2596.93,346.42 C2596.93,342.055 2599.24,337.889 2603.87,333.92 C2608.49,329.951 2613.5,327.967 2618.9,327.967"/>
<path class="Note" d="M833.219,1265.47 C836.344,1265.47 838.948,1266.25 841.032,1267.81 C843.115,1269.37 844.157,1271.62 844.157,1274.55 C844.157,1279.04 841.831,1283.23 837.18,1287.14 C832.529,1291.05 827.532,1293 822.188,1293 C819.063,1293 816.427,1292.19 814.282,1290.56 C812.261,1288.8 811.25,1286.59 811.25,1283.92 C811.25,1279.56 813.563,1275.39 818.188,1271.42 C822.813,1267.45 827.823,1265.47 833.219,1265.47"/>
<path class="Note" d="M2339.6,327.373 C2341.48,327.373 2345.44,325.42 2351.46,321.514 C2357.49,317.607 2361.04,314.988 2362.11,313.654 C2363.18,312.321 2363.72,311.134 2363.72,310.092 C2363.72,309.05 2363.3,308.123 2362.45,307.311 C2361.6,306.498 2360.62,306.092 2359.52,306.092 C2357.57,306.092 2353.58,308.061 2347.56,311.998 C2341.53,315.936 2338,318.555 2336.95,319.857 C2335.91,321.16 2335.39,322.331 2335.39,323.373 C2335.39,324.415 2335.8,325.342 2336.62,326.154 C2337.44,326.967 2338.43,327.373 2339.6,327.373 M2358.55,302.967 C2364.14,302.967 2366.94,305.373 2366.94,310.186 C2366.94,312.529 2366.26,315.248 2364.89,318.342 C2363.53,321.436 2361.7,323.795 2359.42,325.42 C2354.41,328.805 2348.13,330.498 2340.58,330.498 C2334.98,330.498 2332.17,328.092 2332.17,323.279 C2332.17,321.134 2332.84,318.464 2334.17,315.272 C2335.51,312.079 2337.35,309.67 2339.69,308.045 C2344.71,304.66 2351,302.967 2358.55,302.967"/>
<path class="Note" d="M2149.24,277.967 C2152.36,277.967 2154.97,278.748 2157.05,280.311 C2159.14,281.873 2160.18,284.118 2160.18,287.045 C2160.18,291.535 2157.85,295.732 2153.2,299.639 C2148.55,303.545 2143.55,305.498 2138.21,305.498 C2135.08,305.498 2132.45,304.686 2130.3,303.061 C2128.28,301.3 2127.27,299.087 2127.27,296.42 C2127.27,292.055 2129.58,287.889 2134.21,283.92 C2138.83,279.951 2143.84,277.967 2149.24,277.967"/>
<path class="Note" d="M993.223,1290.47 C996.348,1290.47 998.953,1291.25 1001.04,1292.81 C1003.12,1294.37 1004.16,1296.62 1004.16,1299.55 C1004.16,1304.04 1001.84,1308.23 997.184,1312.14 C992.533,1316.05 987.536,1318 982.192,1318 C979.067,1318 976.432,1317.19 974.286,1315.56 C972.265,1313.8 971.255,1311.59 971.255,1308.92 C971.255,1304.56 973.567,1300.39 978.192,1296.42 C982.817,1292.45 987.828,1290.47 993.223,1290.47"/>
<path class="Note" d="M1189.73,1290.47 C1192.86,1290.47 1195.46,1291.25 1197.54,1292.81 C1199.63,1294.37 1200.67,1296.62 1200.67,1299.55 C1200.67,1304.04 1198.34,1308.23 1193.69,1312.14 C1189.04,1316.05 1184.04,1318 1178.7,1318 C1175.57,1318 1172.94,1317.19 1170.79,1315.56 C1168.77,1313.8 1167.76,1311.59 1167.76,1308.92 C1167.76,1304.56 1170.07,1300.39 1174.7,1296.42 C1179.32,1292.45 1184.33,1290.47 1189.73,1290.47"/>
<path class="Note" d="M1973.34,290.467 C1976.46,290.467 1979.07,291.248 1981.15,292.811 C1983.23,294.373 1984.27,296.618 1984.27,299.545 C1984.27,304.035 1981.95,308.232 1977.3,312.139 C1972.65,316.045 1967.65,317.998 1962.3,317.998 C1959.18,317.998 1956.54,317.186 1954.4,315.561 C1952.38,313.8 1951.37,311.587 1951.37,308.92 C1951.37,304.555 1953.68,300.389 1958.3,296.42 C1962.93,292.451 1967.94,290.467 1973.34,290.467"/>
<path class="Note" d="M1386.24,1265.47 C1389.36,1265.47 1391.97,1266.25 1394.05,1267.81 C1396.13,1269.37 1397.17,1271.62 1397.17,1274.55 C1397.17,1279.04 1394.85,1283.23 1390.2,1287.14 C1385.55,1291.05 1380.55,1293 1375.21,1293 C1372.08,1293 1369.45,1292.19 1367.3,1290.56 C1365.28,1288.8 1364.27,1286.59 1364.27,1283.92 C1364.27,1279.56 1366.58,1275.39 1371.21,1271.42 C1375.83,1267.45 1380.84,1265.47 1386.24,1265.47"/>
<path class="Note" d="M1499.75,1740.47 C1502.87,1740.47 1505.48,1741.25 1507.56,1742.81 C1509.64,1744.37 1510.69,1746.62 1510.69,1749.55 C1510.69,1754.04 1508.36,1758.23 1503.71,1762.14 C1499.06,1766.05 1494.06,1768 1488.72,1768 C1485.59,1768 1482.96,1767.19 1480.81,1765.56 C1478.79,1763.8 1477.78,1761.59 1477.78,1758.92 C1477.78,1754.56 1480.09,1750.39 1484.72,1746.42 C1489.34,1742.45 1494.35,1740.47 1499.75,1740.47"/>
<path class="Note" d="M1517.24,1252.97 C1520.37,1252.97 1522.97,1253.75 1525.05,1255.31 C1527.14,1256.87 1528.18,1259.12 1528.18,1262.05 C1528.18,1266.54 1525.85,1270.73 1521.2,1274.64 C1516.55,1278.55 1511.55,1280.5 1506.21,1280.5 C1503.09,1280.5 1500.45,1279.69 1498.3,1278.06 C1496.28,1276.3 1495.27,1274.09 1495.27,1271.42 C1495.27,1267.06 1497.59,1262.89 1502.21,1258.92 C1506.84,1254.95 1511.85,1252.97 1517.24,1252.97"/>
<path class="Note" d="M1797.43,290.467 C1800.56,290.467 1803.16,291.248 1805.25,292.811 C1807.33,294.373 1808.37,296.618 1808.37,299.545 C1808.37,304.035 1806.04,308.232 1801.39,312.139 C1796.74,316.045 1791.75,317.998 1786.4,317.998 C1783.28,317.998 1780.64,317.186 1778.5,315.561 C1776.47,313.8 1775.46,311.587 1775.46,308.92 C1775.46,304.555 1777.78,300.389 1782.4,296.42 C1787.03,292.451 1792.04,290.467 1797.43,290.467"/>
<path class="Note" d="M1677.25,1240.47 C1680.37,1240.47 1682.97,1241.25 1685.06,1242.81 C1687.14,1244.37 1688.18,1246.62 1688.18,1249.55 C1688.18,1254.04 1685.86,1258.23 1681.21,1262.14 C1676.56,1266.05 1671.56,1268 1666.21,1268 C1663.09,1268 1660.45,1267.19 1658.31,1265.56 C1656.29,1263.8 1655.28,1261.59 1655.28,1258.92 C1655.28,1254.56 1657.59,1250.39 1662.21,1246.42 C1666.84,1242.45 1671.85,1240.47 1677.25,1240.47"/>
<path class="Clef" d="M203.623,423.858 L203.623,421.717 C203.56,420.613 203.399,418.889 203.139,416.545 C199.889,417.066 196.993,417.326 194.451,417.326 C185.337,417.326 177.605,413.727 171.256,406.529 C164.907,399.331 161.732,390.753 161.732,380.795 C161.732,378.128 162.253,374.923 163.295,371.178 C164.337,367.433 165.297,364.925 166.178,363.654 C167.058,362.384 168.378,360.154 170.139,356.967 C170.659,355.988 172.352,353.837 175.217,350.514 C175.738,349.805 176.193,349.222 176.584,348.764 C176.975,348.305 177.607,347.49 178.482,346.318 C179.357,345.147 180.3,344.055 181.31,343.045 C182.321,342.035 183.217,341.058 183.998,340.115 C184.779,339.173 185.498,338.378 186.154,337.733 C183.81,329.983 182.378,324.024 181.857,319.858 C181.337,315.691 181.076,310.579 181.076,304.522 C181.076,298.464 182.378,292.962 184.982,288.014 C187.514,282.878 191.06,278.68 195.623,275.42 C195.883,275.222 196.225,275.123 196.646,275.123 C197.068,275.123 197.378,275.222 197.576,275.42 C201.087,279.649 204.128,285.149 206.701,291.92 C209.274,298.691 210.56,305.024 210.56,310.92 C210.56,316.816 209.066,322.498 206.076,327.967 C202.691,333.759 198.326,339.748 192.982,345.936 C194.347,350.227 196.17,356.962 198.451,366.139 L199.045,366.139 C199.305,366.076 199.529,366.045 199.717,366.045 C207.081,366.045 213.089,368.634 217.74,373.811 C222.391,378.988 224.717,384.962 224.717,391.733 C224.717,400.128 221.238,406.899 214.279,412.045 C212.258,413.545 209.878,414.717 207.139,415.561 C207.472,419.79 207.639,422.605 207.639,424.006 C207.639,425.407 207.571,427.899 207.435,431.483 C207.373,437.597 205.29,442.837 201.185,447.201 C197.081,451.566 192.394,453.748 187.123,453.748 C181.852,453.748 177.36,451.876 173.646,448.131 C169.933,444.386 168.076,439.847 168.076,434.514 C168.076,431.712 169.154,429.331 171.31,427.373 C173.519,425.425 176.006,424.451 178.771,424.451 C181.537,424.451 183.8,425.462 185.56,427.483 C187.383,429.368 188.295,431.644 188.295,434.311 C188.295,436.977 187.383,439.222 185.56,441.045 C183.738,442.868 181.555,443.779 179.014,443.779 C177.972,443.779 176.967,443.587 175.998,443.201 C178.863,447.43 182.54,449.545 187.029,449.545 C191.519,449.545 195.36,447.691 198.553,443.983 C201.745,440.274 203.342,435.91 203.342,430.889 L203.623,423.858 M206.748,411.561 C210.133,410.321 212.821,408.123 214.81,404.967 C216.8,401.811 217.795,398.67 217.795,395.545 C217.795,390.92 216.199,386.785 213.006,383.139 C209.813,379.493 205.774,377.441 200.889,376.983 C203.691,390.722 205.644,402.248 206.748,411.561 M168.967,388.998 C168.967,395.446 171.537,401.079 176.678,405.897 C181.818,410.714 187.842,413.123 194.748,413.123 C197.477,413.123 200.144,412.925 202.748,412.529 C201.706,402.634 199.654,390.785 196.592,376.983 C192.758,377.378 189.782,378.699 187.662,380.943 C185.542,383.188 184.482,385.743 184.482,388.608 C184.482,393.555 187.123,397.561 192.404,400.623 C192.852,400.884 193.076,401.324 193.076,401.943 C193.076,402.563 192.865,403.1 192.443,403.553 C192.021,404.006 191.649,404.233 191.326,404.233 C191.003,404.233 190.581,404.17 190.06,404.045 C182.435,399.878 178.623,393.592 178.623,385.186 C178.623,381.217 180.024,377.41 182.826,373.764 C185.753,370.118 189.56,367.774 194.248,366.733 C192.425,359.441 190.93,353.743 189.764,349.639 C180.847,359.67 175.31,367.092 173.154,371.904 C170.363,378.154 168.967,383.852 168.967,388.998 M201.576,289.686 C196.691,292.092 192.834,295.574 190.006,300.131 C187.178,304.688 185.764,309.472 185.764,314.483 C185.764,319.493 186.935,325.972 189.279,333.92 C193.967,328.253 197.514,322.946 199.92,317.998 C202.326,313.05 203.529,308.152 203.529,303.303 C203.529,298.454 202.878,293.915 201.576,289.686"/>
<path class="Clef" d="M203.623,1848.86 L203.623,1846.72 C203.56,1845.61 203.399,1843.89 203.139,1841.55 C199.889,1842.07 196.993,1842.33 194.451,1842.33 C185.337,1842.33 177.605,1838.73 171.256,1831.53 C164.907,1824.33 161.732,1815.75 161.732,1805.8 C161.732,1803.13 162.253,1799.92 163.295,1796.18 C164.337,1792.43 165.297,1789.93 166.178,1788.66 C167.058,1787.38 168.378,1785.16 170.139,1781.97 C170.659,1780.99 172.352,1778.84 175.217,1775.51 C175.738,1774.81 176.193,1774.22 176.584,1773.76 C176.975,1773.31 177.607,1772.49 178.482,1771.32 C179.357,1770.15 180.3,1769.06 181.31,1768.05 C182.321,1767.04 183.217,1766.06 183.998,1765.12 C184.779,1764.17 185.498,1763.38 186.154,1762.73 C183.81,1754.98 182.378,1749.03 181.857,1744.86 C181.337,1740.69 181.076,1735.58 181.076,1729.52 C181.076,1723.47 182.378,1717.96 184.982,1713.01 C187.514,1707.88 191.06,1703.68 195.623,1700.42 C195.883,1700.22 196.225,1700.12 196.646,1700.12 C197.068,1700.12 197.378,1700.22 197.576,1700.42 C201.087,1704.65 204.128,1710.15 206.701,1716.92 C209.274,1723.69 210.56,1730.03 210.56,1735.92 C210.56,1741.82 209.066,1747.5 206.076,1752.97 C202.691,1758.76 198.326,1764.75 192.982,1770.94 C194.347,1775.23 196.17,1781.96 198.451,1791.14 L199.045,1791.14 C199.305,1791.08 199.529,1791.05 199.717,1791.05 C207.081,1791.05 213.089,1793.63 217.74,1798.81 C222.391,1803.99 224.717,1809.96 224.717,1816.73 C224.717,1825.13 221.238,1831.9 214.279,1837.05 C212.258,1838.55 209.878,1839.72 207.139,1840.56 C207.472,1844.79 207.639,1847.61 207.639,1849.01 C207.639,1850.41 207.571,1852.9 207.435,1856.48 C207.373,1862.6 205.29,1867.84 201.185,1872.2 C197.081,1876.57 192.394,1878.75 187.123,1878.75 C181.852,1878.75 177.36,1876.88 173.646,1873.13 C169.933,1869.39 168.076,1864.85 168.076,1859.51 C168.076,1856.71 169.154,1854.33 171.31,1852.37 C173.519,1850.43 176.006,1849.45 178.771,1849.45 C181.537,1849.45 183.8,1850.46 185.56,1852.48 C187.383,1854.37 188.295,1856.64 188.295,1859.31 C188.295,1861.98 187.383,1864.22 185.56,1866.05 C183.738,1867.87 181.555,1868.78 179.014,1868.78 C177.972,1868.78 176.967,1868.59 175.998,1868.2 C178.863,1872.43 182.54,1874.55 187.029,1874.55 C191.519,1874.55 195.36,1872.69 198.553,1868.98 C201.745,1865.28 203.342,1860.91 203.342,1855.89 L203.623,1848.86 M206.748,1836.56 C210.133,1835.32 212.821,1833.12 214.81,1829.97 C216.8,1826.81 217.795,1823.67 217.795,1820.55 C217.795,1815.92 216.199,1811.79 213.006,1808.14 C209.813,1804.49 205.774,1802.44 200.889,1801.98 C203.691,1815.72 205.644,1827.25 206.748,1836.56 M168.967,1814 C168.967,1820.45 171.537,1826.08 176.678,1830.9 C181.818,1835.72 187.842,1838.12 194.748,1838.12 C197.477,1838.12 200.144,1837.93 202.748,1837.53 C201.706,1827.63 199.654,1815.79 196.592,1801.98 C192.758,1802.38 189.782,1803.7 187.662,1805.94 C185.542,1808.19 184.482,1810.74 184.482,1813.61 C184.482,1818.56 187.123,1822.56 192.404,1825.62 C192.852,1825.88 193.076,1826.32 193.076,1826.94 C193.076,1827.56 192.865,1828.1 192.443,1828.55 C192.021,1829.01 191.649,1829.23 191.326,1829.23 C191.003,1829.23 190.581,1829.17 190.06,1829.05 C182.435,1824.88 178.623,1818.59 178.623,1810.19 C178.623,1806.22 180.024,1802.41 182.826,1798.76 C185.753,1795.12 189.56,1792.78 194.248,1791.73 C192.425,1784.44 190.93,1778.74 189.764,1774.64 C180.847,1784.67 175.31,1792.09 173.154,1796.91 C170.363,1803.16 168.967,1808.85 168.967,1814 M201.576,1714.69 C196.691,1717.09 192.834,1720.57 190.006,1725.13 C187.178,1729.69 185.764,1734.47 185.764,1739.48 C185.764,1744.49 186.935,1750.97 189.279,1758.92 C193.967,1753.25 197.514,1747.95 199.92,1743 C202.326,1738.05 203.529,1733.15 203.529,1728.3 C203.529,1723.45 202.878,1718.92 201.576,1714.69"/>
<path class="Clef" d="M203.623,898.858 L203.623,896.717 C203.56,895.613 203.399,893.889 203.139,891.545 C199.889,892.066 196.993,892.327 194.451,892.327 C185.337,892.327 177.605,888.728 171.256,881.53 C164.907,874.332 161.732,865.754 161.732,855.795 C161.732,853.129 162.253,849.923 163.295,846.178 C164.337,842.433 165.297,839.926 166.178,838.655 C167.058,837.384 168.378,835.155 170.139,831.967 C170.659,830.988 172.352,828.837 175.217,825.514 C175.738,824.806 176.193,824.222 176.584,823.764 C176.975,823.306 177.607,822.491 178.482,821.319 C179.357,820.147 180.3,819.056 181.31,818.045 C182.321,817.035 183.217,816.058 183.998,815.116 C184.779,814.173 185.498,813.379 186.154,812.733 C183.81,804.983 182.378,799.024 181.857,794.858 C181.337,790.691 181.076,785.579 181.076,779.522 C181.076,773.465 182.378,767.962 184.982,763.014 C187.514,757.879 191.06,753.681 195.623,750.42 C195.883,750.222 196.225,750.123 196.646,750.123 C197.068,750.123 197.378,750.222 197.576,750.42 C201.087,754.649 204.128,760.149 206.701,766.92 C209.274,773.691 210.56,780.024 210.56,785.92 C210.56,791.816 209.066,797.498 206.076,802.967 C202.691,808.759 198.326,814.748 192.982,820.936 C194.347,825.228 196.17,831.962 198.451,841.139 L199.045,841.139 C199.305,841.077 199.529,841.045 199.717,841.045 C207.081,841.045 213.089,843.634 217.74,848.811 C222.391,853.988 224.717,859.962 224.717,866.733 C224.717,875.129 221.238,881.899 214.279,887.045 C212.258,888.545 209.878,889.717 207.139,890.561 C207.472,894.79 207.639,897.605 207.639,899.006 C207.639,900.407 207.571,902.899 207.435,906.483 C207.373,912.597 205.29,917.837 201.185,922.202 C197.081,926.566 192.394,928.748 187.123,928.748 C181.852,928.748 177.36,926.876 173.646,923.131 C169.933,919.386 168.076,914.847 168.076,909.514 C168.076,906.712 169.154,904.332 171.31,902.373 C173.519,900.426 176.006,899.452 178.771,899.452 C181.537,899.452 183.8,900.462 185.56,902.483 C187.383,904.368 188.295,906.644 188.295,909.311 C188.295,911.978 187.383,914.222 185.56,916.045 C183.738,917.868 181.555,918.78 179.014,918.78 C177.972,918.78 176.967,918.587 175.998,918.202 C178.863,922.431 182.54,924.545 187.029,924.545 C191.519,924.545 195.36,922.691 198.553,918.983 C201.745,915.274 203.342,910.91 203.342,905.889 L203.623,898.858 M206.748,886.561 C210.133,885.321 212.821,883.123 214.81,879.967 C216.8,876.811 217.795,873.67 217.795,870.545 C217.795,865.92 216.199,861.785 213.006,858.139 C209.813,854.493 205.774,852.441 200.889,851.983 C203.691,865.722 205.644,877.248 206.748,886.561 M168.967,863.998 C168.967,870.446 171.537,876.079 176.678,880.897 C181.818,885.715 187.842,888.123 194.748,888.123 C197.477,888.123 200.144,887.926 202.748,887.53 C201.706,877.634 199.654,865.785 196.592,851.983 C192.758,852.379 189.782,853.699 187.662,855.944 C185.542,858.189 184.482,860.743 184.482,863.608 C184.482,868.556 187.123,872.561 192.404,875.623 C192.852,875.884 193.076,876.324 193.076,876.944 C193.076,877.564 192.865,878.1 192.443,878.553 C192.021,879.006 191.649,879.233 191.326,879.233 C191.003,879.233 190.581,879.17 190.06,879.045 C182.435,874.879 178.623,868.592 178.623,860.186 C178.623,856.217 180.024,852.41 182.826,848.764 C185.753,845.118 189.56,842.774 194.248,841.733 C192.425,834.441 190.93,828.743 189.764,824.639 C180.847,834.67 175.31,842.092 173.154,846.905 C170.363,853.155 168.967,858.853 168.967,863.998 M201.576,764.686 C196.691,767.092 192.834,770.574 190.006,775.131 C187.178,779.689 185.764,784.472 185.764,789.483 C185.764,794.493 186.935,800.972 189.279,808.92 C193.967,803.254 197.514,797.946 199.92,792.998 C202.326,788.051 203.529,783.152 203.529,778.303 C203.529,773.454 202.878,768.915 201.576,764.686"/>
<path class="Clef" d="M203.623,1373.86 L203.623,1371.72 C203.56,1370.61 203.399,1368.89 203.139,1366.55 C199.889,1367.07 196.993,1367.33 194.451,1367.33 C185.337,1367.33 177.605,1363.73 171.256,1356.53 C164.907,1349.33 161.732,1340.75 161.732,1330.8 C161.732,1328.13 162.253,1324.92 163.295,1321.18 C164.337,1317.43 165.297,1314.93 166.178,1313.65 C167.058,1312.38 168.378,1310.15 170.139,1306.97 C170.659,1305.99 172.352,1303.84 175.217,1300.51 C175.738,1299.81 176.193,1299.22 176.584,1298.76 C176.975,1298.31 177.607,1297.49 178.482,1296.32 C179.357,1295.15 180.3,1294.06 181.31,1293.05 C182.321,1292.04 183.217,1291.06 183.998,1290.12 C184.779,1289.17 185.498,1288.38 186.154,1287.73 C183.81,1279.98 182.378,1274.02 181.857,1269.86 C181.337,1265.69 181.076,1260.58 181.076,1254.52 C181.076,1248.46 182.378,1242.96 184.982,1238.01 C187.514,1232.88 191.06,1228.68 195.623,1225.42 C195.883,1225.22 196.225,1225.12 196.646,1225.12 C197.068,1225.12 197.378,1225.22 197.576,1225.42 C201.087,1229.65 204.128,1235.15 206.701,1241.92 C209.274,1248.69 210.56,1255.02 210.56,1260.92 C210.56,1266.82 209.066,1272.5 206.076,1277.97 C202.691,1283.76 198.326,1289.75 192.982,1295.94 C194.347,1300.23 196.17,1306.96 198.451,1316.14 L199.045,1316.14 C199.305,1316.08 199.529,1316.05 199.717,1316.05 C207.081,1316.05 213.089,1318.63 217.74,1323.81 C222.391,1328.99 224.717,1334.96 224.717,1341.73 C224.717,1350.13 221.238,1356.9 214.279,1362.05 C212.258,1363.55 209.878,1364.72 207.139,1365.56 C207.472,1369.79 207.639,1372.61 207.639,1374.01 C207.639,1375.41 207.571,1377.9 207.435,1381.48 C207.373,1387.6 205.29,1392.84 201.185,1397.2 C197.081,1401.57 192.394,1403.75 187.123,1403.75 C181.852,1403.75 177.36,1401.88 173.646,1398.13 C169.933,1394.39 168.076,1389.85 168.076,1384.51 C168.076,1381.71 169.154,1379.33 171.31,1377.37 C173.519,1375.43 176.006,1374.45 178.771,1374.45 C181.537,1374.45 183.8,1375.46 185.56,1377.48 C187.383,1379.37 188.295,1381.64 188.295,1384.31 C188.295,1386.98 187.383,1389.22 185.56,1391.05 C183.738,1392.87 181.555,1393.78 179.014,1393.78 C177.972,1393.78 176.967,1393.59 175.998,1393.2 C178.863,1397.43 182.54,1399.55 187.029,1399.55 C191.519,1399.55 195.36,1397.69 198.553,1393.98 C201.745,1390.27 203.342,1385.91 203.342,1380.89 L203.623,1373.86 M206.748,1361.56 C210.133,1360.32 212.821,1358.12 214.81,1354.97 C216.8,1351.81 217.795,1348.67 217.795,1345.55 C217.795,1340.92 216.199,1336.79 213.006,1333.14 C209.813,1329.49 205.774,1327.44 200.889,1326.98 C203.691,1340.72 205.644,1352.25 206.748,1361.56 M168.967,1339 C168.967,1345.45 171.537,1351.08 176.678,1355.9 C181.818,1360.71 187.842,1363.12 194.748,1363.12 C197.477,1363.12 200.144,1362.93 202.748,1362.53 C201.706,1352.63 199.654,1340.79 196.592,1326.98 C192.758,1327.38 189.782,1328.7 187.662,1330.94 C185.542,1333.19 184.482,1335.74 184.482,1338.61 C184.482,1343.56 187.123,1347.56 192.404,1350.62 C192.852,1350.88 193.076,1351.32 193.076,1351.94 C193.076,1352.56 192.865,1353.1 192.443,1353.55 C192.021,1354.01 191.649,1354.23 191.326,1354.23 C191.003,1354.23 190.581,1354.17 190.06,1354.05 C182.435,1349.88 178.623,1343.59 178.623,1335.19 C178.623,1331.22 180.024,1327.41 182.826,1323.76 C185.753,1320.12 189.56,1317.77 194.248,1316.73 C192.425,1309.44 190.93,1303.74 189.764,1299.64 C180.847,1309.67 175.31,1317.09 173.154,1321.9 C170.363,1328.15 168.967,1333.85 168.967,1339 M201.576,1239.69 C196.691,1242.09 192.834,1245.57 190.006,1250.13 C187.178,1254.69 185.764,1259.47 185.764,1264.48 C185.764,1269.49 186.935,1275.97 189.279,1283.92 C193.967,1278.25 197.514,1272.95 199.92,1268 C202.326,1263.05 203.529,1258.15 203.529,1253.3 C203.529,1248.45 202.878,1243.92 201.576,1239.69"/>
<path class="TimeSig" d="M268.686,364.389 C272.852,364.389 274.936,360.514 274.936,352.764 L274.936,351.107 C274.936,349.222 274.87,347.644 274.74,346.373 C274.61,345.102 274.17,344.011 273.42,343.1 C272.67,342.188 271.514,341.732 269.951,341.732 L261.936,341.732 C261.029,341.732 260.576,341.277 260.576,340.365 C260.576,339.454 261.029,338.93 261.936,338.795 L269.951,338.795 C271.774,338.795 273.042,338.274 273.756,337.232 C274.469,336.191 274.863,334.498 274.936,332.154 L274.936,328.154 C274.936,322.102 272.722,319.076 268.295,319.076 C264.316,319.076 262.326,320.149 262.326,322.295 C262.326,323.014 262.93,323.795 264.139,324.639 C265.347,325.482 265.951,326.264 265.951,326.982 C265.951,328.607 265.381,329.99 264.24,331.131 C263.1,332.272 261.732,332.842 260.139,332.842 C258.545,332.842 257.193,332.256 256.084,331.084 C254.975,329.912 254.42,328.545 254.42,326.982 C254.42,323.92 255.79,321.415 258.529,319.467 C261.394,317.644 264.956,316.732 269.217,316.732 C273.477,316.732 277.204,317.66 280.396,319.514 C283.589,321.368 285.186,324.248 285.186,328.154 C285.186,330.956 284.891,333.089 284.303,334.553 C283.714,336.016 283.066,336.91 282.357,337.232 C280.462,338.014 279.514,339.024 279.514,340.264 C279.514,341.107 280.686,342.316 283.029,343.889 C283.811,344.337 284.592,345.36 285.373,346.959 C286.154,348.558 286.545,350.493 286.545,352.764 C286.545,357.264 284.87,360.717 281.521,363.123 C278.173,365.529 274.136,366.732 269.412,366.732 C264.688,366.732 260.863,365.691 257.936,363.607 C254.811,361.66 253.248,358.925 253.248,355.404 C253.248,353.717 253.899,352.154 255.201,350.717 C256.566,349.477 258.144,348.857 259.936,348.857 C261.727,348.857 263.212,349.509 264.389,350.811 C265.691,352.05 266.342,353.581 266.342,355.404 C266.342,356.248 265.691,357.16 264.389,358.139 C263.014,359.055 262.326,360.035 262.326,361.076 C262.326,362.118 262.946,362.93 264.186,363.514 C265.425,364.097 266.925,364.389 268.686,364.389"/>
<path class="TimeSig" d="M273.021,368.084 C274.516,368.084 275.949,367.858 277.318,367.404 C278.688,366.951 279.665,366.725 280.248,366.725 C280.831,366.725 281.222,367.079 281.42,367.787 C281.42,367.86 281.352,368.058 281.217,368.381 L252.811,401.397 L269.498,401.397 L269.498,388.303 C269.498,386.678 270.446,385.506 272.342,384.787 C274.29,384.068 276.503,381.173 278.982,376.1 C279.17,375.704 279.462,375.506 279.857,375.506 C280.639,375.506 281.092,375.964 281.217,376.881 L281.217,401.397 L288.357,401.397 C289.264,401.397 289.751,401.884 289.818,402.858 C289.886,403.831 289.399,404.318 288.357,404.318 L281.217,404.318 L281.217,405.1 C281.217,407.704 281.868,409.917 283.17,411.74 C284.67,413.563 286.43,414.475 288.451,414.475 C289.232,414.475 289.623,414.865 289.623,415.647 C289.623,416.428 289.087,416.818 288.014,416.818 C286.941,416.818 284.938,416.608 282.006,416.186 C279.074,415.764 276.811,415.553 275.217,415.553 C273.623,415.553 271.41,415.764 268.576,416.186 C265.743,416.608 263.613,416.818 262.186,416.818 C261.404,416.818 261.014,416.428 261.014,415.647 C261.014,414.865 261.404,414.475 262.186,414.475 C264.196,414.475 265.951,413.563 267.451,411.74 C268.816,409.855 269.498,407.641 269.498,405.1 L269.498,404.318 L252.811,404.318 C251.956,404.318 251.219,404.092 250.6,403.639 C249.98,403.186 249.67,402.764 249.67,402.373 C249.67,401.983 250.485,400.811 252.115,398.858 C253.745,396.904 256.074,393.144 259.1,387.576 C262.126,382.009 263.639,375.61 263.639,368.381 C263.639,367.339 264.097,366.818 265.014,366.818 C265.212,366.818 265.521,366.884 265.943,367.014 C266.365,367.144 267.277,367.355 268.678,367.647 C270.079,367.938 271.527,368.084 273.021,368.084"/>
<path class="Rest" d="M2596.13,1786.45 C2595.47,1785.61 2595.15,1784.7 2595.15,1783.72 C2595.15,1781.97 2597.23,1779.53 2601.41,1776.41 C2605.51,1773.21 2607.55,1769.56 2607.55,1765.47 C2607.55,1763.05 2606.71,1760.84 2605.02,1758.83 L2601.51,1754.62 C2601.24,1754.36 2601.11,1754.04 2601.11,1753.65 C2601.11,1753.26 2601.31,1752.9 2601.69,1752.58 C2602.15,1752.24 2602.58,1752.08 2602.97,1752.08 C2603.36,1752.08 2603.68,1752.28 2603.94,1752.67 L2619.08,1770.64 C2619.73,1771.48 2620.05,1772.41 2620.05,1773.42 C2620.05,1774.43 2619.52,1775.52 2618.44,1776.69 C2617.37,1777.87 2615.86,1779.23 2613.91,1780.8 C2612.41,1781.7 2610.99,1783.13 2609.66,1785.08 C2608.33,1787.04 2607.66,1789.25 2607.66,1791.73 C2607.66,1794.21 2608.44,1796.39 2610.01,1798.28 L2618.4,1808.14 C2618.59,1808.34 2618.72,1808.66 2618.79,1809.12 C2618.85,1809.57 2618.68,1809.96 2618.29,1810.29 C2617.9,1810.62 2617.6,1810.78 2617.37,1810.78 C2617.15,1810.78 2616.56,1810.41 2615.61,1809.66 C2614.67,1808.91 2613.33,1808.17 2611.61,1807.46 C2609.88,1806.75 2608.17,1806.39 2606.48,1806.39 C2604.79,1806.39 2603.46,1806.85 2602.48,1807.76 C2601.51,1808.67 2601.02,1810.77 2601.02,1814.05 C2601.02,1817.34 2601.96,1820.12 2603.85,1822.41 C2604.05,1822.67 2604.08,1822.96 2603.95,1823.28 C2603.82,1823.6 2603.56,1823.76 2603.17,1823.76 C2602.78,1823.76 2601.78,1822.56 2600.18,1820.16 C2598.59,1817.75 2597.05,1814.9 2595.59,1811.61 C2594.13,1808.32 2593.4,1805.57 2593.4,1803.36 C2593.4,1800.56 2594.83,1799.16 2597.69,1799.16 C2600.56,1799.16 2604.43,1800.2 2609.32,1802.28 L2596.13,1786.45 "/>
<path class="Beam" fill-rule="evenodd" d="M680.246,1360.48 L814.5,1354.23 L814.5,1366.74 L680.246,1372.99 L680.246,1360.48 "/>
<path class="Beam" fill-rule="evenodd" d="M1364.27,1341.73 L1498.52,1335.48 L1498.52,1347.99 L1364.27,1354.24 L1364.27,1341.73 "/>
<path class="Beam" fill-rule="evenodd" d="M1354.12,891.709 L1495.75,879.209 L1495.75,891.757 L1354.12,904.257 L1354.12,891.709 "/>
<path class="Beam" fill-rule="evenodd" d="M1341.13,1841.71 L1481.03,1829.21 L1481.03,1841.76 L1341.13,1854.26 L1341.13,1841.71 "/>
<path class="Beam" fill-rule="evenodd" d="M2596.93,410.474 L2717.45,404.224 L2717.45,416.741 L2596.93,422.991 L2596.93,410.474 "/>
<path class="Beam" fill-rule="evenodd" d="M1511.93,391.724 L1632.45,385.474 L1632.45,397.991 L1511.93,404.241 L1511.93,391.724 "/>
<path class="Beam" fill-rule="evenodd" d="M896.583,410.474 L1017.1,404.224 L1017.1,416.741 L896.583,422.991 L896.583,410.474 "/>
<path class="Beam" fill-rule="evenodd" d="M2569.46,1360.48 L2703.71,1354.23 L2703.71,1366.74 L2569.46,1372.99 L2569.46,1360.48 "/>
</svg>
