<?xml version="1.0" encoding="UTF-8" standalone="no"?>
<svg width="2977.2px" height="4208.4px" viewBox="0 0 2977.2 4208.4"
 xmlns="http://www.w3.org/2000/svg" xmlns:xlink="http://www.w3.org/1999/xlink" version="1.2" baseProfile="tiny">
<title>A_Minor.mscx</title>
<desc>Generated by MuseScore Studio 4.3.1</desc>
<path class="" fill="#ffffff" fill-rule="evenodd" d="M0,0 L2977.2,0 L2977.2,4208.4 L0,4208.4 L0,0 "/>
<polyline class="StaffLines" fill="none" stroke="#000000" stroke-width="2.00" stroke-linejoin="bevel" points="141.732,316.732 2835.47,316.732"/>
<polyline class="StaffLines" fill="none" stroke="#000000" stroke-width="2.00" stroke-linejoin="bevel" points="141.732,341.732 2835.47,341.732"/>
<polyline class="StaffLines" fill="none" stroke="#000000" stroke-width="2.00" stroke-linejoin="bevel" points="141.732,366.733 2835.47,366.733"/>
<polyline class="StaffLines" fill="none" stroke="#000000" stroke-width="2.00" stroke-linejoin="bevel" points="141.732,391.733 2835.47,391.733"/>
<polyline class="StaffLines" fill="none" stroke="#000000" stroke-width="2.00" stroke-linejoin="bevel" points="141.732,416.733 2835.47,416.733"/>
<polyline class="BarLine" fill="none" stroke="#000000" stroke-width="4.00" stroke-linejoin="bevel" points="2802.72,315.732 2802.72,417.733"/>
<polyline class="BarLine" fill="none" stroke="#000000" stroke-width="12.50" stroke-linejoin="bevel" points="2829.22,315.732 2829.22,417.733"/>
<polyline class="BarLine" fill="none" stroke="#000000" stroke-width="4.00" stroke-linejoin="bevel" points="1951,315.732 1951,417.733"/>
<polyline class="BarLine" fill="none" stroke="#000000" stroke-width="4.00" stroke-linejoin="bevel" points="1667.1,315.732 1667.1,417.733"/>
<polyline class="BarLine" fill="none" stroke="#000000" stroke-width="4.00" stroke-linejoin="bevel" points="2518.81,315.732 2518.81,417.733"/>
<polyline class="BarLine" fill="none" stroke="#000000" stroke-width="4.00" stroke-linejoin="bevel" points="595.876,315.732 595.876,417.733"/>
<polyline class="BarLine" fill="none" stroke="#000000" stroke-width="4.00" stroke-linejoin="bevel" points="1447.59,315.732 1447.59,417.733"/>
<polyline class="BarLine" fill="none" stroke="#000000" stroke-width="4.00" stroke-linejoin="bevel" points="2234.91,315.732 2234.91,417.733"/>
<polyline class="BarLine" fill="none" stroke="#000000" stroke-width="4.00" stroke-linejoin="bevel" points="1163.69,315.732 1163.69,417.733"/>
<polyline class="BarLine" fill="none" stroke="#000000" stroke-width="4.00" stroke-linejoin="bevel" points="879.782,315.732 879.782,417.733"/>
<polyline class="LedgerLine" fill="none" stroke="#000000" stroke-width="4.00" stroke-linejoin="bevel" points="1684.6,291.732 1738.31,291.732"/>
<polyline class="LedgerLine" fill="none" stroke="#000000" stroke-width="4.00" stroke-linejoin="bevel" points="1308.19,291.732 1361.91,291.732"/>
<polyline class="Stem" fill="none" stroke="#000000" stroke-width="3.25" stroke-linejoin="bevel" points="1979.63,321.632 1979.63,404.233"/>
<polyline class="Stem" fill="none" stroke="#000000" stroke-width="3.25" stroke-linejoin="bevel" points="2547.44,371.633 2547.44,441.733"/>
<polyline class="Stem" fill="none" stroke="#000000" stroke-width="3.25" stroke-linejoin="bevel" points="2106.63,334.132 2106.63,416.733"/>
<polyline class="Stem" fill="none" stroke="#000000" stroke-width="3.25" stroke-linejoin="bevel" points="1822.72,309.132 1822.72,391.733"/>
<polyline class="Stem" fill="none" stroke="#000000" stroke-width="3.25" stroke-linejoin="bevel" points="1695.72,296.632 1695.72,379.233"/>
<polyline class="Stem" fill="none" stroke="#000000" stroke-width="3.25" stroke-linejoin="bevel" points="372.065,374.433 372.065,297.982"/>
<polyline class="Stem" fill="none" stroke="#000000" stroke-width="3.25" stroke-linejoin="bevel" points="2705.91,374.433 2705.91,297.982"/>
<polyline class="Stem" fill="none" stroke="#000000" stroke-width="3.25" stroke-linejoin="bevel" points="467.597,371.633 467.597,441.733"/>
<polyline class="Stem" fill="none" stroke="#000000" stroke-width="3.25" stroke-linejoin="bevel" points="624.501,359.132 624.501,435.483"/>
<polyline class="Stem" fill="none" stroke="#000000" stroke-width="3.25" stroke-linejoin="bevel" points="1319.31,296.632 1319.31,379.233"/>
<polyline class="Stem" fill="none" stroke="#000000" stroke-width="3.25" stroke-linejoin="bevel" points="1192.31,309.132 1192.31,391.733"/>
<polyline class="Stem" fill="none" stroke="#000000" stroke-width="3.25" stroke-linejoin="bevel" points="751.503,346.632 751.503,429.233"/>
<polyline class="Stem" fill="none" stroke="#000000" stroke-width="3.25" stroke-linejoin="bevel" points="2390.53,359.132 2390.53,435.483"/>
<polyline class="Stem" fill="none" stroke="#000000" stroke-width="3.25" stroke-linejoin="bevel" points="2263.53,346.632 2263.53,429.233"/>
<polyline class="Stem" fill="none" stroke="#000000" stroke-width="3.25" stroke-linejoin="bevel" points="1035.41,321.632 1035.41,404.233"/>
<polyline class="Stem" fill="none" stroke="#000000" stroke-width="3.25" stroke-linejoin="bevel" points="908.407,334.132 908.407,416.733"/>
<path class="Note" d="M2396.33,364.873 C2398.22,364.873 2402.17,362.92 2408.2,359.014 C2414.22,355.107 2417.77,352.488 2418.85,351.154 C2419.92,349.821 2420.46,348.634 2420.46,347.592 C2420.46,346.55 2420.03,345.623 2419.18,344.811 C2418.33,343.998 2417.36,343.592 2416.25,343.592 C2414.3,343.592 2410.32,345.561 2404.29,349.498 C2398.27,353.436 2394.73,356.055 2393.69,357.357 C2392.65,358.66 2392.13,359.831 2392.13,360.873 C2392.13,361.915 2392.54,362.842 2393.35,363.654 C2394.17,364.467 2395.16,364.873 2396.33,364.873 M2415.28,340.467 C2420.88,340.467 2423.67,342.873 2423.67,347.686 C2423.67,350.029 2422.99,352.748 2421.63,355.842 C2420.26,358.936 2418.44,361.295 2416.16,362.92 C2411.15,366.305 2404.87,367.998 2397.31,367.998 C2391.71,367.998 2388.91,365.592 2388.91,360.779 C2388.91,358.634 2389.58,355.964 2390.91,352.772 C2392.24,349.579 2394.08,347.17 2396.42,345.545 C2401.45,342.16 2407.73,340.467 2415.28,340.467"/>
<path class="Note" d="M2112.42,339.873 C2114.31,339.873 2118.27,337.92 2124.29,334.014 C2130.32,330.107 2133.87,327.488 2134.94,326.154 C2136.01,324.821 2136.55,323.634 2136.55,322.592 C2136.55,321.55 2136.13,320.623 2135.28,319.811 C2134.43,318.998 2133.45,318.592 2132.35,318.592 C2130.4,318.592 2126.41,320.561 2120.39,324.498 C2114.36,328.436 2110.83,331.055 2109.78,332.357 C2108.74,333.66 2108.22,334.831 2108.22,335.873 C2108.22,336.915 2108.63,337.842 2109.45,338.654 C2110.27,339.467 2111.26,339.873 2112.42,339.873 M2131.38,315.467 C2136.97,315.467 2139.77,317.873 2139.77,322.686 C2139.77,325.029 2139.09,327.748 2137.72,330.842 C2136.36,333.936 2134.53,336.295 2132.25,337.92 C2127.24,341.305 2120.96,342.998 2113.41,342.998 C2107.81,342.998 2105,340.592 2105,335.779 C2105,333.634 2105.67,330.964 2107,327.772 C2108.34,324.579 2110.17,322.17 2112.52,320.545 C2117.54,317.16 2123.83,315.467 2131.38,315.467"/>
<path class="Note" d="M2269.33,352.373 C2271.21,352.373 2275.17,350.42 2281.2,346.514 C2287.22,342.607 2290.77,339.988 2291.84,338.654 C2292.92,337.321 2293.45,336.134 2293.45,335.092 C2293.45,334.05 2293.03,333.123 2292.18,332.311 C2291.33,331.498 2290.35,331.092 2289.25,331.092 C2287.3,331.092 2283.32,333.061 2277.29,336.998 C2271.26,340.936 2267.73,343.555 2266.69,344.857 C2265.65,346.16 2265.13,347.331 2265.13,348.373 C2265.13,349.415 2265.53,350.342 2266.35,351.154 C2267.17,351.967 2268.16,352.373 2269.33,352.373 M2288.28,327.967 C2293.88,327.967 2296.67,330.373 2296.67,335.186 C2296.67,337.529 2295.99,340.248 2294.63,343.342 C2293.26,346.436 2291.44,348.795 2289.16,350.42 C2284.15,353.805 2277.87,355.498 2270.31,355.498 C2264.71,355.498 2261.91,353.092 2261.91,348.279 C2261.91,346.134 2262.57,343.464 2263.91,340.272 C2265.24,337.079 2267.08,334.67 2269.42,333.045 C2274.44,329.66 2280.73,327.967 2288.28,327.967"/>
<path class="Note" d="M2553.23,377.373 C2555.12,377.373 2559.08,375.42 2565.1,371.514 C2571.13,367.608 2574.68,364.988 2575.75,363.654 C2576.82,362.321 2577.36,361.134 2577.36,360.092 C2577.36,359.05 2576.94,358.123 2576.09,357.311 C2575.24,356.498 2574.26,356.092 2573.16,356.092 C2571.21,356.092 2567.22,358.061 2561.2,361.998 C2555.17,365.936 2551.64,368.555 2550.59,369.858 C2549.55,371.16 2549.03,372.331 2549.03,373.373 C2549.03,374.415 2549.44,375.342 2550.26,376.154 C2551.08,376.967 2552.07,377.373 2553.23,377.373 M2572.19,352.967 C2577.78,352.967 2580.58,355.373 2580.58,360.186 C2580.58,362.529 2579.9,365.248 2578.53,368.342 C2577.17,371.436 2575.34,373.795 2573.06,375.42 C2568.05,378.805 2561.77,380.498 2554.22,380.498 C2548.61,380.498 2545.81,378.092 2545.81,373.279 C2545.81,371.134 2546.48,368.464 2547.81,365.272 C2549.15,362.079 2550.98,359.67 2553.33,358.045 C2558.35,354.66 2564.64,352.967 2572.19,352.967"/>
<path class="Note" d="M1985.42,327.373 C1987.31,327.373 1991.26,325.42 1997.29,321.514 C2003.32,317.607 2006.87,314.988 2007.94,313.654 C2009.01,312.321 2009.55,311.134 2009.55,310.092 C2009.55,309.05 2009.12,308.123 2008.27,307.311 C2007.43,306.498 2006.45,306.092 2005.35,306.092 C2003.4,306.092 1999.41,308.061 1993.38,311.998 C1987.36,315.936 1983.82,318.555 1982.78,319.857 C1981.74,321.16 1981.22,322.331 1981.22,323.373 C1981.22,324.415 1981.63,325.342 1982.45,326.154 C1983.26,326.967 1984.26,327.373 1985.42,327.373 M2004.38,302.967 C2009.97,302.967 2012.77,305.373 2012.77,310.186 C2012.77,312.529 2012.08,315.248 2010.72,318.342 C2009.36,321.436 2007.53,323.795 2005.25,325.42 C2000.24,328.805 1993.96,330.498 1986.41,330.498 C1980.8,330.498 1978,328.092 1978,323.279 C1978,321.134 1978.67,318.464 1980,315.272 C1981.33,312.079 1983.17,309.67 1985.52,308.045 C1990.54,304.66 1996.82,302.967 2004.38,302.967"/>
<path class="Note" d="M1828.52,314.873 C1830.4,314.873 1834.36,312.92 1840.39,309.014 C1846.41,305.107 1849.96,302.488 1851.03,301.154 C1852.11,299.821 1852.64,298.634 1852.64,297.592 C1852.64,296.55 1852.22,295.623 1851.37,294.811 C1850.52,293.998 1849.55,293.592 1848.44,293.592 C1846.49,293.592 1842.51,295.561 1836.48,299.498 C1830.45,303.436 1826.92,306.055 1825.88,307.357 C1824.84,308.66 1824.32,309.831 1824.32,310.873 C1824.32,311.915 1824.73,312.842 1825.54,313.654 C1826.36,314.467 1827.35,314.873 1828.52,314.873 M1847.47,290.467 C1853.07,290.467 1855.86,292.873 1855.86,297.686 C1855.86,300.029 1855.18,302.748 1853.82,305.842 C1852.45,308.936 1850.63,311.295 1848.35,312.92 C1843.34,316.305 1837.06,317.998 1829.5,317.998 C1823.9,317.998 1821.1,315.592 1821.1,310.779 C1821.1,308.634 1821.76,305.964 1823.1,302.772 C1824.43,299.579 1826.27,297.17 1828.61,295.545 C1833.63,292.16 1839.92,290.467 1847.47,290.467"/>
<path class="Note" d="M1701.52,302.373 C1703.4,302.373 1707.36,300.42 1713.38,296.514 C1719.41,292.607 1722.96,289.988 1724.03,288.654 C1725.11,287.321 1725.64,286.133 1725.64,285.092 C1725.64,284.05 1725.22,283.123 1724.37,282.311 C1723.52,281.498 1722.54,281.092 1721.44,281.092 C1719.49,281.092 1715.5,283.061 1709.48,286.998 C1703.45,290.936 1699.92,293.555 1698.88,294.857 C1697.84,296.16 1697.31,297.331 1697.31,298.373 C1697.31,299.415 1697.72,300.342 1698.54,301.154 C1699.36,301.967 1700.35,302.373 1701.52,302.373 M1720.47,277.967 C1726.06,277.967 1728.86,280.373 1728.86,285.186 C1728.86,287.529 1728.18,290.248 1726.81,293.342 C1725.45,296.436 1723.63,298.795 1721.35,300.42 C1716.34,303.805 1710.05,305.498 1702.5,305.498 C1696.9,305.498 1694.1,303.092 1694.1,298.279 C1694.1,296.133 1694.76,293.464 1696.1,290.272 C1697.43,287.079 1699.27,284.67 1701.61,283.045 C1706.63,279.66 1712.92,277.967 1720.47,277.967"/>
<path class="Note" d="M1325.11,302.373 C1327,302.373 1330.95,300.42 1336.98,296.514 C1343,292.607 1346.55,289.988 1347.63,288.654 C1348.7,287.321 1349.24,286.133 1349.24,285.092 C1349.24,284.05 1348.81,283.123 1347.96,282.311 C1347.11,281.498 1346.14,281.092 1345.03,281.092 C1343.09,281.092 1339.1,283.061 1333.07,286.998 C1327.05,290.936 1323.51,293.555 1322.47,294.857 C1321.43,296.16 1320.91,297.331 1320.91,298.373 C1320.91,299.415 1321.32,300.342 1322.13,301.154 C1322.95,301.967 1323.94,302.373 1325.11,302.373 M1344.06,277.967 C1349.66,277.967 1352.45,280.373 1352.45,285.186 C1352.45,287.529 1351.77,290.248 1350.41,293.342 C1349.04,296.436 1347.22,298.795 1344.94,300.42 C1339.93,303.805 1333.65,305.498 1326.1,305.498 C1320.49,305.498 1317.69,303.092 1317.69,298.279 C1317.69,296.133 1318.36,293.464 1319.69,290.272 C1321.02,287.079 1322.86,284.67 1325.2,283.045 C1330.23,279.66 1336.51,277.967 1344.06,277.967"/>
<path class="Note" d="M1198.11,314.873 C1199.99,314.873 1203.95,312.92 1209.98,309.014 C1216,305.107 1219.55,302.488 1220.63,301.154 C1221.7,299.821 1222.23,298.634 1222.23,297.592 C1222.23,296.55 1221.81,295.623 1220.96,294.811 C1220.11,293.998 1219.14,293.592 1218.03,293.592 C1216.08,293.592 1212.1,295.561 1206.07,299.498 C1200.04,303.436 1196.51,306.055 1195.47,307.357 C1194.43,308.66 1193.91,309.831 1193.91,310.873 C1193.91,311.915 1194.32,312.842 1195.13,313.654 C1195.95,314.467 1196.94,314.873 1198.11,314.873 M1217.06,290.467 C1222.66,290.467 1225.45,292.873 1225.45,297.686 C1225.45,300.029 1224.77,302.748 1223.41,305.842 C1222.04,308.936 1220.22,311.295 1217.94,312.92 C1212.93,316.305 1206.65,317.998 1199.09,317.998 C1193.49,317.998 1190.69,315.592 1190.69,310.779 C1190.69,308.634 1191.35,305.964 1192.69,302.772 C1194.02,299.579 1195.86,297.17 1198.2,295.545 C1203.22,292.16 1209.51,290.467 1217.06,290.467"/>
<path class="Note" d="M1041.21,327.373 C1043.09,327.373 1047.05,325.42 1053.07,321.514 C1059.1,317.607 1062.65,314.988 1063.72,313.654 C1064.79,312.321 1065.33,311.134 1065.33,310.092 C1065.33,309.05 1064.91,308.123 1064.06,307.311 C1063.21,306.498 1062.23,306.092 1061.13,306.092 C1059.18,306.092 1055.19,308.061 1049.17,311.998 C1043.14,315.936 1039.61,318.555 1038.56,319.857 C1037.52,321.16 1037,322.331 1037,323.373 C1037,324.415 1037.41,325.342 1038.23,326.154 C1039.05,326.967 1040.04,327.373 1041.21,327.373 M1060.16,302.967 C1065.75,302.967 1068.55,305.373 1068.55,310.186 C1068.55,312.529 1067.87,315.248 1066.5,318.342 C1065.14,321.436 1063.31,323.795 1061.03,325.42 C1056.02,328.805 1049.74,330.498 1042.19,330.498 C1036.59,330.498 1033.78,328.092 1033.78,323.279 C1033.78,321.134 1034.45,318.464 1035.78,315.272 C1037.12,312.079 1038.96,309.67 1041.3,308.045 C1046.32,304.66 1052.61,302.967 1060.16,302.967"/>
<path class="Note" d="M914.204,339.873 C916.089,339.873 920.045,337.92 926.071,334.014 C932.097,330.107 935.647,327.488 936.72,326.154 C937.792,324.821 938.329,323.634 938.329,322.592 C938.329,321.55 937.904,320.623 937.055,319.811 C936.207,318.998 935.23,318.592 934.126,318.592 C932.178,318.592 928.191,320.561 922.165,324.498 C916.139,328.436 912.605,331.055 911.563,332.357 C910.522,333.66 910.001,334.831 910.001,335.873 C910.001,336.915 910.41,337.842 911.227,338.654 C912.045,339.467 913.037,339.873 914.204,339.873 M933.157,315.467 C938.751,315.467 941.548,317.873 941.548,322.686 C941.548,325.029 940.865,327.748 939.501,330.842 C938.136,333.936 936.313,336.295 934.032,337.92 C929.022,341.305 922.74,342.998 915.188,342.998 C909.584,342.998 906.782,340.592 906.782,335.779 C906.782,333.634 907.449,330.964 908.782,327.772 C910.115,324.579 911.954,322.17 914.298,320.545 C919.319,317.16 925.605,315.467 933.157,315.467"/>
<path class="Note" d="M757.3,352.373 C759.185,352.373 763.141,350.42 769.167,346.514 C775.193,342.607 778.743,339.988 779.816,338.654 C780.888,337.321 781.425,336.134 781.425,335.092 C781.425,334.05 781,333.123 780.151,332.311 C779.303,331.498 778.326,331.092 777.222,331.092 C775.274,331.092 771.287,333.061 765.261,336.998 C759.235,340.936 755.701,343.555 754.659,344.857 C753.618,346.16 753.097,347.331 753.097,348.373 C753.097,349.415 753.506,350.342 754.323,351.154 C755.141,351.967 756.133,352.373 757.3,352.373 M776.253,327.967 C781.847,327.967 784.644,330.373 784.644,335.186 C784.644,337.529 783.961,340.248 782.597,343.342 C781.232,346.436 779.409,348.795 777.128,350.42 C772.118,353.805 765.836,355.498 758.284,355.498 C752.68,355.498 749.878,353.092 749.878,348.279 C749.878,346.134 750.545,343.464 751.878,340.272 C753.211,337.079 755.05,334.67 757.394,333.045 C762.415,329.66 768.701,327.967 776.253,327.967"/>
<path class="Note" d="M630.298,364.873 C632.184,364.873 636.139,362.92 642.165,359.014 C648.192,355.107 651.741,352.488 652.814,351.154 C653.887,349.821 654.423,348.634 654.423,347.592 C654.423,346.55 653.999,345.623 653.15,344.811 C652.301,343.998 651.324,343.592 650.22,343.592 C648.272,343.592 644.285,345.561 638.259,349.498 C632.233,353.436 628.699,356.055 627.658,357.357 C626.616,358.66 626.095,359.831 626.095,360.873 C626.095,361.915 626.504,362.842 627.322,363.654 C628.139,364.467 629.132,364.873 630.298,364.873 M649.251,340.467 C654.845,340.467 657.642,342.873 657.642,347.686 C657.642,350.029 656.96,352.748 655.595,355.842 C654.231,358.936 652.408,361.295 650.126,362.92 C645.116,366.305 638.835,367.998 631.283,367.998 C625.678,367.998 622.876,365.592 622.876,360.779 C622.876,358.634 623.543,355.964 624.876,352.772 C626.21,349.579 628.048,347.17 630.392,345.545 C635.413,342.16 641.699,340.467 649.251,340.467"/>
<path class="Note" d="M473.394,377.373 C475.28,377.373 479.235,375.42 485.261,371.514 C491.288,367.608 494.837,364.988 495.91,363.654 C496.983,362.321 497.519,361.134 497.519,360.092 C497.519,359.05 497.095,358.123 496.246,357.311 C495.397,356.498 494.42,356.092 493.316,356.092 C491.368,356.092 487.381,358.061 481.355,361.998 C475.329,365.936 471.795,368.555 470.754,369.858 C469.712,371.16 469.191,372.331 469.191,373.373 C469.191,374.415 469.6,375.342 470.418,376.154 C471.235,376.967 472.228,377.373 473.394,377.373 M492.347,352.967 C497.941,352.967 500.738,355.373 500.738,360.186 C500.738,362.529 500.056,365.248 498.691,368.342 C497.327,371.436 495.504,373.795 493.222,375.42 C488.212,378.805 481.931,380.498 474.379,380.498 C468.774,380.498 465.972,378.092 465.972,373.279 C465.972,371.134 466.639,368.464 467.972,365.272 C469.306,362.079 471.144,359.67 473.488,358.045 C478.509,354.66 484.795,352.967 492.347,352.967"/>
<path class="Note" d="M346.393,389.873 C348.278,389.873 352.234,387.92 358.26,384.014 C364.286,380.108 367.835,377.488 368.908,376.154 C369.981,374.821 370.518,373.634 370.518,372.592 C370.518,371.55 370.093,370.623 369.244,369.811 C368.395,368.998 367.419,368.592 366.315,368.592 C364.367,368.592 360.38,370.561 354.354,374.498 C348.328,378.436 344.794,381.055 343.752,382.358 C342.71,383.66 342.19,384.831 342.19,385.873 C342.19,386.915 342.598,387.842 343.416,388.654 C344.234,389.467 345.226,389.873 346.393,389.873 M365.346,365.467 C370.94,365.467 373.736,367.873 373.736,372.686 C373.736,375.029 373.054,377.748 371.69,380.842 C370.325,383.936 368.502,386.295 366.221,387.92 C361.21,391.305 354.929,392.998 347.377,392.998 C341.773,392.998 338.971,390.592 338.971,385.779 C338.971,383.634 339.637,380.964 340.971,377.772 C342.304,374.579 344.143,372.17 346.486,370.545 C351.507,367.16 357.794,365.467 365.346,365.467"/>
<path class="Note" d="M2680.24,389.873 C2682.12,389.873 2686.08,387.92 2692.1,384.014 C2698.13,380.108 2701.68,377.488 2702.75,376.154 C2703.82,374.821 2704.36,373.634 2704.36,372.592 C2704.36,371.55 2703.94,370.623 2703.09,369.811 C2702.24,368.998 2701.26,368.592 2700.16,368.592 C2698.21,368.592 2694.22,370.561 2688.2,374.498 C2682.17,378.436 2678.64,381.055 2677.6,382.358 C2676.55,383.66 2676.03,384.831 2676.03,385.873 C2676.03,386.915 2676.44,387.842 2677.26,388.654 C2678.08,389.467 2679.07,389.873 2680.24,389.873 M2699.19,365.467 C2704.78,365.467 2707.58,367.873 2707.58,372.686 C2707.58,375.029 2706.9,377.748 2705.53,380.842 C2704.17,383.936 2702.35,386.295 2700.06,387.92 C2695.05,391.305 2688.77,392.998 2681.22,392.998 C2675.62,392.998 2672.81,390.592 2672.81,385.779 C2672.81,383.634 2673.48,380.964 2674.81,377.772 C2676.15,374.579 2677.99,372.17 2680.33,370.545 C2685.35,367.16 2691.64,365.467 2699.19,365.467"/>
<path class="Clef" d="M203.623,423.858 L203.623,421.717 C203.56,420.613 203.399,418.889 203.139,416.545 C199.889,417.066 196.993,417.326 194.451,417.326 C185.337,417.326 177.605,413.727 171.256,406.529 C164.907,399.331 161.732,390.753 161.732,380.795 C161.732,378.128 162.253,374.923 163.295,371.178 C164.337,367.433 165.297,364.925 166.178,363.654 C167.058,362.384 168.378,360.154 170.139,356.967 C170.659,355.988 172.352,353.837 175.217,350.514 C175.738,349.805 176.193,349.222 176.584,348.764 C176.975,348.305 177.607,347.49 178.482,346.318 C179.357,345.147 180.3,344.055 181.31,343.045 C182.321,342.035 183.217,341.058 183.998,340.115 C184.779,339.173 185.498,338.378 186.154,337.733 C183.81,329.983 182.378,324.024 181.857,319.858 C181.337,315.691 181.076,310.579 181.076,304.522 C181.076,298.464 182.378,292.962 184.982,288.014 C187.514,282.878 191.06,278.68 195.623,275.42 C195.883,275.222 196.225,275.123 196.646,275.123 C197.068,275.123 197.378,275.222 197.576,275.42 C201.087,279.649 204.128,285.149 206.701,291.92 C209.274,298.691 210.56,305.024 210.56,310.92 C210.56,316.816 209.066,322.498 206.076,327.967 C202.691,333.759 198.326,339.748 192.982,345.936 C194.347,350.227 196.17,356.962 198.451,366.139 L199.045,366.139 C199.305,366.076 199.529,366.045 199.717,366.045 C207.081,366.045 213.089,368.634 217.74,373.811 C222.391,378.988 224.717,384.962 224.717,391.733 C224.717,400.128 221.238,406.899 214.279,412.045 C212.258,413.545 209.878,414.717 207.139,415.561 C207.472,419.79 207.639,422.605 207.639,424.006 C207.639,425.407 207.571,427.899 207.435,431.483 C207.373,437.597 205.29,442.837 201.185,447.201 C197.081,451.566 192.394,453.748 187.123,453.748 C181.852,453.748 177.36,451.876 173.646,448.131 C169.933,444.386 168.076,439.847 168.076,434.514 C168.076,431.712 169.154,429.331 171.31,427.373 C173.519,425.425 176.006,424.451 178.771,424.451 C181.537,424.451 183.8,425.462 185.56,427.483 C187.383,429.368 188.295,431.644 188.295,434.311 C188.295,436.977 187.383,439.222 185.56,441.045 C183.738,442.868 181.555,443.779 179.014,443.779 C177.972,443.779 176.967,443.587 175.998,443.201 C178.863,447.43 182.54,449.545 187.029,449.545 C191.519,449.545 195.36,447.691 198.553,443.983 C201.745,440.274 203.342,435.91 203.342,430.889 L203.623,423.858 M206.748,411.561 C210.133,410.321 212.821,408.123 214.81,404.967 C216.8,401.811 217.795,398.67 217.795,395.545 C217.795,390.92 216.199,386.785 213.006,383.139 C209.813,379.493 205.774,377.441 200.889,376.983 C203.691,390.722 205.644,402.248 206.748,411.561 M168.967,388.998 C168.967,395.446 171.537,401.079 176.678,405.897 C181.818,410.714 187.842,413.123 194.748,413.123 C197.477,413.123 200.144,412.925 202.748,412.529 C201.706,402.634 199.654,390.785 196.592,376.983 C192.758,377.378 189.782,378.699 187.662,380.943 C185.542,383.188 184.482,385.743 184.482,388.608 C184.482,393.555 187.123,397.561 192.404,400.623 C192.852,400.884 193.076,401.324 193.076,401.943 C193.076,402.563 192.865,403.1 192.443,403.553 C192.021,404.006 191.649,404.233 191.326,404.233 C191.003,404.233 190.581,404.17 190.06,404.045 C182.435,399.878 178.623,393.592 178.623,385.186 C178.623,381.217 180.024,377.41 182.826,373.764 C185.753,370.118 189.56,367.774 194.248,366.733 C192.425,359.441 190.93,353.743 189.764,349.639 C180.847,359.67 175.31,367.092 173.154,371.904 C170.363,378.154 168.967,383.852 168.967,388.998 M201.576,289.686 C196.691,292.092 192.834,295.574 190.006,300.131 C187.178,304.688 185.764,309.472 185.764,314.483 C185.764,319.493 186.935,325.972 189.279,333.92 C193.967,328.253 197.514,322.946 199.92,317.998 C202.326,313.05 203.529,308.152 203.529,303.303 C203.529,298.454 202.878,293.915 201.576,289.686"/>
<path class="TimeSig" d="M273.021,317.912 C274.516,317.912 275.949,317.686 277.318,317.232 C278.688,316.779 279.665,316.553 280.248,316.553 C280.831,316.553 281.222,316.907 281.42,317.615 C281.42,317.688 281.352,317.886 281.217,318.209 L252.811,351.225 L269.498,351.225 L269.498,338.131 C269.498,336.506 270.446,335.334 272.342,334.615 C274.29,333.897 276.503,331.001 278.982,325.928 C279.17,325.532 279.462,325.334 279.857,325.334 C280.639,325.334 281.092,325.792 281.217,326.709 L281.217,351.225 L288.357,351.225 C289.264,351.225 289.751,351.712 289.818,352.686 C289.886,353.66 289.399,354.147 288.357,354.147 L281.217,354.147 L281.217,354.928 C281.217,357.532 281.868,359.746 283.17,361.568 C284.67,363.391 286.43,364.303 288.451,364.303 C289.232,364.303 289.623,364.693 289.623,365.475 C289.623,366.256 289.087,366.647 288.014,366.647 C286.941,366.647 284.938,366.436 282.006,366.014 C279.074,365.592 276.811,365.381 275.217,365.381 C273.623,365.381 271.41,365.592 268.576,366.014 C265.743,366.436 263.613,366.647 262.186,366.647 C261.404,366.647 261.014,366.256 261.014,365.475 C261.014,364.693 261.404,364.303 262.186,364.303 C264.196,364.303 265.951,363.391 267.451,361.568 C268.816,359.683 269.498,357.469 269.498,354.928 L269.498,354.147 L252.811,354.147 C251.956,354.147 251.219,353.92 250.6,353.467 C249.98,353.014 249.67,352.592 249.67,352.201 C249.67,351.811 250.485,350.639 252.115,348.686 C253.745,346.732 256.074,342.972 259.1,337.404 C262.126,331.837 263.639,325.438 263.639,318.209 C263.639,317.167 264.097,316.647 265.014,316.647 C265.212,316.647 265.521,316.712 265.943,316.842 C266.365,316.972 267.277,317.183 268.678,317.475 C270.079,317.766 271.527,317.912 273.021,317.912"/>
<path class="TimeSig" d="M273.021,368.084 C274.516,368.084 275.949,367.858 277.318,367.404 C278.688,366.951 279.665,366.725 280.248,366.725 C280.831,366.725 281.222,367.079 281.42,367.787 C281.42,367.86 281.352,368.058 281.217,368.381 L252.811,401.397 L269.498,401.397 L269.498,388.303 C269.498,386.678 270.446,385.506 272.342,384.787 C274.29,384.068 276.503,381.173 278.982,376.1 C279.17,375.704 279.462,375.506 279.857,375.506 C280.639,375.506 281.092,375.964 281.217,376.881 L281.217,401.397 L288.357,401.397 C289.264,401.397 289.751,401.884 289.818,402.858 C289.886,403.831 289.399,404.318 288.357,404.318 L281.217,404.318 L281.217,405.1 C281.217,407.704 281.868,409.917 283.17,411.74 C284.67,413.563 286.43,414.475 288.451,414.475 C289.232,414.475 289.623,414.865 289.623,415.647 C289.623,416.428 289.087,416.818 288.014,416.818 C286.941,416.818 284.938,416.608 282.006,416.186 C279.074,415.764 276.811,415.553 275.217,415.553 C273.623,415.553 271.41,415.764 268.576,416.186 C265.743,416.608 263.613,416.818 262.186,416.818 C261.404,416.818 261.014,416.428 261.014,415.647 C261.014,414.865 261.404,414.475 262.186,414.475 C264.196,414.475 265.951,413.563 267.451,411.74 C268.816,409.855 269.498,407.641 269.498,405.1 L269.498,404.318 L252.811,404.318 C251.956,404.318 251.219,404.092 250.6,403.639 C249.98,403.186 249.67,402.764 249.67,402.373 C249.67,401.983 250.485,400.811 252.115,398.858 C253.745,396.904 256.074,393.144 259.1,387.576 C262.126,382.009 263.639,375.61 263.639,368.381 C263.639,367.339 264.097,366.818 265.014,366.818 C265.212,366.818 265.521,366.884 265.943,367.014 C266.365,367.144 267.277,367.355 268.678,367.647 C270.079,367.938 271.527,368.084 273.021,368.084"/>
<path class="Rest" d="M1575.13,357.357 L1539.58,357.357 C1538.92,357.357 1538.59,357.035 1538.59,356.389 L1538.59,342.717 C1538.59,342.061 1538.92,341.732 1539.58,341.732 L1575.13,341.732 C1575.77,341.732 1576.09,342.061 1576.09,342.717 L1576.09,356.389 C1576.09,357.035 1575.77,357.357 1575.13,357.357"/>
</svg>
