<?xml version="1.0" encoding="UTF-8" standalone="no"?>
<svg width="2977.2px" height="4208.4px" viewBox="0 0 2977.2 4208.4"
 xmlns="http://www.w3.org/2000/svg" xmlns:xlink="http://www.w3.org/1999/xlink" version="1.2" baseProfile="tiny">
<title>B_Maj_Pentatonic.mscx</title>
<desc>Generated by MuseScore Studio 4.3.1</desc>
<path class="" fill="#ffffff" fill-rule="evenodd" d="M0,0 L2977.2,0 L2977.2,4208.4 L0,4208.4 L0,0 "/>
<polyline class="StaffLines" fill="none" stroke="#000000" stroke-width="2.00" stroke-linejoin="bevel" points="141.732,566.733 2835.47,566.733"/>
<polyline class="StaffLines" fill="none" stroke="#000000" stroke-width="2.00" stroke-linejoin="bevel" points="141.732,591.733 2835.47,591.733"/>
<polyline class="StaffLines" fill="none" stroke="#000000" stroke-width="2.00" stroke-linejoin="bevel" points="141.732,616.733 2835.47,616.733"/>
<polyline class="StaffLines" fill="none" stroke="#000000" stroke-width="2.00" stroke-linejoin="bevel" points="141.732,641.733 2835.47,641.733"/>
<polyline class="StaffLines" fill="none" stroke="#000000" stroke-width="2.00" stroke-linejoin="bevel" points="141.732,666.733 2835.47,666.733"/>
<polyline class="BarLine" fill="none" stroke="#000000" stroke-width="4.00" stroke-linejoin="bevel" points="1557.34,565.733 1557.34,667.733"/>
<polyline class="BarLine" fill="none" stroke="#000000" stroke-width="4.00" stroke-linejoin="bevel" points="2802.72,565.733 2802.72,667.733"/>
<polyline class="BarLine" fill="none" stroke="#000000" stroke-width="12.50" stroke-linejoin="bevel" points="2829.22,565.733 2829.22,667.733"/>
<polyline class="BarLine" fill="none" stroke="#000000" stroke-width="4.00" stroke-linejoin="bevel" points="2561.2,565.733 2561.2,667.733"/>
<polyline class="BarLine" fill="none" stroke="#000000" stroke-width="4.00" stroke-linejoin="bevel" points="2052.97,565.733 2052.97,667.733"/>
<polyline class="BarLine" fill="none" stroke="#000000" stroke-width="4.00" stroke-linejoin="bevel" points="1315.83,565.733 1315.83,667.733"/>
<polyline class="BarLine" fill="none" stroke="#000000" stroke-width="4.00" stroke-linejoin="bevel" points="2307.09,565.733 2307.09,667.733"/>
<polyline class="BarLine" fill="none" stroke="#000000" stroke-width="4.00" stroke-linejoin="bevel" points="553.485,565.733 553.485,667.733"/>
<polyline class="BarLine" fill="none" stroke="#000000" stroke-width="4.00" stroke-linejoin="bevel" points="1061.72,565.733 1061.72,667.733"/>
<polyline class="BarLine" fill="none" stroke="#000000" stroke-width="4.00" stroke-linejoin="bevel" points="1798.86,565.733 1798.86,667.733"/>
<polyline class="BarLine" fill="none" stroke="#000000" stroke-width="4.00" stroke-linejoin="bevel" points="807.6,565.733 807.6,667.733"/>
<path class="Accidental" d="M691.47,544.764 C692.907,544.368 693.626,544.722 693.626,545.826 L693.626,553.639 C693.626,554.42 693.006,555.04 691.767,555.498 L688.548,556.764 L688.548,570.936 L691.47,569.764 C692.907,569.368 693.626,569.727 693.626,570.842 L693.626,578.655 C693.626,579.436 693.006,580.05 691.767,580.498 L688.548,581.78 L688.548,597.983 C688.548,599.222 688.059,599.842 687.079,599.842 C686.1,599.842 685.611,599.222 685.611,597.983 L685.611,582.951 L676.329,586.655 L676.329,602.764 C676.329,604.003 675.842,604.623 674.868,604.623 C673.894,604.623 673.407,604.003 673.407,602.764 L673.407,587.826 L670.861,588.905 C669.496,589.488 668.814,589.097 668.814,587.733 L668.814,580.014 C668.814,579.368 669.402,578.785 670.579,578.264 L673.407,577.092 L673.407,562.826 L670.861,563.905 C669.496,564.488 668.814,564.097 668.814,562.733 L668.814,555.014 C668.814,554.358 669.402,553.769 670.579,553.248 L673.407,552.076 L673.407,535.967 C673.407,534.727 673.894,534.108 674.868,534.108 C675.842,534.108 676.329,534.727 676.329,535.967 L676.329,550.905 L685.611,547.108 L685.611,531.186 C685.611,529.946 686.1,529.326 687.079,529.326 C688.059,529.326 688.548,529.946 688.548,531.186 L688.548,545.936 L691.47,544.764 M676.329,561.655 L676.329,575.92 L685.611,572.108 L685.611,557.936 L676.329,561.655 "/>
<path class="Accidental" d="M2190.96,544.764 C2192.4,544.368 2193.12,544.722 2193.12,545.826 L2193.12,553.639 C2193.12,554.42 2192.5,555.04 2191.26,555.498 L2188.04,556.764 L2188.04,570.936 L2190.96,569.764 C2192.4,569.368 2193.12,569.727 2193.12,570.842 L2193.12,578.655 C2193.12,579.436 2192.5,580.05 2191.26,580.498 L2188.04,581.78 L2188.04,597.983 C2188.04,599.222 2187.55,599.842 2186.57,599.842 C2185.59,599.842 2185.1,599.222 2185.1,597.983 L2185.1,582.951 L2175.82,586.655 L2175.82,602.764 C2175.82,604.003 2175.33,604.623 2174.36,604.623 C2173.38,604.623 2172.9,604.003 2172.9,602.764 L2172.9,587.826 L2170.35,588.905 C2168.99,589.488 2168.3,589.097 2168.3,587.733 L2168.3,580.014 C2168.3,579.368 2168.89,578.785 2170.07,578.264 L2172.9,577.092 L2172.9,562.826 L2170.35,563.905 C2168.99,564.488 2168.3,564.097 2168.3,562.733 L2168.3,555.014 C2168.3,554.358 2168.89,553.769 2170.07,553.248 L2172.9,552.076 L2172.9,535.967 C2172.9,534.727 2173.38,534.108 2174.36,534.108 C2175.33,534.108 2175.82,534.727 2175.82,535.967 L2175.82,550.905 L2185.1,547.108 L2185.1,531.186 C2185.1,529.946 2185.59,529.326 2186.57,529.326 C2187.55,529.326 2188.04,529.946 2188.04,531.186 L2188.04,545.936 L2190.96,544.764 M2175.82,561.655 L2175.82,575.92 L2185.1,572.108 L2185.1,557.936 L2175.82,561.655 "/>
<path class="Accidental" d="M2445.07,582.264 C2446.51,581.868 2447.23,582.222 2447.23,583.326 L2447.23,591.139 C2447.23,591.92 2446.61,592.54 2445.37,592.998 L2442.15,594.264 L2442.15,608.436 L2445.07,607.264 C2446.51,606.868 2447.23,607.227 2447.23,608.342 L2447.23,616.155 C2447.23,616.936 2446.61,617.55 2445.37,617.998 L2442.15,619.28 L2442.15,635.483 C2442.15,636.722 2441.66,637.342 2440.68,637.342 C2439.7,637.342 2439.22,636.722 2439.22,635.483 L2439.22,620.451 L2429.93,624.155 L2429.93,640.264 C2429.93,641.503 2429.45,642.123 2428.47,642.123 C2427.5,642.123 2427.01,641.503 2427.01,640.264 L2427.01,625.326 L2424.47,626.405 C2423.1,626.988 2422.42,626.597 2422.42,625.233 L2422.42,617.514 C2422.42,616.868 2423.01,616.285 2424.18,615.764 L2427.01,614.592 L2427.01,600.326 L2424.47,601.405 C2423.1,601.988 2422.42,601.597 2422.42,600.233 L2422.42,592.514 C2422.42,591.858 2423.01,591.269 2424.18,590.748 L2427.01,589.576 L2427.01,573.467 C2427.01,572.227 2427.5,571.608 2428.47,571.608 C2429.45,571.608 2429.93,572.227 2429.93,573.467 L2429.93,588.405 L2439.22,584.608 L2439.22,568.686 C2439.22,567.446 2439.7,566.826 2440.68,566.826 C2441.66,566.826 2442.15,567.446 2442.15,568.686 L2442.15,583.436 L2445.07,582.264 M2429.93,599.155 L2429.93,613.42 L2439.22,609.608 L2439.22,595.436 L2429.93,599.155 "/>
<path class="Accidental" d="M1936.84,544.764 C1938.28,544.368 1939,544.722 1939,545.826 L1939,553.639 C1939,554.42 1938.38,555.04 1937.14,555.498 L1933.92,556.764 L1933.92,570.936 L1936.84,569.764 C1938.28,569.368 1939,569.727 1939,570.842 L1939,578.655 C1939,579.436 1938.38,580.05 1937.14,580.498 L1933.92,581.78 L1933.92,597.983 C1933.92,599.222 1933.43,599.842 1932.45,599.842 C1931.47,599.842 1930.98,599.222 1930.98,597.983 L1930.98,582.951 L1921.7,586.655 L1921.7,602.764 C1921.7,604.003 1921.22,604.623 1920.24,604.623 C1919.27,604.623 1918.78,604.003 1918.78,602.764 L1918.78,587.826 L1916.23,588.905 C1914.87,589.488 1914.19,589.097 1914.19,587.733 L1914.19,580.014 C1914.19,579.368 1914.78,578.785 1915.95,578.264 L1918.78,577.092 L1918.78,562.826 L1916.23,563.905 C1914.87,564.488 1914.19,564.097 1914.19,562.733 L1914.19,555.014 C1914.19,554.358 1914.78,553.769 1915.95,553.248 L1918.78,552.076 L1918.78,535.967 C1918.78,534.727 1919.27,534.108 1920.24,534.108 C1921.22,534.108 1921.7,534.727 1921.7,535.967 L1921.7,550.905 L1930.98,547.108 L1930.98,531.186 C1930.98,529.946 1931.47,529.326 1932.45,529.326 C1933.43,529.326 1933.92,529.946 1933.92,531.186 L1933.92,545.936 L1936.84,544.764 M1921.7,561.655 L1921.7,575.92 L1930.98,572.108 L1930.98,557.936 L1921.7,561.655 "/>
<path class="Accidental" d="M1199.7,582.264 C1201.14,581.868 1201.86,582.222 1201.86,583.326 L1201.86,591.139 C1201.86,591.92 1201.24,592.54 1200,592.998 L1196.78,594.264 L1196.78,608.436 L1199.7,607.264 C1201.14,606.868 1201.86,607.227 1201.86,608.342 L1201.86,616.155 C1201.86,616.936 1201.24,617.55 1200,617.998 L1196.78,619.28 L1196.78,635.483 C1196.78,636.722 1196.29,637.342 1195.31,637.342 C1194.33,637.342 1193.84,636.722 1193.84,635.483 L1193.84,620.451 L1184.56,624.155 L1184.56,640.264 C1184.56,641.503 1184.07,642.123 1183.1,642.123 C1182.13,642.123 1181.64,641.503 1181.64,640.264 L1181.64,625.326 L1179.09,626.405 C1177.73,626.988 1177.04,626.597 1177.04,625.233 L1177.04,617.514 C1177.04,616.868 1177.63,616.285 1178.81,615.764 L1181.64,614.592 L1181.64,600.326 L1179.09,601.405 C1177.73,601.988 1177.04,601.597 1177.04,600.233 L1177.04,592.514 C1177.04,591.858 1177.63,591.269 1178.81,590.748 L1181.64,589.576 L1181.64,573.467 C1181.64,572.227 1182.13,571.608 1183.1,571.608 C1184.07,571.608 1184.56,572.227 1184.56,573.467 L1184.56,588.405 L1193.84,584.608 L1193.84,568.686 C1193.84,567.446 1194.33,566.826 1195.31,566.826 C1196.29,566.826 1196.78,567.446 1196.78,568.686 L1196.78,583.436 L1199.7,582.264 M1184.56,599.155 L1184.56,613.42 L1193.84,609.608 L1193.84,595.436 L1184.56,599.155 "/>
<path class="Accidental" d="M1093.9,569.764 C1095.33,569.368 1096.05,569.722 1096.05,570.826 L1096.05,578.639 C1096.05,579.42 1095.43,580.04 1094.19,580.498 L1090.97,581.764 L1090.97,595.936 L1093.9,594.764 C1095.33,594.368 1096.05,594.727 1096.05,595.842 L1096.05,603.655 C1096.05,604.436 1095.43,605.05 1094.19,605.498 L1090.97,606.78 L1090.97,622.983 C1090.97,624.222 1090.48,624.842 1089.5,624.842 C1088.53,624.842 1088.04,624.222 1088.04,622.983 L1088.04,607.951 L1078.75,611.655 L1078.75,627.764 C1078.75,629.003 1078.27,629.623 1077.29,629.623 C1076.32,629.623 1075.83,629.003 1075.83,627.764 L1075.83,612.826 L1073.29,613.905 C1071.92,614.488 1071.24,614.097 1071.24,612.733 L1071.24,605.014 C1071.24,604.368 1071.83,603.785 1073,603.264 L1075.83,602.092 L1075.83,587.826 L1073.29,588.905 C1071.92,589.488 1071.24,589.097 1071.24,587.733 L1071.24,580.014 C1071.24,579.358 1071.83,578.769 1073,578.248 L1075.83,577.076 L1075.83,560.967 C1075.83,559.727 1076.32,559.108 1077.29,559.108 C1078.27,559.108 1078.75,559.727 1078.75,560.967 L1078.75,575.905 L1088.04,572.108 L1088.04,556.186 C1088.04,554.946 1088.53,554.326 1089.5,554.326 C1090.48,554.326 1090.97,554.946 1090.97,556.186 L1090.97,570.936 L1093.9,569.764 M1078.75,586.655 L1078.75,600.92 L1088.04,597.108 L1088.04,582.936 L1078.75,586.655 "/>
<path class="Accidental" d="M437.355,582.264 C438.792,581.868 439.511,582.222 439.511,583.326 L439.511,591.139 C439.511,591.92 438.891,592.54 437.651,592.998 L434.433,594.264 L434.433,608.436 L437.355,607.264 C438.792,606.868 439.511,607.227 439.511,608.342 L439.511,616.155 C439.511,616.936 438.891,617.55 437.651,617.998 L434.433,619.28 L434.433,635.483 C434.433,636.722 433.943,637.342 432.964,637.342 C431.985,637.342 431.495,636.722 431.495,635.483 L431.495,620.451 L422.214,624.155 L422.214,640.264 C422.214,641.503 421.727,642.123 420.753,642.123 C419.779,642.123 419.292,641.503 419.292,640.264 L419.292,625.326 L416.745,626.405 C415.381,626.988 414.698,626.597 414.698,625.233 L414.698,617.514 C414.698,616.868 415.287,616.285 416.464,615.764 L419.292,614.592 L419.292,600.326 L416.745,601.405 C415.381,601.988 414.698,601.597 414.698,600.233 L414.698,592.514 C414.698,591.858 415.287,591.269 416.464,590.748 L419.292,589.576 L419.292,573.467 C419.292,572.227 419.779,571.608 420.753,571.608 C421.727,571.608 422.214,572.227 422.214,573.467 L422.214,588.405 L431.495,584.608 L431.495,568.686 C431.495,567.446 431.985,566.826 432.964,566.826 C433.943,566.826 434.433,567.446 434.433,568.686 L434.433,583.436 L437.355,582.264 M422.214,599.155 L422.214,613.42 L431.495,609.608 L431.495,595.436 L422.214,599.155 "/>
<path class="Accidental" d="M1831.04,569.764 C1832.48,569.368 1833.19,569.722 1833.19,570.826 L1833.19,578.639 C1833.19,579.42 1832.57,580.04 1831.33,580.498 L1828.12,581.764 L1828.12,595.936 L1831.04,594.764 C1832.48,594.368 1833.19,594.727 1833.19,595.842 L1833.19,603.655 C1833.19,604.436 1832.57,605.05 1831.33,605.498 L1828.12,606.78 L1828.12,622.983 C1828.12,624.222 1827.63,624.842 1826.65,624.842 C1825.67,624.842 1825.18,624.222 1825.18,622.983 L1825.18,607.951 L1815.9,611.655 L1815.9,627.764 C1815.9,629.003 1815.41,629.623 1814.44,629.623 C1813.46,629.623 1812.98,629.003 1812.98,627.764 L1812.98,612.826 L1810.43,613.905 C1809.06,614.488 1808.38,614.097 1808.38,612.733 L1808.38,605.014 C1808.38,604.368 1808.97,603.785 1810.15,603.264 L1812.98,602.092 L1812.98,587.826 L1810.43,588.905 C1809.06,589.488 1808.38,589.097 1808.38,587.733 L1808.38,580.014 C1808.38,579.358 1808.97,578.769 1810.15,578.248 L1812.98,577.076 L1812.98,560.967 C1812.98,559.727 1813.46,559.108 1814.44,559.108 C1815.41,559.108 1815.9,559.727 1815.9,560.967 L1815.9,575.905 L1825.18,572.108 L1825.18,556.186 C1825.18,554.946 1825.67,554.326 1826.65,554.326 C1827.63,554.326 1828.12,554.946 1828.12,556.186 L1828.12,570.936 L1831.04,569.764 M1815.9,586.655 L1815.9,600.92 L1825.18,597.108 L1825.18,582.936 L1815.9,586.655 "/>
<path class="Accidental" d="M945.585,544.764 C947.023,544.368 947.742,544.722 947.742,545.826 L947.742,553.639 C947.742,554.42 947.122,555.04 945.882,555.498 L942.663,556.764 L942.663,570.936 L945.585,569.764 C947.023,569.368 947.742,569.727 947.742,570.842 L947.742,578.655 C947.742,579.436 947.122,580.05 945.882,580.498 L942.663,581.78 L942.663,597.983 C942.663,599.222 942.174,599.842 941.195,599.842 C940.216,599.842 939.726,599.222 939.726,597.983 L939.726,582.951 L930.445,586.655 L930.445,602.764 C930.445,604.003 929.958,604.623 928.984,604.623 C928.01,604.623 927.523,604.003 927.523,602.764 L927.523,587.826 L924.976,588.905 C923.611,589.488 922.929,589.097 922.929,587.733 L922.929,580.014 C922.929,579.368 923.518,578.785 924.695,578.264 L927.523,577.092 L927.523,562.826 L924.976,563.905 C923.611,564.488 922.929,564.097 922.929,562.733 L922.929,555.014 C922.929,554.358 923.518,553.769 924.695,553.248 L927.523,552.076 L927.523,535.967 C927.523,534.727 928.01,534.108 928.984,534.108 C929.958,534.108 930.445,534.727 930.445,535.967 L930.445,550.905 L939.726,547.108 L939.726,531.186 C939.726,529.946 940.216,529.326 941.195,529.326 C942.174,529.326 942.663,529.946 942.663,531.186 L942.663,545.936 L945.585,544.764 M930.445,561.655 L930.445,575.92 L939.726,572.108 L939.726,557.936 L930.445,561.655 "/>
<path class="Accidental" d="M1682.73,582.264 C1684.17,581.868 1684.88,582.222 1684.88,583.326 L1684.88,591.139 C1684.88,591.92 1684.26,592.54 1683.03,592.998 L1679.81,594.264 L1679.81,608.436 L1682.73,607.264 C1684.17,606.868 1684.88,607.227 1684.88,608.342 L1684.88,616.155 C1684.88,616.936 1684.26,617.55 1683.03,617.998 L1679.81,619.28 L1679.81,635.483 C1679.81,636.722 1679.32,637.342 1678.34,637.342 C1677.36,637.342 1676.87,636.722 1676.87,635.483 L1676.87,620.451 L1667.59,624.155 L1667.59,640.264 C1667.59,641.503 1667.1,642.123 1666.13,642.123 C1665.15,642.123 1664.67,641.503 1664.67,640.264 L1664.67,625.326 L1662.12,626.405 C1660.75,626.988 1660.07,626.597 1660.07,625.233 L1660.07,617.514 C1660.07,616.868 1660.66,616.285 1661.84,615.764 L1664.67,614.592 L1664.67,600.326 L1662.12,601.405 C1660.75,601.988 1660.07,601.597 1660.07,600.233 L1660.07,592.514 C1660.07,591.858 1660.66,591.269 1661.84,590.748 L1664.67,589.576 L1664.67,573.467 C1664.67,572.227 1665.15,571.608 1666.13,571.608 C1667.1,571.608 1667.59,572.227 1667.59,573.467 L1667.59,588.405 L1676.87,584.608 L1676.87,568.686 C1676.87,567.446 1677.36,566.826 1678.34,566.826 C1679.32,566.826 1679.81,567.446 1679.81,568.686 L1679.81,583.436 L1682.73,582.264 M1667.59,599.155 L1667.59,613.42 L1676.87,609.608 L1676.87,595.436 L1667.59,599.155 "/>
<path class="Accidental" d="M839.78,532.264 C841.217,531.868 841.936,532.222 841.936,533.326 L841.936,541.139 C841.936,541.92 841.316,542.54 840.077,542.998 L836.858,544.264 L836.858,558.436 L839.78,557.264 C841.217,556.868 841.936,557.227 841.936,558.342 L841.936,566.154 C841.936,566.936 841.316,567.55 840.077,567.998 L836.858,569.279 L836.858,585.483 C836.858,586.722 836.368,587.342 835.389,587.342 C834.41,587.342 833.92,586.722 833.92,585.483 L833.92,570.451 L824.639,574.154 L824.639,590.264 C824.639,591.503 824.152,592.123 823.178,592.123 C822.204,592.123 821.717,591.503 821.717,590.264 L821.717,575.326 L819.17,576.404 C817.806,576.988 817.123,576.597 817.123,575.233 L817.123,567.514 C817.123,566.868 817.712,566.285 818.889,565.764 L821.717,564.592 L821.717,550.326 L819.17,551.404 C817.806,551.988 817.123,551.597 817.123,550.233 L817.123,542.514 C817.123,541.858 817.712,541.269 818.889,540.748 L821.717,539.576 L821.717,523.467 C821.717,522.227 822.204,521.608 823.178,521.608 C824.152,521.608 824.639,522.227 824.639,523.467 L824.639,538.404 L833.92,534.608 L833.92,518.686 C833.92,517.446 834.41,516.826 835.389,516.826 C836.368,516.826 836.858,517.446 836.858,518.686 L836.858,533.436 L839.78,532.264 M824.639,549.154 L824.639,563.42 L833.92,559.608 L833.92,545.436 L824.639,549.154 "/>
<path class="Accidental" d="M2085.15,532.264 C2086.59,531.868 2087.31,532.222 2087.31,533.326 L2087.31,541.139 C2087.31,541.92 2086.69,542.54 2085.45,542.998 L2082.23,544.264 L2082.23,558.436 L2085.15,557.264 C2086.59,556.868 2087.31,557.227 2087.31,558.342 L2087.31,566.154 C2087.31,566.936 2086.69,567.55 2085.45,567.998 L2082.23,569.279 L2082.23,585.483 C2082.23,586.722 2081.74,587.342 2080.76,587.342 C2079.78,587.342 2079.29,586.722 2079.29,585.483 L2079.29,570.451 L2070.01,574.154 L2070.01,590.264 C2070.01,591.503 2069.53,592.123 2068.55,592.123 C2067.58,592.123 2067.09,591.503 2067.09,590.264 L2067.09,575.326 L2064.54,576.404 C2063.18,576.988 2062.5,576.597 2062.5,575.233 L2062.5,567.514 C2062.5,566.868 2063.09,566.285 2064.26,565.764 L2067.09,564.592 L2067.09,550.326 L2064.54,551.404 C2063.18,551.988 2062.5,551.597 2062.5,550.233 L2062.5,542.514 C2062.5,541.858 2063.09,541.269 2064.26,540.748 L2067.09,539.576 L2067.09,523.467 C2067.09,522.227 2067.58,521.608 2068.55,521.608 C2069.53,521.608 2070.01,522.227 2070.01,523.467 L2070.01,538.404 L2079.29,534.608 L2079.29,518.686 C2079.29,517.446 2079.78,516.826 2080.76,516.826 C2081.74,516.826 2082.23,517.446 2082.23,518.686 L2082.23,533.436 L2085.15,532.264 M2070.01,549.154 L2070.01,563.42 L2079.29,559.608 L2079.29,545.436 L2070.01,549.154 "/>
<path class="Accidental" d="M585.664,569.764 C587.102,569.368 587.821,569.722 587.821,570.826 L587.821,578.639 C587.821,579.42 587.201,580.04 585.961,580.498 L582.742,581.764 L582.742,595.936 L585.664,594.764 C587.102,594.368 587.821,594.727 587.821,595.842 L587.821,603.655 C587.821,604.436 587.201,605.05 585.961,605.498 L582.742,606.78 L582.742,622.983 C582.742,624.222 582.253,624.842 581.274,624.842 C580.294,624.842 579.805,624.222 579.805,622.983 L579.805,607.951 L570.524,611.655 L570.524,627.764 C570.524,629.003 570.037,629.623 569.063,629.623 C568.089,629.623 567.602,629.003 567.602,627.764 L567.602,612.826 L565.055,613.905 C563.69,614.488 563.008,614.097 563.008,612.733 L563.008,605.014 C563.008,604.368 563.597,603.785 564.774,603.264 L567.602,602.092 L567.602,587.826 L565.055,588.905 C563.69,589.488 563.008,589.097 563.008,587.733 L563.008,580.014 C563.008,579.358 563.597,578.769 564.774,578.248 L567.602,577.076 L567.602,560.967 C567.602,559.727 568.089,559.108 569.063,559.108 C570.037,559.108 570.524,559.727 570.524,560.967 L570.524,575.905 L579.805,572.108 L579.805,556.186 C579.805,554.946 580.294,554.326 581.274,554.326 C582.253,554.326 582.742,554.946 582.742,556.186 L582.742,570.936 L585.664,569.764 M570.524,586.655 L570.524,600.92 L579.805,597.108 L579.805,582.936 L570.524,586.655 "/>
<path class="Accidental" d="M2339.27,569.764 C2340.71,569.368 2341.43,569.722 2341.43,570.826 L2341.43,578.639 C2341.43,579.42 2340.81,580.04 2339.57,580.498 L2336.35,581.764 L2336.35,595.936 L2339.27,594.764 C2340.71,594.368 2341.43,594.727 2341.43,595.842 L2341.43,603.655 C2341.43,604.436 2340.81,605.05 2339.57,605.498 L2336.35,606.78 L2336.35,622.983 C2336.35,624.222 2335.86,624.842 2334.88,624.842 C2333.9,624.842 2333.41,624.222 2333.41,622.983 L2333.41,607.951 L2324.13,611.655 L2324.13,627.764 C2324.13,629.003 2323.64,629.623 2322.67,629.623 C2321.69,629.623 2321.21,629.003 2321.21,627.764 L2321.21,612.826 L2318.66,613.905 C2317.29,614.488 2316.61,614.097 2316.61,612.733 L2316.61,605.014 C2316.61,604.368 2317.2,603.785 2318.38,603.264 L2321.21,602.092 L2321.21,587.826 L2318.66,588.905 C2317.29,589.488 2316.61,589.097 2316.61,587.733 L2316.61,580.014 C2316.61,579.358 2317.2,578.769 2318.38,578.248 L2321.21,577.076 L2321.21,560.967 C2321.21,559.727 2321.69,559.108 2322.67,559.108 C2323.64,559.108 2324.13,559.727 2324.13,560.967 L2324.13,575.905 L2333.41,572.108 L2333.41,556.186 C2333.41,554.946 2333.9,554.326 2334.88,554.326 C2335.86,554.326 2336.35,554.946 2336.35,556.186 L2336.35,570.936 L2339.27,569.764 M2324.13,586.655 L2324.13,600.92 L2333.41,597.108 L2333.41,582.936 L2324.13,586.655 "/>
<polyline class="Stem" fill="none" stroke="#000000" stroke-width="3.25" stroke-linejoin="bevel" points="1691.78,609.133 1691.78,685.483"/>
<polyline class="Stem" fill="none" stroke="#000000" stroke-width="3.25" stroke-linejoin="bevel" points="2200.01,571.633 2200.01,654.233"/>
<polyline class="Stem" fill="none" stroke="#000000" stroke-width="3.25" stroke-linejoin="bevel" points="1585.97,621.633 1585.97,691.733"/>
<polyline class="Stem" fill="none" stroke="#000000" stroke-width="3.25" stroke-linejoin="bevel" points="1945.89,571.633 1945.89,654.233"/>
<polyline class="Stem" fill="none" stroke="#000000" stroke-width="3.25" stroke-linejoin="bevel" points="2094.2,559.133 2094.2,641.733"/>
<polyline class="Stem" fill="none" stroke="#000000" stroke-width="3.25" stroke-linejoin="bevel" points="1840.08,596.633 1840.08,679.233"/>
<polyline class="Stem" fill="none" stroke="#000000" stroke-width="3.25" stroke-linejoin="bevel" points="1208.75,609.133 1208.75,685.483"/>
<polyline class="Stem" fill="none" stroke="#000000" stroke-width="3.25" stroke-linejoin="bevel" points="2589.83,621.633 2589.83,691.733"/>
<polyline class="Stem" fill="none" stroke="#000000" stroke-width="3.25" stroke-linejoin="bevel" points="340.596,621.633 340.596,691.733"/>
<polyline class="Stem" fill="none" stroke="#000000" stroke-width="3.25" stroke-linejoin="bevel" points="446.401,609.133 446.401,685.483"/>
<polyline class="Stem" fill="none" stroke="#000000" stroke-width="3.25" stroke-linejoin="bevel" points="594.711,596.633 594.711,679.233"/>
<polyline class="Stem" fill="none" stroke="#000000" stroke-width="3.25" stroke-linejoin="bevel" points="2454.12,609.133 2454.12,685.483"/>
<polyline class="Stem" fill="none" stroke="#000000" stroke-width="3.25" stroke-linejoin="bevel" points="700.517,571.633 700.517,654.233"/>
<polyline class="Stem" fill="none" stroke="#000000" stroke-width="3.25" stroke-linejoin="bevel" points="848.827,559.133 848.827,641.733"/>
<polyline class="Stem" fill="none" stroke="#000000" stroke-width="3.25" stroke-linejoin="bevel" points="954.632,571.633 954.632,654.233"/>
<polyline class="Stem" fill="none" stroke="#000000" stroke-width="3.25" stroke-linejoin="bevel" points="2348.32,596.633 2348.32,679.233"/>
<polyline class="Stem" fill="none" stroke="#000000" stroke-width="3.25" stroke-linejoin="bevel" points="1102.94,596.633 1102.94,679.233"/>
<polyline class="Stem" fill="none" stroke="#000000" stroke-width="3.25" stroke-linejoin="bevel" points="1344.46,621.633 1344.46,691.733"/>
<path class="Note" d="M2354.11,602.373 C2356,602.373 2359.95,600.42 2365.98,596.514 C2372.01,592.608 2375.56,589.988 2376.63,588.655 C2377.7,587.321 2378.24,586.134 2378.24,585.092 C2378.24,584.05 2377.81,583.123 2376.96,582.311 C2376.12,581.498 2375.14,581.092 2374.03,581.092 C2372.09,581.092 2368.1,583.061 2362.07,586.998 C2356.05,590.936 2352.51,593.556 2351.47,594.858 C2350.43,596.16 2349.91,597.332 2349.91,598.373 C2349.91,599.415 2350.32,600.342 2351.14,601.155 C2351.95,601.967 2352.95,602.373 2354.11,602.373 M2373.07,577.967 C2378.66,577.967 2381.46,580.373 2381.46,585.186 C2381.46,587.53 2380.77,590.248 2379.41,593.342 C2378.04,596.436 2376.22,598.795 2373.94,600.42 C2368.93,603.806 2362.65,605.498 2355.1,605.498 C2349.49,605.498 2346.69,603.092 2346.69,598.28 C2346.69,596.134 2347.36,593.464 2348.69,590.272 C2350.02,587.079 2351.86,584.67 2354.21,583.045 C2359.23,579.66 2365.51,577.967 2373.07,577.967"/>
<path class="Note" d="M2459.92,614.873 C2461.8,614.873 2465.76,612.92 2471.79,609.014 C2477.81,605.108 2481.36,602.488 2482.43,601.155 C2483.51,599.821 2484.04,598.634 2484.04,597.592 C2484.04,596.55 2483.62,595.623 2482.77,594.811 C2481.92,593.998 2480.94,593.592 2479.84,593.592 C2477.89,593.592 2473.91,595.561 2467.88,599.498 C2461.85,603.436 2458.32,606.056 2457.28,607.358 C2456.24,608.66 2455.72,609.832 2455.72,610.873 C2455.72,611.915 2456.12,612.842 2456.94,613.655 C2457.76,614.467 2458.75,614.873 2459.92,614.873 M2478.87,590.467 C2484.47,590.467 2487.26,592.873 2487.26,597.686 C2487.26,600.03 2486.58,602.748 2485.22,605.842 C2483.85,608.936 2482.03,611.295 2479.75,612.92 C2474.74,616.306 2468.45,617.998 2460.9,617.998 C2455.3,617.998 2452.5,615.592 2452.5,610.78 C2452.5,608.634 2453.16,605.964 2454.5,602.772 C2455.83,599.579 2457.67,597.17 2460.01,595.545 C2465.03,592.16 2471.32,590.467 2478.87,590.467"/>
<path class="Note" d="M2100,564.873 C2101.88,564.873 2105.84,562.92 2111.86,559.014 C2117.89,555.108 2121.44,552.488 2122.51,551.154 C2123.59,549.821 2124.12,548.634 2124.12,547.592 C2124.12,546.55 2123.7,545.623 2122.85,544.811 C2122,543.998 2121.02,543.592 2119.92,543.592 C2117.97,543.592 2113.98,545.561 2107.96,549.498 C2101.93,553.436 2098.4,556.056 2097.36,557.358 C2096.31,558.66 2095.79,559.832 2095.79,560.873 C2095.79,561.915 2096.2,562.842 2097.02,563.654 C2097.84,564.467 2098.83,564.873 2100,564.873 M2118.95,540.467 C2124.54,540.467 2127.34,542.873 2127.34,547.686 C2127.34,550.029 2126.66,552.748 2125.29,555.842 C2123.93,558.936 2122.11,561.295 2119.83,562.92 C2114.81,566.306 2108.53,567.998 2100.98,567.998 C2095.38,567.998 2092.58,565.592 2092.58,560.779 C2092.58,558.634 2093.24,555.964 2094.58,552.772 C2095.91,549.579 2097.75,547.17 2100.09,545.545 C2105.11,542.16 2111.4,540.467 2118.95,540.467"/>
<path class="Note" d="M2205.8,577.373 C2207.69,577.373 2211.64,575.42 2217.67,571.514 C2223.7,567.608 2227.25,564.988 2228.32,563.655 C2229.39,562.321 2229.93,561.134 2229.93,560.092 C2229.93,559.05 2229.5,558.123 2228.65,557.311 C2227.81,556.498 2226.83,556.092 2225.72,556.092 C2223.78,556.092 2219.79,558.061 2213.76,561.998 C2207.74,565.936 2204.2,568.556 2203.16,569.858 C2202.12,571.16 2201.6,572.332 2201.6,573.373 C2201.6,574.415 2202.01,575.342 2202.83,576.155 C2203.64,576.967 2204.64,577.373 2205.8,577.373 M2224.76,552.967 C2230.35,552.967 2233.15,555.373 2233.15,560.186 C2233.15,562.53 2232.46,565.248 2231.1,568.342 C2229.74,571.436 2227.91,573.795 2225.63,575.42 C2220.62,578.806 2214.34,580.498 2206.79,580.498 C2201.18,580.498 2198.38,578.092 2198.38,573.28 C2198.38,571.134 2199.05,568.464 2200.38,565.272 C2201.71,562.079 2203.55,559.67 2205.9,558.045 C2210.92,554.66 2217.2,552.967 2224.76,552.967"/>
<path class="Note" d="M2595.63,627.373 C2597.51,627.373 2601.47,625.42 2607.49,621.514 C2613.52,617.608 2617.07,614.988 2618.14,613.655 C2619.21,612.321 2619.75,611.134 2619.75,610.092 C2619.75,609.05 2619.33,608.123 2618.48,607.311 C2617.63,606.498 2616.65,606.092 2615.55,606.092 C2613.6,606.092 2609.61,608.061 2603.59,611.998 C2597.56,615.936 2594.03,618.556 2592.99,619.858 C2591.94,621.16 2591.42,622.332 2591.42,623.373 C2591.42,624.415 2591.83,625.342 2592.65,626.155 C2593.47,626.967 2594.46,627.373 2595.63,627.373 M2614.58,602.967 C2620.17,602.967 2622.97,605.373 2622.97,610.186 C2622.97,612.53 2622.29,615.248 2620.92,618.342 C2619.56,621.436 2617.74,623.795 2615.45,625.42 C2610.44,628.806 2604.16,630.498 2596.61,630.498 C2591.01,630.498 2588.2,628.092 2588.2,623.28 C2588.2,621.134 2588.87,618.464 2590.2,615.272 C2591.54,612.079 2593.38,609.67 2595.72,608.045 C2600.74,604.66 2607.03,602.967 2614.58,602.967"/>
<path class="Note" d="M1845.88,602.373 C1847.77,602.373 1851.72,600.42 1857.75,596.514 C1863.78,592.608 1867.32,589.988 1868.4,588.655 C1869.47,587.321 1870.01,586.134 1870.01,585.092 C1870.01,584.05 1869.58,583.123 1868.73,582.311 C1867.88,581.498 1866.91,581.092 1865.8,581.092 C1863.86,581.092 1859.87,583.061 1853.84,586.998 C1847.82,590.936 1844.28,593.556 1843.24,594.858 C1842.2,596.16 1841.68,597.332 1841.68,598.373 C1841.68,599.415 1842.09,600.342 1842.91,601.155 C1843.72,601.967 1844.72,602.373 1845.88,602.373 M1864.83,577.967 C1870.43,577.967 1873.23,580.373 1873.23,585.186 C1873.23,587.53 1872.54,590.248 1871.18,593.342 C1869.81,596.436 1867.99,598.795 1865.71,600.42 C1860.7,603.806 1854.42,605.498 1846.87,605.498 C1841.26,605.498 1838.46,603.092 1838.46,598.28 C1838.46,596.134 1839.13,593.464 1840.46,590.272 C1841.79,587.079 1843.63,584.67 1845.98,583.045 C1851,579.66 1857.28,577.967 1864.83,577.967"/>
<path class="Note" d="M346.393,627.373 C348.278,627.373 352.234,625.42 358.26,621.514 C364.286,617.608 367.835,614.988 368.908,613.655 C369.981,612.321 370.518,611.134 370.518,610.092 C370.518,609.05 370.093,608.123 369.244,607.311 C368.395,606.498 367.419,606.092 366.315,606.092 C364.367,606.092 360.38,608.061 354.354,611.998 C348.328,615.936 344.794,618.556 343.752,619.858 C342.71,621.16 342.19,622.332 342.19,623.373 C342.19,624.415 342.598,625.342 343.416,626.155 C344.234,626.967 345.226,627.373 346.393,627.373 M365.346,602.967 C370.94,602.967 373.736,605.373 373.736,610.186 C373.736,612.53 373.054,615.248 371.69,618.342 C370.325,621.436 368.502,623.795 366.221,625.42 C361.21,628.806 354.929,630.498 347.377,630.498 C341.773,630.498 338.971,628.092 338.971,623.28 C338.971,621.134 339.637,618.464 340.971,615.272 C342.304,612.079 344.143,609.67 346.486,608.045 C351.507,604.66 357.794,602.967 365.346,602.967"/>
<path class="Note" d="M452.198,614.873 C454.084,614.873 458.04,612.92 464.066,609.014 C470.092,605.108 473.641,602.488 474.714,601.155 C475.787,599.821 476.323,598.634 476.323,597.592 C476.323,596.55 475.899,595.623 475.05,594.811 C474.201,593.998 473.224,593.592 472.12,593.592 C470.172,593.592 466.185,595.561 460.159,599.498 C454.133,603.436 450.599,606.056 449.558,607.358 C448.516,608.66 447.995,609.832 447.995,610.873 C447.995,611.915 448.404,612.842 449.222,613.655 C450.04,614.467 451.032,614.873 452.198,614.873 M471.151,590.467 C476.745,590.467 479.542,592.873 479.542,597.686 C479.542,600.03 478.86,602.748 477.495,605.842 C476.131,608.936 474.308,611.295 472.026,612.92 C467.016,616.306 460.735,617.998 453.183,617.998 C447.579,617.998 444.776,615.592 444.776,610.78 C444.776,608.634 445.443,605.964 446.776,602.772 C448.11,599.579 449.948,597.17 452.292,595.545 C457.313,592.16 463.599,590.467 471.151,590.467"/>
<path class="Note" d="M600.508,602.373 C602.393,602.373 606.349,600.42 612.375,596.514 C618.401,592.608 621.951,589.988 623.024,588.655 C624.097,587.321 624.633,586.134 624.633,585.092 C624.633,584.05 624.209,583.123 623.36,582.311 C622.511,581.498 621.534,581.092 620.43,581.092 C618.482,581.092 614.495,583.061 608.469,586.998 C602.443,590.936 598.909,593.556 597.867,594.858 C596.826,596.16 596.305,597.332 596.305,598.373 C596.305,599.415 596.714,600.342 597.531,601.155 C598.349,601.967 599.341,602.373 600.508,602.373 M619.461,577.967 C625.055,577.967 627.852,580.373 627.852,585.186 C627.852,587.53 627.169,590.248 625.805,593.342 C624.44,596.436 622.617,598.795 620.336,600.42 C615.326,603.806 609.044,605.498 601.492,605.498 C595.888,605.498 593.086,603.092 593.086,598.28 C593.086,596.134 593.753,593.464 595.086,590.272 C596.419,587.079 598.258,584.67 600.602,583.045 C605.623,579.66 611.909,577.967 619.461,577.967"/>
<path class="Note" d="M706.314,577.373 C708.199,577.373 712.155,575.42 718.181,571.514 C724.207,567.608 727.756,564.988 728.829,563.655 C729.902,562.321 730.439,561.134 730.439,560.092 C730.439,559.05 730.014,558.123 729.165,557.311 C728.316,556.498 727.34,556.092 726.236,556.092 C724.288,556.092 720.301,558.061 714.275,561.998 C708.249,565.936 704.715,568.556 703.673,569.858 C702.631,571.16 702.111,572.332 702.111,573.373 C702.111,574.415 702.519,575.342 703.337,576.155 C704.155,576.967 705.147,577.373 706.314,577.373 M725.267,552.967 C730.861,552.967 733.658,555.373 733.658,560.186 C733.658,562.53 732.975,565.248 731.611,568.342 C730.246,571.436 728.423,573.795 726.142,575.42 C721.131,578.806 714.85,580.498 707.298,580.498 C701.694,580.498 698.892,578.092 698.892,573.28 C698.892,571.134 699.559,568.464 700.892,565.272 C702.225,562.079 704.064,559.67 706.408,558.045 C711.428,554.66 717.715,552.967 725.267,552.967"/>
<path class="Note" d="M854.623,564.873 C856.509,564.873 860.465,562.92 866.491,559.014 C872.517,555.108 876.066,552.488 877.139,551.154 C878.212,549.821 878.748,548.634 878.748,547.592 C878.748,546.55 878.324,545.623 877.475,544.811 C876.626,543.998 875.649,543.592 874.545,543.592 C872.597,543.592 868.61,545.561 862.584,549.498 C856.558,553.436 853.024,556.056 851.983,557.358 C850.941,558.66 850.42,559.832 850.42,560.873 C850.42,561.915 850.829,562.842 851.647,563.654 C852.465,564.467 853.457,564.873 854.623,564.873 M873.577,540.467 C879.17,540.467 881.967,542.873 881.967,547.686 C881.967,550.029 881.285,552.748 879.92,555.842 C878.556,558.936 876.733,561.295 874.452,562.92 C869.441,566.306 863.16,567.998 855.608,567.998 C850.004,567.998 847.202,565.592 847.202,560.779 C847.202,558.634 847.868,555.964 849.202,552.772 C850.535,549.579 852.373,547.17 854.717,545.545 C859.738,542.16 866.024,540.467 873.577,540.467"/>
<path class="Note" d="M960.429,577.373 C962.315,577.373 966.27,575.42 972.296,571.514 C978.322,567.608 981.872,564.988 982.945,563.655 C984.018,562.321 984.554,561.134 984.554,560.092 C984.554,559.05 984.13,558.123 983.281,557.311 C982.432,556.498 981.455,556.092 980.351,556.092 C978.403,556.092 974.416,558.061 968.39,561.998 C962.364,565.936 958.83,568.556 957.789,569.858 C956.747,571.16 956.226,572.332 956.226,573.373 C956.226,574.415 956.635,575.342 957.453,576.155 C958.27,576.967 959.262,577.373 960.429,577.373 M979.382,552.967 C984.976,552.967 987.773,555.373 987.773,560.186 C987.773,562.53 987.091,565.248 985.726,568.342 C984.361,571.436 982.539,573.795 980.257,575.42 C975.247,578.806 968.966,580.498 961.414,580.498 C955.809,580.498 953.007,578.092 953.007,573.28 C953.007,571.134 953.674,568.464 955.007,565.272 C956.341,562.079 958.179,559.67 960.523,558.045 C965.544,554.66 971.83,552.967 979.382,552.967"/>
<path class="Note" d="M1108.74,602.373 C1110.62,602.373 1114.58,600.42 1120.61,596.514 C1126.63,592.608 1130.18,589.988 1131.25,588.655 C1132.33,587.321 1132.86,586.134 1132.86,585.092 C1132.86,584.05 1132.44,583.123 1131.59,582.311 C1130.74,581.498 1129.76,581.092 1128.66,581.092 C1126.71,581.092 1122.73,583.061 1116.7,586.998 C1110.67,590.936 1107.14,593.556 1106.1,594.858 C1105.06,596.16 1104.54,597.332 1104.54,598.373 C1104.54,599.415 1104.94,600.342 1105.76,601.155 C1106.58,601.967 1107.57,602.373 1108.74,602.373 M1127.69,577.967 C1133.29,577.967 1136.08,580.373 1136.08,585.186 C1136.08,587.53 1135.4,590.248 1134.04,593.342 C1132.67,596.436 1130.85,598.795 1128.57,600.42 C1123.56,603.806 1117.28,605.498 1109.72,605.498 C1104.12,605.498 1101.32,603.092 1101.32,598.28 C1101.32,596.134 1101.98,593.464 1103.32,590.272 C1104.65,587.079 1106.49,584.67 1108.83,583.045 C1113.85,579.66 1120.14,577.967 1127.69,577.967"/>
<path class="Note" d="M1214.54,614.873 C1216.43,614.873 1220.39,612.92 1226.41,609.014 C1232.44,605.108 1235.99,602.488 1237.06,601.155 C1238.13,599.821 1238.67,598.634 1238.67,597.592 C1238.67,596.55 1238.25,595.623 1237.4,594.811 C1236.55,593.998 1235.57,593.592 1234.47,593.592 C1232.52,593.592 1228.53,595.561 1222.51,599.498 C1216.48,603.436 1212.95,606.056 1211.9,607.358 C1210.86,608.66 1210.34,609.832 1210.34,610.873 C1210.34,611.915 1210.75,612.842 1211.57,613.655 C1212.39,614.467 1213.38,614.873 1214.54,614.873 M1233.5,590.467 C1239.09,590.467 1241.89,592.873 1241.89,597.686 C1241.89,600.03 1241.21,602.748 1239.84,605.842 C1238.48,608.936 1236.65,611.295 1234.37,612.92 C1229.36,616.306 1223.08,617.998 1215.53,617.998 C1209.92,617.998 1207.12,615.592 1207.12,610.78 C1207.12,608.634 1207.79,605.964 1209.12,602.772 C1210.46,599.579 1212.29,597.17 1214.64,595.545 C1219.66,592.16 1225.95,590.467 1233.5,590.467"/>
<path class="Note" d="M1350.25,627.373 C1352.14,627.373 1356.09,625.42 1362.12,621.514 C1368.15,617.608 1371.7,614.988 1372.77,613.655 C1373.84,612.321 1374.38,611.134 1374.38,610.092 C1374.38,609.05 1373.95,608.123 1373.1,607.311 C1372.26,606.498 1371.28,606.092 1370.17,606.092 C1368.23,606.092 1364.24,608.061 1358.21,611.998 C1352.19,615.936 1348.65,618.556 1347.61,619.858 C1346.57,621.16 1346.05,622.332 1346.05,623.373 C1346.05,624.415 1346.46,625.342 1347.28,626.155 C1348.09,626.967 1349.09,627.373 1350.25,627.373 M1369.21,602.967 C1374.8,602.967 1377.6,605.373 1377.6,610.186 C1377.6,612.53 1376.91,615.248 1375.55,618.342 C1374.18,621.436 1372.36,623.795 1370.08,625.42 C1365.07,628.806 1358.79,630.498 1351.24,630.498 C1345.63,630.498 1342.83,628.092 1342.83,623.28 C1342.83,621.134 1343.5,618.464 1344.83,615.272 C1346.16,612.079 1348,609.67 1350.35,608.045 C1355.37,604.66 1361.65,602.967 1369.21,602.967"/>
<path class="Note" d="M1591.77,627.373 C1593.65,627.373 1597.61,625.42 1603.63,621.514 C1609.66,617.608 1613.21,614.988 1614.28,613.655 C1615.35,612.321 1615.89,611.134 1615.89,610.092 C1615.89,609.05 1615.47,608.123 1614.62,607.311 C1613.77,606.498 1612.79,606.092 1611.69,606.092 C1609.74,606.092 1605.75,608.061 1599.73,611.998 C1593.7,615.936 1590.17,618.556 1589.13,619.858 C1588.08,621.16 1587.56,622.332 1587.56,623.373 C1587.56,624.415 1587.97,625.342 1588.79,626.155 C1589.61,626.967 1590.6,627.373 1591.77,627.373 M1610.72,602.967 C1616.31,602.967 1619.11,605.373 1619.11,610.186 C1619.11,612.53 1618.43,615.248 1617.06,618.342 C1615.7,621.436 1613.88,623.795 1611.59,625.42 C1606.58,628.806 1600.3,630.498 1592.75,630.498 C1587.15,630.498 1584.34,628.092 1584.34,623.28 C1584.34,621.134 1585.01,618.464 1586.34,615.272 C1587.68,612.079 1589.52,609.67 1591.86,608.045 C1596.88,604.66 1603.17,602.967 1610.72,602.967"/>
<path class="Note" d="M1697.57,614.873 C1699.46,614.873 1703.41,612.92 1709.44,609.014 C1715.47,605.108 1719.01,602.488 1720.09,601.155 C1721.16,599.821 1721.7,598.634 1721.7,597.592 C1721.7,596.55 1721.27,595.623 1720.42,594.811 C1719.57,593.998 1718.6,593.592 1717.49,593.592 C1715.55,593.592 1711.56,595.561 1705.53,599.498 C1699.51,603.436 1695.97,606.056 1694.93,607.358 C1693.89,608.66 1693.37,609.832 1693.37,610.873 C1693.37,611.915 1693.78,612.842 1694.6,613.655 C1695.41,614.467 1696.41,614.873 1697.57,614.873 M1716.53,590.467 C1722.12,590.467 1724.92,592.873 1724.92,597.686 C1724.92,600.03 1724.23,602.748 1722.87,605.842 C1721.5,608.936 1719.68,611.295 1717.4,612.92 C1712.39,616.306 1706.11,617.998 1698.56,617.998 C1692.95,617.998 1690.15,615.592 1690.15,610.78 C1690.15,608.634 1690.82,605.964 1692.15,602.772 C1693.48,599.579 1695.32,597.17 1697.67,595.545 C1702.69,592.16 1708.97,590.467 1716.53,590.467"/>
<path class="Note" d="M1951.69,577.373 C1953.57,577.373 1957.53,575.42 1963.55,571.514 C1969.58,567.608 1973.13,564.988 1974.2,563.655 C1975.28,562.321 1975.81,561.134 1975.81,560.092 C1975.81,559.05 1975.39,558.123 1974.54,557.311 C1973.69,556.498 1972.71,556.092 1971.61,556.092 C1969.66,556.092 1965.67,558.061 1959.65,561.998 C1953.62,565.936 1950.09,568.556 1949.05,569.858 C1948.01,571.16 1947.48,572.332 1947.48,573.373 C1947.48,574.415 1947.89,575.342 1948.71,576.155 C1949.53,576.967 1950.52,577.373 1951.69,577.373 M1970.64,552.967 C1976.23,552.967 1979.03,555.373 1979.03,560.186 C1979.03,562.53 1978.35,565.248 1976.98,568.342 C1975.62,571.436 1973.8,573.795 1971.52,575.42 C1966.51,578.806 1960.22,580.498 1952.67,580.498 C1947.07,580.498 1944.27,578.092 1944.27,573.28 C1944.27,571.134 1944.93,568.464 1946.27,565.272 C1947.6,562.079 1949.44,559.67 1951.78,558.045 C1956.8,554.66 1963.09,552.967 1970.64,552.967"/>
<path class="Clef" d="M203.623,673.858 L203.623,671.717 C203.56,670.613 203.399,668.889 203.139,666.545 C199.889,667.066 196.993,667.326 194.451,667.326 C185.337,667.326 177.605,663.727 171.256,656.53 C164.907,649.332 161.732,640.754 161.732,630.795 C161.732,628.129 162.253,624.923 163.295,621.178 C164.337,617.433 165.297,614.925 166.178,613.655 C167.058,612.384 168.378,610.155 170.139,606.967 C170.659,605.988 172.352,603.837 175.217,600.514 C175.738,599.806 176.193,599.222 176.584,598.764 C176.975,598.306 177.607,597.49 178.482,596.319 C179.357,595.147 180.3,594.056 181.31,593.045 C182.321,592.035 183.217,591.058 183.998,590.115 C184.779,589.173 185.498,588.379 186.154,587.733 C183.81,579.983 182.378,574.024 181.857,569.858 C181.337,565.691 181.076,560.579 181.076,554.522 C181.076,548.464 182.378,542.962 184.982,538.014 C187.514,532.879 191.06,528.681 195.623,525.42 C195.883,525.222 196.225,525.123 196.646,525.123 C197.068,525.123 197.378,525.222 197.576,525.42 C201.087,529.649 204.128,535.149 206.701,541.92 C209.274,548.691 210.56,555.024 210.56,560.92 C210.56,566.816 209.066,572.498 206.076,577.967 C202.691,583.759 198.326,589.748 192.982,595.936 C194.347,600.227 196.17,606.962 198.451,616.139 L199.045,616.139 C199.305,616.076 199.529,616.045 199.717,616.045 C207.081,616.045 213.089,618.634 217.74,623.811 C222.391,628.988 224.717,634.962 224.717,641.733 C224.717,650.129 221.238,656.899 214.279,662.045 C212.258,663.545 209.878,664.717 207.139,665.561 C207.472,669.79 207.639,672.605 207.639,674.006 C207.639,675.407 207.571,677.899 207.435,681.483 C207.373,687.597 205.29,692.837 201.185,697.201 C197.081,701.566 192.394,703.748 187.123,703.748 C181.852,703.748 177.36,701.876 173.646,698.131 C169.933,694.386 168.076,689.847 168.076,684.514 C168.076,681.712 169.154,679.332 171.31,677.373 C173.519,675.425 176.006,674.451 178.771,674.451 C181.537,674.451 183.8,675.462 185.56,677.483 C187.383,679.368 188.295,681.644 188.295,684.311 C188.295,686.977 187.383,689.222 185.56,691.045 C183.738,692.868 181.555,693.78 179.014,693.78 C177.972,693.78 176.967,693.587 175.998,693.201 C178.863,697.431 182.54,699.545 187.029,699.545 C191.519,699.545 195.36,697.691 198.553,693.983 C201.745,690.274 203.342,685.91 203.342,680.889 L203.623,673.858 M206.748,661.561 C210.133,660.321 212.821,658.123 214.81,654.967 C216.8,651.811 217.795,648.67 217.795,645.545 C217.795,640.92 216.199,636.785 213.006,633.139 C209.813,629.493 205.774,627.441 200.889,626.983 C203.691,640.722 205.644,652.248 206.748,661.561 M168.967,638.998 C168.967,645.446 171.537,651.079 176.678,655.897 C181.818,660.714 187.842,663.123 194.748,663.123 C197.477,663.123 200.144,662.925 202.748,662.53 C201.706,652.634 199.654,640.785 196.592,626.983 C192.758,627.379 189.782,628.699 187.662,630.944 C185.542,633.188 184.482,635.743 184.482,638.608 C184.482,643.556 187.123,647.561 192.404,650.623 C192.852,650.884 193.076,651.324 193.076,651.944 C193.076,652.563 192.865,653.1 192.443,653.553 C192.021,654.006 191.649,654.233 191.326,654.233 C191.003,654.233 190.581,654.17 190.06,654.045 C182.435,649.879 178.623,643.592 178.623,635.186 C178.623,631.217 180.024,627.41 182.826,623.764 C185.753,620.118 189.56,617.774 194.248,616.733 C192.425,609.441 190.93,603.743 189.764,599.639 C180.847,609.67 175.31,617.092 173.154,621.905 C170.363,628.155 168.967,633.852 168.967,638.998 M201.576,539.686 C196.691,542.092 192.834,545.574 190.006,550.131 C187.178,554.688 185.764,559.472 185.764,564.483 C185.764,569.493 186.935,575.972 189.279,583.92 C193.967,578.254 197.514,572.946 199.92,567.998 C202.326,563.05 203.529,558.152 203.529,553.303 C203.529,548.454 202.878,543.915 201.576,539.686"/>
<path class="TimeSig" d="M273.021,567.912 C274.516,567.912 275.949,567.686 277.318,567.233 C278.688,566.78 279.665,566.553 280.248,566.553 C280.831,566.553 281.222,566.907 281.42,567.615 C281.42,567.688 281.352,567.886 281.217,568.209 L252.811,601.225 L269.498,601.225 L269.498,588.131 C269.498,586.506 270.446,585.334 272.342,584.615 C274.29,583.897 276.503,581.001 278.982,575.928 C279.17,575.532 279.462,575.334 279.857,575.334 C280.639,575.334 281.092,575.793 281.217,576.709 L281.217,601.225 L288.357,601.225 C289.264,601.225 289.751,601.712 289.818,602.686 C289.886,603.66 289.399,604.147 288.357,604.147 L281.217,604.147 L281.217,604.928 C281.217,607.532 281.868,609.746 283.17,611.569 C284.67,613.391 286.43,614.303 288.451,614.303 C289.232,614.303 289.623,614.694 289.623,615.475 C289.623,616.256 289.087,616.647 288.014,616.647 C286.941,616.647 284.938,616.436 282.006,616.014 C279.074,615.592 276.811,615.381 275.217,615.381 C273.623,615.381 271.41,615.592 268.576,616.014 C265.743,616.436 263.613,616.647 262.186,616.647 C261.404,616.647 261.014,616.256 261.014,615.475 C261.014,614.694 261.404,614.303 262.186,614.303 C264.196,614.303 265.951,613.391 267.451,611.569 C268.816,609.683 269.498,607.47 269.498,604.928 L269.498,604.147 L252.811,604.147 C251.956,604.147 251.219,603.92 250.6,603.467 C249.98,603.014 249.67,602.592 249.67,602.201 C249.67,601.811 250.485,600.639 252.115,598.686 C253.745,596.733 256.074,592.972 259.1,587.405 C262.126,581.837 263.639,575.438 263.639,568.209 C263.639,567.168 264.097,566.647 265.014,566.647 C265.212,566.647 265.521,566.712 265.943,566.842 C266.365,566.972 267.277,567.183 268.678,567.475 C270.079,567.766 271.527,567.912 273.021,567.912"/>
<path class="TimeSig" d="M273.021,618.084 C274.516,618.084 275.949,617.858 277.318,617.405 C278.688,616.951 279.665,616.725 280.248,616.725 C280.831,616.725 281.222,617.079 281.42,617.787 C281.42,617.86 281.352,618.058 281.217,618.381 L252.811,651.397 L269.498,651.397 L269.498,638.303 C269.498,636.678 270.446,635.506 272.342,634.787 C274.29,634.069 276.503,631.173 278.982,626.1 C279.17,625.704 279.462,625.506 279.857,625.506 C280.639,625.506 281.092,625.964 281.217,626.881 L281.217,651.397 L288.357,651.397 C289.264,651.397 289.751,651.884 289.818,652.858 C289.886,653.832 289.399,654.319 288.357,654.319 L281.217,654.319 L281.217,655.1 C281.217,657.704 281.868,659.918 283.17,661.74 C284.67,663.563 286.43,664.475 288.451,664.475 C289.232,664.475 289.623,664.865 289.623,665.647 C289.623,666.428 289.087,666.819 288.014,666.819 C286.941,666.819 284.938,666.608 282.006,666.186 C279.074,665.764 276.811,665.553 275.217,665.553 C273.623,665.553 271.41,665.764 268.576,666.186 C265.743,666.608 263.613,666.819 262.186,666.819 C261.404,666.819 261.014,666.428 261.014,665.647 C261.014,664.865 261.404,664.475 262.186,664.475 C264.196,664.475 265.951,663.563 267.451,661.74 C268.816,659.855 269.498,657.642 269.498,655.1 L269.498,654.319 L252.811,654.319 C251.956,654.319 251.219,654.092 250.6,653.639 C249.98,653.186 249.67,652.764 249.67,652.373 C249.67,651.983 250.485,650.811 252.115,648.858 C253.745,646.905 256.074,643.144 259.1,637.576 C262.126,632.009 263.639,625.61 263.639,618.381 C263.639,617.339 264.097,616.819 265.014,616.819 C265.212,616.819 265.521,616.884 265.943,617.014 C266.365,617.144 267.277,617.355 268.678,617.647 C270.079,617.938 271.527,618.084 273.021,618.084"/>
<path class="Rest" d="M1486.07,616.733 L1450.52,616.733 C1449.87,616.733 1449.54,616.405 1449.54,615.748 L1449.54,602.076 C1449.54,601.431 1449.87,601.108 1450.52,601.108 L1486.07,601.108 C1486.72,601.108 1487.04,601.431 1487.04,602.076 L1487.04,615.748 C1487.04,616.405 1486.72,616.733 1486.07,616.733"/>
<path class="Rest" d="M2731.44,616.733 L2695.9,616.733 C2695.24,616.733 2694.91,616.405 2694.91,615.748 L2694.91,602.076 C2694.91,601.431 2695.24,601.108 2695.9,601.108 L2731.44,601.108 C2732.09,601.108 2732.41,601.431 2732.41,602.076 L2732.41,615.748 C2732.41,616.405 2732.09,616.733 2731.44,616.733"/>
</svg>
