<?xml version="1.0" encoding="UTF-8" standalone="no"?>
<svg width="2977.2px" height="4208.4px" viewBox="0 0 2977.2 4208.4"
 xmlns="http://www.w3.org/2000/svg" xmlns:xlink="http://www.w3.org/1999/xlink" version="1.2" baseProfile="tiny">
<title>Eb_Min_7b_5.mscx</title>
<desc>Generated by MuseScore Studio 4.3.1</desc>
<path class="" fill="#ffffff" fill-rule="evenodd" d="M0,0 L2977.2,0 L2977.2,4208.4 L0,4208.4 L0,0 "/>
<polyline class="StaffLines" fill="none" stroke="#000000" stroke-width="2.00" stroke-linejoin="bevel" points="141.732,566.733 2835.47,566.733"/>
<polyline class="StaffLines" fill="none" stroke="#000000" stroke-width="2.00" stroke-linejoin="bevel" points="141.732,591.733 2835.47,591.733"/>
<polyline class="StaffLines" fill="none" stroke="#000000" stroke-width="2.00" stroke-linejoin="bevel" points="141.732,616.733 2835.47,616.733"/>
<polyline class="StaffLines" fill="none" stroke="#000000" stroke-width="2.00" stroke-linejoin="bevel" points="141.732,641.733 2835.47,641.733"/>
<polyline class="StaffLines" fill="none" stroke="#000000" stroke-width="2.00" stroke-linejoin="bevel" points="141.732,666.733 2835.47,666.733"/>
<polyline class="BarLine" fill="none" stroke="#000000" stroke-width="4.00" stroke-linejoin="bevel" points="2351.11,565.733 2351.11,667.733"/>
<polyline class="BarLine" fill="none" stroke="#000000" stroke-width="4.00" stroke-linejoin="bevel" points="1560.3,565.733 1560.3,667.733"/>
<polyline class="BarLine" fill="none" stroke="#000000" stroke-width="4.00" stroke-linejoin="bevel" points="2802.72,565.733 2802.72,667.733"/>
<polyline class="BarLine" fill="none" stroke="#000000" stroke-width="12.50" stroke-linejoin="bevel" points="2829.22,565.733 2829.22,667.733"/>
<polyline class="BarLine" fill="none" stroke="#000000" stroke-width="4.00" stroke-linejoin="bevel" points="1108.69,565.733 1108.69,667.733"/>
<path class="Accidental" d="M328.764,684.311 L327.498,622.201 C327.498,621.222 328.264,620.733 329.795,620.733 C331.326,620.733 332.092,621.222 332.092,622.201 L331.311,656.092 C333.071,654.332 334.584,653.11 335.85,652.428 C337.115,651.746 338.839,651.405 341.022,651.405 C343.204,651.405 345.222,652.412 347.076,654.428 C348.93,656.444 349.857,658.951 349.857,661.951 C349.857,666.441 345.139,672.66 335.701,680.608 C332.191,683.795 330.368,685.389 330.232,685.389 L329.654,685.389 C329.061,685.389 328.764,685.03 328.764,684.311 M331.217,659.217 L330.92,681.389 C332.941,679.493 334.993,676.347 337.076,671.951 C339.16,667.556 340.201,663.795 340.201,660.67 C340.201,659.108 339.941,657.675 339.42,656.373 C338.899,655.071 338.084,654.42 336.975,654.42 C335.865,654.42 334.87,654.811 333.99,655.592 C333.11,656.373 332.186,657.582 331.217,659.217"/>
<path class="Accidental" d="M516.589,659.311 L515.323,597.201 C515.323,596.222 516.089,595.733 517.62,595.733 C519.151,595.733 519.917,596.222 519.917,597.201 L519.136,631.092 C520.896,629.332 522.409,628.11 523.675,627.428 C524.94,626.746 526.664,626.405 528.847,626.405 C531.029,626.405 533.047,627.412 534.901,629.428 C536.756,631.444 537.683,633.951 537.683,636.951 C537.683,641.441 532.964,647.66 523.526,655.608 C520.016,658.795 518.193,660.389 518.058,660.389 L517.479,660.389 C516.886,660.389 516.589,660.03 516.589,659.311 M519.042,634.217 L518.745,656.389 C520.766,654.493 522.818,651.347 524.901,646.951 C526.985,642.556 528.026,638.795 528.026,635.67 C528.026,634.108 527.766,632.675 527.245,631.373 C526.724,630.071 525.909,629.42 524.8,629.42 C523.69,629.42 522.696,629.811 521.815,630.592 C520.935,631.373 520.011,632.582 519.042,634.217"/>
<path class="Accidental" d="M2134.66,684.311 L2133.4,622.201 C2133.4,621.222 2134.16,620.733 2135.69,620.733 C2137.22,620.733 2137.99,621.222 2137.99,622.201 L2137.21,656.092 C2138.97,654.332 2140.48,653.11 2141.75,652.428 C2143.01,651.746 2144.74,651.405 2146.92,651.405 C2149.1,651.405 2151.12,652.412 2152.97,654.428 C2154.83,656.444 2155.76,658.951 2155.76,661.951 C2155.76,666.441 2151.04,672.66 2141.6,680.608 C2138.09,683.795 2136.27,685.389 2136.13,685.389 L2135.55,685.389 C2134.96,685.389 2134.66,685.03 2134.66,684.311 M2137.11,659.217 L2136.82,681.389 C2138.84,679.493 2140.89,676.347 2142.97,671.951 C2145.06,667.556 2146.1,663.795 2146.1,660.67 C2146.1,659.108 2145.84,657.675 2145.32,656.373 C2144.8,655.071 2143.98,654.42 2142.87,654.42 C2141.76,654.42 2140.77,654.811 2139.89,655.592 C2139.01,656.373 2138.08,657.582 2137.11,659.217"/>
<path class="Accidental" d="M1946.84,659.311 L1945.57,597.201 C1945.57,596.222 1946.34,595.733 1947.87,595.733 C1949.4,595.733 1950.16,596.222 1950.16,597.201 L1949.38,631.092 C1951.14,629.332 1952.66,628.11 1953.92,627.428 C1955.19,626.746 1956.91,626.405 1959.09,626.405 C1961.28,626.405 1963.29,627.412 1965.15,629.428 C1967,631.444 1967.93,633.951 1967.93,636.951 C1967.93,641.441 1963.21,647.66 1953.77,655.608 C1950.26,658.795 1948.44,660.389 1948.31,660.389 L1947.73,660.389 C1947.13,660.389 1946.84,660.03 1946.84,659.311 M1949.29,634.217 L1948.99,656.389 C1951.01,654.493 1953.07,651.347 1955.15,646.951 C1957.23,642.556 1958.27,638.795 1958.27,635.67 C1958.27,634.108 1958.01,632.675 1957.49,631.373 C1956.97,630.071 1956.16,629.42 1955.05,629.42 C1953.94,629.42 1952.94,629.811 1952.06,630.592 C1951.18,631.373 1950.26,632.582 1949.29,634.217"/>
<path class="Accidental" d="M892.239,609.311 L890.973,547.201 C890.973,546.222 891.739,545.733 893.27,545.733 C894.802,545.733 895.567,546.222 895.567,547.201 L894.786,581.092 C896.546,579.332 898.059,578.11 899.325,577.428 C900.591,576.746 902.315,576.405 904.497,576.405 C906.679,576.405 908.697,577.412 910.552,579.428 C912.406,581.444 913.333,583.951 913.333,586.951 C913.333,591.441 908.614,597.66 899.177,605.608 C895.666,608.795 893.843,610.389 893.708,610.389 L893.13,610.389 C892.536,610.389 892.239,610.03 892.239,609.311 M894.692,584.217 L894.395,606.389 C896.416,604.493 898.468,601.347 900.552,596.951 C902.635,592.556 903.677,588.795 903.677,585.67 C903.677,584.108 903.416,582.675 902.895,581.373 C902.374,580.071 901.559,579.42 900.45,579.42 C899.341,579.42 898.346,579.811 897.466,580.592 C896.585,581.373 895.661,582.582 894.692,584.217"/>
<path class="Accidental" d="M1571.19,609.311 L1569.92,547.201 C1569.92,546.222 1570.69,545.733 1572.22,545.733 C1573.75,545.733 1574.51,546.222 1574.51,547.201 L1573.73,581.092 C1575.49,579.332 1577.01,578.11 1578.27,577.428 C1579.54,576.746 1581.26,576.405 1583.44,576.405 C1585.63,576.405 1587.64,577.412 1589.5,579.428 C1591.35,581.444 1592.28,583.951 1592.28,586.951 C1592.28,591.441 1587.56,597.66 1578.12,605.608 C1574.61,608.795 1572.79,610.389 1572.66,610.389 L1572.08,610.389 C1571.48,610.389 1571.19,610.03 1571.19,609.311 M1573.64,584.217 L1573.34,606.389 C1575.36,604.493 1577.42,601.347 1579.5,596.951 C1581.58,592.556 1582.62,588.795 1582.62,585.67 C1582.62,584.108 1582.36,582.675 1581.84,581.373 C1581.32,580.071 1580.51,579.42 1579.4,579.42 C1578.29,579.42 1577.29,579.811 1576.41,580.592 C1575.53,581.373 1574.61,582.582 1573.64,584.217"/>
<polyline class="Stem" fill="none" stroke="#000000" stroke-width="3.25" stroke-linejoin="bevel" points="574.503,635.863 574.503,554.233"/>
<polyline class="Stem" fill="none" stroke="#000000" stroke-width="3.25" stroke-linejoin="bevel" points="2192.58,660.863 2192.58,579.233"/>
<polyline class="Stem" fill="none" stroke="#000000" stroke-width="3.25" stroke-linejoin="bevel" points="2004.75,635.863 2004.75,554.233"/>
<polyline class="Stem" fill="none" stroke="#000000" stroke-width="3.25" stroke-linejoin="bevel" points="1816.93,623.363 1816.93,547.983"/>
<polyline class="Stem" fill="none" stroke="#000000" stroke-width="3.25" stroke-linejoin="bevel" points="1599.44,597.602 1599.44,679.233"/>
<polyline class="Stem" fill="none" stroke="#000000" stroke-width="3.25" stroke-linejoin="bevel" points="386.678,660.863 386.678,579.233"/>
<polyline class="Stem" fill="none" stroke="#000000" stroke-width="3.25" stroke-linejoin="bevel" points="920.489,597.602 920.489,679.233"/>
<polyline class="Stem" fill="none" stroke="#000000" stroke-width="3.25" stroke-linejoin="bevel" points="762.328,623.363 762.328,547.983"/>
<path class="Note" d="M1619.78,577.967 C1622.91,577.967 1625.51,578.748 1627.59,580.311 C1629.68,581.873 1630.72,584.118 1630.72,587.045 C1630.72,591.535 1628.39,595.733 1623.74,599.639 C1619.09,603.545 1614.09,605.498 1608.75,605.498 C1605.62,605.498 1602.99,604.686 1600.84,603.061 C1598.82,601.3 1597.81,599.087 1597.81,596.42 C1597.81,592.056 1600.12,587.889 1604.75,583.92 C1609.37,579.951 1614.38,577.967 1619.78,577.967"/>
<path class="Note" d="M377.357,652.967 C380.482,652.967 383.087,653.748 385.17,655.311 C387.253,656.873 388.295,659.118 388.295,662.045 C388.295,666.535 385.969,670.733 381.318,674.639 C376.667,678.545 371.67,680.498 366.326,680.498 C363.201,680.498 360.566,679.686 358.42,678.061 C356.399,676.3 355.389,674.087 355.389,671.42 C355.389,667.056 357.701,662.889 362.326,658.92 C366.951,654.951 371.962,652.967 377.357,652.967"/>
<path class="Note" d="M1807.61,615.467 C1810.73,615.467 1813.33,616.248 1815.42,617.811 C1817.5,619.373 1818.54,621.618 1818.54,624.545 C1818.54,629.035 1816.22,633.233 1811.57,637.139 C1806.92,641.045 1801.92,642.998 1796.57,642.998 C1793.45,642.998 1790.81,642.186 1788.67,640.561 C1786.65,638.8 1785.64,636.587 1785.64,633.92 C1785.64,629.556 1787.95,625.389 1792.57,621.42 C1797.2,617.451 1802.21,615.467 1807.61,615.467"/>
<path class="Note" d="M940.833,577.967 C943.958,577.967 946.562,578.748 948.645,580.311 C950.729,581.873 951.77,584.118 951.77,587.045 C951.77,591.535 949.445,595.733 944.794,599.639 C940.143,603.545 935.145,605.498 929.802,605.498 C926.677,605.498 924.041,604.686 921.895,603.061 C919.874,601.3 918.864,599.087 918.864,596.42 C918.864,592.056 921.177,587.889 925.802,583.92 C930.427,579.951 935.437,577.967 940.833,577.967"/>
<path class="Note" d="M1995.43,627.967 C1998.56,627.967 2001.16,628.748 2003.24,630.311 C2005.33,631.873 2006.37,634.118 2006.37,637.045 C2006.37,641.535 2004.04,645.733 1999.39,649.639 C1994.74,653.545 1989.74,655.498 1984.4,655.498 C1981.27,655.498 1978.64,654.686 1976.49,653.061 C1974.47,651.3 1973.46,649.087 1973.46,646.42 C1973.46,642.056 1975.77,637.889 1980.4,633.92 C1985.02,629.951 1990.03,627.967 1995.43,627.967"/>
<path class="Note" d="M753.008,615.467 C756.133,615.467 758.737,616.248 760.82,617.811 C762.904,619.373 763.945,621.618 763.945,624.545 C763.945,629.035 761.62,633.233 756.969,637.139 C752.318,641.045 747.32,642.998 741.976,642.998 C738.851,642.998 736.216,642.186 734.07,640.561 C732.049,638.8 731.039,636.587 731.039,633.92 C731.039,629.556 733.351,625.389 737.976,621.42 C742.601,617.451 747.612,615.467 753.008,615.467"/>
<path class="Note" d="M2183.26,652.967 C2186.38,652.967 2188.98,653.748 2191.07,655.311 C2193.15,656.873 2194.19,659.118 2194.19,662.045 C2194.19,666.535 2191.87,670.733 2187.22,674.639 C2182.57,678.545 2177.57,680.498 2172.22,680.498 C2169.1,680.498 2166.46,679.686 2164.32,678.061 C2162.3,676.3 2161.29,674.087 2161.29,671.42 C2161.29,667.056 2163.6,662.889 2168.22,658.92 C2172.85,654.951 2177.86,652.967 2183.26,652.967"/>
<path class="Note" d="M565.183,627.967 C568.308,627.967 570.912,628.748 572.995,630.311 C575.078,631.873 576.12,634.118 576.12,637.045 C576.12,641.535 573.795,645.733 569.144,649.639 C564.493,653.545 559.495,655.498 554.151,655.498 C551.026,655.498 548.391,654.686 546.245,653.061 C544.224,651.3 543.214,649.087 543.214,646.42 C543.214,642.056 545.526,637.889 550.151,633.92 C554.776,629.951 559.787,627.967 565.183,627.967"/>
<path class="Clef" d="M203.623,673.858 L203.623,671.717 C203.56,670.613 203.399,668.889 203.139,666.545 C199.889,667.066 196.993,667.326 194.451,667.326 C185.337,667.326 177.605,663.727 171.256,656.53 C164.907,649.332 161.732,640.754 161.732,630.795 C161.732,628.129 162.253,624.923 163.295,621.178 C164.337,617.433 165.297,614.925 166.178,613.655 C167.058,612.384 168.378,610.155 170.139,606.967 C170.659,605.988 172.352,603.837 175.217,600.514 C175.738,599.806 176.193,599.222 176.584,598.764 C176.975,598.306 177.607,597.49 178.482,596.319 C179.357,595.147 180.3,594.056 181.31,593.045 C182.321,592.035 183.217,591.058 183.998,590.115 C184.779,589.173 185.498,588.379 186.154,587.733 C183.81,579.983 182.378,574.024 181.857,569.858 C181.337,565.691 181.076,560.579 181.076,554.522 C181.076,548.464 182.378,542.962 184.982,538.014 C187.514,532.879 191.06,528.681 195.623,525.42 C195.883,525.222 196.225,525.123 196.646,525.123 C197.068,525.123 197.378,525.222 197.576,525.42 C201.087,529.649 204.128,535.149 206.701,541.92 C209.274,548.691 210.56,555.024 210.56,560.92 C210.56,566.816 209.066,572.498 206.076,577.967 C202.691,583.759 198.326,589.748 192.982,595.936 C194.347,600.227 196.17,606.962 198.451,616.139 L199.045,616.139 C199.305,616.076 199.529,616.045 199.717,616.045 C207.081,616.045 213.089,618.634 217.74,623.811 C222.391,628.988 224.717,634.962 224.717,641.733 C224.717,650.129 221.238,656.899 214.279,662.045 C212.258,663.545 209.878,664.717 207.139,665.561 C207.472,669.79 207.639,672.605 207.639,674.006 C207.639,675.407 207.571,677.899 207.435,681.483 C207.373,687.597 205.29,692.837 201.185,697.201 C197.081,701.566 192.394,703.748 187.123,703.748 C181.852,703.748 177.36,701.876 173.646,698.131 C169.933,694.386 168.076,689.847 168.076,684.514 C168.076,681.712 169.154,679.332 171.31,677.373 C173.519,675.425 176.006,674.451 178.771,674.451 C181.537,674.451 183.8,675.462 185.56,677.483 C187.383,679.368 188.295,681.644 188.295,684.311 C188.295,686.977 187.383,689.222 185.56,691.045 C183.738,692.868 181.555,693.78 179.014,693.78 C177.972,693.78 176.967,693.587 175.998,693.201 C178.863,697.431 182.54,699.545 187.029,699.545 C191.519,699.545 195.36,697.691 198.553,693.983 C201.745,690.274 203.342,685.91 203.342,680.889 L203.623,673.858 M206.748,661.561 C210.133,660.321 212.821,658.123 214.81,654.967 C216.8,651.811 217.795,648.67 217.795,645.545 C217.795,640.92 216.199,636.785 213.006,633.139 C209.813,629.493 205.774,627.441 200.889,626.983 C203.691,640.722 205.644,652.248 206.748,661.561 M168.967,638.998 C168.967,645.446 171.537,651.079 176.678,655.897 C181.818,660.714 187.842,663.123 194.748,663.123 C197.477,663.123 200.144,662.925 202.748,662.53 C201.706,652.634 199.654,640.785 196.592,626.983 C192.758,627.379 189.782,628.699 187.662,630.944 C185.542,633.188 184.482,635.743 184.482,638.608 C184.482,643.556 187.123,647.561 192.404,650.623 C192.852,650.884 193.076,651.324 193.076,651.944 C193.076,652.563 192.865,653.1 192.443,653.553 C192.021,654.006 191.649,654.233 191.326,654.233 C191.003,654.233 190.581,654.17 190.06,654.045 C182.435,649.879 178.623,643.592 178.623,635.186 C178.623,631.217 180.024,627.41 182.826,623.764 C185.753,620.118 189.56,617.774 194.248,616.733 C192.425,609.441 190.93,603.743 189.764,599.639 C180.847,609.67 175.31,617.092 173.154,621.905 C170.363,628.155 168.967,633.852 168.967,638.998 M201.576,539.686 C196.691,542.092 192.834,545.574 190.006,550.131 C187.178,554.688 185.764,559.472 185.764,564.483 C185.764,569.493 186.935,575.972 189.279,583.92 C193.967,578.254 197.514,572.946 199.92,567.998 C202.326,563.05 203.529,558.152 203.529,553.303 C203.529,548.454 202.878,543.915 201.576,539.686"/>
<path class="TimeSig" d="M273.021,567.912 C274.516,567.912 275.949,567.686 277.318,567.233 C278.688,566.78 279.665,566.553 280.248,566.553 C280.831,566.553 281.222,566.907 281.42,567.615 C281.42,567.688 281.352,567.886 281.217,568.209 L252.811,601.225 L269.498,601.225 L269.498,588.131 C269.498,586.506 270.446,585.334 272.342,584.615 C274.29,583.897 276.503,581.001 278.982,575.928 C279.17,575.532 279.462,575.334 279.857,575.334 C280.639,575.334 281.092,575.793 281.217,576.709 L281.217,601.225 L288.357,601.225 C289.264,601.225 289.751,601.712 289.818,602.686 C289.886,603.66 289.399,604.147 288.357,604.147 L281.217,604.147 L281.217,604.928 C281.217,607.532 281.868,609.746 283.17,611.569 C284.67,613.391 286.43,614.303 288.451,614.303 C289.232,614.303 289.623,614.694 289.623,615.475 C289.623,616.256 289.087,616.647 288.014,616.647 C286.941,616.647 284.938,616.436 282.006,616.014 C279.074,615.592 276.811,615.381 275.217,615.381 C273.623,615.381 271.41,615.592 268.576,616.014 C265.743,616.436 263.613,616.647 262.186,616.647 C261.404,616.647 261.014,616.256 261.014,615.475 C261.014,614.694 261.404,614.303 262.186,614.303 C264.196,614.303 265.951,613.391 267.451,611.569 C268.816,609.683 269.498,607.47 269.498,604.928 L269.498,604.147 L252.811,604.147 C251.956,604.147 251.219,603.92 250.6,603.467 C249.98,603.014 249.67,602.592 249.67,602.201 C249.67,601.811 250.485,600.639 252.115,598.686 C253.745,596.733 256.074,592.972 259.1,587.405 C262.126,581.837 263.639,575.438 263.639,568.209 C263.639,567.168 264.097,566.647 265.014,566.647 C265.212,566.647 265.521,566.712 265.943,566.842 C266.365,566.972 267.277,567.183 268.678,567.475 C270.079,567.766 271.527,567.912 273.021,567.912"/>
<path class="TimeSig" d="M273.021,618.084 C274.516,618.084 275.949,617.858 277.318,617.405 C278.688,616.951 279.665,616.725 280.248,616.725 C280.831,616.725 281.222,617.079 281.42,617.787 C281.42,617.86 281.352,618.058 281.217,618.381 L252.811,651.397 L269.498,651.397 L269.498,638.303 C269.498,636.678 270.446,635.506 272.342,634.787 C274.29,634.069 276.503,631.173 278.982,626.1 C279.17,625.704 279.462,625.506 279.857,625.506 C280.639,625.506 281.092,625.964 281.217,626.881 L281.217,651.397 L288.357,651.397 C289.264,651.397 289.751,651.884 289.818,652.858 C289.886,653.832 289.399,654.319 288.357,654.319 L281.217,654.319 L281.217,655.1 C281.217,657.704 281.868,659.918 283.17,661.74 C284.67,663.563 286.43,664.475 288.451,664.475 C289.232,664.475 289.623,664.865 289.623,665.647 C289.623,666.428 289.087,666.819 288.014,666.819 C286.941,666.819 284.938,666.608 282.006,666.186 C279.074,665.764 276.811,665.553 275.217,665.553 C273.623,665.553 271.41,665.764 268.576,666.186 C265.743,666.608 263.613,666.819 262.186,666.819 C261.404,666.819 261.014,666.428 261.014,665.647 C261.014,664.865 261.404,664.475 262.186,664.475 C264.196,664.475 265.951,663.563 267.451,661.74 C268.816,659.855 269.498,657.642 269.498,655.1 L269.498,654.319 L252.811,654.319 C251.956,654.319 251.219,654.092 250.6,653.639 C249.98,653.186 249.67,652.764 249.67,652.373 C249.67,651.983 250.485,650.811 252.115,648.858 C253.745,646.905 256.074,643.144 259.1,637.576 C262.126,632.009 263.639,625.61 263.639,618.381 C263.639,617.339 264.097,616.819 265.014,616.819 C265.212,616.819 265.521,616.884 265.943,617.014 C266.365,617.144 267.277,617.355 268.678,617.647 C270.079,617.938 271.527,618.084 273.021,618.084"/>
<path class="Rest" d="M1352.27,607.358 L1316.73,607.358 C1316.07,607.358 1315.74,607.035 1315.74,606.389 L1315.74,592.717 C1315.74,592.061 1316.07,591.733 1316.73,591.733 L1352.27,591.733 C1352.92,591.733 1353.24,592.061 1353.24,592.717 L1353.24,606.389 C1353.24,607.035 1352.92,607.358 1352.27,607.358"/>
<path class="Rest" d="M2594.7,607.358 L2559.15,607.358 C2558.49,607.358 2558.17,607.035 2558.17,606.389 L2558.17,592.717 C2558.17,592.061 2558.49,591.733 2559.15,591.733 L2594.7,591.733 C2595.34,591.733 2595.67,592.061 2595.67,592.717 L2595.67,606.389 C2595.67,607.035 2595.34,607.358 2594.7,607.358"/>
</svg>
