<?xml version="1.0" encoding="UTF-8" standalone="no"?>
<svg width="2977.2px" height="4208.4px" viewBox="0 0 2977.2 4208.4"
 xmlns="http://www.w3.org/2000/svg" xmlns:xlink="http://www.w3.org/1999/xlink" version="1.2" baseProfile="tiny">
<title>London_Bridge_Is_Falling_Down.mscx</title>
<desc>Generated by MuseScore Studio 4.3.1</desc>
<path class="" fill="#ffffff" fill-rule="evenodd" d="M0,0 L2977.2,0 L2977.2,4208.4 L0,4208.4 L0,0 "/>
<polyline class="StaffLines" fill="none" stroke="#000000" stroke-width="2.00" stroke-linejoin="bevel" points="141.732,316.732 2835.47,316.732"/>
<polyline class="StaffLines" fill="none" stroke="#000000" stroke-width="2.00" stroke-linejoin="bevel" points="141.732,341.732 2835.47,341.732"/>
<polyline class="StaffLines" fill="none" stroke="#000000" stroke-width="2.00" stroke-linejoin="bevel" points="141.732,366.733 2835.47,366.733"/>
<polyline class="StaffLines" fill="none" stroke="#000000" stroke-width="2.00" stroke-linejoin="bevel" points="141.732,391.733 2835.47,391.733"/>
<polyline class="StaffLines" fill="none" stroke="#000000" stroke-width="2.00" stroke-linejoin="bevel" points="141.732,416.733 2835.47,416.733"/>
<polyline class="StaffLines" fill="none" stroke="#000000" stroke-width="2.00" stroke-linejoin="bevel" points="141.732,791.733 2835.47,791.733"/>
<polyline class="StaffLines" fill="none" stroke="#000000" stroke-width="2.00" stroke-linejoin="bevel" points="141.732,816.733 2835.47,816.733"/>
<polyline class="StaffLines" fill="none" stroke="#000000" stroke-width="2.00" stroke-linejoin="bevel" points="141.732,841.733 2835.47,841.733"/>
<polyline class="StaffLines" fill="none" stroke="#000000" stroke-width="2.00" stroke-linejoin="bevel" points="141.732,866.733 2835.47,866.733"/>
<polyline class="StaffLines" fill="none" stroke="#000000" stroke-width="2.00" stroke-linejoin="bevel" points="141.732,891.733 2835.47,891.733"/>
<path class="MeasureNumber" d="M146.514,733.873 C146.514,732.446 146.199,731.181 145.568,730.076 C144.938,728.972 144.178,728.118 143.287,727.514 C142.396,726.91 141.399,726.412 140.295,726.022 C139.191,725.631 138.23,725.376 137.412,725.256 C136.594,725.136 135.883,725.076 135.279,725.076 C134.956,725.076 134.795,724.967 134.795,724.748 C134.795,724.675 134.805,724.613 134.826,724.561 L139.185,715.264 L147.545,715.264 C147.972,715.264 148.313,715.196 148.568,715.061 C148.824,714.925 149.097,714.644 149.389,714.217 L149.748,714.498 L148.232,717.842 C148.128,718.061 147.821,718.17 147.31,718.17 L139.467,718.17 L137.795,721.608 C141.68,722.306 144.571,723.441 146.467,725.014 C148.363,726.587 149.31,728.894 149.31,731.936 C149.31,733.53 149.063,734.946 148.568,736.186 C148.074,737.425 147.446,738.423 146.685,739.178 C145.925,739.933 145.045,740.553 144.045,741.037 C143.045,741.522 142.087,741.853 141.17,742.03 C140.253,742.207 139.326,742.295 138.389,742.295 C136.899,742.295 135.714,742.074 134.834,741.631 C133.954,741.188 133.514,740.582 133.514,739.811 C133.514,738.821 134.087,738.326 135.232,738.326 C135.982,738.326 136.949,738.735 138.131,739.553 C139.313,740.371 140.253,740.78 140.951,740.78 C142.524,740.78 143.844,740.113 144.912,738.78 C145.98,737.446 146.514,735.811 146.514,733.873"/>
<polyline class="BarLine" fill="none" stroke="#000000" stroke-width="4.00" stroke-linejoin="bevel" points="2833.47,315.732 2833.47,417.733"/>
<polyline class="BarLine" fill="none" stroke="#000000" stroke-width="4.00" stroke-linejoin="bevel" points="990.29,315.732 990.29,417.733"/>
<polyline class="BarLine" fill="none" stroke="#000000" stroke-width="4.00" stroke-linejoin="bevel" points="1604.68,315.732 1604.68,417.733"/>
<polyline class="BarLine" fill="none" stroke="#000000" stroke-width="4.00" stroke-linejoin="bevel" points="2219.08,315.732 2219.08,417.733"/>
<polyline class="BarLine" fill="none" stroke="#000000" stroke-width="4.00" stroke-linejoin="bevel" points="2244.74,790.733 2244.74,892.733"/>
<polyline class="BarLine" fill="none" stroke="#000000" stroke-width="4.00" stroke-linejoin="bevel" points="1666.91,790.733 1666.91,892.733"/>
<polyline class="BarLine" fill="none" stroke="#000000" stroke-width="4.00" stroke-linejoin="bevel" points="998.439,790.733 998.439,892.733"/>
<polyline class="BarLine" fill="none" stroke="#000000" stroke-width="4.00" stroke-linejoin="bevel" points="2804.72,790.733 2804.72,892.733"/>
<polyline class="BarLine" fill="none" stroke="#000000" stroke-width="12.50" stroke-linejoin="bevel" points="2829.22,790.733 2829.22,892.733"/>
<polyline class="LedgerLine" fill="none" stroke="#000000" stroke-width="4.00" stroke-linejoin="bevel" points="536.587,291.732 588.501,291.732"/>
<polyline class="LedgerLine" fill="none" stroke="#000000" stroke-width="4.00" stroke-linejoin="bevel" points="503.533,766.733 555.447,766.733"/>
<polyline class="Stem" fill="none" stroke="#000000" stroke-width="3.25" stroke-linejoin="bevel" points="1700.53,822.602 1700.53,904.233"/>
<polyline class="Stem" fill="none" stroke="#000000" stroke-width="3.25" stroke-linejoin="bevel" points="2252.7,335.102 2252.7,397.922"/>
<polyline class="Stem" fill="none" stroke="#000000" stroke-width="3.25" stroke-linejoin="bevel" points="2418.53,322.602 2418.53,391.793"/>
<polyline class="Stem" fill="none" stroke="#000000" stroke-width="3.25" stroke-linejoin="bevel" points="2584.35,310.102 2584.35,391.733"/>
<polyline class="Stem" fill="none" stroke="#000000" stroke-width="3.25" stroke-linejoin="bevel" points="547.712,297.602 547.712,385.53"/>
<polyline class="Stem" fill="none" stroke="#000000" stroke-width="3.25" stroke-linejoin="bevel" points="2459.64,835.102 2459.64,910.483"/>
<polyline class="Stem" fill="none" stroke="#000000" stroke-width="3.25" stroke-linejoin="bevel" points="1972.45,785.102 1972.45,866.733"/>
<polyline class="Stem" fill="none" stroke="#000000" stroke-width="3.25" stroke-linejoin="bevel" points="284.857,785.102 284.857,866.689"/>
<polyline class="Stem" fill="none" stroke="#000000" stroke-width="3.25" stroke-linejoin="bevel" points="1023.92,335.102 1023.92,397.922"/>
<polyline class="Stem" fill="none" stroke="#000000" stroke-width="3.25" stroke-linejoin="bevel" points="514.658,772.602 514.658,860.526"/>
<polyline class="Stem" fill="none" stroke="#000000" stroke-width="3.25" stroke-linejoin="bevel" points="635.509,785.102 635.509,860.538"/>
<polyline class="Stem" fill="none" stroke="#000000" stroke-width="3.25" stroke-linejoin="bevel" points="337.498,310.102 337.498,391.685"/>
<polyline class="Stem" fill="none" stroke="#000000" stroke-width="3.25" stroke-linejoin="bevel" points="816.786,797.602 816.786,866.678"/>
<polyline class="Stem" fill="none" stroke="#000000" stroke-width="3.25" stroke-linejoin="bevel" points="1032.06,810.102 1032.06,872.928"/>
<polyline class="Stem" fill="none" stroke="#000000" stroke-width="3.25" stroke-linejoin="bevel" points="1213.34,797.602 1213.34,866.788"/>
<polyline class="Stem" fill="none" stroke="#000000" stroke-width="3.25" stroke-linejoin="bevel" points="1394.62,785.102 1394.62,866.733"/>
<polyline class="Stem" fill="none" stroke="#000000" stroke-width="3.25" stroke-linejoin="bevel" points="658.263,310.102 658.263,385.543"/>
<polyline class="Stem" fill="none" stroke="#000000" stroke-width="3.25" stroke-linejoin="bevel" points="824.089,322.602 824.089,391.672"/>
<polyline class="Stem" fill="none" stroke="#000000" stroke-width="3.25" stroke-linejoin="bevel" points="1355.57,310.102 1355.57,391.733"/>
<polyline class="Stem" fill="none" stroke="#000000" stroke-width="3.25" stroke-linejoin="bevel" points="1969.96,322.602 1969.96,404.233"/>
<polyline class="Stem" fill="none" stroke="#000000" stroke-width="3.25" stroke-linejoin="bevel" points="2278.37,810.102 2278.37,892.333"/>
<polyline class="Stem" fill="none" stroke="#000000" stroke-width="3.25" stroke-linejoin="bevel" points="1804.13,335.102 1804.13,410.543"/>
<polyline class="Stem" fill="none" stroke="#000000" stroke-width="3.25" stroke-linejoin="bevel" points="1638.31,347.602 1638.31,416.672"/>
<polyline class="Stem" fill="none" stroke="#000000" stroke-width="3.25" stroke-linejoin="bevel" points="1189.74,322.602 1189.74,391.793"/>
<path class="Hook" d="M2299.49,819.373 C2300.99,819.373 2302.57,821.798 2304.23,826.647 C2305.89,831.496 2306.73,835.939 2306.73,839.975 C2306.73,844.011 2305.8,847.918 2303.94,851.694 C2302.09,855.47 2299.86,858.79 2297.26,861.655 L2289.24,870.639 C2286.77,873.504 2284.59,876.79 2282.7,880.498 C2280.81,884.207 2279.87,887.952 2279.87,891.733 L2276.74,891.733 L2276.74,866.733 L2279.87,866.733 C2290.8,859.827 2297.67,853.707 2300.48,848.373 C2301.84,845.769 2302.52,843.134 2302.52,840.467 C2302.52,834.28 2300.73,828.123 2297.15,821.998 L2297.15,821.608 C2297.15,821.024 2297.38,820.506 2297.83,820.053 C2298.29,819.6 2298.85,819.373 2299.49,819.373"/>
<path class="Note" d="M535.001,752.967 C538.126,752.967 540.73,753.748 542.814,755.311 C544.897,756.873 545.939,759.118 545.939,762.045 C545.939,766.535 543.613,770.733 538.962,774.639 C534.311,778.545 529.314,780.498 523.97,780.498 C520.845,780.498 518.21,779.686 516.064,778.061 C514.043,776.3 513.033,774.087 513.033,771.42 C513.033,767.056 515.345,762.889 519.97,758.92 C524.595,754.952 529.605,752.967 535.001,752.967"/>
<path class="Note" d="M844.433,302.967 C847.558,302.967 850.162,303.748 852.245,305.311 C854.329,306.873 855.37,309.118 855.37,312.045 C855.37,316.535 853.045,320.732 848.394,324.639 C843.743,328.545 838.745,330.498 833.402,330.498 C830.277,330.498 827.641,329.686 825.495,328.061 C823.474,326.3 822.464,324.087 822.464,321.42 C822.464,317.055 824.777,312.889 829.402,308.92 C834.027,304.951 839.037,302.967 844.433,302.967"/>
<path class="Note" d="M655.853,765.467 C658.978,765.467 661.582,766.248 663.665,767.811 C665.749,769.373 666.79,771.618 666.79,774.545 C666.79,779.035 664.465,783.233 659.814,787.139 C655.163,791.045 650.165,792.998 644.822,792.998 C641.697,792.998 639.061,792.186 636.915,790.561 C634.894,788.8 633.884,786.587 633.884,783.92 C633.884,779.556 636.197,775.389 640.822,771.42 C645.447,767.452 650.457,765.467 655.853,765.467"/>
<path class="Note" d="M1210.09,302.967 C1213.21,302.967 1215.81,303.748 1217.9,305.311 C1219.98,306.873 1221.02,309.118 1221.02,312.045 C1221.02,316.535 1218.7,320.732 1214.05,324.639 C1209.4,328.545 1204.4,330.498 1199.05,330.498 C1195.93,330.498 1193.29,329.686 1191.15,328.061 C1189.13,326.3 1188.12,324.087 1188.12,321.42 C1188.12,317.055 1190.43,312.889 1195.05,308.92 C1199.68,304.951 1204.69,302.967 1210.09,302.967"/>
<path class="Note" d="M837.13,777.967 C840.255,777.967 842.859,778.748 844.943,780.311 C847.026,781.873 848.068,784.118 848.068,787.045 C848.068,791.535 845.742,795.733 841.091,799.639 C836.44,803.545 831.443,805.498 826.099,805.498 C822.974,805.498 820.338,804.686 818.193,803.061 C816.172,801.3 815.161,799.087 815.161,796.42 C815.161,792.056 817.474,787.889 822.099,783.92 C826.724,779.952 831.734,777.967 837.13,777.967"/>
<path class="Note" d="M2479.99,815.467 C2483.11,815.467 2485.72,816.248 2487.8,817.811 C2489.88,819.373 2490.92,821.618 2490.92,824.545 C2490.92,829.035 2488.6,833.233 2483.95,837.139 C2479.3,841.045 2474.3,842.998 2468.96,842.998 C2465.83,842.998 2463.2,842.186 2461.05,840.561 C2459.03,838.801 2458.02,836.587 2458.02,833.92 C2458.02,829.556 2460.33,825.389 2464.96,821.42 C2469.58,817.452 2474.59,815.467 2479.99,815.467"/>
<path class="Note" d="M1052.41,790.467 C1055.53,790.467 1058.14,791.248 1060.22,792.811 C1062.3,794.373 1063.34,796.618 1063.34,799.545 C1063.34,804.035 1061.02,808.233 1056.37,812.139 C1051.72,816.045 1046.72,817.998 1041.38,817.998 C1038.25,817.998 1035.62,817.186 1033.47,815.561 C1031.45,813.8 1030.44,811.587 1030.44,808.92 C1030.44,804.556 1032.75,800.389 1037.38,796.42 C1042,792.452 1047.01,790.467 1052.41,790.467"/>
<path class="Note" d="M1414.96,765.467 C1418.09,765.467 1420.69,766.248 1422.77,767.811 C1424.86,769.373 1425.9,771.618 1425.9,774.545 C1425.9,779.035 1423.57,783.233 1418.92,787.139 C1414.27,791.045 1409.27,792.998 1403.93,792.998 C1400.81,792.998 1398.17,792.186 1396.02,790.561 C1394,788.8 1392.99,786.587 1392.99,783.92 C1392.99,779.556 1395.31,775.389 1399.93,771.42 C1404.56,767.452 1409.57,765.467 1414.96,765.467"/>
<path class="Note" d="M1044.26,315.467 C1047.38,315.467 1049.99,316.248 1052.07,317.811 C1054.16,319.373 1055.2,321.618 1055.2,324.545 C1055.2,329.035 1052.87,333.232 1048.22,337.139 C1043.57,341.045 1038.57,342.998 1033.23,342.998 C1030.1,342.998 1027.47,342.186 1025.32,340.561 C1023.3,338.8 1022.29,336.587 1022.29,333.92 C1022.29,329.555 1024.6,325.389 1029.23,321.42 C1033.85,317.451 1038.86,315.467 1044.26,315.467"/>
<path class="Note" d="M1233.68,777.967 C1236.81,777.967 1239.41,778.748 1241.5,780.311 C1243.58,781.873 1244.62,784.118 1244.62,787.045 C1244.62,791.535 1242.3,795.733 1237.65,799.639 C1232.99,803.545 1228,805.498 1222.65,805.498 C1219.53,805.498 1216.89,804.686 1214.75,803.061 C1212.73,801.3 1211.72,799.087 1211.72,796.42 C1211.72,792.056 1214.03,787.889 1218.65,783.92 C1223.28,779.952 1228.29,777.967 1233.68,777.967"/>
<path class="Note" d="M568.055,277.967 C571.18,277.967 573.785,278.748 575.868,280.311 C577.951,281.873 578.993,284.118 578.993,287.045 C578.993,291.535 576.667,295.732 572.016,299.639 C567.365,303.545 562.368,305.498 557.024,305.498 C553.899,305.498 551.264,304.686 549.118,303.061 C547.097,301.3 546.087,299.087 546.087,296.42 C546.087,292.055 548.399,287.889 553.024,283.92 C557.649,279.951 562.66,277.967 568.055,277.967"/>
<path class="Note" d="M1375.91,290.467 C1379.04,290.467 1381.64,291.248 1383.72,292.811 C1385.81,294.373 1386.85,296.618 1386.85,299.545 C1386.85,304.035 1384.52,308.232 1379.87,312.139 C1375.22,316.045 1370.22,317.998 1364.88,317.998 C1361.76,317.998 1359.12,317.186 1356.97,315.561 C1354.95,313.8 1353.94,311.587 1353.94,308.92 C1353.94,304.555 1356.26,300.389 1360.88,296.42 C1365.51,292.451 1370.52,290.467 1375.91,290.467"/>
<path class="Note" d="M357.842,290.467 C360.967,290.467 363.571,291.248 365.654,292.811 C367.738,294.373 368.779,296.618 368.779,299.545 C368.779,304.035 366.454,308.232 361.803,312.139 C357.152,316.045 352.154,317.998 346.811,317.998 C343.686,317.998 341.05,317.186 338.904,315.561 C336.884,313.8 335.873,311.587 335.873,308.92 C335.873,304.555 338.186,300.389 342.811,296.42 C347.436,292.451 352.446,290.467 357.842,290.467"/>
<path class="Note" d="M305.201,765.467 C308.326,765.467 310.93,766.248 313.014,767.811 C315.097,769.373 316.139,771.618 316.139,774.545 C316.139,779.035 313.813,783.233 309.162,787.139 C304.511,791.045 299.514,792.998 294.17,792.998 C291.045,792.998 288.41,792.186 286.264,790.561 C284.243,788.8 283.232,786.587 283.232,783.92 C283.232,779.556 285.545,775.389 290.17,771.42 C294.795,767.452 299.805,765.467 305.201,765.467"/>
<path class="Note" d="M1720.88,802.967 C1724,802.967 1726.61,803.748 1728.69,805.311 C1730.77,806.873 1731.82,809.118 1731.82,812.045 C1731.82,816.535 1729.49,820.733 1724.84,824.639 C1720.19,828.545 1715.19,830.498 1709.85,830.498 C1706.72,830.498 1704.09,829.686 1701.94,828.061 C1699.92,826.3 1698.91,824.087 1698.91,821.42 C1698.91,817.056 1701.22,812.889 1705.85,808.92 C1710.47,804.952 1715.48,802.967 1720.88,802.967"/>
<path class="Note" d="M1658.65,327.967 C1661.78,327.967 1664.38,328.748 1666.46,330.311 C1668.55,331.873 1669.59,334.118 1669.59,337.045 C1669.59,341.535 1667.26,345.732 1662.61,349.639 C1657.96,353.545 1652.96,355.498 1647.62,355.498 C1644.5,355.498 1641.86,354.686 1639.71,353.061 C1637.69,351.3 1636.68,349.087 1636.68,346.42 C1636.68,342.055 1639,337.889 1643.62,333.92 C1648.25,329.951 1653.26,327.967 1658.65,327.967"/>
<path class="Note" d="M678.606,290.467 C681.731,290.467 684.335,291.248 686.419,292.811 C688.502,294.373 689.544,296.618 689.544,299.545 C689.544,304.035 687.218,308.232 682.567,312.139 C677.916,316.045 672.919,317.998 667.575,317.998 C664.45,317.998 661.815,317.186 659.669,315.561 C657.648,313.8 656.638,311.587 656.638,308.92 C656.638,304.555 658.95,300.389 663.575,296.42 C668.2,292.451 673.21,290.467 678.606,290.467"/>
<path class="Note" d="M2298.71,790.467 C2301.83,790.467 2304.44,791.248 2306.52,792.811 C2308.61,794.373 2309.65,796.618 2309.65,799.545 C2309.65,804.035 2307.32,808.233 2302.67,812.139 C2298.02,816.045 2293.02,817.998 2287.68,817.998 C2284.55,817.998 2281.92,817.186 2279.77,815.561 C2277.75,813.8 2276.74,811.587 2276.74,808.92 C2276.74,804.556 2279.05,800.389 2283.68,796.42 C2288.3,792.452 2293.31,790.467 2298.71,790.467"/>
<path class="Note" d="M2604.7,290.467 C2607.82,290.467 2610.43,291.248 2612.51,292.811 C2614.59,294.373 2615.63,296.618 2615.63,299.545 C2615.63,304.035 2613.31,308.232 2608.66,312.139 C2604.01,316.045 2599.01,317.998 2593.67,317.998 C2590.54,317.998 2587.91,317.186 2585.76,315.561 C2583.74,313.8 2582.73,311.587 2582.73,308.92 C2582.73,304.555 2585.04,300.389 2589.67,296.42 C2594.29,292.451 2599.3,290.467 2604.7,290.467"/>
<path class="Note" d="M1824.48,315.467 C1827.6,315.467 1830.21,316.248 1832.29,317.811 C1834.37,319.373 1835.42,321.618 1835.42,324.545 C1835.42,329.035 1833.09,333.232 1828.44,337.139 C1823.79,341.045 1818.79,342.998 1813.45,342.998 C1810.32,342.998 1807.69,342.186 1805.54,340.561 C1803.52,338.8 1802.51,336.587 1802.51,333.92 C1802.51,329.555 1804.82,325.389 1809.45,321.42 C1814.07,317.451 1819.08,315.467 1824.48,315.467"/>
<path class="Note" d="M2438.87,302.967 C2442,302.967 2444.6,303.748 2446.68,305.311 C2448.77,306.873 2449.81,309.118 2449.81,312.045 C2449.81,316.535 2447.48,320.732 2442.83,324.639 C2438.18,328.545 2433.18,330.498 2427.84,330.498 C2424.71,330.498 2422.08,329.686 2419.93,328.061 C2417.91,326.3 2416.9,324.087 2416.9,321.42 C2416.9,317.055 2419.21,312.889 2423.84,308.92 C2428.46,304.951 2433.48,302.967 2438.87,302.967"/>
<path class="Note" d="M1992.79,765.467 C1995.92,765.467 1998.52,766.248 2000.61,767.811 C2002.69,769.373 2003.73,771.618 2003.73,774.545 C2003.73,779.035 2001.41,783.233 1996.75,787.139 C1992.1,791.045 1987.11,792.998 1981.76,792.998 C1978.64,792.998 1976,792.186 1973.86,790.561 C1971.84,788.8 1970.83,786.587 1970.83,783.92 C1970.83,779.556 1973.14,775.389 1977.76,771.42 C1982.39,767.452 1987.4,765.467 1992.79,765.467"/>
<path class="Note" d="M2273.04,315.467 C2276.17,315.467 2278.77,316.248 2280.86,317.811 C2282.94,319.373 2283.98,321.618 2283.98,324.545 C2283.98,329.035 2281.66,333.232 2277.01,337.139 C2272.35,341.045 2267.36,342.998 2262.01,342.998 C2258.89,342.998 2256.25,342.186 2254.11,340.561 C2252.09,338.8 2251.08,336.587 2251.08,333.92 C2251.08,329.555 2253.39,325.389 2258.01,321.42 C2262.64,317.451 2267.65,315.467 2273.04,315.467"/>
<path class="Note" d="M1990.3,302.967 C1993.43,302.967 1996.03,303.748 1998.12,305.311 C2000.2,306.873 2001.24,309.118 2001.24,312.045 C2001.24,316.535 1998.92,320.732 1994.27,324.639 C1989.61,328.545 1984.62,330.498 1979.27,330.498 C1976.15,330.498 1973.51,329.686 1971.37,328.061 C1969.35,326.3 1968.34,324.087 1968.34,321.42 C1968.34,317.055 1970.65,312.889 1975.27,308.92 C1979.9,304.951 1984.91,302.967 1990.3,302.967"/>
<path class="Clef" d="M199.623,423.858 L199.623,421.717 C199.56,420.613 199.399,418.889 199.139,416.545 C195.889,417.066 192.993,417.326 190.451,417.326 C181.337,417.326 173.605,413.727 167.256,406.529 C160.907,399.331 157.732,390.753 157.732,380.795 C157.732,378.128 158.253,374.923 159.295,371.178 C160.337,367.433 161.297,364.925 162.178,363.654 C163.058,362.384 164.378,360.154 166.139,356.967 C166.659,355.988 168.352,353.837 171.217,350.514 C171.738,349.805 172.193,349.222 172.584,348.764 C172.975,348.305 173.607,347.49 174.482,346.318 C175.357,345.147 176.3,344.055 177.31,343.045 C178.321,342.035 179.217,341.058 179.998,340.115 C180.779,339.173 181.498,338.378 182.154,337.733 C179.81,329.983 178.378,324.024 177.857,319.858 C177.337,315.691 177.076,310.579 177.076,304.522 C177.076,298.464 178.378,292.962 180.982,288.014 C183.514,282.878 187.06,278.68 191.623,275.42 C191.883,275.222 192.225,275.123 192.646,275.123 C193.068,275.123 193.378,275.222 193.576,275.42 C197.087,279.649 200.128,285.149 202.701,291.92 C205.274,298.691 206.56,305.024 206.56,310.92 C206.56,316.816 205.066,322.498 202.076,327.967 C198.691,333.759 194.326,339.748 188.982,345.936 C190.347,350.227 192.17,356.962 194.451,366.139 L195.045,366.139 C195.305,366.076 195.529,366.045 195.717,366.045 C203.081,366.045 209.089,368.634 213.74,373.811 C218.391,378.988 220.717,384.962 220.717,391.733 C220.717,400.128 217.238,406.899 210.279,412.045 C208.258,413.545 205.878,414.717 203.139,415.561 C203.472,419.79 203.639,422.605 203.639,424.006 C203.639,425.407 203.571,427.899 203.435,431.483 C203.373,437.597 201.29,442.837 197.185,447.201 C193.081,451.566 188.394,453.748 183.123,453.748 C177.852,453.748 173.36,451.876 169.646,448.131 C165.933,444.386 164.076,439.847 164.076,434.514 C164.076,431.712 165.154,429.331 167.31,427.373 C169.519,425.425 172.006,424.451 174.771,424.451 C177.537,424.451 179.8,425.462 181.56,427.483 C183.383,429.368 184.295,431.644 184.295,434.311 C184.295,436.977 183.383,439.222 181.56,441.045 C179.738,442.868 177.555,443.779 175.014,443.779 C173.972,443.779 172.967,443.587 171.998,443.201 C174.863,447.43 178.54,449.545 183.029,449.545 C187.519,449.545 191.36,447.691 194.553,443.983 C197.745,440.274 199.342,435.91 199.342,430.889 L199.623,423.858 M202.748,411.561 C206.133,410.321 208.821,408.123 210.81,404.967 C212.8,401.811 213.795,398.67 213.795,395.545 C213.795,390.92 212.199,386.785 209.006,383.139 C205.813,379.493 201.774,377.441 196.889,376.983 C199.691,390.722 201.644,402.248 202.748,411.561 M164.967,388.998 C164.967,395.446 167.537,401.079 172.678,405.897 C177.818,410.714 183.842,413.123 190.748,413.123 C193.477,413.123 196.144,412.925 198.748,412.529 C197.706,402.634 195.654,390.785 192.592,376.983 C188.758,377.378 185.782,378.699 183.662,380.943 C181.542,383.188 180.482,385.743 180.482,388.608 C180.482,393.555 183.123,397.561 188.404,400.623 C188.852,400.884 189.076,401.324 189.076,401.943 C189.076,402.563 188.865,403.1 188.443,403.553 C188.021,404.006 187.649,404.233 187.326,404.233 C187.003,404.233 186.581,404.17 186.06,404.045 C178.435,399.878 174.623,393.592 174.623,385.186 C174.623,381.217 176.024,377.41 178.826,373.764 C181.753,370.118 185.56,367.774 190.248,366.733 C188.425,359.441 186.93,353.743 185.764,349.639 C176.847,359.67 171.31,367.092 169.154,371.904 C166.363,378.154 164.967,383.852 164.967,388.998 M197.576,289.686 C192.691,292.092 188.834,295.574 186.006,300.131 C183.178,304.688 181.764,309.472 181.764,314.483 C181.764,319.493 182.935,325.972 185.279,333.92 C189.967,328.253 193.514,322.946 195.92,317.998 C198.326,313.05 199.529,308.152 199.529,303.303 C199.529,298.454 198.878,293.915 197.576,289.686"/>
<path class="Clef" d="M199.623,898.858 L199.623,896.717 C199.56,895.613 199.399,893.889 199.139,891.545 C195.889,892.066 192.993,892.327 190.451,892.327 C181.337,892.327 173.605,888.728 167.256,881.53 C160.907,874.332 157.732,865.754 157.732,855.795 C157.732,853.129 158.253,849.923 159.295,846.178 C160.337,842.433 161.297,839.926 162.178,838.655 C163.058,837.384 164.378,835.155 166.139,831.967 C166.659,830.988 168.352,828.837 171.217,825.514 C171.738,824.806 172.193,824.222 172.584,823.764 C172.975,823.306 173.607,822.491 174.482,821.319 C175.357,820.147 176.3,819.056 177.31,818.045 C178.321,817.035 179.217,816.058 179.998,815.116 C180.779,814.173 181.498,813.379 182.154,812.733 C179.81,804.983 178.378,799.024 177.857,794.858 C177.337,790.691 177.076,785.579 177.076,779.522 C177.076,773.465 178.378,767.962 180.982,763.014 C183.514,757.879 187.06,753.681 191.623,750.42 C191.883,750.222 192.225,750.123 192.646,750.123 C193.068,750.123 193.378,750.222 193.576,750.42 C197.087,754.649 200.128,760.149 202.701,766.92 C205.274,773.691 206.56,780.024 206.56,785.92 C206.56,791.816 205.066,797.498 202.076,802.967 C198.691,808.759 194.326,814.748 188.982,820.936 C190.347,825.228 192.17,831.962 194.451,841.139 L195.045,841.139 C195.305,841.077 195.529,841.045 195.717,841.045 C203.081,841.045 209.089,843.634 213.74,848.811 C218.391,853.988 220.717,859.962 220.717,866.733 C220.717,875.129 217.238,881.899 210.279,887.045 C208.258,888.545 205.878,889.717 203.139,890.561 C203.472,894.79 203.639,897.605 203.639,899.006 C203.639,900.407 203.571,902.899 203.435,906.483 C203.373,912.597 201.29,917.837 197.185,922.202 C193.081,926.566 188.394,928.748 183.123,928.748 C177.852,928.748 173.36,926.876 169.646,923.131 C165.933,919.386 164.076,914.847 164.076,909.514 C164.076,906.712 165.154,904.332 167.31,902.373 C169.519,900.426 172.006,899.452 174.771,899.452 C177.537,899.452 179.8,900.462 181.56,902.483 C183.383,904.368 184.295,906.644 184.295,909.311 C184.295,911.978 183.383,914.222 181.56,916.045 C179.738,917.868 177.555,918.78 175.014,918.78 C173.972,918.78 172.967,918.587 171.998,918.202 C174.863,922.431 178.54,924.545 183.029,924.545 C187.519,924.545 191.36,922.691 194.553,918.983 C197.745,915.274 199.342,910.91 199.342,905.889 L199.623,898.858 M202.748,886.561 C206.133,885.321 208.821,883.123 210.81,879.967 C212.8,876.811 213.795,873.67 213.795,870.545 C213.795,865.92 212.199,861.785 209.006,858.139 C205.813,854.493 201.774,852.441 196.889,851.983 C199.691,865.722 201.644,877.248 202.748,886.561 M164.967,863.998 C164.967,870.446 167.537,876.079 172.678,880.897 C177.818,885.715 183.842,888.123 190.748,888.123 C193.477,888.123 196.144,887.926 198.748,887.53 C197.706,877.634 195.654,865.785 192.592,851.983 C188.758,852.379 185.782,853.699 183.662,855.944 C181.542,858.189 180.482,860.743 180.482,863.608 C180.482,868.556 183.123,872.561 188.404,875.623 C188.852,875.884 189.076,876.324 189.076,876.944 C189.076,877.564 188.865,878.1 188.443,878.553 C188.021,879.006 187.649,879.233 187.326,879.233 C187.003,879.233 186.581,879.17 186.06,879.045 C178.435,874.879 174.623,868.592 174.623,860.186 C174.623,856.217 176.024,852.41 178.826,848.764 C181.753,845.118 185.56,842.774 190.248,841.733 C188.425,834.441 186.93,828.743 185.764,824.639 C176.847,834.67 171.31,842.092 169.154,846.905 C166.363,853.155 164.967,858.853 164.967,863.998 M197.576,764.686 C192.691,767.092 188.834,770.574 186.006,775.131 C183.178,779.689 181.764,784.472 181.764,789.483 C181.764,794.493 182.935,800.972 185.279,808.92 C189.967,803.254 193.514,797.946 195.92,792.998 C198.326,788.051 199.529,783.152 199.529,778.303 C199.529,773.454 198.878,768.915 197.576,764.686"/>
<path class="TimeSig" d="M270.482,366.732 C268.524,366.732 266.764,366.376 265.201,365.662 C263.639,364.949 262.467,364.134 261.686,363.217 C259.925,361.134 258.133,360.092 256.311,360.092 C254.488,360.092 253.008,360.597 251.873,361.607 C250.738,362.618 250.102,363.967 249.967,365.654 C249.842,366.373 249.42,366.732 248.701,366.732 C247.982,366.732 247.623,366.373 247.623,365.654 C247.623,361.165 249.644,357.165 253.686,353.654 C255.633,351.956 257.357,350.555 258.857,349.451 C260.357,348.347 262.18,346.884 264.326,345.061 C268.878,341.144 271.154,336.519 271.154,331.186 C271.154,327.863 270.602,324.998 269.498,322.592 C268.331,320.248 266.54,319.076 264.123,319.076 C262.633,319.076 261.415,319.402 260.467,320.053 C259.519,320.704 259.045,321.535 259.045,322.545 C259.045,323.555 259.631,324.743 260.803,326.107 C261.975,327.472 262.561,328.613 262.561,329.529 C262.561,331.477 261.894,333.118 260.561,334.451 C259.227,335.785 257.6,336.451 255.678,336.451 C253.756,336.451 252.113,335.769 250.748,334.404 C249.446,332.977 248.795,331.352 248.795,329.529 C248.795,325.811 250.292,322.748 253.287,320.342 C256.282,317.936 260.092,316.732 264.717,316.732 C269.342,316.732 273.508,318.066 277.217,320.732 C280.925,323.399 282.779,326.884 282.779,331.186 C282.779,337.113 280.795,341.347 276.826,343.889 C273.378,346.097 269.732,347.967 265.889,349.498 C262.045,351.029 259.373,352.285 257.873,353.264 C258.727,353.066 259.607,352.967 260.514,352.967 C263.441,352.967 266.566,353.943 269.889,355.897 C273.212,357.85 275.85,358.826 277.803,358.826 C279.756,358.826 280.993,358.191 281.514,356.92 C282.035,355.649 282.587,355.014 283.17,355.014 C283.951,355.014 284.342,355.404 284.342,356.186 C284.342,358.009 283.055,360.222 280.482,362.826 C277.91,365.43 274.576,366.732 270.482,366.732"/>
<path class="TimeSig" d="M269.021,368.084 C270.516,368.084 271.949,367.858 273.318,367.404 C274.688,366.951 275.665,366.725 276.248,366.725 C276.831,366.725 277.222,367.079 277.42,367.787 C277.42,367.86 277.352,368.058 277.217,368.381 L248.811,401.397 L265.498,401.397 L265.498,388.303 C265.498,386.678 266.446,385.506 268.342,384.787 C270.29,384.068 272.503,381.173 274.982,376.1 C275.17,375.704 275.462,375.506 275.857,375.506 C276.639,375.506 277.092,375.964 277.217,376.881 L277.217,401.397 L284.357,401.397 C285.264,401.397 285.751,401.884 285.818,402.858 C285.886,403.831 285.399,404.318 284.357,404.318 L277.217,404.318 L277.217,405.1 C277.217,407.704 277.868,409.917 279.17,411.74 C280.67,413.563 282.43,414.475 284.451,414.475 C285.232,414.475 285.623,414.865 285.623,415.647 C285.623,416.428 285.087,416.818 284.014,416.818 C282.941,416.818 280.938,416.608 278.006,416.186 C275.074,415.764 272.811,415.553 271.217,415.553 C269.623,415.553 267.41,415.764 264.576,416.186 C261.743,416.608 259.613,416.818 258.186,416.818 C257.404,416.818 257.014,416.428 257.014,415.647 C257.014,414.865 257.404,414.475 258.186,414.475 C260.196,414.475 261.951,413.563 263.451,411.74 C264.816,409.855 265.498,407.641 265.498,405.1 L265.498,404.318 L248.811,404.318 C247.956,404.318 247.219,404.092 246.6,403.639 C245.98,403.186 245.67,402.764 245.67,402.373 C245.67,401.983 246.485,400.811 248.115,398.858 C249.745,396.904 252.074,393.144 255.1,387.576 C258.126,382.009 259.639,375.61 259.639,368.381 C259.639,367.339 260.097,366.818 261.014,366.818 C261.212,366.818 261.521,366.884 261.943,367.014 C262.365,367.144 263.277,367.355 264.678,367.647 C266.079,367.938 267.527,368.084 269.021,368.084"/>
<path class="Beam" fill-rule="evenodd" d="M633.884,854.229 L818.411,860.479 L818.411,872.986 L633.884,866.736 L633.884,854.229 "/>
<path class="Beam" fill-rule="evenodd" d="M335.873,385.48 L549.337,379.23 L549.337,391.735 L335.873,397.985 L335.873,385.48 "/>
<path class="Beam" fill-rule="evenodd" d="M549.337,360.48 L516.337,361.446 L516.337,373.951 L549.337,372.985 L549.337,360.48 "/>
<path class="Beam" fill-rule="evenodd" d="M656.638,379.228 L825.714,385.478 L825.714,397.987 L656.638,391.737 L656.638,379.228 "/>
<path class="Beam" fill-rule="evenodd" d="M1022.29,391.728 L1191.37,385.478 L1191.37,397.987 L1022.29,404.237 L1022.29,391.728 "/>
<path class="Beam" fill-rule="evenodd" d="M1636.68,410.478 L1805.76,404.228 L1805.76,416.737 L1636.68,422.987 L1636.68,410.478 "/>
<path class="Beam" fill-rule="evenodd" d="M2251.08,391.728 L2420.15,385.478 L2420.15,397.987 L2251.08,404.237 L2251.08,391.728 "/>
<path class="Beam" fill-rule="evenodd" d="M283.232,860.481 L516.283,854.231 L516.283,866.735 L283.232,872.985 L283.232,860.481 "/>
<path class="Beam" fill-rule="evenodd" d="M516.283,835.481 L483.282,836.366 L483.282,848.87 L516.283,847.985 L516.283,835.481 "/>
<path class="Beam" fill-rule="evenodd" d="M1030.44,866.729 L1214.97,860.479 L1214.97,872.986 L1030.44,879.236 L1030.44,866.729 "/>
<path class="NoteDot" d="M326.561,783.241 C325.451,782.131 324.897,780.795 324.897,779.233 C324.897,777.67 325.451,776.334 326.561,775.225 C327.67,774.116 329.006,773.561 330.568,773.561 C332.131,773.561 333.464,774.116 334.568,775.225 C335.673,776.334 336.225,777.67 336.225,779.233 C336.225,780.795 335.673,782.131 334.568,783.241 C333.464,784.35 332.131,784.905 330.568,784.905 C329.006,784.905 327.67,784.35 326.561,783.241"/>
<path class="NoteDot" d="M379.201,308.24 C378.092,307.131 377.537,305.795 377.537,304.232 C377.537,302.67 378.092,301.334 379.201,300.225 C380.311,299.115 381.647,298.561 383.209,298.561 C384.772,298.561 386.105,299.115 387.209,300.225 C388.313,301.334 388.865,302.67 388.865,304.232 C388.865,305.795 388.313,307.131 387.209,308.24 C386.105,309.35 384.772,309.904 383.209,309.904 C381.647,309.904 380.311,309.35 379.201,308.24"/>
<path class="NoteDot" d="M2501.35,833.241 C2500.24,832.131 2499.68,830.795 2499.68,829.233 C2499.68,827.67 2500.24,826.334 2501.35,825.225 C2502.46,824.116 2503.79,823.561 2505.35,823.561 C2506.92,823.561 2508.25,824.116 2509.35,825.225 C2510.46,826.334 2511.01,827.67 2511.01,829.233 C2511.01,830.795 2510.46,832.131 2509.35,833.241 C2508.25,834.35 2506.92,834.905 2505.35,834.905 C2503.79,834.905 2502.46,834.35 2501.35,833.241"/>
</svg>
