<?xml version="1.0" encoding="UTF-8" standalone="no"?>
<svg width="2977.2px" height="4208.4px" viewBox="0 0 2977.2 4208.4"
 xmlns="http://www.w3.org/2000/svg" xmlns:xlink="http://www.w3.org/1999/xlink" version="1.2" baseProfile="tiny">
<title>London_Bridge_Is_Falling_Down.mscx</title>
<desc>Generated by MuseScore Studio 4.3.1</desc>
<path class="" fill="#ffffff" fill-rule="evenodd" d="M0,0 L2977.2,0 L2977.2,4208.4 L0,4208.4 L0,0 "/>
<polyline class="StaffLines" fill="none" stroke="#000000" stroke-width="2.00" stroke-linejoin="bevel" points="141.732,566.733 2835.47,566.733"/>
<polyline class="StaffLines" fill="none" stroke="#000000" stroke-width="2.00" stroke-linejoin="bevel" points="141.732,591.733 2835.47,591.733"/>
<polyline class="StaffLines" fill="none" stroke="#000000" stroke-width="2.00" stroke-linejoin="bevel" points="141.732,616.733 2835.47,616.733"/>
<polyline class="StaffLines" fill="none" stroke="#000000" stroke-width="2.00" stroke-linejoin="bevel" points="141.732,641.733 2835.47,641.733"/>
<polyline class="StaffLines" fill="none" stroke="#000000" stroke-width="2.00" stroke-linejoin="bevel" points="141.732,666.733 2835.47,666.733"/>
<polyline class="StaffLines" fill="none" stroke="#000000" stroke-width="2.00" stroke-linejoin="bevel" points="141.732,1041.73 2835.47,1041.73"/>
<polyline class="StaffLines" fill="none" stroke="#000000" stroke-width="2.00" stroke-linejoin="bevel" points="141.732,1066.73 2835.47,1066.73"/>
<polyline class="StaffLines" fill="none" stroke="#000000" stroke-width="2.00" stroke-linejoin="bevel" points="141.732,1091.73 2835.47,1091.73"/>
<polyline class="StaffLines" fill="none" stroke="#000000" stroke-width="2.00" stroke-linejoin="bevel" points="141.732,1116.73 2835.47,1116.73"/>
<polyline class="StaffLines" fill="none" stroke="#000000" stroke-width="2.00" stroke-linejoin="bevel" points="141.732,1141.73 2835.47,1141.73"/>
<path class="Text" d="M813.435,219.17 C815.508,219.17 817.446,219.05 819.248,218.81 C821.05,218.571 822.631,218.31 823.99,218.029 C825.35,217.748 826.67,217.287 827.951,216.646 C829.232,216.006 830.271,215.485 831.068,215.084 C831.865,214.683 832.685,214.021 833.529,213.1 C834.373,212.178 835.014,211.516 835.451,211.115 C835.889,210.714 836.389,209.975 836.951,208.896 C837.514,207.818 837.873,207.118 838.029,206.795 C838.185,206.472 838.506,205.769 838.99,204.685 C839.475,203.602 839.717,203.024 839.717,202.951 L842.701,202.951 L836.951,223.732 L772.389,223.732 L772.389,221.451 C776.795,221.149 779.636,220.337 780.912,219.014 C782.188,217.691 782.826,214.909 782.826,210.67 L782.826,157.373 C782.826,153.133 782.188,150.355 780.912,149.037 C779.636,147.719 776.795,146.899 772.389,146.576 L772.389,144.295 L806.232,144.295 L806.232,146.576 C801.514,146.899 798.475,147.722 797.115,149.045 C795.756,150.368 795.076,153.149 795.076,157.389 L795.076,214.248 C795.076,216.331 795.696,217.672 796.935,218.271 C798.175,218.87 800.993,219.17 805.389,219.17 L813.435,219.17 M873.42,168.529 C881.097,168.529 887.417,171.092 892.381,176.217 C897.344,181.342 899.826,187.826 899.826,195.67 C899.826,203.982 897.266,210.938 892.146,216.537 C887.027,222.136 880.706,224.935 873.185,224.935 C865.665,224.935 859.404,222.235 854.404,216.834 C849.404,211.433 846.904,204.696 846.904,196.623 C846.904,188.383 849.365,181.641 854.287,176.396 C859.209,171.152 865.587,168.529 873.42,168.529 M857.701,190.795 C857.701,199.274 859.261,206.482 862.381,212.42 C865.501,218.357 869.581,221.326 874.623,221.326 C879.102,221.326 882.623,219.425 885.185,215.623 C887.748,211.821 889.029,206.555 889.029,199.826 C889.029,191.659 887.428,185.003 884.225,179.857 C881.021,174.712 876.899,172.139 871.857,172.139 C867.618,172.139 864.199,173.842 861.6,177.248 C859.001,180.654 857.701,185.17 857.701,190.795 M902.81,175.857 L902.81,173.81 C908.727,172.092 914.248,170.331 919.373,168.529 L920.201,168.764 L920.201,178.139 C924.284,174.347 927.506,171.797 929.865,170.49 C932.225,169.183 934.805,168.529 937.607,168.529 C942.003,168.529 945.462,170.102 947.982,173.248 C950.503,176.394 951.764,180.79 951.764,186.435 L951.764,213.998 C951.764,216.956 952.243,218.938 953.201,219.943 C954.159,220.949 956.123,221.613 959.092,221.935 L959.092,223.732 L934.123,223.732 L934.123,221.935 C937.165,221.696 939.185,220.894 940.185,219.529 C941.185,218.165 941.685,215.597 941.685,211.826 L941.685,186.685 C941.685,178.904 938.764,175.014 932.92,175.014 C930.92,175.014 929.081,175.475 927.404,176.396 C925.727,177.318 923.446,179.144 920.56,181.873 L920.56,215.67 C920.56,217.837 921.12,219.363 922.24,220.248 C923.36,221.133 925.441,221.696 928.482,221.935 L928.482,223.732 L903.045,223.732 L903.045,221.935 C906.087,221.696 908.087,220.993 909.045,219.826 C910.003,218.659 910.482,216.352 910.482,212.904 L910.482,183.076 C910.482,180.107 910.162,178.081 909.521,176.998 C908.881,175.915 907.722,175.373 906.045,175.373 C904.524,175.373 903.446,175.534 902.81,175.857 M1000.11,224.935 L999.639,224.56 L999.639,216.67 C995.795,222.18 990.675,224.935 984.279,224.935 C977.633,224.935 972.271,222.55 968.193,217.779 C964.115,213.008 962.076,206.779 962.076,199.092 C962.076,190.623 964.516,183.412 969.396,177.459 C974.277,171.506 980.154,168.529 987.029,168.529 C991.352,168.529 995.555,170.326 999.639,173.92 L999.639,155.029 C999.639,152.529 999.279,150.876 998.56,150.068 C997.842,149.261 996.357,148.857 994.107,148.857 C992.993,148.857 992.118,148.899 991.482,148.982 L991.482,147.06 C998.753,145.133 1004.63,143.373 1009.11,141.779 L1009.72,142.014 L1009.72,209.857 C1009.72,212.649 1010.06,214.482 1010.73,215.357 C1011.41,216.232 1012.83,216.67 1015,216.67 C1015.39,216.67 1016.31,216.633 1017.75,216.56 L1017.75,218.451 L1000.11,224.935 M988.951,218.451 C991.993,218.451 994.534,217.6 996.576,215.896 C998.618,214.193 999.639,212.67 999.639,211.326 L999.639,184.014 C999.639,180.847 998.399,178.076 995.92,175.701 C993.441,173.326 990.597,172.139 987.389,172.139 C982.837,172.139 979.199,174.157 976.475,178.193 C973.751,182.23 972.389,187.613 972.389,194.342 C972.389,201.623 973.909,207.462 976.951,211.857 C979.993,216.253 983.993,218.451 988.951,218.451 M1047.26,168.529 C1054.94,168.529 1061.26,171.092 1066.22,176.217 C1071.19,181.342 1073.67,187.826 1073.67,195.67 C1073.67,203.982 1071.11,210.938 1065.99,216.537 C1060.87,222.136 1054.55,224.935 1047.03,224.935 C1039.51,224.935 1033.25,222.235 1028.25,216.834 C1023.25,211.433 1020.75,204.696 1020.75,196.623 C1020.75,188.383 1023.21,181.641 1028.13,176.396 C1033.05,171.152 1039.43,168.529 1047.26,168.529 M1031.54,190.795 C1031.54,199.274 1033.1,206.482 1036.22,212.42 C1039.34,218.357 1043.43,221.326 1048.47,221.326 C1052.95,221.326 1056.47,219.425 1059.03,215.623 C1061.59,211.821 1062.87,206.555 1062.87,199.826 C1062.87,191.659 1061.27,185.003 1058.07,179.857 C1054.87,174.712 1050.74,172.139 1045.7,172.139 C1041.46,172.139 1038.04,173.842 1035.44,177.248 C1032.84,180.654 1031.54,185.17 1031.54,190.795 M1076.65,175.857 L1076.65,173.81 C1082.57,172.092 1088.09,170.331 1093.22,168.529 L1094.04,168.764 L1094.04,178.139 C1098.13,174.347 1101.35,171.797 1103.71,170.49 C1106.07,169.183 1108.65,168.529 1111.45,168.529 C1115.85,168.529 1119.31,170.102 1121.83,173.248 C1124.35,176.394 1125.61,180.79 1125.61,186.435 L1125.61,213.998 C1125.61,216.956 1126.09,218.938 1127.04,219.943 C1128,220.949 1129.97,221.613 1132.94,221.935 L1132.94,223.732 L1107.97,223.732 L1107.97,221.935 C1111.01,221.696 1113.03,220.894 1114.03,219.529 C1115.03,218.165 1115.53,215.597 1115.53,211.826 L1115.53,186.685 C1115.53,178.904 1112.61,175.014 1106.76,175.014 C1104.76,175.014 1102.93,175.475 1101.25,176.396 C1099.57,177.318 1097.29,179.144 1094.4,181.873 L1094.4,215.67 C1094.4,217.837 1094.96,219.363 1096.08,220.248 C1097.2,221.133 1099.28,221.696 1102.33,221.935 L1102.33,223.732 L1076.89,223.732 L1076.89,221.935 C1079.93,221.696 1081.93,220.993 1082.89,219.826 C1083.85,218.659 1084.33,216.352 1084.33,212.904 L1084.33,183.076 C1084.33,180.107 1084.01,178.081 1083.37,176.998 C1082.72,175.915 1081.57,175.373 1079.89,175.373 C1078.37,175.373 1077.29,175.534 1076.65,175.857 M1183.31,142.014 L1183.31,178.404 C1184.51,175.54 1186.67,173.178 1189.79,171.318 C1192.91,169.459 1196.31,168.529 1199.98,168.529 C1205.98,168.529 1211,171.019 1215.04,175.998 C1219.09,180.977 1221.11,187.133 1221.11,194.467 C1221.11,203.05 1218.41,210.274 1213.01,216.139 C1207.6,222.003 1200.95,224.935 1193.03,224.935 C1188.23,224.935 1183.73,224.136 1179.53,222.537 C1175.33,220.938 1173.23,219.238 1173.23,217.435 L1173.23,154.982 C1173.23,152.493 1172.85,150.85 1172.09,150.053 C1171.33,149.256 1169.75,148.857 1167.34,148.857 C1166.47,148.857 1165.79,148.899 1165.31,148.982 L1165.31,147.06 C1171.47,145.54 1177.26,143.779 1182.7,141.779 L1183.31,142.014 M1183.31,184.857 L1183.31,215.498 C1183.31,217.04 1184.47,218.396 1186.79,219.568 C1189.1,220.74 1191.83,221.326 1194.95,221.326 C1199.91,221.326 1203.75,219.462 1206.47,215.732 C1209.19,212.003 1210.54,206.779 1210.54,200.06 C1210.54,192.675 1209.16,186.774 1206.4,182.357 C1203.64,177.941 1199.9,175.732 1195.19,175.732 C1192.07,175.732 1189.31,176.665 1186.91,178.529 C1184.51,180.394 1183.31,182.503 1183.31,184.857 M1259.01,180.295 C1257.81,180.295 1256.32,179.534 1254.56,178.014 C1252.8,176.493 1251.64,175.732 1251.09,175.732 C1249.49,175.732 1247.69,176.902 1245.69,179.24 C1243.69,181.579 1242.69,183.717 1242.69,185.654 L1242.69,212.857 C1242.69,216.326 1243.37,218.665 1244.72,219.873 C1246.08,221.081 1248.81,221.769 1252.89,221.935 L1252.89,223.732 L1224.09,223.732 L1224.09,221.935 C1227.93,221.206 1230.3,220.399 1231.22,219.514 C1232.15,218.628 1232.61,216.654 1232.61,213.592 L1232.61,183.357 C1232.61,180.691 1232.31,178.813 1231.71,177.725 C1231.11,176.636 1230.05,176.092 1228.53,176.092 C1227.25,176.092 1225.85,176.253 1224.33,176.576 L1224.33,174.701 C1230.73,172.722 1236.65,170.665 1242.09,168.529 L1242.69,168.764 L1242.69,179.482 C1245.64,175.368 1248.16,172.514 1250.25,170.92 C1252.33,169.326 1254.61,168.529 1257.09,168.529 C1259.16,168.529 1260.78,169.089 1261.94,170.209 C1263.1,171.329 1263.69,172.889 1263.69,174.889 C1263.69,176.576 1263.27,177.899 1262.43,178.857 C1261.59,179.816 1260.45,180.295 1259.01,180.295 M1271.72,176.576 C1269.96,176.576 1268.28,176.696 1266.69,176.935 L1266.69,175.139 C1272.28,173.534 1278.48,171.331 1285.28,168.529 L1285.76,168.889 L1285.76,211.498 C1285.76,215.81 1286.26,218.547 1287.26,219.709 C1288.26,220.87 1290.72,221.613 1294.64,221.935 L1294.64,223.732 L1266.2,223.732 L1266.2,221.935 C1270.36,221.696 1272.98,220.975 1274.06,219.771 C1275.14,218.568 1275.69,215.81 1275.69,211.498 L1275.69,183.654 C1275.69,181.019 1275.38,179.18 1274.78,178.139 C1274.18,177.097 1273.15,176.576 1271.72,176.576 M1279.64,141.779 C1281.4,141.779 1282.88,142.378 1284.08,143.576 C1285.27,144.774 1285.87,146.212 1285.87,147.889 C1285.87,149.649 1285.27,151.11 1284.08,152.271 C1282.88,153.433 1281.4,154.014 1279.64,154.014 C1277.96,154.014 1276.54,153.415 1275.38,152.217 C1274.22,151.019 1273.64,149.579 1273.64,147.896 C1273.64,146.214 1274.24,144.774 1275.44,143.576 C1276.63,142.378 1278.03,141.779 1279.64,141.779 M1336.26,224.935 L1335.79,224.56 L1335.79,216.67 C1331.95,222.18 1326.83,224.935 1320.44,224.935 C1313.79,224.935 1308.43,222.55 1304.35,217.779 C1300.27,213.008 1298.23,206.779 1298.23,199.092 C1298.23,190.623 1300.67,183.412 1305.55,177.459 C1310.43,171.506 1316.31,168.529 1323.19,168.529 C1327.51,168.529 1331.71,170.326 1335.79,173.92 L1335.79,155.029 C1335.79,152.529 1335.44,150.876 1334.72,150.068 C1334,149.261 1332.51,148.857 1330.26,148.857 C1329.15,148.857 1328.27,148.899 1327.64,148.982 L1327.64,147.06 C1334.91,145.133 1340.78,143.373 1345.26,141.779 L1345.87,142.014 L1345.87,209.857 C1345.87,212.649 1346.21,214.482 1346.89,215.357 C1347.57,216.232 1348.99,216.67 1351.15,216.67 C1351.55,216.67 1352.47,216.633 1353.9,216.56 L1353.9,218.451 L1336.26,224.935 M1325.11,218.451 C1328.15,218.451 1330.69,217.6 1332.73,215.896 C1334.77,214.193 1335.79,212.67 1335.79,211.326 L1335.79,184.014 C1335.79,180.847 1334.56,178.076 1332.08,175.701 C1329.6,173.326 1326.75,172.139 1323.54,172.139 C1318.99,172.139 1315.35,174.157 1312.63,178.193 C1309.91,182.23 1308.54,187.613 1308.54,194.342 C1308.54,201.623 1310.07,207.462 1313.11,211.857 C1316.15,216.253 1320.15,218.451 1325.11,218.451 M1361.11,217.154 C1361.11,215.654 1361.65,214.269 1362.72,212.998 C1363.8,211.727 1366.82,208.784 1371.78,204.17 C1367.78,202.159 1364.92,199.909 1363.2,197.42 C1361.48,194.93 1360.62,191.8 1360.62,188.029 C1360.62,182.602 1362.56,177.995 1366.44,174.209 C1370.32,170.422 1375.07,168.529 1380.67,168.529 C1383.78,168.529 1387.12,169.191 1390.69,170.514 C1394.25,171.837 1397.19,172.498 1399.5,172.498 L1408.75,172.498 L1408.75,177.06 L1398.78,177.06 C1400.3,180.508 1401.06,183.883 1401.06,187.185 C1401.06,192.727 1399.2,197.225 1395.48,200.678 C1391.76,204.131 1387.38,205.857 1382.34,205.857 C1381.38,205.857 1379.1,205.654 1375.5,205.248 C1373.9,205.727 1372.31,206.808 1370.71,208.49 C1369.11,210.172 1368.31,211.613 1368.31,212.81 C1368.31,214.727 1371.43,215.805 1377.67,216.045 L1393.14,216.717 C1397.54,216.863 1401.07,218.06 1403.71,220.31 C1406.35,222.56 1407.67,225.503 1407.67,229.139 C1407.67,235.034 1404.37,239.967 1397.76,243.935 C1391.16,247.904 1384.06,249.889 1376.47,249.889 C1370.79,249.889 1365.91,248.756 1361.83,246.49 C1357.74,244.225 1355.7,241.498 1355.7,238.31 C1355.7,235.977 1356.6,233.662 1358.4,231.365 C1360.21,229.068 1363.23,226.295 1367.47,223.045 C1364.99,221.93 1363.31,220.967 1362.43,220.154 C1361.55,219.342 1361.11,218.342 1361.11,217.154 M1369.98,223.373 C1367.5,226.456 1365.9,228.662 1365.19,229.99 C1364.47,231.318 1364.11,232.691 1364.11,234.107 C1364.11,236.909 1365.71,239.159 1368.9,240.857 C1372.1,242.555 1376.34,243.404 1381.62,243.404 C1388.43,243.404 1393.9,242.258 1398.06,239.967 C1402.22,237.675 1404.29,234.706 1404.29,231.06 C1404.29,228.769 1403.18,227.154 1400.94,226.217 C1398.7,225.279 1394.86,224.81 1389.42,224.81 C1381.35,224.81 1374.87,224.331 1369.98,223.373 M1391.83,191.889 C1391.83,190.545 1391.66,188.928 1391.34,187.037 C1391.02,185.146 1390.46,182.998 1389.66,180.592 C1388.87,178.185 1387.59,176.175 1385.83,174.56 C1384.07,172.946 1381.95,172.139 1379.47,172.139 C1376.66,172.139 1374.48,173.107 1372.92,175.045 C1371.36,176.982 1370.58,179.659 1370.58,183.076 C1370.58,189.993 1371.86,195.019 1374.42,198.154 C1376.98,201.29 1379.78,202.857 1382.83,202.857 C1385.63,202.857 1387.83,201.873 1389.43,199.904 C1391.03,197.935 1391.83,195.264 1391.83,191.889 M1420.37,190.498 C1420.53,195.446 1421.21,199.706 1422.41,203.279 C1423.62,206.852 1425.18,209.521 1427.09,211.287 C1429.01,213.053 1430.95,214.308 1432.91,215.053 C1434.88,215.797 1436.94,216.17 1439.09,216.17 C1442.94,216.17 1446.28,215.227 1449.12,213.342 C1451.95,211.456 1454.81,208.279 1457.69,203.81 L1459.61,204.623 C1457.13,211.196 1453.69,216.225 1449.29,219.709 C1444.89,223.193 1439.85,224.935 1434.17,224.935 C1427.29,224.935 1421.84,222.503 1417.79,217.639 C1413.75,212.774 1411.73,206.201 1411.73,197.92 C1411.73,189.076 1414.07,181.967 1418.76,176.592 C1423.44,171.217 1429.46,168.529 1436.81,168.529 C1442.89,168.529 1447.62,170.35 1450.97,173.99 C1454.33,177.631 1456.45,183.133 1457.33,190.498 L1420.37,190.498 M1420.61,186.889 L1445.09,186.889 C1444.29,181.691 1443.05,178.092 1441.37,176.092 C1439.7,174.092 1437.01,173.092 1433.33,173.092 C1426.13,173.092 1421.89,177.691 1420.61,186.889 M1499.42,176.576 C1497.66,176.576 1495.98,176.696 1494.39,176.935 L1494.39,175.139 C1499.98,173.534 1506.18,171.331 1512.98,168.529 L1513.47,168.889 L1513.47,211.498 C1513.47,215.81 1513.97,218.547 1514.97,219.709 C1515.97,220.87 1518.43,221.613 1522.34,221.935 L1522.34,223.732 L1493.9,223.732 L1493.9,221.935 C1498.06,221.696 1500.68,220.975 1501.76,219.771 C1502.85,218.568 1503.39,215.81 1503.39,211.498 L1503.39,183.654 C1503.39,181.019 1503.09,179.18 1502.48,178.139 C1501.88,177.097 1500.86,176.576 1499.42,176.576 M1507.34,141.779 C1509.1,141.779 1510.58,142.378 1511.78,143.576 C1512.98,144.774 1513.58,146.212 1513.58,147.889 C1513.58,149.649 1512.98,151.11 1511.78,152.271 C1510.58,153.433 1509.1,154.014 1507.34,154.014 C1505.66,154.014 1504.25,153.415 1503.08,152.217 C1501.92,151.019 1501.34,149.579 1501.34,147.896 C1501.34,146.214 1501.94,144.774 1503.14,143.576 C1504.34,142.378 1505.74,141.779 1507.34,141.779 M1556.29,170.935 C1556.38,170.935 1557.02,170.534 1558.22,169.732 L1559.54,169.732 L1560.01,186.06 L1558.22,186.06 C1556.85,180.696 1555.17,176.894 1553.17,174.654 C1551.17,172.415 1548.45,171.295 1545.01,171.295 C1542.29,171.295 1540.08,172.055 1538.36,173.576 C1536.64,175.097 1535.78,177.055 1535.78,179.451 C1535.78,182.889 1537.5,185.607 1540.94,187.607 L1553.9,195.295 C1557.5,197.451 1560.08,199.631 1561.64,201.834 C1563.2,204.037 1563.98,206.618 1563.98,209.576 C1563.98,213.732 1562.32,217.331 1559,220.373 C1555.68,223.415 1551.7,224.935 1547.06,224.935 C1545.06,224.935 1542.38,224.576 1539.02,223.857 C1535.66,223.139 1533.58,222.779 1532.78,222.779 C1531.58,222.779 1530.66,223.258 1530.01,224.217 L1528.45,224.217 L1528.45,205.498 L1530.37,205.498 C1531.65,211.092 1533.18,215.05 1534.94,217.373 C1537.5,220.654 1541.06,222.295 1545.62,222.295 C1548.65,222.295 1551.07,221.514 1552.87,219.951 C1554.68,218.389 1555.58,216.29 1555.58,213.654 C1555.58,210.05 1553.5,207.05 1549.34,204.654 L1542.37,200.685 C1537.26,197.81 1533.64,195.053 1531.52,192.412 C1529.4,189.771 1528.34,186.774 1528.34,183.42 C1528.34,179.097 1529.88,175.555 1532.96,172.795 C1536.04,170.034 1539.94,168.654 1544.65,168.654 C1547.3,168.654 1549.78,169.034 1552.1,169.795 C1554.42,170.555 1555.82,170.935 1556.29,170.935 M1637.87,153.889 C1636.59,153.889 1635.49,153.441 1634.57,152.545 C1633.65,151.649 1632.93,150.639 1632.41,149.514 C1631.9,148.389 1631.1,147.378 1630.01,146.482 C1628.93,145.587 1627.63,145.139 1626.11,145.139 C1621.56,145.139 1619.28,148.696 1619.28,155.81 L1619.28,169.732 L1634.03,169.732 L1634.03,173.342 L1619.39,173.342 L1619.39,211.201 C1619.39,215.701 1620.03,218.574 1621.31,219.818 C1622.59,221.063 1625.68,221.769 1630.56,221.935 L1630.56,223.732 L1599.36,223.732 L1599.36,221.935 C1603.68,221.696 1606.42,220.951 1607.58,219.701 C1608.73,218.451 1609.31,215.618 1609.31,211.201 L1609.31,173.342 L1599.47,173.342 L1599.47,169.732 L1609.31,169.732 C1609.48,160.701 1611.16,153.743 1614.36,148.857 C1617.56,143.972 1622.91,141.529 1630.44,141.529 C1634.03,141.529 1637.01,142.23 1639.37,143.631 C1641.74,145.032 1642.92,146.816 1642.92,148.982 C1642.92,150.337 1642.42,151.493 1641.42,152.451 C1640.42,153.409 1639.24,153.889 1637.87,153.889 M1637.5,211.889 C1637.5,210.451 1637.66,209.115 1637.97,207.881 C1638.29,206.646 1638.85,205.493 1639.65,204.42 C1640.46,203.347 1641.22,202.373 1641.94,201.498 C1642.65,200.623 1643.73,199.727 1645.18,198.81 C1646.62,197.894 1647.82,197.139 1648.78,196.545 C1649.74,195.951 1651.2,195.235 1653.15,194.396 C1655.11,193.558 1656.61,192.92 1657.65,192.482 C1658.7,192.045 1660.34,191.389 1662.58,190.514 C1664.82,189.639 1666.46,189.003 1667.5,188.607 L1667.5,181.326 C1667.5,174.722 1664.46,171.42 1658.37,171.42 C1655.98,171.42 1653.94,171.998 1652.26,173.154 C1650.57,174.31 1649.73,175.691 1649.73,177.295 C1649.73,177.93 1649.83,178.808 1650.04,179.928 C1650.24,181.047 1650.34,181.769 1650.34,182.092 C1650.34,183.456 1649.8,184.639 1648.72,185.639 C1647.63,186.639 1646.37,187.139 1644.94,187.139 C1643.58,187.139 1642.38,186.618 1641.34,185.576 C1640.3,184.534 1639.78,183.331 1639.78,181.967 C1639.78,178.217 1641.72,175.04 1645.6,172.435 C1649.48,169.831 1654.26,168.529 1659.94,168.529 C1666.5,168.529 1671.02,170.102 1673.5,173.248 C1675.98,176.394 1677.22,181.196 1677.22,187.654 L1677.22,210.935 C1677.22,213.56 1677.48,215.37 1678,216.365 C1678.52,217.36 1679.46,217.857 1680.81,217.857 C1682.5,217.857 1684.26,217.102 1686.09,215.592 L1686.09,218.732 C1684.02,221.128 1682.2,222.761 1680.64,223.631 C1679.08,224.501 1677.29,224.935 1675.29,224.935 C1672.82,224.935 1671,224.238 1669.83,222.842 C1668.67,221.446 1667.94,219.144 1667.62,215.935 C1660.74,221.935 1654.89,224.935 1650.09,224.935 C1646.41,224.935 1643.4,223.714 1641.04,221.271 C1638.68,218.829 1637.5,215.701 1637.5,211.889 M1667.5,208.779 L1667.5,191.467 C1660.3,194.092 1655.26,196.639 1652.38,199.107 C1649.5,201.576 1648.06,204.56 1648.06,208.06 C1648.06,211.321 1648.86,213.748 1650.46,215.342 C1652.06,216.935 1653.78,217.732 1655.62,217.732 C1658.34,217.732 1661.26,216.816 1664.37,214.982 C1665.65,214.274 1666.5,213.521 1666.9,212.725 C1667.3,211.928 1667.5,210.613 1667.5,208.779 M1687.29,148.982 L1687.29,147.06 C1695.21,145.133 1701.57,143.373 1706.37,141.779 L1706.86,142.014 L1706.86,213.654 C1706.86,216.935 1707.4,219.076 1708.47,220.076 C1709.55,221.076 1712.01,221.696 1715.86,221.935 L1715.86,223.732 L1687.53,223.732 L1687.53,221.935 C1691.29,221.613 1693.77,220.891 1694.97,219.771 C1696.16,218.652 1696.76,216.493 1696.76,213.295 L1696.76,156.06 C1696.76,153.258 1696.4,151.337 1695.69,150.295 C1694.97,149.253 1693.65,148.732 1691.73,148.732 C1690.13,148.732 1688.65,148.816 1687.29,148.982 M1718.25,148.982 L1718.25,147.06 C1726.16,145.133 1732.52,143.373 1737.33,141.779 L1737.81,142.014 L1737.81,213.654 C1737.81,216.935 1738.35,219.076 1739.43,220.076 C1740.51,221.076 1742.97,221.696 1746.81,221.935 L1746.81,223.732 L1718.48,223.732 L1718.48,221.935 C1722.24,221.613 1724.72,220.891 1725.92,219.771 C1727.12,218.652 1727.72,216.493 1727.72,213.295 L1727.72,156.06 C1727.72,153.258 1727.36,151.337 1726.64,150.295 C1725.92,149.253 1724.6,148.732 1722.69,148.732 C1721.08,148.732 1719.6,148.816 1718.25,148.982 M1755.44,176.576 C1753.68,176.576 1752,176.696 1750.4,176.935 L1750.4,175.139 C1756,173.534 1762.2,171.331 1769,168.529 L1769.48,168.889 L1769.48,211.498 C1769.48,215.81 1769.98,218.547 1770.98,219.709 C1771.98,220.87 1774.44,221.613 1778.36,221.935 L1778.36,223.732 L1749.92,223.732 L1749.92,221.935 C1754.08,221.696 1756.7,220.975 1757.78,219.771 C1758.86,218.568 1759.4,215.81 1759.4,211.498 L1759.4,183.654 C1759.4,181.019 1759.1,179.18 1758.5,178.139 C1757.89,177.097 1756.87,176.576 1755.44,176.576 M1763.36,141.779 C1765.12,141.779 1766.6,142.378 1767.79,143.576 C1768.99,144.774 1769.59,146.212 1769.59,147.889 C1769.59,149.649 1768.99,151.11 1767.79,152.271 C1766.6,153.433 1765.12,154.014 1763.36,154.014 C1761.68,154.014 1760.26,153.415 1759.1,152.217 C1757.94,151.019 1757.36,149.579 1757.36,147.896 C1757.36,146.214 1757.96,144.774 1759.15,143.576 C1760.35,142.378 1761.75,141.779 1763.36,141.779 M1781.36,175.857 L1781.36,173.81 C1787.27,172.092 1792.79,170.331 1797.92,168.529 L1798.75,168.764 L1798.75,178.139 C1802.83,174.347 1806.05,171.797 1808.41,170.49 C1810.77,169.183 1813.35,168.529 1816.15,168.529 C1820.55,168.529 1824.01,170.102 1826.53,173.248 C1829.05,176.394 1830.31,180.79 1830.31,186.435 L1830.31,213.998 C1830.31,216.956 1830.79,218.938 1831.75,219.943 C1832.71,220.949 1834.67,221.613 1837.64,221.935 L1837.64,223.732 L1812.67,223.732 L1812.67,221.935 C1815.71,221.696 1817.73,220.894 1818.73,219.529 C1819.73,218.165 1820.23,215.597 1820.23,211.826 L1820.23,186.685 C1820.23,178.904 1817.31,175.014 1811.47,175.014 C1809.47,175.014 1807.63,175.475 1805.95,176.396 C1804.27,177.318 1801.99,179.144 1799.11,181.873 L1799.11,215.67 C1799.11,217.837 1799.67,219.363 1800.79,220.248 C1801.91,221.133 1803.99,221.696 1807.03,221.935 L1807.03,223.732 L1781.59,223.732 L1781.59,221.935 C1784.63,221.696 1786.63,220.993 1787.59,219.826 C1788.55,218.659 1789.03,216.352 1789.03,212.904 L1789.03,183.076 C1789.03,180.107 1788.71,178.081 1788.07,176.998 C1787.43,175.915 1786.27,175.373 1784.59,175.373 C1783.07,175.373 1781.99,175.534 1781.36,175.857 M1846.03,217.154 C1846.03,215.654 1846.57,214.269 1847.65,212.998 C1848.72,211.727 1851.74,208.784 1856.7,204.17 C1852.7,202.159 1849.84,199.909 1848.12,197.42 C1846.4,194.93 1845.54,191.8 1845.54,188.029 C1845.54,182.602 1847.48,177.995 1851.37,174.209 C1855.25,170.422 1859.99,168.529 1865.59,168.529 C1868.71,168.529 1872.04,169.191 1875.61,170.514 C1879.17,171.837 1882.11,172.498 1884.42,172.498 L1893.67,172.498 L1893.67,177.06 L1883.7,177.06 C1885.22,180.508 1885.98,183.883 1885.98,187.185 C1885.98,192.727 1884.12,197.225 1880.4,200.678 C1876.69,204.131 1872.31,205.857 1867.26,205.857 C1866.31,205.857 1864.02,205.654 1860.42,205.248 C1858.83,205.727 1857.23,206.808 1855.63,208.49 C1854.03,210.172 1853.23,211.613 1853.23,212.81 C1853.23,214.727 1856.35,215.805 1862.59,216.045 L1878.06,216.717 C1882.47,216.863 1885.99,218.06 1888.63,220.31 C1891.27,222.56 1892.59,225.503 1892.59,229.139 C1892.59,235.034 1889.29,239.967 1882.69,243.935 C1876.08,247.904 1868.98,249.889 1861.39,249.889 C1855.71,249.889 1850.83,248.756 1846.75,246.49 C1842.66,244.225 1840.62,241.498 1840.62,238.31 C1840.62,235.977 1841.52,233.662 1843.33,231.365 C1845.13,229.068 1848.15,226.295 1852.39,223.045 C1849.91,221.93 1848.23,220.967 1847.35,220.154 C1846.47,219.342 1846.03,218.342 1846.03,217.154 M1854.9,223.373 C1852.43,226.456 1850.83,228.662 1850.11,229.99 C1849.39,231.318 1849.03,232.691 1849.03,234.107 C1849.03,236.909 1850.63,239.159 1853.83,240.857 C1857.02,242.555 1861.26,243.404 1866.54,243.404 C1873.35,243.404 1878.83,242.258 1882.98,239.967 C1887.14,237.675 1889.22,234.706 1889.22,231.06 C1889.22,228.769 1888.1,227.154 1885.86,226.217 C1883.62,225.279 1879.78,224.81 1874.34,224.81 C1866.27,224.81 1859.79,224.331 1854.9,223.373 M1876.75,191.889 C1876.75,190.545 1876.59,188.928 1876.26,187.037 C1875.94,185.146 1875.38,182.998 1874.58,180.592 C1873.79,178.185 1872.51,176.175 1870.75,174.56 C1868.99,172.946 1866.87,172.139 1864.39,172.139 C1861.59,172.139 1859.4,173.107 1857.84,175.045 C1856.28,176.982 1855.5,179.659 1855.5,183.076 C1855.5,189.993 1856.78,195.019 1859.34,198.154 C1861.9,201.29 1864.71,202.857 1867.75,202.857 C1870.55,202.857 1872.75,201.873 1874.35,199.904 C1875.95,197.935 1876.75,195.264 1876.75,191.889 M1965.87,224.935 L1965.4,224.56 L1965.4,216.67 C1961.56,222.18 1956.44,224.935 1950.04,224.935 C1943.4,224.935 1938.04,222.55 1933.96,217.779 C1929.88,213.008 1927.84,206.779 1927.84,199.092 C1927.84,190.623 1930.28,183.412 1935.16,177.459 C1940.04,171.506 1945.92,168.529 1952.79,168.529 C1957.12,168.529 1961.32,170.326 1965.4,173.92 L1965.4,155.029 C1965.4,152.529 1965.04,150.876 1964.33,150.068 C1963.61,149.261 1962.12,148.857 1959.87,148.857 C1958.76,148.857 1957.88,148.899 1957.25,148.982 L1957.25,147.06 C1964.52,145.133 1970.39,143.373 1974.87,141.779 L1975.48,142.014 L1975.48,209.857 C1975.48,212.649 1975.82,214.482 1976.5,215.357 C1977.18,216.232 1978.6,216.67 1980.76,216.67 C1981.16,216.67 1982.08,216.633 1983.51,216.56 L1983.51,218.451 L1965.87,224.935 M1954.72,218.451 C1957.76,218.451 1960.3,217.6 1962.34,215.896 C1964.38,214.193 1965.4,212.67 1965.4,211.326 L1965.4,184.014 C1965.4,180.847 1964.16,178.076 1961.69,175.701 C1959.21,173.326 1956.36,172.139 1953.15,172.139 C1948.6,172.139 1944.96,174.157 1942.24,178.193 C1939.52,182.23 1938.15,187.613 1938.15,194.342 C1938.15,201.623 1939.68,207.462 1942.72,211.857 C1945.76,216.253 1949.76,218.451 1954.72,218.451 M2013.03,168.529 C2020.71,168.529 2027.03,171.092 2031.99,176.217 C2036.95,181.342 2039.44,187.826 2039.44,195.67 C2039.44,203.982 2036.88,210.938 2031.76,216.537 C2026.64,222.136 2020.32,224.935 2012.79,224.935 C2005.27,224.935 1999.01,222.235 1994.01,216.834 C1989.01,211.433 1986.51,204.696 1986.51,196.623 C1986.51,188.383 1988.97,181.641 1993.9,176.396 C1998.82,171.152 2005.2,168.529 2013.03,168.529 M1997.31,190.795 C1997.31,199.274 1998.87,206.482 2001.99,212.42 C2005.11,218.357 2009.19,221.326 2014.23,221.326 C2018.71,221.326 2022.23,219.425 2024.79,215.623 C2027.36,211.821 2028.64,206.555 2028.64,199.826 C2028.64,191.659 2027.04,185.003 2023.83,179.857 C2020.63,174.712 2016.51,172.139 2011.47,172.139 C2007.23,172.139 2003.81,173.842 2001.21,177.248 C1998.61,180.654 1997.31,185.17 1997.31,190.795 M2079.26,186.529 C2077.1,180.133 2075.44,176.115 2074.28,174.475 C2073.12,172.834 2071.22,171.852 2068.58,171.529 L2068.58,169.732 L2092.94,169.732 L2092.94,171.529 C2090.13,171.935 2088.27,172.417 2087.36,172.975 C2086.44,173.532 2085.98,174.493 2085.98,175.857 C2085.98,176.899 2086.66,179.258 2088.01,182.935 L2098.09,209.81 L2108.9,183.17 C2110.26,179.816 2110.94,177.175 2110.94,175.248 C2110.94,174.217 2110.58,173.441 2109.86,172.92 C2109.14,172.399 2107.74,171.935 2105.65,171.529 L2105.65,169.732 L2120.42,169.732 L2120.42,171.529 C2119.22,171.935 2118.36,172.498 2117.84,173.217 C2117.32,173.935 2116.54,175.534 2115.5,178.014 L2098.94,219.529 C2097.34,223.456 2096.22,225.42 2095.58,225.42 C2094.94,225.42 2093.98,223.696 2092.7,220.248 L2081.78,191.935 L2068.34,220.732 C2066.9,223.857 2065.9,225.42 2065.34,225.42 C2064.7,225.42 2063.65,223.659 2062.22,220.139 L2046.01,179.092 C2044.82,176.05 2043.82,174.071 2043.02,173.154 C2042.22,172.238 2041.1,171.696 2039.65,171.529 L2039.65,169.732 L2061.26,169.732 L2061.26,171.529 C2059.18,171.769 2057.74,172.17 2056.94,172.732 C2056.13,173.295 2055.73,174.217 2055.73,175.498 C2055.73,176.696 2055.98,177.894 2056.47,179.092 L2068.34,210.42 L2079.26,186.529 M2122.22,175.857 L2122.22,173.81 C2128.13,172.092 2133.65,170.331 2138.78,168.529 L2139.61,168.764 L2139.61,178.139 C2143.69,174.347 2146.91,171.797 2149.27,170.49 C2151.63,169.183 2154.21,168.529 2157.01,168.529 C2161.41,168.529 2164.87,170.102 2167.39,173.248 C2169.91,176.394 2171.17,180.79 2171.17,186.435 L2171.17,213.998 C2171.17,216.956 2171.65,218.938 2172.61,219.943 C2173.57,220.949 2175.53,221.613 2178.5,221.935 L2178.5,223.732 L2153.53,223.732 L2153.53,221.935 C2156.57,221.696 2158.59,220.894 2159.59,219.529 C2160.59,218.165 2161.09,215.597 2161.09,211.826 L2161.09,186.685 C2161.09,178.904 2158.17,175.014 2152.33,175.014 C2150.33,175.014 2148.49,175.475 2146.81,176.396 C2145.13,177.318 2142.85,179.144 2139.97,181.873 L2139.97,215.67 C2139.97,217.837 2140.53,219.363 2141.65,220.248 C2142.77,221.133 2144.85,221.696 2147.89,221.935 L2147.89,223.732 L2122.45,223.732 L2122.45,221.935 C2125.49,221.696 2127.49,220.993 2128.45,219.826 C2129.41,218.659 2129.89,216.352 2129.89,212.904 L2129.89,183.076 C2129.89,180.107 2129.57,178.081 2128.93,176.998 C2128.29,175.915 2127.13,175.373 2125.45,175.373 C2123.93,175.373 2122.85,175.534 2122.22,175.857"/>
<path class="MeasureNumber" d="M146.514,983.874 C146.514,982.446 146.199,981.181 145.568,980.077 C144.938,978.972 144.178,978.118 143.287,977.514 C142.396,976.91 141.399,976.413 140.295,976.022 C139.191,975.631 138.23,975.376 137.412,975.256 C136.594,975.137 135.883,975.077 135.279,975.077 C134.956,975.077 134.795,974.967 134.795,974.749 C134.795,974.676 134.805,974.613 134.826,974.561 L139.185,965.264 L147.545,965.264 C147.972,965.264 148.313,965.196 148.568,965.061 C148.824,964.926 149.097,964.644 149.389,964.217 L149.748,964.499 L148.232,967.842 C148.128,968.061 147.821,968.17 147.31,968.17 L139.467,968.17 L137.795,971.608 C141.68,972.306 144.571,973.441 146.467,975.014 C148.363,976.587 149.31,978.894 149.31,981.936 C149.31,983.53 149.063,984.946 148.568,986.186 C148.074,987.426 147.446,988.423 146.685,989.178 C145.925,989.933 145.045,990.553 144.045,991.038 C143.045,991.522 142.087,991.853 141.17,992.03 C140.253,992.207 139.326,992.295 138.389,992.295 C136.899,992.295 135.714,992.074 134.834,991.631 C133.954,991.189 133.514,990.582 133.514,989.811 C133.514,988.821 134.087,988.327 135.232,988.327 C135.982,988.327 136.949,988.735 138.131,989.553 C139.313,990.371 140.253,990.78 140.951,990.78 C142.524,990.78 143.844,990.113 144.912,988.78 C145.98,987.446 146.514,985.811 146.514,983.874"/>
<polyline class="BarLine" fill="none" stroke="#000000" stroke-width="4.00" stroke-linejoin="bevel" points="2804.72,1040.73 2804.72,1142.73"/>
<polyline class="BarLine" fill="none" stroke="#000000" stroke-width="12.50" stroke-linejoin="bevel" points="2829.22,1040.73 2829.22,1142.73"/>
<polyline class="BarLine" fill="none" stroke="#000000" stroke-width="4.00" stroke-linejoin="bevel" points="2244.74,1040.73 2244.74,1142.73"/>
<polyline class="BarLine" fill="none" stroke="#000000" stroke-width="4.00" stroke-linejoin="bevel" points="1666.91,1040.73 1666.91,1142.73"/>
<polyline class="BarLine" fill="none" stroke="#000000" stroke-width="4.00" stroke-linejoin="bevel" points="998.439,1040.73 998.439,1142.73"/>
<polyline class="BarLine" fill="none" stroke="#000000" stroke-width="4.00" stroke-linejoin="bevel" points="2833.47,565.733 2833.47,667.733"/>
<polyline class="BarLine" fill="none" stroke="#000000" stroke-width="4.00" stroke-linejoin="bevel" points="2219.08,565.733 2219.08,667.733"/>
<polyline class="BarLine" fill="none" stroke="#000000" stroke-width="4.00" stroke-linejoin="bevel" points="1604.68,565.733 1604.68,667.733"/>
<polyline class="BarLine" fill="none" stroke="#000000" stroke-width="4.00" stroke-linejoin="bevel" points="990.29,565.733 990.29,667.733"/>
<polyline class="LedgerLine" fill="none" stroke="#000000" stroke-width="4.00" stroke-linejoin="bevel" points="536.587,541.733 588.501,541.733"/>
<polyline class="LedgerLine" fill="none" stroke="#000000" stroke-width="4.00" stroke-linejoin="bevel" points="503.533,1016.73 555.447,1016.73"/>
<polyline class="Stem" fill="none" stroke="#000000" stroke-width="3.25" stroke-linejoin="bevel" points="514.658,1022.6 514.658,1110.53"/>
<polyline class="Stem" fill="none" stroke="#000000" stroke-width="3.25" stroke-linejoin="bevel" points="1700.53,1072.6 1700.53,1154.23"/>
<polyline class="Stem" fill="none" stroke="#000000" stroke-width="3.25" stroke-linejoin="bevel" points="284.857,1035.1 284.857,1116.69"/>
<polyline class="Stem" fill="none" stroke="#000000" stroke-width="3.25" stroke-linejoin="bevel" points="1972.45,1035.1 1972.45,1116.73"/>
<polyline class="Stem" fill="none" stroke="#000000" stroke-width="3.25" stroke-linejoin="bevel" points="547.712,547.602 547.712,635.53"/>
<polyline class="Stem" fill="none" stroke="#000000" stroke-width="3.25" stroke-linejoin="bevel" points="635.509,1035.1 635.509,1110.54"/>
<polyline class="Stem" fill="none" stroke="#000000" stroke-width="3.25" stroke-linejoin="bevel" points="337.498,560.102 337.498,641.685"/>
<polyline class="Stem" fill="none" stroke="#000000" stroke-width="3.25" stroke-linejoin="bevel" points="2584.35,560.102 2584.35,641.733"/>
<polyline class="Stem" fill="none" stroke="#000000" stroke-width="3.25" stroke-linejoin="bevel" points="816.786,1047.6 816.786,1116.68"/>
<polyline class="Stem" fill="none" stroke="#000000" stroke-width="3.25" stroke-linejoin="bevel" points="2418.53,572.602 2418.53,641.793"/>
<polyline class="Stem" fill="none" stroke="#000000" stroke-width="3.25" stroke-linejoin="bevel" points="1032.06,1060.1 1032.06,1122.93"/>
<polyline class="Stem" fill="none" stroke="#000000" stroke-width="3.25" stroke-linejoin="bevel" points="2252.7,585.102 2252.7,647.923"/>
<polyline class="Stem" fill="none" stroke="#000000" stroke-width="3.25" stroke-linejoin="bevel" points="1213.34,1047.6 1213.34,1116.79"/>
<polyline class="Stem" fill="none" stroke="#000000" stroke-width="3.25" stroke-linejoin="bevel" points="1394.62,1035.1 1394.62,1116.73"/>
<polyline class="Stem" fill="none" stroke="#000000" stroke-width="3.25" stroke-linejoin="bevel" points="1969.96,572.602 1969.96,654.233"/>
<polyline class="Stem" fill="none" stroke="#000000" stroke-width="3.25" stroke-linejoin="bevel" points="1023.92,585.102 1023.92,647.923"/>
<polyline class="Stem" fill="none" stroke="#000000" stroke-width="3.25" stroke-linejoin="bevel" points="2459.64,1085.1 2459.64,1160.48"/>
<polyline class="Stem" fill="none" stroke="#000000" stroke-width="3.25" stroke-linejoin="bevel" points="1189.74,572.602 1189.74,641.793"/>
<polyline class="Stem" fill="none" stroke="#000000" stroke-width="3.25" stroke-linejoin="bevel" points="824.089,572.602 824.089,641.673"/>
<polyline class="Stem" fill="none" stroke="#000000" stroke-width="3.25" stroke-linejoin="bevel" points="1355.57,560.102 1355.57,641.733"/>
<polyline class="Stem" fill="none" stroke="#000000" stroke-width="3.25" stroke-linejoin="bevel" points="2278.37,1060.1 2278.37,1142.33"/>
<polyline class="Stem" fill="none" stroke="#000000" stroke-width="3.25" stroke-linejoin="bevel" points="658.263,560.102 658.263,635.543"/>
<polyline class="Stem" fill="none" stroke="#000000" stroke-width="3.25" stroke-linejoin="bevel" points="1638.31,597.602 1638.31,666.673"/>
<polyline class="Stem" fill="none" stroke="#000000" stroke-width="3.25" stroke-linejoin="bevel" points="1804.13,585.102 1804.13,660.543"/>
<path class="Hook" d="M2299.49,1069.37 C2300.99,1069.37 2302.57,1071.8 2304.23,1076.65 C2305.89,1081.5 2306.73,1085.94 2306.73,1089.98 C2306.73,1094.01 2305.8,1097.92 2303.94,1101.69 C2302.09,1105.47 2299.86,1108.79 2297.26,1111.65 L2289.24,1120.64 C2286.77,1123.5 2284.59,1126.79 2282.7,1130.5 C2280.81,1134.21 2279.87,1137.95 2279.87,1141.73 L2276.74,1141.73 L2276.74,1116.73 L2279.87,1116.73 C2290.8,1109.83 2297.67,1103.71 2300.48,1098.37 C2301.84,1095.77 2302.52,1093.13 2302.52,1090.47 C2302.52,1084.28 2300.73,1078.12 2297.15,1072 L2297.15,1071.61 C2297.15,1071.02 2297.38,1070.51 2297.83,1070.05 C2298.29,1069.6 2298.85,1069.37 2299.49,1069.37"/>
<path class="Note" d="M1052.41,1040.47 C1055.53,1040.47 1058.14,1041.25 1060.22,1042.81 C1062.3,1044.37 1063.34,1046.62 1063.34,1049.55 C1063.34,1054.04 1061.02,1058.23 1056.37,1062.14 C1051.72,1066.05 1046.72,1068 1041.38,1068 C1038.25,1068 1035.62,1067.19 1033.47,1065.56 C1031.45,1063.8 1030.44,1061.59 1030.44,1058.92 C1030.44,1054.56 1032.75,1050.39 1037.38,1046.42 C1042,1042.45 1047.01,1040.47 1052.41,1040.47"/>
<path class="Note" d="M1414.96,1015.47 C1418.09,1015.47 1420.69,1016.25 1422.77,1017.81 C1424.86,1019.37 1425.9,1021.62 1425.9,1024.55 C1425.9,1029.04 1423.57,1033.23 1418.92,1037.14 C1414.27,1041.05 1409.27,1043 1403.93,1043 C1400.81,1043 1398.17,1042.19 1396.02,1040.56 C1394,1038.8 1392.99,1036.59 1392.99,1033.92 C1392.99,1029.56 1395.31,1025.39 1399.93,1021.42 C1404.56,1017.45 1409.57,1015.47 1414.96,1015.47"/>
<path class="Note" d="M678.606,540.467 C681.731,540.467 684.335,541.248 686.419,542.811 C688.502,544.373 689.544,546.618 689.544,549.545 C689.544,554.035 687.218,558.233 682.567,562.139 C677.916,566.045 672.919,567.998 667.575,567.998 C664.45,567.998 661.815,567.186 659.669,565.561 C657.648,563.8 656.638,561.587 656.638,558.92 C656.638,554.556 658.95,550.389 663.575,546.42 C668.2,542.451 673.21,540.467 678.606,540.467"/>
<path class="Note" d="M837.13,1027.97 C840.255,1027.97 842.859,1028.75 844.943,1030.31 C847.026,1031.87 848.068,1034.12 848.068,1037.05 C848.068,1041.54 845.742,1045.73 841.091,1049.64 C836.44,1053.55 831.443,1055.5 826.099,1055.5 C822.974,1055.5 820.338,1054.69 818.193,1053.06 C816.172,1051.3 815.161,1049.09 815.161,1046.42 C815.161,1042.06 817.474,1037.89 822.099,1033.92 C826.724,1029.95 831.734,1027.97 837.13,1027.97"/>
<path class="Note" d="M2479.99,1065.47 C2483.11,1065.47 2485.72,1066.25 2487.8,1067.81 C2489.88,1069.37 2490.92,1071.62 2490.92,1074.55 C2490.92,1079.04 2488.6,1083.23 2483.95,1087.14 C2479.3,1091.05 2474.3,1093 2468.96,1093 C2465.83,1093 2463.2,1092.19 2461.05,1090.56 C2459.03,1088.8 2458.02,1086.59 2458.02,1083.92 C2458.02,1079.56 2460.33,1075.39 2464.96,1071.42 C2469.58,1067.45 2474.59,1065.47 2479.99,1065.47"/>
<path class="Note" d="M568.055,527.967 C571.18,527.967 573.785,528.748 575.868,530.311 C577.951,531.873 578.993,534.118 578.993,537.045 C578.993,541.535 576.667,545.733 572.016,549.639 C567.365,553.545 562.368,555.498 557.024,555.498 C553.899,555.498 551.264,554.686 549.118,553.061 C547.097,551.3 546.087,549.087 546.087,546.42 C546.087,542.056 548.399,537.889 553.024,533.92 C557.649,529.951 562.66,527.967 568.055,527.967"/>
<path class="Note" d="M655.853,1015.47 C658.978,1015.47 661.582,1016.25 663.665,1017.81 C665.749,1019.37 666.79,1021.62 666.79,1024.55 C666.79,1029.04 664.465,1033.23 659.814,1037.14 C655.163,1041.05 650.165,1043 644.822,1043 C641.697,1043 639.061,1042.19 636.915,1040.56 C634.894,1038.8 633.884,1036.59 633.884,1033.92 C633.884,1029.56 636.197,1025.39 640.822,1021.42 C645.447,1017.45 650.457,1015.47 655.853,1015.47"/>
<path class="Note" d="M844.433,552.967 C847.558,552.967 850.162,553.748 852.245,555.311 C854.329,556.873 855.37,559.118 855.37,562.045 C855.37,566.535 853.045,570.733 848.394,574.639 C843.743,578.545 838.745,580.498 833.402,580.498 C830.277,580.498 827.641,579.686 825.495,578.061 C823.474,576.3 822.464,574.087 822.464,571.42 C822.464,567.056 824.777,562.889 829.402,558.92 C834.027,554.951 839.037,552.967 844.433,552.967"/>
<path class="Note" d="M535.001,1002.97 C538.126,1002.97 540.73,1003.75 542.814,1005.31 C544.897,1006.87 545.939,1009.12 545.939,1012.05 C545.939,1016.53 543.613,1020.73 538.962,1024.64 C534.311,1028.55 529.314,1030.5 523.97,1030.5 C520.845,1030.5 518.21,1029.69 516.064,1028.06 C514.043,1026.3 513.033,1024.09 513.033,1021.42 C513.033,1017.06 515.345,1012.89 519.97,1008.92 C524.595,1004.95 529.605,1002.97 535.001,1002.97"/>
<path class="Note" d="M1233.68,1027.97 C1236.81,1027.97 1239.41,1028.75 1241.5,1030.31 C1243.58,1031.87 1244.62,1034.12 1244.62,1037.05 C1244.62,1041.54 1242.3,1045.73 1237.65,1049.64 C1232.99,1053.55 1228,1055.5 1222.65,1055.5 C1219.53,1055.5 1216.89,1054.69 1214.75,1053.06 C1212.73,1051.3 1211.72,1049.09 1211.72,1046.42 C1211.72,1042.06 1214.03,1037.89 1218.65,1033.92 C1223.28,1029.95 1228.29,1027.97 1233.68,1027.97"/>
<path class="Note" d="M1990.3,552.967 C1993.43,552.967 1996.03,553.748 1998.12,555.311 C2000.2,556.873 2001.24,559.118 2001.24,562.045 C2001.24,566.535 1998.92,570.733 1994.27,574.639 C1989.61,578.545 1984.62,580.498 1979.27,580.498 C1976.15,580.498 1973.51,579.686 1971.37,578.061 C1969.35,576.3 1968.34,574.087 1968.34,571.42 C1968.34,567.056 1970.65,562.889 1975.27,558.92 C1979.9,554.951 1984.91,552.967 1990.3,552.967"/>
<path class="Note" d="M1044.26,565.467 C1047.38,565.467 1049.99,566.248 1052.07,567.811 C1054.16,569.373 1055.2,571.618 1055.2,574.545 C1055.2,579.035 1052.87,583.233 1048.22,587.139 C1043.57,591.045 1038.57,592.998 1033.23,592.998 C1030.1,592.998 1027.47,592.186 1025.32,590.561 C1023.3,588.8 1022.29,586.587 1022.29,583.92 C1022.29,579.556 1024.6,575.389 1029.23,571.42 C1033.85,567.451 1038.86,565.467 1044.26,565.467"/>
<path class="Note" d="M1720.88,1052.97 C1724,1052.97 1726.61,1053.75 1728.69,1055.31 C1730.77,1056.87 1731.82,1059.12 1731.82,1062.05 C1731.82,1066.54 1729.49,1070.73 1724.84,1074.64 C1720.19,1078.55 1715.19,1080.5 1709.85,1080.5 C1706.72,1080.5 1704.09,1079.69 1701.94,1078.06 C1699.92,1076.3 1698.91,1074.09 1698.91,1071.42 C1698.91,1067.06 1701.22,1062.89 1705.85,1058.92 C1710.47,1054.95 1715.48,1052.97 1720.88,1052.97"/>
<path class="Note" d="M305.201,1015.47 C308.326,1015.47 310.93,1016.25 313.014,1017.81 C315.097,1019.37 316.139,1021.62 316.139,1024.55 C316.139,1029.04 313.813,1033.23 309.162,1037.14 C304.511,1041.05 299.514,1043 294.17,1043 C291.045,1043 288.41,1042.19 286.264,1040.56 C284.243,1038.8 283.232,1036.59 283.232,1033.92 C283.232,1029.56 285.545,1025.39 290.17,1021.42 C294.795,1017.45 299.805,1015.47 305.201,1015.47"/>
<path class="Note" d="M2298.71,1040.47 C2301.83,1040.47 2304.44,1041.25 2306.52,1042.81 C2308.61,1044.37 2309.65,1046.62 2309.65,1049.55 C2309.65,1054.04 2307.32,1058.23 2302.67,1062.14 C2298.02,1066.05 2293.02,1068 2287.68,1068 C2284.55,1068 2281.92,1067.19 2279.77,1065.56 C2277.75,1063.8 2276.74,1061.59 2276.74,1058.92 C2276.74,1054.56 2279.05,1050.39 2283.68,1046.42 C2288.3,1042.45 2293.31,1040.47 2298.71,1040.47"/>
<path class="Note" d="M1210.09,552.967 C1213.21,552.967 1215.81,553.748 1217.9,555.311 C1219.98,556.873 1221.02,559.118 1221.02,562.045 C1221.02,566.535 1218.7,570.733 1214.05,574.639 C1209.4,578.545 1204.4,580.498 1199.05,580.498 C1195.93,580.498 1193.29,579.686 1191.15,578.061 C1189.13,576.3 1188.12,574.087 1188.12,571.42 C1188.12,567.056 1190.43,562.889 1195.05,558.92 C1199.68,554.951 1204.69,552.967 1210.09,552.967"/>
<path class="Note" d="M1992.79,1015.47 C1995.92,1015.47 1998.52,1016.25 2000.61,1017.81 C2002.69,1019.37 2003.73,1021.62 2003.73,1024.55 C2003.73,1029.04 2001.41,1033.23 1996.75,1037.14 C1992.1,1041.05 1987.11,1043 1981.76,1043 C1978.64,1043 1976,1042.19 1973.86,1040.56 C1971.84,1038.8 1970.83,1036.59 1970.83,1033.92 C1970.83,1029.56 1973.14,1025.39 1977.76,1021.42 C1982.39,1017.45 1987.4,1015.47 1992.79,1015.47"/>
<path class="Note" d="M1375.91,540.467 C1379.04,540.467 1381.64,541.248 1383.72,542.811 C1385.81,544.373 1386.85,546.618 1386.85,549.545 C1386.85,554.035 1384.52,558.233 1379.87,562.139 C1375.22,566.045 1370.22,567.998 1364.88,567.998 C1361.76,567.998 1359.12,567.186 1356.97,565.561 C1354.95,563.8 1353.94,561.587 1353.94,558.92 C1353.94,554.556 1356.26,550.389 1360.88,546.42 C1365.51,542.451 1370.52,540.467 1375.91,540.467"/>
<path class="Note" d="M2604.7,540.467 C2607.82,540.467 2610.43,541.248 2612.51,542.811 C2614.59,544.373 2615.63,546.618 2615.63,549.545 C2615.63,554.035 2613.31,558.233 2608.66,562.139 C2604.01,566.045 2599.01,567.998 2593.67,567.998 C2590.54,567.998 2587.91,567.186 2585.76,565.561 C2583.74,563.8 2582.73,561.587 2582.73,558.92 C2582.73,554.556 2585.04,550.389 2589.67,546.42 C2594.29,542.451 2599.3,540.467 2604.7,540.467"/>
<path class="Note" d="M2438.87,552.967 C2442,552.967 2444.6,553.748 2446.68,555.311 C2448.77,556.873 2449.81,559.118 2449.81,562.045 C2449.81,566.535 2447.48,570.733 2442.83,574.639 C2438.18,578.545 2433.18,580.498 2427.84,580.498 C2424.71,580.498 2422.08,579.686 2419.93,578.061 C2417.91,576.3 2416.9,574.087 2416.9,571.42 C2416.9,567.056 2419.21,562.889 2423.84,558.92 C2428.46,554.951 2433.48,552.967 2438.87,552.967"/>
<path class="Note" d="M1658.65,577.967 C1661.78,577.967 1664.38,578.748 1666.46,580.311 C1668.55,581.873 1669.59,584.118 1669.59,587.045 C1669.59,591.535 1667.26,595.733 1662.61,599.639 C1657.96,603.545 1652.96,605.498 1647.62,605.498 C1644.5,605.498 1641.86,604.686 1639.71,603.061 C1637.69,601.3 1636.68,599.087 1636.68,596.42 C1636.68,592.056 1639,587.889 1643.62,583.92 C1648.25,579.951 1653.26,577.967 1658.65,577.967"/>
<path class="Note" d="M2273.04,565.467 C2276.17,565.467 2278.77,566.248 2280.86,567.811 C2282.94,569.373 2283.98,571.618 2283.98,574.545 C2283.98,579.035 2281.66,583.233 2277.01,587.139 C2272.35,591.045 2267.36,592.998 2262.01,592.998 C2258.89,592.998 2256.25,592.186 2254.11,590.561 C2252.09,588.8 2251.08,586.587 2251.08,583.92 C2251.08,579.556 2253.39,575.389 2258.01,571.42 C2262.64,567.451 2267.65,565.467 2273.04,565.467"/>
<path class="Note" d="M1824.48,565.467 C1827.6,565.467 1830.21,566.248 1832.29,567.811 C1834.37,569.373 1835.42,571.618 1835.42,574.545 C1835.42,579.035 1833.09,583.233 1828.44,587.139 C1823.79,591.045 1818.79,592.998 1813.45,592.998 C1810.32,592.998 1807.69,592.186 1805.54,590.561 C1803.52,588.8 1802.51,586.587 1802.51,583.92 C1802.51,579.556 1804.82,575.389 1809.45,571.42 C1814.07,567.451 1819.08,565.467 1824.48,565.467"/>
<path class="Note" d="M357.842,540.467 C360.967,540.467 363.571,541.248 365.654,542.811 C367.738,544.373 368.779,546.618 368.779,549.545 C368.779,554.035 366.454,558.233 361.803,562.139 C357.152,566.045 352.154,567.998 346.811,567.998 C343.686,567.998 341.05,567.186 338.904,565.561 C336.884,563.8 335.873,561.587 335.873,558.92 C335.873,554.556 338.186,550.389 342.811,546.42 C347.436,542.451 352.446,540.467 357.842,540.467"/>
<path class="Clef" d="M199.623,673.858 L199.623,671.717 C199.56,670.613 199.399,668.889 199.139,666.545 C195.889,667.066 192.993,667.326 190.451,667.326 C181.337,667.326 173.605,663.727 167.256,656.53 C160.907,649.332 157.732,640.754 157.732,630.795 C157.732,628.129 158.253,624.923 159.295,621.178 C160.337,617.433 161.297,614.925 162.178,613.655 C163.058,612.384 164.378,610.155 166.139,606.967 C166.659,605.988 168.352,603.837 171.217,600.514 C171.738,599.806 172.193,599.222 172.584,598.764 C172.975,598.306 173.607,597.49 174.482,596.319 C175.357,595.147 176.3,594.056 177.31,593.045 C178.321,592.035 179.217,591.058 179.998,590.115 C180.779,589.173 181.498,588.379 182.154,587.733 C179.81,579.983 178.378,574.024 177.857,569.858 C177.337,565.691 177.076,560.579 177.076,554.522 C177.076,548.464 178.378,542.962 180.982,538.014 C183.514,532.879 187.06,528.681 191.623,525.42 C191.883,525.222 192.225,525.123 192.646,525.123 C193.068,525.123 193.378,525.222 193.576,525.42 C197.087,529.649 200.128,535.149 202.701,541.92 C205.274,548.691 206.56,555.024 206.56,560.92 C206.56,566.816 205.066,572.498 202.076,577.967 C198.691,583.759 194.326,589.748 188.982,595.936 C190.347,600.227 192.17,606.962 194.451,616.139 L195.045,616.139 C195.305,616.076 195.529,616.045 195.717,616.045 C203.081,616.045 209.089,618.634 213.74,623.811 C218.391,628.988 220.717,634.962 220.717,641.733 C220.717,650.129 217.238,656.899 210.279,662.045 C208.258,663.545 205.878,664.717 203.139,665.561 C203.472,669.79 203.639,672.605 203.639,674.006 C203.639,675.407 203.571,677.899 203.435,681.483 C203.373,687.597 201.29,692.837 197.185,697.201 C193.081,701.566 188.394,703.748 183.123,703.748 C177.852,703.748 173.36,701.876 169.646,698.131 C165.933,694.386 164.076,689.847 164.076,684.514 C164.076,681.712 165.154,679.332 167.31,677.373 C169.519,675.425 172.006,674.451 174.771,674.451 C177.537,674.451 179.8,675.462 181.56,677.483 C183.383,679.368 184.295,681.644 184.295,684.311 C184.295,686.977 183.383,689.222 181.56,691.045 C179.738,692.868 177.555,693.78 175.014,693.78 C173.972,693.78 172.967,693.587 171.998,693.201 C174.863,697.431 178.54,699.545 183.029,699.545 C187.519,699.545 191.36,697.691 194.553,693.983 C197.745,690.274 199.342,685.91 199.342,680.889 L199.623,673.858 M202.748,661.561 C206.133,660.321 208.821,658.123 210.81,654.967 C212.8,651.811 213.795,648.67 213.795,645.545 C213.795,640.92 212.199,636.785 209.006,633.139 C205.813,629.493 201.774,627.441 196.889,626.983 C199.691,640.722 201.644,652.248 202.748,661.561 M164.967,638.998 C164.967,645.446 167.537,651.079 172.678,655.897 C177.818,660.714 183.842,663.123 190.748,663.123 C193.477,663.123 196.144,662.925 198.748,662.53 C197.706,652.634 195.654,640.785 192.592,626.983 C188.758,627.379 185.782,628.699 183.662,630.944 C181.542,633.188 180.482,635.743 180.482,638.608 C180.482,643.556 183.123,647.561 188.404,650.623 C188.852,650.884 189.076,651.324 189.076,651.944 C189.076,652.563 188.865,653.1 188.443,653.553 C188.021,654.006 187.649,654.233 187.326,654.233 C187.003,654.233 186.581,654.17 186.06,654.045 C178.435,649.879 174.623,643.592 174.623,635.186 C174.623,631.217 176.024,627.41 178.826,623.764 C181.753,620.118 185.56,617.774 190.248,616.733 C188.425,609.441 186.93,603.743 185.764,599.639 C176.847,609.67 171.31,617.092 169.154,621.905 C166.363,628.155 164.967,633.852 164.967,638.998 M197.576,539.686 C192.691,542.092 188.834,545.574 186.006,550.131 C183.178,554.688 181.764,559.472 181.764,564.483 C181.764,569.493 182.935,575.972 185.279,583.92 C189.967,578.254 193.514,572.946 195.92,567.998 C198.326,563.05 199.529,558.152 199.529,553.303 C199.529,548.454 198.878,543.915 197.576,539.686"/>
<path class="Clef" d="M199.623,1148.86 L199.623,1146.72 C199.56,1145.61 199.399,1143.89 199.139,1141.55 C195.889,1142.07 192.993,1142.33 190.451,1142.33 C181.337,1142.33 173.605,1138.73 167.256,1131.53 C160.907,1124.33 157.732,1115.75 157.732,1105.8 C157.732,1103.13 158.253,1099.92 159.295,1096.18 C160.337,1092.43 161.297,1089.93 162.178,1088.65 C163.058,1087.38 164.378,1085.15 166.139,1081.97 C166.659,1080.99 168.352,1078.84 171.217,1075.51 C171.738,1074.81 172.193,1074.22 172.584,1073.76 C172.975,1073.31 173.607,1072.49 174.482,1071.32 C175.357,1070.15 176.3,1069.06 177.31,1068.05 C178.321,1067.04 179.217,1066.06 179.998,1065.12 C180.779,1064.17 181.498,1063.38 182.154,1062.73 C179.81,1054.98 178.378,1049.02 177.857,1044.86 C177.337,1040.69 177.076,1035.58 177.076,1029.52 C177.076,1023.46 178.378,1017.96 180.982,1013.01 C183.514,1007.88 187.06,1003.68 191.623,1000.42 C191.883,1000.22 192.225,1000.12 192.646,1000.12 C193.068,1000.12 193.378,1000.22 193.576,1000.42 C197.087,1004.65 200.128,1010.15 202.701,1016.92 C205.274,1023.69 206.56,1030.02 206.56,1035.92 C206.56,1041.82 205.066,1047.5 202.076,1052.97 C198.691,1058.76 194.326,1064.75 188.982,1070.94 C190.347,1075.23 192.17,1081.96 194.451,1091.14 L195.045,1091.14 C195.305,1091.08 195.529,1091.05 195.717,1091.05 C203.081,1091.05 209.089,1093.63 213.74,1098.81 C218.391,1103.99 220.717,1109.96 220.717,1116.73 C220.717,1125.13 217.238,1131.9 210.279,1137.05 C208.258,1138.55 205.878,1139.72 203.139,1140.56 C203.472,1144.79 203.639,1147.61 203.639,1149.01 C203.639,1150.41 203.571,1152.9 203.435,1156.48 C203.373,1162.6 201.29,1167.84 197.185,1172.2 C193.081,1176.57 188.394,1178.75 183.123,1178.75 C177.852,1178.75 173.36,1176.88 169.646,1173.13 C165.933,1169.39 164.076,1164.85 164.076,1159.51 C164.076,1156.71 165.154,1154.33 167.31,1152.37 C169.519,1150.43 172.006,1149.45 174.771,1149.45 C177.537,1149.45 179.8,1150.46 181.56,1152.48 C183.383,1154.37 184.295,1156.64 184.295,1159.31 C184.295,1161.98 183.383,1164.22 181.56,1166.05 C179.738,1167.87 177.555,1168.78 175.014,1168.78 C173.972,1168.78 172.967,1168.59 171.998,1168.2 C174.863,1172.43 178.54,1174.55 183.029,1174.55 C187.519,1174.55 191.36,1172.69 194.553,1168.98 C197.745,1165.27 199.342,1160.91 199.342,1155.89 L199.623,1148.86 M202.748,1136.56 C206.133,1135.32 208.821,1133.12 210.81,1129.97 C212.8,1126.81 213.795,1123.67 213.795,1120.55 C213.795,1115.92 212.199,1111.79 209.006,1108.14 C205.813,1104.49 201.774,1102.44 196.889,1101.98 C199.691,1115.72 201.644,1127.25 202.748,1136.56 M164.967,1114 C164.967,1120.45 167.537,1126.08 172.678,1130.9 C177.818,1135.71 183.842,1138.12 190.748,1138.12 C193.477,1138.12 196.144,1137.93 198.748,1137.53 C197.706,1127.63 195.654,1115.79 192.592,1101.98 C188.758,1102.38 185.782,1103.7 183.662,1105.94 C181.542,1108.19 180.482,1110.74 180.482,1113.61 C180.482,1118.56 183.123,1122.56 188.404,1125.62 C188.852,1125.88 189.076,1126.32 189.076,1126.94 C189.076,1127.56 188.865,1128.1 188.443,1128.55 C188.021,1129.01 187.649,1129.23 187.326,1129.23 C187.003,1129.23 186.581,1129.17 186.06,1129.05 C178.435,1124.88 174.623,1118.59 174.623,1110.19 C174.623,1106.22 176.024,1102.41 178.826,1098.76 C181.753,1095.12 185.56,1092.77 190.248,1091.73 C188.425,1084.44 186.93,1078.74 185.764,1074.64 C176.847,1084.67 171.31,1092.09 169.154,1096.9 C166.363,1103.15 164.967,1108.85 164.967,1114 M197.576,1014.69 C192.691,1017.09 188.834,1020.57 186.006,1025.13 C183.178,1029.69 181.764,1034.47 181.764,1039.48 C181.764,1044.49 182.935,1050.97 185.279,1058.92 C189.967,1053.25 193.514,1047.95 195.92,1043 C198.326,1038.05 199.529,1033.15 199.529,1028.3 C199.529,1023.45 198.878,1018.92 197.576,1014.69"/>
<path class="TimeSig" d="M270.482,616.733 C268.524,616.733 266.764,616.376 265.201,615.662 C263.639,614.949 262.467,614.134 261.686,613.217 C259.925,611.134 258.133,610.092 256.311,610.092 C254.488,610.092 253.008,610.597 251.873,611.608 C250.738,612.618 250.102,613.967 249.967,615.655 C249.842,616.373 249.42,616.733 248.701,616.733 C247.982,616.733 247.623,616.373 247.623,615.655 C247.623,611.165 249.644,607.165 253.686,603.655 C255.633,601.957 257.357,600.556 258.857,599.451 C260.357,598.347 262.18,596.884 264.326,595.061 C268.878,591.144 271.154,586.519 271.154,581.186 C271.154,577.863 270.602,574.998 269.498,572.592 C268.331,570.248 266.54,569.076 264.123,569.076 C262.633,569.076 261.415,569.402 260.467,570.053 C259.519,570.704 259.045,571.535 259.045,572.545 C259.045,573.556 259.631,574.743 260.803,576.108 C261.975,577.472 262.561,578.613 262.561,579.53 C262.561,581.477 261.894,583.118 260.561,584.451 C259.227,585.785 257.6,586.451 255.678,586.451 C253.756,586.451 252.113,585.769 250.748,584.405 C249.446,582.977 248.795,581.352 248.795,579.53 C248.795,575.811 250.292,572.748 253.287,570.342 C256.282,567.936 260.092,566.733 264.717,566.733 C269.342,566.733 273.508,568.066 277.217,570.733 C280.925,573.399 282.779,576.884 282.779,581.186 C282.779,587.113 280.795,591.347 276.826,593.889 C273.378,596.097 269.732,597.967 265.889,599.498 C262.045,601.03 259.373,602.285 257.873,603.264 C258.727,603.066 259.607,602.967 260.514,602.967 C263.441,602.967 266.566,603.944 269.889,605.897 C273.212,607.85 275.85,608.826 277.803,608.826 C279.756,608.826 280.993,608.191 281.514,606.92 C282.035,605.649 282.587,605.014 283.17,605.014 C283.951,605.014 284.342,605.405 284.342,606.186 C284.342,608.009 283.055,610.222 280.482,612.826 C277.91,615.431 274.576,616.733 270.482,616.733"/>
<path class="TimeSig" d="M269.021,618.084 C270.516,618.084 271.949,617.858 273.318,617.405 C274.688,616.951 275.665,616.725 276.248,616.725 C276.831,616.725 277.222,617.079 277.42,617.787 C277.42,617.86 277.352,618.058 277.217,618.381 L248.811,651.397 L265.498,651.397 L265.498,638.303 C265.498,636.678 266.446,635.506 268.342,634.787 C270.29,634.069 272.503,631.173 274.982,626.1 C275.17,625.704 275.462,625.506 275.857,625.506 C276.639,625.506 277.092,625.964 277.217,626.881 L277.217,651.397 L284.357,651.397 C285.264,651.397 285.751,651.884 285.818,652.858 C285.886,653.832 285.399,654.319 284.357,654.319 L277.217,654.319 L277.217,655.1 C277.217,657.704 277.868,659.918 279.17,661.74 C280.67,663.563 282.43,664.475 284.451,664.475 C285.232,664.475 285.623,664.865 285.623,665.647 C285.623,666.428 285.087,666.819 284.014,666.819 C282.941,666.819 280.938,666.608 278.006,666.186 C275.074,665.764 272.811,665.553 271.217,665.553 C269.623,665.553 267.41,665.764 264.576,666.186 C261.743,666.608 259.613,666.819 258.186,666.819 C257.404,666.819 257.014,666.428 257.014,665.647 C257.014,664.865 257.404,664.475 258.186,664.475 C260.196,664.475 261.951,663.563 263.451,661.74 C264.816,659.855 265.498,657.642 265.498,655.1 L265.498,654.319 L248.811,654.319 C247.956,654.319 247.219,654.092 246.6,653.639 C245.98,653.186 245.67,652.764 245.67,652.373 C245.67,651.983 246.485,650.811 248.115,648.858 C249.745,646.905 252.074,643.144 255.1,637.576 C258.126,632.009 259.639,625.61 259.639,618.381 C259.639,617.339 260.097,616.819 261.014,616.819 C261.212,616.819 261.521,616.884 261.943,617.014 C262.365,617.144 263.277,617.355 264.678,617.647 C266.079,617.938 267.527,618.084 269.021,618.084"/>
<path class="Beam" fill-rule="evenodd" d="M633.884,1104.23 L818.411,1110.48 L818.411,1122.99 L633.884,1116.74 L633.884,1104.23 "/>
<path class="Beam" fill-rule="evenodd" d="M283.232,1110.48 L516.283,1104.23 L516.283,1116.74 L283.232,1122.99 L283.232,1110.48 "/>
<path class="Beam" fill-rule="evenodd" d="M516.283,1085.48 L483.282,1086.37 L483.282,1098.87 L516.283,1097.99 L516.283,1085.48 "/>
<path class="Beam" fill-rule="evenodd" d="M656.638,629.228 L825.714,635.478 L825.714,647.987 L656.638,641.737 L656.638,629.228 "/>
<path class="Beam" fill-rule="evenodd" d="M2251.08,641.728 L2420.15,635.478 L2420.15,647.987 L2251.08,654.237 L2251.08,641.728 "/>
<path class="Beam" fill-rule="evenodd" d="M1030.44,1116.73 L1214.97,1110.48 L1214.97,1122.99 L1030.44,1129.24 L1030.44,1116.73 "/>
<path class="Beam" fill-rule="evenodd" d="M335.873,635.48 L549.337,629.23 L549.337,641.735 L335.873,647.985 L335.873,635.48 "/>
<path class="Beam" fill-rule="evenodd" d="M549.337,610.48 L516.337,611.446 L516.337,623.952 L549.337,622.985 L549.337,610.48 "/>
<path class="Beam" fill-rule="evenodd" d="M1636.68,660.478 L1805.76,654.228 L1805.76,666.737 L1636.68,672.987 L1636.68,660.478 "/>
<path class="Beam" fill-rule="evenodd" d="M1022.29,641.728 L1191.37,635.478 L1191.37,647.987 L1022.29,654.237 L1022.29,641.728 "/>
<path class="NoteDot" d="M379.201,558.24 C378.092,557.131 377.537,555.795 377.537,554.233 C377.537,552.67 378.092,551.334 379.201,550.225 C380.311,549.115 381.647,548.561 383.209,548.561 C384.772,548.561 386.105,549.115 387.209,550.225 C388.313,551.334 388.865,552.67 388.865,554.233 C388.865,555.795 388.313,557.131 387.209,558.24 C386.105,559.35 384.772,559.904 383.209,559.904 C381.647,559.904 380.311,559.35 379.201,558.24"/>
<path class="NoteDot" d="M326.561,1033.24 C325.451,1032.13 324.897,1030.8 324.897,1029.23 C324.897,1027.67 325.451,1026.33 326.561,1025.23 C327.67,1024.12 329.006,1023.56 330.568,1023.56 C332.131,1023.56 333.464,1024.12 334.568,1025.23 C335.673,1026.33 336.225,1027.67 336.225,1029.23 C336.225,1030.8 335.673,1032.13 334.568,1033.24 C333.464,1034.35 332.131,1034.9 330.568,1034.9 C329.006,1034.9 327.67,1034.35 326.561,1033.24"/>
<path class="NoteDot" d="M2501.35,1083.24 C2500.24,1082.13 2499.68,1080.8 2499.68,1079.23 C2499.68,1077.67 2500.24,1076.33 2501.35,1075.23 C2502.46,1074.12 2503.79,1073.56 2505.35,1073.56 C2506.92,1073.56 2508.25,1074.12 2509.35,1075.23 C2510.46,1076.33 2511.01,1077.67 2511.01,1079.23 C2511.01,1080.8 2510.46,1082.13 2509.35,1083.24 C2508.25,1084.35 2506.92,1084.9 2505.35,1084.9 C2503.79,1084.9 2502.46,1084.35 2501.35,1083.24"/>
</svg>
