<?xml version="1.0" encoding="UTF-8" standalone="no"?>
<svg width="2977.2px" height="4208.4px" viewBox="0 0 2977.2 4208.4"
 xmlns="http://www.w3.org/2000/svg" xmlns:xlink="http://www.w3.org/1999/xlink" version="1.2" baseProfile="tiny">
<title>Bmaj_Arpeggio.mscx</title>
<desc>Generated by MuseScore Studio 4.3.1</desc>
<path class="" fill="#ffffff" fill-rule="evenodd" d="M0,0 L2977.2,0 L2977.2,4208.4 L0,4208.4 L0,0 "/>
<polyline class="StaffLines" fill="none" stroke="#000000" stroke-width="2.00" stroke-linejoin="bevel" points="141.732,566.733 2835.47,566.733"/>
<polyline class="StaffLines" fill="none" stroke="#000000" stroke-width="2.00" stroke-linejoin="bevel" points="141.732,591.733 2835.47,591.733"/>
<polyline class="StaffLines" fill="none" stroke="#000000" stroke-width="2.00" stroke-linejoin="bevel" points="141.732,616.733 2835.47,616.733"/>
<polyline class="StaffLines" fill="none" stroke="#000000" stroke-width="2.00" stroke-linejoin="bevel" points="141.732,641.733 2835.47,641.733"/>
<polyline class="StaffLines" fill="none" stroke="#000000" stroke-width="2.00" stroke-linejoin="bevel" points="141.732,666.733 2835.47,666.733"/>
<polyline class="BarLine" fill="none" stroke="#000000" stroke-width="4.00" stroke-linejoin="bevel" points="2186.33,565.733 2186.33,667.733"/>
<polyline class="BarLine" fill="none" stroke="#000000" stroke-width="4.00" stroke-linejoin="bevel" points="1557.34,565.733 1557.34,667.733"/>
<polyline class="BarLine" fill="none" stroke="#000000" stroke-width="4.00" stroke-linejoin="bevel" points="2802.72,565.733 2802.72,667.733"/>
<polyline class="BarLine" fill="none" stroke="#000000" stroke-width="12.50" stroke-linejoin="bevel" points="2829.22,565.733 2829.22,667.733"/>
<polyline class="BarLine" fill="none" stroke="#000000" stroke-width="4.00" stroke-linejoin="bevel" points="928.357,565.733 928.357,667.733"/>
<path class="Accidental" d="M960.537,544.764 C961.974,544.368 962.693,544.722 962.693,545.826 L962.693,553.639 C962.693,554.42 962.073,555.04 960.833,555.498 L957.615,556.764 L957.615,570.936 L960.537,569.764 C961.974,569.368 962.693,569.727 962.693,570.842 L962.693,578.655 C962.693,579.436 962.073,580.05 960.833,580.498 L957.615,581.78 L957.615,597.983 C957.615,599.222 957.125,599.842 956.146,599.842 C955.167,599.842 954.677,599.222 954.677,597.983 L954.677,582.951 L945.396,586.655 L945.396,602.764 C945.396,604.003 944.909,604.623 943.935,604.623 C942.961,604.623 942.474,604.003 942.474,602.764 L942.474,587.826 L939.927,588.905 C938.563,589.488 937.88,589.097 937.88,587.733 L937.88,580.014 C937.88,579.368 938.469,578.785 939.646,578.264 L942.474,577.092 L942.474,562.826 L939.927,563.905 C938.563,564.488 937.88,564.097 937.88,562.733 L937.88,555.014 C937.88,554.358 938.469,553.769 939.646,553.248 L942.474,552.076 L942.474,535.967 C942.474,534.727 942.961,534.108 943.935,534.108 C944.909,534.108 945.396,534.727 945.396,535.967 L945.396,550.905 L954.677,547.108 L954.677,531.186 C954.677,529.946 955.167,529.326 956.146,529.326 C957.125,529.326 957.615,529.946 957.615,531.186 L957.615,545.936 L960.537,544.764 M945.396,561.655 L945.396,575.92 L954.677,572.108 L954.677,557.936 L945.396,561.655 "/>
<path class="Accidental" d="M1882.77,569.764 C1884.2,569.368 1884.92,569.722 1884.92,570.826 L1884.92,578.639 C1884.92,579.42 1884.3,580.04 1883.06,580.498 L1879.84,581.764 L1879.84,595.936 L1882.77,594.764 C1884.2,594.368 1884.92,594.727 1884.92,595.842 L1884.92,603.655 C1884.92,604.436 1884.3,605.05 1883.06,605.498 L1879.84,606.78 L1879.84,622.983 C1879.84,624.222 1879.35,624.842 1878.38,624.842 C1877.4,624.842 1876.91,624.222 1876.91,622.983 L1876.91,607.951 L1867.63,611.655 L1867.63,627.764 C1867.63,629.003 1867.14,629.623 1866.16,629.623 C1865.19,629.623 1864.7,629.003 1864.7,627.764 L1864.7,612.826 L1862.16,613.905 C1860.79,614.488 1860.11,614.097 1860.11,612.733 L1860.11,605.014 C1860.11,604.368 1860.7,603.785 1861.88,603.264 L1864.7,602.092 L1864.7,587.826 L1862.16,588.905 C1860.79,589.488 1860.11,589.097 1860.11,587.733 L1860.11,580.014 C1860.11,579.358 1860.7,578.769 1861.88,578.248 L1864.7,577.076 L1864.7,560.967 C1864.7,559.727 1865.19,559.108 1866.16,559.108 C1867.14,559.108 1867.63,559.727 1867.63,560.967 L1867.63,575.905 L1876.91,572.108 L1876.91,556.186 C1876.91,554.946 1877.4,554.326 1878.38,554.326 C1879.35,554.326 1879.84,554.946 1879.84,556.186 L1879.84,570.936 L1882.77,569.764 M1867.63,586.655 L1867.63,600.92 L1876.91,597.108 L1876.91,582.936 L1867.63,586.655 "/>
<path class="Accidental" d="M1589.52,544.764 C1590.96,544.368 1591.68,544.722 1591.68,545.826 L1591.68,553.639 C1591.68,554.42 1591.06,555.04 1589.82,555.498 L1586.6,556.764 L1586.6,570.936 L1589.52,569.764 C1590.96,569.368 1591.68,569.727 1591.68,570.842 L1591.68,578.655 C1591.68,579.436 1591.06,580.05 1589.82,580.498 L1586.6,581.78 L1586.6,597.983 C1586.6,599.222 1586.11,599.842 1585.13,599.842 C1584.15,599.842 1583.66,599.222 1583.66,597.983 L1583.66,582.951 L1574.38,586.655 L1574.38,602.764 C1574.38,604.003 1573.9,604.623 1572.92,604.623 C1571.95,604.623 1571.46,604.003 1571.46,602.764 L1571.46,587.826 L1568.91,588.905 C1567.55,589.488 1566.87,589.097 1566.87,587.733 L1566.87,580.014 C1566.87,579.368 1567.46,578.785 1568.63,578.264 L1571.46,577.092 L1571.46,562.826 L1568.91,563.905 C1567.55,564.488 1566.87,564.097 1566.87,562.733 L1566.87,555.014 C1566.87,554.358 1567.46,553.769 1568.63,553.248 L1571.46,552.076 L1571.46,535.967 C1571.46,534.727 1571.95,534.108 1572.92,534.108 C1573.9,534.108 1574.38,534.727 1574.38,535.967 L1574.38,550.905 L1583.66,547.108 L1583.66,531.186 C1583.66,529.946 1584.15,529.326 1585.13,529.326 C1586.11,529.326 1586.6,529.946 1586.6,531.186 L1586.6,545.936 L1589.52,544.764 M1574.38,561.655 L1574.38,575.92 L1583.66,572.108 L1583.66,557.936 L1574.38,561.655 "/>
<path class="Accidental" d="M624.791,569.764 C626.228,569.368 626.947,569.722 626.947,570.826 L626.947,578.639 C626.947,579.42 626.327,580.04 625.088,580.498 L621.869,581.764 L621.869,595.936 L624.791,594.764 C626.228,594.368 626.947,594.727 626.947,595.842 L626.947,603.655 C626.947,604.436 626.327,605.05 625.088,605.498 L621.869,606.78 L621.869,622.983 C621.869,624.222 621.379,624.842 620.4,624.842 C619.421,624.842 618.931,624.222 618.931,622.983 L618.931,607.951 L609.65,611.655 L609.65,627.764 C609.65,629.003 609.163,629.623 608.189,629.623 C607.215,629.623 606.728,629.003 606.728,627.764 L606.728,612.826 L604.181,613.905 C602.817,614.488 602.134,614.097 602.134,612.733 L602.134,605.014 C602.134,604.368 602.723,603.785 603.9,603.264 L606.728,602.092 L606.728,587.826 L604.181,588.905 C602.817,589.488 602.134,589.097 602.134,587.733 L602.134,580.014 C602.134,579.358 602.723,578.769 603.9,578.248 L606.728,577.076 L606.728,560.967 C606.728,559.727 607.215,559.108 608.189,559.108 C609.163,559.108 609.65,559.727 609.65,560.967 L609.65,575.905 L618.931,572.108 L618.931,556.186 C618.931,554.946 619.421,554.326 620.4,554.326 C621.379,554.326 621.869,554.946 621.869,556.186 L621.869,570.936 L624.791,569.764 M609.65,586.655 L609.65,600.92 L618.931,597.108 L618.931,582.936 L609.65,586.655 "/>
<polyline class="Stem" fill="none" stroke="#000000" stroke-width="3.25" stroke-linejoin="bevel" points="969.583,571.633 969.583,654.233"/>
<polyline class="Stem" fill="none" stroke="#000000" stroke-width="3.25" stroke-linejoin="bevel" points="2214.96,621.633 2214.96,691.733"/>
<polyline class="Stem" fill="none" stroke="#000000" stroke-width="3.25" stroke-linejoin="bevel" points="633.838,596.633 633.838,679.233"/>
<polyline class="Stem" fill="none" stroke="#000000" stroke-width="3.25" stroke-linejoin="bevel" points="1891.81,596.633 1891.81,679.233"/>
<polyline class="Stem" fill="none" stroke="#000000" stroke-width="3.25" stroke-linejoin="bevel" points="1598.57,571.633 1598.57,654.233"/>
<polyline class="Stem" fill="none" stroke="#000000" stroke-width="3.25" stroke-linejoin="bevel" points="340.596,621.633 340.596,691.733"/>
<path class="Note" d="M2220.75,627.373 C2222.64,627.373 2226.6,625.42 2232.62,621.514 C2238.65,617.608 2242.2,614.988 2243.27,613.655 C2244.34,612.321 2244.88,611.134 2244.88,610.092 C2244.88,609.05 2244.45,608.123 2243.61,607.311 C2242.76,606.498 2241.78,606.092 2240.68,606.092 C2238.73,606.092 2234.74,608.061 2228.72,611.998 C2222.69,615.936 2219.16,618.556 2218.11,619.858 C2217.07,621.16 2216.55,622.332 2216.55,623.373 C2216.55,624.415 2216.96,625.342 2217.78,626.155 C2218.6,626.967 2219.59,627.373 2220.75,627.373 M2239.71,602.967 C2245.3,602.967 2248.1,605.373 2248.1,610.186 C2248.1,612.53 2247.42,615.248 2246.05,618.342 C2244.69,621.436 2242.86,623.795 2240.58,625.42 C2235.57,628.806 2229.29,630.498 2221.74,630.498 C2216.13,630.498 2213.33,628.092 2213.33,623.28 C2213.33,621.134 2214,618.464 2215.33,615.272 C2216.67,612.079 2218.5,609.67 2220.85,608.045 C2225.87,604.66 2232.16,602.967 2239.71,602.967"/>
<path class="Note" d="M1897.61,602.373 C1899.5,602.373 1903.45,600.42 1909.48,596.514 C1915.5,592.608 1919.05,589.988 1920.13,588.655 C1921.2,587.321 1921.73,586.134 1921.73,585.092 C1921.73,584.05 1921.31,583.123 1920.46,582.311 C1919.61,581.498 1918.64,581.092 1917.53,581.092 C1915.58,581.092 1911.6,583.061 1905.57,586.998 C1899.54,590.936 1896.01,593.556 1894.97,594.858 C1893.93,596.16 1893.41,597.332 1893.41,598.373 C1893.41,599.415 1893.82,600.342 1894.63,601.155 C1895.45,601.967 1896.44,602.373 1897.61,602.373 M1916.56,577.967 C1922.16,577.967 1924.95,580.373 1924.95,585.186 C1924.95,587.53 1924.27,590.248 1922.91,593.342 C1921.54,596.436 1919.72,598.795 1917.44,600.42 C1912.43,603.806 1906.15,605.498 1898.59,605.498 C1892.99,605.498 1890.19,603.092 1890.19,598.28 C1890.19,596.134 1890.85,593.464 1892.19,590.272 C1893.52,587.079 1895.36,584.67 1897.7,583.045 C1902.72,579.66 1909.01,577.967 1916.56,577.967"/>
<path class="Note" d="M1604.37,577.373 C1606.25,577.373 1610.21,575.42 1616.24,571.514 C1622.26,567.608 1625.81,564.988 1626.88,563.655 C1627.96,562.321 1628.49,561.134 1628.49,560.092 C1628.49,559.05 1628.07,558.123 1627.22,557.311 C1626.37,556.498 1625.39,556.092 1624.29,556.092 C1622.34,556.092 1618.35,558.061 1612.33,561.998 C1606.3,565.936 1602.77,568.556 1601.73,569.858 C1600.69,571.16 1600.16,572.332 1600.16,573.373 C1600.16,574.415 1600.57,575.342 1601.39,576.155 C1602.21,576.967 1603.2,577.373 1604.37,577.373 M1623.32,552.967 C1628.91,552.967 1631.71,555.373 1631.71,560.186 C1631.71,562.53 1631.03,565.248 1629.66,568.342 C1628.3,571.436 1626.48,573.795 1624.2,575.42 C1619.19,578.806 1612.9,580.498 1605.35,580.498 C1599.75,580.498 1596.95,578.092 1596.95,573.28 C1596.95,571.134 1597.61,568.464 1598.95,565.272 C1600.28,562.079 1602.12,559.67 1604.46,558.045 C1609.48,554.66 1615.77,552.967 1623.32,552.967"/>
<path class="Note" d="M346.393,627.373 C348.278,627.373 352.234,625.42 358.26,621.514 C364.286,617.608 367.835,614.988 368.908,613.655 C369.981,612.321 370.518,611.134 370.518,610.092 C370.518,609.05 370.093,608.123 369.244,607.311 C368.395,606.498 367.419,606.092 366.315,606.092 C364.367,606.092 360.38,608.061 354.354,611.998 C348.328,615.936 344.794,618.556 343.752,619.858 C342.71,621.16 342.19,622.332 342.19,623.373 C342.19,624.415 342.598,625.342 343.416,626.155 C344.234,626.967 345.226,627.373 346.393,627.373 M365.346,602.967 C370.94,602.967 373.736,605.373 373.736,610.186 C373.736,612.53 373.054,615.248 371.69,618.342 C370.325,621.436 368.502,623.795 366.221,625.42 C361.21,628.806 354.929,630.498 347.377,630.498 C341.773,630.498 338.971,628.092 338.971,623.28 C338.971,621.134 339.637,618.464 340.971,615.272 C342.304,612.079 344.143,609.67 346.486,608.045 C351.507,604.66 357.794,602.967 365.346,602.967"/>
<path class="Note" d="M639.635,602.373 C641.52,602.373 645.476,600.42 651.502,596.514 C657.528,592.608 661.077,589.988 662.15,588.655 C663.223,587.321 663.76,586.134 663.76,585.092 C663.76,584.05 663.335,583.123 662.486,582.311 C661.637,581.498 660.661,581.092 659.556,581.092 C657.608,581.092 653.621,583.061 647.595,586.998 C641.569,590.936 638.036,593.556 636.994,594.858 C635.952,596.16 635.431,597.332 635.431,598.373 C635.431,599.415 635.84,600.342 636.658,601.155 C637.476,601.967 638.468,602.373 639.635,602.373 M658.588,577.967 C664.181,577.967 666.978,580.373 666.978,585.186 C666.978,587.53 666.296,590.248 664.931,593.342 C663.567,596.436 661.744,598.795 659.463,600.42 C654.452,603.806 648.171,605.498 640.619,605.498 C635.015,605.498 632.213,603.092 632.213,598.28 C632.213,596.134 632.879,593.464 634.213,590.272 C635.546,587.079 637.385,584.67 639.728,583.045 C644.749,579.66 651.036,577.967 658.588,577.967"/>
<path class="Note" d="M975.38,577.373 C977.266,577.373 981.221,575.42 987.248,571.514 C993.274,567.608 996.823,564.988 997.896,563.655 C998.969,562.321 999.505,561.134 999.505,560.092 C999.505,559.05 999.081,558.123 998.232,557.311 C997.383,556.498 996.406,556.092 995.302,556.092 C993.354,556.092 989.367,558.061 983.341,561.998 C977.315,565.936 973.781,568.556 972.74,569.858 C971.698,571.16 971.177,572.332 971.177,573.373 C971.177,574.415 971.586,575.342 972.404,576.155 C973.221,576.967 974.214,577.373 975.38,577.373 M994.333,552.967 C999.927,552.967 1002.72,555.373 1002.72,560.186 C1002.72,562.53 1002.04,565.248 1000.68,568.342 C999.313,571.436 997.49,573.795 995.208,575.42 C990.198,578.806 983.917,580.498 976.365,580.498 C970.761,580.498 967.958,578.092 967.958,573.28 C967.958,571.134 968.625,568.464 969.958,565.272 C971.292,562.079 973.13,559.67 975.474,558.045 C980.495,554.66 986.781,552.967 994.333,552.967"/>
<path class="Clef" d="M203.623,673.858 L203.623,671.717 C203.56,670.613 203.399,668.889 203.139,666.545 C199.889,667.066 196.993,667.326 194.451,667.326 C185.337,667.326 177.605,663.727 171.256,656.53 C164.907,649.332 161.732,640.754 161.732,630.795 C161.732,628.129 162.253,624.923 163.295,621.178 C164.337,617.433 165.297,614.925 166.178,613.655 C167.058,612.384 168.378,610.155 170.139,606.967 C170.659,605.988 172.352,603.837 175.217,600.514 C175.738,599.806 176.193,599.222 176.584,598.764 C176.975,598.306 177.607,597.49 178.482,596.319 C179.357,595.147 180.3,594.056 181.31,593.045 C182.321,592.035 183.217,591.058 183.998,590.115 C184.779,589.173 185.498,588.379 186.154,587.733 C183.81,579.983 182.378,574.024 181.857,569.858 C181.337,565.691 181.076,560.579 181.076,554.522 C181.076,548.464 182.378,542.962 184.982,538.014 C187.514,532.879 191.06,528.681 195.623,525.42 C195.883,525.222 196.225,525.123 196.646,525.123 C197.068,525.123 197.378,525.222 197.576,525.42 C201.087,529.649 204.128,535.149 206.701,541.92 C209.274,548.691 210.56,555.024 210.56,560.92 C210.56,566.816 209.066,572.498 206.076,577.967 C202.691,583.759 198.326,589.748 192.982,595.936 C194.347,600.227 196.17,606.962 198.451,616.139 L199.045,616.139 C199.305,616.076 199.529,616.045 199.717,616.045 C207.081,616.045 213.089,618.634 217.74,623.811 C222.391,628.988 224.717,634.962 224.717,641.733 C224.717,650.129 221.238,656.899 214.279,662.045 C212.258,663.545 209.878,664.717 207.139,665.561 C207.472,669.79 207.639,672.605 207.639,674.006 C207.639,675.407 207.571,677.899 207.435,681.483 C207.373,687.597 205.29,692.837 201.185,697.201 C197.081,701.566 192.394,703.748 187.123,703.748 C181.852,703.748 177.36,701.876 173.646,698.131 C169.933,694.386 168.076,689.847 168.076,684.514 C168.076,681.712 169.154,679.332 171.31,677.373 C173.519,675.425 176.006,674.451 178.771,674.451 C181.537,674.451 183.8,675.462 185.56,677.483 C187.383,679.368 188.295,681.644 188.295,684.311 C188.295,686.977 187.383,689.222 185.56,691.045 C183.738,692.868 181.555,693.78 179.014,693.78 C177.972,693.78 176.967,693.587 175.998,693.201 C178.863,697.431 182.54,699.545 187.029,699.545 C191.519,699.545 195.36,697.691 198.553,693.983 C201.745,690.274 203.342,685.91 203.342,680.889 L203.623,673.858 M206.748,661.561 C210.133,660.321 212.821,658.123 214.81,654.967 C216.8,651.811 217.795,648.67 217.795,645.545 C217.795,640.92 216.199,636.785 213.006,633.139 C209.813,629.493 205.774,627.441 200.889,626.983 C203.691,640.722 205.644,652.248 206.748,661.561 M168.967,638.998 C168.967,645.446 171.537,651.079 176.678,655.897 C181.818,660.714 187.842,663.123 194.748,663.123 C197.477,663.123 200.144,662.925 202.748,662.53 C201.706,652.634 199.654,640.785 196.592,626.983 C192.758,627.379 189.782,628.699 187.662,630.944 C185.542,633.188 184.482,635.743 184.482,638.608 C184.482,643.556 187.123,647.561 192.404,650.623 C192.852,650.884 193.076,651.324 193.076,651.944 C193.076,652.563 192.865,653.1 192.443,653.553 C192.021,654.006 191.649,654.233 191.326,654.233 C191.003,654.233 190.581,654.17 190.06,654.045 C182.435,649.879 178.623,643.592 178.623,635.186 C178.623,631.217 180.024,627.41 182.826,623.764 C185.753,620.118 189.56,617.774 194.248,616.733 C192.425,609.441 190.93,603.743 189.764,599.639 C180.847,609.67 175.31,617.092 173.154,621.905 C170.363,628.155 168.967,633.852 168.967,638.998 M201.576,539.686 C196.691,542.092 192.834,545.574 190.006,550.131 C187.178,554.688 185.764,559.472 185.764,564.483 C185.764,569.493 186.935,575.972 189.279,583.92 C193.967,578.254 197.514,572.946 199.92,567.998 C202.326,563.05 203.529,558.152 203.529,553.303 C203.529,548.454 202.878,543.915 201.576,539.686"/>
<path class="TimeSig" d="M273.021,567.912 C274.516,567.912 275.949,567.686 277.318,567.233 C278.688,566.78 279.665,566.553 280.248,566.553 C280.831,566.553 281.222,566.907 281.42,567.615 C281.42,567.688 281.352,567.886 281.217,568.209 L252.811,601.225 L269.498,601.225 L269.498,588.131 C269.498,586.506 270.446,585.334 272.342,584.615 C274.29,583.897 276.503,581.001 278.982,575.928 C279.17,575.532 279.462,575.334 279.857,575.334 C280.639,575.334 281.092,575.793 281.217,576.709 L281.217,601.225 L288.357,601.225 C289.264,601.225 289.751,601.712 289.818,602.686 C289.886,603.66 289.399,604.147 288.357,604.147 L281.217,604.147 L281.217,604.928 C281.217,607.532 281.868,609.746 283.17,611.569 C284.67,613.391 286.43,614.303 288.451,614.303 C289.232,614.303 289.623,614.694 289.623,615.475 C289.623,616.256 289.087,616.647 288.014,616.647 C286.941,616.647 284.938,616.436 282.006,616.014 C279.074,615.592 276.811,615.381 275.217,615.381 C273.623,615.381 271.41,615.592 268.576,616.014 C265.743,616.436 263.613,616.647 262.186,616.647 C261.404,616.647 261.014,616.256 261.014,615.475 C261.014,614.694 261.404,614.303 262.186,614.303 C264.196,614.303 265.951,613.391 267.451,611.569 C268.816,609.683 269.498,607.47 269.498,604.928 L269.498,604.147 L252.811,604.147 C251.956,604.147 251.219,603.92 250.6,603.467 C249.98,603.014 249.67,602.592 249.67,602.201 C249.67,601.811 250.485,600.639 252.115,598.686 C253.745,596.733 256.074,592.972 259.1,587.405 C262.126,581.837 263.639,575.438 263.639,568.209 C263.639,567.168 264.097,566.647 265.014,566.647 C265.212,566.647 265.521,566.712 265.943,566.842 C266.365,566.972 267.277,567.183 268.678,567.475 C270.079,567.766 271.527,567.912 273.021,567.912"/>
<path class="TimeSig" d="M273.021,618.084 C274.516,618.084 275.949,617.858 277.318,617.405 C278.688,616.951 279.665,616.725 280.248,616.725 C280.831,616.725 281.222,617.079 281.42,617.787 C281.42,617.86 281.352,618.058 281.217,618.381 L252.811,651.397 L269.498,651.397 L269.498,638.303 C269.498,636.678 270.446,635.506 272.342,634.787 C274.29,634.069 276.503,631.173 278.982,626.1 C279.17,625.704 279.462,625.506 279.857,625.506 C280.639,625.506 281.092,625.964 281.217,626.881 L281.217,651.397 L288.357,651.397 C289.264,651.397 289.751,651.884 289.818,652.858 C289.886,653.832 289.399,654.319 288.357,654.319 L281.217,654.319 L281.217,655.1 C281.217,657.704 281.868,659.918 283.17,661.74 C284.67,663.563 286.43,664.475 288.451,664.475 C289.232,664.475 289.623,664.865 289.623,665.647 C289.623,666.428 289.087,666.819 288.014,666.819 C286.941,666.819 284.938,666.608 282.006,666.186 C279.074,665.764 276.811,665.553 275.217,665.553 C273.623,665.553 271.41,665.764 268.576,666.186 C265.743,666.608 263.613,666.819 262.186,666.819 C261.404,666.819 261.014,666.428 261.014,665.647 C261.014,664.865 261.404,664.475 262.186,664.475 C264.196,664.475 265.951,663.563 267.451,661.74 C268.816,659.855 269.498,657.642 269.498,655.1 L269.498,654.319 L252.811,654.319 C251.956,654.319 251.219,654.092 250.6,653.639 C249.98,653.186 249.67,652.764 249.67,652.373 C249.67,651.983 250.485,650.811 252.115,648.858 C253.745,646.905 256.074,643.144 259.1,637.576 C262.126,632.009 263.639,625.61 263.639,618.381 C263.639,617.339 264.097,616.819 265.014,616.819 C265.212,616.819 265.521,616.884 265.943,617.014 C266.365,617.144 267.277,617.355 268.678,617.647 C270.079,617.938 271.527,618.084 273.021,618.084"/>
<path class="Rest" d="M1298.63,616.733 L1263.09,616.733 C1262.43,616.733 1262.1,616.405 1262.1,615.748 L1262.1,602.076 C1262.1,601.431 1262.43,601.108 1263.09,601.108 L1298.63,601.108 C1299.28,601.108 1299.6,601.431 1299.6,602.076 L1299.6,615.748 C1299.6,616.405 1299.28,616.733 1298.63,616.733"/>
<path class="Rest" d="M2544.01,616.733 L2508.46,616.733 C2507.8,616.733 2507.48,616.405 2507.48,615.748 L2507.48,602.076 C2507.48,601.431 2507.8,601.108 2508.46,601.108 L2544.01,601.108 C2544.65,601.108 2544.98,601.431 2544.98,602.076 L2544.98,615.748 C2544.98,616.405 2544.65,616.733 2544.01,616.733"/>
</svg>
