<?xml version="1.0" encoding="UTF-8" standalone="no"?>
<svg width="2977.2px" height="4208.4px" viewBox="0 0 2977.2 4208.4"
 xmlns="http://www.w3.org/2000/svg" xmlns:xlink="http://www.w3.org/1999/xlink" version="1.2" baseProfile="tiny">
<title>Teapot.mscx</title>
<desc>Generated by MuseScore Studio 4.3.1</desc>
<path class="" fill="#ffffff" fill-rule="evenodd" d="M0,0 L2977.2,0 L2977.2,4208.4 L0,4208.4 L0,0 "/>
<polyline class="StaffLines" fill="none" stroke="#000000" stroke-width="2.00" stroke-linejoin="bevel" points="141.732,316.732 2835.47,316.732"/>
<polyline class="StaffLines" fill="none" stroke="#000000" stroke-width="2.00" stroke-linejoin="bevel" points="141.732,341.732 2835.47,341.732"/>
<polyline class="StaffLines" fill="none" stroke="#000000" stroke-width="2.00" stroke-linejoin="bevel" points="141.732,366.733 2835.47,366.733"/>
<polyline class="StaffLines" fill="none" stroke="#000000" stroke-width="2.00" stroke-linejoin="bevel" points="141.732,391.733 2835.47,391.733"/>
<polyline class="StaffLines" fill="none" stroke="#000000" stroke-width="2.00" stroke-linejoin="bevel" points="141.732,416.733 2835.47,416.733"/>
<polyline class="StaffLines" fill="none" stroke="#000000" stroke-width="2.00" stroke-linejoin="bevel" points="141.732,791.733 2835.47,791.733"/>
<polyline class="StaffLines" fill="none" stroke="#000000" stroke-width="2.00" stroke-linejoin="bevel" points="141.732,816.733 2835.47,816.733"/>
<polyline class="StaffLines" fill="none" stroke="#000000" stroke-width="2.00" stroke-linejoin="bevel" points="141.732,841.733 2835.47,841.733"/>
<polyline class="StaffLines" fill="none" stroke="#000000" stroke-width="2.00" stroke-linejoin="bevel" points="141.732,866.733 2835.47,866.733"/>
<polyline class="StaffLines" fill="none" stroke="#000000" stroke-width="2.00" stroke-linejoin="bevel" points="141.732,891.733 2835.47,891.733"/>
<path class="MeasureNumber" d="M146.514,733.873 C146.514,732.446 146.199,731.181 145.568,730.076 C144.938,728.972 144.178,728.118 143.287,727.514 C142.396,726.91 141.399,726.412 140.295,726.022 C139.191,725.631 138.23,725.376 137.412,725.256 C136.594,725.136 135.883,725.076 135.279,725.076 C134.956,725.076 134.795,724.967 134.795,724.748 C134.795,724.675 134.805,724.613 134.826,724.561 L139.185,715.264 L147.545,715.264 C147.972,715.264 148.313,715.196 148.568,715.061 C148.824,714.925 149.097,714.644 149.389,714.217 L149.748,714.498 L148.232,717.842 C148.128,718.061 147.821,718.17 147.31,718.17 L139.467,718.17 L137.795,721.608 C141.68,722.306 144.571,723.441 146.467,725.014 C148.363,726.587 149.31,728.894 149.31,731.936 C149.31,733.53 149.063,734.946 148.568,736.186 C148.074,737.425 147.446,738.423 146.685,739.178 C145.925,739.933 145.045,740.553 144.045,741.037 C143.045,741.522 142.087,741.853 141.17,742.03 C140.253,742.207 139.326,742.295 138.389,742.295 C136.899,742.295 135.714,742.074 134.834,741.631 C133.954,741.188 133.514,740.582 133.514,739.811 C133.514,738.821 134.087,738.326 135.232,738.326 C135.982,738.326 136.949,738.735 138.131,739.553 C139.313,740.371 140.253,740.78 140.951,740.78 C142.524,740.78 143.844,740.113 144.912,738.78 C145.98,737.446 146.514,735.811 146.514,733.873"/>
<polyline class="BarLine" fill="none" stroke="#000000" stroke-width="4.00" stroke-linejoin="bevel" points="2258.24,315.732 2258.24,417.733"/>
<polyline class="BarLine" fill="none" stroke="#000000" stroke-width="4.00" stroke-linejoin="bevel" points="2802.72,790.733 2802.72,892.733"/>
<polyline class="BarLine" fill="none" stroke="#000000" stroke-width="12.50" stroke-linejoin="bevel" points="2829.22,790.733 2829.22,892.733"/>
<polyline class="BarLine" fill="none" stroke="#000000" stroke-width="4.00" stroke-linejoin="bevel" points="2270.3,790.733 2270.3,892.733"/>
<polyline class="BarLine" fill="none" stroke="#000000" stroke-width="4.00" stroke-linejoin="bevel" points="1570.08,790.733 1570.08,892.733"/>
<polyline class="BarLine" fill="none" stroke="#000000" stroke-width="4.00" stroke-linejoin="bevel" points="1611.77,315.732 1611.77,417.733"/>
<polyline class="BarLine" fill="none" stroke="#000000" stroke-width="4.00" stroke-linejoin="bevel" points="2833.47,315.732 2833.47,417.733"/>
<polyline class="BarLine" fill="none" stroke="#000000" stroke-width="4.00" stroke-linejoin="bevel" points="1037.66,790.733 1037.66,892.733"/>
<polyline class="BarLine" fill="none" stroke="#000000" stroke-width="4.00" stroke-linejoin="bevel" points="1084.05,315.732 1084.05,417.733"/>
<polyline class="Stem" fill="none" stroke="#000000" stroke-width="3.25" stroke-linejoin="bevel" points="1384.52,849.433 1384.52,772.983"/>
<polyline class="Stem" fill="none" stroke="#000000" stroke-width="3.25" stroke-linejoin="bevel" points="2145.04,398.363 2145.04,316.732"/>
<polyline class="Stem" fill="none" stroke="#000000" stroke-width="3.25" stroke-linejoin="bevel" points="1963.98,848.364 1963.98,785.483"/>
<polyline class="Stem" fill="none" stroke="#000000" stroke-width="3.25" stroke-linejoin="bevel" points="2328.59,873.364 2328.59,791.733"/>
<polyline class="Stem" fill="none" stroke="#000000" stroke-width="3.25" stroke-linejoin="bevel" points="1838.42,847.602 1838.42,923.583"/>
<polyline class="Stem" fill="none" stroke="#000000" stroke-width="3.25" stroke-linejoin="bevel" points="2316.53,410.863 2316.53,329.232"/>
<polyline class="Stem" fill="none" stroke="#000000" stroke-width="3.25" stroke-linejoin="bevel" points="1598.7,822.602 1598.7,904.233"/>
<polyline class="Stem" fill="none" stroke="#000000" stroke-width="3.25" stroke-linejoin="bevel" points="2459.03,410.863 2459.03,341.732"/>
<polyline class="Stem" fill="none" stroke="#000000" stroke-width="3.25" stroke-linejoin="bevel" points="2554.02,410.863 2554.02,341.732"/>
<polyline class="Stem" fill="none" stroke="#000000" stroke-width="3.25" stroke-linejoin="bevel" points="2649.92,424.433 2649.92,341.732"/>
<polyline class="Stem" fill="none" stroke="#000000" stroke-width="3.25" stroke-linejoin="bevel" points="587.503,873.364 587.503,793.828"/>
<polyline class="Stem" fill="none" stroke="#000000" stroke-width="3.25" stroke-linejoin="bevel" points="1210.12,822.602 1210.12,904.233"/>
<polyline class="Stem" fill="none" stroke="#000000" stroke-width="3.25" stroke-linejoin="bevel" points="1066.28,847.602 1066.28,916.733"/>
<polyline class="Stem" fill="none" stroke="#000000" stroke-width="3.25" stroke-linejoin="bevel" points="893.451,822.602 893.451,904.233"/>
<polyline class="Stem" fill="none" stroke="#000000" stroke-width="3.25" stroke-linejoin="bevel" points="2155.76,860.864 2155.76,779.233"/>
<polyline class="Stem" fill="none" stroke="#000000" stroke-width="3.25" stroke-linejoin="bevel" points="395.725,898.364 395.725,797.948"/>
<polyline class="Stem" fill="none" stroke="#000000" stroke-width="3.25" stroke-linejoin="bevel" points="2059.87,848.364 2059.87,785.483"/>
<polyline class="Stem" fill="none" stroke="#000000" stroke-width="3.25" stroke-linejoin="bevel" points="779.281,848.364 779.281,772.983"/>
<polyline class="Stem" fill="none" stroke="#000000" stroke-width="3.25" stroke-linejoin="bevel" points="683.392,860.864 683.392,791.768"/>
<polyline class="Stem" fill="none" stroke="#000000" stroke-width="3.25" stroke-linejoin="bevel" points="491.614,885.864 491.614,795.888"/>
<polyline class="Stem" fill="none" stroke="#000000" stroke-width="3.25" stroke-linejoin="bevel" points="1670.06,385.863 1670.06,304.232"/>
<polyline class="Stem" fill="none" stroke="#000000" stroke-width="3.25" stroke-linejoin="bevel" points="828.348,373.363 828.348,297.982"/>
<polyline class="Stem" fill="none" stroke="#000000" stroke-width="3.25" stroke-linejoin="bevel" points="941.177,347.602 941.177,429.233"/>
<polyline class="Stem" fill="none" stroke="#000000" stroke-width="3.25" stroke-linejoin="bevel" points="1112.67,372.602 1112.67,441.733"/>
<polyline class="Stem" fill="none" stroke="#000000" stroke-width="3.25" stroke-linejoin="bevel" points="733.352,385.863 733.352,316.768"/>
<polyline class="Stem" fill="none" stroke="#000000" stroke-width="3.25" stroke-linejoin="bevel" points="638.357,398.363 638.357,318.828"/>
<polyline class="Stem" fill="none" stroke="#000000" stroke-width="3.25" stroke-linejoin="bevel" points="1255.16,347.602 1255.16,429.233"/>
<polyline class="Stem" fill="none" stroke="#000000" stroke-width="3.25" stroke-linejoin="bevel" points="1428.22,374.433 1428.22,297.982"/>
<polyline class="Stem" fill="none" stroke="#000000" stroke-width="3.25" stroke-linejoin="bevel" points="543.361,410.863 543.361,320.887"/>
<polyline class="Stem" fill="none" stroke="#000000" stroke-width="3.25" stroke-linejoin="bevel" points="2617.16,899.433 2617.16,816.733"/>
<polyline class="Stem" fill="none" stroke="#000000" stroke-width="3.25" stroke-linejoin="bevel" points="2472.42,885.864 2472.42,804.233"/>
<polyline class="Stem" fill="none" stroke="#000000" stroke-width="3.25" stroke-linejoin="bevel" points="2002.55,398.363 2002.55,316.732"/>
<polyline class="Stem" fill="none" stroke="#000000" stroke-width="3.25" stroke-linejoin="bevel" points="1907.55,385.863 1907.55,316.732"/>
<polyline class="Stem" fill="none" stroke="#000000" stroke-width="3.25" stroke-linejoin="bevel" points="448.365,423.363 448.365,322.947"/>
<polyline class="Stem" fill="none" stroke="#000000" stroke-width="3.25" stroke-linejoin="bevel" points="1812.55,385.863 1812.55,316.732"/>
<path class="Hook" d="M1859.55,850.623 C1861.05,850.623 1862.63,853.048 1864.29,857.897 C1865.95,862.746 1866.78,867.189 1866.78,871.225 C1866.78,875.261 1865.86,879.168 1864,882.944 C1862.15,886.72 1859.92,890.04 1857.32,892.905 L1849.3,901.889 C1846.83,904.754 1844.65,908.04 1842.76,911.748 C1840.87,915.457 1839.92,919.202 1839.92,922.983 L1836.8,922.983 L1836.8,897.983 L1839.92,897.983 C1850.86,891.077 1857.73,884.957 1860.53,879.623 C1861.9,877.019 1862.58,874.384 1862.58,871.717 C1862.58,865.53 1860.79,859.373 1857.21,853.248 L1857.21,852.858 C1857.21,852.275 1857.44,851.756 1857.89,851.303 C1858.35,850.85 1858.9,850.623 1859.55,850.623"/>
<path class="Note" d="M1619.05,802.967 C1622.17,802.967 1624.77,803.748 1626.86,805.311 C1628.94,806.873 1629.98,809.118 1629.98,812.045 C1629.98,816.535 1627.66,820.733 1623.01,824.639 C1618.36,828.545 1613.36,830.498 1608.01,830.498 C1604.89,830.498 1602.25,829.686 1600.11,828.061 C1598.09,826.3 1597.08,824.087 1597.08,821.42 C1597.08,817.056 1599.39,812.889 1604.01,808.92 C1608.64,804.952 1613.65,802.967 1619.05,802.967"/>
<path class="Note" d="M482.293,877.967 C485.418,877.967 488.023,878.748 490.106,880.311 C492.189,881.873 493.231,884.118 493.231,887.045 C493.231,891.535 490.905,895.733 486.254,899.639 C481.603,903.545 476.606,905.498 471.262,905.498 C468.137,905.498 465.502,904.686 463.356,903.061 C461.335,901.301 460.325,899.087 460.325,896.42 C460.325,892.056 462.637,887.889 467.262,883.92 C471.887,879.952 476.898,877.967 482.293,877.967"/>
<path class="Note" d="M1230.46,802.967 C1233.59,802.967 1236.19,803.748 1238.27,805.311 C1240.36,806.873 1241.4,809.118 1241.4,812.045 C1241.4,816.535 1239.07,820.733 1234.42,824.639 C1229.77,828.545 1224.77,830.498 1219.43,830.498 C1216.31,830.498 1213.67,829.686 1211.52,828.061 C1209.5,826.3 1208.49,824.087 1208.49,821.42 C1208.49,817.056 1210.81,812.889 1215.43,808.92 C1220.06,804.952 1225.07,802.967 1230.46,802.967"/>
<path class="Note" d="M534.041,402.967 C537.166,402.967 539.77,403.748 541.853,405.311 C543.936,406.873 544.978,409.118 544.978,412.045 C544.978,416.535 542.653,420.733 538.002,424.639 C533.351,428.545 528.353,430.498 523.009,430.498 C519.884,430.498 517.249,429.686 515.103,428.061 C513.082,426.3 512.072,424.087 512.072,421.42 C512.072,417.055 514.384,412.889 519.009,408.92 C523.634,404.951 528.645,402.967 534.041,402.967"/>
<path class="Note" d="M1954.66,840.467 C1957.78,840.467 1960.39,841.248 1962.47,842.811 C1964.55,844.373 1965.6,846.618 1965.6,849.545 C1965.6,854.035 1963.27,858.233 1958.62,862.139 C1953.97,866.045 1948.97,867.998 1943.63,867.998 C1940.5,867.998 1937.87,867.186 1935.72,865.561 C1933.7,863.801 1932.69,861.587 1932.69,858.92 C1932.69,854.556 1935,850.389 1939.63,846.42 C1944.25,842.452 1949.26,840.467 1954.66,840.467"/>
<path class="Note" d="M1086.63,827.967 C1089.75,827.967 1092.36,828.748 1094.44,830.311 C1096.52,831.873 1097.57,834.118 1097.57,837.045 C1097.57,841.535 1095.24,845.733 1090.59,849.639 C1085.94,853.545 1080.94,855.498 1075.6,855.498 C1072.47,855.498 1069.84,854.686 1067.69,853.061 C1065.67,851.301 1064.66,849.087 1064.66,846.42 C1064.66,842.056 1066.97,837.889 1071.6,833.92 C1076.22,829.952 1081.23,827.967 1086.63,827.967"/>
<path class="Note" d="M1358.85,864.873 C1360.73,864.873 1364.69,862.92 1370.71,859.014 C1376.74,855.108 1380.29,852.488 1381.36,851.155 C1382.43,849.821 1382.97,848.634 1382.97,847.592 C1382.97,846.551 1382.55,845.623 1381.7,844.811 C1380.85,843.998 1379.87,843.592 1378.77,843.592 C1376.82,843.592 1372.83,845.561 1366.81,849.498 C1360.78,853.436 1357.25,856.056 1356.21,857.358 C1355.16,858.66 1354.64,859.832 1354.64,860.873 C1354.64,861.915 1355.05,862.842 1355.87,863.655 C1356.69,864.467 1357.68,864.873 1358.85,864.873 M1377.8,840.467 C1383.39,840.467 1386.19,842.873 1386.19,847.686 C1386.19,850.03 1385.51,852.748 1384.14,855.842 C1382.78,858.936 1380.96,861.295 1378.67,862.92 C1373.66,866.306 1367.38,867.998 1359.83,867.998 C1354.23,867.998 1351.42,865.592 1351.42,860.78 C1351.42,858.634 1352.09,855.965 1353.42,852.772 C1354.76,849.579 1356.6,847.17 1358.94,845.545 C1363.96,842.16 1370.25,840.467 1377.8,840.467"/>
<path class="Note" d="M629.036,390.467 C632.161,390.467 634.765,391.248 636.849,392.811 C638.932,394.373 639.974,396.618 639.974,399.545 C639.974,404.035 637.648,408.233 632.997,412.139 C628.346,416.045 623.349,417.998 618.005,417.998 C614.88,417.998 612.245,417.186 610.099,415.561 C608.078,413.8 607.067,411.587 607.067,408.92 C607.067,404.555 609.38,400.389 614.005,396.42 C618.63,392.451 623.64,390.467 629.036,390.467"/>
<path class="Note" d="M2591.49,914.873 C2593.37,914.873 2597.33,912.92 2603.35,909.014 C2609.38,905.108 2612.93,902.488 2614,901.155 C2615.08,899.821 2615.61,898.634 2615.61,897.592 C2615.61,896.551 2615.19,895.623 2614.34,894.811 C2613.49,893.998 2612.51,893.592 2611.41,893.592 C2609.46,893.592 2605.47,895.561 2599.45,899.498 C2593.42,903.436 2589.89,906.056 2588.85,907.358 C2587.81,908.66 2587.28,909.832 2587.28,910.873 C2587.28,911.915 2587.69,912.842 2588.51,913.655 C2589.33,914.467 2590.32,914.873 2591.49,914.873 M2610.44,890.467 C2616.03,890.467 2618.83,892.873 2618.83,897.686 C2618.83,900.03 2618.15,902.748 2616.78,905.842 C2615.42,908.936 2613.6,911.295 2611.32,912.92 C2606.31,916.306 2600.02,917.998 2592.47,917.998 C2586.87,917.998 2584.07,915.592 2584.07,910.78 C2584.07,908.634 2584.73,905.965 2586.07,902.772 C2587.4,899.579 2589.24,897.17 2591.58,895.545 C2596.6,892.16 2602.89,890.467 2610.44,890.467"/>
<path class="Note" d="M913.794,802.967 C916.919,802.967 919.524,803.748 921.607,805.311 C923.69,806.873 924.732,809.118 924.732,812.045 C924.732,816.535 922.406,820.733 917.755,824.639 C913.104,828.545 908.107,830.498 902.763,830.498 C899.638,830.498 897.003,829.686 894.857,828.061 C892.836,826.3 891.826,824.087 891.826,821.42 C891.826,817.056 894.138,812.889 898.763,808.92 C903.388,804.952 908.399,802.967 913.794,802.967"/>
<path class="Note" d="M724.032,377.967 C727.157,377.967 729.761,378.748 731.844,380.311 C733.928,381.873 734.969,384.118 734.969,387.045 C734.969,391.535 732.644,395.733 727.993,399.639 C723.342,403.545 718.344,405.498 713.001,405.498 C709.876,405.498 707.24,404.686 705.094,403.061 C703.073,401.3 702.063,399.087 702.063,396.42 C702.063,392.055 704.376,387.889 709.001,383.92 C713.626,379.951 718.636,377.967 724.032,377.967"/>
<path class="Note" d="M1858.77,827.967 C1861.89,827.967 1864.5,828.748 1866.58,830.311 C1868.66,831.873 1869.71,834.118 1869.71,837.045 C1869.71,841.535 1867.38,845.733 1862.73,849.639 C1858.08,853.545 1853.08,855.498 1847.74,855.498 C1844.61,855.498 1841.98,854.686 1839.83,853.061 C1837.81,851.301 1836.8,849.087 1836.8,846.42 C1836.8,842.056 1839.11,837.889 1843.74,833.92 C1848.36,829.952 1853.37,827.967 1858.77,827.967"/>
<path class="Note" d="M769.961,840.467 C773.086,840.467 775.69,841.248 777.773,842.811 C779.857,844.373 780.898,846.618 780.898,849.545 C780.898,854.035 778.573,858.233 773.922,862.139 C769.271,866.045 764.273,867.998 758.929,867.998 C755.804,867.998 753.169,867.186 751.023,865.561 C749.002,863.801 747.992,861.587 747.992,858.92 C747.992,854.556 750.304,850.389 754.929,846.42 C759.554,842.452 764.565,840.467 769.961,840.467"/>
<path class="Note" d="M439.045,415.467 C442.17,415.467 444.774,416.248 446.858,417.811 C448.941,419.373 449.983,421.618 449.983,424.545 C449.983,429.035 447.657,433.233 443.006,437.139 C438.355,441.045 433.358,442.998 428.014,442.998 C424.889,442.998 422.253,442.186 420.108,440.561 C418.087,438.8 417.076,436.587 417.076,433.92 C417.076,429.555 419.389,425.389 424.014,421.42 C428.639,417.451 433.649,415.467 439.045,415.467"/>
<path class="Note" d="M819.027,365.467 C822.152,365.467 824.757,366.248 826.84,367.811 C828.923,369.373 829.965,371.618 829.965,374.545 C829.965,379.035 827.639,383.233 822.988,387.139 C818.337,391.045 813.34,392.998 807.996,392.998 C804.871,392.998 802.236,392.186 800.09,390.561 C798.069,388.8 797.059,386.587 797.059,383.92 C797.059,379.555 799.371,375.389 803.996,371.42 C808.621,367.451 813.632,365.467 819.027,365.467"/>
<path class="Note" d="M2135.72,390.467 C2138.84,390.467 2141.45,391.248 2143.53,392.811 C2145.61,394.373 2146.66,396.618 2146.66,399.545 C2146.66,404.035 2144.33,408.233 2139.68,412.139 C2135.03,416.045 2130.03,417.998 2124.69,417.998 C2121.56,417.998 2118.93,417.186 2116.78,415.561 C2114.76,413.8 2113.75,411.587 2113.75,408.92 C2113.75,404.555 2116.06,400.389 2120.69,396.42 C2125.31,392.451 2130.32,390.467 2135.72,390.467"/>
<path class="Note" d="M1898.23,377.967 C1901.36,377.967 1903.96,378.748 1906.04,380.311 C1908.13,381.873 1909.17,384.118 1909.17,387.045 C1909.17,391.535 1906.84,395.733 1902.19,399.639 C1897.54,403.545 1892.54,405.498 1887.2,405.498 C1884.07,405.498 1881.44,404.686 1879.29,403.061 C1877.27,401.3 1876.26,399.087 1876.26,396.42 C1876.26,392.055 1878.57,387.889 1883.2,383.92 C1887.82,379.951 1892.83,377.967 1898.23,377.967"/>
<path class="Note" d="M2319.27,865.467 C2322.39,865.467 2325,866.248 2327.08,867.811 C2329.17,869.373 2330.21,871.618 2330.21,874.545 C2330.21,879.035 2327.88,883.233 2323.23,887.139 C2318.58,891.045 2313.58,892.998 2308.24,892.998 C2305.11,892.998 2302.48,892.186 2300.33,890.561 C2298.31,888.801 2297.3,886.587 2297.3,883.92 C2297.3,879.556 2299.61,875.389 2304.24,871.42 C2308.86,867.452 2313.87,865.467 2319.27,865.467"/>
<path class="Note" d="M2307.21,402.967 C2310.34,402.967 2312.94,403.748 2315.02,405.311 C2317.11,406.873 2318.15,409.118 2318.15,412.045 C2318.15,416.535 2315.82,420.733 2311.17,424.639 C2306.52,428.545 2301.52,430.498 2296.18,430.498 C2293.06,430.498 2290.42,429.686 2288.27,428.061 C2286.25,426.3 2285.24,424.087 2285.24,421.42 C2285.24,417.055 2287.56,412.889 2292.18,408.92 C2296.81,404.951 2301.82,402.967 2307.21,402.967"/>
<path class="Note" d="M1803.23,377.967 C1806.36,377.967 1808.96,378.748 1811.05,380.311 C1813.13,381.873 1814.17,384.118 1814.17,387.045 C1814.17,391.535 1811.85,395.733 1807.2,399.639 C1802.54,403.545 1797.55,405.498 1792.2,405.498 C1789.08,405.498 1786.44,404.686 1784.3,403.061 C1782.28,401.3 1781.27,399.087 1781.27,396.42 C1781.27,392.055 1783.58,387.889 1788.2,383.92 C1792.83,379.951 1797.84,377.967 1803.23,377.967"/>
<path class="Note" d="M2449.71,402.967 C2452.83,402.967 2455.44,403.748 2457.52,405.311 C2459.6,406.873 2460.64,409.118 2460.64,412.045 C2460.64,416.535 2458.32,420.733 2453.67,424.639 C2449.02,428.545 2444.02,430.498 2438.67,430.498 C2435.55,430.498 2432.91,429.686 2430.77,428.061 C2428.75,426.3 2427.74,424.087 2427.74,421.42 C2427.74,417.055 2430.05,412.889 2434.67,408.92 C2439.3,404.951 2444.31,402.967 2449.71,402.967"/>
<path class="Note" d="M2463.1,877.967 C2466.23,877.967 2468.83,878.748 2470.92,880.311 C2473,881.873 2474.04,884.118 2474.04,887.045 C2474.04,891.535 2471.71,895.733 2467.06,899.639 C2462.41,903.545 2457.42,905.498 2452.07,905.498 C2448.95,905.498 2446.31,904.686 2444.17,903.061 C2442.14,901.301 2441.13,899.087 2441.13,896.42 C2441.13,892.056 2443.45,887.889 2448.07,883.92 C2452.7,879.952 2457.71,877.967 2463.1,877.967"/>
<path class="Note" d="M2146.44,852.967 C2149.56,852.967 2152.16,853.748 2154.25,855.311 C2156.33,856.873 2157.37,859.118 2157.37,862.045 C2157.37,866.535 2155.05,870.733 2150.4,874.639 C2145.75,878.545 2140.75,880.498 2135.4,880.498 C2132.28,880.498 2129.64,879.686 2127.5,878.061 C2125.48,876.301 2124.47,874.087 2124.47,871.42 C2124.47,867.056 2126.78,862.889 2131.4,858.92 C2136.03,854.952 2141.04,852.967 2146.44,852.967"/>
<path class="Note" d="M1660.74,377.967 C1663.87,377.967 1666.47,378.748 1668.55,380.311 C1670.64,381.873 1671.68,384.118 1671.68,387.045 C1671.68,391.535 1669.35,395.733 1664.7,399.639 C1660.05,403.545 1655.05,405.498 1649.71,405.498 C1646.58,405.498 1643.95,404.686 1641.8,403.061 C1639.78,401.3 1638.77,399.087 1638.77,396.42 C1638.77,392.055 1641.08,387.889 1645.71,383.92 C1650.33,379.951 1655.35,377.967 1660.74,377.967"/>
<path class="Note" d="M2544.7,402.967 C2547.83,402.967 2550.43,403.748 2552.51,405.311 C2554.6,406.873 2555.64,409.118 2555.64,412.045 C2555.64,416.535 2553.31,420.733 2548.66,424.639 C2544.01,428.545 2539.01,430.498 2533.67,430.498 C2530.55,430.498 2527.91,429.686 2525.76,428.061 C2523.74,426.3 2522.73,424.087 2522.73,421.42 C2522.73,417.055 2525.05,412.889 2529.67,408.92 C2534.3,404.951 2539.31,402.967 2544.7,402.967"/>
<path class="Note" d="M2624.25,439.873 C2626.13,439.873 2630.09,437.92 2636.11,434.014 C2642.14,430.108 2645.69,427.488 2646.76,426.154 C2647.84,424.821 2648.37,423.634 2648.37,422.592 C2648.37,421.55 2647.95,420.623 2647.1,419.811 C2646.25,418.998 2645.27,418.592 2644.17,418.592 C2642.22,418.592 2638.23,420.561 2632.21,424.498 C2626.18,428.436 2622.65,431.055 2621.61,432.358 C2620.57,433.66 2620.04,434.831 2620.04,435.873 C2620.04,436.915 2620.45,437.842 2621.27,438.654 C2622.09,439.467 2623.08,439.873 2624.25,439.873 M2643.2,415.467 C2648.79,415.467 2651.59,417.873 2651.59,422.686 C2651.59,425.029 2650.91,427.748 2649.54,430.842 C2648.18,433.936 2646.36,436.295 2644.08,437.92 C2639.07,441.305 2632.78,442.998 2625.23,442.998 C2619.63,442.998 2616.83,440.592 2616.83,435.779 C2616.83,433.634 2617.49,430.964 2618.83,427.772 C2620.16,424.579 2622,422.17 2624.34,420.545 C2629.36,417.16 2635.65,415.467 2643.2,415.467"/>
<path class="Note" d="M1402.55,389.873 C1404.44,389.873 1408.39,387.92 1414.42,384.014 C1420.44,380.108 1423.99,377.488 1425.07,376.154 C1426.14,374.821 1426.68,373.634 1426.68,372.592 C1426.68,371.55 1426.25,370.623 1425.4,369.811 C1424.55,368.998 1423.58,368.592 1422.47,368.592 C1420.53,368.592 1416.54,370.561 1410.51,374.498 C1404.49,378.436 1400.95,381.055 1399.91,382.358 C1398.87,383.66 1398.35,384.831 1398.35,385.873 C1398.35,386.915 1398.76,387.842 1399.58,388.654 C1400.39,389.467 1401.39,389.873 1402.55,389.873 M1421.5,365.467 C1427.1,365.467 1429.9,367.873 1429.9,372.686 C1429.9,375.029 1429.21,377.748 1427.85,380.842 C1426.48,383.936 1424.66,386.295 1422.38,387.92 C1417.37,391.305 1411.09,392.998 1403.54,392.998 C1397.93,392.998 1395.13,390.592 1395.13,385.779 C1395.13,383.634 1395.8,380.964 1397.13,377.772 C1398.46,374.579 1400.3,372.17 1402.65,370.545 C1407.67,367.16 1413.95,365.467 1421.5,365.467"/>
<path class="Note" d="M1275.51,327.967 C1278.63,327.967 1281.24,328.748 1283.32,330.311 C1285.4,331.873 1286.45,334.118 1286.45,337.045 C1286.45,341.535 1284.12,345.732 1279.47,349.639 C1274.82,353.545 1269.82,355.498 1264.48,355.498 C1261.35,355.498 1258.72,354.686 1256.57,353.061 C1254.55,351.3 1253.54,349.087 1253.54,346.42 C1253.54,342.055 1255.85,337.889 1260.48,333.92 C1265.1,329.951 1270.11,327.967 1275.51,327.967"/>
<path class="Note" d="M2050.55,840.467 C2053.67,840.467 2056.28,841.248 2058.36,842.811 C2060.44,844.373 2061.48,846.618 2061.48,849.545 C2061.48,854.035 2059.16,858.233 2054.51,862.139 C2049.86,866.045 2044.86,867.998 2039.52,867.998 C2036.39,867.998 2033.75,867.186 2031.61,865.561 C2029.59,863.801 2028.58,861.587 2028.58,858.92 C2028.58,854.556 2030.89,850.389 2035.52,846.42 C2040.14,842.452 2045.15,840.467 2050.55,840.467"/>
<path class="Note" d="M1133.01,352.967 C1136.14,352.967 1138.74,353.748 1140.83,355.311 C1142.91,356.873 1143.95,359.118 1143.95,362.045 C1143.95,366.535 1141.63,370.733 1136.98,374.639 C1132.32,378.545 1127.33,380.498 1121.98,380.498 C1118.86,380.498 1116.22,379.686 1114.08,378.061 C1112.06,376.3 1111.05,374.087 1111.05,371.42 C1111.05,367.055 1113.36,362.889 1117.98,358.92 C1122.61,354.951 1127.62,352.967 1133.01,352.967"/>
<path class="Note" d="M386.404,890.467 C389.529,890.467 392.134,891.248 394.217,892.811 C396.3,894.373 397.342,896.618 397.342,899.545 C397.342,904.035 395.016,908.233 390.365,912.139 C385.714,916.045 380.717,917.998 375.373,917.998 C372.248,917.998 369.613,917.186 367.467,915.561 C365.446,913.801 364.436,911.587 364.436,908.92 C364.436,904.556 366.748,900.389 371.373,896.42 C375.998,892.452 381.009,890.467 386.404,890.467"/>
<path class="Note" d="M961.521,327.967 C964.646,327.967 967.25,328.748 969.333,330.311 C971.417,331.873 972.458,334.118 972.458,337.045 C972.458,341.535 970.133,345.732 965.482,349.639 C960.831,353.545 955.833,355.498 950.49,355.498 C947.365,355.498 944.729,354.686 942.583,353.061 C940.562,351.3 939.552,349.087 939.552,346.42 C939.552,342.055 941.865,337.889 946.49,333.92 C951.115,329.951 956.125,327.967 961.521,327.967"/>
<path class="Note" d="M1993.23,390.467 C1996.35,390.467 1998.95,391.248 2001.04,392.811 C2003.12,394.373 2004.16,396.618 2004.16,399.545 C2004.16,404.035 2001.84,408.233 1997.19,412.139 C1992.54,416.045 1987.54,417.998 1982.19,417.998 C1979.07,417.998 1976.43,417.186 1974.29,415.561 C1972.27,413.8 1971.26,411.587 1971.26,408.92 C1971.26,404.555 1973.57,400.389 1978.19,396.42 C1982.82,392.451 1987.83,390.467 1993.23,390.467"/>
<path class="Note" d="M578.183,865.467 C581.308,865.467 583.912,866.248 585.995,867.811 C588.078,869.373 589.12,871.618 589.12,874.545 C589.12,879.035 586.795,883.233 582.143,887.139 C577.492,891.045 572.495,892.998 567.151,892.998 C564.026,892.998 561.391,892.186 559.245,890.561 C557.224,888.801 556.214,886.587 556.214,883.92 C556.214,879.556 558.526,875.389 563.151,871.42 C567.776,867.452 572.787,865.467 578.183,865.467"/>
<path class="Note" d="M674.072,852.967 C677.197,852.967 679.801,853.748 681.884,855.311 C683.967,856.873 685.009,859.118 685.009,862.045 C685.009,866.535 682.684,870.733 678.033,874.639 C673.382,878.545 668.384,880.498 663.04,880.498 C659.915,880.498 657.28,879.686 655.134,878.061 C653.113,876.301 652.103,874.087 652.103,871.42 C652.103,867.056 654.415,862.889 659.04,858.92 C663.665,854.952 668.676,852.967 674.072,852.967"/>
<path class="Clef" d="M203.623,423.858 L203.623,421.717 C203.56,420.613 203.399,418.889 203.139,416.545 C199.889,417.066 196.993,417.326 194.451,417.326 C185.337,417.326 177.605,413.727 171.256,406.529 C164.907,399.331 161.732,390.753 161.732,380.795 C161.732,378.128 162.253,374.923 163.295,371.178 C164.337,367.433 165.297,364.925 166.178,363.654 C167.058,362.384 168.378,360.154 170.139,356.967 C170.659,355.988 172.352,353.837 175.217,350.514 C175.738,349.805 176.193,349.222 176.584,348.764 C176.975,348.305 177.607,347.49 178.482,346.318 C179.357,345.147 180.3,344.055 181.31,343.045 C182.321,342.035 183.217,341.058 183.998,340.115 C184.779,339.173 185.498,338.378 186.154,337.733 C183.81,329.983 182.378,324.024 181.857,319.858 C181.337,315.691 181.076,310.579 181.076,304.522 C181.076,298.464 182.378,292.962 184.982,288.014 C187.514,282.878 191.06,278.68 195.623,275.42 C195.883,275.222 196.225,275.123 196.646,275.123 C197.068,275.123 197.378,275.222 197.576,275.42 C201.087,279.649 204.128,285.149 206.701,291.92 C209.274,298.691 210.56,305.024 210.56,310.92 C210.56,316.816 209.066,322.498 206.076,327.967 C202.691,333.759 198.326,339.748 192.982,345.936 C194.347,350.227 196.17,356.962 198.451,366.139 L199.045,366.139 C199.305,366.076 199.529,366.045 199.717,366.045 C207.081,366.045 213.089,368.634 217.74,373.811 C222.391,378.988 224.717,384.962 224.717,391.733 C224.717,400.128 221.238,406.899 214.279,412.045 C212.258,413.545 209.878,414.717 207.139,415.561 C207.472,419.79 207.639,422.605 207.639,424.006 C207.639,425.407 207.571,427.899 207.435,431.483 C207.373,437.597 205.29,442.837 201.185,447.201 C197.081,451.566 192.394,453.748 187.123,453.748 C181.852,453.748 177.36,451.876 173.646,448.131 C169.933,444.386 168.076,439.847 168.076,434.514 C168.076,431.712 169.154,429.331 171.31,427.373 C173.519,425.425 176.006,424.451 178.771,424.451 C181.537,424.451 183.8,425.462 185.56,427.483 C187.383,429.368 188.295,431.644 188.295,434.311 C188.295,436.977 187.383,439.222 185.56,441.045 C183.738,442.868 181.555,443.779 179.014,443.779 C177.972,443.779 176.967,443.587 175.998,443.201 C178.863,447.43 182.54,449.545 187.029,449.545 C191.519,449.545 195.36,447.691 198.553,443.983 C201.745,440.274 203.342,435.91 203.342,430.889 L203.623,423.858 M206.748,411.561 C210.133,410.321 212.821,408.123 214.81,404.967 C216.8,401.811 217.795,398.67 217.795,395.545 C217.795,390.92 216.199,386.785 213.006,383.139 C209.813,379.493 205.774,377.441 200.889,376.983 C203.691,390.722 205.644,402.248 206.748,411.561 M168.967,388.998 C168.967,395.446 171.537,401.079 176.678,405.897 C181.818,410.714 187.842,413.123 194.748,413.123 C197.477,413.123 200.144,412.925 202.748,412.529 C201.706,402.634 199.654,390.785 196.592,376.983 C192.758,377.378 189.782,378.699 187.662,380.943 C185.542,383.188 184.482,385.743 184.482,388.608 C184.482,393.555 187.123,397.561 192.404,400.623 C192.852,400.884 193.076,401.324 193.076,401.943 C193.076,402.563 192.865,403.1 192.443,403.553 C192.021,404.006 191.649,404.233 191.326,404.233 C191.003,404.233 190.581,404.17 190.06,404.045 C182.435,399.878 178.623,393.592 178.623,385.186 C178.623,381.217 180.024,377.41 182.826,373.764 C185.753,370.118 189.56,367.774 194.248,366.733 C192.425,359.441 190.93,353.743 189.764,349.639 C180.847,359.67 175.31,367.092 173.154,371.904 C170.363,378.154 168.967,383.852 168.967,388.998 M201.576,289.686 C196.691,292.092 192.834,295.574 190.006,300.131 C187.178,304.688 185.764,309.472 185.764,314.483 C185.764,319.493 186.935,325.972 189.279,333.92 C193.967,328.253 197.514,322.946 199.92,317.998 C202.326,313.05 203.529,308.152 203.529,303.303 C203.529,298.454 202.878,293.915 201.576,289.686"/>
<path class="Clef" d="M203.623,898.858 L203.623,896.717 C203.56,895.613 203.399,893.889 203.139,891.545 C199.889,892.066 196.993,892.327 194.451,892.327 C185.337,892.327 177.605,888.728 171.256,881.53 C164.907,874.332 161.732,865.754 161.732,855.795 C161.732,853.129 162.253,849.923 163.295,846.178 C164.337,842.433 165.297,839.926 166.178,838.655 C167.058,837.384 168.378,835.155 170.139,831.967 C170.659,830.988 172.352,828.837 175.217,825.514 C175.738,824.806 176.193,824.222 176.584,823.764 C176.975,823.306 177.607,822.491 178.482,821.319 C179.357,820.147 180.3,819.056 181.31,818.045 C182.321,817.035 183.217,816.058 183.998,815.116 C184.779,814.173 185.498,813.379 186.154,812.733 C183.81,804.983 182.378,799.024 181.857,794.858 C181.337,790.691 181.076,785.579 181.076,779.522 C181.076,773.465 182.378,767.962 184.982,763.014 C187.514,757.879 191.06,753.681 195.623,750.42 C195.883,750.222 196.225,750.123 196.646,750.123 C197.068,750.123 197.378,750.222 197.576,750.42 C201.087,754.649 204.128,760.149 206.701,766.92 C209.274,773.691 210.56,780.024 210.56,785.92 C210.56,791.816 209.066,797.498 206.076,802.967 C202.691,808.759 198.326,814.748 192.982,820.936 C194.347,825.228 196.17,831.962 198.451,841.139 L199.045,841.139 C199.305,841.077 199.529,841.045 199.717,841.045 C207.081,841.045 213.089,843.634 217.74,848.811 C222.391,853.988 224.717,859.962 224.717,866.733 C224.717,875.129 221.238,881.899 214.279,887.045 C212.258,888.545 209.878,889.717 207.139,890.561 C207.472,894.79 207.639,897.605 207.639,899.006 C207.639,900.407 207.571,902.899 207.435,906.483 C207.373,912.597 205.29,917.837 201.185,922.202 C197.081,926.566 192.394,928.748 187.123,928.748 C181.852,928.748 177.36,926.876 173.646,923.131 C169.933,919.386 168.076,914.847 168.076,909.514 C168.076,906.712 169.154,904.332 171.31,902.373 C173.519,900.426 176.006,899.452 178.771,899.452 C181.537,899.452 183.8,900.462 185.56,902.483 C187.383,904.368 188.295,906.644 188.295,909.311 C188.295,911.978 187.383,914.222 185.56,916.045 C183.738,917.868 181.555,918.78 179.014,918.78 C177.972,918.78 176.967,918.587 175.998,918.202 C178.863,922.431 182.54,924.545 187.029,924.545 C191.519,924.545 195.36,922.691 198.553,918.983 C201.745,915.274 203.342,910.91 203.342,905.889 L203.623,898.858 M206.748,886.561 C210.133,885.321 212.821,883.123 214.81,879.967 C216.8,876.811 217.795,873.67 217.795,870.545 C217.795,865.92 216.199,861.785 213.006,858.139 C209.813,854.493 205.774,852.441 200.889,851.983 C203.691,865.722 205.644,877.248 206.748,886.561 M168.967,863.998 C168.967,870.446 171.537,876.079 176.678,880.897 C181.818,885.715 187.842,888.123 194.748,888.123 C197.477,888.123 200.144,887.926 202.748,887.53 C201.706,877.634 199.654,865.785 196.592,851.983 C192.758,852.379 189.782,853.699 187.662,855.944 C185.542,858.189 184.482,860.743 184.482,863.608 C184.482,868.556 187.123,872.561 192.404,875.623 C192.852,875.884 193.076,876.324 193.076,876.944 C193.076,877.564 192.865,878.1 192.443,878.553 C192.021,879.006 191.649,879.233 191.326,879.233 C191.003,879.233 190.581,879.17 190.06,879.045 C182.435,874.879 178.623,868.592 178.623,860.186 C178.623,856.217 180.024,852.41 182.826,848.764 C185.753,845.118 189.56,842.774 194.248,841.733 C192.425,834.441 190.93,828.743 189.764,824.639 C180.847,834.67 175.31,842.092 173.154,846.905 C170.363,853.155 168.967,858.853 168.967,863.998 M201.576,764.686 C196.691,767.092 192.834,770.574 190.006,775.131 C187.178,779.689 185.764,784.472 185.764,789.483 C185.764,794.493 186.935,800.972 189.279,808.92 C193.967,803.254 197.514,797.946 199.92,792.998 C202.326,788.051 203.529,783.152 203.529,778.303 C203.529,773.454 202.878,768.915 201.576,764.686"/>
<path class="KeySig" d="M272.412,294.764 C273.85,294.368 274.568,294.722 274.568,295.826 L274.568,303.639 C274.568,304.42 273.949,305.04 272.709,305.498 L269.49,306.764 L269.49,320.936 L272.412,319.764 C273.85,319.368 274.568,319.727 274.568,320.842 L274.568,328.654 C274.568,329.436 273.949,330.05 272.709,330.498 L269.49,331.779 L269.49,347.982 C269.49,349.222 269.001,349.842 268.021,349.842 C267.042,349.842 266.553,349.222 266.553,347.982 L266.553,332.951 L257.271,336.654 L257.271,352.764 C257.271,354.003 256.785,354.623 255.811,354.623 C254.837,354.623 254.35,354.003 254.35,352.764 L254.35,337.826 L251.803,338.904 C250.438,339.488 249.756,339.097 249.756,337.732 L249.756,330.014 C249.756,329.368 250.344,328.785 251.521,328.264 L254.35,327.092 L254.35,312.826 L251.803,313.904 C250.438,314.488 249.756,314.097 249.756,312.732 L249.756,305.014 C249.756,304.357 250.344,303.769 251.521,303.248 L254.35,302.076 L254.35,285.967 C254.35,284.727 254.837,284.107 255.811,284.107 C256.785,284.107 257.271,284.727 257.271,285.967 L257.271,300.904 L266.553,297.107 L266.553,281.186 C266.553,279.946 267.042,279.326 268.021,279.326 C269.001,279.326 269.49,279.946 269.49,281.186 L269.49,295.936 L272.412,294.764 M257.271,311.654 L257.271,325.92 L266.553,322.107 L266.553,307.936 L257.271,311.654 "/>
<path class="KeySig" d="M300.006,332.264 C301.443,331.868 302.162,332.222 302.162,333.326 L302.162,341.139 C302.162,341.92 301.542,342.54 300.303,342.998 L297.084,344.264 L297.084,358.436 L300.006,357.264 C301.443,356.868 302.162,357.227 302.162,358.342 L302.162,366.154 C302.162,366.936 301.542,367.55 300.303,367.998 L297.084,369.279 L297.084,385.482 C297.084,386.722 296.594,387.342 295.615,387.342 C294.636,387.342 294.147,386.722 294.147,385.482 L294.147,370.451 L284.865,374.154 L284.865,390.264 C284.865,391.503 284.378,392.123 283.404,392.123 C282.43,392.123 281.943,391.503 281.943,390.264 L281.943,375.326 L279.397,376.404 C278.032,376.988 277.35,376.597 277.35,375.232 L277.35,367.514 C277.35,366.868 277.938,366.285 279.115,365.764 L281.943,364.592 L281.943,350.326 L279.397,351.404 C278.032,351.988 277.35,351.597 277.35,350.232 L277.35,342.514 C277.35,341.857 277.938,341.269 279.115,340.748 L281.943,339.576 L281.943,323.467 C281.943,322.227 282.43,321.607 283.404,321.607 C284.378,321.607 284.865,322.227 284.865,323.467 L284.865,338.404 L294.147,334.607 L294.147,318.686 C294.147,317.446 294.636,316.826 295.615,316.826 C296.594,316.826 297.084,317.446 297.084,318.686 L297.084,333.436 L300.006,332.264 M284.865,349.154 L284.865,363.42 L294.147,359.607 L294.147,345.436 L284.865,349.154 "/>
<path class="KeySig" d="M272.412,769.764 C273.85,769.368 274.568,769.722 274.568,770.827 L274.568,778.639 C274.568,779.42 273.949,780.04 272.709,780.498 L269.49,781.764 L269.49,795.936 L272.412,794.764 C273.85,794.368 274.568,794.728 274.568,795.842 L274.568,803.655 C274.568,804.436 273.949,805.05 272.709,805.498 L269.49,806.78 L269.49,822.983 C269.49,824.222 269.001,824.842 268.021,824.842 C267.042,824.842 266.553,824.222 266.553,822.983 L266.553,807.952 L257.271,811.655 L257.271,827.764 C257.271,829.004 256.785,829.623 255.811,829.623 C254.837,829.623 254.35,829.004 254.35,827.764 L254.35,812.827 L251.803,813.905 C250.438,814.488 249.756,814.097 249.756,812.733 L249.756,805.014 C249.756,804.368 250.344,803.785 251.521,803.264 L254.35,802.092 L254.35,787.827 L251.803,788.905 C250.438,789.488 249.756,789.097 249.756,787.733 L249.756,780.014 C249.756,779.358 250.344,778.769 251.521,778.248 L254.35,777.077 L254.35,760.967 C254.35,759.728 254.837,759.108 255.811,759.108 C256.785,759.108 257.271,759.728 257.271,760.967 L257.271,775.905 L266.553,772.108 L266.553,756.186 C266.553,754.946 267.042,754.327 268.021,754.327 C269.001,754.327 269.49,754.946 269.49,756.186 L269.49,770.936 L272.412,769.764 M257.271,786.655 L257.271,800.92 L266.553,797.108 L266.553,782.936 L257.271,786.655 "/>
<path class="KeySig" d="M300.006,807.264 C301.443,806.868 302.162,807.222 302.162,808.327 L302.162,816.139 C302.162,816.92 301.542,817.54 300.303,817.998 L297.084,819.264 L297.084,833.436 L300.006,832.264 C301.443,831.868 302.162,832.228 302.162,833.342 L302.162,841.155 C302.162,841.936 301.542,842.551 300.303,842.998 L297.084,844.28 L297.084,860.483 C297.084,861.722 296.594,862.342 295.615,862.342 C294.636,862.342 294.147,861.722 294.147,860.483 L294.147,845.452 L284.865,849.155 L284.865,865.264 C284.865,866.504 284.378,867.123 283.404,867.123 C282.43,867.123 281.943,866.504 281.943,865.264 L281.943,850.327 L279.397,851.405 C278.032,851.988 277.35,851.597 277.35,850.233 L277.35,842.514 C277.35,841.868 277.938,841.285 279.115,840.764 L281.943,839.592 L281.943,825.327 L279.397,826.405 C278.032,826.988 277.35,826.597 277.35,825.233 L277.35,817.514 C277.35,816.858 277.938,816.269 279.115,815.748 L281.943,814.577 L281.943,798.467 C281.943,797.228 282.43,796.608 283.404,796.608 C284.378,796.608 284.865,797.228 284.865,798.467 L284.865,813.405 L294.147,809.608 L294.147,793.686 C294.147,792.446 294.636,791.827 295.615,791.827 C296.594,791.827 297.084,792.446 297.084,793.686 L297.084,808.436 L300.006,807.264 M284.865,824.155 L284.865,838.42 L294.147,834.608 L294.147,820.436 L284.865,824.155 "/>
<path class="TimeSig" d="M350.225,317.912 C351.719,317.912 353.152,317.686 354.522,317.232 C355.891,316.779 356.868,316.553 357.451,316.553 C358.035,316.553 358.425,316.907 358.623,317.615 C358.623,317.688 358.555,317.886 358.42,318.209 L330.014,351.225 L346.701,351.225 L346.701,338.131 C346.701,336.506 347.649,335.334 349.545,334.615 C351.493,333.897 353.706,331.001 356.186,325.928 C356.373,325.532 356.665,325.334 357.061,325.334 C357.842,325.334 358.295,325.792 358.42,326.709 L358.42,351.225 L365.561,351.225 C366.467,351.225 366.954,351.712 367.022,352.686 C367.089,353.66 366.602,354.147 365.561,354.147 L358.42,354.147 L358.42,354.928 C358.42,357.532 359.071,359.746 360.373,361.568 C361.873,363.391 363.634,364.303 365.654,364.303 C366.436,364.303 366.826,364.693 366.826,365.475 C366.826,366.256 366.29,366.647 365.217,366.647 C364.144,366.647 362.141,366.436 359.209,366.014 C356.277,365.592 354.014,365.381 352.42,365.381 C350.826,365.381 348.613,365.592 345.779,366.014 C342.946,366.436 340.816,366.647 339.389,366.647 C338.607,366.647 338.217,366.256 338.217,365.475 C338.217,364.693 338.607,364.303 339.389,364.303 C341.399,364.303 343.154,363.391 344.654,361.568 C346.019,359.683 346.701,357.469 346.701,354.928 L346.701,354.147 L330.014,354.147 C329.16,354.147 328.423,353.92 327.803,353.467 C327.183,353.014 326.873,352.592 326.873,352.201 C326.873,351.811 327.688,350.639 329.318,348.686 C330.949,346.732 333.277,342.972 336.303,337.404 C339.329,331.837 340.842,325.438 340.842,318.209 C340.842,317.167 341.3,316.647 342.217,316.647 C342.415,316.647 342.725,316.712 343.147,316.842 C343.568,316.972 344.48,317.183 345.881,317.475 C347.282,317.766 348.73,317.912 350.225,317.912"/>
<path class="TimeSig" d="M350.225,368.084 C351.719,368.084 353.152,367.858 354.522,367.404 C355.891,366.951 356.868,366.725 357.451,366.725 C358.035,366.725 358.425,367.079 358.623,367.787 C358.623,367.86 358.555,368.058 358.42,368.381 L330.014,401.397 L346.701,401.397 L346.701,388.303 C346.701,386.678 347.649,385.506 349.545,384.787 C351.493,384.068 353.706,381.173 356.186,376.1 C356.373,375.704 356.665,375.506 357.061,375.506 C357.842,375.506 358.295,375.964 358.42,376.881 L358.42,401.397 L365.561,401.397 C366.467,401.397 366.954,401.884 367.022,402.858 C367.089,403.831 366.602,404.318 365.561,404.318 L358.42,404.318 L358.42,405.1 C358.42,407.704 359.071,409.917 360.373,411.74 C361.873,413.563 363.634,414.475 365.654,414.475 C366.436,414.475 366.826,414.865 366.826,415.647 C366.826,416.428 366.29,416.818 365.217,416.818 C364.144,416.818 362.141,416.608 359.209,416.186 C356.277,415.764 354.014,415.553 352.42,415.553 C350.826,415.553 348.613,415.764 345.779,416.186 C342.946,416.608 340.816,416.818 339.389,416.818 C338.607,416.818 338.217,416.428 338.217,415.647 C338.217,414.865 338.607,414.475 339.389,414.475 C341.399,414.475 343.154,413.563 344.654,411.74 C346.019,409.855 346.701,407.641 346.701,405.1 L346.701,404.318 L330.014,404.318 C329.16,404.318 328.423,404.092 327.803,403.639 C327.183,403.186 326.873,402.764 326.873,402.373 C326.873,401.983 327.688,400.811 329.318,398.858 C330.949,396.904 333.277,393.144 336.303,387.576 C339.329,382.009 340.842,375.61 340.842,368.381 C340.842,367.339 341.3,366.818 342.217,366.818 C342.415,366.818 342.725,366.884 343.147,367.014 C343.568,367.144 344.48,367.355 345.881,367.647 C347.282,367.938 348.73,368.084 350.225,368.084"/>
<path class="Rest" d="M1759.86,834.108 C1755.7,835.608 1752.31,836.358 1749.71,836.358 C1747.1,836.358 1744.94,835.626 1743.21,834.162 C1741.48,832.699 1740.61,830.876 1740.61,828.694 C1740.61,826.511 1741.33,824.72 1742.76,823.319 C1744.19,821.918 1745.89,821.217 1747.84,821.217 C1749.79,821.217 1751.26,821.772 1752.24,822.881 C1753.22,823.991 1753.76,825.051 1753.86,826.061 C1753.95,827.071 1754.26,828.191 1754.79,829.42 C1755.37,830.462 1756.07,830.983 1756.88,830.983 C1757.69,830.983 1758.78,830.22 1760.15,828.694 C1761.52,827.168 1762.43,825.965 1762.89,825.084 C1763.34,824.204 1763.89,823.78 1764.54,823.811 C1765.19,823.842 1765.65,824.149 1765.91,824.733 L1753.61,866.733 C1752.96,867.389 1752.04,867.717 1750.87,867.717 C1749.7,867.717 1748.79,867.389 1748.14,866.733 L1759.86,834.108 "/>
<path class="Articulation" d="M2440.69,451.506 C2439.71,450.527 2439.23,449.355 2439.23,447.99 C2439.23,446.626 2439.71,445.454 2440.69,444.475 C2441.67,443.496 2442.85,443.006 2444.21,443.006 C2445.57,443.006 2446.75,443.496 2447.73,444.475 C2448.7,445.454 2449.19,446.626 2449.19,447.99 C2449.19,449.355 2448.7,450.527 2447.73,451.506 C2446.75,452.485 2445.57,452.975 2444.21,452.975 C2442.85,452.975 2441.67,452.485 2440.69,451.506"/>
<path class="Articulation" d="M1794.22,432.752 C1793.24,431.773 1792.75,430.601 1792.75,429.236 C1792.75,427.872 1793.24,426.7 1794.22,425.721 C1795.2,424.742 1796.37,424.252 1797.74,424.252 C1799.1,424.252 1800.27,424.742 1801.25,425.721 C1802.23,426.7 1802.72,427.872 1802.72,429.236 C1802.72,430.601 1802.23,431.773 1801.25,432.752 C1800.27,433.731 1799.1,434.221 1797.74,434.221 C1796.37,434.221 1795.2,433.731 1794.22,432.752"/>
<path class="Articulation" d="M2454.09,926.506 C2453.11,925.527 2452.62,924.355 2452.62,922.991 C2452.62,921.626 2453.11,920.454 2454.09,919.475 C2455.07,918.496 2456.24,918.006 2457.61,918.006 C2458.97,918.006 2460.14,918.496 2461.12,919.475 C2462.1,920.454 2462.59,921.626 2462.59,922.991 C2462.59,924.355 2462.1,925.527 2461.12,926.506 C2460.14,927.485 2458.97,927.975 2457.61,927.975 C2456.24,927.975 2455.07,927.485 2454.09,926.506"/>
<path class="Articulation" d="M1889.22,432.752 C1888.24,431.773 1887.75,430.601 1887.75,429.236 C1887.75,427.872 1888.24,426.7 1889.22,425.721 C1890.2,424.742 1891.37,424.252 1892.73,424.252 C1894.1,424.252 1895.27,424.742 1896.25,425.721 C1897.23,426.7 1897.72,427.872 1897.72,429.236 C1897.72,430.601 1897.23,431.773 1896.25,432.752 C1895.27,433.731 1894.1,434.221 1892.73,434.221 C1891.37,434.221 1890.2,433.731 1889.22,432.752"/>
<path class="Articulation" d="M2310.26,914.006 C2309.28,913.027 2308.79,911.855 2308.79,910.491 C2308.79,909.126 2309.28,907.954 2310.26,906.975 C2311.24,905.996 2312.41,905.506 2313.77,905.506 C2315.14,905.506 2316.31,905.996 2317.29,906.975 C2318.27,907.954 2318.76,909.126 2318.76,910.491 C2318.76,911.855 2318.27,913.027 2317.29,914.006 C2316.31,914.985 2315.14,915.475 2313.77,915.475 C2312.41,915.475 2311.24,914.985 2310.26,914.006"/>
<path class="Articulation" d="M1945.65,882.752 C1944.67,881.773 1944.18,880.601 1944.18,879.237 C1944.18,877.872 1944.67,876.7 1945.65,875.721 C1946.63,874.742 1947.8,874.252 1949.16,874.252 C1950.53,874.252 1951.7,874.742 1952.68,875.721 C1953.66,876.7 1954.15,877.872 1954.15,879.237 C1954.15,880.601 1953.66,881.773 1952.68,882.752 C1951.7,883.732 1950.53,884.221 1949.16,884.221 C1947.8,884.221 1946.63,883.732 1945.65,882.752"/>
<path class="Articulation" d="M2535.69,451.506 C2534.71,450.527 2534.22,449.355 2534.22,447.99 C2534.22,446.626 2534.71,445.454 2535.69,444.475 C2536.67,443.496 2537.84,443.006 2539.21,443.006 C2540.57,443.006 2541.74,443.496 2542.72,444.475 C2543.7,445.454 2544.19,446.626 2544.19,447.99 C2544.19,449.355 2543.7,450.527 2542.72,451.506 C2541.74,452.485 2540.57,452.975 2539.21,452.975 C2537.84,452.975 2536.67,452.485 2535.69,451.506"/>
<path class="Articulation" d="M2137.42,907.752 C2136.44,906.773 2135.96,905.601 2135.96,904.237 C2135.96,902.872 2136.44,901.7 2137.42,900.721 C2138.4,899.742 2139.58,899.252 2140.94,899.252 C2142.3,899.252 2143.48,899.742 2144.46,900.721 C2145.43,901.7 2145.92,902.872 2145.92,904.237 C2145.92,905.601 2145.43,906.773 2144.46,907.752 C2143.48,908.732 2142.3,909.221 2140.94,909.221 C2139.58,909.221 2138.4,908.732 2137.42,907.752"/>
<path class="Articulation" d="M2041.53,882.752 C2040.56,881.773 2040.07,880.601 2040.07,879.237 C2040.07,877.872 2040.56,876.7 2041.53,875.721 C2042.51,874.742 2043.69,874.252 2045.05,874.252 C2046.42,874.252 2047.59,874.742 2048.57,875.721 C2049.55,876.7 2050.03,877.872 2050.03,879.237 C2050.03,880.601 2049.55,881.773 2048.57,882.752 C2047.59,883.732 2046.42,884.221 2045.05,884.221 C2043.69,884.221 2042.51,883.732 2041.53,882.752"/>
<path class="Beam" fill-rule="evenodd" d="M2457.4,335.482 L2555.65,335.482 L2555.65,347.982 L2457.4,347.982 L2457.4,335.482 "/>
<path class="Beam" fill-rule="evenodd" d="M1810.93,310.482 L1909.18,310.482 L1909.18,322.982 L1810.93,322.982 L1810.93,310.482 "/>
<path class="Beam" fill-rule="evenodd" d="M394.1,791.731 L685.017,785.481 L685.017,797.984 L394.1,804.234 L394.1,791.731 "/>
<path class="Beam" fill-rule="evenodd" d="M446.74,316.731 L734.977,310.481 L734.977,322.984 L446.74,329.234 L446.74,316.731 "/>
<path class="Beam" fill-rule="evenodd" d="M1962.35,779.233 L2061.49,779.233 L2061.49,791.733 L1962.35,791.733 L1962.35,779.233 "/>
</svg>
