<?xml version="1.0" encoding="UTF-8" standalone="no"?>
<svg width="2977.2px" height="4208.4px" viewBox="0 0 2977.2 4208.4"
 xmlns="http://www.w3.org/2000/svg" xmlns:xlink="http://www.w3.org/1999/xlink" version="1.2" baseProfile="tiny">
<title>Joy_To_The_World.mscx</title>
<desc>Generated by MuseScore Studio 4.3.1</desc>
<path class="" fill="#ffffff" fill-rule="evenodd" d="M0,0 L2977.2,0 L2977.2,4208.4 L0,4208.4 L0,0 "/>
<polyline class="StaffLines" fill="none" stroke="#000000" stroke-width="2.00" stroke-linejoin="bevel" points="141.732,316.732 2835.47,316.732"/>
<polyline class="StaffLines" fill="none" stroke="#000000" stroke-width="2.00" stroke-linejoin="bevel" points="141.732,341.732 2835.47,341.732"/>
<polyline class="StaffLines" fill="none" stroke="#000000" stroke-width="2.00" stroke-linejoin="bevel" points="141.732,366.733 2835.47,366.733"/>
<polyline class="StaffLines" fill="none" stroke="#000000" stroke-width="2.00" stroke-linejoin="bevel" points="141.732,391.733 2835.47,391.733"/>
<polyline class="StaffLines" fill="none" stroke="#000000" stroke-width="2.00" stroke-linejoin="bevel" points="141.732,416.733 2835.47,416.733"/>
<polyline class="StaffLines" fill="none" stroke="#000000" stroke-width="2.00" stroke-linejoin="bevel" points="141.732,791.733 2835.47,791.733"/>
<polyline class="StaffLines" fill="none" stroke="#000000" stroke-width="2.00" stroke-linejoin="bevel" points="141.732,816.733 2835.47,816.733"/>
<polyline class="StaffLines" fill="none" stroke="#000000" stroke-width="2.00" stroke-linejoin="bevel" points="141.732,841.733 2835.47,841.733"/>
<polyline class="StaffLines" fill="none" stroke="#000000" stroke-width="2.00" stroke-linejoin="bevel" points="141.732,866.733 2835.47,866.733"/>
<polyline class="StaffLines" fill="none" stroke="#000000" stroke-width="2.00" stroke-linejoin="bevel" points="141.732,891.733 2835.47,891.733"/>
<polyline class="StaffLines" fill="none" stroke="#000000" stroke-width="2.00" stroke-linejoin="bevel" points="141.732,1266.73 2835.47,1266.73"/>
<polyline class="StaffLines" fill="none" stroke="#000000" stroke-width="2.00" stroke-linejoin="bevel" points="141.732,1291.73 2835.47,1291.73"/>
<polyline class="StaffLines" fill="none" stroke="#000000" stroke-width="2.00" stroke-linejoin="bevel" points="141.732,1316.73 2835.47,1316.73"/>
<polyline class="StaffLines" fill="none" stroke="#000000" stroke-width="2.00" stroke-linejoin="bevel" points="141.732,1341.73 2835.47,1341.73"/>
<polyline class="StaffLines" fill="none" stroke="#000000" stroke-width="2.00" stroke-linejoin="bevel" points="141.732,1366.73 2835.47,1366.73"/>
<polyline class="StaffLines" fill="none" stroke="#000000" stroke-width="2.00" stroke-linejoin="bevel" points="141.732,1741.73 2835.47,1741.73"/>
<polyline class="StaffLines" fill="none" stroke="#000000" stroke-width="2.00" stroke-linejoin="bevel" points="141.732,1766.73 2835.47,1766.73"/>
<polyline class="StaffLines" fill="none" stroke="#000000" stroke-width="2.00" stroke-linejoin="bevel" points="141.732,1791.73 2835.47,1791.73"/>
<polyline class="StaffLines" fill="none" stroke="#000000" stroke-width="2.00" stroke-linejoin="bevel" points="141.732,1816.73 2835.47,1816.73"/>
<polyline class="StaffLines" fill="none" stroke="#000000" stroke-width="2.00" stroke-linejoin="bevel" points="141.732,1841.73 2835.47,1841.73"/>
<polyline class="StaffLines" fill="none" stroke="#000000" stroke-width="2.00" stroke-linejoin="bevel" points="141.732,2216.73 937.65,2216.73"/>
<polyline class="StaffLines" fill="none" stroke="#000000" stroke-width="2.00" stroke-linejoin="bevel" points="141.732,2241.73 937.65,2241.73"/>
<polyline class="StaffLines" fill="none" stroke="#000000" stroke-width="2.00" stroke-linejoin="bevel" points="141.732,2266.73 937.65,2266.73"/>
<polyline class="StaffLines" fill="none" stroke="#000000" stroke-width="2.00" stroke-linejoin="bevel" points="141.732,2291.73 937.65,2291.73"/>
<polyline class="StaffLines" fill="none" stroke="#000000" stroke-width="2.00" stroke-linejoin="bevel" points="141.732,2316.73 937.65,2316.73"/>
<path class="MeasureNumber" d="M134.092,1217.61 L133.967,1216.81 C137.008,1216.28 139.589,1214.98 141.709,1212.92 C143.829,1210.86 145.3,1208.2 146.123,1204.94 C144.154,1206.48 142.159,1207.25 140.139,1207.25 C137.972,1207.25 136.23,1206.5 134.912,1205.01 C133.594,1203.51 132.935,1201.55 132.935,1199.11 C132.935,1196.4 133.727,1194.14 135.31,1192.33 C136.894,1190.53 138.873,1189.62 141.248,1189.62 C143.831,1189.62 145.951,1190.68 147.607,1192.8 C149.264,1194.91 150.092,1197.63 150.092,1200.95 C150.092,1202.01 149.998,1203.11 149.81,1204.23 C149.623,1205.36 149.188,1206.69 148.506,1208.23 C147.824,1209.76 146.938,1211.14 145.85,1212.35 C144.761,1213.56 143.204,1214.67 141.178,1215.65 C139.152,1216.64 136.79,1217.3 134.092,1217.61 M141.576,1205.5 C142.076,1205.5 142.646,1205.43 143.287,1205.28 C143.928,1205.13 144.576,1204.81 145.232,1204.32 C145.889,1203.82 146.217,1203.22 146.217,1202.5 L146.217,1200.95 C146.217,1194.19 144.456,1190.81 140.935,1190.81 C140.102,1190.81 139.394,1191.03 138.81,1191.48 C138.227,1191.92 137.782,1192.5 137.475,1193.21 C137.167,1193.92 136.946,1194.65 136.81,1195.4 C136.675,1196.14 136.607,1196.93 136.607,1197.76 C136.607,1200.13 137.055,1202.01 137.951,1203.4 C138.847,1204.8 140.055,1205.5 141.576,1205.5"/>
<path class="MeasureNumber" d="M128.045,1668.01 C127.566,1668.01 126.607,1668.31 125.17,1668.89 L125.17,1668.34 L132.373,1664.7 L132.685,1664.78 L132.685,1688.78 C132.685,1689.74 132.925,1690.36 133.404,1690.66 C133.883,1690.95 134.909,1691.11 136.482,1691.14 L136.482,1691.73 L125.451,1691.73 L125.451,1691.14 C126.941,1691.08 127.946,1690.85 128.467,1690.47 C128.988,1690.08 129.248,1689.26 129.248,1688.01 L129.248,1669.89 C129.248,1668.64 128.847,1668.01 128.045,1668.01 M143.951,1688.61 C144.566,1688.61 145.48,1688.97 146.693,1689.69 C147.907,1690.42 148.967,1690.78 149.873,1690.78 C151.342,1690.78 152.581,1690.21 153.592,1689.07 C154.602,1687.93 155.107,1686.53 155.107,1684.86 C155.107,1683.82 154.928,1682.9 154.568,1682.11 C154.209,1681.32 153.751,1680.7 153.193,1680.26 C152.636,1679.83 151.969,1679.47 151.193,1679.19 C150.417,1678.92 149.691,1678.74 149.014,1678.66 C148.337,1678.57 147.613,1678.53 146.842,1678.53 L146.842,1678.01 C147.748,1677.69 148.527,1677.38 149.178,1677.07 C149.829,1676.76 150.514,1676.35 151.232,1675.83 C151.951,1675.32 152.506,1674.69 152.896,1673.94 C153.287,1673.19 153.482,1672.33 153.482,1671.37 C153.482,1670.12 153.074,1669.1 152.256,1668.3 C151.438,1667.49 150.378,1667.09 149.076,1667.09 C147.826,1667.09 146.727,1667.43 145.779,1668.12 C144.831,1668.8 143.946,1669.87 143.123,1671.34 L142.514,1671.17 C143.212,1669.29 144.154,1667.74 145.342,1666.52 C146.529,1665.31 148.212,1664.7 150.389,1664.7 C152.232,1664.7 153.735,1665.21 154.896,1666.22 C156.058,1667.23 156.639,1668.55 156.639,1670.17 C156.639,1671.26 156.357,1672.23 155.795,1673.05 C155.232,1673.88 154.258,1674.76 152.873,1675.7 C154.477,1676.39 155.732,1677.27 156.639,1678.34 C157.545,1679.42 157.998,1680.95 157.998,1682.95 C157.998,1685.79 156.951,1688.05 154.857,1689.75 C152.764,1691.45 150.128,1692.3 146.951,1692.3 C145.566,1692.3 144.467,1692.09 143.654,1691.67 C142.842,1691.25 142.435,1690.7 142.435,1690.01 C142.435,1689.59 142.576,1689.25 142.857,1688.99 C143.139,1688.74 143.503,1688.61 143.951,1688.61"/>
<path class="MeasureNumber" d="M146.514,733.873 C146.514,732.446 146.199,731.181 145.568,730.076 C144.938,728.972 144.178,728.118 143.287,727.514 C142.396,726.91 141.399,726.412 140.295,726.022 C139.191,725.631 138.23,725.376 137.412,725.256 C136.594,725.136 135.883,725.076 135.279,725.076 C134.956,725.076 134.795,724.967 134.795,724.748 C134.795,724.675 134.805,724.613 134.826,724.561 L139.185,715.264 L147.545,715.264 C147.972,715.264 148.313,715.196 148.568,715.061 C148.824,714.925 149.097,714.644 149.389,714.217 L149.748,714.498 L148.232,717.842 C148.128,718.061 147.821,718.17 147.31,718.17 L139.467,718.17 L137.795,721.608 C141.68,722.306 144.571,723.441 146.467,725.014 C148.363,726.587 149.31,728.894 149.31,731.936 C149.31,733.53 149.063,734.946 148.568,736.186 C148.074,737.425 147.446,738.423 146.685,739.178 C145.925,739.933 145.045,740.553 144.045,741.037 C143.045,741.522 142.087,741.853 141.17,742.03 C140.253,742.207 139.326,742.295 138.389,742.295 C136.899,742.295 135.714,742.074 134.834,741.631 C133.954,741.188 133.514,740.582 133.514,739.811 C133.514,738.821 134.087,738.326 135.232,738.326 C135.982,738.326 136.949,738.735 138.131,739.553 C139.313,740.371 140.253,740.78 140.951,740.78 C142.524,740.78 143.844,740.113 144.912,738.78 C145.98,737.446 146.514,735.811 146.514,733.873"/>
<path class="MeasureNumber" d="M128.045,2143.01 C127.566,2143.01 126.607,2143.31 125.17,2143.89 L125.17,2143.34 L132.373,2139.7 L132.685,2139.78 L132.685,2163.78 C132.685,2164.74 132.925,2165.36 133.404,2165.66 C133.883,2165.95 134.909,2166.11 136.482,2166.14 L136.482,2166.73 L125.451,2166.73 L125.451,2166.14 C126.941,2166.08 127.946,2165.85 128.467,2165.47 C128.988,2165.08 129.248,2164.26 129.248,2163.01 L129.248,2144.89 C129.248,2143.64 128.847,2143.01 128.045,2143.01 M158.67,2140.26 L158.67,2140.89 L150.201,2167.05 L147.592,2167.05 L155.514,2143.17 L146.842,2143.17 C145.748,2143.17 144.915,2143.37 144.342,2143.77 C143.769,2144.17 143.055,2145.06 142.201,2146.42 L141.514,2146.11 L143.873,2140.26 L158.67,2140.26 "/>
<polyline class="BarLine" fill="none" stroke="#000000" stroke-width="4.00" stroke-linejoin="bevel" points="2833.47,1265.73 2833.47,1367.73"/>
<polyline class="BarLine" fill="none" stroke="#000000" stroke-width="4.00" stroke-linejoin="bevel" points="2833.47,315.732 2833.47,417.733"/>
<polyline class="BarLine" fill="none" stroke="#000000" stroke-width="4.00" stroke-linejoin="bevel" points="738.6,2215.73 738.6,2317.73"/>
<polyline class="BarLine" fill="none" stroke="#000000" stroke-width="4.00" stroke-linejoin="bevel" points="2234.33,315.732 2234.33,417.733"/>
<polyline class="BarLine" fill="none" stroke="#000000" stroke-width="4.00" stroke-linejoin="bevel" points="2147.26,1265.73 2147.26,1367.73"/>
<polyline class="BarLine" fill="none" stroke="#000000" stroke-width="4.00" stroke-linejoin="bevel" points="850.425,790.733 850.425,892.733"/>
<polyline class="BarLine" fill="none" stroke="#000000" stroke-width="4.00" stroke-linejoin="bevel" points="2833.47,1740.73 2833.47,1842.73"/>
<polyline class="BarLine" fill="none" stroke="#000000" stroke-width="4.00" stroke-linejoin="bevel" points="1615.84,315.732 1615.84,417.733"/>
<polyline class="BarLine" fill="none" stroke="#000000" stroke-width="4.00" stroke-linejoin="bevel" points="844.973,1740.73 844.973,1842.73"/>
<polyline class="BarLine" fill="none" stroke="#000000" stroke-width="4.00" stroke-linejoin="bevel" points="1440.62,790.733 1440.62,892.733"/>
<polyline class="BarLine" fill="none" stroke="#000000" stroke-width="4.00" stroke-linejoin="bevel" points="904.9,2215.73 904.9,2317.73"/>
<polyline class="BarLine" fill="none" stroke="#000000" stroke-width="12.50" stroke-linejoin="bevel" points="931.4,2215.73 931.4,2317.73"/>
<polyline class="BarLine" fill="none" stroke="#000000" stroke-width="4.00" stroke-linejoin="bevel" points="527.736,2215.73 527.736,2317.73"/>
<polyline class="BarLine" fill="none" stroke="#000000" stroke-width="4.00" stroke-linejoin="bevel" points="1016.71,315.732 1016.71,417.733"/>
<polyline class="BarLine" fill="none" stroke="#000000" stroke-width="4.00" stroke-linejoin="bevel" points="2030.81,790.733 2030.81,892.733"/>
<polyline class="BarLine" fill="none" stroke="#000000" stroke-width="4.00" stroke-linejoin="bevel" points="2203.17,1740.73 2203.17,1842.73"/>
<polyline class="BarLine" fill="none" stroke="#000000" stroke-width="4.00" stroke-linejoin="bevel" points="1521.57,1265.73 1521.57,1367.73"/>
<polyline class="BarLine" fill="none" stroke="#000000" stroke-width="4.00" stroke-linejoin="bevel" points="1618.43,1740.73 1618.43,1842.73"/>
<polyline class="BarLine" fill="none" stroke="#000000" stroke-width="4.00" stroke-linejoin="bevel" points="885.924,1265.73 885.924,1367.73"/>
<polyline class="BarLine" fill="none" stroke="#000000" stroke-width="4.00" stroke-linejoin="bevel" points="2833.47,790.733 2833.47,892.733"/>
<polyline class="LedgerLine" fill="none" stroke="#000000" stroke-width="4.00" stroke-linejoin="bevel" points="2220.67,1866.73 2272.59,1866.73"/>
<polyline class="LedgerLine" fill="none" stroke="#000000" stroke-width="4.00" stroke-linejoin="bevel" points="2251.83,441.733 2303.75,441.733"/>
<polyline class="LedgerLine" fill="none" stroke="#000000" stroke-width="4.00" stroke-linejoin="bevel" points="756.1,2341.73 809.819,2341.73"/>
<polyline class="Stem" fill="none" stroke="#000000" stroke-width="3.25" stroke-linejoin="bevel" points="1533.19,1835.86 1533.19,1766.77"/>
<polyline class="Stem" fill="none" stroke="#000000" stroke-width="3.25" stroke-linejoin="bevel" points="2117.93,1848.36 2117.93,1772.9"/>
<polyline class="Stem" fill="none" stroke="#000000" stroke-width="3.25" stroke-linejoin="bevel" points="2003.4,1835.86 2003.4,1766.82"/>
<polyline class="Stem" fill="none" stroke="#000000" stroke-width="3.25" stroke-linejoin="bevel" points="1247.54,1323.36 1247.54,1260.55"/>
<polyline class="Stem" fill="none" stroke="#000000" stroke-width="3.25" stroke-linejoin="bevel" points="1418.66,1848.36 1418.66,1769.24"/>
<polyline class="Stem" fill="none" stroke="#000000" stroke-width="3.25" stroke-linejoin="bevel" points="1066.21,1322.6 1066.21,1385.42"/>
<polyline class="Stem" fill="none" stroke="#000000" stroke-width="3.25" stroke-linejoin="bevel" points="1676.72,1823.36 1676.72,1741.73"/>
<polyline class="Stem" fill="none" stroke="#000000" stroke-width="3.25" stroke-linejoin="bevel" points="435.783,2310.86 435.783,2241.57"/>
<polyline class="Stem" fill="none" stroke="#000000" stroke-width="3.25" stroke-linejoin="bevel" points="510.78,1348.36 510.78,1272.93"/>
<polyline class="Stem" fill="none" stroke="#000000" stroke-width="3.25" stroke-linejoin="bevel" points="914.549,1310.1 914.549,1379.3"/>
<polyline class="Stem" fill="none" stroke="#000000" stroke-width="3.25" stroke-linejoin="bevel" points="318.522,1335.86 318.522,1266.79"/>
<polyline class="Stem" fill="none" stroke="#000000" stroke-width="3.25" stroke-linejoin="bevel" points="763.55,1298.36 763.55,1235.68"/>
<polyline class="Stem" fill="none" stroke="#000000" stroke-width="3.25" stroke-linejoin="bevel" points="318.522,2285.86 318.522,2216.86"/>
<polyline class="Stem" fill="none" stroke="#000000" stroke-width="3.25" stroke-linejoin="bevel" points="611.888,1360.86 611.888,1254.04"/>
<polyline class="Stem" fill="none" stroke="#000000" stroke-width="3.25" stroke-linejoin="bevel" points="395.369,2298.36 395.369,2222.86"/>
<polyline class="Stem" fill="none" stroke="#000000" stroke-width="3.25" stroke-linejoin="bevel" points="645.198,1823.36 645.198,1741.82"/>
<polyline class="Stem" fill="none" stroke="#000000" stroke-width="3.25" stroke-linejoin="bevel" points="2761.65,1348.36 2761.65,1266.77"/>
<polyline class="Stem" fill="none" stroke="#000000" stroke-width="3.25" stroke-linejoin="bevel" points="2403.6,1785.1 2403.6,1860.48"/>
<polyline class="Stem" fill="none" stroke="#000000" stroke-width="3.25" stroke-linejoin="bevel" points="318.522,1810.86 318.522,1729.23"/>
<polyline class="Stem" fill="none" stroke="#000000" stroke-width="3.25" stroke-linejoin="bevel" points="2660.54,1360.86 2660.54,1269.24"/>
<polyline class="Stem" fill="none" stroke="#000000" stroke-width="3.25" stroke-linejoin="bevel" points="2508.88,1360.86 2508.88,1272.94"/>
<polyline class="Stem" fill="none" stroke="#000000" stroke-width="3.25" stroke-linejoin="bevel" points="2357.22,1360.86 2357.22,1291.73"/>
<polyline class="Stem" fill="none" stroke="#000000" stroke-width="3.25" stroke-linejoin="bevel" points="2205.55,1360.86 2205.55,1291.73"/>
<polyline class="Stem" fill="none" stroke="#000000" stroke-width="3.25" stroke-linejoin="bevel" points="2690.96,1798.36 2690.96,1722.28"/>
<polyline class="Stem" fill="none" stroke="#000000" stroke-width="3.25" stroke-linejoin="bevel" points="2024.89,1360.86 2024.89,1291.73"/>
<polyline class="Stem" fill="none" stroke="#000000" stroke-width="3.25" stroke-linejoin="bevel" points="1399.2,1335.86 1399.2,1266.67"/>
<polyline class="Stem" fill="none" stroke="#000000" stroke-width="3.25" stroke-linejoin="bevel" points="2261.46,1860.86 2261.46,1778.53"/>
<polyline class="Stem" fill="none" stroke="#000000" stroke-width="3.25" stroke-linejoin="bevel" points="1873.23,1360.86 1873.23,1291.73"/>
<polyline class="Stem" fill="none" stroke="#000000" stroke-width="3.25" stroke-linejoin="bevel" points="1772.12,1348.36 1772.12,1272.93"/>
<polyline class="Stem" fill="none" stroke="#000000" stroke-width="3.25" stroke-linejoin="bevel" points="759.73,1835.86 759.73,1747.9"/>
<polyline class="Stem" fill="none" stroke="#000000" stroke-width="3.25" stroke-linejoin="bevel" points="1579.86,1335.86 1579.86,1266.79"/>
<polyline class="Stem" fill="none" stroke="#000000" stroke-width="3.25" stroke-linejoin="bevel" points="903.262,1848.36 903.262,1772.98"/>
<polyline class="Stem" fill="none" stroke="#000000" stroke-width="3.25" stroke-linejoin="bevel" points="1075.06,1848.36 1075.06,1772.98"/>
<polyline class="Stem" fill="none" stroke="#000000" stroke-width="3.25" stroke-linejoin="bevel" points="1246.86,1848.36 1246.86,1772.95"/>
<polyline class="Stem" fill="none" stroke="#000000" stroke-width="3.25" stroke-linejoin="bevel" points="1469.24,835.102 1469.24,910.483"/>
<polyline class="Stem" fill="none" stroke="#000000" stroke-width="3.25" stroke-linejoin="bevel" points="2666.26,385.863 2666.26,303.532"/>
<polyline class="Stem" fill="none" stroke="#000000" stroke-width="3.25" stroke-linejoin="bevel" points="676.957,2323.36 676.957,2241.73"/>
<polyline class="Stem" fill="none" stroke="#000000" stroke-width="3.25" stroke-linejoin="bevel" points="2292.62,435.863 2292.62,354.232"/>
<polyline class="Stem" fill="none" stroke="#000000" stroke-width="3.25" stroke-linejoin="bevel" points="318.522,848.364 318.522,772.983"/>
<polyline class="Stem" fill="none" stroke="#000000" stroke-width="3.25" stroke-linejoin="bevel" points="1968.88,423.363 1968.88,341.732"/>
<polyline class="Stem" fill="none" stroke="#000000" stroke-width="3.25" stroke-linejoin="bevel" points="586.026,2310.86 586.026,2229.23"/>
<polyline class="Stem" fill="none" stroke="#000000" stroke-width="3.25" stroke-linejoin="bevel" points="686.3,848.364 686.3,772.283"/>
<polyline class="Stem" fill="none" stroke="#000000" stroke-width="3.25" stroke-linejoin="bevel" points="1674.13,410.863 1674.13,329.232"/>
<polyline class="Stem" fill="none" stroke="#000000" stroke-width="3.25" stroke-linejoin="bevel" points="879.05,847.602 879.05,916.733"/>
<polyline class="Stem" fill="none" stroke="#000000" stroke-width="3.25" stroke-linejoin="bevel" points="1448.64,398.363 1448.64,316.032"/>
<polyline class="Stem" fill="none" stroke="#000000" stroke-width="3.25" stroke-linejoin="bevel" points="1246.83,847.602 1246.83,923.583"/>
<polyline class="Stem" fill="none" stroke="#000000" stroke-width="3.25" stroke-linejoin="bevel" points="1837.02,835.102 1837.02,911.083"/>
<polyline class="Stem" fill="none" stroke="#000000" stroke-width="3.25" stroke-linejoin="bevel" points="1075,385.863 1075,304.232"/>
<polyline class="Stem" fill="none" stroke="#000000" stroke-width="3.25" stroke-linejoin="bevel" points="915,373.363 915,304.192"/>
<polyline class="Stem" fill="none" stroke="#000000" stroke-width="3.25" stroke-linejoin="bevel" points="798.694,2336.93 798.694,2254.23"/>
<polyline class="Stem" fill="none" stroke="#000000" stroke-width="3.25" stroke-linejoin="bevel" points="665.907,360.863 665.907,298.023"/>
<polyline class="Stem" fill="none" stroke="#000000" stroke-width="3.25" stroke-linejoin="bevel" points="496.404,2298.36 496.404,2235.64"/>
<polyline class="Stem" fill="none" stroke="#000000" stroke-width="3.25" stroke-linejoin="bevel" points="2669.34,860.864 2669.34,791.681"/>
<polyline class="Stem" fill="none" stroke="#000000" stroke-width="3.25" stroke-linejoin="bevel" points="341.498,360.102 341.498,435.483"/>
<polyline class="Stem" fill="none" stroke="#000000" stroke-width="3.25" stroke-linejoin="bevel" points="2252.85,847.602 2252.85,910.431"/>
<polyline class="Stem" fill="none" stroke="#000000" stroke-width="3.25" stroke-linejoin="bevel" points="2059.44,835.102 2059.44,904.284"/>
<polyline class="Stem" fill="none" stroke="#000000" stroke-width="3.25" stroke-linejoin="bevel" points="2475.93,848.364 2475.93,785.534"/>
<path class="Hook" d="M684.675,797.983 L684.675,772.983 L687.8,772.983 C687.8,776.691 688.55,780.483 690.05,784.358 C691.55,788.233 693.113,791.457 694.738,794.03 C696.363,796.603 698.378,799.842 700.785,803.748 C706.066,812.28 708.706,819.866 708.706,826.506 C708.706,833.147 707.305,839.983 704.503,847.014 C703.982,847.795 703.381,848.186 702.699,848.186 C702.016,848.186 701.446,847.957 700.988,847.498 C700.529,847.04 700.3,846.519 700.3,845.936 L700.3,845.452 C703.102,839.004 704.503,832.623 704.503,826.311 C704.503,823.05 703.511,819.501 701.527,815.662 C699.542,811.824 697.49,808.683 695.371,806.241 C693.251,803.798 690.727,801.045 687.8,797.983 L684.675,797.983 "/>
<path class="Hook" d="M2689.33,1747.98 L2689.33,1722.98 L2692.46,1722.98 C2692.46,1726.69 2693.21,1730.48 2694.71,1734.36 C2696.21,1738.23 2697.77,1741.46 2699.4,1744.03 C2701.02,1746.6 2703.04,1749.84 2705.44,1753.75 C2710.72,1762.28 2713.37,1769.87 2713.37,1776.51 C2713.37,1783.15 2711.96,1789.98 2709.16,1797.01 C2708.64,1797.8 2708.04,1798.19 2707.36,1798.19 C2706.68,1798.19 2706.1,1797.96 2705.65,1797.5 C2705.19,1797.04 2704.96,1796.52 2704.96,1795.94 L2704.96,1795.45 C2707.76,1789 2709.16,1782.62 2709.16,1776.31 C2709.16,1773.05 2708.17,1769.5 2706.19,1765.66 C2704.2,1761.82 2702.15,1758.68 2700.03,1756.24 C2697.91,1753.8 2695.39,1751.05 2692.46,1747.98 L2689.33,1747.98 "/>
<path class="Hook" d="M1267.95,850.623 C1269.45,850.623 1271.03,853.048 1272.7,857.897 C1274.36,862.746 1275.19,867.189 1275.19,871.225 C1275.19,875.261 1274.26,879.168 1272.41,882.944 C1270.55,886.72 1268.32,890.04 1265.72,892.905 L1257.7,901.889 C1255.24,904.754 1253.06,908.04 1251.17,911.748 C1249.27,915.457 1248.33,919.202 1248.33,922.983 L1245.2,922.983 L1245.2,897.983 L1248.33,897.983 C1259.27,891.077 1266.14,884.957 1268.94,879.623 C1270.3,877.019 1270.99,874.384 1270.99,871.717 C1270.99,865.53 1269.19,859.373 1265.61,853.248 L1265.61,852.858 C1265.61,852.275 1265.84,851.756 1266.3,851.303 C1266.76,850.85 1267.31,850.623 1267.95,850.623"/>
<path class="Hook" d="M1447.01,341.732 L1447.01,316.732 L1450.14,316.732 C1450.14,320.441 1450.89,324.232 1452.39,328.107 C1453.89,331.982 1455.45,335.206 1457.07,337.779 C1458.7,340.352 1460.71,343.592 1463.12,347.498 C1468.4,356.029 1471.04,363.615 1471.04,370.256 C1471.04,376.897 1469.64,383.732 1466.84,390.764 C1466.32,391.545 1465.72,391.936 1465.03,391.936 C1464.35,391.936 1463.78,391.706 1463.32,391.248 C1462.87,390.79 1462.64,390.269 1462.64,389.686 L1462.64,389.201 C1465.44,382.753 1466.84,376.373 1466.84,370.061 C1466.84,366.8 1465.85,363.251 1463.86,359.412 C1461.88,355.574 1459.83,352.433 1457.71,349.99 C1455.59,347.548 1453.06,344.795 1450.14,341.732 L1447.01,341.732 "/>
<path class="Hook" d="M2259.84,1804.23 L2259.84,1779.23 L2262.96,1779.23 C2262.96,1782.94 2263.71,1786.73 2265.21,1790.61 C2266.71,1794.48 2268.28,1797.71 2269.9,1800.28 C2271.53,1802.85 2273.54,1806.09 2275.95,1810 C2281.23,1818.53 2283.87,1826.12 2283.87,1832.76 C2283.87,1839.4 2282.47,1846.23 2279.67,1853.26 C2279.15,1854.05 2278.54,1854.44 2277.86,1854.44 C2277.18,1854.44 2276.61,1854.21 2276.15,1853.75 C2275.69,1853.29 2275.46,1852.77 2275.46,1852.19 L2275.46,1851.7 C2278.26,1845.25 2279.67,1838.87 2279.67,1832.56 C2279.67,1829.3 2278.67,1825.75 2276.69,1821.91 C2274.71,1818.07 2272.65,1814.93 2270.53,1812.49 C2268.41,1810.05 2265.89,1807.3 2262.96,1804.23 L2259.84,1804.23 "/>
<path class="Hook" d="M1858.15,838.123 C1859.65,838.123 1861.23,840.548 1862.89,845.397 C1864.55,850.246 1865.38,854.689 1865.38,858.725 C1865.38,862.761 1864.45,866.668 1862.6,870.444 C1860.75,874.22 1858.52,877.54 1855.91,880.405 L1847.9,889.389 C1845.43,892.254 1843.25,895.54 1841.36,899.248 C1839.47,902.957 1838.52,906.702 1838.52,910.483 L1835.4,910.483 L1835.4,885.483 L1838.52,885.483 C1849.46,878.577 1856.33,872.457 1859.13,867.123 C1860.5,864.519 1861.18,861.884 1861.18,859.217 C1861.18,853.03 1859.39,846.873 1855.8,840.748 L1855.8,840.358 C1855.8,839.775 1856.03,839.256 1856.49,838.803 C1856.95,838.35 1857.5,838.123 1858.15,838.123"/>
<path class="Hook" d="M2664.64,329.232 L2664.64,304.232 L2667.76,304.232 C2667.76,307.941 2668.51,311.732 2670.01,315.607 C2671.51,319.482 2673.07,322.706 2674.7,325.279 C2676.32,327.852 2678.34,331.092 2680.75,334.998 C2686.03,343.529 2688.67,351.115 2688.67,357.756 C2688.67,364.397 2687.27,371.232 2684.46,378.264 C2683.94,379.045 2683.34,379.436 2682.66,379.436 C2681.98,379.436 2681.41,379.206 2680.95,378.748 C2680.49,378.29 2680.26,377.769 2680.26,377.186 L2680.26,376.701 C2683.06,370.253 2684.46,363.873 2684.46,357.561 C2684.46,354.3 2683.47,350.751 2681.49,346.912 C2679.5,343.074 2677.45,339.933 2675.33,337.49 C2673.21,335.048 2670.69,332.295 2667.76,329.232 L2664.64,329.232 "/>
<path class="Note" d="M1959.56,415.467 C1962.68,415.467 1965.29,416.248 1967.37,417.811 C1969.45,419.373 1970.49,421.618 1970.49,424.545 C1970.49,429.035 1968.17,433.233 1963.52,437.139 C1958.87,441.045 1953.87,442.998 1948.53,442.998 C1945.4,442.998 1942.77,442.186 1940.62,440.561 C1938.6,438.8 1937.59,436.587 1937.59,433.92 C1937.59,429.555 1939.9,425.389 1944.53,421.42 C1949.15,417.451 1954.16,415.467 1959.56,415.467"/>
<path class="Note" d="M1667.4,1815.47 C1670.53,1815.47 1673.13,1816.25 1675.21,1817.81 C1677.3,1819.37 1678.34,1821.62 1678.34,1824.55 C1678.34,1829.04 1676.01,1833.23 1671.36,1837.14 C1666.71,1841.05 1661.71,1843 1656.37,1843 C1653.25,1843 1650.61,1842.19 1648.46,1840.56 C1646.44,1838.8 1645.43,1836.59 1645.43,1833.92 C1645.43,1829.56 1647.75,1825.39 1652.37,1821.42 C1657,1817.45 1662.01,1815.47 1667.4,1815.47"/>
<path class="Note" d="M309.201,1802.97 C312.326,1802.97 314.93,1803.75 317.014,1805.31 C319.097,1806.87 320.139,1809.12 320.139,1812.05 C320.139,1816.54 317.813,1820.73 313.162,1824.64 C308.511,1828.55 303.514,1830.5 298.17,1830.5 C295.045,1830.5 292.41,1829.69 290.264,1828.06 C288.243,1826.3 287.232,1824.09 287.232,1821.42 C287.232,1817.06 289.545,1812.89 294.17,1808.92 C298.795,1804.95 303.805,1802.97 309.201,1802.97"/>
<path class="Note" d="M773.022,2352.37 C774.907,2352.37 778.863,2350.42 784.889,2346.51 C790.915,2342.61 794.465,2339.99 795.537,2338.66 C796.61,2337.32 797.147,2336.13 797.147,2335.09 C797.147,2334.05 796.722,2333.12 795.873,2332.31 C795.024,2331.5 794.048,2331.09 792.944,2331.09 C790.996,2331.09 787.009,2333.06 780.983,2337 C774.957,2340.94 771.423,2343.56 770.381,2344.86 C769.34,2346.16 768.819,2347.33 768.819,2348.37 C768.819,2349.42 769.228,2350.34 770.045,2351.16 C770.863,2351.97 771.855,2352.37 773.022,2352.37 M791.975,2327.97 C797.569,2327.97 800.366,2330.37 800.366,2335.19 C800.366,2337.53 799.683,2340.25 798.319,2343.34 C796.954,2346.44 795.131,2348.8 792.85,2350.42 C787.84,2353.81 781.558,2355.5 774.006,2355.5 C768.402,2355.5 765.6,2353.09 765.6,2348.28 C765.6,2346.13 766.267,2343.47 767.6,2340.27 C768.933,2337.08 770.772,2334.67 773.116,2333.05 C778.136,2329.66 784.423,2327.97 791.975,2327.97"/>
<path class="Note" d="M750.41,1827.97 C753.535,1827.97 756.139,1828.75 758.222,1830.31 C760.305,1831.87 761.347,1834.12 761.347,1837.05 C761.347,1841.54 759.022,1845.73 754.37,1849.64 C749.719,1853.55 744.722,1855.5 739.378,1855.5 C736.253,1855.5 733.618,1854.69 731.472,1853.06 C729.451,1851.3 728.441,1849.09 728.441,1846.42 C728.441,1842.06 730.753,1837.89 735.378,1833.92 C740.003,1829.95 745.014,1827.97 750.41,1827.97"/>
<path class="Note" d="M1994.08,1827.97 C1997.2,1827.97 1999.81,1828.75 2001.89,1830.31 C2003.97,1831.87 2005.02,1834.12 2005.02,1837.05 C2005.02,1841.54 2002.69,1845.73 1998.04,1849.64 C1993.39,1853.55 1988.39,1855.5 1983.05,1855.5 C1979.92,1855.5 1977.29,1854.69 1975.14,1853.06 C1973.12,1851.3 1972.11,1849.09 1972.11,1846.42 C1972.11,1842.06 1974.42,1837.89 1979.05,1833.92 C1983.67,1829.95 1988.68,1827.97 1994.08,1827.97"/>
<path class="Note" d="M2252.14,1852.97 C2255.27,1852.97 2257.87,1853.75 2259.96,1855.31 C2262.04,1856.87 2263.08,1859.12 2263.08,1862.05 C2263.08,1866.54 2260.75,1870.73 2256.1,1874.64 C2251.45,1878.55 2246.46,1880.5 2241.11,1880.5 C2237.99,1880.5 2235.35,1879.69 2233.21,1878.06 C2231.18,1876.3 2230.17,1874.09 2230.17,1871.42 C2230.17,1867.06 2232.49,1862.89 2237.11,1858.92 C2241.74,1854.95 2246.75,1852.97 2252.14,1852.97"/>
<path class="Note" d="M2283.3,427.967 C2286.43,427.967 2289.03,428.748 2291.11,430.311 C2293.2,431.873 2294.24,434.118 2294.24,437.045 C2294.24,441.535 2291.91,445.733 2287.26,449.639 C2282.61,453.545 2277.61,455.498 2272.27,455.498 C2269.15,455.498 2266.51,454.686 2264.36,453.061 C2262.34,451.3 2261.33,449.087 2261.33,446.42 C2261.33,442.055 2263.65,437.889 2268.27,433.92 C2272.9,429.951 2277.91,427.967 2283.3,427.967"/>
<path class="Note" d="M667.637,2315.47 C670.762,2315.47 673.366,2316.25 675.449,2317.81 C677.533,2319.37 678.574,2321.62 678.574,2324.55 C678.574,2329.04 676.249,2333.23 671.598,2337.14 C666.947,2341.05 661.949,2343 656.606,2343 C653.481,2343 650.845,2342.19 648.699,2340.56 C646.679,2338.8 645.668,2336.59 645.668,2333.92 C645.668,2329.56 647.981,2325.39 652.606,2321.42 C657.231,2317.45 662.241,2315.47 667.637,2315.47"/>
<path class="Note" d="M2108.61,1840.47 C2111.74,1840.47 2114.34,1841.25 2116.42,1842.81 C2118.51,1844.37 2119.55,1846.62 2119.55,1849.55 C2119.55,1854.04 2117.22,1858.23 2112.57,1862.14 C2107.92,1866.05 2102.92,1868 2097.58,1868 C2094.45,1868 2091.82,1867.19 2089.67,1865.56 C2087.65,1863.8 2086.64,1861.59 2086.64,1858.92 C2086.64,1854.56 2088.95,1850.39 2093.58,1846.42 C2098.2,1842.45 2103.21,1840.47 2108.61,1840.47"/>
<path class="Note" d="M361.842,340.467 C364.967,340.467 367.571,341.248 369.654,342.811 C371.738,344.373 372.779,346.618 372.779,349.545 C372.779,354.035 370.454,358.232 365.803,362.139 C361.152,366.045 356.154,367.998 350.811,367.998 C347.686,367.998 345.05,367.186 342.904,365.561 C340.884,363.8 339.873,361.587 339.873,358.92 C339.873,354.555 342.186,350.389 346.811,346.42 C351.436,342.451 356.446,340.467 361.842,340.467"/>
<path class="Note" d="M635.877,1815.47 C639.002,1815.47 641.606,1816.25 643.69,1817.81 C645.773,1819.37 646.815,1821.62 646.815,1824.55 C646.815,1829.04 644.489,1833.23 639.838,1837.14 C635.187,1841.05 630.19,1843 624.846,1843 C621.721,1843 619.086,1842.19 616.94,1840.56 C614.919,1838.8 613.908,1836.59 613.908,1833.92 C613.908,1829.56 616.221,1825.39 620.846,1821.42 C625.471,1817.45 630.481,1815.47 635.877,1815.47"/>
<path class="Note" d="M1664.81,402.967 C1667.94,402.967 1670.54,403.748 1672.62,405.311 C1674.71,406.873 1675.75,409.118 1675.75,412.045 C1675.75,416.535 1673.42,420.733 1668.77,424.639 C1664.12,428.545 1659.12,430.498 1653.78,430.498 C1650.66,430.498 1648.02,429.686 1645.87,428.061 C1643.85,426.3 1642.84,424.087 1642.84,421.42 C1642.84,417.055 1645.16,412.889 1649.78,408.92 C1654.41,404.951 1659.42,402.967 1664.81,402.967"/>
<path class="Note" d="M1439.32,390.467 C1442.44,390.467 1445.05,391.248 1447.13,392.811 C1449.21,394.373 1450.25,396.618 1450.25,399.545 C1450.25,404.035 1447.93,408.233 1443.28,412.139 C1438.63,416.045 1433.63,417.998 1428.28,417.998 C1425.16,417.998 1422.52,417.186 1420.38,415.561 C1418.36,413.8 1417.35,411.587 1417.35,408.92 C1417.35,404.555 1419.66,400.389 1424.28,396.42 C1428.91,392.451 1433.92,390.467 1439.32,390.467"/>
<path class="Note" d="M656.586,352.967 C659.711,352.967 662.316,353.748 664.399,355.311 C666.482,356.873 667.524,359.118 667.524,362.045 C667.524,366.535 665.198,370.733 660.547,374.639 C655.896,378.545 650.899,380.498 645.555,380.498 C642.43,380.498 639.795,379.686 637.649,378.061 C635.628,376.3 634.618,374.087 634.618,371.42 C634.618,367.055 636.93,362.889 641.555,358.92 C646.18,354.951 651.191,352.967 656.586,352.967"/>
<path class="Note" d="M893.942,1840.47 C897.067,1840.47 899.671,1841.25 901.754,1842.81 C903.838,1844.37 904.879,1846.62 904.879,1849.55 C904.879,1854.04 902.554,1858.23 897.903,1862.14 C893.252,1866.05 888.254,1868 882.911,1868 C879.786,1868 877.15,1867.19 875.004,1865.56 C872.984,1863.8 871.973,1861.59 871.973,1858.92 C871.973,1854.56 874.286,1850.39 878.911,1846.42 C883.536,1842.45 888.546,1840.47 893.942,1840.47"/>
<path class="Note" d="M386.049,2290.47 C389.174,2290.47 391.778,2291.25 393.861,2292.81 C395.945,2294.37 396.986,2296.62 396.986,2299.55 C396.986,2304.04 394.661,2308.23 390.01,2312.14 C385.359,2316.05 380.361,2318 375.018,2318 C371.893,2318 369.257,2317.19 367.111,2315.56 C365.091,2313.8 364.08,2311.59 364.08,2308.92 C364.08,2304.56 366.393,2300.39 371.018,2296.42 C375.643,2292.45 380.653,2290.47 386.049,2290.47"/>
<path class="Note" d="M1065.68,377.967 C1068.8,377.967 1071.41,378.748 1073.49,380.311 C1075.57,381.873 1076.61,384.118 1076.61,387.045 C1076.61,391.535 1074.29,395.733 1069.64,399.639 C1064.99,403.545 1059.99,405.498 1054.65,405.498 C1051.52,405.498 1048.89,404.686 1046.74,403.061 C1044.72,401.3 1043.71,399.087 1043.71,396.42 C1043.71,392.055 1046.02,387.889 1050.65,383.92 C1055.27,379.951 1060.28,377.967 1065.68,377.967"/>
<path class="Note" d="M1523.87,1827.97 C1526.99,1827.97 1529.6,1828.75 1531.68,1830.31 C1533.77,1831.87 1534.81,1834.12 1534.81,1837.05 C1534.81,1841.54 1532.48,1845.73 1527.83,1849.64 C1523.18,1853.55 1518.18,1855.5 1512.84,1855.5 C1509.71,1855.5 1507.08,1854.69 1504.93,1853.06 C1502.91,1851.3 1501.9,1849.09 1501.9,1846.42 C1501.9,1842.06 1504.21,1837.89 1508.84,1833.92 C1513.46,1829.95 1518.47,1827.97 1523.87,1827.97"/>
<path class="Note" d="M1065.74,1840.47 C1068.87,1840.47 1071.47,1841.25 1073.55,1842.81 C1075.64,1844.37 1076.68,1846.62 1076.68,1849.55 C1076.68,1854.04 1074.35,1858.23 1069.7,1862.14 C1065.05,1866.05 1060.05,1868 1054.71,1868 C1051.58,1868 1048.95,1867.19 1046.8,1865.56 C1044.78,1863.8 1043.77,1861.59 1043.77,1858.92 C1043.77,1854.56 1046.08,1850.39 1050.71,1846.42 C1055.33,1842.45 1060.34,1840.47 1065.74,1840.47"/>
<path class="Note" d="M1237.54,1840.47 C1240.66,1840.47 1243.27,1841.25 1245.35,1842.81 C1247.43,1844.37 1248.48,1846.62 1248.48,1849.55 C1248.48,1854.04 1246.15,1858.23 1241.5,1862.14 C1236.85,1866.05 1231.85,1868 1226.51,1868 C1223.38,1868 1220.75,1867.19 1218.6,1865.56 C1216.58,1863.8 1215.57,1861.59 1215.57,1858.92 C1215.57,1854.56 1217.88,1850.39 1222.51,1846.42 C1227.13,1842.45 1232.14,1840.47 1237.54,1840.47"/>
<path class="Note" d="M905.679,365.467 C908.804,365.467 911.408,366.248 913.492,367.811 C915.575,369.373 916.617,371.618 916.617,374.545 C916.617,379.035 914.291,383.233 909.64,387.139 C904.989,391.045 899.992,392.998 894.648,392.998 C891.523,392.998 888.888,392.186 886.742,390.561 C884.721,388.8 883.71,386.587 883.71,383.92 C883.71,379.555 886.023,375.389 890.648,371.42 C895.273,367.451 900.283,365.467 905.679,365.467"/>
<path class="Note" d="M1409.34,1840.47 C1412.46,1840.47 1415.07,1841.25 1417.15,1842.81 C1419.23,1844.37 1420.27,1846.62 1420.27,1849.55 C1420.27,1854.04 1417.95,1858.23 1413.3,1862.14 C1408.65,1866.05 1403.65,1868 1398.31,1868 C1395.18,1868 1392.55,1867.19 1390.4,1865.56 C1388.38,1863.8 1387.37,1861.59 1387.37,1858.92 C1387.37,1854.56 1389.68,1850.39 1394.31,1846.42 C1398.93,1842.45 1403.94,1840.47 1409.34,1840.47"/>
<path class="Note" d="M2273.19,827.967 C2276.32,827.967 2278.92,828.748 2281.01,830.311 C2283.09,831.873 2284.13,834.118 2284.13,837.045 C2284.13,841.535 2281.81,845.733 2277.16,849.639 C2272.5,853.545 2267.51,855.498 2262.16,855.498 C2259.04,855.498 2256.4,854.686 2254.26,853.061 C2252.24,851.301 2251.23,849.087 2251.23,846.42 C2251.23,842.056 2253.54,837.889 2258.16,833.92 C2262.79,829.952 2267.8,827.967 2273.19,827.967"/>
<path class="Note" d="M1389.88,1327.97 C1393,1327.97 1395.61,1328.75 1397.69,1330.31 C1399.78,1331.87 1400.82,1334.12 1400.82,1337.05 C1400.82,1341.54 1398.49,1345.73 1393.84,1349.64 C1389.19,1353.55 1384.19,1355.5 1378.85,1355.5 C1375.72,1355.5 1373.09,1354.69 1370.94,1353.06 C1368.92,1351.3 1367.91,1349.09 1367.91,1346.42 C1367.91,1342.06 1370.22,1337.89 1374.85,1333.92 C1379.47,1329.95 1384.48,1327.97 1389.88,1327.97"/>
<path class="Note" d="M1238.22,1315.47 C1241.34,1315.47 1243.95,1316.25 1246.03,1317.81 C1248.11,1319.37 1249.15,1321.62 1249.15,1324.55 C1249.15,1329.04 1246.83,1333.23 1242.18,1337.14 C1237.53,1341.05 1232.53,1343 1227.19,1343 C1224.06,1343 1221.43,1342.19 1219.28,1340.56 C1217.26,1338.8 1216.25,1336.59 1216.25,1333.92 C1216.25,1329.56 1218.56,1325.39 1223.19,1321.42 C1227.81,1317.45 1232.82,1315.47 1238.22,1315.47"/>
<path class="Note" d="M1857.37,815.467 C1860.49,815.467 1863.09,816.248 1865.18,817.811 C1867.26,819.373 1868.3,821.618 1868.3,824.545 C1868.3,829.035 1865.98,833.233 1861.33,837.139 C1856.68,841.045 1851.68,842.998 1846.33,842.998 C1843.21,842.998 1840.57,842.186 1838.43,840.561 C1836.41,838.801 1835.4,836.587 1835.4,833.92 C1835.4,829.556 1837.71,825.389 1842.33,821.42 C1846.96,817.452 1851.97,815.467 1857.37,815.467"/>
<path class="Note" d="M1086.55,1302.97 C1089.68,1302.97 1092.28,1303.75 1094.37,1305.31 C1096.45,1306.87 1097.49,1309.12 1097.49,1312.05 C1097.49,1316.54 1095.17,1320.73 1090.52,1324.64 C1085.86,1328.55 1080.87,1330.5 1075.52,1330.5 C1072.4,1330.5 1069.76,1329.69 1067.62,1328.06 C1065.6,1326.3 1064.59,1324.09 1064.59,1321.42 C1064.59,1317.06 1066.9,1312.89 1071.52,1308.92 C1076.15,1304.95 1081.16,1302.97 1086.55,1302.97"/>
<path class="Note" d="M487.084,2290.47 C490.209,2290.47 492.813,2291.25 494.897,2292.81 C496.98,2294.37 498.022,2296.62 498.022,2299.55 C498.022,2304.04 495.696,2308.23 491.045,2312.14 C486.394,2316.05 481.397,2318 476.053,2318 C472.928,2318 470.292,2317.19 468.147,2315.56 C466.126,2313.8 465.115,2311.59 465.115,2308.92 C465.115,2304.56 467.428,2300.39 472.053,2296.42 C476.678,2292.45 481.688,2290.47 487.084,2290.47"/>
<path class="Note" d="M934.892,1290.47 C938.017,1290.47 940.622,1291.25 942.705,1292.81 C944.788,1294.37 945.83,1296.62 945.83,1299.55 C945.83,1304.04 943.504,1308.23 938.853,1312.14 C934.202,1316.05 929.205,1318 923.861,1318 C920.736,1318 918.101,1317.19 915.955,1315.56 C913.934,1313.8 912.924,1311.59 912.924,1308.92 C912.924,1304.56 915.236,1300.39 919.861,1296.42 C924.486,1292.45 929.497,1290.47 934.892,1290.47"/>
<path class="Note" d="M2079.78,815.467 C2082.91,815.467 2085.51,816.248 2087.59,817.811 C2089.68,819.373 2090.72,821.618 2090.72,824.545 C2090.72,829.035 2088.39,833.233 2083.74,837.139 C2079.09,841.045 2074.09,842.998 2068.75,842.998 C2065.62,842.998 2062.99,842.186 2060.84,840.561 C2058.82,838.801 2057.81,836.587 2057.81,833.92 C2057.81,829.556 2060.12,825.389 2064.75,821.42 C2069.37,817.452 2074.38,815.467 2079.78,815.467"/>
<path class="Note" d="M754.23,1290.47 C757.355,1290.47 759.959,1291.25 762.043,1292.81 C764.126,1294.37 765.168,1296.62 765.168,1299.55 C765.168,1304.04 762.842,1308.23 758.191,1312.14 C753.54,1316.05 748.543,1318 743.199,1318 C740.074,1318 737.438,1317.19 735.293,1315.56 C733.272,1313.8 732.261,1311.59 732.261,1308.92 C732.261,1304.56 734.574,1300.39 739.199,1296.42 C743.824,1292.45 748.834,1290.47 754.23,1290.47"/>
<path class="Note" d="M2656.94,377.967 C2660.07,377.967 2662.67,378.748 2664.75,380.311 C2666.84,381.873 2667.88,384.118 2667.88,387.045 C2667.88,391.535 2665.55,395.733 2660.9,399.639 C2656.25,403.545 2651.25,405.498 2645.91,405.498 C2642.78,405.498 2640.15,404.686 2638,403.061 C2635.98,401.3 2634.97,399.087 2634.97,396.42 C2634.97,392.055 2637.28,387.889 2641.91,383.92 C2646.53,379.951 2651.54,377.967 2656.94,377.967"/>
<path class="Note" d="M602.568,1352.97 C605.693,1352.97 608.297,1353.75 610.38,1355.31 C612.463,1356.87 613.505,1359.12 613.505,1362.05 C613.505,1366.54 611.18,1370.73 606.529,1374.64 C601.878,1378.55 596.88,1380.5 591.536,1380.5 C588.411,1380.5 585.776,1379.69 583.63,1378.06 C581.609,1376.3 580.599,1374.09 580.599,1371.42 C580.599,1367.06 582.911,1362.89 587.536,1358.92 C592.161,1354.95 597.172,1352.97 602.568,1352.97"/>
<path class="Note" d="M501.459,1340.47 C504.584,1340.47 507.189,1341.25 509.272,1342.81 C511.355,1344.37 512.397,1346.62 512.397,1349.55 C512.397,1354.04 510.071,1358.23 505.42,1362.14 C500.769,1366.05 495.772,1368 490.428,1368 C487.303,1368 484.668,1367.19 482.522,1365.56 C480.501,1363.8 479.491,1361.59 479.491,1358.92 C479.491,1354.56 481.803,1350.39 486.428,1346.42 C491.053,1342.45 496.064,1340.47 501.459,1340.47"/>
<path class="Note" d="M2466.61,840.467 C2469.73,840.467 2472.34,841.248 2474.42,842.811 C2476.5,844.373 2477.55,846.618 2477.55,849.545 C2477.55,854.035 2475.22,858.233 2470.57,862.139 C2465.92,866.045 2460.92,867.998 2455.58,867.998 C2452.45,867.998 2449.82,867.186 2447.67,865.561 C2445.65,863.801 2444.64,861.587 2444.64,858.92 C2444.64,854.556 2446.95,850.389 2451.58,846.42 C2456.2,842.452 2461.21,840.467 2466.61,840.467"/>
<path class="Note" d="M309.201,2277.97 C312.326,2277.97 314.93,2278.75 317.014,2280.31 C319.097,2281.87 320.139,2284.12 320.139,2287.05 C320.139,2291.54 317.813,2295.73 313.162,2299.64 C308.511,2303.55 303.514,2305.5 298.17,2305.5 C295.045,2305.5 292.41,2304.69 290.264,2303.06 C288.243,2301.3 287.232,2299.09 287.232,2296.42 C287.232,2292.06 289.545,2287.89 294.17,2283.92 C298.795,2279.95 303.805,2277.97 309.201,2277.97"/>
<path class="Note" d="M426.463,2302.97 C429.588,2302.97 432.192,2303.75 434.275,2305.31 C436.359,2306.87 437.4,2309.12 437.4,2312.05 C437.4,2316.54 435.075,2320.73 430.424,2324.64 C425.773,2328.55 420.775,2330.5 415.432,2330.5 C412.307,2330.5 409.671,2329.69 407.525,2328.06 C405.505,2326.3 404.494,2324.09 404.494,2321.42 C404.494,2317.06 406.807,2312.89 411.432,2308.92 C416.057,2304.95 421.067,2302.97 426.463,2302.97"/>
<path class="Note" d="M309.201,1327.97 C312.326,1327.97 314.93,1328.75 317.014,1330.31 C319.097,1331.87 320.139,1334.12 320.139,1337.05 C320.139,1341.54 317.813,1345.73 313.162,1349.64 C308.511,1353.55 303.514,1355.5 298.17,1355.5 C295.045,1355.5 292.41,1354.69 290.264,1353.06 C288.243,1351.3 287.232,1349.09 287.232,1346.42 C287.232,1342.06 289.545,1337.89 294.17,1333.92 C298.795,1329.95 303.805,1327.97 309.201,1327.97"/>
<path class="Note" d="M2660.02,852.967 C2663.15,852.967 2665.75,853.748 2667.84,855.311 C2669.92,856.873 2670.96,859.118 2670.96,862.045 C2670.96,866.535 2668.63,870.733 2663.98,874.639 C2659.33,878.545 2654.34,880.498 2648.99,880.498 C2645.87,880.498 2643.23,879.686 2641.09,878.061 C2639.06,876.301 2638.05,874.087 2638.05,871.42 C2638.05,867.056 2640.37,862.889 2644.99,858.92 C2649.62,854.952 2654.63,852.967 2660.02,852.967"/>
<path class="Note" d="M1267.17,827.967 C1270.3,827.967 1272.9,828.748 1274.99,830.311 C1277.07,831.873 1278.11,834.118 1278.11,837.045 C1278.11,841.535 1275.78,845.733 1271.13,849.639 C1266.48,853.545 1261.49,855.498 1256.14,855.498 C1253.02,855.498 1250.38,854.686 1248.24,853.061 C1246.21,851.301 1245.2,849.087 1245.2,846.42 C1245.2,842.056 1247.52,837.889 1252.14,833.92 C1256.77,829.952 1261.78,827.967 1267.17,827.967"/>
<path class="Note" d="M2752.33,1340.47 C2755.45,1340.47 2758.06,1341.25 2760.14,1342.81 C2762.22,1344.37 2763.27,1346.62 2763.27,1349.55 C2763.27,1354.04 2760.94,1358.23 2756.29,1362.14 C2751.64,1366.05 2746.64,1368 2741.3,1368 C2738.17,1368 2735.54,1367.19 2733.39,1365.56 C2731.37,1363.8 2730.36,1361.59 2730.36,1358.92 C2730.36,1354.56 2732.67,1350.39 2737.3,1346.42 C2741.92,1342.45 2746.93,1340.47 2752.33,1340.47"/>
<path class="Note" d="M2651.22,1352.97 C2654.35,1352.97 2656.95,1353.75 2659.03,1355.31 C2661.12,1356.87 2662.16,1359.12 2662.16,1362.05 C2662.16,1366.54 2659.83,1370.73 2655.18,1374.64 C2650.53,1378.55 2645.53,1380.5 2640.19,1380.5 C2637.06,1380.5 2634.43,1379.69 2632.28,1378.06 C2630.26,1376.3 2629.25,1374.09 2629.25,1371.42 C2629.25,1367.06 2631.56,1362.89 2636.19,1358.92 C2640.81,1354.95 2645.82,1352.97 2651.22,1352.97"/>
<path class="Note" d="M2423.94,1765.47 C2427.07,1765.47 2429.67,1766.25 2431.75,1767.81 C2433.84,1769.37 2434.88,1771.62 2434.88,1774.55 C2434.88,1779.04 2432.55,1783.23 2427.9,1787.14 C2423.25,1791.05 2418.25,1793 2412.91,1793 C2409.78,1793 2407.15,1792.19 2405,1790.56 C2402.98,1788.8 2401.97,1786.59 2401.97,1783.92 C2401.97,1779.56 2404.28,1775.39 2408.91,1771.42 C2413.53,1767.45 2418.55,1765.47 2423.94,1765.47"/>
<path class="Note" d="M2499.56,1352.97 C2502.68,1352.97 2505.29,1353.75 2507.37,1355.31 C2509.45,1356.87 2510.5,1359.12 2510.5,1362.05 C2510.5,1366.54 2508.17,1370.73 2503.52,1374.64 C2498.87,1378.55 2493.87,1380.5 2488.53,1380.5 C2485.4,1380.5 2482.77,1379.69 2480.62,1378.06 C2478.6,1376.3 2477.59,1374.09 2477.59,1371.42 C2477.59,1367.06 2479.9,1362.89 2484.53,1358.92 C2489.15,1354.95 2494.16,1352.97 2499.56,1352.97"/>
<path class="Note" d="M576.705,2302.97 C579.83,2302.97 582.434,2303.75 584.518,2305.31 C586.601,2306.87 587.643,2309.12 587.643,2312.05 C587.643,2316.54 585.317,2320.73 580.666,2324.64 C576.015,2328.55 571.018,2330.5 565.674,2330.5 C562.549,2330.5 559.914,2329.69 557.768,2328.06 C555.747,2326.3 554.737,2324.09 554.737,2321.42 C554.737,2317.06 557.049,2312.89 561.674,2308.92 C566.299,2304.95 571.309,2302.97 576.705,2302.97"/>
<path class="Note" d="M2347.9,1352.97 C2351.02,1352.97 2353.62,1353.75 2355.71,1355.31 C2357.79,1356.87 2358.83,1359.12 2358.83,1362.05 C2358.83,1366.54 2356.51,1370.73 2351.86,1374.64 C2347.21,1378.55 2342.21,1380.5 2336.86,1380.5 C2333.74,1380.5 2331.1,1379.69 2328.96,1378.06 C2326.94,1376.3 2325.93,1374.09 2325.93,1371.42 C2325.93,1367.06 2328.24,1362.89 2332.86,1358.92 C2337.49,1354.95 2342.5,1352.97 2347.9,1352.97"/>
<path class="Note" d="M2196.23,1352.97 C2199.36,1352.97 2201.96,1353.75 2204.05,1355.31 C2206.13,1356.87 2207.17,1359.12 2207.17,1362.05 C2207.17,1366.54 2204.85,1370.73 2200.19,1374.64 C2195.54,1378.55 2190.55,1380.5 2185.2,1380.5 C2182.08,1380.5 2179.44,1379.69 2177.3,1378.06 C2175.28,1376.3 2174.26,1374.09 2174.26,1371.42 C2174.26,1367.06 2176.58,1362.89 2181.2,1358.92 C2185.83,1354.95 2190.84,1352.97 2196.23,1352.97"/>
<path class="Note" d="M309.201,840.467 C312.326,840.467 314.93,841.248 317.014,842.811 C319.097,844.373 320.139,846.618 320.139,849.545 C320.139,854.035 317.813,858.233 313.162,862.139 C308.511,866.045 303.514,867.998 298.17,867.998 C295.045,867.998 292.41,867.186 290.264,865.561 C288.243,863.801 287.232,861.587 287.232,858.92 C287.232,854.556 289.545,850.389 294.17,846.42 C298.795,842.452 303.805,840.467 309.201,840.467"/>
<path class="Note" d="M2015.57,1352.97 C2018.7,1352.97 2021.3,1353.75 2023.38,1355.31 C2025.47,1356.87 2026.51,1359.12 2026.51,1362.05 C2026.51,1366.54 2024.18,1370.73 2019.53,1374.64 C2014.88,1378.55 2009.88,1380.5 2004.54,1380.5 C2001.41,1380.5 1998.78,1379.69 1996.63,1378.06 C1994.61,1376.3 1993.6,1374.09 1993.6,1371.42 C1993.6,1367.06 1995.91,1362.89 2000.54,1358.92 C2005.16,1354.95 2010.18,1352.97 2015.57,1352.97"/>
<path class="Note" d="M676.98,840.467 C680.105,840.467 682.709,841.248 684.792,842.811 C686.876,844.373 687.917,846.618 687.917,849.545 C687.917,854.035 685.592,858.233 680.941,862.139 C676.29,866.045 671.292,867.998 665.949,867.998 C662.824,867.998 660.188,867.186 658.042,865.561 C656.022,863.801 655.011,861.587 655.011,858.92 C655.011,854.556 657.324,850.389 661.949,846.42 C666.574,842.452 671.584,840.467 676.98,840.467"/>
<path class="Note" d="M2681.64,1790.47 C2684.76,1790.47 2687.37,1791.25 2689.45,1792.81 C2691.53,1794.37 2692.58,1796.62 2692.58,1799.55 C2692.58,1804.04 2690.25,1808.23 2685.6,1812.14 C2680.95,1816.05 2675.95,1818 2670.61,1818 C2667.48,1818 2664.85,1817.19 2662.7,1815.56 C2660.68,1813.8 2659.67,1811.59 2659.67,1808.92 C2659.67,1804.56 2661.98,1800.39 2666.61,1796.42 C2671.23,1792.45 2676.24,1790.47 2681.64,1790.47"/>
<path class="Note" d="M1863.91,1352.97 C1867.03,1352.97 1869.64,1353.75 1871.72,1355.31 C1873.8,1356.87 1874.85,1359.12 1874.85,1362.05 C1874.85,1366.54 1872.52,1370.73 1867.87,1374.64 C1863.22,1378.55 1858.22,1380.5 1852.88,1380.5 C1849.75,1380.5 1847.12,1379.69 1844.97,1378.06 C1842.95,1376.3 1841.94,1374.09 1841.94,1371.42 C1841.94,1367.06 1844.25,1362.89 1848.88,1358.92 C1853.5,1354.95 1858.51,1352.97 1863.91,1352.97"/>
<path class="Note" d="M1762.8,1340.47 C1765.93,1340.47 1768.53,1341.25 1770.61,1342.81 C1772.7,1344.37 1773.74,1346.62 1773.74,1349.55 C1773.74,1354.04 1771.41,1358.23 1766.76,1362.14 C1762.11,1366.05 1757.11,1368 1751.77,1368 C1748.64,1368 1746.01,1367.19 1743.86,1365.56 C1741.84,1363.8 1740.83,1361.59 1740.83,1358.92 C1740.83,1354.56 1743.14,1350.39 1747.77,1346.42 C1752.39,1342.45 1757.4,1340.47 1762.8,1340.47"/>
<path class="Note" d="M899.394,827.967 C902.519,827.967 905.123,828.748 907.207,830.311 C909.29,831.873 910.332,834.118 910.332,837.045 C910.332,841.535 908.006,845.733 903.355,849.639 C898.704,853.545 893.707,855.498 888.363,855.498 C885.238,855.498 882.602,854.686 880.457,853.061 C878.436,851.301 877.425,849.087 877.425,846.42 C877.425,842.056 879.738,837.889 884.363,833.92 C888.988,829.952 893.998,827.967 899.394,827.967"/>
<path class="Note" d="M1570.54,1327.97 C1573.67,1327.97 1576.27,1328.75 1578.35,1330.31 C1580.44,1331.87 1581.48,1334.12 1581.48,1337.05 C1581.48,1341.54 1579.15,1345.73 1574.5,1349.64 C1569.85,1353.55 1564.85,1355.5 1559.51,1355.5 C1556.39,1355.5 1553.75,1354.69 1551.6,1353.06 C1549.58,1351.3 1548.57,1349.09 1548.57,1346.42 C1548.57,1342.06 1550.89,1337.89 1555.51,1333.92 C1560.14,1329.95 1565.15,1327.97 1570.54,1327.97"/>
<path class="Note" d="M1489.59,815.467 C1492.71,815.467 1495.32,816.248 1497.4,817.811 C1499.48,819.373 1500.52,821.618 1500.52,824.545 C1500.52,829.035 1498.2,833.233 1493.55,837.139 C1488.9,841.045 1483.9,842.998 1478.56,842.998 C1475.43,842.998 1472.8,842.186 1470.65,840.561 C1468.63,838.801 1467.62,836.587 1467.62,833.92 C1467.62,829.556 1469.93,825.389 1474.56,821.42 C1479.18,817.452 1484.19,815.467 1489.59,815.467"/>
<path class="Clef" d="M203.623,2323.86 L203.623,2321.72 C203.56,2320.61 203.399,2318.89 203.139,2316.55 C199.889,2317.07 196.993,2317.33 194.451,2317.33 C185.337,2317.33 177.605,2313.73 171.256,2306.53 C164.907,2299.33 161.732,2290.75 161.732,2280.8 C161.732,2278.13 162.253,2274.92 163.295,2271.18 C164.337,2267.43 165.297,2264.93 166.178,2263.66 C167.058,2262.38 168.378,2260.16 170.139,2256.97 C170.659,2255.99 172.352,2253.84 175.217,2250.51 C175.738,2249.81 176.193,2249.22 176.584,2248.76 C176.975,2248.31 177.607,2247.49 178.482,2246.32 C179.357,2245.15 180.3,2244.06 181.31,2243.05 C182.321,2242.04 183.217,2241.06 183.998,2240.12 C184.779,2239.17 185.498,2238.38 186.154,2237.73 C183.81,2229.98 182.378,2224.03 181.857,2219.86 C181.337,2215.69 181.076,2210.58 181.076,2204.52 C181.076,2198.47 182.378,2192.96 184.982,2188.01 C187.514,2182.88 191.06,2178.68 195.623,2175.42 C195.883,2175.22 196.225,2175.12 196.646,2175.12 C197.068,2175.12 197.378,2175.22 197.576,2175.42 C201.087,2179.65 204.128,2185.15 206.701,2191.92 C209.274,2198.69 210.56,2205.03 210.56,2210.92 C210.56,2216.82 209.066,2222.5 206.076,2227.97 C202.691,2233.76 198.326,2239.75 192.982,2245.94 C194.347,2250.23 196.17,2256.96 198.451,2266.14 L199.045,2266.14 C199.305,2266.08 199.529,2266.05 199.717,2266.05 C207.081,2266.05 213.089,2268.63 217.74,2273.81 C222.391,2278.99 224.717,2284.96 224.717,2291.73 C224.717,2300.13 221.238,2306.9 214.279,2312.05 C212.258,2313.55 209.878,2314.72 207.139,2315.56 C207.472,2319.79 207.639,2322.61 207.639,2324.01 C207.639,2325.41 207.571,2327.9 207.435,2331.48 C207.373,2337.6 205.29,2342.84 201.185,2347.2 C197.081,2351.57 192.394,2353.75 187.123,2353.75 C181.852,2353.75 177.36,2351.88 173.646,2348.13 C169.933,2344.39 168.076,2339.85 168.076,2334.51 C168.076,2331.71 169.154,2329.33 171.31,2327.37 C173.519,2325.43 176.006,2324.45 178.771,2324.45 C181.537,2324.45 183.8,2325.46 185.56,2327.48 C187.383,2329.37 188.295,2331.65 188.295,2334.31 C188.295,2336.98 187.383,2339.22 185.56,2341.05 C183.738,2342.87 181.555,2343.78 179.014,2343.78 C177.972,2343.78 176.967,2343.59 175.998,2343.2 C178.863,2347.43 182.54,2349.55 187.029,2349.55 C191.519,2349.55 195.36,2347.69 198.553,2343.98 C201.745,2340.28 203.342,2335.91 203.342,2330.89 L203.623,2323.86 M206.748,2311.56 C210.133,2310.32 212.821,2308.12 214.81,2304.97 C216.8,2301.81 217.795,2298.67 217.795,2295.55 C217.795,2290.92 216.199,2286.79 213.006,2283.14 C209.813,2279.49 205.774,2277.44 200.889,2276.98 C203.691,2290.72 205.644,2302.25 206.748,2311.56 M168.967,2289 C168.967,2295.45 171.537,2301.08 176.678,2305.9 C181.818,2310.72 187.842,2313.12 194.748,2313.12 C197.477,2313.12 200.144,2312.93 202.748,2312.53 C201.706,2302.63 199.654,2290.79 196.592,2276.98 C192.758,2277.38 189.782,2278.7 187.662,2280.94 C185.542,2283.19 184.482,2285.74 184.482,2288.61 C184.482,2293.56 187.123,2297.56 192.404,2300.62 C192.852,2300.88 193.076,2301.32 193.076,2301.94 C193.076,2302.56 192.865,2303.1 192.443,2303.55 C192.021,2304.01 191.649,2304.23 191.326,2304.23 C191.003,2304.23 190.581,2304.17 190.06,2304.05 C182.435,2299.88 178.623,2293.59 178.623,2285.19 C178.623,2281.22 180.024,2277.41 182.826,2273.76 C185.753,2270.12 189.56,2267.78 194.248,2266.73 C192.425,2259.44 190.93,2253.74 189.764,2249.64 C180.847,2259.67 175.31,2267.09 173.154,2271.91 C170.363,2278.16 168.967,2283.85 168.967,2289 M201.576,2189.69 C196.691,2192.09 192.834,2195.57 190.006,2200.13 C187.178,2204.69 185.764,2209.47 185.764,2214.48 C185.764,2219.49 186.935,2225.97 189.279,2233.92 C193.967,2228.25 197.514,2222.95 199.92,2218 C202.326,2213.05 203.529,2208.15 203.529,2203.3 C203.529,2198.46 202.878,2193.92 201.576,2189.69"/>
<path class="Clef" d="M203.623,423.858 L203.623,421.717 C203.56,420.613 203.399,418.889 203.139,416.545 C199.889,417.066 196.993,417.326 194.451,417.326 C185.337,417.326 177.605,413.727 171.256,406.529 C164.907,399.331 161.732,390.753 161.732,380.795 C161.732,378.128 162.253,374.923 163.295,371.178 C164.337,367.433 165.297,364.925 166.178,363.654 C167.058,362.384 168.378,360.154 170.139,356.967 C170.659,355.988 172.352,353.837 175.217,350.514 C175.738,349.805 176.193,349.222 176.584,348.764 C176.975,348.305 177.607,347.49 178.482,346.318 C179.357,345.147 180.3,344.055 181.31,343.045 C182.321,342.035 183.217,341.058 183.998,340.115 C184.779,339.173 185.498,338.378 186.154,337.733 C183.81,329.983 182.378,324.024 181.857,319.858 C181.337,315.691 181.076,310.579 181.076,304.522 C181.076,298.464 182.378,292.962 184.982,288.014 C187.514,282.878 191.06,278.68 195.623,275.42 C195.883,275.222 196.225,275.123 196.646,275.123 C197.068,275.123 197.378,275.222 197.576,275.42 C201.087,279.649 204.128,285.149 206.701,291.92 C209.274,298.691 210.56,305.024 210.56,310.92 C210.56,316.816 209.066,322.498 206.076,327.967 C202.691,333.759 198.326,339.748 192.982,345.936 C194.347,350.227 196.17,356.962 198.451,366.139 L199.045,366.139 C199.305,366.076 199.529,366.045 199.717,366.045 C207.081,366.045 213.089,368.634 217.74,373.811 C222.391,378.988 224.717,384.962 224.717,391.733 C224.717,400.128 221.238,406.899 214.279,412.045 C212.258,413.545 209.878,414.717 207.139,415.561 C207.472,419.79 207.639,422.605 207.639,424.006 C207.639,425.407 207.571,427.899 207.435,431.483 C207.373,437.597 205.29,442.837 201.185,447.201 C197.081,451.566 192.394,453.748 187.123,453.748 C181.852,453.748 177.36,451.876 173.646,448.131 C169.933,444.386 168.076,439.847 168.076,434.514 C168.076,431.712 169.154,429.331 171.31,427.373 C173.519,425.425 176.006,424.451 178.771,424.451 C181.537,424.451 183.8,425.462 185.56,427.483 C187.383,429.368 188.295,431.644 188.295,434.311 C188.295,436.977 187.383,439.222 185.56,441.045 C183.738,442.868 181.555,443.779 179.014,443.779 C177.972,443.779 176.967,443.587 175.998,443.201 C178.863,447.43 182.54,449.545 187.029,449.545 C191.519,449.545 195.36,447.691 198.553,443.983 C201.745,440.274 203.342,435.91 203.342,430.889 L203.623,423.858 M206.748,411.561 C210.133,410.321 212.821,408.123 214.81,404.967 C216.8,401.811 217.795,398.67 217.795,395.545 C217.795,390.92 216.199,386.785 213.006,383.139 C209.813,379.493 205.774,377.441 200.889,376.983 C203.691,390.722 205.644,402.248 206.748,411.561 M168.967,388.998 C168.967,395.446 171.537,401.079 176.678,405.897 C181.818,410.714 187.842,413.123 194.748,413.123 C197.477,413.123 200.144,412.925 202.748,412.529 C201.706,402.634 199.654,390.785 196.592,376.983 C192.758,377.378 189.782,378.699 187.662,380.943 C185.542,383.188 184.482,385.743 184.482,388.608 C184.482,393.555 187.123,397.561 192.404,400.623 C192.852,400.884 193.076,401.324 193.076,401.943 C193.076,402.563 192.865,403.1 192.443,403.553 C192.021,404.006 191.649,404.233 191.326,404.233 C191.003,404.233 190.581,404.17 190.06,404.045 C182.435,399.878 178.623,393.592 178.623,385.186 C178.623,381.217 180.024,377.41 182.826,373.764 C185.753,370.118 189.56,367.774 194.248,366.733 C192.425,359.441 190.93,353.743 189.764,349.639 C180.847,359.67 175.31,367.092 173.154,371.904 C170.363,378.154 168.967,383.852 168.967,388.998 M201.576,289.686 C196.691,292.092 192.834,295.574 190.006,300.131 C187.178,304.688 185.764,309.472 185.764,314.483 C185.764,319.493 186.935,325.972 189.279,333.92 C193.967,328.253 197.514,322.946 199.92,317.998 C202.326,313.05 203.529,308.152 203.529,303.303 C203.529,298.454 202.878,293.915 201.576,289.686"/>
<path class="Clef" d="M203.623,898.858 L203.623,896.717 C203.56,895.613 203.399,893.889 203.139,891.545 C199.889,892.066 196.993,892.327 194.451,892.327 C185.337,892.327 177.605,888.728 171.256,881.53 C164.907,874.332 161.732,865.754 161.732,855.795 C161.732,853.129 162.253,849.923 163.295,846.178 C164.337,842.433 165.297,839.926 166.178,838.655 C167.058,837.384 168.378,835.155 170.139,831.967 C170.659,830.988 172.352,828.837 175.217,825.514 C175.738,824.806 176.193,824.222 176.584,823.764 C176.975,823.306 177.607,822.491 178.482,821.319 C179.357,820.147 180.3,819.056 181.31,818.045 C182.321,817.035 183.217,816.058 183.998,815.116 C184.779,814.173 185.498,813.379 186.154,812.733 C183.81,804.983 182.378,799.024 181.857,794.858 C181.337,790.691 181.076,785.579 181.076,779.522 C181.076,773.465 182.378,767.962 184.982,763.014 C187.514,757.879 191.06,753.681 195.623,750.42 C195.883,750.222 196.225,750.123 196.646,750.123 C197.068,750.123 197.378,750.222 197.576,750.42 C201.087,754.649 204.128,760.149 206.701,766.92 C209.274,773.691 210.56,780.024 210.56,785.92 C210.56,791.816 209.066,797.498 206.076,802.967 C202.691,808.759 198.326,814.748 192.982,820.936 C194.347,825.228 196.17,831.962 198.451,841.139 L199.045,841.139 C199.305,841.077 199.529,841.045 199.717,841.045 C207.081,841.045 213.089,843.634 217.74,848.811 C222.391,853.988 224.717,859.962 224.717,866.733 C224.717,875.129 221.238,881.899 214.279,887.045 C212.258,888.545 209.878,889.717 207.139,890.561 C207.472,894.79 207.639,897.605 207.639,899.006 C207.639,900.407 207.571,902.899 207.435,906.483 C207.373,912.597 205.29,917.837 201.185,922.202 C197.081,926.566 192.394,928.748 187.123,928.748 C181.852,928.748 177.36,926.876 173.646,923.131 C169.933,919.386 168.076,914.847 168.076,909.514 C168.076,906.712 169.154,904.332 171.31,902.373 C173.519,900.426 176.006,899.452 178.771,899.452 C181.537,899.452 183.8,900.462 185.56,902.483 C187.383,904.368 188.295,906.644 188.295,909.311 C188.295,911.978 187.383,914.222 185.56,916.045 C183.738,917.868 181.555,918.78 179.014,918.78 C177.972,918.78 176.967,918.587 175.998,918.202 C178.863,922.431 182.54,924.545 187.029,924.545 C191.519,924.545 195.36,922.691 198.553,918.983 C201.745,915.274 203.342,910.91 203.342,905.889 L203.623,898.858 M206.748,886.561 C210.133,885.321 212.821,883.123 214.81,879.967 C216.8,876.811 217.795,873.67 217.795,870.545 C217.795,865.92 216.199,861.785 213.006,858.139 C209.813,854.493 205.774,852.441 200.889,851.983 C203.691,865.722 205.644,877.248 206.748,886.561 M168.967,863.998 C168.967,870.446 171.537,876.079 176.678,880.897 C181.818,885.715 187.842,888.123 194.748,888.123 C197.477,888.123 200.144,887.926 202.748,887.53 C201.706,877.634 199.654,865.785 196.592,851.983 C192.758,852.379 189.782,853.699 187.662,855.944 C185.542,858.189 184.482,860.743 184.482,863.608 C184.482,868.556 187.123,872.561 192.404,875.623 C192.852,875.884 193.076,876.324 193.076,876.944 C193.076,877.564 192.865,878.1 192.443,878.553 C192.021,879.006 191.649,879.233 191.326,879.233 C191.003,879.233 190.581,879.17 190.06,879.045 C182.435,874.879 178.623,868.592 178.623,860.186 C178.623,856.217 180.024,852.41 182.826,848.764 C185.753,845.118 189.56,842.774 194.248,841.733 C192.425,834.441 190.93,828.743 189.764,824.639 C180.847,834.67 175.31,842.092 173.154,846.905 C170.363,853.155 168.967,858.853 168.967,863.998 M201.576,764.686 C196.691,767.092 192.834,770.574 190.006,775.131 C187.178,779.689 185.764,784.472 185.764,789.483 C185.764,794.493 186.935,800.972 189.279,808.92 C193.967,803.254 197.514,797.946 199.92,792.998 C202.326,788.051 203.529,783.152 203.529,778.303 C203.529,773.454 202.878,768.915 201.576,764.686"/>
<path class="Clef" d="M203.623,1373.86 L203.623,1371.72 C203.56,1370.61 203.399,1368.89 203.139,1366.55 C199.889,1367.07 196.993,1367.33 194.451,1367.33 C185.337,1367.33 177.605,1363.73 171.256,1356.53 C164.907,1349.33 161.732,1340.75 161.732,1330.8 C161.732,1328.13 162.253,1324.92 163.295,1321.18 C164.337,1317.43 165.297,1314.93 166.178,1313.65 C167.058,1312.38 168.378,1310.15 170.139,1306.97 C170.659,1305.99 172.352,1303.84 175.217,1300.51 C175.738,1299.81 176.193,1299.22 176.584,1298.76 C176.975,1298.31 177.607,1297.49 178.482,1296.32 C179.357,1295.15 180.3,1294.06 181.31,1293.05 C182.321,1292.04 183.217,1291.06 183.998,1290.12 C184.779,1289.17 185.498,1288.38 186.154,1287.73 C183.81,1279.98 182.378,1274.02 181.857,1269.86 C181.337,1265.69 181.076,1260.58 181.076,1254.52 C181.076,1248.46 182.378,1242.96 184.982,1238.01 C187.514,1232.88 191.06,1228.68 195.623,1225.42 C195.883,1225.22 196.225,1225.12 196.646,1225.12 C197.068,1225.12 197.378,1225.22 197.576,1225.42 C201.087,1229.65 204.128,1235.15 206.701,1241.92 C209.274,1248.69 210.56,1255.02 210.56,1260.92 C210.56,1266.82 209.066,1272.5 206.076,1277.97 C202.691,1283.76 198.326,1289.75 192.982,1295.94 C194.347,1300.23 196.17,1306.96 198.451,1316.14 L199.045,1316.14 C199.305,1316.08 199.529,1316.05 199.717,1316.05 C207.081,1316.05 213.089,1318.63 217.74,1323.81 C222.391,1328.99 224.717,1334.96 224.717,1341.73 C224.717,1350.13 221.238,1356.9 214.279,1362.05 C212.258,1363.55 209.878,1364.72 207.139,1365.56 C207.472,1369.79 207.639,1372.61 207.639,1374.01 C207.639,1375.41 207.571,1377.9 207.435,1381.48 C207.373,1387.6 205.29,1392.84 201.185,1397.2 C197.081,1401.57 192.394,1403.75 187.123,1403.75 C181.852,1403.75 177.36,1401.88 173.646,1398.13 C169.933,1394.39 168.076,1389.85 168.076,1384.51 C168.076,1381.71 169.154,1379.33 171.31,1377.37 C173.519,1375.43 176.006,1374.45 178.771,1374.45 C181.537,1374.45 183.8,1375.46 185.56,1377.48 C187.383,1379.37 188.295,1381.64 188.295,1384.31 C188.295,1386.98 187.383,1389.22 185.56,1391.05 C183.738,1392.87 181.555,1393.78 179.014,1393.78 C177.972,1393.78 176.967,1393.59 175.998,1393.2 C178.863,1397.43 182.54,1399.55 187.029,1399.55 C191.519,1399.55 195.36,1397.69 198.553,1393.98 C201.745,1390.27 203.342,1385.91 203.342,1380.89 L203.623,1373.86 M206.748,1361.56 C210.133,1360.32 212.821,1358.12 214.81,1354.97 C216.8,1351.81 217.795,1348.67 217.795,1345.55 C217.795,1340.92 216.199,1336.79 213.006,1333.14 C209.813,1329.49 205.774,1327.44 200.889,1326.98 C203.691,1340.72 205.644,1352.25 206.748,1361.56 M168.967,1339 C168.967,1345.45 171.537,1351.08 176.678,1355.9 C181.818,1360.71 187.842,1363.12 194.748,1363.12 C197.477,1363.12 200.144,1362.93 202.748,1362.53 C201.706,1352.63 199.654,1340.79 196.592,1326.98 C192.758,1327.38 189.782,1328.7 187.662,1330.94 C185.542,1333.19 184.482,1335.74 184.482,1338.61 C184.482,1343.56 187.123,1347.56 192.404,1350.62 C192.852,1350.88 193.076,1351.32 193.076,1351.94 C193.076,1352.56 192.865,1353.1 192.443,1353.55 C192.021,1354.01 191.649,1354.23 191.326,1354.23 C191.003,1354.23 190.581,1354.17 190.06,1354.05 C182.435,1349.88 178.623,1343.59 178.623,1335.19 C178.623,1331.22 180.024,1327.41 182.826,1323.76 C185.753,1320.12 189.56,1317.77 194.248,1316.73 C192.425,1309.44 190.93,1303.74 189.764,1299.64 C180.847,1309.67 175.31,1317.09 173.154,1321.9 C170.363,1328.15 168.967,1333.85 168.967,1339 M201.576,1239.69 C196.691,1242.09 192.834,1245.57 190.006,1250.13 C187.178,1254.69 185.764,1259.47 185.764,1264.48 C185.764,1269.49 186.935,1275.97 189.279,1283.92 C193.967,1278.25 197.514,1272.95 199.92,1268 C202.326,1263.05 203.529,1258.15 203.529,1253.3 C203.529,1248.45 202.878,1243.92 201.576,1239.69"/>
<path class="Clef" d="M203.623,1848.86 L203.623,1846.72 C203.56,1845.61 203.399,1843.89 203.139,1841.55 C199.889,1842.07 196.993,1842.33 194.451,1842.33 C185.337,1842.33 177.605,1838.73 171.256,1831.53 C164.907,1824.33 161.732,1815.75 161.732,1805.8 C161.732,1803.13 162.253,1799.92 163.295,1796.18 C164.337,1792.43 165.297,1789.93 166.178,1788.66 C167.058,1787.38 168.378,1785.16 170.139,1781.97 C170.659,1780.99 172.352,1778.84 175.217,1775.51 C175.738,1774.81 176.193,1774.22 176.584,1773.76 C176.975,1773.31 177.607,1772.49 178.482,1771.32 C179.357,1770.15 180.3,1769.06 181.31,1768.05 C182.321,1767.04 183.217,1766.06 183.998,1765.12 C184.779,1764.17 185.498,1763.38 186.154,1762.73 C183.81,1754.98 182.378,1749.03 181.857,1744.86 C181.337,1740.69 181.076,1735.58 181.076,1729.52 C181.076,1723.47 182.378,1717.96 184.982,1713.01 C187.514,1707.88 191.06,1703.68 195.623,1700.42 C195.883,1700.22 196.225,1700.12 196.646,1700.12 C197.068,1700.12 197.378,1700.22 197.576,1700.42 C201.087,1704.65 204.128,1710.15 206.701,1716.92 C209.274,1723.69 210.56,1730.03 210.56,1735.92 C210.56,1741.82 209.066,1747.5 206.076,1752.97 C202.691,1758.76 198.326,1764.75 192.982,1770.94 C194.347,1775.23 196.17,1781.96 198.451,1791.14 L199.045,1791.14 C199.305,1791.08 199.529,1791.05 199.717,1791.05 C207.081,1791.05 213.089,1793.63 217.74,1798.81 C222.391,1803.99 224.717,1809.96 224.717,1816.73 C224.717,1825.13 221.238,1831.9 214.279,1837.05 C212.258,1838.55 209.878,1839.72 207.139,1840.56 C207.472,1844.79 207.639,1847.61 207.639,1849.01 C207.639,1850.41 207.571,1852.9 207.435,1856.48 C207.373,1862.6 205.29,1867.84 201.185,1872.2 C197.081,1876.57 192.394,1878.75 187.123,1878.75 C181.852,1878.75 177.36,1876.88 173.646,1873.13 C169.933,1869.39 168.076,1864.85 168.076,1859.51 C168.076,1856.71 169.154,1854.33 171.31,1852.37 C173.519,1850.43 176.006,1849.45 178.771,1849.45 C181.537,1849.45 183.8,1850.46 185.56,1852.48 C187.383,1854.37 188.295,1856.64 188.295,1859.31 C188.295,1861.98 187.383,1864.22 185.56,1866.05 C183.738,1867.87 181.555,1868.78 179.014,1868.78 C177.972,1868.78 176.967,1868.59 175.998,1868.2 C178.863,1872.43 182.54,1874.55 187.029,1874.55 C191.519,1874.55 195.36,1872.69 198.553,1868.98 C201.745,1865.28 203.342,1860.91 203.342,1855.89 L203.623,1848.86 M206.748,1836.56 C210.133,1835.32 212.821,1833.12 214.81,1829.97 C216.8,1826.81 217.795,1823.67 217.795,1820.55 C217.795,1815.92 216.199,1811.79 213.006,1808.14 C209.813,1804.49 205.774,1802.44 200.889,1801.98 C203.691,1815.72 205.644,1827.25 206.748,1836.56 M168.967,1814 C168.967,1820.45 171.537,1826.08 176.678,1830.9 C181.818,1835.72 187.842,1838.12 194.748,1838.12 C197.477,1838.12 200.144,1837.93 202.748,1837.53 C201.706,1827.63 199.654,1815.79 196.592,1801.98 C192.758,1802.38 189.782,1803.7 187.662,1805.94 C185.542,1808.19 184.482,1810.74 184.482,1813.61 C184.482,1818.56 187.123,1822.56 192.404,1825.62 C192.852,1825.88 193.076,1826.32 193.076,1826.94 C193.076,1827.56 192.865,1828.1 192.443,1828.55 C192.021,1829.01 191.649,1829.23 191.326,1829.23 C191.003,1829.23 190.581,1829.17 190.06,1829.05 C182.435,1824.88 178.623,1818.59 178.623,1810.19 C178.623,1806.22 180.024,1802.41 182.826,1798.76 C185.753,1795.12 189.56,1792.78 194.248,1791.73 C192.425,1784.44 190.93,1778.74 189.764,1774.64 C180.847,1784.67 175.31,1792.09 173.154,1796.91 C170.363,1803.16 168.967,1808.85 168.967,1814 M201.576,1714.69 C196.691,1717.09 192.834,1720.57 190.006,1725.13 C187.178,1729.69 185.764,1734.47 185.764,1739.48 C185.764,1744.49 186.935,1750.97 189.279,1758.92 C193.967,1753.25 197.514,1747.95 199.92,1743 C202.326,1738.05 203.529,1733.15 203.529,1728.3 C203.529,1723.45 202.878,1718.92 201.576,1714.69"/>
<path class="TimeSig" d="M274.482,366.732 C272.524,366.732 270.764,366.376 269.201,365.662 C267.639,364.949 266.467,364.134 265.686,363.217 C263.925,361.134 262.133,360.092 260.311,360.092 C258.488,360.092 257.008,360.597 255.873,361.607 C254.738,362.618 254.102,363.967 253.967,365.654 C253.842,366.373 253.42,366.732 252.701,366.732 C251.982,366.732 251.623,366.373 251.623,365.654 C251.623,361.165 253.644,357.165 257.686,353.654 C259.633,351.956 261.357,350.555 262.857,349.451 C264.357,348.347 266.18,346.884 268.326,345.061 C272.878,341.144 275.154,336.519 275.154,331.186 C275.154,327.863 274.602,324.998 273.498,322.592 C272.331,320.248 270.54,319.076 268.123,319.076 C266.633,319.076 265.415,319.402 264.467,320.053 C263.519,320.704 263.045,321.535 263.045,322.545 C263.045,323.555 263.631,324.743 264.803,326.107 C265.975,327.472 266.561,328.613 266.561,329.529 C266.561,331.477 265.894,333.118 264.561,334.451 C263.227,335.785 261.6,336.451 259.678,336.451 C257.756,336.451 256.113,335.769 254.748,334.404 C253.446,332.977 252.795,331.352 252.795,329.529 C252.795,325.811 254.292,322.748 257.287,320.342 C260.282,317.936 264.092,316.732 268.717,316.732 C273.342,316.732 277.508,318.066 281.217,320.732 C284.925,323.399 286.779,326.884 286.779,331.186 C286.779,337.113 284.795,341.347 280.826,343.889 C277.378,346.097 273.732,347.967 269.889,349.498 C266.045,351.029 263.373,352.285 261.873,353.264 C262.727,353.066 263.607,352.967 264.514,352.967 C267.441,352.967 270.566,353.943 273.889,355.897 C277.212,357.85 279.85,358.826 281.803,358.826 C283.756,358.826 284.993,358.191 285.514,356.92 C286.035,355.649 286.587,355.014 287.17,355.014 C287.951,355.014 288.342,355.404 288.342,356.186 C288.342,358.009 287.055,360.222 284.482,362.826 C281.91,365.43 278.576,366.732 274.482,366.732"/>
<path class="TimeSig" d="M273.021,368.084 C274.516,368.084 275.949,367.858 277.318,367.404 C278.688,366.951 279.665,366.725 280.248,366.725 C280.831,366.725 281.222,367.079 281.42,367.787 C281.42,367.86 281.352,368.058 281.217,368.381 L252.811,401.397 L269.498,401.397 L269.498,388.303 C269.498,386.678 270.446,385.506 272.342,384.787 C274.29,384.068 276.503,381.173 278.982,376.1 C279.17,375.704 279.462,375.506 279.857,375.506 C280.639,375.506 281.092,375.964 281.217,376.881 L281.217,401.397 L288.357,401.397 C289.264,401.397 289.751,401.884 289.818,402.858 C289.886,403.831 289.399,404.318 288.357,404.318 L281.217,404.318 L281.217,405.1 C281.217,407.704 281.868,409.917 283.17,411.74 C284.67,413.563 286.43,414.475 288.451,414.475 C289.232,414.475 289.623,414.865 289.623,415.647 C289.623,416.428 289.087,416.818 288.014,416.818 C286.941,416.818 284.938,416.608 282.006,416.186 C279.074,415.764 276.811,415.553 275.217,415.553 C273.623,415.553 271.41,415.764 268.576,416.186 C265.743,416.608 263.613,416.818 262.186,416.818 C261.404,416.818 261.014,416.428 261.014,415.647 C261.014,414.865 261.404,414.475 262.186,414.475 C264.196,414.475 265.951,413.563 267.451,411.74 C268.816,409.855 269.498,407.641 269.498,405.1 L269.498,404.318 L252.811,404.318 C251.956,404.318 251.219,404.092 250.6,403.639 C249.98,403.186 249.67,402.764 249.67,402.373 C249.67,401.983 250.485,400.811 252.115,398.858 C253.745,396.904 256.074,393.144 259.1,387.576 C262.126,382.009 263.639,375.61 263.639,368.381 C263.639,367.339 264.097,366.818 265.014,366.818 C265.212,366.818 265.521,366.884 265.943,367.014 C266.365,367.144 267.277,367.355 268.678,367.647 C270.079,367.938 271.527,368.084 273.021,368.084"/>
<path class="Beam" fill-rule="evenodd" d="M643.573,1735.47 L761.355,1741.72 L761.355,1754.24 L643.573,1747.99 L643.573,1735.47 "/>
<path class="Beam" fill-rule="evenodd" d="M643.573,1754.22 L761.355,1760.47 L761.355,1772.99 L643.573,1766.74 L643.573,1754.22 "/>
<path class="Beam" fill-rule="evenodd" d="M2001.77,1760.47 L2119.56,1766.72 L2119.56,1779.24 L2001.77,1772.99 L2001.77,1760.47 "/>
<path class="Beam" fill-rule="evenodd" d="M2001.77,1779.22 L2119.56,1785.47 L2119.56,1797.99 L2001.77,1791.74 L2001.77,1779.22 "/>
<path class="Beam" fill-rule="evenodd" d="M2057.81,897.98 L2254.48,904.23 L2254.48,916.736 L2057.81,910.486 L2057.81,897.98 "/>
<path class="Beam" fill-rule="evenodd" d="M434.158,2235.45 L498.029,2229.2 L498.029,2241.76 L434.158,2248.01 L434.158,2235.45 "/>
<path class="Beam" fill-rule="evenodd" d="M2474.3,779.23 L2670.97,785.48 L2670.97,797.986 L2474.3,791.736 L2474.3,779.23 "/>
<path class="Beam" fill-rule="evenodd" d="M1245.23,1766.73 L1534.81,1760.48 L1534.81,1772.98 L1245.23,1779.23 L1245.23,1766.73 "/>
<path class="Beam" fill-rule="evenodd" d="M1417.03,1781.77 L1534.81,1779.23 L1534.81,1791.73 L1417.03,1794.28 L1417.03,1781.77 "/>
<path class="Beam" fill-rule="evenodd" d="M901.637,1766.73 L1076.69,1766.73 L1076.69,1779.23 L901.637,1779.23 L901.637,1766.73 "/>
<path class="Beam" fill-rule="evenodd" d="M664.282,291.731 L916.625,297.981 L916.625,310.484 L664.282,304.234 L664.282,291.731 "/>
<path class="Beam" fill-rule="evenodd" d="M916.625,316.731 L883.625,315.913 L883.625,328.417 L916.625,329.234 L916.625,316.731 "/>
<path class="Beam" fill-rule="evenodd" d="M316.897,2210.46 L396.994,2216.71 L396.994,2229.25 L316.897,2223 L316.897,2210.46 "/>
<path class="Beam" fill-rule="evenodd" d="M396.994,2235.46 L363.994,2232.89 L363.994,2245.43 L396.994,2248 L396.994,2235.46 "/>
<path class="Beam" fill-rule="evenodd" d="M316.897,1260.48 L512.405,1266.73 L512.405,1279.24 L316.897,1272.99 L316.897,1260.48 "/>
<path class="Beam" fill-rule="evenodd" d="M512.405,1285.48 L479.405,1284.42 L479.405,1296.93 L512.405,1297.99 L512.405,1285.48 "/>
<path class="Beam" fill-rule="evenodd" d="M610.263,1247.94 L765.175,1229.19 L765.175,1241.78 L610.263,1260.53 L610.263,1247.94 "/>
<path class="Beam" fill-rule="evenodd" d="M912.924,1372.98 L1067.84,1379.23 L1067.84,1391.74 L912.924,1385.49 L912.924,1372.98 "/>
<path class="Beam" fill-rule="evenodd" d="M1245.91,1254.23 L1400.83,1260.48 L1400.83,1272.99 L1245.91,1266.74 L1245.91,1254.23 "/>
<path class="Beam" fill-rule="evenodd" d="M1578.24,1260.48 L1773.75,1266.73 L1773.75,1279.24 L1578.24,1272.99 L1578.24,1260.48 "/>
<path class="Beam" fill-rule="evenodd" d="M1773.75,1285.48 L1740.75,1284.42 L1740.75,1296.93 L1773.75,1297.99 L1773.75,1285.48 "/>
<path class="Beam" fill-rule="evenodd" d="M1871.6,1285.48 L2026.52,1285.48 L2026.52,1297.98 L1871.6,1297.98 L1871.6,1285.48 "/>
<path class="Beam" fill-rule="evenodd" d="M2203.93,1285.48 L2358.84,1285.48 L2358.84,1297.98 L2203.93,1297.98 L2203.93,1285.48 "/>
<path class="Beam" fill-rule="evenodd" d="M2507.25,1266.73 L2763.27,1260.48 L2763.27,1272.98 L2507.25,1279.23 L2507.25,1266.73 "/>
<path class="Beam" fill-rule="evenodd" d="M2658.92,1281.78 L2763.27,1279.23 L2763.27,1291.73 L2658.92,1294.28 L2658.92,1281.78 "/>
<path class="NoteDot" d="M677.946,358.24 C676.836,357.131 676.282,355.795 676.282,354.232 C676.282,352.67 676.836,351.334 677.946,350.225 C679.055,349.115 680.391,348.561 681.954,348.561 C683.516,348.561 684.849,349.115 685.954,350.225 C687.058,351.334 687.61,352.67 687.61,354.232 C687.61,355.795 687.058,357.131 685.954,358.24 C684.849,359.35 683.516,359.904 681.954,359.904 C680.391,359.904 679.055,359.35 677.946,358.24"/>
<path class="NoteDot" d="M1688.76,1833.24 C1687.65,1832.13 1687.1,1830.8 1687.1,1829.23 C1687.1,1827.67 1687.65,1826.33 1688.76,1825.23 C1689.87,1824.12 1691.21,1823.56 1692.77,1823.56 C1694.33,1823.56 1695.66,1824.12 1696.77,1825.23 C1697.87,1826.33 1698.43,1827.67 1698.43,1829.23 C1698.43,1830.8 1697.87,1832.13 1696.77,1833.24 C1695.66,1834.35 1694.33,1834.91 1692.77,1834.91 C1691.21,1834.91 1689.87,1834.35 1688.76,1833.24"/>
<path class="NoteDot" d="M1087.04,383.24 C1085.93,382.131 1085.37,380.795 1085.37,379.233 C1085.37,377.67 1085.93,376.334 1087.04,375.225 C1088.15,374.115 1089.48,373.561 1091.04,373.561 C1092.61,373.561 1093.94,374.115 1095.04,375.225 C1096.15,376.334 1096.7,377.67 1096.7,379.233 C1096.7,380.795 1096.15,382.131 1095.04,383.24 C1093.94,384.35 1092.61,384.904 1091.04,384.904 C1089.48,384.904 1088.15,384.35 1087.04,383.24"/>
<path class="NoteDot" d="M2304.66,433.24 C2303.55,432.131 2303,430.795 2303,429.233 C2303,427.67 2303.55,426.334 2304.66,425.225 C2305.77,424.115 2307.11,423.561 2308.67,423.561 C2310.23,423.561 2311.56,424.115 2312.67,425.225 C2313.77,426.334 2314.32,427.67 2314.32,429.233 C2314.32,430.795 2313.77,432.131 2312.67,433.24 C2311.56,434.35 2310.23,434.904 2308.67,434.904 C2307.11,434.904 2305.77,434.35 2304.66,433.24"/>
<path class="NoteDot" d="M330.561,858.241 C329.451,857.131 328.897,855.795 328.897,854.233 C328.897,852.67 329.451,851.334 330.561,850.225 C331.67,849.116 333.006,848.561 334.568,848.561 C336.131,848.561 337.464,849.116 338.568,850.225 C339.673,851.334 340.225,852.67 340.225,854.233 C340.225,855.795 339.673,857.131 338.568,858.241 C337.464,859.35 336.131,859.905 334.568,859.905 C333.006,859.905 331.67,859.35 330.561,858.241"/>
<path class="NoteDot" d="M920.754,833.241 C919.644,832.131 919.089,830.795 919.089,829.233 C919.089,827.67 919.644,826.334 920.754,825.225 C921.863,824.116 923.199,823.561 924.761,823.561 C926.324,823.561 927.657,824.116 928.761,825.225 C929.866,826.334 930.418,827.67 930.418,829.233 C930.418,830.795 929.866,832.131 928.761,833.241 C927.657,834.35 926.324,834.905 924.761,834.905 C923.199,834.905 921.863,834.35 920.754,833.241"/>
<path class="NoteDot" d="M1510.95,833.241 C1509.84,832.131 1509.28,830.795 1509.28,829.233 C1509.28,827.67 1509.84,826.334 1510.95,825.225 C1512.06,824.116 1513.39,823.561 1514.95,823.561 C1516.52,823.561 1517.85,824.116 1518.95,825.225 C1520.06,826.334 1520.61,827.67 1520.61,829.233 C1520.61,830.795 1520.06,832.131 1518.95,833.241 C1517.85,834.35 1516.52,834.905 1514.95,834.905 C1513.39,834.905 1512.06,834.35 1510.95,833.241"/>
<path class="NoteDot" d="M330.561,1333.24 C329.451,1332.13 328.897,1330.8 328.897,1329.23 C328.897,1327.67 329.451,1326.33 330.561,1325.23 C331.67,1324.12 333.006,1323.56 334.568,1323.56 C336.131,1323.56 337.464,1324.12 338.568,1325.23 C339.673,1326.33 340.225,1327.67 340.225,1329.23 C340.225,1330.8 339.673,1332.13 338.568,1333.24 C337.464,1334.35 336.131,1334.9 334.568,1334.9 C333.006,1334.9 331.67,1334.35 330.561,1333.24"/>
<path class="NoteDot" d="M330.561,2283.24 C329.451,2282.13 328.897,2280.8 328.897,2279.23 C328.897,2277.67 329.451,2276.34 330.561,2275.23 C331.67,2274.12 333.006,2273.56 334.568,2273.56 C336.131,2273.56 337.464,2274.12 338.568,2275.23 C339.673,2276.34 340.225,2277.67 340.225,2279.23 C340.225,2280.8 339.673,2282.13 338.568,2283.24 C337.464,2284.35 336.131,2284.91 334.568,2284.91 C333.006,2284.91 331.67,2284.35 330.561,2283.24"/>
<path class="NoteDot" d="M1591.9,1333.24 C1590.79,1332.13 1590.24,1330.8 1590.24,1329.23 C1590.24,1327.67 1590.79,1326.33 1591.9,1325.23 C1593.01,1324.12 1594.35,1323.56 1595.91,1323.56 C1597.47,1323.56 1598.81,1324.12 1599.91,1325.23 C1601.01,1326.33 1601.57,1327.67 1601.57,1329.23 C1601.57,1330.8 1601.01,1332.13 1599.91,1333.24 C1598.81,1334.35 1597.47,1334.9 1595.91,1334.9 C1594.35,1334.9 1593.01,1334.35 1591.9,1333.24"/>
<path class="NoteDot" d="M330.561,1808.24 C329.451,1807.13 328.897,1805.8 328.897,1804.23 C328.897,1802.67 329.451,1801.33 330.561,1800.23 C331.67,1799.12 333.006,1798.56 334.568,1798.56 C336.131,1798.56 337.464,1799.12 338.568,1800.23 C339.673,1801.33 340.225,1802.67 340.225,1804.23 C340.225,1805.8 339.673,1807.13 338.568,1808.24 C337.464,1809.35 336.131,1809.91 334.568,1809.91 C333.006,1809.91 331.67,1809.35 330.561,1808.24"/>
</svg>
