<?xml version="1.0" encoding="UTF-8" standalone="no"?>
<svg width="2977.2px" height="4208.4px" viewBox="0 0 2977.2 4208.4"
 xmlns="http://www.w3.org/2000/svg" xmlns:xlink="http://www.w3.org/1999/xlink" version="1.2" baseProfile="tiny">
<title>Gb_Bebop.mscx</title>
<desc>Generated by MuseScore Studio 4.3.1</desc>
<path class="" fill="#ffffff" fill-rule="evenodd" d="M0,0 L2977.2,0 L2977.2,4208.4 L0,4208.4 L0,0 "/>
<polyline class="StaffLines" fill="none" stroke="#000000" stroke-width="2.00" stroke-linejoin="bevel" points="141.732,566.733 2835.47,566.733"/>
<polyline class="StaffLines" fill="none" stroke="#000000" stroke-width="2.00" stroke-linejoin="bevel" points="141.732,591.733 2835.47,591.733"/>
<polyline class="StaffLines" fill="none" stroke="#000000" stroke-width="2.00" stroke-linejoin="bevel" points="141.732,616.733 2835.47,616.733"/>
<polyline class="StaffLines" fill="none" stroke="#000000" stroke-width="2.00" stroke-linejoin="bevel" points="141.732,641.733 2835.47,641.733"/>
<polyline class="StaffLines" fill="none" stroke="#000000" stroke-width="2.00" stroke-linejoin="bevel" points="141.732,666.733 2835.47,666.733"/>
<polyline class="BarLine" fill="none" stroke="#000000" stroke-width="4.00" stroke-linejoin="bevel" points="2802.72,565.733 2802.72,667.733"/>
<polyline class="BarLine" fill="none" stroke="#000000" stroke-width="12.50" stroke-linejoin="bevel" points="2829.22,565.733 2829.22,667.733"/>
<polyline class="BarLine" fill="none" stroke="#000000" stroke-width="4.00" stroke-linejoin="bevel" points="881.837,565.733 881.837,667.733"/>
<polyline class="BarLine" fill="none" stroke="#000000" stroke-width="4.00" stroke-linejoin="bevel" points="1163.82,565.733 1163.82,667.733"/>
<polyline class="BarLine" fill="none" stroke="#000000" stroke-width="4.00" stroke-linejoin="bevel" points="1445.8,565.733 1445.8,667.733"/>
<polyline class="BarLine" fill="none" stroke="#000000" stroke-width="4.00" stroke-linejoin="bevel" points="599.855,565.733 599.855,667.733"/>
<polyline class="BarLine" fill="none" stroke="#000000" stroke-width="4.00" stroke-linejoin="bevel" points="1727.78,565.733 1727.78,667.733"/>
<polyline class="BarLine" fill="none" stroke="#000000" stroke-width="4.00" stroke-linejoin="bevel" points="2009.76,565.733 2009.76,667.733"/>
<polyline class="BarLine" fill="none" stroke="#000000" stroke-width="4.00" stroke-linejoin="bevel" points="2291.75,565.733 2291.75,667.733"/>
<polyline class="BarLine" fill="none" stroke="#000000" stroke-width="4.00" stroke-linejoin="bevel" points="2573.73,565.733 2573.73,667.733"/>
<path class="Accidental" d="M737.918,637.045 C736.741,637.368 736.153,636.915 736.153,635.686 L736.153,580.983 C736.153,579.618 736.674,578.936 737.715,578.936 C738.757,578.936 739.278,579.618 739.278,580.983 L739.278,600.811 L750.809,596.42 C751.976,596.097 752.559,596.55 752.559,597.78 L752.559,652.483 C752.559,653.847 752.038,654.53 750.996,654.53 C749.955,654.53 749.434,653.847 749.434,652.483 L749.434,632.655 L737.918,637.045 M739.278,625.811 L749.434,621.905 L749.434,607.655 L739.278,611.561 L739.278,625.811 "/>
<path class="Accidental" d="M1456.69,571.811 L1455.43,509.701 C1455.43,508.722 1456.19,508.233 1457.72,508.233 C1459.25,508.233 1460.02,508.722 1460.02,509.701 L1459.24,543.592 C1461,541.832 1462.51,540.61 1463.78,539.928 C1465.04,539.246 1466.77,538.904 1468.95,538.904 C1471.13,538.904 1473.15,539.912 1475,541.928 C1476.86,543.944 1477.79,546.451 1477.79,549.451 C1477.79,553.941 1473.07,560.16 1463.63,568.108 C1460.12,571.295 1458.3,572.889 1458.16,572.889 L1457.58,572.889 C1456.99,572.889 1456.69,572.529 1456.69,571.811 M1459.14,546.717 L1458.85,568.889 C1460.87,566.993 1462.92,563.847 1465,559.451 C1467.09,555.056 1468.13,551.295 1468.13,548.17 C1468.13,546.608 1467.87,545.175 1467.35,543.873 C1466.83,542.571 1466.01,541.92 1464.9,541.92 C1463.79,541.92 1462.8,542.311 1461.92,543.092 C1461.04,543.873 1460.11,545.082 1459.14,546.717"/>
<path class="Accidental" d="M1738.67,596.811 L1737.41,534.701 C1737.41,533.722 1738.17,533.233 1739.7,533.233 C1741.24,533.233 1742,533.722 1742,534.701 L1741.22,568.592 C1742.98,566.832 1744.49,565.61 1745.76,564.928 C1747.03,564.246 1748.75,563.905 1750.93,563.905 C1753.11,563.905 1755.13,564.912 1756.99,566.928 C1758.84,568.944 1759.77,571.451 1759.77,574.451 C1759.77,578.941 1755.05,585.16 1745.61,593.108 C1742.1,596.295 1740.28,597.889 1740.14,597.889 L1739.56,597.889 C1738.97,597.889 1738.67,597.53 1738.67,596.811 M1741.13,571.717 L1740.83,593.889 C1742.85,591.993 1744.9,588.847 1746.99,584.451 C1749.07,580.056 1750.11,576.295 1750.11,573.17 C1750.11,571.608 1749.85,570.175 1749.33,568.873 C1748.81,567.571 1747.99,566.92 1746.88,566.92 C1745.78,566.92 1744.78,567.311 1743.9,568.092 C1743.02,568.873 1742.1,570.082 1741.13,571.717"/>
<path class="Accidental" d="M449.546,646.811 L448.28,584.701 C448.28,583.722 449.046,583.233 450.577,583.233 C452.108,583.233 452.874,583.722 452.874,584.701 L452.093,618.592 C453.853,616.832 455.366,615.61 456.632,614.928 C457.897,614.246 459.621,613.905 461.804,613.905 C463.986,613.905 466.004,614.912 467.858,616.928 C469.712,618.944 470.639,621.451 470.639,624.451 C470.639,628.941 465.921,635.16 456.483,643.108 C452.973,646.295 451.15,647.889 451.014,647.889 L450.436,647.889 C449.843,647.889 449.546,647.53 449.546,646.811 M451.999,621.717 L451.702,643.889 C453.723,641.993 455.775,638.847 457.858,634.451 C459.942,630.056 460.983,626.295 460.983,623.17 C460.983,621.608 460.723,620.175 460.202,618.873 C459.681,617.571 458.866,616.92 457.757,616.92 C456.647,616.92 455.652,617.311 454.772,618.092 C453.892,618.873 452.968,620.082 451.999,621.717"/>
<path class="Accidental" d="M328.764,659.311 L327.498,597.201 C327.498,596.222 328.264,595.733 329.795,595.733 C331.326,595.733 332.092,596.222 332.092,597.201 L331.311,631.092 C333.071,629.332 334.584,628.11 335.85,627.428 C337.115,626.746 338.839,626.405 341.022,626.405 C343.204,626.405 345.222,627.412 347.076,629.428 C348.93,631.444 349.857,633.951 349.857,636.951 C349.857,641.441 345.139,647.66 335.701,655.608 C332.191,658.795 330.368,660.389 330.232,660.389 L329.654,660.389 C329.061,660.389 328.764,660.03 328.764,659.311 M331.217,634.217 L330.92,656.389 C332.941,654.493 334.993,651.347 337.076,646.951 C339.16,642.556 340.201,638.795 340.201,635.67 C340.201,634.108 339.941,632.675 339.42,631.373 C338.899,630.071 338.084,629.42 336.975,629.42 C335.865,629.42 334.87,629.811 333.99,630.592 C333.11,631.373 332.186,632.582 331.217,634.217"/>
<path class="Accidental" d="M1174.71,596.811 L1173.44,534.701 C1173.44,533.722 1174.21,533.233 1175.74,533.233 C1177.27,533.233 1178.04,533.722 1178.04,534.701 L1177.26,568.592 C1179.02,566.832 1180.53,565.61 1181.8,564.928 C1183.06,564.246 1184.79,563.905 1186.97,563.905 C1189.15,563.905 1191.17,564.912 1193.02,566.928 C1194.88,568.944 1195.8,571.451 1195.8,574.451 C1195.8,578.941 1191.08,585.16 1181.65,593.108 C1178.14,596.295 1176.31,597.889 1176.18,597.889 L1175.6,597.889 C1175.01,597.889 1174.71,597.53 1174.71,596.811 M1177.16,571.717 L1176.87,593.889 C1178.89,591.993 1180.94,588.847 1183.02,584.451 C1185.11,580.056 1186.15,576.295 1186.15,573.17 C1186.15,571.608 1185.89,570.175 1185.37,568.873 C1184.85,567.571 1184.03,566.92 1182.92,566.92 C1181.81,566.92 1180.82,567.311 1179.94,568.092 C1179.06,568.873 1178.13,570.082 1177.16,571.717"/>
<path class="Accidental" d="M2020.66,609.311 L2019.39,547.201 C2019.39,546.222 2020.16,545.733 2021.69,545.733 C2023.22,545.733 2023.98,546.222 2023.98,547.201 L2023.2,581.092 C2024.96,579.332 2026.48,578.11 2027.74,577.428 C2029.01,576.746 2030.73,576.405 2032.91,576.405 C2035.1,576.405 2037.11,577.412 2038.97,579.428 C2040.82,581.444 2041.75,583.951 2041.75,586.951 C2041.75,591.441 2037.03,597.66 2027.59,605.608 C2024.08,608.795 2022.26,610.389 2022.12,610.389 L2021.55,610.389 C2020.95,610.389 2020.66,610.03 2020.66,609.311 M2023.11,584.217 L2022.81,606.389 C2024.83,604.493 2026.88,601.347 2028.97,596.951 C2031.05,592.556 2032.09,588.795 2032.09,585.67 C2032.09,584.108 2031.83,582.675 2031.31,581.373 C2030.79,580.071 2029.98,579.42 2028.87,579.42 C2027.76,579.42 2026.76,579.811 2025.88,580.592 C2025,581.373 2024.08,582.582 2023.11,584.217"/>
<path class="Accidental" d="M1019.9,612.045 C1018.72,612.368 1018.13,611.915 1018.13,610.686 L1018.13,555.983 C1018.13,554.618 1018.66,553.936 1019.7,553.936 C1020.74,553.936 1021.26,554.618 1021.26,555.983 L1021.26,575.811 L1032.79,571.42 C1033.96,571.097 1034.54,571.55 1034.54,572.78 L1034.54,627.483 C1034.54,628.847 1034.02,629.53 1032.98,629.53 C1031.94,629.53 1031.42,628.847 1031.42,627.483 L1031.42,607.655 L1019.9,612.045 M1021.26,600.811 L1031.42,596.905 L1031.42,582.655 L1021.26,586.561 L1021.26,600.811 "/>
<path class="Accidental" d="M2302.64,634.311 L2301.37,572.201 C2301.37,571.222 2302.14,570.733 2303.67,570.733 C2305.2,570.733 2305.97,571.222 2305.97,572.201 L2305.18,606.092 C2306.94,604.332 2308.46,603.11 2309.72,602.428 C2310.99,601.746 2312.71,601.405 2314.9,601.405 C2317.08,601.405 2319.1,602.412 2320.95,604.428 C2322.8,606.444 2323.73,608.951 2323.73,611.951 C2323.73,616.441 2319.01,622.66 2309.58,630.608 C2306.06,633.795 2304.24,635.389 2304.11,635.389 L2303.53,635.389 C2302.93,635.389 2302.64,635.03 2302.64,634.311 M2305.09,609.217 L2304.79,631.389 C2306.81,629.493 2308.87,626.347 2310.95,621.951 C2313.03,617.556 2314.08,613.795 2314.08,610.67 C2314.08,609.108 2313.81,607.675 2313.29,606.373 C2312.77,605.071 2311.96,604.42 2310.85,604.42 C2309.74,604.42 2308.74,604.811 2307.86,605.592 C2306.98,606.373 2306.06,607.582 2305.09,609.217"/>
<path class="Accidental" d="M892.728,609.311 L891.462,547.201 C891.462,546.222 892.228,545.733 893.759,545.733 C895.29,545.733 896.056,546.222 896.056,547.201 L895.275,581.092 C897.035,579.332 898.548,578.11 899.814,577.428 C901.079,576.746 902.803,576.405 904.985,576.405 C907.168,576.405 909.186,577.412 911.04,579.428 C912.894,581.444 913.821,583.951 913.821,586.951 C913.821,591.441 909.103,597.66 899.665,605.608 C896.155,608.795 894.332,610.389 894.196,610.389 L893.618,610.389 C893.025,610.389 892.728,610.03 892.728,609.311 M895.181,584.217 L894.884,606.389 C896.905,604.493 898.957,601.347 901.04,596.951 C903.124,592.556 904.165,588.795 904.165,585.67 C904.165,584.108 903.905,582.675 903.384,581.373 C902.863,580.071 902.048,579.42 900.939,579.42 C899.829,579.42 898.834,579.811 897.954,580.592 C897.074,581.373 896.15,582.582 895.181,584.217"/>
<path class="Accidental" d="M2423.42,646.811 L2422.15,584.701 C2422.15,583.722 2422.92,583.233 2424.45,583.233 C2425.98,583.233 2426.75,583.722 2426.75,584.701 L2425.97,618.592 C2427.73,616.832 2429.24,615.61 2430.51,614.928 C2431.77,614.246 2433.5,613.905 2435.68,613.905 C2437.86,613.905 2439.88,614.912 2441.73,616.928 C2443.59,618.944 2444.51,621.451 2444.51,624.451 C2444.51,628.941 2439.79,635.16 2430.36,643.108 C2426.85,646.295 2425.02,647.889 2424.89,647.889 L2424.31,647.889 C2423.72,647.889 2423.42,647.53 2423.42,646.811 M2425.87,621.717 L2425.58,643.889 C2427.6,641.993 2429.65,638.847 2431.73,634.451 C2433.82,630.056 2434.86,626.295 2434.86,623.17 C2434.86,621.608 2434.6,620.175 2434.08,618.873 C2433.55,617.571 2432.74,616.92 2431.63,616.92 C2430.52,616.92 2429.53,617.311 2428.65,618.092 C2427.77,618.873 2426.84,620.082 2425.87,621.717"/>
<path class="Accidental" d="M610.746,634.311 L609.48,572.201 C609.48,571.222 610.246,570.733 611.777,570.733 C613.308,570.733 614.074,571.222 614.074,572.201 L613.293,606.092 C615.053,604.332 616.566,603.11 617.832,602.428 C619.097,601.746 620.821,601.405 623.004,601.405 C625.186,601.405 627.204,602.412 629.058,604.428 C630.912,606.444 631.839,608.951 631.839,611.951 C631.839,616.441 627.121,622.66 617.683,630.608 C614.173,633.795 612.35,635.389 612.214,635.389 L611.636,635.389 C611.043,635.389 610.746,635.03 610.746,634.311 M613.199,609.217 L612.902,631.389 C614.923,629.493 616.975,626.347 619.058,621.951 C621.142,617.556 622.183,613.795 622.183,610.67 C622.183,609.108 621.923,607.675 621.402,606.373 C620.881,605.071 620.066,604.42 618.957,604.42 C617.847,604.42 616.852,604.811 615.972,605.592 C615.092,606.373 614.168,607.582 613.199,609.217"/>
<path class="Accidental" d="M2584.62,659.311 L2583.35,597.201 C2583.35,596.222 2584.12,595.733 2585.65,595.733 C2587.18,595.733 2587.95,596.222 2587.95,597.201 L2587.17,631.092 C2588.93,629.332 2590.44,628.11 2591.71,627.428 C2592.97,626.746 2594.7,626.405 2596.88,626.405 C2599.06,626.405 2601.08,627.412 2602.93,629.428 C2604.79,631.444 2605.71,633.951 2605.71,636.951 C2605.71,641.441 2600.99,647.66 2591.56,655.608 C2588.05,658.795 2586.22,660.389 2586.09,660.389 L2585.51,660.389 C2584.92,660.389 2584.62,660.03 2584.62,659.311 M2587.07,634.217 L2586.78,656.389 C2588.8,654.493 2590.85,651.347 2592.93,646.951 C2595.02,642.556 2596.06,638.795 2596.06,635.67 C2596.06,634.108 2595.8,632.675 2595.28,631.373 C2594.75,630.071 2593.94,629.42 2592.83,629.42 C2591.72,629.42 2590.73,629.811 2589.85,630.592 C2588.97,631.373 2588.04,632.582 2587.07,634.217"/>
<polyline class="Stem" fill="none" stroke="#000000" stroke-width="3.25" stroke-linejoin="bevel" points="2330.89,621.633 2330.89,691.733"/>
<polyline class="Stem" fill="none" stroke="#000000" stroke-width="3.25" stroke-linejoin="bevel" points="388.483,636.933 388.483,554.233"/>
<polyline class="Stem" fill="none" stroke="#000000" stroke-width="3.25" stroke-linejoin="bevel" points="2169.69,621.633 2169.69,691.733"/>
<polyline class="Stem" fill="none" stroke="#000000" stroke-width="3.25" stroke-linejoin="bevel" points="2048.91,596.633 2048.91,679.233"/>
<polyline class="Stem" fill="none" stroke="#000000" stroke-width="3.25" stroke-linejoin="bevel" points="2483.14,624.433 2483.14,547.983"/>
<polyline class="Stem" fill="none" stroke="#000000" stroke-width="3.25" stroke-linejoin="bevel" points="1887.71,596.633 1887.71,679.233"/>
<polyline class="Stem" fill="none" stroke="#000000" stroke-width="3.25" stroke-linejoin="bevel" points="509.265,624.433 509.265,547.983"/>
<polyline class="Stem" fill="none" stroke="#000000" stroke-width="3.25" stroke-linejoin="bevel" points="1766.92,584.133 1766.92,666.733"/>
<polyline class="Stem" fill="none" stroke="#000000" stroke-width="3.25" stroke-linejoin="bevel" points="1605.72,571.633 1605.72,654.233"/>
<polyline class="Stem" fill="none" stroke="#000000" stroke-width="3.25" stroke-linejoin="bevel" points="759.778,621.633 759.778,691.733"/>
<polyline class="Stem" fill="none" stroke="#000000" stroke-width="3.25" stroke-linejoin="bevel" points="920.978,596.633 920.978,679.233"/>
<polyline class="Stem" fill="none" stroke="#000000" stroke-width="3.25" stroke-linejoin="bevel" points="1484.94,559.133 1484.94,641.733"/>
<polyline class="Stem" fill="none" stroke="#000000" stroke-width="3.25" stroke-linejoin="bevel" points="1041.76,596.633 1041.76,679.233"/>
<polyline class="Stem" fill="none" stroke="#000000" stroke-width="3.25" stroke-linejoin="bevel" points="1323.74,571.633 1323.74,654.233"/>
<polyline class="Stem" fill="none" stroke="#000000" stroke-width="3.25" stroke-linejoin="bevel" points="1202.96,584.133 1202.96,666.733"/>
<polyline class="Stem" fill="none" stroke="#000000" stroke-width="3.25" stroke-linejoin="bevel" points="638.996,621.633 638.996,691.733"/>
<path class="Note" d="M1611.52,577.373 C1613.41,577.373 1617.36,575.42 1623.39,571.514 C1629.41,567.608 1632.96,564.988 1634.04,563.655 C1635.11,562.321 1635.65,561.134 1635.65,560.092 C1635.65,559.05 1635.22,558.123 1634.37,557.311 C1633.52,556.498 1632.55,556.092 1631.44,556.092 C1629.49,556.092 1625.51,558.061 1619.48,561.998 C1613.46,565.936 1609.92,568.556 1608.88,569.858 C1607.84,571.16 1607.32,572.332 1607.32,573.373 C1607.32,574.415 1607.73,575.342 1608.54,576.155 C1609.36,576.967 1610.35,577.373 1611.52,577.373 M1630.47,552.967 C1636.07,552.967 1638.86,555.373 1638.86,560.186 C1638.86,562.53 1638.18,565.248 1636.82,568.342 C1635.45,571.436 1633.63,573.795 1631.35,575.42 C1626.34,578.806 1620.06,580.498 1612.5,580.498 C1606.9,580.498 1604.1,578.092 1604.1,573.28 C1604.1,571.134 1604.77,568.464 1606.1,565.272 C1607.43,562.079 1609.27,559.67 1611.61,558.045 C1616.64,554.66 1622.92,552.967 1630.47,552.967"/>
<path class="Note" d="M2628.34,647.201 C2631.2,651.045 2634.88,652.967 2639.37,652.967 C2643.86,652.967 2646.1,649.941 2646.1,643.889 C2646.1,641.014 2645.29,638.472 2643.67,636.264 C2640.86,632.42 2637.09,630.498 2632.34,630.498 C2630.25,630.498 2628.66,631.36 2627.56,633.084 C2626.45,634.808 2625.9,637.04 2625.9,639.78 C2625.9,642.519 2626.71,644.993 2628.34,647.201 M2618.67,631.967 C2623.55,629.3 2629.43,627.967 2636.3,627.967 C2643.17,627.967 2648.96,629.334 2653.68,632.069 C2658.4,634.803 2660.76,638.058 2660.76,641.834 C2660.76,645.61 2658.32,648.832 2653.43,651.498 C2648.55,654.165 2642.7,655.498 2635.9,655.498 C2629.1,655.498 2623.29,654.131 2618.47,651.397 C2613.65,648.662 2611.24,645.376 2611.24,641.537 C2611.24,637.699 2613.72,634.509 2618.67,631.967"/>
<path class="Note" d="M2457.47,639.873 C2459.35,639.873 2463.31,637.92 2469.33,634.014 C2475.36,630.108 2478.91,627.488 2479.98,626.155 C2481.05,624.821 2481.59,623.634 2481.59,622.592 C2481.59,621.55 2481.17,620.623 2480.32,619.811 C2479.47,618.998 2478.49,618.592 2477.39,618.592 C2475.44,618.592 2471.45,620.561 2465.43,624.498 C2459.4,628.436 2455.87,631.056 2454.83,632.358 C2453.78,633.66 2453.26,634.832 2453.26,635.873 C2453.26,636.915 2453.67,637.842 2454.49,638.655 C2455.31,639.467 2456.3,639.873 2457.47,639.873 M2476.42,615.467 C2482.01,615.467 2484.81,617.873 2484.81,622.686 C2484.81,625.03 2484.13,627.748 2482.76,630.842 C2481.4,633.936 2479.58,636.295 2477.29,637.92 C2472.28,641.306 2466,642.998 2458.45,642.998 C2452.85,642.998 2450.04,640.592 2450.04,635.78 C2450.04,633.634 2450.71,630.964 2452.04,627.772 C2453.38,624.579 2455.22,622.17 2457.56,620.545 C2462.58,617.16 2468.87,615.467 2476.42,615.467"/>
<path class="Note" d="M926.775,602.373 C928.66,602.373 932.616,600.42 938.642,596.514 C944.668,592.608 948.217,589.988 949.29,588.655 C950.363,587.321 950.9,586.134 950.9,585.092 C950.9,584.05 950.475,583.123 949.626,582.311 C948.777,581.498 947.801,581.092 946.696,581.092 C944.749,581.092 940.762,583.061 934.736,586.998 C928.709,590.936 925.176,593.556 924.134,594.858 C923.092,596.16 922.571,597.332 922.571,598.373 C922.571,599.415 922.98,600.342 923.798,601.155 C924.616,601.967 925.608,602.373 926.775,602.373 M945.728,577.967 C951.321,577.967 954.118,580.373 954.118,585.186 C954.118,587.53 953.436,590.248 952.071,593.342 C950.707,596.436 948.884,598.795 946.603,600.42 C941.592,603.806 935.311,605.498 927.759,605.498 C922.155,605.498 919.353,603.092 919.353,598.28 C919.353,596.134 920.019,593.464 921.353,590.272 C922.686,587.079 924.525,584.67 926.868,583.045 C931.889,579.66 938.176,577.967 945.728,577.967"/>
<path class="Note" d="M2336.68,627.373 C2338.57,627.373 2342.53,625.42 2348.55,621.514 C2354.58,617.608 2358.13,614.988 2359.2,613.655 C2360.27,612.321 2360.81,611.134 2360.81,610.092 C2360.81,609.05 2360.38,608.123 2359.54,607.311 C2358.69,606.498 2357.71,606.092 2356.61,606.092 C2354.66,606.092 2350.67,608.061 2344.65,611.998 C2338.62,615.936 2335.09,618.556 2334.04,619.858 C2333,621.16 2332.48,622.332 2332.48,623.373 C2332.48,624.415 2332.89,625.342 2333.71,626.155 C2334.53,626.967 2335.52,627.373 2336.68,627.373 M2355.64,602.967 C2361.23,602.967 2364.03,605.373 2364.03,610.186 C2364.03,612.53 2363.35,615.248 2361.98,618.342 C2360.62,621.436 2358.79,623.795 2356.51,625.42 C2351.5,628.806 2345.22,630.498 2337.67,630.498 C2332.06,630.498 2329.26,628.092 2329.26,623.28 C2329.26,621.134 2329.93,618.464 2331.26,615.272 C2332.6,612.079 2334.43,609.67 2336.78,608.045 C2341.8,604.66 2348.09,602.967 2355.64,602.967"/>
<path class="Note" d="M1047.56,602.373 C1049.44,602.373 1053.4,600.42 1059.42,596.514 C1065.45,592.608 1069,589.988 1070.07,588.655 C1071.15,587.321 1071.68,586.134 1071.68,585.092 C1071.68,584.05 1071.26,583.123 1070.41,582.311 C1069.56,581.498 1068.58,581.092 1067.48,581.092 C1065.53,581.092 1061.54,583.061 1055.52,586.998 C1049.49,590.936 1045.96,593.556 1044.92,594.858 C1043.87,596.16 1043.35,597.332 1043.35,598.373 C1043.35,599.415 1043.76,600.342 1044.58,601.155 C1045.4,601.967 1046.39,602.373 1047.56,602.373 M1066.51,577.967 C1072.1,577.967 1074.9,580.373 1074.9,585.186 C1074.9,587.53 1074.22,590.248 1072.85,593.342 C1071.49,596.436 1069.67,598.795 1067.38,600.42 C1062.37,603.806 1056.09,605.498 1048.54,605.498 C1042.94,605.498 1040.13,603.092 1040.13,598.28 C1040.13,596.134 1040.8,593.464 1042.13,590.272 C1043.47,587.079 1045.31,584.67 1047.65,583.045 C1052.67,579.66 1058.96,577.967 1066.51,577.967"/>
<path class="Note" d="M644.793,627.373 C646.678,627.373 650.634,625.42 656.66,621.514 C662.686,617.608 666.235,614.988 667.308,613.655 C668.381,612.321 668.918,611.134 668.918,610.092 C668.918,609.05 668.493,608.123 667.644,607.311 C666.795,606.498 665.819,606.092 664.714,606.092 C662.767,606.092 658.78,608.061 652.754,611.998 C646.727,615.936 643.194,618.556 642.152,619.858 C641.11,621.16 640.589,622.332 640.589,623.373 C640.589,624.415 640.998,625.342 641.816,626.155 C642.634,626.967 643.626,627.373 644.793,627.373 M663.746,602.967 C669.339,602.967 672.136,605.373 672.136,610.186 C672.136,612.53 671.454,615.248 670.089,618.342 C668.725,621.436 666.902,623.795 664.621,625.42 C659.61,628.806 653.329,630.498 645.777,630.498 C640.173,630.498 637.371,628.092 637.371,623.28 C637.371,621.134 638.037,618.464 639.371,615.272 C640.704,612.079 642.543,609.67 644.886,608.045 C649.907,604.66 656.194,602.967 663.746,602.967"/>
<path class="Note" d="M2175.48,627.373 C2177.37,627.373 2181.33,625.42 2187.35,621.514 C2193.38,617.608 2196.93,614.988 2198,613.655 C2199.07,612.321 2199.61,611.134 2199.61,610.092 C2199.61,609.05 2199.18,608.123 2198.34,607.311 C2197.49,606.498 2196.51,606.092 2195.41,606.092 C2193.46,606.092 2189.47,608.061 2183.45,611.998 C2177.42,615.936 2173.89,618.556 2172.84,619.858 C2171.8,621.16 2171.28,622.332 2171.28,623.373 C2171.28,624.415 2171.69,625.342 2172.51,626.155 C2173.33,626.967 2174.32,627.373 2175.48,627.373 M2194.44,602.967 C2200.03,602.967 2202.83,605.373 2202.83,610.186 C2202.83,612.53 2202.15,615.248 2200.78,618.342 C2199.42,621.436 2197.59,623.795 2195.31,625.42 C2190.3,628.806 2184.02,630.498 2176.47,630.498 C2170.86,630.498 2168.06,628.092 2168.06,623.28 C2168.06,621.134 2168.73,618.464 2170.06,615.272 C2171.4,612.079 2173.23,609.67 2175.58,608.045 C2180.6,604.66 2186.89,602.967 2194.44,602.967"/>
<path class="Note" d="M2054.7,602.373 C2056.59,602.373 2060.54,600.42 2066.57,596.514 C2072.6,592.608 2076.15,589.988 2077.22,588.655 C2078.29,587.321 2078.83,586.134 2078.83,585.092 C2078.83,584.05 2078.4,583.123 2077.55,582.311 C2076.71,581.498 2075.73,581.092 2074.62,581.092 C2072.68,581.092 2068.69,583.061 2062.66,586.998 C2056.64,590.936 2053.1,593.556 2052.06,594.858 C2051.02,596.16 2050.5,597.332 2050.5,598.373 C2050.5,599.415 2050.91,600.342 2051.73,601.155 C2052.54,601.967 2053.54,602.373 2054.7,602.373 M2073.66,577.967 C2079.25,577.967 2082.05,580.373 2082.05,585.186 C2082.05,587.53 2081.36,590.248 2080,593.342 C2078.63,596.436 2076.81,598.795 2074.53,600.42 C2069.52,603.806 2063.24,605.498 2055.69,605.498 C2050.08,605.498 2047.28,603.092 2047.28,598.28 C2047.28,596.134 2047.95,593.464 2049.28,590.272 C2050.61,587.079 2052.45,584.67 2054.8,583.045 C2059.82,579.66 2066.1,577.967 2073.66,577.967"/>
<path class="Note" d="M1208.76,589.873 C1210.64,589.873 1214.6,587.92 1220.62,584.014 C1226.65,580.108 1230.2,577.488 1231.27,576.155 C1232.35,574.821 1232.88,573.634 1232.88,572.592 C1232.88,571.55 1232.46,570.623 1231.61,569.811 C1230.76,568.998 1229.78,568.592 1228.68,568.592 C1226.73,568.592 1222.74,570.561 1216.72,574.498 C1210.69,578.436 1207.16,581.056 1206.12,582.358 C1205.07,583.66 1204.55,584.832 1204.55,585.873 C1204.55,586.915 1204.96,587.842 1205.78,588.655 C1206.6,589.467 1207.59,589.873 1208.76,589.873 M1227.71,565.467 C1233.3,565.467 1236.1,567.873 1236.1,572.686 C1236.1,575.03 1235.42,577.748 1234.05,580.842 C1232.69,583.936 1230.87,586.295 1228.58,587.92 C1223.57,591.306 1217.29,592.998 1209.74,592.998 C1204.14,592.998 1201.33,590.592 1201.33,585.78 C1201.33,583.634 1202,580.964 1203.33,577.772 C1204.67,574.579 1206.51,572.17 1208.85,570.545 C1213.87,567.16 1220.16,565.467 1227.71,565.467"/>
<path class="Note" d="M362.811,652.373 C364.696,652.373 368.652,650.42 374.678,646.514 C380.704,642.608 384.253,639.988 385.326,638.655 C386.399,637.321 386.936,636.134 386.936,635.092 C386.936,634.05 386.511,633.123 385.662,632.311 C384.813,631.498 383.837,631.092 382.732,631.092 C380.785,631.092 376.798,633.061 370.772,636.998 C364.746,640.936 361.212,643.556 360.17,644.858 C359.128,646.16 358.607,647.332 358.607,648.373 C358.607,649.415 359.016,650.342 359.834,651.155 C360.652,651.967 361.644,652.373 362.811,652.373 M381.764,627.967 C387.357,627.967 390.154,630.373 390.154,635.186 C390.154,637.53 389.472,640.248 388.107,643.342 C386.743,646.436 384.92,648.795 382.639,650.42 C377.628,653.806 371.347,655.498 363.795,655.498 C358.191,655.498 355.389,653.092 355.389,648.28 C355.389,646.134 356.055,643.464 357.389,640.272 C358.722,637.079 360.561,634.67 362.904,633.045 C367.925,629.66 374.212,627.967 381.764,627.967"/>
<path class="Note" d="M1893.5,602.373 C1895.39,602.373 1899.34,600.42 1905.37,596.514 C1911.4,592.608 1914.95,589.988 1916.02,588.655 C1917.09,587.321 1917.63,586.134 1917.63,585.092 C1917.63,584.05 1917.2,583.123 1916.35,582.311 C1915.51,581.498 1914.53,581.092 1913.42,581.092 C1911.48,581.092 1907.49,583.061 1901.46,586.998 C1895.44,590.936 1891.9,593.556 1890.86,594.858 C1889.82,596.16 1889.3,597.332 1889.3,598.373 C1889.3,599.415 1889.71,600.342 1890.53,601.155 C1891.34,601.967 1892.34,602.373 1893.5,602.373 M1912.46,577.967 C1918.05,577.967 1920.85,580.373 1920.85,585.186 C1920.85,587.53 1920.16,590.248 1918.8,593.342 C1917.43,596.436 1915.61,598.795 1913.33,600.42 C1908.32,603.806 1902.04,605.498 1894.49,605.498 C1888.88,605.498 1886.08,603.092 1886.08,598.28 C1886.08,596.134 1886.75,593.464 1888.08,590.272 C1889.41,587.079 1891.25,584.67 1893.6,583.045 C1898.62,579.66 1904.9,577.967 1912.46,577.967"/>
<path class="Note" d="M1329.54,577.373 C1331.42,577.373 1335.38,575.42 1341.41,571.514 C1347.43,567.608 1350.98,564.988 1352.05,563.655 C1353.13,562.321 1353.66,561.134 1353.66,560.092 C1353.66,559.05 1353.24,558.123 1352.39,557.311 C1351.54,556.498 1350.56,556.092 1349.46,556.092 C1347.51,556.092 1343.53,558.061 1337.5,561.998 C1331.47,565.936 1327.94,568.556 1326.9,569.858 C1325.86,571.16 1325.34,572.332 1325.34,573.373 C1325.34,574.415 1325.74,575.342 1326.56,576.155 C1327.38,576.967 1328.37,577.373 1329.54,577.373 M1348.49,552.967 C1354.09,552.967 1356.88,555.373 1356.88,560.186 C1356.88,562.53 1356.2,565.248 1354.84,568.342 C1353.47,571.436 1351.65,573.795 1349.37,575.42 C1344.36,578.806 1338.08,580.498 1330.52,580.498 C1324.92,580.498 1322.12,578.092 1322.12,573.28 C1322.12,571.134 1322.78,568.464 1324.12,565.272 C1325.45,562.079 1327.29,559.67 1329.63,558.045 C1334.65,554.66 1340.94,552.967 1348.49,552.967"/>
<path class="Note" d="M1772.72,589.873 C1774.61,589.873 1778.56,587.92 1784.59,584.014 C1790.61,580.108 1794.16,577.488 1795.24,576.155 C1796.31,574.821 1796.85,573.634 1796.85,572.592 C1796.85,571.55 1796.42,570.623 1795.57,569.811 C1794.72,568.998 1793.75,568.592 1792.64,568.592 C1790.69,568.592 1786.71,570.561 1780.68,574.498 C1774.66,578.436 1771.12,581.056 1770.08,582.358 C1769.04,583.66 1768.52,584.832 1768.52,585.873 C1768.52,586.915 1768.93,587.842 1769.74,588.655 C1770.56,589.467 1771.55,589.873 1772.72,589.873 M1791.67,565.467 C1797.27,565.467 1800.06,567.873 1800.06,572.686 C1800.06,575.03 1799.38,577.748 1798.02,580.842 C1796.65,583.936 1794.83,586.295 1792.55,587.92 C1787.54,591.306 1781.26,592.998 1773.7,592.998 C1768.1,592.998 1765.3,590.592 1765.3,585.78 C1765.3,583.634 1765.97,580.964 1767.3,577.772 C1768.63,574.579 1770.47,572.17 1772.81,570.545 C1777.84,567.16 1784.12,565.467 1791.67,565.467"/>
<path class="Note" d="M765.575,627.373 C767.46,627.373 771.416,625.42 777.442,621.514 C783.468,617.608 787.017,614.988 788.09,613.655 C789.163,612.321 789.7,611.134 789.7,610.092 C789.7,609.05 789.275,608.123 788.426,607.311 C787.577,606.498 786.601,606.092 785.496,606.092 C783.549,606.092 779.562,608.061 773.536,611.998 C767.509,615.936 763.976,618.556 762.934,619.858 C761.892,621.16 761.371,622.332 761.371,623.373 C761.371,624.415 761.78,625.342 762.598,626.155 C763.416,626.967 764.408,627.373 765.575,627.373 M784.528,602.967 C790.121,602.967 792.918,605.373 792.918,610.186 C792.918,612.53 792.236,615.248 790.871,618.342 C789.507,621.436 787.684,623.795 785.403,625.42 C780.392,628.806 774.111,630.498 766.559,630.498 C760.955,630.498 758.153,628.092 758.153,623.28 C758.153,621.134 758.819,618.464 760.153,615.272 C761.486,612.079 763.325,609.67 765.668,608.045 C770.689,604.66 776.976,602.967 784.528,602.967"/>
<path class="Note" d="M1490.74,564.873 C1492.62,564.873 1496.58,562.92 1502.61,559.014 C1508.63,555.108 1512.18,552.488 1513.25,551.154 C1514.33,549.821 1514.86,548.634 1514.86,547.592 C1514.86,546.55 1514.44,545.623 1513.59,544.811 C1512.74,543.998 1511.76,543.592 1510.66,543.592 C1508.71,543.592 1504.73,545.561 1498.7,549.498 C1492.67,553.436 1489.14,556.056 1488.1,557.358 C1487.06,558.66 1486.54,559.832 1486.54,560.873 C1486.54,561.915 1486.94,562.842 1487.76,563.654 C1488.58,564.467 1489.57,564.873 1490.74,564.873 M1509.69,540.467 C1515.29,540.467 1518.08,542.873 1518.08,547.686 C1518.08,550.029 1517.4,552.748 1516.04,555.842 C1514.67,558.936 1512.85,561.295 1510.57,562.92 C1505.56,566.306 1499.27,567.998 1491.72,567.998 C1486.12,567.998 1483.32,565.592 1483.32,560.779 C1483.32,558.634 1483.98,555.964 1485.32,552.772 C1486.65,549.579 1488.49,547.17 1490.83,545.545 C1495.85,542.16 1502.14,540.467 1509.69,540.467"/>
<path class="Note" d="M483.593,639.873 C485.478,639.873 489.434,637.92 495.46,634.014 C501.486,630.108 505.035,627.488 506.108,626.155 C507.181,624.821 507.718,623.634 507.718,622.592 C507.718,621.55 507.293,620.623 506.444,619.811 C505.595,618.998 504.619,618.592 503.514,618.592 C501.567,618.592 497.58,620.561 491.554,624.498 C485.528,628.436 481.994,631.056 480.952,632.358 C479.91,633.66 479.389,634.832 479.389,635.873 C479.389,636.915 479.798,637.842 480.616,638.655 C481.434,639.467 482.426,639.873 483.593,639.873 M502.546,615.467 C508.139,615.467 510.936,617.873 510.936,622.686 C510.936,625.03 510.254,627.748 508.889,630.842 C507.525,633.936 505.702,636.295 503.421,637.92 C498.41,641.306 492.129,642.998 484.577,642.998 C478.973,642.998 476.171,640.592 476.171,635.78 C476.171,633.634 476.837,630.964 478.171,627.772 C479.504,624.579 481.343,622.17 483.686,620.545 C488.707,617.16 494.994,615.467 502.546,615.467"/>
<path class="Clef" d="M203.623,673.858 L203.623,671.717 C203.56,670.613 203.399,668.889 203.139,666.545 C199.889,667.066 196.993,667.326 194.451,667.326 C185.337,667.326 177.605,663.727 171.256,656.53 C164.907,649.332 161.732,640.754 161.732,630.795 C161.732,628.129 162.253,624.923 163.295,621.178 C164.337,617.433 165.297,614.925 166.178,613.655 C167.058,612.384 168.378,610.155 170.139,606.967 C170.659,605.988 172.352,603.837 175.217,600.514 C175.738,599.806 176.193,599.222 176.584,598.764 C176.975,598.306 177.607,597.49 178.482,596.319 C179.357,595.147 180.3,594.056 181.31,593.045 C182.321,592.035 183.217,591.058 183.998,590.115 C184.779,589.173 185.498,588.379 186.154,587.733 C183.81,579.983 182.378,574.024 181.857,569.858 C181.337,565.691 181.076,560.579 181.076,554.522 C181.076,548.464 182.378,542.962 184.982,538.014 C187.514,532.879 191.06,528.681 195.623,525.42 C195.883,525.222 196.225,525.123 196.646,525.123 C197.068,525.123 197.378,525.222 197.576,525.42 C201.087,529.649 204.128,535.149 206.701,541.92 C209.274,548.691 210.56,555.024 210.56,560.92 C210.56,566.816 209.066,572.498 206.076,577.967 C202.691,583.759 198.326,589.748 192.982,595.936 C194.347,600.227 196.17,606.962 198.451,616.139 L199.045,616.139 C199.305,616.076 199.529,616.045 199.717,616.045 C207.081,616.045 213.089,618.634 217.74,623.811 C222.391,628.988 224.717,634.962 224.717,641.733 C224.717,650.129 221.238,656.899 214.279,662.045 C212.258,663.545 209.878,664.717 207.139,665.561 C207.472,669.79 207.639,672.605 207.639,674.006 C207.639,675.407 207.571,677.899 207.435,681.483 C207.373,687.597 205.29,692.837 201.185,697.201 C197.081,701.566 192.394,703.748 187.123,703.748 C181.852,703.748 177.36,701.876 173.646,698.131 C169.933,694.386 168.076,689.847 168.076,684.514 C168.076,681.712 169.154,679.332 171.31,677.373 C173.519,675.425 176.006,674.451 178.771,674.451 C181.537,674.451 183.8,675.462 185.56,677.483 C187.383,679.368 188.295,681.644 188.295,684.311 C188.295,686.977 187.383,689.222 185.56,691.045 C183.738,692.868 181.555,693.78 179.014,693.78 C177.972,693.78 176.967,693.587 175.998,693.201 C178.863,697.431 182.54,699.545 187.029,699.545 C191.519,699.545 195.36,697.691 198.553,693.983 C201.745,690.274 203.342,685.91 203.342,680.889 L203.623,673.858 M206.748,661.561 C210.133,660.321 212.821,658.123 214.81,654.967 C216.8,651.811 217.795,648.67 217.795,645.545 C217.795,640.92 216.199,636.785 213.006,633.139 C209.813,629.493 205.774,627.441 200.889,626.983 C203.691,640.722 205.644,652.248 206.748,661.561 M168.967,638.998 C168.967,645.446 171.537,651.079 176.678,655.897 C181.818,660.714 187.842,663.123 194.748,663.123 C197.477,663.123 200.144,662.925 202.748,662.53 C201.706,652.634 199.654,640.785 196.592,626.983 C192.758,627.379 189.782,628.699 187.662,630.944 C185.542,633.188 184.482,635.743 184.482,638.608 C184.482,643.556 187.123,647.561 192.404,650.623 C192.852,650.884 193.076,651.324 193.076,651.944 C193.076,652.563 192.865,653.1 192.443,653.553 C192.021,654.006 191.649,654.233 191.326,654.233 C191.003,654.233 190.581,654.17 190.06,654.045 C182.435,649.879 178.623,643.592 178.623,635.186 C178.623,631.217 180.024,627.41 182.826,623.764 C185.753,620.118 189.56,617.774 194.248,616.733 C192.425,609.441 190.93,603.743 189.764,599.639 C180.847,609.67 175.31,617.092 173.154,621.905 C170.363,628.155 168.967,633.852 168.967,638.998 M201.576,539.686 C196.691,542.092 192.834,545.574 190.006,550.131 C187.178,554.688 185.764,559.472 185.764,564.483 C185.764,569.493 186.935,575.972 189.279,583.92 C193.967,578.254 197.514,572.946 199.92,567.998 C202.326,563.05 203.529,558.152 203.529,553.303 C203.529,548.454 202.878,543.915 201.576,539.686"/>
<path class="TimeSig" d="M273.021,567.912 C274.516,567.912 275.949,567.686 277.318,567.233 C278.688,566.78 279.665,566.553 280.248,566.553 C280.831,566.553 281.222,566.907 281.42,567.615 C281.42,567.688 281.352,567.886 281.217,568.209 L252.811,601.225 L269.498,601.225 L269.498,588.131 C269.498,586.506 270.446,585.334 272.342,584.615 C274.29,583.897 276.503,581.001 278.982,575.928 C279.17,575.532 279.462,575.334 279.857,575.334 C280.639,575.334 281.092,575.793 281.217,576.709 L281.217,601.225 L288.357,601.225 C289.264,601.225 289.751,601.712 289.818,602.686 C289.886,603.66 289.399,604.147 288.357,604.147 L281.217,604.147 L281.217,604.928 C281.217,607.532 281.868,609.746 283.17,611.569 C284.67,613.391 286.43,614.303 288.451,614.303 C289.232,614.303 289.623,614.694 289.623,615.475 C289.623,616.256 289.087,616.647 288.014,616.647 C286.941,616.647 284.938,616.436 282.006,616.014 C279.074,615.592 276.811,615.381 275.217,615.381 C273.623,615.381 271.41,615.592 268.576,616.014 C265.743,616.436 263.613,616.647 262.186,616.647 C261.404,616.647 261.014,616.256 261.014,615.475 C261.014,614.694 261.404,614.303 262.186,614.303 C264.196,614.303 265.951,613.391 267.451,611.569 C268.816,609.683 269.498,607.47 269.498,604.928 L269.498,604.147 L252.811,604.147 C251.956,604.147 251.219,603.92 250.6,603.467 C249.98,603.014 249.67,602.592 249.67,602.201 C249.67,601.811 250.485,600.639 252.115,598.686 C253.745,596.733 256.074,592.972 259.1,587.405 C262.126,581.837 263.639,575.438 263.639,568.209 C263.639,567.168 264.097,566.647 265.014,566.647 C265.212,566.647 265.521,566.712 265.943,566.842 C266.365,566.972 267.277,567.183 268.678,567.475 C270.079,567.766 271.527,567.912 273.021,567.912"/>
<path class="TimeSig" d="M273.021,618.084 C274.516,618.084 275.949,617.858 277.318,617.405 C278.688,616.951 279.665,616.725 280.248,616.725 C280.831,616.725 281.222,617.079 281.42,617.787 C281.42,617.86 281.352,618.058 281.217,618.381 L252.811,651.397 L269.498,651.397 L269.498,638.303 C269.498,636.678 270.446,635.506 272.342,634.787 C274.29,634.069 276.503,631.173 278.982,626.1 C279.17,625.704 279.462,625.506 279.857,625.506 C280.639,625.506 281.092,625.964 281.217,626.881 L281.217,651.397 L288.357,651.397 C289.264,651.397 289.751,651.884 289.818,652.858 C289.886,653.832 289.399,654.319 288.357,654.319 L281.217,654.319 L281.217,655.1 C281.217,657.704 281.868,659.918 283.17,661.74 C284.67,663.563 286.43,664.475 288.451,664.475 C289.232,664.475 289.623,664.865 289.623,665.647 C289.623,666.428 289.087,666.819 288.014,666.819 C286.941,666.819 284.938,666.608 282.006,666.186 C279.074,665.764 276.811,665.553 275.217,665.553 C273.623,665.553 271.41,665.764 268.576,666.186 C265.743,666.608 263.613,666.819 262.186,666.819 C261.404,666.819 261.014,666.428 261.014,665.647 C261.014,664.865 261.404,664.475 262.186,664.475 C264.196,664.475 265.951,663.563 267.451,661.74 C268.816,659.855 269.498,657.642 269.498,655.1 L269.498,654.319 L252.811,654.319 C251.956,654.319 251.219,654.092 250.6,653.639 C249.98,653.186 249.67,652.764 249.67,652.373 C249.67,651.983 250.485,650.811 252.115,648.858 C253.745,646.905 256.074,643.144 259.1,637.576 C262.126,632.009 263.639,625.61 263.639,618.381 C263.639,617.339 264.097,616.819 265.014,616.819 C265.212,616.819 265.521,616.884 265.943,617.014 C266.365,617.144 267.277,617.355 268.678,617.647 C270.079,617.938 271.527,618.084 273.021,618.084"/>
</svg>
