<?xml version="1.0" encoding="UTF-8" standalone="no"?>
<svg width="2977.2px" height="4208.4px" viewBox="0 0 2977.2 4208.4"
 xmlns="http://www.w3.org/2000/svg" xmlns:xlink="http://www.w3.org/1999/xlink" version="1.2" baseProfile="tiny">
<title>Simple_Gifts.mscx</title>
<desc>Generated by MuseScore Studio 4.3.1</desc>
<path class="" fill="#ffffff" fill-rule="evenodd" d="M0,0 L2977.2,0 L2977.2,4208.4 L0,4208.4 L0,0 "/>
<polyline class="StaffLines" fill="none" stroke="#000000" stroke-width="2.00" stroke-linejoin="bevel" points="141.732,316.732 2835.47,316.732"/>
<polyline class="StaffLines" fill="none" stroke="#000000" stroke-width="2.00" stroke-linejoin="bevel" points="141.732,341.732 2835.47,341.732"/>
<polyline class="StaffLines" fill="none" stroke="#000000" stroke-width="2.00" stroke-linejoin="bevel" points="141.732,366.733 2835.47,366.733"/>
<polyline class="StaffLines" fill="none" stroke="#000000" stroke-width="2.00" stroke-linejoin="bevel" points="141.732,391.733 2835.47,391.733"/>
<polyline class="StaffLines" fill="none" stroke="#000000" stroke-width="2.00" stroke-linejoin="bevel" points="141.732,416.733 2835.47,416.733"/>
<polyline class="StaffLines" fill="none" stroke="#000000" stroke-width="2.00" stroke-linejoin="bevel" points="141.732,791.733 2835.47,791.733"/>
<polyline class="StaffLines" fill="none" stroke="#000000" stroke-width="2.00" stroke-linejoin="bevel" points="141.732,816.733 2835.47,816.733"/>
<polyline class="StaffLines" fill="none" stroke="#000000" stroke-width="2.00" stroke-linejoin="bevel" points="141.732,841.733 2835.47,841.733"/>
<polyline class="StaffLines" fill="none" stroke="#000000" stroke-width="2.00" stroke-linejoin="bevel" points="141.732,866.733 2835.47,866.733"/>
<polyline class="StaffLines" fill="none" stroke="#000000" stroke-width="2.00" stroke-linejoin="bevel" points="141.732,891.733 2835.47,891.733"/>
<polyline class="StaffLines" fill="none" stroke="#000000" stroke-width="2.00" stroke-linejoin="bevel" points="141.732,1266.73 2835.47,1266.73"/>
<polyline class="StaffLines" fill="none" stroke="#000000" stroke-width="2.00" stroke-linejoin="bevel" points="141.732,1291.73 2835.47,1291.73"/>
<polyline class="StaffLines" fill="none" stroke="#000000" stroke-width="2.00" stroke-linejoin="bevel" points="141.732,1316.73 2835.47,1316.73"/>
<polyline class="StaffLines" fill="none" stroke="#000000" stroke-width="2.00" stroke-linejoin="bevel" points="141.732,1341.73 2835.47,1341.73"/>
<polyline class="StaffLines" fill="none" stroke="#000000" stroke-width="2.00" stroke-linejoin="bevel" points="141.732,1366.73 2835.47,1366.73"/>
<polyline class="StaffLines" fill="none" stroke="#000000" stroke-width="2.00" stroke-linejoin="bevel" points="141.732,1741.73 2835.47,1741.73"/>
<polyline class="StaffLines" fill="none" stroke="#000000" stroke-width="2.00" stroke-linejoin="bevel" points="141.732,1766.73 2835.47,1766.73"/>
<polyline class="StaffLines" fill="none" stroke="#000000" stroke-width="2.00" stroke-linejoin="bevel" points="141.732,1791.73 2835.47,1791.73"/>
<polyline class="StaffLines" fill="none" stroke="#000000" stroke-width="2.00" stroke-linejoin="bevel" points="141.732,1816.73 2835.47,1816.73"/>
<polyline class="StaffLines" fill="none" stroke="#000000" stroke-width="2.00" stroke-linejoin="bevel" points="141.732,1841.73 2835.47,1841.73"/>
<polyline class="StaffLines" fill="none" stroke="#000000" stroke-width="2.00" stroke-linejoin="bevel" points="141.732,2216.73 548.301,2216.73"/>
<polyline class="StaffLines" fill="none" stroke="#000000" stroke-width="2.00" stroke-linejoin="bevel" points="141.732,2241.73 548.301,2241.73"/>
<polyline class="StaffLines" fill="none" stroke="#000000" stroke-width="2.00" stroke-linejoin="bevel" points="141.732,2266.73 548.301,2266.73"/>
<polyline class="StaffLines" fill="none" stroke="#000000" stroke-width="2.00" stroke-linejoin="bevel" points="141.732,2291.73 548.301,2291.73"/>
<polyline class="StaffLines" fill="none" stroke="#000000" stroke-width="2.00" stroke-linejoin="bevel" points="141.732,2316.73 548.301,2316.73"/>
<path class="MeasureNumber" d="M128.045,1668.01 C127.566,1668.01 126.607,1668.31 125.17,1668.89 L125.17,1668.34 L132.373,1664.7 L132.685,1664.78 L132.685,1688.78 C132.685,1689.74 132.925,1690.36 133.404,1690.66 C133.883,1690.95 134.909,1691.11 136.482,1691.14 L136.482,1691.73 L125.451,1691.73 L125.451,1691.14 C126.941,1691.08 127.946,1690.85 128.467,1690.47 C128.988,1690.08 129.248,1689.26 129.248,1688.01 L129.248,1669.89 C129.248,1668.64 128.847,1668.01 128.045,1668.01 M143.951,1688.61 C144.566,1688.61 145.48,1688.97 146.693,1689.69 C147.907,1690.42 148.967,1690.78 149.873,1690.78 C151.342,1690.78 152.581,1690.21 153.592,1689.07 C154.602,1687.93 155.107,1686.53 155.107,1684.86 C155.107,1683.82 154.928,1682.9 154.568,1682.11 C154.209,1681.32 153.751,1680.7 153.193,1680.26 C152.636,1679.83 151.969,1679.47 151.193,1679.19 C150.417,1678.92 149.691,1678.74 149.014,1678.66 C148.337,1678.57 147.613,1678.53 146.842,1678.53 L146.842,1678.01 C147.748,1677.69 148.527,1677.38 149.178,1677.07 C149.829,1676.76 150.514,1676.35 151.232,1675.83 C151.951,1675.32 152.506,1674.69 152.896,1673.94 C153.287,1673.19 153.482,1672.33 153.482,1671.37 C153.482,1670.12 153.074,1669.1 152.256,1668.3 C151.438,1667.49 150.378,1667.09 149.076,1667.09 C147.826,1667.09 146.727,1667.43 145.779,1668.12 C144.831,1668.8 143.946,1669.87 143.123,1671.34 L142.514,1671.17 C143.212,1669.29 144.154,1667.74 145.342,1666.52 C146.529,1665.31 148.212,1664.7 150.389,1664.7 C152.232,1664.7 153.735,1665.21 154.896,1666.22 C156.058,1667.23 156.639,1668.55 156.639,1670.17 C156.639,1671.26 156.357,1672.23 155.795,1673.05 C155.232,1673.88 154.258,1674.76 152.873,1675.7 C154.477,1676.39 155.732,1677.27 156.639,1678.34 C157.545,1679.42 157.998,1680.95 157.998,1682.95 C157.998,1685.79 156.951,1688.05 154.857,1689.75 C152.764,1691.45 150.128,1692.3 146.951,1692.3 C145.566,1692.3 144.467,1692.09 143.654,1691.67 C142.842,1691.25 142.435,1690.7 142.435,1690.01 C142.435,1689.59 142.576,1689.25 142.857,1688.99 C143.139,1688.74 143.503,1688.61 143.951,1688.61"/>
<path class="MeasureNumber" d="M146.514,733.873 C146.514,732.446 146.199,731.181 145.568,730.076 C144.938,728.972 144.178,728.118 143.287,727.514 C142.396,726.91 141.399,726.412 140.295,726.022 C139.191,725.631 138.23,725.376 137.412,725.256 C136.594,725.136 135.883,725.076 135.279,725.076 C134.956,725.076 134.795,724.967 134.795,724.748 C134.795,724.675 134.805,724.613 134.826,724.561 L139.185,715.264 L147.545,715.264 C147.972,715.264 148.313,715.196 148.568,715.061 C148.824,714.925 149.097,714.644 149.389,714.217 L149.748,714.498 L148.232,717.842 C148.128,718.061 147.821,718.17 147.31,718.17 L139.467,718.17 L137.795,721.608 C141.68,722.306 144.571,723.441 146.467,725.014 C148.363,726.587 149.31,728.894 149.31,731.936 C149.31,733.53 149.063,734.946 148.568,736.186 C148.074,737.425 147.446,738.423 146.685,739.178 C145.925,739.933 145.045,740.553 144.045,741.037 C143.045,741.522 142.087,741.853 141.17,742.03 C140.253,742.207 139.326,742.295 138.389,742.295 C136.899,742.295 135.714,742.074 134.834,741.631 C133.954,741.188 133.514,740.582 133.514,739.811 C133.514,738.821 134.087,738.326 135.232,738.326 C135.982,738.326 136.949,738.735 138.131,739.553 C139.313,740.371 140.253,740.78 140.951,740.78 C142.524,740.78 143.844,740.113 144.912,738.78 C145.98,737.446 146.514,735.811 146.514,733.873"/>
<path class="MeasureNumber" d="M128.045,2143.01 C127.566,2143.01 126.607,2143.31 125.17,2143.89 L125.17,2143.34 L132.373,2139.7 L132.685,2139.78 L132.685,2163.78 C132.685,2164.74 132.925,2165.36 133.404,2165.66 C133.883,2165.95 134.909,2166.11 136.482,2166.14 L136.482,2166.73 L125.451,2166.73 L125.451,2166.14 C126.941,2166.08 127.946,2165.85 128.467,2165.47 C128.988,2165.08 129.248,2164.26 129.248,2163.01 L129.248,2144.89 C129.248,2143.64 128.847,2143.01 128.045,2143.01 M158.67,2140.26 L158.67,2140.89 L150.201,2167.05 L147.592,2167.05 L155.514,2143.17 L146.842,2143.17 C145.748,2143.17 144.915,2143.37 144.342,2143.77 C143.769,2144.17 143.055,2145.06 142.201,2146.42 L141.514,2146.11 L143.873,2140.26 L158.67,2140.26 "/>
<path class="MeasureNumber" d="M134.092,1217.61 L133.967,1216.81 C137.008,1216.28 139.589,1214.98 141.709,1212.92 C143.829,1210.86 145.3,1208.2 146.123,1204.94 C144.154,1206.48 142.159,1207.25 140.139,1207.25 C137.972,1207.25 136.23,1206.5 134.912,1205.01 C133.594,1203.51 132.935,1201.55 132.935,1199.11 C132.935,1196.4 133.727,1194.14 135.31,1192.33 C136.894,1190.53 138.873,1189.62 141.248,1189.62 C143.831,1189.62 145.951,1190.68 147.607,1192.8 C149.264,1194.91 150.092,1197.63 150.092,1200.95 C150.092,1202.01 149.998,1203.11 149.81,1204.23 C149.623,1205.36 149.188,1206.69 148.506,1208.23 C147.824,1209.76 146.938,1211.14 145.85,1212.35 C144.761,1213.56 143.204,1214.67 141.178,1215.65 C139.152,1216.64 136.79,1217.3 134.092,1217.61 M141.576,1205.5 C142.076,1205.5 142.646,1205.43 143.287,1205.28 C143.928,1205.13 144.576,1204.81 145.232,1204.32 C145.889,1203.82 146.217,1203.22 146.217,1202.5 L146.217,1200.95 C146.217,1194.19 144.456,1190.81 140.935,1190.81 C140.102,1190.81 139.394,1191.03 138.81,1191.48 C138.227,1191.92 137.782,1192.5 137.475,1193.21 C137.167,1193.92 136.946,1194.65 136.81,1195.4 C136.675,1196.14 136.607,1196.93 136.607,1197.76 C136.607,1200.13 137.055,1202.01 137.951,1203.4 C138.847,1204.8 140.055,1205.5 141.576,1205.5"/>
<polyline class="BarLine" fill="none" stroke="#000000" stroke-width="4.00" stroke-linejoin="bevel" points="1613.87,790.733 1613.87,892.733"/>
<polyline class="BarLine" fill="none" stroke="#000000" stroke-width="4.00" stroke-linejoin="bevel" points="2158.69,1740.73 2158.69,1842.73"/>
<polyline class="BarLine" fill="none" stroke="#000000" stroke-width="4.00" stroke-linejoin="bevel" points="2147.51,1265.73 2147.51,1367.73"/>
<polyline class="BarLine" fill="none" stroke="#000000" stroke-width="4.00" stroke-linejoin="bevel" points="2163.24,315.732 2163.24,417.733"/>
<polyline class="BarLine" fill="none" stroke="#000000" stroke-width="4.00" stroke-linejoin="bevel" points="1386.15,315.732 1386.15,417.733"/>
<polyline class="BarLine" fill="none" stroke="#000000" stroke-width="4.00" stroke-linejoin="bevel" points="2833.47,1265.73 2833.47,1367.73"/>
<polyline class="BarLine" fill="none" stroke="#000000" stroke-width="4.00" stroke-linejoin="bevel" points="1420.96,1265.73 1420.96,1367.73"/>
<polyline class="BarLine" fill="none" stroke="#000000" stroke-width="4.00" stroke-linejoin="bevel" points="870.392,1265.73 870.392,1367.73"/>
<polyline class="BarLine" fill="none" stroke="#000000" stroke-width="4.00" stroke-linejoin="bevel" points="2833.47,315.732 2833.47,417.733"/>
<polyline class="BarLine" fill="none" stroke="#000000" stroke-width="4.00" stroke-linejoin="bevel" points="892.516,1740.73 892.516,1842.73"/>
<polyline class="BarLine" fill="none" stroke="#000000" stroke-width="4.00" stroke-linejoin="bevel" points="2833.47,1740.73 2833.47,1842.73"/>
<polyline class="BarLine" fill="none" stroke="#000000" stroke-width="4.00" stroke-linejoin="bevel" points="2833.47,790.733 2833.47,892.733"/>
<polyline class="BarLine" fill="none" stroke="#000000" stroke-width="4.00" stroke-linejoin="bevel" points="555.615,315.732 555.615,417.733"/>
<polyline class="BarLine" fill="none" stroke="#000000" stroke-width="4.00" stroke-linejoin="bevel" points="1434.23,1740.73 1434.23,1842.73"/>
<polyline class="BarLine" fill="none" stroke="#000000" stroke-width="4.00" stroke-linejoin="bevel" points="515.551,2215.73 515.551,2317.73"/>
<polyline class="BarLine" fill="none" stroke="#000000" stroke-width="12.50" stroke-linejoin="bevel" points="542.051,2215.73 542.051,2317.73"/>
<polyline class="BarLine" fill="none" stroke="#000000" stroke-width="4.00" stroke-linejoin="bevel" points="914.711,790.733 914.711,892.733"/>
<polyline class="BarLine" fill="none" stroke="#000000" stroke-width="4.00" stroke-linejoin="bevel" points="2178.99,790.733 2178.99,892.733"/>
<polyline class="Stem" fill="none" stroke="#000000" stroke-width="3.25" stroke-linejoin="bevel" points="2634.39,1760.1 2634.39,1835.58"/>
<polyline class="Stem" fill="none" stroke="#000000" stroke-width="3.25" stroke-linejoin="bevel" points="440.464,1310.1 440.464,1372.98"/>
<polyline class="Stem" fill="none" stroke="#000000" stroke-width="3.25" stroke-linejoin="bevel" points="288.857,1310.1 288.857,1385.48"/>
<polyline class="Stem" fill="none" stroke="#000000" stroke-width="3.25" stroke-linejoin="bevel" points="2485.36,1760.1 2485.36,1841.73"/>
<polyline class="Stem" fill="none" stroke="#000000" stroke-width="3.25" stroke-linejoin="bevel" points="1145.58,1785.1 1145.58,1860.48"/>
<polyline class="Stem" fill="none" stroke="#000000" stroke-width="3.25" stroke-linejoin="bevel" points="1334.5,1772.6 1334.5,1854.83"/>
<polyline class="Stem" fill="none" stroke="#000000" stroke-width="3.25" stroke-linejoin="bevel" points="2743.74,822.602 2743.74,891.623"/>
<polyline class="Stem" fill="none" stroke="#000000" stroke-width="3.25" stroke-linejoin="bevel" points="2654.39,810.102 2654.39,885.593"/>
<polyline class="Stem" fill="none" stroke="#000000" stroke-width="3.25" stroke-linejoin="bevel" points="2520.35,810.102 2520.35,891.733"/>
<polyline class="Stem" fill="none" stroke="#000000" stroke-width="3.25" stroke-linejoin="bevel" points="2431,822.602 2431,891.733"/>
<polyline class="Stem" fill="none" stroke="#000000" stroke-width="3.25" stroke-linejoin="bevel" points="1462.85,1760.1 1462.85,1841.73"/>
<polyline class="Stem" fill="none" stroke="#000000" stroke-width="3.25" stroke-linejoin="bevel" points="541.535,1310.1 541.535,1372.98"/>
<polyline class="Stem" fill="none" stroke="#000000" stroke-width="3.25" stroke-linejoin="bevel" points="2341.65,822.602 2341.65,891.733"/>
<polyline class="Stem" fill="none" stroke="#000000" stroke-width="3.25" stroke-linejoin="bevel" points="1611.88,1760.1 1611.88,1822.88"/>
<polyline class="Stem" fill="none" stroke="#000000" stroke-width="3.25" stroke-linejoin="bevel" points="1810.58,1735.1 1810.58,1816.73"/>
<polyline class="Stem" fill="none" stroke="#000000" stroke-width="3.25" stroke-linejoin="bevel" points="2044.58,810.102 2044.58,891.733"/>
<polyline class="Stem" fill="none" stroke="#000000" stroke-width="3.25" stroke-linejoin="bevel" points="1910.55,785.102 1910.55,866.733"/>
<polyline class="Stem" fill="none" stroke="#000000" stroke-width="3.25" stroke-linejoin="bevel" points="1776.52,797.602 1776.52,879.233"/>
<polyline class="Stem" fill="none" stroke="#000000" stroke-width="3.25" stroke-linejoin="bevel" points="1642.49,810.102 1642.49,891.733"/>
<polyline class="Stem" fill="none" stroke="#000000" stroke-width="3.25" stroke-linejoin="bevel" points="1711.23,1747.6 1711.23,1816.83"/>
<polyline class="Stem" fill="none" stroke="#000000" stroke-width="3.25" stroke-linejoin="bevel" points="2207.62,822.602 2207.62,904.233"/>
<polyline class="Stem" fill="none" stroke="#000000" stroke-width="3.25" stroke-linejoin="bevel" points="1524.14,822.602 1524.14,891.733"/>
<polyline class="Stem" fill="none" stroke="#000000" stroke-width="3.25" stroke-linejoin="bevel" points="2733.74,1772.6 2733.74,1841.63"/>
<polyline class="Stem" fill="none" stroke="#000000" stroke-width="3.25" stroke-linejoin="bevel" points="1319.52,1297.6 1319.52,1379.83"/>
<polyline class="Stem" fill="none" stroke="#000000" stroke-width="3.25" stroke-linejoin="bevel" points="2327.74,1285.1 2327.74,1347.89"/>
<polyline class="Stem" fill="none" stroke="#000000" stroke-width="3.25" stroke-linejoin="bevel" points="2428.81,1272.6 2428.81,1341.83"/>
<polyline class="Stem" fill="none" stroke="#000000" stroke-width="3.25" stroke-linejoin="bevel" points="2046.06,1297.6 2046.06,1379.83"/>
<polyline class="Stem" fill="none" stroke="#000000" stroke-width="3.25" stroke-linejoin="bevel" points="2529.88,1260.1 2529.88,1341.73"/>
<polyline class="Stem" fill="none" stroke="#000000" stroke-width="3.25" stroke-linejoin="bevel" points="1853.87,1310.1 1853.87,1385.48"/>
<polyline class="Stem" fill="none" stroke="#000000" stroke-width="3.25" stroke-linejoin="bevel" points="1752.8,1297.6 1752.8,1366.7"/>
<polyline class="Stem" fill="none" stroke="#000000" stroke-width="3.25" stroke-linejoin="bevel" points="1651.73,1285.1 1651.73,1364.64"/>
<polyline class="Stem" fill="none" stroke="#000000" stroke-width="3.25" stroke-linejoin="bevel" points="1550.66,1272.6 1550.66,1362.58"/>
<polyline class="Stem" fill="none" stroke="#000000" stroke-width="3.25" stroke-linejoin="bevel" points="2187.31,1772.6 2187.31,1854.23"/>
<polyline class="Stem" fill="none" stroke="#000000" stroke-width="3.25" stroke-linejoin="bevel" points="1449.59,1285.1 1449.59,1360.52"/>
<polyline class="Stem" fill="none" stroke="#000000" stroke-width="3.25" stroke-linejoin="bevel" points="2681.49,1285.1 2681.49,1366.73"/>
<polyline class="Stem" fill="none" stroke="#000000" stroke-width="3.25" stroke-linejoin="bevel" points="2058.96,1760.1 2058.96,1822.88"/>
<polyline class="Stem" fill="none" stroke="#000000" stroke-width="3.25" stroke-linejoin="bevel" points="921.141,1784.13 921.141,1860.48"/>
<polyline class="Stem" fill="none" stroke="#000000" stroke-width="3.25" stroke-linejoin="bevel" points="1127.33,1285.1 1127.33,1366.73"/>
<polyline class="Stem" fill="none" stroke="#000000" stroke-width="3.25" stroke-linejoin="bevel" points="899.017,1259.13 899.017,1341.73"/>
<polyline class="Stem" fill="none" stroke="#000000" stroke-width="3.25" stroke-linejoin="bevel" points="246.357,1772.6 246.357,1854.23"/>
<polyline class="Stem" fill="none" stroke="#000000" stroke-width="3.25" stroke-linejoin="bevel" points="395.384,1772.6 395.384,1841.63"/>
<polyline class="Stem" fill="none" stroke="#000000" stroke-width="3.25" stroke-linejoin="bevel" points="641.704,1309.13 641.704,1385.48"/>
<polyline class="Stem" fill="none" stroke="#000000" stroke-width="3.25" stroke-linejoin="bevel" points="1959.61,1747.6 1959.61,1816.83"/>
<polyline class="Stem" fill="none" stroke="#000000" stroke-width="3.25" stroke-linejoin="bevel" points="494.736,1760.1 494.736,1835.58"/>
<polyline class="Stem" fill="none" stroke="#000000" stroke-width="3.25" stroke-linejoin="bevel" points="594.087,1772.6 594.087,1854.23"/>
<polyline class="Stem" fill="none" stroke="#000000" stroke-width="3.25" stroke-linejoin="bevel" points="772.778,1810.86 772.778,1729.23"/>
<polyline class="Stem" fill="none" stroke="#000000" stroke-width="3.25" stroke-linejoin="bevel" points="2176.13,1285.1 2176.13,1366.73"/>
<polyline class="Stem" fill="none" stroke="#000000" stroke-width="3.25" stroke-linejoin="bevel" points="2336.34,1772.6 2336.34,1854.23"/>
<polyline class="Stem" fill="none" stroke="#000000" stroke-width="3.25" stroke-linejoin="bevel" points="1681.95,322.602 1681.95,391.64"/>
<polyline class="Stem" fill="none" stroke="#000000" stroke-width="3.25" stroke-linejoin="bevel" points="675.938,860.864 675.938,779.233"/>
<polyline class="Stem" fill="none" stroke="#000000" stroke-width="3.25" stroke-linejoin="bevel" points="556.92,847.602 556.92,910.445"/>
<polyline class="Stem" fill="none" stroke="#000000" stroke-width="3.25" stroke-linejoin="bevel" points="467.566,822.602 467.566,908.387"/>
<polyline class="Stem" fill="none" stroke="#000000" stroke-width="3.25" stroke-linejoin="bevel" points="378.211,810.102 378.211,906.329"/>
<polyline class="Stem" fill="none" stroke="#000000" stroke-width="3.25" stroke-linejoin="bevel" points="288.857,822.602 288.857,904.27"/>
<polyline class="Stem" fill="none" stroke="#000000" stroke-width="3.25" stroke-linejoin="bevel" points="2672.79,360.102 2672.79,435.483"/>
<polyline class="Stem" fill="none" stroke="#000000" stroke-width="3.25" stroke-linejoin="bevel" points="2512.48,347.602 2512.48,429.233"/>
<polyline class="Stem" fill="none" stroke="#000000" stroke-width="3.25" stroke-linejoin="bevel" points="2352.17,347.602 2352.17,429.233"/>
<polyline class="Stem" fill="none" stroke="#000000" stroke-width="3.25" stroke-linejoin="bevel" points="2191.87,347.602 2191.87,429.233"/>
<polyline class="Stem" fill="none" stroke="#000000" stroke-width="3.25" stroke-linejoin="bevel" points="2056,360.102 2056,422.89"/>
<polyline class="Stem" fill="none" stroke="#000000" stroke-width="3.25" stroke-linejoin="bevel" points="288.857,2260.1 288.857,2335.48"/>
<polyline class="Stem" fill="none" stroke="#000000" stroke-width="3.25" stroke-linejoin="bevel" points="1949.13,347.602 1949.13,416.825"/>
<polyline class="Stem" fill="none" stroke="#000000" stroke-width="3.25" stroke-linejoin="bevel" points="1788.82,335.102 1788.82,416.733"/>
<polyline class="Stem" fill="none" stroke="#000000" stroke-width="3.25" stroke-linejoin="bevel" points="1434.78,822.602 1434.78,891.733"/>
<polyline class="Stem" fill="none" stroke="#000000" stroke-width="3.25" stroke-linejoin="bevel" points="1575.08,310.102 1575.08,385.575"/>
<polyline class="Stem" fill="none" stroke="#000000" stroke-width="3.25" stroke-linejoin="bevel" points="1414.77,310.102 1414.77,391.733"/>
<polyline class="Stem" fill="none" stroke="#000000" stroke-width="3.25" stroke-linejoin="bevel" points="1278.9,322.602 1278.9,422.983"/>
<polyline class="Stem" fill="none" stroke="#000000" stroke-width="3.25" stroke-linejoin="bevel" points="1172.03,335.102 1172.03,422.983"/>
<polyline class="Stem" fill="none" stroke="#000000" stroke-width="3.25" stroke-linejoin="bevel" points="1065.16,360.102 1065.16,422.983"/>
<polyline class="Stem" fill="none" stroke="#000000" stroke-width="3.25" stroke-linejoin="bevel" points="353.52,2260.1 353.52,2335.48"/>
<polyline class="Stem" fill="none" stroke="#000000" stroke-width="3.25" stroke-linejoin="bevel" points="958.288,335.102 958.288,422.983"/>
<polyline class="Stem" fill="none" stroke="#000000" stroke-width="3.25" stroke-linejoin="bevel" points="851.417,347.602 851.417,416.825"/>
<polyline class="Stem" fill="none" stroke="#000000" stroke-width="3.25" stroke-linejoin="bevel" points="744.546,360.102 744.546,422.89"/>
<polyline class="Stem" fill="none" stroke="#000000" stroke-width="3.25" stroke-linejoin="bevel" points="584.24,360.102 584.24,435.483"/>
<polyline class="Stem" fill="none" stroke="#000000" stroke-width="3.25" stroke-linejoin="bevel" points="478.033,385.863 478.033,316.732"/>
<polyline class="Stem" fill="none" stroke="#000000" stroke-width="3.25" stroke-linejoin="bevel" points="417.28,2259.13 417.28,2335.48"/>
<polyline class="Stem" fill="none" stroke="#000000" stroke-width="3.25" stroke-linejoin="bevel" points="371.162,385.863 371.162,316.732"/>
<polyline class="Stem" fill="none" stroke="#000000" stroke-width="3.25" stroke-linejoin="bevel" points="1122.04,835.102 1122.04,910.483"/>
<polyline class="Stem" fill="none" stroke="#000000" stroke-width="3.25" stroke-linejoin="bevel" points="943.336,835.102 943.336,910.483"/>
<polyline class="Stem" fill="none" stroke="#000000" stroke-width="3.25" stroke-linejoin="bevel" points="1032.69,847.602 1032.69,910.483"/>
<polyline class="Stem" fill="none" stroke="#000000" stroke-width="3.25" stroke-linejoin="bevel" points="1300.75,810.102 1300.75,891.733"/>
<polyline class="Stem" fill="none" stroke="#000000" stroke-width="3.25" stroke-linejoin="bevel" points="1211.4,822.602 1211.4,910.483"/>
<polyline class="Stem" fill="none" stroke="#000000" stroke-width="3.25" stroke-linejoin="bevel" points="809.969,860.864 809.969,779.233"/>
<path class="Hook" d="M2067.18,1306.87 C2068.68,1306.87 2070.27,1309.3 2071.93,1314.15 C2073.59,1319 2074.42,1323.44 2074.42,1327.48 C2074.42,1331.51 2073.49,1335.42 2071.64,1339.19 C2069.78,1342.97 2067.55,1346.29 2064.95,1349.16 L2056.93,1358.14 C2054.47,1361 2052.29,1364.29 2050.4,1368 C2048.51,1371.71 2047.56,1375.45 2047.56,1379.23 L2044.43,1379.23 L2044.43,1354.23 L2047.56,1354.23 C2058.5,1347.33 2065.37,1341.21 2068.17,1335.87 C2069.53,1333.27 2070.22,1330.63 2070.22,1327.97 C2070.22,1321.78 2068.42,1315.62 2064.84,1309.5 L2064.84,1309.11 C2064.84,1308.52 2065.07,1308.01 2065.53,1307.55 C2065.99,1307.1 2066.54,1306.87 2067.18,1306.87"/>
<path class="Hook" d="M1355.63,1781.87 C1357.13,1781.87 1358.71,1784.3 1360.37,1789.15 C1362.03,1794 1362.86,1798.44 1362.86,1802.48 C1362.86,1806.51 1361.93,1810.42 1360.08,1814.19 C1358.22,1817.97 1356,1821.29 1353.39,1824.16 L1345.38,1833.14 C1342.91,1836 1340.73,1839.29 1338.84,1843 C1336.95,1846.71 1336,1850.45 1336,1854.23 L1332.88,1854.23 L1332.88,1829.23 L1336,1829.23 C1346.94,1822.33 1353.81,1816.21 1356.61,1810.87 C1357.97,1808.27 1358.66,1805.63 1358.66,1802.97 C1358.66,1796.78 1356.86,1790.62 1353.28,1784.5 L1353.28,1784.11 C1353.28,1783.53 1353.51,1783.01 1353.97,1782.55 C1354.43,1782.1 1354.98,1781.87 1355.63,1781.87"/>
<path class="Hook" d="M1340.64,1306.87 C1342.14,1306.87 1343.72,1309.3 1345.38,1314.15 C1347.05,1319 1347.88,1323.44 1347.88,1327.48 C1347.88,1331.51 1346.95,1335.42 1345.09,1339.19 C1343.24,1342.97 1341.01,1346.29 1338.41,1349.16 L1330.39,1358.14 C1327.92,1361 1325.74,1364.29 1323.85,1368 C1321.96,1371.71 1321.02,1375.45 1321.02,1379.23 L1317.89,1379.23 L1317.89,1354.23 L1321.02,1354.23 C1331.95,1347.33 1338.82,1341.21 1341.63,1335.87 C1342.99,1333.27 1343.67,1330.63 1343.67,1327.97 C1343.67,1321.78 1341.88,1315.62 1338.3,1309.5 L1338.3,1309.11 C1338.3,1308.52 1338.53,1308.01 1338.99,1307.55 C1339.44,1307.1 1340,1306.87 1340.64,1306.87"/>
<path class="Note" d="M1930.9,765.467 C1934.02,765.467 1936.63,766.248 1938.71,767.811 C1940.79,769.373 1941.83,771.618 1941.83,774.545 C1941.83,779.035 1939.51,783.233 1934.86,787.139 C1930.21,791.045 1925.21,792.998 1919.87,792.998 C1916.74,792.998 1914.11,792.186 1911.96,790.561 C1909.94,788.8 1908.93,786.587 1908.93,783.92 C1908.93,779.556 1911.24,775.389 1915.87,771.42 C1920.49,767.452 1925.5,765.467 1930.9,765.467"/>
<path class="Note" d="M266.701,1752.97 C269.826,1752.97 272.43,1753.75 274.514,1755.31 C276.597,1756.87 277.639,1759.12 277.639,1762.05 C277.639,1766.54 275.313,1770.73 270.662,1774.64 C266.011,1778.55 261.014,1780.5 255.67,1780.5 C252.545,1780.5 249.91,1779.69 247.764,1778.06 C245.743,1776.3 244.732,1774.09 244.732,1771.42 C244.732,1767.06 247.045,1762.89 251.67,1758.92 C256.295,1754.95 261.305,1752.97 266.701,1752.97"/>
<path class="Note" d="M1142.39,815.467 C1145.51,815.467 1148.12,816.248 1150.2,817.811 C1152.28,819.373 1153.32,821.618 1153.32,824.545 C1153.32,829.035 1151,833.233 1146.35,837.139 C1141.7,841.045 1136.7,842.998 1131.36,842.998 C1128.23,842.998 1125.6,842.186 1123.45,840.561 C1121.43,838.801 1120.42,836.587 1120.42,833.92 C1120.42,829.556 1122.73,825.389 1127.36,821.42 C1131.98,817.452 1136.99,815.467 1142.39,815.467"/>
<path class="Note" d="M1796.87,777.967 C1799.99,777.967 1802.59,778.748 1804.68,780.311 C1806.76,781.873 1807.8,784.118 1807.8,787.045 C1807.8,791.535 1805.48,795.733 1800.83,799.639 C1796.18,803.545 1791.18,805.498 1785.83,805.498 C1782.71,805.498 1780.07,804.686 1777.93,803.061 C1775.91,801.3 1774.9,799.087 1774.9,796.42 C1774.9,792.056 1777.21,787.889 1781.83,783.92 C1786.46,779.952 1791.47,777.967 1796.87,777.967"/>
<path class="Note" d="M415.728,1752.97 C418.853,1752.97 421.457,1753.75 423.541,1755.31 C425.624,1756.87 426.666,1759.12 426.666,1762.05 C426.666,1766.54 424.34,1770.73 419.689,1774.64 C415.038,1778.55 410.041,1780.5 404.697,1780.5 C401.572,1780.5 398.936,1779.69 396.791,1778.06 C394.77,1776.3 393.759,1774.09 393.759,1771.42 C393.759,1767.06 396.072,1762.89 400.697,1758.92 C405.322,1754.95 410.332,1752.97 415.728,1752.97"/>
<path class="Note" d="M978.632,315.467 C981.757,315.467 984.361,316.248 986.444,317.811 C988.528,319.373 989.569,321.618 989.569,324.545 C989.569,329.035 987.244,333.232 982.593,337.139 C977.942,341.045 972.944,342.998 967.601,342.998 C964.476,342.998 961.84,342.186 959.694,340.561 C957.673,338.8 956.663,336.587 956.663,333.92 C956.663,329.555 958.976,325.389 963.601,321.42 C968.226,317.451 973.236,315.467 978.632,315.467"/>
<path class="Note" d="M1979.95,1727.97 C1983.08,1727.97 1985.68,1728.75 1987.76,1730.31 C1989.85,1731.87 1990.89,1734.12 1990.89,1737.05 C1990.89,1741.54 1988.56,1745.73 1983.91,1749.64 C1979.26,1753.55 1974.26,1755.5 1968.92,1755.5 C1965.8,1755.5 1963.16,1754.69 1961.01,1753.06 C1958.99,1751.3 1957.98,1749.09 1957.98,1746.42 C1957.98,1742.06 1960.3,1737.89 1964.92,1733.92 C1969.55,1729.95 1974.56,1727.97 1979.95,1727.97"/>
<path class="Note" d="M1662.83,790.467 C1665.96,790.467 1668.56,791.248 1670.65,792.811 C1672.73,794.373 1673.77,796.618 1673.77,799.545 C1673.77,804.035 1671.45,808.233 1666.8,812.139 C1662.14,816.045 1657.15,817.998 1651.8,817.998 C1648.68,817.998 1646.04,817.186 1643.9,815.561 C1641.88,813.8 1640.87,811.587 1640.87,808.92 C1640.87,804.556 1643.18,800.389 1647.8,796.42 C1652.43,792.452 1657.44,790.467 1662.83,790.467"/>
<path class="Note" d="M1085.5,340.467 C1088.63,340.467 1091.23,341.248 1093.32,342.811 C1095.4,344.373 1096.44,346.618 1096.44,349.545 C1096.44,354.035 1094.11,358.232 1089.46,362.139 C1084.81,366.045 1079.82,367.998 1074.47,367.998 C1071.35,367.998 1068.71,367.186 1066.57,365.561 C1064.54,363.8 1063.53,361.587 1063.53,358.92 C1063.53,354.555 1065.85,350.389 1070.47,346.42 C1075.1,342.451 1080.11,340.467 1085.5,340.467"/>
<path class="Note" d="M1192.37,315.467 C1195.5,315.467 1198.1,316.248 1200.19,317.811 C1202.27,319.373 1203.31,321.618 1203.31,324.545 C1203.31,329.035 1200.99,333.232 1196.33,337.139 C1191.68,341.045 1186.69,342.998 1181.34,342.998 C1178.22,342.998 1175.58,342.186 1173.44,340.561 C1171.42,338.8 1170.4,336.587 1170.4,333.92 C1170.4,329.555 1172.72,325.389 1177.34,321.42 C1181.97,317.451 1186.98,315.467 1192.37,315.467"/>
<path class="Note" d="M2348.08,1265.47 C2351.21,1265.47 2353.81,1266.25 2355.89,1267.81 C2357.98,1269.37 2359.02,1271.62 2359.02,1274.55 C2359.02,1279.04 2356.69,1283.23 2352.04,1287.14 C2347.39,1291.05 2342.39,1293 2337.05,1293 C2333.93,1293 2331.29,1292.19 2329.14,1290.56 C2327.12,1288.8 2326.11,1286.59 2326.11,1283.92 C2326.11,1279.56 2328.43,1275.39 2333.05,1271.42 C2337.68,1267.45 2342.69,1265.47 2348.08,1265.47"/>
<path class="Note" d="M2701.83,1265.47 C2704.96,1265.47 2707.56,1266.25 2709.64,1267.81 C2711.73,1269.37 2712.77,1271.62 2712.77,1274.55 C2712.77,1279.04 2710.44,1283.23 2705.79,1287.14 C2701.14,1291.05 2696.14,1293 2690.8,1293 C2687.67,1293 2685.04,1292.19 2682.89,1290.56 C2680.87,1288.8 2679.86,1286.59 2679.86,1283.92 C2679.86,1279.56 2682.17,1275.39 2686.8,1271.42 C2691.42,1267.45 2696.43,1265.47 2701.83,1265.47"/>
<path class="Note" d="M1299.24,302.967 C1302.37,302.967 1304.97,303.748 1307.06,305.311 C1309.14,306.873 1310.18,309.118 1310.18,312.045 C1310.18,316.535 1307.86,320.732 1303.21,324.639 C1298.55,328.545 1293.56,330.498 1288.21,330.498 C1285.09,330.498 1282.45,329.686 1280.31,328.061 C1278.29,326.3 1277.28,324.087 1277.28,321.42 C1277.28,317.055 1279.59,312.889 1284.21,308.92 C1288.84,304.951 1293.85,302.967 1299.24,302.967"/>
<path class="Note" d="M2550.22,1240.47 C2553.35,1240.47 2555.95,1241.25 2558.04,1242.81 C2560.12,1244.37 2561.16,1246.62 2561.16,1249.55 C2561.16,1254.04 2558.84,1258.23 2554.18,1262.14 C2549.53,1266.05 2544.54,1268 2539.19,1268 C2536.07,1268 2533.43,1267.19 2531.29,1265.56 C2529.27,1263.8 2528.25,1261.59 2528.25,1258.92 C2528.25,1254.56 2530.57,1250.39 2535.19,1246.42 C2539.82,1242.45 2544.83,1240.47 2550.22,1240.47"/>
<path class="Note" d="M1053.03,827.967 C1056.16,827.967 1058.76,828.748 1060.85,830.311 C1062.93,831.873 1063.97,834.118 1063.97,837.045 C1063.97,841.535 1061.65,845.733 1056.99,849.639 C1052.34,853.545 1047.35,855.498 1042,855.498 C1038.88,855.498 1036.24,854.686 1034.1,853.061 C1032.08,851.301 1031.06,849.087 1031.06,846.42 C1031.06,842.056 1033.38,837.889 1038,833.92 C1042.63,829.952 1047.64,827.967 1053.03,827.967"/>
<path class="Note" d="M2449.15,1252.97 C2452.28,1252.97 2454.88,1253.75 2456.97,1255.31 C2459.05,1256.87 2460.09,1259.12 2460.09,1262.05 C2460.09,1266.54 2457.76,1270.73 2453.11,1274.64 C2448.46,1278.55 2443.47,1280.5 2438.12,1280.5 C2435,1280.5 2432.36,1279.69 2430.22,1278.06 C2428.19,1276.3 2427.18,1274.09 2427.18,1271.42 C2427.18,1267.06 2429.5,1262.89 2434.12,1258.92 C2438.75,1254.95 2443.76,1252.97 2449.15,1252.97"/>
<path class="Note" d="M1435.12,290.467 C1438.24,290.467 1440.84,291.248 1442.93,292.811 C1445.01,294.373 1446.05,296.618 1446.05,299.545 C1446.05,304.035 1443.73,308.232 1439.08,312.139 C1434.43,316.045 1429.43,317.998 1424.08,317.998 C1420.96,317.998 1418.32,317.186 1416.18,315.561 C1414.16,313.8 1413.15,311.587 1413.15,308.92 C1413.15,304.555 1415.46,300.389 1420.08,296.42 C1424.71,292.451 1429.72,290.467 1435.12,290.467"/>
<path class="Note" d="M2079.3,1740.47 C2082.43,1740.47 2085.03,1741.25 2087.12,1742.81 C2089.2,1744.37 2090.24,1746.62 2090.24,1749.55 C2090.24,1754.04 2087.91,1758.23 2083.26,1762.14 C2078.61,1766.05 2073.62,1768 2068.27,1768 C2065.15,1768 2062.51,1767.19 2060.37,1765.56 C2058.34,1763.8 2057.33,1761.59 2057.33,1758.92 C2057.33,1754.56 2059.65,1750.39 2064.27,1746.42 C2068.9,1742.45 2073.91,1740.47 2079.3,1740.47"/>
<path class="Note" d="M309.201,2240.47 C312.326,2240.47 314.93,2241.25 317.014,2242.81 C319.097,2244.37 320.139,2246.62 320.139,2249.55 C320.139,2254.04 317.813,2258.23 313.162,2262.14 C308.511,2266.05 303.514,2268 298.17,2268 C295.045,2268 292.41,2267.19 290.264,2265.56 C288.243,2263.8 287.232,2261.59 287.232,2258.92 C287.232,2254.56 289.545,2250.39 294.17,2246.42 C298.795,2242.45 303.805,2240.47 309.201,2240.47"/>
<path class="Note" d="M1830.92,1715.47 C1834.05,1715.47 1836.65,1716.25 1838.74,1717.81 C1840.82,1719.37 1841.86,1721.62 1841.86,1724.55 C1841.86,1729.04 1839.54,1733.23 1834.89,1737.14 C1830.23,1741.05 1825.24,1743 1819.89,1743 C1816.77,1743 1814.13,1742.19 1811.99,1740.56 C1809.97,1738.8 1808.96,1736.59 1808.96,1733.92 C1808.96,1729.56 1811.27,1725.39 1815.89,1721.42 C1820.52,1717.45 1825.53,1715.47 1830.92,1715.47"/>
<path class="Note" d="M1731.57,1727.97 C1734.7,1727.97 1737.3,1728.75 1739.39,1730.31 C1741.47,1731.87 1742.51,1734.12 1742.51,1737.05 C1742.51,1741.54 1740.19,1745.73 1735.53,1749.64 C1730.88,1753.55 1725.89,1755.5 1720.54,1755.5 C1717.42,1755.5 1714.78,1754.69 1712.64,1753.06 C1710.62,1751.3 1709.6,1749.09 1709.6,1746.42 C1709.6,1742.06 1711.92,1737.89 1716.54,1733.92 C1721.17,1729.95 1726.18,1727.97 1731.57,1727.97"/>
<path class="Note" d="M423.077,2264.87 C424.962,2264.87 428.918,2262.92 434.944,2259.01 C440.97,2255.11 444.52,2252.49 445.593,2251.16 C446.666,2249.82 447.202,2248.63 447.202,2247.59 C447.202,2246.55 446.778,2245.62 445.929,2244.81 C445.08,2244 444.103,2243.59 442.999,2243.59 C441.051,2243.59 437.064,2245.56 431.038,2249.5 C425.012,2253.44 421.478,2256.06 420.436,2257.36 C419.395,2258.66 418.874,2259.83 418.874,2260.87 C418.874,2261.92 419.283,2262.84 420.101,2263.66 C420.918,2264.47 421.91,2264.87 423.077,2264.87 M442.03,2240.47 C447.624,2240.47 450.421,2242.87 450.421,2247.69 C450.421,2250.03 449.739,2252.75 448.374,2255.84 C447.009,2258.94 445.186,2261.3 442.905,2262.92 C437.895,2266.31 431.614,2268 424.061,2268 C418.457,2268 415.655,2265.59 415.655,2260.78 C415.655,2258.63 416.322,2255.97 417.655,2252.77 C418.989,2249.58 420.827,2247.17 423.171,2245.55 C428.192,2242.16 434.478,2240.47 442.03,2240.47"/>
<path class="Note" d="M1455.13,802.967 C1458.25,802.967 1460.86,803.748 1462.94,805.311 C1465.02,806.873 1466.06,809.118 1466.06,812.045 C1466.06,816.535 1463.74,820.733 1459.09,824.639 C1454.44,828.545 1449.44,830.498 1444.1,830.498 C1440.97,830.498 1438.33,829.686 1436.19,828.061 C1434.17,826.3 1433.16,824.087 1433.16,821.42 C1433.16,817.056 1435.47,812.889 1440.1,808.92 C1444.72,804.952 1449.73,802.967 1455.13,802.967"/>
<path class="Note" d="M1632.22,1740.47 C1635.35,1740.47 1637.95,1741.25 1640.03,1742.81 C1642.12,1744.37 1643.16,1746.62 1643.16,1749.55 C1643.16,1754.04 1640.83,1758.23 1636.18,1762.14 C1631.53,1766.05 1626.53,1768 1621.19,1768 C1618.07,1768 1615.43,1767.19 1613.28,1765.56 C1611.26,1763.8 1610.25,1761.59 1610.25,1758.92 C1610.25,1754.56 1612.57,1750.39 1617.19,1746.42 C1621.82,1742.45 1626.83,1740.47 1632.22,1740.47"/>
<path class="Note" d="M361.842,377.967 C364.967,377.967 367.571,378.748 369.654,380.311 C371.738,381.873 372.779,384.118 372.779,387.045 C372.779,391.535 370.454,395.733 365.803,399.639 C361.152,403.545 356.154,405.498 350.811,405.498 C347.686,405.498 345.05,404.686 342.904,403.061 C340.884,401.3 339.873,399.087 339.873,396.42 C339.873,392.055 342.186,387.889 346.811,383.92 C351.436,379.951 356.446,377.967 361.842,377.967"/>
<path class="Note" d="M1483.2,1740.47 C1486.32,1740.47 1488.92,1741.25 1491.01,1742.81 C1493.09,1744.37 1494.13,1746.62 1494.13,1749.55 C1494.13,1754.04 1491.81,1758.23 1487.16,1762.14 C1482.51,1766.05 1477.51,1768 1472.16,1768 C1469.04,1768 1466.4,1767.19 1464.26,1765.56 C1462.24,1763.8 1461.23,1761.59 1461.23,1758.92 C1461.23,1754.56 1463.54,1750.39 1468.16,1746.42 C1472.79,1742.45 1477.8,1740.47 1483.2,1740.47"/>
<path class="Note" d="M1321.1,790.467 C1324.22,790.467 1326.82,791.248 1328.91,792.811 C1330.99,794.373 1332.03,796.618 1332.03,799.545 C1332.03,804.035 1329.71,808.233 1325.06,812.139 C1320.41,816.045 1315.41,817.998 1310.06,817.998 C1306.94,817.998 1304.3,817.186 1302.16,815.561 C1300.14,813.8 1299.13,811.587 1299.13,808.92 C1299.13,804.556 1301.44,800.389 1306.06,796.42 C1310.69,792.452 1315.7,790.467 1321.1,790.467"/>
<path class="Note" d="M1544.48,802.967 C1547.61,802.967 1550.21,803.748 1552.29,805.311 C1554.38,806.873 1555.42,809.118 1555.42,812.045 C1555.42,816.535 1553.09,820.733 1548.44,824.639 C1543.79,828.545 1538.79,830.498 1533.45,830.498 C1530.32,830.498 1527.69,829.686 1525.54,828.061 C1523.52,826.3 1522.51,824.087 1522.51,821.42 C1522.51,817.056 1524.82,812.889 1529.45,808.92 C1534.07,804.952 1539.08,802.967 1544.48,802.967"/>
<path class="Note" d="M468.713,377.967 C471.838,377.967 474.442,378.748 476.525,380.311 C478.609,381.873 479.65,384.118 479.65,387.045 C479.65,391.535 477.325,395.733 472.674,399.639 C468.023,403.545 463.025,405.498 457.682,405.498 C454.557,405.498 451.921,404.686 449.775,403.061 C447.754,401.3 446.744,399.087 446.744,396.42 C446.744,392.055 449.057,387.889 453.682,383.92 C458.307,379.951 463.317,377.967 468.713,377.967"/>
<path class="Note" d="M1354.84,1752.97 C1357.97,1752.97 1360.57,1753.75 1362.66,1755.31 C1364.74,1756.87 1365.78,1759.12 1365.78,1762.05 C1365.78,1766.54 1363.46,1770.73 1358.8,1774.64 C1354.15,1778.55 1349.16,1780.5 1343.81,1780.5 C1340.69,1780.5 1338.05,1779.69 1335.91,1778.06 C1333.89,1776.3 1332.88,1774.09 1332.88,1771.42 C1332.88,1767.06 1335.19,1762.89 1339.81,1758.92 C1344.44,1754.95 1349.45,1752.97 1354.84,1752.97"/>
<path class="Note" d="M515.079,1740.47 C518.204,1740.47 520.808,1741.25 522.892,1742.81 C524.975,1744.37 526.017,1746.62 526.017,1749.55 C526.017,1754.04 523.691,1758.23 519.04,1762.14 C514.389,1766.05 509.392,1768 504.048,1768 C500.923,1768 498.288,1767.19 496.142,1765.56 C494.121,1763.8 493.111,1761.59 493.111,1758.92 C493.111,1754.56 495.423,1750.39 500.048,1746.42 C504.673,1742.45 509.683,1740.47 515.079,1740.47"/>
<path class="Note" d="M1165.93,1765.47 C1169.05,1765.47 1171.66,1766.25 1173.74,1767.81 C1175.82,1769.37 1176.86,1771.62 1176.86,1774.55 C1176.86,1779.04 1174.54,1783.23 1169.89,1787.14 C1165.24,1791.05 1160.24,1793 1154.9,1793 C1151.77,1793 1149.14,1792.19 1146.99,1790.56 C1144.97,1788.8 1143.96,1786.59 1143.96,1783.92 C1143.96,1779.56 1146.27,1775.39 1150.9,1771.42 C1155.52,1767.45 1160.53,1765.47 1165.93,1765.47"/>
<path class="Note" d="M604.584,340.467 C607.709,340.467 610.313,341.248 612.396,342.811 C614.48,344.373 615.521,346.618 615.521,349.545 C615.521,354.035 613.196,358.232 608.545,362.139 C603.894,366.045 598.896,367.998 593.552,367.998 C590.427,367.998 587.792,367.186 585.646,365.561 C583.625,363.8 582.615,361.587 582.615,358.92 C582.615,354.555 584.927,350.389 589.552,346.42 C594.177,342.451 599.188,340.467 604.584,340.467"/>
<path class="Note" d="M926.937,1789.87 C928.823,1789.87 932.779,1787.92 938.805,1784.01 C944.831,1780.11 948.38,1777.49 949.453,1776.16 C950.526,1774.82 951.062,1773.63 951.062,1772.59 C951.062,1771.55 950.638,1770.62 949.789,1769.81 C948.94,1769 947.963,1768.59 946.859,1768.59 C944.911,1768.59 940.924,1770.56 934.898,1774.5 C928.872,1778.44 925.338,1781.06 924.297,1782.36 C923.255,1783.66 922.734,1784.83 922.734,1785.87 C922.734,1786.92 923.143,1787.84 923.961,1788.66 C924.779,1789.47 925.771,1789.87 926.937,1789.87 M945.891,1765.47 C951.484,1765.47 954.281,1767.87 954.281,1772.69 C954.281,1775.03 953.599,1777.75 952.234,1780.84 C950.87,1783.94 949.047,1786.3 946.766,1787.92 C941.755,1791.31 935.474,1793 927.922,1793 C922.318,1793 919.516,1790.59 919.516,1785.78 C919.516,1783.63 920.182,1780.97 921.516,1777.77 C922.849,1774.58 924.687,1772.17 927.031,1770.55 C932.052,1767.16 938.338,1765.47 945.891,1765.47"/>
<path class="Note" d="M1231.74,802.967 C1234.87,802.967 1237.47,803.748 1239.55,805.311 C1241.64,806.873 1242.68,809.118 1242.68,812.045 C1242.68,816.535 1240.35,820.733 1235.7,824.639 C1231.05,828.545 1226.05,830.498 1220.71,830.498 C1217.59,830.498 1214.95,829.686 1212.8,828.061 C1210.78,826.3 1209.77,824.087 1209.77,821.42 C1209.77,817.056 1212.09,812.889 1216.71,808.92 C1221.34,804.952 1226.35,802.967 1231.74,802.967"/>
<path class="Note" d="M764.89,340.467 C768.015,340.467 770.619,341.248 772.703,342.811 C774.786,344.373 775.828,346.618 775.828,349.545 C775.828,354.035 773.502,358.232 768.851,362.139 C764.2,366.045 759.203,367.998 753.859,367.998 C750.734,367.998 748.098,367.186 745.953,365.561 C743.932,363.8 742.921,361.587 742.921,358.92 C742.921,354.555 745.234,350.389 749.859,346.42 C754.484,342.451 759.494,340.467 764.89,340.467"/>
<path class="Note" d="M373.864,2240.47 C376.989,2240.47 379.593,2241.25 381.676,2242.81 C383.76,2244.37 384.801,2246.62 384.801,2249.55 C384.801,2254.04 382.476,2258.23 377.825,2262.14 C373.174,2266.05 368.176,2268 362.832,2268 C359.707,2268 357.072,2267.19 354.926,2265.56 C352.905,2263.8 351.895,2261.59 351.895,2258.92 C351.895,2254.56 354.207,2250.39 358.832,2246.42 C363.457,2242.45 368.468,2240.47 373.864,2240.47"/>
<path class="Note" d="M763.457,1802.97 C766.582,1802.97 769.187,1803.75 771.27,1805.31 C773.353,1806.87 774.395,1809.12 774.395,1812.05 C774.395,1816.54 772.069,1820.73 767.418,1824.64 C762.767,1828.55 757.77,1830.5 752.426,1830.5 C749.301,1830.5 746.666,1829.69 744.52,1828.06 C742.499,1826.3 741.489,1824.09 741.489,1821.42 C741.489,1817.06 743.801,1812.89 748.426,1808.92 C753.051,1804.95 758.062,1802.97 763.457,1802.97"/>
<path class="Note" d="M614.431,1752.97 C617.556,1752.97 620.16,1753.75 622.243,1755.31 C624.326,1756.87 625.368,1759.12 625.368,1762.05 C625.368,1766.54 623.043,1770.73 618.391,1774.64 C613.74,1778.55 608.743,1780.5 603.399,1780.5 C600.274,1780.5 597.639,1779.69 595.493,1778.06 C593.472,1776.3 592.462,1774.09 592.462,1771.42 C592.462,1767.06 594.774,1762.89 599.399,1758.92 C604.024,1754.95 609.035,1752.97 614.431,1752.97"/>
<path class="Note" d="M871.761,327.967 C874.886,327.967 877.49,328.748 879.573,330.311 C881.657,331.873 882.698,334.118 882.698,337.045 C882.698,341.535 880.373,345.732 875.722,349.639 C871.071,353.545 866.073,355.498 860.73,355.498 C857.605,355.498 854.969,354.686 852.823,353.061 C850.803,351.3 849.792,349.087 849.792,346.42 C849.792,342.055 852.105,337.889 856.73,333.92 C861.355,329.951 866.365,327.967 871.761,327.967"/>
<path class="Note" d="M309.201,802.967 C312.326,802.967 314.93,803.748 317.014,805.311 C319.097,806.873 320.139,809.118 320.139,812.045 C320.139,816.535 317.813,820.733 313.162,824.639 C308.511,828.545 303.514,830.498 298.17,830.498 C295.045,830.498 292.41,829.686 290.264,828.061 C288.243,826.3 287.232,824.087 287.232,821.42 C287.232,817.056 289.545,812.889 294.17,808.92 C298.795,804.952 303.805,802.967 309.201,802.967"/>
<path class="Note" d="M2207.65,1752.97 C2210.78,1752.97 2213.38,1753.75 2215.47,1755.31 C2217.55,1756.87 2218.59,1759.12 2218.59,1762.05 C2218.59,1766.54 2216.27,1770.73 2211.61,1774.64 C2206.96,1778.55 2201.97,1780.5 2196.62,1780.5 C2193.5,1780.5 2190.86,1779.69 2188.72,1778.06 C2186.7,1776.3 2185.69,1774.09 2185.69,1771.42 C2185.69,1767.06 2188,1762.89 2192.62,1758.92 C2197.25,1754.95 2202.26,1752.97 2207.65,1752.97"/>
<path class="Note" d="M1147.67,1265.47 C1150.8,1265.47 1153.4,1266.25 1155.49,1267.81 C1157.57,1269.37 1158.61,1271.62 1158.61,1274.55 C1158.61,1279.04 1156.28,1283.23 1151.63,1287.14 C1146.98,1291.05 1141.99,1293 1136.64,1293 C1133.52,1293 1130.88,1292.19 1128.74,1290.56 C1126.71,1288.8 1125.7,1286.59 1125.7,1283.92 C1125.7,1279.56 1128.02,1275.39 1132.64,1271.42 C1137.27,1267.45 1142.28,1265.47 1147.67,1265.47"/>
<path class="Note" d="M2372.52,327.967 C2375.64,327.967 2378.25,328.748 2380.33,330.311 C2382.41,331.873 2383.46,334.118 2383.46,337.045 C2383.46,341.535 2381.13,345.732 2376.48,349.639 C2371.83,353.545 2366.83,355.498 2361.49,355.498 C2358.36,355.498 2355.73,354.686 2353.58,353.061 C2351.56,351.3 2350.55,349.087 2350.55,346.42 C2350.55,342.055 2352.86,337.889 2357.49,333.92 C2362.11,329.951 2367.12,327.967 2372.52,327.967"/>
<path class="Note" d="M904.813,1264.87 C906.699,1264.87 910.655,1262.92 916.681,1259.01 C922.707,1255.11 926.256,1252.49 927.329,1251.15 C928.402,1249.82 928.938,1248.63 928.938,1247.59 C928.938,1246.55 928.514,1245.62 927.665,1244.81 C926.816,1244 925.839,1243.59 924.735,1243.59 C922.787,1243.59 918.8,1245.56 912.774,1249.5 C906.748,1253.44 903.214,1256.06 902.173,1257.36 C901.131,1258.66 900.61,1259.83 900.61,1260.87 C900.61,1261.92 901.019,1262.84 901.837,1263.65 C902.655,1264.47 903.647,1264.87 904.813,1264.87 M923.767,1240.47 C929.36,1240.47 932.157,1242.87 932.157,1247.69 C932.157,1250.03 931.475,1252.75 930.11,1255.84 C928.746,1258.94 926.923,1261.3 924.642,1262.92 C919.631,1266.31 913.35,1268 905.798,1268 C900.194,1268 897.392,1265.59 897.392,1260.78 C897.392,1258.63 898.058,1255.96 899.392,1252.77 C900.725,1249.58 902.563,1247.17 904.907,1245.55 C909.928,1242.16 916.214,1240.47 923.767,1240.47"/>
<path class="Note" d="M2532.82,327.967 C2535.95,327.967 2538.55,328.748 2540.64,330.311 C2542.72,331.873 2543.76,334.118 2543.76,337.045 C2543.76,341.535 2541.44,345.732 2536.79,349.639 C2532.13,353.545 2527.14,355.498 2521.79,355.498 C2518.67,355.498 2516.03,354.686 2513.89,353.061 C2511.87,351.3 2510.86,349.087 2510.86,346.42 C2510.86,342.055 2513.17,337.889 2517.79,333.92 C2522.42,329.951 2527.43,327.967 2532.82,327.967"/>
<path class="Note" d="M800.648,852.967 C803.773,852.967 806.378,853.748 808.461,855.311 C810.544,856.873 811.586,859.118 811.586,862.045 C811.586,866.535 809.26,870.733 804.609,874.639 C799.958,878.545 794.961,880.498 789.617,880.498 C786.492,880.498 783.857,879.686 781.711,878.061 C779.69,876.301 778.68,874.087 778.68,871.42 C778.68,867.056 780.992,862.889 785.617,858.92 C790.242,854.952 795.253,852.967 800.648,852.967"/>
<path class="Note" d="M647.501,1314.87 C649.386,1314.87 653.342,1312.92 659.368,1309.01 C665.394,1305.11 668.944,1302.49 670.017,1301.15 C671.09,1299.82 671.626,1298.63 671.626,1297.59 C671.626,1296.55 671.202,1295.62 670.353,1294.81 C669.504,1294 668.527,1293.59 667.423,1293.59 C665.475,1293.59 661.488,1295.56 655.462,1299.5 C649.436,1303.44 645.902,1306.06 644.86,1307.36 C643.819,1308.66 643.298,1309.83 643.298,1310.87 C643.298,1311.92 643.707,1312.84 644.524,1313.65 C645.342,1314.47 646.334,1314.87 647.501,1314.87 M666.454,1290.47 C672.048,1290.47 674.845,1292.87 674.845,1297.69 C674.845,1300.03 674.162,1302.75 672.798,1305.84 C671.433,1308.94 669.61,1311.3 667.329,1312.92 C662.319,1316.31 656.037,1318 648.485,1318 C642.881,1318 640.079,1315.59 640.079,1310.78 C640.079,1308.63 640.746,1305.96 642.079,1302.77 C643.412,1299.58 645.251,1297.17 647.595,1295.55 C652.616,1292.16 658.902,1290.47 666.454,1290.47"/>
<path class="Note" d="M2693.13,340.467 C2696.26,340.467 2698.86,341.248 2700.94,342.811 C2703.03,344.373 2704.07,346.618 2704.07,349.545 C2704.07,354.035 2701.74,358.232 2697.09,362.139 C2692.44,366.045 2687.44,367.998 2682.1,367.998 C2678.97,367.998 2676.34,367.186 2674.19,365.561 C2672.17,363.8 2671.16,361.587 2671.16,358.92 C2671.16,354.555 2673.47,350.389 2678.1,346.42 C2682.72,342.451 2687.73,340.467 2693.13,340.467"/>
<path class="Note" d="M561.879,1290.47 C565.004,1290.47 567.608,1291.25 569.692,1292.81 C571.775,1294.37 572.817,1296.62 572.817,1299.55 C572.817,1304.04 570.491,1308.23 565.84,1312.14 C561.189,1316.05 556.192,1318 550.848,1318 C547.723,1318 545.087,1317.19 542.942,1315.56 C540.921,1313.8 539.91,1311.59 539.91,1308.92 C539.91,1304.56 542.223,1300.39 546.848,1296.42 C551.473,1292.45 556.483,1290.47 561.879,1290.47"/>
<path class="Note" d="M2451.34,802.967 C2454.47,802.967 2457.07,803.748 2459.16,805.311 C2461.24,806.873 2462.28,809.118 2462.28,812.045 C2462.28,816.535 2459.96,820.733 2455.3,824.639 C2450.65,828.545 2445.66,830.498 2440.31,830.498 C2437.19,830.498 2434.55,829.686 2432.41,828.061 C2430.39,826.3 2429.38,824.087 2429.38,821.42 C2429.38,817.056 2431.69,812.889 2436.31,808.92 C2440.94,804.952 2445.95,802.967 2451.34,802.967"/>
<path class="Note" d="M2361.99,802.967 C2365.11,802.967 2367.72,803.748 2369.8,805.311 C2371.89,806.873 2372.93,809.118 2372.93,812.045 C2372.93,816.535 2370.6,820.733 2365.95,824.639 C2361.3,828.545 2356.3,830.498 2350.96,830.498 C2347.83,830.498 2345.2,829.686 2343.05,828.061 C2341.03,826.3 2340.02,824.087 2340.02,821.42 C2340.02,817.056 2342.33,812.889 2346.96,808.92 C2351.58,804.952 2356.59,802.967 2361.99,802.967"/>
<path class="Note" d="M460.808,1290.47 C463.933,1290.47 466.537,1291.25 468.62,1292.81 C470.704,1294.37 471.745,1296.62 471.745,1299.55 C471.745,1304.04 469.42,1308.23 464.769,1312.14 C460.118,1316.05 455.12,1318 449.777,1318 C446.652,1318 444.016,1317.19 441.87,1315.56 C439.85,1313.8 438.839,1311.59 438.839,1308.92 C438.839,1304.56 441.152,1300.39 445.777,1296.42 C450.402,1292.45 455.412,1290.47 460.808,1290.47"/>
<path class="Note" d="M309.201,1290.47 C312.326,1290.47 314.93,1291.25 317.014,1292.81 C319.097,1294.37 320.139,1296.62 320.139,1299.55 C320.139,1304.04 317.813,1308.23 313.162,1312.14 C308.511,1316.05 303.514,1318 298.17,1318 C295.045,1318 292.41,1317.19 290.264,1315.56 C288.243,1313.8 287.232,1311.59 287.232,1308.92 C287.232,1304.56 289.545,1300.39 294.17,1296.42 C298.795,1292.45 303.805,1290.47 309.201,1290.47"/>
<path class="Note" d="M398.555,790.467 C401.68,790.467 404.284,791.248 406.368,792.811 C408.451,794.373 409.493,796.618 409.493,799.545 C409.493,804.035 407.167,808.233 402.516,812.139 C397.865,816.045 392.868,817.998 387.524,817.998 C384.399,817.998 381.764,817.186 379.618,815.561 C377.597,813.8 376.586,811.587 376.586,808.92 C376.586,804.556 378.899,800.389 383.524,796.42 C388.149,792.452 393.159,790.467 398.555,790.467"/>
<path class="Note" d="M2356.68,1752.97 C2359.81,1752.97 2362.41,1753.75 2364.49,1755.31 C2366.58,1756.87 2367.62,1759.12 2367.62,1762.05 C2367.62,1766.54 2365.29,1770.73 2360.64,1774.64 C2355.99,1778.55 2350.99,1780.5 2345.65,1780.5 C2342.52,1780.5 2339.89,1779.69 2337.74,1778.06 C2335.72,1776.3 2334.71,1774.09 2334.71,1771.42 C2334.71,1767.06 2337.02,1762.89 2341.65,1758.92 C2346.27,1754.95 2351.29,1752.97 2356.68,1752.97"/>
<path class="Note" d="M2540.7,790.467 C2543.82,790.467 2546.43,791.248 2548.51,792.811 C2550.59,794.373 2551.64,796.618 2551.64,799.545 C2551.64,804.035 2549.31,808.233 2544.66,812.139 C2540.01,816.045 2535.01,817.998 2529.67,817.998 C2526.54,817.998 2523.91,817.186 2521.76,815.561 C2519.74,813.8 2518.73,811.587 2518.73,808.92 C2518.73,804.556 2521.04,800.389 2525.67,796.42 C2530.29,792.452 2535.3,790.467 2540.7,790.467"/>
<path class="Note" d="M487.909,802.967 C491.034,802.967 493.638,803.748 495.722,805.311 C497.805,806.873 498.847,809.118 498.847,812.045 C498.847,816.535 496.521,820.733 491.87,824.639 C487.219,828.545 482.222,830.498 476.878,830.498 C473.753,830.498 471.118,829.686 468.972,828.061 C466.951,826.3 465.941,824.087 465.941,821.42 C465.941,817.056 468.253,812.889 472.878,808.92 C477.503,804.952 482.513,802.967 487.909,802.967"/>
<path class="Note" d="M666.617,852.967 C669.742,852.967 672.346,853.748 674.43,855.311 C676.513,856.873 677.555,859.118 677.555,862.045 C677.555,866.535 675.229,870.733 670.578,874.639 C665.927,878.545 660.93,880.498 655.586,880.498 C652.461,880.498 649.826,879.686 647.68,878.061 C645.659,876.301 644.649,874.087 644.649,871.42 C644.649,867.056 646.961,862.889 651.586,858.92 C656.211,854.952 661.221,852.967 666.617,852.967"/>
<path class="Note" d="M577.263,827.967 C580.388,827.967 582.992,828.748 585.076,830.311 C587.159,831.873 588.201,834.118 588.201,837.045 C588.201,841.535 585.875,845.733 581.224,849.639 C576.573,853.545 571.576,855.498 566.232,855.498 C563.107,855.498 560.472,854.686 558.326,853.061 C556.305,851.301 555.295,849.087 555.295,846.42 C555.295,842.056 557.607,837.889 562.232,833.92 C566.857,829.952 571.867,827.967 577.263,827.967"/>
<path class="Note" d="M2764.08,802.967 C2767.21,802.967 2769.81,803.748 2771.9,805.311 C2773.98,806.873 2775.02,809.118 2775.02,812.045 C2775.02,816.535 2772.7,820.733 2768.04,824.639 C2763.39,828.545 2758.4,830.498 2753.05,830.498 C2749.93,830.498 2747.29,829.686 2745.15,828.061 C2743.12,826.3 2742.11,824.087 2742.11,821.42 C2742.11,817.056 2744.43,812.889 2749.05,808.92 C2753.68,804.952 2758.69,802.967 2764.08,802.967"/>
<path class="Note" d="M2674.73,790.467 C2677.85,790.467 2680.46,791.248 2682.54,792.811 C2684.62,794.373 2685.67,796.618 2685.67,799.545 C2685.67,804.035 2683.34,808.233 2678.69,812.139 C2674.04,816.045 2669.04,817.998 2663.7,817.998 C2660.57,817.998 2657.94,817.186 2655.79,815.561 C2653.77,813.8 2652.76,811.587 2652.76,808.92 C2652.76,804.556 2655.07,800.389 2659.7,796.42 C2664.32,792.452 2669.33,790.467 2674.73,790.467"/>
<path class="Note" d="M1969.47,327.967 C1972.59,327.967 1975.2,328.748 1977.28,330.311 C1979.37,331.873 1980.41,334.118 1980.41,337.045 C1980.41,341.535 1978.08,345.732 1973.43,349.639 C1968.78,353.545 1963.78,355.498 1958.44,355.498 C1955.31,355.498 1952.68,354.686 1950.53,353.061 C1948.51,351.3 1947.5,349.087 1947.5,346.42 C1947.5,342.055 1949.81,337.889 1954.44,333.92 C1959.06,329.951 1964.07,327.967 1969.47,327.967"/>
<path class="Note" d="M2196.47,1265.47 C2199.6,1265.47 2202.2,1266.25 2204.29,1267.81 C2206.37,1269.37 2207.41,1271.62 2207.41,1274.55 C2207.41,1279.04 2205.09,1283.23 2200.44,1287.14 C2195.78,1291.05 2190.79,1293 2185.44,1293 C2182.32,1293 2179.68,1292.19 2177.54,1290.56 C2175.52,1288.8 2174.51,1286.59 2174.51,1283.92 C2174.51,1279.56 2176.82,1275.39 2181.44,1271.42 C2186.07,1267.45 2191.08,1265.47 2196.47,1265.47"/>
<path class="Note" d="M1595.42,290.467 C1598.55,290.467 1601.15,291.248 1603.23,292.811 C1605.32,294.373 1606.36,296.618 1606.36,299.545 C1606.36,304.035 1604.03,308.232 1599.38,312.139 C1594.73,316.045 1589.73,317.998 1584.39,317.998 C1581.27,317.998 1578.63,317.186 1576.48,315.561 C1574.46,313.8 1573.45,311.587 1573.45,308.92 C1573.45,304.555 1575.77,300.389 1580.39,296.42 C1585.02,292.451 1590.03,290.467 1595.42,290.467"/>
<path class="Note" d="M2505.71,1740.47 C2508.83,1740.47 2511.44,1741.25 2513.52,1742.81 C2515.6,1744.37 2516.65,1746.62 2516.65,1749.55 C2516.65,1754.04 2514.32,1758.23 2509.67,1762.14 C2505.02,1766.05 2500.02,1768 2494.68,1768 C2491.55,1768 2488.92,1767.19 2486.77,1765.56 C2484.75,1763.8 2483.74,1761.59 2483.74,1758.92 C2483.74,1754.56 2486.05,1750.39 2490.68,1746.42 C2495.3,1742.45 2500.31,1740.47 2505.71,1740.47"/>
<path class="Note" d="M1702.29,302.967 C1705.42,302.967 1708.02,303.748 1710.11,305.311 C1712.19,306.873 1713.23,309.118 1713.23,312.045 C1713.23,316.535 1710.9,320.732 1706.25,324.639 C1701.6,328.545 1696.61,330.498 1691.26,330.498 C1688.14,330.498 1685.5,329.686 1683.36,328.061 C1681.33,326.3 1680.32,324.087 1680.32,321.42 C1680.32,317.055 1682.64,312.889 1687.26,308.92 C1691.89,304.951 1696.9,302.967 1702.29,302.967"/>
<path class="Note" d="M2066.4,1277.97 C2069.53,1277.97 2072.13,1278.75 2074.22,1280.31 C2076.3,1281.87 2077.34,1284.12 2077.34,1287.05 C2077.34,1291.54 2075.02,1295.73 2070.36,1299.64 C2065.71,1303.55 2060.72,1305.5 2055.37,1305.5 C2052.25,1305.5 2049.61,1304.69 2047.47,1303.06 C2045.45,1301.3 2044.43,1299.09 2044.43,1296.42 C2044.43,1292.06 2046.75,1287.89 2051.37,1283.92 C2056,1279.95 2061.01,1277.97 2066.4,1277.97"/>
<path class="Note" d="M2654.73,1740.47 C2657.86,1740.47 2660.46,1741.25 2662.55,1742.81 C2664.63,1744.37 2665.67,1746.62 2665.67,1749.55 C2665.67,1754.04 2663.35,1758.23 2658.7,1762.14 C2654.04,1766.05 2649.05,1768 2643.7,1768 C2640.58,1768 2637.94,1767.19 2635.8,1765.56 C2633.78,1763.8 2632.77,1761.59 2632.77,1758.92 C2632.77,1754.56 2635.08,1750.39 2639.7,1746.42 C2644.33,1742.45 2649.34,1740.47 2654.73,1740.47"/>
<path class="Note" d="M1809.16,315.467 C1812.29,315.467 1814.89,316.248 1816.98,317.811 C1819.06,319.373 1820.1,321.618 1820.1,324.545 C1820.1,329.035 1817.78,333.232 1813.12,337.139 C1808.47,341.045 1803.48,342.998 1798.13,342.998 C1795.01,342.998 1792.37,342.186 1790.23,340.561 C1788.21,338.8 1787.19,336.587 1787.19,333.92 C1787.19,329.555 1789.51,325.389 1794.13,321.42 C1798.76,317.451 1803.77,315.467 1809.16,315.467"/>
<path class="Note" d="M1874.22,1290.47 C1877.34,1290.47 1879.95,1291.25 1882.03,1292.81 C1884.11,1294.37 1885.15,1296.62 1885.15,1299.55 C1885.15,1304.04 1882.83,1308.23 1878.18,1312.14 C1873.53,1316.05 1868.53,1318 1863.18,1318 C1860.06,1318 1857.42,1317.19 1855.28,1315.56 C1853.26,1313.8 1852.25,1311.59 1852.25,1308.92 C1852.25,1304.56 1854.56,1300.39 1859.18,1296.42 C1863.81,1292.45 1868.82,1290.47 1874.22,1290.47"/>
<path class="Note" d="M2754.09,1752.97 C2757.21,1752.97 2759.82,1753.75 2761.9,1755.31 C2763.98,1756.87 2765.02,1759.12 2765.02,1762.05 C2765.02,1766.54 2762.7,1770.73 2758.05,1774.64 C2753.4,1778.55 2748.4,1780.5 2743.05,1780.5 C2739.93,1780.5 2737.29,1779.69 2735.15,1778.06 C2733.13,1776.3 2732.12,1774.09 2732.12,1771.42 C2732.12,1767.06 2734.43,1762.89 2739.05,1758.92 C2743.68,1754.95 2748.69,1752.97 2754.09,1752.97"/>
<path class="Note" d="M1773.14,1277.97 C1776.27,1277.97 1778.87,1278.75 1780.96,1280.31 C1783.04,1281.87 1784.08,1284.12 1784.08,1287.05 C1784.08,1291.54 1781.76,1295.73 1777.11,1299.64 C1772.45,1303.55 1767.46,1305.5 1762.11,1305.5 C1758.99,1305.5 1756.35,1304.69 1754.21,1303.06 C1752.19,1301.3 1751.18,1299.09 1751.18,1296.42 C1751.18,1292.06 1753.49,1287.89 1758.11,1283.92 C1762.74,1279.95 1767.75,1277.97 1773.14,1277.97"/>
<path class="Note" d="M2064.93,790.467 C2068.05,790.467 2070.66,791.248 2072.74,792.811 C2074.82,794.373 2075.87,796.618 2075.87,799.545 C2075.87,804.035 2073.54,808.233 2068.89,812.139 C2064.24,816.045 2059.24,817.998 2053.9,817.998 C2050.77,817.998 2048.14,817.186 2045.99,815.561 C2043.97,813.8 2042.96,811.587 2042.96,808.92 C2042.96,804.556 2045.27,800.389 2049.9,796.42 C2054.52,792.452 2059.53,790.467 2064.93,790.467"/>
<path class="Note" d="M1672.07,1265.47 C1675.2,1265.47 1677.8,1266.25 1679.89,1267.81 C1681.97,1269.37 1683.01,1271.62 1683.01,1274.55 C1683.01,1279.04 1680.69,1283.23 1676.03,1287.14 C1671.38,1291.05 1666.39,1293 1661.04,1293 C1657.92,1293 1655.28,1292.19 1653.14,1290.56 C1651.12,1288.8 1650.1,1286.59 1650.1,1283.92 C1650.1,1279.56 1652.42,1275.39 1657.04,1271.42 C1661.67,1267.45 1666.68,1265.47 1672.07,1265.47"/>
<path class="Note" d="M1571,1252.97 C1574.13,1252.97 1576.73,1253.75 1578.82,1255.31 C1580.9,1256.87 1581.94,1259.12 1581.94,1262.05 C1581.94,1266.54 1579.61,1270.73 1574.96,1274.64 C1570.31,1278.55 1565.32,1280.5 1559.97,1280.5 C1556.85,1280.5 1554.21,1279.69 1552.07,1278.06 C1550.04,1276.3 1549.03,1274.09 1549.03,1271.42 C1549.03,1267.06 1551.35,1262.89 1555.97,1258.92 C1560.6,1254.95 1565.61,1252.97 1571,1252.97"/>
<path class="Note" d="M2227.96,802.967 C2231.08,802.967 2233.69,803.748 2235.77,805.311 C2237.85,806.873 2238.9,809.118 2238.9,812.045 C2238.9,816.535 2236.57,820.733 2231.92,824.639 C2227.27,828.545 2222.27,830.498 2216.93,830.498 C2213.8,830.498 2211.17,829.686 2209.02,828.061 C2207,826.3 2205.99,824.087 2205.99,821.42 C2205.99,817.056 2208.3,812.889 2212.93,808.92 C2217.55,804.952 2222.56,802.967 2227.96,802.967"/>
<path class="Note" d="M2076.34,340.467 C2079.47,340.467 2082.07,341.248 2084.15,342.811 C2086.24,344.373 2087.28,346.618 2087.28,349.545 C2087.28,354.035 2084.95,358.232 2080.3,362.139 C2075.65,366.045 2070.65,367.998 2065.31,367.998 C2062.18,367.998 2059.55,367.186 2057.4,365.561 C2055.38,363.8 2054.37,361.587 2054.37,358.92 C2054.37,354.555 2056.68,350.389 2061.31,346.42 C2065.93,342.451 2070.94,340.467 2076.34,340.467"/>
<path class="Note" d="M1469.93,1265.47 C1473.06,1265.47 1475.66,1266.25 1477.74,1267.81 C1479.83,1269.37 1480.87,1271.62 1480.87,1274.55 C1480.87,1279.04 1478.54,1283.23 1473.89,1287.14 C1469.24,1291.05 1464.24,1293 1458.9,1293 C1455.78,1293 1453.14,1292.19 1450.99,1290.56 C1448.97,1288.8 1447.96,1286.59 1447.96,1283.92 C1447.96,1279.56 1450.28,1275.39 1454.9,1271.42 C1459.53,1267.45 1464.54,1265.47 1469.93,1265.47"/>
<path class="Note" d="M963.679,815.467 C966.804,815.467 969.409,816.248 971.492,817.811 C973.575,819.373 974.617,821.618 974.617,824.545 C974.617,829.035 972.291,833.233 967.64,837.139 C962.989,841.045 957.992,842.998 952.648,842.998 C949.523,842.998 946.888,842.186 944.742,840.561 C942.721,838.801 941.711,836.587 941.711,833.92 C941.711,829.556 944.023,825.389 948.648,821.42 C953.273,817.452 958.284,815.467 963.679,815.467"/>
<path class="Note" d="M2212.21,327.967 C2215.34,327.967 2217.94,328.748 2220.02,330.311 C2222.11,331.873 2223.15,334.118 2223.15,337.045 C2223.15,341.535 2220.82,345.732 2216.17,349.639 C2211.52,353.545 2206.52,355.498 2201.18,355.498 C2198.06,355.498 2195.42,354.686 2193.27,353.061 C2191.25,351.3 2190.24,349.087 2190.24,346.42 C2190.24,342.055 2192.56,337.889 2197.18,333.92 C2201.81,329.951 2206.82,327.967 2212.21,327.967"/>
<path class="Note" d="M1339.86,1277.97 C1342.99,1277.97 1345.59,1278.75 1347.67,1280.31 C1349.76,1281.87 1350.8,1284.12 1350.8,1287.05 C1350.8,1291.54 1348.47,1295.73 1343.82,1299.64 C1339.17,1303.55 1334.17,1305.5 1328.83,1305.5 C1325.7,1305.5 1323.07,1304.69 1320.92,1303.06 C1318.9,1301.3 1317.89,1299.09 1317.89,1296.42 C1317.89,1292.06 1320.2,1287.89 1324.83,1283.92 C1329.45,1279.95 1334.46,1277.97 1339.86,1277.97"/>
<path class="Clef" d="M203.623,423.858 L203.623,421.717 C203.56,420.613 203.399,418.889 203.139,416.545 C199.889,417.066 196.993,417.326 194.451,417.326 C185.337,417.326 177.605,413.727 171.256,406.529 C164.907,399.331 161.732,390.753 161.732,380.795 C161.732,378.128 162.253,374.923 163.295,371.178 C164.337,367.433 165.297,364.925 166.178,363.654 C167.058,362.384 168.378,360.154 170.139,356.967 C170.659,355.988 172.352,353.837 175.217,350.514 C175.738,349.805 176.193,349.222 176.584,348.764 C176.975,348.305 177.607,347.49 178.482,346.318 C179.357,345.147 180.3,344.055 181.31,343.045 C182.321,342.035 183.217,341.058 183.998,340.115 C184.779,339.173 185.498,338.378 186.154,337.733 C183.81,329.983 182.378,324.024 181.857,319.858 C181.337,315.691 181.076,310.579 181.076,304.522 C181.076,298.464 182.378,292.962 184.982,288.014 C187.514,282.878 191.06,278.68 195.623,275.42 C195.883,275.222 196.225,275.123 196.646,275.123 C197.068,275.123 197.378,275.222 197.576,275.42 C201.087,279.649 204.128,285.149 206.701,291.92 C209.274,298.691 210.56,305.024 210.56,310.92 C210.56,316.816 209.066,322.498 206.076,327.967 C202.691,333.759 198.326,339.748 192.982,345.936 C194.347,350.227 196.17,356.962 198.451,366.139 L199.045,366.139 C199.305,366.076 199.529,366.045 199.717,366.045 C207.081,366.045 213.089,368.634 217.74,373.811 C222.391,378.988 224.717,384.962 224.717,391.733 C224.717,400.128 221.238,406.899 214.279,412.045 C212.258,413.545 209.878,414.717 207.139,415.561 C207.472,419.79 207.639,422.605 207.639,424.006 C207.639,425.407 207.571,427.899 207.435,431.483 C207.373,437.597 205.29,442.837 201.185,447.201 C197.081,451.566 192.394,453.748 187.123,453.748 C181.852,453.748 177.36,451.876 173.646,448.131 C169.933,444.386 168.076,439.847 168.076,434.514 C168.076,431.712 169.154,429.331 171.31,427.373 C173.519,425.425 176.006,424.451 178.771,424.451 C181.537,424.451 183.8,425.462 185.56,427.483 C187.383,429.368 188.295,431.644 188.295,434.311 C188.295,436.977 187.383,439.222 185.56,441.045 C183.738,442.868 181.555,443.779 179.014,443.779 C177.972,443.779 176.967,443.587 175.998,443.201 C178.863,447.43 182.54,449.545 187.029,449.545 C191.519,449.545 195.36,447.691 198.553,443.983 C201.745,440.274 203.342,435.91 203.342,430.889 L203.623,423.858 M206.748,411.561 C210.133,410.321 212.821,408.123 214.81,404.967 C216.8,401.811 217.795,398.67 217.795,395.545 C217.795,390.92 216.199,386.785 213.006,383.139 C209.813,379.493 205.774,377.441 200.889,376.983 C203.691,390.722 205.644,402.248 206.748,411.561 M168.967,388.998 C168.967,395.446 171.537,401.079 176.678,405.897 C181.818,410.714 187.842,413.123 194.748,413.123 C197.477,413.123 200.144,412.925 202.748,412.529 C201.706,402.634 199.654,390.785 196.592,376.983 C192.758,377.378 189.782,378.699 187.662,380.943 C185.542,383.188 184.482,385.743 184.482,388.608 C184.482,393.555 187.123,397.561 192.404,400.623 C192.852,400.884 193.076,401.324 193.076,401.943 C193.076,402.563 192.865,403.1 192.443,403.553 C192.021,404.006 191.649,404.233 191.326,404.233 C191.003,404.233 190.581,404.17 190.06,404.045 C182.435,399.878 178.623,393.592 178.623,385.186 C178.623,381.217 180.024,377.41 182.826,373.764 C185.753,370.118 189.56,367.774 194.248,366.733 C192.425,359.441 190.93,353.743 189.764,349.639 C180.847,359.67 175.31,367.092 173.154,371.904 C170.363,378.154 168.967,383.852 168.967,388.998 M201.576,289.686 C196.691,292.092 192.834,295.574 190.006,300.131 C187.178,304.688 185.764,309.472 185.764,314.483 C185.764,319.493 186.935,325.972 189.279,333.92 C193.967,328.253 197.514,322.946 199.92,317.998 C202.326,313.05 203.529,308.152 203.529,303.303 C203.529,298.454 202.878,293.915 201.576,289.686"/>
<path class="Clef" d="M203.623,2323.86 L203.623,2321.72 C203.56,2320.61 203.399,2318.89 203.139,2316.55 C199.889,2317.07 196.993,2317.33 194.451,2317.33 C185.337,2317.33 177.605,2313.73 171.256,2306.53 C164.907,2299.33 161.732,2290.75 161.732,2280.8 C161.732,2278.13 162.253,2274.92 163.295,2271.18 C164.337,2267.43 165.297,2264.93 166.178,2263.66 C167.058,2262.38 168.378,2260.16 170.139,2256.97 C170.659,2255.99 172.352,2253.84 175.217,2250.51 C175.738,2249.81 176.193,2249.22 176.584,2248.76 C176.975,2248.31 177.607,2247.49 178.482,2246.32 C179.357,2245.15 180.3,2244.06 181.31,2243.05 C182.321,2242.04 183.217,2241.06 183.998,2240.12 C184.779,2239.17 185.498,2238.38 186.154,2237.73 C183.81,2229.98 182.378,2224.03 181.857,2219.86 C181.337,2215.69 181.076,2210.58 181.076,2204.52 C181.076,2198.47 182.378,2192.96 184.982,2188.01 C187.514,2182.88 191.06,2178.68 195.623,2175.42 C195.883,2175.22 196.225,2175.12 196.646,2175.12 C197.068,2175.12 197.378,2175.22 197.576,2175.42 C201.087,2179.65 204.128,2185.15 206.701,2191.92 C209.274,2198.69 210.56,2205.03 210.56,2210.92 C210.56,2216.82 209.066,2222.5 206.076,2227.97 C202.691,2233.76 198.326,2239.75 192.982,2245.94 C194.347,2250.23 196.17,2256.96 198.451,2266.14 L199.045,2266.14 C199.305,2266.08 199.529,2266.05 199.717,2266.05 C207.081,2266.05 213.089,2268.63 217.74,2273.81 C222.391,2278.99 224.717,2284.96 224.717,2291.73 C224.717,2300.13 221.238,2306.9 214.279,2312.05 C212.258,2313.55 209.878,2314.72 207.139,2315.56 C207.472,2319.79 207.639,2322.61 207.639,2324.01 C207.639,2325.41 207.571,2327.9 207.435,2331.48 C207.373,2337.6 205.29,2342.84 201.185,2347.2 C197.081,2351.57 192.394,2353.75 187.123,2353.75 C181.852,2353.75 177.36,2351.88 173.646,2348.13 C169.933,2344.39 168.076,2339.85 168.076,2334.51 C168.076,2331.71 169.154,2329.33 171.31,2327.37 C173.519,2325.43 176.006,2324.45 178.771,2324.45 C181.537,2324.45 183.8,2325.46 185.56,2327.48 C187.383,2329.37 188.295,2331.65 188.295,2334.31 C188.295,2336.98 187.383,2339.22 185.56,2341.05 C183.738,2342.87 181.555,2343.78 179.014,2343.78 C177.972,2343.78 176.967,2343.59 175.998,2343.2 C178.863,2347.43 182.54,2349.55 187.029,2349.55 C191.519,2349.55 195.36,2347.69 198.553,2343.98 C201.745,2340.28 203.342,2335.91 203.342,2330.89 L203.623,2323.86 M206.748,2311.56 C210.133,2310.32 212.821,2308.12 214.81,2304.97 C216.8,2301.81 217.795,2298.67 217.795,2295.55 C217.795,2290.92 216.199,2286.79 213.006,2283.14 C209.813,2279.49 205.774,2277.44 200.889,2276.98 C203.691,2290.72 205.644,2302.25 206.748,2311.56 M168.967,2289 C168.967,2295.45 171.537,2301.08 176.678,2305.9 C181.818,2310.72 187.842,2313.12 194.748,2313.12 C197.477,2313.12 200.144,2312.93 202.748,2312.53 C201.706,2302.63 199.654,2290.79 196.592,2276.98 C192.758,2277.38 189.782,2278.7 187.662,2280.94 C185.542,2283.19 184.482,2285.74 184.482,2288.61 C184.482,2293.56 187.123,2297.56 192.404,2300.62 C192.852,2300.88 193.076,2301.32 193.076,2301.94 C193.076,2302.56 192.865,2303.1 192.443,2303.55 C192.021,2304.01 191.649,2304.23 191.326,2304.23 C191.003,2304.23 190.581,2304.17 190.06,2304.05 C182.435,2299.88 178.623,2293.59 178.623,2285.19 C178.623,2281.22 180.024,2277.41 182.826,2273.76 C185.753,2270.12 189.56,2267.78 194.248,2266.73 C192.425,2259.44 190.93,2253.74 189.764,2249.64 C180.847,2259.67 175.31,2267.09 173.154,2271.91 C170.363,2278.16 168.967,2283.85 168.967,2289 M201.576,2189.69 C196.691,2192.09 192.834,2195.57 190.006,2200.13 C187.178,2204.69 185.764,2209.47 185.764,2214.48 C185.764,2219.49 186.935,2225.97 189.279,2233.92 C193.967,2228.25 197.514,2222.95 199.92,2218 C202.326,2213.05 203.529,2208.15 203.529,2203.3 C203.529,2198.46 202.878,2193.92 201.576,2189.69"/>
<path class="Clef" d="M203.623,1848.86 L203.623,1846.72 C203.56,1845.61 203.399,1843.89 203.139,1841.55 C199.889,1842.07 196.993,1842.33 194.451,1842.33 C185.337,1842.33 177.605,1838.73 171.256,1831.53 C164.907,1824.33 161.732,1815.75 161.732,1805.8 C161.732,1803.13 162.253,1799.92 163.295,1796.18 C164.337,1792.43 165.297,1789.93 166.178,1788.66 C167.058,1787.38 168.378,1785.16 170.139,1781.97 C170.659,1780.99 172.352,1778.84 175.217,1775.51 C175.738,1774.81 176.193,1774.22 176.584,1773.76 C176.975,1773.31 177.607,1772.49 178.482,1771.32 C179.357,1770.15 180.3,1769.06 181.31,1768.05 C182.321,1767.04 183.217,1766.06 183.998,1765.12 C184.779,1764.17 185.498,1763.38 186.154,1762.73 C183.81,1754.98 182.378,1749.03 181.857,1744.86 C181.337,1740.69 181.076,1735.58 181.076,1729.52 C181.076,1723.47 182.378,1717.96 184.982,1713.01 C187.514,1707.88 191.06,1703.68 195.623,1700.42 C195.883,1700.22 196.225,1700.12 196.646,1700.12 C197.068,1700.12 197.378,1700.22 197.576,1700.42 C201.087,1704.65 204.128,1710.15 206.701,1716.92 C209.274,1723.69 210.56,1730.03 210.56,1735.92 C210.56,1741.82 209.066,1747.5 206.076,1752.97 C202.691,1758.76 198.326,1764.75 192.982,1770.94 C194.347,1775.23 196.17,1781.96 198.451,1791.14 L199.045,1791.14 C199.305,1791.08 199.529,1791.05 199.717,1791.05 C207.081,1791.05 213.089,1793.63 217.74,1798.81 C222.391,1803.99 224.717,1809.96 224.717,1816.73 C224.717,1825.13 221.238,1831.9 214.279,1837.05 C212.258,1838.55 209.878,1839.72 207.139,1840.56 C207.472,1844.79 207.639,1847.61 207.639,1849.01 C207.639,1850.41 207.571,1852.9 207.435,1856.48 C207.373,1862.6 205.29,1867.84 201.185,1872.2 C197.081,1876.57 192.394,1878.75 187.123,1878.75 C181.852,1878.75 177.36,1876.88 173.646,1873.13 C169.933,1869.39 168.076,1864.85 168.076,1859.51 C168.076,1856.71 169.154,1854.33 171.31,1852.37 C173.519,1850.43 176.006,1849.45 178.771,1849.45 C181.537,1849.45 183.8,1850.46 185.56,1852.48 C187.383,1854.37 188.295,1856.64 188.295,1859.31 C188.295,1861.98 187.383,1864.22 185.56,1866.05 C183.738,1867.87 181.555,1868.78 179.014,1868.78 C177.972,1868.78 176.967,1868.59 175.998,1868.2 C178.863,1872.43 182.54,1874.55 187.029,1874.55 C191.519,1874.55 195.36,1872.69 198.553,1868.98 C201.745,1865.28 203.342,1860.91 203.342,1855.89 L203.623,1848.86 M206.748,1836.56 C210.133,1835.32 212.821,1833.12 214.81,1829.97 C216.8,1826.81 217.795,1823.67 217.795,1820.55 C217.795,1815.92 216.199,1811.79 213.006,1808.14 C209.813,1804.49 205.774,1802.44 200.889,1801.98 C203.691,1815.72 205.644,1827.25 206.748,1836.56 M168.967,1814 C168.967,1820.45 171.537,1826.08 176.678,1830.9 C181.818,1835.72 187.842,1838.12 194.748,1838.12 C197.477,1838.12 200.144,1837.93 202.748,1837.53 C201.706,1827.63 199.654,1815.79 196.592,1801.98 C192.758,1802.38 189.782,1803.7 187.662,1805.94 C185.542,1808.19 184.482,1810.74 184.482,1813.61 C184.482,1818.56 187.123,1822.56 192.404,1825.62 C192.852,1825.88 193.076,1826.32 193.076,1826.94 C193.076,1827.56 192.865,1828.1 192.443,1828.55 C192.021,1829.01 191.649,1829.23 191.326,1829.23 C191.003,1829.23 190.581,1829.17 190.06,1829.05 C182.435,1824.88 178.623,1818.59 178.623,1810.19 C178.623,1806.22 180.024,1802.41 182.826,1798.76 C185.753,1795.12 189.56,1792.78 194.248,1791.73 C192.425,1784.44 190.93,1778.74 189.764,1774.64 C180.847,1784.67 175.31,1792.09 173.154,1796.91 C170.363,1803.16 168.967,1808.85 168.967,1814 M201.576,1714.69 C196.691,1717.09 192.834,1720.57 190.006,1725.13 C187.178,1729.69 185.764,1734.47 185.764,1739.48 C185.764,1744.49 186.935,1750.97 189.279,1758.92 C193.967,1753.25 197.514,1747.95 199.92,1743 C202.326,1738.05 203.529,1733.15 203.529,1728.3 C203.529,1723.45 202.878,1718.92 201.576,1714.69"/>
<path class="Clef" d="M203.623,1373.86 L203.623,1371.72 C203.56,1370.61 203.399,1368.89 203.139,1366.55 C199.889,1367.07 196.993,1367.33 194.451,1367.33 C185.337,1367.33 177.605,1363.73 171.256,1356.53 C164.907,1349.33 161.732,1340.75 161.732,1330.8 C161.732,1328.13 162.253,1324.92 163.295,1321.18 C164.337,1317.43 165.297,1314.93 166.178,1313.65 C167.058,1312.38 168.378,1310.15 170.139,1306.97 C170.659,1305.99 172.352,1303.84 175.217,1300.51 C175.738,1299.81 176.193,1299.22 176.584,1298.76 C176.975,1298.31 177.607,1297.49 178.482,1296.32 C179.357,1295.15 180.3,1294.06 181.31,1293.05 C182.321,1292.04 183.217,1291.06 183.998,1290.12 C184.779,1289.17 185.498,1288.38 186.154,1287.73 C183.81,1279.98 182.378,1274.02 181.857,1269.86 C181.337,1265.69 181.076,1260.58 181.076,1254.52 C181.076,1248.46 182.378,1242.96 184.982,1238.01 C187.514,1232.88 191.06,1228.68 195.623,1225.42 C195.883,1225.22 196.225,1225.12 196.646,1225.12 C197.068,1225.12 197.378,1225.22 197.576,1225.42 C201.087,1229.65 204.128,1235.15 206.701,1241.92 C209.274,1248.69 210.56,1255.02 210.56,1260.92 C210.56,1266.82 209.066,1272.5 206.076,1277.97 C202.691,1283.76 198.326,1289.75 192.982,1295.94 C194.347,1300.23 196.17,1306.96 198.451,1316.14 L199.045,1316.14 C199.305,1316.08 199.529,1316.05 199.717,1316.05 C207.081,1316.05 213.089,1318.63 217.74,1323.81 C222.391,1328.99 224.717,1334.96 224.717,1341.73 C224.717,1350.13 221.238,1356.9 214.279,1362.05 C212.258,1363.55 209.878,1364.72 207.139,1365.56 C207.472,1369.79 207.639,1372.61 207.639,1374.01 C207.639,1375.41 207.571,1377.9 207.435,1381.48 C207.373,1387.6 205.29,1392.84 201.185,1397.2 C197.081,1401.57 192.394,1403.75 187.123,1403.75 C181.852,1403.75 177.36,1401.88 173.646,1398.13 C169.933,1394.39 168.076,1389.85 168.076,1384.51 C168.076,1381.71 169.154,1379.33 171.31,1377.37 C173.519,1375.43 176.006,1374.45 178.771,1374.45 C181.537,1374.45 183.8,1375.46 185.56,1377.48 C187.383,1379.37 188.295,1381.64 188.295,1384.31 C188.295,1386.98 187.383,1389.22 185.56,1391.05 C183.738,1392.87 181.555,1393.78 179.014,1393.78 C177.972,1393.78 176.967,1393.59 175.998,1393.2 C178.863,1397.43 182.54,1399.55 187.029,1399.55 C191.519,1399.55 195.36,1397.69 198.553,1393.98 C201.745,1390.27 203.342,1385.91 203.342,1380.89 L203.623,1373.86 M206.748,1361.56 C210.133,1360.32 212.821,1358.12 214.81,1354.97 C216.8,1351.81 217.795,1348.67 217.795,1345.55 C217.795,1340.92 216.199,1336.79 213.006,1333.14 C209.813,1329.49 205.774,1327.44 200.889,1326.98 C203.691,1340.72 205.644,1352.25 206.748,1361.56 M168.967,1339 C168.967,1345.45 171.537,1351.08 176.678,1355.9 C181.818,1360.71 187.842,1363.12 194.748,1363.12 C197.477,1363.12 200.144,1362.93 202.748,1362.53 C201.706,1352.63 199.654,1340.79 196.592,1326.98 C192.758,1327.38 189.782,1328.7 187.662,1330.94 C185.542,1333.19 184.482,1335.74 184.482,1338.61 C184.482,1343.56 187.123,1347.56 192.404,1350.62 C192.852,1350.88 193.076,1351.32 193.076,1351.94 C193.076,1352.56 192.865,1353.1 192.443,1353.55 C192.021,1354.01 191.649,1354.23 191.326,1354.23 C191.003,1354.23 190.581,1354.17 190.06,1354.05 C182.435,1349.88 178.623,1343.59 178.623,1335.19 C178.623,1331.22 180.024,1327.41 182.826,1323.76 C185.753,1320.12 189.56,1317.77 194.248,1316.73 C192.425,1309.44 190.93,1303.74 189.764,1299.64 C180.847,1309.67 175.31,1317.09 173.154,1321.9 C170.363,1328.15 168.967,1333.85 168.967,1339 M201.576,1239.69 C196.691,1242.09 192.834,1245.57 190.006,1250.13 C187.178,1254.69 185.764,1259.47 185.764,1264.48 C185.764,1269.49 186.935,1275.97 189.279,1283.92 C193.967,1278.25 197.514,1272.95 199.92,1268 C202.326,1263.05 203.529,1258.15 203.529,1253.3 C203.529,1248.45 202.878,1243.92 201.576,1239.69"/>
<path class="Clef" d="M203.623,898.858 L203.623,896.717 C203.56,895.613 203.399,893.889 203.139,891.545 C199.889,892.066 196.993,892.327 194.451,892.327 C185.337,892.327 177.605,888.728 171.256,881.53 C164.907,874.332 161.732,865.754 161.732,855.795 C161.732,853.129 162.253,849.923 163.295,846.178 C164.337,842.433 165.297,839.926 166.178,838.655 C167.058,837.384 168.378,835.155 170.139,831.967 C170.659,830.988 172.352,828.837 175.217,825.514 C175.738,824.806 176.193,824.222 176.584,823.764 C176.975,823.306 177.607,822.491 178.482,821.319 C179.357,820.147 180.3,819.056 181.31,818.045 C182.321,817.035 183.217,816.058 183.998,815.116 C184.779,814.173 185.498,813.379 186.154,812.733 C183.81,804.983 182.378,799.024 181.857,794.858 C181.337,790.691 181.076,785.579 181.076,779.522 C181.076,773.465 182.378,767.962 184.982,763.014 C187.514,757.879 191.06,753.681 195.623,750.42 C195.883,750.222 196.225,750.123 196.646,750.123 C197.068,750.123 197.378,750.222 197.576,750.42 C201.087,754.649 204.128,760.149 206.701,766.92 C209.274,773.691 210.56,780.024 210.56,785.92 C210.56,791.816 209.066,797.498 206.076,802.967 C202.691,808.759 198.326,814.748 192.982,820.936 C194.347,825.228 196.17,831.962 198.451,841.139 L199.045,841.139 C199.305,841.077 199.529,841.045 199.717,841.045 C207.081,841.045 213.089,843.634 217.74,848.811 C222.391,853.988 224.717,859.962 224.717,866.733 C224.717,875.129 221.238,881.899 214.279,887.045 C212.258,888.545 209.878,889.717 207.139,890.561 C207.472,894.79 207.639,897.605 207.639,899.006 C207.639,900.407 207.571,902.899 207.435,906.483 C207.373,912.597 205.29,917.837 201.185,922.202 C197.081,926.566 192.394,928.748 187.123,928.748 C181.852,928.748 177.36,926.876 173.646,923.131 C169.933,919.386 168.076,914.847 168.076,909.514 C168.076,906.712 169.154,904.332 171.31,902.373 C173.519,900.426 176.006,899.452 178.771,899.452 C181.537,899.452 183.8,900.462 185.56,902.483 C187.383,904.368 188.295,906.644 188.295,909.311 C188.295,911.978 187.383,914.222 185.56,916.045 C183.738,917.868 181.555,918.78 179.014,918.78 C177.972,918.78 176.967,918.587 175.998,918.202 C178.863,922.431 182.54,924.545 187.029,924.545 C191.519,924.545 195.36,922.691 198.553,918.983 C201.745,915.274 203.342,910.91 203.342,905.889 L203.623,898.858 M206.748,886.561 C210.133,885.321 212.821,883.123 214.81,879.967 C216.8,876.811 217.795,873.67 217.795,870.545 C217.795,865.92 216.199,861.785 213.006,858.139 C209.813,854.493 205.774,852.441 200.889,851.983 C203.691,865.722 205.644,877.248 206.748,886.561 M168.967,863.998 C168.967,870.446 171.537,876.079 176.678,880.897 C181.818,885.715 187.842,888.123 194.748,888.123 C197.477,888.123 200.144,887.926 202.748,887.53 C201.706,877.634 199.654,865.785 196.592,851.983 C192.758,852.379 189.782,853.699 187.662,855.944 C185.542,858.189 184.482,860.743 184.482,863.608 C184.482,868.556 187.123,872.561 192.404,875.623 C192.852,875.884 193.076,876.324 193.076,876.944 C193.076,877.564 192.865,878.1 192.443,878.553 C192.021,879.006 191.649,879.233 191.326,879.233 C191.003,879.233 190.581,879.17 190.06,879.045 C182.435,874.879 178.623,868.592 178.623,860.186 C178.623,856.217 180.024,852.41 182.826,848.764 C185.753,845.118 189.56,842.774 194.248,841.733 C192.425,834.441 190.93,828.743 189.764,824.639 C180.847,834.67 175.31,842.092 173.154,846.905 C170.363,853.155 168.967,858.853 168.967,863.998 M201.576,764.686 C196.691,767.092 192.834,770.574 190.006,775.131 C187.178,779.689 185.764,784.472 185.764,789.483 C185.764,794.493 186.935,800.972 189.279,808.92 C193.967,803.254 197.514,797.946 199.92,792.998 C202.326,788.051 203.529,783.152 203.529,778.303 C203.529,773.454 202.878,768.915 201.576,764.686"/>
<path class="TimeSig" d="M273.021,317.912 C274.516,317.912 275.949,317.686 277.318,317.232 C278.688,316.779 279.665,316.553 280.248,316.553 C280.831,316.553 281.222,316.907 281.42,317.615 C281.42,317.688 281.352,317.886 281.217,318.209 L252.811,351.225 L269.498,351.225 L269.498,338.131 C269.498,336.506 270.446,335.334 272.342,334.615 C274.29,333.897 276.503,331.001 278.982,325.928 C279.17,325.532 279.462,325.334 279.857,325.334 C280.639,325.334 281.092,325.792 281.217,326.709 L281.217,351.225 L288.357,351.225 C289.264,351.225 289.751,351.712 289.818,352.686 C289.886,353.66 289.399,354.147 288.357,354.147 L281.217,354.147 L281.217,354.928 C281.217,357.532 281.868,359.746 283.17,361.568 C284.67,363.391 286.43,364.303 288.451,364.303 C289.232,364.303 289.623,364.693 289.623,365.475 C289.623,366.256 289.087,366.647 288.014,366.647 C286.941,366.647 284.938,366.436 282.006,366.014 C279.074,365.592 276.811,365.381 275.217,365.381 C273.623,365.381 271.41,365.592 268.576,366.014 C265.743,366.436 263.613,366.647 262.186,366.647 C261.404,366.647 261.014,366.256 261.014,365.475 C261.014,364.693 261.404,364.303 262.186,364.303 C264.196,364.303 265.951,363.391 267.451,361.568 C268.816,359.683 269.498,357.469 269.498,354.928 L269.498,354.147 L252.811,354.147 C251.956,354.147 251.219,353.92 250.6,353.467 C249.98,353.014 249.67,352.592 249.67,352.201 C249.67,351.811 250.485,350.639 252.115,348.686 C253.745,346.732 256.074,342.972 259.1,337.404 C262.126,331.837 263.639,325.438 263.639,318.209 C263.639,317.167 264.097,316.647 265.014,316.647 C265.212,316.647 265.521,316.712 265.943,316.842 C266.365,316.972 267.277,317.183 268.678,317.475 C270.079,317.766 271.527,317.912 273.021,317.912"/>
<path class="TimeSig" d="M273.021,368.084 C274.516,368.084 275.949,367.858 277.318,367.404 C278.688,366.951 279.665,366.725 280.248,366.725 C280.831,366.725 281.222,367.079 281.42,367.787 C281.42,367.86 281.352,368.058 281.217,368.381 L252.811,401.397 L269.498,401.397 L269.498,388.303 C269.498,386.678 270.446,385.506 272.342,384.787 C274.29,384.068 276.503,381.173 278.982,376.1 C279.17,375.704 279.462,375.506 279.857,375.506 C280.639,375.506 281.092,375.964 281.217,376.881 L281.217,401.397 L288.357,401.397 C289.264,401.397 289.751,401.884 289.818,402.858 C289.886,403.831 289.399,404.318 288.357,404.318 L281.217,404.318 L281.217,405.1 C281.217,407.704 281.868,409.917 283.17,411.74 C284.67,413.563 286.43,414.475 288.451,414.475 C289.232,414.475 289.623,414.865 289.623,415.647 C289.623,416.428 289.087,416.818 288.014,416.818 C286.941,416.818 284.938,416.608 282.006,416.186 C279.074,415.764 276.811,415.553 275.217,415.553 C273.623,415.553 271.41,415.764 268.576,416.186 C265.743,416.608 263.613,416.818 262.186,416.818 C261.404,416.818 261.014,416.428 261.014,415.647 C261.014,414.865 261.404,414.475 262.186,414.475 C264.196,414.475 265.951,413.563 267.451,411.74 C268.816,409.855 269.498,407.641 269.498,405.1 L269.498,404.318 L252.811,404.318 C251.956,404.318 251.219,404.092 250.6,403.639 C249.98,403.186 249.67,402.764 249.67,402.373 C249.67,401.983 250.485,400.811 252.115,398.858 C253.745,396.904 256.074,393.144 259.1,387.576 C262.126,382.009 263.639,375.61 263.639,368.381 C263.639,367.339 264.097,366.818 265.014,366.818 C265.212,366.818 265.521,366.884 265.943,367.014 C266.365,367.144 267.277,367.355 268.678,367.647 C270.079,367.938 271.527,368.084 273.021,368.084"/>
<path class="Beam" fill-rule="evenodd" d="M1433.16,885.483 L1525.76,885.483 L1525.76,897.983 L1433.16,897.983 L1433.16,885.483 "/>
<path class="Beam" fill-rule="evenodd" d="M2652.76,879.219 L2745.36,885.469 L2745.36,897.997 L2652.76,891.747 L2652.76,879.219 "/>
<path class="Beam" fill-rule="evenodd" d="M941.711,904.233 L1213.02,904.233 L1213.02,916.733 L941.711,916.733 L941.711,904.233 "/>
<path class="Beam" fill-rule="evenodd" d="M287.232,897.981 L558.545,904.231 L558.545,916.735 L287.232,910.485 L287.232,897.981 "/>
<path class="Beam" fill-rule="evenodd" d="M1947.5,410.472 L2057.62,416.722 L2057.62,429.243 L1947.5,422.993 L1947.5,410.472 "/>
<path class="Beam" fill-rule="evenodd" d="M1573.45,379.222 L1683.57,385.472 L1683.57,397.993 L1573.45,391.743 L1573.45,379.222 "/>
<path class="Beam" fill-rule="evenodd" d="M956.663,416.733 L1280.53,416.733 L1280.53,429.233 L956.663,429.233 L956.663,416.733 "/>
<path class="Beam" fill-rule="evenodd" d="M742.921,416.722 L853.042,410.472 L853.042,422.993 L742.921,429.243 L742.921,416.722 "/>
<path class="Beam" fill-rule="evenodd" d="M369.537,310.482 L479.658,310.482 L479.658,322.982 L369.537,322.982 L369.537,310.482 "/>
<path class="Beam" fill-rule="evenodd" d="M2632.77,1829.22 L2735.37,1835.47 L2735.37,1848 L2632.77,1841.75 L2632.77,1829.22 "/>
<path class="Beam" fill-rule="evenodd" d="M2340.02,885.483 L2432.63,885.483 L2432.63,897.983 L2340.02,897.983 L2340.02,885.483 "/>
<path class="Beam" fill-rule="evenodd" d="M438.839,1366.73 L543.16,1366.73 L543.16,1379.23 L438.839,1379.23 L438.839,1366.73 "/>
<path class="Beam" fill-rule="evenodd" d="M1447.96,1354.23 L1754.43,1360.48 L1754.43,1372.98 L1447.96,1366.73 L1447.96,1354.23 "/>
<path class="Beam" fill-rule="evenodd" d="M2326.11,1341.72 L2430.43,1335.47 L2430.43,1347.99 L2326.11,1354.24 L2326.11,1341.72 "/>
<path class="Beam" fill-rule="evenodd" d="M1957.98,1810.47 L2060.58,1816.72 L2060.58,1829.25 L1957.98,1823 L1957.98,1810.47 "/>
<path class="Beam" fill-rule="evenodd" d="M393.759,1835.47 L496.361,1829.22 L496.361,1841.75 L393.759,1848 L393.759,1835.47 "/>
<path class="Beam" fill-rule="evenodd" d="M1610.25,1816.72 L1712.85,1810.47 L1712.85,1823 L1610.25,1829.25 L1610.25,1816.72 "/>
<path class="NoteDot" d="M1187.29,1783.24 C1186.18,1782.13 1185.62,1780.8 1185.62,1779.23 C1185.62,1777.67 1186.18,1776.33 1187.29,1775.23 C1188.4,1774.12 1189.73,1773.56 1191.29,1773.56 C1192.86,1773.56 1194.19,1774.12 1195.29,1775.23 C1196.4,1776.33 1196.95,1777.67 1196.95,1779.23 C1196.95,1780.8 1196.4,1782.13 1195.29,1783.24 C1194.19,1784.35 1192.86,1784.91 1191.29,1784.91 C1189.73,1784.91 1188.4,1784.35 1187.29,1783.24"/>
<path class="NoteDot" d="M1169.03,1283.24 C1167.92,1282.13 1167.37,1280.8 1167.37,1279.23 C1167.37,1277.67 1167.92,1276.33 1169.03,1275.23 C1170.14,1274.12 1171.48,1273.56 1173.04,1273.56 C1174.6,1273.56 1175.94,1274.12 1177.04,1275.23 C1178.14,1276.33 1178.7,1277.67 1178.7,1279.23 C1178.7,1280.8 1178.14,1282.13 1177.04,1283.24 C1175.94,1284.35 1174.6,1284.9 1173.04,1284.9 C1171.48,1284.9 1170.14,1284.35 1169.03,1283.24"/>
<path class="NoteDot" d="M1895.58,1308.24 C1894.47,1307.13 1893.91,1305.8 1893.91,1304.23 C1893.91,1302.67 1894.47,1301.33 1895.58,1300.23 C1896.68,1299.12 1898.02,1298.56 1899.58,1298.56 C1901.15,1298.56 1902.48,1299.12 1903.58,1300.23 C1904.69,1301.33 1905.24,1302.67 1905.24,1304.23 C1905.24,1305.8 1904.69,1307.13 1903.58,1308.24 C1902.48,1309.35 1901.15,1309.9 1899.58,1309.9 C1898.02,1309.9 1896.68,1309.35 1895.58,1308.24"/>
</svg>
