<?xml version="1.0" encoding="UTF-8" standalone="no"?>
<svg width="2977.2px" height="4208.4px" viewBox="0 0 2977.2 4208.4"
 xmlns="http://www.w3.org/2000/svg" xmlns:xlink="http://www.w3.org/1999/xlink" version="1.2" baseProfile="tiny">
<title>C_Major_Scale_Patterns_22.mscx</title>
<desc>Generated by MuseScore Studio 4.3.1</desc>
<path class="" fill="#ffffff" fill-rule="evenodd" d="M0,0 L2977.2,0 L2977.2,4208.4 L0,4208.4 L0,0 "/>
<polyline class="StaffLines" fill="none" stroke="#000000" stroke-width="2.00" stroke-linejoin="bevel" points="141.732,566.733 2835.47,566.733"/>
<polyline class="StaffLines" fill="none" stroke="#000000" stroke-width="2.00" stroke-linejoin="bevel" points="141.732,591.733 2835.47,591.733"/>
<polyline class="StaffLines" fill="none" stroke="#000000" stroke-width="2.00" stroke-linejoin="bevel" points="141.732,616.733 2835.47,616.733"/>
<polyline class="StaffLines" fill="none" stroke="#000000" stroke-width="2.00" stroke-linejoin="bevel" points="141.732,641.733 2835.47,641.733"/>
<polyline class="StaffLines" fill="none" stroke="#000000" stroke-width="2.00" stroke-linejoin="bevel" points="141.732,666.733 2835.47,666.733"/>
<polyline class="BarLine" fill="none" stroke="#000000" stroke-width="4.00" stroke-linejoin="bevel" points="2802.72,565.733 2802.72,667.733"/>
<polyline class="BarLine" fill="none" stroke="#000000" stroke-width="12.50" stroke-linejoin="bevel" points="2829.22,565.733 2829.22,667.733"/>
<polyline class="BarLine" fill="none" stroke="#000000" stroke-width="4.00" stroke-linejoin="bevel" points="1923.46,565.733 1923.46,667.733"/>
<polyline class="BarLine" fill="none" stroke="#000000" stroke-width="4.00" stroke-linejoin="bevel" points="1663.47,565.733 1663.47,667.733"/>
<polyline class="BarLine" fill="none" stroke="#000000" stroke-width="4.00" stroke-linejoin="bevel" points="2363.09,565.733 2363.09,667.733"/>
<polyline class="BarLine" fill="none" stroke="#000000" stroke-width="4.00" stroke-linejoin="bevel" points="649.847,565.733 649.847,667.733"/>
<polyline class="BarLine" fill="none" stroke="#000000" stroke-width="4.00" stroke-linejoin="bevel" points="1325.6,565.733 1325.6,667.733"/>
<polyline class="BarLine" fill="none" stroke="#000000" stroke-width="4.00" stroke-linejoin="bevel" points="987.723,565.733 987.723,667.733"/>
<polyline class="LedgerLine" fill="none" stroke="#000000" stroke-width="4.00" stroke-linejoin="bevel" points="1497.09,516.733 1550.8,516.733"/>
<polyline class="LedgerLine" fill="none" stroke="#000000" stroke-width="4.00" stroke-linejoin="bevel" points="2146.27,541.733 2198.19,541.733"/>
<polyline class="LedgerLine" fill="none" stroke="#000000" stroke-width="4.00" stroke-linejoin="bevel" points="2043.61,541.733 2095.53,541.733"/>
<polyline class="LedgerLine" fill="none" stroke="#000000" stroke-width="4.00" stroke-linejoin="bevel" points="1940.96,516.733 1992.87,516.733"/>
<polyline class="LedgerLine" fill="none" stroke="#000000" stroke-width="4.00" stroke-linejoin="bevel" points="1940.96,541.733 1992.87,541.733"/>
<polyline class="LedgerLine" fill="none" stroke="#000000" stroke-width="4.00" stroke-linejoin="bevel" points="1497.09,541.733 1550.8,541.733"/>
<polyline class="LedgerLine" fill="none" stroke="#000000" stroke-width="4.00" stroke-linejoin="bevel" points="1343.1,541.733 1396.82,541.733"/>
<polyline class="LedgerLine" fill="none" stroke="#000000" stroke-width="4.00" stroke-linejoin="bevel" points="1159.21,541.733 1212.93,541.733"/>
<polyline class="Stem" fill="none" stroke="#000000" stroke-width="3.25" stroke-linejoin="bevel" points="2494.37,585.102 2494.37,666.733"/>
<polyline class="Stem" fill="none" stroke="#000000" stroke-width="3.25" stroke-linejoin="bevel" points="2391.71,572.602 2391.71,654.233"/>
<polyline class="Stem" fill="none" stroke="#000000" stroke-width="3.25" stroke-linejoin="bevel" points="2157.4,547.602 2157.4,629.233"/>
<polyline class="Stem" fill="none" stroke="#000000" stroke-width="3.25" stroke-linejoin="bevel" points="2054.74,535.102 2054.74,616.733"/>
<polyline class="Stem" fill="none" stroke="#000000" stroke-width="3.25" stroke-linejoin="bevel" points="2260.05,560.102 2260.05,641.733"/>
<polyline class="Stem" fill="none" stroke="#000000" stroke-width="3.25" stroke-linejoin="bevel" points="678.472,584.133 678.472,666.733"/>
<polyline class="Stem" fill="none" stroke="#000000" stroke-width="3.25" stroke-linejoin="bevel" points="1016.35,559.133 1016.35,641.733"/>
<polyline class="Stem" fill="none" stroke="#000000" stroke-width="3.25" stroke-linejoin="bevel" points="1952.08,522.602 1952.08,616.733"/>
<polyline class="Stem" fill="none" stroke="#000000" stroke-width="3.25" stroke-linejoin="bevel" points="2699.69,610.102 2699.69,685.483"/>
<polyline class="Stem" fill="none" stroke="#000000" stroke-width="3.25" stroke-linejoin="bevel" points="340.596,609.133 340.596,685.483"/>
<polyline class="Stem" fill="none" stroke="#000000" stroke-width="3.25" stroke-linejoin="bevel" points="832.459,571.633 832.459,654.233"/>
<polyline class="Stem" fill="none" stroke="#000000" stroke-width="3.25" stroke-linejoin="bevel" points="1508.21,521.633 1508.21,616.733"/>
<polyline class="Stem" fill="none" stroke="#000000" stroke-width="3.25" stroke-linejoin="bevel" points="494.583,596.633 494.583,679.233"/>
<polyline class="Stem" fill="none" stroke="#000000" stroke-width="3.25" stroke-linejoin="bevel" points="1170.33,546.633 1170.33,629.233"/>
<polyline class="Stem" fill="none" stroke="#000000" stroke-width="3.25" stroke-linejoin="bevel" points="1354.22,534.133 1354.22,616.733"/>
<polyline class="Stem" fill="none" stroke="#000000" stroke-width="3.25" stroke-linejoin="bevel" points="2597.03,597.602 2597.03,679.233"/>
<path class="Note" d="M2617.37,577.967 C2620.5,577.967 2623.1,578.748 2625.18,580.311 C2627.27,581.873 2628.31,584.118 2628.31,587.045 C2628.31,591.535 2625.98,595.733 2621.33,599.639 C2616.68,603.545 2611.68,605.498 2606.34,605.498 C2603.22,605.498 2600.58,604.686 2598.43,603.061 C2596.41,601.3 2595.4,599.087 2595.4,596.42 C2595.4,592.056 2597.72,587.889 2602.34,583.92 C2606.97,579.951 2611.98,577.967 2617.37,577.967"/>
<path class="Note" d="M2280.4,540.467 C2283.52,540.467 2286.13,541.248 2288.21,542.811 C2290.29,544.373 2291.34,546.618 2291.34,549.545 C2291.34,554.035 2289.01,558.233 2284.36,562.139 C2279.71,566.045 2274.71,567.998 2269.37,567.998 C2266.24,567.998 2263.61,567.186 2261.46,565.561 C2259.44,563.8 2258.43,561.587 2258.43,558.92 C2258.43,554.556 2260.74,550.389 2265.37,546.42 C2269.99,542.451 2275,540.467 2280.4,540.467"/>
<path class="Note" d="M2720.03,590.467 C2723.15,590.467 2725.76,591.248 2727.84,592.811 C2729.93,594.373 2730.97,596.618 2730.97,599.545 C2730.97,604.035 2728.64,608.233 2723.99,612.139 C2719.34,616.045 2714.34,617.998 2709,617.998 C2705.87,617.998 2703.24,617.186 2701.09,615.561 C2699.07,613.8 2698.06,611.587 2698.06,608.92 C2698.06,604.556 2700.37,600.389 2705,596.42 C2709.62,592.451 2714.63,590.467 2720.03,590.467"/>
<path class="Note" d="M1514.01,527.373 C1515.89,527.373 1519.85,525.42 1525.87,521.514 C1531.9,517.608 1535.45,514.988 1536.52,513.654 C1537.6,512.321 1538.13,511.134 1538.13,510.092 C1538.13,509.05 1537.71,508.123 1536.86,507.311 C1536.01,506.498 1535.03,506.092 1533.93,506.092 C1531.98,506.092 1527.99,508.061 1521.97,511.998 C1515.94,515.936 1512.41,518.556 1511.37,519.858 C1510.33,521.16 1509.8,522.332 1509.8,523.373 C1509.8,524.415 1510.21,525.342 1511.03,526.154 C1511.85,526.967 1512.84,527.373 1514.01,527.373 M1532.96,502.967 C1538.55,502.967 1541.35,505.373 1541.35,510.186 C1541.35,512.529 1540.67,515.248 1539.3,518.342 C1537.94,521.436 1536.12,523.795 1533.84,525.42 C1528.83,528.806 1522.54,530.498 1514.99,530.498 C1509.39,530.498 1506.59,528.092 1506.59,523.279 C1506.59,521.134 1507.25,518.464 1508.59,515.272 C1509.92,512.079 1511.76,509.67 1514.1,508.045 C1519.12,504.66 1525.41,502.967 1532.96,502.967"/>
<path class="Note" d="M2412.06,552.967 C2415.18,552.967 2417.78,553.748 2419.87,555.311 C2421.95,556.873 2422.99,559.118 2422.99,562.045 C2422.99,566.535 2420.67,570.733 2416.02,574.639 C2411.37,578.545 2406.37,580.498 2401.02,580.498 C2397.9,580.498 2395.26,579.686 2393.12,578.061 C2391.1,576.3 2390.09,574.087 2390.09,571.42 C2390.09,567.056 2392.4,562.889 2397.02,558.92 C2401.65,554.951 2406.66,552.967 2412.06,552.967"/>
<path class="Note" d="M2514.71,565.467 C2517.84,565.467 2520.44,566.248 2522.53,567.811 C2524.61,569.373 2525.65,571.618 2525.65,574.545 C2525.65,579.035 2523.33,583.233 2518.67,587.139 C2514.02,591.045 2509.03,592.998 2503.68,592.998 C2500.56,592.998 2497.92,592.186 2495.78,590.561 C2493.76,588.8 2492.74,586.587 2492.74,583.92 C2492.74,579.556 2495.06,575.389 2499.68,571.42 C2504.31,567.451 2509.32,565.467 2514.71,565.467"/>
<path class="Note" d="M2177.74,527.967 C2180.86,527.967 2183.47,528.748 2185.55,530.311 C2187.64,531.873 2188.68,534.118 2188.68,537.045 C2188.68,541.535 2186.35,545.733 2181.7,549.639 C2177.05,553.545 2172.05,555.498 2166.71,555.498 C2163.58,555.498 2160.95,554.686 2158.8,553.061 C2156.78,551.3 2155.77,549.087 2155.77,546.42 C2155.77,542.056 2158.08,537.889 2162.71,533.92 C2167.33,529.951 2172.34,527.967 2177.74,527.967"/>
<path class="Note" d="M2075.08,515.467 C2078.21,515.467 2080.81,516.248 2082.89,517.811 C2084.98,519.373 2086.02,521.618 2086.02,524.545 C2086.02,529.035 2083.69,533.233 2079.04,537.139 C2074.39,541.045 2069.39,542.998 2064.05,542.998 C2060.93,542.998 2058.29,542.186 2056.14,540.561 C2054.12,538.8 2053.11,536.587 2053.11,533.92 C2053.11,529.556 2055.43,525.389 2060.05,521.42 C2064.68,517.451 2069.69,515.467 2075.08,515.467"/>
<path class="Note" d="M1972.42,502.967 C1975.55,502.967 1978.15,503.748 1980.24,505.311 C1982.32,506.873 1983.36,509.118 1983.36,512.045 C1983.36,516.535 1981.04,520.733 1976.38,524.639 C1971.73,528.545 1966.74,530.498 1961.39,530.498 C1958.27,530.498 1955.63,529.686 1953.49,528.061 C1951.47,526.3 1950.46,524.087 1950.46,521.42 C1950.46,517.056 1952.77,512.889 1957.39,508.92 C1962.02,504.951 1967.03,502.967 1972.42,502.967"/>
<path class="Note" d="M1360.02,539.873 C1361.91,539.873 1365.86,537.92 1371.89,534.014 C1377.91,530.108 1381.46,527.488 1382.54,526.154 C1383.61,524.821 1384.15,523.634 1384.15,522.592 C1384.15,521.55 1383.72,520.623 1382.87,519.811 C1382.02,518.998 1381.05,518.592 1379.94,518.592 C1377.99,518.592 1374.01,520.561 1367.98,524.498 C1361.96,528.436 1358.42,531.056 1357.38,532.358 C1356.34,533.66 1355.82,534.832 1355.82,535.873 C1355.82,536.915 1356.23,537.842 1357.04,538.654 C1357.86,539.467 1358.85,539.873 1360.02,539.873 M1378.97,515.467 C1384.57,515.467 1387.36,517.873 1387.36,522.686 C1387.36,525.029 1386.68,527.748 1385.32,530.842 C1383.95,533.936 1382.13,536.295 1379.85,537.92 C1374.84,541.306 1368.56,542.998 1361.01,542.998 C1355.4,542.998 1352.6,540.592 1352.6,535.779 C1352.6,533.634 1353.27,530.964 1354.6,527.772 C1355.93,524.579 1357.77,522.17 1360.11,520.545 C1365.14,517.16 1371.42,515.467 1378.97,515.467"/>
<path class="Note" d="M1176.13,552.373 C1178.02,552.373 1181.97,550.42 1188,546.514 C1194.02,542.608 1197.57,539.988 1198.65,538.654 C1199.72,537.321 1200.26,536.134 1200.26,535.092 C1200.26,534.05 1199.83,533.123 1198.98,532.311 C1198.13,531.498 1197.16,531.092 1196.05,531.092 C1194.11,531.092 1190.12,533.061 1184.09,536.998 C1178.07,540.936 1174.53,543.556 1173.49,544.858 C1172.45,546.16 1171.93,547.332 1171.93,548.373 C1171.93,549.415 1172.34,550.342 1173.15,551.154 C1173.97,551.967 1174.96,552.373 1176.13,552.373 M1195.08,527.967 C1200.68,527.967 1203.48,530.373 1203.48,535.186 C1203.48,537.529 1202.79,540.248 1201.43,543.342 C1200.06,546.436 1198.24,548.795 1195.96,550.42 C1190.95,553.806 1184.67,555.498 1177.12,555.498 C1171.51,555.498 1168.71,553.092 1168.71,548.279 C1168.71,546.134 1169.38,543.464 1170.71,540.272 C1172.04,537.079 1173.88,534.67 1176.23,533.045 C1181.25,529.66 1187.53,527.967 1195.08,527.967"/>
<path class="Note" d="M1022.14,564.873 C1024.03,564.873 1027.99,562.92 1034.01,559.014 C1040.04,555.108 1043.59,552.488 1044.66,551.154 C1045.73,549.821 1046.27,548.634 1046.27,547.592 C1046.27,546.55 1045.85,545.623 1045,544.811 C1044.15,543.998 1043.17,543.592 1042.07,543.592 C1040.12,543.592 1036.13,545.561 1030.11,549.498 C1024.08,553.436 1020.55,556.056 1019.5,557.358 C1018.46,558.66 1017.94,559.832 1017.94,560.873 C1017.94,561.915 1018.35,562.842 1019.17,563.654 C1019.99,564.467 1020.98,564.873 1022.14,564.873 M1041.1,540.467 C1046.69,540.467 1049.49,542.873 1049.49,547.686 C1049.49,550.029 1048.81,552.748 1047.44,555.842 C1046.08,558.936 1044.25,561.295 1041.97,562.92 C1036.96,566.306 1030.68,567.998 1023.13,567.998 C1017.52,567.998 1014.72,565.592 1014.72,560.779 C1014.72,558.634 1015.39,555.964 1016.72,552.772 C1018.06,549.579 1019.89,547.17 1022.24,545.545 C1027.26,542.16 1033.55,540.467 1041.1,540.467"/>
<path class="Note" d="M838.256,577.373 C840.141,577.373 844.097,575.42 850.123,571.514 C856.149,567.608 859.698,564.988 860.771,563.655 C861.844,562.321 862.381,561.134 862.381,560.092 C862.381,559.05 861.956,558.123 861.107,557.311 C860.258,556.498 859.282,556.092 858.177,556.092 C856.229,556.092 852.242,558.061 846.216,561.998 C840.19,565.936 836.657,568.556 835.615,569.858 C834.573,571.16 834.052,572.332 834.052,573.373 C834.052,574.415 834.461,575.342 835.279,576.155 C836.097,576.967 837.089,577.373 838.256,577.373 M857.209,552.967 C862.802,552.967 865.599,555.373 865.599,560.186 C865.599,562.53 864.917,565.248 863.552,568.342 C862.188,571.436 860.365,573.795 858.084,575.42 C853.073,578.806 846.792,580.498 839.24,580.498 C833.636,580.498 830.834,578.092 830.834,573.28 C830.834,571.134 831.5,568.464 832.834,565.272 C834.167,562.079 836.006,559.67 838.349,558.045 C843.37,554.66 849.657,552.967 857.209,552.967"/>
<path class="Note" d="M684.269,589.873 C686.154,589.873 690.11,587.92 696.136,584.014 C702.162,580.108 705.711,577.488 706.784,576.155 C707.857,574.821 708.394,573.634 708.394,572.592 C708.394,571.55 707.969,570.623 707.12,569.811 C706.271,568.998 705.295,568.592 704.191,568.592 C702.243,568.592 698.256,570.561 692.23,574.498 C686.204,578.436 682.67,581.056 681.628,582.358 C680.586,583.66 680.066,584.832 680.066,585.873 C680.066,586.915 680.474,587.842 681.292,588.655 C682.11,589.467 683.102,589.873 684.269,589.873 M703.222,565.467 C708.816,565.467 711.612,567.873 711.612,572.686 C711.612,575.03 710.93,577.748 709.566,580.842 C708.201,583.936 706.378,586.295 704.097,587.92 C699.086,591.306 692.805,592.998 685.253,592.998 C679.649,592.998 676.847,590.592 676.847,585.78 C676.847,583.634 677.513,580.964 678.847,577.772 C680.18,574.579 682.019,572.17 684.362,570.545 C689.383,567.16 695.67,565.467 703.222,565.467"/>
<path class="Note" d="M500.379,602.373 C502.265,602.373 506.221,600.42 512.247,596.514 C518.273,592.608 521.822,589.988 522.895,588.655 C523.968,587.321 524.504,586.134 524.504,585.092 C524.504,584.05 524.08,583.123 523.231,582.311 C522.382,581.498 521.406,581.092 520.301,581.092 C518.353,581.092 514.366,583.061 508.34,586.998 C502.314,590.936 498.781,593.556 497.739,594.858 C496.697,596.16 496.176,597.332 496.176,598.373 C496.176,599.415 496.585,600.342 497.403,601.155 C498.221,601.967 499.213,602.373 500.379,602.373 M519.333,577.967 C524.926,577.967 527.723,580.373 527.723,585.186 C527.723,587.53 527.041,590.248 525.676,593.342 C524.312,596.436 522.489,598.795 520.208,600.42 C515.197,603.806 508.916,605.498 501.364,605.498 C495.76,605.498 492.958,603.092 492.958,598.28 C492.958,596.134 493.624,593.464 494.958,590.272 C496.291,587.079 498.129,584.67 500.473,583.045 C505.494,579.66 511.781,577.967 519.333,577.967"/>
<path class="Note" d="M346.393,614.873 C348.278,614.873 352.234,612.92 358.26,609.014 C364.286,605.108 367.835,602.488 368.908,601.155 C369.981,599.821 370.518,598.634 370.518,597.592 C370.518,596.55 370.093,595.623 369.244,594.811 C368.395,593.998 367.419,593.592 366.315,593.592 C364.367,593.592 360.38,595.561 354.354,599.498 C348.328,603.436 344.794,606.056 343.752,607.358 C342.71,608.66 342.19,609.832 342.19,610.873 C342.19,611.915 342.598,612.842 343.416,613.655 C344.234,614.467 345.226,614.873 346.393,614.873 M365.346,590.467 C370.94,590.467 373.736,592.873 373.736,597.686 C373.736,600.03 373.054,602.748 371.69,605.842 C370.325,608.936 368.502,611.295 366.221,612.92 C361.21,616.306 354.929,617.998 347.377,617.998 C341.773,617.998 338.971,615.592 338.971,610.78 C338.971,608.634 339.637,605.964 340.971,602.772 C342.304,599.579 344.143,597.17 346.486,595.545 C351.507,592.16 357.794,590.467 365.346,590.467"/>
<path class="Clef" d="M203.623,673.858 L203.623,671.717 C203.56,670.613 203.399,668.889 203.139,666.545 C199.889,667.066 196.993,667.326 194.451,667.326 C185.337,667.326 177.605,663.727 171.256,656.53 C164.907,649.332 161.732,640.754 161.732,630.795 C161.732,628.129 162.253,624.923 163.295,621.178 C164.337,617.433 165.297,614.925 166.178,613.655 C167.058,612.384 168.378,610.155 170.139,606.967 C170.659,605.988 172.352,603.837 175.217,600.514 C175.738,599.806 176.193,599.222 176.584,598.764 C176.975,598.306 177.607,597.49 178.482,596.319 C179.357,595.147 180.3,594.056 181.31,593.045 C182.321,592.035 183.217,591.058 183.998,590.115 C184.779,589.173 185.498,588.379 186.154,587.733 C183.81,579.983 182.378,574.024 181.857,569.858 C181.337,565.691 181.076,560.579 181.076,554.522 C181.076,548.464 182.378,542.962 184.982,538.014 C187.514,532.879 191.06,528.681 195.623,525.42 C195.883,525.222 196.225,525.123 196.646,525.123 C197.068,525.123 197.378,525.222 197.576,525.42 C201.087,529.649 204.128,535.149 206.701,541.92 C209.274,548.691 210.56,555.024 210.56,560.92 C210.56,566.816 209.066,572.498 206.076,577.967 C202.691,583.759 198.326,589.748 192.982,595.936 C194.347,600.227 196.17,606.962 198.451,616.139 L199.045,616.139 C199.305,616.076 199.529,616.045 199.717,616.045 C207.081,616.045 213.089,618.634 217.74,623.811 C222.391,628.988 224.717,634.962 224.717,641.733 C224.717,650.129 221.238,656.899 214.279,662.045 C212.258,663.545 209.878,664.717 207.139,665.561 C207.472,669.79 207.639,672.605 207.639,674.006 C207.639,675.407 207.571,677.899 207.435,681.483 C207.373,687.597 205.29,692.837 201.185,697.201 C197.081,701.566 192.394,703.748 187.123,703.748 C181.852,703.748 177.36,701.876 173.646,698.131 C169.933,694.386 168.076,689.847 168.076,684.514 C168.076,681.712 169.154,679.332 171.31,677.373 C173.519,675.425 176.006,674.451 178.771,674.451 C181.537,674.451 183.8,675.462 185.56,677.483 C187.383,679.368 188.295,681.644 188.295,684.311 C188.295,686.977 187.383,689.222 185.56,691.045 C183.738,692.868 181.555,693.78 179.014,693.78 C177.972,693.78 176.967,693.587 175.998,693.201 C178.863,697.431 182.54,699.545 187.029,699.545 C191.519,699.545 195.36,697.691 198.553,693.983 C201.745,690.274 203.342,685.91 203.342,680.889 L203.623,673.858 M206.748,661.561 C210.133,660.321 212.821,658.123 214.81,654.967 C216.8,651.811 217.795,648.67 217.795,645.545 C217.795,640.92 216.199,636.785 213.006,633.139 C209.813,629.493 205.774,627.441 200.889,626.983 C203.691,640.722 205.644,652.248 206.748,661.561 M168.967,638.998 C168.967,645.446 171.537,651.079 176.678,655.897 C181.818,660.714 187.842,663.123 194.748,663.123 C197.477,663.123 200.144,662.925 202.748,662.53 C201.706,652.634 199.654,640.785 196.592,626.983 C192.758,627.379 189.782,628.699 187.662,630.944 C185.542,633.188 184.482,635.743 184.482,638.608 C184.482,643.556 187.123,647.561 192.404,650.623 C192.852,650.884 193.076,651.324 193.076,651.944 C193.076,652.563 192.865,653.1 192.443,653.553 C192.021,654.006 191.649,654.233 191.326,654.233 C191.003,654.233 190.581,654.17 190.06,654.045 C182.435,649.879 178.623,643.592 178.623,635.186 C178.623,631.217 180.024,627.41 182.826,623.764 C185.753,620.118 189.56,617.774 194.248,616.733 C192.425,609.441 190.93,603.743 189.764,599.639 C180.847,609.67 175.31,617.092 173.154,621.905 C170.363,628.155 168.967,633.852 168.967,638.998 M201.576,539.686 C196.691,542.092 192.834,545.574 190.006,550.131 C187.178,554.688 185.764,559.472 185.764,564.483 C185.764,569.493 186.935,575.972 189.279,583.92 C193.967,578.254 197.514,572.946 199.92,567.998 C202.326,563.05 203.529,558.152 203.529,553.303 C203.529,548.454 202.878,543.915 201.576,539.686"/>
<path class="TimeSig" d="M273.021,567.912 C274.516,567.912 275.949,567.686 277.318,567.233 C278.688,566.78 279.665,566.553 280.248,566.553 C280.831,566.553 281.222,566.907 281.42,567.615 C281.42,567.688 281.352,567.886 281.217,568.209 L252.811,601.225 L269.498,601.225 L269.498,588.131 C269.498,586.506 270.446,585.334 272.342,584.615 C274.29,583.897 276.503,581.001 278.982,575.928 C279.17,575.532 279.462,575.334 279.857,575.334 C280.639,575.334 281.092,575.793 281.217,576.709 L281.217,601.225 L288.357,601.225 C289.264,601.225 289.751,601.712 289.818,602.686 C289.886,603.66 289.399,604.147 288.357,604.147 L281.217,604.147 L281.217,604.928 C281.217,607.532 281.868,609.746 283.17,611.569 C284.67,613.391 286.43,614.303 288.451,614.303 C289.232,614.303 289.623,614.694 289.623,615.475 C289.623,616.256 289.087,616.647 288.014,616.647 C286.941,616.647 284.938,616.436 282.006,616.014 C279.074,615.592 276.811,615.381 275.217,615.381 C273.623,615.381 271.41,615.592 268.576,616.014 C265.743,616.436 263.613,616.647 262.186,616.647 C261.404,616.647 261.014,616.256 261.014,615.475 C261.014,614.694 261.404,614.303 262.186,614.303 C264.196,614.303 265.951,613.391 267.451,611.569 C268.816,609.683 269.498,607.47 269.498,604.928 L269.498,604.147 L252.811,604.147 C251.956,604.147 251.219,603.92 250.6,603.467 C249.98,603.014 249.67,602.592 249.67,602.201 C249.67,601.811 250.485,600.639 252.115,598.686 C253.745,596.733 256.074,592.972 259.1,587.405 C262.126,581.837 263.639,575.438 263.639,568.209 C263.639,567.168 264.097,566.647 265.014,566.647 C265.212,566.647 265.521,566.712 265.943,566.842 C266.365,566.972 267.277,567.183 268.678,567.475 C270.079,567.766 271.527,567.912 273.021,567.912"/>
<path class="TimeSig" d="M273.021,618.084 C274.516,618.084 275.949,617.858 277.318,617.405 C278.688,616.951 279.665,616.725 280.248,616.725 C280.831,616.725 281.222,617.079 281.42,617.787 C281.42,617.86 281.352,618.058 281.217,618.381 L252.811,651.397 L269.498,651.397 L269.498,638.303 C269.498,636.678 270.446,635.506 272.342,634.787 C274.29,634.069 276.503,631.173 278.982,626.1 C279.17,625.704 279.462,625.506 279.857,625.506 C280.639,625.506 281.092,625.964 281.217,626.881 L281.217,651.397 L288.357,651.397 C289.264,651.397 289.751,651.884 289.818,652.858 C289.886,653.832 289.399,654.319 288.357,654.319 L281.217,654.319 L281.217,655.1 C281.217,657.704 281.868,659.918 283.17,661.74 C284.67,663.563 286.43,664.475 288.451,664.475 C289.232,664.475 289.623,664.865 289.623,665.647 C289.623,666.428 289.087,666.819 288.014,666.819 C286.941,666.819 284.938,666.608 282.006,666.186 C279.074,665.764 276.811,665.553 275.217,665.553 C273.623,665.553 271.41,665.764 268.576,666.186 C265.743,666.608 263.613,666.819 262.186,666.819 C261.404,666.819 261.014,666.428 261.014,665.647 C261.014,664.865 261.404,664.475 262.186,664.475 C264.196,664.475 265.951,663.563 267.451,661.74 C268.816,659.855 269.498,657.642 269.498,655.1 L269.498,654.319 L252.811,654.319 C251.956,654.319 251.219,654.092 250.6,653.639 C249.98,653.186 249.67,652.764 249.67,652.373 C249.67,651.983 250.485,650.811 252.115,648.858 C253.745,646.905 256.074,643.144 259.1,637.576 C262.126,632.009 263.639,625.61 263.639,618.381 C263.639,617.339 264.097,616.819 265.014,616.819 C265.212,616.819 265.521,616.884 265.943,617.014 C266.365,617.144 267.277,617.355 268.678,617.647 C270.079,617.938 271.527,618.084 273.021,618.084"/>
<path class="Rest" d="M1727.01,607.358 L1691.46,607.358 C1690.8,607.358 1690.47,607.035 1690.47,606.389 L1690.47,592.717 C1690.47,592.061 1690.8,591.733 1691.46,591.733 L1727.01,591.733 C1727.65,591.733 1727.97,592.061 1727.97,592.717 L1727.97,606.389 C1727.97,607.035 1727.65,607.358 1727.01,607.358"/>
</svg>
