<?xml version="1.0" encoding="UTF-8" standalone="no"?>
<svg width="2977.2px" height="4208.4px" viewBox="0 0 2977.2 4208.4"
 xmlns="http://www.w3.org/2000/svg" xmlns:xlink="http://www.w3.org/1999/xlink" version="1.2" baseProfile="tiny">
<title>Bb_Maj_Pentatonic.mscx</title>
<desc>Generated by MuseScore Studio 4.3.1</desc>
<path class="" fill="#ffffff" fill-rule="evenodd" d="M0,0 L2977.2,0 L2977.2,4208.4 L0,4208.4 L0,0 "/>
<polyline class="StaffLines" fill="none" stroke="#000000" stroke-width="2.00" stroke-linejoin="bevel" points="141.732,566.733 2835.47,566.733"/>
<polyline class="StaffLines" fill="none" stroke="#000000" stroke-width="2.00" stroke-linejoin="bevel" points="141.732,591.733 2835.47,591.733"/>
<polyline class="StaffLines" fill="none" stroke="#000000" stroke-width="2.00" stroke-linejoin="bevel" points="141.732,616.733 2835.47,616.733"/>
<polyline class="StaffLines" fill="none" stroke="#000000" stroke-width="2.00" stroke-linejoin="bevel" points="141.732,641.733 2835.47,641.733"/>
<polyline class="StaffLines" fill="none" stroke="#000000" stroke-width="2.00" stroke-linejoin="bevel" points="141.732,666.733 2835.47,666.733"/>
<polyline class="BarLine" fill="none" stroke="#000000" stroke-width="4.00" stroke-linejoin="bevel" points="1061.22,565.733 1061.22,667.733"/>
<polyline class="BarLine" fill="none" stroke="#000000" stroke-width="4.00" stroke-linejoin="bevel" points="2547.92,565.733 2547.92,667.733"/>
<polyline class="BarLine" fill="none" stroke="#000000" stroke-width="4.00" stroke-linejoin="bevel" points="1305.5,565.733 1305.5,667.733"/>
<polyline class="BarLine" fill="none" stroke="#000000" stroke-width="4.00" stroke-linejoin="bevel" points="2303.65,565.733 2303.65,667.733"/>
<polyline class="BarLine" fill="none" stroke="#000000" stroke-width="4.00" stroke-linejoin="bevel" points="2059.37,565.733 2059.37,667.733"/>
<polyline class="BarLine" fill="none" stroke="#000000" stroke-width="4.00" stroke-linejoin="bevel" points="1815.09,565.733 1815.09,667.733"/>
<polyline class="BarLine" fill="none" stroke="#000000" stroke-width="4.00" stroke-linejoin="bevel" points="572.667,565.733 572.667,667.733"/>
<polyline class="BarLine" fill="none" stroke="#000000" stroke-width="4.00" stroke-linejoin="bevel" points="816.945,565.733 816.945,667.733"/>
<polyline class="BarLine" fill="none" stroke="#000000" stroke-width="4.00" stroke-linejoin="bevel" points="2802.72,565.733 2802.72,667.733"/>
<polyline class="BarLine" fill="none" stroke="#000000" stroke-width="12.50" stroke-linejoin="bevel" points="2829.22,565.733 2829.22,667.733"/>
<polyline class="BarLine" fill="none" stroke="#000000" stroke-width="4.00" stroke-linejoin="bevel" points="1560.3,565.733 1560.3,667.733"/>
<path class="Accidental" d="M1571.19,634.311 L1569.92,572.201 C1569.92,571.222 1570.69,570.733 1572.22,570.733 C1573.75,570.733 1574.51,571.222 1574.51,572.201 L1573.73,606.092 C1575.49,604.332 1577.01,603.11 1578.27,602.428 C1579.54,601.746 1581.26,601.405 1583.44,601.405 C1585.63,601.405 1587.64,602.412 1589.5,604.428 C1591.35,606.444 1592.28,608.951 1592.28,611.951 C1592.28,616.441 1587.56,622.66 1578.12,630.608 C1574.61,633.795 1572.79,635.389 1572.66,635.389 L1572.08,635.389 C1571.48,635.389 1571.19,635.03 1571.19,634.311 M1573.64,609.217 L1573.34,631.389 C1575.36,629.493 1577.42,626.347 1579.5,621.951 C1581.58,617.556 1582.62,613.795 1582.62,610.67 C1582.62,609.108 1582.36,607.675 1581.84,606.373 C1581.32,605.071 1580.51,604.42 1579.4,604.42 C1578.29,604.42 1577.29,604.811 1576.41,605.592 C1575.53,606.373 1574.61,607.582 1573.64,609.217"/>
<path class="Accidental" d="M2558.82,634.311 L2557.55,572.201 C2557.55,571.222 2558.32,570.733 2559.85,570.733 C2561.38,570.733 2562.14,571.222 2562.14,572.201 L2561.36,606.092 C2563.12,604.332 2564.64,603.11 2565.9,602.428 C2567.17,601.746 2568.89,601.405 2571.07,601.405 C2573.26,601.405 2575.27,602.412 2577.13,604.428 C2578.98,606.444 2579.91,608.951 2579.91,611.951 C2579.91,616.441 2575.19,622.66 2565.75,630.608 C2562.24,633.795 2560.42,635.389 2560.28,635.389 L2559.71,635.389 C2559.11,635.389 2558.82,635.03 2558.82,634.311 M2561.27,609.217 L2560.97,631.389 C2562.99,629.493 2565.04,626.347 2567.13,621.951 C2569.21,617.556 2570.25,613.795 2570.25,610.67 C2570.25,609.108 2569.99,607.675 2569.47,606.373 C2568.95,605.071 2568.14,604.42 2567.03,604.42 C2565.92,604.42 2564.92,604.811 2564.04,605.592 C2563.16,606.373 2562.24,607.582 2561.27,609.217"/>
<path class="Accidental" d="M1316.39,634.311 L1315.13,572.201 C1315.13,571.222 1315.89,570.733 1317.42,570.733 C1318.95,570.733 1319.72,571.222 1319.72,572.201 L1318.94,606.092 C1320.7,604.332 1322.21,603.11 1323.48,602.428 C1324.74,601.746 1326.47,601.405 1328.65,601.405 C1330.83,601.405 1332.85,602.412 1334.7,604.428 C1336.56,606.444 1337.49,608.951 1337.49,611.951 C1337.49,616.441 1332.77,622.66 1323.33,630.608 C1319.82,633.795 1318,635.389 1317.86,635.389 L1317.28,635.389 C1316.69,635.389 1316.39,635.03 1316.39,634.311 M1318.85,609.217 L1318.55,631.389 C1320.57,629.493 1322.62,626.347 1324.7,621.951 C1326.79,617.556 1327.83,613.795 1327.83,610.67 C1327.83,609.108 1327.57,607.675 1327.05,606.373 C1326.53,605.071 1325.71,604.42 1324.6,604.42 C1323.49,604.42 1322.5,604.811 1321.62,605.592 C1320.74,606.373 1319.81,607.582 1318.85,609.217"/>
<path class="Accidental" d="M328.764,634.311 L327.498,572.201 C327.498,571.222 328.264,570.733 329.795,570.733 C331.326,570.733 332.092,571.222 332.092,572.201 L331.311,606.092 C333.071,604.332 334.584,603.11 335.85,602.428 C337.115,601.746 338.839,601.405 341.022,601.405 C343.204,601.405 345.222,602.412 347.076,604.428 C348.93,606.444 349.857,608.951 349.857,611.951 C349.857,616.441 345.139,622.66 335.701,630.608 C332.191,633.795 330.368,635.389 330.232,635.389 L329.654,635.389 C329.061,635.389 328.764,635.03 328.764,634.311 M331.217,609.217 L330.92,631.389 C332.941,629.493 334.993,626.347 337.076,621.951 C339.16,617.556 340.201,613.795 340.201,610.67 C340.201,609.108 339.941,607.675 339.42,606.373 C338.899,605.071 338.084,604.42 336.975,604.42 C335.865,604.42 334.87,604.811 333.99,605.592 C333.11,606.373 332.186,607.582 331.217,609.217"/>
<polyline class="Stem" fill="none" stroke="#000000" stroke-width="3.25" stroke-linejoin="bevel" points="1089.85,596.633 1089.85,679.233"/>
<polyline class="Stem" fill="none" stroke="#000000" stroke-width="3.25" stroke-linejoin="bevel" points="2587.07,621.633 2587.07,691.733"/>
<polyline class="Stem" fill="none" stroke="#000000" stroke-width="3.25" stroke-linejoin="bevel" points="2439.46,609.133 2439.46,685.483"/>
<polyline class="Stem" fill="none" stroke="#000000" stroke-width="3.25" stroke-linejoin="bevel" points="2332.27,596.633 2332.27,679.233"/>
<polyline class="Stem" fill="none" stroke="#000000" stroke-width="3.25" stroke-linejoin="bevel" points="357.014,621.633 357.014,691.733"/>
<polyline class="Stem" fill="none" stroke="#000000" stroke-width="3.25" stroke-linejoin="bevel" points="2195.18,571.633 2195.18,654.233"/>
<polyline class="Stem" fill="none" stroke="#000000" stroke-width="3.25" stroke-linejoin="bevel" points="2087.99,559.133 2087.99,641.733"/>
<polyline class="Stem" fill="none" stroke="#000000" stroke-width="3.25" stroke-linejoin="bevel" points="1950.9,571.633 1950.9,654.233"/>
<polyline class="Stem" fill="none" stroke="#000000" stroke-width="3.25" stroke-linejoin="bevel" points="1843.71,596.633 1843.71,679.233"/>
<polyline class="Stem" fill="none" stroke="#000000" stroke-width="3.25" stroke-linejoin="bevel" points="464.202,609.133 464.202,685.483"/>
<polyline class="Stem" fill="none" stroke="#000000" stroke-width="3.25" stroke-linejoin="bevel" points="1706.62,609.133 1706.62,685.483"/>
<polyline class="Stem" fill="none" stroke="#000000" stroke-width="3.25" stroke-linejoin="bevel" points="601.292,596.633 601.292,679.233"/>
<polyline class="Stem" fill="none" stroke="#000000" stroke-width="3.25" stroke-linejoin="bevel" points="1599.44,621.633 1599.44,691.733"/>
<polyline class="Stem" fill="none" stroke="#000000" stroke-width="3.25" stroke-linejoin="bevel" points="708.48,571.633 708.48,654.233"/>
<polyline class="Stem" fill="none" stroke="#000000" stroke-width="3.25" stroke-linejoin="bevel" points="845.57,559.133 845.57,641.733"/>
<polyline class="Stem" fill="none" stroke="#000000" stroke-width="3.25" stroke-linejoin="bevel" points="1197.04,609.133 1197.04,685.483"/>
<polyline class="Stem" fill="none" stroke="#000000" stroke-width="3.25" stroke-linejoin="bevel" points="1344.64,621.633 1344.64,691.733"/>
<polyline class="Stem" fill="none" stroke="#000000" stroke-width="3.25" stroke-linejoin="bevel" points="952.758,571.633 952.758,654.233"/>
<path class="Note" d="M1605.23,627.373 C1607.12,627.373 1611.07,625.42 1617.1,621.514 C1623.13,617.608 1626.68,614.988 1627.75,613.655 C1628.82,612.321 1629.36,611.134 1629.36,610.092 C1629.36,609.05 1628.93,608.123 1628.08,607.311 C1627.24,606.498 1626.26,606.092 1625.16,606.092 C1623.21,606.092 1619.22,608.061 1613.19,611.998 C1607.17,615.936 1603.63,618.556 1602.59,619.858 C1601.55,621.16 1601.03,622.332 1601.03,623.373 C1601.03,624.415 1601.44,625.342 1602.26,626.155 C1603.07,626.967 1604.07,627.373 1605.23,627.373 M1624.19,602.967 C1629.78,602.967 1632.58,605.373 1632.58,610.186 C1632.58,612.53 1631.89,615.248 1630.53,618.342 C1629.17,621.436 1627.34,623.795 1625.06,625.42 C1620.05,628.806 1613.77,630.498 1606.22,630.498 C1600.61,630.498 1597.81,628.092 1597.81,623.28 C1597.81,621.134 1598.48,618.464 1599.81,615.272 C1601.14,612.079 1602.98,609.67 1605.33,608.045 C1610.35,604.66 1616.63,602.967 1624.19,602.967"/>
<path class="Note" d="M2592.86,627.373 C2594.75,627.373 2598.7,625.42 2604.73,621.514 C2610.76,617.608 2614.3,614.988 2615.38,613.655 C2616.45,612.321 2616.99,611.134 2616.99,610.092 C2616.99,609.05 2616.56,608.123 2615.71,607.311 C2614.86,606.498 2613.89,606.092 2612.78,606.092 C2610.84,606.092 2606.85,608.061 2600.82,611.998 C2594.8,615.936 2591.26,618.556 2590.22,619.858 C2589.18,621.16 2588.66,622.332 2588.66,623.373 C2588.66,624.415 2589.07,625.342 2589.89,626.155 C2590.7,626.967 2591.7,627.373 2592.86,627.373 M2611.82,602.967 C2617.41,602.967 2620.21,605.373 2620.21,610.186 C2620.21,612.53 2619.52,615.248 2618.16,618.342 C2616.79,621.436 2614.97,623.795 2612.69,625.42 C2607.68,628.806 2601.4,630.498 2593.85,630.498 C2588.24,630.498 2585.44,628.092 2585.44,623.28 C2585.44,621.134 2586.11,618.464 2587.44,615.272 C2588.77,612.079 2590.61,609.67 2592.96,608.045 C2597.98,604.66 2604.26,602.967 2611.82,602.967"/>
<path class="Note" d="M958.555,577.373 C960.441,577.373 964.396,575.42 970.422,571.514 C976.448,567.608 979.998,564.988 981.071,563.655 C982.144,562.321 982.68,561.134 982.68,560.092 C982.68,559.05 982.256,558.123 981.407,557.311 C980.558,556.498 979.581,556.092 978.477,556.092 C976.529,556.092 972.542,558.061 966.516,561.998 C960.49,565.936 956.956,568.556 955.914,569.858 C954.873,571.16 954.352,572.332 954.352,573.373 C954.352,574.415 954.761,575.342 955.579,576.155 C956.396,576.967 957.388,577.373 958.555,577.373 M977.508,552.967 C983.102,552.967 985.899,555.373 985.899,560.186 C985.899,562.53 985.217,565.248 983.852,568.342 C982.487,571.436 980.664,573.795 978.383,575.42 C973.373,578.806 967.092,580.498 959.539,580.498 C953.935,580.498 951.133,578.092 951.133,573.28 C951.133,571.134 951.8,568.464 953.133,565.272 C954.467,562.079 956.305,559.67 958.649,558.045 C963.67,554.66 969.956,552.967 977.508,552.967"/>
<path class="Note" d="M2445.26,614.873 C2447.14,614.873 2451.1,612.92 2457.12,609.014 C2463.15,605.108 2466.7,602.488 2467.77,601.155 C2468.84,599.821 2469.38,598.634 2469.38,597.592 C2469.38,596.55 2468.96,595.623 2468.11,594.811 C2467.26,593.998 2466.28,593.592 2465.18,593.592 C2463.23,593.592 2459.24,595.561 2453.22,599.498 C2447.19,603.436 2443.66,606.056 2442.62,607.358 C2441.57,608.66 2441.05,609.832 2441.05,610.873 C2441.05,611.915 2441.46,612.842 2442.28,613.655 C2443.1,614.467 2444.09,614.873 2445.26,614.873 M2464.21,590.467 C2469.8,590.467 2472.6,592.873 2472.6,597.686 C2472.6,600.03 2471.92,602.748 2470.55,605.842 C2469.19,608.936 2467.37,611.295 2465.08,612.92 C2460.07,616.306 2453.79,617.998 2446.24,617.998 C2440.64,617.998 2437.83,615.592 2437.83,610.78 C2437.83,608.634 2438.5,605.964 2439.83,602.772 C2441.17,599.579 2443.01,597.17 2445.35,595.545 C2450.37,592.16 2456.66,590.467 2464.21,590.467"/>
<path class="Note" d="M1095.65,602.373 C1097.53,602.373 1101.49,600.42 1107.51,596.514 C1113.54,592.608 1117.09,589.988 1118.16,588.655 C1119.23,587.321 1119.77,586.134 1119.77,585.092 C1119.77,584.05 1119.35,583.123 1118.5,582.311 C1117.65,581.498 1116.67,581.092 1115.57,581.092 C1113.62,581.092 1109.63,583.061 1103.61,586.998 C1097.58,590.936 1094.05,593.556 1093,594.858 C1091.96,596.16 1091.44,597.332 1091.44,598.373 C1091.44,599.415 1091.85,600.342 1092.67,601.155 C1093.49,601.967 1094.48,602.373 1095.65,602.373 M1114.6,577.967 C1120.19,577.967 1122.99,580.373 1122.99,585.186 C1122.99,587.53 1122.31,590.248 1120.94,593.342 C1119.58,596.436 1117.75,598.795 1115.47,600.42 C1110.46,603.806 1104.18,605.498 1096.63,605.498 C1091.03,605.498 1088.22,603.092 1088.22,598.28 C1088.22,596.134 1088.89,593.464 1090.22,590.272 C1091.56,587.079 1093.4,584.67 1095.74,583.045 C1100.76,579.66 1107.05,577.967 1114.6,577.967"/>
<path class="Note" d="M2338.07,602.373 C2339.95,602.373 2343.91,600.42 2349.94,596.514 C2355.96,592.608 2359.51,589.988 2360.58,588.655 C2361.66,587.321 2362.19,586.134 2362.19,585.092 C2362.19,584.05 2361.77,583.123 2360.92,582.311 C2360.07,581.498 2359.09,581.092 2357.99,581.092 C2356.04,581.092 2352.06,583.061 2346.03,586.998 C2340,590.936 2336.47,593.556 2335.43,594.858 C2334.39,596.16 2333.86,597.332 2333.86,598.373 C2333.86,599.415 2334.27,600.342 2335.09,601.155 C2335.91,601.967 2336.9,602.373 2338.07,602.373 M2357.02,577.967 C2362.61,577.967 2365.41,580.373 2365.41,585.186 C2365.41,587.53 2364.73,590.248 2363.36,593.342 C2362,596.436 2360.18,598.795 2357.9,600.42 C2352.89,603.806 2346.6,605.498 2339.05,605.498 C2333.45,605.498 2330.65,603.092 2330.65,598.28 C2330.65,596.134 2331.31,593.464 2332.65,590.272 C2333.98,587.079 2335.82,584.67 2338.16,583.045 C2343.18,579.66 2349.47,577.967 2357.02,577.967"/>
<path class="Note" d="M1202.83,614.873 C1204.72,614.873 1208.67,612.92 1214.7,609.014 C1220.73,605.108 1224.28,602.488 1225.35,601.155 C1226.42,599.821 1226.96,598.634 1226.96,597.592 C1226.96,596.55 1226.53,595.623 1225.68,594.811 C1224.84,593.998 1223.86,593.592 1222.76,593.592 C1220.81,593.592 1216.82,595.561 1210.79,599.498 C1204.77,603.436 1201.23,606.056 1200.19,607.358 C1199.15,608.66 1198.63,609.832 1198.63,610.873 C1198.63,611.915 1199.04,612.842 1199.86,613.655 C1200.67,614.467 1201.67,614.873 1202.83,614.873 M1221.79,590.467 C1227.38,590.467 1230.18,592.873 1230.18,597.686 C1230.18,600.03 1229.49,602.748 1228.13,605.842 C1226.77,608.936 1224.94,611.295 1222.66,612.92 C1217.65,616.306 1211.37,617.998 1203.82,617.998 C1198.21,617.998 1195.41,615.592 1195.41,610.78 C1195.41,608.634 1196.08,605.964 1197.41,602.772 C1198.74,599.579 1200.58,597.17 1202.93,595.545 C1207.95,592.16 1214.23,590.467 1221.79,590.467"/>
<path class="Note" d="M2200.98,577.373 C2202.86,577.373 2206.82,575.42 2212.84,571.514 C2218.87,567.608 2222.42,564.988 2223.49,563.655 C2224.57,562.321 2225.1,561.134 2225.1,560.092 C2225.1,559.05 2224.68,558.123 2223.83,557.311 C2222.98,556.498 2222,556.092 2220.9,556.092 C2218.95,556.092 2214.96,558.061 2208.94,561.998 C2202.91,565.936 2199.38,568.556 2198.34,569.858 C2197.3,571.16 2196.77,572.332 2196.77,573.373 C2196.77,574.415 2197.18,575.342 2198,576.155 C2198.82,576.967 2199.81,577.373 2200.98,577.373 M2219.93,552.967 C2225.52,552.967 2228.32,555.373 2228.32,560.186 C2228.32,562.53 2227.64,565.248 2226.27,568.342 C2224.91,571.436 2223.09,573.795 2220.81,575.42 C2215.8,578.806 2209.51,580.498 2201.96,580.498 C2196.36,580.498 2193.56,578.092 2193.56,573.28 C2193.56,571.134 2194.22,568.464 2195.56,565.272 C2196.89,562.079 2198.73,559.67 2201.07,558.045 C2206.09,554.66 2212.38,552.967 2219.93,552.967"/>
<path class="Note" d="M2093.79,564.873 C2095.68,564.873 2099.63,562.92 2105.66,559.014 C2111.68,555.108 2115.23,552.488 2116.31,551.154 C2117.38,549.821 2117.91,548.634 2117.91,547.592 C2117.91,546.55 2117.49,545.623 2116.64,544.811 C2115.79,543.998 2114.82,543.592 2113.71,543.592 C2111.76,543.592 2107.78,545.561 2101.75,549.498 C2095.72,553.436 2092.19,556.056 2091.15,557.358 C2090.11,558.66 2089.59,559.832 2089.59,560.873 C2089.59,561.915 2090,562.842 2090.81,563.654 C2091.63,564.467 2092.62,564.873 2093.79,564.873 M2112.74,540.467 C2118.34,540.467 2121.13,542.873 2121.13,547.686 C2121.13,550.029 2120.45,552.748 2119.09,555.842 C2117.72,558.936 2115.9,561.295 2113.62,562.92 C2108.61,566.306 2102.33,567.998 2094.77,567.998 C2089.17,567.998 2086.37,565.592 2086.37,560.779 C2086.37,558.634 2087.03,555.964 2088.37,552.772 C2089.7,549.579 2091.54,547.17 2093.88,545.545 C2098.9,542.16 2105.19,540.467 2112.74,540.467"/>
<path class="Note" d="M851.367,564.873 C853.253,564.873 857.208,562.92 863.234,559.014 C869.26,555.108 872.81,552.488 873.883,551.154 C874.956,549.821 875.492,548.634 875.492,547.592 C875.492,546.55 875.068,545.623 874.219,544.811 C873.37,543.998 872.393,543.592 871.289,543.592 C869.341,543.592 865.354,545.561 859.328,549.498 C853.302,553.436 849.768,556.056 848.727,557.358 C847.685,558.66 847.164,559.832 847.164,560.873 C847.164,561.915 847.573,562.842 848.391,563.654 C849.208,564.467 850.2,564.873 851.367,564.873 M870.32,540.467 C875.914,540.467 878.711,542.873 878.711,547.686 C878.711,550.029 878.029,552.748 876.664,555.842 C875.299,558.936 873.477,561.295 871.195,562.92 C866.185,566.306 859.904,567.998 852.352,567.998 C846.747,567.998 843.945,565.592 843.945,560.779 C843.945,558.634 844.612,555.964 845.945,552.772 C847.279,549.579 849.117,547.17 851.461,545.545 C856.482,542.16 862.768,540.467 870.32,540.467"/>
<path class="Note" d="M362.811,627.373 C364.696,627.373 368.652,625.42 374.678,621.514 C380.704,617.608 384.253,614.988 385.326,613.655 C386.399,612.321 386.936,611.134 386.936,610.092 C386.936,609.05 386.511,608.123 385.662,607.311 C384.813,606.498 383.837,606.092 382.732,606.092 C380.785,606.092 376.798,608.061 370.772,611.998 C364.746,615.936 361.212,618.556 360.17,619.858 C359.128,621.16 358.607,622.332 358.607,623.373 C358.607,624.415 359.016,625.342 359.834,626.155 C360.652,626.967 361.644,627.373 362.811,627.373 M381.764,602.967 C387.357,602.967 390.154,605.373 390.154,610.186 C390.154,612.53 389.472,615.248 388.107,618.342 C386.743,621.436 384.92,623.795 382.639,625.42 C377.628,628.806 371.347,630.498 363.795,630.498 C358.191,630.498 355.389,628.092 355.389,623.28 C355.389,621.134 356.055,618.464 357.389,615.272 C358.722,612.079 360.561,609.67 362.904,608.045 C367.925,604.66 374.212,602.967 381.764,602.967"/>
<path class="Note" d="M1956.7,577.373 C1958.58,577.373 1962.54,575.42 1968.57,571.514 C1974.59,567.608 1978.14,564.988 1979.22,563.655 C1980.29,562.321 1980.82,561.134 1980.82,560.092 C1980.82,559.05 1980.4,558.123 1979.55,557.311 C1978.7,556.498 1977.73,556.092 1976.62,556.092 C1974.67,556.092 1970.69,558.061 1964.66,561.998 C1958.63,565.936 1955.1,568.556 1954.06,569.858 C1953.02,571.16 1952.5,572.332 1952.5,573.373 C1952.5,574.415 1952.91,575.342 1953.72,576.155 C1954.54,576.967 1955.53,577.373 1956.7,577.373 M1975.65,552.967 C1981.25,552.967 1984.04,555.373 1984.04,560.186 C1984.04,562.53 1983.36,565.248 1982,568.342 C1980.63,571.436 1978.81,573.795 1976.53,575.42 C1971.52,578.806 1965.24,580.498 1957.68,580.498 C1952.08,580.498 1949.28,578.092 1949.28,573.28 C1949.28,571.134 1949.94,568.464 1951.28,565.272 C1952.61,562.079 1954.45,559.67 1956.79,558.045 C1961.81,554.66 1968.1,552.967 1975.65,552.967"/>
<path class="Note" d="M1350.44,627.373 C1352.32,627.373 1356.28,625.42 1362.31,621.514 C1368.33,617.608 1371.88,614.988 1372.95,613.655 C1374.03,612.321 1374.56,611.134 1374.56,610.092 C1374.56,609.05 1374.14,608.123 1373.29,607.311 C1372.44,606.498 1371.47,606.092 1370.36,606.092 C1368.41,606.092 1364.43,608.061 1358.4,611.998 C1352.37,615.936 1348.84,618.556 1347.8,619.858 C1346.76,621.16 1346.24,622.332 1346.24,623.373 C1346.24,624.415 1346.65,625.342 1347.46,626.155 C1348.28,626.967 1349.27,627.373 1350.44,627.373 M1369.39,602.967 C1374.99,602.967 1377.78,605.373 1377.78,610.186 C1377.78,612.53 1377.1,615.248 1375.74,618.342 C1374.37,621.436 1372.55,623.795 1370.27,625.42 C1365.26,628.806 1358.98,630.498 1351.42,630.498 C1345.82,630.498 1343.02,628.092 1343.02,623.28 C1343.02,621.134 1343.68,618.464 1345.02,615.272 C1346.35,612.079 1348.19,609.67 1350.53,608.045 C1355.55,604.66 1361.84,602.967 1369.39,602.967"/>
<path class="Note" d="M1849.51,602.373 C1851.4,602.373 1855.35,600.42 1861.38,596.514 C1867.4,592.608 1870.95,589.988 1872.03,588.655 C1873.1,587.321 1873.64,586.134 1873.64,585.092 C1873.64,584.05 1873.21,583.123 1872.36,582.311 C1871.51,581.498 1870.54,581.092 1869.43,581.092 C1867.49,581.092 1863.5,583.061 1857.47,586.998 C1851.45,590.936 1847.91,593.556 1846.87,594.858 C1845.83,596.16 1845.31,597.332 1845.31,598.373 C1845.31,599.415 1845.72,600.342 1846.53,601.155 C1847.35,601.967 1848.34,602.373 1849.51,602.373 M1868.46,577.967 C1874.06,577.967 1876.86,580.373 1876.86,585.186 C1876.86,587.53 1876.17,590.248 1874.81,593.342 C1873.44,596.436 1871.62,598.795 1869.34,600.42 C1864.33,603.806 1858.05,605.498 1850.5,605.498 C1844.89,605.498 1842.09,603.092 1842.09,598.28 C1842.09,596.134 1842.76,593.464 1844.09,590.272 C1845.42,587.079 1847.26,584.67 1849.61,583.045 C1854.63,579.66 1860.91,577.967 1868.46,577.967"/>
<path class="Note" d="M714.277,577.373 C716.162,577.373 720.118,575.42 726.144,571.514 C732.17,567.608 735.72,564.988 736.792,563.655 C737.865,562.321 738.402,561.134 738.402,560.092 C738.402,559.05 737.977,558.123 737.128,557.311 C736.279,556.498 735.303,556.092 734.199,556.092 C732.251,556.092 728.264,558.061 722.238,561.998 C716.212,565.936 712.678,568.556 711.636,569.858 C710.595,571.16 710.074,572.332 710.074,573.373 C710.074,574.415 710.483,575.342 711.3,576.155 C712.118,576.967 713.11,577.373 714.277,577.373 M733.23,552.967 C738.824,552.967 741.621,555.373 741.621,560.186 C741.621,562.53 740.938,565.248 739.574,568.342 C738.209,571.436 736.386,573.795 734.105,575.42 C729.095,578.806 722.813,580.498 715.261,580.498 C709.657,580.498 706.855,578.092 706.855,573.28 C706.855,571.134 707.522,568.464 708.855,565.272 C710.188,562.079 712.027,559.67 714.371,558.045 C719.391,554.66 725.678,552.967 733.23,552.967"/>
<path class="Note" d="M469.999,614.873 C471.884,614.873 475.84,612.92 481.866,609.014 C487.892,605.108 491.441,602.488 492.514,601.155 C493.587,599.821 494.124,598.634 494.124,597.592 C494.124,596.55 493.699,595.623 492.85,594.811 C492.001,593.998 491.025,593.592 489.92,593.592 C487.973,593.592 483.986,595.561 477.96,599.498 C471.933,603.436 468.4,606.056 467.358,607.358 C466.316,608.66 465.795,609.832 465.795,610.873 C465.795,611.915 466.204,612.842 467.022,613.655 C467.84,614.467 468.832,614.873 469.999,614.873 M488.952,590.467 C494.545,590.467 497.342,592.873 497.342,597.686 C497.342,600.03 496.66,602.748 495.295,605.842 C493.931,608.936 492.108,611.295 489.827,612.92 C484.816,616.306 478.535,617.998 470.983,617.998 C465.379,617.998 462.577,615.592 462.577,610.78 C462.577,608.634 463.243,605.964 464.577,602.772 C465.91,599.579 467.749,597.17 470.092,595.545 C475.113,592.16 481.4,590.467 488.952,590.467"/>
<path class="Note" d="M1712.42,614.873 C1714.31,614.873 1718.26,612.92 1724.29,609.014 C1730.31,605.108 1733.86,602.488 1734.94,601.155 C1736.01,599.821 1736.55,598.634 1736.55,597.592 C1736.55,596.55 1736.12,595.623 1735.27,594.811 C1734.42,593.998 1733.45,593.592 1732.34,593.592 C1730.4,593.592 1726.41,595.561 1720.38,599.498 C1714.36,603.436 1710.82,606.056 1709.78,607.358 C1708.74,608.66 1708.22,609.832 1708.22,610.873 C1708.22,611.915 1708.63,612.842 1709.44,613.655 C1710.26,614.467 1711.25,614.873 1712.42,614.873 M1731.37,590.467 C1736.97,590.467 1739.76,592.873 1739.76,597.686 C1739.76,600.03 1739.08,602.748 1737.72,605.842 C1736.35,608.936 1734.53,611.295 1732.25,612.92 C1727.24,616.306 1720.96,617.998 1713.41,617.998 C1707.8,617.998 1705,615.592 1705,610.78 C1705,608.634 1705.67,605.964 1707,602.772 C1708.33,599.579 1710.17,597.17 1712.51,595.545 C1717.54,592.16 1723.82,590.467 1731.37,590.467"/>
<path class="Note" d="M607.089,602.373 C608.974,602.373 612.93,600.42 618.956,596.514 C624.982,592.608 628.532,589.988 629.605,588.655 C630.677,587.321 631.214,586.134 631.214,585.092 C631.214,584.05 630.789,583.123 629.94,582.311 C629.091,581.498 628.115,581.092 627.011,581.092 C625.063,581.092 621.076,583.061 615.05,586.998 C609.024,590.936 605.49,593.556 604.448,594.858 C603.407,596.16 602.886,597.332 602.886,598.373 C602.886,599.415 603.295,600.342 604.112,601.155 C604.93,601.967 605.922,602.373 607.089,602.373 M626.042,577.967 C631.636,577.967 634.433,580.373 634.433,585.186 C634.433,587.53 633.75,590.248 632.386,593.342 C631.021,596.436 629.198,598.795 626.917,600.42 C621.907,603.806 615.625,605.498 608.073,605.498 C602.469,605.498 599.667,603.092 599.667,598.28 C599.667,596.134 600.334,593.464 601.667,590.272 C603,587.079 604.839,584.67 607.183,583.045 C612.203,579.66 618.49,577.967 626.042,577.967"/>
<path class="Clef" d="M203.623,673.858 L203.623,671.717 C203.56,670.613 203.399,668.889 203.139,666.545 C199.889,667.066 196.993,667.326 194.451,667.326 C185.337,667.326 177.605,663.727 171.256,656.53 C164.907,649.332 161.732,640.754 161.732,630.795 C161.732,628.129 162.253,624.923 163.295,621.178 C164.337,617.433 165.297,614.925 166.178,613.655 C167.058,612.384 168.378,610.155 170.139,606.967 C170.659,605.988 172.352,603.837 175.217,600.514 C175.738,599.806 176.193,599.222 176.584,598.764 C176.975,598.306 177.607,597.49 178.482,596.319 C179.357,595.147 180.3,594.056 181.31,593.045 C182.321,592.035 183.217,591.058 183.998,590.115 C184.779,589.173 185.498,588.379 186.154,587.733 C183.81,579.983 182.378,574.024 181.857,569.858 C181.337,565.691 181.076,560.579 181.076,554.522 C181.076,548.464 182.378,542.962 184.982,538.014 C187.514,532.879 191.06,528.681 195.623,525.42 C195.883,525.222 196.225,525.123 196.646,525.123 C197.068,525.123 197.378,525.222 197.576,525.42 C201.087,529.649 204.128,535.149 206.701,541.92 C209.274,548.691 210.56,555.024 210.56,560.92 C210.56,566.816 209.066,572.498 206.076,577.967 C202.691,583.759 198.326,589.748 192.982,595.936 C194.347,600.227 196.17,606.962 198.451,616.139 L199.045,616.139 C199.305,616.076 199.529,616.045 199.717,616.045 C207.081,616.045 213.089,618.634 217.74,623.811 C222.391,628.988 224.717,634.962 224.717,641.733 C224.717,650.129 221.238,656.899 214.279,662.045 C212.258,663.545 209.878,664.717 207.139,665.561 C207.472,669.79 207.639,672.605 207.639,674.006 C207.639,675.407 207.571,677.899 207.435,681.483 C207.373,687.597 205.29,692.837 201.185,697.201 C197.081,701.566 192.394,703.748 187.123,703.748 C181.852,703.748 177.36,701.876 173.646,698.131 C169.933,694.386 168.076,689.847 168.076,684.514 C168.076,681.712 169.154,679.332 171.31,677.373 C173.519,675.425 176.006,674.451 178.771,674.451 C181.537,674.451 183.8,675.462 185.56,677.483 C187.383,679.368 188.295,681.644 188.295,684.311 C188.295,686.977 187.383,689.222 185.56,691.045 C183.738,692.868 181.555,693.78 179.014,693.78 C177.972,693.78 176.967,693.587 175.998,693.201 C178.863,697.431 182.54,699.545 187.029,699.545 C191.519,699.545 195.36,697.691 198.553,693.983 C201.745,690.274 203.342,685.91 203.342,680.889 L203.623,673.858 M206.748,661.561 C210.133,660.321 212.821,658.123 214.81,654.967 C216.8,651.811 217.795,648.67 217.795,645.545 C217.795,640.92 216.199,636.785 213.006,633.139 C209.813,629.493 205.774,627.441 200.889,626.983 C203.691,640.722 205.644,652.248 206.748,661.561 M168.967,638.998 C168.967,645.446 171.537,651.079 176.678,655.897 C181.818,660.714 187.842,663.123 194.748,663.123 C197.477,663.123 200.144,662.925 202.748,662.53 C201.706,652.634 199.654,640.785 196.592,626.983 C192.758,627.379 189.782,628.699 187.662,630.944 C185.542,633.188 184.482,635.743 184.482,638.608 C184.482,643.556 187.123,647.561 192.404,650.623 C192.852,650.884 193.076,651.324 193.076,651.944 C193.076,652.563 192.865,653.1 192.443,653.553 C192.021,654.006 191.649,654.233 191.326,654.233 C191.003,654.233 190.581,654.17 190.06,654.045 C182.435,649.879 178.623,643.592 178.623,635.186 C178.623,631.217 180.024,627.41 182.826,623.764 C185.753,620.118 189.56,617.774 194.248,616.733 C192.425,609.441 190.93,603.743 189.764,599.639 C180.847,609.67 175.31,617.092 173.154,621.905 C170.363,628.155 168.967,633.852 168.967,638.998 M201.576,539.686 C196.691,542.092 192.834,545.574 190.006,550.131 C187.178,554.688 185.764,559.472 185.764,564.483 C185.764,569.493 186.935,575.972 189.279,583.92 C193.967,578.254 197.514,572.946 199.92,567.998 C202.326,563.05 203.529,558.152 203.529,553.303 C203.529,548.454 202.878,543.915 201.576,539.686"/>
<path class="TimeSig" d="M273.021,567.912 C274.516,567.912 275.949,567.686 277.318,567.233 C278.688,566.78 279.665,566.553 280.248,566.553 C280.831,566.553 281.222,566.907 281.42,567.615 C281.42,567.688 281.352,567.886 281.217,568.209 L252.811,601.225 L269.498,601.225 L269.498,588.131 C269.498,586.506 270.446,585.334 272.342,584.615 C274.29,583.897 276.503,581.001 278.982,575.928 C279.17,575.532 279.462,575.334 279.857,575.334 C280.639,575.334 281.092,575.793 281.217,576.709 L281.217,601.225 L288.357,601.225 C289.264,601.225 289.751,601.712 289.818,602.686 C289.886,603.66 289.399,604.147 288.357,604.147 L281.217,604.147 L281.217,604.928 C281.217,607.532 281.868,609.746 283.17,611.569 C284.67,613.391 286.43,614.303 288.451,614.303 C289.232,614.303 289.623,614.694 289.623,615.475 C289.623,616.256 289.087,616.647 288.014,616.647 C286.941,616.647 284.938,616.436 282.006,616.014 C279.074,615.592 276.811,615.381 275.217,615.381 C273.623,615.381 271.41,615.592 268.576,616.014 C265.743,616.436 263.613,616.647 262.186,616.647 C261.404,616.647 261.014,616.256 261.014,615.475 C261.014,614.694 261.404,614.303 262.186,614.303 C264.196,614.303 265.951,613.391 267.451,611.569 C268.816,609.683 269.498,607.47 269.498,604.928 L269.498,604.147 L252.811,604.147 C251.956,604.147 251.219,603.92 250.6,603.467 C249.98,603.014 249.67,602.592 249.67,602.201 C249.67,601.811 250.485,600.639 252.115,598.686 C253.745,596.733 256.074,592.972 259.1,587.405 C262.126,581.837 263.639,575.438 263.639,568.209 C263.639,567.168 264.097,566.647 265.014,566.647 C265.212,566.647 265.521,566.712 265.943,566.842 C266.365,566.972 267.277,567.183 268.678,567.475 C270.079,567.766 271.527,567.912 273.021,567.912"/>
<path class="TimeSig" d="M273.021,618.084 C274.516,618.084 275.949,617.858 277.318,617.405 C278.688,616.951 279.665,616.725 280.248,616.725 C280.831,616.725 281.222,617.079 281.42,617.787 C281.42,617.86 281.352,618.058 281.217,618.381 L252.811,651.397 L269.498,651.397 L269.498,638.303 C269.498,636.678 270.446,635.506 272.342,634.787 C274.29,634.069 276.503,631.173 278.982,626.1 C279.17,625.704 279.462,625.506 279.857,625.506 C280.639,625.506 281.092,625.964 281.217,626.881 L281.217,651.397 L288.357,651.397 C289.264,651.397 289.751,651.884 289.818,652.858 C289.886,653.832 289.399,654.319 288.357,654.319 L281.217,654.319 L281.217,655.1 C281.217,657.704 281.868,659.918 283.17,661.74 C284.67,663.563 286.43,664.475 288.451,664.475 C289.232,664.475 289.623,664.865 289.623,665.647 C289.623,666.428 289.087,666.819 288.014,666.819 C286.941,666.819 284.938,666.608 282.006,666.186 C279.074,665.764 276.811,665.553 275.217,665.553 C273.623,665.553 271.41,665.764 268.576,666.186 C265.743,666.608 263.613,666.819 262.186,666.819 C261.404,666.819 261.014,666.428 261.014,665.647 C261.014,664.865 261.404,664.475 262.186,664.475 C264.196,664.475 265.951,663.563 267.451,661.74 C268.816,659.855 269.498,657.642 269.498,655.1 L269.498,654.319 L252.811,654.319 C251.956,654.319 251.219,654.092 250.6,653.639 C249.98,653.186 249.67,652.764 249.67,652.373 C249.67,651.983 250.485,650.811 252.115,648.858 C253.745,646.905 256.074,643.144 259.1,637.576 C262.126,632.009 263.639,625.61 263.639,618.381 C263.639,617.339 264.097,616.819 265.014,616.819 C265.212,616.819 265.521,616.884 265.943,617.014 C266.365,617.144 267.277,617.355 268.678,617.647 C270.079,617.938 271.527,618.084 273.021,618.084"/>
<path class="Rest" d="M1487.64,616.733 L1452.09,616.733 C1451.44,616.733 1451.11,616.405 1451.11,615.748 L1451.11,602.076 C1451.11,601.431 1451.44,601.108 1452.09,601.108 L1487.64,601.108 C1488.28,601.108 1488.61,601.431 1488.61,602.076 L1488.61,615.748 C1488.61,616.405 1488.28,616.733 1487.64,616.733"/>
<path class="Rest" d="M2730.06,616.733 L2694.51,616.733 C2693.86,616.733 2693.53,616.405 2693.53,615.748 L2693.53,602.076 C2693.53,601.431 2693.86,601.108 2694.51,601.108 L2730.06,601.108 C2730.71,601.108 2731.03,601.431 2731.03,602.076 L2731.03,615.748 C2731.03,616.405 2730.71,616.733 2730.06,616.733"/>
</svg>
