<?xml version="1.0" encoding="UTF-8" standalone="no"?>
<svg width="2977.2px" height="4208.4px" viewBox="0 0 2977.2 4208.4"
 xmlns="http://www.w3.org/2000/svg" xmlns:xlink="http://www.w3.org/1999/xlink" version="1.2" baseProfile="tiny">
<title>D_Dorian_Scale_1.mscx</title>
<desc>Generated by MuseScore Studio 4.3.1</desc>
<path class="" fill="#ffffff" fill-rule="evenodd" d="M0,0 L2977.2,0 L2977.2,4208.4 L0,4208.4 L0,0 "/>
<polyline class="StaffLines" fill="none" stroke="#000000" stroke-width="2.00" stroke-linejoin="bevel" points="141.732,566.733 2835.47,566.733"/>
<polyline class="StaffLines" fill="none" stroke="#000000" stroke-width="2.00" stroke-linejoin="bevel" points="141.732,591.733 2835.47,591.733"/>
<polyline class="StaffLines" fill="none" stroke="#000000" stroke-width="2.00" stroke-linejoin="bevel" points="141.732,616.733 2835.47,616.733"/>
<polyline class="StaffLines" fill="none" stroke="#000000" stroke-width="2.00" stroke-linejoin="bevel" points="141.732,641.733 2835.47,641.733"/>
<polyline class="StaffLines" fill="none" stroke="#000000" stroke-width="2.00" stroke-linejoin="bevel" points="141.732,666.733 2835.47,666.733"/>
<polyline class="BarLine" fill="none" stroke="#000000" stroke-width="4.00" stroke-linejoin="bevel" points="2802.72,565.733 2802.72,667.733"/>
<polyline class="BarLine" fill="none" stroke="#000000" stroke-width="12.50" stroke-linejoin="bevel" points="2829.22,565.733 2829.22,667.733"/>
<polyline class="BarLine" fill="none" stroke="#000000" stroke-width="4.00" stroke-linejoin="bevel" points="2180.26,565.733 2180.26,667.733"/>
<polyline class="BarLine" fill="none" stroke="#000000" stroke-width="4.00" stroke-linejoin="bevel" points="1557.8,565.733 1557.8,667.733"/>
<polyline class="BarLine" fill="none" stroke="#000000" stroke-width="4.00" stroke-linejoin="bevel" points="935.334,565.733 935.334,667.733"/>
<polyline class="LedgerLine" fill="none" stroke="#000000" stroke-width="4.00" stroke-linejoin="bevel" points="952.834,541.733 1004.75,541.733"/>
<polyline class="LedgerLine" fill="none" stroke="#000000" stroke-width="4.00" stroke-linejoin="bevel" points="1249.57,516.733 1301.48,516.733"/>
<polyline class="LedgerLine" fill="none" stroke="#000000" stroke-width="4.00" stroke-linejoin="bevel" points="1249.57,541.733 1301.48,541.733"/>
<polyline class="LedgerLine" fill="none" stroke="#000000" stroke-width="4.00" stroke-linejoin="bevel" points="1397.93,541.733 1449.84,541.733"/>
<polyline class="LedgerLine" fill="none" stroke="#000000" stroke-width="4.00" stroke-linejoin="bevel" points="1101.2,541.733 1153.11,541.733"/>
<polyline class="LedgerLine" fill="none" stroke="#000000" stroke-width="4.00" stroke-linejoin="bevel" points="1397.93,516.733 1449.84,516.733"/>
<polyline class="LedgerLine" fill="none" stroke="#000000" stroke-width="4.00" stroke-linejoin="bevel" points="1872.03,541.733 1923.94,541.733"/>
<polyline class="LedgerLine" fill="none" stroke="#000000" stroke-width="4.00" stroke-linejoin="bevel" points="1723.66,541.733 1775.58,541.733"/>
<polyline class="LedgerLine" fill="none" stroke="#000000" stroke-width="4.00" stroke-linejoin="bevel" points="2020.39,541.733 2072.31,541.733"/>
<polyline class="LedgerLine" fill="none" stroke="#000000" stroke-width="4.00" stroke-linejoin="bevel" points="1723.66,516.733 1775.58,516.733"/>
<polyline class="LedgerLine" fill="none" stroke="#000000" stroke-width="4.00" stroke-linejoin="bevel" points="1575.3,541.733 1627.21,541.733"/>
<polyline class="LedgerLine" fill="none" stroke="#000000" stroke-width="4.00" stroke-linejoin="bevel" points="1575.3,516.733 1627.21,516.733"/>
<polyline class="Stem" fill="none" stroke="#000000" stroke-width="3.25" stroke-linejoin="bevel" points="1883.15,535.102 1883.15,616.733"/>
<polyline class="Stem" fill="none" stroke="#000000" stroke-width="3.25" stroke-linejoin="bevel" points="2031.52,547.602 2031.52,629.233"/>
<polyline class="Stem" fill="none" stroke="#000000" stroke-width="3.25" stroke-linejoin="bevel" points="1586.42,510.102 1586.42,616.733"/>
<polyline class="Stem" fill="none" stroke="#000000" stroke-width="3.25" stroke-linejoin="bevel" points="1409.06,510.102 1409.06,616.733"/>
<polyline class="Stem" fill="none" stroke="#000000" stroke-width="3.25" stroke-linejoin="bevel" points="1734.79,522.602 1734.79,616.733"/>
<polyline class="Stem" fill="none" stroke="#000000" stroke-width="3.25" stroke-linejoin="bevel" points="2208.88,560.102 2208.88,641.733"/>
<polyline class="Stem" fill="none" stroke="#000000" stroke-width="3.25" stroke-linejoin="bevel" points="2653.98,597.602 2653.98,679.233"/>
<polyline class="Stem" fill="none" stroke="#000000" stroke-width="3.25" stroke-linejoin="bevel" points="341.498,597.602 341.498,679.233"/>
<polyline class="Stem" fill="none" stroke="#000000" stroke-width="3.25" stroke-linejoin="bevel" points="489.863,585.102 489.863,666.733"/>
<polyline class="Stem" fill="none" stroke="#000000" stroke-width="3.25" stroke-linejoin="bevel" points="2505.61,585.102 2505.61,666.733"/>
<polyline class="Stem" fill="none" stroke="#000000" stroke-width="3.25" stroke-linejoin="bevel" points="638.229,572.602 638.229,654.233"/>
<polyline class="Stem" fill="none" stroke="#000000" stroke-width="3.25" stroke-linejoin="bevel" points="786.594,560.102 786.594,641.733"/>
<polyline class="Stem" fill="none" stroke="#000000" stroke-width="3.25" stroke-linejoin="bevel" points="2357.25,572.602 2357.25,654.233"/>
<polyline class="Stem" fill="none" stroke="#000000" stroke-width="3.25" stroke-linejoin="bevel" points="963.959,547.602 963.959,629.233"/>
<polyline class="Stem" fill="none" stroke="#000000" stroke-width="3.25" stroke-linejoin="bevel" points="1112.32,535.102 1112.32,616.733"/>
<polyline class="Stem" fill="none" stroke="#000000" stroke-width="3.25" stroke-linejoin="bevel" points="1260.69,522.602 1260.69,616.733"/>
<path class="Note" d="M2377.59,552.967 C2380.72,552.967 2383.32,553.748 2385.4,555.311 C2387.49,556.873 2388.53,559.118 2388.53,562.045 C2388.53,566.535 2386.2,570.733 2381.55,574.639 C2376.9,578.545 2371.9,580.498 2366.56,580.498 C2363.43,580.498 2360.8,579.686 2358.65,578.061 C2356.63,576.3 2355.62,574.087 2355.62,571.42 C2355.62,567.056 2357.93,562.889 2362.56,558.92 C2367.18,554.951 2372.2,552.967 2377.59,552.967"/>
<path class="Note" d="M2051.86,527.967 C2054.99,527.967 2057.59,528.748 2059.67,530.311 C2061.76,531.873 2062.8,534.118 2062.8,537.045 C2062.8,541.535 2060.47,545.733 2055.82,549.639 C2051.17,553.545 2046.17,555.498 2040.83,555.498 C2037.7,555.498 2035.07,554.686 2032.92,553.061 C2030.9,551.3 2029.89,549.087 2029.89,546.42 C2029.89,542.056 2032.2,537.889 2036.83,533.92 C2041.45,529.951 2046.46,527.967 2051.86,527.967"/>
<path class="Note" d="M2229.23,540.467 C2232.35,540.467 2234.95,541.248 2237.04,542.811 C2239.12,544.373 2240.16,546.618 2240.16,549.545 C2240.16,554.035 2237.84,558.233 2233.19,562.139 C2228.54,566.045 2223.54,567.998 2218.19,567.998 C2215.07,567.998 2212.43,567.186 2210.29,565.561 C2208.27,563.8 2207.26,561.587 2207.26,558.92 C2207.26,554.556 2209.57,550.389 2214.19,546.42 C2218.82,542.451 2223.83,540.467 2229.23,540.467"/>
<path class="Note" d="M2525.96,565.467 C2529.08,565.467 2531.69,566.248 2533.77,567.811 C2535.85,569.373 2536.89,571.618 2536.89,574.545 C2536.89,579.035 2534.57,583.233 2529.92,587.139 C2525.27,591.045 2520.27,592.998 2514.93,592.998 C2511.8,592.998 2509.16,592.186 2507.02,590.561 C2505,588.8 2503.99,586.587 2503.99,583.92 C2503.99,579.556 2506.3,575.389 2510.93,571.42 C2515.55,567.451 2520.56,565.467 2525.96,565.467"/>
<path class="Note" d="M2674.32,577.967 C2677.45,577.967 2680.05,578.748 2682.13,580.311 C2684.22,581.873 2685.26,584.118 2685.26,587.045 C2685.26,591.535 2682.93,595.733 2678.28,599.639 C2673.63,603.545 2668.63,605.498 2663.29,605.498 C2660.17,605.498 2657.53,604.686 2655.38,603.061 C2653.36,601.3 2652.35,599.087 2652.35,596.42 C2652.35,592.056 2654.67,587.889 2659.29,583.92 C2663.92,579.951 2668.93,577.967 2674.32,577.967"/>
<path class="Note" d="M1429.4,490.467 C1432.52,490.467 1435.13,491.248 1437.21,492.811 C1439.29,494.373 1440.34,496.618 1440.34,499.545 C1440.34,504.035 1438.01,508.233 1433.36,512.139 C1428.71,516.045 1423.71,517.998 1418.37,517.998 C1415.24,517.998 1412.61,517.186 1410.46,515.561 C1408.44,513.8 1407.43,511.587 1407.43,508.92 C1407.43,504.556 1409.74,500.389 1414.37,496.42 C1418.99,492.451 1424,490.467 1429.4,490.467"/>
<path class="Note" d="M1903.5,515.467 C1906.62,515.467 1909.22,516.248 1911.31,517.811 C1913.39,519.373 1914.43,521.618 1914.43,524.545 C1914.43,529.035 1912.11,533.233 1907.46,537.139 C1902.81,541.045 1897.81,542.998 1892.46,542.998 C1889.34,542.998 1886.7,542.186 1884.56,540.561 C1882.54,538.8 1881.53,536.587 1881.53,533.92 C1881.53,529.556 1883.84,525.389 1888.46,521.42 C1893.09,517.451 1898.1,515.467 1903.5,515.467"/>
<path class="Note" d="M1755.13,502.967 C1758.25,502.967 1760.86,503.748 1762.94,505.311 C1765.03,506.873 1766.07,509.118 1766.07,512.045 C1766.07,516.535 1763.74,520.733 1759.09,524.639 C1754.44,528.545 1749.44,530.498 1744.1,530.498 C1740.97,530.498 1738.34,529.686 1736.19,528.061 C1734.17,526.3 1733.16,524.087 1733.16,521.42 C1733.16,517.056 1735.47,512.889 1740.1,508.92 C1744.72,504.951 1749.73,502.967 1755.13,502.967"/>
<path class="Note" d="M1606.76,490.467 C1609.89,490.467 1612.49,491.248 1614.58,492.811 C1616.66,494.373 1617.7,496.618 1617.7,499.545 C1617.7,504.035 1615.38,508.233 1610.73,512.139 C1606.07,516.045 1601.08,517.998 1595.73,517.998 C1592.61,517.998 1589.97,517.186 1587.83,515.561 C1585.81,513.8 1584.8,511.587 1584.8,508.92 C1584.8,504.556 1587.11,500.389 1591.73,496.42 C1596.36,492.451 1601.37,490.467 1606.76,490.467"/>
<path class="Note" d="M1281.03,502.967 C1284.16,502.967 1286.76,503.748 1288.85,505.311 C1290.93,506.873 1291.97,509.118 1291.97,512.045 C1291.97,516.535 1289.65,520.733 1284.99,524.639 C1280.34,528.545 1275.35,530.498 1270,530.498 C1266.88,530.498 1264.24,529.686 1262.1,528.061 C1260.08,526.3 1259.07,524.087 1259.07,521.42 C1259.07,517.056 1261.38,512.889 1266,508.92 C1270.63,504.951 1275.64,502.967 1281.03,502.967"/>
<path class="Note" d="M1132.67,515.467 C1135.79,515.467 1138.4,516.248 1140.48,517.811 C1142.56,519.373 1143.61,521.618 1143.61,524.545 C1143.61,529.035 1141.28,533.233 1136.63,537.139 C1131.98,541.045 1126.98,542.998 1121.64,542.998 C1118.51,542.998 1115.88,542.186 1113.73,540.561 C1111.71,538.8 1110.7,536.587 1110.7,533.92 C1110.7,529.556 1113.01,525.389 1117.64,521.42 C1122.26,517.451 1127.27,515.467 1132.67,515.467"/>
<path class="Note" d="M984.303,527.967 C987.428,527.967 990.032,528.748 992.116,530.311 C994.199,531.873 995.241,534.118 995.241,537.045 C995.241,541.535 992.915,545.733 988.264,549.639 C983.613,553.545 978.616,555.498 973.272,555.498 C970.147,555.498 967.512,554.686 965.366,553.061 C963.345,551.3 962.334,549.087 962.334,546.42 C962.334,542.056 964.647,537.889 969.272,533.92 C973.897,529.951 978.907,527.967 984.303,527.967"/>
<path class="Note" d="M806.938,540.467 C810.063,540.467 812.667,541.248 814.75,542.811 C816.834,544.373 817.875,546.618 817.875,549.545 C817.875,554.035 815.55,558.233 810.899,562.139 C806.248,566.045 801.25,567.998 795.907,567.998 C792.782,567.998 790.146,567.186 788,565.561 C785.979,563.8 784.969,561.587 784.969,558.92 C784.969,554.556 787.282,550.389 791.907,546.42 C796.532,542.451 801.542,540.467 806.938,540.467"/>
<path class="Note" d="M658.573,552.967 C661.698,552.967 664.302,553.748 666.385,555.311 C668.468,556.873 669.51,559.118 669.51,562.045 C669.51,566.535 667.184,570.733 662.533,574.639 C657.882,578.545 652.885,580.498 647.541,580.498 C644.416,580.498 641.781,579.686 639.635,578.061 C637.614,576.3 636.604,574.087 636.604,571.42 C636.604,567.056 638.916,562.889 643.541,558.92 C648.166,554.951 653.177,552.967 658.573,552.967"/>
<path class="Note" d="M510.207,565.467 C513.332,565.467 515.936,566.248 518.02,567.811 C520.103,569.373 521.145,571.618 521.145,574.545 C521.145,579.035 518.819,583.233 514.168,587.139 C509.517,591.045 504.52,592.998 499.176,592.998 C496.051,592.998 493.416,592.186 491.27,590.561 C489.249,588.8 488.238,586.587 488.238,583.92 C488.238,579.556 490.551,575.389 495.176,571.42 C499.801,567.451 504.811,565.467 510.207,565.467"/>
<path class="Note" d="M361.842,577.967 C364.967,577.967 367.571,578.748 369.654,580.311 C371.738,581.873 372.779,584.118 372.779,587.045 C372.779,591.535 370.454,595.733 365.803,599.639 C361.152,603.545 356.154,605.498 350.811,605.498 C347.686,605.498 345.05,604.686 342.904,603.061 C340.884,601.3 339.873,599.087 339.873,596.42 C339.873,592.056 342.186,587.889 346.811,583.92 C351.436,579.951 356.446,577.967 361.842,577.967"/>
<path class="Clef" d="M203.623,673.858 L203.623,671.717 C203.56,670.613 203.399,668.889 203.139,666.545 C199.889,667.066 196.993,667.326 194.451,667.326 C185.337,667.326 177.605,663.727 171.256,656.53 C164.907,649.332 161.732,640.754 161.732,630.795 C161.732,628.129 162.253,624.923 163.295,621.178 C164.337,617.433 165.297,614.925 166.178,613.655 C167.058,612.384 168.378,610.155 170.139,606.967 C170.659,605.988 172.352,603.837 175.217,600.514 C175.738,599.806 176.193,599.222 176.584,598.764 C176.975,598.306 177.607,597.49 178.482,596.319 C179.357,595.147 180.3,594.056 181.31,593.045 C182.321,592.035 183.217,591.058 183.998,590.115 C184.779,589.173 185.498,588.379 186.154,587.733 C183.81,579.983 182.378,574.024 181.857,569.858 C181.337,565.691 181.076,560.579 181.076,554.522 C181.076,548.464 182.378,542.962 184.982,538.014 C187.514,532.879 191.06,528.681 195.623,525.42 C195.883,525.222 196.225,525.123 196.646,525.123 C197.068,525.123 197.378,525.222 197.576,525.42 C201.087,529.649 204.128,535.149 206.701,541.92 C209.274,548.691 210.56,555.024 210.56,560.92 C210.56,566.816 209.066,572.498 206.076,577.967 C202.691,583.759 198.326,589.748 192.982,595.936 C194.347,600.227 196.17,606.962 198.451,616.139 L199.045,616.139 C199.305,616.076 199.529,616.045 199.717,616.045 C207.081,616.045 213.089,618.634 217.74,623.811 C222.391,628.988 224.717,634.962 224.717,641.733 C224.717,650.129 221.238,656.899 214.279,662.045 C212.258,663.545 209.878,664.717 207.139,665.561 C207.472,669.79 207.639,672.605 207.639,674.006 C207.639,675.407 207.571,677.899 207.435,681.483 C207.373,687.597 205.29,692.837 201.185,697.201 C197.081,701.566 192.394,703.748 187.123,703.748 C181.852,703.748 177.36,701.876 173.646,698.131 C169.933,694.386 168.076,689.847 168.076,684.514 C168.076,681.712 169.154,679.332 171.31,677.373 C173.519,675.425 176.006,674.451 178.771,674.451 C181.537,674.451 183.8,675.462 185.56,677.483 C187.383,679.368 188.295,681.644 188.295,684.311 C188.295,686.977 187.383,689.222 185.56,691.045 C183.738,692.868 181.555,693.78 179.014,693.78 C177.972,693.78 176.967,693.587 175.998,693.201 C178.863,697.431 182.54,699.545 187.029,699.545 C191.519,699.545 195.36,697.691 198.553,693.983 C201.745,690.274 203.342,685.91 203.342,680.889 L203.623,673.858 M206.748,661.561 C210.133,660.321 212.821,658.123 214.81,654.967 C216.8,651.811 217.795,648.67 217.795,645.545 C217.795,640.92 216.199,636.785 213.006,633.139 C209.813,629.493 205.774,627.441 200.889,626.983 C203.691,640.722 205.644,652.248 206.748,661.561 M168.967,638.998 C168.967,645.446 171.537,651.079 176.678,655.897 C181.818,660.714 187.842,663.123 194.748,663.123 C197.477,663.123 200.144,662.925 202.748,662.53 C201.706,652.634 199.654,640.785 196.592,626.983 C192.758,627.379 189.782,628.699 187.662,630.944 C185.542,633.188 184.482,635.743 184.482,638.608 C184.482,643.556 187.123,647.561 192.404,650.623 C192.852,650.884 193.076,651.324 193.076,651.944 C193.076,652.563 192.865,653.1 192.443,653.553 C192.021,654.006 191.649,654.233 191.326,654.233 C191.003,654.233 190.581,654.17 190.06,654.045 C182.435,649.879 178.623,643.592 178.623,635.186 C178.623,631.217 180.024,627.41 182.826,623.764 C185.753,620.118 189.56,617.774 194.248,616.733 C192.425,609.441 190.93,603.743 189.764,599.639 C180.847,609.67 175.31,617.092 173.154,621.905 C170.363,628.155 168.967,633.852 168.967,638.998 M201.576,539.686 C196.691,542.092 192.834,545.574 190.006,550.131 C187.178,554.688 185.764,559.472 185.764,564.483 C185.764,569.493 186.935,575.972 189.279,583.92 C193.967,578.254 197.514,572.946 199.92,567.998 C202.326,563.05 203.529,558.152 203.529,553.303 C203.529,548.454 202.878,543.915 201.576,539.686"/>
<path class="TimeSig" d="M273.021,567.912 C274.516,567.912 275.949,567.686 277.318,567.233 C278.688,566.78 279.665,566.553 280.248,566.553 C280.831,566.553 281.222,566.907 281.42,567.615 C281.42,567.688 281.352,567.886 281.217,568.209 L252.811,601.225 L269.498,601.225 L269.498,588.131 C269.498,586.506 270.446,585.334 272.342,584.615 C274.29,583.897 276.503,581.001 278.982,575.928 C279.17,575.532 279.462,575.334 279.857,575.334 C280.639,575.334 281.092,575.793 281.217,576.709 L281.217,601.225 L288.357,601.225 C289.264,601.225 289.751,601.712 289.818,602.686 C289.886,603.66 289.399,604.147 288.357,604.147 L281.217,604.147 L281.217,604.928 C281.217,607.532 281.868,609.746 283.17,611.569 C284.67,613.391 286.43,614.303 288.451,614.303 C289.232,614.303 289.623,614.694 289.623,615.475 C289.623,616.256 289.087,616.647 288.014,616.647 C286.941,616.647 284.938,616.436 282.006,616.014 C279.074,615.592 276.811,615.381 275.217,615.381 C273.623,615.381 271.41,615.592 268.576,616.014 C265.743,616.436 263.613,616.647 262.186,616.647 C261.404,616.647 261.014,616.256 261.014,615.475 C261.014,614.694 261.404,614.303 262.186,614.303 C264.196,614.303 265.951,613.391 267.451,611.569 C268.816,609.683 269.498,607.47 269.498,604.928 L269.498,604.147 L252.811,604.147 C251.956,604.147 251.219,603.92 250.6,603.467 C249.98,603.014 249.67,602.592 249.67,602.201 C249.67,601.811 250.485,600.639 252.115,598.686 C253.745,596.733 256.074,592.972 259.1,587.405 C262.126,581.837 263.639,575.438 263.639,568.209 C263.639,567.168 264.097,566.647 265.014,566.647 C265.212,566.647 265.521,566.712 265.943,566.842 C266.365,566.972 267.277,567.183 268.678,567.475 C270.079,567.766 271.527,567.912 273.021,567.912"/>
<path class="TimeSig" d="M273.021,618.084 C274.516,618.084 275.949,617.858 277.318,617.405 C278.688,616.951 279.665,616.725 280.248,616.725 C280.831,616.725 281.222,617.079 281.42,617.787 C281.42,617.86 281.352,618.058 281.217,618.381 L252.811,651.397 L269.498,651.397 L269.498,638.303 C269.498,636.678 270.446,635.506 272.342,634.787 C274.29,634.069 276.503,631.173 278.982,626.1 C279.17,625.704 279.462,625.506 279.857,625.506 C280.639,625.506 281.092,625.964 281.217,626.881 L281.217,651.397 L288.357,651.397 C289.264,651.397 289.751,651.884 289.818,652.858 C289.886,653.832 289.399,654.319 288.357,654.319 L281.217,654.319 L281.217,655.1 C281.217,657.704 281.868,659.918 283.17,661.74 C284.67,663.563 286.43,664.475 288.451,664.475 C289.232,664.475 289.623,664.865 289.623,665.647 C289.623,666.428 289.087,666.819 288.014,666.819 C286.941,666.819 284.938,666.608 282.006,666.186 C279.074,665.764 276.811,665.553 275.217,665.553 C273.623,665.553 271.41,665.764 268.576,666.186 C265.743,666.608 263.613,666.819 262.186,666.819 C261.404,666.819 261.014,666.428 261.014,665.647 C261.014,664.865 261.404,664.475 262.186,664.475 C264.196,664.475 265.951,663.563 267.451,661.74 C268.816,659.855 269.498,657.642 269.498,655.1 L269.498,654.319 L252.811,654.319 C251.956,654.319 251.219,654.092 250.6,653.639 C249.98,653.186 249.67,652.764 249.67,652.373 C249.67,651.983 250.485,650.811 252.115,648.858 C253.745,646.905 256.074,643.144 259.1,637.576 C262.126,632.009 263.639,625.61 263.639,618.381 C263.639,617.339 264.097,616.819 265.014,616.819 C265.212,616.819 265.521,616.884 265.943,617.014 C266.365,617.144 267.277,617.355 268.678,617.647 C270.079,617.938 271.527,618.084 273.021,618.084"/>
</svg>
