<?xml version="1.0" encoding="UTF-8" standalone="no"?>
<svg width="2977.2px" height="4208.4px" viewBox="0 0 2977.2 4208.4"
 xmlns="http://www.w3.org/2000/svg" xmlns:xlink="http://www.w3.org/1999/xlink" version="1.2" baseProfile="tiny">
<title>Silent_Night.mscx</title>
<desc>Generated by MuseScore Studio 4.3.1</desc>
<path class="" fill="#ffffff" fill-rule="evenodd" d="M0,0 L2977.2,0 L2977.2,4208.4 L0,4208.4 L0,0 "/>
<polyline class="StaffLines" fill="none" stroke="#000000" stroke-width="2.00" stroke-linejoin="bevel" points="141.732,566.733 2835.47,566.733"/>
<polyline class="StaffLines" fill="none" stroke="#000000" stroke-width="2.00" stroke-linejoin="bevel" points="141.732,591.733 2835.47,591.733"/>
<polyline class="StaffLines" fill="none" stroke="#000000" stroke-width="2.00" stroke-linejoin="bevel" points="141.732,616.733 2835.47,616.733"/>
<polyline class="StaffLines" fill="none" stroke="#000000" stroke-width="2.00" stroke-linejoin="bevel" points="141.732,641.733 2835.47,641.733"/>
<polyline class="StaffLines" fill="none" stroke="#000000" stroke-width="2.00" stroke-linejoin="bevel" points="141.732,666.733 2835.47,666.733"/>
<polyline class="StaffLines" fill="none" stroke="#000000" stroke-width="2.00" stroke-linejoin="bevel" points="141.732,1041.73 2835.47,1041.73"/>
<polyline class="StaffLines" fill="none" stroke="#000000" stroke-width="2.00" stroke-linejoin="bevel" points="141.732,1066.73 2835.47,1066.73"/>
<polyline class="StaffLines" fill="none" stroke="#000000" stroke-width="2.00" stroke-linejoin="bevel" points="141.732,1091.73 2835.47,1091.73"/>
<polyline class="StaffLines" fill="none" stroke="#000000" stroke-width="2.00" stroke-linejoin="bevel" points="141.732,1116.73 2835.47,1116.73"/>
<polyline class="StaffLines" fill="none" stroke="#000000" stroke-width="2.00" stroke-linejoin="bevel" points="141.732,1141.73 2835.47,1141.73"/>
<polyline class="StaffLines" fill="none" stroke="#000000" stroke-width="2.00" stroke-linejoin="bevel" points="141.732,1516.73 2835.47,1516.73"/>
<polyline class="StaffLines" fill="none" stroke="#000000" stroke-width="2.00" stroke-linejoin="bevel" points="141.732,1541.73 2835.47,1541.73"/>
<polyline class="StaffLines" fill="none" stroke="#000000" stroke-width="2.00" stroke-linejoin="bevel" points="141.732,1566.73 2835.47,1566.73"/>
<polyline class="StaffLines" fill="none" stroke="#000000" stroke-width="2.00" stroke-linejoin="bevel" points="141.732,1591.73 2835.47,1591.73"/>
<polyline class="StaffLines" fill="none" stroke="#000000" stroke-width="2.00" stroke-linejoin="bevel" points="141.732,1616.73 2835.47,1616.73"/>
<polyline class="StaffLines" fill="none" stroke="#000000" stroke-width="2.00" stroke-linejoin="bevel" points="141.732,1991.73 2835.47,1991.73"/>
<polyline class="StaffLines" fill="none" stroke="#000000" stroke-width="2.00" stroke-linejoin="bevel" points="141.732,2016.73 2835.47,2016.73"/>
<polyline class="StaffLines" fill="none" stroke="#000000" stroke-width="2.00" stroke-linejoin="bevel" points="141.732,2041.73 2835.47,2041.73"/>
<polyline class="StaffLines" fill="none" stroke="#000000" stroke-width="2.00" stroke-linejoin="bevel" points="141.732,2066.73 2835.47,2066.73"/>
<polyline class="StaffLines" fill="none" stroke="#000000" stroke-width="2.00" stroke-linejoin="bevel" points="141.732,2091.73 2835.47,2091.73"/>
<path class="MeasureNumber" d="M127.045,1918.01 C126.566,1918.01 125.607,1918.31 124.17,1918.89 L124.17,1918.34 L131.373,1914.7 L131.685,1914.78 L131.685,1938.78 C131.685,1939.74 131.925,1940.36 132.404,1940.66 C132.883,1940.95 133.909,1941.11 135.482,1941.14 L135.482,1941.73 L124.451,1941.73 L124.451,1941.14 C125.941,1941.08 126.946,1940.85 127.467,1940.47 C127.988,1940.08 128.248,1939.26 128.248,1938.01 L128.248,1919.89 C128.248,1918.64 127.847,1918.01 127.045,1918.01 M156.271,1938.45 C154.62,1941.01 152.435,1942.3 149.717,1942.3 C146.998,1942.3 144.81,1940.99 143.154,1938.37 C141.498,1935.76 140.67,1932.4 140.67,1928.3 C140.67,1924.43 141.498,1921.2 143.154,1918.6 C144.81,1916 147.05,1914.7 149.873,1914.7 C152.488,1914.7 154.62,1915.98 156.271,1918.54 C157.922,1921.1 158.748,1924.43 158.748,1928.53 C158.748,1932.58 157.922,1935.89 156.271,1938.45 M149.748,1915.73 C146.258,1915.73 144.514,1920.04 144.514,1928.66 C144.514,1937.05 146.248,1941.25 149.717,1941.25 C153.185,1941.25 154.92,1937.04 154.92,1928.61 C154.92,1924.43 154.48,1921.24 153.6,1919.04 C152.719,1916.84 151.435,1915.73 149.748,1915.73"/>
<path class="MeasureNumber" d="M151.107,982.655 L151.107,985.061 L147.029,985.061 L147.029,991.733 L143.951,991.733 L143.951,985.061 L132.717,985.061 L132.717,982.655 L145.264,964.702 L147.029,964.702 L147.029,982.655 L151.107,982.655 M143.904,982.655 L143.904,968.936 L134.31,982.655 L143.904,982.655 "/>
<path class="MeasureNumber" d="M150.685,1440.26 L150.685,1440.89 L142.217,1467.05 L139.607,1467.05 L147.529,1443.17 L138.857,1443.17 C137.764,1443.17 136.93,1443.37 136.357,1443.77 C135.784,1444.17 135.071,1445.06 134.217,1446.42 L133.529,1446.11 L135.889,1440.26 L150.685,1440.26 "/>
<polyline class="BarLine" fill="none" stroke="#000000" stroke-width="4.00" stroke-linejoin="bevel" points="2037.39,565.733 2037.39,667.733"/>
<polyline class="BarLine" fill="none" stroke="#000000" stroke-width="4.00" stroke-linejoin="bevel" points="2833.47,565.733 2833.47,667.733"/>
<polyline class="BarLine" fill="none" stroke="#000000" stroke-width="4.00" stroke-linejoin="bevel" points="1035.1,1040.73 1035.1,1142.73"/>
<polyline class="BarLine" fill="none" stroke="#000000" stroke-width="4.00" stroke-linejoin="bevel" points="1165.61,565.733 1165.61,667.733"/>
<polyline class="BarLine" fill="none" stroke="#000000" stroke-width="4.00" stroke-linejoin="bevel" points="1985,1040.73 1985,1142.73"/>
<polyline class="BarLine" fill="none" stroke="#000000" stroke-width="4.00" stroke-linejoin="bevel" points="2833.47,1040.73 2833.47,1142.73"/>
<polyline class="BarLine" fill="none" stroke="#000000" stroke-width="4.00" stroke-linejoin="bevel" points="1030.7,1990.73 1030.7,2092.73"/>
<polyline class="BarLine" fill="none" stroke="#000000" stroke-width="4.00" stroke-linejoin="bevel" points="1149.56,1515.73 1149.56,1617.73"/>
<polyline class="BarLine" fill="none" stroke="#000000" stroke-width="4.00" stroke-linejoin="bevel" points="2216.71,1990.73 2216.71,2092.73"/>
<polyline class="BarLine" fill="none" stroke="#000000" stroke-width="4.00" stroke-linejoin="bevel" points="1944.14,1515.73 1944.14,1617.73"/>
<polyline class="BarLine" fill="none" stroke="#000000" stroke-width="4.00" stroke-linejoin="bevel" points="2833.47,1515.73 2833.47,1617.73"/>
<polyline class="BarLine" fill="none" stroke="#000000" stroke-width="4.00" stroke-linejoin="bevel" points="2802.72,1990.73 2802.72,2092.73"/>
<polyline class="BarLine" fill="none" stroke="#000000" stroke-width="12.50" stroke-linejoin="bevel" points="2829.22,1990.73 2829.22,2092.73"/>
<polyline class="LedgerLine" fill="none" stroke="#000000" stroke-width="4.00" stroke-linejoin="bevel" points="2357.42,1491.73 2409.34,1491.73"/>
<polyline class="LedgerLine" fill="none" stroke="#000000" stroke-width="4.00" stroke-linejoin="bevel" points="277.732,1016.73 329.647,1016.73"/>
<polyline class="LedgerLine" fill="none" stroke="#000000" stroke-width="4.00" stroke-linejoin="bevel" points="277.732,991.733 329.647,991.733"/>
<polyline class="LedgerLine" fill="none" stroke="#000000" stroke-width="4.00" stroke-linejoin="bevel" points="515.202,1491.73 567.117,1491.73"/>
<polyline class="LedgerLine" fill="none" stroke="#000000" stroke-width="4.00" stroke-linejoin="bevel" points="531.919,1016.73 583.834,1016.73"/>
<polyline class="LedgerLine" fill="none" stroke="#000000" stroke-width="4.00" stroke-linejoin="bevel" points="531.919,991.733 583.834,991.733"/>
<polyline class="LedgerLine" fill="none" stroke="#000000" stroke-width="4.00" stroke-linejoin="bevel" points="277.732,1966.73 329.647,1966.73"/>
<polyline class="LedgerLine" fill="none" stroke="#000000" stroke-width="4.00" stroke-linejoin="bevel" points="532.26,541.733 584.174,541.733"/>
<polyline class="LedgerLine" fill="none" stroke="#000000" stroke-width="4.00" stroke-linejoin="bevel" points="2357.42,1441.73 2409.34,1441.73"/>
<polyline class="LedgerLine" fill="none" stroke="#000000" stroke-width="4.00" stroke-linejoin="bevel" points="277.732,1941.73 329.647,1941.73"/>
<polyline class="LedgerLine" fill="none" stroke="#000000" stroke-width="4.00" stroke-linejoin="bevel" points="1052.6,1016.73 1104.52,1016.73"/>
<polyline class="LedgerLine" fill="none" stroke="#000000" stroke-width="4.00" stroke-linejoin="bevel" points="2357.42,1466.73 2409.34,1466.73"/>
<polyline class="LedgerLine" fill="none" stroke="#000000" stroke-width="4.00" stroke-linejoin="bevel" points="1306.79,1016.73 1358.7,1016.73"/>
<polyline class="LedgerLine" fill="none" stroke="#000000" stroke-width="4.00" stroke-linejoin="bevel" points="277.732,1491.73 329.647,1491.73"/>
<polyline class="LedgerLine" fill="none" stroke="#000000" stroke-width="4.00" stroke-linejoin="bevel" points="1476.25,1016.73 1528.16,1016.73"/>
<polyline class="LedgerLine" fill="none" stroke="#000000" stroke-width="4.00" stroke-linejoin="bevel" points="1476.25,991.733 1528.16,991.733"/>
<polyline class="LedgerLine" fill="none" stroke="#000000" stroke-width="4.00" stroke-linejoin="bevel" points="1961.64,1491.73 2013.55,1491.73"/>
<polyline class="LedgerLine" fill="none" stroke="#000000" stroke-width="4.00" stroke-linejoin="bevel" points="1961.64,1466.73 2013.55,1466.73"/>
<polyline class="LedgerLine" fill="none" stroke="#000000" stroke-width="4.00" stroke-linejoin="bevel" points="1691.07,1016.73 1742.98,1016.73"/>
<polyline class="LedgerLine" fill="none" stroke="#000000" stroke-width="4.00" stroke-linejoin="bevel" points="2199.11,1466.73 2251.02,1466.73"/>
<polyline class="LedgerLine" fill="none" stroke="#000000" stroke-width="4.00" stroke-linejoin="bevel" points="2217.31,1016.73 2269.23,1016.73"/>
<polyline class="LedgerLine" fill="none" stroke="#000000" stroke-width="4.00" stroke-linejoin="bevel" points="1804.04,1016.73 1855.95,1016.73"/>
<polyline class="LedgerLine" fill="none" stroke="#000000" stroke-width="4.00" stroke-linejoin="bevel" points="2199.11,1491.73 2251.02,1491.73"/>
<polyline class="LedgerLine" fill="none" stroke="#000000" stroke-width="4.00" stroke-linejoin="bevel" points="1048.2,1941.73 1100.12,1941.73"/>
<polyline class="LedgerLine" fill="none" stroke="#000000" stroke-width="4.00" stroke-linejoin="bevel" points="1048.2,1966.73 1100.12,1966.73"/>
<polyline class="LedgerLine" fill="none" stroke="#000000" stroke-width="4.00" stroke-linejoin="bevel" points="673.516,1491.73 725.43,1491.73"/>
<polyline class="LedgerLine" fill="none" stroke="#000000" stroke-width="4.00" stroke-linejoin="bevel" points="1367.75,1491.73 1419.66,1491.73"/>
<polyline class="LedgerLine" fill="none" stroke="#000000" stroke-width="4.00" stroke-linejoin="bevel" points="648.467,1966.73 700.381,1966.73"/>
<polyline class="LedgerLine" fill="none" stroke="#000000" stroke-width="4.00" stroke-linejoin="bevel" points="1404.04,541.733 1455.95,541.733"/>
<polyline class="LedgerLine" fill="none" stroke="#000000" stroke-width="4.00" stroke-linejoin="bevel" points="2054.89,541.733 2106.8,541.733"/>
<polyline class="LedgerLine" fill="none" stroke="#000000" stroke-width="4.00" stroke-linejoin="bevel" points="2054.89,516.733 2106.8,516.733"/>
<polyline class="LedgerLine" fill="none" stroke="#000000" stroke-width="4.00" stroke-linejoin="bevel" points="2663.65,1491.73 2715.57,1491.73"/>
<polyline class="LedgerLine" fill="none" stroke="#000000" stroke-width="4.00" stroke-linejoin="bevel" points="979.747,1491.73 1031.66,1491.73"/>
<polyline class="LedgerLine" fill="none" stroke="#000000" stroke-width="4.00" stroke-linejoin="bevel" points="2316.3,541.733 2368.22,541.733"/>
<polyline class="LedgerLine" fill="none" stroke="#000000" stroke-width="4.00" stroke-linejoin="bevel" points="2316.3,516.733 2368.22,516.733"/>
<polyline class="LedgerLine" fill="none" stroke="#000000" stroke-width="4.00" stroke-linejoin="bevel" points="874.205,1491.73 926.119,1491.73"/>
<polyline class="LedgerLine" fill="none" stroke="#000000" stroke-width="4.00" stroke-linejoin="bevel" points="648.467,1941.73 700.381,1941.73"/>
<polyline class="LedgerLine" fill="none" stroke="#000000" stroke-width="4.00" stroke-linejoin="bevel" points="648.467,1916.73 700.381,1916.73"/>
<polyline class="LedgerLine" fill="none" stroke="#000000" stroke-width="4.00" stroke-linejoin="bevel" points="673.516,1466.73 725.43,1466.73"/>
<polyline class="LedgerLine" fill="none" stroke="#000000" stroke-width="4.00" stroke-linejoin="bevel" points="2558.11,1466.73 2610.03,1466.73"/>
<polyline class="LedgerLine" fill="none" stroke="#000000" stroke-width="4.00" stroke-linejoin="bevel" points="2558.11,1491.73 2610.03,1491.73"/>
<polyline class="LedgerLine" fill="none" stroke="#000000" stroke-width="4.00" stroke-linejoin="bevel" points="2490.58,541.733 2542.49,541.733"/>
<polyline class="Stem" fill="none" stroke="#000000" stroke-width="3.25" stroke-linejoin="bevel" points="2510.87,1060.1 2510.87,1141.73"/>
<polyline class="Stem" fill="none" stroke="#000000" stroke-width="3.25" stroke-linejoin="bevel" points="684.641,1472.6 684.641,1560.55"/>
<polyline class="Stem" fill="none" stroke="#000000" stroke-width="3.25" stroke-linejoin="bevel" points="1059.33,1947.6 1059.33,2041.86"/>
<polyline class="Stem" fill="none" stroke="#000000" stroke-width="3.25" stroke-linejoin="bevel" points="1378.88,1497.6 1378.88,1585.48"/>
<polyline class="Stem" fill="none" stroke="#000000" stroke-width="3.25" stroke-linejoin="bevel" points="2228.44,1022.6 2228.44,1110.48"/>
<polyline class="Stem" fill="none" stroke="#000000" stroke-width="3.25" stroke-linejoin="bevel" points="659.592,1922.6 659.592,2041.73"/>
<polyline class="Stem" fill="none" stroke="#000000" stroke-width="3.25" stroke-linejoin="bevel" points="1178.19,1510.1 1178.19,1585.48"/>
<polyline class="Stem" fill="none" stroke="#000000" stroke-width="3.25" stroke-linejoin="bevel" points="543.385,547.602 543.385,635.483"/>
<polyline class="Stem" fill="none" stroke="#000000" stroke-width="3.25" stroke-linejoin="bevel" points="1484.42,1510.1 1484.42,1585.48"/>
<polyline class="Stem" fill="none" stroke="#000000" stroke-width="3.25" stroke-linejoin="bevel" points="2341.41,1035.1 2341.41,1110.48"/>
<polyline class="Stem" fill="none" stroke="#000000" stroke-width="3.25" stroke-linejoin="bevel" points="526.328,1497.6 526.328,1579.83"/>
<polyline class="Stem" fill="none" stroke="#000000" stroke-width="3.25" stroke-linejoin="bevel" points="1531.35,560.102 1531.35,635.483"/>
<polyline class="Stem" fill="none" stroke="#000000" stroke-width="3.25" stroke-linejoin="bevel" points="1642.73,1535.1 1642.73,1616.73"/>
<polyline class="Stem" fill="none" stroke="#000000" stroke-width="3.25" stroke-linejoin="bevel" points="1972.76,1460.1 1972.76,1566.73"/>
<polyline class="Stem" fill="none" stroke="#000000" stroke-width="3.25" stroke-linejoin="bevel" points="990.872,1497.6 990.872,1572.92"/>
<polyline class="Stem" fill="none" stroke="#000000" stroke-width="3.25" stroke-linejoin="bevel" points="833.847,585.102 833.847,666.733"/>
<polyline class="Stem" fill="none" stroke="#000000" stroke-width="3.25" stroke-linejoin="bevel" points="322.459,560.102 322.459,635.483"/>
<polyline class="Stem" fill="none" stroke="#000000" stroke-width="3.25" stroke-linejoin="bevel" points="288.857,1497.6 288.857,1579.23"/>
<polyline class="Stem" fill="none" stroke="#000000" stroke-width="3.25" stroke-linejoin="bevel" points="659.57,560.102 659.57,635.483"/>
<polyline class="Stem" fill="none" stroke="#000000" stroke-width="3.25" stroke-linejoin="bevel" points="885.33,1485.1 885.33,1568.65"/>
<polyline class="Stem" fill="none" stroke="#000000" stroke-width="3.25" stroke-linejoin="bevel" points="2013.62,1035.1 2013.62,1110.48"/>
<polyline class="Stem" fill="none" stroke="#000000" stroke-width="3.25" stroke-linejoin="bevel" points="1705.62,585.102 1705.62,666.733"/>
<polyline class="Stem" fill="none" stroke="#000000" stroke-width="3.25" stroke-linejoin="bevel" points="2245.34,2034.13 2245.34,2110.48"/>
<polyline class="Stem" fill="none" stroke="#000000" stroke-width="3.25" stroke-linejoin="bevel" points="1891.39,1997.6 1891.39,2089.57"/>
<polyline class="Stem" fill="none" stroke="#000000" stroke-width="3.25" stroke-linejoin="bevel" points="1415.16,547.602 1415.16,635.483"/>
<polyline class="Stem" fill="none" stroke="#000000" stroke-width="3.25" stroke-linejoin="bevel" points="2066.01,510.102 2066.01,616.733"/>
<polyline class="Stem" fill="none" stroke="#000000" stroke-width="3.25" stroke-linejoin="bevel" points="2327.43,510.102 2327.43,617.333"/>
<polyline class="Stem" fill="none" stroke="#000000" stroke-width="3.25" stroke-linejoin="bevel" points="2674.78,1485.1 2674.78,1572.92"/>
<polyline class="Stem" fill="none" stroke="#000000" stroke-width="3.25" stroke-linejoin="bevel" points="2501.7,535.102 2501.7,616.733"/>
<polyline class="Stem" fill="none" stroke="#000000" stroke-width="3.25" stroke-linejoin="bevel" points="1644.23,1985.1 1644.23,2085.51"/>
<polyline class="Stem" fill="none" stroke="#000000" stroke-width="3.25" stroke-linejoin="bevel" points="2021.37,2022.6 2021.37,2091.71"/>
<polyline class="Stem" fill="none" stroke="#000000" stroke-width="3.25" stroke-linejoin="bevel" points="2569.24,1460.1 2569.24,1568.65"/>
<polyline class="Stem" fill="none" stroke="#000000" stroke-width="3.25" stroke-linejoin="bevel" points="1449.27,2010.1 1449.27,2072.85"/>
<polyline class="Stem" fill="none" stroke="#000000" stroke-width="3.25" stroke-linejoin="bevel" points="288.857,997.602 288.857,1091.73"/>
<polyline class="Stem" fill="none" stroke="#000000" stroke-width="3.25" stroke-linejoin="bevel" points="288.857,1947.6 288.857,2041.73"/>
<polyline class="Stem" fill="none" stroke="#000000" stroke-width="3.25" stroke-linejoin="bevel" points="543.044,997.602 543.044,1092.33"/>
<polyline class="Stem" fill="none" stroke="#000000" stroke-width="3.25" stroke-linejoin="bevel" points="1317.92,1022.6 1317.92,1104.83"/>
<polyline class="Stem" fill="none" stroke="#000000" stroke-width="3.25" stroke-linejoin="bevel" points="1815.16,1022.6 1815.16,1097.92"/>
<polyline class="Stem" fill="none" stroke="#000000" stroke-width="3.25" stroke-linejoin="bevel" points="1702.19,1010.1 1702.19,1093.66"/>
<polyline class="Stem" fill="none" stroke="#000000" stroke-width="3.25" stroke-linejoin="bevel" points="2210.24,1460.1 2210.24,1567.33"/>
<polyline class="Stem" fill="none" stroke="#000000" stroke-width="3.25" stroke-linejoin="bevel" points="1254.3,1985.1 1254.3,2057.36"/>
<polyline class="Stem" fill="none" stroke="#000000" stroke-width="3.25" stroke-linejoin="bevel" points="2368.55,1435.1 2368.55,1560.55"/>
<polyline class="Stem" fill="none" stroke="#000000" stroke-width="3.25" stroke-linejoin="bevel" points="1487.37,997.602 1487.37,1085.54"/>
<polyline class="Stem" fill="none" stroke="#000000" stroke-width="3.25" stroke-linejoin="bevel" points="1063.73,1022.6 1063.73,1104.23"/>
<polyline class="Stem" fill="none" stroke="#000000" stroke-width="3.25" stroke-linejoin="bevel" points="1194.24,560.102 1194.24,635.483"/>
<polyline class="Stem" fill="none" stroke="#000000" stroke-width="3.25" stroke-linejoin="bevel" points="712.503,1035.1 712.503,1116.73"/>
<path class="Hook" d="M1339.04,1031.87 C1340.54,1031.87 1342.12,1034.3 1343.78,1039.15 C1345.44,1044 1346.27,1048.44 1346.27,1052.48 C1346.27,1056.51 1345.35,1060.42 1343.49,1064.19 C1341.64,1067.97 1339.41,1071.29 1336.81,1074.15 L1328.79,1083.14 C1326.32,1086 1324.14,1089.29 1322.25,1093 C1320.36,1096.71 1319.42,1100.45 1319.42,1104.23 L1316.29,1104.23 L1316.29,1079.23 L1319.42,1079.23 C1330.35,1072.33 1337.22,1066.21 1340.02,1060.87 C1341.39,1058.27 1342.07,1055.63 1342.07,1052.97 C1342.07,1046.78 1340.28,1040.62 1336.7,1034.5 L1336.7,1034.11 C1336.7,1033.52 1336.93,1033.01 1337.38,1032.55 C1337.84,1032.1 1338.39,1031.87 1339.04,1031.87"/>
<path class="Hook" d="M2231.36,1494.37 C2232.86,1494.37 2234.44,1496.8 2236.1,1501.65 C2237.76,1506.5 2238.59,1510.94 2238.59,1514.98 C2238.59,1519.01 2237.67,1522.92 2235.81,1526.69 C2233.96,1530.47 2231.73,1533.79 2229.13,1536.66 L2221.11,1545.64 C2218.64,1548.5 2216.46,1551.79 2214.57,1555.5 C2212.68,1559.21 2211.74,1562.95 2211.74,1566.73 L2208.61,1566.73 L2208.61,1541.73 L2211.74,1541.73 C2222.67,1534.83 2229.54,1528.71 2232.34,1523.37 C2233.71,1520.77 2234.39,1518.13 2234.39,1515.47 C2234.39,1509.28 2232.6,1503.12 2229.02,1497 L2229.02,1496.61 C2229.02,1496.02 2229.25,1495.51 2229.7,1495.05 C2230.16,1494.6 2230.71,1494.37 2231.36,1494.37"/>
<path class="Hook" d="M564.169,1019.37 C565.669,1019.37 567.25,1021.8 568.912,1026.65 C570.573,1031.5 571.404,1035.94 571.404,1039.98 C571.404,1044.01 570.477,1047.92 568.623,1051.69 C566.768,1055.47 564.539,1058.79 561.935,1061.65 L553.919,1070.64 C551.451,1073.5 549.271,1076.79 547.38,1080.5 C545.49,1084.21 544.544,1087.95 544.544,1091.73 L541.419,1091.73 L541.419,1066.73 L544.544,1066.73 C555.482,1059.83 562.352,1053.71 565.154,1048.37 C566.518,1045.77 567.201,1043.13 567.201,1040.47 C567.201,1034.28 565.409,1028.12 561.826,1022 L561.826,1021.61 C561.826,1021.02 562.055,1020.51 562.513,1020.05 C562.972,1019.6 563.524,1019.37 564.169,1019.37"/>
<path class="Hook" d="M547.453,1506.87 C548.953,1506.87 550.533,1509.3 552.195,1514.15 C553.856,1519 554.687,1523.44 554.687,1527.48 C554.687,1531.51 553.76,1535.42 551.906,1539.19 C550.051,1542.97 547.822,1546.29 545.218,1549.16 L537.203,1558.14 C534.734,1561 532.554,1564.29 530.663,1568 C528.773,1571.71 527.828,1575.45 527.828,1579.23 L524.703,1579.23 L524.703,1554.23 L527.828,1554.23 C538.765,1547.33 545.635,1541.21 548.437,1535.87 C549.801,1533.27 550.484,1530.63 550.484,1527.97 C550.484,1521.78 548.692,1515.62 545.109,1509.5 L545.109,1509.11 C545.109,1508.52 545.338,1508.01 545.796,1507.55 C546.255,1507.1 546.807,1506.87 547.453,1506.87"/>
<path class="Hook" d="M2348.55,544.373 C2350.05,544.373 2351.63,546.798 2353.29,551.647 C2354.96,556.496 2355.79,560.938 2355.79,564.975 C2355.79,569.011 2354.86,572.918 2353.01,576.694 C2351.15,580.47 2348.92,583.79 2346.32,586.655 L2338.3,595.639 C2335.83,598.503 2333.65,601.79 2331.76,605.498 C2329.87,609.207 2328.93,612.951 2328.93,616.733 L2325.8,616.733 L2325.8,591.733 L2328.93,591.733 C2339.86,584.826 2346.73,578.707 2349.54,573.373 C2350.9,570.769 2351.58,568.134 2351.58,565.467 C2351.58,559.28 2349.79,553.123 2346.21,546.998 L2346.21,546.608 C2346.21,546.024 2346.44,545.506 2346.9,545.053 C2347.35,544.6 2347.91,544.373 2348.55,544.373"/>
<path class="Note" d="M2361.75,1015.47 C2364.88,1015.47 2367.48,1016.25 2369.57,1017.81 C2371.65,1019.37 2372.69,1021.62 2372.69,1024.55 C2372.69,1029.04 2370.37,1033.23 2365.71,1037.14 C2361.06,1041.05 2356.07,1043 2350.72,1043 C2347.6,1043 2344.96,1042.19 2342.82,1040.56 C2340.8,1038.8 2339.78,1036.59 2339.78,1033.92 C2339.78,1029.56 2342.1,1025.39 2346.72,1021.42 C2351.35,1017.45 2356.36,1015.47 2361.75,1015.47"/>
<path class="Note" d="M1399.22,1477.97 C1402.34,1477.97 1404.95,1478.75 1407.03,1480.31 C1409.11,1481.87 1410.16,1484.12 1410.16,1487.05 C1410.16,1491.54 1407.83,1495.73 1403.18,1499.64 C1398.53,1503.55 1393.53,1505.5 1388.19,1505.5 C1385.06,1505.5 1382.43,1504.69 1380.28,1503.06 C1378.26,1501.3 1377.25,1499.09 1377.25,1496.42 C1377.25,1492.06 1379.56,1487.89 1384.19,1483.92 C1388.81,1479.95 1393.82,1477.97 1399.22,1477.97"/>
<path class="Note" d="M1993.11,1440.47 C1996.23,1440.47 1998.84,1441.25 2000.92,1442.81 C2003,1444.37 2004.05,1446.62 2004.05,1449.55 C2004.05,1454.04 2001.72,1458.23 1997.07,1462.14 C1992.42,1466.05 1987.42,1468 1982.08,1468 C1978.95,1468 1976.32,1467.19 1974.17,1465.56 C1972.15,1463.8 1971.14,1461.59 1971.14,1458.92 C1971.14,1454.56 1973.45,1450.39 1978.08,1446.42 C1982.7,1442.45 1987.71,1440.47 1993.11,1440.47"/>
<path class="Note" d="M2695.12,1465.47 C2698.25,1465.47 2700.85,1466.25 2702.94,1467.81 C2705.02,1469.37 2706.06,1471.62 2706.06,1474.55 C2706.06,1479.04 2703.74,1483.23 2699.08,1487.14 C2694.43,1491.05 2689.44,1493 2684.09,1493 C2680.97,1493 2678.33,1492.19 2676.19,1490.56 C2674.17,1488.8 2673.15,1486.59 2673.15,1483.92 C2673.15,1479.56 2675.47,1475.39 2680.09,1471.42 C2684.72,1467.45 2689.73,1465.47 2695.12,1465.47"/>
<path class="Note" d="M2251.14,2039.87 C2253.02,2039.87 2256.98,2037.92 2263,2034.01 C2269.03,2030.11 2272.58,2027.49 2273.65,2026.16 C2274.72,2024.82 2275.26,2023.63 2275.26,2022.59 C2275.26,2021.55 2274.84,2020.62 2273.99,2019.81 C2273.14,2019 2272.16,2018.59 2271.06,2018.59 C2269.11,2018.59 2265.12,2020.56 2259.1,2024.5 C2253.07,2028.44 2249.54,2031.06 2248.49,2032.36 C2247.45,2033.66 2246.93,2034.83 2246.93,2035.87 C2246.93,2036.92 2247.34,2037.84 2248.16,2038.66 C2248.98,2039.47 2249.97,2039.87 2251.14,2039.87 M2270.09,2015.47 C2275.68,2015.47 2278.48,2017.87 2278.48,2022.69 C2278.48,2025.03 2277.8,2027.75 2276.43,2030.84 C2275.07,2033.94 2273.24,2036.3 2270.96,2037.92 C2265.95,2041.31 2259.67,2043 2252.12,2043 C2246.52,2043 2243.71,2040.59 2243.71,2035.78 C2243.71,2033.63 2244.38,2030.97 2245.71,2027.77 C2247.05,2024.58 2248.89,2022.17 2251.23,2020.55 C2256.25,2017.16 2262.54,2015.47 2270.09,2015.47"/>
<path class="Note" d="M2230.58,1440.47 C2233.7,1440.47 2236.31,1441.25 2238.39,1442.81 C2240.47,1444.37 2241.52,1446.62 2241.52,1449.55 C2241.52,1454.04 2239.19,1458.23 2234.54,1462.14 C2229.89,1466.05 2224.89,1468 2219.55,1468 C2216.42,1468 2213.79,1467.19 2211.64,1465.56 C2209.62,1463.8 2208.61,1461.59 2208.61,1458.92 C2208.61,1454.56 2210.92,1450.39 2215.55,1446.42 C2220.17,1442.45 2225.18,1440.47 2230.58,1440.47"/>
<path class="Note" d="M1504.76,1490.47 C1507.89,1490.47 1510.49,1491.25 1512.57,1492.81 C1514.66,1494.37 1515.7,1496.62 1515.7,1499.55 C1515.7,1504.04 1513.37,1508.23 1508.72,1512.14 C1504.07,1516.05 1499.07,1518 1493.73,1518 C1490.6,1518 1487.97,1517.19 1485.82,1515.56 C1483.8,1513.8 1482.79,1511.59 1482.79,1508.92 C1482.79,1504.56 1485.1,1500.39 1489.73,1496.42 C1494.35,1492.45 1499.37,1490.47 1504.76,1490.47"/>
<path class="Note" d="M2589.58,1440.47 C2592.71,1440.47 2595.31,1441.25 2597.39,1442.81 C2599.48,1444.37 2600.52,1446.62 2600.52,1449.55 C2600.52,1454.04 2598.19,1458.23 2593.54,1462.14 C2588.89,1466.05 2583.89,1468 2578.55,1468 C2575.43,1468 2572.79,1467.19 2570.64,1465.56 C2568.62,1463.8 2567.61,1461.59 2567.61,1458.92 C2567.61,1454.56 2569.93,1450.39 2574.55,1446.42 C2579.18,1442.45 2584.19,1440.47 2589.58,1440.47"/>
<path class="Note" d="M1663.07,1515.47 C1666.2,1515.47 1668.8,1516.25 1670.89,1517.81 C1672.97,1519.37 1674.01,1521.62 1674.01,1524.55 C1674.01,1529.04 1671.69,1533.23 1667.04,1537.14 C1662.38,1541.05 1657.39,1543 1652.04,1543 C1648.92,1543 1646.28,1542.19 1644.14,1540.56 C1642.12,1538.8 1641.11,1536.59 1641.11,1533.92 C1641.11,1529.56 1643.42,1525.39 1648.04,1521.42 C1652.67,1517.45 1657.68,1515.47 1663.07,1515.47"/>
<path class="Note" d="M2388.89,1415.47 C2392.02,1415.47 2394.62,1416.25 2396.7,1417.81 C2398.79,1419.37 2399.83,1421.62 2399.83,1424.55 C2399.83,1429.04 2397.5,1433.23 2392.85,1437.14 C2388.2,1441.05 2383.2,1443 2377.86,1443 C2374.74,1443 2372.1,1442.19 2369.95,1440.56 C2367.93,1438.8 2366.92,1436.59 2366.92,1433.92 C2366.92,1429.56 2369.24,1425.39 2373.86,1421.42 C2378.49,1417.45 2383.5,1415.47 2388.89,1415.47"/>
<path class="Note" d="M309.201,1927.97 C312.326,1927.97 314.93,1928.75 317.014,1930.31 C319.097,1931.87 320.139,1934.12 320.139,1937.05 C320.139,1941.54 317.813,1945.73 313.162,1949.64 C308.511,1953.55 303.514,1955.5 298.17,1955.5 C295.045,1955.5 292.41,1954.69 290.264,1953.06 C288.243,1951.3 287.232,1949.09 287.232,1946.42 C287.232,1942.06 289.545,1937.89 294.17,1933.92 C298.795,1929.95 303.805,1927.97 309.201,1927.97"/>
<path class="Note" d="M342.803,540.467 C345.928,540.467 348.532,541.248 350.615,542.811 C352.699,544.373 353.74,546.618 353.74,549.545 C353.74,554.035 351.415,558.233 346.764,562.139 C342.113,566.045 337.115,567.998 331.772,567.998 C328.647,567.998 326.011,567.186 323.865,565.561 C321.844,563.8 320.834,561.587 320.834,558.92 C320.834,554.556 323.147,550.389 327.772,546.42 C332.397,542.451 337.407,540.467 342.803,540.467"/>
<path class="Note" d="M1214.58,540.467 C1217.7,540.467 1220.31,541.248 1222.39,542.811 C1224.48,544.373 1225.52,546.618 1225.52,549.545 C1225.52,554.035 1223.19,558.233 1218.54,562.139 C1213.89,566.045 1208.89,567.998 1203.55,567.998 C1200.42,567.998 1197.79,567.186 1195.64,565.561 C1193.62,563.8 1192.61,561.587 1192.61,558.92 C1192.61,554.556 1194.92,550.389 1199.55,546.42 C1204.17,542.451 1209.18,540.467 1214.58,540.467"/>
<path class="Note" d="M1507.72,977.967 C1510.84,977.967 1513.45,978.749 1515.53,980.311 C1517.61,981.874 1518.65,984.118 1518.65,987.045 C1518.65,991.535 1516.33,995.733 1511.68,999.639 C1507.03,1003.55 1502.03,1005.5 1496.69,1005.5 C1493.56,1005.5 1490.93,1004.69 1488.78,1003.06 C1486.76,1001.3 1485.75,999.087 1485.75,996.42 C1485.75,992.056 1488.06,987.889 1492.69,983.92 C1497.31,979.952 1502.32,977.967 1507.72,977.967"/>
<path class="Note" d="M1338.26,1002.97 C1341.38,1002.97 1343.99,1003.75 1346.07,1005.31 C1348.15,1006.87 1349.2,1009.12 1349.2,1012.05 C1349.2,1016.53 1346.87,1020.73 1342.22,1024.64 C1337.57,1028.55 1332.57,1030.5 1327.23,1030.5 C1324.1,1030.5 1321.47,1029.69 1319.32,1028.06 C1317.3,1026.3 1316.29,1024.09 1316.29,1021.42 C1316.29,1017.06 1318.6,1012.89 1323.23,1008.92 C1327.85,1004.95 1332.86,1002.97 1338.26,1002.97"/>
<path class="Note" d="M1084.07,1002.97 C1087.2,1002.97 1089.8,1003.75 1091.88,1005.31 C1093.97,1006.87 1095.01,1009.12 1095.01,1012.05 C1095.01,1016.53 1092.68,1020.73 1088.03,1024.64 C1083.38,1028.55 1078.38,1030.5 1073.04,1030.5 C1069.92,1030.5 1067.28,1029.69 1065.13,1028.06 C1063.11,1026.3 1062.1,1024.09 1062.1,1021.42 C1062.1,1017.06 1064.42,1012.89 1069.04,1008.92 C1073.67,1004.95 1078.68,1002.97 1084.07,1002.97"/>
<path class="Note" d="M1274.64,1965.47 C1277.76,1965.47 1280.37,1966.25 1282.45,1967.81 C1284.54,1969.37 1285.58,1971.62 1285.58,1974.55 C1285.58,1979.04 1283.25,1983.23 1278.6,1987.14 C1273.95,1991.05 1268.95,1993 1263.61,1993 C1260.48,1993 1257.85,1992.19 1255.7,1990.56 C1253.68,1988.8 1252.67,1986.59 1252.67,1983.92 C1252.67,1979.56 1254.98,1975.39 1259.61,1971.42 C1264.23,1967.45 1269.24,1965.47 1274.64,1965.47"/>
<path class="Note" d="M732.846,1015.47 C735.971,1015.47 738.575,1016.25 740.659,1017.81 C742.742,1019.37 743.784,1021.62 743.784,1024.55 C743.784,1029.04 741.458,1033.23 736.807,1037.14 C732.156,1041.05 727.159,1043 721.815,1043 C718.69,1043 716.055,1042.19 713.909,1040.56 C711.888,1038.8 710.878,1036.59 710.878,1033.92 C710.878,1029.56 713.19,1025.39 717.815,1021.42 C722.44,1017.45 727.45,1015.47 732.846,1015.47"/>
<path class="Note" d="M563.388,977.967 C566.513,977.967 569.117,978.749 571.201,980.311 C573.284,981.874 574.326,984.118 574.326,987.045 C574.326,991.535 572,995.733 567.349,999.639 C562.698,1003.55 557.701,1005.5 552.357,1005.5 C549.232,1005.5 546.597,1004.69 544.451,1003.06 C542.43,1001.3 541.419,999.087 541.419,996.42 C541.419,992.056 543.732,987.889 548.357,983.92 C552.982,979.952 557.992,977.967 563.388,977.967"/>
<path class="Note" d="M309.201,977.967 C312.326,977.967 314.93,978.749 317.014,980.311 C319.097,981.874 320.139,984.118 320.139,987.045 C320.139,991.535 317.813,995.733 313.162,999.639 C308.511,1003.55 303.514,1005.5 298.17,1005.5 C295.045,1005.5 292.41,1004.69 290.264,1003.06 C288.243,1001.3 287.232,999.087 287.232,996.42 C287.232,992.056 289.545,987.889 294.17,983.92 C298.795,979.952 303.805,977.967 309.201,977.967"/>
<path class="Note" d="M1469.61,1990.47 C1472.73,1990.47 1475.34,1991.25 1477.42,1992.81 C1479.5,1994.37 1480.55,1996.62 1480.55,1999.55 C1480.55,2004.04 1478.22,2008.23 1473.57,2012.14 C1468.92,2016.05 1463.92,2018 1458.58,2018 C1455.45,2018 1452.82,2017.19 1450.67,2015.56 C1448.65,2013.8 1447.64,2011.59 1447.64,2008.92 C1447.64,2004.56 1449.95,2000.39 1454.58,1996.42 C1459.2,1992.45 1464.21,1990.47 1469.61,1990.47"/>
<path class="Note" d="M1011.22,1477.97 C1014.34,1477.97 1016.95,1478.75 1019.03,1480.31 C1021.11,1481.87 1022.15,1484.12 1022.15,1487.05 C1022.15,1491.54 1019.83,1495.73 1015.18,1499.64 C1010.53,1503.55 1005.53,1505.5 1000.18,1505.5 C997.06,1505.5 994.425,1504.69 992.279,1503.06 C990.258,1501.3 989.247,1499.09 989.247,1496.42 C989.247,1492.06 991.56,1487.89 996.185,1483.92 C1000.81,1479.95 1005.82,1477.97 1011.22,1477.97"/>
<path class="Note" d="M1911.73,1977.97 C1914.86,1977.97 1917.46,1978.75 1919.55,1980.31 C1921.63,1981.87 1922.67,1984.12 1922.67,1987.05 C1922.67,1991.54 1920.35,1995.73 1915.7,1999.64 C1911.04,2003.55 1906.05,2005.5 1900.7,2005.5 C1897.58,2005.5 1894.94,2004.69 1892.8,2003.06 C1890.78,2001.3 1889.77,1999.09 1889.77,1996.42 C1889.77,1992.06 1892.08,1987.89 1896.7,1983.92 C1901.33,1979.95 1906.34,1977.97 1911.73,1977.97"/>
<path class="Note" d="M2522.05,515.467 C2525.17,515.467 2527.78,516.248 2529.86,517.811 C2531.94,519.373 2532.99,521.618 2532.99,524.545 C2532.99,529.035 2530.66,533.233 2526.01,537.139 C2521.36,541.045 2516.36,542.998 2511.02,542.998 C2507.89,542.998 2505.26,542.186 2503.11,540.561 C2501.09,538.8 2500.08,536.587 2500.08,533.92 C2500.08,529.556 2502.39,525.389 2507.02,521.42 C2511.64,517.451 2516.65,515.467 2522.05,515.467"/>
<path class="Note" d="M2347.77,490.467 C2350.9,490.467 2353.5,491.248 2355.58,492.811 C2357.67,494.373 2358.71,496.618 2358.71,499.545 C2358.71,504.035 2356.38,508.233 2351.73,512.139 C2347.08,516.045 2342.08,517.998 2336.74,517.998 C2333.61,517.998 2330.98,517.186 2328.83,515.561 C2326.81,513.8 2325.8,511.587 2325.8,508.92 C2325.8,504.556 2328.11,500.389 2332.74,496.42 C2337.36,492.451 2342.38,490.467 2347.77,490.467"/>
<path class="Note" d="M2086.36,490.467 C2089.48,490.467 2092.08,491.248 2094.17,492.811 C2096.25,494.373 2097.29,496.618 2097.29,499.545 C2097.29,504.035 2094.97,508.233 2090.32,512.139 C2085.67,516.045 2080.67,517.998 2075.32,517.998 C2072.2,517.998 2069.56,517.186 2067.42,515.561 C2065.4,513.8 2064.39,511.587 2064.39,508.92 C2064.39,504.556 2066.7,500.389 2071.32,496.42 C2075.95,492.451 2080.96,490.467 2086.36,490.467"/>
<path class="Note" d="M1664.58,1965.47 C1667.7,1965.47 1670.31,1966.25 1672.39,1967.81 C1674.47,1969.37 1675.52,1971.62 1675.52,1974.55 C1675.52,1979.04 1673.19,1983.23 1668.54,1987.14 C1663.89,1991.05 1658.89,1993 1653.55,1993 C1650.42,1993 1647.79,1992.19 1645.64,1990.56 C1643.62,1988.8 1642.61,1986.59 1642.61,1983.92 C1642.61,1979.56 1644.92,1975.39 1649.55,1971.42 C1654.17,1967.45 1659.18,1965.47 1664.58,1965.47"/>
<path class="Note" d="M1725.97,565.467 C1729.09,565.467 1731.7,566.248 1733.78,567.811 C1735.86,569.373 1736.9,571.618 1736.9,574.545 C1736.9,579.035 1734.58,583.233 1729.93,587.139 C1725.28,591.045 1720.28,592.998 1714.94,592.998 C1711.81,592.998 1709.18,592.186 1707.03,590.561 C1705.01,588.8 1704,586.587 1704,583.92 C1704,579.556 1706.31,575.389 1710.94,571.42 C1715.56,567.451 1720.57,565.467 1725.97,565.467"/>
<path class="Note" d="M1551.69,540.467 C1554.81,540.467 1557.42,541.248 1559.5,542.811 C1561.59,544.373 1562.63,546.618 1562.63,549.545 C1562.63,554.035 1560.3,558.233 1555.65,562.139 C1551,566.045 1546,567.998 1540.66,567.998 C1537.53,567.998 1534.9,567.186 1532.75,565.561 C1530.73,563.8 1529.72,561.587 1529.72,558.92 C1529.72,554.556 1532.03,550.389 1536.66,546.42 C1541.28,542.451 1546.29,540.467 1551.69,540.467"/>
<path class="Note" d="M1722.53,990.467 C1725.66,990.467 1728.26,991.249 1730.35,992.811 C1732.43,994.374 1733.47,996.618 1733.47,999.545 C1733.47,1004.03 1731.15,1008.23 1726.5,1012.14 C1721.84,1016.05 1716.85,1018 1711.5,1018 C1708.38,1018 1705.74,1017.19 1703.6,1015.56 C1701.58,1013.8 1700.57,1011.59 1700.57,1008.92 C1700.57,1004.56 1702.88,1000.39 1707.5,996.42 C1712.13,992.452 1717.14,990.467 1722.53,990.467"/>
<path class="Note" d="M1198.53,1490.47 C1201.65,1490.47 1204.26,1491.25 1206.34,1492.81 C1208.43,1494.37 1209.47,1496.62 1209.47,1499.55 C1209.47,1504.04 1207.14,1508.23 1202.49,1512.14 C1197.84,1516.05 1192.84,1518 1187.5,1518 C1184.37,1518 1181.74,1517.19 1179.59,1515.56 C1177.57,1513.8 1176.56,1511.59 1176.56,1508.92 C1176.56,1504.56 1178.87,1500.39 1183.5,1496.42 C1188.12,1492.45 1193.13,1490.47 1198.53,1490.47"/>
<path class="Note" d="M905.674,1465.47 C908.799,1465.47 911.403,1466.25 913.486,1467.81 C915.57,1469.37 916.611,1471.62 916.611,1474.55 C916.611,1479.04 914.286,1483.23 909.635,1487.14 C904.984,1491.05 899.986,1493 894.643,1493 C891.518,1493 888.882,1492.19 886.736,1490.56 C884.716,1488.8 883.705,1486.59 883.705,1483.92 C883.705,1479.56 886.018,1475.39 890.643,1471.42 C895.268,1467.45 900.278,1465.47 905.674,1465.47"/>
<path class="Note" d="M704.985,1452.97 C708.11,1452.97 710.714,1453.75 712.797,1455.31 C714.88,1456.87 715.922,1459.12 715.922,1462.05 C715.922,1466.54 713.597,1470.73 708.946,1474.64 C704.295,1478.55 699.297,1480.5 693.953,1480.5 C690.828,1480.5 688.193,1479.69 686.047,1478.06 C684.026,1476.3 683.016,1474.09 683.016,1471.42 C683.016,1467.06 685.328,1462.89 689.953,1458.92 C694.578,1454.95 699.589,1452.97 704.985,1452.97"/>
<path class="Note" d="M546.671,1477.97 C549.796,1477.97 552.4,1478.75 554.484,1480.31 C556.567,1481.87 557.609,1484.12 557.609,1487.05 C557.609,1491.54 555.283,1495.73 550.632,1499.64 C545.981,1503.55 540.984,1505.5 535.64,1505.5 C532.515,1505.5 529.88,1504.69 527.734,1503.06 C525.713,1501.3 524.703,1499.09 524.703,1496.42 C524.703,1492.06 527.015,1487.89 531.64,1483.92 C536.265,1479.95 541.275,1477.97 546.671,1477.97"/>
<path class="Note" d="M309.201,1477.97 C312.326,1477.97 314.93,1478.75 317.014,1480.31 C319.097,1481.87 320.139,1484.12 320.139,1487.05 C320.139,1491.54 317.813,1495.73 313.162,1499.64 C308.511,1503.55 303.514,1505.5 298.17,1505.5 C295.045,1505.5 292.41,1504.69 290.264,1503.06 C288.243,1501.3 287.232,1499.09 287.232,1496.42 C287.232,1492.06 289.545,1487.89 294.17,1483.92 C298.795,1479.95 303.805,1477.97 309.201,1477.97"/>
<path class="Note" d="M679.936,1902.97 C683.061,1902.97 685.665,1903.75 687.749,1905.31 C689.832,1906.87 690.874,1909.12 690.874,1912.05 C690.874,1916.54 688.548,1920.73 683.897,1924.64 C679.246,1928.55 674.249,1930.5 668.905,1930.5 C665.78,1930.5 663.144,1929.69 660.999,1928.06 C658.978,1926.3 657.967,1924.09 657.967,1921.42 C657.967,1917.06 660.28,1912.89 664.905,1908.92 C669.53,1904.95 674.54,1902.97 679.936,1902.97"/>
<path class="Note" d="M563.729,527.967 C566.854,527.967 569.458,528.748 571.541,530.311 C573.625,531.873 574.666,534.118 574.666,537.045 C574.666,541.535 572.341,545.733 567.69,549.639 C563.039,553.545 558.041,555.498 552.697,555.498 C549.572,555.498 546.937,554.686 544.791,553.061 C542.77,551.3 541.76,549.087 541.76,546.42 C541.76,542.056 544.072,537.889 548.697,533.92 C553.322,529.951 558.333,527.967 563.729,527.967"/>
<path class="Note" d="M679.913,540.467 C683.038,540.467 685.643,541.248 687.726,542.811 C689.809,544.373 690.851,546.618 690.851,549.545 C690.851,554.035 688.525,558.233 683.874,562.139 C679.223,566.045 674.226,567.998 668.882,567.998 C665.757,567.998 663.122,567.186 660.976,565.561 C658.955,563.8 657.945,561.587 657.945,558.92 C657.945,554.556 660.257,550.389 664.882,546.42 C669.507,542.451 674.518,540.467 679.913,540.467"/>
<path class="Note" d="M2531.21,1040.47 C2534.34,1040.47 2536.94,1041.25 2539.02,1042.81 C2541.11,1044.37 2542.15,1046.62 2542.15,1049.55 C2542.15,1054.04 2539.82,1058.23 2535.17,1062.14 C2530.52,1066.05 2525.52,1068 2520.18,1068 C2517.06,1068 2514.42,1067.19 2512.27,1065.56 C2510.25,1063.8 2509.24,1061.59 2509.24,1058.92 C2509.24,1054.56 2511.56,1050.39 2516.18,1046.42 C2520.81,1042.45 2525.82,1040.47 2531.21,1040.47"/>
<path class="Note" d="M1435.51,527.967 C1438.63,527.967 1441.23,528.748 1443.32,530.311 C1445.4,531.873 1446.44,534.118 1446.44,537.045 C1446.44,541.535 1444.12,545.733 1439.47,549.639 C1434.82,553.545 1429.82,555.498 1424.47,555.498 C1421.35,555.498 1418.71,554.686 1416.57,553.061 C1414.55,551.3 1413.54,549.087 1413.54,546.42 C1413.54,542.056 1415.85,537.889 1420.47,533.92 C1425.1,529.951 1430.11,527.967 1435.51,527.967"/>
<path class="Note" d="M2248.78,1002.97 C2251.91,1002.97 2254.51,1003.75 2256.59,1005.31 C2258.68,1006.87 2259.72,1009.12 2259.72,1012.05 C2259.72,1016.53 2257.39,1020.73 2252.74,1024.64 C2248.09,1028.55 2243.09,1030.5 2237.75,1030.5 C2234.63,1030.5 2231.99,1029.69 2229.84,1028.06 C2227.82,1026.3 2226.81,1024.09 2226.81,1021.42 C2226.81,1017.06 2229.13,1012.89 2233.75,1008.92 C2238.38,1004.95 2243.39,1002.97 2248.78,1002.97"/>
<path class="Note" d="M2033.96,1015.47 C2037.09,1015.47 2039.69,1016.25 2041.78,1017.81 C2043.86,1019.37 2044.9,1021.62 2044.9,1024.55 C2044.9,1029.04 2042.58,1033.23 2037.93,1037.14 C2033.27,1041.05 2028.28,1043 2022.93,1043 C2019.81,1043 2017.17,1042.19 2015.03,1040.56 C2013.01,1038.8 2012,1036.59 2012,1033.92 C2012,1029.56 2014.31,1025.39 2018.93,1021.42 C2023.56,1017.45 2028.57,1015.47 2033.96,1015.47"/>
<path class="Note" d="M854.19,565.467 C857.315,565.467 859.919,566.248 862.003,567.811 C864.086,569.373 865.128,571.618 865.128,574.545 C865.128,579.035 862.802,583.233 858.151,587.139 C853.5,591.045 848.503,592.998 843.159,592.998 C840.034,592.998 837.399,592.186 835.253,590.561 C833.232,588.8 832.222,586.587 832.222,583.92 C832.222,579.556 834.534,575.389 839.159,571.42 C843.784,567.451 848.794,565.467 854.19,565.467"/>
<path class="Note" d="M2041.71,2002.97 C2044.84,2002.97 2047.44,2003.75 2049.53,2005.31 C2051.61,2006.87 2052.65,2009.12 2052.65,2012.05 C2052.65,2016.54 2050.33,2020.73 2045.67,2024.64 C2041.02,2028.55 2036.03,2030.5 2030.68,2030.5 C2027.56,2030.5 2024.92,2029.69 2022.78,2028.06 C2020.76,2026.3 2019.74,2024.09 2019.74,2021.42 C2019.74,2017.06 2022.06,2012.89 2026.68,2008.92 C2031.31,2004.95 2036.32,2002.97 2041.71,2002.97"/>
<path class="Note" d="M1835.51,1002.97 C1838.63,1002.97 1841.24,1003.75 1843.32,1005.31 C1845.4,1006.87 1846.44,1009.12 1846.44,1012.05 C1846.44,1016.53 1844.12,1020.73 1839.47,1024.64 C1834.82,1028.55 1829.82,1030.5 1824.47,1030.5 C1821.35,1030.5 1818.71,1029.69 1816.57,1028.06 C1814.55,1026.3 1813.54,1024.09 1813.54,1021.42 C1813.54,1017.06 1815.85,1012.89 1820.47,1008.92 C1825.1,1004.95 1830.11,1002.97 1835.51,1002.97"/>
<path class="Note" d="M1079.67,1927.97 C1082.8,1927.97 1085.4,1928.75 1087.48,1930.31 C1089.57,1931.87 1090.61,1934.12 1090.61,1937.05 C1090.61,1941.54 1088.28,1945.73 1083.63,1949.64 C1078.98,1953.55 1073.98,1955.5 1068.64,1955.5 C1065.51,1955.5 1062.88,1954.69 1060.73,1953.06 C1058.71,1951.3 1057.7,1949.09 1057.7,1946.42 C1057.7,1942.06 1060.01,1937.89 1064.64,1933.92 C1069.26,1929.95 1074.28,1927.97 1079.67,1927.97"/>
<path class="Clef" d="M203.623,1623.86 L203.623,1621.72 C203.56,1620.61 203.399,1618.89 203.139,1616.55 C199.889,1617.07 196.993,1617.33 194.451,1617.33 C185.337,1617.33 177.605,1613.73 171.256,1606.53 C164.907,1599.33 161.732,1590.75 161.732,1580.8 C161.732,1578.13 162.253,1574.92 163.295,1571.18 C164.337,1567.43 165.297,1564.93 166.178,1563.66 C167.058,1562.38 168.378,1560.16 170.139,1556.97 C170.659,1555.99 172.352,1553.84 175.217,1550.51 C175.738,1549.81 176.193,1549.22 176.584,1548.76 C176.975,1548.31 177.607,1547.49 178.482,1546.32 C179.357,1545.15 180.3,1544.06 181.31,1543.05 C182.321,1542.04 183.217,1541.06 183.998,1540.12 C184.779,1539.17 185.498,1538.38 186.154,1537.73 C183.81,1529.98 182.378,1524.02 181.857,1519.86 C181.337,1515.69 181.076,1510.58 181.076,1504.52 C181.076,1498.47 182.378,1492.96 184.982,1488.01 C187.514,1482.88 191.06,1478.68 195.623,1475.42 C195.883,1475.22 196.225,1475.12 196.646,1475.12 C197.068,1475.12 197.378,1475.22 197.576,1475.42 C201.087,1479.65 204.128,1485.15 206.701,1491.92 C209.274,1498.69 210.56,1505.02 210.56,1510.92 C210.56,1516.82 209.066,1522.5 206.076,1527.97 C202.691,1533.76 198.326,1539.75 192.982,1545.94 C194.347,1550.23 196.17,1556.96 198.451,1566.14 L199.045,1566.14 C199.305,1566.08 199.529,1566.05 199.717,1566.05 C207.081,1566.05 213.089,1568.63 217.74,1573.81 C222.391,1578.99 224.717,1584.96 224.717,1591.73 C224.717,1600.13 221.238,1606.9 214.279,1612.05 C212.258,1613.55 209.878,1614.72 207.139,1615.56 C207.472,1619.79 207.639,1622.61 207.639,1624.01 C207.639,1625.41 207.571,1627.9 207.435,1631.48 C207.373,1637.6 205.29,1642.84 201.185,1647.2 C197.081,1651.57 192.394,1653.75 187.123,1653.75 C181.852,1653.75 177.36,1651.88 173.646,1648.13 C169.933,1644.39 168.076,1639.85 168.076,1634.51 C168.076,1631.71 169.154,1629.33 171.31,1627.37 C173.519,1625.43 176.006,1624.45 178.771,1624.45 C181.537,1624.45 183.8,1625.46 185.56,1627.48 C187.383,1629.37 188.295,1631.64 188.295,1634.31 C188.295,1636.98 187.383,1639.22 185.56,1641.05 C183.738,1642.87 181.555,1643.78 179.014,1643.78 C177.972,1643.78 176.967,1643.59 175.998,1643.2 C178.863,1647.43 182.54,1649.55 187.029,1649.55 C191.519,1649.55 195.36,1647.69 198.553,1643.98 C201.745,1640.27 203.342,1635.91 203.342,1630.89 L203.623,1623.86 M206.748,1611.56 C210.133,1610.32 212.821,1608.12 214.81,1604.97 C216.8,1601.81 217.795,1598.67 217.795,1595.55 C217.795,1590.92 216.199,1586.79 213.006,1583.14 C209.813,1579.49 205.774,1577.44 200.889,1576.98 C203.691,1590.72 205.644,1602.25 206.748,1611.56 M168.967,1589 C168.967,1595.45 171.537,1601.08 176.678,1605.9 C181.818,1610.72 187.842,1613.12 194.748,1613.12 C197.477,1613.12 200.144,1612.93 202.748,1612.53 C201.706,1602.63 199.654,1590.79 196.592,1576.98 C192.758,1577.38 189.782,1578.7 187.662,1580.94 C185.542,1583.19 184.482,1585.74 184.482,1588.61 C184.482,1593.56 187.123,1597.56 192.404,1600.62 C192.852,1600.88 193.076,1601.32 193.076,1601.94 C193.076,1602.56 192.865,1603.1 192.443,1603.55 C192.021,1604.01 191.649,1604.23 191.326,1604.23 C191.003,1604.23 190.581,1604.17 190.06,1604.05 C182.435,1599.88 178.623,1593.59 178.623,1585.19 C178.623,1581.22 180.024,1577.41 182.826,1573.76 C185.753,1570.12 189.56,1567.77 194.248,1566.73 C192.425,1559.44 190.93,1553.74 189.764,1549.64 C180.847,1559.67 175.31,1567.09 173.154,1571.91 C170.363,1578.16 168.967,1583.85 168.967,1589 M201.576,1489.69 C196.691,1492.09 192.834,1495.57 190.006,1500.13 C187.178,1504.69 185.764,1509.47 185.764,1514.48 C185.764,1519.49 186.935,1525.97 189.279,1533.92 C193.967,1528.25 197.514,1522.95 199.92,1518 C202.326,1513.05 203.529,1508.15 203.529,1503.3 C203.529,1498.45 202.878,1493.92 201.576,1489.69"/>
<path class="Clef" d="M203.623,1148.86 L203.623,1146.72 C203.56,1145.61 203.399,1143.89 203.139,1141.55 C199.889,1142.07 196.993,1142.33 194.451,1142.33 C185.337,1142.33 177.605,1138.73 171.256,1131.53 C164.907,1124.33 161.732,1115.75 161.732,1105.8 C161.732,1103.13 162.253,1099.92 163.295,1096.18 C164.337,1092.43 165.297,1089.93 166.178,1088.65 C167.058,1087.38 168.378,1085.15 170.139,1081.97 C170.659,1080.99 172.352,1078.84 175.217,1075.51 C175.738,1074.81 176.193,1074.22 176.584,1073.76 C176.975,1073.31 177.607,1072.49 178.482,1071.32 C179.357,1070.15 180.3,1069.06 181.31,1068.05 C182.321,1067.04 183.217,1066.06 183.998,1065.12 C184.779,1064.17 185.498,1063.38 186.154,1062.73 C183.81,1054.98 182.378,1049.02 181.857,1044.86 C181.337,1040.69 181.076,1035.58 181.076,1029.52 C181.076,1023.46 182.378,1017.96 184.982,1013.01 C187.514,1007.88 191.06,1003.68 195.623,1000.42 C195.883,1000.22 196.225,1000.12 196.646,1000.12 C197.068,1000.12 197.378,1000.22 197.576,1000.42 C201.087,1004.65 204.128,1010.15 206.701,1016.92 C209.274,1023.69 210.56,1030.02 210.56,1035.92 C210.56,1041.82 209.066,1047.5 206.076,1052.97 C202.691,1058.76 198.326,1064.75 192.982,1070.94 C194.347,1075.23 196.17,1081.96 198.451,1091.14 L199.045,1091.14 C199.305,1091.08 199.529,1091.05 199.717,1091.05 C207.081,1091.05 213.089,1093.63 217.74,1098.81 C222.391,1103.99 224.717,1109.96 224.717,1116.73 C224.717,1125.13 221.238,1131.9 214.279,1137.05 C212.258,1138.55 209.878,1139.72 207.139,1140.56 C207.472,1144.79 207.639,1147.61 207.639,1149.01 C207.639,1150.41 207.571,1152.9 207.435,1156.48 C207.373,1162.6 205.29,1167.84 201.185,1172.2 C197.081,1176.57 192.394,1178.75 187.123,1178.75 C181.852,1178.75 177.36,1176.88 173.646,1173.13 C169.933,1169.39 168.076,1164.85 168.076,1159.51 C168.076,1156.71 169.154,1154.33 171.31,1152.37 C173.519,1150.43 176.006,1149.45 178.771,1149.45 C181.537,1149.45 183.8,1150.46 185.56,1152.48 C187.383,1154.37 188.295,1156.64 188.295,1159.31 C188.295,1161.98 187.383,1164.22 185.56,1166.05 C183.738,1167.87 181.555,1168.78 179.014,1168.78 C177.972,1168.78 176.967,1168.59 175.998,1168.2 C178.863,1172.43 182.54,1174.55 187.029,1174.55 C191.519,1174.55 195.36,1172.69 198.553,1168.98 C201.745,1165.27 203.342,1160.91 203.342,1155.89 L203.623,1148.86 M206.748,1136.56 C210.133,1135.32 212.821,1133.12 214.81,1129.97 C216.8,1126.81 217.795,1123.67 217.795,1120.55 C217.795,1115.92 216.199,1111.79 213.006,1108.14 C209.813,1104.49 205.774,1102.44 200.889,1101.98 C203.691,1115.72 205.644,1127.25 206.748,1136.56 M168.967,1114 C168.967,1120.45 171.537,1126.08 176.678,1130.9 C181.818,1135.71 187.842,1138.12 194.748,1138.12 C197.477,1138.12 200.144,1137.93 202.748,1137.53 C201.706,1127.63 199.654,1115.79 196.592,1101.98 C192.758,1102.38 189.782,1103.7 187.662,1105.94 C185.542,1108.19 184.482,1110.74 184.482,1113.61 C184.482,1118.56 187.123,1122.56 192.404,1125.62 C192.852,1125.88 193.076,1126.32 193.076,1126.94 C193.076,1127.56 192.865,1128.1 192.443,1128.55 C192.021,1129.01 191.649,1129.23 191.326,1129.23 C191.003,1129.23 190.581,1129.17 190.06,1129.05 C182.435,1124.88 178.623,1118.59 178.623,1110.19 C178.623,1106.22 180.024,1102.41 182.826,1098.76 C185.753,1095.12 189.56,1092.77 194.248,1091.73 C192.425,1084.44 190.93,1078.74 189.764,1074.64 C180.847,1084.67 175.31,1092.09 173.154,1096.9 C170.363,1103.15 168.967,1108.85 168.967,1114 M201.576,1014.69 C196.691,1017.09 192.834,1020.57 190.006,1025.13 C187.178,1029.69 185.764,1034.47 185.764,1039.48 C185.764,1044.49 186.935,1050.97 189.279,1058.92 C193.967,1053.25 197.514,1047.95 199.92,1043 C202.326,1038.05 203.529,1033.15 203.529,1028.3 C203.529,1023.45 202.878,1018.92 201.576,1014.69"/>
<path class="Clef" d="M203.623,673.858 L203.623,671.717 C203.56,670.613 203.399,668.889 203.139,666.545 C199.889,667.066 196.993,667.326 194.451,667.326 C185.337,667.326 177.605,663.727 171.256,656.53 C164.907,649.332 161.732,640.754 161.732,630.795 C161.732,628.129 162.253,624.923 163.295,621.178 C164.337,617.433 165.297,614.925 166.178,613.655 C167.058,612.384 168.378,610.155 170.139,606.967 C170.659,605.988 172.352,603.837 175.217,600.514 C175.738,599.806 176.193,599.222 176.584,598.764 C176.975,598.306 177.607,597.49 178.482,596.319 C179.357,595.147 180.3,594.056 181.31,593.045 C182.321,592.035 183.217,591.058 183.998,590.115 C184.779,589.173 185.498,588.379 186.154,587.733 C183.81,579.983 182.378,574.024 181.857,569.858 C181.337,565.691 181.076,560.579 181.076,554.522 C181.076,548.464 182.378,542.962 184.982,538.014 C187.514,532.879 191.06,528.681 195.623,525.42 C195.883,525.222 196.225,525.123 196.646,525.123 C197.068,525.123 197.378,525.222 197.576,525.42 C201.087,529.649 204.128,535.149 206.701,541.92 C209.274,548.691 210.56,555.024 210.56,560.92 C210.56,566.816 209.066,572.498 206.076,577.967 C202.691,583.759 198.326,589.748 192.982,595.936 C194.347,600.227 196.17,606.962 198.451,616.139 L199.045,616.139 C199.305,616.076 199.529,616.045 199.717,616.045 C207.081,616.045 213.089,618.634 217.74,623.811 C222.391,628.988 224.717,634.962 224.717,641.733 C224.717,650.129 221.238,656.899 214.279,662.045 C212.258,663.545 209.878,664.717 207.139,665.561 C207.472,669.79 207.639,672.605 207.639,674.006 C207.639,675.407 207.571,677.899 207.435,681.483 C207.373,687.597 205.29,692.837 201.185,697.201 C197.081,701.566 192.394,703.748 187.123,703.748 C181.852,703.748 177.36,701.876 173.646,698.131 C169.933,694.386 168.076,689.847 168.076,684.514 C168.076,681.712 169.154,679.332 171.31,677.373 C173.519,675.425 176.006,674.451 178.771,674.451 C181.537,674.451 183.8,675.462 185.56,677.483 C187.383,679.368 188.295,681.644 188.295,684.311 C188.295,686.977 187.383,689.222 185.56,691.045 C183.738,692.868 181.555,693.78 179.014,693.78 C177.972,693.78 176.967,693.587 175.998,693.201 C178.863,697.431 182.54,699.545 187.029,699.545 C191.519,699.545 195.36,697.691 198.553,693.983 C201.745,690.274 203.342,685.91 203.342,680.889 L203.623,673.858 M206.748,661.561 C210.133,660.321 212.821,658.123 214.81,654.967 C216.8,651.811 217.795,648.67 217.795,645.545 C217.795,640.92 216.199,636.785 213.006,633.139 C209.813,629.493 205.774,627.441 200.889,626.983 C203.691,640.722 205.644,652.248 206.748,661.561 M168.967,638.998 C168.967,645.446 171.537,651.079 176.678,655.897 C181.818,660.714 187.842,663.123 194.748,663.123 C197.477,663.123 200.144,662.925 202.748,662.53 C201.706,652.634 199.654,640.785 196.592,626.983 C192.758,627.379 189.782,628.699 187.662,630.944 C185.542,633.188 184.482,635.743 184.482,638.608 C184.482,643.556 187.123,647.561 192.404,650.623 C192.852,650.884 193.076,651.324 193.076,651.944 C193.076,652.563 192.865,653.1 192.443,653.553 C192.021,654.006 191.649,654.233 191.326,654.233 C191.003,654.233 190.581,654.17 190.06,654.045 C182.435,649.879 178.623,643.592 178.623,635.186 C178.623,631.217 180.024,627.41 182.826,623.764 C185.753,620.118 189.56,617.774 194.248,616.733 C192.425,609.441 190.93,603.743 189.764,599.639 C180.847,609.67 175.31,617.092 173.154,621.905 C170.363,628.155 168.967,633.852 168.967,638.998 M201.576,539.686 C196.691,542.092 192.834,545.574 190.006,550.131 C187.178,554.688 185.764,559.472 185.764,564.483 C185.764,569.493 186.935,575.972 189.279,583.92 C193.967,578.254 197.514,572.946 199.92,567.998 C202.326,563.05 203.529,558.152 203.529,553.303 C203.529,548.454 202.878,543.915 201.576,539.686"/>
<path class="Clef" d="M203.623,2098.86 L203.623,2096.72 C203.56,2095.61 203.399,2093.89 203.139,2091.55 C199.889,2092.07 196.993,2092.33 194.451,2092.33 C185.337,2092.33 177.605,2088.73 171.256,2081.53 C164.907,2074.33 161.732,2065.75 161.732,2055.8 C161.732,2053.13 162.253,2049.92 163.295,2046.18 C164.337,2042.43 165.297,2039.93 166.178,2038.66 C167.058,2037.38 168.378,2035.16 170.139,2031.97 C170.659,2030.99 172.352,2028.84 175.217,2025.51 C175.738,2024.81 176.193,2024.22 176.584,2023.76 C176.975,2023.31 177.607,2022.49 178.482,2021.32 C179.357,2020.15 180.3,2019.06 181.31,2018.05 C182.321,2017.04 183.217,2016.06 183.998,2015.12 C184.779,2014.17 185.498,2013.38 186.154,2012.73 C183.81,2004.98 182.378,1999.03 181.857,1994.86 C181.337,1990.69 181.076,1985.58 181.076,1979.52 C181.076,1973.47 182.378,1967.96 184.982,1963.01 C187.514,1957.88 191.06,1953.68 195.623,1950.42 C195.883,1950.22 196.225,1950.12 196.646,1950.12 C197.068,1950.12 197.378,1950.22 197.576,1950.42 C201.087,1954.65 204.128,1960.15 206.701,1966.92 C209.274,1973.69 210.56,1980.03 210.56,1985.92 C210.56,1991.82 209.066,1997.5 206.076,2002.97 C202.691,2008.76 198.326,2014.75 192.982,2020.94 C194.347,2025.23 196.17,2031.96 198.451,2041.14 L199.045,2041.14 C199.305,2041.08 199.529,2041.05 199.717,2041.05 C207.081,2041.05 213.089,2043.63 217.74,2048.81 C222.391,2053.99 224.717,2059.96 224.717,2066.73 C224.717,2075.13 221.238,2081.9 214.279,2087.05 C212.258,2088.55 209.878,2089.72 207.139,2090.56 C207.472,2094.79 207.639,2097.61 207.639,2099.01 C207.639,2100.41 207.571,2102.9 207.435,2106.48 C207.373,2112.6 205.29,2117.84 201.185,2122.2 C197.081,2126.57 192.394,2128.75 187.123,2128.75 C181.852,2128.75 177.36,2126.88 173.646,2123.13 C169.933,2119.39 168.076,2114.85 168.076,2109.51 C168.076,2106.71 169.154,2104.33 171.31,2102.37 C173.519,2100.43 176.006,2099.45 178.771,2099.45 C181.537,2099.45 183.8,2100.46 185.56,2102.48 C187.383,2104.37 188.295,2106.65 188.295,2109.31 C188.295,2111.98 187.383,2114.22 185.56,2116.05 C183.738,2117.87 181.555,2118.78 179.014,2118.78 C177.972,2118.78 176.967,2118.59 175.998,2118.2 C178.863,2122.43 182.54,2124.55 187.029,2124.55 C191.519,2124.55 195.36,2122.69 198.553,2118.98 C201.745,2115.28 203.342,2110.91 203.342,2105.89 L203.623,2098.86 M206.748,2086.56 C210.133,2085.32 212.821,2083.12 214.81,2079.97 C216.8,2076.81 217.795,2073.67 217.795,2070.55 C217.795,2065.92 216.199,2061.79 213.006,2058.14 C209.813,2054.49 205.774,2052.44 200.889,2051.98 C203.691,2065.72 205.644,2077.25 206.748,2086.56 M168.967,2064 C168.967,2070.45 171.537,2076.08 176.678,2080.9 C181.818,2085.72 187.842,2088.12 194.748,2088.12 C197.477,2088.12 200.144,2087.93 202.748,2087.53 C201.706,2077.63 199.654,2065.79 196.592,2051.98 C192.758,2052.38 189.782,2053.7 187.662,2055.94 C185.542,2058.19 184.482,2060.74 184.482,2063.61 C184.482,2068.56 187.123,2072.56 192.404,2075.62 C192.852,2075.88 193.076,2076.32 193.076,2076.94 C193.076,2077.56 192.865,2078.1 192.443,2078.55 C192.021,2079.01 191.649,2079.23 191.326,2079.23 C191.003,2079.23 190.581,2079.17 190.06,2079.05 C182.435,2074.88 178.623,2068.59 178.623,2060.19 C178.623,2056.22 180.024,2052.41 182.826,2048.76 C185.753,2045.12 189.56,2042.78 194.248,2041.73 C192.425,2034.44 190.93,2028.74 189.764,2024.64 C180.847,2034.67 175.31,2042.09 173.154,2046.91 C170.363,2053.16 168.967,2058.85 168.967,2064 M201.576,1964.69 C196.691,1967.09 192.834,1970.57 190.006,1975.13 C187.178,1979.69 185.764,1984.47 185.764,1989.48 C185.764,1994.49 186.935,2000.97 189.279,2008.92 C193.967,2003.25 197.514,1997.95 199.92,1993 C202.326,1988.05 203.529,1983.15 203.529,1978.3 C203.529,1973.45 202.878,1968.92 201.576,1964.69"/>
<path class="TimeSig" d="M273.482,594.076 C272.701,592.118 271.04,591.139 268.498,591.139 C265.956,591.139 264.394,592.118 263.811,594.076 C263.352,595.514 263.123,597.925 263.123,601.311 L263.123,604.233 C263.123,607.618 263.352,610.03 263.811,611.467 C264.394,613.415 265.988,614.389 268.592,614.389 C271.196,614.389 272.839,613.282 273.521,611.069 C274.204,608.855 274.545,605.959 274.545,602.381 C274.545,598.803 274.191,596.035 273.482,594.076 M263.123,590.17 C265.081,589.389 266.842,588.931 268.404,588.795 C273.613,588.795 277.779,589.972 280.904,592.326 C283.894,594.733 285.389,598.199 285.389,602.725 C285.389,607.251 283.86,610.717 280.803,613.123 C277.745,615.53 273.579,616.733 268.303,616.733 C263.027,616.733 258.891,614.259 255.896,609.311 C252.902,604.363 251.404,598.535 251.404,591.826 C251.404,585.118 253.165,579.227 256.686,574.155 C260.258,569.207 264.847,566.733 270.451,566.733 C274.097,566.733 277.303,567.675 280.068,569.561 C282.834,571.446 284.217,573.92 284.217,576.983 C284.217,578.868 283.566,580.431 282.264,581.67 C281.097,582.972 279.602,583.623 277.779,583.623 C275.956,583.623 274.394,582.972 273.092,581.67 C271.79,580.368 271.139,578.806 271.139,576.983 C271.139,576.264 271.79,575.451 273.092,574.545 C274.394,573.764 275.045,572.933 275.045,572.053 C275.045,571.173 274.587,570.441 273.67,569.858 C272.628,569.337 271.555,569.076 270.451,569.076 C267.451,569.076 265.467,570.28 264.498,572.686 C263.456,575.03 262.936,578.446 262.936,582.936 C262.936,584.238 262.967,585.444 263.029,586.553 C263.092,587.662 263.123,588.868 263.123,590.17"/>
<path class="TimeSig" d="M275.607,637.92 C278.868,634.337 280.498,631.082 280.498,628.155 C280.498,625.227 279.376,622.983 277.131,621.42 C274.886,619.858 272.378,619.076 269.607,619.076 C266.837,619.076 264.769,619.793 263.404,621.225 C262.04,622.657 261.357,624.399 261.357,626.451 C261.357,628.504 262.368,630.144 264.389,631.373 L275.607,637.92 M251.201,630.592 C251.201,626.686 252.795,623.399 255.982,620.733 C259.17,618.066 263.173,616.733 267.99,616.733 C272.808,616.733 276.813,617.694 280.006,619.615 C283.199,621.537 284.795,624.238 284.795,627.717 C284.795,631.196 282.743,635.149 278.639,639.576 C284.17,642.774 286.936,647.04 286.936,652.373 C286.936,656.352 285.277,659.74 281.959,662.537 C278.641,665.334 274.214,666.733 268.678,666.733 C263.141,666.733 258.649,665.431 255.201,662.826 C251.555,660.222 249.732,656.868 249.732,652.764 C249.732,651.274 250.191,649.748 251.107,648.186 C251.889,646.425 253.972,643.946 257.357,640.748 C253.253,637.884 251.201,634.498 251.201,630.592 M260.373,642.514 C256.279,646.16 254.232,649.626 254.232,652.912 C254.232,656.199 255.581,658.933 258.279,661.115 C260.977,663.298 263.938,664.389 267.162,664.389 C270.386,664.389 272.748,663.545 274.248,661.858 C275.811,660.295 276.592,658.243 276.592,655.701 C276.592,653.16 275.451,651.238 273.17,649.936 L260.373,642.514 "/>
<path class="Beam" fill-rule="evenodd" d="M1642.61,2079.23 L2022.99,2085.48 L2022.99,2097.98 L1642.61,2091.73 L1642.61,2079.23 "/>
<path class="Beam" fill-rule="evenodd" d="M1893.02,2064.6 L1860.02,2064.05 L1860.02,2076.56 L1893.02,2077.1 L1893.02,2064.6 "/>
<path class="Beam" fill-rule="evenodd" d="M1192.61,629.233 L1532.97,629.233 L1532.97,641.733 L1192.61,641.733 L1192.61,629.233 "/>
<path class="Beam" fill-rule="evenodd" d="M1416.79,610.483 L1383.79,610.483 L1383.79,622.983 L1416.79,622.983 L1416.79,610.483 "/>
<path class="Beam" fill-rule="evenodd" d="M1057.7,2035.46 L1450.89,2066.71 L1450.89,2079.25 L1057.7,2048 L1057.7,2035.46 "/>
<path class="Beam" fill-rule="evenodd" d="M1485.75,1079.23 L1816.79,1091.73 L1816.79,1104.24 L1485.75,1091.74 L1485.75,1079.23 "/>
<path class="Beam" fill-rule="evenodd" d="M1703.82,1068.71 L1670.82,1067.47 L1670.82,1079.98 L1703.82,1081.22 L1703.82,1068.71 "/>
<path class="Beam" fill-rule="evenodd" d="M2012,1104.23 L2343.03,1104.23 L2343.03,1116.73 L2012,1116.73 L2012,1104.23 "/>
<path class="Beam" fill-rule="evenodd" d="M2230.06,1085.48 L2197.06,1085.48 L2197.06,1097.98 L2230.06,1097.98 L2230.06,1085.48 "/>
<path class="Beam" fill-rule="evenodd" d="M320.834,629.233 L661.195,629.233 L661.195,641.733 L320.834,641.733 L320.834,629.233 "/>
<path class="Beam" fill-rule="evenodd" d="M545.01,610.483 L512.01,610.483 L512.01,622.983 L545.01,622.983 L545.01,610.483 "/>
<path class="Beam" fill-rule="evenodd" d="M683.016,1554.23 L992.497,1566.73 L992.497,1579.24 L683.016,1566.74 L683.016,1554.23 "/>
<path class="Beam" fill-rule="evenodd" d="M886.955,1543.72 L853.955,1542.38 L853.955,1554.89 L886.955,1556.23 L886.955,1543.72 "/>
<path class="Beam" fill-rule="evenodd" d="M1176.56,1579.23 L1486.04,1579.23 L1486.04,1591.73 L1176.56,1591.73 L1176.56,1579.23 "/>
<path class="Beam" fill-rule="evenodd" d="M1380.5,1560.48 L1347.5,1560.48 L1347.5,1572.98 L1380.5,1572.98 L1380.5,1560.48 "/>
<path class="Beam" fill-rule="evenodd" d="M2366.92,1554.23 L2676.4,1566.73 L2676.4,1579.24 L2366.92,1566.74 L2366.92,1554.23 "/>
<path class="Beam" fill-rule="evenodd" d="M2570.86,1543.72 L2537.86,1542.38 L2537.86,1554.89 L2570.86,1556.23 L2570.86,1543.72 "/>
<path class="NoteDot" d="M875.55,583.24 C874.44,582.131 873.886,580.795 873.886,579.233 C873.886,577.67 874.44,576.334 875.55,575.225 C876.659,574.115 877.995,573.561 879.558,573.561 C881.12,573.561 882.453,574.115 883.558,575.225 C884.662,576.334 885.214,577.67 885.214,579.233 C885.214,580.795 884.662,582.131 883.558,583.24 C882.453,584.35 881.12,584.905 879.558,584.905 C877.995,584.905 876.659,584.35 875.55,583.24"/>
<path class="NoteDot" d="M1235.94,558.24 C1234.83,557.131 1234.27,555.795 1234.27,554.233 C1234.27,552.67 1234.83,551.334 1235.94,550.225 C1237.05,549.115 1238.38,548.561 1239.95,548.561 C1241.51,548.561 1242.84,549.115 1243.95,550.225 C1245.05,551.334 1245.6,552.67 1245.6,554.233 C1245.6,555.795 1245.05,557.131 1243.95,558.24 C1242.84,559.35 1241.51,559.904 1239.95,559.904 C1238.38,559.904 1237.05,559.35 1235.94,558.24"/>
<path class="NoteDot" d="M364.162,558.24 C363.053,557.131 362.498,555.795 362.498,554.233 C362.498,552.67 363.053,551.334 364.162,550.225 C365.272,549.115 366.607,548.561 368.17,548.561 C369.732,548.561 371.066,549.115 372.17,550.225 C373.274,551.334 373.826,552.67 373.826,554.233 C373.826,555.795 373.274,557.131 372.17,558.24 C371.066,559.35 369.732,559.904 368.17,559.904 C366.607,559.904 365.272,559.35 364.162,558.24"/>
<path class="NoteDot" d="M2288.85,2033.24 C2287.74,2032.13 2287.18,2030.8 2287.18,2029.23 C2287.18,2027.67 2287.74,2026.34 2288.85,2025.23 C2289.96,2024.12 2291.29,2023.56 2292.85,2023.56 C2294.42,2023.56 2295.75,2024.12 2296.85,2025.23 C2297.96,2026.34 2298.51,2027.67 2298.51,2029.23 C2298.51,2030.8 2297.96,2032.13 2296.85,2033.24 C2295.75,2034.35 2294.42,2034.91 2292.85,2034.91 C2291.29,2034.91 2289.96,2034.35 2288.85,2033.24"/>
<path class="NoteDot" d="M1747.33,583.24 C1746.22,582.131 1745.66,580.795 1745.66,579.233 C1745.66,577.67 1746.22,576.334 1747.33,575.225 C1748.44,574.115 1749.77,573.561 1751.33,573.561 C1752.9,573.561 1754.23,574.115 1755.33,575.225 C1756.44,576.334 1756.99,577.67 1756.99,579.233 C1756.99,580.795 1756.44,582.131 1755.33,583.24 C1754.23,584.35 1752.9,584.905 1751.33,584.905 C1749.77,584.905 1748.44,584.35 1747.33,583.24"/>
<path class="NoteDot" d="M1529.08,983.241 C1527.97,982.131 1527.41,980.795 1527.41,979.233 C1527.41,977.67 1527.97,976.334 1529.08,975.225 C1530.19,974.116 1531.52,973.561 1533.08,973.561 C1534.65,973.561 1535.98,974.116 1537.08,975.225 C1538.19,976.334 1538.74,977.67 1538.74,979.233 C1538.74,980.795 1538.19,982.131 1537.08,983.241 C1535.98,984.35 1534.65,984.905 1533.08,984.905 C1531.52,984.905 1530.19,984.35 1529.08,983.241"/>
<path class="NoteDot" d="M1685.94,1983.24 C1684.83,1982.13 1684.27,1980.8 1684.27,1979.23 C1684.27,1977.67 1684.83,1976.34 1685.94,1975.23 C1687.05,1974.12 1688.38,1973.56 1689.94,1973.56 C1691.51,1973.56 1692.84,1974.12 1693.94,1975.23 C1695.05,1976.34 1695.6,1977.67 1695.6,1979.23 C1695.6,1980.8 1695.05,1982.13 1693.94,1983.24 C1692.84,1984.35 1691.51,1984.91 1689.94,1984.91 C1688.38,1984.91 1687.05,1984.35 1685.94,1983.24"/>
<path class="NoteDot" d="M2543.41,533.24 C2542.3,532.131 2541.74,530.795 2541.74,529.233 C2541.74,527.67 2542.3,526.334 2543.41,525.225 C2544.52,524.115 2545.85,523.561 2547.42,523.561 C2548.98,523.561 2550.31,524.115 2551.42,525.225 C2552.52,526.334 2553.07,527.67 2553.07,529.233 C2553.07,530.795 2552.52,532.131 2551.42,533.24 C2550.31,534.35 2548.98,534.904 2547.42,534.904 C2545.85,534.904 2544.52,534.35 2543.41,533.24"/>
<path class="NoteDot" d="M754.206,1033.24 C753.096,1032.13 752.542,1030.8 752.542,1029.23 C752.542,1027.67 753.096,1026.33 754.206,1025.23 C755.315,1024.12 756.651,1023.56 758.213,1023.56 C759.776,1023.56 761.109,1024.12 762.213,1025.23 C763.318,1026.33 763.87,1027.67 763.87,1029.23 C763.87,1030.8 763.318,1032.13 762.213,1033.24 C761.109,1034.35 759.776,1034.9 758.213,1034.9 C756.651,1034.9 755.315,1034.35 754.206,1033.24"/>
<path class="NoteDot" d="M2055.32,1033.24 C2054.21,1032.13 2053.66,1030.8 2053.66,1029.23 C2053.66,1027.67 2054.21,1026.33 2055.32,1025.23 C2056.43,1024.12 2057.77,1023.56 2059.33,1023.56 C2060.89,1023.56 2062.23,1024.12 2063.33,1025.23 C2064.44,1026.33 2064.99,1027.67 2064.99,1029.23 C2064.99,1030.8 2064.44,1032.13 2063.33,1033.24 C2062.23,1034.35 2060.89,1034.9 2059.33,1034.9 C2057.77,1034.9 2056.43,1034.35 2055.32,1033.24"/>
<path class="NoteDot" d="M2552.57,1058.24 C2551.46,1057.13 2550.91,1055.8 2550.91,1054.23 C2550.91,1052.67 2551.46,1051.33 2552.57,1050.23 C2553.68,1049.12 2555.02,1048.56 2556.58,1048.56 C2558.14,1048.56 2559.47,1049.12 2560.58,1050.23 C2561.68,1051.33 2562.23,1052.67 2562.23,1054.23 C2562.23,1055.8 2561.68,1057.13 2560.58,1058.24 C2559.47,1059.35 2558.14,1059.9 2556.58,1059.9 C2555.02,1059.9 2553.68,1059.35 2552.57,1058.24"/>
<path class="NoteDot" d="M701.295,1908.24 C700.186,1907.13 699.631,1905.8 699.631,1904.23 C699.631,1902.67 700.186,1901.34 701.295,1900.23 C702.405,1899.12 703.741,1898.56 705.303,1898.56 C706.866,1898.56 708.199,1899.12 709.303,1900.23 C710.407,1901.34 710.96,1902.67 710.96,1904.23 C710.96,1905.8 710.407,1907.13 709.303,1908.24 C708.199,1909.35 706.866,1909.91 705.303,1909.91 C703.741,1909.91 702.405,1909.35 701.295,1908.24"/>
<path class="NoteDot" d="M726.344,1458.24 C725.235,1457.13 724.68,1455.8 724.68,1454.23 C724.68,1452.67 725.235,1451.33 726.344,1450.23 C727.453,1449.12 728.789,1448.56 730.352,1448.56 C731.914,1448.56 733.248,1449.12 734.352,1450.23 C735.456,1451.33 736.008,1452.67 736.008,1454.23 C736.008,1455.8 735.456,1457.13 734.352,1458.24 C733.248,1459.35 731.914,1459.91 730.352,1459.91 C728.789,1459.91 727.453,1459.35 726.344,1458.24"/>
<path class="NoteDot" d="M1219.89,1508.24 C1218.78,1507.13 1218.22,1505.8 1218.22,1504.23 C1218.22,1502.67 1218.78,1501.33 1219.89,1500.23 C1221,1499.12 1222.33,1498.56 1223.9,1498.56 C1225.46,1498.56 1226.79,1499.12 1227.9,1500.23 C1229,1501.33 1229.55,1502.67 1229.55,1504.23 C1229.55,1505.8 1229,1507.13 1227.9,1508.24 C1226.79,1509.35 1225.46,1509.91 1223.9,1509.91 C1222.33,1509.91 1221,1509.35 1219.89,1508.24"/>
<path class="NoteDot" d="M330.561,1933.24 C329.451,1932.13 328.897,1930.8 328.897,1929.23 C328.897,1927.67 329.451,1926.34 330.561,1925.23 C331.67,1924.12 333.006,1923.56 334.568,1923.56 C336.131,1923.56 337.464,1924.12 338.568,1925.23 C339.673,1926.34 340.225,1927.67 340.225,1929.23 C340.225,1930.8 339.673,1932.13 338.568,1933.24 C337.464,1934.35 336.131,1934.91 334.568,1934.91 C333.006,1934.91 331.67,1934.35 330.561,1933.24"/>
<path class="NoteDot" d="M1684.43,1533.24 C1683.32,1532.13 1682.77,1530.8 1682.77,1529.23 C1682.77,1527.67 1683.32,1526.33 1684.43,1525.23 C1685.54,1524.12 1686.88,1523.56 1688.44,1523.56 C1690,1523.56 1691.34,1524.12 1692.44,1525.23 C1693.55,1526.33 1694.1,1527.67 1694.1,1529.23 C1694.1,1530.8 1693.55,1532.13 1692.44,1533.24 C1691.34,1534.35 1690,1534.91 1688.44,1534.91 C1686.88,1534.91 1685.54,1534.35 1684.43,1533.24"/>
<path class="NoteDot" d="M2410.25,1433.24 C2409.14,1432.13 2408.59,1430.8 2408.59,1429.23 C2408.59,1427.67 2409.14,1426.33 2410.25,1425.23 C2411.36,1424.12 2412.7,1423.56 2414.26,1423.56 C2415.82,1423.56 2417.16,1424.12 2418.26,1425.23 C2419.36,1426.33 2419.92,1427.67 2419.92,1429.23 C2419.92,1430.8 2419.36,1432.13 2418.26,1433.24 C2417.16,1434.35 2415.82,1434.91 2414.26,1434.91 C2412.7,1434.91 2411.36,1434.35 2410.25,1433.24"/>
<path class="Page" d="M1390.23,3976.58 C1390.23,3977.27 1390.15,3977.93 1389.99,3978.56 C1389.83,3979.19 1389.52,3979.86 1389.05,3980.57 C1388.58,3981.29 1387.96,3981.9 1387.19,3982.41 C1386.42,3982.92 1385.36,3983.35 1384.03,3983.69 C1382.7,3984.04 1381.15,3984.21 1379.39,3984.21 C1378.59,3984.21 1377.67,3984.17 1376.63,3984.08 L1376.63,3991.41 C1376.63,3992.89 1376.86,3993.85 1377.33,3994.29 C1377.8,3994.74 1378.82,3994.98 1380.39,3995.04 L1380.39,3995.8 L1369.19,3995.8 L1369.19,3995.04 C1370.71,3994.91 1371.65,3994.63 1372.01,3994.18 C1372.37,3993.74 1372.55,3992.68 1372.55,3991 L1372.55,3973.69 C1372.55,3972.24 1372.36,3971.32 1371.99,3970.93 C1371.62,3970.53 1370.69,3970.25 1369.19,3970.08 L1369.19,3969.33 L1379.75,3969.33 C1380.95,3969.33 1382.11,3969.44 1383.23,3969.67 C1384.35,3969.89 1385.46,3970.26 1386.57,3970.77 C1387.68,3971.28 1388.57,3972.03 1389.23,3973.02 C1389.9,3974.01 1390.23,3975.2 1390.23,3976.58 M1376.63,3972.21 L1376.63,3982.57 C1377.56,3982.64 1378.32,3982.68 1378.91,3982.68 C1383.55,3982.68 1385.88,3980.72 1385.88,3976.82 C1385.88,3974.78 1385.23,3973.27 1383.95,3972.3 C1382.67,3971.33 1380.68,3970.85 1377.98,3970.85 C1377.45,3970.85 1377.09,3970.94 1376.91,3971.13 C1376.72,3971.32 1376.63,3971.68 1376.63,3972.21 M1410.83,3993.72 L1410.83,3994.29 C1408.74,3994.87 1406.92,3995.49 1405.34,3996.16 L1405.19,3996.08 L1405.19,3992.69 C1405.1,3992.76 1404.87,3993 1404.48,3993.4 C1404.1,3993.8 1403.83,3994.08 1403.66,3994.23 C1403.5,3994.38 1403.23,3994.62 1402.84,3994.93 C1402.46,3995.25 1402.12,3995.48 1401.83,3995.62 C1401.54,3995.76 1401.16,3995.9 1400.71,3996.02 C1400.26,3996.15 1399.8,3996.21 1399.34,3996.21 C1397.88,3996.21 1396.7,3995.73 1395.82,3994.77 C1394.94,3993.81 1394.5,3992.54 1394.5,3990.94 L1394.5,3980.91 C1394.5,3979.98 1394.33,3979.34 1393.98,3978.98 C1393.64,3978.62 1392.99,3978.42 1392.03,3978.36 L1392.03,3977.8 L1397.86,3977.8 L1397.86,3990.77 C1397.86,3991.59 1398.14,3992.3 1398.7,3992.9 C1399.27,3993.5 1399.93,3993.8 1400.7,3993.8 C1400.99,3993.8 1401.34,3993.76 1401.74,3993.68 C1402.14,3993.61 1402.6,3993.45 1403.13,3993.22 C1403.65,3992.99 1404.09,3992.63 1404.45,3992.15 C1404.8,3991.66 1404.98,3991.05 1404.98,3990.33 L1404.98,3980.99 C1404.98,3980.01 1404.8,3979.36 1404.45,3979.04 C1404.09,3978.73 1403.28,3978.54 1402.02,3978.49 L1402.02,3977.8 L1408.34,3977.8 L1408.34,3991.46 C1408.34,3992.38 1408.49,3992.99 1408.78,3993.29 C1409.07,3993.58 1409.69,3993.72 1410.63,3993.72 L1410.83,3993.72 M1417.03,3968.57 L1417.03,3980.69 C1417.43,3979.74 1418.15,3978.96 1419.19,3978.34 C1420.23,3977.72 1421.36,3977.41 1422.58,3977.41 C1424.58,3977.41 1426.25,3978.24 1427.6,3979.9 C1428.95,3981.55 1429.63,3983.6 1429.63,3986.05 C1429.63,3988.91 1428.72,3991.31 1426.92,3993.27 C1425.12,3995.23 1422.9,3996.21 1420.27,3996.21 C1418.66,3996.21 1417.16,3995.94 1415.77,3995.4 C1414.37,3994.87 1413.67,3994.3 1413.67,3993.71 L1413.67,3972.88 C1413.67,3972.06 1413.54,3971.51 1413.29,3971.25 C1413.03,3970.98 1412.51,3970.85 1411.7,3970.85 C1411.41,3970.85 1411.19,3970.86 1411.03,3970.88 L1411.03,3970.24 C1413.08,3969.74 1415.02,3969.16 1416.83,3968.49 L1417.03,3968.57 M1417.03,3982.85 L1417.03,3993.05 C1417.03,3993.57 1417.42,3994.03 1418.19,3994.42 C1418.96,3994.81 1419.86,3995 1420.91,3995 C1422.56,3995 1423.84,3994.38 1424.75,3993.14 C1425.66,3991.89 1426.11,3990.15 1426.11,3987.91 C1426.11,3985.45 1425.65,3983.49 1424.73,3982.01 C1423.8,3980.54 1422.56,3979.8 1420.98,3979.8 C1419.94,3979.8 1419.02,3980.11 1418.23,3980.73 C1417.43,3981.35 1417.03,3982.06 1417.03,3982.85 M1430.61,3970.88 L1430.61,3970.24 C1433.24,3969.6 1435.36,3969.02 1436.97,3968.49 L1437.13,3968.57 L1437.13,3992.44 C1437.13,3993.54 1437.3,3994.25 1437.66,3994.58 C1438.02,3994.92 1438.84,3995.12 1440.13,3995.21 L1440.13,3995.8 L1430.69,3995.8 L1430.69,3995.21 C1431.94,3995.09 1432.76,3994.85 1433.16,3994.48 C1433.57,3994.11 1433.77,3993.39 1433.77,3992.32 L1433.77,3973.24 C1433.77,3972.31 1433.65,3971.67 1433.41,3971.32 C1433.17,3970.98 1432.72,3970.8 1432.08,3970.8 C1431.55,3970.8 1431.06,3970.83 1430.61,3970.88 M1443,3980.08 C1442.41,3980.08 1441.84,3980.12 1441.31,3980.21 L1441.31,3979.6 C1443.18,3979.07 1445.24,3978.34 1447.52,3977.41 L1447.67,3977.52 L1447.67,3991.72 C1447.67,3993.16 1447.84,3994.07 1448.17,3994.46 C1448.51,3994.84 1449.33,3995.09 1450.64,3995.21 L1450.64,3995.8 L1441.16,3995.8 L1441.16,3995.21 C1442.54,3995.12 1443.41,3994.88 1443.77,3994.48 C1444.13,3994.08 1444.31,3993.16 1444.31,3991.72 L1444.31,3982.44 C1444.31,3981.57 1444.21,3980.96 1444.02,3980.61 C1443.82,3980.26 1443.48,3980.08 1443,3980.08 M1445.64,3968.49 C1446.22,3968.49 1446.72,3968.69 1447.12,3969.09 C1447.52,3969.49 1447.72,3969.97 1447.72,3970.52 C1447.72,3971.11 1447.52,3971.6 1447.12,3971.99 C1446.72,3972.37 1446.22,3972.57 1445.64,3972.57 C1445.08,3972.57 1444.6,3972.37 1444.22,3971.97 C1443.83,3971.56 1443.64,3971.09 1443.64,3970.53 C1443.64,3969.97 1443.84,3969.49 1444.23,3969.09 C1444.63,3968.69 1445.1,3968.49 1445.64,3968.49 M1451.83,3987.27 C1451.83,3984.31 1452.7,3981.93 1454.45,3980.12 C1456.19,3978.31 1458.24,3977.41 1460.59,3977.41 C1462.27,3977.41 1463.72,3977.82 1464.93,3978.63 C1466.14,3979.44 1466.75,3980.41 1466.75,3981.52 C1466.75,3981.98 1466.56,3982.37 1466.19,3982.71 C1465.81,3983.04 1465.36,3983.21 1464.83,3983.21 C1463.92,3983.21 1463.3,3982.6 1462.95,3981.38 L1462.7,3980.5 C1462.49,3979.76 1462.23,3979.26 1461.91,3979 C1461.58,3978.73 1461.06,3978.6 1460.34,3978.6 C1458.72,3978.6 1457.41,3979.24 1456.41,3980.53 C1455.41,3981.81 1454.91,3983.48 1454.91,3985.52 C1454.91,3987.8 1455.49,3989.67 1456.65,3991.11 C1457.81,3992.56 1459.3,3993.29 1461.11,3993.29 C1462.26,3993.29 1463.24,3993.01 1464.07,3992.45 C1464.9,3991.89 1465.79,3990.92 1466.75,3989.54 L1467.31,3989.9 C1467.04,3990.44 1466.81,3990.88 1466.61,3991.22 C1466.41,3991.57 1466.05,3992.09 1465.53,3992.79 C1465.01,3993.48 1464.49,3994.05 1463.98,3994.47 C1463.47,3994.9 1462.81,3995.3 1461.98,3995.66 C1461.16,3996.03 1460.31,3996.21 1459.42,3996.21 C1457.21,3996.21 1455.4,3995.37 1453.97,3993.7 C1452.54,3992.03 1451.83,3989.88 1451.83,3987.27 M1505.92,3982.44 C1505.92,3983.64 1505.79,3984.81 1505.52,3985.96 C1505.26,3987.1 1504.76,3988.29 1504.04,3989.52 C1503.32,3990.75 1502.39,3991.81 1501.27,3992.7 C1500.15,3993.59 1498.67,3994.33 1496.82,3994.92 C1494.97,3995.51 1492.87,3995.8 1490.52,3995.8 L1479.16,3995.8 L1479.16,3995.04 C1480.68,3994.93 1481.65,3994.67 1482.06,3994.24 C1482.48,3993.81 1482.69,3992.88 1482.69,3991.44 L1482.69,3973.69 C1482.69,3972.22 1482.49,3971.29 1482.1,3970.9 C1481.71,3970.5 1480.73,3970.23 1479.16,3970.08 L1479.16,3969.33 L1489.95,3969.33 C1492.38,3969.33 1494.55,3969.61 1496.45,3970.15 C1498.36,3970.7 1499.89,3971.41 1501.05,3972.27 C1502.22,3973.13 1503.18,3974.16 1503.94,3975.35 C1504.7,3976.54 1505.22,3977.7 1505.5,3978.85 C1505.78,3979.99 1505.92,3981.19 1505.92,3982.44 M1501.56,3982.72 C1501.56,3981.58 1501.45,3980.48 1501.22,3979.43 C1500.99,3978.39 1500.58,3977.32 1500,3976.25 C1499.42,3975.17 1498.66,3974.24 1497.72,3973.47 C1496.78,3972.7 1495.55,3972.07 1494.04,3971.58 C1492.52,3971.09 1490.79,3970.85 1488.84,3970.85 C1488.01,3970.85 1487.46,3970.96 1487.18,3971.17 C1486.9,3971.38 1486.77,3971.79 1486.77,3972.4 L1486.77,3992.65 C1486.77,3993.28 1486.91,3993.71 1487.2,3993.94 C1487.49,3994.17 1488.04,3994.29 1488.84,3994.29 C1497.32,3994.29 1501.56,3990.43 1501.56,3982.72 M1517.16,3977.41 C1519.71,3977.41 1521.81,3978.26 1523.47,3979.97 C1525.13,3981.67 1525.95,3983.83 1525.95,3986.44 C1525.95,3989.21 1525.1,3991.53 1523.39,3993.4 C1521.68,3995.27 1519.58,3996.21 1517.07,3996.21 C1514.57,3996.21 1512.48,3995.31 1510.81,3993.5 C1509.15,3991.7 1508.31,3989.46 1508.31,3986.77 C1508.31,3984.02 1509.13,3981.77 1510.77,3980.03 C1512.41,3978.28 1514.54,3977.41 1517.16,3977.41 M1511.91,3984.82 C1511.91,3987.65 1512.43,3990.06 1513.47,3992.04 C1514.51,3994.01 1515.87,3995 1517.55,3995 C1519.05,3995 1520.22,3994.37 1521.07,3993.1 C1521.92,3991.83 1522.34,3990.07 1522.34,3987.83 C1522.34,3985.11 1521.81,3982.9 1520.75,3981.18 C1519.69,3979.46 1518.31,3978.6 1516.63,3978.6 C1515.22,3978.6 1514.08,3979.17 1513.21,3980.3 C1512.34,3981.44 1511.91,3982.94 1511.91,3984.82 M1527.05,3979.96 L1527.05,3979.29 C1528.97,3978.72 1530.84,3978.1 1532.66,3977.41 L1532.94,3977.49 L1532.94,3980.57 C1534.58,3979.28 1535.81,3978.43 1536.61,3978.02 C1537.41,3977.61 1538.25,3977.41 1539.13,3977.41 C1541.23,3977.41 1542.65,3978.55 1543.38,3980.83 C1545.45,3978.55 1547.62,3977.41 1549.89,3977.41 C1552.98,3977.41 1554.53,3979.8 1554.53,3984.58 L1554.53,3992.77 C1554.53,3994.26 1555.1,3995.05 1556.25,3995.13 L1557.28,3995.21 L1557.28,3995.8 L1548.53,3995.8 L1548.53,3995.21 C1549.7,3995.07 1550.43,3994.85 1550.73,3994.53 C1551.02,3994.21 1551.17,3993.48 1551.17,3992.33 L1551.17,3983.94 C1551.17,3982.3 1550.96,3981.16 1550.53,3980.52 C1550.1,3979.88 1549.32,3979.57 1548.17,3979.57 C1546.41,3979.57 1544.96,3980.37 1543.81,3981.99 L1543.81,3992.02 C1543.81,3993.27 1544.01,3994.11 1544.39,3994.53 C1544.78,3994.95 1545.54,3995.18 1546.69,3995.21 L1546.69,3995.8 L1537.73,3995.8 L1537.73,3995.21 C1538.88,3995.12 1539.62,3994.91 1539.95,3994.57 C1540.29,3994.22 1540.45,3993.49 1540.45,3992.38 L1540.45,3983.74 C1540.45,3980.96 1539.57,3979.57 1537.81,3979.57 C1537.06,3979.57 1536.23,3979.75 1535.31,3980.12 C1534.4,3980.49 1533.66,3981.09 1533.09,3981.91 L1533.09,3993.13 C1533.09,3993.9 1533.28,3994.43 1533.65,3994.71 C1534.02,3994.99 1534.74,3995.16 1535.81,3995.21 L1535.81,3995.8 L1526.94,3995.8 L1526.94,3995.21 C1528.05,3995.18 1528.8,3994.98 1529.17,3994.61 C1529.55,3994.24 1529.73,3993.5 1529.73,3992.41 L1529.73,3982.35 C1529.73,3981.39 1529.63,3980.73 1529.43,3980.36 C1529.23,3979.99 1528.86,3979.8 1528.33,3979.8 C1527.93,3979.8 1527.51,3979.85 1527.05,3979.96 M1558.48,3991.85 C1558.48,3991.37 1558.54,3990.92 1558.64,3990.51 C1558.74,3990.1 1558.93,3989.72 1559.2,3989.36 C1559.47,3989.01 1559.73,3988.69 1559.97,3988.4 C1560.21,3988.1 1560.57,3987.8 1561.05,3987.5 C1561.53,3987.19 1561.92,3986.94 1562.24,3986.74 C1562.56,3986.54 1563.05,3986.3 1563.7,3986.02 C1564.36,3985.74 1564.86,3985.53 1565.2,3985.38 C1565.55,3985.23 1566.09,3985.01 1566.84,3984.72 C1567.59,3984.43 1568.14,3984.22 1568.48,3984.1 L1568.48,3981.66 C1568.48,3979.46 1567.47,3978.36 1565.44,3978.36 C1564.65,3978.36 1563.97,3978.56 1563.41,3978.94 C1562.84,3979.33 1562.56,3979.79 1562.56,3980.32 C1562.56,3980.54 1562.6,3980.83 1562.66,3981.21 C1562.73,3981.58 1562.77,3981.82 1562.77,3981.93 C1562.77,3982.37 1562.59,3982.76 1562.23,3983.1 C1561.87,3983.43 1561.45,3983.6 1560.97,3983.6 C1560.51,3983.6 1560.11,3983.43 1559.77,3983.08 C1559.42,3982.74 1559.25,3982.34 1559.25,3981.88 C1559.25,3980.63 1559.9,3979.57 1561.19,3978.71 C1562.48,3977.84 1564.07,3977.41 1565.97,3977.41 C1568.16,3977.41 1569.66,3977.93 1570.48,3978.98 C1571.31,3980.03 1571.72,3981.62 1571.72,3983.77 L1571.72,3991.54 C1571.72,3992.41 1571.8,3993.01 1571.98,3993.35 C1572.15,3993.68 1572.46,3993.85 1572.92,3993.85 C1573.48,3993.85 1574.07,3993.59 1574.69,3993.08 L1574.69,3994.13 C1573.99,3994.93 1573.38,3995.48 1572.86,3995.77 C1572.34,3996.06 1571.74,3996.21 1571.08,3996.21 C1570.26,3996.21 1569.65,3995.97 1569.27,3995.5 C1568.88,3995.04 1568.63,3994.27 1568.52,3993.21 C1566.22,3995.21 1564.28,3996.21 1562.69,3996.21 C1561.46,3996.21 1560.45,3995.8 1559.66,3994.99 C1558.88,3994.18 1558.48,3993.13 1558.48,3991.85 M1568.48,3990.82 L1568.48,3985.05 C1566.09,3985.93 1564.41,3986.78 1563.45,3987.6 C1562.48,3988.42 1562,3989.42 1562,3990.58 C1562,3991.67 1562.27,3992.47 1562.8,3993 C1563.34,3993.54 1563.91,3993.8 1564.52,3993.8 C1565.43,3993.8 1566.41,3993.49 1567.44,3992.88 C1567.86,3992.65 1568.15,3992.4 1568.28,3992.14 C1568.42,3991.87 1568.48,3991.43 1568.48,3990.82 M1577.16,3980.08 C1576.56,3980.08 1576,3980.12 1575.47,3980.21 L1575.47,3979.6 C1577.33,3979.07 1579.4,3978.34 1581.67,3977.41 L1581.83,3977.52 L1581.83,3991.72 C1581.83,3993.16 1581.99,3994.07 1582.33,3994.46 C1582.66,3994.84 1583.48,3995.09 1584.8,3995.21 L1584.8,3995.8 L1575.31,3995.8 L1575.31,3995.21 C1576.7,3995.12 1577.57,3994.88 1577.93,3994.48 C1578.29,3994.08 1578.47,3993.16 1578.47,3991.72 L1578.47,3982.44 C1578.47,3981.57 1578.37,3980.96 1578.17,3980.61 C1577.97,3980.26 1577.64,3980.08 1577.16,3980.08 M1579.8,3968.49 C1580.38,3968.49 1580.87,3968.69 1581.27,3969.09 C1581.67,3969.49 1581.88,3969.97 1581.88,3970.52 C1581.88,3971.11 1581.67,3971.6 1581.27,3971.99 C1580.87,3972.37 1580.38,3972.57 1579.8,3972.57 C1579.23,3972.57 1578.76,3972.37 1578.38,3971.97 C1577.99,3971.56 1577.8,3971.09 1577.8,3970.53 C1577.8,3969.97 1577.99,3969.49 1578.39,3969.09 C1578.79,3968.69 1579.26,3968.49 1579.8,3968.49 M1585.78,3979.85 L1585.78,3979.16 C1587.75,3978.59 1589.59,3978 1591.3,3977.41 L1591.58,3977.49 L1591.58,3980.6 C1592.93,3979.34 1594,3978.49 1594.79,3978.06 C1595.58,3977.63 1596.44,3977.41 1597.38,3977.41 C1598.84,3977.41 1600,3977.93 1600.84,3978.98 C1601.67,3980.03 1602.09,3981.49 1602.09,3983.38 L1602.09,3992.55 C1602.09,3993.54 1602.25,3994.2 1602.57,3994.54 C1602.89,3994.87 1603.54,3995.09 1604.53,3995.21 L1604.53,3995.8 L1596.22,3995.8 L1596.22,3995.21 C1597.23,3995.12 1597.9,3994.86 1598.23,3994.4 C1598.57,3993.95 1598.73,3993.09 1598.73,3991.83 L1598.73,3983.46 C1598.73,3980.86 1597.76,3979.57 1595.81,3979.57 C1595.15,3979.57 1594.53,3979.72 1593.98,3980.03 C1593.42,3980.34 1592.66,3980.94 1591.69,3981.85 L1591.69,3993.11 C1591.69,3993.83 1591.88,3994.34 1592.25,3994.64 C1592.63,3994.93 1593.32,3995.12 1594.33,3995.21 L1594.33,3995.8 L1585.86,3995.8 L1585.86,3995.21 C1586.87,3995.12 1587.53,3994.89 1587.85,3994.5 C1588.17,3994.12 1588.33,3993.35 1588.33,3992.19 L1588.33,3982.25 C1588.33,3981.26 1588.22,3980.59 1588.01,3980.22 C1587.79,3979.86 1587.41,3979.68 1586.86,3979.68 C1586.35,3979.68 1585.99,3979.73 1585.78,3979.85"/>
</svg>
