<?xml version="1.0" encoding="UTF-8" standalone="no"?>
<svg width="2977.2px" height="4208.4px" viewBox="0 0 2977.2 4208.4"
 xmlns="http://www.w3.org/2000/svg" xmlns:xlink="http://www.w3.org/1999/xlink" version="1.2" baseProfile="tiny">
<title>B_Melodic_Minor.mscx</title>
<desc>Generated by MuseScore Studio 4.3.1</desc>
<path class="" fill="#ffffff" fill-rule="evenodd" d="M0,0 L2977.2,0 L2977.2,4208.4 L0,4208.4 L0,0 "/>
<polyline class="StaffLines" fill="none" stroke="#000000" stroke-width="2.00" stroke-linejoin="bevel" points="141.732,566.733 2835.47,566.733"/>
<polyline class="StaffLines" fill="none" stroke="#000000" stroke-width="2.00" stroke-linejoin="bevel" points="141.732,591.733 2835.47,591.733"/>
<polyline class="StaffLines" fill="none" stroke="#000000" stroke-width="2.00" stroke-linejoin="bevel" points="141.732,616.733 2835.47,616.733"/>
<polyline class="StaffLines" fill="none" stroke="#000000" stroke-width="2.00" stroke-linejoin="bevel" points="141.732,641.733 2835.47,641.733"/>
<polyline class="StaffLines" fill="none" stroke="#000000" stroke-width="2.00" stroke-linejoin="bevel" points="141.732,666.733 2835.47,666.733"/>
<polyline class="BarLine" fill="none" stroke="#000000" stroke-width="4.00" stroke-linejoin="bevel" points="2802.72,565.733 2802.72,667.733"/>
<polyline class="BarLine" fill="none" stroke="#000000" stroke-width="12.50" stroke-linejoin="bevel" points="2829.22,565.733 2829.22,667.733"/>
<polyline class="BarLine" fill="none" stroke="#000000" stroke-width="4.00" stroke-linejoin="bevel" points="854.25,565.733 854.25,667.733"/>
<polyline class="BarLine" fill="none" stroke="#000000" stroke-width="4.00" stroke-linejoin="bevel" points="1145.66,565.733 1145.66,667.733"/>
<polyline class="BarLine" fill="none" stroke="#000000" stroke-width="4.00" stroke-linejoin="bevel" points="575.436,565.733 575.436,667.733"/>
<polyline class="BarLine" fill="none" stroke="#000000" stroke-width="4.00" stroke-linejoin="bevel" points="1446.58,565.733 1446.58,667.733"/>
<polyline class="BarLine" fill="none" stroke="#000000" stroke-width="4.00" stroke-linejoin="bevel" points="1662.26,565.733 1662.26,667.733"/>
<polyline class="BarLine" fill="none" stroke="#000000" stroke-width="4.00" stroke-linejoin="bevel" points="1941.08,565.733 1941.08,667.733"/>
<polyline class="BarLine" fill="none" stroke="#000000" stroke-width="4.00" stroke-linejoin="bevel" points="2232.49,565.733 2232.49,667.733"/>
<polyline class="BarLine" fill="none" stroke="#000000" stroke-width="4.00" stroke-linejoin="bevel" points="2511.3,565.733 2511.3,667.733"/>
<path class="Accidental" d="M1177.84,519.764 C1179.28,519.368 1180,519.722 1180,520.826 L1180,528.639 C1180,529.42 1179.38,530.04 1178.14,530.498 L1174.92,531.764 L1174.92,545.936 L1177.84,544.764 C1179.28,544.368 1180,544.727 1180,545.842 L1180,553.654 C1180,554.436 1179.38,555.05 1178.14,555.498 L1174.92,556.779 L1174.92,572.983 C1174.92,574.222 1174.43,574.842 1173.45,574.842 C1172.47,574.842 1171.98,574.222 1171.98,572.983 L1171.98,557.951 L1162.7,561.654 L1162.7,577.764 C1162.7,579.003 1162.22,579.623 1161.24,579.623 C1160.27,579.623 1159.78,579.003 1159.78,577.764 L1159.78,562.826 L1157.23,563.904 C1155.87,564.488 1155.19,564.097 1155.19,562.733 L1155.19,555.014 C1155.19,554.368 1155.78,553.785 1156.95,553.264 L1159.78,552.092 L1159.78,537.826 L1157.23,538.904 C1155.87,539.488 1155.19,539.097 1155.19,537.733 L1155.19,530.014 C1155.19,529.358 1155.78,528.769 1156.95,528.248 L1159.78,527.076 L1159.78,510.967 C1159.78,509.727 1160.27,509.108 1161.24,509.108 C1162.22,509.108 1162.7,509.727 1162.7,510.967 L1162.7,525.904 L1171.98,522.108 L1171.98,506.186 C1171.98,504.946 1172.47,504.326 1173.45,504.326 C1174.43,504.326 1174.92,504.946 1174.92,506.186 L1174.92,520.936 L1177.84,519.764 M1162.7,536.654 L1162.7,550.92 L1171.98,547.108 L1171.98,532.936 L1162.7,536.654 "/>
<path class="Accidental" d="M1796.8,519.764 C1798.23,519.368 1798.95,519.722 1798.95,520.826 L1798.95,528.639 C1798.95,529.42 1798.33,530.04 1797.09,530.498 L1793.87,531.764 L1793.87,545.936 L1796.8,544.764 C1798.23,544.368 1798.95,544.727 1798.95,545.842 L1798.95,553.654 C1798.95,554.436 1798.33,555.05 1797.09,555.498 L1793.87,556.779 L1793.87,572.983 C1793.87,574.222 1793.38,574.842 1792.41,574.842 C1791.43,574.842 1790.94,574.222 1790.94,572.983 L1790.94,557.951 L1781.66,561.654 L1781.66,577.764 C1781.66,579.003 1781.17,579.623 1780.19,579.623 C1779.22,579.623 1778.73,579.003 1778.73,577.764 L1778.73,562.826 L1776.19,563.904 C1774.82,564.488 1774.14,564.097 1774.14,562.733 L1774.14,555.014 C1774.14,554.368 1774.73,553.785 1775.91,553.264 L1778.73,552.092 L1778.73,537.826 L1776.19,538.904 C1774.82,539.488 1774.14,539.097 1774.14,537.733 L1774.14,530.014 C1774.14,529.358 1774.73,528.769 1775.91,528.248 L1778.73,527.076 L1778.73,510.967 C1778.73,509.727 1779.22,509.108 1780.19,509.108 C1781.17,509.108 1781.66,509.727 1781.66,510.967 L1781.66,525.904 L1790.94,522.108 L1790.94,506.186 C1790.94,504.946 1791.43,504.326 1792.41,504.326 C1793.38,504.326 1793.87,504.946 1793.87,506.186 L1793.87,520.936 L1796.8,519.764 M1781.66,536.654 L1781.66,550.92 L1790.94,547.108 L1790.94,532.936 L1781.66,536.654 "/>
<path class="Accidental" d="M1973.26,532.264 C1974.69,531.868 1975.41,532.222 1975.41,533.326 L1975.41,541.139 C1975.41,541.92 1974.79,542.54 1973.55,542.998 L1970.33,544.264 L1970.33,558.436 L1973.26,557.264 C1974.69,556.868 1975.41,557.227 1975.41,558.342 L1975.41,566.154 C1975.41,566.936 1974.79,567.55 1973.55,567.998 L1970.33,569.279 L1970.33,585.483 C1970.33,586.722 1969.84,587.342 1968.86,587.342 C1967.89,587.342 1967.4,586.722 1967.4,585.483 L1967.4,570.451 L1958.11,574.154 L1958.11,590.264 C1958.11,591.503 1957.63,592.123 1956.65,592.123 C1955.68,592.123 1955.19,591.503 1955.19,590.264 L1955.19,575.326 L1952.65,576.404 C1951.28,576.988 1950.6,576.597 1950.6,575.233 L1950.6,567.514 C1950.6,566.868 1951.19,566.285 1952.36,565.764 L1955.19,564.592 L1955.19,550.326 L1952.65,551.404 C1951.28,551.988 1950.6,551.597 1950.6,550.233 L1950.6,542.514 C1950.6,541.858 1951.19,541.269 1952.36,540.748 L1955.19,539.576 L1955.19,523.467 C1955.19,522.227 1955.68,521.608 1956.65,521.608 C1957.63,521.608 1958.11,522.227 1958.11,523.467 L1958.11,538.404 L1967.4,534.608 L1967.4,518.686 C1967.4,517.446 1967.89,516.826 1968.86,516.826 C1969.84,516.826 1970.33,517.446 1970.33,518.686 L1970.33,533.436 L1973.26,532.264 M1958.11,549.154 L1958.11,563.42 L1967.4,559.608 L1967.4,545.436 L1958.11,549.154 "/>
<path class="Accidental" d="M440.657,582.264 C442.094,581.868 442.813,582.222 442.813,583.326 L442.813,591.139 C442.813,591.92 442.193,592.54 440.954,592.998 L437.735,594.264 L437.735,608.436 L440.657,607.264 C442.094,606.868 442.813,607.227 442.813,608.342 L442.813,616.155 C442.813,616.936 442.193,617.55 440.954,617.998 L437.735,619.28 L437.735,635.483 C437.735,636.722 437.245,637.342 436.266,637.342 C435.287,637.342 434.797,636.722 434.797,635.483 L434.797,620.451 L425.516,624.155 L425.516,640.264 C425.516,641.503 425.029,642.123 424.055,642.123 C423.081,642.123 422.594,641.503 422.594,640.264 L422.594,625.326 L420.047,626.405 C418.683,626.988 418,626.597 418,625.233 L418,617.514 C418,616.868 418.589,616.285 419.766,615.764 L422.594,614.592 L422.594,600.326 L420.047,601.405 C418.683,601.988 418,601.597 418,600.233 L418,592.514 C418,591.858 418.589,591.269 419.766,590.748 L422.594,589.576 L422.594,573.467 C422.594,572.227 423.081,571.608 424.055,571.608 C425.029,571.608 425.516,572.227 425.516,573.467 L425.516,588.405 L434.797,584.608 L434.797,568.686 C434.797,567.446 435.287,566.826 436.266,566.826 C437.245,566.826 437.735,567.446 437.735,568.686 L437.735,583.436 L440.657,582.264 M425.516,599.155 L425.516,613.42 L434.797,609.608 L434.797,595.436 L425.516,599.155 "/>
<path class="Accidental" d="M2097.71,544.764 C2099.15,544.368 2099.87,544.722 2099.87,545.826 L2099.87,553.639 C2099.87,554.42 2099.25,555.04 2098.01,555.498 L2094.79,556.764 L2094.79,570.936 L2097.71,569.764 C2099.15,569.368 2099.87,569.727 2099.87,570.842 L2099.87,578.655 C2099.87,579.436 2099.25,580.05 2098.01,580.498 L2094.79,581.78 L2094.79,597.983 C2094.79,599.222 2094.3,599.842 2093.32,599.842 C2092.34,599.842 2091.85,599.222 2091.85,597.983 L2091.85,582.951 L2082.57,586.655 L2082.57,602.764 C2082.57,604.003 2082.08,604.623 2081.11,604.623 C2080.14,604.623 2079.65,604.003 2079.65,602.764 L2079.65,587.826 L2077.1,588.905 C2075.74,589.488 2075.05,589.097 2075.05,587.733 L2075.05,580.014 C2075.05,579.368 2075.64,578.785 2076.82,578.264 L2079.65,577.092 L2079.65,562.826 L2077.1,563.905 C2075.74,564.488 2075.05,564.097 2075.05,562.733 L2075.05,555.014 C2075.05,554.358 2075.64,553.769 2076.82,553.248 L2079.65,552.076 L2079.65,535.967 C2079.65,534.727 2080.14,534.108 2081.11,534.108 C2082.08,534.108 2082.57,534.727 2082.57,535.967 L2082.57,550.905 L2091.85,547.108 L2091.85,531.186 C2091.85,529.946 2092.34,529.326 2093.32,529.326 C2094.3,529.326 2094.79,529.946 2094.79,531.186 L2094.79,545.936 L2097.71,544.764 M2082.57,561.655 L2082.57,575.92 L2091.85,572.108 L2091.85,557.936 L2082.57,561.655 "/>
<path class="Accidental" d="M1010.88,532.264 C1012.32,531.868 1013.04,532.222 1013.04,533.326 L1013.04,541.139 C1013.04,541.92 1012.42,542.54 1011.18,542.998 L1007.96,544.264 L1007.96,558.436 L1010.88,557.264 C1012.32,556.868 1013.04,557.227 1013.04,558.342 L1013.04,566.154 C1013.04,566.936 1012.42,567.55 1011.18,567.998 L1007.96,569.279 L1007.96,585.483 C1007.96,586.722 1007.47,587.342 1006.49,587.342 C1005.51,587.342 1005.03,586.722 1005.03,585.483 L1005.03,570.451 L995.744,574.154 L995.744,590.264 C995.744,591.503 995.257,592.123 994.283,592.123 C993.309,592.123 992.822,591.503 992.822,590.264 L992.822,575.326 L990.275,576.404 C988.911,576.988 988.228,576.597 988.228,575.233 L988.228,567.514 C988.228,566.868 988.817,566.285 989.994,565.764 L992.822,564.592 L992.822,550.326 L990.275,551.404 C988.911,551.988 988.228,551.597 988.228,550.233 L988.228,542.514 C988.228,541.858 988.817,541.269 989.994,540.748 L992.822,539.576 L992.822,523.467 C992.822,522.227 993.309,521.608 994.283,521.608 C995.257,521.608 995.744,522.227 995.744,523.467 L995.744,538.404 L1005.03,534.608 L1005.03,518.686 C1005.03,517.446 1005.51,516.826 1006.49,516.826 C1007.47,516.826 1007.96,517.446 1007.96,518.686 L1007.96,533.436 L1010.88,532.264 M995.744,549.154 L995.744,563.42 L1005.03,559.608 L1005.03,545.436 L995.744,549.154 "/>
<path class="Accidental" d="M2543.48,582.264 C2544.92,581.868 2545.64,582.222 2545.64,583.326 L2545.64,591.139 C2545.64,591.92 2545.02,592.54 2543.78,592.998 L2540.56,594.264 L2540.56,608.436 L2543.48,607.264 C2544.92,606.868 2545.64,607.227 2545.64,608.342 L2545.64,616.155 C2545.64,616.936 2545.02,617.55 2543.78,617.998 L2540.56,619.28 L2540.56,635.483 C2540.56,636.722 2540.07,637.342 2539.09,637.342 C2538.11,637.342 2537.62,636.722 2537.62,635.483 L2537.62,620.451 L2528.34,624.155 L2528.34,640.264 C2528.34,641.503 2527.86,642.123 2526.88,642.123 C2525.91,642.123 2525.42,641.503 2525.42,640.264 L2525.42,625.326 L2522.87,626.405 C2521.51,626.988 2520.83,626.597 2520.83,625.233 L2520.83,617.514 C2520.83,616.868 2521.42,616.285 2522.59,615.764 L2525.42,614.592 L2525.42,600.326 L2522.87,601.405 C2521.51,601.988 2520.83,601.597 2520.83,600.233 L2520.83,592.514 C2520.83,591.858 2521.42,591.269 2522.59,590.748 L2525.42,589.576 L2525.42,573.467 C2525.42,572.227 2525.91,571.608 2526.88,571.608 C2527.86,571.608 2528.34,572.227 2528.34,573.467 L2528.34,588.405 L2537.62,584.608 L2537.62,568.686 C2537.62,567.446 2538.11,566.826 2539.09,566.826 C2540.07,566.826 2540.56,567.446 2540.56,568.686 L2540.56,583.436 L2543.48,582.264 M2528.34,599.155 L2528.34,613.42 L2537.62,609.608 L2537.62,595.436 L2528.34,599.155 "/>
<path class="Accidental" d="M886.429,544.764 C887.867,544.368 888.585,544.722 888.585,545.826 L888.585,553.639 C888.585,554.42 887.966,555.04 886.726,555.498 L883.507,556.764 L883.507,570.936 L886.429,569.764 C887.867,569.368 888.585,569.727 888.585,570.842 L888.585,578.655 C888.585,579.436 887.966,580.05 886.726,580.498 L883.507,581.78 L883.507,597.983 C883.507,599.222 883.018,599.842 882.039,599.842 C881.059,599.842 880.57,599.222 880.57,597.983 L880.57,582.951 L871.289,586.655 L871.289,602.764 C871.289,604.003 870.802,604.623 869.828,604.623 C868.854,604.623 868.367,604.003 868.367,602.764 L868.367,587.826 L865.82,588.905 C864.455,589.488 863.773,589.097 863.773,587.733 L863.773,580.014 C863.773,579.368 864.362,578.785 865.539,578.264 L868.367,577.092 L868.367,562.826 L865.82,563.905 C864.455,564.488 863.773,564.097 863.773,562.733 L863.773,555.014 C863.773,554.358 864.362,553.769 865.539,553.248 L868.367,552.076 L868.367,535.967 C868.367,534.727 868.854,534.108 869.828,534.108 C870.802,534.108 871.289,534.727 871.289,535.967 L871.289,550.905 L880.57,547.108 L880.57,531.186 C880.57,529.946 881.059,529.326 882.039,529.326 C883.018,529.326 883.507,529.946 883.507,531.186 L883.507,545.936 L886.429,544.764 M871.289,561.655 L871.289,575.92 L880.57,572.108 L880.57,557.936 L871.289,561.655 "/>
<polyline class="LedgerLine" fill="none" stroke="#000000" stroke-width="4.00" stroke-linejoin="bevel" points="1804.22,541.733 1857.94,541.733"/>
<polyline class="LedgerLine" fill="none" stroke="#000000" stroke-width="4.00" stroke-linejoin="bevel" points="1679.76,541.733 1733.48,541.733"/>
<polyline class="LedgerLine" fill="none" stroke="#000000" stroke-width="4.00" stroke-linejoin="bevel" points="1185.27,541.733 1238.98,541.733"/>
<polyline class="LedgerLine" fill="none" stroke="#000000" stroke-width="4.00" stroke-linejoin="bevel" points="1309.72,541.733 1363.44,541.733"/>
<polyline class="Stem" fill="none" stroke="#000000" stroke-width="3.25" stroke-linejoin="bevel" points="325.248,621.633 325.248,691.733"/>
<polyline class="Stem" fill="none" stroke="#000000" stroke-width="3.25" stroke-linejoin="bevel" points="728.517,584.133 728.517,666.733"/>
<polyline class="Stem" fill="none" stroke="#000000" stroke-width="3.25" stroke-linejoin="bevel" points="1815.34,546.633 1815.34,629.233"/>
<polyline class="Stem" fill="none" stroke="#000000" stroke-width="3.25" stroke-linejoin="bevel" points="1982.3,559.133 1982.3,641.733"/>
<polyline class="Stem" fill="none" stroke="#000000" stroke-width="3.25" stroke-linejoin="bevel" points="1690.89,534.133 1690.89,616.733"/>
<polyline class="Stem" fill="none" stroke="#000000" stroke-width="3.25" stroke-linejoin="bevel" points="449.704,609.133 449.704,685.483"/>
<polyline class="Stem" fill="none" stroke="#000000" stroke-width="3.25" stroke-linejoin="bevel" points="2106.76,571.633 2106.76,654.233"/>
<polyline class="Stem" fill="none" stroke="#000000" stroke-width="3.25" stroke-linejoin="bevel" points="2676.99,621.633 2676.99,691.733"/>
<polyline class="Stem" fill="none" stroke="#000000" stroke-width="3.25" stroke-linejoin="bevel" points="1320.85,534.133 1320.85,616.733"/>
<polyline class="Stem" fill="none" stroke="#000000" stroke-width="3.25" stroke-linejoin="bevel" points="2261.12,584.133 2261.12,666.733"/>
<polyline class="Stem" fill="none" stroke="#000000" stroke-width="3.25" stroke-linejoin="bevel" points="1196.39,546.633 1196.39,629.233"/>
<polyline class="Stem" fill="none" stroke="#000000" stroke-width="3.25" stroke-linejoin="bevel" points="895.476,571.633 895.476,654.233"/>
<polyline class="Stem" fill="none" stroke="#000000" stroke-width="3.25" stroke-linejoin="bevel" points="604.061,596.633 604.061,679.233"/>
<polyline class="Stem" fill="none" stroke="#000000" stroke-width="3.25" stroke-linejoin="bevel" points="2385.57,596.633 2385.57,679.233"/>
<polyline class="Stem" fill="none" stroke="#000000" stroke-width="3.25" stroke-linejoin="bevel" points="1019.93,559.133 1019.93,641.733"/>
<polyline class="Stem" fill="none" stroke="#000000" stroke-width="3.25" stroke-linejoin="bevel" points="2552.53,609.133 2552.53,685.483"/>
<path class="Note" d="M734.314,589.873 C736.199,589.873 740.155,587.92 746.181,584.014 C752.207,580.108 755.756,577.488 756.829,576.155 C757.902,574.821 758.439,573.634 758.439,572.592 C758.439,571.55 758.014,570.623 757.165,569.811 C756.316,568.998 755.34,568.592 754.236,568.592 C752.288,568.592 748.301,570.561 742.275,574.498 C736.249,578.436 732.715,581.056 731.673,582.358 C730.631,583.66 730.111,584.832 730.111,585.873 C730.111,586.915 730.519,587.842 731.337,588.655 C732.155,589.467 733.147,589.873 734.314,589.873 M753.267,565.467 C758.861,565.467 761.657,567.873 761.657,572.686 C761.657,575.03 760.975,577.748 759.611,580.842 C758.246,583.936 756.423,586.295 754.142,587.92 C749.131,591.306 742.85,592.998 735.298,592.998 C729.694,592.998 726.892,590.592 726.892,585.78 C726.892,583.634 727.558,580.964 728.892,577.772 C730.225,574.579 732.064,572.17 734.407,570.545 C739.428,567.16 745.715,565.467 753.267,565.467"/>
<path class="Note" d="M2112.55,577.373 C2114.44,577.373 2118.4,575.42 2124.42,571.514 C2130.45,567.608 2134,564.988 2135.07,563.655 C2136.14,562.321 2136.68,561.134 2136.68,560.092 C2136.68,559.05 2136.25,558.123 2135.41,557.311 C2134.56,556.498 2133.58,556.092 2132.48,556.092 C2130.53,556.092 2126.54,558.061 2120.52,561.998 C2114.49,565.936 2110.96,568.556 2109.91,569.858 C2108.87,571.16 2108.35,572.332 2108.35,573.373 C2108.35,574.415 2108.76,575.342 2109.58,576.155 C2110.4,576.967 2111.39,577.373 2112.55,577.373 M2131.51,552.967 C2137.1,552.967 2139.9,555.373 2139.9,560.186 C2139.9,562.53 2139.22,565.248 2137.85,568.342 C2136.49,571.436 2134.66,573.795 2132.38,575.42 C2127.37,578.806 2121.09,580.498 2113.54,580.498 C2107.93,580.498 2105.13,578.092 2105.13,573.28 C2105.13,571.134 2105.8,568.464 2107.13,565.272 C2108.47,562.079 2110.3,559.67 2112.65,558.045 C2117.67,554.66 2123.96,552.967 2131.51,552.967"/>
<path class="Note" d="M2266.91,589.873 C2268.8,589.873 2272.75,587.92 2278.78,584.014 C2284.81,580.108 2288.35,577.488 2289.43,576.155 C2290.5,574.821 2291.04,573.634 2291.04,572.592 C2291.04,571.55 2290.61,570.623 2289.76,569.811 C2288.91,568.998 2287.94,568.592 2286.83,568.592 C2284.89,568.592 2280.9,570.561 2274.87,574.498 C2268.85,578.436 2265.31,581.056 2264.27,582.358 C2263.23,583.66 2262.71,584.832 2262.71,585.873 C2262.71,586.915 2263.12,587.842 2263.94,588.655 C2264.75,589.467 2265.75,589.873 2266.91,589.873 M2285.87,565.467 C2291.46,565.467 2294.26,567.873 2294.26,572.686 C2294.26,575.03 2293.57,577.748 2292.21,580.842 C2290.84,583.936 2289.02,586.295 2286.74,587.92 C2281.73,591.306 2275.45,592.998 2267.9,592.998 C2262.29,592.998 2259.49,590.592 2259.49,585.78 C2259.49,583.634 2260.16,580.964 2261.49,577.772 C2262.82,574.579 2264.66,572.17 2267.01,570.545 C2272.03,567.16 2278.31,565.467 2285.87,565.467"/>
<path class="Note" d="M2682.78,627.373 C2684.67,627.373 2688.62,625.42 2694.65,621.514 C2700.68,617.608 2704.23,614.988 2705.3,613.655 C2706.37,612.321 2706.91,611.134 2706.91,610.092 C2706.91,609.05 2706.48,608.123 2705.63,607.311 C2704.79,606.498 2703.81,606.092 2702.7,606.092 C2700.76,606.092 2696.77,608.061 2690.74,611.998 C2684.72,615.936 2681.18,618.556 2680.14,619.858 C2679.1,621.16 2678.58,622.332 2678.58,623.373 C2678.58,624.415 2678.99,625.342 2679.81,626.155 C2680.62,626.967 2681.62,627.373 2682.78,627.373 M2701.74,602.967 C2707.33,602.967 2710.13,605.373 2710.13,610.186 C2710.13,612.53 2709.44,615.248 2708.08,618.342 C2706.71,621.436 2704.89,623.795 2702.61,625.42 C2697.6,628.806 2691.32,630.498 2683.77,630.498 C2678.16,630.498 2675.36,628.092 2675.36,623.28 C2675.36,621.134 2676.03,618.464 2677.36,615.272 C2678.69,612.079 2680.53,609.67 2682.88,608.045 C2687.9,604.66 2694.18,602.967 2701.74,602.967"/>
<path class="Note" d="M1988.1,564.873 C1989.98,564.873 1993.94,562.92 1999.97,559.014 C2005.99,555.108 2009.54,552.488 2010.61,551.154 C2011.69,549.821 2012.22,548.634 2012.22,547.592 C2012.22,546.55 2011.8,545.623 2010.95,544.811 C2010.1,543.998 2009.13,543.592 2008.02,543.592 C2006.07,543.592 2002.09,545.561 1996.06,549.498 C1990.03,553.436 1986.5,556.056 1985.46,557.358 C1984.42,558.66 1983.9,559.832 1983.9,560.873 C1983.9,561.915 1984.3,562.842 1985.12,563.654 C1985.94,564.467 1986.93,564.873 1988.1,564.873 M2007.05,540.467 C2012.65,540.467 2015.44,542.873 2015.44,547.686 C2015.44,550.029 2014.76,552.748 2013.4,555.842 C2012.03,558.936 2010.21,561.295 2007.93,562.92 C2002.92,566.306 1996.64,567.998 1989.08,567.998 C1983.48,567.998 1980.68,565.592 1980.68,560.779 C1980.68,558.634 1981.34,555.964 1982.68,552.772 C1984.01,549.579 1985.85,547.17 1988.19,545.545 C1993.21,542.16 1999.5,540.467 2007.05,540.467"/>
<path class="Note" d="M2558.33,614.873 C2560.21,614.873 2564.17,612.92 2570.19,609.014 C2576.22,605.108 2579.77,602.488 2580.84,601.155 C2581.92,599.821 2582.45,598.634 2582.45,597.592 C2582.45,596.55 2582.03,595.623 2581.18,594.811 C2580.33,593.998 2579.35,593.592 2578.25,593.592 C2576.3,593.592 2572.31,595.561 2566.29,599.498 C2560.26,603.436 2556.73,606.056 2555.69,607.358 C2554.64,608.66 2554.12,609.832 2554.12,610.873 C2554.12,611.915 2554.53,612.842 2555.35,613.655 C2556.17,614.467 2557.16,614.873 2558.33,614.873 M2577.28,590.467 C2582.87,590.467 2585.67,592.873 2585.67,597.686 C2585.67,600.03 2584.99,602.748 2583.62,605.842 C2582.26,608.936 2580.44,611.295 2578.16,612.92 C2573.14,616.306 2566.86,617.998 2559.31,617.998 C2553.71,617.998 2550.91,615.592 2550.91,610.78 C2550.91,608.634 2551.57,605.964 2552.91,602.772 C2554.24,599.579 2556.08,597.17 2558.42,595.545 C2563.44,592.16 2569.73,590.467 2577.28,590.467"/>
<path class="Note" d="M2391.37,602.373 C2393.25,602.373 2397.21,600.42 2403.23,596.514 C2409.26,592.608 2412.81,589.988 2413.88,588.655 C2414.96,587.321 2415.49,586.134 2415.49,585.092 C2415.49,584.05 2415.07,583.123 2414.22,582.311 C2413.37,581.498 2412.39,581.092 2411.29,581.092 C2409.34,581.092 2405.35,583.061 2399.33,586.998 C2393.3,590.936 2389.77,593.556 2388.73,594.858 C2387.69,596.16 2387.16,597.332 2387.16,598.373 C2387.16,599.415 2387.57,600.342 2388.39,601.155 C2389.21,601.967 2390.2,602.373 2391.37,602.373 M2410.32,577.967 C2415.91,577.967 2418.71,580.373 2418.71,585.186 C2418.71,587.53 2418.03,590.248 2416.66,593.342 C2415.3,596.436 2413.48,598.795 2411.2,600.42 C2406.19,603.806 2399.9,605.498 2392.35,605.498 C2386.75,605.498 2383.95,603.092 2383.95,598.28 C2383.95,596.134 2384.61,593.464 2385.95,590.272 C2387.28,587.079 2389.12,584.67 2391.46,583.045 C2396.48,579.66 2402.77,577.967 2410.32,577.967"/>
<path class="Note" d="M331.045,627.373 C332.93,627.373 336.886,625.42 342.912,621.514 C348.938,617.608 352.488,614.988 353.561,613.655 C354.634,612.321 355.17,611.134 355.17,610.092 C355.17,609.05 354.745,608.123 353.897,607.311 C353.048,606.498 352.071,606.092 350.967,606.092 C349.019,606.092 345.032,608.061 339.006,611.998 C332.98,615.936 329.446,618.556 328.404,619.858 C327.363,621.16 326.842,622.332 326.842,623.373 C326.842,624.415 327.251,625.342 328.068,626.155 C328.886,626.967 329.878,627.373 331.045,627.373 M349.998,602.967 C355.592,602.967 358.389,605.373 358.389,610.186 C358.389,612.53 357.706,615.248 356.342,618.342 C354.977,621.436 353.154,623.795 350.873,625.42 C345.863,628.806 339.581,630.498 332.029,630.498 C326.425,630.498 323.623,628.092 323.623,623.28 C323.623,621.134 324.29,618.464 325.623,615.272 C326.956,612.079 328.795,609.67 331.139,608.045 C336.16,604.66 342.446,602.967 349.998,602.967"/>
<path class="Note" d="M609.858,602.373 C611.744,602.373 615.699,600.42 621.725,596.514 C627.751,592.608 631.301,589.988 632.374,588.655 C633.447,587.321 633.983,586.134 633.983,585.092 C633.983,584.05 633.559,583.123 632.71,582.311 C631.861,581.498 630.884,581.092 629.78,581.092 C627.832,581.092 623.845,583.061 617.819,586.998 C611.793,590.936 608.259,593.556 607.218,594.858 C606.176,596.16 605.655,597.332 605.655,598.373 C605.655,599.415 606.064,600.342 606.882,601.155 C607.699,601.967 608.692,602.373 609.858,602.373 M628.811,577.967 C634.405,577.967 637.202,580.373 637.202,585.186 C637.202,587.53 636.52,590.248 635.155,593.342 C633.79,596.436 631.968,598.795 629.686,600.42 C624.676,603.806 618.395,605.498 610.843,605.498 C605.238,605.498 602.436,603.092 602.436,598.28 C602.436,596.134 603.103,593.464 604.436,590.272 C605.77,587.079 607.608,584.67 609.952,583.045 C614.973,579.66 621.259,577.967 628.811,577.967"/>
<path class="Note" d="M1025.73,564.873 C1027.61,564.873 1031.57,562.92 1037.6,559.014 C1043.62,555.108 1047.17,552.488 1048.24,551.154 C1049.32,549.821 1049.85,548.634 1049.85,547.592 C1049.85,546.55 1049.43,545.623 1048.58,544.811 C1047.73,543.998 1046.75,543.592 1045.65,543.592 C1043.7,543.592 1039.72,545.561 1033.69,549.498 C1027.66,553.436 1024.13,556.056 1023.09,557.358 C1022.05,558.66 1021.53,559.832 1021.53,560.873 C1021.53,561.915 1021.93,562.842 1022.75,563.654 C1023.57,564.467 1024.56,564.873 1025.73,564.873 M1044.68,540.467 C1050.28,540.467 1053.07,542.873 1053.07,547.686 C1053.07,550.029 1052.39,552.748 1051.03,555.842 C1049.66,558.936 1047.84,561.295 1045.56,562.92 C1040.55,566.306 1034.26,567.998 1026.71,567.998 C1021.11,567.998 1018.31,565.592 1018.31,560.779 C1018.31,558.634 1018.97,555.964 1020.31,552.772 C1021.64,549.579 1023.48,547.17 1025.82,545.545 C1030.84,542.16 1037.13,540.467 1044.68,540.467"/>
<path class="Note" d="M1202.19,552.373 C1204.07,552.373 1208.03,550.42 1214.05,546.514 C1220.08,542.608 1223.63,539.988 1224.7,538.654 C1225.78,537.321 1226.31,536.134 1226.31,535.092 C1226.31,534.05 1225.89,533.123 1225.04,532.311 C1224.19,531.498 1223.21,531.092 1222.11,531.092 C1220.16,531.092 1216.17,533.061 1210.15,536.998 C1204.12,540.936 1200.59,543.556 1199.55,544.858 C1198.51,546.16 1197.98,547.332 1197.98,548.373 C1197.98,549.415 1198.39,550.342 1199.21,551.154 C1200.03,551.967 1201.02,552.373 1202.19,552.373 M1221.14,527.967 C1226.73,527.967 1229.53,530.373 1229.53,535.186 C1229.53,537.529 1228.85,540.248 1227.48,543.342 C1226.12,546.436 1224.3,548.795 1222.02,550.42 C1217.01,553.806 1210.72,555.498 1203.17,555.498 C1197.57,555.498 1194.77,553.092 1194.77,548.279 C1194.77,546.134 1195.43,543.464 1196.77,540.272 C1198.1,537.079 1199.94,534.67 1202.28,533.045 C1207.3,529.66 1213.59,527.967 1221.14,527.967"/>
<path class="Note" d="M1326.64,539.873 C1328.53,539.873 1332.48,537.92 1338.51,534.014 C1344.54,530.108 1348.09,527.488 1349.16,526.154 C1350.23,524.821 1350.77,523.634 1350.77,522.592 C1350.77,521.55 1350.34,520.623 1349.49,519.811 C1348.65,518.998 1347.67,518.592 1346.57,518.592 C1344.62,518.592 1340.63,520.561 1334.6,524.498 C1328.58,528.436 1325.04,531.056 1324,532.358 C1322.96,533.66 1322.44,534.832 1322.44,535.873 C1322.44,536.915 1322.85,537.842 1323.67,538.654 C1324.48,539.467 1325.48,539.873 1326.64,539.873 M1345.6,515.467 C1351.19,515.467 1353.99,517.873 1353.99,522.686 C1353.99,525.029 1353.3,527.748 1351.94,530.842 C1350.58,533.936 1348.75,536.295 1346.47,537.92 C1341.46,541.306 1335.18,542.998 1327.63,542.998 C1322.02,542.998 1319.22,540.592 1319.22,535.779 C1319.22,533.634 1319.89,530.964 1321.22,527.772 C1322.55,524.579 1324.39,522.17 1326.74,520.545 C1331.76,517.16 1338.04,515.467 1345.6,515.467"/>
<path class="Note" d="M901.273,577.373 C903.158,577.373 907.114,575.42 913.14,571.514 C919.166,567.608 922.716,564.988 923.789,563.655 C924.862,562.321 925.398,561.134 925.398,560.092 C925.398,559.05 924.974,558.123 924.125,557.311 C923.276,556.498 922.299,556.092 921.195,556.092 C919.247,556.092 915.26,558.061 909.234,561.998 C903.208,565.936 899.674,568.556 898.632,569.858 C897.591,571.16 897.07,572.332 897.07,573.373 C897.07,574.415 897.479,575.342 898.296,576.155 C899.114,576.967 900.106,577.373 901.273,577.373 M920.226,552.967 C925.82,552.967 928.617,555.373 928.617,560.186 C928.617,562.53 927.934,565.248 926.57,568.342 C925.205,571.436 923.382,573.795 921.101,575.42 C916.091,578.806 909.809,580.498 902.257,580.498 C896.653,580.498 893.851,578.092 893.851,573.28 C893.851,571.134 894.518,568.464 895.851,565.272 C897.184,562.079 899.023,559.67 901.367,558.045 C906.388,554.66 912.674,552.967 920.226,552.967"/>
<path class="Note" d="M455.5,614.873 C457.386,614.873 461.342,612.92 467.368,609.014 C473.394,605.108 476.943,602.488 478.016,601.155 C479.089,599.821 479.625,598.634 479.625,597.592 C479.625,596.55 479.201,595.623 478.352,594.811 C477.503,593.998 476.526,593.592 475.422,593.592 C473.474,593.592 469.487,595.561 463.461,599.498 C457.435,603.436 453.901,606.056 452.86,607.358 C451.818,608.66 451.297,609.832 451.297,610.873 C451.297,611.915 451.706,612.842 452.524,613.655 C453.342,614.467 454.334,614.873 455.5,614.873 M474.454,590.467 C480.047,590.467 482.844,592.873 482.844,597.686 C482.844,600.03 482.162,602.748 480.797,605.842 C479.433,608.936 477.61,611.295 475.329,612.92 C470.318,616.306 464.037,617.998 456.485,617.998 C450.881,617.998 448.079,615.592 448.079,610.78 C448.079,608.634 448.745,605.964 450.079,602.772 C451.412,599.579 453.25,597.17 455.594,595.545 C460.615,592.16 466.901,590.467 474.454,590.467"/>
<path class="Note" d="M1696.68,539.873 C1698.57,539.873 1702.53,537.92 1708.55,534.014 C1714.58,530.108 1718.13,527.488 1719.2,526.154 C1720.27,524.821 1720.81,523.634 1720.81,522.592 C1720.81,521.55 1720.38,520.623 1719.54,519.811 C1718.69,518.998 1717.71,518.592 1716.61,518.592 C1714.66,518.592 1710.67,520.561 1704.65,524.498 C1698.62,528.436 1695.09,531.056 1694.04,532.358 C1693,533.66 1692.48,534.832 1692.48,535.873 C1692.48,536.915 1692.89,537.842 1693.71,538.654 C1694.53,539.467 1695.52,539.873 1696.68,539.873 M1715.64,515.467 C1721.23,515.467 1724.03,517.873 1724.03,522.686 C1724.03,525.029 1723.35,527.748 1721.98,530.842 C1720.62,533.936 1718.79,536.295 1716.51,537.92 C1711.5,541.306 1705.22,542.998 1697.67,542.998 C1692.06,542.998 1689.26,540.592 1689.26,535.779 C1689.26,533.634 1689.93,530.964 1691.26,527.772 C1692.6,524.579 1694.43,522.17 1696.78,520.545 C1701.8,517.16 1708.09,515.467 1715.64,515.467"/>
<path class="Note" d="M1821.14,552.373 C1823.03,552.373 1826.98,550.42 1833.01,546.514 C1839.03,542.608 1842.58,539.988 1843.66,538.654 C1844.73,537.321 1845.26,536.134 1845.26,535.092 C1845.26,534.05 1844.84,533.123 1843.99,532.311 C1843.14,531.498 1842.17,531.092 1841.06,531.092 C1839.11,531.092 1835.13,533.061 1829.1,536.998 C1823.07,540.936 1819.54,543.556 1818.5,544.858 C1817.46,546.16 1816.94,547.332 1816.94,548.373 C1816.94,549.415 1817.35,550.342 1818.16,551.154 C1818.98,551.967 1819.97,552.373 1821.14,552.373 M1840.09,527.967 C1845.69,527.967 1848.48,530.373 1848.48,535.186 C1848.48,537.529 1847.8,540.248 1846.44,543.342 C1845.07,546.436 1843.25,548.795 1840.97,550.42 C1835.96,553.806 1829.68,555.498 1822.12,555.498 C1816.52,555.498 1813.72,553.092 1813.72,548.279 C1813.72,546.134 1814.38,543.464 1815.72,540.272 C1817.05,537.079 1818.89,534.67 1821.23,533.045 C1826.25,529.66 1832.54,527.967 1840.09,527.967"/>
<path class="Clef" d="M203.623,673.858 L203.623,671.717 C203.56,670.613 203.399,668.889 203.139,666.545 C199.889,667.066 196.993,667.326 194.451,667.326 C185.337,667.326 177.605,663.727 171.256,656.53 C164.907,649.332 161.732,640.754 161.732,630.795 C161.732,628.129 162.253,624.923 163.295,621.178 C164.337,617.433 165.297,614.925 166.178,613.655 C167.058,612.384 168.378,610.155 170.139,606.967 C170.659,605.988 172.352,603.837 175.217,600.514 C175.738,599.806 176.193,599.222 176.584,598.764 C176.975,598.306 177.607,597.49 178.482,596.319 C179.357,595.147 180.3,594.056 181.31,593.045 C182.321,592.035 183.217,591.058 183.998,590.115 C184.779,589.173 185.498,588.379 186.154,587.733 C183.81,579.983 182.378,574.024 181.857,569.858 C181.337,565.691 181.076,560.579 181.076,554.522 C181.076,548.464 182.378,542.962 184.982,538.014 C187.514,532.879 191.06,528.681 195.623,525.42 C195.883,525.222 196.225,525.123 196.646,525.123 C197.068,525.123 197.378,525.222 197.576,525.42 C201.087,529.649 204.128,535.149 206.701,541.92 C209.274,548.691 210.56,555.024 210.56,560.92 C210.56,566.816 209.066,572.498 206.076,577.967 C202.691,583.759 198.326,589.748 192.982,595.936 C194.347,600.227 196.17,606.962 198.451,616.139 L199.045,616.139 C199.305,616.076 199.529,616.045 199.717,616.045 C207.081,616.045 213.089,618.634 217.74,623.811 C222.391,628.988 224.717,634.962 224.717,641.733 C224.717,650.129 221.238,656.899 214.279,662.045 C212.258,663.545 209.878,664.717 207.139,665.561 C207.472,669.79 207.639,672.605 207.639,674.006 C207.639,675.407 207.571,677.899 207.435,681.483 C207.373,687.597 205.29,692.837 201.185,697.201 C197.081,701.566 192.394,703.748 187.123,703.748 C181.852,703.748 177.36,701.876 173.646,698.131 C169.933,694.386 168.076,689.847 168.076,684.514 C168.076,681.712 169.154,679.332 171.31,677.373 C173.519,675.425 176.006,674.451 178.771,674.451 C181.537,674.451 183.8,675.462 185.56,677.483 C187.383,679.368 188.295,681.644 188.295,684.311 C188.295,686.977 187.383,689.222 185.56,691.045 C183.738,692.868 181.555,693.78 179.014,693.78 C177.972,693.78 176.967,693.587 175.998,693.201 C178.863,697.431 182.54,699.545 187.029,699.545 C191.519,699.545 195.36,697.691 198.553,693.983 C201.745,690.274 203.342,685.91 203.342,680.889 L203.623,673.858 M206.748,661.561 C210.133,660.321 212.821,658.123 214.81,654.967 C216.8,651.811 217.795,648.67 217.795,645.545 C217.795,640.92 216.199,636.785 213.006,633.139 C209.813,629.493 205.774,627.441 200.889,626.983 C203.691,640.722 205.644,652.248 206.748,661.561 M168.967,638.998 C168.967,645.446 171.537,651.079 176.678,655.897 C181.818,660.714 187.842,663.123 194.748,663.123 C197.477,663.123 200.144,662.925 202.748,662.53 C201.706,652.634 199.654,640.785 196.592,626.983 C192.758,627.379 189.782,628.699 187.662,630.944 C185.542,633.188 184.482,635.743 184.482,638.608 C184.482,643.556 187.123,647.561 192.404,650.623 C192.852,650.884 193.076,651.324 193.076,651.944 C193.076,652.563 192.865,653.1 192.443,653.553 C192.021,654.006 191.649,654.233 191.326,654.233 C191.003,654.233 190.581,654.17 190.06,654.045 C182.435,649.879 178.623,643.592 178.623,635.186 C178.623,631.217 180.024,627.41 182.826,623.764 C185.753,620.118 189.56,617.774 194.248,616.733 C192.425,609.441 190.93,603.743 189.764,599.639 C180.847,609.67 175.31,617.092 173.154,621.905 C170.363,628.155 168.967,633.852 168.967,638.998 M201.576,539.686 C196.691,542.092 192.834,545.574 190.006,550.131 C187.178,554.688 185.764,559.472 185.764,564.483 C185.764,569.493 186.935,575.972 189.279,583.92 C193.967,578.254 197.514,572.946 199.92,567.998 C202.326,563.05 203.529,558.152 203.529,553.303 C203.529,548.454 202.878,543.915 201.576,539.686"/>
<path class="TimeSig" d="M273.021,567.912 C274.516,567.912 275.949,567.686 277.318,567.233 C278.688,566.78 279.665,566.553 280.248,566.553 C280.831,566.553 281.222,566.907 281.42,567.615 C281.42,567.688 281.352,567.886 281.217,568.209 L252.811,601.225 L269.498,601.225 L269.498,588.131 C269.498,586.506 270.446,585.334 272.342,584.615 C274.29,583.897 276.503,581.001 278.982,575.928 C279.17,575.532 279.462,575.334 279.857,575.334 C280.639,575.334 281.092,575.793 281.217,576.709 L281.217,601.225 L288.357,601.225 C289.264,601.225 289.751,601.712 289.818,602.686 C289.886,603.66 289.399,604.147 288.357,604.147 L281.217,604.147 L281.217,604.928 C281.217,607.532 281.868,609.746 283.17,611.569 C284.67,613.391 286.43,614.303 288.451,614.303 C289.232,614.303 289.623,614.694 289.623,615.475 C289.623,616.256 289.087,616.647 288.014,616.647 C286.941,616.647 284.938,616.436 282.006,616.014 C279.074,615.592 276.811,615.381 275.217,615.381 C273.623,615.381 271.41,615.592 268.576,616.014 C265.743,616.436 263.613,616.647 262.186,616.647 C261.404,616.647 261.014,616.256 261.014,615.475 C261.014,614.694 261.404,614.303 262.186,614.303 C264.196,614.303 265.951,613.391 267.451,611.569 C268.816,609.683 269.498,607.47 269.498,604.928 L269.498,604.147 L252.811,604.147 C251.956,604.147 251.219,603.92 250.6,603.467 C249.98,603.014 249.67,602.592 249.67,602.201 C249.67,601.811 250.485,600.639 252.115,598.686 C253.745,596.733 256.074,592.972 259.1,587.405 C262.126,581.837 263.639,575.438 263.639,568.209 C263.639,567.168 264.097,566.647 265.014,566.647 C265.212,566.647 265.521,566.712 265.943,566.842 C266.365,566.972 267.277,567.183 268.678,567.475 C270.079,567.766 271.527,567.912 273.021,567.912"/>
<path class="TimeSig" d="M273.021,618.084 C274.516,618.084 275.949,617.858 277.318,617.405 C278.688,616.951 279.665,616.725 280.248,616.725 C280.831,616.725 281.222,617.079 281.42,617.787 C281.42,617.86 281.352,618.058 281.217,618.381 L252.811,651.397 L269.498,651.397 L269.498,638.303 C269.498,636.678 270.446,635.506 272.342,634.787 C274.29,634.069 276.503,631.173 278.982,626.1 C279.17,625.704 279.462,625.506 279.857,625.506 C280.639,625.506 281.092,625.964 281.217,626.881 L281.217,651.397 L288.357,651.397 C289.264,651.397 289.751,651.884 289.818,652.858 C289.886,653.832 289.399,654.319 288.357,654.319 L281.217,654.319 L281.217,655.1 C281.217,657.704 281.868,659.918 283.17,661.74 C284.67,663.563 286.43,664.475 288.451,664.475 C289.232,664.475 289.623,664.865 289.623,665.647 C289.623,666.428 289.087,666.819 288.014,666.819 C286.941,666.819 284.938,666.608 282.006,666.186 C279.074,665.764 276.811,665.553 275.217,665.553 C273.623,665.553 271.41,665.764 268.576,666.186 C265.743,666.608 263.613,666.819 262.186,666.819 C261.404,666.819 261.014,666.428 261.014,665.647 C261.014,664.865 261.404,664.475 262.186,664.475 C264.196,664.475 265.951,663.563 267.451,661.74 C268.816,659.855 269.498,657.642 269.498,655.1 L269.498,654.319 L252.811,654.319 C251.956,654.319 251.219,654.092 250.6,653.639 C249.98,653.186 249.67,652.764 249.67,652.373 C249.67,651.983 250.485,650.811 252.115,648.858 C253.745,646.905 256.074,643.144 259.1,637.576 C262.126,632.009 263.639,625.61 263.639,618.381 C263.639,617.339 264.097,616.819 265.014,616.819 C265.212,616.819 265.521,616.884 265.943,617.014 C266.365,617.144 267.277,617.355 268.678,617.647 C270.079,617.938 271.527,618.084 273.021,618.084"/>
<path class="Rest" d="M1572.2,607.358 L1536.66,607.358 C1536,607.358 1535.67,607.035 1535.67,606.389 L1535.67,592.717 C1535.67,592.061 1536,591.733 1536.66,591.733 L1572.2,591.733 C1572.85,591.733 1573.17,592.061 1573.17,592.717 L1573.17,606.389 C1573.17,607.035 1572.85,607.358 1572.2,607.358"/>
<path class="Lyrics" d="M599.436,739.764 L612.968,739.764 L612.968,743.061 L599.436,743.061 L599.436,739.764 M635.233,742.92 C635.233,740.962 634.804,739.225 633.944,737.709 C633.085,736.194 632.041,735.019 630.811,734.186 C629.582,733.353 628.207,732.668 626.686,732.131 C625.166,731.595 623.845,731.243 622.725,731.076 C621.606,730.91 620.624,730.826 619.78,730.826 C619.343,730.826 619.124,730.681 619.124,730.389 C619.124,730.274 619.145,730.186 619.186,730.123 L625.171,717.326 L636.671,717.326 C637.254,717.326 637.72,717.235 638.069,717.053 C638.418,716.871 638.796,716.488 639.202,715.905 L639.702,716.28 L637.608,720.889 C637.462,721.191 637.041,721.342 636.343,721.342 L625.561,721.342 L623.249,726.061 C628.603,727.019 632.582,728.582 635.186,730.748 C637.791,732.915 639.093,736.087 639.093,740.264 C639.093,742.451 638.754,744.397 638.077,746.1 C637.4,747.803 636.538,749.175 635.491,750.217 C634.444,751.259 633.233,752.113 631.858,752.78 C630.483,753.446 629.163,753.899 627.897,754.139 C626.632,754.379 625.358,754.498 624.077,754.498 C622.025,754.498 620.395,754.196 619.186,753.592 C617.978,752.988 617.374,752.155 617.374,751.092 C617.374,749.738 618.16,749.061 619.733,749.061 C620.764,749.061 622.095,749.621 623.725,750.741 C625.356,751.86 626.645,752.42 627.593,752.42 C629.759,752.42 631.574,751.504 633.038,749.67 C634.501,747.837 635.233,745.587 635.233,742.92"/>
<path class="Lyrics" d="M2561.39,742.92 C2561.39,740.962 2560.96,739.225 2560.1,737.709 C2559.24,736.194 2558.2,735.019 2556.97,734.186 C2555.74,733.353 2554.36,732.668 2552.84,732.131 C2551.32,731.595 2550,731.243 2548.88,731.076 C2547.76,730.91 2546.78,730.826 2545.94,730.826 C2545.5,730.826 2545.28,730.681 2545.28,730.389 C2545.28,730.274 2545.3,730.186 2545.34,730.123 L2551.33,717.326 L2562.83,717.326 C2563.41,717.326 2563.88,717.235 2564.23,717.053 C2564.57,716.871 2564.95,716.488 2565.36,715.905 L2565.86,716.28 L2563.76,720.889 C2563.62,721.191 2563.2,721.342 2562.5,721.342 L2551.72,721.342 L2549.41,726.061 C2554.76,727.019 2558.74,728.582 2561.34,730.748 C2563.95,732.915 2565.25,736.087 2565.25,740.264 C2565.25,742.451 2564.91,744.397 2564.23,746.1 C2563.56,747.803 2562.69,749.175 2561.65,750.217 C2560.6,751.259 2559.39,752.113 2558.01,752.78 C2556.64,753.446 2555.32,753.899 2554.05,754.139 C2552.79,754.379 2551.51,754.498 2550.23,754.498 C2548.18,754.498 2546.55,754.196 2545.34,753.592 C2544.13,752.988 2543.53,752.155 2543.53,751.092 C2543.53,749.738 2544.32,749.061 2545.89,749.061 C2546.92,749.061 2548.25,749.621 2549.88,750.741 C2551.51,751.86 2552.8,752.42 2553.75,752.42 C2555.92,752.42 2557.73,751.504 2559.19,749.67 C2560.66,747.837 2561.39,745.587 2561.39,742.92 M2581.03,737.076 C2581.03,736.712 2581.28,735.733 2581.77,734.139 C2582.27,732.545 2582.51,730.701 2582.51,728.608 C2581.09,729.493 2579.92,730.451 2579,731.483 C2578.08,732.514 2577.39,733.264 2576.94,733.733 C2576.48,734.201 2575.85,734.436 2575.05,734.436 C2573.72,734.436 2573.06,733.785 2573.06,732.483 C2573.06,731.847 2573.3,731.373 2573.77,731.061 C2574.25,730.748 2574.83,730.527 2575.53,730.397 C2576.23,730.267 2577.21,729.972 2578.48,729.514 C2579.74,729.056 2580.96,728.483 2582.14,727.795 C2580.7,727.066 2579.15,726.501 2577.48,726.1 C2575.82,725.699 2574.66,725.334 2574.02,725.006 C2573.38,724.678 2573.06,724.076 2573.06,723.201 C2573.06,722.649 2573.24,722.183 2573.61,721.803 C2573.97,721.423 2574.42,721.233 2574.94,721.233 C2575.52,721.233 2576.04,721.397 2576.5,721.725 C2576.96,722.053 2577.35,722.454 2577.68,722.928 C2578.01,723.402 2578.6,724.022 2579.47,724.787 C2580.33,725.553 2581.35,726.28 2582.51,726.967 C2582.51,724.884 2582.29,723.035 2581.83,721.42 C2581.37,719.806 2581.14,718.816 2581.14,718.451 C2581.14,717.899 2581.32,717.441 2581.69,717.076 C2582.06,716.712 2582.52,716.53 2583.07,716.53 C2583.62,716.53 2584.08,716.722 2584.47,717.108 C2584.85,717.493 2585.05,717.978 2585.05,718.561 C2585.05,719.04 2584.8,720.04 2584.3,721.561 C2583.81,723.082 2583.56,724.92 2583.56,727.076 C2584.84,726.274 2585.97,725.355 2586.94,724.319 C2587.92,723.282 2588.67,722.491 2589.2,721.944 C2589.73,721.397 2590.33,721.123 2590.98,721.123 C2591.58,721.123 2592.06,721.324 2592.42,721.725 C2592.79,722.126 2592.97,722.634 2592.97,723.248 C2592.97,724.019 2592.6,724.569 2591.87,724.897 C2591.13,725.225 2589.96,725.616 2588.34,726.069 C2586.73,726.522 2585.28,727.113 2584,727.842 C2585.1,728.54 2586.28,729.097 2587.52,729.514 C2588.77,729.931 2589.75,730.194 2590.46,730.303 C2591.17,730.412 2591.78,730.634 2592.27,730.967 C2592.77,731.3 2593.01,731.785 2593.01,732.42 C2593.01,733.056 2592.84,733.558 2592.5,733.928 C2592.16,734.298 2591.69,734.483 2591.09,734.483 C2590.32,734.483 2589.68,734.251 2589.17,733.787 C2588.66,733.324 2587.92,732.563 2586.94,731.506 C2585.97,730.449 2584.84,729.483 2583.56,728.608 C2583.56,730.701 2583.82,732.563 2584.33,734.194 C2584.85,735.824 2585.11,736.733 2585.11,736.92 C2585.11,737.504 2584.9,738.017 2584.48,738.459 C2584.05,738.902 2583.55,739.123 2582.95,739.123 C2582.44,739.123 2581.99,738.92 2581.61,738.514 C2581.22,738.108 2581.03,737.629 2581.03,737.076"/>
<path class="Lyrics" d="M320.123,739.764 L333.654,739.764 L333.654,743.061 L320.123,743.061 L320.123,739.764 M362.248,741.248 L362.248,744.545 L356.639,744.545 L356.639,753.733 L352.404,753.733 L352.404,744.545 L336.951,744.545 L336.951,741.248 L354.217,716.561 L356.639,716.561 L356.639,741.248 L362.248,741.248 M352.357,741.248 L352.357,722.389 L339.154,741.248 L352.357,741.248 "/>
<path class="Lyrics" d="M744.939,754.498 C741.241,754.498 738.264,753.022 736.009,750.069 C733.754,747.116 732.626,743.212 732.626,738.358 C732.626,736.858 732.772,735.311 733.064,733.717 C733.355,732.123 733.996,730.311 734.986,728.28 C735.975,726.248 737.259,724.428 738.837,722.819 C740.415,721.209 742.624,719.772 745.462,718.506 C748.301,717.241 751.574,716.446 755.282,716.123 L755.392,716.998 C751.058,717.696 747.444,719.446 744.548,722.248 C741.652,725.05 739.84,728.524 739.111,732.67 C740.829,731.691 742.129,731.053 743.009,730.756 C743.889,730.459 744.933,730.311 746.142,730.311 C749.298,730.311 751.811,731.332 753.681,733.373 C755.551,735.415 756.486,738.17 756.486,741.639 C756.486,745.431 755.413,748.522 753.267,750.912 C751.121,753.303 748.345,754.498 744.939,754.498 M744.064,732.733 C741.564,732.733 739.884,733.28 739.025,734.373 C738.165,735.467 737.736,737.087 737.736,739.233 C737.736,743.462 738.431,746.79 739.821,749.217 C741.212,751.644 743.121,752.858 745.548,752.858 C747.486,752.858 748.967,752.045 749.993,750.42 C751.019,748.795 751.532,746.488 751.532,743.498 C751.532,740.071 750.881,737.42 749.579,735.545 C748.277,733.67 746.439,732.733 744.064,732.733"/>
<path class="Lyrics" d="M877.351,739.764 L890.882,739.764 L890.882,743.061 L877.351,743.061 L877.351,739.764 M907.711,754.498 C904.013,754.498 901.036,753.022 898.781,750.069 C896.526,747.116 895.398,743.212 895.398,738.358 C895.398,736.858 895.544,735.311 895.836,733.717 C896.127,732.123 896.768,730.311 897.757,728.28 C898.747,726.248 900.031,724.428 901.609,722.819 C903.187,721.209 905.395,719.772 908.234,718.506 C911.072,717.241 914.346,716.446 918.054,716.123 L918.164,716.998 C913.83,717.696 910.216,719.446 907.32,722.248 C904.424,725.05 902.612,728.524 901.882,732.67 C903.601,731.691 904.901,731.053 905.781,730.756 C906.661,730.459 907.705,730.311 908.914,730.311 C912.07,730.311 914.583,731.332 916.453,733.373 C918.322,735.415 919.257,738.17 919.257,741.639 C919.257,745.431 918.184,748.522 916.039,750.912 C913.893,753.303 911.117,754.498 907.711,754.498 M906.836,732.733 C904.336,732.733 902.656,733.28 901.796,734.373 C900.937,735.467 900.507,737.087 900.507,739.233 C900.507,743.462 901.203,746.79 902.593,749.217 C903.984,751.644 905.893,752.858 908.32,752.858 C910.257,752.858 911.739,752.045 912.765,750.42 C913.791,748.795 914.304,746.488 914.304,743.498 C914.304,740.071 913.653,737.42 912.351,735.545 C911.049,733.67 909.211,732.733 906.836,732.733 M932.789,737.076 C932.789,736.712 933.036,735.733 933.531,734.139 C934.026,732.545 934.273,730.701 934.273,728.608 C932.846,729.493 931.674,730.451 930.757,731.483 C929.841,732.514 929.153,733.264 928.695,733.733 C928.237,734.201 927.606,734.436 926.804,734.436 C925.481,734.436 924.82,733.785 924.82,732.483 C924.82,731.847 925.057,731.373 925.531,731.061 C926.005,730.748 926.591,730.527 927.289,730.397 C927.987,730.267 928.968,729.972 930.234,729.514 C931.5,729.056 932.721,728.483 933.898,727.795 C932.461,727.066 930.908,726.501 929.242,726.1 C927.575,725.699 926.421,725.334 925.781,725.006 C925.14,724.678 924.82,724.076 924.82,723.201 C924.82,722.649 925.002,722.183 925.367,721.803 C925.731,721.423 926.174,721.233 926.695,721.233 C927.278,721.233 927.799,721.397 928.257,721.725 C928.716,722.053 929.109,722.454 929.437,722.928 C929.765,723.402 930.362,724.022 931.226,724.787 C932.091,725.553 933.106,726.28 934.273,726.967 C934.273,724.884 934.044,723.035 933.586,721.42 C933.127,719.806 932.898,718.816 932.898,718.451 C932.898,717.899 933.083,717.441 933.453,717.076 C933.822,716.712 934.281,716.53 934.828,716.53 C935.375,716.53 935.841,716.722 936.226,717.108 C936.612,717.493 936.804,717.978 936.804,718.561 C936.804,719.04 936.557,720.04 936.062,721.561 C935.567,723.082 935.32,724.92 935.32,727.076 C936.601,726.274 937.729,725.355 938.703,724.319 C939.677,723.282 940.429,722.491 940.961,721.944 C941.492,721.397 942.086,721.123 942.742,721.123 C943.336,721.123 943.815,721.324 944.179,721.725 C944.544,722.126 944.726,722.634 944.726,723.248 C944.726,724.019 944.359,724.569 943.625,724.897 C942.89,725.225 941.716,725.616 940.101,726.069 C938.487,726.522 937.039,727.113 935.757,727.842 C936.862,728.54 938.036,729.097 939.281,729.514 C940.526,729.931 941.505,730.194 942.218,730.303 C942.932,730.412 943.536,730.634 944.031,730.967 C944.526,731.3 944.773,731.785 944.773,732.42 C944.773,733.056 944.601,733.558 944.257,733.928 C943.914,734.298 943.445,734.483 942.851,734.483 C942.08,734.483 941.44,734.251 940.929,733.787 C940.419,733.324 939.677,732.563 938.703,731.506 C937.729,730.449 936.601,729.483 935.32,728.608 C935.32,730.701 935.578,732.563 936.093,734.194 C936.609,735.824 936.867,736.733 936.867,736.92 C936.867,737.504 936.656,738.017 936.234,738.459 C935.812,738.902 935.304,739.123 934.711,739.123 C934.2,739.123 933.752,738.92 933.367,738.514 C932.981,738.108 932.789,737.629 932.789,737.076"/>
<path class="Lyrics" d="M2671.86,739.764 L2685.39,739.764 L2685.39,743.061 L2671.86,743.061 L2671.86,739.764 M2713.99,741.248 L2713.99,744.545 L2708.38,744.545 L2708.38,753.733 L2704.14,753.733 L2704.14,744.545 L2688.69,744.545 L2688.69,741.248 L2705.95,716.561 L2708.38,716.561 L2708.38,741.248 L2713.99,741.248 M2704.09,741.248 L2704.09,722.389 L2690.89,741.248 L2704.09,741.248 "/>
<path class="Lyrics" d="M2380.95,739.764 L2394.48,739.764 L2394.48,743.061 L2380.95,743.061 L2380.95,739.764 M2416.74,742.92 C2416.74,740.962 2416.31,739.225 2415.45,737.709 C2414.59,736.194 2413.55,735.019 2412.32,734.186 C2411.09,733.353 2409.72,732.668 2408.2,732.131 C2406.67,731.595 2405.35,731.243 2404.23,731.076 C2403.12,730.91 2402.13,730.826 2401.29,730.826 C2400.85,730.826 2400.63,730.681 2400.63,730.389 C2400.63,730.274 2400.65,730.186 2400.7,730.123 L2406.68,717.326 L2418.18,717.326 C2418.76,717.326 2419.23,717.235 2419.58,717.053 C2419.93,716.871 2420.31,716.488 2420.71,715.905 L2421.21,716.28 L2419.12,720.889 C2418.97,721.191 2418.55,721.342 2417.85,721.342 L2407.07,721.342 L2404.76,726.061 C2410.11,727.019 2414.09,728.582 2416.7,730.748 C2419.3,732.915 2420.6,736.087 2420.6,740.264 C2420.6,742.451 2420.26,744.397 2419.59,746.1 C2418.91,747.803 2418.05,749.175 2417,750.217 C2415.95,751.259 2414.74,752.113 2413.37,752.78 C2411.99,753.446 2410.67,753.899 2409.41,754.139 C2408.14,754.379 2406.87,754.498 2405.59,754.498 C2403.53,754.498 2401.9,754.196 2400.7,753.592 C2399.49,752.988 2398.88,752.155 2398.88,751.092 C2398.88,749.738 2399.67,749.061 2401.24,749.061 C2402.27,749.061 2403.6,749.621 2405.23,750.741 C2406.87,751.86 2408.15,752.42 2409.1,752.42 C2411.27,752.42 2413.08,751.504 2414.55,749.67 C2416.01,747.837 2416.74,745.587 2416.74,742.92"/>
<path class="Lyrics" d="M1033.85,717.326 L1033.85,718.201 L1022.2,754.17 L1018.62,754.17 L1029.51,721.342 L1017.57,721.342 C1016.07,721.342 1014.93,721.618 1014.14,722.17 C1013.36,722.722 1012.37,723.936 1011.2,725.811 L1010.26,725.358 L1013.51,717.326 L1033.85,717.326 M1048.43,737.076 C1048.43,736.712 1048.68,735.733 1049.17,734.139 C1049.67,732.545 1049.92,730.701 1049.92,728.608 C1048.49,729.493 1047.32,730.451 1046.4,731.483 C1045.48,732.514 1044.8,733.264 1044.34,733.733 C1043.88,734.201 1043.25,734.436 1042.45,734.436 C1041.12,734.436 1040.46,733.785 1040.46,732.483 C1040.46,731.847 1040.7,731.373 1041.17,731.061 C1041.65,730.748 1042.23,730.527 1042.93,730.397 C1043.63,730.267 1044.61,729.972 1045.88,729.514 C1047.14,729.056 1048.36,728.483 1049.54,727.795 C1048.1,727.066 1046.55,726.501 1044.88,726.1 C1043.22,725.699 1042.06,725.334 1041.42,725.006 C1040.78,724.678 1040.46,724.076 1040.46,723.201 C1040.46,722.649 1040.65,722.183 1041.01,721.803 C1041.37,721.423 1041.82,721.233 1042.34,721.233 C1042.92,721.233 1043.44,721.397 1043.9,721.725 C1044.36,722.053 1044.75,722.454 1045.08,722.928 C1045.41,723.402 1046,724.022 1046.87,724.787 C1047.73,725.553 1048.75,726.28 1049.92,726.967 C1049.92,724.884 1049.69,723.035 1049.23,721.42 C1048.77,719.806 1048.54,718.816 1048.54,718.451 C1048.54,717.899 1048.73,717.441 1049.1,717.076 C1049.47,716.712 1049.92,716.53 1050.47,716.53 C1051.02,716.53 1051.48,716.722 1051.87,717.108 C1052.25,717.493 1052.45,717.978 1052.45,718.561 C1052.45,719.04 1052.2,720.04 1051.71,721.561 C1051.21,723.082 1050.96,724.92 1050.96,727.076 C1052.24,726.274 1053.37,725.355 1054.35,724.319 C1055.32,723.282 1056.07,722.491 1056.6,721.944 C1057.13,721.397 1057.73,721.123 1058.38,721.123 C1058.98,721.123 1059.46,721.324 1059.82,721.725 C1060.19,722.126 1060.37,722.634 1060.37,723.248 C1060.37,724.019 1060,724.569 1059.27,724.897 C1058.53,725.225 1057.36,725.616 1055.74,726.069 C1054.13,726.522 1052.68,727.113 1051.4,727.842 C1052.5,728.54 1053.68,729.097 1054.92,729.514 C1056.17,729.931 1057.15,730.194 1057.86,730.303 C1058.57,730.412 1059.18,730.634 1059.67,730.967 C1060.17,731.3 1060.42,731.785 1060.42,732.42 C1060.42,733.056 1060.24,733.558 1059.9,733.928 C1059.56,734.298 1059.09,734.483 1058.49,734.483 C1057.72,734.483 1057.08,734.251 1056.57,733.787 C1056.06,733.324 1055.32,732.563 1054.35,731.506 C1053.37,730.449 1052.24,729.483 1050.96,728.608 C1050.96,730.701 1051.22,732.563 1051.74,734.194 C1052.25,735.824 1052.51,736.733 1052.51,736.92 C1052.51,737.504 1052.3,738.017 1051.88,738.459 C1051.46,738.902 1050.95,739.123 1050.35,739.123 C1049.84,739.123 1049.4,738.92 1049.01,738.514 C1048.62,738.108 1048.43,737.629 1048.43,737.076"/>
<path class="Lyrics" d="M2277.54,754.498 C2273.84,754.498 2270.86,753.022 2268.61,750.069 C2266.35,747.116 2265.22,743.212 2265.22,738.358 C2265.22,736.858 2265.37,735.311 2265.66,733.717 C2265.95,732.123 2266.59,730.311 2267.58,728.28 C2268.57,726.248 2269.86,724.428 2271.44,722.819 C2273.01,721.209 2275.22,719.772 2278.06,718.506 C2280.9,717.241 2284.17,716.446 2287.88,716.123 L2287.99,716.998 C2283.66,717.696 2280.04,719.446 2277.15,722.248 C2274.25,725.05 2272.44,728.524 2271.71,732.67 C2273.43,731.691 2274.73,731.053 2275.61,730.756 C2276.49,730.459 2277.53,730.311 2278.74,730.311 C2281.9,730.311 2284.41,731.332 2286.28,733.373 C2288.15,735.415 2289.08,738.17 2289.08,741.639 C2289.08,745.431 2288.01,748.522 2285.87,750.912 C2283.72,753.303 2280.94,754.498 2277.54,754.498 M2276.66,732.733 C2274.16,732.733 2272.48,733.28 2271.62,734.373 C2270.76,735.467 2270.33,737.087 2270.33,739.233 C2270.33,743.462 2271.03,746.79 2272.42,749.217 C2273.81,751.644 2275.72,752.858 2278.15,752.858 C2280.08,752.858 2281.57,752.045 2282.59,750.42 C2283.62,748.795 2284.13,746.488 2284.13,743.498 C2284.13,740.071 2283.48,737.42 2282.18,735.545 C2280.88,733.67 2279.04,732.733 2276.66,732.733"/>
<path class="Lyrics" d="M1178.27,739.764 L1191.8,739.764 L1191.8,743.061 L1178.27,743.061 L1178.27,739.764 M1219.13,717.326 L1219.13,718.201 L1207.47,754.17 L1203.89,754.17 L1214.78,721.342 L1202.84,721.342 C1201.34,721.342 1200.2,721.618 1199.41,722.17 C1198.63,722.722 1197.65,723.936 1196.47,725.811 L1195.53,725.358 L1198.78,717.326 L1219.13,717.326 M1233.7,737.076 C1233.7,736.712 1233.95,735.733 1234.45,734.139 C1234.94,732.545 1235.19,730.701 1235.19,728.608 C1233.76,729.493 1232.59,730.451 1231.67,731.483 C1230.76,732.514 1230.07,733.264 1229.61,733.733 C1229.15,734.201 1228.52,734.436 1227.72,734.436 C1226.4,734.436 1225.73,733.785 1225.73,732.483 C1225.73,731.847 1225.97,731.373 1226.45,731.061 C1226.92,730.748 1227.51,730.527 1228.2,730.397 C1228.9,730.267 1229.88,729.972 1231.15,729.514 C1232.41,729.056 1233.64,728.483 1234.81,727.795 C1233.38,727.066 1231.82,726.501 1230.16,726.1 C1228.49,725.699 1227.34,725.334 1226.7,725.006 C1226.05,724.678 1225.73,724.076 1225.73,723.201 C1225.73,722.649 1225.92,722.183 1226.28,721.803 C1226.65,721.423 1227.09,721.233 1227.61,721.233 C1228.19,721.233 1228.71,721.397 1229.17,721.725 C1229.63,722.053 1230.02,722.454 1230.35,722.928 C1230.68,723.402 1231.28,724.022 1232.14,724.787 C1233.01,725.553 1234.02,726.28 1235.19,726.967 C1235.19,724.884 1234.96,723.035 1234.5,721.42 C1234.04,719.806 1233.81,718.816 1233.81,718.451 C1233.81,717.899 1234,717.441 1234.37,717.076 C1234.74,716.712 1235.2,716.53 1235.74,716.53 C1236.29,716.53 1236.76,716.722 1237.14,717.108 C1237.53,717.493 1237.72,717.978 1237.72,718.561 C1237.72,719.04 1237.47,720.04 1236.98,721.561 C1236.48,723.082 1236.23,724.92 1236.23,727.076 C1237.52,726.274 1238.64,725.355 1239.62,724.319 C1240.59,723.282 1241.34,722.491 1241.88,721.944 C1242.41,721.397 1243,721.123 1243.66,721.123 C1244.25,721.123 1244.73,721.324 1245.09,721.725 C1245.46,722.126 1245.64,722.634 1245.64,723.248 C1245.64,724.019 1245.27,724.569 1244.54,724.897 C1243.8,725.225 1242.63,725.616 1241.02,726.069 C1239.4,726.522 1237.95,727.113 1236.67,727.842 C1237.78,728.54 1238.95,729.097 1240.2,729.514 C1241.44,729.931 1242.42,730.194 1243.13,730.303 C1243.85,730.412 1244.45,730.634 1244.95,730.967 C1245.44,731.3 1245.69,731.785 1245.69,732.42 C1245.69,733.056 1245.52,733.558 1245.17,733.928 C1244.83,734.298 1244.36,734.483 1243.77,734.483 C1243,734.483 1242.35,734.251 1241.84,733.787 C1241.33,733.324 1240.59,732.563 1239.62,731.506 C1238.64,730.449 1237.52,729.483 1236.23,728.608 C1236.23,730.701 1236.49,732.563 1237.01,734.194 C1237.52,735.824 1237.78,736.733 1237.78,736.92 C1237.78,737.504 1237.57,738.017 1237.15,738.459 C1236.73,738.902 1236.22,739.123 1235.63,739.123 C1235.11,739.123 1234.67,738.92 1234.28,738.514 C1233.9,738.108 1233.7,737.629 1233.7,737.076"/>
<path class="Lyrics" d="M2088.63,739.764 L2102.16,739.764 L2102.16,743.061 L2088.63,743.061 L2088.63,739.764 M2118.99,754.498 C2115.29,754.498 2112.32,753.022 2110.06,750.069 C2107.81,747.116 2106.68,743.212 2106.68,738.358 C2106.68,736.858 2106.83,735.311 2107.12,733.717 C2107.41,732.123 2108.05,730.311 2109.04,728.28 C2110.03,726.248 2111.31,724.428 2112.89,722.819 C2114.47,721.209 2116.68,719.772 2119.52,718.506 C2122.35,717.241 2125.63,716.446 2129.34,716.123 L2129.45,716.998 C2125.11,717.696 2121.5,719.446 2118.6,722.248 C2115.71,725.05 2113.89,728.524 2113.16,732.67 C2114.88,731.691 2116.18,731.053 2117.06,730.756 C2117.94,730.459 2118.99,730.311 2120.2,730.311 C2123.35,730.311 2125.86,731.332 2127.73,733.373 C2129.6,735.415 2130.54,738.17 2130.54,741.639 C2130.54,745.431 2129.47,748.522 2127.32,750.912 C2125.17,753.303 2122.4,754.498 2118.99,754.498 M2118.12,732.733 C2115.62,732.733 2113.94,733.28 2113.08,734.373 C2112.22,735.467 2111.79,737.087 2111.79,739.233 C2111.79,743.462 2112.48,746.79 2113.87,749.217 C2115.27,751.644 2117.17,752.858 2119.6,752.858 C2121.54,752.858 2123.02,752.045 2124.05,750.42 C2125.07,748.795 2125.59,746.488 2125.59,743.498 C2125.59,740.071 2124.93,737.42 2123.63,735.545 C2122.33,733.67 2120.49,732.733 2118.12,732.733 M2144.07,737.076 C2144.07,736.712 2144.32,735.733 2144.81,734.139 C2145.31,732.545 2145.55,730.701 2145.55,728.608 C2144.13,729.493 2142.96,730.451 2142.04,731.483 C2141.12,732.514 2140.43,733.264 2139.98,733.733 C2139.52,734.201 2138.89,734.436 2138.09,734.436 C2136.76,734.436 2136.1,733.785 2136.1,732.483 C2136.1,731.847 2136.34,731.373 2136.81,731.061 C2137.29,730.748 2137.87,730.527 2138.57,730.397 C2139.27,730.267 2140.25,729.972 2141.52,729.514 C2142.78,729.056 2144,728.483 2145.18,727.795 C2143.74,727.066 2142.19,726.501 2140.52,726.1 C2138.86,725.699 2137.7,725.334 2137.06,725.006 C2136.42,724.678 2136.1,724.076 2136.1,723.201 C2136.1,722.649 2136.28,722.183 2136.65,721.803 C2137.01,721.423 2137.46,721.233 2137.98,721.233 C2138.56,721.233 2139.08,721.397 2139.54,721.725 C2140,722.053 2140.39,722.454 2140.72,722.928 C2141.05,723.402 2141.64,724.022 2142.51,724.787 C2143.37,725.553 2144.39,726.28 2145.55,726.967 C2145.55,724.884 2145.33,723.035 2144.87,721.42 C2144.41,719.806 2144.18,718.816 2144.18,718.451 C2144.18,717.899 2144.36,717.441 2144.73,717.076 C2145.1,716.712 2145.56,716.53 2146.11,716.53 C2146.66,716.53 2147.12,716.722 2147.51,717.108 C2147.89,717.493 2148.09,717.978 2148.09,718.561 C2148.09,719.04 2147.84,720.04 2147.34,721.561 C2146.85,723.082 2146.6,724.92 2146.6,727.076 C2147.88,726.274 2149.01,725.355 2149.98,724.319 C2150.96,723.282 2151.71,722.491 2152.24,721.944 C2152.77,721.397 2153.37,721.123 2154.02,721.123 C2154.62,721.123 2155.1,721.324 2155.46,721.725 C2155.83,722.126 2156.01,722.634 2156.01,723.248 C2156.01,724.019 2155.64,724.569 2154.91,724.897 C2154.17,725.225 2153,725.616 2151.38,726.069 C2149.77,726.522 2148.32,727.113 2147.04,727.842 C2148.14,728.54 2149.32,729.097 2150.56,729.514 C2151.81,729.931 2152.79,730.194 2153.5,730.303 C2154.21,730.412 2154.82,730.634 2155.31,730.967 C2155.81,731.3 2156.05,731.785 2156.05,732.42 C2156.05,733.056 2155.88,733.558 2155.54,733.928 C2155.2,734.298 2154.73,734.483 2154.13,734.483 C2153.36,734.483 2152.72,734.251 2152.21,733.787 C2151.7,733.324 2150.96,732.563 2149.98,731.506 C2149.01,730.449 2147.88,729.483 2146.6,728.608 C2146.6,730.701 2146.86,732.563 2147.37,734.194 C2147.89,735.824 2148.15,736.733 2148.15,736.92 C2148.15,737.504 2147.94,738.017 2147.52,738.459 C2147.09,738.902 2146.59,739.123 2145.99,739.123 C2145.48,739.123 2145.03,738.92 2144.65,738.514 C2144.26,738.108 2144.07,737.629 2144.07,737.076"/>
<path class="Lyrics" d="M1316.22,739.764 L1329.75,739.764 L1329.75,743.061 L1316.22,743.061 L1316.22,739.764 M1348.35,733.28 C1351.64,735.728 1353.88,737.785 1355.07,739.451 C1356.27,741.118 1356.86,743.009 1356.86,745.123 C1356.86,747.978 1355.88,750.254 1353.92,751.951 C1351.97,753.649 1349.34,754.498 1346.03,754.498 C1342.92,754.498 1340.38,753.647 1338.42,751.944 C1336.45,750.241 1335.47,748.04 1335.47,745.342 C1335.47,743.478 1335.92,741.915 1336.82,740.655 C1337.72,739.394 1339.66,737.649 1342.63,735.42 C1339.73,732.899 1337.87,731.017 1337.04,729.772 C1336.21,728.527 1335.8,727.009 1335.8,725.217 C1335.8,722.707 1336.79,720.618 1338.77,718.951 C1340.75,717.285 1343.24,716.451 1346.25,716.451 C1349,716.451 1351.27,717.194 1353.04,718.678 C1354.82,720.162 1355.71,722.05 1355.71,724.342 C1355.71,726.207 1355.16,727.798 1354.06,729.116 C1352.96,730.433 1351.05,731.821 1348.35,733.28 M1344.05,736.514 C1342.43,737.795 1341.3,739.076 1340.64,740.358 C1339.99,741.639 1339.66,743.155 1339.66,744.905 C1339.66,747.28 1340.3,749.199 1341.58,750.662 C1342.86,752.126 1344.55,752.858 1346.64,752.858 C1348.43,752.858 1349.89,752.3 1351.01,751.186 C1352.13,750.071 1352.69,748.618 1352.69,746.826 C1352.69,746.243 1352.63,745.694 1352.49,745.178 C1352.36,744.662 1352.23,744.214 1352.1,743.834 C1351.97,743.454 1351.72,743.024 1351.34,742.545 C1350.96,742.066 1350.65,741.691 1350.41,741.42 C1350.17,741.149 1349.74,740.759 1349.11,740.248 C1348.49,739.738 1348.02,739.373 1347.71,739.155 C1347.39,738.936 1346.81,738.514 1345.95,737.889 C1345.09,737.264 1344.46,736.806 1344.05,736.514 M1346.75,732.295 C1346.78,732.264 1347.03,732.092 1347.49,731.78 C1347.95,731.467 1348.28,731.22 1348.48,731.037 C1348.68,730.855 1348.99,730.571 1349.42,730.186 C1349.84,729.8 1350.16,729.433 1350.38,729.084 C1350.6,728.735 1350.84,728.316 1351.12,727.826 C1351.4,727.337 1351.6,726.79 1351.72,726.186 C1351.85,725.582 1351.91,724.951 1351.91,724.295 C1351.91,722.389 1351.36,720.879 1350.26,719.764 C1349.16,718.649 1347.68,718.092 1345.82,718.092 C1344.09,718.092 1342.66,718.605 1341.55,719.631 C1340.43,720.657 1339.88,721.957 1339.88,723.53 C1339.88,725.061 1340.41,726.504 1341.47,727.858 C1342.53,729.212 1344.29,730.691 1346.75,732.295"/>
<path class="Lyrics" d="M458.563,742.92 C458.563,740.962 458.133,739.225 457.274,737.709 C456.414,736.194 455.37,735.019 454.141,734.186 C452.912,733.353 451.537,732.668 450.016,732.131 C448.495,731.595 447.175,731.243 446.055,731.076 C444.935,730.91 443.954,730.826 443.11,730.826 C442.672,730.826 442.454,730.681 442.454,730.389 C442.454,730.274 442.474,730.186 442.516,730.123 L448.5,717.326 L460,717.326 C460.584,717.326 461.05,717.235 461.399,717.053 C461.748,716.871 462.125,716.488 462.532,715.905 L463.032,716.28 L460.938,720.889 C460.792,721.191 460.37,721.342 459.672,721.342 L448.891,721.342 L446.579,726.061 C451.933,727.019 455.912,728.582 458.516,730.748 C461.12,732.915 462.422,736.087 462.422,740.264 C462.422,742.451 462.084,744.397 461.407,746.1 C460.73,747.803 459.868,749.175 458.821,750.217 C457.774,751.259 456.563,752.113 455.188,752.78 C453.813,753.446 452.493,753.899 451.227,754.139 C449.961,754.379 448.688,754.498 447.407,754.498 C445.355,754.498 443.724,754.196 442.516,753.592 C441.308,752.988 440.704,752.155 440.704,751.092 C440.704,749.738 441.49,749.061 443.063,749.061 C444.094,749.061 445.425,749.621 447.055,750.741 C448.685,751.86 449.974,752.42 450.922,752.42 C453.089,752.42 454.904,751.504 456.368,749.67 C457.831,747.837 458.563,745.587 458.563,742.92 M478.204,737.076 C478.204,736.712 478.451,735.733 478.946,734.139 C479.441,732.545 479.688,730.701 479.688,728.608 C478.261,729.493 477.089,730.451 476.172,731.483 C475.256,732.514 474.568,733.264 474.11,733.733 C473.651,734.201 473.021,734.436 472.219,734.436 C470.896,734.436 470.235,733.785 470.235,732.483 C470.235,731.847 470.472,731.373 470.946,731.061 C471.42,730.748 472.006,730.527 472.704,730.397 C473.401,730.267 474.383,729.972 475.649,729.514 C476.914,729.056 478.136,728.483 479.313,727.795 C477.875,727.066 476.323,726.501 474.657,726.1 C472.99,725.699 471.836,725.334 471.196,725.006 C470.555,724.678 470.235,724.076 470.235,723.201 C470.235,722.649 470.417,722.183 470.782,721.803 C471.146,721.423 471.589,721.233 472.11,721.233 C472.693,721.233 473.214,721.397 473.672,721.725 C474.131,722.053 474.524,722.454 474.852,722.928 C475.18,723.402 475.776,724.022 476.641,724.787 C477.506,725.553 478.521,726.28 479.688,726.967 C479.688,724.884 479.459,723.035 479,721.42 C478.542,719.806 478.313,718.816 478.313,718.451 C478.313,717.899 478.498,717.441 478.868,717.076 C479.237,716.712 479.696,716.53 480.243,716.53 C480.789,716.53 481.256,716.722 481.641,717.108 C482.026,717.493 482.219,717.978 482.219,718.561 C482.219,719.04 481.972,720.04 481.477,721.561 C480.982,723.082 480.735,724.92 480.735,727.076 C482.016,726.274 483.144,725.355 484.118,724.319 C485.092,723.282 485.844,722.491 486.375,721.944 C486.907,721.397 487.5,721.123 488.157,721.123 C488.75,721.123 489.23,721.324 489.594,721.725 C489.959,722.126 490.141,722.634 490.141,723.248 C490.141,724.019 489.774,724.569 489.039,724.897 C488.305,725.225 487.131,725.616 485.516,726.069 C483.901,726.522 482.454,727.113 481.172,727.842 C482.276,728.54 483.451,729.097 484.696,729.514 C485.941,729.931 486.92,730.194 487.633,730.303 C488.347,730.412 488.951,730.634 489.446,730.967 C489.941,731.3 490.188,731.785 490.188,732.42 C490.188,733.056 490.016,733.558 489.672,733.928 C489.329,734.298 488.86,734.483 488.266,734.483 C487.495,734.483 486.855,734.251 486.344,733.787 C485.834,733.324 485.092,732.563 484.118,731.506 C483.144,730.449 482.016,729.483 480.735,728.608 C480.735,730.701 480.993,732.563 481.508,734.194 C482.024,735.824 482.282,736.733 482.282,736.92 C482.282,737.504 482.071,738.017 481.649,738.459 C481.227,738.902 480.719,739.123 480.125,739.123 C479.615,739.123 479.167,738.92 478.782,738.514 C478.396,738.108 478.204,737.629 478.204,737.076"/>
<path class="Lyrics" d="M1996.22,717.326 L1996.22,718.201 L1984.57,754.17 L1980.99,754.17 L1991.88,721.342 L1979.94,721.342 C1978.44,721.342 1977.3,721.618 1976.51,722.17 C1975.73,722.722 1974.74,723.936 1973.57,725.811 L1972.63,725.358 L1975.88,717.326 L1996.22,717.326 M2010.8,737.076 C2010.8,736.712 2011.05,735.733 2011.54,734.139 C2012.04,732.545 2012.29,730.701 2012.29,728.608 C2010.86,729.493 2009.69,730.451 2008.77,731.483 C2007.85,732.514 2007.17,733.264 2006.71,733.733 C2006.25,734.201 2005.62,734.436 2004.82,734.436 C2003.49,734.436 2002.83,733.785 2002.83,732.483 C2002.83,731.847 2003.07,731.373 2003.54,731.061 C2004.02,730.748 2004.6,730.527 2005.3,730.397 C2006,730.267 2006.98,729.972 2008.25,729.514 C2009.51,729.056 2010.73,728.483 2011.91,727.795 C2010.47,727.066 2008.92,726.501 2007.26,726.1 C2005.59,725.699 2004.43,725.334 2003.79,725.006 C2003.15,724.678 2002.83,724.076 2002.83,723.201 C2002.83,722.649 2003.02,722.183 2003.38,721.803 C2003.74,721.423 2004.19,721.233 2004.71,721.233 C2005.29,721.233 2005.81,721.397 2006.27,721.725 C2006.73,722.053 2007.12,722.454 2007.45,722.928 C2007.78,723.402 2008.38,724.022 2009.24,724.787 C2010.1,725.553 2011.12,726.28 2012.29,726.967 C2012.29,724.884 2012.06,723.035 2011.6,721.42 C2011.14,719.806 2010.91,718.816 2010.91,718.451 C2010.91,717.899 2011.1,717.441 2011.47,717.076 C2011.84,716.712 2012.29,716.53 2012.84,716.53 C2013.39,716.53 2013.85,716.722 2014.24,717.108 C2014.63,717.493 2014.82,717.978 2014.82,718.561 C2014.82,719.04 2014.57,720.04 2014.08,721.561 C2013.58,723.082 2013.33,724.92 2013.33,727.076 C2014.61,726.274 2015.74,725.355 2016.72,724.319 C2017.69,723.282 2018.44,722.491 2018.97,721.944 C2019.51,721.397 2020.1,721.123 2020.76,721.123 C2021.35,721.123 2021.83,721.324 2022.19,721.725 C2022.56,722.126 2022.74,722.634 2022.74,723.248 C2022.74,724.019 2022.37,724.569 2021.64,724.897 C2020.9,725.225 2019.73,725.616 2018.11,726.069 C2016.5,726.522 2015.05,727.113 2013.77,727.842 C2014.88,728.54 2016.05,729.097 2017.29,729.514 C2018.54,729.931 2019.52,730.194 2020.23,730.303 C2020.95,730.412 2021.55,730.634 2022.04,730.967 C2022.54,731.3 2022.79,731.785 2022.79,732.42 C2022.79,733.056 2022.61,733.558 2022.27,733.928 C2021.93,734.298 2021.46,734.483 2020.86,734.483 C2020.09,734.483 2019.45,734.251 2018.94,733.787 C2018.43,733.324 2017.69,732.563 2016.72,731.506 C2015.74,730.449 2014.61,729.483 2013.33,728.608 C2013.33,730.701 2013.59,732.563 2014.11,734.194 C2014.62,735.824 2014.88,736.733 2014.88,736.92 C2014.88,737.504 2014.67,738.017 2014.25,738.459 C2013.83,738.902 2013.32,739.123 2012.72,739.123 C2012.21,739.123 2011.77,738.92 2011.38,738.514 C2010.99,738.108 2010.8,737.629 2010.8,737.076"/>
<path class="Lyrics" d="M1686.26,739.764 L1699.79,739.764 L1699.79,743.061 L1686.26,743.061 L1686.26,739.764 M1718.39,733.28 C1721.68,735.728 1723.92,737.785 1725.11,739.451 C1726.31,741.118 1726.9,743.009 1726.9,745.123 C1726.9,747.978 1725.92,750.254 1723.97,751.951 C1722.01,753.649 1719.38,754.498 1716.07,754.498 C1712.96,754.498 1710.42,753.647 1708.46,751.944 C1706.49,750.241 1705.51,748.04 1705.51,745.342 C1705.51,743.478 1705.96,741.915 1706.86,740.655 C1707.76,739.394 1709.7,737.649 1712.67,735.42 C1709.77,732.899 1707.91,731.017 1707.08,729.772 C1706.25,728.527 1705.84,727.009 1705.84,725.217 C1705.84,722.707 1706.83,720.618 1708.81,718.951 C1710.79,717.285 1713.28,716.451 1716.29,716.451 C1719.04,716.451 1721.31,717.194 1723.08,718.678 C1724.86,720.162 1725.75,722.05 1725.75,724.342 C1725.75,726.207 1725.2,727.798 1724.1,729.116 C1723,730.433 1721.1,731.821 1718.39,733.28 M1714.09,736.514 C1712.48,737.795 1711.34,739.076 1710.68,740.358 C1710.03,741.639 1709.7,743.155 1709.7,744.905 C1709.7,747.28 1710.34,749.199 1711.62,750.662 C1712.9,752.126 1714.59,752.858 1716.68,752.858 C1718.48,752.858 1719.93,752.3 1721.05,751.186 C1722.17,750.071 1722.73,748.618 1722.73,746.826 C1722.73,746.243 1722.67,745.694 1722.54,745.178 C1722.41,744.662 1722.28,744.214 1722.15,743.834 C1722.01,743.454 1721.76,743.024 1721.38,742.545 C1721,742.066 1720.69,741.691 1720.45,741.42 C1720.21,741.149 1719.78,740.759 1719.15,740.248 C1718.53,739.738 1718.06,739.373 1717.75,739.155 C1717.43,738.936 1716.85,738.514 1715.99,737.889 C1715.13,737.264 1714.5,736.806 1714.09,736.514 M1716.79,732.295 C1716.82,732.264 1717.07,732.092 1717.53,731.78 C1717.99,731.467 1718.32,731.22 1718.52,731.037 C1718.72,730.855 1719.04,730.571 1719.46,730.186 C1719.88,729.8 1720.2,729.433 1720.42,729.084 C1720.64,728.735 1720.88,728.316 1721.16,727.826 C1721.44,727.337 1721.64,726.79 1721.76,726.186 C1721.89,725.582 1721.95,724.951 1721.95,724.295 C1721.95,722.389 1721.4,720.879 1720.3,719.764 C1719.2,718.649 1717.72,718.092 1715.86,718.092 C1714.13,718.092 1712.71,718.605 1711.59,719.631 C1710.48,720.657 1709.92,721.957 1709.92,723.53 C1709.92,725.061 1710.45,726.504 1711.51,727.858 C1712.57,729.212 1714.34,730.691 1716.79,732.295"/>
<path class="Lyrics" d="M1797.22,739.764 L1810.75,739.764 L1810.75,743.061 L1797.22,743.061 L1797.22,739.764 M1838.08,717.326 L1838.08,718.201 L1826.42,754.17 L1822.84,754.17 L1833.73,721.342 L1821.8,721.342 C1820.3,721.342 1819.15,721.618 1818.37,722.17 C1817.58,722.722 1816.6,723.936 1815.42,725.811 L1814.48,725.358 L1817.73,717.326 L1838.08,717.326 M1852.66,737.076 C1852.66,736.712 1852.9,735.733 1853.4,734.139 C1853.89,732.545 1854.14,730.701 1854.14,728.608 C1852.71,729.493 1851.54,730.451 1850.62,731.483 C1849.71,732.514 1849.02,733.264 1848.56,733.733 C1848.1,734.201 1847.47,734.436 1846.67,734.436 C1845.35,734.436 1844.69,733.785 1844.69,732.483 C1844.69,731.847 1844.92,731.373 1845.4,731.061 C1845.87,730.748 1846.46,730.527 1847.16,730.397 C1847.85,730.267 1848.83,729.972 1850.1,729.514 C1851.37,729.056 1852.59,728.483 1853.76,727.795 C1852.33,727.066 1850.78,726.501 1849.11,726.1 C1847.44,725.699 1846.29,725.334 1845.65,725.006 C1845.01,724.678 1844.69,724.076 1844.69,723.201 C1844.69,722.649 1844.87,722.183 1845.23,721.803 C1845.6,721.423 1846.04,721.233 1846.56,721.233 C1847.14,721.233 1847.67,721.397 1848.12,721.725 C1848.58,722.053 1848.98,722.454 1849.3,722.928 C1849.63,723.402 1850.23,724.022 1851.09,724.787 C1851.96,725.553 1852.97,726.28 1854.14,726.967 C1854.14,724.884 1853.91,723.035 1853.45,721.42 C1852.99,719.806 1852.76,718.816 1852.76,718.451 C1852.76,717.899 1852.95,717.441 1853.32,717.076 C1853.69,716.712 1854.15,716.53 1854.69,716.53 C1855.24,716.53 1855.71,716.722 1856.09,717.108 C1856.48,717.493 1856.67,717.978 1856.67,718.561 C1856.67,719.04 1856.42,720.04 1855.93,721.561 C1855.43,723.082 1855.19,724.92 1855.19,727.076 C1856.47,726.274 1857.6,725.355 1858.57,724.319 C1859.54,723.282 1860.3,722.491 1860.83,721.944 C1861.36,721.397 1861.95,721.123 1862.61,721.123 C1863.2,721.123 1863.68,721.324 1864.05,721.725 C1864.41,722.126 1864.59,722.634 1864.59,723.248 C1864.59,724.019 1864.23,724.569 1863.49,724.897 C1862.76,725.225 1861.58,725.616 1859.97,726.069 C1858.35,726.522 1856.91,727.113 1855.62,727.842 C1856.73,728.54 1857.9,729.097 1859.15,729.514 C1860.39,729.931 1861.37,730.194 1862.08,730.303 C1862.8,730.412 1863.4,730.634 1863.9,730.967 C1864.39,731.3 1864.64,731.785 1864.64,732.42 C1864.64,733.056 1864.47,733.558 1864.12,733.928 C1863.78,734.298 1863.31,734.483 1862.72,734.483 C1861.95,734.483 1861.31,734.251 1860.8,733.787 C1860.29,733.324 1859.54,732.563 1858.57,731.506 C1857.6,730.449 1856.47,729.483 1855.19,728.608 C1855.19,730.701 1855.44,732.563 1855.96,734.194 C1856.48,735.824 1856.73,736.733 1856.73,736.92 C1856.73,737.504 1856.52,738.017 1856.1,738.459 C1855.68,738.902 1855.17,739.123 1854.58,739.123 C1854.07,739.123 1853.62,738.92 1853.23,738.514 C1852.85,738.108 1852.66,737.629 1852.66,737.076"/>
</svg>
