<?xml version="1.0" encoding="UTF-8" standalone="no"?>
<svg width="2977.2px" height="4208.4px" viewBox="0 0 2977.2 4208.4"
 xmlns="http://www.w3.org/2000/svg" xmlns:xlink="http://www.w3.org/1999/xlink" version="1.2" baseProfile="tiny">
<title>E_Harmonic_Minor.mscx</title>
<desc>Generated by MuseScore Studio 4.3.1</desc>
<path class="" fill="#ffffff" fill-rule="evenodd" d="M0,0 L2977.2,0 L2977.2,4208.4 L0,4208.4 L0,0 "/>
<polyline class="StaffLines" fill="none" stroke="#000000" stroke-width="2.00" stroke-linejoin="bevel" points="141.732,316.732 2835.47,316.732"/>
<polyline class="StaffLines" fill="none" stroke="#000000" stroke-width="2.00" stroke-linejoin="bevel" points="141.732,341.732 2835.47,341.732"/>
<polyline class="StaffLines" fill="none" stroke="#000000" stroke-width="2.00" stroke-linejoin="bevel" points="141.732,366.733 2835.47,366.733"/>
<polyline class="StaffLines" fill="none" stroke="#000000" stroke-width="2.00" stroke-linejoin="bevel" points="141.732,391.733 2835.47,391.733"/>
<polyline class="StaffLines" fill="none" stroke="#000000" stroke-width="2.00" stroke-linejoin="bevel" points="141.732,416.733 2835.47,416.733"/>
<polyline class="BarLine" fill="none" stroke="#000000" stroke-width="4.00" stroke-linejoin="bevel" points="1155.05,315.732 1155.05,417.733"/>
<polyline class="BarLine" fill="none" stroke="#000000" stroke-width="4.00" stroke-linejoin="bevel" points="2802.72,315.732 2802.72,417.733"/>
<polyline class="BarLine" fill="none" stroke="#000000" stroke-width="12.50" stroke-linejoin="bevel" points="2829.22,315.732 2829.22,417.733"/>
<polyline class="BarLine" fill="none" stroke="#000000" stroke-width="4.00" stroke-linejoin="bevel" points="2509.09,315.732 2509.09,417.733"/>
<polyline class="BarLine" fill="none" stroke="#000000" stroke-width="4.00" stroke-linejoin="bevel" points="1448.67,315.732 1448.67,417.733"/>
<polyline class="BarLine" fill="none" stroke="#000000" stroke-width="4.00" stroke-linejoin="bevel" points="2228.07,315.732 2228.07,417.733"/>
<polyline class="BarLine" fill="none" stroke="#000000" stroke-width="4.00" stroke-linejoin="bevel" points="1947.04,315.732 1947.04,417.733"/>
<polyline class="BarLine" fill="none" stroke="#000000" stroke-width="4.00" stroke-linejoin="bevel" points="592.996,315.732 592.996,417.733"/>
<polyline class="BarLine" fill="none" stroke="#000000" stroke-width="4.00" stroke-linejoin="bevel" points="874.021,315.732 874.021,417.733"/>
<polyline class="BarLine" fill="none" stroke="#000000" stroke-width="4.00" stroke-linejoin="bevel" points="1666.02,315.732 1666.02,417.733"/>
<path class="Accidental" d="M1811.16,319.764 C1812.59,319.368 1813.31,319.722 1813.31,320.826 L1813.31,328.639 C1813.31,329.42 1812.69,330.04 1811.45,330.498 L1808.23,331.764 L1808.23,345.936 L1811.16,344.764 C1812.59,344.368 1813.31,344.727 1813.31,345.842 L1813.31,353.654 C1813.31,354.436 1812.69,355.05 1811.45,355.498 L1808.23,356.779 L1808.23,372.982 C1808.23,374.222 1807.74,374.842 1806.76,374.842 C1805.79,374.842 1805.3,374.222 1805.3,372.982 L1805.3,357.951 L1796.01,361.654 L1796.01,377.764 C1796.01,379.003 1795.53,379.623 1794.55,379.623 C1793.58,379.623 1793.09,379.003 1793.09,377.764 L1793.09,362.826 L1790.55,363.904 C1789.18,364.488 1788.5,364.097 1788.5,362.732 L1788.5,355.014 C1788.5,354.368 1789.09,353.785 1790.26,353.264 L1793.09,352.092 L1793.09,337.826 L1790.55,338.904 C1789.18,339.488 1788.5,339.097 1788.5,337.732 L1788.5,330.014 C1788.5,329.357 1789.09,328.769 1790.26,328.248 L1793.09,327.076 L1793.09,310.967 C1793.09,309.727 1793.58,309.107 1794.55,309.107 C1795.53,309.107 1796.01,309.727 1796.01,310.967 L1796.01,325.904 L1805.3,322.107 L1805.3,306.186 C1805.3,304.946 1805.79,304.326 1806.76,304.326 C1807.74,304.326 1808.23,304.946 1808.23,306.186 L1808.23,320.936 L1811.16,319.764 M1796.01,336.654 L1796.01,350.92 L1805.3,347.107 L1805.3,332.936 L1796.01,336.654 "/>
<path class="Accidental" d="M2541.27,382.264 C2542.71,381.868 2543.43,382.222 2543.43,383.326 L2543.43,391.139 C2543.43,391.92 2542.81,392.54 2541.57,392.998 L2538.35,394.264 L2538.35,408.436 L2541.27,407.264 C2542.71,406.868 2543.43,407.227 2543.43,408.342 L2543.43,416.154 C2543.43,416.936 2542.81,417.55 2541.57,417.998 L2538.35,419.279 L2538.35,435.483 C2538.35,436.722 2537.86,437.342 2536.88,437.342 C2535.9,437.342 2535.41,436.722 2535.41,435.483 L2535.41,420.451 L2526.13,424.154 L2526.13,440.264 C2526.13,441.503 2525.64,442.123 2524.67,442.123 C2523.7,442.123 2523.21,441.503 2523.21,440.264 L2523.21,425.326 L2520.66,426.404 C2519.3,426.988 2518.61,426.597 2518.61,425.233 L2518.61,417.514 C2518.61,416.868 2519.2,416.285 2520.38,415.764 L2523.21,414.592 L2523.21,400.326 L2520.66,401.404 C2519.3,401.988 2518.61,401.597 2518.61,400.233 L2518.61,392.514 C2518.61,391.858 2519.2,391.269 2520.38,390.748 L2523.21,389.576 L2523.21,373.467 C2523.21,372.227 2523.7,371.608 2524.67,371.608 C2525.64,371.608 2526.13,372.227 2526.13,373.467 L2526.13,388.404 L2535.41,384.608 L2535.41,368.686 C2535.41,367.446 2535.9,366.826 2536.88,366.826 C2537.86,366.826 2538.35,367.446 2538.35,368.686 L2538.35,383.436 L2541.27,382.264 M2526.13,399.154 L2526.13,413.42 L2535.41,409.608 L2535.41,395.436 L2526.13,399.154 "/>
<path class="Accidental" d="M1187.23,319.764 C1188.66,319.368 1189.38,319.722 1189.38,320.826 L1189.38,328.639 C1189.38,329.42 1188.76,330.04 1187.52,330.498 L1184.3,331.764 L1184.3,345.936 L1187.23,344.764 C1188.66,344.368 1189.38,344.727 1189.38,345.842 L1189.38,353.654 C1189.38,354.436 1188.76,355.05 1187.52,355.498 L1184.3,356.779 L1184.3,372.982 C1184.3,374.222 1183.81,374.842 1182.84,374.842 C1181.86,374.842 1181.37,374.222 1181.37,372.982 L1181.37,357.951 L1172.09,361.654 L1172.09,377.764 C1172.09,379.003 1171.6,379.623 1170.62,379.623 C1169.65,379.623 1169.16,379.003 1169.16,377.764 L1169.16,362.826 L1166.62,363.904 C1165.25,364.488 1164.57,364.097 1164.57,362.732 L1164.57,355.014 C1164.57,354.368 1165.16,353.785 1166.34,353.264 L1169.16,352.092 L1169.16,337.826 L1166.62,338.904 C1165.25,339.488 1164.57,339.097 1164.57,337.732 L1164.57,330.014 C1164.57,329.357 1165.16,328.769 1166.34,328.248 L1169.16,327.076 L1169.16,310.967 C1169.16,309.727 1169.65,309.107 1170.62,309.107 C1171.6,309.107 1172.09,309.727 1172.09,310.967 L1172.09,325.904 L1181.37,322.107 L1181.37,306.186 C1181.37,304.946 1181.86,304.326 1182.84,304.326 C1183.81,304.326 1184.3,304.946 1184.3,306.186 L1184.3,320.936 L1187.23,319.764 M1172.09,336.654 L1172.09,350.92 L1181.37,347.107 L1181.37,332.936 L1172.09,336.654 "/>
<path class="Accidental" d="M457.11,382.264 C458.548,381.868 459.267,382.222 459.267,383.326 L459.267,391.139 C459.267,391.92 458.647,392.54 457.407,392.998 L454.188,394.264 L454.188,408.436 L457.11,407.264 C458.548,406.868 459.267,407.227 459.267,408.342 L459.267,416.154 C459.267,416.936 458.647,417.55 457.407,417.998 L454.188,419.279 L454.188,435.483 C454.188,436.722 453.699,437.342 452.72,437.342 C451.741,437.342 451.251,436.722 451.251,435.483 L451.251,420.451 L441.97,424.154 L441.97,440.264 C441.97,441.503 441.483,442.123 440.509,442.123 C439.535,442.123 439.048,441.503 439.048,440.264 L439.048,425.326 L436.501,426.404 C435.136,426.988 434.454,426.597 434.454,425.233 L434.454,417.514 C434.454,416.868 435.043,416.285 436.22,415.764 L439.048,414.592 L439.048,400.326 L436.501,401.404 C435.136,401.988 434.454,401.597 434.454,400.233 L434.454,392.514 C434.454,391.858 435.043,391.269 436.22,390.748 L439.048,389.576 L439.048,373.467 C439.048,372.227 439.535,371.608 440.509,371.608 C441.483,371.608 441.97,372.227 441.97,373.467 L441.97,388.404 L451.251,384.608 L451.251,368.686 C451.251,367.446 451.741,366.826 452.72,366.826 C453.699,366.826 454.188,367.446 454.188,368.686 L454.188,383.436 L457.11,382.264 M441.97,399.154 L441.97,413.42 L451.251,409.608 L451.251,395.436 L441.97,399.154 "/>
<polyline class="Stem" fill="none" stroke="#000000" stroke-width="3.25" stroke-linejoin="bevel" points="1028.21,359.132 1028.21,435.483"/>
<polyline class="Stem" fill="none" stroke="#000000" stroke-width="3.25" stroke-linejoin="bevel" points="2581.79,399.433 2581.79,316.732"/>
<polyline class="Stem" fill="none" stroke="#000000" stroke-width="3.25" stroke-linejoin="bevel" points="372.065,411.933 372.065,329.232"/>
<polyline class="Stem" fill="none" stroke="#000000" stroke-width="3.25" stroke-linejoin="bevel" points="2413.72,386.933 2413.72,304.232"/>
<polyline class="Stem" fill="none" stroke="#000000" stroke-width="3.25" stroke-linejoin="bevel" points="2288.16,374.433 2288.16,297.982"/>
<polyline class="Stem" fill="none" stroke="#000000" stroke-width="3.25" stroke-linejoin="bevel" points="497.626,399.433 497.626,316.732"/>
<polyline class="Stem" fill="none" stroke="#000000" stroke-width="3.25" stroke-linejoin="bevel" points="2101.23,371.633 2101.23,441.733"/>
<polyline class="Stem" fill="none" stroke="#000000" stroke-width="3.25" stroke-linejoin="bevel" points="1975.67,359.132 1975.67,435.483"/>
<polyline class="Stem" fill="none" stroke="#000000" stroke-width="3.25" stroke-linejoin="bevel" points="653.09,386.933 653.09,304.232"/>
<polyline class="Stem" fill="none" stroke="#000000" stroke-width="3.25" stroke-linejoin="bevel" points="1820.2,346.632 1820.2,429.233"/>
<polyline class="Stem" fill="none" stroke="#000000" stroke-width="3.25" stroke-linejoin="bevel" points="1694.64,334.132 1694.64,416.733"/>
<polyline class="Stem" fill="none" stroke="#000000" stroke-width="3.25" stroke-linejoin="bevel" points="778.651,374.433 778.651,297.982"/>
<polyline class="Stem" fill="none" stroke="#000000" stroke-width="3.25" stroke-linejoin="bevel" points="2707.35,411.933 2707.35,329.232"/>
<polyline class="Stem" fill="none" stroke="#000000" stroke-width="3.25" stroke-linejoin="bevel" points="1196.27,346.632 1196.27,429.233"/>
<polyline class="Stem" fill="none" stroke="#000000" stroke-width="3.25" stroke-linejoin="bevel" points="902.646,371.633 902.646,441.733"/>
<polyline class="Stem" fill="none" stroke="#000000" stroke-width="3.25" stroke-linejoin="bevel" points="1321.83,334.132 1321.83,416.733"/>
<path class="Note" d="M1700.44,339.873 C1702.32,339.873 1706.28,337.92 1712.3,334.014 C1718.33,330.107 1721.88,327.488 1722.95,326.154 C1724.03,324.821 1724.56,323.634 1724.56,322.592 C1724.56,321.55 1724.14,320.623 1723.29,319.811 C1722.44,318.998 1721.46,318.592 1720.36,318.592 C1718.41,318.592 1714.42,320.561 1708.4,324.498 C1702.37,328.436 1698.84,331.055 1697.8,332.357 C1696.76,333.66 1696.23,334.831 1696.23,335.873 C1696.23,336.915 1696.64,337.842 1697.46,338.654 C1698.28,339.467 1699.27,339.873 1700.44,339.873 M1719.39,315.467 C1724.98,315.467 1727.78,317.873 1727.78,322.686 C1727.78,325.029 1727.1,327.748 1725.73,330.842 C1724.37,333.936 1722.55,336.295 1720.27,337.92 C1715.26,341.305 1708.97,342.998 1701.42,342.998 C1695.82,342.998 1693.02,340.592 1693.02,335.779 C1693.02,333.634 1693.68,330.964 1695.02,327.772 C1696.35,324.579 1698.19,322.17 1700.53,320.545 C1705.55,317.16 1711.84,315.467 1719.39,315.467"/>
<path class="Note" d="M2556.11,414.873 C2558,414.873 2561.96,412.92 2567.98,409.014 C2574.01,405.108 2577.56,402.488 2578.63,401.154 C2579.7,399.821 2580.24,398.634 2580.24,397.592 C2580.24,396.55 2579.82,395.623 2578.97,394.811 C2578.12,393.998 2577.14,393.592 2576.04,393.592 C2574.09,393.592 2570.1,395.561 2564.08,399.498 C2558.05,403.436 2554.52,406.055 2553.47,407.358 C2552.43,408.66 2551.91,409.831 2551.91,410.873 C2551.91,411.915 2552.32,412.842 2553.14,413.654 C2553.96,414.467 2554.95,414.873 2556.11,414.873 M2575.07,390.467 C2580.66,390.467 2583.46,392.873 2583.46,397.686 C2583.46,400.029 2582.78,402.748 2581.41,405.842 C2580.05,408.936 2578.22,411.295 2575.94,412.92 C2570.93,416.305 2564.65,417.998 2557.1,417.998 C2551.5,417.998 2548.69,415.592 2548.69,410.779 C2548.69,408.634 2549.36,405.964 2550.69,402.772 C2552.03,399.579 2553.86,397.17 2556.21,395.545 C2561.23,392.16 2567.52,390.467 2575.07,390.467"/>
<path class="Note" d="M1034,364.873 C1035.89,364.873 1039.85,362.92 1045.87,359.014 C1051.9,355.107 1055.45,352.488 1056.52,351.154 C1057.59,349.821 1058.13,348.634 1058.13,347.592 C1058.13,346.55 1057.71,345.623 1056.86,344.811 C1056.01,343.998 1055.03,343.592 1053.93,343.592 C1051.98,343.592 1047.99,345.561 1041.97,349.498 C1035.94,353.436 1032.41,356.055 1031.36,357.357 C1030.32,358.66 1029.8,359.831 1029.8,360.873 C1029.8,361.915 1030.21,362.842 1031.03,363.654 C1031.85,364.467 1032.84,364.873 1034,364.873 M1052.96,340.467 C1058.55,340.467 1061.35,342.873 1061.35,347.686 C1061.35,350.029 1060.67,352.748 1059.3,355.842 C1057.94,358.936 1056.11,361.295 1053.83,362.92 C1048.82,366.305 1042.54,367.998 1034.99,367.998 C1029.38,367.998 1026.58,365.592 1026.58,360.779 C1026.58,358.634 1027.25,355.964 1028.58,352.772 C1029.92,349.579 1031.75,347.17 1034.1,345.545 C1039.12,342.16 1045.41,340.467 1052.96,340.467"/>
<path class="Note" d="M2681.68,427.373 C2683.56,427.373 2687.52,425.42 2693.54,421.514 C2699.57,417.608 2703.12,414.988 2704.19,413.654 C2705.26,412.321 2705.8,411.134 2705.8,410.092 C2705.8,409.05 2705.38,408.123 2704.53,407.311 C2703.68,406.498 2702.7,406.092 2701.6,406.092 C2699.65,406.092 2695.66,408.061 2689.64,411.998 C2683.61,415.936 2680.08,418.555 2679.04,419.858 C2677.99,421.16 2677.47,422.331 2677.47,423.373 C2677.47,424.415 2677.88,425.342 2678.7,426.154 C2679.52,426.967 2680.51,427.373 2681.68,427.373 M2700.63,402.967 C2706.22,402.967 2709.02,405.373 2709.02,410.186 C2709.02,412.529 2708.34,415.248 2706.97,418.342 C2705.61,421.436 2703.79,423.795 2701.5,425.42 C2696.49,428.805 2690.21,430.498 2682.66,430.498 C2677.06,430.498 2674.25,428.092 2674.25,423.279 C2674.25,421.134 2674.92,418.464 2676.25,415.272 C2677.59,412.079 2679.43,409.67 2681.77,408.045 C2686.79,404.66 2693.08,402.967 2700.63,402.967"/>
<path class="Note" d="M2388.05,402.373 C2389.93,402.373 2393.89,400.42 2399.92,396.514 C2405.94,392.608 2409.49,389.988 2410.57,388.654 C2411.64,387.321 2412.17,386.134 2412.17,385.092 C2412.17,384.05 2411.75,383.123 2410.9,382.311 C2410.05,381.498 2409.08,381.092 2407.97,381.092 C2406.02,381.092 2402.04,383.061 2396.01,386.998 C2389.98,390.936 2386.45,393.555 2385.41,394.858 C2384.37,396.16 2383.85,397.331 2383.85,398.373 C2383.85,399.415 2384.26,400.342 2385.07,401.154 C2385.89,401.967 2386.88,402.373 2388.05,402.373 M2407,377.967 C2412.6,377.967 2415.39,380.373 2415.39,385.186 C2415.39,387.529 2414.71,390.248 2413.35,393.342 C2411.98,396.436 2410.16,398.795 2407.88,400.42 C2402.87,403.805 2396.59,405.498 2389.03,405.498 C2383.43,405.498 2380.63,403.092 2380.63,398.279 C2380.63,396.134 2381.29,393.464 2382.63,390.272 C2383.96,387.079 2385.8,384.67 2388.14,383.045 C2393.16,379.66 2399.45,377.967 2407,377.967"/>
<path class="Note" d="M1202.07,352.373 C1203.96,352.373 1207.91,350.42 1213.94,346.514 C1219.96,342.607 1223.51,339.988 1224.59,338.654 C1225.66,337.321 1226.2,336.134 1226.2,335.092 C1226.2,334.05 1225.77,333.123 1224.92,332.311 C1224.07,331.498 1223.1,331.092 1221.99,331.092 C1220.04,331.092 1216.06,333.061 1210.03,336.998 C1204,340.936 1200.47,343.555 1199.43,344.857 C1198.39,346.16 1197.87,347.331 1197.87,348.373 C1197.87,349.415 1198.28,350.342 1199.09,351.154 C1199.91,351.967 1200.9,352.373 1202.07,352.373 M1221.02,327.967 C1226.62,327.967 1229.41,330.373 1229.41,335.186 C1229.41,337.529 1228.73,340.248 1227.37,343.342 C1226,346.436 1224.18,348.795 1221.9,350.42 C1216.89,353.805 1210.61,355.498 1203.05,355.498 C1197.45,355.498 1194.65,353.092 1194.65,348.279 C1194.65,346.134 1195.31,343.464 1196.65,340.272 C1197.98,337.079 1199.82,334.67 1202.16,333.045 C1207.18,329.66 1213.47,327.967 1221.02,327.967"/>
<path class="Note" d="M2262.49,389.873 C2264.37,389.873 2268.33,387.92 2274.36,384.014 C2280.38,380.108 2283.93,377.488 2285,376.154 C2286.08,374.821 2286.61,373.634 2286.61,372.592 C2286.61,371.55 2286.19,370.623 2285.34,369.811 C2284.49,368.998 2283.51,368.592 2282.41,368.592 C2280.46,368.592 2276.48,370.561 2270.45,374.498 C2264.42,378.436 2260.89,381.055 2259.85,382.358 C2258.81,383.66 2258.28,384.831 2258.28,385.873 C2258.28,386.915 2258.69,387.842 2259.51,388.654 C2260.33,389.467 2261.32,389.873 2262.49,389.873 M2281.44,365.467 C2287.03,365.467 2289.83,367.873 2289.83,372.686 C2289.83,375.029 2289.15,377.748 2287.78,380.842 C2286.42,383.936 2284.6,386.295 2282.32,387.92 C2277.31,391.305 2271.02,392.998 2263.47,392.998 C2257.87,392.998 2255.07,390.592 2255.07,385.779 C2255.07,383.634 2255.73,380.964 2257.07,377.772 C2258.4,374.579 2260.24,372.17 2262.58,370.545 C2267.6,367.16 2273.89,365.467 2281.44,365.467"/>
<path class="Note" d="M908.443,377.373 C910.329,377.373 914.284,375.42 920.31,371.514 C926.336,367.608 929.886,364.988 930.959,363.654 C932.032,362.321 932.568,361.134 932.568,360.092 C932.568,359.05 932.144,358.123 931.295,357.311 C930.446,356.498 929.469,356.092 928.365,356.092 C926.417,356.092 922.43,358.061 916.404,361.998 C910.378,365.936 906.844,368.555 905.803,369.858 C904.761,371.16 904.24,372.331 904.24,373.373 C904.24,374.415 904.649,375.342 905.467,376.154 C906.284,376.967 907.277,377.373 908.443,377.373 M927.396,352.967 C932.99,352.967 935.787,355.373 935.787,360.186 C935.787,362.529 935.105,365.248 933.74,368.342 C932.375,371.436 930.553,373.795 928.271,375.42 C923.261,378.805 916.98,380.498 909.428,380.498 C903.823,380.498 901.021,378.092 901.021,373.279 C901.021,371.134 901.688,368.464 903.021,365.272 C904.355,362.079 906.193,359.67 908.537,358.045 C913.558,354.66 919.844,352.967 927.396,352.967"/>
<path class="Note" d="M346.393,427.373 C348.278,427.373 352.234,425.42 358.26,421.514 C364.286,417.608 367.835,414.988 368.908,413.654 C369.981,412.321 370.518,411.134 370.518,410.092 C370.518,409.05 370.093,408.123 369.244,407.311 C368.395,406.498 367.419,406.092 366.315,406.092 C364.367,406.092 360.38,408.061 354.354,411.998 C348.328,415.936 344.794,418.555 343.752,419.858 C342.71,421.16 342.19,422.331 342.19,423.373 C342.19,424.415 342.598,425.342 343.416,426.154 C344.234,426.967 345.226,427.373 346.393,427.373 M365.346,402.967 C370.94,402.967 373.736,405.373 373.736,410.186 C373.736,412.529 373.054,415.248 371.69,418.342 C370.325,421.436 368.502,423.795 366.221,425.42 C361.21,428.805 354.929,430.498 347.377,430.498 C341.773,430.498 338.971,428.092 338.971,423.279 C338.971,421.134 339.637,418.464 340.971,415.272 C342.304,412.079 344.143,409.67 346.486,408.045 C351.507,404.66 357.794,402.967 365.346,402.967"/>
<path class="Note" d="M2107.02,377.373 C2108.91,377.373 2112.87,375.42 2118.89,371.514 C2124.92,367.608 2128.47,364.988 2129.54,363.654 C2130.61,362.321 2131.15,361.134 2131.15,360.092 C2131.15,359.05 2130.72,358.123 2129.88,357.311 C2129.03,356.498 2128.05,356.092 2126.95,356.092 C2125,356.092 2121.01,358.061 2114.99,361.998 C2108.96,365.936 2105.43,368.555 2104.38,369.858 C2103.34,371.16 2102.82,372.331 2102.82,373.373 C2102.82,374.415 2103.23,375.342 2104.05,376.154 C2104.87,376.967 2105.86,377.373 2107.02,377.373 M2125.98,352.967 C2131.57,352.967 2134.37,355.373 2134.37,360.186 C2134.37,362.529 2133.69,365.248 2132.32,368.342 C2130.96,371.436 2129.13,373.795 2126.85,375.42 C2121.84,378.805 2115.56,380.498 2108.01,380.498 C2102.4,380.498 2099.6,378.092 2099.6,373.279 C2099.6,371.134 2100.27,368.464 2101.6,365.272 C2102.94,362.079 2104.77,359.67 2107.12,358.045 C2112.14,354.66 2118.43,352.967 2125.98,352.967"/>
<path class="Note" d="M1327.63,339.873 C1329.52,339.873 1333.47,337.92 1339.5,334.014 C1345.52,330.107 1349.07,327.488 1350.15,326.154 C1351.22,324.821 1351.76,323.634 1351.76,322.592 C1351.76,321.55 1351.33,320.623 1350.48,319.811 C1349.63,318.998 1348.66,318.592 1347.55,318.592 C1345.61,318.592 1341.62,320.561 1335.59,324.498 C1329.57,328.436 1326.03,331.055 1324.99,332.357 C1323.95,333.66 1323.43,334.831 1323.43,335.873 C1323.43,336.915 1323.84,337.842 1324.65,338.654 C1325.47,339.467 1326.46,339.873 1327.63,339.873 M1346.58,315.467 C1352.18,315.467 1354.98,317.873 1354.98,322.686 C1354.98,325.029 1354.29,327.748 1352.93,330.842 C1351.56,333.936 1349.74,336.295 1347.46,337.92 C1342.45,341.305 1336.17,342.998 1328.62,342.998 C1323.01,342.998 1320.21,340.592 1320.21,335.779 C1320.21,333.634 1320.88,330.964 1322.21,327.772 C1323.54,324.579 1325.38,322.17 1327.73,320.545 C1332.75,317.16 1339.03,315.467 1346.58,315.467"/>
<path class="Note" d="M1981.46,364.873 C1983.35,364.873 1987.3,362.92 1993.33,359.014 C1999.36,355.107 2002.91,352.488 2003.98,351.154 C2005.05,349.821 2005.59,348.634 2005.59,347.592 C2005.59,346.55 2005.16,345.623 2004.31,344.811 C2003.47,343.998 2002.49,343.592 2001.38,343.592 C1999.44,343.592 1995.45,345.561 1989.42,349.498 C1983.4,353.436 1979.86,356.055 1978.82,357.357 C1977.78,358.66 1977.26,359.831 1977.26,360.873 C1977.26,361.915 1977.67,362.842 1978.49,363.654 C1979.3,364.467 1980.3,364.873 1981.46,364.873 M2000.42,340.467 C2006.01,340.467 2008.81,342.873 2008.81,347.686 C2008.81,350.029 2008.12,352.748 2006.76,355.842 C2005.4,358.936 2003.57,361.295 2001.29,362.92 C1996.28,366.305 1990,367.998 1982.45,367.998 C1976.84,367.998 1974.04,365.592 1974.04,360.779 C1974.04,358.634 1974.71,355.964 1976.04,352.772 C1977.37,349.579 1979.21,347.17 1981.56,345.545 C1986.58,342.16 1992.86,340.467 2000.42,340.467"/>
<path class="Note" d="M471.954,414.873 C473.84,414.873 477.795,412.92 483.821,409.014 C489.847,405.108 493.397,402.488 494.47,401.154 C495.543,399.821 496.079,398.634 496.079,397.592 C496.079,396.55 495.655,395.623 494.806,394.811 C493.957,393.998 492.98,393.592 491.876,393.592 C489.928,393.592 485.941,395.561 479.915,399.498 C473.889,403.436 470.355,406.055 469.313,407.358 C468.272,408.66 467.751,409.831 467.751,410.873 C467.751,411.915 468.16,412.842 468.978,413.654 C469.795,414.467 470.787,414.873 471.954,414.873 M490.907,390.467 C496.501,390.467 499.298,392.873 499.298,397.686 C499.298,400.029 498.616,402.748 497.251,405.842 C495.886,408.936 494.063,411.295 491.782,412.92 C486.772,416.305 480.491,417.998 472.938,417.998 C467.334,417.998 464.532,415.592 464.532,410.779 C464.532,408.634 465.199,405.964 466.532,402.772 C467.866,399.579 469.704,397.17 472.048,395.545 C477.069,392.16 483.355,390.467 490.907,390.467"/>
<path class="Note" d="M752.979,389.873 C754.865,389.873 758.821,387.92 764.847,384.014 C770.873,380.108 774.422,377.488 775.495,376.154 C776.568,374.821 777.104,373.634 777.104,372.592 C777.104,371.55 776.68,370.623 775.831,369.811 C774.982,368.998 774.005,368.592 772.901,368.592 C770.953,368.592 766.966,370.561 760.94,374.498 C754.914,378.436 751.38,381.055 750.339,382.358 C749.297,383.66 748.776,384.831 748.776,385.873 C748.776,386.915 749.185,387.842 750.003,388.654 C750.821,389.467 751.813,389.873 752.979,389.873 M771.933,365.467 C777.526,365.467 780.323,367.873 780.323,372.686 C780.323,375.029 779.641,377.748 778.276,380.842 C776.912,383.936 775.089,386.295 772.808,387.92 C767.797,391.305 761.516,392.998 753.964,392.998 C748.36,392.998 745.558,390.592 745.558,385.779 C745.558,383.634 746.224,380.964 747.558,377.772 C748.891,374.579 750.729,372.17 753.073,370.545 C758.094,367.16 764.38,365.467 771.933,365.467"/>
<path class="Note" d="M1826,352.373 C1827.88,352.373 1831.84,350.42 1837.87,346.514 C1843.89,342.607 1847.44,339.988 1848.51,338.654 C1849.59,337.321 1850.12,336.134 1850.12,335.092 C1850.12,334.05 1849.7,333.123 1848.85,332.311 C1848,331.498 1847.03,331.092 1845.92,331.092 C1843.97,331.092 1839.99,333.061 1833.96,336.998 C1827.93,340.936 1824.4,343.555 1823.36,344.857 C1822.32,346.16 1821.8,347.331 1821.8,348.373 C1821.8,349.415 1822.2,350.342 1823.02,351.154 C1823.84,351.967 1824.83,352.373 1826,352.373 M1844.95,327.967 C1850.55,327.967 1853.34,330.373 1853.34,335.186 C1853.34,337.529 1852.66,340.248 1851.3,343.342 C1849.93,346.436 1848.11,348.795 1845.83,350.42 C1840.82,353.805 1834.54,355.498 1826.98,355.498 C1821.38,355.498 1818.58,353.092 1818.58,348.279 C1818.58,346.134 1819.24,343.464 1820.58,340.272 C1821.91,337.079 1823.75,334.67 1826.09,333.045 C1831.11,329.66 1837.4,327.967 1844.95,327.967"/>
<path class="Note" d="M627.418,402.373 C629.303,402.373 633.259,400.42 639.285,396.514 C645.311,392.608 648.861,389.988 649.934,388.654 C651.006,387.321 651.543,386.134 651.543,385.092 C651.543,384.05 651.118,383.123 650.269,382.311 C649.421,381.498 648.444,381.092 647.34,381.092 C645.392,381.092 641.405,383.061 635.379,386.998 C629.353,390.936 625.819,393.555 624.777,394.858 C623.736,396.16 623.215,397.331 623.215,398.373 C623.215,399.415 623.624,400.342 624.441,401.154 C625.259,401.967 626.251,402.373 627.418,402.373 M646.371,377.967 C651.965,377.967 654.762,380.373 654.762,385.186 C654.762,387.529 654.079,390.248 652.715,393.342 C651.35,396.436 649.527,398.795 647.246,400.42 C642.236,403.805 635.954,405.498 628.402,405.498 C622.798,405.498 619.996,403.092 619.996,398.279 C619.996,396.134 620.663,393.464 621.996,390.272 C623.329,387.079 625.168,384.67 627.512,383.045 C632.533,379.66 638.819,377.967 646.371,377.967"/>
<path class="Clef" d="M203.623,423.858 L203.623,421.717 C203.56,420.613 203.399,418.889 203.139,416.545 C199.889,417.066 196.993,417.326 194.451,417.326 C185.337,417.326 177.605,413.727 171.256,406.529 C164.907,399.331 161.732,390.753 161.732,380.795 C161.732,378.128 162.253,374.923 163.295,371.178 C164.337,367.433 165.297,364.925 166.178,363.654 C167.058,362.384 168.378,360.154 170.139,356.967 C170.659,355.988 172.352,353.837 175.217,350.514 C175.738,349.805 176.193,349.222 176.584,348.764 C176.975,348.305 177.607,347.49 178.482,346.318 C179.357,345.147 180.3,344.055 181.31,343.045 C182.321,342.035 183.217,341.058 183.998,340.115 C184.779,339.173 185.498,338.378 186.154,337.733 C183.81,329.983 182.378,324.024 181.857,319.858 C181.337,315.691 181.076,310.579 181.076,304.522 C181.076,298.464 182.378,292.962 184.982,288.014 C187.514,282.878 191.06,278.68 195.623,275.42 C195.883,275.222 196.225,275.123 196.646,275.123 C197.068,275.123 197.378,275.222 197.576,275.42 C201.087,279.649 204.128,285.149 206.701,291.92 C209.274,298.691 210.56,305.024 210.56,310.92 C210.56,316.816 209.066,322.498 206.076,327.967 C202.691,333.759 198.326,339.748 192.982,345.936 C194.347,350.227 196.17,356.962 198.451,366.139 L199.045,366.139 C199.305,366.076 199.529,366.045 199.717,366.045 C207.081,366.045 213.089,368.634 217.74,373.811 C222.391,378.988 224.717,384.962 224.717,391.733 C224.717,400.128 221.238,406.899 214.279,412.045 C212.258,413.545 209.878,414.717 207.139,415.561 C207.472,419.79 207.639,422.605 207.639,424.006 C207.639,425.407 207.571,427.899 207.435,431.483 C207.373,437.597 205.29,442.837 201.185,447.201 C197.081,451.566 192.394,453.748 187.123,453.748 C181.852,453.748 177.36,451.876 173.646,448.131 C169.933,444.386 168.076,439.847 168.076,434.514 C168.076,431.712 169.154,429.331 171.31,427.373 C173.519,425.425 176.006,424.451 178.771,424.451 C181.537,424.451 183.8,425.462 185.56,427.483 C187.383,429.368 188.295,431.644 188.295,434.311 C188.295,436.977 187.383,439.222 185.56,441.045 C183.738,442.868 181.555,443.779 179.014,443.779 C177.972,443.779 176.967,443.587 175.998,443.201 C178.863,447.43 182.54,449.545 187.029,449.545 C191.519,449.545 195.36,447.691 198.553,443.983 C201.745,440.274 203.342,435.91 203.342,430.889 L203.623,423.858 M206.748,411.561 C210.133,410.321 212.821,408.123 214.81,404.967 C216.8,401.811 217.795,398.67 217.795,395.545 C217.795,390.92 216.199,386.785 213.006,383.139 C209.813,379.493 205.774,377.441 200.889,376.983 C203.691,390.722 205.644,402.248 206.748,411.561 M168.967,388.998 C168.967,395.446 171.537,401.079 176.678,405.897 C181.818,410.714 187.842,413.123 194.748,413.123 C197.477,413.123 200.144,412.925 202.748,412.529 C201.706,402.634 199.654,390.785 196.592,376.983 C192.758,377.378 189.782,378.699 187.662,380.943 C185.542,383.188 184.482,385.743 184.482,388.608 C184.482,393.555 187.123,397.561 192.404,400.623 C192.852,400.884 193.076,401.324 193.076,401.943 C193.076,402.563 192.865,403.1 192.443,403.553 C192.021,404.006 191.649,404.233 191.326,404.233 C191.003,404.233 190.581,404.17 190.06,404.045 C182.435,399.878 178.623,393.592 178.623,385.186 C178.623,381.217 180.024,377.41 182.826,373.764 C185.753,370.118 189.56,367.774 194.248,366.733 C192.425,359.441 190.93,353.743 189.764,349.639 C180.847,359.67 175.31,367.092 173.154,371.904 C170.363,378.154 168.967,383.852 168.967,388.998 M201.576,289.686 C196.691,292.092 192.834,295.574 190.006,300.131 C187.178,304.688 185.764,309.472 185.764,314.483 C185.764,319.493 186.935,325.972 189.279,333.92 C193.967,328.253 197.514,322.946 199.92,317.998 C202.326,313.05 203.529,308.152 203.529,303.303 C203.529,298.454 202.878,293.915 201.576,289.686"/>
<path class="TimeSig" d="M273.021,317.912 C274.516,317.912 275.949,317.686 277.318,317.232 C278.688,316.779 279.665,316.553 280.248,316.553 C280.831,316.553 281.222,316.907 281.42,317.615 C281.42,317.688 281.352,317.886 281.217,318.209 L252.811,351.225 L269.498,351.225 L269.498,338.131 C269.498,336.506 270.446,335.334 272.342,334.615 C274.29,333.897 276.503,331.001 278.982,325.928 C279.17,325.532 279.462,325.334 279.857,325.334 C280.639,325.334 281.092,325.792 281.217,326.709 L281.217,351.225 L288.357,351.225 C289.264,351.225 289.751,351.712 289.818,352.686 C289.886,353.66 289.399,354.147 288.357,354.147 L281.217,354.147 L281.217,354.928 C281.217,357.532 281.868,359.746 283.17,361.568 C284.67,363.391 286.43,364.303 288.451,364.303 C289.232,364.303 289.623,364.693 289.623,365.475 C289.623,366.256 289.087,366.647 288.014,366.647 C286.941,366.647 284.938,366.436 282.006,366.014 C279.074,365.592 276.811,365.381 275.217,365.381 C273.623,365.381 271.41,365.592 268.576,366.014 C265.743,366.436 263.613,366.647 262.186,366.647 C261.404,366.647 261.014,366.256 261.014,365.475 C261.014,364.693 261.404,364.303 262.186,364.303 C264.196,364.303 265.951,363.391 267.451,361.568 C268.816,359.683 269.498,357.469 269.498,354.928 L269.498,354.147 L252.811,354.147 C251.956,354.147 251.219,353.92 250.6,353.467 C249.98,353.014 249.67,352.592 249.67,352.201 C249.67,351.811 250.485,350.639 252.115,348.686 C253.745,346.732 256.074,342.972 259.1,337.404 C262.126,331.837 263.639,325.438 263.639,318.209 C263.639,317.167 264.097,316.647 265.014,316.647 C265.212,316.647 265.521,316.712 265.943,316.842 C266.365,316.972 267.277,317.183 268.678,317.475 C270.079,317.766 271.527,317.912 273.021,317.912"/>
<path class="TimeSig" d="M273.021,368.084 C274.516,368.084 275.949,367.858 277.318,367.404 C278.688,366.951 279.665,366.725 280.248,366.725 C280.831,366.725 281.222,367.079 281.42,367.787 C281.42,367.86 281.352,368.058 281.217,368.381 L252.811,401.397 L269.498,401.397 L269.498,388.303 C269.498,386.678 270.446,385.506 272.342,384.787 C274.29,384.068 276.503,381.173 278.982,376.1 C279.17,375.704 279.462,375.506 279.857,375.506 C280.639,375.506 281.092,375.964 281.217,376.881 L281.217,401.397 L288.357,401.397 C289.264,401.397 289.751,401.884 289.818,402.858 C289.886,403.831 289.399,404.318 288.357,404.318 L281.217,404.318 L281.217,405.1 C281.217,407.704 281.868,409.917 283.17,411.74 C284.67,413.563 286.43,414.475 288.451,414.475 C289.232,414.475 289.623,414.865 289.623,415.647 C289.623,416.428 289.087,416.818 288.014,416.818 C286.941,416.818 284.938,416.608 282.006,416.186 C279.074,415.764 276.811,415.553 275.217,415.553 C273.623,415.553 271.41,415.764 268.576,416.186 C265.743,416.608 263.613,416.818 262.186,416.818 C261.404,416.818 261.014,416.428 261.014,415.647 C261.014,414.865 261.404,414.475 262.186,414.475 C264.196,414.475 265.951,413.563 267.451,411.74 C268.816,409.855 269.498,407.641 269.498,405.1 L269.498,404.318 L252.811,404.318 C251.956,404.318 251.219,404.092 250.6,403.639 C249.98,403.186 249.67,402.764 249.67,402.373 C249.67,401.983 250.485,400.811 252.115,398.858 C253.745,396.904 256.074,393.144 259.1,387.576 C262.126,382.009 263.639,375.61 263.639,368.381 C263.639,367.339 264.097,366.818 265.014,366.818 C265.212,366.818 265.521,366.884 265.943,367.014 C266.365,367.144 267.277,367.355 268.678,367.647 C270.079,367.938 271.527,368.084 273.021,368.084"/>
<path class="Rest" d="M1575.13,357.357 L1539.58,357.357 C1538.92,357.357 1538.59,357.035 1538.59,356.389 L1538.59,342.717 C1538.59,342.061 1538.92,341.732 1539.58,341.732 L1575.13,341.732 C1575.77,341.732 1576.09,342.061 1576.09,342.717 L1576.09,356.389 C1576.09,357.035 1575.77,357.357 1575.13,357.357"/>
</svg>
