<?xml version="1.0" encoding="UTF-8" standalone="no"?>
<svg width="2977.2px" height="4208.4px" viewBox="0 0 2977.2 4208.4"
 xmlns="http://www.w3.org/2000/svg" xmlns:xlink="http://www.w3.org/1999/xlink" version="1.2" baseProfile="tiny">
<title>Abmaj_Scale.mscx</title>
<desc>Generated by MuseScore Studio 4.3.1</desc>
<path class="" fill="#ffffff" fill-rule="evenodd" d="M0,0 L2977.2,0 L2977.2,4208.4 L0,4208.4 L0,0 "/>
<polyline class="StaffLines" fill="none" stroke="#000000" stroke-width="2.00" stroke-linejoin="bevel" points="141.732,566.733 2835.47,566.733"/>
<polyline class="StaffLines" fill="none" stroke="#000000" stroke-width="2.00" stroke-linejoin="bevel" points="141.732,591.733 2835.47,591.733"/>
<polyline class="StaffLines" fill="none" stroke="#000000" stroke-width="2.00" stroke-linejoin="bevel" points="141.732,616.733 2835.47,616.733"/>
<polyline class="StaffLines" fill="none" stroke="#000000" stroke-width="2.00" stroke-linejoin="bevel" points="141.732,641.733 2835.47,641.733"/>
<polyline class="StaffLines" fill="none" stroke="#000000" stroke-width="2.00" stroke-linejoin="bevel" points="141.732,666.733 2835.47,666.733"/>
<polyline class="BarLine" fill="none" stroke="#000000" stroke-width="4.00" stroke-linejoin="bevel" points="1905.3,565.733 1905.3,667.733"/>
<polyline class="BarLine" fill="none" stroke="#000000" stroke-width="4.00" stroke-linejoin="bevel" points="2802.72,565.733 2802.72,667.733"/>
<polyline class="BarLine" fill="none" stroke="#000000" stroke-width="12.50" stroke-linejoin="bevel" points="2829.22,565.733 2829.22,667.733"/>
<polyline class="BarLine" fill="none" stroke="#000000" stroke-width="4.00" stroke-linejoin="bevel" points="1592.02,565.733 1592.02,667.733"/>
<polyline class="BarLine" fill="none" stroke="#000000" stroke-width="4.00" stroke-linejoin="bevel" points="1278.74,565.733 1278.74,667.733"/>
<polyline class="BarLine" fill="none" stroke="#000000" stroke-width="4.00" stroke-linejoin="bevel" points="2542.37,565.733 2542.37,667.733"/>
<polyline class="BarLine" fill="none" stroke="#000000" stroke-width="4.00" stroke-linejoin="bevel" points="2229.09,565.733 2229.09,667.733"/>
<polyline class="BarLine" fill="none" stroke="#000000" stroke-width="4.00" stroke-linejoin="bevel" points="954.946,565.733 954.946,667.733"/>
<polyline class="BarLine" fill="none" stroke="#000000" stroke-width="4.00" stroke-linejoin="bevel" points="641.667,565.733 641.667,667.733"/>
<path class="Accidental" d="M2371.15,634.311 L2369.89,572.201 C2369.89,571.222 2370.65,570.733 2372.19,570.733 C2373.72,570.733 2374.48,571.222 2374.48,572.201 L2373.7,606.092 C2375.46,604.332 2376.97,603.11 2378.24,602.428 C2379.51,601.746 2381.23,601.405 2383.41,601.405 C2385.59,601.405 2387.61,602.412 2389.47,604.428 C2391.32,606.444 2392.25,608.951 2392.25,611.951 C2392.25,616.441 2387.53,622.66 2378.09,630.608 C2374.58,633.795 2372.76,635.389 2372.62,635.389 L2372.04,635.389 C2371.45,635.389 2371.15,635.03 2371.15,634.311 M2373.61,609.217 L2373.31,631.389 C2375.33,629.493 2377.38,626.347 2379.47,621.951 C2381.55,617.556 2382.59,613.795 2382.59,610.67 C2382.59,609.108 2382.33,607.675 2381.81,606.373 C2381.29,605.071 2380.47,604.42 2379.37,604.42 C2378.26,604.42 2377.26,604.811 2376.38,605.592 C2375.5,606.373 2374.58,607.582 2373.61,609.217"/>
<path class="Accidental" d="M328.764,646.811 L327.498,584.701 C327.498,583.722 328.264,583.233 329.795,583.233 C331.326,583.233 332.092,583.722 332.092,584.701 L331.311,618.592 C333.071,616.832 334.584,615.61 335.85,614.928 C337.115,614.246 338.839,613.905 341.022,613.905 C343.204,613.905 345.222,614.912 347.076,616.928 C348.93,618.944 349.857,621.451 349.857,624.451 C349.857,628.941 345.139,635.16 335.701,643.108 C332.191,646.295 330.368,647.889 330.232,647.889 L329.654,647.889 C329.061,647.889 328.764,647.53 328.764,646.811 M331.217,621.717 L330.92,643.889 C332.941,641.993 334.993,638.847 337.076,634.451 C339.16,630.056 340.201,626.295 340.201,623.17 C340.201,621.608 339.941,620.175 339.42,618.873 C338.899,617.571 338.084,616.92 336.975,616.92 C335.865,616.92 334.87,617.311 333.99,618.092 C333.11,618.873 332.186,620.082 331.217,621.717"/>
<path class="Accidental" d="M1916.19,596.811 L1914.92,534.701 C1914.92,533.722 1915.69,533.233 1917.22,533.233 C1918.75,533.233 1919.52,533.722 1919.52,534.701 L1918.73,568.592 C1920.49,566.832 1922.01,565.61 1923.27,564.928 C1924.54,564.246 1926.26,563.905 1928.45,563.905 C1930.63,563.905 1932.65,564.912 1934.5,566.928 C1936.35,568.944 1937.28,571.451 1937.28,574.451 C1937.28,578.941 1932.56,585.16 1923.13,593.108 C1919.61,596.295 1917.79,597.889 1917.66,597.889 L1917.08,597.889 C1916.48,597.889 1916.19,597.53 1916.19,596.811 M1918.64,571.717 L1918.34,593.889 C1920.36,591.993 1922.42,588.847 1924.5,584.451 C1926.58,580.056 1927.63,576.295 1927.63,573.17 C1927.63,571.608 1927.36,570.175 1926.84,568.873 C1926.32,567.571 1925.51,566.92 1924.4,566.92 C1923.29,566.92 1922.29,567.311 1921.41,568.092 C1920.53,568.873 1919.61,570.082 1918.64,571.717"/>
<path class="Accidental" d="M2057.88,609.311 L2056.61,547.201 C2056.61,546.222 2057.38,545.733 2058.91,545.733 C2060.44,545.733 2061.2,546.222 2061.2,547.201 L2060.42,581.092 C2062.18,579.332 2063.7,578.11 2064.96,577.428 C2066.23,576.746 2067.95,576.405 2070.13,576.405 C2072.32,576.405 2074.33,577.412 2076.19,579.428 C2078.04,581.444 2078.97,583.951 2078.97,586.951 C2078.97,591.441 2074.25,597.66 2064.81,605.608 C2061.3,608.795 2059.48,610.389 2059.34,610.389 L2058.77,610.389 C2058.17,610.389 2057.88,610.03 2057.88,609.311 M2060.33,584.217 L2060.03,606.389 C2062.05,604.493 2064.1,601.347 2066.19,596.951 C2068.27,592.556 2069.31,588.795 2069.31,585.67 C2069.31,584.108 2069.05,582.675 2068.53,581.373 C2068.01,580.071 2067.2,579.42 2066.09,579.42 C2064.98,579.42 2063.98,579.811 2063.1,580.592 C2062.22,581.373 2061.3,582.582 2060.33,584.217"/>
<path class="Accidental" d="M965.836,596.811 L964.571,534.701 C964.571,533.722 965.336,533.233 966.868,533.233 C968.399,533.233 969.165,533.722 969.165,534.701 L968.383,568.592 C970.144,566.832 971.657,565.61 972.922,564.928 C974.188,564.246 975.912,563.905 978.094,563.905 C980.277,563.905 982.295,564.912 984.149,566.928 C986.003,568.944 986.93,571.451 986.93,574.451 C986.93,578.941 982.211,585.16 972.774,593.108 C969.264,596.295 967.441,597.889 967.305,597.889 L966.727,597.889 C966.133,597.889 965.836,597.53 965.836,596.811 M968.29,571.717 L967.993,593.889 C970.014,591.993 972.066,588.847 974.149,584.451 C976.232,580.056 977.274,576.295 977.274,573.17 C977.274,571.608 977.014,570.175 976.493,568.873 C975.972,567.571 975.157,566.92 974.047,566.92 C972.938,566.92 971.943,567.311 971.063,568.092 C970.183,568.873 969.258,570.082 968.29,571.717"/>
<path class="Accidental" d="M470.452,634.311 L469.186,572.201 C469.186,571.222 469.952,570.733 471.483,570.733 C473.014,570.733 473.78,571.222 473.78,572.201 L472.999,606.092 C474.759,604.332 476.272,603.11 477.538,602.428 C478.803,601.746 480.527,601.405 482.71,601.405 C484.892,601.405 486.91,602.412 488.764,604.428 C490.618,606.444 491.546,608.951 491.546,611.951 C491.546,616.441 486.827,622.66 477.389,630.608 C473.879,633.795 472.056,635.389 471.921,635.389 L471.342,635.389 C470.749,635.389 470.452,635.03 470.452,634.311 M472.905,609.217 L472.608,631.389 C474.629,629.493 476.681,626.347 478.764,621.951 C480.848,617.556 481.889,613.795 481.889,610.67 C481.889,609.108 481.629,607.675 481.108,606.373 C480.587,605.071 479.772,604.42 478.663,604.42 C477.553,604.42 476.559,604.811 475.678,605.592 C474.798,606.373 473.874,607.582 472.905,609.217"/>
<path class="Accidental" d="M783.73,609.311 L782.465,547.201 C782.465,546.222 783.23,545.733 784.762,545.733 C786.293,545.733 787.058,546.222 787.058,547.201 L786.277,581.092 C788.038,579.332 789.551,578.11 790.816,577.428 C792.082,576.746 793.806,576.405 795.988,576.405 C798.17,576.405 800.189,577.412 802.043,579.428 C803.897,581.444 804.824,583.951 804.824,586.951 C804.824,591.441 800.105,597.66 790.668,605.608 C787.157,608.795 785.335,610.389 785.199,610.389 L784.621,610.389 C784.027,610.389 783.73,610.03 783.73,609.311 M786.183,584.217 L785.887,606.389 C787.907,604.493 789.96,601.347 792.043,596.951 C794.126,592.556 795.168,588.795 795.168,585.67 C795.168,584.108 794.907,582.675 794.387,581.373 C793.866,580.071 793.051,579.42 791.941,579.42 C790.832,579.42 789.837,579.811 788.957,580.592 C788.077,581.373 787.152,582.582 786.183,584.217"/>
<path class="Accidental" d="M1411.3,559.311 L1410.04,497.201 C1410.04,496.222 1410.8,495.733 1412.33,495.733 C1413.87,495.733 1414.63,496.222 1414.63,497.201 L1413.85,531.092 C1415.61,529.332 1417.12,528.11 1418.39,527.428 C1419.65,526.746 1421.38,526.404 1423.56,526.404 C1425.74,526.404 1427.76,527.412 1429.62,529.428 C1431.47,531.444 1432.4,533.951 1432.4,536.951 C1432.4,541.441 1427.68,547.66 1418.24,555.608 C1414.73,558.795 1412.91,560.389 1412.77,560.389 L1412.19,560.389 C1411.6,560.389 1411.3,560.029 1411.3,559.311 M1413.76,534.217 L1413.46,556.389 C1415.48,554.493 1417.53,551.347 1419.62,546.951 C1421.7,542.556 1422.74,538.795 1422.74,535.67 C1422.74,534.108 1422.48,532.675 1421.96,531.373 C1421.44,530.071 1420.62,529.42 1419.51,529.42 C1418.4,529.42 1417.41,529.811 1416.53,530.592 C1415.65,531.373 1414.72,532.582 1413.76,534.217"/>
<path class="Accidental" d="M2553.26,646.811 L2551.99,584.701 C2551.99,583.722 2552.76,583.233 2554.29,583.233 C2555.82,583.233 2556.59,583.722 2556.59,584.701 L2555.81,618.592 C2557.57,616.832 2559.08,615.61 2560.35,614.928 C2561.61,614.246 2563.34,613.905 2565.52,613.905 C2567.7,613.905 2569.72,614.912 2571.57,616.928 C2573.43,618.944 2574.35,621.451 2574.35,624.451 C2574.35,628.941 2569.64,635.16 2560.2,643.108 C2556.69,646.295 2554.86,647.889 2554.73,647.889 L2554.15,647.889 C2553.56,647.889 2553.26,647.53 2553.26,646.811 M2555.71,621.717 L2555.42,643.889 C2557.44,641.993 2559.49,638.847 2561.57,634.451 C2563.66,630.056 2564.7,626.295 2564.7,623.17 C2564.7,621.608 2564.44,620.175 2563.92,618.873 C2563.4,617.571 2562.58,616.92 2561.47,616.92 C2560.36,616.92 2559.37,617.311 2558.49,618.092 C2557.61,618.873 2556.68,620.082 2555.71,621.717"/>
<polyline class="LedgerLine" fill="none" stroke="#000000" stroke-width="4.00" stroke-linejoin="bevel" points="1437.93,541.733 1491.65,541.733"/>
<polyline class="Stem" fill="none" stroke="#000000" stroke-width="3.25" stroke-linejoin="bevel" points="1944.44,584.133 1944.44,666.733"/>
<polyline class="Stem" fill="none" stroke="#000000" stroke-width="3.25" stroke-linejoin="bevel" points="2086.13,596.633 2086.13,679.233"/>
<polyline class="Stem" fill="none" stroke="#000000" stroke-width="3.25" stroke-linejoin="bevel" points="1449.05,546.633 1449.05,629.233"/>
<polyline class="Stem" fill="none" stroke="#000000" stroke-width="3.25" stroke-linejoin="bevel" points="388.483,624.433 388.483,547.983"/>
<polyline class="Stem" fill="none" stroke="#000000" stroke-width="3.25" stroke-linejoin="bevel" points="1307.36,559.133 1307.36,641.733"/>
<polyline class="Stem" fill="none" stroke="#000000" stroke-width="3.25" stroke-linejoin="bevel" points="1620.64,559.133 1620.64,641.733"/>
<polyline class="Stem" fill="none" stroke="#000000" stroke-width="3.25" stroke-linejoin="bevel" points="1762.33,571.633 1762.33,654.233"/>
<polyline class="Stem" fill="none" stroke="#000000" stroke-width="3.25" stroke-linejoin="bevel" points="1135.77,571.633 1135.77,654.233"/>
<polyline class="Stem" fill="none" stroke="#000000" stroke-width="3.25" stroke-linejoin="bevel" points="498.702,621.633 498.702,691.733"/>
<polyline class="Stem" fill="none" stroke="#000000" stroke-width="3.25" stroke-linejoin="bevel" points="994.086,584.133 994.086,666.733"/>
<polyline class="Stem" fill="none" stroke="#000000" stroke-width="3.25" stroke-linejoin="bevel" points="2257.72,609.133 2257.72,685.483"/>
<polyline class="Stem" fill="none" stroke="#000000" stroke-width="3.25" stroke-linejoin="bevel" points="811.98,596.633 811.98,679.233"/>
<polyline class="Stem" fill="none" stroke="#000000" stroke-width="3.25" stroke-linejoin="bevel" points="2399.4,621.633 2399.4,691.733"/>
<polyline class="Stem" fill="none" stroke="#000000" stroke-width="3.25" stroke-linejoin="bevel" points="670.292,609.133 670.292,685.483"/>
<path class="Note" d="M2091.92,602.373 C2093.81,602.373 2097.76,600.42 2103.79,596.514 C2109.82,592.608 2113.37,589.988 2114.44,588.655 C2115.51,587.321 2116.05,586.134 2116.05,585.092 C2116.05,584.05 2115.62,583.123 2114.77,582.311 C2113.93,581.498 2112.95,581.092 2111.84,581.092 C2109.9,581.092 2105.91,583.061 2099.88,586.998 C2093.86,590.936 2090.32,593.556 2089.28,594.858 C2088.24,596.16 2087.72,597.332 2087.72,598.373 C2087.72,599.415 2088.13,600.342 2088.95,601.155 C2089.76,601.967 2090.76,602.373 2091.92,602.373 M2110.88,577.967 C2116.47,577.967 2119.27,580.373 2119.27,585.186 C2119.27,587.53 2118.58,590.248 2117.22,593.342 C2115.85,596.436 2114.03,598.795 2111.75,600.42 C2106.74,603.806 2100.46,605.498 2092.91,605.498 C2087.3,605.498 2084.5,603.092 2084.5,598.28 C2084.5,596.134 2085.17,593.464 2086.5,590.272 C2087.83,587.079 2089.67,584.67 2092.02,583.045 C2097.04,579.66 2103.32,577.967 2110.88,577.967"/>
<path class="Note" d="M1950.23,589.873 C1952.12,589.873 1956.08,587.92 1962.1,584.014 C1968.13,580.108 1971.68,577.488 1972.75,576.155 C1973.82,574.821 1974.36,573.634 1974.36,572.592 C1974.36,571.55 1973.94,570.623 1973.09,569.811 C1972.24,568.998 1971.26,568.592 1970.16,568.592 C1968.21,568.592 1964.22,570.561 1958.2,574.498 C1952.17,578.436 1948.64,581.056 1947.59,582.358 C1946.55,583.66 1946.03,584.832 1946.03,585.873 C1946.03,586.915 1946.44,587.842 1947.26,588.655 C1948.08,589.467 1949.07,589.873 1950.23,589.873 M1969.19,565.467 C1974.78,565.467 1977.58,567.873 1977.58,572.686 C1977.58,575.03 1976.9,577.748 1975.53,580.842 C1974.17,583.936 1972.34,586.295 1970.06,587.92 C1965.05,591.306 1958.77,592.998 1951.22,592.998 C1945.61,592.998 1942.81,590.592 1942.81,585.78 C1942.81,583.634 1943.48,580.964 1944.81,577.772 C1946.15,574.579 1947.98,572.17 1950.33,570.545 C1955.35,567.16 1961.64,565.467 1969.19,565.467"/>
<path class="Note" d="M2405.2,627.373 C2407.09,627.373 2411.04,625.42 2417.07,621.514 C2423.09,617.608 2426.64,614.988 2427.72,613.655 C2428.79,612.321 2429.33,611.134 2429.33,610.092 C2429.33,609.05 2428.9,608.123 2428.05,607.311 C2427.2,606.498 2426.23,606.092 2425.12,606.092 C2423.18,606.092 2419.19,608.061 2413.16,611.998 C2407.14,615.936 2403.6,618.556 2402.56,619.858 C2401.52,621.16 2401,622.332 2401,623.373 C2401,624.415 2401.41,625.342 2402.22,626.155 C2403.04,626.967 2404.03,627.373 2405.2,627.373 M2424.15,602.967 C2429.75,602.967 2432.54,605.373 2432.54,610.186 C2432.54,612.53 2431.86,615.248 2430.5,618.342 C2429.13,621.436 2427.31,623.795 2425.03,625.42 C2420.02,628.806 2413.74,630.498 2406.19,630.498 C2400.58,630.498 2397.78,628.092 2397.78,623.28 C2397.78,621.134 2398.45,618.464 2399.78,615.272 C2401.11,612.079 2402.95,609.67 2405.29,608.045 C2410.32,604.66 2416.6,602.967 2424.15,602.967"/>
<path class="Note" d="M2596.98,634.701 C2599.84,638.545 2603.52,640.467 2608.01,640.467 C2612.5,640.467 2614.74,637.441 2614.74,631.389 C2614.74,628.514 2613.93,625.972 2612.31,623.764 C2609.51,619.92 2605.73,617.998 2600.98,617.998 C2598.9,617.998 2597.3,618.86 2596.2,620.584 C2595.09,622.308 2594.54,624.54 2594.54,627.28 C2594.54,630.019 2595.35,632.493 2596.98,634.701 M2587.31,619.467 C2592.19,616.8 2598.07,615.467 2604.94,615.467 C2611.81,615.467 2617.6,616.834 2622.32,619.569 C2627.04,622.303 2629.4,625.558 2629.4,629.334 C2629.4,633.11 2626.96,636.332 2622.07,638.998 C2617.19,641.665 2611.34,642.998 2604.54,642.998 C2597.74,642.998 2591.93,641.631 2587.11,638.897 C2582.29,636.162 2579.89,632.876 2579.89,629.037 C2579.89,625.199 2582.36,622.009 2587.31,619.467"/>
<path class="Note" d="M2263.51,614.873 C2265.4,614.873 2269.35,612.92 2275.38,609.014 C2281.41,605.108 2284.96,602.488 2286.03,601.155 C2287.1,599.821 2287.64,598.634 2287.64,597.592 C2287.64,596.55 2287.21,595.623 2286.36,594.811 C2285.52,593.998 2284.54,593.592 2283.43,593.592 C2281.49,593.592 2277.5,595.561 2271.47,599.498 C2265.45,603.436 2261.91,606.056 2260.87,607.358 C2259.83,608.66 2259.31,609.832 2259.31,610.873 C2259.31,611.915 2259.72,612.842 2260.54,613.655 C2261.35,614.467 2262.35,614.873 2263.51,614.873 M2282.47,590.467 C2288.06,590.467 2290.86,592.873 2290.86,597.686 C2290.86,600.03 2290.17,602.748 2288.81,605.842 C2287.45,608.936 2285.62,611.295 2283.34,612.92 C2278.33,616.306 2272.05,617.998 2264.5,617.998 C2258.89,617.998 2256.09,615.592 2256.09,610.78 C2256.09,608.634 2256.76,605.964 2258.09,602.772 C2259.42,599.579 2261.26,597.17 2263.61,595.545 C2268.63,592.16 2274.91,590.467 2282.47,590.467"/>
<path class="Note" d="M1454.85,552.373 C1456.74,552.373 1460.69,550.42 1466.72,546.514 C1472.74,542.608 1476.29,539.988 1477.37,538.654 C1478.44,537.321 1478.97,536.134 1478.97,535.092 C1478.97,534.05 1478.55,533.123 1477.7,532.311 C1476.85,531.498 1475.88,531.092 1474.77,531.092 C1472.82,531.092 1468.84,533.061 1462.81,536.998 C1456.78,540.936 1453.25,543.556 1452.21,544.858 C1451.17,546.16 1450.65,547.332 1450.65,548.373 C1450.65,549.415 1451.06,550.342 1451.87,551.154 C1452.69,551.967 1453.68,552.373 1454.85,552.373 M1473.8,527.967 C1479.4,527.967 1482.19,530.373 1482.19,535.186 C1482.19,537.529 1481.51,540.248 1480.15,543.342 C1478.78,546.436 1476.96,548.795 1474.68,550.42 C1469.67,553.806 1463.39,555.498 1455.83,555.498 C1450.23,555.498 1447.43,553.092 1447.43,548.279 C1447.43,546.134 1448.09,543.464 1449.43,540.272 C1450.76,537.079 1452.6,534.67 1454.94,533.045 C1459.96,529.66 1466.25,527.967 1473.8,527.967"/>
<path class="Note" d="M1768.13,577.373 C1770.01,577.373 1773.97,575.42 1780,571.514 C1786.02,567.608 1789.57,564.988 1790.64,563.655 C1791.72,562.321 1792.25,561.134 1792.25,560.092 C1792.25,559.05 1791.83,558.123 1790.98,557.311 C1790.13,556.498 1789.15,556.092 1788.05,556.092 C1786.1,556.092 1782.12,558.061 1776.09,561.998 C1770.06,565.936 1766.53,568.556 1765.49,569.858 C1764.45,571.16 1763.93,572.332 1763.93,573.373 C1763.93,574.415 1764.33,575.342 1765.15,576.155 C1765.97,576.967 1766.96,577.373 1768.13,577.373 M1787.08,552.967 C1792.68,552.967 1795.47,555.373 1795.47,560.186 C1795.47,562.53 1794.79,565.248 1793.43,568.342 C1792.06,571.436 1790.24,573.795 1787.96,575.42 C1782.95,578.806 1776.66,580.498 1769.11,580.498 C1763.51,580.498 1760.71,578.092 1760.71,573.28 C1760.71,571.134 1761.37,568.464 1762.71,565.272 C1764.04,562.079 1765.88,559.67 1768.22,558.045 C1773.24,554.66 1779.53,552.967 1787.08,552.967"/>
<path class="Note" d="M362.811,639.873 C364.696,639.873 368.652,637.92 374.678,634.014 C380.704,630.108 384.253,627.488 385.326,626.155 C386.399,624.821 386.936,623.634 386.936,622.592 C386.936,621.55 386.511,620.623 385.662,619.811 C384.813,618.998 383.837,618.592 382.732,618.592 C380.785,618.592 376.798,620.561 370.772,624.498 C364.746,628.436 361.212,631.056 360.17,632.358 C359.128,633.66 358.607,634.832 358.607,635.873 C358.607,636.915 359.016,637.842 359.834,638.655 C360.652,639.467 361.644,639.873 362.811,639.873 M381.764,615.467 C387.357,615.467 390.154,617.873 390.154,622.686 C390.154,625.03 389.472,627.748 388.107,630.842 C386.743,633.936 384.92,636.295 382.639,637.92 C377.628,641.306 371.347,642.998 363.795,642.998 C358.191,642.998 355.389,640.592 355.389,635.78 C355.389,633.634 356.055,630.964 357.389,627.772 C358.722,624.579 360.561,622.17 362.904,620.545 C367.925,617.16 374.212,615.467 381.764,615.467"/>
<path class="Note" d="M676.089,614.873 C677.975,614.873 681.93,612.92 687.956,609.014 C693.982,605.108 697.532,602.488 698.605,601.155 C699.678,599.821 700.214,598.634 700.214,597.592 C700.214,596.55 699.79,595.623 698.941,594.811 C698.092,593.998 697.115,593.592 696.011,593.592 C694.063,593.592 690.076,595.561 684.05,599.498 C678.024,603.436 674.49,606.056 673.449,607.358 C672.407,608.66 671.886,609.832 671.886,610.873 C671.886,611.915 672.295,612.842 673.113,613.655 C673.93,614.467 674.922,614.873 676.089,614.873 M695.042,590.467 C700.636,590.467 703.433,592.873 703.433,597.686 C703.433,600.03 702.751,602.748 701.386,605.842 C700.021,608.936 698.199,611.295 695.917,612.92 C690.907,616.306 684.626,617.998 677.074,617.998 C671.469,617.998 668.667,615.592 668.667,610.78 C668.667,608.634 669.334,605.964 670.667,602.772 C672.001,599.579 673.839,597.17 676.183,595.545 C681.204,592.16 687.49,590.467 695.042,590.467"/>
<path class="Note" d="M817.777,602.373 C819.663,602.373 823.618,600.42 829.644,596.514 C835.67,592.608 839.22,589.988 840.293,588.655 C841.366,587.321 841.902,586.134 841.902,585.092 C841.902,584.05 841.478,583.123 840.629,582.311 C839.78,581.498 838.803,581.092 837.699,581.092 C835.751,581.092 831.764,583.061 825.738,586.998 C819.712,590.936 816.178,593.556 815.137,594.858 C814.095,596.16 813.574,597.332 813.574,598.373 C813.574,599.415 813.983,600.342 814.801,601.155 C815.618,601.967 816.611,602.373 817.777,602.373 M836.73,577.967 C842.324,577.967 845.121,580.373 845.121,585.186 C845.121,587.53 844.439,590.248 843.074,593.342 C841.71,596.436 839.887,598.795 837.605,600.42 C832.595,603.806 826.314,605.498 818.762,605.498 C813.157,605.498 810.355,603.092 810.355,598.28 C810.355,596.134 811.022,593.464 812.355,590.272 C813.689,587.079 815.527,584.67 817.871,583.045 C822.892,579.66 829.178,577.967 836.73,577.967"/>
<path class="Note" d="M504.499,627.373 C506.384,627.373 510.34,625.42 516.366,621.514 C522.392,617.608 525.941,614.988 527.014,613.655 C528.087,612.321 528.624,611.134 528.624,610.092 C528.624,609.05 528.199,608.123 527.35,607.311 C526.501,606.498 525.525,606.092 524.421,606.092 C522.473,606.092 518.486,608.061 512.46,611.998 C506.434,615.936 502.9,618.556 501.858,619.858 C500.816,621.16 500.296,622.332 500.296,623.373 C500.296,624.415 500.704,625.342 501.522,626.155 C502.34,626.967 503.332,627.373 504.499,627.373 M523.452,602.967 C529.046,602.967 531.842,605.373 531.842,610.186 C531.842,612.53 531.16,615.248 529.796,618.342 C528.431,621.436 526.608,623.795 524.327,625.42 C519.316,628.806 513.035,630.498 505.483,630.498 C499.879,630.498 497.077,628.092 497.077,623.28 C497.077,621.134 497.743,618.464 499.077,615.272 C500.41,612.079 502.249,609.67 504.592,608.045 C509.613,604.66 515.9,602.967 523.452,602.967"/>
<path class="Note" d="M999.883,589.873 C1001.77,589.873 1005.72,587.92 1011.75,584.014 C1017.78,580.108 1021.33,577.488 1022.4,576.155 C1023.47,574.821 1024.01,573.634 1024.01,572.592 C1024.01,571.55 1023.58,570.623 1022.73,569.811 C1021.89,568.998 1020.91,568.592 1019.81,568.592 C1017.86,568.592 1013.87,570.561 1007.84,574.498 C1001.82,578.436 998.284,581.056 997.243,582.358 C996.201,583.66 995.68,584.832 995.68,585.873 C995.68,586.915 996.089,587.842 996.907,588.655 C997.724,589.467 998.717,589.873 999.883,589.873 M1018.84,565.467 C1024.43,565.467 1027.23,567.873 1027.23,572.686 C1027.23,575.03 1026.54,577.748 1025.18,580.842 C1023.82,583.936 1021.99,586.295 1019.71,587.92 C1014.7,591.306 1008.42,592.998 1000.87,592.998 C995.264,592.998 992.461,590.592 992.461,585.78 C992.461,583.634 993.128,580.964 994.461,577.772 C995.795,574.579 997.633,572.17 999.977,570.545 C1005,567.16 1011.28,565.467 1018.84,565.467"/>
<path class="Note" d="M1141.57,577.373 C1143.46,577.373 1147.41,575.42 1153.44,571.514 C1159.46,567.608 1163.01,564.988 1164.09,563.655 C1165.16,562.321 1165.7,561.134 1165.7,560.092 C1165.7,559.05 1165.27,558.123 1164.42,557.311 C1163.57,556.498 1162.6,556.092 1161.49,556.092 C1159.55,556.092 1155.56,558.061 1149.53,561.998 C1143.51,565.936 1139.97,568.556 1138.93,569.858 C1137.89,571.16 1137.37,572.332 1137.37,573.373 C1137.37,574.415 1137.78,575.342 1138.59,576.155 C1139.41,576.967 1140.4,577.373 1141.57,577.373 M1160.52,552.967 C1166.12,552.967 1168.92,555.373 1168.92,560.186 C1168.92,562.53 1168.23,565.248 1166.87,568.342 C1165.5,571.436 1163.68,573.795 1161.4,575.42 C1156.39,578.806 1150.11,580.498 1142.56,580.498 C1136.95,580.498 1134.15,578.092 1134.15,573.28 C1134.15,571.134 1134.82,568.464 1136.15,565.272 C1137.48,562.079 1139.32,559.67 1141.67,558.045 C1146.69,554.66 1152.97,552.967 1160.52,552.967"/>
<path class="Note" d="M1313.16,564.873 C1315.05,564.873 1319,562.92 1325.03,559.014 C1331.06,555.108 1334.6,552.488 1335.68,551.154 C1336.75,549.821 1337.29,548.634 1337.29,547.592 C1337.29,546.55 1336.86,545.623 1336.01,544.811 C1335.16,543.998 1334.19,543.592 1333.08,543.592 C1331.14,543.592 1327.15,545.561 1321.12,549.498 C1315.1,553.436 1311.56,556.056 1310.52,557.358 C1309.48,558.66 1308.96,559.832 1308.96,560.873 C1308.96,561.915 1309.37,562.842 1310.19,563.654 C1311,564.467 1312,564.873 1313.16,564.873 M1332.11,540.467 C1337.71,540.467 1340.51,542.873 1340.51,547.686 C1340.51,550.029 1339.82,552.748 1338.46,555.842 C1337.09,558.936 1335.27,561.295 1332.99,562.92 C1327.98,566.306 1321.7,567.998 1314.15,567.998 C1308.54,567.998 1305.74,565.592 1305.74,560.779 C1305.74,558.634 1306.41,555.964 1307.74,552.772 C1309.07,549.579 1310.91,547.17 1313.26,545.545 C1318.28,542.16 1324.56,540.467 1332.11,540.467"/>
<path class="Note" d="M1626.44,564.873 C1628.33,564.873 1632.28,562.92 1638.31,559.014 C1644.33,555.108 1647.88,552.488 1648.96,551.154 C1650.03,549.821 1650.57,548.634 1650.57,547.592 C1650.57,546.55 1650.14,545.623 1649.29,544.811 C1648.44,543.998 1647.47,543.592 1646.36,543.592 C1644.41,543.592 1640.43,545.561 1634.4,549.498 C1628.38,553.436 1624.84,556.056 1623.8,557.358 C1622.76,558.66 1622.24,559.832 1622.24,560.873 C1622.24,561.915 1622.65,562.842 1623.46,563.654 C1624.28,564.467 1625.27,564.873 1626.44,564.873 M1645.39,540.467 C1650.99,540.467 1653.78,542.873 1653.78,547.686 C1653.78,550.029 1653.1,552.748 1651.74,555.842 C1650.37,558.936 1648.55,561.295 1646.27,562.92 C1641.26,566.306 1634.98,567.998 1627.42,567.998 C1621.82,567.998 1619.02,565.592 1619.02,560.779 C1619.02,558.634 1619.69,555.964 1621.02,552.772 C1622.35,549.579 1624.19,547.17 1626.53,545.545 C1631.55,542.16 1637.84,540.467 1645.39,540.467"/>
<path class="Clef" d="M203.623,673.858 L203.623,671.717 C203.56,670.613 203.399,668.889 203.139,666.545 C199.889,667.066 196.993,667.326 194.451,667.326 C185.337,667.326 177.605,663.727 171.256,656.53 C164.907,649.332 161.732,640.754 161.732,630.795 C161.732,628.129 162.253,624.923 163.295,621.178 C164.337,617.433 165.297,614.925 166.178,613.655 C167.058,612.384 168.378,610.155 170.139,606.967 C170.659,605.988 172.352,603.837 175.217,600.514 C175.738,599.806 176.193,599.222 176.584,598.764 C176.975,598.306 177.607,597.49 178.482,596.319 C179.357,595.147 180.3,594.056 181.31,593.045 C182.321,592.035 183.217,591.058 183.998,590.115 C184.779,589.173 185.498,588.379 186.154,587.733 C183.81,579.983 182.378,574.024 181.857,569.858 C181.337,565.691 181.076,560.579 181.076,554.522 C181.076,548.464 182.378,542.962 184.982,538.014 C187.514,532.879 191.06,528.681 195.623,525.42 C195.883,525.222 196.225,525.123 196.646,525.123 C197.068,525.123 197.378,525.222 197.576,525.42 C201.087,529.649 204.128,535.149 206.701,541.92 C209.274,548.691 210.56,555.024 210.56,560.92 C210.56,566.816 209.066,572.498 206.076,577.967 C202.691,583.759 198.326,589.748 192.982,595.936 C194.347,600.227 196.17,606.962 198.451,616.139 L199.045,616.139 C199.305,616.076 199.529,616.045 199.717,616.045 C207.081,616.045 213.089,618.634 217.74,623.811 C222.391,628.988 224.717,634.962 224.717,641.733 C224.717,650.129 221.238,656.899 214.279,662.045 C212.258,663.545 209.878,664.717 207.139,665.561 C207.472,669.79 207.639,672.605 207.639,674.006 C207.639,675.407 207.571,677.899 207.435,681.483 C207.373,687.597 205.29,692.837 201.185,697.201 C197.081,701.566 192.394,703.748 187.123,703.748 C181.852,703.748 177.36,701.876 173.646,698.131 C169.933,694.386 168.076,689.847 168.076,684.514 C168.076,681.712 169.154,679.332 171.31,677.373 C173.519,675.425 176.006,674.451 178.771,674.451 C181.537,674.451 183.8,675.462 185.56,677.483 C187.383,679.368 188.295,681.644 188.295,684.311 C188.295,686.977 187.383,689.222 185.56,691.045 C183.738,692.868 181.555,693.78 179.014,693.78 C177.972,693.78 176.967,693.587 175.998,693.201 C178.863,697.431 182.54,699.545 187.029,699.545 C191.519,699.545 195.36,697.691 198.553,693.983 C201.745,690.274 203.342,685.91 203.342,680.889 L203.623,673.858 M206.748,661.561 C210.133,660.321 212.821,658.123 214.81,654.967 C216.8,651.811 217.795,648.67 217.795,645.545 C217.795,640.92 216.199,636.785 213.006,633.139 C209.813,629.493 205.774,627.441 200.889,626.983 C203.691,640.722 205.644,652.248 206.748,661.561 M168.967,638.998 C168.967,645.446 171.537,651.079 176.678,655.897 C181.818,660.714 187.842,663.123 194.748,663.123 C197.477,663.123 200.144,662.925 202.748,662.53 C201.706,652.634 199.654,640.785 196.592,626.983 C192.758,627.379 189.782,628.699 187.662,630.944 C185.542,633.188 184.482,635.743 184.482,638.608 C184.482,643.556 187.123,647.561 192.404,650.623 C192.852,650.884 193.076,651.324 193.076,651.944 C193.076,652.563 192.865,653.1 192.443,653.553 C192.021,654.006 191.649,654.233 191.326,654.233 C191.003,654.233 190.581,654.17 190.06,654.045 C182.435,649.879 178.623,643.592 178.623,635.186 C178.623,631.217 180.024,627.41 182.826,623.764 C185.753,620.118 189.56,617.774 194.248,616.733 C192.425,609.441 190.93,603.743 189.764,599.639 C180.847,609.67 175.31,617.092 173.154,621.905 C170.363,628.155 168.967,633.852 168.967,638.998 M201.576,539.686 C196.691,542.092 192.834,545.574 190.006,550.131 C187.178,554.688 185.764,559.472 185.764,564.483 C185.764,569.493 186.935,575.972 189.279,583.92 C193.967,578.254 197.514,572.946 199.92,567.998 C202.326,563.05 203.529,558.152 203.529,553.303 C203.529,548.454 202.878,543.915 201.576,539.686"/>
<path class="TimeSig" d="M273.021,567.912 C274.516,567.912 275.949,567.686 277.318,567.233 C278.688,566.78 279.665,566.553 280.248,566.553 C280.831,566.553 281.222,566.907 281.42,567.615 C281.42,567.688 281.352,567.886 281.217,568.209 L252.811,601.225 L269.498,601.225 L269.498,588.131 C269.498,586.506 270.446,585.334 272.342,584.615 C274.29,583.897 276.503,581.001 278.982,575.928 C279.17,575.532 279.462,575.334 279.857,575.334 C280.639,575.334 281.092,575.793 281.217,576.709 L281.217,601.225 L288.357,601.225 C289.264,601.225 289.751,601.712 289.818,602.686 C289.886,603.66 289.399,604.147 288.357,604.147 L281.217,604.147 L281.217,604.928 C281.217,607.532 281.868,609.746 283.17,611.569 C284.67,613.391 286.43,614.303 288.451,614.303 C289.232,614.303 289.623,614.694 289.623,615.475 C289.623,616.256 289.087,616.647 288.014,616.647 C286.941,616.647 284.938,616.436 282.006,616.014 C279.074,615.592 276.811,615.381 275.217,615.381 C273.623,615.381 271.41,615.592 268.576,616.014 C265.743,616.436 263.613,616.647 262.186,616.647 C261.404,616.647 261.014,616.256 261.014,615.475 C261.014,614.694 261.404,614.303 262.186,614.303 C264.196,614.303 265.951,613.391 267.451,611.569 C268.816,609.683 269.498,607.47 269.498,604.928 L269.498,604.147 L252.811,604.147 C251.956,604.147 251.219,603.92 250.6,603.467 C249.98,603.014 249.67,602.592 249.67,602.201 C249.67,601.811 250.485,600.639 252.115,598.686 C253.745,596.733 256.074,592.972 259.1,587.405 C262.126,581.837 263.639,575.438 263.639,568.209 C263.639,567.168 264.097,566.647 265.014,566.647 C265.212,566.647 265.521,566.712 265.943,566.842 C266.365,566.972 267.277,567.183 268.678,567.475 C270.079,567.766 271.527,567.912 273.021,567.912"/>
<path class="TimeSig" d="M273.021,618.084 C274.516,618.084 275.949,617.858 277.318,617.405 C278.688,616.951 279.665,616.725 280.248,616.725 C280.831,616.725 281.222,617.079 281.42,617.787 C281.42,617.86 281.352,618.058 281.217,618.381 L252.811,651.397 L269.498,651.397 L269.498,638.303 C269.498,636.678 270.446,635.506 272.342,634.787 C274.29,634.069 276.503,631.173 278.982,626.1 C279.17,625.704 279.462,625.506 279.857,625.506 C280.639,625.506 281.092,625.964 281.217,626.881 L281.217,651.397 L288.357,651.397 C289.264,651.397 289.751,651.884 289.818,652.858 C289.886,653.832 289.399,654.319 288.357,654.319 L281.217,654.319 L281.217,655.1 C281.217,657.704 281.868,659.918 283.17,661.74 C284.67,663.563 286.43,664.475 288.451,664.475 C289.232,664.475 289.623,664.865 289.623,665.647 C289.623,666.428 289.087,666.819 288.014,666.819 C286.941,666.819 284.938,666.608 282.006,666.186 C279.074,665.764 276.811,665.553 275.217,665.553 C273.623,665.553 271.41,665.764 268.576,666.186 C265.743,666.608 263.613,666.819 262.186,666.819 C261.404,666.819 261.014,666.428 261.014,665.647 C261.014,664.865 261.404,664.475 262.186,664.475 C264.196,664.475 265.951,663.563 267.451,661.74 C268.816,659.855 269.498,657.642 269.498,655.1 L269.498,654.319 L252.811,654.319 C251.956,654.319 251.219,654.092 250.6,653.639 C249.98,653.186 249.67,652.764 249.67,652.373 C249.67,651.983 250.485,650.811 252.115,648.858 C253.745,646.905 256.074,643.144 259.1,637.576 C262.126,632.009 263.639,625.61 263.639,618.381 C263.639,617.339 264.097,616.819 265.014,616.819 C265.212,616.819 265.521,616.884 265.943,617.014 C266.365,617.144 267.277,617.355 268.678,617.647 C270.079,617.938 271.527,618.084 273.021,618.084"/>
<path class="Fermata" d="M2599.86,539.779 C2598.56,538.477 2597.91,536.881 2597.91,534.99 C2597.91,533.1 2598.56,531.503 2599.86,530.201 C2601.16,528.899 2602.76,528.248 2604.64,528.248 C2606.53,528.248 2608.12,528.899 2609.42,530.201 C2610.73,531.503 2611.38,533.1 2611.38,534.99 C2611.38,536.881 2610.73,538.477 2609.42,539.779 C2608.12,541.082 2606.53,541.733 2604.64,541.733 C2602.76,541.733 2601.16,541.082 2599.86,539.779 M2593.32,506.186 C2596.7,504.488 2600.4,503.639 2604.4,503.639 C2608.41,503.639 2612.28,504.485 2616.03,506.178 C2619.77,507.871 2622.75,510.019 2624.96,512.623 C2629.78,518.227 2633.13,523.795 2635.02,529.326 C2636.9,534.858 2637.85,538.503 2637.85,540.264 C2637.85,540.587 2637.65,540.946 2637.27,541.342 C2636.75,541.602 2636.32,541.733 2635.99,541.733 C2635.02,541.733 2634.37,541.144 2634.03,539.967 C2632.8,532.613 2629.42,526.363 2623.88,521.217 C2618.35,516.269 2611.93,513.795 2604.64,513.795 C2597.35,513.795 2590.94,516.269 2585.41,521.217 C2579.88,526.363 2576.49,532.613 2575.25,539.967 C2575.05,541.144 2574.37,541.733 2573.2,541.733 C2572.03,541.733 2571.44,541.048 2571.44,539.678 C2571.44,538.308 2572.16,535.54 2573.59,531.373 C2575.02,527.207 2576.6,523.709 2578.32,520.881 C2580.05,518.053 2582.08,515.287 2584.42,512.584 C2586.77,509.881 2589.73,507.748 2593.32,506.186"/>
<path class="StaffText" d="M1762.56,741.53 L1774.86,741.53 L1774.86,744.53 L1762.56,744.53 L1762.56,741.53 M1790.16,754.936 C1786.78,754.936 1784.07,753.592 1782.02,750.905 C1779.98,748.217 1778.95,744.665 1778.95,740.248 C1778.95,738.884 1779.09,737.478 1779.35,736.03 C1779.62,734.582 1780.2,732.936 1781.1,731.092 C1782,729.248 1783.17,727.592 1784.6,726.123 C1786.03,724.655 1788.04,723.347 1790.62,722.201 C1793.21,721.056 1796.18,720.332 1799.55,720.03 L1799.66,720.826 C1795.72,721.462 1792.43,723.056 1789.8,725.608 C1787.16,728.16 1785.51,731.316 1784.84,735.076 C1786.42,734.191 1787.6,733.613 1788.4,733.342 C1789.19,733.071 1790.15,732.936 1791.25,732.936 C1794.11,732.936 1796.4,733.863 1798.1,735.717 C1799.8,737.571 1800.66,740.076 1800.66,743.233 C1800.66,746.681 1799.68,749.493 1797.73,751.67 C1795.77,753.847 1793.25,754.936 1790.16,754.936 M1789.34,735.139 C1787.08,735.139 1785.56,735.634 1784.77,736.623 C1783.99,737.613 1783.59,739.087 1783.59,741.045 C1783.59,744.889 1784.23,747.915 1785.5,750.123 C1786.77,752.332 1788.5,753.436 1790.7,753.436 C1792.46,753.436 1793.81,752.699 1794.75,751.225 C1795.69,749.751 1796.16,747.655 1796.16,744.936 C1796.16,741.811 1795.56,739.397 1794.37,737.694 C1793.19,735.991 1791.51,735.139 1789.34,735.139"/>
<path class="StaffText" d="M358.338,750.326 C359.109,750.326 360.252,750.777 361.768,751.678 C363.283,752.579 364.609,753.03 365.744,753.03 C367.578,753.03 369.127,752.319 370.393,750.897 C371.658,749.475 372.291,747.717 372.291,745.623 C372.291,744.332 372.067,743.191 371.619,742.201 C371.171,741.212 370.596,740.444 369.893,739.897 C369.19,739.35 368.356,738.902 367.393,738.553 C366.429,738.204 365.52,737.98 364.666,737.881 C363.812,737.782 362.906,737.733 361.947,737.733 L361.947,737.076 C363.072,736.681 364.044,736.29 364.861,735.905 C365.679,735.519 366.538,735.004 367.44,734.358 C368.341,733.712 369.033,732.92 369.518,731.983 C370.002,731.045 370.244,729.978 370.244,728.78 C370.244,727.217 369.736,725.936 368.721,724.936 C367.705,723.936 366.38,723.436 364.744,723.436 C363.171,723.436 361.794,723.86 360.611,724.709 C359.429,725.558 358.322,726.899 357.291,728.733 L356.541,728.53 C357.406,726.165 358.58,724.225 360.065,722.709 C361.549,721.194 363.656,720.436 366.385,720.436 C368.687,720.436 370.565,721.069 372.018,722.334 C373.471,723.6 374.197,725.248 374.197,727.28 C374.197,728.644 373.846,729.845 373.143,730.881 C372.44,731.918 371.223,733.019 369.494,734.186 C371.494,735.05 373.059,736.155 374.19,737.498 C375.32,738.842 375.885,740.759 375.885,743.248 C375.885,746.79 374.578,749.623 371.963,751.748 C369.348,753.873 366.057,754.936 362.088,754.936 C360.359,754.936 358.986,754.678 357.971,754.162 C356.955,753.647 356.447,752.951 356.447,752.076 C356.447,751.545 356.622,751.121 356.971,750.803 C357.32,750.485 357.775,750.326 358.338,750.326 M389.979,739.092 C389.979,738.759 390.203,737.868 390.65,736.42 C391.098,734.972 391.322,733.295 391.322,731.389 C390.02,732.191 388.953,733.063 388.119,734.006 C387.286,734.949 386.661,735.631 386.244,736.053 C385.828,736.475 385.255,736.686 384.525,736.686 C383.328,736.686 382.729,736.092 382.729,734.905 C382.729,734.332 382.945,733.902 383.377,733.616 C383.809,733.329 384.343,733.126 384.979,733.006 C385.614,732.886 386.505,732.621 387.65,732.209 C388.796,731.798 389.906,731.274 390.979,730.639 C389.677,729.983 388.268,729.472 386.752,729.108 C385.236,728.743 384.187,728.412 383.604,728.116 C383.02,727.819 382.729,727.269 382.729,726.467 C382.729,725.967 382.895,725.545 383.229,725.201 C383.562,724.858 383.963,724.686 384.432,724.686 C384.963,724.686 385.437,724.834 385.854,725.131 C386.27,725.428 386.627,725.793 386.924,726.225 C387.221,726.657 387.762,727.22 388.549,727.912 C389.335,728.605 390.26,729.269 391.322,729.905 C391.322,727.998 391.114,726.313 390.697,724.85 C390.281,723.386 390.072,722.488 390.072,722.155 C390.072,721.655 390.239,721.238 390.572,720.905 C390.906,720.571 391.322,720.405 391.822,720.405 C392.322,720.405 392.747,720.579 393.096,720.928 C393.445,721.277 393.619,721.717 393.619,722.248 C393.619,722.686 393.395,723.595 392.947,724.975 C392.499,726.355 392.275,728.03 392.275,729.998 C393.442,729.269 394.468,728.433 395.354,727.491 C396.239,726.548 396.921,725.826 397.4,725.326 C397.88,724.826 398.421,724.576 399.025,724.576 C399.557,724.576 399.989,724.759 400.322,725.123 C400.656,725.488 400.822,725.951 400.822,726.514 C400.822,727.212 400.489,727.709 399.822,728.006 C399.156,728.303 398.091,728.66 396.627,729.076 C395.163,729.493 393.848,730.035 392.682,730.701 C393.682,731.326 394.747,731.829 395.877,732.209 C397.007,732.59 397.898,732.829 398.549,732.928 C399.2,733.027 399.749,733.23 400.197,733.537 C400.645,733.845 400.869,734.285 400.869,734.858 C400.869,735.431 400.713,735.886 400.4,736.225 C400.088,736.563 399.661,736.733 399.119,736.733 C398.421,736.733 397.841,736.522 397.377,736.1 C396.913,735.678 396.239,734.988 395.354,734.03 C394.468,733.071 393.442,732.191 392.275,731.389 C392.275,733.295 392.51,734.988 392.979,736.467 C393.447,737.946 393.682,738.769 393.682,738.936 C393.682,739.478 393.489,739.946 393.104,740.342 C392.718,740.738 392.26,740.936 391.729,740.936 C391.26,740.936 390.851,740.754 390.502,740.389 C390.153,740.024 389.979,739.592 389.979,739.092"/>
<path class="StaffText" d="M2399.63,741.53 L2411.93,741.53 L2411.93,744.53 L2399.63,744.53 L2399.63,741.53 M2418.37,750.326 C2419.14,750.326 2420.28,750.777 2421.8,751.678 C2423.31,752.579 2424.64,753.03 2425.78,753.03 C2427.61,753.03 2429.16,752.319 2430.42,750.897 C2431.69,749.475 2432.32,747.717 2432.32,745.623 C2432.32,744.332 2432.1,743.191 2431.65,742.201 C2431.2,741.212 2430.63,740.444 2429.92,739.897 C2429.22,739.35 2428.39,738.902 2427.42,738.553 C2426.46,738.204 2425.55,737.98 2424.7,737.881 C2423.84,737.782 2422.94,737.733 2421.98,737.733 L2421.98,737.076 C2423.1,736.681 2424.07,736.29 2424.89,735.905 C2425.71,735.519 2426.57,735.004 2427.47,734.358 C2428.37,733.712 2429.06,732.92 2429.55,731.983 C2430.03,731.045 2430.28,729.978 2430.28,728.78 C2430.28,727.217 2429.77,725.936 2428.75,724.936 C2427.74,723.936 2426.41,723.436 2424.78,723.436 C2423.2,723.436 2421.82,723.86 2420.64,724.709 C2419.46,725.558 2418.35,726.899 2417.32,728.733 L2416.57,728.53 C2417.44,726.165 2418.61,724.225 2420.1,722.709 C2421.58,721.194 2423.69,720.436 2426.42,720.436 C2428.72,720.436 2430.6,721.069 2432.05,722.334 C2433.5,723.6 2434.23,725.248 2434.23,727.28 C2434.23,728.644 2433.88,729.845 2433.17,730.881 C2432.47,731.918 2431.25,733.019 2429.53,734.186 C2431.53,735.05 2433.09,736.155 2434.22,737.498 C2435.35,738.842 2435.92,740.759 2435.92,743.248 C2435.92,746.79 2434.61,749.623 2431.99,751.748 C2429.38,753.873 2426.09,754.936 2422.12,754.936 C2420.39,754.936 2419.02,754.678 2418,754.162 C2416.99,753.647 2416.48,752.951 2416.48,752.076 C2416.48,751.545 2416.65,751.121 2417,750.803 C2417.35,750.485 2417.81,750.326 2418.37,750.326 M2450.01,739.092 C2450.01,738.759 2450.23,737.868 2450.68,736.42 C2451.13,734.972 2451.35,733.295 2451.35,731.389 C2450.05,732.191 2448.98,733.063 2448.15,734.006 C2447.32,734.949 2446.69,735.631 2446.28,736.053 C2445.86,736.475 2445.29,736.686 2444.56,736.686 C2443.36,736.686 2442.76,736.092 2442.76,734.905 C2442.76,734.332 2442.98,733.902 2443.41,733.616 C2443.84,733.329 2444.37,733.126 2445.01,733.006 C2445.65,732.886 2446.54,732.621 2447.68,732.209 C2448.83,731.798 2449.94,731.274 2451.01,730.639 C2449.71,729.983 2448.3,729.472 2446.78,729.108 C2445.27,728.743 2444.22,728.412 2443.63,728.116 C2443.05,727.819 2442.76,727.269 2442.76,726.467 C2442.76,725.967 2442.93,725.545 2443.26,725.201 C2443.59,724.858 2443.99,724.686 2444.46,724.686 C2444.99,724.686 2445.47,724.834 2445.88,725.131 C2446.3,725.428 2446.66,725.793 2446.96,726.225 C2447.25,726.657 2447.79,727.22 2448.58,727.912 C2449.37,728.605 2450.29,729.269 2451.35,729.905 C2451.35,727.998 2451.15,726.313 2450.73,724.85 C2450.31,723.386 2450.1,722.488 2450.1,722.155 C2450.1,721.655 2450.27,721.238 2450.6,720.905 C2450.94,720.571 2451.35,720.405 2451.85,720.405 C2452.35,720.405 2452.78,720.579 2453.13,720.928 C2453.48,721.277 2453.65,721.717 2453.65,722.248 C2453.65,722.686 2453.43,723.595 2452.98,724.975 C2452.53,726.355 2452.31,728.03 2452.31,729.998 C2453.47,729.269 2454.5,728.433 2455.38,727.491 C2456.27,726.548 2456.95,725.826 2457.43,725.326 C2457.91,724.826 2458.45,724.576 2459.06,724.576 C2459.59,724.576 2460.02,724.759 2460.35,725.123 C2460.69,725.488 2460.85,725.951 2460.85,726.514 C2460.85,727.212 2460.52,727.709 2459.85,728.006 C2459.19,728.303 2458.12,728.66 2456.66,729.076 C2455.19,729.493 2453.88,730.035 2452.71,730.701 C2453.71,731.326 2454.78,731.829 2455.91,732.209 C2457.04,732.59 2457.93,732.829 2458.58,732.928 C2459.23,733.027 2459.78,733.23 2460.23,733.537 C2460.68,733.845 2460.9,734.285 2460.9,734.858 C2460.9,735.431 2460.74,735.886 2460.43,736.225 C2460.12,736.563 2459.69,736.733 2459.15,736.733 C2458.45,736.733 2457.87,736.522 2457.41,736.1 C2456.94,735.678 2456.27,734.988 2455.38,734.03 C2454.5,733.071 2453.47,732.191 2452.31,731.389 C2452.31,733.295 2452.54,734.988 2453.01,736.467 C2453.48,737.946 2453.71,738.769 2453.71,738.936 C2453.71,739.478 2453.52,739.946 2453.13,740.342 C2452.75,740.738 2452.29,740.936 2451.76,740.936 C2451.29,740.936 2450.88,740.754 2450.53,740.389 C2450.18,740.024 2450.01,739.592 2450.01,739.092"/>
<path class="StaffText" d="M2590.23,750.326 C2591,750.326 2592.15,750.777 2593.66,751.678 C2595.18,752.579 2596.5,753.03 2597.64,753.03 C2599.47,753.03 2601.02,752.319 2602.29,750.897 C2603.55,749.475 2604.19,747.717 2604.19,745.623 C2604.19,744.332 2603.96,743.191 2603.51,742.201 C2603.07,741.212 2602.49,740.444 2601.79,739.897 C2601.08,739.35 2600.25,738.902 2599.29,738.553 C2598.32,738.204 2597.42,737.98 2596.56,737.881 C2595.71,737.782 2594.8,737.733 2593.84,737.733 L2593.84,737.076 C2594.97,736.681 2595.94,736.29 2596.76,735.905 C2597.57,735.519 2598.43,735.004 2599.33,734.358 C2600.24,733.712 2600.93,732.92 2601.41,731.983 C2601.9,731.045 2602.14,729.978 2602.14,728.78 C2602.14,727.217 2601.63,725.936 2600.62,724.936 C2599.6,723.936 2598.27,723.436 2596.64,723.436 C2595.07,723.436 2593.69,723.86 2592.51,724.709 C2591.32,725.558 2590.22,726.899 2589.19,728.733 L2588.44,728.53 C2589.3,726.165 2590.48,724.225 2591.96,722.709 C2593.44,721.194 2595.55,720.436 2598.28,720.436 C2600.58,720.436 2602.46,721.069 2603.91,722.334 C2605.37,723.6 2606.09,725.248 2606.09,727.28 C2606.09,728.644 2605.74,729.845 2605.04,730.881 C2604.33,731.918 2603.12,733.019 2601.39,734.186 C2603.39,735.05 2604.95,736.155 2606.08,737.498 C2607.21,738.842 2607.78,740.759 2607.78,743.248 C2607.78,746.79 2606.47,749.623 2603.86,751.748 C2601.24,753.873 2597.95,754.936 2593.98,754.936 C2592.25,754.936 2590.88,754.678 2589.87,754.162 C2588.85,753.647 2588.34,752.951 2588.34,752.076 C2588.34,751.545 2588.52,751.121 2588.87,750.803 C2589.21,750.485 2589.67,750.326 2590.23,750.326 M2621.87,739.092 C2621.87,738.759 2622.1,737.868 2622.55,736.42 C2622.99,734.972 2623.22,733.295 2623.22,731.389 C2621.92,732.191 2620.85,733.063 2620.01,734.006 C2619.18,734.949 2618.56,735.631 2618.14,736.053 C2617.72,736.475 2617.15,736.686 2616.42,736.686 C2615.22,736.686 2614.62,736.092 2614.62,734.905 C2614.62,734.332 2614.84,733.902 2615.27,733.616 C2615.7,733.329 2616.24,733.126 2616.87,733.006 C2617.51,732.886 2618.4,732.621 2619.55,732.209 C2620.69,731.798 2621.8,731.274 2622.87,730.639 C2621.57,729.983 2620.16,729.472 2618.65,729.108 C2617.13,728.743 2616.08,728.412 2615.5,728.116 C2614.92,727.819 2614.62,727.269 2614.62,726.467 C2614.62,725.967 2614.79,725.545 2615.12,725.201 C2615.46,724.858 2615.86,724.686 2616.33,724.686 C2616.86,724.686 2617.33,724.834 2617.75,725.131 C2618.17,725.428 2618.52,725.793 2618.82,726.225 C2619.12,726.657 2619.66,727.22 2620.44,727.912 C2621.23,728.605 2622.15,729.269 2623.22,729.905 C2623.22,727.998 2623.01,726.313 2622.59,724.85 C2622.18,723.386 2621.97,722.488 2621.97,722.155 C2621.97,721.655 2622.13,721.238 2622.47,720.905 C2622.8,720.571 2623.22,720.405 2623.72,720.405 C2624.22,720.405 2624.64,720.579 2624.99,720.928 C2625.34,721.277 2625.51,721.717 2625.51,722.248 C2625.51,722.686 2625.29,723.595 2624.84,724.975 C2624.39,726.355 2624.17,728.03 2624.17,729.998 C2625.34,729.269 2626.36,728.433 2627.25,727.491 C2628.13,726.548 2628.82,725.826 2629.3,725.326 C2629.77,724.826 2630.32,724.576 2630.92,724.576 C2631.45,724.576 2631.88,724.759 2632.22,725.123 C2632.55,725.488 2632.72,725.951 2632.72,726.514 C2632.72,727.212 2632.38,727.709 2631.72,728.006 C2631.05,728.303 2629.99,728.66 2628.52,729.076 C2627.06,729.493 2625.74,730.035 2624.58,730.701 C2625.58,731.326 2626.64,731.829 2627.77,732.209 C2628.9,732.59 2629.79,732.829 2630.44,732.928 C2631.1,733.027 2631.64,733.23 2632.09,733.537 C2632.54,733.845 2632.76,734.285 2632.76,734.858 C2632.76,735.431 2632.61,735.886 2632.3,736.225 C2631.98,736.563 2631.56,736.733 2631.01,736.733 C2630.32,736.733 2629.74,736.522 2629.27,736.1 C2628.81,735.678 2628.13,734.988 2627.25,734.03 C2626.36,733.071 2625.34,732.191 2624.17,731.389 C2624.17,733.295 2624.4,734.988 2624.87,736.467 C2625.34,737.946 2625.58,738.769 2625.58,738.936 C2625.58,739.478 2625.38,739.946 2625,740.342 C2624.61,740.738 2624.15,740.936 2623.62,740.936 C2623.15,740.936 2622.75,740.754 2622.4,740.389 C2622.05,740.024 2621.87,739.592 2621.87,739.092"/>
<path class="StaffText" d="M498.932,741.53 L511.229,741.53 L511.229,744.53 L498.932,744.53 L498.932,741.53 M517.667,750.326 C518.438,750.326 519.581,750.777 521.096,751.678 C522.612,752.579 523.938,753.03 525.073,753.03 C526.906,753.03 528.456,752.319 529.721,750.897 C530.987,749.475 531.62,747.717 531.62,745.623 C531.62,744.332 531.396,743.191 530.948,742.201 C530.5,741.212 529.924,740.444 529.221,739.897 C528.518,739.35 527.685,738.902 526.721,738.553 C525.758,738.204 524.849,737.98 523.995,737.881 C523.141,737.782 522.234,737.733 521.276,737.733 L521.276,737.076 C522.401,736.681 523.372,736.29 524.19,735.905 C525.008,735.519 525.867,735.004 526.768,734.358 C527.669,733.712 528.362,732.92 528.846,731.983 C529.331,731.045 529.573,729.978 529.573,728.78 C529.573,727.217 529.065,725.936 528.049,724.936 C527.034,723.936 525.708,723.436 524.073,723.436 C522.5,723.436 521.122,723.86 519.94,724.709 C518.758,725.558 517.651,726.899 516.62,728.733 L515.87,728.53 C516.734,726.165 517.909,724.225 519.393,722.709 C520.878,721.194 522.984,720.436 525.714,720.436 C528.016,720.436 529.893,721.069 531.346,722.334 C532.799,723.6 533.526,725.248 533.526,727.28 C533.526,728.644 533.174,729.845 532.471,730.881 C531.768,731.918 530.552,733.019 528.823,734.186 C530.823,735.05 532.388,736.155 533.518,737.498 C534.648,738.842 535.214,740.759 535.214,743.248 C535.214,746.79 533.906,749.623 531.292,751.748 C528.677,753.873 525.385,754.936 521.417,754.936 C519.688,754.936 518.315,754.678 517.299,754.162 C516.284,753.647 515.776,752.951 515.776,752.076 C515.776,751.545 515.951,751.121 516.299,750.803 C516.648,750.485 517.104,750.326 517.667,750.326 M549.307,739.092 C549.307,738.759 549.531,737.868 549.979,736.42 C550.427,734.972 550.651,733.295 550.651,731.389 C549.349,732.191 548.281,733.063 547.448,734.006 C546.615,734.949 545.99,735.631 545.573,736.053 C545.156,736.475 544.583,736.686 543.854,736.686 C542.656,736.686 542.057,736.092 542.057,734.905 C542.057,734.332 542.273,733.902 542.706,733.616 C543.138,733.329 543.672,733.126 544.307,733.006 C544.943,732.886 545.833,732.621 546.979,732.209 C548.125,731.798 549.234,731.274 550.307,730.639 C549.005,729.983 547.596,729.472 546.081,729.108 C544.565,728.743 543.516,728.412 542.932,728.116 C542.349,727.819 542.057,727.269 542.057,726.467 C542.057,725.967 542.224,725.545 542.557,725.201 C542.891,724.858 543.292,724.686 543.76,724.686 C544.292,724.686 544.766,724.834 545.182,725.131 C545.599,725.428 545.956,725.793 546.253,726.225 C546.549,726.657 547.091,727.22 547.878,727.912 C548.664,728.605 549.589,729.269 550.651,729.905 C550.651,727.998 550.443,726.313 550.026,724.85 C549.609,723.386 549.401,722.488 549.401,722.155 C549.401,721.655 549.568,721.238 549.901,720.905 C550.234,720.571 550.651,720.405 551.151,720.405 C551.651,720.405 552.076,720.579 552.424,720.928 C552.773,721.277 552.948,721.717 552.948,722.248 C552.948,722.686 552.724,723.595 552.276,724.975 C551.828,726.355 551.604,728.03 551.604,729.998 C552.771,729.269 553.797,728.433 554.682,727.491 C555.568,726.548 556.25,725.826 556.729,725.326 C557.208,724.826 557.75,724.576 558.354,724.576 C558.885,724.576 559.318,724.759 559.651,725.123 C559.984,725.488 560.151,725.951 560.151,726.514 C560.151,727.212 559.818,727.709 559.151,728.006 C558.484,728.303 557.419,728.66 555.956,729.076 C554.492,729.493 553.177,730.035 552.01,730.701 C553.01,731.326 554.076,731.829 555.206,732.209 C556.336,732.59 557.227,732.829 557.878,732.928 C558.529,733.027 559.078,733.23 559.526,733.537 C559.974,733.845 560.198,734.285 560.198,734.858 C560.198,735.431 560.042,735.886 559.729,736.225 C559.417,736.563 558.99,736.733 558.448,736.733 C557.75,736.733 557.169,736.522 556.706,736.1 C556.242,735.678 555.568,734.988 554.682,734.03 C553.797,733.071 552.771,732.191 551.604,731.389 C551.604,733.295 551.839,734.988 552.307,736.467 C552.776,737.946 553.01,738.769 553.01,738.936 C553.01,739.478 552.818,739.946 552.432,740.342 C552.047,740.738 551.589,740.936 551.057,740.936 C550.589,740.936 550.18,740.754 549.831,740.389 C549.482,740.024 549.307,739.592 549.307,739.092"/>
<path class="StaffText" d="M2273.84,744.405 C2273.84,742.623 2273.45,741.043 2272.67,739.662 C2271.88,738.282 2270.94,737.215 2269.82,736.459 C2268.71,735.704 2267.46,735.082 2266.07,734.592 C2264.69,734.103 2263.49,733.782 2262.47,733.631 C2261.45,733.48 2260.56,733.405 2259.79,733.405 C2259.39,733.405 2259.2,733.269 2259.2,732.998 C2259.2,732.905 2259.21,732.826 2259.24,732.764 L2264.7,721.123 L2275.15,721.123 C2275.68,721.123 2276.11,721.04 2276.42,720.873 C2276.74,720.707 2277.08,720.358 2277.45,719.826 L2277.9,720.186 L2275.99,724.358 C2275.86,724.639 2275.47,724.78 2274.84,724.78 L2265.04,724.78 L2262.95,729.076 C2267.81,729.941 2271.43,731.358 2273.79,733.326 C2276.16,735.295 2277.34,738.181 2277.34,741.983 C2277.34,743.972 2277.03,745.743 2276.42,747.295 C2275.8,748.847 2275.02,750.095 2274.07,751.037 C2273.12,751.98 2272.02,752.756 2270.77,753.366 C2269.52,753.975 2268.32,754.389 2267.17,754.608 C2266.02,754.826 2264.86,754.936 2263.7,754.936 C2261.83,754.936 2260.35,754.66 2259.24,754.108 C2258.14,753.556 2257.59,752.795 2257.59,751.826 C2257.59,750.597 2258.31,749.983 2259.74,749.983 C2260.68,749.983 2261.89,750.491 2263.37,751.506 C2264.85,752.522 2266.02,753.03 2266.9,753.03 C2268.86,753.03 2270.5,752.199 2271.84,750.537 C2273.17,748.876 2273.84,746.832 2273.84,744.405"/>
<path class="StaffText" d="M686.413,744.405 C686.413,742.623 686.023,741.043 685.242,739.662 C684.46,738.282 683.512,737.215 682.398,736.459 C681.283,735.704 680.033,735.082 678.648,734.592 C677.262,734.103 676.062,733.782 675.046,733.631 C674.031,733.48 673.137,733.405 672.367,733.405 C671.971,733.405 671.773,733.269 671.773,732.998 C671.773,732.905 671.788,732.826 671.82,732.764 L677.273,721.123 L687.726,721.123 C688.257,721.123 688.682,721.04 688.999,720.873 C689.317,720.707 689.658,720.358 690.023,719.826 L690.476,720.186 L688.57,724.358 C688.434,724.639 688.049,724.78 687.413,724.78 L677.617,724.78 L675.523,729.076 C680.387,729.941 684.002,731.358 686.367,733.326 C688.731,735.295 689.913,738.181 689.913,741.983 C689.913,743.972 689.606,745.743 688.992,747.295 C688.377,748.847 687.596,750.095 686.648,751.037 C685.7,751.98 684.601,752.756 683.351,753.366 C682.101,753.975 680.9,754.389 679.749,754.608 C678.598,754.826 677.439,754.936 676.273,754.936 C674.408,754.936 672.924,754.66 671.82,754.108 C670.715,753.556 670.163,752.795 670.163,751.826 C670.163,750.597 670.882,749.983 672.32,749.983 C673.257,749.983 674.465,750.491 675.945,751.506 C677.424,752.522 678.601,753.03 679.476,753.03 C681.434,753.03 683.08,752.199 684.413,750.537 C685.747,748.876 686.413,746.832 686.413,744.405"/>
<path class="StaffText" d="M828.101,744.405 C828.101,742.623 827.711,741.043 826.93,739.662 C826.148,738.282 825.2,737.215 824.086,736.459 C822.971,735.704 821.721,735.082 820.336,734.592 C818.95,734.103 817.75,733.782 816.734,733.631 C815.719,733.48 814.825,733.405 814.055,733.405 C813.659,733.405 813.461,733.269 813.461,732.998 C813.461,732.905 813.476,732.826 813.508,732.764 L818.961,721.123 L829.414,721.123 C829.945,721.123 830.37,721.04 830.687,720.873 C831.005,720.707 831.346,720.358 831.711,719.826 L832.164,720.186 L830.258,724.358 C830.122,724.639 829.737,724.78 829.101,724.78 L819.305,724.78 L817.211,729.076 C822.075,729.941 825.69,731.358 828.055,733.326 C830.419,735.295 831.601,738.181 831.601,741.983 C831.601,743.972 831.294,745.743 830.68,747.295 C830.065,748.847 829.284,750.095 828.336,751.037 C827.388,751.98 826.289,752.756 825.039,753.366 C823.789,753.975 822.588,754.389 821.437,754.608 C820.286,754.826 819.128,754.936 817.961,754.936 C816.096,754.936 814.612,754.66 813.508,754.108 C812.404,753.556 811.851,752.795 811.851,751.826 C811.851,750.597 812.57,749.983 814.008,749.983 C814.945,749.983 816.154,750.491 817.633,751.506 C819.112,752.522 820.289,753.03 821.164,753.03 C823.122,753.03 824.768,752.199 826.101,750.537 C827.435,748.876 828.101,746.832 828.101,744.405 M845.945,739.092 C845.945,738.759 846.169,737.868 846.617,736.42 C847.065,734.972 847.289,733.295 847.289,731.389 C845.987,732.191 844.919,733.063 844.086,734.006 C843.253,734.949 842.628,735.631 842.211,736.053 C841.794,736.475 841.221,736.686 840.492,736.686 C839.294,736.686 838.695,736.092 838.695,734.905 C838.695,734.332 838.911,733.902 839.344,733.616 C839.776,733.329 840.31,733.126 840.945,733.006 C841.581,732.886 842.471,732.621 843.617,732.209 C844.763,731.798 845.872,731.274 846.945,730.639 C845.643,729.983 844.234,729.472 842.719,729.108 C841.203,728.743 840.154,728.412 839.57,728.116 C838.987,727.819 838.695,727.269 838.695,726.467 C838.695,725.967 838.862,725.545 839.195,725.201 C839.529,724.858 839.93,724.686 840.398,724.686 C840.93,724.686 841.404,724.834 841.82,725.131 C842.237,725.428 842.594,725.793 842.891,726.225 C843.187,726.657 843.729,727.22 844.516,727.912 C845.302,728.605 846.226,729.269 847.289,729.905 C847.289,727.998 847.081,726.313 846.664,724.85 C846.247,723.386 846.039,722.488 846.039,722.155 C846.039,721.655 846.206,721.238 846.539,720.905 C846.872,720.571 847.289,720.405 847.789,720.405 C848.289,720.405 848.713,720.579 849.062,720.928 C849.411,721.277 849.586,721.717 849.586,722.248 C849.586,722.686 849.362,723.595 848.914,724.975 C848.466,726.355 848.242,728.03 848.242,729.998 C849.409,729.269 850.435,728.433 851.32,727.491 C852.206,726.548 852.888,725.826 853.367,725.326 C853.846,724.826 854.388,724.576 854.992,724.576 C855.523,724.576 855.956,724.759 856.289,725.123 C856.622,725.488 856.789,725.951 856.789,726.514 C856.789,727.212 856.456,727.709 855.789,728.006 C855.122,728.303 854.057,728.66 852.594,729.076 C851.13,729.493 849.815,730.035 848.648,730.701 C849.648,731.326 850.713,731.829 851.844,732.209 C852.974,732.59 853.864,732.829 854.516,732.928 C855.167,733.027 855.716,733.23 856.164,733.537 C856.612,733.845 856.836,734.285 856.836,734.858 C856.836,735.431 856.68,735.886 856.367,736.225 C856.055,736.563 855.628,736.733 855.086,736.733 C854.388,736.733 853.807,736.522 853.344,736.1 C852.88,735.678 852.206,734.988 851.32,734.03 C850.435,733.071 849.409,732.191 848.242,731.389 C848.242,733.295 848.476,734.988 848.945,736.467 C849.414,737.946 849.648,738.769 849.648,738.936 C849.648,739.478 849.456,739.946 849.07,740.342 C848.685,740.738 848.226,740.936 847.695,740.936 C847.226,740.936 846.818,740.754 846.469,740.389 C846.12,740.024 845.945,739.592 845.945,739.092"/>
<path class="StaffText" d="M2102.25,744.405 C2102.25,742.623 2101.86,741.043 2101.08,739.662 C2100.29,738.282 2099.35,737.215 2098.23,736.459 C2097.12,735.704 2095.87,735.082 2094.48,734.592 C2093.1,734.103 2091.9,733.782 2090.88,733.631 C2089.86,733.48 2088.97,733.405 2088.2,733.405 C2087.8,733.405 2087.61,733.269 2087.61,732.998 C2087.61,732.905 2087.62,732.826 2087.65,732.764 L2093.11,721.123 L2103.56,721.123 C2104.09,721.123 2104.52,721.04 2104.83,720.873 C2105.15,720.707 2105.49,720.358 2105.86,719.826 L2106.31,720.186 L2104.4,724.358 C2104.27,724.639 2103.88,724.78 2103.25,724.78 L2093.45,724.78 L2091.36,729.076 C2096.22,729.941 2099.84,731.358 2102.2,733.326 C2104.56,735.295 2105.75,738.181 2105.75,741.983 C2105.75,743.972 2105.44,745.743 2104.83,747.295 C2104.21,748.847 2103.43,750.095 2102.48,751.037 C2101.53,751.98 2100.43,752.756 2099.18,753.366 C2097.93,753.975 2096.73,754.389 2095.58,754.608 C2094.43,754.826 2093.27,754.936 2092.11,754.936 C2090.24,754.936 2088.76,754.66 2087.65,754.108 C2086.55,753.556 2086,752.795 2086,751.826 C2086,750.597 2086.72,749.983 2088.15,749.983 C2089.09,749.983 2090.3,750.491 2091.78,751.506 C2093.26,752.522 2094.43,753.03 2095.31,753.03 C2097.27,753.03 2098.91,752.199 2100.25,750.537 C2101.58,748.876 2102.25,746.832 2102.25,744.405 M2120.09,739.092 C2120.09,738.759 2120.31,737.868 2120.76,736.42 C2121.21,734.972 2121.43,733.295 2121.43,731.389 C2120.13,732.191 2119.06,733.063 2118.23,734.006 C2117.4,734.949 2116.77,735.631 2116.36,736.053 C2115.94,736.475 2115.37,736.686 2114.64,736.686 C2113.44,736.686 2112.84,736.092 2112.84,734.905 C2112.84,734.332 2113.06,733.902 2113.49,733.616 C2113.92,733.329 2114.46,733.126 2115.09,733.006 C2115.73,732.886 2116.62,732.621 2117.76,732.209 C2118.91,731.798 2120.02,731.274 2121.09,730.639 C2119.79,729.983 2118.38,729.472 2116.86,729.108 C2115.35,728.743 2114.3,728.412 2113.72,728.116 C2113.13,727.819 2112.84,727.269 2112.84,726.467 C2112.84,725.967 2113.01,725.545 2113.34,725.201 C2113.67,724.858 2114.08,724.686 2114.54,724.686 C2115.08,724.686 2115.55,724.834 2115.97,725.131 C2116.38,725.428 2116.74,725.793 2117.04,726.225 C2117.33,726.657 2117.87,727.22 2118.66,727.912 C2119.45,728.605 2120.37,729.269 2121.43,729.905 C2121.43,727.998 2121.23,726.313 2120.81,724.85 C2120.39,723.386 2120.18,722.488 2120.18,722.155 C2120.18,721.655 2120.35,721.238 2120.68,720.905 C2121.02,720.571 2121.43,720.405 2121.93,720.405 C2122.43,720.405 2122.86,720.579 2123.21,720.928 C2123.56,721.277 2123.73,721.717 2123.73,722.248 C2123.73,722.686 2123.51,723.595 2123.06,724.975 C2122.61,726.355 2122.39,728.03 2122.39,729.998 C2123.55,729.269 2124.58,728.433 2125.47,727.491 C2126.35,726.548 2127.03,725.826 2127.51,725.326 C2127.99,724.826 2128.53,724.576 2129.14,724.576 C2129.67,724.576 2130.1,724.759 2130.43,725.123 C2130.77,725.488 2130.93,725.951 2130.93,726.514 C2130.93,727.212 2130.6,727.709 2129.93,728.006 C2129.27,728.303 2128.2,728.66 2126.74,729.076 C2125.28,729.493 2123.96,730.035 2122.79,730.701 C2123.79,731.326 2124.86,731.829 2125.99,732.209 C2127.12,732.59 2128.01,732.829 2128.66,732.928 C2129.31,733.027 2129.86,733.23 2130.31,733.537 C2130.76,733.845 2130.98,734.285 2130.98,734.858 C2130.98,735.431 2130.83,735.886 2130.51,736.225 C2130.2,736.563 2129.77,736.733 2129.23,736.733 C2128.53,736.733 2127.95,736.522 2127.49,736.1 C2127.03,735.678 2126.35,734.988 2125.47,734.03 C2124.58,733.071 2123.55,732.191 2122.39,731.389 C2122.39,733.295 2122.62,734.988 2123.09,736.467 C2123.56,737.946 2123.79,738.769 2123.79,738.936 C2123.79,739.478 2123.6,739.946 2123.22,740.342 C2122.83,740.738 2122.37,740.936 2121.84,740.936 C2121.37,740.936 2120.96,740.754 2120.61,740.389 C2120.27,740.024 2120.09,739.592 2120.09,739.092"/>
<path class="StaffText" d="M994.317,741.53 L1006.61,741.53 L1006.61,744.53 L994.317,744.53 L994.317,741.53 M1026.85,744.405 C1026.85,742.623 1026.46,741.043 1025.68,739.662 C1024.9,738.282 1023.95,737.215 1022.83,736.459 C1021.72,735.704 1020.47,735.082 1019.08,734.592 C1017.7,734.103 1016.5,733.782 1015.48,733.631 C1014.47,733.48 1013.57,733.405 1012.8,733.405 C1012.41,733.405 1012.21,733.269 1012.21,732.998 C1012.21,732.905 1012.22,732.826 1012.25,732.764 L1017.71,721.123 L1028.16,721.123 C1028.69,721.123 1029.12,721.04 1029.43,720.873 C1029.75,720.707 1030.09,720.358 1030.46,719.826 L1030.91,720.186 L1029,724.358 C1028.87,724.639 1028.48,724.78 1027.85,724.78 L1018.05,724.78 L1015.96,729.076 C1020.82,729.941 1024.44,731.358 1026.8,733.326 C1029.17,735.295 1030.35,738.181 1030.35,741.983 C1030.35,743.972 1030.04,745.743 1029.43,747.295 C1028.81,748.847 1028.03,750.095 1027.08,751.037 C1026.13,751.98 1025.04,752.756 1023.79,753.366 C1022.54,753.975 1021.34,754.389 1020.18,754.608 C1019.03,754.826 1017.87,754.936 1016.71,754.936 C1014.84,754.936 1013.36,754.66 1012.25,754.108 C1011.15,753.556 1010.6,752.795 1010.6,751.826 C1010.6,750.597 1011.32,749.983 1012.75,749.983 C1013.69,749.983 1014.9,750.491 1016.38,751.506 C1017.86,752.522 1019.04,753.03 1019.91,753.03 C1021.87,753.03 1023.51,752.199 1024.85,750.537 C1026.18,748.876 1026.85,746.832 1026.85,744.405 M1044.69,739.092 C1044.69,738.759 1044.92,737.868 1045.36,736.42 C1045.81,734.972 1046.04,733.295 1046.04,731.389 C1044.73,732.191 1043.67,733.063 1042.83,734.006 C1042,734.949 1041.37,735.631 1040.96,736.053 C1040.54,736.475 1039.97,736.686 1039.24,736.686 C1038.04,736.686 1037.44,736.092 1037.44,734.905 C1037.44,734.332 1037.66,733.902 1038.09,733.616 C1038.52,733.329 1039.06,733.126 1039.69,733.006 C1040.33,732.886 1041.22,732.621 1042.36,732.209 C1043.51,731.798 1044.62,731.274 1045.69,730.639 C1044.39,729.983 1042.98,729.472 1041.47,729.108 C1039.95,728.743 1038.9,728.412 1038.32,728.116 C1037.73,727.819 1037.44,727.269 1037.44,726.467 C1037.44,725.967 1037.61,725.545 1037.94,725.201 C1038.28,724.858 1038.68,724.686 1039.15,724.686 C1039.68,724.686 1040.15,724.834 1040.57,725.131 C1040.98,725.428 1041.34,725.793 1041.64,726.225 C1041.93,726.657 1042.48,727.22 1043.26,727.912 C1044.05,728.605 1044.97,729.269 1046.04,729.905 C1046.04,727.998 1045.83,726.313 1045.41,724.85 C1044.99,723.386 1044.79,722.488 1044.79,722.155 C1044.79,721.655 1044.95,721.238 1045.29,720.905 C1045.62,720.571 1046.04,720.405 1046.54,720.405 C1047.04,720.405 1047.46,720.579 1047.81,720.928 C1048.16,721.277 1048.33,721.717 1048.33,722.248 C1048.33,722.686 1048.11,723.595 1047.66,724.975 C1047.21,726.355 1046.99,728.03 1046.99,729.998 C1048.16,729.269 1049.18,728.433 1050.07,727.491 C1050.95,726.548 1051.63,725.826 1052.11,725.326 C1052.59,724.826 1053.13,724.576 1053.74,724.576 C1054.27,724.576 1054.7,724.759 1055.04,725.123 C1055.37,725.488 1055.54,725.951 1055.54,726.514 C1055.54,727.212 1055.2,727.709 1054.54,728.006 C1053.87,728.303 1052.8,728.66 1051.34,729.076 C1049.88,729.493 1048.56,730.035 1047.4,730.701 C1048.4,731.326 1049.46,731.829 1050.59,732.209 C1051.72,732.59 1052.61,732.829 1053.26,732.928 C1053.91,733.027 1054.46,733.23 1054.91,733.537 C1055.36,733.845 1055.58,734.285 1055.58,734.858 C1055.58,735.431 1055.43,735.886 1055.11,736.225 C1054.8,736.563 1054.37,736.733 1053.83,736.733 C1053.13,736.733 1052.55,736.522 1052.09,736.1 C1051.63,735.678 1050.95,734.988 1050.07,734.03 C1049.18,733.071 1048.16,732.191 1046.99,731.389 C1046.99,733.295 1047.22,734.988 1047.69,736.467 C1048.16,737.946 1048.4,738.769 1048.4,738.936 C1048.4,739.478 1048.2,739.946 1047.82,740.342 C1047.43,740.738 1046.97,740.936 1046.44,740.936 C1045.97,740.936 1045.56,740.754 1045.22,740.389 C1044.87,740.024 1044.69,739.592 1044.69,739.092"/>
<path class="StaffText" d="M1136.01,741.53 L1148.3,741.53 L1148.3,744.53 L1136.01,744.53 L1136.01,741.53 M1163.6,754.936 C1160.22,754.936 1157.51,753.592 1155.47,750.905 C1153.42,748.217 1152.4,744.665 1152.4,740.248 C1152.4,738.884 1152.53,737.478 1152.79,736.03 C1153.06,734.582 1153.64,732.936 1154.54,731.092 C1155.45,729.248 1156.61,727.592 1158.04,726.123 C1159.48,724.655 1161.48,723.347 1164.07,722.201 C1166.65,721.056 1169.62,720.332 1172.99,720.03 L1173.1,720.826 C1169.16,721.462 1165.87,723.056 1163.24,725.608 C1160.6,728.16 1158.95,731.316 1158.29,735.076 C1159.86,734.191 1161.04,733.613 1161.84,733.342 C1162.64,733.071 1163.59,732.936 1164.69,732.936 C1167.56,732.936 1169.84,733.863 1171.54,735.717 C1173.25,737.571 1174.1,740.076 1174.1,743.233 C1174.1,746.681 1173.12,749.493 1171.17,751.67 C1169.22,753.847 1166.69,754.936 1163.6,754.936 M1162.79,735.139 C1160.53,735.139 1159,735.634 1158.22,736.623 C1157.43,737.613 1157.04,739.087 1157.04,741.045 C1157.04,744.889 1157.67,747.915 1158.94,750.123 C1160.21,752.332 1161.95,753.436 1164.15,753.436 C1165.91,753.436 1167.26,752.699 1168.19,751.225 C1169.13,749.751 1169.6,747.655 1169.6,744.936 C1169.6,741.811 1169.01,739.397 1167.82,737.694 C1166.63,735.991 1164.95,735.139 1162.79,735.139"/>
<path class="StaffText" d="M1944.67,741.53 L1956.97,741.53 L1956.97,744.53 L1944.67,744.53 L1944.67,741.53 M1977.2,744.405 C1977.2,742.623 1976.81,741.043 1976.03,739.662 C1975.25,738.282 1974.3,737.215 1973.18,736.459 C1972.07,735.704 1970.82,735.082 1969.43,734.592 C1968.05,734.103 1966.85,733.782 1965.83,733.631 C1964.82,733.48 1963.92,733.405 1963.15,733.405 C1962.76,733.405 1962.56,733.269 1962.56,732.998 C1962.56,732.905 1962.57,732.826 1962.61,732.764 L1968.06,721.123 L1978.51,721.123 C1979.04,721.123 1979.47,721.04 1979.79,720.873 C1980.1,720.707 1980.44,720.358 1980.81,719.826 L1981.26,720.186 L1979.36,724.358 C1979.22,724.639 1978.83,724.78 1978.2,724.78 L1968.4,724.78 L1966.31,729.076 C1971.17,729.941 1974.79,731.358 1977.15,733.326 C1979.52,735.295 1980.7,738.181 1980.7,741.983 C1980.7,743.972 1980.39,745.743 1979.78,747.295 C1979.16,748.847 1978.38,750.095 1977.43,751.037 C1976.49,751.98 1975.39,752.756 1974.14,753.366 C1972.89,753.975 1971.69,754.389 1970.54,754.608 C1969.38,754.826 1968.23,754.936 1967.06,754.936 C1965.19,754.936 1963.71,754.66 1962.61,754.108 C1961.5,753.556 1960.95,752.795 1960.95,751.826 C1960.95,750.597 1961.67,749.983 1963.11,749.983 C1964.04,749.983 1965.25,750.491 1966.73,751.506 C1968.21,752.522 1969.39,753.03 1970.26,753.03 C1972.22,753.03 1973.87,752.199 1975.2,750.537 C1976.53,748.876 1977.2,746.832 1977.2,744.405 M1995.04,739.092 C1995.04,738.759 1995.27,737.868 1995.72,736.42 C1996.16,734.972 1996.39,733.295 1996.39,731.389 C1995.08,732.191 1994.02,733.063 1993.18,734.006 C1992.35,734.949 1991.73,735.631 1991.31,736.053 C1990.89,736.475 1990.32,736.686 1989.59,736.686 C1988.39,736.686 1987.79,736.092 1987.79,734.905 C1987.79,734.332 1988.01,733.902 1988.44,733.616 C1988.87,733.329 1989.41,733.126 1990.04,733.006 C1990.68,732.886 1991.57,732.621 1992.72,732.209 C1993.86,731.798 1994.97,731.274 1996.04,730.639 C1994.74,729.983 1993.33,729.472 1991.82,729.108 C1990.3,728.743 1989.25,728.412 1988.67,728.116 C1988.08,727.819 1987.79,727.269 1987.79,726.467 C1987.79,725.967 1987.96,725.545 1988.29,725.201 C1988.63,724.858 1989.03,724.686 1989.5,724.686 C1990.03,724.686 1990.5,724.834 1990.92,725.131 C1991.33,725.428 1991.69,725.793 1991.99,726.225 C1992.29,726.657 1992.83,727.22 1993.61,727.912 C1994.4,728.605 1995.32,729.269 1996.39,729.905 C1996.39,727.998 1996.18,726.313 1995.76,724.85 C1995.35,723.386 1995.14,722.488 1995.14,722.155 C1995.14,721.655 1995.3,721.238 1995.64,720.905 C1995.97,720.571 1996.39,720.405 1996.89,720.405 C1997.39,720.405 1997.81,720.579 1998.16,720.928 C1998.51,721.277 1998.68,721.717 1998.68,722.248 C1998.68,722.686 1998.46,723.595 1998.01,724.975 C1997.56,726.355 1997.34,728.03 1997.34,729.998 C1998.51,729.269 1999.53,728.433 2000.42,727.491 C2001.3,726.548 2001.99,725.826 2002.47,725.326 C2002.94,724.826 2003.49,724.576 2004.09,724.576 C2004.62,724.576 2005.05,724.759 2005.39,725.123 C2005.72,725.488 2005.89,725.951 2005.89,726.514 C2005.89,727.212 2005.55,727.709 2004.89,728.006 C2004.22,728.303 2003.16,728.66 2001.69,729.076 C2000.23,729.493 1998.91,730.035 1997.75,730.701 C1998.75,731.326 1999.81,731.829 2000.94,732.209 C2002.07,732.59 2002.96,732.829 2003.61,732.928 C2004.26,733.027 2004.81,733.23 2005.26,733.537 C2005.71,733.845 2005.93,734.285 2005.93,734.858 C2005.93,735.431 2005.78,735.886 2005.47,736.225 C2005.15,736.563 2004.73,736.733 2004.18,736.733 C2003.49,736.733 2002.91,736.522 2002.44,736.1 C2001.98,735.678 2001.3,734.988 2000.42,734.03 C1999.53,733.071 1998.51,732.191 1997.34,731.389 C1997.34,733.295 1997.57,734.988 1998.04,736.467 C1998.51,737.946 1998.75,738.769 1998.75,738.936 C1998.75,739.478 1998.55,739.946 1998.17,740.342 C1997.78,740.738 1997.32,740.936 1996.79,740.936 C1996.32,740.936 1995.92,740.754 1995.57,740.389 C1995.22,740.024 1995.04,739.592 1995.04,739.092"/>
<path class="StaffText" d="M1328.1,721.123 L1328.1,721.92 L1317.49,754.639 L1314.24,754.639 L1324.14,724.78 L1313.3,724.78 C1311.92,724.78 1310.88,725.03 1310.17,725.53 C1309.45,726.03 1308.56,727.134 1307.49,728.842 L1306.64,728.436 L1309.6,721.123 L1328.1,721.123 "/>
<path class="StaffText" d="M1469.78,721.123 L1469.78,721.92 L1459.17,754.639 L1455.92,754.639 L1465.83,724.78 L1454.99,724.78 C1453.61,724.78 1452.57,725.03 1451.85,725.53 C1451.14,726.03 1450.25,727.134 1449.17,728.842 L1448.33,728.436 L1451.28,721.123 L1469.78,721.123 M1483.02,739.092 C1483.02,738.759 1483.24,737.868 1483.69,736.42 C1484.14,734.972 1484.36,733.295 1484.36,731.389 C1483.06,732.191 1481.99,733.063 1481.16,734.006 C1480.33,734.949 1479.7,735.631 1479.28,736.053 C1478.87,736.475 1478.29,736.686 1477.56,736.686 C1476.37,736.686 1475.77,736.092 1475.77,734.905 C1475.77,734.332 1475.98,733.902 1476.42,733.616 C1476.85,733.329 1477.38,733.126 1478.02,733.006 C1478.65,732.886 1479.54,732.621 1480.69,732.209 C1481.84,731.798 1482.95,731.274 1484.02,730.639 C1482.72,729.983 1481.31,729.472 1479.79,729.108 C1478.28,728.743 1477.23,728.412 1476.64,728.116 C1476.06,727.819 1475.77,727.269 1475.77,726.467 C1475.77,725.967 1475.93,725.545 1476.27,725.201 C1476.6,724.858 1477,724.686 1477.47,724.686 C1478,724.686 1478.48,724.834 1478.89,725.131 C1479.31,725.428 1479.67,725.793 1479.96,726.225 C1480.26,726.657 1480.8,727.22 1481.59,727.912 C1482.37,728.605 1483.3,729.269 1484.36,729.905 C1484.36,727.998 1484.15,726.313 1483.74,724.85 C1483.32,723.386 1483.11,722.488 1483.11,722.155 C1483.11,721.655 1483.28,721.238 1483.61,720.905 C1483.95,720.571 1484.36,720.405 1484.86,720.405 C1485.36,720.405 1485.79,720.579 1486.14,720.928 C1486.48,721.277 1486.66,721.717 1486.66,722.248 C1486.66,722.686 1486.43,723.595 1485.99,724.975 C1485.54,726.355 1485.31,728.03 1485.31,729.998 C1486.48,729.269 1487.51,728.433 1488.39,727.491 C1489.28,726.548 1489.96,725.826 1490.44,725.326 C1490.92,724.826 1491.46,724.576 1492.06,724.576 C1492.6,724.576 1493.03,724.759 1493.36,725.123 C1493.7,725.488 1493.86,725.951 1493.86,726.514 C1493.86,727.212 1493.53,727.709 1492.86,728.006 C1492.2,728.303 1491.13,728.66 1489.67,729.076 C1488.2,729.493 1486.89,730.035 1485.72,730.701 C1486.72,731.326 1487.79,731.829 1488.92,732.209 C1490.05,732.59 1490.94,732.829 1491.59,732.928 C1492.24,733.027 1492.79,733.23 1493.24,733.537 C1493.68,733.845 1493.91,734.285 1493.91,734.858 C1493.91,735.431 1493.75,735.886 1493.44,736.225 C1493.13,736.563 1492.7,736.733 1492.16,736.733 C1491.46,736.733 1490.88,736.522 1490.42,736.1 C1489.95,735.678 1489.28,734.988 1488.39,734.03 C1487.51,733.071 1486.48,732.191 1485.31,731.389 C1485.31,733.295 1485.55,734.988 1486.02,736.467 C1486.49,737.946 1486.72,738.769 1486.72,738.936 C1486.72,739.478 1486.53,739.946 1486.14,740.342 C1485.76,740.738 1485.3,740.936 1484.77,740.936 C1484.3,740.936 1483.89,740.754 1483.54,740.389 C1483.19,740.024 1483.02,739.592 1483.02,739.092"/>
<path class="StaffText" d="M1641.37,721.123 L1641.37,721.92 L1630.76,754.639 L1627.51,754.639 L1637.42,724.78 L1626.58,724.78 C1625.2,724.78 1624.16,725.03 1623.44,725.53 C1622.73,726.03 1621.84,727.134 1620.76,728.842 L1619.92,728.436 L1622.87,721.123 L1641.37,721.123 "/>
</svg>
