<?xml version="1.0" encoding="UTF-8" standalone="no"?>
<svg width="2977.2px" height="4208.4px" viewBox="0 0 2977.2 4208.4"
 xmlns="http://www.w3.org/2000/svg" xmlns:xlink="http://www.w3.org/1999/xlink" version="1.2" baseProfile="tiny">
<title>E_Minor_Arpeggio_1.mscx</title>
<desc>Generated by MuseScore Studio 4.3.1</desc>
<path class="" fill="#ffffff" fill-rule="evenodd" d="M0,0 L2977.2,0 L2977.2,4208.4 L0,4208.4 L0,0 "/>
<polyline class="StaffLines" fill="none" stroke="#000000" stroke-width="2.00" stroke-linejoin="bevel" points="141.732,566.733 2835.47,566.733"/>
<polyline class="StaffLines" fill="none" stroke="#000000" stroke-width="2.00" stroke-linejoin="bevel" points="141.732,591.733 2835.47,591.733"/>
<polyline class="StaffLines" fill="none" stroke="#000000" stroke-width="2.00" stroke-linejoin="bevel" points="141.732,616.733 2835.47,616.733"/>
<polyline class="StaffLines" fill="none" stroke="#000000" stroke-width="2.00" stroke-linejoin="bevel" points="141.732,641.733 2835.47,641.733"/>
<polyline class="StaffLines" fill="none" stroke="#000000" stroke-width="2.00" stroke-linejoin="bevel" points="141.732,666.733 2835.47,666.733"/>
<polyline class="BarLine" fill="none" stroke="#000000" stroke-width="4.00" stroke-linejoin="bevel" points="1160.44,565.733 1160.44,667.733"/>
<polyline class="BarLine" fill="none" stroke="#000000" stroke-width="4.00" stroke-linejoin="bevel" points="1557.8,565.733 1557.8,667.733"/>
<polyline class="BarLine" fill="none" stroke="#000000" stroke-width="4.00" stroke-linejoin="bevel" points="2405.36,565.733 2405.36,667.733"/>
<polyline class="BarLine" fill="none" stroke="#000000" stroke-width="4.00" stroke-linejoin="bevel" points="2802.72,565.733 2802.72,667.733"/>
<polyline class="BarLine" fill="none" stroke="#000000" stroke-width="12.50" stroke-linejoin="bevel" points="2829.22,565.733 2829.22,667.733"/>
<polyline class="Stem" fill="none" stroke="#000000" stroke-width="3.25" stroke-linejoin="bevel" points="1725.23,635.863 1725.23,537.515"/>
<polyline class="Stem" fill="none" stroke="#000000" stroke-width="3.25" stroke-linejoin="bevel" points="1616.08,660.863 1616.08,547.829"/>
<polyline class="Stem" fill="none" stroke="#000000" stroke-width="3.25" stroke-linejoin="bevel" points="1834.37,610.863 1834.37,527.2"/>
<polyline class="Stem" fill="none" stroke="#000000" stroke-width="3.25" stroke-linejoin="bevel" points="1943.51,573.363 1943.51,516.886"/>
<polyline class="Stem" fill="none" stroke="#000000" stroke-width="3.25" stroke-linejoin="bevel" points="2052.65,610.863 2052.65,548.073"/>
<polyline class="Stem" fill="none" stroke="#000000" stroke-width="3.25" stroke-linejoin="bevel" points="2161.8,635.863 2161.8,554.142"/>
<polyline class="Stem" fill="none" stroke="#000000" stroke-width="3.25" stroke-linejoin="bevel" points="2270.94,660.863 2270.94,579.233"/>
<polyline class="Stem" fill="none" stroke="#000000" stroke-width="3.25" stroke-linejoin="bevel" points="1026.02,660.863 1026.02,579.233"/>
<polyline class="Stem" fill="none" stroke="#000000" stroke-width="3.25" stroke-linejoin="bevel" points="916.874,635.863 916.874,554.142"/>
<polyline class="Stem" fill="none" stroke="#000000" stroke-width="3.25" stroke-linejoin="bevel" points="807.731,610.863 807.731,548.073"/>
<polyline class="Stem" fill="none" stroke="#000000" stroke-width="3.25" stroke-linejoin="bevel" points="698.589,573.363 698.589,516.886"/>
<polyline class="Stem" fill="none" stroke="#000000" stroke-width="3.25" stroke-linejoin="bevel" points="589.447,610.863 589.447,527.2"/>
<polyline class="Stem" fill="none" stroke="#000000" stroke-width="3.25" stroke-linejoin="bevel" points="371.162,660.863 371.162,547.829"/>
<polyline class="Stem" fill="none" stroke="#000000" stroke-width="3.25" stroke-linejoin="bevel" points="480.304,635.863 480.304,537.515"/>
<path class="Note" d="M907.553,627.967 C910.678,627.967 913.283,628.748 915.366,630.311 C917.449,631.873 918.491,634.118 918.491,637.045 C918.491,641.535 916.165,645.733 911.514,649.639 C906.863,653.545 901.866,655.498 896.522,655.498 C893.397,655.498 890.762,654.686 888.616,653.061 C886.595,651.3 885.585,649.087 885.585,646.42 C885.585,642.056 887.897,637.889 892.522,633.92 C897.147,629.951 902.158,627.967 907.553,627.967"/>
<path class="Note" d="M2152.48,627.967 C2155.6,627.967 2158.21,628.748 2160.29,630.311 C2162.37,631.873 2163.41,634.118 2163.41,637.045 C2163.41,641.535 2161.09,645.733 2156.44,649.639 C2151.79,653.545 2146.79,655.498 2141.44,655.498 C2138.32,655.498 2135.68,654.686 2133.54,653.061 C2131.52,651.3 2130.51,649.087 2130.51,646.42 C2130.51,642.056 2132.82,637.889 2137.44,633.92 C2142.07,629.951 2147.08,627.967 2152.48,627.967"/>
<path class="Note" d="M2261.62,652.967 C2264.74,652.967 2267.35,653.748 2269.43,655.311 C2271.51,656.873 2272.56,659.118 2272.56,662.045 C2272.56,666.535 2270.23,670.733 2265.58,674.639 C2260.93,678.545 2255.93,680.498 2250.59,680.498 C2247.46,680.498 2244.83,679.686 2242.68,678.061 C2240.66,676.3 2239.65,674.087 2239.65,671.42 C2239.65,667.056 2241.96,662.889 2246.59,658.92 C2251.21,654.951 2256.22,652.967 2261.62,652.967"/>
<path class="Note" d="M2043.33,602.967 C2046.46,602.967 2049.06,603.748 2051.15,605.311 C2053.23,606.873 2054.27,609.118 2054.27,612.045 C2054.27,616.535 2051.95,620.733 2047.29,624.639 C2042.64,628.545 2037.65,630.498 2032.3,630.498 C2029.18,630.498 2026.54,629.686 2024.4,628.061 C2022.38,626.3 2021.36,624.087 2021.36,621.42 C2021.36,617.056 2023.68,612.889 2028.3,608.92 C2032.93,604.951 2037.94,602.967 2043.33,602.967"/>
<path class="Note" d="M1934.19,565.467 C1937.32,565.467 1939.92,566.248 1942,567.811 C1944.09,569.373 1945.13,571.618 1945.13,574.545 C1945.13,579.035 1942.8,583.233 1938.15,587.139 C1933.5,591.045 1928.5,592.998 1923.16,592.998 C1920.04,592.998 1917.4,592.186 1915.25,590.561 C1913.23,588.8 1912.22,586.587 1912.22,583.92 C1912.22,579.556 1914.54,575.389 1919.16,571.42 C1923.79,567.451 1928.8,565.467 1934.19,565.467"/>
<path class="Note" d="M1825.05,602.967 C1828.17,602.967 1830.78,603.748 1832.86,605.311 C1834.94,606.873 1835.99,609.118 1835.99,612.045 C1835.99,616.535 1833.66,620.733 1829.01,624.639 C1824.36,628.545 1819.36,630.498 1814.02,630.498 C1810.89,630.498 1808.26,629.686 1806.11,628.061 C1804.09,626.3 1803.08,624.087 1803.08,621.42 C1803.08,617.056 1805.39,612.889 1810.02,608.92 C1814.64,604.951 1819.65,602.967 1825.05,602.967"/>
<path class="Note" d="M1715.91,627.967 C1719.03,627.967 1721.64,628.748 1723.72,630.311 C1725.8,631.873 1726.84,634.118 1726.84,637.045 C1726.84,641.535 1724.52,645.733 1719.87,649.639 C1715.22,653.545 1710.22,655.498 1704.88,655.498 C1701.75,655.498 1699.12,654.686 1696.97,653.061 C1694.95,651.3 1693.94,649.087 1693.94,646.42 C1693.94,642.056 1696.25,637.889 1700.88,633.92 C1705.5,629.951 1710.51,627.967 1715.91,627.967"/>
<path class="Note" d="M361.842,652.967 C364.967,652.967 367.571,653.748 369.654,655.311 C371.738,656.873 372.779,659.118 372.779,662.045 C372.779,666.535 370.454,670.733 365.803,674.639 C361.152,678.545 356.154,680.498 350.811,680.498 C347.686,680.498 345.05,679.686 342.904,678.061 C340.884,676.3 339.873,674.087 339.873,671.42 C339.873,667.056 342.186,662.889 346.811,658.92 C351.436,654.951 356.446,652.967 361.842,652.967"/>
<path class="Note" d="M1606.76,652.967 C1609.89,652.967 1612.49,653.748 1614.58,655.311 C1616.66,656.873 1617.7,659.118 1617.7,662.045 C1617.7,666.535 1615.38,670.733 1610.73,674.639 C1606.07,678.545 1601.08,680.498 1595.73,680.498 C1592.61,680.498 1589.97,679.686 1587.83,678.061 C1585.81,676.3 1584.8,674.087 1584.8,671.42 C1584.8,667.056 1587.11,662.889 1591.73,658.92 C1596.36,654.951 1601.37,652.967 1606.76,652.967"/>
<path class="Note" d="M470.984,627.967 C474.109,627.967 476.713,628.748 478.797,630.311 C480.88,631.873 481.922,634.118 481.922,637.045 C481.922,641.535 479.596,645.733 474.945,649.639 C470.294,653.545 465.297,655.498 459.953,655.498 C456.828,655.498 454.192,654.686 452.047,653.061 C450.026,651.3 449.015,649.087 449.015,646.42 C449.015,642.056 451.328,637.889 455.953,633.92 C460.578,629.951 465.588,627.967 470.984,627.967"/>
<path class="Note" d="M580.126,602.967 C583.251,602.967 585.856,603.748 587.939,605.311 C590.022,606.873 591.064,609.118 591.064,612.045 C591.064,616.535 588.738,620.733 584.087,624.639 C579.436,628.545 574.439,630.498 569.095,630.498 C565.97,630.498 563.335,629.686 561.189,628.061 C559.168,626.3 558.158,624.087 558.158,621.42 C558.158,617.056 560.47,612.889 565.095,608.92 C569.72,604.951 574.731,602.967 580.126,602.967"/>
<path class="Note" d="M689.269,565.467 C692.394,565.467 694.998,566.248 697.081,567.811 C699.165,569.373 700.206,571.618 700.206,574.545 C700.206,579.035 697.881,583.233 693.23,587.139 C688.579,591.045 683.581,592.998 678.238,592.998 C675.113,592.998 672.477,592.186 670.331,590.561 C668.31,588.8 667.3,586.587 667.3,583.92 C667.3,579.556 669.613,575.389 674.238,571.42 C678.863,567.451 683.873,565.467 689.269,565.467"/>
<path class="Note" d="M1016.7,652.967 C1019.82,652.967 1022.42,653.748 1024.51,655.311 C1026.59,656.873 1027.63,659.118 1027.63,662.045 C1027.63,666.535 1025.31,670.733 1020.66,674.639 C1016.01,678.545 1011.01,680.498 1005.66,680.498 C1002.54,680.498 999.904,679.686 997.758,678.061 C995.737,676.3 994.727,674.087 994.727,671.42 C994.727,667.056 997.039,662.889 1001.66,658.92 C1006.29,654.951 1011.3,652.967 1016.7,652.967"/>
<path class="Note" d="M798.411,602.967 C801.536,602.967 804.14,603.748 806.224,605.311 C808.307,606.873 809.349,609.118 809.349,612.045 C809.349,616.535 807.023,620.733 802.372,624.639 C797.721,628.545 792.724,630.498 787.38,630.498 C784.255,630.498 781.619,629.686 779.474,628.061 C777.453,626.3 776.442,624.087 776.442,621.42 C776.442,617.056 778.755,612.889 783.38,608.92 C788.005,604.951 793.015,602.967 798.411,602.967"/>
<path class="Clef" d="M203.623,673.858 L203.623,671.717 C203.56,670.613 203.399,668.889 203.139,666.545 C199.889,667.066 196.993,667.326 194.451,667.326 C185.337,667.326 177.605,663.727 171.256,656.53 C164.907,649.332 161.732,640.754 161.732,630.795 C161.732,628.129 162.253,624.923 163.295,621.178 C164.337,617.433 165.297,614.925 166.178,613.655 C167.058,612.384 168.378,610.155 170.139,606.967 C170.659,605.988 172.352,603.837 175.217,600.514 C175.738,599.806 176.193,599.222 176.584,598.764 C176.975,598.306 177.607,597.49 178.482,596.319 C179.357,595.147 180.3,594.056 181.31,593.045 C182.321,592.035 183.217,591.058 183.998,590.115 C184.779,589.173 185.498,588.379 186.154,587.733 C183.81,579.983 182.378,574.024 181.857,569.858 C181.337,565.691 181.076,560.579 181.076,554.522 C181.076,548.464 182.378,542.962 184.982,538.014 C187.514,532.879 191.06,528.681 195.623,525.42 C195.883,525.222 196.225,525.123 196.646,525.123 C197.068,525.123 197.378,525.222 197.576,525.42 C201.087,529.649 204.128,535.149 206.701,541.92 C209.274,548.691 210.56,555.024 210.56,560.92 C210.56,566.816 209.066,572.498 206.076,577.967 C202.691,583.759 198.326,589.748 192.982,595.936 C194.347,600.227 196.17,606.962 198.451,616.139 L199.045,616.139 C199.305,616.076 199.529,616.045 199.717,616.045 C207.081,616.045 213.089,618.634 217.74,623.811 C222.391,628.988 224.717,634.962 224.717,641.733 C224.717,650.129 221.238,656.899 214.279,662.045 C212.258,663.545 209.878,664.717 207.139,665.561 C207.472,669.79 207.639,672.605 207.639,674.006 C207.639,675.407 207.571,677.899 207.435,681.483 C207.373,687.597 205.29,692.837 201.185,697.201 C197.081,701.566 192.394,703.748 187.123,703.748 C181.852,703.748 177.36,701.876 173.646,698.131 C169.933,694.386 168.076,689.847 168.076,684.514 C168.076,681.712 169.154,679.332 171.31,677.373 C173.519,675.425 176.006,674.451 178.771,674.451 C181.537,674.451 183.8,675.462 185.56,677.483 C187.383,679.368 188.295,681.644 188.295,684.311 C188.295,686.977 187.383,689.222 185.56,691.045 C183.738,692.868 181.555,693.78 179.014,693.78 C177.972,693.78 176.967,693.587 175.998,693.201 C178.863,697.431 182.54,699.545 187.029,699.545 C191.519,699.545 195.36,697.691 198.553,693.983 C201.745,690.274 203.342,685.91 203.342,680.889 L203.623,673.858 M206.748,661.561 C210.133,660.321 212.821,658.123 214.81,654.967 C216.8,651.811 217.795,648.67 217.795,645.545 C217.795,640.92 216.199,636.785 213.006,633.139 C209.813,629.493 205.774,627.441 200.889,626.983 C203.691,640.722 205.644,652.248 206.748,661.561 M168.967,638.998 C168.967,645.446 171.537,651.079 176.678,655.897 C181.818,660.714 187.842,663.123 194.748,663.123 C197.477,663.123 200.144,662.925 202.748,662.53 C201.706,652.634 199.654,640.785 196.592,626.983 C192.758,627.379 189.782,628.699 187.662,630.944 C185.542,633.188 184.482,635.743 184.482,638.608 C184.482,643.556 187.123,647.561 192.404,650.623 C192.852,650.884 193.076,651.324 193.076,651.944 C193.076,652.563 192.865,653.1 192.443,653.553 C192.021,654.006 191.649,654.233 191.326,654.233 C191.003,654.233 190.581,654.17 190.06,654.045 C182.435,649.879 178.623,643.592 178.623,635.186 C178.623,631.217 180.024,627.41 182.826,623.764 C185.753,620.118 189.56,617.774 194.248,616.733 C192.425,609.441 190.93,603.743 189.764,599.639 C180.847,609.67 175.31,617.092 173.154,621.905 C170.363,628.155 168.967,633.852 168.967,638.998 M201.576,539.686 C196.691,542.092 192.834,545.574 190.006,550.131 C187.178,554.688 185.764,559.472 185.764,564.483 C185.764,569.493 186.935,575.972 189.279,583.92 C193.967,578.254 197.514,572.946 199.92,567.998 C202.326,563.05 203.529,558.152 203.529,553.303 C203.529,548.454 202.878,543.915 201.576,539.686"/>
<path class="TimeSig" d="M273.021,567.912 C274.516,567.912 275.949,567.686 277.318,567.233 C278.688,566.78 279.665,566.553 280.248,566.553 C280.831,566.553 281.222,566.907 281.42,567.615 C281.42,567.688 281.352,567.886 281.217,568.209 L252.811,601.225 L269.498,601.225 L269.498,588.131 C269.498,586.506 270.446,585.334 272.342,584.615 C274.29,583.897 276.503,581.001 278.982,575.928 C279.17,575.532 279.462,575.334 279.857,575.334 C280.639,575.334 281.092,575.793 281.217,576.709 L281.217,601.225 L288.357,601.225 C289.264,601.225 289.751,601.712 289.818,602.686 C289.886,603.66 289.399,604.147 288.357,604.147 L281.217,604.147 L281.217,604.928 C281.217,607.532 281.868,609.746 283.17,611.569 C284.67,613.391 286.43,614.303 288.451,614.303 C289.232,614.303 289.623,614.694 289.623,615.475 C289.623,616.256 289.087,616.647 288.014,616.647 C286.941,616.647 284.938,616.436 282.006,616.014 C279.074,615.592 276.811,615.381 275.217,615.381 C273.623,615.381 271.41,615.592 268.576,616.014 C265.743,616.436 263.613,616.647 262.186,616.647 C261.404,616.647 261.014,616.256 261.014,615.475 C261.014,614.694 261.404,614.303 262.186,614.303 C264.196,614.303 265.951,613.391 267.451,611.569 C268.816,609.683 269.498,607.47 269.498,604.928 L269.498,604.147 L252.811,604.147 C251.956,604.147 251.219,603.92 250.6,603.467 C249.98,603.014 249.67,602.592 249.67,602.201 C249.67,601.811 250.485,600.639 252.115,598.686 C253.745,596.733 256.074,592.972 259.1,587.405 C262.126,581.837 263.639,575.438 263.639,568.209 C263.639,567.168 264.097,566.647 265.014,566.647 C265.212,566.647 265.521,566.712 265.943,566.842 C266.365,566.972 267.277,567.183 268.678,567.475 C270.079,567.766 271.527,567.912 273.021,567.912"/>
<path class="TimeSig" d="M273.021,618.084 C274.516,618.084 275.949,617.858 277.318,617.405 C278.688,616.951 279.665,616.725 280.248,616.725 C280.831,616.725 281.222,617.079 281.42,617.787 C281.42,617.86 281.352,618.058 281.217,618.381 L252.811,651.397 L269.498,651.397 L269.498,638.303 C269.498,636.678 270.446,635.506 272.342,634.787 C274.29,634.069 276.503,631.173 278.982,626.1 C279.17,625.704 279.462,625.506 279.857,625.506 C280.639,625.506 281.092,625.964 281.217,626.881 L281.217,651.397 L288.357,651.397 C289.264,651.397 289.751,651.884 289.818,652.858 C289.886,653.832 289.399,654.319 288.357,654.319 L281.217,654.319 L281.217,655.1 C281.217,657.704 281.868,659.918 283.17,661.74 C284.67,663.563 286.43,664.475 288.451,664.475 C289.232,664.475 289.623,664.865 289.623,665.647 C289.623,666.428 289.087,666.819 288.014,666.819 C286.941,666.819 284.938,666.608 282.006,666.186 C279.074,665.764 276.811,665.553 275.217,665.553 C273.623,665.553 271.41,665.764 268.576,666.186 C265.743,666.608 263.613,666.819 262.186,666.819 C261.404,666.819 261.014,666.428 261.014,665.647 C261.014,664.865 261.404,664.475 262.186,664.475 C264.196,664.475 265.951,663.563 267.451,661.74 C268.816,659.855 269.498,657.642 269.498,655.1 L269.498,654.319 L252.811,654.319 C251.956,654.319 251.219,654.092 250.6,653.639 C249.98,653.186 249.67,652.764 249.67,652.373 C249.67,651.983 250.485,650.811 252.115,648.858 C253.745,646.905 256.074,643.144 259.1,637.576 C262.126,632.009 263.639,625.61 263.639,618.381 C263.639,617.339 264.097,616.819 265.014,616.819 C265.212,616.819 265.521,616.884 265.943,617.014 C266.365,617.144 267.277,617.355 268.678,617.647 C270.079,617.938 271.527,618.084 273.021,618.084"/>
<path class="Rest" d="M2621.82,607.358 L2586.28,607.358 C2585.62,607.358 2585.29,607.035 2585.29,606.389 L2585.29,592.717 C2585.29,592.061 2585.62,591.733 2586.28,591.733 L2621.82,591.733 C2622.47,591.733 2622.79,592.061 2622.79,592.717 L2622.79,606.389 C2622.79,607.035 2622.47,607.358 2621.82,607.358"/>
<path class="Rest" d="M1376.9,607.358 L1341.35,607.358 C1340.7,607.358 1340.37,607.035 1340.37,606.389 L1340.37,592.717 C1340.37,592.061 1340.7,591.733 1341.35,591.733 L1376.9,591.733 C1377.55,591.733 1377.87,592.061 1377.87,592.717 L1377.87,606.389 C1377.87,607.035 1377.55,607.358 1376.9,607.358"/>
<path class="Beam" fill-rule="evenodd" d="M2051.03,541.723 L2163.42,547.973 L2163.42,560.492 L2051.03,554.242 L2051.03,541.723 "/>
<path class="Beam" fill-rule="evenodd" d="M1614.46,541.705 L1945.14,510.455 L1945.14,523.01 L1614.46,554.26 L1614.46,541.705 "/>
<path class="Beam" fill-rule="evenodd" d="M806.106,541.723 L918.499,547.973 L918.499,560.492 L806.106,554.242 L806.106,541.723 "/>
<path class="Beam" fill-rule="evenodd" d="M369.537,541.705 L700.214,510.455 L700.214,523.01 L369.537,554.26 L369.537,541.705 "/>
</svg>
