<?xml version="1.0" encoding="UTF-8" standalone="no"?>
<svg width="2977.2px" height="4208.4px" viewBox="0 0 2977.2 4208.4"
 xmlns="http://www.w3.org/2000/svg" xmlns:xlink="http://www.w3.org/1999/xlink" version="1.2" baseProfile="tiny">
<title>Db_Dim_7.mscx</title>
<desc>Generated by MuseScore Studio 4.3.1</desc>
<path class="" fill="#ffffff" fill-rule="evenodd" d="M0,0 L2977.2,0 L2977.2,4208.4 L0,4208.4 L0,0 "/>
<polyline class="StaffLines" fill="none" stroke="#000000" stroke-width="2.00" stroke-linejoin="bevel" points="141.732,566.733 2835.47,566.733"/>
<polyline class="StaffLines" fill="none" stroke="#000000" stroke-width="2.00" stroke-linejoin="bevel" points="141.732,591.733 2835.47,591.733"/>
<polyline class="StaffLines" fill="none" stroke="#000000" stroke-width="2.00" stroke-linejoin="bevel" points="141.732,616.733 2835.47,616.733"/>
<polyline class="StaffLines" fill="none" stroke="#000000" stroke-width="2.00" stroke-linejoin="bevel" points="141.732,641.733 2835.47,641.733"/>
<polyline class="StaffLines" fill="none" stroke="#000000" stroke-width="2.00" stroke-linejoin="bevel" points="141.732,666.733 2835.47,666.733"/>
<polyline class="BarLine" fill="none" stroke="#000000" stroke-width="4.00" stroke-linejoin="bevel" points="2351.11,565.733 2351.11,667.733"/>
<polyline class="BarLine" fill="none" stroke="#000000" stroke-width="4.00" stroke-linejoin="bevel" points="1560.3,565.733 1560.3,667.733"/>
<polyline class="BarLine" fill="none" stroke="#000000" stroke-width="4.00" stroke-linejoin="bevel" points="2802.72,565.733 2802.72,667.733"/>
<polyline class="BarLine" fill="none" stroke="#000000" stroke-width="12.50" stroke-linejoin="bevel" points="2829.22,565.733 2829.22,667.733"/>
<polyline class="BarLine" fill="none" stroke="#000000" stroke-width="4.00" stroke-linejoin="bevel" points="1108.69,565.733 1108.69,667.733"/>
<path class="Accidental" d="M328.764,696.811 L327.498,634.701 C327.498,633.722 328.264,633.233 329.795,633.233 C331.326,633.233 332.092,633.722 332.092,634.701 L331.311,668.592 C333.071,666.832 334.584,665.61 335.85,664.928 C337.115,664.246 338.839,663.905 341.022,663.905 C343.204,663.905 345.222,664.912 347.076,666.928 C348.93,668.944 349.857,671.451 349.857,674.451 C349.857,678.941 345.139,685.16 335.701,693.108 C332.191,696.295 330.368,697.889 330.232,697.889 L329.654,697.889 C329.061,697.889 328.764,697.53 328.764,696.811 M331.217,671.717 L330.92,693.889 C332.941,691.993 334.993,688.847 337.076,684.451 C339.16,680.056 340.201,676.295 340.201,673.17 C340.201,671.608 339.941,670.175 339.42,668.873 C338.899,667.571 338.084,666.92 336.975,666.92 C335.865,666.92 334.87,667.311 333.99,668.092 C333.11,668.873 332.186,670.082 331.217,671.717"/>
<path class="Accidental" d="M2134.66,696.811 L2133.4,634.701 C2133.4,633.722 2134.16,633.233 2135.69,633.233 C2137.22,633.233 2137.99,633.722 2137.99,634.701 L2137.21,668.592 C2138.97,666.832 2140.48,665.61 2141.75,664.928 C2143.01,664.246 2144.74,663.905 2146.92,663.905 C2149.1,663.905 2151.12,664.912 2152.97,666.928 C2154.83,668.944 2155.76,671.451 2155.76,674.451 C2155.76,678.941 2151.04,685.16 2141.6,693.108 C2138.09,696.295 2136.27,697.889 2136.13,697.889 L2135.55,697.889 C2134.96,697.889 2134.66,697.53 2134.66,696.811 M2137.11,671.717 L2136.82,693.889 C2138.84,691.993 2140.89,688.847 2142.97,684.451 C2145.06,680.056 2146.1,676.295 2146.1,673.17 C2146.1,671.608 2145.84,670.175 2145.32,668.873 C2144.8,667.571 2143.98,666.92 2142.87,666.92 C2141.76,666.92 2140.77,667.311 2139.89,668.092 C2139.01,668.873 2138.08,670.082 2137.11,671.717"/>
<path class="Accidental" d="M892.239,634.311 L890.973,572.201 C890.973,571.222 891.739,570.733 893.27,570.733 C894.802,570.733 895.567,571.222 895.567,572.201 L894.786,606.092 C896.546,604.332 898.059,603.11 899.325,602.428 C900.591,601.746 902.315,601.405 904.497,601.405 C906.679,601.405 908.697,602.412 910.552,604.428 C912.406,606.444 913.333,608.951 913.333,611.951 C913.333,616.441 908.614,622.66 899.177,630.608 C895.666,633.795 893.843,635.389 893.708,635.389 L893.13,635.389 C892.536,635.389 892.239,635.03 892.239,634.311 M894.692,609.217 L894.395,631.389 C896.416,629.493 898.468,626.347 900.552,621.951 C902.635,617.556 903.677,613.795 903.677,610.67 C903.677,609.108 903.416,607.675 902.895,606.373 C902.374,605.071 901.559,604.42 900.45,604.42 C899.341,604.42 898.346,604.811 897.466,605.592 C896.585,606.373 895.661,607.582 894.692,609.217"/>
<path class="Accidental" d="M1571.19,634.311 L1569.92,572.201 C1569.92,571.222 1570.69,570.733 1572.22,570.733 C1573.75,570.733 1574.51,571.222 1574.51,572.201 L1573.73,606.092 C1575.49,604.332 1577.01,603.11 1578.27,602.428 C1579.54,601.746 1581.26,601.405 1583.44,601.405 C1585.63,601.405 1587.64,602.412 1589.5,604.428 C1591.35,606.444 1592.28,608.951 1592.28,611.951 C1592.28,616.441 1587.56,622.66 1578.12,630.608 C1574.61,633.795 1572.79,635.389 1572.66,635.389 L1572.08,635.389 C1571.48,635.389 1571.19,635.03 1571.19,634.311 M1573.64,609.217 L1573.34,631.389 C1575.36,629.493 1577.42,626.347 1579.5,621.951 C1581.58,617.556 1582.62,613.795 1582.62,610.67 C1582.62,609.108 1582.36,607.675 1581.84,606.373 C1581.32,605.071 1580.51,604.42 1579.4,604.42 C1578.29,604.42 1577.29,604.811 1576.41,605.592 C1575.53,606.373 1574.61,607.582 1573.64,609.217"/>
<polyline class="Stem" fill="none" stroke="#000000" stroke-width="3.25" stroke-linejoin="bevel" points="574.503,660.863 574.503,579.233"/>
<polyline class="Stem" fill="none" stroke="#000000" stroke-width="3.25" stroke-linejoin="bevel" points="2192.58,673.364 2192.58,591.733"/>
<polyline class="Stem" fill="none" stroke="#000000" stroke-width="3.25" stroke-linejoin="bevel" points="2004.75,660.863 2004.75,579.233"/>
<polyline class="Stem" fill="none" stroke="#000000" stroke-width="3.25" stroke-linejoin="bevel" points="1816.93,635.863 1816.93,554.233"/>
<polyline class="Stem" fill="none" stroke="#000000" stroke-width="3.25" stroke-linejoin="bevel" points="1599.44,622.602 1599.44,691.733"/>
<polyline class="Stem" fill="none" stroke="#000000" stroke-width="3.25" stroke-linejoin="bevel" points="386.678,673.364 386.678,591.733"/>
<polyline class="Stem" fill="none" stroke="#000000" stroke-width="3.25" stroke-linejoin="bevel" points="920.489,622.602 920.489,691.733"/>
<polyline class="Stem" fill="none" stroke="#000000" stroke-width="3.25" stroke-linejoin="bevel" points="762.328,635.863 762.328,554.233"/>
<path class="Note" d="M1619.78,602.967 C1622.91,602.967 1625.51,603.748 1627.59,605.311 C1629.68,606.873 1630.72,609.118 1630.72,612.045 C1630.72,616.535 1628.39,620.733 1623.74,624.639 C1619.09,628.545 1614.09,630.498 1608.75,630.498 C1605.62,630.498 1602.99,629.686 1600.84,628.061 C1598.82,626.3 1597.81,624.087 1597.81,621.42 C1597.81,617.056 1600.12,612.889 1604.75,608.92 C1609.37,604.951 1614.38,602.967 1619.78,602.967"/>
<path class="Note" d="M377.357,665.467 C380.482,665.467 383.087,666.248 385.17,667.811 C387.253,669.373 388.295,671.618 388.295,674.545 C388.295,679.035 385.969,683.233 381.318,687.139 C376.667,691.045 371.67,692.998 366.326,692.998 C363.201,692.998 360.566,692.186 358.42,690.561 C356.399,688.8 355.389,686.587 355.389,683.92 C355.389,679.556 357.701,675.389 362.326,671.42 C366.951,667.451 371.962,665.467 377.357,665.467"/>
<path class="Note" d="M940.833,602.967 C943.958,602.967 946.562,603.748 948.645,605.311 C950.729,606.873 951.77,609.118 951.77,612.045 C951.77,616.535 949.445,620.733 944.794,624.639 C940.143,628.545 935.145,630.498 929.802,630.498 C926.677,630.498 924.041,629.686 921.895,628.061 C919.874,626.3 918.864,624.087 918.864,621.42 C918.864,617.056 921.177,612.889 925.802,608.92 C930.427,604.951 935.437,602.967 940.833,602.967"/>
<path class="Note" d="M1807.61,627.967 C1810.73,627.967 1813.33,628.748 1815.42,630.311 C1817.5,631.873 1818.54,634.118 1818.54,637.045 C1818.54,641.535 1816.22,645.733 1811.57,649.639 C1806.92,653.545 1801.92,655.498 1796.57,655.498 C1793.45,655.498 1790.81,654.686 1788.67,653.061 C1786.65,651.3 1785.64,649.087 1785.64,646.42 C1785.64,642.056 1787.95,637.889 1792.57,633.92 C1797.2,629.951 1802.21,627.967 1807.61,627.967"/>
<path class="Note" d="M1995.43,652.967 C1998.56,652.967 2001.16,653.748 2003.24,655.311 C2005.33,656.873 2006.37,659.118 2006.37,662.045 C2006.37,666.535 2004.04,670.733 1999.39,674.639 C1994.74,678.545 1989.74,680.498 1984.4,680.498 C1981.27,680.498 1978.64,679.686 1976.49,678.061 C1974.47,676.3 1973.46,674.087 1973.46,671.42 C1973.46,667.056 1975.77,662.889 1980.4,658.92 C1985.02,654.951 1990.03,652.967 1995.43,652.967"/>
<path class="Note" d="M753.008,627.967 C756.133,627.967 758.737,628.748 760.82,630.311 C762.904,631.873 763.945,634.118 763.945,637.045 C763.945,641.535 761.62,645.733 756.969,649.639 C752.318,653.545 747.32,655.498 741.976,655.498 C738.851,655.498 736.216,654.686 734.07,653.061 C732.049,651.3 731.039,649.087 731.039,646.42 C731.039,642.056 733.351,637.889 737.976,633.92 C742.601,629.951 747.612,627.967 753.008,627.967"/>
<path class="Note" d="M2183.26,665.467 C2186.38,665.467 2188.98,666.248 2191.07,667.811 C2193.15,669.373 2194.19,671.618 2194.19,674.545 C2194.19,679.035 2191.87,683.233 2187.22,687.139 C2182.57,691.045 2177.57,692.998 2172.22,692.998 C2169.1,692.998 2166.46,692.186 2164.32,690.561 C2162.3,688.8 2161.29,686.587 2161.29,683.92 C2161.29,679.556 2163.6,675.389 2168.22,671.42 C2172.85,667.451 2177.86,665.467 2183.26,665.467"/>
<path class="Note" d="M565.183,652.967 C568.308,652.967 570.912,653.748 572.995,655.311 C575.078,656.873 576.12,659.118 576.12,662.045 C576.12,666.535 573.795,670.733 569.144,674.639 C564.493,678.545 559.495,680.498 554.151,680.498 C551.026,680.498 548.391,679.686 546.245,678.061 C544.224,676.3 543.214,674.087 543.214,671.42 C543.214,667.056 545.526,662.889 550.151,658.92 C554.776,654.951 559.787,652.967 565.183,652.967"/>
<path class="Clef" d="M203.623,673.858 L203.623,671.717 C203.56,670.613 203.399,668.889 203.139,666.545 C199.889,667.066 196.993,667.326 194.451,667.326 C185.337,667.326 177.605,663.727 171.256,656.53 C164.907,649.332 161.732,640.754 161.732,630.795 C161.732,628.129 162.253,624.923 163.295,621.178 C164.337,617.433 165.297,614.925 166.178,613.655 C167.058,612.384 168.378,610.155 170.139,606.967 C170.659,605.988 172.352,603.837 175.217,600.514 C175.738,599.806 176.193,599.222 176.584,598.764 C176.975,598.306 177.607,597.49 178.482,596.319 C179.357,595.147 180.3,594.056 181.31,593.045 C182.321,592.035 183.217,591.058 183.998,590.115 C184.779,589.173 185.498,588.379 186.154,587.733 C183.81,579.983 182.378,574.024 181.857,569.858 C181.337,565.691 181.076,560.579 181.076,554.522 C181.076,548.464 182.378,542.962 184.982,538.014 C187.514,532.879 191.06,528.681 195.623,525.42 C195.883,525.222 196.225,525.123 196.646,525.123 C197.068,525.123 197.378,525.222 197.576,525.42 C201.087,529.649 204.128,535.149 206.701,541.92 C209.274,548.691 210.56,555.024 210.56,560.92 C210.56,566.816 209.066,572.498 206.076,577.967 C202.691,583.759 198.326,589.748 192.982,595.936 C194.347,600.227 196.17,606.962 198.451,616.139 L199.045,616.139 C199.305,616.076 199.529,616.045 199.717,616.045 C207.081,616.045 213.089,618.634 217.74,623.811 C222.391,628.988 224.717,634.962 224.717,641.733 C224.717,650.129 221.238,656.899 214.279,662.045 C212.258,663.545 209.878,664.717 207.139,665.561 C207.472,669.79 207.639,672.605 207.639,674.006 C207.639,675.407 207.571,677.899 207.435,681.483 C207.373,687.597 205.29,692.837 201.185,697.201 C197.081,701.566 192.394,703.748 187.123,703.748 C181.852,703.748 177.36,701.876 173.646,698.131 C169.933,694.386 168.076,689.847 168.076,684.514 C168.076,681.712 169.154,679.332 171.31,677.373 C173.519,675.425 176.006,674.451 178.771,674.451 C181.537,674.451 183.8,675.462 185.56,677.483 C187.383,679.368 188.295,681.644 188.295,684.311 C188.295,686.977 187.383,689.222 185.56,691.045 C183.738,692.868 181.555,693.78 179.014,693.78 C177.972,693.78 176.967,693.587 175.998,693.201 C178.863,697.431 182.54,699.545 187.029,699.545 C191.519,699.545 195.36,697.691 198.553,693.983 C201.745,690.274 203.342,685.91 203.342,680.889 L203.623,673.858 M206.748,661.561 C210.133,660.321 212.821,658.123 214.81,654.967 C216.8,651.811 217.795,648.67 217.795,645.545 C217.795,640.92 216.199,636.785 213.006,633.139 C209.813,629.493 205.774,627.441 200.889,626.983 C203.691,640.722 205.644,652.248 206.748,661.561 M168.967,638.998 C168.967,645.446 171.537,651.079 176.678,655.897 C181.818,660.714 187.842,663.123 194.748,663.123 C197.477,663.123 200.144,662.925 202.748,662.53 C201.706,652.634 199.654,640.785 196.592,626.983 C192.758,627.379 189.782,628.699 187.662,630.944 C185.542,633.188 184.482,635.743 184.482,638.608 C184.482,643.556 187.123,647.561 192.404,650.623 C192.852,650.884 193.076,651.324 193.076,651.944 C193.076,652.563 192.865,653.1 192.443,653.553 C192.021,654.006 191.649,654.233 191.326,654.233 C191.003,654.233 190.581,654.17 190.06,654.045 C182.435,649.879 178.623,643.592 178.623,635.186 C178.623,631.217 180.024,627.41 182.826,623.764 C185.753,620.118 189.56,617.774 194.248,616.733 C192.425,609.441 190.93,603.743 189.764,599.639 C180.847,609.67 175.31,617.092 173.154,621.905 C170.363,628.155 168.967,633.852 168.967,638.998 M201.576,539.686 C196.691,542.092 192.834,545.574 190.006,550.131 C187.178,554.688 185.764,559.472 185.764,564.483 C185.764,569.493 186.935,575.972 189.279,583.92 C193.967,578.254 197.514,572.946 199.92,567.998 C202.326,563.05 203.529,558.152 203.529,553.303 C203.529,548.454 202.878,543.915 201.576,539.686"/>
<path class="TimeSig" d="M273.021,567.912 C274.516,567.912 275.949,567.686 277.318,567.233 C278.688,566.78 279.665,566.553 280.248,566.553 C280.831,566.553 281.222,566.907 281.42,567.615 C281.42,567.688 281.352,567.886 281.217,568.209 L252.811,601.225 L269.498,601.225 L269.498,588.131 C269.498,586.506 270.446,585.334 272.342,584.615 C274.29,583.897 276.503,581.001 278.982,575.928 C279.17,575.532 279.462,575.334 279.857,575.334 C280.639,575.334 281.092,575.793 281.217,576.709 L281.217,601.225 L288.357,601.225 C289.264,601.225 289.751,601.712 289.818,602.686 C289.886,603.66 289.399,604.147 288.357,604.147 L281.217,604.147 L281.217,604.928 C281.217,607.532 281.868,609.746 283.17,611.569 C284.67,613.391 286.43,614.303 288.451,614.303 C289.232,614.303 289.623,614.694 289.623,615.475 C289.623,616.256 289.087,616.647 288.014,616.647 C286.941,616.647 284.938,616.436 282.006,616.014 C279.074,615.592 276.811,615.381 275.217,615.381 C273.623,615.381 271.41,615.592 268.576,616.014 C265.743,616.436 263.613,616.647 262.186,616.647 C261.404,616.647 261.014,616.256 261.014,615.475 C261.014,614.694 261.404,614.303 262.186,614.303 C264.196,614.303 265.951,613.391 267.451,611.569 C268.816,609.683 269.498,607.47 269.498,604.928 L269.498,604.147 L252.811,604.147 C251.956,604.147 251.219,603.92 250.6,603.467 C249.98,603.014 249.67,602.592 249.67,602.201 C249.67,601.811 250.485,600.639 252.115,598.686 C253.745,596.733 256.074,592.972 259.1,587.405 C262.126,581.837 263.639,575.438 263.639,568.209 C263.639,567.168 264.097,566.647 265.014,566.647 C265.212,566.647 265.521,566.712 265.943,566.842 C266.365,566.972 267.277,567.183 268.678,567.475 C270.079,567.766 271.527,567.912 273.021,567.912"/>
<path class="TimeSig" d="M273.021,618.084 C274.516,618.084 275.949,617.858 277.318,617.405 C278.688,616.951 279.665,616.725 280.248,616.725 C280.831,616.725 281.222,617.079 281.42,617.787 C281.42,617.86 281.352,618.058 281.217,618.381 L252.811,651.397 L269.498,651.397 L269.498,638.303 C269.498,636.678 270.446,635.506 272.342,634.787 C274.29,634.069 276.503,631.173 278.982,626.1 C279.17,625.704 279.462,625.506 279.857,625.506 C280.639,625.506 281.092,625.964 281.217,626.881 L281.217,651.397 L288.357,651.397 C289.264,651.397 289.751,651.884 289.818,652.858 C289.886,653.832 289.399,654.319 288.357,654.319 L281.217,654.319 L281.217,655.1 C281.217,657.704 281.868,659.918 283.17,661.74 C284.67,663.563 286.43,664.475 288.451,664.475 C289.232,664.475 289.623,664.865 289.623,665.647 C289.623,666.428 289.087,666.819 288.014,666.819 C286.941,666.819 284.938,666.608 282.006,666.186 C279.074,665.764 276.811,665.553 275.217,665.553 C273.623,665.553 271.41,665.764 268.576,666.186 C265.743,666.608 263.613,666.819 262.186,666.819 C261.404,666.819 261.014,666.428 261.014,665.647 C261.014,664.865 261.404,664.475 262.186,664.475 C264.196,664.475 265.951,663.563 267.451,661.74 C268.816,659.855 269.498,657.642 269.498,655.1 L269.498,654.319 L252.811,654.319 C251.956,654.319 251.219,654.092 250.6,653.639 C249.98,653.186 249.67,652.764 249.67,652.373 C249.67,651.983 250.485,650.811 252.115,648.858 C253.745,646.905 256.074,643.144 259.1,637.576 C262.126,632.009 263.639,625.61 263.639,618.381 C263.639,617.339 264.097,616.819 265.014,616.819 C265.212,616.819 265.521,616.884 265.943,617.014 C266.365,617.144 267.277,617.355 268.678,617.647 C270.079,617.938 271.527,618.084 273.021,618.084"/>
<path class="Rest" d="M1352.27,607.358 L1316.73,607.358 C1316.07,607.358 1315.74,607.035 1315.74,606.389 L1315.74,592.717 C1315.74,592.061 1316.07,591.733 1316.73,591.733 L1352.27,591.733 C1352.92,591.733 1353.24,592.061 1353.24,592.717 L1353.24,606.389 C1353.24,607.035 1352.92,607.358 1352.27,607.358"/>
<path class="Rest" d="M2594.7,607.358 L2559.15,607.358 C2558.49,607.358 2558.17,607.035 2558.17,606.389 L2558.17,592.717 C2558.17,592.061 2558.49,591.733 2559.15,591.733 L2594.7,591.733 C2595.34,591.733 2595.67,592.061 2595.67,592.717 L2595.67,606.389 C2595.67,607.035 2595.34,607.358 2594.7,607.358"/>
</svg>
