<?xml version="1.0" encoding="UTF-8" standalone="no"?>
<svg width="2977.2px" height="4208.4px" viewBox="0 0 2977.2 4208.4"
 xmlns="http://www.w3.org/2000/svg" xmlns:xlink="http://www.w3.org/1999/xlink" version="1.2" baseProfile="tiny">
<title>C_Major_Scale_Patterns_21.mscx</title>
<desc>Generated by MuseScore Studio 4.3.1</desc>
<path class="" fill="#ffffff" fill-rule="evenodd" d="M0,0 L2977.2,0 L2977.2,4208.4 L0,4208.4 L0,0 "/>
<polyline class="StaffLines" fill="none" stroke="#000000" stroke-width="2.00" stroke-linejoin="bevel" points="141.732,566.733 2835.47,566.733"/>
<polyline class="StaffLines" fill="none" stroke="#000000" stroke-width="2.00" stroke-linejoin="bevel" points="141.732,591.733 2835.47,591.733"/>
<polyline class="StaffLines" fill="none" stroke="#000000" stroke-width="2.00" stroke-linejoin="bevel" points="141.732,616.733 2835.47,616.733"/>
<polyline class="StaffLines" fill="none" stroke="#000000" stroke-width="2.00" stroke-linejoin="bevel" points="141.732,641.733 2835.47,641.733"/>
<polyline class="StaffLines" fill="none" stroke="#000000" stroke-width="2.00" stroke-linejoin="bevel" points="141.732,666.733 2835.47,666.733"/>
<polyline class="BarLine" fill="none" stroke="#000000" stroke-width="4.00" stroke-linejoin="bevel" points="2802.72,565.733 2802.72,667.733"/>
<polyline class="BarLine" fill="none" stroke="#000000" stroke-width="12.50" stroke-linejoin="bevel" points="2829.22,565.733 2829.22,667.733"/>
<polyline class="BarLine" fill="none" stroke="#000000" stroke-width="4.00" stroke-linejoin="bevel" points="1078.35,565.733 1078.35,667.733"/>
<polyline class="BarLine" fill="none" stroke="#000000" stroke-width="4.00" stroke-linejoin="bevel" points="886.759,565.733 886.759,667.733"/>
<polyline class="BarLine" fill="none" stroke="#000000" stroke-width="4.00" stroke-linejoin="bevel" points="1269.95,565.733 1269.95,667.733"/>
<polyline class="BarLine" fill="none" stroke="#000000" stroke-width="4.00" stroke-linejoin="bevel" points="1461.55,565.733 1461.55,667.733"/>
<polyline class="BarLine" fill="none" stroke="#000000" stroke-width="4.00" stroke-linejoin="bevel" points="695.163,565.733 695.163,667.733"/>
<polyline class="BarLine" fill="none" stroke="#000000" stroke-width="4.00" stroke-linejoin="bevel" points="1653.14,565.733 1653.14,667.733"/>
<polyline class="BarLine" fill="none" stroke="#000000" stroke-width="4.00" stroke-linejoin="bevel" points="1844.74,565.733 1844.74,667.733"/>
<polyline class="BarLine" fill="none" stroke="#000000" stroke-width="4.00" stroke-linejoin="bevel" points="2036.33,565.733 2036.33,667.733"/>
<polyline class="BarLine" fill="none" stroke="#000000" stroke-width="4.00" stroke-linejoin="bevel" points="503.567,565.733 503.567,667.733"/>
<polyline class="BarLine" fill="none" stroke="#000000" stroke-width="4.00" stroke-linejoin="bevel" points="2227.93,565.733 2227.93,667.733"/>
<polyline class="BarLine" fill="none" stroke="#000000" stroke-width="4.00" stroke-linejoin="bevel" points="2419.53,565.733 2419.53,667.733"/>
<polyline class="BarLine" fill="none" stroke="#000000" stroke-width="4.00" stroke-linejoin="bevel" points="2611.12,565.733 2611.12,667.733"/>
<polyline class="LedgerLine" fill="none" stroke="#000000" stroke-width="4.00" stroke-linejoin="bevel" points="2517.87,491.733 2571.59,491.733"/>
<polyline class="LedgerLine" fill="none" stroke="#000000" stroke-width="4.00" stroke-linejoin="bevel" points="1559.89,541.733 1613.61,541.733"/>
<polyline class="LedgerLine" fill="none" stroke="#000000" stroke-width="4.00" stroke-linejoin="bevel" points="2517.87,516.733 2571.59,516.733"/>
<polyline class="LedgerLine" fill="none" stroke="#000000" stroke-width="4.00" stroke-linejoin="bevel" points="2134.68,541.733 2188.4,541.733"/>
<polyline class="LedgerLine" fill="none" stroke="#000000" stroke-width="4.00" stroke-linejoin="bevel" points="1670.64,541.733 1724.36,541.733"/>
<polyline class="LedgerLine" fill="none" stroke="#000000" stroke-width="4.00" stroke-linejoin="bevel" points="1670.64,516.733 1724.36,516.733"/>
<polyline class="LedgerLine" fill="none" stroke="#000000" stroke-width="4.00" stroke-linejoin="bevel" points="2517.87,541.733 2571.59,541.733"/>
<polyline class="LedgerLine" fill="none" stroke="#000000" stroke-width="4.00" stroke-linejoin="bevel" points="2437.03,541.733 2490.75,541.733"/>
<polyline class="LedgerLine" fill="none" stroke="#000000" stroke-width="4.00" stroke-linejoin="bevel" points="1751.49,541.733 1805.21,541.733"/>
<polyline class="LedgerLine" fill="none" stroke="#000000" stroke-width="4.00" stroke-linejoin="bevel" points="1751.49,516.733 1805.21,516.733"/>
<polyline class="LedgerLine" fill="none" stroke="#000000" stroke-width="4.00" stroke-linejoin="bevel" points="2053.83,491.733 2107.55,491.733"/>
<polyline class="LedgerLine" fill="none" stroke="#000000" stroke-width="4.00" stroke-linejoin="bevel" points="2053.83,516.733 2107.55,516.733"/>
<polyline class="LedgerLine" fill="none" stroke="#000000" stroke-width="4.00" stroke-linejoin="bevel" points="2053.83,541.733 2107.55,541.733"/>
<polyline class="LedgerLine" fill="none" stroke="#000000" stroke-width="4.00" stroke-linejoin="bevel" points="1862.24,541.733 1915.96,541.733"/>
<polyline class="LedgerLine" fill="none" stroke="#000000" stroke-width="4.00" stroke-linejoin="bevel" points="1862.24,516.733 1915.96,516.733"/>
<polyline class="LedgerLine" fill="none" stroke="#000000" stroke-width="4.00" stroke-linejoin="bevel" points="2437.03,466.733 2490.75,466.733"/>
<polyline class="LedgerLine" fill="none" stroke="#000000" stroke-width="4.00" stroke-linejoin="bevel" points="2437.03,516.733 2490.75,516.733"/>
<polyline class="LedgerLine" fill="none" stroke="#000000" stroke-width="4.00" stroke-linejoin="bevel" points="1943.09,541.733 1996.8,541.733"/>
<polyline class="LedgerLine" fill="none" stroke="#000000" stroke-width="4.00" stroke-linejoin="bevel" points="1943.09,516.733 1996.8,516.733"/>
<polyline class="LedgerLine" fill="none" stroke="#000000" stroke-width="4.00" stroke-linejoin="bevel" points="2437.03,491.733 2490.75,491.733"/>
<polyline class="LedgerLine" fill="none" stroke="#000000" stroke-width="4.00" stroke-linejoin="bevel" points="2628.62,541.733 2682.34,541.733"/>
<polyline class="LedgerLine" fill="none" stroke="#000000" stroke-width="4.00" stroke-linejoin="bevel" points="2326.28,491.733 2380,491.733"/>
<polyline class="LedgerLine" fill="none" stroke="#000000" stroke-width="4.00" stroke-linejoin="bevel" points="2326.28,516.733 2380,516.733"/>
<polyline class="LedgerLine" fill="none" stroke="#000000" stroke-width="4.00" stroke-linejoin="bevel" points="2326.28,541.733 2380,541.733"/>
<polyline class="LedgerLine" fill="none" stroke="#000000" stroke-width="4.00" stroke-linejoin="bevel" points="2628.62,466.733 2682.34,466.733"/>
<polyline class="LedgerLine" fill="none" stroke="#000000" stroke-width="4.00" stroke-linejoin="bevel" points="2628.62,491.733 2682.34,491.733"/>
<polyline class="LedgerLine" fill="none" stroke="#000000" stroke-width="4.00" stroke-linejoin="bevel" points="2245.43,491.733 2299.15,491.733"/>
<polyline class="LedgerLine" fill="none" stroke="#000000" stroke-width="4.00" stroke-linejoin="bevel" points="2628.62,516.733 2682.34,516.733"/>
<polyline class="LedgerLine" fill="none" stroke="#000000" stroke-width="4.00" stroke-linejoin="bevel" points="2245.43,516.733 2299.15,516.733"/>
<polyline class="LedgerLine" fill="none" stroke="#000000" stroke-width="4.00" stroke-linejoin="bevel" points="2245.43,541.733 2299.15,541.733"/>
<polyline class="LedgerLine" fill="none" stroke="#000000" stroke-width="4.00" stroke-linejoin="bevel" points="1368.3,541.733 1422.02,541.733"/>
<polyline class="LedgerLine" fill="none" stroke="#000000" stroke-width="4.00" stroke-linejoin="bevel" points="2134.68,491.733 2188.4,491.733"/>
<polyline class="LedgerLine" fill="none" stroke="#000000" stroke-width="4.00" stroke-linejoin="bevel" points="2517.87,466.733 2571.59,466.733"/>
<polyline class="LedgerLine" fill="none" stroke="#000000" stroke-width="4.00" stroke-linejoin="bevel" points="2134.68,516.733 2188.4,516.733"/>
<polyline class="Stem" fill="none" stroke="#000000" stroke-width="3.25" stroke-linejoin="bevel" points="2256.56,496.633 2256.56,616.733"/>
<polyline class="Stem" fill="none" stroke="#000000" stroke-width="3.25" stroke-linejoin="bevel" points="2529,459.133 2529,616.733"/>
<polyline class="Stem" fill="none" stroke="#000000" stroke-width="3.25" stroke-linejoin="bevel" points="372.065,636.933 372.065,554.233"/>
<polyline class="Stem" fill="none" stroke="#000000" stroke-width="3.25" stroke-linejoin="bevel" points="2064.96,496.633 2064.96,616.733"/>
<polyline class="Stem" fill="none" stroke="#000000" stroke-width="3.25" stroke-linejoin="bevel" points="421.443,621.633 421.443,691.733"/>
<polyline class="Stem" fill="none" stroke="#000000" stroke-width="3.25" stroke-linejoin="bevel" points="2448.15,471.633 2448.15,616.733"/>
<polyline class="Stem" fill="none" stroke="#000000" stroke-width="3.25" stroke-linejoin="bevel" points="2337.4,484.133 2337.4,616.733"/>
<polyline class="Stem" fill="none" stroke="#000000" stroke-width="3.25" stroke-linejoin="bevel" points="2145.81,484.133 2145.81,616.733"/>
<polyline class="Stem" fill="none" stroke="#000000" stroke-width="3.25" stroke-linejoin="bevel" points="1873.36,521.633 1873.36,616.733"/>
<polyline class="Stem" fill="none" stroke="#000000" stroke-width="3.25" stroke-linejoin="bevel" points="915.384,584.133 915.384,666.733"/>
<polyline class="Stem" fill="none" stroke="#000000" stroke-width="3.25" stroke-linejoin="bevel" points="996.23,571.633 996.23,654.233"/>
<polyline class="Stem" fill="none" stroke="#000000" stroke-width="3.25" stroke-linejoin="bevel" points="1106.98,584.133 1106.98,666.733"/>
<polyline class="Stem" fill="none" stroke="#000000" stroke-width="3.25" stroke-linejoin="bevel" points="1187.83,571.633 1187.83,654.233"/>
<polyline class="Stem" fill="none" stroke="#000000" stroke-width="3.25" stroke-linejoin="bevel" points="804.635,596.633 804.635,679.233"/>
<polyline class="Stem" fill="none" stroke="#000000" stroke-width="3.25" stroke-linejoin="bevel" points="1298.58,559.133 1298.58,641.733"/>
<polyline class="Stem" fill="none" stroke="#000000" stroke-width="3.25" stroke-linejoin="bevel" points="2639.75,471.633 2639.75,616.733"/>
<polyline class="Stem" fill="none" stroke="#000000" stroke-width="3.25" stroke-linejoin="bevel" points="1379.42,546.633 1379.42,629.233"/>
<polyline class="Stem" fill="none" stroke="#000000" stroke-width="3.25" stroke-linejoin="bevel" points="723.788,609.133 723.788,685.483"/>
<polyline class="Stem" fill="none" stroke="#000000" stroke-width="3.25" stroke-linejoin="bevel" points="1490.17,559.133 1490.17,641.733"/>
<polyline class="Stem" fill="none" stroke="#000000" stroke-width="3.25" stroke-linejoin="bevel" points="1571.02,534.133 1571.02,616.733"/>
<polyline class="Stem" fill="none" stroke="#000000" stroke-width="3.25" stroke-linejoin="bevel" points="613.039,596.633 613.039,679.233"/>
<polyline class="Stem" fill="none" stroke="#000000" stroke-width="3.25" stroke-linejoin="bevel" points="1681.77,521.633 1681.77,616.733"/>
<polyline class="Stem" fill="none" stroke="#000000" stroke-width="3.25" stroke-linejoin="bevel" points="1762.61,509.133 1762.61,616.733"/>
<polyline class="Stem" fill="none" stroke="#000000" stroke-width="3.25" stroke-linejoin="bevel" points="532.192,609.133 532.192,685.483"/>
<polyline class="Stem" fill="none" stroke="#000000" stroke-width="3.25" stroke-linejoin="bevel" points="1954.21,509.133 1954.21,616.733"/>
<path class="Note" d="M2534.8,464.873 C2536.68,464.873 2540.64,462.92 2546.66,459.014 C2552.69,455.108 2556.24,452.488 2557.31,451.154 C2558.38,449.821 2558.92,448.634 2558.92,447.592 C2558.92,446.55 2558.5,445.623 2557.65,444.811 C2556.8,443.998 2555.82,443.592 2554.72,443.592 C2552.77,443.592 2548.78,445.561 2542.76,449.498 C2536.73,453.436 2533.2,456.055 2532.15,457.358 C2531.11,458.66 2530.59,459.832 2530.59,460.873 C2530.59,461.915 2531,462.842 2531.82,463.654 C2532.64,464.467 2533.63,464.873 2534.8,464.873 M2553.75,440.467 C2559.34,440.467 2562.14,442.873 2562.14,447.686 C2562.14,450.029 2561.46,452.748 2560.09,455.842 C2558.73,458.936 2556.9,461.295 2554.62,462.92 C2549.61,466.305 2543.33,467.998 2535.78,467.998 C2530.18,467.998 2527.37,465.592 2527.37,460.779 C2527.37,458.634 2528.04,455.964 2529.37,452.772 C2530.71,449.579 2532.55,447.17 2534.89,445.545 C2539.91,442.16 2546.2,440.467 2553.75,440.467"/>
<path class="Note" d="M921.181,589.873 C923.066,589.873 927.022,587.92 933.048,584.014 C939.074,580.108 942.623,577.488 943.696,576.155 C944.769,574.821 945.306,573.634 945.306,572.592 C945.306,571.55 944.881,570.623 944.032,569.811 C943.183,568.998 942.207,568.592 941.102,568.592 C939.155,568.592 935.168,570.561 929.141,574.498 C923.115,578.436 919.582,581.056 918.54,582.358 C917.498,583.66 916.977,584.832 916.977,585.873 C916.977,586.915 917.386,587.842 918.204,588.655 C919.022,589.467 920.014,589.873 921.181,589.873 M940.134,565.467 C945.727,565.467 948.524,567.873 948.524,572.686 C948.524,575.03 947.842,577.748 946.477,580.842 C945.113,583.936 943.29,586.295 941.009,587.92 C935.998,591.306 929.717,592.998 922.165,592.998 C916.561,592.998 913.759,590.592 913.759,585.78 C913.759,583.634 914.425,580.964 915.759,577.772 C917.092,574.579 918.931,572.17 921.274,570.545 C926.295,567.16 932.582,565.467 940.134,565.467"/>
<path class="Note" d="M2343.2,489.873 C2345.08,489.873 2349.04,487.92 2355.07,484.014 C2361.09,480.108 2364.64,477.488 2365.71,476.154 C2366.79,474.821 2367.32,473.634 2367.32,472.592 C2367.32,471.55 2366.9,470.623 2366.05,469.811 C2365.2,468.998 2364.23,468.592 2363.12,468.592 C2361.17,468.592 2357.19,470.561 2351.16,474.498 C2345.13,478.436 2341.6,481.055 2340.56,482.358 C2339.52,483.66 2339,484.832 2339,485.873 C2339,486.915 2339.4,487.842 2340.22,488.654 C2341.04,489.467 2342.03,489.873 2343.2,489.873 M2362.15,465.467 C2367.75,465.467 2370.54,467.873 2370.54,472.686 C2370.54,475.029 2369.86,477.748 2368.5,480.842 C2367.13,483.936 2365.31,486.295 2363.03,487.92 C2358.02,491.305 2351.74,492.998 2344.18,492.998 C2338.58,492.998 2335.78,490.592 2335.78,485.779 C2335.78,483.634 2336.44,480.964 2337.78,477.772 C2339.11,474.579 2340.95,472.17 2343.29,470.545 C2348.31,467.16 2354.6,465.467 2362.15,465.467"/>
<path class="Note" d="M2453.95,477.373 C2455.83,477.373 2459.79,475.42 2465.82,471.514 C2471.84,467.608 2475.39,464.988 2476.46,463.654 C2477.54,462.321 2478.07,461.134 2478.07,460.092 C2478.07,459.05 2477.65,458.123 2476.8,457.311 C2475.95,456.498 2474.97,456.092 2473.87,456.092 C2471.92,456.092 2467.94,458.061 2461.91,461.998 C2455.88,465.936 2452.35,468.555 2451.31,469.858 C2450.27,471.16 2449.75,472.332 2449.75,473.373 C2449.75,474.415 2450.15,475.342 2450.97,476.154 C2451.79,476.967 2452.78,477.373 2453.95,477.373 M2472.9,452.967 C2478.5,452.967 2481.29,455.373 2481.29,460.186 C2481.29,462.529 2480.61,465.248 2479.25,468.342 C2477.88,471.436 2476.06,473.795 2473.78,475.42 C2468.77,478.805 2462.48,480.498 2454.93,480.498 C2449.33,480.498 2446.53,478.092 2446.53,473.279 C2446.53,471.134 2447.19,468.464 2448.53,465.272 C2449.86,462.079 2451.7,459.67 2454.04,458.045 C2459.06,454.66 2465.35,452.967 2472.9,452.967"/>
<path class="Note" d="M2645.54,477.373 C2647.43,477.373 2651.39,475.42 2657.41,471.514 C2663.44,467.608 2666.99,464.988 2668.06,463.654 C2669.13,462.321 2669.67,461.134 2669.67,460.092 C2669.67,459.05 2669.24,458.123 2668.4,457.311 C2667.55,456.498 2666.57,456.092 2665.47,456.092 C2663.52,456.092 2659.53,458.061 2653.51,461.998 C2647.48,465.936 2643.95,468.555 2642.9,469.858 C2641.86,471.16 2641.34,472.332 2641.34,473.373 C2641.34,474.415 2641.75,475.342 2642.57,476.154 C2643.39,476.967 2644.38,477.373 2645.54,477.373 M2664.5,452.967 C2670.09,452.967 2672.89,455.373 2672.89,460.186 C2672.89,462.529 2672.21,465.248 2670.84,468.342 C2669.48,471.436 2667.65,473.795 2665.37,475.42 C2660.36,478.805 2654.08,480.498 2646.53,480.498 C2640.92,480.498 2638.12,478.092 2638.12,473.279 C2638.12,471.134 2638.79,468.464 2640.12,465.272 C2641.46,462.079 2643.29,459.67 2645.64,458.045 C2650.66,454.66 2656.95,452.967 2664.5,452.967"/>
<path class="Note" d="M346.393,652.373 C348.278,652.373 352.234,650.42 358.26,646.514 C364.286,642.608 367.835,639.988 368.908,638.655 C369.981,637.321 370.518,636.134 370.518,635.092 C370.518,634.05 370.093,633.123 369.244,632.311 C368.395,631.498 367.419,631.092 366.315,631.092 C364.367,631.092 360.38,633.061 354.354,636.998 C348.328,640.936 344.794,643.556 343.752,644.858 C342.71,646.16 342.19,647.332 342.19,648.373 C342.19,649.415 342.598,650.342 343.416,651.155 C344.234,651.967 345.226,652.373 346.393,652.373 M365.346,627.967 C370.94,627.967 373.736,630.373 373.736,635.186 C373.736,637.53 373.054,640.248 371.69,643.342 C370.325,646.436 368.502,648.795 366.221,650.42 C361.21,653.806 354.929,655.498 347.377,655.498 C341.773,655.498 338.971,653.092 338.971,648.28 C338.971,646.134 339.637,643.464 340.971,640.272 C342.304,637.079 344.143,634.67 346.486,633.045 C351.507,629.66 357.794,627.967 365.346,627.967"/>
<path class="Note" d="M1002.03,577.373 C1003.91,577.373 1007.87,575.42 1013.89,571.514 C1019.92,567.608 1023.47,564.988 1024.54,563.655 C1025.62,562.321 1026.15,561.134 1026.15,560.092 C1026.15,559.05 1025.73,558.123 1024.88,557.311 C1024.03,556.498 1023.05,556.092 1021.95,556.092 C1020,556.092 1016.01,558.061 1009.99,561.998 C1003.96,565.936 1000.43,568.556 999.387,569.858 C998.345,571.16 997.824,572.332 997.824,573.373 C997.824,574.415 998.233,575.342 999.051,576.155 C999.868,576.967 1000.86,577.373 1002.03,577.373 M1020.98,552.967 C1026.57,552.967 1029.37,555.373 1029.37,560.186 C1029.37,562.53 1028.69,565.248 1027.32,568.342 C1025.96,571.436 1024.14,573.795 1021.86,575.42 C1016.85,578.806 1010.56,580.498 1003.01,580.498 C997.408,580.498 994.605,578.092 994.605,573.28 C994.605,571.134 995.272,568.464 996.605,565.272 C997.939,562.079 999.777,559.67 1002.12,558.045 C1007.14,554.66 1013.43,552.967 1020.98,552.967"/>
<path class="Note" d="M810.431,602.373 C812.317,602.373 816.273,600.42 822.299,596.514 C828.325,592.608 831.874,589.988 832.947,588.655 C834.02,587.321 834.556,586.134 834.556,585.092 C834.556,584.05 834.132,583.123 833.283,582.311 C832.434,581.498 831.457,581.092 830.353,581.092 C828.405,581.092 824.418,583.061 818.392,586.998 C812.366,590.936 808.832,593.556 807.791,594.858 C806.749,596.16 806.228,597.332 806.228,598.373 C806.228,599.415 806.637,600.342 807.455,601.155 C808.273,601.967 809.265,602.373 810.431,602.373 M829.385,577.967 C834.978,577.967 837.775,580.373 837.775,585.186 C837.775,587.53 837.093,590.248 835.728,593.342 C834.364,596.436 832.541,598.795 830.26,600.42 C825.249,603.806 818.968,605.498 811.416,605.498 C805.812,605.498 803.01,603.092 803.01,598.28 C803.01,596.134 803.676,593.464 805.01,590.272 C806.343,587.079 808.181,584.67 810.525,583.045 C815.546,579.66 821.832,577.967 829.385,577.967"/>
<path class="Note" d="M1112.78,589.873 C1114.66,589.873 1118.62,587.92 1124.64,584.014 C1130.67,580.108 1134.22,577.488 1135.29,576.155 C1136.37,574.821 1136.9,573.634 1136.9,572.592 C1136.9,571.55 1136.48,570.623 1135.63,569.811 C1134.78,568.998 1133.8,568.592 1132.7,568.592 C1130.75,568.592 1126.76,570.561 1120.74,574.498 C1114.71,578.436 1111.18,581.056 1110.14,582.358 C1109.09,583.66 1108.57,584.832 1108.57,585.873 C1108.57,586.915 1108.98,587.842 1109.8,588.655 C1110.62,589.467 1111.61,589.873 1112.78,589.873 M1131.73,565.467 C1137.32,565.467 1140.12,567.873 1140.12,572.686 C1140.12,575.03 1139.44,577.748 1138.07,580.842 C1136.71,583.936 1134.89,586.295 1132.6,587.92 C1127.59,591.306 1121.31,592.998 1113.76,592.998 C1108.16,592.998 1105.35,590.592 1105.35,585.78 C1105.35,583.634 1106.02,580.964 1107.35,577.772 C1108.69,574.579 1110.53,572.17 1112.87,570.545 C1117.89,567.16 1124.18,565.467 1131.73,565.467"/>
<path class="Note" d="M1193.62,577.373 C1195.51,577.373 1199.46,575.42 1205.49,571.514 C1211.52,567.608 1215.07,564.988 1216.14,563.655 C1217.21,562.321 1217.75,561.134 1217.75,560.092 C1217.75,559.05 1217.32,558.123 1216.47,557.311 C1215.63,556.498 1214.65,556.092 1213.55,556.092 C1211.6,556.092 1207.61,558.061 1201.58,561.998 C1195.56,565.936 1192.02,568.556 1190.98,569.858 C1189.94,571.16 1189.42,572.332 1189.42,573.373 C1189.42,574.415 1189.83,575.342 1190.65,576.155 C1191.46,576.967 1192.46,577.373 1193.62,577.373 M1212.58,552.967 C1218.17,552.967 1220.97,555.373 1220.97,560.186 C1220.97,562.53 1220.28,565.248 1218.92,568.342 C1217.56,571.436 1215.73,573.795 1213.45,575.42 C1208.44,578.806 1202.16,580.498 1194.61,580.498 C1189,580.498 1186.2,578.092 1186.2,573.28 C1186.2,571.134 1186.87,568.464 1188.2,565.272 C1189.53,562.079 1191.37,559.67 1193.72,558.045 C1198.74,554.66 1205.02,552.967 1212.58,552.967"/>
<path class="Note" d="M729.585,614.873 C731.47,614.873 735.426,612.92 741.452,609.014 C747.478,605.108 751.027,602.488 752.1,601.155 C753.173,599.821 753.71,598.634 753.71,597.592 C753.71,596.55 753.285,595.623 752.436,594.811 C751.587,593.998 750.611,593.592 749.506,593.592 C747.559,593.592 743.572,595.561 737.546,599.498 C731.519,603.436 727.986,606.056 726.944,607.358 C725.902,608.66 725.381,609.832 725.381,610.873 C725.381,611.915 725.79,612.842 726.608,613.655 C727.426,614.467 728.418,614.873 729.585,614.873 M748.538,590.467 C754.131,590.467 756.928,592.873 756.928,597.686 C756.928,600.03 756.246,602.748 754.881,605.842 C753.517,608.936 751.694,611.295 749.413,612.92 C744.402,616.306 738.121,617.998 730.569,617.998 C724.965,617.998 722.163,615.592 722.163,610.78 C722.163,608.634 722.829,605.964 724.163,602.772 C725.496,599.579 727.335,597.17 729.678,595.545 C734.699,592.16 740.986,590.467 748.538,590.467"/>
<path class="Note" d="M1304.37,564.873 C1306.26,564.873 1310.21,562.92 1316.24,559.014 C1322.27,555.108 1325.82,552.488 1326.89,551.154 C1327.96,549.821 1328.5,548.634 1328.5,547.592 C1328.5,546.55 1328.07,545.623 1327.22,544.811 C1326.38,543.998 1325.4,543.592 1324.29,543.592 C1322.35,543.592 1318.36,545.561 1312.33,549.498 C1306.31,553.436 1302.77,556.056 1301.73,557.358 C1300.69,558.66 1300.17,559.832 1300.17,560.873 C1300.17,561.915 1300.58,562.842 1301.4,563.654 C1302.21,564.467 1303.21,564.873 1304.37,564.873 M1323.33,540.467 C1328.92,540.467 1331.72,542.873 1331.72,547.686 C1331.72,550.029 1331.03,552.748 1329.67,555.842 C1328.3,558.936 1326.48,561.295 1324.2,562.92 C1319.19,566.306 1312.91,567.998 1305.36,567.998 C1299.75,567.998 1296.95,565.592 1296.95,560.779 C1296.95,558.634 1297.62,555.964 1298.95,552.772 C1300.28,549.579 1302.12,547.17 1304.47,545.545 C1309.49,542.16 1315.77,540.467 1323.33,540.467"/>
<path class="Note" d="M1385.22,552.373 C1387.1,552.373 1391.06,550.42 1397.09,546.514 C1403.11,542.608 1406.66,539.988 1407.73,538.654 C1408.81,537.321 1409.34,536.134 1409.34,535.092 C1409.34,534.05 1408.92,533.123 1408.07,532.311 C1407.22,531.498 1406.25,531.092 1405.14,531.092 C1403.19,531.092 1399.21,533.061 1393.18,536.998 C1387.15,540.936 1383.62,543.556 1382.58,544.858 C1381.54,546.16 1381.02,547.332 1381.02,548.373 C1381.02,549.415 1381.43,550.342 1382.24,551.154 C1383.06,551.967 1384.05,552.373 1385.22,552.373 M1404.17,527.967 C1409.77,527.967 1412.56,530.373 1412.56,535.186 C1412.56,537.529 1411.88,540.248 1410.52,543.342 C1409.15,546.436 1407.33,548.795 1405.05,550.42 C1400.04,553.806 1393.76,555.498 1386.2,555.498 C1380.6,555.498 1377.8,553.092 1377.8,548.279 C1377.8,546.134 1378.46,543.464 1379.8,540.272 C1381.13,537.079 1382.97,534.67 1385.31,533.045 C1390.33,529.66 1396.62,527.967 1404.17,527.967"/>
<path class="Note" d="M1495.97,564.873 C1497.85,564.873 1501.81,562.92 1507.84,559.014 C1513.86,555.108 1517.41,552.488 1518.48,551.154 C1519.56,549.821 1520.09,548.634 1520.09,547.592 C1520.09,546.55 1519.67,545.623 1518.82,544.811 C1517.97,543.998 1516.99,543.592 1515.89,543.592 C1513.94,543.592 1509.96,545.561 1503.93,549.498 C1497.9,553.436 1494.37,556.056 1493.33,557.358 C1492.29,558.66 1491.77,559.832 1491.77,560.873 C1491.77,561.915 1492.17,562.842 1492.99,563.654 C1493.81,564.467 1494.8,564.873 1495.97,564.873 M1514.92,540.467 C1520.52,540.467 1523.31,542.873 1523.31,547.686 C1523.31,550.029 1522.63,552.748 1521.27,555.842 C1519.9,558.936 1518.08,561.295 1515.8,562.92 C1510.79,566.306 1504.5,567.998 1496.95,567.998 C1491.35,567.998 1488.55,565.592 1488.55,560.779 C1488.55,558.634 1489.21,555.964 1490.55,552.772 C1491.88,549.579 1493.72,547.17 1496.06,545.545 C1501.08,542.16 1507.37,540.467 1514.92,540.467"/>
<path class="Note" d="M1576.82,539.873 C1578.7,539.873 1582.66,537.92 1588.68,534.014 C1594.71,530.108 1598.26,527.488 1599.33,526.154 C1600.4,524.821 1600.94,523.634 1600.94,522.592 C1600.94,521.55 1600.52,520.623 1599.67,519.811 C1598.82,518.998 1597.84,518.592 1596.74,518.592 C1594.79,518.592 1590.8,520.561 1584.78,524.498 C1578.75,528.436 1575.22,531.056 1574.17,532.358 C1573.13,533.66 1572.61,534.832 1572.61,535.873 C1572.61,536.915 1573.02,537.842 1573.84,538.654 C1574.66,539.467 1575.65,539.873 1576.82,539.873 M1595.77,515.467 C1601.36,515.467 1604.16,517.873 1604.16,522.686 C1604.16,525.029 1603.48,527.748 1602.11,530.842 C1600.75,533.936 1598.92,536.295 1596.64,537.92 C1591.63,541.306 1585.35,542.998 1577.8,542.998 C1572.2,542.998 1569.39,540.592 1569.39,535.779 C1569.39,533.634 1570.06,530.964 1571.39,527.772 C1572.73,524.579 1574.57,522.17 1576.91,520.545 C1581.93,517.16 1588.22,515.467 1595.77,515.467"/>
<path class="Note" d="M618.835,602.373 C620.721,602.373 624.677,600.42 630.703,596.514 C636.729,592.608 640.278,589.988 641.351,588.655 C642.424,587.321 642.96,586.134 642.96,585.092 C642.96,584.05 642.536,583.123 641.687,582.311 C640.838,581.498 639.861,581.092 638.757,581.092 C636.809,581.092 632.822,583.061 626.796,586.998 C620.77,590.936 617.236,593.556 616.195,594.858 C615.153,596.16 614.632,597.332 614.632,598.373 C614.632,599.415 615.041,600.342 615.859,601.155 C616.677,601.967 617.669,602.373 618.835,602.373 M637.789,577.967 C643.382,577.967 646.179,580.373 646.179,585.186 C646.179,587.53 645.497,590.248 644.132,593.342 C642.768,596.436 640.945,598.795 638.664,600.42 C633.653,603.806 627.372,605.498 619.82,605.498 C614.216,605.498 611.414,603.092 611.414,598.28 C611.414,596.134 612.08,593.464 613.414,590.272 C614.747,587.079 616.585,584.67 618.929,583.045 C623.95,579.66 630.236,577.967 637.789,577.967"/>
<path class="Note" d="M1687.56,527.373 C1689.45,527.373 1693.41,525.42 1699.43,521.514 C1705.46,517.608 1709.01,514.988 1710.08,513.654 C1711.15,512.321 1711.69,511.134 1711.69,510.092 C1711.69,509.05 1711.26,508.123 1710.42,507.311 C1709.57,506.498 1708.59,506.092 1707.49,506.092 C1705.54,506.092 1701.55,508.061 1695.53,511.998 C1689.5,515.936 1685.97,518.556 1684.92,519.858 C1683.88,521.16 1683.36,522.332 1683.36,523.373 C1683.36,524.415 1683.77,525.342 1684.59,526.154 C1685.41,526.967 1686.4,527.373 1687.56,527.373 M1706.52,502.967 C1712.11,502.967 1714.91,505.373 1714.91,510.186 C1714.91,512.529 1714.23,515.248 1712.86,518.342 C1711.5,521.436 1709.67,523.795 1707.39,525.42 C1702.38,528.806 1696.1,530.498 1688.55,530.498 C1682.94,530.498 1680.14,528.092 1680.14,523.279 C1680.14,521.134 1680.81,518.464 1682.14,515.272 C1683.48,512.079 1685.31,509.67 1687.66,508.045 C1692.68,504.66 1698.97,502.967 1706.52,502.967"/>
<path class="Note" d="M1768.41,514.873 C1770.3,514.873 1774.25,512.92 1780.28,509.014 C1786.3,505.108 1789.85,502.488 1790.93,501.154 C1792,499.821 1792.54,498.634 1792.54,497.592 C1792.54,496.55 1792.11,495.623 1791.26,494.811 C1790.41,493.998 1789.44,493.592 1788.33,493.592 C1786.39,493.592 1782.4,495.561 1776.37,499.498 C1770.35,503.436 1766.81,506.056 1765.77,507.358 C1764.73,508.66 1764.21,509.832 1764.21,510.873 C1764.21,511.915 1764.62,512.842 1765.43,513.654 C1766.25,514.467 1767.24,514.873 1768.41,514.873 M1787.36,490.467 C1792.96,490.467 1795.75,492.873 1795.75,497.686 C1795.75,500.029 1795.07,502.748 1793.71,505.842 C1792.34,508.936 1790.52,511.295 1788.24,512.92 C1783.23,516.306 1776.95,517.998 1769.4,517.998 C1763.79,517.998 1760.99,515.592 1760.99,510.779 C1760.99,508.634 1761.66,505.964 1762.99,502.772 C1764.32,499.579 1766.16,497.17 1768.5,495.545 C1773.53,492.16 1779.81,490.467 1787.36,490.467"/>
<path class="Note" d="M537.989,614.873 C539.874,614.873 543.83,612.92 549.856,609.014 C555.882,605.108 559.431,602.488 560.504,601.155 C561.577,599.821 562.114,598.634 562.114,597.592 C562.114,596.55 561.689,595.623 560.84,594.811 C559.991,593.998 559.015,593.592 557.91,593.592 C555.963,593.592 551.976,595.561 545.95,599.498 C539.924,603.436 536.39,606.056 535.348,607.358 C534.306,608.66 533.785,609.832 533.785,610.873 C533.785,611.915 534.194,612.842 535.012,613.655 C535.83,614.467 536.822,614.873 537.989,614.873 M556.942,590.467 C562.535,590.467 565.332,592.873 565.332,597.686 C565.332,600.03 564.65,602.748 563.285,605.842 C561.921,608.936 560.098,611.295 557.817,612.92 C552.806,616.306 546.525,617.998 538.973,617.998 C533.369,617.998 530.567,615.592 530.567,610.78 C530.567,608.634 531.233,605.964 532.567,602.772 C533.9,599.579 535.739,597.17 538.082,595.545 C543.103,592.16 549.39,590.467 556.942,590.467"/>
<path class="Note" d="M1879.16,527.373 C1881.05,527.373 1885,525.42 1891.03,521.514 C1897.05,517.608 1900.6,514.988 1901.68,513.654 C1902.75,512.321 1903.29,511.134 1903.29,510.092 C1903.29,509.05 1902.86,508.123 1902.01,507.311 C1901.16,506.498 1900.19,506.092 1899.08,506.092 C1897.13,506.092 1893.15,508.061 1887.12,511.998 C1881.1,515.936 1877.56,518.556 1876.52,519.858 C1875.48,521.16 1874.96,522.332 1874.96,523.373 C1874.96,524.415 1875.37,525.342 1876.18,526.154 C1877,526.967 1877.99,527.373 1879.16,527.373 M1898.11,502.967 C1903.71,502.967 1906.5,505.373 1906.5,510.186 C1906.5,512.529 1905.82,515.248 1904.46,518.342 C1903.09,521.436 1901.27,523.795 1898.99,525.42 C1893.98,528.806 1887.7,530.498 1880.14,530.498 C1874.54,530.498 1871.74,528.092 1871.74,523.279 C1871.74,521.134 1872.41,518.464 1873.74,515.272 C1875.07,512.079 1876.91,509.67 1879.25,508.045 C1884.27,504.66 1890.56,502.967 1898.11,502.967"/>
<path class="Note" d="M1960.01,514.873 C1961.89,514.873 1965.85,512.92 1971.87,509.014 C1977.9,505.108 1981.45,502.488 1982.52,501.154 C1983.6,499.821 1984.13,498.634 1984.13,497.592 C1984.13,496.55 1983.71,495.623 1982.86,494.811 C1982.01,493.998 1981.03,493.592 1979.93,493.592 C1977.98,493.592 1973.99,495.561 1967.97,499.498 C1961.94,503.436 1958.41,506.056 1957.37,507.358 C1956.32,508.66 1955.8,509.832 1955.8,510.873 C1955.8,511.915 1956.21,512.842 1957.03,513.654 C1957.85,514.467 1958.84,514.873 1960.01,514.873 M1978.96,490.467 C1984.55,490.467 1987.35,492.873 1987.35,497.686 C1987.35,500.029 1986.67,502.748 1985.3,505.842 C1983.94,508.936 1982.12,511.295 1979.84,512.92 C1974.82,516.306 1968.54,517.998 1960.99,517.998 C1955.39,517.998 1952.59,515.592 1952.59,510.779 C1952.59,508.634 1953.25,505.964 1954.59,502.772 C1955.92,499.579 1957.76,497.17 1960.1,495.545 C1965.12,492.16 1971.41,490.467 1978.96,490.467"/>
<path class="Note" d="M427.239,627.373 C429.125,627.373 433.081,625.42 439.107,621.514 C445.133,617.608 448.682,614.988 449.755,613.655 C450.828,612.321 451.364,611.134 451.364,610.092 C451.364,609.05 450.94,608.123 450.091,607.311 C449.242,606.498 448.265,606.092 447.161,606.092 C445.213,606.092 441.226,608.061 435.2,611.998 C429.174,615.936 425.64,618.556 424.599,619.858 C423.557,621.16 423.036,622.332 423.036,623.373 C423.036,624.415 423.445,625.342 424.263,626.155 C425.081,626.967 426.073,627.373 427.239,627.373 M446.193,602.967 C451.786,602.967 454.583,605.373 454.583,610.186 C454.583,612.53 453.901,615.248 452.536,618.342 C451.172,621.436 449.349,623.795 447.068,625.42 C442.057,628.806 435.776,630.498 428.224,630.498 C422.62,630.498 419.818,628.092 419.818,623.28 C419.818,621.134 420.484,618.464 421.818,615.272 C423.151,612.079 424.989,609.67 427.333,608.045 C432.354,604.66 438.64,602.967 446.193,602.967"/>
<path class="Note" d="M2070.76,502.373 C2072.64,502.373 2076.6,500.42 2082.62,496.514 C2088.65,492.608 2092.2,489.988 2093.27,488.654 C2094.34,487.321 2094.88,486.134 2094.88,485.092 C2094.88,484.05 2094.46,483.123 2093.61,482.311 C2092.76,481.498 2091.78,481.092 2090.68,481.092 C2088.73,481.092 2084.74,483.061 2078.72,486.998 C2072.69,490.936 2069.16,493.555 2068.12,494.858 C2067.07,496.16 2066.55,497.332 2066.55,498.373 C2066.55,499.415 2066.96,500.342 2067.78,501.154 C2068.6,501.967 2069.59,502.373 2070.76,502.373 M2089.71,477.967 C2095.3,477.967 2098.1,480.373 2098.1,485.186 C2098.1,487.529 2097.42,490.248 2096.05,493.342 C2094.69,496.436 2092.87,498.795 2090.58,500.42 C2085.57,503.805 2079.29,505.498 2071.74,505.498 C2066.14,505.498 2063.33,503.092 2063.33,498.279 C2063.33,496.134 2064,493.464 2065.33,490.272 C2066.67,487.079 2068.51,484.67 2070.85,483.045 C2075.87,479.66 2082.16,477.967 2089.71,477.967"/>
<path class="Note" d="M2151.6,489.873 C2153.49,489.873 2157.44,487.92 2163.47,484.014 C2169.5,480.108 2173.05,477.488 2174.12,476.154 C2175.19,474.821 2175.73,473.634 2175.73,472.592 C2175.73,471.55 2175.3,470.623 2174.45,469.811 C2173.61,468.998 2172.63,468.592 2171.53,468.592 C2169.58,468.592 2165.59,470.561 2159.56,474.498 C2153.54,478.436 2150,481.055 2148.96,482.358 C2147.92,483.66 2147.4,484.832 2147.4,485.873 C2147.4,486.915 2147.81,487.842 2148.63,488.654 C2149.44,489.467 2150.44,489.873 2151.6,489.873 M2170.56,465.467 C2176.15,465.467 2178.95,467.873 2178.95,472.686 C2178.95,475.029 2178.26,477.748 2176.9,480.842 C2175.54,483.936 2173.71,486.295 2171.43,487.92 C2166.42,491.305 2160.14,492.998 2152.59,492.998 C2146.98,492.998 2144.18,490.592 2144.18,485.779 C2144.18,483.634 2144.85,480.964 2146.18,477.772 C2147.51,474.579 2149.35,472.17 2151.7,470.545 C2156.72,467.16 2163,465.467 2170.56,465.467"/>
<path class="Note" d="M2262.35,502.373 C2264.24,502.373 2268.19,500.42 2274.22,496.514 C2280.25,492.608 2283.8,489.988 2284.87,488.654 C2285.94,487.321 2286.48,486.134 2286.48,485.092 C2286.48,484.05 2286.05,483.123 2285.2,482.311 C2284.35,481.498 2283.38,481.092 2282.27,481.092 C2280.33,481.092 2276.34,483.061 2270.31,486.998 C2264.29,490.936 2260.75,493.555 2259.71,494.858 C2258.67,496.16 2258.15,497.332 2258.15,498.373 C2258.15,499.415 2258.56,500.342 2259.38,501.154 C2260.19,501.967 2261.19,502.373 2262.35,502.373 M2281.31,477.967 C2286.9,477.967 2289.7,480.373 2289.7,485.186 C2289.7,487.529 2289.01,490.248 2287.65,493.342 C2286.28,496.436 2284.46,498.795 2282.18,500.42 C2277.17,503.805 2270.89,505.498 2263.34,505.498 C2257.73,505.498 2254.93,503.092 2254.93,498.279 C2254.93,496.134 2255.6,493.464 2256.93,490.272 C2258.26,487.079 2260.1,484.67 2262.45,483.045 C2267.47,479.66 2273.75,477.967 2281.31,477.967"/>
<path class="Clef" d="M203.623,673.858 L203.623,671.717 C203.56,670.613 203.399,668.889 203.139,666.545 C199.889,667.066 196.993,667.326 194.451,667.326 C185.337,667.326 177.605,663.727 171.256,656.53 C164.907,649.332 161.732,640.754 161.732,630.795 C161.732,628.129 162.253,624.923 163.295,621.178 C164.337,617.433 165.297,614.925 166.178,613.655 C167.058,612.384 168.378,610.155 170.139,606.967 C170.659,605.988 172.352,603.837 175.217,600.514 C175.738,599.806 176.193,599.222 176.584,598.764 C176.975,598.306 177.607,597.49 178.482,596.319 C179.357,595.147 180.3,594.056 181.31,593.045 C182.321,592.035 183.217,591.058 183.998,590.115 C184.779,589.173 185.498,588.379 186.154,587.733 C183.81,579.983 182.378,574.024 181.857,569.858 C181.337,565.691 181.076,560.579 181.076,554.522 C181.076,548.464 182.378,542.962 184.982,538.014 C187.514,532.879 191.06,528.681 195.623,525.42 C195.883,525.222 196.225,525.123 196.646,525.123 C197.068,525.123 197.378,525.222 197.576,525.42 C201.087,529.649 204.128,535.149 206.701,541.92 C209.274,548.691 210.56,555.024 210.56,560.92 C210.56,566.816 209.066,572.498 206.076,577.967 C202.691,583.759 198.326,589.748 192.982,595.936 C194.347,600.227 196.17,606.962 198.451,616.139 L199.045,616.139 C199.305,616.076 199.529,616.045 199.717,616.045 C207.081,616.045 213.089,618.634 217.74,623.811 C222.391,628.988 224.717,634.962 224.717,641.733 C224.717,650.129 221.238,656.899 214.279,662.045 C212.258,663.545 209.878,664.717 207.139,665.561 C207.472,669.79 207.639,672.605 207.639,674.006 C207.639,675.407 207.571,677.899 207.435,681.483 C207.373,687.597 205.29,692.837 201.185,697.201 C197.081,701.566 192.394,703.748 187.123,703.748 C181.852,703.748 177.36,701.876 173.646,698.131 C169.933,694.386 168.076,689.847 168.076,684.514 C168.076,681.712 169.154,679.332 171.31,677.373 C173.519,675.425 176.006,674.451 178.771,674.451 C181.537,674.451 183.8,675.462 185.56,677.483 C187.383,679.368 188.295,681.644 188.295,684.311 C188.295,686.977 187.383,689.222 185.56,691.045 C183.738,692.868 181.555,693.78 179.014,693.78 C177.972,693.78 176.967,693.587 175.998,693.201 C178.863,697.431 182.54,699.545 187.029,699.545 C191.519,699.545 195.36,697.691 198.553,693.983 C201.745,690.274 203.342,685.91 203.342,680.889 L203.623,673.858 M206.748,661.561 C210.133,660.321 212.821,658.123 214.81,654.967 C216.8,651.811 217.795,648.67 217.795,645.545 C217.795,640.92 216.199,636.785 213.006,633.139 C209.813,629.493 205.774,627.441 200.889,626.983 C203.691,640.722 205.644,652.248 206.748,661.561 M168.967,638.998 C168.967,645.446 171.537,651.079 176.678,655.897 C181.818,660.714 187.842,663.123 194.748,663.123 C197.477,663.123 200.144,662.925 202.748,662.53 C201.706,652.634 199.654,640.785 196.592,626.983 C192.758,627.379 189.782,628.699 187.662,630.944 C185.542,633.188 184.482,635.743 184.482,638.608 C184.482,643.556 187.123,647.561 192.404,650.623 C192.852,650.884 193.076,651.324 193.076,651.944 C193.076,652.563 192.865,653.1 192.443,653.553 C192.021,654.006 191.649,654.233 191.326,654.233 C191.003,654.233 190.581,654.17 190.06,654.045 C182.435,649.879 178.623,643.592 178.623,635.186 C178.623,631.217 180.024,627.41 182.826,623.764 C185.753,620.118 189.56,617.774 194.248,616.733 C192.425,609.441 190.93,603.743 189.764,599.639 C180.847,609.67 175.31,617.092 173.154,621.905 C170.363,628.155 168.967,633.852 168.967,638.998 M201.576,539.686 C196.691,542.092 192.834,545.574 190.006,550.131 C187.178,554.688 185.764,559.472 185.764,564.483 C185.764,569.493 186.935,575.972 189.279,583.92 C193.967,578.254 197.514,572.946 199.92,567.998 C202.326,563.05 203.529,558.152 203.529,553.303 C203.529,548.454 202.878,543.915 201.576,539.686"/>
<path class="TimeSig" d="M273.021,567.912 C274.516,567.912 275.949,567.686 277.318,567.233 C278.688,566.78 279.665,566.553 280.248,566.553 C280.831,566.553 281.222,566.907 281.42,567.615 C281.42,567.688 281.352,567.886 281.217,568.209 L252.811,601.225 L269.498,601.225 L269.498,588.131 C269.498,586.506 270.446,585.334 272.342,584.615 C274.29,583.897 276.503,581.001 278.982,575.928 C279.17,575.532 279.462,575.334 279.857,575.334 C280.639,575.334 281.092,575.793 281.217,576.709 L281.217,601.225 L288.357,601.225 C289.264,601.225 289.751,601.712 289.818,602.686 C289.886,603.66 289.399,604.147 288.357,604.147 L281.217,604.147 L281.217,604.928 C281.217,607.532 281.868,609.746 283.17,611.569 C284.67,613.391 286.43,614.303 288.451,614.303 C289.232,614.303 289.623,614.694 289.623,615.475 C289.623,616.256 289.087,616.647 288.014,616.647 C286.941,616.647 284.938,616.436 282.006,616.014 C279.074,615.592 276.811,615.381 275.217,615.381 C273.623,615.381 271.41,615.592 268.576,616.014 C265.743,616.436 263.613,616.647 262.186,616.647 C261.404,616.647 261.014,616.256 261.014,615.475 C261.014,614.694 261.404,614.303 262.186,614.303 C264.196,614.303 265.951,613.391 267.451,611.569 C268.816,609.683 269.498,607.47 269.498,604.928 L269.498,604.147 L252.811,604.147 C251.956,604.147 251.219,603.92 250.6,603.467 C249.98,603.014 249.67,602.592 249.67,602.201 C249.67,601.811 250.485,600.639 252.115,598.686 C253.745,596.733 256.074,592.972 259.1,587.405 C262.126,581.837 263.639,575.438 263.639,568.209 C263.639,567.168 264.097,566.647 265.014,566.647 C265.212,566.647 265.521,566.712 265.943,566.842 C266.365,566.972 267.277,567.183 268.678,567.475 C270.079,567.766 271.527,567.912 273.021,567.912"/>
<path class="TimeSig" d="M273.021,618.084 C274.516,618.084 275.949,617.858 277.318,617.405 C278.688,616.951 279.665,616.725 280.248,616.725 C280.831,616.725 281.222,617.079 281.42,617.787 C281.42,617.86 281.352,618.058 281.217,618.381 L252.811,651.397 L269.498,651.397 L269.498,638.303 C269.498,636.678 270.446,635.506 272.342,634.787 C274.29,634.069 276.503,631.173 278.982,626.1 C279.17,625.704 279.462,625.506 279.857,625.506 C280.639,625.506 281.092,625.964 281.217,626.881 L281.217,651.397 L288.357,651.397 C289.264,651.397 289.751,651.884 289.818,652.858 C289.886,653.832 289.399,654.319 288.357,654.319 L281.217,654.319 L281.217,655.1 C281.217,657.704 281.868,659.918 283.17,661.74 C284.67,663.563 286.43,664.475 288.451,664.475 C289.232,664.475 289.623,664.865 289.623,665.647 C289.623,666.428 289.087,666.819 288.014,666.819 C286.941,666.819 284.938,666.608 282.006,666.186 C279.074,665.764 276.811,665.553 275.217,665.553 C273.623,665.553 271.41,665.764 268.576,666.186 C265.743,666.608 263.613,666.819 262.186,666.819 C261.404,666.819 261.014,666.428 261.014,665.647 C261.014,664.865 261.404,664.475 262.186,664.475 C264.196,664.475 265.951,663.563 267.451,661.74 C268.816,659.855 269.498,657.642 269.498,655.1 L269.498,654.319 L252.811,654.319 C251.956,654.319 251.219,654.092 250.6,653.639 C249.98,653.186 249.67,652.764 249.67,652.373 C249.67,651.983 250.485,650.811 252.115,648.858 C253.745,646.905 256.074,643.144 259.1,637.576 C262.126,632.009 263.639,625.61 263.639,618.381 C263.639,617.339 264.097,616.819 265.014,616.819 C265.212,616.819 265.521,616.884 265.943,617.014 C266.365,617.144 267.277,617.355 268.678,617.647 C270.079,617.938 271.527,618.084 273.021,618.084"/>
<path class="Rest" d="M2756.4,616.733 L2720.86,616.733 C2720.2,616.733 2719.87,616.405 2719.87,615.748 L2719.87,602.076 C2719.87,601.431 2720.2,601.108 2720.86,601.108 L2756.4,601.108 C2757.05,601.108 2757.37,601.431 2757.37,602.076 L2757.37,615.748 C2757.37,616.405 2757.05,616.733 2756.4,616.733"/>
</svg>
