<?xml version="1.0" encoding="UTF-8" standalone="no"?>
<svg width="2977.2px" height="4208.4px" viewBox="0 0 2977.2 4208.4"
 xmlns="http://www.w3.org/2000/svg" xmlns:xlink="http://www.w3.org/1999/xlink" version="1.2" baseProfile="tiny">
<title>O_Come_All_Ye_Faithful_C_.mscx</title>
<desc>Generated by MuseScore Studio 4.3.1</desc>
<path class="" fill="#ffffff" fill-rule="evenodd" d="M0,0 L2977.2,0 L2977.2,4208.4 L0,4208.4 L0,0 "/>
<polyline class="StaffLines" fill="none" stroke="#000000" stroke-width="2.00" stroke-linejoin="bevel" points="141.732,316.732 2835.47,316.732"/>
<polyline class="StaffLines" fill="none" stroke="#000000" stroke-width="2.00" stroke-linejoin="bevel" points="141.732,341.732 2835.47,341.732"/>
<polyline class="StaffLines" fill="none" stroke="#000000" stroke-width="2.00" stroke-linejoin="bevel" points="141.732,366.733 2835.47,366.733"/>
<polyline class="StaffLines" fill="none" stroke="#000000" stroke-width="2.00" stroke-linejoin="bevel" points="141.732,391.733 2835.47,391.733"/>
<polyline class="StaffLines" fill="none" stroke="#000000" stroke-width="2.00" stroke-linejoin="bevel" points="141.732,416.733 2835.47,416.733"/>
<polyline class="StaffLines" fill="none" stroke="#000000" stroke-width="2.00" stroke-linejoin="bevel" points="141.732,791.733 2835.47,791.733"/>
<polyline class="StaffLines" fill="none" stroke="#000000" stroke-width="2.00" stroke-linejoin="bevel" points="141.732,816.733 2835.47,816.733"/>
<polyline class="StaffLines" fill="none" stroke="#000000" stroke-width="2.00" stroke-linejoin="bevel" points="141.732,841.733 2835.47,841.733"/>
<polyline class="StaffLines" fill="none" stroke="#000000" stroke-width="2.00" stroke-linejoin="bevel" points="141.732,866.733 2835.47,866.733"/>
<polyline class="StaffLines" fill="none" stroke="#000000" stroke-width="2.00" stroke-linejoin="bevel" points="141.732,891.733 2835.47,891.733"/>
<polyline class="StaffLines" fill="none" stroke="#000000" stroke-width="2.00" stroke-linejoin="bevel" points="141.732,1266.73 2835.47,1266.73"/>
<polyline class="StaffLines" fill="none" stroke="#000000" stroke-width="2.00" stroke-linejoin="bevel" points="141.732,1291.73 2835.47,1291.73"/>
<polyline class="StaffLines" fill="none" stroke="#000000" stroke-width="2.00" stroke-linejoin="bevel" points="141.732,1316.73 2835.47,1316.73"/>
<polyline class="StaffLines" fill="none" stroke="#000000" stroke-width="2.00" stroke-linejoin="bevel" points="141.732,1341.73 2835.47,1341.73"/>
<polyline class="StaffLines" fill="none" stroke="#000000" stroke-width="2.00" stroke-linejoin="bevel" points="141.732,1366.73 2835.47,1366.73"/>
<polyline class="StaffLines" fill="none" stroke="#000000" stroke-width="2.00" stroke-linejoin="bevel" points="141.732,1741.73 2835.47,1741.73"/>
<polyline class="StaffLines" fill="none" stroke="#000000" stroke-width="2.00" stroke-linejoin="bevel" points="141.732,1766.73 2835.47,1766.73"/>
<polyline class="StaffLines" fill="none" stroke="#000000" stroke-width="2.00" stroke-linejoin="bevel" points="141.732,1791.73 2835.47,1791.73"/>
<polyline class="StaffLines" fill="none" stroke="#000000" stroke-width="2.00" stroke-linejoin="bevel" points="141.732,1816.73 2835.47,1816.73"/>
<polyline class="StaffLines" fill="none" stroke="#000000" stroke-width="2.00" stroke-linejoin="bevel" points="141.732,1841.73 2835.47,1841.73"/>
<polyline class="StaffLines" fill="none" stroke="#000000" stroke-width="2.00" stroke-linejoin="bevel" points="141.732,2216.73 2835.47,2216.73"/>
<polyline class="StaffLines" fill="none" stroke="#000000" stroke-width="2.00" stroke-linejoin="bevel" points="141.732,2241.73 2835.47,2241.73"/>
<polyline class="StaffLines" fill="none" stroke="#000000" stroke-width="2.00" stroke-linejoin="bevel" points="141.732,2266.73 2835.47,2266.73"/>
<polyline class="StaffLines" fill="none" stroke="#000000" stroke-width="2.00" stroke-linejoin="bevel" points="141.732,2291.73 2835.47,2291.73"/>
<polyline class="StaffLines" fill="none" stroke="#000000" stroke-width="2.00" stroke-linejoin="bevel" points="141.732,2316.73 2835.47,2316.73"/>
<path class="MeasureNumber" d="M142.045,742.295 C139.357,742.295 137.193,741.22 135.553,739.069 C133.912,736.918 133.092,734.076 133.092,730.545 C133.092,729.462 133.199,728.34 133.412,727.178 C133.626,726.017 134.092,724.699 134.81,723.225 C135.529,721.751 136.462,720.428 137.607,719.256 C138.753,718.084 140.36,717.037 142.428,716.116 C144.495,715.194 146.878,714.613 149.576,714.373 L149.654,715.014 C146.508,715.524 143.881,716.8 141.771,718.842 C139.662,720.884 138.342,723.41 137.81,726.42 C139.06,725.701 140.006,725.235 140.646,725.022 C141.287,724.808 142.05,724.701 142.935,724.701 C145.227,724.701 147.053,725.444 148.412,726.928 C149.771,728.412 150.451,730.415 150.451,732.936 C150.451,735.696 149.67,737.946 148.107,739.686 C146.545,741.425 144.524,742.295 142.045,742.295 M141.404,726.451 C139.592,726.451 138.373,726.85 137.748,727.647 C137.123,728.444 136.81,729.623 136.81,731.186 C136.81,734.259 137.318,736.678 138.334,738.444 C139.35,740.209 140.738,741.092 142.498,741.092 C143.904,741.092 144.982,740.501 145.732,739.319 C146.482,738.136 146.857,736.462 146.857,734.295 C146.857,731.795 146.383,729.863 145.435,728.498 C144.488,727.134 143.144,726.451 141.404,726.451"/>
<path class="MeasureNumber" d="M127.045,1193.01 C126.566,1193.01 125.607,1193.31 124.17,1193.89 L124.17,1193.34 L131.373,1189.7 L131.685,1189.78 L131.685,1213.78 C131.685,1214.74 131.925,1215.36 132.404,1215.65 C132.883,1215.95 133.909,1216.11 135.482,1216.14 L135.482,1216.73 L124.451,1216.73 L124.451,1216.14 C125.941,1216.08 126.946,1215.85 127.467,1215.47 C127.988,1215.08 128.248,1214.26 128.248,1213.01 L128.248,1194.89 C128.248,1193.64 127.847,1193.01 127.045,1193.01 M156.271,1213.45 C154.62,1216.01 152.435,1217.3 149.717,1217.3 C146.998,1217.3 144.81,1215.99 143.154,1213.37 C141.498,1210.76 140.67,1207.4 140.67,1203.3 C140.67,1199.43 141.498,1196.2 143.154,1193.6 C144.81,1191 147.05,1189.7 149.873,1189.7 C152.488,1189.7 154.62,1190.98 156.271,1193.54 C157.922,1196.1 158.748,1199.43 158.748,1203.53 C158.748,1207.58 157.922,1210.89 156.271,1213.45 M149.748,1190.73 C146.258,1190.73 144.514,1195.04 144.514,1203.65 C144.514,1212.05 146.248,1216.25 149.717,1216.25 C153.185,1216.25 154.92,1212.04 154.92,1203.61 C154.92,1199.43 154.48,1196.24 153.6,1194.04 C152.719,1191.83 151.435,1190.73 149.748,1190.73"/>
<path class="MeasureNumber" d="M127.545,1668.01 C127.066,1668.01 126.107,1668.31 124.67,1668.89 L124.67,1668.34 L131.873,1664.7 L132.185,1664.78 L132.185,1688.78 C132.185,1689.74 132.425,1690.36 132.904,1690.66 C133.383,1690.95 134.409,1691.11 135.982,1691.14 L135.982,1691.73 L124.951,1691.73 L124.951,1691.14 C126.441,1691.08 127.446,1690.85 127.967,1690.47 C128.488,1690.08 128.748,1689.26 128.748,1688.01 L128.748,1669.89 C128.748,1668.64 128.347,1668.01 127.545,1668.01 M159.092,1682.66 L159.092,1685.06 L155.014,1685.06 L155.014,1691.73 L151.935,1691.73 L151.935,1685.06 L140.701,1685.06 L140.701,1682.66 L153.248,1664.7 L155.014,1664.7 L155.014,1682.66 L159.092,1682.66 M151.889,1682.66 L151.889,1668.94 L142.295,1682.66 L151.889,1682.66 "/>
<path class="MeasureNumber" d="M128.045,2143.01 C127.566,2143.01 126.607,2143.31 125.17,2143.89 L125.17,2143.34 L132.373,2139.7 L132.685,2139.78 L132.685,2163.78 C132.685,2164.74 132.925,2165.36 133.404,2165.66 C133.883,2165.95 134.909,2166.11 136.482,2166.14 L136.482,2166.73 L125.451,2166.73 L125.451,2166.14 C126.941,2166.08 127.946,2165.85 128.467,2165.47 C128.988,2165.08 129.248,2164.26 129.248,2163.01 L129.248,2144.89 C129.248,2143.64 128.847,2143.01 128.045,2143.01 M152.31,2151.86 C154.717,2153.64 156.352,2155.13 157.217,2156.34 C158.081,2157.55 158.514,2158.93 158.514,2160.47 C158.514,2162.54 157.8,2164.2 156.373,2165.44 C154.946,2166.68 153.034,2167.3 150.639,2167.3 C148.368,2167.3 146.519,2166.68 145.092,2165.44 C143.665,2164.2 142.951,2162.6 142.951,2160.64 C142.951,2159.28 143.279,2158.13 143.935,2157.22 C144.592,2156.3 145.998,2155.04 148.154,2153.42 C146.05,2151.59 144.699,2150.22 144.1,2149.31 C143.501,2148.41 143.201,2147.3 143.201,2146 C143.201,2144.17 143.92,2142.65 145.357,2141.44 C146.795,2140.23 148.607,2139.62 150.795,2139.62 C152.795,2139.62 154.441,2140.16 155.732,2141.24 C157.024,2142.32 157.67,2143.69 157.67,2145.36 C157.67,2146.71 157.271,2147.87 156.475,2148.83 C155.678,2149.79 154.29,2150.8 152.31,2151.86 M149.201,2154.22 C148.024,2155.15 147.196,2156.07 146.717,2157.01 C146.238,2157.94 145.998,2159.04 145.998,2160.31 C145.998,2162.04 146.464,2163.44 147.396,2164.5 C148.329,2165.56 149.555,2166.09 151.076,2166.09 C152.378,2166.09 153.435,2165.69 154.248,2164.87 C155.06,2164.06 155.467,2163 155.467,2161.7 C155.467,2161.29 155.422,2160.89 155.334,2160.51 C155.245,2160.14 155.154,2159.81 155.06,2159.54 C154.967,2159.26 154.779,2158.95 154.498,2158.6 C154.217,2158.25 153.99,2157.98 153.818,2157.78 C153.646,2157.58 153.334,2157.3 152.881,2156.92 C152.428,2156.55 152.087,2156.28 151.857,2156.12 C151.628,2155.97 151.201,2155.66 150.576,2155.21 C149.951,2154.76 149.493,2154.43 149.201,2154.22 M151.154,2151.14 C151.185,2151.12 151.368,2150.99 151.701,2150.76 C152.034,2150.54 152.274,2150.36 152.42,2150.23 C152.566,2150.1 152.792,2149.89 153.1,2149.61 C153.407,2149.33 153.639,2149.06 153.795,2148.81 C153.951,2148.56 154.131,2148.26 154.334,2147.9 C154.537,2147.54 154.685,2147.14 154.779,2146.7 C154.873,2146.26 154.92,2145.81 154.92,2145.33 C154.92,2143.94 154.519,2142.84 153.717,2142.03 C152.915,2141.22 151.837,2140.81 150.482,2140.81 C149.222,2140.81 148.185,2141.18 147.373,2141.93 C146.56,2142.67 146.154,2143.62 146.154,2144.76 C146.154,2145.88 146.542,2146.93 147.318,2147.91 C148.094,2148.9 149.373,2149.97 151.154,2151.14"/>
<polyline class="BarLine" fill="none" stroke="#000000" stroke-width="4.00" stroke-linejoin="bevel" points="2833.47,315.732 2833.47,417.733"/>
<polyline class="BarLine" fill="none" stroke="#000000" stroke-width="4.00" stroke-linejoin="bevel" points="2241.72,1740.73 2241.72,1842.73"/>
<polyline class="BarLine" fill="none" stroke="#000000" stroke-width="4.00" stroke-linejoin="bevel" points="2260.98,315.732 2260.98,417.733"/>
<polyline class="BarLine" fill="none" stroke="#000000" stroke-width="4.00" stroke-linejoin="bevel" points="1654.75,2215.73 1654.75,2317.73"/>
<polyline class="BarLine" fill="none" stroke="#000000" stroke-width="4.00" stroke-linejoin="bevel" points="2274.49,2215.73 2274.49,2317.73"/>
<polyline class="BarLine" fill="none" stroke="#000000" stroke-width="4.00" stroke-linejoin="bevel" points="1570.61,1740.73 1570.61,1842.73"/>
<polyline class="BarLine" fill="none" stroke="#000000" stroke-width="4.00" stroke-linejoin="bevel" points="945.869,790.733 945.869,892.733"/>
<polyline class="BarLine" fill="none" stroke="#000000" stroke-width="4.00" stroke-linejoin="bevel" points="978.859,1740.73 978.859,1842.73"/>
<polyline class="BarLine" fill="none" stroke="#000000" stroke-width="4.00" stroke-linejoin="bevel" points="1671.01,790.733 1671.01,892.733"/>
<polyline class="BarLine" fill="none" stroke="#000000" stroke-width="4.00" stroke-linejoin="bevel" points="2833.47,1740.73 2833.47,1842.73"/>
<polyline class="BarLine" fill="none" stroke="#000000" stroke-width="4.00" stroke-linejoin="bevel" points="1611.88,315.732 1611.88,417.733"/>
<polyline class="BarLine" fill="none" stroke="#000000" stroke-width="4.00" stroke-linejoin="bevel" points="2833.47,1265.73 2833.47,1367.73"/>
<polyline class="BarLine" fill="none" stroke="#000000" stroke-width="4.00" stroke-linejoin="bevel" points="1116.9,315.732 1116.9,417.733"/>
<polyline class="BarLine" fill="none" stroke="#000000" stroke-width="4.00" stroke-linejoin="bevel" points="2298.6,790.733 2298.6,892.733"/>
<polyline class="BarLine" fill="none" stroke="#000000" stroke-width="4.00" stroke-linejoin="bevel" points="2201.59,1265.73 2201.59,1367.73"/>
<polyline class="BarLine" fill="none" stroke="#000000" stroke-width="4.00" stroke-linejoin="bevel" points="2833.47,790.733 2833.47,892.733"/>
<polyline class="BarLine" fill="none" stroke="#000000" stroke-width="4.00" stroke-linejoin="bevel" points="2802.72,2215.73 2802.72,2317.73"/>
<polyline class="BarLine" fill="none" stroke="#000000" stroke-width="12.50" stroke-linejoin="bevel" points="2829.22,2215.73 2829.22,2317.73"/>
<polyline class="BarLine" fill="none" stroke="#000000" stroke-width="4.00" stroke-linejoin="bevel" points="938.727,1265.73 938.727,1367.73"/>
<polyline class="BarLine" fill="none" stroke="#000000" stroke-width="4.00" stroke-linejoin="bevel" points="1484.61,1265.73 1484.61,1367.73"/>
<polyline class="BarLine" fill="none" stroke="#000000" stroke-width="4.00" stroke-linejoin="bevel" points="1023.74,2215.73 1023.74,2317.73"/>
<polyline class="BarLine" fill="none" stroke="#000000" stroke-width="4.00" stroke-linejoin="bevel" points="544.414,315.732 544.414,417.733"/>
<polyline class="LedgerLine" fill="none" stroke="#000000" stroke-width="4.00" stroke-linejoin="bevel" points="2661.44,1716.73 2713.35,1716.73"/>
<polyline class="LedgerLine" fill="none" stroke="#000000" stroke-width="4.00" stroke-linejoin="bevel" points="2094.45,291.732 2146.37,291.732"/>
<polyline class="LedgerLine" fill="none" stroke="#000000" stroke-width="4.00" stroke-linejoin="bevel" points="1629.38,291.732 1681.29,291.732"/>
<polyline class="LedgerLine" fill="none" stroke="#000000" stroke-width="4.00" stroke-linejoin="bevel" points="2278.48,291.732 2332.2,291.732"/>
<polyline class="LedgerLine" fill="none" stroke="#000000" stroke-width="4.00" stroke-linejoin="bevel" points="1471.51,2191.73 1523.42,2191.73"/>
<polyline class="LedgerLine" fill="none" stroke="#000000" stroke-width="4.00" stroke-linejoin="bevel" points="1588.11,1716.73 1640.02,1716.73"/>
<polyline class="LedgerLine" fill="none" stroke="#000000" stroke-width="4.00" stroke-linejoin="bevel" points="325.248,2191.73 377.162,2191.73"/>
<polyline class="LedgerLine" fill="none" stroke="#000000" stroke-width="4.00" stroke-linejoin="bevel" points="1672.25,2191.73 1725.97,2191.73"/>
<polyline class="LedgerLine" fill="none" stroke="#000000" stroke-width="4.00" stroke-linejoin="bevel" points="496.995,2191.73 548.909,2191.73"/>
<polyline class="LedgerLine" fill="none" stroke="#000000" stroke-width="4.00" stroke-linejoin="bevel" points="1674.11,1241.73 1726.02,1241.73"/>
<polyline class="LedgerLine" fill="none" stroke="#000000" stroke-width="4.00" stroke-linejoin="bevel" points="324.346,1241.73 378.065,1241.73"/>
<polyline class="LedgerLine" fill="none" stroke="#000000" stroke-width="4.00" stroke-linejoin="bevel" points="324.346,1216.73 378.065,1216.73"/>
<polyline class="LedgerLine" fill="none" stroke="#000000" stroke-width="4.00" stroke-linejoin="bevel" points="1214.22,1241.73 1267.94,1241.73"/>
<polyline class="LedgerLine" fill="none" stroke="#000000" stroke-width="4.00" stroke-linejoin="bevel" points="583.239,1241.73 635.153,1241.73"/>
<polyline class="LedgerLine" fill="none" stroke="#000000" stroke-width="4.00" stroke-linejoin="bevel" points="956.227,1241.73 1009.95,1241.73"/>
<polyline class="LedgerLine" fill="none" stroke="#000000" stroke-width="4.00" stroke-linejoin="bevel" points="755.233,1241.73 807.147,1241.73"/>
<polyline class="LedgerLine" fill="none" stroke="#000000" stroke-width="4.00" stroke-linejoin="bevel" points="1909.16,1716.73 1961.08,1716.73"/>
<polyline class="LedgerLine" fill="none" stroke="#000000" stroke-width="4.00" stroke-linejoin="bevel" points="1939.43,291.732 1991.34,291.732"/>
<polyline class="LedgerLine" fill="none" stroke="#000000" stroke-width="4.00" stroke-linejoin="bevel" points="2069.69,1716.73 2121.61,1716.73"/>
<polyline class="LedgerLine" fill="none" stroke="#000000" stroke-width="4.00" stroke-linejoin="bevel" points="1398.58,1716.73 1450.49,1716.73"/>
<polyline class="LedgerLine" fill="none" stroke="#000000" stroke-width="4.00" stroke-linejoin="bevel" points="1485.47,766.733 1537.39,766.733"/>
<polyline class="LedgerLine" fill="none" stroke="#000000" stroke-width="4.00" stroke-linejoin="bevel" points="2259.22,1716.73 2312.94,1716.73"/>
<polyline class="Stem" fill="none" stroke="#000000" stroke-width="3.25" stroke-linejoin="bevel" points="851.614,2222.6 851.614,2304.23"/>
<polyline class="Stem" fill="none" stroke="#000000" stroke-width="3.25" stroke-linejoin="bevel" points="336.373,1747.6 336.373,1829.23"/>
<polyline class="Stem" fill="none" stroke="#000000" stroke-width="3.25" stroke-linejoin="bevel" points="1310.88,2222.6 1310.88,2304.23"/>
<polyline class="Stem" fill="none" stroke="#000000" stroke-width="3.25" stroke-linejoin="bevel" points="967.352,1234.13 967.352,1316.73"/>
<polyline class="Stem" fill="none" stroke="#000000" stroke-width="3.25" stroke-linejoin="bevel" points="1599.23,1722.6 1599.23,1804.23"/>
<polyline class="Stem" fill="none" stroke="#000000" stroke-width="3.25" stroke-linejoin="bevel" points="1482.63,2185.1 1482.63,2266.73"/>
<polyline class="Stem" fill="none" stroke="#000000" stroke-width="3.25" stroke-linejoin="bevel" points="1225.34,1246.63 1225.34,1329.23"/>
<polyline class="Stem" fill="none" stroke="#000000" stroke-width="3.25" stroke-linejoin="bevel" points="2270.34,1721.63 2270.34,1804.23"/>
<polyline class="Stem" fill="none" stroke="#000000" stroke-width="3.25" stroke-linejoin="bevel" points="496.901,1760.1 496.901,1841.73"/>
<polyline class="Stem" fill="none" stroke="#000000" stroke-width="3.25" stroke-linejoin="bevel" points="1052.36,2234.13 1052.36,2316.73"/>
<polyline class="Stem" fill="none" stroke="#000000" stroke-width="3.25" stroke-linejoin="bevel" points="1409.71,1722.6 1409.71,1804.23"/>
<polyline class="Stem" fill="none" stroke="#000000" stroke-width="3.25" stroke-linejoin="bevel" points="1249.18,1785.1 1249.18,1860.48"/>
<polyline class="Stem" fill="none" stroke="#000000" stroke-width="3.25" stroke-linejoin="bevel" points="1920.29,1722.6 1920.29,1804.23"/>
<polyline class="Stem" fill="none" stroke="#000000" stroke-width="3.25" stroke-linejoin="bevel" points="1513.24,1260.1 1513.24,1341.73"/>
<polyline class="Stem" fill="none" stroke="#000000" stroke-width="3.25" stroke-linejoin="bevel" points="1685.23,1247.6 1685.23,1329.23"/>
<polyline class="Stem" fill="none" stroke="#000000" stroke-width="3.25" stroke-linejoin="bevel" points="1759.76,1735.1 1759.76,1816.73"/>
<polyline class="Stem" fill="none" stroke="#000000" stroke-width="3.25" stroke-linejoin="bevel" points="2080.82,1710.1 2080.82,1791.73"/>
<polyline class="Stem" fill="none" stroke="#000000" stroke-width="3.25" stroke-linejoin="bevel" points="679.867,2210.1 679.867,2291.73"/>
<polyline class="Stem" fill="none" stroke="#000000" stroke-width="3.25" stroke-linejoin="bevel" points="657.429,1747.6 657.429,1829.23"/>
<polyline class="Stem" fill="none" stroke="#000000" stroke-width="3.25" stroke-linejoin="bevel" points="1857.22,1272.6 1857.22,1354.23"/>
<polyline class="Stem" fill="none" stroke="#000000" stroke-width="3.25" stroke-linejoin="bevel" points="2029.22,1260.1 2029.22,1341.73"/>
<polyline class="Stem" fill="none" stroke="#000000" stroke-width="3.25" stroke-linejoin="bevel" points="1683.38,2196.63 1683.38,2279.23"/>
<polyline class="Stem" fill="none" stroke="#000000" stroke-width="3.25" stroke-linejoin="bevel" points="508.12,2197.6 508.12,2279.23"/>
<polyline class="Stem" fill="none" stroke="#000000" stroke-width="3.25" stroke-linejoin="bevel" points="1007.48,1746.63 1007.48,1829.23"/>
<polyline class="Stem" fill="none" stroke="#000000" stroke-width="3.25" stroke-linejoin="bevel" points="2512.04,1735.1 2512.04,1816.73"/>
<polyline class="Stem" fill="none" stroke="#000000" stroke-width="3.25" stroke-linejoin="bevel" points="2672.57,1722.6 2672.57,1804.23"/>
<polyline class="Stem" fill="none" stroke="#000000" stroke-width="3.25" stroke-linejoin="bevel" points="2230.21,1284.13 2230.21,1366.73"/>
<polyline class="Stem" fill="none" stroke="#000000" stroke-width="3.25" stroke-linejoin="bevel" points="2489.11,1310.1 2489.11,1385.48"/>
<polyline class="Stem" fill="none" stroke="#000000" stroke-width="3.25" stroke-linejoin="bevel" points="2661.1,1272.6 2661.1,1354.23"/>
<polyline class="Stem" fill="none" stroke="#000000" stroke-width="3.25" stroke-linejoin="bevel" points="336.373,2185.1 336.373,2266.73"/>
<polyline class="Stem" fill="none" stroke="#000000" stroke-width="3.25" stroke-linejoin="bevel" points="817.956,1735.1 817.956,1816.73"/>
<polyline class="Stem" fill="none" stroke="#000000" stroke-width="3.25" stroke-linejoin="bevel" points="974.494,810.102 974.494,891.733"/>
<polyline class="Stem" fill="none" stroke="#000000" stroke-width="3.25" stroke-linejoin="bevel" points="961.503,322.602 961.503,404.233"/>
<polyline class="Stem" fill="none" stroke="#000000" stroke-width="3.25" stroke-linejoin="bevel" points="1145.53,309.132 1145.53,391.733"/>
<polyline class="Stem" fill="none" stroke="#000000" stroke-width="3.25" stroke-linejoin="bevel" points="1961.59,822.602 1961.59,904.233"/>
<polyline class="Stem" fill="none" stroke="#000000" stroke-width="3.25" stroke-linejoin="bevel" points="1699.63,809.133 1699.63,891.733"/>
<polyline class="Stem" fill="none" stroke="#000000" stroke-width="3.25" stroke-linejoin="bevel" points="1378.07,359.132 1378.07,435.483"/>
<polyline class="Stem" fill="none" stroke="#000000" stroke-width="3.25" stroke-linejoin="bevel" points="1496.6,772.602 1496.6,854.233"/>
<polyline class="Stem" fill="none" stroke="#000000" stroke-width="3.25" stroke-linejoin="bevel" points="1640.5,297.602 1640.5,379.233"/>
<polyline class="Stem" fill="none" stroke="#000000" stroke-width="3.25" stroke-linejoin="bevel" points="1322.56,785.102 1322.56,866.733"/>
<polyline class="Stem" fill="none" stroke="#000000" stroke-width="3.25" stroke-linejoin="bevel" points="1795.53,310.102 1795.53,391.733"/>
<polyline class="Stem" fill="none" stroke="#000000" stroke-width="3.25" stroke-linejoin="bevel" points="1148.53,797.602 1148.53,879.233"/>
<polyline class="Stem" fill="none" stroke="#000000" stroke-width="3.25" stroke-linejoin="bevel" points="766.358,1247.6 766.358,1329.23"/>
<polyline class="Stem" fill="none" stroke="#000000" stroke-width="3.25" stroke-linejoin="bevel" points="1950.55,297.602 1950.55,379.233"/>
<polyline class="Stem" fill="none" stroke="#000000" stroke-width="3.25" stroke-linejoin="bevel" points="771.46,822.602 771.46,904.233"/>
<polyline class="Stem" fill="none" stroke="#000000" stroke-width="3.25" stroke-linejoin="bevel" points="2105.58,285.102 2105.58,366.733"/>
<polyline class="Stem" fill="none" stroke="#000000" stroke-width="3.25" stroke-linejoin="bevel" points="597.425,810.102 597.425,891.733"/>
<polyline class="Stem" fill="none" stroke="#000000" stroke-width="3.25" stroke-linejoin="bevel" points="2303.12,2221.63 2303.12,2304.23"/>
<polyline class="Stem" fill="none" stroke="#000000" stroke-width="3.25" stroke-linejoin="bevel" points="335.471,796.633 335.471,879.233"/>
<polyline class="Stem" fill="none" stroke="#000000" stroke-width="3.25" stroke-linejoin="bevel" points="2289.6,296.632 2289.6,379.233"/>
<polyline class="Stem" fill="none" stroke="#000000" stroke-width="3.25" stroke-linejoin="bevel" points="2678.07,322.602 2678.07,404.233"/>
<polyline class="Stem" fill="none" stroke="#000000" stroke-width="3.25" stroke-linejoin="bevel" points="2523.04,310.102 2523.04,391.733"/>
<polyline class="Stem" fill="none" stroke="#000000" stroke-width="3.25" stroke-linejoin="bevel" points="806.478,360.102 806.478,435.483"/>
<polyline class="Stem" fill="none" stroke="#000000" stroke-width="3.25" stroke-linejoin="bevel" points="1941.9,2210.1 1941.9,2291.73"/>
<polyline class="Stem" fill="none" stroke="#000000" stroke-width="3.25" stroke-linejoin="bevel" points="573.039,321.632 573.039,404.233"/>
<polyline class="Stem" fill="none" stroke="#000000" stroke-width="3.25" stroke-linejoin="bevel" points="335.471,1221.63 335.471,1316.73"/>
<polyline class="Stem" fill="none" stroke="#000000" stroke-width="3.25" stroke-linejoin="bevel" points="389.014,322.602 389.014,404.233"/>
<polyline class="Stem" fill="none" stroke="#000000" stroke-width="3.25" stroke-linejoin="bevel" points="594.364,1235.1 594.364,1316.73"/>
<polyline class="Stem" fill="none" stroke="#000000" stroke-width="3.25" stroke-linejoin="bevel" points="2327.23,834.133 2327.23,910.483"/>
<polyline class="Stem" fill="none" stroke="#000000" stroke-width="3.25" stroke-linejoin="bevel" points="2159.62,2222.6 2159.62,2304.83"/>
<polyline class="Stem" fill="none" stroke="#000000" stroke-width="3.25" stroke-linejoin="bevel" points="2182.21,835.102 2182.21,911.083"/>
<path class="Hook" d="M2180.74,2231.87 C2182.24,2231.87 2183.82,2234.3 2185.49,2239.15 C2187.15,2244 2187.98,2248.44 2187.98,2252.48 C2187.98,2256.51 2187.05,2260.42 2185.2,2264.19 C2183.34,2267.97 2181.11,2271.29 2178.51,2274.16 L2170.49,2283.14 C2168.02,2286 2165.84,2289.29 2163.95,2293 C2162.06,2296.71 2161.12,2300.45 2161.12,2304.23 L2157.99,2304.23 L2157.99,2279.23 L2161.12,2279.23 C2172.06,2272.33 2178.93,2266.21 2181.73,2260.87 C2183.09,2258.27 2183.77,2255.63 2183.77,2252.97 C2183.77,2246.78 2181.98,2240.62 2178.4,2234.5 L2178.4,2234.11 C2178.4,2233.53 2178.63,2233.01 2179.09,2232.55 C2179.55,2232.1 2180.1,2231.87 2180.74,2231.87"/>
<path class="Hook" d="M2203.33,838.123 C2204.83,838.123 2206.41,840.548 2208.07,845.397 C2209.73,850.246 2210.56,854.689 2210.56,858.725 C2210.56,862.761 2209.64,866.668 2207.78,870.444 C2205.93,874.22 2203.7,877.54 2201.1,880.405 L2193.08,889.389 C2190.61,892.254 2188.43,895.54 2186.54,899.248 C2184.65,902.957 2183.71,906.702 2183.71,910.483 L2180.58,910.483 L2180.58,885.483 L2183.71,885.483 C2194.64,878.577 2201.51,872.457 2204.31,867.123 C2205.68,864.519 2206.36,861.884 2206.36,859.217 C2206.36,853.03 2204.57,846.873 2200.99,840.748 L2200.99,840.358 C2200.99,839.775 2201.22,839.256 2201.67,838.803 C2202.13,838.35 2202.68,838.123 2203.33,838.123"/>
<path class="Note" d="M2308.91,2227.37 C2310.8,2227.37 2314.75,2225.42 2320.78,2221.51 C2326.81,2217.61 2330.36,2214.99 2331.43,2213.66 C2332.5,2212.32 2333.04,2211.13 2333.04,2210.09 C2333.04,2209.05 2332.61,2208.12 2331.76,2207.31 C2330.92,2206.5 2329.94,2206.09 2328.83,2206.09 C2326.89,2206.09 2322.9,2208.06 2316.87,2212 C2310.85,2215.94 2307.31,2218.56 2306.27,2219.86 C2305.23,2221.16 2304.71,2222.33 2304.71,2223.37 C2304.71,2224.42 2305.12,2225.34 2305.94,2226.16 C2306.75,2226.97 2307.75,2227.37 2308.91,2227.37 M2327.87,2202.97 C2333.46,2202.97 2336.26,2205.37 2336.26,2210.19 C2336.26,2212.53 2335.57,2215.25 2334.21,2218.34 C2332.85,2221.44 2331.02,2223.8 2328.74,2225.42 C2323.73,2228.81 2317.45,2230.5 2309.9,2230.5 C2304.29,2230.5 2301.49,2228.09 2301.49,2223.28 C2301.49,2221.13 2302.16,2218.47 2303.49,2215.27 C2304.82,2212.08 2306.66,2209.67 2309.01,2208.05 C2314.03,2204.66 2320.31,2202.97 2327.87,2202.97"/>
<path class="Note" d="M2101.16,1690.47 C2104.29,1690.47 2106.89,1691.25 2108.97,1692.81 C2111.06,1694.37 2112.1,1696.62 2112.1,1699.55 C2112.1,1704.04 2109.77,1708.23 2105.12,1712.14 C2100.47,1716.05 2095.47,1718 2090.13,1718 C2087,1718 2084.37,1717.19 2082.22,1715.56 C2080.2,1713.8 2079.19,1711.59 2079.19,1708.92 C2079.19,1704.56 2081.5,1700.39 2086.13,1696.42 C2090.75,1692.45 2095.76,1690.47 2101.16,1690.47"/>
<path class="Note" d="M1430.05,1702.97 C1433.17,1702.97 1435.78,1703.75 1437.86,1705.31 C1439.95,1706.87 1440.99,1709.12 1440.99,1712.05 C1440.99,1716.54 1438.66,1720.73 1434.01,1724.64 C1429.36,1728.55 1424.36,1730.5 1419.02,1730.5 C1415.89,1730.5 1413.26,1729.69 1411.11,1728.06 C1409.09,1726.3 1408.08,1724.09 1408.08,1721.42 C1408.08,1717.06 1410.39,1712.89 1415.02,1708.92 C1419.64,1704.95 1424.65,1702.97 1430.05,1702.97"/>
<path class="Note" d="M1331.23,2202.97 C1334.35,2202.97 1336.96,2203.75 1339.04,2205.31 C1341.12,2206.87 1342.16,2209.12 1342.16,2212.05 C1342.16,2216.54 1339.84,2220.73 1335.19,2224.64 C1330.54,2228.55 1325.54,2230.5 1320.2,2230.5 C1317.07,2230.5 1314.44,2229.69 1312.29,2228.06 C1310.27,2226.3 1309.26,2224.09 1309.26,2221.42 C1309.26,2217.06 1311.57,2212.89 1316.2,2208.92 C1320.82,2204.95 1325.83,2202.97 1331.23,2202.97"/>
<path class="Note" d="M1058.16,2239.87 C1060.04,2239.87 1064,2237.92 1070.02,2234.01 C1076.05,2230.11 1079.6,2227.49 1080.67,2226.16 C1081.75,2224.82 1082.28,2223.63 1082.28,2222.59 C1082.28,2221.55 1081.86,2220.62 1081.01,2219.81 C1080.16,2219 1079.18,2218.59 1078.08,2218.59 C1076.13,2218.59 1072.14,2220.56 1066.12,2224.5 C1060.09,2228.44 1056.56,2231.06 1055.52,2232.36 C1054.48,2233.66 1053.95,2234.83 1053.95,2235.87 C1053.95,2236.92 1054.36,2237.84 1055.18,2238.66 C1056,2239.47 1056.99,2239.87 1058.16,2239.87 M1077.11,2215.47 C1082.7,2215.47 1085.5,2217.87 1085.5,2222.69 C1085.5,2225.03 1084.82,2227.75 1083.45,2230.84 C1082.09,2233.94 1080.27,2236.3 1077.99,2237.92 C1072.98,2241.31 1066.69,2243 1059.14,2243 C1053.54,2243 1050.74,2240.59 1050.74,2235.78 C1050.74,2233.63 1051.4,2230.97 1052.74,2227.77 C1054.07,2224.58 1055.91,2222.17 1058.25,2220.55 C1063.27,2217.16 1069.56,2215.47 1077.11,2215.47"/>
<path class="Note" d="M2295.4,302.373 C2297.29,302.373 2301.24,300.42 2307.27,296.514 C2313.29,292.607 2316.84,289.988 2317.92,288.654 C2318.99,287.321 2319.53,286.133 2319.53,285.092 C2319.53,284.05 2319.1,283.123 2318.25,282.311 C2317.4,281.498 2316.43,281.092 2315.32,281.092 C2313.37,281.092 2309.39,283.061 2303.36,286.998 C2297.34,290.936 2293.8,293.555 2292.76,294.857 C2291.72,296.16 2291.2,297.331 2291.2,298.373 C2291.2,299.415 2291.61,300.342 2292.42,301.154 C2293.24,301.967 2294.23,302.373 2295.4,302.373 M2314.35,277.967 C2319.95,277.967 2322.74,280.373 2322.74,285.186 C2322.74,287.529 2322.06,290.248 2320.7,293.342 C2319.33,296.436 2317.51,298.795 2315.23,300.42 C2310.22,303.805 2303.94,305.498 2296.39,305.498 C2290.78,305.498 2287.98,303.092 2287.98,298.279 C2287.98,296.133 2288.65,293.464 2289.98,290.272 C2291.31,287.079 2293.15,284.67 2295.49,283.045 C2300.52,279.66 2306.8,277.967 2314.35,277.967"/>
<path class="Note" d="M2125.92,265.467 C2129.05,265.467 2131.65,266.248 2133.74,267.811 C2135.82,269.373 2136.86,271.618 2136.86,274.545 C2136.86,279.035 2134.53,283.232 2129.88,287.139 C2125.23,291.045 2120.24,292.998 2114.89,292.998 C2111.77,292.998 2109.13,292.186 2106.99,290.561 C2104.96,288.8 2103.95,286.587 2103.95,283.92 C2103.95,279.555 2106.27,275.389 2110.89,271.42 C2115.52,267.451 2120.53,265.467 2125.92,265.467"/>
<path class="Note" d="M1940.63,1702.97 C1943.76,1702.97 1946.36,1703.75 1948.44,1705.31 C1950.53,1706.87 1951.57,1709.12 1951.57,1712.05 C1951.57,1716.54 1949.24,1720.73 1944.59,1724.64 C1939.94,1728.55 1934.94,1730.5 1929.6,1730.5 C1926.48,1730.5 1923.84,1729.69 1921.69,1728.06 C1919.67,1726.3 1918.66,1724.09 1918.66,1721.42 C1918.66,1717.06 1920.98,1712.89 1925.6,1708.92 C1930.23,1704.95 1935.24,1702.97 1940.63,1702.97"/>
<path class="Note" d="M409.358,302.967 C412.483,302.967 415.087,303.748 417.17,305.311 C419.253,306.873 420.295,309.118 420.295,312.045 C420.295,316.535 417.969,320.732 413.318,324.639 C408.667,328.545 403.67,330.498 398.326,330.498 C395.201,330.498 392.566,329.686 390.42,328.061 C388.399,326.3 387.389,324.087 387.389,321.42 C387.389,317.055 389.701,312.889 394.326,308.92 C398.951,304.951 403.962,302.967 409.358,302.967"/>
<path class="Note" d="M1970.9,277.967 C1974.02,277.967 1976.63,278.748 1978.71,280.311 C1980.79,281.873 1981.84,284.118 1981.84,287.045 C1981.84,291.535 1979.51,295.732 1974.86,299.639 C1970.21,303.545 1965.21,305.498 1959.87,305.498 C1956.74,305.498 1954.11,304.686 1951.96,303.061 C1949.94,301.3 1948.93,299.087 1948.93,296.42 C1948.93,292.055 1951.24,287.889 1955.87,283.92 C1960.49,279.951 1965.5,277.967 1970.9,277.967"/>
<path class="Note" d="M2276.14,1727.37 C2278.03,1727.37 2281.98,1725.42 2288.01,1721.51 C2294.03,1717.61 2297.58,1714.99 2298.66,1713.66 C2299.73,1712.32 2300.27,1711.13 2300.27,1710.09 C2300.27,1709.05 2299.84,1708.12 2298.99,1707.31 C2298.14,1706.5 2297.17,1706.09 2296.06,1706.09 C2294.11,1706.09 2290.13,1708.06 2284.1,1712 C2278.08,1715.94 2274.54,1718.56 2273.5,1719.86 C2272.46,1721.16 2271.94,1722.33 2271.94,1723.37 C2271.94,1724.42 2272.35,1725.34 2273.16,1726.16 C2273.98,1726.97 2274.97,1727.37 2276.14,1727.37 M2295.09,1702.97 C2300.69,1702.97 2303.48,1705.37 2303.48,1710.19 C2303.48,1712.53 2302.8,1715.25 2301.44,1718.34 C2300.07,1721.44 2298.25,1723.8 2295.97,1725.42 C2290.96,1728.81 2284.68,1730.5 2277.13,1730.5 C2271.52,1730.5 2268.72,1728.09 2268.72,1723.28 C2268.72,1721.13 2269.39,1718.47 2270.72,1715.27 C2272.05,1712.08 2273.89,1709.67 2276.23,1708.05 C2281.26,1704.66 2287.54,1702.97 2295.09,1702.97"/>
<path class="Note" d="M1815.87,290.467 C1819,290.467 1821.6,291.248 1823.69,292.811 C1825.77,294.373 1826.81,296.618 1826.81,299.545 C1826.81,304.035 1824.49,308.232 1819.83,312.139 C1815.18,316.045 1810.19,317.998 1804.84,317.998 C1801.72,317.998 1799.08,317.186 1796.94,315.561 C1794.92,313.8 1793.9,311.587 1793.9,308.92 C1793.9,304.555 1796.22,300.389 1800.84,296.42 C1805.47,292.451 1810.48,290.467 1815.87,290.467"/>
<path class="Note" d="M871.957,2202.97 C875.082,2202.97 877.687,2203.75 879.77,2205.31 C881.853,2206.87 882.895,2209.12 882.895,2212.05 C882.895,2216.54 880.569,2220.73 875.918,2224.64 C871.267,2228.55 866.27,2230.5 860.926,2230.5 C857.801,2230.5 855.166,2229.69 853.02,2228.06 C850.999,2226.3 849.989,2224.09 849.989,2221.42 C849.989,2217.06 852.301,2212.89 856.926,2208.92 C861.551,2204.95 866.562,2202.97 871.957,2202.97"/>
<path class="Note" d="M2532.38,1715.47 C2535.51,1715.47 2538.11,1716.25 2540.19,1717.81 C2542.28,1719.37 2543.32,1721.62 2543.32,1724.55 C2543.32,1729.04 2540.99,1733.23 2536.34,1737.14 C2531.69,1741.05 2526.69,1743 2521.35,1743 C2518.23,1743 2515.59,1742.19 2513.44,1740.56 C2511.42,1738.8 2510.41,1736.59 2510.41,1733.92 C2510.41,1729.56 2512.73,1725.39 2517.35,1721.42 C2521.98,1717.45 2526.99,1715.47 2532.38,1715.47"/>
<path class="Note" d="M578.835,327.373 C580.721,327.373 584.677,325.42 590.703,321.514 C596.729,317.607 600.278,314.988 601.351,313.654 C602.424,312.321 602.96,311.134 602.96,310.092 C602.96,309.05 602.536,308.123 601.687,307.311 C600.838,306.498 599.862,306.092 598.757,306.092 C596.809,306.092 592.822,308.061 586.796,311.998 C580.77,315.936 577.237,318.555 576.195,319.857 C575.153,321.16 574.632,322.331 574.632,323.373 C574.632,324.415 575.041,325.342 575.859,326.154 C576.677,326.967 577.669,327.373 578.835,327.373 M597.789,302.967 C603.382,302.967 606.179,305.373 606.179,310.186 C606.179,312.529 605.497,315.248 604.132,318.342 C602.768,321.436 600.945,323.795 598.664,325.42 C593.653,328.805 587.372,330.498 579.82,330.498 C574.216,330.498 571.414,328.092 571.414,323.279 C571.414,321.134 572.08,318.464 573.414,315.272 C574.747,312.079 576.585,309.67 578.929,308.045 C583.95,304.66 590.237,302.967 597.789,302.967"/>
<path class="Note" d="M1660.85,277.967 C1663.97,277.967 1666.58,278.748 1668.66,280.311 C1670.74,281.873 1671.79,284.118 1671.79,287.045 C1671.79,291.535 1669.46,295.732 1664.81,299.639 C1660.16,303.545 1655.16,305.498 1649.82,305.498 C1646.69,305.498 1644.06,304.686 1641.91,303.061 C1639.89,301.3 1638.88,299.087 1638.88,296.42 C1638.88,292.055 1641.19,287.889 1645.82,283.92 C1650.44,279.951 1655.45,277.967 1660.85,277.967"/>
<path class="Note" d="M2692.91,1702.97 C2696.03,1702.97 2698.64,1703.75 2700.72,1705.31 C2702.81,1706.87 2703.85,1709.12 2703.85,1712.05 C2703.85,1716.54 2701.52,1720.73 2696.87,1724.64 C2692.22,1728.55 2687.22,1730.5 2681.88,1730.5 C2678.75,1730.5 2676.12,1729.69 2673.97,1728.06 C2671.95,1726.3 2670.94,1724.09 2670.94,1721.42 C2670.94,1717.06 2673.25,1712.89 2677.88,1708.92 C2682.5,1704.95 2687.51,1702.97 2692.91,1702.97"/>
<path class="Note" d="M700.211,2190.47 C703.336,2190.47 705.94,2191.25 708.023,2192.81 C710.106,2194.37 711.148,2196.62 711.148,2199.55 C711.148,2204.04 708.823,2208.23 704.172,2212.14 C699.52,2216.05 694.523,2218 689.179,2218 C686.054,2218 683.419,2217.19 681.273,2215.56 C679.252,2213.8 678.242,2211.59 678.242,2208.92 C678.242,2204.56 680.554,2200.39 685.179,2196.42 C689.804,2192.45 694.815,2190.47 700.211,2190.47"/>
<path class="Note" d="M1383.86,364.873 C1385.75,364.873 1389.7,362.92 1395.73,359.014 C1401.76,355.107 1405.3,352.488 1406.38,351.154 C1407.45,349.821 1407.99,348.634 1407.99,347.592 C1407.99,346.55 1407.56,345.623 1406.71,344.811 C1405.86,343.998 1404.89,343.592 1403.78,343.592 C1401.84,343.592 1397.85,345.561 1391.82,349.498 C1385.8,353.436 1382.26,356.055 1381.22,357.357 C1380.18,358.66 1379.66,359.831 1379.66,360.873 C1379.66,361.915 1380.07,362.842 1380.89,363.654 C1381.7,364.467 1382.7,364.873 1383.86,364.873 M1402.82,340.467 C1408.41,340.467 1411.21,342.873 1411.21,347.686 C1411.21,350.029 1410.52,352.748 1409.16,355.842 C1407.79,358.936 1405.97,361.295 1403.69,362.92 C1398.68,366.305 1392.4,367.998 1384.85,367.998 C1379.24,367.998 1376.44,365.592 1376.44,360.779 C1376.44,358.634 1377.11,355.964 1378.44,352.772 C1379.77,349.579 1381.61,347.17 1383.96,345.545 C1388.98,342.16 1395.26,340.467 1402.82,340.467"/>
<path class="Note" d="M528.464,2177.97 C531.589,2177.97 534.193,2178.75 536.276,2180.31 C538.36,2181.87 539.401,2184.12 539.401,2187.05 C539.401,2191.54 537.076,2195.73 532.425,2199.64 C527.774,2203.55 522.776,2205.5 517.432,2205.5 C514.307,2205.5 511.672,2204.69 509.526,2203.06 C507.505,2201.3 506.495,2199.09 506.495,2196.42 C506.495,2192.06 508.807,2187.89 513.432,2183.92 C518.057,2179.95 523.068,2177.97 528.464,2177.97"/>
<path class="Note" d="M1502.97,2165.47 C1506.1,2165.47 1508.7,2166.25 1510.79,2167.81 C1512.87,2169.37 1513.91,2171.62 1513.91,2174.55 C1513.91,2179.04 1511.59,2183.23 1506.93,2187.14 C1502.28,2191.05 1497.29,2193 1491.94,2193 C1488.82,2193 1486.18,2192.19 1484.04,2190.56 C1482.02,2188.8 1481.01,2186.59 1481.01,2183.92 C1481.01,2179.56 1483.32,2175.39 1487.94,2171.42 C1492.57,2167.45 1497.58,2165.47 1502.97,2165.47"/>
<path class="Note" d="M1151.32,314.873 C1153.21,314.873 1157.17,312.92 1163.19,309.014 C1169.22,305.107 1172.77,302.488 1173.84,301.154 C1174.91,299.821 1175.45,298.634 1175.45,297.592 C1175.45,296.55 1175.03,295.623 1174.18,294.811 C1173.33,293.998 1172.35,293.592 1171.25,293.592 C1169.3,293.592 1165.31,295.561 1159.29,299.498 C1153.26,303.436 1149.73,306.055 1148.68,307.357 C1147.64,308.66 1147.12,309.831 1147.12,310.873 C1147.12,311.915 1147.53,312.842 1148.35,313.654 C1149.17,314.467 1150.16,314.873 1151.32,314.873 M1170.28,290.467 C1175.87,290.467 1178.67,292.873 1178.67,297.686 C1178.67,300.029 1177.99,302.748 1176.62,305.842 C1175.26,308.936 1173.43,311.295 1171.15,312.92 C1166.14,316.305 1159.86,317.998 1152.31,317.998 C1146.7,317.998 1143.9,315.592 1143.9,310.779 C1143.9,308.634 1144.57,305.964 1145.9,302.772 C1147.24,299.579 1149.07,297.17 1151.42,295.545 C1156.44,292.16 1162.73,290.467 1170.28,290.467"/>
<path class="Note" d="M826.822,340.467 C829.947,340.467 832.551,341.248 834.634,342.811 C836.718,344.373 837.759,346.618 837.759,349.545 C837.759,354.035 835.434,358.232 830.783,362.139 C826.132,366.045 821.134,367.998 815.791,367.998 C812.666,367.998 810.03,367.186 807.884,365.561 C805.864,363.8 804.853,361.587 804.853,358.92 C804.853,354.555 807.166,350.389 811.791,346.42 C816.416,342.451 821.426,340.467 826.822,340.467"/>
<path class="Note" d="M981.847,302.967 C984.972,302.967 987.576,303.748 989.659,305.311 C991.743,306.873 992.784,309.118 992.784,312.045 C992.784,316.535 990.459,320.732 985.808,324.639 C981.157,328.545 976.159,330.498 970.816,330.498 C967.691,330.498 965.055,329.686 962.909,328.061 C960.888,326.3 959.878,324.087 959.878,321.42 C959.878,317.055 962.191,312.889 966.816,308.92 C971.441,304.951 976.451,302.967 981.847,302.967"/>
<path class="Note" d="M356.717,2165.47 C359.842,2165.47 362.446,2166.25 364.529,2167.81 C366.613,2169.37 367.654,2171.62 367.654,2174.55 C367.654,2179.04 365.329,2183.23 360.678,2187.14 C356.027,2191.05 351.029,2193 345.686,2193 C342.561,2193 339.925,2192.19 337.779,2190.56 C335.759,2188.8 334.748,2186.59 334.748,2183.92 C334.748,2179.56 337.061,2175.39 341.686,2171.42 C346.311,2167.45 351.321,2165.47 356.717,2165.47"/>
<path class="Note" d="M1877.57,1252.97 C1880.69,1252.97 1883.3,1253.75 1885.38,1255.31 C1887.46,1256.87 1888.51,1259.12 1888.51,1262.05 C1888.51,1266.54 1886.18,1270.73 1881.53,1274.64 C1876.88,1278.55 1871.88,1280.5 1866.54,1280.5 C1863.41,1280.5 1860.78,1279.69 1858.63,1278.06 C1856.61,1276.3 1855.6,1274.09 1855.6,1271.42 C1855.6,1267.06 1857.91,1262.89 1862.54,1258.92 C1867.16,1254.95 1872.17,1252.97 1877.57,1252.97"/>
<path class="Note" d="M1981.93,802.967 C1985.06,802.967 1987.66,803.748 1989.74,805.311 C1991.83,806.873 1992.87,809.118 1992.87,812.045 C1992.87,816.535 1990.54,820.733 1985.89,824.639 C1981.24,828.545 1976.24,830.498 1970.9,830.498 C1967.77,830.498 1965.14,829.686 1962.99,828.061 C1960.97,826.3 1959.96,824.087 1959.96,821.42 C1959.96,817.056 1962.27,812.889 1966.9,808.92 C1971.52,804.952 1976.53,802.967 1981.93,802.967"/>
<path class="Note" d="M2681.44,1252.97 C2684.57,1252.97 2687.17,1253.75 2689.26,1255.31 C2691.34,1256.87 2692.38,1259.12 2692.38,1262.05 C2692.38,1266.54 2690.06,1270.73 2685.4,1274.64 C2680.75,1278.55 2675.76,1280.5 2670.41,1280.5 C2667.29,1280.5 2664.65,1279.69 2662.51,1278.06 C2660.48,1276.3 2659.47,1274.09 2659.47,1271.42 C2659.47,1267.06 2661.79,1262.89 2666.41,1258.92 C2671.04,1254.95 2676.05,1252.97 2681.44,1252.97"/>
<path class="Note" d="M2179.96,2202.97 C2183.09,2202.97 2185.69,2203.75 2187.77,2205.31 C2189.86,2206.87 2190.9,2209.12 2190.9,2212.05 C2190.9,2216.54 2188.57,2220.73 2183.92,2224.64 C2179.27,2228.55 2174.27,2230.5 2168.93,2230.5 C2165.81,2230.5 2163.17,2229.69 2161.02,2228.06 C2159,2226.3 2157.99,2224.09 2157.99,2221.42 C2157.99,2217.06 2160.31,2212.89 2164.93,2208.92 C2169.56,2204.95 2174.57,2202.97 2179.96,2202.97"/>
<path class="Note" d="M2509.45,1290.47 C2512.57,1290.47 2515.18,1291.25 2517.26,1292.81 C2519.35,1294.37 2520.39,1296.62 2520.39,1299.55 C2520.39,1304.04 2518.06,1308.23 2513.41,1312.14 C2508.76,1316.05 2503.76,1318 2498.42,1318 C2495.29,1318 2492.66,1317.19 2490.51,1315.56 C2488.49,1313.8 2487.48,1311.59 2487.48,1308.92 C2487.48,1304.56 2489.79,1300.39 2494.42,1296.42 C2499.04,1292.45 2504.05,1290.47 2509.45,1290.47"/>
<path class="Note" d="M2236.01,1289.87 C2237.89,1289.87 2241.85,1287.92 2247.88,1284.01 C2253.9,1280.11 2257.45,1277.49 2258.52,1276.15 C2259.6,1274.82 2260.13,1273.63 2260.13,1272.59 C2260.13,1271.55 2259.71,1270.62 2258.86,1269.81 C2258.01,1269 2257.04,1268.59 2255.93,1268.59 C2253.98,1268.59 2250,1270.56 2243.97,1274.5 C2237.94,1278.44 2234.41,1281.06 2233.37,1282.36 C2232.33,1283.66 2231.81,1284.83 2231.81,1285.87 C2231.81,1286.92 2232.21,1287.84 2233.03,1288.65 C2233.85,1289.47 2234.84,1289.87 2236.01,1289.87 M2254.96,1265.47 C2260.56,1265.47 2263.35,1267.87 2263.35,1272.69 C2263.35,1275.03 2262.67,1277.75 2261.31,1280.84 C2259.94,1283.94 2258.12,1286.3 2255.84,1287.92 C2250.83,1291.31 2244.55,1293 2236.99,1293 C2231.39,1293 2228.59,1290.59 2228.59,1285.78 C2228.59,1283.63 2229.25,1280.96 2230.59,1277.77 C2231.92,1274.58 2233.76,1272.17 2236.1,1270.55 C2241.12,1267.16 2247.41,1265.47 2254.96,1265.47"/>
<path class="Note" d="M2202.55,815.467 C2205.67,815.467 2208.28,816.248 2210.36,817.811 C2212.44,819.373 2213.49,821.618 2213.49,824.545 C2213.49,829.035 2211.16,833.233 2206.51,837.139 C2201.86,841.045 2196.86,842.998 2191.52,842.998 C2188.39,842.998 2185.76,842.186 2183.61,840.561 C2181.59,838.801 2180.58,836.587 2180.58,833.92 C2180.58,829.556 2182.89,825.389 2187.52,821.42 C2192.14,817.452 2197.15,815.467 2202.55,815.467"/>
<path class="Note" d="M2049.56,1240.47 C2052.69,1240.47 2055.29,1241.25 2057.37,1242.81 C2059.46,1244.37 2060.5,1246.62 2060.5,1249.55 C2060.5,1254.04 2058.17,1258.23 2053.52,1262.14 C2048.87,1266.05 2043.87,1268 2038.53,1268 C2035.41,1268 2032.77,1267.19 2030.62,1265.56 C2028.6,1263.8 2027.59,1261.59 2027.59,1258.92 C2027.59,1254.56 2029.91,1250.39 2034.53,1246.42 C2039.16,1242.45 2044.17,1240.47 2049.56,1240.47"/>
<path class="Note" d="M2333.03,839.873 C2334.91,839.873 2338.87,837.92 2344.89,834.014 C2350.92,830.108 2354.47,827.488 2355.54,826.155 C2356.61,824.821 2357.15,823.634 2357.15,822.592 C2357.15,821.551 2356.73,820.623 2355.88,819.811 C2355.03,818.998 2354.05,818.592 2352.95,818.592 C2351,818.592 2347.01,820.561 2340.99,824.498 C2334.96,828.436 2331.43,831.056 2330.38,832.358 C2329.34,833.66 2328.82,834.832 2328.82,835.873 C2328.82,836.915 2329.23,837.842 2330.05,838.655 C2330.87,839.467 2331.86,839.873 2333.03,839.873 M2351.98,815.467 C2357.57,815.467 2360.37,817.873 2360.37,822.686 C2360.37,825.03 2359.69,827.748 2358.32,830.842 C2356.96,833.936 2355.13,836.295 2352.85,837.92 C2347.84,841.306 2341.56,842.998 2334.01,842.998 C2328.41,842.998 2325.6,840.592 2325.6,835.78 C2325.6,833.634 2326.27,830.965 2327.6,827.772 C2328.94,824.579 2330.78,822.17 2333.12,820.545 C2338.14,817.16 2344.43,815.467 2351.98,815.467"/>
<path class="Note" d="M1780.1,1715.47 C1783.23,1715.47 1785.83,1716.25 1787.92,1717.81 C1790,1719.37 1791.04,1721.62 1791.04,1724.55 C1791.04,1729.04 1788.72,1733.23 1784.07,1737.14 C1779.41,1741.05 1774.42,1743 1769.07,1743 C1765.95,1743 1763.31,1742.19 1761.17,1740.56 C1759.15,1738.8 1758.14,1736.59 1758.14,1733.92 C1758.14,1729.56 1760.45,1725.39 1765.07,1721.42 C1769.7,1717.45 1774.71,1715.47 1780.1,1715.47"/>
<path class="Note" d="M1705.57,1227.97 C1708.7,1227.97 1711.3,1228.75 1713.39,1230.31 C1715.47,1231.87 1716.51,1234.12 1716.51,1237.05 C1716.51,1241.54 1714.19,1245.73 1709.53,1249.64 C1704.88,1253.55 1699.89,1255.5 1694.54,1255.5 C1691.42,1255.5 1688.78,1254.69 1686.64,1253.06 C1684.62,1251.3 1683.61,1249.09 1683.61,1246.42 C1683.61,1242.06 1685.92,1237.89 1690.54,1233.92 C1695.17,1229.95 1700.18,1227.97 1705.57,1227.97"/>
<path class="Note" d="M1962.24,2190.47 C1965.37,2190.47 1967.97,2191.25 1970.06,2192.81 C1972.14,2194.37 1973.18,2196.62 1973.18,2199.55 C1973.18,2204.04 1970.86,2208.23 1966.2,2212.14 C1961.55,2216.05 1956.56,2218 1951.21,2218 C1948.09,2218 1945.45,2217.19 1943.31,2215.56 C1941.29,2213.8 1940.27,2211.59 1940.27,2208.92 C1940.27,2204.56 1942.59,2200.39 1947.21,2196.42 C1951.84,2192.45 1956.85,2190.47 1962.24,2190.47"/>
<path class="Note" d="M1533.58,1240.47 C1536.71,1240.47 1539.31,1241.25 1541.39,1242.81 C1543.48,1244.37 1544.52,1246.62 1544.52,1249.55 C1544.52,1254.04 1542.19,1258.23 1537.54,1262.14 C1532.89,1266.05 1527.89,1268 1522.55,1268 C1519.42,1268 1516.79,1267.19 1514.64,1265.56 C1512.62,1263.8 1511.61,1261.59 1511.61,1258.92 C1511.61,1254.56 1513.92,1250.39 1518.55,1246.42 C1523.17,1242.45 1528.18,1240.47 1533.58,1240.47"/>
<path class="Note" d="M1689.17,2202.37 C1691.06,2202.37 1695.01,2200.42 1701.04,2196.51 C1707.07,2192.61 1710.62,2189.99 1711.69,2188.66 C1712.76,2187.32 1713.3,2186.13 1713.3,2185.09 C1713.3,2184.05 1712.87,2183.12 1712.03,2182.31 C1711.18,2181.5 1710.2,2181.09 1709.1,2181.09 C1707.15,2181.09 1703.16,2183.06 1697.13,2187 C1691.11,2190.94 1687.57,2193.56 1686.53,2194.86 C1685.49,2196.16 1684.97,2197.33 1684.97,2198.37 C1684.97,2199.42 1685.38,2200.34 1686.2,2201.16 C1687.01,2201.97 1688.01,2202.37 1689.17,2202.37 M1708.13,2177.97 C1713.72,2177.97 1716.52,2180.37 1716.52,2185.19 C1716.52,2187.53 1715.84,2190.25 1714.47,2193.34 C1713.11,2196.44 1711.28,2198.8 1709,2200.42 C1703.99,2203.81 1697.71,2205.5 1690.16,2205.5 C1684.55,2205.5 1681.75,2203.09 1681.75,2198.28 C1681.75,2196.13 1682.42,2193.47 1683.75,2190.27 C1685.09,2187.08 1686.92,2184.67 1689.27,2183.05 C1694.29,2179.66 1700.57,2177.97 1708.13,2177.97"/>
<path class="Note" d="M341.268,1227.37 C343.153,1227.37 347.109,1225.42 353.135,1221.51 C359.161,1217.61 362.71,1214.99 363.783,1213.65 C364.856,1212.32 365.393,1211.13 365.393,1210.09 C365.393,1209.05 364.968,1208.12 364.119,1207.31 C363.27,1206.5 362.294,1206.09 361.19,1206.09 C359.242,1206.09 355.255,1208.06 349.229,1212 C343.203,1215.94 339.669,1218.56 338.627,1219.86 C337.585,1221.16 337.065,1222.33 337.065,1223.37 C337.065,1224.42 337.473,1225.34 338.291,1226.15 C339.109,1226.97 340.101,1227.37 341.268,1227.37 M360.221,1202.97 C365.815,1202.97 368.611,1205.37 368.611,1210.19 C368.611,1212.53 367.929,1215.25 366.565,1218.34 C365.2,1221.44 363.377,1223.8 361.096,1225.42 C356.085,1228.81 349.804,1230.5 342.252,1230.5 C336.648,1230.5 333.846,1228.09 333.846,1223.28 C333.846,1221.13 334.512,1218.46 335.846,1215.27 C337.179,1212.08 339.018,1209.67 341.361,1208.05 C346.382,1204.66 352.669,1202.97 360.221,1202.97"/>
<path class="Note" d="M1231.14,1252.37 C1233.03,1252.37 1236.98,1250.42 1243.01,1246.51 C1249.03,1242.61 1252.58,1239.99 1253.66,1238.65 C1254.73,1237.32 1255.26,1236.13 1255.26,1235.09 C1255.26,1234.05 1254.84,1233.12 1253.99,1232.31 C1253.14,1231.5 1252.17,1231.09 1251.06,1231.09 C1249.11,1231.09 1245.13,1233.06 1239.1,1237 C1233.07,1240.94 1229.54,1243.56 1228.5,1244.86 C1227.46,1246.16 1226.94,1247.33 1226.94,1248.37 C1226.94,1249.42 1227.35,1250.34 1228.16,1251.15 C1228.98,1251.97 1229.97,1252.37 1231.14,1252.37 M1250.09,1227.97 C1255.69,1227.97 1258.48,1230.37 1258.48,1235.19 C1258.48,1237.53 1257.8,1240.25 1256.44,1243.34 C1255.07,1246.44 1253.25,1248.8 1250.97,1250.42 C1245.96,1253.81 1239.68,1255.5 1232.12,1255.5 C1226.52,1255.5 1223.72,1253.09 1223.72,1248.28 C1223.72,1246.13 1224.38,1243.46 1225.72,1240.27 C1227.05,1237.08 1228.89,1234.67 1231.23,1233.05 C1236.25,1229.66 1242.54,1227.97 1250.09,1227.97"/>
<path class="Note" d="M614.708,1215.47 C617.833,1215.47 620.437,1216.25 622.52,1217.81 C624.604,1219.37 625.645,1221.62 625.645,1224.55 C625.645,1229.04 623.32,1233.23 618.669,1237.14 C614.018,1241.05 609.02,1243 603.677,1243 C600.552,1243 597.916,1242.19 595.77,1240.56 C593.749,1238.8 592.739,1236.59 592.739,1233.92 C592.739,1229.56 595.052,1225.39 599.677,1221.42 C604.302,1217.45 609.312,1215.47 614.708,1215.47"/>
<path class="Note" d="M973.149,1239.87 C975.034,1239.87 978.99,1237.92 985.016,1234.01 C991.042,1230.11 994.592,1227.49 995.665,1226.15 C996.737,1224.82 997.274,1223.63 997.274,1222.59 C997.274,1221.55 996.849,1220.62 996,1219.81 C995.151,1219 994.175,1218.59 993.071,1218.59 C991.123,1218.59 987.136,1220.56 981.11,1224.5 C975.084,1228.44 971.55,1231.06 970.508,1232.36 C969.467,1233.66 968.946,1234.83 968.946,1235.87 C968.946,1236.92 969.355,1237.84 970.172,1238.65 C970.99,1239.47 971.982,1239.87 973.149,1239.87 M992.102,1215.47 C997.696,1215.47 1000.49,1217.87 1000.49,1222.69 C1000.49,1225.03 999.81,1227.75 998.446,1230.84 C997.081,1233.94 995.258,1236.3 992.977,1237.92 C987.967,1241.31 981.685,1243 974.133,1243 C968.529,1243 965.727,1240.59 965.727,1235.78 C965.727,1233.63 966.394,1230.96 967.727,1227.77 C969.06,1224.58 970.899,1222.17 973.243,1220.55 C978.263,1217.16 984.55,1215.47 992.102,1215.47"/>
<path class="Note" d="M1516.94,752.967 C1520.07,752.967 1522.67,753.748 1524.75,755.311 C1526.84,756.873 1527.88,759.118 1527.88,762.045 C1527.88,766.535 1525.55,770.733 1520.9,774.639 C1516.25,778.545 1511.25,780.498 1505.91,780.498 C1502.79,780.498 1500.15,779.686 1498,778.061 C1495.98,776.3 1494.97,774.087 1494.97,771.42 C1494.97,767.056 1497.29,762.889 1501.91,758.92 C1506.54,754.952 1511.55,752.967 1516.94,752.967"/>
<path class="Note" d="M2543.39,290.467 C2546.51,290.467 2549.12,291.248 2551.2,292.811 C2553.28,294.373 2554.32,296.618 2554.32,299.545 C2554.32,304.035 2552,308.232 2547.35,312.139 C2542.7,316.045 2537.7,317.998 2532.36,317.998 C2529.23,317.998 2526.6,317.186 2524.45,315.561 C2522.43,313.8 2521.42,311.587 2521.42,308.92 C2521.42,304.555 2523.73,300.389 2528.36,296.42 C2532.98,292.451 2537.99,290.467 2543.39,290.467"/>
<path class="Note" d="M1619.58,1702.97 C1622.7,1702.97 1625.31,1703.75 1627.39,1705.31 C1629.47,1706.87 1630.51,1709.12 1630.51,1712.05 C1630.51,1716.54 1628.19,1720.73 1623.54,1724.64 C1618.89,1728.55 1613.89,1730.5 1608.55,1730.5 C1605.42,1730.5 1602.79,1729.69 1600.64,1728.06 C1598.62,1726.3 1597.61,1724.09 1597.61,1721.42 C1597.61,1717.06 1599.92,1712.89 1604.55,1708.92 C1609.17,1704.95 1614.18,1702.97 1619.58,1702.97"/>
<path class="Note" d="M2698.41,302.967 C2701.54,302.967 2704.14,303.748 2706.22,305.311 C2708.31,306.873 2709.35,309.118 2709.35,312.045 C2709.35,316.535 2707.02,320.732 2702.37,324.639 C2697.72,328.545 2692.72,330.498 2687.38,330.498 C2684.26,330.498 2681.62,329.686 2679.47,328.061 C2677.45,326.3 2676.44,324.087 2676.44,321.42 C2676.44,317.055 2678.76,312.889 2683.38,308.92 C2688.01,304.951 2693.02,302.967 2698.41,302.967"/>
<path class="Note" d="M341.268,802.373 C343.153,802.373 347.109,800.42 353.135,796.514 C359.161,792.608 362.71,789.988 363.783,788.655 C364.856,787.321 365.393,786.134 365.393,785.092 C365.393,784.05 364.968,783.123 364.119,782.311 C363.27,781.498 362.294,781.092 361.19,781.092 C359.242,781.092 355.255,783.061 349.229,786.998 C343.203,790.936 339.669,793.556 338.627,794.858 C337.585,796.16 337.065,797.332 337.065,798.373 C337.065,799.415 337.473,800.342 338.291,801.155 C339.109,801.967 340.101,802.373 341.268,802.373 M360.221,777.967 C365.815,777.967 368.611,780.373 368.611,785.186 C368.611,787.53 367.929,790.248 366.565,793.342 C365.2,796.436 363.377,798.795 361.096,800.42 C356.085,803.806 349.804,805.498 342.252,805.498 C336.648,805.498 333.846,803.092 333.846,798.28 C333.846,796.134 334.512,793.465 335.846,790.272 C337.179,787.079 339.018,784.67 341.361,783.045 C346.382,779.66 352.669,777.967 360.221,777.967"/>
<path class="Note" d="M786.702,1227.97 C789.827,1227.97 792.431,1228.75 794.514,1230.31 C796.598,1231.87 797.639,1234.12 797.639,1237.05 C797.639,1241.54 795.314,1245.73 790.663,1249.64 C786.012,1253.55 781.014,1255.5 775.671,1255.5 C772.546,1255.5 769.91,1254.69 767.764,1253.06 C765.743,1251.3 764.733,1249.09 764.733,1246.42 C764.733,1242.06 767.046,1237.89 771.671,1233.92 C776.296,1229.95 781.306,1227.97 786.702,1227.97"/>
<path class="Note" d="M617.769,790.467 C620.894,790.467 623.498,791.248 625.581,792.811 C627.665,794.373 628.706,796.618 628.706,799.545 C628.706,804.035 626.381,808.233 621.73,812.139 C617.079,816.045 612.081,817.998 606.737,817.998 C603.612,817.998 600.977,817.186 598.831,815.561 C596.81,813.8 595.8,811.587 595.8,808.92 C595.8,804.556 598.112,800.389 602.737,796.42 C607.362,792.452 612.373,790.467 617.769,790.467"/>
<path class="Note" d="M1269.52,1765.47 C1272.65,1765.47 1275.25,1766.25 1277.33,1767.81 C1279.42,1769.37 1280.46,1771.62 1280.46,1774.55 C1280.46,1779.04 1278.13,1783.23 1273.48,1787.14 C1268.83,1791.05 1263.83,1793 1258.49,1793 C1255.37,1793 1252.73,1792.19 1250.58,1790.56 C1248.56,1788.8 1247.55,1786.59 1247.55,1783.92 C1247.55,1779.56 1249.87,1775.39 1254.49,1771.42 C1259.12,1767.45 1264.13,1765.47 1269.52,1765.47"/>
<path class="Note" d="M791.803,802.967 C794.928,802.967 797.532,803.748 799.616,805.311 C801.699,806.873 802.741,809.118 802.741,812.045 C802.741,816.535 800.415,820.733 795.764,824.639 C791.113,828.545 786.116,830.498 780.772,830.498 C777.647,830.498 775.012,829.686 772.866,828.061 C770.845,826.3 769.835,824.087 769.835,821.42 C769.835,817.056 772.147,812.889 776.772,808.92 C781.397,804.952 786.407,802.967 791.803,802.967"/>
<path class="Note" d="M1013.28,1752.37 C1015.17,1752.37 1019.12,1750.42 1025.15,1746.51 C1031.17,1742.61 1034.72,1739.99 1035.8,1738.66 C1036.87,1737.32 1037.41,1736.13 1037.41,1735.09 C1037.41,1734.05 1036.98,1733.12 1036.13,1732.31 C1035.28,1731.5 1034.31,1731.09 1033.2,1731.09 C1031.25,1731.09 1027.27,1733.06 1021.24,1737 C1015.22,1740.94 1011.68,1743.56 1010.64,1744.86 C1009.6,1746.16 1009.08,1747.33 1009.08,1748.37 C1009.08,1749.42 1009.49,1750.34 1010.3,1751.16 C1011.12,1751.97 1012.11,1752.37 1013.28,1752.37 M1032.23,1727.97 C1037.83,1727.97 1040.62,1730.37 1040.62,1735.19 C1040.62,1737.53 1039.94,1740.25 1038.58,1743.34 C1037.21,1746.44 1035.39,1748.8 1033.11,1750.42 C1028.1,1753.81 1021.82,1755.5 1014.27,1755.5 C1008.66,1755.5 1005.86,1753.09 1005.86,1748.28 C1005.86,1746.13 1006.53,1743.47 1007.86,1740.27 C1009.19,1737.08 1011.03,1734.67 1013.37,1733.05 C1018.4,1729.66 1024.68,1727.97 1032.23,1727.97"/>
<path class="Note" d="M994.838,790.467 C997.963,790.467 1000.57,791.248 1002.65,792.811 C1004.73,794.373 1005.78,796.618 1005.78,799.545 C1005.78,804.035 1003.45,808.233 998.799,812.139 C994.148,816.045 989.15,817.998 983.807,817.998 C980.682,817.998 978.046,817.186 975.9,815.561 C973.88,813.8 972.869,811.587 972.869,808.92 C972.869,804.556 975.182,800.389 979.807,796.42 C984.432,792.452 989.442,790.467 994.838,790.467"/>
<path class="Note" d="M838.3,1715.47 C841.425,1715.47 844.029,1716.25 846.112,1717.81 C848.196,1719.37 849.237,1721.62 849.237,1724.55 C849.237,1729.04 846.912,1733.23 842.261,1737.14 C837.61,1741.05 832.612,1743 827.269,1743 C824.144,1743 821.508,1742.19 819.362,1740.56 C817.342,1738.8 816.331,1736.59 816.331,1733.92 C816.331,1729.56 818.644,1725.39 823.269,1721.42 C827.894,1717.45 832.904,1715.47 838.3,1715.47"/>
<path class="Note" d="M1168.87,777.967 C1172,777.967 1174.6,778.748 1176.68,780.311 C1178.77,781.873 1179.81,784.118 1179.81,787.045 C1179.81,791.535 1177.48,795.733 1172.83,799.639 C1168.18,803.545 1163.18,805.498 1157.84,805.498 C1154.72,805.498 1152.08,804.686 1149.93,803.061 C1147.91,801.3 1146.9,799.087 1146.9,796.42 C1146.9,792.056 1149.22,787.889 1153.84,783.92 C1158.47,779.952 1163.48,777.967 1168.87,777.967"/>
<path class="Note" d="M677.772,1727.97 C680.897,1727.97 683.501,1728.75 685.585,1730.31 C687.668,1731.87 688.71,1734.12 688.71,1737.05 C688.71,1741.54 686.384,1745.73 681.733,1749.64 C677.082,1753.55 672.085,1755.5 666.741,1755.5 C663.616,1755.5 660.981,1754.69 658.835,1753.06 C656.814,1751.3 655.804,1749.09 655.804,1746.42 C655.804,1742.06 658.116,1737.89 662.741,1733.92 C667.366,1729.95 672.376,1727.97 677.772,1727.97"/>
<path class="Note" d="M517.245,1740.47 C520.37,1740.47 522.974,1741.25 525.057,1742.81 C527.14,1744.37 528.182,1746.62 528.182,1749.55 C528.182,1754.04 525.857,1758.23 521.205,1762.14 C516.554,1766.05 511.557,1768 506.213,1768 C503.088,1768 500.453,1767.19 498.307,1765.56 C496.286,1763.8 495.276,1761.59 495.276,1758.92 C495.276,1754.56 497.588,1750.39 502.213,1746.42 C506.838,1742.45 511.849,1740.47 517.245,1740.47"/>
<path class="Note" d="M1342.91,765.467 C1346.03,765.467 1348.64,766.248 1350.72,767.811 C1352.8,769.373 1353.84,771.618 1353.84,774.545 C1353.84,779.035 1351.52,783.233 1346.87,787.139 C1342.22,791.045 1337.22,792.998 1331.88,792.998 C1328.75,792.998 1326.12,792.186 1323.97,790.561 C1321.95,788.8 1320.94,786.587 1320.94,783.92 C1320.94,779.556 1323.25,775.389 1327.88,771.42 C1332.5,767.452 1337.51,765.467 1342.91,765.467"/>
<path class="Note" d="M356.717,1727.97 C359.842,1727.97 362.446,1728.75 364.529,1730.31 C366.613,1731.87 367.654,1734.12 367.654,1737.05 C367.654,1741.54 365.329,1745.73 360.678,1749.64 C356.027,1753.55 351.029,1755.5 345.686,1755.5 C342.561,1755.5 339.925,1754.69 337.779,1753.06 C335.759,1751.3 334.748,1749.09 334.748,1746.42 C334.748,1742.06 337.061,1737.89 341.686,1733.92 C346.311,1729.95 351.321,1727.97 356.717,1727.97"/>
<path class="Note" d="M1705.43,814.873 C1707.31,814.873 1711.27,812.92 1717.3,809.014 C1723.32,805.108 1726.87,802.488 1727.94,801.155 C1729.02,799.821 1729.55,798.634 1729.55,797.592 C1729.55,796.55 1729.13,795.623 1728.28,794.811 C1727.43,793.998 1726.46,793.592 1725.35,793.592 C1723.4,793.592 1719.42,795.561 1713.39,799.498 C1707.36,803.436 1703.83,806.056 1702.79,807.358 C1701.75,808.66 1701.23,809.832 1701.23,810.873 C1701.23,811.915 1701.64,812.842 1702.45,813.655 C1703.27,814.467 1704.26,814.873 1705.43,814.873 M1724.38,790.467 C1729.98,790.467 1732.77,792.873 1732.77,797.686 C1732.77,800.03 1732.09,802.748 1730.73,805.842 C1729.36,808.936 1727.54,811.295 1725.26,812.92 C1720.25,816.306 1713.97,817.998 1706.41,817.998 C1700.81,817.998 1698.01,815.592 1698.01,810.78 C1698.01,808.634 1698.67,805.965 1700.01,802.772 C1701.34,799.579 1703.18,797.17 1705.52,795.545 C1710.54,792.16 1716.83,790.467 1724.38,790.467"/>
<path class="Clef" d="M203.623,423.858 L203.623,421.717 C203.56,420.613 203.399,418.889 203.139,416.545 C199.889,417.066 196.993,417.326 194.451,417.326 C185.337,417.326 177.605,413.727 171.256,406.529 C164.907,399.331 161.732,390.753 161.732,380.795 C161.732,378.128 162.253,374.923 163.295,371.178 C164.337,367.433 165.297,364.925 166.178,363.654 C167.058,362.384 168.378,360.154 170.139,356.967 C170.659,355.988 172.352,353.837 175.217,350.514 C175.738,349.805 176.193,349.222 176.584,348.764 C176.975,348.305 177.607,347.49 178.482,346.318 C179.357,345.147 180.3,344.055 181.31,343.045 C182.321,342.035 183.217,341.058 183.998,340.115 C184.779,339.173 185.498,338.378 186.154,337.733 C183.81,329.983 182.378,324.024 181.857,319.858 C181.337,315.691 181.076,310.579 181.076,304.522 C181.076,298.464 182.378,292.962 184.982,288.014 C187.514,282.878 191.06,278.68 195.623,275.42 C195.883,275.222 196.225,275.123 196.646,275.123 C197.068,275.123 197.378,275.222 197.576,275.42 C201.087,279.649 204.128,285.149 206.701,291.92 C209.274,298.691 210.56,305.024 210.56,310.92 C210.56,316.816 209.066,322.498 206.076,327.967 C202.691,333.759 198.326,339.748 192.982,345.936 C194.347,350.227 196.17,356.962 198.451,366.139 L199.045,366.139 C199.305,366.076 199.529,366.045 199.717,366.045 C207.081,366.045 213.089,368.634 217.74,373.811 C222.391,378.988 224.717,384.962 224.717,391.733 C224.717,400.128 221.238,406.899 214.279,412.045 C212.258,413.545 209.878,414.717 207.139,415.561 C207.472,419.79 207.639,422.605 207.639,424.006 C207.639,425.407 207.571,427.899 207.435,431.483 C207.373,437.597 205.29,442.837 201.185,447.201 C197.081,451.566 192.394,453.748 187.123,453.748 C181.852,453.748 177.36,451.876 173.646,448.131 C169.933,444.386 168.076,439.847 168.076,434.514 C168.076,431.712 169.154,429.331 171.31,427.373 C173.519,425.425 176.006,424.451 178.771,424.451 C181.537,424.451 183.8,425.462 185.56,427.483 C187.383,429.368 188.295,431.644 188.295,434.311 C188.295,436.977 187.383,439.222 185.56,441.045 C183.738,442.868 181.555,443.779 179.014,443.779 C177.972,443.779 176.967,443.587 175.998,443.201 C178.863,447.43 182.54,449.545 187.029,449.545 C191.519,449.545 195.36,447.691 198.553,443.983 C201.745,440.274 203.342,435.91 203.342,430.889 L203.623,423.858 M206.748,411.561 C210.133,410.321 212.821,408.123 214.81,404.967 C216.8,401.811 217.795,398.67 217.795,395.545 C217.795,390.92 216.199,386.785 213.006,383.139 C209.813,379.493 205.774,377.441 200.889,376.983 C203.691,390.722 205.644,402.248 206.748,411.561 M168.967,388.998 C168.967,395.446 171.537,401.079 176.678,405.897 C181.818,410.714 187.842,413.123 194.748,413.123 C197.477,413.123 200.144,412.925 202.748,412.529 C201.706,402.634 199.654,390.785 196.592,376.983 C192.758,377.378 189.782,378.699 187.662,380.943 C185.542,383.188 184.482,385.743 184.482,388.608 C184.482,393.555 187.123,397.561 192.404,400.623 C192.852,400.884 193.076,401.324 193.076,401.943 C193.076,402.563 192.865,403.1 192.443,403.553 C192.021,404.006 191.649,404.233 191.326,404.233 C191.003,404.233 190.581,404.17 190.06,404.045 C182.435,399.878 178.623,393.592 178.623,385.186 C178.623,381.217 180.024,377.41 182.826,373.764 C185.753,370.118 189.56,367.774 194.248,366.733 C192.425,359.441 190.93,353.743 189.764,349.639 C180.847,359.67 175.31,367.092 173.154,371.904 C170.363,378.154 168.967,383.852 168.967,388.998 M201.576,289.686 C196.691,292.092 192.834,295.574 190.006,300.131 C187.178,304.688 185.764,309.472 185.764,314.483 C185.764,319.493 186.935,325.972 189.279,333.92 C193.967,328.253 197.514,322.946 199.92,317.998 C202.326,313.05 203.529,308.152 203.529,303.303 C203.529,298.454 202.878,293.915 201.576,289.686"/>
<path class="Clef" d="M203.623,2323.86 L203.623,2321.72 C203.56,2320.61 203.399,2318.89 203.139,2316.55 C199.889,2317.07 196.993,2317.33 194.451,2317.33 C185.337,2317.33 177.605,2313.73 171.256,2306.53 C164.907,2299.33 161.732,2290.75 161.732,2280.8 C161.732,2278.13 162.253,2274.92 163.295,2271.18 C164.337,2267.43 165.297,2264.93 166.178,2263.66 C167.058,2262.38 168.378,2260.16 170.139,2256.97 C170.659,2255.99 172.352,2253.84 175.217,2250.51 C175.738,2249.81 176.193,2249.22 176.584,2248.76 C176.975,2248.31 177.607,2247.49 178.482,2246.32 C179.357,2245.15 180.3,2244.06 181.31,2243.05 C182.321,2242.04 183.217,2241.06 183.998,2240.12 C184.779,2239.17 185.498,2238.38 186.154,2237.73 C183.81,2229.98 182.378,2224.03 181.857,2219.86 C181.337,2215.69 181.076,2210.58 181.076,2204.52 C181.076,2198.47 182.378,2192.96 184.982,2188.01 C187.514,2182.88 191.06,2178.68 195.623,2175.42 C195.883,2175.22 196.225,2175.12 196.646,2175.12 C197.068,2175.12 197.378,2175.22 197.576,2175.42 C201.087,2179.65 204.128,2185.15 206.701,2191.92 C209.274,2198.69 210.56,2205.03 210.56,2210.92 C210.56,2216.82 209.066,2222.5 206.076,2227.97 C202.691,2233.76 198.326,2239.75 192.982,2245.94 C194.347,2250.23 196.17,2256.96 198.451,2266.14 L199.045,2266.14 C199.305,2266.08 199.529,2266.05 199.717,2266.05 C207.081,2266.05 213.089,2268.63 217.74,2273.81 C222.391,2278.99 224.717,2284.96 224.717,2291.73 C224.717,2300.13 221.238,2306.9 214.279,2312.05 C212.258,2313.55 209.878,2314.72 207.139,2315.56 C207.472,2319.79 207.639,2322.61 207.639,2324.01 C207.639,2325.41 207.571,2327.9 207.435,2331.48 C207.373,2337.6 205.29,2342.84 201.185,2347.2 C197.081,2351.57 192.394,2353.75 187.123,2353.75 C181.852,2353.75 177.36,2351.88 173.646,2348.13 C169.933,2344.39 168.076,2339.85 168.076,2334.51 C168.076,2331.71 169.154,2329.33 171.31,2327.37 C173.519,2325.43 176.006,2324.45 178.771,2324.45 C181.537,2324.45 183.8,2325.46 185.56,2327.48 C187.383,2329.37 188.295,2331.65 188.295,2334.31 C188.295,2336.98 187.383,2339.22 185.56,2341.05 C183.738,2342.87 181.555,2343.78 179.014,2343.78 C177.972,2343.78 176.967,2343.59 175.998,2343.2 C178.863,2347.43 182.54,2349.55 187.029,2349.55 C191.519,2349.55 195.36,2347.69 198.553,2343.98 C201.745,2340.28 203.342,2335.91 203.342,2330.89 L203.623,2323.86 M206.748,2311.56 C210.133,2310.32 212.821,2308.12 214.81,2304.97 C216.8,2301.81 217.795,2298.67 217.795,2295.55 C217.795,2290.92 216.199,2286.79 213.006,2283.14 C209.813,2279.49 205.774,2277.44 200.889,2276.98 C203.691,2290.72 205.644,2302.25 206.748,2311.56 M168.967,2289 C168.967,2295.45 171.537,2301.08 176.678,2305.9 C181.818,2310.72 187.842,2313.12 194.748,2313.12 C197.477,2313.12 200.144,2312.93 202.748,2312.53 C201.706,2302.63 199.654,2290.79 196.592,2276.98 C192.758,2277.38 189.782,2278.7 187.662,2280.94 C185.542,2283.19 184.482,2285.74 184.482,2288.61 C184.482,2293.56 187.123,2297.56 192.404,2300.62 C192.852,2300.88 193.076,2301.32 193.076,2301.94 C193.076,2302.56 192.865,2303.1 192.443,2303.55 C192.021,2304.01 191.649,2304.23 191.326,2304.23 C191.003,2304.23 190.581,2304.17 190.06,2304.05 C182.435,2299.88 178.623,2293.59 178.623,2285.19 C178.623,2281.22 180.024,2277.41 182.826,2273.76 C185.753,2270.12 189.56,2267.78 194.248,2266.73 C192.425,2259.44 190.93,2253.74 189.764,2249.64 C180.847,2259.67 175.31,2267.09 173.154,2271.91 C170.363,2278.16 168.967,2283.85 168.967,2289 M201.576,2189.69 C196.691,2192.09 192.834,2195.57 190.006,2200.13 C187.178,2204.69 185.764,2209.47 185.764,2214.48 C185.764,2219.49 186.935,2225.97 189.279,2233.92 C193.967,2228.25 197.514,2222.95 199.92,2218 C202.326,2213.05 203.529,2208.15 203.529,2203.3 C203.529,2198.46 202.878,2193.92 201.576,2189.69"/>
<path class="Clef" d="M203.623,1848.86 L203.623,1846.72 C203.56,1845.61 203.399,1843.89 203.139,1841.55 C199.889,1842.07 196.993,1842.33 194.451,1842.33 C185.337,1842.33 177.605,1838.73 171.256,1831.53 C164.907,1824.33 161.732,1815.75 161.732,1805.8 C161.732,1803.13 162.253,1799.92 163.295,1796.18 C164.337,1792.43 165.297,1789.93 166.178,1788.66 C167.058,1787.38 168.378,1785.16 170.139,1781.97 C170.659,1780.99 172.352,1778.84 175.217,1775.51 C175.738,1774.81 176.193,1774.22 176.584,1773.76 C176.975,1773.31 177.607,1772.49 178.482,1771.32 C179.357,1770.15 180.3,1769.06 181.31,1768.05 C182.321,1767.04 183.217,1766.06 183.998,1765.12 C184.779,1764.17 185.498,1763.38 186.154,1762.73 C183.81,1754.98 182.378,1749.03 181.857,1744.86 C181.337,1740.69 181.076,1735.58 181.076,1729.52 C181.076,1723.47 182.378,1717.96 184.982,1713.01 C187.514,1707.88 191.06,1703.68 195.623,1700.42 C195.883,1700.22 196.225,1700.12 196.646,1700.12 C197.068,1700.12 197.378,1700.22 197.576,1700.42 C201.087,1704.65 204.128,1710.15 206.701,1716.92 C209.274,1723.69 210.56,1730.03 210.56,1735.92 C210.56,1741.82 209.066,1747.5 206.076,1752.97 C202.691,1758.76 198.326,1764.75 192.982,1770.94 C194.347,1775.23 196.17,1781.96 198.451,1791.14 L199.045,1791.14 C199.305,1791.08 199.529,1791.05 199.717,1791.05 C207.081,1791.05 213.089,1793.63 217.74,1798.81 C222.391,1803.99 224.717,1809.96 224.717,1816.73 C224.717,1825.13 221.238,1831.9 214.279,1837.05 C212.258,1838.55 209.878,1839.72 207.139,1840.56 C207.472,1844.79 207.639,1847.61 207.639,1849.01 C207.639,1850.41 207.571,1852.9 207.435,1856.48 C207.373,1862.6 205.29,1867.84 201.185,1872.2 C197.081,1876.57 192.394,1878.75 187.123,1878.75 C181.852,1878.75 177.36,1876.88 173.646,1873.13 C169.933,1869.39 168.076,1864.85 168.076,1859.51 C168.076,1856.71 169.154,1854.33 171.31,1852.37 C173.519,1850.43 176.006,1849.45 178.771,1849.45 C181.537,1849.45 183.8,1850.46 185.56,1852.48 C187.383,1854.37 188.295,1856.64 188.295,1859.31 C188.295,1861.98 187.383,1864.22 185.56,1866.05 C183.738,1867.87 181.555,1868.78 179.014,1868.78 C177.972,1868.78 176.967,1868.59 175.998,1868.2 C178.863,1872.43 182.54,1874.55 187.029,1874.55 C191.519,1874.55 195.36,1872.69 198.553,1868.98 C201.745,1865.28 203.342,1860.91 203.342,1855.89 L203.623,1848.86 M206.748,1836.56 C210.133,1835.32 212.821,1833.12 214.81,1829.97 C216.8,1826.81 217.795,1823.67 217.795,1820.55 C217.795,1815.92 216.199,1811.79 213.006,1808.14 C209.813,1804.49 205.774,1802.44 200.889,1801.98 C203.691,1815.72 205.644,1827.25 206.748,1836.56 M168.967,1814 C168.967,1820.45 171.537,1826.08 176.678,1830.9 C181.818,1835.72 187.842,1838.12 194.748,1838.12 C197.477,1838.12 200.144,1837.93 202.748,1837.53 C201.706,1827.63 199.654,1815.79 196.592,1801.98 C192.758,1802.38 189.782,1803.7 187.662,1805.94 C185.542,1808.19 184.482,1810.74 184.482,1813.61 C184.482,1818.56 187.123,1822.56 192.404,1825.62 C192.852,1825.88 193.076,1826.32 193.076,1826.94 C193.076,1827.56 192.865,1828.1 192.443,1828.55 C192.021,1829.01 191.649,1829.23 191.326,1829.23 C191.003,1829.23 190.581,1829.17 190.06,1829.05 C182.435,1824.88 178.623,1818.59 178.623,1810.19 C178.623,1806.22 180.024,1802.41 182.826,1798.76 C185.753,1795.12 189.56,1792.78 194.248,1791.73 C192.425,1784.44 190.93,1778.74 189.764,1774.64 C180.847,1784.67 175.31,1792.09 173.154,1796.91 C170.363,1803.16 168.967,1808.85 168.967,1814 M201.576,1714.69 C196.691,1717.09 192.834,1720.57 190.006,1725.13 C187.178,1729.69 185.764,1734.47 185.764,1739.48 C185.764,1744.49 186.935,1750.97 189.279,1758.92 C193.967,1753.25 197.514,1747.95 199.92,1743 C202.326,1738.05 203.529,1733.15 203.529,1728.3 C203.529,1723.45 202.878,1718.92 201.576,1714.69"/>
<path class="Clef" d="M203.623,1373.86 L203.623,1371.72 C203.56,1370.61 203.399,1368.89 203.139,1366.55 C199.889,1367.07 196.993,1367.33 194.451,1367.33 C185.337,1367.33 177.605,1363.73 171.256,1356.53 C164.907,1349.33 161.732,1340.75 161.732,1330.8 C161.732,1328.13 162.253,1324.92 163.295,1321.18 C164.337,1317.43 165.297,1314.93 166.178,1313.65 C167.058,1312.38 168.378,1310.15 170.139,1306.97 C170.659,1305.99 172.352,1303.84 175.217,1300.51 C175.738,1299.81 176.193,1299.22 176.584,1298.76 C176.975,1298.31 177.607,1297.49 178.482,1296.32 C179.357,1295.15 180.3,1294.06 181.31,1293.05 C182.321,1292.04 183.217,1291.06 183.998,1290.12 C184.779,1289.17 185.498,1288.38 186.154,1287.73 C183.81,1279.98 182.378,1274.02 181.857,1269.86 C181.337,1265.69 181.076,1260.58 181.076,1254.52 C181.076,1248.46 182.378,1242.96 184.982,1238.01 C187.514,1232.88 191.06,1228.68 195.623,1225.42 C195.883,1225.22 196.225,1225.12 196.646,1225.12 C197.068,1225.12 197.378,1225.22 197.576,1225.42 C201.087,1229.65 204.128,1235.15 206.701,1241.92 C209.274,1248.69 210.56,1255.02 210.56,1260.92 C210.56,1266.82 209.066,1272.5 206.076,1277.97 C202.691,1283.76 198.326,1289.75 192.982,1295.94 C194.347,1300.23 196.17,1306.96 198.451,1316.14 L199.045,1316.14 C199.305,1316.08 199.529,1316.05 199.717,1316.05 C207.081,1316.05 213.089,1318.63 217.74,1323.81 C222.391,1328.99 224.717,1334.96 224.717,1341.73 C224.717,1350.13 221.238,1356.9 214.279,1362.05 C212.258,1363.55 209.878,1364.72 207.139,1365.56 C207.472,1369.79 207.639,1372.61 207.639,1374.01 C207.639,1375.41 207.571,1377.9 207.435,1381.48 C207.373,1387.6 205.29,1392.84 201.185,1397.2 C197.081,1401.57 192.394,1403.75 187.123,1403.75 C181.852,1403.75 177.36,1401.88 173.646,1398.13 C169.933,1394.39 168.076,1389.85 168.076,1384.51 C168.076,1381.71 169.154,1379.33 171.31,1377.37 C173.519,1375.43 176.006,1374.45 178.771,1374.45 C181.537,1374.45 183.8,1375.46 185.56,1377.48 C187.383,1379.37 188.295,1381.64 188.295,1384.31 C188.295,1386.98 187.383,1389.22 185.56,1391.05 C183.738,1392.87 181.555,1393.78 179.014,1393.78 C177.972,1393.78 176.967,1393.59 175.998,1393.2 C178.863,1397.43 182.54,1399.55 187.029,1399.55 C191.519,1399.55 195.36,1397.69 198.553,1393.98 C201.745,1390.27 203.342,1385.91 203.342,1380.89 L203.623,1373.86 M206.748,1361.56 C210.133,1360.32 212.821,1358.12 214.81,1354.97 C216.8,1351.81 217.795,1348.67 217.795,1345.55 C217.795,1340.92 216.199,1336.79 213.006,1333.14 C209.813,1329.49 205.774,1327.44 200.889,1326.98 C203.691,1340.72 205.644,1352.25 206.748,1361.56 M168.967,1339 C168.967,1345.45 171.537,1351.08 176.678,1355.9 C181.818,1360.71 187.842,1363.12 194.748,1363.12 C197.477,1363.12 200.144,1362.93 202.748,1362.53 C201.706,1352.63 199.654,1340.79 196.592,1326.98 C192.758,1327.38 189.782,1328.7 187.662,1330.94 C185.542,1333.19 184.482,1335.74 184.482,1338.61 C184.482,1343.56 187.123,1347.56 192.404,1350.62 C192.852,1350.88 193.076,1351.32 193.076,1351.94 C193.076,1352.56 192.865,1353.1 192.443,1353.55 C192.021,1354.01 191.649,1354.23 191.326,1354.23 C191.003,1354.23 190.581,1354.17 190.06,1354.05 C182.435,1349.88 178.623,1343.59 178.623,1335.19 C178.623,1331.22 180.024,1327.41 182.826,1323.76 C185.753,1320.12 189.56,1317.77 194.248,1316.73 C192.425,1309.44 190.93,1303.74 189.764,1299.64 C180.847,1309.67 175.31,1317.09 173.154,1321.9 C170.363,1328.15 168.967,1333.85 168.967,1339 M201.576,1239.69 C196.691,1242.09 192.834,1245.57 190.006,1250.13 C187.178,1254.69 185.764,1259.47 185.764,1264.48 C185.764,1269.49 186.935,1275.97 189.279,1283.92 C193.967,1278.25 197.514,1272.95 199.92,1268 C202.326,1263.05 203.529,1258.15 203.529,1253.3 C203.529,1248.45 202.878,1243.92 201.576,1239.69"/>
<path class="Clef" d="M203.623,898.858 L203.623,896.717 C203.56,895.613 203.399,893.889 203.139,891.545 C199.889,892.066 196.993,892.327 194.451,892.327 C185.337,892.327 177.605,888.728 171.256,881.53 C164.907,874.332 161.732,865.754 161.732,855.795 C161.732,853.129 162.253,849.923 163.295,846.178 C164.337,842.433 165.297,839.926 166.178,838.655 C167.058,837.384 168.378,835.155 170.139,831.967 C170.659,830.988 172.352,828.837 175.217,825.514 C175.738,824.806 176.193,824.222 176.584,823.764 C176.975,823.306 177.607,822.491 178.482,821.319 C179.357,820.147 180.3,819.056 181.31,818.045 C182.321,817.035 183.217,816.058 183.998,815.116 C184.779,814.173 185.498,813.379 186.154,812.733 C183.81,804.983 182.378,799.024 181.857,794.858 C181.337,790.691 181.076,785.579 181.076,779.522 C181.076,773.465 182.378,767.962 184.982,763.014 C187.514,757.879 191.06,753.681 195.623,750.42 C195.883,750.222 196.225,750.123 196.646,750.123 C197.068,750.123 197.378,750.222 197.576,750.42 C201.087,754.649 204.128,760.149 206.701,766.92 C209.274,773.691 210.56,780.024 210.56,785.92 C210.56,791.816 209.066,797.498 206.076,802.967 C202.691,808.759 198.326,814.748 192.982,820.936 C194.347,825.228 196.17,831.962 198.451,841.139 L199.045,841.139 C199.305,841.077 199.529,841.045 199.717,841.045 C207.081,841.045 213.089,843.634 217.74,848.811 C222.391,853.988 224.717,859.962 224.717,866.733 C224.717,875.129 221.238,881.899 214.279,887.045 C212.258,888.545 209.878,889.717 207.139,890.561 C207.472,894.79 207.639,897.605 207.639,899.006 C207.639,900.407 207.571,902.899 207.435,906.483 C207.373,912.597 205.29,917.837 201.185,922.202 C197.081,926.566 192.394,928.748 187.123,928.748 C181.852,928.748 177.36,926.876 173.646,923.131 C169.933,919.386 168.076,914.847 168.076,909.514 C168.076,906.712 169.154,904.332 171.31,902.373 C173.519,900.426 176.006,899.452 178.771,899.452 C181.537,899.452 183.8,900.462 185.56,902.483 C187.383,904.368 188.295,906.644 188.295,909.311 C188.295,911.978 187.383,914.222 185.56,916.045 C183.738,917.868 181.555,918.78 179.014,918.78 C177.972,918.78 176.967,918.587 175.998,918.202 C178.863,922.431 182.54,924.545 187.029,924.545 C191.519,924.545 195.36,922.691 198.553,918.983 C201.745,915.274 203.342,910.91 203.342,905.889 L203.623,898.858 M206.748,886.561 C210.133,885.321 212.821,883.123 214.81,879.967 C216.8,876.811 217.795,873.67 217.795,870.545 C217.795,865.92 216.199,861.785 213.006,858.139 C209.813,854.493 205.774,852.441 200.889,851.983 C203.691,865.722 205.644,877.248 206.748,886.561 M168.967,863.998 C168.967,870.446 171.537,876.079 176.678,880.897 C181.818,885.715 187.842,888.123 194.748,888.123 C197.477,888.123 200.144,887.926 202.748,887.53 C201.706,877.634 199.654,865.785 196.592,851.983 C192.758,852.379 189.782,853.699 187.662,855.944 C185.542,858.189 184.482,860.743 184.482,863.608 C184.482,868.556 187.123,872.561 192.404,875.623 C192.852,875.884 193.076,876.324 193.076,876.944 C193.076,877.564 192.865,878.1 192.443,878.553 C192.021,879.006 191.649,879.233 191.326,879.233 C191.003,879.233 190.581,879.17 190.06,879.045 C182.435,874.879 178.623,868.592 178.623,860.186 C178.623,856.217 180.024,852.41 182.826,848.764 C185.753,845.118 189.56,842.774 194.248,841.733 C192.425,834.441 190.93,828.743 189.764,824.639 C180.847,834.67 175.31,842.092 173.154,846.905 C170.363,853.155 168.967,858.853 168.967,863.998 M201.576,764.686 C196.691,767.092 192.834,770.574 190.006,775.131 C187.178,779.689 185.764,784.472 185.764,789.483 C185.764,794.493 186.935,800.972 189.279,808.92 C193.967,803.254 197.514,797.946 199.92,792.998 C202.326,788.051 203.529,783.152 203.529,778.303 C203.529,773.454 202.878,768.915 201.576,764.686"/>
<path class="KeySig" d="M251.123,384.311 L249.857,322.201 C249.857,321.222 250.623,320.733 252.154,320.733 C253.686,320.733 254.451,321.222 254.451,322.201 L253.67,356.092 C255.43,354.331 256.943,353.11 258.209,352.428 C259.475,351.746 261.199,351.404 263.381,351.404 C265.563,351.404 267.581,352.412 269.436,354.428 C271.29,356.443 272.217,358.951 272.217,361.951 C272.217,366.441 267.498,372.66 258.061,380.608 C254.55,383.795 252.727,385.389 252.592,385.389 L252.014,385.389 C251.42,385.389 251.123,385.029 251.123,384.311 M253.576,359.217 L253.279,381.389 C255.3,379.493 257.352,376.347 259.436,371.951 C261.519,367.555 262.561,363.795 262.561,360.67 C262.561,359.108 262.3,357.675 261.779,356.373 C261.258,355.071 260.443,354.42 259.334,354.42 C258.225,354.42 257.23,354.811 256.35,355.592 C255.469,356.373 254.545,357.581 253.576,359.217"/>
<path class="KeySig" d="M251.123,1809.31 L249.857,1747.2 C249.857,1746.22 250.623,1745.73 252.154,1745.73 C253.686,1745.73 254.451,1746.22 254.451,1747.2 L253.67,1781.09 C255.43,1779.33 256.943,1778.11 258.209,1777.43 C259.475,1776.75 261.199,1776.41 263.381,1776.41 C265.563,1776.41 267.581,1777.41 269.436,1779.43 C271.29,1781.44 272.217,1783.95 272.217,1786.95 C272.217,1791.44 267.498,1797.66 258.061,1805.61 C254.55,1808.8 252.727,1810.39 252.592,1810.39 L252.014,1810.39 C251.42,1810.39 251.123,1810.03 251.123,1809.31 M253.576,1784.22 L253.279,1806.39 C255.3,1804.49 257.352,1801.35 259.436,1796.95 C261.519,1792.56 262.561,1788.8 262.561,1785.67 C262.561,1784.11 262.3,1782.68 261.779,1781.37 C261.258,1780.07 260.443,1779.42 259.334,1779.42 C258.225,1779.42 257.23,1779.81 256.35,1780.59 C255.469,1781.37 254.545,1782.58 253.576,1784.22"/>
<path class="KeySig" d="M251.123,1334.31 L249.857,1272.2 C249.857,1271.22 250.623,1270.73 252.154,1270.73 C253.686,1270.73 254.451,1271.22 254.451,1272.2 L253.67,1306.09 C255.43,1304.33 256.943,1303.11 258.209,1302.43 C259.475,1301.75 261.199,1301.4 263.381,1301.4 C265.563,1301.4 267.581,1302.41 269.436,1304.43 C271.29,1306.44 272.217,1308.95 272.217,1311.95 C272.217,1316.44 267.498,1322.66 258.061,1330.61 C254.55,1333.8 252.727,1335.39 252.592,1335.39 L252.014,1335.39 C251.42,1335.39 251.123,1335.03 251.123,1334.31 M253.576,1309.22 L253.279,1331.39 C255.3,1329.49 257.352,1326.35 259.436,1321.95 C261.519,1317.56 262.561,1313.8 262.561,1310.67 C262.561,1309.11 262.3,1307.68 261.779,1306.37 C261.258,1305.07 260.443,1304.42 259.334,1304.42 C258.225,1304.42 257.23,1304.81 256.35,1305.59 C255.469,1306.37 254.545,1307.58 253.576,1309.22"/>
<path class="KeySig" d="M251.123,2284.31 L249.857,2222.2 C249.857,2221.22 250.623,2220.73 252.154,2220.73 C253.686,2220.73 254.451,2221.22 254.451,2222.2 L253.67,2256.09 C255.43,2254.33 256.943,2253.11 258.209,2252.43 C259.475,2251.75 261.199,2251.41 263.381,2251.41 C265.563,2251.41 267.581,2252.41 269.436,2254.43 C271.29,2256.44 272.217,2258.95 272.217,2261.95 C272.217,2266.44 267.498,2272.66 258.061,2280.61 C254.55,2283.8 252.727,2285.39 252.592,2285.39 L252.014,2285.39 C251.42,2285.39 251.123,2285.03 251.123,2284.31 M253.576,2259.22 L253.279,2281.39 C255.3,2279.49 257.352,2276.35 259.436,2271.95 C261.519,2267.56 262.561,2263.8 262.561,2260.67 C262.561,2259.11 262.3,2257.68 261.779,2256.37 C261.258,2255.07 260.443,2254.42 259.334,2254.42 C258.225,2254.42 257.23,2254.81 256.35,2255.59 C255.469,2256.37 254.545,2257.58 253.576,2259.22"/>
<path class="KeySig" d="M251.123,859.311 L249.857,797.202 C249.857,796.222 250.623,795.733 252.154,795.733 C253.686,795.733 254.451,796.222 254.451,797.202 L253.67,831.092 C255.43,829.332 256.943,828.11 258.209,827.428 C259.475,826.746 261.199,826.405 263.381,826.405 C265.563,826.405 267.581,827.412 269.436,829.428 C271.29,831.444 272.217,833.952 272.217,836.952 C272.217,841.441 267.498,847.66 258.061,855.608 C254.55,858.795 252.727,860.389 252.592,860.389 L252.014,860.389 C251.42,860.389 251.123,860.03 251.123,859.311 M253.576,834.217 L253.279,856.389 C255.3,854.493 257.352,851.347 259.436,846.952 C261.519,842.556 262.561,838.795 262.561,835.67 C262.561,834.108 262.3,832.676 261.779,831.373 C261.258,830.071 260.443,829.42 259.334,829.42 C258.225,829.42 257.23,829.811 256.35,830.592 C255.469,831.373 254.545,832.582 253.576,834.217"/>
<path class="TimeSig" d="M320.537,317.912 C322.032,317.912 323.464,317.686 324.834,317.232 C326.204,316.779 327.18,316.553 327.764,316.553 C328.347,316.553 328.738,316.907 328.936,317.615 C328.936,317.688 328.868,317.886 328.732,318.209 L300.326,351.225 L317.014,351.225 L317.014,338.131 C317.014,336.506 317.962,335.334 319.857,334.615 C321.805,333.897 324.019,331.001 326.498,325.928 C326.686,325.532 326.977,325.334 327.373,325.334 C328.154,325.334 328.607,325.792 328.732,326.709 L328.732,351.225 L335.873,351.225 C336.779,351.225 337.266,351.712 337.334,352.686 C337.402,353.66 336.915,354.147 335.873,354.147 L328.732,354.147 L328.732,354.928 C328.732,357.532 329.383,359.746 330.686,361.568 C332.186,363.391 333.946,364.303 335.967,364.303 C336.748,364.303 337.139,364.693 337.139,365.475 C337.139,366.256 336.602,366.647 335.529,366.647 C334.456,366.647 332.454,366.436 329.522,366.014 C326.589,365.592 324.326,365.381 322.732,365.381 C321.139,365.381 318.925,365.592 316.092,366.014 C313.258,366.436 311.128,366.647 309.701,366.647 C308.92,366.647 308.529,366.256 308.529,365.475 C308.529,364.693 308.92,364.303 309.701,364.303 C311.712,364.303 313.467,363.391 314.967,361.568 C316.331,359.683 317.014,357.469 317.014,354.928 L317.014,354.147 L300.326,354.147 C299.472,354.147 298.735,353.92 298.115,353.467 C297.495,353.014 297.186,352.592 297.186,352.201 C297.186,351.811 298.001,350.639 299.631,348.686 C301.261,346.732 303.589,342.972 306.615,337.404 C309.641,331.837 311.154,325.438 311.154,318.209 C311.154,317.167 311.613,316.647 312.529,316.647 C312.727,316.647 313.037,316.712 313.459,316.842 C313.881,316.972 314.792,317.183 316.193,317.475 C317.594,317.766 319.042,317.912 320.537,317.912"/>
<path class="TimeSig" d="M320.537,368.084 C322.032,368.084 323.464,367.858 324.834,367.404 C326.204,366.951 327.18,366.725 327.764,366.725 C328.347,366.725 328.738,367.079 328.936,367.787 C328.936,367.86 328.868,368.058 328.732,368.381 L300.326,401.397 L317.014,401.397 L317.014,388.303 C317.014,386.678 317.962,385.506 319.857,384.787 C321.805,384.068 324.019,381.173 326.498,376.1 C326.686,375.704 326.977,375.506 327.373,375.506 C328.154,375.506 328.607,375.964 328.732,376.881 L328.732,401.397 L335.873,401.397 C336.779,401.397 337.266,401.884 337.334,402.858 C337.402,403.831 336.915,404.318 335.873,404.318 L328.732,404.318 L328.732,405.1 C328.732,407.704 329.383,409.917 330.686,411.74 C332.186,413.563 333.946,414.475 335.967,414.475 C336.748,414.475 337.139,414.865 337.139,415.647 C337.139,416.428 336.602,416.818 335.529,416.818 C334.456,416.818 332.454,416.608 329.522,416.186 C326.589,415.764 324.326,415.553 322.732,415.553 C321.139,415.553 318.925,415.764 316.092,416.186 C313.258,416.608 311.128,416.818 309.701,416.818 C308.92,416.818 308.529,416.428 308.529,415.647 C308.529,414.865 308.92,414.475 309.701,414.475 C311.712,414.475 313.467,413.563 314.967,411.74 C316.331,409.855 317.014,407.641 317.014,405.1 L317.014,404.318 L300.326,404.318 C299.472,404.318 298.735,404.092 298.115,403.639 C297.495,403.186 297.186,402.764 297.186,402.373 C297.186,401.983 298.001,400.811 299.631,398.858 C301.261,396.904 303.589,393.144 306.615,387.576 C309.641,382.009 311.154,375.61 311.154,368.381 C311.154,367.339 311.613,366.818 312.529,366.818 C312.727,366.818 313.037,366.884 313.459,367.014 C313.881,367.144 314.792,367.355 316.193,367.647 C317.594,367.938 319.042,368.084 320.537,368.084"/>
<path class="Rest" d="M2629.36,2261.45 C2628.71,2260.61 2628.38,2259.7 2628.38,2258.72 C2628.38,2256.97 2630.47,2254.53 2634.64,2251.41 C2638.74,2248.21 2640.78,2244.56 2640.78,2240.47 C2640.78,2238.05 2639.94,2235.84 2638.25,2233.83 L2634.74,2229.62 C2634.48,2229.36 2634.35,2229.04 2634.35,2228.65 C2634.35,2228.26 2634.54,2227.9 2634.92,2227.58 C2635.38,2227.24 2635.81,2227.08 2636.2,2227.08 C2636.59,2227.08 2636.91,2227.28 2637.17,2227.67 L2652.32,2245.64 C2652.96,2246.48 2653.28,2247.41 2653.28,2248.42 C2653.28,2249.43 2652.75,2250.52 2651.67,2251.69 C2650.6,2252.87 2649.09,2254.23 2647.14,2255.8 C2645.64,2256.7 2644.23,2258.13 2642.89,2260.09 C2641.56,2262.04 2640.89,2264.25 2640.89,2266.73 C2640.89,2269.21 2641.67,2271.4 2643.24,2273.28 L2651.63,2283.14 C2651.83,2283.34 2651.96,2283.66 2652.02,2284.12 C2652.08,2284.57 2651.92,2284.96 2651.53,2285.29 C2651.14,2285.62 2650.83,2285.78 2650.6,2285.78 C2650.38,2285.78 2649.79,2285.41 2648.85,2284.66 C2647.9,2283.91 2646.56,2283.17 2644.84,2282.46 C2643.11,2281.75 2641.41,2281.39 2639.71,2281.39 C2638.02,2281.39 2636.69,2281.85 2635.71,2282.76 C2634.74,2283.67 2634.25,2285.77 2634.25,2289.05 C2634.25,2292.34 2635.2,2295.12 2637.08,2297.41 C2637.28,2297.67 2637.31,2297.96 2637.18,2298.28 C2637.05,2298.6 2636.79,2298.76 2636.4,2298.76 C2636.01,2298.76 2635.02,2297.56 2633.42,2295.16 C2631.82,2292.75 2630.29,2289.9 2628.82,2286.61 C2627.36,2283.32 2626.63,2280.57 2626.63,2278.36 C2626.63,2275.56 2628.06,2274.16 2630.92,2274.16 C2633.79,2274.16 2637.66,2275.2 2642.55,2277.28 L2629.36,2261.45 "/>
<path class="Rest" d="M2657.82,836.452 C2657.17,835.608 2656.84,834.696 2656.84,833.717 C2656.84,831.967 2658.93,829.53 2663.11,826.405 C2667.2,823.207 2669.25,819.561 2669.25,815.467 C2669.25,813.051 2668.4,810.837 2666.72,808.827 L2663.2,804.623 C2662.94,804.363 2662.81,804.037 2662.81,803.647 C2662.81,803.256 2663,802.899 2663.39,802.577 C2663.85,802.243 2664.27,802.077 2664.66,802.077 C2665.05,802.077 2665.38,802.274 2665.64,802.67 L2680.78,820.639 C2681.42,821.483 2681.75,822.41 2681.75,823.42 C2681.75,824.431 2681.21,825.522 2680.14,826.694 C2679.06,827.866 2677.55,829.233 2675.61,830.795 C2674.11,831.702 2672.69,833.131 2671.36,835.084 C2670.02,837.037 2669.36,839.254 2669.36,841.733 C2669.36,844.212 2670.14,846.394 2671.7,848.28 L2680.09,858.139 C2680.29,858.337 2680.42,858.662 2680.48,859.116 C2680.54,859.569 2680.38,859.959 2679.99,860.287 C2679.6,860.616 2679.29,860.78 2679.07,860.78 C2678.84,860.78 2678.26,860.405 2677.31,859.655 C2676.36,858.905 2675.02,858.173 2673.3,857.459 C2671.58,856.746 2669.87,856.389 2668.18,856.389 C2666.48,856.389 2665.15,856.845 2664.18,857.756 C2663.2,858.668 2662.72,860.767 2662.72,864.053 C2662.72,867.34 2663.66,870.123 2665.54,872.405 C2665.74,872.665 2665.77,872.957 2665.64,873.28 C2665.51,873.603 2665.25,873.764 2664.86,873.764 C2664.47,873.764 2663.48,872.561 2661.88,870.155 C2660.28,867.748 2658.75,864.899 2657.29,861.608 C2655.82,858.316 2655.09,855.566 2655.09,853.358 C2655.09,850.556 2656.52,849.155 2659.39,849.155 C2662.25,849.155 2666.13,850.196 2671.01,852.28 L2657.82,836.452 "/>
<path class="NoteDot" d="M2003.29,808.241 C2002.18,807.131 2001.63,805.795 2001.63,804.233 C2001.63,802.67 2002.18,801.334 2003.29,800.225 C2004.4,799.116 2005.74,798.561 2007.3,798.561 C2008.86,798.561 2010.19,799.116 2011.3,800.225 C2012.4,801.334 2012.95,802.67 2012.95,804.233 C2012.95,805.795 2012.4,807.131 2011.3,808.241 C2010.19,809.35 2008.86,809.905 2007.3,809.905 C2005.74,809.905 2004.4,809.35 2003.29,808.241"/>
<path class="NoteDot" d="M2370.74,833.241 C2369.63,832.131 2369.07,830.795 2369.07,829.233 C2369.07,827.67 2369.63,826.334 2370.74,825.225 C2371.85,824.116 2373.18,823.561 2374.74,823.561 C2376.31,823.561 2377.64,824.116 2378.74,825.225 C2379.85,826.334 2380.4,827.67 2380.4,829.233 C2380.4,830.795 2379.85,832.131 2378.74,833.241 C2377.64,834.35 2376.31,834.905 2374.74,834.905 C2373.18,834.905 2371.85,834.35 2370.74,833.241"/>
<path class="NoteDot" d="M1983.6,2208.24 C1982.49,2207.13 1981.94,2205.8 1981.94,2204.23 C1981.94,2202.67 1982.49,2201.34 1983.6,2200.23 C1984.71,2199.12 1986.05,2198.56 1987.61,2198.56 C1989.17,2198.56 1990.51,2199.12 1991.61,2200.23 C1992.71,2201.34 1993.27,2202.67 1993.27,2204.23 C1993.27,2205.8 1992.71,2207.13 1991.61,2208.24 C1990.51,2209.35 1989.17,2209.91 1987.61,2209.91 C1986.05,2209.91 1984.71,2209.35 1983.6,2208.24"/>
<path class="NoteDot" d="M2346.62,2208.24 C2345.51,2207.13 2344.96,2205.8 2344.96,2204.23 C2344.96,2202.67 2345.51,2201.34 2346.62,2200.23 C2347.73,2199.12 2349.07,2198.56 2350.63,2198.56 C2352.19,2198.56 2353.53,2199.12 2354.63,2200.23 C2355.74,2201.34 2356.29,2202.67 2356.29,2204.23 C2356.29,2205.8 2355.74,2207.13 2354.63,2208.24 C2353.53,2209.35 2352.19,2209.91 2350.63,2209.91 C2349.07,2209.91 2347.73,2209.35 2346.62,2208.24"/>
</svg>
