<?xml version="1.0" encoding="UTF-8" standalone="no"?>
<svg width="2977.2px" height="4208.4px" viewBox="0 0 2977.2 4208.4"
 xmlns="http://www.w3.org/2000/svg" xmlns:xlink="http://www.w3.org/1999/xlink" version="1.2" baseProfile="tiny">
<title>Ebmaj_Scale.mscx</title>
<desc>Generated by MuseScore Studio 4.3.1</desc>
<path class="" fill="#ffffff" fill-rule="evenodd" d="M0,0 L2977.2,0 L2977.2,4208.4 L0,4208.4 L0,0 "/>
<polyline class="StaffLines" fill="none" stroke="#000000" stroke-width="2.00" stroke-linejoin="bevel" points="141.732,566.733 2835.47,566.733"/>
<polyline class="StaffLines" fill="none" stroke="#000000" stroke-width="2.00" stroke-linejoin="bevel" points="141.732,591.733 2835.47,591.733"/>
<polyline class="StaffLines" fill="none" stroke="#000000" stroke-width="2.00" stroke-linejoin="bevel" points="141.732,616.733 2835.47,616.733"/>
<polyline class="StaffLines" fill="none" stroke="#000000" stroke-width="2.00" stroke-linejoin="bevel" points="141.732,641.733 2835.47,641.733"/>
<polyline class="StaffLines" fill="none" stroke="#000000" stroke-width="2.00" stroke-linejoin="bevel" points="141.732,666.733 2835.47,666.733"/>
<polyline class="BarLine" fill="none" stroke="#000000" stroke-width="4.00" stroke-linejoin="bevel" points="954.946,565.733 954.946,667.733"/>
<polyline class="BarLine" fill="none" stroke="#000000" stroke-width="4.00" stroke-linejoin="bevel" points="2802.72,565.733 2802.72,667.733"/>
<polyline class="BarLine" fill="none" stroke="#000000" stroke-width="12.50" stroke-linejoin="bevel" points="2829.22,565.733 2829.22,667.733"/>
<polyline class="BarLine" fill="none" stroke="#000000" stroke-width="4.00" stroke-linejoin="bevel" points="1592.02,565.733 1592.02,667.733"/>
<polyline class="BarLine" fill="none" stroke="#000000" stroke-width="4.00" stroke-linejoin="bevel" points="2542.37,565.733 2542.37,667.733"/>
<polyline class="BarLine" fill="none" stroke="#000000" stroke-width="4.00" stroke-linejoin="bevel" points="1905.3,565.733 1905.3,667.733"/>
<polyline class="BarLine" fill="none" stroke="#000000" stroke-width="4.00" stroke-linejoin="bevel" points="1278.74,565.733 1278.74,667.733"/>
<polyline class="BarLine" fill="none" stroke="#000000" stroke-width="4.00" stroke-linejoin="bevel" points="2229.09,565.733 2229.09,667.733"/>
<polyline class="BarLine" fill="none" stroke="#000000" stroke-width="4.00" stroke-linejoin="bevel" points="641.667,565.733 641.667,667.733"/>
<path class="Accidental" d="M1420.8,596.811 L1419.54,534.701 C1419.54,533.722 1420.3,533.233 1421.83,533.233 C1423.37,533.233 1424.13,533.722 1424.13,534.701 L1423.35,568.592 C1425.11,566.832 1426.62,565.61 1427.89,564.928 C1429.15,564.246 1430.88,563.905 1433.06,563.905 C1435.24,563.905 1437.26,564.912 1439.12,566.928 C1440.97,568.944 1441.9,571.451 1441.9,574.451 C1441.9,578.941 1437.18,585.16 1427.74,593.108 C1424.23,596.295 1422.41,597.889 1422.27,597.889 L1421.69,597.889 C1421.1,597.889 1420.8,597.53 1420.8,596.811 M1423.26,571.717 L1422.96,593.889 C1424.98,591.993 1427.03,588.847 1429.12,584.451 C1431.2,580.056 1432.24,576.295 1432.24,573.17 C1432.24,571.608 1431.98,570.175 1431.46,568.873 C1430.94,567.571 1430.12,566.92 1429.01,566.92 C1427.9,566.92 1426.91,567.311 1426.03,568.092 C1425.15,568.873 1424.22,570.082 1423.26,571.717"/>
<path class="Accidental" d="M965.836,634.311 L964.571,572.201 C964.571,571.222 965.336,570.733 966.868,570.733 C968.399,570.733 969.165,571.222 969.165,572.201 L968.383,606.092 C970.144,604.332 971.657,603.11 972.922,602.428 C974.188,601.746 975.912,601.405 978.094,601.405 C980.277,601.405 982.295,602.412 984.149,604.428 C986.003,606.444 986.93,608.951 986.93,611.951 C986.93,616.441 982.211,622.66 972.774,630.608 C969.264,633.795 967.441,635.389 967.305,635.389 L966.727,635.389 C966.133,635.389 965.836,635.03 965.836,634.311 M968.29,609.217 L967.993,631.389 C970.014,629.493 972.066,626.347 974.149,621.951 C976.232,617.556 977.274,613.795 977.274,610.67 C977.274,609.108 977.014,607.675 976.493,606.373 C975.972,605.071 975.157,604.42 974.047,604.42 C972.938,604.42 971.943,604.811 971.063,605.592 C970.183,606.373 969.258,607.582 968.29,609.217"/>
<path class="Accidental" d="M783.73,646.811 L782.465,584.701 C782.465,583.722 783.23,583.233 784.762,583.233 C786.293,583.233 787.058,583.722 787.058,584.701 L786.277,618.592 C788.038,616.832 789.551,615.61 790.816,614.928 C792.082,614.246 793.806,613.905 795.988,613.905 C798.17,613.905 800.189,614.912 802.043,616.928 C803.897,618.944 804.824,621.451 804.824,624.451 C804.824,628.941 800.105,635.16 790.668,643.108 C787.157,646.295 785.335,647.889 785.199,647.889 L784.621,647.889 C784.027,647.889 783.73,647.53 783.73,646.811 M786.183,621.717 L785.887,643.889 C787.907,641.993 789.96,638.847 792.043,634.451 C794.126,630.056 795.168,626.295 795.168,623.17 C795.168,621.608 794.907,620.175 794.387,618.873 C793.866,617.571 793.051,616.92 791.941,616.92 C790.832,616.92 789.837,617.311 788.957,618.092 C788.077,618.873 787.152,620.082 786.183,621.717"/>
<path class="Accidental" d="M1916.19,634.311 L1914.92,572.201 C1914.92,571.222 1915.69,570.733 1917.22,570.733 C1918.75,570.733 1919.52,571.222 1919.52,572.201 L1918.73,606.092 C1920.49,604.332 1922.01,603.11 1923.27,602.428 C1924.54,601.746 1926.26,601.405 1928.45,601.405 C1930.63,601.405 1932.65,602.412 1934.5,604.428 C1936.35,606.444 1937.28,608.951 1937.28,611.951 C1937.28,616.441 1932.56,622.66 1923.13,630.608 C1919.61,633.795 1917.79,635.389 1917.66,635.389 L1917.08,635.389 C1916.48,635.389 1916.19,635.03 1916.19,634.311 M1918.64,609.217 L1918.34,631.389 C1920.36,629.493 1922.42,626.347 1924.5,621.951 C1926.58,617.556 1927.63,613.795 1927.63,610.67 C1927.63,609.108 1927.36,607.675 1926.84,606.373 C1926.32,605.071 1925.51,604.42 1924.4,604.42 C1923.29,604.42 1922.29,604.811 1921.41,605.592 C1920.53,606.373 1919.61,607.582 1918.64,609.217"/>
<path class="Accidental" d="M2057.88,646.811 L2056.61,584.701 C2056.61,583.722 2057.38,583.233 2058.91,583.233 C2060.44,583.233 2061.2,583.722 2061.2,584.701 L2060.42,618.592 C2062.18,616.832 2063.7,615.61 2064.96,614.928 C2066.23,614.246 2067.95,613.905 2070.13,613.905 C2072.32,613.905 2074.33,614.912 2076.19,616.928 C2078.04,618.944 2078.97,621.451 2078.97,624.451 C2078.97,628.941 2074.25,635.16 2064.81,643.108 C2061.3,646.295 2059.48,647.889 2059.34,647.889 L2058.77,647.889 C2058.17,647.889 2057.88,647.53 2057.88,646.811 M2060.33,621.717 L2060.03,643.889 C2062.05,641.993 2064.1,638.847 2066.19,634.451 C2068.27,630.056 2069.31,626.295 2069.31,623.17 C2069.31,621.608 2069.05,620.175 2068.53,618.873 C2068.01,617.571 2067.2,616.92 2066.09,616.92 C2064.98,616.92 2063.98,617.311 2063.1,618.092 C2062.22,618.873 2061.3,620.082 2060.33,621.717"/>
<path class="Accidental" d="M328.764,684.311 L327.498,622.201 C327.498,621.222 328.264,620.733 329.795,620.733 C331.326,620.733 332.092,621.222 332.092,622.201 L331.311,656.092 C333.071,654.332 334.584,653.11 335.85,652.428 C337.115,651.746 338.839,651.405 341.022,651.405 C343.204,651.405 345.222,652.412 347.076,654.428 C348.93,656.444 349.857,658.951 349.857,661.951 C349.857,666.441 345.139,672.66 335.701,680.608 C332.191,683.795 330.368,685.389 330.232,685.389 L329.654,685.389 C329.061,685.389 328.764,685.03 328.764,684.311 M331.217,659.217 L330.92,681.389 C332.941,679.493 334.993,676.347 337.076,671.951 C339.16,667.556 340.201,663.795 340.201,660.67 C340.201,659.108 339.941,657.675 339.42,656.373 C338.899,655.071 338.084,654.42 336.975,654.42 C335.865,654.42 334.87,654.811 333.99,655.592 C333.11,656.373 332.186,657.582 331.217,659.217"/>
<path class="Accidental" d="M2553.26,684.311 L2551.99,622.201 C2551.99,621.222 2552.76,620.733 2554.29,620.733 C2555.82,620.733 2556.59,621.222 2556.59,622.201 L2555.81,656.092 C2557.57,654.332 2559.08,653.11 2560.35,652.428 C2561.61,651.746 2563.34,651.405 2565.52,651.405 C2567.7,651.405 2569.72,652.412 2571.57,654.428 C2573.43,656.444 2574.35,658.951 2574.35,661.951 C2574.35,666.441 2569.64,672.66 2560.2,680.608 C2556.69,683.795 2554.86,685.389 2554.73,685.389 L2554.15,685.389 C2553.56,685.389 2553.26,685.03 2553.26,684.311 M2555.71,659.217 L2555.42,681.389 C2557.44,679.493 2559.49,676.347 2561.57,671.951 C2563.66,667.556 2564.7,663.795 2564.7,660.67 C2564.7,659.108 2564.44,657.675 2563.92,656.373 C2563.4,655.071 2562.58,654.42 2561.47,654.42 C2560.36,654.42 2559.37,654.811 2558.49,655.592 C2557.61,656.373 2556.68,657.582 2555.71,659.217"/>
<polyline class="Stem" fill="none" stroke="#000000" stroke-width="3.25" stroke-linejoin="bevel" points="1944.44,621.633 1944.44,691.733"/>
<polyline class="Stem" fill="none" stroke="#000000" stroke-width="3.25" stroke-linejoin="bevel" points="2117.59,624.433 2117.59,547.983"/>
<polyline class="Stem" fill="none" stroke="#000000" stroke-width="3.25" stroke-linejoin="bevel" points="1762.33,609.133 1762.33,685.483"/>
<polyline class="Stem" fill="none" stroke="#000000" stroke-width="3.25" stroke-linejoin="bevel" points="2289.19,636.933 2289.19,554.233"/>
<polyline class="Stem" fill="none" stroke="#000000" stroke-width="3.25" stroke-linejoin="bevel" points="1620.64,596.633 1620.64,679.233"/>
<polyline class="Stem" fill="none" stroke="#000000" stroke-width="3.25" stroke-linejoin="bevel" points="2430.87,649.433 2430.87,566.733"/>
<polyline class="Stem" fill="none" stroke="#000000" stroke-width="3.25" stroke-linejoin="bevel" points="1449.05,584.133 1449.05,666.733"/>
<polyline class="Stem" fill="none" stroke="#000000" stroke-width="3.25" stroke-linejoin="bevel" points="388.483,661.933 388.483,579.233"/>
<polyline class="Stem" fill="none" stroke="#000000" stroke-width="3.25" stroke-linejoin="bevel" points="1307.36,596.633 1307.36,679.233"/>
<polyline class="Stem" fill="none" stroke="#000000" stroke-width="3.25" stroke-linejoin="bevel" points="1135.77,609.133 1135.77,685.483"/>
<polyline class="Stem" fill="none" stroke="#000000" stroke-width="3.25" stroke-linejoin="bevel" points="530.171,649.433 530.171,566.733"/>
<polyline class="Stem" fill="none" stroke="#000000" stroke-width="3.25" stroke-linejoin="bevel" points="994.086,621.633 994.086,691.733"/>
<polyline class="Stem" fill="none" stroke="#000000" stroke-width="3.25" stroke-linejoin="bevel" points="701.761,636.933 701.761,554.233"/>
<polyline class="Stem" fill="none" stroke="#000000" stroke-width="3.25" stroke-linejoin="bevel" points="843.449,624.433 843.449,547.983"/>
<path class="Note" d="M1454.85,589.873 C1456.74,589.873 1460.69,587.92 1466.72,584.014 C1472.74,580.108 1476.29,577.488 1477.37,576.155 C1478.44,574.821 1478.97,573.634 1478.97,572.592 C1478.97,571.55 1478.55,570.623 1477.7,569.811 C1476.85,568.998 1475.88,568.592 1474.77,568.592 C1472.82,568.592 1468.84,570.561 1462.81,574.498 C1456.78,578.436 1453.25,581.056 1452.21,582.358 C1451.17,583.66 1450.65,584.832 1450.65,585.873 C1450.65,586.915 1451.06,587.842 1451.87,588.655 C1452.69,589.467 1453.68,589.873 1454.85,589.873 M1473.8,565.467 C1479.4,565.467 1482.19,567.873 1482.19,572.686 C1482.19,575.03 1481.51,577.748 1480.15,580.842 C1478.78,583.936 1476.96,586.295 1474.68,587.92 C1469.67,591.306 1463.39,592.998 1455.83,592.998 C1450.23,592.998 1447.43,590.592 1447.43,585.78 C1447.43,583.634 1448.09,580.964 1449.43,577.772 C1450.76,574.579 1452.6,572.17 1454.94,570.545 C1459.96,567.16 1466.25,565.467 1473.8,565.467"/>
<path class="Note" d="M2596.98,672.201 C2599.84,676.045 2603.52,677.967 2608.01,677.967 C2612.5,677.967 2614.74,674.941 2614.74,668.889 C2614.74,666.014 2613.93,663.472 2612.31,661.264 C2609.51,657.42 2605.73,655.498 2600.98,655.498 C2598.9,655.498 2597.3,656.36 2596.2,658.084 C2595.09,659.808 2594.54,662.04 2594.54,664.78 C2594.54,667.519 2595.35,669.993 2596.98,672.201 M2587.31,656.967 C2592.19,654.3 2598.07,652.967 2604.94,652.967 C2611.81,652.967 2617.6,654.334 2622.32,657.069 C2627.04,659.803 2629.4,663.058 2629.4,666.834 C2629.4,670.61 2626.96,673.832 2622.07,676.498 C2617.19,679.165 2611.34,680.498 2604.54,680.498 C2597.74,680.498 2591.93,679.131 2587.11,676.397 C2582.29,673.662 2579.89,670.376 2579.89,666.537 C2579.89,662.699 2582.36,659.509 2587.31,656.967"/>
<path class="Note" d="M2405.2,664.873 C2407.09,664.873 2411.04,662.92 2417.07,659.014 C2423.09,655.108 2426.64,652.488 2427.72,651.155 C2428.79,649.821 2429.33,648.634 2429.33,647.592 C2429.33,646.55 2428.9,645.623 2428.05,644.811 C2427.2,643.998 2426.23,643.592 2425.12,643.592 C2423.18,643.592 2419.19,645.561 2413.16,649.498 C2407.14,653.436 2403.6,656.056 2402.56,657.358 C2401.52,658.66 2401,659.832 2401,660.873 C2401,661.915 2401.41,662.842 2402.22,663.655 C2403.04,664.467 2404.03,664.873 2405.2,664.873 M2424.15,640.467 C2429.75,640.467 2432.54,642.873 2432.54,647.686 C2432.54,650.03 2431.86,652.748 2430.5,655.842 C2429.13,658.936 2427.31,661.295 2425.03,662.92 C2420.02,666.306 2413.74,667.998 2406.19,667.998 C2400.58,667.998 2397.78,665.592 2397.78,660.78 C2397.78,658.634 2398.45,655.964 2399.78,652.772 C2401.11,649.579 2402.95,647.17 2405.29,645.545 C2410.32,642.16 2416.6,640.467 2424.15,640.467"/>
<path class="Note" d="M362.811,677.373 C364.696,677.373 368.652,675.42 374.678,671.514 C380.704,667.608 384.253,664.988 385.326,663.655 C386.399,662.321 386.936,661.134 386.936,660.092 C386.936,659.05 386.511,658.123 385.662,657.311 C384.813,656.498 383.837,656.092 382.732,656.092 C380.785,656.092 376.798,658.061 370.772,661.998 C364.746,665.936 361.212,668.556 360.17,669.858 C359.128,671.16 358.607,672.332 358.607,673.373 C358.607,674.415 359.016,675.342 359.834,676.155 C360.652,676.967 361.644,677.373 362.811,677.373 M381.764,652.967 C387.357,652.967 390.154,655.373 390.154,660.186 C390.154,662.53 389.472,665.248 388.107,668.342 C386.743,671.436 384.92,673.795 382.639,675.42 C377.628,678.806 371.347,680.498 363.795,680.498 C358.191,680.498 355.389,678.092 355.389,673.28 C355.389,671.134 356.055,668.464 357.389,665.272 C358.722,662.079 360.561,659.67 362.904,658.045 C367.925,654.66 374.212,652.967 381.764,652.967"/>
<path class="Note" d="M2263.51,652.373 C2265.4,652.373 2269.35,650.42 2275.38,646.514 C2281.41,642.608 2284.96,639.988 2286.03,638.655 C2287.1,637.321 2287.64,636.134 2287.64,635.092 C2287.64,634.05 2287.21,633.123 2286.36,632.311 C2285.52,631.498 2284.54,631.092 2283.43,631.092 C2281.49,631.092 2277.5,633.061 2271.47,636.998 C2265.45,640.936 2261.91,643.556 2260.87,644.858 C2259.83,646.16 2259.31,647.332 2259.31,648.373 C2259.31,649.415 2259.72,650.342 2260.54,651.155 C2261.35,651.967 2262.35,652.373 2263.51,652.373 M2282.47,627.967 C2288.06,627.967 2290.86,630.373 2290.86,635.186 C2290.86,637.53 2290.17,640.248 2288.81,643.342 C2287.45,646.436 2285.62,648.795 2283.34,650.42 C2278.33,653.806 2272.05,655.498 2264.5,655.498 C2258.89,655.498 2256.09,653.092 2256.09,648.28 C2256.09,646.134 2256.76,643.464 2258.09,640.272 C2259.42,637.079 2261.26,634.67 2263.61,633.045 C2268.63,629.66 2274.91,627.967 2282.47,627.967"/>
<path class="Note" d="M504.499,664.873 C506.384,664.873 510.34,662.92 516.366,659.014 C522.392,655.108 525.941,652.488 527.014,651.155 C528.087,649.821 528.624,648.634 528.624,647.592 C528.624,646.55 528.199,645.623 527.35,644.811 C526.501,643.998 525.525,643.592 524.421,643.592 C522.473,643.592 518.486,645.561 512.46,649.498 C506.434,653.436 502.9,656.056 501.858,657.358 C500.816,658.66 500.296,659.832 500.296,660.873 C500.296,661.915 500.704,662.842 501.522,663.655 C502.34,664.467 503.332,664.873 504.499,664.873 M523.452,640.467 C529.046,640.467 531.842,642.873 531.842,647.686 C531.842,650.03 531.16,652.748 529.796,655.842 C528.431,658.936 526.608,661.295 524.327,662.92 C519.316,666.306 513.035,667.998 505.483,667.998 C499.879,667.998 497.077,665.592 497.077,660.78 C497.077,658.634 497.743,655.964 499.077,652.772 C500.41,649.579 502.249,647.17 504.592,645.545 C509.613,642.16 515.9,640.467 523.452,640.467"/>
<path class="Note" d="M676.089,652.373 C677.975,652.373 681.93,650.42 687.956,646.514 C693.982,642.608 697.532,639.988 698.605,638.655 C699.678,637.321 700.214,636.134 700.214,635.092 C700.214,634.05 699.79,633.123 698.941,632.311 C698.092,631.498 697.115,631.092 696.011,631.092 C694.063,631.092 690.076,633.061 684.05,636.998 C678.024,640.936 674.49,643.556 673.449,644.858 C672.407,646.16 671.886,647.332 671.886,648.373 C671.886,649.415 672.295,650.342 673.113,651.155 C673.93,651.967 674.922,652.373 676.089,652.373 M695.042,627.967 C700.636,627.967 703.433,630.373 703.433,635.186 C703.433,637.53 702.751,640.248 701.386,643.342 C700.021,646.436 698.199,648.795 695.917,650.42 C690.907,653.806 684.626,655.498 677.074,655.498 C671.469,655.498 668.667,653.092 668.667,648.28 C668.667,646.134 669.334,643.464 670.667,640.272 C672.001,637.079 673.839,634.67 676.183,633.045 C681.204,629.66 687.49,627.967 695.042,627.967"/>
<path class="Note" d="M2091.92,639.873 C2093.81,639.873 2097.76,637.92 2103.79,634.014 C2109.82,630.108 2113.37,627.488 2114.44,626.155 C2115.51,624.821 2116.05,623.634 2116.05,622.592 C2116.05,621.55 2115.62,620.623 2114.77,619.811 C2113.93,618.998 2112.95,618.592 2111.84,618.592 C2109.9,618.592 2105.91,620.561 2099.88,624.498 C2093.86,628.436 2090.32,631.056 2089.28,632.358 C2088.24,633.66 2087.72,634.832 2087.72,635.873 C2087.72,636.915 2088.13,637.842 2088.95,638.655 C2089.76,639.467 2090.76,639.873 2091.92,639.873 M2110.88,615.467 C2116.47,615.467 2119.27,617.873 2119.27,622.686 C2119.27,625.03 2118.58,627.748 2117.22,630.842 C2115.85,633.936 2114.03,636.295 2111.75,637.92 C2106.74,641.306 2100.46,642.998 2092.91,642.998 C2087.3,642.998 2084.5,640.592 2084.5,635.78 C2084.5,633.634 2085.17,630.964 2086.5,627.772 C2087.83,624.579 2089.67,622.17 2092.02,620.545 C2097.04,617.16 2103.32,615.467 2110.88,615.467"/>
<path class="Note" d="M817.777,639.873 C819.663,639.873 823.618,637.92 829.644,634.014 C835.67,630.108 839.22,627.488 840.293,626.155 C841.366,624.821 841.902,623.634 841.902,622.592 C841.902,621.55 841.478,620.623 840.629,619.811 C839.78,618.998 838.803,618.592 837.699,618.592 C835.751,618.592 831.764,620.561 825.738,624.498 C819.712,628.436 816.178,631.056 815.137,632.358 C814.095,633.66 813.574,634.832 813.574,635.873 C813.574,636.915 813.983,637.842 814.801,638.655 C815.618,639.467 816.611,639.873 817.777,639.873 M836.73,615.467 C842.324,615.467 845.121,617.873 845.121,622.686 C845.121,625.03 844.439,627.748 843.074,630.842 C841.71,633.936 839.887,636.295 837.605,637.92 C832.595,641.306 826.314,642.998 818.762,642.998 C813.157,642.998 810.355,640.592 810.355,635.78 C810.355,633.634 811.022,630.964 812.355,627.772 C813.689,624.579 815.527,622.17 817.871,620.545 C822.892,617.16 829.178,615.467 836.73,615.467"/>
<path class="Note" d="M1950.23,627.373 C1952.12,627.373 1956.08,625.42 1962.1,621.514 C1968.13,617.608 1971.68,614.988 1972.75,613.655 C1973.82,612.321 1974.36,611.134 1974.36,610.092 C1974.36,609.05 1973.94,608.123 1973.09,607.311 C1972.24,606.498 1971.26,606.092 1970.16,606.092 C1968.21,606.092 1964.22,608.061 1958.2,611.998 C1952.17,615.936 1948.64,618.556 1947.59,619.858 C1946.55,621.16 1946.03,622.332 1946.03,623.373 C1946.03,624.415 1946.44,625.342 1947.26,626.155 C1948.08,626.967 1949.07,627.373 1950.23,627.373 M1969.19,602.967 C1974.78,602.967 1977.58,605.373 1977.58,610.186 C1977.58,612.53 1976.9,615.248 1975.53,618.342 C1974.17,621.436 1972.34,623.795 1970.06,625.42 C1965.05,628.806 1958.77,630.498 1951.22,630.498 C1945.61,630.498 1942.81,628.092 1942.81,623.28 C1942.81,621.134 1943.48,618.464 1944.81,615.272 C1946.15,612.079 1947.98,609.67 1950.33,608.045 C1955.35,604.66 1961.64,602.967 1969.19,602.967"/>
<path class="Note" d="M999.883,627.373 C1001.77,627.373 1005.72,625.42 1011.75,621.514 C1017.78,617.608 1021.33,614.988 1022.4,613.655 C1023.47,612.321 1024.01,611.134 1024.01,610.092 C1024.01,609.05 1023.58,608.123 1022.73,607.311 C1021.89,606.498 1020.91,606.092 1019.81,606.092 C1017.86,606.092 1013.87,608.061 1007.84,611.998 C1001.82,615.936 998.284,618.556 997.243,619.858 C996.201,621.16 995.68,622.332 995.68,623.373 C995.68,624.415 996.089,625.342 996.907,626.155 C997.724,626.967 998.717,627.373 999.883,627.373 M1018.84,602.967 C1024.43,602.967 1027.23,605.373 1027.23,610.186 C1027.23,612.53 1026.54,615.248 1025.18,618.342 C1023.82,621.436 1021.99,623.795 1019.71,625.42 C1014.7,628.806 1008.42,630.498 1000.87,630.498 C995.264,630.498 992.461,628.092 992.461,623.28 C992.461,621.134 993.128,618.464 994.461,615.272 C995.795,612.079 997.633,609.67 999.977,608.045 C1005,604.66 1011.28,602.967 1018.84,602.967"/>
<path class="Note" d="M1768.13,614.873 C1770.01,614.873 1773.97,612.92 1780,609.014 C1786.02,605.108 1789.57,602.488 1790.64,601.155 C1791.72,599.821 1792.25,598.634 1792.25,597.592 C1792.25,596.55 1791.83,595.623 1790.98,594.811 C1790.13,593.998 1789.15,593.592 1788.05,593.592 C1786.1,593.592 1782.12,595.561 1776.09,599.498 C1770.06,603.436 1766.53,606.056 1765.49,607.358 C1764.45,608.66 1763.93,609.832 1763.93,610.873 C1763.93,611.915 1764.33,612.842 1765.15,613.655 C1765.97,614.467 1766.96,614.873 1768.13,614.873 M1787.08,590.467 C1792.68,590.467 1795.47,592.873 1795.47,597.686 C1795.47,600.03 1794.79,602.748 1793.43,605.842 C1792.06,608.936 1790.24,611.295 1787.96,612.92 C1782.95,616.306 1776.66,617.998 1769.11,617.998 C1763.51,617.998 1760.71,615.592 1760.71,610.78 C1760.71,608.634 1761.37,605.964 1762.71,602.772 C1764.04,599.579 1765.88,597.17 1768.22,595.545 C1773.24,592.16 1779.53,590.467 1787.08,590.467"/>
<path class="Note" d="M1141.57,614.873 C1143.46,614.873 1147.41,612.92 1153.44,609.014 C1159.46,605.108 1163.01,602.488 1164.09,601.155 C1165.16,599.821 1165.7,598.634 1165.7,597.592 C1165.7,596.55 1165.27,595.623 1164.42,594.811 C1163.57,593.998 1162.6,593.592 1161.49,593.592 C1159.55,593.592 1155.56,595.561 1149.53,599.498 C1143.51,603.436 1139.97,606.056 1138.93,607.358 C1137.89,608.66 1137.37,609.832 1137.37,610.873 C1137.37,611.915 1137.78,612.842 1138.59,613.655 C1139.41,614.467 1140.4,614.873 1141.57,614.873 M1160.52,590.467 C1166.12,590.467 1168.92,592.873 1168.92,597.686 C1168.92,600.03 1168.23,602.748 1166.87,605.842 C1165.5,608.936 1163.68,611.295 1161.4,612.92 C1156.39,616.306 1150.11,617.998 1142.56,617.998 C1136.95,617.998 1134.15,615.592 1134.15,610.78 C1134.15,608.634 1134.82,605.964 1136.15,602.772 C1137.48,599.579 1139.32,597.17 1141.67,595.545 C1146.69,592.16 1152.97,590.467 1160.52,590.467"/>
<path class="Note" d="M1626.44,602.373 C1628.33,602.373 1632.28,600.42 1638.31,596.514 C1644.33,592.608 1647.88,589.988 1648.96,588.655 C1650.03,587.321 1650.57,586.134 1650.57,585.092 C1650.57,584.05 1650.14,583.123 1649.29,582.311 C1648.44,581.498 1647.47,581.092 1646.36,581.092 C1644.41,581.092 1640.43,583.061 1634.4,586.998 C1628.38,590.936 1624.84,593.556 1623.8,594.858 C1622.76,596.16 1622.24,597.332 1622.24,598.373 C1622.24,599.415 1622.65,600.342 1623.46,601.155 C1624.28,601.967 1625.27,602.373 1626.44,602.373 M1645.39,577.967 C1650.99,577.967 1653.78,580.373 1653.78,585.186 C1653.78,587.53 1653.1,590.248 1651.74,593.342 C1650.37,596.436 1648.55,598.795 1646.27,600.42 C1641.26,603.806 1634.98,605.498 1627.42,605.498 C1621.82,605.498 1619.02,603.092 1619.02,598.28 C1619.02,596.134 1619.69,593.464 1621.02,590.272 C1622.35,587.079 1624.19,584.67 1626.53,583.045 C1631.55,579.66 1637.84,577.967 1645.39,577.967"/>
<path class="Note" d="M1313.16,602.373 C1315.05,602.373 1319,600.42 1325.03,596.514 C1331.06,592.608 1334.6,589.988 1335.68,588.655 C1336.75,587.321 1337.29,586.134 1337.29,585.092 C1337.29,584.05 1336.86,583.123 1336.01,582.311 C1335.16,581.498 1334.19,581.092 1333.08,581.092 C1331.14,581.092 1327.15,583.061 1321.12,586.998 C1315.1,590.936 1311.56,593.556 1310.52,594.858 C1309.48,596.16 1308.96,597.332 1308.96,598.373 C1308.96,599.415 1309.37,600.342 1310.19,601.155 C1311,601.967 1312,602.373 1313.16,602.373 M1332.11,577.967 C1337.71,577.967 1340.51,580.373 1340.51,585.186 C1340.51,587.53 1339.82,590.248 1338.46,593.342 C1337.09,596.436 1335.27,598.795 1332.99,600.42 C1327.98,603.806 1321.7,605.498 1314.15,605.498 C1308.54,605.498 1305.74,603.092 1305.74,598.28 C1305.74,596.134 1306.41,593.464 1307.74,590.272 C1309.07,587.079 1310.91,584.67 1313.26,583.045 C1318.28,579.66 1324.56,577.967 1332.11,577.967"/>
<path class="Clef" d="M203.623,673.858 L203.623,671.717 C203.56,670.613 203.399,668.889 203.139,666.545 C199.889,667.066 196.993,667.326 194.451,667.326 C185.337,667.326 177.605,663.727 171.256,656.53 C164.907,649.332 161.732,640.754 161.732,630.795 C161.732,628.129 162.253,624.923 163.295,621.178 C164.337,617.433 165.297,614.925 166.178,613.655 C167.058,612.384 168.378,610.155 170.139,606.967 C170.659,605.988 172.352,603.837 175.217,600.514 C175.738,599.806 176.193,599.222 176.584,598.764 C176.975,598.306 177.607,597.49 178.482,596.319 C179.357,595.147 180.3,594.056 181.31,593.045 C182.321,592.035 183.217,591.058 183.998,590.115 C184.779,589.173 185.498,588.379 186.154,587.733 C183.81,579.983 182.378,574.024 181.857,569.858 C181.337,565.691 181.076,560.579 181.076,554.522 C181.076,548.464 182.378,542.962 184.982,538.014 C187.514,532.879 191.06,528.681 195.623,525.42 C195.883,525.222 196.225,525.123 196.646,525.123 C197.068,525.123 197.378,525.222 197.576,525.42 C201.087,529.649 204.128,535.149 206.701,541.92 C209.274,548.691 210.56,555.024 210.56,560.92 C210.56,566.816 209.066,572.498 206.076,577.967 C202.691,583.759 198.326,589.748 192.982,595.936 C194.347,600.227 196.17,606.962 198.451,616.139 L199.045,616.139 C199.305,616.076 199.529,616.045 199.717,616.045 C207.081,616.045 213.089,618.634 217.74,623.811 C222.391,628.988 224.717,634.962 224.717,641.733 C224.717,650.129 221.238,656.899 214.279,662.045 C212.258,663.545 209.878,664.717 207.139,665.561 C207.472,669.79 207.639,672.605 207.639,674.006 C207.639,675.407 207.571,677.899 207.435,681.483 C207.373,687.597 205.29,692.837 201.185,697.201 C197.081,701.566 192.394,703.748 187.123,703.748 C181.852,703.748 177.36,701.876 173.646,698.131 C169.933,694.386 168.076,689.847 168.076,684.514 C168.076,681.712 169.154,679.332 171.31,677.373 C173.519,675.425 176.006,674.451 178.771,674.451 C181.537,674.451 183.8,675.462 185.56,677.483 C187.383,679.368 188.295,681.644 188.295,684.311 C188.295,686.977 187.383,689.222 185.56,691.045 C183.738,692.868 181.555,693.78 179.014,693.78 C177.972,693.78 176.967,693.587 175.998,693.201 C178.863,697.431 182.54,699.545 187.029,699.545 C191.519,699.545 195.36,697.691 198.553,693.983 C201.745,690.274 203.342,685.91 203.342,680.889 L203.623,673.858 M206.748,661.561 C210.133,660.321 212.821,658.123 214.81,654.967 C216.8,651.811 217.795,648.67 217.795,645.545 C217.795,640.92 216.199,636.785 213.006,633.139 C209.813,629.493 205.774,627.441 200.889,626.983 C203.691,640.722 205.644,652.248 206.748,661.561 M168.967,638.998 C168.967,645.446 171.537,651.079 176.678,655.897 C181.818,660.714 187.842,663.123 194.748,663.123 C197.477,663.123 200.144,662.925 202.748,662.53 C201.706,652.634 199.654,640.785 196.592,626.983 C192.758,627.379 189.782,628.699 187.662,630.944 C185.542,633.188 184.482,635.743 184.482,638.608 C184.482,643.556 187.123,647.561 192.404,650.623 C192.852,650.884 193.076,651.324 193.076,651.944 C193.076,652.563 192.865,653.1 192.443,653.553 C192.021,654.006 191.649,654.233 191.326,654.233 C191.003,654.233 190.581,654.17 190.06,654.045 C182.435,649.879 178.623,643.592 178.623,635.186 C178.623,631.217 180.024,627.41 182.826,623.764 C185.753,620.118 189.56,617.774 194.248,616.733 C192.425,609.441 190.93,603.743 189.764,599.639 C180.847,609.67 175.31,617.092 173.154,621.905 C170.363,628.155 168.967,633.852 168.967,638.998 M201.576,539.686 C196.691,542.092 192.834,545.574 190.006,550.131 C187.178,554.688 185.764,559.472 185.764,564.483 C185.764,569.493 186.935,575.972 189.279,583.92 C193.967,578.254 197.514,572.946 199.92,567.998 C202.326,563.05 203.529,558.152 203.529,553.303 C203.529,548.454 202.878,543.915 201.576,539.686"/>
<path class="TimeSig" d="M273.021,567.912 C274.516,567.912 275.949,567.686 277.318,567.233 C278.688,566.78 279.665,566.553 280.248,566.553 C280.831,566.553 281.222,566.907 281.42,567.615 C281.42,567.688 281.352,567.886 281.217,568.209 L252.811,601.225 L269.498,601.225 L269.498,588.131 C269.498,586.506 270.446,585.334 272.342,584.615 C274.29,583.897 276.503,581.001 278.982,575.928 C279.17,575.532 279.462,575.334 279.857,575.334 C280.639,575.334 281.092,575.793 281.217,576.709 L281.217,601.225 L288.357,601.225 C289.264,601.225 289.751,601.712 289.818,602.686 C289.886,603.66 289.399,604.147 288.357,604.147 L281.217,604.147 L281.217,604.928 C281.217,607.532 281.868,609.746 283.17,611.569 C284.67,613.391 286.43,614.303 288.451,614.303 C289.232,614.303 289.623,614.694 289.623,615.475 C289.623,616.256 289.087,616.647 288.014,616.647 C286.941,616.647 284.938,616.436 282.006,616.014 C279.074,615.592 276.811,615.381 275.217,615.381 C273.623,615.381 271.41,615.592 268.576,616.014 C265.743,616.436 263.613,616.647 262.186,616.647 C261.404,616.647 261.014,616.256 261.014,615.475 C261.014,614.694 261.404,614.303 262.186,614.303 C264.196,614.303 265.951,613.391 267.451,611.569 C268.816,609.683 269.498,607.47 269.498,604.928 L269.498,604.147 L252.811,604.147 C251.956,604.147 251.219,603.92 250.6,603.467 C249.98,603.014 249.67,602.592 249.67,602.201 C249.67,601.811 250.485,600.639 252.115,598.686 C253.745,596.733 256.074,592.972 259.1,587.405 C262.126,581.837 263.639,575.438 263.639,568.209 C263.639,567.168 264.097,566.647 265.014,566.647 C265.212,566.647 265.521,566.712 265.943,566.842 C266.365,566.972 267.277,567.183 268.678,567.475 C270.079,567.766 271.527,567.912 273.021,567.912"/>
<path class="TimeSig" d="M273.021,618.084 C274.516,618.084 275.949,617.858 277.318,617.405 C278.688,616.951 279.665,616.725 280.248,616.725 C280.831,616.725 281.222,617.079 281.42,617.787 C281.42,617.86 281.352,618.058 281.217,618.381 L252.811,651.397 L269.498,651.397 L269.498,638.303 C269.498,636.678 270.446,635.506 272.342,634.787 C274.29,634.069 276.503,631.173 278.982,626.1 C279.17,625.704 279.462,625.506 279.857,625.506 C280.639,625.506 281.092,625.964 281.217,626.881 L281.217,651.397 L288.357,651.397 C289.264,651.397 289.751,651.884 289.818,652.858 C289.886,653.832 289.399,654.319 288.357,654.319 L281.217,654.319 L281.217,655.1 C281.217,657.704 281.868,659.918 283.17,661.74 C284.67,663.563 286.43,664.475 288.451,664.475 C289.232,664.475 289.623,664.865 289.623,665.647 C289.623,666.428 289.087,666.819 288.014,666.819 C286.941,666.819 284.938,666.608 282.006,666.186 C279.074,665.764 276.811,665.553 275.217,665.553 C273.623,665.553 271.41,665.764 268.576,666.186 C265.743,666.608 263.613,666.819 262.186,666.819 C261.404,666.819 261.014,666.428 261.014,665.647 C261.014,664.865 261.404,664.475 262.186,664.475 C264.196,664.475 265.951,663.563 267.451,661.74 C268.816,659.855 269.498,657.642 269.498,655.1 L269.498,654.319 L252.811,654.319 C251.956,654.319 251.219,654.092 250.6,653.639 C249.98,653.186 249.67,652.764 249.67,652.373 C249.67,651.983 250.485,650.811 252.115,648.858 C253.745,646.905 256.074,643.144 259.1,637.576 C262.126,632.009 263.639,625.61 263.639,618.381 C263.639,617.339 264.097,616.819 265.014,616.819 C265.212,616.819 265.521,616.884 265.943,617.014 C266.365,617.144 267.277,617.355 268.678,617.647 C270.079,617.938 271.527,618.084 273.021,618.084"/>
</svg>
