<?xml version="1.0" encoding="UTF-8" standalone="no"?>
<svg width="2977.2px" height="4208.4px" viewBox="0 0 2977.2 4208.4"
 xmlns="http://www.w3.org/2000/svg" xmlns:xlink="http://www.w3.org/1999/xlink" version="1.2" baseProfile="tiny">
<title>Yankeedoodle.mscx</title>
<desc>Generated by MuseScore Studio 4.3.1</desc>
<path class="" fill="#ffffff" fill-rule="evenodd" d="M0,0 L2977.2,0 L2977.2,4208.4 L0,4208.4 L0,0 "/>
<polyline class="StaffLines" fill="none" stroke="#000000" stroke-width="2.00" stroke-linejoin="bevel" points="141.732,316.732 2835.47,316.732"/>
<polyline class="StaffLines" fill="none" stroke="#000000" stroke-width="2.00" stroke-linejoin="bevel" points="141.732,341.732 2835.47,341.732"/>
<polyline class="StaffLines" fill="none" stroke="#000000" stroke-width="2.00" stroke-linejoin="bevel" points="141.732,366.733 2835.47,366.733"/>
<polyline class="StaffLines" fill="none" stroke="#000000" stroke-width="2.00" stroke-linejoin="bevel" points="141.732,391.733 2835.47,391.733"/>
<polyline class="StaffLines" fill="none" stroke="#000000" stroke-width="2.00" stroke-linejoin="bevel" points="141.732,416.733 2835.47,416.733"/>
<polyline class="StaffLines" fill="none" stroke="#000000" stroke-width="2.00" stroke-linejoin="bevel" points="141.732,791.733 2835.47,791.733"/>
<polyline class="StaffLines" fill="none" stroke="#000000" stroke-width="2.00" stroke-linejoin="bevel" points="141.732,816.733 2835.47,816.733"/>
<polyline class="StaffLines" fill="none" stroke="#000000" stroke-width="2.00" stroke-linejoin="bevel" points="141.732,841.733 2835.47,841.733"/>
<polyline class="StaffLines" fill="none" stroke="#000000" stroke-width="2.00" stroke-linejoin="bevel" points="141.732,866.733 2835.47,866.733"/>
<polyline class="StaffLines" fill="none" stroke="#000000" stroke-width="2.00" stroke-linejoin="bevel" points="141.732,891.733 2835.47,891.733"/>
<path class="MeasureNumber" d="M129.045,718.014 C128.566,718.014 127.607,718.306 126.17,718.889 L126.17,718.342 L133.373,714.701 L133.685,714.78 L133.685,738.78 C133.685,739.738 133.925,740.363 134.404,740.655 C134.883,740.946 135.909,741.108 137.482,741.139 L137.482,741.733 L126.451,741.733 L126.451,741.139 C127.941,741.076 128.946,740.853 129.467,740.467 C129.988,740.082 130.248,739.264 130.248,738.014 L130.248,719.889 C130.248,718.639 129.847,718.014 129.045,718.014 M149.029,718.014 C148.55,718.014 147.592,718.306 146.154,718.889 L146.154,718.342 L153.357,714.701 L153.67,714.78 L153.67,738.78 C153.67,739.738 153.909,740.363 154.389,740.655 C154.868,740.946 155.894,741.108 157.467,741.139 L157.467,741.733 L146.435,741.733 L146.435,741.139 C147.925,741.076 148.93,740.853 149.451,740.467 C149.972,740.082 150.232,739.264 150.232,738.014 L150.232,719.889 C150.232,718.639 149.831,718.014 149.029,718.014"/>
<polyline class="BarLine" fill="none" stroke="#000000" stroke-width="4.00" stroke-linejoin="bevel" points="2569.86,315.732 2569.86,417.733"/>
<polyline class="BarLine" fill="none" stroke="#000000" stroke-width="4.00" stroke-linejoin="bevel" points="1531.48,790.733 1531.48,892.733"/>
<polyline class="BarLine" fill="none" stroke="#000000" stroke-width="4.00" stroke-linejoin="bevel" points="1103.7,315.732 1103.7,417.733"/>
<polyline class="BarLine" fill="none" stroke="#000000" stroke-width="4.00" stroke-linejoin="bevel" points="1309.56,315.732 1309.56,417.733"/>
<polyline class="BarLine" fill="none" stroke="#000000" stroke-width="4.00" stroke-linejoin="bevel" points="840.092,315.732 840.092,417.733"/>
<polyline class="BarLine" fill="none" stroke="#000000" stroke-width="4.00" stroke-linejoin="bevel" points="1072.17,790.733 1072.17,892.733"/>
<polyline class="BarLine" fill="none" stroke="#000000" stroke-width="4.00" stroke-linejoin="bevel" points="719.538,790.733 719.538,892.733"/>
<polyline class="BarLine" fill="none" stroke="#000000" stroke-width="4.00" stroke-linejoin="bevel" points="1573.17,315.732 1573.17,417.733"/>
<polyline class="BarLine" fill="none" stroke="#000000" stroke-width="4.00" stroke-linejoin="bevel" points="1836.78,315.732 1836.78,417.733"/>
<polyline class="BarLine" fill="none" stroke="#000000" stroke-width="4.00" stroke-linejoin="bevel" points="576.483,315.732 576.483,417.733"/>
<polyline class="BarLine" fill="none" stroke="#000000" stroke-width="4.00" stroke-linejoin="bevel" points="2833.47,315.732 2833.47,417.733"/>
<polyline class="BarLine" fill="none" stroke="#000000" stroke-width="4.00" stroke-linejoin="bevel" points="2802.72,790.733 2802.72,892.733"/>
<polyline class="BarLine" fill="none" stroke="#000000" stroke-width="12.50" stroke-linejoin="bevel" points="2829.22,790.733 2829.22,892.733"/>
<polyline class="BarLine" fill="none" stroke="#000000" stroke-width="4.00" stroke-linejoin="bevel" points="2100.39,315.732 2100.39,417.733"/>
<polyline class="BarLine" fill="none" stroke="#000000" stroke-width="4.00" stroke-linejoin="bevel" points="2450.09,790.733 2450.09,892.733"/>
<polyline class="BarLine" fill="none" stroke="#000000" stroke-width="4.00" stroke-linejoin="bevel" points="1990.78,790.733 1990.78,892.733"/>
<polyline class="BarLine" fill="none" stroke="#000000" stroke-width="4.00" stroke-linejoin="bevel" points="2306.25,315.732 2306.25,417.733"/>
<polyline class="LedgerLine" fill="none" stroke="#000000" stroke-width="4.00" stroke-linejoin="bevel" points="2646.01,266.732 2697.93,266.732"/>
<polyline class="LedgerLine" fill="none" stroke="#000000" stroke-width="4.00" stroke-linejoin="bevel" points="277.732,741.733 329.647,741.733"/>
<polyline class="LedgerLine" fill="none" stroke="#000000" stroke-width="4.00" stroke-linejoin="bevel" points="1871.7,766.733 1923.62,766.733"/>
<polyline class="LedgerLine" fill="none" stroke="#000000" stroke-width="4.00" stroke-linejoin="bevel" points="1871.7,741.733 1923.62,741.733"/>
<polyline class="LedgerLine" fill="none" stroke="#000000" stroke-width="4.00" stroke-linejoin="bevel" points="277.732,766.733 329.647,766.733"/>
<polyline class="LedgerLine" fill="none" stroke="#000000" stroke-width="4.00" stroke-linejoin="bevel" points="2628.95,766.733 2682.67,766.733"/>
<polyline class="LedgerLine" fill="none" stroke="#000000" stroke-width="4.00" stroke-linejoin="bevel" points="2628.95,741.733 2682.67,741.733"/>
<polyline class="LedgerLine" fill="none" stroke="#000000" stroke-width="4.00" stroke-linejoin="bevel" points="2008.28,766.733 2060.2,766.733"/>
<polyline class="LedgerLine" fill="none" stroke="#000000" stroke-width="4.00" stroke-linejoin="bevel" points="2704.66,266.732 2756.58,266.732"/>
<polyline class="LedgerLine" fill="none" stroke="#000000" stroke-width="4.00" stroke-linejoin="bevel" points="2704.66,291.732 2756.58,291.732"/>
<polyline class="LedgerLine" fill="none" stroke="#000000" stroke-width="4.00" stroke-linejoin="bevel" points="2223.43,766.733 2275.35,766.733"/>
<polyline class="LedgerLine" fill="none" stroke="#000000" stroke-width="4.00" stroke-linejoin="bevel" points="2331.01,766.733 2382.92,766.733"/>
<polyline class="LedgerLine" fill="none" stroke="#000000" stroke-width="4.00" stroke-linejoin="bevel" points="2646.01,241.732 2697.93,241.732"/>
<polyline class="LedgerLine" fill="none" stroke="#000000" stroke-width="4.00" stroke-linejoin="bevel" points="385.309,741.733 437.223,741.733"/>
<polyline class="LedgerLine" fill="none" stroke="#000000" stroke-width="4.00" stroke-linejoin="bevel" points="2587.36,266.732 2639.27,266.732"/>
<polyline class="LedgerLine" fill="none" stroke="#000000" stroke-width="4.00" stroke-linejoin="bevel" points="2587.36,291.732 2639.27,291.732"/>
<polyline class="LedgerLine" fill="none" stroke="#000000" stroke-width="4.00" stroke-linejoin="bevel" points="2467.59,766.733 2521.31,766.733"/>
<polyline class="LedgerLine" fill="none" stroke="#000000" stroke-width="4.00" stroke-linejoin="bevel" points="2467.59,741.733 2521.31,741.733"/>
<polyline class="LedgerLine" fill="none" stroke="#000000" stroke-width="4.00" stroke-linejoin="bevel" points="2646.01,291.732 2697.93,291.732"/>
<polyline class="LedgerLine" fill="none" stroke="#000000" stroke-width="4.00" stroke-linejoin="bevel" points="2499.71,241.732 2551.62,241.732"/>
<polyline class="LedgerLine" fill="none" stroke="#000000" stroke-width="4.00" stroke-linejoin="bevel" points="2499.71,266.732 2551.62,266.732"/>
<polyline class="LedgerLine" fill="none" stroke="#000000" stroke-width="4.00" stroke-linejoin="bevel" points="2499.71,291.732 2551.62,291.732"/>
<polyline class="LedgerLine" fill="none" stroke="#000000" stroke-width="4.00" stroke-linejoin="bevel" points="2441.05,266.732 2492.97,266.732"/>
<polyline class="LedgerLine" fill="none" stroke="#000000" stroke-width="4.00" stroke-linejoin="bevel" points="2441.05,291.732 2492.97,291.732"/>
<polyline class="LedgerLine" fill="none" stroke="#000000" stroke-width="4.00" stroke-linejoin="bevel" points="898.403,766.733 952.122,766.733"/>
<polyline class="LedgerLine" fill="none" stroke="#000000" stroke-width="4.00" stroke-linejoin="bevel" points="1412.4,741.733 1464.31,741.733"/>
<polyline class="LedgerLine" fill="none" stroke="#000000" stroke-width="4.00" stroke-linejoin="bevel" points="1412.4,766.733 1464.31,766.733"/>
<polyline class="LedgerLine" fill="none" stroke="#000000" stroke-width="4.00" stroke-linejoin="bevel" points="1304.82,741.733 1356.74,741.733"/>
<polyline class="LedgerLine" fill="none" stroke="#000000" stroke-width="4.00" stroke-linejoin="bevel" points="1548.98,766.733 1600.89,766.733"/>
<polyline class="LedgerLine" fill="none" stroke="#000000" stroke-width="4.00" stroke-linejoin="bevel" points="1304.82,766.733 1356.74,766.733"/>
<polyline class="LedgerLine" fill="none" stroke="#000000" stroke-width="4.00" stroke-linejoin="bevel" points="1197.25,741.733 1249.16,741.733"/>
<polyline class="LedgerLine" fill="none" stroke="#000000" stroke-width="4.00" stroke-linejoin="bevel" points="1197.25,766.733 1249.16,766.733"/>
<polyline class="LedgerLine" fill="none" stroke="#000000" stroke-width="4.00" stroke-linejoin="bevel" points="1089.67,741.733 1141.58,741.733"/>
<polyline class="LedgerLine" fill="none" stroke="#000000" stroke-width="4.00" stroke-linejoin="bevel" points="1548.98,741.733 1600.89,741.733"/>
<polyline class="LedgerLine" fill="none" stroke="#000000" stroke-width="4.00" stroke-linejoin="bevel" points="1089.67,766.733 1141.58,766.733"/>
<polyline class="LedgerLine" fill="none" stroke="#000000" stroke-width="4.00" stroke-linejoin="bevel" points="1548.98,716.733 1600.89,716.733"/>
<polyline class="LedgerLine" fill="none" stroke="#000000" stroke-width="4.00" stroke-linejoin="bevel" points="1656.55,766.733 1708.47,766.733"/>
<polyline class="LedgerLine" fill="none" stroke="#000000" stroke-width="4.00" stroke-linejoin="bevel" points="385.309,766.733 437.223,766.733"/>
<polyline class="LedgerLine" fill="none" stroke="#000000" stroke-width="4.00" stroke-linejoin="bevel" points="737.038,741.733 790.757,741.733"/>
<polyline class="LedgerLine" fill="none" stroke="#000000" stroke-width="4.00" stroke-linejoin="bevel" points="737.038,766.733 790.757,766.733"/>
<polyline class="LedgerLine" fill="none" stroke="#000000" stroke-width="4.00" stroke-linejoin="bevel" points="1656.55,741.733 1708.47,741.733"/>
<polyline class="LedgerLine" fill="none" stroke="#000000" stroke-width="4.00" stroke-linejoin="bevel" points="1656.55,716.733 1708.47,716.733"/>
<polyline class="LedgerLine" fill="none" stroke="#000000" stroke-width="4.00" stroke-linejoin="bevel" points="1764.13,766.733 1816.04,766.733"/>
<polyline class="LedgerLine" fill="none" stroke="#000000" stroke-width="4.00" stroke-linejoin="bevel" points="1764.13,741.733 1816.04,741.733"/>
<polyline class="LedgerLine" fill="none" stroke="#000000" stroke-width="4.00" stroke-linejoin="bevel" points="600.462,716.733 652.376,716.733"/>
<polyline class="LedgerLine" fill="none" stroke="#000000" stroke-width="4.00" stroke-linejoin="bevel" points="600.462,741.733 652.376,741.733"/>
<polyline class="LedgerLine" fill="none" stroke="#000000" stroke-width="4.00" stroke-linejoin="bevel" points="600.462,766.733 652.376,766.733"/>
<polyline class="LedgerLine" fill="none" stroke="#000000" stroke-width="4.00" stroke-linejoin="bevel" points="492.885,741.733 544.799,741.733"/>
<polyline class="LedgerLine" fill="none" stroke="#000000" stroke-width="4.00" stroke-linejoin="bevel" points="492.885,766.733 544.799,766.733"/>
<polyline class="LedgerLine" fill="none" stroke="#000000" stroke-width="4.00" stroke-linejoin="bevel" points="1412.4,716.733 1464.31,716.733"/>
<polyline class="LedgerLine" fill="none" stroke="#000000" stroke-width="4.00" stroke-linejoin="bevel" points="2382.4,266.732 2434.32,266.732"/>
<polyline class="LedgerLine" fill="none" stroke="#000000" stroke-width="4.00" stroke-linejoin="bevel" points="2382.4,291.732 2434.32,291.732"/>
<polyline class="LedgerLine" fill="none" stroke="#000000" stroke-width="4.00" stroke-linejoin="bevel" points="2323.75,266.732 2375.66,266.732"/>
<polyline class="LedgerLine" fill="none" stroke="#000000" stroke-width="4.00" stroke-linejoin="bevel" points="2323.75,291.732 2375.66,291.732"/>
<polyline class="Stem" fill="none" stroke="#000000" stroke-width="3.25" stroke-linejoin="bevel" points="909.528,759.133 909.528,841.733"/>
<polyline class="Stem" fill="none" stroke="#000000" stroke-width="3.25" stroke-linejoin="bevel" points="1560.1,710.102 1560.1,841.733"/>
<polyline class="Stem" fill="none" stroke="#000000" stroke-width="3.25" stroke-linejoin="bevel" points="927.37,360.102 927.37,435.483"/>
<polyline class="Stem" fill="none" stroke="#000000" stroke-width="3.25" stroke-linejoin="bevel" points="986.022,347.602 986.022,429.233"/>
<polyline class="Stem" fill="none" stroke="#000000" stroke-width="3.25" stroke-linejoin="bevel" points="1044.67,335.102 1044.67,416.733"/>
<polyline class="Stem" fill="none" stroke="#000000" stroke-width="3.25" stroke-linejoin="bevel" points="1423.52,722.602 1423.52,841.733"/>
<polyline class="Stem" fill="none" stroke="#000000" stroke-width="3.25" stroke-linejoin="bevel" points="1132.33,359.132 1132.33,435.483"/>
<polyline class="Stem" fill="none" stroke="#000000" stroke-width="3.25" stroke-linejoin="bevel" points="1315.95,735.102 1315.95,841.733"/>
<polyline class="Stem" fill="none" stroke="#000000" stroke-width="3.25" stroke-linejoin="bevel" points="1220.31,371.633 1220.31,441.733"/>
<polyline class="Stem" fill="none" stroke="#000000" stroke-width="3.25" stroke-linejoin="bevel" points="1208.37,747.602 1208.37,841.733"/>
<polyline class="Stem" fill="none" stroke="#000000" stroke-width="3.25" stroke-linejoin="bevel" points="1338.19,360.102 1338.19,435.483"/>
<polyline class="Stem" fill="none" stroke="#000000" stroke-width="3.25" stroke-linejoin="bevel" points="1100.79,747.602 1100.79,841.733"/>
<polyline class="Stem" fill="none" stroke="#000000" stroke-width="3.25" stroke-linejoin="bevel" points="810.729,385.863 810.729,304.232"/>
<polyline class="Stem" fill="none" stroke="#000000" stroke-width="3.25" stroke-linejoin="bevel" points="1455.49,347.602 1455.49,429.233"/>
<polyline class="Stem" fill="none" stroke="#000000" stroke-width="3.25" stroke-linejoin="bevel" points="748.163,746.633 748.163,841.733"/>
<polyline class="Stem" fill="none" stroke="#000000" stroke-width="3.25" stroke-linejoin="bevel" points="1514.14,335.102 1514.14,416.733"/>
<polyline class="Stem" fill="none" stroke="#000000" stroke-width="3.25" stroke-linejoin="bevel" points="1601.8,322.602 1601.8,404.233"/>
<polyline class="Stem" fill="none" stroke="#000000" stroke-width="3.25" stroke-linejoin="bevel" points="1660.45,335.102 1660.45,416.733"/>
<polyline class="Stem" fill="none" stroke="#000000" stroke-width="3.25" stroke-linejoin="bevel" points="611.587,722.602 611.587,841.733"/>
<polyline class="Stem" fill="none" stroke="#000000" stroke-width="3.25" stroke-linejoin="bevel" points="2019.41,760.102 2019.41,841.733"/>
<polyline class="Stem" fill="none" stroke="#000000" stroke-width="3.25" stroke-linejoin="bevel" points="2640.08,746.633 2640.08,841.733"/>
<polyline class="Stem" fill="none" stroke="#000000" stroke-width="3.25" stroke-linejoin="bevel" points="341.498,360.102 341.498,435.483"/>
<polyline class="Stem" fill="none" stroke="#000000" stroke-width="3.25" stroke-linejoin="bevel" points="2478.71,746.633 2478.71,841.733"/>
<polyline class="Stem" fill="none" stroke="#000000" stroke-width="3.25" stroke-linejoin="bevel" points="400.15,360.102 400.15,435.483"/>
<polyline class="Stem" fill="none" stroke="#000000" stroke-width="3.25" stroke-linejoin="bevel" points="2342.14,760.102 2342.14,841.733"/>
<polyline class="Stem" fill="none" stroke="#000000" stroke-width="3.25" stroke-linejoin="bevel" points="458.803,347.602 458.803,429.233"/>
<polyline class="Stem" fill="none" stroke="#000000" stroke-width="3.25" stroke-linejoin="bevel" points="2234.56,772.602 2234.56,854.233"/>
<polyline class="Stem" fill="none" stroke="#000000" stroke-width="3.25" stroke-linejoin="bevel" points="2126.98,785.102 2126.98,866.733"/>
<polyline class="Stem" fill="none" stroke="#000000" stroke-width="3.25" stroke-linejoin="bevel" points="868.717,360.102 868.717,435.483"/>
<polyline class="Stem" fill="none" stroke="#000000" stroke-width="3.25" stroke-linejoin="bevel" points="517.455,335.102 517.455,416.733"/>
<polyline class="Stem" fill="none" stroke="#000000" stroke-width="3.25" stroke-linejoin="bevel" points="605.108,360.102 605.108,435.483"/>
<polyline class="Stem" fill="none" stroke="#000000" stroke-width="3.25" stroke-linejoin="bevel" points="1882.83,747.602 1882.83,841.733"/>
<polyline class="Stem" fill="none" stroke="#000000" stroke-width="3.25" stroke-linejoin="bevel" points="663.76,335.102 663.76,416.733"/>
<polyline class="Stem" fill="none" stroke="#000000" stroke-width="3.25" stroke-linejoin="bevel" points="1775.25,735.102 1775.25,841.733"/>
<polyline class="Stem" fill="none" stroke="#000000" stroke-width="3.25" stroke-linejoin="bevel" points="722.412,347.602 722.412,429.233"/>
<polyline class="Stem" fill="none" stroke="#000000" stroke-width="3.25" stroke-linejoin="bevel" points="1396.84,360.102 1396.84,435.483"/>
<polyline class="Stem" fill="none" stroke="#000000" stroke-width="3.25" stroke-linejoin="bevel" points="1667.68,722.602 1667.68,841.733"/>
<polyline class="Stem" fill="none" stroke="#000000" stroke-width="3.25" stroke-linejoin="bevel" points="2041.36,372.602 2041.36,441.733"/>
<polyline class="Stem" fill="none" stroke="#000000" stroke-width="3.25" stroke-linejoin="bevel" points="2452.18,260.102 2452.18,366.733"/>
<polyline class="Stem" fill="none" stroke="#000000" stroke-width="3.25" stroke-linejoin="bevel" points="2510.83,247.602 2510.83,366.733"/>
<polyline class="Stem" fill="none" stroke="#000000" stroke-width="3.25" stroke-linejoin="bevel" points="2393.53,272.602 2393.53,366.733"/>
<polyline class="Stem" fill="none" stroke="#000000" stroke-width="3.25" stroke-linejoin="bevel" points="2334.87,272.602 2334.87,366.733"/>
<polyline class="Stem" fill="none" stroke="#000000" stroke-width="3.25" stroke-linejoin="bevel" points="2598.48,272.602 2598.48,366.733"/>
<polyline class="Stem" fill="none" stroke="#000000" stroke-width="3.25" stroke-linejoin="bevel" points="2216.99,359.132 2216.99,435.483"/>
<polyline class="Stem" fill="none" stroke="#000000" stroke-width="3.25" stroke-linejoin="bevel" points="2657.14,247.602 2657.14,366.733"/>
<polyline class="Stem" fill="none" stroke="#000000" stroke-width="3.25" stroke-linejoin="bevel" points="2129.01,359.132 2129.01,435.483"/>
<polyline class="Stem" fill="none" stroke="#000000" stroke-width="3.25" stroke-linejoin="bevel" points="2715.79,260.102 2715.79,366.733"/>
<polyline class="Stem" fill="none" stroke="#000000" stroke-width="3.25" stroke-linejoin="bevel" points="1719.1,347.602 1719.1,429.233"/>
<polyline class="Stem" fill="none" stroke="#000000" stroke-width="3.25" stroke-linejoin="bevel" points="2774.44,310.102 2774.44,391.733"/>
<polyline class="Stem" fill="none" stroke="#000000" stroke-width="3.25" stroke-linejoin="bevel" points="2012.37,373.363 2012.37,297.982"/>
<polyline class="Stem" fill="none" stroke="#000000" stroke-width="3.25" stroke-linejoin="bevel" points="1953.72,385.863 1953.72,304.232"/>
<polyline class="Stem" fill="none" stroke="#000000" stroke-width="3.25" stroke-linejoin="bevel" points="288.857,747.602 288.857,841.733"/>
<polyline class="Stem" fill="none" stroke="#000000" stroke-width="3.25" stroke-linejoin="bevel" points="1865.41,372.602 1865.41,441.733"/>
<polyline class="Stem" fill="none" stroke="#000000" stroke-width="3.25" stroke-linejoin="bevel" points="1777.75,360.102 1777.75,435.483"/>
<polyline class="Stem" fill="none" stroke="#000000" stroke-width="3.25" stroke-linejoin="bevel" points="504.01,735.102 504.01,841.733"/>
<polyline class="Stem" fill="none" stroke="#000000" stroke-width="3.25" stroke-linejoin="bevel" points="396.434,747.602 396.434,841.733"/>
<path class="Note" d="M1622.14,302.967 C1625.26,302.967 1627.87,303.748 1629.95,305.311 C1632.04,306.873 1633.08,309.118 1633.08,312.045 C1633.08,316.535 1630.75,320.732 1626.1,324.639 C1621.45,328.545 1616.45,330.498 1611.11,330.498 C1607.98,330.498 1605.35,329.686 1603.2,328.061 C1601.18,326.3 1600.17,324.087 1600.17,321.42 C1600.17,317.055 1602.48,312.889 1607.11,308.92 C1611.73,304.951 1616.74,302.967 1622.14,302.967"/>
<path class="Note" d="M1688.02,702.967 C1691.15,702.967 1693.75,703.748 1695.83,705.311 C1697.92,706.873 1698.96,709.118 1698.96,712.045 C1698.96,716.535 1696.63,720.733 1691.98,724.639 C1687.33,728.545 1682.33,730.498 1676.99,730.498 C1673.86,730.498 1671.23,729.686 1669.08,728.061 C1667.06,726.3 1666.05,724.087 1666.05,721.42 C1666.05,717.056 1668.36,712.889 1672.99,708.92 C1677.61,704.951 1682.62,702.967 1688.02,702.967"/>
<path class="Note" d="M2134.81,364.873 C2136.7,364.873 2140.65,362.92 2146.68,359.014 C2152.7,355.107 2156.25,352.488 2157.33,351.154 C2158.4,349.821 2158.94,348.634 2158.94,347.592 C2158.94,346.55 2158.51,345.623 2157.66,344.811 C2156.81,343.998 2155.84,343.592 2154.73,343.592 C2152.79,343.592 2148.8,345.561 2142.77,349.498 C2136.75,353.436 2133.21,356.055 2132.17,357.357 C2131.13,358.66 2130.61,359.831 2130.61,360.873 C2130.61,361.915 2131.02,362.842 2131.84,363.654 C2132.65,364.467 2133.65,364.873 2134.81,364.873 M2153.76,340.467 C2159.36,340.467 2162.16,342.873 2162.16,347.686 C2162.16,350.029 2161.47,352.748 2160.11,355.842 C2158.74,358.936 2156.92,361.295 2154.64,362.92 C2149.63,366.305 2143.35,367.998 2135.8,367.998 C2130.19,367.998 2127.39,365.592 2127.39,360.779 C2127.39,358.634 2128.06,355.964 2129.39,352.772 C2130.72,349.579 2132.56,347.17 2134.91,345.545 C2139.93,342.16 2146.21,340.467 2153.76,340.467"/>
<path class="Note" d="M684.104,315.467 C687.229,315.467 689.833,316.248 691.916,317.811 C694,319.373 695.041,321.618 695.041,324.545 C695.041,329.035 692.716,333.232 688.065,337.139 C683.414,341.045 678.416,342.998 673.073,342.998 C669.948,342.998 667.312,342.186 665.166,340.561 C663.145,338.8 662.135,336.587 662.135,333.92 C662.135,329.555 664.448,325.389 669.073,321.42 C673.698,317.451 678.708,315.467 684.104,315.467"/>
<path class="Note" d="M1795.6,715.467 C1798.72,715.467 1801.33,716.248 1803.41,717.811 C1805.49,719.373 1806.53,721.618 1806.53,724.545 C1806.53,729.035 1804.21,733.233 1799.56,737.139 C1794.91,741.045 1789.91,742.998 1784.57,742.998 C1781.44,742.998 1778.81,742.186 1776.66,740.561 C1774.64,738.8 1773.63,736.587 1773.63,733.92 C1773.63,729.556 1775.94,725.389 1780.57,721.42 C1785.19,717.451 1790.2,715.467 1795.6,715.467"/>
<path class="Note" d="M631.93,702.967 C635.055,702.967 637.66,703.748 639.743,705.311 C641.826,706.873 642.868,709.118 642.868,712.045 C642.868,716.535 640.542,720.733 635.891,724.639 C631.24,728.545 626.243,730.498 620.899,730.498 C617.774,730.498 615.139,729.686 612.993,728.061 C610.972,726.3 609.962,724.087 609.962,721.42 C609.962,717.056 612.274,712.889 616.899,708.92 C621.524,704.951 626.535,702.967 631.93,702.967"/>
<path class="Note" d="M625.451,340.467 C628.576,340.467 631.181,341.248 633.264,342.811 C635.347,344.373 636.389,346.618 636.389,349.545 C636.389,354.035 634.063,358.232 629.412,362.139 C624.761,366.045 619.764,367.998 614.42,367.998 C611.295,367.998 608.66,367.186 606.514,365.561 C604.493,363.8 603.483,361.587 603.483,358.92 C603.483,354.555 605.795,350.389 610.42,346.42 C615.045,342.451 620.056,340.467 625.451,340.467"/>
<path class="Note" d="M2618.83,252.967 C2621.95,252.967 2624.56,253.748 2626.64,255.311 C2628.72,256.873 2629.77,259.118 2629.77,262.045 C2629.77,266.535 2627.44,270.732 2622.79,274.639 C2618.14,278.545 2613.14,280.498 2607.8,280.498 C2604.67,280.498 2602.04,279.686 2599.89,278.061 C2597.87,276.3 2596.86,274.087 2596.86,271.42 C2596.86,267.055 2599.17,262.889 2603.8,258.92 C2608.42,254.951 2613.43,252.967 2618.83,252.967"/>
<path class="Note" d="M1903.17,727.967 C1906.3,727.967 1908.9,728.748 1910.99,730.311 C1913.07,731.873 1914.11,734.118 1914.11,737.045 C1914.11,741.535 1911.79,745.733 1907.13,749.639 C1902.48,753.545 1897.49,755.498 1892.14,755.498 C1889.02,755.498 1886.38,754.686 1884.24,753.061 C1882.22,751.3 1881.2,749.087 1881.2,746.42 C1881.2,742.056 1883.52,737.889 1888.14,733.92 C1892.77,729.951 1897.78,727.967 1903.17,727.967"/>
<path class="Note" d="M537.799,315.467 C540.924,315.467 543.528,316.248 545.611,317.811 C547.695,319.373 548.736,321.618 548.736,324.545 C548.736,329.035 546.411,333.232 541.76,337.139 C537.109,341.045 532.111,342.998 526.768,342.998 C523.643,342.998 521.007,342.186 518.861,340.561 C516.841,338.8 515.83,336.587 515.83,333.92 C515.83,329.555 518.143,325.389 522.768,321.42 C527.393,317.451 532.403,315.467 537.799,315.467"/>
<path class="Note" d="M1739.44,327.967 C1742.57,327.967 1745.17,328.748 1747.26,330.311 C1749.34,331.873 1750.38,334.118 1750.38,337.045 C1750.38,341.535 1748.06,345.732 1743.41,349.639 C1738.75,353.545 1733.76,355.498 1728.41,355.498 C1725.29,355.498 1722.65,354.686 1720.51,353.061 C1718.49,351.3 1717.48,349.087 1717.48,346.42 C1717.48,342.055 1719.79,337.889 1724.41,333.92 C1729.04,329.951 1734.05,327.967 1739.44,327.967"/>
<path class="Note" d="M2222.79,364.873 C2224.68,364.873 2228.63,362.92 2234.66,359.014 C2240.68,355.107 2244.23,352.488 2245.31,351.154 C2246.38,349.821 2246.92,348.634 2246.92,347.592 C2246.92,346.55 2246.49,345.623 2245.64,344.811 C2244.79,343.998 2243.82,343.592 2242.71,343.592 C2240.76,343.592 2236.78,345.561 2230.75,349.498 C2224.73,353.436 2221.19,356.055 2220.15,357.357 C2219.11,358.66 2218.59,359.831 2218.59,360.873 C2218.59,361.915 2219,362.842 2219.81,363.654 C2220.63,364.467 2221.62,364.873 2222.79,364.873 M2241.74,340.467 C2247.34,340.467 2250.13,342.873 2250.13,347.686 C2250.13,350.029 2249.45,352.748 2248.09,355.842 C2246.72,358.936 2244.9,361.295 2242.62,362.92 C2237.61,366.305 2231.33,367.998 2223.77,367.998 C2218.17,367.998 2215.37,365.592 2215.37,360.779 C2215.37,358.634 2216.04,355.964 2217.37,352.772 C2218.7,349.579 2220.54,347.17 2222.88,345.545 C2227.9,342.16 2234.19,340.467 2241.74,340.467"/>
<path class="Note" d="M479.147,327.967 C482.272,327.967 484.876,328.748 486.959,330.311 C489.042,331.873 490.084,334.118 490.084,337.045 C490.084,341.535 487.759,345.732 483.108,349.639 C478.457,353.545 473.459,355.498 468.115,355.498 C464.99,355.498 462.355,354.686 460.209,353.061 C458.188,351.3 457.178,349.087 457.178,346.42 C457.178,342.055 459.49,337.889 464.115,333.92 C468.74,329.951 473.751,327.967 479.147,327.967"/>
<path class="Note" d="M2039.75,740.467 C2042.87,740.467 2045.48,741.248 2047.56,742.811 C2049.65,744.373 2050.69,746.618 2050.69,749.545 C2050.69,754.035 2048.36,758.233 2043.71,762.139 C2039.06,766.045 2034.06,767.998 2028.72,767.998 C2025.59,767.998 2022.96,767.186 2020.81,765.561 C2018.79,763.8 2017.78,761.587 2017.78,758.92 C2017.78,754.556 2020.09,750.389 2024.72,746.42 C2029.34,742.451 2034.35,740.467 2039.75,740.467"/>
<path class="Note" d="M1534.49,315.467 C1537.61,315.467 1540.22,316.248 1542.3,317.811 C1544.38,319.373 1545.42,321.618 1545.42,324.545 C1545.42,329.035 1543.1,333.232 1538.45,337.139 C1533.8,341.045 1528.8,342.998 1523.46,342.998 C1520.33,342.998 1517.7,342.186 1515.55,340.561 C1513.53,338.8 1512.52,336.587 1512.52,333.92 C1512.52,329.555 1514.83,325.389 1519.46,321.42 C1524.08,317.451 1529.09,315.467 1534.49,315.467"/>
<path class="Note" d="M2147.33,765.467 C2150.45,765.467 2153.06,766.248 2155.14,767.811 C2157.22,769.373 2158.26,771.618 2158.26,774.545 C2158.26,779.035 2155.94,783.233 2151.29,787.139 C2146.64,791.045 2141.64,792.998 2136.29,792.998 C2133.17,792.998 2130.53,792.186 2128.39,790.561 C2126.37,788.8 2125.36,786.587 2125.36,783.92 C2125.36,779.556 2127.67,775.389 2132.29,771.42 C2136.92,767.452 2141.93,765.467 2147.33,765.467"/>
<path class="Note" d="M416.778,727.967 C419.903,727.967 422.507,728.748 424.59,730.311 C426.673,731.873 427.715,734.118 427.715,737.045 C427.715,741.535 425.39,745.733 420.739,749.639 C416.088,753.545 411.09,755.498 405.746,755.498 C402.621,755.498 399.986,754.686 397.84,753.061 C395.819,751.3 394.809,749.087 394.809,746.42 C394.809,742.056 397.121,737.889 401.746,733.92 C406.371,729.951 411.382,727.967 416.778,727.967"/>
<path class="Note" d="M2531.18,227.967 C2534.3,227.967 2536.9,228.748 2538.99,230.311 C2541.07,231.873 2542.11,234.118 2542.11,237.045 C2542.11,241.535 2539.79,245.732 2535.14,249.639 C2530.49,253.545 2525.49,255.498 2520.14,255.498 C2517.02,255.498 2514.38,254.686 2512.24,253.061 C2510.22,251.3 2509.21,249.087 2509.21,246.42 C2509.21,242.055 2511.52,237.889 2516.14,233.92 C2520.77,229.951 2525.78,227.967 2531.18,227.967"/>
<path class="Note" d="M2254.9,752.967 C2258.03,752.967 2260.63,753.748 2262.72,755.311 C2264.8,756.873 2265.84,759.118 2265.84,762.045 C2265.84,766.535 2263.51,770.733 2258.86,774.639 C2254.21,778.545 2249.22,780.498 2243.87,780.498 C2240.75,780.498 2238.11,779.686 2235.97,778.061 C2233.94,776.3 2232.93,774.087 2232.93,771.42 C2232.93,767.056 2235.25,762.889 2239.87,758.92 C2244.5,754.952 2249.51,752.967 2254.9,752.967"/>
<path class="Note" d="M2355.22,252.967 C2358.34,252.967 2360.95,253.748 2363.03,255.311 C2365.11,256.873 2366.16,259.118 2366.16,262.045 C2366.16,266.535 2363.83,270.732 2359.18,274.639 C2354.53,278.545 2349.53,280.498 2344.19,280.498 C2341.06,280.498 2338.43,279.686 2336.28,278.061 C2334.26,276.3 2333.25,274.087 2333.25,271.42 C2333.25,267.055 2335.56,262.889 2340.19,258.92 C2344.81,254.951 2349.82,252.967 2355.22,252.967"/>
<path class="Note" d="M420.494,340.467 C423.619,340.467 426.223,341.248 428.307,342.811 C430.39,344.373 431.432,346.618 431.432,349.545 C431.432,354.035 429.106,358.232 424.455,362.139 C419.804,366.045 414.807,367.998 409.463,367.998 C406.338,367.998 403.703,367.186 401.557,365.561 C399.536,363.8 398.525,361.587 398.525,358.92 C398.525,354.555 400.838,350.389 405.463,346.42 C410.088,342.451 415.098,340.467 420.494,340.467"/>
<path class="Note" d="M2362.48,740.467 C2365.6,740.467 2368.21,741.248 2370.29,742.811 C2372.37,744.373 2373.42,746.618 2373.42,749.545 C2373.42,754.035 2371.09,758.233 2366.44,762.139 C2361.79,766.045 2356.79,767.998 2351.45,767.998 C2348.32,767.998 2345.69,767.186 2343.54,765.561 C2341.52,763.8 2340.51,761.587 2340.51,758.92 C2340.51,754.556 2342.82,750.389 2347.45,746.42 C2352.07,742.451 2357.08,740.467 2362.48,740.467"/>
<path class="Note" d="M361.842,340.467 C364.967,340.467 367.571,341.248 369.654,342.811 C371.738,344.373 372.779,346.618 372.779,349.545 C372.779,354.035 370.454,358.232 365.803,362.139 C361.152,366.045 356.154,367.998 350.811,367.998 C347.686,367.998 345.05,367.186 342.904,365.561 C340.884,363.8 339.873,361.587 339.873,358.92 C339.873,354.555 342.186,350.389 346.811,346.42 C351.436,342.451 356.446,340.467 361.842,340.467"/>
<path class="Note" d="M524.354,715.467 C527.479,715.467 530.083,716.248 532.167,717.811 C534.25,719.373 535.292,721.618 535.292,724.545 C535.292,729.035 532.966,733.233 528.315,737.139 C523.664,741.045 518.667,742.998 513.323,742.998 C510.198,742.998 507.562,742.186 505.417,740.561 C503.396,738.8 502.385,736.587 502.385,733.92 C502.385,729.556 504.698,725.389 509.323,721.42 C513.948,717.451 518.958,715.467 524.354,715.467"/>
<path class="Note" d="M2472.52,240.467 C2475.65,240.467 2478.25,241.248 2480.34,242.811 C2482.42,244.373 2483.46,246.618 2483.46,249.545 C2483.46,254.035 2481.13,258.232 2476.48,262.139 C2471.83,266.045 2466.84,267.998 2461.49,267.998 C2458.37,267.998 2455.73,267.186 2453.59,265.561 C2451.56,263.8 2450.55,261.587 2450.55,258.92 C2450.55,254.555 2452.87,250.389 2457.49,246.42 C2462.12,242.451 2467.13,240.467 2472.52,240.467"/>
<path class="Note" d="M2645.87,752.373 C2647.76,752.373 2651.71,750.42 2657.74,746.514 C2663.77,742.608 2667.32,739.988 2668.39,738.655 C2669.46,737.321 2670,736.134 2670,735.092 C2670,734.05 2669.57,733.123 2668.72,732.311 C2667.88,731.498 2666.9,731.092 2665.8,731.092 C2663.85,731.092 2659.86,733.061 2653.83,736.998 C2647.81,740.936 2644.27,743.556 2643.23,744.858 C2642.19,746.16 2641.67,747.332 2641.67,748.373 C2641.67,749.415 2642.08,750.342 2642.9,751.155 C2643.71,751.967 2644.71,752.373 2645.87,752.373 M2664.83,727.967 C2670.42,727.967 2673.22,730.373 2673.22,735.186 C2673.22,737.53 2672.53,740.248 2671.17,743.342 C2669.81,746.436 2667.98,748.795 2665.7,750.42 C2660.69,753.806 2654.41,755.498 2646.86,755.498 C2641.25,755.498 2638.45,753.092 2638.45,748.28 C2638.45,746.134 2639.12,743.465 2640.45,740.272 C2641.78,737.079 2643.62,734.67 2645.97,733.045 C2650.99,729.66 2657.27,727.967 2664.83,727.967"/>
<path class="Note" d="M2484.51,752.373 C2486.39,752.373 2490.35,750.42 2496.38,746.514 C2502.4,742.608 2505.95,739.988 2507.02,738.655 C2508.1,737.321 2508.63,736.134 2508.63,735.092 C2508.63,734.05 2508.21,733.123 2507.36,732.311 C2506.51,731.498 2505.53,731.092 2504.43,731.092 C2502.48,731.092 2498.5,733.061 2492.47,736.998 C2486.44,740.936 2482.91,743.556 2481.87,744.858 C2480.83,746.16 2480.31,747.332 2480.31,748.373 C2480.31,749.415 2480.71,750.342 2481.53,751.155 C2482.35,751.967 2483.34,752.373 2484.51,752.373 M2503.46,727.967 C2509.06,727.967 2511.85,730.373 2511.85,735.186 C2511.85,737.53 2511.17,740.248 2509.81,743.342 C2508.44,746.436 2506.62,748.795 2504.34,750.42 C2499.33,753.806 2493.05,755.498 2485.49,755.498 C2479.89,755.498 2477.09,753.092 2477.09,748.28 C2477.09,746.134 2477.75,743.465 2479.09,740.272 C2480.42,737.079 2482.26,734.67 2484.6,733.045 C2489.62,729.66 2495.91,727.967 2503.46,727.967"/>
<path class="Note" d="M1680.79,315.467 C1683.92,315.467 1686.52,316.248 1688.6,317.811 C1690.69,319.373 1691.73,321.618 1691.73,324.545 C1691.73,329.035 1689.4,333.232 1684.75,337.139 C1680.1,341.045 1675.1,342.998 1669.76,342.998 C1666.64,342.998 1664,342.186 1661.85,340.561 C1659.83,338.8 1658.82,336.587 1658.82,333.92 C1658.82,329.555 1661.14,325.389 1665.76,321.42 C1670.39,317.451 1675.4,315.467 1680.79,315.467"/>
<path class="Note" d="M2003.05,365.467 C2006.18,365.467 2008.78,366.248 2010.87,367.811 C2012.95,369.373 2013.99,371.618 2013.99,374.545 C2013.99,379.035 2011.67,383.233 2007.01,387.139 C2002.36,391.045 1997.37,392.998 1992.02,392.998 C1988.9,392.998 1986.26,392.186 1984.12,390.561 C1982.1,388.8 1981.09,386.587 1981.09,383.92 C1981.09,379.555 1983.4,375.389 1988.02,371.42 C1992.65,367.451 1997.66,365.467 2003.05,365.467"/>
<path class="Note" d="M2413.87,252.967 C2417,252.967 2419.6,253.748 2421.68,255.311 C2423.77,256.873 2424.81,259.118 2424.81,262.045 C2424.81,266.535 2422.48,270.732 2417.83,274.639 C2413.18,278.545 2408.18,280.498 2402.84,280.498 C2399.71,280.498 2397.08,279.686 2394.93,278.061 C2392.91,276.3 2391.9,274.087 2391.9,271.42 C2391.9,267.055 2394.21,262.889 2398.84,258.92 C2403.46,254.951 2408.47,252.967 2413.87,252.967"/>
<path class="Note" d="M1358.53,340.467 C1361.65,340.467 1364.26,341.248 1366.34,342.811 C1368.43,344.373 1369.47,346.618 1369.47,349.545 C1369.47,354.035 1367.14,358.232 1362.49,362.139 C1357.84,366.045 1352.84,367.998 1347.5,367.998 C1344.37,367.998 1341.74,367.186 1339.59,365.561 C1337.57,363.8 1336.56,361.587 1336.56,358.92 C1336.56,354.555 1338.87,350.389 1343.5,346.42 C1348.12,342.451 1353.13,340.467 1358.53,340.467"/>
<path class="Note" d="M1417.18,340.467 C1420.31,340.467 1422.91,341.248 1424.99,342.811 C1427.08,344.373 1428.12,346.618 1428.12,349.545 C1428.12,354.035 1425.79,358.232 1421.14,362.139 C1416.49,366.045 1411.49,367.998 1406.15,367.998 C1403.03,367.998 1400.39,367.186 1398.24,365.561 C1396.22,363.8 1395.21,361.587 1395.21,358.92 C1395.21,354.555 1397.53,350.389 1402.15,346.42 C1406.78,342.451 1411.79,340.467 1417.18,340.467"/>
<path class="Note" d="M1798.1,340.467 C1801.22,340.467 1803.83,341.248 1805.91,342.811 C1807.99,344.373 1809.03,346.618 1809.03,349.545 C1809.03,354.035 1806.71,358.232 1802.06,362.139 C1797.41,366.045 1792.41,367.998 1787.07,367.998 C1783.94,367.998 1781.3,367.186 1779.16,365.561 C1777.14,363.8 1776.13,361.587 1776.13,358.92 C1776.13,354.555 1778.44,350.389 1783.07,346.42 C1787.69,342.451 1792.7,340.467 1798.1,340.467"/>
<path class="Note" d="M1226.1,377.373 C1227.99,377.373 1231.94,375.42 1237.97,371.514 C1244,367.608 1247.54,364.988 1248.62,363.654 C1249.69,362.321 1250.23,361.134 1250.23,360.092 C1250.23,359.05 1249.8,358.123 1248.95,357.311 C1248.1,356.498 1247.13,356.092 1246.02,356.092 C1244.08,356.092 1240.09,358.061 1234.06,361.998 C1228.04,365.936 1224.5,368.555 1223.46,369.858 C1222.42,371.16 1221.9,372.331 1221.9,373.373 C1221.9,374.415 1222.31,375.342 1223.13,376.154 C1223.94,376.967 1224.94,377.373 1226.1,377.373 M1245.06,352.967 C1250.65,352.967 1253.45,355.373 1253.45,360.186 C1253.45,362.529 1252.76,365.248 1251.4,368.342 C1250.03,371.436 1248.21,373.795 1245.93,375.42 C1240.92,378.805 1234.64,380.498 1227.09,380.498 C1221.48,380.498 1218.68,378.092 1218.68,373.279 C1218.68,371.134 1219.35,368.464 1220.68,365.272 C1222.01,362.079 1223.85,359.67 1226.2,358.045 C1231.22,354.66 1237.5,352.967 1245.06,352.967"/>
<path class="Note" d="M1121.14,727.967 C1124.26,727.967 1126.87,728.748 1128.95,730.311 C1131.03,731.873 1132.08,734.118 1132.08,737.045 C1132.08,741.535 1129.75,745.733 1125.1,749.639 C1120.45,753.545 1115.45,755.498 1110.11,755.498 C1106.98,755.498 1104.35,754.686 1102.2,753.061 C1100.18,751.3 1099.17,749.087 1099.17,746.42 C1099.17,742.056 1101.48,737.889 1106.11,733.92 C1110.73,729.951 1115.74,727.967 1121.14,727.967"/>
<path class="Note" d="M1885.75,352.967 C1888.87,352.967 1891.48,353.748 1893.56,355.311 C1895.64,356.873 1896.69,359.118 1896.69,362.045 C1896.69,366.535 1894.36,370.733 1889.71,374.639 C1885.06,378.545 1880.06,380.498 1874.72,380.498 C1871.59,380.498 1868.96,379.686 1866.81,378.061 C1864.79,376.3 1863.78,374.087 1863.78,371.42 C1863.78,367.055 1866.09,362.889 1870.72,358.92 C1875.34,354.951 1880.35,352.967 1885.75,352.967"/>
<path class="Note" d="M753.96,752.373 C755.845,752.373 759.801,750.42 765.827,746.514 C771.853,742.608 775.403,739.988 776.476,738.655 C777.549,737.321 778.085,736.134 778.085,735.092 C778.085,734.05 777.661,733.123 776.812,732.311 C775.963,731.498 774.986,731.092 773.882,731.092 C771.934,731.092 767.947,733.061 761.921,736.998 C755.895,740.936 752.361,743.556 751.319,744.858 C750.278,746.16 749.757,747.332 749.757,748.373 C749.757,749.415 750.166,750.342 750.983,751.155 C751.801,751.967 752.793,752.373 753.96,752.373 M772.913,727.967 C778.507,727.967 781.304,730.373 781.304,735.186 C781.304,737.53 780.621,740.248 779.257,743.342 C777.892,746.436 776.069,748.795 773.788,750.42 C768.778,753.806 762.496,755.498 754.944,755.498 C749.34,755.498 746.538,753.092 746.538,748.28 C746.538,746.134 747.205,743.465 748.538,740.272 C749.871,737.079 751.71,734.67 754.054,733.045 C759.075,729.66 765.361,727.967 772.913,727.967"/>
<path class="Note" d="M1138.12,364.873 C1140.01,364.873 1143.96,362.92 1149.99,359.014 C1156.02,355.107 1159.57,352.488 1160.64,351.154 C1161.71,349.821 1162.25,348.634 1162.25,347.592 C1162.25,346.55 1161.82,345.623 1160.98,344.811 C1160.13,343.998 1159.15,343.592 1158.05,343.592 C1156.1,343.592 1152.11,345.561 1146.08,349.498 C1140.06,353.436 1136.52,356.055 1135.48,357.357 C1134.44,358.66 1133.92,359.831 1133.92,360.873 C1133.92,361.915 1134.33,362.842 1135.15,363.654 C1135.96,364.467 1136.96,364.873 1138.12,364.873 M1157.08,340.467 C1162.67,340.467 1165.47,342.873 1165.47,347.686 C1165.47,350.029 1164.79,352.748 1163.42,355.842 C1162.06,358.936 1160.23,361.295 1157.95,362.92 C1152.94,366.305 1146.66,367.998 1139.11,367.998 C1133.5,367.998 1130.7,365.592 1130.7,360.779 C1130.7,358.634 1131.37,355.964 1132.7,352.772 C1134.04,349.579 1135.87,347.17 1138.22,345.545 C1143.24,342.16 1149.52,340.467 1157.08,340.467"/>
<path class="Note" d="M1228.71,727.967 C1231.84,727.967 1234.44,728.748 1236.53,730.311 C1238.61,731.873 1239.65,734.118 1239.65,737.045 C1239.65,741.535 1237.33,745.733 1232.68,749.639 C1228.02,753.545 1223.03,755.498 1217.68,755.498 C1214.56,755.498 1211.92,754.686 1209.78,753.061 C1207.76,751.3 1206.75,749.087 1206.75,746.42 C1206.75,742.056 1209.06,737.889 1213.68,733.92 C1218.31,729.951 1223.32,727.967 1228.71,727.967"/>
<path class="Note" d="M1944.4,377.967 C1947.53,377.967 1950.13,378.748 1952.21,380.311 C1954.3,381.873 1955.34,384.118 1955.34,387.045 C1955.34,391.535 1953.01,395.733 1948.36,399.639 C1943.71,403.545 1938.71,405.498 1933.37,405.498 C1930.25,405.498 1927.61,404.686 1925.46,403.061 C1923.44,401.3 1922.43,399.087 1922.43,396.42 C1922.43,392.055 1924.75,387.889 1929.37,383.92 C1934,379.951 1939.01,377.967 1944.4,377.967"/>
<path class="Note" d="M309.201,727.967 C312.326,727.967 314.93,728.748 317.014,730.311 C319.097,731.873 320.139,734.118 320.139,737.045 C320.139,741.535 317.813,745.733 313.162,749.639 C308.511,753.545 303.514,755.498 298.17,755.498 C295.045,755.498 292.41,754.686 290.264,753.061 C288.243,751.3 287.232,749.087 287.232,746.42 C287.232,742.056 289.545,737.889 294.17,733.92 C298.795,729.951 303.805,727.967 309.201,727.967"/>
<path class="Note" d="M1065.02,315.467 C1068.14,315.467 1070.75,316.248 1072.83,317.811 C1074.91,319.373 1075.96,321.618 1075.96,324.545 C1075.96,329.035 1073.63,333.232 1068.98,337.139 C1064.33,341.045 1059.33,342.998 1053.99,342.998 C1050.86,342.998 1048.23,342.186 1046.08,340.561 C1044.06,338.8 1043.05,336.587 1043.05,333.92 C1043.05,329.555 1045.36,325.389 1049.99,321.42 C1054.61,317.451 1059.62,315.467 1065.02,315.467"/>
<path class="Note" d="M1336.29,715.467 C1339.42,715.467 1342.02,716.248 1344.1,717.811 C1346.19,719.373 1347.23,721.618 1347.23,724.545 C1347.23,729.035 1344.9,733.233 1340.25,737.139 C1335.6,741.045 1330.6,742.998 1325.26,742.998 C1322.14,742.998 1319.5,742.186 1317.35,740.561 C1315.33,738.8 1314.32,736.587 1314.32,733.92 C1314.32,729.556 1316.64,725.389 1321.26,721.42 C1325.89,717.451 1330.9,715.467 1336.29,715.467"/>
<path class="Note" d="M915.325,764.873 C917.21,764.873 921.166,762.92 927.192,759.014 C933.218,755.108 936.767,752.488 937.84,751.155 C938.913,749.821 939.45,748.634 939.45,747.592 C939.45,746.55 939.025,745.623 938.176,744.811 C937.327,743.998 936.351,743.592 935.246,743.592 C933.299,743.592 929.312,745.561 923.286,749.498 C917.26,753.436 913.726,756.056 912.684,757.358 C911.642,758.66 911.121,759.832 911.121,760.873 C911.121,761.915 911.53,762.842 912.348,763.655 C913.166,764.467 914.158,764.873 915.325,764.873 M934.278,740.467 C939.871,740.467 942.668,742.873 942.668,747.686 C942.668,750.03 941.986,752.748 940.621,755.842 C939.257,758.936 937.434,761.295 935.153,762.92 C930.142,766.306 923.861,767.998 916.309,767.998 C910.705,767.998 907.903,765.592 907.903,760.78 C907.903,758.634 908.569,755.965 909.903,752.772 C911.236,749.579 913.075,747.17 915.418,745.545 C920.439,742.16 926.726,740.467 934.278,740.467"/>
<path class="Note" d="M2794.78,290.467 C2797.91,290.467 2800.51,291.248 2802.6,292.811 C2804.68,294.373 2805.72,296.618 2805.72,299.545 C2805.72,304.035 2803.4,308.232 2798.75,312.139 C2794.09,316.045 2789.1,317.998 2783.75,317.998 C2780.63,317.998 2777.99,317.186 2775.85,315.561 C2773.83,313.8 2772.82,311.587 2772.82,308.92 C2772.82,304.555 2775.13,300.389 2779.75,296.42 C2784.38,292.451 2789.39,290.467 2794.78,290.467"/>
<path class="Note" d="M1006.37,327.967 C1009.49,327.967 1012.09,328.748 1014.18,330.311 C1016.26,331.873 1017.3,334.118 1017.3,337.045 C1017.3,341.535 1014.98,345.732 1010.33,349.639 C1005.68,353.545 1000.68,355.498 995.334,355.498 C992.209,355.498 989.574,354.686 987.428,353.061 C985.407,351.3 984.397,349.087 984.397,346.42 C984.397,342.055 986.709,337.889 991.334,333.92 C995.959,329.951 1000.97,327.967 1006.37,327.967"/>
<path class="Note" d="M1475.83,327.967 C1478.96,327.967 1481.56,328.748 1483.65,330.311 C1485.73,331.873 1486.77,334.118 1486.77,337.045 C1486.77,341.535 1484.45,345.732 1479.8,349.639 C1475.14,353.545 1470.15,355.498 1464.8,355.498 C1461.68,355.498 1459.04,354.686 1456.9,353.061 C1454.88,351.3 1453.87,349.087 1453.87,346.42 C1453.87,342.055 1456.18,337.889 1460.8,333.92 C1465.43,329.951 1470.44,327.967 1475.83,327.967"/>
<path class="Note" d="M1443.87,702.967 C1446.99,702.967 1449.6,703.748 1451.68,705.311 C1453.76,706.873 1454.81,709.118 1454.81,712.045 C1454.81,716.535 1452.48,720.733 1447.83,724.639 C1443.18,728.545 1438.18,730.498 1432.84,730.498 C1429.71,730.498 1427.08,729.686 1424.93,728.061 C1422.91,726.3 1421.9,724.087 1421.9,721.42 C1421.9,717.056 1424.21,712.889 1428.84,708.92 C1433.46,704.951 1438.47,702.967 1443.87,702.967"/>
<path class="Note" d="M947.713,340.467 C950.838,340.467 953.442,341.248 955.526,342.811 C957.609,344.373 958.651,346.618 958.651,349.545 C958.651,354.035 956.325,358.232 951.674,362.139 C947.023,366.045 942.026,367.998 936.682,367.998 C933.557,367.998 930.922,367.186 928.776,365.561 C926.755,363.8 925.745,361.587 925.745,358.92 C925.745,354.555 928.057,350.389 932.682,346.42 C937.307,342.451 942.317,340.467 947.713,340.467"/>
<path class="Note" d="M2736.13,240.467 C2739.26,240.467 2741.86,241.248 2743.94,242.811 C2746.03,244.373 2747.07,246.618 2747.07,249.545 C2747.07,254.035 2744.74,258.232 2740.09,262.139 C2735.44,266.045 2730.44,267.998 2725.1,267.998 C2721.98,267.998 2719.34,267.186 2717.19,265.561 C2715.17,263.8 2714.16,261.587 2714.16,258.92 C2714.16,254.555 2716.48,250.389 2721.1,246.42 C2725.73,242.451 2730.74,240.467 2736.13,240.467"/>
<path class="Note" d="M889.061,340.467 C892.186,340.467 894.79,341.248 896.873,342.811 C898.957,344.373 899.998,346.618 899.998,349.545 C899.998,354.035 897.673,358.232 893.022,362.139 C888.371,366.045 883.373,367.998 878.03,367.998 C874.905,367.998 872.269,367.186 870.123,365.561 C868.103,363.8 867.092,361.587 867.092,358.92 C867.092,354.555 869.405,350.389 874.03,346.42 C878.655,342.451 883.665,340.467 889.061,340.467"/>
<path class="Note" d="M2061.71,352.967 C2064.83,352.967 2067.44,353.748 2069.52,355.311 C2071.6,356.873 2072.64,359.118 2072.64,362.045 C2072.64,366.535 2070.32,370.733 2065.67,374.639 C2061.02,378.545 2056.02,380.498 2050.67,380.498 C2047.55,380.498 2044.91,379.686 2042.77,378.061 C2040.75,376.3 2039.74,374.087 2039.74,371.42 C2039.74,367.055 2042.05,362.889 2046.67,358.92 C2051.3,354.951 2056.31,352.967 2061.71,352.967"/>
<path class="Note" d="M801.409,377.967 C804.534,377.967 807.138,378.748 809.221,380.311 C811.304,381.873 812.346,384.118 812.346,387.045 C812.346,391.535 810.021,395.733 805.369,399.639 C800.718,403.545 795.721,405.498 790.377,405.498 C787.252,405.498 784.617,404.686 782.471,403.061 C780.45,401.3 779.44,399.087 779.44,396.42 C779.44,392.055 781.752,387.889 786.377,383.92 C791.002,379.951 796.013,377.967 801.409,377.967"/>
<path class="Note" d="M1580.44,690.467 C1583.57,690.467 1586.17,691.248 1588.26,692.811 C1590.34,694.373 1591.38,696.618 1591.38,699.545 C1591.38,704.035 1589.06,708.233 1584.41,712.139 C1579.75,716.045 1574.76,717.998 1569.41,717.998 C1566.29,717.998 1563.65,717.186 1561.51,715.561 C1559.49,713.8 1558.48,711.587 1558.48,708.92 C1558.48,704.556 1560.79,700.389 1565.41,696.42 C1570.04,692.451 1575.05,690.467 1580.44,690.467"/>
<path class="Note" d="M2677.48,227.967 C2680.6,227.967 2683.21,228.748 2685.29,230.311 C2687.38,231.873 2688.42,234.118 2688.42,237.045 C2688.42,241.535 2686.09,245.732 2681.44,249.639 C2676.79,253.545 2671.79,255.498 2666.45,255.498 C2663.32,255.498 2660.69,254.686 2658.54,253.061 C2656.52,251.3 2655.51,249.087 2655.51,246.42 C2655.51,242.055 2657.82,237.889 2662.45,233.92 C2667.07,229.951 2672.08,227.967 2677.48,227.967"/>
<path class="Note" d="M742.756,327.967 C745.881,327.967 748.485,328.748 750.569,330.311 C752.652,331.873 753.694,334.118 753.694,337.045 C753.694,341.535 751.368,345.732 746.717,349.639 C742.066,353.545 737.069,355.498 731.725,355.498 C728.6,355.498 725.964,354.686 723.819,353.061 C721.798,351.3 720.787,349.087 720.787,346.42 C720.787,342.055 723.1,337.889 727.725,333.92 C732.35,329.951 737.36,327.967 742.756,327.967"/>
<path class="Clef" d="M203.623,423.858 L203.623,421.717 C203.56,420.613 203.399,418.889 203.139,416.545 C199.889,417.066 196.993,417.326 194.451,417.326 C185.337,417.326 177.605,413.727 171.256,406.529 C164.907,399.331 161.732,390.753 161.732,380.795 C161.732,378.128 162.253,374.923 163.295,371.178 C164.337,367.433 165.297,364.925 166.178,363.654 C167.058,362.384 168.378,360.154 170.139,356.967 C170.659,355.988 172.352,353.837 175.217,350.514 C175.738,349.805 176.193,349.222 176.584,348.764 C176.975,348.305 177.607,347.49 178.482,346.318 C179.357,345.147 180.3,344.055 181.31,343.045 C182.321,342.035 183.217,341.058 183.998,340.115 C184.779,339.173 185.498,338.378 186.154,337.733 C183.81,329.983 182.378,324.024 181.857,319.858 C181.337,315.691 181.076,310.579 181.076,304.522 C181.076,298.464 182.378,292.962 184.982,288.014 C187.514,282.878 191.06,278.68 195.623,275.42 C195.883,275.222 196.225,275.123 196.646,275.123 C197.068,275.123 197.378,275.222 197.576,275.42 C201.087,279.649 204.128,285.149 206.701,291.92 C209.274,298.691 210.56,305.024 210.56,310.92 C210.56,316.816 209.066,322.498 206.076,327.967 C202.691,333.759 198.326,339.748 192.982,345.936 C194.347,350.227 196.17,356.962 198.451,366.139 L199.045,366.139 C199.305,366.076 199.529,366.045 199.717,366.045 C207.081,366.045 213.089,368.634 217.74,373.811 C222.391,378.988 224.717,384.962 224.717,391.733 C224.717,400.128 221.238,406.899 214.279,412.045 C212.258,413.545 209.878,414.717 207.139,415.561 C207.472,419.79 207.639,422.605 207.639,424.006 C207.639,425.407 207.571,427.899 207.435,431.483 C207.373,437.597 205.29,442.837 201.185,447.201 C197.081,451.566 192.394,453.748 187.123,453.748 C181.852,453.748 177.36,451.876 173.646,448.131 C169.933,444.386 168.076,439.847 168.076,434.514 C168.076,431.712 169.154,429.331 171.31,427.373 C173.519,425.425 176.006,424.451 178.771,424.451 C181.537,424.451 183.8,425.462 185.56,427.483 C187.383,429.368 188.295,431.644 188.295,434.311 C188.295,436.977 187.383,439.222 185.56,441.045 C183.738,442.868 181.555,443.779 179.014,443.779 C177.972,443.779 176.967,443.587 175.998,443.201 C178.863,447.43 182.54,449.545 187.029,449.545 C191.519,449.545 195.36,447.691 198.553,443.983 C201.745,440.274 203.342,435.91 203.342,430.889 L203.623,423.858 M206.748,411.561 C210.133,410.321 212.821,408.123 214.81,404.967 C216.8,401.811 217.795,398.67 217.795,395.545 C217.795,390.92 216.199,386.785 213.006,383.139 C209.813,379.493 205.774,377.441 200.889,376.983 C203.691,390.722 205.644,402.248 206.748,411.561 M168.967,388.998 C168.967,395.446 171.537,401.079 176.678,405.897 C181.818,410.714 187.842,413.123 194.748,413.123 C197.477,413.123 200.144,412.925 202.748,412.529 C201.706,402.634 199.654,390.785 196.592,376.983 C192.758,377.378 189.782,378.699 187.662,380.943 C185.542,383.188 184.482,385.743 184.482,388.608 C184.482,393.555 187.123,397.561 192.404,400.623 C192.852,400.884 193.076,401.324 193.076,401.943 C193.076,402.563 192.865,403.1 192.443,403.553 C192.021,404.006 191.649,404.233 191.326,404.233 C191.003,404.233 190.581,404.17 190.06,404.045 C182.435,399.878 178.623,393.592 178.623,385.186 C178.623,381.217 180.024,377.41 182.826,373.764 C185.753,370.118 189.56,367.774 194.248,366.733 C192.425,359.441 190.93,353.743 189.764,349.639 C180.847,359.67 175.31,367.092 173.154,371.904 C170.363,378.154 168.967,383.852 168.967,388.998 M201.576,289.686 C196.691,292.092 192.834,295.574 190.006,300.131 C187.178,304.688 185.764,309.472 185.764,314.483 C185.764,319.493 186.935,325.972 189.279,333.92 C193.967,328.253 197.514,322.946 199.92,317.998 C202.326,313.05 203.529,308.152 203.529,303.303 C203.529,298.454 202.878,293.915 201.576,289.686"/>
<path class="Clef" d="M203.623,898.858 L203.623,896.717 C203.56,895.613 203.399,893.889 203.139,891.545 C199.889,892.066 196.993,892.327 194.451,892.327 C185.337,892.327 177.605,888.728 171.256,881.53 C164.907,874.332 161.732,865.754 161.732,855.795 C161.732,853.129 162.253,849.923 163.295,846.178 C164.337,842.433 165.297,839.926 166.178,838.655 C167.058,837.384 168.378,835.155 170.139,831.967 C170.659,830.988 172.352,828.837 175.217,825.514 C175.738,824.806 176.193,824.222 176.584,823.764 C176.975,823.306 177.607,822.491 178.482,821.319 C179.357,820.147 180.3,819.056 181.31,818.045 C182.321,817.035 183.217,816.058 183.998,815.116 C184.779,814.173 185.498,813.379 186.154,812.733 C183.81,804.983 182.378,799.024 181.857,794.858 C181.337,790.691 181.076,785.579 181.076,779.522 C181.076,773.465 182.378,767.962 184.982,763.014 C187.514,757.879 191.06,753.681 195.623,750.42 C195.883,750.222 196.225,750.123 196.646,750.123 C197.068,750.123 197.378,750.222 197.576,750.42 C201.087,754.649 204.128,760.149 206.701,766.92 C209.274,773.691 210.56,780.024 210.56,785.92 C210.56,791.816 209.066,797.498 206.076,802.967 C202.691,808.759 198.326,814.748 192.982,820.936 C194.347,825.228 196.17,831.962 198.451,841.139 L199.045,841.139 C199.305,841.077 199.529,841.045 199.717,841.045 C207.081,841.045 213.089,843.634 217.74,848.811 C222.391,853.988 224.717,859.962 224.717,866.733 C224.717,875.129 221.238,881.899 214.279,887.045 C212.258,888.545 209.878,889.717 207.139,890.561 C207.472,894.79 207.639,897.605 207.639,899.006 C207.639,900.407 207.571,902.899 207.435,906.483 C207.373,912.597 205.29,917.837 201.185,922.202 C197.081,926.566 192.394,928.748 187.123,928.748 C181.852,928.748 177.36,926.876 173.646,923.131 C169.933,919.386 168.076,914.847 168.076,909.514 C168.076,906.712 169.154,904.332 171.31,902.373 C173.519,900.426 176.006,899.452 178.771,899.452 C181.537,899.452 183.8,900.462 185.56,902.483 C187.383,904.368 188.295,906.644 188.295,909.311 C188.295,911.978 187.383,914.222 185.56,916.045 C183.738,917.868 181.555,918.78 179.014,918.78 C177.972,918.78 176.967,918.587 175.998,918.202 C178.863,922.431 182.54,924.545 187.029,924.545 C191.519,924.545 195.36,922.691 198.553,918.983 C201.745,915.274 203.342,910.91 203.342,905.889 L203.623,898.858 M206.748,886.561 C210.133,885.321 212.821,883.123 214.81,879.967 C216.8,876.811 217.795,873.67 217.795,870.545 C217.795,865.92 216.199,861.785 213.006,858.139 C209.813,854.493 205.774,852.441 200.889,851.983 C203.691,865.722 205.644,877.248 206.748,886.561 M168.967,863.998 C168.967,870.446 171.537,876.079 176.678,880.897 C181.818,885.715 187.842,888.123 194.748,888.123 C197.477,888.123 200.144,887.926 202.748,887.53 C201.706,877.634 199.654,865.785 196.592,851.983 C192.758,852.379 189.782,853.699 187.662,855.944 C185.542,858.189 184.482,860.743 184.482,863.608 C184.482,868.556 187.123,872.561 192.404,875.623 C192.852,875.884 193.076,876.324 193.076,876.944 C193.076,877.564 192.865,878.1 192.443,878.553 C192.021,879.006 191.649,879.233 191.326,879.233 C191.003,879.233 190.581,879.17 190.06,879.045 C182.435,874.879 178.623,868.592 178.623,860.186 C178.623,856.217 180.024,852.41 182.826,848.764 C185.753,845.118 189.56,842.774 194.248,841.733 C192.425,834.441 190.93,828.743 189.764,824.639 C180.847,834.67 175.31,842.092 173.154,846.905 C170.363,853.155 168.967,858.853 168.967,863.998 M201.576,764.686 C196.691,767.092 192.834,770.574 190.006,775.131 C187.178,779.689 185.764,784.472 185.764,789.483 C185.764,794.493 186.935,800.972 189.279,808.92 C193.967,803.254 197.514,797.946 199.92,792.998 C202.326,788.051 203.529,783.152 203.529,778.303 C203.529,773.454 202.878,768.915 201.576,764.686"/>
<path class="TimeSig" d="M273.021,317.912 C274.516,317.912 275.949,317.686 277.318,317.232 C278.688,316.779 279.665,316.553 280.248,316.553 C280.831,316.553 281.222,316.907 281.42,317.615 C281.42,317.688 281.352,317.886 281.217,318.209 L252.811,351.225 L269.498,351.225 L269.498,338.131 C269.498,336.506 270.446,335.334 272.342,334.615 C274.29,333.897 276.503,331.001 278.982,325.928 C279.17,325.532 279.462,325.334 279.857,325.334 C280.639,325.334 281.092,325.792 281.217,326.709 L281.217,351.225 L288.357,351.225 C289.264,351.225 289.751,351.712 289.818,352.686 C289.886,353.66 289.399,354.147 288.357,354.147 L281.217,354.147 L281.217,354.928 C281.217,357.532 281.868,359.746 283.17,361.568 C284.67,363.391 286.43,364.303 288.451,364.303 C289.232,364.303 289.623,364.693 289.623,365.475 C289.623,366.256 289.087,366.647 288.014,366.647 C286.941,366.647 284.938,366.436 282.006,366.014 C279.074,365.592 276.811,365.381 275.217,365.381 C273.623,365.381 271.41,365.592 268.576,366.014 C265.743,366.436 263.613,366.647 262.186,366.647 C261.404,366.647 261.014,366.256 261.014,365.475 C261.014,364.693 261.404,364.303 262.186,364.303 C264.196,364.303 265.951,363.391 267.451,361.568 C268.816,359.683 269.498,357.469 269.498,354.928 L269.498,354.147 L252.811,354.147 C251.956,354.147 251.219,353.92 250.6,353.467 C249.98,353.014 249.67,352.592 249.67,352.201 C249.67,351.811 250.485,350.639 252.115,348.686 C253.745,346.732 256.074,342.972 259.1,337.404 C262.126,331.837 263.639,325.438 263.639,318.209 C263.639,317.167 264.097,316.647 265.014,316.647 C265.212,316.647 265.521,316.712 265.943,316.842 C266.365,316.972 267.277,317.183 268.678,317.475 C270.079,317.766 271.527,317.912 273.021,317.912"/>
<path class="TimeSig" d="M273.021,368.084 C274.516,368.084 275.949,367.858 277.318,367.404 C278.688,366.951 279.665,366.725 280.248,366.725 C280.831,366.725 281.222,367.079 281.42,367.787 C281.42,367.86 281.352,368.058 281.217,368.381 L252.811,401.397 L269.498,401.397 L269.498,388.303 C269.498,386.678 270.446,385.506 272.342,384.787 C274.29,384.068 276.503,381.173 278.982,376.1 C279.17,375.704 279.462,375.506 279.857,375.506 C280.639,375.506 281.092,375.964 281.217,376.881 L281.217,401.397 L288.357,401.397 C289.264,401.397 289.751,401.884 289.818,402.858 C289.886,403.831 289.399,404.318 288.357,404.318 L281.217,404.318 L281.217,405.1 C281.217,407.704 281.868,409.917 283.17,411.74 C284.67,413.563 286.43,414.475 288.451,414.475 C289.232,414.475 289.623,414.865 289.623,415.647 C289.623,416.428 289.087,416.818 288.014,416.818 C286.941,416.818 284.938,416.608 282.006,416.186 C279.074,415.764 276.811,415.553 275.217,415.553 C273.623,415.553 271.41,415.764 268.576,416.186 C265.743,416.608 263.613,416.818 262.186,416.818 C261.404,416.818 261.014,416.428 261.014,415.647 C261.014,414.865 261.404,414.475 262.186,414.475 C264.196,414.475 265.951,413.563 267.451,411.74 C268.816,409.855 269.498,407.641 269.498,405.1 L269.498,404.318 L252.811,404.318 C251.956,404.318 251.219,404.092 250.6,403.639 C249.98,403.186 249.67,402.764 249.67,402.373 C249.67,401.983 250.485,400.811 252.115,398.858 C253.745,396.904 256.074,393.144 259.1,387.576 C262.126,382.009 263.639,375.61 263.639,368.381 C263.639,367.339 264.097,366.818 265.014,366.818 C265.212,366.818 265.521,366.884 265.943,367.014 C266.365,367.144 267.277,367.355 268.678,367.647 C270.079,367.938 271.527,368.084 273.021,368.084"/>
</svg>
