<?xml version="1.0" encoding="UTF-8" standalone="no"?>
<svg width="2977.2px" height="4208.4px" viewBox="0 0 2977.2 4208.4"
 xmlns="http://www.w3.org/2000/svg" xmlns:xlink="http://www.w3.org/1999/xlink" version="1.2" baseProfile="tiny">
<title>Minuet_Bach.mscx (2)</title>
<desc>Generated by MuseScore Studio 4.3.1</desc>
<path class="" fill="#ffffff" fill-rule="evenodd" d="M0,0 L2977.2,0 L2977.2,4208.4 L0,4208.4 L0,0 "/>
<polyline class="StaffLines" fill="none" stroke="#000000" stroke-width="2.00" stroke-linejoin="bevel" points="141.732,316.732 2835.47,316.732"/>
<polyline class="StaffLines" fill="none" stroke="#000000" stroke-width="2.00" stroke-linejoin="bevel" points="141.732,341.732 2835.47,341.732"/>
<polyline class="StaffLines" fill="none" stroke="#000000" stroke-width="2.00" stroke-linejoin="bevel" points="141.732,366.733 2835.47,366.733"/>
<polyline class="StaffLines" fill="none" stroke="#000000" stroke-width="2.00" stroke-linejoin="bevel" points="141.732,391.733 2835.47,391.733"/>
<polyline class="StaffLines" fill="none" stroke="#000000" stroke-width="2.00" stroke-linejoin="bevel" points="141.732,416.733 2835.47,416.733"/>
<path class="MeasureNumber" d="M141.607,257.654 L141.607,260.061 L137.529,260.061 L137.529,266.732 L134.451,266.732 L134.451,260.061 L123.217,260.061 L123.217,257.654 L135.764,239.701 L137.529,239.701 L137.529,257.654 L141.607,257.654 M134.404,257.654 L134.404,243.936 L124.81,257.654 L134.404,257.654 M156.998,258.873 C156.998,257.446 156.683,256.18 156.053,255.076 C155.422,253.972 154.662,253.118 153.771,252.514 C152.881,251.91 151.883,251.412 150.779,251.022 C149.675,250.631 148.714,250.376 147.896,250.256 C147.079,250.136 146.368,250.076 145.764,250.076 C145.441,250.076 145.279,249.967 145.279,249.748 C145.279,249.675 145.29,249.613 145.31,249.561 L149.67,240.264 L158.029,240.264 C158.456,240.264 158.797,240.196 159.053,240.061 C159.308,239.925 159.581,239.644 159.873,239.217 L160.232,239.498 L158.717,242.842 C158.613,243.061 158.305,243.17 157.795,243.17 L149.951,243.17 L148.279,246.607 C152.165,247.305 155.055,248.441 156.951,250.014 C158.847,251.587 159.795,253.894 159.795,256.936 C159.795,258.529 159.547,259.946 159.053,261.186 C158.558,262.425 157.93,263.423 157.17,264.178 C156.409,264.933 155.529,265.553 154.529,266.037 C153.529,266.522 152.571,266.852 151.654,267.029 C150.738,267.206 149.81,267.295 148.873,267.295 C147.383,267.295 146.199,267.074 145.318,266.631 C144.438,266.188 143.998,265.581 143.998,264.811 C143.998,263.821 144.571,263.326 145.717,263.326 C146.467,263.326 147.433,263.735 148.615,264.553 C149.797,265.37 150.738,265.779 151.435,265.779 C153.008,265.779 154.329,265.113 155.396,263.779 C156.464,262.446 156.998,260.811 156.998,258.873"/>
<polyline class="BarLine" fill="none" stroke="#000000" stroke-width="4.00" stroke-linejoin="bevel" points="1115.63,315.732 1115.63,417.733"/>
<polyline class="BarLine" fill="none" stroke="#000000" stroke-width="4.00" stroke-linejoin="bevel" points="1727.22,315.732 1727.22,417.733"/>
<polyline class="BarLine" fill="none" stroke="#000000" stroke-width="4.00" stroke-linejoin="bevel" points="2403.55,315.732 2403.55,417.733"/>
<polyline class="BarLine" fill="none" stroke="#000000" stroke-width="4.00" stroke-linejoin="bevel" points="2802.72,315.732 2802.72,417.733"/>
<polyline class="BarLine" fill="none" stroke="#000000" stroke-width="12.50" stroke-linejoin="bevel" points="2829.22,315.732 2829.22,417.733"/>
<polyline class="Stem" fill="none" stroke="#000000" stroke-width="3.25" stroke-linejoin="bevel" points="2463.64,386.933 2463.64,304.232"/>
<polyline class="Stem" fill="none" stroke="#000000" stroke-width="3.25" stroke-linejoin="bevel" points="2238.64,398.363 2238.64,316.732"/>
<polyline class="Stem" fill="none" stroke="#000000" stroke-width="3.25" stroke-linejoin="bevel" points="2044.44,385.863 2044.44,304.232"/>
<polyline class="Stem" fill="none" stroke="#000000" stroke-width="3.25" stroke-linejoin="bevel" points="1885.31,347.602 1885.31,429.309"/>
<polyline class="Stem" fill="none" stroke="#000000" stroke-width="3.25" stroke-linejoin="bevel" points="1755.85,372.602 1755.85,435.406"/>
<polyline class="Stem" fill="none" stroke="#000000" stroke-width="3.25" stroke-linejoin="bevel" points="1562.31,373.363 1562.31,297.982"/>
<polyline class="Stem" fill="none" stroke="#000000" stroke-width="3.25" stroke-linejoin="bevel" points="1144.25,360.102 1144.25,435.483"/>
<polyline class="Stem" fill="none" stroke="#000000" stroke-width="3.25" stroke-linejoin="bevel" points="1338.45,372.602 1338.45,441.733"/>
<polyline class="Stem" fill="none" stroke="#000000" stroke-width="3.25" stroke-linejoin="bevel" points="368.123,423.363 368.123,347.906"/>
<polyline class="Stem" fill="none" stroke="#000000" stroke-width="3.25" stroke-linejoin="bevel" points="885.985,373.363 885.985,304.156"/>
<polyline class="Stem" fill="none" stroke="#000000" stroke-width="3.25" stroke-linejoin="bevel" points="497.588,410.863 497.588,341.809"/>
<polyline class="Stem" fill="none" stroke="#000000" stroke-width="3.25" stroke-linejoin="bevel" points="1015.45,360.863 1015.45,298.059"/>
<polyline class="Stem" fill="none" stroke="#000000" stroke-width="3.25" stroke-linejoin="bevel" points="756.519,385.863 756.519,316.809"/>
<polyline class="Stem" fill="none" stroke="#000000" stroke-width="3.25" stroke-linejoin="bevel" points="627.054,398.363 627.054,322.906"/>
<path class="Note" d="M617.733,390.467 C620.858,390.467 623.463,391.248 625.546,392.811 C627.629,394.373 628.671,396.618 628.671,399.545 C628.671,404.035 626.345,408.233 621.694,412.139 C617.043,416.045 612.046,417.998 606.702,417.998 C603.577,417.998 600.942,417.186 598.796,415.561 C596.775,413.8 595.765,411.587 595.765,408.92 C595.765,404.555 598.077,400.389 602.702,396.42 C607.327,392.451 612.338,390.467 617.733,390.467"/>
<path class="Note" d="M358.803,415.467 C361.928,415.467 364.532,416.248 366.615,417.811 C368.699,419.373 369.74,421.618 369.74,424.545 C369.74,429.035 367.415,433.233 362.764,437.139 C358.113,441.045 353.115,442.998 347.772,442.998 C344.647,442.998 342.011,442.186 339.865,440.561 C337.844,438.8 336.834,436.587 336.834,433.92 C336.834,429.555 339.147,425.389 343.772,421.42 C348.397,417.451 353.407,415.467 358.803,415.467"/>
<path class="Note" d="M2229.32,390.467 C2232.44,390.467 2235.05,391.248 2237.13,392.811 C2239.21,394.373 2240.26,396.618 2240.26,399.545 C2240.26,404.035 2237.93,408.233 2233.28,412.139 C2228.63,416.045 2223.63,417.998 2218.29,417.998 C2215.16,417.998 2212.53,417.186 2210.38,415.561 C2208.36,413.8 2207.35,411.587 2207.35,408.92 C2207.35,404.555 2209.66,400.389 2214.29,396.42 C2218.91,392.451 2223.92,390.467 2229.32,390.467"/>
<path class="Note" d="M2035.12,377.967 C2038.24,377.967 2040.85,378.748 2042.93,380.311 C2045.02,381.873 2046.06,384.118 2046.06,387.045 C2046.06,391.535 2043.73,395.733 2039.08,399.639 C2034.43,403.545 2029.43,405.498 2024.09,405.498 C2020.96,405.498 2018.33,404.686 2016.18,403.061 C2014.16,401.3 2013.15,399.087 2013.15,396.42 C2013.15,392.055 2015.46,387.889 2020.09,383.92 C2024.71,379.951 2029.72,377.967 2035.12,377.967"/>
<path class="Note" d="M1905.65,327.967 C1908.78,327.967 1911.38,328.748 1913.47,330.311 C1915.55,331.873 1916.59,334.118 1916.59,337.045 C1916.59,341.535 1914.27,345.732 1909.62,349.639 C1904.96,353.545 1899.97,355.498 1894.62,355.498 C1891.5,355.498 1888.86,354.686 1886.72,353.061 C1884.7,351.3 1883.69,349.087 1883.69,346.42 C1883.69,342.055 1886,337.889 1890.62,333.92 C1895.25,329.951 1900.26,327.967 1905.65,327.967"/>
<path class="Note" d="M488.268,402.967 C491.393,402.967 493.997,403.748 496.081,405.311 C498.164,406.873 499.206,409.118 499.206,412.045 C499.206,416.535 496.88,420.733 492.229,424.639 C487.578,428.545 482.581,430.498 477.237,430.498 C474.112,430.498 471.476,429.686 469.331,428.061 C467.31,426.3 466.299,424.087 466.299,421.42 C466.299,417.055 468.612,412.889 473.237,408.92 C477.862,404.951 482.872,402.967 488.268,402.967"/>
<path class="Note" d="M1776.19,352.967 C1779.31,352.967 1781.92,353.748 1784,355.311 C1786.08,356.873 1787.13,359.118 1787.13,362.045 C1787.13,366.535 1784.8,370.733 1780.15,374.639 C1775.5,378.545 1770.5,380.498 1765.16,380.498 C1762.03,380.498 1759.4,379.686 1757.25,378.061 C1755.23,376.3 1754.22,374.087 1754.22,371.42 C1754.22,367.055 1756.53,362.889 1761.16,358.92 C1765.78,354.951 1770.79,352.967 1776.19,352.967"/>
<path class="Note" d="M2437.97,402.373 C2439.85,402.373 2443.81,400.42 2449.84,396.514 C2455.86,392.608 2459.41,389.988 2460.48,388.654 C2461.56,387.321 2462.09,386.134 2462.09,385.092 C2462.09,384.05 2461.67,383.123 2460.82,382.311 C2459.97,381.498 2458.99,381.092 2457.89,381.092 C2455.94,381.092 2451.96,383.061 2445.93,386.998 C2439.9,390.936 2436.37,393.555 2435.33,394.858 C2434.29,396.16 2433.77,397.331 2433.77,398.373 C2433.77,399.415 2434.17,400.342 2434.99,401.154 C2435.81,401.967 2436.8,402.373 2437.97,402.373 M2456.92,377.967 C2462.52,377.967 2465.31,380.373 2465.31,385.186 C2465.31,387.529 2464.63,390.248 2463.27,393.342 C2461.9,396.436 2460.08,398.795 2457.8,400.42 C2452.79,403.805 2446.51,405.498 2438.95,405.498 C2433.35,405.498 2430.55,403.092 2430.55,398.279 C2430.55,396.134 2431.21,393.464 2432.55,390.272 C2433.88,387.079 2435.72,384.67 2438.06,383.045 C2443.08,379.66 2449.37,377.967 2456.92,377.967"/>
<path class="Note" d="M1552.99,365.467 C1556.12,365.467 1558.72,366.248 1560.8,367.811 C1562.89,369.373 1563.93,371.618 1563.93,374.545 C1563.93,379.035 1561.6,383.233 1556.95,387.139 C1552.3,391.045 1547.3,392.998 1541.96,392.998 C1538.83,392.998 1536.2,392.186 1534.05,390.561 C1532.03,388.8 1531.02,386.587 1531.02,383.92 C1531.02,379.555 1533.33,375.389 1537.96,371.42 C1542.58,367.451 1547.6,365.467 1552.99,365.467"/>
<path class="Note" d="M1358.79,352.967 C1361.92,352.967 1364.52,353.748 1366.61,355.311 C1368.69,356.873 1369.73,359.118 1369.73,362.045 C1369.73,366.535 1367.4,370.733 1362.75,374.639 C1358.1,378.545 1353.11,380.498 1347.76,380.498 C1344.64,380.498 1342,379.686 1339.86,378.061 C1337.83,376.3 1336.82,374.087 1336.82,371.42 C1336.82,367.055 1339.14,362.889 1343.76,358.92 C1348.39,354.951 1353.4,352.967 1358.79,352.967"/>
<path class="Note" d="M747.199,377.967 C750.324,377.967 752.928,378.748 755.011,380.311 C757.095,381.873 758.136,384.118 758.136,387.045 C758.136,391.535 755.811,395.733 751.16,399.639 C746.509,403.545 741.511,405.498 736.168,405.498 C733.043,405.498 730.407,404.686 728.261,403.061 C726.241,401.3 725.23,399.087 725.23,396.42 C725.23,392.055 727.543,387.889 732.168,383.92 C736.793,379.951 741.803,377.967 747.199,377.967"/>
<path class="Note" d="M1164.59,340.467 C1167.72,340.467 1170.32,341.248 1172.41,342.811 C1174.49,344.373 1175.53,346.618 1175.53,349.545 C1175.53,354.035 1173.21,358.232 1168.56,362.139 C1163.9,366.045 1158.91,367.998 1153.56,367.998 C1150.44,367.998 1147.8,367.186 1145.66,365.561 C1143.64,363.8 1142.63,361.587 1142.63,358.92 C1142.63,354.555 1144.94,350.389 1149.56,346.42 C1154.19,342.451 1159.2,340.467 1164.59,340.467"/>
<path class="Note" d="M876.664,365.467 C879.789,365.467 882.393,366.248 884.477,367.811 C886.56,369.373 887.602,371.618 887.602,374.545 C887.602,379.035 885.276,383.233 880.625,387.139 C875.974,391.045 870.977,392.998 865.633,392.998 C862.508,392.998 859.873,392.186 857.727,390.561 C855.706,388.8 854.695,386.587 854.695,383.92 C854.695,379.555 857.008,375.389 861.633,371.42 C866.258,367.451 871.268,365.467 876.664,365.467"/>
<path class="Note" d="M1006.13,352.967 C1009.25,352.967 1011.86,353.748 1013.94,355.311 C1016.03,356.873 1017.07,359.118 1017.07,362.045 C1017.07,366.535 1014.74,370.733 1010.09,374.639 C1005.44,378.545 1000.44,380.498 995.098,380.498 C991.973,380.498 989.338,379.686 987.192,378.061 C985.171,376.3 984.161,374.087 984.161,371.42 C984.161,367.055 986.473,362.889 991.098,358.92 C995.723,354.951 1000.73,352.967 1006.13,352.967"/>
<path class="Clef" d="M203.623,423.858 L203.623,421.717 C203.56,420.613 203.399,418.889 203.139,416.545 C199.889,417.066 196.993,417.326 194.451,417.326 C185.337,417.326 177.605,413.727 171.256,406.529 C164.907,399.331 161.732,390.753 161.732,380.795 C161.732,378.128 162.253,374.923 163.295,371.178 C164.337,367.433 165.297,364.925 166.178,363.654 C167.058,362.384 168.378,360.154 170.139,356.967 C170.659,355.988 172.352,353.837 175.217,350.514 C175.738,349.805 176.193,349.222 176.584,348.764 C176.975,348.305 177.607,347.49 178.482,346.318 C179.357,345.147 180.3,344.055 181.31,343.045 C182.321,342.035 183.217,341.058 183.998,340.115 C184.779,339.173 185.498,338.378 186.154,337.733 C183.81,329.983 182.378,324.024 181.857,319.858 C181.337,315.691 181.076,310.579 181.076,304.522 C181.076,298.464 182.378,292.962 184.982,288.014 C187.514,282.878 191.06,278.68 195.623,275.42 C195.883,275.222 196.225,275.123 196.646,275.123 C197.068,275.123 197.378,275.222 197.576,275.42 C201.087,279.649 204.128,285.149 206.701,291.92 C209.274,298.691 210.56,305.024 210.56,310.92 C210.56,316.816 209.066,322.498 206.076,327.967 C202.691,333.759 198.326,339.748 192.982,345.936 C194.347,350.227 196.17,356.962 198.451,366.139 L199.045,366.139 C199.305,366.076 199.529,366.045 199.717,366.045 C207.081,366.045 213.089,368.634 217.74,373.811 C222.391,378.988 224.717,384.962 224.717,391.733 C224.717,400.128 221.238,406.899 214.279,412.045 C212.258,413.545 209.878,414.717 207.139,415.561 C207.472,419.79 207.639,422.605 207.639,424.006 C207.639,425.407 207.571,427.899 207.435,431.483 C207.373,437.597 205.29,442.837 201.185,447.201 C197.081,451.566 192.394,453.748 187.123,453.748 C181.852,453.748 177.36,451.876 173.646,448.131 C169.933,444.386 168.076,439.847 168.076,434.514 C168.076,431.712 169.154,429.331 171.31,427.373 C173.519,425.425 176.006,424.451 178.771,424.451 C181.537,424.451 183.8,425.462 185.56,427.483 C187.383,429.368 188.295,431.644 188.295,434.311 C188.295,436.977 187.383,439.222 185.56,441.045 C183.738,442.868 181.555,443.779 179.014,443.779 C177.972,443.779 176.967,443.587 175.998,443.201 C178.863,447.43 182.54,449.545 187.029,449.545 C191.519,449.545 195.36,447.691 198.553,443.983 C201.745,440.274 203.342,435.91 203.342,430.889 L203.623,423.858 M206.748,411.561 C210.133,410.321 212.821,408.123 214.81,404.967 C216.8,401.811 217.795,398.67 217.795,395.545 C217.795,390.92 216.199,386.785 213.006,383.139 C209.813,379.493 205.774,377.441 200.889,376.983 C203.691,390.722 205.644,402.248 206.748,411.561 M168.967,388.998 C168.967,395.446 171.537,401.079 176.678,405.897 C181.818,410.714 187.842,413.123 194.748,413.123 C197.477,413.123 200.144,412.925 202.748,412.529 C201.706,402.634 199.654,390.785 196.592,376.983 C192.758,377.378 189.782,378.699 187.662,380.943 C185.542,383.188 184.482,385.743 184.482,388.608 C184.482,393.555 187.123,397.561 192.404,400.623 C192.852,400.884 193.076,401.324 193.076,401.943 C193.076,402.563 192.865,403.1 192.443,403.553 C192.021,404.006 191.649,404.233 191.326,404.233 C191.003,404.233 190.581,404.17 190.06,404.045 C182.435,399.878 178.623,393.592 178.623,385.186 C178.623,381.217 180.024,377.41 182.826,373.764 C185.753,370.118 189.56,367.774 194.248,366.733 C192.425,359.441 190.93,353.743 189.764,349.639 C180.847,359.67 175.31,367.092 173.154,371.904 C170.363,378.154 168.967,383.852 168.967,388.998 M201.576,289.686 C196.691,292.092 192.834,295.574 190.006,300.131 C187.178,304.688 185.764,309.472 185.764,314.483 C185.764,319.493 186.935,325.972 189.279,333.92 C193.967,328.253 197.514,322.946 199.92,317.998 C202.326,313.05 203.529,308.152 203.529,303.303 C203.529,298.454 202.878,293.915 201.576,289.686"/>
<path class="KeySig" d="M272.412,294.764 C273.85,294.368 274.568,294.722 274.568,295.826 L274.568,303.639 C274.568,304.42 273.949,305.04 272.709,305.498 L269.49,306.764 L269.49,320.936 L272.412,319.764 C273.85,319.368 274.568,319.727 274.568,320.842 L274.568,328.654 C274.568,329.436 273.949,330.05 272.709,330.498 L269.49,331.779 L269.49,347.982 C269.49,349.222 269.001,349.842 268.021,349.842 C267.042,349.842 266.553,349.222 266.553,347.982 L266.553,332.951 L257.271,336.654 L257.271,352.764 C257.271,354.003 256.785,354.623 255.811,354.623 C254.837,354.623 254.35,354.003 254.35,352.764 L254.35,337.826 L251.803,338.904 C250.438,339.488 249.756,339.097 249.756,337.732 L249.756,330.014 C249.756,329.368 250.344,328.785 251.521,328.264 L254.35,327.092 L254.35,312.826 L251.803,313.904 C250.438,314.488 249.756,314.097 249.756,312.732 L249.756,305.014 C249.756,304.357 250.344,303.769 251.521,303.248 L254.35,302.076 L254.35,285.967 C254.35,284.727 254.837,284.107 255.811,284.107 C256.785,284.107 257.271,284.727 257.271,285.967 L257.271,300.904 L266.553,297.107 L266.553,281.186 C266.553,279.946 267.042,279.326 268.021,279.326 C269.001,279.326 269.49,279.946 269.49,281.186 L269.49,295.936 L272.412,294.764 M257.271,311.654 L257.271,325.92 L266.553,322.107 L266.553,307.936 L257.271,311.654 "/>
<path class="Articulation" d="M1543.98,407.752 C1543,406.773 1542.51,405.601 1542.51,404.236 C1542.51,402.872 1543,401.7 1543.98,400.721 C1544.96,399.742 1546.13,399.252 1547.49,399.252 C1548.86,399.252 1550.03,399.742 1551.01,400.721 C1551.99,401.7 1552.48,402.872 1552.48,404.236 C1552.48,405.601 1551.99,406.773 1551.01,407.752 C1550.03,408.731 1548.86,409.221 1547.49,409.221 C1546.13,409.221 1544.96,408.731 1543.98,407.752"/>
<path class="Articulation" d="M1349.78,332.744 C1348.8,331.765 1348.31,330.593 1348.31,329.229 C1348.31,327.864 1348.8,326.692 1349.78,325.713 C1350.76,324.734 1351.93,324.244 1353.3,324.244 C1354.66,324.244 1355.83,324.734 1356.81,325.713 C1357.79,326.692 1358.28,327.864 1358.28,329.229 C1358.28,330.593 1357.79,331.765 1356.81,332.744 C1355.83,333.723 1354.66,334.213 1353.3,334.213 C1351.93,334.213 1350.76,333.723 1349.78,332.744"/>
<path class="Articulation" d="M2026.11,432.752 C2025.13,431.773 2024.64,430.601 2024.64,429.236 C2024.64,427.872 2025.13,426.7 2026.11,425.721 C2027.09,424.742 2028.26,424.252 2029.62,424.252 C2030.99,424.252 2032.16,424.742 2033.14,425.721 C2034.12,426.7 2034.61,427.872 2034.61,429.236 C2034.61,430.601 2034.12,431.773 2033.14,432.752 C2032.16,433.731 2030.99,434.221 2029.62,434.221 C2028.26,434.221 2027.09,433.731 2026.11,432.752"/>
<path class="Articulation" d="M1155.58,332.744 C1154.6,331.765 1154.11,330.593 1154.11,329.229 C1154.11,327.864 1154.6,326.692 1155.58,325.713 C1156.56,324.734 1157.73,324.244 1159.1,324.244 C1160.46,324.244 1161.64,324.734 1162.61,325.713 C1163.59,326.692 1164.08,327.864 1164.08,329.229 C1164.08,330.593 1163.59,331.765 1162.61,332.744 C1161.64,333.723 1160.46,334.213 1159.1,334.213 C1157.73,334.213 1156.56,333.723 1155.58,332.744"/>
<path class="Articulation" d="M2220.31,439.006 C2219.33,438.027 2218.84,436.855 2218.84,435.49 C2218.84,434.126 2219.33,432.954 2220.31,431.975 C2221.29,430.996 2222.46,430.506 2223.82,430.506 C2225.19,430.506 2226.36,430.996 2227.34,431.975 C2228.32,432.954 2228.81,434.126 2228.81,435.49 C2228.81,436.855 2228.32,438.027 2227.34,439.006 C2226.36,439.985 2225.19,440.475 2223.82,440.475 C2222.46,440.475 2221.29,439.985 2220.31,439.006"/>
<path class="Beam" fill-rule="evenodd" d="M1754.22,429.226 L1886.94,422.976 L1886.94,435.489 L1754.22,441.739 L1754.22,429.226 "/>
<path class="Beam" fill-rule="evenodd" d="M366.498,341.726 L499.213,335.476 L499.213,347.989 L366.498,354.239 L366.498,341.726 "/>
<path class="Beam" fill-rule="evenodd" d="M625.429,316.726 L758.144,310.476 L758.144,322.989 L625.429,329.239 L625.429,316.726 "/>
<path class="Beam" fill-rule="evenodd" d="M884.36,297.976 L1017.07,291.726 L1017.07,304.239 L884.36,310.489 L884.36,297.976 "/>
<path class="NoteDot" d="M2475.68,383.24 C2474.57,382.131 2474.02,380.795 2474.02,379.233 C2474.02,377.67 2474.57,376.334 2475.68,375.225 C2476.79,374.115 2478.13,373.561 2479.69,373.561 C2481.25,373.561 2482.58,374.115 2483.69,375.225 C2484.79,376.334 2485.34,377.67 2485.34,379.233 C2485.34,380.795 2484.79,382.131 2483.69,383.24 C2482.58,384.35 2481.25,384.904 2479.69,384.904 C2478.13,384.904 2476.79,384.35 2475.68,383.24"/>
<path class="Page" d="M141.953,3976.75 C142.089,3976.14 142.224,3975.61 142.359,3975.15 C142.495,3974.7 142.781,3974.04 143.219,3973.18 C143.656,3972.31 144.148,3971.59 144.695,3971.02 C145.242,3970.45 146.003,3969.93 146.977,3969.48 C147.951,3969.03 149.052,3968.8 150.281,3968.8 C152.354,3968.8 154.104,3969.48 155.531,3970.84 C156.958,3972.2 157.672,3973.87 157.672,3975.86 C157.672,3978.9 155.969,3982.21 152.563,3985.8 L145.844,3992.88 L155.391,3992.88 C156.297,3992.88 156.971,3992.73 157.414,3992.42 C157.857,3992.11 158.453,3991.38 159.203,3990.22 L159.719,3990.43 L157.516,3995.8 L141.922,3995.8 L141.922,3995.33 L149.031,3987.79 C152.5,3984.11 154.234,3980.65 154.234,3977.4 C154.234,3975.71 153.714,3974.34 152.672,3973.29 C151.63,3972.25 150.271,3971.72 148.594,3971.72 C147.208,3971.72 146.096,3972.11 145.258,3972.87 C144.419,3973.64 143.599,3975 142.797,3976.96 L141.953,3976.75 "/>
</svg>
