<?xml version="1.0" encoding="UTF-8" standalone="no"?>
<svg width="2977.2px" height="4208.4px" viewBox="0 0 2977.2 4208.4"
 xmlns="http://www.w3.org/2000/svg" xmlns:xlink="http://www.w3.org/1999/xlink" version="1.2" baseProfile="tiny">
<title>Old_Macdonald.mscx</title>
<desc>Generated by MuseScore Studio 4.3.1</desc>
<path class="" fill="#ffffff" fill-rule="evenodd" d="M0,0 L2977.2,0 L2977.2,4208.4 L0,4208.4 L0,0 "/>
<polyline class="StaffLines" fill="none" stroke="#000000" stroke-width="2.00" stroke-linejoin="bevel" points="141.732,316.732 2835.47,316.732"/>
<polyline class="StaffLines" fill="none" stroke="#000000" stroke-width="2.00" stroke-linejoin="bevel" points="141.732,341.732 2835.47,341.732"/>
<polyline class="StaffLines" fill="none" stroke="#000000" stroke-width="2.00" stroke-linejoin="bevel" points="141.732,366.733 2835.47,366.733"/>
<polyline class="StaffLines" fill="none" stroke="#000000" stroke-width="2.00" stroke-linejoin="bevel" points="141.732,391.733 2835.47,391.733"/>
<polyline class="StaffLines" fill="none" stroke="#000000" stroke-width="2.00" stroke-linejoin="bevel" points="141.732,416.733 2835.47,416.733"/>
<polyline class="StaffLines" fill="none" stroke="#000000" stroke-width="2.00" stroke-linejoin="bevel" points="141.732,791.733 2835.47,791.733"/>
<polyline class="StaffLines" fill="none" stroke="#000000" stroke-width="2.00" stroke-linejoin="bevel" points="141.732,816.733 2835.47,816.733"/>
<polyline class="StaffLines" fill="none" stroke="#000000" stroke-width="2.00" stroke-linejoin="bevel" points="141.732,841.733 2835.47,841.733"/>
<polyline class="StaffLines" fill="none" stroke="#000000" stroke-width="2.00" stroke-linejoin="bevel" points="141.732,866.733 2835.47,866.733"/>
<polyline class="StaffLines" fill="none" stroke="#000000" stroke-width="2.00" stroke-linejoin="bevel" points="141.732,891.733 2835.47,891.733"/>
<polyline class="StaffLines" fill="none" stroke="#000000" stroke-width="2.00" stroke-linejoin="bevel" points="141.732,1266.73 2835.47,1266.73"/>
<polyline class="StaffLines" fill="none" stroke="#000000" stroke-width="2.00" stroke-linejoin="bevel" points="141.732,1291.73 2835.47,1291.73"/>
<polyline class="StaffLines" fill="none" stroke="#000000" stroke-width="2.00" stroke-linejoin="bevel" points="141.732,1316.73 2835.47,1316.73"/>
<polyline class="StaffLines" fill="none" stroke="#000000" stroke-width="2.00" stroke-linejoin="bevel" points="141.732,1341.73 2835.47,1341.73"/>
<polyline class="StaffLines" fill="none" stroke="#000000" stroke-width="2.00" stroke-linejoin="bevel" points="141.732,1366.73 2835.47,1366.73"/>
<polyline class="StaffLines" fill="none" stroke="#000000" stroke-width="2.00" stroke-linejoin="bevel" points="141.732,1741.73 2835.47,1741.73"/>
<polyline class="StaffLines" fill="none" stroke="#000000" stroke-width="2.00" stroke-linejoin="bevel" points="141.732,1766.73 2835.47,1766.73"/>
<polyline class="StaffLines" fill="none" stroke="#000000" stroke-width="2.00" stroke-linejoin="bevel" points="141.732,1791.73 2835.47,1791.73"/>
<polyline class="StaffLines" fill="none" stroke="#000000" stroke-width="2.00" stroke-linejoin="bevel" points="141.732,1816.73 2835.47,1816.73"/>
<polyline class="StaffLines" fill="none" stroke="#000000" stroke-width="2.00" stroke-linejoin="bevel" points="141.732,1841.73 2835.47,1841.73"/>
<path class="MeasureNumber" d="M146.514,733.873 C146.514,732.446 146.199,731.181 145.568,730.076 C144.938,728.972 144.178,728.118 143.287,727.514 C142.396,726.91 141.399,726.412 140.295,726.022 C139.191,725.631 138.23,725.376 137.412,725.256 C136.594,725.136 135.883,725.076 135.279,725.076 C134.956,725.076 134.795,724.967 134.795,724.748 C134.795,724.675 134.805,724.613 134.826,724.561 L139.185,715.264 L147.545,715.264 C147.972,715.264 148.313,715.196 148.568,715.061 C148.824,714.925 149.097,714.644 149.389,714.217 L149.748,714.498 L148.232,717.842 C148.128,718.061 147.821,718.17 147.31,718.17 L139.467,718.17 L137.795,721.608 C141.68,722.306 144.571,723.441 146.467,725.014 C148.363,726.587 149.31,728.894 149.31,731.936 C149.31,733.53 149.063,734.946 148.568,736.186 C148.074,737.425 147.446,738.423 146.685,739.178 C145.925,739.933 145.045,740.553 144.045,741.037 C143.045,741.522 142.087,741.853 141.17,742.03 C140.253,742.207 139.326,742.295 138.389,742.295 C136.899,742.295 135.714,742.074 134.834,741.631 C133.954,741.188 133.514,740.582 133.514,739.811 C133.514,738.821 134.087,738.326 135.232,738.326 C135.982,738.326 136.949,738.735 138.131,739.553 C139.313,740.371 140.253,740.78 140.951,740.78 C142.524,740.78 143.844,740.113 144.912,738.78 C145.98,737.446 146.514,735.811 146.514,733.873"/>
<path class="MeasureNumber" d="M134.092,1217.61 L133.967,1216.81 C137.008,1216.28 139.589,1214.98 141.709,1212.92 C143.829,1210.86 145.3,1208.2 146.123,1204.94 C144.154,1206.48 142.159,1207.25 140.139,1207.25 C137.972,1207.25 136.23,1206.5 134.912,1205.01 C133.594,1203.51 132.935,1201.55 132.935,1199.11 C132.935,1196.4 133.727,1194.14 135.31,1192.33 C136.894,1190.53 138.873,1189.62 141.248,1189.62 C143.831,1189.62 145.951,1190.68 147.607,1192.8 C149.264,1194.91 150.092,1197.63 150.092,1200.95 C150.092,1202.01 149.998,1203.11 149.81,1204.23 C149.623,1205.36 149.188,1206.69 148.506,1208.23 C147.824,1209.76 146.938,1211.14 145.85,1212.35 C144.761,1213.56 143.204,1214.67 141.178,1215.65 C139.152,1216.64 136.79,1217.3 134.092,1217.61 M141.576,1205.5 C142.076,1205.5 142.646,1205.43 143.287,1205.28 C143.928,1205.13 144.576,1204.81 145.232,1204.32 C145.889,1203.82 146.217,1203.22 146.217,1202.5 L146.217,1200.95 C146.217,1194.19 144.456,1190.81 140.935,1190.81 C140.102,1190.81 139.394,1191.03 138.81,1191.48 C138.227,1191.92 137.782,1192.5 137.475,1193.21 C137.167,1193.92 136.946,1194.65 136.81,1195.4 C136.675,1196.14 136.607,1196.93 136.607,1197.76 C136.607,1200.13 137.055,1202.01 137.951,1203.4 C138.847,1204.8 140.055,1205.5 141.576,1205.5"/>
<path class="MeasureNumber" d="M128.045,1668.01 C127.566,1668.01 126.607,1668.31 125.17,1668.89 L125.17,1668.34 L132.373,1664.7 L132.685,1664.78 L132.685,1688.78 C132.685,1689.74 132.925,1690.36 133.404,1690.66 C133.883,1690.95 134.909,1691.11 136.482,1691.14 L136.482,1691.73 L125.451,1691.73 L125.451,1691.14 C126.941,1691.08 127.946,1690.85 128.467,1690.47 C128.988,1690.08 129.248,1689.26 129.248,1688.01 L129.248,1669.89 C129.248,1668.64 128.847,1668.01 128.045,1668.01 M143.951,1688.61 C144.566,1688.61 145.48,1688.97 146.693,1689.69 C147.907,1690.42 148.967,1690.78 149.873,1690.78 C151.342,1690.78 152.581,1690.21 153.592,1689.07 C154.602,1687.93 155.107,1686.53 155.107,1684.86 C155.107,1683.82 154.928,1682.9 154.568,1682.11 C154.209,1681.32 153.751,1680.7 153.193,1680.26 C152.636,1679.83 151.969,1679.47 151.193,1679.19 C150.417,1678.92 149.691,1678.74 149.014,1678.66 C148.337,1678.57 147.613,1678.53 146.842,1678.53 L146.842,1678.01 C147.748,1677.69 148.527,1677.38 149.178,1677.07 C149.829,1676.76 150.514,1676.35 151.232,1675.83 C151.951,1675.32 152.506,1674.69 152.896,1673.94 C153.287,1673.19 153.482,1672.33 153.482,1671.37 C153.482,1670.12 153.074,1669.1 152.256,1668.3 C151.438,1667.49 150.378,1667.09 149.076,1667.09 C147.826,1667.09 146.727,1667.43 145.779,1668.12 C144.831,1668.8 143.946,1669.87 143.123,1671.34 L142.514,1671.17 C143.212,1669.29 144.154,1667.74 145.342,1666.52 C146.529,1665.31 148.212,1664.7 150.389,1664.7 C152.232,1664.7 153.735,1665.21 154.896,1666.22 C156.058,1667.23 156.639,1668.55 156.639,1670.17 C156.639,1671.26 156.357,1672.23 155.795,1673.05 C155.232,1673.88 154.258,1674.76 152.873,1675.7 C154.477,1676.39 155.732,1677.27 156.639,1678.34 C157.545,1679.42 157.998,1680.95 157.998,1682.95 C157.998,1685.79 156.951,1688.05 154.857,1689.75 C152.764,1691.45 150.128,1692.3 146.951,1692.3 C145.566,1692.3 144.467,1692.09 143.654,1691.67 C142.842,1691.25 142.435,1690.7 142.435,1690.01 C142.435,1689.59 142.576,1689.25 142.857,1688.99 C143.139,1688.74 143.503,1688.61 143.951,1688.61"/>
<polyline class="BarLine" fill="none" stroke="#000000" stroke-width="4.00" stroke-linejoin="bevel" points="2149.4,1265.73 2149.4,1367.73"/>
<polyline class="BarLine" fill="none" stroke="#000000" stroke-width="4.00" stroke-linejoin="bevel" points="2253.79,315.732 2253.79,417.733"/>
<polyline class="BarLine" fill="none" stroke="#000000" stroke-width="4.00" stroke-linejoin="bevel" points="2833.47,315.732 2833.47,417.733"/>
<polyline class="BarLine" fill="none" stroke="#000000" stroke-width="4.00" stroke-linejoin="bevel" points="2289.92,1740.73 2289.92,1842.73"/>
<polyline class="BarLine" fill="none" stroke="#000000" stroke-width="4.00" stroke-linejoin="bevel" points="1596.48,315.732 1596.48,417.733"/>
<polyline class="BarLine" fill="none" stroke="#000000" stroke-width="4.00" stroke-linejoin="bevel" points="1465.33,1265.73 1465.33,1367.73"/>
<polyline class="BarLine" fill="none" stroke="#000000" stroke-width="4.00" stroke-linejoin="bevel" points="2833.47,1265.73 2833.47,1367.73"/>
<polyline class="BarLine" fill="none" stroke="#000000" stroke-width="4.00" stroke-linejoin="bevel" points="945.027,1265.73 945.027,1367.73"/>
<polyline class="BarLine" fill="none" stroke="#000000" stroke-width="4.00" stroke-linejoin="bevel" points="951.277,790.733 951.277,892.733"/>
<polyline class="BarLine" fill="none" stroke="#000000" stroke-width="4.00" stroke-linejoin="bevel" points="1017.7,315.732 1017.7,417.733"/>
<polyline class="BarLine" fill="none" stroke="#000000" stroke-width="4.00" stroke-linejoin="bevel" points="1595.21,1740.73 1595.21,1842.73"/>
<polyline class="BarLine" fill="none" stroke="#000000" stroke-width="4.00" stroke-linejoin="bevel" points="1534.4,790.733 1534.4,892.733"/>
<polyline class="BarLine" fill="none" stroke="#000000" stroke-width="4.00" stroke-linejoin="bevel" points="983.711,1740.73 983.711,1842.73"/>
<polyline class="BarLine" fill="none" stroke="#000000" stroke-width="4.00" stroke-linejoin="bevel" points="2833.47,790.733 2833.47,892.733"/>
<polyline class="BarLine" fill="none" stroke="#000000" stroke-width="4.00" stroke-linejoin="bevel" points="2802.72,1740.73 2802.72,1842.73"/>
<polyline class="BarLine" fill="none" stroke="#000000" stroke-width="12.50" stroke-linejoin="bevel" points="2829.22,1740.73 2829.22,1842.73"/>
<polyline class="BarLine" fill="none" stroke="#000000" stroke-width="4.00" stroke-linejoin="bevel" points="2196.67,790.733 2196.67,892.733"/>
<polyline class="LedgerLine" fill="none" stroke="#000000" stroke-width="4.00" stroke-linejoin="bevel" points="1612.71,1716.73 1664.62,1716.73"/>
<polyline class="LedgerLine" fill="none" stroke="#000000" stroke-width="4.00" stroke-linejoin="bevel" points="1613.98,291.732 1665.89,291.732"/>
<polyline class="LedgerLine" fill="none" stroke="#000000" stroke-width="4.00" stroke-linejoin="bevel" points="1771.06,291.732 1822.97,291.732"/>
<polyline class="LedgerLine" fill="none" stroke="#000000" stroke-width="4.00" stroke-linejoin="bevel" points="1710.22,766.733 1762.13,766.733"/>
<polyline class="LedgerLine" fill="none" stroke="#000000" stroke-width="4.00" stroke-linejoin="bevel" points="1779.14,1716.73 1831.05,1716.73"/>
<polyline class="LedgerLine" fill="none" stroke="#000000" stroke-width="4.00" stroke-linejoin="bevel" points="1551.9,766.733 1603.81,766.733"/>
<polyline class="Stem" fill="none" stroke="#000000" stroke-width="3.25" stroke-linejoin="bevel" points="757.489,1310.1 757.489,1372.98"/>
<polyline class="Stem" fill="none" stroke="#000000" stroke-width="3.25" stroke-linejoin="bevel" points="1623.84,1722.6 1623.84,1804.23"/>
<polyline class="Stem" fill="none" stroke="#000000" stroke-width="3.25" stroke-linejoin="bevel" points="617.117,1272.6 617.117,1354.23"/>
<polyline class="Stem" fill="none" stroke="#000000" stroke-width="3.25" stroke-linejoin="bevel" points="476.745,1272.6 476.745,1354.23"/>
<polyline class="Stem" fill="none" stroke="#000000" stroke-width="3.25" stroke-linejoin="bevel" points="336.373,1272.6 336.373,1354.23"/>
<polyline class="Stem" fill="none" stroke="#000000" stroke-width="3.25" stroke-linejoin="bevel" points="484.051,1747.6 484.051,1829.23"/>
<polyline class="Stem" fill="none" stroke="#000000" stroke-width="3.25" stroke-linejoin="bevel" points="650.48,1747.6 650.48,1829.23"/>
<polyline class="Stem" fill="none" stroke="#000000" stroke-width="3.25" stroke-linejoin="bevel" points="816.908,1785.1 816.908,1860.48"/>
<polyline class="Stem" fill="none" stroke="#000000" stroke-width="3.25" stroke-linejoin="bevel" points="2178.02,1272.6 2178.02,1341.73"/>
<polyline class="Stem" fill="none" stroke="#000000" stroke-width="3.25" stroke-linejoin="bevel" points="1012.34,1772.6 1012.34,1854.23"/>
<polyline class="Stem" fill="none" stroke="#000000" stroke-width="3.25" stroke-linejoin="bevel" points="2727.55,835.102 2727.55,897.983"/>
<polyline class="Stem" fill="none" stroke="#000000" stroke-width="3.25" stroke-linejoin="bevel" points="1956.69,1735.1 1956.69,1816.73"/>
<polyline class="Stem" fill="none" stroke="#000000" stroke-width="3.25" stroke-linejoin="bevel" points="2622,835.102 2622,897.983"/>
<polyline class="Stem" fill="none" stroke="#000000" stroke-width="3.25" stroke-linejoin="bevel" points="2225.3,796.633 2225.3,879.233"/>
<polyline class="Stem" fill="none" stroke="#000000" stroke-width="3.25" stroke-linejoin="bevel" points="1178.76,1772.6 1178.76,1854.23"/>
<polyline class="Stem" fill="none" stroke="#000000" stroke-width="3.25" stroke-linejoin="bevel" points="2458.77,1272.6 2458.77,1341.73"/>
<polyline class="Stem" fill="none" stroke="#000000" stroke-width="3.25" stroke-linejoin="bevel" points="1821.49,1272.6 1821.49,1341.73"/>
<polyline class="Stem" fill="none" stroke="#000000" stroke-width="3.25" stroke-linejoin="bevel" points="1344.29,1784.13 1344.29,1860.48"/>
<polyline class="Stem" fill="none" stroke="#000000" stroke-width="3.25" stroke-linejoin="bevel" points="1681.12,1272.6 1681.12,1354.23"/>
<polyline class="Stem" fill="none" stroke="#000000" stroke-width="3.25" stroke-linejoin="bevel" points="1587.54,1272.6 1587.54,1341.73"/>
<polyline class="Stem" fill="none" stroke="#000000" stroke-width="3.25" stroke-linejoin="bevel" points="2271.61,1272.6 2271.61,1341.73"/>
<polyline class="Stem" fill="none" stroke="#000000" stroke-width="3.25" stroke-linejoin="bevel" points="2365.19,1272.6 2365.19,1341.73"/>
<polyline class="Stem" fill="none" stroke="#000000" stroke-width="3.25" stroke-linejoin="bevel" points="1915.07,1272.6 1915.07,1341.73"/>
<polyline class="Stem" fill="none" stroke="#000000" stroke-width="3.25" stroke-linejoin="bevel" points="1493.95,1272.6 1493.95,1341.73"/>
<polyline class="Stem" fill="none" stroke="#000000" stroke-width="3.25" stroke-linejoin="bevel" points="1790.26,1722.6 1790.26,1804.23"/>
<polyline class="Stem" fill="none" stroke="#000000" stroke-width="3.25" stroke-linejoin="bevel" points="2552.35,1272.6 2552.35,1354.23"/>
<polyline class="Stem" fill="none" stroke="#000000" stroke-width="3.25" stroke-linejoin="bevel" points="1253.49,1271.63 1253.49,1354.23"/>
<polyline class="Stem" fill="none" stroke="#000000" stroke-width="3.25" stroke-linejoin="bevel" points="1114.02,1272.6 1114.02,1354.23"/>
<polyline class="Stem" fill="none" stroke="#000000" stroke-width="3.25" stroke-linejoin="bevel" points="973.652,1272.6 973.652,1354.23"/>
<polyline class="Stem" fill="none" stroke="#000000" stroke-width="3.25" stroke-linejoin="bevel" points="2692.72,1272.6 2692.72,1354.23"/>
<polyline class="Stem" fill="none" stroke="#000000" stroke-width="3.25" stroke-linejoin="bevel" points="851.071,1310.1 851.071,1372.98"/>
<polyline class="Stem" fill="none" stroke="#000000" stroke-width="3.25" stroke-linejoin="bevel" points="2008.65,1272.6 2008.65,1354.23"/>
<polyline class="Stem" fill="none" stroke="#000000" stroke-width="3.25" stroke-linejoin="bevel" points="317.623,1747.6 317.623,1829.23"/>
<polyline class="Stem" fill="none" stroke="#000000" stroke-width="3.25" stroke-linejoin="bevel" points="317.623,797.602 317.623,879.233"/>
<polyline class="Stem" fill="none" stroke="#000000" stroke-width="3.25" stroke-linejoin="bevel" points="1138.22,822.602 1138.22,904.233"/>
<polyline class="Stem" fill="none" stroke="#000000" stroke-width="3.25" stroke-linejoin="bevel" points="860.249,360.102 860.249,435.483"/>
<polyline class="Stem" fill="none" stroke="#000000" stroke-width="3.25" stroke-linejoin="bevel" points="979.902,822.602 979.902,904.233"/>
<polyline class="Stem" fill="none" stroke="#000000" stroke-width="3.25" stroke-linejoin="bevel" points="792.582,835.102 792.582,910.483"/>
<polyline class="Stem" fill="none" stroke="#000000" stroke-width="3.25" stroke-linejoin="bevel" points="634.262,797.602 634.262,879.233"/>
<polyline class="Stem" fill="none" stroke="#000000" stroke-width="3.25" stroke-linejoin="bevel" points="1203.41,347.602 1203.41,429.233"/>
<polyline class="Stem" fill="none" stroke="#000000" stroke-width="3.25" stroke-linejoin="bevel" points="475.943,797.602 475.943,879.233"/>
<polyline class="Stem" fill="none" stroke="#000000" stroke-width="3.25" stroke-linejoin="bevel" points="1359.58,359.132 1359.58,435.483"/>
<polyline class="Stem" fill="none" stroke="#000000" stroke-width="3.25" stroke-linejoin="bevel" points="1046.33,347.602 1046.33,429.233"/>
<polyline class="Stem" fill="none" stroke="#000000" stroke-width="3.25" stroke-linejoin="bevel" points="1625.1,297.602 1625.1,379.233"/>
<polyline class="Stem" fill="none" stroke="#000000" stroke-width="3.25" stroke-linejoin="bevel" points="2676.01,360.102 2676.01,435.483"/>
<polyline class="Stem" fill="none" stroke="#000000" stroke-width="3.25" stroke-linejoin="bevel" points="1782.18,297.602 1782.18,379.233"/>
<polyline class="Stem" fill="none" stroke="#000000" stroke-width="3.25" stroke-linejoin="bevel" points="2282.42,321.632 2282.42,404.233"/>
<polyline class="Stem" fill="none" stroke="#000000" stroke-width="3.25" stroke-linejoin="bevel" points="2318.55,1746.63 2318.55,1829.23"/>
<polyline class="Stem" fill="none" stroke="#000000" stroke-width="3.25" stroke-linejoin="bevel" points="1939.26,310.102 1939.26,391.733"/>
<polyline class="Stem" fill="none" stroke="#000000" stroke-width="3.25" stroke-linejoin="bevel" points="2096.34,310.102 2096.34,391.733"/>
<polyline class="Stem" fill="none" stroke="#000000" stroke-width="3.25" stroke-linejoin="bevel" points="546.092,322.602 546.092,404.233"/>
<polyline class="Stem" fill="none" stroke="#000000" stroke-width="3.25" stroke-linejoin="bevel" points="2123.12,1735.1 2123.12,1816.73"/>
<polyline class="Stem" fill="none" stroke="#000000" stroke-width="3.25" stroke-linejoin="bevel" points="2037.98,785.102 2037.98,866.733"/>
<polyline class="Stem" fill="none" stroke="#000000" stroke-width="3.25" stroke-linejoin="bevel" points="389.014,322.602 389.014,404.233"/>
<polyline class="Stem" fill="none" stroke="#000000" stroke-width="3.25" stroke-linejoin="bevel" points="1879.66,785.102 1879.66,866.733"/>
<polyline class="Stem" fill="none" stroke="#000000" stroke-width="3.25" stroke-linejoin="bevel" points="1721.34,772.602 1721.34,854.233"/>
<polyline class="Stem" fill="none" stroke="#000000" stroke-width="3.25" stroke-linejoin="bevel" points="1563.02,772.602 1563.02,854.233"/>
<polyline class="Stem" fill="none" stroke="#000000" stroke-width="3.25" stroke-linejoin="bevel" points="703.171,322.602 703.171,404.233"/>
<polyline class="Stem" fill="none" stroke="#000000" stroke-width="3.25" stroke-linejoin="bevel" points="1295.64,834.133 1295.64,910.483"/>
<path class="Note" d="M1365.38,364.873 C1367.26,364.873 1371.22,362.92 1377.25,359.014 C1383.27,355.107 1386.82,352.488 1387.89,351.154 C1388.97,349.821 1389.5,348.634 1389.5,347.592 C1389.5,346.55 1389.08,345.623 1388.23,344.811 C1387.38,343.998 1386.41,343.592 1385.3,343.592 C1383.35,343.592 1379.37,345.561 1373.34,349.498 C1367.31,353.436 1363.78,356.055 1362.74,357.357 C1361.7,358.66 1361.18,359.831 1361.18,360.873 C1361.18,361.915 1361.58,362.842 1362.4,363.654 C1363.22,364.467 1364.21,364.873 1365.38,364.873 M1384.33,340.467 C1389.93,340.467 1392.72,342.873 1392.72,347.686 C1392.72,350.029 1392.04,352.748 1390.68,355.842 C1389.31,358.936 1387.49,361.295 1385.21,362.92 C1380.2,366.305 1373.92,367.998 1366.36,367.998 C1360.76,367.998 1357.96,365.592 1357.96,360.779 C1357.96,358.634 1358.62,355.964 1359.96,352.772 C1361.29,349.579 1363.13,347.17 1365.47,345.545 C1370.49,342.16 1376.78,340.467 1384.33,340.467"/>
<path class="Note" d="M723.514,302.967 C726.639,302.967 729.244,303.748 731.327,305.311 C733.41,306.873 734.452,309.118 734.452,312.045 C734.452,316.535 732.126,320.732 727.475,324.639 C722.824,328.545 717.827,330.498 712.483,330.498 C709.358,330.498 706.723,329.686 704.577,328.061 C702.556,326.3 701.546,324.087 701.546,321.42 C701.546,317.055 703.858,312.889 708.483,308.92 C713.108,304.951 718.119,302.967 723.514,302.967"/>
<path class="Note" d="M1959.6,290.467 C1962.73,290.467 1965.33,291.248 1967.42,292.811 C1969.5,294.373 1970.54,296.618 1970.54,299.545 C1970.54,304.035 1968.22,308.232 1963.56,312.139 C1958.91,316.045 1953.92,317.998 1948.57,317.998 C1945.45,317.998 1942.81,317.186 1940.67,315.561 C1938.64,313.8 1937.63,311.587 1937.63,308.92 C1937.63,304.555 1939.95,300.389 1944.57,296.42 C1949.2,292.451 1954.21,290.467 1959.6,290.467"/>
<path class="Note" d="M1802.52,277.967 C1805.65,277.967 1808.25,278.748 1810.34,280.311 C1812.42,281.873 1813.46,284.118 1813.46,287.045 C1813.46,291.535 1811.14,295.732 1806.49,299.639 C1801.83,303.545 1796.84,305.498 1791.49,305.498 C1788.37,305.498 1785.73,304.686 1783.59,303.061 C1781.57,301.3 1780.56,299.087 1780.56,296.42 C1780.56,292.055 1782.87,287.889 1787.49,283.92 C1792.12,279.951 1797.13,277.967 1802.52,277.967"/>
<path class="Note" d="M1199.11,1752.97 C1202.23,1752.97 1204.84,1753.75 1206.92,1755.31 C1209,1756.87 1210.05,1759.12 1210.05,1762.05 C1210.05,1766.54 1207.72,1770.73 1203.07,1774.64 C1198.42,1778.55 1193.42,1780.5 1188.08,1780.5 C1184.95,1780.5 1182.32,1779.69 1180.17,1778.06 C1178.15,1776.3 1177.14,1774.09 1177.14,1771.42 C1177.14,1767.06 1179.45,1762.89 1184.08,1758.92 C1188.7,1754.95 1193.71,1752.97 1199.11,1752.97"/>
<path class="Note" d="M2324.35,1752.37 C2326.23,1752.37 2330.19,1750.42 2336.21,1746.51 C2342.24,1742.61 2345.79,1739.99 2346.86,1738.66 C2347.93,1737.32 2348.47,1736.13 2348.47,1735.09 C2348.47,1734.05 2348.05,1733.12 2347.2,1732.31 C2346.35,1731.5 2345.37,1731.09 2344.27,1731.09 C2342.32,1731.09 2338.33,1733.06 2332.31,1737 C2326.28,1740.94 2322.75,1743.56 2321.7,1744.86 C2320.66,1746.16 2320.14,1747.33 2320.14,1748.37 C2320.14,1749.42 2320.55,1750.34 2321.37,1751.16 C2322.19,1751.97 2323.18,1752.37 2324.35,1752.37 M2343.3,1727.97 C2348.89,1727.97 2351.69,1730.37 2351.69,1735.19 C2351.69,1737.53 2351.01,1740.25 2349.64,1743.34 C2348.28,1746.44 2346.45,1748.8 2344.17,1750.42 C2339.16,1753.81 2332.88,1755.5 2325.33,1755.5 C2319.73,1755.5 2316.92,1753.09 2316.92,1748.28 C2316.92,1746.13 2317.59,1743.47 2318.92,1740.27 C2320.26,1737.08 2322.1,1734.67 2324.44,1733.05 C2329.46,1729.66 2335.75,1727.97 2343.3,1727.97"/>
<path class="Note" d="M2198.37,1252.97 C2201.49,1252.97 2204.1,1253.75 2206.18,1255.31 C2208.26,1256.87 2209.31,1259.12 2209.31,1262.05 C2209.31,1266.54 2206.98,1270.73 2202.33,1274.64 C2197.68,1278.55 2192.68,1280.5 2187.34,1280.5 C2184.21,1280.5 2181.58,1279.69 2179.43,1278.06 C2177.41,1276.3 2176.4,1274.09 2176.4,1271.42 C2176.4,1267.06 2178.71,1262.89 2183.34,1258.92 C2187.96,1254.95 2192.97,1252.97 2198.37,1252.97"/>
<path class="Note" d="M1032.68,1752.97 C1035.8,1752.97 1038.41,1753.75 1040.49,1755.31 C1042.58,1756.87 1043.62,1759.12 1043.62,1762.05 C1043.62,1766.54 1041.29,1770.73 1036.64,1774.64 C1031.99,1778.55 1026.99,1780.5 1021.65,1780.5 C1018.52,1780.5 1015.89,1779.69 1013.74,1778.06 C1011.72,1776.3 1010.71,1774.09 1010.71,1771.42 C1010.71,1767.06 1013.02,1762.89 1017.65,1758.92 C1022.27,1754.95 1027.28,1752.97 1032.68,1752.97"/>
<path class="Note" d="M1645.45,277.967 C1648.57,277.967 1651.18,278.748 1653.26,280.311 C1655.34,281.873 1656.38,284.118 1656.38,287.045 C1656.38,291.535 1654.06,295.732 1649.41,299.639 C1644.76,303.545 1639.76,305.498 1634.41,305.498 C1631.29,305.498 1628.65,304.686 1626.51,303.061 C1624.49,301.3 1623.48,299.087 1623.48,296.42 C1623.48,292.055 1625.79,287.889 1630.41,283.92 C1635.04,279.951 1640.05,277.967 1645.45,277.967"/>
<path class="Note" d="M337.967,1727.97 C341.092,1727.97 343.696,1728.75 345.779,1730.31 C347.863,1731.87 348.904,1734.12 348.904,1737.05 C348.904,1741.54 346.579,1745.73 341.928,1749.64 C337.277,1753.55 332.279,1755.5 326.936,1755.5 C323.811,1755.5 321.175,1754.69 319.029,1753.06 C317.009,1751.3 315.998,1749.09 315.998,1746.42 C315.998,1742.06 318.311,1737.89 322.936,1733.92 C327.561,1729.95 332.571,1727.97 337.967,1727.97"/>
<path class="Note" d="M2291.95,1252.97 C2295.07,1252.97 2297.68,1253.75 2299.76,1255.31 C2301.84,1256.87 2302.89,1259.12 2302.89,1262.05 C2302.89,1266.54 2300.56,1270.73 2295.91,1274.64 C2291.26,1278.55 2286.26,1280.5 2280.92,1280.5 C2277.79,1280.5 2275.16,1279.69 2273.01,1278.06 C2270.99,1276.3 2269.98,1274.09 2269.98,1271.42 C2269.98,1267.06 2272.29,1262.89 2276.92,1258.92 C2281.54,1254.95 2286.55,1252.97 2291.95,1252.97"/>
<path class="Note" d="M2385.53,1252.97 C2388.66,1252.97 2391.26,1253.75 2393.34,1255.31 C2395.43,1256.87 2396.47,1259.12 2396.47,1262.05 C2396.47,1266.54 2394.14,1270.73 2389.49,1274.64 C2384.84,1278.55 2379.84,1280.5 2374.5,1280.5 C2371.37,1280.5 2368.74,1279.69 2366.59,1278.06 C2364.57,1276.3 2363.56,1274.09 2363.56,1271.42 C2363.56,1267.06 2365.87,1262.89 2370.5,1258.92 C2375.12,1254.95 2380.13,1252.97 2385.53,1252.97"/>
<path class="Note" d="M880.593,340.467 C883.718,340.467 886.322,341.248 888.405,342.811 C890.489,344.373 891.53,346.618 891.53,349.545 C891.53,354.035 889.205,358.232 884.554,362.139 C879.903,366.045 874.905,367.998 869.562,367.998 C866.437,367.998 863.801,367.186 861.655,365.561 C859.635,363.8 858.624,361.587 858.624,358.92 C858.624,354.555 860.937,350.389 865.562,346.42 C870.187,342.451 875.197,340.467 880.593,340.467"/>
<path class="Note" d="M2479.11,1252.97 C2482.24,1252.97 2484.84,1253.75 2486.92,1255.31 C2489.01,1256.87 2490.05,1259.12 2490.05,1262.05 C2490.05,1266.54 2487.72,1270.73 2483.07,1274.64 C2478.42,1278.55 2473.42,1280.5 2468.08,1280.5 C2464.96,1280.5 2462.32,1279.69 2460.17,1278.06 C2458.15,1276.3 2457.14,1274.09 2457.14,1271.42 C2457.14,1267.06 2459.46,1262.89 2464.08,1258.92 C2468.71,1254.95 2473.72,1252.97 2479.11,1252.97"/>
<path class="Note" d="M409.358,302.967 C412.483,302.967 415.087,303.748 417.17,305.311 C419.253,306.873 420.295,309.118 420.295,312.045 C420.295,316.535 417.969,320.732 413.318,324.639 C408.667,328.545 403.67,330.498 398.326,330.498 C395.201,330.498 392.566,329.686 390.42,328.061 C388.399,326.3 387.389,324.087 387.389,321.42 C387.389,317.055 389.701,312.889 394.326,308.92 C398.951,304.951 403.962,302.967 409.358,302.967"/>
<path class="Note" d="M504.395,1727.97 C507.52,1727.97 510.124,1728.75 512.208,1730.31 C514.291,1731.87 515.333,1734.12 515.333,1737.05 C515.333,1741.54 513.007,1745.73 508.356,1749.64 C503.705,1753.55 498.708,1755.5 493.364,1755.5 C490.239,1755.5 487.603,1754.69 485.458,1753.06 C483.437,1751.3 482.426,1749.09 482.426,1746.42 C482.426,1742.06 484.739,1737.89 489.364,1733.92 C493.989,1729.95 498.999,1727.97 504.395,1727.97"/>
<path class="Note" d="M2572.69,1252.97 C2575.82,1252.97 2578.42,1253.75 2580.51,1255.31 C2582.59,1256.87 2583.63,1259.12 2583.63,1262.05 C2583.63,1266.54 2581.3,1270.73 2576.65,1274.64 C2572,1278.55 2567.01,1280.5 2561.66,1280.5 C2558.54,1280.5 2555.9,1279.69 2553.76,1278.06 C2551.73,1276.3 2550.72,1274.09 2550.72,1271.42 C2550.72,1267.06 2553.04,1262.89 2557.66,1258.92 C2562.29,1254.95 2567.3,1252.97 2572.69,1252.97"/>
<path class="Note" d="M1350.09,1789.87 C1351.97,1789.87 1355.93,1787.92 1361.95,1784.01 C1367.98,1780.11 1371.53,1777.49 1372.6,1776.16 C1373.68,1774.82 1374.21,1773.63 1374.21,1772.59 C1374.21,1771.55 1373.79,1770.62 1372.94,1769.81 C1372.09,1769 1371.11,1768.59 1370.01,1768.59 C1368.06,1768.59 1364.07,1770.56 1358.05,1774.5 C1352.02,1778.44 1348.49,1781.06 1347.45,1782.36 C1346.4,1783.66 1345.88,1784.83 1345.88,1785.87 C1345.88,1786.92 1346.29,1787.84 1347.11,1788.66 C1347.93,1789.47 1348.92,1789.87 1350.09,1789.87 M1369.04,1765.47 C1374.63,1765.47 1377.43,1767.87 1377.43,1772.69 C1377.43,1775.03 1376.75,1777.75 1375.38,1780.84 C1374.02,1783.94 1372.2,1786.3 1369.92,1787.92 C1364.9,1791.31 1358.62,1793 1351.07,1793 C1345.47,1793 1342.67,1790.59 1342.67,1785.78 C1342.67,1783.63 1343.33,1780.97 1344.67,1777.77 C1346,1774.58 1347.84,1772.17 1350.18,1770.55 C1355.2,1767.16 1361.49,1765.47 1369.04,1765.47"/>
<path class="Note" d="M1223.75,327.967 C1226.87,327.967 1229.48,328.748 1231.56,330.311 C1233.65,331.873 1234.69,334.118 1234.69,337.045 C1234.69,341.535 1232.36,345.732 1227.71,349.639 C1223.06,353.545 1218.06,355.498 1212.72,355.498 C1209.59,355.498 1206.96,354.686 1204.81,353.061 C1202.79,351.3 1201.78,349.087 1201.78,346.42 C1201.78,342.055 1204.09,337.889 1208.72,333.92 C1213.34,329.951 1218.35,327.967 1223.75,327.967"/>
<path class="Note" d="M2713.07,1252.97 C2716.19,1252.97 2718.79,1253.75 2720.88,1255.31 C2722.96,1256.87 2724,1259.12 2724,1262.05 C2724,1266.54 2721.68,1270.73 2717.03,1274.64 C2712.37,1278.55 2707.38,1280.5 2702.03,1280.5 C2698.91,1280.5 2696.27,1279.69 2694.13,1278.06 C2692.11,1276.3 2691.1,1274.09 2691.1,1271.42 C2691.1,1267.06 2693.41,1262.89 2698.03,1258.92 C2702.66,1254.95 2707.67,1252.97 2713.07,1252.97"/>
<path class="Note" d="M837.252,1765.47 C840.377,1765.47 842.981,1766.25 845.064,1767.81 C847.147,1769.37 848.189,1771.62 848.189,1774.55 C848.189,1779.04 845.864,1783.23 841.213,1787.14 C836.562,1791.05 831.564,1793 826.22,1793 C823.095,1793 820.46,1792.19 818.314,1790.56 C816.293,1788.8 815.283,1786.59 815.283,1783.92 C815.283,1779.56 817.595,1775.39 822.22,1771.42 C826.845,1767.45 831.856,1765.47 837.252,1765.47"/>
<path class="Note" d="M670.823,1727.97 C673.948,1727.97 676.553,1728.75 678.636,1730.31 C680.719,1731.87 681.761,1734.12 681.761,1737.05 C681.761,1741.54 679.435,1745.73 674.784,1749.64 C670.133,1753.55 665.136,1755.5 659.792,1755.5 C656.667,1755.5 654.032,1754.69 651.886,1753.06 C649.865,1751.3 648.855,1749.09 648.855,1746.42 C648.855,1742.06 651.167,1737.89 655.792,1733.92 C660.417,1729.95 665.428,1727.97 670.823,1727.97"/>
<path class="Note" d="M1066.67,327.967 C1069.8,327.967 1072.4,328.748 1074.48,330.311 C1076.57,331.873 1077.61,334.118 1077.61,337.045 C1077.61,341.535 1075.28,345.732 1070.63,349.639 C1065.98,353.545 1060.98,355.498 1055.64,355.498 C1052.52,355.498 1049.88,354.686 1047.73,353.061 C1045.71,351.3 1044.7,349.087 1044.7,346.42 C1044.7,342.055 1047.02,337.889 1051.64,333.92 C1056.27,329.951 1061.28,327.967 1066.67,327.967"/>
<path class="Note" d="M566.436,302.967 C569.561,302.967 572.165,303.748 574.248,305.311 C576.332,306.873 577.373,309.118 577.373,312.045 C577.373,316.535 575.048,320.732 570.397,324.639 C565.746,328.545 560.748,330.498 555.405,330.498 C552.28,330.498 549.644,329.686 547.498,328.061 C545.478,326.3 544.467,324.087 544.467,321.42 C544.467,317.055 546.78,312.889 551.405,308.92 C556.03,304.951 561.04,302.967 566.436,302.967"/>
<path class="Note" d="M2058.32,765.467 C2061.45,765.467 2064.05,766.248 2066.14,767.811 C2068.22,769.373 2069.26,771.618 2069.26,774.545 C2069.26,779.035 2066.94,783.233 2062.28,787.139 C2057.63,791.045 2052.64,792.998 2047.29,792.998 C2044.17,792.998 2041.53,792.186 2039.39,790.561 C2037.36,788.8 2036.35,786.587 2036.35,783.92 C2036.35,779.556 2038.67,775.389 2043.29,771.42 C2047.92,767.452 2052.93,765.467 2058.32,765.467"/>
<path class="Note" d="M1810.61,1702.97 C1813.73,1702.97 1816.34,1703.75 1818.42,1705.31 C1820.5,1706.87 1821.54,1709.12 1821.54,1712.05 C1821.54,1716.54 1819.22,1720.73 1814.57,1724.64 C1809.92,1728.55 1804.92,1730.5 1799.58,1730.5 C1796.45,1730.5 1793.82,1729.69 1791.67,1728.06 C1789.65,1726.3 1788.64,1724.09 1788.64,1721.42 C1788.64,1717.06 1790.95,1712.89 1795.58,1708.92 C1800.2,1704.95 1805.21,1702.97 1810.61,1702.97"/>
<path class="Note" d="M812.926,815.467 C816.051,815.467 818.655,816.248 820.738,817.811 C822.822,819.373 823.863,821.618 823.863,824.545 C823.863,829.035 821.538,833.233 816.887,837.139 C812.236,841.045 807.238,842.998 801.895,842.998 C798.77,842.998 796.134,842.186 793.988,840.561 C791.967,838.801 790.957,836.587 790.957,833.92 C790.957,829.556 793.27,825.389 797.895,821.42 C802.52,817.452 807.53,815.467 812.926,815.467"/>
<path class="Note" d="M777.833,1290.47 C780.958,1290.47 783.562,1291.25 785.646,1292.81 C787.729,1294.37 788.771,1296.62 788.771,1299.55 C788.771,1304.04 786.445,1308.23 781.794,1312.14 C777.143,1316.05 772.146,1318 766.802,1318 C763.677,1318 761.041,1317.19 758.896,1315.56 C756.875,1313.8 755.864,1311.59 755.864,1308.92 C755.864,1304.56 758.177,1300.39 762.802,1296.42 C767.427,1292.45 772.437,1290.47 777.833,1290.47"/>
<path class="Note" d="M1000.25,802.967 C1003.37,802.967 1005.97,803.748 1008.06,805.311 C1010.14,806.873 1011.18,809.118 1011.18,812.045 C1011.18,816.535 1008.86,820.733 1004.21,824.639 C999.555,828.545 994.558,830.498 989.214,830.498 C986.089,830.498 983.454,829.686 981.308,828.061 C979.287,826.3 978.277,824.087 978.277,821.42 C978.277,817.056 980.589,812.889 985.214,808.92 C989.839,804.952 994.85,802.967 1000.25,802.967"/>
<path class="Note" d="M637.461,1252.97 C640.586,1252.97 643.19,1253.75 645.273,1255.31 C647.357,1256.87 648.398,1259.12 648.398,1262.05 C648.398,1266.54 646.073,1270.73 641.422,1274.64 C636.771,1278.55 631.773,1280.5 626.43,1280.5 C623.305,1280.5 620.669,1279.69 618.523,1278.06 C616.503,1276.3 615.492,1274.09 615.492,1271.42 C615.492,1267.06 617.805,1262.89 622.43,1258.92 C627.055,1254.95 632.065,1252.97 637.461,1252.97"/>
<path class="Note" d="M497.089,1252.97 C500.214,1252.97 502.818,1253.75 504.901,1255.31 C506.985,1256.87 508.026,1259.12 508.026,1262.05 C508.026,1266.54 505.701,1270.73 501.05,1274.64 C496.399,1278.55 491.401,1280.5 486.058,1280.5 C482.933,1280.5 480.297,1279.69 478.151,1278.06 C476.131,1276.3 475.12,1274.09 475.12,1271.42 C475.12,1267.06 477.433,1262.89 482.058,1258.92 C486.683,1254.95 491.693,1252.97 497.089,1252.97"/>
<path class="Note" d="M1158.57,802.967 C1161.69,802.967 1164.29,803.748 1166.38,805.311 C1168.46,806.873 1169.5,809.118 1169.5,812.045 C1169.5,816.535 1167.18,820.733 1162.53,824.639 C1157.87,828.545 1152.88,830.498 1147.53,830.498 C1144.41,830.498 1141.77,829.686 1139.63,828.061 C1137.61,826.3 1136.6,824.087 1136.6,821.42 C1136.6,817.056 1138.91,812.889 1143.53,808.92 C1148.16,804.952 1153.17,802.967 1158.57,802.967"/>
<path class="Note" d="M356.717,1252.97 C359.842,1252.97 362.446,1253.75 364.529,1255.31 C366.613,1256.87 367.654,1259.12 367.654,1262.05 C367.654,1266.54 365.329,1270.73 360.678,1274.64 C356.027,1278.55 351.029,1280.5 345.686,1280.5 C342.561,1280.5 339.925,1279.69 337.779,1278.06 C335.759,1276.3 334.748,1274.09 334.748,1271.42 C334.748,1267.06 337.061,1262.89 341.686,1258.92 C346.311,1254.95 351.321,1252.97 356.717,1252.97"/>
<path class="Note" d="M1301.44,839.873 C1303.32,839.873 1307.28,837.92 1313.3,834.014 C1319.33,830.108 1322.88,827.488 1323.95,826.155 C1325.02,824.821 1325.56,823.634 1325.56,822.592 C1325.56,821.551 1325.14,820.623 1324.29,819.811 C1323.44,818.998 1322.46,818.592 1321.36,818.592 C1319.41,818.592 1315.42,820.561 1309.4,824.498 C1303.37,828.436 1299.84,831.056 1298.79,832.358 C1297.75,833.66 1297.23,834.832 1297.23,835.873 C1297.23,836.915 1297.64,837.842 1298.46,838.655 C1299.28,839.467 1300.27,839.873 1301.44,839.873 M1320.39,815.467 C1325.98,815.467 1328.78,817.873 1328.78,822.686 C1328.78,825.03 1328.1,827.748 1326.73,830.842 C1325.37,833.936 1323.54,836.295 1321.26,837.92 C1316.25,841.306 1309.97,842.998 1302.42,842.998 C1296.82,842.998 1294.01,840.592 1294.01,835.78 C1294.01,833.634 1294.68,830.965 1296.01,827.772 C1297.35,824.579 1299.19,822.17 1301.53,820.545 C1306.55,817.16 1312.84,815.467 1320.39,815.467"/>
<path class="Note" d="M2116.68,290.467 C2119.81,290.467 2122.41,291.248 2124.49,292.811 C2126.58,294.373 2127.62,296.618 2127.62,299.545 C2127.62,304.035 2125.29,308.232 2120.64,312.139 C2115.99,316.045 2110.99,317.998 2105.65,317.998 C2102.53,317.998 2099.89,317.186 2097.74,315.561 C2095.72,313.8 2094.71,311.587 2094.71,308.92 C2094.71,304.555 2097.03,300.389 2101.65,296.42 C2106.28,292.451 2111.29,290.467 2116.68,290.467"/>
<path class="Note" d="M1583.36,752.967 C1586.49,752.967 1589.09,753.748 1591.18,755.311 C1593.26,756.873 1594.3,759.118 1594.3,762.045 C1594.3,766.535 1591.98,770.733 1587.33,774.639 C1582.67,778.545 1577.68,780.498 1572.33,780.498 C1569.21,780.498 1566.57,779.686 1564.43,778.061 C1562.41,776.3 1561.4,774.087 1561.4,771.42 C1561.4,767.056 1563.71,762.889 1568.33,758.92 C1572.96,754.952 1577.97,752.967 1583.36,752.967"/>
<path class="Note" d="M2747.89,815.467 C2751.02,815.467 2753.62,816.248 2755.7,817.811 C2757.79,819.373 2758.83,821.618 2758.83,824.545 C2758.83,829.035 2756.5,833.233 2751.85,837.139 C2747.2,841.045 2742.2,842.998 2736.86,842.998 C2733.73,842.998 2731.1,842.186 2728.95,840.561 C2726.93,838.801 2725.92,836.587 2725.92,833.92 C2725.92,829.556 2728.23,825.389 2732.86,821.42 C2737.48,817.452 2742.49,815.467 2747.89,815.467"/>
<path class="Note" d="M1741.68,752.967 C1744.81,752.967 1747.41,753.748 1749.5,755.311 C1751.58,756.873 1752.62,759.118 1752.62,762.045 C1752.62,766.535 1750.3,770.733 1745.64,774.639 C1740.99,778.545 1736,780.498 1730.65,780.498 C1727.53,780.498 1724.89,779.686 1722.75,778.061 C1720.73,776.3 1719.72,774.087 1719.72,771.42 C1719.72,767.056 1722.03,762.889 1726.65,758.92 C1731.28,754.952 1736.29,752.967 1741.68,752.967"/>
<path class="Note" d="M2642.34,815.467 C2645.47,815.467 2648.07,816.248 2650.16,817.811 C2652.24,819.373 2653.28,821.618 2653.28,824.545 C2653.28,829.035 2650.96,833.233 2646.31,837.139 C2641.65,841.045 2636.66,842.998 2631.31,842.998 C2628.19,842.998 2625.55,842.186 2623.41,840.561 C2621.39,838.801 2620.38,836.587 2620.38,833.92 C2620.38,829.556 2622.69,825.389 2627.31,821.42 C2631.94,817.452 2636.95,815.467 2642.34,815.467"/>
<path class="Note" d="M1900,765.467 C1903.13,765.467 1905.73,766.248 1907.82,767.811 C1909.9,769.373 1910.94,771.618 1910.94,774.545 C1910.94,779.035 1908.62,783.233 1903.96,787.139 C1899.31,791.045 1894.32,792.998 1888.97,792.998 C1885.85,792.998 1883.21,792.186 1881.07,790.561 C1879.05,788.8 1878.03,786.587 1878.03,783.92 C1878.03,779.556 1880.35,775.389 1884.97,771.42 C1889.6,767.452 1894.61,765.467 1900,765.467"/>
<path class="Note" d="M1977.04,1715.47 C1980.16,1715.47 1982.76,1716.25 1984.85,1717.81 C1986.93,1719.37 1987.97,1721.62 1987.97,1724.55 C1987.97,1729.04 1985.65,1733.23 1981,1737.14 C1976.35,1741.05 1971.35,1743 1966,1743 C1962.88,1743 1960.24,1742.19 1958.1,1740.56 C1956.08,1738.8 1955.07,1736.59 1955.07,1733.92 C1955.07,1729.56 1957.38,1725.39 1962,1721.42 C1966.63,1717.45 1971.64,1715.47 1977.04,1715.47"/>
<path class="Note" d="M2231.1,802.373 C2232.98,802.373 2236.94,800.42 2242.96,796.514 C2248.99,792.608 2252.54,789.988 2253.61,788.655 C2254.68,787.321 2255.22,786.134 2255.22,785.092 C2255.22,784.05 2254.8,783.123 2253.95,782.311 C2253.1,781.498 2252.12,781.092 2251.02,781.092 C2249.07,781.092 2245.08,783.061 2239.06,786.998 C2233.03,790.936 2229.5,793.556 2228.46,794.858 C2227.41,796.16 2226.89,797.332 2226.89,798.373 C2226.89,799.415 2227.3,800.342 2228.12,801.155 C2228.94,801.967 2229.93,802.373 2231.1,802.373 M2250.05,777.967 C2255.64,777.967 2258.44,780.373 2258.44,785.186 C2258.44,787.53 2257.76,790.248 2256.39,793.342 C2255.03,796.436 2253.21,798.795 2250.92,800.42 C2245.91,803.806 2239.63,805.498 2232.08,805.498 C2226.48,805.498 2223.67,803.092 2223.67,798.28 C2223.67,796.134 2224.34,793.465 2225.67,790.272 C2227.01,787.079 2228.85,784.67 2231.19,783.045 C2236.21,779.66 2242.5,777.967 2250.05,777.967"/>
<path class="Note" d="M654.606,777.967 C657.731,777.967 660.335,778.748 662.419,780.311 C664.502,781.873 665.544,784.118 665.544,787.045 C665.544,791.535 663.218,795.733 658.567,799.639 C653.916,803.545 648.919,805.498 643.575,805.498 C640.45,805.498 637.814,804.686 635.669,803.061 C633.648,801.3 632.637,799.087 632.637,796.42 C632.637,792.056 634.95,787.889 639.575,783.92 C644.2,779.952 649.21,777.967 654.606,777.967"/>
<path class="Note" d="M2029,1252.97 C2032.12,1252.97 2034.72,1253.75 2036.81,1255.31 C2038.89,1256.87 2039.93,1259.12 2039.93,1262.05 C2039.93,1266.54 2037.61,1270.73 2032.96,1274.64 C2028.31,1278.55 2023.31,1280.5 2017.96,1280.5 C2014.84,1280.5 2012.2,1279.69 2010.06,1278.06 C2008.04,1276.3 2007.03,1274.09 2007.03,1271.42 C2007.03,1267.06 2009.34,1262.89 2013.96,1258.92 C2018.59,1254.95 2023.6,1252.97 2029,1252.97"/>
<path class="Note" d="M1935.41,1252.97 C1938.54,1252.97 1941.14,1253.75 1943.23,1255.31 C1945.31,1256.87 1946.35,1259.12 1946.35,1262.05 C1946.35,1266.54 1944.03,1270.73 1939.38,1274.64 C1934.72,1278.55 1929.73,1280.5 1924.38,1280.5 C1921.26,1280.5 1918.62,1279.69 1916.48,1278.06 C1914.46,1276.3 1913.45,1274.09 1913.45,1271.42 C1913.45,1267.06 1915.76,1262.89 1920.38,1258.92 C1925.01,1254.95 1930.02,1252.97 1935.41,1252.97"/>
<path class="Note" d="M1841.83,1252.97 C1844.96,1252.97 1847.56,1253.75 1849.65,1255.31 C1851.73,1256.87 1852.77,1259.12 1852.77,1262.05 C1852.77,1266.54 1850.44,1270.73 1845.79,1274.64 C1841.14,1278.55 1836.15,1280.5 1830.8,1280.5 C1827.68,1280.5 1825.04,1279.69 1822.9,1278.06 C1820.87,1276.3 1819.86,1274.09 1819.86,1271.42 C1819.86,1267.06 1822.18,1262.89 1826.8,1258.92 C1831.43,1254.95 1836.44,1252.97 1841.83,1252.97"/>
<path class="Note" d="M2288.21,327.373 C2290.1,327.373 2294.05,325.42 2300.08,321.514 C2306.11,317.607 2309.66,314.988 2310.73,313.654 C2311.8,312.321 2312.34,311.134 2312.34,310.092 C2312.34,309.05 2311.91,308.123 2311.06,307.311 C2310.22,306.498 2309.24,306.092 2308.14,306.092 C2306.19,306.092 2302.2,308.061 2296.17,311.998 C2290.15,315.936 2286.61,318.555 2285.57,319.857 C2284.53,321.16 2284.01,322.331 2284.01,323.373 C2284.01,324.415 2284.42,325.342 2285.24,326.154 C2286.05,326.967 2287.05,327.373 2288.21,327.373 M2307.17,302.967 C2312.76,302.967 2315.56,305.373 2315.56,310.186 C2315.56,312.529 2314.87,315.248 2313.51,318.342 C2312.15,321.436 2310.32,323.795 2308.04,325.42 C2303.03,328.805 2296.75,330.498 2289.2,330.498 C2283.59,330.498 2280.79,328.092 2280.79,323.279 C2280.79,321.134 2281.46,318.464 2282.79,315.272 C2284.12,312.079 2285.96,309.67 2288.31,308.045 C2293.33,304.66 2299.61,302.967 2307.17,302.967"/>
<path class="Note" d="M1701.46,1252.97 C1704.59,1252.97 1707.19,1253.75 1709.27,1255.31 C1711.36,1256.87 1712.4,1259.12 1712.4,1262.05 C1712.4,1266.54 1710.07,1270.73 1705.42,1274.64 C1700.77,1278.55 1695.77,1280.5 1690.43,1280.5 C1687.3,1280.5 1684.67,1279.69 1682.52,1278.06 C1680.5,1276.3 1679.49,1274.09 1679.49,1271.42 C1679.49,1267.06 1681.8,1262.89 1686.43,1258.92 C1691.05,1254.95 1696.06,1252.97 1701.46,1252.97"/>
<path class="Note" d="M1607.88,1252.97 C1611,1252.97 1613.61,1253.75 1615.69,1255.31 C1617.78,1256.87 1618.82,1259.12 1618.82,1262.05 C1618.82,1266.54 1616.49,1270.73 1611.84,1274.64 C1607.19,1278.55 1602.19,1280.5 1596.85,1280.5 C1593.72,1280.5 1591.09,1279.69 1588.94,1278.06 C1586.92,1276.3 1585.91,1274.09 1585.91,1271.42 C1585.91,1267.06 1588.22,1262.89 1592.85,1258.92 C1597.47,1254.95 1602.48,1252.97 1607.88,1252.97"/>
<path class="Note" d="M2696.36,340.467 C2699.48,340.467 2702.09,341.248 2704.17,342.811 C2706.25,344.373 2707.3,346.618 2707.3,349.545 C2707.3,354.035 2704.97,358.232 2700.32,362.139 C2695.67,366.045 2690.67,367.998 2685.33,367.998 C2682.2,367.998 2679.57,367.186 2677.42,365.561 C2675.4,363.8 2674.39,361.587 2674.39,358.92 C2674.39,354.555 2676.7,350.389 2681.33,346.42 C2685.95,342.451 2690.96,340.467 2696.36,340.467"/>
<path class="Note" d="M1644.18,1702.97 C1647.3,1702.97 1649.91,1703.75 1651.99,1705.31 C1654.07,1706.87 1655.12,1709.12 1655.12,1712.05 C1655.12,1716.54 1652.79,1720.73 1648.14,1724.64 C1643.49,1728.55 1638.49,1730.5 1633.15,1730.5 C1630.02,1730.5 1627.39,1729.69 1625.24,1728.06 C1623.22,1726.3 1622.21,1724.09 1622.21,1721.42 C1622.21,1717.06 1624.52,1712.89 1629.15,1708.92 C1633.77,1704.95 1638.78,1702.97 1644.18,1702.97"/>
<path class="Note" d="M1514.3,1252.97 C1517.42,1252.97 1520.03,1253.75 1522.11,1255.31 C1524.19,1256.87 1525.24,1259.12 1525.24,1262.05 C1525.24,1266.54 1522.91,1270.73 1518.26,1274.64 C1513.61,1278.55 1508.61,1280.5 1503.27,1280.5 C1500.14,1280.5 1497.51,1279.69 1495.36,1278.06 C1493.34,1276.3 1492.33,1274.09 1492.33,1271.42 C1492.33,1267.06 1494.64,1262.89 1499.27,1258.92 C1503.89,1254.95 1508.9,1252.97 1514.3,1252.97"/>
<path class="Note" d="M2143.46,1715.47 C2146.59,1715.47 2149.19,1716.25 2151.28,1717.81 C2153.36,1719.37 2154.4,1721.62 2154.4,1724.55 C2154.4,1729.04 2152.08,1733.23 2147.42,1737.14 C2142.77,1741.05 2137.78,1743 2132.43,1743 C2129.31,1743 2126.67,1742.19 2124.53,1740.56 C2122.51,1738.8 2121.49,1736.59 2121.49,1733.92 C2121.49,1729.56 2123.81,1725.39 2128.43,1721.42 C2133.06,1717.45 2138.07,1715.47 2143.46,1715.47"/>
<path class="Note" d="M337.967,777.967 C341.092,777.967 343.696,778.748 345.779,780.311 C347.863,781.873 348.904,784.118 348.904,787.045 C348.904,791.535 346.579,795.733 341.928,799.639 C337.277,803.545 332.279,805.498 326.936,805.498 C323.811,805.498 321.175,804.686 319.029,803.061 C317.009,801.3 315.998,799.087 315.998,796.42 C315.998,792.056 318.311,787.889 322.936,783.92 C327.561,779.952 332.571,777.967 337.967,777.967"/>
<path class="Note" d="M1259.29,1277.37 C1261.18,1277.37 1265.13,1275.42 1271.16,1271.51 C1277.18,1267.61 1280.73,1264.99 1281.81,1263.65 C1282.88,1262.32 1283.42,1261.13 1283.42,1260.09 C1283.42,1259.05 1282.99,1258.12 1282.14,1257.31 C1281.29,1256.5 1280.32,1256.09 1279.21,1256.09 C1277.26,1256.09 1273.28,1258.06 1267.25,1262 C1261.23,1265.94 1257.69,1268.56 1256.65,1269.86 C1255.61,1271.16 1255.09,1272.33 1255.09,1273.37 C1255.09,1274.42 1255.5,1275.34 1256.31,1276.15 C1257.13,1276.97 1258.12,1277.37 1259.29,1277.37 M1278.24,1252.97 C1283.84,1252.97 1286.63,1255.37 1286.63,1260.19 C1286.63,1262.53 1285.95,1265.25 1284.59,1268.34 C1283.22,1271.44 1281.4,1273.8 1279.12,1275.42 C1274.11,1278.81 1267.83,1280.5 1260.28,1280.5 C1254.67,1280.5 1251.87,1278.09 1251.87,1273.28 C1251.87,1271.13 1252.54,1268.46 1253.87,1265.27 C1255.2,1262.08 1257.04,1259.67 1259.38,1258.05 C1264.41,1254.66 1270.69,1252.97 1278.24,1252.97"/>
<path class="Note" d="M1134.37,1252.97 C1137.49,1252.97 1140.1,1253.75 1142.18,1255.31 C1144.26,1256.87 1145.31,1259.12 1145.31,1262.05 C1145.31,1266.54 1142.98,1270.73 1138.33,1274.64 C1133.68,1278.55 1128.68,1280.5 1123.34,1280.5 C1120.21,1280.5 1117.58,1279.69 1115.43,1278.06 C1113.41,1276.3 1112.4,1274.09 1112.4,1271.42 C1112.4,1267.06 1114.71,1262.89 1119.34,1258.92 C1123.96,1254.95 1128.97,1252.97 1134.37,1252.97"/>
<path class="Note" d="M496.286,777.967 C499.411,777.967 502.016,778.748 504.099,780.311 C506.182,781.873 507.224,784.118 507.224,787.045 C507.224,791.535 504.898,795.733 500.247,799.639 C495.596,803.545 490.599,805.498 485.255,805.498 C482.13,805.498 479.495,804.686 477.349,803.061 C475.328,801.3 474.318,799.087 474.318,796.42 C474.318,792.056 476.63,787.889 481.255,783.92 C485.88,779.952 490.891,777.967 496.286,777.967"/>
<path class="Note" d="M993.996,1252.97 C997.121,1252.97 999.725,1253.75 1001.81,1255.31 C1003.89,1256.87 1004.93,1259.12 1004.93,1262.05 C1004.93,1266.54 1002.61,1270.73 997.957,1274.64 C993.306,1278.55 988.308,1280.5 982.965,1280.5 C979.84,1280.5 977.204,1279.69 975.058,1278.06 C973.037,1276.3 972.027,1274.09 972.027,1271.42 C972.027,1267.06 974.34,1262.89 978.965,1258.92 C983.59,1254.95 988.6,1252.97 993.996,1252.97"/>
<path class="Note" d="M871.414,1290.47 C874.539,1290.47 877.144,1291.25 879.227,1292.81 C881.31,1294.37 882.352,1296.62 882.352,1299.55 C882.352,1304.04 880.026,1308.23 875.375,1312.14 C870.724,1316.05 865.727,1318 860.383,1318 C857.258,1318 854.623,1317.19 852.477,1315.56 C850.456,1313.8 849.446,1311.59 849.446,1308.92 C849.446,1304.56 851.758,1300.39 856.383,1296.42 C861.008,1292.45 866.019,1290.47 871.414,1290.47"/>
<path class="Clef" d="M203.623,423.858 L203.623,421.717 C203.56,420.613 203.399,418.889 203.139,416.545 C199.889,417.066 196.993,417.326 194.451,417.326 C185.337,417.326 177.605,413.727 171.256,406.529 C164.907,399.331 161.732,390.753 161.732,380.795 C161.732,378.128 162.253,374.923 163.295,371.178 C164.337,367.433 165.297,364.925 166.178,363.654 C167.058,362.384 168.378,360.154 170.139,356.967 C170.659,355.988 172.352,353.837 175.217,350.514 C175.738,349.805 176.193,349.222 176.584,348.764 C176.975,348.305 177.607,347.49 178.482,346.318 C179.357,345.147 180.3,344.055 181.31,343.045 C182.321,342.035 183.217,341.058 183.998,340.115 C184.779,339.173 185.498,338.378 186.154,337.733 C183.81,329.983 182.378,324.024 181.857,319.858 C181.337,315.691 181.076,310.579 181.076,304.522 C181.076,298.464 182.378,292.962 184.982,288.014 C187.514,282.878 191.06,278.68 195.623,275.42 C195.883,275.222 196.225,275.123 196.646,275.123 C197.068,275.123 197.378,275.222 197.576,275.42 C201.087,279.649 204.128,285.149 206.701,291.92 C209.274,298.691 210.56,305.024 210.56,310.92 C210.56,316.816 209.066,322.498 206.076,327.967 C202.691,333.759 198.326,339.748 192.982,345.936 C194.347,350.227 196.17,356.962 198.451,366.139 L199.045,366.139 C199.305,366.076 199.529,366.045 199.717,366.045 C207.081,366.045 213.089,368.634 217.74,373.811 C222.391,378.988 224.717,384.962 224.717,391.733 C224.717,400.128 221.238,406.899 214.279,412.045 C212.258,413.545 209.878,414.717 207.139,415.561 C207.472,419.79 207.639,422.605 207.639,424.006 C207.639,425.407 207.571,427.899 207.435,431.483 C207.373,437.597 205.29,442.837 201.185,447.201 C197.081,451.566 192.394,453.748 187.123,453.748 C181.852,453.748 177.36,451.876 173.646,448.131 C169.933,444.386 168.076,439.847 168.076,434.514 C168.076,431.712 169.154,429.331 171.31,427.373 C173.519,425.425 176.006,424.451 178.771,424.451 C181.537,424.451 183.8,425.462 185.56,427.483 C187.383,429.368 188.295,431.644 188.295,434.311 C188.295,436.977 187.383,439.222 185.56,441.045 C183.738,442.868 181.555,443.779 179.014,443.779 C177.972,443.779 176.967,443.587 175.998,443.201 C178.863,447.43 182.54,449.545 187.029,449.545 C191.519,449.545 195.36,447.691 198.553,443.983 C201.745,440.274 203.342,435.91 203.342,430.889 L203.623,423.858 M206.748,411.561 C210.133,410.321 212.821,408.123 214.81,404.967 C216.8,401.811 217.795,398.67 217.795,395.545 C217.795,390.92 216.199,386.785 213.006,383.139 C209.813,379.493 205.774,377.441 200.889,376.983 C203.691,390.722 205.644,402.248 206.748,411.561 M168.967,388.998 C168.967,395.446 171.537,401.079 176.678,405.897 C181.818,410.714 187.842,413.123 194.748,413.123 C197.477,413.123 200.144,412.925 202.748,412.529 C201.706,402.634 199.654,390.785 196.592,376.983 C192.758,377.378 189.782,378.699 187.662,380.943 C185.542,383.188 184.482,385.743 184.482,388.608 C184.482,393.555 187.123,397.561 192.404,400.623 C192.852,400.884 193.076,401.324 193.076,401.943 C193.076,402.563 192.865,403.1 192.443,403.553 C192.021,404.006 191.649,404.233 191.326,404.233 C191.003,404.233 190.581,404.17 190.06,404.045 C182.435,399.878 178.623,393.592 178.623,385.186 C178.623,381.217 180.024,377.41 182.826,373.764 C185.753,370.118 189.56,367.774 194.248,366.733 C192.425,359.441 190.93,353.743 189.764,349.639 C180.847,359.67 175.31,367.092 173.154,371.904 C170.363,378.154 168.967,383.852 168.967,388.998 M201.576,289.686 C196.691,292.092 192.834,295.574 190.006,300.131 C187.178,304.688 185.764,309.472 185.764,314.483 C185.764,319.493 186.935,325.972 189.279,333.92 C193.967,328.253 197.514,322.946 199.92,317.998 C202.326,313.05 203.529,308.152 203.529,303.303 C203.529,298.454 202.878,293.915 201.576,289.686"/>
<path class="Clef" d="M203.623,1848.86 L203.623,1846.72 C203.56,1845.61 203.399,1843.89 203.139,1841.55 C199.889,1842.07 196.993,1842.33 194.451,1842.33 C185.337,1842.33 177.605,1838.73 171.256,1831.53 C164.907,1824.33 161.732,1815.75 161.732,1805.8 C161.732,1803.13 162.253,1799.92 163.295,1796.18 C164.337,1792.43 165.297,1789.93 166.178,1788.66 C167.058,1787.38 168.378,1785.16 170.139,1781.97 C170.659,1780.99 172.352,1778.84 175.217,1775.51 C175.738,1774.81 176.193,1774.22 176.584,1773.76 C176.975,1773.31 177.607,1772.49 178.482,1771.32 C179.357,1770.15 180.3,1769.06 181.31,1768.05 C182.321,1767.04 183.217,1766.06 183.998,1765.12 C184.779,1764.17 185.498,1763.38 186.154,1762.73 C183.81,1754.98 182.378,1749.03 181.857,1744.86 C181.337,1740.69 181.076,1735.58 181.076,1729.52 C181.076,1723.47 182.378,1717.96 184.982,1713.01 C187.514,1707.88 191.06,1703.68 195.623,1700.42 C195.883,1700.22 196.225,1700.12 196.646,1700.12 C197.068,1700.12 197.378,1700.22 197.576,1700.42 C201.087,1704.65 204.128,1710.15 206.701,1716.92 C209.274,1723.69 210.56,1730.03 210.56,1735.92 C210.56,1741.82 209.066,1747.5 206.076,1752.97 C202.691,1758.76 198.326,1764.75 192.982,1770.94 C194.347,1775.23 196.17,1781.96 198.451,1791.14 L199.045,1791.14 C199.305,1791.08 199.529,1791.05 199.717,1791.05 C207.081,1791.05 213.089,1793.63 217.74,1798.81 C222.391,1803.99 224.717,1809.96 224.717,1816.73 C224.717,1825.13 221.238,1831.9 214.279,1837.05 C212.258,1838.55 209.878,1839.72 207.139,1840.56 C207.472,1844.79 207.639,1847.61 207.639,1849.01 C207.639,1850.41 207.571,1852.9 207.435,1856.48 C207.373,1862.6 205.29,1867.84 201.185,1872.2 C197.081,1876.57 192.394,1878.75 187.123,1878.75 C181.852,1878.75 177.36,1876.88 173.646,1873.13 C169.933,1869.39 168.076,1864.85 168.076,1859.51 C168.076,1856.71 169.154,1854.33 171.31,1852.37 C173.519,1850.43 176.006,1849.45 178.771,1849.45 C181.537,1849.45 183.8,1850.46 185.56,1852.48 C187.383,1854.37 188.295,1856.64 188.295,1859.31 C188.295,1861.98 187.383,1864.22 185.56,1866.05 C183.738,1867.87 181.555,1868.78 179.014,1868.78 C177.972,1868.78 176.967,1868.59 175.998,1868.2 C178.863,1872.43 182.54,1874.55 187.029,1874.55 C191.519,1874.55 195.36,1872.69 198.553,1868.98 C201.745,1865.28 203.342,1860.91 203.342,1855.89 L203.623,1848.86 M206.748,1836.56 C210.133,1835.32 212.821,1833.12 214.81,1829.97 C216.8,1826.81 217.795,1823.67 217.795,1820.55 C217.795,1815.92 216.199,1811.79 213.006,1808.14 C209.813,1804.49 205.774,1802.44 200.889,1801.98 C203.691,1815.72 205.644,1827.25 206.748,1836.56 M168.967,1814 C168.967,1820.45 171.537,1826.08 176.678,1830.9 C181.818,1835.72 187.842,1838.12 194.748,1838.12 C197.477,1838.12 200.144,1837.93 202.748,1837.53 C201.706,1827.63 199.654,1815.79 196.592,1801.98 C192.758,1802.38 189.782,1803.7 187.662,1805.94 C185.542,1808.19 184.482,1810.74 184.482,1813.61 C184.482,1818.56 187.123,1822.56 192.404,1825.62 C192.852,1825.88 193.076,1826.32 193.076,1826.94 C193.076,1827.56 192.865,1828.1 192.443,1828.55 C192.021,1829.01 191.649,1829.23 191.326,1829.23 C191.003,1829.23 190.581,1829.17 190.06,1829.05 C182.435,1824.88 178.623,1818.59 178.623,1810.19 C178.623,1806.22 180.024,1802.41 182.826,1798.76 C185.753,1795.12 189.56,1792.78 194.248,1791.73 C192.425,1784.44 190.93,1778.74 189.764,1774.64 C180.847,1784.67 175.31,1792.09 173.154,1796.91 C170.363,1803.16 168.967,1808.85 168.967,1814 M201.576,1714.69 C196.691,1717.09 192.834,1720.57 190.006,1725.13 C187.178,1729.69 185.764,1734.47 185.764,1739.48 C185.764,1744.49 186.935,1750.97 189.279,1758.92 C193.967,1753.25 197.514,1747.95 199.92,1743 C202.326,1738.05 203.529,1733.15 203.529,1728.3 C203.529,1723.45 202.878,1718.92 201.576,1714.69"/>
<path class="Clef" d="M203.623,898.858 L203.623,896.717 C203.56,895.613 203.399,893.889 203.139,891.545 C199.889,892.066 196.993,892.327 194.451,892.327 C185.337,892.327 177.605,888.728 171.256,881.53 C164.907,874.332 161.732,865.754 161.732,855.795 C161.732,853.129 162.253,849.923 163.295,846.178 C164.337,842.433 165.297,839.926 166.178,838.655 C167.058,837.384 168.378,835.155 170.139,831.967 C170.659,830.988 172.352,828.837 175.217,825.514 C175.738,824.806 176.193,824.222 176.584,823.764 C176.975,823.306 177.607,822.491 178.482,821.319 C179.357,820.147 180.3,819.056 181.31,818.045 C182.321,817.035 183.217,816.058 183.998,815.116 C184.779,814.173 185.498,813.379 186.154,812.733 C183.81,804.983 182.378,799.024 181.857,794.858 C181.337,790.691 181.076,785.579 181.076,779.522 C181.076,773.465 182.378,767.962 184.982,763.014 C187.514,757.879 191.06,753.681 195.623,750.42 C195.883,750.222 196.225,750.123 196.646,750.123 C197.068,750.123 197.378,750.222 197.576,750.42 C201.087,754.649 204.128,760.149 206.701,766.92 C209.274,773.691 210.56,780.024 210.56,785.92 C210.56,791.816 209.066,797.498 206.076,802.967 C202.691,808.759 198.326,814.748 192.982,820.936 C194.347,825.228 196.17,831.962 198.451,841.139 L199.045,841.139 C199.305,841.077 199.529,841.045 199.717,841.045 C207.081,841.045 213.089,843.634 217.74,848.811 C222.391,853.988 224.717,859.962 224.717,866.733 C224.717,875.129 221.238,881.899 214.279,887.045 C212.258,888.545 209.878,889.717 207.139,890.561 C207.472,894.79 207.639,897.605 207.639,899.006 C207.639,900.407 207.571,902.899 207.435,906.483 C207.373,912.597 205.29,917.837 201.185,922.202 C197.081,926.566 192.394,928.748 187.123,928.748 C181.852,928.748 177.36,926.876 173.646,923.131 C169.933,919.386 168.076,914.847 168.076,909.514 C168.076,906.712 169.154,904.332 171.31,902.373 C173.519,900.426 176.006,899.452 178.771,899.452 C181.537,899.452 183.8,900.462 185.56,902.483 C187.383,904.368 188.295,906.644 188.295,909.311 C188.295,911.978 187.383,914.222 185.56,916.045 C183.738,917.868 181.555,918.78 179.014,918.78 C177.972,918.78 176.967,918.587 175.998,918.202 C178.863,922.431 182.54,924.545 187.029,924.545 C191.519,924.545 195.36,922.691 198.553,918.983 C201.745,915.274 203.342,910.91 203.342,905.889 L203.623,898.858 M206.748,886.561 C210.133,885.321 212.821,883.123 214.81,879.967 C216.8,876.811 217.795,873.67 217.795,870.545 C217.795,865.92 216.199,861.785 213.006,858.139 C209.813,854.493 205.774,852.441 200.889,851.983 C203.691,865.722 205.644,877.248 206.748,886.561 M168.967,863.998 C168.967,870.446 171.537,876.079 176.678,880.897 C181.818,885.715 187.842,888.123 194.748,888.123 C197.477,888.123 200.144,887.926 202.748,887.53 C201.706,877.634 199.654,865.785 196.592,851.983 C192.758,852.379 189.782,853.699 187.662,855.944 C185.542,858.189 184.482,860.743 184.482,863.608 C184.482,868.556 187.123,872.561 192.404,875.623 C192.852,875.884 193.076,876.324 193.076,876.944 C193.076,877.564 192.865,878.1 192.443,878.553 C192.021,879.006 191.649,879.233 191.326,879.233 C191.003,879.233 190.581,879.17 190.06,879.045 C182.435,874.879 178.623,868.592 178.623,860.186 C178.623,856.217 180.024,852.41 182.826,848.764 C185.753,845.118 189.56,842.774 194.248,841.733 C192.425,834.441 190.93,828.743 189.764,824.639 C180.847,834.67 175.31,842.092 173.154,846.905 C170.363,853.155 168.967,858.853 168.967,863.998 M201.576,764.686 C196.691,767.092 192.834,770.574 190.006,775.131 C187.178,779.689 185.764,784.472 185.764,789.483 C185.764,794.493 186.935,800.972 189.279,808.92 C193.967,803.254 197.514,797.946 199.92,792.998 C202.326,788.051 203.529,783.152 203.529,778.303 C203.529,773.454 202.878,768.915 201.576,764.686"/>
<path class="Clef" d="M203.623,1373.86 L203.623,1371.72 C203.56,1370.61 203.399,1368.89 203.139,1366.55 C199.889,1367.07 196.993,1367.33 194.451,1367.33 C185.337,1367.33 177.605,1363.73 171.256,1356.53 C164.907,1349.33 161.732,1340.75 161.732,1330.8 C161.732,1328.13 162.253,1324.92 163.295,1321.18 C164.337,1317.43 165.297,1314.93 166.178,1313.65 C167.058,1312.38 168.378,1310.15 170.139,1306.97 C170.659,1305.99 172.352,1303.84 175.217,1300.51 C175.738,1299.81 176.193,1299.22 176.584,1298.76 C176.975,1298.31 177.607,1297.49 178.482,1296.32 C179.357,1295.15 180.3,1294.06 181.31,1293.05 C182.321,1292.04 183.217,1291.06 183.998,1290.12 C184.779,1289.17 185.498,1288.38 186.154,1287.73 C183.81,1279.98 182.378,1274.02 181.857,1269.86 C181.337,1265.69 181.076,1260.58 181.076,1254.52 C181.076,1248.46 182.378,1242.96 184.982,1238.01 C187.514,1232.88 191.06,1228.68 195.623,1225.42 C195.883,1225.22 196.225,1225.12 196.646,1225.12 C197.068,1225.12 197.378,1225.22 197.576,1225.42 C201.087,1229.65 204.128,1235.15 206.701,1241.92 C209.274,1248.69 210.56,1255.02 210.56,1260.92 C210.56,1266.82 209.066,1272.5 206.076,1277.97 C202.691,1283.76 198.326,1289.75 192.982,1295.94 C194.347,1300.23 196.17,1306.96 198.451,1316.14 L199.045,1316.14 C199.305,1316.08 199.529,1316.05 199.717,1316.05 C207.081,1316.05 213.089,1318.63 217.74,1323.81 C222.391,1328.99 224.717,1334.96 224.717,1341.73 C224.717,1350.13 221.238,1356.9 214.279,1362.05 C212.258,1363.55 209.878,1364.72 207.139,1365.56 C207.472,1369.79 207.639,1372.61 207.639,1374.01 C207.639,1375.41 207.571,1377.9 207.435,1381.48 C207.373,1387.6 205.29,1392.84 201.185,1397.2 C197.081,1401.57 192.394,1403.75 187.123,1403.75 C181.852,1403.75 177.36,1401.88 173.646,1398.13 C169.933,1394.39 168.076,1389.85 168.076,1384.51 C168.076,1381.71 169.154,1379.33 171.31,1377.37 C173.519,1375.43 176.006,1374.45 178.771,1374.45 C181.537,1374.45 183.8,1375.46 185.56,1377.48 C187.383,1379.37 188.295,1381.64 188.295,1384.31 C188.295,1386.98 187.383,1389.22 185.56,1391.05 C183.738,1392.87 181.555,1393.78 179.014,1393.78 C177.972,1393.78 176.967,1393.59 175.998,1393.2 C178.863,1397.43 182.54,1399.55 187.029,1399.55 C191.519,1399.55 195.36,1397.69 198.553,1393.98 C201.745,1390.27 203.342,1385.91 203.342,1380.89 L203.623,1373.86 M206.748,1361.56 C210.133,1360.32 212.821,1358.12 214.81,1354.97 C216.8,1351.81 217.795,1348.67 217.795,1345.55 C217.795,1340.92 216.199,1336.79 213.006,1333.14 C209.813,1329.49 205.774,1327.44 200.889,1326.98 C203.691,1340.72 205.644,1352.25 206.748,1361.56 M168.967,1339 C168.967,1345.45 171.537,1351.08 176.678,1355.9 C181.818,1360.71 187.842,1363.12 194.748,1363.12 C197.477,1363.12 200.144,1362.93 202.748,1362.53 C201.706,1352.63 199.654,1340.79 196.592,1326.98 C192.758,1327.38 189.782,1328.7 187.662,1330.94 C185.542,1333.19 184.482,1335.74 184.482,1338.61 C184.482,1343.56 187.123,1347.56 192.404,1350.62 C192.852,1350.88 193.076,1351.32 193.076,1351.94 C193.076,1352.56 192.865,1353.1 192.443,1353.55 C192.021,1354.01 191.649,1354.23 191.326,1354.23 C191.003,1354.23 190.581,1354.17 190.06,1354.05 C182.435,1349.88 178.623,1343.59 178.623,1335.19 C178.623,1331.22 180.024,1327.41 182.826,1323.76 C185.753,1320.12 189.56,1317.77 194.248,1316.73 C192.425,1309.44 190.93,1303.74 189.764,1299.64 C180.847,1309.67 175.31,1317.09 173.154,1321.9 C170.363,1328.15 168.967,1333.85 168.967,1339 M201.576,1239.69 C196.691,1242.09 192.834,1245.57 190.006,1250.13 C187.178,1254.69 185.764,1259.47 185.764,1264.48 C185.764,1269.49 186.935,1275.97 189.279,1283.92 C193.967,1278.25 197.514,1272.95 199.92,1268 C202.326,1263.05 203.529,1258.15 203.529,1253.3 C203.529,1248.45 202.878,1243.92 201.576,1239.69"/>
<path class="KeySig" d="M251.123,384.311 L249.857,322.201 C249.857,321.222 250.623,320.733 252.154,320.733 C253.686,320.733 254.451,321.222 254.451,322.201 L253.67,356.092 C255.43,354.331 256.943,353.11 258.209,352.428 C259.475,351.746 261.199,351.404 263.381,351.404 C265.563,351.404 267.581,352.412 269.436,354.428 C271.29,356.443 272.217,358.951 272.217,361.951 C272.217,366.441 267.498,372.66 258.061,380.608 C254.55,383.795 252.727,385.389 252.592,385.389 L252.014,385.389 C251.42,385.389 251.123,385.029 251.123,384.311 M253.576,359.217 L253.279,381.389 C255.3,379.493 257.352,376.347 259.436,371.951 C261.519,367.555 262.561,363.795 262.561,360.67 C262.561,359.108 262.3,357.675 261.779,356.373 C261.258,355.071 260.443,354.42 259.334,354.42 C258.225,354.42 257.23,354.811 256.35,355.592 C255.469,356.373 254.545,357.581 253.576,359.217"/>
<path class="KeySig" d="M251.123,1334.31 L249.857,1272.2 C249.857,1271.22 250.623,1270.73 252.154,1270.73 C253.686,1270.73 254.451,1271.22 254.451,1272.2 L253.67,1306.09 C255.43,1304.33 256.943,1303.11 258.209,1302.43 C259.475,1301.75 261.199,1301.4 263.381,1301.4 C265.563,1301.4 267.581,1302.41 269.436,1304.43 C271.29,1306.44 272.217,1308.95 272.217,1311.95 C272.217,1316.44 267.498,1322.66 258.061,1330.61 C254.55,1333.8 252.727,1335.39 252.592,1335.39 L252.014,1335.39 C251.42,1335.39 251.123,1335.03 251.123,1334.31 M253.576,1309.22 L253.279,1331.39 C255.3,1329.49 257.352,1326.35 259.436,1321.95 C261.519,1317.56 262.561,1313.8 262.561,1310.67 C262.561,1309.11 262.3,1307.68 261.779,1306.37 C261.258,1305.07 260.443,1304.42 259.334,1304.42 C258.225,1304.42 257.23,1304.81 256.35,1305.59 C255.469,1306.37 254.545,1307.58 253.576,1309.22"/>
<path class="KeySig" d="M251.123,1809.31 L249.857,1747.2 C249.857,1746.22 250.623,1745.73 252.154,1745.73 C253.686,1745.73 254.451,1746.22 254.451,1747.2 L253.67,1781.09 C255.43,1779.33 256.943,1778.11 258.209,1777.43 C259.475,1776.75 261.199,1776.41 263.381,1776.41 C265.563,1776.41 267.581,1777.41 269.436,1779.43 C271.29,1781.44 272.217,1783.95 272.217,1786.95 C272.217,1791.44 267.498,1797.66 258.061,1805.61 C254.55,1808.8 252.727,1810.39 252.592,1810.39 L252.014,1810.39 C251.42,1810.39 251.123,1810.03 251.123,1809.31 M253.576,1784.22 L253.279,1806.39 C255.3,1804.49 257.352,1801.35 259.436,1796.95 C261.519,1792.56 262.561,1788.8 262.561,1785.67 C262.561,1784.11 262.3,1782.68 261.779,1781.37 C261.258,1780.07 260.443,1779.42 259.334,1779.42 C258.225,1779.42 257.23,1779.81 256.35,1780.59 C255.469,1781.37 254.545,1782.58 253.576,1784.22"/>
<path class="KeySig" d="M251.123,859.311 L249.857,797.202 C249.857,796.222 250.623,795.733 252.154,795.733 C253.686,795.733 254.451,796.222 254.451,797.202 L253.67,831.092 C255.43,829.332 256.943,828.11 258.209,827.428 C259.475,826.746 261.199,826.405 263.381,826.405 C265.563,826.405 267.581,827.412 269.436,829.428 C271.29,831.444 272.217,833.952 272.217,836.952 C272.217,841.441 267.498,847.66 258.061,855.608 C254.55,858.795 252.727,860.389 252.592,860.389 L252.014,860.389 C251.42,860.389 251.123,860.03 251.123,859.311 M253.576,834.217 L253.279,856.389 C255.3,854.493 257.352,851.347 259.436,846.952 C261.519,842.556 262.561,838.795 262.561,835.67 C262.561,834.108 262.3,832.676 261.779,831.373 C261.258,830.071 260.443,829.42 259.334,829.42 C258.225,829.42 257.23,829.811 256.35,830.592 C255.469,831.373 254.545,832.582 253.576,834.217"/>
<path class="TimeSig" d="M320.537,317.912 C322.032,317.912 323.464,317.686 324.834,317.232 C326.204,316.779 327.18,316.553 327.764,316.553 C328.347,316.553 328.738,316.907 328.936,317.615 C328.936,317.688 328.868,317.886 328.732,318.209 L300.326,351.225 L317.014,351.225 L317.014,338.131 C317.014,336.506 317.962,335.334 319.857,334.615 C321.805,333.897 324.019,331.001 326.498,325.928 C326.686,325.532 326.977,325.334 327.373,325.334 C328.154,325.334 328.607,325.792 328.732,326.709 L328.732,351.225 L335.873,351.225 C336.779,351.225 337.266,351.712 337.334,352.686 C337.402,353.66 336.915,354.147 335.873,354.147 L328.732,354.147 L328.732,354.928 C328.732,357.532 329.383,359.746 330.686,361.568 C332.186,363.391 333.946,364.303 335.967,364.303 C336.748,364.303 337.139,364.693 337.139,365.475 C337.139,366.256 336.602,366.647 335.529,366.647 C334.456,366.647 332.454,366.436 329.522,366.014 C326.589,365.592 324.326,365.381 322.732,365.381 C321.139,365.381 318.925,365.592 316.092,366.014 C313.258,366.436 311.128,366.647 309.701,366.647 C308.92,366.647 308.529,366.256 308.529,365.475 C308.529,364.693 308.92,364.303 309.701,364.303 C311.712,364.303 313.467,363.391 314.967,361.568 C316.331,359.683 317.014,357.469 317.014,354.928 L317.014,354.147 L300.326,354.147 C299.472,354.147 298.735,353.92 298.115,353.467 C297.495,353.014 297.186,352.592 297.186,352.201 C297.186,351.811 298.001,350.639 299.631,348.686 C301.261,346.732 303.589,342.972 306.615,337.404 C309.641,331.837 311.154,325.438 311.154,318.209 C311.154,317.167 311.613,316.647 312.529,316.647 C312.727,316.647 313.037,316.712 313.459,316.842 C313.881,316.972 314.792,317.183 316.193,317.475 C317.594,317.766 319.042,317.912 320.537,317.912"/>
<path class="TimeSig" d="M320.537,368.084 C322.032,368.084 323.464,367.858 324.834,367.404 C326.204,366.951 327.18,366.725 327.764,366.725 C328.347,366.725 328.738,367.079 328.936,367.787 C328.936,367.86 328.868,368.058 328.732,368.381 L300.326,401.397 L317.014,401.397 L317.014,388.303 C317.014,386.678 317.962,385.506 319.857,384.787 C321.805,384.068 324.019,381.173 326.498,376.1 C326.686,375.704 326.977,375.506 327.373,375.506 C328.154,375.506 328.607,375.964 328.732,376.881 L328.732,401.397 L335.873,401.397 C336.779,401.397 337.266,401.884 337.334,402.858 C337.402,403.831 336.915,404.318 335.873,404.318 L328.732,404.318 L328.732,405.1 C328.732,407.704 329.383,409.917 330.686,411.74 C332.186,413.563 333.946,414.475 335.967,414.475 C336.748,414.475 337.139,414.865 337.139,415.647 C337.139,416.428 336.602,416.818 335.529,416.818 C334.456,416.818 332.454,416.608 329.522,416.186 C326.589,415.764 324.326,415.553 322.732,415.553 C321.139,415.553 318.925,415.764 316.092,416.186 C313.258,416.608 311.128,416.818 309.701,416.818 C308.92,416.818 308.529,416.428 308.529,415.647 C308.529,414.865 308.92,414.475 309.701,414.475 C311.712,414.475 313.467,413.563 314.967,411.74 C316.331,409.855 317.014,407.641 317.014,405.1 L317.014,404.318 L300.326,404.318 C299.472,404.318 298.735,404.092 298.115,403.639 C297.495,403.186 297.186,402.764 297.186,402.373 C297.186,401.983 298.001,400.811 299.631,398.858 C301.261,396.904 303.589,393.144 306.615,387.576 C309.641,382.009 311.154,375.61 311.154,368.381 C311.154,367.339 311.613,366.818 312.529,366.818 C312.727,366.818 313.037,366.884 313.459,367.014 C313.881,367.144 314.792,367.355 316.193,367.647 C317.594,367.938 319.042,368.084 320.537,368.084"/>
<path class="Rest" d="M2462.45,836.452 C2461.79,835.608 2461.46,834.696 2461.46,833.717 C2461.46,831.967 2463.55,829.53 2467.73,826.405 C2471.82,823.207 2473.87,819.561 2473.87,815.467 C2473.87,813.051 2473.02,810.837 2471.34,808.827 L2467.82,804.623 C2467.56,804.363 2467.43,804.037 2467.43,803.647 C2467.43,803.256 2467.62,802.899 2468.01,802.577 C2468.47,802.243 2468.89,802.077 2469.28,802.077 C2469.67,802.077 2470,802.274 2470.26,802.67 L2485.4,820.639 C2486.05,821.483 2486.37,822.41 2486.37,823.42 C2486.37,824.431 2485.83,825.522 2484.76,826.694 C2483.69,827.866 2482.18,829.233 2480.23,830.795 C2478.73,831.702 2477.31,833.131 2475.98,835.084 C2474.64,837.037 2473.98,839.254 2473.98,841.733 C2473.98,844.212 2474.76,846.394 2476.32,848.28 L2484.71,858.139 C2484.91,858.337 2485.04,858.662 2485.1,859.116 C2485.17,859.569 2485,859.959 2484.61,860.287 C2484.22,860.616 2483.91,860.78 2483.69,860.78 C2483.46,860.78 2482.88,860.405 2481.93,859.655 C2480.98,858.905 2479.65,858.173 2477.92,857.459 C2476.2,856.746 2474.49,856.389 2472.8,856.389 C2471.11,856.389 2469.77,856.845 2468.8,857.756 C2467.82,858.668 2467.34,860.767 2467.34,864.053 C2467.34,867.34 2468.28,870.123 2470.17,872.405 C2470.36,872.665 2470.4,872.957 2470.27,873.28 C2470.14,873.603 2469.88,873.764 2469.49,873.764 C2469.09,873.764 2468.1,872.561 2466.5,870.155 C2464.9,867.748 2463.37,864.899 2461.91,861.608 C2460.44,858.316 2459.71,855.566 2459.71,853.358 C2459.71,850.556 2461.14,849.155 2464.01,849.155 C2466.87,849.155 2470.75,850.196 2475.63,852.28 L2462.45,836.452 "/>
<path class="Rest" d="M2634.68,1786.45 C2634.02,1785.61 2633.7,1784.7 2633.7,1783.72 C2633.7,1781.97 2635.78,1779.53 2639.96,1776.41 C2644.06,1773.21 2646.1,1769.56 2646.1,1765.47 C2646.1,1763.05 2645.26,1760.84 2643.57,1758.83 L2640.06,1754.62 C2639.8,1754.36 2639.67,1754.04 2639.67,1753.65 C2639.67,1753.26 2639.86,1752.9 2640.24,1752.58 C2640.7,1752.24 2641.13,1752.08 2641.52,1752.08 C2641.91,1752.08 2642.23,1752.28 2642.49,1752.67 L2657.63,1770.64 C2658.28,1771.48 2658.6,1772.41 2658.6,1773.42 C2658.6,1774.43 2658.07,1775.52 2656.99,1776.69 C2655.92,1777.87 2654.41,1779.23 2652.46,1780.8 C2650.96,1781.7 2649.55,1783.13 2648.21,1785.08 C2646.88,1787.04 2646.21,1789.25 2646.21,1791.73 C2646.21,1794.21 2646.99,1796.39 2648.56,1798.28 L2656.95,1808.14 C2657.14,1808.34 2657.27,1808.66 2657.34,1809.12 C2657.4,1809.57 2657.24,1809.96 2656.84,1810.29 C2656.45,1810.62 2656.15,1810.78 2655.92,1810.78 C2655.7,1810.78 2655.11,1810.41 2654.17,1809.66 C2653.22,1808.91 2651.88,1808.17 2650.16,1807.46 C2648.43,1806.75 2646.72,1806.39 2645.03,1806.39 C2643.34,1806.39 2642.01,1806.85 2641.03,1807.76 C2640.06,1808.67 2639.57,1810.77 2639.57,1814.05 C2639.57,1817.34 2640.51,1820.12 2642.4,1822.41 C2642.6,1822.67 2642.63,1822.96 2642.5,1823.28 C2642.37,1823.6 2642.11,1823.76 2641.72,1823.76 C2641.33,1823.76 2640.33,1822.56 2638.74,1820.16 C2637.14,1817.75 2635.61,1814.9 2634.14,1811.61 C2632.68,1808.32 2631.95,1805.57 2631.95,1803.36 C2631.95,1800.56 2633.38,1799.16 2636.24,1799.16 C2639.11,1799.16 2642.98,1800.2 2647.87,1802.28 L2634.68,1786.45 "/>
<path class="Rest" d="M2517.7,361.451 C2517.05,360.608 2516.72,359.696 2516.72,358.717 C2516.72,356.967 2518.81,354.529 2522.98,351.404 C2527.08,348.206 2529.12,344.561 2529.12,340.467 C2529.12,338.05 2528.28,335.837 2526.59,333.826 L2523.08,329.623 C2522.82,329.363 2522.69,329.037 2522.69,328.647 C2522.69,328.256 2522.88,327.899 2523.26,327.576 C2523.72,327.243 2524.15,327.076 2524.54,327.076 C2524.93,327.076 2525.25,327.274 2525.51,327.67 L2540.66,345.639 C2541.3,346.483 2541.62,347.41 2541.62,348.42 C2541.62,349.43 2541.09,350.522 2540.01,351.693 C2538.94,352.865 2537.43,354.233 2535.48,355.795 C2533.98,356.701 2532.57,358.131 2531.23,360.084 C2529.9,362.037 2529.23,364.253 2529.23,366.733 C2529.23,369.212 2530.01,371.394 2531.58,373.279 L2539.97,383.139 C2540.17,383.337 2540.3,383.662 2540.36,384.115 C2540.42,384.568 2540.26,384.959 2539.87,385.287 C2539.48,385.615 2539.17,385.779 2538.94,385.779 C2538.72,385.779 2538.13,385.404 2537.19,384.654 C2536.24,383.904 2534.9,383.173 2533.18,382.459 C2531.45,381.746 2529.75,381.389 2528.05,381.389 C2526.36,381.389 2525.03,381.844 2524.05,382.756 C2523.08,383.667 2522.59,385.766 2522.59,389.053 C2522.59,392.339 2523.54,395.123 2525.42,397.404 C2525.62,397.665 2525.65,397.956 2525.52,398.279 C2525.39,398.602 2525.13,398.764 2524.74,398.764 C2524.35,398.764 2523.36,397.561 2521.76,395.154 C2520.16,392.748 2518.63,389.899 2517.16,386.608 C2515.7,383.316 2514.97,380.566 2514.97,378.358 C2514.97,375.555 2516.4,374.154 2519.26,374.154 C2522.13,374.154 2526,375.196 2530.89,377.279 L2517.7,361.451 "/>
<path class="Beam" fill-rule="evenodd" d="M1819.86,1335.48 L1916.7,1335.48 L1916.7,1347.98 L1819.86,1347.98 L1819.86,1335.48 "/>
<path class="Beam" fill-rule="evenodd" d="M1492.33,1335.48 L1589.16,1335.48 L1589.16,1347.98 L1492.33,1347.98 L1492.33,1335.48 "/>
<path class="Beam" fill-rule="evenodd" d="M755.864,1366.73 L852.696,1366.73 L852.696,1379.23 L755.864,1379.23 L755.864,1366.73 "/>
<path class="Beam" fill-rule="evenodd" d="M2176.4,1335.48 L2460.39,1335.48 L2460.39,1347.98 L2176.4,1347.98 L2176.4,1335.48 "/>
<path class="Beam" fill-rule="evenodd" d="M2620.38,891.733 L2729.17,891.733 L2729.17,904.233 L2620.38,904.233 L2620.38,891.733 "/>
<path class="NoteDot" d="M2362.06,1733.24 C2360.95,1732.13 2360.39,1730.8 2360.39,1729.23 C2360.39,1727.67 2360.95,1726.33 2362.06,1725.23 C2363.17,1724.12 2364.5,1723.56 2366.06,1723.56 C2367.63,1723.56 2368.96,1724.12 2370.06,1725.23 C2371.17,1726.33 2371.72,1727.67 2371.72,1729.23 C2371.72,1730.8 2371.17,1732.13 2370.06,1733.24 C2368.96,1734.35 2367.63,1734.91 2366.06,1734.91 C2364.5,1734.91 2363.17,1734.35 2362.06,1733.24"/>
</svg>
