<?xml version="1.0" encoding="UTF-8" standalone="no"?>
<svg width="2977.2px" height="4208.4px" viewBox="0 0 2977.2 4208.4"
 xmlns="http://www.w3.org/2000/svg" xmlns:xlink="http://www.w3.org/1999/xlink" version="1.2" baseProfile="tiny">
<title>Auclair.mscx</title>
<desc>Generated by MuseScore Studio 4.3.1</desc>
<path class="" fill="#ffffff" fill-rule="evenodd" d="M0,0 L2977.2,0 L2977.2,4208.4 L0,4208.4 L0,0 "/>
<polyline class="StaffLines" fill="none" stroke="#000000" stroke-width="2.00" stroke-linejoin="bevel" points="141.732,316.732 2835.47,316.732"/>
<polyline class="StaffLines" fill="none" stroke="#000000" stroke-width="2.00" stroke-linejoin="bevel" points="141.732,341.732 2835.47,341.732"/>
<polyline class="StaffLines" fill="none" stroke="#000000" stroke-width="2.00" stroke-linejoin="bevel" points="141.732,366.733 2835.47,366.733"/>
<polyline class="StaffLines" fill="none" stroke="#000000" stroke-width="2.00" stroke-linejoin="bevel" points="141.732,391.733 2835.47,391.733"/>
<polyline class="StaffLines" fill="none" stroke="#000000" stroke-width="2.00" stroke-linejoin="bevel" points="141.732,416.733 2835.47,416.733"/>
<polyline class="StaffLines" fill="none" stroke="#000000" stroke-width="2.00" stroke-linejoin="bevel" points="141.732,791.733 2835.47,791.733"/>
<polyline class="StaffLines" fill="none" stroke="#000000" stroke-width="2.00" stroke-linejoin="bevel" points="141.732,816.733 2835.47,816.733"/>
<polyline class="StaffLines" fill="none" stroke="#000000" stroke-width="2.00" stroke-linejoin="bevel" points="141.732,841.733 2835.47,841.733"/>
<polyline class="StaffLines" fill="none" stroke="#000000" stroke-width="2.00" stroke-linejoin="bevel" points="141.732,866.733 2835.47,866.733"/>
<polyline class="StaffLines" fill="none" stroke="#000000" stroke-width="2.00" stroke-linejoin="bevel" points="141.732,891.733 2835.47,891.733"/>
<polyline class="StaffLines" fill="none" stroke="#000000" stroke-width="2.00" stroke-linejoin="bevel" points="141.732,1266.73 2835.47,1266.73"/>
<polyline class="StaffLines" fill="none" stroke="#000000" stroke-width="2.00" stroke-linejoin="bevel" points="141.732,1291.73 2835.47,1291.73"/>
<polyline class="StaffLines" fill="none" stroke="#000000" stroke-width="2.00" stroke-linejoin="bevel" points="141.732,1316.73 2835.47,1316.73"/>
<polyline class="StaffLines" fill="none" stroke="#000000" stroke-width="2.00" stroke-linejoin="bevel" points="141.732,1341.73 2835.47,1341.73"/>
<polyline class="StaffLines" fill="none" stroke="#000000" stroke-width="2.00" stroke-linejoin="bevel" points="141.732,1366.73 2835.47,1366.73"/>
<polyline class="StaffLines" fill="none" stroke="#000000" stroke-width="2.00" stroke-linejoin="bevel" points="141.732,1741.73 2835.47,1741.73"/>
<polyline class="StaffLines" fill="none" stroke="#000000" stroke-width="2.00" stroke-linejoin="bevel" points="141.732,1766.73 2835.47,1766.73"/>
<polyline class="StaffLines" fill="none" stroke="#000000" stroke-width="2.00" stroke-linejoin="bevel" points="141.732,1791.73 2835.47,1791.73"/>
<polyline class="StaffLines" fill="none" stroke="#000000" stroke-width="2.00" stroke-linejoin="bevel" points="141.732,1816.73 2835.47,1816.73"/>
<polyline class="StaffLines" fill="none" stroke="#000000" stroke-width="2.00" stroke-linejoin="bevel" points="141.732,1841.73 2835.47,1841.73"/>
<path class="MeasureNumber" d="M134.092,1217.61 L133.967,1216.81 C137.008,1216.28 139.589,1214.98 141.709,1212.92 C143.829,1210.86 145.3,1208.2 146.123,1204.94 C144.154,1206.48 142.159,1207.25 140.139,1207.25 C137.972,1207.25 136.23,1206.5 134.912,1205.01 C133.594,1203.51 132.935,1201.55 132.935,1199.11 C132.935,1196.4 133.727,1194.14 135.31,1192.33 C136.894,1190.53 138.873,1189.62 141.248,1189.62 C143.831,1189.62 145.951,1190.68 147.607,1192.8 C149.264,1194.91 150.092,1197.63 150.092,1200.95 C150.092,1202.01 149.998,1203.11 149.81,1204.23 C149.623,1205.36 149.188,1206.69 148.506,1208.23 C147.824,1209.76 146.938,1211.14 145.85,1212.35 C144.761,1213.56 143.204,1214.67 141.178,1215.65 C139.152,1216.64 136.79,1217.3 134.092,1217.61 M141.576,1205.5 C142.076,1205.5 142.646,1205.43 143.287,1205.28 C143.928,1205.13 144.576,1204.81 145.232,1204.32 C145.889,1203.82 146.217,1203.22 146.217,1202.5 L146.217,1200.95 C146.217,1194.19 144.456,1190.81 140.935,1190.81 C140.102,1190.81 139.394,1191.03 138.81,1191.48 C138.227,1191.92 137.782,1192.5 137.475,1193.21 C137.167,1193.92 136.946,1194.65 136.81,1195.4 C136.675,1196.14 136.607,1196.93 136.607,1197.76 C136.607,1200.13 137.055,1202.01 137.951,1203.4 C138.847,1204.8 140.055,1205.5 141.576,1205.5"/>
<path class="MeasureNumber" d="M146.514,733.873 C146.514,732.446 146.199,731.181 145.568,730.076 C144.938,728.972 144.178,728.118 143.287,727.514 C142.396,726.91 141.399,726.412 140.295,726.022 C139.191,725.631 138.23,725.376 137.412,725.256 C136.594,725.136 135.883,725.076 135.279,725.076 C134.956,725.076 134.795,724.967 134.795,724.748 C134.795,724.675 134.805,724.613 134.826,724.561 L139.185,715.264 L147.545,715.264 C147.972,715.264 148.313,715.196 148.568,715.061 C148.824,714.925 149.097,714.644 149.389,714.217 L149.748,714.498 L148.232,717.842 C148.128,718.061 147.821,718.17 147.31,718.17 L139.467,718.17 L137.795,721.608 C141.68,722.306 144.571,723.441 146.467,725.014 C148.363,726.587 149.31,728.894 149.31,731.936 C149.31,733.53 149.063,734.946 148.568,736.186 C148.074,737.425 147.446,738.423 146.685,739.178 C145.925,739.933 145.045,740.553 144.045,741.037 C143.045,741.522 142.087,741.853 141.17,742.03 C140.253,742.207 139.326,742.295 138.389,742.295 C136.899,742.295 135.714,742.074 134.834,741.631 C133.954,741.188 133.514,740.582 133.514,739.811 C133.514,738.821 134.087,738.326 135.232,738.326 C135.982,738.326 136.949,738.735 138.131,739.553 C139.313,740.371 140.253,740.78 140.951,740.78 C142.524,740.78 143.844,740.113 144.912,738.78 C145.98,737.446 146.514,735.811 146.514,733.873"/>
<path class="MeasureNumber" d="M128.045,1668.01 C127.566,1668.01 126.607,1668.31 125.17,1668.89 L125.17,1668.34 L132.373,1664.7 L132.685,1664.78 L132.685,1688.78 C132.685,1689.74 132.925,1690.36 133.404,1690.66 C133.883,1690.95 134.909,1691.11 136.482,1691.14 L136.482,1691.73 L125.451,1691.73 L125.451,1691.14 C126.941,1691.08 127.946,1690.85 128.467,1690.47 C128.988,1690.08 129.248,1689.26 129.248,1688.01 L129.248,1669.89 C129.248,1668.64 128.847,1668.01 128.045,1668.01 M143.951,1688.61 C144.566,1688.61 145.48,1688.97 146.693,1689.69 C147.907,1690.42 148.967,1690.78 149.873,1690.78 C151.342,1690.78 152.581,1690.21 153.592,1689.07 C154.602,1687.93 155.107,1686.53 155.107,1684.86 C155.107,1683.82 154.928,1682.9 154.568,1682.11 C154.209,1681.32 153.751,1680.7 153.193,1680.26 C152.636,1679.83 151.969,1679.47 151.193,1679.19 C150.417,1678.92 149.691,1678.74 149.014,1678.66 C148.337,1678.57 147.613,1678.53 146.842,1678.53 L146.842,1678.01 C147.748,1677.69 148.527,1677.38 149.178,1677.07 C149.829,1676.76 150.514,1676.35 151.232,1675.83 C151.951,1675.32 152.506,1674.69 152.896,1673.94 C153.287,1673.19 153.482,1672.33 153.482,1671.37 C153.482,1670.12 153.074,1669.1 152.256,1668.3 C151.438,1667.49 150.378,1667.09 149.076,1667.09 C147.826,1667.09 146.727,1667.43 145.779,1668.12 C144.831,1668.8 143.946,1669.87 143.123,1671.34 L142.514,1671.17 C143.212,1669.29 144.154,1667.74 145.342,1666.52 C146.529,1665.31 148.212,1664.7 150.389,1664.7 C152.232,1664.7 153.735,1665.21 154.896,1666.22 C156.058,1667.23 156.639,1668.55 156.639,1670.17 C156.639,1671.26 156.357,1672.23 155.795,1673.05 C155.232,1673.88 154.258,1674.76 152.873,1675.7 C154.477,1676.39 155.732,1677.27 156.639,1678.34 C157.545,1679.42 157.998,1680.95 157.998,1682.95 C157.998,1685.79 156.951,1688.05 154.857,1689.75 C152.764,1691.45 150.128,1692.3 146.951,1692.3 C145.566,1692.3 144.467,1692.09 143.654,1691.67 C142.842,1691.25 142.435,1690.7 142.435,1690.01 C142.435,1689.59 142.576,1689.25 142.857,1688.99 C143.139,1688.74 143.503,1688.61 143.951,1688.61"/>
<polyline class="BarLine" fill="none" stroke="#000000" stroke-width="4.00" stroke-linejoin="bevel" points="998.591,1265.73 998.591,1367.73"/>
<polyline class="BarLine" fill="none" stroke="#000000" stroke-width="4.00" stroke-linejoin="bevel" points="2389.4,315.732 2389.4,417.733"/>
<polyline class="BarLine" fill="none" stroke="#000000" stroke-width="4.00" stroke-linejoin="bevel" points="2833.47,790.733 2833.47,892.733"/>
<polyline class="BarLine" fill="none" stroke="#000000" stroke-width="4.00" stroke-linejoin="bevel" points="986.907,1740.73 986.907,1842.73"/>
<polyline class="BarLine" fill="none" stroke="#000000" stroke-width="4.00" stroke-linejoin="bevel" points="2373.25,1265.73 2373.25,1367.73"/>
<polyline class="BarLine" fill="none" stroke="#000000" stroke-width="4.00" stroke-linejoin="bevel" points="2833.47,315.732 2833.47,417.733"/>
<polyline class="BarLine" fill="none" stroke="#000000" stroke-width="4.00" stroke-linejoin="bevel" points="1637.27,315.732 1637.27,417.733"/>
<polyline class="BarLine" fill="none" stroke="#000000" stroke-width="4.00" stroke-linejoin="bevel" points="2266.74,1740.73 2266.74,1842.73"/>
<polyline class="BarLine" fill="none" stroke="#000000" stroke-width="4.00" stroke-linejoin="bevel" points="1065.01,315.732 1065.01,417.733"/>
<polyline class="BarLine" fill="none" stroke="#000000" stroke-width="4.00" stroke-linejoin="bevel" points="1612.44,790.733 1612.44,892.733"/>
<polyline class="BarLine" fill="none" stroke="#000000" stroke-width="4.00" stroke-linejoin="bevel" points="2802.72,1740.73 2802.72,1842.73"/>
<polyline class="BarLine" fill="none" stroke="#000000" stroke-width="12.50" stroke-linejoin="bevel" points="2829.22,1740.73 2829.22,1842.73"/>
<polyline class="BarLine" fill="none" stroke="#000000" stroke-width="4.00" stroke-linejoin="bevel" points="2833.47,1265.73 2833.47,1367.73"/>
<polyline class="BarLine" fill="none" stroke="#000000" stroke-width="4.00" stroke-linejoin="bevel" points="1540.06,1740.73 1540.06,1842.73"/>
<polyline class="BarLine" fill="none" stroke="#000000" stroke-width="4.00" stroke-linejoin="bevel" points="2380.46,790.733 2380.46,892.733"/>
<polyline class="BarLine" fill="none" stroke="#000000" stroke-width="4.00" stroke-linejoin="bevel" points="1592.39,1265.73 1592.39,1367.73"/>
<polyline class="BarLine" fill="none" stroke="#000000" stroke-width="4.00" stroke-linejoin="bevel" points="1028.26,790.733 1028.26,892.733"/>
<polyline class="Stem" fill="none" stroke="#000000" stroke-width="3.25" stroke-linejoin="bevel" points="1058.69,1324.43 1058.69,1247.98"/>
<polyline class="Stem" fill="none" stroke="#000000" stroke-width="3.25" stroke-linejoin="bevel" points="1808.98,1310.1 1808.98,1385.48"/>
<polyline class="Stem" fill="none" stroke="#000000" stroke-width="3.25" stroke-linejoin="bevel" points="1621.01,1297.6 1621.01,1379.23"/>
<polyline class="Stem" fill="none" stroke="#000000" stroke-width="3.25" stroke-linejoin="bevel" points="1641.06,835.102 1641.06,910.483"/>
<polyline class="Stem" fill="none" stroke="#000000" stroke-width="3.25" stroke-linejoin="bevel" points="1825.82,810.102 1825.82,891.733"/>
<polyline class="Stem" fill="none" stroke="#000000" stroke-width="3.25" stroke-linejoin="bevel" points="1340.63,1324.43 1340.63,1247.98"/>
<polyline class="Stem" fill="none" stroke="#000000" stroke-width="3.25" stroke-linejoin="bevel" points="2010.57,822.602 2010.57,904.233"/>
<polyline class="Stem" fill="none" stroke="#000000" stroke-width="3.25" stroke-linejoin="bevel" points="1996.94,1322.6 1996.94,1391.73"/>
<polyline class="Stem" fill="none" stroke="#000000" stroke-width="3.25" stroke-linejoin="bevel" points="2195.33,822.602 2195.33,904.233"/>
<polyline class="Stem" fill="none" stroke="#000000" stroke-width="3.25" stroke-linejoin="bevel" points="2091.95,1772.6 2091.95,1854.23"/>
<polyline class="Stem" fill="none" stroke="#000000" stroke-width="3.25" stroke-linejoin="bevel" points="810.252,1297.6 810.252,1379.23"/>
<polyline class="Stem" fill="none" stroke="#000000" stroke-width="3.25" stroke-linejoin="bevel" points="2214.57,1323.36 2214.57,1247.98"/>
<polyline class="Stem" fill="none" stroke="#000000" stroke-width="3.25" stroke-linejoin="bevel" points="622.287,1297.6 622.287,1379.23"/>
<polyline class="Stem" fill="none" stroke="#000000" stroke-width="3.25" stroke-linejoin="bevel" points="434.322,1297.6 434.322,1379.23"/>
<polyline class="Stem" fill="none" stroke="#000000" stroke-width="3.25" stroke-linejoin="bevel" points="246.357,1297.6 246.357,1379.23"/>
<polyline class="Stem" fill="none" stroke="#000000" stroke-width="3.25" stroke-linejoin="bevel" points="1917.53,1772.6 1917.53,1854.23"/>
<polyline class="Stem" fill="none" stroke="#000000" stroke-width="3.25" stroke-linejoin="bevel" points="1334.02,821.633 1334.02,904.233"/>
<polyline class="Stem" fill="none" stroke="#000000" stroke-width="3.25" stroke-linejoin="bevel" points="1093.64,334.132 1093.64,416.733"/>
<polyline class="Stem" fill="none" stroke="#000000" stroke-width="3.25" stroke-linejoin="bevel" points="1277.16,1771.63 1277.16,1854.23"/>
<polyline class="Stem" fill="none" stroke="#000000" stroke-width="3.25" stroke-linejoin="bevel" points="883.851,347.602 883.851,429.233"/>
<polyline class="Stem" fill="none" stroke="#000000" stroke-width="3.25" stroke-linejoin="bevel" points="1364.81,346.632 1364.81,429.233"/>
<polyline class="Stem" fill="none" stroke="#000000" stroke-width="3.25" stroke-linejoin="bevel" points="1015.53,1759.13 1015.53,1841.73"/>
<polyline class="Stem" fill="none" stroke="#000000" stroke-width="3.25" stroke-linejoin="bevel" points="1665.89,360.102 1665.89,435.483"/>
<polyline class="Stem" fill="none" stroke="#000000" stroke-width="3.25" stroke-linejoin="bevel" points="1846.67,335.102 1846.67,416.733"/>
<polyline class="Stem" fill="none" stroke="#000000" stroke-width="3.25" stroke-linejoin="bevel" points="2027.46,347.602 2027.46,429.233"/>
<polyline class="Stem" fill="none" stroke="#000000" stroke-width="3.25" stroke-linejoin="bevel" points="703.067,360.102 703.067,435.483"/>
<polyline class="Stem" fill="none" stroke="#000000" stroke-width="3.25" stroke-linejoin="bevel" points="2208.24,347.602 2208.24,429.233"/>
<polyline class="Stem" fill="none" stroke="#000000" stroke-width="3.25" stroke-linejoin="bevel" points="812.113,1772.6 812.113,1854.23"/>
<polyline class="Stem" fill="none" stroke="#000000" stroke-width="3.25" stroke-linejoin="bevel" points="2295.36,1784.13 2295.36,1860.48"/>
<polyline class="Stem" fill="none" stroke="#000000" stroke-width="3.25" stroke-linejoin="bevel" points="288.857,835.102 288.857,910.483"/>
<polyline class="Stem" fill="none" stroke="#000000" stroke-width="3.25" stroke-linejoin="bevel" points="637.695,1785.1 637.695,1860.48"/>
<polyline class="Stem" fill="none" stroke="#000000" stroke-width="3.25" stroke-linejoin="bevel" points="522.282,360.102 522.282,435.483"/>
<polyline class="Stem" fill="none" stroke="#000000" stroke-width="3.25" stroke-linejoin="bevel" points="473.615,835.102 473.615,910.483"/>
<polyline class="Stem" fill="none" stroke="#000000" stroke-width="3.25" stroke-linejoin="bevel" points="341.498,360.102 341.498,435.483"/>
<polyline class="Stem" fill="none" stroke="#000000" stroke-width="3.25" stroke-linejoin="bevel" points="658.372,835.102 658.372,910.483"/>
<polyline class="Stem" fill="none" stroke="#000000" stroke-width="3.25" stroke-linejoin="bevel" points="463.276,1785.1 463.276,1860.48"/>
<polyline class="Stem" fill="none" stroke="#000000" stroke-width="3.25" stroke-linejoin="bevel" points="843.129,822.602 843.129,904.233"/>
<polyline class="Stem" fill="none" stroke="#000000" stroke-width="3.25" stroke-linejoin="bevel" points="1568.69,1785.1 1568.69,1860.48"/>
<polyline class="Stem" fill="none" stroke="#000000" stroke-width="3.25" stroke-linejoin="bevel" points="1056.89,809.133 1056.89,891.733"/>
<polyline class="Stem" fill="none" stroke="#000000" stroke-width="3.25" stroke-linejoin="bevel" points="1743.11,1760.1 1743.11,1841.73"/>
<polyline class="Stem" fill="none" stroke="#000000" stroke-width="3.25" stroke-linejoin="bevel" points="288.857,1785.1 288.857,1860.48"/>
<path class="Note" d="M1829.32,1290.47 C1832.45,1290.47 1835.05,1291.25 1837.13,1292.81 C1839.22,1294.37 1840.26,1296.62 1840.26,1299.55 C1840.26,1304.04 1837.93,1308.23 1833.28,1312.14 C1828.63,1316.05 1823.63,1318 1818.29,1318 C1815.17,1318 1812.53,1317.19 1810.38,1315.56 C1808.36,1313.8 1807.35,1311.59 1807.35,1308.92 C1807.35,1304.56 1809.67,1300.39 1814.29,1296.42 C1818.92,1292.45 1823.93,1290.47 1829.32,1290.47"/>
<path class="Note" d="M1282.96,1777.37 C1284.84,1777.37 1288.8,1775.42 1294.82,1771.51 C1300.85,1767.61 1304.4,1764.99 1305.47,1763.66 C1306.55,1762.32 1307.08,1761.13 1307.08,1760.09 C1307.08,1759.05 1306.66,1758.12 1305.81,1757.31 C1304.96,1756.5 1303.98,1756.09 1302.88,1756.09 C1300.93,1756.09 1296.94,1758.06 1290.92,1762 C1284.89,1765.94 1281.36,1768.56 1280.32,1769.86 C1279.27,1771.16 1278.75,1772.33 1278.75,1773.37 C1278.75,1774.42 1279.16,1775.34 1279.98,1776.16 C1280.8,1776.97 1281.79,1777.37 1282.96,1777.37 M1301.91,1752.97 C1307.5,1752.97 1310.3,1755.37 1310.3,1760.19 C1310.3,1762.53 1309.62,1765.25 1308.25,1768.34 C1306.89,1771.44 1305.07,1773.8 1302.78,1775.42 C1297.77,1778.81 1291.49,1780.5 1283.94,1780.5 C1278.34,1780.5 1275.53,1778.09 1275.53,1773.28 C1275.53,1771.13 1276.2,1768.47 1277.53,1765.27 C1278.87,1762.08 1280.71,1759.67 1283.05,1758.05 C1288.07,1754.66 1294.36,1752.97 1301.91,1752.97"/>
<path class="Note" d="M1589.03,1765.47 C1592.16,1765.47 1594.76,1766.25 1596.85,1767.81 C1598.93,1769.37 1599.97,1771.62 1599.97,1774.55 C1599.97,1779.04 1597.65,1783.23 1592.99,1787.14 C1588.34,1791.05 1583.35,1793 1578,1793 C1574.88,1793 1572.24,1792.19 1570.1,1790.56 C1568.08,1788.8 1567.06,1786.59 1567.06,1783.92 C1567.06,1779.56 1569.38,1775.39 1574,1771.42 C1578.63,1767.45 1583.64,1765.47 1589.03,1765.47"/>
<path class="Note" d="M2017.29,1302.97 C2020.41,1302.97 2023.02,1303.75 2025.1,1305.31 C2027.18,1306.87 2028.22,1309.12 2028.22,1312.05 C2028.22,1316.54 2025.9,1320.73 2021.25,1324.64 C2016.6,1328.55 2011.6,1330.5 2006.25,1330.5 C2003.13,1330.5 2000.49,1329.69 1998.35,1328.06 C1996.33,1326.3 1995.32,1324.09 1995.32,1321.42 C1995.32,1317.06 1997.63,1312.89 2002.25,1308.92 C2006.88,1304.95 2011.89,1302.97 2017.29,1302.97"/>
<path class="Note" d="M1021.33,1764.87 C1023.21,1764.87 1027.17,1762.92 1033.2,1759.01 C1039.22,1755.11 1042.77,1752.49 1043.84,1751.16 C1044.92,1749.82 1045.45,1748.63 1045.45,1747.59 C1045.45,1746.55 1045.03,1745.62 1044.18,1744.81 C1043.33,1744 1042.35,1743.59 1041.25,1743.59 C1039.3,1743.59 1035.32,1745.56 1029.29,1749.5 C1023.26,1753.44 1019.73,1756.06 1018.69,1757.36 C1017.65,1758.66 1017.13,1759.83 1017.13,1760.87 C1017.13,1761.92 1017.53,1762.84 1018.35,1763.66 C1019.17,1764.47 1020.16,1764.87 1021.33,1764.87 M1040.28,1740.47 C1045.88,1740.47 1048.67,1742.87 1048.67,1747.69 C1048.67,1750.03 1047.99,1752.75 1046.63,1755.84 C1045.26,1758.94 1043.44,1761.3 1041.16,1762.92 C1036.15,1766.31 1029.87,1768 1022.31,1768 C1016.71,1768 1013.91,1765.59 1013.91,1760.78 C1013.91,1758.63 1014.57,1755.97 1015.91,1752.77 C1017.24,1749.58 1019.08,1747.17 1021.42,1745.55 C1026.44,1742.16 1032.73,1740.47 1040.28,1740.47"/>
<path class="Note" d="M2205.25,1315.47 C2208.38,1315.47 2210.98,1316.25 2213.06,1317.81 C2215.15,1319.37 2216.19,1321.62 2216.19,1324.55 C2216.19,1329.04 2213.86,1333.23 2209.21,1337.14 C2204.56,1341.05 2199.56,1343 2194.22,1343 C2191.09,1343 2188.46,1342.19 2186.31,1340.56 C2184.29,1338.8 2183.28,1336.59 2183.28,1333.92 C2183.28,1329.56 2185.59,1325.39 2190.22,1321.42 C2194.84,1317.45 2199.86,1315.47 2205.25,1315.47"/>
<path class="Note" d="M832.457,1752.97 C835.582,1752.97 838.186,1753.75 840.269,1755.31 C842.353,1756.87 843.394,1759.12 843.394,1762.05 C843.394,1766.54 841.069,1770.73 836.418,1774.64 C831.767,1778.55 826.769,1780.5 821.426,1780.5 C818.301,1780.5 815.665,1779.69 813.519,1778.06 C811.499,1776.3 810.488,1774.09 810.488,1771.42 C810.488,1767.06 812.801,1762.89 817.426,1758.92 C822.051,1754.95 827.061,1752.97 832.457,1752.97"/>
<path class="Note" d="M658.038,1765.47 C661.163,1765.47 663.768,1766.25 665.851,1767.81 C667.934,1769.37 668.976,1771.62 668.976,1774.55 C668.976,1779.04 666.65,1783.23 661.999,1787.14 C657.348,1791.05 652.351,1793 647.007,1793 C643.882,1793 641.247,1792.19 639.101,1790.56 C637.08,1788.8 636.07,1786.59 636.07,1783.92 C636.07,1779.56 638.382,1775.39 643.007,1771.42 C647.632,1767.45 652.643,1765.47 658.038,1765.47"/>
<path class="Note" d="M2417.34,1347.2 C2420.21,1351.05 2423.88,1352.97 2428.37,1352.97 C2432.86,1352.97 2435.11,1349.94 2435.11,1343.89 C2435.11,1341.01 2434.29,1338.47 2432.67,1336.26 C2429.87,1332.42 2426.09,1330.5 2421.34,1330.5 C2419.26,1330.5 2417.66,1331.36 2416.56,1333.08 C2415.46,1334.81 2414.9,1337.04 2414.9,1339.78 C2414.9,1342.52 2415.72,1344.99 2417.34,1347.2 M2407.67,1331.97 C2412.55,1329.3 2418.43,1327.97 2425.3,1327.97 C2432.17,1327.97 2437.97,1329.33 2442.68,1332.07 C2447.4,1334.8 2449.76,1338.06 2449.76,1341.83 C2449.76,1345.61 2447.32,1348.83 2442.43,1351.5 C2437.55,1354.17 2431.71,1355.5 2424.9,1355.5 C2418.1,1355.5 2412.29,1354.13 2407.47,1351.4 C2402.66,1348.66 2400.25,1345.38 2400.25,1341.54 C2400.25,1337.7 2402.72,1334.51 2407.67,1331.97"/>
<path class="Note" d="M483.62,1765.47 C486.745,1765.47 489.349,1766.25 491.432,1767.81 C493.516,1769.37 494.557,1771.62 494.557,1774.55 C494.557,1779.04 492.232,1783.23 487.581,1787.14 C482.93,1791.05 477.932,1793 472.589,1793 C469.464,1793 466.828,1792.19 464.682,1790.56 C462.661,1788.8 461.651,1786.59 461.651,1783.92 C461.651,1779.56 463.964,1775.39 468.589,1771.42 C473.214,1767.45 478.224,1765.47 483.62,1765.47"/>
<path class="Note" d="M309.201,1765.47 C312.326,1765.47 314.93,1766.25 317.014,1767.81 C319.097,1769.37 320.139,1771.62 320.139,1774.55 C320.139,1779.04 317.813,1783.23 313.162,1787.14 C308.511,1791.05 303.514,1793 298.17,1793 C295.045,1793 292.41,1792.19 290.264,1790.56 C288.243,1788.8 287.232,1786.59 287.232,1783.92 C287.232,1779.56 289.545,1775.39 294.17,1771.42 C298.795,1767.45 303.805,1765.47 309.201,1765.47"/>
<path class="Note" d="M1763.45,1740.47 C1766.58,1740.47 1769.18,1741.25 1771.26,1742.81 C1773.35,1744.37 1774.39,1746.62 1774.39,1749.55 C1774.39,1754.04 1772.06,1758.23 1767.41,1762.14 C1762.76,1766.05 1757.76,1768 1752.42,1768 C1749.3,1768 1746.66,1767.19 1744.51,1765.56 C1742.49,1763.8 1741.48,1761.59 1741.48,1758.92 C1741.48,1754.56 1743.8,1750.39 1748.42,1746.42 C1753.05,1742.45 1758.06,1740.47 1763.45,1740.47"/>
<path class="Note" d="M1314.96,1339.87 C1316.85,1339.87 1320.8,1337.92 1326.83,1334.01 C1332.85,1330.11 1336.4,1327.49 1337.48,1326.15 C1338.55,1324.82 1339.09,1323.63 1339.09,1322.59 C1339.09,1321.55 1338.66,1320.62 1337.81,1319.81 C1336.96,1319 1335.99,1318.59 1334.88,1318.59 C1332.93,1318.59 1328.95,1320.56 1322.92,1324.5 C1316.9,1328.44 1313.36,1331.06 1312.32,1332.36 C1311.28,1333.66 1310.76,1334.83 1310.76,1335.87 C1310.76,1336.92 1311.17,1337.84 1311.98,1338.65 C1312.8,1339.47 1313.79,1339.87 1314.96,1339.87 M1333.91,1315.47 C1339.51,1315.47 1342.3,1317.87 1342.3,1322.69 C1342.3,1325.03 1341.62,1327.75 1340.26,1330.84 C1338.89,1333.94 1337.07,1336.3 1334.79,1337.92 C1329.78,1341.31 1323.5,1343 1315.94,1343 C1310.34,1343 1307.54,1340.59 1307.54,1335.78 C1307.54,1333.63 1308.21,1330.96 1309.54,1327.77 C1310.87,1324.58 1312.71,1322.17 1315.05,1320.55 C1320.07,1317.16 1326.36,1315.47 1333.91,1315.47"/>
<path class="Note" d="M2301.16,1789.87 C2303.05,1789.87 2307,1787.92 2313.03,1784.01 C2319.05,1780.11 2322.6,1777.49 2323.68,1776.16 C2324.75,1774.82 2325.29,1773.63 2325.29,1772.59 C2325.29,1771.55 2324.86,1770.62 2324.01,1769.81 C2323.16,1769 2322.19,1768.59 2321.08,1768.59 C2319.14,1768.59 2315.15,1770.56 2309.12,1774.5 C2303.1,1778.44 2299.56,1781.06 2298.52,1782.36 C2297.48,1783.66 2296.96,1784.83 2296.96,1785.87 C2296.96,1786.92 2297.37,1787.84 2298.18,1788.66 C2299,1789.47 2299.99,1789.87 2301.16,1789.87 M2320.11,1765.47 C2325.71,1765.47 2328.5,1767.87 2328.5,1772.69 C2328.5,1775.03 2327.82,1777.75 2326.46,1780.84 C2325.09,1783.94 2323.27,1786.3 2320.99,1787.92 C2315.98,1791.31 2309.7,1793 2302.15,1793 C2296.54,1793 2293.74,1790.59 2293.74,1785.78 C2293.74,1783.63 2294.41,1780.97 2295.74,1777.77 C2297.07,1774.58 2298.91,1772.17 2301.25,1770.55 C2306.28,1767.16 2312.56,1765.47 2320.11,1765.47"/>
<path class="Note" d="M361.842,340.467 C364.967,340.467 367.571,341.248 369.654,342.811 C371.738,344.373 372.779,346.618 372.779,349.545 C372.779,354.035 370.454,358.232 365.803,362.139 C361.152,366.045 356.154,367.998 350.811,367.998 C347.686,367.998 345.05,367.186 342.904,365.561 C340.884,363.8 339.873,361.587 339.873,358.92 C339.873,354.555 342.186,350.389 346.811,346.42 C351.436,342.451 356.446,340.467 361.842,340.467"/>
<path class="Note" d="M542.626,340.467 C545.751,340.467 548.355,341.248 550.439,342.811 C552.522,344.373 553.564,346.618 553.564,349.545 C553.564,354.035 551.238,358.232 546.587,362.139 C541.936,366.045 536.939,367.998 531.595,367.998 C528.47,367.998 525.834,367.186 523.689,365.561 C521.668,363.8 520.657,361.587 520.657,358.92 C520.657,354.555 522.97,350.389 527.595,346.42 C532.22,342.451 537.23,340.467 542.626,340.467"/>
<path class="Note" d="M723.41,340.467 C726.535,340.467 729.14,341.248 731.223,342.811 C733.306,344.373 734.348,346.618 734.348,349.545 C734.348,354.035 732.022,358.232 727.371,362.139 C722.72,366.045 717.723,367.998 712.379,367.998 C709.254,367.998 706.619,367.186 704.473,365.561 C702.452,363.8 701.442,361.587 701.442,358.92 C701.442,354.555 703.754,350.389 708.379,346.42 C713.004,342.451 718.015,340.467 723.41,340.467"/>
<path class="Note" d="M904.195,327.967 C907.32,327.967 909.924,328.748 912.007,330.311 C914.091,331.873 915.132,334.118 915.132,337.045 C915.132,341.535 912.807,345.732 908.156,349.639 C903.505,353.545 898.507,355.498 893.164,355.498 C890.039,355.498 887.403,354.686 885.257,353.061 C883.236,351.3 882.226,349.087 882.226,346.42 C882.226,342.055 884.539,337.889 889.164,333.92 C893.789,329.951 898.799,327.967 904.195,327.967"/>
<path class="Note" d="M1099.43,339.873 C1101.32,339.873 1105.27,337.92 1111.3,334.014 C1117.33,330.107 1120.87,327.488 1121.95,326.154 C1123.02,324.821 1123.56,323.634 1123.56,322.592 C1123.56,321.55 1123.13,320.623 1122.28,319.811 C1121.43,318.998 1120.46,318.592 1119.35,318.592 C1117.41,318.592 1113.42,320.561 1107.39,324.498 C1101.37,328.436 1097.83,331.055 1096.79,332.357 C1095.75,333.66 1095.23,334.831 1095.23,335.873 C1095.23,336.915 1095.64,337.842 1096.46,338.654 C1097.27,339.467 1098.27,339.873 1099.43,339.873 M1118.39,315.467 C1123.98,315.467 1126.78,317.873 1126.78,322.686 C1126.78,325.029 1126.09,327.748 1124.73,330.842 C1123.36,333.936 1121.54,336.295 1119.26,337.92 C1114.25,341.305 1107.97,342.998 1100.42,342.998 C1094.81,342.998 1092.01,340.592 1092.01,335.779 C1092.01,333.634 1092.68,330.964 1094.01,327.772 C1095.34,324.579 1097.18,322.17 1099.53,320.545 C1104.55,317.16 1110.83,315.467 1118.39,315.467"/>
<path class="Note" d="M1370.61,352.373 C1372.49,352.373 1376.45,350.42 1382.48,346.514 C1388.5,342.607 1392.05,339.988 1393.12,338.654 C1394.2,337.321 1394.73,336.134 1394.73,335.092 C1394.73,334.05 1394.31,333.123 1393.46,332.311 C1392.61,331.498 1391.63,331.092 1390.53,331.092 C1388.58,331.092 1384.6,333.061 1378.57,336.998 C1372.54,340.936 1369.01,343.555 1367.97,344.857 C1366.93,346.16 1366.41,347.331 1366.41,348.373 C1366.41,349.415 1366.81,350.342 1367.63,351.154 C1368.45,351.967 1369.44,352.373 1370.61,352.373 M1389.56,327.967 C1395.16,327.967 1397.95,330.373 1397.95,335.186 C1397.95,337.529 1397.27,340.248 1395.91,343.342 C1394.54,346.436 1392.72,348.795 1390.44,350.42 C1385.43,353.805 1379.15,355.498 1371.59,355.498 C1365.99,355.498 1363.19,353.092 1363.19,348.279 C1363.19,346.134 1363.85,343.464 1365.19,340.272 C1366.52,337.079 1368.36,334.67 1370.7,333.045 C1375.72,329.66 1382.01,327.967 1389.56,327.967"/>
<path class="Note" d="M1686.23,340.467 C1689.36,340.467 1691.96,341.248 1694.05,342.811 C1696.13,344.373 1697.17,346.618 1697.17,349.545 C1697.17,354.035 1694.85,358.232 1690.2,362.139 C1685.54,366.045 1680.55,367.998 1675.2,367.998 C1672.08,367.998 1669.44,367.186 1667.3,365.561 C1665.28,363.8 1664.27,361.587 1664.27,358.92 C1664.27,354.555 1666.58,350.389 1671.2,346.42 C1675.83,342.451 1680.84,340.467 1686.23,340.467"/>
<path class="Note" d="M1867.02,315.467 C1870.14,315.467 1872.75,316.248 1874.83,317.811 C1876.91,319.373 1877.96,321.618 1877.96,324.545 C1877.96,329.035 1875.63,333.232 1870.98,337.139 C1866.33,341.045 1861.33,342.998 1855.99,342.998 C1852.86,342.998 1850.23,342.186 1848.08,340.561 C1846.06,338.8 1845.05,336.587 1845.05,333.92 C1845.05,329.555 1847.36,325.389 1851.99,321.42 C1856.61,317.451 1861.62,315.467 1867.02,315.467"/>
<path class="Note" d="M2047.8,327.967 C2050.93,327.967 2053.53,328.748 2055.62,330.311 C2057.7,331.873 2058.74,334.118 2058.74,337.045 C2058.74,341.535 2056.41,345.732 2051.76,349.639 C2047.11,353.545 2042.12,355.498 2036.77,355.498 C2033.65,355.498 2031.01,354.686 2028.87,353.061 C2026.84,351.3 2025.83,349.087 2025.83,346.42 C2025.83,342.055 2028.15,337.889 2032.77,333.92 C2037.4,329.951 2042.41,327.967 2047.8,327.967"/>
<path class="Note" d="M2228.59,327.967 C2231.71,327.967 2234.32,328.748 2236.4,330.311 C2238.48,331.873 2239.52,334.118 2239.52,337.045 C2239.52,341.535 2237.2,345.732 2232.55,349.639 C2227.9,353.545 2222.9,355.498 2217.56,355.498 C2214.43,355.498 2211.8,354.686 2209.65,353.061 C2207.63,351.3 2206.62,349.087 2206.62,346.42 C2206.62,342.055 2208.93,337.889 2213.56,333.92 C2218.18,329.951 2223.19,327.967 2228.59,327.967"/>
<path class="Note" d="M2433.5,359.701 C2436.36,363.545 2440.04,365.467 2444.53,365.467 C2449.02,365.467 2451.26,362.441 2451.26,356.389 C2451.26,353.514 2450.45,350.972 2448.82,348.764 C2446.02,344.92 2442.25,342.998 2437.5,342.998 C2435.41,342.998 2433.82,343.86 2432.72,345.584 C2431.61,347.308 2431.06,349.54 2431.06,352.279 C2431.06,355.019 2431.87,357.493 2433.5,359.701 M2423.82,344.467 C2428.71,341.8 2434.59,340.467 2441.46,340.467 C2448.33,340.467 2454.12,341.834 2458.84,344.568 C2463.56,347.303 2465.92,350.558 2465.92,354.334 C2465.92,358.11 2463.48,361.331 2458.59,363.998 C2453.7,366.665 2447.86,367.998 2441.06,367.998 C2434.26,367.998 2428.45,366.631 2423.63,363.897 C2418.81,361.162 2416.4,357.876 2416.4,354.037 C2416.4,350.199 2418.88,347.009 2423.82,344.467"/>
<path class="Note" d="M309.201,815.467 C312.326,815.467 314.93,816.248 317.014,817.811 C319.097,819.373 320.139,821.618 320.139,824.545 C320.139,829.035 317.813,833.233 313.162,837.139 C308.511,841.045 303.514,842.998 298.17,842.998 C295.045,842.998 292.41,842.186 290.264,840.561 C288.243,838.801 287.232,836.587 287.232,833.92 C287.232,829.556 289.545,825.389 294.17,821.42 C298.795,817.452 303.805,815.467 309.201,815.467"/>
<path class="Note" d="M493.958,815.467 C497.083,815.467 499.688,816.248 501.771,817.811 C503.854,819.373 504.896,821.618 504.896,824.545 C504.896,829.035 502.57,833.233 497.919,837.139 C493.268,841.045 488.271,842.998 482.927,842.998 C479.802,842.998 477.167,842.186 475.021,840.561 C473,838.801 471.99,836.587 471.99,833.92 C471.99,829.556 474.302,825.389 478.927,821.42 C483.552,817.452 488.563,815.467 493.958,815.467"/>
<path class="Note" d="M678.716,815.467 C681.841,815.467 684.445,816.248 686.528,817.811 C688.611,819.373 689.653,821.618 689.653,824.545 C689.653,829.035 687.328,833.233 682.677,837.139 C678.025,841.045 673.028,842.998 667.684,842.998 C664.559,842.998 661.924,842.186 659.778,840.561 C657.757,838.801 656.747,836.587 656.747,833.92 C656.747,829.556 659.059,825.389 663.684,821.42 C668.309,817.452 673.32,815.467 678.716,815.467"/>
<path class="Note" d="M1062.68,814.873 C1064.57,814.873 1068.52,812.92 1074.55,809.014 C1080.58,805.108 1084.13,802.488 1085.2,801.155 C1086.27,799.821 1086.81,798.634 1086.81,797.592 C1086.81,796.55 1086.38,795.623 1085.53,794.811 C1084.69,793.998 1083.71,793.592 1082.6,793.592 C1080.66,793.592 1076.67,795.561 1070.64,799.498 C1064.62,803.436 1061.08,806.056 1060.04,807.358 C1059,808.66 1058.48,809.832 1058.48,810.873 C1058.48,811.915 1058.89,812.842 1059.71,813.655 C1060.52,814.467 1061.52,814.873 1062.68,814.873 M1081.64,790.467 C1087.23,790.467 1090.03,792.873 1090.03,797.686 C1090.03,800.03 1089.34,802.748 1087.98,805.842 C1086.62,808.936 1084.79,811.295 1082.51,812.92 C1077.5,816.306 1071.22,817.998 1063.67,817.998 C1058.06,817.998 1055.26,815.592 1055.26,810.78 C1055.26,808.634 1055.93,805.965 1057.26,802.772 C1058.59,799.579 1060.43,797.17 1062.78,795.545 C1067.8,792.16 1074.08,790.467 1081.64,790.467"/>
<path class="Note" d="M1641.36,1277.97 C1644.48,1277.97 1647.09,1278.75 1649.17,1280.31 C1651.25,1281.87 1652.29,1284.12 1652.29,1287.05 C1652.29,1291.54 1649.97,1295.73 1645.32,1299.64 C1640.67,1303.55 1635.67,1305.5 1630.33,1305.5 C1627.2,1305.5 1624.57,1304.69 1622.42,1303.06 C1620.4,1301.3 1619.39,1299.09 1619.39,1296.42 C1619.39,1292.06 1621.7,1287.89 1626.33,1283.92 C1630.95,1279.95 1635.96,1277.97 1641.36,1277.97"/>
<path class="Note" d="M1033.01,1339.87 C1034.9,1339.87 1038.85,1337.92 1044.88,1334.01 C1050.91,1330.11 1054.46,1327.49 1055.53,1326.15 C1056.6,1324.82 1057.14,1323.63 1057.14,1322.59 C1057.14,1321.55 1056.71,1320.62 1055.86,1319.81 C1055.02,1319 1054.04,1318.59 1052.94,1318.59 C1050.99,1318.59 1047,1320.56 1040.97,1324.5 C1034.95,1328.44 1031.41,1331.06 1030.37,1332.36 C1029.33,1333.66 1028.81,1334.83 1028.81,1335.87 C1028.81,1336.92 1029.22,1337.84 1030.04,1338.65 C1030.85,1339.47 1031.85,1339.87 1033.01,1339.87 M1051.97,1315.47 C1057.56,1315.47 1060.36,1317.87 1060.36,1322.69 C1060.36,1325.03 1059.67,1327.75 1058.31,1330.84 C1056.95,1333.94 1055.12,1336.3 1052.84,1337.92 C1047.83,1341.31 1041.55,1343 1034,1343 C1028.39,1343 1025.59,1340.59 1025.59,1335.78 C1025.59,1333.63 1026.26,1330.96 1027.59,1327.77 C1028.92,1324.58 1030.76,1322.17 1033.11,1320.55 C1038.13,1317.16 1044.41,1315.47 1051.97,1315.47"/>
<path class="Note" d="M830.595,1277.97 C833.72,1277.97 836.325,1278.75 838.408,1280.31 C840.491,1281.87 841.533,1284.12 841.533,1287.05 C841.533,1291.54 839.207,1295.73 834.556,1299.64 C829.905,1303.55 824.908,1305.5 819.564,1305.5 C816.439,1305.5 813.804,1304.69 811.658,1303.06 C809.637,1301.3 808.627,1299.09 808.627,1296.42 C808.627,1292.06 810.939,1287.89 815.564,1283.92 C820.189,1279.95 825.2,1277.97 830.595,1277.97"/>
<path class="Note" d="M642.631,1277.97 C645.756,1277.97 648.36,1278.75 650.443,1280.31 C652.526,1281.87 653.568,1284.12 653.568,1287.05 C653.568,1291.54 651.243,1295.73 646.592,1299.64 C641.941,1303.55 636.943,1305.5 631.599,1305.5 C628.474,1305.5 625.839,1304.69 623.693,1303.06 C621.672,1301.3 620.662,1299.09 620.662,1296.42 C620.662,1292.06 622.974,1287.89 627.599,1283.92 C632.224,1279.95 637.235,1277.97 642.631,1277.97"/>
<path class="Note" d="M454.666,1277.97 C457.791,1277.97 460.395,1278.75 462.478,1280.31 C464.562,1281.87 465.603,1284.12 465.603,1287.05 C465.603,1291.54 463.278,1295.73 458.627,1299.64 C453.976,1303.55 448.978,1305.5 443.635,1305.5 C440.51,1305.5 437.874,1304.69 435.728,1303.06 C433.708,1301.3 432.697,1299.09 432.697,1296.42 C432.697,1292.06 435.01,1287.89 439.635,1283.92 C444.26,1279.95 449.27,1277.97 454.666,1277.97"/>
<path class="Note" d="M266.701,1277.97 C269.826,1277.97 272.43,1278.75 274.514,1280.31 C276.597,1281.87 277.639,1284.12 277.639,1287.05 C277.639,1291.54 275.313,1295.73 270.662,1299.64 C266.011,1303.55 261.014,1305.5 255.67,1305.5 C252.545,1305.5 249.91,1304.69 247.764,1303.06 C245.743,1301.3 244.732,1299.09 244.732,1296.42 C244.732,1292.06 247.045,1287.89 251.67,1283.92 C256.295,1279.95 261.305,1277.97 266.701,1277.97"/>
<path class="Note" d="M1937.87,1752.97 C1941,1752.97 1943.6,1753.75 1945.68,1755.31 C1947.77,1756.87 1948.81,1759.12 1948.81,1762.05 C1948.81,1766.54 1946.48,1770.73 1941.83,1774.64 C1937.18,1778.55 1932.18,1780.5 1926.84,1780.5 C1923.71,1780.5 1921.08,1779.69 1918.93,1778.06 C1916.91,1776.3 1915.9,1774.09 1915.9,1771.42 C1915.9,1767.06 1918.21,1762.89 1922.84,1758.92 C1927.46,1754.95 1932.47,1752.97 1937.87,1752.97"/>
<path class="Note" d="M2424.56,834.702 C2427.42,838.545 2431.1,840.467 2435.59,840.467 C2440.08,840.467 2442.32,837.441 2442.32,831.389 C2442.32,828.514 2441.51,825.972 2439.89,823.764 C2437.08,819.92 2433.31,817.998 2428.56,817.998 C2426.47,817.998 2424.88,818.86 2423.78,820.584 C2422.67,822.308 2422.12,824.54 2422.12,827.28 C2422.12,830.019 2422.93,832.493 2424.56,834.702 M2414.89,819.467 C2419.77,816.801 2425.65,815.467 2432.52,815.467 C2439.39,815.467 2445.18,816.834 2449.9,819.569 C2454.62,822.303 2456.98,825.558 2456.98,829.334 C2456.98,833.11 2454.54,836.332 2449.65,838.998 C2444.77,841.665 2438.92,842.998 2432.12,842.998 C2425.32,842.998 2419.51,841.631 2414.69,838.897 C2409.87,836.162 2407.46,832.876 2407.46,829.037 C2407.46,825.199 2409.94,822.009 2414.89,819.467"/>
<path class="Note" d="M2112.29,1752.97 C2115.41,1752.97 2118.02,1753.75 2120.1,1755.31 C2122.19,1756.87 2123.23,1759.12 2123.23,1762.05 C2123.23,1766.54 2120.9,1770.73 2116.25,1774.64 C2111.6,1778.55 2106.6,1780.5 2101.26,1780.5 C2098.13,1780.5 2095.5,1779.69 2093.35,1778.06 C2091.33,1776.3 2090.32,1774.09 2090.32,1771.42 C2090.32,1767.06 2092.63,1762.89 2097.26,1758.92 C2101.88,1754.95 2106.89,1752.97 2112.29,1752.97"/>
<path class="Note" d="M2215.68,802.967 C2218.8,802.967 2221.4,803.748 2223.49,805.311 C2225.57,806.873 2226.61,809.118 2226.61,812.045 C2226.61,816.535 2224.29,820.733 2219.64,824.639 C2214.99,828.545 2209.99,830.498 2204.64,830.498 C2201.52,830.498 2198.88,829.686 2196.74,828.061 C2194.72,826.3 2193.71,824.087 2193.71,821.42 C2193.71,817.056 2196.02,812.889 2200.64,808.92 C2205.27,804.952 2210.28,802.967 2215.68,802.967"/>
<path class="Note" d="M2030.92,802.967 C2034.04,802.967 2036.65,803.748 2038.73,805.311 C2040.81,806.873 2041.86,809.118 2041.86,812.045 C2041.86,816.535 2039.53,820.733 2034.88,824.639 C2030.23,828.545 2025.23,830.498 2019.89,830.498 C2016.76,830.498 2014.13,829.686 2011.98,828.061 C2009.96,826.3 2008.95,824.087 2008.95,821.42 C2008.95,817.056 2011.26,812.889 2015.89,808.92 C2020.51,804.952 2025.52,802.967 2030.92,802.967"/>
<path class="Note" d="M1846.16,790.467 C1849.29,790.467 1851.89,791.248 1853.97,792.811 C1856.06,794.373 1857.1,796.618 1857.1,799.545 C1857.1,804.035 1854.77,808.233 1850.12,812.139 C1845.47,816.045 1840.47,817.998 1835.13,817.998 C1832,817.998 1829.37,817.186 1827.22,815.561 C1825.2,813.8 1824.19,811.587 1824.19,808.92 C1824.19,804.556 1826.5,800.389 1831.13,796.42 C1835.75,792.452 1840.77,790.467 1846.16,790.467"/>
<path class="Note" d="M1661.4,815.467 C1664.53,815.467 1667.13,816.248 1669.22,817.811 C1671.3,819.373 1672.34,821.618 1672.34,824.545 C1672.34,829.035 1670.02,833.233 1665.36,837.139 C1660.71,841.045 1655.72,842.998 1650.37,842.998 C1647.25,842.998 1644.61,842.186 1642.47,840.561 C1640.45,838.801 1639.44,836.587 1639.44,833.92 C1639.44,829.556 1641.75,825.389 1646.37,821.42 C1651,817.452 1656.01,815.467 1661.4,815.467"/>
<path class="Note" d="M1339.82,827.373 C1341.7,827.373 1345.66,825.42 1351.69,821.514 C1357.71,817.608 1361.26,814.988 1362.33,813.655 C1363.41,812.321 1363.94,811.134 1363.94,810.092 C1363.94,809.05 1363.52,808.123 1362.67,807.311 C1361.82,806.498 1360.84,806.092 1359.74,806.092 C1357.79,806.092 1353.81,808.061 1347.78,811.998 C1341.75,815.936 1338.22,818.556 1337.18,819.858 C1336.14,821.16 1335.62,822.332 1335.62,823.373 C1335.62,824.415 1336.02,825.342 1336.84,826.155 C1337.66,826.967 1338.65,827.373 1339.82,827.373 M1358.77,802.967 C1364.37,802.967 1367.16,805.373 1367.16,810.186 C1367.16,812.53 1366.48,815.248 1365.12,818.342 C1363.75,821.436 1361.93,823.795 1359.65,825.42 C1354.64,828.806 1348.36,830.498 1340.8,830.498 C1335.2,830.498 1332.4,828.092 1332.4,823.28 C1332.4,821.134 1333.06,818.465 1334.4,815.272 C1335.73,812.079 1337.57,809.67 1339.91,808.045 C1344.93,804.66 1351.22,802.967 1358.77,802.967"/>
<path class="Note" d="M863.473,802.967 C866.598,802.967 869.202,803.748 871.285,805.311 C873.369,806.873 874.41,809.118 874.41,812.045 C874.41,816.535 872.085,820.733 867.434,824.639 C862.783,828.545 857.785,830.498 852.442,830.498 C849.317,830.498 846.681,829.686 844.535,828.061 C842.514,826.3 841.504,824.087 841.504,821.42 C841.504,817.056 843.817,812.889 848.442,808.92 C853.067,804.952 858.077,802.967 863.473,802.967"/>
<path class="Clef" d="M203.623,423.858 L203.623,421.717 C203.56,420.613 203.399,418.889 203.139,416.545 C199.889,417.066 196.993,417.326 194.451,417.326 C185.337,417.326 177.605,413.727 171.256,406.529 C164.907,399.331 161.732,390.753 161.732,380.795 C161.732,378.128 162.253,374.923 163.295,371.178 C164.337,367.433 165.297,364.925 166.178,363.654 C167.058,362.384 168.378,360.154 170.139,356.967 C170.659,355.988 172.352,353.837 175.217,350.514 C175.738,349.805 176.193,349.222 176.584,348.764 C176.975,348.305 177.607,347.49 178.482,346.318 C179.357,345.147 180.3,344.055 181.31,343.045 C182.321,342.035 183.217,341.058 183.998,340.115 C184.779,339.173 185.498,338.378 186.154,337.733 C183.81,329.983 182.378,324.024 181.857,319.858 C181.337,315.691 181.076,310.579 181.076,304.522 C181.076,298.464 182.378,292.962 184.982,288.014 C187.514,282.878 191.06,278.68 195.623,275.42 C195.883,275.222 196.225,275.123 196.646,275.123 C197.068,275.123 197.378,275.222 197.576,275.42 C201.087,279.649 204.128,285.149 206.701,291.92 C209.274,298.691 210.56,305.024 210.56,310.92 C210.56,316.816 209.066,322.498 206.076,327.967 C202.691,333.759 198.326,339.748 192.982,345.936 C194.347,350.227 196.17,356.962 198.451,366.139 L199.045,366.139 C199.305,366.076 199.529,366.045 199.717,366.045 C207.081,366.045 213.089,368.634 217.74,373.811 C222.391,378.988 224.717,384.962 224.717,391.733 C224.717,400.128 221.238,406.899 214.279,412.045 C212.258,413.545 209.878,414.717 207.139,415.561 C207.472,419.79 207.639,422.605 207.639,424.006 C207.639,425.407 207.571,427.899 207.435,431.483 C207.373,437.597 205.29,442.837 201.185,447.201 C197.081,451.566 192.394,453.748 187.123,453.748 C181.852,453.748 177.36,451.876 173.646,448.131 C169.933,444.386 168.076,439.847 168.076,434.514 C168.076,431.712 169.154,429.331 171.31,427.373 C173.519,425.425 176.006,424.451 178.771,424.451 C181.537,424.451 183.8,425.462 185.56,427.483 C187.383,429.368 188.295,431.644 188.295,434.311 C188.295,436.977 187.383,439.222 185.56,441.045 C183.738,442.868 181.555,443.779 179.014,443.779 C177.972,443.779 176.967,443.587 175.998,443.201 C178.863,447.43 182.54,449.545 187.029,449.545 C191.519,449.545 195.36,447.691 198.553,443.983 C201.745,440.274 203.342,435.91 203.342,430.889 L203.623,423.858 M206.748,411.561 C210.133,410.321 212.821,408.123 214.81,404.967 C216.8,401.811 217.795,398.67 217.795,395.545 C217.795,390.92 216.199,386.785 213.006,383.139 C209.813,379.493 205.774,377.441 200.889,376.983 C203.691,390.722 205.644,402.248 206.748,411.561 M168.967,388.998 C168.967,395.446 171.537,401.079 176.678,405.897 C181.818,410.714 187.842,413.123 194.748,413.123 C197.477,413.123 200.144,412.925 202.748,412.529 C201.706,402.634 199.654,390.785 196.592,376.983 C192.758,377.378 189.782,378.699 187.662,380.943 C185.542,383.188 184.482,385.743 184.482,388.608 C184.482,393.555 187.123,397.561 192.404,400.623 C192.852,400.884 193.076,401.324 193.076,401.943 C193.076,402.563 192.865,403.1 192.443,403.553 C192.021,404.006 191.649,404.233 191.326,404.233 C191.003,404.233 190.581,404.17 190.06,404.045 C182.435,399.878 178.623,393.592 178.623,385.186 C178.623,381.217 180.024,377.41 182.826,373.764 C185.753,370.118 189.56,367.774 194.248,366.733 C192.425,359.441 190.93,353.743 189.764,349.639 C180.847,359.67 175.31,367.092 173.154,371.904 C170.363,378.154 168.967,383.852 168.967,388.998 M201.576,289.686 C196.691,292.092 192.834,295.574 190.006,300.131 C187.178,304.688 185.764,309.472 185.764,314.483 C185.764,319.493 186.935,325.972 189.279,333.92 C193.967,328.253 197.514,322.946 199.92,317.998 C202.326,313.05 203.529,308.152 203.529,303.303 C203.529,298.454 202.878,293.915 201.576,289.686"/>
<path class="Clef" d="M203.623,1848.86 L203.623,1846.72 C203.56,1845.61 203.399,1843.89 203.139,1841.55 C199.889,1842.07 196.993,1842.33 194.451,1842.33 C185.337,1842.33 177.605,1838.73 171.256,1831.53 C164.907,1824.33 161.732,1815.75 161.732,1805.8 C161.732,1803.13 162.253,1799.92 163.295,1796.18 C164.337,1792.43 165.297,1789.93 166.178,1788.66 C167.058,1787.38 168.378,1785.16 170.139,1781.97 C170.659,1780.99 172.352,1778.84 175.217,1775.51 C175.738,1774.81 176.193,1774.22 176.584,1773.76 C176.975,1773.31 177.607,1772.49 178.482,1771.32 C179.357,1770.15 180.3,1769.06 181.31,1768.05 C182.321,1767.04 183.217,1766.06 183.998,1765.12 C184.779,1764.17 185.498,1763.38 186.154,1762.73 C183.81,1754.98 182.378,1749.03 181.857,1744.86 C181.337,1740.69 181.076,1735.58 181.076,1729.52 C181.076,1723.47 182.378,1717.96 184.982,1713.01 C187.514,1707.88 191.06,1703.68 195.623,1700.42 C195.883,1700.22 196.225,1700.12 196.646,1700.12 C197.068,1700.12 197.378,1700.22 197.576,1700.42 C201.087,1704.65 204.128,1710.15 206.701,1716.92 C209.274,1723.69 210.56,1730.03 210.56,1735.92 C210.56,1741.82 209.066,1747.5 206.076,1752.97 C202.691,1758.76 198.326,1764.75 192.982,1770.94 C194.347,1775.23 196.17,1781.96 198.451,1791.14 L199.045,1791.14 C199.305,1791.08 199.529,1791.05 199.717,1791.05 C207.081,1791.05 213.089,1793.63 217.74,1798.81 C222.391,1803.99 224.717,1809.96 224.717,1816.73 C224.717,1825.13 221.238,1831.9 214.279,1837.05 C212.258,1838.55 209.878,1839.72 207.139,1840.56 C207.472,1844.79 207.639,1847.61 207.639,1849.01 C207.639,1850.41 207.571,1852.9 207.435,1856.48 C207.373,1862.6 205.29,1867.84 201.185,1872.2 C197.081,1876.57 192.394,1878.75 187.123,1878.75 C181.852,1878.75 177.36,1876.88 173.646,1873.13 C169.933,1869.39 168.076,1864.85 168.076,1859.51 C168.076,1856.71 169.154,1854.33 171.31,1852.37 C173.519,1850.43 176.006,1849.45 178.771,1849.45 C181.537,1849.45 183.8,1850.46 185.56,1852.48 C187.383,1854.37 188.295,1856.64 188.295,1859.31 C188.295,1861.98 187.383,1864.22 185.56,1866.05 C183.738,1867.87 181.555,1868.78 179.014,1868.78 C177.972,1868.78 176.967,1868.59 175.998,1868.2 C178.863,1872.43 182.54,1874.55 187.029,1874.55 C191.519,1874.55 195.36,1872.69 198.553,1868.98 C201.745,1865.28 203.342,1860.91 203.342,1855.89 L203.623,1848.86 M206.748,1836.56 C210.133,1835.32 212.821,1833.12 214.81,1829.97 C216.8,1826.81 217.795,1823.67 217.795,1820.55 C217.795,1815.92 216.199,1811.79 213.006,1808.14 C209.813,1804.49 205.774,1802.44 200.889,1801.98 C203.691,1815.72 205.644,1827.25 206.748,1836.56 M168.967,1814 C168.967,1820.45 171.537,1826.08 176.678,1830.9 C181.818,1835.72 187.842,1838.12 194.748,1838.12 C197.477,1838.12 200.144,1837.93 202.748,1837.53 C201.706,1827.63 199.654,1815.79 196.592,1801.98 C192.758,1802.38 189.782,1803.7 187.662,1805.94 C185.542,1808.19 184.482,1810.74 184.482,1813.61 C184.482,1818.56 187.123,1822.56 192.404,1825.62 C192.852,1825.88 193.076,1826.32 193.076,1826.94 C193.076,1827.56 192.865,1828.1 192.443,1828.55 C192.021,1829.01 191.649,1829.23 191.326,1829.23 C191.003,1829.23 190.581,1829.17 190.06,1829.05 C182.435,1824.88 178.623,1818.59 178.623,1810.19 C178.623,1806.22 180.024,1802.41 182.826,1798.76 C185.753,1795.12 189.56,1792.78 194.248,1791.73 C192.425,1784.44 190.93,1778.74 189.764,1774.64 C180.847,1784.67 175.31,1792.09 173.154,1796.91 C170.363,1803.16 168.967,1808.85 168.967,1814 M201.576,1714.69 C196.691,1717.09 192.834,1720.57 190.006,1725.13 C187.178,1729.69 185.764,1734.47 185.764,1739.48 C185.764,1744.49 186.935,1750.97 189.279,1758.92 C193.967,1753.25 197.514,1747.95 199.92,1743 C202.326,1738.05 203.529,1733.15 203.529,1728.3 C203.529,1723.45 202.878,1718.92 201.576,1714.69"/>
<path class="Clef" d="M203.623,1373.86 L203.623,1371.72 C203.56,1370.61 203.399,1368.89 203.139,1366.55 C199.889,1367.07 196.993,1367.33 194.451,1367.33 C185.337,1367.33 177.605,1363.73 171.256,1356.53 C164.907,1349.33 161.732,1340.75 161.732,1330.8 C161.732,1328.13 162.253,1324.92 163.295,1321.18 C164.337,1317.43 165.297,1314.93 166.178,1313.65 C167.058,1312.38 168.378,1310.15 170.139,1306.97 C170.659,1305.99 172.352,1303.84 175.217,1300.51 C175.738,1299.81 176.193,1299.22 176.584,1298.76 C176.975,1298.31 177.607,1297.49 178.482,1296.32 C179.357,1295.15 180.3,1294.06 181.31,1293.05 C182.321,1292.04 183.217,1291.06 183.998,1290.12 C184.779,1289.17 185.498,1288.38 186.154,1287.73 C183.81,1279.98 182.378,1274.02 181.857,1269.86 C181.337,1265.69 181.076,1260.58 181.076,1254.52 C181.076,1248.46 182.378,1242.96 184.982,1238.01 C187.514,1232.88 191.06,1228.68 195.623,1225.42 C195.883,1225.22 196.225,1225.12 196.646,1225.12 C197.068,1225.12 197.378,1225.22 197.576,1225.42 C201.087,1229.65 204.128,1235.15 206.701,1241.92 C209.274,1248.69 210.56,1255.02 210.56,1260.92 C210.56,1266.82 209.066,1272.5 206.076,1277.97 C202.691,1283.76 198.326,1289.75 192.982,1295.94 C194.347,1300.23 196.17,1306.96 198.451,1316.14 L199.045,1316.14 C199.305,1316.08 199.529,1316.05 199.717,1316.05 C207.081,1316.05 213.089,1318.63 217.74,1323.81 C222.391,1328.99 224.717,1334.96 224.717,1341.73 C224.717,1350.13 221.238,1356.9 214.279,1362.05 C212.258,1363.55 209.878,1364.72 207.139,1365.56 C207.472,1369.79 207.639,1372.61 207.639,1374.01 C207.639,1375.41 207.571,1377.9 207.435,1381.48 C207.373,1387.6 205.29,1392.84 201.185,1397.2 C197.081,1401.57 192.394,1403.75 187.123,1403.75 C181.852,1403.75 177.36,1401.88 173.646,1398.13 C169.933,1394.39 168.076,1389.85 168.076,1384.51 C168.076,1381.71 169.154,1379.33 171.31,1377.37 C173.519,1375.43 176.006,1374.45 178.771,1374.45 C181.537,1374.45 183.8,1375.46 185.56,1377.48 C187.383,1379.37 188.295,1381.64 188.295,1384.31 C188.295,1386.98 187.383,1389.22 185.56,1391.05 C183.738,1392.87 181.555,1393.78 179.014,1393.78 C177.972,1393.78 176.967,1393.59 175.998,1393.2 C178.863,1397.43 182.54,1399.55 187.029,1399.55 C191.519,1399.55 195.36,1397.69 198.553,1393.98 C201.745,1390.27 203.342,1385.91 203.342,1380.89 L203.623,1373.86 M206.748,1361.56 C210.133,1360.32 212.821,1358.12 214.81,1354.97 C216.8,1351.81 217.795,1348.67 217.795,1345.55 C217.795,1340.92 216.199,1336.79 213.006,1333.14 C209.813,1329.49 205.774,1327.44 200.889,1326.98 C203.691,1340.72 205.644,1352.25 206.748,1361.56 M168.967,1339 C168.967,1345.45 171.537,1351.08 176.678,1355.9 C181.818,1360.71 187.842,1363.12 194.748,1363.12 C197.477,1363.12 200.144,1362.93 202.748,1362.53 C201.706,1352.63 199.654,1340.79 196.592,1326.98 C192.758,1327.38 189.782,1328.7 187.662,1330.94 C185.542,1333.19 184.482,1335.74 184.482,1338.61 C184.482,1343.56 187.123,1347.56 192.404,1350.62 C192.852,1350.88 193.076,1351.32 193.076,1351.94 C193.076,1352.56 192.865,1353.1 192.443,1353.55 C192.021,1354.01 191.649,1354.23 191.326,1354.23 C191.003,1354.23 190.581,1354.17 190.06,1354.05 C182.435,1349.88 178.623,1343.59 178.623,1335.19 C178.623,1331.22 180.024,1327.41 182.826,1323.76 C185.753,1320.12 189.56,1317.77 194.248,1316.73 C192.425,1309.44 190.93,1303.74 189.764,1299.64 C180.847,1309.67 175.31,1317.09 173.154,1321.9 C170.363,1328.15 168.967,1333.85 168.967,1339 M201.576,1239.69 C196.691,1242.09 192.834,1245.57 190.006,1250.13 C187.178,1254.69 185.764,1259.47 185.764,1264.48 C185.764,1269.49 186.935,1275.97 189.279,1283.92 C193.967,1278.25 197.514,1272.95 199.92,1268 C202.326,1263.05 203.529,1258.15 203.529,1253.3 C203.529,1248.45 202.878,1243.92 201.576,1239.69"/>
<path class="Clef" d="M203.623,898.858 L203.623,896.717 C203.56,895.613 203.399,893.889 203.139,891.545 C199.889,892.066 196.993,892.327 194.451,892.327 C185.337,892.327 177.605,888.728 171.256,881.53 C164.907,874.332 161.732,865.754 161.732,855.795 C161.732,853.129 162.253,849.923 163.295,846.178 C164.337,842.433 165.297,839.926 166.178,838.655 C167.058,837.384 168.378,835.155 170.139,831.967 C170.659,830.988 172.352,828.837 175.217,825.514 C175.738,824.806 176.193,824.222 176.584,823.764 C176.975,823.306 177.607,822.491 178.482,821.319 C179.357,820.147 180.3,819.056 181.31,818.045 C182.321,817.035 183.217,816.058 183.998,815.116 C184.779,814.173 185.498,813.379 186.154,812.733 C183.81,804.983 182.378,799.024 181.857,794.858 C181.337,790.691 181.076,785.579 181.076,779.522 C181.076,773.465 182.378,767.962 184.982,763.014 C187.514,757.879 191.06,753.681 195.623,750.42 C195.883,750.222 196.225,750.123 196.646,750.123 C197.068,750.123 197.378,750.222 197.576,750.42 C201.087,754.649 204.128,760.149 206.701,766.92 C209.274,773.691 210.56,780.024 210.56,785.92 C210.56,791.816 209.066,797.498 206.076,802.967 C202.691,808.759 198.326,814.748 192.982,820.936 C194.347,825.228 196.17,831.962 198.451,841.139 L199.045,841.139 C199.305,841.077 199.529,841.045 199.717,841.045 C207.081,841.045 213.089,843.634 217.74,848.811 C222.391,853.988 224.717,859.962 224.717,866.733 C224.717,875.129 221.238,881.899 214.279,887.045 C212.258,888.545 209.878,889.717 207.139,890.561 C207.472,894.79 207.639,897.605 207.639,899.006 C207.639,900.407 207.571,902.899 207.435,906.483 C207.373,912.597 205.29,917.837 201.185,922.202 C197.081,926.566 192.394,928.748 187.123,928.748 C181.852,928.748 177.36,926.876 173.646,923.131 C169.933,919.386 168.076,914.847 168.076,909.514 C168.076,906.712 169.154,904.332 171.31,902.373 C173.519,900.426 176.006,899.452 178.771,899.452 C181.537,899.452 183.8,900.462 185.56,902.483 C187.383,904.368 188.295,906.644 188.295,909.311 C188.295,911.978 187.383,914.222 185.56,916.045 C183.738,917.868 181.555,918.78 179.014,918.78 C177.972,918.78 176.967,918.587 175.998,918.202 C178.863,922.431 182.54,924.545 187.029,924.545 C191.519,924.545 195.36,922.691 198.553,918.983 C201.745,915.274 203.342,910.91 203.342,905.889 L203.623,898.858 M206.748,886.561 C210.133,885.321 212.821,883.123 214.81,879.967 C216.8,876.811 217.795,873.67 217.795,870.545 C217.795,865.92 216.199,861.785 213.006,858.139 C209.813,854.493 205.774,852.441 200.889,851.983 C203.691,865.722 205.644,877.248 206.748,886.561 M168.967,863.998 C168.967,870.446 171.537,876.079 176.678,880.897 C181.818,885.715 187.842,888.123 194.748,888.123 C197.477,888.123 200.144,887.926 202.748,887.53 C201.706,877.634 199.654,865.785 196.592,851.983 C192.758,852.379 189.782,853.699 187.662,855.944 C185.542,858.189 184.482,860.743 184.482,863.608 C184.482,868.556 187.123,872.561 192.404,875.623 C192.852,875.884 193.076,876.324 193.076,876.944 C193.076,877.564 192.865,878.1 192.443,878.553 C192.021,879.006 191.649,879.233 191.326,879.233 C191.003,879.233 190.581,879.17 190.06,879.045 C182.435,874.879 178.623,868.592 178.623,860.186 C178.623,856.217 180.024,852.41 182.826,848.764 C185.753,845.118 189.56,842.774 194.248,841.733 C192.425,834.441 190.93,828.743 189.764,824.639 C180.847,834.67 175.31,842.092 173.154,846.905 C170.363,853.155 168.967,858.853 168.967,863.998 M201.576,764.686 C196.691,767.092 192.834,770.574 190.006,775.131 C187.178,779.689 185.764,784.472 185.764,789.483 C185.764,794.493 186.935,800.972 189.279,808.92 C193.967,803.254 197.514,797.946 199.92,792.998 C202.326,788.051 203.529,783.152 203.529,778.303 C203.529,773.454 202.878,768.915 201.576,764.686"/>
<path class="TimeSig" d="M273.021,317.912 C274.516,317.912 275.949,317.686 277.318,317.232 C278.688,316.779 279.665,316.553 280.248,316.553 C280.831,316.553 281.222,316.907 281.42,317.615 C281.42,317.688 281.352,317.886 281.217,318.209 L252.811,351.225 L269.498,351.225 L269.498,338.131 C269.498,336.506 270.446,335.334 272.342,334.615 C274.29,333.897 276.503,331.001 278.982,325.928 C279.17,325.532 279.462,325.334 279.857,325.334 C280.639,325.334 281.092,325.792 281.217,326.709 L281.217,351.225 L288.357,351.225 C289.264,351.225 289.751,351.712 289.818,352.686 C289.886,353.66 289.399,354.147 288.357,354.147 L281.217,354.147 L281.217,354.928 C281.217,357.532 281.868,359.746 283.17,361.568 C284.67,363.391 286.43,364.303 288.451,364.303 C289.232,364.303 289.623,364.693 289.623,365.475 C289.623,366.256 289.087,366.647 288.014,366.647 C286.941,366.647 284.938,366.436 282.006,366.014 C279.074,365.592 276.811,365.381 275.217,365.381 C273.623,365.381 271.41,365.592 268.576,366.014 C265.743,366.436 263.613,366.647 262.186,366.647 C261.404,366.647 261.014,366.256 261.014,365.475 C261.014,364.693 261.404,364.303 262.186,364.303 C264.196,364.303 265.951,363.391 267.451,361.568 C268.816,359.683 269.498,357.469 269.498,354.928 L269.498,354.147 L252.811,354.147 C251.956,354.147 251.219,353.92 250.6,353.467 C249.98,353.014 249.67,352.592 249.67,352.201 C249.67,351.811 250.485,350.639 252.115,348.686 C253.745,346.732 256.074,342.972 259.1,337.404 C262.126,331.837 263.639,325.438 263.639,318.209 C263.639,317.167 264.097,316.647 265.014,316.647 C265.212,316.647 265.521,316.712 265.943,316.842 C266.365,316.972 267.277,317.183 268.678,317.475 C270.079,317.766 271.527,317.912 273.021,317.912"/>
<path class="TimeSig" d="M273.021,368.084 C274.516,368.084 275.949,367.858 277.318,367.404 C278.688,366.951 279.665,366.725 280.248,366.725 C280.831,366.725 281.222,367.079 281.42,367.787 C281.42,367.86 281.352,368.058 281.217,368.381 L252.811,401.397 L269.498,401.397 L269.498,388.303 C269.498,386.678 270.446,385.506 272.342,384.787 C274.29,384.068 276.503,381.173 278.982,376.1 C279.17,375.704 279.462,375.506 279.857,375.506 C280.639,375.506 281.092,375.964 281.217,376.881 L281.217,401.397 L288.357,401.397 C289.264,401.397 289.751,401.884 289.818,402.858 C289.886,403.831 289.399,404.318 288.357,404.318 L281.217,404.318 L281.217,405.1 C281.217,407.704 281.868,409.917 283.17,411.74 C284.67,413.563 286.43,414.475 288.451,414.475 C289.232,414.475 289.623,414.865 289.623,415.647 C289.623,416.428 289.087,416.818 288.014,416.818 C286.941,416.818 284.938,416.608 282.006,416.186 C279.074,415.764 276.811,415.553 275.217,415.553 C273.623,415.553 271.41,415.764 268.576,416.186 C265.743,416.608 263.613,416.818 262.186,416.818 C261.404,416.818 261.014,416.428 261.014,415.647 C261.014,414.865 261.404,414.475 262.186,414.475 C264.196,414.475 265.951,413.563 267.451,411.74 C268.816,409.855 269.498,407.641 269.498,405.1 L269.498,404.318 L252.811,404.318 C251.956,404.318 251.219,404.092 250.6,403.639 C249.98,403.186 249.67,402.764 249.67,402.373 C249.67,401.983 250.485,400.811 252.115,398.858 C253.745,396.904 256.074,393.144 259.1,387.576 C262.126,382.009 263.639,375.61 263.639,368.381 C263.639,367.339 264.097,366.818 265.014,366.818 C265.212,366.818 265.521,366.884 265.943,367.014 C266.365,367.144 267.277,367.355 268.678,367.647 C270.079,367.938 271.527,368.084 273.021,368.084"/>
<path class="Rest" d="M2626.69,1786.45 C2626.03,1785.61 2625.71,1784.7 2625.71,1783.72 C2625.71,1781.97 2627.79,1779.53 2631.97,1776.41 C2636.07,1773.21 2638.11,1769.56 2638.11,1765.47 C2638.11,1763.05 2637.27,1760.84 2635.58,1758.83 L2632.07,1754.62 C2631.8,1754.36 2631.67,1754.04 2631.67,1753.65 C2631.67,1753.26 2631.87,1752.9 2632.25,1752.58 C2632.71,1752.24 2633.14,1752.08 2633.53,1752.08 C2633.92,1752.08 2634.24,1752.28 2634.5,1752.67 L2649.64,1770.64 C2650.29,1771.48 2650.61,1772.41 2650.61,1773.42 C2650.61,1774.43 2650.08,1775.52 2649,1776.69 C2647.93,1777.87 2646.42,1779.23 2644.47,1780.8 C2642.97,1781.7 2641.55,1783.13 2640.22,1785.08 C2638.89,1787.04 2638.22,1789.25 2638.22,1791.73 C2638.22,1794.21 2639,1796.39 2640.57,1798.28 L2648.96,1808.14 C2649.15,1808.34 2649.28,1808.66 2649.35,1809.12 C2649.41,1809.57 2649.25,1809.96 2648.85,1810.29 C2648.46,1810.62 2648.16,1810.78 2647.93,1810.78 C2647.71,1810.78 2647.12,1810.41 2646.17,1809.66 C2645.23,1808.91 2643.89,1808.17 2642.17,1807.46 C2640.44,1806.75 2638.73,1806.39 2637.04,1806.39 C2635.35,1806.39 2634.02,1806.85 2633.04,1807.76 C2632.07,1808.67 2631.58,1810.77 2631.58,1814.05 C2631.58,1817.34 2632.52,1820.12 2634.41,1822.41 C2634.61,1822.67 2634.64,1822.96 2634.51,1823.28 C2634.38,1823.6 2634.12,1823.76 2633.73,1823.76 C2633.34,1823.76 2632.34,1822.56 2630.75,1820.16 C2629.15,1817.75 2627.61,1814.9 2626.15,1811.61 C2624.69,1808.32 2623.96,1805.57 2623.96,1803.36 C2623.96,1800.56 2625.39,1799.16 2628.25,1799.16 C2631.12,1799.16 2634.99,1800.2 2639.88,1802.28 L2626.69,1786.45 "/>
<path class="NoteDot" d="M2338.87,1783.24 C2337.76,1782.13 2337.21,1780.8 2337.21,1779.23 C2337.21,1777.67 2337.76,1776.33 2338.87,1775.23 C2339.98,1774.12 2341.32,1773.56 2342.88,1773.56 C2344.44,1773.56 2345.78,1774.12 2346.88,1775.23 C2347.98,1776.33 2348.54,1777.67 2348.54,1779.23 C2348.54,1780.8 2347.98,1782.13 2346.88,1783.24 C2345.78,1784.35 2344.44,1784.91 2342.88,1784.91 C2341.32,1784.91 2339.98,1784.35 2338.87,1783.24"/>
</svg>
