<?xml version="1.0" encoding="UTF-8" standalone="no"?>
<svg width="2977.2px" height="4208.4px" viewBox="0 0 2977.2 4208.4"
 xmlns="http://www.w3.org/2000/svg" xmlns:xlink="http://www.w3.org/1999/xlink" version="1.2" baseProfile="tiny">
<title>D_Blues.mscx</title>
<desc>Generated by MuseScore Studio 4.3.1</desc>
<path class="" fill="#ffffff" fill-rule="evenodd" d="M0,0 L2977.2,0 L2977.2,4208.4 L0,4208.4 L0,0 "/>
<polyline class="StaffLines" fill="none" stroke="#000000" stroke-width="2.00" stroke-linejoin="bevel" points="141.732,566.733 2835.47,566.733"/>
<polyline class="StaffLines" fill="none" stroke="#000000" stroke-width="2.00" stroke-linejoin="bevel" points="141.732,591.733 2835.47,591.733"/>
<polyline class="StaffLines" fill="none" stroke="#000000" stroke-width="2.00" stroke-linejoin="bevel" points="141.732,616.733 2835.47,616.733"/>
<polyline class="StaffLines" fill="none" stroke="#000000" stroke-width="2.00" stroke-linejoin="bevel" points="141.732,641.733 2835.47,641.733"/>
<polyline class="StaffLines" fill="none" stroke="#000000" stroke-width="2.00" stroke-linejoin="bevel" points="141.732,666.733 2835.47,666.733"/>
<polyline class="BarLine" fill="none" stroke="#000000" stroke-width="4.00" stroke-linejoin="bevel" points="1246,565.733 1246,667.733"/>
<polyline class="BarLine" fill="none" stroke="#000000" stroke-width="4.00" stroke-linejoin="bevel" points="2180.03,565.733 2180.03,667.733"/>
<polyline class="BarLine" fill="none" stroke="#000000" stroke-width="4.00" stroke-linejoin="bevel" points="2491.37,565.733 2491.37,667.733"/>
<polyline class="BarLine" fill="none" stroke="#000000" stroke-width="4.00" stroke-linejoin="bevel" points="1868.69,565.733 1868.69,667.733"/>
<polyline class="BarLine" fill="none" stroke="#000000" stroke-width="4.00" stroke-linejoin="bevel" points="934.658,565.733 934.658,667.733"/>
<polyline class="BarLine" fill="none" stroke="#000000" stroke-width="4.00" stroke-linejoin="bevel" points="623.314,565.733 623.314,667.733"/>
<polyline class="BarLine" fill="none" stroke="#000000" stroke-width="4.00" stroke-linejoin="bevel" points="2802.72,565.733 2802.72,667.733"/>
<polyline class="BarLine" fill="none" stroke="#000000" stroke-width="12.50" stroke-linejoin="bevel" points="2829.22,565.733 2829.22,667.733"/>
<polyline class="BarLine" fill="none" stroke="#000000" stroke-width="4.00" stroke-linejoin="bevel" points="1557.34,565.733 1557.34,667.733"/>
<path class="Accidental" d="M2009.78,646.811 L2008.52,584.701 C2008.52,583.722 2009.28,583.233 2010.81,583.233 C2012.35,583.233 2013.11,583.722 2013.11,584.701 L2012.33,618.592 C2014.09,616.832 2015.6,615.61 2016.87,614.928 C2018.14,614.246 2019.86,613.905 2022.04,613.905 C2024.22,613.905 2026.24,614.912 2028.1,616.928 C2029.95,618.944 2030.88,621.451 2030.88,624.451 C2030.88,628.941 2026.16,635.16 2016.72,643.108 C2013.21,646.295 2011.39,647.889 2011.25,647.889 L2010.67,647.889 C2010.08,647.889 2009.78,647.53 2009.78,646.811 M2012.24,621.717 L2011.94,643.889 C2013.96,641.993 2016.01,638.847 2018.1,634.451 C2020.18,630.056 2021.22,626.295 2021.22,623.17 C2021.22,621.608 2020.96,620.175 2020.44,618.873 C2019.92,617.571 2019.1,616.92 2017.99,616.92 C2016.89,616.92 2015.89,617.311 2015.01,618.092 C2014.13,618.873 2013.21,620.082 2012.24,621.717"/>
<path class="Accidental" d="M764.41,646.811 L763.144,584.701 C763.144,583.722 763.91,583.233 765.441,583.233 C766.972,583.233 767.738,583.722 767.738,584.701 L766.957,618.592 C768.717,616.832 770.23,615.61 771.496,614.928 C772.761,614.246 774.485,613.905 776.668,613.905 C778.85,613.905 780.868,614.912 782.722,616.928 C784.576,618.944 785.503,621.451 785.503,624.451 C785.503,628.941 780.785,635.16 771.347,643.108 C767.837,646.295 766.014,647.889 765.878,647.889 L765.3,647.889 C764.707,647.889 764.41,647.53 764.41,646.811 M766.863,621.717 L766.566,643.889 C768.587,641.993 770.639,638.847 772.722,634.451 C774.806,630.056 775.847,626.295 775.847,623.17 C775.847,621.608 775.587,620.175 775.066,618.873 C774.545,617.571 773.73,616.92 772.621,616.92 C771.511,616.92 770.517,617.311 769.636,618.092 C768.756,618.873 767.832,620.082 766.863,621.717"/>
<polyline class="Stem" fill="none" stroke="#000000" stroke-width="3.25" stroke-linejoin="bevel" points="1928.78,624.433 1928.78,547.983"/>
<polyline class="Stem" fill="none" stroke="#000000" stroke-width="3.25" stroke-linejoin="bevel" points="1585.97,596.633 1585.97,679.233"/>
<polyline class="Stem" fill="none" stroke="#000000" stroke-width="3.25" stroke-linejoin="bevel" points="1726.69,609.133 1726.69,685.483"/>
<polyline class="Stem" fill="none" stroke="#000000" stroke-width="3.25" stroke-linejoin="bevel" points="1274.63,596.633 1274.63,679.233"/>
<polyline class="Stem" fill="none" stroke="#000000" stroke-width="3.25" stroke-linejoin="bevel" points="2069.5,624.433 2069.5,547.983"/>
<polyline class="Stem" fill="none" stroke="#000000" stroke-width="3.25" stroke-linejoin="bevel" points="1104,609.133 1104,685.483"/>
<polyline class="Stem" fill="none" stroke="#000000" stroke-width="3.25" stroke-linejoin="bevel" points="994.751,624.433 994.751,547.983"/>
<polyline class="Stem" fill="none" stroke="#000000" stroke-width="3.25" stroke-linejoin="bevel" points="2240.13,636.933 2240.13,554.233"/>
<polyline class="Stem" fill="none" stroke="#000000" stroke-width="3.25" stroke-linejoin="bevel" points="824.129,624.433 824.129,547.983"/>
<polyline class="Stem" fill="none" stroke="#000000" stroke-width="3.25" stroke-linejoin="bevel" points="683.408,636.933 683.408,554.233"/>
<polyline class="Stem" fill="none" stroke="#000000" stroke-width="3.25" stroke-linejoin="bevel" points="2380.85,649.433 2380.85,566.733"/>
<polyline class="Stem" fill="none" stroke="#000000" stroke-width="3.25" stroke-linejoin="bevel" points="512.785,649.433 512.785,566.733"/>
<polyline class="Stem" fill="none" stroke="#000000" stroke-width="3.25" stroke-linejoin="bevel" points="372.065,674.433 372.065,591.733"/>
<polyline class="Stem" fill="none" stroke="#000000" stroke-width="3.25" stroke-linejoin="bevel" points="2551.47,674.433 2551.47,591.733"/>
<path class="Note" d="M2214.45,652.373 C2216.34,652.373 2220.29,650.42 2226.32,646.514 C2232.35,642.608 2235.9,639.988 2236.97,638.655 C2238.04,637.321 2238.58,636.134 2238.58,635.092 C2238.58,634.05 2238.15,633.123 2237.3,632.311 C2236.46,631.498 2235.48,631.092 2234.38,631.092 C2232.43,631.092 2228.44,633.061 2222.41,636.998 C2216.39,640.936 2212.85,643.556 2211.81,644.858 C2210.77,646.16 2210.25,647.332 2210.25,648.373 C2210.25,649.415 2210.66,650.342 2211.48,651.155 C2212.29,651.967 2213.29,652.373 2214.45,652.373 M2233.41,627.967 C2239,627.967 2241.8,630.373 2241.8,635.186 C2241.8,637.53 2241.11,640.248 2239.75,643.342 C2238.39,646.436 2236.56,648.795 2234.28,650.42 C2229.27,653.806 2222.99,655.498 2215.44,655.498 C2209.83,655.498 2207.03,653.092 2207.03,648.28 C2207.03,646.134 2207.7,643.464 2209.03,640.272 C2210.36,637.079 2212.2,634.67 2214.55,633.045 C2219.57,629.66 2225.85,627.967 2233.41,627.967"/>
<path class="Note" d="M2043.83,639.873 C2045.72,639.873 2049.67,637.92 2055.7,634.014 C2061.72,630.108 2065.27,627.488 2066.35,626.155 C2067.42,624.821 2067.96,623.634 2067.96,622.592 C2067.96,621.55 2067.53,620.623 2066.68,619.811 C2065.83,618.998 2064.86,618.592 2063.75,618.592 C2061.8,618.592 2057.82,620.561 2051.79,624.498 C2045.77,628.436 2042.23,631.056 2041.19,632.358 C2040.15,633.66 2039.63,634.832 2039.63,635.873 C2039.63,636.915 2040.04,637.842 2040.85,638.655 C2041.67,639.467 2042.66,639.873 2043.83,639.873 M2062.78,615.467 C2068.38,615.467 2071.17,617.873 2071.17,622.686 C2071.17,625.03 2070.49,627.748 2069.13,630.842 C2067.76,633.936 2065.94,636.295 2063.66,637.92 C2058.65,641.306 2052.37,642.998 2044.81,642.998 C2039.21,642.998 2036.41,640.592 2036.41,635.78 C2036.41,633.634 2037.08,630.964 2038.41,627.772 C2039.74,624.579 2041.58,622.17 2043.92,620.545 C2048.95,617.16 2055.23,615.467 2062.78,615.467"/>
<path class="Note" d="M2355.17,664.873 C2357.06,664.873 2361.02,662.92 2367.04,659.014 C2373.07,655.108 2376.62,652.488 2377.69,651.155 C2378.76,649.821 2379.3,648.634 2379.3,647.592 C2379.3,646.55 2378.87,645.623 2378.03,644.811 C2377.18,643.998 2376.2,643.592 2375.1,643.592 C2373.15,643.592 2369.16,645.561 2363.13,649.498 C2357.11,653.436 2353.57,656.056 2352.53,657.358 C2351.49,658.66 2350.97,659.832 2350.97,660.873 C2350.97,661.915 2351.38,662.842 2352.2,663.655 C2353.02,664.467 2354.01,664.873 2355.17,664.873 M2374.13,640.467 C2379.72,640.467 2382.52,642.873 2382.52,647.686 C2382.52,650.03 2381.84,652.748 2380.47,655.842 C2379.11,658.936 2377.28,661.295 2375,662.92 C2369.99,666.306 2363.71,667.998 2356.16,667.998 C2350.55,667.998 2347.75,665.592 2347.75,660.78 C2347.75,658.634 2348.42,655.964 2349.75,652.772 C2351.09,649.579 2352.92,647.17 2355.27,645.545 C2360.29,642.16 2366.57,640.467 2374.13,640.467"/>
<path class="Note" d="M2525.8,689.873 C2527.68,689.873 2531.64,687.92 2537.66,684.014 C2543.69,680.108 2547.24,677.488 2548.31,676.155 C2549.39,674.821 2549.92,673.634 2549.92,672.592 C2549.92,671.55 2549.5,670.623 2548.65,669.811 C2547.8,668.998 2546.82,668.592 2545.72,668.592 C2543.77,668.592 2539.78,670.561 2533.76,674.498 C2527.73,678.436 2524.2,681.056 2523.16,682.358 C2522.11,683.66 2521.59,684.832 2521.59,685.873 C2521.59,686.915 2522,687.842 2522.82,688.655 C2523.64,689.467 2524.63,689.873 2525.8,689.873 M2544.75,665.467 C2550.34,665.467 2553.14,667.873 2553.14,672.686 C2553.14,675.03 2552.46,677.748 2551.09,680.842 C2549.73,683.936 2547.91,686.295 2545.62,687.92 C2540.61,691.306 2534.33,692.998 2526.78,692.998 C2521.18,692.998 2518.37,690.592 2518.37,685.78 C2518.37,683.634 2519.04,680.964 2520.37,677.772 C2521.71,674.579 2523.55,672.17 2525.89,670.545 C2530.91,667.16 2537.2,665.467 2544.75,665.467"/>
<path class="Note" d="M1903.11,639.873 C1905,639.873 1908.95,637.92 1914.98,634.014 C1921,630.108 1924.55,627.488 1925.63,626.155 C1926.7,624.821 1927.23,623.634 1927.23,622.592 C1927.23,621.55 1926.81,620.623 1925.96,619.811 C1925.11,618.998 1924.14,618.592 1923.03,618.592 C1921.08,618.592 1917.1,620.561 1911.07,624.498 C1905.04,628.436 1901.51,631.056 1900.47,632.358 C1899.43,633.66 1898.91,634.832 1898.91,635.873 C1898.91,636.915 1899.32,637.842 1900.13,638.655 C1900.95,639.467 1901.94,639.873 1903.11,639.873 M1922.06,615.467 C1927.66,615.467 1930.45,617.873 1930.45,622.686 C1930.45,625.03 1929.77,627.748 1928.41,630.842 C1927.04,633.936 1925.22,636.295 1922.94,637.92 C1917.93,641.306 1911.65,642.998 1904.09,642.998 C1898.49,642.998 1895.69,640.592 1895.69,635.78 C1895.69,633.634 1896.35,630.964 1897.69,627.772 C1899.02,624.579 1900.86,622.17 1903.2,620.545 C1908.22,617.16 1914.51,615.467 1922.06,615.467"/>
<path class="Note" d="M1732.49,614.873 C1734.37,614.873 1738.33,612.92 1744.35,609.014 C1750.38,605.108 1753.93,602.488 1755,601.155 C1756.08,599.821 1756.61,598.634 1756.61,597.592 C1756.61,596.55 1756.19,595.623 1755.34,594.811 C1754.49,593.998 1753.51,593.592 1752.41,593.592 C1750.46,593.592 1746.47,595.561 1740.45,599.498 C1734.42,603.436 1730.89,606.056 1729.85,607.358 C1728.8,608.66 1728.28,609.832 1728.28,610.873 C1728.28,611.915 1728.69,612.842 1729.51,613.655 C1730.33,614.467 1731.32,614.873 1732.49,614.873 M1751.44,590.467 C1757.03,590.467 1759.83,592.873 1759.83,597.686 C1759.83,600.03 1759.15,602.748 1757.78,605.842 C1756.42,608.936 1754.6,611.295 1752.32,612.92 C1747.3,616.306 1741.02,617.998 1733.47,617.998 C1727.87,617.998 1725.07,615.592 1725.07,610.78 C1725.07,608.634 1725.73,605.964 1727.07,602.772 C1728.4,599.579 1730.24,597.17 1732.58,595.545 C1737.6,592.16 1743.89,590.467 1751.44,590.467"/>
<path class="Note" d="M1591.77,602.373 C1593.65,602.373 1597.61,600.42 1603.63,596.514 C1609.66,592.608 1613.21,589.988 1614.28,588.655 C1615.35,587.321 1615.89,586.134 1615.89,585.092 C1615.89,584.05 1615.47,583.123 1614.62,582.311 C1613.77,581.498 1612.79,581.092 1611.69,581.092 C1609.74,581.092 1605.75,583.061 1599.73,586.998 C1593.7,590.936 1590.17,593.556 1589.13,594.858 C1588.08,596.16 1587.56,597.332 1587.56,598.373 C1587.56,599.415 1587.97,600.342 1588.79,601.155 C1589.61,601.967 1590.6,602.373 1591.77,602.373 M1610.72,577.967 C1616.31,577.967 1619.11,580.373 1619.11,585.186 C1619.11,587.53 1618.43,590.248 1617.06,593.342 C1615.7,596.436 1613.88,598.795 1611.59,600.42 C1606.58,603.806 1600.3,605.498 1592.75,605.498 C1587.15,605.498 1584.34,603.092 1584.34,598.28 C1584.34,596.134 1585.01,593.464 1586.34,590.272 C1587.68,587.079 1589.52,584.67 1591.86,583.045 C1596.88,579.66 1603.17,577.967 1610.72,577.967"/>
<path class="Note" d="M1280.42,602.373 C1282.31,602.373 1286.26,600.42 1292.29,596.514 C1298.32,592.608 1301.87,589.988 1302.94,588.655 C1304.01,587.321 1304.55,586.134 1304.55,585.092 C1304.55,584.05 1304.12,583.123 1303.27,582.311 C1302.43,581.498 1301.45,581.092 1300.34,581.092 C1298.4,581.092 1294.41,583.061 1288.38,586.998 C1282.36,590.936 1278.82,593.556 1277.78,594.858 C1276.74,596.16 1276.22,597.332 1276.22,598.373 C1276.22,599.415 1276.63,600.342 1277.45,601.155 C1278.26,601.967 1279.26,602.373 1280.42,602.373 M1299.38,577.967 C1304.97,577.967 1307.77,580.373 1307.77,585.186 C1307.77,587.53 1307.08,590.248 1305.72,593.342 C1304.36,596.436 1302.53,598.795 1300.25,600.42 C1295.24,603.806 1288.96,605.498 1281.41,605.498 C1275.8,605.498 1273,603.092 1273,598.28 C1273,596.134 1273.67,593.464 1275,590.272 C1276.33,587.079 1278.17,584.67 1280.52,583.045 C1285.54,579.66 1291.82,577.967 1299.38,577.967"/>
<path class="Note" d="M1109.8,614.873 C1111.69,614.873 1115.64,612.92 1121.67,609.014 C1127.69,605.108 1131.24,602.488 1132.32,601.155 C1133.39,599.821 1133.93,598.634 1133.93,597.592 C1133.93,596.55 1133.5,595.623 1132.65,594.811 C1131.8,593.998 1130.83,593.592 1129.72,593.592 C1127.77,593.592 1123.79,595.561 1117.76,599.498 C1111.73,603.436 1108.2,606.056 1107.16,607.358 C1106.12,608.66 1105.6,609.832 1105.6,610.873 C1105.6,611.915 1106.01,612.842 1106.82,613.655 C1107.64,614.467 1108.63,614.873 1109.8,614.873 M1128.75,590.467 C1134.35,590.467 1137.14,592.873 1137.14,597.686 C1137.14,600.03 1136.46,602.748 1135.1,605.842 C1133.73,608.936 1131.91,611.295 1129.63,612.92 C1124.62,616.306 1118.34,617.998 1110.78,617.998 C1105.18,617.998 1102.38,615.592 1102.38,610.78 C1102.38,608.634 1103.04,605.964 1104.38,602.772 C1105.71,599.579 1107.55,597.17 1109.89,595.545 C1114.91,592.16 1121.2,590.467 1128.75,590.467"/>
<path class="Note" d="M969.08,639.873 C970.965,639.873 974.921,637.92 980.947,634.014 C986.973,630.108 990.522,627.488 991.595,626.155 C992.668,624.821 993.205,623.634 993.205,622.592 C993.205,621.55 992.78,620.623 991.931,619.811 C991.082,618.998 990.106,618.592 989.001,618.592 C987.053,618.592 983.067,620.561 977.04,624.498 C971.014,628.436 967.481,631.056 966.439,632.358 C965.397,633.66 964.876,634.832 964.876,635.873 C964.876,636.915 965.285,637.842 966.103,638.655 C966.921,639.467 967.913,639.873 969.08,639.873 M988.033,615.467 C993.626,615.467 996.423,617.873 996.423,622.686 C996.423,625.03 995.741,627.748 994.376,630.842 C993.012,633.936 991.189,636.295 988.908,637.92 C983.897,641.306 977.616,642.998 970.064,642.998 C964.46,642.998 961.658,640.592 961.658,635.78 C961.658,633.634 962.324,630.964 963.658,627.772 C964.991,624.579 966.83,622.17 969.173,620.545 C974.194,617.16 980.481,615.467 988.033,615.467"/>
<path class="Note" d="M798.457,639.873 C800.342,639.873 804.298,637.92 810.324,634.014 C816.35,630.108 819.899,627.488 820.972,626.155 C822.045,624.821 822.582,623.634 822.582,622.592 C822.582,621.55 822.157,620.623 821.308,619.811 C820.459,618.998 819.483,618.592 818.379,618.592 C816.431,618.592 812.444,620.561 806.418,624.498 C800.392,628.436 796.858,631.056 795.816,632.358 C794.774,633.66 794.254,634.832 794.254,635.873 C794.254,636.915 794.662,637.842 795.48,638.655 C796.298,639.467 797.29,639.873 798.457,639.873 M817.41,615.467 C823.004,615.467 825.8,617.873 825.8,622.686 C825.8,625.03 825.118,627.748 823.754,630.842 C822.389,633.936 820.566,636.295 818.285,637.92 C813.274,641.306 806.993,642.998 799.441,642.998 C793.837,642.998 791.035,640.592 791.035,635.78 C791.035,633.634 791.701,630.964 793.035,627.772 C794.368,624.579 796.207,622.17 798.55,620.545 C803.571,617.16 809.858,615.467 817.41,615.467"/>
<path class="Note" d="M657.736,652.373 C659.622,652.373 663.577,650.42 669.603,646.514 C675.629,642.608 679.179,639.988 680.252,638.655 C681.325,637.321 681.861,636.134 681.861,635.092 C681.861,634.05 681.437,633.123 680.588,632.311 C679.739,631.498 678.762,631.092 677.658,631.092 C675.71,631.092 671.723,633.061 665.697,636.998 C659.671,640.936 656.137,643.556 655.095,644.858 C654.054,646.16 653.533,647.332 653.533,648.373 C653.533,649.415 653.942,650.342 654.76,651.155 C655.577,651.967 656.569,652.373 657.736,652.373 M676.689,627.967 C682.283,627.967 685.08,630.373 685.08,635.186 C685.08,637.53 684.398,640.248 683.033,643.342 C681.668,646.436 679.845,648.795 677.564,650.42 C672.554,653.806 666.273,655.498 658.72,655.498 C653.116,655.498 650.314,653.092 650.314,648.28 C650.314,646.134 650.981,643.464 652.314,640.272 C653.648,637.079 655.486,634.67 657.83,633.045 C662.851,629.66 669.137,627.967 676.689,627.967"/>
<path class="Note" d="M487.113,664.873 C488.999,664.873 492.954,662.92 498.98,659.014 C505.006,655.108 508.556,652.488 509.629,651.155 C510.702,649.821 511.238,648.634 511.238,647.592 C511.238,646.55 510.814,645.623 509.965,644.811 C509.116,643.998 508.139,643.592 507.035,643.592 C505.087,643.592 501.1,645.561 495.074,649.498 C489.048,653.436 485.514,656.056 484.473,657.358 C483.431,658.66 482.91,659.832 482.91,660.873 C482.91,661.915 483.319,662.842 484.137,663.655 C484.954,664.467 485.947,664.873 487.113,664.873 M506.066,640.467 C511.66,640.467 514.457,642.873 514.457,647.686 C514.457,650.03 513.775,652.748 512.41,655.842 C511.045,658.936 509.223,661.295 506.941,662.92 C501.931,666.306 495.65,667.998 488.098,667.998 C482.493,667.998 479.691,665.592 479.691,660.78 C479.691,658.634 480.358,655.964 481.691,652.772 C483.025,649.579 484.863,647.17 487.207,645.545 C492.228,642.16 498.514,640.467 506.066,640.467"/>
<path class="Note" d="M346.393,689.873 C348.278,689.873 352.234,687.92 358.26,684.014 C364.286,680.108 367.835,677.488 368.908,676.155 C369.981,674.821 370.518,673.634 370.518,672.592 C370.518,671.55 370.093,670.623 369.244,669.811 C368.395,668.998 367.419,668.592 366.315,668.592 C364.367,668.592 360.38,670.561 354.354,674.498 C348.328,678.436 344.794,681.056 343.752,682.358 C342.71,683.66 342.19,684.832 342.19,685.873 C342.19,686.915 342.598,687.842 343.416,688.655 C344.234,689.467 345.226,689.873 346.393,689.873 M365.346,665.467 C370.94,665.467 373.736,667.873 373.736,672.686 C373.736,675.03 373.054,677.748 371.69,680.842 C370.325,683.936 368.502,686.295 366.221,687.92 C361.21,691.306 354.929,692.998 347.377,692.998 C341.773,692.998 338.971,690.592 338.971,685.78 C338.971,683.634 339.637,680.964 340.971,677.772 C342.304,674.579 344.143,672.17 346.486,670.545 C351.507,667.16 357.794,665.467 365.346,665.467"/>
<path class="Clef" d="M203.623,673.858 L203.623,671.717 C203.56,670.613 203.399,668.889 203.139,666.545 C199.889,667.066 196.993,667.326 194.451,667.326 C185.337,667.326 177.605,663.727 171.256,656.53 C164.907,649.332 161.732,640.754 161.732,630.795 C161.732,628.129 162.253,624.923 163.295,621.178 C164.337,617.433 165.297,614.925 166.178,613.655 C167.058,612.384 168.378,610.155 170.139,606.967 C170.659,605.988 172.352,603.837 175.217,600.514 C175.738,599.806 176.193,599.222 176.584,598.764 C176.975,598.306 177.607,597.49 178.482,596.319 C179.357,595.147 180.3,594.056 181.31,593.045 C182.321,592.035 183.217,591.058 183.998,590.115 C184.779,589.173 185.498,588.379 186.154,587.733 C183.81,579.983 182.378,574.024 181.857,569.858 C181.337,565.691 181.076,560.579 181.076,554.522 C181.076,548.464 182.378,542.962 184.982,538.014 C187.514,532.879 191.06,528.681 195.623,525.42 C195.883,525.222 196.225,525.123 196.646,525.123 C197.068,525.123 197.378,525.222 197.576,525.42 C201.087,529.649 204.128,535.149 206.701,541.92 C209.274,548.691 210.56,555.024 210.56,560.92 C210.56,566.816 209.066,572.498 206.076,577.967 C202.691,583.759 198.326,589.748 192.982,595.936 C194.347,600.227 196.17,606.962 198.451,616.139 L199.045,616.139 C199.305,616.076 199.529,616.045 199.717,616.045 C207.081,616.045 213.089,618.634 217.74,623.811 C222.391,628.988 224.717,634.962 224.717,641.733 C224.717,650.129 221.238,656.899 214.279,662.045 C212.258,663.545 209.878,664.717 207.139,665.561 C207.472,669.79 207.639,672.605 207.639,674.006 C207.639,675.407 207.571,677.899 207.435,681.483 C207.373,687.597 205.29,692.837 201.185,697.201 C197.081,701.566 192.394,703.748 187.123,703.748 C181.852,703.748 177.36,701.876 173.646,698.131 C169.933,694.386 168.076,689.847 168.076,684.514 C168.076,681.712 169.154,679.332 171.31,677.373 C173.519,675.425 176.006,674.451 178.771,674.451 C181.537,674.451 183.8,675.462 185.56,677.483 C187.383,679.368 188.295,681.644 188.295,684.311 C188.295,686.977 187.383,689.222 185.56,691.045 C183.738,692.868 181.555,693.78 179.014,693.78 C177.972,693.78 176.967,693.587 175.998,693.201 C178.863,697.431 182.54,699.545 187.029,699.545 C191.519,699.545 195.36,697.691 198.553,693.983 C201.745,690.274 203.342,685.91 203.342,680.889 L203.623,673.858 M206.748,661.561 C210.133,660.321 212.821,658.123 214.81,654.967 C216.8,651.811 217.795,648.67 217.795,645.545 C217.795,640.92 216.199,636.785 213.006,633.139 C209.813,629.493 205.774,627.441 200.889,626.983 C203.691,640.722 205.644,652.248 206.748,661.561 M168.967,638.998 C168.967,645.446 171.537,651.079 176.678,655.897 C181.818,660.714 187.842,663.123 194.748,663.123 C197.477,663.123 200.144,662.925 202.748,662.53 C201.706,652.634 199.654,640.785 196.592,626.983 C192.758,627.379 189.782,628.699 187.662,630.944 C185.542,633.188 184.482,635.743 184.482,638.608 C184.482,643.556 187.123,647.561 192.404,650.623 C192.852,650.884 193.076,651.324 193.076,651.944 C193.076,652.563 192.865,653.1 192.443,653.553 C192.021,654.006 191.649,654.233 191.326,654.233 C191.003,654.233 190.581,654.17 190.06,654.045 C182.435,649.879 178.623,643.592 178.623,635.186 C178.623,631.217 180.024,627.41 182.826,623.764 C185.753,620.118 189.56,617.774 194.248,616.733 C192.425,609.441 190.93,603.743 189.764,599.639 C180.847,609.67 175.31,617.092 173.154,621.905 C170.363,628.155 168.967,633.852 168.967,638.998 M201.576,539.686 C196.691,542.092 192.834,545.574 190.006,550.131 C187.178,554.688 185.764,559.472 185.764,564.483 C185.764,569.493 186.935,575.972 189.279,583.92 C193.967,578.254 197.514,572.946 199.92,567.998 C202.326,563.05 203.529,558.152 203.529,553.303 C203.529,548.454 202.878,543.915 201.576,539.686"/>
<path class="TimeSig" d="M273.021,567.912 C274.516,567.912 275.949,567.686 277.318,567.233 C278.688,566.78 279.665,566.553 280.248,566.553 C280.831,566.553 281.222,566.907 281.42,567.615 C281.42,567.688 281.352,567.886 281.217,568.209 L252.811,601.225 L269.498,601.225 L269.498,588.131 C269.498,586.506 270.446,585.334 272.342,584.615 C274.29,583.897 276.503,581.001 278.982,575.928 C279.17,575.532 279.462,575.334 279.857,575.334 C280.639,575.334 281.092,575.793 281.217,576.709 L281.217,601.225 L288.357,601.225 C289.264,601.225 289.751,601.712 289.818,602.686 C289.886,603.66 289.399,604.147 288.357,604.147 L281.217,604.147 L281.217,604.928 C281.217,607.532 281.868,609.746 283.17,611.569 C284.67,613.391 286.43,614.303 288.451,614.303 C289.232,614.303 289.623,614.694 289.623,615.475 C289.623,616.256 289.087,616.647 288.014,616.647 C286.941,616.647 284.938,616.436 282.006,616.014 C279.074,615.592 276.811,615.381 275.217,615.381 C273.623,615.381 271.41,615.592 268.576,616.014 C265.743,616.436 263.613,616.647 262.186,616.647 C261.404,616.647 261.014,616.256 261.014,615.475 C261.014,614.694 261.404,614.303 262.186,614.303 C264.196,614.303 265.951,613.391 267.451,611.569 C268.816,609.683 269.498,607.47 269.498,604.928 L269.498,604.147 L252.811,604.147 C251.956,604.147 251.219,603.92 250.6,603.467 C249.98,603.014 249.67,602.592 249.67,602.201 C249.67,601.811 250.485,600.639 252.115,598.686 C253.745,596.733 256.074,592.972 259.1,587.405 C262.126,581.837 263.639,575.438 263.639,568.209 C263.639,567.168 264.097,566.647 265.014,566.647 C265.212,566.647 265.521,566.712 265.943,566.842 C266.365,566.972 267.277,567.183 268.678,567.475 C270.079,567.766 271.527,567.912 273.021,567.912"/>
<path class="TimeSig" d="M273.021,618.084 C274.516,618.084 275.949,617.858 277.318,617.405 C278.688,616.951 279.665,616.725 280.248,616.725 C280.831,616.725 281.222,617.079 281.42,617.787 C281.42,617.86 281.352,618.058 281.217,618.381 L252.811,651.397 L269.498,651.397 L269.498,638.303 C269.498,636.678 270.446,635.506 272.342,634.787 C274.29,634.069 276.503,631.173 278.982,626.1 C279.17,625.704 279.462,625.506 279.857,625.506 C280.639,625.506 281.092,625.964 281.217,626.881 L281.217,651.397 L288.357,651.397 C289.264,651.397 289.751,651.884 289.818,652.858 C289.886,653.832 289.399,654.319 288.357,654.319 L281.217,654.319 L281.217,655.1 C281.217,657.704 281.868,659.918 283.17,661.74 C284.67,663.563 286.43,664.475 288.451,664.475 C289.232,664.475 289.623,664.865 289.623,665.647 C289.623,666.428 289.087,666.819 288.014,666.819 C286.941,666.819 284.938,666.608 282.006,666.186 C279.074,665.764 276.811,665.553 275.217,665.553 C273.623,665.553 271.41,665.764 268.576,666.186 C265.743,666.608 263.613,666.819 262.186,666.819 C261.404,666.819 261.014,666.428 261.014,665.647 C261.014,664.865 261.404,664.475 262.186,664.475 C264.196,664.475 265.951,663.563 267.451,661.74 C268.816,659.855 269.498,657.642 269.498,655.1 L269.498,654.319 L252.811,654.319 C251.956,654.319 251.219,654.092 250.6,653.639 C249.98,653.186 249.67,652.764 249.67,652.373 C249.67,651.983 250.485,650.811 252.115,648.858 C253.745,646.905 256.074,643.144 259.1,637.576 C262.126,632.009 263.639,625.61 263.639,618.381 C263.639,617.339 264.097,616.819 265.014,616.819 C265.212,616.819 265.521,616.884 265.943,617.014 C266.365,617.144 267.277,617.355 268.678,617.647 C270.079,617.938 271.527,618.084 273.021,618.084"/>
<path class="Rest" d="M1451.16,616.733 L1415.61,616.733 C1414.95,616.733 1414.62,616.405 1414.62,615.748 L1414.62,602.076 C1414.62,601.431 1414.95,601.108 1415.61,601.108 L1451.16,601.108 C1451.8,601.108 1452.12,601.431 1452.12,602.076 L1452.12,615.748 C1452.12,616.405 1451.8,616.733 1451.16,616.733"/>
<path class="Rest" d="M2696.53,616.733 L2660.98,616.733 C2660.33,616.733 2660,616.405 2660,615.748 L2660,602.076 C2660,601.431 2660.33,601.108 2660.98,601.108 L2696.53,601.108 C2697.17,601.108 2697.5,601.431 2697.5,602.076 L2697.5,615.748 C2697.5,616.405 2697.17,616.733 2696.53,616.733"/>
</svg>
