<?xml version="1.0" encoding="UTF-8" standalone="no"?>
<svg width="2977.2px" height="4208.4px" viewBox="0 0 2977.2 4208.4"
 xmlns="http://www.w3.org/2000/svg" xmlns:xlink="http://www.w3.org/1999/xlink" version="1.2" baseProfile="tiny">
<title>C_Melodic_Minor.mscx</title>
<desc>Generated by MuseScore Studio 4.3.1</desc>
<path class="" fill="#ffffff" fill-rule="evenodd" d="M0,0 L2977.2,0 L2977.2,4208.4 L0,4208.4 L0,0 "/>
<polyline class="StaffLines" fill="none" stroke="#000000" stroke-width="2.00" stroke-linejoin="bevel" points="141.732,566.733 2835.47,566.733"/>
<polyline class="StaffLines" fill="none" stroke="#000000" stroke-width="2.00" stroke-linejoin="bevel" points="141.732,591.733 2835.47,591.733"/>
<polyline class="StaffLines" fill="none" stroke="#000000" stroke-width="2.00" stroke-linejoin="bevel" points="141.732,616.733 2835.47,616.733"/>
<polyline class="StaffLines" fill="none" stroke="#000000" stroke-width="2.00" stroke-linejoin="bevel" points="141.732,641.733 2835.47,641.733"/>
<polyline class="StaffLines" fill="none" stroke="#000000" stroke-width="2.00" stroke-linejoin="bevel" points="141.732,666.733 2835.47,666.733"/>
<polyline class="BarLine" fill="none" stroke="#000000" stroke-width="4.00" stroke-linejoin="bevel" points="2802.72,565.733 2802.72,667.733"/>
<polyline class="BarLine" fill="none" stroke="#000000" stroke-width="12.50" stroke-linejoin="bevel" points="2829.22,565.733 2829.22,667.733"/>
<polyline class="BarLine" fill="none" stroke="#000000" stroke-width="4.00" stroke-linejoin="bevel" points="876.054,565.733 876.054,667.733"/>
<polyline class="BarLine" fill="none" stroke="#000000" stroke-width="4.00" stroke-linejoin="bevel" points="1160.51,565.733 1160.51,667.733"/>
<polyline class="BarLine" fill="none" stroke="#000000" stroke-width="4.00" stroke-linejoin="bevel" points="581.081,565.733 581.081,667.733"/>
<polyline class="BarLine" fill="none" stroke="#000000" stroke-width="4.00" stroke-linejoin="bevel" points="1444.97,565.733 1444.97,667.733"/>
<polyline class="BarLine" fill="none" stroke="#000000" stroke-width="4.00" stroke-linejoin="bevel" points="1664.89,565.733 1664.89,667.733"/>
<polyline class="BarLine" fill="none" stroke="#000000" stroke-width="4.00" stroke-linejoin="bevel" points="1949.34,565.733 1949.34,667.733"/>
<polyline class="BarLine" fill="none" stroke="#000000" stroke-width="4.00" stroke-linejoin="bevel" points="2233.8,565.733 2233.8,667.733"/>
<polyline class="BarLine" fill="none" stroke="#000000" stroke-width="4.00" stroke-linejoin="bevel" points="2518.26,565.733 2518.26,667.733"/>
<path class="Accidental" d="M591.972,684.311 L590.706,622.201 C590.706,621.222 591.472,620.733 593.003,620.733 C594.534,620.733 595.3,621.222 595.3,622.201 L594.518,656.092 C596.279,654.332 597.792,653.11 599.058,652.428 C600.323,651.746 602.047,651.405 604.229,651.405 C606.412,651.405 608.43,652.412 610.284,654.428 C612.138,656.444 613.065,658.951 613.065,661.951 C613.065,666.441 608.347,672.66 598.909,680.608 C595.399,683.795 593.576,685.389 593.44,685.389 L592.862,685.389 C592.268,685.389 591.972,685.03 591.972,684.311 M594.425,659.217 L594.128,681.389 C596.149,679.493 598.201,676.347 600.284,671.951 C602.367,667.556 603.409,663.795 603.409,660.67 C603.409,659.108 603.149,657.675 602.628,656.373 C602.107,655.071 601.292,654.42 600.183,654.42 C599.073,654.42 598.078,654.811 597.198,655.592 C596.318,656.373 595.393,657.582 594.425,659.217"/>
<path class="Accidental" d="M2361.46,684.311 L2360.19,622.201 C2360.19,621.222 2360.96,620.733 2362.49,620.733 C2364.02,620.733 2364.78,621.222 2364.78,622.201 L2364,656.092 C2365.76,654.332 2367.28,653.11 2368.54,652.428 C2369.81,651.746 2371.53,651.405 2373.71,651.405 C2375.9,651.405 2377.91,652.412 2379.77,654.428 C2381.62,656.444 2382.55,658.951 2382.55,661.951 C2382.55,666.441 2377.83,672.66 2368.39,680.608 C2364.88,683.795 2363.06,685.389 2362.92,685.389 L2362.35,685.389 C2361.75,685.389 2361.46,685.03 2361.46,684.311 M2363.91,659.217 L2363.61,681.389 C2365.63,679.493 2367.68,676.347 2369.77,671.951 C2371.85,667.556 2372.89,663.795 2372.89,660.67 C2372.89,659.108 2372.63,657.675 2372.11,656.373 C2371.59,655.071 2370.78,654.42 2369.67,654.42 C2368.56,654.42 2367.56,654.811 2366.68,655.592 C2365.8,656.373 2364.88,657.582 2363.91,659.217"/>
<polyline class="LedgerLine" fill="none" stroke="#000000" stroke-width="4.00" stroke-linejoin="bevel" points="314.123,691.733 367.842,691.733"/>
<polyline class="LedgerLine" fill="none" stroke="#000000" stroke-width="4.00" stroke-linejoin="bevel" points="2663.04,691.733 2716.76,691.733"/>
<polyline class="Stem" fill="none" stroke="#000000" stroke-width="3.25" stroke-linejoin="bevel" points="1189.14,621.633 1189.14,691.733"/>
<polyline class="Stem" fill="none" stroke="#000000" stroke-width="3.25" stroke-linejoin="bevel" points="1820.79,621.633 1820.79,691.733"/>
<polyline class="Stem" fill="none" stroke="#000000" stroke-width="3.25" stroke-linejoin="bevel" points="1693.51,609.133 1693.51,685.483"/>
<polyline class="Stem" fill="none" stroke="#000000" stroke-width="3.25" stroke-linejoin="bevel" points="2009.44,624.433 2009.44,547.983"/>
<polyline class="Stem" fill="none" stroke="#000000" stroke-width="3.25" stroke-linejoin="bevel" points="483.995,674.433 483.995,591.733"/>
<polyline class="Stem" fill="none" stroke="#000000" stroke-width="3.25" stroke-linejoin="bevel" points="2136.72,636.933 2136.72,554.233"/>
<polyline class="Stem" fill="none" stroke="#000000" stroke-width="3.25" stroke-linejoin="bevel" points="356.717,686.933 356.717,604.233"/>
<polyline class="Stem" fill="none" stroke="#000000" stroke-width="3.25" stroke-linejoin="bevel" points="2293.9,649.433 2293.9,566.733"/>
<polyline class="Stem" fill="none" stroke="#000000" stroke-width="3.25" stroke-linejoin="bevel" points="1316.42,609.133 1316.42,685.483"/>
<polyline class="Stem" fill="none" stroke="#000000" stroke-width="3.25" stroke-linejoin="bevel" points="2421.17,661.933 2421.17,579.233"/>
<polyline class="Stem" fill="none" stroke="#000000" stroke-width="3.25" stroke-linejoin="bevel" points="651.69,661.933 651.69,579.233"/>
<polyline class="Stem" fill="none" stroke="#000000" stroke-width="3.25" stroke-linejoin="bevel" points="1063.43,624.433 1063.43,547.983"/>
<polyline class="Stem" fill="none" stroke="#000000" stroke-width="3.25" stroke-linejoin="bevel" points="2578.35,674.433 2578.35,591.733"/>
<polyline class="Stem" fill="none" stroke="#000000" stroke-width="3.25" stroke-linejoin="bevel" points="936.148,636.933 936.148,554.233"/>
<polyline class="Stem" fill="none" stroke="#000000" stroke-width="3.25" stroke-linejoin="bevel" points="2705.63,686.933 2705.63,604.233"/>
<polyline class="Stem" fill="none" stroke="#000000" stroke-width="3.25" stroke-linejoin="bevel" points="778.968,649.433 778.968,566.733"/>
<path class="Note" d="M1826.59,627.373 C1828.47,627.373 1832.43,625.42 1838.45,621.514 C1844.48,617.608 1848.03,614.988 1849.1,613.655 C1850.18,612.321 1850.71,611.134 1850.71,610.092 C1850.71,609.05 1850.29,608.123 1849.44,607.311 C1848.59,606.498 1847.61,606.092 1846.51,606.092 C1844.56,606.092 1840.57,608.061 1834.55,611.998 C1828.52,615.936 1824.99,618.556 1823.95,619.858 C1822.9,621.16 1822.38,622.332 1822.38,623.373 C1822.38,624.415 1822.79,625.342 1823.61,626.155 C1824.43,626.967 1825.42,627.373 1826.59,627.373 M1845.54,602.967 C1851.13,602.967 1853.93,605.373 1853.93,610.186 C1853.93,612.53 1853.25,615.248 1851.88,618.342 C1850.52,621.436 1848.7,623.795 1846.41,625.42 C1841.4,628.806 1835.12,630.498 1827.57,630.498 C1821.97,630.498 1819.16,628.092 1819.16,623.28 C1819.16,621.134 1819.83,618.464 1821.16,615.272 C1822.5,612.079 1824.34,609.67 1826.68,608.045 C1831.7,604.66 1837.99,602.967 1845.54,602.967"/>
<path class="Note" d="M2268.22,664.873 C2270.11,664.873 2274.07,662.92 2280.09,659.014 C2286.12,655.108 2289.67,652.488 2290.74,651.155 C2291.81,649.821 2292.35,648.634 2292.35,647.592 C2292.35,646.55 2291.93,645.623 2291.08,644.811 C2290.23,643.998 2289.25,643.592 2288.15,643.592 C2286.2,643.592 2282.21,645.561 2276.19,649.498 C2270.16,653.436 2266.63,656.056 2265.58,657.358 C2264.54,658.66 2264.02,659.832 2264.02,660.873 C2264.02,661.915 2264.43,662.842 2265.25,663.655 C2266.07,664.467 2267.06,664.873 2268.22,664.873 M2287.18,640.467 C2292.77,640.467 2295.57,642.873 2295.57,647.686 C2295.57,650.03 2294.89,652.748 2293.52,655.842 C2292.16,658.936 2290.33,661.295 2288.05,662.92 C2283.04,666.306 2276.76,667.998 2269.21,667.998 C2263.6,667.998 2260.8,665.592 2260.8,660.78 C2260.8,658.634 2261.47,655.964 2262.8,652.772 C2264.14,649.579 2265.97,647.17 2268.32,645.545 C2273.34,642.16 2279.63,640.467 2287.18,640.467"/>
<path class="Note" d="M2395.5,677.373 C2397.39,677.373 2401.34,675.42 2407.37,671.514 C2413.4,667.608 2416.94,664.988 2418.02,663.655 C2419.09,662.321 2419.63,661.134 2419.63,660.092 C2419.63,659.05 2419.2,658.123 2418.35,657.311 C2417.5,656.498 2416.53,656.092 2415.42,656.092 C2413.48,656.092 2409.49,658.061 2403.46,661.998 C2397.44,665.936 2393.9,668.556 2392.86,669.858 C2391.82,671.16 2391.3,672.332 2391.3,673.373 C2391.3,674.415 2391.71,675.342 2392.53,676.155 C2393.34,676.967 2394.34,677.373 2395.5,677.373 M2414.46,652.967 C2420.05,652.967 2422.85,655.373 2422.85,660.186 C2422.85,662.53 2422.16,665.248 2420.8,668.342 C2419.43,671.436 2417.61,673.795 2415.33,675.42 C2410.32,678.806 2404.04,680.498 2396.49,680.498 C2390.88,680.498 2388.08,678.092 2388.08,673.28 C2388.08,671.134 2388.75,668.464 2390.08,665.272 C2391.41,662.079 2393.25,659.67 2395.6,658.045 C2400.62,654.66 2406.9,652.967 2414.46,652.967"/>
<path class="Note" d="M2111.04,652.373 C2112.93,652.373 2116.89,650.42 2122.91,646.514 C2128.94,642.608 2132.49,639.988 2133.56,638.655 C2134.63,637.321 2135.17,636.134 2135.17,635.092 C2135.17,634.05 2134.74,633.123 2133.9,632.311 C2133.05,631.498 2132.07,631.092 2130.97,631.092 C2129.02,631.092 2125.03,633.061 2119.01,636.998 C2112.98,640.936 2109.45,643.556 2108.4,644.858 C2107.36,646.16 2106.84,647.332 2106.84,648.373 C2106.84,649.415 2107.25,650.342 2108.07,651.155 C2108.89,651.967 2109.88,652.373 2111.04,652.373 M2130,627.967 C2135.59,627.967 2138.39,630.373 2138.39,635.186 C2138.39,637.53 2137.71,640.248 2136.34,643.342 C2134.98,646.436 2133.15,648.795 2130.87,650.42 C2125.86,653.806 2119.58,655.498 2112.03,655.498 C2106.42,655.498 2103.62,653.092 2103.62,648.28 C2103.62,646.134 2104.29,643.464 2105.62,640.272 C2106.96,637.079 2108.79,634.67 2111.14,633.045 C2116.16,629.66 2122.45,627.967 2130,627.967"/>
<path class="Note" d="M1983.77,639.873 C1985.65,639.873 1989.61,637.92 1995.63,634.014 C2001.66,630.108 2005.21,627.488 2006.28,626.155 C2007.36,624.821 2007.89,623.634 2007.89,622.592 C2007.89,621.55 2007.47,620.623 2006.62,619.811 C2005.77,618.998 2004.79,618.592 2003.69,618.592 C2001.74,618.592 1997.75,620.561 1991.73,624.498 C1985.7,628.436 1982.17,631.056 1981.13,632.358 C1980.08,633.66 1979.56,634.832 1979.56,635.873 C1979.56,636.915 1979.97,637.842 1980.79,638.655 C1981.61,639.467 1982.6,639.873 1983.77,639.873 M2002.72,615.467 C2008.31,615.467 2011.11,617.873 2011.11,622.686 C2011.11,625.03 2010.43,627.748 2009.06,630.842 C2007.7,633.936 2005.88,636.295 2003.59,637.92 C1998.58,641.306 1992.3,642.998 1984.75,642.998 C1979.15,642.998 1976.34,640.592 1976.34,635.78 C1976.34,633.634 1977.01,630.964 1978.34,627.772 C1979.68,624.579 1981.52,622.17 1983.86,620.545 C1988.88,617.16 1995.17,615.467 2002.72,615.467"/>
<path class="Note" d="M2552.68,689.873 C2554.57,689.873 2558.52,687.92 2564.55,684.014 C2570.58,680.108 2574.13,677.488 2575.2,676.155 C2576.27,674.821 2576.81,673.634 2576.81,672.592 C2576.81,671.55 2576.38,670.623 2575.53,669.811 C2574.68,668.998 2573.71,668.592 2572.6,668.592 C2570.66,668.592 2566.67,670.561 2560.64,674.498 C2554.62,678.436 2551.08,681.056 2550.04,682.358 C2549,683.66 2548.48,684.832 2548.48,685.873 C2548.48,686.915 2548.89,687.842 2549.71,688.655 C2550.52,689.467 2551.52,689.873 2552.68,689.873 M2571.64,665.467 C2577.23,665.467 2580.03,667.873 2580.03,672.686 C2580.03,675.03 2579.34,677.748 2577.98,680.842 C2576.61,683.936 2574.79,686.295 2572.51,687.92 C2567.5,691.306 2561.22,692.998 2553.67,692.998 C2548.06,692.998 2545.26,690.592 2545.26,685.78 C2545.26,683.634 2545.93,680.964 2547.26,677.772 C2548.59,674.579 2550.43,672.17 2552.78,670.545 C2557.8,667.16 2564.08,665.467 2571.64,665.467"/>
<path class="Note" d="M2679.96,702.373 C2681.85,702.373 2685.8,700.42 2691.83,696.514 C2697.85,692.608 2701.4,689.988 2702.48,688.655 C2703.55,687.321 2704.09,686.134 2704.09,685.092 C2704.09,684.05 2703.66,683.123 2702.81,682.311 C2701.96,681.498 2700.99,681.092 2699.88,681.092 C2697.93,681.092 2693.95,683.061 2687.92,686.998 C2681.9,690.936 2678.36,693.556 2677.32,694.858 C2676.28,696.16 2675.76,697.332 2675.76,698.373 C2675.76,699.415 2676.17,700.342 2676.98,701.155 C2677.8,701.967 2678.79,702.373 2679.96,702.373 M2698.91,677.967 C2704.51,677.967 2707.3,680.373 2707.3,685.186 C2707.3,687.53 2706.62,690.248 2705.26,693.342 C2703.89,696.436 2702.07,698.795 2699.79,700.42 C2694.78,703.806 2688.5,705.498 2680.94,705.498 C2675.34,705.498 2672.54,703.092 2672.54,698.28 C2672.54,696.134 2673.2,693.464 2674.54,690.272 C2675.87,687.079 2677.71,684.67 2680.05,683.045 C2685.07,679.66 2691.36,677.967 2698.91,677.967"/>
<path class="Note" d="M331.045,702.373 C332.93,702.373 336.886,700.42 342.912,696.514 C348.938,692.608 352.488,689.988 353.561,688.655 C354.634,687.321 355.17,686.134 355.17,685.092 C355.17,684.05 354.745,683.123 353.897,682.311 C353.048,681.498 352.071,681.092 350.967,681.092 C349.019,681.092 345.032,683.061 339.006,686.998 C332.98,690.936 329.446,693.556 328.404,694.858 C327.363,696.16 326.842,697.332 326.842,698.373 C326.842,699.415 327.251,700.342 328.068,701.155 C328.886,701.967 329.878,702.373 331.045,702.373 M349.998,677.967 C355.592,677.967 358.389,680.373 358.389,685.186 C358.389,687.53 357.706,690.248 356.342,693.342 C354.977,696.436 353.154,698.795 350.873,700.42 C345.863,703.806 339.581,705.498 332.029,705.498 C326.425,705.498 323.623,703.092 323.623,698.28 C323.623,696.134 324.29,693.464 325.623,690.272 C326.956,687.079 328.795,684.67 331.139,683.045 C336.16,679.66 342.446,677.967 349.998,677.967"/>
<path class="Note" d="M910.476,652.373 C912.362,652.373 916.317,650.42 922.344,646.514 C928.37,642.608 931.919,639.988 932.992,638.655 C934.065,637.321 934.601,636.134 934.601,635.092 C934.601,634.05 934.177,633.123 933.328,632.311 C932.479,631.498 931.502,631.092 930.398,631.092 C928.45,631.092 924.463,633.061 918.437,636.998 C912.411,640.936 908.877,643.556 907.836,644.858 C906.794,646.16 906.273,647.332 906.273,648.373 C906.273,649.415 906.682,650.342 907.5,651.155 C908.317,651.967 909.31,652.373 910.476,652.373 M929.429,627.967 C935.023,627.967 937.82,630.373 937.82,635.186 C937.82,637.53 937.138,640.248 935.773,643.342 C934.409,646.436 932.586,648.795 930.304,650.42 C925.294,653.806 919.013,655.498 911.461,655.498 C905.857,655.498 903.054,653.092 903.054,648.28 C903.054,646.134 903.721,643.464 905.054,640.272 C906.388,637.079 908.226,634.67 910.57,633.045 C915.591,629.66 921.877,627.967 929.429,627.967"/>
<path class="Note" d="M1037.75,639.873 C1039.64,639.873 1043.6,637.92 1049.62,634.014 C1055.65,630.108 1059.2,627.488 1060.27,626.155 C1061.34,624.821 1061.88,623.634 1061.88,622.592 C1061.88,621.55 1061.45,620.623 1060.61,619.811 C1059.76,618.998 1058.78,618.592 1057.68,618.592 C1055.73,618.592 1051.74,620.561 1045.72,624.498 C1039.69,628.436 1036.16,631.056 1035.11,632.358 C1034.07,633.66 1033.55,634.832 1033.55,635.873 C1033.55,636.915 1033.96,637.842 1034.78,638.655 C1035.6,639.467 1036.59,639.873 1037.75,639.873 M1056.71,615.467 C1062.3,615.467 1065.1,617.873 1065.1,622.686 C1065.1,625.03 1064.42,627.748 1063.05,630.842 C1061.69,633.936 1059.86,636.295 1057.58,637.92 C1052.57,641.306 1046.29,642.998 1038.74,642.998 C1033.13,642.998 1030.33,640.592 1030.33,635.78 C1030.33,633.634 1031,630.964 1032.33,627.772 C1033.67,624.579 1035.5,622.17 1037.85,620.545 C1042.87,617.16 1049.16,615.467 1056.71,615.467"/>
<path class="Note" d="M1194.93,627.373 C1196.82,627.373 1200.78,625.42 1206.8,621.514 C1212.83,617.608 1216.38,614.988 1217.45,613.655 C1218.52,612.321 1219.06,611.134 1219.06,610.092 C1219.06,609.05 1218.63,608.123 1217.79,607.311 C1216.94,606.498 1215.96,606.092 1214.86,606.092 C1212.91,606.092 1208.92,608.061 1202.9,611.998 C1196.87,615.936 1193.34,618.556 1192.29,619.858 C1191.25,621.16 1190.73,622.332 1190.73,623.373 C1190.73,624.415 1191.14,625.342 1191.96,626.155 C1192.78,626.967 1193.77,627.373 1194.93,627.373 M1213.89,602.967 C1219.48,602.967 1222.28,605.373 1222.28,610.186 C1222.28,612.53 1221.6,615.248 1220.23,618.342 C1218.87,621.436 1217.04,623.795 1214.76,625.42 C1209.75,628.806 1203.47,630.498 1195.92,630.498 C1190.31,630.498 1187.51,628.092 1187.51,623.28 C1187.51,621.134 1188.18,618.464 1189.51,615.272 C1190.85,612.079 1192.68,609.67 1195.03,608.045 C1200.05,604.66 1206.34,602.967 1213.89,602.967"/>
<path class="Note" d="M1322.21,614.873 C1324.1,614.873 1328.05,612.92 1334.08,609.014 C1340.11,605.108 1343.65,602.488 1344.73,601.155 C1345.8,599.821 1346.34,598.634 1346.34,597.592 C1346.34,596.55 1345.91,595.623 1345.06,594.811 C1344.21,593.998 1343.24,593.592 1342.13,593.592 C1340.19,593.592 1336.2,595.561 1330.17,599.498 C1324.15,603.436 1320.61,606.056 1319.57,607.358 C1318.53,608.66 1318.01,609.832 1318.01,610.873 C1318.01,611.915 1318.42,612.842 1319.24,613.655 C1320.05,614.467 1321.05,614.873 1322.21,614.873 M1341.17,590.467 C1346.76,590.467 1349.56,592.873 1349.56,597.686 C1349.56,600.03 1348.87,602.748 1347.51,605.842 C1346.14,608.936 1344.32,611.295 1342.04,612.92 C1337.03,616.306 1330.75,617.998 1323.2,617.998 C1317.59,617.998 1314.79,615.592 1314.79,610.78 C1314.79,608.634 1315.46,605.964 1316.79,602.772 C1318.12,599.579 1319.96,597.17 1322.31,595.545 C1327.33,592.16 1333.61,590.467 1341.17,590.467"/>
<path class="Note" d="M458.323,689.873 C460.208,689.873 464.164,687.92 470.19,684.014 C476.216,680.108 479.765,677.488 480.838,676.155 C481.911,674.821 482.448,673.634 482.448,672.592 C482.448,671.55 482.023,670.623 481.174,669.811 C480.325,668.998 479.349,668.592 478.245,668.592 C476.297,668.592 472.31,670.561 466.284,674.498 C460.258,678.436 456.724,681.056 455.682,682.358 C454.64,683.66 454.12,684.832 454.12,685.873 C454.12,686.915 454.528,687.842 455.346,688.655 C456.164,689.467 457.156,689.873 458.323,689.873 M477.276,665.467 C482.87,665.467 485.666,667.873 485.666,672.686 C485.666,675.03 484.984,677.748 483.62,680.842 C482.255,683.936 480.432,686.295 478.151,687.92 C473.14,691.306 466.859,692.998 459.307,692.998 C453.703,692.998 450.901,690.592 450.901,685.78 C450.901,683.634 451.568,680.964 452.901,677.772 C454.234,674.579 456.073,672.17 458.416,670.545 C463.437,667.16 469.724,665.467 477.276,665.467"/>
<path class="Note" d="M626.018,677.373 C627.904,677.373 631.86,675.42 637.886,671.514 C643.912,667.608 647.461,664.988 648.534,663.655 C649.607,662.321 650.143,661.134 650.143,660.092 C650.143,659.05 649.719,658.123 648.87,657.311 C648.021,656.498 647.045,656.092 645.94,656.092 C643.992,656.092 640.005,658.061 633.979,661.998 C627.953,665.936 624.42,668.556 623.378,669.858 C622.336,671.16 621.815,672.332 621.815,673.373 C621.815,674.415 622.224,675.342 623.042,676.155 C623.86,676.967 624.852,677.373 626.018,677.373 M644.972,652.967 C650.565,652.967 653.362,655.373 653.362,660.186 C653.362,662.53 652.68,665.248 651.315,668.342 C649.951,671.436 648.128,673.795 645.847,675.42 C640.836,678.806 634.555,680.498 627.003,680.498 C621.399,680.498 618.597,678.092 618.597,673.28 C618.597,671.134 619.263,668.464 620.597,665.272 C621.93,662.079 623.768,659.67 626.112,658.045 C631.133,654.66 637.42,652.967 644.972,652.967"/>
<path class="Note" d="M1699.31,614.873 C1701.19,614.873 1705.15,612.92 1711.18,609.014 C1717.2,605.108 1720.75,602.488 1721.82,601.155 C1722.9,599.821 1723.43,598.634 1723.43,597.592 C1723.43,596.55 1723.01,595.623 1722.16,594.811 C1721.31,593.998 1720.33,593.592 1719.23,593.592 C1717.28,593.592 1713.3,595.561 1707.27,599.498 C1701.24,603.436 1697.71,606.056 1696.67,607.358 C1695.63,608.66 1695.11,609.832 1695.11,610.873 C1695.11,611.915 1695.51,612.842 1696.33,613.655 C1697.15,614.467 1698.14,614.873 1699.31,614.873 M1718.26,590.467 C1723.86,590.467 1726.65,592.873 1726.65,597.686 C1726.65,600.03 1725.97,602.748 1724.61,605.842 C1723.24,608.936 1721.42,611.295 1719.14,612.92 C1714.13,616.306 1707.85,617.998 1700.29,617.998 C1694.69,617.998 1691.89,615.592 1691.89,610.78 C1691.89,608.634 1692.55,605.964 1693.89,602.772 C1695.22,599.579 1697.06,597.17 1699.4,595.545 C1704.42,592.16 1710.71,590.467 1718.26,590.467"/>
<path class="Note" d="M753.296,664.873 C755.182,664.873 759.137,662.92 765.163,659.014 C771.189,655.108 774.739,652.488 775.812,651.155 C776.885,649.821 777.421,648.634 777.421,647.592 C777.421,646.55 776.997,645.623 776.148,644.811 C775.299,643.998 774.322,643.592 773.218,643.592 C771.27,643.592 767.283,645.561 761.257,649.498 C755.231,653.436 751.697,656.056 750.656,657.358 C749.614,658.66 749.093,659.832 749.093,660.873 C749.093,661.915 749.502,662.842 750.32,663.655 C751.137,664.467 752.13,664.873 753.296,664.873 M772.249,640.467 C777.843,640.467 780.64,642.873 780.64,647.686 C780.64,650.03 779.958,652.748 778.593,655.842 C777.229,658.936 775.406,661.295 773.124,662.92 C768.114,666.306 761.833,667.998 754.281,667.998 C748.676,667.998 745.874,665.592 745.874,660.78 C745.874,658.634 746.541,655.964 747.874,652.772 C749.208,649.579 751.046,647.17 753.39,645.545 C758.411,642.16 764.697,640.467 772.249,640.467"/>
<path class="Clef" d="M203.623,673.858 L203.623,671.717 C203.56,670.613 203.399,668.889 203.139,666.545 C199.889,667.066 196.993,667.326 194.451,667.326 C185.337,667.326 177.605,663.727 171.256,656.53 C164.907,649.332 161.732,640.754 161.732,630.795 C161.732,628.129 162.253,624.923 163.295,621.178 C164.337,617.433 165.297,614.925 166.178,613.655 C167.058,612.384 168.378,610.155 170.139,606.967 C170.659,605.988 172.352,603.837 175.217,600.514 C175.738,599.806 176.193,599.222 176.584,598.764 C176.975,598.306 177.607,597.49 178.482,596.319 C179.357,595.147 180.3,594.056 181.31,593.045 C182.321,592.035 183.217,591.058 183.998,590.115 C184.779,589.173 185.498,588.379 186.154,587.733 C183.81,579.983 182.378,574.024 181.857,569.858 C181.337,565.691 181.076,560.579 181.076,554.522 C181.076,548.464 182.378,542.962 184.982,538.014 C187.514,532.879 191.06,528.681 195.623,525.42 C195.883,525.222 196.225,525.123 196.646,525.123 C197.068,525.123 197.378,525.222 197.576,525.42 C201.087,529.649 204.128,535.149 206.701,541.92 C209.274,548.691 210.56,555.024 210.56,560.92 C210.56,566.816 209.066,572.498 206.076,577.967 C202.691,583.759 198.326,589.748 192.982,595.936 C194.347,600.227 196.17,606.962 198.451,616.139 L199.045,616.139 C199.305,616.076 199.529,616.045 199.717,616.045 C207.081,616.045 213.089,618.634 217.74,623.811 C222.391,628.988 224.717,634.962 224.717,641.733 C224.717,650.129 221.238,656.899 214.279,662.045 C212.258,663.545 209.878,664.717 207.139,665.561 C207.472,669.79 207.639,672.605 207.639,674.006 C207.639,675.407 207.571,677.899 207.435,681.483 C207.373,687.597 205.29,692.837 201.185,697.201 C197.081,701.566 192.394,703.748 187.123,703.748 C181.852,703.748 177.36,701.876 173.646,698.131 C169.933,694.386 168.076,689.847 168.076,684.514 C168.076,681.712 169.154,679.332 171.31,677.373 C173.519,675.425 176.006,674.451 178.771,674.451 C181.537,674.451 183.8,675.462 185.56,677.483 C187.383,679.368 188.295,681.644 188.295,684.311 C188.295,686.977 187.383,689.222 185.56,691.045 C183.738,692.868 181.555,693.78 179.014,693.78 C177.972,693.78 176.967,693.587 175.998,693.201 C178.863,697.431 182.54,699.545 187.029,699.545 C191.519,699.545 195.36,697.691 198.553,693.983 C201.745,690.274 203.342,685.91 203.342,680.889 L203.623,673.858 M206.748,661.561 C210.133,660.321 212.821,658.123 214.81,654.967 C216.8,651.811 217.795,648.67 217.795,645.545 C217.795,640.92 216.199,636.785 213.006,633.139 C209.813,629.493 205.774,627.441 200.889,626.983 C203.691,640.722 205.644,652.248 206.748,661.561 M168.967,638.998 C168.967,645.446 171.537,651.079 176.678,655.897 C181.818,660.714 187.842,663.123 194.748,663.123 C197.477,663.123 200.144,662.925 202.748,662.53 C201.706,652.634 199.654,640.785 196.592,626.983 C192.758,627.379 189.782,628.699 187.662,630.944 C185.542,633.188 184.482,635.743 184.482,638.608 C184.482,643.556 187.123,647.561 192.404,650.623 C192.852,650.884 193.076,651.324 193.076,651.944 C193.076,652.563 192.865,653.1 192.443,653.553 C192.021,654.006 191.649,654.233 191.326,654.233 C191.003,654.233 190.581,654.17 190.06,654.045 C182.435,649.879 178.623,643.592 178.623,635.186 C178.623,631.217 180.024,627.41 182.826,623.764 C185.753,620.118 189.56,617.774 194.248,616.733 C192.425,609.441 190.93,603.743 189.764,599.639 C180.847,609.67 175.31,617.092 173.154,621.905 C170.363,628.155 168.967,633.852 168.967,638.998 M201.576,539.686 C196.691,542.092 192.834,545.574 190.006,550.131 C187.178,554.688 185.764,559.472 185.764,564.483 C185.764,569.493 186.935,575.972 189.279,583.92 C193.967,578.254 197.514,572.946 199.92,567.998 C202.326,563.05 203.529,558.152 203.529,553.303 C203.529,548.454 202.878,543.915 201.576,539.686"/>
<path class="TimeSig" d="M273.021,567.912 C274.516,567.912 275.949,567.686 277.318,567.233 C278.688,566.78 279.665,566.553 280.248,566.553 C280.831,566.553 281.222,566.907 281.42,567.615 C281.42,567.688 281.352,567.886 281.217,568.209 L252.811,601.225 L269.498,601.225 L269.498,588.131 C269.498,586.506 270.446,585.334 272.342,584.615 C274.29,583.897 276.503,581.001 278.982,575.928 C279.17,575.532 279.462,575.334 279.857,575.334 C280.639,575.334 281.092,575.793 281.217,576.709 L281.217,601.225 L288.357,601.225 C289.264,601.225 289.751,601.712 289.818,602.686 C289.886,603.66 289.399,604.147 288.357,604.147 L281.217,604.147 L281.217,604.928 C281.217,607.532 281.868,609.746 283.17,611.569 C284.67,613.391 286.43,614.303 288.451,614.303 C289.232,614.303 289.623,614.694 289.623,615.475 C289.623,616.256 289.087,616.647 288.014,616.647 C286.941,616.647 284.938,616.436 282.006,616.014 C279.074,615.592 276.811,615.381 275.217,615.381 C273.623,615.381 271.41,615.592 268.576,616.014 C265.743,616.436 263.613,616.647 262.186,616.647 C261.404,616.647 261.014,616.256 261.014,615.475 C261.014,614.694 261.404,614.303 262.186,614.303 C264.196,614.303 265.951,613.391 267.451,611.569 C268.816,609.683 269.498,607.47 269.498,604.928 L269.498,604.147 L252.811,604.147 C251.956,604.147 251.219,603.92 250.6,603.467 C249.98,603.014 249.67,602.592 249.67,602.201 C249.67,601.811 250.485,600.639 252.115,598.686 C253.745,596.733 256.074,592.972 259.1,587.405 C262.126,581.837 263.639,575.438 263.639,568.209 C263.639,567.168 264.097,566.647 265.014,566.647 C265.212,566.647 265.521,566.712 265.943,566.842 C266.365,566.972 267.277,567.183 268.678,567.475 C270.079,567.766 271.527,567.912 273.021,567.912"/>
<path class="TimeSig" d="M273.021,618.084 C274.516,618.084 275.949,617.858 277.318,617.405 C278.688,616.951 279.665,616.725 280.248,616.725 C280.831,616.725 281.222,617.079 281.42,617.787 C281.42,617.86 281.352,618.058 281.217,618.381 L252.811,651.397 L269.498,651.397 L269.498,638.303 C269.498,636.678 270.446,635.506 272.342,634.787 C274.29,634.069 276.503,631.173 278.982,626.1 C279.17,625.704 279.462,625.506 279.857,625.506 C280.639,625.506 281.092,625.964 281.217,626.881 L281.217,651.397 L288.357,651.397 C289.264,651.397 289.751,651.884 289.818,652.858 C289.886,653.832 289.399,654.319 288.357,654.319 L281.217,654.319 L281.217,655.1 C281.217,657.704 281.868,659.918 283.17,661.74 C284.67,663.563 286.43,664.475 288.451,664.475 C289.232,664.475 289.623,664.865 289.623,665.647 C289.623,666.428 289.087,666.819 288.014,666.819 C286.941,666.819 284.938,666.608 282.006,666.186 C279.074,665.764 276.811,665.553 275.217,665.553 C273.623,665.553 271.41,665.764 268.576,666.186 C265.743,666.608 263.613,666.819 262.186,666.819 C261.404,666.819 261.014,666.428 261.014,665.647 C261.014,664.865 261.404,664.475 262.186,664.475 C264.196,664.475 265.951,663.563 267.451,661.74 C268.816,659.855 269.498,657.642 269.498,655.1 L269.498,654.319 L252.811,654.319 C251.956,654.319 251.219,654.092 250.6,653.639 C249.98,653.186 249.67,652.764 249.67,652.373 C249.67,651.983 250.485,650.811 252.115,648.858 C253.745,646.905 256.074,643.144 259.1,637.576 C262.126,632.009 263.639,625.61 263.639,618.381 C263.639,617.339 264.097,616.819 265.014,616.819 C265.212,616.819 265.521,616.884 265.943,617.014 C266.365,617.144 267.277,617.355 268.678,617.647 C270.079,617.938 271.527,618.084 273.021,618.084"/>
<path class="Rest" d="M1572.71,607.358 L1537.16,607.358 C1536.51,607.358 1536.18,607.035 1536.18,606.389 L1536.18,592.717 C1536.18,592.061 1536.51,591.733 1537.16,591.733 L1572.71,591.733 C1573.36,591.733 1573.68,592.061 1573.68,592.717 L1573.68,606.389 C1573.68,607.035 1573.36,607.358 1572.71,607.358"/>
<path class="Lyrics" d="M741.874,753.389 L755.406,753.389 L755.406,756.686 L741.874,756.686 L741.874,753.389 M759.749,741.17 C759.937,740.326 760.122,739.592 760.304,738.967 C760.486,738.342 760.88,737.436 761.484,736.248 C762.088,735.061 762.765,734.074 763.515,733.287 C764.265,732.501 765.309,731.795 766.648,731.17 C767.986,730.545 769.499,730.233 771.187,730.233 C774.051,730.233 776.463,731.165 778.421,733.03 C780.38,734.894 781.359,737.201 781.359,739.951 C781.359,744.118 779.015,748.67 774.327,753.608 L765.093,763.342 L778.234,763.342 C779.473,763.342 780.395,763.131 780.999,762.709 C781.604,762.287 782.421,761.28 783.452,759.686 L784.171,759.967 L781.14,767.358 L759.702,767.358 L759.702,766.717 L769.484,756.342 C774.255,751.28 776.64,746.514 776.64,742.045 C776.64,739.722 775.924,737.842 774.492,736.405 C773.059,734.967 771.187,734.248 768.874,734.248 C766.968,734.248 765.439,734.774 764.288,735.826 C763.137,736.879 762.01,738.748 760.906,741.436 L759.749,741.17 "/>
<path class="Lyrics" d="M2543.76,753.389 L2557.29,753.389 L2557.29,756.686 L2543.76,756.686 L2543.76,753.389 M2569.99,734.748 C2569.34,734.748 2568.02,735.149 2566.04,735.951 L2566.04,735.186 L2575.93,730.186 L2576.37,730.295 L2576.37,763.295 C2576.37,764.608 2576.7,765.467 2577.36,765.873 C2578.02,766.28 2579.44,766.498 2581.6,766.53 L2581.6,767.358 L2566.42,767.358 L2566.42,766.53 C2568.47,766.457 2569.85,766.155 2570.57,765.623 C2571.29,765.092 2571.65,763.967 2571.65,762.248 L2571.65,737.326 C2571.65,735.608 2571.1,734.748 2569.99,734.748"/>
<path class="Lyrics" d="M1815.66,753.389 L1829.2,753.389 L1829.2,756.686 L1815.66,756.686 L1815.66,753.389 M1857.79,754.873 L1857.79,758.17 L1852.18,758.17 L1852.18,767.358 L1847.95,767.358 L1847.95,758.17 L1832.49,758.17 L1832.49,754.873 L1849.76,730.186 L1852.18,730.186 L1852.18,754.873 L1857.79,754.873 M1847.9,754.873 L1847.9,736.014 L1834.7,754.873 L1847.9,754.873 "/>
<path class="Lyrics" d="M911.867,763.061 C912.711,763.061 913.966,763.558 915.633,764.553 C917.299,765.548 918.758,766.045 920.008,766.045 C922.028,766.045 923.734,765.261 925.125,763.694 C926.515,762.126 927.211,760.196 927.211,757.905 C927.211,756.478 926.963,755.217 926.469,754.123 C925.974,753.03 925.341,752.183 924.57,751.584 C923.799,750.985 922.883,750.496 921.82,750.116 C920.758,749.735 919.76,749.491 918.828,749.381 C917.896,749.272 916.893,749.217 915.82,749.217 L915.82,748.498 C917.07,748.061 918.146,747.631 919.047,747.209 C919.948,746.787 920.893,746.217 921.883,745.498 C922.872,744.78 923.633,743.907 924.164,742.881 C924.695,741.855 924.961,740.686 924.961,739.373 C924.961,737.644 924.401,736.23 923.281,735.131 C922.161,734.032 920.706,733.483 918.914,733.483 C917.185,733.483 915.669,733.949 914.367,734.881 C913.065,735.813 911.846,737.29 910.711,739.311 L909.883,739.092 C910.841,736.488 912.135,734.353 913.765,732.686 C915.396,731.019 917.716,730.186 920.726,730.186 C923.258,730.186 925.32,730.881 926.914,732.272 C928.508,733.662 929.304,735.478 929.304,737.717 C929.304,739.217 928.919,740.535 928.148,741.67 C927.377,742.806 926.039,744.019 924.133,745.311 C926.331,746.259 928.052,747.472 929.297,748.951 C930.541,750.431 931.164,752.54 931.164,755.28 C931.164,759.175 929.726,762.29 926.851,764.623 C923.976,766.957 920.357,768.123 915.992,768.123 C914.086,768.123 912.573,767.84 911.453,767.272 C910.333,766.704 909.773,765.946 909.773,764.998 C909.773,764.405 909.966,763.933 910.351,763.584 C910.737,763.235 911.242,763.061 911.867,763.061"/>
<path class="Lyrics" d="M2371.58,753.389 L2385.11,753.389 L2385.11,756.686 L2371.58,756.686 L2371.58,753.389 M2397.81,734.748 C2397.16,734.748 2395.84,735.149 2393.86,735.951 L2393.86,735.186 L2403.75,730.186 L2404.19,730.295 L2404.19,763.295 C2404.19,764.608 2404.52,765.467 2405.18,765.873 C2405.84,766.28 2407.26,766.498 2409.42,766.53 L2409.42,767.358 L2394.24,767.358 L2394.24,766.53 C2396.29,766.457 2397.67,766.155 2398.39,765.623 C2399.11,765.092 2399.47,763.967 2399.47,762.248 L2399.47,737.326 C2399.47,735.608 2398.92,734.748 2397.81,734.748 M2427.02,750.701 C2427.02,750.337 2427.27,749.358 2427.76,747.764 C2428.25,746.17 2428.5,744.326 2428.5,742.233 C2427.08,743.118 2425.9,744.076 2424.99,745.108 C2424.07,746.139 2423.38,746.889 2422.92,747.358 C2422.47,747.826 2421.84,748.061 2421.03,748.061 C2419.71,748.061 2419.05,747.41 2419.05,746.108 C2419.05,745.472 2419.29,744.998 2419.76,744.686 C2420.23,744.373 2420.82,744.152 2421.52,744.022 C2422.22,743.892 2423.2,743.597 2424.46,743.139 C2425.73,742.681 2426.95,742.108 2428.13,741.42 C2426.69,740.691 2425.14,740.126 2423.47,739.725 C2421.8,739.324 2420.65,738.959 2420.01,738.631 C2419.37,738.303 2419.05,737.701 2419.05,736.826 C2419.05,736.274 2419.23,735.808 2419.6,735.428 C2419.96,735.048 2420.4,734.858 2420.92,734.858 C2421.51,734.858 2422.03,735.022 2422.49,735.35 C2422.94,735.678 2423.34,736.079 2423.67,736.553 C2423.99,737.027 2424.59,737.647 2425.46,738.412 C2426.32,739.178 2427.34,739.905 2428.5,740.592 C2428.5,738.509 2428.27,736.66 2427.81,735.045 C2427.36,733.431 2427.13,732.441 2427.13,732.076 C2427.13,731.524 2427.31,731.066 2427.68,730.701 C2428.05,730.337 2428.51,730.155 2429.06,730.155 C2429.6,730.155 2430.07,730.347 2430.46,730.733 C2430.84,731.118 2431.03,731.603 2431.03,732.186 C2431.03,732.665 2430.79,733.665 2430.29,735.186 C2429.8,736.707 2429.55,738.545 2429.55,740.701 C2430.83,739.899 2431.96,738.98 2432.93,737.944 C2433.91,736.907 2434.66,736.116 2435.19,735.569 C2435.72,735.022 2436.31,734.748 2436.97,734.748 C2437.56,734.748 2438.04,734.949 2438.41,735.35 C2438.77,735.751 2438.96,736.259 2438.96,736.873 C2438.96,737.644 2438.59,738.194 2437.85,738.522 C2437.12,738.85 2435.94,739.241 2434.33,739.694 C2432.72,740.147 2431.27,740.738 2429.99,741.467 C2431.09,742.165 2432.27,742.722 2433.51,743.139 C2434.75,743.556 2435.73,743.819 2436.45,743.928 C2437.16,744.037 2437.77,744.259 2438.26,744.592 C2438.75,744.925 2439,745.41 2439,746.045 C2439,746.681 2438.83,747.183 2438.49,747.553 C2438.14,747.923 2437.67,748.108 2437.08,748.108 C2436.31,748.108 2435.67,747.876 2435.16,747.412 C2434.65,746.949 2433.91,746.188 2432.93,745.131 C2431.96,744.074 2430.83,743.108 2429.55,742.233 C2429.55,744.326 2429.81,746.188 2430.32,747.819 C2430.84,749.449 2431.1,750.358 2431.1,750.545 C2431.1,751.129 2430.89,751.642 2430.46,752.084 C2430.04,752.527 2429.53,752.748 2428.94,752.748 C2428.43,752.748 2427.98,752.545 2427.6,752.139 C2427.21,751.733 2427.02,751.254 2427.02,750.701"/>
<path class="Lyrics" d="M2685.96,734.748 C2685.3,734.748 2683.99,735.149 2682.01,735.951 L2682.01,735.186 L2691.9,730.186 L2692.34,730.295 L2692.34,763.295 C2692.34,764.608 2692.67,765.467 2693.33,765.873 C2693.99,766.28 2695.4,766.498 2697.57,766.53 L2697.57,767.358 L2682.38,767.358 L2682.38,766.53 C2684.43,766.457 2685.82,766.155 2686.54,765.623 C2687.26,765.092 2687.62,763.967 2687.62,762.248 L2687.62,737.326 C2687.62,735.608 2687.06,734.748 2685.96,734.748"/>
<path class="Lyrics" d="M1027.83,753.389 L1041.36,753.389 L1041.36,756.686 L1027.83,756.686 L1027.83,753.389 M1048.46,763.061 C1049.3,763.061 1050.56,763.558 1052.22,764.553 C1053.89,765.548 1055.35,766.045 1056.6,766.045 C1058.62,766.045 1060.32,765.261 1061.72,763.694 C1063.11,762.126 1063.8,760.196 1063.8,757.905 C1063.8,756.478 1063.55,755.217 1063.06,754.123 C1062.56,753.03 1061.93,752.183 1061.16,751.584 C1060.39,750.985 1059.47,750.496 1058.41,750.116 C1057.35,749.735 1056.35,749.491 1055.42,749.381 C1054.49,749.272 1053.48,749.217 1052.41,749.217 L1052.41,748.498 C1053.66,748.061 1054.74,747.631 1055.64,747.209 C1056.54,746.787 1057.48,746.217 1058.47,745.498 C1059.46,744.78 1060.22,743.907 1060.75,742.881 C1061.29,741.855 1061.55,740.686 1061.55,739.373 C1061.55,737.644 1060.99,736.23 1059.87,735.131 C1058.75,734.032 1057.3,733.483 1055.5,733.483 C1053.77,733.483 1052.26,733.949 1050.96,734.881 C1049.66,735.813 1048.44,737.29 1047.3,739.311 L1046.47,739.092 C1047.43,736.488 1048.73,734.353 1050.36,732.686 C1051.99,731.019 1054.31,730.186 1057.32,730.186 C1059.85,730.186 1061.91,730.881 1063.5,732.272 C1065.1,733.662 1065.89,735.478 1065.89,737.717 C1065.89,739.217 1065.51,740.535 1064.74,741.67 C1063.97,742.806 1062.63,744.019 1060.72,745.311 C1062.92,746.259 1064.64,747.472 1065.89,748.951 C1067.13,750.431 1067.75,752.54 1067.75,755.28 C1067.75,759.175 1066.32,762.29 1063.44,764.623 C1060.57,766.957 1056.95,768.123 1052.58,768.123 C1050.68,768.123 1049.16,767.84 1048.04,767.272 C1046.92,766.704 1046.36,765.946 1046.36,764.998 C1046.36,764.405 1046.56,763.933 1046.94,763.584 C1047.33,763.235 1047.83,763.061 1048.46,763.061"/>
<path class="Lyrics" d="M2256.8,753.389 L2270.33,753.389 L2270.33,756.686 L2256.8,756.686 L2256.8,753.389 M2274.68,741.17 C2274.87,740.326 2275.05,739.592 2275.23,738.967 C2275.41,738.342 2275.81,737.436 2276.41,736.248 C2277.02,735.061 2277.69,734.074 2278.44,733.287 C2279.19,732.501 2280.24,731.795 2281.58,731.17 C2282.91,730.545 2284.43,730.233 2286.12,730.233 C2288.98,730.233 2291.39,731.165 2293.35,733.03 C2295.31,734.894 2296.29,737.201 2296.29,739.951 C2296.29,744.118 2293.94,748.67 2289.26,753.608 L2280.02,763.342 L2293.16,763.342 C2294.4,763.342 2295.32,763.131 2295.93,762.709 C2296.53,762.287 2297.35,761.28 2298.38,759.686 L2299.1,759.967 L2296.07,767.358 L2274.63,767.358 L2274.63,766.717 L2284.41,756.342 C2289.18,751.28 2291.57,746.514 2291.57,742.045 C2291.57,739.722 2290.85,737.842 2289.42,736.405 C2287.99,734.967 2286.12,734.248 2283.8,734.248 C2281.9,734.248 2280.37,734.774 2279.22,735.826 C2278.07,736.879 2276.94,738.748 2275.83,741.436 L2274.68,741.17 "/>
<path class="Lyrics" d="M1184.01,753.389 L1197.54,753.389 L1197.54,756.686 L1184.01,756.686 L1184.01,753.389 M1226.14,754.873 L1226.14,758.17 L1220.53,758.17 L1220.53,767.358 L1216.29,767.358 L1216.29,758.17 L1200.84,758.17 L1200.84,754.873 L1218.11,730.186 L1220.53,730.186 L1220.53,754.873 L1226.14,754.873 M1216.25,754.873 L1216.25,736.014 L1203.04,754.873 L1216.25,754.873 "/>
<path class="Lyrics" d="M1338.77,756.545 C1338.77,754.587 1338.34,752.85 1337.49,751.334 C1336.63,749.819 1335.58,748.644 1334.35,747.811 C1333.12,746.978 1331.75,746.293 1330.23,745.756 C1328.71,745.22 1327.39,744.868 1326.27,744.701 C1325.15,744.535 1324.17,744.451 1323.32,744.451 C1322.88,744.451 1322.67,744.306 1322.67,744.014 C1322.67,743.899 1322.69,743.811 1322.73,743.748 L1328.71,730.951 L1340.21,730.951 C1340.8,730.951 1341.26,730.86 1341.61,730.678 C1341.96,730.496 1342.34,730.113 1342.74,729.53 L1343.24,729.905 L1341.15,734.514 C1341,734.816 1340.58,734.967 1339.88,734.967 L1329.1,734.967 L1326.79,739.686 C1332.14,740.644 1336.12,742.207 1338.73,744.373 C1341.33,746.54 1342.63,749.712 1342.63,753.889 C1342.63,756.076 1342.3,758.022 1341.62,759.725 C1340.94,761.428 1340.08,762.8 1339.03,763.842 C1337.99,764.884 1336.77,765.738 1335.4,766.405 C1334.02,767.071 1332.7,767.524 1331.44,767.764 C1330.17,768.004 1328.9,768.123 1327.62,768.123 C1325.57,768.123 1323.94,767.821 1322.73,767.217 C1321.52,766.613 1320.92,765.78 1320.92,764.717 C1320.92,763.363 1321.7,762.686 1323.27,762.686 C1324.31,762.686 1325.64,763.246 1327.27,764.366 C1328.9,765.485 1330.19,766.045 1331.13,766.045 C1333.3,766.045 1335.12,765.129 1336.58,763.295 C1338.04,761.462 1338.77,759.212 1338.77,756.545"/>
<path class="Lyrics" d="M2112.44,763.061 C2113.28,763.061 2114.53,763.558 2116.2,764.553 C2117.87,765.548 2119.33,766.045 2120.58,766.045 C2122.6,766.045 2124.3,765.261 2125.69,763.694 C2127.08,762.126 2127.78,760.196 2127.78,757.905 C2127.78,756.478 2127.53,755.217 2127.04,754.123 C2126.54,753.03 2125.91,752.183 2125.14,751.584 C2124.37,750.985 2123.45,750.496 2122.39,750.116 C2121.33,749.735 2120.33,749.491 2119.4,749.381 C2118.46,749.272 2117.46,749.217 2116.39,749.217 L2116.39,748.498 C2117.64,748.061 2118.71,747.631 2119.61,747.209 C2120.52,746.787 2121.46,746.217 2122.45,745.498 C2123.44,744.78 2124.2,743.907 2124.73,742.881 C2125.26,741.855 2125.53,740.686 2125.53,739.373 C2125.53,737.644 2124.97,736.23 2123.85,735.131 C2122.73,734.032 2121.27,733.483 2119.48,733.483 C2117.75,733.483 2116.24,733.949 2114.94,734.881 C2113.63,735.813 2112.41,737.29 2111.28,739.311 L2110.45,739.092 C2111.41,736.488 2112.7,734.353 2114.33,732.686 C2115.96,731.019 2118.28,730.186 2121.29,730.186 C2123.83,730.186 2125.89,730.881 2127.48,732.272 C2129.08,733.662 2129.87,735.478 2129.87,737.717 C2129.87,739.217 2129.49,740.535 2128.72,741.67 C2127.95,742.806 2126.61,744.019 2124.7,745.311 C2126.9,746.259 2128.62,747.472 2129.86,748.951 C2131.11,750.431 2131.73,752.54 2131.73,755.28 C2131.73,759.175 2130.29,762.29 2127.42,764.623 C2124.54,766.957 2120.92,768.123 2116.56,768.123 C2114.65,768.123 2113.14,767.84 2112.02,767.272 C2110.9,766.704 2110.34,765.946 2110.34,764.998 C2110.34,764.405 2110.53,763.933 2110.92,763.584 C2111.3,763.235 2111.81,763.061 2112.44,763.061"/>
<path class="Lyrics" d="M449.401,753.389 L462.932,753.389 L462.932,756.686 L449.401,756.686 L449.401,753.389 M475.635,734.748 C474.979,734.748 473.661,735.149 471.682,735.951 L471.682,735.186 L481.573,730.186 L482.01,730.295 L482.01,763.295 C482.01,764.608 482.341,765.467 483.002,765.873 C483.664,766.28 485.078,766.498 487.245,766.53 L487.245,767.358 L472.057,767.358 L472.057,766.53 C474.109,766.457 475.495,766.155 476.213,765.623 C476.932,765.092 477.291,763.967 477.291,762.248 L477.291,737.326 C477.291,735.608 476.739,734.748 475.635,734.748"/>
<path class="Lyrics" d="M1973.84,753.389 L1987.38,753.389 L1987.38,756.686 L1973.84,756.686 L1973.84,753.389 M1994.47,763.061 C1995.31,763.061 1996.57,763.558 1998.24,764.553 C1999.9,765.548 2001.36,766.045 2002.61,766.045 C2004.63,766.045 2006.34,765.261 2007.73,763.694 C2009.12,762.126 2009.81,760.196 2009.81,757.905 C2009.81,756.478 2009.57,755.217 2009.07,754.123 C2008.58,753.03 2007.94,752.183 2007.17,751.584 C2006.4,750.985 2005.49,750.496 2004.42,750.116 C2003.36,749.735 2002.36,749.491 2001.43,749.381 C2000.5,749.272 1999.5,749.217 1998.42,749.217 L1998.42,748.498 C1999.67,748.061 2000.75,747.631 2001.65,747.209 C2002.55,746.787 2003.5,746.217 2004.49,745.498 C2005.47,744.78 2006.24,743.907 2006.77,742.881 C2007.3,741.855 2007.56,740.686 2007.56,739.373 C2007.56,737.644 2007,736.23 2005.88,735.131 C2004.76,734.032 2003.31,733.483 2001.52,733.483 C1999.79,733.483 1998.27,733.949 1996.97,734.881 C1995.67,735.813 1994.45,737.29 1993.31,739.311 L1992.49,739.092 C1993.44,736.488 1994.74,734.353 1996.37,732.686 C1998,731.019 2000.32,730.186 2003.33,730.186 C2005.86,730.186 2007.92,730.881 2009.52,732.272 C2011.11,733.662 2011.91,735.478 2011.91,737.717 C2011.91,739.217 2011.52,740.535 2010.75,741.67 C2009.98,742.806 2008.64,744.019 2006.74,745.311 C2008.93,746.259 2010.65,747.472 2011.9,748.951 C2013.14,750.431 2013.77,752.54 2013.77,755.28 C2013.77,759.175 2012.33,762.29 2009.45,764.623 C2006.58,766.957 2002.96,768.123 1998.59,768.123 C1996.69,768.123 1995.18,767.84 1994.06,767.272 C1992.94,766.704 1992.38,765.946 1992.38,764.998 C1992.38,764.405 1992.57,763.933 1992.95,763.584 C1993.34,763.235 1993.84,763.061 1994.47,763.061"/>
<path class="Lyrics" d="M337.045,734.748 C336.389,734.748 335.071,735.149 333.092,735.951 L333.092,735.186 L342.982,730.186 L343.42,730.295 L343.42,763.295 C343.42,764.608 343.751,765.467 344.412,765.873 C345.074,766.28 346.488,766.498 348.654,766.53 L348.654,767.358 L333.467,767.358 L333.467,766.53 C335.519,766.457 336.904,766.155 337.623,765.623 C338.342,765.092 338.701,763.967 338.701,762.248 L338.701,737.326 C338.701,735.608 338.149,734.748 337.045,734.748"/>
<path class="Lyrics" d="M1715.87,756.545 C1715.87,754.587 1715.44,752.85 1714.58,751.334 C1713.72,749.819 1712.68,748.644 1711.45,747.811 C1710.22,746.978 1708.85,746.293 1707.32,745.756 C1705.8,745.22 1704.48,744.868 1703.36,744.701 C1702.24,744.535 1701.26,744.451 1700.42,744.451 C1699.98,744.451 1699.76,744.306 1699.76,744.014 C1699.76,743.899 1699.78,743.811 1699.82,743.748 L1705.81,730.951 L1717.31,730.951 C1717.89,730.951 1718.36,730.86 1718.71,730.678 C1719.06,730.496 1719.43,730.113 1719.84,729.53 L1720.34,729.905 L1718.25,734.514 C1718.1,734.816 1717.68,734.967 1716.98,734.967 L1706.2,734.967 L1703.89,739.686 C1709.24,740.644 1713.22,742.207 1715.82,744.373 C1718.43,746.54 1719.73,749.712 1719.73,753.889 C1719.73,756.076 1719.39,758.022 1718.72,759.725 C1718.04,761.428 1717.18,762.8 1716.13,763.842 C1715.08,764.884 1713.87,765.738 1712.5,766.405 C1711.12,767.071 1709.8,767.524 1708.54,767.764 C1707.27,768.004 1706,768.123 1704.72,768.123 C1702.66,768.123 1701.03,767.821 1699.82,767.217 C1698.62,766.613 1698.01,765.78 1698.01,764.717 C1698.01,763.363 1698.8,762.686 1700.37,762.686 C1701.4,762.686 1702.73,763.246 1704.36,764.366 C1705.99,765.485 1707.28,766.045 1708.23,766.045 C1710.4,766.045 1712.21,765.129 1713.68,763.295 C1715.14,761.462 1715.87,759.212 1715.87,756.545"/>
<path class="Lyrics" d="M602.097,753.389 L615.628,753.389 L615.628,756.686 L602.097,756.686 L602.097,753.389 M628.331,734.748 C627.675,734.748 626.357,735.149 624.378,735.951 L624.378,735.186 L634.268,730.186 L634.706,730.295 L634.706,763.295 C634.706,764.608 635.037,765.467 635.698,765.873 C636.36,766.28 637.774,766.498 639.94,766.53 L639.94,767.358 L624.753,767.358 L624.753,766.53 C626.805,766.457 628.19,766.155 628.909,765.623 C629.628,765.092 629.987,763.967 629.987,762.248 L629.987,737.326 C629.987,735.608 629.435,734.748 628.331,734.748 M657.534,750.701 C657.534,750.337 657.782,749.358 658.276,747.764 C658.771,746.17 659.018,744.326 659.018,742.233 C657.591,743.118 656.42,744.076 655.503,745.108 C654.586,746.139 653.899,746.889 653.44,747.358 C652.982,747.826 652.352,748.061 651.55,748.061 C650.227,748.061 649.565,747.41 649.565,746.108 C649.565,745.472 649.802,744.998 650.276,744.686 C650.75,744.373 651.336,744.152 652.034,744.022 C652.732,743.892 653.714,743.597 654.979,743.139 C656.245,742.681 657.466,742.108 658.643,741.42 C657.206,740.691 655.654,740.126 653.987,739.725 C652.321,739.324 651.167,738.959 650.526,738.631 C649.886,738.303 649.565,737.701 649.565,736.826 C649.565,736.274 649.748,735.808 650.112,735.428 C650.477,735.048 650.92,734.858 651.44,734.858 C652.024,734.858 652.545,735.022 653.003,735.35 C653.461,735.678 653.854,736.079 654.183,736.553 C654.511,737.027 655.107,737.647 655.972,738.412 C656.836,739.178 657.852,739.905 659.018,740.592 C659.018,738.509 658.789,736.66 658.331,735.045 C657.873,733.431 657.643,732.441 657.643,732.076 C657.643,731.524 657.828,731.066 658.198,730.701 C658.568,730.337 659.026,730.155 659.573,730.155 C660.12,730.155 660.586,730.347 660.972,730.733 C661.357,731.118 661.55,731.603 661.55,732.186 C661.55,732.665 661.302,733.665 660.808,735.186 C660.313,736.707 660.065,738.545 660.065,740.701 C661.347,739.899 662.474,738.98 663.448,737.944 C664.422,736.907 665.175,736.116 665.706,735.569 C666.237,735.022 666.831,734.748 667.487,734.748 C668.081,734.748 668.56,734.949 668.925,735.35 C669.289,735.751 669.472,736.259 669.472,736.873 C669.472,737.644 669.104,738.194 668.37,738.522 C667.636,738.85 666.461,739.241 664.847,739.694 C663.232,740.147 661.784,740.738 660.503,741.467 C661.607,742.165 662.782,742.722 664.026,743.139 C665.271,743.556 666.25,743.819 666.964,743.928 C667.677,744.037 668.282,744.259 668.776,744.592 C669.271,744.925 669.518,745.41 669.518,746.045 C669.518,746.681 669.347,747.183 669.003,747.553 C668.659,747.923 668.19,748.108 667.597,748.108 C666.826,748.108 666.185,747.876 665.675,747.412 C665.164,746.949 664.422,746.188 663.448,745.131 C662.474,744.074 661.347,743.108 660.065,742.233 C660.065,744.326 660.323,746.188 660.839,747.819 C661.354,749.449 661.612,750.358 661.612,750.545 C661.612,751.129 661.401,751.642 660.979,752.084 C660.558,752.527 660.05,752.748 659.456,752.748 C658.946,752.748 658.498,752.545 658.112,752.139 C657.727,751.733 657.534,751.254 657.534,750.701"/>
</svg>
