<?xml version="1.0" encoding="UTF-8" standalone="no"?>
<svg width="2977.2px" height="4208.4px" viewBox="0 0 2977.2 4208.4"
 xmlns="http://www.w3.org/2000/svg" xmlns:xlink="http://www.w3.org/1999/xlink" version="1.2" baseProfile="tiny">
<title>Mary_Had_A_Little_Lamb.mscx</title>
<desc>Generated by MuseScore Studio 4.3.1</desc>
<path class="" fill="#ffffff" fill-rule="evenodd" d="M0,0 L2977.2,0 L2977.2,4208.4 L0,4208.4 L0,0 "/>
<polyline class="StaffLines" fill="none" stroke="#000000" stroke-width="2.00" stroke-linejoin="bevel" points="141.732,316.732 2835.47,316.732"/>
<polyline class="StaffLines" fill="none" stroke="#000000" stroke-width="2.00" stroke-linejoin="bevel" points="141.732,341.732 2835.47,341.732"/>
<polyline class="StaffLines" fill="none" stroke="#000000" stroke-width="2.00" stroke-linejoin="bevel" points="141.732,366.733 2835.47,366.733"/>
<polyline class="StaffLines" fill="none" stroke="#000000" stroke-width="2.00" stroke-linejoin="bevel" points="141.732,391.733 2835.47,391.733"/>
<polyline class="StaffLines" fill="none" stroke="#000000" stroke-width="2.00" stroke-linejoin="bevel" points="141.732,416.733 2835.47,416.733"/>
<polyline class="StaffLines" fill="none" stroke="#000000" stroke-width="2.00" stroke-linejoin="bevel" points="141.732,791.733 2835.47,791.733"/>
<polyline class="StaffLines" fill="none" stroke="#000000" stroke-width="2.00" stroke-linejoin="bevel" points="141.732,816.733 2835.47,816.733"/>
<polyline class="StaffLines" fill="none" stroke="#000000" stroke-width="2.00" stroke-linejoin="bevel" points="141.732,841.733 2835.47,841.733"/>
<polyline class="StaffLines" fill="none" stroke="#000000" stroke-width="2.00" stroke-linejoin="bevel" points="141.732,866.733 2835.47,866.733"/>
<polyline class="StaffLines" fill="none" stroke="#000000" stroke-width="2.00" stroke-linejoin="bevel" points="141.732,891.733 2835.47,891.733"/>
<path class="MeasureNumber" d="M146.514,733.873 C146.514,732.446 146.199,731.181 145.568,730.076 C144.938,728.972 144.178,728.118 143.287,727.514 C142.396,726.91 141.399,726.412 140.295,726.022 C139.191,725.631 138.23,725.376 137.412,725.256 C136.594,725.136 135.883,725.076 135.279,725.076 C134.956,725.076 134.795,724.967 134.795,724.748 C134.795,724.675 134.805,724.613 134.826,724.561 L139.185,715.264 L147.545,715.264 C147.972,715.264 148.313,715.196 148.568,715.061 C148.824,714.925 149.097,714.644 149.389,714.217 L149.748,714.498 L148.232,717.842 C148.128,718.061 147.821,718.17 147.31,718.17 L139.467,718.17 L137.795,721.608 C141.68,722.306 144.571,723.441 146.467,725.014 C148.363,726.587 149.31,728.894 149.31,731.936 C149.31,733.53 149.063,734.946 148.568,736.186 C148.074,737.425 147.446,738.423 146.685,739.178 C145.925,739.933 145.045,740.553 144.045,741.037 C143.045,741.522 142.087,741.853 141.17,742.03 C140.253,742.207 139.326,742.295 138.389,742.295 C136.899,742.295 135.714,742.074 134.834,741.631 C133.954,741.188 133.514,740.582 133.514,739.811 C133.514,738.821 134.087,738.326 135.232,738.326 C135.982,738.326 136.949,738.735 138.131,739.553 C139.313,740.371 140.253,740.78 140.951,740.78 C142.524,740.78 143.844,740.113 144.912,738.78 C145.98,737.446 146.514,735.811 146.514,733.873"/>
<polyline class="BarLine" fill="none" stroke="#000000" stroke-width="4.00" stroke-linejoin="bevel" points="2802.72,790.733 2802.72,892.733"/>
<polyline class="BarLine" fill="none" stroke="#000000" stroke-width="12.50" stroke-linejoin="bevel" points="2829.22,790.733 2829.22,892.733"/>
<polyline class="BarLine" fill="none" stroke="#000000" stroke-width="4.00" stroke-linejoin="bevel" points="2224.05,315.732 2224.05,417.733"/>
<polyline class="BarLine" fill="none" stroke="#000000" stroke-width="4.00" stroke-linejoin="bevel" points="2833.47,315.732 2833.47,417.733"/>
<polyline class="BarLine" fill="none" stroke="#000000" stroke-width="4.00" stroke-linejoin="bevel" points="1620.43,790.733 1620.43,892.733"/>
<polyline class="BarLine" fill="none" stroke="#000000" stroke-width="4.00" stroke-linejoin="bevel" points="2300.52,790.733 2300.52,892.733"/>
<polyline class="BarLine" fill="none" stroke="#000000" stroke-width="4.00" stroke-linejoin="bevel" points="1614.63,315.732 1614.63,417.733"/>
<polyline class="BarLine" fill="none" stroke="#000000" stroke-width="4.00" stroke-linejoin="bevel" points="1005.21,315.732 1005.21,417.733"/>
<polyline class="BarLine" fill="none" stroke="#000000" stroke-width="4.00" stroke-linejoin="bevel" points="940.33,790.733 940.33,892.733"/>
<polyline class="Stem" fill="none" stroke="#000000" stroke-width="3.25" stroke-linejoin="bevel" points="288.857,810.102 288.857,891.733"/>
<polyline class="Stem" fill="none" stroke="#000000" stroke-width="3.25" stroke-linejoin="bevel" points="2418.51,310.102 2418.51,391.733"/>
<polyline class="Stem" fill="none" stroke="#000000" stroke-width="3.25" stroke-linejoin="bevel" points="2137.38,822.602 2137.38,904.233"/>
<polyline class="Stem" fill="none" stroke="#000000" stroke-width="3.25" stroke-linejoin="bevel" points="1974.6,810.102 1974.6,891.733"/>
<polyline class="Stem" fill="none" stroke="#000000" stroke-width="3.25" stroke-linejoin="bevel" points="1811.83,822.602 1811.83,904.233"/>
<polyline class="Stem" fill="none" stroke="#000000" stroke-width="3.25" stroke-linejoin="bevel" points="1649.05,822.602 1649.05,904.233"/>
<polyline class="Stem" fill="none" stroke="#000000" stroke-width="3.25" stroke-linejoin="bevel" points="1457.28,810.102 1457.28,891.733"/>
<polyline class="Stem" fill="none" stroke="#000000" stroke-width="3.25" stroke-linejoin="bevel" points="968.955,810.102 968.955,891.733"/>
<polyline class="Stem" fill="none" stroke="#000000" stroke-width="3.25" stroke-linejoin="bevel" points="1294.5,810.102 1294.5,891.733"/>
<polyline class="Stem" fill="none" stroke="#000000" stroke-width="3.25" stroke-linejoin="bevel" points="1131.73,810.102 1131.73,891.733"/>
<polyline class="Stem" fill="none" stroke="#000000" stroke-width="3.25" stroke-linejoin="bevel" points="451.632,822.602 451.632,904.233"/>
<polyline class="Stem" fill="none" stroke="#000000" stroke-width="3.25" stroke-linejoin="bevel" points="614.406,835.102 614.406,910.483"/>
<polyline class="Stem" fill="none" stroke="#000000" stroke-width="3.25" stroke-linejoin="bevel" points="777.181,822.602 777.181,904.233"/>
<polyline class="Stem" fill="none" stroke="#000000" stroke-width="3.25" stroke-linejoin="bevel" points="2583.44,309.132 2583.44,391.733"/>
<polyline class="Stem" fill="none" stroke="#000000" stroke-width="3.25" stroke-linejoin="bevel" points="2252.67,335.102 2252.67,416.733"/>
<polyline class="Stem" fill="none" stroke="#000000" stroke-width="3.25" stroke-linejoin="bevel" points="1033.83,335.102 1033.83,416.733"/>
<polyline class="Stem" fill="none" stroke="#000000" stroke-width="3.25" stroke-linejoin="bevel" points="839.001,347.602 839.001,429.233"/>
<polyline class="Stem" fill="none" stroke="#000000" stroke-width="3.25" stroke-linejoin="bevel" points="1199.67,335.102 1199.67,416.733"/>
<polyline class="Stem" fill="none" stroke="#000000" stroke-width="3.25" stroke-linejoin="bevel" points="1364.6,334.132 1364.6,416.733"/>
<polyline class="Stem" fill="none" stroke="#000000" stroke-width="3.25" stroke-linejoin="bevel" points="673.166,360.102 673.166,435.483"/>
<polyline class="Stem" fill="none" stroke="#000000" stroke-width="3.25" stroke-linejoin="bevel" points="507.332,347.602 507.332,429.233"/>
<polyline class="Stem" fill="none" stroke="#000000" stroke-width="3.25" stroke-linejoin="bevel" points="1643.25,347.602 1643.25,429.233"/>
<polyline class="Stem" fill="none" stroke="#000000" stroke-width="3.25" stroke-linejoin="bevel" points="1809.09,347.602 1809.09,429.233"/>
<polyline class="Stem" fill="none" stroke="#000000" stroke-width="3.25" stroke-linejoin="bevel" points="1974.02,346.632 1974.02,429.233"/>
<polyline class="Stem" fill="none" stroke="#000000" stroke-width="3.25" stroke-linejoin="bevel" points="341.498,335.102 341.498,416.733"/>
<polyline class="Stem" fill="none" stroke="#000000" stroke-width="3.25" stroke-linejoin="bevel" points="2329.15,834.133 2329.15,910.483"/>
<path class="Note" d="M361.842,315.467 C364.967,315.467 367.571,316.248 369.654,317.811 C371.738,319.373 372.779,321.618 372.779,324.545 C372.779,329.035 370.454,333.232 365.803,337.139 C361.152,341.045 356.154,342.998 350.811,342.998 C347.686,342.998 345.05,342.186 342.904,340.561 C340.884,338.8 339.873,336.587 339.873,333.92 C339.873,329.555 342.186,325.389 346.811,321.42 C351.436,317.451 356.446,315.467 361.842,315.467"/>
<path class="Note" d="M1669.4,802.967 C1672.52,802.967 1675.13,803.748 1677.21,805.311 C1679.29,806.873 1680.33,809.118 1680.33,812.045 C1680.33,816.535 1678.01,820.733 1673.36,824.639 C1668.71,828.545 1663.71,830.498 1658.36,830.498 C1655.24,830.498 1652.6,829.686 1650.46,828.061 C1648.44,826.3 1647.43,824.087 1647.43,821.42 C1647.43,817.056 1649.74,812.889 1654.36,808.92 C1658.99,804.952 1664,802.967 1669.4,802.967"/>
<path class="Note" d="M1832.17,802.967 C1835.3,802.967 1837.9,803.748 1839.98,805.311 C1842.07,806.873 1843.11,809.118 1843.11,812.045 C1843.11,816.535 1840.78,820.733 1836.13,824.639 C1831.48,828.545 1826.48,830.498 1821.14,830.498 C1818.01,830.498 1815.38,829.686 1813.23,828.061 C1811.21,826.3 1810.2,824.087 1810.2,821.42 C1810.2,817.056 1812.51,812.889 1817.14,808.92 C1821.76,804.952 1826.77,802.967 1832.17,802.967"/>
<path class="Note" d="M527.676,327.967 C530.801,327.967 533.405,328.748 535.489,330.311 C537.572,331.873 538.614,334.118 538.614,337.045 C538.614,341.535 536.288,345.732 531.637,349.639 C526.986,353.545 521.989,355.498 516.645,355.498 C513.52,355.498 510.884,354.686 508.739,353.061 C506.718,351.3 505.707,349.087 505.707,346.42 C505.707,342.055 508.02,337.889 512.645,333.92 C517.27,329.951 522.28,327.967 527.676,327.967"/>
<path class="Note" d="M1994.94,790.467 C1998.07,790.467 2000.67,791.248 2002.76,792.811 C2004.84,794.373 2005.88,796.618 2005.88,799.545 C2005.88,804.035 2003.56,808.233 1998.91,812.139 C1994.25,816.045 1989.26,817.998 1983.91,817.998 C1980.79,817.998 1978.15,817.186 1976.01,815.561 C1973.99,813.8 1972.98,811.587 1972.98,808.92 C1972.98,804.556 1975.29,800.389 1979.91,796.42 C1984.54,792.452 1989.55,790.467 1994.94,790.467"/>
<path class="Note" d="M1477.62,790.467 C1480.75,790.467 1483.35,791.248 1485.43,792.811 C1487.52,794.373 1488.56,796.618 1488.56,799.545 C1488.56,804.035 1486.23,808.233 1481.58,812.139 C1476.93,816.045 1471.93,817.998 1466.59,817.998 C1463.47,817.998 1460.83,817.186 1458.68,815.561 C1456.66,813.8 1455.65,811.587 1455.65,808.92 C1455.65,804.556 1457.97,800.389 1462.59,796.42 C1467.22,792.452 1472.23,790.467 1477.62,790.467"/>
<path class="Note" d="M693.51,340.467 C696.635,340.467 699.239,341.248 701.323,342.811 C703.406,344.373 704.448,346.618 704.448,349.545 C704.448,354.035 702.122,358.232 697.471,362.139 C692.82,366.045 687.823,367.998 682.479,367.998 C679.354,367.998 676.718,367.186 674.573,365.561 C672.552,363.8 671.541,361.587 671.541,358.92 C671.541,354.555 673.854,350.389 678.479,346.42 C683.104,342.451 688.114,340.467 693.51,340.467"/>
<path class="Note" d="M1314.85,790.467 C1317.97,790.467 1320.58,791.248 1322.66,792.811 C1324.74,794.373 1325.78,796.618 1325.78,799.545 C1325.78,804.035 1323.46,808.233 1318.81,812.139 C1314.16,816.045 1309.16,817.998 1303.82,817.998 C1300.69,817.998 1298.06,817.186 1295.91,815.561 C1293.89,813.8 1292.88,811.587 1292.88,808.92 C1292.88,804.556 1295.19,800.389 1299.82,796.42 C1304.44,792.452 1309.45,790.467 1314.85,790.467"/>
<path class="Note" d="M2334.95,839.873 C2336.83,839.873 2340.79,837.92 2346.81,834.014 C2352.84,830.108 2356.39,827.488 2357.46,826.155 C2358.54,824.821 2359.07,823.634 2359.07,822.592 C2359.07,821.551 2358.65,820.623 2357.8,819.811 C2356.95,818.998 2355.97,818.592 2354.87,818.592 C2352.92,818.592 2348.93,820.561 2342.91,824.498 C2336.88,828.436 2333.35,831.056 2332.31,832.358 C2331.26,833.66 2330.74,834.832 2330.74,835.873 C2330.74,836.915 2331.15,837.842 2331.97,838.655 C2332.79,839.467 2333.78,839.873 2334.95,839.873 M2353.9,815.467 C2359.49,815.467 2362.29,817.873 2362.29,822.686 C2362.29,825.03 2361.61,827.748 2360.24,830.842 C2358.88,833.936 2357.06,836.295 2354.77,837.92 C2349.76,841.306 2343.48,842.998 2335.93,842.998 C2330.33,842.998 2327.52,840.592 2327.52,835.78 C2327.52,833.634 2328.19,830.965 2329.52,827.772 C2330.86,824.579 2332.7,822.17 2335.04,820.545 C2340.06,817.16 2346.35,815.467 2353.9,815.467"/>
<path class="Note" d="M2157.72,802.967 C2160.84,802.967 2163.45,803.748 2165.53,805.311 C2167.62,806.873 2168.66,809.118 2168.66,812.045 C2168.66,816.535 2166.33,820.733 2161.68,824.639 C2157.03,828.545 2152.03,830.498 2146.69,830.498 C2143.56,830.498 2140.93,829.686 2138.78,828.061 C2136.76,826.3 2135.75,824.087 2135.75,821.42 C2135.75,817.056 2138.06,812.889 2142.69,808.92 C2147.31,804.952 2152.32,802.967 2157.72,802.967"/>
<path class="Note" d="M1152.07,790.467 C1155.2,790.467 1157.8,791.248 1159.89,792.811 C1161.97,794.373 1163.01,796.618 1163.01,799.545 C1163.01,804.035 1160.69,808.233 1156.03,812.139 C1151.38,816.045 1146.39,817.998 1141.04,817.998 C1137.92,817.998 1135.28,817.186 1133.14,815.561 C1131.11,813.8 1130.1,811.587 1130.1,808.92 C1130.1,804.556 1132.42,800.389 1137.04,796.42 C1141.67,792.452 1146.68,790.467 1152.07,790.467"/>
<path class="Note" d="M859.344,327.967 C862.469,327.967 865.073,328.748 867.157,330.311 C869.24,331.873 870.282,334.118 870.282,337.045 C870.282,341.535 867.956,345.732 863.305,349.639 C858.654,353.545 853.657,355.498 848.313,355.498 C845.188,355.498 842.553,354.686 840.407,353.061 C838.386,351.3 837.376,349.087 837.376,346.42 C837.376,342.055 839.688,337.889 844.313,333.92 C848.938,329.951 853.948,327.967 859.344,327.967"/>
<path class="Note" d="M989.299,790.467 C992.424,790.467 995.028,791.248 997.111,792.811 C999.195,794.373 1000.24,796.618 1000.24,799.545 C1000.24,804.035 997.911,808.233 993.26,812.139 C988.609,816.045 983.611,817.998 978.267,817.998 C975.142,817.998 972.507,817.186 970.361,815.561 C968.34,813.8 967.33,811.587 967.33,808.92 C967.33,804.556 969.642,800.389 974.267,796.42 C978.892,792.452 983.903,790.467 989.299,790.467"/>
<path class="Note" d="M1054.18,315.467 C1057.3,315.467 1059.91,316.248 1061.99,317.811 C1064.07,319.373 1065.12,321.618 1065.12,324.545 C1065.12,329.035 1062.79,333.232 1058.14,337.139 C1053.49,341.045 1048.49,342.998 1043.15,342.998 C1040.02,342.998 1037.39,342.186 1035.24,340.561 C1033.22,338.8 1032.21,336.587 1032.21,333.92 C1032.21,329.555 1034.52,325.389 1039.15,321.42 C1043.77,317.451 1048.78,315.467 1054.18,315.467"/>
<path class="Note" d="M797.524,802.967 C800.649,802.967 803.253,803.748 805.337,805.311 C807.42,806.873 808.462,809.118 808.462,812.045 C808.462,816.535 806.136,820.733 801.485,824.639 C796.834,828.545 791.837,830.498 786.493,830.498 C783.368,830.498 780.733,829.686 778.587,828.061 C776.566,826.3 775.556,824.087 775.556,821.42 C775.556,817.056 777.868,812.889 782.493,808.92 C787.118,804.952 792.128,802.967 797.524,802.967"/>
<path class="Note" d="M1220.01,315.467 C1223.14,315.467 1225.74,316.248 1227.83,317.811 C1229.91,319.373 1230.95,321.618 1230.95,324.545 C1230.95,329.035 1228.62,333.232 1223.97,337.139 C1219.32,341.045 1214.33,342.998 1208.98,342.998 C1205.86,342.998 1203.22,342.186 1201.08,340.561 C1199.05,338.8 1198.04,336.587 1198.04,333.92 C1198.04,329.555 1200.36,325.389 1204.98,321.42 C1209.61,317.451 1214.62,315.467 1220.01,315.467"/>
<path class="Note" d="M634.75,815.467 C637.875,815.467 640.479,816.248 642.562,817.811 C644.646,819.373 645.687,821.618 645.687,824.545 C645.687,829.035 643.362,833.233 638.711,837.139 C634.06,841.045 629.062,842.998 623.719,842.998 C620.594,842.998 617.958,842.186 615.812,840.561 C613.792,838.801 612.781,836.587 612.781,833.92 C612.781,829.556 615.094,825.389 619.719,821.42 C624.344,817.452 629.354,815.467 634.75,815.467"/>
<path class="Note" d="M471.976,802.967 C475.101,802.967 477.705,803.748 479.788,805.311 C481.871,806.873 482.913,809.118 482.913,812.045 C482.913,816.535 480.588,820.733 475.937,824.639 C471.285,828.545 466.288,830.498 460.944,830.498 C457.819,830.498 455.184,829.686 453.038,828.061 C451.017,826.3 450.007,824.087 450.007,821.42 C450.007,817.056 452.319,812.889 456.944,808.92 C461.569,804.952 466.58,802.967 471.976,802.967"/>
<path class="Note" d="M1370.4,339.873 C1372.28,339.873 1376.24,337.92 1382.26,334.014 C1388.29,330.107 1391.84,327.488 1392.91,326.154 C1393.99,324.821 1394.52,323.634 1394.52,322.592 C1394.52,321.55 1394.1,320.623 1393.25,319.811 C1392.4,318.998 1391.42,318.592 1390.32,318.592 C1388.37,318.592 1384.38,320.561 1378.36,324.498 C1372.33,328.436 1368.8,331.055 1367.76,332.357 C1366.72,333.66 1366.19,334.831 1366.19,335.873 C1366.19,336.915 1366.6,337.842 1367.42,338.654 C1368.24,339.467 1369.23,339.873 1370.4,339.873 M1389.35,315.467 C1394.94,315.467 1397.74,317.873 1397.74,322.686 C1397.74,325.029 1397.06,327.748 1395.69,330.842 C1394.33,333.936 1392.51,336.295 1390.23,337.92 C1385.22,341.305 1378.93,342.998 1371.38,342.998 C1365.78,342.998 1362.98,340.592 1362.98,335.779 C1362.98,333.634 1363.64,330.964 1364.98,327.772 C1366.31,324.579 1368.15,322.17 1370.49,320.545 C1375.51,317.16 1381.8,315.467 1389.35,315.467"/>
<path class="Note" d="M309.201,790.467 C312.326,790.467 314.93,791.248 317.014,792.811 C319.097,794.373 320.139,796.618 320.139,799.545 C320.139,804.035 317.813,808.233 313.162,812.139 C308.511,816.045 303.514,817.998 298.17,817.998 C295.045,817.998 292.41,817.186 290.264,815.561 C288.243,813.8 287.232,811.587 287.232,808.92 C287.232,804.556 289.545,800.389 294.17,796.42 C298.795,792.452 303.805,790.467 309.201,790.467"/>
<path class="Note" d="M1663.6,327.967 C1666.72,327.967 1669.33,328.748 1671.41,330.311 C1673.49,331.873 1674.54,334.118 1674.54,337.045 C1674.54,341.535 1672.21,345.732 1667.56,349.639 C1662.91,353.545 1657.91,355.498 1652.57,355.498 C1649.44,355.498 1646.81,354.686 1644.66,353.061 C1642.64,351.3 1641.63,349.087 1641.63,346.42 C1641.63,342.055 1643.94,337.889 1648.57,333.92 C1653.19,329.951 1658.2,327.967 1663.6,327.967"/>
<path class="Note" d="M1829.43,327.967 C1832.56,327.967 1835.16,328.748 1837.24,330.311 C1839.33,331.873 1840.37,334.118 1840.37,337.045 C1840.37,341.535 1838.04,345.732 1833.39,349.639 C1828.74,353.545 1823.74,355.498 1818.4,355.498 C1815.28,355.498 1812.64,354.686 1810.49,353.061 C1808.47,351.3 1807.46,349.087 1807.46,346.42 C1807.46,342.055 1809.78,337.889 1814.4,333.92 C1819.03,329.951 1824.04,327.967 1829.43,327.967"/>
<path class="Note" d="M1979.82,352.373 C1981.7,352.373 1985.66,350.42 1991.68,346.514 C1997.71,342.607 2001.26,339.988 2002.33,338.654 C2003.41,337.321 2003.94,336.134 2003.94,335.092 C2003.94,334.05 2003.52,333.123 2002.67,332.311 C2001.82,331.498 2000.84,331.092 1999.74,331.092 C1997.79,331.092 1993.8,333.061 1987.78,336.998 C1981.75,340.936 1978.22,343.555 1977.18,344.857 C1976.13,346.16 1975.61,347.331 1975.61,348.373 C1975.61,349.415 1976.02,350.342 1976.84,351.154 C1977.66,351.967 1978.65,352.373 1979.82,352.373 M1998.77,327.967 C2004.36,327.967 2007.16,330.373 2007.16,335.186 C2007.16,337.529 2006.48,340.248 2005.11,343.342 C2003.75,346.436 2001.93,348.795 1999.65,350.42 C1994.63,353.805 1988.35,355.498 1980.8,355.498 C1975.2,355.498 1972.4,353.092 1972.4,348.279 C1972.4,346.134 1973.06,343.464 1974.4,340.272 C1975.73,337.079 1977.57,334.67 1979.91,333.045 C1984.93,329.66 1991.22,327.967 1998.77,327.967"/>
<path class="Note" d="M2589.24,314.873 C2591.12,314.873 2595.08,312.92 2601.1,309.014 C2607.13,305.107 2610.68,302.488 2611.75,301.154 C2612.83,299.821 2613.36,298.634 2613.36,297.592 C2613.36,296.55 2612.94,295.623 2612.09,294.811 C2611.24,293.998 2610.26,293.592 2609.16,293.592 C2607.21,293.592 2603.22,295.561 2597.2,299.498 C2591.17,303.436 2587.64,306.055 2586.6,307.357 C2585.55,308.66 2585.03,309.831 2585.03,310.873 C2585.03,311.915 2585.44,312.842 2586.26,313.654 C2587.08,314.467 2588.07,314.873 2589.24,314.873 M2608.19,290.467 C2613.78,290.467 2616.58,292.873 2616.58,297.686 C2616.58,300.029 2615.9,302.748 2614.53,305.842 C2613.17,308.936 2611.35,311.295 2609.06,312.92 C2604.05,316.305 2597.77,317.998 2590.22,317.998 C2584.62,317.998 2581.81,315.592 2581.81,310.779 C2581.81,308.634 2582.48,305.964 2583.81,302.772 C2585.15,299.579 2586.99,297.17 2589.33,295.545 C2594.35,292.16 2600.64,290.467 2608.19,290.467"/>
<path class="Note" d="M2438.85,290.467 C2441.98,290.467 2444.58,291.248 2446.66,292.811 C2448.75,294.373 2449.79,296.618 2449.79,299.545 C2449.79,304.035 2447.46,308.232 2442.81,312.139 C2438.16,316.045 2433.16,317.998 2427.82,317.998 C2424.7,317.998 2422.06,317.186 2419.91,315.561 C2417.89,313.8 2416.88,311.587 2416.88,308.92 C2416.88,304.555 2419.2,300.389 2423.82,296.42 C2428.45,292.451 2433.46,290.467 2438.85,290.467"/>
<path class="Note" d="M2273.02,315.467 C2276.14,315.467 2278.75,316.248 2280.83,317.811 C2282.91,319.373 2283.96,321.618 2283.96,324.545 C2283.96,329.035 2281.63,333.232 2276.98,337.139 C2272.33,341.045 2267.33,342.998 2261.99,342.998 C2258.86,342.998 2256.23,342.186 2254.08,340.561 C2252.06,338.8 2251.05,336.587 2251.05,333.92 C2251.05,329.555 2253.36,325.389 2257.99,321.42 C2262.61,317.451 2267.62,315.467 2273.02,315.467"/>
<path class="Clef" d="M203.623,423.858 L203.623,421.717 C203.56,420.613 203.399,418.889 203.139,416.545 C199.889,417.066 196.993,417.326 194.451,417.326 C185.337,417.326 177.605,413.727 171.256,406.529 C164.907,399.331 161.732,390.753 161.732,380.795 C161.732,378.128 162.253,374.923 163.295,371.178 C164.337,367.433 165.297,364.925 166.178,363.654 C167.058,362.384 168.378,360.154 170.139,356.967 C170.659,355.988 172.352,353.837 175.217,350.514 C175.738,349.805 176.193,349.222 176.584,348.764 C176.975,348.305 177.607,347.49 178.482,346.318 C179.357,345.147 180.3,344.055 181.31,343.045 C182.321,342.035 183.217,341.058 183.998,340.115 C184.779,339.173 185.498,338.378 186.154,337.733 C183.81,329.983 182.378,324.024 181.857,319.858 C181.337,315.691 181.076,310.579 181.076,304.522 C181.076,298.464 182.378,292.962 184.982,288.014 C187.514,282.878 191.06,278.68 195.623,275.42 C195.883,275.222 196.225,275.123 196.646,275.123 C197.068,275.123 197.378,275.222 197.576,275.42 C201.087,279.649 204.128,285.149 206.701,291.92 C209.274,298.691 210.56,305.024 210.56,310.92 C210.56,316.816 209.066,322.498 206.076,327.967 C202.691,333.759 198.326,339.748 192.982,345.936 C194.347,350.227 196.17,356.962 198.451,366.139 L199.045,366.139 C199.305,366.076 199.529,366.045 199.717,366.045 C207.081,366.045 213.089,368.634 217.74,373.811 C222.391,378.988 224.717,384.962 224.717,391.733 C224.717,400.128 221.238,406.899 214.279,412.045 C212.258,413.545 209.878,414.717 207.139,415.561 C207.472,419.79 207.639,422.605 207.639,424.006 C207.639,425.407 207.571,427.899 207.435,431.483 C207.373,437.597 205.29,442.837 201.185,447.201 C197.081,451.566 192.394,453.748 187.123,453.748 C181.852,453.748 177.36,451.876 173.646,448.131 C169.933,444.386 168.076,439.847 168.076,434.514 C168.076,431.712 169.154,429.331 171.31,427.373 C173.519,425.425 176.006,424.451 178.771,424.451 C181.537,424.451 183.8,425.462 185.56,427.483 C187.383,429.368 188.295,431.644 188.295,434.311 C188.295,436.977 187.383,439.222 185.56,441.045 C183.738,442.868 181.555,443.779 179.014,443.779 C177.972,443.779 176.967,443.587 175.998,443.201 C178.863,447.43 182.54,449.545 187.029,449.545 C191.519,449.545 195.36,447.691 198.553,443.983 C201.745,440.274 203.342,435.91 203.342,430.889 L203.623,423.858 M206.748,411.561 C210.133,410.321 212.821,408.123 214.81,404.967 C216.8,401.811 217.795,398.67 217.795,395.545 C217.795,390.92 216.199,386.785 213.006,383.139 C209.813,379.493 205.774,377.441 200.889,376.983 C203.691,390.722 205.644,402.248 206.748,411.561 M168.967,388.998 C168.967,395.446 171.537,401.079 176.678,405.897 C181.818,410.714 187.842,413.123 194.748,413.123 C197.477,413.123 200.144,412.925 202.748,412.529 C201.706,402.634 199.654,390.785 196.592,376.983 C192.758,377.378 189.782,378.699 187.662,380.943 C185.542,383.188 184.482,385.743 184.482,388.608 C184.482,393.555 187.123,397.561 192.404,400.623 C192.852,400.884 193.076,401.324 193.076,401.943 C193.076,402.563 192.865,403.1 192.443,403.553 C192.021,404.006 191.649,404.233 191.326,404.233 C191.003,404.233 190.581,404.17 190.06,404.045 C182.435,399.878 178.623,393.592 178.623,385.186 C178.623,381.217 180.024,377.41 182.826,373.764 C185.753,370.118 189.56,367.774 194.248,366.733 C192.425,359.441 190.93,353.743 189.764,349.639 C180.847,359.67 175.31,367.092 173.154,371.904 C170.363,378.154 168.967,383.852 168.967,388.998 M201.576,289.686 C196.691,292.092 192.834,295.574 190.006,300.131 C187.178,304.688 185.764,309.472 185.764,314.483 C185.764,319.493 186.935,325.972 189.279,333.92 C193.967,328.253 197.514,322.946 199.92,317.998 C202.326,313.05 203.529,308.152 203.529,303.303 C203.529,298.454 202.878,293.915 201.576,289.686"/>
<path class="Clef" d="M203.623,898.858 L203.623,896.717 C203.56,895.613 203.399,893.889 203.139,891.545 C199.889,892.066 196.993,892.327 194.451,892.327 C185.337,892.327 177.605,888.728 171.256,881.53 C164.907,874.332 161.732,865.754 161.732,855.795 C161.732,853.129 162.253,849.923 163.295,846.178 C164.337,842.433 165.297,839.926 166.178,838.655 C167.058,837.384 168.378,835.155 170.139,831.967 C170.659,830.988 172.352,828.837 175.217,825.514 C175.738,824.806 176.193,824.222 176.584,823.764 C176.975,823.306 177.607,822.491 178.482,821.319 C179.357,820.147 180.3,819.056 181.31,818.045 C182.321,817.035 183.217,816.058 183.998,815.116 C184.779,814.173 185.498,813.379 186.154,812.733 C183.81,804.983 182.378,799.024 181.857,794.858 C181.337,790.691 181.076,785.579 181.076,779.522 C181.076,773.465 182.378,767.962 184.982,763.014 C187.514,757.879 191.06,753.681 195.623,750.42 C195.883,750.222 196.225,750.123 196.646,750.123 C197.068,750.123 197.378,750.222 197.576,750.42 C201.087,754.649 204.128,760.149 206.701,766.92 C209.274,773.691 210.56,780.024 210.56,785.92 C210.56,791.816 209.066,797.498 206.076,802.967 C202.691,808.759 198.326,814.748 192.982,820.936 C194.347,825.228 196.17,831.962 198.451,841.139 L199.045,841.139 C199.305,841.077 199.529,841.045 199.717,841.045 C207.081,841.045 213.089,843.634 217.74,848.811 C222.391,853.988 224.717,859.962 224.717,866.733 C224.717,875.129 221.238,881.899 214.279,887.045 C212.258,888.545 209.878,889.717 207.139,890.561 C207.472,894.79 207.639,897.605 207.639,899.006 C207.639,900.407 207.571,902.899 207.435,906.483 C207.373,912.597 205.29,917.837 201.185,922.202 C197.081,926.566 192.394,928.748 187.123,928.748 C181.852,928.748 177.36,926.876 173.646,923.131 C169.933,919.386 168.076,914.847 168.076,909.514 C168.076,906.712 169.154,904.332 171.31,902.373 C173.519,900.426 176.006,899.452 178.771,899.452 C181.537,899.452 183.8,900.462 185.56,902.483 C187.383,904.368 188.295,906.644 188.295,909.311 C188.295,911.978 187.383,914.222 185.56,916.045 C183.738,917.868 181.555,918.78 179.014,918.78 C177.972,918.78 176.967,918.587 175.998,918.202 C178.863,922.431 182.54,924.545 187.029,924.545 C191.519,924.545 195.36,922.691 198.553,918.983 C201.745,915.274 203.342,910.91 203.342,905.889 L203.623,898.858 M206.748,886.561 C210.133,885.321 212.821,883.123 214.81,879.967 C216.8,876.811 217.795,873.67 217.795,870.545 C217.795,865.92 216.199,861.785 213.006,858.139 C209.813,854.493 205.774,852.441 200.889,851.983 C203.691,865.722 205.644,877.248 206.748,886.561 M168.967,863.998 C168.967,870.446 171.537,876.079 176.678,880.897 C181.818,885.715 187.842,888.123 194.748,888.123 C197.477,888.123 200.144,887.926 202.748,887.53 C201.706,877.634 199.654,865.785 196.592,851.983 C192.758,852.379 189.782,853.699 187.662,855.944 C185.542,858.189 184.482,860.743 184.482,863.608 C184.482,868.556 187.123,872.561 192.404,875.623 C192.852,875.884 193.076,876.324 193.076,876.944 C193.076,877.564 192.865,878.1 192.443,878.553 C192.021,879.006 191.649,879.233 191.326,879.233 C191.003,879.233 190.581,879.17 190.06,879.045 C182.435,874.879 178.623,868.592 178.623,860.186 C178.623,856.217 180.024,852.41 182.826,848.764 C185.753,845.118 189.56,842.774 194.248,841.733 C192.425,834.441 190.93,828.743 189.764,824.639 C180.847,834.67 175.31,842.092 173.154,846.905 C170.363,853.155 168.967,858.853 168.967,863.998 M201.576,764.686 C196.691,767.092 192.834,770.574 190.006,775.131 C187.178,779.689 185.764,784.472 185.764,789.483 C185.764,794.493 186.935,800.972 189.279,808.92 C193.967,803.254 197.514,797.946 199.92,792.998 C202.326,788.051 203.529,783.152 203.529,778.303 C203.529,773.454 202.878,768.915 201.576,764.686"/>
<path class="TimeSig" d="M273.021,317.912 C274.516,317.912 275.949,317.686 277.318,317.232 C278.688,316.779 279.665,316.553 280.248,316.553 C280.831,316.553 281.222,316.907 281.42,317.615 C281.42,317.688 281.352,317.886 281.217,318.209 L252.811,351.225 L269.498,351.225 L269.498,338.131 C269.498,336.506 270.446,335.334 272.342,334.615 C274.29,333.897 276.503,331.001 278.982,325.928 C279.17,325.532 279.462,325.334 279.857,325.334 C280.639,325.334 281.092,325.792 281.217,326.709 L281.217,351.225 L288.357,351.225 C289.264,351.225 289.751,351.712 289.818,352.686 C289.886,353.66 289.399,354.147 288.357,354.147 L281.217,354.147 L281.217,354.928 C281.217,357.532 281.868,359.746 283.17,361.568 C284.67,363.391 286.43,364.303 288.451,364.303 C289.232,364.303 289.623,364.693 289.623,365.475 C289.623,366.256 289.087,366.647 288.014,366.647 C286.941,366.647 284.938,366.436 282.006,366.014 C279.074,365.592 276.811,365.381 275.217,365.381 C273.623,365.381 271.41,365.592 268.576,366.014 C265.743,366.436 263.613,366.647 262.186,366.647 C261.404,366.647 261.014,366.256 261.014,365.475 C261.014,364.693 261.404,364.303 262.186,364.303 C264.196,364.303 265.951,363.391 267.451,361.568 C268.816,359.683 269.498,357.469 269.498,354.928 L269.498,354.147 L252.811,354.147 C251.956,354.147 251.219,353.92 250.6,353.467 C249.98,353.014 249.67,352.592 249.67,352.201 C249.67,351.811 250.485,350.639 252.115,348.686 C253.745,346.732 256.074,342.972 259.1,337.404 C262.126,331.837 263.639,325.438 263.639,318.209 C263.639,317.167 264.097,316.647 265.014,316.647 C265.212,316.647 265.521,316.712 265.943,316.842 C266.365,316.972 267.277,317.183 268.678,317.475 C270.079,317.766 271.527,317.912 273.021,317.912"/>
<path class="TimeSig" d="M273.021,368.084 C274.516,368.084 275.949,367.858 277.318,367.404 C278.688,366.951 279.665,366.725 280.248,366.725 C280.831,366.725 281.222,367.079 281.42,367.787 C281.42,367.86 281.352,368.058 281.217,368.381 L252.811,401.397 L269.498,401.397 L269.498,388.303 C269.498,386.678 270.446,385.506 272.342,384.787 C274.29,384.068 276.503,381.173 278.982,376.1 C279.17,375.704 279.462,375.506 279.857,375.506 C280.639,375.506 281.092,375.964 281.217,376.881 L281.217,401.397 L288.357,401.397 C289.264,401.397 289.751,401.884 289.818,402.858 C289.886,403.831 289.399,404.318 288.357,404.318 L281.217,404.318 L281.217,405.1 C281.217,407.704 281.868,409.917 283.17,411.74 C284.67,413.563 286.43,414.475 288.451,414.475 C289.232,414.475 289.623,414.865 289.623,415.647 C289.623,416.428 289.087,416.818 288.014,416.818 C286.941,416.818 284.938,416.608 282.006,416.186 C279.074,415.764 276.811,415.553 275.217,415.553 C273.623,415.553 271.41,415.764 268.576,416.186 C265.743,416.608 263.613,416.818 262.186,416.818 C261.404,416.818 261.014,416.428 261.014,415.647 C261.014,414.865 261.404,414.475 262.186,414.475 C264.196,414.475 265.951,413.563 267.451,411.74 C268.816,409.855 269.498,407.641 269.498,405.1 L269.498,404.318 L252.811,404.318 C251.956,404.318 251.219,404.092 250.6,403.639 C249.98,403.186 249.67,402.764 249.67,402.373 C249.67,401.983 250.485,400.811 252.115,398.858 C253.745,396.904 256.074,393.144 259.1,387.576 C262.126,382.009 263.639,375.61 263.639,368.381 C263.639,367.339 264.097,366.818 265.014,366.818 C265.212,366.818 265.521,366.884 265.943,367.014 C266.365,367.144 267.277,367.355 268.678,367.647 C270.079,367.938 271.527,368.084 273.021,368.084"/>
<path class="Rest" d="M2638.33,836.452 C2637.68,835.608 2637.35,834.696 2637.35,833.717 C2637.35,831.967 2639.44,829.53 2643.62,826.405 C2647.71,823.207 2649.76,819.561 2649.76,815.467 C2649.76,813.051 2648.91,810.837 2647.23,808.827 L2643.71,804.623 C2643.45,804.363 2643.32,804.037 2643.32,803.647 C2643.32,803.256 2643.51,802.899 2643.9,802.577 C2644.36,802.243 2644.78,802.077 2645.17,802.077 C2645.56,802.077 2645.89,802.274 2646.15,802.67 L2661.29,820.639 C2661.93,821.483 2662.26,822.41 2662.26,823.42 C2662.26,824.431 2661.72,825.522 2660.65,826.694 C2659.57,827.866 2658.06,829.233 2656.12,830.795 C2654.62,831.702 2653.2,833.131 2651.87,835.084 C2650.53,837.037 2649.87,839.254 2649.87,841.733 C2649.87,844.212 2650.65,846.394 2652.21,848.28 L2660.6,858.139 C2660.8,858.337 2660.93,858.662 2660.99,859.116 C2661.05,859.569 2660.89,859.959 2660.5,860.287 C2660.11,860.616 2659.8,860.78 2659.58,860.78 C2659.35,860.78 2658.77,860.405 2657.82,859.655 C2656.87,858.905 2655.54,858.173 2653.81,857.459 C2652.09,856.746 2650.38,856.389 2648.69,856.389 C2646.99,856.389 2645.66,856.845 2644.69,857.756 C2643.71,858.668 2643.23,860.767 2643.23,864.053 C2643.23,867.34 2644.17,870.123 2646.05,872.405 C2646.25,872.665 2646.29,872.957 2646.15,873.28 C2646.02,873.603 2645.76,873.764 2645.37,873.764 C2644.98,873.764 2643.99,872.561 2642.39,870.155 C2640.79,867.748 2639.26,864.899 2637.8,861.608 C2636.33,858.316 2635.6,855.566 2635.6,853.358 C2635.6,850.556 2637.03,849.155 2639.9,849.155 C2642.76,849.155 2646.64,850.196 2651.52,852.28 L2638.33,836.452 "/>
<path class="NoteDot" d="M2372.66,833.241 C2371.55,832.131 2370.99,830.795 2370.99,829.233 C2370.99,827.67 2371.55,826.334 2372.66,825.225 C2373.77,824.116 2375.1,823.561 2376.67,823.561 C2378.23,823.561 2379.56,824.116 2380.67,825.225 C2381.77,826.334 2382.32,827.67 2382.32,829.233 C2382.32,830.795 2381.77,832.131 2380.67,833.241 C2379.56,834.35 2378.23,834.905 2376.67,834.905 C2375.1,834.905 2373.77,834.35 2372.66,833.241"/>
</svg>
