<?xml version="1.0" encoding="UTF-8" standalone="no"?>
<svg width="2977.2px" height="4208.4px" viewBox="0 0 2977.2 4208.4"
 xmlns="http://www.w3.org/2000/svg" xmlns:xlink="http://www.w3.org/1999/xlink" version="1.2" baseProfile="tiny">
<title>La_Paloma.mscx (2)</title>
<desc>Generated by MuseScore Studio 4.3.1</desc>
<path class="" fill="#ffffff" fill-rule="evenodd" d="M0,0 L2977.2,0 L2977.2,4208.4 L0,4208.4 L0,0 "/>
<polyline class="StaffLines" fill="none" stroke="#000000" stroke-width="2.00" stroke-linejoin="bevel" points="141.732,316.732 2835.47,316.732"/>
<polyline class="StaffLines" fill="none" stroke="#000000" stroke-width="2.00" stroke-linejoin="bevel" points="141.732,341.732 2835.47,341.732"/>
<polyline class="StaffLines" fill="none" stroke="#000000" stroke-width="2.00" stroke-linejoin="bevel" points="141.732,366.733 2835.47,366.733"/>
<polyline class="StaffLines" fill="none" stroke="#000000" stroke-width="2.00" stroke-linejoin="bevel" points="141.732,391.733 2835.47,391.733"/>
<polyline class="StaffLines" fill="none" stroke="#000000" stroke-width="2.00" stroke-linejoin="bevel" points="141.732,416.733 2835.47,416.733"/>
<polyline class="StaffLines" fill="none" stroke="#000000" stroke-width="2.00" stroke-linejoin="bevel" points="141.732,791.733 2835.47,791.733"/>
<polyline class="StaffLines" fill="none" stroke="#000000" stroke-width="2.00" stroke-linejoin="bevel" points="141.732,816.733 2835.47,816.733"/>
<polyline class="StaffLines" fill="none" stroke="#000000" stroke-width="2.00" stroke-linejoin="bevel" points="141.732,841.733 2835.47,841.733"/>
<polyline class="StaffLines" fill="none" stroke="#000000" stroke-width="2.00" stroke-linejoin="bevel" points="141.732,866.733 2835.47,866.733"/>
<polyline class="StaffLines" fill="none" stroke="#000000" stroke-width="2.00" stroke-linejoin="bevel" points="141.732,891.733 2835.47,891.733"/>
<polyline class="StaffLines" fill="none" stroke="#000000" stroke-width="2.00" stroke-linejoin="bevel" points="141.732,1266.73 944.798,1266.73"/>
<polyline class="StaffLines" fill="none" stroke="#000000" stroke-width="2.00" stroke-linejoin="bevel" points="141.732,1291.73 944.798,1291.73"/>
<polyline class="StaffLines" fill="none" stroke="#000000" stroke-width="2.00" stroke-linejoin="bevel" points="141.732,1316.73 944.798,1316.73"/>
<polyline class="StaffLines" fill="none" stroke="#000000" stroke-width="2.00" stroke-linejoin="bevel" points="141.732,1341.73 944.798,1341.73"/>
<polyline class="StaffLines" fill="none" stroke="#000000" stroke-width="2.00" stroke-linejoin="bevel" points="141.732,1366.73 944.798,1366.73"/>
<path class="MeasureNumber" d="M141.607,257.654 L141.607,260.061 L137.529,260.061 L137.529,266.732 L134.451,266.732 L134.451,260.061 L123.217,260.061 L123.217,257.654 L135.764,239.701 L137.529,239.701 L137.529,257.654 L141.607,257.654 M134.404,257.654 L134.404,243.936 L124.81,257.654 L134.404,257.654 M156.998,258.873 C156.998,257.446 156.683,256.18 156.053,255.076 C155.422,253.972 154.662,253.118 153.771,252.514 C152.881,251.91 151.883,251.412 150.779,251.022 C149.675,250.631 148.714,250.376 147.896,250.256 C147.079,250.136 146.368,250.076 145.764,250.076 C145.441,250.076 145.279,249.967 145.279,249.748 C145.279,249.675 145.29,249.613 145.31,249.561 L149.67,240.264 L158.029,240.264 C158.456,240.264 158.797,240.196 159.053,240.061 C159.308,239.925 159.581,239.644 159.873,239.217 L160.232,239.498 L158.717,242.842 C158.613,243.061 158.305,243.17 157.795,243.17 L149.951,243.17 L148.279,246.607 C152.165,247.305 155.055,248.441 156.951,250.014 C158.847,251.587 159.795,253.894 159.795,256.936 C159.795,258.529 159.547,259.946 159.053,261.186 C158.558,262.425 157.93,263.423 157.17,264.178 C156.409,264.933 155.529,265.553 154.529,266.037 C153.529,266.522 152.571,266.852 151.654,267.029 C150.738,267.206 149.81,267.295 148.873,267.295 C147.383,267.295 146.199,267.074 145.318,266.631 C144.438,266.188 143.998,265.581 143.998,264.811 C143.998,263.821 144.571,263.326 145.717,263.326 C146.467,263.326 147.433,263.735 148.615,264.553 C149.797,265.37 150.738,265.779 151.435,265.779 C153.008,265.779 154.329,265.113 155.396,263.779 C156.464,262.446 156.998,260.811 156.998,258.873"/>
<path class="MeasureNumber" d="M141.107,732.655 L141.107,735.061 L137.029,735.061 L137.029,741.733 L133.951,741.733 L133.951,735.061 L122.717,735.061 L122.717,732.655 L135.264,714.701 L137.029,714.701 L137.029,732.655 L141.107,732.655 M133.904,732.655 L133.904,718.936 L124.31,732.655 L133.904,732.655 M144.576,742.608 L144.451,741.811 C147.493,741.28 150.074,739.983 152.193,737.92 C154.313,735.858 155.784,733.196 156.607,729.936 C154.639,731.478 152.644,732.248 150.623,732.248 C148.456,732.248 146.714,731.501 145.396,730.006 C144.079,728.511 143.42,726.545 143.42,724.108 C143.42,721.399 144.212,719.142 145.795,717.334 C147.378,715.527 149.357,714.623 151.732,714.623 C154.316,714.623 156.435,715.681 158.092,717.795 C159.748,719.91 160.576,722.629 160.576,725.951 C160.576,727.014 160.482,728.108 160.295,729.233 C160.107,730.358 159.672,731.688 158.99,733.225 C158.308,734.761 157.422,736.136 156.334,737.35 C155.245,738.563 153.688,739.665 151.662,740.655 C149.636,741.644 147.274,742.295 144.576,742.608 M152.06,730.498 C152.56,730.498 153.131,730.425 153.771,730.28 C154.412,730.134 155.06,729.813 155.717,729.319 C156.373,728.824 156.701,728.217 156.701,727.498 L156.701,725.951 C156.701,719.191 154.941,715.811 151.42,715.811 C150.587,715.811 149.878,716.032 149.295,716.475 C148.712,716.918 148.266,717.496 147.959,718.209 C147.652,718.923 147.43,719.652 147.295,720.397 C147.159,721.142 147.092,721.931 147.092,722.764 C147.092,725.129 147.54,727.009 148.435,728.405 C149.331,729.8 150.54,730.498 152.06,730.498"/>
<path class="MeasureNumber" d="M136.514,1208.87 C136.514,1207.45 136.199,1206.18 135.568,1205.08 C134.938,1203.97 134.178,1203.12 133.287,1202.51 C132.396,1201.91 131.399,1201.41 130.295,1201.02 C129.191,1200.63 128.23,1200.38 127.412,1200.26 C126.594,1200.14 125.883,1200.08 125.279,1200.08 C124.956,1200.08 124.795,1199.97 124.795,1199.75 C124.795,1199.68 124.805,1199.61 124.826,1199.56 L129.185,1190.26 L137.545,1190.26 C137.972,1190.26 138.313,1190.2 138.568,1190.06 C138.824,1189.93 139.097,1189.64 139.389,1189.22 L139.748,1189.5 L138.232,1192.84 C138.128,1193.06 137.821,1193.17 137.31,1193.17 L129.467,1193.17 L127.795,1196.61 C131.68,1197.31 134.571,1198.44 136.467,1200.01 C138.363,1201.59 139.31,1203.89 139.31,1206.94 C139.31,1208.53 139.063,1209.95 138.568,1211.19 C138.074,1212.43 137.446,1213.42 136.685,1214.18 C135.925,1214.93 135.045,1215.55 134.045,1216.04 C133.045,1216.52 132.087,1216.85 131.17,1217.03 C130.253,1217.21 129.326,1217.3 128.389,1217.3 C126.899,1217.3 125.714,1217.07 124.834,1216.63 C123.954,1216.19 123.514,1215.58 123.514,1214.81 C123.514,1213.82 124.087,1213.33 125.232,1213.33 C125.982,1213.33 126.949,1213.74 128.131,1214.55 C129.313,1215.37 130.253,1215.78 130.951,1215.78 C132.524,1215.78 133.844,1215.11 134.912,1213.78 C135.98,1212.45 136.514,1210.81 136.514,1208.87 M145.451,1213.61 C146.066,1213.61 146.98,1213.97 148.193,1214.69 C149.407,1215.42 150.467,1215.78 151.373,1215.78 C152.842,1215.78 154.081,1215.21 155.092,1214.07 C156.102,1212.93 156.607,1211.52 156.607,1209.86 C156.607,1208.82 156.428,1207.9 156.068,1207.11 C155.709,1206.32 155.251,1205.7 154.693,1205.26 C154.136,1204.83 153.469,1204.47 152.693,1204.19 C151.917,1203.92 151.191,1203.74 150.514,1203.65 C149.837,1203.57 149.113,1203.53 148.342,1203.53 L148.342,1203.01 C149.248,1202.69 150.027,1202.38 150.678,1202.07 C151.329,1201.76 152.014,1201.35 152.732,1200.83 C153.451,1200.32 154.006,1199.69 154.396,1198.94 C154.787,1198.19 154.982,1197.33 154.982,1196.37 C154.982,1195.12 154.574,1194.1 153.756,1193.3 C152.938,1192.49 151.878,1192.09 150.576,1192.09 C149.326,1192.09 148.227,1192.43 147.279,1193.12 C146.331,1193.8 145.446,1194.87 144.623,1196.34 L144.014,1196.17 C144.712,1194.29 145.654,1192.74 146.842,1191.52 C148.029,1190.31 149.712,1189.7 151.889,1189.7 C153.732,1189.7 155.235,1190.21 156.396,1191.22 C157.558,1192.23 158.139,1193.55 158.139,1195.17 C158.139,1196.26 157.857,1197.23 157.295,1198.05 C156.732,1198.88 155.758,1199.76 154.373,1200.7 C155.977,1201.39 157.232,1202.27 158.139,1203.34 C159.045,1204.42 159.498,1205.95 159.498,1207.95 C159.498,1210.79 158.451,1213.05 156.357,1214.75 C154.264,1216.45 151.628,1217.3 148.451,1217.3 C147.066,1217.3 145.967,1217.09 145.154,1216.67 C144.342,1216.25 143.935,1215.7 143.935,1215.01 C143.935,1214.59 144.076,1214.25 144.357,1213.99 C144.639,1213.74 145.003,1213.61 145.451,1213.61"/>
<path class="TieSegment" stroke="#000000" stroke-width="1.75" stroke-linecap="round" stroke-linejoin="round" fill-rule="evenodd" d="M353.705,1247.96 C387.603,1220.43 489.298,1220.43 523.196,1247.96 C489.298,1224.43 387.603,1224.43 353.705,1247.96"/>
<path class="TieSegment" stroke="#000000" stroke-width="1.75" stroke-linecap="round" stroke-linejoin="round" fill-rule="evenodd" d="M1653.08,335.459 C1737.34,296.098 1990.12,296.098 2074.38,335.459 C1990.12,300.098 1737.34,300.098 1653.08,335.459"/>
<path class="TieSegment" stroke="#000000" stroke-width="1.75" stroke-linecap="round" stroke-linejoin="round" fill-rule="evenodd" d="M353.705,398.006 C437.966,433.367 690.749,433.367 775.01,398.006 C690.749,437.367 437.966,437.367 353.705,398.006"/>
<path class="TieSegment" stroke="#000000" stroke-width="1.75" stroke-linecap="round" stroke-linejoin="round" fill-rule="evenodd" d="M573.221,760.459 C621.924,728.786 768.033,728.786 816.736,760.459 C768.033,732.786 621.924,732.786 573.221,760.459"/>
<polyline class="BarLine" fill="none" stroke="#000000" stroke-width="4.00" stroke-linejoin="bevel" points="775.779,790.733 775.779,892.733"/>
<polyline class="BarLine" fill="none" stroke="#000000" stroke-width="4.00" stroke-linejoin="bevel" points="2833.47,315.732 2833.47,417.733"/>
<polyline class="BarLine" fill="none" stroke="#000000" stroke-width="4.00" stroke-linejoin="bevel" points="1497.44,790.733 1497.44,892.733"/>
<polyline class="BarLine" fill="none" stroke="#000000" stroke-width="4.00" stroke-linejoin="bevel" points="2033.43,315.732 2033.43,417.733"/>
<polyline class="BarLine" fill="none" stroke="#000000" stroke-width="4.00" stroke-linejoin="bevel" points="2165.45,790.733 2165.45,892.733"/>
<polyline class="BarLine" fill="none" stroke="#000000" stroke-width="4.00" stroke-linejoin="bevel" points="1598.82,315.732 1598.82,417.733"/>
<polyline class="BarLine" fill="none" stroke="#000000" stroke-width="4.00" stroke-linejoin="bevel" points="2833.47,790.733 2833.47,892.733"/>
<polyline class="BarLine" fill="none" stroke="#000000" stroke-width="4.00" stroke-linejoin="bevel" points="912.048,1265.73 912.048,1367.73"/>
<polyline class="BarLine" fill="none" stroke="#000000" stroke-width="12.50" stroke-linejoin="bevel" points="938.548,1265.73 938.548,1367.73"/>
<polyline class="BarLine" fill="none" stroke="#000000" stroke-width="4.00" stroke-linejoin="bevel" points="734.053,315.732 734.053,417.733"/>
<polyline class="BarLine" fill="none" stroke="#000000" stroke-width="4.00" stroke-linejoin="bevel" points="737.558,1265.73 737.558,1367.73"/>
<polyline class="BarLine" fill="none" stroke="#000000" stroke-width="4.00" stroke-linejoin="bevel" points="482.239,1265.73 482.239,1367.73"/>
<path class="Accidental" d="M1437.29,387.045 C1436.11,387.368 1435.53,386.915 1435.53,385.686 L1435.53,330.983 C1435.53,329.618 1436.05,328.936 1437.09,328.936 C1438.13,328.936 1438.65,329.618 1438.65,330.983 L1438.65,350.811 L1450.18,346.42 C1451.35,346.097 1451.93,346.55 1451.93,347.779 L1451.93,402.483 C1451.93,403.847 1451.41,404.529 1450.37,404.529 C1449.33,404.529 1448.81,403.847 1448.81,402.483 L1448.81,382.654 L1437.29,387.045 M1438.65,375.811 L1448.81,371.904 L1448.81,357.654 L1438.65,361.561 L1438.65,375.811 "/>
<polyline class="LedgerLine" fill="none" stroke="#000000" stroke-width="4.00" stroke-linejoin="bevel" points="1024.16,766.733 1076.08,766.733"/>
<polyline class="LedgerLine" fill="none" stroke="#000000" stroke-width="4.00" stroke-linejoin="bevel" points="1255.05,766.733 1306.96,766.733"/>
<polyline class="LedgerLine" fill="none" stroke="#000000" stroke-width="4.00" stroke-linejoin="bevel" points="1861.27,766.733 1913.18,766.733"/>
<polyline class="LedgerLine" fill="none" stroke="#000000" stroke-width="4.00" stroke-linejoin="bevel" points="908.722,766.733 960.636,766.733"/>
<polyline class="Stem" fill="none" stroke="#000000" stroke-width="3.25" stroke-linejoin="bevel" points="1526.06,785.102 1526.06,866.733"/>
<polyline class="Stem" fill="none" stroke="#000000" stroke-width="3.25" stroke-linejoin="bevel" points="919.847,760.102 919.847,841.733"/>
<polyline class="Stem" fill="none" stroke="#000000" stroke-width="3.25" stroke-linejoin="bevel" points="804.404,785.102 804.404,866.733"/>
<polyline class="Stem" fill="none" stroke="#000000" stroke-width="3.25" stroke-linejoin="bevel" points="1035.29,772.602 1035.29,854.233"/>
<polyline class="Stem" fill="none" stroke="#000000" stroke-width="3.25" stroke-linejoin="bevel" points="1150.73,785.102 1150.73,866.733"/>
<polyline class="Stem" fill="none" stroke="#000000" stroke-width="3.25" stroke-linejoin="bevel" points="1266.18,772.602 1266.18,854.233"/>
<polyline class="Stem" fill="none" stroke="#000000" stroke-width="3.25" stroke-linejoin="bevel" points="1381.62,797.602 1381.62,879.233"/>
<polyline class="Stem" fill="none" stroke="#000000" stroke-width="3.25" stroke-linejoin="bevel" points="1641.5,810.102 1641.5,891.733"/>
<polyline class="Stem" fill="none" stroke="#000000" stroke-width="3.25" stroke-linejoin="bevel" points="1756.95,797.602 1756.95,879.233"/>
<polyline class="Stem" fill="none" stroke="#000000" stroke-width="3.25" stroke-linejoin="bevel" points="1872.39,772.602 1872.39,854.233"/>
<polyline class="Stem" fill="none" stroke="#000000" stroke-width="3.25" stroke-linejoin="bevel" points="2018.73,785.102 2018.73,866.733"/>
<polyline class="Stem" fill="none" stroke="#000000" stroke-width="3.25" stroke-linejoin="bevel" points="510.864,1272.6 510.864,1354.23"/>
<polyline class="Stem" fill="none" stroke="#000000" stroke-width="3.25" stroke-linejoin="bevel" points="2223.74,860.864 2223.74,779.233"/>
<polyline class="Stem" fill="none" stroke="#000000" stroke-width="3.25" stroke-linejoin="bevel" points="2339.18,848.364 2339.18,772.983"/>
<polyline class="Stem" fill="none" stroke="#000000" stroke-width="3.25" stroke-linejoin="bevel" points="2424.96,847.602 2424.96,916.733"/>
<polyline class="Stem" fill="none" stroke="#000000" stroke-width="3.25" stroke-linejoin="bevel" points="2540.41,822.602 2540.41,904.233"/>
<polyline class="Stem" fill="none" stroke="#000000" stroke-width="3.25" stroke-linejoin="bevel" points="2686.75,835.102 2686.75,910.483"/>
<polyline class="Stem" fill="none" stroke="#000000" stroke-width="3.25" stroke-linejoin="bevel" points="1041.27,360.102 1041.27,435.483"/>
<polyline class="Stem" fill="none" stroke="#000000" stroke-width="3.25" stroke-linejoin="bevel" points="2340.64,360.102 2340.64,435.483"/>
<polyline class="Stem" fill="none" stroke="#000000" stroke-width="3.25" stroke-linejoin="bevel" points="1319.86,347.602 1319.86,429.233"/>
<polyline class="Stem" fill="none" stroke="#000000" stroke-width="3.25" stroke-linejoin="bevel" points="2479.93,360.102 2479.93,435.483"/>
<polyline class="Stem" fill="none" stroke="#000000" stroke-width="3.25" stroke-linejoin="bevel" points="2201.34,360.102 2201.34,435.483"/>
<polyline class="Stem" fill="none" stroke="#000000" stroke-width="3.25" stroke-linejoin="bevel" points="2656.51,347.602 2656.51,429.233"/>
<polyline class="Stem" fill="none" stroke="#000000" stroke-width="3.25" stroke-linejoin="bevel" points="1180.56,360.102 1180.56,435.483"/>
<polyline class="Stem" fill="none" stroke="#000000" stroke-width="3.25" stroke-linejoin="bevel" points="1459.15,372.602 1459.15,441.733"/>
<polyline class="Stem" fill="none" stroke="#000000" stroke-width="3.25" stroke-linejoin="bevel" points="901.972,360.102 901.972,435.483"/>
<polyline class="Stem" fill="none" stroke="#000000" stroke-width="3.25" stroke-linejoin="bevel" points="335.471,809.133 335.471,891.733"/>
<polyline class="Stem" fill="none" stroke="#000000" stroke-width="3.25" stroke-linejoin="bevel" points="2062.05,360.102 2062.05,435.483"/>
<polyline class="Stem" fill="none" stroke="#000000" stroke-width="3.25" stroke-linejoin="bevel" points="792.342,373.363 792.342,297.982"/>
<polyline class="Stem" fill="none" stroke="#000000" stroke-width="3.25" stroke-linejoin="bevel" points="554.986,784.133 554.986,866.733"/>
<path class="Note" d="M1479.49,352.967 C1482.62,352.967 1485.22,353.748 1487.31,355.311 C1489.39,356.873 1490.43,359.118 1490.43,362.045 C1490.43,366.535 1488.11,370.733 1483.46,374.639 C1478.8,378.545 1473.81,380.498 1468.46,380.498 C1465.34,380.498 1462.7,379.686 1460.56,378.061 C1458.54,376.3 1457.53,374.087 1457.53,371.42 C1457.53,367.055 1459.84,362.889 1464.46,358.92 C1469.09,354.951 1474.1,352.967 1479.49,352.967"/>
<path class="Note" d="M1642.91,359.701 C1645.78,363.545 1649.46,365.467 1653.94,365.467 C1658.43,365.467 1660.68,362.441 1660.68,356.389 C1660.68,353.514 1659.87,350.972 1658.24,348.764 C1655.44,344.92 1651.66,342.998 1646.91,342.998 C1644.83,342.998 1643.24,343.86 1642.13,345.584 C1641.03,347.308 1640.48,349.54 1640.48,352.279 C1640.48,355.019 1641.29,357.493 1642.91,359.701 M1633.24,344.467 C1638.13,341.8 1644,340.467 1650.87,340.467 C1657.74,340.467 1663.54,341.834 1668.26,344.568 C1672.98,347.303 1675.34,350.558 1675.34,354.334 C1675.34,358.11 1672.89,361.331 1668.01,363.998 C1663.12,366.665 1657.28,367.998 1650.48,367.998 C1643.67,367.998 1637.86,366.631 1633.05,363.897 C1628.23,361.162 1625.82,357.876 1625.82,354.037 C1625.82,350.199 1628.29,347.009 1633.24,344.467"/>
<path class="Note" d="M2214.42,852.967 C2217.55,852.967 2220.15,853.748 2222.23,855.311 C2224.32,856.873 2225.36,859.118 2225.36,862.045 C2225.36,866.535 2223.03,870.733 2218.38,874.639 C2213.73,878.545 2208.73,880.498 2203.39,880.498 C2200.26,880.498 2197.63,879.686 2195.48,878.061 C2193.46,876.301 2192.45,874.087 2192.45,871.42 C2192.45,867.056 2194.76,862.889 2199.39,858.92 C2204.01,854.952 2209.03,852.967 2214.42,852.967"/>
<path class="Note" d="M560.783,789.873 C562.669,789.873 566.624,787.92 572.65,784.014 C578.676,780.108 582.226,777.488 583.299,776.155 C584.372,774.821 584.908,773.634 584.908,772.592 C584.908,771.55 584.484,770.623 583.635,769.811 C582.786,768.998 581.809,768.592 580.705,768.592 C578.757,768.592 574.77,770.561 568.744,774.498 C562.718,778.436 559.184,781.056 558.143,782.358 C557.101,783.66 556.58,784.832 556.58,785.873 C556.58,786.915 556.989,787.842 557.807,788.655 C558.624,789.467 559.616,789.873 560.783,789.873 M579.736,765.467 C585.33,765.467 588.127,767.873 588.127,772.686 C588.127,775.03 587.445,777.748 586.08,780.842 C584.715,783.936 582.893,786.295 580.611,787.92 C575.601,791.306 569.32,792.998 561.768,792.998 C556.163,792.998 553.361,790.592 553.361,785.78 C553.361,783.634 554.028,780.965 555.361,777.772 C556.695,774.579 558.533,772.17 560.877,770.545 C565.898,767.16 572.184,765.467 579.736,765.467"/>
<path class="Note" d="M1340.2,327.967 C1343.32,327.967 1345.93,328.748 1348.01,330.311 C1350.1,331.873 1351.14,334.118 1351.14,337.045 C1351.14,341.535 1348.81,345.732 1344.16,349.639 C1339.51,353.545 1334.51,355.498 1329.17,355.498 C1326.04,355.498 1323.41,354.686 1321.26,353.061 C1319.24,351.3 1318.23,349.087 1318.23,346.42 C1318.23,342.055 1320.54,337.889 1325.17,333.92 C1329.79,329.951 1334.8,327.967 1340.2,327.967"/>
<path class="Note" d="M2329.86,840.467 C2332.99,840.467 2335.59,841.248 2337.68,842.811 C2339.76,844.373 2340.8,846.618 2340.8,849.545 C2340.8,854.035 2338.48,858.233 2333.82,862.139 C2329.17,866.045 2324.18,867.998 2318.83,867.998 C2315.71,867.998 2313.07,867.186 2310.93,865.561 C2308.91,863.801 2307.9,861.587 2307.9,858.92 C2307.9,854.556 2310.21,850.389 2314.83,846.42 C2319.46,842.452 2324.47,840.467 2329.86,840.467"/>
<path class="Note" d="M2039.08,765.467 C2042.2,765.467 2044.81,766.248 2046.89,767.811 C2048.97,769.373 2050.01,771.618 2050.01,774.545 C2050.01,779.035 2047.69,783.233 2043.04,787.139 C2038.39,791.045 2033.39,792.998 2028.05,792.998 C2024.92,792.998 2022.29,792.186 2020.14,790.561 C2018.12,788.8 2017.11,786.587 2017.11,783.92 C2017.11,779.556 2019.42,775.389 2024.05,771.42 C2028.67,767.452 2033.68,765.467 2039.08,765.467"/>
<path class="Note" d="M2445.31,827.967 C2448.43,827.967 2451.04,828.748 2453.12,830.311 C2455.2,831.873 2456.24,834.118 2456.24,837.045 C2456.24,841.535 2453.92,845.733 2449.27,849.639 C2444.62,853.545 2439.62,855.498 2434.28,855.498 C2431.15,855.498 2428.52,854.686 2426.37,853.061 C2424.35,851.301 2423.34,849.087 2423.34,846.42 C2423.34,842.056 2425.65,837.889 2430.28,833.92 C2434.9,829.952 2439.91,827.967 2445.31,827.967"/>
<path class="Note" d="M2560.75,802.967 C2563.87,802.967 2566.48,803.748 2568.56,805.311 C2570.65,806.873 2571.69,809.118 2571.69,812.045 C2571.69,816.535 2569.36,820.733 2564.71,824.639 C2560.06,828.545 2555.06,830.498 2549.72,830.498 C2546.59,830.498 2543.96,829.686 2541.81,828.061 C2539.79,826.3 2538.78,824.087 2538.78,821.42 C2538.78,817.056 2541.09,812.889 2545.72,808.92 C2550.34,804.952 2555.35,802.967 2560.75,802.967"/>
<path class="Note" d="M1200.9,340.467 C1204.03,340.467 1206.63,341.248 1208.72,342.811 C1210.8,344.373 1211.84,346.618 1211.84,349.545 C1211.84,354.035 1209.52,358.232 1204.87,362.139 C1200.21,366.045 1195.22,367.998 1189.87,367.998 C1186.75,367.998 1184.11,367.186 1181.97,365.561 C1179.95,363.8 1178.94,361.587 1178.94,358.92 C1178.94,354.555 1181.25,350.389 1185.87,346.42 C1190.5,342.451 1195.51,340.467 1200.9,340.467"/>
<path class="Note" d="M2707.09,815.467 C2710.22,815.467 2712.82,816.248 2714.91,817.811 C2716.99,819.373 2718.03,821.618 2718.03,824.545 C2718.03,829.035 2715.71,833.233 2711.05,837.139 C2706.4,841.045 2701.41,842.998 2696.06,842.998 C2692.94,842.998 2690.3,842.186 2688.16,840.561 C2686.14,838.801 2685.12,836.587 2685.12,833.92 C2685.12,829.556 2687.44,825.389 2692.06,821.42 C2696.69,817.452 2701.7,815.467 2707.09,815.467"/>
<path class="Note" d="M1061.61,340.467 C1064.74,340.467 1067.34,341.248 1069.42,342.811 C1071.51,344.373 1072.55,346.618 1072.55,349.545 C1072.55,354.035 1070.22,358.232 1065.57,362.139 C1060.92,366.045 1055.92,367.998 1050.58,367.998 C1047.45,367.998 1044.82,367.186 1042.67,365.561 C1040.65,363.8 1039.64,361.587 1039.64,358.92 C1039.64,354.555 1041.95,350.389 1046.58,346.42 C1051.2,342.451 1056.21,340.467 1061.61,340.467"/>
<path class="Note" d="M922.316,340.467 C925.441,340.467 928.045,341.248 930.128,342.811 C932.212,344.373 933.253,346.618 933.253,349.545 C933.253,354.035 930.928,358.232 926.277,362.139 C921.626,366.045 916.628,367.998 911.285,367.998 C908.16,367.998 905.524,367.186 903.378,365.561 C901.358,363.8 900.347,361.587 900.347,358.92 C900.347,354.555 902.66,350.389 907.285,346.42 C911.91,342.451 916.92,340.467 922.316,340.467"/>
<path class="Note" d="M343.541,1272.2 C346.406,1276.05 350.083,1277.97 354.572,1277.97 C359.062,1277.97 361.307,1274.94 361.307,1268.89 C361.307,1266.01 360.494,1263.47 358.869,1261.26 C356.067,1257.42 352.291,1255.5 347.541,1255.5 C345.458,1255.5 343.864,1256.36 342.76,1258.08 C341.656,1259.81 341.104,1262.04 341.104,1264.78 C341.104,1267.52 341.916,1269.99 343.541,1272.2 M333.869,1256.97 C338.755,1254.3 344.632,1252.97 351.502,1252.97 C358.372,1252.97 364.166,1254.33 368.885,1257.07 C373.604,1259.8 375.963,1263.06 375.963,1266.83 C375.963,1270.61 373.52,1273.83 368.635,1276.5 C363.749,1279.17 357.906,1280.5 351.104,1280.5 C344.301,1280.5 338.492,1279.13 333.674,1276.4 C328.856,1273.66 326.447,1270.38 326.447,1266.54 C326.447,1262.7 328.921,1259.51 333.869,1256.97"/>
<path class="Note" d="M783.021,365.467 C786.146,365.467 788.75,366.248 790.834,367.811 C792.917,369.373 793.959,371.618 793.959,374.545 C793.959,379.035 791.633,383.233 786.982,387.139 C782.331,391.045 777.334,392.998 771.99,392.998 C768.865,392.998 766.23,392.186 764.084,390.561 C762.063,388.8 761.053,386.587 761.053,383.92 C761.053,379.555 763.365,375.389 767.99,371.42 C772.615,367.451 777.625,365.467 783.021,365.467"/>
<path class="Note" d="M531.208,1252.97 C534.333,1252.97 536.937,1253.75 539.02,1255.31 C541.103,1256.87 542.145,1259.12 542.145,1262.05 C542.145,1266.54 539.82,1270.73 535.169,1274.64 C530.517,1278.55 525.52,1280.5 520.176,1280.5 C517.051,1280.5 514.416,1279.69 512.27,1278.06 C510.249,1276.3 509.239,1274.09 509.239,1271.42 C509.239,1267.06 511.551,1262.89 516.176,1258.92 C520.801,1254.95 525.812,1252.97 531.208,1252.97"/>
<path class="Note" d="M343.541,384.701 C346.406,388.545 350.083,390.467 354.572,390.467 C359.062,390.467 361.307,387.441 361.307,381.389 C361.307,378.514 360.494,375.972 358.869,373.764 C356.067,369.92 352.291,367.998 347.541,367.998 C345.458,367.998 343.864,368.86 342.76,370.584 C341.656,372.308 341.104,374.54 341.104,377.279 C341.104,380.019 341.916,382.493 343.541,384.701 M333.869,369.467 C338.755,366.8 344.632,365.467 351.502,365.467 C358.372,365.467 364.166,366.834 368.885,369.568 C373.604,372.303 375.963,375.558 375.963,379.334 C375.963,383.11 373.52,386.331 368.635,388.998 C363.749,391.665 357.906,392.998 351.104,392.998 C344.301,392.998 338.492,391.631 333.674,388.897 C328.856,386.162 326.447,382.876 326.447,379.037 C326.447,375.199 328.921,372.009 333.869,369.467"/>
<path class="Note" d="M1401.96,777.967 C1405.09,777.967 1407.69,778.748 1409.77,780.311 C1411.86,781.873 1412.9,784.118 1412.9,787.045 C1412.9,791.535 1410.57,795.733 1405.92,799.639 C1401.27,803.545 1396.27,805.498 1390.93,805.498 C1387.81,805.498 1385.17,804.686 1383.02,803.061 C1381,801.3 1379.99,799.087 1379.99,796.42 C1379.99,792.056 1382.31,787.889 1386.93,783.92 C1391.56,779.952 1396.57,777.967 1401.96,777.967"/>
<path class="Note" d="M341.268,814.873 C343.153,814.873 347.109,812.92 353.135,809.014 C359.161,805.108 362.71,802.488 363.783,801.155 C364.856,799.821 365.393,798.634 365.393,797.592 C365.393,796.55 364.968,795.623 364.119,794.811 C363.27,793.998 362.294,793.592 361.19,793.592 C359.242,793.592 355.255,795.561 349.229,799.498 C343.203,803.436 339.669,806.056 338.627,807.358 C337.585,808.66 337.065,809.832 337.065,810.873 C337.065,811.915 337.473,812.842 338.291,813.655 C339.109,814.467 340.101,814.873 341.268,814.873 M360.221,790.467 C365.815,790.467 368.611,792.873 368.611,797.686 C368.611,800.03 367.929,802.748 366.565,805.842 C365.2,808.936 363.377,811.295 361.096,812.92 C356.085,816.306 349.804,817.998 342.252,817.998 C336.648,817.998 333.846,815.592 333.846,810.78 C333.846,808.634 334.512,805.965 335.846,802.772 C337.179,799.579 339.018,797.17 341.361,795.545 C346.382,792.16 352.669,790.467 360.221,790.467"/>
<path class="Note" d="M940.191,740.467 C943.316,740.467 945.92,741.248 948.003,742.811 C950.087,744.373 951.128,746.618 951.128,749.545 C951.128,754.035 948.803,758.233 944.152,762.139 C939.501,766.045 934.503,767.998 929.159,767.998 C926.034,767.998 923.399,767.186 921.253,765.561 C919.232,763.8 918.222,761.587 918.222,758.92 C918.222,754.556 920.534,750.389 925.159,746.42 C929.784,742.451 934.795,740.467 940.191,740.467"/>
<path class="Note" d="M1055.63,752.967 C1058.76,752.967 1061.36,753.748 1063.45,755.311 C1065.53,756.873 1066.57,759.118 1066.57,762.045 C1066.57,766.535 1064.25,770.733 1059.59,774.639 C1054.94,778.545 1049.95,780.498 1044.6,780.498 C1041.48,780.498 1038.84,779.686 1036.7,778.061 C1034.68,776.3 1033.66,774.087 1033.66,771.42 C1033.66,767.056 1035.98,762.889 1040.6,758.92 C1045.23,754.952 1050.24,752.967 1055.63,752.967"/>
<path class="Note" d="M2676.86,327.967 C2679.98,327.967 2682.59,328.748 2684.67,330.311 C2686.75,331.873 2687.79,334.118 2687.79,337.045 C2687.79,341.535 2685.47,345.732 2680.82,349.639 C2676.17,353.545 2671.17,355.498 2665.83,355.498 C2662.7,355.498 2660.07,354.686 2657.92,353.061 C2655.9,351.3 2654.89,349.087 2654.89,346.42 C2654.89,342.055 2657.2,337.889 2661.83,333.92 C2666.45,329.951 2671.46,327.967 2676.86,327.967"/>
<path class="Note" d="M1171.08,765.467 C1174.2,765.467 1176.81,766.248 1178.89,767.811 C1180.97,769.373 1182.01,771.618 1182.01,774.545 C1182.01,779.035 1179.69,783.233 1175.04,787.139 C1170.39,791.045 1165.39,792.998 1160.05,792.998 C1156.92,792.998 1154.28,792.186 1152.14,790.561 C1150.12,788.8 1149.11,786.587 1149.11,783.92 C1149.11,779.556 1151.42,775.389 1156.05,771.42 C1160.67,767.452 1165.68,765.467 1171.08,765.467"/>
<path class="Note" d="M2500.28,340.467 C2503.4,340.467 2506.01,341.248 2508.09,342.811 C2510.17,344.373 2511.22,346.618 2511.22,349.545 C2511.22,354.035 2508.89,358.232 2504.24,362.139 C2499.59,366.045 2494.59,367.998 2489.25,367.998 C2486.12,367.998 2483.49,367.186 2481.34,365.561 C2479.32,363.8 2478.31,361.587 2478.31,358.92 C2478.31,354.555 2480.62,350.389 2485.25,346.42 C2489.87,342.451 2494.88,340.467 2500.28,340.467"/>
<path class="Note" d="M1286.52,752.967 C1289.64,752.967 1292.25,753.748 1294.33,755.311 C1296.42,756.873 1297.46,759.118 1297.46,762.045 C1297.46,766.535 1295.13,770.733 1290.48,774.639 C1285.83,778.545 1280.83,780.498 1275.49,780.498 C1272.36,780.498 1269.73,779.686 1267.58,778.061 C1265.56,776.3 1264.55,774.087 1264.55,771.42 C1264.55,767.056 1266.86,762.889 1271.49,758.92 C1276.11,754.952 1281.12,752.967 1286.52,752.967"/>
<path class="Note" d="M2360.98,340.467 C2364.11,340.467 2366.71,341.248 2368.8,342.811 C2370.88,344.373 2371.92,346.618 2371.92,349.545 C2371.92,354.035 2369.6,358.232 2364.94,362.139 C2360.29,366.045 2355.3,367.998 2349.95,367.998 C2346.83,367.998 2344.19,367.186 2342.05,365.561 C2340.02,363.8 2339.01,361.587 2339.01,358.92 C2339.01,354.555 2341.33,350.389 2345.95,346.42 C2350.58,342.451 2355.59,340.467 2360.98,340.467"/>
<path class="Note" d="M2221.69,340.467 C2224.81,340.467 2227.42,341.248 2229.5,342.811 C2231.58,344.373 2232.63,346.618 2232.63,349.545 C2232.63,354.035 2230.3,358.232 2225.65,362.139 C2221,366.045 2216,367.998 2210.66,367.998 C2207.53,367.998 2204.9,367.186 2202.75,365.561 C2200.73,363.8 2199.72,361.587 2199.72,358.92 C2199.72,354.555 2202.03,350.389 2206.66,346.42 C2211.28,342.451 2216.29,340.467 2221.69,340.467"/>
<path class="Note" d="M1546.41,765.467 C1549.53,765.467 1552.13,766.248 1554.22,767.811 C1556.3,769.373 1557.34,771.618 1557.34,774.545 C1557.34,779.035 1555.02,783.233 1550.37,787.139 C1545.72,791.045 1540.72,792.998 1535.37,792.998 C1532.25,792.998 1529.61,792.186 1527.47,790.561 C1525.45,788.8 1524.44,786.587 1524.44,783.92 C1524.44,779.556 1526.75,775.389 1531.37,771.42 C1536,767.452 1541.01,765.467 1546.41,765.467"/>
<path class="Note" d="M1892.73,752.967 C1895.86,752.967 1898.46,753.748 1900.55,755.311 C1902.63,756.873 1903.67,759.118 1903.67,762.045 C1903.67,766.535 1901.35,770.733 1896.69,774.639 C1892.04,778.545 1887.05,780.498 1881.7,780.498 C1878.58,780.498 1875.94,779.686 1873.8,778.061 C1871.78,776.3 1870.77,774.087 1870.77,771.42 C1870.77,767.056 1873.08,762.889 1877.7,758.92 C1882.33,754.952 1887.34,752.967 1892.73,752.967"/>
<path class="Note" d="M1661.85,790.467 C1664.97,790.467 1667.58,791.248 1669.66,792.811 C1671.74,794.373 1672.79,796.618 1672.79,799.545 C1672.79,804.035 1670.46,808.233 1665.81,812.139 C1661.16,816.045 1656.16,817.998 1650.82,817.998 C1647.69,817.998 1645.06,817.186 1642.91,815.561 C1640.89,813.8 1639.88,811.587 1639.88,808.92 C1639.88,804.556 1642.19,800.389 1646.82,796.42 C1651.44,792.452 1656.45,790.467 1661.85,790.467"/>
<path class="Note" d="M824.748,765.467 C827.873,765.467 830.477,766.248 832.56,767.811 C834.644,769.373 835.685,771.618 835.685,774.545 C835.685,779.035 833.36,783.233 828.709,787.139 C824.058,791.045 819.06,792.998 813.717,792.998 C810.592,792.998 807.956,792.186 805.81,790.561 C803.79,788.8 802.779,786.587 802.779,783.92 C802.779,779.556 805.092,775.389 809.717,771.42 C814.342,767.452 819.352,765.467 824.748,765.467"/>
<path class="Note" d="M1777.29,777.967 C1780.42,777.967 1783.02,778.748 1785.1,780.311 C1787.19,781.873 1788.23,784.118 1788.23,787.045 C1788.23,791.535 1785.9,795.733 1781.25,799.639 C1776.6,803.545 1771.6,805.498 1766.26,805.498 C1763.13,805.498 1760.5,804.686 1758.35,803.061 C1756.33,801.3 1755.32,799.087 1755.32,796.42 C1755.32,792.056 1757.63,787.889 1762.26,783.92 C1766.88,779.952 1771.9,777.967 1777.29,777.967"/>
<path class="Note" d="M2082.39,340.467 C2085.52,340.467 2088.12,341.248 2090.21,342.811 C2092.29,344.373 2093.33,346.618 2093.33,349.545 C2093.33,354.035 2091.01,358.232 2086.35,362.139 C2081.7,366.045 2076.71,367.998 2071.36,367.998 C2068.24,367.998 2065.6,367.186 2063.46,365.561 C2061.44,363.8 2060.43,361.587 2060.43,358.92 C2060.43,354.555 2062.74,350.389 2067.36,346.42 C2071.99,342.451 2077,340.467 2082.39,340.467"/>
<path class="Clef" d="M203.623,423.858 L203.623,421.717 C203.56,420.613 203.399,418.889 203.139,416.545 C199.889,417.066 196.993,417.326 194.451,417.326 C185.337,417.326 177.605,413.727 171.256,406.529 C164.907,399.331 161.732,390.753 161.732,380.795 C161.732,378.128 162.253,374.923 163.295,371.178 C164.337,367.433 165.297,364.925 166.178,363.654 C167.058,362.384 168.378,360.154 170.139,356.967 C170.659,355.988 172.352,353.837 175.217,350.514 C175.738,349.805 176.193,349.222 176.584,348.764 C176.975,348.305 177.607,347.49 178.482,346.318 C179.357,345.147 180.3,344.055 181.31,343.045 C182.321,342.035 183.217,341.058 183.998,340.115 C184.779,339.173 185.498,338.378 186.154,337.733 C183.81,329.983 182.378,324.024 181.857,319.858 C181.337,315.691 181.076,310.579 181.076,304.522 C181.076,298.464 182.378,292.962 184.982,288.014 C187.514,282.878 191.06,278.68 195.623,275.42 C195.883,275.222 196.225,275.123 196.646,275.123 C197.068,275.123 197.378,275.222 197.576,275.42 C201.087,279.649 204.128,285.149 206.701,291.92 C209.274,298.691 210.56,305.024 210.56,310.92 C210.56,316.816 209.066,322.498 206.076,327.967 C202.691,333.759 198.326,339.748 192.982,345.936 C194.347,350.227 196.17,356.962 198.451,366.139 L199.045,366.139 C199.305,366.076 199.529,366.045 199.717,366.045 C207.081,366.045 213.089,368.634 217.74,373.811 C222.391,378.988 224.717,384.962 224.717,391.733 C224.717,400.128 221.238,406.899 214.279,412.045 C212.258,413.545 209.878,414.717 207.139,415.561 C207.472,419.79 207.639,422.605 207.639,424.006 C207.639,425.407 207.571,427.899 207.435,431.483 C207.373,437.597 205.29,442.837 201.185,447.201 C197.081,451.566 192.394,453.748 187.123,453.748 C181.852,453.748 177.36,451.876 173.646,448.131 C169.933,444.386 168.076,439.847 168.076,434.514 C168.076,431.712 169.154,429.331 171.31,427.373 C173.519,425.425 176.006,424.451 178.771,424.451 C181.537,424.451 183.8,425.462 185.56,427.483 C187.383,429.368 188.295,431.644 188.295,434.311 C188.295,436.977 187.383,439.222 185.56,441.045 C183.738,442.868 181.555,443.779 179.014,443.779 C177.972,443.779 176.967,443.587 175.998,443.201 C178.863,447.43 182.54,449.545 187.029,449.545 C191.519,449.545 195.36,447.691 198.553,443.983 C201.745,440.274 203.342,435.91 203.342,430.889 L203.623,423.858 M206.748,411.561 C210.133,410.321 212.821,408.123 214.81,404.967 C216.8,401.811 217.795,398.67 217.795,395.545 C217.795,390.92 216.199,386.785 213.006,383.139 C209.813,379.493 205.774,377.441 200.889,376.983 C203.691,390.722 205.644,402.248 206.748,411.561 M168.967,388.998 C168.967,395.446 171.537,401.079 176.678,405.897 C181.818,410.714 187.842,413.123 194.748,413.123 C197.477,413.123 200.144,412.925 202.748,412.529 C201.706,402.634 199.654,390.785 196.592,376.983 C192.758,377.378 189.782,378.699 187.662,380.943 C185.542,383.188 184.482,385.743 184.482,388.608 C184.482,393.555 187.123,397.561 192.404,400.623 C192.852,400.884 193.076,401.324 193.076,401.943 C193.076,402.563 192.865,403.1 192.443,403.553 C192.021,404.006 191.649,404.233 191.326,404.233 C191.003,404.233 190.581,404.17 190.06,404.045 C182.435,399.878 178.623,393.592 178.623,385.186 C178.623,381.217 180.024,377.41 182.826,373.764 C185.753,370.118 189.56,367.774 194.248,366.733 C192.425,359.441 190.93,353.743 189.764,349.639 C180.847,359.67 175.31,367.092 173.154,371.904 C170.363,378.154 168.967,383.852 168.967,388.998 M201.576,289.686 C196.691,292.092 192.834,295.574 190.006,300.131 C187.178,304.688 185.764,309.472 185.764,314.483 C185.764,319.493 186.935,325.972 189.279,333.92 C193.967,328.253 197.514,322.946 199.92,317.998 C202.326,313.05 203.529,308.152 203.529,303.303 C203.529,298.454 202.878,293.915 201.576,289.686"/>
<path class="Clef" d="M203.623,1373.86 L203.623,1371.72 C203.56,1370.61 203.399,1368.89 203.139,1366.55 C199.889,1367.07 196.993,1367.33 194.451,1367.33 C185.337,1367.33 177.605,1363.73 171.256,1356.53 C164.907,1349.33 161.732,1340.75 161.732,1330.8 C161.732,1328.13 162.253,1324.92 163.295,1321.18 C164.337,1317.43 165.297,1314.93 166.178,1313.65 C167.058,1312.38 168.378,1310.15 170.139,1306.97 C170.659,1305.99 172.352,1303.84 175.217,1300.51 C175.738,1299.81 176.193,1299.22 176.584,1298.76 C176.975,1298.31 177.607,1297.49 178.482,1296.32 C179.357,1295.15 180.3,1294.06 181.31,1293.05 C182.321,1292.04 183.217,1291.06 183.998,1290.12 C184.779,1289.17 185.498,1288.38 186.154,1287.73 C183.81,1279.98 182.378,1274.02 181.857,1269.86 C181.337,1265.69 181.076,1260.58 181.076,1254.52 C181.076,1248.46 182.378,1242.96 184.982,1238.01 C187.514,1232.88 191.06,1228.68 195.623,1225.42 C195.883,1225.22 196.225,1225.12 196.646,1225.12 C197.068,1225.12 197.378,1225.22 197.576,1225.42 C201.087,1229.65 204.128,1235.15 206.701,1241.92 C209.274,1248.69 210.56,1255.02 210.56,1260.92 C210.56,1266.82 209.066,1272.5 206.076,1277.97 C202.691,1283.76 198.326,1289.75 192.982,1295.94 C194.347,1300.23 196.17,1306.96 198.451,1316.14 L199.045,1316.14 C199.305,1316.08 199.529,1316.05 199.717,1316.05 C207.081,1316.05 213.089,1318.63 217.74,1323.81 C222.391,1328.99 224.717,1334.96 224.717,1341.73 C224.717,1350.13 221.238,1356.9 214.279,1362.05 C212.258,1363.55 209.878,1364.72 207.139,1365.56 C207.472,1369.79 207.639,1372.61 207.639,1374.01 C207.639,1375.41 207.571,1377.9 207.435,1381.48 C207.373,1387.6 205.29,1392.84 201.185,1397.2 C197.081,1401.57 192.394,1403.75 187.123,1403.75 C181.852,1403.75 177.36,1401.88 173.646,1398.13 C169.933,1394.39 168.076,1389.85 168.076,1384.51 C168.076,1381.71 169.154,1379.33 171.31,1377.37 C173.519,1375.43 176.006,1374.45 178.771,1374.45 C181.537,1374.45 183.8,1375.46 185.56,1377.48 C187.383,1379.37 188.295,1381.64 188.295,1384.31 C188.295,1386.98 187.383,1389.22 185.56,1391.05 C183.738,1392.87 181.555,1393.78 179.014,1393.78 C177.972,1393.78 176.967,1393.59 175.998,1393.2 C178.863,1397.43 182.54,1399.55 187.029,1399.55 C191.519,1399.55 195.36,1397.69 198.553,1393.98 C201.745,1390.27 203.342,1385.91 203.342,1380.89 L203.623,1373.86 M206.748,1361.56 C210.133,1360.32 212.821,1358.12 214.81,1354.97 C216.8,1351.81 217.795,1348.67 217.795,1345.55 C217.795,1340.92 216.199,1336.79 213.006,1333.14 C209.813,1329.49 205.774,1327.44 200.889,1326.98 C203.691,1340.72 205.644,1352.25 206.748,1361.56 M168.967,1339 C168.967,1345.45 171.537,1351.08 176.678,1355.9 C181.818,1360.71 187.842,1363.12 194.748,1363.12 C197.477,1363.12 200.144,1362.93 202.748,1362.53 C201.706,1352.63 199.654,1340.79 196.592,1326.98 C192.758,1327.38 189.782,1328.7 187.662,1330.94 C185.542,1333.19 184.482,1335.74 184.482,1338.61 C184.482,1343.56 187.123,1347.56 192.404,1350.62 C192.852,1350.88 193.076,1351.32 193.076,1351.94 C193.076,1352.56 192.865,1353.1 192.443,1353.55 C192.021,1354.01 191.649,1354.23 191.326,1354.23 C191.003,1354.23 190.581,1354.17 190.06,1354.05 C182.435,1349.88 178.623,1343.59 178.623,1335.19 C178.623,1331.22 180.024,1327.41 182.826,1323.76 C185.753,1320.12 189.56,1317.77 194.248,1316.73 C192.425,1309.44 190.93,1303.74 189.764,1299.64 C180.847,1309.67 175.31,1317.09 173.154,1321.9 C170.363,1328.15 168.967,1333.85 168.967,1339 M201.576,1239.69 C196.691,1242.09 192.834,1245.57 190.006,1250.13 C187.178,1254.69 185.764,1259.47 185.764,1264.48 C185.764,1269.49 186.935,1275.97 189.279,1283.92 C193.967,1278.25 197.514,1272.95 199.92,1268 C202.326,1263.05 203.529,1258.15 203.529,1253.3 C203.529,1248.45 202.878,1243.92 201.576,1239.69"/>
<path class="Clef" d="M203.623,898.858 L203.623,896.717 C203.56,895.613 203.399,893.889 203.139,891.545 C199.889,892.066 196.993,892.327 194.451,892.327 C185.337,892.327 177.605,888.728 171.256,881.53 C164.907,874.332 161.732,865.754 161.732,855.795 C161.732,853.129 162.253,849.923 163.295,846.178 C164.337,842.433 165.297,839.926 166.178,838.655 C167.058,837.384 168.378,835.155 170.139,831.967 C170.659,830.988 172.352,828.837 175.217,825.514 C175.738,824.806 176.193,824.222 176.584,823.764 C176.975,823.306 177.607,822.491 178.482,821.319 C179.357,820.147 180.3,819.056 181.31,818.045 C182.321,817.035 183.217,816.058 183.998,815.116 C184.779,814.173 185.498,813.379 186.154,812.733 C183.81,804.983 182.378,799.024 181.857,794.858 C181.337,790.691 181.076,785.579 181.076,779.522 C181.076,773.465 182.378,767.962 184.982,763.014 C187.514,757.879 191.06,753.681 195.623,750.42 C195.883,750.222 196.225,750.123 196.646,750.123 C197.068,750.123 197.378,750.222 197.576,750.42 C201.087,754.649 204.128,760.149 206.701,766.92 C209.274,773.691 210.56,780.024 210.56,785.92 C210.56,791.816 209.066,797.498 206.076,802.967 C202.691,808.759 198.326,814.748 192.982,820.936 C194.347,825.228 196.17,831.962 198.451,841.139 L199.045,841.139 C199.305,841.077 199.529,841.045 199.717,841.045 C207.081,841.045 213.089,843.634 217.74,848.811 C222.391,853.988 224.717,859.962 224.717,866.733 C224.717,875.129 221.238,881.899 214.279,887.045 C212.258,888.545 209.878,889.717 207.139,890.561 C207.472,894.79 207.639,897.605 207.639,899.006 C207.639,900.407 207.571,902.899 207.435,906.483 C207.373,912.597 205.29,917.837 201.185,922.202 C197.081,926.566 192.394,928.748 187.123,928.748 C181.852,928.748 177.36,926.876 173.646,923.131 C169.933,919.386 168.076,914.847 168.076,909.514 C168.076,906.712 169.154,904.332 171.31,902.373 C173.519,900.426 176.006,899.452 178.771,899.452 C181.537,899.452 183.8,900.462 185.56,902.483 C187.383,904.368 188.295,906.644 188.295,909.311 C188.295,911.978 187.383,914.222 185.56,916.045 C183.738,917.868 181.555,918.78 179.014,918.78 C177.972,918.78 176.967,918.587 175.998,918.202 C178.863,922.431 182.54,924.545 187.029,924.545 C191.519,924.545 195.36,922.691 198.553,918.983 C201.745,915.274 203.342,910.91 203.342,905.889 L203.623,898.858 M206.748,886.561 C210.133,885.321 212.821,883.123 214.81,879.967 C216.8,876.811 217.795,873.67 217.795,870.545 C217.795,865.92 216.199,861.785 213.006,858.139 C209.813,854.493 205.774,852.441 200.889,851.983 C203.691,865.722 205.644,877.248 206.748,886.561 M168.967,863.998 C168.967,870.446 171.537,876.079 176.678,880.897 C181.818,885.715 187.842,888.123 194.748,888.123 C197.477,888.123 200.144,887.926 202.748,887.53 C201.706,877.634 199.654,865.785 196.592,851.983 C192.758,852.379 189.782,853.699 187.662,855.944 C185.542,858.189 184.482,860.743 184.482,863.608 C184.482,868.556 187.123,872.561 192.404,875.623 C192.852,875.884 193.076,876.324 193.076,876.944 C193.076,877.564 192.865,878.1 192.443,878.553 C192.021,879.006 191.649,879.233 191.326,879.233 C191.003,879.233 190.581,879.17 190.06,879.045 C182.435,874.879 178.623,868.592 178.623,860.186 C178.623,856.217 180.024,852.41 182.826,848.764 C185.753,845.118 189.56,842.774 194.248,841.733 C192.425,834.441 190.93,828.743 189.764,824.639 C180.847,834.67 175.31,842.092 173.154,846.905 C170.363,853.155 168.967,858.853 168.967,863.998 M201.576,764.686 C196.691,767.092 192.834,770.574 190.006,775.131 C187.178,779.689 185.764,784.472 185.764,789.483 C185.764,794.493 186.935,800.972 189.279,808.92 C193.967,803.254 197.514,797.946 199.92,792.998 C202.326,788.051 203.529,783.152 203.529,778.303 C203.529,773.454 202.878,768.915 201.576,764.686"/>
<path class="KeySig" d="M251.123,384.311 L249.857,322.201 C249.857,321.222 250.623,320.733 252.154,320.733 C253.686,320.733 254.451,321.222 254.451,322.201 L253.67,356.092 C255.43,354.331 256.943,353.11 258.209,352.428 C259.475,351.746 261.199,351.404 263.381,351.404 C265.563,351.404 267.581,352.412 269.436,354.428 C271.29,356.443 272.217,358.951 272.217,361.951 C272.217,366.441 267.498,372.66 258.061,380.608 C254.55,383.795 252.727,385.389 252.592,385.389 L252.014,385.389 C251.42,385.389 251.123,385.029 251.123,384.311 M253.576,359.217 L253.279,381.389 C255.3,379.493 257.352,376.347 259.436,371.951 C261.519,367.555 262.561,363.795 262.561,360.67 C262.561,359.108 262.3,357.675 261.779,356.373 C261.258,355.071 260.443,354.42 259.334,354.42 C258.225,354.42 257.23,354.811 256.35,355.592 C255.469,356.373 254.545,357.581 253.576,359.217"/>
<path class="KeySig" d="M251.123,1334.31 L249.857,1272.2 C249.857,1271.22 250.623,1270.73 252.154,1270.73 C253.686,1270.73 254.451,1271.22 254.451,1272.2 L253.67,1306.09 C255.43,1304.33 256.943,1303.11 258.209,1302.43 C259.475,1301.75 261.199,1301.4 263.381,1301.4 C265.563,1301.4 267.581,1302.41 269.436,1304.43 C271.29,1306.44 272.217,1308.95 272.217,1311.95 C272.217,1316.44 267.498,1322.66 258.061,1330.61 C254.55,1333.8 252.727,1335.39 252.592,1335.39 L252.014,1335.39 C251.42,1335.39 251.123,1335.03 251.123,1334.31 M253.576,1309.22 L253.279,1331.39 C255.3,1329.49 257.352,1326.35 259.436,1321.95 C261.519,1317.56 262.561,1313.8 262.561,1310.67 C262.561,1309.11 262.3,1307.68 261.779,1306.37 C261.258,1305.07 260.443,1304.42 259.334,1304.42 C258.225,1304.42 257.23,1304.81 256.35,1305.59 C255.469,1306.37 254.545,1307.58 253.576,1309.22"/>
<path class="KeySig" d="M251.123,859.311 L249.857,797.202 C249.857,796.222 250.623,795.733 252.154,795.733 C253.686,795.733 254.451,796.222 254.451,797.202 L253.67,831.092 C255.43,829.332 256.943,828.11 258.209,827.428 C259.475,826.746 261.199,826.405 263.381,826.405 C265.563,826.405 267.581,827.412 269.436,829.428 C271.29,831.444 272.217,833.952 272.217,836.952 C272.217,841.441 267.498,847.66 258.061,855.608 C254.55,858.795 252.727,860.389 252.592,860.389 L252.014,860.389 C251.42,860.389 251.123,860.03 251.123,859.311 M253.576,834.217 L253.279,856.389 C255.3,854.493 257.352,851.347 259.436,846.952 C261.519,842.556 262.561,838.795 262.561,835.67 C262.561,834.108 262.3,832.676 261.779,831.373 C261.258,830.071 260.443,829.42 259.334,829.42 C258.225,829.42 257.23,829.811 256.35,830.592 C255.469,831.373 254.545,832.582 253.576,834.217"/>
<path class="Rest" d="M842.584,1307.36 L807.037,1307.36 C806.381,1307.36 806.053,1307.04 806.053,1306.39 L806.053,1292.72 C806.053,1292.06 806.381,1291.73 807.037,1291.73 L842.584,1291.73 C843.23,1291.73 843.553,1292.06 843.553,1292.72 L843.553,1306.39 C843.553,1307.04 843.23,1307.36 842.584,1307.36"/>
<path class="Rest" d="M574.292,1311.45 C573.636,1310.61 573.308,1309.7 573.308,1308.72 C573.308,1306.97 575.396,1304.53 579.573,1301.4 C583.667,1298.21 585.714,1294.56 585.714,1290.47 C585.714,1288.05 584.87,1285.84 583.183,1283.83 L579.667,1279.62 C579.407,1279.36 579.276,1279.04 579.276,1278.65 C579.276,1278.26 579.469,1277.9 579.855,1277.58 C580.313,1277.24 580.737,1277.08 581.128,1277.08 C581.519,1277.08 581.844,1277.27 582.105,1277.67 L597.245,1295.64 C597.891,1296.48 598.214,1297.41 598.214,1298.42 C598.214,1299.43 597.677,1300.52 596.605,1301.69 C595.532,1302.87 594.021,1304.23 592.073,1305.8 C590.573,1306.7 589.157,1308.13 587.823,1310.08 C586.49,1312.04 585.823,1314.25 585.823,1316.73 C585.823,1319.21 586.605,1321.39 588.167,1323.28 L596.558,1333.14 C596.756,1333.34 596.886,1333.66 596.948,1334.12 C597.011,1334.57 596.847,1334.96 596.456,1335.29 C596.065,1335.62 595.758,1335.78 595.534,1335.78 C595.31,1335.78 594.724,1335.4 593.776,1334.65 C592.828,1333.9 591.493,1333.17 589.769,1332.46 C588.045,1331.75 586.336,1331.39 584.644,1331.39 C582.951,1331.39 581.618,1331.85 580.644,1332.76 C579.67,1333.67 579.183,1335.77 579.183,1339.05 C579.183,1342.34 580.125,1345.12 582.011,1347.4 C582.209,1347.67 582.243,1347.96 582.112,1348.28 C581.982,1348.6 581.722,1348.76 581.331,1348.76 C580.94,1348.76 579.946,1347.56 578.347,1345.15 C576.748,1342.75 575.216,1339.9 573.753,1336.61 C572.289,1333.32 571.558,1330.57 571.558,1328.36 C571.558,1325.56 572.99,1324.15 575.855,1324.15 C578.719,1324.15 582.594,1325.2 587.48,1327.28 L574.292,1311.45 "/>
<path class="Rest" d="M675.095,1316.73 L639.548,1316.73 C638.892,1316.73 638.564,1316.4 638.564,1315.75 L638.564,1302.08 C638.564,1301.43 638.892,1301.11 639.548,1301.11 L675.095,1301.11 C675.741,1301.11 676.064,1301.43 676.064,1302.08 L676.064,1315.75 C676.064,1316.4 675.741,1316.73 675.095,1316.73"/>
<path class="Tuplet" d="M1261.18,928.639 C1269.14,927.337 1273.13,924.566 1273.13,920.327 C1273.13,918.962 1272.72,917.863 1271.9,917.03 C1271.08,916.196 1270.01,915.78 1268.68,915.78 C1266.64,915.78 1264.78,916.894 1263.08,919.123 L1262.27,918.873 C1263.1,917.248 1264.25,915.959 1265.7,915.006 C1267.15,914.053 1268.74,913.577 1270.47,913.577 C1272.47,913.577 1274.14,914.186 1275.47,915.405 C1276.81,916.623 1277.47,918.165 1277.47,920.03 C1277.47,921.728 1276.93,923.095 1275.85,924.131 C1274.76,925.168 1272.71,926.269 1269.68,927.436 L1269.68,927.577 C1272.87,929.045 1274.47,931.53 1274.47,935.03 C1274.47,938.498 1273.19,941.498 1270.62,944.03 C1268.05,946.561 1264.69,947.827 1260.52,947.827 C1256.79,947.827 1254.93,946.847 1254.93,944.889 C1254.93,943.587 1255.66,942.936 1257.13,942.936 C1257.96,942.936 1259.08,943.436 1260.48,944.436 C1261.88,945.436 1263.03,945.936 1263.93,945.936 C1265.73,945.936 1267.27,945.178 1268.55,943.663 C1269.83,942.147 1270.47,940.17 1270.47,937.733 C1270.47,934.597 1269.69,932.431 1268.12,931.233 C1266.55,930.035 1264.24,929.436 1261.18,929.436 L1261.18,928.639 "/>
<polyline class="Tuplet" fill="none" stroke="#000000" stroke-width="2.50" stroke-linejoin="miter" stroke-miterlimit="2" points="1137.86,906.483 1137.86,931.483 1241.68,931.483"/>
<polyline class="Tuplet" fill="none" stroke="#000000" stroke-width="2.50" stroke-linejoin="miter" stroke-miterlimit="2" points="1290.68,931.483 1394.49,931.483 1394.49,906.483"/>
<path class="Tuplet" d="M914.847,928.639 C922.816,927.337 926.8,924.566 926.8,920.327 C926.8,918.962 926.391,917.863 925.574,917.03 C924.756,916.196 923.68,915.78 922.347,915.78 C920.316,915.78 918.451,916.894 916.753,919.123 L915.941,918.873 C916.774,917.248 917.917,915.959 919.37,915.006 C920.824,914.053 922.415,913.577 924.144,913.577 C926.144,913.577 927.811,914.186 929.144,915.405 C930.477,916.623 931.144,918.165 931.144,920.03 C931.144,921.728 930.602,923.095 929.519,924.131 C928.436,925.168 926.378,926.269 923.347,927.436 L923.347,927.577 C926.545,929.045 928.144,931.53 928.144,935.03 C928.144,938.498 926.86,941.498 924.292,944.03 C921.725,946.561 918.357,947.827 914.191,947.827 C910.462,947.827 908.597,946.847 908.597,944.889 C908.597,943.587 909.331,942.936 910.8,942.936 C911.633,942.936 912.751,943.436 914.152,944.436 C915.553,945.436 916.701,945.936 917.597,945.936 C919.399,945.936 920.941,945.178 922.222,943.663 C923.503,942.147 924.144,940.17 924.144,937.733 C924.144,934.597 923.36,932.431 921.792,931.233 C920.225,930.035 917.91,929.436 914.847,929.436 L914.847,928.639 "/>
<polyline class="Tuplet" fill="none" stroke="#000000" stroke-width="2.50" stroke-linejoin="miter" stroke-miterlimit="2" points="791.529,906.483 791.529,931.483 895.347,931.483"/>
<polyline class="Tuplet" fill="none" stroke="#000000" stroke-width="2.50" stroke-linejoin="miter" stroke-miterlimit="2" points="944.347,931.483 1048.16,931.483 1048.16,906.483"/>
<path class="Tuplet" d="M903.222,464.29 C911.191,462.988 915.175,460.217 915.175,455.978 C915.175,454.613 914.766,453.514 913.949,452.681 C913.131,451.848 912.055,451.431 910.722,451.431 C908.691,451.431 906.826,452.546 905.128,454.775 L904.316,454.525 C905.149,452.9 906.292,451.611 907.746,450.658 C909.199,449.704 910.79,449.228 912.519,449.228 C914.519,449.228 916.186,449.837 917.519,451.056 C918.852,452.275 919.519,453.816 919.519,455.681 C919.519,457.379 918.977,458.746 917.894,459.783 C916.811,460.819 914.753,461.921 911.722,463.087 L911.722,463.228 C914.92,464.697 916.519,467.181 916.519,470.681 C916.519,474.15 915.235,477.15 912.667,479.681 C910.1,482.212 906.733,483.478 902.566,483.478 C898.837,483.478 896.972,482.499 896.972,480.54 C896.972,479.238 897.707,478.587 899.175,478.587 C900.009,478.587 901.126,479.087 902.527,480.087 C903.928,481.087 905.076,481.587 905.972,481.587 C907.774,481.587 909.316,480.829 910.597,479.314 C911.878,477.798 912.519,475.822 912.519,473.384 C912.519,470.249 911.735,468.082 910.167,466.884 C908.6,465.686 906.285,465.087 903.222,465.087 L903.222,464.29 "/>
<polyline class="Tuplet" fill="none" stroke="#000000" stroke-width="2.50" stroke-linejoin="miter" stroke-miterlimit="2" points="762.303,432.759 762.303,457.759 883.722,465.56"/>
<polyline class="Tuplet" fill="none" stroke="#000000" stroke-width="2.50" stroke-linejoin="miter" stroke-miterlimit="2" points="932.722,468.708 1054.14,476.509 1054.14,451.509"/>
<path class="Tuplet" d="M1314.86,467.014 C1322.82,465.712 1326.81,462.941 1326.81,458.701 C1326.81,457.337 1326.4,456.238 1325.58,455.404 C1324.76,454.571 1323.69,454.154 1322.36,454.154 C1320.32,454.154 1318.46,455.269 1316.76,457.498 L1315.95,457.248 C1316.78,455.623 1317.93,454.334 1319.38,453.381 C1320.83,452.428 1322.42,451.951 1324.15,451.951 C1326.15,451.951 1327.82,452.561 1329.15,453.779 C1330.49,454.998 1331.15,456.54 1331.15,458.404 C1331.15,460.102 1330.61,461.47 1329.53,462.506 C1328.44,463.542 1326.39,464.644 1323.36,465.811 L1323.36,465.951 C1326.55,467.42 1328.15,469.904 1328.15,473.404 C1328.15,476.873 1326.87,479.873 1324.3,482.404 C1321.73,484.936 1318.37,486.201 1314.2,486.201 C1310.47,486.201 1308.61,485.222 1308.61,483.264 C1308.61,481.962 1309.34,481.311 1310.81,481.311 C1311.64,481.311 1312.76,481.811 1314.16,482.811 C1315.56,483.811 1316.71,484.311 1317.61,484.311 C1319.41,484.311 1320.95,483.553 1322.23,482.037 C1323.51,480.522 1324.15,478.545 1324.15,476.108 C1324.15,472.972 1323.37,470.805 1321.8,469.608 C1320.23,468.41 1317.92,467.811 1314.86,467.811 L1314.86,467.014 "/>
<polyline class="Tuplet" fill="none" stroke="#000000" stroke-width="2.50" stroke-linejoin="miter" stroke-miterlimit="2" points="1167.69,441.733 1167.69,466.733 1295.36,469.354"/>
<polyline class="Tuplet" fill="none" stroke="#000000" stroke-width="2.50" stroke-linejoin="miter" stroke-miterlimit="2" points="1344.36,470.361 1472.03,472.983 1472.03,447.983"/>
<path class="Tuplet" d="M1636.5,928.639 C1644.47,927.337 1648.46,924.566 1648.46,920.327 C1648.46,918.962 1648.05,917.863 1647.23,917.03 C1646.41,916.196 1645.34,915.78 1644,915.78 C1641.97,915.78 1640.11,916.894 1638.41,919.123 L1637.6,918.873 C1638.43,917.248 1639.57,915.959 1641.03,915.006 C1642.48,914.053 1644.07,913.577 1645.8,913.577 C1647.8,913.577 1649.47,914.186 1650.8,915.405 C1652.13,916.623 1652.8,918.165 1652.8,920.03 C1652.8,921.728 1652.26,923.095 1651.18,924.131 C1650.09,925.168 1648.04,926.269 1645,927.436 L1645,927.577 C1648.2,929.045 1649.8,931.53 1649.8,935.03 C1649.8,938.498 1648.52,941.498 1645.95,944.03 C1643.38,946.561 1640.01,947.827 1635.85,947.827 C1632.12,947.827 1630.25,946.847 1630.25,944.889 C1630.25,943.587 1630.99,942.936 1632.46,942.936 C1633.29,942.936 1634.41,943.436 1635.81,944.436 C1637.21,945.436 1638.36,945.936 1639.25,945.936 C1641.06,945.936 1642.6,945.178 1643.88,943.663 C1645.16,942.147 1645.8,940.17 1645.8,937.733 C1645.8,934.597 1645.02,932.431 1643.45,931.233 C1641.88,930.035 1639.57,929.436 1636.5,929.436 L1636.5,928.639 "/>
<polyline class="Tuplet" fill="none" stroke="#000000" stroke-width="2.50" stroke-linejoin="miter" stroke-miterlimit="2" points="1513.19,906.483 1513.19,931.483 1617,931.483"/>
<polyline class="Tuplet" fill="none" stroke="#000000" stroke-width="2.50" stroke-linejoin="miter" stroke-miterlimit="2" points="1666,931.483 1769.82,931.483 1769.82,906.483"/>
<path class="Tuplet" d="M2327.93,738.569 C2335.9,737.267 2339.89,734.496 2339.89,730.256 C2339.89,728.892 2339.48,727.793 2338.66,726.96 C2337.84,726.126 2336.77,725.71 2335.43,725.71 C2333.4,725.71 2331.54,726.824 2329.84,729.053 L2329.03,728.803 C2329.86,727.178 2331,725.889 2332.46,724.936 C2333.91,723.983 2335.5,723.506 2337.23,723.506 C2339.23,723.506 2340.9,724.116 2342.23,725.335 C2343.56,726.553 2344.23,728.095 2344.23,729.96 C2344.23,731.658 2343.69,733.025 2342.61,734.061 C2341.52,735.098 2339.47,736.199 2336.43,737.366 L2336.43,737.506 C2339.63,738.975 2341.23,741.46 2341.23,744.96 C2341.23,748.428 2339.95,751.428 2337.38,753.96 C2334.81,756.491 2331.44,757.756 2327.28,757.756 C2323.55,757.756 2321.68,756.777 2321.68,754.819 C2321.68,753.517 2322.42,752.866 2323.89,752.866 C2324.72,752.866 2325.84,753.366 2327.24,754.366 C2328.64,755.366 2329.79,755.866 2330.68,755.866 C2332.49,755.866 2334.03,755.108 2335.31,753.592 C2336.59,752.077 2337.23,750.1 2337.23,747.663 C2337.23,744.527 2336.45,742.361 2334.88,741.163 C2333.31,739.965 2331,739.366 2327.93,739.366 L2327.93,738.569 "/>
<polyline class="Tuplet" fill="none" stroke="#000000" stroke-width="2.50" stroke-linejoin="miter" stroke-miterlimit="2" points="2210.87,760.163 2210.87,735.163 2308.43,740.158"/>
<polyline class="Tuplet" fill="none" stroke="#000000" stroke-width="2.50" stroke-linejoin="miter" stroke-miterlimit="2" points="2357.43,742.667 2455,747.663 2455,772.663"/>
<path class="Tuplet" d="M2196.34,463.889 C2204.31,462.587 2208.3,459.816 2208.3,455.576 C2208.3,454.212 2207.89,453.113 2207.07,452.279 C2206.25,451.446 2205.18,451.029 2203.84,451.029 C2201.81,451.029 2199.95,452.144 2198.25,454.373 L2197.44,454.123 C2198.27,452.498 2199.42,451.209 2200.87,450.256 C2202.32,449.303 2203.91,448.826 2205.64,448.826 C2207.64,448.826 2209.31,449.436 2210.64,450.654 C2211.97,451.873 2212.64,453.415 2212.64,455.279 C2212.64,456.977 2212.1,458.345 2211.02,459.381 C2209.93,460.417 2207.88,461.519 2204.84,462.686 L2204.84,462.826 C2208.04,464.295 2209.64,466.779 2209.64,470.279 C2209.64,473.748 2208.36,476.748 2205.79,479.279 C2203.22,481.811 2199.86,483.076 2195.69,483.076 C2191.96,483.076 2190.09,482.097 2190.09,480.139 C2190.09,478.837 2190.83,478.186 2192.3,478.186 C2193.13,478.186 2194.25,478.686 2195.65,479.686 C2197.05,480.686 2198.2,481.186 2199.09,481.186 C2200.9,481.186 2202.44,480.428 2203.72,478.912 C2205,477.397 2205.64,475.42 2205.64,472.983 C2205.64,469.847 2204.86,467.68 2203.29,466.483 C2201.72,465.285 2199.41,464.686 2196.34,464.686 L2196.34,463.889 "/>
<polyline class="Tuplet" fill="none" stroke="#000000" stroke-width="2.50" stroke-linejoin="miter" stroke-miterlimit="2" points="2049.18,441.733 2049.18,466.733 2176.84,466.733"/>
<polyline class="Tuplet" fill="none" stroke="#000000" stroke-width="2.50" stroke-linejoin="miter" stroke-miterlimit="2" points="2225.84,466.733 2353.51,466.733 2353.51,441.733"/>
<path class="Page" d="M141.953,3976.75 C142.089,3976.14 142.224,3975.61 142.359,3975.15 C142.495,3974.7 142.781,3974.04 143.219,3973.18 C143.656,3972.31 144.148,3971.59 144.695,3971.02 C145.242,3970.45 146.003,3969.93 146.977,3969.48 C147.951,3969.03 149.052,3968.8 150.281,3968.8 C152.354,3968.8 154.104,3969.48 155.531,3970.84 C156.958,3972.2 157.672,3973.87 157.672,3975.86 C157.672,3978.9 155.969,3982.21 152.563,3985.8 L145.844,3992.88 L155.391,3992.88 C156.297,3992.88 156.971,3992.73 157.414,3992.42 C157.857,3992.11 158.453,3991.38 159.203,3990.22 L159.719,3990.43 L157.516,3995.8 L141.922,3995.8 L141.922,3995.33 L149.031,3987.79 C152.5,3984.11 154.234,3980.65 154.234,3977.4 C154.234,3975.71 153.714,3974.34 152.672,3973.29 C151.63,3972.25 150.271,3971.72 148.594,3971.72 C147.208,3971.72 146.096,3972.11 145.258,3972.87 C144.419,3973.64 143.599,3975 142.797,3976.96 L141.953,3976.75 "/>
</svg>
