<?xml version="1.0" encoding="UTF-8" standalone="no"?>
<svg width="2977.2px" height="4208.4px" viewBox="0 0 2977.2 4208.4"
 xmlns="http://www.w3.org/2000/svg" xmlns:xlink="http://www.w3.org/1999/xlink" version="1.2" baseProfile="tiny">
<title>Eb_Blues.mscx</title>
<desc>Generated by MuseScore Studio 4.3.1</desc>
<path class="" fill="#ffffff" fill-rule="evenodd" d="M0,0 L2977.2,0 L2977.2,4208.4 L0,4208.4 L0,0 "/>
<polyline class="StaffLines" fill="none" stroke="#000000" stroke-width="2.00" stroke-linejoin="bevel" points="141.732,566.733 2835.47,566.733"/>
<polyline class="StaffLines" fill="none" stroke="#000000" stroke-width="2.00" stroke-linejoin="bevel" points="141.732,591.733 2835.47,591.733"/>
<polyline class="StaffLines" fill="none" stroke="#000000" stroke-width="2.00" stroke-linejoin="bevel" points="141.732,616.733 2835.47,616.733"/>
<polyline class="StaffLines" fill="none" stroke="#000000" stroke-width="2.00" stroke-linejoin="bevel" points="141.732,641.733 2835.47,641.733"/>
<polyline class="StaffLines" fill="none" stroke="#000000" stroke-width="2.00" stroke-linejoin="bevel" points="141.732,666.733 2835.47,666.733"/>
<polyline class="BarLine" fill="none" stroke="#000000" stroke-width="4.00" stroke-linejoin="bevel" points="1249.69,565.733 1249.69,667.733"/>
<polyline class="BarLine" fill="none" stroke="#000000" stroke-width="4.00" stroke-linejoin="bevel" points="2492.11,565.733 2492.11,667.733"/>
<polyline class="BarLine" fill="none" stroke="#000000" stroke-width="4.00" stroke-linejoin="bevel" points="939.084,565.733 939.084,667.733"/>
<polyline class="BarLine" fill="none" stroke="#000000" stroke-width="4.00" stroke-linejoin="bevel" points="2802.72,565.733 2802.72,667.733"/>
<polyline class="BarLine" fill="none" stroke="#000000" stroke-width="12.50" stroke-linejoin="bevel" points="2829.22,565.733 2829.22,667.733"/>
<polyline class="BarLine" fill="none" stroke="#000000" stroke-width="4.00" stroke-linejoin="bevel" points="2181.51,565.733 2181.51,667.733"/>
<polyline class="BarLine" fill="none" stroke="#000000" stroke-width="4.00" stroke-linejoin="bevel" points="1560.3,565.733 1560.3,667.733"/>
<polyline class="BarLine" fill="none" stroke="#000000" stroke-width="4.00" stroke-linejoin="bevel" points="1870.9,565.733 1870.9,667.733"/>
<polyline class="BarLine" fill="none" stroke="#000000" stroke-width="4.00" stroke-linejoin="bevel" points="628.479,565.733 628.479,667.733"/>
<path class="Accidental" d="M1706.28,609.311 L1705.01,547.201 C1705.01,546.222 1705.78,545.733 1707.31,545.733 C1708.84,545.733 1709.61,546.222 1709.61,547.201 L1708.83,581.092 C1710.59,579.332 1712.1,578.11 1713.37,577.428 C1714.63,576.746 1716.36,576.405 1718.54,576.405 C1720.72,576.405 1722.74,577.412 1724.59,579.428 C1726.45,581.444 1727.37,583.951 1727.37,586.951 C1727.37,591.441 1722.66,597.66 1713.22,605.608 C1709.71,608.795 1707.88,610.389 1707.75,610.389 L1707.17,610.389 C1706.58,610.389 1706.28,610.03 1706.28,609.311 M1708.73,584.217 L1708.44,606.389 C1710.46,604.493 1712.51,601.347 1714.59,596.951 C1716.68,592.556 1717.72,588.795 1717.72,585.67 C1717.72,584.108 1717.46,582.675 1716.94,581.373 C1716.42,580.071 1715.6,579.42 1714.49,579.42 C1713.38,579.42 1712.39,579.811 1711.51,580.592 C1710.63,581.373 1709.7,582.582 1708.73,584.217"/>
<path class="Accidental" d="M1571.19,596.811 L1569.92,534.701 C1569.92,533.722 1570.69,533.233 1572.22,533.233 C1573.75,533.233 1574.51,533.722 1574.51,534.701 L1573.73,568.592 C1575.49,566.832 1577.01,565.61 1578.27,564.928 C1579.54,564.246 1581.26,563.905 1583.44,563.905 C1585.63,563.905 1587.64,564.912 1589.5,566.928 C1591.35,568.944 1592.28,571.451 1592.28,574.451 C1592.28,578.941 1587.56,585.16 1578.12,593.108 C1574.61,596.295 1572.79,597.889 1572.66,597.889 L1572.08,597.889 C1571.48,597.889 1571.19,597.53 1571.19,596.811 M1573.64,571.717 L1573.34,593.889 C1575.36,591.993 1577.42,588.847 1579.5,584.451 C1581.58,580.056 1582.62,576.295 1582.62,573.17 C1582.62,571.608 1582.36,570.175 1581.84,568.873 C1581.32,567.571 1580.51,566.92 1579.4,566.92 C1578.29,566.92 1577.29,567.311 1576.41,568.092 C1575.53,568.873 1574.61,570.082 1573.64,571.717"/>
<path class="Accidental" d="M1881.79,634.311 L1880.53,572.201 C1880.53,571.222 1881.29,570.733 1882.82,570.733 C1884.35,570.733 1885.12,571.222 1885.12,572.201 L1884.34,606.092 C1886.1,604.332 1887.61,603.11 1888.88,602.428 C1890.14,601.746 1891.87,601.405 1894.05,601.405 C1896.23,601.405 1898.25,602.412 1900.1,604.428 C1901.96,606.444 1902.89,608.951 1902.89,611.951 C1902.89,616.441 1898.17,622.66 1888.73,630.608 C1885.22,633.795 1883.4,635.389 1883.26,635.389 L1882.68,635.389 C1882.09,635.389 1881.79,635.03 1881.79,634.311 M1884.25,609.217 L1883.95,631.389 C1885.97,629.493 1888.02,626.347 1890.1,621.951 C1892.19,617.556 1893.23,613.795 1893.23,610.67 C1893.23,609.108 1892.97,607.675 1892.45,606.373 C1891.93,605.071 1891.11,604.42 1890,604.42 C1888.89,604.42 1887.9,604.811 1887.02,605.592 C1886.14,606.373 1885.21,607.582 1884.25,609.217"/>
<path class="Accidental" d="M1260.58,596.811 L1259.32,534.701 C1259.32,533.722 1260.08,533.233 1261.61,533.233 C1263.14,533.233 1263.91,533.722 1263.91,534.701 L1263.13,568.592 C1264.89,566.832 1266.4,565.61 1267.67,564.928 C1268.93,564.246 1270.66,563.905 1272.84,563.905 C1275.02,563.905 1277.04,564.912 1278.89,566.928 C1280.75,568.944 1281.67,571.451 1281.67,574.451 C1281.67,578.941 1276.96,585.16 1267.52,593.108 C1264.01,596.295 1262.18,597.889 1262.05,597.889 L1261.47,597.889 C1260.88,597.889 1260.58,597.53 1260.58,596.811 M1263.03,571.717 L1262.74,593.889 C1264.76,591.993 1266.81,588.847 1268.89,584.451 C1270.98,580.056 1272.02,576.295 1272.02,573.17 C1272.02,571.608 1271.76,570.175 1271.24,568.873 C1270.72,567.571 1269.9,566.92 1268.79,566.92 C1267.68,566.92 1266.69,567.311 1265.81,568.092 C1264.93,568.873 1264,570.082 1263.03,571.717"/>
<path class="Accidental" d="M2192.4,646.811 L2191.13,584.701 C2191.13,583.722 2191.9,583.233 2193.43,583.233 C2194.96,583.233 2195.73,583.722 2195.73,584.701 L2194.94,618.592 C2196.7,616.832 2198.22,615.61 2199.48,614.928 C2200.75,614.246 2202.47,613.905 2204.66,613.905 C2206.84,613.905 2208.86,614.912 2210.71,616.928 C2212.56,618.944 2213.49,621.451 2213.49,624.451 C2213.49,628.941 2208.77,635.16 2199.34,643.108 C2195.82,646.295 2194,647.889 2193.87,647.889 L2193.29,647.889 C2192.69,647.889 2192.4,647.53 2192.4,646.811 M2194.85,621.717 L2194.55,643.889 C2196.57,641.993 2198.63,638.847 2200.71,634.451 C2202.79,630.056 2203.84,626.295 2203.84,623.17 C2203.84,621.608 2203.57,620.175 2203.05,618.873 C2202.53,617.571 2201.72,616.92 2200.61,616.92 C2199.5,616.92 2198.5,617.311 2197.62,618.092 C2196.74,618.873 2195.82,620.082 2194.85,621.717"/>
<path class="Accidental" d="M2327.49,659.311 L2326.23,597.201 C2326.23,596.222 2326.99,595.733 2328.52,595.733 C2330.05,595.733 2330.82,596.222 2330.82,597.201 L2330.04,631.092 C2331.8,629.332 2333.31,628.11 2334.58,627.428 C2335.84,626.746 2337.57,626.405 2339.75,626.405 C2341.93,626.405 2343.95,627.412 2345.8,629.428 C2347.66,631.444 2348.59,633.951 2348.59,636.951 C2348.59,641.441 2343.87,647.66 2334.43,655.608 C2330.92,658.795 2329.1,660.389 2328.96,660.389 L2328.38,660.389 C2327.79,660.389 2327.49,660.03 2327.49,659.311 M2329.94,634.217 L2329.65,656.389 C2331.67,654.493 2333.72,651.347 2335.8,646.951 C2337.89,642.556 2338.93,638.795 2338.93,635.67 C2338.93,634.108 2338.67,632.675 2338.15,631.373 C2337.63,630.071 2336.81,629.42 2335.7,629.42 C2334.59,629.42 2333.6,629.811 2332.72,630.592 C2331.84,631.373 2330.91,632.582 2329.94,634.217"/>
<path class="Accidental" d="M2503,684.311 L2501.74,622.201 C2501.74,621.222 2502.5,620.733 2504.03,620.733 C2505.57,620.733 2506.33,621.222 2506.33,622.201 L2505.55,656.092 C2507.31,654.332 2508.82,653.11 2510.09,652.428 C2511.35,651.746 2513.08,651.405 2515.26,651.405 C2517.44,651.405 2519.46,652.412 2521.32,654.428 C2523.17,656.444 2524.1,658.951 2524.1,661.951 C2524.1,666.441 2519.38,672.66 2509.94,680.608 C2506.43,683.795 2504.61,685.389 2504.47,685.389 L2503.89,685.389 C2503.3,685.389 2503,685.03 2503,684.311 M2505.46,659.217 L2505.16,681.389 C2507.18,679.493 2509.23,676.347 2511.32,671.951 C2513.4,667.556 2514.44,663.795 2514.44,660.67 C2514.44,659.108 2514.18,657.675 2513.66,656.373 C2513.14,655.071 2512.32,654.42 2511.21,654.42 C2510.1,654.42 2509.11,654.811 2508.23,655.592 C2507.35,656.373 2506.43,657.582 2505.46,659.217"/>
<path class="Accidental" d="M1085.07,609.311 L1083.8,547.201 C1083.8,546.222 1084.57,545.733 1086.1,545.733 C1087.63,545.733 1088.4,546.222 1088.4,547.201 L1087.62,581.092 C1089.38,579.332 1090.89,578.11 1092.15,577.428 C1093.42,576.746 1095.14,576.405 1097.33,576.405 C1099.51,576.405 1101.53,577.412 1103.38,579.428 C1105.24,581.444 1106.16,583.951 1106.16,586.951 C1106.16,591.441 1101.44,597.66 1092.01,605.608 C1088.5,608.795 1086.67,610.389 1086.54,610.389 L1085.96,610.389 C1085.37,610.389 1085.07,610.03 1085.07,609.311 M1087.52,584.217 L1087.23,606.389 C1089.25,604.493 1091.3,601.347 1093.38,596.951 C1095.46,592.556 1096.51,588.795 1096.51,585.67 C1096.51,584.108 1096.25,582.675 1095.73,581.373 C1095.2,580.071 1094.39,579.42 1093.28,579.42 C1092.17,579.42 1091.18,579.811 1090.3,580.592 C1089.42,581.373 1088.49,582.582 1087.52,584.217"/>
<path class="Accidental" d="M328.764,684.311 L327.498,622.201 C327.498,621.222 328.264,620.733 329.795,620.733 C331.326,620.733 332.092,621.222 332.092,622.201 L331.311,656.092 C333.071,654.332 334.584,653.11 335.85,652.428 C337.115,651.746 338.839,651.405 341.022,651.405 C343.204,651.405 345.222,652.412 347.076,654.428 C348.93,656.444 349.857,658.951 349.857,661.951 C349.857,666.441 345.139,672.66 335.701,680.608 C332.191,683.795 330.368,685.389 330.232,685.389 L329.654,685.389 C329.061,685.389 328.764,685.03 328.764,684.311 M331.217,659.217 L330.92,681.389 C332.941,679.493 334.993,676.347 337.076,671.951 C339.16,667.556 340.201,663.795 340.201,660.67 C340.201,659.108 339.941,657.675 339.42,656.373 C338.899,655.071 338.084,654.42 336.975,654.42 C335.865,654.42 334.87,654.811 333.99,655.592 C333.11,656.373 332.186,657.582 331.217,659.217"/>
<path class="Accidental" d="M949.975,634.311 L948.709,572.201 C948.709,571.222 949.475,570.733 951.006,570.733 C952.538,570.733 953.303,571.222 953.303,572.201 L952.522,606.092 C954.282,604.332 955.795,603.11 957.061,602.428 C958.327,601.746 960.051,601.405 962.233,601.405 C964.415,601.405 966.433,602.412 968.288,604.428 C970.142,606.444 971.069,608.951 971.069,611.951 C971.069,616.441 966.35,622.66 956.913,630.608 C953.402,633.795 951.579,635.389 951.444,635.389 L950.866,635.389 C950.272,635.389 949.975,635.03 949.975,634.311 M952.428,609.217 L952.131,631.389 C954.152,629.493 956.204,626.347 958.288,621.951 C960.371,617.556 961.413,613.795 961.413,610.67 C961.413,609.108 961.152,607.675 960.631,606.373 C960.11,605.071 959.295,604.42 958.186,604.42 C957.077,604.42 956.082,604.811 955.202,605.592 C954.321,606.373 953.397,607.582 952.428,609.217"/>
<path class="Accidental" d="M780.854,649.545 C779.677,649.868 779.088,649.415 779.088,648.186 L779.088,593.483 C779.088,592.118 779.609,591.436 780.651,591.436 C781.692,591.436 782.213,592.118 782.213,593.483 L782.213,613.311 L793.744,608.92 C794.911,608.597 795.494,609.05 795.494,610.28 L795.494,664.983 C795.494,666.347 794.974,667.03 793.932,667.03 C792.89,667.03 792.369,666.347 792.369,664.983 L792.369,645.155 L780.854,649.545 M782.213,638.311 L792.369,634.405 L792.369,620.155 L782.213,624.061 L782.213,638.311 "/>
<path class="Accidental" d="M463.858,659.311 L462.592,597.201 C462.592,596.222 463.358,595.733 464.889,595.733 C466.42,595.733 467.186,596.222 467.186,597.201 L466.404,631.092 C468.165,629.332 469.678,628.11 470.943,627.428 C472.209,626.746 473.933,626.405 476.115,626.405 C478.298,626.405 480.316,627.412 482.17,629.428 C484.024,631.444 484.951,633.951 484.951,636.951 C484.951,641.441 480.233,647.66 470.795,655.608 C467.285,658.795 465.462,660.389 465.326,660.389 L464.748,660.389 C464.154,660.389 463.858,660.03 463.858,659.311 M466.311,634.217 L466.014,656.389 C468.035,654.493 470.087,651.347 472.17,646.951 C474.253,642.556 475.295,638.795 475.295,635.67 C475.295,634.108 475.035,632.675 474.514,631.373 C473.993,630.071 473.178,629.42 472.068,629.42 C470.959,629.42 469.964,629.811 469.084,630.592 C468.204,631.373 467.279,632.582 466.311,634.217"/>
<path class="Accidental" d="M639.369,646.811 L638.104,584.701 C638.104,583.722 638.869,583.233 640.401,583.233 C641.932,583.233 642.698,583.722 642.698,584.701 L641.916,618.592 C643.677,616.832 645.19,615.61 646.455,614.928 C647.721,614.246 649.445,613.905 651.627,613.905 C653.809,613.905 655.828,614.912 657.682,616.928 C659.536,618.944 660.463,621.451 660.463,624.451 C660.463,628.941 655.744,635.16 646.307,643.108 C642.796,646.295 640.974,647.889 640.838,647.889 L640.26,647.889 C639.666,647.889 639.369,647.53 639.369,646.811 M641.823,621.717 L641.526,643.889 C643.546,641.993 645.599,638.847 647.682,634.451 C649.765,630.056 650.807,626.295 650.807,623.17 C650.807,621.608 650.546,620.175 650.026,618.873 C649.505,617.571 648.69,616.92 647.58,616.92 C646.471,616.92 645.476,617.311 644.596,618.092 C643.716,618.873 642.791,620.082 641.823,621.717"/>
<polyline class="Stem" fill="none" stroke="#000000" stroke-width="3.25" stroke-linejoin="bevel" points="2387.21,636.933 2387.21,554.233"/>
<polyline class="Stem" fill="none" stroke="#000000" stroke-width="3.25" stroke-linejoin="bevel" points="2076.6,624.433 2076.6,547.983"/>
<polyline class="Stem" fill="none" stroke="#000000" stroke-width="3.25" stroke-linejoin="bevel" points="523.576,636.933 523.576,554.233"/>
<polyline class="Stem" fill="none" stroke="#000000" stroke-width="3.25" stroke-linejoin="bevel" points="1910.04,621.633 1910.04,691.733"/>
<polyline class="Stem" fill="none" stroke="#000000" stroke-width="3.25" stroke-linejoin="bevel" points="2252.12,624.433 2252.12,547.983"/>
<polyline class="Stem" fill="none" stroke="#000000" stroke-width="3.25" stroke-linejoin="bevel" points="699.088,624.433 699.088,547.983"/>
<polyline class="Stem" fill="none" stroke="#000000" stroke-width="3.25" stroke-linejoin="bevel" points="1734.53,596.633 1734.53,679.233"/>
<polyline class="Stem" fill="none" stroke="#000000" stroke-width="3.25" stroke-linejoin="bevel" points="388.483,661.933 388.483,579.233"/>
<polyline class="Stem" fill="none" stroke="#000000" stroke-width="3.25" stroke-linejoin="bevel" points="1599.44,584.133 1599.44,666.733"/>
<polyline class="Stem" fill="none" stroke="#000000" stroke-width="3.25" stroke-linejoin="bevel" points="834.182,624.433 834.182,547.983"/>
<polyline class="Stem" fill="none" stroke="#000000" stroke-width="3.25" stroke-linejoin="bevel" points="2562.72,661.933 2562.72,579.233"/>
<polyline class="Stem" fill="none" stroke="#000000" stroke-width="3.25" stroke-linejoin="bevel" points="1288.83,584.133 1288.83,666.733"/>
<polyline class="Stem" fill="none" stroke="#000000" stroke-width="3.25" stroke-linejoin="bevel" points="978.225,621.633 978.225,691.733"/>
<polyline class="Stem" fill="none" stroke="#000000" stroke-width="3.25" stroke-linejoin="bevel" points="1113.32,596.633 1113.32,679.233"/>
<path class="Note" d="M1119.12,602.373 C1121,602.373 1124.96,600.42 1130.98,596.514 C1137.01,592.608 1140.56,589.988 1141.63,588.655 C1142.7,587.321 1143.24,586.134 1143.24,585.092 C1143.24,584.05 1142.82,583.123 1141.97,582.311 C1141.12,581.498 1140.14,581.092 1139.04,581.092 C1137.09,581.092 1133.1,583.061 1127.08,586.998 C1121.05,590.936 1117.52,593.556 1116.48,594.858 C1115.43,596.16 1114.91,597.332 1114.91,598.373 C1114.91,599.415 1115.32,600.342 1116.14,601.155 C1116.96,601.967 1117.95,602.373 1119.12,602.373 M1138.07,577.967 C1143.66,577.967 1146.46,580.373 1146.46,585.186 C1146.46,587.53 1145.78,590.248 1144.41,593.342 C1143.05,596.436 1141.23,598.795 1138.94,600.42 C1133.93,603.806 1127.65,605.498 1120.1,605.498 C1114.5,605.498 1111.69,603.092 1111.69,598.28 C1111.69,596.134 1112.36,593.464 1113.69,590.272 C1115.03,587.079 1116.87,584.67 1119.21,583.045 C1124.23,579.66 1130.52,577.967 1138.07,577.967"/>
<path class="Note" d="M2226.44,639.873 C2228.33,639.873 2232.29,637.92 2238.31,634.014 C2244.34,630.108 2247.89,627.488 2248.96,626.155 C2250.03,624.821 2250.57,623.634 2250.57,622.592 C2250.57,621.55 2250.15,620.623 2249.3,619.811 C2248.45,618.998 2247.47,618.592 2246.37,618.592 C2244.42,618.592 2240.43,620.561 2234.41,624.498 C2228.38,628.436 2224.85,631.056 2223.8,632.358 C2222.76,633.66 2222.24,634.832 2222.24,635.873 C2222.24,636.915 2222.65,637.842 2223.47,638.655 C2224.29,639.467 2225.28,639.873 2226.44,639.873 M2245.4,615.467 C2250.99,615.467 2253.79,617.873 2253.79,622.686 C2253.79,625.03 2253.11,627.748 2251.74,630.842 C2250.38,633.936 2248.55,636.295 2246.27,637.92 C2241.26,641.306 2234.98,642.998 2227.43,642.998 C2221.82,642.998 2219.02,640.592 2219.02,635.78 C2219.02,633.634 2219.69,630.964 2221.02,627.772 C2222.36,624.579 2224.19,622.17 2226.54,620.545 C2231.56,617.16 2237.85,615.467 2245.4,615.467"/>
<path class="Note" d="M2361.54,652.373 C2363.42,652.373 2367.38,650.42 2373.41,646.514 C2379.43,642.608 2382.98,639.988 2384.05,638.655 C2385.13,637.321 2385.66,636.134 2385.66,635.092 C2385.66,634.05 2385.24,633.123 2384.39,632.311 C2383.54,631.498 2382.56,631.092 2381.46,631.092 C2379.51,631.092 2375.53,633.061 2369.5,636.998 C2363.47,640.936 2359.94,643.556 2358.9,644.858 C2357.86,646.16 2357.34,647.332 2357.34,648.373 C2357.34,649.415 2357.74,650.342 2358.56,651.155 C2359.38,651.967 2360.37,652.373 2361.54,652.373 M2380.49,627.967 C2386.09,627.967 2388.88,630.373 2388.88,635.186 C2388.88,637.53 2388.2,640.248 2386.84,643.342 C2385.47,646.436 2383.65,648.795 2381.37,650.42 C2376.36,653.806 2370.07,655.498 2362.52,655.498 C2356.92,655.498 2354.12,653.092 2354.12,648.28 C2354.12,646.134 2354.78,643.464 2356.12,640.272 C2357.45,637.079 2359.29,634.67 2361.63,633.045 C2366.65,629.66 2372.94,627.967 2380.49,627.967"/>
<path class="Note" d="M362.811,677.373 C364.696,677.373 368.652,675.42 374.678,671.514 C380.704,667.608 384.253,664.988 385.326,663.655 C386.399,662.321 386.936,661.134 386.936,660.092 C386.936,659.05 386.511,658.123 385.662,657.311 C384.813,656.498 383.837,656.092 382.732,656.092 C380.785,656.092 376.798,658.061 370.772,661.998 C364.746,665.936 361.212,668.556 360.17,669.858 C359.128,671.16 358.607,672.332 358.607,673.373 C358.607,674.415 359.016,675.342 359.834,676.155 C360.652,676.967 361.644,677.373 362.811,677.373 M381.764,652.967 C387.357,652.967 390.154,655.373 390.154,660.186 C390.154,662.53 389.472,665.248 388.107,668.342 C386.743,671.436 384.92,673.795 382.639,675.42 C377.628,678.806 371.347,680.498 363.795,680.498 C358.191,680.498 355.389,678.092 355.389,673.28 C355.389,671.134 356.055,668.464 357.389,665.272 C358.722,662.079 360.561,659.67 362.904,658.045 C367.925,654.66 374.212,652.967 381.764,652.967"/>
<path class="Note" d="M2537.05,677.373 C2538.94,677.373 2542.89,675.42 2548.92,671.514 C2554.94,667.608 2558.49,664.988 2559.57,663.655 C2560.64,662.321 2561.18,661.134 2561.18,660.092 C2561.18,659.05 2560.75,658.123 2559.9,657.311 C2559.05,656.498 2558.08,656.092 2556.97,656.092 C2555.02,656.092 2551.04,658.061 2545.01,661.998 C2538.99,665.936 2535.45,668.556 2534.41,669.858 C2533.37,671.16 2532.85,672.332 2532.85,673.373 C2532.85,674.415 2533.26,675.342 2534.07,676.155 C2534.89,676.967 2535.88,677.373 2537.05,677.373 M2556,652.967 C2561.6,652.967 2564.39,655.373 2564.39,660.186 C2564.39,662.53 2563.71,665.248 2562.35,668.342 C2560.98,671.436 2559.16,673.795 2556.88,675.42 C2551.87,678.806 2545.59,680.498 2538.03,680.498 C2532.43,680.498 2529.63,678.092 2529.63,673.28 C2529.63,671.134 2530.29,668.464 2531.63,665.272 C2532.96,662.079 2534.8,659.67 2537.14,658.045 C2542.16,654.66 2548.45,652.967 2556,652.967"/>
<path class="Note" d="M2050.93,639.873 C2052.82,639.873 2056.77,637.92 2062.8,634.014 C2068.83,630.108 2072.38,627.488 2073.45,626.155 C2074.52,624.821 2075.06,623.634 2075.06,622.592 C2075.06,621.55 2074.63,620.623 2073.78,619.811 C2072.94,618.998 2071.96,618.592 2070.85,618.592 C2068.91,618.592 2064.92,620.561 2058.89,624.498 C2052.87,628.436 2049.33,631.056 2048.29,632.358 C2047.25,633.66 2046.73,634.832 2046.73,635.873 C2046.73,636.915 2047.14,637.842 2047.96,638.655 C2048.77,639.467 2049.77,639.873 2050.93,639.873 M2069.89,615.467 C2075.48,615.467 2078.28,617.873 2078.28,622.686 C2078.28,625.03 2077.59,627.748 2076.23,630.842 C2074.87,633.936 2073.04,636.295 2070.76,637.92 C2065.75,641.306 2059.47,642.998 2051.92,642.998 C2046.31,642.998 2043.51,640.592 2043.51,635.78 C2043.51,633.634 2044.18,630.964 2045.51,627.772 C2046.84,624.579 2048.68,622.17 2051.03,620.545 C2056.05,617.16 2062.33,615.467 2069.89,615.467"/>
<path class="Note" d="M1915.84,627.373 C1917.72,627.373 1921.68,625.42 1927.71,621.514 C1933.73,617.608 1937.28,614.988 1938.35,613.655 C1939.43,612.321 1939.96,611.134 1939.96,610.092 C1939.96,609.05 1939.54,608.123 1938.69,607.311 C1937.84,606.498 1936.86,606.092 1935.76,606.092 C1933.81,606.092 1929.83,608.061 1923.8,611.998 C1917.77,615.936 1914.24,618.556 1913.2,619.858 C1912.16,621.16 1911.64,622.332 1911.64,623.373 C1911.64,624.415 1912.04,625.342 1912.86,626.155 C1913.68,626.967 1914.67,627.373 1915.84,627.373 M1934.79,602.967 C1940.39,602.967 1943.18,605.373 1943.18,610.186 C1943.18,612.53 1942.5,615.248 1941.14,618.342 C1939.77,621.436 1937.95,623.795 1935.67,625.42 C1930.66,628.806 1924.38,630.498 1916.82,630.498 C1911.22,630.498 1908.42,628.092 1908.42,623.28 C1908.42,621.134 1909.08,618.464 1910.42,615.272 C1911.75,612.079 1913.59,609.67 1915.93,608.045 C1920.95,604.66 1927.24,602.967 1934.79,602.967"/>
<path class="Note" d="M497.904,652.373 C499.79,652.373 503.746,650.42 509.772,646.514 C515.798,642.608 519.347,639.988 520.42,638.655 C521.493,637.321 522.029,636.134 522.029,635.092 C522.029,634.05 521.605,633.123 520.756,632.311 C519.907,631.498 518.93,631.092 517.826,631.092 C515.878,631.092 511.891,633.061 505.865,636.998 C499.839,640.936 496.305,643.556 495.264,644.858 C494.222,646.16 493.701,647.332 493.701,648.373 C493.701,649.415 494.11,650.342 494.928,651.155 C495.746,651.967 496.738,652.373 497.904,652.373 M516.858,627.967 C522.451,627.967 525.248,630.373 525.248,635.186 C525.248,637.53 524.566,640.248 523.201,643.342 C521.837,646.436 520.014,648.795 517.733,650.42 C512.722,653.806 506.441,655.498 498.889,655.498 C493.285,655.498 490.483,653.092 490.483,648.28 C490.483,646.134 491.149,643.464 492.483,640.272 C493.816,637.079 495.654,634.67 497.998,633.045 C503.019,629.66 509.305,627.967 516.858,627.967"/>
<path class="Note" d="M1740.33,602.373 C1742.21,602.373 1746.17,600.42 1752.19,596.514 C1758.22,592.608 1761.77,589.988 1762.84,588.655 C1763.92,587.321 1764.45,586.134 1764.45,585.092 C1764.45,584.05 1764.03,583.123 1763.18,582.311 C1762.33,581.498 1761.35,581.092 1760.25,581.092 C1758.3,581.092 1754.31,583.061 1748.29,586.998 C1742.26,590.936 1738.73,593.556 1737.69,594.858 C1736.64,596.16 1736.12,597.332 1736.12,598.373 C1736.12,599.415 1736.53,600.342 1737.35,601.155 C1738.17,601.967 1739.16,602.373 1740.33,602.373 M1759.28,577.967 C1764.87,577.967 1767.67,580.373 1767.67,585.186 C1767.67,587.53 1766.99,590.248 1765.62,593.342 C1764.26,596.436 1762.44,598.795 1760.16,600.42 C1755.14,603.806 1748.86,605.498 1741.31,605.498 C1735.71,605.498 1732.91,603.092 1732.91,598.28 C1732.91,596.134 1733.57,593.464 1734.91,590.272 C1736.24,587.079 1738.08,584.67 1740.42,583.045 C1745.44,579.66 1751.73,577.967 1759.28,577.967"/>
<path class="Note" d="M673.416,639.873 C675.302,639.873 679.257,637.92 685.283,634.014 C691.31,630.108 694.859,627.488 695.932,626.155 C697.005,624.821 697.541,623.634 697.541,622.592 C697.541,621.55 697.117,620.623 696.268,619.811 C695.419,618.998 694.442,618.592 693.338,618.592 C691.39,618.592 687.403,620.561 681.377,624.498 C675.351,628.436 671.817,631.056 670.776,632.358 C669.734,633.66 669.213,634.832 669.213,635.873 C669.213,636.915 669.622,637.842 670.44,638.655 C671.257,639.467 672.25,639.873 673.416,639.873 M692.369,615.467 C697.963,615.467 700.76,617.873 700.76,622.686 C700.76,625.03 700.078,627.748 698.713,630.842 C697.349,633.936 695.526,636.295 693.244,637.92 C688.234,641.306 681.953,642.998 674.401,642.998 C668.796,642.998 665.994,640.592 665.994,635.78 C665.994,633.634 666.661,630.964 667.994,627.772 C669.328,624.579 671.166,622.17 673.51,620.545 C678.531,617.16 684.817,615.467 692.369,615.467"/>
<path class="Note" d="M1605.23,589.873 C1607.12,589.873 1611.07,587.92 1617.1,584.014 C1623.13,580.108 1626.68,577.488 1627.75,576.155 C1628.82,574.821 1629.36,573.634 1629.36,572.592 C1629.36,571.55 1628.93,570.623 1628.08,569.811 C1627.24,568.998 1626.26,568.592 1625.16,568.592 C1623.21,568.592 1619.22,570.561 1613.19,574.498 C1607.17,578.436 1603.63,581.056 1602.59,582.358 C1601.55,583.66 1601.03,584.832 1601.03,585.873 C1601.03,586.915 1601.44,587.842 1602.26,588.655 C1603.07,589.467 1604.07,589.873 1605.23,589.873 M1624.19,565.467 C1629.78,565.467 1632.58,567.873 1632.58,572.686 C1632.58,575.03 1631.89,577.748 1630.53,580.842 C1629.17,583.936 1627.34,586.295 1625.06,587.92 C1620.05,591.306 1613.77,592.998 1606.22,592.998 C1600.61,592.998 1597.81,590.592 1597.81,585.78 C1597.81,583.634 1598.48,580.964 1599.81,577.772 C1601.14,574.579 1602.98,572.17 1605.33,570.545 C1610.35,567.16 1616.63,565.467 1624.19,565.467"/>
<path class="Note" d="M808.51,639.873 C810.396,639.873 814.351,637.92 820.377,634.014 C826.403,630.108 829.953,627.488 831.026,626.155 C832.099,624.821 832.635,623.634 832.635,622.592 C832.635,621.55 832.211,620.623 831.362,619.811 C830.513,618.998 829.536,618.592 828.432,618.592 C826.484,618.592 822.497,620.561 816.471,624.498 C810.445,628.436 806.911,631.056 805.869,632.358 C804.828,633.66 804.307,634.832 804.307,635.873 C804.307,636.915 804.716,637.842 805.534,638.655 C806.351,639.467 807.343,639.873 808.51,639.873 M827.463,615.467 C833.057,615.467 835.854,617.873 835.854,622.686 C835.854,625.03 835.172,627.748 833.807,630.842 C832.442,633.936 830.619,636.295 828.338,637.92 C823.328,641.306 817.047,642.998 809.494,642.998 C803.89,642.998 801.088,640.592 801.088,635.78 C801.088,633.634 801.755,630.964 803.088,627.772 C804.422,624.579 806.26,622.17 808.604,620.545 C813.625,617.16 819.911,615.467 827.463,615.467"/>
<path class="Note" d="M1294.63,589.873 C1296.51,589.873 1300.47,587.92 1306.49,584.014 C1312.52,580.108 1316.07,577.488 1317.14,576.155 C1318.22,574.821 1318.75,573.634 1318.75,572.592 C1318.75,571.55 1318.33,570.623 1317.48,569.811 C1316.63,568.998 1315.65,568.592 1314.55,568.592 C1312.6,568.592 1308.61,570.561 1302.59,574.498 C1296.56,578.436 1293.03,581.056 1291.99,582.358 C1290.95,583.66 1290.42,584.832 1290.42,585.873 C1290.42,586.915 1290.83,587.842 1291.65,588.655 C1292.47,589.467 1293.46,589.873 1294.63,589.873 M1313.58,565.467 C1319.17,565.467 1321.97,567.873 1321.97,572.686 C1321.97,575.03 1321.29,577.748 1319.92,580.842 C1318.56,583.936 1316.74,586.295 1314.46,587.92 C1309.45,591.306 1303.16,592.998 1295.61,592.998 C1290.01,592.998 1287.21,590.592 1287.21,585.78 C1287.21,583.634 1287.87,580.964 1289.21,577.772 C1290.54,574.579 1292.38,572.17 1294.72,570.545 C1299.74,567.16 1306.03,565.467 1313.58,565.467"/>
<path class="Note" d="M984.022,627.373 C985.907,627.373 989.863,625.42 995.889,621.514 C1001.92,617.608 1005.46,614.988 1006.54,613.655 C1007.61,612.321 1008.15,611.134 1008.15,610.092 C1008.15,609.05 1007.72,608.123 1006.87,607.311 C1006.02,606.498 1005.05,606.092 1003.94,606.092 C1002,606.092 998.009,608.061 991.983,611.998 C985.957,615.936 982.423,618.556 981.381,619.858 C980.34,621.16 979.819,622.332 979.819,623.373 C979.819,624.415 980.228,625.342 981.045,626.155 C981.863,626.967 982.855,627.373 984.022,627.373 M1002.98,602.967 C1008.57,602.967 1011.37,605.373 1011.37,610.186 C1011.37,612.53 1010.68,615.248 1009.32,618.342 C1007.95,621.436 1006.13,623.795 1003.85,625.42 C998.84,628.806 992.558,630.498 985.006,630.498 C979.402,630.498 976.6,628.092 976.6,623.28 C976.6,621.134 977.267,618.464 978.6,615.272 C979.933,612.079 981.772,609.67 984.116,608.045 C989.137,604.66 995.423,602.967 1002.98,602.967"/>
<path class="Clef" d="M203.623,673.858 L203.623,671.717 C203.56,670.613 203.399,668.889 203.139,666.545 C199.889,667.066 196.993,667.326 194.451,667.326 C185.337,667.326 177.605,663.727 171.256,656.53 C164.907,649.332 161.732,640.754 161.732,630.795 C161.732,628.129 162.253,624.923 163.295,621.178 C164.337,617.433 165.297,614.925 166.178,613.655 C167.058,612.384 168.378,610.155 170.139,606.967 C170.659,605.988 172.352,603.837 175.217,600.514 C175.738,599.806 176.193,599.222 176.584,598.764 C176.975,598.306 177.607,597.49 178.482,596.319 C179.357,595.147 180.3,594.056 181.31,593.045 C182.321,592.035 183.217,591.058 183.998,590.115 C184.779,589.173 185.498,588.379 186.154,587.733 C183.81,579.983 182.378,574.024 181.857,569.858 C181.337,565.691 181.076,560.579 181.076,554.522 C181.076,548.464 182.378,542.962 184.982,538.014 C187.514,532.879 191.06,528.681 195.623,525.42 C195.883,525.222 196.225,525.123 196.646,525.123 C197.068,525.123 197.378,525.222 197.576,525.42 C201.087,529.649 204.128,535.149 206.701,541.92 C209.274,548.691 210.56,555.024 210.56,560.92 C210.56,566.816 209.066,572.498 206.076,577.967 C202.691,583.759 198.326,589.748 192.982,595.936 C194.347,600.227 196.17,606.962 198.451,616.139 L199.045,616.139 C199.305,616.076 199.529,616.045 199.717,616.045 C207.081,616.045 213.089,618.634 217.74,623.811 C222.391,628.988 224.717,634.962 224.717,641.733 C224.717,650.129 221.238,656.899 214.279,662.045 C212.258,663.545 209.878,664.717 207.139,665.561 C207.472,669.79 207.639,672.605 207.639,674.006 C207.639,675.407 207.571,677.899 207.435,681.483 C207.373,687.597 205.29,692.837 201.185,697.201 C197.081,701.566 192.394,703.748 187.123,703.748 C181.852,703.748 177.36,701.876 173.646,698.131 C169.933,694.386 168.076,689.847 168.076,684.514 C168.076,681.712 169.154,679.332 171.31,677.373 C173.519,675.425 176.006,674.451 178.771,674.451 C181.537,674.451 183.8,675.462 185.56,677.483 C187.383,679.368 188.295,681.644 188.295,684.311 C188.295,686.977 187.383,689.222 185.56,691.045 C183.738,692.868 181.555,693.78 179.014,693.78 C177.972,693.78 176.967,693.587 175.998,693.201 C178.863,697.431 182.54,699.545 187.029,699.545 C191.519,699.545 195.36,697.691 198.553,693.983 C201.745,690.274 203.342,685.91 203.342,680.889 L203.623,673.858 M206.748,661.561 C210.133,660.321 212.821,658.123 214.81,654.967 C216.8,651.811 217.795,648.67 217.795,645.545 C217.795,640.92 216.199,636.785 213.006,633.139 C209.813,629.493 205.774,627.441 200.889,626.983 C203.691,640.722 205.644,652.248 206.748,661.561 M168.967,638.998 C168.967,645.446 171.537,651.079 176.678,655.897 C181.818,660.714 187.842,663.123 194.748,663.123 C197.477,663.123 200.144,662.925 202.748,662.53 C201.706,652.634 199.654,640.785 196.592,626.983 C192.758,627.379 189.782,628.699 187.662,630.944 C185.542,633.188 184.482,635.743 184.482,638.608 C184.482,643.556 187.123,647.561 192.404,650.623 C192.852,650.884 193.076,651.324 193.076,651.944 C193.076,652.563 192.865,653.1 192.443,653.553 C192.021,654.006 191.649,654.233 191.326,654.233 C191.003,654.233 190.581,654.17 190.06,654.045 C182.435,649.879 178.623,643.592 178.623,635.186 C178.623,631.217 180.024,627.41 182.826,623.764 C185.753,620.118 189.56,617.774 194.248,616.733 C192.425,609.441 190.93,603.743 189.764,599.639 C180.847,609.67 175.31,617.092 173.154,621.905 C170.363,628.155 168.967,633.852 168.967,638.998 M201.576,539.686 C196.691,542.092 192.834,545.574 190.006,550.131 C187.178,554.688 185.764,559.472 185.764,564.483 C185.764,569.493 186.935,575.972 189.279,583.92 C193.967,578.254 197.514,572.946 199.92,567.998 C202.326,563.05 203.529,558.152 203.529,553.303 C203.529,548.454 202.878,543.915 201.576,539.686"/>
<path class="TimeSig" d="M273.021,567.912 C274.516,567.912 275.949,567.686 277.318,567.233 C278.688,566.78 279.665,566.553 280.248,566.553 C280.831,566.553 281.222,566.907 281.42,567.615 C281.42,567.688 281.352,567.886 281.217,568.209 L252.811,601.225 L269.498,601.225 L269.498,588.131 C269.498,586.506 270.446,585.334 272.342,584.615 C274.29,583.897 276.503,581.001 278.982,575.928 C279.17,575.532 279.462,575.334 279.857,575.334 C280.639,575.334 281.092,575.793 281.217,576.709 L281.217,601.225 L288.357,601.225 C289.264,601.225 289.751,601.712 289.818,602.686 C289.886,603.66 289.399,604.147 288.357,604.147 L281.217,604.147 L281.217,604.928 C281.217,607.532 281.868,609.746 283.17,611.569 C284.67,613.391 286.43,614.303 288.451,614.303 C289.232,614.303 289.623,614.694 289.623,615.475 C289.623,616.256 289.087,616.647 288.014,616.647 C286.941,616.647 284.938,616.436 282.006,616.014 C279.074,615.592 276.811,615.381 275.217,615.381 C273.623,615.381 271.41,615.592 268.576,616.014 C265.743,616.436 263.613,616.647 262.186,616.647 C261.404,616.647 261.014,616.256 261.014,615.475 C261.014,614.694 261.404,614.303 262.186,614.303 C264.196,614.303 265.951,613.391 267.451,611.569 C268.816,609.683 269.498,607.47 269.498,604.928 L269.498,604.147 L252.811,604.147 C251.956,604.147 251.219,603.92 250.6,603.467 C249.98,603.014 249.67,602.592 249.67,602.201 C249.67,601.811 250.485,600.639 252.115,598.686 C253.745,596.733 256.074,592.972 259.1,587.405 C262.126,581.837 263.639,575.438 263.639,568.209 C263.639,567.168 264.097,566.647 265.014,566.647 C265.212,566.647 265.521,566.712 265.943,566.842 C266.365,566.972 267.277,567.183 268.678,567.475 C270.079,567.766 271.527,567.912 273.021,567.912"/>
<path class="TimeSig" d="M273.021,618.084 C274.516,618.084 275.949,617.858 277.318,617.405 C278.688,616.951 279.665,616.725 280.248,616.725 C280.831,616.725 281.222,617.079 281.42,617.787 C281.42,617.86 281.352,618.058 281.217,618.381 L252.811,651.397 L269.498,651.397 L269.498,638.303 C269.498,636.678 270.446,635.506 272.342,634.787 C274.29,634.069 276.503,631.173 278.982,626.1 C279.17,625.704 279.462,625.506 279.857,625.506 C280.639,625.506 281.092,625.964 281.217,626.881 L281.217,651.397 L288.357,651.397 C289.264,651.397 289.751,651.884 289.818,652.858 C289.886,653.832 289.399,654.319 288.357,654.319 L281.217,654.319 L281.217,655.1 C281.217,657.704 281.868,659.918 283.17,661.74 C284.67,663.563 286.43,664.475 288.451,664.475 C289.232,664.475 289.623,664.865 289.623,665.647 C289.623,666.428 289.087,666.819 288.014,666.819 C286.941,666.819 284.938,666.608 282.006,666.186 C279.074,665.764 276.811,665.553 275.217,665.553 C273.623,665.553 271.41,665.764 268.576,666.186 C265.743,666.608 263.613,666.819 262.186,666.819 C261.404,666.819 261.014,666.428 261.014,665.647 C261.014,664.865 261.404,664.475 262.186,664.475 C264.196,664.475 265.951,663.563 267.451,661.74 C268.816,659.855 269.498,657.642 269.498,655.1 L269.498,654.319 L252.811,654.319 C251.956,654.319 251.219,654.092 250.6,653.639 C249.98,653.186 249.67,652.764 249.67,652.373 C249.67,651.983 250.485,650.811 252.115,648.858 C253.745,646.905 256.074,643.144 259.1,637.576 C262.126,632.009 263.639,625.61 263.639,618.381 C263.639,617.339 264.097,616.819 265.014,616.819 C265.212,616.819 265.521,616.884 265.943,617.014 C266.365,617.144 267.277,617.355 268.678,617.647 C270.079,617.938 271.527,618.084 273.021,618.084"/>
<path class="Rest" d="M1459.73,616.733 L1424.19,616.733 C1423.53,616.733 1423.2,616.405 1423.2,615.748 L1423.2,602.076 C1423.2,601.431 1423.53,601.108 1424.19,601.108 L1459.73,601.108 C1460.38,601.108 1460.7,601.431 1460.7,602.076 L1460.7,615.748 C1460.7,616.405 1460.38,616.733 1459.73,616.733"/>
<path class="Rest" d="M2702.16,616.733 L2666.61,616.733 C2665.95,616.733 2665.62,616.405 2665.62,615.748 L2665.62,602.076 C2665.62,601.431 2665.95,601.108 2666.61,601.108 L2702.16,601.108 C2702.8,601.108 2703.12,601.431 2703.12,602.076 L2703.12,615.748 C2703.12,616.405 2702.8,616.733 2702.16,616.733"/>
</svg>
