<?xml version="1.0" encoding="UTF-8" standalone="no"?>
<svg width="2977.2px" height="4208.4px" viewBox="0 0 2977.2 4208.4"
 xmlns="http://www.w3.org/2000/svg" xmlns:xlink="http://www.w3.org/1999/xlink" version="1.2" baseProfile="tiny">
<title>If_You_Are_Happy_And_You_Know.mscx</title>
<desc>Generated by MuseScore Studio 4.3.1</desc>
<path class="" fill="#ffffff" fill-rule="evenodd" d="M0,0 L2977.2,0 L2977.2,4208.4 L0,4208.4 L0,0 "/>
<polyline class="StaffLines" fill="none" stroke="#000000" stroke-width="2.00" stroke-linejoin="bevel" points="141.732,316.732 2835.47,316.732"/>
<polyline class="StaffLines" fill="none" stroke="#000000" stroke-width="2.00" stroke-linejoin="bevel" points="141.732,341.732 2835.47,341.732"/>
<polyline class="StaffLines" fill="none" stroke="#000000" stroke-width="2.00" stroke-linejoin="bevel" points="141.732,366.733 2835.47,366.733"/>
<polyline class="StaffLines" fill="none" stroke="#000000" stroke-width="2.00" stroke-linejoin="bevel" points="141.732,391.733 2835.47,391.733"/>
<polyline class="StaffLines" fill="none" stroke="#000000" stroke-width="2.00" stroke-linejoin="bevel" points="141.732,416.733 2835.47,416.733"/>
<polyline class="StaffLines" fill="none" stroke="#000000" stroke-width="2.00" stroke-linejoin="bevel" points="141.732,791.733 2835.47,791.733"/>
<polyline class="StaffLines" fill="none" stroke="#000000" stroke-width="2.00" stroke-linejoin="bevel" points="141.732,816.733 2835.47,816.733"/>
<polyline class="StaffLines" fill="none" stroke="#000000" stroke-width="2.00" stroke-linejoin="bevel" points="141.732,841.733 2835.47,841.733"/>
<polyline class="StaffLines" fill="none" stroke="#000000" stroke-width="2.00" stroke-linejoin="bevel" points="141.732,866.733 2835.47,866.733"/>
<polyline class="StaffLines" fill="none" stroke="#000000" stroke-width="2.00" stroke-linejoin="bevel" points="141.732,891.733 2835.47,891.733"/>
<path class="MeasureNumber" d="M142.045,742.295 C139.357,742.295 137.193,741.22 135.553,739.069 C133.912,736.918 133.092,734.076 133.092,730.545 C133.092,729.462 133.199,728.34 133.412,727.178 C133.626,726.017 134.092,724.699 134.81,723.225 C135.529,721.751 136.462,720.428 137.607,719.256 C138.753,718.084 140.36,717.037 142.428,716.116 C144.495,715.194 146.878,714.613 149.576,714.373 L149.654,715.014 C146.508,715.524 143.881,716.8 141.771,718.842 C139.662,720.884 138.342,723.41 137.81,726.42 C139.06,725.701 140.006,725.235 140.646,725.022 C141.287,724.808 142.05,724.701 142.935,724.701 C145.227,724.701 147.053,725.444 148.412,726.928 C149.771,728.412 150.451,730.415 150.451,732.936 C150.451,735.696 149.67,737.946 148.107,739.686 C146.545,741.425 144.524,742.295 142.045,742.295 M141.404,726.451 C139.592,726.451 138.373,726.85 137.748,727.647 C137.123,728.444 136.81,729.623 136.81,731.186 C136.81,734.259 137.318,736.678 138.334,738.444 C139.35,740.209 140.738,741.092 142.498,741.092 C143.904,741.092 144.982,740.501 145.732,739.319 C146.482,738.136 146.857,736.462 146.857,734.295 C146.857,731.795 146.383,729.863 145.435,728.498 C144.488,727.134 143.144,726.451 141.404,726.451"/>
<polyline class="BarLine" fill="none" stroke="#000000" stroke-width="4.00" stroke-linejoin="bevel" points="2802.72,790.733 2802.72,892.733"/>
<polyline class="BarLine" fill="none" stroke="#000000" stroke-width="12.50" stroke-linejoin="bevel" points="2829.22,790.733 2829.22,892.733"/>
<polyline class="BarLine" fill="none" stroke="#000000" stroke-width="4.00" stroke-linejoin="bevel" points="1137.19,315.732 1137.19,417.733"/>
<polyline class="BarLine" fill="none" stroke="#000000" stroke-width="4.00" stroke-linejoin="bevel" points="1669.05,790.733 1669.05,892.733"/>
<polyline class="BarLine" fill="none" stroke="#000000" stroke-width="4.00" stroke-linejoin="bevel" points="2833.47,315.732 2833.47,417.733"/>
<polyline class="BarLine" fill="none" stroke="#000000" stroke-width="4.00" stroke-linejoin="bevel" points="2394.71,790.733 2394.71,892.733"/>
<polyline class="BarLine" fill="none" stroke="#000000" stroke-width="4.00" stroke-linejoin="bevel" points="495.137,315.732 495.137,417.733"/>
<polyline class="BarLine" fill="none" stroke="#000000" stroke-width="4.00" stroke-linejoin="bevel" points="943.392,790.733 943.392,892.733"/>
<polyline class="BarLine" fill="none" stroke="#000000" stroke-width="4.00" stroke-linejoin="bevel" points="2306.36,315.732 2306.36,417.733"/>
<polyline class="BarLine" fill="none" stroke="#000000" stroke-width="4.00" stroke-linejoin="bevel" points="1664.3,315.732 1664.3,417.733"/>
<polyline class="Stem" fill="none" stroke="#000000" stroke-width="3.25" stroke-linejoin="bevel" points="1922.82,347.602 1922.82,416.733"/>
<polyline class="Stem" fill="none" stroke="#000000" stroke-width="3.25" stroke-linejoin="bevel" points="2162.75,835.864 2162.75,772.983"/>
<polyline class="Stem" fill="none" stroke="#000000" stroke-width="3.25" stroke-linejoin="bevel" points="2229.35,347.602 2229.35,422.983"/>
<polyline class="Stem" fill="none" stroke="#000000" stroke-width="3.25" stroke-linejoin="bevel" points="2334.98,335.102 2334.98,416.733"/>
<polyline class="Stem" fill="none" stroke="#000000" stroke-width="3.25" stroke-linejoin="bevel" points="2075.67,835.864 2075.67,772.983"/>
<polyline class="Stem" fill="none" stroke="#000000" stroke-width="3.25" stroke-linejoin="bevel" points="2152.72,360.102 2152.72,422.983"/>
<polyline class="Stem" fill="none" stroke="#000000" stroke-width="3.25" stroke-linejoin="bevel" points="2679.83,335.102 2679.83,410.483"/>
<polyline class="Stem" fill="none" stroke="#000000" stroke-width="3.25" stroke-linejoin="bevel" points="2756.46,335.102 2756.46,410.483"/>
<polyline class="Stem" fill="none" stroke="#000000" stroke-width="3.25" stroke-linejoin="bevel" points="2076.09,347.602 2076.09,422.983"/>
<polyline class="Stem" fill="none" stroke="#000000" stroke-width="3.25" stroke-linejoin="bevel" points="1999.46,347.602 1999.46,422.983"/>
<polyline class="Stem" fill="none" stroke="#000000" stroke-width="3.25" stroke-linejoin="bevel" points="1697.68,822.602 1697.68,891.771"/>
<polyline class="Stem" fill="none" stroke="#000000" stroke-width="3.25" stroke-linejoin="bevel" points="1958.93,835.102 1958.93,897.944"/>
<polyline class="Stem" fill="none" stroke="#000000" stroke-width="3.25" stroke-linejoin="bevel" points="972.017,810.102 972.017,885.521"/>
<polyline class="Stem" fill="none" stroke="#000000" stroke-width="3.25" stroke-linejoin="bevel" points="1581.59,810.102 1581.59,891.771"/>
<polyline class="Stem" fill="none" stroke="#000000" stroke-width="3.25" stroke-linejoin="bevel" points="1494.51,810.102 1494.51,893.829"/>
<polyline class="Stem" fill="none" stroke="#000000" stroke-width="3.25" stroke-linejoin="bevel" points="1407.43,835.102 1407.43,895.887"/>
<polyline class="Stem" fill="none" stroke="#000000" stroke-width="3.25" stroke-linejoin="bevel" points="1320.35,835.102 1320.35,897.944"/>
<polyline class="Stem" fill="none" stroke="#000000" stroke-width="3.25" stroke-linejoin="bevel" points="1233.26,822.602 1233.26,891.694"/>
<polyline class="Stem" fill="none" stroke="#000000" stroke-width="3.25" stroke-linejoin="bevel" points="1146.18,810.102 1146.18,889.637"/>
<polyline class="Stem" fill="none" stroke="#000000" stroke-width="3.25" stroke-linejoin="bevel" points="1059.1,810.102 1059.1,887.579"/>
<polyline class="Stem" fill="none" stroke="#000000" stroke-width="3.25" stroke-linejoin="bevel" points="1784.76,822.602 1784.76,893.829"/>
<polyline class="Stem" fill="none" stroke="#000000" stroke-width="3.25" stroke-linejoin="bevel" points="246.357,797.602 246.357,866.733"/>
<polyline class="Stem" fill="none" stroke="#000000" stroke-width="3.25" stroke-linejoin="bevel" points="855.935,797.602 855.935,916.771"/>
<polyline class="Stem" fill="none" stroke="#000000" stroke-width="3.25" stroke-linejoin="bevel" points="768.852,797.602 768.852,918.829"/>
<polyline class="Stem" fill="none" stroke="#000000" stroke-width="3.25" stroke-linejoin="bevel" points="681.77,860.102 681.77,920.887"/>
<polyline class="Stem" fill="none" stroke="#000000" stroke-width="3.25" stroke-linejoin="bevel" points="594.687,860.102 594.687,922.944"/>
<polyline class="Stem" fill="none" stroke="#000000" stroke-width="3.25" stroke-linejoin="bevel" points="507.605,797.602 507.605,866.733"/>
<polyline class="Stem" fill="none" stroke="#000000" stroke-width="3.25" stroke-linejoin="bevel" points="420.522,797.602 420.522,866.733"/>
<polyline class="Stem" fill="none" stroke="#000000" stroke-width="3.25" stroke-linejoin="bevel" points="333.44,797.602 333.44,866.733"/>
<polyline class="Stem" fill="none" stroke="#000000" stroke-width="3.25" stroke-linejoin="bevel" points="1871.84,822.602 1871.84,895.887"/>
<polyline class="Stem" fill="none" stroke="#000000" stroke-width="3.25" stroke-linejoin="bevel" points="600.394,360.102 600.394,422.983"/>
<polyline class="Stem" fill="none" stroke="#000000" stroke-width="3.25" stroke-linejoin="bevel" points="1540.33,385.863 1540.33,316.732"/>
<polyline class="Stem" fill="none" stroke="#000000" stroke-width="3.25" stroke-linejoin="bevel" points="1060.19,360.102 1060.19,435.483"/>
<polyline class="Stem" fill="none" stroke="#000000" stroke-width="3.25" stroke-linejoin="bevel" points="523.762,360.102 523.762,422.983"/>
<polyline class="Stem" fill="none" stroke="#000000" stroke-width="3.25" stroke-linejoin="bevel" points="753.659,360.102 753.659,422.983"/>
<polyline class="Stem" fill="none" stroke="#000000" stroke-width="3.25" stroke-linejoin="bevel" points="677.027,360.102 677.027,422.983"/>
<polyline class="Stem" fill="none" stroke="#000000" stroke-width="3.25" stroke-linejoin="bevel" points="983.555,372.602 983.555,435.483"/>
<polyline class="Stem" fill="none" stroke="#000000" stroke-width="3.25" stroke-linejoin="bevel" points="1616.96,385.863 1616.96,316.732"/>
<polyline class="Stem" fill="none" stroke="#000000" stroke-width="3.25" stroke-linejoin="bevel" points="2336.92,835.864 2336.92,772.983"/>
<polyline class="Stem" fill="none" stroke="#000000" stroke-width="3.25" stroke-linejoin="bevel" points="1692.93,347.602 1692.93,416.733"/>
<polyline class="Stem" fill="none" stroke="#000000" stroke-width="3.25" stroke-linejoin="bevel" points="447.794,385.863 447.794,316.732"/>
<polyline class="Stem" fill="none" stroke="#000000" stroke-width="3.25" stroke-linejoin="bevel" points="2249.84,848.364 2249.84,772.983"/>
<polyline class="Stem" fill="none" stroke="#000000" stroke-width="3.25" stroke-linejoin="bevel" points="2423.34,835.102 2423.34,910.483"/>
<polyline class="Stem" fill="none" stroke="#000000" stroke-width="3.25" stroke-linejoin="bevel" points="1769.56,347.602 1769.56,416.733"/>
<polyline class="Stem" fill="none" stroke="#000000" stroke-width="3.25" stroke-linejoin="bevel" points="830.291,360.102 830.291,435.483"/>
<polyline class="Stem" fill="none" stroke="#000000" stroke-width="3.25" stroke-linejoin="bevel" points="906.923,360.102 906.923,435.483"/>
<polyline class="Stem" fill="none" stroke="#000000" stroke-width="3.25" stroke-linejoin="bevel" points="371.162,385.863 371.162,316.732"/>
<polyline class="Stem" fill="none" stroke="#000000" stroke-width="3.25" stroke-linejoin="bevel" points="1846.19,347.602 1846.19,416.733"/>
<polyline class="Stem" fill="none" stroke="#000000" stroke-width="3.25" stroke-linejoin="bevel" points="1165.82,347.602 1165.82,429.233"/>
<path class="Note" d="M774.002,340.467 C777.127,340.467 779.732,341.248 781.815,342.811 C783.898,344.373 784.94,346.618 784.94,349.545 C784.94,354.035 782.614,358.232 777.963,362.139 C773.312,366.045 768.315,367.998 762.971,367.998 C759.846,367.998 757.211,367.186 755.065,365.561 C753.044,363.8 752.034,361.587 752.034,358.92 C752.034,354.555 754.346,350.389 758.971,346.42 C763.596,342.451 768.607,340.467 774.002,340.467"/>
<path class="Note" d="M992.361,790.467 C995.486,790.467 998.09,791.248 1000.17,792.811 C1002.26,794.373 1003.3,796.618 1003.3,799.545 C1003.3,804.035 1000.97,808.233 996.322,812.139 C991.671,816.045 986.674,817.998 981.33,817.998 C978.205,817.998 975.57,817.186 973.424,815.561 C971.403,813.8 970.392,811.587 970.392,808.92 C970.392,804.556 972.705,800.389 977.33,796.42 C981.955,792.452 986.965,790.467 992.361,790.467"/>
<path class="Note" d="M697.37,340.467 C700.495,340.467 703.099,341.248 705.183,342.811 C707.266,344.373 708.308,346.618 708.308,349.545 C708.308,354.035 705.982,358.232 701.331,362.139 C696.68,366.045 691.683,367.998 686.339,367.998 C683.214,367.998 680.579,367.186 678.433,365.561 C676.412,363.8 675.402,361.587 675.402,358.92 C675.402,354.555 677.714,350.389 682.339,346.42 C686.964,342.451 691.974,340.467 697.37,340.467"/>
<path class="Note" d="M876.279,777.967 C879.404,777.967 882.008,778.748 884.091,780.311 C886.175,781.873 887.216,784.118 887.216,787.045 C887.216,791.535 884.891,795.733 880.24,799.639 C875.589,803.545 870.591,805.498 865.247,805.498 C862.122,805.498 859.487,804.686 857.341,803.061 C855.32,801.3 854.31,799.087 854.31,796.42 C854.31,792.056 856.622,787.889 861.247,783.92 C865.872,779.952 870.883,777.967 876.279,777.967"/>
<path class="Note" d="M544.106,340.467 C547.231,340.467 549.835,341.248 551.919,342.811 C554.002,344.373 555.044,346.618 555.044,349.545 C555.044,354.035 552.718,358.232 548.067,362.139 C543.416,366.045 538.419,367.998 533.075,367.998 C529.95,367.998 527.314,367.186 525.169,365.561 C523.148,363.8 522.137,361.587 522.137,358.92 C522.137,354.555 524.45,350.389 529.075,346.42 C533.7,342.451 538.71,340.467 544.106,340.467"/>
<path class="Note" d="M789.196,777.967 C792.321,777.967 794.925,778.748 797.009,780.311 C799.092,781.873 800.134,784.118 800.134,787.045 C800.134,791.535 797.808,795.733 793.157,799.639 C788.506,803.545 783.509,805.498 778.165,805.498 C775.04,805.498 772.405,804.686 770.259,803.061 C768.238,801.3 767.227,799.087 767.227,796.42 C767.227,792.056 769.54,787.889 774.165,783.92 C778.79,779.952 783.8,777.967 789.196,777.967"/>
<path class="Note" d="M702.114,840.467 C705.239,840.467 707.843,841.248 709.926,842.811 C712.01,844.373 713.051,846.618 713.051,849.545 C713.051,854.035 710.726,858.233 706.075,862.139 C701.424,866.045 696.426,867.998 691.082,867.998 C687.957,867.998 685.322,867.186 683.176,865.561 C681.155,863.801 680.145,861.587 680.145,858.92 C680.145,854.556 682.457,850.389 687.082,846.42 C691.707,842.452 696.718,840.467 702.114,840.467"/>
<path class="Note" d="M850.634,340.467 C853.759,340.467 856.364,341.248 858.447,342.811 C860.53,344.373 861.572,346.618 861.572,349.545 C861.572,354.035 859.246,358.232 854.595,362.139 C849.944,366.045 844.947,367.998 839.603,367.998 C836.478,367.998 833.843,367.186 831.697,365.561 C829.676,363.8 828.666,361.587 828.666,358.92 C828.666,354.555 830.978,350.389 835.603,346.42 C840.228,342.451 845.239,340.467 850.634,340.467"/>
<path class="Note" d="M620.738,340.467 C623.863,340.467 626.467,341.248 628.551,342.811 C630.634,344.373 631.676,346.618 631.676,349.545 C631.676,354.035 629.35,358.232 624.699,362.139 C620.048,366.045 615.051,367.998 609.707,367.998 C606.582,367.998 603.947,367.186 601.801,365.561 C599.78,363.8 598.769,361.587 598.769,358.92 C598.769,354.555 601.082,350.389 605.707,346.42 C610.332,342.451 615.342,340.467 620.738,340.467"/>
<path class="Note" d="M1079.44,790.467 C1082.57,790.467 1085.17,791.248 1087.26,792.811 C1089.34,794.373 1090.38,796.618 1090.38,799.545 C1090.38,804.035 1088.06,808.233 1083.4,812.139 C1078.75,816.045 1073.76,817.998 1068.41,817.998 C1065.29,817.998 1062.65,817.186 1060.51,815.561 C1058.49,813.8 1057.47,811.587 1057.47,808.92 C1057.47,804.556 1059.79,800.389 1064.41,796.42 C1069.04,792.452 1074.05,790.467 1079.44,790.467"/>
<path class="Note" d="M1943.17,327.967 C1946.29,327.967 1948.9,328.748 1950.98,330.311 C1953.06,331.873 1954.11,334.118 1954.11,337.045 C1954.11,341.535 1951.78,345.732 1947.13,349.639 C1942.48,353.545 1937.48,355.498 1932.14,355.498 C1929.01,355.498 1926.38,354.686 1924.23,353.061 C1922.21,351.3 1921.2,349.087 1921.2,346.42 C1921.2,342.055 1923.51,337.889 1928.14,333.92 C1932.76,329.951 1937.77,327.967 1943.17,327.967"/>
<path class="Note" d="M1166.53,790.467 C1169.65,790.467 1172.26,791.248 1174.34,792.811 C1176.42,794.373 1177.46,796.618 1177.46,799.545 C1177.46,804.035 1175.14,808.233 1170.49,812.139 C1165.84,816.045 1160.84,817.998 1155.49,817.998 C1152.37,817.998 1149.73,817.186 1147.59,815.561 C1145.57,813.8 1144.56,811.587 1144.56,808.92 C1144.56,804.556 1146.87,800.389 1151.49,796.42 C1156.12,792.452 1161.13,790.467 1166.53,790.467"/>
<path class="Note" d="M1253.61,802.967 C1256.73,802.967 1259.34,803.748 1261.42,805.311 C1263.5,806.873 1264.55,809.118 1264.55,812.045 C1264.55,816.535 1262.22,820.733 1257.57,824.639 C1252.92,828.545 1247.92,830.498 1242.58,830.498 C1239.45,830.498 1236.82,829.686 1234.67,828.061 C1232.65,826.3 1231.64,824.087 1231.64,821.42 C1231.64,817.056 1233.95,812.889 1238.58,808.92 C1243.2,804.952 1248.21,802.967 1253.61,802.967"/>
<path class="Note" d="M438.474,377.967 C441.599,377.967 444.203,378.748 446.286,380.311 C448.37,381.873 449.411,384.118 449.411,387.045 C449.411,391.535 447.086,395.733 442.435,399.639 C437.784,403.545 432.786,405.498 427.443,405.498 C424.318,405.498 421.682,404.686 419.536,403.061 C417.516,401.3 416.505,399.087 416.505,396.42 C416.505,392.055 418.818,387.889 423.443,383.92 C428.068,379.951 433.078,377.967 438.474,377.967"/>
<path class="Note" d="M1340.69,815.467 C1343.82,815.467 1346.42,816.248 1348.5,817.811 C1350.59,819.373 1351.63,821.618 1351.63,824.545 C1351.63,829.035 1349.3,833.233 1344.65,837.139 C1340,841.045 1335,842.998 1329.66,842.998 C1326.53,842.998 1323.9,842.186 1321.75,840.561 C1319.73,838.801 1318.72,836.587 1318.72,833.92 C1318.72,829.556 1321.03,825.389 1325.66,821.42 C1330.28,817.452 1335.3,815.467 1340.69,815.467"/>
<path class="Note" d="M1718.02,802.967 C1721.15,802.967 1723.75,803.748 1725.83,805.311 C1727.92,806.873 1728.96,809.118 1728.96,812.045 C1728.96,816.535 1726.63,820.733 1721.98,824.639 C1717.33,828.545 1712.33,830.498 1706.99,830.498 C1703.86,830.498 1701.23,829.686 1699.08,828.061 C1697.06,826.3 1696.05,824.087 1696.05,821.42 C1696.05,817.056 1698.36,812.889 1702.99,808.92 C1707.61,804.952 1712.63,802.967 1718.02,802.967"/>
<path class="Note" d="M1427.77,815.467 C1430.9,815.467 1433.5,816.248 1435.59,817.811 C1437.67,819.373 1438.71,821.618 1438.71,824.545 C1438.71,829.035 1436.39,833.233 1431.73,837.139 C1427.08,841.045 1422.09,842.998 1416.74,842.998 C1413.62,842.998 1410.98,842.186 1408.84,840.561 C1406.82,838.801 1405.8,836.587 1405.8,833.92 C1405.8,829.556 1408.12,825.389 1412.74,821.42 C1417.37,817.452 1422.38,815.467 1427.77,815.467"/>
<path class="Note" d="M1514.86,790.467 C1517.98,790.467 1520.59,791.248 1522.67,792.811 C1524.75,794.373 1525.79,796.618 1525.79,799.545 C1525.79,804.035 1523.47,808.233 1518.82,812.139 C1514.17,816.045 1509.17,817.998 1503.82,817.998 C1500.7,817.998 1498.06,817.186 1495.92,815.561 C1493.9,813.8 1492.89,811.587 1492.89,808.92 C1492.89,804.556 1495.2,800.389 1499.82,796.42 C1504.45,792.452 1509.46,790.467 1514.86,790.467"/>
<path class="Note" d="M361.842,377.967 C364.967,377.967 367.571,378.748 369.654,380.311 C371.738,381.873 372.779,384.118 372.779,387.045 C372.779,391.535 370.454,395.733 365.803,399.639 C361.152,403.545 356.154,405.498 350.811,405.498 C347.686,405.498 345.05,404.686 342.904,403.061 C340.884,401.3 339.873,399.087 339.873,396.42 C339.873,392.055 342.186,387.889 346.811,383.92 C351.436,379.951 356.446,377.967 361.842,377.967"/>
<path class="Note" d="M1601.94,790.467 C1605.06,790.467 1607.67,791.248 1609.75,792.811 C1611.83,794.373 1612.88,796.618 1612.88,799.545 C1612.88,804.035 1610.55,808.233 1605.9,812.139 C1601.25,816.045 1596.25,817.998 1590.91,817.998 C1587.78,817.998 1585.15,817.186 1583,815.561 C1580.98,813.8 1579.97,811.587 1579.97,808.92 C1579.97,804.556 1582.28,800.389 1586.91,796.42 C1591.53,792.452 1596.54,790.467 1601.94,790.467"/>
<path class="Note" d="M2443.68,815.467 C2446.81,815.467 2449.41,816.248 2451.49,817.811 C2453.58,819.373 2454.62,821.618 2454.62,824.545 C2454.62,829.035 2452.29,833.233 2447.64,837.139 C2442.99,841.045 2437.99,842.998 2432.65,842.998 C2429.53,842.998 2426.89,842.186 2424.74,840.561 C2422.72,838.801 2421.71,836.587 2421.71,833.92 C2421.71,829.556 2424.03,825.389 2428.65,821.42 C2433.28,817.452 2438.29,815.467 2443.68,815.467"/>
<path class="Note" d="M615.031,840.467 C618.156,840.467 620.76,841.248 622.844,842.811 C624.927,844.373 625.969,846.618 625.969,849.545 C625.969,854.035 623.643,858.233 618.992,862.139 C614.341,866.045 609.344,867.998 604,867.998 C600.875,867.998 598.24,867.186 596.094,865.561 C594.073,863.801 593.062,861.587 593.062,858.92 C593.062,854.556 595.375,850.389 600,846.42 C604.625,842.452 609.635,840.467 615.031,840.467"/>
<path class="Note" d="M1866.54,327.967 C1869.66,327.967 1872.26,328.748 1874.35,330.311 C1876.43,331.873 1877.47,334.118 1877.47,337.045 C1877.47,341.535 1875.15,345.732 1870.5,349.639 C1865.85,353.545 1860.85,355.498 1855.5,355.498 C1852.38,355.498 1849.74,354.686 1847.6,353.061 C1845.58,351.3 1844.57,349.087 1844.57,346.42 C1844.57,342.055 1846.88,337.889 1851.5,333.92 C1856.13,329.951 1861.14,327.967 1866.54,327.967"/>
<path class="Note" d="M2019.8,327.967 C2022.93,327.967 2025.53,328.748 2027.61,330.311 C2029.7,331.873 2030.74,334.118 2030.74,337.045 C2030.74,341.535 2028.41,345.732 2023.76,349.639 C2019.11,353.545 2014.11,355.498 2008.77,355.498 C2005.64,355.498 2003.01,354.686 2000.86,353.061 C1998.84,351.3 1997.83,349.087 1997.83,346.42 C1997.83,342.055 2000.14,337.889 2004.77,333.92 C2009.39,329.951 2014.4,327.967 2019.8,327.967"/>
<path class="Note" d="M2153.43,827.967 C2156.56,827.967 2159.16,828.748 2161.25,830.311 C2163.33,831.873 2164.37,834.118 2164.37,837.045 C2164.37,841.535 2162.05,845.733 2157.39,849.639 C2152.74,853.545 2147.75,855.498 2142.4,855.498 C2139.28,855.498 2136.64,854.686 2134.5,853.061 C2132.48,851.301 2131.47,849.087 2131.47,846.42 C2131.47,842.056 2133.78,837.889 2138.4,833.92 C2143.03,829.952 2148.04,827.967 2153.43,827.967"/>
<path class="Note" d="M1789.9,327.967 C1793.03,327.967 1795.63,328.748 1797.72,330.311 C1799.8,331.873 1800.84,334.118 1800.84,337.045 C1800.84,341.535 1798.52,345.732 1793.86,349.639 C1789.21,353.545 1784.22,355.498 1778.87,355.498 C1775.75,355.498 1773.11,354.686 1770.97,353.061 C1768.95,351.3 1767.93,349.087 1767.93,346.42 C1767.93,342.055 1770.25,337.889 1774.87,333.92 C1779.5,329.951 1784.51,327.967 1789.9,327.967"/>
<path class="Note" d="M2096.43,327.967 C2099.56,327.967 2102.16,328.748 2104.24,330.311 C2106.33,331.873 2107.37,334.118 2107.37,337.045 C2107.37,341.535 2105.04,345.732 2100.39,349.639 C2095.74,353.545 2090.74,355.498 2085.4,355.498 C2082.28,355.498 2079.64,354.686 2077.49,353.061 C2075.47,351.3 2074.46,349.087 2074.46,346.42 C2074.46,342.055 2076.78,337.889 2081.4,333.92 C2086.03,329.951 2091.04,327.967 2096.43,327.967"/>
<path class="Note" d="M2173.06,340.467 C2176.19,340.467 2178.79,341.248 2180.88,342.811 C2182.96,344.373 2184,346.618 2184,349.545 C2184,354.035 2181.68,358.232 2177.03,362.139 C2172.37,366.045 2167.38,367.998 2162.03,367.998 C2158.91,367.998 2156.27,367.186 2154.13,365.561 C2152.11,363.8 2151.1,361.587 2151.1,358.92 C2151.1,354.555 2153.41,350.389 2158.03,346.42 C2162.66,342.451 2167.67,340.467 2173.06,340.467"/>
<path class="Note" d="M2249.7,327.967 C2252.82,327.967 2255.43,328.748 2257.51,330.311 C2259.59,331.873 2260.63,334.118 2260.63,337.045 C2260.63,341.535 2258.31,345.732 2253.66,349.639 C2249.01,353.545 2244.01,355.498 2238.67,355.498 C2235.54,355.498 2232.9,354.686 2230.76,353.061 C2228.74,351.3 2227.73,349.087 2227.73,346.42 C2227.73,342.055 2230.04,337.889 2234.67,333.92 C2239.29,329.951 2244.3,327.967 2249.7,327.967"/>
<path class="Note" d="M1713.27,327.967 C1716.4,327.967 1719,328.748 1721.08,330.311 C1723.17,331.873 1724.21,334.118 1724.21,337.045 C1724.21,341.535 1721.88,345.732 1717.23,349.639 C1712.58,353.545 1707.58,355.498 1702.24,355.498 C1699.12,355.498 1696.48,354.686 1694.33,353.061 C1692.31,351.3 1691.3,349.087 1691.3,346.42 C1691.3,342.055 1693.62,337.889 1698.24,333.92 C1702.87,329.951 1707.88,327.967 1713.27,327.967"/>
<path class="Note" d="M1607.64,377.967 C1610.76,377.967 1613.37,378.748 1615.45,380.311 C1617.54,381.873 1618.58,384.118 1618.58,387.045 C1618.58,391.535 1616.25,395.733 1611.6,399.639 C1606.95,403.545 1601.95,405.498 1596.61,405.498 C1593.48,405.498 1590.85,404.686 1588.7,403.061 C1586.68,401.3 1585.67,399.087 1585.67,396.42 C1585.67,392.055 1587.98,387.889 1592.61,383.92 C1597.23,379.951 1602.24,377.967 1607.64,377.967"/>
<path class="Note" d="M2355.33,315.467 C2358.45,315.467 2361.06,316.248 2363.14,317.811 C2365.22,319.373 2366.27,321.618 2366.27,324.545 C2366.27,329.035 2363.94,333.232 2359.29,337.139 C2354.64,341.045 2349.64,342.998 2344.3,342.998 C2341.17,342.998 2338.54,342.186 2336.39,340.561 C2334.37,338.8 2333.36,336.587 2333.36,333.92 C2333.36,329.555 2335.67,325.389 2340.3,321.42 C2344.92,317.451 2349.93,315.467 2355.33,315.467"/>
<path class="Note" d="M2066.35,827.967 C2069.48,827.967 2072.08,828.748 2074.16,830.311 C2076.25,831.873 2077.29,834.118 2077.29,837.045 C2077.29,841.535 2074.96,845.733 2070.31,849.639 C2065.66,853.545 2060.66,855.498 2055.32,855.498 C2052.2,855.498 2049.56,854.686 2047.41,853.061 C2045.39,851.301 2044.38,849.087 2044.38,846.42 C2044.38,842.056 2046.7,837.889 2051.32,833.92 C2055.95,829.952 2060.96,827.967 2066.35,827.967"/>
<path class="Note" d="M2240.52,840.467 C2243.64,840.467 2246.25,841.248 2248.33,842.811 C2250.41,844.373 2251.45,846.618 2251.45,849.545 C2251.45,854.035 2249.13,858.233 2244.48,862.139 C2239.83,866.045 2234.83,867.998 2229.49,867.998 C2226.36,867.998 2223.72,867.186 2221.58,865.561 C2219.56,863.801 2218.55,861.587 2218.55,858.92 C2218.55,854.556 2220.86,850.389 2225.49,846.42 C2230.11,842.452 2235.12,840.467 2240.52,840.467"/>
<path class="Note" d="M1531.01,377.967 C1534.13,377.967 1536.74,378.748 1538.82,380.311 C1540.9,381.873 1541.94,384.118 1541.94,387.045 C1541.94,391.535 1539.62,395.733 1534.97,399.639 C1530.32,403.545 1525.32,405.498 1519.98,405.498 C1516.85,405.498 1514.22,404.686 1512.07,403.061 C1510.05,401.3 1509.04,399.087 1509.04,396.42 C1509.04,392.055 1511.35,387.889 1515.98,383.92 C1520.6,379.951 1525.61,377.967 1531.01,377.967"/>
<path class="Note" d="M2700.17,315.467 C2703.3,315.467 2705.9,316.248 2707.99,317.811 C2710.07,319.373 2711.11,321.618 2711.11,324.545 C2711.11,329.035 2708.78,333.232 2704.13,337.139 C2699.48,341.045 2694.49,342.998 2689.14,342.998 C2686.02,342.998 2683.38,342.186 2681.24,340.561 C2679.21,338.8 2678.2,336.587 2678.2,333.92 C2678.2,329.555 2680.52,325.389 2685.14,321.42 C2689.77,317.451 2694.78,315.467 2700.17,315.467"/>
<path class="Note" d="M1979.27,815.467 C1982.39,815.467 1985,816.248 1987.08,817.811 C1989.16,819.373 1990.21,821.618 1990.21,824.545 C1990.21,829.035 1987.88,833.233 1983.23,837.139 C1978.58,841.045 1973.58,842.998 1968.24,842.998 C1965.11,842.998 1962.48,842.186 1960.33,840.561 C1958.31,838.801 1957.3,836.587 1957.3,833.92 C1957.3,829.556 1959.61,825.389 1964.24,821.42 C1968.86,817.452 1973.87,815.467 1979.27,815.467"/>
<path class="Note" d="M2776.81,315.467 C2779.93,315.467 2782.53,316.248 2784.62,317.811 C2786.7,319.373 2787.74,321.618 2787.74,324.545 C2787.74,329.035 2785.42,333.232 2780.77,337.139 C2776.11,341.045 2771.12,342.998 2765.77,342.998 C2762.65,342.998 2760.01,342.186 2757.87,340.561 C2755.85,338.8 2754.84,336.587 2754.84,333.92 C2754.84,329.555 2757.15,325.389 2761.77,321.42 C2766.4,317.451 2771.41,315.467 2776.81,315.467"/>
<path class="Note" d="M2327.6,827.967 C2330.72,827.967 2333.33,828.748 2335.41,830.311 C2337.49,831.873 2338.54,834.118 2338.54,837.045 C2338.54,841.535 2336.21,845.733 2331.56,849.639 C2326.91,853.545 2321.91,855.498 2316.57,855.498 C2313.44,855.498 2310.81,854.686 2308.66,853.061 C2306.64,851.301 2305.63,849.087 2305.63,846.42 C2305.63,842.056 2307.94,837.889 2312.57,833.92 C2317.19,829.952 2322.2,827.967 2327.6,827.967"/>
<path class="Note" d="M1186.16,327.967 C1189.29,327.967 1191.89,328.748 1193.98,330.311 C1196.06,331.873 1197.1,334.118 1197.1,337.045 C1197.1,341.535 1194.77,345.732 1190.12,349.639 C1185.47,353.545 1180.48,355.498 1175.13,355.498 C1172.01,355.498 1169.37,354.686 1167.23,353.061 C1165.2,351.3 1164.19,349.087 1164.19,346.42 C1164.19,342.055 1166.51,337.889 1171.13,333.92 C1175.76,329.951 1180.77,327.967 1186.16,327.967"/>
<path class="Note" d="M1892.19,802.967 C1895.31,802.967 1897.92,803.748 1900,805.311 C1902.08,806.873 1903.12,809.118 1903.12,812.045 C1903.12,816.535 1900.8,820.733 1896.15,824.639 C1891.5,828.545 1886.5,830.498 1881.16,830.498 C1878.03,830.498 1875.39,829.686 1873.25,828.061 C1871.23,826.3 1870.22,824.087 1870.22,821.42 C1870.22,817.056 1872.53,812.889 1877.16,808.92 C1881.78,804.952 1886.79,802.967 1892.19,802.967"/>
<path class="Note" d="M1080.53,340.467 C1083.66,340.467 1086.26,341.248 1088.34,342.811 C1090.43,344.373 1091.47,346.618 1091.47,349.545 C1091.47,354.035 1089.14,358.232 1084.49,362.139 C1079.84,366.045 1074.84,367.998 1069.5,367.998 C1066.37,367.998 1063.74,367.186 1061.59,365.561 C1059.57,363.8 1058.56,361.587 1058.56,358.92 C1058.56,354.555 1060.87,350.389 1065.5,346.42 C1070.12,342.451 1075.13,340.467 1080.53,340.467"/>
<path class="Note" d="M266.701,777.967 C269.826,777.967 272.43,778.748 274.514,780.311 C276.597,781.873 277.639,784.118 277.639,787.045 C277.639,791.535 275.313,795.733 270.662,799.639 C266.011,803.545 261.014,805.498 255.67,805.498 C252.545,805.498 249.91,804.686 247.764,803.061 C245.743,801.3 244.732,799.087 244.732,796.42 C244.732,792.056 247.045,787.889 251.67,783.92 C256.295,779.952 261.305,777.967 266.701,777.967"/>
<path class="Note" d="M1003.9,352.967 C1007.02,352.967 1009.63,353.748 1011.71,355.311 C1013.79,356.873 1014.84,359.118 1014.84,362.045 C1014.84,366.535 1012.51,370.733 1007.86,374.639 C1003.21,378.545 998.211,380.498 992.867,380.498 C989.742,380.498 987.107,379.686 984.961,378.061 C982.94,376.3 981.93,374.087 981.93,371.42 C981.93,367.055 984.242,362.889 988.867,358.92 C993.492,354.951 998.503,352.967 1003.9,352.967"/>
<path class="Note" d="M353.784,777.967 C356.909,777.967 359.513,778.748 361.596,780.311 C363.68,781.873 364.721,784.118 364.721,787.045 C364.721,791.535 362.396,795.733 357.745,799.639 C353.094,803.545 348.096,805.498 342.752,805.498 C339.627,805.498 336.992,804.686 334.846,803.061 C332.825,801.3 331.815,799.087 331.815,796.42 C331.815,792.056 334.127,787.889 338.752,783.92 C343.377,779.952 348.388,777.967 353.784,777.967"/>
<path class="Note" d="M440.866,777.967 C443.991,777.967 446.595,778.748 448.679,780.311 C450.762,781.873 451.804,784.118 451.804,787.045 C451.804,791.535 449.478,795.733 444.827,799.639 C440.176,803.545 435.179,805.498 429.835,805.498 C426.71,805.498 424.075,804.686 421.929,803.061 C419.908,801.3 418.897,799.087 418.897,796.42 C418.897,792.056 421.21,787.889 425.835,783.92 C430.46,779.952 435.47,777.967 440.866,777.967"/>
<path class="Note" d="M927.267,340.467 C930.392,340.467 932.996,341.248 935.079,342.811 C937.162,344.373 938.204,346.618 938.204,349.545 C938.204,354.035 935.879,358.232 931.228,362.139 C926.576,366.045 921.579,367.998 916.235,367.998 C913.11,367.998 910.475,367.186 908.329,365.561 C906.308,363.8 905.298,361.587 905.298,358.92 C905.298,354.555 907.61,350.389 912.235,346.42 C916.86,342.451 921.871,340.467 927.267,340.467"/>
<path class="Note" d="M527.949,777.967 C531.074,777.967 533.678,778.748 535.761,780.311 C537.845,781.873 538.886,784.118 538.886,787.045 C538.886,791.535 536.561,795.733 531.91,799.639 C527.259,803.545 522.261,805.498 516.917,805.498 C513.792,805.498 511.157,804.686 509.011,803.061 C506.99,801.3 505.98,799.087 505.98,796.42 C505.98,792.056 508.292,787.889 512.917,783.92 C517.542,779.952 522.553,777.967 527.949,777.967"/>
<path class="Note" d="M1805.1,802.967 C1808.23,802.967 1810.83,803.748 1812.92,805.311 C1815,806.873 1816.04,809.118 1816.04,812.045 C1816.04,816.535 1813.72,820.733 1809.06,824.639 C1804.41,828.545 1799.42,830.498 1794.07,830.498 C1790.95,830.498 1788.31,829.686 1786.17,828.061 C1784.15,826.3 1783.14,824.087 1783.14,821.42 C1783.14,817.056 1785.45,812.889 1790.07,808.92 C1794.7,804.952 1799.71,802.967 1805.1,802.967"/>
<path class="Clef" d="M203.623,423.858 L203.623,421.717 C203.56,420.613 203.399,418.889 203.139,416.545 C199.889,417.066 196.993,417.326 194.451,417.326 C185.337,417.326 177.605,413.727 171.256,406.529 C164.907,399.331 161.732,390.753 161.732,380.795 C161.732,378.128 162.253,374.923 163.295,371.178 C164.337,367.433 165.297,364.925 166.178,363.654 C167.058,362.384 168.378,360.154 170.139,356.967 C170.659,355.988 172.352,353.837 175.217,350.514 C175.738,349.805 176.193,349.222 176.584,348.764 C176.975,348.305 177.607,347.49 178.482,346.318 C179.357,345.147 180.3,344.055 181.31,343.045 C182.321,342.035 183.217,341.058 183.998,340.115 C184.779,339.173 185.498,338.378 186.154,337.733 C183.81,329.983 182.378,324.024 181.857,319.858 C181.337,315.691 181.076,310.579 181.076,304.522 C181.076,298.464 182.378,292.962 184.982,288.014 C187.514,282.878 191.06,278.68 195.623,275.42 C195.883,275.222 196.225,275.123 196.646,275.123 C197.068,275.123 197.378,275.222 197.576,275.42 C201.087,279.649 204.128,285.149 206.701,291.92 C209.274,298.691 210.56,305.024 210.56,310.92 C210.56,316.816 209.066,322.498 206.076,327.967 C202.691,333.759 198.326,339.748 192.982,345.936 C194.347,350.227 196.17,356.962 198.451,366.139 L199.045,366.139 C199.305,366.076 199.529,366.045 199.717,366.045 C207.081,366.045 213.089,368.634 217.74,373.811 C222.391,378.988 224.717,384.962 224.717,391.733 C224.717,400.128 221.238,406.899 214.279,412.045 C212.258,413.545 209.878,414.717 207.139,415.561 C207.472,419.79 207.639,422.605 207.639,424.006 C207.639,425.407 207.571,427.899 207.435,431.483 C207.373,437.597 205.29,442.837 201.185,447.201 C197.081,451.566 192.394,453.748 187.123,453.748 C181.852,453.748 177.36,451.876 173.646,448.131 C169.933,444.386 168.076,439.847 168.076,434.514 C168.076,431.712 169.154,429.331 171.31,427.373 C173.519,425.425 176.006,424.451 178.771,424.451 C181.537,424.451 183.8,425.462 185.56,427.483 C187.383,429.368 188.295,431.644 188.295,434.311 C188.295,436.977 187.383,439.222 185.56,441.045 C183.738,442.868 181.555,443.779 179.014,443.779 C177.972,443.779 176.967,443.587 175.998,443.201 C178.863,447.43 182.54,449.545 187.029,449.545 C191.519,449.545 195.36,447.691 198.553,443.983 C201.745,440.274 203.342,435.91 203.342,430.889 L203.623,423.858 M206.748,411.561 C210.133,410.321 212.821,408.123 214.81,404.967 C216.8,401.811 217.795,398.67 217.795,395.545 C217.795,390.92 216.199,386.785 213.006,383.139 C209.813,379.493 205.774,377.441 200.889,376.983 C203.691,390.722 205.644,402.248 206.748,411.561 M168.967,388.998 C168.967,395.446 171.537,401.079 176.678,405.897 C181.818,410.714 187.842,413.123 194.748,413.123 C197.477,413.123 200.144,412.925 202.748,412.529 C201.706,402.634 199.654,390.785 196.592,376.983 C192.758,377.378 189.782,378.699 187.662,380.943 C185.542,383.188 184.482,385.743 184.482,388.608 C184.482,393.555 187.123,397.561 192.404,400.623 C192.852,400.884 193.076,401.324 193.076,401.943 C193.076,402.563 192.865,403.1 192.443,403.553 C192.021,404.006 191.649,404.233 191.326,404.233 C191.003,404.233 190.581,404.17 190.06,404.045 C182.435,399.878 178.623,393.592 178.623,385.186 C178.623,381.217 180.024,377.41 182.826,373.764 C185.753,370.118 189.56,367.774 194.248,366.733 C192.425,359.441 190.93,353.743 189.764,349.639 C180.847,359.67 175.31,367.092 173.154,371.904 C170.363,378.154 168.967,383.852 168.967,388.998 M201.576,289.686 C196.691,292.092 192.834,295.574 190.006,300.131 C187.178,304.688 185.764,309.472 185.764,314.483 C185.764,319.493 186.935,325.972 189.279,333.92 C193.967,328.253 197.514,322.946 199.92,317.998 C202.326,313.05 203.529,308.152 203.529,303.303 C203.529,298.454 202.878,293.915 201.576,289.686"/>
<path class="Clef" d="M203.623,898.858 L203.623,896.717 C203.56,895.613 203.399,893.889 203.139,891.545 C199.889,892.066 196.993,892.327 194.451,892.327 C185.337,892.327 177.605,888.728 171.256,881.53 C164.907,874.332 161.732,865.754 161.732,855.795 C161.732,853.129 162.253,849.923 163.295,846.178 C164.337,842.433 165.297,839.926 166.178,838.655 C167.058,837.384 168.378,835.155 170.139,831.967 C170.659,830.988 172.352,828.837 175.217,825.514 C175.738,824.806 176.193,824.222 176.584,823.764 C176.975,823.306 177.607,822.491 178.482,821.319 C179.357,820.147 180.3,819.056 181.31,818.045 C182.321,817.035 183.217,816.058 183.998,815.116 C184.779,814.173 185.498,813.379 186.154,812.733 C183.81,804.983 182.378,799.024 181.857,794.858 C181.337,790.691 181.076,785.579 181.076,779.522 C181.076,773.465 182.378,767.962 184.982,763.014 C187.514,757.879 191.06,753.681 195.623,750.42 C195.883,750.222 196.225,750.123 196.646,750.123 C197.068,750.123 197.378,750.222 197.576,750.42 C201.087,754.649 204.128,760.149 206.701,766.92 C209.274,773.691 210.56,780.024 210.56,785.92 C210.56,791.816 209.066,797.498 206.076,802.967 C202.691,808.759 198.326,814.748 192.982,820.936 C194.347,825.228 196.17,831.962 198.451,841.139 L199.045,841.139 C199.305,841.077 199.529,841.045 199.717,841.045 C207.081,841.045 213.089,843.634 217.74,848.811 C222.391,853.988 224.717,859.962 224.717,866.733 C224.717,875.129 221.238,881.899 214.279,887.045 C212.258,888.545 209.878,889.717 207.139,890.561 C207.472,894.79 207.639,897.605 207.639,899.006 C207.639,900.407 207.571,902.899 207.435,906.483 C207.373,912.597 205.29,917.837 201.185,922.202 C197.081,926.566 192.394,928.748 187.123,928.748 C181.852,928.748 177.36,926.876 173.646,923.131 C169.933,919.386 168.076,914.847 168.076,909.514 C168.076,906.712 169.154,904.332 171.31,902.373 C173.519,900.426 176.006,899.452 178.771,899.452 C181.537,899.452 183.8,900.462 185.56,902.483 C187.383,904.368 188.295,906.644 188.295,909.311 C188.295,911.978 187.383,914.222 185.56,916.045 C183.738,917.868 181.555,918.78 179.014,918.78 C177.972,918.78 176.967,918.587 175.998,918.202 C178.863,922.431 182.54,924.545 187.029,924.545 C191.519,924.545 195.36,922.691 198.553,918.983 C201.745,915.274 203.342,910.91 203.342,905.889 L203.623,898.858 M206.748,886.561 C210.133,885.321 212.821,883.123 214.81,879.967 C216.8,876.811 217.795,873.67 217.795,870.545 C217.795,865.92 216.199,861.785 213.006,858.139 C209.813,854.493 205.774,852.441 200.889,851.983 C203.691,865.722 205.644,877.248 206.748,886.561 M168.967,863.998 C168.967,870.446 171.537,876.079 176.678,880.897 C181.818,885.715 187.842,888.123 194.748,888.123 C197.477,888.123 200.144,887.926 202.748,887.53 C201.706,877.634 199.654,865.785 196.592,851.983 C192.758,852.379 189.782,853.699 187.662,855.944 C185.542,858.189 184.482,860.743 184.482,863.608 C184.482,868.556 187.123,872.561 192.404,875.623 C192.852,875.884 193.076,876.324 193.076,876.944 C193.076,877.564 192.865,878.1 192.443,878.553 C192.021,879.006 191.649,879.233 191.326,879.233 C191.003,879.233 190.581,879.17 190.06,879.045 C182.435,874.879 178.623,868.592 178.623,860.186 C178.623,856.217 180.024,852.41 182.826,848.764 C185.753,845.118 189.56,842.774 194.248,841.733 C192.425,834.441 190.93,828.743 189.764,824.639 C180.847,834.67 175.31,842.092 173.154,846.905 C170.363,853.155 168.967,858.853 168.967,863.998 M201.576,764.686 C196.691,767.092 192.834,770.574 190.006,775.131 C187.178,779.689 185.764,784.472 185.764,789.483 C185.764,794.493 186.935,800.972 189.279,808.92 C193.967,803.254 197.514,797.946 199.92,792.998 C202.326,788.051 203.529,783.152 203.529,778.303 C203.529,773.454 202.878,768.915 201.576,764.686"/>
<path class="TimeSig" d="M273.021,317.912 C274.516,317.912 275.949,317.686 277.318,317.232 C278.688,316.779 279.665,316.553 280.248,316.553 C280.831,316.553 281.222,316.907 281.42,317.615 C281.42,317.688 281.352,317.886 281.217,318.209 L252.811,351.225 L269.498,351.225 L269.498,338.131 C269.498,336.506 270.446,335.334 272.342,334.615 C274.29,333.897 276.503,331.001 278.982,325.928 C279.17,325.532 279.462,325.334 279.857,325.334 C280.639,325.334 281.092,325.792 281.217,326.709 L281.217,351.225 L288.357,351.225 C289.264,351.225 289.751,351.712 289.818,352.686 C289.886,353.66 289.399,354.147 288.357,354.147 L281.217,354.147 L281.217,354.928 C281.217,357.532 281.868,359.746 283.17,361.568 C284.67,363.391 286.43,364.303 288.451,364.303 C289.232,364.303 289.623,364.693 289.623,365.475 C289.623,366.256 289.087,366.647 288.014,366.647 C286.941,366.647 284.938,366.436 282.006,366.014 C279.074,365.592 276.811,365.381 275.217,365.381 C273.623,365.381 271.41,365.592 268.576,366.014 C265.743,366.436 263.613,366.647 262.186,366.647 C261.404,366.647 261.014,366.256 261.014,365.475 C261.014,364.693 261.404,364.303 262.186,364.303 C264.196,364.303 265.951,363.391 267.451,361.568 C268.816,359.683 269.498,357.469 269.498,354.928 L269.498,354.147 L252.811,354.147 C251.956,354.147 251.219,353.92 250.6,353.467 C249.98,353.014 249.67,352.592 249.67,352.201 C249.67,351.811 250.485,350.639 252.115,348.686 C253.745,346.732 256.074,342.972 259.1,337.404 C262.126,331.837 263.639,325.438 263.639,318.209 C263.639,317.167 264.097,316.647 265.014,316.647 C265.212,316.647 265.521,316.712 265.943,316.842 C266.365,316.972 267.277,317.183 268.678,317.475 C270.079,317.766 271.527,317.912 273.021,317.912"/>
<path class="TimeSig" d="M273.021,368.084 C274.516,368.084 275.949,367.858 277.318,367.404 C278.688,366.951 279.665,366.725 280.248,366.725 C280.831,366.725 281.222,367.079 281.42,367.787 C281.42,367.86 281.352,368.058 281.217,368.381 L252.811,401.397 L269.498,401.397 L269.498,388.303 C269.498,386.678 270.446,385.506 272.342,384.787 C274.29,384.068 276.503,381.173 278.982,376.1 C279.17,375.704 279.462,375.506 279.857,375.506 C280.639,375.506 281.092,375.964 281.217,376.881 L281.217,401.397 L288.357,401.397 C289.264,401.397 289.751,401.884 289.818,402.858 C289.886,403.831 289.399,404.318 288.357,404.318 L281.217,404.318 L281.217,405.1 C281.217,407.704 281.868,409.917 283.17,411.74 C284.67,413.563 286.43,414.475 288.451,414.475 C289.232,414.475 289.623,414.865 289.623,415.647 C289.623,416.428 289.087,416.818 288.014,416.818 C286.941,416.818 284.938,416.608 282.006,416.186 C279.074,415.764 276.811,415.553 275.217,415.553 C273.623,415.553 271.41,415.764 268.576,416.186 C265.743,416.608 263.613,416.818 262.186,416.818 C261.404,416.818 261.014,416.428 261.014,415.647 C261.014,414.865 261.404,414.475 262.186,414.475 C264.196,414.475 265.951,413.563 267.451,411.74 C268.816,409.855 269.498,407.641 269.498,405.1 L269.498,404.318 L252.811,404.318 C251.956,404.318 251.219,404.092 250.6,403.639 C249.98,403.186 249.67,402.764 249.67,402.373 C249.67,401.983 250.485,400.811 252.115,398.858 C253.745,396.904 256.074,393.144 259.1,387.576 C262.126,382.009 263.639,375.61 263.639,368.381 C263.639,367.339 264.097,366.818 265.014,366.818 C265.212,366.818 265.521,366.884 265.943,367.014 C266.365,367.144 267.277,367.355 268.678,367.647 C270.079,367.938 271.527,368.084 273.021,368.084"/>
<path class="Rest" d="M2588.87,841.733 L2553.32,841.733 C2552.66,841.733 2552.34,841.405 2552.34,840.748 L2552.34,827.077 C2552.34,826.431 2552.66,826.108 2553.32,826.108 L2588.87,826.108 C2589.51,826.108 2589.84,826.431 2589.84,827.077 L2589.84,840.748 C2589.84,841.405 2589.51,841.733 2588.87,841.733"/>
<path class="Rest" d="M2563.65,361.451 C2562.99,360.608 2562.66,359.696 2562.66,358.717 C2562.66,356.967 2564.75,354.529 2568.93,351.404 C2573.02,348.206 2575.07,344.561 2575.07,340.467 C2575.07,338.05 2574.22,335.837 2572.54,333.826 L2569.02,329.623 C2568.76,329.363 2568.63,329.037 2568.63,328.647 C2568.63,328.256 2568.82,327.899 2569.21,327.576 C2569.67,327.243 2570.09,327.076 2570.48,327.076 C2570.87,327.076 2571.2,327.274 2571.46,327.67 L2586.6,345.639 C2587.25,346.483 2587.57,347.41 2587.57,348.42 C2587.57,349.43 2587.03,350.522 2585.96,351.693 C2584.89,352.865 2583.38,354.233 2581.43,355.795 C2579.93,356.701 2578.51,358.131 2577.18,360.084 C2575.84,362.037 2575.18,364.253 2575.18,366.733 C2575.18,369.212 2575.96,371.394 2577.52,373.279 L2585.91,383.139 C2586.11,383.337 2586.24,383.662 2586.3,384.115 C2586.37,384.568 2586.2,384.959 2585.81,385.287 C2585.42,385.615 2585.11,385.779 2584.89,385.779 C2584.66,385.779 2584.08,385.404 2583.13,384.654 C2582.18,383.904 2580.85,383.173 2579.12,382.459 C2577.4,381.746 2575.69,381.389 2574,381.389 C2572.31,381.389 2570.97,381.844 2570,382.756 C2569.02,383.667 2568.54,385.766 2568.54,389.053 C2568.54,392.339 2569.48,395.123 2571.37,397.404 C2571.56,397.665 2571.6,397.956 2571.47,398.279 C2571.34,398.602 2571.08,398.764 2570.69,398.764 C2570.3,398.764 2569.3,397.561 2567.7,395.154 C2566.1,392.748 2564.57,389.899 2563.11,386.608 C2561.64,383.316 2560.91,380.566 2560.91,378.358 C2560.91,375.555 2562.34,374.154 2565.21,374.154 C2568.07,374.154 2571.95,375.196 2576.83,377.279 L2563.65,361.451 "/>
<path class="Rest" d="M2448.7,361.451 C2448.04,360.608 2447.71,359.696 2447.71,358.717 C2447.71,356.967 2449.8,354.529 2453.98,351.404 C2458.07,348.206 2460.12,344.561 2460.12,340.467 C2460.12,338.05 2459.28,335.837 2457.59,333.826 L2454.07,329.623 C2453.81,329.363 2453.68,329.037 2453.68,328.647 C2453.68,328.256 2453.88,327.899 2454.26,327.576 C2454.72,327.243 2455.14,327.076 2455.53,327.076 C2455.93,327.076 2456.25,327.274 2456.51,327.67 L2471.65,345.639 C2472.3,346.483 2472.62,347.41 2472.62,348.42 C2472.62,349.43 2472.08,350.522 2471.01,351.693 C2469.94,352.865 2468.43,354.233 2466.48,355.795 C2464.98,356.701 2463.56,358.131 2462.23,360.084 C2460.9,362.037 2460.23,364.253 2460.23,366.733 C2460.23,369.212 2461.01,371.394 2462.57,373.279 L2470.96,383.139 C2471.16,383.337 2471.29,383.662 2471.35,384.115 C2471.42,384.568 2471.25,384.959 2470.86,385.287 C2470.47,385.615 2470.16,385.779 2469.94,385.779 C2469.72,385.779 2469.13,385.404 2468.18,384.654 C2467.23,383.904 2465.9,383.173 2464.18,382.459 C2462.45,381.746 2460.74,381.389 2459.05,381.389 C2457.36,381.389 2456.02,381.844 2455.05,382.756 C2454.08,383.667 2453.59,385.766 2453.59,389.053 C2453.59,392.339 2454.53,395.123 2456.42,397.404 C2456.62,397.665 2456.65,397.956 2456.52,398.279 C2456.39,398.602 2456.13,398.764 2455.74,398.764 C2455.35,398.764 2454.35,397.561 2452.75,395.154 C2451.15,392.748 2449.62,389.899 2448.16,386.608 C2446.7,383.316 2445.96,380.566 2445.96,378.358 C2445.96,375.555 2447.4,374.154 2450.26,374.154 C2453.13,374.154 2457,375.196 2461.89,377.279 L2448.7,361.451 "/>
<path class="Rest" d="M1279.53,361.451 C1278.88,360.608 1278.55,359.696 1278.55,358.717 C1278.55,356.967 1280.64,354.529 1284.81,351.404 C1288.91,348.206 1290.95,344.561 1290.95,340.467 C1290.95,338.05 1290.11,335.837 1288.42,333.826 L1284.91,329.623 C1284.65,329.363 1284.52,329.037 1284.52,328.647 C1284.52,328.256 1284.71,327.899 1285.1,327.576 C1285.55,327.243 1285.98,327.076 1286.37,327.076 C1286.76,327.076 1287.09,327.274 1287.35,327.67 L1302.49,345.639 C1303.13,346.483 1303.45,347.41 1303.45,348.42 C1303.45,349.43 1302.92,350.522 1301.85,351.693 C1300.77,352.865 1299.26,354.233 1297.31,355.795 C1295.81,356.701 1294.4,358.131 1293.06,360.084 C1291.73,362.037 1291.06,364.253 1291.06,366.733 C1291.06,369.212 1291.85,371.394 1293.41,373.279 L1301.8,383.139 C1302,383.337 1302.13,383.662 1302.19,384.115 C1302.25,384.568 1302.09,384.959 1301.7,385.287 C1301.31,385.615 1301,385.779 1300.78,385.779 C1300.55,385.779 1299.97,385.404 1299.02,384.654 C1298.07,383.904 1296.73,383.173 1295.01,382.459 C1293.29,381.746 1291.58,381.389 1289.88,381.389 C1288.19,381.389 1286.86,381.844 1285.88,382.756 C1284.91,383.667 1284.42,385.766 1284.42,389.053 C1284.42,392.339 1285.37,395.123 1287.25,397.404 C1287.45,397.665 1287.48,397.956 1287.35,398.279 C1287.22,398.602 1286.96,398.764 1286.57,398.764 C1286.18,398.764 1285.19,397.561 1283.59,395.154 C1281.99,392.748 1280.46,389.899 1278.99,386.608 C1277.53,383.316 1276.8,380.566 1276.8,378.358 C1276.8,375.555 1278.23,374.154 1281.1,374.154 C1283.96,374.154 1287.84,375.196 1292.72,377.279 L1279.53,361.451 "/>
<path class="Rest" d="M1394.48,361.451 C1393.82,360.608 1393.5,359.696 1393.5,358.717 C1393.5,356.967 1395.59,354.529 1399.76,351.404 C1403.86,348.206 1405.9,344.561 1405.9,340.467 C1405.9,338.05 1405.06,335.837 1403.37,333.826 L1399.86,329.623 C1399.6,329.363 1399.47,329.037 1399.47,328.647 C1399.47,328.256 1399.66,327.899 1400.04,327.576 C1400.5,327.243 1400.93,327.076 1401.32,327.076 C1401.71,327.076 1402.03,327.274 1402.29,327.67 L1417.43,345.639 C1418.08,346.483 1418.4,347.41 1418.4,348.42 C1418.4,349.43 1417.87,350.522 1416.79,351.693 C1415.72,352.865 1414.21,354.233 1412.26,355.795 C1410.76,356.701 1409.35,358.131 1408.01,360.084 C1406.68,362.037 1406.01,364.253 1406.01,366.733 C1406.01,369.212 1406.79,371.394 1408.36,373.279 L1416.75,383.139 C1416.94,383.337 1417.07,383.662 1417.14,384.115 C1417.2,384.568 1417.04,384.959 1416.65,385.287 C1416.25,385.615 1415.95,385.779 1415.72,385.779 C1415.5,385.779 1414.91,385.404 1413.97,384.654 C1413.02,383.904 1411.68,383.173 1409.96,382.459 C1408.23,381.746 1406.53,381.389 1404.83,381.389 C1403.14,381.389 1401.81,381.844 1400.83,382.756 C1399.86,383.667 1399.37,385.766 1399.37,389.053 C1399.37,392.339 1400.31,395.123 1402.2,397.404 C1402.4,397.665 1402.43,397.956 1402.3,398.279 C1402.17,398.602 1401.91,398.764 1401.52,398.764 C1401.13,398.764 1400.13,397.561 1398.54,395.154 C1396.94,392.748 1395.41,389.899 1393.94,386.608 C1392.48,383.316 1391.75,380.566 1391.75,378.358 C1391.75,375.555 1393.18,374.154 1396.04,374.154 C1398.91,374.154 1402.78,375.196 1407.67,377.279 L1394.48,361.451 "/>
<path class="Beam" fill-rule="evenodd" d="M1696.05,885.481 L1960.55,891.731 L1960.55,904.235 L1696.05,897.985 L1696.05,885.481 "/>
<path class="Beam" fill-rule="evenodd" d="M369.537,310.482 L449.419,310.482 L449.419,322.982 L369.537,322.982 L369.537,310.482 "/>
<path class="Beam" fill-rule="evenodd" d="M522.137,416.733 L755.284,416.733 L755.284,429.233 L522.137,429.233 L522.137,416.733 "/>
<path class="Beam" fill-rule="evenodd" d="M828.666,429.233 L1061.81,429.233 L1061.81,441.733 L828.666,441.733 L828.666,429.233 "/>
<path class="Beam" fill-rule="evenodd" d="M1538.7,310.482 L1618.58,310.482 L1618.58,322.982 L1538.7,322.982 L1538.7,310.482 "/>
<path class="Beam" fill-rule="evenodd" d="M1691.3,410.483 L1924.45,410.483 L1924.45,422.983 L1691.3,422.983 L1691.3,410.483 "/>
<path class="Beam" fill-rule="evenodd" d="M1997.83,416.733 L2230.98,416.733 L2230.98,429.233 L1997.83,429.233 L1997.83,416.733 "/>
<path class="Beam" fill-rule="evenodd" d="M2074.05,766.733 L2338.54,766.733 L2338.54,779.233 L2074.05,779.233 L2074.05,766.733 "/>
<path class="Beam" fill-rule="evenodd" d="M2678.2,404.233 L2758.09,404.233 L2758.09,416.733 L2678.2,416.733 L2678.2,404.233 "/>
<path class="Beam" fill-rule="evenodd" d="M244.732,860.483 L509.23,860.483 L509.23,872.983 L244.732,872.983 L244.732,860.483 "/>
<path class="Beam" fill-rule="evenodd" d="M593.062,916.731 L857.56,910.481 L857.56,922.985 L593.062,929.235 L593.062,916.731 "/>
<path class="Beam" fill-rule="evenodd" d="M970.392,879.231 L1234.89,885.481 L1234.89,897.985 L970.392,891.735 L970.392,879.231 "/>
<path class="Beam" fill-rule="evenodd" d="M1318.72,891.731 L1583.22,885.481 L1583.22,897.985 L1318.72,904.235 L1318.72,891.731 "/>
<path class="NoteDot" d="M2600.25,833.241 C2599.14,832.131 2598.59,830.795 2598.59,829.233 C2598.59,827.67 2599.14,826.334 2600.25,825.225 C2601.36,824.116 2602.7,823.561 2604.26,823.561 C2605.82,823.561 2607.15,824.116 2608.26,825.225 C2609.36,826.334 2609.91,827.67 2609.91,829.233 C2609.91,830.795 2609.36,832.131 2608.26,833.241 C2607.15,834.35 2605.82,834.905 2604.26,834.905 C2602.7,834.905 2601.36,834.35 2600.25,833.241"/>
</svg>
