<?xml version="1.0" encoding="UTF-8" standalone="no"?>
<svg width="2977.2px" height="4208.4px" viewBox="0 0 2977.2 4208.4"
 xmlns="http://www.w3.org/2000/svg" xmlns:xlink="http://www.w3.org/1999/xlink" version="1.2" baseProfile="tiny">
<title>We_Wish_You_A_Merry_Christma.mscx</title>
<desc>Generated by MuseScore Studio 4.3.1</desc>
<path class="" fill="#ffffff" fill-rule="evenodd" d="M0,0 L2977.2,0 L2977.2,4208.4 L0,4208.4 L0,0 "/>
<polyline class="StaffLines" fill="none" stroke="#000000" stroke-width="2.00" stroke-linejoin="bevel" points="141.732,566.733 2835.47,566.733"/>
<polyline class="StaffLines" fill="none" stroke="#000000" stroke-width="2.00" stroke-linejoin="bevel" points="141.732,591.733 2835.47,591.733"/>
<polyline class="StaffLines" fill="none" stroke="#000000" stroke-width="2.00" stroke-linejoin="bevel" points="141.732,616.733 2835.47,616.733"/>
<polyline class="StaffLines" fill="none" stroke="#000000" stroke-width="2.00" stroke-linejoin="bevel" points="141.732,641.733 2835.47,641.733"/>
<polyline class="StaffLines" fill="none" stroke="#000000" stroke-width="2.00" stroke-linejoin="bevel" points="141.732,666.733 2835.47,666.733"/>
<polyline class="StaffLines" fill="none" stroke="#000000" stroke-width="2.00" stroke-linejoin="bevel" points="141.732,1041.73 2835.47,1041.73"/>
<polyline class="StaffLines" fill="none" stroke="#000000" stroke-width="2.00" stroke-linejoin="bevel" points="141.732,1066.73 2835.47,1066.73"/>
<polyline class="StaffLines" fill="none" stroke="#000000" stroke-width="2.00" stroke-linejoin="bevel" points="141.732,1091.73 2835.47,1091.73"/>
<polyline class="StaffLines" fill="none" stroke="#000000" stroke-width="2.00" stroke-linejoin="bevel" points="141.732,1116.73 2835.47,1116.73"/>
<polyline class="StaffLines" fill="none" stroke="#000000" stroke-width="2.00" stroke-linejoin="bevel" points="141.732,1141.73 2835.47,1141.73"/>
<polyline class="StaffLines" fill="none" stroke="#000000" stroke-width="2.00" stroke-linejoin="bevel" points="141.732,1516.73 2835.47,1516.73"/>
<polyline class="StaffLines" fill="none" stroke="#000000" stroke-width="2.00" stroke-linejoin="bevel" points="141.732,1541.73 2835.47,1541.73"/>
<polyline class="StaffLines" fill="none" stroke="#000000" stroke-width="2.00" stroke-linejoin="bevel" points="141.732,1566.73 2835.47,1566.73"/>
<polyline class="StaffLines" fill="none" stroke="#000000" stroke-width="2.00" stroke-linejoin="bevel" points="141.732,1591.73 2835.47,1591.73"/>
<polyline class="StaffLines" fill="none" stroke="#000000" stroke-width="2.00" stroke-linejoin="bevel" points="141.732,1616.73 2835.47,1616.73"/>
<polyline class="StaffLines" fill="none" stroke="#000000" stroke-width="2.00" stroke-linejoin="bevel" points="141.732,1991.73 2835.47,1991.73"/>
<polyline class="StaffLines" fill="none" stroke="#000000" stroke-width="2.00" stroke-linejoin="bevel" points="141.732,2016.73 2835.47,2016.73"/>
<polyline class="StaffLines" fill="none" stroke="#000000" stroke-width="2.00" stroke-linejoin="bevel" points="141.732,2041.73 2835.47,2041.73"/>
<polyline class="StaffLines" fill="none" stroke="#000000" stroke-width="2.00" stroke-linejoin="bevel" points="141.732,2066.73 2835.47,2066.73"/>
<polyline class="StaffLines" fill="none" stroke="#000000" stroke-width="2.00" stroke-linejoin="bevel" points="141.732,2091.73 2835.47,2091.73"/>
<polyline class="StaffLines" fill="none" stroke="#000000" stroke-width="2.00" stroke-linejoin="bevel" points="141.732,2466.73 532.062,2466.73"/>
<polyline class="StaffLines" fill="none" stroke="#000000" stroke-width="2.00" stroke-linejoin="bevel" points="141.732,2491.73 532.062,2491.73"/>
<polyline class="StaffLines" fill="none" stroke="#000000" stroke-width="2.00" stroke-linejoin="bevel" points="141.732,2516.73 532.062,2516.73"/>
<polyline class="StaffLines" fill="none" stroke="#000000" stroke-width="2.00" stroke-linejoin="bevel" points="141.732,2541.73 532.062,2541.73"/>
<polyline class="StaffLines" fill="none" stroke="#000000" stroke-width="2.00" stroke-linejoin="bevel" points="141.732,2566.73 532.062,2566.73"/>
<path class="MeasureNumber" d="M146.514,983.874 C146.514,982.446 146.199,981.181 145.568,980.077 C144.938,978.972 144.178,978.118 143.287,977.514 C142.396,976.91 141.399,976.413 140.295,976.022 C139.191,975.631 138.23,975.376 137.412,975.256 C136.594,975.137 135.883,975.077 135.279,975.077 C134.956,975.077 134.795,974.967 134.795,974.749 C134.795,974.676 134.805,974.613 134.826,974.561 L139.185,965.264 L147.545,965.264 C147.972,965.264 148.313,965.196 148.568,965.061 C148.824,964.926 149.097,964.644 149.389,964.217 L149.748,964.499 L148.232,967.842 C148.128,968.061 147.821,968.17 147.31,968.17 L139.467,968.17 L137.795,971.608 C141.68,972.306 144.571,973.441 146.467,975.014 C148.363,976.587 149.31,978.894 149.31,981.936 C149.31,983.53 149.063,984.946 148.568,986.186 C148.074,987.426 147.446,988.423 146.685,989.178 C145.925,989.933 145.045,990.553 144.045,991.038 C143.045,991.522 142.087,991.853 141.17,992.03 C140.253,992.207 139.326,992.295 138.389,992.295 C136.899,992.295 135.714,992.074 134.834,991.631 C133.954,991.189 133.514,990.582 133.514,989.811 C133.514,988.821 134.087,988.327 135.232,988.327 C135.982,988.327 136.949,988.735 138.131,989.553 C139.313,990.371 140.253,990.78 140.951,990.78 C142.524,990.78 143.844,990.113 144.912,988.78 C145.98,987.446 146.514,985.811 146.514,983.874"/>
<path class="MeasureNumber" d="M128.045,2393.02 C127.566,2393.02 126.607,2393.31 125.17,2393.89 L125.17,2393.34 L132.373,2389.7 L132.685,2389.78 L132.685,2413.78 C132.685,2414.74 132.925,2415.36 133.404,2415.66 C133.883,2415.95 134.909,2416.11 136.482,2416.14 L136.482,2416.73 L125.451,2416.73 L125.451,2416.14 C126.941,2416.08 127.946,2415.85 128.467,2415.47 C128.988,2415.08 129.248,2414.27 129.248,2413.02 L129.248,2394.89 C129.248,2393.64 128.847,2393.02 128.045,2393.02 M158.67,2390.27 L158.67,2390.89 L150.201,2417.05 L147.592,2417.05 L155.514,2393.17 L146.842,2393.17 C145.748,2393.17 144.915,2393.37 144.342,2393.77 C143.769,2394.17 143.055,2395.06 142.201,2396.42 L141.514,2396.11 L143.873,2390.27 L158.67,2390.27 "/>
<path class="MeasureNumber" d="M134.092,1467.61 L133.967,1466.81 C137.008,1466.28 139.589,1464.98 141.709,1462.92 C143.829,1460.86 145.3,1458.2 146.123,1454.94 C144.154,1456.48 142.159,1457.25 140.139,1457.25 C137.972,1457.25 136.23,1456.5 134.912,1455.01 C133.594,1453.51 132.935,1451.55 132.935,1449.11 C132.935,1446.4 133.727,1444.14 135.31,1442.33 C136.894,1440.53 138.873,1439.62 141.248,1439.62 C143.831,1439.62 145.951,1440.68 147.607,1442.8 C149.264,1444.91 150.092,1447.63 150.092,1450.95 C150.092,1452.01 149.998,1453.11 149.81,1454.23 C149.623,1455.36 149.188,1456.69 148.506,1458.23 C147.824,1459.76 146.938,1461.14 145.85,1462.35 C144.761,1463.56 143.204,1464.67 141.178,1465.66 C139.152,1466.64 136.79,1467.3 134.092,1467.61 M141.576,1455.5 C142.076,1455.5 142.646,1455.43 143.287,1455.28 C143.928,1455.13 144.576,1454.81 145.232,1454.32 C145.889,1453.82 146.217,1453.22 146.217,1452.5 L146.217,1450.95 C146.217,1444.19 144.456,1440.81 140.935,1440.81 C140.102,1440.81 139.394,1441.03 138.81,1441.48 C138.227,1441.92 137.782,1442.5 137.475,1443.21 C137.167,1443.92 136.946,1444.65 136.81,1445.4 C136.675,1446.14 136.607,1446.93 136.607,1447.76 C136.607,1450.13 137.055,1452.01 137.951,1453.41 C138.847,1454.8 140.055,1455.5 141.576,1455.5"/>
<path class="MeasureNumber" d="M128.045,1918.01 C127.566,1918.01 126.607,1918.31 125.17,1918.89 L125.17,1918.34 L132.373,1914.7 L132.685,1914.78 L132.685,1938.78 C132.685,1939.74 132.925,1940.36 133.404,1940.66 C133.883,1940.95 134.909,1941.11 136.482,1941.14 L136.482,1941.73 L125.451,1941.73 L125.451,1941.14 C126.941,1941.08 127.946,1940.85 128.467,1940.47 C128.988,1940.08 129.248,1939.26 129.248,1938.01 L129.248,1919.89 C129.248,1918.64 128.847,1918.01 128.045,1918.01 M143.951,1938.61 C144.566,1938.61 145.48,1938.97 146.693,1939.69 C147.907,1940.42 148.967,1940.78 149.873,1940.78 C151.342,1940.78 152.581,1940.21 153.592,1939.07 C154.602,1937.93 155.107,1936.53 155.107,1934.86 C155.107,1933.82 154.928,1932.9 154.568,1932.11 C154.209,1931.32 153.751,1930.7 153.193,1930.26 C152.636,1929.83 151.969,1929.47 151.193,1929.19 C150.417,1928.92 149.691,1928.74 149.014,1928.66 C148.337,1928.57 147.613,1928.53 146.842,1928.53 L146.842,1928.01 C147.748,1927.69 148.527,1927.38 149.178,1927.07 C149.829,1926.76 150.514,1926.35 151.232,1925.84 C151.951,1925.32 152.506,1924.69 152.896,1923.94 C153.287,1923.19 153.482,1922.33 153.482,1921.37 C153.482,1920.12 153.074,1919.1 152.256,1918.3 C151.438,1917.49 150.378,1917.09 149.076,1917.09 C147.826,1917.09 146.727,1917.43 145.779,1918.12 C144.831,1918.8 143.946,1919.87 143.123,1921.34 L142.514,1921.17 C143.212,1919.29 144.154,1917.74 145.342,1916.52 C146.529,1915.31 148.212,1914.7 150.389,1914.7 C152.232,1914.7 153.735,1915.21 154.896,1916.22 C156.058,1917.23 156.639,1918.55 156.639,1920.17 C156.639,1921.26 156.357,1922.23 155.795,1923.05 C155.232,1923.88 154.258,1924.76 152.873,1925.7 C154.477,1926.39 155.732,1927.27 156.639,1928.34 C157.545,1929.42 157.998,1930.95 157.998,1932.95 C157.998,1935.79 156.951,1938.05 154.857,1939.75 C152.764,1941.45 150.128,1942.3 146.951,1942.3 C145.566,1942.3 144.467,1942.09 143.654,1941.67 C142.842,1941.25 142.435,1940.7 142.435,1940.01 C142.435,1939.59 142.576,1939.25 142.857,1938.99 C143.139,1938.74 143.503,1938.61 143.951,1938.61"/>
<polyline class="BarLine" fill="none" stroke="#000000" stroke-width="4.00" stroke-linejoin="bevel" points="2833.47,1040.73 2833.47,1142.73"/>
<polyline class="BarLine" fill="none" stroke="#000000" stroke-width="4.00" stroke-linejoin="bevel" points="2833.47,565.733 2833.47,667.733"/>
<polyline class="BarLine" fill="none" stroke="#000000" stroke-width="4.00" stroke-linejoin="bevel" points="2041.88,565.733 2041.88,667.733"/>
<polyline class="BarLine" fill="none" stroke="#000000" stroke-width="4.00" stroke-linejoin="bevel" points="2226.14,1990.73 2226.14,2092.73"/>
<polyline class="BarLine" fill="none" stroke="#000000" stroke-width="4.00" stroke-linejoin="bevel" points="1554.54,1990.73 1554.54,2092.73"/>
<polyline class="BarLine" fill="none" stroke="#000000" stroke-width="4.00" stroke-linejoin="bevel" points="892.837,1040.73 892.837,1142.73"/>
<polyline class="BarLine" fill="none" stroke="#000000" stroke-width="4.00" stroke-linejoin="bevel" points="1601.5,1040.73 1601.5,1142.73"/>
<polyline class="BarLine" fill="none" stroke="#000000" stroke-width="4.00" stroke-linejoin="bevel" points="1388.95,565.733 1388.95,667.733"/>
<polyline class="BarLine" fill="none" stroke="#000000" stroke-width="4.00" stroke-linejoin="bevel" points="818.692,1990.73 818.692,2092.73"/>
<polyline class="BarLine" fill="none" stroke="#000000" stroke-width="4.00" stroke-linejoin="bevel" points="2248.38,1040.73 2248.38,1142.73"/>
<polyline class="BarLine" fill="none" stroke="#000000" stroke-width="4.00" stroke-linejoin="bevel" points="499.312,2465.73 499.312,2567.73"/>
<polyline class="BarLine" fill="none" stroke="#000000" stroke-width="12.50" stroke-linejoin="bevel" points="525.812,2465.73 525.812,2567.73"/>
<polyline class="BarLine" fill="none" stroke="#000000" stroke-width="4.00" stroke-linejoin="bevel" points="2147.52,1515.73 2147.52,1617.73"/>
<polyline class="BarLine" fill="none" stroke="#000000" stroke-width="4.00" stroke-linejoin="bevel" points="2833.47,1515.73 2833.47,1617.73"/>
<polyline class="BarLine" fill="none" stroke="#000000" stroke-width="4.00" stroke-linejoin="bevel" points="884.207,1515.73 884.207,1617.73"/>
<polyline class="BarLine" fill="none" stroke="#000000" stroke-width="4.00" stroke-linejoin="bevel" points="2833.47,1990.73 2833.47,2092.73"/>
<polyline class="BarLine" fill="none" stroke="#000000" stroke-width="4.00" stroke-linejoin="bevel" points="1570.16,1515.73 1570.16,1617.73"/>
<polyline class="BarLine" fill="none" stroke="#000000" stroke-width="4.00" stroke-linejoin="bevel" points="597.366,565.733 597.366,667.733"/>
<polyline class="LedgerLine" fill="none" stroke="#000000" stroke-width="4.00" stroke-linejoin="bevel" points="910.337,1016.73 962.251,1016.73"/>
<polyline class="LedgerLine" fill="none" stroke="#000000" stroke-width="4.00" stroke-linejoin="bevel" points="1095.7,1016.73 1147.61,1016.73"/>
<polyline class="LedgerLine" fill="none" stroke="#000000" stroke-width="4.00" stroke-linejoin="bevel" points="1572.04,1966.73 1623.96,1966.73"/>
<polyline class="LedgerLine" fill="none" stroke="#000000" stroke-width="4.00" stroke-linejoin="bevel" points="1219.28,1016.73 1271.19,1016.73"/>
<polyline class="LedgerLine" fill="none" stroke="#000000" stroke-width="4.00" stroke-linejoin="bevel" points="1572.04,1941.73 1623.96,1941.73"/>
<polyline class="LedgerLine" fill="none" stroke="#000000" stroke-width="4.00" stroke-linejoin="bevel" points="1342.85,1016.73 1394.77,1016.73"/>
<polyline class="LedgerLine" fill="none" stroke="#000000" stroke-width="4.00" stroke-linejoin="bevel" points="2406.01,541.733 2457.93,541.733"/>
<polyline class="LedgerLine" fill="none" stroke="#000000" stroke-width="4.00" stroke-linejoin="bevel" points="836.192,1966.73 888.106,1966.73"/>
<polyline class="Stem" fill="none" stroke="#000000" stroke-width="3.25" stroke-linejoin="bevel" points="1249.92,585.102 1249.92,647.911"/>
<polyline class="Stem" fill="none" stroke="#000000" stroke-width="3.25" stroke-linejoin="bevel" points="2124.43,1085.1 2124.43,1147.98"/>
<polyline class="Stem" fill="none" stroke="#000000" stroke-width="3.25" stroke-linejoin="bevel" points="847.317,1972.6 847.317,2054.23"/>
<polyline class="Stem" fill="none" stroke="#000000" stroke-width="3.25" stroke-linejoin="bevel" points="2000.85,1085.1 2000.85,1147.98"/>
<polyline class="Stem" fill="none" stroke="#000000" stroke-width="3.25" stroke-linejoin="bevel" points="2447.54,1985.1 2447.54,2066.73"/>
<polyline class="Stem" fill="none" stroke="#000000" stroke-width="3.25" stroke-linejoin="bevel" points="2277,1072.6 2277,1154.23"/>
<polyline class="Stem" fill="none" stroke="#000000" stroke-width="3.25" stroke-linejoin="bevel" points="625.54,1985.1 625.54,2066.73"/>
<polyline class="Stem" fill="none" stroke="#000000" stroke-width="3.25" stroke-linejoin="bevel" points="1815.49,1072.6 1815.49,1154.23"/>
<polyline class="Stem" fill="none" stroke="#000000" stroke-width="3.25" stroke-linejoin="bevel" points="1630.13,1047.6 1630.13,1129.23"/>
<polyline class="Stem" fill="none" stroke="#000000" stroke-width="3.25" stroke-linejoin="bevel" points="2462.37,1035.1 2462.37,1116.73"/>
<polyline class="Stem" fill="none" stroke="#000000" stroke-width="3.25" stroke-linejoin="bevel" points="2647.73,1060.1 2647.73,1141.73"/>
<polyline class="Stem" fill="none" stroke="#000000" stroke-width="3.25" stroke-linejoin="bevel" points="833.969,572.602 833.969,641.661"/>
<polyline class="Stem" fill="none" stroke="#000000" stroke-width="3.25" stroke-linejoin="bevel" points="2614.11,1547.6 2614.11,1629.23"/>
<polyline class="Stem" fill="none" stroke="#000000" stroke-width="3.25" stroke-linejoin="bevel" points="2176.14,1522.6 2176.14,1604.23"/>
<polyline class="Stem" fill="none" stroke="#000000" stroke-width="3.25" stroke-linejoin="bevel" points="1928.16,1535.1 1928.16,1616.73"/>
<polyline class="Stem" fill="none" stroke="#000000" stroke-width="3.25" stroke-linejoin="bevel" points="1598.78,1534.13 1598.78,1616.73"/>
<polyline class="Stem" fill="none" stroke="#000000" stroke-width="3.25" stroke-linejoin="bevel" points="335.471,2471.63 335.471,2554.23"/>
<polyline class="Stem" fill="none" stroke="#000000" stroke-width="3.25" stroke-linejoin="bevel" points="389.014,610.102 389.014,685.483"/>
<polyline class="Stem" fill="none" stroke="#000000" stroke-width="3.25" stroke-linejoin="bevel" points="2395.13,1535.1 2395.13,1616.73"/>
<polyline class="Stem" fill="none" stroke="#000000" stroke-width="3.25" stroke-linejoin="bevel" points="1350.8,1522.6 1350.8,1604.23"/>
<polyline class="Stem" fill="none" stroke="#000000" stroke-width="3.25" stroke-linejoin="bevel" points="1131.82,1522.6 1131.82,1604.23"/>
<polyline class="Stem" fill="none" stroke="#000000" stroke-width="3.25" stroke-linejoin="bevel" points="335.471,2034.13 335.471,2110.48"/>
<polyline class="Stem" fill="none" stroke="#000000" stroke-width="3.25" stroke-linejoin="bevel" points="912.832,1522.6 912.832,1604.23"/>
<polyline class="Stem" fill="none" stroke="#000000" stroke-width="3.25" stroke-linejoin="bevel" points="625.991,572.602 625.991,654.233"/>
<polyline class="Stem" fill="none" stroke="#000000" stroke-width="3.25" stroke-linejoin="bevel" points="664.848,1560.1 664.848,1635.48"/>
<polyline class="Stem" fill="none" stroke="#000000" stroke-width="3.25" stroke-linejoin="bevel" points="335.471,1521.63 335.471,1604.23"/>
<polyline class="Stem" fill="none" stroke="#000000" stroke-width="3.25" stroke-linejoin="bevel" points="2278.49,560.102 2278.49,622.911"/>
<polyline class="Stem" fill="none" stroke="#000000" stroke-width="3.25" stroke-linejoin="bevel" points="972.621,560.102 972.621,635.554"/>
<polyline class="Stem" fill="none" stroke="#000000" stroke-width="3.25" stroke-linejoin="bevel" points="2640.32,2010.1 2640.32,2091.73"/>
<polyline class="Stem" fill="none" stroke="#000000" stroke-width="3.25" stroke-linejoin="bevel" points="1111.27,572.602 1111.27,641.804"/>
<polyline class="Stem" fill="none" stroke="#000000" stroke-width="3.25" stroke-linejoin="bevel" points="2417.14,547.602 2417.14,616.804"/>
<polyline class="Stem" fill="none" stroke="#000000" stroke-width="3.25" stroke-linejoin="bevel" points="336.373,1060.1 336.373,1141.73"/>
<polyline class="Stem" fill="none" stroke="#000000" stroke-width="3.25" stroke-linejoin="bevel" points="1833.53,597.602 1833.53,679.233"/>
<polyline class="Stem" fill="none" stroke="#000000" stroke-width="3.25" stroke-linejoin="bevel" points="521.736,1060.1 521.736,1141.73"/>
<polyline class="Stem" fill="none" stroke="#000000" stroke-width="3.25" stroke-linejoin="bevel" points="707.099,1060.1 707.099,1141.73"/>
<polyline class="Stem" fill="none" stroke="#000000" stroke-width="3.25" stroke-linejoin="bevel" points="1417.58,597.602 1417.58,679.233"/>
<polyline class="Stem" fill="none" stroke="#000000" stroke-width="3.25" stroke-linejoin="bevel" points="2555.79,560.102 2555.79,635.554"/>
<polyline class="Stem" fill="none" stroke="#000000" stroke-width="3.25" stroke-linejoin="bevel" points="1625.55,597.602 1625.55,679.233"/>
<polyline class="Stem" fill="none" stroke="#000000" stroke-width="3.25" stroke-linejoin="bevel" points="2254.76,2022.6 2254.76,2104.23"/>
<polyline class="Stem" fill="none" stroke="#000000" stroke-width="3.25" stroke-linejoin="bevel" points="921.462,1022.6 921.462,1104.23"/>
<polyline class="Stem" fill="none" stroke="#000000" stroke-width="3.25" stroke-linejoin="bevel" points="1425.65,1997.6 1425.65,2066.73"/>
<polyline class="Stem" fill="none" stroke="#000000" stroke-width="3.25" stroke-linejoin="bevel" points="1775.95,2035.1 1775.95,2110.48"/>
<polyline class="Stem" fill="none" stroke="#000000" stroke-width="3.25" stroke-linejoin="bevel" points="1106.83,1022.6 1106.83,1091.65"/>
<polyline class="Stem" fill="none" stroke="#000000" stroke-width="3.25" stroke-linejoin="bevel" points="1297.13,1997.6 1297.13,2066.73"/>
<polyline class="Stem" fill="none" stroke="#000000" stroke-width="3.25" stroke-linejoin="bevel" points="1968.72,2035.1 1968.72,2097.98"/>
<polyline class="Stem" fill="none" stroke="#000000" stroke-width="3.25" stroke-linejoin="bevel" points="1583.17,1947.6 1583.17,2041.73"/>
<polyline class="Stem" fill="none" stroke="#000000" stroke-width="3.25" stroke-linejoin="bevel" points="1230.4,1010.1 1230.4,1085.56"/>
<polyline class="Stem" fill="none" stroke="#000000" stroke-width="3.25" stroke-linejoin="bevel" points="1353.98,1022.6 1353.98,1091.81"/>
<polyline class="Stem" fill="none" stroke="#000000" stroke-width="3.25" stroke-linejoin="bevel" points="2097.24,2035.1 2097.24,2097.98"/>
<polyline class="Stem" fill="none" stroke="#000000" stroke-width="3.25" stroke-linejoin="bevel" points="1168.61,1985.1 1168.61,2060.48"/>
<polyline class="Stem" fill="none" stroke="#000000" stroke-width="3.25" stroke-linejoin="bevel" points="2070.51,560.102 2070.51,641.733"/>
<polyline class="Stem" fill="none" stroke="#000000" stroke-width="3.25" stroke-linejoin="bevel" points="1477.55,1035.1 1477.55,1097.9"/>
<polyline class="Stem" fill="none" stroke="#000000" stroke-width="3.25" stroke-linejoin="bevel" points="1040.09,1985.1 1040.09,2060.48"/>
<polyline class="Stem" fill="none" stroke="#000000" stroke-width="3.25" stroke-linejoin="bevel" points="2694.44,572.602 2694.44,641.661"/>
<path class="Note" d="M1796.29,2015.47 C1799.41,2015.47 1802.02,2016.25 1804.1,2017.81 C1806.19,2019.37 1807.23,2021.62 1807.23,2024.55 C1807.23,2029.04 1804.9,2033.23 1800.25,2037.14 C1795.6,2041.05 1790.6,2043 1785.26,2043 C1782.13,2043 1779.5,2042.19 1777.35,2040.56 C1775.33,2038.8 1774.32,2036.59 1774.32,2033.92 C1774.32,2029.56 1776.63,2025.39 1781.26,2021.42 C1785.88,2017.45 1790.89,2015.47 1796.29,2015.47"/>
<path class="Note" d="M2415.47,1515.47 C2418.6,1515.47 2421.2,1516.25 2423.28,1517.81 C2425.37,1519.37 2426.41,1521.62 2426.41,1524.55 C2426.41,1529.04 2424.08,1533.23 2419.43,1537.14 C2414.78,1541.05 2409.78,1543 2404.44,1543 C2401.31,1543 2398.68,1542.19 2396.53,1540.56 C2394.51,1538.8 2393.5,1536.59 2393.5,1533.92 C2393.5,1529.56 2395.81,1525.39 2400.44,1521.42 C2405.06,1517.45 2410.07,1515.47 2415.47,1515.47"/>
<path class="Note" d="M2660.66,1990.47 C2663.78,1990.47 2666.39,1991.25 2668.47,1992.81 C2670.56,1994.37 2671.6,1996.62 2671.6,1999.55 C2671.6,2004.04 2669.27,2008.23 2664.62,2012.14 C2659.97,2016.05 2654.97,2018 2649.63,2018 C2646.5,2018 2643.87,2017.19 2641.72,2015.56 C2639.7,2013.8 2638.69,2011.59 2638.69,2008.92 C2638.69,2004.56 2641,2000.39 2645.63,1996.42 C2650.25,1992.45 2655.26,1990.47 2660.66,1990.47"/>
<path class="Note" d="M2196.49,1502.97 C2199.61,1502.97 2202.22,1503.75 2204.3,1505.31 C2206.38,1506.87 2207.42,1509.12 2207.42,1512.05 C2207.42,1516.54 2205.1,1520.73 2200.45,1524.64 C2195.8,1528.55 2190.8,1530.5 2185.46,1530.5 C2182.33,1530.5 2179.7,1529.69 2177.55,1528.06 C2175.53,1526.3 2174.52,1524.09 2174.52,1521.42 C2174.52,1517.06 2176.83,1512.89 2181.46,1508.92 C2186.08,1504.95 2191.09,1502.97 2196.49,1502.97"/>
<path class="Note" d="M1989.07,2015.47 C1992.19,2015.47 1994.8,2016.25 1996.88,2017.81 C1998.96,2019.37 2000,2021.62 2000,2024.55 C2000,2029.04 1997.68,2033.23 1993.03,2037.14 C1988.38,2041.05 1983.38,2043 1978.04,2043 C1974.91,2043 1972.28,2042.19 1970.13,2040.56 C1968.11,2038.8 1967.1,2036.59 1967.1,2033.92 C1967.1,2029.56 1969.41,2025.39 1974.04,2021.42 C1978.66,2017.45 1983.67,2015.47 1989.07,2015.47"/>
<path class="Note" d="M341.268,2477.37 C343.153,2477.37 347.109,2475.42 353.135,2471.52 C359.161,2467.61 362.71,2464.99 363.783,2463.66 C364.856,2462.32 365.393,2461.13 365.393,2460.09 C365.393,2459.05 364.968,2458.12 364.119,2457.31 C363.27,2456.5 362.294,2456.09 361.19,2456.09 C359.242,2456.09 355.255,2458.06 349.229,2462 C343.203,2465.94 339.669,2468.56 338.627,2469.86 C337.585,2471.16 337.065,2472.33 337.065,2473.37 C337.065,2474.42 337.473,2475.34 338.291,2476.16 C339.109,2476.97 340.101,2477.37 341.268,2477.37 M360.221,2452.97 C365.815,2452.97 368.611,2455.37 368.611,2460.19 C368.611,2462.53 367.929,2465.25 366.565,2468.34 C365.2,2471.44 363.377,2473.8 361.096,2475.42 C356.085,2478.81 349.804,2480.5 342.252,2480.5 C336.648,2480.5 333.846,2478.09 333.846,2473.28 C333.846,2471.13 334.512,2468.47 335.846,2465.27 C337.179,2462.08 339.018,2459.67 341.361,2458.05 C346.382,2454.66 352.669,2452.97 360.221,2452.97"/>
<path class="Note" d="M2482.71,1015.47 C2485.84,1015.47 2488.44,1016.25 2490.52,1017.81 C2492.61,1019.37 2493.65,1021.62 2493.65,1024.55 C2493.65,1029.04 2491.32,1033.23 2486.67,1037.14 C2482.02,1041.05 2477.02,1043 2471.68,1043 C2468.55,1043 2465.92,1042.19 2463.77,1040.56 C2461.75,1038.8 2460.74,1036.59 2460.74,1033.92 C2460.74,1029.56 2463.05,1025.39 2467.68,1021.42 C2472.3,1017.45 2477.32,1015.47 2482.71,1015.47"/>
<path class="Note" d="M1603.51,1927.97 C1606.64,1927.97 1609.24,1928.75 1611.32,1930.31 C1613.41,1931.87 1614.45,1934.12 1614.45,1937.05 C1614.45,1941.54 1612.12,1945.73 1607.47,1949.64 C1602.82,1953.55 1597.82,1955.5 1592.48,1955.5 C1589.36,1955.5 1586.72,1954.69 1584.57,1953.06 C1582.55,1951.3 1581.54,1949.09 1581.54,1946.42 C1581.54,1942.06 1583.86,1937.89 1588.48,1933.92 C1593.11,1929.95 1598.12,1927.97 1603.51,1927.97"/>
<path class="Note" d="M2117.59,2015.47 C2120.71,2015.47 2123.31,2016.25 2125.4,2017.81 C2127.48,2019.37 2128.52,2021.62 2128.52,2024.55 C2128.52,2029.04 2126.2,2033.23 2121.55,2037.14 C2116.9,2041.05 2111.9,2043 2106.55,2043 C2103.43,2043 2100.79,2042.19 2098.65,2040.56 C2096.63,2038.8 2095.62,2036.59 2095.62,2033.92 C2095.62,2029.56 2097.93,2025.39 2102.55,2021.42 C2107.18,2017.45 2112.19,2015.47 2117.59,2015.47"/>
<path class="Note" d="M2634.45,1527.97 C2637.58,1527.97 2640.18,1528.75 2642.27,1530.31 C2644.35,1531.87 2645.39,1534.12 2645.39,1537.05 C2645.39,1541.54 2643.07,1545.73 2638.41,1549.64 C2633.76,1553.55 2628.77,1555.5 2623.42,1555.5 C2620.3,1555.5 2617.66,1554.69 2615.52,1553.06 C2613.5,1551.3 2612.48,1549.09 2612.48,1546.42 C2612.48,1542.06 2614.8,1537.89 2619.42,1533.92 C2624.05,1529.95 2629.06,1527.97 2634.45,1527.97"/>
<path class="Note" d="M1445.99,1977.97 C1449.12,1977.97 1451.72,1978.75 1453.81,1980.31 C1455.89,1981.87 1456.93,1984.12 1456.93,1987.05 C1456.93,1991.54 1454.61,1995.73 1449.95,1999.64 C1445.3,2003.55 1440.31,2005.5 1434.96,2005.5 C1431.84,2005.5 1429.2,2004.69 1427.06,2003.06 C1425.04,2001.3 1424.03,1999.09 1424.03,1996.42 C1424.03,1992.06 1426.34,1987.89 1430.96,1983.92 C1435.59,1979.95 1440.6,1977.97 1445.99,1977.97"/>
<path class="Note" d="M341.268,2039.87 C343.153,2039.87 347.109,2037.92 353.135,2034.01 C359.161,2030.11 362.71,2027.49 363.783,2026.16 C364.856,2024.82 365.393,2023.63 365.393,2022.59 C365.393,2021.55 364.968,2020.62 364.119,2019.81 C363.27,2019 362.294,2018.59 361.19,2018.59 C359.242,2018.59 355.255,2020.56 349.229,2024.5 C343.203,2028.44 339.669,2031.06 338.627,2032.36 C337.585,2033.66 337.065,2034.83 337.065,2035.87 C337.065,2036.92 337.473,2037.84 338.291,2038.66 C339.109,2039.47 340.101,2039.87 341.268,2039.87 M360.221,2015.47 C365.815,2015.47 368.611,2017.87 368.611,2022.69 C368.611,2025.03 367.929,2027.75 366.565,2030.84 C365.2,2033.94 363.377,2036.3 361.096,2037.92 C356.085,2041.31 349.804,2043 342.252,2043 C336.648,2043 333.846,2040.59 333.846,2035.78 C333.846,2033.63 334.512,2030.97 335.846,2027.77 C337.179,2024.58 339.018,2022.17 341.361,2020.55 C346.382,2017.16 352.669,2015.47 360.221,2015.47"/>
<path class="Note" d="M1317.48,1977.97 C1320.6,1977.97 1323.2,1978.75 1325.29,1980.31 C1327.37,1981.87 1328.41,1984.12 1328.41,1987.05 C1328.41,1991.54 1326.09,1995.73 1321.44,1999.64 C1316.79,2003.55 1311.79,2005.5 1306.44,2005.5 C1303.32,2005.5 1300.68,2004.69 1298.54,2003.06 C1296.52,2001.3 1295.51,1999.09 1295.51,1996.42 C1295.51,1992.06 1297.82,1987.89 1302.44,1983.92 C1307.07,1979.95 1312.08,1977.97 1317.48,1977.97"/>
<path class="Note" d="M2467.88,1965.47 C2471.01,1965.47 2473.61,1966.25 2475.69,1967.81 C2477.78,1969.37 2478.82,1971.62 2478.82,1974.55 C2478.82,1979.04 2476.49,1983.23 2471.84,1987.14 C2467.19,1991.05 2462.19,1993 2456.85,1993 C2453.73,1993 2451.09,1992.19 2448.94,1990.56 C2446.92,1988.8 2445.91,1986.59 2445.91,1983.92 C2445.91,1979.56 2448.23,1975.39 2452.85,1971.42 C2457.48,1967.45 2462.49,1965.47 2467.88,1965.47"/>
<path class="Note" d="M645.883,1965.47 C649.008,1965.47 651.612,1966.25 653.696,1967.81 C655.779,1969.37 656.821,1971.62 656.821,1974.55 C656.821,1979.04 654.495,1983.23 649.844,1987.14 C645.193,1991.05 640.196,1993 634.852,1993 C631.727,1993 629.092,1992.19 626.946,1990.56 C624.925,1988.8 623.915,1986.59 623.915,1983.92 C623.915,1979.56 626.227,1975.39 630.852,1971.42 C635.477,1967.45 640.487,1965.47 645.883,1965.47"/>
<path class="Note" d="M1188.96,1965.47 C1192.08,1965.47 1194.69,1966.25 1196.77,1967.81 C1198.85,1969.37 1199.89,1971.62 1199.89,1974.55 C1199.89,1979.04 1197.57,1983.23 1192.92,1987.14 C1188.27,1991.05 1183.27,1993 1177.93,1993 C1174.8,1993 1172.17,1992.19 1170.02,1990.56 C1168,1988.8 1166.99,1986.59 1166.99,1983.92 C1166.99,1979.56 1169.3,1975.39 1173.93,1971.42 C1178.55,1967.45 1183.56,1965.47 1188.96,1965.47"/>
<path class="Note" d="M2275.1,2002.97 C2278.23,2002.97 2280.83,2003.75 2282.92,2005.31 C2285,2006.87 2286.04,2009.12 2286.04,2012.05 C2286.04,2016.54 2283.72,2020.73 2279.07,2024.64 C2274.41,2028.55 2269.42,2030.5 2264.07,2030.5 C2260.95,2030.5 2258.31,2029.69 2256.17,2028.06 C2254.15,2026.3 2253.14,2024.09 2253.14,2021.42 C2253.14,2017.06 2255.45,2012.89 2260.07,2008.92 C2264.7,2004.95 2269.71,2002.97 2275.1,2002.97"/>
<path class="Note" d="M1060.44,1965.47 C1063.56,1965.47 1066.17,1966.25 1068.25,1967.81 C1070.33,1969.37 1071.38,1971.62 1071.38,1974.55 C1071.38,1979.04 1069.05,1983.23 1064.4,1987.14 C1059.75,1991.05 1054.75,1993 1049.41,1993 C1046.28,1993 1043.65,1992.19 1041.5,1990.56 C1039.48,1988.8 1038.47,1986.59 1038.47,1983.92 C1038.47,1979.56 1040.78,1975.39 1045.41,1971.42 C1050.03,1967.45 1055.04,1965.47 1060.44,1965.47"/>
<path class="Note" d="M867.661,1952.97 C870.786,1952.97 873.39,1953.75 875.473,1955.31 C877.557,1956.87 878.598,1959.12 878.598,1962.05 C878.598,1966.54 876.273,1970.73 871.622,1974.64 C866.971,1978.55 861.973,1980.5 856.63,1980.5 C853.505,1980.5 850.869,1979.69 848.723,1978.06 C846.703,1976.3 845.692,1974.09 845.692,1971.42 C845.692,1967.06 848.005,1962.89 852.63,1958.92 C857.255,1954.95 862.265,1952.97 867.661,1952.97"/>
<path class="Note" d="M2298.83,540.467 C2301.96,540.467 2304.56,541.248 2306.64,542.811 C2308.73,544.373 2309.77,546.618 2309.77,549.545 C2309.77,554.035 2307.44,558.233 2302.79,562.139 C2298.14,566.045 2293.14,567.998 2287.8,567.998 C2284.67,567.998 2282.04,567.186 2279.89,565.561 C2277.87,563.8 2276.86,561.587 2276.86,558.92 C2276.86,554.556 2279.17,550.389 2283.8,546.42 C2288.42,542.451 2293.43,540.467 2298.83,540.467"/>
<path class="Note" d="M1374.32,1002.97 C1377.45,1002.97 1380.05,1003.75 1382.13,1005.31 C1384.22,1006.87 1385.26,1009.12 1385.26,1012.05 C1385.26,1016.53 1382.93,1020.73 1378.28,1024.64 C1373.63,1028.55 1368.63,1030.5 1363.29,1030.5 C1360.16,1030.5 1357.53,1029.69 1355.38,1028.06 C1353.36,1026.3 1352.35,1024.09 1352.35,1021.42 C1352.35,1017.06 1354.66,1012.89 1359.29,1008.92 C1363.91,1004.95 1368.92,1002.97 1374.32,1002.97"/>
<path class="Note" d="M1250.74,990.467 C1253.87,990.467 1256.47,991.249 1258.56,992.811 C1260.64,994.374 1261.68,996.618 1261.68,999.545 C1261.68,1004.03 1259.36,1008.23 1254.71,1012.14 C1250.05,1016.05 1245.06,1018 1239.71,1018 C1236.59,1018 1233.95,1017.19 1231.81,1015.56 C1229.79,1013.8 1228.78,1011.59 1228.78,1008.92 C1228.78,1004.56 1231.09,1000.39 1235.71,996.42 C1240.34,992.452 1245.35,990.467 1250.74,990.467"/>
<path class="Note" d="M1127.17,1002.97 C1130.29,1002.97 1132.9,1003.75 1134.98,1005.31 C1137.07,1006.87 1138.11,1009.12 1138.11,1012.05 C1138.11,1016.53 1135.78,1020.73 1131.13,1024.64 C1126.48,1028.55 1121.48,1030.5 1116.14,1030.5 C1113.01,1030.5 1110.38,1029.69 1108.23,1028.06 C1106.21,1026.3 1105.2,1024.09 1105.2,1021.42 C1105.2,1017.06 1107.51,1012.89 1112.14,1008.92 C1116.76,1004.95 1121.77,1002.97 1127.17,1002.97"/>
<path class="Note" d="M941.806,1002.97 C944.931,1002.97 947.535,1003.75 949.619,1005.31 C951.702,1006.87 952.744,1009.12 952.744,1012.05 C952.744,1016.53 950.418,1020.73 945.767,1024.64 C941.116,1028.55 936.119,1030.5 930.775,1030.5 C927.65,1030.5 925.014,1029.69 922.869,1028.06 C920.848,1026.3 919.837,1024.09 919.837,1021.42 C919.837,1017.06 922.15,1012.89 926.775,1008.92 C931.4,1004.95 936.41,1002.97 941.806,1002.97"/>
<path class="Note" d="M727.443,1040.47 C730.568,1040.47 733.172,1041.25 735.256,1042.81 C737.339,1044.37 738.381,1046.62 738.381,1049.55 C738.381,1054.04 736.055,1058.23 731.404,1062.14 C726.753,1066.05 721.756,1068 716.412,1068 C713.287,1068 710.651,1067.19 708.506,1065.56 C706.485,1063.8 705.474,1061.59 705.474,1058.92 C705.474,1054.56 707.787,1050.39 712.412,1046.42 C717.037,1042.45 722.047,1040.47 727.443,1040.47"/>
<path class="Note" d="M542.08,1040.47 C545.205,1040.47 547.809,1041.25 549.892,1042.81 C551.976,1044.37 553.017,1046.62 553.017,1049.55 C553.017,1054.04 550.692,1058.23 546.041,1062.14 C541.39,1066.05 536.392,1068 531.049,1068 C527.924,1068 525.288,1067.19 523.142,1065.56 C521.122,1063.8 520.111,1061.59 520.111,1058.92 C520.111,1054.56 522.424,1050.39 527.049,1046.42 C531.674,1042.45 536.684,1040.47 542.08,1040.47"/>
<path class="Note" d="M356.717,1040.47 C359.842,1040.47 362.446,1041.25 364.529,1042.81 C366.613,1044.37 367.654,1046.62 367.654,1049.55 C367.654,1054.04 365.329,1058.23 360.678,1062.14 C356.027,1066.05 351.029,1068 345.686,1068 C342.561,1068 339.925,1067.19 337.779,1065.56 C335.759,1063.8 334.748,1061.59 334.748,1058.92 C334.748,1054.56 337.061,1050.39 341.686,1046.42 C346.311,1042.45 351.321,1040.47 356.717,1040.47"/>
<path class="Note" d="M2714.79,552.967 C2717.91,552.967 2720.51,553.748 2722.6,555.311 C2724.68,556.873 2725.72,559.118 2725.72,562.045 C2725.72,566.535 2723.4,570.733 2718.75,574.639 C2714.1,578.545 2709.1,580.498 2703.75,580.498 C2700.63,580.498 2697.99,579.686 2695.85,578.061 C2693.83,576.3 2692.82,574.087 2692.82,571.42 C2692.82,567.056 2695.13,562.889 2699.75,558.92 C2704.38,554.951 2709.39,552.967 2714.79,552.967"/>
<path class="Note" d="M2576.13,540.467 C2579.26,540.467 2581.86,541.248 2583.95,542.811 C2586.03,544.373 2587.07,546.618 2587.07,549.545 C2587.07,554.035 2584.75,558.233 2580.09,562.139 C2575.44,566.045 2570.45,567.998 2565.1,567.998 C2561.98,567.998 2559.34,567.186 2557.2,565.561 C2555.18,563.8 2554.16,561.587 2554.16,558.92 C2554.16,554.556 2556.48,550.389 2561.1,546.42 C2565.73,542.451 2570.74,540.467 2576.13,540.467"/>
<path class="Note" d="M2437.48,527.967 C2440.61,527.967 2443.21,528.748 2445.29,530.311 C2447.38,531.873 2448.42,534.118 2448.42,537.045 C2448.42,541.535 2446.09,545.733 2441.44,549.639 C2436.79,553.545 2431.79,555.498 2426.45,555.498 C2423.33,555.498 2420.69,554.686 2418.54,553.061 C2416.52,551.3 2415.51,549.087 2415.51,546.42 C2415.51,542.056 2417.83,537.889 2422.45,533.92 C2427.08,529.951 2432.09,527.967 2437.48,527.967"/>
<path class="Note" d="M1948.5,1515.47 C1951.63,1515.47 1954.23,1516.25 1956.32,1517.81 C1958.4,1519.37 1959.44,1521.62 1959.44,1524.55 C1959.44,1529.04 1957.12,1533.23 1952.46,1537.14 C1947.81,1541.05 1942.82,1543 1937.47,1543 C1934.35,1543 1931.71,1542.19 1929.57,1540.56 C1927.54,1538.8 1926.53,1536.59 1926.53,1533.92 C1926.53,1529.56 1928.85,1525.39 1933.47,1521.42 C1938.1,1517.45 1943.11,1515.47 1948.5,1515.47"/>
<path class="Note" d="M2090.85,540.467 C2093.98,540.467 2096.58,541.248 2098.67,542.811 C2100.75,544.373 2101.79,546.618 2101.79,549.545 C2101.79,554.035 2099.46,558.233 2094.81,562.139 C2090.16,566.045 2085.17,567.998 2079.82,567.998 C2076.7,567.998 2074.06,567.186 2071.92,565.561 C2069.89,563.8 2068.88,561.587 2068.88,558.92 C2068.88,554.556 2071.2,550.389 2075.82,546.42 C2080.45,542.451 2085.46,540.467 2090.85,540.467"/>
<path class="Note" d="M1853.87,577.967 C1857,577.967 1859.6,578.748 1861.69,580.311 C1863.77,581.873 1864.81,584.118 1864.81,587.045 C1864.81,591.535 1862.49,595.733 1857.84,599.639 C1853.18,603.545 1848.19,605.498 1842.84,605.498 C1839.72,605.498 1837.08,604.686 1834.94,603.061 C1832.92,601.3 1831.91,599.087 1831.91,596.42 C1831.91,592.056 1834.22,587.889 1838.84,583.92 C1843.47,579.951 1848.48,577.967 1853.87,577.967"/>
<path class="Note" d="M1645.9,577.967 C1649.02,577.967 1651.63,578.748 1653.71,580.311 C1655.79,581.873 1656.83,584.118 1656.83,587.045 C1656.83,591.535 1654.51,595.733 1649.86,599.639 C1645.21,603.545 1640.21,605.498 1634.87,605.498 C1631.74,605.498 1629.11,604.686 1626.96,603.061 C1624.94,601.3 1623.93,599.087 1623.93,596.42 C1623.93,592.056 1626.24,587.889 1630.87,583.92 C1635.49,579.951 1640.5,577.967 1645.9,577.967"/>
<path class="Note" d="M1437.92,577.967 C1441.04,577.967 1443.65,578.748 1445.73,580.311 C1447.82,581.873 1448.86,584.118 1448.86,587.045 C1448.86,591.535 1446.53,595.733 1441.88,599.639 C1437.23,603.545 1432.23,605.498 1426.89,605.498 C1423.76,605.498 1421.13,604.686 1418.98,603.061 C1416.96,601.3 1415.95,599.087 1415.95,596.42 C1415.95,592.056 1418.26,587.889 1422.89,583.92 C1427.51,579.951 1432.52,577.967 1437.92,577.967"/>
<path class="Note" d="M1270.27,565.467 C1273.39,565.467 1276,566.248 1278.08,567.811 C1280.16,569.373 1281.21,571.618 1281.21,574.545 C1281.21,579.035 1278.88,583.233 1274.23,587.139 C1269.58,591.045 1264.58,592.998 1259.24,592.998 C1256.11,592.998 1253.48,592.186 1251.33,590.561 C1249.31,588.8 1248.3,586.587 1248.3,583.92 C1248.3,579.556 1250.61,575.389 1255.24,571.42 C1259.86,567.451 1264.87,565.467 1270.27,565.467"/>
<path class="Note" d="M1131.62,552.967 C1134.74,552.967 1137.35,553.748 1139.43,555.311 C1141.51,556.873 1142.55,559.118 1142.55,562.045 C1142.55,566.535 1140.23,570.733 1135.58,574.639 C1130.93,578.545 1125.93,580.498 1120.58,580.498 C1117.46,580.498 1114.82,579.686 1112.68,578.061 C1110.66,576.3 1109.65,574.087 1109.65,571.42 C1109.65,567.056 1111.96,562.889 1116.58,558.92 C1121.21,554.951 1126.22,552.967 1131.62,552.967"/>
<path class="Note" d="M992.964,540.467 C996.089,540.467 998.694,541.248 1000.78,542.811 C1002.86,544.373 1003.9,546.618 1003.9,549.545 C1003.9,554.035 1001.58,558.233 996.925,562.139 C992.274,566.045 987.277,567.998 981.933,567.998 C978.808,567.998 976.173,567.186 974.027,565.561 C972.006,563.8 970.996,561.587 970.996,558.92 C970.996,554.556 973.308,550.389 977.933,546.42 C982.558,542.451 987.569,540.467 992.964,540.467"/>
<path class="Note" d="M854.313,552.967 C857.438,552.967 860.042,553.748 862.125,555.311 C864.209,556.873 865.25,559.118 865.25,562.045 C865.25,566.535 862.925,570.733 858.274,574.639 C853.623,578.545 848.625,580.498 843.281,580.498 C840.156,580.498 837.521,579.686 835.375,578.061 C833.354,576.3 832.344,574.087 832.344,571.42 C832.344,567.056 834.656,562.889 839.281,558.92 C843.906,554.951 848.917,552.967 854.313,552.967"/>
<path class="Note" d="M646.335,552.967 C649.46,552.967 652.064,553.748 654.148,555.311 C656.231,556.873 657.273,559.118 657.273,562.045 C657.273,566.535 654.947,570.733 650.296,574.639 C645.645,578.545 640.648,580.498 635.304,580.498 C632.179,580.498 629.543,579.686 627.398,578.061 C625.377,576.3 624.366,574.087 624.366,571.42 C624.366,567.056 626.679,562.889 631.304,558.92 C635.929,554.951 640.939,552.967 646.335,552.967"/>
<path class="Note" d="M409.358,590.467 C412.483,590.467 415.087,591.248 417.17,592.811 C419.253,594.373 420.295,596.618 420.295,599.545 C420.295,604.035 417.969,608.233 413.318,612.139 C408.667,616.045 403.67,617.998 398.326,617.998 C395.201,617.998 392.566,617.186 390.42,615.561 C388.399,613.8 387.389,611.587 387.389,608.92 C387.389,604.556 389.701,600.389 394.326,596.42 C398.951,592.451 403.962,590.467 409.358,590.467"/>
<path class="Note" d="M2297.35,1052.97 C2300.47,1052.97 2303.08,1053.75 2305.16,1055.31 C2307.24,1056.87 2308.29,1059.12 2308.29,1062.05 C2308.29,1066.54 2305.96,1070.73 2301.31,1074.64 C2296.66,1078.55 2291.66,1080.5 2286.32,1080.5 C2283.19,1080.5 2280.56,1079.69 2278.41,1078.06 C2276.39,1076.3 2275.38,1074.09 2275.38,1071.42 C2275.38,1067.06 2277.69,1062.89 2282.32,1058.92 C2286.94,1054.95 2291.95,1052.97 2297.35,1052.97"/>
<path class="Note" d="M685.192,1540.47 C688.317,1540.47 690.921,1541.25 693.005,1542.81 C695.088,1544.37 696.13,1546.62 696.13,1549.55 C696.13,1554.04 693.804,1558.23 689.153,1562.14 C684.502,1566.05 679.505,1568 674.161,1568 C671.036,1568 668.4,1567.19 666.255,1565.56 C664.234,1563.8 663.223,1561.59 663.223,1558.92 C663.223,1554.56 665.536,1550.39 670.161,1546.42 C674.786,1542.45 679.796,1540.47 685.192,1540.47"/>
<path class="Note" d="M341.268,1527.37 C343.153,1527.37 347.109,1525.42 353.135,1521.51 C359.161,1517.61 362.71,1514.99 363.783,1513.66 C364.856,1512.32 365.393,1511.13 365.393,1510.09 C365.393,1509.05 364.968,1508.12 364.119,1507.31 C363.27,1506.5 362.294,1506.09 361.19,1506.09 C359.242,1506.09 355.255,1508.06 349.229,1512 C343.203,1515.94 339.669,1518.56 338.627,1519.86 C337.585,1521.16 337.065,1522.33 337.065,1523.37 C337.065,1524.42 337.473,1525.34 338.291,1526.16 C339.109,1526.97 340.101,1527.37 341.268,1527.37 M360.221,1502.97 C365.815,1502.97 368.611,1505.37 368.611,1510.19 C368.611,1512.53 367.929,1515.25 366.565,1518.34 C365.2,1521.44 363.377,1523.8 361.096,1525.42 C356.085,1528.81 349.804,1530.5 342.252,1530.5 C336.648,1530.5 333.846,1528.09 333.846,1523.28 C333.846,1521.13 334.512,1518.46 335.846,1515.27 C337.179,1512.08 339.018,1509.67 341.361,1508.05 C346.382,1504.66 352.669,1502.97 360.221,1502.97"/>
<path class="Note" d="M933.175,1502.97 C936.3,1502.97 938.905,1503.75 940.988,1505.31 C943.071,1506.87 944.113,1509.12 944.113,1512.05 C944.113,1516.54 941.787,1520.73 937.136,1524.64 C932.485,1528.55 927.488,1530.5 922.144,1530.5 C919.019,1530.5 916.384,1529.69 914.238,1528.06 C912.217,1526.3 911.207,1524.09 911.207,1521.42 C911.207,1517.06 913.519,1512.89 918.144,1508.92 C922.769,1504.95 927.78,1502.97 933.175,1502.97"/>
<path class="Note" d="M1152.16,1502.97 C1155.28,1502.97 1157.89,1503.75 1159.97,1505.31 C1162.05,1506.87 1163.1,1509.12 1163.1,1512.05 C1163.1,1516.54 1160.77,1520.73 1156.12,1524.64 C1151.47,1528.55 1146.47,1530.5 1141.13,1530.5 C1138,1530.5 1135.37,1529.69 1133.22,1528.06 C1131.2,1526.3 1130.19,1524.09 1130.19,1521.42 C1130.19,1517.06 1132.5,1512.89 1137.13,1508.92 C1141.75,1504.95 1146.76,1502.97 1152.16,1502.97"/>
<path class="Note" d="M1371.14,1502.97 C1374.27,1502.97 1376.87,1503.75 1378.95,1505.31 C1381.04,1506.87 1382.08,1509.12 1382.08,1512.05 C1382.08,1516.54 1379.75,1520.73 1375.1,1524.64 C1370.45,1528.55 1365.45,1530.5 1360.11,1530.5 C1356.99,1530.5 1354.35,1529.69 1352.2,1528.06 C1350.18,1526.3 1349.17,1524.09 1349.17,1521.42 C1349.17,1517.06 1351.49,1512.89 1356.11,1508.92 C1360.74,1504.95 1365.75,1502.97 1371.14,1502.97"/>
<path class="Note" d="M2668.07,1040.47 C2671.2,1040.47 2673.8,1041.25 2675.89,1042.81 C2677.97,1044.37 2679.01,1046.62 2679.01,1049.55 C2679.01,1054.04 2676.69,1058.23 2672.03,1062.14 C2667.38,1066.05 2662.39,1068 2657.04,1068 C2653.92,1068 2651.28,1067.19 2649.14,1065.56 C2647.12,1063.8 2646.11,1061.59 2646.11,1058.92 C2646.11,1054.56 2648.42,1050.39 2653.04,1046.42 C2657.67,1042.45 2662.68,1040.47 2668.07,1040.47"/>
<path class="Note" d="M1604.58,1539.87 C1606.46,1539.87 1610.42,1537.92 1616.45,1534.01 C1622.47,1530.11 1626.02,1527.49 1627.09,1526.16 C1628.17,1524.82 1628.7,1523.63 1628.7,1522.59 C1628.7,1521.55 1628.28,1520.62 1627.43,1519.81 C1626.58,1519 1625.6,1518.59 1624.5,1518.59 C1622.55,1518.59 1618.57,1520.56 1612.54,1524.5 C1606.51,1528.44 1602.98,1531.06 1601.94,1532.36 C1600.9,1533.66 1600.38,1534.83 1600.38,1535.87 C1600.38,1536.92 1600.78,1537.84 1601.6,1538.66 C1602.42,1539.47 1603.41,1539.87 1604.58,1539.87 M1623.53,1515.47 C1629.13,1515.47 1631.92,1517.87 1631.92,1522.69 C1631.92,1525.03 1631.24,1527.75 1629.88,1530.84 C1628.51,1533.94 1626.69,1536.3 1624.41,1537.92 C1619.4,1541.31 1613.12,1543 1605.56,1543 C1599.96,1543 1597.16,1540.59 1597.16,1535.78 C1597.16,1533.63 1597.82,1530.97 1599.16,1527.77 C1600.49,1524.58 1602.33,1522.17 1604.67,1520.55 C1609.69,1517.16 1615.98,1515.47 1623.53,1515.47"/>
<path class="Note" d="M2144.77,1065.47 C2147.9,1065.47 2150.5,1066.25 2152.58,1067.81 C2154.67,1069.37 2155.71,1071.62 2155.71,1074.55 C2155.71,1079.04 2153.38,1083.23 2148.73,1087.14 C2144.08,1091.05 2139.08,1093 2133.74,1093 C2130.62,1093 2127.98,1092.19 2125.83,1090.56 C2123.81,1088.8 2122.8,1086.59 2122.8,1083.92 C2122.8,1079.56 2125.12,1075.39 2129.74,1071.42 C2134.37,1067.45 2139.38,1065.47 2144.77,1065.47"/>
<path class="Note" d="M1497.9,1015.47 C1501.02,1015.47 1503.62,1016.25 1505.71,1017.81 C1507.79,1019.37 1508.83,1021.62 1508.83,1024.55 C1508.83,1029.04 1506.51,1033.23 1501.86,1037.14 C1497.21,1041.05 1492.21,1043 1486.86,1043 C1483.74,1043 1481.1,1042.19 1478.96,1040.56 C1476.94,1038.8 1475.93,1036.59 1475.93,1033.92 C1475.93,1029.56 1478.24,1025.39 1482.86,1021.42 C1487.49,1017.45 1492.5,1015.47 1497.9,1015.47"/>
<path class="Note" d="M2021.2,1065.47 C2024.32,1065.47 2026.93,1066.25 2029.01,1067.81 C2031.09,1069.37 2032.13,1071.62 2032.13,1074.55 C2032.13,1079.04 2029.81,1083.23 2025.16,1087.14 C2020.51,1091.05 2015.51,1093 2010.17,1093 C2007.04,1093 2004.41,1092.19 2002.26,1090.56 C2000.24,1088.8 1999.23,1086.59 1999.23,1083.92 C1999.23,1079.56 2001.54,1075.39 2006.17,1071.42 C2010.79,1067.45 2015.8,1065.47 2021.2,1065.47"/>
<path class="Note" d="M1650.47,1027.97 C1653.6,1027.97 1656.2,1028.75 1658.28,1030.31 C1660.37,1031.87 1661.41,1034.12 1661.41,1037.05 C1661.41,1041.54 1659.08,1045.73 1654.43,1049.64 C1649.78,1053.55 1644.78,1055.5 1639.44,1055.5 C1636.31,1055.5 1633.68,1054.69 1631.53,1053.06 C1629.51,1051.3 1628.5,1049.09 1628.5,1046.42 C1628.5,1042.06 1630.81,1037.89 1635.44,1033.92 C1640.06,1029.95 1645.08,1027.97 1650.47,1027.97"/>
<path class="Note" d="M1835.83,1052.97 C1838.96,1052.97 1841.56,1053.75 1843.65,1055.31 C1845.73,1056.87 1846.77,1059.12 1846.77,1062.05 C1846.77,1066.54 1844.45,1070.73 1839.79,1074.64 C1835.14,1078.55 1830.15,1080.5 1824.8,1080.5 C1821.68,1080.5 1819.04,1079.69 1816.9,1078.06 C1814.88,1076.3 1813.87,1074.09 1813.87,1071.42 C1813.87,1067.06 1816.18,1062.89 1820.8,1058.92 C1825.43,1054.95 1830.44,1052.97 1835.83,1052.97"/>
<path class="Clef" d="M203.623,673.858 L203.623,671.717 C203.56,670.613 203.399,668.889 203.139,666.545 C199.889,667.066 196.993,667.326 194.451,667.326 C185.337,667.326 177.605,663.727 171.256,656.53 C164.907,649.332 161.732,640.754 161.732,630.795 C161.732,628.129 162.253,624.923 163.295,621.178 C164.337,617.433 165.297,614.925 166.178,613.655 C167.058,612.384 168.378,610.155 170.139,606.967 C170.659,605.988 172.352,603.837 175.217,600.514 C175.738,599.806 176.193,599.222 176.584,598.764 C176.975,598.306 177.607,597.49 178.482,596.319 C179.357,595.147 180.3,594.056 181.31,593.045 C182.321,592.035 183.217,591.058 183.998,590.115 C184.779,589.173 185.498,588.379 186.154,587.733 C183.81,579.983 182.378,574.024 181.857,569.858 C181.337,565.691 181.076,560.579 181.076,554.522 C181.076,548.464 182.378,542.962 184.982,538.014 C187.514,532.879 191.06,528.681 195.623,525.42 C195.883,525.222 196.225,525.123 196.646,525.123 C197.068,525.123 197.378,525.222 197.576,525.42 C201.087,529.649 204.128,535.149 206.701,541.92 C209.274,548.691 210.56,555.024 210.56,560.92 C210.56,566.816 209.066,572.498 206.076,577.967 C202.691,583.759 198.326,589.748 192.982,595.936 C194.347,600.227 196.17,606.962 198.451,616.139 L199.045,616.139 C199.305,616.076 199.529,616.045 199.717,616.045 C207.081,616.045 213.089,618.634 217.74,623.811 C222.391,628.988 224.717,634.962 224.717,641.733 C224.717,650.129 221.238,656.899 214.279,662.045 C212.258,663.545 209.878,664.717 207.139,665.561 C207.472,669.79 207.639,672.605 207.639,674.006 C207.639,675.407 207.571,677.899 207.435,681.483 C207.373,687.597 205.29,692.837 201.185,697.201 C197.081,701.566 192.394,703.748 187.123,703.748 C181.852,703.748 177.36,701.876 173.646,698.131 C169.933,694.386 168.076,689.847 168.076,684.514 C168.076,681.712 169.154,679.332 171.31,677.373 C173.519,675.425 176.006,674.451 178.771,674.451 C181.537,674.451 183.8,675.462 185.56,677.483 C187.383,679.368 188.295,681.644 188.295,684.311 C188.295,686.977 187.383,689.222 185.56,691.045 C183.738,692.868 181.555,693.78 179.014,693.78 C177.972,693.78 176.967,693.587 175.998,693.201 C178.863,697.431 182.54,699.545 187.029,699.545 C191.519,699.545 195.36,697.691 198.553,693.983 C201.745,690.274 203.342,685.91 203.342,680.889 L203.623,673.858 M206.748,661.561 C210.133,660.321 212.821,658.123 214.81,654.967 C216.8,651.811 217.795,648.67 217.795,645.545 C217.795,640.92 216.199,636.785 213.006,633.139 C209.813,629.493 205.774,627.441 200.889,626.983 C203.691,640.722 205.644,652.248 206.748,661.561 M168.967,638.998 C168.967,645.446 171.537,651.079 176.678,655.897 C181.818,660.714 187.842,663.123 194.748,663.123 C197.477,663.123 200.144,662.925 202.748,662.53 C201.706,652.634 199.654,640.785 196.592,626.983 C192.758,627.379 189.782,628.699 187.662,630.944 C185.542,633.188 184.482,635.743 184.482,638.608 C184.482,643.556 187.123,647.561 192.404,650.623 C192.852,650.884 193.076,651.324 193.076,651.944 C193.076,652.563 192.865,653.1 192.443,653.553 C192.021,654.006 191.649,654.233 191.326,654.233 C191.003,654.233 190.581,654.17 190.06,654.045 C182.435,649.879 178.623,643.592 178.623,635.186 C178.623,631.217 180.024,627.41 182.826,623.764 C185.753,620.118 189.56,617.774 194.248,616.733 C192.425,609.441 190.93,603.743 189.764,599.639 C180.847,609.67 175.31,617.092 173.154,621.905 C170.363,628.155 168.967,633.852 168.967,638.998 M201.576,539.686 C196.691,542.092 192.834,545.574 190.006,550.131 C187.178,554.688 185.764,559.472 185.764,564.483 C185.764,569.493 186.935,575.972 189.279,583.92 C193.967,578.254 197.514,572.946 199.92,567.998 C202.326,563.05 203.529,558.152 203.529,553.303 C203.529,548.454 202.878,543.915 201.576,539.686"/>
<path class="Clef" d="M203.623,1148.86 L203.623,1146.72 C203.56,1145.61 203.399,1143.89 203.139,1141.55 C199.889,1142.07 196.993,1142.33 194.451,1142.33 C185.337,1142.33 177.605,1138.73 171.256,1131.53 C164.907,1124.33 161.732,1115.75 161.732,1105.8 C161.732,1103.13 162.253,1099.92 163.295,1096.18 C164.337,1092.43 165.297,1089.93 166.178,1088.65 C167.058,1087.38 168.378,1085.15 170.139,1081.97 C170.659,1080.99 172.352,1078.84 175.217,1075.51 C175.738,1074.81 176.193,1074.22 176.584,1073.76 C176.975,1073.31 177.607,1072.49 178.482,1071.32 C179.357,1070.15 180.3,1069.06 181.31,1068.05 C182.321,1067.04 183.217,1066.06 183.998,1065.12 C184.779,1064.17 185.498,1063.38 186.154,1062.73 C183.81,1054.98 182.378,1049.02 181.857,1044.86 C181.337,1040.69 181.076,1035.58 181.076,1029.52 C181.076,1023.46 182.378,1017.96 184.982,1013.01 C187.514,1007.88 191.06,1003.68 195.623,1000.42 C195.883,1000.22 196.225,1000.12 196.646,1000.12 C197.068,1000.12 197.378,1000.22 197.576,1000.42 C201.087,1004.65 204.128,1010.15 206.701,1016.92 C209.274,1023.69 210.56,1030.02 210.56,1035.92 C210.56,1041.82 209.066,1047.5 206.076,1052.97 C202.691,1058.76 198.326,1064.75 192.982,1070.94 C194.347,1075.23 196.17,1081.96 198.451,1091.14 L199.045,1091.14 C199.305,1091.08 199.529,1091.05 199.717,1091.05 C207.081,1091.05 213.089,1093.63 217.74,1098.81 C222.391,1103.99 224.717,1109.96 224.717,1116.73 C224.717,1125.13 221.238,1131.9 214.279,1137.05 C212.258,1138.55 209.878,1139.72 207.139,1140.56 C207.472,1144.79 207.639,1147.61 207.639,1149.01 C207.639,1150.41 207.571,1152.9 207.435,1156.48 C207.373,1162.6 205.29,1167.84 201.185,1172.2 C197.081,1176.57 192.394,1178.75 187.123,1178.75 C181.852,1178.75 177.36,1176.88 173.646,1173.13 C169.933,1169.39 168.076,1164.85 168.076,1159.51 C168.076,1156.71 169.154,1154.33 171.31,1152.37 C173.519,1150.43 176.006,1149.45 178.771,1149.45 C181.537,1149.45 183.8,1150.46 185.56,1152.48 C187.383,1154.37 188.295,1156.64 188.295,1159.31 C188.295,1161.98 187.383,1164.22 185.56,1166.05 C183.738,1167.87 181.555,1168.78 179.014,1168.78 C177.972,1168.78 176.967,1168.59 175.998,1168.2 C178.863,1172.43 182.54,1174.55 187.029,1174.55 C191.519,1174.55 195.36,1172.69 198.553,1168.98 C201.745,1165.27 203.342,1160.91 203.342,1155.89 L203.623,1148.86 M206.748,1136.56 C210.133,1135.32 212.821,1133.12 214.81,1129.97 C216.8,1126.81 217.795,1123.67 217.795,1120.55 C217.795,1115.92 216.199,1111.79 213.006,1108.14 C209.813,1104.49 205.774,1102.44 200.889,1101.98 C203.691,1115.72 205.644,1127.25 206.748,1136.56 M168.967,1114 C168.967,1120.45 171.537,1126.08 176.678,1130.9 C181.818,1135.71 187.842,1138.12 194.748,1138.12 C197.477,1138.12 200.144,1137.93 202.748,1137.53 C201.706,1127.63 199.654,1115.79 196.592,1101.98 C192.758,1102.38 189.782,1103.7 187.662,1105.94 C185.542,1108.19 184.482,1110.74 184.482,1113.61 C184.482,1118.56 187.123,1122.56 192.404,1125.62 C192.852,1125.88 193.076,1126.32 193.076,1126.94 C193.076,1127.56 192.865,1128.1 192.443,1128.55 C192.021,1129.01 191.649,1129.23 191.326,1129.23 C191.003,1129.23 190.581,1129.17 190.06,1129.05 C182.435,1124.88 178.623,1118.59 178.623,1110.19 C178.623,1106.22 180.024,1102.41 182.826,1098.76 C185.753,1095.12 189.56,1092.77 194.248,1091.73 C192.425,1084.44 190.93,1078.74 189.764,1074.64 C180.847,1084.67 175.31,1092.09 173.154,1096.9 C170.363,1103.15 168.967,1108.85 168.967,1114 M201.576,1014.69 C196.691,1017.09 192.834,1020.57 190.006,1025.13 C187.178,1029.69 185.764,1034.47 185.764,1039.48 C185.764,1044.49 186.935,1050.97 189.279,1058.92 C193.967,1053.25 197.514,1047.95 199.92,1043 C202.326,1038.05 203.529,1033.15 203.529,1028.3 C203.529,1023.45 202.878,1018.92 201.576,1014.69"/>
<path class="Clef" d="M203.623,2573.86 L203.623,2571.72 C203.56,2570.61 203.399,2568.89 203.139,2566.55 C199.889,2567.07 196.993,2567.33 194.451,2567.33 C185.337,2567.33 177.605,2563.73 171.256,2556.53 C164.907,2549.33 161.732,2540.75 161.732,2530.8 C161.732,2528.13 162.253,2524.92 163.295,2521.18 C164.337,2517.43 165.297,2514.93 166.178,2513.66 C167.058,2512.38 168.378,2510.16 170.139,2506.97 C170.659,2505.99 172.352,2503.84 175.217,2500.52 C175.738,2499.81 176.193,2499.22 176.584,2498.77 C176.975,2498.31 177.607,2497.49 178.482,2496.32 C179.357,2495.15 180.3,2494.06 181.31,2493.05 C182.321,2492.04 183.217,2491.06 183.998,2490.12 C184.779,2489.17 185.498,2488.38 186.154,2487.73 C183.81,2479.98 182.378,2474.03 181.857,2469.86 C181.337,2465.69 181.076,2460.58 181.076,2454.52 C181.076,2448.47 182.378,2442.96 184.982,2438.02 C187.514,2432.88 191.06,2428.68 195.623,2425.42 C195.883,2425.22 196.225,2425.12 196.646,2425.12 C197.068,2425.12 197.378,2425.22 197.576,2425.42 C201.087,2429.65 204.128,2435.15 206.701,2441.92 C209.274,2448.69 210.56,2455.03 210.56,2460.92 C210.56,2466.82 209.066,2472.5 206.076,2477.97 C202.691,2483.76 198.326,2489.75 192.982,2495.94 C194.347,2500.23 196.17,2506.96 198.451,2516.14 L199.045,2516.14 C199.305,2516.08 199.529,2516.05 199.717,2516.05 C207.081,2516.05 213.089,2518.63 217.74,2523.81 C222.391,2528.99 224.717,2534.96 224.717,2541.73 C224.717,2550.13 221.238,2556.9 214.279,2562.05 C212.258,2563.55 209.878,2564.72 207.139,2565.56 C207.472,2569.79 207.639,2572.61 207.639,2574.01 C207.639,2575.41 207.571,2577.9 207.435,2581.48 C207.373,2587.6 205.29,2592.84 201.185,2597.2 C197.081,2601.57 192.394,2603.75 187.123,2603.75 C181.852,2603.75 177.36,2601.88 173.646,2598.13 C169.933,2594.39 168.076,2589.85 168.076,2584.52 C168.076,2581.71 169.154,2579.33 171.31,2577.37 C173.519,2575.43 176.006,2574.45 178.771,2574.45 C181.537,2574.45 183.8,2575.46 185.56,2577.48 C187.383,2579.37 188.295,2581.65 188.295,2584.31 C188.295,2586.98 187.383,2589.22 185.56,2591.05 C183.738,2592.87 181.555,2593.78 179.014,2593.78 C177.972,2593.78 176.967,2593.59 175.998,2593.2 C178.863,2597.43 182.54,2599.55 187.029,2599.55 C191.519,2599.55 195.36,2597.69 198.553,2593.98 C201.745,2590.28 203.342,2585.91 203.342,2580.89 L203.623,2573.86 M206.748,2561.56 C210.133,2560.32 212.821,2558.12 214.81,2554.97 C216.8,2551.81 217.795,2548.67 217.795,2545.55 C217.795,2540.92 216.199,2536.79 213.006,2533.14 C209.813,2529.49 205.774,2527.44 200.889,2526.98 C203.691,2540.72 205.644,2552.25 206.748,2561.56 M168.967,2539 C168.967,2545.45 171.537,2551.08 176.678,2555.9 C181.818,2560.72 187.842,2563.12 194.748,2563.12 C197.477,2563.12 200.144,2562.93 202.748,2562.53 C201.706,2552.63 199.654,2540.79 196.592,2526.98 C192.758,2527.38 189.782,2528.7 187.662,2530.94 C185.542,2533.19 184.482,2535.74 184.482,2538.61 C184.482,2543.56 187.123,2547.56 192.404,2550.62 C192.852,2550.88 193.076,2551.33 193.076,2551.94 C193.076,2552.56 192.865,2553.1 192.443,2553.55 C192.021,2554.01 191.649,2554.23 191.326,2554.23 C191.003,2554.23 190.581,2554.17 190.06,2554.05 C182.435,2549.88 178.623,2543.59 178.623,2535.19 C178.623,2531.22 180.024,2527.41 182.826,2523.77 C185.753,2520.12 189.56,2517.78 194.248,2516.73 C192.425,2509.44 190.93,2503.74 189.764,2499.64 C180.847,2509.67 175.31,2517.09 173.154,2521.91 C170.363,2528.16 168.967,2533.85 168.967,2539 M201.576,2439.69 C196.691,2442.09 192.834,2445.58 190.006,2450.13 C187.178,2454.69 185.764,2459.47 185.764,2464.48 C185.764,2469.49 186.935,2475.97 189.279,2483.92 C193.967,2478.25 197.514,2472.95 199.92,2468 C202.326,2463.05 203.529,2458.15 203.529,2453.3 C203.529,2448.46 202.878,2443.92 201.576,2439.69"/>
<path class="Clef" d="M203.623,1623.86 L203.623,1621.72 C203.56,1620.61 203.399,1618.89 203.139,1616.55 C199.889,1617.07 196.993,1617.33 194.451,1617.33 C185.337,1617.33 177.605,1613.73 171.256,1606.53 C164.907,1599.33 161.732,1590.75 161.732,1580.8 C161.732,1578.13 162.253,1574.92 163.295,1571.18 C164.337,1567.43 165.297,1564.93 166.178,1563.66 C167.058,1562.38 168.378,1560.16 170.139,1556.97 C170.659,1555.99 172.352,1553.84 175.217,1550.51 C175.738,1549.81 176.193,1549.22 176.584,1548.76 C176.975,1548.31 177.607,1547.49 178.482,1546.32 C179.357,1545.15 180.3,1544.06 181.31,1543.05 C182.321,1542.04 183.217,1541.06 183.998,1540.12 C184.779,1539.17 185.498,1538.38 186.154,1537.73 C183.81,1529.98 182.378,1524.02 181.857,1519.86 C181.337,1515.69 181.076,1510.58 181.076,1504.52 C181.076,1498.47 182.378,1492.96 184.982,1488.01 C187.514,1482.88 191.06,1478.68 195.623,1475.42 C195.883,1475.22 196.225,1475.12 196.646,1475.12 C197.068,1475.12 197.378,1475.22 197.576,1475.42 C201.087,1479.65 204.128,1485.15 206.701,1491.92 C209.274,1498.69 210.56,1505.02 210.56,1510.92 C210.56,1516.82 209.066,1522.5 206.076,1527.97 C202.691,1533.76 198.326,1539.75 192.982,1545.94 C194.347,1550.23 196.17,1556.96 198.451,1566.14 L199.045,1566.14 C199.305,1566.08 199.529,1566.05 199.717,1566.05 C207.081,1566.05 213.089,1568.63 217.74,1573.81 C222.391,1578.99 224.717,1584.96 224.717,1591.73 C224.717,1600.13 221.238,1606.9 214.279,1612.05 C212.258,1613.55 209.878,1614.72 207.139,1615.56 C207.472,1619.79 207.639,1622.61 207.639,1624.01 C207.639,1625.41 207.571,1627.9 207.435,1631.48 C207.373,1637.6 205.29,1642.84 201.185,1647.2 C197.081,1651.57 192.394,1653.75 187.123,1653.75 C181.852,1653.75 177.36,1651.88 173.646,1648.13 C169.933,1644.39 168.076,1639.85 168.076,1634.51 C168.076,1631.71 169.154,1629.33 171.31,1627.37 C173.519,1625.43 176.006,1624.45 178.771,1624.45 C181.537,1624.45 183.8,1625.46 185.56,1627.48 C187.383,1629.37 188.295,1631.64 188.295,1634.31 C188.295,1636.98 187.383,1639.22 185.56,1641.05 C183.738,1642.87 181.555,1643.78 179.014,1643.78 C177.972,1643.78 176.967,1643.59 175.998,1643.2 C178.863,1647.43 182.54,1649.55 187.029,1649.55 C191.519,1649.55 195.36,1647.69 198.553,1643.98 C201.745,1640.27 203.342,1635.91 203.342,1630.89 L203.623,1623.86 M206.748,1611.56 C210.133,1610.32 212.821,1608.12 214.81,1604.97 C216.8,1601.81 217.795,1598.67 217.795,1595.55 C217.795,1590.92 216.199,1586.79 213.006,1583.14 C209.813,1579.49 205.774,1577.44 200.889,1576.98 C203.691,1590.72 205.644,1602.25 206.748,1611.56 M168.967,1589 C168.967,1595.45 171.537,1601.08 176.678,1605.9 C181.818,1610.72 187.842,1613.12 194.748,1613.12 C197.477,1613.12 200.144,1612.93 202.748,1612.53 C201.706,1602.63 199.654,1590.79 196.592,1576.98 C192.758,1577.38 189.782,1578.7 187.662,1580.94 C185.542,1583.19 184.482,1585.74 184.482,1588.61 C184.482,1593.56 187.123,1597.56 192.404,1600.62 C192.852,1600.88 193.076,1601.32 193.076,1601.94 C193.076,1602.56 192.865,1603.1 192.443,1603.55 C192.021,1604.01 191.649,1604.23 191.326,1604.23 C191.003,1604.23 190.581,1604.17 190.06,1604.05 C182.435,1599.88 178.623,1593.59 178.623,1585.19 C178.623,1581.22 180.024,1577.41 182.826,1573.76 C185.753,1570.12 189.56,1567.77 194.248,1566.73 C192.425,1559.44 190.93,1553.74 189.764,1549.64 C180.847,1559.67 175.31,1567.09 173.154,1571.91 C170.363,1578.16 168.967,1583.85 168.967,1589 M201.576,1489.69 C196.691,1492.09 192.834,1495.57 190.006,1500.13 C187.178,1504.69 185.764,1509.47 185.764,1514.48 C185.764,1519.49 186.935,1525.97 189.279,1533.92 C193.967,1528.25 197.514,1522.95 199.92,1518 C202.326,1513.05 203.529,1508.15 203.529,1503.3 C203.529,1498.45 202.878,1493.92 201.576,1489.69"/>
<path class="Clef" d="M203.623,2098.86 L203.623,2096.72 C203.56,2095.61 203.399,2093.89 203.139,2091.55 C199.889,2092.07 196.993,2092.33 194.451,2092.33 C185.337,2092.33 177.605,2088.73 171.256,2081.53 C164.907,2074.33 161.732,2065.75 161.732,2055.8 C161.732,2053.13 162.253,2049.92 163.295,2046.18 C164.337,2042.43 165.297,2039.93 166.178,2038.66 C167.058,2037.38 168.378,2035.16 170.139,2031.97 C170.659,2030.99 172.352,2028.84 175.217,2025.51 C175.738,2024.81 176.193,2024.22 176.584,2023.76 C176.975,2023.31 177.607,2022.49 178.482,2021.32 C179.357,2020.15 180.3,2019.06 181.31,2018.05 C182.321,2017.04 183.217,2016.06 183.998,2015.12 C184.779,2014.17 185.498,2013.38 186.154,2012.73 C183.81,2004.98 182.378,1999.03 181.857,1994.86 C181.337,1990.69 181.076,1985.58 181.076,1979.52 C181.076,1973.47 182.378,1967.96 184.982,1963.01 C187.514,1957.88 191.06,1953.68 195.623,1950.42 C195.883,1950.22 196.225,1950.12 196.646,1950.12 C197.068,1950.12 197.378,1950.22 197.576,1950.42 C201.087,1954.65 204.128,1960.15 206.701,1966.92 C209.274,1973.69 210.56,1980.03 210.56,1985.92 C210.56,1991.82 209.066,1997.5 206.076,2002.97 C202.691,2008.76 198.326,2014.75 192.982,2020.94 C194.347,2025.23 196.17,2031.96 198.451,2041.14 L199.045,2041.14 C199.305,2041.08 199.529,2041.05 199.717,2041.05 C207.081,2041.05 213.089,2043.63 217.74,2048.81 C222.391,2053.99 224.717,2059.96 224.717,2066.73 C224.717,2075.13 221.238,2081.9 214.279,2087.05 C212.258,2088.55 209.878,2089.72 207.139,2090.56 C207.472,2094.79 207.639,2097.61 207.639,2099.01 C207.639,2100.41 207.571,2102.9 207.435,2106.48 C207.373,2112.6 205.29,2117.84 201.185,2122.2 C197.081,2126.57 192.394,2128.75 187.123,2128.75 C181.852,2128.75 177.36,2126.88 173.646,2123.13 C169.933,2119.39 168.076,2114.85 168.076,2109.51 C168.076,2106.71 169.154,2104.33 171.31,2102.37 C173.519,2100.43 176.006,2099.45 178.771,2099.45 C181.537,2099.45 183.8,2100.46 185.56,2102.48 C187.383,2104.37 188.295,2106.65 188.295,2109.31 C188.295,2111.98 187.383,2114.22 185.56,2116.05 C183.738,2117.87 181.555,2118.78 179.014,2118.78 C177.972,2118.78 176.967,2118.59 175.998,2118.2 C178.863,2122.43 182.54,2124.55 187.029,2124.55 C191.519,2124.55 195.36,2122.69 198.553,2118.98 C201.745,2115.28 203.342,2110.91 203.342,2105.89 L203.623,2098.86 M206.748,2086.56 C210.133,2085.32 212.821,2083.12 214.81,2079.97 C216.8,2076.81 217.795,2073.67 217.795,2070.55 C217.795,2065.92 216.199,2061.79 213.006,2058.14 C209.813,2054.49 205.774,2052.44 200.889,2051.98 C203.691,2065.72 205.644,2077.25 206.748,2086.56 M168.967,2064 C168.967,2070.45 171.537,2076.08 176.678,2080.9 C181.818,2085.72 187.842,2088.12 194.748,2088.12 C197.477,2088.12 200.144,2087.93 202.748,2087.53 C201.706,2077.63 199.654,2065.79 196.592,2051.98 C192.758,2052.38 189.782,2053.7 187.662,2055.94 C185.542,2058.19 184.482,2060.74 184.482,2063.61 C184.482,2068.56 187.123,2072.56 192.404,2075.62 C192.852,2075.88 193.076,2076.32 193.076,2076.94 C193.076,2077.56 192.865,2078.1 192.443,2078.55 C192.021,2079.01 191.649,2079.23 191.326,2079.23 C191.003,2079.23 190.581,2079.17 190.06,2079.05 C182.435,2074.88 178.623,2068.59 178.623,2060.19 C178.623,2056.22 180.024,2052.41 182.826,2048.76 C185.753,2045.12 189.56,2042.78 194.248,2041.73 C192.425,2034.44 190.93,2028.74 189.764,2024.64 C180.847,2034.67 175.31,2042.09 173.154,2046.91 C170.363,2053.16 168.967,2058.85 168.967,2064 M201.576,1964.69 C196.691,1967.09 192.834,1970.57 190.006,1975.13 C187.178,1979.69 185.764,1984.47 185.764,1989.48 C185.764,1994.49 186.935,2000.97 189.279,2008.92 C193.967,2003.25 197.514,1997.95 199.92,1993 C202.326,1988.05 203.529,1983.15 203.529,1978.3 C203.529,1973.45 202.878,1968.92 201.576,1964.69"/>
<path class="KeySig" d="M251.123,2059.31 L249.857,1997.2 C249.857,1996.22 250.623,1995.73 252.154,1995.73 C253.686,1995.73 254.451,1996.22 254.451,1997.2 L253.67,2031.09 C255.43,2029.33 256.943,2028.11 258.209,2027.43 C259.475,2026.75 261.199,2026.41 263.381,2026.41 C265.563,2026.41 267.581,2027.41 269.436,2029.43 C271.29,2031.44 272.217,2033.95 272.217,2036.95 C272.217,2041.44 267.498,2047.66 258.061,2055.61 C254.55,2058.8 252.727,2060.39 252.592,2060.39 L252.014,2060.39 C251.42,2060.39 251.123,2060.03 251.123,2059.31 M253.576,2034.22 L253.279,2056.39 C255.3,2054.49 257.352,2051.35 259.436,2046.95 C261.519,2042.56 262.561,2038.8 262.561,2035.67 C262.561,2034.11 262.3,2032.68 261.779,2031.37 C261.258,2030.07 260.443,2029.42 259.334,2029.42 C258.225,2029.42 257.23,2029.81 256.35,2030.59 C255.469,2031.37 254.545,2032.58 253.576,2034.22"/>
<path class="KeySig" d="M251.123,1584.31 L249.857,1522.2 C249.857,1521.22 250.623,1520.73 252.154,1520.73 C253.686,1520.73 254.451,1521.22 254.451,1522.2 L253.67,1556.09 C255.43,1554.33 256.943,1553.11 258.209,1552.43 C259.475,1551.75 261.199,1551.41 263.381,1551.41 C265.563,1551.41 267.581,1552.41 269.436,1554.43 C271.29,1556.44 272.217,1558.95 272.217,1561.95 C272.217,1566.44 267.498,1572.66 258.061,1580.61 C254.55,1583.8 252.727,1585.39 252.592,1585.39 L252.014,1585.39 C251.42,1585.39 251.123,1585.03 251.123,1584.31 M253.576,1559.22 L253.279,1581.39 C255.3,1579.49 257.352,1576.35 259.436,1571.95 C261.519,1567.56 262.561,1563.8 262.561,1560.67 C262.561,1559.11 262.3,1557.68 261.779,1556.37 C261.258,1555.07 260.443,1554.42 259.334,1554.42 C258.225,1554.42 257.23,1554.81 256.35,1555.59 C255.469,1556.37 254.545,1557.58 253.576,1559.22"/>
<path class="KeySig" d="M251.123,634.311 L249.857,572.201 C249.857,571.222 250.623,570.733 252.154,570.733 C253.686,570.733 254.451,571.222 254.451,572.201 L253.67,606.092 C255.43,604.332 256.943,603.11 258.209,602.428 C259.475,601.746 261.199,601.405 263.381,601.405 C265.563,601.405 267.581,602.412 269.436,604.428 C271.29,606.444 272.217,608.951 272.217,611.951 C272.217,616.441 267.498,622.66 258.061,630.608 C254.55,633.795 252.727,635.389 252.592,635.389 L252.014,635.389 C251.42,635.389 251.123,635.03 251.123,634.311 M253.576,609.217 L253.279,631.389 C255.3,629.493 257.352,626.347 259.436,621.951 C261.519,617.556 262.561,613.795 262.561,610.67 C262.561,609.108 262.3,607.675 261.779,606.373 C261.258,605.071 260.443,604.42 259.334,604.42 C258.225,604.42 257.23,604.811 256.35,605.592 C255.469,606.373 254.545,607.582 253.576,609.217"/>
<path class="KeySig" d="M251.123,1109.31 L249.857,1047.2 C249.857,1046.22 250.623,1045.73 252.154,1045.73 C253.686,1045.73 254.451,1046.22 254.451,1047.2 L253.67,1081.09 C255.43,1079.33 256.943,1078.11 258.209,1077.43 C259.475,1076.75 261.199,1076.4 263.381,1076.4 C265.563,1076.4 267.581,1077.41 269.436,1079.43 C271.29,1081.44 272.217,1083.95 272.217,1086.95 C272.217,1091.44 267.498,1097.66 258.061,1105.61 C254.55,1108.8 252.727,1110.39 252.592,1110.39 L252.014,1110.39 C251.42,1110.39 251.123,1110.03 251.123,1109.31 M253.576,1084.22 L253.279,1106.39 C255.3,1104.49 257.352,1101.35 259.436,1096.95 C261.519,1092.56 262.561,1088.8 262.561,1085.67 C262.561,1084.11 262.3,1082.68 261.779,1081.37 C261.258,1080.07 260.443,1079.42 259.334,1079.42 C258.225,1079.42 257.23,1079.81 256.35,1080.59 C255.469,1081.37 254.545,1082.58 253.576,1084.22"/>
<path class="KeySig" d="M251.123,2534.31 L249.857,2472.2 C249.857,2471.22 250.623,2470.73 252.154,2470.73 C253.686,2470.73 254.451,2471.22 254.451,2472.2 L253.67,2506.09 C255.43,2504.33 256.943,2503.11 258.209,2502.43 C259.475,2501.75 261.199,2501.41 263.381,2501.41 C265.563,2501.41 267.581,2502.41 269.436,2504.43 C271.29,2506.44 272.217,2508.95 272.217,2511.95 C272.217,2516.44 267.498,2522.66 258.061,2530.61 C254.55,2533.8 252.727,2535.39 252.592,2535.39 L252.014,2535.39 C251.42,2535.39 251.123,2535.03 251.123,2534.31 M253.576,2509.22 L253.279,2531.39 C255.3,2529.49 257.352,2526.35 259.436,2521.95 C261.519,2517.56 262.561,2513.8 262.561,2510.67 C262.561,2509.11 262.3,2507.68 261.779,2506.37 C261.258,2505.07 260.443,2504.42 259.334,2504.42 C258.225,2504.42 257.23,2504.81 256.35,2505.59 C255.469,2506.37 254.545,2507.58 253.576,2509.22"/>
<path class="TimeSig" d="M316.201,614.389 C320.368,614.389 322.451,610.514 322.451,602.764 L322.451,601.108 C322.451,599.222 322.386,597.644 322.256,596.373 C322.126,595.102 321.686,594.011 320.936,593.1 C320.186,592.188 319.029,591.733 317.467,591.733 L309.451,591.733 C308.545,591.733 308.092,591.277 308.092,590.365 C308.092,589.454 308.545,588.931 309.451,588.795 L317.467,588.795 C319.29,588.795 320.558,588.274 321.272,587.233 C321.985,586.191 322.378,584.498 322.451,582.155 L322.451,578.155 C322.451,572.102 320.238,569.076 315.811,569.076 C311.831,569.076 309.842,570.149 309.842,572.295 C309.842,573.014 310.446,573.795 311.654,574.639 C312.863,575.483 313.467,576.264 313.467,576.983 C313.467,578.608 312.897,579.99 311.756,581.131 C310.615,582.272 309.248,582.842 307.654,582.842 C306.061,582.842 304.709,582.256 303.6,581.084 C302.49,579.912 301.936,578.545 301.936,576.983 C301.936,573.92 303.305,571.415 306.045,569.467 C308.91,567.644 312.472,566.733 316.732,566.733 C320.993,566.733 324.719,567.66 327.912,569.514 C331.105,571.368 332.701,574.248 332.701,578.155 C332.701,580.957 332.407,583.089 331.818,584.553 C331.23,586.016 330.581,586.91 329.873,587.233 C327.977,588.014 327.029,589.024 327.029,590.264 C327.029,591.108 328.201,592.316 330.545,593.889 C331.326,594.337 332.107,595.36 332.889,596.959 C333.67,598.558 334.061,600.493 334.061,602.764 C334.061,607.264 332.386,610.717 329.037,613.123 C325.688,615.53 321.652,616.733 316.928,616.733 C312.204,616.733 308.378,615.691 305.451,613.608 C302.326,611.66 300.764,608.925 300.764,605.405 C300.764,603.717 301.415,602.155 302.717,600.717 C304.081,599.477 305.66,598.858 307.451,598.858 C309.243,598.858 310.727,599.509 311.904,600.811 C313.206,602.05 313.857,603.582 313.857,605.405 C313.857,606.248 313.206,607.16 311.904,608.139 C310.529,609.056 309.842,610.035 309.842,611.076 C309.842,612.118 310.462,612.931 311.701,613.514 C312.941,614.097 314.441,614.389 316.201,614.389"/>
<path class="TimeSig" d="M320.537,618.084 C322.032,618.084 323.464,617.858 324.834,617.405 C326.204,616.951 327.18,616.725 327.764,616.725 C328.347,616.725 328.738,617.079 328.936,617.787 C328.936,617.86 328.868,618.058 328.732,618.381 L300.326,651.397 L317.014,651.397 L317.014,638.303 C317.014,636.678 317.962,635.506 319.857,634.787 C321.805,634.069 324.019,631.173 326.498,626.1 C326.686,625.704 326.977,625.506 327.373,625.506 C328.154,625.506 328.607,625.964 328.732,626.881 L328.732,651.397 L335.873,651.397 C336.779,651.397 337.266,651.884 337.334,652.858 C337.402,653.832 336.915,654.319 335.873,654.319 L328.732,654.319 L328.732,655.1 C328.732,657.704 329.383,659.918 330.686,661.74 C332.186,663.563 333.946,664.475 335.967,664.475 C336.748,664.475 337.139,664.865 337.139,665.647 C337.139,666.428 336.602,666.819 335.529,666.819 C334.456,666.819 332.454,666.608 329.522,666.186 C326.589,665.764 324.326,665.553 322.732,665.553 C321.139,665.553 318.925,665.764 316.092,666.186 C313.258,666.608 311.128,666.819 309.701,666.819 C308.92,666.819 308.529,666.428 308.529,665.647 C308.529,664.865 308.92,664.475 309.701,664.475 C311.712,664.475 313.467,663.563 314.967,661.74 C316.331,659.855 317.014,657.642 317.014,655.1 L317.014,654.319 L300.326,654.319 C299.472,654.319 298.735,654.092 298.115,653.639 C297.495,653.186 297.186,652.764 297.186,652.373 C297.186,651.983 298.001,650.811 299.631,648.858 C301.261,646.905 303.589,643.144 306.615,637.576 C309.641,632.009 311.154,625.61 311.154,618.381 C311.154,617.339 311.613,616.819 312.529,616.819 C312.727,616.819 313.037,616.884 313.459,617.014 C313.881,617.144 314.792,617.355 316.193,617.647 C317.594,617.938 319.042,618.084 320.537,618.084"/>
<path class="Rest" d="M432.133,2511.45 C431.476,2510.61 431.148,2509.7 431.148,2508.72 C431.148,2506.97 433.237,2504.53 437.414,2501.41 C441.508,2498.21 443.554,2494.56 443.554,2490.47 C443.554,2488.05 442.711,2485.84 441.023,2483.83 L437.508,2479.62 C437.247,2479.36 437.117,2479.04 437.117,2478.65 C437.117,2478.26 437.31,2477.9 437.695,2477.58 C438.153,2477.24 438.578,2477.08 438.968,2477.08 C439.359,2477.08 439.685,2477.28 439.945,2477.67 L455.086,2495.64 C455.732,2496.48 456.054,2497.41 456.054,2498.42 C456.054,2499.43 455.518,2500.52 454.445,2501.69 C453.372,2502.87 451.862,2504.23 449.914,2505.8 C448.414,2506.7 446.997,2508.13 445.664,2510.09 C444.33,2512.04 443.664,2514.25 443.664,2516.73 C443.664,2519.21 444.445,2521.4 446.008,2523.28 L454.398,2533.14 C454.596,2533.34 454.726,2533.66 454.789,2534.12 C454.851,2534.57 454.687,2534.96 454.297,2535.29 C453.906,2535.62 453.599,2535.78 453.375,2535.78 C453.151,2535.78 452.565,2535.41 451.617,2534.66 C450.669,2533.91 449.333,2533.17 447.609,2532.46 C445.885,2531.75 444.177,2531.39 442.484,2531.39 C440.791,2531.39 439.458,2531.85 438.484,2532.76 C437.51,2533.67 437.023,2535.77 437.023,2539.05 C437.023,2542.34 437.966,2545.12 439.851,2547.41 C440.049,2547.67 440.083,2547.96 439.953,2548.28 C439.823,2548.6 439.562,2548.77 439.172,2548.77 C438.781,2548.77 437.786,2547.56 436.187,2545.16 C434.588,2542.75 433.057,2539.9 431.593,2536.61 C430.13,2533.32 429.398,2530.57 429.398,2528.36 C429.398,2525.56 430.83,2524.16 433.695,2524.16 C436.56,2524.16 440.435,2525.2 445.32,2527.28 L432.133,2511.45 "/>
<path class="Beam" fill-rule="evenodd" d="M832.344,635.477 L974.246,629.227 L974.246,641.739 L832.344,647.989 L832.344,635.477 "/>
<path class="Beam" fill-rule="evenodd" d="M1038.47,2054.23 L1170.24,2054.23 L1170.24,2066.73 L1038.47,2066.73 L1038.47,2054.23 "/>
<path class="Beam" fill-rule="evenodd" d="M1109.65,635.477 L1251.55,641.727 L1251.55,654.239 L1109.65,647.989 L1109.65,635.477 "/>
<path class="Beam" fill-rule="evenodd" d="M1967.1,2091.73 L2098.87,2091.73 L2098.87,2104.23 L1967.1,2104.23 L1967.1,2091.73 "/>
<path class="Beam" fill-rule="evenodd" d="M2276.86,616.727 L2418.76,610.477 L2418.76,622.989 L2276.86,629.239 L2276.86,616.727 "/>
<path class="Beam" fill-rule="evenodd" d="M2554.16,629.227 L2696.07,635.477 L2696.07,647.989 L2554.16,641.739 L2554.16,629.227 "/>
<path class="Beam" fill-rule="evenodd" d="M1999.23,1141.73 L2126.05,1141.73 L2126.05,1154.23 L1999.23,1154.23 L1999.23,1141.73 "/>
<path class="Beam" fill-rule="evenodd" d="M1295.51,2060.48 L1427.28,2060.48 L1427.28,2072.98 L1295.51,2072.98 L1295.51,2060.48 "/>
<path class="Beam" fill-rule="evenodd" d="M1105.2,1085.48 L1232.03,1079.23 L1232.03,1091.74 L1105.2,1097.99 L1105.2,1085.48 "/>
<path class="Beam" fill-rule="evenodd" d="M1352.35,1085.48 L1479.18,1091.73 L1479.18,1104.24 L1352.35,1097.99 L1352.35,1085.48 "/>
<path class="Page" d="M1390.23,3976.58 C1390.23,3977.27 1390.15,3977.93 1389.99,3978.56 C1389.83,3979.19 1389.52,3979.86 1389.05,3980.57 C1388.58,3981.29 1387.96,3981.9 1387.19,3982.41 C1386.42,3982.92 1385.36,3983.35 1384.03,3983.69 C1382.7,3984.04 1381.15,3984.21 1379.39,3984.21 C1378.59,3984.21 1377.67,3984.17 1376.63,3984.08 L1376.63,3991.41 C1376.63,3992.89 1376.86,3993.85 1377.33,3994.29 C1377.8,3994.74 1378.82,3994.98 1380.39,3995.04 L1380.39,3995.8 L1369.19,3995.8 L1369.19,3995.04 C1370.71,3994.91 1371.65,3994.63 1372.01,3994.18 C1372.37,3993.74 1372.55,3992.68 1372.55,3991 L1372.55,3973.69 C1372.55,3972.24 1372.36,3971.32 1371.99,3970.93 C1371.62,3970.53 1370.69,3970.25 1369.19,3970.08 L1369.19,3969.33 L1379.75,3969.33 C1380.95,3969.33 1382.11,3969.44 1383.23,3969.67 C1384.35,3969.89 1385.46,3970.26 1386.57,3970.77 C1387.68,3971.28 1388.57,3972.03 1389.23,3973.02 C1389.9,3974.01 1390.23,3975.2 1390.23,3976.58 M1376.63,3972.21 L1376.63,3982.57 C1377.56,3982.64 1378.32,3982.68 1378.91,3982.68 C1383.55,3982.68 1385.88,3980.72 1385.88,3976.82 C1385.88,3974.78 1385.23,3973.27 1383.95,3972.3 C1382.67,3971.33 1380.68,3970.85 1377.98,3970.85 C1377.45,3970.85 1377.09,3970.94 1376.91,3971.13 C1376.72,3971.32 1376.63,3971.68 1376.63,3972.21 M1410.83,3993.72 L1410.83,3994.29 C1408.74,3994.87 1406.92,3995.49 1405.34,3996.16 L1405.19,3996.08 L1405.19,3992.69 C1405.1,3992.76 1404.87,3993 1404.48,3993.4 C1404.1,3993.8 1403.83,3994.08 1403.66,3994.23 C1403.5,3994.38 1403.23,3994.62 1402.84,3994.93 C1402.46,3995.25 1402.12,3995.48 1401.83,3995.62 C1401.54,3995.76 1401.16,3995.9 1400.71,3996.02 C1400.26,3996.15 1399.8,3996.21 1399.34,3996.21 C1397.88,3996.21 1396.7,3995.73 1395.82,3994.77 C1394.94,3993.81 1394.5,3992.54 1394.5,3990.94 L1394.5,3980.91 C1394.5,3979.98 1394.33,3979.34 1393.98,3978.98 C1393.64,3978.62 1392.99,3978.42 1392.03,3978.36 L1392.03,3977.8 L1397.86,3977.8 L1397.86,3990.77 C1397.86,3991.59 1398.14,3992.3 1398.7,3992.9 C1399.27,3993.5 1399.93,3993.8 1400.7,3993.8 C1400.99,3993.8 1401.34,3993.76 1401.74,3993.68 C1402.14,3993.61 1402.6,3993.45 1403.13,3993.22 C1403.65,3992.99 1404.09,3992.63 1404.45,3992.15 C1404.8,3991.66 1404.98,3991.05 1404.98,3990.33 L1404.98,3980.99 C1404.98,3980.01 1404.8,3979.36 1404.45,3979.04 C1404.09,3978.73 1403.28,3978.54 1402.02,3978.49 L1402.02,3977.8 L1408.34,3977.8 L1408.34,3991.46 C1408.34,3992.38 1408.49,3992.99 1408.78,3993.29 C1409.07,3993.58 1409.69,3993.72 1410.63,3993.72 L1410.83,3993.72 M1417.03,3968.57 L1417.03,3980.69 C1417.43,3979.74 1418.15,3978.96 1419.19,3978.34 C1420.23,3977.72 1421.36,3977.41 1422.58,3977.41 C1424.58,3977.41 1426.25,3978.24 1427.6,3979.9 C1428.95,3981.55 1429.63,3983.6 1429.63,3986.05 C1429.63,3988.91 1428.72,3991.31 1426.92,3993.27 C1425.12,3995.23 1422.9,3996.21 1420.27,3996.21 C1418.66,3996.21 1417.16,3995.94 1415.77,3995.4 C1414.37,3994.87 1413.67,3994.3 1413.67,3993.71 L1413.67,3972.88 C1413.67,3972.06 1413.54,3971.51 1413.29,3971.25 C1413.03,3970.98 1412.51,3970.85 1411.7,3970.85 C1411.41,3970.85 1411.19,3970.86 1411.03,3970.88 L1411.03,3970.24 C1413.08,3969.74 1415.02,3969.16 1416.83,3968.49 L1417.03,3968.57 M1417.03,3982.85 L1417.03,3993.05 C1417.03,3993.57 1417.42,3994.03 1418.19,3994.42 C1418.96,3994.81 1419.86,3995 1420.91,3995 C1422.56,3995 1423.84,3994.38 1424.75,3993.14 C1425.66,3991.89 1426.11,3990.15 1426.11,3987.91 C1426.11,3985.45 1425.65,3983.49 1424.73,3982.01 C1423.8,3980.54 1422.56,3979.8 1420.98,3979.8 C1419.94,3979.8 1419.02,3980.11 1418.23,3980.73 C1417.43,3981.35 1417.03,3982.06 1417.03,3982.85 M1430.61,3970.88 L1430.61,3970.24 C1433.24,3969.6 1435.36,3969.02 1436.97,3968.49 L1437.13,3968.57 L1437.13,3992.44 C1437.13,3993.54 1437.3,3994.25 1437.66,3994.58 C1438.02,3994.92 1438.84,3995.12 1440.13,3995.21 L1440.13,3995.8 L1430.69,3995.8 L1430.69,3995.21 C1431.94,3995.09 1432.76,3994.85 1433.16,3994.48 C1433.57,3994.11 1433.77,3993.39 1433.77,3992.32 L1433.77,3973.24 C1433.77,3972.31 1433.65,3971.67 1433.41,3971.32 C1433.17,3970.98 1432.72,3970.8 1432.08,3970.8 C1431.55,3970.8 1431.06,3970.83 1430.61,3970.88 M1443,3980.08 C1442.41,3980.08 1441.84,3980.12 1441.31,3980.21 L1441.31,3979.6 C1443.18,3979.07 1445.24,3978.34 1447.52,3977.41 L1447.67,3977.52 L1447.67,3991.72 C1447.67,3993.16 1447.84,3994.07 1448.17,3994.46 C1448.51,3994.84 1449.33,3995.09 1450.64,3995.21 L1450.64,3995.8 L1441.16,3995.8 L1441.16,3995.21 C1442.54,3995.12 1443.41,3994.88 1443.77,3994.48 C1444.13,3994.08 1444.31,3993.16 1444.31,3991.72 L1444.31,3982.44 C1444.31,3981.57 1444.21,3980.96 1444.02,3980.61 C1443.82,3980.26 1443.48,3980.08 1443,3980.08 M1445.64,3968.49 C1446.22,3968.49 1446.72,3968.69 1447.12,3969.09 C1447.52,3969.49 1447.72,3969.97 1447.72,3970.52 C1447.72,3971.11 1447.52,3971.6 1447.12,3971.99 C1446.72,3972.37 1446.22,3972.57 1445.64,3972.57 C1445.08,3972.57 1444.6,3972.37 1444.22,3971.97 C1443.83,3971.56 1443.64,3971.09 1443.64,3970.53 C1443.64,3969.97 1443.84,3969.49 1444.23,3969.09 C1444.63,3968.69 1445.1,3968.49 1445.64,3968.49 M1451.83,3987.27 C1451.83,3984.31 1452.7,3981.93 1454.45,3980.12 C1456.19,3978.31 1458.24,3977.41 1460.59,3977.41 C1462.27,3977.41 1463.72,3977.82 1464.93,3978.63 C1466.14,3979.44 1466.75,3980.41 1466.75,3981.52 C1466.75,3981.98 1466.56,3982.37 1466.19,3982.71 C1465.81,3983.04 1465.36,3983.21 1464.83,3983.21 C1463.92,3983.21 1463.3,3982.6 1462.95,3981.38 L1462.7,3980.5 C1462.49,3979.76 1462.23,3979.26 1461.91,3979 C1461.58,3978.73 1461.06,3978.6 1460.34,3978.6 C1458.72,3978.6 1457.41,3979.24 1456.41,3980.53 C1455.41,3981.81 1454.91,3983.48 1454.91,3985.52 C1454.91,3987.8 1455.49,3989.67 1456.65,3991.11 C1457.81,3992.56 1459.3,3993.29 1461.11,3993.29 C1462.26,3993.29 1463.24,3993.01 1464.07,3992.45 C1464.9,3991.89 1465.79,3990.92 1466.75,3989.54 L1467.31,3989.9 C1467.04,3990.44 1466.81,3990.88 1466.61,3991.22 C1466.41,3991.57 1466.05,3992.09 1465.53,3992.79 C1465.01,3993.48 1464.49,3994.05 1463.98,3994.47 C1463.47,3994.9 1462.81,3995.3 1461.98,3995.66 C1461.16,3996.03 1460.31,3996.21 1459.42,3996.21 C1457.21,3996.21 1455.4,3995.37 1453.97,3993.7 C1452.54,3992.03 1451.83,3989.88 1451.83,3987.27 M1505.92,3982.44 C1505.92,3983.64 1505.79,3984.81 1505.52,3985.96 C1505.26,3987.1 1504.76,3988.29 1504.04,3989.52 C1503.32,3990.75 1502.39,3991.81 1501.27,3992.7 C1500.15,3993.59 1498.67,3994.33 1496.82,3994.92 C1494.97,3995.51 1492.87,3995.8 1490.52,3995.8 L1479.16,3995.8 L1479.16,3995.04 C1480.68,3994.93 1481.65,3994.67 1482.06,3994.24 C1482.48,3993.81 1482.69,3992.88 1482.69,3991.44 L1482.69,3973.69 C1482.69,3972.22 1482.49,3971.29 1482.1,3970.9 C1481.71,3970.5 1480.73,3970.23 1479.16,3970.08 L1479.16,3969.33 L1489.95,3969.33 C1492.38,3969.33 1494.55,3969.61 1496.45,3970.15 C1498.36,3970.7 1499.89,3971.41 1501.05,3972.27 C1502.22,3973.13 1503.18,3974.16 1503.94,3975.35 C1504.7,3976.54 1505.22,3977.7 1505.5,3978.85 C1505.78,3979.99 1505.92,3981.19 1505.92,3982.44 M1501.56,3982.72 C1501.56,3981.58 1501.45,3980.48 1501.22,3979.43 C1500.99,3978.39 1500.58,3977.32 1500,3976.25 C1499.42,3975.17 1498.66,3974.24 1497.72,3973.47 C1496.78,3972.7 1495.55,3972.07 1494.04,3971.58 C1492.52,3971.09 1490.79,3970.85 1488.84,3970.85 C1488.01,3970.85 1487.46,3970.96 1487.18,3971.17 C1486.9,3971.38 1486.77,3971.79 1486.77,3972.4 L1486.77,3992.65 C1486.77,3993.28 1486.91,3993.71 1487.2,3993.94 C1487.49,3994.17 1488.04,3994.29 1488.84,3994.29 C1497.32,3994.29 1501.56,3990.43 1501.56,3982.72 M1517.16,3977.41 C1519.71,3977.41 1521.81,3978.26 1523.47,3979.97 C1525.13,3981.67 1525.95,3983.83 1525.95,3986.44 C1525.95,3989.21 1525.1,3991.53 1523.39,3993.4 C1521.68,3995.27 1519.58,3996.21 1517.07,3996.21 C1514.57,3996.21 1512.48,3995.31 1510.81,3993.5 C1509.15,3991.7 1508.31,3989.46 1508.31,3986.77 C1508.31,3984.02 1509.13,3981.77 1510.77,3980.03 C1512.41,3978.28 1514.54,3977.41 1517.16,3977.41 M1511.91,3984.82 C1511.91,3987.65 1512.43,3990.06 1513.47,3992.04 C1514.51,3994.01 1515.87,3995 1517.55,3995 C1519.05,3995 1520.22,3994.37 1521.07,3993.1 C1521.92,3991.83 1522.34,3990.07 1522.34,3987.83 C1522.34,3985.11 1521.81,3982.9 1520.75,3981.18 C1519.69,3979.46 1518.31,3978.6 1516.63,3978.6 C1515.22,3978.6 1514.08,3979.17 1513.21,3980.3 C1512.34,3981.44 1511.91,3982.94 1511.91,3984.82 M1527.05,3979.96 L1527.05,3979.29 C1528.97,3978.72 1530.84,3978.1 1532.66,3977.41 L1532.94,3977.49 L1532.94,3980.57 C1534.58,3979.28 1535.81,3978.43 1536.61,3978.02 C1537.41,3977.61 1538.25,3977.41 1539.13,3977.41 C1541.23,3977.41 1542.65,3978.55 1543.38,3980.83 C1545.45,3978.55 1547.62,3977.41 1549.89,3977.41 C1552.98,3977.41 1554.53,3979.8 1554.53,3984.58 L1554.53,3992.77 C1554.53,3994.26 1555.1,3995.05 1556.25,3995.13 L1557.28,3995.21 L1557.28,3995.8 L1548.53,3995.8 L1548.53,3995.21 C1549.7,3995.07 1550.43,3994.85 1550.73,3994.53 C1551.02,3994.21 1551.17,3993.48 1551.17,3992.33 L1551.17,3983.94 C1551.17,3982.3 1550.96,3981.16 1550.53,3980.52 C1550.1,3979.88 1549.32,3979.57 1548.17,3979.57 C1546.41,3979.57 1544.96,3980.37 1543.81,3981.99 L1543.81,3992.02 C1543.81,3993.27 1544.01,3994.11 1544.39,3994.53 C1544.78,3994.95 1545.54,3995.18 1546.69,3995.21 L1546.69,3995.8 L1537.73,3995.8 L1537.73,3995.21 C1538.88,3995.12 1539.62,3994.91 1539.95,3994.57 C1540.29,3994.22 1540.45,3993.49 1540.45,3992.38 L1540.45,3983.74 C1540.45,3980.96 1539.57,3979.57 1537.81,3979.57 C1537.06,3979.57 1536.23,3979.75 1535.31,3980.12 C1534.4,3980.49 1533.66,3981.09 1533.09,3981.91 L1533.09,3993.13 C1533.09,3993.9 1533.28,3994.43 1533.65,3994.71 C1534.02,3994.99 1534.74,3995.16 1535.81,3995.21 L1535.81,3995.8 L1526.94,3995.8 L1526.94,3995.21 C1528.05,3995.18 1528.8,3994.98 1529.17,3994.61 C1529.55,3994.24 1529.73,3993.5 1529.73,3992.41 L1529.73,3982.35 C1529.73,3981.39 1529.63,3980.73 1529.43,3980.36 C1529.23,3979.99 1528.86,3979.8 1528.33,3979.8 C1527.93,3979.8 1527.51,3979.85 1527.05,3979.96 M1558.48,3991.85 C1558.48,3991.37 1558.54,3990.92 1558.64,3990.51 C1558.74,3990.1 1558.93,3989.72 1559.2,3989.36 C1559.47,3989.01 1559.73,3988.69 1559.97,3988.4 C1560.21,3988.1 1560.57,3987.8 1561.05,3987.5 C1561.53,3987.19 1561.92,3986.94 1562.24,3986.74 C1562.56,3986.54 1563.05,3986.3 1563.7,3986.02 C1564.36,3985.74 1564.86,3985.53 1565.2,3985.38 C1565.55,3985.23 1566.09,3985.01 1566.84,3984.72 C1567.59,3984.43 1568.14,3984.22 1568.48,3984.1 L1568.48,3981.66 C1568.48,3979.46 1567.47,3978.36 1565.44,3978.36 C1564.65,3978.36 1563.97,3978.56 1563.41,3978.94 C1562.84,3979.33 1562.56,3979.79 1562.56,3980.32 C1562.56,3980.54 1562.6,3980.83 1562.66,3981.21 C1562.73,3981.58 1562.77,3981.82 1562.77,3981.93 C1562.77,3982.37 1562.59,3982.76 1562.23,3983.1 C1561.87,3983.43 1561.45,3983.6 1560.97,3983.6 C1560.51,3983.6 1560.11,3983.43 1559.77,3983.08 C1559.42,3982.74 1559.25,3982.34 1559.25,3981.88 C1559.25,3980.63 1559.9,3979.57 1561.19,3978.71 C1562.48,3977.84 1564.07,3977.41 1565.97,3977.41 C1568.16,3977.41 1569.66,3977.93 1570.48,3978.98 C1571.31,3980.03 1571.72,3981.62 1571.72,3983.77 L1571.72,3991.54 C1571.72,3992.41 1571.8,3993.01 1571.98,3993.35 C1572.15,3993.68 1572.46,3993.85 1572.92,3993.85 C1573.48,3993.85 1574.07,3993.59 1574.69,3993.08 L1574.69,3994.13 C1573.99,3994.93 1573.38,3995.48 1572.86,3995.77 C1572.34,3996.06 1571.74,3996.21 1571.08,3996.21 C1570.26,3996.21 1569.65,3995.97 1569.27,3995.5 C1568.88,3995.04 1568.63,3994.27 1568.52,3993.21 C1566.22,3995.21 1564.28,3996.21 1562.69,3996.21 C1561.46,3996.21 1560.45,3995.8 1559.66,3994.99 C1558.88,3994.18 1558.48,3993.13 1558.48,3991.85 M1568.48,3990.82 L1568.48,3985.05 C1566.09,3985.93 1564.41,3986.78 1563.45,3987.6 C1562.48,3988.42 1562,3989.42 1562,3990.58 C1562,3991.67 1562.27,3992.47 1562.8,3993 C1563.34,3993.54 1563.91,3993.8 1564.52,3993.8 C1565.43,3993.8 1566.41,3993.49 1567.44,3992.88 C1567.86,3992.65 1568.15,3992.4 1568.28,3992.14 C1568.42,3991.87 1568.48,3991.43 1568.48,3990.82 M1577.16,3980.08 C1576.56,3980.08 1576,3980.12 1575.47,3980.21 L1575.47,3979.6 C1577.33,3979.07 1579.4,3978.34 1581.67,3977.41 L1581.83,3977.52 L1581.83,3991.72 C1581.83,3993.16 1581.99,3994.07 1582.33,3994.46 C1582.66,3994.84 1583.48,3995.09 1584.8,3995.21 L1584.8,3995.8 L1575.31,3995.8 L1575.31,3995.21 C1576.7,3995.12 1577.57,3994.88 1577.93,3994.48 C1578.29,3994.08 1578.47,3993.16 1578.47,3991.72 L1578.47,3982.44 C1578.47,3981.57 1578.37,3980.96 1578.17,3980.61 C1577.97,3980.26 1577.64,3980.08 1577.16,3980.08 M1579.8,3968.49 C1580.38,3968.49 1580.87,3968.69 1581.27,3969.09 C1581.67,3969.49 1581.88,3969.97 1581.88,3970.52 C1581.88,3971.11 1581.67,3971.6 1581.27,3971.99 C1580.87,3972.37 1580.38,3972.57 1579.8,3972.57 C1579.23,3972.57 1578.76,3972.37 1578.38,3971.97 C1577.99,3971.56 1577.8,3971.09 1577.8,3970.53 C1577.8,3969.97 1577.99,3969.49 1578.39,3969.09 C1578.79,3968.69 1579.26,3968.49 1579.8,3968.49 M1585.78,3979.85 L1585.78,3979.16 C1587.75,3978.59 1589.59,3978 1591.3,3977.41 L1591.58,3977.49 L1591.58,3980.6 C1592.93,3979.34 1594,3978.49 1594.79,3978.06 C1595.58,3977.63 1596.44,3977.41 1597.38,3977.41 C1598.84,3977.41 1600,3977.93 1600.84,3978.98 C1601.67,3980.03 1602.09,3981.49 1602.09,3983.38 L1602.09,3992.55 C1602.09,3993.54 1602.25,3994.2 1602.57,3994.54 C1602.89,3994.87 1603.54,3995.09 1604.53,3995.21 L1604.53,3995.8 L1596.22,3995.8 L1596.22,3995.21 C1597.23,3995.12 1597.9,3994.86 1598.23,3994.4 C1598.57,3993.95 1598.73,3993.09 1598.73,3991.83 L1598.73,3983.46 C1598.73,3980.86 1597.76,3979.57 1595.81,3979.57 C1595.15,3979.57 1594.53,3979.72 1593.98,3980.03 C1593.42,3980.34 1592.66,3980.94 1591.69,3981.85 L1591.69,3993.11 C1591.69,3993.83 1591.88,3994.34 1592.25,3994.64 C1592.63,3994.93 1593.32,3995.12 1594.33,3995.21 L1594.33,3995.8 L1585.86,3995.8 L1585.86,3995.21 C1586.87,3995.12 1587.53,3994.89 1587.85,3994.5 C1588.17,3994.12 1588.33,3993.35 1588.33,3992.19 L1588.33,3982.25 C1588.33,3981.26 1588.22,3980.59 1588.01,3980.22 C1587.79,3979.86 1587.41,3979.68 1586.86,3979.68 C1586.35,3979.68 1585.99,3979.73 1585.78,3979.85"/>
</svg>
