<?xml version="1.0" encoding="UTF-8" standalone="no"?>
<svg width="2977.2px" height="4208.4px" viewBox="0 0 2977.2 4208.4"
 xmlns="http://www.w3.org/2000/svg" xmlns:xlink="http://www.w3.org/1999/xlink" version="1.2" baseProfile="tiny">
<title>Gb_Blues.mscx</title>
<desc>Generated by MuseScore Studio 4.3.1</desc>
<path class="" fill="#ffffff" fill-rule="evenodd" d="M0,0 L2977.2,0 L2977.2,4208.4 L0,4208.4 L0,0 "/>
<polyline class="StaffLines" fill="none" stroke="#000000" stroke-width="2.00" stroke-linejoin="bevel" points="141.732,566.733 2835.47,566.733"/>
<polyline class="StaffLines" fill="none" stroke="#000000" stroke-width="2.00" stroke-linejoin="bevel" points="141.732,591.733 2835.47,591.733"/>
<polyline class="StaffLines" fill="none" stroke="#000000" stroke-width="2.00" stroke-linejoin="bevel" points="141.732,616.733 2835.47,616.733"/>
<polyline class="StaffLines" fill="none" stroke="#000000" stroke-width="2.00" stroke-linejoin="bevel" points="141.732,641.733 2835.47,641.733"/>
<polyline class="StaffLines" fill="none" stroke="#000000" stroke-width="2.00" stroke-linejoin="bevel" points="141.732,666.733 2835.47,666.733"/>
<polyline class="BarLine" fill="none" stroke="#000000" stroke-width="4.00" stroke-linejoin="bevel" points="631.108,565.733 631.108,667.733"/>
<polyline class="BarLine" fill="none" stroke="#000000" stroke-width="4.00" stroke-linejoin="bevel" points="1247.06,565.733 1247.06,667.733"/>
<polyline class="BarLine" fill="none" stroke="#000000" stroke-width="4.00" stroke-linejoin="bevel" points="933.827,565.733 933.827,667.733"/>
<polyline class="BarLine" fill="none" stroke="#000000" stroke-width="4.00" stroke-linejoin="bevel" points="2802.72,565.733 2802.72,667.733"/>
<polyline class="BarLine" fill="none" stroke="#000000" stroke-width="12.50" stroke-linejoin="bevel" points="2829.22,565.733 2829.22,667.733"/>
<polyline class="BarLine" fill="none" stroke="#000000" stroke-width="4.00" stroke-linejoin="bevel" points="1560.3,565.733 1560.3,667.733"/>
<polyline class="BarLine" fill="none" stroke="#000000" stroke-width="4.00" stroke-linejoin="bevel" points="1873.53,565.733 1873.53,667.733"/>
<polyline class="BarLine" fill="none" stroke="#000000" stroke-width="4.00" stroke-linejoin="bevel" points="2186.76,565.733 2186.76,667.733"/>
<polyline class="BarLine" fill="none" stroke="#000000" stroke-width="4.00" stroke-linejoin="bevel" points="2489.48,565.733 2489.48,667.733"/>
<path class="Accidental" d="M1884.42,609.311 L1883.16,547.201 C1883.16,546.222 1883.92,545.733 1885.45,545.733 C1886.98,545.733 1887.75,546.222 1887.75,547.201 L1886.97,581.092 C1888.73,579.332 1890.24,578.11 1891.51,577.428 C1892.77,576.746 1894.5,576.405 1896.68,576.405 C1898.86,576.405 1900.88,577.412 1902.73,579.428 C1904.59,581.444 1905.51,583.951 1905.51,586.951 C1905.51,591.441 1900.8,597.66 1891.36,605.608 C1887.85,608.795 1886.03,610.389 1885.89,610.389 L1885.31,610.389 C1884.72,610.389 1884.42,610.03 1884.42,609.311 M1886.87,584.217 L1886.58,606.389 C1888.6,604.493 1890.65,601.347 1892.73,596.951 C1894.82,592.556 1895.86,588.795 1895.86,585.67 C1895.86,584.108 1895.6,582.675 1895.08,581.373 C1894.56,580.071 1893.74,579.42 1892.63,579.42 C1891.52,579.42 1890.53,579.811 1889.65,580.592 C1888.77,581.373 1887.84,582.582 1886.87,584.217"/>
<path class="Accidental" d="M1571.19,571.811 L1569.92,509.701 C1569.92,508.722 1570.69,508.233 1572.22,508.233 C1573.75,508.233 1574.51,508.722 1574.51,509.701 L1573.73,543.592 C1575.49,541.832 1577.01,540.61 1578.27,539.928 C1579.54,539.246 1581.26,538.904 1583.44,538.904 C1585.63,538.904 1587.64,539.912 1589.5,541.928 C1591.35,543.944 1592.28,546.451 1592.28,549.451 C1592.28,553.941 1587.56,560.16 1578.12,568.108 C1574.61,571.295 1572.79,572.889 1572.66,572.889 L1572.08,572.889 C1571.48,572.889 1571.19,572.529 1571.19,571.811 M1573.64,546.717 L1573.34,568.889 C1575.36,566.993 1577.42,563.847 1579.5,559.451 C1581.58,555.056 1582.62,551.295 1582.62,548.17 C1582.62,546.608 1582.36,545.175 1581.84,543.873 C1581.32,542.571 1580.51,541.92 1579.4,541.92 C1578.29,541.92 1577.29,542.311 1576.41,543.092 C1575.53,543.873 1574.61,545.082 1573.64,546.717"/>
<path class="Accidental" d="M2500.37,659.311 L2499.11,597.201 C2499.11,596.222 2499.87,595.733 2501.41,595.733 C2502.94,595.733 2503.7,596.222 2503.7,597.201 L2502.92,631.092 C2504.68,629.332 2506.19,628.11 2507.46,627.428 C2508.73,626.746 2510.45,626.405 2512.63,626.405 C2514.81,626.405 2516.83,627.412 2518.69,629.428 C2520.54,631.444 2521.47,633.951 2521.47,636.951 C2521.47,641.441 2516.75,647.66 2507.31,655.608 C2503.8,658.795 2501.98,660.389 2501.84,660.389 L2501.27,660.389 C2500.67,660.389 2500.37,660.03 2500.37,659.311 M2502.83,634.217 L2502.53,656.389 C2504.55,654.493 2506.6,651.347 2508.69,646.951 C2510.77,642.556 2511.81,638.795 2511.81,635.67 C2511.81,634.108 2511.55,632.675 2511.03,631.373 C2510.51,630.071 2509.69,629.42 2508.59,629.42 C2507.48,629.42 2506.48,629.811 2505.6,630.592 C2504.72,631.373 2503.8,632.582 2502.83,634.217"/>
<path class="Accidental" d="M1257.95,571.811 L1256.69,509.701 C1256.69,508.722 1257.45,508.233 1258.98,508.233 C1260.51,508.233 1261.28,508.722 1261.28,509.701 L1260.5,543.592 C1262.26,541.832 1263.77,540.61 1265.04,539.928 C1266.3,539.246 1268.03,538.904 1270.21,538.904 C1272.39,538.904 1274.41,539.912 1276.26,541.928 C1278.12,543.944 1279.05,546.451 1279.05,549.451 C1279.05,553.941 1274.33,560.16 1264.89,568.108 C1261.38,571.295 1259.56,572.889 1259.42,572.889 L1258.84,572.889 C1258.25,572.889 1257.95,572.529 1257.95,571.811 M1260.4,546.717 L1260.11,568.889 C1262.13,566.993 1264.18,563.847 1266.26,559.451 C1268.35,555.056 1269.39,551.295 1269.39,548.17 C1269.39,546.608 1269.13,545.175 1268.61,543.873 C1268.09,542.571 1267.27,541.92 1266.16,541.92 C1265.05,541.92 1264.06,542.311 1263.18,543.092 C1262.3,543.873 1261.37,545.082 1260.4,546.717"/>
<path class="Accidental" d="M944.717,609.311 L943.452,547.201 C943.452,546.222 944.217,545.733 945.748,545.733 C947.28,545.733 948.045,546.222 948.045,547.201 L947.264,581.092 C949.025,579.332 950.538,578.11 951.803,577.428 C953.069,576.746 954.793,576.405 956.975,576.405 C959.157,576.405 961.176,577.412 963.03,579.428 C964.884,581.444 965.811,583.951 965.811,586.951 C965.811,591.441 961.092,597.66 951.655,605.608 C948.144,608.795 946.321,610.389 946.186,610.389 L945.608,610.389 C945.014,610.389 944.717,610.03 944.717,609.311 M947.17,584.217 L946.873,606.389 C948.894,604.493 950.946,601.347 953.03,596.951 C955.113,592.556 956.155,588.795 956.155,585.67 C956.155,584.108 955.894,582.675 955.373,581.373 C954.853,580.071 954.038,579.42 952.928,579.42 C951.819,579.42 950.824,579.811 949.944,580.592 C949.064,581.373 948.139,582.582 947.17,584.217"/>
<path class="Accidental" d="M328.764,659.311 L327.498,597.201 C327.498,596.222 328.264,595.733 329.795,595.733 C331.326,595.733 332.092,596.222 332.092,597.201 L331.311,631.092 C333.071,629.332 334.584,628.11 335.85,627.428 C337.115,626.746 338.839,626.405 341.022,626.405 C343.204,626.405 345.222,627.412 347.076,629.428 C348.93,631.444 349.857,633.951 349.857,636.951 C349.857,641.441 345.139,647.66 335.701,655.608 C332.191,658.795 330.368,660.389 330.232,660.389 L329.654,660.389 C329.061,660.389 328.764,660.03 328.764,659.311 M331.217,634.217 L330.92,656.389 C332.941,654.493 334.993,651.347 337.076,646.951 C339.16,642.556 340.201,638.795 340.201,635.67 C340.201,634.108 339.941,632.675 339.42,631.373 C338.899,630.071 338.084,629.42 336.975,629.42 C335.865,629.42 334.87,629.811 333.99,630.592 C333.11,631.373 332.186,632.582 331.217,634.217"/>
<polyline class="Stem" fill="none" stroke="#000000" stroke-width="3.25" stroke-linejoin="bevel" points="1109.38,584.133 1109.38,666.733"/>
<polyline class="Stem" fill="none" stroke="#000000" stroke-width="3.25" stroke-linejoin="bevel" points="2560.09,636.933 2560.09,554.233"/>
<polyline class="Stem" fill="none" stroke="#000000" stroke-width="3.25" stroke-linejoin="bevel" points="2383.27,624.433 2383.27,547.983"/>
<polyline class="Stem" fill="none" stroke="#000000" stroke-width="3.25" stroke-linejoin="bevel" points="2215.39,621.633 2215.39,691.733"/>
<polyline class="Stem" fill="none" stroke="#000000" stroke-width="3.25" stroke-linejoin="bevel" points="388.483,636.933 388.483,554.233"/>
<polyline class="Stem" fill="none" stroke="#000000" stroke-width="3.25" stroke-linejoin="bevel" points="2049.08,609.133 2049.08,685.483"/>
<polyline class="Stem" fill="none" stroke="#000000" stroke-width="3.25" stroke-linejoin="bevel" points="1912.67,596.633 1912.67,679.233"/>
<polyline class="Stem" fill="none" stroke="#000000" stroke-width="3.25" stroke-linejoin="bevel" points="524.891,624.433 524.891,547.983"/>
<polyline class="Stem" fill="none" stroke="#000000" stroke-width="3.25" stroke-linejoin="bevel" points="1735.84,584.133 1735.84,666.733"/>
<polyline class="Stem" fill="none" stroke="#000000" stroke-width="3.25" stroke-linejoin="bevel" points="1599.44,559.133 1599.44,641.733"/>
<polyline class="Stem" fill="none" stroke="#000000" stroke-width="3.25" stroke-linejoin="bevel" points="659.733,621.633 659.733,691.733"/>
<polyline class="Stem" fill="none" stroke="#000000" stroke-width="3.25" stroke-linejoin="bevel" points="796.141,609.133 796.141,685.483"/>
<polyline class="Stem" fill="none" stroke="#000000" stroke-width="3.25" stroke-linejoin="bevel" points="972.967,596.633 972.967,679.233"/>
<polyline class="Stem" fill="none" stroke="#000000" stroke-width="3.25" stroke-linejoin="bevel" points="1286.2,559.133 1286.2,641.733"/>
<path class="Note" d="M1605.23,564.873 C1607.12,564.873 1611.07,562.92 1617.1,559.014 C1623.13,555.108 1626.68,552.488 1627.75,551.154 C1628.82,549.821 1629.36,548.634 1629.36,547.592 C1629.36,546.55 1628.93,545.623 1628.08,544.811 C1627.24,543.998 1626.26,543.592 1625.16,543.592 C1623.21,543.592 1619.22,545.561 1613.19,549.498 C1607.17,553.436 1603.63,556.056 1602.59,557.358 C1601.55,558.66 1601.03,559.832 1601.03,560.873 C1601.03,561.915 1601.44,562.842 1602.26,563.654 C1603.07,564.467 1604.07,564.873 1605.23,564.873 M1624.19,540.467 C1629.78,540.467 1632.58,542.873 1632.58,547.686 C1632.58,550.029 1631.89,552.748 1630.53,555.842 C1629.17,558.936 1627.34,561.295 1625.06,562.92 C1620.05,566.306 1613.77,567.998 1606.22,567.998 C1600.61,567.998 1597.81,565.592 1597.81,560.779 C1597.81,558.634 1598.48,555.964 1599.81,552.772 C1601.14,549.579 1602.98,547.17 1605.33,545.545 C1610.35,542.16 1616.63,540.467 1624.19,540.467"/>
<path class="Note" d="M2534.42,652.373 C2536.31,652.373 2540.26,650.42 2546.29,646.514 C2552.31,642.608 2555.86,639.988 2556.94,638.655 C2558.01,637.321 2558.55,636.134 2558.55,635.092 C2558.55,634.05 2558.12,633.123 2557.27,632.311 C2556.42,631.498 2555.45,631.092 2554.34,631.092 C2552.4,631.092 2548.41,633.061 2542.38,636.998 C2536.36,640.936 2532.82,643.556 2531.78,644.858 C2530.74,646.16 2530.22,647.332 2530.22,648.373 C2530.22,649.415 2530.63,650.342 2531.44,651.155 C2532.26,651.967 2533.25,652.373 2534.42,652.373 M2553.37,627.967 C2558.97,627.967 2561.77,630.373 2561.77,635.186 C2561.77,637.53 2561.08,640.248 2559.72,643.342 C2558.35,646.436 2556.53,648.795 2554.25,650.42 C2549.24,653.806 2542.96,655.498 2535.41,655.498 C2529.8,655.498 2527,653.092 2527,648.28 C2527,646.134 2527.67,643.464 2529,640.272 C2530.33,637.079 2532.17,634.67 2534.52,633.045 C2539.54,629.66 2545.82,627.967 2553.37,627.967"/>
<path class="Note" d="M1115.17,589.873 C1117.06,589.873 1121.01,587.92 1127.04,584.014 C1133.07,580.108 1136.62,577.488 1137.69,576.155 C1138.76,574.821 1139.3,573.634 1139.3,572.592 C1139.3,571.55 1138.87,570.623 1138.02,569.811 C1137.18,568.998 1136.2,568.592 1135.09,568.592 C1133.15,568.592 1129.16,570.561 1123.13,574.498 C1117.11,578.436 1113.57,581.056 1112.53,582.358 C1111.49,583.66 1110.97,584.832 1110.97,585.873 C1110.97,586.915 1111.38,587.842 1112.2,588.655 C1113.01,589.467 1114.01,589.873 1115.17,589.873 M1134.13,565.467 C1139.72,565.467 1142.52,567.873 1142.52,572.686 C1142.52,575.03 1141.83,577.748 1140.47,580.842 C1139.1,583.936 1137.28,586.295 1135,587.92 C1129.99,591.306 1123.71,592.998 1116.16,592.998 C1110.55,592.998 1107.75,590.592 1107.75,585.78 C1107.75,583.634 1108.42,580.964 1109.75,577.772 C1111.08,574.579 1112.92,572.17 1115.27,570.545 C1120.29,567.16 1126.57,565.467 1134.13,565.467"/>
<path class="Note" d="M2357.6,639.873 C2359.48,639.873 2363.44,637.92 2369.46,634.014 C2375.49,630.108 2379.04,627.488 2380.11,626.155 C2381.18,624.821 2381.72,623.634 2381.72,622.592 C2381.72,621.55 2381.3,620.623 2380.45,619.811 C2379.6,618.998 2378.62,618.592 2377.52,618.592 C2375.57,618.592 2371.58,620.561 2365.56,624.498 C2359.53,628.436 2356,631.056 2354.95,632.358 C2353.91,633.66 2353.39,634.832 2353.39,635.873 C2353.39,636.915 2353.8,637.842 2354.62,638.655 C2355.44,639.467 2356.43,639.873 2357.6,639.873 M2376.55,615.467 C2382.14,615.467 2384.94,617.873 2384.94,622.686 C2384.94,625.03 2384.26,627.748 2382.89,630.842 C2381.53,633.936 2379.7,636.295 2377.42,637.92 C2372.41,641.306 2366.13,642.998 2358.58,642.998 C2352.98,642.998 2350.17,640.592 2350.17,635.78 C2350.17,633.634 2350.84,630.964 2352.17,627.772 C2353.51,624.579 2355.35,622.17 2357.69,620.545 C2362.71,617.16 2369,615.467 2376.55,615.467"/>
<path class="Note" d="M978.764,602.373 C980.65,602.373 984.605,600.42 990.631,596.514 C996.657,592.608 1000.21,589.988 1001.28,588.655 C1002.35,587.321 1002.89,586.134 1002.89,585.092 C1002.89,584.05 1002.46,583.123 1001.62,582.311 C1000.77,581.498 999.79,581.092 998.686,581.092 C996.738,581.092 992.751,583.061 986.725,586.998 C980.699,590.936 977.165,593.556 976.123,594.858 C975.082,596.16 974.561,597.332 974.561,598.373 C974.561,599.415 974.97,600.342 975.788,601.155 C976.605,601.967 977.597,602.373 978.764,602.373 M997.717,577.967 C1003.31,577.967 1006.11,580.373 1006.11,585.186 C1006.11,587.53 1005.43,590.248 1004.06,593.342 C1002.7,596.436 1000.87,598.795 998.592,600.42 C993.582,603.806 987.301,605.498 979.748,605.498 C974.144,605.498 971.342,603.092 971.342,598.28 C971.342,596.134 972.009,593.464 973.342,590.272 C974.676,587.079 976.514,584.67 978.858,583.045 C983.879,579.66 990.165,577.967 997.717,577.967"/>
<path class="Note" d="M2221.19,627.373 C2223.07,627.373 2227.03,625.42 2233.05,621.514 C2239.08,617.608 2242.63,614.988 2243.7,613.655 C2244.78,612.321 2245.31,611.134 2245.31,610.092 C2245.31,609.05 2244.89,608.123 2244.04,607.311 C2243.19,606.498 2242.21,606.092 2241.11,606.092 C2239.16,606.092 2235.17,608.061 2229.15,611.998 C2223.12,615.936 2219.59,618.556 2218.55,619.858 C2217.5,621.16 2216.98,622.332 2216.98,623.373 C2216.98,624.415 2217.39,625.342 2218.21,626.155 C2219.03,626.967 2220.02,627.373 2221.19,627.373 M2240.14,602.967 C2245.73,602.967 2248.53,605.373 2248.53,610.186 C2248.53,612.53 2247.85,615.248 2246.48,618.342 C2245.12,621.436 2243.3,623.795 2241.01,625.42 C2236,628.806 2229.72,630.498 2222.17,630.498 C2216.57,630.498 2213.76,628.092 2213.76,623.28 C2213.76,621.134 2214.43,618.464 2215.76,615.272 C2217.1,612.079 2218.94,609.67 2221.28,608.045 C2226.3,604.66 2232.59,602.967 2240.14,602.967"/>
<path class="Note" d="M2054.88,614.873 C2056.76,614.873 2060.72,612.92 2066.74,609.014 C2072.77,605.108 2076.32,602.488 2077.39,601.155 C2078.46,599.821 2079,598.634 2079,597.592 C2079,596.55 2078.58,595.623 2077.73,594.811 C2076.88,593.998 2075.9,593.592 2074.8,593.592 C2072.85,593.592 2068.86,595.561 2062.84,599.498 C2056.81,603.436 2053.28,606.056 2052.24,607.358 C2051.19,608.66 2050.67,609.832 2050.67,610.873 C2050.67,611.915 2051.08,612.842 2051.9,613.655 C2052.72,614.467 2053.71,614.873 2054.88,614.873 M2073.83,590.467 C2079.42,590.467 2082.22,592.873 2082.22,597.686 C2082.22,600.03 2081.54,602.748 2080.17,605.842 C2078.81,608.936 2076.99,611.295 2074.7,612.92 C2069.69,616.306 2063.41,617.998 2055.86,617.998 C2050.26,617.998 2047.45,615.592 2047.45,610.78 C2047.45,608.634 2048.12,605.964 2049.45,602.772 C2050.79,599.579 2052.63,597.17 2054.97,595.545 C2059.99,592.16 2066.28,590.467 2073.83,590.467"/>
<path class="Note" d="M1292,564.873 C1293.88,564.873 1297.84,562.92 1303.87,559.014 C1309.89,555.108 1313.44,552.488 1314.51,551.154 C1315.59,549.821 1316.12,548.634 1316.12,547.592 C1316.12,546.55 1315.7,545.623 1314.85,544.811 C1314,543.998 1313.02,543.592 1311.92,543.592 C1309.97,543.592 1305.99,545.561 1299.96,549.498 C1293.93,553.436 1290.4,556.056 1289.36,557.358 C1288.32,558.66 1287.8,559.832 1287.8,560.873 C1287.8,561.915 1288.2,562.842 1289.02,563.654 C1289.84,564.467 1290.83,564.873 1292,564.873 M1310.95,540.467 C1316.55,540.467 1319.34,542.873 1319.34,547.686 C1319.34,550.029 1318.66,552.748 1317.3,555.842 C1315.93,558.936 1314.11,561.295 1311.83,562.92 C1306.82,566.306 1300.54,567.998 1292.98,567.998 C1287.38,567.998 1284.58,565.592 1284.58,560.779 C1284.58,558.634 1285.24,555.964 1286.58,552.772 C1287.91,549.579 1289.75,547.17 1292.09,545.545 C1297.11,542.16 1303.4,540.467 1310.95,540.467"/>
<path class="Note" d="M362.811,652.373 C364.696,652.373 368.652,650.42 374.678,646.514 C380.704,642.608 384.253,639.988 385.326,638.655 C386.399,637.321 386.936,636.134 386.936,635.092 C386.936,634.05 386.511,633.123 385.662,632.311 C384.813,631.498 383.837,631.092 382.732,631.092 C380.785,631.092 376.798,633.061 370.772,636.998 C364.746,640.936 361.212,643.556 360.17,644.858 C359.128,646.16 358.607,647.332 358.607,648.373 C358.607,649.415 359.016,650.342 359.834,651.155 C360.652,651.967 361.644,652.373 362.811,652.373 M381.764,627.967 C387.357,627.967 390.154,630.373 390.154,635.186 C390.154,637.53 389.472,640.248 388.107,643.342 C386.743,646.436 384.92,648.795 382.639,650.42 C377.628,653.806 371.347,655.498 363.795,655.498 C358.191,655.498 355.389,653.092 355.389,648.28 C355.389,646.134 356.055,643.464 357.389,640.272 C358.722,637.079 360.561,634.67 362.904,633.045 C367.925,629.66 374.212,627.967 381.764,627.967"/>
<path class="Note" d="M1918.47,602.373 C1920.35,602.373 1924.31,600.42 1930.33,596.514 C1936.36,592.608 1939.91,589.988 1940.98,588.655 C1942.06,587.321 1942.59,586.134 1942.59,585.092 C1942.59,584.05 1942.17,583.123 1941.32,582.311 C1940.47,581.498 1939.49,581.092 1938.39,581.092 C1936.44,581.092 1932.45,583.061 1926.43,586.998 C1920.4,590.936 1916.87,593.556 1915.83,594.858 C1914.79,596.16 1914.26,597.332 1914.26,598.373 C1914.26,599.415 1914.67,600.342 1915.49,601.155 C1916.31,601.967 1917.3,602.373 1918.47,602.373 M1937.42,577.967 C1943.01,577.967 1945.81,580.373 1945.81,585.186 C1945.81,587.53 1945.13,590.248 1943.76,593.342 C1942.4,596.436 1940.58,598.795 1938.3,600.42 C1933.29,603.806 1927,605.498 1919.45,605.498 C1913.85,605.498 1911.05,603.092 1911.05,598.28 C1911.05,596.134 1911.71,593.464 1913.05,590.272 C1914.38,587.079 1916.22,584.67 1918.56,583.045 C1923.58,579.66 1929.87,577.967 1937.42,577.967"/>
<path class="Note" d="M801.938,614.873 C803.823,614.873 807.779,612.92 813.805,609.014 C819.831,605.108 823.381,602.488 824.453,601.155 C825.526,599.821 826.063,598.634 826.063,597.592 C826.063,596.55 825.638,595.623 824.789,594.811 C823.94,593.998 822.964,593.592 821.86,593.592 C819.912,593.592 815.925,595.561 809.899,599.498 C803.873,603.436 800.339,606.056 799.297,607.358 C798.256,608.66 797.735,609.832 797.735,610.873 C797.735,611.915 798.144,612.842 798.961,613.655 C799.779,614.467 800.771,614.873 801.938,614.873 M820.891,590.467 C826.485,590.467 829.282,592.873 829.282,597.686 C829.282,600.03 828.599,602.748 827.235,605.842 C825.87,608.936 824.047,611.295 821.766,612.92 C816.756,616.306 810.474,617.998 802.922,617.998 C797.318,617.998 794.516,615.592 794.516,610.78 C794.516,608.634 795.183,605.964 796.516,602.772 C797.849,599.579 799.688,597.17 802.032,595.545 C807.052,592.16 813.339,590.467 820.891,590.467"/>
<path class="Note" d="M665.53,627.373 C667.415,627.373 671.371,625.42 677.397,621.514 C683.423,617.608 686.972,614.988 688.045,613.655 C689.118,612.321 689.655,611.134 689.655,610.092 C689.655,609.05 689.23,608.123 688.381,607.311 C687.532,606.498 686.556,606.092 685.451,606.092 C683.504,606.092 679.517,608.061 673.49,611.998 C667.464,615.936 663.931,618.556 662.889,619.858 C661.847,621.16 661.326,622.332 661.326,623.373 C661.326,624.415 661.735,625.342 662.553,626.155 C663.371,626.967 664.363,627.373 665.53,627.373 M684.483,602.967 C690.076,602.967 692.873,605.373 692.873,610.186 C692.873,612.53 692.191,615.248 690.826,618.342 C689.462,621.436 687.639,623.795 685.358,625.42 C680.347,628.806 674.066,630.498 666.514,630.498 C660.91,630.498 658.108,628.092 658.108,623.28 C658.108,621.134 658.774,618.464 660.108,615.272 C661.441,612.079 663.28,609.67 665.623,608.045 C670.644,604.66 676.931,602.967 684.483,602.967"/>
<path class="Note" d="M1741.64,589.873 C1743.53,589.873 1747.48,587.92 1753.51,584.014 C1759.53,580.108 1763.08,577.488 1764.16,576.155 C1765.23,574.821 1765.77,573.634 1765.77,572.592 C1765.77,571.55 1765.34,570.623 1764.49,569.811 C1763.64,568.998 1762.67,568.592 1761.56,568.592 C1759.62,568.592 1755.63,570.561 1749.6,574.498 C1743.58,578.436 1740.04,581.056 1739,582.358 C1737.96,583.66 1737.44,584.832 1737.44,585.873 C1737.44,586.915 1737.85,587.842 1738.66,588.655 C1739.48,589.467 1740.47,589.873 1741.64,589.873 M1760.59,565.467 C1766.19,565.467 1768.99,567.873 1768.99,572.686 C1768.99,575.03 1768.3,577.748 1766.94,580.842 C1765.57,583.936 1763.75,586.295 1761.47,587.92 C1756.46,591.306 1750.18,592.998 1742.63,592.998 C1737.02,592.998 1734.22,590.592 1734.22,585.78 C1734.22,583.634 1734.89,580.964 1736.22,577.772 C1737.55,574.579 1739.39,572.17 1741.74,570.545 C1746.76,567.16 1753.04,565.467 1760.59,565.467"/>
<path class="Note" d="M499.219,639.873 C501.104,639.873 505.06,637.92 511.086,634.014 C517.112,630.108 520.662,627.488 521.735,626.155 C522.807,624.821 523.344,623.634 523.344,622.592 C523.344,621.55 522.919,620.623 522.07,619.811 C521.222,618.998 520.245,618.592 519.141,618.592 C517.193,618.592 513.206,620.561 507.18,624.498 C501.154,628.436 497.62,631.056 496.578,632.358 C495.537,633.66 495.016,634.832 495.016,635.873 C495.016,636.915 495.425,637.842 496.242,638.655 C497.06,639.467 498.052,639.873 499.219,639.873 M518.172,615.467 C523.766,615.467 526.563,617.873 526.563,622.686 C526.563,625.03 525.88,627.748 524.516,630.842 C523.151,633.936 521.328,636.295 519.047,637.92 C514.037,641.306 507.755,642.998 500.203,642.998 C494.599,642.998 491.797,640.592 491.797,635.78 C491.797,633.634 492.464,630.964 493.797,627.772 C495.13,624.579 496.969,622.17 499.313,620.545 C504.333,617.16 510.62,615.467 518.172,615.467"/>
<path class="Clef" d="M203.623,673.858 L203.623,671.717 C203.56,670.613 203.399,668.889 203.139,666.545 C199.889,667.066 196.993,667.326 194.451,667.326 C185.337,667.326 177.605,663.727 171.256,656.53 C164.907,649.332 161.732,640.754 161.732,630.795 C161.732,628.129 162.253,624.923 163.295,621.178 C164.337,617.433 165.297,614.925 166.178,613.655 C167.058,612.384 168.378,610.155 170.139,606.967 C170.659,605.988 172.352,603.837 175.217,600.514 C175.738,599.806 176.193,599.222 176.584,598.764 C176.975,598.306 177.607,597.49 178.482,596.319 C179.357,595.147 180.3,594.056 181.31,593.045 C182.321,592.035 183.217,591.058 183.998,590.115 C184.779,589.173 185.498,588.379 186.154,587.733 C183.81,579.983 182.378,574.024 181.857,569.858 C181.337,565.691 181.076,560.579 181.076,554.522 C181.076,548.464 182.378,542.962 184.982,538.014 C187.514,532.879 191.06,528.681 195.623,525.42 C195.883,525.222 196.225,525.123 196.646,525.123 C197.068,525.123 197.378,525.222 197.576,525.42 C201.087,529.649 204.128,535.149 206.701,541.92 C209.274,548.691 210.56,555.024 210.56,560.92 C210.56,566.816 209.066,572.498 206.076,577.967 C202.691,583.759 198.326,589.748 192.982,595.936 C194.347,600.227 196.17,606.962 198.451,616.139 L199.045,616.139 C199.305,616.076 199.529,616.045 199.717,616.045 C207.081,616.045 213.089,618.634 217.74,623.811 C222.391,628.988 224.717,634.962 224.717,641.733 C224.717,650.129 221.238,656.899 214.279,662.045 C212.258,663.545 209.878,664.717 207.139,665.561 C207.472,669.79 207.639,672.605 207.639,674.006 C207.639,675.407 207.571,677.899 207.435,681.483 C207.373,687.597 205.29,692.837 201.185,697.201 C197.081,701.566 192.394,703.748 187.123,703.748 C181.852,703.748 177.36,701.876 173.646,698.131 C169.933,694.386 168.076,689.847 168.076,684.514 C168.076,681.712 169.154,679.332 171.31,677.373 C173.519,675.425 176.006,674.451 178.771,674.451 C181.537,674.451 183.8,675.462 185.56,677.483 C187.383,679.368 188.295,681.644 188.295,684.311 C188.295,686.977 187.383,689.222 185.56,691.045 C183.738,692.868 181.555,693.78 179.014,693.78 C177.972,693.78 176.967,693.587 175.998,693.201 C178.863,697.431 182.54,699.545 187.029,699.545 C191.519,699.545 195.36,697.691 198.553,693.983 C201.745,690.274 203.342,685.91 203.342,680.889 L203.623,673.858 M206.748,661.561 C210.133,660.321 212.821,658.123 214.81,654.967 C216.8,651.811 217.795,648.67 217.795,645.545 C217.795,640.92 216.199,636.785 213.006,633.139 C209.813,629.493 205.774,627.441 200.889,626.983 C203.691,640.722 205.644,652.248 206.748,661.561 M168.967,638.998 C168.967,645.446 171.537,651.079 176.678,655.897 C181.818,660.714 187.842,663.123 194.748,663.123 C197.477,663.123 200.144,662.925 202.748,662.53 C201.706,652.634 199.654,640.785 196.592,626.983 C192.758,627.379 189.782,628.699 187.662,630.944 C185.542,633.188 184.482,635.743 184.482,638.608 C184.482,643.556 187.123,647.561 192.404,650.623 C192.852,650.884 193.076,651.324 193.076,651.944 C193.076,652.563 192.865,653.1 192.443,653.553 C192.021,654.006 191.649,654.233 191.326,654.233 C191.003,654.233 190.581,654.17 190.06,654.045 C182.435,649.879 178.623,643.592 178.623,635.186 C178.623,631.217 180.024,627.41 182.826,623.764 C185.753,620.118 189.56,617.774 194.248,616.733 C192.425,609.441 190.93,603.743 189.764,599.639 C180.847,609.67 175.31,617.092 173.154,621.905 C170.363,628.155 168.967,633.852 168.967,638.998 M201.576,539.686 C196.691,542.092 192.834,545.574 190.006,550.131 C187.178,554.688 185.764,559.472 185.764,564.483 C185.764,569.493 186.935,575.972 189.279,583.92 C193.967,578.254 197.514,572.946 199.92,567.998 C202.326,563.05 203.529,558.152 203.529,553.303 C203.529,548.454 202.878,543.915 201.576,539.686"/>
<path class="TimeSig" d="M273.021,567.912 C274.516,567.912 275.949,567.686 277.318,567.233 C278.688,566.78 279.665,566.553 280.248,566.553 C280.831,566.553 281.222,566.907 281.42,567.615 C281.42,567.688 281.352,567.886 281.217,568.209 L252.811,601.225 L269.498,601.225 L269.498,588.131 C269.498,586.506 270.446,585.334 272.342,584.615 C274.29,583.897 276.503,581.001 278.982,575.928 C279.17,575.532 279.462,575.334 279.857,575.334 C280.639,575.334 281.092,575.793 281.217,576.709 L281.217,601.225 L288.357,601.225 C289.264,601.225 289.751,601.712 289.818,602.686 C289.886,603.66 289.399,604.147 288.357,604.147 L281.217,604.147 L281.217,604.928 C281.217,607.532 281.868,609.746 283.17,611.569 C284.67,613.391 286.43,614.303 288.451,614.303 C289.232,614.303 289.623,614.694 289.623,615.475 C289.623,616.256 289.087,616.647 288.014,616.647 C286.941,616.647 284.938,616.436 282.006,616.014 C279.074,615.592 276.811,615.381 275.217,615.381 C273.623,615.381 271.41,615.592 268.576,616.014 C265.743,616.436 263.613,616.647 262.186,616.647 C261.404,616.647 261.014,616.256 261.014,615.475 C261.014,614.694 261.404,614.303 262.186,614.303 C264.196,614.303 265.951,613.391 267.451,611.569 C268.816,609.683 269.498,607.47 269.498,604.928 L269.498,604.147 L252.811,604.147 C251.956,604.147 251.219,603.92 250.6,603.467 C249.98,603.014 249.67,602.592 249.67,602.201 C249.67,601.811 250.485,600.639 252.115,598.686 C253.745,596.733 256.074,592.972 259.1,587.405 C262.126,581.837 263.639,575.438 263.639,568.209 C263.639,567.168 264.097,566.647 265.014,566.647 C265.212,566.647 265.521,566.712 265.943,566.842 C266.365,566.972 267.277,567.183 268.678,567.475 C270.079,567.766 271.527,567.912 273.021,567.912"/>
<path class="TimeSig" d="M273.021,618.084 C274.516,618.084 275.949,617.858 277.318,617.405 C278.688,616.951 279.665,616.725 280.248,616.725 C280.831,616.725 281.222,617.079 281.42,617.787 C281.42,617.86 281.352,618.058 281.217,618.381 L252.811,651.397 L269.498,651.397 L269.498,638.303 C269.498,636.678 270.446,635.506 272.342,634.787 C274.29,634.069 276.503,631.173 278.982,626.1 C279.17,625.704 279.462,625.506 279.857,625.506 C280.639,625.506 281.092,625.964 281.217,626.881 L281.217,651.397 L288.357,651.397 C289.264,651.397 289.751,651.884 289.818,652.858 C289.886,653.832 289.399,654.319 288.357,654.319 L281.217,654.319 L281.217,655.1 C281.217,657.704 281.868,659.918 283.17,661.74 C284.67,663.563 286.43,664.475 288.451,664.475 C289.232,664.475 289.623,664.865 289.623,665.647 C289.623,666.428 289.087,666.819 288.014,666.819 C286.941,666.819 284.938,666.608 282.006,666.186 C279.074,665.764 276.811,665.553 275.217,665.553 C273.623,665.553 271.41,665.764 268.576,666.186 C265.743,666.608 263.613,666.819 262.186,666.819 C261.404,666.819 261.014,666.428 261.014,665.647 C261.014,664.865 261.404,664.475 262.186,664.475 C264.196,664.475 265.951,663.563 267.451,661.74 C268.816,659.855 269.498,657.642 269.498,655.1 L269.498,654.319 L252.811,654.319 C251.956,654.319 251.219,654.092 250.6,653.639 C249.98,653.186 249.67,652.764 249.67,652.373 C249.67,651.983 250.485,650.811 252.115,648.858 C253.745,646.905 256.074,643.144 259.1,637.576 C262.126,632.009 263.639,625.61 263.639,618.381 C263.639,617.339 264.097,616.819 265.014,616.819 C265.212,616.819 265.521,616.884 265.943,617.014 C266.365,617.144 267.277,617.355 268.678,617.647 C270.079,617.938 271.527,618.084 273.021,618.084"/>
<path class="Rest" d="M1458.42,616.733 L1422.87,616.733 C1422.22,616.733 1421.89,616.405 1421.89,615.748 L1421.89,602.076 C1421.89,601.431 1422.22,601.108 1422.87,601.108 L1458.42,601.108 C1459.06,601.108 1459.39,601.431 1459.39,602.076 L1459.39,615.748 C1459.39,616.405 1459.06,616.733 1458.42,616.733"/>
<path class="Rest" d="M2700.84,616.733 L2665.29,616.733 C2664.64,616.733 2664.31,616.405 2664.31,615.748 L2664.31,602.076 C2664.31,601.431 2664.64,601.108 2665.29,601.108 L2700.84,601.108 C2701.49,601.108 2701.81,601.431 2701.81,602.076 L2701.81,615.748 C2701.81,616.405 2701.49,616.733 2700.84,616.733"/>
</svg>
