<?xml version="1.0" encoding="UTF-8" standalone="no"?>
<svg width="2977.2px" height="4208.4px" viewBox="0 0 2977.2 4208.4"
 xmlns="http://www.w3.org/2000/svg" xmlns:xlink="http://www.w3.org/1999/xlink" version="1.2" baseProfile="tiny">
<title>B_Minor.mscx</title>
<desc>Generated by MuseScore Studio 4.3.1</desc>
<path class="" fill="#ffffff" fill-rule="evenodd" d="M0,0 L2977.2,0 L2977.2,4208.4 L0,4208.4 L0,0 "/>
<polyline class="StaffLines" fill="none" stroke="#000000" stroke-width="2.00" stroke-linejoin="bevel" points="141.732,316.732 2835.47,316.732"/>
<polyline class="StaffLines" fill="none" stroke="#000000" stroke-width="2.00" stroke-linejoin="bevel" points="141.732,341.732 2835.47,341.732"/>
<polyline class="StaffLines" fill="none" stroke="#000000" stroke-width="2.00" stroke-linejoin="bevel" points="141.732,366.733 2835.47,366.733"/>
<polyline class="StaffLines" fill="none" stroke="#000000" stroke-width="2.00" stroke-linejoin="bevel" points="141.732,391.733 2835.47,391.733"/>
<polyline class="StaffLines" fill="none" stroke="#000000" stroke-width="2.00" stroke-linejoin="bevel" points="141.732,416.733 2835.47,416.733"/>
<polyline class="BarLine" fill="none" stroke="#000000" stroke-width="4.00" stroke-linejoin="bevel" points="1167.65,315.732 1167.65,417.733"/>
<polyline class="BarLine" fill="none" stroke="#000000" stroke-width="4.00" stroke-linejoin="bevel" points="2802.72,315.732 2802.72,417.733"/>
<polyline class="BarLine" fill="none" stroke="#000000" stroke-width="12.50" stroke-linejoin="bevel" points="2829.22,315.732 2829.22,417.733"/>
<polyline class="BarLine" fill="none" stroke="#000000" stroke-width="4.00" stroke-linejoin="bevel" points="2509.09,315.732 2509.09,417.733"/>
<polyline class="BarLine" fill="none" stroke="#000000" stroke-width="4.00" stroke-linejoin="bevel" points="1448.67,315.732 1448.67,417.733"/>
<polyline class="BarLine" fill="none" stroke="#000000" stroke-width="4.00" stroke-linejoin="bevel" points="2228.07,315.732 2228.07,417.733"/>
<polyline class="BarLine" fill="none" stroke="#000000" stroke-width="4.00" stroke-linejoin="bevel" points="874.021,315.732 874.021,417.733"/>
<polyline class="BarLine" fill="none" stroke="#000000" stroke-width="4.00" stroke-linejoin="bevel" points="592.996,315.732 592.996,417.733"/>
<polyline class="BarLine" fill="none" stroke="#000000" stroke-width="4.00" stroke-linejoin="bevel" points="1947.04,315.732 1947.04,417.733"/>
<polyline class="BarLine" fill="none" stroke="#000000" stroke-width="4.00" stroke-linejoin="bevel" points="1666.02,315.732 1666.02,417.733"/>
<path class="Accidental" d="M2541.27,332.264 C2542.71,331.868 2543.43,332.222 2543.43,333.326 L2543.43,341.139 C2543.43,341.92 2542.81,342.54 2541.57,342.998 L2538.35,344.264 L2538.35,358.436 L2541.27,357.264 C2542.71,356.868 2543.43,357.227 2543.43,358.342 L2543.43,366.154 C2543.43,366.936 2542.81,367.55 2541.57,367.998 L2538.35,369.279 L2538.35,385.482 C2538.35,386.722 2537.86,387.342 2536.88,387.342 C2535.9,387.342 2535.41,386.722 2535.41,385.482 L2535.41,370.451 L2526.13,374.154 L2526.13,390.264 C2526.13,391.503 2525.64,392.123 2524.67,392.123 C2523.7,392.123 2523.21,391.503 2523.21,390.264 L2523.21,375.326 L2520.66,376.404 C2519.3,376.988 2518.61,376.597 2518.61,375.232 L2518.61,367.514 C2518.61,366.868 2519.2,366.285 2520.38,365.764 L2523.21,364.592 L2523.21,350.326 L2520.66,351.404 C2519.3,351.988 2518.61,351.597 2518.61,350.232 L2518.61,342.514 C2518.61,341.857 2519.2,341.269 2520.38,340.748 L2523.21,339.576 L2523.21,323.467 C2523.21,322.227 2523.7,321.607 2524.67,321.607 C2525.64,321.607 2526.13,322.227 2526.13,323.467 L2526.13,338.404 L2535.41,334.607 L2535.41,318.686 C2535.41,317.446 2535.9,316.826 2536.88,316.826 C2537.86,316.826 2538.35,317.446 2538.35,318.686 L2538.35,333.436 L2541.27,332.264 M2526.13,349.154 L2526.13,363.42 L2535.41,359.607 L2535.41,345.436 L2526.13,349.154 "/>
<path class="Accidental" d="M2092.18,294.764 C2093.62,294.368 2094.34,294.722 2094.34,295.826 L2094.34,303.639 C2094.34,304.42 2093.72,305.04 2092.48,305.498 L2089.26,306.764 L2089.26,320.936 L2092.18,319.764 C2093.62,319.368 2094.34,319.727 2094.34,320.842 L2094.34,328.654 C2094.34,329.436 2093.72,330.05 2092.48,330.498 L2089.26,331.779 L2089.26,347.982 C2089.26,349.222 2088.77,349.842 2087.79,349.842 C2086.81,349.842 2086.32,349.222 2086.32,347.982 L2086.32,332.951 L2077.04,336.654 L2077.04,352.764 C2077.04,354.003 2076.55,354.623 2075.58,354.623 C2074.6,354.623 2074.12,354.003 2074.12,352.764 L2074.12,337.826 L2071.57,338.904 C2070.21,339.488 2069.52,339.097 2069.52,337.732 L2069.52,330.014 C2069.52,329.368 2070.11,328.785 2071.29,328.264 L2074.12,327.092 L2074.12,312.826 L2071.57,313.904 C2070.21,314.488 2069.52,314.097 2069.52,312.732 L2069.52,305.014 C2069.52,304.357 2070.11,303.769 2071.29,303.248 L2074.12,302.076 L2074.12,285.967 C2074.12,284.727 2074.6,284.107 2075.58,284.107 C2076.55,284.107 2077.04,284.727 2077.04,285.967 L2077.04,300.904 L2086.32,297.107 L2086.32,281.186 C2086.32,279.946 2086.81,279.326 2087.79,279.326 C2088.77,279.326 2089.26,279.946 2089.26,281.186 L2089.26,295.936 L2092.18,294.764 M2077.04,311.654 L2077.04,325.92 L2086.32,322.107 L2086.32,307.936 L2077.04,311.654 "/>
<path class="Accidental" d="M906.201,294.764 C907.639,294.368 908.357,294.722 908.357,295.826 L908.357,303.639 C908.357,304.42 907.737,305.04 906.498,305.498 L903.279,306.764 L903.279,320.936 L906.201,319.764 C907.639,319.368 908.357,319.727 908.357,320.842 L908.357,328.654 C908.357,329.436 907.737,330.05 906.498,330.498 L903.279,331.779 L903.279,347.982 C903.279,349.222 902.79,349.842 901.81,349.842 C900.831,349.842 900.342,349.222 900.342,347.982 L900.342,332.951 L891.06,336.654 L891.06,352.764 C891.06,354.003 890.573,354.623 889.599,354.623 C888.625,354.623 888.139,354.003 888.139,352.764 L888.139,337.826 L885.592,338.904 C884.227,339.488 883.545,339.097 883.545,337.732 L883.545,330.014 C883.545,329.368 884.133,328.785 885.31,328.264 L888.139,327.092 L888.139,312.826 L885.592,313.904 C884.227,314.488 883.545,314.097 883.545,312.732 L883.545,305.014 C883.545,304.357 884.133,303.769 885.31,303.248 L888.139,302.076 L888.139,285.967 C888.139,284.727 888.625,284.107 889.599,284.107 C890.573,284.107 891.06,284.727 891.06,285.967 L891.06,300.904 L900.342,297.107 L900.342,281.186 C900.342,279.946 900.831,279.326 901.81,279.326 C902.79,279.326 903.279,279.946 903.279,281.186 L903.279,295.936 L906.201,294.764 M891.06,311.654 L891.06,325.92 L900.342,322.107 L900.342,307.936 L891.06,311.654 "/>
<path class="Accidental" d="M457.11,332.264 C458.548,331.868 459.267,332.222 459.267,333.326 L459.267,341.139 C459.267,341.92 458.647,342.54 457.407,342.998 L454.188,344.264 L454.188,358.436 L457.11,357.264 C458.548,356.868 459.267,357.227 459.267,358.342 L459.267,366.154 C459.267,366.936 458.647,367.55 457.407,367.998 L454.188,369.279 L454.188,385.482 C454.188,386.722 453.699,387.342 452.72,387.342 C451.741,387.342 451.251,386.722 451.251,385.482 L451.251,370.451 L441.97,374.154 L441.97,390.264 C441.97,391.503 441.483,392.123 440.509,392.123 C439.535,392.123 439.048,391.503 439.048,390.264 L439.048,375.326 L436.501,376.404 C435.136,376.988 434.454,376.597 434.454,375.232 L434.454,367.514 C434.454,366.868 435.043,366.285 436.22,365.764 L439.048,364.592 L439.048,350.326 L436.501,351.404 C435.136,351.988 434.454,351.597 434.454,350.232 L434.454,342.514 C434.454,341.857 435.043,341.269 436.22,340.748 L439.048,339.576 L439.048,323.467 C439.048,322.227 439.535,321.607 440.509,321.607 C441.483,321.607 441.97,322.227 441.97,323.467 L441.97,338.404 L451.251,334.607 L451.251,318.686 C451.251,317.446 451.741,316.826 452.72,316.826 C453.699,316.826 454.188,317.446 454.188,318.686 L454.188,333.436 L457.11,332.264 M441.97,349.154 L441.97,363.42 L451.251,359.607 L451.251,345.436 L441.97,349.154 "/>
<polyline class="LedgerLine" fill="none" stroke="#000000" stroke-width="4.00" stroke-linejoin="bevel" points="1185.15,291.732 1238.87,291.732"/>
<polyline class="LedgerLine" fill="none" stroke="#000000" stroke-width="4.00" stroke-linejoin="bevel" points="1310.71,291.732 1364.43,291.732"/>
<polyline class="LedgerLine" fill="none" stroke="#000000" stroke-width="4.00" stroke-linejoin="bevel" points="1809.08,291.732 1862.8,291.732"/>
<polyline class="LedgerLine" fill="none" stroke="#000000" stroke-width="4.00" stroke-linejoin="bevel" points="1683.52,291.732 1737.23,291.732"/>
<polyline class="Stem" fill="none" stroke="#000000" stroke-width="3.25" stroke-linejoin="bevel" points="1040.81,309.132 1040.81,391.733"/>
<polyline class="Stem" fill="none" stroke="#000000" stroke-width="3.25" stroke-linejoin="bevel" points="466.157,359.132 466.157,435.483"/>
<polyline class="Stem" fill="none" stroke="#000000" stroke-width="3.25" stroke-linejoin="bevel" points="2101.23,321.632 2101.23,404.233"/>
<polyline class="Stem" fill="none" stroke="#000000" stroke-width="3.25" stroke-linejoin="bevel" points="2256.69,334.132 2256.69,416.733"/>
<polyline class="Stem" fill="none" stroke="#000000" stroke-width="3.25" stroke-linejoin="bevel" points="1975.67,309.132 1975.67,391.733"/>
<polyline class="Stem" fill="none" stroke="#000000" stroke-width="3.25" stroke-linejoin="bevel" points="621.621,346.632 621.621,429.233"/>
<polyline class="Stem" fill="none" stroke="#000000" stroke-width="3.25" stroke-linejoin="bevel" points="1820.2,296.632 1820.2,379.233"/>
<polyline class="Stem" fill="none" stroke="#000000" stroke-width="3.25" stroke-linejoin="bevel" points="2382.25,346.632 2382.25,429.233"/>
<polyline class="Stem" fill="none" stroke="#000000" stroke-width="3.25" stroke-linejoin="bevel" points="1694.64,284.132 1694.64,366.733"/>
<polyline class="Stem" fill="none" stroke="#000000" stroke-width="3.25" stroke-linejoin="bevel" points="747.183,334.132 747.183,416.733"/>
<polyline class="Stem" fill="none" stroke="#000000" stroke-width="3.25" stroke-linejoin="bevel" points="2675.88,371.633 2675.88,441.733"/>
<polyline class="Stem" fill="none" stroke="#000000" stroke-width="3.25" stroke-linejoin="bevel" points="340.596,371.633 340.596,441.733"/>
<polyline class="Stem" fill="none" stroke="#000000" stroke-width="3.25" stroke-linejoin="bevel" points="915.248,321.632 915.248,404.233"/>
<polyline class="Stem" fill="none" stroke="#000000" stroke-width="3.25" stroke-linejoin="bevel" points="1321.83,284.132 1321.83,366.733"/>
<polyline class="Stem" fill="none" stroke="#000000" stroke-width="3.25" stroke-linejoin="bevel" points="2550.32,359.132 2550.32,435.483"/>
<polyline class="Stem" fill="none" stroke="#000000" stroke-width="3.25" stroke-linejoin="bevel" points="1196.27,296.632 1196.27,379.233"/>
<path class="Note" d="M2388.05,352.373 C2389.93,352.373 2393.89,350.42 2399.92,346.514 C2405.94,342.607 2409.49,339.988 2410.57,338.654 C2411.64,337.321 2412.17,336.134 2412.17,335.092 C2412.17,334.05 2411.75,333.123 2410.9,332.311 C2410.05,331.498 2409.08,331.092 2407.97,331.092 C2406.02,331.092 2402.04,333.061 2396.01,336.998 C2389.98,340.936 2386.45,343.555 2385.41,344.857 C2384.37,346.16 2383.85,347.331 2383.85,348.373 C2383.85,349.415 2384.26,350.342 2385.07,351.154 C2385.89,351.967 2386.88,352.373 2388.05,352.373 M2407,327.967 C2412.6,327.967 2415.39,330.373 2415.39,335.186 C2415.39,337.529 2414.71,340.248 2413.35,343.342 C2411.98,346.436 2410.16,348.795 2407.88,350.42 C2402.87,353.805 2396.59,355.498 2389.03,355.498 C2383.43,355.498 2380.63,353.092 2380.63,348.279 C2380.63,346.134 2381.29,343.464 2382.63,340.272 C2383.96,337.079 2385.8,334.67 2388.14,333.045 C2393.16,329.66 2399.45,327.967 2407,327.967"/>
<path class="Note" d="M2262.49,339.873 C2264.37,339.873 2268.33,337.92 2274.36,334.014 C2280.38,330.107 2283.93,327.488 2285,326.154 C2286.08,324.821 2286.61,323.634 2286.61,322.592 C2286.61,321.55 2286.19,320.623 2285.34,319.811 C2284.49,318.998 2283.51,318.592 2282.41,318.592 C2280.46,318.592 2276.48,320.561 2270.45,324.498 C2264.42,328.436 2260.89,331.055 2259.85,332.357 C2258.81,333.66 2258.28,334.831 2258.28,335.873 C2258.28,336.915 2258.69,337.842 2259.51,338.654 C2260.33,339.467 2261.32,339.873 2262.49,339.873 M2281.44,315.467 C2287.03,315.467 2289.83,317.873 2289.83,322.686 C2289.83,325.029 2289.15,327.748 2287.78,330.842 C2286.42,333.936 2284.6,336.295 2282.32,337.92 C2277.31,341.305 2271.02,342.998 2263.47,342.998 C2257.87,342.998 2255.07,340.592 2255.07,335.779 C2255.07,333.634 2255.73,330.964 2257.07,327.772 C2258.4,324.579 2260.24,322.17 2262.58,320.545 C2267.6,317.16 2273.89,315.467 2281.44,315.467"/>
<path class="Note" d="M2681.68,377.373 C2683.56,377.373 2687.52,375.42 2693.54,371.514 C2699.57,367.608 2703.12,364.988 2704.19,363.654 C2705.26,362.321 2705.8,361.134 2705.8,360.092 C2705.8,359.05 2705.38,358.123 2704.53,357.311 C2703.68,356.498 2702.7,356.092 2701.6,356.092 C2699.65,356.092 2695.66,358.061 2689.64,361.998 C2683.61,365.936 2680.08,368.555 2679.04,369.858 C2677.99,371.16 2677.47,372.331 2677.47,373.373 C2677.47,374.415 2677.88,375.342 2678.7,376.154 C2679.52,376.967 2680.51,377.373 2681.68,377.373 M2700.63,352.967 C2706.22,352.967 2709.02,355.373 2709.02,360.186 C2709.02,362.529 2708.34,365.248 2706.97,368.342 C2705.61,371.436 2703.79,373.795 2701.5,375.42 C2696.49,378.805 2690.21,380.498 2682.66,380.498 C2677.06,380.498 2674.25,378.092 2674.25,373.279 C2674.25,371.134 2674.92,368.464 2676.25,365.272 C2677.59,362.079 2679.43,359.67 2681.77,358.045 C2686.79,354.66 2693.08,352.967 2700.63,352.967"/>
<path class="Note" d="M2556.11,364.873 C2558,364.873 2561.96,362.92 2567.98,359.014 C2574.01,355.107 2577.56,352.488 2578.63,351.154 C2579.7,349.821 2580.24,348.634 2580.24,347.592 C2580.24,346.55 2579.82,345.623 2578.97,344.811 C2578.12,343.998 2577.14,343.592 2576.04,343.592 C2574.09,343.592 2570.1,345.561 2564.08,349.498 C2558.05,353.436 2554.52,356.055 2553.47,357.357 C2552.43,358.66 2551.91,359.831 2551.91,360.873 C2551.91,361.915 2552.32,362.842 2553.14,363.654 C2553.96,364.467 2554.95,364.873 2556.11,364.873 M2575.07,340.467 C2580.66,340.467 2583.46,342.873 2583.46,347.686 C2583.46,350.029 2582.78,352.748 2581.41,355.842 C2580.05,358.936 2578.22,361.295 2575.94,362.92 C2570.93,366.305 2564.65,367.998 2557.1,367.998 C2551.5,367.998 2548.69,365.592 2548.69,360.779 C2548.69,358.634 2549.36,355.964 2550.69,352.772 C2552.03,349.579 2553.86,347.17 2556.21,345.545 C2561.23,342.16 2567.52,340.467 2575.07,340.467"/>
<path class="Note" d="M346.393,377.373 C348.278,377.373 352.234,375.42 358.26,371.514 C364.286,367.608 367.835,364.988 368.908,363.654 C369.981,362.321 370.518,361.134 370.518,360.092 C370.518,359.05 370.093,358.123 369.244,357.311 C368.395,356.498 367.419,356.092 366.315,356.092 C364.367,356.092 360.38,358.061 354.354,361.998 C348.328,365.936 344.794,368.555 343.752,369.858 C342.71,371.16 342.19,372.331 342.19,373.373 C342.19,374.415 342.598,375.342 343.416,376.154 C344.234,376.967 345.226,377.373 346.393,377.373 M365.346,352.967 C370.94,352.967 373.736,355.373 373.736,360.186 C373.736,362.529 373.054,365.248 371.69,368.342 C370.325,371.436 368.502,373.795 366.221,375.42 C361.21,378.805 354.929,380.498 347.377,380.498 C341.773,380.498 338.971,378.092 338.971,373.279 C338.971,371.134 339.637,368.464 340.971,365.272 C342.304,362.079 344.143,359.67 346.486,358.045 C351.507,354.66 357.794,352.967 365.346,352.967"/>
<path class="Note" d="M1046.61,314.873 C1048.49,314.873 1052.45,312.92 1058.47,309.014 C1064.5,305.107 1068.05,302.488 1069.12,301.154 C1070.19,299.821 1070.73,298.634 1070.73,297.592 C1070.73,296.55 1070.31,295.623 1069.46,294.811 C1068.61,293.998 1067.63,293.592 1066.53,293.592 C1064.58,293.592 1060.59,295.561 1054.57,299.498 C1048.54,303.436 1045.01,306.055 1043.97,307.357 C1042.92,308.66 1042.4,309.831 1042.4,310.873 C1042.4,311.915 1042.81,312.842 1043.63,313.654 C1044.45,314.467 1045.44,314.873 1046.61,314.873 M1065.56,290.467 C1071.15,290.467 1073.95,292.873 1073.95,297.686 C1073.95,300.029 1073.27,302.748 1071.9,305.842 C1070.54,308.936 1068.72,311.295 1066.43,312.92 C1061.42,316.305 1055.14,317.998 1047.59,317.998 C1041.99,317.998 1039.18,315.592 1039.18,310.779 C1039.18,308.634 1039.85,305.964 1041.18,302.772 C1042.52,299.579 1044.36,297.17 1046.7,295.545 C1051.72,292.16 1058.01,290.467 1065.56,290.467"/>
<path class="Note" d="M471.954,364.873 C473.84,364.873 477.795,362.92 483.821,359.014 C489.847,355.107 493.397,352.488 494.47,351.154 C495.543,349.821 496.079,348.634 496.079,347.592 C496.079,346.55 495.655,345.623 494.806,344.811 C493.957,343.998 492.98,343.592 491.876,343.592 C489.928,343.592 485.941,345.561 479.915,349.498 C473.889,353.436 470.355,356.055 469.313,357.357 C468.272,358.66 467.751,359.831 467.751,360.873 C467.751,361.915 468.16,362.842 468.978,363.654 C469.795,364.467 470.787,364.873 471.954,364.873 M490.907,340.467 C496.501,340.467 499.298,342.873 499.298,347.686 C499.298,350.029 498.616,352.748 497.251,355.842 C495.886,358.936 494.063,361.295 491.782,362.92 C486.772,366.305 480.491,367.998 472.938,367.998 C467.334,367.998 464.532,365.592 464.532,360.779 C464.532,358.634 465.199,355.964 466.532,352.772 C467.866,349.579 469.704,347.17 472.048,345.545 C477.069,342.16 483.355,340.467 490.907,340.467"/>
<path class="Note" d="M2107.02,327.373 C2108.91,327.373 2112.87,325.42 2118.89,321.514 C2124.92,317.607 2128.47,314.988 2129.54,313.654 C2130.61,312.321 2131.15,311.134 2131.15,310.092 C2131.15,309.05 2130.72,308.123 2129.88,307.311 C2129.03,306.498 2128.05,306.092 2126.95,306.092 C2125,306.092 2121.01,308.061 2114.99,311.998 C2108.96,315.936 2105.43,318.555 2104.38,319.857 C2103.34,321.16 2102.82,322.331 2102.82,323.373 C2102.82,324.415 2103.23,325.342 2104.05,326.154 C2104.87,326.967 2105.86,327.373 2107.02,327.373 M2125.98,302.967 C2131.57,302.967 2134.37,305.373 2134.37,310.186 C2134.37,312.529 2133.69,315.248 2132.32,318.342 C2130.96,321.436 2129.13,323.795 2126.85,325.42 C2121.84,328.805 2115.56,330.498 2108.01,330.498 C2102.4,330.498 2099.6,328.092 2099.6,323.279 C2099.6,321.134 2100.27,318.464 2101.6,315.272 C2102.94,312.079 2104.77,309.67 2107.12,308.045 C2112.14,304.66 2118.43,302.967 2125.98,302.967"/>
<path class="Note" d="M1981.46,314.873 C1983.35,314.873 1987.3,312.92 1993.33,309.014 C1999.36,305.107 2002.91,302.488 2003.98,301.154 C2005.05,299.821 2005.59,298.634 2005.59,297.592 C2005.59,296.55 2005.16,295.623 2004.31,294.811 C2003.47,293.998 2002.49,293.592 2001.38,293.592 C1999.44,293.592 1995.45,295.561 1989.42,299.498 C1983.4,303.436 1979.86,306.055 1978.82,307.357 C1977.78,308.66 1977.26,309.831 1977.26,310.873 C1977.26,311.915 1977.67,312.842 1978.49,313.654 C1979.3,314.467 1980.3,314.873 1981.46,314.873 M2000.42,290.467 C2006.01,290.467 2008.81,292.873 2008.81,297.686 C2008.81,300.029 2008.12,302.748 2006.76,305.842 C2005.4,308.936 2003.57,311.295 2001.29,312.92 C1996.28,316.305 1990,317.998 1982.45,317.998 C1976.84,317.998 1974.04,315.592 1974.04,310.779 C1974.04,308.634 1974.71,305.964 1976.04,302.772 C1977.37,299.579 1979.21,297.17 1981.56,295.545 C1986.58,292.16 1992.86,290.467 2000.42,290.467"/>
<path class="Note" d="M1826,302.373 C1827.88,302.373 1831.84,300.42 1837.87,296.514 C1843.89,292.607 1847.44,289.988 1848.51,288.654 C1849.59,287.321 1850.12,286.133 1850.12,285.092 C1850.12,284.05 1849.7,283.123 1848.85,282.311 C1848,281.498 1847.03,281.092 1845.92,281.092 C1843.97,281.092 1839.99,283.061 1833.96,286.998 C1827.93,290.936 1824.4,293.555 1823.36,294.857 C1822.32,296.16 1821.8,297.331 1821.8,298.373 C1821.8,299.415 1822.2,300.342 1823.02,301.154 C1823.84,301.967 1824.83,302.373 1826,302.373 M1844.95,277.967 C1850.55,277.967 1853.34,280.373 1853.34,285.186 C1853.34,287.529 1852.66,290.248 1851.3,293.342 C1849.93,296.436 1848.11,298.795 1845.83,300.42 C1840.82,303.805 1834.54,305.498 1826.98,305.498 C1821.38,305.498 1818.58,303.092 1818.58,298.279 C1818.58,296.133 1819.24,293.464 1820.58,290.272 C1821.91,287.079 1823.75,284.67 1826.09,283.045 C1831.11,279.66 1837.4,277.967 1844.95,277.967"/>
<path class="Note" d="M1700.44,289.873 C1702.32,289.873 1706.28,287.92 1712.3,284.014 C1718.33,280.107 1721.88,277.488 1722.95,276.154 C1724.03,274.821 1724.56,273.633 1724.56,272.592 C1724.56,271.55 1724.14,270.623 1723.29,269.811 C1722.44,268.998 1721.46,268.592 1720.36,268.592 C1718.41,268.592 1714.42,270.561 1708.4,274.498 C1702.37,278.436 1698.84,281.055 1697.8,282.357 C1696.76,283.66 1696.23,284.831 1696.23,285.873 C1696.23,286.915 1696.64,287.842 1697.46,288.654 C1698.28,289.467 1699.27,289.873 1700.44,289.873 M1719.39,265.467 C1724.98,265.467 1727.78,267.873 1727.78,272.686 C1727.78,275.029 1727.1,277.748 1725.73,280.842 C1724.37,283.936 1722.55,286.295 1720.27,287.92 C1715.26,291.305 1708.97,292.998 1701.42,292.998 C1695.82,292.998 1693.02,290.592 1693.02,285.779 C1693.02,283.633 1693.68,280.964 1695.02,277.772 C1696.35,274.579 1698.19,272.17 1700.53,270.545 C1705.55,267.16 1711.84,265.467 1719.39,265.467"/>
<path class="Note" d="M627.418,352.373 C629.303,352.373 633.259,350.42 639.285,346.514 C645.311,342.607 648.861,339.988 649.934,338.654 C651.006,337.321 651.543,336.134 651.543,335.092 C651.543,334.05 651.118,333.123 650.269,332.311 C649.421,331.498 648.444,331.092 647.34,331.092 C645.392,331.092 641.405,333.061 635.379,336.998 C629.353,340.936 625.819,343.555 624.777,344.857 C623.736,346.16 623.215,347.331 623.215,348.373 C623.215,349.415 623.624,350.342 624.441,351.154 C625.259,351.967 626.251,352.373 627.418,352.373 M646.371,327.967 C651.965,327.967 654.762,330.373 654.762,335.186 C654.762,337.529 654.079,340.248 652.715,343.342 C651.35,346.436 649.527,348.795 647.246,350.42 C642.236,353.805 635.954,355.498 628.402,355.498 C622.798,355.498 619.996,353.092 619.996,348.279 C619.996,346.134 620.663,343.464 621.996,340.272 C623.329,337.079 625.168,334.67 627.512,333.045 C632.533,329.66 638.819,327.967 646.371,327.967"/>
<path class="Note" d="M752.979,339.873 C754.865,339.873 758.821,337.92 764.847,334.014 C770.873,330.107 774.422,327.488 775.495,326.154 C776.568,324.821 777.104,323.634 777.104,322.592 C777.104,321.55 776.68,320.623 775.831,319.811 C774.982,318.998 774.005,318.592 772.901,318.592 C770.953,318.592 766.966,320.561 760.94,324.498 C754.914,328.436 751.38,331.055 750.339,332.357 C749.297,333.66 748.776,334.831 748.776,335.873 C748.776,336.915 749.185,337.842 750.003,338.654 C750.821,339.467 751.813,339.873 752.979,339.873 M771.933,315.467 C777.526,315.467 780.323,317.873 780.323,322.686 C780.323,325.029 779.641,327.748 778.276,330.842 C776.912,333.936 775.089,336.295 772.808,337.92 C767.797,341.305 761.516,342.998 753.964,342.998 C748.36,342.998 745.558,340.592 745.558,335.779 C745.558,333.634 746.224,330.964 747.558,327.772 C748.891,324.579 750.729,322.17 753.073,320.545 C758.094,317.16 764.38,315.467 771.933,315.467"/>
<path class="Note" d="M1327.63,289.873 C1329.52,289.873 1333.47,287.92 1339.5,284.014 C1345.52,280.107 1349.07,277.488 1350.15,276.154 C1351.22,274.821 1351.76,273.633 1351.76,272.592 C1351.76,271.55 1351.33,270.623 1350.48,269.811 C1349.63,268.998 1348.66,268.592 1347.55,268.592 C1345.61,268.592 1341.62,270.561 1335.59,274.498 C1329.57,278.436 1326.03,281.055 1324.99,282.357 C1323.95,283.66 1323.43,284.831 1323.43,285.873 C1323.43,286.915 1323.84,287.842 1324.65,288.654 C1325.47,289.467 1326.46,289.873 1327.63,289.873 M1346.58,265.467 C1352.18,265.467 1354.98,267.873 1354.98,272.686 C1354.98,275.029 1354.29,277.748 1352.93,280.842 C1351.56,283.936 1349.74,286.295 1347.46,287.92 C1342.45,291.305 1336.17,292.998 1328.62,292.998 C1323.01,292.998 1320.21,290.592 1320.21,285.779 C1320.21,283.633 1320.88,280.964 1322.21,277.772 C1323.54,274.579 1325.38,272.17 1327.73,270.545 C1332.75,267.16 1339.03,265.467 1346.58,265.467"/>
<path class="Note" d="M1202.07,302.373 C1203.96,302.373 1207.91,300.42 1213.94,296.514 C1219.96,292.607 1223.51,289.988 1224.59,288.654 C1225.66,287.321 1226.2,286.133 1226.2,285.092 C1226.2,284.05 1225.77,283.123 1224.92,282.311 C1224.07,281.498 1223.1,281.092 1221.99,281.092 C1220.04,281.092 1216.06,283.061 1210.03,286.998 C1204,290.936 1200.47,293.555 1199.43,294.857 C1198.39,296.16 1197.87,297.331 1197.87,298.373 C1197.87,299.415 1198.28,300.342 1199.09,301.154 C1199.91,301.967 1200.9,302.373 1202.07,302.373 M1221.02,277.967 C1226.62,277.967 1229.41,280.373 1229.41,285.186 C1229.41,287.529 1228.73,290.248 1227.37,293.342 C1226,296.436 1224.18,298.795 1221.9,300.42 C1216.89,303.805 1210.61,305.498 1203.05,305.498 C1197.45,305.498 1194.65,303.092 1194.65,298.279 C1194.65,296.133 1195.31,293.464 1196.65,290.272 C1197.98,287.079 1199.82,284.67 1202.16,283.045 C1207.18,279.66 1213.47,277.967 1221.02,277.967"/>
<path class="Note" d="M921.045,327.373 C922.93,327.373 926.886,325.42 932.912,321.514 C938.938,317.607 942.487,314.988 943.56,313.654 C944.633,312.321 945.17,311.134 945.17,310.092 C945.17,309.05 944.745,308.123 943.896,307.311 C943.047,306.498 942.071,306.092 940.967,306.092 C939.019,306.092 935.032,308.061 929.006,311.998 C922.98,315.936 919.446,318.555 918.404,319.857 C917.362,321.16 916.842,322.331 916.842,323.373 C916.842,324.415 917.251,325.342 918.068,326.154 C918.886,326.967 919.878,327.373 921.045,327.373 M939.998,302.967 C945.592,302.967 948.389,305.373 948.389,310.186 C948.389,312.529 947.706,315.248 946.342,318.342 C944.977,321.436 943.154,323.795 940.873,325.42 C935.862,328.805 929.581,330.498 922.029,330.498 C916.425,330.498 913.623,328.092 913.623,323.279 C913.623,321.134 914.29,318.464 915.623,315.272 C916.956,312.079 918.795,309.67 921.139,308.045 C926.159,304.66 932.446,302.967 939.998,302.967"/>
<path class="Clef" d="M203.623,423.858 L203.623,421.717 C203.56,420.613 203.399,418.889 203.139,416.545 C199.889,417.066 196.993,417.326 194.451,417.326 C185.337,417.326 177.605,413.727 171.256,406.529 C164.907,399.331 161.732,390.753 161.732,380.795 C161.732,378.128 162.253,374.923 163.295,371.178 C164.337,367.433 165.297,364.925 166.178,363.654 C167.058,362.384 168.378,360.154 170.139,356.967 C170.659,355.988 172.352,353.837 175.217,350.514 C175.738,349.805 176.193,349.222 176.584,348.764 C176.975,348.305 177.607,347.49 178.482,346.318 C179.357,345.147 180.3,344.055 181.31,343.045 C182.321,342.035 183.217,341.058 183.998,340.115 C184.779,339.173 185.498,338.378 186.154,337.733 C183.81,329.983 182.378,324.024 181.857,319.858 C181.337,315.691 181.076,310.579 181.076,304.522 C181.076,298.464 182.378,292.962 184.982,288.014 C187.514,282.878 191.06,278.68 195.623,275.42 C195.883,275.222 196.225,275.123 196.646,275.123 C197.068,275.123 197.378,275.222 197.576,275.42 C201.087,279.649 204.128,285.149 206.701,291.92 C209.274,298.691 210.56,305.024 210.56,310.92 C210.56,316.816 209.066,322.498 206.076,327.967 C202.691,333.759 198.326,339.748 192.982,345.936 C194.347,350.227 196.17,356.962 198.451,366.139 L199.045,366.139 C199.305,366.076 199.529,366.045 199.717,366.045 C207.081,366.045 213.089,368.634 217.74,373.811 C222.391,378.988 224.717,384.962 224.717,391.733 C224.717,400.128 221.238,406.899 214.279,412.045 C212.258,413.545 209.878,414.717 207.139,415.561 C207.472,419.79 207.639,422.605 207.639,424.006 C207.639,425.407 207.571,427.899 207.435,431.483 C207.373,437.597 205.29,442.837 201.185,447.201 C197.081,451.566 192.394,453.748 187.123,453.748 C181.852,453.748 177.36,451.876 173.646,448.131 C169.933,444.386 168.076,439.847 168.076,434.514 C168.076,431.712 169.154,429.331 171.31,427.373 C173.519,425.425 176.006,424.451 178.771,424.451 C181.537,424.451 183.8,425.462 185.56,427.483 C187.383,429.368 188.295,431.644 188.295,434.311 C188.295,436.977 187.383,439.222 185.56,441.045 C183.738,442.868 181.555,443.779 179.014,443.779 C177.972,443.779 176.967,443.587 175.998,443.201 C178.863,447.43 182.54,449.545 187.029,449.545 C191.519,449.545 195.36,447.691 198.553,443.983 C201.745,440.274 203.342,435.91 203.342,430.889 L203.623,423.858 M206.748,411.561 C210.133,410.321 212.821,408.123 214.81,404.967 C216.8,401.811 217.795,398.67 217.795,395.545 C217.795,390.92 216.199,386.785 213.006,383.139 C209.813,379.493 205.774,377.441 200.889,376.983 C203.691,390.722 205.644,402.248 206.748,411.561 M168.967,388.998 C168.967,395.446 171.537,401.079 176.678,405.897 C181.818,410.714 187.842,413.123 194.748,413.123 C197.477,413.123 200.144,412.925 202.748,412.529 C201.706,402.634 199.654,390.785 196.592,376.983 C192.758,377.378 189.782,378.699 187.662,380.943 C185.542,383.188 184.482,385.743 184.482,388.608 C184.482,393.555 187.123,397.561 192.404,400.623 C192.852,400.884 193.076,401.324 193.076,401.943 C193.076,402.563 192.865,403.1 192.443,403.553 C192.021,404.006 191.649,404.233 191.326,404.233 C191.003,404.233 190.581,404.17 190.06,404.045 C182.435,399.878 178.623,393.592 178.623,385.186 C178.623,381.217 180.024,377.41 182.826,373.764 C185.753,370.118 189.56,367.774 194.248,366.733 C192.425,359.441 190.93,353.743 189.764,349.639 C180.847,359.67 175.31,367.092 173.154,371.904 C170.363,378.154 168.967,383.852 168.967,388.998 M201.576,289.686 C196.691,292.092 192.834,295.574 190.006,300.131 C187.178,304.688 185.764,309.472 185.764,314.483 C185.764,319.493 186.935,325.972 189.279,333.92 C193.967,328.253 197.514,322.946 199.92,317.998 C202.326,313.05 203.529,308.152 203.529,303.303 C203.529,298.454 202.878,293.915 201.576,289.686"/>
<path class="TimeSig" d="M273.021,317.912 C274.516,317.912 275.949,317.686 277.318,317.232 C278.688,316.779 279.665,316.553 280.248,316.553 C280.831,316.553 281.222,316.907 281.42,317.615 C281.42,317.688 281.352,317.886 281.217,318.209 L252.811,351.225 L269.498,351.225 L269.498,338.131 C269.498,336.506 270.446,335.334 272.342,334.615 C274.29,333.897 276.503,331.001 278.982,325.928 C279.17,325.532 279.462,325.334 279.857,325.334 C280.639,325.334 281.092,325.792 281.217,326.709 L281.217,351.225 L288.357,351.225 C289.264,351.225 289.751,351.712 289.818,352.686 C289.886,353.66 289.399,354.147 288.357,354.147 L281.217,354.147 L281.217,354.928 C281.217,357.532 281.868,359.746 283.17,361.568 C284.67,363.391 286.43,364.303 288.451,364.303 C289.232,364.303 289.623,364.693 289.623,365.475 C289.623,366.256 289.087,366.647 288.014,366.647 C286.941,366.647 284.938,366.436 282.006,366.014 C279.074,365.592 276.811,365.381 275.217,365.381 C273.623,365.381 271.41,365.592 268.576,366.014 C265.743,366.436 263.613,366.647 262.186,366.647 C261.404,366.647 261.014,366.256 261.014,365.475 C261.014,364.693 261.404,364.303 262.186,364.303 C264.196,364.303 265.951,363.391 267.451,361.568 C268.816,359.683 269.498,357.469 269.498,354.928 L269.498,354.147 L252.811,354.147 C251.956,354.147 251.219,353.92 250.6,353.467 C249.98,353.014 249.67,352.592 249.67,352.201 C249.67,351.811 250.485,350.639 252.115,348.686 C253.745,346.732 256.074,342.972 259.1,337.404 C262.126,331.837 263.639,325.438 263.639,318.209 C263.639,317.167 264.097,316.647 265.014,316.647 C265.212,316.647 265.521,316.712 265.943,316.842 C266.365,316.972 267.277,317.183 268.678,317.475 C270.079,317.766 271.527,317.912 273.021,317.912"/>
<path class="TimeSig" d="M273.021,368.084 C274.516,368.084 275.949,367.858 277.318,367.404 C278.688,366.951 279.665,366.725 280.248,366.725 C280.831,366.725 281.222,367.079 281.42,367.787 C281.42,367.86 281.352,368.058 281.217,368.381 L252.811,401.397 L269.498,401.397 L269.498,388.303 C269.498,386.678 270.446,385.506 272.342,384.787 C274.29,384.068 276.503,381.173 278.982,376.1 C279.17,375.704 279.462,375.506 279.857,375.506 C280.639,375.506 281.092,375.964 281.217,376.881 L281.217,401.397 L288.357,401.397 C289.264,401.397 289.751,401.884 289.818,402.858 C289.886,403.831 289.399,404.318 288.357,404.318 L281.217,404.318 L281.217,405.1 C281.217,407.704 281.868,409.917 283.17,411.74 C284.67,413.563 286.43,414.475 288.451,414.475 C289.232,414.475 289.623,414.865 289.623,415.647 C289.623,416.428 289.087,416.818 288.014,416.818 C286.941,416.818 284.938,416.608 282.006,416.186 C279.074,415.764 276.811,415.553 275.217,415.553 C273.623,415.553 271.41,415.764 268.576,416.186 C265.743,416.608 263.613,416.818 262.186,416.818 C261.404,416.818 261.014,416.428 261.014,415.647 C261.014,414.865 261.404,414.475 262.186,414.475 C264.196,414.475 265.951,413.563 267.451,411.74 C268.816,409.855 269.498,407.641 269.498,405.1 L269.498,404.318 L252.811,404.318 C251.956,404.318 251.219,404.092 250.6,403.639 C249.98,403.186 249.67,402.764 249.67,402.373 C249.67,401.983 250.485,400.811 252.115,398.858 C253.745,396.904 256.074,393.144 259.1,387.576 C262.126,382.009 263.639,375.61 263.639,368.381 C263.639,367.339 264.097,366.818 265.014,366.818 C265.212,366.818 265.521,366.884 265.943,367.014 C266.365,367.144 267.277,367.355 268.678,367.647 C270.079,367.938 271.527,368.084 273.021,368.084"/>
<path class="Rest" d="M1575.13,357.357 L1539.58,357.357 C1538.92,357.357 1538.59,357.035 1538.59,356.389 L1538.59,342.717 C1538.59,342.061 1538.92,341.732 1539.58,341.732 L1575.13,341.732 C1575.77,341.732 1576.09,342.061 1576.09,342.717 L1576.09,356.389 C1576.09,357.035 1575.77,357.357 1575.13,357.357"/>
</svg>
