<?xml version="1.0" encoding="UTF-8" standalone="no"?>
<svg width="2977.2px" height="4208.4px" viewBox="0 0 2977.2 4208.4"
 xmlns="http://www.w3.org/2000/svg" xmlns:xlink="http://www.w3.org/1999/xlink" version="1.2" baseProfile="tiny">
<title>Twinkle_Twinkle.mscx</title>
<desc>Generated by MuseScore Studio 4.3.1</desc>
<path class="" fill="#ffffff" fill-rule="evenodd" d="M0,0 L2977.2,0 L2977.2,4208.4 L0,4208.4 L0,0 "/>
<polyline class="StaffLines" fill="none" stroke="#000000" stroke-width="2.00" stroke-linejoin="bevel" points="141.732,566.733 2835.47,566.733"/>
<polyline class="StaffLines" fill="none" stroke="#000000" stroke-width="2.00" stroke-linejoin="bevel" points="141.732,591.733 2835.47,591.733"/>
<polyline class="StaffLines" fill="none" stroke="#000000" stroke-width="2.00" stroke-linejoin="bevel" points="141.732,616.733 2835.47,616.733"/>
<polyline class="StaffLines" fill="none" stroke="#000000" stroke-width="2.00" stroke-linejoin="bevel" points="141.732,641.733 2835.47,641.733"/>
<polyline class="StaffLines" fill="none" stroke="#000000" stroke-width="2.00" stroke-linejoin="bevel" points="141.732,666.733 2835.47,666.733"/>
<polyline class="StaffLines" fill="none" stroke="#000000" stroke-width="2.00" stroke-linejoin="bevel" points="141.732,1041.73 2835.47,1041.73"/>
<polyline class="StaffLines" fill="none" stroke="#000000" stroke-width="2.00" stroke-linejoin="bevel" points="141.732,1066.73 2835.47,1066.73"/>
<polyline class="StaffLines" fill="none" stroke="#000000" stroke-width="2.00" stroke-linejoin="bevel" points="141.732,1091.73 2835.47,1091.73"/>
<polyline class="StaffLines" fill="none" stroke="#000000" stroke-width="2.00" stroke-linejoin="bevel" points="141.732,1116.73 2835.47,1116.73"/>
<polyline class="StaffLines" fill="none" stroke="#000000" stroke-width="2.00" stroke-linejoin="bevel" points="141.732,1141.73 2835.47,1141.73"/>
<polyline class="StaffLines" fill="none" stroke="#000000" stroke-width="2.00" stroke-linejoin="bevel" points="141.732,1516.73 2835.47,1516.73"/>
<polyline class="StaffLines" fill="none" stroke="#000000" stroke-width="2.00" stroke-linejoin="bevel" points="141.732,1541.73 2835.47,1541.73"/>
<polyline class="StaffLines" fill="none" stroke="#000000" stroke-width="2.00" stroke-linejoin="bevel" points="141.732,1566.73 2835.47,1566.73"/>
<polyline class="StaffLines" fill="none" stroke="#000000" stroke-width="2.00" stroke-linejoin="bevel" points="141.732,1591.73 2835.47,1591.73"/>
<polyline class="StaffLines" fill="none" stroke="#000000" stroke-width="2.00" stroke-linejoin="bevel" points="141.732,1616.73 2835.47,1616.73"/>
<path class="MeasureNumber" d="M146.514,983.874 C146.514,982.446 146.199,981.181 145.568,980.077 C144.938,978.972 144.178,978.118 143.287,977.514 C142.396,976.91 141.399,976.413 140.295,976.022 C139.191,975.631 138.23,975.376 137.412,975.256 C136.594,975.137 135.883,975.077 135.279,975.077 C134.956,975.077 134.795,974.967 134.795,974.749 C134.795,974.676 134.805,974.613 134.826,974.561 L139.185,965.264 L147.545,965.264 C147.972,965.264 148.313,965.196 148.568,965.061 C148.824,964.926 149.097,964.644 149.389,964.217 L149.748,964.499 L148.232,967.842 C148.128,968.061 147.821,968.17 147.31,968.17 L139.467,968.17 L137.795,971.608 C141.68,972.306 144.571,973.441 146.467,975.014 C148.363,976.587 149.31,978.894 149.31,981.936 C149.31,983.53 149.063,984.946 148.568,986.186 C148.074,987.426 147.446,988.423 146.685,989.178 C145.925,989.933 145.045,990.553 144.045,991.038 C143.045,991.522 142.087,991.853 141.17,992.03 C140.253,992.207 139.326,992.295 138.389,992.295 C136.899,992.295 135.714,992.074 134.834,991.631 C133.954,991.189 133.514,990.582 133.514,989.811 C133.514,988.821 134.087,988.327 135.232,988.327 C135.982,988.327 136.949,988.735 138.131,989.553 C139.313,990.371 140.253,990.78 140.951,990.78 C142.524,990.78 143.844,990.113 144.912,988.78 C145.98,987.446 146.514,985.811 146.514,983.874"/>
<path class="MeasureNumber" d="M134.092,1467.61 L133.967,1466.81 C137.008,1466.28 139.589,1464.98 141.709,1462.92 C143.829,1460.86 145.3,1458.2 146.123,1454.94 C144.154,1456.48 142.159,1457.25 140.139,1457.25 C137.972,1457.25 136.23,1456.5 134.912,1455.01 C133.594,1453.51 132.935,1451.55 132.935,1449.11 C132.935,1446.4 133.727,1444.14 135.31,1442.33 C136.894,1440.53 138.873,1439.62 141.248,1439.62 C143.831,1439.62 145.951,1440.68 147.607,1442.8 C149.264,1444.91 150.092,1447.63 150.092,1450.95 C150.092,1452.01 149.998,1453.11 149.81,1454.23 C149.623,1455.36 149.188,1456.69 148.506,1458.23 C147.824,1459.76 146.938,1461.14 145.85,1462.35 C144.761,1463.56 143.204,1464.67 141.178,1465.66 C139.152,1466.64 136.79,1467.3 134.092,1467.61 M141.576,1455.5 C142.076,1455.5 142.646,1455.43 143.287,1455.28 C143.928,1455.13 144.576,1454.81 145.232,1454.32 C145.889,1453.82 146.217,1453.22 146.217,1452.5 L146.217,1450.95 C146.217,1444.19 144.456,1440.81 140.935,1440.81 C140.102,1440.81 139.394,1441.03 138.81,1441.48 C138.227,1441.92 137.782,1442.5 137.475,1443.21 C137.167,1443.92 136.946,1444.65 136.81,1445.4 C136.675,1446.14 136.607,1446.93 136.607,1447.76 C136.607,1450.13 137.055,1452.01 137.951,1453.41 C138.847,1454.8 140.055,1455.5 141.576,1455.5"/>
<polyline class="BarLine" fill="none" stroke="#000000" stroke-width="4.00" stroke-linejoin="bevel" points="2231.11,1040.73 2231.11,1142.73"/>
<polyline class="BarLine" fill="none" stroke="#000000" stroke-width="4.00" stroke-linejoin="bevel" points="1565.05,565.733 1565.05,667.733"/>
<polyline class="BarLine" fill="none" stroke="#000000" stroke-width="4.00" stroke-linejoin="bevel" points="2239.6,565.733 2239.6,667.733"/>
<polyline class="BarLine" fill="none" stroke="#000000" stroke-width="4.00" stroke-linejoin="bevel" points="2833.47,565.733 2833.47,667.733"/>
<polyline class="BarLine" fill="none" stroke="#000000" stroke-width="4.00" stroke-linejoin="bevel" points="944.495,1040.73 944.495,1142.73"/>
<polyline class="BarLine" fill="none" stroke="#000000" stroke-width="4.00" stroke-linejoin="bevel" points="1546.85,1040.73 1546.85,1142.73"/>
<polyline class="BarLine" fill="none" stroke="#000000" stroke-width="4.00" stroke-linejoin="bevel" points="971.182,565.733 971.182,667.733"/>
<polyline class="BarLine" fill="none" stroke="#000000" stroke-width="4.00" stroke-linejoin="bevel" points="2833.47,1040.73 2833.47,1142.73"/>
<polyline class="BarLine" fill="none" stroke="#000000" stroke-width="4.00" stroke-linejoin="bevel" points="936.295,1515.73 936.295,1617.73"/>
<polyline class="BarLine" fill="none" stroke="#000000" stroke-width="4.00" stroke-linejoin="bevel" points="1531.48,1515.73 1531.48,1617.73"/>
<polyline class="BarLine" fill="none" stroke="#000000" stroke-width="4.00" stroke-linejoin="bevel" points="2207.54,1515.73 2207.54,1617.73"/>
<polyline class="BarLine" fill="none" stroke="#000000" stroke-width="4.00" stroke-linejoin="bevel" points="2802.72,1515.73 2802.72,1617.73"/>
<polyline class="BarLine" fill="none" stroke="#000000" stroke-width="12.50" stroke-linejoin="bevel" points="2829.22,1515.73 2829.22,1617.73"/>
<polyline class="LedgerLine" fill="none" stroke="#000000" stroke-width="4.00" stroke-linejoin="bevel" points="1150.07,541.733 1201.99,541.733"/>
<polyline class="LedgerLine" fill="none" stroke="#000000" stroke-width="4.00" stroke-linejoin="bevel" points="953.795,1491.73 1005.71,1491.73"/>
<polyline class="LedgerLine" fill="none" stroke="#000000" stroke-width="4.00" stroke-linejoin="bevel" points="1115.56,1491.73 1167.48,1491.73"/>
<polyline class="LedgerLine" fill="none" stroke="#000000" stroke-width="4.00" stroke-linejoin="bevel" points="988.682,541.733 1040.6,541.733"/>
<polyline class="Stem" fill="none" stroke="#000000" stroke-width="3.25" stroke-linejoin="bevel" points="999.807,547.602 999.807,629.233"/>
<polyline class="Stem" fill="none" stroke="#000000" stroke-width="3.25" stroke-linejoin="bevel" points="1575.48,1035.1 1575.48,1116.73"/>
<polyline class="Stem" fill="none" stroke="#000000" stroke-width="3.25" stroke-linejoin="bevel" points="1739.29,1035.1 1739.29,1116.73"/>
<polyline class="Stem" fill="none" stroke="#000000" stroke-width="3.25" stroke-linejoin="bevel" points="1903.11,1047.6 1903.11,1129.23"/>
<polyline class="Stem" fill="none" stroke="#000000" stroke-width="3.25" stroke-linejoin="bevel" points="2066.92,1047.6 2066.92,1129.23"/>
<polyline class="Stem" fill="none" stroke="#000000" stroke-width="3.25" stroke-linejoin="bevel" points="1299.85,1071.63 1299.85,1154.23"/>
<polyline class="Stem" fill="none" stroke="#000000" stroke-width="3.25" stroke-linejoin="bevel" points="809.417,560.102 809.417,641.733"/>
<polyline class="Stem" fill="none" stroke="#000000" stroke-width="3.25" stroke-linejoin="bevel" points="1593.67,572.602 1593.67,654.233"/>
<polyline class="Stem" fill="none" stroke="#000000" stroke-width="3.25" stroke-linejoin="bevel" points="2259.74,1060.1 2259.74,1141.73"/>
<polyline class="Stem" fill="none" stroke="#000000" stroke-width="3.25" stroke-linejoin="bevel" points="2423.55,1060.1 2423.55,1141.73"/>
<polyline class="Stem" fill="none" stroke="#000000" stroke-width="3.25" stroke-linejoin="bevel" points="2586.47,1071.63 2586.47,1154.23"/>
<polyline class="Stem" fill="none" stroke="#000000" stroke-width="3.25" stroke-linejoin="bevel" points="648.027,560.102 648.027,641.733"/>
<polyline class="Stem" fill="none" stroke="#000000" stroke-width="3.25" stroke-linejoin="bevel" points="288.857,1560.1 288.857,1635.48"/>
<polyline class="Stem" fill="none" stroke="#000000" stroke-width="3.25" stroke-linejoin="bevel" points="1136.94,1060.1 1136.94,1141.73"/>
<polyline class="Stem" fill="none" stroke="#000000" stroke-width="3.25" stroke-linejoin="bevel" points="450.623,1560.1 450.623,1635.48"/>
<polyline class="Stem" fill="none" stroke="#000000" stroke-width="3.25" stroke-linejoin="bevel" points="612.389,1510.1 612.389,1591.73"/>
<polyline class="Stem" fill="none" stroke="#000000" stroke-width="3.25" stroke-linejoin="bevel" points="774.155,1510.1 774.155,1591.73"/>
<polyline class="Stem" fill="none" stroke="#000000" stroke-width="3.25" stroke-linejoin="bevel" points="486.638,610.102 486.638,685.483"/>
<polyline class="Stem" fill="none" stroke="#000000" stroke-width="3.25" stroke-linejoin="bevel" points="964.92,1497.6 964.92,1579.23"/>
<polyline class="Stem" fill="none" stroke="#000000" stroke-width="3.25" stroke-linejoin="bevel" points="1126.69,1497.6 1126.69,1579.23"/>
<polyline class="Stem" fill="none" stroke="#000000" stroke-width="3.25" stroke-linejoin="bevel" points="1287.55,1509.13 1287.55,1591.73"/>
<polyline class="Stem" fill="none" stroke="#000000" stroke-width="3.25" stroke-linejoin="bevel" points="325.248,610.102 325.248,685.483"/>
<polyline class="Stem" fill="none" stroke="#000000" stroke-width="3.25" stroke-linejoin="bevel" points="1560.1,1522.6 1560.1,1604.23"/>
<polyline class="Stem" fill="none" stroke="#000000" stroke-width="3.25" stroke-linejoin="bevel" points="1721.87,1522.6 1721.87,1604.23"/>
<polyline class="Stem" fill="none" stroke="#000000" stroke-width="3.25" stroke-linejoin="bevel" points="1883.63,1535.1 1883.63,1616.73"/>
<polyline class="Stem" fill="none" stroke="#000000" stroke-width="3.25" stroke-linejoin="bevel" points="2045.4,1535.1 2045.4,1616.73"/>
<polyline class="Stem" fill="none" stroke="#000000" stroke-width="3.25" stroke-linejoin="bevel" points="2236.16,1547.6 2236.16,1629.23"/>
<polyline class="Stem" fill="none" stroke="#000000" stroke-width="3.25" stroke-linejoin="bevel" points="2397.93,1547.6 2397.93,1629.23"/>
<polyline class="Stem" fill="none" stroke="#000000" stroke-width="3.25" stroke-linejoin="bevel" points="2558.79,1559.13 2558.79,1635.48"/>
<polyline class="Stem" fill="none" stroke="#000000" stroke-width="3.25" stroke-linejoin="bevel" points="452.673,1035.1 452.673,1116.73"/>
<polyline class="Stem" fill="none" stroke="#000000" stroke-width="3.25" stroke-linejoin="bevel" points="2590.11,609.133 2590.11,685.483"/>
<polyline class="Stem" fill="none" stroke="#000000" stroke-width="3.25" stroke-linejoin="bevel" points="1161.2,547.602 1161.2,629.233"/>
<polyline class="Stem" fill="none" stroke="#000000" stroke-width="3.25" stroke-linejoin="bevel" points="2429.62,597.602 2429.62,679.233"/>
<polyline class="Stem" fill="none" stroke="#000000" stroke-width="3.25" stroke-linejoin="bevel" points="2268.23,597.602 2268.23,679.233"/>
<polyline class="Stem" fill="none" stroke="#000000" stroke-width="3.25" stroke-linejoin="bevel" points="1321.68,559.133 1321.68,641.733"/>
<polyline class="Stem" fill="none" stroke="#000000" stroke-width="3.25" stroke-linejoin="bevel" points="288.857,1035.1 288.857,1116.73"/>
<polyline class="Stem" fill="none" stroke="#000000" stroke-width="3.25" stroke-linejoin="bevel" points="2077.84,585.102 2077.84,666.733"/>
<polyline class="Stem" fill="none" stroke="#000000" stroke-width="3.25" stroke-linejoin="bevel" points="1916.45,585.102 1916.45,666.733"/>
<polyline class="Stem" fill="none" stroke="#000000" stroke-width="3.25" stroke-linejoin="bevel" points="616.489,1047.6 616.489,1129.23"/>
<polyline class="Stem" fill="none" stroke="#000000" stroke-width="3.25" stroke-linejoin="bevel" points="973.12,1060.1 973.12,1141.73"/>
<polyline class="Stem" fill="none" stroke="#000000" stroke-width="3.25" stroke-linejoin="bevel" points="780.305,1047.6 780.305,1129.23"/>
<polyline class="Stem" fill="none" stroke="#000000" stroke-width="3.25" stroke-linejoin="bevel" points="1755.06,572.602 1755.06,654.233"/>
<path class="Note" d="M1293.35,1514.87 C1295.23,1514.87 1299.19,1512.92 1305.21,1509.01 C1311.24,1505.11 1314.79,1502.49 1315.86,1501.16 C1316.93,1499.82 1317.47,1498.63 1317.47,1497.59 C1317.47,1496.55 1317.05,1495.62 1316.2,1494.81 C1315.35,1494 1314.37,1493.59 1313.27,1493.59 C1311.32,1493.59 1307.33,1495.56 1301.31,1499.5 C1295.28,1503.44 1291.75,1506.06 1290.71,1507.36 C1289.66,1508.66 1289.14,1509.83 1289.14,1510.87 C1289.14,1511.92 1289.55,1512.84 1290.37,1513.66 C1291.19,1514.47 1292.18,1514.87 1293.35,1514.87 M1312.3,1490.47 C1317.89,1490.47 1320.69,1492.87 1320.69,1497.69 C1320.69,1500.03 1320.01,1502.75 1318.64,1505.84 C1317.28,1508.94 1315.46,1511.3 1313.17,1512.92 C1308.16,1516.31 1301.88,1518 1294.33,1518 C1288.73,1518 1285.92,1515.59 1285.92,1510.78 C1285.92,1508.63 1286.59,1505.96 1287.92,1502.77 C1289.26,1499.58 1291.1,1497.17 1293.44,1495.55 C1298.46,1492.16 1304.75,1490.47 1312.3,1490.47"/>
<path class="Note" d="M2564.59,1564.87 C2566.47,1564.87 2570.43,1562.92 2576.46,1559.01 C2582.48,1555.11 2586.03,1552.49 2587.1,1551.16 C2588.18,1549.82 2588.71,1548.63 2588.71,1547.59 C2588.71,1546.55 2588.29,1545.62 2587.44,1544.81 C2586.59,1544 2585.62,1543.59 2584.51,1543.59 C2582.56,1543.59 2578.58,1545.56 2572.55,1549.5 C2566.52,1553.44 2562.99,1556.06 2561.95,1557.36 C2560.91,1558.66 2560.39,1559.83 2560.39,1560.87 C2560.39,1561.92 2560.8,1562.84 2561.61,1563.66 C2562.43,1564.47 2563.42,1564.87 2564.59,1564.87 M2583.54,1540.47 C2589.14,1540.47 2591.93,1542.87 2591.93,1547.69 C2591.93,1550.03 2591.25,1552.75 2589.89,1555.84 C2588.52,1558.94 2586.7,1561.3 2584.42,1562.92 C2579.41,1566.31 2573.13,1568 2565.57,1568 C2559.97,1568 2557.17,1565.59 2557.17,1560.78 C2557.17,1558.63 2557.83,1555.97 2559.17,1552.77 C2560.5,1549.58 2562.34,1547.17 2564.68,1545.55 C2569.7,1542.16 2575.99,1540.47 2583.54,1540.47"/>
<path class="Note" d="M794.498,1490.47 C797.623,1490.47 800.228,1491.25 802.311,1492.81 C804.394,1494.37 805.436,1496.62 805.436,1499.55 C805.436,1504.04 803.11,1508.23 798.459,1512.14 C793.808,1516.05 788.811,1518 783.467,1518 C780.342,1518 777.707,1517.19 775.561,1515.56 C773.54,1513.8 772.53,1511.59 772.53,1508.92 C772.53,1504.56 774.842,1500.39 779.467,1496.42 C784.092,1492.45 789.103,1490.47 794.498,1490.47"/>
<path class="Note" d="M2449.96,577.967 C2453.09,577.967 2455.69,578.748 2457.78,580.311 C2459.86,581.873 2460.9,584.118 2460.9,587.045 C2460.9,591.535 2458.57,595.733 2453.92,599.639 C2449.27,603.545 2444.28,605.498 2438.93,605.498 C2435.81,605.498 2433.17,604.686 2431.03,603.061 C2429,601.3 2427.99,599.087 2427.99,596.42 C2427.99,592.056 2430.31,587.889 2434.93,583.92 C2439.56,579.951 2444.57,577.967 2449.96,577.967"/>
<path class="Note" d="M345.592,590.467 C348.717,590.467 351.321,591.248 353.404,592.811 C355.488,594.373 356.529,596.618 356.529,599.545 C356.529,604.035 354.204,608.233 349.553,612.139 C344.902,616.045 339.904,617.998 334.561,617.998 C331.436,617.998 328.8,617.186 326.654,615.561 C324.634,613.8 323.623,611.587 323.623,608.92 C323.623,604.556 325.936,600.389 330.561,596.42 C335.186,592.451 340.196,590.467 345.592,590.467"/>
<path class="Note" d="M1614.01,552.967 C1617.14,552.967 1619.74,553.748 1621.83,555.311 C1623.91,556.873 1624.95,559.118 1624.95,562.045 C1624.95,566.535 1622.63,570.733 1617.98,574.639 C1613.32,578.545 1608.33,580.498 1602.98,580.498 C1599.86,580.498 1597.22,579.686 1595.08,578.061 C1593.06,576.3 1592.05,574.087 1592.05,571.42 C1592.05,567.056 1594.36,562.889 1598.98,558.92 C1603.61,554.951 1608.62,552.967 1614.01,552.967"/>
<path class="Note" d="M2288.57,577.967 C2291.7,577.967 2294.3,578.748 2296.39,580.311 C2298.47,581.873 2299.51,584.118 2299.51,587.045 C2299.51,591.535 2297.19,595.733 2292.53,599.639 C2287.88,603.545 2282.89,605.498 2277.54,605.498 C2274.42,605.498 2271.78,604.686 2269.64,603.061 C2267.61,601.3 2266.6,599.087 2266.6,596.42 C2266.6,592.056 2268.92,587.889 2273.54,583.92 C2278.17,579.951 2283.18,577.967 2288.57,577.967"/>
<path class="Note" d="M985.264,1477.97 C988.389,1477.97 990.993,1478.75 993.077,1480.31 C995.16,1481.87 996.202,1484.12 996.202,1487.05 C996.202,1491.54 993.876,1495.73 989.225,1499.64 C984.574,1503.55 979.577,1505.5 974.233,1505.5 C971.108,1505.5 968.472,1504.69 966.327,1503.06 C964.306,1501.3 963.295,1499.09 963.295,1496.42 C963.295,1492.06 965.608,1487.89 970.233,1483.92 C974.858,1479.95 979.868,1477.97 985.264,1477.97"/>
<path class="Note" d="M2418.27,1527.97 C2421.4,1527.97 2424,1528.75 2426.09,1530.31 C2428.17,1531.87 2429.21,1534.12 2429.21,1537.05 C2429.21,1541.54 2426.88,1545.73 2422.23,1549.64 C2417.58,1553.55 2412.59,1555.5 2407.24,1555.5 C2404.12,1555.5 2401.48,1554.69 2399.34,1553.06 C2397.31,1551.3 2396.3,1549.09 2396.3,1546.42 C2396.3,1542.06 2398.62,1537.89 2403.24,1533.92 C2407.87,1529.95 2412.88,1527.97 2418.27,1527.97"/>
<path class="Note" d="M1147.03,1477.97 C1150.15,1477.97 1152.76,1478.75 1154.84,1480.31 C1156.93,1481.87 1157.97,1484.12 1157.97,1487.05 C1157.97,1491.54 1155.64,1495.73 1150.99,1499.64 C1146.34,1503.55 1141.34,1505.5 1136,1505.5 C1132.87,1505.5 1130.24,1504.69 1128.09,1503.06 C1126.07,1501.3 1125.06,1499.09 1125.06,1496.42 C1125.06,1492.06 1127.37,1487.89 1132,1483.92 C1136.62,1479.95 1141.63,1477.97 1147.03,1477.97"/>
<path class="Note" d="M2065.74,1515.47 C2068.87,1515.47 2071.47,1516.25 2073.55,1517.81 C2075.64,1519.37 2076.68,1521.62 2076.68,1524.55 C2076.68,1529.04 2074.35,1533.23 2069.7,1537.14 C2065.05,1541.05 2060.05,1543 2054.71,1543 C2051.59,1543 2048.95,1542.19 2046.8,1540.56 C2044.78,1538.8 2043.77,1536.59 2043.77,1533.92 C2043.77,1529.56 2046.09,1525.39 2050.71,1521.42 C2055.34,1517.45 2060.35,1515.47 2065.74,1515.47"/>
<path class="Note" d="M1327.48,564.873 C1329.37,564.873 1333.32,562.92 1339.35,559.014 C1345.37,555.108 1348.92,552.488 1350,551.154 C1351.07,549.821 1351.61,548.634 1351.61,547.592 C1351.61,546.55 1351.18,545.623 1350.33,544.811 C1349.48,543.998 1348.51,543.592 1347.4,543.592 C1345.45,543.592 1341.47,545.561 1335.44,549.498 C1329.42,553.436 1325.88,556.056 1324.84,557.358 C1323.8,558.66 1323.28,559.832 1323.28,560.873 C1323.28,561.915 1323.69,562.842 1324.5,563.654 C1325.32,564.467 1326.31,564.873 1327.48,564.873 M1346.43,540.467 C1352.03,540.467 1354.82,542.873 1354.82,547.686 C1354.82,550.029 1354.14,552.748 1352.78,555.842 C1351.41,558.936 1349.59,561.295 1347.31,562.92 C1342.3,566.306 1336.02,567.998 1328.47,567.998 C1322.86,567.998 1320.06,565.592 1320.06,560.779 C1320.06,558.634 1320.73,555.964 1322.06,552.772 C1323.39,549.579 1325.23,547.17 1327.57,545.545 C1332.6,542.16 1338.88,540.467 1346.43,540.467"/>
<path class="Note" d="M2098.18,565.467 C2101.31,565.467 2103.91,566.248 2106,567.811 C2108.08,569.373 2109.12,571.618 2109.12,574.545 C2109.12,579.035 2106.8,583.233 2102.14,587.139 C2097.49,591.045 2092.5,592.998 2087.15,592.998 C2084.03,592.998 2081.39,592.186 2079.25,590.561 C2077.23,588.8 2076.21,586.587 2076.21,583.92 C2076.21,579.556 2078.53,575.389 2083.15,571.42 C2087.78,567.451 2092.79,565.467 2098.18,565.467"/>
<path class="Note" d="M1580.44,1502.97 C1583.57,1502.97 1586.17,1503.75 1588.26,1505.31 C1590.34,1506.87 1591.38,1509.12 1591.38,1512.05 C1591.38,1516.54 1589.06,1520.73 1584.41,1524.64 C1579.75,1528.55 1574.76,1530.5 1569.41,1530.5 C1566.29,1530.5 1563.65,1529.69 1561.51,1528.06 C1559.49,1526.3 1558.48,1524.09 1558.48,1521.42 C1558.48,1517.06 1560.79,1512.89 1565.41,1508.92 C1570.04,1504.95 1575.05,1502.97 1580.44,1502.97"/>
<path class="Note" d="M1157.28,1040.47 C1160.4,1040.47 1163.01,1041.25 1165.09,1042.81 C1167.18,1044.37 1168.22,1046.62 1168.22,1049.55 C1168.22,1054.04 1165.89,1058.23 1161.24,1062.14 C1156.59,1066.05 1151.59,1068 1146.25,1068 C1143.12,1068 1140.49,1067.19 1138.34,1065.56 C1136.32,1063.8 1135.31,1061.59 1135.31,1058.92 C1135.31,1054.56 1137.62,1050.39 1142.25,1046.42 C1146.87,1042.45 1151.88,1040.47 1157.28,1040.47"/>
<path class="Note" d="M2256.51,1527.97 C2259.63,1527.97 2262.24,1528.75 2264.32,1530.31 C2266.4,1531.87 2267.44,1534.12 2267.44,1537.05 C2267.44,1541.54 2265.12,1545.73 2260.47,1549.64 C2255.82,1553.55 2250.82,1555.5 2245.48,1555.5 C2242.35,1555.5 2239.72,1554.69 2237.57,1553.06 C2235.55,1551.3 2234.54,1549.09 2234.54,1546.42 C2234.54,1542.06 2236.85,1537.89 2241.48,1533.92 C2246.1,1529.95 2251.11,1527.97 2256.51,1527.97"/>
<path class="Note" d="M1742.21,1502.97 C1745.33,1502.97 1747.94,1503.75 1750.02,1505.31 C1752.11,1506.87 1753.15,1509.12 1753.15,1512.05 C1753.15,1516.54 1750.82,1520.73 1746.17,1524.64 C1741.52,1528.55 1736.52,1530.5 1731.18,1530.5 C1728.05,1530.5 1725.42,1529.69 1723.27,1528.06 C1721.25,1526.3 1720.24,1524.09 1720.24,1521.42 C1720.24,1517.06 1722.55,1512.89 1727.18,1508.92 C1731.8,1504.95 1736.81,1502.97 1742.21,1502.97"/>
<path class="Note" d="M1936.79,565.467 C1939.92,565.467 1942.52,566.248 1944.61,567.811 C1946.69,569.373 1947.73,571.618 1947.73,574.545 C1947.73,579.035 1945.41,583.233 1940.75,587.139 C1936.1,591.045 1931.11,592.998 1925.76,592.998 C1922.64,592.998 1920,592.186 1917.86,590.561 C1915.84,588.8 1914.83,586.587 1914.83,583.92 C1914.83,579.556 1917.14,575.389 1921.76,571.42 C1926.39,567.451 1931.4,565.467 1936.79,565.467"/>
<path class="Note" d="M1903.98,1515.47 C1907.1,1515.47 1909.7,1516.25 1911.79,1517.81 C1913.87,1519.37 1914.91,1521.62 1914.91,1524.55 C1914.91,1529.04 1912.59,1533.23 1907.94,1537.14 C1903.29,1541.05 1898.29,1543 1892.94,1543 C1889.82,1543 1887.18,1542.19 1885.04,1540.56 C1883.02,1538.8 1882.01,1536.59 1882.01,1533.92 C1882.01,1529.56 1884.32,1525.39 1888.94,1521.42 C1893.57,1517.45 1898.58,1515.47 1903.98,1515.47"/>
<path class="Note" d="M1775.4,552.967 C1778.53,552.967 1781.13,553.748 1783.22,555.311 C1785.3,556.873 1786.34,559.118 1786.34,562.045 C1786.34,566.535 1784.02,570.733 1779.37,574.639 C1774.71,578.545 1769.72,580.498 1764.37,580.498 C1761.25,580.498 1758.61,579.686 1756.47,578.061 C1754.45,576.3 1753.44,574.087 1753.44,571.42 C1753.44,567.056 1755.75,562.889 1760.37,558.92 C1765,554.951 1770.01,552.967 1775.4,552.967"/>
<path class="Note" d="M2280.08,1040.47 C2283.21,1040.47 2285.81,1041.25 2287.89,1042.81 C2289.98,1044.37 2291.02,1046.62 2291.02,1049.55 C2291.02,1054.04 2288.69,1058.23 2284.04,1062.14 C2279.39,1066.05 2274.39,1068 2269.05,1068 C2265.93,1068 2263.29,1067.19 2261.14,1065.56 C2259.12,1063.8 2258.11,1061.59 2258.11,1058.92 C2258.11,1054.56 2260.43,1050.39 2265.05,1046.42 C2269.68,1042.45 2274.69,1040.47 2280.08,1040.47"/>
<path class="Note" d="M1020.15,527.967 C1023.28,527.967 1025.88,528.748 1027.96,530.311 C1030.05,531.873 1031.09,534.118 1031.09,537.045 C1031.09,541.535 1028.76,545.733 1024.11,549.639 C1019.46,553.545 1014.46,555.498 1009.12,555.498 C1005.99,555.498 1003.36,554.686 1001.21,553.061 C999.192,551.3 998.182,549.087 998.182,546.42 C998.182,542.056 1000.49,537.889 1005.12,533.92 C1009.74,529.951 1014.75,527.967 1020.15,527.967"/>
<path class="Note" d="M800.648,1027.97 C803.773,1027.97 806.378,1028.75 808.461,1030.31 C810.544,1031.87 811.586,1034.12 811.586,1037.05 C811.586,1041.54 809.26,1045.73 804.609,1049.64 C799.958,1053.55 794.961,1055.5 789.617,1055.5 C786.492,1055.5 783.857,1054.69 781.711,1053.06 C779.69,1051.3 778.68,1049.09 778.68,1046.42 C778.68,1042.06 780.992,1037.89 785.617,1033.92 C790.242,1029.95 795.253,1027.97 800.648,1027.97"/>
<path class="Note" d="M1595.82,1015.47 C1598.94,1015.47 1601.55,1016.25 1603.63,1017.81 C1605.71,1019.37 1606.76,1021.62 1606.76,1024.55 C1606.76,1029.04 1604.43,1033.23 1599.78,1037.14 C1595.13,1041.05 1590.13,1043 1584.79,1043 C1581.66,1043 1579.03,1042.19 1576.88,1040.56 C1574.86,1038.8 1573.85,1036.59 1573.85,1033.92 C1573.85,1029.56 1576.16,1025.39 1580.79,1021.42 C1585.41,1017.45 1590.42,1015.47 1595.82,1015.47"/>
<path class="Note" d="M636.833,1027.97 C639.958,1027.97 642.562,1028.75 644.645,1030.31 C646.728,1031.87 647.77,1034.12 647.77,1037.05 C647.77,1041.54 645.445,1045.73 640.794,1049.64 C636.143,1053.55 631.145,1055.5 625.801,1055.5 C622.676,1055.5 620.041,1054.69 617.895,1053.06 C615.874,1051.3 614.864,1049.09 614.864,1046.42 C614.864,1042.06 617.176,1037.89 621.801,1033.92 C626.426,1029.95 631.437,1027.97 636.833,1027.97"/>
<path class="Note" d="M1305.65,1077.37 C1307.53,1077.37 1311.49,1075.42 1317.51,1071.51 C1323.54,1067.61 1327.09,1064.99 1328.16,1063.65 C1329.23,1062.32 1329.77,1061.13 1329.77,1060.09 C1329.77,1059.05 1329.35,1058.12 1328.5,1057.31 C1327.65,1056.5 1326.67,1056.09 1325.57,1056.09 C1323.62,1056.09 1319.63,1058.06 1313.61,1062 C1307.58,1065.94 1304.05,1068.56 1303.01,1069.86 C1301.96,1071.16 1301.44,1072.33 1301.44,1073.37 C1301.44,1074.42 1301.85,1075.34 1302.67,1076.15 C1303.49,1076.97 1304.48,1077.37 1305.65,1077.37 M1324.6,1052.97 C1330.19,1052.97 1332.99,1055.37 1332.99,1060.19 C1332.99,1062.53 1332.31,1065.25 1330.94,1068.34 C1329.58,1071.44 1327.76,1073.8 1325.47,1075.42 C1320.46,1078.81 1314.18,1080.5 1306.63,1080.5 C1301.03,1080.5 1298.22,1078.09 1298.22,1073.28 C1298.22,1071.13 1298.89,1068.46 1300.22,1065.27 C1301.56,1062.08 1303.4,1059.67 1305.74,1058.05 C1310.76,1054.66 1317.05,1052.97 1324.6,1052.97"/>
<path class="Note" d="M1759.63,1015.47 C1762.76,1015.47 1765.36,1016.25 1767.45,1017.81 C1769.53,1019.37 1770.57,1021.62 1770.57,1024.55 C1770.57,1029.04 1768.25,1033.23 1763.6,1037.14 C1758.94,1041.05 1753.95,1043 1748.6,1043 C1745.48,1043 1742.84,1042.19 1740.7,1040.56 C1738.68,1038.8 1737.67,1036.59 1737.67,1033.92 C1737.67,1029.56 1739.98,1025.39 1744.6,1021.42 C1749.23,1017.45 1754.24,1015.47 1759.63,1015.47"/>
<path class="Note" d="M1923.45,1027.97 C1926.58,1027.97 1929.18,1028.75 1931.26,1030.31 C1933.35,1031.87 1934.39,1034.12 1934.39,1037.05 C1934.39,1041.54 1932.06,1045.73 1927.41,1049.64 C1922.76,1053.55 1917.76,1055.5 1912.42,1055.5 C1909.29,1055.5 1906.66,1054.69 1904.51,1053.06 C1902.49,1051.3 1901.48,1049.09 1901.48,1046.42 C1901.48,1042.06 1903.79,1037.89 1908.42,1033.92 C1913.04,1029.95 1918.05,1027.97 1923.45,1027.97"/>
<path class="Note" d="M473.017,1015.47 C476.142,1015.47 478.746,1016.25 480.829,1017.81 C482.913,1019.37 483.954,1021.62 483.954,1024.55 C483.954,1029.04 481.629,1033.23 476.978,1037.14 C472.327,1041.05 467.329,1043 461.986,1043 C458.861,1043 456.225,1042.19 454.079,1040.56 C452.059,1038.8 451.048,1036.59 451.048,1033.92 C451.048,1029.56 453.361,1025.39 457.986,1021.42 C462.611,1017.45 467.621,1015.47 473.017,1015.47"/>
<path class="Note" d="M2087.27,1027.97 C2090.39,1027.97 2093,1028.75 2095.08,1030.31 C2097.16,1031.87 2098.2,1034.12 2098.2,1037.05 C2098.2,1041.54 2095.88,1045.73 2091.23,1049.64 C2086.58,1053.55 2081.58,1055.5 2076.24,1055.5 C2073.11,1055.5 2070.47,1054.69 2068.33,1053.06 C2066.31,1051.3 2065.3,1049.09 2065.3,1046.42 C2065.3,1042.06 2067.61,1037.89 2072.24,1033.92 C2076.86,1029.95 2081.87,1027.97 2087.27,1027.97"/>
<path class="Note" d="M829.761,540.467 C832.886,540.467 835.49,541.248 837.573,542.811 C839.657,544.373 840.698,546.618 840.698,549.545 C840.698,554.035 838.373,558.233 833.722,562.139 C829.071,566.045 824.073,567.998 818.73,567.998 C815.605,567.998 812.969,567.186 810.823,565.561 C808.803,563.8 807.792,561.587 807.792,558.92 C807.792,554.556 810.105,550.389 814.73,546.42 C819.355,542.451 824.365,540.467 829.761,540.467"/>
<path class="Note" d="M632.733,1490.47 C635.858,1490.47 638.462,1491.25 640.545,1492.81 C642.628,1494.37 643.67,1496.62 643.67,1499.55 C643.67,1504.04 641.345,1508.23 636.694,1512.14 C632.043,1516.05 627.045,1518 621.701,1518 C618.576,1518 615.941,1517.19 613.795,1515.56 C611.774,1513.8 610.764,1511.59 610.764,1508.92 C610.764,1504.56 613.076,1500.39 617.701,1496.42 C622.326,1492.45 627.337,1490.47 632.733,1490.47"/>
<path class="Note" d="M309.201,1015.47 C312.326,1015.47 314.93,1016.25 317.014,1017.81 C319.097,1019.37 320.139,1021.62 320.139,1024.55 C320.139,1029.04 317.813,1033.23 313.162,1037.14 C308.511,1041.05 303.514,1043 298.17,1043 C295.045,1043 292.41,1042.19 290.264,1040.56 C288.243,1038.8 287.232,1036.59 287.232,1033.92 C287.232,1029.56 289.545,1025.39 294.17,1021.42 C298.795,1017.45 303.805,1015.47 309.201,1015.47"/>
<path class="Note" d="M506.982,590.467 C510.107,590.467 512.711,591.248 514.794,592.811 C516.877,594.373 517.919,596.618 517.919,599.545 C517.919,604.035 515.594,608.233 510.942,612.139 C506.291,616.045 501.294,617.998 495.95,617.998 C492.825,617.998 490.19,617.186 488.044,615.561 C486.023,613.8 485.013,611.587 485.013,608.92 C485.013,604.556 487.325,600.389 491.95,596.42 C496.575,592.451 501.586,590.467 506.982,590.467"/>
<path class="Note" d="M2595.9,614.873 C2597.79,614.873 2601.74,612.92 2607.77,609.014 C2613.8,605.108 2617.35,602.488 2618.42,601.155 C2619.49,599.821 2620.03,598.634 2620.03,597.592 C2620.03,596.55 2619.6,595.623 2618.75,594.811 C2617.91,593.998 2616.93,593.592 2615.83,593.592 C2613.88,593.592 2609.89,595.561 2603.86,599.498 C2597.84,603.436 2594.3,606.056 2593.26,607.358 C2592.22,608.66 2591.7,609.832 2591.7,610.873 C2591.7,611.915 2592.11,612.842 2592.93,613.655 C2593.74,614.467 2594.74,614.873 2595.9,614.873 M2614.86,590.467 C2620.45,590.467 2623.25,592.873 2623.25,597.686 C2623.25,600.03 2622.56,602.748 2621.2,605.842 C2619.84,608.936 2618.01,611.295 2615.73,612.92 C2610.72,616.306 2604.44,617.998 2596.89,617.998 C2591.28,617.998 2588.48,615.592 2588.48,610.78 C2588.48,608.634 2589.15,605.964 2590.48,602.772 C2591.81,599.579 2593.65,597.17 2596,595.545 C2601.02,592.16 2607.3,590.467 2614.86,590.467"/>
<path class="Note" d="M470.967,1540.47 C474.092,1540.47 476.696,1541.25 478.779,1542.81 C480.863,1544.37 481.904,1546.62 481.904,1549.55 C481.904,1554.04 479.579,1558.23 474.928,1562.14 C470.277,1566.05 465.279,1568 459.936,1568 C456.811,1568 454.175,1567.19 452.029,1565.56 C450.009,1563.8 448.998,1561.59 448.998,1558.92 C448.998,1554.56 451.311,1550.39 455.936,1546.42 C460.561,1542.45 465.571,1540.47 470.967,1540.47"/>
<path class="Note" d="M1181.54,527.967 C1184.67,527.967 1187.27,528.748 1189.35,530.311 C1191.44,531.873 1192.48,534.118 1192.48,537.045 C1192.48,541.535 1190.15,545.733 1185.5,549.639 C1180.85,553.545 1175.85,555.498 1170.51,555.498 C1167.38,555.498 1164.75,554.686 1162.6,553.061 C1160.58,551.3 1159.57,549.087 1159.57,546.42 C1159.57,542.056 1161.88,537.889 1166.51,533.92 C1171.13,529.951 1176.14,527.967 1181.54,527.967"/>
<path class="Note" d="M309.201,1540.47 C312.326,1540.47 314.93,1541.25 317.014,1542.81 C319.097,1544.37 320.139,1546.62 320.139,1549.55 C320.139,1554.04 317.813,1558.23 313.162,1562.14 C308.511,1566.05 303.514,1568 298.17,1568 C295.045,1568 292.41,1567.19 290.264,1565.56 C288.243,1563.8 287.232,1561.59 287.232,1558.92 C287.232,1554.56 289.545,1550.39 294.17,1546.42 C298.795,1542.45 303.805,1540.47 309.201,1540.47"/>
<path class="Note" d="M2443.9,1040.47 C2447.02,1040.47 2449.63,1041.25 2451.71,1042.81 C2453.79,1044.37 2454.84,1046.62 2454.84,1049.55 C2454.84,1054.04 2452.51,1058.23 2447.86,1062.14 C2443.21,1066.05 2438.21,1068 2432.87,1068 C2429.74,1068 2427.11,1067.19 2424.96,1065.56 C2422.94,1063.8 2421.93,1061.59 2421.93,1058.92 C2421.93,1054.56 2424.24,1050.39 2428.87,1046.42 C2433.49,1042.45 2438.5,1040.47 2443.9,1040.47"/>
<path class="Note" d="M668.371,540.467 C671.496,540.467 674.1,541.248 676.184,542.811 C678.267,544.373 679.309,546.618 679.309,549.545 C679.309,554.035 676.983,558.233 672.332,562.139 C667.681,566.045 662.684,567.998 657.34,567.998 C654.215,567.998 651.58,567.186 649.434,565.561 C647.413,563.8 646.402,561.587 646.402,558.92 C646.402,554.556 648.715,550.389 653.34,546.42 C657.965,542.451 662.975,540.467 668.371,540.467"/>
<path class="Note" d="M2592.26,1077.37 C2594.15,1077.37 2598.11,1075.42 2604.13,1071.51 C2610.16,1067.61 2613.71,1064.99 2614.78,1063.65 C2615.85,1062.32 2616.39,1061.13 2616.39,1060.09 C2616.39,1059.05 2615.96,1058.12 2615.12,1057.31 C2614.27,1056.5 2613.29,1056.09 2612.19,1056.09 C2610.24,1056.09 2606.25,1058.06 2600.23,1062 C2594.2,1065.94 2590.67,1068.56 2589.62,1069.86 C2588.58,1071.16 2588.06,1072.33 2588.06,1073.37 C2588.06,1074.42 2588.47,1075.34 2589.29,1076.15 C2590.11,1076.97 2591.1,1077.37 2592.26,1077.37 M2611.22,1052.97 C2616.81,1052.97 2619.61,1055.37 2619.61,1060.19 C2619.61,1062.53 2618.93,1065.25 2617.56,1068.34 C2616.2,1071.44 2614.37,1073.8 2612.09,1075.42 C2607.08,1078.81 2600.8,1080.5 2593.25,1080.5 C2587.64,1080.5 2584.84,1078.09 2584.84,1073.28 C2584.84,1071.13 2585.51,1068.46 2586.84,1065.27 C2588.18,1062.08 2590.01,1059.67 2592.36,1058.05 C2597.38,1054.66 2603.67,1052.97 2611.22,1052.97"/>
<path class="Note" d="M993.464,1040.47 C996.589,1040.47 999.193,1041.25 1001.28,1042.81 C1003.36,1044.37 1004.4,1046.62 1004.4,1049.55 C1004.4,1054.04 1002.08,1058.23 997.425,1062.14 C992.774,1066.05 987.777,1068 982.433,1068 C979.308,1068 976.672,1067.19 974.527,1065.56 C972.506,1063.8 971.495,1061.59 971.495,1058.92 C971.495,1054.56 973.808,1050.39 978.433,1046.42 C983.058,1042.45 988.068,1040.47 993.464,1040.47"/>
<path class="Clef" d="M203.623,1148.86 L203.623,1146.72 C203.56,1145.61 203.399,1143.89 203.139,1141.55 C199.889,1142.07 196.993,1142.33 194.451,1142.33 C185.337,1142.33 177.605,1138.73 171.256,1131.53 C164.907,1124.33 161.732,1115.75 161.732,1105.8 C161.732,1103.13 162.253,1099.92 163.295,1096.18 C164.337,1092.43 165.297,1089.93 166.178,1088.65 C167.058,1087.38 168.378,1085.15 170.139,1081.97 C170.659,1080.99 172.352,1078.84 175.217,1075.51 C175.738,1074.81 176.193,1074.22 176.584,1073.76 C176.975,1073.31 177.607,1072.49 178.482,1071.32 C179.357,1070.15 180.3,1069.06 181.31,1068.05 C182.321,1067.04 183.217,1066.06 183.998,1065.12 C184.779,1064.17 185.498,1063.38 186.154,1062.73 C183.81,1054.98 182.378,1049.02 181.857,1044.86 C181.337,1040.69 181.076,1035.58 181.076,1029.52 C181.076,1023.46 182.378,1017.96 184.982,1013.01 C187.514,1007.88 191.06,1003.68 195.623,1000.42 C195.883,1000.22 196.225,1000.12 196.646,1000.12 C197.068,1000.12 197.378,1000.22 197.576,1000.42 C201.087,1004.65 204.128,1010.15 206.701,1016.92 C209.274,1023.69 210.56,1030.02 210.56,1035.92 C210.56,1041.82 209.066,1047.5 206.076,1052.97 C202.691,1058.76 198.326,1064.75 192.982,1070.94 C194.347,1075.23 196.17,1081.96 198.451,1091.14 L199.045,1091.14 C199.305,1091.08 199.529,1091.05 199.717,1091.05 C207.081,1091.05 213.089,1093.63 217.74,1098.81 C222.391,1103.99 224.717,1109.96 224.717,1116.73 C224.717,1125.13 221.238,1131.9 214.279,1137.05 C212.258,1138.55 209.878,1139.72 207.139,1140.56 C207.472,1144.79 207.639,1147.61 207.639,1149.01 C207.639,1150.41 207.571,1152.9 207.435,1156.48 C207.373,1162.6 205.29,1167.84 201.185,1172.2 C197.081,1176.57 192.394,1178.75 187.123,1178.75 C181.852,1178.75 177.36,1176.88 173.646,1173.13 C169.933,1169.39 168.076,1164.85 168.076,1159.51 C168.076,1156.71 169.154,1154.33 171.31,1152.37 C173.519,1150.43 176.006,1149.45 178.771,1149.45 C181.537,1149.45 183.8,1150.46 185.56,1152.48 C187.383,1154.37 188.295,1156.64 188.295,1159.31 C188.295,1161.98 187.383,1164.22 185.56,1166.05 C183.738,1167.87 181.555,1168.78 179.014,1168.78 C177.972,1168.78 176.967,1168.59 175.998,1168.2 C178.863,1172.43 182.54,1174.55 187.029,1174.55 C191.519,1174.55 195.36,1172.69 198.553,1168.98 C201.745,1165.27 203.342,1160.91 203.342,1155.89 L203.623,1148.86 M206.748,1136.56 C210.133,1135.32 212.821,1133.12 214.81,1129.97 C216.8,1126.81 217.795,1123.67 217.795,1120.55 C217.795,1115.92 216.199,1111.79 213.006,1108.14 C209.813,1104.49 205.774,1102.44 200.889,1101.98 C203.691,1115.72 205.644,1127.25 206.748,1136.56 M168.967,1114 C168.967,1120.45 171.537,1126.08 176.678,1130.9 C181.818,1135.71 187.842,1138.12 194.748,1138.12 C197.477,1138.12 200.144,1137.93 202.748,1137.53 C201.706,1127.63 199.654,1115.79 196.592,1101.98 C192.758,1102.38 189.782,1103.7 187.662,1105.94 C185.542,1108.19 184.482,1110.74 184.482,1113.61 C184.482,1118.56 187.123,1122.56 192.404,1125.62 C192.852,1125.88 193.076,1126.32 193.076,1126.94 C193.076,1127.56 192.865,1128.1 192.443,1128.55 C192.021,1129.01 191.649,1129.23 191.326,1129.23 C191.003,1129.23 190.581,1129.17 190.06,1129.05 C182.435,1124.88 178.623,1118.59 178.623,1110.19 C178.623,1106.22 180.024,1102.41 182.826,1098.76 C185.753,1095.12 189.56,1092.77 194.248,1091.73 C192.425,1084.44 190.93,1078.74 189.764,1074.64 C180.847,1084.67 175.31,1092.09 173.154,1096.9 C170.363,1103.15 168.967,1108.85 168.967,1114 M201.576,1014.69 C196.691,1017.09 192.834,1020.57 190.006,1025.13 C187.178,1029.69 185.764,1034.47 185.764,1039.48 C185.764,1044.49 186.935,1050.97 189.279,1058.92 C193.967,1053.25 197.514,1047.95 199.92,1043 C202.326,1038.05 203.529,1033.15 203.529,1028.3 C203.529,1023.45 202.878,1018.92 201.576,1014.69"/>
<path class="Clef" d="M203.623,1623.86 L203.623,1621.72 C203.56,1620.61 203.399,1618.89 203.139,1616.55 C199.889,1617.07 196.993,1617.33 194.451,1617.33 C185.337,1617.33 177.605,1613.73 171.256,1606.53 C164.907,1599.33 161.732,1590.75 161.732,1580.8 C161.732,1578.13 162.253,1574.92 163.295,1571.18 C164.337,1567.43 165.297,1564.93 166.178,1563.66 C167.058,1562.38 168.378,1560.16 170.139,1556.97 C170.659,1555.99 172.352,1553.84 175.217,1550.51 C175.738,1549.81 176.193,1549.22 176.584,1548.76 C176.975,1548.31 177.607,1547.49 178.482,1546.32 C179.357,1545.15 180.3,1544.06 181.31,1543.05 C182.321,1542.04 183.217,1541.06 183.998,1540.12 C184.779,1539.17 185.498,1538.38 186.154,1537.73 C183.81,1529.98 182.378,1524.02 181.857,1519.86 C181.337,1515.69 181.076,1510.58 181.076,1504.52 C181.076,1498.47 182.378,1492.96 184.982,1488.01 C187.514,1482.88 191.06,1478.68 195.623,1475.42 C195.883,1475.22 196.225,1475.12 196.646,1475.12 C197.068,1475.12 197.378,1475.22 197.576,1475.42 C201.087,1479.65 204.128,1485.15 206.701,1491.92 C209.274,1498.69 210.56,1505.02 210.56,1510.92 C210.56,1516.82 209.066,1522.5 206.076,1527.97 C202.691,1533.76 198.326,1539.75 192.982,1545.94 C194.347,1550.23 196.17,1556.96 198.451,1566.14 L199.045,1566.14 C199.305,1566.08 199.529,1566.05 199.717,1566.05 C207.081,1566.05 213.089,1568.63 217.74,1573.81 C222.391,1578.99 224.717,1584.96 224.717,1591.73 C224.717,1600.13 221.238,1606.9 214.279,1612.05 C212.258,1613.55 209.878,1614.72 207.139,1615.56 C207.472,1619.79 207.639,1622.61 207.639,1624.01 C207.639,1625.41 207.571,1627.9 207.435,1631.48 C207.373,1637.6 205.29,1642.84 201.185,1647.2 C197.081,1651.57 192.394,1653.75 187.123,1653.75 C181.852,1653.75 177.36,1651.88 173.646,1648.13 C169.933,1644.39 168.076,1639.85 168.076,1634.51 C168.076,1631.71 169.154,1629.33 171.31,1627.37 C173.519,1625.43 176.006,1624.45 178.771,1624.45 C181.537,1624.45 183.8,1625.46 185.56,1627.48 C187.383,1629.37 188.295,1631.64 188.295,1634.31 C188.295,1636.98 187.383,1639.22 185.56,1641.05 C183.738,1642.87 181.555,1643.78 179.014,1643.78 C177.972,1643.78 176.967,1643.59 175.998,1643.2 C178.863,1647.43 182.54,1649.55 187.029,1649.55 C191.519,1649.55 195.36,1647.69 198.553,1643.98 C201.745,1640.27 203.342,1635.91 203.342,1630.89 L203.623,1623.86 M206.748,1611.56 C210.133,1610.32 212.821,1608.12 214.81,1604.97 C216.8,1601.81 217.795,1598.67 217.795,1595.55 C217.795,1590.92 216.199,1586.79 213.006,1583.14 C209.813,1579.49 205.774,1577.44 200.889,1576.98 C203.691,1590.72 205.644,1602.25 206.748,1611.56 M168.967,1589 C168.967,1595.45 171.537,1601.08 176.678,1605.9 C181.818,1610.72 187.842,1613.12 194.748,1613.12 C197.477,1613.12 200.144,1612.93 202.748,1612.53 C201.706,1602.63 199.654,1590.79 196.592,1576.98 C192.758,1577.38 189.782,1578.7 187.662,1580.94 C185.542,1583.19 184.482,1585.74 184.482,1588.61 C184.482,1593.56 187.123,1597.56 192.404,1600.62 C192.852,1600.88 193.076,1601.32 193.076,1601.94 C193.076,1602.56 192.865,1603.1 192.443,1603.55 C192.021,1604.01 191.649,1604.23 191.326,1604.23 C191.003,1604.23 190.581,1604.17 190.06,1604.05 C182.435,1599.88 178.623,1593.59 178.623,1585.19 C178.623,1581.22 180.024,1577.41 182.826,1573.76 C185.753,1570.12 189.56,1567.77 194.248,1566.73 C192.425,1559.44 190.93,1553.74 189.764,1549.64 C180.847,1559.67 175.31,1567.09 173.154,1571.91 C170.363,1578.16 168.967,1583.85 168.967,1589 M201.576,1489.69 C196.691,1492.09 192.834,1495.57 190.006,1500.13 C187.178,1504.69 185.764,1509.47 185.764,1514.48 C185.764,1519.49 186.935,1525.97 189.279,1533.92 C193.967,1528.25 197.514,1522.95 199.92,1518 C202.326,1513.05 203.529,1508.15 203.529,1503.3 C203.529,1498.45 202.878,1493.92 201.576,1489.69"/>
<path class="Clef" d="M203.623,673.858 L203.623,671.717 C203.56,670.613 203.399,668.889 203.139,666.545 C199.889,667.066 196.993,667.326 194.451,667.326 C185.337,667.326 177.605,663.727 171.256,656.53 C164.907,649.332 161.732,640.754 161.732,630.795 C161.732,628.129 162.253,624.923 163.295,621.178 C164.337,617.433 165.297,614.925 166.178,613.655 C167.058,612.384 168.378,610.155 170.139,606.967 C170.659,605.988 172.352,603.837 175.217,600.514 C175.738,599.806 176.193,599.222 176.584,598.764 C176.975,598.306 177.607,597.49 178.482,596.319 C179.357,595.147 180.3,594.056 181.31,593.045 C182.321,592.035 183.217,591.058 183.998,590.115 C184.779,589.173 185.498,588.379 186.154,587.733 C183.81,579.983 182.378,574.024 181.857,569.858 C181.337,565.691 181.076,560.579 181.076,554.522 C181.076,548.464 182.378,542.962 184.982,538.014 C187.514,532.879 191.06,528.681 195.623,525.42 C195.883,525.222 196.225,525.123 196.646,525.123 C197.068,525.123 197.378,525.222 197.576,525.42 C201.087,529.649 204.128,535.149 206.701,541.92 C209.274,548.691 210.56,555.024 210.56,560.92 C210.56,566.816 209.066,572.498 206.076,577.967 C202.691,583.759 198.326,589.748 192.982,595.936 C194.347,600.227 196.17,606.962 198.451,616.139 L199.045,616.139 C199.305,616.076 199.529,616.045 199.717,616.045 C207.081,616.045 213.089,618.634 217.74,623.811 C222.391,628.988 224.717,634.962 224.717,641.733 C224.717,650.129 221.238,656.899 214.279,662.045 C212.258,663.545 209.878,664.717 207.139,665.561 C207.472,669.79 207.639,672.605 207.639,674.006 C207.639,675.407 207.571,677.899 207.435,681.483 C207.373,687.597 205.29,692.837 201.185,697.201 C197.081,701.566 192.394,703.748 187.123,703.748 C181.852,703.748 177.36,701.876 173.646,698.131 C169.933,694.386 168.076,689.847 168.076,684.514 C168.076,681.712 169.154,679.332 171.31,677.373 C173.519,675.425 176.006,674.451 178.771,674.451 C181.537,674.451 183.8,675.462 185.56,677.483 C187.383,679.368 188.295,681.644 188.295,684.311 C188.295,686.977 187.383,689.222 185.56,691.045 C183.738,692.868 181.555,693.78 179.014,693.78 C177.972,693.78 176.967,693.587 175.998,693.201 C178.863,697.431 182.54,699.545 187.029,699.545 C191.519,699.545 195.36,697.691 198.553,693.983 C201.745,690.274 203.342,685.91 203.342,680.889 L203.623,673.858 M206.748,661.561 C210.133,660.321 212.821,658.123 214.81,654.967 C216.8,651.811 217.795,648.67 217.795,645.545 C217.795,640.92 216.199,636.785 213.006,633.139 C209.813,629.493 205.774,627.441 200.889,626.983 C203.691,640.722 205.644,652.248 206.748,661.561 M168.967,638.998 C168.967,645.446 171.537,651.079 176.678,655.897 C181.818,660.714 187.842,663.123 194.748,663.123 C197.477,663.123 200.144,662.925 202.748,662.53 C201.706,652.634 199.654,640.785 196.592,626.983 C192.758,627.379 189.782,628.699 187.662,630.944 C185.542,633.188 184.482,635.743 184.482,638.608 C184.482,643.556 187.123,647.561 192.404,650.623 C192.852,650.884 193.076,651.324 193.076,651.944 C193.076,652.563 192.865,653.1 192.443,653.553 C192.021,654.006 191.649,654.233 191.326,654.233 C191.003,654.233 190.581,654.17 190.06,654.045 C182.435,649.879 178.623,643.592 178.623,635.186 C178.623,631.217 180.024,627.41 182.826,623.764 C185.753,620.118 189.56,617.774 194.248,616.733 C192.425,609.441 190.93,603.743 189.764,599.639 C180.847,609.67 175.31,617.092 173.154,621.905 C170.363,628.155 168.967,633.852 168.967,638.998 M201.576,539.686 C196.691,542.092 192.834,545.574 190.006,550.131 C187.178,554.688 185.764,559.472 185.764,564.483 C185.764,569.493 186.935,575.972 189.279,583.92 C193.967,578.254 197.514,572.946 199.92,567.998 C202.326,563.05 203.529,558.152 203.529,553.303 C203.529,548.454 202.878,543.915 201.576,539.686"/>
<path class="TimeSig" d="M273.021,567.912 C274.516,567.912 275.949,567.686 277.318,567.233 C278.688,566.78 279.665,566.553 280.248,566.553 C280.831,566.553 281.222,566.907 281.42,567.615 C281.42,567.688 281.352,567.886 281.217,568.209 L252.811,601.225 L269.498,601.225 L269.498,588.131 C269.498,586.506 270.446,585.334 272.342,584.615 C274.29,583.897 276.503,581.001 278.982,575.928 C279.17,575.532 279.462,575.334 279.857,575.334 C280.639,575.334 281.092,575.793 281.217,576.709 L281.217,601.225 L288.357,601.225 C289.264,601.225 289.751,601.712 289.818,602.686 C289.886,603.66 289.399,604.147 288.357,604.147 L281.217,604.147 L281.217,604.928 C281.217,607.532 281.868,609.746 283.17,611.569 C284.67,613.391 286.43,614.303 288.451,614.303 C289.232,614.303 289.623,614.694 289.623,615.475 C289.623,616.256 289.087,616.647 288.014,616.647 C286.941,616.647 284.938,616.436 282.006,616.014 C279.074,615.592 276.811,615.381 275.217,615.381 C273.623,615.381 271.41,615.592 268.576,616.014 C265.743,616.436 263.613,616.647 262.186,616.647 C261.404,616.647 261.014,616.256 261.014,615.475 C261.014,614.694 261.404,614.303 262.186,614.303 C264.196,614.303 265.951,613.391 267.451,611.569 C268.816,609.683 269.498,607.47 269.498,604.928 L269.498,604.147 L252.811,604.147 C251.956,604.147 251.219,603.92 250.6,603.467 C249.98,603.014 249.67,602.592 249.67,602.201 C249.67,601.811 250.485,600.639 252.115,598.686 C253.745,596.733 256.074,592.972 259.1,587.405 C262.126,581.837 263.639,575.438 263.639,568.209 C263.639,567.168 264.097,566.647 265.014,566.647 C265.212,566.647 265.521,566.712 265.943,566.842 C266.365,566.972 267.277,567.183 268.678,567.475 C270.079,567.766 271.527,567.912 273.021,567.912"/>
<path class="TimeSig" d="M273.021,618.084 C274.516,618.084 275.949,617.858 277.318,617.405 C278.688,616.951 279.665,616.725 280.248,616.725 C280.831,616.725 281.222,617.079 281.42,617.787 C281.42,617.86 281.352,618.058 281.217,618.381 L252.811,651.397 L269.498,651.397 L269.498,638.303 C269.498,636.678 270.446,635.506 272.342,634.787 C274.29,634.069 276.503,631.173 278.982,626.1 C279.17,625.704 279.462,625.506 279.857,625.506 C280.639,625.506 281.092,625.964 281.217,626.881 L281.217,651.397 L288.357,651.397 C289.264,651.397 289.751,651.884 289.818,652.858 C289.886,653.832 289.399,654.319 288.357,654.319 L281.217,654.319 L281.217,655.1 C281.217,657.704 281.868,659.918 283.17,661.74 C284.67,663.563 286.43,664.475 288.451,664.475 C289.232,664.475 289.623,664.865 289.623,665.647 C289.623,666.428 289.087,666.819 288.014,666.819 C286.941,666.819 284.938,666.608 282.006,666.186 C279.074,665.764 276.811,665.553 275.217,665.553 C273.623,665.553 271.41,665.764 268.576,666.186 C265.743,666.608 263.613,666.819 262.186,666.819 C261.404,666.819 261.014,666.428 261.014,665.647 C261.014,664.865 261.404,664.475 262.186,664.475 C264.196,664.475 265.951,663.563 267.451,661.74 C268.816,659.855 269.498,657.642 269.498,655.1 L269.498,654.319 L252.811,654.319 C251.956,654.319 251.219,654.092 250.6,653.639 C249.98,653.186 249.67,652.764 249.67,652.373 C249.67,651.983 250.485,650.811 252.115,648.858 C253.745,646.905 256.074,643.144 259.1,637.576 C262.126,632.009 263.639,625.61 263.639,618.381 C263.639,617.339 264.097,616.819 265.014,616.819 C265.212,616.819 265.521,616.884 265.943,617.014 C266.365,617.144 267.277,617.355 268.678,617.647 C270.079,617.938 271.527,618.084 273.021,618.084"/>
<path class="Page" d="M1390.23,3976.58 C1390.23,3977.27 1390.15,3977.93 1389.99,3978.56 C1389.83,3979.19 1389.52,3979.86 1389.05,3980.57 C1388.58,3981.29 1387.96,3981.9 1387.19,3982.41 C1386.42,3982.92 1385.36,3983.35 1384.03,3983.69 C1382.7,3984.04 1381.15,3984.21 1379.39,3984.21 C1378.59,3984.21 1377.67,3984.17 1376.63,3984.08 L1376.63,3991.41 C1376.63,3992.89 1376.86,3993.85 1377.33,3994.29 C1377.8,3994.74 1378.82,3994.98 1380.39,3995.04 L1380.39,3995.8 L1369.19,3995.8 L1369.19,3995.04 C1370.71,3994.91 1371.65,3994.63 1372.01,3994.18 C1372.37,3993.74 1372.55,3992.68 1372.55,3991 L1372.55,3973.69 C1372.55,3972.24 1372.36,3971.32 1371.99,3970.93 C1371.62,3970.53 1370.69,3970.25 1369.19,3970.08 L1369.19,3969.33 L1379.75,3969.33 C1380.95,3969.33 1382.11,3969.44 1383.23,3969.67 C1384.35,3969.89 1385.46,3970.26 1386.57,3970.77 C1387.68,3971.28 1388.57,3972.03 1389.23,3973.02 C1389.9,3974.01 1390.23,3975.2 1390.23,3976.58 M1376.63,3972.21 L1376.63,3982.57 C1377.56,3982.64 1378.32,3982.68 1378.91,3982.68 C1383.55,3982.68 1385.88,3980.72 1385.88,3976.82 C1385.88,3974.78 1385.23,3973.27 1383.95,3972.3 C1382.67,3971.33 1380.68,3970.85 1377.98,3970.85 C1377.45,3970.85 1377.09,3970.94 1376.91,3971.13 C1376.72,3971.32 1376.63,3971.68 1376.63,3972.21 M1410.83,3993.72 L1410.83,3994.29 C1408.74,3994.87 1406.92,3995.49 1405.34,3996.16 L1405.19,3996.08 L1405.19,3992.69 C1405.1,3992.76 1404.87,3993 1404.48,3993.4 C1404.1,3993.8 1403.83,3994.08 1403.66,3994.23 C1403.5,3994.38 1403.23,3994.62 1402.84,3994.93 C1402.46,3995.25 1402.12,3995.48 1401.83,3995.62 C1401.54,3995.76 1401.16,3995.9 1400.71,3996.02 C1400.26,3996.15 1399.8,3996.21 1399.34,3996.21 C1397.88,3996.21 1396.7,3995.73 1395.82,3994.77 C1394.94,3993.81 1394.5,3992.54 1394.5,3990.94 L1394.5,3980.91 C1394.5,3979.98 1394.33,3979.34 1393.98,3978.98 C1393.64,3978.62 1392.99,3978.42 1392.03,3978.36 L1392.03,3977.8 L1397.86,3977.8 L1397.86,3990.77 C1397.86,3991.59 1398.14,3992.3 1398.7,3992.9 C1399.27,3993.5 1399.93,3993.8 1400.7,3993.8 C1400.99,3993.8 1401.34,3993.76 1401.74,3993.68 C1402.14,3993.61 1402.6,3993.45 1403.13,3993.22 C1403.65,3992.99 1404.09,3992.63 1404.45,3992.15 C1404.8,3991.66 1404.98,3991.05 1404.98,3990.33 L1404.98,3980.99 C1404.98,3980.01 1404.8,3979.36 1404.45,3979.04 C1404.09,3978.73 1403.28,3978.54 1402.02,3978.49 L1402.02,3977.8 L1408.34,3977.8 L1408.34,3991.46 C1408.34,3992.38 1408.49,3992.99 1408.78,3993.29 C1409.07,3993.58 1409.69,3993.72 1410.63,3993.72 L1410.83,3993.72 M1417.03,3968.57 L1417.03,3980.69 C1417.43,3979.74 1418.15,3978.96 1419.19,3978.34 C1420.23,3977.72 1421.36,3977.41 1422.58,3977.41 C1424.58,3977.41 1426.25,3978.24 1427.6,3979.9 C1428.95,3981.55 1429.63,3983.6 1429.63,3986.05 C1429.63,3988.91 1428.72,3991.31 1426.92,3993.27 C1425.12,3995.23 1422.9,3996.21 1420.27,3996.21 C1418.66,3996.21 1417.16,3995.94 1415.77,3995.4 C1414.37,3994.87 1413.67,3994.3 1413.67,3993.71 L1413.67,3972.88 C1413.67,3972.06 1413.54,3971.51 1413.29,3971.25 C1413.03,3970.98 1412.51,3970.85 1411.7,3970.85 C1411.41,3970.85 1411.19,3970.86 1411.03,3970.88 L1411.03,3970.24 C1413.08,3969.74 1415.02,3969.16 1416.83,3968.49 L1417.03,3968.57 M1417.03,3982.85 L1417.03,3993.05 C1417.03,3993.57 1417.42,3994.03 1418.19,3994.42 C1418.96,3994.81 1419.86,3995 1420.91,3995 C1422.56,3995 1423.84,3994.38 1424.75,3993.14 C1425.66,3991.89 1426.11,3990.15 1426.11,3987.91 C1426.11,3985.45 1425.65,3983.49 1424.73,3982.01 C1423.8,3980.54 1422.56,3979.8 1420.98,3979.8 C1419.94,3979.8 1419.02,3980.11 1418.23,3980.73 C1417.43,3981.35 1417.03,3982.06 1417.03,3982.85 M1430.61,3970.88 L1430.61,3970.24 C1433.24,3969.6 1435.36,3969.02 1436.97,3968.49 L1437.13,3968.57 L1437.13,3992.44 C1437.13,3993.54 1437.3,3994.25 1437.66,3994.58 C1438.02,3994.92 1438.84,3995.12 1440.13,3995.21 L1440.13,3995.8 L1430.69,3995.8 L1430.69,3995.21 C1431.94,3995.09 1432.76,3994.85 1433.16,3994.48 C1433.57,3994.11 1433.77,3993.39 1433.77,3992.32 L1433.77,3973.24 C1433.77,3972.31 1433.65,3971.67 1433.41,3971.32 C1433.17,3970.98 1432.72,3970.8 1432.08,3970.8 C1431.55,3970.8 1431.06,3970.83 1430.61,3970.88 M1443,3980.08 C1442.41,3980.08 1441.84,3980.12 1441.31,3980.21 L1441.31,3979.6 C1443.18,3979.07 1445.24,3978.34 1447.52,3977.41 L1447.67,3977.52 L1447.67,3991.72 C1447.67,3993.16 1447.84,3994.07 1448.17,3994.46 C1448.51,3994.84 1449.33,3995.09 1450.64,3995.21 L1450.64,3995.8 L1441.16,3995.8 L1441.16,3995.21 C1442.54,3995.12 1443.41,3994.88 1443.77,3994.48 C1444.13,3994.08 1444.31,3993.16 1444.31,3991.72 L1444.31,3982.44 C1444.31,3981.57 1444.21,3980.96 1444.02,3980.61 C1443.82,3980.26 1443.48,3980.08 1443,3980.08 M1445.64,3968.49 C1446.22,3968.49 1446.72,3968.69 1447.12,3969.09 C1447.52,3969.49 1447.72,3969.97 1447.72,3970.52 C1447.72,3971.11 1447.52,3971.6 1447.12,3971.99 C1446.72,3972.37 1446.22,3972.57 1445.64,3972.57 C1445.08,3972.57 1444.6,3972.37 1444.22,3971.97 C1443.83,3971.56 1443.64,3971.09 1443.64,3970.53 C1443.64,3969.97 1443.84,3969.49 1444.23,3969.09 C1444.63,3968.69 1445.1,3968.49 1445.64,3968.49 M1451.83,3987.27 C1451.83,3984.31 1452.7,3981.93 1454.45,3980.12 C1456.19,3978.31 1458.24,3977.41 1460.59,3977.41 C1462.27,3977.41 1463.72,3977.82 1464.93,3978.63 C1466.14,3979.44 1466.75,3980.41 1466.75,3981.52 C1466.75,3981.98 1466.56,3982.37 1466.19,3982.71 C1465.81,3983.04 1465.36,3983.21 1464.83,3983.21 C1463.92,3983.21 1463.3,3982.6 1462.95,3981.38 L1462.7,3980.5 C1462.49,3979.76 1462.23,3979.26 1461.91,3979 C1461.58,3978.73 1461.06,3978.6 1460.34,3978.6 C1458.72,3978.6 1457.41,3979.24 1456.41,3980.53 C1455.41,3981.81 1454.91,3983.48 1454.91,3985.52 C1454.91,3987.8 1455.49,3989.67 1456.65,3991.11 C1457.81,3992.56 1459.3,3993.29 1461.11,3993.29 C1462.26,3993.29 1463.24,3993.01 1464.07,3992.45 C1464.9,3991.89 1465.79,3990.92 1466.75,3989.54 L1467.31,3989.9 C1467.04,3990.44 1466.81,3990.88 1466.61,3991.22 C1466.41,3991.57 1466.05,3992.09 1465.53,3992.79 C1465.01,3993.48 1464.49,3994.05 1463.98,3994.47 C1463.47,3994.9 1462.81,3995.3 1461.98,3995.66 C1461.16,3996.03 1460.31,3996.21 1459.42,3996.21 C1457.21,3996.21 1455.4,3995.37 1453.97,3993.7 C1452.54,3992.03 1451.83,3989.88 1451.83,3987.27 M1505.92,3982.44 C1505.92,3983.64 1505.79,3984.81 1505.52,3985.96 C1505.26,3987.1 1504.76,3988.29 1504.04,3989.52 C1503.32,3990.75 1502.39,3991.81 1501.27,3992.7 C1500.15,3993.59 1498.67,3994.33 1496.82,3994.92 C1494.97,3995.51 1492.87,3995.8 1490.52,3995.8 L1479.16,3995.8 L1479.16,3995.04 C1480.68,3994.93 1481.65,3994.67 1482.06,3994.24 C1482.48,3993.81 1482.69,3992.88 1482.69,3991.44 L1482.69,3973.69 C1482.69,3972.22 1482.49,3971.29 1482.1,3970.9 C1481.71,3970.5 1480.73,3970.23 1479.16,3970.08 L1479.16,3969.33 L1489.95,3969.33 C1492.38,3969.33 1494.55,3969.61 1496.45,3970.15 C1498.36,3970.7 1499.89,3971.41 1501.05,3972.27 C1502.22,3973.13 1503.18,3974.16 1503.94,3975.35 C1504.7,3976.54 1505.22,3977.7 1505.5,3978.85 C1505.78,3979.99 1505.92,3981.19 1505.92,3982.44 M1501.56,3982.72 C1501.56,3981.58 1501.45,3980.48 1501.22,3979.43 C1500.99,3978.39 1500.58,3977.32 1500,3976.25 C1499.42,3975.17 1498.66,3974.24 1497.72,3973.47 C1496.78,3972.7 1495.55,3972.07 1494.04,3971.58 C1492.52,3971.09 1490.79,3970.85 1488.84,3970.85 C1488.01,3970.85 1487.46,3970.96 1487.18,3971.17 C1486.9,3971.38 1486.77,3971.79 1486.77,3972.4 L1486.77,3992.65 C1486.77,3993.28 1486.91,3993.71 1487.2,3993.94 C1487.49,3994.17 1488.04,3994.29 1488.84,3994.29 C1497.32,3994.29 1501.56,3990.43 1501.56,3982.72 M1517.16,3977.41 C1519.71,3977.41 1521.81,3978.26 1523.47,3979.97 C1525.13,3981.67 1525.95,3983.83 1525.95,3986.44 C1525.95,3989.21 1525.1,3991.53 1523.39,3993.4 C1521.68,3995.27 1519.58,3996.21 1517.07,3996.21 C1514.57,3996.21 1512.48,3995.31 1510.81,3993.5 C1509.15,3991.7 1508.31,3989.46 1508.31,3986.77 C1508.31,3984.02 1509.13,3981.77 1510.77,3980.03 C1512.41,3978.28 1514.54,3977.41 1517.16,3977.41 M1511.91,3984.82 C1511.91,3987.65 1512.43,3990.06 1513.47,3992.04 C1514.51,3994.01 1515.87,3995 1517.55,3995 C1519.05,3995 1520.22,3994.37 1521.07,3993.1 C1521.92,3991.83 1522.34,3990.07 1522.34,3987.83 C1522.34,3985.11 1521.81,3982.9 1520.75,3981.18 C1519.69,3979.46 1518.31,3978.6 1516.63,3978.6 C1515.22,3978.6 1514.08,3979.17 1513.21,3980.3 C1512.34,3981.44 1511.91,3982.94 1511.91,3984.82 M1527.05,3979.96 L1527.05,3979.29 C1528.97,3978.72 1530.84,3978.1 1532.66,3977.41 L1532.94,3977.49 L1532.94,3980.57 C1534.58,3979.28 1535.81,3978.43 1536.61,3978.02 C1537.41,3977.61 1538.25,3977.41 1539.13,3977.41 C1541.23,3977.41 1542.65,3978.55 1543.38,3980.83 C1545.45,3978.55 1547.62,3977.41 1549.89,3977.41 C1552.98,3977.41 1554.53,3979.8 1554.53,3984.58 L1554.53,3992.77 C1554.53,3994.26 1555.1,3995.05 1556.25,3995.13 L1557.28,3995.21 L1557.28,3995.8 L1548.53,3995.8 L1548.53,3995.21 C1549.7,3995.07 1550.43,3994.85 1550.73,3994.53 C1551.02,3994.21 1551.17,3993.48 1551.17,3992.33 L1551.17,3983.94 C1551.17,3982.3 1550.96,3981.16 1550.53,3980.52 C1550.1,3979.88 1549.32,3979.57 1548.17,3979.57 C1546.41,3979.57 1544.96,3980.37 1543.81,3981.99 L1543.81,3992.02 C1543.81,3993.27 1544.01,3994.11 1544.39,3994.53 C1544.78,3994.95 1545.54,3995.18 1546.69,3995.21 L1546.69,3995.8 L1537.73,3995.8 L1537.73,3995.21 C1538.88,3995.12 1539.62,3994.91 1539.95,3994.57 C1540.29,3994.22 1540.45,3993.49 1540.45,3992.38 L1540.45,3983.74 C1540.45,3980.96 1539.57,3979.57 1537.81,3979.57 C1537.06,3979.57 1536.23,3979.75 1535.31,3980.12 C1534.4,3980.49 1533.66,3981.09 1533.09,3981.91 L1533.09,3993.13 C1533.09,3993.9 1533.28,3994.43 1533.65,3994.71 C1534.02,3994.99 1534.74,3995.16 1535.81,3995.21 L1535.81,3995.8 L1526.94,3995.8 L1526.94,3995.21 C1528.05,3995.18 1528.8,3994.98 1529.17,3994.61 C1529.55,3994.24 1529.73,3993.5 1529.73,3992.41 L1529.73,3982.35 C1529.73,3981.39 1529.63,3980.73 1529.43,3980.36 C1529.23,3979.99 1528.86,3979.8 1528.33,3979.8 C1527.93,3979.8 1527.51,3979.85 1527.05,3979.96 M1558.48,3991.85 C1558.48,3991.37 1558.54,3990.92 1558.64,3990.51 C1558.74,3990.1 1558.93,3989.72 1559.2,3989.36 C1559.47,3989.01 1559.73,3988.69 1559.97,3988.4 C1560.21,3988.1 1560.57,3987.8 1561.05,3987.5 C1561.53,3987.19 1561.92,3986.94 1562.24,3986.74 C1562.56,3986.54 1563.05,3986.3 1563.7,3986.02 C1564.36,3985.74 1564.86,3985.53 1565.2,3985.38 C1565.55,3985.23 1566.09,3985.01 1566.84,3984.72 C1567.59,3984.43 1568.14,3984.22 1568.48,3984.1 L1568.48,3981.66 C1568.48,3979.46 1567.47,3978.36 1565.44,3978.36 C1564.65,3978.36 1563.97,3978.56 1563.41,3978.94 C1562.84,3979.33 1562.56,3979.79 1562.56,3980.32 C1562.56,3980.54 1562.6,3980.83 1562.66,3981.21 C1562.73,3981.58 1562.77,3981.82 1562.77,3981.93 C1562.77,3982.37 1562.59,3982.76 1562.23,3983.1 C1561.87,3983.43 1561.45,3983.6 1560.97,3983.6 C1560.51,3983.6 1560.11,3983.43 1559.77,3983.08 C1559.42,3982.74 1559.25,3982.34 1559.25,3981.88 C1559.25,3980.63 1559.9,3979.57 1561.19,3978.71 C1562.48,3977.84 1564.07,3977.41 1565.97,3977.41 C1568.16,3977.41 1569.66,3977.93 1570.48,3978.98 C1571.31,3980.03 1571.72,3981.62 1571.72,3983.77 L1571.72,3991.54 C1571.72,3992.41 1571.8,3993.01 1571.98,3993.35 C1572.15,3993.68 1572.46,3993.85 1572.92,3993.85 C1573.48,3993.85 1574.07,3993.59 1574.69,3993.08 L1574.69,3994.13 C1573.99,3994.93 1573.38,3995.48 1572.86,3995.77 C1572.34,3996.06 1571.74,3996.21 1571.08,3996.21 C1570.26,3996.21 1569.65,3995.97 1569.27,3995.5 C1568.88,3995.04 1568.63,3994.27 1568.52,3993.21 C1566.22,3995.21 1564.28,3996.21 1562.69,3996.21 C1561.46,3996.21 1560.45,3995.8 1559.66,3994.99 C1558.88,3994.18 1558.48,3993.13 1558.48,3991.85 M1568.48,3990.82 L1568.48,3985.05 C1566.09,3985.93 1564.41,3986.78 1563.45,3987.6 C1562.48,3988.42 1562,3989.42 1562,3990.58 C1562,3991.67 1562.27,3992.47 1562.8,3993 C1563.34,3993.54 1563.91,3993.8 1564.52,3993.8 C1565.43,3993.8 1566.41,3993.49 1567.44,3992.88 C1567.86,3992.65 1568.15,3992.4 1568.28,3992.14 C1568.42,3991.87 1568.48,3991.43 1568.48,3990.82 M1577.16,3980.08 C1576.56,3980.08 1576,3980.12 1575.47,3980.21 L1575.47,3979.6 C1577.33,3979.07 1579.4,3978.34 1581.67,3977.41 L1581.83,3977.52 L1581.83,3991.72 C1581.83,3993.16 1581.99,3994.07 1582.33,3994.46 C1582.66,3994.84 1583.48,3995.09 1584.8,3995.21 L1584.8,3995.8 L1575.31,3995.8 L1575.31,3995.21 C1576.7,3995.12 1577.57,3994.88 1577.93,3994.48 C1578.29,3994.08 1578.47,3993.16 1578.47,3991.72 L1578.47,3982.44 C1578.47,3981.57 1578.37,3980.96 1578.17,3980.61 C1577.97,3980.26 1577.64,3980.08 1577.16,3980.08 M1579.8,3968.49 C1580.38,3968.49 1580.87,3968.69 1581.27,3969.09 C1581.67,3969.49 1581.88,3969.97 1581.88,3970.52 C1581.88,3971.11 1581.67,3971.6 1581.27,3971.99 C1580.87,3972.37 1580.38,3972.57 1579.8,3972.57 C1579.23,3972.57 1578.76,3972.37 1578.38,3971.97 C1577.99,3971.56 1577.8,3971.09 1577.8,3970.53 C1577.8,3969.97 1577.99,3969.49 1578.39,3969.09 C1578.79,3968.69 1579.26,3968.49 1579.8,3968.49 M1585.78,3979.85 L1585.78,3979.16 C1587.75,3978.59 1589.59,3978 1591.3,3977.41 L1591.58,3977.49 L1591.58,3980.6 C1592.93,3979.34 1594,3978.49 1594.79,3978.06 C1595.58,3977.63 1596.44,3977.41 1597.38,3977.41 C1598.84,3977.41 1600,3977.93 1600.84,3978.98 C1601.67,3980.03 1602.09,3981.49 1602.09,3983.38 L1602.09,3992.55 C1602.09,3993.54 1602.25,3994.2 1602.57,3994.54 C1602.89,3994.87 1603.54,3995.09 1604.53,3995.21 L1604.53,3995.8 L1596.22,3995.8 L1596.22,3995.21 C1597.23,3995.12 1597.9,3994.86 1598.23,3994.4 C1598.57,3993.95 1598.73,3993.09 1598.73,3991.83 L1598.73,3983.46 C1598.73,3980.86 1597.76,3979.57 1595.81,3979.57 C1595.15,3979.57 1594.53,3979.72 1593.98,3980.03 C1593.42,3980.34 1592.66,3980.94 1591.69,3981.85 L1591.69,3993.11 C1591.69,3993.83 1591.88,3994.34 1592.25,3994.64 C1592.63,3994.93 1593.32,3995.12 1594.33,3995.21 L1594.33,3995.8 L1585.86,3995.8 L1585.86,3995.21 C1586.87,3995.12 1587.53,3994.89 1587.85,3994.5 C1588.17,3994.12 1588.33,3993.35 1588.33,3992.19 L1588.33,3982.25 C1588.33,3981.26 1588.22,3980.59 1588.01,3980.22 C1587.79,3979.86 1587.41,3979.68 1586.86,3979.68 C1586.35,3979.68 1585.99,3979.73 1585.78,3979.85"/>
</svg>
