<?xml version="1.0" encoding="UTF-8" standalone="no"?>
<svg width="2977.2px" height="4208.4px" viewBox="0 0 2977.2 4208.4"
 xmlns="http://www.w3.org/2000/svg" xmlns:xlink="http://www.w3.org/1999/xlink" version="1.2" baseProfile="tiny">
<title>Gbmaj_Scale.mscx</title>
<desc>Generated by MuseScore Studio 4.3.1</desc>
<path class="" fill="#ffffff" fill-rule="evenodd" d="M0,0 L2977.2,0 L2977.2,4208.4 L0,4208.4 L0,0 "/>
<polyline class="StaffLines" fill="none" stroke="#000000" stroke-width="2.00" stroke-linejoin="bevel" points="141.732,566.733 2835.47,566.733"/>
<polyline class="StaffLines" fill="none" stroke="#000000" stroke-width="2.00" stroke-linejoin="bevel" points="141.732,591.733 2835.47,591.733"/>
<polyline class="StaffLines" fill="none" stroke="#000000" stroke-width="2.00" stroke-linejoin="bevel" points="141.732,616.733 2835.47,616.733"/>
<polyline class="StaffLines" fill="none" stroke="#000000" stroke-width="2.00" stroke-linejoin="bevel" points="141.732,641.733 2835.47,641.733"/>
<polyline class="StaffLines" fill="none" stroke="#000000" stroke-width="2.00" stroke-linejoin="bevel" points="141.732,666.733 2835.47,666.733"/>
<polyline class="BarLine" fill="none" stroke="#000000" stroke-width="4.00" stroke-linejoin="bevel" points="1591.68,565.733 1591.68,667.733"/>
<polyline class="BarLine" fill="none" stroke="#000000" stroke-width="4.00" stroke-linejoin="bevel" points="2802.72,565.733 2802.72,667.733"/>
<polyline class="BarLine" fill="none" stroke="#000000" stroke-width="12.50" stroke-linejoin="bevel" points="2829.22,565.733 2829.22,667.733"/>
<polyline class="BarLine" fill="none" stroke="#000000" stroke-width="4.00" stroke-linejoin="bevel" points="2544.41,565.733 2544.41,667.733"/>
<polyline class="BarLine" fill="none" stroke="#000000" stroke-width="4.00" stroke-linejoin="bevel" points="1281.11,565.733 1281.11,667.733"/>
<polyline class="BarLine" fill="none" stroke="#000000" stroke-width="4.00" stroke-linejoin="bevel" points="1902.24,565.733 1902.24,667.733"/>
<polyline class="BarLine" fill="none" stroke="#000000" stroke-width="4.00" stroke-linejoin="bevel" points="960.034,565.733 960.034,667.733"/>
<polyline class="BarLine" fill="none" stroke="#000000" stroke-width="4.00" stroke-linejoin="bevel" points="638.954,565.733 638.954,667.733"/>
<polyline class="BarLine" fill="none" stroke="#000000" stroke-width="4.00" stroke-linejoin="bevel" points="2223.32,565.733 2223.32,667.733"/>
<path class="Accidental" d="M649.844,634.311 L648.579,572.201 C648.579,571.222 649.344,570.733 650.875,570.733 C652.407,570.733 653.172,571.222 653.172,572.201 L652.391,606.092 C654.151,604.332 655.664,603.11 656.93,602.428 C658.196,601.746 659.92,601.405 662.102,601.405 C664.284,601.405 666.303,602.412 668.157,604.428 C670.011,606.444 670.938,608.951 670.938,611.951 C670.938,616.441 666.219,622.66 656.782,630.608 C653.271,633.795 651.448,635.389 651.313,635.389 L650.735,635.389 C650.141,635.389 649.844,635.03 649.844,634.311 M652.297,609.217 L652,631.389 C654.021,629.493 656.073,626.347 658.157,621.951 C660.24,617.556 661.282,613.795 661.282,610.67 C661.282,609.108 661.021,607.675 660.5,606.373 C659.98,605.071 659.164,604.42 658.055,604.42 C656.946,604.42 655.951,604.811 655.071,605.592 C654.191,606.373 653.266,607.582 652.297,609.217"/>
<path class="Accidental" d="M1732.39,596.811 L1731.12,534.701 C1731.12,533.722 1731.89,533.233 1733.42,533.233 C1734.95,533.233 1735.71,533.722 1735.71,534.701 L1734.93,568.592 C1736.69,566.832 1738.21,565.61 1739.47,564.928 C1740.74,564.246 1742.46,563.905 1744.64,563.905 C1746.83,563.905 1748.84,564.912 1750.7,566.928 C1752.55,568.944 1753.48,571.451 1753.48,574.451 C1753.48,578.941 1748.76,585.16 1739.32,593.108 C1735.81,596.295 1733.99,597.889 1733.85,597.889 L1733.28,597.889 C1732.68,597.889 1732.39,597.53 1732.39,596.811 M1734.84,571.717 L1734.54,593.889 C1736.56,591.993 1738.61,588.847 1740.7,584.451 C1742.78,580.056 1743.82,576.295 1743.82,573.17 C1743.82,571.608 1743.56,570.175 1743.04,568.873 C1742.52,567.571 1741.71,566.92 1740.6,566.92 C1739.49,566.92 1738.49,567.311 1737.61,568.092 C1736.73,568.873 1735.81,570.082 1734.84,571.717"/>
<path class="Accidental" d="M2374.55,646.811 L2373.28,584.701 C2373.28,583.722 2374.05,583.233 2375.58,583.233 C2377.11,583.233 2377.87,583.722 2377.87,584.701 L2377.09,618.592 C2378.85,616.832 2380.37,615.61 2381.63,614.928 C2382.9,614.246 2384.62,613.905 2386.8,613.905 C2388.99,613.905 2391,614.912 2392.86,616.928 C2394.71,618.944 2395.64,621.451 2395.64,624.451 C2395.64,628.941 2390.92,635.16 2381.48,643.108 C2377.97,646.295 2376.15,647.889 2376.02,647.889 L2375.44,647.889 C2374.84,647.889 2374.55,647.53 2374.55,646.811 M2377,621.717 L2376.7,643.889 C2378.72,641.993 2380.78,638.847 2382.86,634.451 C2384.94,630.056 2385.98,626.295 2385.98,623.17 C2385.98,621.608 2385.72,620.175 2385.2,618.873 C2384.68,617.571 2383.87,616.92 2382.76,616.92 C2381.65,616.92 2380.65,617.311 2379.77,618.092 C2378.89,618.873 2377.97,620.082 2377,621.717"/>
<path class="Accidental" d="M1111.26,596.811 L1109.99,534.701 C1109.99,533.722 1110.76,533.233 1112.29,533.233 C1113.82,533.233 1114.58,533.722 1114.58,534.701 L1113.8,568.592 C1115.56,566.832 1117.08,565.61 1118.34,564.928 C1119.61,564.246 1121.33,563.905 1123.51,563.905 C1125.7,563.905 1127.71,564.912 1129.57,566.928 C1131.42,568.944 1132.35,571.451 1132.35,574.451 C1132.35,578.941 1127.63,585.16 1118.19,593.108 C1114.68,596.295 1112.86,597.889 1112.72,597.889 L1112.15,597.889 C1111.55,597.889 1111.26,597.53 1111.26,596.811 M1113.71,571.717 L1113.41,593.889 C1115.43,591.993 1117.49,588.847 1119.57,584.451 C1121.65,580.056 1122.69,576.295 1122.69,573.17 C1122.69,571.608 1122.43,570.175 1121.91,568.873 C1121.39,567.571 1120.58,566.92 1119.47,566.92 C1118.36,566.92 1117.36,567.311 1116.48,568.092 C1115.6,568.873 1114.68,570.082 1113.71,571.717"/>
<path class="Accidental" d="M328.764,659.311 L327.498,597.201 C327.498,596.222 328.264,595.733 329.795,595.733 C331.326,595.733 332.092,596.222 332.092,597.201 L331.311,631.092 C333.071,629.332 334.584,628.11 335.85,627.428 C337.115,626.746 338.839,626.405 341.022,626.405 C343.204,626.405 345.222,627.412 347.076,629.428 C348.93,631.444 349.857,633.951 349.857,636.951 C349.857,641.441 345.139,647.66 335.701,655.608 C332.191,658.795 330.368,660.389 330.232,660.389 L329.654,660.389 C329.061,660.389 328.764,660.03 328.764,659.311 M331.217,634.217 L330.92,656.389 C332.941,654.493 334.993,651.347 337.076,646.951 C339.16,642.556 340.201,638.795 340.201,635.67 C340.201,634.108 339.941,632.675 339.42,631.373 C338.899,630.071 338.084,629.42 336.975,629.42 C335.865,629.42 334.87,629.811 333.99,630.592 C333.11,631.373 332.186,632.582 331.217,634.217"/>
<path class="Accidental" d="M2555.3,659.311 L2554.03,597.201 C2554.03,596.222 2554.8,595.733 2556.33,595.733 C2557.86,595.733 2558.62,596.222 2558.62,597.201 L2557.84,631.092 C2559.6,629.332 2561.12,628.11 2562.38,627.428 C2563.65,626.746 2565.37,626.405 2567.55,626.405 C2569.74,626.405 2571.75,627.412 2573.61,629.428 C2575.46,631.444 2576.39,633.951 2576.39,636.951 C2576.39,641.441 2571.67,647.66 2562.23,655.608 C2558.72,658.795 2556.9,660.389 2556.76,660.389 L2556.19,660.389 C2555.59,660.389 2555.3,660.03 2555.3,659.311 M2557.75,634.217 L2557.45,656.389 C2559.47,654.493 2561.52,651.347 2563.61,646.951 C2565.69,642.556 2566.73,638.795 2566.73,635.67 C2566.73,634.108 2566.47,632.675 2565.95,631.373 C2565.43,630.071 2564.62,629.42 2563.51,629.42 C2562.4,629.42 2561.4,629.811 2560.52,630.592 C2559.64,631.373 2558.72,632.582 2557.75,634.217"/>
<path class="Accidental" d="M970.925,609.311 L969.659,547.201 C969.659,546.222 970.425,545.733 971.956,545.733 C973.487,545.733 974.253,546.222 974.253,547.201 L973.472,581.092 C975.232,579.332 976.745,578.11 978.011,577.428 C979.276,576.746 981,576.405 983.182,576.405 C985.365,576.405 987.383,577.412 989.237,579.428 C991.091,581.444 992.018,583.951 992.018,586.951 C992.018,591.441 987.3,597.66 977.862,605.608 C974.352,608.795 972.529,610.389 972.393,610.389 L971.815,610.389 C971.222,610.389 970.925,610.03 970.925,609.311 M973.378,584.217 L973.081,606.389 C975.102,604.493 977.154,601.347 979.237,596.951 C981.32,592.556 982.362,588.795 982.362,585.67 C982.362,584.108 982.102,582.675 981.581,581.373 C981.06,580.071 980.245,579.42 979.136,579.42 C978.026,579.42 977.031,579.811 976.151,580.592 C975.271,581.373 974.347,582.582 973.378,584.217"/>
<path class="Accidental" d="M1421.82,571.811 L1420.56,509.701 C1420.56,508.722 1421.32,508.233 1422.85,508.233 C1424.38,508.233 1425.15,508.722 1425.15,509.701 L1424.37,543.592 C1426.13,541.832 1427.64,540.61 1428.91,539.928 C1430.17,539.246 1431.9,538.904 1434.08,538.904 C1436.26,538.904 1438.28,539.912 1440.13,541.928 C1441.99,543.944 1442.91,546.451 1442.91,549.451 C1442.91,553.941 1438.2,560.16 1428.76,568.108 C1425.25,571.295 1423.42,572.889 1423.29,572.889 L1422.71,572.889 C1422.12,572.889 1421.82,572.529 1421.82,571.811 M1424.27,546.717 L1423.98,568.889 C1426,566.993 1428.05,563.847 1430.13,559.451 C1432.22,555.056 1433.26,551.295 1433.26,548.17 C1433.26,546.608 1433,545.175 1432.48,543.873 C1431.96,542.571 1431.14,541.92 1430.03,541.92 C1428.92,541.92 1427.93,542.311 1427.05,543.092 C1426.17,543.873 1425.24,545.082 1424.27,546.717"/>
<path class="Accidental" d="M1913.13,609.311 L1911.87,547.201 C1911.87,546.222 1912.63,545.733 1914.17,545.733 C1915.7,545.733 1916.46,546.222 1916.46,547.201 L1915.68,581.092 C1917.44,579.332 1918.96,578.11 1920.22,577.428 C1921.49,576.746 1923.21,576.405 1925.39,576.405 C1927.57,576.405 1929.59,577.412 1931.45,579.428 C1933.3,581.444 1934.23,583.951 1934.23,586.951 C1934.23,591.441 1929.51,597.66 1920.07,605.608 C1916.56,608.795 1914.74,610.389 1914.6,610.389 L1914.03,610.389 C1913.43,610.389 1913.13,610.03 1913.13,609.311 M1915.59,584.217 L1915.29,606.389 C1917.31,604.493 1919.36,601.347 1921.45,596.951 C1923.53,592.556 1924.57,588.795 1924.57,585.67 C1924.57,584.108 1924.31,582.675 1923.79,581.373 C1923.27,580.071 1922.46,579.42 1921.35,579.42 C1920.24,579.42 1919.24,579.811 1918.36,580.592 C1917.48,581.373 1916.56,582.582 1915.59,584.217"/>
<path class="Accidental" d="M2234.22,634.311 L2232.95,572.201 C2232.95,571.222 2233.72,570.733 2235.25,570.733 C2236.78,570.733 2237.54,571.222 2237.54,572.201 L2236.76,606.092 C2238.52,604.332 2240.04,603.11 2241.3,602.428 C2242.57,601.746 2244.29,601.405 2246.47,601.405 C2248.66,601.405 2250.67,602.412 2252.53,604.428 C2254.38,606.444 2255.31,608.951 2255.31,611.951 C2255.31,616.441 2250.59,622.66 2241.15,630.608 C2237.64,633.795 2235.82,635.389 2235.68,635.389 L2235.11,635.389 C2234.51,635.389 2234.22,635.03 2234.22,634.311 M2236.67,609.217 L2236.37,631.389 C2238.39,629.493 2240.44,626.347 2242.53,621.951 C2244.61,617.556 2245.65,613.795 2245.65,610.67 C2245.65,609.108 2245.39,607.675 2244.87,606.373 C2244.35,605.071 2243.54,604.42 2242.43,604.42 C2241.32,604.42 2240.32,604.811 2239.44,605.592 C2238.56,606.373 2237.64,607.582 2236.67,609.217"/>
<path class="Accidental" d="M469.095,646.811 L467.829,584.701 C467.829,583.722 468.595,583.233 470.126,583.233 C471.657,583.233 472.423,583.722 472.423,584.701 L471.642,618.592 C473.402,616.832 474.915,615.61 476.181,614.928 C477.447,614.246 479.17,613.905 481.353,613.905 C483.535,613.905 485.553,614.912 487.407,616.928 C489.262,618.944 490.189,621.451 490.189,624.451 C490.189,628.941 485.47,635.16 476.032,643.108 C472.522,646.295 470.699,647.889 470.564,647.889 L469.986,647.889 C469.392,647.889 469.095,647.53 469.095,646.811 M471.548,621.717 L471.251,643.889 C473.272,641.993 475.324,638.847 477.407,634.451 C479.491,630.056 480.532,626.295 480.532,623.17 C480.532,621.608 480.272,620.175 479.751,618.873 C479.23,617.571 478.415,616.92 477.306,616.92 C476.197,616.92 475.202,617.311 474.322,618.092 C473.441,618.873 472.517,620.082 471.548,621.717"/>
<path class="Accidental" d="M796.566,637.045 C795.389,637.368 794.8,636.915 794.8,635.686 L794.8,580.983 C794.8,579.618 795.321,578.936 796.363,578.936 C797.405,578.936 797.925,579.618 797.925,580.983 L797.925,600.811 L809.457,596.42 C810.623,596.097 811.207,596.55 811.207,597.78 L811.207,652.483 C811.207,653.847 810.686,654.53 809.644,654.53 C808.603,654.53 808.082,653.847 808.082,652.483 L808.082,632.655 L796.566,637.045 M797.925,625.811 L808.082,621.905 L808.082,607.655 L797.925,611.561 L797.925,625.811 "/>
<polyline class="Stem" fill="none" stroke="#000000" stroke-width="3.25" stroke-linejoin="bevel" points="2262.47,621.633 2262.47,691.733"/>
<polyline class="Stem" fill="none" stroke="#000000" stroke-width="3.25" stroke-linejoin="bevel" points="1450.07,559.133 1450.07,641.733"/>
<polyline class="Stem" fill="none" stroke="#000000" stroke-width="3.25" stroke-linejoin="bevel" points="1620.3,571.633 1620.3,654.233"/>
<polyline class="Stem" fill="none" stroke="#000000" stroke-width="3.25" stroke-linejoin="bevel" points="1760.64,584.133 1760.64,666.733"/>
<polyline class="Stem" fill="none" stroke="#000000" stroke-width="3.25" stroke-linejoin="bevel" points="2434.27,624.433 2434.27,547.983"/>
<polyline class="Stem" fill="none" stroke="#000000" stroke-width="3.25" stroke-linejoin="bevel" points="1941.38,596.633 1941.38,679.233"/>
<polyline class="Stem" fill="none" stroke="#000000" stroke-width="3.25" stroke-linejoin="bevel" points="2081.72,621.633 2081.72,691.733"/>
<polyline class="Stem" fill="none" stroke="#000000" stroke-width="3.25" stroke-linejoin="bevel" points="388.483,636.933 388.483,554.233"/>
<polyline class="Stem" fill="none" stroke="#000000" stroke-width="3.25" stroke-linejoin="bevel" points="1309.74,571.633 1309.74,654.233"/>
<polyline class="Stem" fill="none" stroke="#000000" stroke-width="3.25" stroke-linejoin="bevel" points="528.814,624.433 528.814,547.983"/>
<polyline class="Stem" fill="none" stroke="#000000" stroke-width="3.25" stroke-linejoin="bevel" points="1139.51,584.133 1139.51,666.733"/>
<polyline class="Stem" fill="none" stroke="#000000" stroke-width="3.25" stroke-linejoin="bevel" points="999.175,596.633 999.175,679.233"/>
<polyline class="Stem" fill="none" stroke="#000000" stroke-width="3.25" stroke-linejoin="bevel" points="678.094,621.633 678.094,691.733"/>
<polyline class="Stem" fill="none" stroke="#000000" stroke-width="3.25" stroke-linejoin="bevel" points="818.425,621.633 818.425,691.733"/>
<path class="Note" d="M1455.87,564.873 C1457.75,564.873 1461.71,562.92 1467.73,559.014 C1473.76,555.108 1477.31,552.488 1478.38,551.154 C1479.46,549.821 1479.99,548.634 1479.99,547.592 C1479.99,546.55 1479.57,545.623 1478.72,544.811 C1477.87,543.998 1476.89,543.592 1475.79,543.592 C1473.84,543.592 1469.85,545.561 1463.83,549.498 C1457.8,553.436 1454.27,556.056 1453.23,557.358 C1452.19,558.66 1451.66,559.832 1451.66,560.873 C1451.66,561.915 1452.07,562.842 1452.89,563.654 C1453.71,564.467 1454.7,564.873 1455.87,564.873 M1474.82,540.467 C1480.41,540.467 1483.21,542.873 1483.21,547.686 C1483.21,550.029 1482.53,552.748 1481.16,555.842 C1479.8,558.936 1477.98,561.295 1475.7,562.92 C1470.69,566.306 1464.4,567.998 1456.85,567.998 C1451.25,567.998 1448.45,565.592 1448.45,560.779 C1448.45,558.634 1449.11,555.964 1450.45,552.772 C1451.78,549.579 1453.62,547.17 1455.96,545.545 C1460.98,542.16 1467.27,540.467 1474.82,540.467"/>
<path class="Note" d="M2599.01,647.201 C2601.88,651.045 2605.56,652.967 2610.05,652.967 C2614.54,652.967 2616.78,649.941 2616.78,643.889 C2616.78,641.014 2615.97,638.472 2614.34,636.264 C2611.54,632.42 2607.76,630.498 2603.01,630.498 C2600.93,630.498 2599.34,631.36 2598.23,633.084 C2597.13,634.808 2596.58,637.04 2596.58,639.78 C2596.58,642.519 2597.39,644.993 2599.01,647.201 M2589.34,631.967 C2594.23,629.3 2600.11,627.967 2606.98,627.967 C2613.85,627.967 2619.64,629.334 2624.36,632.069 C2629.08,634.803 2631.44,638.058 2631.44,641.834 C2631.44,645.61 2628.99,648.832 2624.11,651.498 C2619.22,654.165 2613.38,655.498 2606.58,655.498 C2599.77,655.498 2593.96,654.131 2589.15,651.397 C2584.33,648.662 2581.92,645.376 2581.92,641.537 C2581.92,637.699 2584.39,634.509 2589.34,631.967"/>
<path class="Note" d="M362.811,652.373 C364.696,652.373 368.652,650.42 374.678,646.514 C380.704,642.608 384.253,639.988 385.326,638.655 C386.399,637.321 386.936,636.134 386.936,635.092 C386.936,634.05 386.511,633.123 385.662,632.311 C384.813,631.498 383.837,631.092 382.732,631.092 C380.785,631.092 376.798,633.061 370.772,636.998 C364.746,640.936 361.212,643.556 360.17,644.858 C359.128,646.16 358.607,647.332 358.607,648.373 C358.607,649.415 359.016,650.342 359.834,651.155 C360.652,651.967 361.644,652.373 362.811,652.373 M381.764,627.967 C387.357,627.967 390.154,630.373 390.154,635.186 C390.154,637.53 389.472,640.248 388.107,643.342 C386.743,646.436 384.92,648.795 382.639,650.42 C377.628,653.806 371.347,655.498 363.795,655.498 C358.191,655.498 355.389,653.092 355.389,648.28 C355.389,646.134 356.055,643.464 357.389,640.272 C358.722,637.079 360.561,634.67 362.904,633.045 C367.925,629.66 374.212,627.967 381.764,627.967"/>
<path class="Note" d="M2408.59,639.873 C2410.48,639.873 2414.43,637.92 2420.46,634.014 C2426.49,630.108 2430.04,627.488 2431.11,626.155 C2432.18,624.821 2432.72,623.634 2432.72,622.592 C2432.72,621.55 2432.29,620.623 2431.44,619.811 C2430.6,618.998 2429.62,618.592 2428.52,618.592 C2426.57,618.592 2422.58,620.561 2416.55,624.498 C2410.53,628.436 2406.99,631.056 2405.95,632.358 C2404.91,633.66 2404.39,634.832 2404.39,635.873 C2404.39,636.915 2404.8,637.842 2405.62,638.655 C2406.43,639.467 2407.43,639.873 2408.59,639.873 M2427.55,615.467 C2433.14,615.467 2435.94,617.873 2435.94,622.686 C2435.94,625.03 2435.25,627.748 2433.89,630.842 C2432.53,633.936 2430.7,636.295 2428.42,637.92 C2423.41,641.306 2417.13,642.998 2409.58,642.998 C2403.97,642.998 2401.17,640.592 2401.17,635.78 C2401.17,633.634 2401.84,630.964 2403.17,627.772 C2404.5,624.579 2406.34,622.17 2408.69,620.545 C2413.71,617.16 2419.99,615.467 2427.55,615.467"/>
<path class="Note" d="M503.142,639.873 C505.027,639.873 508.983,637.92 515.009,634.014 C521.035,630.108 524.585,627.488 525.657,626.155 C526.73,624.821 527.267,623.634 527.267,622.592 C527.267,621.55 526.842,620.623 525.993,619.811 C525.144,618.998 524.168,618.592 523.064,618.592 C521.116,618.592 517.129,620.561 511.103,624.498 C505.077,628.436 501.543,631.056 500.501,632.358 C499.46,633.66 498.939,634.832 498.939,635.873 C498.939,636.915 499.348,637.842 500.165,638.655 C500.983,639.467 501.975,639.873 503.142,639.873 M522.095,615.467 C527.689,615.467 530.486,617.873 530.486,622.686 C530.486,625.03 529.803,627.748 528.439,630.842 C527.074,633.936 525.251,636.295 522.97,637.92 C517.96,641.306 511.678,642.998 504.126,642.998 C498.522,642.998 495.72,640.592 495.72,635.78 C495.72,633.634 496.387,630.964 497.72,627.772 C499.053,624.579 500.892,622.17 503.236,620.545 C508.256,617.16 514.543,615.467 522.095,615.467"/>
<path class="Note" d="M2268.26,627.373 C2270.15,627.373 2274.1,625.42 2280.13,621.514 C2286.16,617.608 2289.7,614.988 2290.78,613.655 C2291.85,612.321 2292.39,611.134 2292.39,610.092 C2292.39,609.05 2291.96,608.123 2291.11,607.311 C2290.26,606.498 2289.29,606.092 2288.18,606.092 C2286.24,606.092 2282.25,608.061 2276.22,611.998 C2270.2,615.936 2266.66,618.556 2265.62,619.858 C2264.58,621.16 2264.06,622.332 2264.06,623.373 C2264.06,624.415 2264.47,625.342 2265.29,626.155 C2266.1,626.967 2267.1,627.373 2268.26,627.373 M2287.22,602.967 C2292.81,602.967 2295.61,605.373 2295.61,610.186 C2295.61,612.53 2294.92,615.248 2293.56,618.342 C2292.19,621.436 2290.37,623.795 2288.09,625.42 C2283.08,628.806 2276.8,630.498 2269.25,630.498 C2263.64,630.498 2260.84,628.092 2260.84,623.28 C2260.84,621.134 2261.51,618.464 2262.84,615.272 C2264.17,612.079 2266.01,609.67 2268.36,608.045 C2273.38,604.66 2279.66,602.967 2287.22,602.967"/>
<path class="Note" d="M683.891,627.373 C685.776,627.373 689.732,625.42 695.758,621.514 C701.784,617.608 705.334,614.988 706.407,613.655 C707.48,612.321 708.016,611.134 708.016,610.092 C708.016,609.05 707.592,608.123 706.743,607.311 C705.894,606.498 704.917,606.092 703.813,606.092 C701.865,606.092 697.878,608.061 691.852,611.998 C685.826,615.936 682.292,618.556 681.25,619.858 C680.209,621.16 679.688,622.332 679.688,623.373 C679.688,624.415 680.097,625.342 680.915,626.155 C681.732,626.967 682.724,627.373 683.891,627.373 M702.844,602.967 C708.438,602.967 711.235,605.373 711.235,610.186 C711.235,612.53 710.553,615.248 709.188,618.342 C707.823,621.436 706,623.795 703.719,625.42 C698.709,628.806 692.428,630.498 684.875,630.498 C679.271,630.498 676.469,628.092 676.469,623.28 C676.469,621.134 677.136,618.464 678.469,615.272 C679.803,612.079 681.641,609.67 683.985,608.045 C689.006,604.66 695.292,602.967 702.844,602.967"/>
<path class="Note" d="M2087.51,627.373 C2089.4,627.373 2093.35,625.42 2099.38,621.514 C2105.41,617.608 2108.96,614.988 2110.03,613.655 C2111.1,612.321 2111.64,611.134 2111.64,610.092 C2111.64,609.05 2111.21,608.123 2110.36,607.311 C2109.52,606.498 2108.54,606.092 2107.43,606.092 C2105.49,606.092 2101.5,608.061 2095.47,611.998 C2089.45,615.936 2085.91,618.556 2084.87,619.858 C2083.83,621.16 2083.31,622.332 2083.31,623.373 C2083.31,624.415 2083.72,625.342 2084.54,626.155 C2085.35,626.967 2086.35,627.373 2087.51,627.373 M2106.47,602.967 C2112.06,602.967 2114.86,605.373 2114.86,610.186 C2114.86,612.53 2114.17,615.248 2112.81,618.342 C2111.45,621.436 2109.62,623.795 2107.34,625.42 C2102.33,628.806 2096.05,630.498 2088.5,630.498 C2082.89,630.498 2080.09,628.092 2080.09,623.28 C2080.09,621.134 2080.76,618.464 2082.09,615.272 C2083.42,612.079 2085.26,609.67 2087.61,608.045 C2092.63,604.66 2098.91,602.967 2106.47,602.967"/>
<path class="Note" d="M824.222,627.373 C826.108,627.373 830.063,625.42 836.09,621.514 C842.116,617.608 845.665,614.988 846.738,613.655 C847.811,612.321 848.347,611.134 848.347,610.092 C848.347,609.05 847.923,608.123 847.074,607.311 C846.225,606.498 845.248,606.092 844.144,606.092 C842.196,606.092 838.209,608.061 832.183,611.998 C826.157,615.936 822.623,618.556 821.582,619.858 C820.54,621.16 820.019,622.332 820.019,623.373 C820.019,624.415 820.428,625.342 821.246,626.155 C822.063,626.967 823.056,627.373 824.222,627.373 M843.175,602.967 C848.769,602.967 851.566,605.373 851.566,610.186 C851.566,612.53 850.884,615.248 849.519,618.342 C848.155,621.436 846.332,623.795 844.05,625.42 C839.04,628.806 832.759,630.498 825.207,630.498 C819.603,630.498 816.8,628.092 816.8,623.28 C816.8,621.134 817.467,618.464 818.8,615.272 C820.134,612.079 821.972,609.67 824.316,608.045 C829.337,604.66 835.623,602.967 843.175,602.967"/>
<path class="Note" d="M1947.18,602.373 C1949.07,602.373 1953.02,600.42 1959.05,596.514 C1965.07,592.608 1968.62,589.988 1969.7,588.655 C1970.77,587.321 1971.31,586.134 1971.31,585.092 C1971.31,584.05 1970.88,583.123 1970.03,582.311 C1969.18,581.498 1968.21,581.092 1967.1,581.092 C1965.16,581.092 1961.17,583.061 1955.14,586.998 C1949.12,590.936 1945.58,593.556 1944.54,594.858 C1943.5,596.16 1942.98,597.332 1942.98,598.373 C1942.98,599.415 1943.39,600.342 1944.21,601.155 C1945.02,601.967 1946.01,602.373 1947.18,602.373 M1966.13,577.967 C1971.73,577.967 1974.53,580.373 1974.53,585.186 C1974.53,587.53 1973.84,590.248 1972.48,593.342 C1971.11,596.436 1969.29,598.795 1967.01,600.42 C1962,603.806 1955.72,605.498 1948.17,605.498 C1942.56,605.498 1939.76,603.092 1939.76,598.28 C1939.76,596.134 1940.43,593.464 1941.76,590.272 C1943.09,587.079 1944.93,584.67 1947.28,583.045 C1952.3,579.66 1958.58,577.967 1966.13,577.967"/>
<path class="Note" d="M1004.97,602.373 C1006.86,602.373 1010.81,600.42 1016.84,596.514 C1022.86,592.608 1026.41,589.988 1027.49,588.655 C1028.56,587.321 1029.1,586.134 1029.1,585.092 C1029.1,584.05 1028.67,583.123 1027.82,582.311 C1026.97,581.498 1026,581.092 1024.89,581.092 C1022.95,581.092 1018.96,583.061 1012.93,586.998 C1006.91,590.936 1003.37,593.556 1002.33,594.858 C1001.29,596.16 1000.77,597.332 1000.77,598.373 C1000.77,599.415 1001.18,600.342 1001.99,601.155 C1002.81,601.967 1003.8,602.373 1004.97,602.373 M1023.92,577.967 C1029.52,577.967 1032.32,580.373 1032.32,585.186 C1032.32,587.53 1031.63,590.248 1030.27,593.342 C1028.9,596.436 1027.08,598.795 1024.8,600.42 C1019.79,603.806 1013.51,605.498 1005.96,605.498 C1000.35,605.498 997.55,603.092 997.55,598.28 C997.55,596.134 998.216,593.464 999.55,590.272 C1000.88,587.079 1002.72,584.67 1005.07,583.045 C1010.09,579.66 1016.37,577.967 1023.92,577.967"/>
<path class="Note" d="M1145.3,589.873 C1147.19,589.873 1151.14,587.92 1157.17,584.014 C1163.2,580.108 1166.75,577.488 1167.82,576.155 C1168.89,574.821 1169.43,573.634 1169.43,572.592 C1169.43,571.55 1169,570.623 1168.15,569.811 C1167.31,568.998 1166.33,568.592 1165.22,568.592 C1163.28,568.592 1159.29,570.561 1153.26,574.498 C1147.24,578.436 1143.7,581.056 1142.66,582.358 C1141.62,583.66 1141.1,584.832 1141.1,585.873 C1141.1,586.915 1141.51,587.842 1142.33,588.655 C1143.14,589.467 1144.14,589.873 1145.3,589.873 M1164.26,565.467 C1169.85,565.467 1172.65,567.873 1172.65,572.686 C1172.65,575.03 1171.96,577.748 1170.6,580.842 C1169.24,583.936 1167.41,586.295 1165.13,587.92 C1160.12,591.306 1153.84,592.998 1146.29,592.998 C1140.68,592.998 1137.88,590.592 1137.88,585.78 C1137.88,583.634 1138.55,580.964 1139.88,577.772 C1141.21,574.579 1143.05,572.17 1145.4,570.545 C1150.42,567.16 1156.7,565.467 1164.26,565.467"/>
<path class="Note" d="M1766.43,589.873 C1768.32,589.873 1772.27,587.92 1778.3,584.014 C1784.33,580.108 1787.88,577.488 1788.95,576.155 C1790.02,574.821 1790.56,573.634 1790.56,572.592 C1790.56,571.55 1790.13,570.623 1789.28,569.811 C1788.44,568.998 1787.46,568.592 1786.35,568.592 C1784.41,568.592 1780.42,570.561 1774.39,574.498 C1768.37,578.436 1764.83,581.056 1763.79,582.358 C1762.75,583.66 1762.23,584.832 1762.23,585.873 C1762.23,586.915 1762.64,587.842 1763.46,588.655 C1764.27,589.467 1765.27,589.873 1766.43,589.873 M1785.39,565.467 C1790.98,565.467 1793.78,567.873 1793.78,572.686 C1793.78,575.03 1793.09,577.748 1791.73,580.842 C1790.36,583.936 1788.54,586.295 1786.26,587.92 C1781.25,591.306 1774.97,592.998 1767.42,592.998 C1761.81,592.998 1759.01,590.592 1759.01,585.78 C1759.01,583.634 1759.68,580.964 1761.01,577.772 C1762.34,574.579 1764.18,572.17 1766.53,570.545 C1771.55,567.16 1777.83,565.467 1785.39,565.467"/>
<path class="Note" d="M1315.54,577.373 C1317.42,577.373 1321.38,575.42 1327.4,571.514 C1333.43,567.608 1336.98,564.988 1338.05,563.655 C1339.12,562.321 1339.66,561.134 1339.66,560.092 C1339.66,559.05 1339.24,558.123 1338.39,557.311 C1337.54,556.498 1336.56,556.092 1335.46,556.092 C1333.51,556.092 1329.52,558.061 1323.5,561.998 C1317.47,565.936 1313.94,568.556 1312.9,569.858 C1311.85,571.16 1311.33,572.332 1311.33,573.373 C1311.33,574.415 1311.74,575.342 1312.56,576.155 C1313.38,576.967 1314.37,577.373 1315.54,577.373 M1334.49,552.967 C1340.08,552.967 1342.88,555.373 1342.88,560.186 C1342.88,562.53 1342.2,565.248 1340.83,568.342 C1339.47,571.436 1337.65,573.795 1335.36,575.42 C1330.35,578.806 1324.07,580.498 1316.52,580.498 C1310.92,580.498 1308.11,578.092 1308.11,573.28 C1308.11,571.134 1308.78,568.464 1310.11,565.272 C1311.45,562.079 1313.29,559.67 1315.63,558.045 C1320.65,554.66 1326.94,552.967 1334.49,552.967"/>
<path class="Note" d="M1626.1,577.373 C1627.99,577.373 1631.94,575.42 1637.97,571.514 C1643.99,567.608 1647.54,564.988 1648.62,563.655 C1649.69,562.321 1650.23,561.134 1650.23,560.092 C1650.23,559.05 1649.8,558.123 1648.95,557.311 C1648.1,556.498 1647.13,556.092 1646.02,556.092 C1644.08,556.092 1640.09,558.061 1634.06,561.998 C1628.04,565.936 1624.5,568.556 1623.46,569.858 C1622.42,571.16 1621.9,572.332 1621.9,573.373 C1621.9,574.415 1622.31,575.342 1623.12,576.155 C1623.94,576.967 1624.93,577.373 1626.1,577.373 M1645.05,552.967 C1650.65,552.967 1653.44,555.373 1653.44,560.186 C1653.44,562.53 1652.76,565.248 1651.4,568.342 C1650.03,571.436 1648.21,573.795 1645.93,575.42 C1640.92,578.806 1634.64,580.498 1627.09,580.498 C1621.48,580.498 1618.68,578.092 1618.68,573.28 C1618.68,571.134 1619.35,568.464 1620.68,565.272 C1622.01,562.079 1623.85,559.67 1626.19,558.045 C1631.22,554.66 1637.5,552.967 1645.05,552.967"/>
<path class="Clef" d="M203.623,673.858 L203.623,671.717 C203.56,670.613 203.399,668.889 203.139,666.545 C199.889,667.066 196.993,667.326 194.451,667.326 C185.337,667.326 177.605,663.727 171.256,656.53 C164.907,649.332 161.732,640.754 161.732,630.795 C161.732,628.129 162.253,624.923 163.295,621.178 C164.337,617.433 165.297,614.925 166.178,613.655 C167.058,612.384 168.378,610.155 170.139,606.967 C170.659,605.988 172.352,603.837 175.217,600.514 C175.738,599.806 176.193,599.222 176.584,598.764 C176.975,598.306 177.607,597.49 178.482,596.319 C179.357,595.147 180.3,594.056 181.31,593.045 C182.321,592.035 183.217,591.058 183.998,590.115 C184.779,589.173 185.498,588.379 186.154,587.733 C183.81,579.983 182.378,574.024 181.857,569.858 C181.337,565.691 181.076,560.579 181.076,554.522 C181.076,548.464 182.378,542.962 184.982,538.014 C187.514,532.879 191.06,528.681 195.623,525.42 C195.883,525.222 196.225,525.123 196.646,525.123 C197.068,525.123 197.378,525.222 197.576,525.42 C201.087,529.649 204.128,535.149 206.701,541.92 C209.274,548.691 210.56,555.024 210.56,560.92 C210.56,566.816 209.066,572.498 206.076,577.967 C202.691,583.759 198.326,589.748 192.982,595.936 C194.347,600.227 196.17,606.962 198.451,616.139 L199.045,616.139 C199.305,616.076 199.529,616.045 199.717,616.045 C207.081,616.045 213.089,618.634 217.74,623.811 C222.391,628.988 224.717,634.962 224.717,641.733 C224.717,650.129 221.238,656.899 214.279,662.045 C212.258,663.545 209.878,664.717 207.139,665.561 C207.472,669.79 207.639,672.605 207.639,674.006 C207.639,675.407 207.571,677.899 207.435,681.483 C207.373,687.597 205.29,692.837 201.185,697.201 C197.081,701.566 192.394,703.748 187.123,703.748 C181.852,703.748 177.36,701.876 173.646,698.131 C169.933,694.386 168.076,689.847 168.076,684.514 C168.076,681.712 169.154,679.332 171.31,677.373 C173.519,675.425 176.006,674.451 178.771,674.451 C181.537,674.451 183.8,675.462 185.56,677.483 C187.383,679.368 188.295,681.644 188.295,684.311 C188.295,686.977 187.383,689.222 185.56,691.045 C183.738,692.868 181.555,693.78 179.014,693.78 C177.972,693.78 176.967,693.587 175.998,693.201 C178.863,697.431 182.54,699.545 187.029,699.545 C191.519,699.545 195.36,697.691 198.553,693.983 C201.745,690.274 203.342,685.91 203.342,680.889 L203.623,673.858 M206.748,661.561 C210.133,660.321 212.821,658.123 214.81,654.967 C216.8,651.811 217.795,648.67 217.795,645.545 C217.795,640.92 216.199,636.785 213.006,633.139 C209.813,629.493 205.774,627.441 200.889,626.983 C203.691,640.722 205.644,652.248 206.748,661.561 M168.967,638.998 C168.967,645.446 171.537,651.079 176.678,655.897 C181.818,660.714 187.842,663.123 194.748,663.123 C197.477,663.123 200.144,662.925 202.748,662.53 C201.706,652.634 199.654,640.785 196.592,626.983 C192.758,627.379 189.782,628.699 187.662,630.944 C185.542,633.188 184.482,635.743 184.482,638.608 C184.482,643.556 187.123,647.561 192.404,650.623 C192.852,650.884 193.076,651.324 193.076,651.944 C193.076,652.563 192.865,653.1 192.443,653.553 C192.021,654.006 191.649,654.233 191.326,654.233 C191.003,654.233 190.581,654.17 190.06,654.045 C182.435,649.879 178.623,643.592 178.623,635.186 C178.623,631.217 180.024,627.41 182.826,623.764 C185.753,620.118 189.56,617.774 194.248,616.733 C192.425,609.441 190.93,603.743 189.764,599.639 C180.847,609.67 175.31,617.092 173.154,621.905 C170.363,628.155 168.967,633.852 168.967,638.998 M201.576,539.686 C196.691,542.092 192.834,545.574 190.006,550.131 C187.178,554.688 185.764,559.472 185.764,564.483 C185.764,569.493 186.935,575.972 189.279,583.92 C193.967,578.254 197.514,572.946 199.92,567.998 C202.326,563.05 203.529,558.152 203.529,553.303 C203.529,548.454 202.878,543.915 201.576,539.686"/>
<path class="TimeSig" d="M273.021,567.912 C274.516,567.912 275.949,567.686 277.318,567.233 C278.688,566.78 279.665,566.553 280.248,566.553 C280.831,566.553 281.222,566.907 281.42,567.615 C281.42,567.688 281.352,567.886 281.217,568.209 L252.811,601.225 L269.498,601.225 L269.498,588.131 C269.498,586.506 270.446,585.334 272.342,584.615 C274.29,583.897 276.503,581.001 278.982,575.928 C279.17,575.532 279.462,575.334 279.857,575.334 C280.639,575.334 281.092,575.793 281.217,576.709 L281.217,601.225 L288.357,601.225 C289.264,601.225 289.751,601.712 289.818,602.686 C289.886,603.66 289.399,604.147 288.357,604.147 L281.217,604.147 L281.217,604.928 C281.217,607.532 281.868,609.746 283.17,611.569 C284.67,613.391 286.43,614.303 288.451,614.303 C289.232,614.303 289.623,614.694 289.623,615.475 C289.623,616.256 289.087,616.647 288.014,616.647 C286.941,616.647 284.938,616.436 282.006,616.014 C279.074,615.592 276.811,615.381 275.217,615.381 C273.623,615.381 271.41,615.592 268.576,616.014 C265.743,616.436 263.613,616.647 262.186,616.647 C261.404,616.647 261.014,616.256 261.014,615.475 C261.014,614.694 261.404,614.303 262.186,614.303 C264.196,614.303 265.951,613.391 267.451,611.569 C268.816,609.683 269.498,607.47 269.498,604.928 L269.498,604.147 L252.811,604.147 C251.956,604.147 251.219,603.92 250.6,603.467 C249.98,603.014 249.67,602.592 249.67,602.201 C249.67,601.811 250.485,600.639 252.115,598.686 C253.745,596.733 256.074,592.972 259.1,587.405 C262.126,581.837 263.639,575.438 263.639,568.209 C263.639,567.168 264.097,566.647 265.014,566.647 C265.212,566.647 265.521,566.712 265.943,566.842 C266.365,566.972 267.277,567.183 268.678,567.475 C270.079,567.766 271.527,567.912 273.021,567.912"/>
<path class="TimeSig" d="M273.021,618.084 C274.516,618.084 275.949,617.858 277.318,617.405 C278.688,616.951 279.665,616.725 280.248,616.725 C280.831,616.725 281.222,617.079 281.42,617.787 C281.42,617.86 281.352,618.058 281.217,618.381 L252.811,651.397 L269.498,651.397 L269.498,638.303 C269.498,636.678 270.446,635.506 272.342,634.787 C274.29,634.069 276.503,631.173 278.982,626.1 C279.17,625.704 279.462,625.506 279.857,625.506 C280.639,625.506 281.092,625.964 281.217,626.881 L281.217,651.397 L288.357,651.397 C289.264,651.397 289.751,651.884 289.818,652.858 C289.886,653.832 289.399,654.319 288.357,654.319 L281.217,654.319 L281.217,655.1 C281.217,657.704 281.868,659.918 283.17,661.74 C284.67,663.563 286.43,664.475 288.451,664.475 C289.232,664.475 289.623,664.865 289.623,665.647 C289.623,666.428 289.087,666.819 288.014,666.819 C286.941,666.819 284.938,666.608 282.006,666.186 C279.074,665.764 276.811,665.553 275.217,665.553 C273.623,665.553 271.41,665.764 268.576,666.186 C265.743,666.608 263.613,666.819 262.186,666.819 C261.404,666.819 261.014,666.428 261.014,665.647 C261.014,664.865 261.404,664.475 262.186,664.475 C264.196,664.475 265.951,663.563 267.451,661.74 C268.816,659.855 269.498,657.642 269.498,655.1 L269.498,654.319 L252.811,654.319 C251.956,654.319 251.219,654.092 250.6,653.639 C249.98,653.186 249.67,652.764 249.67,652.373 C249.67,651.983 250.485,650.811 252.115,648.858 C253.745,646.905 256.074,643.144 259.1,637.576 C262.126,632.009 263.639,625.61 263.639,618.381 C263.639,617.339 264.097,616.819 265.014,616.819 C265.212,616.819 265.521,616.884 265.943,617.014 C266.365,617.144 267.277,617.355 268.678,617.647 C270.079,617.938 271.527,618.084 273.021,618.084"/>
<path class="Fermata" d="M2601.9,539.779 C2600.6,538.477 2599.94,536.881 2599.94,534.99 C2599.94,533.1 2600.6,531.503 2601.9,530.201 C2603.2,528.899 2604.79,528.248 2606.68,528.248 C2608.56,528.248 2610.16,528.899 2611.46,530.201 C2612.76,531.503 2613.41,533.1 2613.41,534.99 C2613.41,536.881 2612.76,538.477 2611.46,539.779 C2610.16,541.082 2608.56,541.733 2606.68,541.733 C2604.79,541.733 2603.2,541.082 2601.9,539.779 M2595.35,506.186 C2598.74,504.488 2602.43,503.639 2606.44,503.639 C2610.44,503.639 2614.32,504.485 2618.06,506.178 C2621.81,507.871 2624.78,510.019 2626.99,512.623 C2631.81,518.227 2635.17,523.795 2637.05,529.326 C2638.94,534.858 2639.88,538.503 2639.88,540.264 C2639.88,540.587 2639.69,540.946 2639.3,541.342 C2638.78,541.602 2638.36,541.733 2638.02,541.733 C2637.05,541.733 2636.4,541.144 2636.07,539.967 C2634.84,532.613 2631.45,526.363 2625.91,521.217 C2620.38,516.269 2613.97,513.795 2606.68,513.795 C2599.39,513.795 2592.98,516.269 2587.44,521.217 C2581.91,526.363 2578.53,532.613 2577.29,539.967 C2577.09,541.144 2576.41,541.733 2575.23,541.733 C2574.06,541.733 2573.48,541.048 2573.48,539.678 C2573.48,538.308 2574.19,535.54 2575.62,531.373 C2577.06,527.207 2578.63,523.709 2580.36,520.881 C2582.08,518.053 2584.12,515.287 2586.46,512.584 C2588.8,509.881 2591.77,507.748 2595.35,506.186"/>
</svg>
