<?xml version="1.0" encoding="UTF-8" standalone="no"?>
<svg width="2977.2px" height="4208.4px" viewBox="0 0 2977.2 4208.4"
 xmlns="http://www.w3.org/2000/svg" xmlns:xlink="http://www.w3.org/1999/xlink" version="1.2" baseProfile="tiny">
<title>Blues_Shuffle_Exercise_9.mscx</title>
<desc>Generated by MuseScore Studio 4.3.1</desc>
<path class="" fill="#ffffff" fill-rule="evenodd" d="M0,0 L2977.2,0 L2977.2,4208.4 L0,4208.4 L0,0 "/>
<polyline class="StaffLines" fill="none" stroke="#000000" stroke-width="2.00" stroke-linejoin="bevel" points="141.732,316.732 2835.47,316.732"/>
<polyline class="StaffLines" fill="none" stroke="#000000" stroke-width="2.00" stroke-linejoin="bevel" points="141.732,341.732 2835.47,341.732"/>
<polyline class="StaffLines" fill="none" stroke="#000000" stroke-width="2.00" stroke-linejoin="bevel" points="141.732,366.733 2835.47,366.733"/>
<polyline class="StaffLines" fill="none" stroke="#000000" stroke-width="2.00" stroke-linejoin="bevel" points="141.732,391.733 2835.47,391.733"/>
<polyline class="StaffLines" fill="none" stroke="#000000" stroke-width="2.00" stroke-linejoin="bevel" points="141.732,416.733 2835.47,416.733"/>
<polyline class="StaffLines" fill="none" stroke="#000000" stroke-width="2.00" stroke-linejoin="bevel" points="141.732,791.733 2835.47,791.733"/>
<polyline class="StaffLines" fill="none" stroke="#000000" stroke-width="2.00" stroke-linejoin="bevel" points="141.732,816.733 2835.47,816.733"/>
<polyline class="StaffLines" fill="none" stroke="#000000" stroke-width="2.00" stroke-linejoin="bevel" points="141.732,841.733 2835.47,841.733"/>
<polyline class="StaffLines" fill="none" stroke="#000000" stroke-width="2.00" stroke-linejoin="bevel" points="141.732,866.733 2835.47,866.733"/>
<polyline class="StaffLines" fill="none" stroke="#000000" stroke-width="2.00" stroke-linejoin="bevel" points="141.732,891.733 2835.47,891.733"/>
<path class="MeasureNumber" d="M146.514,733.873 C146.514,732.446 146.199,731.181 145.568,730.076 C144.938,728.972 144.178,728.118 143.287,727.514 C142.396,726.91 141.399,726.412 140.295,726.022 C139.191,725.631 138.23,725.376 137.412,725.256 C136.594,725.136 135.883,725.076 135.279,725.076 C134.956,725.076 134.795,724.967 134.795,724.748 C134.795,724.675 134.805,724.613 134.826,724.561 L139.185,715.264 L147.545,715.264 C147.972,715.264 148.313,715.196 148.568,715.061 C148.824,714.925 149.097,714.644 149.389,714.217 L149.748,714.498 L148.232,717.842 C148.128,718.061 147.821,718.17 147.31,718.17 L139.467,718.17 L137.795,721.608 C141.68,722.306 144.571,723.441 146.467,725.014 C148.363,726.587 149.31,728.894 149.31,731.936 C149.31,733.53 149.063,734.946 148.568,736.186 C148.074,737.425 147.446,738.423 146.685,739.178 C145.925,739.933 145.045,740.553 144.045,741.037 C143.045,741.522 142.087,741.853 141.17,742.03 C140.253,742.207 139.326,742.295 138.389,742.295 C136.899,742.295 135.714,742.074 134.834,741.631 C133.954,741.188 133.514,740.582 133.514,739.811 C133.514,738.821 134.087,738.326 135.232,738.326 C135.982,738.326 136.949,738.735 138.131,739.553 C139.313,740.371 140.253,740.78 140.951,740.78 C142.524,740.78 143.844,740.113 144.912,738.78 C145.98,737.446 146.514,735.811 146.514,733.873"/>
<path class="TieSegment" stroke="#000000" stroke-width="1.75" stroke-linecap="round" stroke-linejoin="round" fill-rule="evenodd" d="M2521.49,672.959 C2532.91,654.963 2567.16,654.963 2578.58,672.959 C2567.16,658.963 2532.91,658.963 2521.49,672.959"/>
<polyline class="BarLine" fill="none" stroke="#000000" stroke-width="4.00" stroke-linejoin="bevel" points="2281.79,315.732 2281.79,417.733"/>
<polyline class="BarLine" fill="none" stroke="#000000" stroke-width="4.00" stroke-linejoin="bevel" points="2802.72,790.733 2802.72,892.733"/>
<polyline class="BarLine" fill="none" stroke="#000000" stroke-width="12.50" stroke-linejoin="bevel" points="2829.22,790.733 2829.22,892.733"/>
<polyline class="BarLine" fill="none" stroke="#000000" stroke-width="4.00" stroke-linejoin="bevel" points="2833.47,315.732 2833.47,417.733"/>
<polyline class="BarLine" fill="none" stroke="#000000" stroke-width="4.00" stroke-linejoin="bevel" points="1417.78,315.732 1417.78,417.733"/>
<polyline class="BarLine" fill="none" stroke="#000000" stroke-width="4.00" stroke-linejoin="bevel" points="2196.17,790.733 2196.17,892.733"/>
<polyline class="BarLine" fill="none" stroke="#000000" stroke-width="4.00" stroke-linejoin="bevel" points="1078.13,315.732 1078.13,417.733"/>
<polyline class="BarLine" fill="none" stroke="#000000" stroke-width="4.00" stroke-linejoin="bevel" points="1546.34,790.733 1546.34,892.733"/>
<polyline class="BarLine" fill="none" stroke="#000000" stroke-width="4.00" stroke-linejoin="bevel" points="1003.18,790.733 1003.18,892.733"/>
<polyline class="LedgerLine" fill="none" stroke="#000000" stroke-width="4.00" stroke-linejoin="bevel" points="2213.67,766.733 2265.58,766.733"/>
<polyline class="LedgerLine" fill="none" stroke="#000000" stroke-width="4.00" stroke-linejoin="bevel" points="2493.04,691.733 2544.95,691.733"/>
<polyline class="LedgerLine" fill="none" stroke="#000000" stroke-width="4.00" stroke-linejoin="bevel" points="2368.87,766.733 2420.79,766.733"/>
<polyline class="LedgerLine" fill="none" stroke="#000000" stroke-width="4.00" stroke-linejoin="bevel" points="2493.04,716.733 2544.95,716.733"/>
<polyline class="LedgerLine" fill="none" stroke="#000000" stroke-width="4.00" stroke-linejoin="bevel" points="2306.79,741.733 2358.7,741.733"/>
<polyline class="LedgerLine" fill="none" stroke="#000000" stroke-width="4.00" stroke-linejoin="bevel" points="2493.04,741.733 2544.95,741.733"/>
<polyline class="LedgerLine" fill="none" stroke="#000000" stroke-width="4.00" stroke-linejoin="bevel" points="2493.04,766.733 2544.95,766.733"/>
<polyline class="LedgerLine" fill="none" stroke="#000000" stroke-width="4.00" stroke-linejoin="bevel" points="2306.79,766.733 2358.7,766.733"/>
<polyline class="LedgerLine" fill="none" stroke="#000000" stroke-width="4.00" stroke-linejoin="bevel" points="2213.67,741.733 2265.58,741.733"/>
<polyline class="LedgerLine" fill="none" stroke="#000000" stroke-width="4.00" stroke-linejoin="bevel" points="2368.87,716.733 2420.79,716.733"/>
<polyline class="LedgerLine" fill="none" stroke="#000000" stroke-width="4.00" stroke-linejoin="bevel" points="2122.58,766.733 2174.5,766.733"/>
<polyline class="LedgerLine" fill="none" stroke="#000000" stroke-width="4.00" stroke-linejoin="bevel" points="2029.46,766.733 2081.37,766.733"/>
<polyline class="LedgerLine" fill="none" stroke="#000000" stroke-width="4.00" stroke-linejoin="bevel" points="2430.95,716.733 2482.87,716.733"/>
<polyline class="LedgerLine" fill="none" stroke="#000000" stroke-width="4.00" stroke-linejoin="bevel" points="2430.95,741.733 2482.87,741.733"/>
<polyline class="LedgerLine" fill="none" stroke="#000000" stroke-width="4.00" stroke-linejoin="bevel" points="2430.95,766.733 2482.87,766.733"/>
<polyline class="LedgerLine" fill="none" stroke="#000000" stroke-width="4.00" stroke-linejoin="bevel" points="2368.87,741.733 2420.79,741.733"/>
<polyline class="LedgerLine" fill="none" stroke="#000000" stroke-width="4.00" stroke-linejoin="bevel" points="2555.12,766.733 2607.03,766.733"/>
<polyline class="LedgerLine" fill="none" stroke="#000000" stroke-width="4.00" stroke-linejoin="bevel" points="2555.12,691.733 2607.03,691.733"/>
<polyline class="LedgerLine" fill="none" stroke="#000000" stroke-width="4.00" stroke-linejoin="bevel" points="2555.12,741.733 2607.03,741.733"/>
<polyline class="LedgerLine" fill="none" stroke="#000000" stroke-width="4.00" stroke-linejoin="bevel" points="2555.12,716.733 2607.03,716.733"/>
<polyline class="Stem" fill="none" stroke="#000000" stroke-width="3.25" stroke-linejoin="bevel" points="2442.08,710.102 2442.08,841.733"/>
<polyline class="Stem" fill="none" stroke="#000000" stroke-width="3.25" stroke-linejoin="bevel" points="288.857,785.102 288.857,885.563"/>
<polyline class="Stem" fill="none" stroke="#000000" stroke-width="3.25" stroke-linejoin="bevel" points="2133.71,760.102 2133.71,842.333"/>
<polyline class="Stem" fill="none" stroke="#000000" stroke-width="3.25" stroke-linejoin="bevel" points="350.94,797.602 350.94,888.608"/>
<polyline class="Stem" fill="none" stroke="#000000" stroke-width="3.25" stroke-linejoin="bevel" points="413.022,822.602 413.022,891.653"/>
<polyline class="Stem" fill="none" stroke="#000000" stroke-width="3.25" stroke-linejoin="bevel" points="587.636,310.102 587.636,410.551"/>
<polyline class="Stem" fill="none" stroke="#000000" stroke-width="3.25" stroke-linejoin="bevel" points="475.104,785.102 475.104,885.563"/>
<polyline class="Stem" fill="none" stroke="#000000" stroke-width="3.25" stroke-linejoin="bevel" points="2040.59,772.602 2040.59,854.233"/>
<polyline class="Stem" fill="none" stroke="#000000" stroke-width="3.25" stroke-linejoin="bevel" points="804.563,309.132 804.563,391.733"/>
<polyline class="Stem" fill="none" stroke="#000000" stroke-width="3.25" stroke-linejoin="bevel" points="537.186,797.602 537.186,888.608"/>
<polyline class="Stem" fill="none" stroke="#000000" stroke-width="3.25" stroke-linejoin="bevel" points="599.269,822.602 599.269,891.653"/>
<polyline class="Stem" fill="none" stroke="#000000" stroke-width="3.25" stroke-linejoin="bevel" points="1978.5,785.102 1978.5,867.333"/>
<polyline class="Stem" fill="none" stroke="#000000" stroke-width="3.25" stroke-linejoin="bevel" points="661.351,785.102 661.351,860.642"/>
<polyline class="Stem" fill="none" stroke="#000000" stroke-width="3.25" stroke-linejoin="bevel" points="1664.24,310.102 1664.24,410.551"/>
<polyline class="Stem" fill="none" stroke="#000000" stroke-width="3.25" stroke-linejoin="bevel" points="723.433,797.602 723.433,866.733"/>
<polyline class="Stem" fill="none" stroke="#000000" stroke-width="3.25" stroke-linejoin="bevel" points="785.515,810.102 785.515,872.823"/>
<polyline class="Stem" fill="none" stroke="#000000" stroke-width="3.25" stroke-linejoin="bevel" points="1885.38,797.602 1885.38,879.233"/>
<polyline class="Stem" fill="none" stroke="#000000" stroke-width="3.25" stroke-linejoin="bevel" points="847.598,822.602 847.598,904.233"/>
<polyline class="Stem" fill="none" stroke="#000000" stroke-width="3.25" stroke-linejoin="bevel" points="940.721,835.102 940.721,911.083"/>
<polyline class="Stem" fill="none" stroke="#000000" stroke-width="3.25" stroke-linejoin="bevel" points="1823.3,810.102 1823.3,892.333"/>
<polyline class="Stem" fill="none" stroke="#000000" stroke-width="3.25" stroke-linejoin="bevel" points="732.856,347.602 732.856,416.664"/>
<polyline class="Stem" fill="none" stroke="#000000" stroke-width="3.25" stroke-linejoin="bevel" points="1031.8,821.633 1031.8,904.233"/>
<polyline class="Stem" fill="none" stroke="#000000" stroke-width="3.25" stroke-linejoin="bevel" points="1730.17,822.602 1730.17,904.233"/>
<polyline class="Stem" fill="none" stroke="#000000" stroke-width="3.25" stroke-linejoin="bevel" points="660.246,322.602 660.246,413.608"/>
<polyline class="Stem" fill="none" stroke="#000000" stroke-width="3.25" stroke-linejoin="bevel" points="1496.95,860.864 1496.95,778.533"/>
<polyline class="Stem" fill="none" stroke="#000000" stroke-width="3.25" stroke-linejoin="bevel" points="1668.09,835.102 1668.09,911.083"/>
<polyline class="Stem" fill="none" stroke="#000000" stroke-width="3.25" stroke-linejoin="bevel" points="1574.97,847.602 1574.97,916.733"/>
<polyline class="Stem" fill="none" stroke="#000000" stroke-width="3.25" stroke-linejoin="bevel" points="442.417,322.602 442.417,413.608"/>
<polyline class="Stem" fill="none" stroke="#000000" stroke-width="3.25" stroke-linejoin="bevel" points="1882.07,310.102 1882.07,385.619"/>
<polyline class="Stem" fill="none" stroke="#000000" stroke-width="3.25" stroke-linejoin="bevel" points="2317.91,735.102 2317.91,842.333"/>
<polyline class="Stem" fill="none" stroke="#000000" stroke-width="3.25" stroke-linejoin="bevel" points="1954.67,322.602 1954.67,391.733"/>
<polyline class="Stem" fill="none" stroke="#000000" stroke-width="3.25" stroke-linejoin="bevel" points="369.807,310.102 369.807,410.551"/>
<polyline class="Stem" fill="none" stroke="#000000" stroke-width="3.25" stroke-linejoin="bevel" points="2027.28,335.102 2027.28,397.846"/>
<polyline class="Stem" fill="none" stroke="#000000" stroke-width="3.25" stroke-linejoin="bevel" points="1809.46,347.602 1809.46,416.664"/>
<polyline class="Stem" fill="none" stroke="#000000" stroke-width="3.25" stroke-linejoin="bevel" points="2099.89,347.602 2099.89,429.233"/>
<polyline class="Stem" fill="none" stroke="#000000" stroke-width="3.25" stroke-linejoin="bevel" points="2208.81,360.102 2208.81,436.083"/>
<polyline class="Stem" fill="none" stroke="#000000" stroke-width="3.25" stroke-linejoin="bevel" points="1591.63,347.602 1591.63,416.664"/>
<polyline class="Stem" fill="none" stroke="#000000" stroke-width="3.25" stroke-linejoin="bevel" points="2224.79,747.602 2224.79,841.733"/>
<polyline class="Stem" fill="none" stroke="#000000" stroke-width="3.25" stroke-linejoin="bevel" points="1519.02,322.602 1519.02,413.608"/>
<polyline class="Stem" fill="none" stroke="#000000" stroke-width="3.25" stroke-linejoin="bevel" points="1736.85,322.602 1736.85,413.608"/>
<polyline class="Stem" fill="none" stroke="#000000" stroke-width="3.25" stroke-linejoin="bevel" points="1446.41,310.102 1446.41,410.551"/>
<polyline class="Stem" fill="none" stroke="#000000" stroke-width="3.25" stroke-linejoin="bevel" points="2784.07,385.863 2784.07,303.532"/>
<polyline class="Stem" fill="none" stroke="#000000" stroke-width="3.25" stroke-linejoin="bevel" points="2504.16,697.602 2504.16,835.642"/>
<polyline class="Stem" fill="none" stroke="#000000" stroke-width="3.25" stroke-linejoin="bevel" points="515.026,347.602 515.026,416.664"/>
<polyline class="Stem" fill="none" stroke="#000000" stroke-width="3.25" stroke-linejoin="bevel" points="2380,722.602 2380,847.823"/>
<polyline class="Stem" fill="none" stroke="#000000" stroke-width="3.25" stroke-linejoin="bevel" points="2566.24,697.602 2566.24,841.733"/>
<polyline class="Stem" fill="none" stroke="#000000" stroke-width="3.25" stroke-linejoin="bevel" points="2310.42,371.633 2310.42,441.733"/>
<path class="Hook" d="M2229.93,363.123 C2231.43,363.123 2233.02,365.548 2234.68,370.397 C2236.34,375.246 2237.17,379.688 2237.17,383.725 C2237.17,387.761 2236.24,391.667 2234.39,395.443 C2232.53,399.22 2230.3,402.54 2227.7,405.404 L2219.68,414.389 C2217.22,417.253 2215.04,420.54 2213.15,424.248 C2211.25,427.957 2210.31,431.701 2210.31,435.483 L2207.18,435.483 L2207.18,410.483 L2210.31,410.483 C2221.25,403.576 2228.12,397.457 2230.92,392.123 C2232.28,389.519 2232.97,386.884 2232.97,384.217 C2232.97,378.029 2231.17,371.873 2227.59,365.748 L2227.59,365.358 C2227.59,364.774 2227.82,364.256 2228.28,363.803 C2228.74,363.35 2229.29,363.123 2229.93,363.123"/>
<path class="Hook" d="M1999.63,794.373 C2001.13,794.373 2002.71,796.798 2004.37,801.647 C2006.03,806.496 2006.86,810.939 2006.86,814.975 C2006.86,819.011 2005.94,822.918 2004.08,826.694 C2002.23,830.47 2000,833.79 1997.39,836.655 L1989.38,845.639 C1986.91,848.504 1984.73,851.79 1982.84,855.498 C1980.95,859.207 1980,862.952 1980,866.733 L1976.88,866.733 L1976.88,841.733 L1980,841.733 C1990.94,834.827 1997.81,828.707 2000.61,823.373 C2001.98,820.769 2002.66,818.134 2002.66,815.467 C2002.66,809.28 2000.87,803.123 1997.28,796.998 L1997.28,796.608 C1997.28,796.024 1997.51,795.506 1997.97,795.053 C1998.43,794.6 1998.98,794.373 1999.63,794.373"/>
<path class="Hook" d="M1495.32,804.233 L1495.32,779.233 L1498.45,779.233 C1498.45,782.941 1499.2,786.733 1500.7,790.608 C1502.2,794.483 1503.76,797.707 1505.38,800.28 C1507.01,802.853 1509.02,806.092 1511.43,809.998 C1516.71,818.53 1519.35,826.116 1519.35,832.756 C1519.35,839.397 1517.95,846.233 1515.15,853.264 C1514.63,854.045 1514.03,854.436 1513.34,854.436 C1512.66,854.436 1512.09,854.207 1511.63,853.748 C1511.17,853.29 1510.95,852.769 1510.95,852.186 L1510.95,851.702 C1513.75,845.254 1515.15,838.873 1515.15,832.561 C1515.15,829.3 1514.16,825.751 1512.17,821.912 C1510.19,818.074 1508.14,814.933 1506.02,812.491 C1503.9,810.048 1501.37,807.295 1498.45,804.233 L1495.32,804.233 "/>
<path class="Hook" d="M2154.83,769.373 C2156.33,769.373 2157.91,771.798 2159.58,776.647 C2161.24,781.496 2162.07,785.939 2162.07,789.975 C2162.07,794.011 2161.14,797.918 2159.29,801.694 C2157.43,805.47 2155.2,808.79 2152.6,811.655 L2144.58,820.639 C2142.12,823.504 2139.94,826.79 2138.04,830.498 C2136.15,834.207 2135.21,837.952 2135.21,841.733 L2132.08,841.733 L2132.08,816.733 L2135.21,816.733 C2146.15,809.827 2153.02,803.707 2155.82,798.373 C2157.18,795.769 2157.87,793.134 2157.87,790.467 C2157.87,784.28 2156.07,778.123 2152.49,771.998 L2152.49,771.608 C2152.49,771.024 2152.72,770.506 2153.18,770.053 C2153.64,769.6 2154.19,769.373 2154.83,769.373"/>
<path class="Hook" d="M2339.04,769.373 C2340.54,769.373 2342.12,771.798 2343.78,776.647 C2345.44,781.496 2346.27,785.939 2346.27,789.975 C2346.27,794.011 2345.35,797.918 2343.49,801.694 C2341.64,805.47 2339.41,808.79 2336.81,811.655 L2328.79,820.639 C2326.32,823.504 2324.14,826.79 2322.25,830.498 C2320.36,834.207 2319.41,837.952 2319.41,841.733 L2316.29,841.733 L2316.29,816.733 L2319.41,816.733 C2330.35,809.827 2337.22,803.707 2340.02,798.373 C2341.39,795.769 2342.07,793.134 2342.07,790.467 C2342.07,784.28 2340.28,778.123 2336.7,771.998 L2336.7,771.608 C2336.7,771.024 2336.93,770.506 2337.38,770.053 C2337.84,769.6 2338.39,769.373 2339.04,769.373"/>
<path class="Hook" d="M2782.44,329.232 L2782.44,304.232 L2785.57,304.232 C2785.57,307.941 2786.32,311.732 2787.82,315.607 C2789.32,319.482 2790.88,322.706 2792.51,325.279 C2794.13,327.852 2796.15,331.092 2798.55,334.998 C2803.84,343.529 2806.48,351.115 2806.48,357.756 C2806.48,364.397 2805.08,371.232 2802.27,378.264 C2801.75,379.045 2801.15,379.436 2800.47,379.436 C2799.79,379.436 2799.22,379.206 2798.76,378.748 C2798.3,378.29 2798.07,377.769 2798.07,377.186 L2798.07,376.701 C2800.87,370.253 2802.27,363.873 2802.27,357.561 C2802.27,354.3 2801.28,350.751 2799.3,346.912 C2797.31,343.074 2795.26,339.933 2793.14,337.49 C2791.02,335.048 2788.5,332.295 2785.57,329.232 L2782.44,329.232 "/>
<path class="Hook" d="M961.846,838.123 C963.346,838.123 964.927,840.548 966.588,845.397 C968.25,850.246 969.08,854.689 969.08,858.725 C969.08,862.761 968.153,866.668 966.299,870.444 C964.445,874.22 962.216,877.54 959.612,880.405 L951.596,889.389 C949.127,892.254 946.948,895.54 945.057,899.248 C943.166,902.957 942.221,906.702 942.221,910.483 L939.096,910.483 L939.096,885.483 L942.221,885.483 C953.158,878.577 960.028,872.457 962.83,867.123 C964.195,864.519 964.877,861.884 964.877,859.217 C964.877,853.03 963.086,846.873 959.502,840.748 L959.502,840.358 C959.502,839.775 959.731,839.256 960.19,838.803 C960.648,838.35 961.2,838.123 961.846,838.123"/>
<path class="Hook" d="M1689.22,838.123 C1690.72,838.123 1692.3,840.548 1693.96,845.397 C1695.62,850.246 1696.45,854.689 1696.45,858.725 C1696.45,862.761 1695.52,866.668 1693.67,870.444 C1691.82,874.22 1689.59,877.54 1686.98,880.405 L1678.97,889.389 C1676.5,892.254 1674.32,895.54 1672.43,899.248 C1670.54,902.957 1669.59,906.702 1669.59,910.483 L1666.47,910.483 L1666.47,885.483 L1669.59,885.483 C1680.53,878.577 1687.4,872.457 1690.2,867.123 C1691.57,864.519 1692.25,861.884 1692.25,859.217 C1692.25,853.03 1690.46,846.873 1686.87,840.748 L1686.87,840.358 C1686.87,839.775 1687.1,839.256 1687.56,838.803 C1688.02,838.35 1688.57,838.123 1689.22,838.123"/>
<path class="Hook" d="M1844.42,819.373 C1845.92,819.373 1847.5,821.798 1849.17,826.647 C1850.83,831.496 1851.66,835.939 1851.66,839.975 C1851.66,844.011 1850.73,847.918 1848.88,851.694 C1847.02,855.47 1844.79,858.79 1842.19,861.655 L1834.17,870.639 C1831.7,873.504 1829.52,876.79 1827.63,880.498 C1825.74,884.207 1824.8,887.952 1824.8,891.733 L1821.67,891.733 L1821.67,866.733 L1824.8,866.733 C1835.74,859.827 1842.61,853.707 1845.41,848.373 C1846.77,845.769 1847.45,843.134 1847.45,840.467 C1847.45,834.28 1845.66,828.123 1842.08,821.998 L1842.08,821.608 C1842.08,821.024 1842.31,820.506 1842.77,820.053 C1843.22,819.6 1843.78,819.373 1844.42,819.373"/>
<path class="Note" d="M1684.58,290.467 C1687.7,290.467 1690.31,291.248 1692.39,292.811 C1694.48,294.373 1695.52,296.618 1695.52,299.545 C1695.52,304.035 1693.19,308.232 1688.54,312.139 C1683.89,316.045 1678.89,317.998 1673.55,317.998 C1670.42,317.998 1667.79,317.186 1665.64,315.561 C1663.62,313.8 1662.61,311.587 1662.61,308.92 C1662.61,304.555 1664.92,300.389 1669.55,296.42 C1674.17,292.451 1679.18,290.467 1684.58,290.467"/>
<path class="Note" d="M1688.44,815.467 C1691.56,815.467 1694.17,816.248 1696.25,817.811 C1698.33,819.373 1699.37,821.618 1699.37,824.545 C1699.37,829.035 1697.05,833.233 1692.4,837.139 C1687.75,841.045 1682.75,842.998 1677.4,842.998 C1674.28,842.998 1671.64,842.186 1669.5,840.561 C1667.48,838.801 1666.47,836.587 1666.47,833.92 C1666.47,829.556 1668.78,825.389 1673.4,821.42 C1678.03,817.452 1683.04,815.467 1688.44,815.467"/>
<path class="Note" d="M2338.26,715.467 C2341.38,715.467 2343.99,716.248 2346.07,717.811 C2348.15,719.373 2349.2,721.618 2349.2,724.545 C2349.2,729.035 2346.87,733.233 2342.22,737.139 C2337.57,741.045 2332.57,742.998 2327.23,742.998 C2324.1,742.998 2321.47,742.186 2319.32,740.561 C2317.3,738.8 2316.29,736.587 2316.29,733.92 C2316.29,729.556 2318.6,725.389 2323.23,721.42 C2327.85,717.451 2332.86,715.467 2338.26,715.467"/>
<path class="Note" d="M1750.52,802.967 C1753.64,802.967 1756.25,803.748 1758.33,805.311 C1760.41,806.873 1761.46,809.118 1761.46,812.045 C1761.46,816.535 1759.13,820.733 1754.48,824.639 C1749.83,828.545 1744.83,830.498 1739.49,830.498 C1736.36,830.498 1733.73,829.686 1731.58,828.061 C1729.56,826.3 1728.55,824.087 1728.55,821.42 C1728.55,817.056 1730.86,812.889 1735.49,808.92 C1740.11,804.952 1745.12,802.967 1750.52,802.967"/>
<path class="Note" d="M390.15,290.467 C393.275,290.467 395.88,291.248 397.963,292.811 C400.046,294.373 401.088,296.618 401.088,299.545 C401.088,304.035 398.762,308.232 394.111,312.139 C389.46,316.045 384.463,317.998 379.119,317.998 C375.994,317.998 373.359,317.186 371.213,315.561 C369.192,313.8 368.182,311.587 368.182,308.92 C368.182,304.555 370.494,300.389 375.119,296.42 C379.744,292.451 384.755,290.467 390.15,290.467"/>
<path class="Note" d="M1843.64,790.467 C1846.77,790.467 1849.37,791.248 1851.45,792.811 C1853.54,794.373 1854.58,796.618 1854.58,799.545 C1854.58,804.035 1852.25,808.233 1847.6,812.139 C1842.95,816.045 1837.95,817.998 1832.61,817.998 C1829.49,817.998 1826.85,817.186 1824.7,815.561 C1822.68,813.8 1821.67,811.587 1821.67,808.92 C1821.67,804.556 1823.99,800.389 1828.61,796.42 C1833.24,792.452 1838.25,790.467 1843.64,790.467"/>
<path class="Note" d="M2245.14,727.967 C2248.26,727.967 2250.86,728.748 2252.95,730.311 C2255.03,731.873 2256.07,734.118 2256.07,737.045 C2256.07,741.535 2253.75,745.733 2249.1,749.639 C2244.44,753.545 2239.45,755.498 2234.1,755.498 C2230.98,755.498 2228.34,754.686 2226.2,753.061 C2224.18,751.3 2223.17,749.087 2223.17,746.42 C2223.17,742.056 2225.48,737.889 2230.1,733.92 C2234.73,729.951 2239.74,727.967 2245.14,727.967"/>
<path class="Note" d="M1905.72,777.967 C1908.85,777.967 1911.45,778.748 1913.54,780.311 C1915.62,781.873 1916.66,784.118 1916.66,787.045 C1916.66,791.535 1914.34,795.733 1909.68,799.639 C1905.03,803.545 1900.04,805.498 1894.69,805.498 C1891.57,805.498 1888.93,804.686 1886.79,803.061 C1884.77,801.3 1883.76,799.087 1883.76,796.42 C1883.76,792.056 1886.07,787.889 1890.69,783.92 C1895.32,779.952 1900.33,777.967 1905.72,777.967"/>
<path class="Note" d="M2586.59,677.967 C2589.71,677.967 2592.32,678.748 2594.4,680.311 C2596.48,681.873 2597.52,684.118 2597.52,687.045 C2597.52,691.535 2595.2,695.733 2590.55,699.639 C2585.9,703.545 2580.9,705.498 2575.56,705.498 C2572.43,705.498 2569.8,704.686 2567.65,703.061 C2565.63,701.3 2564.62,699.087 2564.62,696.42 C2564.62,692.056 2566.93,687.889 2571.56,683.92 C2576.18,679.951 2581.19,677.967 2586.59,677.967"/>
<path class="Note" d="M1998.85,765.467 C2001.97,765.467 2004.58,766.248 2006.66,767.811 C2008.74,769.373 2009.78,771.618 2009.78,774.545 C2009.78,779.035 2007.46,783.233 2002.81,787.139 C1998.16,791.045 1993.16,792.998 1987.82,792.998 C1984.69,792.998 1982.06,792.186 1979.91,790.561 C1977.89,788.8 1976.88,786.587 1976.88,783.92 C1976.88,779.556 1979.19,775.389 1983.82,771.42 C1988.44,767.452 1993.45,765.467 1998.85,765.467"/>
<path class="Note" d="M462.76,302.967 C465.885,302.967 468.489,303.748 470.573,305.311 C472.656,306.873 473.698,309.118 473.698,312.045 C473.698,316.535 471.372,320.732 466.721,324.639 C462.07,328.545 457.073,330.498 451.729,330.498 C448.604,330.498 445.969,329.686 443.823,328.061 C441.802,326.3 440.792,324.087 440.792,321.42 C440.792,317.055 443.104,312.889 447.729,308.92 C452.354,304.951 457.364,302.967 462.76,302.967"/>
<path class="Note" d="M2060.93,752.967 C2064.05,752.967 2066.66,753.748 2068.74,755.311 C2070.83,756.873 2071.87,759.118 2071.87,762.045 C2071.87,766.535 2069.54,770.733 2064.89,774.639 C2060.24,778.545 2055.24,780.498 2049.9,780.498 C2046.77,780.498 2044.14,779.686 2041.99,778.061 C2039.97,776.3 2038.96,774.087 2038.96,771.42 C2038.96,767.056 2041.27,762.889 2045.9,758.92 C2050.52,754.952 2055.53,752.967 2060.93,752.967"/>
<path class="Note" d="M535.37,327.967 C538.495,327.967 541.099,328.748 543.183,330.311 C545.266,331.873 546.308,334.118 546.308,337.045 C546.308,341.535 543.982,345.732 539.331,349.639 C534.68,353.545 529.683,355.498 524.339,355.498 C521.214,355.498 518.578,354.686 516.433,353.061 C514.412,351.3 513.401,349.087 513.401,346.42 C513.401,342.055 515.714,337.889 520.339,333.92 C524.964,329.951 529.974,327.967 535.37,327.967"/>
<path class="Note" d="M2154.05,740.467 C2157.18,740.467 2159.78,741.248 2161.87,742.811 C2163.95,744.373 2164.99,746.618 2164.99,749.545 C2164.99,754.035 2162.66,758.233 2158.01,762.139 C2153.36,766.045 2148.37,767.998 2143.02,767.998 C2139.9,767.998 2137.26,767.186 2135.12,765.561 C2133.09,763.8 2132.08,761.587 2132.08,758.92 C2132.08,754.556 2134.4,750.389 2139.02,746.42 C2143.65,742.451 2148.66,740.467 2154.05,740.467"/>
<path class="Note" d="M2120.24,327.967 C2123.36,327.967 2125.97,328.748 2128.05,330.311 C2130.13,331.873 2131.18,334.118 2131.18,337.045 C2131.18,341.535 2128.85,345.732 2124.2,349.639 C2119.55,353.545 2114.55,355.498 2109.21,355.498 C2106.08,355.498 2103.45,354.686 2101.3,353.061 C2099.28,351.3 2098.27,349.087 2098.27,346.42 C2098.27,342.055 2100.58,337.889 2105.21,333.92 C2109.83,329.951 2114.84,327.967 2120.24,327.967"/>
<path class="Note" d="M810.36,314.873 C812.246,314.873 816.201,312.92 822.227,309.014 C828.254,305.107 831.803,302.488 832.876,301.154 C833.949,299.821 834.485,298.634 834.485,297.592 C834.485,296.55 834.061,295.623 833.212,294.811 C832.363,293.998 831.386,293.592 830.282,293.592 C828.334,293.592 824.347,295.561 818.321,299.498 C812.295,303.436 808.761,306.055 807.72,307.357 C806.678,308.66 806.157,309.831 806.157,310.873 C806.157,311.915 806.566,312.842 807.384,313.654 C808.201,314.467 809.194,314.873 810.36,314.873 M829.313,290.467 C834.907,290.467 837.704,292.873 837.704,297.686 C837.704,300.029 837.022,302.748 835.657,305.842 C834.293,308.936 832.47,311.295 830.188,312.92 C825.178,316.305 818.897,317.998 811.345,317.998 C805.741,317.998 802.938,315.592 802.938,310.779 C802.938,308.634 803.605,305.964 804.938,302.772 C806.272,299.579 808.11,297.17 810.454,295.545 C815.475,292.16 821.761,290.467 829.313,290.467"/>
<path class="Note" d="M309.201,765.467 C312.326,765.467 314.93,766.248 317.014,767.811 C319.097,769.373 320.139,771.618 320.139,774.545 C320.139,779.035 317.813,783.233 313.162,787.139 C308.511,791.045 303.514,792.998 298.17,792.998 C295.045,792.998 292.41,792.186 290.264,790.561 C288.243,788.8 287.232,786.587 287.232,783.92 C287.232,779.556 289.545,775.389 294.17,771.42 C298.795,767.452 303.805,765.467 309.201,765.467"/>
<path class="Note" d="M2462.42,690.467 C2465.55,690.467 2468.15,691.248 2470.24,692.811 C2472.32,694.373 2473.36,696.618 2473.36,699.545 C2473.36,704.035 2471.03,708.233 2466.38,712.139 C2461.73,716.045 2456.74,717.998 2451.39,717.998 C2448.27,717.998 2445.63,717.186 2443.49,715.561 C2441.46,713.8 2440.45,711.587 2440.45,708.92 C2440.45,704.556 2442.77,700.389 2447.39,696.42 C2452.02,692.451 2457.03,690.467 2462.42,690.467"/>
<path class="Note" d="M2774.75,377.967 C2777.87,377.967 2780.48,378.748 2782.56,380.311 C2784.65,381.873 2785.69,384.118 2785.69,387.045 C2785.69,391.535 2783.36,395.733 2778.71,399.639 C2774.06,403.545 2769.06,405.498 2763.72,405.498 C2760.59,405.498 2757.96,404.686 2755.81,403.061 C2753.79,401.3 2752.78,399.087 2752.78,396.42 C2752.78,392.055 2755.09,387.889 2759.72,383.92 C2764.34,379.951 2769.35,377.967 2774.75,377.967"/>
<path class="Note" d="M1466.75,290.467 C1469.87,290.467 1472.48,291.248 1474.56,292.811 C1476.65,294.373 1477.69,296.618 1477.69,299.545 C1477.69,304.035 1475.36,308.232 1470.71,312.139 C1466.06,316.045 1461.06,317.998 1455.72,317.998 C1452.59,317.998 1449.96,317.186 1447.81,315.561 C1445.79,313.8 1444.78,311.587 1444.78,308.92 C1444.78,304.555 1447.09,300.389 1451.72,296.42 C1456.34,292.451 1461.35,290.467 1466.75,290.467"/>
<path class="Note" d="M2316.22,377.373 C2318.1,377.373 2322.06,375.42 2328.08,371.514 C2334.11,367.608 2337.66,364.988 2338.73,363.654 C2339.8,362.321 2340.34,361.134 2340.34,360.092 C2340.34,359.05 2339.92,358.123 2339.07,357.311 C2338.22,356.498 2337.24,356.092 2336.14,356.092 C2334.19,356.092 2330.2,358.061 2324.18,361.998 C2318.15,365.936 2314.62,368.555 2313.58,369.858 C2312.53,371.16 2312.01,372.331 2312.01,373.373 C2312.01,374.415 2312.42,375.342 2313.24,376.154 C2314.06,376.967 2315.05,377.373 2316.22,377.373 M2335.17,352.967 C2340.76,352.967 2343.56,355.373 2343.56,360.186 C2343.56,362.529 2342.88,365.248 2341.51,368.342 C2340.15,371.436 2338.33,373.795 2336.04,375.42 C2331.03,378.805 2324.75,380.498 2317.2,380.498 C2311.6,380.498 2308.79,378.092 2308.79,373.279 C2308.79,371.134 2309.46,368.464 2310.79,365.272 C2312.13,362.079 2313.97,359.67 2316.31,358.045 C2321.33,354.66 2327.62,352.967 2335.17,352.967"/>
<path class="Note" d="M1539.36,302.967 C1542.48,302.967 1545.09,303.748 1547.17,305.311 C1549.26,306.873 1550.3,309.118 1550.3,312.045 C1550.3,316.535 1547.97,320.732 1543.32,324.639 C1538.67,328.545 1533.67,330.498 1528.33,330.498 C1525.2,330.498 1522.57,329.686 1520.42,328.061 C1518.4,326.3 1517.39,324.087 1517.39,321.42 C1517.39,317.055 1519.7,312.889 1524.33,308.92 C1528.95,304.951 1533.96,302.967 1539.36,302.967"/>
<path class="Note" d="M2229.15,340.467 C2232.28,340.467 2234.88,341.248 2236.97,342.811 C2239.05,344.373 2240.09,346.618 2240.09,349.545 C2240.09,354.035 2237.77,358.232 2233.11,362.139 C2228.46,366.045 2223.47,367.998 2218.12,367.998 C2215,367.998 2212.36,367.186 2210.22,365.561 C2208.19,363.8 2207.18,361.587 2207.18,358.92 C2207.18,354.555 2209.5,350.389 2214.12,346.42 C2218.75,342.451 2223.76,340.467 2229.15,340.467"/>
<path class="Note" d="M607.98,290.467 C611.105,290.467 613.709,291.248 615.792,292.811 C617.876,294.373 618.917,296.618 618.917,299.545 C618.917,304.035 616.592,308.232 611.941,312.139 C607.29,316.045 602.292,317.998 596.949,317.998 C593.824,317.998 591.188,317.186 589.042,315.561 C587.022,313.8 586.011,311.587 586.011,308.92 C586.011,304.555 588.324,300.389 592.949,296.42 C597.574,292.451 602.584,290.467 607.98,290.467"/>
<path class="Note" d="M2047.63,315.467 C2050.75,315.467 2053.36,316.248 2055.44,317.811 C2057.52,319.373 2058.57,321.618 2058.57,324.545 C2058.57,329.035 2056.24,333.232 2051.59,337.139 C2046.94,341.045 2041.94,342.998 2036.6,342.998 C2033.47,342.998 2030.84,342.186 2028.69,340.561 C2026.67,338.8 2025.66,336.587 2025.66,333.92 C2025.66,329.555 2027.97,325.389 2032.6,321.42 C2037.22,317.451 2042.23,315.467 2047.63,315.467"/>
<path class="Note" d="M1975.02,302.967 C1978.14,302.967 1980.75,303.748 1982.83,305.311 C1984.91,306.873 1985.96,309.118 1985.96,312.045 C1985.96,316.535 1983.63,320.732 1978.98,324.639 C1974.33,328.545 1969.33,330.498 1963.99,330.498 C1960.86,330.498 1958.23,329.686 1956.08,328.061 C1954.06,326.3 1953.05,324.087 1953.05,321.42 C1953.05,317.055 1955.36,312.889 1959.99,308.92 C1964.61,304.951 1969.62,302.967 1975.02,302.967"/>
<path class="Note" d="M1611.97,327.967 C1615.09,327.967 1617.7,328.748 1619.78,330.311 C1621.87,331.873 1622.91,334.118 1622.91,337.045 C1622.91,341.535 1620.58,345.732 1615.93,349.639 C1611.28,353.545 1606.28,355.498 1600.94,355.498 C1597.81,355.498 1595.18,354.686 1593.03,353.061 C1591.01,351.3 1590,349.087 1590,346.42 C1590,342.055 1592.31,337.889 1596.94,333.92 C1601.56,329.951 1606.57,327.967 1611.97,327.967"/>
<path class="Note" d="M1902.41,290.467 C1905.53,290.467 1908.14,291.248 1910.22,292.811 C1912.3,294.373 1913.35,296.618 1913.35,299.545 C1913.35,304.035 1911.02,308.232 1906.37,312.139 C1901.72,316.045 1896.72,317.998 1891.38,317.998 C1888.25,317.998 1885.62,317.186 1883.47,315.561 C1881.45,313.8 1880.44,311.587 1880.44,308.92 C1880.44,304.555 1882.75,300.389 1887.38,296.42 C1892,292.451 1897.01,290.467 1902.41,290.467"/>
<path class="Note" d="M1829.8,327.967 C1832.92,327.967 1835.53,328.748 1837.61,330.311 C1839.69,331.873 1840.74,334.118 1840.74,337.045 C1840.74,341.535 1838.41,345.732 1833.76,349.639 C1829.11,353.545 1824.11,355.498 1818.77,355.498 C1815.64,355.498 1813.01,354.686 1810.86,353.061 C1808.84,351.3 1807.83,349.087 1807.83,346.42 C1807.83,342.055 1810.14,337.889 1814.77,333.92 C1819.39,329.951 1824.4,327.967 1829.8,327.967"/>
<path class="Note" d="M1757.19,302.967 C1760.31,302.967 1762.92,303.748 1765,305.311 C1767.09,306.873 1768.13,309.118 1768.13,312.045 C1768.13,316.535 1765.8,320.732 1761.15,324.639 C1756.5,328.545 1751.5,330.498 1746.16,330.498 C1743.03,330.498 1740.4,329.686 1738.25,328.061 C1736.23,326.3 1735.22,324.087 1735.22,321.42 C1735.22,317.055 1737.53,312.889 1742.16,308.92 C1746.78,304.951 1751.79,302.967 1757.19,302.967"/>
<path class="Note" d="M2524.51,677.967 C2527.63,677.967 2530.23,678.748 2532.32,680.311 C2534.4,681.873 2535.44,684.118 2535.44,687.045 C2535.44,691.535 2533.12,695.733 2528.47,699.639 C2523.82,703.545 2518.82,705.498 2513.47,705.498 C2510.35,705.498 2507.71,704.686 2505.57,703.061 C2503.55,701.3 2502.54,699.087 2502.54,696.42 C2502.54,692.056 2504.85,687.889 2509.47,683.92 C2514.1,679.951 2519.11,677.967 2524.51,677.967"/>
<path class="Note" d="M433.366,802.967 C436.491,802.967 439.095,803.748 441.178,805.311 C443.262,806.873 444.303,809.118 444.303,812.045 C444.303,816.535 441.978,820.733 437.327,824.639 C432.676,828.545 427.678,830.498 422.334,830.498 C419.209,830.498 416.574,829.686 414.428,828.061 C412.407,826.3 411.397,824.087 411.397,821.42 C411.397,817.056 413.709,812.889 418.334,808.92 C422.959,804.952 427.97,802.967 433.366,802.967"/>
<path class="Note" d="M1595.31,827.967 C1598.44,827.967 1601.04,828.748 1603.13,830.311 C1605.21,831.873 1606.25,834.118 1606.25,837.045 C1606.25,841.535 1603.92,845.733 1599.27,849.639 C1594.62,853.545 1589.63,855.498 1584.28,855.498 C1581.16,855.498 1578.52,854.686 1576.38,853.061 C1574.35,851.301 1573.34,849.087 1573.34,846.42 C1573.34,842.056 1575.66,837.889 1580.28,833.92 C1584.91,829.952 1589.92,827.967 1595.31,827.967"/>
<path class="Note" d="M1487.63,852.967 C1490.75,852.967 1493.35,853.748 1495.44,855.311 C1497.52,856.873 1498.56,859.118 1498.56,862.045 C1498.56,866.535 1496.24,870.733 1491.59,874.639 C1486.93,878.545 1481.94,880.498 1476.59,880.498 C1473.47,880.498 1470.83,879.686 1468.69,878.061 C1466.67,876.301 1465.66,874.087 1465.66,871.42 C1465.66,867.056 1467.97,862.889 1472.59,858.92 C1477.22,854.952 1482.23,852.967 1487.63,852.967"/>
<path class="Note" d="M680.59,302.967 C683.715,302.967 686.319,303.748 688.402,305.311 C690.486,306.873 691.527,309.118 691.527,312.045 C691.527,316.535 689.202,320.732 684.551,324.639 C679.9,328.545 674.902,330.498 669.559,330.498 C666.434,330.498 663.798,329.686 661.652,328.061 C659.632,326.3 658.621,324.087 658.621,321.42 C658.621,317.055 660.934,312.889 665.559,308.92 C670.184,304.951 675.194,302.967 680.59,302.967"/>
<path class="Note" d="M2400.34,702.967 C2403.47,702.967 2406.07,703.748 2408.15,705.311 C2410.24,706.873 2411.28,709.118 2411.28,712.045 C2411.28,716.535 2408.95,720.733 2404.3,724.639 C2399.65,728.545 2394.65,730.498 2389.31,730.498 C2386.18,730.498 2383.55,729.686 2381.4,728.061 C2379.38,726.3 2378.37,724.087 2378.37,721.42 C2378.37,717.056 2380.68,712.889 2385.31,708.92 C2389.93,704.951 2394.94,702.967 2400.34,702.967"/>
<path class="Note" d="M1037.6,827.373 C1039.49,827.373 1043.44,825.42 1049.47,821.514 C1055.49,817.608 1059.04,814.988 1060.12,813.655 C1061.19,812.321 1061.73,811.134 1061.73,810.092 C1061.73,809.05 1061.3,808.123 1060.45,807.311 C1059.6,806.498 1058.63,806.092 1057.52,806.092 C1055.57,806.092 1051.59,808.061 1045.56,811.998 C1039.54,815.936 1036,818.556 1034.96,819.858 C1033.92,821.16 1033.4,822.332 1033.4,823.373 C1033.4,824.415 1033.81,825.342 1034.62,826.155 C1035.44,826.967 1036.43,827.373 1037.6,827.373 M1056.55,802.967 C1062.15,802.967 1064.94,805.373 1064.94,810.186 C1064.94,812.53 1064.26,815.248 1062.9,818.342 C1061.53,821.436 1059.71,823.795 1057.43,825.42 C1052.42,828.806 1046.14,830.498 1038.58,830.498 C1032.98,830.498 1030.18,828.092 1030.18,823.28 C1030.18,821.134 1030.84,818.465 1032.18,815.272 C1033.51,812.079 1035.35,809.67 1037.69,808.045 C1042.71,804.66 1049,802.967 1056.55,802.967"/>
<path class="Note" d="M753.2,327.967 C756.325,327.967 758.929,328.748 761.012,330.311 C763.096,331.873 764.137,334.118 764.137,337.045 C764.137,341.535 761.812,345.732 757.161,349.639 C752.51,353.545 747.512,355.498 742.168,355.498 C739.043,355.498 736.408,354.686 734.262,353.061 C732.241,351.3 731.231,349.087 731.231,346.42 C731.231,342.055 733.543,337.889 738.168,333.92 C742.793,329.951 747.804,327.967 753.2,327.967"/>
<path class="Note" d="M961.065,815.467 C964.19,815.467 966.794,816.248 968.877,817.811 C970.961,819.373 972.002,821.618 972.002,824.545 C972.002,829.035 969.677,833.233 965.026,837.139 C960.375,841.045 955.377,842.998 950.033,842.998 C946.908,842.998 944.273,842.186 942.127,840.561 C940.106,838.801 939.096,836.587 939.096,833.92 C939.096,829.556 941.408,825.389 946.033,821.42 C950.658,817.452 955.669,815.467 961.065,815.467"/>
<path class="Note" d="M867.941,802.967 C871.066,802.967 873.671,803.748 875.754,805.311 C877.837,806.873 878.879,809.118 878.879,812.045 C878.879,816.535 876.553,820.733 871.902,824.639 C867.251,828.545 862.254,830.498 856.91,830.498 C853.785,830.498 851.15,829.686 849.004,828.061 C846.983,826.3 845.973,824.087 845.973,821.42 C845.973,817.056 848.285,812.889 852.91,808.92 C857.535,804.952 862.546,802.967 867.941,802.967"/>
<path class="Note" d="M805.859,790.467 C808.984,790.467 811.588,791.248 813.672,792.811 C815.755,794.373 816.797,796.618 816.797,799.545 C816.797,804.035 814.471,808.233 809.82,812.139 C805.169,816.045 800.172,817.998 794.828,817.998 C791.703,817.998 789.067,817.186 786.922,815.561 C784.901,813.8 783.89,811.587 783.89,808.92 C783.89,804.556 786.203,800.389 790.828,796.42 C795.453,792.452 800.463,790.467 805.859,790.467"/>
<path class="Note" d="M743.777,777.967 C746.902,777.967 749.506,778.748 751.589,780.311 C753.673,781.873 754.714,784.118 754.714,787.045 C754.714,791.535 752.389,795.733 747.738,799.639 C743.087,803.545 738.089,805.498 732.746,805.498 C729.621,805.498 726.985,804.686 724.839,803.061 C722.819,801.3 721.808,799.087 721.808,796.42 C721.808,792.056 724.121,787.889 728.746,783.92 C733.371,779.952 738.381,777.967 743.777,777.967"/>
<path class="Note" d="M681.695,765.467 C684.82,765.467 687.424,766.248 689.507,767.811 C691.59,769.373 692.632,771.618 692.632,774.545 C692.632,779.035 690.307,783.233 685.656,787.139 C681.005,791.045 676.007,792.998 670.663,792.998 C667.538,792.998 664.903,792.186 662.757,790.561 C660.736,788.8 659.726,786.587 659.726,783.92 C659.726,779.556 662.038,775.389 666.663,771.42 C671.288,767.452 676.299,765.467 681.695,765.467"/>
<path class="Note" d="M619.612,802.967 C622.737,802.967 625.342,803.748 627.425,805.311 C629.508,806.873 630.55,809.118 630.55,812.045 C630.55,816.535 628.224,820.733 623.573,824.639 C618.922,828.545 613.925,830.498 608.581,830.498 C605.456,830.498 602.821,829.686 600.675,828.061 C598.654,826.3 597.644,824.087 597.644,821.42 C597.644,817.056 599.956,812.889 604.581,808.92 C609.206,804.952 614.217,802.967 619.612,802.967"/>
<path class="Note" d="M557.53,777.967 C560.655,777.967 563.259,778.748 565.343,780.311 C567.426,781.873 568.468,784.118 568.468,787.045 C568.468,791.535 566.142,795.733 561.491,799.639 C556.84,803.545 551.843,805.498 546.499,805.498 C543.374,805.498 540.739,804.686 538.593,803.061 C536.572,801.3 535.561,799.087 535.561,796.42 C535.561,792.056 537.874,787.889 542.499,783.92 C547.124,779.952 552.134,777.967 557.53,777.967"/>
<path class="Note" d="M495.448,765.467 C498.573,765.467 501.177,766.248 503.26,767.811 C505.344,769.373 506.385,771.618 506.385,774.545 C506.385,779.035 504.06,783.233 499.409,787.139 C494.758,791.045 489.76,792.998 484.417,792.998 C481.292,792.998 478.656,792.186 476.51,790.561 C474.49,788.8 473.479,786.587 473.479,783.92 C473.479,779.556 475.792,775.389 480.417,771.42 C485.042,767.452 490.052,765.467 495.448,765.467"/>
<path class="Note" d="M371.283,777.967 C374.408,777.967 377.013,778.748 379.096,780.311 C381.179,781.873 382.221,784.118 382.221,787.045 C382.221,791.535 379.895,795.733 375.244,799.639 C370.593,803.545 365.596,805.498 360.252,805.498 C357.127,805.498 354.492,804.686 352.346,803.061 C350.325,801.3 349.315,799.087 349.315,796.42 C349.315,792.056 351.627,787.889 356.252,783.92 C360.877,779.952 365.888,777.967 371.283,777.967"/>
<path class="Clef" d="M203.623,423.858 L203.623,421.717 C203.56,420.613 203.399,418.889 203.139,416.545 C199.889,417.066 196.993,417.326 194.451,417.326 C185.337,417.326 177.605,413.727 171.256,406.529 C164.907,399.331 161.732,390.753 161.732,380.795 C161.732,378.128 162.253,374.923 163.295,371.178 C164.337,367.433 165.297,364.925 166.178,363.654 C167.058,362.384 168.378,360.154 170.139,356.967 C170.659,355.988 172.352,353.837 175.217,350.514 C175.738,349.805 176.193,349.222 176.584,348.764 C176.975,348.305 177.607,347.49 178.482,346.318 C179.357,345.147 180.3,344.055 181.31,343.045 C182.321,342.035 183.217,341.058 183.998,340.115 C184.779,339.173 185.498,338.378 186.154,337.733 C183.81,329.983 182.378,324.024 181.857,319.858 C181.337,315.691 181.076,310.579 181.076,304.522 C181.076,298.464 182.378,292.962 184.982,288.014 C187.514,282.878 191.06,278.68 195.623,275.42 C195.883,275.222 196.225,275.123 196.646,275.123 C197.068,275.123 197.378,275.222 197.576,275.42 C201.087,279.649 204.128,285.149 206.701,291.92 C209.274,298.691 210.56,305.024 210.56,310.92 C210.56,316.816 209.066,322.498 206.076,327.967 C202.691,333.759 198.326,339.748 192.982,345.936 C194.347,350.227 196.17,356.962 198.451,366.139 L199.045,366.139 C199.305,366.076 199.529,366.045 199.717,366.045 C207.081,366.045 213.089,368.634 217.74,373.811 C222.391,378.988 224.717,384.962 224.717,391.733 C224.717,400.128 221.238,406.899 214.279,412.045 C212.258,413.545 209.878,414.717 207.139,415.561 C207.472,419.79 207.639,422.605 207.639,424.006 C207.639,425.407 207.571,427.899 207.435,431.483 C207.373,437.597 205.29,442.837 201.185,447.201 C197.081,451.566 192.394,453.748 187.123,453.748 C181.852,453.748 177.36,451.876 173.646,448.131 C169.933,444.386 168.076,439.847 168.076,434.514 C168.076,431.712 169.154,429.331 171.31,427.373 C173.519,425.425 176.006,424.451 178.771,424.451 C181.537,424.451 183.8,425.462 185.56,427.483 C187.383,429.368 188.295,431.644 188.295,434.311 C188.295,436.977 187.383,439.222 185.56,441.045 C183.738,442.868 181.555,443.779 179.014,443.779 C177.972,443.779 176.967,443.587 175.998,443.201 C178.863,447.43 182.54,449.545 187.029,449.545 C191.519,449.545 195.36,447.691 198.553,443.983 C201.745,440.274 203.342,435.91 203.342,430.889 L203.623,423.858 M206.748,411.561 C210.133,410.321 212.821,408.123 214.81,404.967 C216.8,401.811 217.795,398.67 217.795,395.545 C217.795,390.92 216.199,386.785 213.006,383.139 C209.813,379.493 205.774,377.441 200.889,376.983 C203.691,390.722 205.644,402.248 206.748,411.561 M168.967,388.998 C168.967,395.446 171.537,401.079 176.678,405.897 C181.818,410.714 187.842,413.123 194.748,413.123 C197.477,413.123 200.144,412.925 202.748,412.529 C201.706,402.634 199.654,390.785 196.592,376.983 C192.758,377.378 189.782,378.699 187.662,380.943 C185.542,383.188 184.482,385.743 184.482,388.608 C184.482,393.555 187.123,397.561 192.404,400.623 C192.852,400.884 193.076,401.324 193.076,401.943 C193.076,402.563 192.865,403.1 192.443,403.553 C192.021,404.006 191.649,404.233 191.326,404.233 C191.003,404.233 190.581,404.17 190.06,404.045 C182.435,399.878 178.623,393.592 178.623,385.186 C178.623,381.217 180.024,377.41 182.826,373.764 C185.753,370.118 189.56,367.774 194.248,366.733 C192.425,359.441 190.93,353.743 189.764,349.639 C180.847,359.67 175.31,367.092 173.154,371.904 C170.363,378.154 168.967,383.852 168.967,388.998 M201.576,289.686 C196.691,292.092 192.834,295.574 190.006,300.131 C187.178,304.688 185.764,309.472 185.764,314.483 C185.764,319.493 186.935,325.972 189.279,333.92 C193.967,328.253 197.514,322.946 199.92,317.998 C202.326,313.05 203.529,308.152 203.529,303.303 C203.529,298.454 202.878,293.915 201.576,289.686"/>
<path class="Clef" d="M203.623,898.858 L203.623,896.717 C203.56,895.613 203.399,893.889 203.139,891.545 C199.889,892.066 196.993,892.327 194.451,892.327 C185.337,892.327 177.605,888.728 171.256,881.53 C164.907,874.332 161.732,865.754 161.732,855.795 C161.732,853.129 162.253,849.923 163.295,846.178 C164.337,842.433 165.297,839.926 166.178,838.655 C167.058,837.384 168.378,835.155 170.139,831.967 C170.659,830.988 172.352,828.837 175.217,825.514 C175.738,824.806 176.193,824.222 176.584,823.764 C176.975,823.306 177.607,822.491 178.482,821.319 C179.357,820.147 180.3,819.056 181.31,818.045 C182.321,817.035 183.217,816.058 183.998,815.116 C184.779,814.173 185.498,813.379 186.154,812.733 C183.81,804.983 182.378,799.024 181.857,794.858 C181.337,790.691 181.076,785.579 181.076,779.522 C181.076,773.465 182.378,767.962 184.982,763.014 C187.514,757.879 191.06,753.681 195.623,750.42 C195.883,750.222 196.225,750.123 196.646,750.123 C197.068,750.123 197.378,750.222 197.576,750.42 C201.087,754.649 204.128,760.149 206.701,766.92 C209.274,773.691 210.56,780.024 210.56,785.92 C210.56,791.816 209.066,797.498 206.076,802.967 C202.691,808.759 198.326,814.748 192.982,820.936 C194.347,825.228 196.17,831.962 198.451,841.139 L199.045,841.139 C199.305,841.077 199.529,841.045 199.717,841.045 C207.081,841.045 213.089,843.634 217.74,848.811 C222.391,853.988 224.717,859.962 224.717,866.733 C224.717,875.129 221.238,881.899 214.279,887.045 C212.258,888.545 209.878,889.717 207.139,890.561 C207.472,894.79 207.639,897.605 207.639,899.006 C207.639,900.407 207.571,902.899 207.435,906.483 C207.373,912.597 205.29,917.837 201.185,922.202 C197.081,926.566 192.394,928.748 187.123,928.748 C181.852,928.748 177.36,926.876 173.646,923.131 C169.933,919.386 168.076,914.847 168.076,909.514 C168.076,906.712 169.154,904.332 171.31,902.373 C173.519,900.426 176.006,899.452 178.771,899.452 C181.537,899.452 183.8,900.462 185.56,902.483 C187.383,904.368 188.295,906.644 188.295,909.311 C188.295,911.978 187.383,914.222 185.56,916.045 C183.738,917.868 181.555,918.78 179.014,918.78 C177.972,918.78 176.967,918.587 175.998,918.202 C178.863,922.431 182.54,924.545 187.029,924.545 C191.519,924.545 195.36,922.691 198.553,918.983 C201.745,915.274 203.342,910.91 203.342,905.889 L203.623,898.858 M206.748,886.561 C210.133,885.321 212.821,883.123 214.81,879.967 C216.8,876.811 217.795,873.67 217.795,870.545 C217.795,865.92 216.199,861.785 213.006,858.139 C209.813,854.493 205.774,852.441 200.889,851.983 C203.691,865.722 205.644,877.248 206.748,886.561 M168.967,863.998 C168.967,870.446 171.537,876.079 176.678,880.897 C181.818,885.715 187.842,888.123 194.748,888.123 C197.477,888.123 200.144,887.926 202.748,887.53 C201.706,877.634 199.654,865.785 196.592,851.983 C192.758,852.379 189.782,853.699 187.662,855.944 C185.542,858.189 184.482,860.743 184.482,863.608 C184.482,868.556 187.123,872.561 192.404,875.623 C192.852,875.884 193.076,876.324 193.076,876.944 C193.076,877.564 192.865,878.1 192.443,878.553 C192.021,879.006 191.649,879.233 191.326,879.233 C191.003,879.233 190.581,879.17 190.06,879.045 C182.435,874.879 178.623,868.592 178.623,860.186 C178.623,856.217 180.024,852.41 182.826,848.764 C185.753,845.118 189.56,842.774 194.248,841.733 C192.425,834.441 190.93,828.743 189.764,824.639 C180.847,834.67 175.31,842.092 173.154,846.905 C170.363,853.155 168.967,858.853 168.967,863.998 M201.576,764.686 C196.691,767.092 192.834,770.574 190.006,775.131 C187.178,779.689 185.764,784.472 185.764,789.483 C185.764,794.493 186.935,800.972 189.279,808.92 C193.967,803.254 197.514,797.946 199.92,792.998 C202.326,788.051 203.529,783.152 203.529,778.303 C203.529,773.454 202.878,768.915 201.576,764.686"/>
<path class="TimeSig" d="M261.975,316.287 C262.167,316.287 262.883,316.548 264.123,317.068 C265.363,317.589 266.42,317.85 267.295,317.85 C268.17,317.85 269.097,317.623 270.076,317.17 C271.055,316.717 271.644,316.49 271.842,316.49 C272.55,316.49 272.972,317.042 273.107,318.147 L273.107,354.865 C273.107,357.407 273.79,359.621 275.154,361.506 C276.592,363.329 278.352,364.24 280.436,364.24 C281.217,364.24 281.607,364.631 281.607,365.412 C281.607,366.193 281.217,366.584 280.436,366.584 C278.54,366.584 276.258,366.373 273.592,365.951 C270.925,365.529 268.811,365.318 267.248,365.318 C265.686,365.318 263.472,365.529 260.607,365.951 C257.743,366.373 255.592,366.584 254.154,366.584 C253.373,366.584 252.982,366.193 252.982,365.412 C252.982,364.631 253.373,364.24 254.154,364.24 C256.238,364.24 257.998,363.329 259.436,361.506 C260.8,359.621 261.482,357.407 261.482,354.865 L261.482,330.35 C261.482,330.027 261.321,329.636 260.998,329.178 C260.675,328.719 260.269,328.49 259.779,328.49 C259.29,328.49 258.946,328.719 258.748,329.178 L252.404,342.756 C252.144,343.412 251.753,343.74 251.232,343.74 C250.712,343.74 250.303,343.592 250.006,343.295 C249.709,342.998 249.561,342.738 249.561,342.514 C249.561,342.29 249.628,341.98 249.764,341.584 L261.482,316.584 C261.618,316.386 261.782,316.287 261.975,316.287"/>
<path class="TimeSig" d="M304.357,366.584 C302.399,366.584 300.639,366.227 299.076,365.514 C297.514,364.8 296.342,363.985 295.561,363.068 C293.8,360.985 292.008,359.943 290.186,359.943 C288.363,359.943 286.883,360.449 285.748,361.459 C284.613,362.469 283.977,363.818 283.842,365.506 C283.717,366.225 283.295,366.584 282.576,366.584 C281.857,366.584 281.498,366.225 281.498,365.506 C281.498,361.016 283.519,357.016 287.561,353.506 C289.508,351.808 291.232,350.407 292.732,349.303 C294.232,348.199 296.055,346.735 298.201,344.912 C302.753,340.996 305.029,336.371 305.029,331.037 C305.029,327.714 304.477,324.85 303.373,322.443 C302.206,320.1 300.415,318.928 297.998,318.928 C296.508,318.928 295.29,319.253 294.342,319.904 C293.394,320.555 292.92,321.386 292.92,322.397 C292.92,323.407 293.506,324.594 294.678,325.959 C295.85,327.324 296.436,328.464 296.436,329.381 C296.436,331.329 295.769,332.969 294.436,334.303 C293.102,335.636 291.475,336.303 289.553,336.303 C287.631,336.303 285.988,335.621 284.623,334.256 C283.321,332.829 282.67,331.204 282.67,329.381 C282.67,325.662 284.167,322.6 287.162,320.193 C290.157,317.787 293.967,316.584 298.592,316.584 C303.217,316.584 307.383,317.917 311.092,320.584 C314.8,323.251 316.654,326.735 316.654,331.037 C316.654,336.964 314.67,341.199 310.701,343.74 C307.253,345.949 303.607,347.818 299.764,349.35 C295.92,350.881 293.248,352.136 291.748,353.115 C292.602,352.917 293.482,352.818 294.389,352.818 C297.316,352.818 300.441,353.795 303.764,355.748 C307.087,357.701 309.725,358.678 311.678,358.678 C313.631,358.678 314.868,358.042 315.389,356.772 C315.91,355.501 316.462,354.865 317.045,354.865 C317.826,354.865 318.217,355.256 318.217,356.037 C318.217,357.86 316.93,360.074 314.357,362.678 C311.785,365.282 308.451,366.584 304.357,366.584"/>
<path class="TimeSig" d="M291.186,387.92 C294.446,384.337 296.076,381.081 296.076,378.154 C296.076,375.227 294.954,372.983 292.709,371.42 C290.464,369.858 287.956,369.076 285.186,369.076 C282.415,369.076 280.347,369.792 278.982,371.225 C277.618,372.657 276.936,374.399 276.936,376.451 C276.936,378.503 277.946,380.144 279.967,381.373 L291.186,387.92 M266.779,380.592 C266.779,376.686 268.373,373.399 271.561,370.733 C274.748,368.066 278.751,366.733 283.568,366.733 C288.386,366.733 292.391,367.693 295.584,369.615 C298.777,371.537 300.373,374.238 300.373,377.717 C300.373,381.196 298.321,385.149 294.217,389.576 C299.748,392.774 302.514,397.04 302.514,402.373 C302.514,406.352 300.855,409.74 297.537,412.537 C294.219,415.334 289.792,416.733 284.256,416.733 C278.719,416.733 274.227,415.43 270.779,412.826 C267.133,410.222 265.311,406.868 265.311,402.764 C265.311,401.274 265.769,399.748 266.686,398.186 C267.467,396.425 269.55,393.946 272.936,390.748 C268.831,387.884 266.779,384.498 266.779,380.592 M275.951,392.514 C271.857,396.16 269.811,399.626 269.811,402.912 C269.811,406.199 271.16,408.933 273.857,411.115 C276.555,413.298 279.516,414.389 282.74,414.389 C285.964,414.389 288.326,413.545 289.826,411.858 C291.389,410.295 292.17,408.243 292.17,405.701 C292.17,403.16 291.029,401.238 288.748,399.936 L275.951,392.514 "/>
<path class="Rest" d="M1300.42,841.733 L1264.87,841.733 C1264.22,841.733 1263.89,841.405 1263.89,840.748 L1263.89,827.077 C1263.89,826.431 1264.22,826.108 1264.87,826.108 L1300.42,826.108 C1301.07,826.108 1301.39,826.431 1301.39,827.077 L1301.39,840.748 C1301.39,841.405 1301.07,841.733 1300.42,841.733"/>
<path class="Rest" d="M1171.16,836.452 C1170.5,835.608 1170.17,834.696 1170.17,833.717 C1170.17,831.967 1172.26,829.53 1176.44,826.405 C1180.53,823.207 1182.58,819.561 1182.58,815.467 C1182.58,813.051 1181.73,810.837 1180.05,808.827 L1176.53,804.623 C1176.27,804.363 1176.14,804.037 1176.14,803.647 C1176.14,803.256 1176.33,802.899 1176.72,802.577 C1177.18,802.243 1177.6,802.077 1177.99,802.077 C1178.38,802.077 1178.71,802.274 1178.97,802.67 L1194.11,820.639 C1194.76,821.483 1195.08,822.41 1195.08,823.42 C1195.08,824.431 1194.54,825.522 1193.47,826.694 C1192.4,827.866 1190.89,829.233 1188.94,830.795 C1187.44,831.702 1186.02,833.131 1184.69,835.084 C1183.35,837.037 1182.69,839.254 1182.69,841.733 C1182.69,844.212 1183.47,846.394 1185.03,848.28 L1193.42,858.139 C1193.62,858.337 1193.75,858.662 1193.81,859.116 C1193.88,859.569 1193.71,859.959 1193.32,860.287 C1192.93,860.616 1192.62,860.78 1192.4,860.78 C1192.17,860.78 1191.59,860.405 1190.64,859.655 C1189.69,858.905 1188.36,858.173 1186.63,857.459 C1184.91,856.746 1183.2,856.389 1181.51,856.389 C1179.82,856.389 1178.48,856.845 1177.51,857.756 C1176.53,858.668 1176.05,860.767 1176.05,864.053 C1176.05,867.34 1176.99,870.123 1178.88,872.405 C1179.07,872.665 1179.11,872.957 1178.98,873.28 C1178.85,873.603 1178.59,873.764 1178.2,873.764 C1177.8,873.764 1176.81,872.561 1175.21,870.155 C1173.61,867.748 1172.08,864.899 1170.62,861.608 C1169.15,858.316 1168.42,855.566 1168.42,853.358 C1168.42,850.556 1169.85,849.155 1172.72,849.155 C1175.58,849.155 1179.46,850.196 1184.34,852.28 L1171.16,836.452 "/>
<path class="Rest" d="M2683.06,836.452 C2682.4,835.608 2682.07,834.696 2682.07,833.717 C2682.07,831.967 2684.16,829.53 2688.34,826.405 C2692.43,823.207 2694.48,819.561 2694.48,815.467 C2694.48,813.051 2693.64,810.837 2691.95,808.827 L2688.43,804.623 C2688.17,804.363 2688.04,804.037 2688.04,803.647 C2688.04,803.256 2688.24,802.899 2688.62,802.577 C2689.08,802.243 2689.5,802.077 2689.9,802.077 C2690.29,802.077 2690.61,802.274 2690.87,802.67 L2706.01,820.639 C2706.66,821.483 2706.98,822.41 2706.98,823.42 C2706.98,824.431 2706.44,825.522 2705.37,826.694 C2704.3,827.866 2702.79,829.233 2700.84,830.795 C2699.34,831.702 2697.92,833.131 2696.59,835.084 C2695.26,837.037 2694.59,839.254 2694.59,841.733 C2694.59,844.212 2695.37,846.394 2696.93,848.28 L2705.32,858.139 C2705.52,858.337 2705.65,858.662 2705.72,859.116 C2705.78,859.569 2705.61,859.959 2705.22,860.287 C2704.83,860.616 2704.53,860.78 2704.3,860.78 C2704.08,860.78 2703.49,860.405 2702.54,859.655 C2701.6,858.905 2700.26,858.173 2698.54,857.459 C2696.81,856.746 2695.1,856.389 2693.41,856.389 C2691.72,856.389 2690.38,856.845 2689.41,857.756 C2688.44,858.668 2687.95,860.767 2687.95,864.053 C2687.95,867.34 2688.89,870.123 2690.78,872.405 C2690.98,872.665 2691.01,872.957 2690.88,873.28 C2690.75,873.603 2690.49,873.764 2690.1,873.764 C2689.71,873.764 2688.71,872.561 2687.11,870.155 C2685.51,867.748 2683.98,864.899 2682.52,861.608 C2681.06,858.316 2680.32,855.566 2680.32,853.358 C2680.32,850.556 2681.76,849.155 2684.62,849.155 C2687.49,849.155 2691.36,850.196 2696.25,852.28 L2683.06,836.452 "/>
<path class="Rest" d="M2699.12,359.108 C2694.96,360.608 2691.57,361.358 2688.97,361.358 C2686.36,361.358 2684.2,360.626 2682.47,359.162 C2680.74,357.699 2679.87,355.876 2679.87,353.693 C2679.87,351.511 2680.59,349.719 2682.02,348.318 C2683.45,346.917 2685.15,346.217 2687.1,346.217 C2689.05,346.217 2690.52,346.772 2691.5,347.881 C2692.48,348.99 2693.02,350.05 2693.12,351.061 C2693.22,352.071 2693.53,353.191 2694.05,354.42 C2694.63,355.462 2695.33,355.983 2696.14,355.983 C2696.95,355.983 2698.04,355.219 2699.41,353.693 C2700.78,352.167 2701.69,350.964 2702.15,350.084 C2702.6,349.204 2703.15,348.779 2703.8,348.811 C2704.45,348.842 2704.91,349.149 2705.17,349.733 L2692.87,391.733 C2692.22,392.389 2691.3,392.717 2690.13,392.717 C2688.96,392.717 2688.05,392.389 2687.41,391.733 L2699.12,359.108 "/>
<path class="Rest" d="M2509.6,366.733 L2474.05,366.733 C2473.4,366.733 2473.07,366.404 2473.07,365.748 L2473.07,352.076 C2473.07,351.43 2473.4,351.108 2474.05,351.108 L2509.6,351.108 C2510.25,351.108 2510.57,351.43 2510.57,352.076 L2510.57,365.748 C2510.57,366.404 2510.25,366.733 2509.6,366.733"/>
<path class="Rest" d="M967.604,361.451 C966.947,360.608 966.619,359.696 966.619,358.717 C966.619,356.967 968.708,354.529 972.885,351.404 C976.979,348.206 979.025,344.561 979.025,340.467 C979.025,338.05 978.182,335.837 976.494,333.826 L972.979,329.623 C972.718,329.363 972.588,329.037 972.588,328.647 C972.588,328.256 972.781,327.899 973.166,327.576 C973.624,327.243 974.049,327.076 974.439,327.076 C974.83,327.076 975.156,327.274 975.416,327.67 L990.557,345.639 C991.202,346.483 991.525,347.41 991.525,348.42 C991.525,349.43 990.989,350.522 989.916,351.693 C988.843,352.865 987.333,354.233 985.385,355.795 C983.885,356.701 982.468,358.131 981.135,360.084 C979.801,362.037 979.135,364.253 979.135,366.733 C979.135,369.212 979.916,371.394 981.479,373.279 L989.869,383.139 C990.067,383.337 990.197,383.662 990.26,384.115 C990.322,384.568 990.158,384.959 989.768,385.287 C989.377,385.615 989.07,385.779 988.846,385.779 C988.622,385.779 988.036,385.404 987.088,384.654 C986.14,383.904 984.804,383.173 983.08,382.459 C981.356,381.746 979.648,381.389 977.955,381.389 C976.262,381.389 974.929,381.844 973.955,382.756 C972.981,383.667 972.494,385.766 972.494,389.053 C972.494,392.339 973.437,395.123 975.322,397.404 C975.52,397.665 975.554,397.956 975.424,398.279 C975.294,398.602 975.033,398.764 974.643,398.764 C974.252,398.764 973.257,397.561 971.658,395.154 C970.059,392.748 968.528,389.899 967.064,386.608 C965.601,383.316 964.869,380.566 964.869,378.358 C964.869,375.555 966.301,374.154 969.166,374.154 C972.031,374.154 975.906,375.196 980.791,377.279 L967.604,361.451 "/>
<path class="Rest" d="M1422.53,834.108 C1418.36,835.608 1414.98,836.358 1412.37,836.358 C1409.77,836.358 1407.6,835.626 1405.87,834.162 C1404.14,832.699 1403.28,830.876 1403.28,828.694 C1403.28,826.511 1403.99,824.72 1405.43,823.319 C1406.86,821.918 1408.55,821.217 1410.5,821.217 C1412.46,821.217 1413.92,821.772 1414.9,822.881 C1415.88,823.991 1416.42,825.051 1416.52,826.061 C1416.62,827.071 1416.93,828.191 1417.45,829.42 C1418.03,830.462 1418.73,830.983 1419.54,830.983 C1420.36,830.983 1421.45,830.22 1422.82,828.694 C1424.19,827.168 1425.1,825.965 1425.55,825.084 C1426,824.204 1426.56,823.78 1427.21,823.811 C1427.86,823.842 1428.31,824.149 1428.57,824.733 L1416.28,866.733 C1415.62,867.389 1414.71,867.717 1413.53,867.717 C1412.36,867.717 1411.45,867.389 1410.81,866.733 L1422.53,834.108 "/>
<path class="Rest" d="M1141.66,357.357 L1106.11,357.357 C1105.46,357.357 1105.13,357.035 1105.13,356.389 L1105.13,342.717 C1105.13,342.061 1105.46,341.732 1106.11,341.732 L1141.66,341.732 C1142.3,341.732 1142.63,342.061 1142.63,342.717 L1142.63,356.389 C1142.63,357.035 1142.3,357.357 1141.66,357.357"/>
<path class="Beam" fill-rule="evenodd" d="M1880.44,379.21 L2028.91,391.71 L2028.91,404.255 L1880.44,391.755 L1880.44,379.21 "/>
<path class="Beam" fill-rule="evenodd" d="M368.182,404.227 L516.651,410.477 L516.651,422.988 L368.182,416.738 L368.182,404.227 "/>
<path class="Beam" fill-rule="evenodd" d="M586.011,404.227 L734.481,410.477 L734.481,422.988 L586.011,416.738 L586.011,404.227 "/>
<path class="Beam" fill-rule="evenodd" d="M1444.78,404.227 L1593.25,410.477 L1593.25,422.988 L1444.78,416.738 L1444.78,404.227 "/>
<path class="Beam" fill-rule="evenodd" d="M1662.61,404.227 L1811.08,410.477 L1811.08,422.988 L1662.61,416.738 L1662.61,404.227 "/>
<path class="Beam" fill-rule="evenodd" d="M287.232,879.225 L414.647,885.475 L414.647,897.99 L287.232,891.74 L287.232,879.225 "/>
<path class="Beam" fill-rule="evenodd" d="M473.479,879.225 L600.894,885.475 L600.894,897.99 L473.479,891.74 L473.479,879.225 "/>
<path class="Beam" fill-rule="evenodd" d="M659.726,854.203 L787.14,866.703 L787.14,879.263 L659.726,866.763 L659.726,854.203 "/>
<path class="Beam" fill-rule="evenodd" d="M2378.37,841.703 L2505.79,829.203 L2505.79,841.763 L2378.37,854.263 L2378.37,841.703 "/>
<path class="NoteDot" d="M1153.04,358.24 C1151.93,357.131 1151.38,355.795 1151.38,354.232 C1151.38,352.67 1151.93,351.334 1153.04,350.225 C1154.15,349.115 1155.49,348.561 1157.05,348.561 C1158.61,348.561 1159.95,349.115 1161.05,350.225 C1162.15,351.334 1162.71,352.67 1162.71,354.232 C1162.71,355.795 1162.15,357.131 1161.05,358.24 C1159.95,359.35 1158.61,359.904 1157.05,359.904 C1155.49,359.904 1154.15,359.35 1153.04,358.24"/>
<path class="NoteDot" d="M2520.98,358.24 C2519.87,357.131 2519.32,355.795 2519.32,354.232 C2519.32,352.67 2519.87,351.334 2520.98,350.225 C2522.09,349.115 2523.43,348.561 2524.99,348.561 C2526.55,348.561 2527.89,349.115 2528.99,350.225 C2530.09,351.334 2530.65,352.67 2530.65,354.232 C2530.65,355.795 2530.09,357.131 2528.99,358.24 C2527.89,359.35 2526.55,359.904 2524.99,359.904 C2523.43,359.904 2522.09,359.35 2520.98,358.24"/>
<path class="NoteDot" d="M2607.95,683.241 C2606.84,682.131 2606.28,680.795 2606.28,679.233 C2606.28,677.67 2606.84,676.334 2607.95,675.225 C2609.06,674.116 2610.39,673.561 2611.95,673.561 C2613.52,673.561 2614.85,674.116 2615.95,675.225 C2617.06,676.334 2617.61,677.67 2617.61,679.233 C2617.61,680.795 2617.06,682.131 2615.95,683.241 C2614.85,684.35 2613.52,684.905 2611.95,684.905 C2610.39,684.905 2609.06,684.35 2607.95,683.241"/>
<path class="NoteDot" d="M2719.75,833.241 C2718.64,832.131 2718.08,830.795 2718.08,829.233 C2718.08,827.67 2718.64,826.334 2719.75,825.225 C2720.86,824.116 2722.19,823.561 2723.75,823.561 C2725.32,823.561 2726.65,824.116 2727.75,825.225 C2728.86,826.334 2729.41,827.67 2729.41,829.233 C2729.41,830.795 2728.86,832.131 2727.75,833.241 C2726.65,834.35 2725.32,834.905 2723.75,834.905 C2722.19,834.905 2720.86,834.35 2719.75,833.241"/>
</svg>
