<?xml version="1.0" encoding="UTF-8" standalone="no"?>
<svg width="2977.2px" height="4208.4px" viewBox="0 0 2977.2 4208.4"
 xmlns="http://www.w3.org/2000/svg" xmlns:xlink="http://www.w3.org/1999/xlink" version="1.2" baseProfile="tiny">
<title>C_Major_Scale_Patterns_3.mscx</title>
<desc>Generated by MuseScore Studio 4.3.1</desc>
<path class="" fill="#ffffff" fill-rule="evenodd" d="M0,0 L2977.2,0 L2977.2,4208.4 L0,4208.4 L0,0 "/>
<polyline class="StaffLines" fill="none" stroke="#000000" stroke-width="2.00" stroke-linejoin="bevel" points="141.732,566.733 2835.47,566.733"/>
<polyline class="StaffLines" fill="none" stroke="#000000" stroke-width="2.00" stroke-linejoin="bevel" points="141.732,591.733 2835.47,591.733"/>
<polyline class="StaffLines" fill="none" stroke="#000000" stroke-width="2.00" stroke-linejoin="bevel" points="141.732,616.733 2835.47,616.733"/>
<polyline class="StaffLines" fill="none" stroke="#000000" stroke-width="2.00" stroke-linejoin="bevel" points="141.732,641.733 2835.47,641.733"/>
<polyline class="StaffLines" fill="none" stroke="#000000" stroke-width="2.00" stroke-linejoin="bevel" points="141.732,666.733 2835.47,666.733"/>
<polyline class="BarLine" fill="none" stroke="#000000" stroke-width="4.00" stroke-linejoin="bevel" points="1972.47,565.733 1972.47,667.733"/>
<polyline class="BarLine" fill="none" stroke="#000000" stroke-width="4.00" stroke-linejoin="bevel" points="1557.34,565.733 1557.34,667.733"/>
<polyline class="BarLine" fill="none" stroke="#000000" stroke-width="4.00" stroke-linejoin="bevel" points="2387.59,565.733 2387.59,667.733"/>
<polyline class="BarLine" fill="none" stroke="#000000" stroke-width="4.00" stroke-linejoin="bevel" points="2802.72,565.733 2802.72,667.733"/>
<polyline class="BarLine" fill="none" stroke="#000000" stroke-width="12.50" stroke-linejoin="bevel" points="2829.22,565.733 2829.22,667.733"/>
<polyline class="BarLine" fill="none" stroke="#000000" stroke-width="4.00" stroke-linejoin="bevel" points="1142.22,565.733 1142.22,667.733"/>
<polyline class="BarLine" fill="none" stroke="#000000" stroke-width="4.00" stroke-linejoin="bevel" points="727.095,565.733 727.095,667.733"/>
<polyline class="LedgerLine" fill="none" stroke="#000000" stroke-width="4.00" stroke-linejoin="bevel" points="1767.46,541.733 1821.17,541.733"/>
<polyline class="LedgerLine" fill="none" stroke="#000000" stroke-width="4.00" stroke-linejoin="bevel" points="937.206,541.733 990.925,541.733"/>
<polyline class="LedgerLine" fill="none" stroke="#000000" stroke-width="4.00" stroke-linejoin="bevel" points="1574.84,541.733 1628.56,541.733"/>
<polyline class="LedgerLine" fill="none" stroke="#000000" stroke-width="4.00" stroke-linejoin="bevel" points="1159.72,541.733 1213.44,541.733"/>
<polyline class="Stem" fill="none" stroke="#000000" stroke-width="3.25" stroke-linejoin="bevel" points="755.72,559.133 755.72,641.733"/>
<polyline class="Stem" fill="none" stroke="#000000" stroke-width="3.25" stroke-linejoin="bevel" points="2001.09,559.133 2001.09,641.733"/>
<polyline class="Stem" fill="none" stroke="#000000" stroke-width="3.25" stroke-linejoin="bevel" points="2193.71,571.633 2193.71,654.233"/>
<polyline class="Stem" fill="none" stroke="#000000" stroke-width="3.25" stroke-linejoin="bevel" points="1778.58,546.633 1778.58,629.233"/>
<polyline class="Stem" fill="none" stroke="#000000" stroke-width="3.25" stroke-linejoin="bevel" points="1585.97,534.133 1585.97,616.733"/>
<polyline class="Stem" fill="none" stroke="#000000" stroke-width="3.25" stroke-linejoin="bevel" points="340.596,584.133 340.596,666.733"/>
<polyline class="Stem" fill="none" stroke="#000000" stroke-width="3.25" stroke-linejoin="bevel" points="533.207,571.633 533.207,654.233"/>
<polyline class="Stem" fill="none" stroke="#000000" stroke-width="3.25" stroke-linejoin="bevel" points="1170.84,534.133 1170.84,616.733"/>
<polyline class="Stem" fill="none" stroke="#000000" stroke-width="3.25" stroke-linejoin="bevel" points="948.331,546.633 948.331,629.233"/>
<polyline class="Stem" fill="none" stroke="#000000" stroke-width="3.25" stroke-linejoin="bevel" points="2416.22,584.133 2416.22,666.733"/>
<path class="Note" d="M2006.89,564.873 C2008.78,564.873 2012.73,562.92 2018.76,559.014 C2024.78,555.108 2028.33,552.488 2029.41,551.154 C2030.48,549.821 2031.02,548.634 2031.02,547.592 C2031.02,546.55 2030.59,545.623 2029.74,544.811 C2028.89,543.998 2027.92,543.592 2026.81,543.592 C2024.86,543.592 2020.88,545.561 2014.85,549.498 C2008.83,553.436 2005.29,556.056 2004.25,557.358 C2003.21,558.66 2002.69,559.832 2002.69,560.873 C2002.69,561.915 2003.1,562.842 2003.91,563.654 C2004.73,564.467 2005.72,564.873 2006.89,564.873 M2025.84,540.467 C2031.44,540.467 2034.23,542.873 2034.23,547.686 C2034.23,550.029 2033.55,552.748 2032.19,555.842 C2030.82,558.936 2029,561.295 2026.72,562.92 C2021.71,566.306 2015.43,567.998 2007.88,567.998 C2002.27,567.998 1999.47,565.592 1999.47,560.779 C1999.47,558.634 2000.14,555.964 2001.47,552.772 C2002.8,549.579 2004.64,547.17 2006.98,545.545 C2012.01,542.16 2018.29,540.467 2025.84,540.467"/>
<path class="Note" d="M761.517,564.873 C763.403,564.873 767.358,562.92 773.384,559.014 C779.41,555.108 782.96,552.488 784.033,551.154 C785.106,549.821 785.642,548.634 785.642,547.592 C785.642,546.55 785.218,545.623 784.369,544.811 C783.52,543.998 782.543,543.592 781.439,543.592 C779.491,543.592 775.504,545.561 769.478,549.498 C763.452,553.436 759.918,556.056 758.877,557.358 C757.835,558.66 757.314,559.832 757.314,560.873 C757.314,561.915 757.723,562.842 758.541,563.654 C759.358,564.467 760.351,564.873 761.517,564.873 M780.47,540.467 C786.064,540.467 788.861,542.873 788.861,547.686 C788.861,550.029 788.179,552.748 786.814,555.842 C785.45,558.936 783.627,561.295 781.345,562.92 C776.335,566.306 770.054,567.998 762.502,567.998 C756.897,567.998 754.095,565.592 754.095,560.779 C754.095,558.634 754.762,555.964 756.095,552.772 C757.429,549.579 759.267,547.17 761.611,545.545 C766.632,542.16 772.918,540.467 780.47,540.467"/>
<path class="Note" d="M1784.38,552.373 C1786.26,552.373 1790.22,550.42 1796.24,546.514 C1802.27,542.608 1805.82,539.988 1806.89,538.654 C1807.97,537.321 1808.5,536.134 1808.5,535.092 C1808.5,534.05 1808.08,533.123 1807.23,532.311 C1806.38,531.498 1805.4,531.092 1804.3,531.092 C1802.35,531.092 1798.36,533.061 1792.34,536.998 C1786.31,540.936 1782.78,543.556 1781.74,544.858 C1780.7,546.16 1780.17,547.332 1780.17,548.373 C1780.17,549.415 1780.58,550.342 1781.4,551.154 C1782.22,551.967 1783.21,552.373 1784.38,552.373 M1803.33,527.967 C1808.92,527.967 1811.72,530.373 1811.72,535.186 C1811.72,537.529 1811.04,540.248 1809.67,543.342 C1808.31,546.436 1806.49,548.795 1804.21,550.42 C1799.2,553.806 1792.91,555.498 1785.36,555.498 C1779.76,555.498 1776.96,553.092 1776.96,548.279 C1776.96,546.134 1777.62,543.464 1778.96,540.272 C1780.29,537.079 1782.13,534.67 1784.47,533.045 C1789.49,529.66 1795.78,527.967 1803.33,527.967"/>
<path class="Note" d="M2422.02,589.873 C2423.9,589.873 2427.86,587.92 2433.88,584.014 C2439.91,580.108 2443.46,577.488 2444.53,576.155 C2445.6,574.821 2446.14,573.634 2446.14,572.592 C2446.14,571.55 2445.72,570.623 2444.87,569.811 C2444.02,568.998 2443.04,568.592 2441.94,568.592 C2439.99,568.592 2436,570.561 2429.98,574.498 C2423.95,578.436 2420.42,581.056 2419.38,582.358 C2418.33,583.66 2417.81,584.832 2417.81,585.873 C2417.81,586.915 2418.22,587.842 2419.04,588.655 C2419.86,589.467 2420.85,589.873 2422.02,589.873 M2440.97,565.467 C2446.56,565.467 2449.36,567.873 2449.36,572.686 C2449.36,575.03 2448.68,577.748 2447.31,580.842 C2445.95,583.936 2444.13,586.295 2441.84,587.92 C2436.83,591.306 2430.55,592.998 2423,592.998 C2417.4,592.998 2414.59,590.592 2414.59,585.78 C2414.59,583.634 2415.26,580.964 2416.59,577.772 C2417.93,574.579 2419.77,572.17 2422.11,570.545 C2427.13,567.16 2433.42,565.467 2440.97,565.467"/>
<path class="Note" d="M2199.5,577.373 C2201.39,577.373 2205.34,575.42 2211.37,571.514 C2217.4,567.608 2220.94,564.988 2222.02,563.655 C2223.09,562.321 2223.63,561.134 2223.63,560.092 C2223.63,559.05 2223.2,558.123 2222.35,557.311 C2221.5,556.498 2220.53,556.092 2219.42,556.092 C2217.48,556.092 2213.49,558.061 2207.46,561.998 C2201.44,565.936 2197.9,568.556 2196.86,569.858 C2195.82,571.16 2195.3,572.332 2195.3,573.373 C2195.3,574.415 2195.71,575.342 2196.53,576.155 C2197.34,576.967 2198.34,577.373 2199.5,577.373 M2218.46,552.967 C2224.05,552.967 2226.85,555.373 2226.85,560.186 C2226.85,562.53 2226.16,565.248 2224.8,568.342 C2223.43,571.436 2221.61,573.795 2219.33,575.42 C2214.32,578.806 2208.04,580.498 2200.49,580.498 C2194.88,580.498 2192.08,578.092 2192.08,573.28 C2192.08,571.134 2192.75,568.464 2194.08,565.272 C2195.41,562.079 2197.25,559.67 2199.6,558.045 C2204.62,554.66 2210.9,552.967 2218.46,552.967"/>
<path class="Note" d="M1591.77,539.873 C1593.65,539.873 1597.61,537.92 1603.63,534.014 C1609.66,530.108 1613.21,527.488 1614.28,526.154 C1615.35,524.821 1615.89,523.634 1615.89,522.592 C1615.89,521.55 1615.47,520.623 1614.62,519.811 C1613.77,518.998 1612.79,518.592 1611.69,518.592 C1609.74,518.592 1605.75,520.561 1599.73,524.498 C1593.7,528.436 1590.17,531.056 1589.13,532.358 C1588.08,533.66 1587.56,534.832 1587.56,535.873 C1587.56,536.915 1587.97,537.842 1588.79,538.654 C1589.61,539.467 1590.6,539.873 1591.77,539.873 M1610.72,515.467 C1616.31,515.467 1619.11,517.873 1619.11,522.686 C1619.11,525.029 1618.43,527.748 1617.06,530.842 C1615.7,533.936 1613.88,536.295 1611.59,537.92 C1606.58,541.306 1600.3,542.998 1592.75,542.998 C1587.15,542.998 1584.34,540.592 1584.34,535.779 C1584.34,533.634 1585.01,530.964 1586.34,527.772 C1587.68,524.579 1589.52,522.17 1591.86,520.545 C1596.88,517.16 1603.17,515.467 1610.72,515.467"/>
<path class="Note" d="M954.128,552.373 C956.014,552.373 959.97,550.42 965.996,546.514 C972.022,542.608 975.571,539.988 976.644,538.654 C977.717,537.321 978.253,536.134 978.253,535.092 C978.253,534.05 977.829,533.123 976.98,532.311 C976.131,531.498 975.154,531.092 974.05,531.092 C972.102,531.092 968.115,533.061 962.089,536.998 C956.063,540.936 952.529,543.556 951.488,544.858 C950.446,546.16 949.925,547.332 949.925,548.373 C949.925,549.415 950.334,550.342 951.152,551.154 C951.97,551.967 952.962,552.373 954.128,552.373 M973.081,527.967 C978.675,527.967 981.472,530.373 981.472,535.186 C981.472,537.529 980.79,540.248 979.425,543.342 C978.061,546.436 976.238,548.795 973.956,550.42 C968.946,553.806 962.665,555.498 955.113,555.498 C949.509,555.498 946.706,553.092 946.706,548.279 C946.706,546.134 947.373,543.464 948.706,540.272 C950.04,537.079 951.878,534.67 954.222,533.045 C959.243,529.66 965.529,527.967 973.081,527.967"/>
<path class="Note" d="M539.004,577.373 C540.889,577.373 544.845,575.42 550.871,571.514 C556.897,567.608 560.446,564.988 561.519,563.655 C562.592,562.321 563.129,561.134 563.129,560.092 C563.129,559.05 562.704,558.123 561.855,557.311 C561.006,556.498 560.03,556.092 558.926,556.092 C556.978,556.092 552.991,558.061 546.965,561.998 C540.939,565.936 537.405,568.556 536.363,569.858 C535.321,571.16 534.801,572.332 534.801,573.373 C534.801,574.415 535.209,575.342 536.027,576.155 C536.845,576.967 537.837,577.373 539.004,577.373 M557.957,552.967 C563.551,552.967 566.348,555.373 566.348,560.186 C566.348,562.53 565.665,565.248 564.301,568.342 C562.936,571.436 561.113,573.795 558.832,575.42 C553.821,578.806 547.54,580.498 539.988,580.498 C534.384,580.498 531.582,578.092 531.582,573.28 C531.582,571.134 532.249,568.464 533.582,565.272 C534.915,562.079 536.754,559.67 539.098,558.045 C544.118,554.66 550.405,552.967 557.957,552.967"/>
<path class="Note" d="M346.393,589.873 C348.278,589.873 352.234,587.92 358.26,584.014 C364.286,580.108 367.835,577.488 368.908,576.155 C369.981,574.821 370.518,573.634 370.518,572.592 C370.518,571.55 370.093,570.623 369.244,569.811 C368.395,568.998 367.419,568.592 366.315,568.592 C364.367,568.592 360.38,570.561 354.354,574.498 C348.328,578.436 344.794,581.056 343.752,582.358 C342.71,583.66 342.19,584.832 342.19,585.873 C342.19,586.915 342.598,587.842 343.416,588.655 C344.234,589.467 345.226,589.873 346.393,589.873 M365.346,565.467 C370.94,565.467 373.736,567.873 373.736,572.686 C373.736,575.03 373.054,577.748 371.69,580.842 C370.325,583.936 368.502,586.295 366.221,587.92 C361.21,591.306 354.929,592.998 347.377,592.998 C341.773,592.998 338.971,590.592 338.971,585.78 C338.971,583.634 339.637,580.964 340.971,577.772 C342.304,574.579 344.143,572.17 346.486,570.545 C351.507,567.16 357.794,565.467 365.346,565.467"/>
<path class="Note" d="M1176.64,539.873 C1178.53,539.873 1182.48,537.92 1188.51,534.014 C1194.54,530.108 1198.08,527.488 1199.16,526.154 C1200.23,524.821 1200.77,523.634 1200.77,522.592 C1200.77,521.55 1200.34,520.623 1199.49,519.811 C1198.64,518.998 1197.67,518.592 1196.56,518.592 C1194.62,518.592 1190.63,520.561 1184.6,524.498 C1178.58,528.436 1175.04,531.056 1174,532.358 C1172.96,533.66 1172.44,534.832 1172.44,535.873 C1172.44,536.915 1172.85,537.842 1173.67,538.654 C1174.48,539.467 1175.48,539.873 1176.64,539.873 M1195.59,515.467 C1201.19,515.467 1203.99,517.873 1203.99,522.686 C1203.99,525.029 1203.3,527.748 1201.94,530.842 C1200.57,533.936 1198.75,536.295 1196.47,537.92 C1191.46,541.306 1185.18,542.998 1177.63,542.998 C1172.02,542.998 1169.22,540.592 1169.22,535.779 C1169.22,533.634 1169.89,530.964 1171.22,527.772 C1172.55,524.579 1174.39,522.17 1176.74,520.545 C1181.76,517.16 1188.04,515.467 1195.59,515.467"/>
<path class="Clef" d="M203.623,673.858 L203.623,671.717 C203.56,670.613 203.399,668.889 203.139,666.545 C199.889,667.066 196.993,667.326 194.451,667.326 C185.337,667.326 177.605,663.727 171.256,656.53 C164.907,649.332 161.732,640.754 161.732,630.795 C161.732,628.129 162.253,624.923 163.295,621.178 C164.337,617.433 165.297,614.925 166.178,613.655 C167.058,612.384 168.378,610.155 170.139,606.967 C170.659,605.988 172.352,603.837 175.217,600.514 C175.738,599.806 176.193,599.222 176.584,598.764 C176.975,598.306 177.607,597.49 178.482,596.319 C179.357,595.147 180.3,594.056 181.31,593.045 C182.321,592.035 183.217,591.058 183.998,590.115 C184.779,589.173 185.498,588.379 186.154,587.733 C183.81,579.983 182.378,574.024 181.857,569.858 C181.337,565.691 181.076,560.579 181.076,554.522 C181.076,548.464 182.378,542.962 184.982,538.014 C187.514,532.879 191.06,528.681 195.623,525.42 C195.883,525.222 196.225,525.123 196.646,525.123 C197.068,525.123 197.378,525.222 197.576,525.42 C201.087,529.649 204.128,535.149 206.701,541.92 C209.274,548.691 210.56,555.024 210.56,560.92 C210.56,566.816 209.066,572.498 206.076,577.967 C202.691,583.759 198.326,589.748 192.982,595.936 C194.347,600.227 196.17,606.962 198.451,616.139 L199.045,616.139 C199.305,616.076 199.529,616.045 199.717,616.045 C207.081,616.045 213.089,618.634 217.74,623.811 C222.391,628.988 224.717,634.962 224.717,641.733 C224.717,650.129 221.238,656.899 214.279,662.045 C212.258,663.545 209.878,664.717 207.139,665.561 C207.472,669.79 207.639,672.605 207.639,674.006 C207.639,675.407 207.571,677.899 207.435,681.483 C207.373,687.597 205.29,692.837 201.185,697.201 C197.081,701.566 192.394,703.748 187.123,703.748 C181.852,703.748 177.36,701.876 173.646,698.131 C169.933,694.386 168.076,689.847 168.076,684.514 C168.076,681.712 169.154,679.332 171.31,677.373 C173.519,675.425 176.006,674.451 178.771,674.451 C181.537,674.451 183.8,675.462 185.56,677.483 C187.383,679.368 188.295,681.644 188.295,684.311 C188.295,686.977 187.383,689.222 185.56,691.045 C183.738,692.868 181.555,693.78 179.014,693.78 C177.972,693.78 176.967,693.587 175.998,693.201 C178.863,697.431 182.54,699.545 187.029,699.545 C191.519,699.545 195.36,697.691 198.553,693.983 C201.745,690.274 203.342,685.91 203.342,680.889 L203.623,673.858 M206.748,661.561 C210.133,660.321 212.821,658.123 214.81,654.967 C216.8,651.811 217.795,648.67 217.795,645.545 C217.795,640.92 216.199,636.785 213.006,633.139 C209.813,629.493 205.774,627.441 200.889,626.983 C203.691,640.722 205.644,652.248 206.748,661.561 M168.967,638.998 C168.967,645.446 171.537,651.079 176.678,655.897 C181.818,660.714 187.842,663.123 194.748,663.123 C197.477,663.123 200.144,662.925 202.748,662.53 C201.706,652.634 199.654,640.785 196.592,626.983 C192.758,627.379 189.782,628.699 187.662,630.944 C185.542,633.188 184.482,635.743 184.482,638.608 C184.482,643.556 187.123,647.561 192.404,650.623 C192.852,650.884 193.076,651.324 193.076,651.944 C193.076,652.563 192.865,653.1 192.443,653.553 C192.021,654.006 191.649,654.233 191.326,654.233 C191.003,654.233 190.581,654.17 190.06,654.045 C182.435,649.879 178.623,643.592 178.623,635.186 C178.623,631.217 180.024,627.41 182.826,623.764 C185.753,620.118 189.56,617.774 194.248,616.733 C192.425,609.441 190.93,603.743 189.764,599.639 C180.847,609.67 175.31,617.092 173.154,621.905 C170.363,628.155 168.967,633.852 168.967,638.998 M201.576,539.686 C196.691,542.092 192.834,545.574 190.006,550.131 C187.178,554.688 185.764,559.472 185.764,564.483 C185.764,569.493 186.935,575.972 189.279,583.92 C193.967,578.254 197.514,572.946 199.92,567.998 C202.326,563.05 203.529,558.152 203.529,553.303 C203.529,548.454 202.878,543.915 201.576,539.686"/>
<path class="TimeSig" d="M273.021,567.912 C274.516,567.912 275.949,567.686 277.318,567.233 C278.688,566.78 279.665,566.553 280.248,566.553 C280.831,566.553 281.222,566.907 281.42,567.615 C281.42,567.688 281.352,567.886 281.217,568.209 L252.811,601.225 L269.498,601.225 L269.498,588.131 C269.498,586.506 270.446,585.334 272.342,584.615 C274.29,583.897 276.503,581.001 278.982,575.928 C279.17,575.532 279.462,575.334 279.857,575.334 C280.639,575.334 281.092,575.793 281.217,576.709 L281.217,601.225 L288.357,601.225 C289.264,601.225 289.751,601.712 289.818,602.686 C289.886,603.66 289.399,604.147 288.357,604.147 L281.217,604.147 L281.217,604.928 C281.217,607.532 281.868,609.746 283.17,611.569 C284.67,613.391 286.43,614.303 288.451,614.303 C289.232,614.303 289.623,614.694 289.623,615.475 C289.623,616.256 289.087,616.647 288.014,616.647 C286.941,616.647 284.938,616.436 282.006,616.014 C279.074,615.592 276.811,615.381 275.217,615.381 C273.623,615.381 271.41,615.592 268.576,616.014 C265.743,616.436 263.613,616.647 262.186,616.647 C261.404,616.647 261.014,616.256 261.014,615.475 C261.014,614.694 261.404,614.303 262.186,614.303 C264.196,614.303 265.951,613.391 267.451,611.569 C268.816,609.683 269.498,607.47 269.498,604.928 L269.498,604.147 L252.811,604.147 C251.956,604.147 251.219,603.92 250.6,603.467 C249.98,603.014 249.67,602.592 249.67,602.201 C249.67,601.811 250.485,600.639 252.115,598.686 C253.745,596.733 256.074,592.972 259.1,587.405 C262.126,581.837 263.639,575.438 263.639,568.209 C263.639,567.168 264.097,566.647 265.014,566.647 C265.212,566.647 265.521,566.712 265.943,566.842 C266.365,566.972 267.277,567.183 268.678,567.475 C270.079,567.766 271.527,567.912 273.021,567.912"/>
<path class="TimeSig" d="M273.021,618.084 C274.516,618.084 275.949,617.858 277.318,617.405 C278.688,616.951 279.665,616.725 280.248,616.725 C280.831,616.725 281.222,617.079 281.42,617.787 C281.42,617.86 281.352,618.058 281.217,618.381 L252.811,651.397 L269.498,651.397 L269.498,638.303 C269.498,636.678 270.446,635.506 272.342,634.787 C274.29,634.069 276.503,631.173 278.982,626.1 C279.17,625.704 279.462,625.506 279.857,625.506 C280.639,625.506 281.092,625.964 281.217,626.881 L281.217,651.397 L288.357,651.397 C289.264,651.397 289.751,651.884 289.818,652.858 C289.886,653.832 289.399,654.319 288.357,654.319 L281.217,654.319 L281.217,655.1 C281.217,657.704 281.868,659.918 283.17,661.74 C284.67,663.563 286.43,664.475 288.451,664.475 C289.232,664.475 289.623,664.865 289.623,665.647 C289.623,666.428 289.087,666.819 288.014,666.819 C286.941,666.819 284.938,666.608 282.006,666.186 C279.074,665.764 276.811,665.553 275.217,665.553 C273.623,665.553 271.41,665.764 268.576,666.186 C265.743,666.608 263.613,666.819 262.186,666.819 C261.404,666.819 261.014,666.428 261.014,665.647 C261.014,664.865 261.404,664.475 262.186,664.475 C264.196,664.475 265.951,663.563 267.451,661.74 C268.816,659.855 269.498,657.642 269.498,655.1 L269.498,654.319 L252.811,654.319 C251.956,654.319 251.219,654.092 250.6,653.639 C249.98,653.186 249.67,652.764 249.67,652.373 C249.67,651.983 250.485,650.811 252.115,648.858 C253.745,646.905 256.074,643.144 259.1,637.576 C262.126,632.009 263.639,625.61 263.639,618.381 C263.639,617.339 264.097,616.819 265.014,616.819 C265.212,616.819 265.521,616.884 265.943,617.014 C266.365,617.144 267.277,617.355 268.678,617.647 C270.079,617.938 271.527,618.084 273.021,618.084"/>
<path class="Rest" d="M1399.26,616.733 L1363.72,616.733 C1363.06,616.733 1362.73,616.405 1362.73,615.748 L1362.73,602.076 C1362.73,601.431 1363.06,601.108 1363.72,601.108 L1399.26,601.108 C1399.91,601.108 1400.23,601.431 1400.23,602.076 L1400.23,615.748 C1400.23,616.405 1399.91,616.733 1399.26,616.733"/>
<path class="Rest" d="M2644.64,616.733 L2609.09,616.733 C2608.44,616.733 2608.11,616.405 2608.11,615.748 L2608.11,602.076 C2608.11,601.431 2608.44,601.108 2609.09,601.108 L2644.64,601.108 C2645.28,601.108 2645.61,601.431 2645.61,602.076 L2645.61,615.748 C2645.61,616.405 2645.28,616.733 2644.64,616.733"/>
<path class="StaffText" d="M2012.28,754.936 C2008.9,754.936 2006.19,753.592 2004.14,750.905 C2002.1,748.217 2001.07,744.665 2001.07,740.248 C2001.07,738.884 2001.21,737.478 2001.47,736.03 C2001.74,734.582 2002.32,732.936 2003.22,731.092 C2004.12,729.248 2005.29,727.592 2006.72,726.123 C2008.16,724.655 2010.16,723.347 2012.75,722.201 C2015.33,721.056 2018.3,720.332 2021.67,720.03 L2021.78,720.826 C2017.84,721.462 2014.55,723.056 2011.92,725.608 C2009.28,728.16 2007.63,731.316 2006.97,735.076 C2008.54,734.191 2009.72,733.613 2010.52,733.342 C2011.32,733.071 2012.27,732.936 2013.37,732.936 C2016.24,732.936 2018.52,733.863 2020.22,735.717 C2021.93,737.571 2022.78,740.076 2022.78,743.233 C2022.78,746.681 2021.8,749.493 2019.85,751.67 C2017.89,753.847 2015.37,754.936 2012.28,754.936 M2011.47,735.139 C2009.2,735.139 2007.68,735.634 2006.89,736.623 C2006.11,737.613 2005.72,739.087 2005.72,741.045 C2005.72,744.889 2006.35,747.915 2007.62,750.123 C2008.89,752.332 2010.63,753.436 2012.82,753.436 C2014.59,753.436 2015.93,752.699 2016.87,751.225 C2017.81,749.751 2018.28,747.655 2018.28,744.936 C2018.28,741.811 2017.68,739.397 2016.5,737.694 C2015.31,735.991 2013.63,735.139 2011.47,735.139"/>
<path class="StaffText" d="M1778.81,741.53 L1791.11,741.53 L1791.11,744.53 L1778.81,744.53 L1778.81,741.53 M1806.4,754.936 C1803.03,754.936 1800.32,753.592 1798.27,750.905 C1796.23,748.217 1795.2,744.665 1795.2,740.248 C1795.2,738.884 1795.33,737.478 1795.6,736.03 C1795.87,734.582 1796.45,732.936 1797.35,731.092 C1798.25,729.248 1799.42,727.592 1800.85,726.123 C1802.28,724.655 1804.29,723.347 1806.87,722.201 C1809.46,721.056 1812.43,720.332 1815.8,720.03 L1815.9,720.826 C1811.97,721.462 1808.68,723.056 1806.05,725.608 C1803.41,728.16 1801.76,731.316 1801.09,735.076 C1802.67,734.191 1803.85,733.613 1804.65,733.342 C1805.44,733.071 1806.39,732.936 1807.5,732.936 C1810.36,732.936 1812.65,733.863 1814.35,735.717 C1816.05,737.571 1816.9,740.076 1816.9,743.233 C1816.9,746.681 1815.93,749.493 1813.98,751.67 C1812.02,753.847 1809.5,754.936 1806.4,754.936 M1805.59,735.139 C1803.33,735.139 1801.81,735.634 1801.02,736.623 C1800.24,737.613 1799.84,739.087 1799.84,741.045 C1799.84,744.889 1800.48,747.915 1801.75,750.123 C1803.02,752.332 1804.75,753.436 1806.95,753.436 C1808.71,753.436 1810.06,752.699 1811,751.225 C1811.94,749.751 1812.4,747.655 1812.4,744.936 C1812.4,741.811 1811.81,739.397 1810.62,737.694 C1809.44,735.991 1807.76,735.139 1805.59,735.139"/>
<path class="StaffText" d="M1586.2,741.53 L1598.5,741.53 L1598.5,744.53 L1586.2,744.53 L1586.2,741.53 M1623.34,721.123 L1623.34,721.92 L1612.73,754.639 L1609.48,754.639 L1619.39,724.78 L1608.54,724.78 C1607.17,724.78 1606.12,725.03 1605.41,725.53 C1604.7,726.03 1603.8,727.134 1602.73,728.842 L1601.89,728.436 L1604.84,721.123 L1623.34,721.123 "/>
<path class="StaffText" d="M2193.94,741.53 L2206.23,741.53 L2206.23,744.53 L2193.94,744.53 L2193.94,741.53 M2226.47,744.405 C2226.47,742.623 2226.08,741.043 2225.3,739.662 C2224.51,738.282 2223.57,737.215 2222.45,736.459 C2221.34,735.704 2220.09,735.082 2218.7,734.592 C2217.32,734.103 2216.12,733.782 2215.1,733.631 C2214.08,733.48 2213.19,733.405 2212.42,733.405 C2212.02,733.405 2211.83,733.269 2211.83,732.998 C2211.83,732.905 2211.84,732.826 2211.87,732.764 L2217.33,721.123 L2227.78,721.123 C2228.31,721.123 2228.74,721.04 2229.05,720.873 C2229.37,720.707 2229.71,720.358 2230.08,719.826 L2230.53,720.186 L2228.62,724.358 C2228.49,724.639 2228.1,724.78 2227.47,724.78 L2217.67,724.78 L2215.58,729.076 C2220.44,729.941 2224.06,731.358 2226.42,733.326 C2228.78,735.295 2229.97,738.181 2229.97,741.983 C2229.97,743.972 2229.66,745.743 2229.05,747.295 C2228.43,748.847 2227.65,750.095 2226.7,751.037 C2225.75,751.98 2224.65,752.756 2223.4,753.366 C2222.15,753.975 2220.95,754.389 2219.8,754.608 C2218.65,754.826 2217.49,754.936 2216.33,754.936 C2214.46,754.936 2212.98,754.66 2211.87,754.108 C2210.77,753.556 2210.22,752.795 2210.22,751.826 C2210.22,750.597 2210.94,749.983 2212.37,749.983 C2213.31,749.983 2214.52,750.491 2216,751.506 C2217.48,752.522 2218.65,753.03 2219.53,753.03 C2221.49,753.03 2223.13,752.199 2224.47,750.537 C2225.8,748.876 2226.47,746.832 2226.47,744.405"/>
<path class="StaffText" d="M1171.08,741.53 L1183.37,741.53 L1183.37,744.53 L1171.08,744.53 L1171.08,741.53 M1208.22,721.123 L1208.22,721.92 L1197.61,754.639 L1194.36,754.639 L1204.26,724.78 L1193.42,724.78 C1192.04,724.78 1191,725.03 1190.29,725.53 C1189.57,726.03 1188.68,727.134 1187.61,728.842 L1186.76,728.436 L1189.72,721.123 L1208.22,721.123 "/>
<path class="StaffText" d="M948.562,741.53 L960.859,741.53 L960.859,744.53 L948.562,744.53 L948.562,741.53 M976.156,754.936 C972.781,754.936 970.07,753.592 968.023,750.905 C965.976,748.217 964.953,744.665 964.953,740.248 C964.953,738.884 965.085,737.478 965.351,736.03 C965.617,734.582 966.2,732.936 967.101,731.092 C968.002,729.248 969.169,727.592 970.601,726.123 C972.033,724.655 974.041,723.347 976.624,722.201 C979.208,721.056 982.182,720.332 985.546,720.03 L985.656,720.826 C981.718,721.462 978.432,723.056 975.796,725.608 C973.161,728.16 971.51,731.316 970.843,735.076 C972.416,734.191 973.601,733.613 974.398,733.342 C975.195,733.071 976.145,732.936 977.249,732.936 C980.114,732.936 982.398,733.863 984.101,735.717 C985.804,737.571 986.656,740.076 986.656,743.233 C986.656,746.681 985.679,749.493 983.726,751.67 C981.773,753.847 979.249,754.936 976.156,754.936 M975.343,735.139 C973.083,735.139 971.559,735.634 970.773,736.623 C969.986,737.613 969.593,739.087 969.593,741.045 C969.593,744.889 970.229,747.915 971.499,750.123 C972.77,752.332 974.505,753.436 976.703,753.436 C978.463,753.436 979.812,752.699 980.749,751.225 C981.687,749.751 982.156,747.655 982.156,744.936 C982.156,741.811 981.562,739.397 980.374,737.694 C979.187,735.991 977.51,735.139 975.343,735.139"/>
<path class="StaffText" d="M766.904,754.936 C763.529,754.936 760.818,753.592 758.771,750.905 C756.724,748.217 755.701,744.665 755.701,740.248 C755.701,738.884 755.834,737.478 756.099,736.03 C756.365,734.582 756.948,732.936 757.849,731.092 C758.75,729.248 759.917,727.592 761.349,726.123 C762.782,724.655 764.789,723.347 767.373,722.201 C769.956,721.056 772.93,720.332 776.295,720.03 L776.404,720.826 C772.466,721.462 769.18,723.056 766.545,725.608 C763.909,728.16 762.258,731.316 761.591,735.076 C763.164,734.191 764.349,733.613 765.146,733.342 C765.943,733.071 766.894,732.936 767.998,732.936 C770.862,732.936 773.146,733.863 774.849,735.717 C776.552,737.571 777.404,740.076 777.404,743.233 C777.404,746.681 776.427,749.493 774.474,751.67 C772.521,753.847 769.998,754.936 766.904,754.936 M766.091,735.139 C763.831,735.139 762.308,735.634 761.521,736.623 C760.735,737.613 760.341,739.087 760.341,741.045 C760.341,744.889 760.977,747.915 762.248,750.123 C763.519,752.332 765.253,753.436 767.451,753.436 C769.211,753.436 770.56,752.699 771.498,751.225 C772.435,749.751 772.904,747.655 772.904,744.936 C772.904,741.811 772.31,739.397 771.123,737.694 C769.935,735.991 768.258,735.139 766.091,735.139"/>
<path class="StaffText" d="M2432.34,744.405 C2432.34,742.623 2431.95,741.043 2431.17,739.662 C2430.39,738.282 2429.44,737.215 2428.32,736.459 C2427.21,735.704 2425.96,735.082 2424.57,734.592 C2423.19,734.103 2421.99,733.782 2420.97,733.631 C2419.96,733.48 2419.06,733.405 2418.29,733.405 C2417.9,733.405 2417.7,733.269 2417.7,732.998 C2417.7,732.905 2417.71,732.826 2417.75,732.764 L2423.2,721.123 L2433.65,721.123 C2434.18,721.123 2434.61,721.04 2434.93,720.873 C2435.24,720.707 2435.58,720.358 2435.95,719.826 L2436.4,720.186 L2434.5,724.358 C2434.36,724.639 2433.98,724.78 2433.34,724.78 L2423.54,724.78 L2421.45,729.076 C2426.31,729.941 2429.93,731.358 2432.29,733.326 C2434.66,735.295 2435.84,738.181 2435.84,741.983 C2435.84,743.972 2435.53,745.743 2434.92,747.295 C2434.3,748.847 2433.52,750.095 2432.57,751.037 C2431.63,751.98 2430.53,752.756 2429.28,753.366 C2428.03,753.975 2426.83,754.389 2425.68,754.608 C2424.52,754.826 2423.37,754.936 2422.2,754.936 C2420.33,754.936 2418.85,754.66 2417.75,754.108 C2416.64,753.556 2416.09,752.795 2416.09,751.826 C2416.09,750.597 2416.81,749.983 2418.25,749.983 C2419.18,749.983 2420.39,750.491 2421.87,751.506 C2423.35,752.522 2424.53,753.03 2425.4,753.03 C2427.36,753.03 2429.01,752.199 2430.34,750.537 C2431.67,748.876 2432.34,746.832 2432.34,744.405"/>
<path class="StaffText" d="M533.437,741.53 L545.734,741.53 L545.734,744.53 L533.437,744.53 L533.437,741.53 M565.969,744.405 C565.969,742.623 565.578,741.043 564.797,739.662 C564.015,738.282 563.068,737.215 561.953,736.459 C560.838,735.704 559.588,735.082 558.203,734.592 C556.818,734.103 555.617,733.782 554.601,733.631 C553.586,733.48 552.693,733.405 551.922,733.405 C551.526,733.405 551.328,733.269 551.328,732.998 C551.328,732.905 551.344,732.826 551.375,732.764 L556.828,721.123 L567.281,721.123 C567.812,721.123 568.237,721.04 568.555,720.873 C568.872,720.707 569.213,720.358 569.578,719.826 L570.031,720.186 L568.125,724.358 C567.989,724.639 567.604,724.78 566.969,724.78 L557.172,724.78 L555.078,729.076 C559.943,729.941 563.557,731.358 565.922,733.326 C568.286,735.295 569.469,738.181 569.469,741.983 C569.469,743.972 569.161,745.743 568.547,747.295 C567.932,748.847 567.151,750.095 566.203,751.037 C565.255,751.98 564.156,752.756 562.906,753.366 C561.656,753.975 560.456,754.389 559.305,754.608 C558.153,754.826 556.995,754.936 555.828,754.936 C553.963,754.936 552.479,754.66 551.375,754.108 C550.271,753.556 549.719,752.795 549.719,751.826 C549.719,750.597 550.437,749.983 551.875,749.983 C552.812,749.983 554.021,750.491 555.5,751.506 C556.979,752.522 558.156,753.03 559.031,753.03 C560.989,753.03 562.635,752.199 563.969,750.537 C565.302,748.876 565.969,746.832 565.969,744.405"/>
<path class="StaffText" d="M356.717,744.405 C356.717,742.623 356.326,741.043 355.545,739.662 C354.764,738.282 353.816,737.215 352.701,736.459 C351.587,735.704 350.337,735.082 348.951,734.592 C347.566,734.103 346.365,733.782 345.35,733.631 C344.334,733.48 343.441,733.405 342.67,733.405 C342.274,733.405 342.076,733.269 342.076,732.998 C342.076,732.905 342.092,732.826 342.123,732.764 L347.576,721.123 L358.029,721.123 C358.561,721.123 358.985,721.04 359.303,720.873 C359.621,720.707 359.962,720.358 360.326,719.826 L360.779,720.186 L358.873,724.358 C358.738,724.639 358.352,724.78 357.717,724.78 L347.92,724.78 L345.826,729.076 C350.691,729.941 354.305,731.358 356.67,733.326 C359.035,735.295 360.217,738.181 360.217,741.983 C360.217,743.972 359.91,745.743 359.295,747.295 C358.68,748.847 357.899,750.095 356.951,751.037 C356.003,751.98 354.904,752.756 353.654,753.366 C352.404,753.975 351.204,754.389 350.053,754.608 C348.902,754.826 347.743,754.936 346.576,754.936 C344.712,754.936 343.227,754.66 342.123,754.108 C341.019,753.556 340.467,752.795 340.467,751.826 C340.467,750.597 341.186,749.983 342.623,749.983 C343.561,749.983 344.769,750.491 346.248,751.506 C347.727,752.522 348.904,753.03 349.779,753.03 C351.738,753.03 353.384,752.199 354.717,750.537 C356.05,748.876 356.717,746.832 356.717,744.405"/>
</svg>
