<?xml version="1.0" encoding="UTF-8" standalone="no"?>
<svg width="2977.2px" height="4208.4px" viewBox="0 0 2977.2 4208.4"
 xmlns="http://www.w3.org/2000/svg" xmlns:xlink="http://www.w3.org/1999/xlink" version="1.2" baseProfile="tiny">
<title>Major_Scales_1.mscx</title>
<desc>Generated by MuseScore Studio 4.3.1</desc>
<path class="" fill="#ffffff" fill-rule="evenodd" d="M0,0 L2977.2,0 L2977.2,4208.4 L0,4208.4 L0,0 "/>
<polyline class="StaffLines" fill="none" stroke="#000000" stroke-width="2.00" stroke-linejoin="bevel" points="141.732,566.733 2835.47,566.733"/>
<polyline class="StaffLines" fill="none" stroke="#000000" stroke-width="2.00" stroke-linejoin="bevel" points="141.732,591.733 2835.47,591.733"/>
<polyline class="StaffLines" fill="none" stroke="#000000" stroke-width="2.00" stroke-linejoin="bevel" points="141.732,616.733 2835.47,616.733"/>
<polyline class="StaffLines" fill="none" stroke="#000000" stroke-width="2.00" stroke-linejoin="bevel" points="141.732,641.733 2835.47,641.733"/>
<polyline class="StaffLines" fill="none" stroke="#000000" stroke-width="2.00" stroke-linejoin="bevel" points="141.732,666.733 2835.47,666.733"/>
<polyline class="StaffLines" fill="none" stroke="#000000" stroke-width="2.00" stroke-linejoin="bevel" points="141.732,1041.73 2835.47,1041.73"/>
<polyline class="StaffLines" fill="none" stroke="#000000" stroke-width="2.00" stroke-linejoin="bevel" points="141.732,1066.73 2835.47,1066.73"/>
<polyline class="StaffLines" fill="none" stroke="#000000" stroke-width="2.00" stroke-linejoin="bevel" points="141.732,1091.73 2835.47,1091.73"/>
<polyline class="StaffLines" fill="none" stroke="#000000" stroke-width="2.00" stroke-linejoin="bevel" points="141.732,1116.73 2835.47,1116.73"/>
<polyline class="StaffLines" fill="none" stroke="#000000" stroke-width="2.00" stroke-linejoin="bevel" points="141.732,1141.73 2835.47,1141.73"/>
<polyline class="StaffLines" fill="none" stroke="#000000" stroke-width="2.00" stroke-linejoin="bevel" points="141.732,1516.73 2835.47,1516.73"/>
<polyline class="StaffLines" fill="none" stroke="#000000" stroke-width="2.00" stroke-linejoin="bevel" points="141.732,1541.73 2835.47,1541.73"/>
<polyline class="StaffLines" fill="none" stroke="#000000" stroke-width="2.00" stroke-linejoin="bevel" points="141.732,1566.73 2835.47,1566.73"/>
<polyline class="StaffLines" fill="none" stroke="#000000" stroke-width="2.00" stroke-linejoin="bevel" points="141.732,1591.73 2835.47,1591.73"/>
<polyline class="StaffLines" fill="none" stroke="#000000" stroke-width="2.00" stroke-linejoin="bevel" points="141.732,1616.73 2835.47,1616.73"/>
<polyline class="StaffLines" fill="none" stroke="#000000" stroke-width="2.00" stroke-linejoin="bevel" points="141.732,1991.73 2835.47,1991.73"/>
<polyline class="StaffLines" fill="none" stroke="#000000" stroke-width="2.00" stroke-linejoin="bevel" points="141.732,2016.73 2835.47,2016.73"/>
<polyline class="StaffLines" fill="none" stroke="#000000" stroke-width="2.00" stroke-linejoin="bevel" points="141.732,2041.73 2835.47,2041.73"/>
<polyline class="StaffLines" fill="none" stroke="#000000" stroke-width="2.00" stroke-linejoin="bevel" points="141.732,2066.73 2835.47,2066.73"/>
<polyline class="StaffLines" fill="none" stroke="#000000" stroke-width="2.00" stroke-linejoin="bevel" points="141.732,2091.73 2835.47,2091.73"/>
<path class="Text" d="M1196.83,154.982 L1166.11,223.732 L1164.44,223.732 L1134.31,157.732 L1134.31,206.092 C1134.31,212.175 1135.03,216.196 1136.47,218.154 C1137.92,220.113 1140.96,221.212 1145.59,221.451 L1145.59,223.732 L1117.39,223.732 L1117.39,221.451 C1122.35,221.128 1125.53,220.027 1126.93,218.146 C1128.33,216.266 1129.03,212.248 1129.03,206.092 L1129.03,157.373 C1129.03,152.977 1128.37,150.159 1127.05,148.92 C1125.73,147.68 1122.6,146.899 1117.64,146.576 L1117.64,144.295 L1141.39,144.295 L1169.11,204.889 L1195.62,144.295 L1219.51,144.295 L1219.51,146.576 C1215.03,146.972 1212.17,147.81 1210.93,149.092 C1209.68,150.373 1209.06,153.133 1209.06,157.373 L1209.06,210.654 C1209.06,214.894 1209.7,217.672 1210.98,218.99 C1212.26,220.308 1215.11,221.128 1219.51,221.451 L1219.51,223.732 L1185.9,223.732 L1185.9,221.451 C1190.62,221.128 1193.62,220.269 1194.9,218.873 C1196.19,217.477 1196.83,214.295 1196.83,209.326 L1196.83,154.982 M1224.31,211.889 C1224.31,210.451 1224.47,209.115 1224.79,207.881 C1225.1,206.646 1225.66,205.493 1226.47,204.42 C1227.27,203.347 1228.03,202.373 1228.75,201.498 C1229.47,200.623 1230.55,199.727 1231.99,198.81 C1233.43,197.894 1234.63,197.139 1235.59,196.545 C1236.55,195.951 1238.01,195.235 1239.97,194.396 C1241.93,193.558 1243.43,192.92 1244.47,192.482 C1245.51,192.045 1247.15,191.389 1249.39,190.514 C1251.63,189.639 1253.27,189.003 1254.31,188.607 L1254.31,181.326 C1254.31,174.722 1251.27,171.42 1245.19,171.42 C1242.79,171.42 1240.75,171.998 1239.07,173.154 C1237.39,174.31 1236.54,175.691 1236.54,177.295 C1236.54,177.93 1236.65,178.808 1236.85,179.928 C1237.05,181.047 1237.15,181.769 1237.15,182.092 C1237.15,183.456 1236.61,184.639 1235.53,185.639 C1234.45,186.639 1233.19,187.139 1231.75,187.139 C1230.39,187.139 1229.2,186.618 1228.15,185.576 C1227.11,184.534 1226.59,183.331 1226.59,181.967 C1226.59,178.217 1228.53,175.04 1232.41,172.435 C1236.29,169.831 1241.07,168.529 1246.75,168.529 C1253.31,168.529 1257.83,170.102 1260.31,173.248 C1262.79,176.394 1264.03,181.196 1264.03,187.654 L1264.03,210.935 C1264.03,213.56 1264.29,215.37 1264.81,216.365 C1265.33,217.36 1266.27,217.857 1267.62,217.857 C1269.31,217.857 1271.07,217.102 1272.9,215.592 L1272.9,218.732 C1270.83,221.128 1269.01,222.761 1267.45,223.631 C1265.89,224.501 1264.11,224.935 1262.11,224.935 C1259.63,224.935 1257.81,224.238 1256.65,222.842 C1255.48,221.446 1254.75,219.144 1254.44,215.935 C1247.55,221.935 1241.71,224.935 1236.9,224.935 C1233.23,224.935 1230.21,223.714 1227.85,221.271 C1225.49,218.829 1224.31,215.701 1224.31,211.889 M1254.31,208.779 L1254.31,191.467 C1247.11,194.092 1242.07,196.639 1239.19,199.107 C1236.31,201.576 1234.87,204.56 1234.87,208.06 C1234.87,211.321 1235.67,213.748 1237.27,215.342 C1238.87,216.935 1240.59,217.732 1242.44,217.732 C1245.15,217.732 1248.07,216.816 1251.19,214.982 C1252.47,214.274 1253.31,213.521 1253.71,212.725 C1254.11,211.928 1254.31,210.613 1254.31,208.779 M1281.54,176.576 C1281.54,176.576 1279.74,176.696 1276.14,176.935 L1276.14,175.014 C1282.54,173.014 1288.78,170.852 1294.86,168.529 L1295.47,168.889 L1295.47,223.732 C1295.47,232.212 1293.75,238.691 1290.3,243.17 C1286.86,247.649 1281.82,249.889 1275.19,249.889 C1271.9,249.889 1269.2,249.269 1267.08,248.029 C1264.96,246.79 1263.9,245.212 1263.9,243.295 C1263.9,242.014 1264.38,240.912 1265.34,239.99 C1266.3,239.068 1267.46,238.607 1268.83,238.607 C1270.5,238.607 1272.34,239.808 1274.34,242.209 C1276.34,244.61 1278.1,245.81 1279.62,245.81 C1282.02,245.81 1283.58,244.571 1284.3,242.092 C1285.03,239.613 1285.39,235.295 1285.39,229.139 L1285.39,183.654 C1285.39,181.092 1285.09,179.271 1284.48,178.193 C1283.88,177.115 1282.9,176.576 1281.54,176.576 M1289.34,141.779 C1291.1,141.779 1292.58,142.378 1293.78,143.576 C1294.98,144.774 1295.58,146.212 1295.58,147.889 C1295.58,149.649 1294.98,151.11 1293.78,152.271 C1292.58,153.433 1291.1,154.014 1289.34,154.014 C1287.66,154.014 1286.25,153.415 1285.08,152.217 C1283.92,151.019 1283.34,149.579 1283.34,147.896 C1283.34,146.214 1283.94,144.774 1285.15,143.576 C1286.35,142.378 1287.75,141.779 1289.34,141.779 M1333.97,168.529 C1341.64,168.529 1347.96,171.092 1352.93,176.217 C1357.89,181.342 1360.37,187.826 1360.37,195.67 C1360.37,203.982 1357.81,210.938 1352.69,216.537 C1347.57,222.136 1341.25,224.935 1333.73,224.935 C1326.21,224.935 1319.95,222.235 1314.95,216.834 C1309.95,211.433 1307.45,204.696 1307.45,196.623 C1307.45,188.383 1309.91,181.641 1314.83,176.396 C1319.76,171.152 1326.13,168.529 1333.97,168.529 M1318.25,190.795 C1318.25,199.274 1319.81,206.482 1322.93,212.42 C1326.05,218.357 1330.13,221.326 1335.17,221.326 C1339.65,221.326 1343.17,219.425 1345.73,215.623 C1348.29,211.821 1349.58,206.555 1349.58,199.826 C1349.58,191.659 1347.97,185.003 1344.77,179.857 C1341.57,174.712 1337.45,172.139 1332.4,172.139 C1328.16,172.139 1324.75,173.842 1322.15,177.248 C1319.55,180.654 1318.25,185.17 1318.25,190.795 M1398.28,180.295 C1397.07,180.295 1395.59,179.534 1393.83,178.014 C1392.07,176.493 1390.91,175.732 1390.36,175.732 C1388.75,175.732 1386.95,176.902 1384.95,179.24 C1382.95,181.579 1381.95,183.717 1381.95,185.654 L1381.95,212.857 C1381.95,216.326 1382.63,218.665 1383.99,219.873 C1385.35,221.081 1388.07,221.769 1392.15,221.935 L1392.15,223.732 L1363.36,223.732 L1363.36,221.935 C1367.19,221.206 1369.57,220.399 1370.49,219.514 C1371.41,218.628 1371.87,216.654 1371.87,213.592 L1371.87,183.357 C1371.87,180.691 1371.57,178.813 1370.97,177.725 C1370.38,176.636 1369.32,176.092 1367.79,176.092 C1366.51,176.092 1365.11,176.253 1363.59,176.576 L1363.59,174.701 C1370,172.722 1375.92,170.665 1381.36,168.529 L1381.95,168.764 L1381.95,179.482 C1384.91,175.368 1387.43,172.514 1389.51,170.92 C1391.6,169.326 1393.88,168.529 1396.36,168.529 C1398.43,168.529 1400.05,169.089 1401.21,170.209 C1402.37,171.329 1402.95,172.889 1402.95,174.889 C1402.95,176.576 1402.53,177.899 1401.69,178.857 C1400.85,179.816 1399.72,180.295 1398.28,180.295 M1463.54,238.732 L1403.54,238.732 L1403.54,232.248 L1463.54,232.248 L1463.54,238.732 M1495.69,170.935 C1495.77,170.935 1496.41,170.534 1497.61,169.732 L1498.94,169.732 L1499.4,186.06 L1497.61,186.06 C1496.24,180.696 1494.56,176.894 1492.56,174.654 C1490.56,172.415 1487.84,171.295 1484.4,171.295 C1481.69,171.295 1479.47,172.055 1477.75,173.576 C1476.03,175.097 1475.17,177.055 1475.17,179.451 C1475.17,182.889 1476.89,185.607 1480.33,187.607 L1493.29,195.295 C1496.89,197.451 1499.47,199.631 1501.03,201.834 C1502.59,204.037 1503.37,206.618 1503.37,209.576 C1503.37,213.732 1501.71,217.331 1498.39,220.373 C1495.07,223.415 1491.09,224.935 1486.45,224.935 C1484.45,224.935 1481.77,224.576 1478.41,223.857 C1475.05,223.139 1472.97,222.779 1472.17,222.779 C1470.97,222.779 1470.05,223.258 1469.4,224.217 L1467.84,224.217 L1467.84,205.498 L1469.76,205.498 C1471.04,211.092 1472.57,215.05 1474.33,217.373 C1476.89,220.654 1480.45,222.295 1485.01,222.295 C1488.04,222.295 1490.46,221.514 1492.26,219.951 C1494.07,218.389 1494.97,216.29 1494.97,213.654 C1494.97,210.05 1492.89,207.05 1488.73,204.654 L1481.76,200.685 C1476.65,197.81 1473.03,195.053 1470.91,192.412 C1468.79,189.771 1467.73,186.774 1467.73,183.42 C1467.73,179.097 1469.27,175.555 1472.35,172.795 C1475.43,170.034 1479.33,168.654 1484.04,168.654 C1486.69,168.654 1489.17,169.034 1491.49,169.795 C1493.81,170.555 1495.21,170.935 1495.69,170.935 M1510.56,198.154 C1510.56,189.279 1513.18,182.123 1518.42,176.685 C1523.66,171.248 1529.8,168.529 1536.84,168.529 C1541.88,168.529 1546.22,169.751 1549.87,172.193 C1553.51,174.636 1555.33,177.534 1555.33,180.889 C1555.33,182.253 1554.76,183.435 1553.64,184.435 C1552.51,185.435 1551.15,185.935 1549.56,185.935 C1546.84,185.935 1544.96,184.113 1543.92,180.467 L1543.2,177.842 C1542.56,175.623 1541.75,174.118 1540.79,173.326 C1539.84,172.534 1538.28,172.139 1536.12,172.139 C1531.24,172.139 1527.29,174.068 1524.29,177.928 C1521.29,181.787 1519.79,186.779 1519.79,192.904 C1519.79,199.748 1521.53,205.337 1525.01,209.67 C1528.49,214.003 1532.96,216.17 1538.4,216.17 C1541.84,216.17 1544.8,215.334 1547.28,213.662 C1549.76,211.99 1552.44,209.087 1555.33,204.951 L1557,206.029 C1556.2,207.633 1555.5,208.956 1554.9,209.998 C1554.3,211.04 1553.22,212.605 1551.66,214.693 C1550.1,216.782 1548.57,218.469 1547.04,219.756 C1545.52,221.042 1543.52,222.227 1541.04,223.31 C1538.57,224.394 1536,224.935 1533.36,224.935 C1526.72,224.935 1521.26,222.433 1516.98,217.428 C1512.7,212.422 1510.56,205.998 1510.56,198.154 M1562.62,211.889 C1562.62,210.451 1562.78,209.115 1563.1,207.881 C1563.42,206.646 1563.98,205.493 1564.78,204.42 C1565.58,203.347 1566.34,202.373 1567.06,201.498 C1567.78,200.623 1568.86,199.727 1570.3,198.81 C1571.75,197.894 1572.95,197.139 1573.9,196.545 C1574.86,195.951 1576.32,195.235 1578.28,194.396 C1580.24,193.558 1581.74,192.92 1582.78,192.482 C1583.82,192.045 1585.46,191.389 1587.7,190.514 C1589.94,189.639 1591.58,189.003 1592.62,188.607 L1592.62,181.326 C1592.62,174.722 1589.58,171.42 1583.5,171.42 C1581.1,171.42 1579.06,171.998 1577.38,173.154 C1575.7,174.31 1574.86,175.691 1574.86,177.295 C1574.86,177.93 1574.96,178.808 1575.16,179.928 C1575.37,181.047 1575.47,181.769 1575.47,182.092 C1575.47,183.456 1574.93,184.639 1573.84,185.639 C1572.76,186.639 1571.5,187.139 1570.06,187.139 C1568.71,187.139 1567.51,186.618 1566.47,185.576 C1565.43,184.534 1564.9,183.331 1564.9,181.967 C1564.9,178.217 1566.84,175.04 1570.72,172.435 C1574.6,169.831 1579.38,168.529 1585.06,168.529 C1591.62,168.529 1596.14,170.102 1598.62,173.248 C1601.1,176.394 1602.34,181.196 1602.34,187.654 L1602.34,210.935 C1602.34,213.56 1602.6,215.37 1603.12,216.365 C1603.64,217.36 1604.58,217.857 1605.94,217.857 C1607.62,217.857 1609.38,217.102 1611.22,215.592 L1611.22,218.732 C1609.14,221.128 1607.33,222.761 1605.76,223.631 C1604.2,224.501 1602.42,224.935 1600.42,224.935 C1597.94,224.935 1596.12,224.238 1594.96,222.842 C1593.8,221.446 1593.06,219.144 1592.75,215.935 C1585.86,221.935 1580.02,224.935 1575.22,224.935 C1571.54,224.935 1568.52,223.714 1566.16,221.271 C1563.8,218.829 1562.62,215.701 1562.62,211.889 M1592.62,208.779 L1592.62,191.467 C1585.43,194.092 1580.39,196.639 1577.51,199.107 C1574.63,201.576 1573.19,204.56 1573.19,208.06 C1573.19,211.321 1573.98,213.748 1575.58,215.342 C1577.18,216.935 1578.9,217.732 1580.75,217.732 C1583.47,217.732 1586.38,216.816 1589.5,214.982 C1590.78,214.274 1591.62,213.521 1592.02,212.725 C1592.42,211.928 1592.62,210.613 1592.62,208.779 M1612.42,148.982 L1612.42,147.06 C1620.34,145.133 1626.7,143.373 1631.5,141.779 L1631.98,142.014 L1631.98,213.654 C1631.98,216.935 1632.52,219.076 1633.6,220.076 C1634.68,221.076 1637.14,221.696 1640.98,221.935 L1640.98,223.732 L1612.65,223.732 L1612.65,221.935 C1616.41,221.613 1618.89,220.891 1620.09,219.771 C1621.29,218.652 1621.89,216.493 1621.89,213.295 L1621.89,156.06 C1621.89,153.258 1621.53,151.337 1620.81,150.295 C1620.09,149.253 1618.77,148.732 1616.86,148.732 C1615.25,148.732 1613.77,148.816 1612.42,148.982 M1652.61,190.498 C1652.76,195.446 1653.44,199.706 1654.65,203.279 C1655.85,206.852 1657.41,209.521 1659.33,211.287 C1661.24,213.053 1663.18,214.308 1665.15,215.053 C1667.11,215.797 1669.17,216.17 1671.33,216.17 C1675.17,216.17 1678.51,215.227 1681.35,213.342 C1684.19,211.456 1687.04,208.279 1689.92,203.81 L1691.84,204.623 C1689.36,211.196 1685.92,216.225 1681.52,219.709 C1677.12,223.193 1672.08,224.935 1666.4,224.935 C1659.53,224.935 1654.07,222.503 1650.03,217.639 C1645.99,212.774 1643.97,206.201 1643.97,197.92 C1643.97,189.076 1646.31,181.967 1650.99,176.592 C1655.67,171.217 1661.69,168.529 1669.04,168.529 C1675.13,168.529 1679.85,170.35 1683.21,173.99 C1686.57,177.631 1688.69,183.133 1689.56,190.498 L1652.61,190.498 M1652.84,186.889 L1677.33,186.889 C1676.52,181.691 1675.28,178.092 1673.61,176.092 C1671.93,174.092 1669.25,173.092 1665.56,173.092 C1658.36,173.092 1654.12,177.691 1652.84,186.889 M1725.19,170.935 C1725.27,170.935 1725.91,170.534 1727.11,169.732 L1728.44,169.732 L1728.9,186.06 L1727.11,186.06 C1725.74,180.696 1724.06,176.894 1722.06,174.654 C1720.06,172.415 1717.34,171.295 1713.9,171.295 C1711.19,171.295 1708.97,172.055 1707.25,173.576 C1705.53,175.097 1704.67,177.055 1704.67,179.451 C1704.67,182.889 1706.39,185.607 1709.83,187.607 L1722.79,195.295 C1726.39,197.451 1728.97,199.631 1730.53,201.834 C1732.09,204.037 1732.87,206.618 1732.87,209.576 C1732.87,213.732 1731.21,217.331 1727.89,220.373 C1724.57,223.415 1720.59,224.935 1715.95,224.935 C1713.95,224.935 1711.27,224.576 1707.91,223.857 C1704.55,223.139 1702.47,222.779 1701.67,222.779 C1700.47,222.779 1699.55,223.258 1698.9,224.217 L1697.34,224.217 L1697.34,205.498 L1699.26,205.498 C1700.54,211.092 1702.07,215.05 1703.83,217.373 C1706.39,220.654 1709.95,222.295 1714.51,222.295 C1717.54,222.295 1719.96,221.514 1721.76,219.951 C1723.57,218.389 1724.47,216.29 1724.47,213.654 C1724.47,210.05 1722.39,207.05 1718.23,204.654 L1711.26,200.685 C1706.15,197.81 1702.53,195.053 1700.41,192.412 C1698.29,189.771 1697.23,186.774 1697.23,183.42 C1697.23,179.097 1698.77,175.555 1701.85,172.795 C1704.93,170.034 1708.83,168.654 1713.54,168.654 C1716.19,168.654 1718.67,169.034 1720.99,169.795 C1723.31,170.555 1724.71,170.935 1725.19,170.935 M1797.06,238.732 L1737.06,238.732 L1737.06,232.248 L1797.06,232.248 L1797.06,238.732 M1819,152.576 C1817.56,152.576 1814.68,153.456 1810.36,155.217 L1810.36,153.529 L1831.97,142.623 L1832.92,142.857 L1832.92,214.857 C1832.92,217.732 1833.64,219.61 1835.08,220.49 C1836.53,221.37 1839.61,221.852 1844.33,221.935 L1844.33,223.732 L1811.2,223.732 L1811.2,221.935 C1815.68,221.769 1818.7,221.107 1820.26,219.951 C1821.83,218.795 1822.61,216.337 1822.61,212.576 L1822.61,158.217 C1822.61,154.456 1821.4,152.576 1819,152.576"/>
<path class="MeasureNumber" d="M128.045,1918.01 C127.566,1918.01 126.607,1918.31 125.17,1918.89 L125.17,1918.34 L132.373,1914.7 L132.685,1914.78 L132.685,1938.78 C132.685,1939.74 132.925,1940.36 133.404,1940.66 C133.883,1940.95 134.909,1941.11 136.482,1941.14 L136.482,1941.73 L125.451,1941.73 L125.451,1941.14 C126.941,1941.08 127.946,1940.85 128.467,1940.47 C128.988,1940.08 129.248,1939.26 129.248,1938.01 L129.248,1919.89 C129.248,1918.64 128.847,1918.01 128.045,1918.01 M143.951,1938.61 C144.566,1938.61 145.48,1938.97 146.693,1939.69 C147.907,1940.42 148.967,1940.78 149.873,1940.78 C151.342,1940.78 152.581,1940.21 153.592,1939.07 C154.602,1937.93 155.107,1936.53 155.107,1934.86 C155.107,1933.82 154.928,1932.9 154.568,1932.11 C154.209,1931.32 153.751,1930.7 153.193,1930.26 C152.636,1929.83 151.969,1929.47 151.193,1929.19 C150.417,1928.92 149.691,1928.74 149.014,1928.66 C148.337,1928.57 147.613,1928.53 146.842,1928.53 L146.842,1928.01 C147.748,1927.69 148.527,1927.38 149.178,1927.07 C149.829,1926.76 150.514,1926.35 151.232,1925.84 C151.951,1925.32 152.506,1924.69 152.896,1923.94 C153.287,1923.19 153.482,1922.33 153.482,1921.37 C153.482,1920.12 153.074,1919.1 152.256,1918.3 C151.438,1917.49 150.378,1917.09 149.076,1917.09 C147.826,1917.09 146.727,1917.43 145.779,1918.12 C144.831,1918.8 143.946,1919.87 143.123,1921.34 L142.514,1921.17 C143.212,1919.29 144.154,1917.74 145.342,1916.52 C146.529,1915.31 148.212,1914.7 150.389,1914.7 C152.232,1914.7 153.735,1915.21 154.896,1916.22 C156.058,1917.23 156.639,1918.55 156.639,1920.17 C156.639,1921.26 156.357,1922.23 155.795,1923.05 C155.232,1923.88 154.258,1924.76 152.873,1925.7 C154.477,1926.39 155.732,1927.27 156.639,1928.34 C157.545,1929.42 157.998,1930.95 157.998,1932.95 C157.998,1935.79 156.951,1938.05 154.857,1939.75 C152.764,1941.45 150.128,1942.3 146.951,1942.3 C145.566,1942.3 144.467,1942.09 143.654,1941.67 C142.842,1941.25 142.435,1940.7 142.435,1940.01 C142.435,1939.59 142.576,1939.25 142.857,1938.99 C143.139,1938.74 143.503,1938.61 143.951,1938.61"/>
<path class="MeasureNumber" d="M146.514,983.874 C146.514,982.446 146.199,981.181 145.568,980.077 C144.938,978.972 144.178,978.118 143.287,977.514 C142.396,976.91 141.399,976.413 140.295,976.022 C139.191,975.631 138.23,975.376 137.412,975.256 C136.594,975.137 135.883,975.077 135.279,975.077 C134.956,975.077 134.795,974.967 134.795,974.749 C134.795,974.676 134.805,974.613 134.826,974.561 L139.185,965.264 L147.545,965.264 C147.972,965.264 148.313,965.196 148.568,965.061 C148.824,964.926 149.097,964.644 149.389,964.217 L149.748,964.499 L148.232,967.842 C148.128,968.061 147.821,968.17 147.31,968.17 L139.467,968.17 L137.795,971.608 C141.68,972.306 144.571,973.441 146.467,975.014 C148.363,976.587 149.31,978.894 149.31,981.936 C149.31,983.53 149.063,984.946 148.568,986.186 C148.074,987.426 147.446,988.423 146.685,989.178 C145.925,989.933 145.045,990.553 144.045,991.038 C143.045,991.522 142.087,991.853 141.17,992.03 C140.253,992.207 139.326,992.295 138.389,992.295 C136.899,992.295 135.714,992.074 134.834,991.631 C133.954,991.189 133.514,990.582 133.514,989.811 C133.514,988.821 134.087,988.327 135.232,988.327 C135.982,988.327 136.949,988.735 138.131,989.553 C139.313,990.371 140.253,990.78 140.951,990.78 C142.524,990.78 143.844,990.113 144.912,988.78 C145.98,987.446 146.514,985.811 146.514,983.874"/>
<path class="MeasureNumber" d="M134.092,1467.61 L133.967,1466.81 C137.008,1466.28 139.589,1464.98 141.709,1462.92 C143.829,1460.86 145.3,1458.2 146.123,1454.94 C144.154,1456.48 142.159,1457.25 140.139,1457.25 C137.972,1457.25 136.23,1456.5 134.912,1455.01 C133.594,1453.51 132.935,1451.55 132.935,1449.11 C132.935,1446.4 133.727,1444.14 135.31,1442.33 C136.894,1440.53 138.873,1439.62 141.248,1439.62 C143.831,1439.62 145.951,1440.68 147.607,1442.8 C149.264,1444.91 150.092,1447.63 150.092,1450.95 C150.092,1452.01 149.998,1453.11 149.81,1454.23 C149.623,1455.36 149.188,1456.69 148.506,1458.23 C147.824,1459.76 146.938,1461.14 145.85,1462.35 C144.761,1463.56 143.204,1464.67 141.178,1465.66 C139.152,1466.64 136.79,1467.3 134.092,1467.61 M141.576,1455.5 C142.076,1455.5 142.646,1455.43 143.287,1455.28 C143.928,1455.13 144.576,1454.81 145.232,1454.32 C145.889,1453.82 146.217,1453.22 146.217,1452.5 L146.217,1450.95 C146.217,1444.19 144.456,1440.81 140.935,1440.81 C140.102,1440.81 139.394,1441.03 138.81,1441.48 C138.227,1441.92 137.782,1442.5 137.475,1443.21 C137.167,1443.92 136.946,1444.65 136.81,1445.4 C136.675,1446.14 136.607,1446.93 136.607,1447.76 C136.607,1450.13 137.055,1452.01 137.951,1453.41 C138.847,1454.8 140.055,1455.5 141.576,1455.5"/>
<polyline class="BarLine" fill="none" stroke="#000000" stroke-width="4.00" stroke-linejoin="bevel" points="1611.95,565.733 1611.95,667.733"/>
<polyline class="BarLine" fill="none" stroke="#000000" stroke-width="4.00" stroke-linejoin="bevel" points="2802.72,1990.73 2802.72,2092.73"/>
<polyline class="BarLine" fill="none" stroke="#000000" stroke-width="12.50" stroke-linejoin="bevel" points="2829.22,1990.73 2829.22,2092.73"/>
<polyline class="BarLine" fill="none" stroke="#000000" stroke-width="4.00" stroke-linejoin="bevel" points="2261.5,565.733 2261.5,667.733"/>
<polyline class="BarLine" fill="none" stroke="#000000" stroke-width="4.00" stroke-linejoin="bevel" points="2833.47,565.733 2833.47,667.733"/>
<polyline class="BarLine" fill="none" stroke="#000000" stroke-width="4.00" stroke-linejoin="bevel" points="958.611,1040.73 958.611,1142.73"/>
<polyline class="BarLine" fill="none" stroke="#000000" stroke-width="4.00" stroke-linejoin="bevel" points="1609.47,1040.73 1609.47,1142.73"/>
<polyline class="BarLine" fill="none" stroke="#000000" stroke-width="4.00" stroke-linejoin="bevel" points="2260.34,1040.73 2260.34,1142.73"/>
<polyline class="BarLine" fill="none" stroke="#000000" stroke-width="4.00" stroke-linejoin="bevel" points="2833.47,1040.73 2833.47,1142.73"/>
<polyline class="BarLine" fill="none" stroke="#000000" stroke-width="4.00" stroke-linejoin="bevel" points="980.881,1515.73 980.881,1617.73"/>
<polyline class="BarLine" fill="none" stroke="#000000" stroke-width="4.00" stroke-linejoin="bevel" points="1624,1515.73 1624,1617.73"/>
<polyline class="BarLine" fill="none" stroke="#000000" stroke-width="4.00" stroke-linejoin="bevel" points="2267.12,1515.73 2267.12,1617.73"/>
<polyline class="BarLine" fill="none" stroke="#000000" stroke-width="4.00" stroke-linejoin="bevel" points="2833.47,1515.73 2833.47,1617.73"/>
<polyline class="BarLine" fill="none" stroke="#000000" stroke-width="4.00" stroke-linejoin="bevel" points="995.215,1990.73 995.215,2092.73"/>
<polyline class="BarLine" fill="none" stroke="#000000" stroke-width="4.00" stroke-linejoin="bevel" points="1622.65,1990.73 1622.65,2092.73"/>
<polyline class="BarLine" fill="none" stroke="#000000" stroke-width="4.00" stroke-linejoin="bevel" points="2250.09,1990.73 2250.09,2092.73"/>
<polyline class="BarLine" fill="none" stroke="#000000" stroke-width="4.00" stroke-linejoin="bevel" points="962.414,565.733 962.414,667.733"/>
<polyline class="LedgerLine" fill="none" stroke="#000000" stroke-width="4.00" stroke-linejoin="bevel" points="330.373,691.733 382.287,691.733"/>
<polyline class="LedgerLine" fill="none" stroke="#000000" stroke-width="4.00" stroke-linejoin="bevel" points="2588.36,691.733 2642.08,691.733"/>
<polyline class="LedgerLine" fill="none" stroke="#000000" stroke-width="4.00" stroke-linejoin="bevel" points="1305.44,1491.73 1357.35,1491.73"/>
<polyline class="LedgerLine" fill="none" stroke="#000000" stroke-width="4.00" stroke-linejoin="bevel" points="1458.97,1491.73 1510.88,1491.73"/>
<polyline class="LedgerLine" fill="none" stroke="#000000" stroke-width="4.00" stroke-linejoin="bevel" points="1641.5,1491.73 1693.41,1491.73"/>
<polyline class="Stem" fill="none" stroke="#000000" stroke-width="3.25" stroke-linejoin="bevel" points="1470.09,1485.1 1470.09,1566.73"/>
<polyline class="Stem" fill="none" stroke="#000000" stroke-width="3.25" stroke-linejoin="bevel" points="826.977,1535.1 826.977,1616.73"/>
<polyline class="Stem" fill="none" stroke="#000000" stroke-width="3.25" stroke-linejoin="bevel" points="1652.62,1497.6 1652.62,1579.23"/>
<polyline class="Stem" fill="none" stroke="#000000" stroke-width="3.25" stroke-linejoin="bevel" points="1316.56,1497.6 1316.56,1579.23"/>
<polyline class="Stem" fill="none" stroke="#000000" stroke-width="3.25" stroke-linejoin="bevel" points="1163.04,1510.1 1163.04,1591.73"/>
<polyline class="Stem" fill="none" stroke="#000000" stroke-width="3.25" stroke-linejoin="bevel" points="1009.51,1522.6 1009.51,1604.23"/>
<polyline class="Stem" fill="none" stroke="#000000" stroke-width="3.25" stroke-linejoin="bevel" points="2449.27,1560.1 2449.27,1635.48"/>
<polyline class="Stem" fill="none" stroke="#000000" stroke-width="3.25" stroke-linejoin="bevel" points="673.447,1547.6 673.447,1629.23"/>
<polyline class="Stem" fill="none" stroke="#000000" stroke-width="3.25" stroke-linejoin="bevel" points="519.918,1560.1 519.918,1635.48"/>
<polyline class="Stem" fill="none" stroke="#000000" stroke-width="3.25" stroke-linejoin="bevel" points="366.389,1572.6 366.389,1641.73"/>
<polyline class="Stem" fill="none" stroke="#000000" stroke-width="3.25" stroke-linejoin="bevel" points="526.297,673.364 526.297,591.733"/>
<polyline class="Stem" fill="none" stroke="#000000" stroke-width="3.25" stroke-linejoin="bevel" points="2630.46,1124.43 2630.46,1041.73"/>
<polyline class="Stem" fill="none" stroke="#000000" stroke-width="3.25" stroke-linejoin="bevel" points="2474.09,1110.86 2474.09,1029.23"/>
<polyline class="Stem" fill="none" stroke="#000000" stroke-width="3.25" stroke-linejoin="bevel" points="2318.63,1098.36 2318.63,1022.98"/>
<polyline class="Stem" fill="none" stroke="#000000" stroke-width="3.25" stroke-linejoin="bevel" points="681.433,660.863 681.433,579.233"/>
<polyline class="Stem" fill="none" stroke="#000000" stroke-width="3.25" stroke-linejoin="bevel" points="1023.84,2047.6 1023.84,2116.73"/>
<polyline class="Stem" fill="none" stroke="#000000" stroke-width="3.25" stroke-linejoin="bevel" points="2608.5,2086.93 2608.5,2004.23"/>
<polyline class="Stem" fill="none" stroke="#000000" stroke-width="3.25" stroke-linejoin="bevel" points="2457.99,2073.36 2457.99,1991.73"/>
<polyline class="Stem" fill="none" stroke="#000000" stroke-width="3.25" stroke-linejoin="bevel" points="2308.38,2060.86 2308.38,1979.23"/>
<polyline class="Stem" fill="none" stroke="#000000" stroke-width="3.25" stroke-linejoin="bevel" points="2129.77,2048.36 2129.77,1972.98"/>
<polyline class="Stem" fill="none" stroke="#000000" stroke-width="3.25" stroke-linejoin="bevel" points="1950.49,2047.6 1950.49,2116.73"/>
<polyline class="Stem" fill="none" stroke="#000000" stroke-width="3.25" stroke-linejoin="bevel" points="1800.89,2035.1 1800.89,2110.48"/>
<polyline class="Stem" fill="none" stroke="#000000" stroke-width="3.25" stroke-linejoin="bevel" points="1651.28,2022.6 1651.28,2104.23"/>
<polyline class="Stem" fill="none" stroke="#000000" stroke-width="3.25" stroke-linejoin="bevel" points="1472.67,2010.1 1472.67,2091.73"/>
<polyline class="Stem" fill="none" stroke="#000000" stroke-width="3.25" stroke-linejoin="bevel" points="1323.06,2022.6 1323.06,2104.23"/>
<polyline class="Stem" fill="none" stroke="#000000" stroke-width="3.25" stroke-linejoin="bevel" points="1173.45,2035.1 1173.45,2110.48"/>
<polyline class="Stem" fill="none" stroke="#000000" stroke-width="3.25" stroke-linejoin="bevel" points="1806.15,1510.1 1806.15,1591.73"/>
<polyline class="Stem" fill="none" stroke="#000000" stroke-width="3.25" stroke-linejoin="bevel" points="874.895,2048.36 874.895,1972.98"/>
<polyline class="Stem" fill="none" stroke="#000000" stroke-width="3.25" stroke-linejoin="bevel" points="725.286,2060.86 725.286,1979.23"/>
<polyline class="Stem" fill="none" stroke="#000000" stroke-width="3.25" stroke-linejoin="bevel" points="575.677,2073.36 575.677,1991.73"/>
<polyline class="Stem" fill="none" stroke="#000000" stroke-width="3.25" stroke-linejoin="bevel" points="426.068,2085.86 426.068,2004.23"/>
<polyline class="Stem" fill="none" stroke="#000000" stroke-width="3.25" stroke-linejoin="bevel" points="371.162,685.864 371.162,604.233"/>
<polyline class="Stem" fill="none" stroke="#000000" stroke-width="3.25" stroke-linejoin="bevel" points="2601.9,1571.63 2601.9,1641.73"/>
<polyline class="Stem" fill="none" stroke="#000000" stroke-width="3.25" stroke-linejoin="bevel" points="1175.84,623.363 1175.84,547.983"/>
<polyline class="Stem" fill="none" stroke="#000000" stroke-width="3.25" stroke-linejoin="bevel" points="2295.74,1547.6 2295.74,1629.23"/>
<polyline class="Stem" fill="none" stroke="#000000" stroke-width="3.25" stroke-linejoin="bevel" points="2113.21,1535.1 2113.21,1616.73"/>
<polyline class="Stem" fill="none" stroke="#000000" stroke-width="3.25" stroke-linejoin="bevel" points="1959.68,1522.6 1959.68,1604.23"/>
<polyline class="Stem" fill="none" stroke="#000000" stroke-width="3.25" stroke-linejoin="bevel" points="1456.44,610.102 1456.44,685.483"/>
<polyline class="Stem" fill="none" stroke="#000000" stroke-width="3.25" stroke-linejoin="bevel" points="2135.65,648.363 2135.65,566.733"/>
<polyline class="Stem" fill="none" stroke="#000000" stroke-width="3.25" stroke-linejoin="bevel" points="1453.63,1047.6 1453.63,1129.23"/>
<polyline class="Stem" fill="none" stroke="#000000" stroke-width="3.25" stroke-linejoin="bevel" points="1298.17,1060.1 1298.17,1141.73"/>
<polyline class="Stem" fill="none" stroke="#000000" stroke-width="3.25" stroke-linejoin="bevel" points="2319.78,660.863 2319.78,579.233"/>
<polyline class="Stem" fill="none" stroke="#000000" stroke-width="3.25" stroke-linejoin="bevel" points="1142.7,1072.6 1142.7,1154.23"/>
<polyline class="Stem" fill="none" stroke="#000000" stroke-width="3.25" stroke-linejoin="bevel" points="987.236,1085.1 987.236,1160.48"/>
<polyline class="Stem" fill="none" stroke="#000000" stroke-width="3.25" stroke-linejoin="bevel" points="836.568,648.363 836.568,566.733"/>
<polyline class="Stem" fill="none" stroke="#000000" stroke-width="3.25" stroke-linejoin="bevel" points="2474.92,673.364 2474.92,591.733"/>
<polyline class="Stem" fill="none" stroke="#000000" stroke-width="3.25" stroke-linejoin="bevel" points="1020.7,635.863 1020.7,554.233"/>
<polyline class="Stem" fill="none" stroke="#000000" stroke-width="3.25" stroke-linejoin="bevel" points="802.771,1097.6 802.771,1166.73"/>
<polyline class="Stem" fill="none" stroke="#000000" stroke-width="3.25" stroke-linejoin="bevel" points="2630.96,686.933 2630.96,604.233"/>
<polyline class="Stem" fill="none" stroke="#000000" stroke-width="3.25" stroke-linejoin="bevel" points="676.969,1098.36 676.969,1022.98"/>
<polyline class="Stem" fill="none" stroke="#000000" stroke-width="3.25" stroke-linejoin="bevel" points="521.503,1110.86 521.503,1029.23"/>
<polyline class="Stem" fill="none" stroke="#000000" stroke-width="3.25" stroke-linejoin="bevel" points="2104.5,1097.6 2104.5,1166.73"/>
<polyline class="Stem" fill="none" stroke="#000000" stroke-width="3.25" stroke-linejoin="bevel" points="1301.31,622.602 1301.31,691.733"/>
<polyline class="Stem" fill="none" stroke="#000000" stroke-width="3.25" stroke-linejoin="bevel" points="366.037,1123.36 366.037,1041.73"/>
<polyline class="Stem" fill="none" stroke="#000000" stroke-width="3.25" stroke-linejoin="bevel" points="1825.38,623.363 1825.38,547.983"/>
<polyline class="Stem" fill="none" stroke="#000000" stroke-width="3.25" stroke-linejoin="bevel" points="1793.57,1072.6 1793.57,1154.23"/>
<polyline class="Stem" fill="none" stroke="#000000" stroke-width="3.25" stroke-linejoin="bevel" points="1640.58,622.602 1640.58,691.733"/>
<polyline class="Stem" fill="none" stroke="#000000" stroke-width="3.25" stroke-linejoin="bevel" points="1949.03,1085.1 1949.03,1160.48"/>
<polyline class="Stem" fill="none" stroke="#000000" stroke-width="3.25" stroke-linejoin="bevel" points="1980.51,635.863 1980.51,554.233"/>
<polyline class="Stem" fill="none" stroke="#000000" stroke-width="3.25" stroke-linejoin="bevel" points="1638.1,1060.1 1638.1,1141.73"/>
<path class="Note" d="M2605.29,702.373 C2607.17,702.373 2611.13,700.42 2617.15,696.514 C2623.18,692.608 2626.73,689.988 2627.8,688.655 C2628.87,687.321 2629.41,686.134 2629.41,685.092 C2629.41,684.05 2628.99,683.123 2628.14,682.311 C2627.29,681.498 2626.31,681.092 2625.21,681.092 C2623.26,681.092 2619.27,683.061 2613.25,686.998 C2607.22,690.936 2603.69,693.556 2602.64,694.858 C2601.6,696.16 2601.08,697.332 2601.08,698.373 C2601.08,699.415 2601.49,700.342 2602.31,701.155 C2603.13,701.967 2604.12,702.373 2605.29,702.373 M2624.24,677.967 C2629.83,677.967 2632.63,680.373 2632.63,685.186 C2632.63,687.53 2631.95,690.248 2630.58,693.342 C2629.22,696.436 2627.39,698.795 2625.11,700.42 C2620.1,703.806 2613.82,705.498 2606.27,705.498 C2600.67,705.498 2597.86,703.092 2597.86,698.28 C2597.86,696.134 2598.53,693.464 2599.86,690.272 C2601.2,687.079 2603.04,684.67 2605.38,683.045 C2610.4,679.66 2616.69,677.967 2624.24,677.967"/>
<path class="Note" d="M1321.65,602.967 C1324.78,602.967 1327.38,603.748 1329.47,605.311 C1331.55,606.873 1332.59,609.118 1332.59,612.045 C1332.59,616.535 1330.26,620.733 1325.61,624.639 C1320.96,628.545 1315.97,630.498 1310.62,630.498 C1307.5,630.498 1304.86,629.686 1302.72,628.061 C1300.69,626.3 1299.68,624.087 1299.68,621.42 C1299.68,617.056 1302,612.889 1306.62,608.92 C1311.25,604.951 1316.26,602.967 1321.65,602.967"/>
<path class="Note" d="M2465.6,665.467 C2468.72,665.467 2471.33,666.248 2473.41,667.811 C2475.5,669.373 2476.54,671.618 2476.54,674.545 C2476.54,679.035 2474.21,683.233 2469.56,687.139 C2464.91,691.045 2459.91,692.998 2454.57,692.998 C2451.44,692.998 2448.81,692.186 2446.66,690.561 C2444.64,688.8 2443.63,686.587 2443.63,683.92 C2443.63,679.556 2445.94,675.389 2450.57,671.42 C2455.19,667.451 2460.2,665.467 2465.6,665.467"/>
<path class="Note" d="M1660.92,602.967 C1664.05,602.967 1666.65,603.748 1668.74,605.311 C1670.82,606.873 1671.86,609.118 1671.86,612.045 C1671.86,616.535 1669.54,620.733 1664.88,624.639 C1660.23,628.545 1655.24,630.498 1649.89,630.498 C1646.77,630.498 1644.13,629.686 1641.99,628.061 C1639.96,626.3 1638.95,624.087 1638.95,621.42 C1638.95,617.056 1641.27,612.889 1645.89,608.92 C1650.52,604.951 1655.53,602.967 1660.92,602.967"/>
<path class="Note" d="M1671.62,2002.97 C1674.74,2002.97 1677.35,2003.75 1679.43,2005.31 C1681.52,2006.87 1682.56,2009.12 1682.56,2012.05 C1682.56,2016.54 1680.23,2020.73 1675.58,2024.64 C1670.93,2028.55 1665.93,2030.5 1660.59,2030.5 C1657.46,2030.5 1654.83,2029.69 1652.68,2028.06 C1650.66,2026.3 1649.65,2024.09 1649.65,2021.42 C1649.65,2017.06 1651.96,2012.89 1656.59,2008.92 C1661.21,2004.95 1666.22,2002.97 1671.62,2002.97"/>
<path class="Note" d="M2607.69,1577.37 C2609.58,1577.37 2613.54,1575.42 2619.56,1571.51 C2625.59,1567.61 2629.14,1564.99 2630.21,1563.66 C2631.28,1562.32 2631.82,1561.13 2631.82,1560.09 C2631.82,1559.05 2631.39,1558.12 2630.55,1557.31 C2629.7,1556.5 2628.72,1556.09 2627.62,1556.09 C2625.67,1556.09 2621.68,1558.06 2615.65,1562 C2609.63,1565.94 2606.09,1568.56 2605.05,1569.86 C2604.01,1571.16 2603.49,1572.33 2603.49,1573.37 C2603.49,1574.42 2603.9,1575.34 2604.72,1576.16 C2605.54,1576.97 2606.53,1577.37 2607.69,1577.37 M2626.65,1552.97 C2632.24,1552.97 2635.04,1555.37 2635.04,1560.19 C2635.04,1562.53 2634.36,1565.25 2632.99,1568.34 C2631.63,1571.44 2629.8,1573.8 2627.52,1575.42 C2622.51,1578.81 2616.23,1580.5 2608.68,1580.5 C2603.07,1580.5 2600.27,1578.09 2600.27,1573.28 C2600.27,1571.13 2600.94,1568.47 2602.27,1565.27 C2603.61,1562.08 2605.44,1559.67 2607.79,1558.05 C2612.81,1554.66 2619.09,1552.97 2626.65,1552.97"/>
<path class="Note" d="M1493.01,1990.47 C1496.14,1990.47 1498.74,1991.25 1500.82,1992.81 C1502.91,1994.37 1503.95,1996.62 1503.95,1999.55 C1503.95,2004.04 1501.62,2008.23 1496.97,2012.14 C1492.32,2016.05 1487.32,2018 1481.98,2018 C1478.85,2018 1476.22,2017.19 1474.07,2015.56 C1472.05,2013.8 1471.04,2011.59 1471.04,2008.92 C1471.04,2004.56 1473.35,2000.39 1477.98,1996.42 C1482.6,1992.45 1487.62,1990.47 1493.01,1990.47"/>
<path class="Note" d="M2469.61,1540.47 C2472.74,1540.47 2475.34,1541.25 2477.43,1542.81 C2479.51,1544.37 2480.55,1546.62 2480.55,1549.55 C2480.55,1554.04 2478.23,1558.23 2473.57,1562.14 C2468.92,1566.05 2463.93,1568 2458.58,1568 C2455.46,1568 2452.82,1567.19 2450.68,1565.56 C2448.66,1563.8 2447.65,1561.59 2447.65,1558.92 C2447.65,1554.56 2449.96,1550.39 2454.58,1546.42 C2459.21,1542.45 2464.22,1540.47 2469.61,1540.47"/>
<path class="Note" d="M827.247,640.467 C830.372,640.467 832.977,641.248 835.06,642.811 C837.143,644.373 838.185,646.618 838.185,649.545 C838.185,654.035 835.859,658.233 831.208,662.139 C826.557,666.045 821.56,667.998 816.216,667.998 C813.091,667.998 810.456,667.186 808.31,665.561 C806.289,663.8 805.279,661.587 805.279,658.92 C805.279,654.556 807.591,650.389 812.216,646.42 C816.841,642.451 821.852,640.467 827.247,640.467"/>
<path class="Note" d="M2316.08,1527.97 C2319.21,1527.97 2321.81,1528.75 2323.9,1530.31 C2325.98,1531.87 2327.02,1534.12 2327.02,1537.05 C2327.02,1541.54 2324.7,1545.73 2320.05,1549.64 C2315.39,1553.55 2310.4,1555.5 2305.05,1555.5 C2301.93,1555.5 2299.29,1554.69 2297.15,1553.06 C2295.13,1551.3 2294.12,1549.09 2294.12,1546.42 C2294.12,1542.06 2296.43,1537.89 2301.05,1533.92 C2305.68,1529.95 2310.69,1527.97 2316.08,1527.97"/>
<path class="Note" d="M1821.23,2015.47 C1824.35,2015.47 1826.96,2016.25 1829.04,2017.81 C1831.12,2019.37 1832.17,2021.62 1832.17,2024.55 C1832.17,2029.04 1829.84,2033.23 1825.19,2037.14 C1820.54,2041.05 1815.54,2043 1810.2,2043 C1807.07,2043 1804.44,2042.19 1802.29,2040.56 C1800.27,2038.8 1799.26,2036.59 1799.26,2033.92 C1799.26,2029.56 1801.57,2025.39 1806.2,2021.42 C1810.82,2017.45 1815.83,2015.47 1821.23,2015.47"/>
<path class="Note" d="M2299.06,2052.97 C2302.18,2052.97 2304.78,2053.75 2306.87,2055.31 C2308.95,2056.87 2309.99,2059.12 2309.99,2062.05 C2309.99,2066.54 2307.67,2070.73 2303.02,2074.64 C2298.37,2078.55 2293.37,2080.5 2288.02,2080.5 C2284.9,2080.5 2282.26,2079.69 2280.12,2078.06 C2278.1,2076.3 2277.09,2074.09 2277.09,2071.42 C2277.09,2067.06 2279.4,2062.89 2284.02,2058.92 C2288.65,2054.95 2293.66,2052.97 2299.06,2052.97"/>
<path class="Note" d="M1044.18,2027.97 C1047.31,2027.97 1049.91,2028.75 1052,2030.31 C1054.08,2031.87 1055.12,2034.12 1055.12,2037.05 C1055.12,2041.54 1052.8,2045.73 1048.14,2049.64 C1043.49,2053.55 1038.5,2055.5 1033.15,2055.5 C1030.03,2055.5 1027.39,2054.69 1025.25,2053.06 C1023.23,2051.3 1022.22,2049.09 1022.22,2046.42 C1022.22,2042.06 1024.53,2037.89 1029.15,2033.92 C1033.78,2029.95 1038.79,2027.97 1044.18,2027.97"/>
<path class="Note" d="M1816.06,615.467 C1819.18,615.467 1821.79,616.248 1823.87,617.811 C1825.95,619.373 1827,621.618 1827,624.545 C1827,629.035 1824.67,633.233 1820.02,637.139 C1815.37,641.045 1810.37,642.998 1805.03,642.998 C1801.9,642.998 1799.27,642.186 1797.12,640.561 C1795.1,638.8 1794.09,636.587 1794.09,633.92 C1794.09,629.556 1796.4,625.389 1801.03,621.42 C1805.65,617.451 1810.66,615.467 1816.06,615.467"/>
<path class="Note" d="M1343.4,2002.97 C1346.53,2002.97 1349.13,2003.75 1351.21,2005.31 C1353.3,2006.87 1354.34,2009.12 1354.34,2012.05 C1354.34,2016.54 1352.01,2020.73 1347.36,2024.64 C1342.71,2028.55 1337.71,2030.5 1332.37,2030.5 C1329.25,2030.5 1326.61,2029.69 1324.46,2028.06 C1322.44,2026.3 1321.43,2024.09 1321.43,2021.42 C1321.43,2017.06 1323.75,2012.89 1328.37,2008.92 C1333,2004.95 1338.01,2002.97 1343.4,2002.97"/>
<path class="Note" d="M416.748,2077.97 C419.873,2077.97 422.477,2078.75 424.561,2080.31 C426.644,2081.87 427.686,2084.12 427.686,2087.05 C427.686,2091.54 425.36,2095.73 420.709,2099.64 C416.058,2103.55 411.061,2105.5 405.717,2105.5 C402.592,2105.5 399.956,2104.69 397.811,2103.06 C395.79,2101.3 394.779,2099.09 394.779,2096.42 C394.779,2092.06 397.092,2087.89 401.717,2083.92 C406.342,2079.95 411.352,2077.97 416.748,2077.97"/>
<path class="Note" d="M2120.45,2040.47 C2123.57,2040.47 2126.18,2041.25 2128.26,2042.81 C2130.34,2044.37 2131.38,2046.62 2131.38,2049.55 C2131.38,2054.04 2129.06,2058.23 2124.41,2062.14 C2119.76,2066.05 2114.76,2068 2109.42,2068 C2106.29,2068 2103.66,2067.19 2101.51,2065.56 C2099.49,2063.8 2098.48,2061.59 2098.48,2058.92 C2098.48,2054.56 2100.79,2050.39 2105.42,2046.42 C2110.04,2042.45 2115.05,2040.47 2120.45,2040.47"/>
<path class="Note" d="M2310.46,652.967 C2313.59,652.967 2316.19,653.748 2318.28,655.311 C2320.36,656.873 2321.4,659.118 2321.4,662.045 C2321.4,666.535 2319.08,670.733 2314.42,674.639 C2309.77,678.545 2304.78,680.498 2299.43,680.498 C2296.31,680.498 2293.67,679.686 2291.53,678.061 C2289.51,676.3 2288.5,674.087 2288.5,671.42 C2288.5,667.056 2290.81,662.889 2295.43,658.92 C2300.06,654.951 2305.07,652.967 2310.46,652.967"/>
<path class="Note" d="M566.357,2065.47 C569.482,2065.47 572.086,2066.25 574.17,2067.81 C576.253,2069.37 577.295,2071.62 577.295,2074.55 C577.295,2079.04 574.969,2083.23 570.318,2087.14 C565.667,2091.05 560.67,2093 555.326,2093 C552.201,2093 549.565,2092.19 547.42,2090.56 C545.399,2088.8 544.388,2086.59 544.388,2083.92 C544.388,2079.56 546.701,2075.39 551.326,2071.42 C555.951,2067.45 560.961,2065.47 566.357,2065.47"/>
<path class="Note" d="M715.966,2052.97 C719.091,2052.97 721.695,2053.75 723.779,2055.31 C725.862,2056.87 726.904,2059.12 726.904,2062.05 C726.904,2066.54 724.578,2070.73 719.927,2074.64 C715.276,2078.55 710.279,2080.5 704.935,2080.5 C701.81,2080.5 699.174,2079.69 697.029,2078.06 C695.008,2076.3 693.997,2074.09 693.997,2071.42 C693.997,2067.06 696.31,2062.89 700.935,2058.92 C705.56,2054.95 710.57,2052.97 715.966,2052.97"/>
<path class="Note" d="M1193.79,2015.47 C1196.92,2015.47 1199.52,2016.25 1201.61,2017.81 C1203.69,2019.37 1204.73,2021.62 1204.73,2024.55 C1204.73,2029.04 1202.4,2033.23 1197.75,2037.14 C1193.1,2041.05 1188.11,2043 1182.76,2043 C1179.64,2043 1177,2042.19 1174.86,2040.56 C1172.83,2038.8 1171.82,2036.59 1171.82,2033.92 C1171.82,2029.56 1174.14,2025.39 1178.76,2021.42 C1183.39,2017.45 1188.4,2015.47 1193.79,2015.47"/>
<path class="Note" d="M1476.79,590.467 C1479.91,590.467 1482.52,591.248 1484.6,592.811 C1486.68,594.373 1487.73,596.618 1487.73,599.545 C1487.73,604.035 1485.4,608.233 1480.75,612.139 C1476.1,616.045 1471.1,617.998 1465.76,617.998 C1462.63,617.998 1460,617.186 1457.85,615.561 C1455.83,613.8 1454.82,611.587 1454.82,608.92 C1454.82,604.556 1457.13,600.389 1461.76,596.42 C1466.38,592.451 1471.39,590.467 1476.79,590.467"/>
<path class="Note" d="M865.575,2040.47 C868.7,2040.47 871.304,2041.25 873.388,2042.81 C875.471,2044.37 876.513,2046.62 876.513,2049.55 C876.513,2054.04 874.187,2058.23 869.536,2062.14 C864.885,2066.05 859.888,2068 854.544,2068 C851.419,2068 848.783,2067.19 846.638,2065.56 C844.617,2063.8 843.606,2061.59 843.606,2058.92 C843.606,2054.56 845.919,2050.39 850.544,2046.42 C855.169,2042.45 860.179,2040.47 865.575,2040.47"/>
<path class="Note" d="M1970.84,2027.97 C1973.96,2027.97 1976.57,2028.75 1978.65,2030.31 C1980.73,2031.87 1981.78,2034.12 1981.78,2037.05 C1981.78,2041.54 1979.45,2045.73 1974.8,2049.64 C1970.15,2053.55 1965.15,2055.5 1959.81,2055.5 C1956.68,2055.5 1954.05,2054.69 1951.9,2053.06 C1949.88,2051.3 1948.87,2049.09 1948.87,2046.42 C1948.87,2042.06 1951.18,2037.89 1955.81,2033.92 C1960.43,2029.95 1965.44,2027.97 1970.84,2027.97"/>
<path class="Note" d="M1971.19,627.967 C1974.32,627.967 1976.92,628.748 1979.01,630.311 C1981.09,631.873 1982.13,634.118 1982.13,637.045 C1982.13,641.535 1979.81,645.733 1975.15,649.639 C1970.5,653.545 1965.51,655.498 1960.16,655.498 C1957.04,655.498 1954.4,654.686 1952.26,653.061 C1950.24,651.3 1949.22,649.087 1949.22,646.42 C1949.22,642.056 1951.54,637.889 1956.16,633.92 C1960.79,629.951 1965.8,627.967 1971.19,627.967"/>
<path class="Note" d="M2126.33,640.467 C2129.45,640.467 2132.06,641.248 2134.14,642.811 C2136.22,644.373 2137.27,646.618 2137.27,649.545 C2137.27,654.035 2134.94,658.233 2130.29,662.139 C2125.64,666.045 2120.64,667.998 2115.3,667.998 C2112.17,667.998 2109.54,667.186 2107.39,665.561 C2105.37,663.8 2104.36,661.587 2104.36,658.92 C2104.36,654.556 2106.67,650.389 2111.3,646.42 C2115.92,642.451 2120.93,640.467 2126.33,640.467"/>
<path class="Note" d="M516.977,665.467 C520.102,665.467 522.706,666.248 524.79,667.811 C526.873,669.373 527.915,671.618 527.915,674.545 C527.915,679.035 525.589,683.233 520.938,687.139 C516.287,691.045 511.29,692.998 505.946,692.998 C502.821,692.998 500.185,692.186 498.04,690.561 C496.019,688.8 495.008,686.587 495.008,683.92 C495.008,679.556 497.321,675.389 501.946,671.42 C506.571,667.451 511.581,665.467 516.977,665.467"/>
<path class="Note" d="M2133.56,1515.47 C2136.68,1515.47 2139.28,1516.25 2141.37,1517.81 C2143.45,1519.37 2144.49,1521.62 2144.49,1524.55 C2144.49,1529.04 2142.17,1533.23 2137.52,1537.14 C2132.87,1541.05 2127.87,1543 2122.52,1543 C2119.4,1543 2116.76,1542.19 2114.62,1540.56 C2112.6,1538.8 2111.59,1536.59 2111.59,1533.92 C2111.59,1529.56 2113.9,1525.39 2118.52,1521.42 C2123.15,1517.45 2128.16,1515.47 2133.56,1515.47"/>
<path class="Note" d="M693.791,1527.97 C696.916,1527.97 699.52,1528.75 701.604,1530.31 C703.687,1531.87 704.729,1534.12 704.729,1537.05 C704.729,1541.54 702.403,1545.73 697.752,1549.64 C693.101,1553.55 688.104,1555.5 682.76,1555.5 C679.635,1555.5 676.999,1554.69 674.854,1553.06 C672.833,1551.3 671.822,1549.09 671.822,1546.42 C671.822,1542.06 674.135,1537.89 678.76,1533.92 C683.385,1529.95 688.395,1527.97 693.791,1527.97"/>
<path class="Note" d="M1318.51,1040.47 C1321.64,1040.47 1324.24,1041.25 1326.32,1042.81 C1328.41,1044.37 1329.45,1046.62 1329.45,1049.55 C1329.45,1054.04 1327.12,1058.23 1322.47,1062.14 C1317.82,1066.05 1312.82,1068 1307.48,1068 C1304.36,1068 1301.72,1067.19 1299.57,1065.56 C1297.55,1063.8 1296.54,1061.59 1296.54,1058.92 C1296.54,1054.56 1298.86,1050.39 1303.48,1046.42 C1308.11,1042.45 1313.12,1040.47 1318.51,1040.47"/>
<path class="Note" d="M540.262,1540.47 C543.387,1540.47 545.991,1541.25 548.074,1542.81 C550.158,1544.37 551.199,1546.62 551.199,1549.55 C551.199,1554.04 548.874,1558.23 544.223,1562.14 C539.572,1566.05 534.574,1568 529.231,1568 C526.106,1568 523.47,1567.19 521.324,1565.56 C519.303,1563.8 518.293,1561.59 518.293,1558.92 C518.293,1554.56 520.606,1550.39 525.231,1546.42 C529.856,1542.45 534.866,1540.47 540.262,1540.47"/>
<path class="Note" d="M2448.66,2065.47 C2451.79,2065.47 2454.39,2066.25 2456.48,2067.81 C2458.56,2069.37 2459.6,2071.62 2459.6,2074.55 C2459.6,2079.04 2457.28,2083.23 2452.63,2087.14 C2447.97,2091.05 2442.98,2093 2437.63,2093 C2434.51,2093 2431.87,2092.19 2429.73,2090.56 C2427.71,2088.8 2426.7,2086.59 2426.7,2083.92 C2426.7,2079.56 2429.01,2075.39 2433.63,2071.42 C2438.26,2067.45 2443.27,2065.47 2448.66,2065.47"/>
<path class="Note" d="M386.733,1552.97 C389.858,1552.97 392.462,1553.75 394.545,1555.31 C396.628,1556.87 397.67,1559.12 397.67,1562.05 C397.67,1566.54 395.344,1570.73 390.693,1574.64 C386.042,1578.55 381.045,1580.5 375.701,1580.5 C372.576,1580.5 369.941,1579.69 367.795,1578.06 C365.774,1576.3 364.764,1574.09 364.764,1571.42 C364.764,1567.06 367.076,1562.89 371.701,1558.92 C376.326,1554.95 381.337,1552.97 386.733,1552.97"/>
<path class="Note" d="M1473.98,1027.97 C1477.1,1027.97 1479.71,1028.75 1481.79,1030.31 C1483.87,1031.87 1484.92,1034.12 1484.92,1037.05 C1484.92,1041.54 1482.59,1045.73 1477.94,1049.64 C1473.29,1053.55 1468.29,1055.5 1462.95,1055.5 C1459.82,1055.5 1457.19,1054.69 1455.04,1053.06 C1453.02,1051.3 1452.01,1049.09 1452.01,1046.42 C1452.01,1042.06 1454.32,1037.89 1458.95,1033.92 C1463.57,1029.95 1468.58,1027.97 1473.98,1027.97"/>
<path class="Note" d="M1011.38,627.967 C1014.51,627.967 1017.11,628.748 1019.2,630.311 C1021.28,631.873 1022.32,634.118 1022.32,637.045 C1022.32,641.535 1019.99,645.733 1015.34,649.639 C1010.69,653.545 1005.7,655.498 1000.35,655.498 C997.226,655.498 994.591,654.686 992.445,653.061 C990.424,651.3 989.414,649.087 989.414,646.42 C989.414,642.056 991.726,637.889 996.351,633.92 C1000.98,629.951 1005.99,627.967 1011.38,627.967"/>
<path class="Note" d="M672.112,652.967 C675.237,652.967 677.841,653.748 679.925,655.311 C682.008,656.873 683.05,659.118 683.05,662.045 C683.05,666.535 680.724,670.733 676.073,674.639 C671.422,678.545 666.425,680.498 661.081,680.498 C657.956,680.498 655.321,679.686 653.175,678.061 C651.154,676.3 650.143,674.087 650.143,671.42 C650.143,667.056 652.456,662.889 657.081,658.92 C661.706,654.951 666.716,652.967 672.112,652.967"/>
<path class="Note" d="M847.32,1515.47 C850.445,1515.47 853.05,1516.25 855.133,1517.81 C857.216,1519.37 858.258,1521.62 858.258,1524.55 C858.258,1529.04 855.932,1533.23 851.281,1537.14 C846.63,1541.05 841.633,1543 836.289,1543 C833.164,1543 830.529,1542.19 828.383,1540.56 C826.362,1538.8 825.352,1536.59 825.352,1533.92 C825.352,1529.56 827.664,1525.39 832.289,1521.42 C836.914,1517.45 841.925,1515.47 847.32,1515.47"/>
<path class="Note" d="M2604.79,1139.87 C2606.67,1139.87 2610.63,1137.92 2616.66,1134.01 C2622.68,1130.11 2626.23,1127.49 2627.3,1126.15 C2628.38,1124.82 2628.91,1123.63 2628.91,1122.59 C2628.91,1121.55 2628.49,1120.62 2627.64,1119.81 C2626.79,1119 2625.82,1118.59 2624.71,1118.59 C2622.76,1118.59 2618.78,1120.56 2612.75,1124.5 C2606.72,1128.44 2603.19,1131.06 2602.15,1132.36 C2601.11,1133.66 2600.59,1134.83 2600.59,1135.87 C2600.59,1136.92 2600.99,1137.84 2601.81,1138.65 C2602.63,1139.47 2603.62,1139.87 2604.79,1139.87 M2623.74,1115.47 C2629.34,1115.47 2632.13,1117.87 2632.13,1122.69 C2632.13,1125.03 2631.45,1127.75 2630.09,1130.84 C2628.72,1133.94 2626.9,1136.3 2624.62,1137.92 C2619.61,1141.31 2613.33,1143 2605.77,1143 C2600.17,1143 2597.37,1140.59 2597.37,1135.78 C2597.37,1133.63 2598.03,1130.96 2599.37,1127.77 C2600.7,1124.58 2602.54,1122.17 2604.88,1120.55 C2609.9,1117.16 2616.19,1115.47 2623.74,1115.47"/>
<path class="Note" d="M1658.44,1040.47 C1661.57,1040.47 1664.17,1041.25 1666.26,1042.81 C1668.34,1044.37 1669.38,1046.62 1669.38,1049.55 C1669.38,1054.04 1667.06,1058.23 1662.4,1062.14 C1657.75,1066.05 1652.76,1068 1647.41,1068 C1644.29,1068 1641.65,1067.19 1639.51,1065.56 C1637.49,1063.8 1636.47,1061.59 1636.47,1058.92 C1636.47,1054.56 1638.79,1050.39 1643.41,1046.42 C1648.04,1042.45 1653.05,1040.47 1658.44,1040.47"/>
<path class="Note" d="M2464.77,1102.97 C2467.9,1102.97 2470.5,1103.75 2472.59,1105.31 C2474.67,1106.87 2475.71,1109.12 2475.71,1112.05 C2475.71,1116.54 2473.38,1120.73 2468.73,1124.64 C2464.08,1128.55 2459.09,1130.5 2453.74,1130.5 C2450.62,1130.5 2447.98,1129.69 2445.84,1128.06 C2443.81,1126.3 2442.8,1124.09 2442.8,1121.42 C2442.8,1117.06 2445.12,1112.89 2449.74,1108.92 C2454.37,1104.95 2459.38,1102.97 2464.77,1102.97"/>
<path class="Note" d="M2309.31,1090.47 C2312.43,1090.47 2315.04,1091.25 2317.12,1092.81 C2319.2,1094.37 2320.24,1096.62 2320.24,1099.55 C2320.24,1104.04 2317.92,1108.23 2313.27,1112.14 C2308.62,1116.05 2303.62,1118 2298.28,1118 C2295.15,1118 2292.52,1117.19 2290.37,1115.56 C2288.35,1113.8 2287.34,1111.59 2287.34,1108.92 C2287.34,1104.56 2289.65,1100.39 2294.28,1096.42 C2298.9,1092.45 2303.91,1090.47 2309.31,1090.47"/>
<path class="Note" d="M1813.91,1052.97 C1817.03,1052.97 1819.64,1053.75 1821.72,1055.31 C1823.81,1056.87 1824.85,1059.12 1824.85,1062.05 C1824.85,1066.54 1822.52,1070.73 1817.87,1074.64 C1813.22,1078.55 1808.22,1080.5 1802.88,1080.5 C1799.75,1080.5 1797.12,1079.69 1794.97,1078.06 C1792.95,1076.3 1791.94,1074.09 1791.94,1071.42 C1791.94,1067.06 1794.25,1062.89 1798.88,1058.92 C1803.5,1054.95 1808.51,1052.97 1813.91,1052.97"/>
<path class="Note" d="M2582.82,2102.37 C2584.71,2102.37 2588.67,2100.42 2594.69,2096.51 C2600.72,2092.61 2604.27,2089.99 2605.34,2088.66 C2606.41,2087.32 2606.95,2086.13 2606.95,2085.09 C2606.95,2084.05 2606.52,2083.12 2605.68,2082.31 C2604.83,2081.5 2603.85,2081.09 2602.75,2081.09 C2600.8,2081.09 2596.81,2083.06 2590.79,2087 C2584.76,2090.94 2581.23,2093.56 2580.18,2094.86 C2579.14,2096.16 2578.62,2097.33 2578.62,2098.37 C2578.62,2099.42 2579.03,2100.34 2579.85,2101.16 C2580.67,2101.97 2581.66,2102.37 2582.82,2102.37 M2601.78,2077.97 C2607.37,2077.97 2610.17,2080.37 2610.17,2085.19 C2610.17,2087.53 2609.49,2090.25 2608.12,2093.34 C2606.76,2096.44 2604.93,2098.8 2602.65,2100.42 C2597.64,2103.81 2591.36,2105.5 2583.81,2105.5 C2578.2,2105.5 2575.4,2103.09 2575.4,2098.28 C2575.4,2096.13 2576.07,2093.47 2577.4,2090.27 C2578.74,2087.08 2580.57,2084.67 2582.92,2083.05 C2587.94,2079.66 2594.23,2077.97 2601.78,2077.97"/>
<path class="Note" d="M1969.38,1065.47 C1972.5,1065.47 1975.1,1066.25 1977.19,1067.81 C1979.27,1069.37 1980.31,1071.62 1980.31,1074.55 C1980.31,1079.04 1977.99,1083.23 1973.34,1087.14 C1968.68,1091.05 1963.69,1093 1958.34,1093 C1955.22,1093 1952.58,1092.19 1950.44,1090.56 C1948.42,1088.8 1947.41,1086.59 1947.41,1083.92 C1947.41,1079.56 1949.72,1075.39 1954.34,1071.42 C1958.97,1067.45 1963.98,1065.47 1969.38,1065.47"/>
<path class="Note" d="M2124.84,1077.97 C2127.97,1077.97 2130.57,1078.75 2132.65,1080.31 C2134.74,1081.87 2135.78,1084.12 2135.78,1087.05 C2135.78,1091.54 2133.45,1095.73 2128.8,1099.64 C2124.15,1103.55 2119.15,1105.5 2113.81,1105.5 C2110.68,1105.5 2108.05,1104.69 2105.9,1103.06 C2103.88,1101.3 2102.87,1099.09 2102.87,1096.42 C2102.87,1092.06 2105.18,1087.89 2109.81,1083.92 C2114.43,1079.95 2119.45,1077.97 2124.84,1077.97"/>
<path class="Note" d="M361.842,677.967 C364.967,677.967 367.571,678.748 369.654,680.311 C371.738,681.873 372.779,684.118 372.779,687.045 C372.779,691.535 370.454,695.733 365.803,699.639 C361.152,703.545 356.154,705.498 350.811,705.498 C347.686,705.498 345.05,704.686 342.904,703.061 C340.884,701.3 339.873,699.087 339.873,696.42 C339.873,692.056 342.186,687.889 346.811,683.92 C351.436,679.951 356.446,677.967 361.842,677.967"/>
<path class="Note" d="M356.717,1115.47 C359.842,1115.47 362.446,1116.25 364.529,1117.81 C366.613,1119.37 367.654,1121.62 367.654,1124.55 C367.654,1129.04 365.329,1133.23 360.678,1137.14 C356.027,1141.05 351.029,1143 345.686,1143 C342.561,1143 339.925,1142.19 337.779,1140.56 C335.759,1138.8 334.748,1136.59 334.748,1133.92 C334.748,1129.56 337.061,1125.39 341.686,1121.42 C346.311,1117.45 351.321,1115.47 356.717,1115.47"/>
<path class="Note" d="M1980.03,1502.97 C1983.15,1502.97 1985.75,1503.75 1987.84,1505.31 C1989.92,1506.87 1990.96,1509.12 1990.96,1512.05 C1990.96,1516.54 1988.64,1520.73 1983.99,1524.64 C1979.34,1528.55 1974.34,1530.5 1968.99,1530.5 C1965.87,1530.5 1963.23,1529.69 1961.09,1528.06 C1959.07,1526.3 1958.06,1524.09 1958.06,1521.42 C1958.06,1517.06 1960.37,1512.89 1964.99,1508.92 C1969.62,1504.95 1974.63,1502.97 1980.03,1502.97"/>
<path class="Note" d="M1826.5,1490.47 C1829.62,1490.47 1832.23,1491.25 1834.31,1492.81 C1836.39,1494.37 1837.43,1496.62 1837.43,1499.55 C1837.43,1504.04 1835.11,1508.23 1830.46,1512.14 C1825.81,1516.05 1820.81,1518 1815.47,1518 C1812.34,1518 1809.7,1517.19 1807.56,1515.56 C1805.54,1513.8 1804.53,1511.59 1804.53,1508.92 C1804.53,1504.56 1806.84,1500.39 1811.47,1496.42 C1816.09,1492.45 1821.1,1490.47 1826.5,1490.47"/>
<path class="Note" d="M1672.97,1477.97 C1676.09,1477.97 1678.7,1478.75 1680.78,1480.31 C1682.86,1481.87 1683.9,1484.12 1683.9,1487.05 C1683.9,1491.54 1681.58,1495.73 1676.93,1499.64 C1672.28,1503.55 1667.28,1505.5 1661.94,1505.5 C1658.81,1505.5 1656.18,1504.69 1654.03,1503.06 C1652.01,1501.3 1651,1499.09 1651,1496.42 C1651,1492.06 1653.31,1487.89 1657.94,1483.92 C1662.56,1479.95 1667.57,1477.97 1672.97,1477.97"/>
<path class="Note" d="M512.183,1102.97 C515.308,1102.97 517.912,1103.75 519.995,1105.31 C522.079,1106.87 523.12,1109.12 523.12,1112.05 C523.12,1116.54 520.795,1120.73 516.144,1124.64 C511.493,1128.55 506.495,1130.5 501.151,1130.5 C498.026,1130.5 495.391,1129.69 493.245,1128.06 C491.224,1126.3 490.214,1124.09 490.214,1121.42 C490.214,1117.06 492.526,1112.89 497.151,1108.92 C501.776,1104.95 506.787,1102.97 512.183,1102.97"/>
<path class="Note" d="M667.648,1090.47 C670.773,1090.47 673.378,1091.25 675.461,1092.81 C677.544,1094.37 678.586,1096.62 678.586,1099.55 C678.586,1104.04 676.26,1108.23 671.609,1112.14 C666.958,1116.05 661.961,1118 656.617,1118 C653.492,1118 650.857,1117.19 648.711,1115.56 C646.69,1113.8 645.68,1111.59 645.68,1108.92 C645.68,1104.56 647.992,1100.39 652.617,1096.42 C657.242,1092.45 662.253,1090.47 667.648,1090.47"/>
<path class="Note" d="M1166.52,615.467 C1169.64,615.467 1172.25,616.248 1174.33,617.811 C1176.41,619.373 1177.46,621.618 1177.46,624.545 C1177.46,629.035 1175.13,633.233 1170.48,637.139 C1165.83,641.045 1160.83,642.998 1155.49,642.998 C1152.36,642.998 1149.73,642.186 1147.58,640.561 C1145.56,638.8 1144.55,636.587 1144.55,633.92 C1144.55,629.556 1146.86,625.389 1151.49,621.42 C1156.11,617.451 1161.12,615.467 1166.52,615.467"/>
<path class="Note" d="M1490.44,1465.47 C1493.56,1465.47 1496.17,1466.25 1498.25,1467.81 C1500.33,1469.37 1501.38,1471.62 1501.38,1474.55 C1501.38,1479.04 1499.05,1483.23 1494.4,1487.14 C1489.75,1491.05 1484.75,1493 1479.41,1493 C1476.28,1493 1473.65,1492.19 1471.5,1490.56 C1469.48,1488.8 1468.47,1486.59 1468.47,1483.92 C1468.47,1479.56 1470.78,1475.39 1475.41,1471.42 C1480.03,1467.45 1485.04,1465.47 1490.44,1465.47"/>
<path class="Note" d="M823.114,1077.97 C826.239,1077.97 828.843,1078.75 830.927,1080.31 C833.01,1081.87 834.052,1084.12 834.052,1087.05 C834.052,1091.54 831.726,1095.73 827.075,1099.64 C822.424,1103.55 817.427,1105.5 812.083,1105.5 C808.958,1105.5 806.323,1104.69 804.177,1103.06 C802.156,1101.3 801.146,1099.09 801.146,1096.42 C801.146,1092.06 803.458,1087.89 808.083,1083.92 C812.708,1079.95 817.718,1077.97 823.114,1077.97"/>
<path class="Note" d="M1336.91,1477.97 C1340.03,1477.97 1342.64,1478.75 1344.72,1480.31 C1346.8,1481.87 1347.85,1484.12 1347.85,1487.05 C1347.85,1491.54 1345.52,1495.73 1340.87,1499.64 C1336.22,1503.55 1331.22,1505.5 1325.88,1505.5 C1322.75,1505.5 1320.12,1504.69 1317.97,1503.06 C1315.95,1501.3 1314.94,1499.09 1314.94,1496.42 C1314.94,1492.06 1317.25,1487.89 1321.88,1483.92 C1326.5,1479.95 1331.51,1477.97 1336.91,1477.97"/>
<path class="Note" d="M1183.38,1490.47 C1186.5,1490.47 1189.11,1491.25 1191.19,1492.81 C1193.27,1494.37 1194.32,1496.62 1194.32,1499.55 C1194.32,1504.04 1191.99,1508.23 1187.34,1512.14 C1182.69,1516.05 1177.69,1518 1172.35,1518 C1169.22,1518 1166.59,1517.19 1164.44,1515.56 C1162.42,1513.8 1161.41,1511.59 1161.41,1508.92 C1161.41,1504.56 1163.72,1500.39 1168.35,1496.42 C1172.97,1492.45 1177.98,1490.47 1183.38,1490.47"/>
<path class="Note" d="M1007.58,1065.47 C1010.71,1065.47 1013.31,1066.25 1015.39,1067.81 C1017.48,1069.37 1018.52,1071.62 1018.52,1074.55 C1018.52,1079.04 1016.19,1083.23 1011.54,1087.14 C1006.89,1091.05 1001.89,1093 996.549,1093 C993.424,1093 990.788,1092.19 988.643,1090.56 C986.622,1088.8 985.611,1086.59 985.611,1083.92 C985.611,1079.56 987.924,1075.39 992.549,1071.42 C997.174,1067.45 1002.18,1065.47 1007.58,1065.47"/>
<path class="Note" d="M1029.85,1502.97 C1032.97,1502.97 1035.58,1503.75 1037.66,1505.31 C1039.75,1506.87 1040.79,1509.12 1040.79,1512.05 C1040.79,1516.54 1038.46,1520.73 1033.81,1524.64 C1029.16,1528.55 1024.16,1530.5 1018.82,1530.5 C1015.69,1530.5 1013.06,1529.69 1010.91,1528.06 C1008.89,1526.3 1007.88,1524.09 1007.88,1521.42 C1007.88,1517.06 1010.19,1512.89 1014.82,1508.92 C1019.44,1504.95 1024.45,1502.97 1029.85,1502.97"/>
<path class="Note" d="M1163.05,1052.97 C1166.17,1052.97 1168.78,1053.75 1170.86,1055.31 C1172.94,1056.87 1173.98,1059.12 1173.98,1062.05 C1173.98,1066.54 1171.66,1070.73 1167.01,1074.64 C1162.36,1078.55 1157.36,1080.5 1152.01,1080.5 C1148.89,1080.5 1146.25,1079.69 1144.11,1078.06 C1142.09,1076.3 1141.08,1074.09 1141.08,1071.42 C1141.08,1067.06 1143.39,1062.89 1148.01,1058.92 C1152.64,1054.95 1157.65,1052.97 1163.05,1052.97"/>
<path class="Clef" d="M203.623,1623.86 L203.623,1621.72 C203.56,1620.61 203.399,1618.89 203.139,1616.55 C199.889,1617.07 196.993,1617.33 194.451,1617.33 C185.337,1617.33 177.605,1613.73 171.256,1606.53 C164.907,1599.33 161.732,1590.75 161.732,1580.8 C161.732,1578.13 162.253,1574.92 163.295,1571.18 C164.337,1567.43 165.297,1564.93 166.178,1563.66 C167.058,1562.38 168.378,1560.16 170.139,1556.97 C170.659,1555.99 172.352,1553.84 175.217,1550.51 C175.738,1549.81 176.193,1549.22 176.584,1548.76 C176.975,1548.31 177.607,1547.49 178.482,1546.32 C179.357,1545.15 180.3,1544.06 181.31,1543.05 C182.321,1542.04 183.217,1541.06 183.998,1540.12 C184.779,1539.17 185.498,1538.38 186.154,1537.73 C183.81,1529.98 182.378,1524.02 181.857,1519.86 C181.337,1515.69 181.076,1510.58 181.076,1504.52 C181.076,1498.47 182.378,1492.96 184.982,1488.01 C187.514,1482.88 191.06,1478.68 195.623,1475.42 C195.883,1475.22 196.225,1475.12 196.646,1475.12 C197.068,1475.12 197.378,1475.22 197.576,1475.42 C201.087,1479.65 204.128,1485.15 206.701,1491.92 C209.274,1498.69 210.56,1505.02 210.56,1510.92 C210.56,1516.82 209.066,1522.5 206.076,1527.97 C202.691,1533.76 198.326,1539.75 192.982,1545.94 C194.347,1550.23 196.17,1556.96 198.451,1566.14 L199.045,1566.14 C199.305,1566.08 199.529,1566.05 199.717,1566.05 C207.081,1566.05 213.089,1568.63 217.74,1573.81 C222.391,1578.99 224.717,1584.96 224.717,1591.73 C224.717,1600.13 221.238,1606.9 214.279,1612.05 C212.258,1613.55 209.878,1614.72 207.139,1615.56 C207.472,1619.79 207.639,1622.61 207.639,1624.01 C207.639,1625.41 207.571,1627.9 207.435,1631.48 C207.373,1637.6 205.29,1642.84 201.185,1647.2 C197.081,1651.57 192.394,1653.75 187.123,1653.75 C181.852,1653.75 177.36,1651.88 173.646,1648.13 C169.933,1644.39 168.076,1639.85 168.076,1634.51 C168.076,1631.71 169.154,1629.33 171.31,1627.37 C173.519,1625.43 176.006,1624.45 178.771,1624.45 C181.537,1624.45 183.8,1625.46 185.56,1627.48 C187.383,1629.37 188.295,1631.64 188.295,1634.31 C188.295,1636.98 187.383,1639.22 185.56,1641.05 C183.738,1642.87 181.555,1643.78 179.014,1643.78 C177.972,1643.78 176.967,1643.59 175.998,1643.2 C178.863,1647.43 182.54,1649.55 187.029,1649.55 C191.519,1649.55 195.36,1647.69 198.553,1643.98 C201.745,1640.27 203.342,1635.91 203.342,1630.89 L203.623,1623.86 M206.748,1611.56 C210.133,1610.32 212.821,1608.12 214.81,1604.97 C216.8,1601.81 217.795,1598.67 217.795,1595.55 C217.795,1590.92 216.199,1586.79 213.006,1583.14 C209.813,1579.49 205.774,1577.44 200.889,1576.98 C203.691,1590.72 205.644,1602.25 206.748,1611.56 M168.967,1589 C168.967,1595.45 171.537,1601.08 176.678,1605.9 C181.818,1610.72 187.842,1613.12 194.748,1613.12 C197.477,1613.12 200.144,1612.93 202.748,1612.53 C201.706,1602.63 199.654,1590.79 196.592,1576.98 C192.758,1577.38 189.782,1578.7 187.662,1580.94 C185.542,1583.19 184.482,1585.74 184.482,1588.61 C184.482,1593.56 187.123,1597.56 192.404,1600.62 C192.852,1600.88 193.076,1601.32 193.076,1601.94 C193.076,1602.56 192.865,1603.1 192.443,1603.55 C192.021,1604.01 191.649,1604.23 191.326,1604.23 C191.003,1604.23 190.581,1604.17 190.06,1604.05 C182.435,1599.88 178.623,1593.59 178.623,1585.19 C178.623,1581.22 180.024,1577.41 182.826,1573.76 C185.753,1570.12 189.56,1567.77 194.248,1566.73 C192.425,1559.44 190.93,1553.74 189.764,1549.64 C180.847,1559.67 175.31,1567.09 173.154,1571.91 C170.363,1578.16 168.967,1583.85 168.967,1589 M201.576,1489.69 C196.691,1492.09 192.834,1495.57 190.006,1500.13 C187.178,1504.69 185.764,1509.47 185.764,1514.48 C185.764,1519.49 186.935,1525.97 189.279,1533.92 C193.967,1528.25 197.514,1522.95 199.92,1518 C202.326,1513.05 203.529,1508.15 203.529,1503.3 C203.529,1498.45 202.878,1493.92 201.576,1489.69"/>
<path class="Clef" d="M203.623,2098.86 L203.623,2096.72 C203.56,2095.61 203.399,2093.89 203.139,2091.55 C199.889,2092.07 196.993,2092.33 194.451,2092.33 C185.337,2092.33 177.605,2088.73 171.256,2081.53 C164.907,2074.33 161.732,2065.75 161.732,2055.8 C161.732,2053.13 162.253,2049.92 163.295,2046.18 C164.337,2042.43 165.297,2039.93 166.178,2038.66 C167.058,2037.38 168.378,2035.16 170.139,2031.97 C170.659,2030.99 172.352,2028.84 175.217,2025.51 C175.738,2024.81 176.193,2024.22 176.584,2023.76 C176.975,2023.31 177.607,2022.49 178.482,2021.32 C179.357,2020.15 180.3,2019.06 181.31,2018.05 C182.321,2017.04 183.217,2016.06 183.998,2015.12 C184.779,2014.17 185.498,2013.38 186.154,2012.73 C183.81,2004.98 182.378,1999.03 181.857,1994.86 C181.337,1990.69 181.076,1985.58 181.076,1979.52 C181.076,1973.47 182.378,1967.96 184.982,1963.01 C187.514,1957.88 191.06,1953.68 195.623,1950.42 C195.883,1950.22 196.225,1950.12 196.646,1950.12 C197.068,1950.12 197.378,1950.22 197.576,1950.42 C201.087,1954.65 204.128,1960.15 206.701,1966.92 C209.274,1973.69 210.56,1980.03 210.56,1985.92 C210.56,1991.82 209.066,1997.5 206.076,2002.97 C202.691,2008.76 198.326,2014.75 192.982,2020.94 C194.347,2025.23 196.17,2031.96 198.451,2041.14 L199.045,2041.14 C199.305,2041.08 199.529,2041.05 199.717,2041.05 C207.081,2041.05 213.089,2043.63 217.74,2048.81 C222.391,2053.99 224.717,2059.96 224.717,2066.73 C224.717,2075.13 221.238,2081.9 214.279,2087.05 C212.258,2088.55 209.878,2089.72 207.139,2090.56 C207.472,2094.79 207.639,2097.61 207.639,2099.01 C207.639,2100.41 207.571,2102.9 207.435,2106.48 C207.373,2112.6 205.29,2117.84 201.185,2122.2 C197.081,2126.57 192.394,2128.75 187.123,2128.75 C181.852,2128.75 177.36,2126.88 173.646,2123.13 C169.933,2119.39 168.076,2114.85 168.076,2109.51 C168.076,2106.71 169.154,2104.33 171.31,2102.37 C173.519,2100.43 176.006,2099.45 178.771,2099.45 C181.537,2099.45 183.8,2100.46 185.56,2102.48 C187.383,2104.37 188.295,2106.65 188.295,2109.31 C188.295,2111.98 187.383,2114.22 185.56,2116.05 C183.738,2117.87 181.555,2118.78 179.014,2118.78 C177.972,2118.78 176.967,2118.59 175.998,2118.2 C178.863,2122.43 182.54,2124.55 187.029,2124.55 C191.519,2124.55 195.36,2122.69 198.553,2118.98 C201.745,2115.28 203.342,2110.91 203.342,2105.89 L203.623,2098.86 M206.748,2086.56 C210.133,2085.32 212.821,2083.12 214.81,2079.97 C216.8,2076.81 217.795,2073.67 217.795,2070.55 C217.795,2065.92 216.199,2061.79 213.006,2058.14 C209.813,2054.49 205.774,2052.44 200.889,2051.98 C203.691,2065.72 205.644,2077.25 206.748,2086.56 M168.967,2064 C168.967,2070.45 171.537,2076.08 176.678,2080.9 C181.818,2085.72 187.842,2088.12 194.748,2088.12 C197.477,2088.12 200.144,2087.93 202.748,2087.53 C201.706,2077.63 199.654,2065.79 196.592,2051.98 C192.758,2052.38 189.782,2053.7 187.662,2055.94 C185.542,2058.19 184.482,2060.74 184.482,2063.61 C184.482,2068.56 187.123,2072.56 192.404,2075.62 C192.852,2075.88 193.076,2076.32 193.076,2076.94 C193.076,2077.56 192.865,2078.1 192.443,2078.55 C192.021,2079.01 191.649,2079.23 191.326,2079.23 C191.003,2079.23 190.581,2079.17 190.06,2079.05 C182.435,2074.88 178.623,2068.59 178.623,2060.19 C178.623,2056.22 180.024,2052.41 182.826,2048.76 C185.753,2045.12 189.56,2042.78 194.248,2041.73 C192.425,2034.44 190.93,2028.74 189.764,2024.64 C180.847,2034.67 175.31,2042.09 173.154,2046.91 C170.363,2053.16 168.967,2058.85 168.967,2064 M201.576,1964.69 C196.691,1967.09 192.834,1970.57 190.006,1975.13 C187.178,1979.69 185.764,1984.47 185.764,1989.48 C185.764,1994.49 186.935,2000.97 189.279,2008.92 C193.967,2003.25 197.514,1997.95 199.92,1993 C202.326,1988.05 203.529,1983.15 203.529,1978.3 C203.529,1973.45 202.878,1968.92 201.576,1964.69"/>
<path class="Clef" d="M203.623,673.858 L203.623,671.717 C203.56,670.613 203.399,668.889 203.139,666.545 C199.889,667.066 196.993,667.326 194.451,667.326 C185.337,667.326 177.605,663.727 171.256,656.53 C164.907,649.332 161.732,640.754 161.732,630.795 C161.732,628.129 162.253,624.923 163.295,621.178 C164.337,617.433 165.297,614.925 166.178,613.655 C167.058,612.384 168.378,610.155 170.139,606.967 C170.659,605.988 172.352,603.837 175.217,600.514 C175.738,599.806 176.193,599.222 176.584,598.764 C176.975,598.306 177.607,597.49 178.482,596.319 C179.357,595.147 180.3,594.056 181.31,593.045 C182.321,592.035 183.217,591.058 183.998,590.115 C184.779,589.173 185.498,588.379 186.154,587.733 C183.81,579.983 182.378,574.024 181.857,569.858 C181.337,565.691 181.076,560.579 181.076,554.522 C181.076,548.464 182.378,542.962 184.982,538.014 C187.514,532.879 191.06,528.681 195.623,525.42 C195.883,525.222 196.225,525.123 196.646,525.123 C197.068,525.123 197.378,525.222 197.576,525.42 C201.087,529.649 204.128,535.149 206.701,541.92 C209.274,548.691 210.56,555.024 210.56,560.92 C210.56,566.816 209.066,572.498 206.076,577.967 C202.691,583.759 198.326,589.748 192.982,595.936 C194.347,600.227 196.17,606.962 198.451,616.139 L199.045,616.139 C199.305,616.076 199.529,616.045 199.717,616.045 C207.081,616.045 213.089,618.634 217.74,623.811 C222.391,628.988 224.717,634.962 224.717,641.733 C224.717,650.129 221.238,656.899 214.279,662.045 C212.258,663.545 209.878,664.717 207.139,665.561 C207.472,669.79 207.639,672.605 207.639,674.006 C207.639,675.407 207.571,677.899 207.435,681.483 C207.373,687.597 205.29,692.837 201.185,697.201 C197.081,701.566 192.394,703.748 187.123,703.748 C181.852,703.748 177.36,701.876 173.646,698.131 C169.933,694.386 168.076,689.847 168.076,684.514 C168.076,681.712 169.154,679.332 171.31,677.373 C173.519,675.425 176.006,674.451 178.771,674.451 C181.537,674.451 183.8,675.462 185.56,677.483 C187.383,679.368 188.295,681.644 188.295,684.311 C188.295,686.977 187.383,689.222 185.56,691.045 C183.738,692.868 181.555,693.78 179.014,693.78 C177.972,693.78 176.967,693.587 175.998,693.201 C178.863,697.431 182.54,699.545 187.029,699.545 C191.519,699.545 195.36,697.691 198.553,693.983 C201.745,690.274 203.342,685.91 203.342,680.889 L203.623,673.858 M206.748,661.561 C210.133,660.321 212.821,658.123 214.81,654.967 C216.8,651.811 217.795,648.67 217.795,645.545 C217.795,640.92 216.199,636.785 213.006,633.139 C209.813,629.493 205.774,627.441 200.889,626.983 C203.691,640.722 205.644,652.248 206.748,661.561 M168.967,638.998 C168.967,645.446 171.537,651.079 176.678,655.897 C181.818,660.714 187.842,663.123 194.748,663.123 C197.477,663.123 200.144,662.925 202.748,662.53 C201.706,652.634 199.654,640.785 196.592,626.983 C192.758,627.379 189.782,628.699 187.662,630.944 C185.542,633.188 184.482,635.743 184.482,638.608 C184.482,643.556 187.123,647.561 192.404,650.623 C192.852,650.884 193.076,651.324 193.076,651.944 C193.076,652.563 192.865,653.1 192.443,653.553 C192.021,654.006 191.649,654.233 191.326,654.233 C191.003,654.233 190.581,654.17 190.06,654.045 C182.435,649.879 178.623,643.592 178.623,635.186 C178.623,631.217 180.024,627.41 182.826,623.764 C185.753,620.118 189.56,617.774 194.248,616.733 C192.425,609.441 190.93,603.743 189.764,599.639 C180.847,609.67 175.31,617.092 173.154,621.905 C170.363,628.155 168.967,633.852 168.967,638.998 M201.576,539.686 C196.691,542.092 192.834,545.574 190.006,550.131 C187.178,554.688 185.764,559.472 185.764,564.483 C185.764,569.493 186.935,575.972 189.279,583.92 C193.967,578.254 197.514,572.946 199.92,567.998 C202.326,563.05 203.529,558.152 203.529,553.303 C203.529,548.454 202.878,543.915 201.576,539.686"/>
<path class="Clef" d="M203.623,1148.86 L203.623,1146.72 C203.56,1145.61 203.399,1143.89 203.139,1141.55 C199.889,1142.07 196.993,1142.33 194.451,1142.33 C185.337,1142.33 177.605,1138.73 171.256,1131.53 C164.907,1124.33 161.732,1115.75 161.732,1105.8 C161.732,1103.13 162.253,1099.92 163.295,1096.18 C164.337,1092.43 165.297,1089.93 166.178,1088.65 C167.058,1087.38 168.378,1085.15 170.139,1081.97 C170.659,1080.99 172.352,1078.84 175.217,1075.51 C175.738,1074.81 176.193,1074.22 176.584,1073.76 C176.975,1073.31 177.607,1072.49 178.482,1071.32 C179.357,1070.15 180.3,1069.06 181.31,1068.05 C182.321,1067.04 183.217,1066.06 183.998,1065.12 C184.779,1064.17 185.498,1063.38 186.154,1062.73 C183.81,1054.98 182.378,1049.02 181.857,1044.86 C181.337,1040.69 181.076,1035.58 181.076,1029.52 C181.076,1023.46 182.378,1017.96 184.982,1013.01 C187.514,1007.88 191.06,1003.68 195.623,1000.42 C195.883,1000.22 196.225,1000.12 196.646,1000.12 C197.068,1000.12 197.378,1000.22 197.576,1000.42 C201.087,1004.65 204.128,1010.15 206.701,1016.92 C209.274,1023.69 210.56,1030.02 210.56,1035.92 C210.56,1041.82 209.066,1047.5 206.076,1052.97 C202.691,1058.76 198.326,1064.75 192.982,1070.94 C194.347,1075.23 196.17,1081.96 198.451,1091.14 L199.045,1091.14 C199.305,1091.08 199.529,1091.05 199.717,1091.05 C207.081,1091.05 213.089,1093.63 217.74,1098.81 C222.391,1103.99 224.717,1109.96 224.717,1116.73 C224.717,1125.13 221.238,1131.9 214.279,1137.05 C212.258,1138.55 209.878,1139.72 207.139,1140.56 C207.472,1144.79 207.639,1147.61 207.639,1149.01 C207.639,1150.41 207.571,1152.9 207.435,1156.48 C207.373,1162.6 205.29,1167.84 201.185,1172.2 C197.081,1176.57 192.394,1178.75 187.123,1178.75 C181.852,1178.75 177.36,1176.88 173.646,1173.13 C169.933,1169.39 168.076,1164.85 168.076,1159.51 C168.076,1156.71 169.154,1154.33 171.31,1152.37 C173.519,1150.43 176.006,1149.45 178.771,1149.45 C181.537,1149.45 183.8,1150.46 185.56,1152.48 C187.383,1154.37 188.295,1156.64 188.295,1159.31 C188.295,1161.98 187.383,1164.22 185.56,1166.05 C183.738,1167.87 181.555,1168.78 179.014,1168.78 C177.972,1168.78 176.967,1168.59 175.998,1168.2 C178.863,1172.43 182.54,1174.55 187.029,1174.55 C191.519,1174.55 195.36,1172.69 198.553,1168.98 C201.745,1165.27 203.342,1160.91 203.342,1155.89 L203.623,1148.86 M206.748,1136.56 C210.133,1135.32 212.821,1133.12 214.81,1129.97 C216.8,1126.81 217.795,1123.67 217.795,1120.55 C217.795,1115.92 216.199,1111.79 213.006,1108.14 C209.813,1104.49 205.774,1102.44 200.889,1101.98 C203.691,1115.72 205.644,1127.25 206.748,1136.56 M168.967,1114 C168.967,1120.45 171.537,1126.08 176.678,1130.9 C181.818,1135.71 187.842,1138.12 194.748,1138.12 C197.477,1138.12 200.144,1137.93 202.748,1137.53 C201.706,1127.63 199.654,1115.79 196.592,1101.98 C192.758,1102.38 189.782,1103.7 187.662,1105.94 C185.542,1108.19 184.482,1110.74 184.482,1113.61 C184.482,1118.56 187.123,1122.56 192.404,1125.62 C192.852,1125.88 193.076,1126.32 193.076,1126.94 C193.076,1127.56 192.865,1128.1 192.443,1128.55 C192.021,1129.01 191.649,1129.23 191.326,1129.23 C191.003,1129.23 190.581,1129.17 190.06,1129.05 C182.435,1124.88 178.623,1118.59 178.623,1110.19 C178.623,1106.22 180.024,1102.41 182.826,1098.76 C185.753,1095.12 189.56,1092.77 194.248,1091.73 C192.425,1084.44 190.93,1078.74 189.764,1074.64 C180.847,1084.67 175.31,1092.09 173.154,1096.9 C170.363,1103.15 168.967,1108.85 168.967,1114 M201.576,1014.69 C196.691,1017.09 192.834,1020.57 190.006,1025.13 C187.178,1029.69 185.764,1034.47 185.764,1039.48 C185.764,1044.49 186.935,1050.97 189.279,1058.92 C193.967,1053.25 197.514,1047.95 199.92,1043 C202.326,1038.05 203.529,1033.15 203.529,1028.3 C203.529,1023.45 202.878,1018.92 201.576,1014.69"/>
<path class="KeySig" d="M251.123,1109.31 L249.857,1047.2 C249.857,1046.22 250.623,1045.73 252.154,1045.73 C253.686,1045.73 254.451,1046.22 254.451,1047.2 L253.67,1081.09 C255.43,1079.33 256.943,1078.11 258.209,1077.43 C259.475,1076.75 261.199,1076.4 263.381,1076.4 C265.563,1076.4 267.581,1077.41 269.436,1079.43 C271.29,1081.44 272.217,1083.95 272.217,1086.95 C272.217,1091.44 267.498,1097.66 258.061,1105.61 C254.55,1108.8 252.727,1110.39 252.592,1110.39 L252.014,1110.39 C251.42,1110.39 251.123,1110.03 251.123,1109.31 M253.576,1084.22 L253.279,1106.39 C255.3,1104.49 257.352,1101.35 259.436,1096.95 C261.519,1092.56 262.561,1088.8 262.561,1085.67 C262.561,1084.11 262.3,1082.68 261.779,1081.37 C261.258,1080.07 260.443,1079.42 259.334,1079.42 C258.225,1079.42 257.23,1079.81 256.35,1080.59 C255.469,1081.37 254.545,1082.58 253.576,1084.22"/>
<path class="KeySig" d="M251.123,2059.31 L249.857,1997.2 C249.857,1996.22 250.623,1995.73 252.154,1995.73 C253.686,1995.73 254.451,1996.22 254.451,1997.2 L253.67,2031.09 C255.43,2029.33 256.943,2028.11 258.209,2027.43 C259.475,2026.75 261.199,2026.41 263.381,2026.41 C265.563,2026.41 267.581,2027.41 269.436,2029.43 C271.29,2031.44 272.217,2033.95 272.217,2036.95 C272.217,2041.44 267.498,2047.66 258.061,2055.61 C254.55,2058.8 252.727,2060.39 252.592,2060.39 L252.014,2060.39 C251.42,2060.39 251.123,2060.03 251.123,2059.31 M253.576,2034.22 L253.279,2056.39 C255.3,2054.49 257.352,2051.35 259.436,2046.95 C261.519,2042.56 262.561,2038.8 262.561,2035.67 C262.561,2034.11 262.3,2032.68 261.779,2031.37 C261.258,2030.07 260.443,2029.42 259.334,2029.42 C258.225,2029.42 257.23,2029.81 256.35,2030.59 C255.469,2031.37 254.545,2032.58 253.576,2034.22"/>
<path class="KeySig" d="M281.139,2021.81 L279.873,1959.7 C279.873,1958.72 280.639,1958.23 282.17,1958.23 C283.701,1958.23 284.467,1958.72 284.467,1959.7 L283.686,1993.59 C285.446,1991.83 286.959,1990.61 288.225,1989.93 C289.49,1989.25 291.214,1988.91 293.397,1988.91 C295.579,1988.91 297.597,1989.91 299.451,1991.93 C301.305,1993.94 302.232,1996.45 302.232,1999.45 C302.232,2003.94 297.514,2010.16 288.076,2018.11 C284.566,2021.3 282.743,2022.89 282.607,2022.89 L282.029,2022.89 C281.436,2022.89 281.139,2022.53 281.139,2021.81 M283.592,1996.72 L283.295,2018.89 C285.316,2016.99 287.368,2013.85 289.451,2009.45 C291.535,2005.06 292.576,2001.3 292.576,1998.17 C292.576,1996.61 292.316,1995.18 291.795,1993.87 C291.274,1992.57 290.459,1991.92 289.35,1991.92 C288.24,1991.92 287.245,1992.31 286.365,1993.09 C285.485,1993.87 284.561,1995.08 283.592,1996.72"/>
<path class="KeySig" d="M311.154,2071.81 L309.889,2009.7 C309.889,2008.72 310.654,2008.23 312.186,2008.23 C313.717,2008.23 314.482,2008.72 314.482,2009.7 L313.701,2043.59 C315.462,2041.83 316.975,2040.61 318.24,2039.93 C319.506,2039.25 321.23,2038.91 323.412,2038.91 C325.594,2038.91 327.613,2039.91 329.467,2041.93 C331.321,2043.94 332.248,2046.45 332.248,2049.45 C332.248,2053.94 327.529,2060.16 318.092,2068.11 C314.581,2071.3 312.759,2072.89 312.623,2072.89 L312.045,2072.89 C311.451,2072.89 311.154,2072.53 311.154,2071.81 M313.607,2046.72 L313.311,2068.89 C315.331,2066.99 317.384,2063.85 319.467,2059.45 C321.55,2055.06 322.592,2051.3 322.592,2048.17 C322.592,2046.61 322.331,2045.18 321.811,2043.87 C321.29,2042.57 320.475,2041.92 319.365,2041.92 C318.256,2041.92 317.261,2042.31 316.381,2043.09 C315.501,2043.87 314.576,2045.08 313.607,2046.72"/>
<path class="KeySig" d="M251.123,1584.31 L249.857,1522.2 C249.857,1521.22 250.623,1520.73 252.154,1520.73 C253.686,1520.73 254.451,1521.22 254.451,1522.2 L253.67,1556.09 C255.43,1554.33 256.943,1553.11 258.209,1552.43 C259.475,1551.75 261.199,1551.41 263.381,1551.41 C265.563,1551.41 267.581,1552.41 269.436,1554.43 C271.29,1556.44 272.217,1558.95 272.217,1561.95 C272.217,1566.44 267.498,1572.66 258.061,1580.61 C254.55,1583.8 252.727,1585.39 252.592,1585.39 L252.014,1585.39 C251.42,1585.39 251.123,1585.03 251.123,1584.31 M253.576,1559.22 L253.279,1581.39 C255.3,1579.49 257.352,1576.35 259.436,1571.95 C261.519,1567.56 262.561,1563.8 262.561,1560.67 C262.561,1559.11 262.3,1557.68 261.779,1556.37 C261.258,1555.07 260.443,1554.42 259.334,1554.42 C258.225,1554.42 257.23,1554.81 256.35,1555.59 C255.469,1556.37 254.545,1557.58 253.576,1559.22"/>
<path class="KeySig" d="M281.139,1546.81 L279.873,1484.7 C279.873,1483.72 280.639,1483.23 282.17,1483.23 C283.701,1483.23 284.467,1483.72 284.467,1484.7 L283.686,1518.59 C285.446,1516.83 286.959,1515.61 288.225,1514.93 C289.49,1514.25 291.214,1513.91 293.397,1513.91 C295.579,1513.91 297.597,1514.91 299.451,1516.93 C301.305,1518.94 302.232,1521.45 302.232,1524.45 C302.232,1528.94 297.514,1535.16 288.076,1543.11 C284.566,1546.3 282.743,1547.89 282.607,1547.89 L282.029,1547.89 C281.436,1547.89 281.139,1547.53 281.139,1546.81 M283.592,1521.72 L283.295,1543.89 C285.316,1541.99 287.368,1538.85 289.451,1534.45 C291.535,1530.06 292.576,1526.3 292.576,1523.17 C292.576,1521.61 292.316,1520.18 291.795,1518.87 C291.274,1517.57 290.459,1516.92 289.35,1516.92 C288.24,1516.92 287.245,1517.31 286.365,1518.09 C285.485,1518.87 284.561,1520.08 283.592,1521.72"/>
<path class="TimeSig" d="M273.021,567.912 C274.516,567.912 275.949,567.686 277.318,567.233 C278.688,566.78 279.665,566.553 280.248,566.553 C280.831,566.553 281.222,566.907 281.42,567.615 C281.42,567.688 281.352,567.886 281.217,568.209 L252.811,601.225 L269.498,601.225 L269.498,588.131 C269.498,586.506 270.446,585.334 272.342,584.615 C274.29,583.897 276.503,581.001 278.982,575.928 C279.17,575.532 279.462,575.334 279.857,575.334 C280.639,575.334 281.092,575.793 281.217,576.709 L281.217,601.225 L288.357,601.225 C289.264,601.225 289.751,601.712 289.818,602.686 C289.886,603.66 289.399,604.147 288.357,604.147 L281.217,604.147 L281.217,604.928 C281.217,607.532 281.868,609.746 283.17,611.569 C284.67,613.391 286.43,614.303 288.451,614.303 C289.232,614.303 289.623,614.694 289.623,615.475 C289.623,616.256 289.087,616.647 288.014,616.647 C286.941,616.647 284.938,616.436 282.006,616.014 C279.074,615.592 276.811,615.381 275.217,615.381 C273.623,615.381 271.41,615.592 268.576,616.014 C265.743,616.436 263.613,616.647 262.186,616.647 C261.404,616.647 261.014,616.256 261.014,615.475 C261.014,614.694 261.404,614.303 262.186,614.303 C264.196,614.303 265.951,613.391 267.451,611.569 C268.816,609.683 269.498,607.47 269.498,604.928 L269.498,604.147 L252.811,604.147 C251.956,604.147 251.219,603.92 250.6,603.467 C249.98,603.014 249.67,602.592 249.67,602.201 C249.67,601.811 250.485,600.639 252.115,598.686 C253.745,596.733 256.074,592.972 259.1,587.405 C262.126,581.837 263.639,575.438 263.639,568.209 C263.639,567.168 264.097,566.647 265.014,566.647 C265.212,566.647 265.521,566.712 265.943,566.842 C266.365,566.972 267.277,567.183 268.678,567.475 C270.079,567.766 271.527,567.912 273.021,567.912"/>
<path class="TimeSig" d="M273.021,618.084 C274.516,618.084 275.949,617.858 277.318,617.405 C278.688,616.951 279.665,616.725 280.248,616.725 C280.831,616.725 281.222,617.079 281.42,617.787 C281.42,617.86 281.352,618.058 281.217,618.381 L252.811,651.397 L269.498,651.397 L269.498,638.303 C269.498,636.678 270.446,635.506 272.342,634.787 C274.29,634.069 276.503,631.173 278.982,626.1 C279.17,625.704 279.462,625.506 279.857,625.506 C280.639,625.506 281.092,625.964 281.217,626.881 L281.217,651.397 L288.357,651.397 C289.264,651.397 289.751,651.884 289.818,652.858 C289.886,653.832 289.399,654.319 288.357,654.319 L281.217,654.319 L281.217,655.1 C281.217,657.704 281.868,659.918 283.17,661.74 C284.67,663.563 286.43,664.475 288.451,664.475 C289.232,664.475 289.623,664.865 289.623,665.647 C289.623,666.428 289.087,666.819 288.014,666.819 C286.941,666.819 284.938,666.608 282.006,666.186 C279.074,665.764 276.811,665.553 275.217,665.553 C273.623,665.553 271.41,665.764 268.576,666.186 C265.743,666.608 263.613,666.819 262.186,666.819 C261.404,666.819 261.014,666.428 261.014,665.647 C261.014,664.865 261.404,664.475 262.186,664.475 C264.196,664.475 265.951,663.563 267.451,661.74 C268.816,659.855 269.498,657.642 269.498,655.1 L269.498,654.319 L252.811,654.319 C251.956,654.319 251.219,654.092 250.6,653.639 C249.98,653.186 249.67,652.764 249.67,652.373 C249.67,651.983 250.485,650.811 252.115,648.858 C253.745,646.905 256.074,643.144 259.1,637.576 C262.126,632.009 263.639,625.61 263.639,618.381 C263.639,617.339 264.097,616.819 265.014,616.819 C265.212,616.819 265.521,616.884 265.943,617.014 C266.365,617.144 267.277,617.355 268.678,617.647 C270.079,617.938 271.527,618.084 273.021,618.084"/>
<path class="Harmony" d="M259.812,1909.89 C259.812,1911.05 260.143,1911.77 260.805,1912.04 C261.466,1912.32 263.24,1912.46 266.125,1912.46 L267.734,1912.46 C272.016,1912.46 275.075,1911.95 276.914,1910.93 C278.753,1909.92 280.411,1907.79 281.891,1904.56 L283.578,1904.56 L280.875,1914.74 L248.484,1914.74 L248.484,1913.6 C250.682,1913.43 252.101,1913.02 252.742,1912.35 C253.383,1911.69 253.703,1910.3 253.703,1908.19 L253.703,1881.55 C253.703,1879.43 253.383,1878.05 252.742,1877.38 C252.101,1876.72 250.682,1876.31 248.484,1876.16 L248.484,1875.02 L280.344,1875.02 L280.516,1883.6 L279.016,1883.6 C278.495,1880.92 277.695,1879.2 276.617,1878.44 C275.539,1877.68 273.297,1877.3 269.891,1877.3 L261.797,1877.3 C260.995,1877.3 260.463,1877.43 260.203,1877.68 C259.943,1877.94 259.812,1878.48 259.812,1879.31 L259.812,1892.47 L269.062,1892.47 C271.615,1892.47 273.26,1892.09 274,1891.34 C274.74,1890.58 275.292,1889.12 275.656,1886.96 L277.031,1886.96 L277.031,1900.69 L275.656,1900.69 C275.26,1898.29 274.682,1896.77 273.922,1896.1 C273.161,1895.44 271.542,1895.11 269.062,1895.11 L259.812,1895.11 L259.812,1909.89 "/>
<path class="Harmony" d="M297.484,1892.17 C299.609,1892.17 301.211,1892.86 302.289,1894.24 C303.367,1895.62 303.906,1897.47 303.906,1899.78 C303.906,1901.54 303.318,1903.21 302.141,1904.77 C300.963,1906.33 298.825,1908.67 295.726,1911.79 C292.628,1914.91 289.896,1917.93 287.531,1920.85 L287.531,1866.25 L290.109,1865.11 L290.109,1894.69 C292.068,1893.01 294.526,1892.17 297.484,1892.17 M298.094,1900.46 C298.094,1897.86 297.115,1896.56 295.156,1896.56 C294.198,1896.56 293.226,1896.85 292.242,1897.43 C291.258,1898.01 290.547,1898.8 290.109,1899.8 L290.109,1913.72 C292.516,1911 294.448,1908.45 295.906,1906.07 C297.365,1903.69 298.094,1901.82 298.094,1900.46"/>
<path class="Harmony" d="M256.113,934.981 L254.723,934.981 C254.369,932.627 253.79,931.109 252.988,930.427 C252.186,929.745 250.567,929.403 248.129,929.403 L239.426,929.403 L239.426,941.888 C239.426,944.325 239.757,945.906 240.418,946.63 C241.08,947.354 242.572,947.773 244.895,947.888 L244.895,949.028 L228.098,949.028 L228.098,947.888 C230.369,947.731 231.806,947.302 232.41,946.599 C233.014,945.896 233.317,944.304 233.317,941.825 L233.317,915.856 C233.317,913.731 232.996,912.338 232.356,911.677 C231.715,911.015 230.296,910.606 228.098,910.45 L228.098,909.31 L259.957,909.31 L260.129,917.888 L258.629,917.888 C258.108,915.211 257.309,913.492 256.231,912.731 C255.152,911.971 252.91,911.591 249.504,911.591 L241.348,911.591 C240.546,911.591 240.025,911.718 239.785,911.974 C239.546,912.229 239.426,912.773 239.426,913.606 L239.426,926.763 L248.129,926.763 C250.525,926.763 252.134,926.424 252.957,925.747 C253.78,925.07 254.369,923.57 254.723,921.247 L256.113,921.247 L256.113,934.981 "/>
<path class="Harmony" d="M217.225,431.023 C217.225,424.814 219.147,419.773 222.99,415.898 C226.834,412.023 231.615,410.085 237.334,410.085 C239.886,410.085 242.285,410.398 244.529,411.023 C246.774,411.648 248.074,411.96 248.428,411.96 C249.751,411.96 250.589,411.335 250.944,410.085 L252.209,410.085 L252.756,423.523 L251.365,423.523 C249.167,416.085 244.871,412.367 238.475,412.367 C234.11,412.367 230.639,413.986 228.061,417.226 C225.483,420.466 224.194,424.804 224.194,430.242 C224.194,433.721 224.644,436.731 225.545,439.273 C226.446,441.814 227.654,443.734 229.17,445.031 C230.686,446.327 232.253,447.268 233.873,447.851 C235.493,448.434 237.225,448.726 239.069,448.726 C243.787,448.726 248.246,446.705 252.444,442.663 L253.537,443.742 C251.694,446.179 249.352,448.059 246.514,449.382 C243.675,450.705 240.553,451.367 237.147,451.367 C231.23,451.367 226.431,449.507 222.748,445.788 C219.066,442.07 217.225,437.148 217.225,431.023"/>
<path class="Harmony" d="M245.699,1407.44 C245.699,1408.64 245.48,1409.82 245.042,1410.99 C244.605,1412.16 243.876,1413.31 242.855,1414.45 C241.834,1415.59 240.324,1416.52 238.324,1417.22 C236.324,1417.92 233.943,1418.27 231.183,1418.27 L211.152,1418.27 L211.152,1417.13 C213.631,1417.05 215.209,1416.69 215.886,1416.05 C216.563,1415.42 216.902,1413.98 216.902,1411.74 L216.902,1385.1 C216.902,1382.9 216.574,1381.49 215.917,1380.87 C215.261,1380.25 213.672,1379.86 211.152,1379.69 L211.152,1378.55 L227.949,1378.55 C238.428,1378.55 243.667,1381.99 243.667,1388.85 C243.667,1390.16 243.428,1391.33 242.949,1392.35 C242.469,1393.37 241.98,1394.15 241.48,1394.69 C240.98,1395.22 240.209,1395.73 239.167,1396.22 C238.126,1396.7 237.464,1396.97 237.183,1397.03 C236.902,1397.09 236.324,1397.23 235.449,1397.46 C236.365,1397.7 237.053,1397.88 237.511,1398 C237.969,1398.12 238.811,1398.46 240.034,1399.01 C241.258,1399.56 242.209,1400.15 242.886,1400.79 C243.563,1401.42 244.201,1402.32 244.8,1403.49 C245.399,1404.66 245.699,1405.98 245.699,1407.44 M226.808,1415.99 C228.61,1415.99 230.17,1415.87 231.488,1415.63 C232.805,1415.39 234.045,1414.98 235.206,1414.41 C236.368,1413.83 237.258,1412.96 237.878,1411.8 C238.498,1410.65 238.808,1409.22 238.808,1407.51 C238.808,1405.87 238.498,1404.49 237.878,1403.35 C237.258,1402.22 236.508,1401.35 235.628,1400.75 C234.748,1400.15 233.527,1399.69 231.964,1399.37 C230.402,1399.06 229.021,1398.87 227.824,1398.8 C226.626,1398.74 225.027,1398.71 223.027,1398.71 L223.027,1413.54 C223.027,1414.5 223.287,1415.15 223.808,1415.48 C224.329,1415.82 225.329,1415.99 226.808,1415.99 M223.027,1396.43 L228.73,1396.43 C231.521,1396.43 233.688,1395.8 235.23,1394.53 C236.771,1393.27 237.542,1391.45 237.542,1389.09 C237.542,1386.4 236.644,1384.35 234.847,1382.94 C233.05,1381.54 230.428,1380.84 226.98,1380.84 L224.339,1380.84 C223.464,1380.84 223.027,1381.44 223.027,1382.65 L223.027,1396.43 "/>
<path class="Harmony" d="M261.417,1395.71 C263.542,1395.71 265.144,1396.4 266.222,1397.78 C267.3,1399.16 267.839,1401.01 267.839,1403.32 C267.839,1405.08 267.251,1406.74 266.074,1408.3 C264.896,1409.87 262.758,1412.21 259.659,1415.33 C256.561,1418.45 253.829,1421.47 251.464,1424.38 L251.464,1369.79 L254.042,1368.65 L254.042,1398.23 C256.001,1396.55 258.459,1395.71 261.417,1395.71 M262.027,1403.99 C262.027,1401.4 261.047,1400.1 259.089,1400.1 C258.131,1400.1 257.159,1400.39 256.175,1400.97 C255.191,1401.55 254.48,1402.34 254.042,1403.34 L254.042,1417.26 C256.449,1414.54 258.381,1411.99 259.839,1409.61 C261.297,1407.23 262.027,1405.36 262.027,1403.99"/>
</svg>
