<?xml version="1.0" encoding="UTF-8" standalone="no"?>
<svg width="2977.2px" height="4208.4px" viewBox="0 0 2977.2 4208.4"
 xmlns="http://www.w3.org/2000/svg" xmlns:xlink="http://www.w3.org/1999/xlink" version="1.2" baseProfile="tiny">
<title>G_Melodic_Minor.mscx</title>
<desc>Generated by MuseScore Studio 4.3.1</desc>
<path class="" fill="#ffffff" fill-rule="evenodd" d="M0,0 L2977.2,0 L2977.2,4208.4 L0,4208.4 L0,0 "/>
<polyline class="StaffLines" fill="none" stroke="#000000" stroke-width="2.00" stroke-linejoin="bevel" points="141.732,566.733 2835.47,566.733"/>
<polyline class="StaffLines" fill="none" stroke="#000000" stroke-width="2.00" stroke-linejoin="bevel" points="141.732,591.733 2835.47,591.733"/>
<polyline class="StaffLines" fill="none" stroke="#000000" stroke-width="2.00" stroke-linejoin="bevel" points="141.732,616.733 2835.47,616.733"/>
<polyline class="StaffLines" fill="none" stroke="#000000" stroke-width="2.00" stroke-linejoin="bevel" points="141.732,641.733 2835.47,641.733"/>
<polyline class="StaffLines" fill="none" stroke="#000000" stroke-width="2.00" stroke-linejoin="bevel" points="141.732,666.733 2835.47,666.733"/>
<polyline class="BarLine" fill="none" stroke="#000000" stroke-width="4.00" stroke-linejoin="bevel" points="2802.72,565.733 2802.72,667.733"/>
<polyline class="BarLine" fill="none" stroke="#000000" stroke-width="12.50" stroke-linejoin="bevel" points="2829.22,565.733 2829.22,667.733"/>
<polyline class="BarLine" fill="none" stroke="#000000" stroke-width="4.00" stroke-linejoin="bevel" points="873.651,565.733 873.651,667.733"/>
<polyline class="BarLine" fill="none" stroke="#000000" stroke-width="4.00" stroke-linejoin="bevel" points="1156.91,565.733 1156.91,667.733"/>
<polyline class="BarLine" fill="none" stroke="#000000" stroke-width="4.00" stroke-linejoin="bevel" points="1450.68,565.733 1450.68,667.733"/>
<polyline class="BarLine" fill="none" stroke="#000000" stroke-width="4.00" stroke-linejoin="bevel" points="579.879,565.733 579.879,667.733"/>
<polyline class="BarLine" fill="none" stroke="#000000" stroke-width="4.00" stroke-linejoin="bevel" points="1669.69,565.733 1669.69,667.733"/>
<polyline class="BarLine" fill="none" stroke="#000000" stroke-width="4.00" stroke-linejoin="bevel" points="1952.95,565.733 1952.95,667.733"/>
<polyline class="BarLine" fill="none" stroke="#000000" stroke-width="4.00" stroke-linejoin="bevel" points="2236.21,565.733 2236.21,667.733"/>
<polyline class="BarLine" fill="none" stroke="#000000" stroke-width="4.00" stroke-linejoin="bevel" points="2519.46,565.733 2519.46,667.733"/>
<path class="Accidental" d="M1796.75,571.811 L1795.48,509.701 C1795.48,508.722 1796.25,508.233 1797.78,508.233 C1799.31,508.233 1800.07,508.722 1800.07,509.701 L1799.29,543.592 C1801.05,541.832 1802.57,540.61 1803.83,539.928 C1805.1,539.246 1806.82,538.904 1809,538.904 C1811.19,538.904 1813.2,539.912 1815.06,541.928 C1816.91,543.944 1817.84,546.451 1817.84,549.451 C1817.84,553.941 1813.12,560.16 1803.68,568.108 C1800.17,571.295 1798.35,572.889 1798.21,572.889 L1797.64,572.889 C1797.04,572.889 1796.75,572.529 1796.75,571.811 M1799.2,546.717 L1798.9,568.889 C1800.92,566.993 1802.98,563.847 1805.06,559.451 C1807.14,555.056 1808.18,551.295 1808.18,548.17 C1808.18,546.608 1807.92,545.175 1807.4,543.873 C1806.88,542.571 1806.07,541.92 1804.96,541.92 C1803.85,541.92 1802.85,542.311 1801.97,543.092 C1801.09,543.873 1800.17,545.082 1799.2,546.717"/>
<path class="Accidental" d="M590.77,634.311 L589.504,572.201 C589.504,571.222 590.27,570.733 591.801,570.733 C593.332,570.733 594.098,571.222 594.098,572.201 L593.317,606.092 C595.077,604.332 596.59,603.11 597.856,602.428 C599.121,601.746 600.845,601.405 603.028,601.405 C605.21,601.405 607.228,602.412 609.082,604.428 C610.936,606.444 611.864,608.951 611.864,611.951 C611.864,616.441 607.145,622.66 597.707,630.608 C594.197,633.795 592.374,635.389 592.239,635.389 L591.66,635.389 C591.067,635.389 590.77,635.03 590.77,634.311 M593.223,609.217 L592.926,631.389 C594.947,629.493 596.999,626.347 599.082,621.951 C601.166,617.556 602.207,613.795 602.207,610.67 C602.207,609.108 601.947,607.675 601.426,606.373 C600.905,605.071 600.09,604.42 598.981,604.42 C597.871,604.42 596.877,604.811 595.996,605.592 C595.116,606.373 594.192,607.582 593.223,609.217"/>
<path class="Accidental" d="M1300.87,574.545 C1299.69,574.868 1299.1,574.415 1299.1,573.186 L1299.1,518.483 C1299.1,517.118 1299.62,516.436 1300.66,516.436 C1301.7,516.436 1302.22,517.118 1302.22,518.483 L1302.22,538.311 L1313.76,533.92 C1314.92,533.597 1315.51,534.05 1315.51,535.279 L1315.51,589.983 C1315.51,591.347 1314.98,592.029 1313.94,592.029 C1312.9,592.029 1312.38,591.347 1312.38,589.983 L1312.38,570.154 L1300.87,574.545 M1302.22,563.311 L1312.38,559.404 L1312.38,545.154 L1302.22,549.061 L1302.22,563.311 "/>
<path class="Accidental" d="M2363.26,634.311 L2361.99,572.201 C2361.99,571.222 2362.76,570.733 2364.29,570.733 C2365.82,570.733 2366.59,571.222 2366.59,572.201 L2365.8,606.092 C2367.57,604.332 2369.08,603.11 2370.34,602.428 C2371.61,601.746 2373.33,601.405 2375.52,601.405 C2377.7,601.405 2379.72,602.412 2381.57,604.428 C2383.42,606.444 2384.35,608.951 2384.35,611.951 C2384.35,616.441 2379.63,622.66 2370.2,630.608 C2366.69,633.795 2364.86,635.389 2364.73,635.389 L2364.15,635.389 C2363.55,635.389 2363.26,635.03 2363.26,634.311 M2365.71,609.217 L2365.41,631.389 C2367.44,629.493 2369.49,626.347 2371.57,621.951 C2373.65,617.556 2374.7,613.795 2374.7,610.67 C2374.7,609.108 2374.44,607.675 2373.91,606.373 C2373.39,605.071 2372.58,604.42 2371.47,604.42 C2370.36,604.42 2369.36,604.811 2368.48,605.592 C2367.6,606.373 2366.68,607.582 2365.71,609.217"/>
<path class="Accidental" d="M1167.8,571.811 L1166.53,509.701 C1166.53,508.722 1167.3,508.233 1168.83,508.233 C1170.36,508.233 1171.13,508.722 1171.13,509.701 L1170.34,543.592 C1172.1,541.832 1173.62,540.61 1174.88,539.928 C1176.15,539.246 1177.87,538.904 1180.06,538.904 C1182.24,538.904 1184.26,539.912 1186.11,541.928 C1187.96,543.944 1188.89,546.451 1188.89,549.451 C1188.89,553.941 1184.17,560.16 1174.74,568.108 C1171.22,571.295 1169.4,572.889 1169.27,572.889 L1168.69,572.889 C1168.09,572.889 1167.8,572.529 1167.8,571.811 M1170.25,546.717 L1169.95,568.889 C1171.97,566.993 1174.03,563.847 1176.11,559.451 C1178.19,555.056 1179.24,551.295 1179.24,548.17 C1179.24,546.608 1178.97,545.175 1178.45,543.873 C1177.93,542.571 1177.12,541.92 1176.01,541.92 C1174.9,541.92 1173.9,542.311 1173.02,543.092 C1172.14,543.873 1171.22,545.082 1170.25,546.717"/>
<polyline class="Stem" fill="none" stroke="#000000" stroke-width="3.25" stroke-linejoin="bevel" points="1825,559.133 1825,641.733"/>
<polyline class="Stem" fill="none" stroke="#000000" stroke-width="3.25" stroke-linejoin="bevel" points="1698.32,559.133 1698.32,641.733"/>
<polyline class="Stem" fill="none" stroke="#000000" stroke-width="3.25" stroke-linejoin="bevel" points="483.394,624.433 483.394,547.983"/>
<polyline class="Stem" fill="none" stroke="#000000" stroke-width="3.25" stroke-linejoin="bevel" points="1981.58,584.133 1981.58,666.733"/>
<polyline class="Stem" fill="none" stroke="#000000" stroke-width="3.25" stroke-linejoin="bevel" points="2108.25,596.633 2108.25,679.233"/>
<polyline class="Stem" fill="none" stroke="#000000" stroke-width="3.25" stroke-linejoin="bevel" points="356.717,636.933 356.717,554.233"/>
<polyline class="Stem" fill="none" stroke="#000000" stroke-width="3.25" stroke-linejoin="bevel" points="1322.72,559.133 1322.72,641.733"/>
<polyline class="Stem" fill="none" stroke="#000000" stroke-width="3.25" stroke-linejoin="bevel" points="2264.83,609.133 2264.83,685.483"/>
<polyline class="Stem" fill="none" stroke="#000000" stroke-width="3.25" stroke-linejoin="bevel" points="1196.05,559.133 1196.05,641.733"/>
<polyline class="Stem" fill="none" stroke="#000000" stroke-width="3.25" stroke-linejoin="bevel" points="619.02,621.633 619.02,691.733"/>
<polyline class="Stem" fill="none" stroke="#000000" stroke-width="3.25" stroke-linejoin="bevel" points="2391.51,621.633 2391.51,691.733"/>
<polyline class="Stem" fill="none" stroke="#000000" stroke-width="3.25" stroke-linejoin="bevel" points="1028.95,584.133 1028.95,666.733"/>
<polyline class="Stem" fill="none" stroke="#000000" stroke-width="3.25" stroke-linejoin="bevel" points="2579.56,624.433 2579.56,547.983"/>
<polyline class="Stem" fill="none" stroke="#000000" stroke-width="3.25" stroke-linejoin="bevel" points="902.276,596.633 902.276,679.233"/>
<polyline class="Stem" fill="none" stroke="#000000" stroke-width="3.25" stroke-linejoin="bevel" points="2706.23,636.933 2706.23,554.233"/>
<polyline class="Stem" fill="none" stroke="#000000" stroke-width="3.25" stroke-linejoin="bevel" points="745.697,609.133 745.697,685.483"/>
<path class="Note" d="M2270.63,614.873 C2272.51,614.873 2276.47,612.92 2282.5,609.014 C2288.52,605.108 2292.07,602.488 2293.14,601.155 C2294.22,599.821 2294.75,598.634 2294.75,597.592 C2294.75,596.55 2294.33,595.623 2293.48,594.811 C2292.63,593.998 2291.65,593.592 2290.55,593.592 C2288.6,593.592 2284.62,595.561 2278.59,599.498 C2272.56,603.436 2269.03,606.056 2267.99,607.358 C2266.95,608.66 2266.42,609.832 2266.42,610.873 C2266.42,611.915 2266.83,612.842 2267.65,613.655 C2268.47,614.467 2269.46,614.873 2270.63,614.873 M2289.58,590.467 C2295.17,590.467 2297.97,592.873 2297.97,597.686 C2297.97,600.03 2297.29,602.748 2295.92,605.842 C2294.56,608.936 2292.74,611.295 2290.46,612.92 C2285.45,616.306 2279.16,617.998 2271.61,617.998 C2266.01,617.998 2263.21,615.592 2263.21,610.78 C2263.21,608.634 2263.87,605.964 2265.21,602.772 C2266.54,599.579 2268.38,597.17 2270.72,595.545 C2275.74,592.16 2282.03,590.467 2289.58,590.467"/>
<path class="Note" d="M2397.3,627.373 C2399.19,627.373 2403.15,625.42 2409.17,621.514 C2415.2,617.608 2418.75,614.988 2419.82,613.655 C2420.89,612.321 2421.43,611.134 2421.43,610.092 C2421.43,609.05 2421.01,608.123 2420.16,607.311 C2419.31,606.498 2418.33,606.092 2417.23,606.092 C2415.28,606.092 2411.29,608.061 2405.27,611.998 C2399.24,615.936 2395.71,618.556 2394.66,619.858 C2393.62,621.16 2393.1,622.332 2393.1,623.373 C2393.1,624.415 2393.51,625.342 2394.33,626.155 C2395.15,626.967 2396.14,627.373 2397.3,627.373 M2416.26,602.967 C2421.85,602.967 2424.65,605.373 2424.65,610.186 C2424.65,612.53 2423.97,615.248 2422.6,618.342 C2421.24,621.436 2419.41,623.795 2417.13,625.42 C2412.12,628.806 2405.84,630.498 2398.29,630.498 C2392.69,630.498 2389.88,628.092 2389.88,623.28 C2389.88,621.134 2390.55,618.464 2391.88,615.272 C2393.22,612.079 2395.05,609.67 2397.4,608.045 C2402.42,604.66 2408.71,602.967 2416.26,602.967"/>
<path class="Note" d="M2114.05,602.373 C2115.93,602.373 2119.89,600.42 2125.92,596.514 C2131.94,592.608 2135.49,589.988 2136.56,588.655 C2137.64,587.321 2138.17,586.134 2138.17,585.092 C2138.17,584.05 2137.75,583.123 2136.9,582.311 C2136.05,581.498 2135.07,581.092 2133.97,581.092 C2132.02,581.092 2128.04,583.061 2122.01,586.998 C2115.98,590.936 2112.45,593.556 2111.41,594.858 C2110.37,596.16 2109.85,597.332 2109.85,598.373 C2109.85,599.415 2110.25,600.342 2111.07,601.155 C2111.89,601.967 2112.88,602.373 2114.05,602.373 M2133,577.967 C2138.6,577.967 2141.39,580.373 2141.39,585.186 C2141.39,587.53 2140.71,590.248 2139.35,593.342 C2137.98,596.436 2136.16,598.795 2133.88,600.42 C2128.87,603.806 2122.59,605.498 2115.03,605.498 C2109.43,605.498 2106.63,603.092 2106.63,598.28 C2106.63,596.134 2107.29,593.464 2108.63,590.272 C2109.96,587.079 2111.8,584.67 2114.14,583.045 C2119.16,579.66 2125.45,577.967 2133,577.967"/>
<path class="Note" d="M2553.88,639.873 C2555.77,639.873 2559.73,637.92 2565.75,634.014 C2571.78,630.108 2575.33,627.488 2576.4,626.155 C2577.47,624.821 2578.01,623.634 2578.01,622.592 C2578.01,621.55 2577.58,620.623 2576.74,619.811 C2575.89,618.998 2574.91,618.592 2573.81,618.592 C2571.86,618.592 2567.87,620.561 2561.85,624.498 C2555.82,628.436 2552.29,631.056 2551.24,632.358 C2550.2,633.66 2549.68,634.832 2549.68,635.873 C2549.68,636.915 2550.09,637.842 2550.91,638.655 C2551.73,639.467 2552.72,639.873 2553.88,639.873 M2572.84,615.467 C2578.43,615.467 2581.23,617.873 2581.23,622.686 C2581.23,625.03 2580.55,627.748 2579.18,630.842 C2577.82,633.936 2575.99,636.295 2573.71,637.92 C2568.7,641.306 2562.42,642.998 2554.87,642.998 C2549.26,642.998 2546.46,640.592 2546.46,635.78 C2546.46,633.634 2547.13,630.964 2548.46,627.772 C2549.8,624.579 2551.63,622.17 2553.98,620.545 C2559,617.16 2565.29,615.467 2572.84,615.467"/>
<path class="Note" d="M1987.37,589.873 C1989.26,589.873 1993.21,587.92 1999.24,584.014 C2005.27,580.108 2008.81,577.488 2009.89,576.155 C2010.96,574.821 2011.5,573.634 2011.5,572.592 C2011.5,571.55 2011.07,570.623 2010.22,569.811 C2009.37,568.998 2008.4,568.592 2007.29,568.592 C2005.35,568.592 2001.36,570.561 1995.33,574.498 C1989.31,578.436 1985.77,581.056 1984.73,582.358 C1983.69,583.66 1983.17,584.832 1983.17,585.873 C1983.17,586.915 1983.58,587.842 1984.4,588.655 C1985.21,589.467 1986.21,589.873 1987.37,589.873 M2006.33,565.467 C2011.92,565.467 2014.72,567.873 2014.72,572.686 C2014.72,575.03 2014.03,577.748 2012.67,580.842 C2011.3,583.936 2009.48,586.295 2007.2,587.92 C2002.19,591.306 1995.91,592.998 1988.36,592.998 C1982.75,592.998 1979.95,590.592 1979.95,585.78 C1979.95,583.634 1980.62,580.964 1981.95,577.772 C1983.28,574.579 1985.12,572.17 1987.47,570.545 C1992.49,567.16 1998.77,565.467 2006.33,565.467"/>
<path class="Note" d="M2680.56,652.373 C2682.45,652.373 2686.4,650.42 2692.43,646.514 C2698.45,642.608 2702,639.988 2703.08,638.655 C2704.15,637.321 2704.69,636.134 2704.69,635.092 C2704.69,634.05 2704.26,633.123 2703.41,632.311 C2702.56,631.498 2701.59,631.092 2700.48,631.092 C2698.53,631.092 2694.55,633.061 2688.52,636.998 C2682.5,640.936 2678.96,643.556 2677.92,644.858 C2676.88,646.16 2676.36,647.332 2676.36,648.373 C2676.36,649.415 2676.77,650.342 2677.58,651.155 C2678.4,651.967 2679.39,652.373 2680.56,652.373 M2699.51,627.967 C2705.11,627.967 2707.9,630.373 2707.9,635.186 C2707.9,637.53 2707.22,640.248 2705.86,643.342 C2704.49,646.436 2702.67,648.795 2700.39,650.42 C2695.38,653.806 2689.1,655.498 2681.55,655.498 C2675.94,655.498 2673.14,653.092 2673.14,648.28 C2673.14,646.134 2673.81,643.464 2675.14,640.272 C2676.47,637.079 2678.31,634.67 2680.65,633.045 C2685.68,629.66 2691.96,627.967 2699.51,627.967"/>
<path class="Note" d="M331.045,652.373 C332.93,652.373 336.886,650.42 342.912,646.514 C348.938,642.608 352.488,639.988 353.561,638.655 C354.634,637.321 355.17,636.134 355.17,635.092 C355.17,634.05 354.745,633.123 353.897,632.311 C353.048,631.498 352.071,631.092 350.967,631.092 C349.019,631.092 345.032,633.061 339.006,636.998 C332.98,640.936 329.446,643.556 328.404,644.858 C327.363,646.16 326.842,647.332 326.842,648.373 C326.842,649.415 327.251,650.342 328.068,651.155 C328.886,651.967 329.878,652.373 331.045,652.373 M349.998,627.967 C355.592,627.967 358.389,630.373 358.389,635.186 C358.389,637.53 357.706,640.248 356.342,643.342 C354.977,646.436 353.154,648.795 350.873,650.42 C345.863,653.806 339.581,655.498 332.029,655.498 C326.425,655.498 323.623,653.092 323.623,648.28 C323.623,646.134 324.29,643.464 325.623,640.272 C326.956,637.079 328.795,634.67 331.139,633.045 C336.16,629.66 342.446,627.967 349.998,627.967"/>
<path class="Note" d="M751.494,614.873 C753.379,614.873 757.335,612.92 763.361,609.014 C769.387,605.108 772.936,602.488 774.009,601.155 C775.082,599.821 775.619,598.634 775.619,597.592 C775.619,596.55 775.194,595.623 774.345,594.811 C773.496,593.998 772.52,593.592 771.415,593.592 C769.468,593.592 765.481,595.561 759.454,599.498 C753.428,603.436 749.895,606.056 748.853,607.358 C747.811,608.66 747.29,609.832 747.29,610.873 C747.29,611.915 747.699,612.842 748.517,613.655 C749.335,614.467 750.327,614.873 751.494,614.873 M770.447,590.467 C776.04,590.467 778.837,592.873 778.837,597.686 C778.837,600.03 778.155,602.748 776.79,605.842 C775.426,608.936 773.603,611.295 771.322,612.92 C766.311,616.306 760.03,617.998 752.478,617.998 C746.874,617.998 744.072,615.592 744.072,610.78 C744.072,608.634 744.738,605.964 746.072,602.772 C747.405,599.579 749.244,597.17 751.587,595.545 C756.608,592.16 762.895,590.467 770.447,590.467"/>
<path class="Note" d="M908.073,602.373 C909.958,602.373 913.914,600.42 919.94,596.514 C925.966,592.608 929.515,589.988 930.588,588.655 C931.661,587.321 932.198,586.134 932.198,585.092 C932.198,584.05 931.773,583.123 930.924,582.311 C930.075,581.498 929.099,581.092 927.995,581.092 C926.047,581.092 922.06,583.061 916.034,586.998 C910.008,590.936 906.474,593.556 905.432,594.858 C904.39,596.16 903.87,597.332 903.87,598.373 C903.87,599.415 904.279,600.342 905.096,601.155 C905.914,601.967 906.906,602.373 908.073,602.373 M927.026,577.967 C932.62,577.967 935.417,580.373 935.417,585.186 C935.417,587.53 934.734,590.248 933.37,593.342 C932.005,596.436 930.182,598.795 927.901,600.42 C922.89,603.806 916.609,605.498 909.057,605.498 C903.453,605.498 900.651,603.092 900.651,598.28 C900.651,596.134 901.318,593.464 902.651,590.272 C903.984,587.079 905.823,584.67 908.167,583.045 C913.187,579.66 919.474,577.967 927.026,577.967"/>
<path class="Note" d="M1034.75,589.873 C1036.64,589.873 1040.59,587.92 1046.62,584.014 C1052.64,580.108 1056.19,577.488 1057.27,576.155 C1058.34,574.821 1058.87,573.634 1058.87,572.592 C1058.87,571.55 1058.45,570.623 1057.6,569.811 C1056.75,568.998 1055.78,568.592 1054.67,568.592 C1052.72,568.592 1048.74,570.561 1042.71,574.498 C1036.68,578.436 1033.15,581.056 1032.11,582.358 C1031.07,583.66 1030.55,584.832 1030.55,585.873 C1030.55,586.915 1030.96,587.842 1031.77,588.655 C1032.59,589.467 1033.58,589.873 1034.75,589.873 M1053.7,565.467 C1059.3,565.467 1062.09,567.873 1062.09,572.686 C1062.09,575.03 1061.41,577.748 1060.05,580.842 C1058.68,583.936 1056.86,586.295 1054.58,587.92 C1049.57,591.306 1043.29,592.998 1035.73,592.998 C1030.13,592.998 1027.33,590.592 1027.33,585.78 C1027.33,583.634 1027.99,580.964 1029.33,577.772 C1030.66,574.579 1032.5,572.17 1034.84,570.545 C1039.86,567.16 1046.15,565.467 1053.7,565.467"/>
<path class="Note" d="M624.817,627.373 C626.702,627.373 630.658,625.42 636.684,621.514 C642.71,617.608 646.259,614.988 647.332,613.655 C648.405,612.321 648.942,611.134 648.942,610.092 C648.942,609.05 648.517,608.123 647.668,607.311 C646.819,606.498 645.843,606.092 644.739,606.092 C642.791,606.092 638.804,608.061 632.778,611.998 C626.752,615.936 623.218,618.556 622.176,619.858 C621.134,621.16 620.614,622.332 620.614,623.373 C620.614,624.415 621.022,625.342 621.84,626.155 C622.658,626.967 623.65,627.373 624.817,627.373 M643.77,602.967 C649.364,602.967 652.16,605.373 652.16,610.186 C652.16,612.53 651.478,615.248 650.114,618.342 C648.749,621.436 646.926,623.795 644.645,625.42 C639.634,628.806 633.353,630.498 625.801,630.498 C620.197,630.498 617.395,628.092 617.395,623.28 C617.395,621.134 618.061,618.464 619.395,615.272 C620.728,612.079 622.567,609.67 624.91,608.045 C629.931,604.66 636.218,602.967 643.77,602.967"/>
<path class="Note" d="M1201.84,564.873 C1203.73,564.873 1207.69,562.92 1213.71,559.014 C1219.74,555.108 1223.29,552.488 1224.36,551.154 C1225.43,549.821 1225.97,548.634 1225.97,547.592 C1225.97,546.55 1225.55,545.623 1224.7,544.811 C1223.85,543.998 1222.87,543.592 1221.77,543.592 C1219.82,543.592 1215.83,545.561 1209.81,549.498 C1203.78,553.436 1200.25,556.056 1199.2,557.358 C1198.16,558.66 1197.64,559.832 1197.64,560.873 C1197.64,561.915 1198.05,562.842 1198.87,563.654 C1199.69,564.467 1200.68,564.873 1201.84,564.873 M1220.8,540.467 C1226.39,540.467 1229.19,542.873 1229.19,547.686 C1229.19,550.029 1228.51,552.748 1227.14,555.842 C1225.78,558.936 1223.95,561.295 1221.67,562.92 C1216.66,566.306 1210.38,567.998 1202.83,567.998 C1197.22,567.998 1194.42,565.592 1194.42,560.779 C1194.42,558.634 1195.09,555.964 1196.42,552.772 C1197.76,549.579 1199.59,547.17 1201.94,545.545 C1206.96,542.16 1213.25,540.467 1220.8,540.467"/>
<path class="Note" d="M1328.52,564.873 C1330.41,564.873 1334.36,562.92 1340.39,559.014 C1346.41,555.108 1349.96,552.488 1351.04,551.154 C1352.11,549.821 1352.65,548.634 1352.65,547.592 C1352.65,546.55 1352.22,545.623 1351.37,544.811 C1350.52,543.998 1349.55,543.592 1348.44,543.592 C1346.5,543.592 1342.51,545.561 1336.48,549.498 C1330.46,553.436 1326.92,556.056 1325.88,557.358 C1324.84,558.66 1324.32,559.832 1324.32,560.873 C1324.32,561.915 1324.73,562.842 1325.54,563.654 C1326.36,564.467 1327.35,564.873 1328.52,564.873 M1347.47,540.467 C1353.07,540.467 1355.87,542.873 1355.87,547.686 C1355.87,550.029 1355.18,552.748 1353.82,555.842 C1352.45,558.936 1350.63,561.295 1348.35,562.92 C1343.34,566.306 1337.06,567.998 1329.51,567.998 C1323.9,567.998 1321.1,565.592 1321.1,560.779 C1321.1,558.634 1321.77,555.964 1323.1,552.772 C1324.43,549.579 1326.27,547.17 1328.62,545.545 C1333.64,542.16 1339.92,540.467 1347.47,540.467"/>
<path class="Note" d="M457.722,639.873 C459.607,639.873 463.563,637.92 469.589,634.014 C475.615,630.108 479.165,627.488 480.237,626.155 C481.31,624.821 481.847,623.634 481.847,622.592 C481.847,621.55 481.422,620.623 480.573,619.811 C479.724,618.998 478.748,618.592 477.644,618.592 C475.696,618.592 471.709,620.561 465.683,624.498 C459.657,628.436 456.123,631.056 455.081,632.358 C454.04,633.66 453.519,634.832 453.519,635.873 C453.519,636.915 453.928,637.842 454.745,638.655 C455.563,639.467 456.555,639.873 457.722,639.873 M476.675,615.467 C482.269,615.467 485.066,617.873 485.066,622.686 C485.066,625.03 484.383,627.748 483.019,630.842 C481.654,633.936 479.831,636.295 477.55,637.92 C472.54,641.306 466.258,642.998 458.706,642.998 C453.102,642.998 450.3,640.592 450.3,635.78 C450.3,633.634 450.967,630.964 452.3,627.772 C453.633,624.579 455.472,622.17 457.816,620.545 C462.836,617.16 469.123,615.467 476.675,615.467"/>
<path class="Note" d="M1704.12,564.873 C1706,564.873 1709.96,562.92 1715.98,559.014 C1722.01,555.108 1725.56,552.488 1726.63,551.154 C1727.7,549.821 1728.24,548.634 1728.24,547.592 C1728.24,546.55 1727.82,545.623 1726.97,544.811 C1726.12,543.998 1725.14,543.592 1724.04,543.592 C1722.09,543.592 1718.1,545.561 1712.08,549.498 C1706.05,553.436 1702.52,556.056 1701.48,557.358 C1700.43,558.66 1699.91,559.832 1699.91,560.873 C1699.91,561.915 1700.32,562.842 1701.14,563.654 C1701.96,564.467 1702.95,564.873 1704.12,564.873 M1723.07,540.467 C1728.66,540.467 1731.46,542.873 1731.46,547.686 C1731.46,550.029 1730.78,552.748 1729.41,555.842 C1728.05,558.936 1726.23,561.295 1723.94,562.92 C1718.93,566.306 1712.65,567.998 1705.1,567.998 C1699.5,567.998 1696.69,565.592 1696.69,560.779 C1696.69,558.634 1697.36,555.964 1698.69,552.772 C1700.03,549.579 1701.87,547.17 1704.21,545.545 C1709.23,542.16 1715.52,540.467 1723.07,540.467"/>
<path class="Note" d="M1830.79,564.873 C1832.68,564.873 1836.63,562.92 1842.66,559.014 C1848.69,555.108 1852.24,552.488 1853.31,551.154 C1854.38,549.821 1854.92,548.634 1854.92,547.592 C1854.92,546.55 1854.49,545.623 1853.64,544.811 C1852.8,543.998 1851.82,543.592 1850.71,543.592 C1848.77,543.592 1844.78,545.561 1838.75,549.498 C1832.73,553.436 1829.19,556.056 1828.15,557.358 C1827.11,558.66 1826.59,559.832 1826.59,560.873 C1826.59,561.915 1827,562.842 1827.82,563.654 C1828.63,564.467 1829.63,564.873 1830.79,564.873 M1849.75,540.467 C1855.34,540.467 1858.14,542.873 1858.14,547.686 C1858.14,550.029 1857.45,552.748 1856.09,555.842 C1854.73,558.936 1852.9,561.295 1850.62,562.92 C1845.61,566.306 1839.33,567.998 1831.78,567.998 C1826.17,567.998 1823.37,565.592 1823.37,560.779 C1823.37,558.634 1824.04,555.964 1825.37,552.772 C1826.7,549.579 1828.54,547.17 1830.89,545.545 C1835.91,542.16 1842.19,540.467 1849.75,540.467"/>
<path class="Clef" d="M203.623,673.858 L203.623,671.717 C203.56,670.613 203.399,668.889 203.139,666.545 C199.889,667.066 196.993,667.326 194.451,667.326 C185.337,667.326 177.605,663.727 171.256,656.53 C164.907,649.332 161.732,640.754 161.732,630.795 C161.732,628.129 162.253,624.923 163.295,621.178 C164.337,617.433 165.297,614.925 166.178,613.655 C167.058,612.384 168.378,610.155 170.139,606.967 C170.659,605.988 172.352,603.837 175.217,600.514 C175.738,599.806 176.193,599.222 176.584,598.764 C176.975,598.306 177.607,597.49 178.482,596.319 C179.357,595.147 180.3,594.056 181.31,593.045 C182.321,592.035 183.217,591.058 183.998,590.115 C184.779,589.173 185.498,588.379 186.154,587.733 C183.81,579.983 182.378,574.024 181.857,569.858 C181.337,565.691 181.076,560.579 181.076,554.522 C181.076,548.464 182.378,542.962 184.982,538.014 C187.514,532.879 191.06,528.681 195.623,525.42 C195.883,525.222 196.225,525.123 196.646,525.123 C197.068,525.123 197.378,525.222 197.576,525.42 C201.087,529.649 204.128,535.149 206.701,541.92 C209.274,548.691 210.56,555.024 210.56,560.92 C210.56,566.816 209.066,572.498 206.076,577.967 C202.691,583.759 198.326,589.748 192.982,595.936 C194.347,600.227 196.17,606.962 198.451,616.139 L199.045,616.139 C199.305,616.076 199.529,616.045 199.717,616.045 C207.081,616.045 213.089,618.634 217.74,623.811 C222.391,628.988 224.717,634.962 224.717,641.733 C224.717,650.129 221.238,656.899 214.279,662.045 C212.258,663.545 209.878,664.717 207.139,665.561 C207.472,669.79 207.639,672.605 207.639,674.006 C207.639,675.407 207.571,677.899 207.435,681.483 C207.373,687.597 205.29,692.837 201.185,697.201 C197.081,701.566 192.394,703.748 187.123,703.748 C181.852,703.748 177.36,701.876 173.646,698.131 C169.933,694.386 168.076,689.847 168.076,684.514 C168.076,681.712 169.154,679.332 171.31,677.373 C173.519,675.425 176.006,674.451 178.771,674.451 C181.537,674.451 183.8,675.462 185.56,677.483 C187.383,679.368 188.295,681.644 188.295,684.311 C188.295,686.977 187.383,689.222 185.56,691.045 C183.738,692.868 181.555,693.78 179.014,693.78 C177.972,693.78 176.967,693.587 175.998,693.201 C178.863,697.431 182.54,699.545 187.029,699.545 C191.519,699.545 195.36,697.691 198.553,693.983 C201.745,690.274 203.342,685.91 203.342,680.889 L203.623,673.858 M206.748,661.561 C210.133,660.321 212.821,658.123 214.81,654.967 C216.8,651.811 217.795,648.67 217.795,645.545 C217.795,640.92 216.199,636.785 213.006,633.139 C209.813,629.493 205.774,627.441 200.889,626.983 C203.691,640.722 205.644,652.248 206.748,661.561 M168.967,638.998 C168.967,645.446 171.537,651.079 176.678,655.897 C181.818,660.714 187.842,663.123 194.748,663.123 C197.477,663.123 200.144,662.925 202.748,662.53 C201.706,652.634 199.654,640.785 196.592,626.983 C192.758,627.379 189.782,628.699 187.662,630.944 C185.542,633.188 184.482,635.743 184.482,638.608 C184.482,643.556 187.123,647.561 192.404,650.623 C192.852,650.884 193.076,651.324 193.076,651.944 C193.076,652.563 192.865,653.1 192.443,653.553 C192.021,654.006 191.649,654.233 191.326,654.233 C191.003,654.233 190.581,654.17 190.06,654.045 C182.435,649.879 178.623,643.592 178.623,635.186 C178.623,631.217 180.024,627.41 182.826,623.764 C185.753,620.118 189.56,617.774 194.248,616.733 C192.425,609.441 190.93,603.743 189.764,599.639 C180.847,609.67 175.31,617.092 173.154,621.905 C170.363,628.155 168.967,633.852 168.967,638.998 M201.576,539.686 C196.691,542.092 192.834,545.574 190.006,550.131 C187.178,554.688 185.764,559.472 185.764,564.483 C185.764,569.493 186.935,575.972 189.279,583.92 C193.967,578.254 197.514,572.946 199.92,567.998 C202.326,563.05 203.529,558.152 203.529,553.303 C203.529,548.454 202.878,543.915 201.576,539.686"/>
<path class="TimeSig" d="M273.021,567.912 C274.516,567.912 275.949,567.686 277.318,567.233 C278.688,566.78 279.665,566.553 280.248,566.553 C280.831,566.553 281.222,566.907 281.42,567.615 C281.42,567.688 281.352,567.886 281.217,568.209 L252.811,601.225 L269.498,601.225 L269.498,588.131 C269.498,586.506 270.446,585.334 272.342,584.615 C274.29,583.897 276.503,581.001 278.982,575.928 C279.17,575.532 279.462,575.334 279.857,575.334 C280.639,575.334 281.092,575.793 281.217,576.709 L281.217,601.225 L288.357,601.225 C289.264,601.225 289.751,601.712 289.818,602.686 C289.886,603.66 289.399,604.147 288.357,604.147 L281.217,604.147 L281.217,604.928 C281.217,607.532 281.868,609.746 283.17,611.569 C284.67,613.391 286.43,614.303 288.451,614.303 C289.232,614.303 289.623,614.694 289.623,615.475 C289.623,616.256 289.087,616.647 288.014,616.647 C286.941,616.647 284.938,616.436 282.006,616.014 C279.074,615.592 276.811,615.381 275.217,615.381 C273.623,615.381 271.41,615.592 268.576,616.014 C265.743,616.436 263.613,616.647 262.186,616.647 C261.404,616.647 261.014,616.256 261.014,615.475 C261.014,614.694 261.404,614.303 262.186,614.303 C264.196,614.303 265.951,613.391 267.451,611.569 C268.816,609.683 269.498,607.47 269.498,604.928 L269.498,604.147 L252.811,604.147 C251.956,604.147 251.219,603.92 250.6,603.467 C249.98,603.014 249.67,602.592 249.67,602.201 C249.67,601.811 250.485,600.639 252.115,598.686 C253.745,596.733 256.074,592.972 259.1,587.405 C262.126,581.837 263.639,575.438 263.639,568.209 C263.639,567.168 264.097,566.647 265.014,566.647 C265.212,566.647 265.521,566.712 265.943,566.842 C266.365,566.972 267.277,567.183 268.678,567.475 C270.079,567.766 271.527,567.912 273.021,567.912"/>
<path class="TimeSig" d="M273.021,618.084 C274.516,618.084 275.949,617.858 277.318,617.405 C278.688,616.951 279.665,616.725 280.248,616.725 C280.831,616.725 281.222,617.079 281.42,617.787 C281.42,617.86 281.352,618.058 281.217,618.381 L252.811,651.397 L269.498,651.397 L269.498,638.303 C269.498,636.678 270.446,635.506 272.342,634.787 C274.29,634.069 276.503,631.173 278.982,626.1 C279.17,625.704 279.462,625.506 279.857,625.506 C280.639,625.506 281.092,625.964 281.217,626.881 L281.217,651.397 L288.357,651.397 C289.264,651.397 289.751,651.884 289.818,652.858 C289.886,653.832 289.399,654.319 288.357,654.319 L281.217,654.319 L281.217,655.1 C281.217,657.704 281.868,659.918 283.17,661.74 C284.67,663.563 286.43,664.475 288.451,664.475 C289.232,664.475 289.623,664.865 289.623,665.647 C289.623,666.428 289.087,666.819 288.014,666.819 C286.941,666.819 284.938,666.608 282.006,666.186 C279.074,665.764 276.811,665.553 275.217,665.553 C273.623,665.553 271.41,665.764 268.576,666.186 C265.743,666.608 263.613,666.819 262.186,666.819 C261.404,666.819 261.014,666.428 261.014,665.647 C261.014,664.865 261.404,664.475 262.186,664.475 C264.196,664.475 265.951,663.563 267.451,661.74 C268.816,659.855 269.498,657.642 269.498,655.1 L269.498,654.319 L252.811,654.319 C251.956,654.319 251.219,654.092 250.6,653.639 C249.98,653.186 249.67,652.764 249.67,652.373 C249.67,651.983 250.485,650.811 252.115,648.858 C253.745,646.905 256.074,643.144 259.1,637.576 C262.126,632.009 263.639,625.61 263.639,618.381 C263.639,617.339 264.097,616.819 265.014,616.819 C265.212,616.819 265.521,616.884 265.943,617.014 C266.365,617.144 267.277,617.355 268.678,617.647 C270.079,617.938 271.527,618.084 273.021,618.084"/>
<path class="Rest" d="M1577.97,607.358 L1542.42,607.358 C1541.76,607.358 1541.44,607.035 1541.44,606.389 L1541.44,592.717 C1541.44,592.061 1541.76,591.733 1542.42,591.733 L1577.97,591.733 C1578.61,591.733 1578.94,592.061 1578.94,592.717 L1578.94,606.389 C1578.94,607.035 1578.61,607.358 1577.97,607.358"/>
<path class="Lyrics" d="M600.895,739.764 L614.426,739.764 L614.426,743.061 L600.895,743.061 L600.895,739.764 M621.52,749.436 C622.364,749.436 623.619,749.933 625.285,750.928 C626.952,751.923 628.41,752.42 629.66,752.42 C631.681,752.42 633.387,751.636 634.778,750.069 C636.168,748.501 636.864,746.571 636.864,744.28 C636.864,742.853 636.616,741.592 636.121,740.498 C635.627,739.405 634.994,738.558 634.223,737.959 C633.452,737.36 632.535,736.871 631.473,736.491 C630.41,736.11 629.413,735.866 628.481,735.756 C627.548,735.647 626.546,735.592 625.473,735.592 L625.473,734.873 C626.723,734.436 627.798,734.006 628.7,733.584 C629.601,733.162 630.546,732.592 631.535,731.873 C632.525,731.155 633.285,730.282 633.817,729.256 C634.348,728.23 634.614,727.061 634.614,725.748 C634.614,724.019 634.054,722.605 632.934,721.506 C631.814,720.407 630.358,719.858 628.567,719.858 C626.838,719.858 625.322,720.324 624.02,721.256 C622.718,722.188 621.499,723.665 620.364,725.686 L619.535,725.467 C620.494,722.863 621.788,720.728 623.418,719.061 C625.048,717.394 627.369,716.561 630.379,716.561 C632.91,716.561 634.973,717.256 636.567,718.647 C638.16,720.037 638.957,721.853 638.957,724.092 C638.957,725.592 638.572,726.91 637.801,728.045 C637.03,729.181 635.692,730.394 633.785,731.686 C635.983,732.634 637.705,733.847 638.95,735.326 C640.194,736.806 640.817,738.915 640.817,741.655 C640.817,745.55 639.379,748.665 636.504,750.998 C633.629,753.332 630.009,754.498 625.645,754.498 C623.739,754.498 622.226,754.214 621.106,753.647 C619.986,753.079 619.426,752.321 619.426,751.373 C619.426,750.78 619.619,750.308 620.004,749.959 C620.39,749.61 620.895,749.436 621.52,749.436 M656.332,737.076 C656.332,736.712 656.58,735.733 657.075,734.139 C657.569,732.545 657.817,730.701 657.817,728.608 C656.39,729.493 655.218,730.451 654.301,731.483 C653.384,732.514 652.697,733.264 652.239,733.733 C651.78,734.201 651.15,734.436 650.348,734.436 C649.025,734.436 648.364,733.785 648.364,732.483 C648.364,731.847 648.601,731.373 649.075,731.061 C649.548,730.748 650.134,730.527 650.832,730.397 C651.53,730.267 652.512,729.972 653.778,729.514 C655.043,729.056 656.265,728.483 657.442,727.795 C656.004,727.066 654.452,726.501 652.785,726.1 C651.119,725.699 649.965,725.334 649.325,725.006 C648.684,724.678 648.364,724.076 648.364,723.201 C648.364,722.649 648.546,722.183 648.91,721.803 C649.275,721.423 649.718,721.233 650.239,721.233 C650.822,721.233 651.343,721.397 651.801,721.725 C652.259,722.053 652.653,722.454 652.981,722.928 C653.309,723.402 653.905,724.022 654.77,724.787 C655.634,725.553 656.65,726.28 657.817,726.967 C657.817,724.884 657.588,723.035 657.129,721.42 C656.671,719.806 656.442,718.816 656.442,718.451 C656.442,717.899 656.627,717.441 656.996,717.076 C657.366,716.712 657.825,716.53 658.371,716.53 C658.918,716.53 659.384,716.722 659.77,717.108 C660.155,717.493 660.348,717.978 660.348,718.561 C660.348,719.04 660.101,720.04 659.606,721.561 C659.111,723.082 658.864,724.92 658.864,727.076 C660.145,726.274 661.272,725.355 662.246,724.319 C663.22,723.282 663.973,722.491 664.504,721.944 C665.035,721.397 665.629,721.123 666.285,721.123 C666.879,721.123 667.358,721.324 667.723,721.725 C668.088,722.126 668.27,722.634 668.27,723.248 C668.27,724.019 667.903,724.569 667.168,724.897 C666.434,725.225 665.259,725.616 663.645,726.069 C662.03,726.522 660.582,727.113 659.301,727.842 C660.405,728.54 661.58,729.097 662.825,729.514 C664.069,729.931 665.048,730.194 665.762,730.303 C666.476,730.412 667.08,730.634 667.575,730.967 C668.069,731.3 668.317,731.785 668.317,732.42 C668.317,733.056 668.145,733.558 667.801,733.928 C667.457,734.298 666.989,734.483 666.395,734.483 C665.624,734.483 664.983,734.251 664.473,733.787 C663.963,733.324 663.22,732.563 662.246,731.506 C661.272,730.449 660.145,729.483 658.864,728.608 C658.864,730.701 659.121,732.563 659.637,734.194 C660.153,735.824 660.41,736.733 660.41,736.92 C660.41,737.504 660.2,738.017 659.778,738.459 C659.356,738.902 658.848,739.123 658.254,739.123 C657.744,739.123 657.296,738.92 656.91,738.514 C656.525,738.108 656.332,737.629 656.332,737.076"/>
<path class="Lyrics" d="M2543.96,739.764 L2557.49,739.764 L2557.49,743.061 L2543.96,743.061 L2543.96,739.764 M2564.59,749.436 C2565.43,749.436 2566.69,749.933 2568.35,750.928 C2570.02,751.923 2571.48,752.42 2572.73,752.42 C2574.75,752.42 2576.45,751.636 2577.85,750.069 C2579.24,748.501 2579.93,746.571 2579.93,744.28 C2579.93,742.853 2579.68,741.592 2579.19,740.498 C2578.69,739.405 2578.06,738.558 2577.29,737.959 C2576.52,737.36 2575.6,736.871 2574.54,736.491 C2573.48,736.11 2572.48,735.866 2571.55,735.756 C2570.62,735.647 2569.61,735.592 2568.54,735.592 L2568.54,734.873 C2569.79,734.436 2570.87,734.006 2571.77,733.584 C2572.67,733.162 2573.61,732.592 2574.6,731.873 C2575.59,731.155 2576.35,730.282 2576.88,729.256 C2577.42,728.23 2577.68,727.061 2577.68,725.748 C2577.68,724.019 2577.12,722.605 2576,721.506 C2574.88,720.407 2573.43,719.858 2571.63,719.858 C2569.9,719.858 2568.39,720.324 2567.09,721.256 C2565.79,722.188 2564.57,723.665 2563.43,725.686 L2562.6,725.467 C2563.56,722.863 2564.86,720.728 2566.49,719.061 C2568.12,717.394 2570.44,716.561 2573.45,716.561 C2575.98,716.561 2578.04,717.256 2579.63,718.647 C2581.23,720.037 2582.02,721.853 2582.02,724.092 C2582.02,725.592 2581.64,726.91 2580.87,728.045 C2580.1,729.181 2578.76,730.394 2576.85,731.686 C2579.05,732.634 2580.77,733.847 2582.02,735.326 C2583.26,736.806 2583.88,738.915 2583.88,741.655 C2583.88,745.55 2582.45,748.665 2579.57,750.998 C2576.7,753.332 2573.08,754.498 2568.71,754.498 C2566.81,754.498 2565.29,754.214 2564.17,753.647 C2563.05,753.079 2562.49,752.321 2562.49,751.373 C2562.49,750.78 2562.69,750.308 2563.07,749.959 C2563.46,749.61 2563.96,749.436 2564.59,749.436"/>
<path class="Lyrics" d="M1725.74,717.326 L1725.74,718.201 L1714.08,754.17 L1710.51,754.17 L1721.4,721.342 L1709.46,721.342 C1707.96,721.342 1706.82,721.618 1706.03,722.17 C1705.24,722.722 1704.26,723.936 1703.08,725.811 L1702.15,725.358 L1705.4,717.326 L1725.74,717.326 "/>
<path class="Lyrics" d="M897.651,739.764 L911.182,739.764 L911.182,743.061 L897.651,743.061 L897.651,739.764 M933.448,742.92 C933.448,740.962 933.018,739.225 932.159,737.709 C931.299,736.194 930.255,735.019 929.026,734.186 C927.797,733.353 926.422,732.668 924.901,732.131 C923.38,731.595 922.06,731.243 920.94,731.076 C919.82,730.91 918.838,730.826 917.995,730.826 C917.557,730.826 917.338,730.681 917.338,730.389 C917.338,730.274 917.359,730.186 917.401,730.123 L923.385,717.326 L934.885,717.326 C935.469,717.326 935.935,717.235 936.284,717.053 C936.633,716.871 937.01,716.488 937.417,715.905 L937.917,716.28 L935.823,720.889 C935.677,721.191 935.255,721.342 934.557,721.342 L923.776,721.342 L921.463,726.061 C926.818,727.019 930.797,728.582 933.401,730.748 C936.005,732.915 937.307,736.087 937.307,740.264 C937.307,742.451 936.969,744.397 936.292,746.1 C935.614,747.803 934.752,749.175 933.706,750.217 C932.659,751.259 931.448,752.113 930.073,752.78 C928.698,753.446 927.377,753.899 926.112,754.139 C924.846,754.379 923.573,754.498 922.292,754.498 C920.239,754.498 918.609,754.196 917.401,753.592 C916.193,752.988 915.588,752.155 915.588,751.092 C915.588,749.738 916.375,749.061 917.948,749.061 C918.979,749.061 920.31,749.621 921.94,750.741 C923.57,751.86 924.859,752.42 925.807,752.42 C927.974,752.42 929.789,751.504 931.252,749.67 C932.716,747.837 933.448,745.587 933.448,742.92"/>
<path class="Lyrics" d="M768.056,742.92 C768.056,740.962 767.626,739.225 766.767,737.709 C765.908,736.194 764.863,735.019 763.634,734.186 C762.405,733.353 761.03,732.668 759.509,732.131 C757.988,731.595 756.668,731.243 755.548,731.076 C754.428,730.91 753.447,730.826 752.603,730.826 C752.165,730.826 751.947,730.681 751.947,730.389 C751.947,730.274 751.968,730.186 752.009,730.123 L757.994,717.326 L769.494,717.326 C770.077,717.326 770.543,717.235 770.892,717.053 C771.241,716.871 771.619,716.488 772.025,715.905 L772.525,716.28 L770.431,720.889 C770.285,721.191 769.863,721.342 769.165,721.342 L758.384,721.342 L756.072,726.061 C761.426,727.019 765.405,728.582 768.009,730.748 C770.613,732.915 771.915,736.087 771.915,740.264 C771.915,742.451 771.577,744.397 770.9,746.1 C770.223,747.803 769.361,749.175 768.314,750.217 C767.267,751.259 766.056,752.113 764.681,752.78 C763.306,753.446 761.986,753.899 760.72,754.139 C759.455,754.379 758.181,754.498 756.9,754.498 C754.848,754.498 753.218,754.196 752.009,753.592 C750.801,752.988 750.197,752.155 750.197,751.092 C750.197,749.738 750.983,749.061 752.556,749.061 C753.587,749.061 754.918,749.621 756.548,750.741 C758.178,751.86 759.468,752.42 760.415,752.42 C762.582,752.42 764.397,751.504 765.861,749.67 C767.324,747.837 768.056,745.587 768.056,742.92"/>
<path class="Lyrics" d="M2681.95,749.436 C2682.8,749.436 2684.05,749.933 2685.72,750.928 C2687.38,751.923 2688.84,752.42 2690.09,752.42 C2692.11,752.42 2693.82,751.636 2695.21,750.069 C2696.6,748.501 2697.3,746.571 2697.3,744.28 C2697.3,742.853 2697.05,741.592 2696.55,740.498 C2696.06,739.405 2695.43,738.558 2694.65,737.959 C2693.88,737.36 2692.97,736.871 2691.9,736.491 C2690.84,736.11 2689.84,735.866 2688.91,735.756 C2687.98,735.647 2686.98,735.592 2685.9,735.592 L2685.9,734.873 C2687.15,734.436 2688.23,734.006 2689.13,733.584 C2690.03,733.162 2690.98,732.592 2691.97,731.873 C2692.96,731.155 2693.72,730.282 2694.25,729.256 C2694.78,728.23 2695.05,727.061 2695.05,725.748 C2695.05,724.019 2694.49,722.605 2693.37,721.506 C2692.25,720.407 2690.79,719.858 2689,719.858 C2687.27,719.858 2685.75,720.324 2684.45,721.256 C2683.15,722.188 2681.93,723.665 2680.8,725.686 L2679.97,725.467 C2680.93,722.863 2682.22,720.728 2683.85,719.061 C2685.48,717.394 2687.8,716.561 2690.81,716.561 C2693.34,716.561 2695.4,717.256 2697,718.647 C2698.59,720.037 2699.39,721.853 2699.39,724.092 C2699.39,725.592 2699,726.91 2698.23,728.045 C2697.46,729.181 2696.12,730.394 2694.22,731.686 C2696.42,732.634 2698.14,733.847 2699.38,735.326 C2700.63,736.806 2701.25,738.915 2701.25,741.655 C2701.25,745.55 2699.81,748.665 2696.94,750.998 C2694.06,753.332 2690.44,754.498 2686.08,754.498 C2684.17,754.498 2682.66,754.214 2681.54,753.647 C2680.42,753.079 2679.86,752.321 2679.86,751.373 C2679.86,750.78 2680.05,750.308 2680.44,749.959 C2680.82,749.61 2681.33,749.436 2681.95,749.436"/>
<path class="Lyrics" d="M2373.38,739.764 L2386.91,739.764 L2386.91,743.061 L2373.38,743.061 L2373.38,739.764 M2394.01,749.436 C2394.85,749.436 2396.11,749.933 2397.77,750.928 C2399.44,751.923 2400.9,752.42 2402.15,752.42 C2404.17,752.42 2405.88,751.636 2407.27,750.069 C2408.66,748.501 2409.35,746.571 2409.35,744.28 C2409.35,742.853 2409.1,741.592 2408.61,740.498 C2408.11,739.405 2407.48,738.558 2406.71,737.959 C2405.94,737.36 2405.02,736.871 2403.96,736.491 C2402.9,736.11 2401.9,735.866 2400.97,735.756 C2400.04,735.647 2399.03,735.592 2397.96,735.592 L2397.96,734.873 C2399.21,734.436 2400.29,734.006 2401.19,733.584 C2402.09,733.162 2403.03,732.592 2404.02,731.873 C2405.01,731.155 2405.77,730.282 2406.3,729.256 C2406.84,728.23 2407.1,727.061 2407.1,725.748 C2407.1,724.019 2406.54,722.605 2405.42,721.506 C2404.3,720.407 2402.85,719.858 2401.05,719.858 C2399.33,719.858 2397.81,720.324 2396.51,721.256 C2395.21,722.188 2393.99,723.665 2392.85,725.686 L2392.02,725.467 C2392.98,722.863 2394.28,720.728 2395.91,719.061 C2397.54,717.394 2399.86,716.561 2402.87,716.561 C2405.4,716.561 2407.46,717.256 2409.05,718.647 C2410.65,720.037 2411.45,721.853 2411.45,724.092 C2411.45,725.592 2411.06,726.91 2410.29,728.045 C2409.52,729.181 2408.18,730.394 2406.27,731.686 C2408.47,732.634 2410.19,733.847 2411.44,735.326 C2412.68,736.806 2413.3,738.915 2413.3,741.655 C2413.3,745.55 2411.87,748.665 2408.99,750.998 C2406.12,753.332 2402.5,754.498 2398.13,754.498 C2396.23,754.498 2394.71,754.214 2393.59,753.647 C2392.47,753.079 2391.91,752.321 2391.91,751.373 C2391.91,750.78 2392.11,750.308 2392.49,749.959 C2392.88,749.61 2393.38,749.436 2394.01,749.436 M2428.82,737.076 C2428.82,736.712 2429.07,735.733 2429.56,734.139 C2430.06,732.545 2430.3,730.701 2430.3,728.608 C2428.88,729.493 2427.71,730.451 2426.79,731.483 C2425.87,732.514 2425.19,733.264 2424.73,733.733 C2424.27,734.201 2423.64,734.436 2422.84,734.436 C2421.51,734.436 2420.85,733.785 2420.85,732.483 C2420.85,731.847 2421.09,731.373 2421.56,731.061 C2422.04,730.748 2422.62,730.527 2423.32,730.397 C2424.02,730.267 2425,729.972 2426.27,729.514 C2427.53,729.056 2428.75,728.483 2429.93,727.795 C2428.49,727.066 2426.94,726.501 2425.27,726.1 C2423.61,725.699 2422.45,725.334 2421.81,725.006 C2421.17,724.678 2420.85,724.076 2420.85,723.201 C2420.85,722.649 2421.03,722.183 2421.4,721.803 C2421.76,721.423 2422.21,721.233 2422.73,721.233 C2423.31,721.233 2423.83,721.397 2424.29,721.725 C2424.75,722.053 2425.14,722.454 2425.47,722.928 C2425.8,723.402 2426.39,724.022 2427.26,724.787 C2428.12,725.553 2429.14,726.28 2430.3,726.967 C2430.3,724.884 2430.08,723.035 2429.62,721.42 C2429.16,719.806 2428.93,718.816 2428.93,718.451 C2428.93,717.899 2429.11,717.441 2429.48,717.076 C2429.85,716.712 2430.31,716.53 2430.86,716.53 C2431.41,716.53 2431.87,716.722 2432.26,717.108 C2432.64,717.493 2432.84,717.978 2432.84,718.561 C2432.84,719.04 2432.59,720.04 2432.09,721.561 C2431.6,723.082 2431.35,724.92 2431.35,727.076 C2432.63,726.274 2433.76,725.355 2434.73,724.319 C2435.71,723.282 2436.46,722.491 2436.99,721.944 C2437.52,721.397 2438.12,721.123 2438.77,721.123 C2439.37,721.123 2439.85,721.324 2440.21,721.725 C2440.58,722.126 2440.76,722.634 2440.76,723.248 C2440.76,724.019 2440.39,724.569 2439.66,724.897 C2438.92,725.225 2437.75,725.616 2436.13,726.069 C2434.52,726.522 2433.07,727.113 2431.79,727.842 C2432.89,728.54 2434.07,729.097 2435.31,729.514 C2436.56,729.931 2437.54,730.194 2438.25,730.303 C2438.96,730.412 2439.57,730.634 2440.06,730.967 C2440.56,731.3 2440.8,731.785 2440.8,732.42 C2440.8,733.056 2440.63,733.558 2440.29,733.928 C2439.95,734.298 2439.48,734.483 2438.88,734.483 C2438.11,734.483 2437.47,734.251 2436.96,733.787 C2436.45,733.324 2435.71,732.563 2434.73,731.506 C2433.76,730.449 2432.63,729.483 2431.35,728.608 C2431.35,730.701 2431.61,732.563 2432.13,734.194 C2432.64,735.824 2432.9,736.733 2432.9,736.92 C2432.9,737.504 2432.69,738.017 2432.27,738.459 C2431.84,738.902 2431.34,739.123 2430.74,739.123 C2430.23,739.123 2429.78,738.92 2429.4,738.514 C2429.01,738.108 2428.82,737.629 2428.82,737.076"/>
<path class="Lyrics" d="M1045.37,754.498 C1041.68,754.498 1038.7,753.022 1036.44,750.069 C1034.19,747.116 1033.06,743.212 1033.06,738.358 C1033.06,736.858 1033.21,735.311 1033.5,733.717 C1033.79,732.123 1034.43,730.311 1035.42,728.28 C1036.41,726.248 1037.69,724.428 1039.27,722.819 C1040.85,721.209 1043.06,719.772 1045.9,718.506 C1048.74,717.241 1052.01,716.446 1055.72,716.123 L1055.83,716.998 C1051.49,717.696 1047.88,719.446 1044.98,722.248 C1042.09,725.05 1040.28,728.524 1039.55,732.67 C1041.27,731.691 1042.56,731.053 1043.44,730.756 C1044.33,730.459 1045.37,730.311 1046.58,730.311 C1049.73,730.311 1052.25,731.332 1054.12,733.373 C1055.99,735.415 1056.92,738.17 1056.92,741.639 C1056.92,745.431 1055.85,748.522 1053.7,750.912 C1051.56,753.303 1048.78,754.498 1045.37,754.498 M1044.5,732.733 C1042,732.733 1040.32,733.28 1039.46,734.373 C1038.6,735.467 1038.17,737.087 1038.17,739.233 C1038.17,743.462 1038.87,746.79 1040.26,749.217 C1041.65,751.644 1043.56,752.858 1045.98,752.858 C1047.92,752.858 1049.4,752.045 1050.43,750.42 C1051.46,748.795 1051.97,746.488 1051.97,743.498 C1051.97,740.071 1051.32,737.42 1050.02,735.545 C1048.71,733.67 1046.87,732.733 1044.5,732.733"/>
<path class="Lyrics" d="M2287.19,742.92 C2287.19,740.962 2286.76,739.225 2285.9,737.709 C2285.04,736.194 2284,735.019 2282.77,734.186 C2281.54,733.353 2280.16,732.668 2278.64,732.131 C2277.12,731.595 2275.8,731.243 2274.68,731.076 C2273.56,730.91 2272.58,730.826 2271.74,730.826 C2271.3,730.826 2271.08,730.681 2271.08,730.389 C2271.08,730.274 2271.1,730.186 2271.14,730.123 L2277.13,717.326 L2288.63,717.326 C2289.21,717.326 2289.68,717.235 2290.03,717.053 C2290.38,716.871 2290.75,716.488 2291.16,715.905 L2291.66,716.28 L2289.57,720.889 C2289.42,721.191 2289,721.342 2288.3,721.342 L2277.52,721.342 L2275.21,726.061 C2280.56,727.019 2284.54,728.582 2287.14,730.748 C2289.75,732.915 2291.05,736.087 2291.05,740.264 C2291.05,742.451 2290.71,744.397 2290.03,746.1 C2289.36,747.803 2288.5,749.175 2287.45,750.217 C2286.4,751.259 2285.19,752.113 2283.82,752.78 C2282.44,753.446 2281.12,753.899 2279.85,754.139 C2278.59,754.379 2277.32,754.498 2276.03,754.498 C2273.98,754.498 2272.35,754.196 2271.14,753.592 C2269.94,752.988 2269.33,752.155 2269.33,751.092 C2269.33,749.738 2270.12,749.061 2271.69,749.061 C2272.72,749.061 2274.05,749.621 2275.68,750.741 C2277.31,751.86 2278.6,752.42 2279.55,752.42 C2281.72,752.42 2283.53,751.504 2285,749.67 C2286.46,747.837 2287.19,745.587 2287.19,742.92"/>
<path class="Lyrics" d="M1177.92,739.764 L1191.45,739.764 L1191.45,743.061 L1177.92,743.061 L1177.92,739.764 M1208.28,754.498 C1204.58,754.498 1201.61,753.022 1199.35,750.069 C1197.1,747.116 1195.97,743.212 1195.97,738.358 C1195.97,736.858 1196.12,735.311 1196.41,733.717 C1196.7,732.123 1197.34,730.311 1198.33,728.28 C1199.32,726.248 1200.6,724.428 1202.18,722.819 C1203.76,721.209 1205.97,719.772 1208.81,718.506 C1211.64,717.241 1214.92,716.446 1218.63,716.123 L1218.74,716.998 C1214.4,717.696 1210.79,719.446 1207.89,722.248 C1205,725.05 1203.18,728.524 1202.45,732.67 C1204.17,731.691 1205.47,731.053 1206.35,730.756 C1207.23,730.459 1208.28,730.311 1209.49,730.311 C1212.64,730.311 1215.15,731.332 1217.02,733.373 C1218.89,735.415 1219.83,738.17 1219.83,741.639 C1219.83,745.431 1218.76,748.522 1216.61,750.912 C1214.46,753.303 1211.69,754.498 1208.28,754.498 M1207.41,732.733 C1204.91,732.733 1203.23,733.28 1202.37,734.373 C1201.51,735.467 1201.08,737.087 1201.08,739.233 C1201.08,743.462 1201.77,746.79 1203.16,749.217 C1204.56,751.644 1206.46,752.858 1208.89,752.858 C1210.83,752.858 1212.31,752.045 1213.34,750.42 C1214.36,748.795 1214.88,746.488 1214.88,743.498 C1214.88,740.071 1214.22,737.42 1212.92,735.545 C1211.62,733.67 1209.78,732.733 1207.41,732.733 M1233.36,737.076 C1233.36,736.712 1233.61,735.733 1234.1,734.139 C1234.6,732.545 1234.84,730.701 1234.84,728.608 C1233.42,729.493 1232.25,730.451 1231.33,731.483 C1230.41,732.514 1229.72,733.264 1229.27,733.733 C1228.81,734.201 1228.18,734.436 1227.38,734.436 C1226.05,734.436 1225.39,733.785 1225.39,732.483 C1225.39,731.847 1225.63,731.373 1226.1,731.061 C1226.58,730.748 1227.16,730.527 1227.86,730.397 C1228.56,730.267 1229.54,729.972 1230.81,729.514 C1232.07,729.056 1233.29,728.483 1234.47,727.795 C1233.03,727.066 1231.48,726.501 1229.81,726.1 C1228.15,725.699 1226.99,725.334 1226.35,725.006 C1225.71,724.678 1225.39,724.076 1225.39,723.201 C1225.39,722.649 1225.57,722.183 1225.94,721.803 C1226.3,721.423 1226.75,721.233 1227.27,721.233 C1227.85,721.233 1228.37,721.397 1228.83,721.725 C1229.29,722.053 1229.68,722.454 1230.01,722.928 C1230.34,723.402 1230.93,724.022 1231.8,724.787 C1232.66,725.553 1233.68,726.28 1234.84,726.967 C1234.84,724.884 1234.62,723.035 1234.16,721.42 C1233.7,719.806 1233.47,718.816 1233.47,718.451 C1233.47,717.899 1233.65,717.441 1234.02,717.076 C1234.39,716.712 1234.85,716.53 1235.4,716.53 C1235.95,716.53 1236.41,716.722 1236.8,717.108 C1237.18,717.493 1237.38,717.978 1237.38,718.561 C1237.38,719.04 1237.13,720.04 1236.63,721.561 C1236.14,723.082 1235.89,724.92 1235.89,727.076 C1237.17,726.274 1238.3,725.355 1239.27,724.319 C1240.25,723.282 1241,722.491 1241.53,721.944 C1242.06,721.397 1242.66,721.123 1243.31,721.123 C1243.91,721.123 1244.39,721.324 1244.75,721.725 C1245.12,722.126 1245.3,722.634 1245.3,723.248 C1245.3,724.019 1244.93,724.569 1244.2,724.897 C1243.46,725.225 1242.29,725.616 1240.67,726.069 C1239.06,726.522 1237.61,727.113 1236.33,727.842 C1237.43,728.54 1238.61,729.097 1239.85,729.514 C1241.1,729.931 1242.08,730.194 1242.79,730.303 C1243.5,730.412 1244.11,730.634 1244.6,730.967 C1245.1,731.3 1245.34,731.785 1245.34,732.42 C1245.34,733.056 1245.17,733.558 1244.83,733.928 C1244.49,734.298 1244.02,734.483 1243.42,734.483 C1242.65,734.483 1242.01,734.251 1241.5,733.787 C1240.99,733.324 1240.25,732.563 1239.27,731.506 C1238.3,730.449 1237.17,729.483 1235.89,728.608 C1235.89,730.701 1236.15,732.563 1236.66,734.194 C1237.18,735.824 1237.44,736.733 1237.44,736.92 C1237.44,737.504 1237.23,738.017 1236.81,738.459 C1236.38,738.902 1235.88,739.123 1235.28,739.123 C1234.77,739.123 1234.32,738.92 1233.94,738.514 C1233.55,738.108 1233.36,737.629 1233.36,737.076"/>
<path class="Lyrics" d="M2103.63,739.764 L2117.16,739.764 L2117.16,743.061 L2103.63,743.061 L2103.63,739.764 M2139.42,742.92 C2139.42,740.962 2138.99,739.225 2138.13,737.709 C2137.28,736.194 2136.23,735.019 2135,734.186 C2133.77,733.353 2132.4,732.668 2130.88,732.131 C2129.36,731.595 2128.04,731.243 2126.92,731.076 C2125.8,730.91 2124.81,730.826 2123.97,730.826 C2123.53,730.826 2123.31,730.681 2123.31,730.389 C2123.31,730.274 2123.34,730.186 2123.38,730.123 L2129.36,717.326 L2140.86,717.326 C2141.44,717.326 2141.91,717.235 2142.26,717.053 C2142.61,716.871 2142.99,716.488 2143.39,715.905 L2143.89,716.28 L2141.8,720.889 C2141.65,721.191 2141.23,721.342 2140.53,721.342 L2129.75,721.342 L2127.44,726.061 C2132.79,727.019 2136.77,728.582 2139.38,730.748 C2141.98,732.915 2143.28,736.087 2143.28,740.264 C2143.28,742.451 2142.94,744.397 2142.27,746.1 C2141.59,747.803 2140.73,749.175 2139.68,750.217 C2138.63,751.259 2137.42,752.113 2136.05,752.78 C2134.67,753.446 2133.35,753.899 2132.09,754.139 C2130.82,754.379 2129.55,754.498 2128.27,754.498 C2126.22,754.498 2124.59,754.196 2123.38,753.592 C2122.17,752.988 2121.56,752.155 2121.56,751.092 C2121.56,749.738 2122.35,749.061 2123.92,749.061 C2124.96,749.061 2126.29,749.621 2127.92,750.741 C2129.55,751.86 2130.84,752.42 2131.78,752.42 C2133.95,752.42 2135.76,751.504 2137.23,749.67 C2138.69,747.837 2139.42,745.587 2139.42,742.92"/>
<path class="Lyrics" d="M1350.15,717.326 L1350.15,718.201 L1338.49,754.17 L1334.91,754.17 L1345.8,721.342 L1333.87,721.342 C1332.37,721.342 1331.22,721.618 1330.44,722.17 C1329.65,722.722 1328.67,723.936 1327.49,725.811 L1326.55,725.358 L1329.8,717.326 L1350.15,717.326 "/>
<path class="Lyrics" d="M447.8,739.764 L461.331,739.764 L461.331,743.061 L447.8,743.061 L447.8,739.764 M468.425,749.436 C469.269,749.436 470.524,749.933 472.191,750.928 C473.857,751.923 475.316,752.42 476.566,752.42 C478.586,752.42 480.292,751.636 481.683,750.069 C483.073,748.501 483.769,746.571 483.769,744.28 C483.769,742.853 483.521,741.592 483.027,740.498 C482.532,739.405 481.899,738.558 481.128,737.959 C480.357,737.36 479.441,736.871 478.378,736.491 C477.316,736.11 476.318,735.866 475.386,735.756 C474.454,735.647 473.451,735.592 472.378,735.592 L472.378,734.873 C473.628,734.436 474.704,734.006 475.605,733.584 C476.506,733.162 477.451,732.592 478.441,731.873 C479.43,731.155 480.191,730.282 480.722,729.256 C481.253,728.23 481.519,727.061 481.519,725.748 C481.519,724.019 480.959,722.605 479.839,721.506 C478.719,720.407 477.264,719.858 475.472,719.858 C473.743,719.858 472.227,720.324 470.925,721.256 C469.623,722.188 468.404,723.665 467.269,725.686 L466.441,725.467 C467.399,722.863 468.693,720.728 470.323,719.061 C471.954,717.394 474.274,716.561 477.284,716.561 C479.816,716.561 481.878,717.256 483.472,718.647 C485.066,720.037 485.862,721.853 485.862,724.092 C485.862,725.592 485.477,726.91 484.706,728.045 C483.935,729.181 482.597,730.394 480.691,731.686 C482.889,732.634 484.61,733.847 485.855,735.326 C487.099,736.806 487.722,738.915 487.722,741.655 C487.722,745.55 486.284,748.665 483.409,750.998 C480.534,753.332 476.915,754.498 472.55,754.498 C470.644,754.498 469.131,754.214 468.011,753.647 C466.891,753.079 466.331,752.321 466.331,751.373 C466.331,750.78 466.524,750.308 466.909,749.959 C467.295,749.61 467.8,749.436 468.425,749.436"/>
<path class="Lyrics" d="M1998,754.498 C1994.3,754.498 1991.32,753.022 1989.07,750.069 C1986.81,747.116 1985.68,743.212 1985.68,738.358 C1985.68,736.858 1985.83,735.311 1986.12,733.717 C1986.41,732.123 1987.05,730.311 1988.04,728.28 C1989.03,726.248 1990.32,724.428 1991.9,722.819 C1993.47,721.209 1995.68,719.772 1998.52,718.506 C2001.36,717.241 2004.63,716.446 2008.34,716.123 L2008.45,716.998 C2004.12,717.696 2000.5,719.446 1997.61,722.248 C1994.71,725.05 1992.9,728.524 1992.17,732.67 C1993.89,731.691 1995.19,731.053 1996.07,730.756 C1996.95,730.459 1997.99,730.311 1999.2,730.311 C2002.36,730.311 2004.87,731.332 2006.74,733.373 C2008.61,735.415 2009.54,738.17 2009.54,741.639 C2009.54,745.431 2008.47,748.522 2006.33,750.912 C2004.18,753.303 2001.4,754.498 1998,754.498 M1997.12,732.733 C1994.62,732.733 1992.94,733.28 1992.08,734.373 C1991.22,735.467 1990.79,737.087 1990.79,739.233 C1990.79,743.462 1991.49,746.79 1992.88,749.217 C1994.27,751.644 1996.18,752.858 1998.61,752.858 C2000.54,752.858 2002.03,752.045 2003.05,750.42 C2004.08,748.795 2004.59,746.488 2004.59,743.498 C2004.59,740.071 2003.94,737.42 2002.64,735.545 C2001.34,733.67 1999.5,732.733 1997.12,732.733"/>
<path class="Lyrics" d="M332.436,749.436 C333.279,749.436 334.535,749.933 336.201,750.928 C337.868,751.923 339.326,752.42 340.576,752.42 C342.597,752.42 344.303,751.636 345.693,750.069 C347.084,748.501 347.779,746.571 347.779,744.28 C347.779,742.853 347.532,741.592 347.037,740.498 C346.542,739.405 345.91,738.558 345.139,737.959 C344.368,737.36 343.451,736.871 342.389,736.491 C341.326,736.11 340.329,735.866 339.397,735.756 C338.464,735.647 337.462,735.592 336.389,735.592 L336.389,734.873 C337.639,734.436 338.714,734.006 339.615,733.584 C340.516,733.162 341.462,732.592 342.451,731.873 C343.441,731.155 344.201,730.282 344.732,729.256 C345.264,728.23 345.529,727.061 345.529,725.748 C345.529,724.019 344.969,722.605 343.85,721.506 C342.73,720.407 341.274,719.858 339.482,719.858 C337.753,719.858 336.238,720.324 334.936,721.256 C333.634,722.188 332.415,723.665 331.279,725.686 L330.451,725.467 C331.41,722.863 332.704,720.728 334.334,719.061 C335.964,717.394 338.285,716.561 341.295,716.561 C343.826,716.561 345.889,717.256 347.482,718.647 C349.076,720.037 349.873,721.853 349.873,724.092 C349.873,725.592 349.488,726.91 348.717,728.045 C347.946,729.181 346.607,730.394 344.701,731.686 C346.899,732.634 348.621,733.847 349.865,735.326 C351.11,736.806 351.732,738.915 351.732,741.655 C351.732,745.55 350.295,748.665 347.42,750.998 C344.545,753.332 340.925,754.498 336.561,754.498 C334.654,754.498 333.141,754.214 332.022,753.647 C330.902,753.079 330.342,752.321 330.342,751.373 C330.342,750.78 330.535,750.308 330.92,749.959 C331.305,749.61 331.811,749.436 332.436,749.436"/>
<path class="Lyrics" d="M1806.87,739.764 L1820.4,739.764 L1820.4,743.061 L1806.87,743.061 L1806.87,739.764 M1837.23,754.498 C1833.53,754.498 1830.56,753.022 1828.3,750.069 C1826.05,747.116 1824.92,743.212 1824.92,738.358 C1824.92,736.858 1825.06,735.311 1825.36,733.717 C1825.65,732.123 1826.29,730.311 1827.28,728.28 C1828.27,726.248 1829.55,724.428 1831.13,722.819 C1832.71,721.209 1834.92,719.772 1837.75,718.506 C1840.59,717.241 1843.87,716.446 1847.57,716.123 L1847.68,716.998 C1843.35,717.696 1839.74,719.446 1836.84,722.248 C1833.94,725.05 1832.13,728.524 1831.4,732.67 C1833.12,731.691 1834.42,731.053 1835.3,730.756 C1836.18,730.459 1837.23,730.311 1838.43,730.311 C1841.59,730.311 1844.1,731.332 1845.97,733.373 C1847.84,735.415 1848.78,738.17 1848.78,741.639 C1848.78,745.431 1847.7,748.522 1845.56,750.912 C1843.41,753.303 1840.64,754.498 1837.23,754.498 M1836.36,732.733 C1833.86,732.733 1832.18,733.28 1831.32,734.373 C1830.46,735.467 1830.03,737.087 1830.03,739.233 C1830.03,743.462 1830.72,746.79 1832.11,749.217 C1833.5,751.644 1835.41,752.858 1837.84,752.858 C1839.78,752.858 1841.26,752.045 1842.28,750.42 C1843.31,748.795 1843.82,746.488 1843.82,743.498 C1843.82,740.071 1843.17,737.42 1841.87,735.545 C1840.57,733.67 1838.73,732.733 1836.36,732.733 M1862.31,737.076 C1862.31,736.712 1862.56,735.733 1863.05,734.139 C1863.55,732.545 1863.79,730.701 1863.79,728.608 C1862.37,729.493 1861.19,730.451 1860.28,731.483 C1859.36,732.514 1858.67,733.264 1858.21,733.733 C1857.76,734.201 1857.13,734.436 1856.32,734.436 C1855,734.436 1854.34,733.785 1854.34,732.483 C1854.34,731.847 1854.58,731.373 1855.05,731.061 C1855.52,730.748 1856.11,730.527 1856.81,730.397 C1857.51,730.267 1858.49,729.972 1859.75,729.514 C1861.02,729.056 1862.24,728.483 1863.42,727.795 C1861.98,727.066 1860.43,726.501 1858.76,726.1 C1857.09,725.699 1855.94,725.334 1855.3,725.006 C1854.66,724.678 1854.34,724.076 1854.34,723.201 C1854.34,722.649 1854.52,722.183 1854.89,721.803 C1855.25,721.423 1855.69,721.233 1856.21,721.233 C1856.8,721.233 1857.32,721.397 1857.78,721.725 C1858.24,722.053 1858.63,722.454 1858.96,722.928 C1859.28,723.402 1859.88,724.022 1860.75,724.787 C1861.61,725.553 1862.63,726.28 1863.79,726.967 C1863.79,724.884 1863.56,723.035 1863.11,721.42 C1862.65,719.806 1862.42,718.816 1862.42,718.451 C1862.42,717.899 1862.6,717.441 1862.97,717.076 C1863.34,716.712 1863.8,716.53 1864.35,716.53 C1864.89,716.53 1865.36,716.722 1865.75,717.108 C1866.13,717.493 1866.32,717.978 1866.32,718.561 C1866.32,719.04 1866.08,720.04 1865.58,721.561 C1865.09,723.082 1864.84,724.92 1864.84,727.076 C1866.12,726.274 1867.25,725.355 1868.22,724.319 C1869.2,723.282 1869.95,722.491 1870.48,721.944 C1871.01,721.397 1871.61,721.123 1872.26,721.123 C1872.86,721.123 1873.33,721.324 1873.7,721.725 C1874.06,722.126 1874.25,722.634 1874.25,723.248 C1874.25,724.019 1873.88,724.569 1873.14,724.897 C1872.41,725.225 1871.24,725.616 1869.62,726.069 C1868.01,726.522 1866.56,727.113 1865.28,727.842 C1866.38,728.54 1867.56,729.097 1868.8,729.514 C1870.05,729.931 1871.02,730.194 1871.74,730.303 C1872.45,730.412 1873.06,730.634 1873.55,730.967 C1874.05,731.3 1874.29,731.785 1874.29,732.42 C1874.29,733.056 1874.12,733.558 1873.78,733.928 C1873.43,734.298 1872.96,734.483 1872.37,734.483 C1871.6,734.483 1870.96,734.251 1870.45,733.787 C1869.94,733.324 1869.2,732.563 1868.22,731.506 C1867.25,730.449 1866.12,729.483 1864.84,728.608 C1864.84,730.701 1865.1,732.563 1865.61,734.194 C1866.13,735.824 1866.39,736.733 1866.39,736.92 C1866.39,737.504 1866.18,738.017 1865.75,738.459 C1865.33,738.902 1864.82,739.123 1864.23,739.123 C1863.72,739.123 1863.27,738.92 1862.89,738.514 C1862.5,738.108 1862.31,737.629 1862.31,737.076"/>
</svg>
