<?xml version="1.0" encoding="UTF-8" standalone="no"?>
<svg width="2977.2px" height="4208.4px" viewBox="0 0 2977.2 4208.4"
 xmlns="http://www.w3.org/2000/svg" xmlns:xlink="http://www.w3.org/1999/xlink" version="1.2" baseProfile="tiny">
<title>C_Major_Scale_Patterns_9.mscx</title>
<desc>Generated by MuseScore Studio 4.3.1</desc>
<path class="" fill="#ffffff" fill-rule="evenodd" d="M0,0 L2977.2,0 L2977.2,4208.4 L0,4208.4 L0,0 "/>
<polyline class="StaffLines" fill="none" stroke="#000000" stroke-width="2.00" stroke-linejoin="bevel" points="141.732,566.733 2835.47,566.733"/>
<polyline class="StaffLines" fill="none" stroke="#000000" stroke-width="2.00" stroke-linejoin="bevel" points="141.732,591.733 2835.47,591.733"/>
<polyline class="StaffLines" fill="none" stroke="#000000" stroke-width="2.00" stroke-linejoin="bevel" points="141.732,616.733 2835.47,616.733"/>
<polyline class="StaffLines" fill="none" stroke="#000000" stroke-width="2.00" stroke-linejoin="bevel" points="141.732,641.733 2835.47,641.733"/>
<polyline class="StaffLines" fill="none" stroke="#000000" stroke-width="2.00" stroke-linejoin="bevel" points="141.732,666.733 2835.47,666.733"/>
<polyline class="BarLine" fill="none" stroke="#000000" stroke-width="4.00" stroke-linejoin="bevel" points="1972.47,565.733 1972.47,667.733"/>
<polyline class="BarLine" fill="none" stroke="#000000" stroke-width="4.00" stroke-linejoin="bevel" points="2802.72,565.733 2802.72,667.733"/>
<polyline class="BarLine" fill="none" stroke="#000000" stroke-width="12.50" stroke-linejoin="bevel" points="2829.22,565.733 2829.22,667.733"/>
<polyline class="BarLine" fill="none" stroke="#000000" stroke-width="4.00" stroke-linejoin="bevel" points="1557.34,565.733 1557.34,667.733"/>
<polyline class="BarLine" fill="none" stroke="#000000" stroke-width="4.00" stroke-linejoin="bevel" points="1142.22,565.733 1142.22,667.733"/>
<polyline class="BarLine" fill="none" stroke="#000000" stroke-width="4.00" stroke-linejoin="bevel" points="2387.59,565.733 2387.59,667.733"/>
<polyline class="BarLine" fill="none" stroke="#000000" stroke-width="4.00" stroke-linejoin="bevel" points="727.095,565.733 727.095,667.733"/>
<polyline class="Stem" fill="none" stroke="#000000" stroke-width="3.25" stroke-linejoin="bevel" points="755.72,609.133 755.72,685.483"/>
<polyline class="Stem" fill="none" stroke="#000000" stroke-width="3.25" stroke-linejoin="bevel" points="2001.09,584.133 2001.09,666.733"/>
<polyline class="Stem" fill="none" stroke="#000000" stroke-width="3.25" stroke-linejoin="bevel" points="1778.58,571.633 1778.58,654.233"/>
<polyline class="Stem" fill="none" stroke="#000000" stroke-width="3.25" stroke-linejoin="bevel" points="1585.97,559.133 1585.97,641.733"/>
<polyline class="Stem" fill="none" stroke="#000000" stroke-width="3.25" stroke-linejoin="bevel" points="2640.3,636.933 2640.3,554.233"/>
<polyline class="Stem" fill="none" stroke="#000000" stroke-width="3.25" stroke-linejoin="bevel" points="2193.71,596.633 2193.71,679.233"/>
<polyline class="Stem" fill="none" stroke="#000000" stroke-width="3.25" stroke-linejoin="bevel" points="1363.46,571.633 1363.46,654.233"/>
<polyline class="Stem" fill="none" stroke="#000000" stroke-width="3.25" stroke-linejoin="bevel" points="1170.84,584.133 1170.84,666.733"/>
<polyline class="Stem" fill="none" stroke="#000000" stroke-width="3.25" stroke-linejoin="bevel" points="372.065,636.933 372.065,554.233"/>
<polyline class="Stem" fill="none" stroke="#000000" stroke-width="3.25" stroke-linejoin="bevel" points="533.207,621.633 533.207,691.733"/>
<polyline class="Stem" fill="none" stroke="#000000" stroke-width="3.25" stroke-linejoin="bevel" points="948.331,596.633 948.331,679.233"/>
<polyline class="Stem" fill="none" stroke="#000000" stroke-width="3.25" stroke-linejoin="bevel" points="2416.22,609.133 2416.22,685.483"/>
<path class="Note" d="M2199.5,602.373 C2201.39,602.373 2205.34,600.42 2211.37,596.514 C2217.4,592.608 2220.94,589.988 2222.02,588.655 C2223.09,587.321 2223.63,586.134 2223.63,585.092 C2223.63,584.05 2223.2,583.123 2222.35,582.311 C2221.5,581.498 2220.53,581.092 2219.42,581.092 C2217.48,581.092 2213.49,583.061 2207.46,586.998 C2201.44,590.936 2197.9,593.556 2196.86,594.858 C2195.82,596.16 2195.3,597.332 2195.3,598.373 C2195.3,599.415 2195.71,600.342 2196.53,601.155 C2197.34,601.967 2198.34,602.373 2199.5,602.373 M2218.46,577.967 C2224.05,577.967 2226.85,580.373 2226.85,585.186 C2226.85,587.53 2226.16,590.248 2224.8,593.342 C2223.43,596.436 2221.61,598.795 2219.33,600.42 C2214.32,603.806 2208.04,605.498 2200.49,605.498 C2194.88,605.498 2192.08,603.092 2192.08,598.28 C2192.08,596.134 2192.75,593.464 2194.08,590.272 C2195.41,587.079 2197.25,584.67 2199.6,583.045 C2204.62,579.66 2210.9,577.967 2218.46,577.967"/>
<path class="Note" d="M2614.63,652.373 C2616.51,652.373 2620.47,650.42 2626.49,646.514 C2632.52,642.608 2636.07,639.988 2637.14,638.655 C2638.22,637.321 2638.75,636.134 2638.75,635.092 C2638.75,634.05 2638.33,633.123 2637.48,632.311 C2636.63,631.498 2635.65,631.092 2634.55,631.092 C2632.6,631.092 2628.61,633.061 2622.59,636.998 C2616.56,640.936 2613.03,643.556 2611.99,644.858 C2610.94,646.16 2610.42,647.332 2610.42,648.373 C2610.42,649.415 2610.83,650.342 2611.65,651.155 C2612.47,651.967 2613.46,652.373 2614.63,652.373 M2633.58,627.967 C2639.17,627.967 2641.97,630.373 2641.97,635.186 C2641.97,637.53 2641.29,640.248 2639.92,643.342 C2638.56,646.436 2636.74,648.795 2634.45,650.42 C2629.44,653.806 2623.16,655.498 2615.61,655.498 C2610.01,655.498 2607.2,653.092 2607.2,648.28 C2607.2,646.134 2607.87,643.464 2609.2,640.272 C2610.54,637.079 2612.38,634.67 2614.72,633.045 C2619.74,629.66 2626.03,627.967 2633.58,627.967"/>
<path class="Note" d="M2422.02,614.873 C2423.9,614.873 2427.86,612.92 2433.88,609.014 C2439.91,605.108 2443.46,602.488 2444.53,601.155 C2445.6,599.821 2446.14,598.634 2446.14,597.592 C2446.14,596.55 2445.72,595.623 2444.87,594.811 C2444.02,593.998 2443.04,593.592 2441.94,593.592 C2439.99,593.592 2436,595.561 2429.98,599.498 C2423.95,603.436 2420.42,606.056 2419.38,607.358 C2418.33,608.66 2417.81,609.832 2417.81,610.873 C2417.81,611.915 2418.22,612.842 2419.04,613.655 C2419.86,614.467 2420.85,614.873 2422.02,614.873 M2440.97,590.467 C2446.56,590.467 2449.36,592.873 2449.36,597.686 C2449.36,600.03 2448.68,602.748 2447.31,605.842 C2445.95,608.936 2444.13,611.295 2441.84,612.92 C2436.83,616.306 2430.55,617.998 2423,617.998 C2417.4,617.998 2414.59,615.592 2414.59,610.78 C2414.59,608.634 2415.26,605.964 2416.59,602.772 C2417.93,599.579 2419.77,597.17 2422.11,595.545 C2427.13,592.16 2433.42,590.467 2440.97,590.467"/>
<path class="Note" d="M2006.89,589.873 C2008.78,589.873 2012.73,587.92 2018.76,584.014 C2024.78,580.108 2028.33,577.488 2029.41,576.155 C2030.48,574.821 2031.02,573.634 2031.02,572.592 C2031.02,571.55 2030.59,570.623 2029.74,569.811 C2028.89,568.998 2027.92,568.592 2026.81,568.592 C2024.86,568.592 2020.88,570.561 2014.85,574.498 C2008.83,578.436 2005.29,581.056 2004.25,582.358 C2003.21,583.66 2002.69,584.832 2002.69,585.873 C2002.69,586.915 2003.1,587.842 2003.91,588.655 C2004.73,589.467 2005.72,589.873 2006.89,589.873 M2025.84,565.467 C2031.44,565.467 2034.23,567.873 2034.23,572.686 C2034.23,575.03 2033.55,577.748 2032.19,580.842 C2030.82,583.936 2029,586.295 2026.72,587.92 C2021.71,591.306 2015.43,592.998 2007.88,592.998 C2002.27,592.998 1999.47,590.592 1999.47,585.78 C1999.47,583.634 2000.14,580.964 2001.47,577.772 C2002.8,574.579 2004.64,572.17 2006.98,570.545 C2012.01,567.16 2018.29,565.467 2025.84,565.467"/>
<path class="Note" d="M1369.25,577.373 C1371.14,577.373 1375.09,575.42 1381.12,571.514 C1387.15,567.608 1390.7,564.988 1391.77,563.655 C1392.84,562.321 1393.38,561.134 1393.38,560.092 C1393.38,559.05 1392.95,558.123 1392.1,557.311 C1391.26,556.498 1390.28,556.092 1389.17,556.092 C1387.23,556.092 1383.24,558.061 1377.21,561.998 C1371.19,565.936 1367.65,568.556 1366.61,569.858 C1365.57,571.16 1365.05,572.332 1365.05,573.373 C1365.05,574.415 1365.46,575.342 1366.28,576.155 C1367.09,576.967 1368.09,577.373 1369.25,577.373 M1388.21,552.967 C1393.8,552.967 1396.6,555.373 1396.6,560.186 C1396.6,562.53 1395.91,565.248 1394.55,568.342 C1393.19,571.436 1391.36,573.795 1389.08,575.42 C1384.07,578.806 1377.79,580.498 1370.24,580.498 C1364.63,580.498 1361.83,578.092 1361.83,573.28 C1361.83,571.134 1362.5,568.464 1363.83,565.272 C1365.16,562.079 1367,559.67 1369.35,558.045 C1374.37,554.66 1380.65,552.967 1388.21,552.967"/>
<path class="Note" d="M1784.38,577.373 C1786.26,577.373 1790.22,575.42 1796.24,571.514 C1802.27,567.608 1805.82,564.988 1806.89,563.655 C1807.97,562.321 1808.5,561.134 1808.5,560.092 C1808.5,559.05 1808.08,558.123 1807.23,557.311 C1806.38,556.498 1805.4,556.092 1804.3,556.092 C1802.35,556.092 1798.36,558.061 1792.34,561.998 C1786.31,565.936 1782.78,568.556 1781.74,569.858 C1780.7,571.16 1780.17,572.332 1780.17,573.373 C1780.17,574.415 1780.58,575.342 1781.4,576.155 C1782.22,576.967 1783.21,577.373 1784.38,577.373 M1803.33,552.967 C1808.92,552.967 1811.72,555.373 1811.72,560.186 C1811.72,562.53 1811.04,565.248 1809.67,568.342 C1808.31,571.436 1806.49,573.795 1804.21,575.42 C1799.2,578.806 1792.91,580.498 1785.36,580.498 C1779.76,580.498 1776.96,578.092 1776.96,573.28 C1776.96,571.134 1777.62,568.464 1778.96,565.272 C1780.29,562.079 1782.13,559.67 1784.47,558.045 C1789.49,554.66 1795.78,552.967 1803.33,552.967"/>
<path class="Note" d="M1591.77,564.873 C1593.65,564.873 1597.61,562.92 1603.63,559.014 C1609.66,555.108 1613.21,552.488 1614.28,551.154 C1615.35,549.821 1615.89,548.634 1615.89,547.592 C1615.89,546.55 1615.47,545.623 1614.62,544.811 C1613.77,543.998 1612.79,543.592 1611.69,543.592 C1609.74,543.592 1605.75,545.561 1599.73,549.498 C1593.7,553.436 1590.17,556.056 1589.13,557.358 C1588.08,558.66 1587.56,559.832 1587.56,560.873 C1587.56,561.915 1587.97,562.842 1588.79,563.654 C1589.61,564.467 1590.6,564.873 1591.77,564.873 M1610.72,540.467 C1616.31,540.467 1619.11,542.873 1619.11,547.686 C1619.11,550.029 1618.43,552.748 1617.06,555.842 C1615.7,558.936 1613.88,561.295 1611.59,562.92 C1606.58,566.306 1600.3,567.998 1592.75,567.998 C1587.15,567.998 1584.34,565.592 1584.34,560.779 C1584.34,558.634 1585.01,555.964 1586.34,552.772 C1587.68,549.579 1589.52,547.17 1591.86,545.545 C1596.88,542.16 1603.17,540.467 1610.72,540.467"/>
<path class="Note" d="M1176.64,589.873 C1178.53,589.873 1182.48,587.92 1188.51,584.014 C1194.54,580.108 1198.08,577.488 1199.16,576.155 C1200.23,574.821 1200.77,573.634 1200.77,572.592 C1200.77,571.55 1200.34,570.623 1199.49,569.811 C1198.64,568.998 1197.67,568.592 1196.56,568.592 C1194.62,568.592 1190.63,570.561 1184.6,574.498 C1178.58,578.436 1175.04,581.056 1174,582.358 C1172.96,583.66 1172.44,584.832 1172.44,585.873 C1172.44,586.915 1172.85,587.842 1173.67,588.655 C1174.48,589.467 1175.48,589.873 1176.64,589.873 M1195.59,565.467 C1201.19,565.467 1203.99,567.873 1203.99,572.686 C1203.99,575.03 1203.3,577.748 1201.94,580.842 C1200.57,583.936 1198.75,586.295 1196.47,587.92 C1191.46,591.306 1185.18,592.998 1177.63,592.998 C1172.02,592.998 1169.22,590.592 1169.22,585.78 C1169.22,583.634 1169.89,580.964 1171.22,577.772 C1172.55,574.579 1174.39,572.17 1176.74,570.545 C1181.76,567.16 1188.04,565.467 1195.59,565.467"/>
<path class="Note" d="M954.128,602.373 C956.014,602.373 959.97,600.42 965.996,596.514 C972.022,592.608 975.571,589.988 976.644,588.655 C977.717,587.321 978.253,586.134 978.253,585.092 C978.253,584.05 977.829,583.123 976.98,582.311 C976.131,581.498 975.154,581.092 974.05,581.092 C972.102,581.092 968.115,583.061 962.089,586.998 C956.063,590.936 952.529,593.556 951.488,594.858 C950.446,596.16 949.925,597.332 949.925,598.373 C949.925,599.415 950.334,600.342 951.152,601.155 C951.97,601.967 952.962,602.373 954.128,602.373 M973.081,577.967 C978.675,577.967 981.472,580.373 981.472,585.186 C981.472,587.53 980.79,590.248 979.425,593.342 C978.061,596.436 976.238,598.795 973.956,600.42 C968.946,603.806 962.665,605.498 955.113,605.498 C949.509,605.498 946.706,603.092 946.706,598.28 C946.706,596.134 947.373,593.464 948.706,590.272 C950.04,587.079 951.878,584.67 954.222,583.045 C959.243,579.66 965.529,577.967 973.081,577.967"/>
<path class="Note" d="M761.517,614.873 C763.403,614.873 767.358,612.92 773.384,609.014 C779.41,605.108 782.96,602.488 784.033,601.155 C785.106,599.821 785.642,598.634 785.642,597.592 C785.642,596.55 785.218,595.623 784.369,594.811 C783.52,593.998 782.543,593.592 781.439,593.592 C779.491,593.592 775.504,595.561 769.478,599.498 C763.452,603.436 759.918,606.056 758.877,607.358 C757.835,608.66 757.314,609.832 757.314,610.873 C757.314,611.915 757.723,612.842 758.541,613.655 C759.358,614.467 760.351,614.873 761.517,614.873 M780.47,590.467 C786.064,590.467 788.861,592.873 788.861,597.686 C788.861,600.03 788.179,602.748 786.814,605.842 C785.45,608.936 783.627,611.295 781.345,612.92 C776.335,616.306 770.054,617.998 762.502,617.998 C756.897,617.998 754.095,615.592 754.095,610.78 C754.095,608.634 754.762,605.964 756.095,602.772 C757.429,599.579 759.267,597.17 761.611,595.545 C766.632,592.16 772.918,590.467 780.47,590.467"/>
<path class="Note" d="M539.004,627.373 C540.889,627.373 544.845,625.42 550.871,621.514 C556.897,617.608 560.446,614.988 561.519,613.655 C562.592,612.321 563.129,611.134 563.129,610.092 C563.129,609.05 562.704,608.123 561.855,607.311 C561.006,606.498 560.03,606.092 558.926,606.092 C556.978,606.092 552.991,608.061 546.965,611.998 C540.939,615.936 537.405,618.556 536.363,619.858 C535.321,621.16 534.801,622.332 534.801,623.373 C534.801,624.415 535.209,625.342 536.027,626.155 C536.845,626.967 537.837,627.373 539.004,627.373 M557.957,602.967 C563.551,602.967 566.348,605.373 566.348,610.186 C566.348,612.53 565.665,615.248 564.301,618.342 C562.936,621.436 561.113,623.795 558.832,625.42 C553.821,628.806 547.54,630.498 539.988,630.498 C534.384,630.498 531.582,628.092 531.582,623.28 C531.582,621.134 532.249,618.464 533.582,615.272 C534.915,612.079 536.754,609.67 539.098,608.045 C544.118,604.66 550.405,602.967 557.957,602.967"/>
<path class="Note" d="M346.393,652.373 C348.278,652.373 352.234,650.42 358.26,646.514 C364.286,642.608 367.835,639.988 368.908,638.655 C369.981,637.321 370.518,636.134 370.518,635.092 C370.518,634.05 370.093,633.123 369.244,632.311 C368.395,631.498 367.419,631.092 366.315,631.092 C364.367,631.092 360.38,633.061 354.354,636.998 C348.328,640.936 344.794,643.556 343.752,644.858 C342.71,646.16 342.19,647.332 342.19,648.373 C342.19,649.415 342.598,650.342 343.416,651.155 C344.234,651.967 345.226,652.373 346.393,652.373 M365.346,627.967 C370.94,627.967 373.736,630.373 373.736,635.186 C373.736,637.53 373.054,640.248 371.69,643.342 C370.325,646.436 368.502,648.795 366.221,650.42 C361.21,653.806 354.929,655.498 347.377,655.498 C341.773,655.498 338.971,653.092 338.971,648.28 C338.971,646.134 339.637,643.464 340.971,640.272 C342.304,637.079 344.143,634.67 346.486,633.045 C351.507,629.66 357.794,627.967 365.346,627.967"/>
<path class="Clef" d="M203.623,673.858 L203.623,671.717 C203.56,670.613 203.399,668.889 203.139,666.545 C199.889,667.066 196.993,667.326 194.451,667.326 C185.337,667.326 177.605,663.727 171.256,656.53 C164.907,649.332 161.732,640.754 161.732,630.795 C161.732,628.129 162.253,624.923 163.295,621.178 C164.337,617.433 165.297,614.925 166.178,613.655 C167.058,612.384 168.378,610.155 170.139,606.967 C170.659,605.988 172.352,603.837 175.217,600.514 C175.738,599.806 176.193,599.222 176.584,598.764 C176.975,598.306 177.607,597.49 178.482,596.319 C179.357,595.147 180.3,594.056 181.31,593.045 C182.321,592.035 183.217,591.058 183.998,590.115 C184.779,589.173 185.498,588.379 186.154,587.733 C183.81,579.983 182.378,574.024 181.857,569.858 C181.337,565.691 181.076,560.579 181.076,554.522 C181.076,548.464 182.378,542.962 184.982,538.014 C187.514,532.879 191.06,528.681 195.623,525.42 C195.883,525.222 196.225,525.123 196.646,525.123 C197.068,525.123 197.378,525.222 197.576,525.42 C201.087,529.649 204.128,535.149 206.701,541.92 C209.274,548.691 210.56,555.024 210.56,560.92 C210.56,566.816 209.066,572.498 206.076,577.967 C202.691,583.759 198.326,589.748 192.982,595.936 C194.347,600.227 196.17,606.962 198.451,616.139 L199.045,616.139 C199.305,616.076 199.529,616.045 199.717,616.045 C207.081,616.045 213.089,618.634 217.74,623.811 C222.391,628.988 224.717,634.962 224.717,641.733 C224.717,650.129 221.238,656.899 214.279,662.045 C212.258,663.545 209.878,664.717 207.139,665.561 C207.472,669.79 207.639,672.605 207.639,674.006 C207.639,675.407 207.571,677.899 207.435,681.483 C207.373,687.597 205.29,692.837 201.185,697.201 C197.081,701.566 192.394,703.748 187.123,703.748 C181.852,703.748 177.36,701.876 173.646,698.131 C169.933,694.386 168.076,689.847 168.076,684.514 C168.076,681.712 169.154,679.332 171.31,677.373 C173.519,675.425 176.006,674.451 178.771,674.451 C181.537,674.451 183.8,675.462 185.56,677.483 C187.383,679.368 188.295,681.644 188.295,684.311 C188.295,686.977 187.383,689.222 185.56,691.045 C183.738,692.868 181.555,693.78 179.014,693.78 C177.972,693.78 176.967,693.587 175.998,693.201 C178.863,697.431 182.54,699.545 187.029,699.545 C191.519,699.545 195.36,697.691 198.553,693.983 C201.745,690.274 203.342,685.91 203.342,680.889 L203.623,673.858 M206.748,661.561 C210.133,660.321 212.821,658.123 214.81,654.967 C216.8,651.811 217.795,648.67 217.795,645.545 C217.795,640.92 216.199,636.785 213.006,633.139 C209.813,629.493 205.774,627.441 200.889,626.983 C203.691,640.722 205.644,652.248 206.748,661.561 M168.967,638.998 C168.967,645.446 171.537,651.079 176.678,655.897 C181.818,660.714 187.842,663.123 194.748,663.123 C197.477,663.123 200.144,662.925 202.748,662.53 C201.706,652.634 199.654,640.785 196.592,626.983 C192.758,627.379 189.782,628.699 187.662,630.944 C185.542,633.188 184.482,635.743 184.482,638.608 C184.482,643.556 187.123,647.561 192.404,650.623 C192.852,650.884 193.076,651.324 193.076,651.944 C193.076,652.563 192.865,653.1 192.443,653.553 C192.021,654.006 191.649,654.233 191.326,654.233 C191.003,654.233 190.581,654.17 190.06,654.045 C182.435,649.879 178.623,643.592 178.623,635.186 C178.623,631.217 180.024,627.41 182.826,623.764 C185.753,620.118 189.56,617.774 194.248,616.733 C192.425,609.441 190.93,603.743 189.764,599.639 C180.847,609.67 175.31,617.092 173.154,621.905 C170.363,628.155 168.967,633.852 168.967,638.998 M201.576,539.686 C196.691,542.092 192.834,545.574 190.006,550.131 C187.178,554.688 185.764,559.472 185.764,564.483 C185.764,569.493 186.935,575.972 189.279,583.92 C193.967,578.254 197.514,572.946 199.92,567.998 C202.326,563.05 203.529,558.152 203.529,553.303 C203.529,548.454 202.878,543.915 201.576,539.686"/>
<path class="TimeSig" d="M273.021,567.912 C274.516,567.912 275.949,567.686 277.318,567.233 C278.688,566.78 279.665,566.553 280.248,566.553 C280.831,566.553 281.222,566.907 281.42,567.615 C281.42,567.688 281.352,567.886 281.217,568.209 L252.811,601.225 L269.498,601.225 L269.498,588.131 C269.498,586.506 270.446,585.334 272.342,584.615 C274.29,583.897 276.503,581.001 278.982,575.928 C279.17,575.532 279.462,575.334 279.857,575.334 C280.639,575.334 281.092,575.793 281.217,576.709 L281.217,601.225 L288.357,601.225 C289.264,601.225 289.751,601.712 289.818,602.686 C289.886,603.66 289.399,604.147 288.357,604.147 L281.217,604.147 L281.217,604.928 C281.217,607.532 281.868,609.746 283.17,611.569 C284.67,613.391 286.43,614.303 288.451,614.303 C289.232,614.303 289.623,614.694 289.623,615.475 C289.623,616.256 289.087,616.647 288.014,616.647 C286.941,616.647 284.938,616.436 282.006,616.014 C279.074,615.592 276.811,615.381 275.217,615.381 C273.623,615.381 271.41,615.592 268.576,616.014 C265.743,616.436 263.613,616.647 262.186,616.647 C261.404,616.647 261.014,616.256 261.014,615.475 C261.014,614.694 261.404,614.303 262.186,614.303 C264.196,614.303 265.951,613.391 267.451,611.569 C268.816,609.683 269.498,607.47 269.498,604.928 L269.498,604.147 L252.811,604.147 C251.956,604.147 251.219,603.92 250.6,603.467 C249.98,603.014 249.67,602.592 249.67,602.201 C249.67,601.811 250.485,600.639 252.115,598.686 C253.745,596.733 256.074,592.972 259.1,587.405 C262.126,581.837 263.639,575.438 263.639,568.209 C263.639,567.168 264.097,566.647 265.014,566.647 C265.212,566.647 265.521,566.712 265.943,566.842 C266.365,566.972 267.277,567.183 268.678,567.475 C270.079,567.766 271.527,567.912 273.021,567.912"/>
<path class="TimeSig" d="M273.021,618.084 C274.516,618.084 275.949,617.858 277.318,617.405 C278.688,616.951 279.665,616.725 280.248,616.725 C280.831,616.725 281.222,617.079 281.42,617.787 C281.42,617.86 281.352,618.058 281.217,618.381 L252.811,651.397 L269.498,651.397 L269.498,638.303 C269.498,636.678 270.446,635.506 272.342,634.787 C274.29,634.069 276.503,631.173 278.982,626.1 C279.17,625.704 279.462,625.506 279.857,625.506 C280.639,625.506 281.092,625.964 281.217,626.881 L281.217,651.397 L288.357,651.397 C289.264,651.397 289.751,651.884 289.818,652.858 C289.886,653.832 289.399,654.319 288.357,654.319 L281.217,654.319 L281.217,655.1 C281.217,657.704 281.868,659.918 283.17,661.74 C284.67,663.563 286.43,664.475 288.451,664.475 C289.232,664.475 289.623,664.865 289.623,665.647 C289.623,666.428 289.087,666.819 288.014,666.819 C286.941,666.819 284.938,666.608 282.006,666.186 C279.074,665.764 276.811,665.553 275.217,665.553 C273.623,665.553 271.41,665.764 268.576,666.186 C265.743,666.608 263.613,666.819 262.186,666.819 C261.404,666.819 261.014,666.428 261.014,665.647 C261.014,664.865 261.404,664.475 262.186,664.475 C264.196,664.475 265.951,663.563 267.451,661.74 C268.816,659.855 269.498,657.642 269.498,655.1 L269.498,654.319 L252.811,654.319 C251.956,654.319 251.219,654.092 250.6,653.639 C249.98,653.186 249.67,652.764 249.67,652.373 C249.67,651.983 250.485,650.811 252.115,648.858 C253.745,646.905 256.074,643.144 259.1,637.576 C262.126,632.009 263.639,625.61 263.639,618.381 C263.639,617.339 264.097,616.819 265.014,616.819 C265.212,616.819 265.521,616.884 265.943,617.014 C266.365,617.144 267.277,617.355 268.678,617.647 C270.079,617.938 271.527,618.084 273.021,618.084"/>
</svg>
