<?xml version="1.0" encoding="UTF-8" standalone="no"?>
<svg width="2977.2px" height="4208.4px" viewBox="0 0 2977.2 4208.4"
 xmlns="http://www.w3.org/2000/svg" xmlns:xlink="http://www.w3.org/1999/xlink" version="1.2" baseProfile="tiny">
<title>Hot_Cross_Buns.mscx</title>
<desc>Generated by MuseScore Studio 4.3.1</desc>
<path class="" fill="#ffffff" fill-rule="evenodd" d="M0,0 L2977.2,0 L2977.2,4208.4 L0,4208.4 L0,0 "/>
<polyline class="StaffLines" fill="none" stroke="#000000" stroke-width="2.00" stroke-linejoin="bevel" points="141.732,566.733 2835.47,566.733"/>
<polyline class="StaffLines" fill="none" stroke="#000000" stroke-width="2.00" stroke-linejoin="bevel" points="141.732,591.733 2835.47,591.733"/>
<polyline class="StaffLines" fill="none" stroke="#000000" stroke-width="2.00" stroke-linejoin="bevel" points="141.732,616.733 2835.47,616.733"/>
<polyline class="StaffLines" fill="none" stroke="#000000" stroke-width="2.00" stroke-linejoin="bevel" points="141.732,641.733 2835.47,641.733"/>
<polyline class="StaffLines" fill="none" stroke="#000000" stroke-width="2.00" stroke-linejoin="bevel" points="141.732,666.733 2835.47,666.733"/>
<polyline class="StaffLines" fill="none" stroke="#000000" stroke-width="2.00" stroke-linejoin="bevel" points="141.732,1041.73 2835.47,1041.73"/>
<polyline class="StaffLines" fill="none" stroke="#000000" stroke-width="2.00" stroke-linejoin="bevel" points="141.732,1066.73 2835.47,1066.73"/>
<polyline class="StaffLines" fill="none" stroke="#000000" stroke-width="2.00" stroke-linejoin="bevel" points="141.732,1091.73 2835.47,1091.73"/>
<polyline class="StaffLines" fill="none" stroke="#000000" stroke-width="2.00" stroke-linejoin="bevel" points="141.732,1116.73 2835.47,1116.73"/>
<polyline class="StaffLines" fill="none" stroke="#000000" stroke-width="2.00" stroke-linejoin="bevel" points="141.732,1141.73 2835.47,1141.73"/>
<path class="MeasureNumber" d="M146.514,983.874 C146.514,982.446 146.199,981.181 145.568,980.077 C144.938,978.972 144.178,978.118 143.287,977.514 C142.396,976.91 141.399,976.413 140.295,976.022 C139.191,975.631 138.23,975.376 137.412,975.256 C136.594,975.137 135.883,975.077 135.279,975.077 C134.956,975.077 134.795,974.967 134.795,974.749 C134.795,974.676 134.805,974.613 134.826,974.561 L139.185,965.264 L147.545,965.264 C147.972,965.264 148.313,965.196 148.568,965.061 C148.824,964.926 149.097,964.644 149.389,964.217 L149.748,964.499 L148.232,967.842 C148.128,968.061 147.821,968.17 147.31,968.17 L139.467,968.17 L137.795,971.608 C141.68,972.306 144.571,973.441 146.467,975.014 C148.363,976.587 149.31,978.894 149.31,981.936 C149.31,983.53 149.063,984.946 148.568,986.186 C148.074,987.426 147.446,988.423 146.685,989.178 C145.925,989.933 145.045,990.553 144.045,991.038 C143.045,991.522 142.087,991.853 141.17,992.03 C140.253,992.207 139.326,992.295 138.389,992.295 C136.899,992.295 135.714,992.074 134.834,991.631 C133.954,991.189 133.514,990.582 133.514,989.811 C133.514,988.821 134.087,988.327 135.232,988.327 C135.982,988.327 136.949,988.735 138.131,989.553 C139.313,990.371 140.253,990.78 140.951,990.78 C142.524,990.78 143.844,990.113 144.912,988.78 C145.98,987.446 146.514,985.811 146.514,983.874"/>
<polyline class="BarLine" fill="none" stroke="#000000" stroke-width="4.00" stroke-linejoin="bevel" points="2804.72,1040.73 2804.72,1142.73"/>
<polyline class="BarLine" fill="none" stroke="#000000" stroke-width="12.50" stroke-linejoin="bevel" points="2829.22,1040.73 2829.22,1142.73"/>
<polyline class="BarLine" fill="none" stroke="#000000" stroke-width="4.00" stroke-linejoin="bevel" points="2236.33,1040.73 2236.33,1142.73"/>
<polyline class="BarLine" fill="none" stroke="#000000" stroke-width="4.00" stroke-linejoin="bevel" points="1388.02,1040.73 1388.02,1142.73"/>
<polyline class="BarLine" fill="none" stroke="#000000" stroke-width="4.00" stroke-linejoin="bevel" points="819.624,1040.73 819.624,1142.73"/>
<polyline class="BarLine" fill="none" stroke="#000000" stroke-width="4.00" stroke-linejoin="bevel" points="2833.47,565.733 2833.47,667.733"/>
<polyline class="BarLine" fill="none" stroke="#000000" stroke-width="4.00" stroke-linejoin="bevel" points="2270.36,565.733 2270.36,667.733"/>
<polyline class="BarLine" fill="none" stroke="#000000" stroke-width="4.00" stroke-linejoin="bevel" points="866.984,565.733 866.984,667.733"/>
<polyline class="BarLine" fill="none" stroke="#000000" stroke-width="4.00" stroke-linejoin="bevel" points="1430.09,565.733 1430.09,667.733"/>
<polyline class="LedgerLine" fill="none" stroke="#000000" stroke-width="4.00" stroke-linejoin="bevel" points="2021.25,1016.73 2073.16,1016.73"/>
<polyline class="LedgerLine" fill="none" stroke="#000000" stroke-width="4.00" stroke-linejoin="bevel" points="1817.67,1016.73 1869.59,1016.73"/>
<polyline class="LedgerLine" fill="none" stroke="#000000" stroke-width="4.00" stroke-linejoin="bevel" points="2123.04,1016.73 2174.95,1016.73"/>
<polyline class="LedgerLine" fill="none" stroke="#000000" stroke-width="4.00" stroke-linejoin="bevel" points="1956.51,541.733 2008.42,541.733"/>
<polyline class="LedgerLine" fill="none" stroke="#000000" stroke-width="4.00" stroke-linejoin="bevel" points="2057.29,541.733 2109.21,541.733"/>
<polyline class="LedgerLine" fill="none" stroke="#000000" stroke-width="4.00" stroke-linejoin="bevel" points="273.732,1016.73 325.647,1016.73"/>
<polyline class="LedgerLine" fill="none" stroke="#000000" stroke-width="4.00" stroke-linejoin="bevel" points="1855.73,541.733 1907.64,541.733"/>
<polyline class="LedgerLine" fill="none" stroke="#000000" stroke-width="4.00" stroke-linejoin="bevel" points="477.548,541.733 529.462,541.733"/>
<polyline class="LedgerLine" fill="none" stroke="#000000" stroke-width="4.00" stroke-linejoin="bevel" points="2258.83,1016.73 2310.74,1016.73"/>
<polyline class="LedgerLine" fill="none" stroke="#000000" stroke-width="4.00" stroke-linejoin="bevel" points="426.416,1016.73 478.33,1016.73"/>
<polyline class="LedgerLine" fill="none" stroke="#000000" stroke-width="4.00" stroke-linejoin="bevel" points="2158.07,541.733 2209.99,541.733"/>
<polyline class="LedgerLine" fill="none" stroke="#000000" stroke-width="4.00" stroke-linejoin="bevel" points="326.373,541.733 378.287,541.733"/>
<polyline class="LedgerLine" fill="none" stroke="#000000" stroke-width="4.00" stroke-linejoin="bevel" points="2411.51,1016.73 2463.42,1016.73"/>
<polyline class="LedgerLine" fill="none" stroke="#000000" stroke-width="4.00" stroke-linejoin="bevel" points="842.124,1016.73 894.038,1016.73"/>
<polyline class="LedgerLine" fill="none" stroke="#000000" stroke-width="4.00" stroke-linejoin="bevel" points="1919.46,1016.73 1971.37,1016.73"/>
<polyline class="LedgerLine" fill="none" stroke="#000000" stroke-width="4.00" stroke-linejoin="bevel" points="994.807,1016.73 1046.72,1016.73"/>
<polyline class="LedgerLine" fill="none" stroke="#000000" stroke-width="4.00" stroke-linejoin="bevel" points="2444.03,541.733 2495.95,541.733"/>
<polyline class="LedgerLine" fill="none" stroke="#000000" stroke-width="4.00" stroke-linejoin="bevel" points="2292.86,541.733 2344.77,541.733"/>
<polyline class="LedgerLine" fill="none" stroke="#000000" stroke-width="4.00" stroke-linejoin="bevel" points="1040.66,541.733 1092.57,541.733"/>
<polyline class="LedgerLine" fill="none" stroke="#000000" stroke-width="4.00" stroke-linejoin="bevel" points="889.484,541.733 941.398,541.733"/>
<polyline class="Stem" fill="none" stroke="#000000" stroke-width="3.25" stroke-linejoin="bevel" points="2455.16,547.602 2455.16,629.233"/>
<polyline class="Stem" fill="none" stroke="#000000" stroke-width="3.25" stroke-linejoin="bevel" points="1930.59,1022.6 1930.59,1091.73"/>
<polyline class="Stem" fill="none" stroke="#000000" stroke-width="3.25" stroke-linejoin="bevel" points="2605.43,559.133 2605.43,641.733"/>
<polyline class="Stem" fill="none" stroke="#000000" stroke-width="3.25" stroke-linejoin="bevel" points="488.673,547.602 488.673,629.233"/>
<polyline class="Stem" fill="none" stroke="#000000" stroke-width="3.25" stroke-linejoin="bevel" points="1421.64,1035.1 1421.64,1110.48"/>
<polyline class="Stem" fill="none" stroke="#000000" stroke-width="3.25" stroke-linejoin="bevel" points="1828.8,1022.6 1828.8,1091.73"/>
<polyline class="Stem" fill="none" stroke="#000000" stroke-width="3.25" stroke-linejoin="bevel" points="284.857,1010.1 284.857,1091.73"/>
<polyline class="Stem" fill="none" stroke="#000000" stroke-width="3.25" stroke-linejoin="bevel" points="437.541,1022.6 437.541,1104.23"/>
<polyline class="Stem" fill="none" stroke="#000000" stroke-width="3.25" stroke-linejoin="bevel" points="1727.01,1035.1 1727.01,1110.48"/>
<polyline class="Stem" fill="none" stroke="#000000" stroke-width="3.25" stroke-linejoin="bevel" points="589.322,1034.13 589.322,1116.73"/>
<polyline class="Stem" fill="none" stroke="#000000" stroke-width="3.25" stroke-linejoin="bevel" points="1625.22,1035.1 1625.22,1110.48"/>
<polyline class="Stem" fill="none" stroke="#000000" stroke-width="3.25" stroke-linejoin="bevel" points="853.249,1010.1 853.249,1091.73"/>
<polyline class="Stem" fill="none" stroke="#000000" stroke-width="3.25" stroke-linejoin="bevel" points="1005.93,1022.6 1005.93,1104.23"/>
<polyline class="Stem" fill="none" stroke="#000000" stroke-width="3.25" stroke-linejoin="bevel" points="1523.43,1035.1 1523.43,1110.48"/>
<polyline class="Stem" fill="none" stroke="#000000" stroke-width="3.25" stroke-linejoin="bevel" points="1157.71,1034.13 1157.71,1116.73"/>
<polyline class="Stem" fill="none" stroke="#000000" stroke-width="3.25" stroke-linejoin="bevel" points="337.498,535.102 337.498,616.733"/>
<polyline class="Stem" fill="none" stroke="#000000" stroke-width="3.25" stroke-linejoin="bevel" points="2269.95,1010.1 2269.95,1091.73"/>
<polyline class="Stem" fill="none" stroke="#000000" stroke-width="3.25" stroke-linejoin="bevel" points="1463.72,560.102 1463.72,635.483"/>
<polyline class="Stem" fill="none" stroke="#000000" stroke-width="3.25" stroke-linejoin="bevel" points="900.609,535.102 900.609,616.733"/>
<polyline class="Stem" fill="none" stroke="#000000" stroke-width="3.25" stroke-linejoin="bevel" points="1564.5,560.102 1564.5,635.483"/>
<polyline class="Stem" fill="none" stroke="#000000" stroke-width="3.25" stroke-linejoin="bevel" points="2422.64,1022.6 2422.64,1104.23"/>
<polyline class="Stem" fill="none" stroke="#000000" stroke-width="3.25" stroke-linejoin="bevel" points="2574.42,1034.13 2574.42,1116.73"/>
<polyline class="Stem" fill="none" stroke="#000000" stroke-width="3.25" stroke-linejoin="bevel" points="1665.29,560.102 1665.29,635.483"/>
<polyline class="Stem" fill="none" stroke="#000000" stroke-width="3.25" stroke-linejoin="bevel" points="1202.06,559.133 1202.06,641.733"/>
<polyline class="Stem" fill="none" stroke="#000000" stroke-width="3.25" stroke-linejoin="bevel" points="1766.07,560.102 1766.07,635.483"/>
<polyline class="Stem" fill="none" stroke="#000000" stroke-width="3.25" stroke-linejoin="bevel" points="1866.85,547.602 1866.85,616.733"/>
<polyline class="Stem" fill="none" stroke="#000000" stroke-width="3.25" stroke-linejoin="bevel" points="1967.63,547.602 1967.63,616.733"/>
<polyline class="Stem" fill="none" stroke="#000000" stroke-width="3.25" stroke-linejoin="bevel" points="2068.42,547.602 2068.42,616.733"/>
<polyline class="Stem" fill="none" stroke="#000000" stroke-width="3.25" stroke-linejoin="bevel" points="2134.16,1022.6 2134.16,1091.73"/>
<polyline class="Stem" fill="none" stroke="#000000" stroke-width="3.25" stroke-linejoin="bevel" points="2169.2,547.602 2169.2,616.733"/>
<polyline class="Stem" fill="none" stroke="#000000" stroke-width="3.25" stroke-linejoin="bevel" points="1051.78,547.602 1051.78,629.233"/>
<polyline class="Stem" fill="none" stroke="#000000" stroke-width="3.25" stroke-linejoin="bevel" points="2032.37,1022.6 2032.37,1091.73"/>
<polyline class="Stem" fill="none" stroke="#000000" stroke-width="3.25" stroke-linejoin="bevel" points="638.945,559.133 638.945,641.733"/>
<polyline class="Stem" fill="none" stroke="#000000" stroke-width="3.25" stroke-linejoin="bevel" points="2303.98,535.102 2303.98,616.733"/>
<path class="Note" d="M1441.98,1015.47 C1445.11,1015.47 1447.71,1016.25 1449.8,1017.81 C1451.88,1019.37 1452.92,1021.62 1452.92,1024.55 C1452.92,1029.04 1450.6,1033.23 1445.95,1037.14 C1441.29,1041.05 1436.3,1043 1430.95,1043 C1427.83,1043 1425.19,1042.19 1423.05,1040.56 C1421.03,1038.8 1420.02,1036.59 1420.02,1033.92 C1420.02,1029.56 1422.33,1025.39 1426.95,1021.42 C1431.58,1017.45 1436.59,1015.47 1441.98,1015.47"/>
<path class="Note" d="M920.952,515.467 C924.077,515.467 926.682,516.248 928.765,517.811 C930.848,519.373 931.89,521.618 931.89,524.545 C931.89,529.035 929.564,533.233 924.913,537.139 C920.262,541.045 915.265,542.998 909.921,542.998 C906.796,542.998 904.161,542.186 902.015,540.561 C899.994,538.8 898.984,536.587 898.984,533.92 C898.984,529.556 901.296,525.389 905.921,521.42 C910.546,517.451 915.557,515.467 920.952,515.467"/>
<path class="Note" d="M2580.21,1039.87 C2582.1,1039.87 2586.05,1037.92 2592.08,1034.01 C2598.11,1030.11 2601.66,1027.49 2602.73,1026.15 C2603.8,1024.82 2604.34,1023.63 2604.34,1022.59 C2604.34,1021.55 2603.91,1020.62 2603.06,1019.81 C2602.22,1019 2601.24,1018.59 2600.13,1018.59 C2598.19,1018.59 2594.2,1020.56 2588.17,1024.5 C2582.15,1028.44 2578.61,1031.06 2577.57,1032.36 C2576.53,1033.66 2576.01,1034.83 2576.01,1035.87 C2576.01,1036.92 2576.42,1037.84 2577.24,1038.65 C2578.05,1039.47 2579.05,1039.87 2580.21,1039.87 M2599.17,1015.47 C2604.76,1015.47 2607.56,1017.87 2607.56,1022.69 C2607.56,1025.03 2606.87,1027.75 2605.51,1030.84 C2604.15,1033.94 2602.32,1036.3 2600.04,1037.92 C2595.03,1041.31 2588.75,1043 2581.2,1043 C2575.59,1043 2572.79,1040.59 2572.79,1035.78 C2572.79,1033.63 2573.46,1030.96 2574.79,1027.77 C2576.12,1024.58 2577.96,1022.17 2580.31,1020.55 C2585.33,1017.16 2591.61,1015.47 2599.17,1015.47"/>
<path class="Note" d="M1950.93,1002.97 C1954.05,1002.97 1956.66,1003.75 1958.74,1005.31 C1960.82,1006.87 1961.87,1009.12 1961.87,1012.05 C1961.87,1016.53 1959.54,1020.73 1954.89,1024.64 C1950.24,1028.55 1945.24,1030.5 1939.9,1030.5 C1936.77,1030.5 1934.14,1029.69 1931.99,1028.06 C1929.97,1026.3 1928.96,1024.09 1928.96,1021.42 C1928.96,1017.06 1931.27,1012.89 1935.9,1008.92 C1940.52,1004.95 1945.53,1002.97 1950.93,1002.97"/>
<path class="Note" d="M1543.77,1015.47 C1546.9,1015.47 1549.5,1016.25 1551.59,1017.81 C1553.67,1019.37 1554.71,1021.62 1554.71,1024.55 C1554.71,1029.04 1552.39,1033.23 1547.73,1037.14 C1543.08,1041.05 1538.09,1043 1532.74,1043 C1529.62,1043 1526.98,1042.19 1524.84,1040.56 C1522.81,1038.8 1521.8,1036.59 1521.8,1033.92 C1521.8,1029.56 1524.12,1025.39 1528.74,1021.42 C1533.37,1017.45 1538.38,1015.47 1543.77,1015.47"/>
<path class="Note" d="M2442.98,1002.97 C2446.1,1002.97 2448.71,1003.75 2450.79,1005.31 C2452.87,1006.87 2453.92,1009.12 2453.92,1012.05 C2453.92,1016.53 2451.59,1020.73 2446.94,1024.64 C2442.29,1028.55 2437.29,1030.5 2431.95,1030.5 C2428.82,1030.5 2426.19,1029.69 2424.04,1028.06 C2422.02,1026.3 2421.01,1024.09 2421.01,1021.42 C2421.01,1017.06 2423.32,1012.89 2427.95,1008.92 C2432.57,1004.95 2437.58,1002.97 2442.98,1002.97"/>
<path class="Note" d="M1645.56,1015.47 C1648.69,1015.47 1651.29,1016.25 1653.37,1017.81 C1655.46,1019.37 1656.5,1021.62 1656.5,1024.55 C1656.5,1029.04 1654.17,1033.23 1649.52,1037.14 C1644.87,1041.05 1639.87,1043 1634.53,1043 C1631.41,1043 1628.77,1042.19 1626.62,1040.56 C1624.6,1038.8 1623.59,1036.59 1623.59,1033.92 C1623.59,1029.56 1625.91,1025.39 1630.53,1021.42 C1635.16,1017.45 1640.17,1015.47 1645.56,1015.47"/>
<path class="Note" d="M2290.3,990.467 C2293.42,990.467 2296.02,991.249 2298.11,992.811 C2300.19,994.374 2301.23,996.618 2301.23,999.545 C2301.23,1004.03 2298.91,1008.23 2294.26,1012.14 C2289.61,1016.05 2284.61,1018 2279.26,1018 C2276.14,1018 2273.5,1017.19 2271.36,1015.56 C2269.34,1013.8 2268.33,1011.59 2268.33,1008.92 C2268.33,1004.56 2270.64,1000.39 2275.26,996.42 C2279.89,992.452 2284.9,990.467 2290.3,990.467"/>
<path class="Note" d="M1747.35,1015.47 C1750.48,1015.47 1753.08,1016.25 1755.16,1017.81 C1757.25,1019.37 1758.29,1021.62 1758.29,1024.55 C1758.29,1029.04 1755.96,1033.23 1751.31,1037.14 C1746.66,1041.05 1741.66,1043 1736.32,1043 C1733.19,1043 1730.56,1042.19 1728.41,1040.56 C1726.39,1038.8 1725.38,1036.59 1725.38,1033.92 C1725.38,1029.56 1727.69,1025.39 1732.32,1021.42 C1736.94,1017.45 1741.96,1015.47 1747.35,1015.47"/>
<path class="Note" d="M2154.51,1002.97 C2157.63,1002.97 2160.24,1003.75 2162.32,1005.31 C2164.4,1006.87 2165.44,1009.12 2165.44,1012.05 C2165.44,1016.53 2163.12,1020.73 2158.47,1024.64 C2153.82,1028.55 2148.82,1030.5 2143.48,1030.5 C2140.35,1030.5 2137.71,1029.69 2135.57,1028.06 C2133.55,1026.3 2132.54,1024.09 2132.54,1021.42 C2132.54,1017.06 2134.85,1012.89 2139.48,1008.92 C2144.1,1004.95 2149.11,1002.97 2154.51,1002.97"/>
<path class="Note" d="M1849.14,1002.97 C1852.26,1002.97 1854.87,1003.75 1856.95,1005.31 C1859.04,1006.87 1860.08,1009.12 1860.08,1012.05 C1860.08,1016.53 1857.75,1020.73 1853.1,1024.64 C1848.45,1028.55 1843.45,1030.5 1838.11,1030.5 C1834.98,1030.5 1832.35,1029.69 1830.2,1028.06 C1828.18,1026.3 1827.17,1024.09 1827.17,1021.42 C1827.17,1017.06 1829.48,1012.89 1834.11,1008.92 C1838.73,1004.95 1843.74,1002.97 1849.14,1002.97"/>
<path class="Note" d="M2052.72,1002.97 C2055.84,1002.97 2058.45,1003.75 2060.53,1005.31 C2062.61,1006.87 2063.66,1009.12 2063.66,1012.05 C2063.66,1016.53 2061.33,1020.73 2056.68,1024.64 C2052.03,1028.55 2047.03,1030.5 2041.69,1030.5 C2038.56,1030.5 2035.93,1029.69 2033.78,1028.06 C2031.76,1026.3 2030.75,1024.09 2030.75,1021.42 C2030.75,1017.06 2033.06,1012.89 2037.69,1008.92 C2042.31,1004.95 2047.32,1002.97 2052.72,1002.97"/>
<path class="Note" d="M1163.51,1039.87 C1165.4,1039.87 1169.35,1037.92 1175.38,1034.01 C1181.4,1030.11 1184.95,1027.49 1186.03,1026.15 C1187.1,1024.82 1187.64,1023.63 1187.64,1022.59 C1187.64,1021.55 1187.21,1020.62 1186.36,1019.81 C1185.51,1019 1184.54,1018.59 1183.43,1018.59 C1181.48,1018.59 1177.5,1020.56 1171.47,1024.5 C1165.45,1028.44 1161.91,1031.06 1160.87,1032.36 C1159.83,1033.66 1159.31,1034.83 1159.31,1035.87 C1159.31,1036.92 1159.72,1037.84 1160.53,1038.65 C1161.35,1039.47 1162.34,1039.87 1163.51,1039.87 M1182.46,1015.47 C1188.06,1015.47 1190.85,1017.87 1190.85,1022.69 C1190.85,1025.03 1190.17,1027.75 1188.81,1030.84 C1187.44,1033.94 1185.62,1036.3 1183.34,1037.92 C1178.33,1041.31 1172.05,1043 1164.49,1043 C1158.89,1043 1156.09,1040.59 1156.09,1035.78 C1156.09,1033.63 1156.76,1030.96 1158.09,1027.77 C1159.42,1024.58 1161.26,1022.17 1163.6,1020.55 C1168.62,1017.16 1174.91,1015.47 1182.46,1015.47"/>
<path class="Note" d="M1072.13,527.967 C1075.25,527.967 1077.86,528.748 1079.94,530.311 C1082.02,531.873 1083.06,534.118 1083.06,537.045 C1083.06,541.535 1080.74,545.733 1076.09,549.639 C1071.44,553.545 1066.44,555.498 1061.1,555.498 C1057.97,555.498 1055.34,554.686 1053.19,553.061 C1051.17,551.3 1050.16,549.087 1050.16,546.42 C1050.16,542.056 1052.47,537.889 1057.1,533.92 C1061.72,529.951 1066.73,527.967 1072.13,527.967"/>
<path class="Note" d="M1207.85,564.873 C1209.74,564.873 1213.69,562.92 1219.72,559.014 C1225.75,555.108 1229.29,552.488 1230.37,551.154 C1231.44,549.821 1231.98,548.634 1231.98,547.592 C1231.98,546.55 1231.55,545.623 1230.7,544.811 C1229.85,543.998 1228.88,543.592 1227.77,543.592 C1225.83,543.592 1221.84,545.561 1215.81,549.498 C1209.79,553.436 1206.25,556.056 1205.21,557.358 C1204.17,558.66 1203.65,559.832 1203.65,560.873 C1203.65,561.915 1204.06,562.842 1204.88,563.654 C1205.69,564.467 1206.69,564.873 1207.85,564.873 M1226.81,540.467 C1232.4,540.467 1235.2,542.873 1235.2,547.686 C1235.2,550.029 1234.51,552.748 1233.15,555.842 C1231.78,558.936 1229.96,561.295 1227.68,562.92 C1222.67,566.306 1216.39,567.998 1208.84,567.998 C1203.23,567.998 1200.43,565.592 1200.43,560.779 C1200.43,558.634 1201.1,555.964 1202.43,552.772 C1203.76,549.579 1205.6,547.17 1207.95,545.545 C1212.97,542.16 1219.25,540.467 1226.81,540.467"/>
<path class="Note" d="M1484.06,540.467 C1487.19,540.467 1489.79,541.248 1491.88,542.811 C1493.96,544.373 1495,546.618 1495,549.545 C1495,554.035 1492.67,558.233 1488.02,562.139 C1483.37,566.045 1478.38,567.998 1473.03,567.998 C1469.91,567.998 1467.27,567.186 1465.13,565.561 C1463.1,563.8 1462.09,561.587 1462.09,558.92 C1462.09,554.556 1464.41,550.389 1469.03,546.42 C1473.66,542.451 1478.67,540.467 1484.06,540.467"/>
<path class="Note" d="M1584.85,540.467 C1587.97,540.467 1590.58,541.248 1592.66,542.811 C1594.74,544.373 1595.78,546.618 1595.78,549.545 C1595.78,554.035 1593.46,558.233 1588.81,562.139 C1584.16,566.045 1579.16,567.998 1573.81,567.998 C1570.69,567.998 1568.05,567.186 1565.91,565.561 C1563.89,563.8 1562.88,561.587 1562.88,558.92 C1562.88,554.556 1565.19,550.389 1569.81,546.42 C1574.44,542.451 1579.45,540.467 1584.85,540.467"/>
<path class="Note" d="M1685.63,540.467 C1688.75,540.467 1691.36,541.248 1693.44,542.811 C1695.52,544.373 1696.57,546.618 1696.57,549.545 C1696.57,554.035 1694.24,558.233 1689.59,562.139 C1684.94,566.045 1679.94,567.998 1674.6,567.998 C1671.47,567.998 1668.84,567.186 1666.69,565.561 C1664.67,563.8 1663.66,561.587 1663.66,558.92 C1663.66,554.556 1665.97,550.389 1670.6,546.42 C1675.22,542.451 1680.23,540.467 1685.63,540.467"/>
<path class="Note" d="M1786.41,540.467 C1789.54,540.467 1792.14,541.248 1794.22,542.811 C1796.31,544.373 1797.35,546.618 1797.35,549.545 C1797.35,554.035 1795.02,558.233 1790.37,562.139 C1785.72,566.045 1780.72,567.998 1775.38,567.998 C1772.26,567.998 1769.62,567.186 1767.47,565.561 C1765.45,563.8 1764.44,561.587 1764.44,558.92 C1764.44,554.556 1766.76,550.389 1771.38,546.42 C1776.01,542.451 1781.02,540.467 1786.41,540.467"/>
<path class="Note" d="M1887.19,527.967 C1890.32,527.967 1892.92,528.748 1895.01,530.311 C1897.09,531.873 1898.13,534.118 1898.13,537.045 C1898.13,541.535 1895.81,545.733 1891.16,549.639 C1886.5,553.545 1881.51,555.498 1876.16,555.498 C1873.04,555.498 1870.4,554.686 1868.26,553.061 C1866.24,551.3 1865.23,549.087 1865.23,546.42 C1865.23,542.056 1867.54,537.889 1872.16,533.92 C1876.79,529.951 1881.8,527.967 1887.19,527.967"/>
<path class="Note" d="M1987.98,527.967 C1991.1,527.967 1993.71,528.748 1995.79,530.311 C1997.87,531.873 1998.92,534.118 1998.92,537.045 C1998.92,541.535 1996.59,545.733 1991.94,549.639 C1987.29,553.545 1982.29,555.498 1976.95,555.498 C1973.82,555.498 1971.19,554.686 1969.04,553.061 C1967.02,551.3 1966.01,549.087 1966.01,546.42 C1966.01,542.056 1968.32,537.889 1972.95,533.92 C1977.57,529.951 1982.58,527.967 1987.98,527.967"/>
<path class="Note" d="M2088.76,527.967 C2091.89,527.967 2094.49,528.748 2096.57,530.311 C2098.66,531.873 2099.7,534.118 2099.7,537.045 C2099.7,541.535 2097.37,545.733 2092.72,549.639 C2088.07,553.545 2083.07,555.498 2077.73,555.498 C2074.6,555.498 2071.97,554.686 2069.82,553.061 C2067.8,551.3 2066.79,549.087 2066.79,546.42 C2066.79,542.056 2069.1,537.889 2073.73,533.92 C2078.35,529.951 2083.36,527.967 2088.76,527.967"/>
<path class="Note" d="M2189.54,527.967 C2192.67,527.967 2195.27,528.748 2197.36,530.311 C2199.44,531.873 2200.48,534.118 2200.48,537.045 C2200.48,541.535 2198.16,545.733 2193.5,549.639 C2188.85,553.545 2183.86,555.498 2178.51,555.498 C2175.39,555.498 2172.75,554.686 2170.61,553.061 C2168.59,551.3 2167.57,549.087 2167.57,546.42 C2167.57,542.056 2169.89,537.889 2174.51,533.92 C2179.14,529.951 2184.15,527.967 2189.54,527.967"/>
<path class="Note" d="M644.742,564.873 C646.627,564.873 650.583,562.92 656.609,559.014 C662.635,555.108 666.184,552.488 667.257,551.154 C668.33,549.821 668.867,548.634 668.867,547.592 C668.867,546.55 668.442,545.623 667.593,544.811 C666.744,543.998 665.768,543.592 664.663,543.592 C662.715,543.592 658.728,545.561 652.702,549.498 C646.676,553.436 643.143,556.056 642.101,557.358 C641.059,558.66 640.538,559.832 640.538,560.873 C640.538,561.915 640.947,562.842 641.765,563.654 C642.583,564.467 643.575,564.873 644.742,564.873 M663.695,540.467 C669.288,540.467 672.085,542.873 672.085,547.686 C672.085,550.029 671.403,552.748 670.038,555.842 C668.674,558.936 666.851,561.295 664.57,562.92 C659.559,566.306 653.278,567.998 645.726,567.998 C640.122,567.998 637.32,565.592 637.32,560.779 C637.32,558.634 637.986,555.964 639.32,552.772 C640.653,549.579 642.492,547.17 644.835,545.545 C649.856,542.16 656.143,540.467 663.695,540.467"/>
<path class="Note" d="M2324.33,515.467 C2327.45,515.467 2330.06,516.248 2332.14,517.811 C2334.22,519.373 2335.26,521.618 2335.26,524.545 C2335.26,529.035 2332.94,533.233 2328.29,537.139 C2323.64,541.045 2318.64,542.998 2313.3,542.998 C2310.17,542.998 2307.53,542.186 2305.39,540.561 C2303.37,538.8 2302.36,536.587 2302.36,533.92 C2302.36,529.556 2304.67,525.389 2309.3,521.42 C2313.92,517.451 2318.93,515.467 2324.33,515.467"/>
<path class="Note" d="M2475.5,527.967 C2478.63,527.967 2481.23,528.748 2483.31,530.311 C2485.4,531.873 2486.44,534.118 2486.44,537.045 C2486.44,541.535 2484.11,545.733 2479.46,549.639 C2474.81,553.545 2469.81,555.498 2464.47,555.498 C2461.34,555.498 2458.71,554.686 2456.56,553.061 C2454.54,551.3 2453.53,549.087 2453.53,546.42 C2453.53,542.056 2455.84,537.889 2460.47,533.92 C2465.09,529.951 2470.11,527.967 2475.5,527.967"/>
<path class="Note" d="M2611.23,564.873 C2613.11,564.873 2617.07,562.92 2623.09,559.014 C2629.12,555.108 2632.67,552.488 2633.74,551.154 C2634.81,549.821 2635.35,548.634 2635.35,547.592 C2635.35,546.55 2634.93,545.623 2634.08,544.811 C2633.23,543.998 2632.25,543.592 2631.15,543.592 C2629.2,543.592 2625.21,545.561 2619.19,549.498 C2613.16,553.436 2609.63,556.056 2608.59,557.358 C2607.54,558.66 2607.02,559.832 2607.02,560.873 C2607.02,561.915 2607.43,562.842 2608.25,563.654 C2609.07,564.467 2610.06,564.873 2611.23,564.873 M2630.18,540.467 C2635.77,540.467 2638.57,542.873 2638.57,547.686 C2638.57,550.029 2637.89,552.748 2636.52,555.842 C2635.16,558.936 2633.34,561.295 2631.05,562.92 C2626.04,566.306 2619.76,567.998 2612.21,567.998 C2606.61,567.998 2603.8,565.592 2603.8,560.779 C2603.8,558.634 2604.47,555.964 2605.8,552.772 C2607.14,549.579 2608.98,547.17 2611.32,545.545 C2616.34,542.16 2622.63,540.467 2630.18,540.467"/>
<path class="Note" d="M509.016,527.967 C512.141,527.967 514.745,528.748 516.829,530.311 C518.912,531.873 519.954,534.118 519.954,537.045 C519.954,541.535 517.628,545.733 512.977,549.639 C508.326,553.545 503.329,555.498 497.985,555.498 C494.86,555.498 492.225,554.686 490.079,553.061 C488.058,551.3 487.048,549.087 487.048,546.42 C487.048,542.056 489.36,537.889 493.985,533.92 C498.61,529.951 503.62,527.967 509.016,527.967"/>
<path class="Note" d="M305.201,990.467 C308.326,990.467 310.93,991.249 313.014,992.811 C315.097,994.374 316.139,996.618 316.139,999.545 C316.139,1004.03 313.813,1008.23 309.162,1012.14 C304.511,1016.05 299.514,1018 294.17,1018 C291.045,1018 288.41,1017.19 286.264,1015.56 C284.243,1013.8 283.232,1011.59 283.232,1008.92 C283.232,1004.56 285.545,1000.39 290.17,996.42 C294.795,992.452 299.805,990.467 305.201,990.467"/>
<path class="Note" d="M1026.28,1002.97 C1029.4,1002.97 1032.01,1003.75 1034.09,1005.31 C1036.17,1006.87 1037.21,1009.12 1037.21,1012.05 C1037.21,1016.53 1034.89,1020.73 1030.24,1024.64 C1025.59,1028.55 1020.59,1030.5 1015.24,1030.5 C1012.12,1030.5 1009.48,1029.69 1007.34,1028.06 C1005.32,1026.3 1004.31,1024.09 1004.31,1021.42 C1004.31,1017.06 1006.62,1012.89 1011.24,1008.92 C1015.87,1004.95 1020.88,1002.97 1026.28,1002.97"/>
<path class="Note" d="M457.885,1002.97 C461.01,1002.97 463.614,1003.75 465.697,1005.31 C467.78,1006.87 468.822,1009.12 468.822,1012.05 C468.822,1016.53 466.496,1020.73 461.845,1024.64 C457.194,1028.55 452.197,1030.5 446.853,1030.5 C443.728,1030.5 441.093,1029.69 438.947,1028.06 C436.926,1026.3 435.916,1024.09 435.916,1021.42 C435.916,1017.06 438.228,1012.89 442.853,1008.92 C447.478,1004.95 452.489,1002.97 457.885,1002.97"/>
<path class="Note" d="M595.119,1039.87 C597.004,1039.87 600.96,1037.92 606.986,1034.01 C613.012,1030.11 616.561,1027.49 617.634,1026.15 C618.707,1024.82 619.244,1023.63 619.244,1022.59 C619.244,1021.55 618.819,1020.62 617.97,1019.81 C617.121,1019 616.145,1018.59 615.04,1018.59 C613.093,1018.59 609.106,1020.56 603.08,1024.5 C597.054,1028.44 593.52,1031.06 592.478,1032.36 C591.436,1033.66 590.915,1034.83 590.915,1035.87 C590.915,1036.92 591.324,1037.84 592.142,1038.65 C592.96,1039.47 593.952,1039.87 595.119,1039.87 M614.072,1015.47 C619.665,1015.47 622.462,1017.87 622.462,1022.69 C622.462,1025.03 621.78,1027.75 620.415,1030.84 C619.051,1033.94 617.228,1036.3 614.947,1037.92 C609.936,1041.31 603.655,1043 596.103,1043 C590.499,1043 587.697,1040.59 587.697,1035.78 C587.697,1033.63 588.363,1030.96 589.697,1027.77 C591.03,1024.58 592.869,1022.17 595.212,1020.55 C600.233,1017.16 606.52,1015.47 614.072,1015.47"/>
<path class="Note" d="M357.842,515.467 C360.967,515.467 363.571,516.248 365.654,517.811 C367.738,519.373 368.779,521.618 368.779,524.545 C368.779,529.035 366.454,533.233 361.803,537.139 C357.152,541.045 352.154,542.998 346.811,542.998 C343.686,542.998 341.05,542.186 338.904,540.561 C336.884,538.8 335.873,536.587 335.873,533.92 C335.873,529.556 338.186,525.389 342.811,521.42 C347.436,517.451 352.446,515.467 357.842,515.467"/>
<path class="Note" d="M873.593,990.467 C876.718,990.467 879.322,991.249 881.405,992.811 C883.489,994.374 884.53,996.618 884.53,999.545 C884.53,1004.03 882.205,1008.23 877.554,1012.14 C872.903,1016.05 867.905,1018 862.562,1018 C859.437,1018 856.801,1017.19 854.655,1015.56 C852.634,1013.8 851.624,1011.59 851.624,1008.92 C851.624,1004.56 853.937,1000.39 858.562,996.42 C863.187,992.452 868.197,990.467 873.593,990.467"/>
<path class="Clef" d="M199.623,1148.86 L199.623,1146.72 C199.56,1145.61 199.399,1143.89 199.139,1141.55 C195.889,1142.07 192.993,1142.33 190.451,1142.33 C181.337,1142.33 173.605,1138.73 167.256,1131.53 C160.907,1124.33 157.732,1115.75 157.732,1105.8 C157.732,1103.13 158.253,1099.92 159.295,1096.18 C160.337,1092.43 161.297,1089.93 162.178,1088.65 C163.058,1087.38 164.378,1085.15 166.139,1081.97 C166.659,1080.99 168.352,1078.84 171.217,1075.51 C171.738,1074.81 172.193,1074.22 172.584,1073.76 C172.975,1073.31 173.607,1072.49 174.482,1071.32 C175.357,1070.15 176.3,1069.06 177.31,1068.05 C178.321,1067.04 179.217,1066.06 179.998,1065.12 C180.779,1064.17 181.498,1063.38 182.154,1062.73 C179.81,1054.98 178.378,1049.02 177.857,1044.86 C177.337,1040.69 177.076,1035.58 177.076,1029.52 C177.076,1023.46 178.378,1017.96 180.982,1013.01 C183.514,1007.88 187.06,1003.68 191.623,1000.42 C191.883,1000.22 192.225,1000.12 192.646,1000.12 C193.068,1000.12 193.378,1000.22 193.576,1000.42 C197.087,1004.65 200.128,1010.15 202.701,1016.92 C205.274,1023.69 206.56,1030.02 206.56,1035.92 C206.56,1041.82 205.066,1047.5 202.076,1052.97 C198.691,1058.76 194.326,1064.75 188.982,1070.94 C190.347,1075.23 192.17,1081.96 194.451,1091.14 L195.045,1091.14 C195.305,1091.08 195.529,1091.05 195.717,1091.05 C203.081,1091.05 209.089,1093.63 213.74,1098.81 C218.391,1103.99 220.717,1109.96 220.717,1116.73 C220.717,1125.13 217.238,1131.9 210.279,1137.05 C208.258,1138.55 205.878,1139.72 203.139,1140.56 C203.472,1144.79 203.639,1147.61 203.639,1149.01 C203.639,1150.41 203.571,1152.9 203.435,1156.48 C203.373,1162.6 201.29,1167.84 197.185,1172.2 C193.081,1176.57 188.394,1178.75 183.123,1178.75 C177.852,1178.75 173.36,1176.88 169.646,1173.13 C165.933,1169.39 164.076,1164.85 164.076,1159.51 C164.076,1156.71 165.154,1154.33 167.31,1152.37 C169.519,1150.43 172.006,1149.45 174.771,1149.45 C177.537,1149.45 179.8,1150.46 181.56,1152.48 C183.383,1154.37 184.295,1156.64 184.295,1159.31 C184.295,1161.98 183.383,1164.22 181.56,1166.05 C179.738,1167.87 177.555,1168.78 175.014,1168.78 C173.972,1168.78 172.967,1168.59 171.998,1168.2 C174.863,1172.43 178.54,1174.55 183.029,1174.55 C187.519,1174.55 191.36,1172.69 194.553,1168.98 C197.745,1165.27 199.342,1160.91 199.342,1155.89 L199.623,1148.86 M202.748,1136.56 C206.133,1135.32 208.821,1133.12 210.81,1129.97 C212.8,1126.81 213.795,1123.67 213.795,1120.55 C213.795,1115.92 212.199,1111.79 209.006,1108.14 C205.813,1104.49 201.774,1102.44 196.889,1101.98 C199.691,1115.72 201.644,1127.25 202.748,1136.56 M164.967,1114 C164.967,1120.45 167.537,1126.08 172.678,1130.9 C177.818,1135.71 183.842,1138.12 190.748,1138.12 C193.477,1138.12 196.144,1137.93 198.748,1137.53 C197.706,1127.63 195.654,1115.79 192.592,1101.98 C188.758,1102.38 185.782,1103.7 183.662,1105.94 C181.542,1108.19 180.482,1110.74 180.482,1113.61 C180.482,1118.56 183.123,1122.56 188.404,1125.62 C188.852,1125.88 189.076,1126.32 189.076,1126.94 C189.076,1127.56 188.865,1128.1 188.443,1128.55 C188.021,1129.01 187.649,1129.23 187.326,1129.23 C187.003,1129.23 186.581,1129.17 186.06,1129.05 C178.435,1124.88 174.623,1118.59 174.623,1110.19 C174.623,1106.22 176.024,1102.41 178.826,1098.76 C181.753,1095.12 185.56,1092.77 190.248,1091.73 C188.425,1084.44 186.93,1078.74 185.764,1074.64 C176.847,1084.67 171.31,1092.09 169.154,1096.9 C166.363,1103.15 164.967,1108.85 164.967,1114 M197.576,1014.69 C192.691,1017.09 188.834,1020.57 186.006,1025.13 C183.178,1029.69 181.764,1034.47 181.764,1039.48 C181.764,1044.49 182.935,1050.97 185.279,1058.92 C189.967,1053.25 193.514,1047.95 195.92,1043 C198.326,1038.05 199.529,1033.15 199.529,1028.3 C199.529,1023.45 198.878,1018.92 197.576,1014.69"/>
<path class="Clef" d="M199.623,673.858 L199.623,671.717 C199.56,670.613 199.399,668.889 199.139,666.545 C195.889,667.066 192.993,667.326 190.451,667.326 C181.337,667.326 173.605,663.727 167.256,656.53 C160.907,649.332 157.732,640.754 157.732,630.795 C157.732,628.129 158.253,624.923 159.295,621.178 C160.337,617.433 161.297,614.925 162.178,613.655 C163.058,612.384 164.378,610.155 166.139,606.967 C166.659,605.988 168.352,603.837 171.217,600.514 C171.738,599.806 172.193,599.222 172.584,598.764 C172.975,598.306 173.607,597.49 174.482,596.319 C175.357,595.147 176.3,594.056 177.31,593.045 C178.321,592.035 179.217,591.058 179.998,590.115 C180.779,589.173 181.498,588.379 182.154,587.733 C179.81,579.983 178.378,574.024 177.857,569.858 C177.337,565.691 177.076,560.579 177.076,554.522 C177.076,548.464 178.378,542.962 180.982,538.014 C183.514,532.879 187.06,528.681 191.623,525.42 C191.883,525.222 192.225,525.123 192.646,525.123 C193.068,525.123 193.378,525.222 193.576,525.42 C197.087,529.649 200.128,535.149 202.701,541.92 C205.274,548.691 206.56,555.024 206.56,560.92 C206.56,566.816 205.066,572.498 202.076,577.967 C198.691,583.759 194.326,589.748 188.982,595.936 C190.347,600.227 192.17,606.962 194.451,616.139 L195.045,616.139 C195.305,616.076 195.529,616.045 195.717,616.045 C203.081,616.045 209.089,618.634 213.74,623.811 C218.391,628.988 220.717,634.962 220.717,641.733 C220.717,650.129 217.238,656.899 210.279,662.045 C208.258,663.545 205.878,664.717 203.139,665.561 C203.472,669.79 203.639,672.605 203.639,674.006 C203.639,675.407 203.571,677.899 203.435,681.483 C203.373,687.597 201.29,692.837 197.185,697.201 C193.081,701.566 188.394,703.748 183.123,703.748 C177.852,703.748 173.36,701.876 169.646,698.131 C165.933,694.386 164.076,689.847 164.076,684.514 C164.076,681.712 165.154,679.332 167.31,677.373 C169.519,675.425 172.006,674.451 174.771,674.451 C177.537,674.451 179.8,675.462 181.56,677.483 C183.383,679.368 184.295,681.644 184.295,684.311 C184.295,686.977 183.383,689.222 181.56,691.045 C179.738,692.868 177.555,693.78 175.014,693.78 C173.972,693.78 172.967,693.587 171.998,693.201 C174.863,697.431 178.54,699.545 183.029,699.545 C187.519,699.545 191.36,697.691 194.553,693.983 C197.745,690.274 199.342,685.91 199.342,680.889 L199.623,673.858 M202.748,661.561 C206.133,660.321 208.821,658.123 210.81,654.967 C212.8,651.811 213.795,648.67 213.795,645.545 C213.795,640.92 212.199,636.785 209.006,633.139 C205.813,629.493 201.774,627.441 196.889,626.983 C199.691,640.722 201.644,652.248 202.748,661.561 M164.967,638.998 C164.967,645.446 167.537,651.079 172.678,655.897 C177.818,660.714 183.842,663.123 190.748,663.123 C193.477,663.123 196.144,662.925 198.748,662.53 C197.706,652.634 195.654,640.785 192.592,626.983 C188.758,627.379 185.782,628.699 183.662,630.944 C181.542,633.188 180.482,635.743 180.482,638.608 C180.482,643.556 183.123,647.561 188.404,650.623 C188.852,650.884 189.076,651.324 189.076,651.944 C189.076,652.563 188.865,653.1 188.443,653.553 C188.021,654.006 187.649,654.233 187.326,654.233 C187.003,654.233 186.581,654.17 186.06,654.045 C178.435,649.879 174.623,643.592 174.623,635.186 C174.623,631.217 176.024,627.41 178.826,623.764 C181.753,620.118 185.56,617.774 190.248,616.733 C188.425,609.441 186.93,603.743 185.764,599.639 C176.847,609.67 171.31,617.092 169.154,621.905 C166.363,628.155 164.967,633.852 164.967,638.998 M197.576,539.686 C192.691,542.092 188.834,545.574 186.006,550.131 C183.178,554.688 181.764,559.472 181.764,564.483 C181.764,569.493 182.935,575.972 185.279,583.92 C189.967,578.254 193.514,572.946 195.92,567.998 C198.326,563.05 199.529,558.152 199.529,553.303 C199.529,548.454 198.878,543.915 197.576,539.686"/>
<path class="TimeSig" d="M269.021,567.912 C270.516,567.912 271.949,567.686 273.318,567.233 C274.688,566.78 275.665,566.553 276.248,566.553 C276.831,566.553 277.222,566.907 277.42,567.615 C277.42,567.688 277.352,567.886 277.217,568.209 L248.811,601.225 L265.498,601.225 L265.498,588.131 C265.498,586.506 266.446,585.334 268.342,584.615 C270.29,583.897 272.503,581.001 274.982,575.928 C275.17,575.532 275.462,575.334 275.857,575.334 C276.639,575.334 277.092,575.793 277.217,576.709 L277.217,601.225 L284.357,601.225 C285.264,601.225 285.751,601.712 285.818,602.686 C285.886,603.66 285.399,604.147 284.357,604.147 L277.217,604.147 L277.217,604.928 C277.217,607.532 277.868,609.746 279.17,611.569 C280.67,613.391 282.43,614.303 284.451,614.303 C285.232,614.303 285.623,614.694 285.623,615.475 C285.623,616.256 285.087,616.647 284.014,616.647 C282.941,616.647 280.938,616.436 278.006,616.014 C275.074,615.592 272.811,615.381 271.217,615.381 C269.623,615.381 267.41,615.592 264.576,616.014 C261.743,616.436 259.613,616.647 258.186,616.647 C257.404,616.647 257.014,616.256 257.014,615.475 C257.014,614.694 257.404,614.303 258.186,614.303 C260.196,614.303 261.951,613.391 263.451,611.569 C264.816,609.683 265.498,607.47 265.498,604.928 L265.498,604.147 L248.811,604.147 C247.956,604.147 247.219,603.92 246.6,603.467 C245.98,603.014 245.67,602.592 245.67,602.201 C245.67,601.811 246.485,600.639 248.115,598.686 C249.745,596.733 252.074,592.972 255.1,587.405 C258.126,581.837 259.639,575.438 259.639,568.209 C259.639,567.168 260.097,566.647 261.014,566.647 C261.212,566.647 261.521,566.712 261.943,566.842 C262.365,566.972 263.277,567.183 264.678,567.475 C266.079,567.766 267.527,567.912 269.021,567.912"/>
<path class="TimeSig" d="M269.021,618.084 C270.516,618.084 271.949,617.858 273.318,617.405 C274.688,616.951 275.665,616.725 276.248,616.725 C276.831,616.725 277.222,617.079 277.42,617.787 C277.42,617.86 277.352,618.058 277.217,618.381 L248.811,651.397 L265.498,651.397 L265.498,638.303 C265.498,636.678 266.446,635.506 268.342,634.787 C270.29,634.069 272.503,631.173 274.982,626.1 C275.17,625.704 275.462,625.506 275.857,625.506 C276.639,625.506 277.092,625.964 277.217,626.881 L277.217,651.397 L284.357,651.397 C285.264,651.397 285.751,651.884 285.818,652.858 C285.886,653.832 285.399,654.319 284.357,654.319 L277.217,654.319 L277.217,655.1 C277.217,657.704 277.868,659.918 279.17,661.74 C280.67,663.563 282.43,664.475 284.451,664.475 C285.232,664.475 285.623,664.865 285.623,665.647 C285.623,666.428 285.087,666.819 284.014,666.819 C282.941,666.819 280.938,666.608 278.006,666.186 C275.074,665.764 272.811,665.553 271.217,665.553 C269.623,665.553 267.41,665.764 264.576,666.186 C261.743,666.608 259.613,666.819 258.186,666.819 C257.404,666.819 257.014,666.428 257.014,665.647 C257.014,664.865 257.404,664.475 258.186,664.475 C260.196,664.475 261.951,663.563 263.451,661.74 C264.816,659.855 265.498,657.642 265.498,655.1 L265.498,654.319 L248.811,654.319 C247.956,654.319 247.219,654.092 246.6,653.639 C245.98,653.186 245.67,652.764 245.67,652.373 C245.67,651.983 246.485,650.811 248.115,648.858 C249.745,646.905 252.074,643.144 255.1,637.576 C258.126,632.009 259.639,625.61 259.639,618.381 C259.639,617.339 260.097,616.819 261.014,616.819 C261.212,616.819 261.521,616.884 261.943,617.014 C262.365,617.144 263.277,617.355 264.678,617.647 C266.079,617.938 267.527,618.084 269.021,618.084"/>
<path class="Beam" fill-rule="evenodd" d="M1827.17,1085.48 L2135.79,1085.48 L2135.79,1097.98 L1827.17,1097.98 L1827.17,1085.48 "/>
<path class="Beam" fill-rule="evenodd" d="M1420.02,1104.23 L1728.63,1104.23 L1728.63,1116.73 L1420.02,1116.73 L1420.02,1104.23 "/>
<path class="Beam" fill-rule="evenodd" d="M1462.09,629.233 L1767.69,629.233 L1767.69,641.733 L1462.09,641.733 L1462.09,629.233 "/>
<path class="Beam" fill-rule="evenodd" d="M1865.23,610.483 L2170.82,610.483 L2170.82,622.983 L1865.23,622.983 L1865.23,610.483 "/>
</svg>
