<?xml version="1.0" encoding="UTF-8" standalone="no"?>
<svg width="2977.2px" height="4208.4px" viewBox="0 0 2977.2 4208.4"
 xmlns="http://www.w3.org/2000/svg" xmlns:xlink="http://www.w3.org/1999/xlink" version="1.2" baseProfile="tiny">
<title>C_Pentatonic_Scale.mscx</title>
<desc>Generated by MuseScore Studio 4.3.1</desc>
<path class="" fill="#ffffff" fill-rule="evenodd" d="M0,0 L2977.2,0 L2977.2,4208.4 L0,4208.4 L0,0 "/>
<polyline class="StaffLines" fill="none" stroke="#000000" stroke-width="2.00" stroke-linejoin="bevel" points="141.732,566.733 2835.47,566.733"/>
<polyline class="StaffLines" fill="none" stroke="#000000" stroke-width="2.00" stroke-linejoin="bevel" points="141.732,591.733 2835.47,591.733"/>
<polyline class="StaffLines" fill="none" stroke="#000000" stroke-width="2.00" stroke-linejoin="bevel" points="141.732,616.733 2835.47,616.733"/>
<polyline class="StaffLines" fill="none" stroke="#000000" stroke-width="2.00" stroke-linejoin="bevel" points="141.732,641.733 2835.47,641.733"/>
<polyline class="StaffLines" fill="none" stroke="#000000" stroke-width="2.00" stroke-linejoin="bevel" points="141.732,666.733 2835.47,666.733"/>
<polyline class="BarLine" fill="none" stroke="#000000" stroke-width="4.00" stroke-linejoin="bevel" points="2804.72,565.733 2804.72,667.733"/>
<polyline class="BarLine" fill="none" stroke="#000000" stroke-width="12.50" stroke-linejoin="bevel" points="2829.22,565.733 2829.22,667.733"/>
<polyline class="BarLine" fill="none" stroke="#000000" stroke-width="4.00" stroke-linejoin="bevel" points="1971.1,565.733 1971.1,667.733"/>
<polyline class="BarLine" fill="none" stroke="#000000" stroke-width="4.00" stroke-linejoin="bevel" points="1137.49,565.733 1137.49,667.733"/>
<polyline class="LedgerLine" fill="none" stroke="#000000" stroke-width="4.00" stroke-linejoin="bevel" points="1359.89,516.733 1411.81,516.733"/>
<polyline class="LedgerLine" fill="none" stroke="#000000" stroke-width="4.00" stroke-linejoin="bevel" points="1759.7,541.733 1811.61,541.733"/>
<polyline class="LedgerLine" fill="none" stroke="#000000" stroke-width="4.00" stroke-linejoin="bevel" points="1559.8,516.733 1611.71,516.733"/>
<polyline class="LedgerLine" fill="none" stroke="#000000" stroke-width="4.00" stroke-linejoin="bevel" points="1559.8,541.733 1611.71,541.733"/>
<polyline class="LedgerLine" fill="none" stroke="#000000" stroke-width="4.00" stroke-linejoin="bevel" points="1359.89,541.733 1411.81,541.733"/>
<polyline class="LedgerLine" fill="none" stroke="#000000" stroke-width="4.00" stroke-linejoin="bevel" points="1159.99,541.733 1211.9,541.733"/>
<polyline class="Stem" fill="none" stroke="#000000" stroke-width="3.25" stroke-linejoin="bevel" points="937.209,560.102 937.209,641.733"/>
<polyline class="Stem" fill="none" stroke="#000000" stroke-width="3.25" stroke-linejoin="bevel" points="2604.44,610.102 2604.44,685.483"/>
<polyline class="Stem" fill="none" stroke="#000000" stroke-width="3.25" stroke-linejoin="bevel" points="2404.54,597.602 2404.54,679.233"/>
<polyline class="Stem" fill="none" stroke="#000000" stroke-width="3.25" stroke-linejoin="bevel" points="2204.63,585.102 2204.63,666.733"/>
<polyline class="Stem" fill="none" stroke="#000000" stroke-width="3.25" stroke-linejoin="bevel" points="2004.73,560.102 2004.73,641.733"/>
<polyline class="Stem" fill="none" stroke="#000000" stroke-width="3.25" stroke-linejoin="bevel" points="337.498,610.102 337.498,685.483"/>
<polyline class="Stem" fill="none" stroke="#000000" stroke-width="3.25" stroke-linejoin="bevel" points="1770.82,547.602 1770.82,629.233"/>
<polyline class="Stem" fill="none" stroke="#000000" stroke-width="3.25" stroke-linejoin="bevel" points="537.402,597.602 537.402,679.233"/>
<polyline class="Stem" fill="none" stroke="#000000" stroke-width="3.25" stroke-linejoin="bevel" points="1570.92,522.602 1570.92,616.733"/>
<polyline class="Stem" fill="none" stroke="#000000" stroke-width="3.25" stroke-linejoin="bevel" points="1371.02,522.602 1371.02,616.733"/>
<polyline class="Stem" fill="none" stroke="#000000" stroke-width="3.25" stroke-linejoin="bevel" points="737.306,585.102 737.306,666.733"/>
<polyline class="Stem" fill="none" stroke="#000000" stroke-width="3.25" stroke-linejoin="bevel" points="1171.11,547.602 1171.11,629.233"/>
<path class="Note" d="M1391.36,502.967 C1394.49,502.967 1397.09,503.748 1399.17,505.311 C1401.26,506.873 1402.3,509.118 1402.3,512.045 C1402.3,516.535 1399.97,520.733 1395.32,524.639 C1390.67,528.545 1385.67,530.498 1380.33,530.498 C1377.2,530.498 1374.57,529.686 1372.42,528.061 C1370.4,526.3 1369.39,524.087 1369.39,521.42 C1369.39,517.056 1371.7,512.889 1376.33,508.92 C1380.95,504.951 1385.96,502.967 1391.36,502.967"/>
<path class="Note" d="M557.746,577.967 C560.871,577.967 563.475,578.748 565.558,580.311 C567.641,581.873 568.683,584.118 568.683,587.045 C568.683,591.535 566.358,595.733 561.707,599.639 C557.056,603.545 552.058,605.498 546.714,605.498 C543.589,605.498 540.954,604.686 538.808,603.061 C536.787,601.3 535.777,599.087 535.777,596.42 C535.777,592.056 538.089,587.889 542.714,583.92 C547.339,579.951 552.35,577.967 557.746,577.967"/>
<path class="Note" d="M357.842,590.467 C360.967,590.467 363.571,591.248 365.654,592.811 C367.738,594.373 368.779,596.618 368.779,599.545 C368.779,604.035 366.454,608.233 361.803,612.139 C357.152,616.045 352.154,617.998 346.811,617.998 C343.686,617.998 341.05,617.186 338.904,615.561 C336.884,613.8 335.873,611.587 335.873,608.92 C335.873,604.556 338.186,600.389 342.811,596.42 C347.436,592.451 352.446,590.467 357.842,590.467"/>
<path class="Note" d="M1591.26,502.967 C1594.39,502.967 1596.99,503.748 1599.08,505.311 C1601.16,506.873 1602.2,509.118 1602.2,512.045 C1602.2,516.535 1599.88,520.733 1595.23,524.639 C1590.57,528.545 1585.58,530.498 1580.23,530.498 C1577.11,530.498 1574.47,529.686 1572.33,528.061 C1570.31,526.3 1569.3,524.087 1569.3,521.42 C1569.3,517.056 1571.61,512.889 1576.23,508.92 C1580.86,504.951 1585.87,502.967 1591.26,502.967"/>
<path class="Note" d="M1191.46,527.967 C1194.58,527.967 1197.19,528.748 1199.27,530.311 C1201.35,531.873 1202.39,534.118 1202.39,537.045 C1202.39,541.535 1200.07,545.733 1195.42,549.639 C1190.77,553.545 1185.77,555.498 1180.43,555.498 C1177.3,555.498 1174.67,554.686 1172.52,553.061 C1170.5,551.3 1169.49,549.087 1169.49,546.42 C1169.49,542.056 1171.8,537.889 1176.43,533.92 C1181.05,529.951 1186.06,527.967 1191.46,527.967"/>
<path class="Note" d="M1791.17,527.967 C1794.29,527.967 1796.9,528.748 1798.98,530.311 C1801.06,531.873 1802.11,534.118 1802.11,537.045 C1802.11,541.535 1799.78,545.733 1795.13,549.639 C1790.48,553.545 1785.48,555.498 1780.14,555.498 C1777.01,555.498 1774.38,554.686 1772.23,553.061 C1770.21,551.3 1769.2,549.087 1769.2,546.42 C1769.2,542.056 1771.51,537.889 1776.14,533.92 C1780.76,529.951 1785.77,527.967 1791.17,527.967"/>
<path class="Note" d="M2624.78,590.467 C2627.91,590.467 2630.51,591.248 2632.6,592.811 C2634.68,594.373 2635.72,596.618 2635.72,599.545 C2635.72,604.035 2633.4,608.233 2628.74,612.139 C2624.09,616.045 2619.1,617.998 2613.75,617.998 C2610.63,617.998 2607.99,617.186 2605.85,615.561 C2603.82,613.8 2602.81,611.587 2602.81,608.92 C2602.81,604.556 2605.13,600.389 2609.75,596.42 C2614.38,592.451 2619.39,590.467 2624.78,590.467"/>
<path class="Note" d="M957.553,540.467 C960.678,540.467 963.282,541.248 965.366,542.811 C967.449,544.373 968.491,546.618 968.491,549.545 C968.491,554.035 966.165,558.233 961.514,562.139 C956.863,566.045 951.866,567.998 946.522,567.998 C943.397,567.998 940.761,567.186 938.616,565.561 C936.595,563.8 935.584,561.587 935.584,558.92 C935.584,554.556 937.897,550.389 942.522,546.42 C947.147,542.451 952.157,540.467 957.553,540.467"/>
<path class="Note" d="M2025.07,540.467 C2028.2,540.467 2030.8,541.248 2032.88,542.811 C2034.97,544.373 2036.01,546.618 2036.01,549.545 C2036.01,554.035 2033.68,558.233 2029.03,562.139 C2024.38,566.045 2019.38,567.998 2014.04,567.998 C2010.92,567.998 2008.28,567.186 2006.13,565.561 C2004.11,563.8 2003.1,561.587 2003.1,558.92 C2003.1,554.556 2005.42,550.389 2010.04,546.42 C2014.67,542.451 2019.68,540.467 2025.07,540.467"/>
<path class="Note" d="M2224.98,565.467 C2228.1,565.467 2230.7,566.248 2232.79,567.811 C2234.87,569.373 2235.91,571.618 2235.91,574.545 C2235.91,579.035 2233.59,583.233 2228.94,587.139 C2224.29,591.045 2219.29,592.998 2213.94,592.998 C2210.82,592.998 2208.18,592.186 2206.04,590.561 C2204.02,588.8 2203.01,586.587 2203.01,583.92 C2203.01,579.556 2205.32,575.389 2209.94,571.42 C2214.57,567.451 2219.58,565.467 2224.98,565.467"/>
<path class="Note" d="M757.649,565.467 C760.774,565.467 763.379,566.248 765.462,567.811 C767.545,569.373 768.587,571.618 768.587,574.545 C768.587,579.035 766.261,583.233 761.61,587.139 C756.959,591.045 751.962,592.998 746.618,592.998 C743.493,592.998 740.858,592.186 738.712,590.561 C736.691,588.8 735.681,586.587 735.681,583.92 C735.681,579.556 737.993,575.389 742.618,571.42 C747.243,567.451 752.254,565.467 757.649,565.467"/>
<path class="Note" d="M2424.88,577.967 C2428,577.967 2430.61,578.748 2432.69,580.311 C2434.78,581.873 2435.82,584.118 2435.82,587.045 C2435.82,591.535 2433.49,595.733 2428.84,599.639 C2424.19,603.545 2419.19,605.498 2413.85,605.498 C2410.72,605.498 2408.09,604.686 2405.94,603.061 C2403.92,601.3 2402.91,599.087 2402.91,596.42 C2402.91,592.056 2405.22,587.889 2409.85,583.92 C2414.47,579.951 2419.48,577.967 2424.88,577.967"/>
<path class="Clef" d="M199.623,673.858 L199.623,671.717 C199.56,670.613 199.399,668.889 199.139,666.545 C195.889,667.066 192.993,667.326 190.451,667.326 C181.337,667.326 173.605,663.727 167.256,656.53 C160.907,649.332 157.732,640.754 157.732,630.795 C157.732,628.129 158.253,624.923 159.295,621.178 C160.337,617.433 161.297,614.925 162.178,613.655 C163.058,612.384 164.378,610.155 166.139,606.967 C166.659,605.988 168.352,603.837 171.217,600.514 C171.738,599.806 172.193,599.222 172.584,598.764 C172.975,598.306 173.607,597.49 174.482,596.319 C175.357,595.147 176.3,594.056 177.31,593.045 C178.321,592.035 179.217,591.058 179.998,590.115 C180.779,589.173 181.498,588.379 182.154,587.733 C179.81,579.983 178.378,574.024 177.857,569.858 C177.337,565.691 177.076,560.579 177.076,554.522 C177.076,548.464 178.378,542.962 180.982,538.014 C183.514,532.879 187.06,528.681 191.623,525.42 C191.883,525.222 192.225,525.123 192.646,525.123 C193.068,525.123 193.378,525.222 193.576,525.42 C197.087,529.649 200.128,535.149 202.701,541.92 C205.274,548.691 206.56,555.024 206.56,560.92 C206.56,566.816 205.066,572.498 202.076,577.967 C198.691,583.759 194.326,589.748 188.982,595.936 C190.347,600.227 192.17,606.962 194.451,616.139 L195.045,616.139 C195.305,616.076 195.529,616.045 195.717,616.045 C203.081,616.045 209.089,618.634 213.74,623.811 C218.391,628.988 220.717,634.962 220.717,641.733 C220.717,650.129 217.238,656.899 210.279,662.045 C208.258,663.545 205.878,664.717 203.139,665.561 C203.472,669.79 203.639,672.605 203.639,674.006 C203.639,675.407 203.571,677.899 203.435,681.483 C203.373,687.597 201.29,692.837 197.185,697.201 C193.081,701.566 188.394,703.748 183.123,703.748 C177.852,703.748 173.36,701.876 169.646,698.131 C165.933,694.386 164.076,689.847 164.076,684.514 C164.076,681.712 165.154,679.332 167.31,677.373 C169.519,675.425 172.006,674.451 174.771,674.451 C177.537,674.451 179.8,675.462 181.56,677.483 C183.383,679.368 184.295,681.644 184.295,684.311 C184.295,686.977 183.383,689.222 181.56,691.045 C179.738,692.868 177.555,693.78 175.014,693.78 C173.972,693.78 172.967,693.587 171.998,693.201 C174.863,697.431 178.54,699.545 183.029,699.545 C187.519,699.545 191.36,697.691 194.553,693.983 C197.745,690.274 199.342,685.91 199.342,680.889 L199.623,673.858 M202.748,661.561 C206.133,660.321 208.821,658.123 210.81,654.967 C212.8,651.811 213.795,648.67 213.795,645.545 C213.795,640.92 212.199,636.785 209.006,633.139 C205.813,629.493 201.774,627.441 196.889,626.983 C199.691,640.722 201.644,652.248 202.748,661.561 M164.967,638.998 C164.967,645.446 167.537,651.079 172.678,655.897 C177.818,660.714 183.842,663.123 190.748,663.123 C193.477,663.123 196.144,662.925 198.748,662.53 C197.706,652.634 195.654,640.785 192.592,626.983 C188.758,627.379 185.782,628.699 183.662,630.944 C181.542,633.188 180.482,635.743 180.482,638.608 C180.482,643.556 183.123,647.561 188.404,650.623 C188.852,650.884 189.076,651.324 189.076,651.944 C189.076,652.563 188.865,653.1 188.443,653.553 C188.021,654.006 187.649,654.233 187.326,654.233 C187.003,654.233 186.581,654.17 186.06,654.045 C178.435,649.879 174.623,643.592 174.623,635.186 C174.623,631.217 176.024,627.41 178.826,623.764 C181.753,620.118 185.56,617.774 190.248,616.733 C188.425,609.441 186.93,603.743 185.764,599.639 C176.847,609.67 171.31,617.092 169.154,621.905 C166.363,628.155 164.967,633.852 164.967,638.998 M197.576,539.686 C192.691,542.092 188.834,545.574 186.006,550.131 C183.178,554.688 181.764,559.472 181.764,564.483 C181.764,569.493 182.935,575.972 185.279,583.92 C189.967,578.254 193.514,572.946 195.92,567.998 C198.326,563.05 199.529,558.152 199.529,553.303 C199.529,548.454 198.878,543.915 197.576,539.686"/>
<path class="TimeSig" d="M269.021,567.912 C270.516,567.912 271.949,567.686 273.318,567.233 C274.688,566.78 275.665,566.553 276.248,566.553 C276.831,566.553 277.222,566.907 277.42,567.615 C277.42,567.688 277.352,567.886 277.217,568.209 L248.811,601.225 L265.498,601.225 L265.498,588.131 C265.498,586.506 266.446,585.334 268.342,584.615 C270.29,583.897 272.503,581.001 274.982,575.928 C275.17,575.532 275.462,575.334 275.857,575.334 C276.639,575.334 277.092,575.793 277.217,576.709 L277.217,601.225 L284.357,601.225 C285.264,601.225 285.751,601.712 285.818,602.686 C285.886,603.66 285.399,604.147 284.357,604.147 L277.217,604.147 L277.217,604.928 C277.217,607.532 277.868,609.746 279.17,611.569 C280.67,613.391 282.43,614.303 284.451,614.303 C285.232,614.303 285.623,614.694 285.623,615.475 C285.623,616.256 285.087,616.647 284.014,616.647 C282.941,616.647 280.938,616.436 278.006,616.014 C275.074,615.592 272.811,615.381 271.217,615.381 C269.623,615.381 267.41,615.592 264.576,616.014 C261.743,616.436 259.613,616.647 258.186,616.647 C257.404,616.647 257.014,616.256 257.014,615.475 C257.014,614.694 257.404,614.303 258.186,614.303 C260.196,614.303 261.951,613.391 263.451,611.569 C264.816,609.683 265.498,607.47 265.498,604.928 L265.498,604.147 L248.811,604.147 C247.956,604.147 247.219,603.92 246.6,603.467 C245.98,603.014 245.67,602.592 245.67,602.201 C245.67,601.811 246.485,600.639 248.115,598.686 C249.745,596.733 252.074,592.972 255.1,587.405 C258.126,581.837 259.639,575.438 259.639,568.209 C259.639,567.168 260.097,566.647 261.014,566.647 C261.212,566.647 261.521,566.712 261.943,566.842 C262.365,566.972 263.277,567.183 264.678,567.475 C266.079,567.766 267.527,567.912 269.021,567.912"/>
<path class="TimeSig" d="M269.021,618.084 C270.516,618.084 271.949,617.858 273.318,617.405 C274.688,616.951 275.665,616.725 276.248,616.725 C276.831,616.725 277.222,617.079 277.42,617.787 C277.42,617.86 277.352,618.058 277.217,618.381 L248.811,651.397 L265.498,651.397 L265.498,638.303 C265.498,636.678 266.446,635.506 268.342,634.787 C270.29,634.069 272.503,631.173 274.982,626.1 C275.17,625.704 275.462,625.506 275.857,625.506 C276.639,625.506 277.092,625.964 277.217,626.881 L277.217,651.397 L284.357,651.397 C285.264,651.397 285.751,651.884 285.818,652.858 C285.886,653.832 285.399,654.319 284.357,654.319 L277.217,654.319 L277.217,655.1 C277.217,657.704 277.868,659.918 279.17,661.74 C280.67,663.563 282.43,664.475 284.451,664.475 C285.232,664.475 285.623,664.865 285.623,665.647 C285.623,666.428 285.087,666.819 284.014,666.819 C282.941,666.819 280.938,666.608 278.006,666.186 C275.074,665.764 272.811,665.553 271.217,665.553 C269.623,665.553 267.41,665.764 264.576,666.186 C261.743,666.608 259.613,666.819 258.186,666.819 C257.404,666.819 257.014,666.428 257.014,665.647 C257.014,664.865 257.404,664.475 258.186,664.475 C260.196,664.475 261.951,663.563 263.451,661.74 C264.816,659.855 265.498,657.642 265.498,655.1 L265.498,654.319 L248.811,654.319 C247.956,654.319 247.219,654.092 246.6,653.639 C245.98,653.186 245.67,652.764 245.67,652.373 C245.67,651.983 246.485,650.811 248.115,648.858 C249.745,646.905 252.074,643.144 255.1,637.576 C258.126,632.009 259.639,625.61 259.639,618.381 C259.639,617.339 260.097,616.819 261.014,616.819 C261.212,616.819 261.521,616.884 261.943,617.014 C262.365,617.144 263.277,617.355 264.678,617.647 C266.079,617.938 267.527,618.084 269.021,618.084"/>
</svg>
