<?xml version="1.0" encoding="UTF-8" standalone="no"?>
<svg width="2977.2px" height="4208.4px" viewBox="0 0 2977.2 4208.4"
 xmlns="http://www.w3.org/2000/svg" xmlns:xlink="http://www.w3.org/1999/xlink" version="1.2" baseProfile="tiny">
<title>Ab_Maj_Pentatonic.mscx</title>
<desc>Generated by MuseScore Studio 4.3.1</desc>
<path class="" fill="#ffffff" fill-rule="evenodd" d="M0,0 L2977.2,0 L2977.2,4208.4 L0,4208.4 L0,0 "/>
<polyline class="StaffLines" fill="none" stroke="#000000" stroke-width="2.00" stroke-linejoin="bevel" points="141.732,566.733 2835.47,566.733"/>
<polyline class="StaffLines" fill="none" stroke="#000000" stroke-width="2.00" stroke-linejoin="bevel" points="141.732,591.733 2835.47,591.733"/>
<polyline class="StaffLines" fill="none" stroke="#000000" stroke-width="2.00" stroke-linejoin="bevel" points="141.732,616.733 2835.47,616.733"/>
<polyline class="StaffLines" fill="none" stroke="#000000" stroke-width="2.00" stroke-linejoin="bevel" points="141.732,641.733 2835.47,641.733"/>
<polyline class="StaffLines" fill="none" stroke="#000000" stroke-width="2.00" stroke-linejoin="bevel" points="141.732,666.733 2835.47,666.733"/>
<polyline class="BarLine" fill="none" stroke="#000000" stroke-width="4.00" stroke-linejoin="bevel" points="1061.22,565.733 1061.22,667.733"/>
<polyline class="BarLine" fill="none" stroke="#000000" stroke-width="4.00" stroke-linejoin="bevel" points="2547.92,565.733 2547.92,667.733"/>
<polyline class="BarLine" fill="none" stroke="#000000" stroke-width="4.00" stroke-linejoin="bevel" points="1305.5,565.733 1305.5,667.733"/>
<polyline class="BarLine" fill="none" stroke="#000000" stroke-width="4.00" stroke-linejoin="bevel" points="2303.65,565.733 2303.65,667.733"/>
<polyline class="BarLine" fill="none" stroke="#000000" stroke-width="4.00" stroke-linejoin="bevel" points="2802.72,565.733 2802.72,667.733"/>
<polyline class="BarLine" fill="none" stroke="#000000" stroke-width="12.50" stroke-linejoin="bevel" points="2829.22,565.733 2829.22,667.733"/>
<polyline class="BarLine" fill="none" stroke="#000000" stroke-width="4.00" stroke-linejoin="bevel" points="1560.3,565.733 1560.3,667.733"/>
<polyline class="BarLine" fill="none" stroke="#000000" stroke-width="4.00" stroke-linejoin="bevel" points="2059.37,565.733 2059.37,667.733"/>
<polyline class="BarLine" fill="none" stroke="#000000" stroke-width="4.00" stroke-linejoin="bevel" points="572.667,565.733 572.667,667.733"/>
<polyline class="BarLine" fill="none" stroke="#000000" stroke-width="4.00" stroke-linejoin="bevel" points="816.945,565.733 816.945,667.733"/>
<polyline class="BarLine" fill="none" stroke="#000000" stroke-width="4.00" stroke-linejoin="bevel" points="1815.09,565.733 1815.09,667.733"/>
<path class="Accidental" d="M1678.37,634.311 L1677.11,572.201 C1677.11,571.222 1677.87,570.733 1679.41,570.733 C1680.94,570.733 1681.7,571.222 1681.7,572.201 L1680.92,606.092 C1682.68,604.332 1684.19,603.11 1685.46,602.428 C1686.73,601.746 1688.45,601.405 1690.63,601.405 C1692.81,601.405 1694.83,602.412 1696.69,604.428 C1698.54,606.444 1699.47,608.951 1699.47,611.951 C1699.47,616.441 1694.75,622.66 1685.31,630.608 C1681.8,633.795 1679.98,635.389 1679.84,635.389 L1679.26,635.389 C1678.67,635.389 1678.37,635.03 1678.37,634.311 M1680.83,609.217 L1680.53,631.389 C1682.55,629.493 1684.6,626.347 1686.69,621.951 C1688.77,617.556 1689.81,613.795 1689.81,610.67 C1689.81,609.108 1689.55,607.675 1689.03,606.373 C1688.51,605.071 1687.69,604.42 1686.59,604.42 C1685.48,604.42 1684.48,604.811 1683.6,605.592 C1682.72,606.373 1681.8,607.582 1680.83,609.217"/>
<path class="Accidental" d="M1571.19,646.811 L1569.92,584.701 C1569.92,583.722 1570.69,583.233 1572.22,583.233 C1573.75,583.233 1574.51,583.722 1574.51,584.701 L1573.73,618.592 C1575.49,616.832 1577.01,615.61 1578.27,614.928 C1579.54,614.246 1581.26,613.905 1583.44,613.905 C1585.63,613.905 1587.64,614.912 1589.5,616.928 C1591.35,618.944 1592.28,621.451 1592.28,624.451 C1592.28,628.941 1587.56,635.16 1578.12,643.108 C1574.61,646.295 1572.79,647.889 1572.66,647.889 L1572.08,647.889 C1571.48,647.889 1571.19,647.53 1571.19,646.811 M1573.64,621.717 L1573.34,643.889 C1575.36,641.993 1577.42,638.847 1579.5,634.451 C1581.58,630.056 1582.62,626.295 1582.62,623.17 C1582.62,621.608 1582.36,620.175 1581.84,618.873 C1581.32,617.571 1580.51,616.92 1579.4,616.92 C1578.29,616.92 1577.29,617.311 1576.41,618.092 C1575.53,618.873 1574.61,620.082 1573.64,621.717"/>
<path class="Accidental" d="M1922.65,596.811 L1921.39,534.701 C1921.39,533.722 1922.15,533.233 1923.68,533.233 C1925.22,533.233 1925.98,533.722 1925.98,534.701 L1925.2,568.592 C1926.96,566.832 1928.47,565.61 1929.74,564.928 C1931,564.246 1932.73,563.905 1934.91,563.905 C1937.09,563.905 1939.11,564.912 1940.97,566.928 C1942.82,568.944 1943.75,571.451 1943.75,574.451 C1943.75,578.941 1939.03,585.16 1929.59,593.108 C1926.08,596.295 1924.26,597.889 1924.12,597.889 L1923.54,597.889 C1922.95,597.889 1922.65,597.53 1922.65,596.811 M1925.11,571.717 L1924.81,593.889 C1926.83,591.993 1928.88,588.847 1930.97,584.451 C1933.05,580.056 1934.09,576.295 1934.09,573.17 C1934.09,571.608 1933.83,570.175 1933.31,568.873 C1932.79,567.571 1931.97,566.92 1930.86,566.92 C1929.75,566.92 1928.76,567.311 1927.88,568.092 C1927,568.873 1926.07,570.082 1925.11,571.717"/>
<path class="Accidental" d="M2166.93,596.811 L2165.67,534.701 C2165.67,533.722 2166.43,533.233 2167.96,533.233 C2169.49,533.233 2170.26,533.722 2170.26,534.701 L2169.48,568.592 C2171.24,566.832 2172.75,565.61 2174.02,564.928 C2175.28,564.246 2177.01,563.905 2179.19,563.905 C2181.37,563.905 2183.39,564.912 2185.24,566.928 C2187.1,568.944 2188.02,571.451 2188.02,574.451 C2188.02,578.941 2183.31,585.16 2173.87,593.108 C2170.36,596.295 2168.54,597.889 2168.4,597.889 L2167.82,597.889 C2167.23,597.889 2166.93,597.53 2166.93,596.811 M2169.38,571.717 L2169.09,593.889 C2171.11,591.993 2173.16,588.847 2175.24,584.451 C2177.33,580.056 2178.37,576.295 2178.37,573.17 C2178.37,571.608 2178.11,570.175 2177.59,568.873 C2177.07,567.571 2176.25,566.92 2175.14,566.92 C2174.03,566.92 2173.04,567.311 2172.16,568.092 C2171.28,568.873 2170.35,570.082 2169.38,571.717"/>
<path class="Accidental" d="M1316.39,646.811 L1315.13,584.701 C1315.13,583.722 1315.89,583.233 1317.42,583.233 C1318.95,583.233 1319.72,583.722 1319.72,584.701 L1318.94,618.592 C1320.7,616.832 1322.21,615.61 1323.48,614.928 C1324.74,614.246 1326.47,613.905 1328.65,613.905 C1330.83,613.905 1332.85,614.912 1334.7,616.928 C1336.56,618.944 1337.49,621.451 1337.49,624.451 C1337.49,628.941 1332.77,635.16 1323.33,643.108 C1319.82,646.295 1318,647.889 1317.86,647.889 L1317.28,647.889 C1316.69,647.889 1316.39,647.53 1316.39,646.811 M1318.85,621.717 L1318.55,643.889 C1320.57,641.993 1322.62,638.847 1324.7,634.451 C1326.79,630.056 1327.83,626.295 1327.83,623.17 C1327.83,621.608 1327.57,620.175 1327.05,618.873 C1326.53,617.571 1325.71,616.92 1324.6,616.92 C1323.49,616.92 1322.5,617.311 1321.62,618.092 C1320.74,618.873 1319.81,620.082 1318.85,621.717"/>
<path class="Accidental" d="M2411.21,634.311 L2409.94,572.201 C2409.94,571.222 2410.71,570.733 2412.24,570.733 C2413.77,570.733 2414.54,571.222 2414.54,572.201 L2413.76,606.092 C2415.52,604.332 2417.03,603.11 2418.3,602.428 C2419.56,601.746 2421.28,601.405 2423.47,601.405 C2425.65,601.405 2427.67,602.412 2429.52,604.428 C2431.38,606.444 2432.3,608.951 2432.3,611.951 C2432.3,616.441 2427.58,622.66 2418.15,630.608 C2414.64,633.795 2412.81,635.389 2412.68,635.389 L2412.1,635.389 C2411.51,635.389 2411.21,635.03 2411.21,634.311 M2413.66,609.217 L2413.37,631.389 C2415.39,629.493 2417.44,626.347 2419.52,621.951 C2421.6,617.556 2422.65,613.795 2422.65,610.67 C2422.65,609.108 2422.39,607.675 2421.87,606.373 C2421.34,605.071 2420.53,604.42 2419.42,604.42 C2418.31,604.42 2417.32,604.811 2416.44,605.592 C2415.56,606.373 2414.63,607.582 2413.66,609.217"/>
<path class="Accidental" d="M2558.82,646.811 L2557.55,584.701 C2557.55,583.722 2558.32,583.233 2559.85,583.233 C2561.38,583.233 2562.14,583.722 2562.14,584.701 L2561.36,618.592 C2563.12,616.832 2564.64,615.61 2565.9,614.928 C2567.17,614.246 2568.89,613.905 2571.07,613.905 C2573.26,613.905 2575.27,614.912 2577.13,616.928 C2578.98,618.944 2579.91,621.451 2579.91,624.451 C2579.91,628.941 2575.19,635.16 2565.75,643.108 C2562.24,646.295 2560.42,647.889 2560.28,647.889 L2559.71,647.889 C2559.11,647.889 2558.82,647.53 2558.82,646.811 M2561.27,621.717 L2560.97,643.889 C2562.99,641.993 2565.04,638.847 2567.13,634.451 C2569.21,630.056 2570.25,626.295 2570.25,623.17 C2570.25,621.608 2569.99,620.175 2569.47,618.873 C2568.95,617.571 2568.14,616.92 2567.03,616.92 C2565.92,616.92 2564.92,617.311 2564.04,618.092 C2563.16,618.873 2562.24,620.082 2561.27,621.717"/>
<path class="Accidental" d="M1168.79,634.311 L1167.52,572.201 C1167.52,571.222 1168.29,570.733 1169.82,570.733 C1171.35,570.733 1172.11,571.222 1172.11,572.201 L1171.33,606.092 C1173.09,604.332 1174.61,603.11 1175.87,602.428 C1177.14,601.746 1178.86,601.405 1181.04,601.405 C1183.23,601.405 1185.24,602.412 1187.1,604.428 C1188.95,606.444 1189.88,608.951 1189.88,611.951 C1189.88,616.441 1185.16,622.66 1175.72,630.608 C1172.21,633.795 1170.39,635.389 1170.26,635.389 L1169.68,635.389 C1169.08,635.389 1168.79,635.03 1168.79,634.311 M1171.24,609.217 L1170.94,631.389 C1172.96,629.493 1175.02,626.347 1177.1,621.951 C1179.18,617.556 1180.22,613.795 1180.22,610.67 C1180.22,609.108 1179.96,607.675 1179.44,606.373 C1178.92,605.071 1178.11,604.42 1177,604.42 C1175.89,604.42 1174.89,604.811 1174.01,605.592 C1173.13,606.373 1172.21,607.582 1171.24,609.217"/>
<path class="Accidental" d="M924.508,596.811 L923.243,534.701 C923.243,533.722 924.008,533.233 925.539,533.233 C927.071,533.233 927.836,533.722 927.836,534.701 L927.055,568.592 C928.816,566.832 930.329,565.61 931.594,564.928 C932.86,564.246 934.584,563.905 936.766,563.905 C938.948,563.905 940.967,564.912 942.821,566.928 C944.675,568.944 945.602,571.451 945.602,574.451 C945.602,578.941 940.883,585.16 931.446,593.108 C927.935,596.295 926.112,597.889 925.977,597.889 L925.399,597.889 C924.805,597.889 924.508,597.53 924.508,596.811 M926.961,571.717 L926.664,593.889 C928.685,591.993 930.737,588.847 932.821,584.451 C934.904,580.056 935.946,576.295 935.946,573.17 C935.946,571.608 935.685,570.175 935.164,568.873 C934.644,567.571 933.829,566.92 932.719,566.92 C931.61,566.92 930.615,567.311 929.735,568.092 C928.855,568.873 927.93,570.082 926.961,571.717"/>
<path class="Accidental" d="M328.764,646.811 L327.498,584.701 C327.498,583.722 328.264,583.233 329.795,583.233 C331.326,583.233 332.092,583.722 332.092,584.701 L331.311,618.592 C333.071,616.832 334.584,615.61 335.85,614.928 C337.115,614.246 338.839,613.905 341.022,613.905 C343.204,613.905 345.222,614.912 347.076,616.928 C348.93,618.944 349.857,621.451 349.857,624.451 C349.857,628.941 345.139,635.16 335.701,643.108 C332.191,646.295 330.368,647.889 330.232,647.889 L329.654,647.889 C329.061,647.889 328.764,647.53 328.764,646.811 M331.217,621.717 L330.92,643.889 C332.941,641.993 334.993,638.847 337.076,634.451 C339.16,630.056 340.201,626.295 340.201,623.17 C340.201,621.608 339.941,620.175 339.42,618.873 C338.899,617.571 338.084,616.92 336.975,616.92 C335.865,616.92 334.87,617.311 333.99,618.092 C333.11,618.873 332.186,620.082 331.217,621.717"/>
<path class="Accidental" d="M435.952,634.311 L434.686,572.201 C434.686,571.222 435.452,570.733 436.983,570.733 C438.514,570.733 439.28,571.222 439.28,572.201 L438.499,606.092 C440.259,604.332 441.772,603.11 443.038,602.428 C444.303,601.746 446.027,601.405 448.209,601.405 C450.392,601.405 452.41,602.412 454.264,604.428 C456.118,606.444 457.045,608.951 457.045,611.951 C457.045,616.441 452.327,622.66 442.889,630.608 C439.379,633.795 437.556,635.389 437.42,635.389 L436.842,635.389 C436.249,635.389 435.952,635.03 435.952,634.311 M438.405,609.217 L438.108,631.389 C440.129,629.493 442.181,626.347 444.264,621.951 C446.348,617.556 447.389,613.795 447.389,610.67 C447.389,609.108 447.129,607.675 446.608,606.373 C446.087,605.071 445.272,604.42 444.163,604.42 C443.053,604.42 442.058,604.811 441.178,605.592 C440.298,606.373 439.374,607.582 438.405,609.217"/>
<path class="Accidental" d="M680.23,596.811 L678.964,534.701 C678.964,533.722 679.73,533.233 681.261,533.233 C682.792,533.233 683.558,533.722 683.558,534.701 L682.777,568.592 C684.537,566.832 686.05,565.61 687.316,564.928 C688.582,564.246 690.305,563.905 692.488,563.905 C694.67,563.905 696.688,564.912 698.542,566.928 C700.397,568.944 701.324,571.451 701.324,574.451 C701.324,578.941 696.605,585.16 687.167,593.108 C683.657,596.295 681.834,597.889 681.699,597.889 L681.121,597.889 C680.527,597.889 680.23,597.53 680.23,596.811 M682.683,571.717 L682.386,593.889 C684.407,591.993 686.459,588.847 688.542,584.451 C690.626,580.056 691.667,576.295 691.667,573.17 C691.667,571.608 691.407,570.175 690.886,568.873 C690.365,567.571 689.55,566.92 688.441,566.92 C687.332,566.92 686.337,567.311 685.457,568.092 C684.576,568.873 683.652,570.082 682.683,571.717"/>
<polyline class="Stem" fill="none" stroke="#000000" stroke-width="3.25" stroke-linejoin="bevel" points="1197.04,621.633 1197.04,691.733"/>
<polyline class="Stem" fill="none" stroke="#000000" stroke-width="3.25" stroke-linejoin="bevel" points="2618.53,624.433 2618.53,547.983"/>
<polyline class="Stem" fill="none" stroke="#000000" stroke-width="3.25" stroke-linejoin="bevel" points="2439.46,621.633 2439.46,691.733"/>
<polyline class="Stem" fill="none" stroke="#000000" stroke-width="3.25" stroke-linejoin="bevel" points="2332.27,609.133 2332.27,685.483"/>
<polyline class="Stem" fill="none" stroke="#000000" stroke-width="3.25" stroke-linejoin="bevel" points="388.483,624.433 388.483,547.983"/>
<polyline class="Stem" fill="none" stroke="#000000" stroke-width="3.25" stroke-linejoin="bevel" points="2195.18,584.133 2195.18,666.733"/>
<polyline class="Stem" fill="none" stroke="#000000" stroke-width="3.25" stroke-linejoin="bevel" points="2087.99,571.633 2087.99,654.233"/>
<polyline class="Stem" fill="none" stroke="#000000" stroke-width="3.25" stroke-linejoin="bevel" points="464.202,621.633 464.202,691.733"/>
<polyline class="Stem" fill="none" stroke="#000000" stroke-width="3.25" stroke-linejoin="bevel" points="1950.9,584.133 1950.9,666.733"/>
<polyline class="Stem" fill="none" stroke="#000000" stroke-width="3.25" stroke-linejoin="bevel" points="1843.71,609.133 1843.71,685.483"/>
<polyline class="Stem" fill="none" stroke="#000000" stroke-width="3.25" stroke-linejoin="bevel" points="601.292,609.133 601.292,685.483"/>
<polyline class="Stem" fill="none" stroke="#000000" stroke-width="3.25" stroke-linejoin="bevel" points="708.48,584.133 708.48,666.733"/>
<polyline class="Stem" fill="none" stroke="#000000" stroke-width="3.25" stroke-linejoin="bevel" points="1706.62,621.633 1706.62,691.733"/>
<polyline class="Stem" fill="none" stroke="#000000" stroke-width="3.25" stroke-linejoin="bevel" points="1630.91,624.433 1630.91,547.983"/>
<polyline class="Stem" fill="none" stroke="#000000" stroke-width="3.25" stroke-linejoin="bevel" points="845.57,571.633 845.57,654.233"/>
<polyline class="Stem" fill="none" stroke="#000000" stroke-width="3.25" stroke-linejoin="bevel" points="1089.85,609.133 1089.85,685.483"/>
<polyline class="Stem" fill="none" stroke="#000000" stroke-width="3.25" stroke-linejoin="bevel" points="952.758,584.133 952.758,666.733"/>
<polyline class="Stem" fill="none" stroke="#000000" stroke-width="3.25" stroke-linejoin="bevel" points="1376.11,624.433 1376.11,547.983"/>
<path class="Note" d="M2200.98,589.873 C2202.86,589.873 2206.82,587.92 2212.84,584.014 C2218.87,580.108 2222.42,577.488 2223.49,576.155 C2224.57,574.821 2225.1,573.634 2225.1,572.592 C2225.1,571.55 2224.68,570.623 2223.83,569.811 C2222.98,568.998 2222,568.592 2220.9,568.592 C2218.95,568.592 2214.96,570.561 2208.94,574.498 C2202.91,578.436 2199.38,581.056 2198.34,582.358 C2197.3,583.66 2196.77,584.832 2196.77,585.873 C2196.77,586.915 2197.18,587.842 2198,588.655 C2198.82,589.467 2199.81,589.873 2200.98,589.873 M2219.93,565.467 C2225.52,565.467 2228.32,567.873 2228.32,572.686 C2228.32,575.03 2227.64,577.748 2226.27,580.842 C2224.91,583.936 2223.09,586.295 2220.81,587.92 C2215.8,591.306 2209.51,592.998 2201.96,592.998 C2196.36,592.998 2193.56,590.592 2193.56,585.78 C2193.56,583.634 2194.22,580.964 2195.56,577.772 C2196.89,574.579 2198.73,572.17 2201.07,570.545 C2206.09,567.16 2212.38,565.467 2219.93,565.467"/>
<path class="Note" d="M2592.86,639.873 C2594.75,639.873 2598.7,637.92 2604.73,634.014 C2610.76,630.108 2614.3,627.488 2615.38,626.155 C2616.45,624.821 2616.99,623.634 2616.99,622.592 C2616.99,621.55 2616.56,620.623 2615.71,619.811 C2614.86,618.998 2613.89,618.592 2612.78,618.592 C2610.84,618.592 2606.85,620.561 2600.82,624.498 C2594.8,628.436 2591.26,631.056 2590.22,632.358 C2589.18,633.66 2588.66,634.832 2588.66,635.873 C2588.66,636.915 2589.07,637.842 2589.89,638.655 C2590.7,639.467 2591.7,639.873 2592.86,639.873 M2611.82,615.467 C2617.41,615.467 2620.21,617.873 2620.21,622.686 C2620.21,625.03 2619.52,627.748 2618.16,630.842 C2616.79,633.936 2614.97,636.295 2612.69,637.92 C2607.68,641.306 2601.4,642.998 2593.85,642.998 C2588.24,642.998 2585.44,640.592 2585.44,635.78 C2585.44,633.634 2586.11,630.964 2587.44,627.772 C2588.77,624.579 2590.61,622.17 2592.96,620.545 C2597.98,617.16 2604.26,615.467 2611.82,615.467"/>
<path class="Note" d="M1095.65,614.873 C1097.53,614.873 1101.49,612.92 1107.51,609.014 C1113.54,605.108 1117.09,602.488 1118.16,601.155 C1119.23,599.821 1119.77,598.634 1119.77,597.592 C1119.77,596.55 1119.35,595.623 1118.5,594.811 C1117.65,593.998 1116.67,593.592 1115.57,593.592 C1113.62,593.592 1109.63,595.561 1103.61,599.498 C1097.58,603.436 1094.05,606.056 1093,607.358 C1091.96,608.66 1091.44,609.832 1091.44,610.873 C1091.44,611.915 1091.85,612.842 1092.67,613.655 C1093.49,614.467 1094.48,614.873 1095.65,614.873 M1114.6,590.467 C1120.19,590.467 1122.99,592.873 1122.99,597.686 C1122.99,600.03 1122.31,602.748 1120.94,605.842 C1119.58,608.936 1117.75,611.295 1115.47,612.92 C1110.46,616.306 1104.18,617.998 1096.63,617.998 C1091.03,617.998 1088.22,615.592 1088.22,610.78 C1088.22,608.634 1088.89,605.964 1090.22,602.772 C1091.56,599.579 1093.4,597.17 1095.74,595.545 C1100.76,592.16 1107.05,590.467 1114.6,590.467"/>
<path class="Note" d="M2445.26,627.373 C2447.14,627.373 2451.1,625.42 2457.12,621.514 C2463.15,617.608 2466.7,614.988 2467.77,613.655 C2468.84,612.321 2469.38,611.134 2469.38,610.092 C2469.38,609.05 2468.96,608.123 2468.11,607.311 C2467.26,606.498 2466.28,606.092 2465.18,606.092 C2463.23,606.092 2459.24,608.061 2453.22,611.998 C2447.19,615.936 2443.66,618.556 2442.62,619.858 C2441.57,621.16 2441.05,622.332 2441.05,623.373 C2441.05,624.415 2441.46,625.342 2442.28,626.155 C2443.1,626.967 2444.09,627.373 2445.26,627.373 M2464.21,602.967 C2469.8,602.967 2472.6,605.373 2472.6,610.186 C2472.6,612.53 2471.92,615.248 2470.55,618.342 C2469.19,621.436 2467.37,623.795 2465.08,625.42 C2460.07,628.806 2453.79,630.498 2446.24,630.498 C2440.64,630.498 2437.83,628.092 2437.83,623.28 C2437.83,621.134 2438.5,618.464 2439.83,615.272 C2441.17,612.079 2443.01,609.67 2445.35,608.045 C2450.37,604.66 2456.66,602.967 2464.21,602.967"/>
<path class="Note" d="M1202.83,627.373 C1204.72,627.373 1208.67,625.42 1214.7,621.514 C1220.73,617.608 1224.28,614.988 1225.35,613.655 C1226.42,612.321 1226.96,611.134 1226.96,610.092 C1226.96,609.05 1226.53,608.123 1225.68,607.311 C1224.84,606.498 1223.86,606.092 1222.76,606.092 C1220.81,606.092 1216.82,608.061 1210.79,611.998 C1204.77,615.936 1201.23,618.556 1200.19,619.858 C1199.15,621.16 1198.63,622.332 1198.63,623.373 C1198.63,624.415 1199.04,625.342 1199.86,626.155 C1200.67,626.967 1201.67,627.373 1202.83,627.373 M1221.79,602.967 C1227.38,602.967 1230.18,605.373 1230.18,610.186 C1230.18,612.53 1229.49,615.248 1228.13,618.342 C1226.77,621.436 1224.94,623.795 1222.66,625.42 C1217.65,628.806 1211.37,630.498 1203.82,630.498 C1198.21,630.498 1195.41,628.092 1195.41,623.28 C1195.41,621.134 1196.08,618.464 1197.41,615.272 C1198.74,612.079 1200.58,609.67 1202.93,608.045 C1207.95,604.66 1214.23,602.967 1221.79,602.967"/>
<path class="Note" d="M2338.07,614.873 C2339.95,614.873 2343.91,612.92 2349.94,609.014 C2355.96,605.108 2359.51,602.488 2360.58,601.155 C2361.66,599.821 2362.19,598.634 2362.19,597.592 C2362.19,596.55 2361.77,595.623 2360.92,594.811 C2360.07,593.998 2359.09,593.592 2357.99,593.592 C2356.04,593.592 2352.06,595.561 2346.03,599.498 C2340,603.436 2336.47,606.056 2335.43,607.358 C2334.39,608.66 2333.86,609.832 2333.86,610.873 C2333.86,611.915 2334.27,612.842 2335.09,613.655 C2335.91,614.467 2336.9,614.873 2338.07,614.873 M2357.02,590.467 C2362.61,590.467 2365.41,592.873 2365.41,597.686 C2365.41,600.03 2364.73,602.748 2363.36,605.842 C2362,608.936 2360.18,611.295 2357.9,612.92 C2352.89,616.306 2346.6,617.998 2339.05,617.998 C2333.45,617.998 2330.65,615.592 2330.65,610.78 C2330.65,608.634 2331.31,605.964 2332.65,602.772 C2333.98,599.579 2335.82,597.17 2338.16,595.545 C2343.18,592.16 2349.47,590.467 2357.02,590.467"/>
<path class="Note" d="M958.555,589.873 C960.441,589.873 964.396,587.92 970.422,584.014 C976.448,580.108 979.998,577.488 981.071,576.155 C982.144,574.821 982.68,573.634 982.68,572.592 C982.68,571.55 982.256,570.623 981.407,569.811 C980.558,568.998 979.581,568.592 978.477,568.592 C976.529,568.592 972.542,570.561 966.516,574.498 C960.49,578.436 956.956,581.056 955.914,582.358 C954.873,583.66 954.352,584.832 954.352,585.873 C954.352,586.915 954.761,587.842 955.579,588.655 C956.396,589.467 957.388,589.873 958.555,589.873 M977.508,565.467 C983.102,565.467 985.899,567.873 985.899,572.686 C985.899,575.03 985.217,577.748 983.852,580.842 C982.487,583.936 980.664,586.295 978.383,587.92 C973.373,591.306 967.092,592.998 959.539,592.998 C953.935,592.998 951.133,590.592 951.133,585.78 C951.133,583.634 951.8,580.964 953.133,577.772 C954.467,574.579 956.305,572.17 958.649,570.545 C963.67,567.16 969.956,565.467 977.508,565.467"/>
<path class="Note" d="M362.811,639.873 C364.696,639.873 368.652,637.92 374.678,634.014 C380.704,630.108 384.253,627.488 385.326,626.155 C386.399,624.821 386.936,623.634 386.936,622.592 C386.936,621.55 386.511,620.623 385.662,619.811 C384.813,618.998 383.837,618.592 382.732,618.592 C380.785,618.592 376.798,620.561 370.772,624.498 C364.746,628.436 361.212,631.056 360.17,632.358 C359.128,633.66 358.607,634.832 358.607,635.873 C358.607,636.915 359.016,637.842 359.834,638.655 C360.652,639.467 361.644,639.873 362.811,639.873 M381.764,615.467 C387.357,615.467 390.154,617.873 390.154,622.686 C390.154,625.03 389.472,627.748 388.107,630.842 C386.743,633.936 384.92,636.295 382.639,637.92 C377.628,641.306 371.347,642.998 363.795,642.998 C358.191,642.998 355.389,640.592 355.389,635.78 C355.389,633.634 356.055,630.964 357.389,627.772 C358.722,624.579 360.561,622.17 362.904,620.545 C367.925,617.16 374.212,615.467 381.764,615.467"/>
<path class="Note" d="M1712.42,627.373 C1714.31,627.373 1718.26,625.42 1724.29,621.514 C1730.31,617.608 1733.86,614.988 1734.94,613.655 C1736.01,612.321 1736.55,611.134 1736.55,610.092 C1736.55,609.05 1736.12,608.123 1735.27,607.311 C1734.42,606.498 1733.45,606.092 1732.34,606.092 C1730.4,606.092 1726.41,608.061 1720.38,611.998 C1714.36,615.936 1710.82,618.556 1709.78,619.858 C1708.74,621.16 1708.22,622.332 1708.22,623.373 C1708.22,624.415 1708.63,625.342 1709.44,626.155 C1710.26,626.967 1711.25,627.373 1712.42,627.373 M1731.37,602.967 C1736.97,602.967 1739.76,605.373 1739.76,610.186 C1739.76,612.53 1739.08,615.248 1737.72,618.342 C1736.35,621.436 1734.53,623.795 1732.25,625.42 C1727.24,628.806 1720.96,630.498 1713.41,630.498 C1707.8,630.498 1705,628.092 1705,623.28 C1705,621.134 1705.67,618.464 1707,615.272 C1708.33,612.079 1710.17,609.67 1712.51,608.045 C1717.54,604.66 1723.82,602.967 1731.37,602.967"/>
<path class="Note" d="M1350.44,639.873 C1352.32,639.873 1356.28,637.92 1362.31,634.014 C1368.33,630.108 1371.88,627.488 1372.95,626.155 C1374.03,624.821 1374.56,623.634 1374.56,622.592 C1374.56,621.55 1374.14,620.623 1373.29,619.811 C1372.44,618.998 1371.47,618.592 1370.36,618.592 C1368.41,618.592 1364.43,620.561 1358.4,624.498 C1352.37,628.436 1348.84,631.056 1347.8,632.358 C1346.76,633.66 1346.24,634.832 1346.24,635.873 C1346.24,636.915 1346.65,637.842 1347.46,638.655 C1348.28,639.467 1349.27,639.873 1350.44,639.873 M1369.39,615.467 C1374.99,615.467 1377.78,617.873 1377.78,622.686 C1377.78,625.03 1377.1,627.748 1375.74,630.842 C1374.37,633.936 1372.55,636.295 1370.27,637.92 C1365.26,641.306 1358.98,642.998 1351.42,642.998 C1345.82,642.998 1343.02,640.592 1343.02,635.78 C1343.02,633.634 1343.68,630.964 1345.02,627.772 C1346.35,624.579 1348.19,622.17 1350.53,620.545 C1355.55,617.16 1361.84,615.467 1369.39,615.467"/>
<path class="Note" d="M2093.79,577.373 C2095.68,577.373 2099.63,575.42 2105.66,571.514 C2111.68,567.608 2115.23,564.988 2116.31,563.655 C2117.38,562.321 2117.91,561.134 2117.91,560.092 C2117.91,559.05 2117.49,558.123 2116.64,557.311 C2115.79,556.498 2114.82,556.092 2113.71,556.092 C2111.76,556.092 2107.78,558.061 2101.75,561.998 C2095.72,565.936 2092.19,568.556 2091.15,569.858 C2090.11,571.16 2089.59,572.332 2089.59,573.373 C2089.59,574.415 2090,575.342 2090.81,576.155 C2091.63,576.967 2092.62,577.373 2093.79,577.373 M2112.74,552.967 C2118.34,552.967 2121.13,555.373 2121.13,560.186 C2121.13,562.53 2120.45,565.248 2119.09,568.342 C2117.72,571.436 2115.9,573.795 2113.62,575.42 C2108.61,578.806 2102.33,580.498 2094.77,580.498 C2089.17,580.498 2086.37,578.092 2086.37,573.28 C2086.37,571.134 2087.03,568.464 2088.37,565.272 C2089.7,562.079 2091.54,559.67 2093.88,558.045 C2098.9,554.66 2105.19,552.967 2112.74,552.967"/>
<path class="Note" d="M851.367,577.373 C853.253,577.373 857.208,575.42 863.234,571.514 C869.26,567.608 872.81,564.988 873.883,563.655 C874.956,562.321 875.492,561.134 875.492,560.092 C875.492,559.05 875.068,558.123 874.219,557.311 C873.37,556.498 872.393,556.092 871.289,556.092 C869.341,556.092 865.354,558.061 859.328,561.998 C853.302,565.936 849.768,568.556 848.727,569.858 C847.685,571.16 847.164,572.332 847.164,573.373 C847.164,574.415 847.573,575.342 848.391,576.155 C849.208,576.967 850.2,577.373 851.367,577.373 M870.32,552.967 C875.914,552.967 878.711,555.373 878.711,560.186 C878.711,562.53 878.029,565.248 876.664,568.342 C875.299,571.436 873.477,573.795 871.195,575.42 C866.185,578.806 859.904,580.498 852.352,580.498 C846.747,580.498 843.945,578.092 843.945,573.28 C843.945,571.134 844.612,568.464 845.945,565.272 C847.279,562.079 849.117,559.67 851.461,558.045 C856.482,554.66 862.768,552.967 870.32,552.967"/>
<path class="Note" d="M469.999,627.373 C471.884,627.373 475.84,625.42 481.866,621.514 C487.892,617.608 491.441,614.988 492.514,613.655 C493.587,612.321 494.124,611.134 494.124,610.092 C494.124,609.05 493.699,608.123 492.85,607.311 C492.001,606.498 491.025,606.092 489.92,606.092 C487.973,606.092 483.986,608.061 477.96,611.998 C471.933,615.936 468.4,618.556 467.358,619.858 C466.316,621.16 465.795,622.332 465.795,623.373 C465.795,624.415 466.204,625.342 467.022,626.155 C467.84,626.967 468.832,627.373 469.999,627.373 M488.952,602.967 C494.545,602.967 497.342,605.373 497.342,610.186 C497.342,612.53 496.66,615.248 495.295,618.342 C493.931,621.436 492.108,623.795 489.827,625.42 C484.816,628.806 478.535,630.498 470.983,630.498 C465.379,630.498 462.577,628.092 462.577,623.28 C462.577,621.134 463.243,618.464 464.577,615.272 C465.91,612.079 467.749,609.67 470.092,608.045 C475.113,604.66 481.4,602.967 488.952,602.967"/>
<path class="Note" d="M1956.7,589.873 C1958.58,589.873 1962.54,587.92 1968.57,584.014 C1974.59,580.108 1978.14,577.488 1979.22,576.155 C1980.29,574.821 1980.82,573.634 1980.82,572.592 C1980.82,571.55 1980.4,570.623 1979.55,569.811 C1978.7,568.998 1977.73,568.592 1976.62,568.592 C1974.67,568.592 1970.69,570.561 1964.66,574.498 C1958.63,578.436 1955.1,581.056 1954.06,582.358 C1953.02,583.66 1952.5,584.832 1952.5,585.873 C1952.5,586.915 1952.91,587.842 1953.72,588.655 C1954.54,589.467 1955.53,589.873 1956.7,589.873 M1975.65,565.467 C1981.25,565.467 1984.04,567.873 1984.04,572.686 C1984.04,575.03 1983.36,577.748 1982,580.842 C1980.63,583.936 1978.81,586.295 1976.53,587.92 C1971.52,591.306 1965.24,592.998 1957.68,592.998 C1952.08,592.998 1949.28,590.592 1949.28,585.78 C1949.28,583.634 1949.94,580.964 1951.28,577.772 C1952.61,574.579 1954.45,572.17 1956.79,570.545 C1961.81,567.16 1968.1,565.467 1975.65,565.467"/>
<path class="Note" d="M1849.51,614.873 C1851.4,614.873 1855.35,612.92 1861.38,609.014 C1867.4,605.108 1870.95,602.488 1872.03,601.155 C1873.1,599.821 1873.64,598.634 1873.64,597.592 C1873.64,596.55 1873.21,595.623 1872.36,594.811 C1871.51,593.998 1870.54,593.592 1869.43,593.592 C1867.49,593.592 1863.5,595.561 1857.47,599.498 C1851.45,603.436 1847.91,606.056 1846.87,607.358 C1845.83,608.66 1845.31,609.832 1845.31,610.873 C1845.31,611.915 1845.72,612.842 1846.53,613.655 C1847.35,614.467 1848.34,614.873 1849.51,614.873 M1868.46,590.467 C1874.06,590.467 1876.86,592.873 1876.86,597.686 C1876.86,600.03 1876.17,602.748 1874.81,605.842 C1873.44,608.936 1871.62,611.295 1869.34,612.92 C1864.33,616.306 1858.05,617.998 1850.5,617.998 C1844.89,617.998 1842.09,615.592 1842.09,610.78 C1842.09,608.634 1842.76,605.964 1844.09,602.772 C1845.42,599.579 1847.26,597.17 1849.61,595.545 C1854.63,592.16 1860.91,590.467 1868.46,590.467"/>
<path class="Note" d="M1605.23,639.873 C1607.12,639.873 1611.07,637.92 1617.1,634.014 C1623.13,630.108 1626.68,627.488 1627.75,626.155 C1628.82,624.821 1629.36,623.634 1629.36,622.592 C1629.36,621.55 1628.93,620.623 1628.08,619.811 C1627.24,618.998 1626.26,618.592 1625.16,618.592 C1623.21,618.592 1619.22,620.561 1613.19,624.498 C1607.17,628.436 1603.63,631.056 1602.59,632.358 C1601.55,633.66 1601.03,634.832 1601.03,635.873 C1601.03,636.915 1601.44,637.842 1602.26,638.655 C1603.07,639.467 1604.07,639.873 1605.23,639.873 M1624.19,615.467 C1629.78,615.467 1632.58,617.873 1632.58,622.686 C1632.58,625.03 1631.89,627.748 1630.53,630.842 C1629.17,633.936 1627.34,636.295 1625.06,637.92 C1620.05,641.306 1613.77,642.998 1606.22,642.998 C1600.61,642.998 1597.81,640.592 1597.81,635.78 C1597.81,633.634 1598.48,630.964 1599.81,627.772 C1601.14,624.579 1602.98,622.17 1605.33,620.545 C1610.35,617.16 1616.63,615.467 1624.19,615.467"/>
<path class="Note" d="M714.277,589.873 C716.162,589.873 720.118,587.92 726.144,584.014 C732.17,580.108 735.72,577.488 736.792,576.155 C737.865,574.821 738.402,573.634 738.402,572.592 C738.402,571.55 737.977,570.623 737.128,569.811 C736.279,568.998 735.303,568.592 734.199,568.592 C732.251,568.592 728.264,570.561 722.238,574.498 C716.212,578.436 712.678,581.056 711.636,582.358 C710.595,583.66 710.074,584.832 710.074,585.873 C710.074,586.915 710.483,587.842 711.3,588.655 C712.118,589.467 713.11,589.873 714.277,589.873 M733.23,565.467 C738.824,565.467 741.621,567.873 741.621,572.686 C741.621,575.03 740.938,577.748 739.574,580.842 C738.209,583.936 736.386,586.295 734.105,587.92 C729.095,591.306 722.813,592.998 715.261,592.998 C709.657,592.998 706.855,590.592 706.855,585.78 C706.855,583.634 707.522,580.964 708.855,577.772 C710.188,574.579 712.027,572.17 714.371,570.545 C719.391,567.16 725.678,565.467 733.23,565.467"/>
<path class="Note" d="M607.089,614.873 C608.974,614.873 612.93,612.92 618.956,609.014 C624.982,605.108 628.532,602.488 629.605,601.155 C630.677,599.821 631.214,598.634 631.214,597.592 C631.214,596.55 630.789,595.623 629.94,594.811 C629.091,593.998 628.115,593.592 627.011,593.592 C625.063,593.592 621.076,595.561 615.05,599.498 C609.024,603.436 605.49,606.056 604.448,607.358 C603.407,608.66 602.886,609.832 602.886,610.873 C602.886,611.915 603.295,612.842 604.112,613.655 C604.93,614.467 605.922,614.873 607.089,614.873 M626.042,590.467 C631.636,590.467 634.433,592.873 634.433,597.686 C634.433,600.03 633.75,602.748 632.386,605.842 C631.021,608.936 629.198,611.295 626.917,612.92 C621.907,616.306 615.625,617.998 608.073,617.998 C602.469,617.998 599.667,615.592 599.667,610.78 C599.667,608.634 600.334,605.964 601.667,602.772 C603,599.579 604.839,597.17 607.183,595.545 C612.203,592.16 618.49,590.467 626.042,590.467"/>
<path class="Clef" d="M203.623,673.858 L203.623,671.717 C203.56,670.613 203.399,668.889 203.139,666.545 C199.889,667.066 196.993,667.326 194.451,667.326 C185.337,667.326 177.605,663.727 171.256,656.53 C164.907,649.332 161.732,640.754 161.732,630.795 C161.732,628.129 162.253,624.923 163.295,621.178 C164.337,617.433 165.297,614.925 166.178,613.655 C167.058,612.384 168.378,610.155 170.139,606.967 C170.659,605.988 172.352,603.837 175.217,600.514 C175.738,599.806 176.193,599.222 176.584,598.764 C176.975,598.306 177.607,597.49 178.482,596.319 C179.357,595.147 180.3,594.056 181.31,593.045 C182.321,592.035 183.217,591.058 183.998,590.115 C184.779,589.173 185.498,588.379 186.154,587.733 C183.81,579.983 182.378,574.024 181.857,569.858 C181.337,565.691 181.076,560.579 181.076,554.522 C181.076,548.464 182.378,542.962 184.982,538.014 C187.514,532.879 191.06,528.681 195.623,525.42 C195.883,525.222 196.225,525.123 196.646,525.123 C197.068,525.123 197.378,525.222 197.576,525.42 C201.087,529.649 204.128,535.149 206.701,541.92 C209.274,548.691 210.56,555.024 210.56,560.92 C210.56,566.816 209.066,572.498 206.076,577.967 C202.691,583.759 198.326,589.748 192.982,595.936 C194.347,600.227 196.17,606.962 198.451,616.139 L199.045,616.139 C199.305,616.076 199.529,616.045 199.717,616.045 C207.081,616.045 213.089,618.634 217.74,623.811 C222.391,628.988 224.717,634.962 224.717,641.733 C224.717,650.129 221.238,656.899 214.279,662.045 C212.258,663.545 209.878,664.717 207.139,665.561 C207.472,669.79 207.639,672.605 207.639,674.006 C207.639,675.407 207.571,677.899 207.435,681.483 C207.373,687.597 205.29,692.837 201.185,697.201 C197.081,701.566 192.394,703.748 187.123,703.748 C181.852,703.748 177.36,701.876 173.646,698.131 C169.933,694.386 168.076,689.847 168.076,684.514 C168.076,681.712 169.154,679.332 171.31,677.373 C173.519,675.425 176.006,674.451 178.771,674.451 C181.537,674.451 183.8,675.462 185.56,677.483 C187.383,679.368 188.295,681.644 188.295,684.311 C188.295,686.977 187.383,689.222 185.56,691.045 C183.738,692.868 181.555,693.78 179.014,693.78 C177.972,693.78 176.967,693.587 175.998,693.201 C178.863,697.431 182.54,699.545 187.029,699.545 C191.519,699.545 195.36,697.691 198.553,693.983 C201.745,690.274 203.342,685.91 203.342,680.889 L203.623,673.858 M206.748,661.561 C210.133,660.321 212.821,658.123 214.81,654.967 C216.8,651.811 217.795,648.67 217.795,645.545 C217.795,640.92 216.199,636.785 213.006,633.139 C209.813,629.493 205.774,627.441 200.889,626.983 C203.691,640.722 205.644,652.248 206.748,661.561 M168.967,638.998 C168.967,645.446 171.537,651.079 176.678,655.897 C181.818,660.714 187.842,663.123 194.748,663.123 C197.477,663.123 200.144,662.925 202.748,662.53 C201.706,652.634 199.654,640.785 196.592,626.983 C192.758,627.379 189.782,628.699 187.662,630.944 C185.542,633.188 184.482,635.743 184.482,638.608 C184.482,643.556 187.123,647.561 192.404,650.623 C192.852,650.884 193.076,651.324 193.076,651.944 C193.076,652.563 192.865,653.1 192.443,653.553 C192.021,654.006 191.649,654.233 191.326,654.233 C191.003,654.233 190.581,654.17 190.06,654.045 C182.435,649.879 178.623,643.592 178.623,635.186 C178.623,631.217 180.024,627.41 182.826,623.764 C185.753,620.118 189.56,617.774 194.248,616.733 C192.425,609.441 190.93,603.743 189.764,599.639 C180.847,609.67 175.31,617.092 173.154,621.905 C170.363,628.155 168.967,633.852 168.967,638.998 M201.576,539.686 C196.691,542.092 192.834,545.574 190.006,550.131 C187.178,554.688 185.764,559.472 185.764,564.483 C185.764,569.493 186.935,575.972 189.279,583.92 C193.967,578.254 197.514,572.946 199.92,567.998 C202.326,563.05 203.529,558.152 203.529,553.303 C203.529,548.454 202.878,543.915 201.576,539.686"/>
<path class="TimeSig" d="M273.021,567.912 C274.516,567.912 275.949,567.686 277.318,567.233 C278.688,566.78 279.665,566.553 280.248,566.553 C280.831,566.553 281.222,566.907 281.42,567.615 C281.42,567.688 281.352,567.886 281.217,568.209 L252.811,601.225 L269.498,601.225 L269.498,588.131 C269.498,586.506 270.446,585.334 272.342,584.615 C274.29,583.897 276.503,581.001 278.982,575.928 C279.17,575.532 279.462,575.334 279.857,575.334 C280.639,575.334 281.092,575.793 281.217,576.709 L281.217,601.225 L288.357,601.225 C289.264,601.225 289.751,601.712 289.818,602.686 C289.886,603.66 289.399,604.147 288.357,604.147 L281.217,604.147 L281.217,604.928 C281.217,607.532 281.868,609.746 283.17,611.569 C284.67,613.391 286.43,614.303 288.451,614.303 C289.232,614.303 289.623,614.694 289.623,615.475 C289.623,616.256 289.087,616.647 288.014,616.647 C286.941,616.647 284.938,616.436 282.006,616.014 C279.074,615.592 276.811,615.381 275.217,615.381 C273.623,615.381 271.41,615.592 268.576,616.014 C265.743,616.436 263.613,616.647 262.186,616.647 C261.404,616.647 261.014,616.256 261.014,615.475 C261.014,614.694 261.404,614.303 262.186,614.303 C264.196,614.303 265.951,613.391 267.451,611.569 C268.816,609.683 269.498,607.47 269.498,604.928 L269.498,604.147 L252.811,604.147 C251.956,604.147 251.219,603.92 250.6,603.467 C249.98,603.014 249.67,602.592 249.67,602.201 C249.67,601.811 250.485,600.639 252.115,598.686 C253.745,596.733 256.074,592.972 259.1,587.405 C262.126,581.837 263.639,575.438 263.639,568.209 C263.639,567.168 264.097,566.647 265.014,566.647 C265.212,566.647 265.521,566.712 265.943,566.842 C266.365,566.972 267.277,567.183 268.678,567.475 C270.079,567.766 271.527,567.912 273.021,567.912"/>
<path class="TimeSig" d="M273.021,618.084 C274.516,618.084 275.949,617.858 277.318,617.405 C278.688,616.951 279.665,616.725 280.248,616.725 C280.831,616.725 281.222,617.079 281.42,617.787 C281.42,617.86 281.352,618.058 281.217,618.381 L252.811,651.397 L269.498,651.397 L269.498,638.303 C269.498,636.678 270.446,635.506 272.342,634.787 C274.29,634.069 276.503,631.173 278.982,626.1 C279.17,625.704 279.462,625.506 279.857,625.506 C280.639,625.506 281.092,625.964 281.217,626.881 L281.217,651.397 L288.357,651.397 C289.264,651.397 289.751,651.884 289.818,652.858 C289.886,653.832 289.399,654.319 288.357,654.319 L281.217,654.319 L281.217,655.1 C281.217,657.704 281.868,659.918 283.17,661.74 C284.67,663.563 286.43,664.475 288.451,664.475 C289.232,664.475 289.623,664.865 289.623,665.647 C289.623,666.428 289.087,666.819 288.014,666.819 C286.941,666.819 284.938,666.608 282.006,666.186 C279.074,665.764 276.811,665.553 275.217,665.553 C273.623,665.553 271.41,665.764 268.576,666.186 C265.743,666.608 263.613,666.819 262.186,666.819 C261.404,666.819 261.014,666.428 261.014,665.647 C261.014,664.865 261.404,664.475 262.186,664.475 C264.196,664.475 265.951,663.563 267.451,661.74 C268.816,659.855 269.498,657.642 269.498,655.1 L269.498,654.319 L252.811,654.319 C251.956,654.319 251.219,654.092 250.6,653.639 C249.98,653.186 249.67,652.764 249.67,652.373 C249.67,651.983 250.485,650.811 252.115,648.858 C253.745,646.905 256.074,643.144 259.1,637.576 C262.126,632.009 263.639,625.61 263.639,618.381 C263.639,617.339 264.097,616.819 265.014,616.819 C265.212,616.819 265.521,616.884 265.943,617.014 C266.365,617.144 267.277,617.355 268.678,617.647 C270.079,617.938 271.527,618.084 273.021,618.084"/>
<path class="Rest" d="M1487.64,616.733 L1452.09,616.733 C1451.44,616.733 1451.11,616.405 1451.11,615.748 L1451.11,602.076 C1451.11,601.431 1451.44,601.108 1452.09,601.108 L1487.64,601.108 C1488.28,601.108 1488.61,601.431 1488.61,602.076 L1488.61,615.748 C1488.61,616.405 1488.28,616.733 1487.64,616.733"/>
<path class="Rest" d="M2730.06,616.733 L2694.51,616.733 C2693.86,616.733 2693.53,616.405 2693.53,615.748 L2693.53,602.076 C2693.53,601.431 2693.86,601.108 2694.51,601.108 L2730.06,601.108 C2730.71,601.108 2731.03,601.431 2731.03,602.076 L2731.03,615.748 C2731.03,616.405 2730.71,616.733 2730.06,616.733"/>
</svg>
