<?xml version="1.0" encoding="UTF-8" standalone="no"?>
<svg width="2977.2px" height="4208.4px" viewBox="0 0 2977.2 4208.4"
 xmlns="http://www.w3.org/2000/svg" xmlns:xlink="http://www.w3.org/1999/xlink" version="1.2" baseProfile="tiny">
<title>C_Major_Scale_Patterns_29.mscx</title>
<desc>Generated by MuseScore Studio 4.3.1</desc>
<path class="" fill="#ffffff" fill-rule="evenodd" d="M0,0 L2977.2,0 L2977.2,4208.4 L0,4208.4 L0,0 "/>
<polyline class="StaffLines" fill="none" stroke="#000000" stroke-width="2.00" stroke-linejoin="bevel" points="141.732,566.733 2835.47,566.733"/>
<polyline class="StaffLines" fill="none" stroke="#000000" stroke-width="2.00" stroke-linejoin="bevel" points="141.732,591.733 2835.47,591.733"/>
<polyline class="StaffLines" fill="none" stroke="#000000" stroke-width="2.00" stroke-linejoin="bevel" points="141.732,616.733 2835.47,616.733"/>
<polyline class="StaffLines" fill="none" stroke="#000000" stroke-width="2.00" stroke-linejoin="bevel" points="141.732,641.733 2835.47,641.733"/>
<polyline class="StaffLines" fill="none" stroke="#000000" stroke-width="2.00" stroke-linejoin="bevel" points="141.732,666.733 2835.47,666.733"/>
<polyline class="StaffLines" fill="none" stroke="#000000" stroke-width="2.00" stroke-linejoin="bevel" points="141.732,1041.73 2835.47,1041.73"/>
<polyline class="StaffLines" fill="none" stroke="#000000" stroke-width="2.00" stroke-linejoin="bevel" points="141.732,1066.73 2835.47,1066.73"/>
<polyline class="StaffLines" fill="none" stroke="#000000" stroke-width="2.00" stroke-linejoin="bevel" points="141.732,1091.73 2835.47,1091.73"/>
<polyline class="StaffLines" fill="none" stroke="#000000" stroke-width="2.00" stroke-linejoin="bevel" points="141.732,1116.73 2835.47,1116.73"/>
<polyline class="StaffLines" fill="none" stroke="#000000" stroke-width="2.00" stroke-linejoin="bevel" points="141.732,1141.73 2835.47,1141.73"/>
<path class="MeasureNumber" d="M151.107,982.655 L151.107,985.061 L147.029,985.061 L147.029,991.733 L143.951,991.733 L143.951,985.061 L132.717,985.061 L132.717,982.655 L145.264,964.702 L147.029,964.702 L147.029,982.655 L151.107,982.655 M143.904,982.655 L143.904,968.936 L134.31,982.655 L143.904,982.655 "/>
<polyline class="BarLine" fill="none" stroke="#000000" stroke-width="4.00" stroke-linejoin="bevel" points="2802.72,1040.73 2802.72,1142.73"/>
<polyline class="BarLine" fill="none" stroke="#000000" stroke-width="12.50" stroke-linejoin="bevel" points="2829.22,1040.73 2829.22,1142.73"/>
<polyline class="BarLine" fill="none" stroke="#000000" stroke-width="4.00" stroke-linejoin="bevel" points="1976.73,1040.73 1976.73,1142.73"/>
<polyline class="BarLine" fill="none" stroke="#000000" stroke-width="4.00" stroke-linejoin="bevel" points="886.293,1040.73 886.293,1142.73"/>
<polyline class="BarLine" fill="none" stroke="#000000" stroke-width="4.00" stroke-linejoin="bevel" points="2833.47,565.733 2833.47,667.733"/>
<polyline class="BarLine" fill="none" stroke="#000000" stroke-width="4.00" stroke-linejoin="bevel" points="1952.71,565.733 1952.71,667.733"/>
<polyline class="BarLine" fill="none" stroke="#000000" stroke-width="4.00" stroke-linejoin="bevel" points="1071.95,565.733 1071.95,667.733"/>
<polyline class="LedgerLine" fill="none" stroke="#000000" stroke-width="4.00" stroke-linejoin="bevel" points="1332.81,541.733 1384.73,541.733"/>
<polyline class="LedgerLine" fill="none" stroke="#000000" stroke-width="4.00" stroke-linejoin="bevel" points="1758.69,541.733 1810.6,541.733"/>
<polyline class="LedgerLine" fill="none" stroke="#000000" stroke-width="4.00" stroke-linejoin="bevel" points="1576.17,541.733 1628.08,541.733"/>
<polyline class="LedgerLine" fill="none" stroke="#000000" stroke-width="4.00" stroke-linejoin="bevel" points="1454.49,516.733 1506.41,516.733"/>
<polyline class="LedgerLine" fill="none" stroke="#000000" stroke-width="4.00" stroke-linejoin="bevel" points="1454.49,541.733 1506.41,541.733"/>
<polyline class="LedgerLine" fill="none" stroke="#000000" stroke-width="4.00" stroke-linejoin="bevel" points="1211.13,541.733 1263.05,541.733"/>
<polyline class="Stem" fill="none" stroke="#000000" stroke-width="3.25" stroke-linejoin="bevel" points="2224.69,585.102 2224.69,664.64"/>
<polyline class="Stem" fill="none" stroke="#000000" stroke-width="3.25" stroke-linejoin="bevel" points="2103.01,572.602 2103.01,662.575"/>
<polyline class="Stem" fill="none" stroke="#000000" stroke-width="3.25" stroke-linejoin="bevel" points="341.498,610.102 341.498,685.483"/>
<polyline class="Stem" fill="none" stroke="#000000" stroke-width="3.25" stroke-linejoin="bevel" points="1769.82,547.602 1769.82,629.233"/>
<polyline class="Stem" fill="none" stroke="#000000" stroke-width="3.25" stroke-linejoin="bevel" points="914.918,1035.1 914.918,1116.73"/>
<polyline class="Stem" fill="none" stroke="#000000" stroke-width="3.25" stroke-linejoin="bevel" points="1981.34,560.102 1981.34,660.51"/>
<polyline class="Stem" fill="none" stroke="#000000" stroke-width="3.25" stroke-linejoin="bevel" points="2346.37,597.602 2346.37,666.705"/>
<polyline class="Stem" fill="none" stroke="#000000" stroke-width="3.25" stroke-linejoin="bevel" points="524.018,597.602 524.018,679.233"/>
<polyline class="Stem" fill="none" stroke="#000000" stroke-width="3.25" stroke-linejoin="bevel" points="706.537,585.102 706.537,666.733"/>
<polyline class="Stem" fill="none" stroke="#000000" stroke-width="3.25" stroke-linejoin="bevel" points="1180.28,1060.1 1180.28,1141.73"/>
<polyline class="Stem" fill="none" stroke="#000000" stroke-width="3.25" stroke-linejoin="bevel" points="2468.05,610.102 2468.05,685.483"/>
<polyline class="Stem" fill="none" stroke="#000000" stroke-width="3.25" stroke-linejoin="bevel" points="2650.57,597.602 2650.57,679.233"/>
<polyline class="Stem" fill="none" stroke="#000000" stroke-width="3.25" stroke-linejoin="bevel" points="1445.64,1085.1 1445.64,1160.48"/>
<polyline class="Stem" fill="none" stroke="#000000" stroke-width="3.25" stroke-linejoin="bevel" points="889.057,572.602 889.057,654.233"/>
<polyline class="Stem" fill="none" stroke="#000000" stroke-width="3.25" stroke-linejoin="bevel" points="1100.58,560.102 1100.58,622.928"/>
<polyline class="Stem" fill="none" stroke="#000000" stroke-width="3.25" stroke-linejoin="bevel" points="2005.36,1084.13 2005.36,1160.48"/>
<polyline class="Stem" fill="none" stroke="#000000" stroke-width="3.25" stroke-linejoin="bevel" points="1222.26,547.602 1222.26,618.798"/>
<polyline class="Stem" fill="none" stroke="#000000" stroke-width="3.25" stroke-linejoin="bevel" points="1343.94,535.102 1343.94,614.668"/>
<polyline class="Stem" fill="none" stroke="#000000" stroke-width="3.25" stroke-linejoin="bevel" points="1711,1072.6 1711,1154.23"/>
<polyline class="Stem" fill="none" stroke="#000000" stroke-width="3.25" stroke-linejoin="bevel" points="1465.62,522.602 1465.62,610.538"/>
<polyline class="Stem" fill="none" stroke="#000000" stroke-width="3.25" stroke-linejoin="bevel" points="1587.3,535.102 1587.3,616.733"/>
<path class="Note" d="M1465.98,1065.47 C1469.11,1065.47 1471.71,1066.25 1473.8,1067.81 C1475.88,1069.37 1476.92,1071.62 1476.92,1074.55 C1476.92,1079.04 1474.59,1083.23 1469.94,1087.14 C1465.29,1091.05 1460.3,1093 1454.95,1093 C1451.83,1093 1449.19,1092.19 1447.05,1090.56 C1445.02,1088.8 1444.01,1086.59 1444.01,1083.92 C1444.01,1079.56 1446.33,1075.39 1450.95,1071.42 C1455.58,1067.45 1460.59,1065.47 1465.98,1065.47"/>
<path class="Note" d="M1731.34,1052.97 C1734.47,1052.97 1737.07,1053.75 1739.16,1055.31 C1741.24,1056.87 1742.28,1059.12 1742.28,1062.05 C1742.28,1066.54 1739.96,1070.73 1735.3,1074.64 C1730.65,1078.55 1725.66,1080.5 1720.31,1080.5 C1717.19,1080.5 1714.55,1079.69 1712.41,1078.06 C1710.38,1076.3 1709.37,1074.09 1709.37,1071.42 C1709.37,1067.06 1711.69,1062.89 1716.31,1058.92 C1720.94,1054.95 1725.95,1052.97 1731.34,1052.97"/>
<path class="Note" d="M296.025,1084.7 C298.89,1088.55 302.567,1090.47 307.057,1090.47 C311.546,1090.47 313.791,1087.44 313.791,1081.39 C313.791,1078.51 312.979,1075.97 311.354,1073.76 C308.551,1069.92 304.775,1068 300.025,1068 C297.942,1068 296.348,1068.86 295.244,1070.58 C294.14,1072.31 293.588,1074.54 293.588,1077.28 C293.588,1080.02 294.4,1082.49 296.025,1084.7 M286.354,1069.47 C291.239,1066.8 297.117,1065.47 303.986,1065.47 C310.856,1065.47 316.65,1066.83 321.369,1069.57 C326.088,1072.3 328.447,1075.56 328.447,1079.33 C328.447,1083.11 326.005,1086.33 321.119,1089 C316.234,1091.67 310.39,1093 303.588,1093 C296.786,1093 290.976,1091.63 286.158,1088.9 C281.341,1086.16 278.932,1082.88 278.932,1079.04 C278.932,1075.2 281.406,1072.01 286.354,1069.47"/>
<path class="Note" d="M935.262,1015.47 C938.387,1015.47 940.991,1016.25 943.075,1017.81 C945.158,1019.37 946.2,1021.62 946.2,1024.55 C946.2,1029.04 943.874,1033.23 939.223,1037.14 C934.572,1041.05 929.575,1043 924.231,1043 C921.106,1043 918.47,1042.19 916.325,1040.56 C914.304,1038.8 913.293,1036.59 913.293,1033.92 C913.293,1029.56 915.606,1025.39 920.231,1021.42 C924.856,1017.45 929.866,1015.47 935.262,1015.47"/>
<path class="Note" d="M361.842,590.467 C364.967,590.467 367.571,591.248 369.654,592.811 C371.738,594.373 372.779,596.618 372.779,599.545 C372.779,604.035 370.454,608.233 365.803,612.139 C361.152,616.045 356.154,617.998 350.811,617.998 C347.686,617.998 345.05,617.186 342.904,615.561 C340.884,613.8 339.873,611.587 339.873,608.92 C339.873,604.556 342.186,600.389 346.811,596.42 C351.436,592.451 356.446,590.467 361.842,590.467"/>
<path class="Note" d="M2011.16,1089.87 C2013.04,1089.87 2017,1087.92 2023.02,1084.01 C2029.05,1080.11 2032.6,1077.49 2033.67,1076.15 C2034.75,1074.82 2035.28,1073.63 2035.28,1072.59 C2035.28,1071.55 2034.86,1070.62 2034.01,1069.81 C2033.16,1069 2032.18,1068.59 2031.08,1068.59 C2029.13,1068.59 2025.14,1070.56 2019.12,1074.5 C2013.09,1078.44 2009.56,1081.06 2008.52,1082.36 C2007.47,1083.66 2006.95,1084.83 2006.95,1085.87 C2006.95,1086.92 2007.36,1087.84 2008.18,1088.65 C2009,1089.47 2009.99,1089.87 2011.16,1089.87 M2030.11,1065.47 C2035.7,1065.47 2038.5,1067.87 2038.5,1072.69 C2038.5,1075.03 2037.82,1077.75 2036.45,1080.84 C2035.09,1083.94 2033.27,1086.3 2030.98,1087.92 C2025.97,1091.31 2019.69,1093 2012.14,1093 C2006.54,1093 2003.73,1090.59 2003.73,1085.78 C2003.73,1083.63 2004.4,1080.96 2005.73,1077.77 C2007.07,1074.58 2008.91,1072.17 2011.25,1070.55 C2016.27,1067.16 2022.56,1065.47 2030.11,1065.47"/>
<path class="Note" d="M1200.62,1040.47 C1203.75,1040.47 1206.35,1041.25 1208.43,1042.81 C1210.52,1044.37 1211.56,1046.62 1211.56,1049.55 C1211.56,1054.04 1209.23,1058.23 1204.58,1062.14 C1199.93,1066.05 1194.93,1068 1189.59,1068 C1186.47,1068 1183.83,1067.19 1181.68,1065.56 C1179.66,1063.8 1178.65,1061.59 1178.65,1058.92 C1178.65,1054.56 1180.97,1050.39 1185.59,1046.42 C1190.22,1042.45 1195.23,1040.47 1200.62,1040.47"/>
<path class="Note" d="M544.362,577.967 C547.487,577.967 550.091,578.748 552.174,580.311 C554.257,581.873 555.299,584.118 555.299,587.045 C555.299,591.535 552.973,595.733 548.322,599.639 C543.671,603.545 538.674,605.498 533.33,605.498 C530.205,605.498 527.57,604.686 525.424,603.061 C523.403,601.3 522.393,599.087 522.393,596.42 C522.393,592.056 524.705,587.889 529.33,583.92 C533.955,579.951 538.966,577.967 544.362,577.967"/>
<path class="Note" d="M2245.04,565.467 C2248.16,565.467 2250.77,566.248 2252.85,567.811 C2254.93,569.373 2255.98,571.618 2255.98,574.545 C2255.98,579.035 2253.65,583.233 2249,587.139 C2244.35,591.045 2239.35,592.998 2234.01,592.998 C2230.88,592.998 2228.25,592.186 2226.1,590.561 C2224.08,588.8 2223.07,586.587 2223.07,583.92 C2223.07,579.556 2225.38,575.389 2230.01,571.42 C2234.63,567.451 2239.64,565.467 2245.04,565.467"/>
<path class="Note" d="M2488.4,590.467 C2491.52,590.467 2494.13,591.248 2496.21,592.811 C2498.29,594.373 2499.34,596.618 2499.34,599.545 C2499.34,604.035 2497.01,608.233 2492.36,612.139 C2487.71,616.045 2482.71,617.998 2477.37,617.998 C2474.24,617.998 2471.61,617.186 2469.46,615.561 C2467.44,613.8 2466.43,611.587 2466.43,608.92 C2466.43,604.556 2468.74,600.389 2473.37,596.42 C2477.99,592.451 2483,590.467 2488.4,590.467"/>
<path class="Note" d="M1120.92,540.467 C1124.05,540.467 1126.65,541.248 1128.73,542.811 C1130.82,544.373 1131.86,546.618 1131.86,549.545 C1131.86,554.035 1129.53,558.233 1124.88,562.139 C1120.23,566.045 1115.23,567.998 1109.89,567.998 C1106.76,567.998 1104.13,567.186 1101.98,565.561 C1099.96,563.8 1098.95,561.587 1098.95,558.92 C1098.95,554.556 1101.26,550.389 1105.89,546.42 C1110.51,542.451 1115.52,540.467 1120.92,540.467"/>
<path class="Note" d="M1242.6,527.967 C1245.73,527.967 1248.33,528.748 1250.41,530.311 C1252.5,531.873 1253.54,534.118 1253.54,537.045 C1253.54,541.535 1251.21,545.733 1246.56,549.639 C1241.91,553.545 1236.91,555.498 1231.57,555.498 C1228.44,555.498 1225.81,554.686 1223.66,553.061 C1221.64,551.3 1220.63,549.087 1220.63,546.42 C1220.63,542.056 1222.94,537.889 1227.57,533.92 C1232.19,529.951 1237.2,527.967 1242.6,527.967"/>
<path class="Note" d="M1364.28,515.467 C1367.4,515.467 1370.01,516.248 1372.09,517.811 C1374.18,519.373 1375.22,521.618 1375.22,524.545 C1375.22,529.035 1372.89,533.233 1368.24,537.139 C1363.59,541.045 1358.59,542.998 1353.25,542.998 C1350.12,542.998 1347.49,542.186 1345.34,540.561 C1343.32,538.8 1342.31,536.587 1342.31,533.92 C1342.31,529.556 1344.62,525.389 1349.25,521.42 C1353.87,517.451 1358.88,515.467 1364.28,515.467"/>
<path class="Note" d="M1485.96,502.967 C1489.08,502.967 1491.69,503.748 1493.77,505.311 C1495.86,506.873 1496.9,509.118 1496.9,512.045 C1496.9,516.535 1494.57,520.733 1489.92,524.639 C1485.27,528.545 1480.27,530.498 1474.93,530.498 C1471.8,530.498 1469.17,529.686 1467.02,528.061 C1465,526.3 1463.99,524.087 1463.99,521.42 C1463.99,517.056 1466.3,512.889 1470.93,508.92 C1475.55,504.951 1480.56,502.967 1485.96,502.967"/>
<path class="Note" d="M1607.64,515.467 C1610.76,515.467 1613.37,516.248 1615.45,517.811 C1617.54,519.373 1618.58,521.618 1618.58,524.545 C1618.58,529.035 1616.25,533.233 1611.6,537.139 C1606.95,541.045 1601.95,542.998 1596.61,542.998 C1593.48,542.998 1590.85,542.186 1588.7,540.561 C1586.68,538.8 1585.67,536.587 1585.67,533.92 C1585.67,529.556 1587.98,525.389 1592.61,521.42 C1597.23,517.451 1602.24,515.467 1607.64,515.467"/>
<path class="Note" d="M1790.16,527.967 C1793.28,527.967 1795.89,528.748 1797.97,530.311 C1800.05,531.873 1801.1,534.118 1801.1,537.045 C1801.1,541.535 1798.77,545.733 1794.12,549.639 C1789.47,553.545 1784.47,555.498 1779.13,555.498 C1776,555.498 1773.37,554.686 1771.22,553.061 C1769.2,551.3 1768.19,549.087 1768.19,546.42 C1768.19,542.056 1770.5,537.889 1775.13,533.92 C1779.75,529.951 1784.76,527.967 1790.16,527.967"/>
<path class="Note" d="M726.881,565.467 C730.006,565.467 732.61,566.248 734.694,567.811 C736.777,569.373 737.819,571.618 737.819,574.545 C737.819,579.035 735.493,583.233 730.842,587.139 C726.191,591.045 721.194,592.998 715.85,592.998 C712.725,592.998 710.089,592.186 707.944,590.561 C705.923,588.8 704.912,586.587 704.912,583.92 C704.912,579.556 707.225,575.389 711.85,571.42 C716.475,567.451 721.485,565.467 726.881,565.467"/>
<path class="Note" d="M2001.68,540.467 C2004.8,540.467 2007.41,541.248 2009.49,542.811 C2011.57,544.373 2012.62,546.618 2012.62,549.545 C2012.62,554.035 2010.29,558.233 2005.64,562.139 C2000.99,566.045 1995.99,567.998 1990.65,567.998 C1987.52,567.998 1984.89,567.186 1982.74,565.561 C1980.72,563.8 1979.71,561.587 1979.71,558.92 C1979.71,554.556 1982.02,550.389 1986.65,546.42 C1991.27,542.451 1996.28,540.467 2001.68,540.467"/>
<path class="Note" d="M2123.36,552.967 C2126.48,552.967 2129.09,553.748 2131.17,555.311 C2133.25,556.873 2134.3,559.118 2134.3,562.045 C2134.3,566.535 2131.97,570.733 2127.32,574.639 C2122.67,578.545 2117.67,580.498 2112.33,580.498 C2109.2,580.498 2106.57,579.686 2104.42,578.061 C2102.4,576.3 2101.39,574.087 2101.39,571.42 C2101.39,567.056 2103.7,562.889 2108.33,558.92 C2112.95,554.951 2117.96,552.967 2123.36,552.967"/>
<path class="Note" d="M909.401,552.967 C912.526,552.967 915.13,553.748 917.213,555.311 C919.297,556.873 920.338,559.118 920.338,562.045 C920.338,566.535 918.013,570.733 913.362,574.639 C908.711,578.545 903.713,580.498 898.37,580.498 C895.245,580.498 892.609,579.686 890.463,578.061 C888.442,576.3 887.432,574.087 887.432,571.42 C887.432,567.056 889.745,562.889 894.37,558.92 C898.995,554.951 904.005,552.967 909.401,552.967"/>
<path class="Note" d="M2366.72,577.967 C2369.84,577.967 2372.45,578.748 2374.53,580.311 C2376.61,581.873 2377.66,584.118 2377.66,587.045 C2377.66,591.535 2375.33,595.733 2370.68,599.639 C2366.03,603.545 2361.03,605.498 2355.69,605.498 C2352.56,605.498 2349.93,604.686 2347.78,603.061 C2345.76,601.3 2344.75,599.087 2344.75,596.42 C2344.75,592.056 2347.06,587.889 2351.69,583.92 C2356.31,579.951 2361.32,577.967 2366.72,577.967"/>
<path class="Note" d="M2670.92,577.967 C2674.04,577.967 2676.65,578.748 2678.73,580.311 C2680.81,581.873 2681.85,584.118 2681.85,587.045 C2681.85,591.535 2679.53,595.733 2674.88,599.639 C2670.23,603.545 2665.23,605.498 2659.89,605.498 C2656.76,605.498 2654.13,604.686 2651.98,603.061 C2649.96,601.3 2648.95,599.087 2648.95,596.42 C2648.95,592.056 2651.26,587.889 2655.89,583.92 C2660.51,579.951 2665.52,577.967 2670.92,577.967"/>
<path class="Clef" d="M203.623,1148.86 L203.623,1146.72 C203.56,1145.61 203.399,1143.89 203.139,1141.55 C199.889,1142.07 196.993,1142.33 194.451,1142.33 C185.337,1142.33 177.605,1138.73 171.256,1131.53 C164.907,1124.33 161.732,1115.75 161.732,1105.8 C161.732,1103.13 162.253,1099.92 163.295,1096.18 C164.337,1092.43 165.297,1089.93 166.178,1088.65 C167.058,1087.38 168.378,1085.15 170.139,1081.97 C170.659,1080.99 172.352,1078.84 175.217,1075.51 C175.738,1074.81 176.193,1074.22 176.584,1073.76 C176.975,1073.31 177.607,1072.49 178.482,1071.32 C179.357,1070.15 180.3,1069.06 181.31,1068.05 C182.321,1067.04 183.217,1066.06 183.998,1065.12 C184.779,1064.17 185.498,1063.38 186.154,1062.73 C183.81,1054.98 182.378,1049.02 181.857,1044.86 C181.337,1040.69 181.076,1035.58 181.076,1029.52 C181.076,1023.46 182.378,1017.96 184.982,1013.01 C187.514,1007.88 191.06,1003.68 195.623,1000.42 C195.883,1000.22 196.225,1000.12 196.646,1000.12 C197.068,1000.12 197.378,1000.22 197.576,1000.42 C201.087,1004.65 204.128,1010.15 206.701,1016.92 C209.274,1023.69 210.56,1030.02 210.56,1035.92 C210.56,1041.82 209.066,1047.5 206.076,1052.97 C202.691,1058.76 198.326,1064.75 192.982,1070.94 C194.347,1075.23 196.17,1081.96 198.451,1091.14 L199.045,1091.14 C199.305,1091.08 199.529,1091.05 199.717,1091.05 C207.081,1091.05 213.089,1093.63 217.74,1098.81 C222.391,1103.99 224.717,1109.96 224.717,1116.73 C224.717,1125.13 221.238,1131.9 214.279,1137.05 C212.258,1138.55 209.878,1139.72 207.139,1140.56 C207.472,1144.79 207.639,1147.61 207.639,1149.01 C207.639,1150.41 207.571,1152.9 207.435,1156.48 C207.373,1162.6 205.29,1167.84 201.185,1172.2 C197.081,1176.57 192.394,1178.75 187.123,1178.75 C181.852,1178.75 177.36,1176.88 173.646,1173.13 C169.933,1169.39 168.076,1164.85 168.076,1159.51 C168.076,1156.71 169.154,1154.33 171.31,1152.37 C173.519,1150.43 176.006,1149.45 178.771,1149.45 C181.537,1149.45 183.8,1150.46 185.56,1152.48 C187.383,1154.37 188.295,1156.64 188.295,1159.31 C188.295,1161.98 187.383,1164.22 185.56,1166.05 C183.738,1167.87 181.555,1168.78 179.014,1168.78 C177.972,1168.78 176.967,1168.59 175.998,1168.2 C178.863,1172.43 182.54,1174.55 187.029,1174.55 C191.519,1174.55 195.36,1172.69 198.553,1168.98 C201.745,1165.27 203.342,1160.91 203.342,1155.89 L203.623,1148.86 M206.748,1136.56 C210.133,1135.32 212.821,1133.12 214.81,1129.97 C216.8,1126.81 217.795,1123.67 217.795,1120.55 C217.795,1115.92 216.199,1111.79 213.006,1108.14 C209.813,1104.49 205.774,1102.44 200.889,1101.98 C203.691,1115.72 205.644,1127.25 206.748,1136.56 M168.967,1114 C168.967,1120.45 171.537,1126.08 176.678,1130.9 C181.818,1135.71 187.842,1138.12 194.748,1138.12 C197.477,1138.12 200.144,1137.93 202.748,1137.53 C201.706,1127.63 199.654,1115.79 196.592,1101.98 C192.758,1102.38 189.782,1103.7 187.662,1105.94 C185.542,1108.19 184.482,1110.74 184.482,1113.61 C184.482,1118.56 187.123,1122.56 192.404,1125.62 C192.852,1125.88 193.076,1126.32 193.076,1126.94 C193.076,1127.56 192.865,1128.1 192.443,1128.55 C192.021,1129.01 191.649,1129.23 191.326,1129.23 C191.003,1129.23 190.581,1129.17 190.06,1129.05 C182.435,1124.88 178.623,1118.59 178.623,1110.19 C178.623,1106.22 180.024,1102.41 182.826,1098.76 C185.753,1095.12 189.56,1092.77 194.248,1091.73 C192.425,1084.44 190.93,1078.74 189.764,1074.64 C180.847,1084.67 175.31,1092.09 173.154,1096.9 C170.363,1103.15 168.967,1108.85 168.967,1114 M201.576,1014.69 C196.691,1017.09 192.834,1020.57 190.006,1025.13 C187.178,1029.69 185.764,1034.47 185.764,1039.48 C185.764,1044.49 186.935,1050.97 189.279,1058.92 C193.967,1053.25 197.514,1047.95 199.92,1043 C202.326,1038.05 203.529,1033.15 203.529,1028.3 C203.529,1023.45 202.878,1018.92 201.576,1014.69"/>
<path class="Clef" d="M203.623,673.858 L203.623,671.717 C203.56,670.613 203.399,668.889 203.139,666.545 C199.889,667.066 196.993,667.326 194.451,667.326 C185.337,667.326 177.605,663.727 171.256,656.53 C164.907,649.332 161.732,640.754 161.732,630.795 C161.732,628.129 162.253,624.923 163.295,621.178 C164.337,617.433 165.297,614.925 166.178,613.655 C167.058,612.384 168.378,610.155 170.139,606.967 C170.659,605.988 172.352,603.837 175.217,600.514 C175.738,599.806 176.193,599.222 176.584,598.764 C176.975,598.306 177.607,597.49 178.482,596.319 C179.357,595.147 180.3,594.056 181.31,593.045 C182.321,592.035 183.217,591.058 183.998,590.115 C184.779,589.173 185.498,588.379 186.154,587.733 C183.81,579.983 182.378,574.024 181.857,569.858 C181.337,565.691 181.076,560.579 181.076,554.522 C181.076,548.464 182.378,542.962 184.982,538.014 C187.514,532.879 191.06,528.681 195.623,525.42 C195.883,525.222 196.225,525.123 196.646,525.123 C197.068,525.123 197.378,525.222 197.576,525.42 C201.087,529.649 204.128,535.149 206.701,541.92 C209.274,548.691 210.56,555.024 210.56,560.92 C210.56,566.816 209.066,572.498 206.076,577.967 C202.691,583.759 198.326,589.748 192.982,595.936 C194.347,600.227 196.17,606.962 198.451,616.139 L199.045,616.139 C199.305,616.076 199.529,616.045 199.717,616.045 C207.081,616.045 213.089,618.634 217.74,623.811 C222.391,628.988 224.717,634.962 224.717,641.733 C224.717,650.129 221.238,656.899 214.279,662.045 C212.258,663.545 209.878,664.717 207.139,665.561 C207.472,669.79 207.639,672.605 207.639,674.006 C207.639,675.407 207.571,677.899 207.435,681.483 C207.373,687.597 205.29,692.837 201.185,697.201 C197.081,701.566 192.394,703.748 187.123,703.748 C181.852,703.748 177.36,701.876 173.646,698.131 C169.933,694.386 168.076,689.847 168.076,684.514 C168.076,681.712 169.154,679.332 171.31,677.373 C173.519,675.425 176.006,674.451 178.771,674.451 C181.537,674.451 183.8,675.462 185.56,677.483 C187.383,679.368 188.295,681.644 188.295,684.311 C188.295,686.977 187.383,689.222 185.56,691.045 C183.738,692.868 181.555,693.78 179.014,693.78 C177.972,693.78 176.967,693.587 175.998,693.201 C178.863,697.431 182.54,699.545 187.029,699.545 C191.519,699.545 195.36,697.691 198.553,693.983 C201.745,690.274 203.342,685.91 203.342,680.889 L203.623,673.858 M206.748,661.561 C210.133,660.321 212.821,658.123 214.81,654.967 C216.8,651.811 217.795,648.67 217.795,645.545 C217.795,640.92 216.199,636.785 213.006,633.139 C209.813,629.493 205.774,627.441 200.889,626.983 C203.691,640.722 205.644,652.248 206.748,661.561 M168.967,638.998 C168.967,645.446 171.537,651.079 176.678,655.897 C181.818,660.714 187.842,663.123 194.748,663.123 C197.477,663.123 200.144,662.925 202.748,662.53 C201.706,652.634 199.654,640.785 196.592,626.983 C192.758,627.379 189.782,628.699 187.662,630.944 C185.542,633.188 184.482,635.743 184.482,638.608 C184.482,643.556 187.123,647.561 192.404,650.623 C192.852,650.884 193.076,651.324 193.076,651.944 C193.076,652.563 192.865,653.1 192.443,653.553 C192.021,654.006 191.649,654.233 191.326,654.233 C191.003,654.233 190.581,654.17 190.06,654.045 C182.435,649.879 178.623,643.592 178.623,635.186 C178.623,631.217 180.024,627.41 182.826,623.764 C185.753,620.118 189.56,617.774 194.248,616.733 C192.425,609.441 190.93,603.743 189.764,599.639 C180.847,609.67 175.31,617.092 173.154,621.905 C170.363,628.155 168.967,633.852 168.967,638.998 M201.576,539.686 C196.691,542.092 192.834,545.574 190.006,550.131 C187.178,554.688 185.764,559.472 185.764,564.483 C185.764,569.493 186.935,575.972 189.279,583.92 C193.967,578.254 197.514,572.946 199.92,567.998 C202.326,563.05 203.529,558.152 203.529,553.303 C203.529,548.454 202.878,543.915 201.576,539.686"/>
<path class="TimeSig" d="M273.021,567.912 C274.516,567.912 275.949,567.686 277.318,567.233 C278.688,566.78 279.665,566.553 280.248,566.553 C280.831,566.553 281.222,566.907 281.42,567.615 C281.42,567.688 281.352,567.886 281.217,568.209 L252.811,601.225 L269.498,601.225 L269.498,588.131 C269.498,586.506 270.446,585.334 272.342,584.615 C274.29,583.897 276.503,581.001 278.982,575.928 C279.17,575.532 279.462,575.334 279.857,575.334 C280.639,575.334 281.092,575.793 281.217,576.709 L281.217,601.225 L288.357,601.225 C289.264,601.225 289.751,601.712 289.818,602.686 C289.886,603.66 289.399,604.147 288.357,604.147 L281.217,604.147 L281.217,604.928 C281.217,607.532 281.868,609.746 283.17,611.569 C284.67,613.391 286.43,614.303 288.451,614.303 C289.232,614.303 289.623,614.694 289.623,615.475 C289.623,616.256 289.087,616.647 288.014,616.647 C286.941,616.647 284.938,616.436 282.006,616.014 C279.074,615.592 276.811,615.381 275.217,615.381 C273.623,615.381 271.41,615.592 268.576,616.014 C265.743,616.436 263.613,616.647 262.186,616.647 C261.404,616.647 261.014,616.256 261.014,615.475 C261.014,614.694 261.404,614.303 262.186,614.303 C264.196,614.303 265.951,613.391 267.451,611.569 C268.816,609.683 269.498,607.47 269.498,604.928 L269.498,604.147 L252.811,604.147 C251.956,604.147 251.219,603.92 250.6,603.467 C249.98,603.014 249.67,602.592 249.67,602.201 C249.67,601.811 250.485,600.639 252.115,598.686 C253.745,596.733 256.074,592.972 259.1,587.405 C262.126,581.837 263.639,575.438 263.639,568.209 C263.639,567.168 264.097,566.647 265.014,566.647 C265.212,566.647 265.521,566.712 265.943,566.842 C266.365,566.972 267.277,567.183 268.678,567.475 C270.079,567.766 271.527,567.912 273.021,567.912"/>
<path class="TimeSig" d="M273.021,618.084 C274.516,618.084 275.949,617.858 277.318,617.405 C278.688,616.951 279.665,616.725 280.248,616.725 C280.831,616.725 281.222,617.079 281.42,617.787 C281.42,617.86 281.352,618.058 281.217,618.381 L252.811,651.397 L269.498,651.397 L269.498,638.303 C269.498,636.678 270.446,635.506 272.342,634.787 C274.29,634.069 276.503,631.173 278.982,626.1 C279.17,625.704 279.462,625.506 279.857,625.506 C280.639,625.506 281.092,625.964 281.217,626.881 L281.217,651.397 L288.357,651.397 C289.264,651.397 289.751,651.884 289.818,652.858 C289.886,653.832 289.399,654.319 288.357,654.319 L281.217,654.319 L281.217,655.1 C281.217,657.704 281.868,659.918 283.17,661.74 C284.67,663.563 286.43,664.475 288.451,664.475 C289.232,664.475 289.623,664.865 289.623,665.647 C289.623,666.428 289.087,666.819 288.014,666.819 C286.941,666.819 284.938,666.608 282.006,666.186 C279.074,665.764 276.811,665.553 275.217,665.553 C273.623,665.553 271.41,665.764 268.576,666.186 C265.743,666.608 263.613,666.819 262.186,666.819 C261.404,666.819 261.014,666.428 261.014,665.647 C261.014,664.865 261.404,664.475 262.186,664.475 C264.196,664.475 265.951,663.563 267.451,661.74 C268.816,659.855 269.498,657.642 269.498,655.1 L269.498,654.319 L252.811,654.319 C251.956,654.319 251.219,654.092 250.6,653.639 C249.98,653.186 249.67,652.764 249.67,652.373 C249.67,651.983 250.485,650.811 252.115,648.858 C253.745,646.905 256.074,643.144 259.1,637.576 C262.126,632.009 263.639,625.61 263.639,618.381 C263.639,617.339 264.097,616.819 265.014,616.819 C265.212,616.819 265.521,616.884 265.943,617.014 C266.365,617.144 267.277,617.355 268.678,617.647 C270.079,617.938 271.527,618.084 273.021,618.084"/>
<path class="Rest" d="M2439.21,1091.73 L2403.66,1091.73 C2403.01,1091.73 2402.68,1091.4 2402.68,1090.75 L2402.68,1077.08 C2402.68,1076.43 2403.01,1076.11 2403.66,1076.11 L2439.21,1076.11 C2439.85,1076.11 2440.18,1076.43 2440.18,1077.08 L2440.18,1090.75 C2440.18,1091.4 2439.85,1091.73 2439.21,1091.73"/>
<path class="Beam" fill-rule="evenodd" d="M1979.71,654.232 L2348,660.482 L2348,672.984 L1979.71,666.734 L1979.71,654.232 "/>
<path class="Beam" fill-rule="evenodd" d="M1098.95,616.729 L1467.24,604.229 L1467.24,616.736 L1098.95,629.236 L1098.95,616.729 "/>
</svg>
