<?xml version="1.0" encoding="UTF-8" standalone="no"?>
<svg width="2977.2px" height="4208.4px" viewBox="0 0 2977.2 4208.4"
 xmlns="http://www.w3.org/2000/svg" xmlns:xlink="http://www.w3.org/1999/xlink" version="1.2" baseProfile="tiny">
<title>D_7.mscx</title>
<desc>Generated by MuseScore Studio 4.3.1</desc>
<path class="" fill="#ffffff" fill-rule="evenodd" d="M0,0 L2977.2,0 L2977.2,4208.4 L0,4208.4 L0,0 "/>
<polyline class="StaffLines" fill="none" stroke="#000000" stroke-width="2.00" stroke-linejoin="bevel" points="141.732,566.733 2835.47,566.733"/>
<polyline class="StaffLines" fill="none" stroke="#000000" stroke-width="2.00" stroke-linejoin="bevel" points="141.732,591.733 2835.47,591.733"/>
<polyline class="StaffLines" fill="none" stroke="#000000" stroke-width="2.00" stroke-linejoin="bevel" points="141.732,616.733 2835.47,616.733"/>
<polyline class="StaffLines" fill="none" stroke="#000000" stroke-width="2.00" stroke-linejoin="bevel" points="141.732,641.733 2835.47,641.733"/>
<polyline class="StaffLines" fill="none" stroke="#000000" stroke-width="2.00" stroke-linejoin="bevel" points="141.732,666.733 2835.47,666.733"/>
<polyline class="BarLine" fill="none" stroke="#000000" stroke-width="4.00" stroke-linejoin="bevel" points="2346.43,565.733 2346.43,667.733"/>
<polyline class="BarLine" fill="none" stroke="#000000" stroke-width="4.00" stroke-linejoin="bevel" points="1557.8,565.733 1557.8,667.733"/>
<polyline class="BarLine" fill="none" stroke="#000000" stroke-width="4.00" stroke-linejoin="bevel" points="2802.72,565.733 2802.72,667.733"/>
<polyline class="BarLine" fill="none" stroke="#000000" stroke-width="12.50" stroke-linejoin="bevel" points="2829.22,565.733 2829.22,667.733"/>
<polyline class="BarLine" fill="none" stroke="#000000" stroke-width="4.00" stroke-linejoin="bevel" points="1101.5,565.733 1101.5,667.733"/>
<path class="Accidental" d="M522.359,632.264 C523.796,631.868 524.515,632.222 524.515,633.326 L524.515,641.139 C524.515,641.92 523.895,642.54 522.656,642.998 L519.437,644.264 L519.437,658.436 L522.359,657.264 C523.796,656.868 524.515,657.227 524.515,658.342 L524.515,666.155 C524.515,666.936 523.895,667.55 522.656,667.998 L519.437,669.28 L519.437,685.483 C519.437,686.722 518.947,687.342 517.968,687.342 C516.989,687.342 516.499,686.722 516.499,685.483 L516.499,670.451 L507.218,674.155 L507.218,690.264 C507.218,691.504 506.731,692.123 505.757,692.123 C504.783,692.123 504.296,691.504 504.296,690.264 L504.296,675.326 L501.749,676.405 C500.385,676.988 499.703,676.597 499.703,675.233 L499.703,667.514 C499.703,666.868 500.291,666.285 501.468,665.764 L504.296,664.592 L504.296,650.326 L501.749,651.405 C500.385,651.988 499.703,651.597 499.703,650.233 L499.703,642.514 C499.703,641.858 500.291,641.269 501.468,640.748 L504.296,639.576 L504.296,623.467 C504.296,622.227 504.783,621.608 505.757,621.608 C506.731,621.608 507.218,622.227 507.218,623.467 L507.218,638.405 L516.499,634.608 L516.499,618.686 C516.499,617.446 516.989,616.826 517.968,616.826 C518.947,616.826 519.437,617.446 519.437,618.686 L519.437,633.436 L522.359,632.264 M507.218,649.155 L507.218,663.42 L516.499,659.608 L516.499,645.436 L507.218,649.155 "/>
<path class="Accidental" d="M1957.19,632.264 C1958.63,631.868 1959.35,632.222 1959.35,633.326 L1959.35,641.139 C1959.35,641.92 1958.73,642.54 1957.49,642.998 L1954.27,644.264 L1954.27,658.436 L1957.19,657.264 C1958.63,656.868 1959.35,657.227 1959.35,658.342 L1959.35,666.155 C1959.35,666.936 1958.73,667.55 1957.49,667.998 L1954.27,669.28 L1954.27,685.483 C1954.27,686.722 1953.78,687.342 1952.8,687.342 C1951.82,687.342 1951.33,686.722 1951.33,685.483 L1951.33,670.451 L1942.05,674.155 L1942.05,690.264 C1942.05,691.504 1941.56,692.123 1940.59,692.123 C1939.61,692.123 1939.13,691.504 1939.13,690.264 L1939.13,675.326 L1936.58,676.405 C1935.22,676.988 1934.53,676.597 1934.53,675.233 L1934.53,667.514 C1934.53,666.868 1935.12,666.285 1936.3,665.764 L1939.13,664.592 L1939.13,650.326 L1936.58,651.405 C1935.22,651.988 1934.53,651.597 1934.53,650.233 L1934.53,642.514 C1934.53,641.858 1935.12,641.269 1936.3,640.748 L1939.13,639.576 L1939.13,623.467 C1939.13,622.227 1939.61,621.608 1940.59,621.608 C1941.56,621.608 1942.05,622.227 1942.05,623.467 L1942.05,638.405 L1951.33,634.608 L1951.33,618.686 C1951.33,617.446 1951.82,616.826 1952.8,616.826 C1953.78,616.826 1954.27,617.446 1954.27,618.686 L1954.27,633.436 L1957.19,632.264 M1942.05,649.155 L1942.05,663.42 L1951.33,659.608 L1951.33,645.436 L1942.05,649.155 "/>
<polyline class="Stem" fill="none" stroke="#000000" stroke-width="3.25" stroke-linejoin="bevel" points="561.07,648.363 561.07,566.733"/>
<polyline class="Stem" fill="none" stroke="#000000" stroke-width="3.25" stroke-linejoin="bevel" points="750.977,623.363 750.977,547.983"/>
<polyline class="Stem" fill="none" stroke="#000000" stroke-width="3.25" stroke-linejoin="bevel" points="911.221,610.102 911.221,685.483"/>
<polyline class="Stem" fill="none" stroke="#000000" stroke-width="3.25" stroke-linejoin="bevel" points="2185.81,673.364 2185.81,591.733"/>
<polyline class="Stem" fill="none" stroke="#000000" stroke-width="3.25" stroke-linejoin="bevel" points="371.162,673.364 371.162,591.733"/>
<polyline class="Stem" fill="none" stroke="#000000" stroke-width="3.25" stroke-linejoin="bevel" points="1995.9,648.363 1995.9,566.733"/>
<polyline class="Stem" fill="none" stroke="#000000" stroke-width="3.25" stroke-linejoin="bevel" points="1586.42,610.102 1586.42,685.483"/>
<polyline class="Stem" fill="none" stroke="#000000" stroke-width="3.25" stroke-linejoin="bevel" points="1805.99,623.363 1805.99,547.983"/>
<path class="Note" d="M551.749,640.467 C554.874,640.467 557.479,641.248 559.562,642.811 C561.645,644.373 562.687,646.618 562.687,649.545 C562.687,654.035 560.361,658.233 555.71,662.139 C551.059,666.045 546.062,667.998 540.718,667.998 C537.593,667.998 534.958,667.186 532.812,665.561 C530.791,663.8 529.781,661.587 529.781,658.92 C529.781,654.556 532.093,650.389 536.718,646.42 C541.343,642.451 546.354,640.467 551.749,640.467"/>
<path class="Note" d="M2176.49,665.467 C2179.61,665.467 2182.22,666.248 2184.3,667.811 C2186.38,669.373 2187.42,671.618 2187.42,674.545 C2187.42,679.035 2185.1,683.233 2180.45,687.139 C2175.8,691.045 2170.8,692.998 2165.46,692.998 C2162.33,692.998 2159.7,692.186 2157.55,690.561 C2155.53,688.8 2154.52,686.587 2154.52,683.92 C2154.52,679.556 2156.83,675.389 2161.46,671.42 C2166.08,667.451 2171.09,665.467 2176.49,665.467"/>
<path class="Note" d="M1986.58,640.467 C1989.7,640.467 1992.31,641.248 1994.39,642.811 C1996.48,644.373 1997.52,646.618 1997.52,649.545 C1997.52,654.035 1995.19,658.233 1990.54,662.139 C1985.89,666.045 1980.89,667.998 1975.55,667.998 C1972.42,667.998 1969.79,667.186 1967.64,665.561 C1965.62,663.8 1964.61,661.587 1964.61,658.92 C1964.61,654.556 1966.92,650.389 1971.55,646.42 C1976.17,642.451 1981.18,640.467 1986.58,640.467"/>
<path class="Note" d="M1796.67,615.467 C1799.8,615.467 1802.4,616.248 1804.48,617.811 C1806.57,619.373 1807.61,621.618 1807.61,624.545 C1807.61,629.035 1805.28,633.233 1800.63,637.139 C1795.98,641.045 1790.98,642.998 1785.64,642.998 C1782.52,642.998 1779.88,642.186 1777.73,640.561 C1775.71,638.8 1774.7,636.587 1774.7,633.92 C1774.7,629.556 1777.02,625.389 1781.64,621.42 C1786.27,617.451 1791.28,615.467 1796.67,615.467"/>
<path class="Note" d="M1606.76,590.467 C1609.89,590.467 1612.49,591.248 1614.58,592.811 C1616.66,594.373 1617.7,596.618 1617.7,599.545 C1617.7,604.035 1615.38,608.233 1610.73,612.139 C1606.07,616.045 1601.08,617.998 1595.73,617.998 C1592.61,617.998 1589.97,617.186 1587.83,615.561 C1585.81,613.8 1584.8,611.587 1584.8,608.92 C1584.8,604.556 1587.11,600.389 1591.73,596.42 C1596.36,592.451 1601.37,590.467 1606.76,590.467"/>
<path class="Note" d="M361.842,665.467 C364.967,665.467 367.571,666.248 369.654,667.811 C371.738,669.373 372.779,671.618 372.779,674.545 C372.779,679.035 370.454,683.233 365.803,687.139 C361.152,691.045 356.154,692.998 350.811,692.998 C347.686,692.998 345.05,692.186 342.904,690.561 C340.884,688.8 339.873,686.587 339.873,683.92 C339.873,679.556 342.186,675.389 346.811,671.42 C351.436,667.451 356.446,665.467 361.842,665.467"/>
<path class="Note" d="M931.565,590.467 C934.69,590.467 937.294,591.248 939.377,592.811 C941.461,594.373 942.502,596.618 942.502,599.545 C942.502,604.035 940.177,608.233 935.526,612.139 C930.875,616.045 925.877,617.998 920.533,617.998 C917.408,617.998 914.773,617.186 912.627,615.561 C910.606,613.8 909.596,611.587 909.596,608.92 C909.596,604.556 911.908,600.389 916.533,596.42 C921.158,592.451 926.169,590.467 931.565,590.467"/>
<path class="Note" d="M741.657,615.467 C744.782,615.467 747.386,616.248 749.47,617.811 C751.553,619.373 752.595,621.618 752.595,624.545 C752.595,629.035 750.269,633.233 745.618,637.139 C740.967,641.045 735.97,642.998 730.626,642.998 C727.501,642.998 724.865,642.186 722.72,640.561 C720.699,638.8 719.688,636.587 719.688,633.92 C719.688,629.556 722.001,625.389 726.626,621.42 C731.251,617.451 736.261,615.467 741.657,615.467"/>
<path class="Clef" d="M203.623,673.858 L203.623,671.717 C203.56,670.613 203.399,668.889 203.139,666.545 C199.889,667.066 196.993,667.326 194.451,667.326 C185.337,667.326 177.605,663.727 171.256,656.53 C164.907,649.332 161.732,640.754 161.732,630.795 C161.732,628.129 162.253,624.923 163.295,621.178 C164.337,617.433 165.297,614.925 166.178,613.655 C167.058,612.384 168.378,610.155 170.139,606.967 C170.659,605.988 172.352,603.837 175.217,600.514 C175.738,599.806 176.193,599.222 176.584,598.764 C176.975,598.306 177.607,597.49 178.482,596.319 C179.357,595.147 180.3,594.056 181.31,593.045 C182.321,592.035 183.217,591.058 183.998,590.115 C184.779,589.173 185.498,588.379 186.154,587.733 C183.81,579.983 182.378,574.024 181.857,569.858 C181.337,565.691 181.076,560.579 181.076,554.522 C181.076,548.464 182.378,542.962 184.982,538.014 C187.514,532.879 191.06,528.681 195.623,525.42 C195.883,525.222 196.225,525.123 196.646,525.123 C197.068,525.123 197.378,525.222 197.576,525.42 C201.087,529.649 204.128,535.149 206.701,541.92 C209.274,548.691 210.56,555.024 210.56,560.92 C210.56,566.816 209.066,572.498 206.076,577.967 C202.691,583.759 198.326,589.748 192.982,595.936 C194.347,600.227 196.17,606.962 198.451,616.139 L199.045,616.139 C199.305,616.076 199.529,616.045 199.717,616.045 C207.081,616.045 213.089,618.634 217.74,623.811 C222.391,628.988 224.717,634.962 224.717,641.733 C224.717,650.129 221.238,656.899 214.279,662.045 C212.258,663.545 209.878,664.717 207.139,665.561 C207.472,669.79 207.639,672.605 207.639,674.006 C207.639,675.407 207.571,677.899 207.435,681.483 C207.373,687.597 205.29,692.837 201.185,697.201 C197.081,701.566 192.394,703.748 187.123,703.748 C181.852,703.748 177.36,701.876 173.646,698.131 C169.933,694.386 168.076,689.847 168.076,684.514 C168.076,681.712 169.154,679.332 171.31,677.373 C173.519,675.425 176.006,674.451 178.771,674.451 C181.537,674.451 183.8,675.462 185.56,677.483 C187.383,679.368 188.295,681.644 188.295,684.311 C188.295,686.977 187.383,689.222 185.56,691.045 C183.738,692.868 181.555,693.78 179.014,693.78 C177.972,693.78 176.967,693.587 175.998,693.201 C178.863,697.431 182.54,699.545 187.029,699.545 C191.519,699.545 195.36,697.691 198.553,693.983 C201.745,690.274 203.342,685.91 203.342,680.889 L203.623,673.858 M206.748,661.561 C210.133,660.321 212.821,658.123 214.81,654.967 C216.8,651.811 217.795,648.67 217.795,645.545 C217.795,640.92 216.199,636.785 213.006,633.139 C209.813,629.493 205.774,627.441 200.889,626.983 C203.691,640.722 205.644,652.248 206.748,661.561 M168.967,638.998 C168.967,645.446 171.537,651.079 176.678,655.897 C181.818,660.714 187.842,663.123 194.748,663.123 C197.477,663.123 200.144,662.925 202.748,662.53 C201.706,652.634 199.654,640.785 196.592,626.983 C192.758,627.379 189.782,628.699 187.662,630.944 C185.542,633.188 184.482,635.743 184.482,638.608 C184.482,643.556 187.123,647.561 192.404,650.623 C192.852,650.884 193.076,651.324 193.076,651.944 C193.076,652.563 192.865,653.1 192.443,653.553 C192.021,654.006 191.649,654.233 191.326,654.233 C191.003,654.233 190.581,654.17 190.06,654.045 C182.435,649.879 178.623,643.592 178.623,635.186 C178.623,631.217 180.024,627.41 182.826,623.764 C185.753,620.118 189.56,617.774 194.248,616.733 C192.425,609.441 190.93,603.743 189.764,599.639 C180.847,609.67 175.31,617.092 173.154,621.905 C170.363,628.155 168.967,633.852 168.967,638.998 M201.576,539.686 C196.691,542.092 192.834,545.574 190.006,550.131 C187.178,554.688 185.764,559.472 185.764,564.483 C185.764,569.493 186.935,575.972 189.279,583.92 C193.967,578.254 197.514,572.946 199.92,567.998 C202.326,563.05 203.529,558.152 203.529,553.303 C203.529,548.454 202.878,543.915 201.576,539.686"/>
<path class="TimeSig" d="M273.021,567.912 C274.516,567.912 275.949,567.686 277.318,567.233 C278.688,566.78 279.665,566.553 280.248,566.553 C280.831,566.553 281.222,566.907 281.42,567.615 C281.42,567.688 281.352,567.886 281.217,568.209 L252.811,601.225 L269.498,601.225 L269.498,588.131 C269.498,586.506 270.446,585.334 272.342,584.615 C274.29,583.897 276.503,581.001 278.982,575.928 C279.17,575.532 279.462,575.334 279.857,575.334 C280.639,575.334 281.092,575.793 281.217,576.709 L281.217,601.225 L288.357,601.225 C289.264,601.225 289.751,601.712 289.818,602.686 C289.886,603.66 289.399,604.147 288.357,604.147 L281.217,604.147 L281.217,604.928 C281.217,607.532 281.868,609.746 283.17,611.569 C284.67,613.391 286.43,614.303 288.451,614.303 C289.232,614.303 289.623,614.694 289.623,615.475 C289.623,616.256 289.087,616.647 288.014,616.647 C286.941,616.647 284.938,616.436 282.006,616.014 C279.074,615.592 276.811,615.381 275.217,615.381 C273.623,615.381 271.41,615.592 268.576,616.014 C265.743,616.436 263.613,616.647 262.186,616.647 C261.404,616.647 261.014,616.256 261.014,615.475 C261.014,614.694 261.404,614.303 262.186,614.303 C264.196,614.303 265.951,613.391 267.451,611.569 C268.816,609.683 269.498,607.47 269.498,604.928 L269.498,604.147 L252.811,604.147 C251.956,604.147 251.219,603.92 250.6,603.467 C249.98,603.014 249.67,602.592 249.67,602.201 C249.67,601.811 250.485,600.639 252.115,598.686 C253.745,596.733 256.074,592.972 259.1,587.405 C262.126,581.837 263.639,575.438 263.639,568.209 C263.639,567.168 264.097,566.647 265.014,566.647 C265.212,566.647 265.521,566.712 265.943,566.842 C266.365,566.972 267.277,567.183 268.678,567.475 C270.079,567.766 271.527,567.912 273.021,567.912"/>
<path class="TimeSig" d="M273.021,618.084 C274.516,618.084 275.949,617.858 277.318,617.405 C278.688,616.951 279.665,616.725 280.248,616.725 C280.831,616.725 281.222,617.079 281.42,617.787 C281.42,617.86 281.352,618.058 281.217,618.381 L252.811,651.397 L269.498,651.397 L269.498,638.303 C269.498,636.678 270.446,635.506 272.342,634.787 C274.29,634.069 276.503,631.173 278.982,626.1 C279.17,625.704 279.462,625.506 279.857,625.506 C280.639,625.506 281.092,625.964 281.217,626.881 L281.217,651.397 L288.357,651.397 C289.264,651.397 289.751,651.884 289.818,652.858 C289.886,653.832 289.399,654.319 288.357,654.319 L281.217,654.319 L281.217,655.1 C281.217,657.704 281.868,659.918 283.17,661.74 C284.67,663.563 286.43,664.475 288.451,664.475 C289.232,664.475 289.623,664.865 289.623,665.647 C289.623,666.428 289.087,666.819 288.014,666.819 C286.941,666.819 284.938,666.608 282.006,666.186 C279.074,665.764 276.811,665.553 275.217,665.553 C273.623,665.553 271.41,665.764 268.576,666.186 C265.743,666.608 263.613,666.819 262.186,666.819 C261.404,666.819 261.014,666.428 261.014,665.647 C261.014,664.865 261.404,664.475 262.186,664.475 C264.196,664.475 265.951,663.563 267.451,661.74 C268.816,659.855 269.498,657.642 269.498,655.1 L269.498,654.319 L252.811,654.319 C251.956,654.319 251.219,654.092 250.6,653.639 C249.98,653.186 249.67,652.764 249.67,652.373 C249.67,651.983 250.485,650.811 252.115,648.858 C253.745,646.905 256.074,643.144 259.1,637.576 C262.126,632.009 263.639,625.61 263.639,618.381 C263.639,617.339 264.097,616.819 265.014,616.819 C265.212,616.819 265.521,616.884 265.943,617.014 C266.365,617.144 267.277,617.355 268.678,617.647 C270.079,617.938 271.527,618.084 273.021,618.084"/>
<path class="Rest" d="M1347.43,607.358 L1311.88,607.358 C1311.23,607.358 1310.9,607.035 1310.9,606.389 L1310.9,592.717 C1310.9,592.061 1311.23,591.733 1311.88,591.733 L1347.43,591.733 C1348.08,591.733 1348.4,592.061 1348.4,592.717 L1348.4,606.389 C1348.4,607.035 1348.08,607.358 1347.43,607.358"/>
<path class="Rest" d="M2592.35,607.358 L2556.81,607.358 C2556.15,607.358 2555.82,607.035 2555.82,606.389 L2555.82,592.717 C2555.82,592.061 2556.15,591.733 2556.81,591.733 L2592.35,591.733 C2593,591.733 2593.32,592.061 2593.32,592.717 L2593.32,606.389 C2593.32,607.035 2593,607.358 2592.35,607.358"/>
</svg>
