<?xml version="1.0" encoding="UTF-8" standalone="no"?>
<svg width="2977.2px" height="4208.4px" viewBox="0 0 2977.2 4208.4"
 xmlns="http://www.w3.org/2000/svg" xmlns:xlink="http://www.w3.org/1999/xlink" version="1.2" baseProfile="tiny">
<title>Gmaj_Scale.mscx</title>
<desc>Generated by MuseScore Studio 4.3.1</desc>
<path class="" fill="#ffffff" fill-rule="evenodd" d="M0,0 L2977.2,0 L2977.2,4208.4 L0,4208.4 L0,0 "/>
<polyline class="StaffLines" fill="none" stroke="#000000" stroke-width="2.00" stroke-linejoin="bevel" points="141.732,566.733 2835.47,566.733"/>
<polyline class="StaffLines" fill="none" stroke="#000000" stroke-width="2.00" stroke-linejoin="bevel" points="141.732,591.733 2835.47,591.733"/>
<polyline class="StaffLines" fill="none" stroke="#000000" stroke-width="2.00" stroke-linejoin="bevel" points="141.732,616.733 2835.47,616.733"/>
<polyline class="StaffLines" fill="none" stroke="#000000" stroke-width="2.00" stroke-linejoin="bevel" points="141.732,641.733 2835.47,641.733"/>
<polyline class="StaffLines" fill="none" stroke="#000000" stroke-width="2.00" stroke-linejoin="bevel" points="141.732,666.733 2835.47,666.733"/>
<polyline class="BarLine" fill="none" stroke="#000000" stroke-width="4.00" stroke-linejoin="bevel" points="1260.62,565.733 1260.62,667.733"/>
<polyline class="BarLine" fill="none" stroke="#000000" stroke-width="4.00" stroke-linejoin="bevel" points="2802.72,565.733 2802.72,667.733"/>
<polyline class="BarLine" fill="none" stroke="#000000" stroke-width="12.50" stroke-linejoin="bevel" points="2829.22,565.733 2829.22,667.733"/>
<polyline class="BarLine" fill="none" stroke="#000000" stroke-width="4.00" stroke-linejoin="bevel" points="2550.68,565.733 2550.68,667.733"/>
<polyline class="BarLine" fill="none" stroke="#000000" stroke-width="4.00" stroke-linejoin="bevel" points="1589.43,565.733 1589.43,667.733"/>
<polyline class="BarLine" fill="none" stroke="#000000" stroke-width="4.00" stroke-linejoin="bevel" points="944.402,565.733 944.402,667.733"/>
<polyline class="BarLine" fill="none" stroke="#000000" stroke-width="4.00" stroke-linejoin="bevel" points="2234.47,565.733 2234.47,667.733"/>
<polyline class="BarLine" fill="none" stroke="#000000" stroke-width="4.00" stroke-linejoin="bevel" points="1918.25,565.733 1918.25,667.733"/>
<polyline class="BarLine" fill="none" stroke="#000000" stroke-width="4.00" stroke-linejoin="bevel" points="628.186,565.733 628.186,667.733"/>
<path class="Accidental" d="M1621.61,544.764 C1623.05,544.368 1623.77,544.722 1623.77,545.826 L1623.77,553.639 C1623.77,554.42 1623.15,555.04 1621.91,555.498 L1618.69,556.764 L1618.69,570.936 L1621.61,569.764 C1623.05,569.368 1623.77,569.727 1623.77,570.842 L1623.77,578.655 C1623.77,579.436 1623.15,580.05 1621.91,580.498 L1618.69,581.78 L1618.69,597.983 C1618.69,599.222 1618.2,599.842 1617.22,599.842 C1616.24,599.842 1615.75,599.222 1615.75,597.983 L1615.75,582.951 L1606.47,586.655 L1606.47,602.764 C1606.47,604.003 1605.99,604.623 1605.01,604.623 C1604.04,604.623 1603.55,604.003 1603.55,602.764 L1603.55,587.826 L1601,588.905 C1599.64,589.488 1598.96,589.097 1598.96,587.733 L1598.96,580.014 C1598.96,579.368 1599.55,578.785 1600.72,578.264 L1603.55,577.092 L1603.55,562.826 L1601,563.905 C1599.64,564.488 1598.96,564.097 1598.96,562.733 L1598.96,555.014 C1598.96,554.358 1599.55,553.769 1600.72,553.248 L1603.55,552.076 L1603.55,535.967 C1603.55,534.727 1604.04,534.108 1605.01,534.108 C1605.99,534.108 1606.47,534.727 1606.47,535.967 L1606.47,550.905 L1615.75,547.108 L1615.75,531.186 C1615.75,529.946 1616.24,529.326 1617.22,529.326 C1618.2,529.326 1618.69,529.946 1618.69,531.186 L1618.69,545.936 L1621.61,544.764 M1606.47,561.655 L1606.47,575.92 L1615.75,572.108 L1615.75,557.936 L1606.47,561.655 "/>
<path class="Accidental" d="M1292.8,544.764 C1294.23,544.368 1294.95,544.722 1294.95,545.826 L1294.95,553.639 C1294.95,554.42 1294.33,555.04 1293.09,555.498 L1289.88,556.764 L1289.88,570.936 L1292.8,569.764 C1294.23,569.368 1294.95,569.727 1294.95,570.842 L1294.95,578.655 C1294.95,579.436 1294.33,580.05 1293.09,580.498 L1289.88,581.78 L1289.88,597.983 C1289.88,599.222 1289.39,599.842 1288.41,599.842 C1287.43,599.842 1286.94,599.222 1286.94,597.983 L1286.94,582.951 L1277.66,586.655 L1277.66,602.764 C1277.66,604.003 1277.17,604.623 1276.2,604.623 C1275.22,604.623 1274.73,604.003 1274.73,602.764 L1274.73,587.826 L1272.19,588.905 C1270.82,589.488 1270.14,589.097 1270.14,587.733 L1270.14,580.014 C1270.14,579.368 1270.73,578.785 1271.91,578.264 L1274.73,577.092 L1274.73,562.826 L1272.19,563.905 C1270.82,564.488 1270.14,564.097 1270.14,562.733 L1270.14,555.014 C1270.14,554.358 1270.73,553.769 1271.91,553.248 L1274.73,552.076 L1274.73,535.967 C1274.73,534.727 1275.22,534.108 1276.2,534.108 C1277.17,534.108 1277.66,534.727 1277.66,535.967 L1277.66,550.905 L1286.94,547.108 L1286.94,531.186 C1286.94,529.946 1287.43,529.326 1288.41,529.326 C1289.39,529.326 1289.88,529.946 1289.88,531.186 L1289.88,545.936 L1292.8,544.764 M1277.66,561.655 L1277.66,575.92 L1286.94,572.108 L1286.94,557.936 L1277.66,561.655 "/>
<polyline class="Stem" fill="none" stroke="#000000" stroke-width="3.25" stroke-linejoin="bevel" points="1445,559.133 1445,641.733"/>
<polyline class="Stem" fill="none" stroke="#000000" stroke-width="3.25" stroke-linejoin="bevel" points="1946.88,596.633 1946.88,679.233"/>
<polyline class="Stem" fill="none" stroke="#000000" stroke-width="3.25" stroke-linejoin="bevel" points="1773.82,584.133 1773.82,666.733"/>
<polyline class="Stem" fill="none" stroke="#000000" stroke-width="3.25" stroke-linejoin="bevel" points="1630.66,571.633 1630.66,654.233"/>
<polyline class="Stem" fill="none" stroke="#000000" stroke-width="3.25" stroke-linejoin="bevel" points="2090.03,609.133 2090.03,685.483"/>
<polyline class="Stem" fill="none" stroke="#000000" stroke-width="3.25" stroke-linejoin="bevel" points="2263.09,621.633 2263.09,691.733"/>
<polyline class="Stem" fill="none" stroke="#000000" stroke-width="3.25" stroke-linejoin="bevel" points="2437.72,624.433 2437.72,547.983"/>
<polyline class="Stem" fill="none" stroke="#000000" stroke-width="3.25" stroke-linejoin="bevel" points="1301.84,571.633 1301.84,654.233"/>
<polyline class="Stem" fill="none" stroke="#000000" stroke-width="3.25" stroke-linejoin="bevel" points="1116.18,584.133 1116.18,666.733"/>
<polyline class="Stem" fill="none" stroke="#000000" stroke-width="3.25" stroke-linejoin="bevel" points="372.065,636.933 372.065,554.233"/>
<polyline class="Stem" fill="none" stroke="#000000" stroke-width="3.25" stroke-linejoin="bevel" points="515.221,624.433 515.221,547.983"/>
<polyline class="Stem" fill="none" stroke="#000000" stroke-width="3.25" stroke-linejoin="bevel" points="973.027,596.633 973.027,679.233"/>
<polyline class="Stem" fill="none" stroke="#000000" stroke-width="3.25" stroke-linejoin="bevel" points="656.811,621.633 656.811,691.733"/>
<polyline class="Stem" fill="none" stroke="#000000" stroke-width="3.25" stroke-linejoin="bevel" points="799.968,609.133 799.968,685.483"/>
<path class="Note" d="M1121.98,589.873 C1123.87,589.873 1127.82,587.92 1133.85,584.014 C1139.87,580.108 1143.42,577.488 1144.5,576.155 C1145.57,574.821 1146.11,573.634 1146.11,572.592 C1146.11,571.55 1145.68,570.623 1144.83,569.811 C1143.98,568.998 1143.01,568.592 1141.9,568.592 C1139.95,568.592 1135.97,570.561 1129.94,574.498 C1123.92,578.436 1120.38,581.056 1119.34,582.358 C1118.3,583.66 1117.78,584.832 1117.78,585.873 C1117.78,586.915 1118.19,587.842 1119,588.655 C1119.82,589.467 1120.81,589.873 1121.98,589.873 M1140.93,565.467 C1146.53,565.467 1149.32,567.873 1149.32,572.686 C1149.32,575.03 1148.64,577.748 1147.28,580.842 C1145.91,583.936 1144.09,586.295 1141.81,587.92 C1136.8,591.306 1130.52,592.998 1122.96,592.998 C1117.36,592.998 1114.56,590.592 1114.56,585.78 C1114.56,583.634 1115.23,580.964 1116.56,577.772 C1117.89,574.579 1119.73,572.17 1122.07,570.545 C1127.09,567.16 1133.38,565.467 1140.93,565.467"/>
<path class="Note" d="M2594.78,647.201 C2597.64,651.045 2601.32,652.967 2605.81,652.967 C2610.3,652.967 2612.54,649.941 2612.54,643.889 C2612.54,641.014 2611.73,638.472 2610.1,636.264 C2607.3,632.42 2603.53,630.498 2598.78,630.498 C2596.69,630.498 2595.1,631.36 2594,633.084 C2592.89,634.808 2592.34,637.04 2592.34,639.78 C2592.34,642.519 2593.15,644.993 2594.78,647.201 M2585.1,631.967 C2589.99,629.3 2595.87,627.967 2602.74,627.967 C2609.61,627.967 2615.4,629.334 2620.12,632.069 C2624.84,634.803 2627.2,638.058 2627.2,641.834 C2627.2,645.61 2624.76,648.832 2619.87,651.498 C2614.98,654.165 2609.14,655.498 2602.34,655.498 C2595.54,655.498 2589.73,654.131 2584.91,651.397 C2580.09,648.662 2577.68,645.376 2577.68,641.537 C2577.68,637.699 2580.16,634.509 2585.1,631.967"/>
<path class="Note" d="M2412.05,639.873 C2413.93,639.873 2417.89,637.92 2423.91,634.014 C2429.94,630.108 2433.49,627.488 2434.56,626.155 C2435.63,624.821 2436.17,623.634 2436.17,622.592 C2436.17,621.55 2435.75,620.623 2434.9,619.811 C2434.05,618.998 2433.07,618.592 2431.97,618.592 C2430.02,618.592 2426.03,620.561 2420.01,624.498 C2413.98,628.436 2410.45,631.056 2409.4,632.358 C2408.36,633.66 2407.84,634.832 2407.84,635.873 C2407.84,636.915 2408.25,637.842 2409.07,638.655 C2409.89,639.467 2410.88,639.873 2412.05,639.873 M2431,615.467 C2436.59,615.467 2439.39,617.873 2439.39,622.686 C2439.39,625.03 2438.71,627.748 2437.34,630.842 C2435.98,633.936 2434.15,636.295 2431.87,637.92 C2426.86,641.306 2420.58,642.998 2413.03,642.998 C2407.43,642.998 2404.62,640.592 2404.62,635.78 C2404.62,633.634 2405.29,630.964 2406.62,627.772 C2407.96,624.579 2409.8,622.17 2412.14,620.545 C2417.16,617.16 2423.45,615.467 2431,615.467"/>
<path class="Note" d="M2268.89,627.373 C2270.77,627.373 2274.73,625.42 2280.76,621.514 C2286.78,617.608 2290.33,614.988 2291.4,613.655 C2292.48,612.321 2293.01,611.134 2293.01,610.092 C2293.01,609.05 2292.59,608.123 2291.74,607.311 C2290.89,606.498 2289.92,606.092 2288.81,606.092 C2286.86,606.092 2282.88,608.061 2276.85,611.998 C2270.82,615.936 2267.29,618.556 2266.25,619.858 C2265.21,621.16 2264.69,622.332 2264.69,623.373 C2264.69,624.415 2265.09,625.342 2265.91,626.155 C2266.73,626.967 2267.72,627.373 2268.89,627.373 M2287.84,602.967 C2293.44,602.967 2296.23,605.373 2296.23,610.186 C2296.23,612.53 2295.55,615.248 2294.19,618.342 C2292.82,621.436 2291,623.795 2288.72,625.42 C2283.71,628.806 2277.43,630.498 2269.87,630.498 C2264.27,630.498 2261.47,628.092 2261.47,623.28 C2261.47,621.134 2262.13,618.464 2263.47,615.272 C2264.8,612.079 2266.64,609.67 2268.98,608.045 C2274,604.66 2280.29,602.967 2287.84,602.967"/>
<path class="Note" d="M346.393,652.373 C348.278,652.373 352.234,650.42 358.26,646.514 C364.286,642.608 367.835,639.988 368.908,638.655 C369.981,637.321 370.518,636.134 370.518,635.092 C370.518,634.05 370.093,633.123 369.244,632.311 C368.395,631.498 367.419,631.092 366.315,631.092 C364.367,631.092 360.38,633.061 354.354,636.998 C348.328,640.936 344.794,643.556 343.752,644.858 C342.71,646.16 342.19,647.332 342.19,648.373 C342.19,649.415 342.598,650.342 343.416,651.155 C344.234,651.967 345.226,652.373 346.393,652.373 M365.346,627.967 C370.94,627.967 373.736,630.373 373.736,635.186 C373.736,637.53 373.054,640.248 371.69,643.342 C370.325,646.436 368.502,648.795 366.221,650.42 C361.21,653.806 354.929,655.498 347.377,655.498 C341.773,655.498 338.971,653.092 338.971,648.28 C338.971,646.134 339.637,643.464 340.971,640.272 C342.304,637.079 344.143,634.67 346.486,633.045 C351.507,629.66 357.794,627.967 365.346,627.967"/>
<path class="Note" d="M2095.83,614.873 C2097.72,614.873 2101.67,612.92 2107.7,609.014 C2113.72,605.108 2117.27,602.488 2118.35,601.155 C2119.42,599.821 2119.96,598.634 2119.96,597.592 C2119.96,596.55 2119.53,595.623 2118.68,594.811 C2117.83,593.998 2116.86,593.592 2115.75,593.592 C2113.8,593.592 2109.82,595.561 2103.79,599.498 C2097.76,603.436 2094.23,606.056 2093.19,607.358 C2092.15,608.66 2091.63,609.832 2091.63,610.873 C2091.63,611.915 2092.04,612.842 2092.85,613.655 C2093.67,614.467 2094.66,614.873 2095.83,614.873 M2114.78,590.467 C2120.38,590.467 2123.17,592.873 2123.17,597.686 C2123.17,600.03 2122.49,602.748 2121.13,605.842 C2119.76,608.936 2117.94,611.295 2115.66,612.92 C2110.65,616.306 2104.37,617.998 2096.81,617.998 C2091.21,617.998 2088.41,615.592 2088.41,610.78 C2088.41,608.634 2089.07,605.964 2090.41,602.772 C2091.74,599.579 2093.58,597.17 2095.92,595.545 C2100.94,592.16 2107.23,590.467 2114.78,590.467"/>
<path class="Note" d="M489.549,639.873 C491.435,639.873 495.39,637.92 501.416,634.014 C507.442,630.108 510.992,627.488 512.065,626.155 C513.138,624.821 513.674,623.634 513.674,622.592 C513.674,621.55 513.25,620.623 512.401,619.811 C511.552,618.998 510.575,618.592 509.471,618.592 C507.523,618.592 503.536,620.561 497.51,624.498 C491.484,628.436 487.95,631.056 486.909,632.358 C485.867,633.66 485.346,634.832 485.346,635.873 C485.346,636.915 485.755,637.842 486.573,638.655 C487.39,639.467 488.383,639.873 489.549,639.873 M508.502,615.467 C514.096,615.467 516.893,617.873 516.893,622.686 C516.893,625.03 516.211,627.748 514.846,630.842 C513.482,633.936 511.659,636.295 509.377,637.92 C504.367,641.306 498.086,642.998 490.534,642.998 C484.929,642.998 482.127,640.592 482.127,635.78 C482.127,633.634 482.794,630.964 484.127,627.772 C485.461,624.579 487.299,622.17 489.643,620.545 C494.664,617.16 500.95,615.467 508.502,615.467"/>
<path class="Note" d="M1952.67,602.373 C1954.56,602.373 1958.51,600.42 1964.54,596.514 C1970.57,592.608 1974.12,589.988 1975.19,588.655 C1976.26,587.321 1976.8,586.134 1976.8,585.092 C1976.8,584.05 1976.37,583.123 1975.53,582.311 C1974.68,581.498 1973.7,581.092 1972.6,581.092 C1970.65,581.092 1966.66,583.061 1960.63,586.998 C1954.61,590.936 1951.07,593.556 1950.03,594.858 C1948.99,596.16 1948.47,597.332 1948.47,598.373 C1948.47,599.415 1948.88,600.342 1949.7,601.155 C1950.51,601.967 1951.51,602.373 1952.67,602.373 M1971.63,577.967 C1977.22,577.967 1980.02,580.373 1980.02,585.186 C1980.02,587.53 1979.33,590.248 1977.97,593.342 C1976.61,596.436 1974.78,598.795 1972.5,600.42 C1967.49,603.806 1961.21,605.498 1953.66,605.498 C1948.05,605.498 1945.25,603.092 1945.25,598.28 C1945.25,596.134 1945.92,593.464 1947.25,590.272 C1948.58,587.079 1950.42,584.67 1952.77,583.045 C1957.79,579.66 1964.07,577.967 1971.63,577.967"/>
<path class="Note" d="M662.608,627.373 C664.494,627.373 668.449,625.42 674.475,621.514 C680.501,617.608 684.051,614.988 685.124,613.655 C686.197,612.321 686.733,611.134 686.733,610.092 C686.733,609.05 686.309,608.123 685.46,607.311 C684.611,606.498 683.634,606.092 682.53,606.092 C680.582,606.092 676.595,608.061 670.569,611.998 C664.543,615.936 661.009,618.556 659.968,619.858 C658.926,621.16 658.405,622.332 658.405,623.373 C658.405,624.415 658.814,625.342 659.632,626.155 C660.449,626.967 661.442,627.373 662.608,627.373 M681.561,602.967 C687.155,602.967 689.952,605.373 689.952,610.186 C689.952,612.53 689.27,615.248 687.905,618.342 C686.54,621.436 684.718,623.795 682.436,625.42 C677.426,628.806 671.145,630.498 663.593,630.498 C657.988,630.498 655.186,628.092 655.186,623.28 C655.186,621.134 655.853,618.464 657.186,615.272 C658.52,612.079 660.358,609.67 662.702,608.045 C667.723,604.66 674.009,602.967 681.561,602.967"/>
<path class="Note" d="M1779.61,589.873 C1781.5,589.873 1785.46,587.92 1791.48,584.014 C1797.51,580.108 1801.06,577.488 1802.13,576.155 C1803.2,574.821 1803.74,573.634 1803.74,572.592 C1803.74,571.55 1803.32,570.623 1802.47,569.811 C1801.62,568.998 1800.64,568.592 1799.54,568.592 C1797.59,568.592 1793.6,570.561 1787.58,574.498 C1781.55,578.436 1778.02,581.056 1776.97,582.358 C1775.93,583.66 1775.41,584.832 1775.41,585.873 C1775.41,586.915 1775.82,587.842 1776.64,588.655 C1777.46,589.467 1778.45,589.873 1779.61,589.873 M1798.57,565.467 C1804.16,565.467 1806.96,567.873 1806.96,572.686 C1806.96,575.03 1806.28,577.748 1804.91,580.842 C1803.55,583.936 1801.72,586.295 1799.44,587.92 C1794.43,591.306 1788.15,592.998 1780.6,592.998 C1774.99,592.998 1772.19,590.592 1772.19,585.78 C1772.19,583.634 1772.86,580.964 1774.19,577.772 C1775.53,574.579 1777.36,572.17 1779.71,570.545 C1784.73,567.16 1791.02,565.467 1798.57,565.467"/>
<path class="Note" d="M1636.46,577.373 C1638.34,577.373 1642.3,575.42 1648.33,571.514 C1654.35,567.608 1657.9,564.988 1658.97,563.655 C1660.05,562.321 1660.58,561.134 1660.58,560.092 C1660.58,559.05 1660.16,558.123 1659.31,557.311 C1658.46,556.498 1657.48,556.092 1656.38,556.092 C1654.43,556.092 1650.44,558.061 1644.42,561.998 C1638.39,565.936 1634.86,568.556 1633.82,569.858 C1632.78,571.16 1632.25,572.332 1632.25,573.373 C1632.25,574.415 1632.66,575.342 1633.48,576.155 C1634.3,576.967 1635.29,577.373 1636.46,577.373 M1655.41,552.967 C1661,552.967 1663.8,555.373 1663.8,560.186 C1663.8,562.53 1663.12,565.248 1661.75,568.342 C1660.39,571.436 1658.57,573.795 1656.29,575.42 C1651.28,578.806 1644.99,580.498 1637.44,580.498 C1631.84,580.498 1629.04,578.092 1629.04,573.28 C1629.04,571.134 1629.7,568.464 1631.04,565.272 C1632.37,562.079 1634.21,559.67 1636.55,558.045 C1641.57,554.66 1647.86,552.967 1655.41,552.967"/>
<path class="Note" d="M805.765,614.873 C807.65,614.873 811.606,612.92 817.632,609.014 C823.658,605.108 827.207,602.488 828.28,601.155 C829.353,599.821 829.89,598.634 829.89,597.592 C829.89,596.55 829.465,595.623 828.616,594.811 C827.767,593.998 826.791,593.592 825.687,593.592 C823.739,593.592 819.752,595.561 813.726,599.498 C807.7,603.436 804.166,606.056 803.124,607.358 C802.082,608.66 801.562,609.832 801.562,610.873 C801.562,611.915 801.97,612.842 802.788,613.655 C803.606,614.467 804.598,614.873 805.765,614.873 M824.718,590.467 C830.312,590.467 833.109,592.873 833.109,597.686 C833.109,600.03 832.426,602.748 831.062,605.842 C829.697,608.936 827.874,611.295 825.593,612.92 C820.582,616.306 814.301,617.998 806.749,617.998 C801.145,617.998 798.343,615.592 798.343,610.78 C798.343,608.634 799.01,605.964 800.343,602.772 C801.676,599.579 803.515,597.17 805.859,595.545 C810.879,592.16 817.166,590.467 824.718,590.467"/>
<path class="Note" d="M1450.8,564.873 C1452.68,564.873 1456.64,562.92 1462.66,559.014 C1468.69,555.108 1472.24,552.488 1473.31,551.154 C1474.39,549.821 1474.92,548.634 1474.92,547.592 C1474.92,546.55 1474.5,545.623 1473.65,544.811 C1472.8,543.998 1471.82,543.592 1470.72,543.592 C1468.77,543.592 1464.78,545.561 1458.76,549.498 C1452.73,553.436 1449.2,556.056 1448.16,557.358 C1447.12,558.66 1446.59,559.832 1446.59,560.873 C1446.59,561.915 1447,562.842 1447.82,563.654 C1448.64,564.467 1449.63,564.873 1450.8,564.873 M1469.75,540.467 C1475.34,540.467 1478.14,542.873 1478.14,547.686 C1478.14,550.029 1477.46,552.748 1476.09,555.842 C1474.73,558.936 1472.91,561.295 1470.63,562.92 C1465.62,566.306 1459.33,567.998 1451.78,567.998 C1446.18,567.998 1443.38,565.592 1443.38,560.779 C1443.38,558.634 1444.04,555.964 1445.38,552.772 C1446.71,549.579 1448.55,547.17 1450.89,545.545 C1455.91,542.16 1462.2,540.467 1469.75,540.467"/>
<path class="Note" d="M1307.64,577.373 C1309.53,577.373 1313.48,575.42 1319.51,571.514 C1325.53,567.608 1329.08,564.988 1330.16,563.655 C1331.23,562.321 1331.77,561.134 1331.77,560.092 C1331.77,559.05 1331.34,558.123 1330.49,557.311 C1329.64,556.498 1328.67,556.092 1327.56,556.092 C1325.61,556.092 1321.63,558.061 1315.6,561.998 C1309.58,565.936 1306.04,568.556 1305,569.858 C1303.96,571.16 1303.44,572.332 1303.44,573.373 C1303.44,574.415 1303.85,575.342 1304.66,576.155 C1305.48,576.967 1306.47,577.373 1307.64,577.373 M1326.59,552.967 C1332.19,552.967 1334.98,555.373 1334.98,560.186 C1334.98,562.53 1334.3,565.248 1332.94,568.342 C1331.57,571.436 1329.75,573.795 1327.47,575.42 C1322.46,578.806 1316.18,580.498 1308.63,580.498 C1303.02,580.498 1300.22,578.092 1300.22,573.28 C1300.22,571.134 1300.89,568.464 1302.22,565.272 C1303.55,562.079 1305.39,559.67 1307.73,558.045 C1312.76,554.66 1319.04,552.967 1326.59,552.967"/>
<path class="Note" d="M978.824,602.373 C980.709,602.373 984.665,600.42 990.691,596.514 C996.717,592.608 1000.27,589.988 1001.34,588.655 C1002.41,587.321 1002.95,586.134 1002.95,585.092 C1002.95,584.05 1002.52,583.123 1001.68,582.311 C1000.83,581.498 999.85,581.092 998.746,581.092 C996.798,581.092 992.811,583.061 986.785,586.998 C980.759,590.936 977.225,593.556 976.183,594.858 C975.141,596.16 974.621,597.332 974.621,598.373 C974.621,599.415 975.029,600.342 975.847,601.155 C976.665,601.967 977.657,602.373 978.824,602.373 M997.777,577.967 C1003.37,577.967 1006.17,580.373 1006.17,585.186 C1006.17,587.53 1005.49,590.248 1004.12,593.342 C1002.76,596.436 1000.93,598.795 998.652,600.42 C993.641,603.806 987.36,605.498 979.808,605.498 C974.204,605.498 971.402,603.092 971.402,598.28 C971.402,596.134 972.069,593.464 973.402,590.272 C974.735,587.079 976.574,584.67 978.917,583.045 C983.938,579.66 990.225,577.967 997.777,577.967"/>
<path class="Clef" d="M203.623,673.858 L203.623,671.717 C203.56,670.613 203.399,668.889 203.139,666.545 C199.889,667.066 196.993,667.326 194.451,667.326 C185.337,667.326 177.605,663.727 171.256,656.53 C164.907,649.332 161.732,640.754 161.732,630.795 C161.732,628.129 162.253,624.923 163.295,621.178 C164.337,617.433 165.297,614.925 166.178,613.655 C167.058,612.384 168.378,610.155 170.139,606.967 C170.659,605.988 172.352,603.837 175.217,600.514 C175.738,599.806 176.193,599.222 176.584,598.764 C176.975,598.306 177.607,597.49 178.482,596.319 C179.357,595.147 180.3,594.056 181.31,593.045 C182.321,592.035 183.217,591.058 183.998,590.115 C184.779,589.173 185.498,588.379 186.154,587.733 C183.81,579.983 182.378,574.024 181.857,569.858 C181.337,565.691 181.076,560.579 181.076,554.522 C181.076,548.464 182.378,542.962 184.982,538.014 C187.514,532.879 191.06,528.681 195.623,525.42 C195.883,525.222 196.225,525.123 196.646,525.123 C197.068,525.123 197.378,525.222 197.576,525.42 C201.087,529.649 204.128,535.149 206.701,541.92 C209.274,548.691 210.56,555.024 210.56,560.92 C210.56,566.816 209.066,572.498 206.076,577.967 C202.691,583.759 198.326,589.748 192.982,595.936 C194.347,600.227 196.17,606.962 198.451,616.139 L199.045,616.139 C199.305,616.076 199.529,616.045 199.717,616.045 C207.081,616.045 213.089,618.634 217.74,623.811 C222.391,628.988 224.717,634.962 224.717,641.733 C224.717,650.129 221.238,656.899 214.279,662.045 C212.258,663.545 209.878,664.717 207.139,665.561 C207.472,669.79 207.639,672.605 207.639,674.006 C207.639,675.407 207.571,677.899 207.435,681.483 C207.373,687.597 205.29,692.837 201.185,697.201 C197.081,701.566 192.394,703.748 187.123,703.748 C181.852,703.748 177.36,701.876 173.646,698.131 C169.933,694.386 168.076,689.847 168.076,684.514 C168.076,681.712 169.154,679.332 171.31,677.373 C173.519,675.425 176.006,674.451 178.771,674.451 C181.537,674.451 183.8,675.462 185.56,677.483 C187.383,679.368 188.295,681.644 188.295,684.311 C188.295,686.977 187.383,689.222 185.56,691.045 C183.738,692.868 181.555,693.78 179.014,693.78 C177.972,693.78 176.967,693.587 175.998,693.201 C178.863,697.431 182.54,699.545 187.029,699.545 C191.519,699.545 195.36,697.691 198.553,693.983 C201.745,690.274 203.342,685.91 203.342,680.889 L203.623,673.858 M206.748,661.561 C210.133,660.321 212.821,658.123 214.81,654.967 C216.8,651.811 217.795,648.67 217.795,645.545 C217.795,640.92 216.199,636.785 213.006,633.139 C209.813,629.493 205.774,627.441 200.889,626.983 C203.691,640.722 205.644,652.248 206.748,661.561 M168.967,638.998 C168.967,645.446 171.537,651.079 176.678,655.897 C181.818,660.714 187.842,663.123 194.748,663.123 C197.477,663.123 200.144,662.925 202.748,662.53 C201.706,652.634 199.654,640.785 196.592,626.983 C192.758,627.379 189.782,628.699 187.662,630.944 C185.542,633.188 184.482,635.743 184.482,638.608 C184.482,643.556 187.123,647.561 192.404,650.623 C192.852,650.884 193.076,651.324 193.076,651.944 C193.076,652.563 192.865,653.1 192.443,653.553 C192.021,654.006 191.649,654.233 191.326,654.233 C191.003,654.233 190.581,654.17 190.06,654.045 C182.435,649.879 178.623,643.592 178.623,635.186 C178.623,631.217 180.024,627.41 182.826,623.764 C185.753,620.118 189.56,617.774 194.248,616.733 C192.425,609.441 190.93,603.743 189.764,599.639 C180.847,609.67 175.31,617.092 173.154,621.905 C170.363,628.155 168.967,633.852 168.967,638.998 M201.576,539.686 C196.691,542.092 192.834,545.574 190.006,550.131 C187.178,554.688 185.764,559.472 185.764,564.483 C185.764,569.493 186.935,575.972 189.279,583.92 C193.967,578.254 197.514,572.946 199.92,567.998 C202.326,563.05 203.529,558.152 203.529,553.303 C203.529,548.454 202.878,543.915 201.576,539.686"/>
<path class="TimeSig" d="M273.021,567.912 C274.516,567.912 275.949,567.686 277.318,567.233 C278.688,566.78 279.665,566.553 280.248,566.553 C280.831,566.553 281.222,566.907 281.42,567.615 C281.42,567.688 281.352,567.886 281.217,568.209 L252.811,601.225 L269.498,601.225 L269.498,588.131 C269.498,586.506 270.446,585.334 272.342,584.615 C274.29,583.897 276.503,581.001 278.982,575.928 C279.17,575.532 279.462,575.334 279.857,575.334 C280.639,575.334 281.092,575.793 281.217,576.709 L281.217,601.225 L288.357,601.225 C289.264,601.225 289.751,601.712 289.818,602.686 C289.886,603.66 289.399,604.147 288.357,604.147 L281.217,604.147 L281.217,604.928 C281.217,607.532 281.868,609.746 283.17,611.569 C284.67,613.391 286.43,614.303 288.451,614.303 C289.232,614.303 289.623,614.694 289.623,615.475 C289.623,616.256 289.087,616.647 288.014,616.647 C286.941,616.647 284.938,616.436 282.006,616.014 C279.074,615.592 276.811,615.381 275.217,615.381 C273.623,615.381 271.41,615.592 268.576,616.014 C265.743,616.436 263.613,616.647 262.186,616.647 C261.404,616.647 261.014,616.256 261.014,615.475 C261.014,614.694 261.404,614.303 262.186,614.303 C264.196,614.303 265.951,613.391 267.451,611.569 C268.816,609.683 269.498,607.47 269.498,604.928 L269.498,604.147 L252.811,604.147 C251.956,604.147 251.219,603.92 250.6,603.467 C249.98,603.014 249.67,602.592 249.67,602.201 C249.67,601.811 250.485,600.639 252.115,598.686 C253.745,596.733 256.074,592.972 259.1,587.405 C262.126,581.837 263.639,575.438 263.639,568.209 C263.639,567.168 264.097,566.647 265.014,566.647 C265.212,566.647 265.521,566.712 265.943,566.842 C266.365,566.972 267.277,567.183 268.678,567.475 C270.079,567.766 271.527,567.912 273.021,567.912"/>
<path class="TimeSig" d="M273.021,618.084 C274.516,618.084 275.949,617.858 277.318,617.405 C278.688,616.951 279.665,616.725 280.248,616.725 C280.831,616.725 281.222,617.079 281.42,617.787 C281.42,617.86 281.352,618.058 281.217,618.381 L252.811,651.397 L269.498,651.397 L269.498,638.303 C269.498,636.678 270.446,635.506 272.342,634.787 C274.29,634.069 276.503,631.173 278.982,626.1 C279.17,625.704 279.462,625.506 279.857,625.506 C280.639,625.506 281.092,625.964 281.217,626.881 L281.217,651.397 L288.357,651.397 C289.264,651.397 289.751,651.884 289.818,652.858 C289.886,653.832 289.399,654.319 288.357,654.319 L281.217,654.319 L281.217,655.1 C281.217,657.704 281.868,659.918 283.17,661.74 C284.67,663.563 286.43,664.475 288.451,664.475 C289.232,664.475 289.623,664.865 289.623,665.647 C289.623,666.428 289.087,666.819 288.014,666.819 C286.941,666.819 284.938,666.608 282.006,666.186 C279.074,665.764 276.811,665.553 275.217,665.553 C273.623,665.553 271.41,665.764 268.576,666.186 C265.743,666.608 263.613,666.819 262.186,666.819 C261.404,666.819 261.014,666.428 261.014,665.647 C261.014,664.865 261.404,664.475 262.186,664.475 C264.196,664.475 265.951,663.563 267.451,661.74 C268.816,659.855 269.498,657.642 269.498,655.1 L269.498,654.319 L252.811,654.319 C251.956,654.319 251.219,654.092 250.6,653.639 C249.98,653.186 249.67,652.764 249.67,652.373 C249.67,651.983 250.485,650.811 252.115,648.858 C253.745,646.905 256.074,643.144 259.1,637.576 C262.126,632.009 263.639,625.61 263.639,618.381 C263.639,617.339 264.097,616.819 265.014,616.819 C265.212,616.819 265.521,616.884 265.943,617.014 C266.365,617.144 267.277,617.355 268.678,617.647 C270.079,617.938 271.527,618.084 273.021,618.084"/>
<path class="StaffText" d="M1630.89,741.53 L1643.19,741.53 L1643.19,744.53 L1630.89,744.53 L1630.89,741.53 M1658.49,754.936 C1655.11,754.936 1652.4,753.592 1650.35,750.905 C1648.31,748.217 1647.28,744.665 1647.28,740.248 C1647.28,738.884 1647.41,737.478 1647.68,736.03 C1647.95,734.582 1648.53,732.936 1649.43,731.092 C1650.33,729.248 1651.5,727.592 1652.93,726.123 C1654.36,724.655 1656.37,723.347 1658.95,722.201 C1661.54,721.056 1664.51,720.332 1667.88,720.03 L1667.99,720.826 C1664.05,721.462 1660.76,723.056 1658.13,725.608 C1655.49,728.16 1653.84,731.316 1653.17,735.076 C1654.75,734.191 1655.93,733.613 1656.73,733.342 C1657.52,733.071 1658.47,732.936 1659.58,732.936 C1662.44,732.936 1664.73,733.863 1666.43,735.717 C1668.13,737.571 1668.99,740.076 1668.99,743.233 C1668.99,746.681 1668.01,749.493 1666.06,751.67 C1664.1,753.847 1661.58,754.936 1658.49,754.936 M1657.67,735.139 C1655.41,735.139 1653.89,735.634 1653.1,736.623 C1652.32,737.613 1651.92,739.087 1651.92,741.045 C1651.92,744.889 1652.56,747.915 1653.83,750.123 C1655.1,752.332 1656.83,753.436 1659.03,753.436 C1660.79,753.436 1662.14,752.699 1663.08,751.225 C1664.02,749.751 1664.49,747.655 1664.49,744.936 C1664.49,741.811 1663.89,739.397 1662.7,737.694 C1661.52,735.991 1659.84,735.139 1657.67,735.139 M1681.27,739.092 C1681.27,738.759 1681.49,737.868 1681.94,736.42 C1682.39,734.972 1682.61,733.295 1682.61,731.389 C1681.31,732.191 1680.24,733.063 1679.41,734.006 C1678.57,734.949 1677.95,735.631 1677.53,736.053 C1677.12,736.475 1676.54,736.686 1675.81,736.686 C1674.62,736.686 1674.02,736.092 1674.02,734.905 C1674.02,734.332 1674.23,733.902 1674.66,733.616 C1675.1,733.329 1675.63,733.126 1676.27,733.006 C1676.9,732.886 1677.79,732.621 1678.94,732.209 C1680.08,731.798 1681.19,731.274 1682.27,730.639 C1680.96,729.983 1679.56,729.472 1678.04,729.108 C1676.52,728.743 1675.47,728.412 1674.89,728.116 C1674.31,727.819 1674.02,727.269 1674.02,726.467 C1674.02,725.967 1674.18,725.545 1674.52,725.201 C1674.85,724.858 1675.25,724.686 1675.72,724.686 C1676.25,724.686 1676.72,724.834 1677.14,725.131 C1677.56,725.428 1677.91,725.793 1678.21,726.225 C1678.51,726.657 1679.05,727.22 1679.84,727.912 C1680.62,728.605 1681.55,729.269 1682.61,729.905 C1682.61,727.998 1682.4,726.313 1681.99,724.85 C1681.57,723.386 1681.36,722.488 1681.36,722.155 C1681.36,721.655 1681.53,721.238 1681.86,720.905 C1682.19,720.571 1682.61,720.405 1683.11,720.405 C1683.61,720.405 1684.03,720.579 1684.38,720.928 C1684.73,721.277 1684.91,721.717 1684.91,722.248 C1684.91,722.686 1684.68,723.595 1684.24,724.975 C1683.79,726.355 1683.56,728.03 1683.56,729.998 C1684.73,729.269 1685.76,728.433 1686.64,727.491 C1687.53,726.548 1688.21,725.826 1688.69,725.326 C1689.17,724.826 1689.71,724.576 1690.31,724.576 C1690.84,724.576 1691.28,724.759 1691.61,725.123 C1691.94,725.488 1692.11,725.951 1692.11,726.514 C1692.11,727.212 1691.78,727.709 1691.11,728.006 C1690.44,728.303 1689.38,728.66 1687.91,729.076 C1686.45,729.493 1685.14,730.035 1683.97,730.701 C1684.97,731.326 1686.03,731.829 1687.16,732.209 C1688.3,732.59 1689.19,732.829 1689.84,732.928 C1690.49,733.027 1691.04,733.23 1691.49,733.537 C1691.93,733.845 1692.16,734.285 1692.16,734.858 C1692.16,735.431 1692,735.886 1691.69,736.225 C1691.38,736.563 1690.95,736.733 1690.41,736.733 C1689.71,736.733 1689.13,736.522 1688.66,736.1 C1688.2,735.678 1687.53,734.988 1686.64,734.03 C1685.76,733.071 1684.73,732.191 1683.56,731.389 C1683.56,733.295 1683.8,734.988 1684.27,736.467 C1684.74,737.946 1684.97,738.769 1684.97,738.936 C1684.97,739.478 1684.78,739.946 1684.39,740.342 C1684.01,740.738 1683.55,740.936 1683.02,740.936 C1682.55,740.936 1682.14,740.754 1681.79,740.389 C1681.44,740.024 1681.27,739.592 1681.27,739.092"/>
<path class="StaffText" d="M2588.03,750.326 C2588.8,750.326 2589.94,750.777 2591.46,751.678 C2592.98,752.579 2594.3,753.03 2595.44,753.03 C2597.27,753.03 2598.82,752.319 2600.09,750.897 C2601.35,749.475 2601.98,747.717 2601.98,745.623 C2601.98,744.332 2601.76,743.191 2601.31,742.201 C2600.86,741.212 2600.29,740.444 2599.59,739.897 C2598.88,739.35 2598.05,738.902 2597.09,738.553 C2596.12,738.204 2595.21,737.98 2594.36,737.881 C2593.5,737.782 2592.6,737.733 2591.64,737.733 L2591.64,737.076 C2592.76,736.681 2593.74,736.29 2594.55,735.905 C2595.37,735.519 2596.23,735.004 2597.13,734.358 C2598.03,733.712 2598.73,732.92 2599.21,731.983 C2599.69,731.045 2599.94,729.978 2599.94,728.78 C2599.94,727.217 2599.43,725.936 2598.41,724.936 C2597.4,723.936 2596.07,723.436 2594.44,723.436 C2592.86,723.436 2591.49,723.86 2590.3,724.709 C2589.12,725.558 2588.01,726.899 2586.98,728.733 L2586.23,728.53 C2587.1,726.165 2588.27,724.225 2589.76,722.709 C2591.24,721.194 2593.35,720.436 2596.08,720.436 C2598.38,720.436 2600.26,721.069 2601.71,722.334 C2603.16,723.6 2603.89,725.248 2603.89,727.28 C2603.89,728.644 2603.54,729.845 2602.84,730.881 C2602.13,731.918 2600.92,733.019 2599.19,734.186 C2601.19,735.05 2602.75,736.155 2603.88,737.498 C2605.01,738.842 2605.58,740.759 2605.58,743.248 C2605.58,746.79 2604.27,749.623 2601.66,751.748 C2599.04,753.873 2595.75,754.936 2591.78,754.936 C2590.05,754.936 2588.68,754.678 2587.66,754.162 C2586.65,753.647 2586.14,752.951 2586.14,752.076 C2586.14,751.545 2586.31,751.121 2586.66,750.803 C2587.01,750.485 2587.47,750.326 2588.03,750.326"/>
<path class="StaffText" d="M1127.37,754.936 C1123.99,754.936 1121.28,753.592 1119.23,750.905 C1117.19,748.217 1116.16,744.665 1116.16,740.248 C1116.16,738.884 1116.3,737.478 1116.56,736.03 C1116.83,734.582 1117.41,732.936 1118.31,731.092 C1119.21,729.248 1120.38,727.592 1121.81,726.123 C1123.24,724.655 1125.25,723.347 1127.84,722.201 C1130.42,721.056 1133.39,720.332 1136.76,720.03 L1136.87,720.826 C1132.93,721.462 1129.64,723.056 1127.01,725.608 C1124.37,728.16 1122.72,731.316 1122.05,735.076 C1123.63,734.191 1124.81,733.613 1125.61,733.342 C1126.41,733.071 1127.36,732.936 1128.46,732.936 C1131.33,732.936 1133.61,733.863 1135.31,735.717 C1137.02,737.571 1137.87,740.076 1137.87,743.233 C1137.87,746.681 1136.89,749.493 1134.94,751.67 C1132.98,753.847 1130.46,754.936 1127.37,754.936 M1126.55,735.139 C1124.29,735.139 1122.77,735.634 1121.98,736.623 C1121.2,737.613 1120.8,739.087 1120.8,741.045 C1120.8,744.889 1121.44,747.915 1122.71,750.123 C1123.98,752.332 1125.72,753.436 1127.91,753.436 C1129.67,753.436 1131.02,752.699 1131.96,751.225 C1132.9,749.751 1133.37,747.655 1133.37,744.936 C1133.37,741.811 1132.77,739.397 1131.59,737.694 C1130.4,735.991 1128.72,735.139 1126.55,735.139"/>
<path class="StaffText" d="M2406.48,741.53 L2418.78,741.53 L2418.78,744.53 L2406.48,744.53 L2406.48,741.53 M2425.21,750.326 C2425.98,750.326 2427.13,750.777 2428.64,751.678 C2430.16,752.579 2431.48,753.03 2432.62,753.03 C2434.45,753.03 2436,752.319 2437.27,750.897 C2438.53,749.475 2439.17,747.717 2439.17,745.623 C2439.17,744.332 2438.94,743.191 2438.49,742.201 C2438.05,741.212 2437.47,740.444 2436.77,739.897 C2436.07,739.35 2435.23,738.902 2434.27,738.553 C2433.3,738.204 2432.4,737.98 2431.54,737.881 C2430.69,737.782 2429.78,737.733 2428.82,737.733 L2428.82,737.076 C2429.95,736.681 2430.92,736.29 2431.74,735.905 C2432.55,735.519 2433.41,735.004 2434.32,734.358 C2435.22,733.712 2435.91,732.92 2436.39,731.983 C2436.88,731.045 2437.12,729.978 2437.12,728.78 C2437.12,727.217 2436.61,725.936 2435.6,724.936 C2434.58,723.936 2433.26,723.436 2431.62,723.436 C2430.05,723.436 2428.67,723.86 2427.49,724.709 C2426.3,725.558 2425.2,726.899 2424.17,728.733 L2423.42,728.53 C2424.28,726.165 2425.46,724.225 2426.94,722.709 C2428.42,721.194 2430.53,720.436 2433.26,720.436 C2435.56,720.436 2437.44,721.069 2438.89,722.334 C2440.35,723.6 2441.07,725.248 2441.07,727.28 C2441.07,728.644 2440.72,729.845 2440.02,730.881 C2439.32,731.918 2438.1,733.019 2436.37,734.186 C2438.37,735.05 2439.93,736.155 2441.07,737.498 C2442.2,738.842 2442.76,740.759 2442.76,743.248 C2442.76,746.79 2441.45,749.623 2438.84,751.748 C2436.22,753.873 2432.93,754.936 2428.96,754.936 C2427.23,754.936 2425.86,754.678 2424.85,754.162 C2423.83,753.647 2423.32,752.951 2423.32,752.076 C2423.32,751.545 2423.5,751.121 2423.85,750.803 C2424.2,750.485 2424.65,750.326 2425.21,750.326"/>
<path class="StaffText" d="M973.257,741.53 L985.554,741.53 L985.554,744.53 L973.257,744.53 L973.257,741.53 M1005.79,744.405 C1005.79,742.623 1005.4,741.043 1004.62,739.662 C1003.84,738.282 1002.89,737.215 1001.77,736.459 C1000.66,735.704 999.408,735.082 998.023,734.592 C996.638,734.103 995.437,733.782 994.421,733.631 C993.406,733.48 992.513,733.405 991.742,733.405 C991.346,733.405 991.148,733.269 991.148,732.998 C991.148,732.905 991.164,732.826 991.195,732.764 L996.648,721.123 L1007.1,721.123 C1007.63,721.123 1008.06,721.04 1008.37,720.873 C1008.69,720.707 1009.03,720.358 1009.4,719.826 L1009.85,720.186 L1007.94,724.358 C1007.81,724.639 1007.42,724.78 1006.79,724.78 L996.992,724.78 L994.898,729.076 C999.763,729.941 1003.38,731.358 1005.74,733.326 C1008.11,735.295 1009.29,738.181 1009.29,741.983 C1009.29,743.972 1008.98,745.743 1008.37,747.295 C1007.75,748.847 1006.97,750.095 1006.02,751.037 C1005.08,751.98 1003.98,752.756 1002.73,753.366 C1001.48,753.975 1000.28,754.389 999.124,754.608 C997.973,754.826 996.815,754.936 995.648,754.936 C993.783,754.936 992.299,754.66 991.195,754.108 C990.091,753.556 989.539,752.795 989.539,751.826 C989.539,750.597 990.257,749.983 991.695,749.983 C992.632,749.983 993.841,750.491 995.32,751.506 C996.799,752.522 997.976,753.03 998.851,753.03 C1000.81,753.03 1002.46,752.199 1003.79,750.537 C1005.12,748.876 1005.79,746.832 1005.79,744.405"/>
<path class="StaffText" d="M2263.32,741.53 L2275.62,741.53 L2275.62,744.53 L2263.32,744.53 L2263.32,741.53 M2301.6,742.889 L2301.6,745.889 L2296.51,745.889 L2296.51,754.233 L2292.67,754.233 L2292.67,745.889 L2278.6,745.889 L2278.6,742.889 L2294.31,720.436 L2296.51,720.436 L2296.51,742.889 L2301.6,742.889 M2292.6,742.889 L2292.6,725.733 L2280.6,742.889 L2292.6,742.889 "/>
<path class="StaffText" d="M1302.07,741.53 L1314.37,741.53 L1314.37,744.53 L1302.07,744.53 L1302.07,741.53 M1329.67,754.936 C1326.29,754.936 1323.58,753.592 1321.54,750.905 C1319.49,748.217 1318.47,744.665 1318.47,740.248 C1318.47,738.884 1318.6,737.478 1318.86,736.03 C1319.13,734.582 1319.71,732.936 1320.61,731.092 C1321.51,729.248 1322.68,727.592 1324.11,726.123 C1325.55,724.655 1327.55,723.347 1330.14,722.201 C1332.72,721.056 1335.69,720.332 1339.06,720.03 L1339.17,720.826 C1335.23,721.462 1331.94,723.056 1329.31,725.608 C1326.67,728.16 1325.02,731.316 1324.36,735.076 C1325.93,734.191 1327.11,733.613 1327.91,733.342 C1328.71,733.071 1329.66,732.936 1330.76,732.936 C1333.63,732.936 1335.91,733.863 1337.61,735.717 C1339.32,737.571 1340.17,740.076 1340.17,743.233 C1340.17,746.681 1339.19,749.493 1337.24,751.67 C1335.29,753.847 1332.76,754.936 1329.67,754.936 M1328.86,735.139 C1326.6,735.139 1325.07,735.634 1324.29,736.623 C1323.5,737.613 1323.11,739.087 1323.11,741.045 C1323.11,744.889 1323.74,747.915 1325.01,750.123 C1326.28,752.332 1328.02,753.436 1330.22,753.436 C1331.98,753.436 1333.32,752.699 1334.26,751.225 C1335.2,749.751 1335.67,747.655 1335.67,744.936 C1335.67,741.811 1335.07,739.397 1333.89,737.694 C1332.7,735.991 1331.02,735.139 1328.86,735.139 M1352.45,739.092 C1352.45,738.759 1352.67,737.868 1353.12,736.42 C1353.57,734.972 1353.79,733.295 1353.79,731.389 C1352.49,732.191 1351.42,733.063 1350.59,734.006 C1349.76,734.949 1349.13,735.631 1348.72,736.053 C1348.3,736.475 1347.73,736.686 1347,736.686 C1345.8,736.686 1345.2,736.092 1345.2,734.905 C1345.2,734.332 1345.42,733.902 1345.85,733.616 C1346.28,733.329 1346.81,733.126 1347.45,733.006 C1348.08,732.886 1348.98,732.621 1350.12,732.209 C1351.27,731.798 1352.38,731.274 1353.45,730.639 C1352.15,729.983 1350.74,729.472 1349.22,729.108 C1347.71,728.743 1346.66,728.412 1346.07,728.116 C1345.49,727.819 1345.2,727.269 1345.2,726.467 C1345.2,725.967 1345.37,725.545 1345.7,725.201 C1346.03,724.858 1346.43,724.686 1346.9,724.686 C1347.43,724.686 1347.91,724.834 1348.32,725.131 C1348.74,725.428 1349.1,725.793 1349.39,726.225 C1349.69,726.657 1350.23,727.22 1351.02,727.912 C1351.81,728.605 1352.73,729.269 1353.79,729.905 C1353.79,727.998 1353.58,726.313 1353.17,724.85 C1352.75,723.386 1352.54,722.488 1352.54,722.155 C1352.54,721.655 1352.71,721.238 1353.04,720.905 C1353.38,720.571 1353.79,720.405 1354.29,720.405 C1354.79,720.405 1355.22,720.579 1355.57,720.928 C1355.92,721.277 1356.09,721.717 1356.09,722.248 C1356.09,722.686 1355.87,723.595 1355.42,724.975 C1354.97,726.355 1354.75,728.03 1354.75,729.998 C1355.91,729.269 1356.94,728.433 1357.82,727.491 C1358.71,726.548 1359.39,725.826 1359.87,725.326 C1360.35,724.826 1360.89,724.576 1361.5,724.576 C1362.03,724.576 1362.46,724.759 1362.79,725.123 C1363.13,725.488 1363.29,725.951 1363.29,726.514 C1363.29,727.212 1362.96,727.709 1362.29,728.006 C1361.63,728.303 1360.56,728.66 1359.1,729.076 C1357.63,729.493 1356.32,730.035 1355.15,730.701 C1356.15,731.326 1357.22,731.829 1358.35,732.209 C1359.48,732.59 1360.37,732.829 1361.02,732.928 C1361.67,733.027 1362.22,733.23 1362.67,733.537 C1363.12,733.845 1363.34,734.285 1363.34,734.858 C1363.34,735.431 1363.18,735.886 1362.87,736.225 C1362.56,736.563 1362.13,736.733 1361.59,736.733 C1360.89,736.733 1360.31,736.522 1359.85,736.1 C1359.38,735.678 1358.71,734.988 1357.82,734.03 C1356.94,733.071 1355.91,732.191 1354.75,731.389 C1354.75,733.295 1354.98,734.988 1355.45,736.467 C1355.92,737.946 1356.15,738.769 1356.15,738.936 C1356.15,739.478 1355.96,739.946 1355.57,740.342 C1355.19,740.738 1354.73,740.936 1354.2,740.936 C1353.73,740.936 1353.32,740.754 1352.97,740.389 C1352.62,740.024 1352.45,739.592 1352.45,739.092"/>
<path class="StaffText" d="M341.92,750.326 C342.691,750.326 343.834,750.777 345.35,751.678 C346.865,752.579 348.191,753.03 349.326,753.03 C351.16,753.03 352.709,752.319 353.975,750.897 C355.24,749.475 355.873,747.717 355.873,745.623 C355.873,744.332 355.649,743.191 355.201,742.201 C354.753,741.212 354.178,740.444 353.475,739.897 C352.772,739.35 351.938,738.902 350.975,738.553 C350.011,738.204 349.102,737.98 348.248,737.881 C347.394,737.782 346.488,737.733 345.529,737.733 L345.529,737.076 C346.654,736.681 347.626,736.29 348.443,735.905 C349.261,735.519 350.121,735.004 351.022,734.358 C351.923,733.712 352.615,732.92 353.1,731.983 C353.584,731.045 353.826,729.978 353.826,728.78 C353.826,727.217 353.318,725.936 352.303,724.936 C351.287,723.936 349.962,723.436 348.326,723.436 C346.753,723.436 345.376,723.86 344.193,724.709 C343.011,725.558 341.904,726.899 340.873,728.733 L340.123,728.53 C340.988,726.165 342.162,724.225 343.647,722.709 C345.131,721.194 347.238,720.436 349.967,720.436 C352.269,720.436 354.147,721.069 355.6,722.334 C357.053,723.6 357.779,725.248 357.779,727.28 C357.779,728.644 357.428,729.845 356.725,730.881 C356.022,731.918 354.805,733.019 353.076,734.186 C355.076,735.05 356.641,736.155 357.772,737.498 C358.902,738.842 359.467,740.759 359.467,743.248 C359.467,746.79 358.16,749.623 355.545,751.748 C352.93,753.873 349.639,754.936 345.67,754.936 C343.941,754.936 342.568,754.678 341.553,754.162 C340.537,753.647 340.029,752.951 340.029,752.076 C340.029,751.545 340.204,751.121 340.553,750.803 C340.902,750.485 341.357,750.326 341.92,750.326"/>
<path class="StaffText" d="M2106.15,744.405 C2106.15,742.623 2105.76,741.043 2104.98,739.662 C2104.2,738.282 2103.25,737.215 2102.14,736.459 C2101.02,735.704 2099.77,735.082 2098.39,734.592 C2097,734.103 2095.8,733.782 2094.79,733.631 C2093.77,733.48 2092.88,733.405 2092.11,733.405 C2091.71,733.405 2091.51,733.269 2091.51,732.998 C2091.51,732.905 2091.53,732.826 2091.56,732.764 L2097.01,721.123 L2107.47,721.123 C2108,721.123 2108.42,721.04 2108.74,720.873 C2109.06,720.707 2109.4,720.358 2109.76,719.826 L2110.22,720.186 L2108.31,724.358 C2108.18,724.639 2107.79,724.78 2107.15,724.78 L2097.36,724.78 L2095.26,729.076 C2100.13,729.941 2103.74,731.358 2106.11,733.326 C2108.47,735.295 2109.65,738.181 2109.65,741.983 C2109.65,743.972 2109.35,745.743 2108.73,747.295 C2108.12,748.847 2107.34,750.095 2106.39,751.037 C2105.44,751.98 2104.34,752.756 2103.09,753.366 C2101.84,753.975 2100.64,754.389 2099.49,754.608 C2098.34,754.826 2097.18,754.936 2096.01,754.936 C2094.15,754.936 2092.66,754.66 2091.56,754.108 C2090.46,753.556 2089.9,752.795 2089.9,751.826 C2089.9,750.597 2090.62,749.983 2092.06,749.983 C2093,749.983 2094.21,750.491 2095.69,751.506 C2097.16,752.522 2098.34,753.03 2099.22,753.03 C2101.18,753.03 2102.82,752.199 2104.15,750.537 C2105.49,748.876 2106.15,746.832 2106.15,744.405"/>
<path class="StaffText" d="M1465.73,721.123 L1465.73,721.92 L1455.12,754.639 L1451.87,754.639 L1461.78,724.78 L1450.93,724.78 C1449.56,724.78 1448.51,725.03 1447.8,725.53 C1447.09,726.03 1446.19,727.134 1445.12,728.842 L1444.28,728.436 L1447.23,721.123 L1465.73,721.123 "/>
<path class="StaffText" d="M1947.11,741.53 L1959.4,741.53 L1959.4,744.53 L1947.11,744.53 L1947.11,741.53 M1979.64,744.405 C1979.64,742.623 1979.25,741.043 1978.47,739.662 C1977.69,738.282 1976.74,737.215 1975.62,736.459 C1974.51,735.704 1973.26,735.082 1971.87,734.592 C1970.49,734.103 1969.29,733.782 1968.27,733.631 C1967.26,733.48 1966.36,733.405 1965.59,733.405 C1965.2,733.405 1965,733.269 1965,732.998 C1965,732.905 1965.01,732.826 1965.04,732.764 L1970.5,721.123 L1980.95,721.123 C1981.48,721.123 1981.91,721.04 1982.22,720.873 C1982.54,720.707 1982.88,720.358 1983.25,719.826 L1983.7,720.186 L1981.79,724.358 C1981.66,724.639 1981.27,724.78 1980.64,724.78 L1970.84,724.78 L1968.75,729.076 C1973.61,729.941 1977.23,731.358 1979.59,733.326 C1981.96,735.295 1983.14,738.181 1983.14,741.983 C1983.14,743.972 1982.83,745.743 1982.22,747.295 C1981.6,748.847 1980.82,750.095 1979.87,751.037 C1978.92,751.98 1977.83,752.756 1976.58,753.366 C1975.33,753.975 1974.13,754.389 1972.97,754.608 C1971.82,754.826 1970.66,754.936 1969.5,754.936 C1967.63,754.936 1966.15,754.66 1965.04,754.108 C1963.94,753.556 1963.39,752.795 1963.39,751.826 C1963.39,750.597 1964.11,749.983 1965.54,749.983 C1966.48,749.983 1967.69,750.491 1969.17,751.506 C1970.65,752.522 1971.83,753.03 1972.7,753.03 C1974.66,753.03 1976.3,752.199 1977.64,750.537 C1978.97,748.876 1979.64,746.832 1979.64,744.405"/>
<path class="StaffText" d="M816.089,744.405 C816.089,742.623 815.698,741.043 814.917,739.662 C814.136,738.282 813.188,737.215 812.073,736.459 C810.959,735.704 809.709,735.082 808.323,734.592 C806.938,734.103 805.737,733.782 804.722,733.631 C803.706,733.48 802.813,733.405 802.042,733.405 C801.646,733.405 801.448,733.269 801.448,732.998 C801.448,732.905 801.464,732.826 801.495,732.764 L806.948,721.123 L817.401,721.123 C817.933,721.123 818.357,721.04 818.675,720.873 C818.993,720.707 819.334,720.358 819.698,719.826 L820.151,720.186 L818.245,724.358 C818.11,724.639 817.724,724.78 817.089,724.78 L807.292,724.78 L805.198,729.076 C810.063,729.941 813.678,731.358 816.042,733.326 C818.407,735.295 819.589,738.181 819.589,741.983 C819.589,743.972 819.282,745.743 818.667,747.295 C818.053,748.847 817.271,750.095 816.323,751.037 C815.375,751.98 814.276,752.756 813.026,753.366 C811.776,753.975 810.576,754.389 809.425,754.608 C808.274,754.826 807.115,754.936 805.948,754.936 C804.084,754.936 802.599,754.66 801.495,754.108 C800.391,753.556 799.839,752.795 799.839,751.826 C799.839,750.597 800.558,749.983 801.995,749.983 C802.933,749.983 804.141,750.491 805.62,751.506 C807.099,752.522 808.276,753.03 809.151,753.03 C811.11,753.03 812.756,752.199 814.089,750.537 C815.422,748.876 816.089,746.832 816.089,744.405"/>
<path class="StaffText" d="M483.983,741.53 L496.28,741.53 L496.28,744.53 L483.983,744.53 L483.983,741.53 M502.717,750.326 C503.488,750.326 504.631,750.777 506.147,751.678 C507.663,752.579 508.988,753.03 510.123,753.03 C511.957,753.03 513.506,752.319 514.772,750.897 C516.038,749.475 516.67,747.717 516.67,745.623 C516.67,744.332 516.446,743.191 515.998,742.201 C515.551,741.212 514.975,740.444 514.272,739.897 C513.569,739.35 512.735,738.902 511.772,738.553 C510.808,738.204 509.899,737.98 509.045,737.881 C508.191,737.782 507.285,737.733 506.327,737.733 L506.327,737.076 C507.452,736.681 508.423,736.29 509.241,735.905 C510.058,735.519 510.918,735.004 511.819,734.358 C512.72,733.712 513.413,732.92 513.897,731.983 C514.381,731.045 514.623,729.978 514.623,728.78 C514.623,727.217 514.116,725.936 513.1,724.936 C512.084,723.936 510.759,723.436 509.123,723.436 C507.551,723.436 506.173,723.86 504.991,724.709 C503.808,725.558 502.702,726.899 501.67,728.733 L500.92,728.53 C501.785,726.165 502.959,724.225 504.444,722.709 C505.928,721.194 508.035,720.436 510.764,720.436 C513.066,720.436 514.944,721.069 516.397,722.334 C517.85,723.6 518.577,725.248 518.577,727.28 C518.577,728.644 518.225,729.845 517.522,730.881 C516.819,731.918 515.603,733.019 513.873,734.186 C515.873,735.05 517.439,736.155 518.569,737.498 C519.699,738.842 520.264,740.759 520.264,743.248 C520.264,746.79 518.957,749.623 516.342,751.748 C513.728,753.873 510.436,754.936 506.467,754.936 C504.738,754.936 503.366,754.678 502.35,754.162 C501.334,753.647 500.827,752.951 500.827,752.076 C500.827,751.545 501.001,751.121 501.35,750.803 C501.699,750.485 502.155,750.326 502.717,750.326"/>
<path class="StaffText" d="M1785,754.936 C1781.63,754.936 1778.92,753.592 1776.87,750.905 C1774.82,748.217 1773.8,744.665 1773.8,740.248 C1773.8,738.884 1773.93,737.478 1774.2,736.03 C1774.46,734.582 1775.05,732.936 1775.95,731.092 C1776.85,729.248 1778.01,727.592 1779.45,726.123 C1780.88,724.655 1782.89,723.347 1785.47,722.201 C1788.05,721.056 1791.03,720.332 1794.39,720.03 L1794.5,720.826 C1790.56,721.462 1787.28,723.056 1784.64,725.608 C1782.01,728.16 1780.36,731.316 1779.69,735.076 C1781.26,734.191 1782.45,733.613 1783.24,733.342 C1784.04,733.071 1784.99,732.936 1786.09,732.936 C1788.96,732.936 1791.24,733.863 1792.95,735.717 C1794.65,737.571 1795.5,740.076 1795.5,743.233 C1795.5,746.681 1794.52,749.493 1792.57,751.67 C1790.62,753.847 1788.09,754.936 1785,754.936 M1784.19,735.139 C1781.93,735.139 1780.4,735.634 1779.62,736.623 C1778.83,737.613 1778.44,739.087 1778.44,741.045 C1778.44,744.889 1779.07,747.915 1780.34,750.123 C1781.62,752.332 1783.35,753.436 1785.55,753.436 C1787.31,753.436 1788.66,752.699 1789.59,751.225 C1790.53,749.751 1791,747.655 1791,744.936 C1791,741.811 1790.41,739.397 1789.22,737.694 C1788.03,735.991 1786.36,735.139 1784.19,735.139"/>
<path class="StaffText" d="M657.042,741.53 L669.339,741.53 L669.339,744.53 L657.042,744.53 L657.042,741.53 M695.323,742.889 L695.323,745.889 L690.229,745.889 L690.229,754.233 L686.386,754.233 L686.386,745.889 L672.323,745.889 L672.323,742.889 L688.026,720.436 L690.229,720.436 L690.229,742.889 L695.323,742.889 M686.323,742.889 L686.323,725.733 L674.323,742.889 L686.323,742.889 "/>
</svg>
