<?xml version="1.0" encoding="UTF-8" standalone="no"?>
<svg width="2977.2px" height="4208.4px" viewBox="0 0 2977.2 4208.4"
 xmlns="http://www.w3.org/2000/svg" xmlns:xlink="http://www.w3.org/1999/xlink" version="1.2" baseProfile="tiny">
<title>D_Harmonic_Minor.mscx</title>
<desc>Generated by MuseScore Studio 4.3.1</desc>
<path class="" fill="#ffffff" fill-rule="evenodd" d="M0,0 L2977.2,0 L2977.2,4208.4 L0,4208.4 L0,0 "/>
<polyline class="StaffLines" fill="none" stroke="#000000" stroke-width="2.00" stroke-linejoin="bevel" points="141.732,316.732 2835.47,316.732"/>
<polyline class="StaffLines" fill="none" stroke="#000000" stroke-width="2.00" stroke-linejoin="bevel" points="141.732,341.732 2835.47,341.732"/>
<polyline class="StaffLines" fill="none" stroke="#000000" stroke-width="2.00" stroke-linejoin="bevel" points="141.732,366.733 2835.47,366.733"/>
<polyline class="StaffLines" fill="none" stroke="#000000" stroke-width="2.00" stroke-linejoin="bevel" points="141.732,391.733 2835.47,391.733"/>
<polyline class="StaffLines" fill="none" stroke="#000000" stroke-width="2.00" stroke-linejoin="bevel" points="141.732,416.733 2835.47,416.733"/>
<polyline class="BarLine" fill="none" stroke="#000000" stroke-width="4.00" stroke-linejoin="bevel" points="1947.7,315.732 1947.7,417.733"/>
<polyline class="BarLine" fill="none" stroke="#000000" stroke-width="4.00" stroke-linejoin="bevel" points="1156.48,315.732 1156.48,417.733"/>
<polyline class="BarLine" fill="none" stroke="#000000" stroke-width="4.00" stroke-linejoin="bevel" points="1448.49,315.732 1448.49,417.733"/>
<polyline class="BarLine" fill="none" stroke="#000000" stroke-width="4.00" stroke-linejoin="bevel" points="1666.19,315.732 1666.19,417.733"/>
<polyline class="BarLine" fill="none" stroke="#000000" stroke-width="4.00" stroke-linejoin="bevel" points="874.975,315.732 874.975,417.733"/>
<polyline class="BarLine" fill="none" stroke="#000000" stroke-width="4.00" stroke-linejoin="bevel" points="593.473,315.732 593.473,417.733"/>
<polyline class="BarLine" fill="none" stroke="#000000" stroke-width="4.00" stroke-linejoin="bevel" points="2239.71,315.732 2239.71,417.733"/>
<polyline class="BarLine" fill="none" stroke="#000000" stroke-width="4.00" stroke-linejoin="bevel" points="2521.22,315.732 2521.22,417.733"/>
<polyline class="BarLine" fill="none" stroke="#000000" stroke-width="4.00" stroke-linejoin="bevel" points="2802.72,315.732 2802.72,417.733"/>
<polyline class="BarLine" fill="none" stroke="#000000" stroke-width="12.50" stroke-linejoin="bevel" points="2829.22,315.732 2829.22,417.733"/>
<path class="Accidental" d="M1958.59,384.311 L1957.32,322.201 C1957.32,321.222 1958.09,320.733 1959.62,320.733 C1961.15,320.733 1961.92,321.222 1961.92,322.201 L1961.13,356.092 C1962.89,354.331 1964.41,353.11 1965.67,352.428 C1966.94,351.746 1968.66,351.404 1970.84,351.404 C1973.03,351.404 1975.05,352.412 1976.9,354.428 C1978.75,356.443 1979.68,358.951 1979.68,361.951 C1979.68,366.441 1974.96,372.66 1965.52,380.608 C1962.01,383.795 1960.19,385.389 1960.06,385.389 L1959.48,385.389 C1958.88,385.389 1958.59,385.029 1958.59,384.311 M1961.04,359.217 L1960.74,381.389 C1962.76,379.493 1964.82,376.347 1966.9,371.951 C1968.98,367.555 1970.02,363.795 1970.02,360.67 C1970.02,359.108 1969.76,357.675 1969.24,356.373 C1968.72,355.071 1967.91,354.42 1966.8,354.42 C1965.69,354.42 1964.69,354.811 1963.81,355.592 C1962.93,356.373 1962.01,357.581 1961.04,359.217"/>
<path class="Accidental" d="M1299.56,362.045 C1298.38,362.368 1297.79,361.915 1297.79,360.686 L1297.79,305.982 C1297.79,304.618 1298.31,303.936 1299.35,303.936 C1300.4,303.936 1300.92,304.618 1300.92,305.982 L1300.92,325.811 L1312.45,321.42 C1313.62,321.097 1314.2,321.55 1314.2,322.779 L1314.2,377.482 C1314.2,378.847 1313.68,379.529 1312.64,379.529 C1311.59,379.529 1311.07,378.847 1311.07,377.482 L1311.07,357.654 L1299.56,362.045 M1300.92,350.811 L1311.07,346.904 L1311.07,332.654 L1300.92,336.561 L1300.92,350.811 "/>
<path class="Accidental" d="M1792.37,359.311 L1791.1,297.201 C1791.1,296.222 1791.87,295.732 1793.4,295.732 C1794.93,295.732 1795.7,296.222 1795.7,297.201 L1794.92,331.092 C1796.68,329.331 1798.19,328.11 1799.46,327.428 C1800.72,326.746 1802.44,326.404 1804.63,326.404 C1806.81,326.404 1808.83,327.412 1810.68,329.428 C1812.54,331.443 1813.46,333.951 1813.46,336.951 C1813.46,341.441 1808.74,347.66 1799.31,355.607 C1795.8,358.795 1793.97,360.389 1793.84,360.389 L1793.26,360.389 C1792.67,360.389 1792.37,360.029 1792.37,359.311 M1794.82,334.217 L1794.53,356.389 C1796.55,354.493 1798.6,351.347 1800.68,346.951 C1802.77,342.555 1803.81,338.795 1803.81,335.67 C1803.81,334.107 1803.55,332.675 1803.03,331.373 C1802.5,330.071 1801.69,329.42 1800.58,329.42 C1799.47,329.42 1798.48,329.811 1797.6,330.592 C1796.72,331.373 1795.79,332.581 1794.82,334.217"/>
<path class="Accidental" d="M1167.37,359.311 L1166.1,297.201 C1166.1,296.222 1166.87,295.732 1168.4,295.732 C1169.93,295.732 1170.7,296.222 1170.7,297.201 L1169.91,331.092 C1171.67,329.331 1173.19,328.11 1174.45,327.428 C1175.72,326.746 1177.44,326.404 1179.63,326.404 C1181.81,326.404 1183.83,327.412 1185.68,329.428 C1187.53,331.443 1188.46,333.951 1188.46,336.951 C1188.46,341.441 1183.74,347.66 1174.31,355.607 C1170.79,358.795 1168.97,360.389 1168.84,360.389 L1168.26,360.389 C1167.66,360.389 1167.37,360.029 1167.37,359.311 M1169.82,334.217 L1169.52,356.389 C1171.54,354.493 1173.6,351.347 1175.68,346.951 C1177.76,342.555 1178.81,338.795 1178.81,335.67 C1178.81,334.107 1178.54,332.675 1178.02,331.373 C1177.5,330.071 1176.69,329.42 1175.58,329.42 C1174.47,329.42 1173.47,329.811 1172.59,330.592 C1171.71,331.373 1170.79,332.581 1169.82,334.217"/>
<path class="Accidental" d="M1001.15,384.311 L999.884,322.201 C999.884,321.222 1000.65,320.733 1002.18,320.733 C1003.71,320.733 1004.48,321.222 1004.48,322.201 L1003.7,356.092 C1005.46,354.331 1006.97,353.11 1008.24,352.428 C1009.5,351.746 1011.23,351.404 1013.41,351.404 C1015.59,351.404 1017.61,352.412 1019.46,354.428 C1021.32,356.443 1022.24,358.951 1022.24,361.951 C1022.24,366.441 1017.52,372.66 1008.09,380.608 C1004.58,383.795 1002.75,385.389 1002.62,385.389 L1002.04,385.389 C1001.45,385.389 1001.15,385.029 1001.15,384.311 M1003.6,359.217 L1003.31,381.389 C1005.33,379.493 1007.38,376.347 1009.46,371.951 C1011.55,367.555 1012.59,363.795 1012.59,360.67 C1012.59,359.108 1012.33,357.675 1011.81,356.373 C1011.29,355.071 1010.47,354.42 1009.36,354.42 C1008.25,354.42 1007.26,354.811 1006.38,355.592 C1005.5,356.373 1004.57,357.581 1003.6,359.217"/>
<polyline class="Stem" fill="none" stroke="#000000" stroke-width="3.25" stroke-linejoin="bevel" points="2425.61,399.433 2425.61,316.732"/>
<polyline class="Stem" fill="none" stroke="#000000" stroke-width="3.25" stroke-linejoin="bevel" points="2144.11,374.433 2144.11,297.982"/>
<polyline class="Stem" fill="none" stroke="#000000" stroke-width="3.25" stroke-linejoin="bevel" points="497.864,411.933 497.864,329.232"/>
<polyline class="Stem" fill="none" stroke="#000000" stroke-width="3.25" stroke-linejoin="bevel" points="1986.84,371.633 1986.84,441.733"/>
<polyline class="Stem" fill="none" stroke="#000000" stroke-width="3.25" stroke-linejoin="bevel" points="653.567,399.433 653.567,316.732"/>
<polyline class="Stem" fill="none" stroke="#000000" stroke-width="3.25" stroke-linejoin="bevel" points="779.366,386.933 779.366,304.232"/>
<polyline class="Stem" fill="none" stroke="#000000" stroke-width="3.25" stroke-linejoin="bevel" points="2299.81,386.933 2299.81,304.232"/>
<polyline class="Stem" fill="none" stroke="#000000" stroke-width="3.25" stroke-linejoin="bevel" points="1820.62,346.632 1820.62,429.233"/>
<polyline class="Stem" fill="none" stroke="#000000" stroke-width="3.25" stroke-linejoin="bevel" points="1694.82,346.632 1694.82,429.233"/>
<polyline class="Stem" fill="none" stroke="#000000" stroke-width="3.25" stroke-linejoin="bevel" points="935.069,374.433 935.069,297.982"/>
<polyline class="Stem" fill="none" stroke="#000000" stroke-width="3.25" stroke-linejoin="bevel" points="2707.11,424.433 2707.11,341.732"/>
<polyline class="Stem" fill="none" stroke="#000000" stroke-width="3.25" stroke-linejoin="bevel" points="1029.4,371.633 1029.4,441.733"/>
<polyline class="Stem" fill="none" stroke="#000000" stroke-width="3.25" stroke-linejoin="bevel" points="372.065,424.433 372.065,341.732"/>
<polyline class="Stem" fill="none" stroke="#000000" stroke-width="3.25" stroke-linejoin="bevel" points="1321.42,346.632 1321.42,429.233"/>
<polyline class="Stem" fill="none" stroke="#000000" stroke-width="3.25" stroke-linejoin="bevel" points="2581.31,411.933 2581.31,329.232"/>
<polyline class="Stem" fill="none" stroke="#000000" stroke-width="3.25" stroke-linejoin="bevel" points="1195.62,346.632 1195.62,429.233"/>
<path class="Note" d="M2555.64,427.373 C2557.52,427.373 2561.48,425.42 2567.51,421.514 C2573.53,417.608 2577.08,414.988 2578.15,413.654 C2579.23,412.321 2579.76,411.134 2579.76,410.092 C2579.76,409.05 2579.34,408.123 2578.49,407.311 C2577.64,406.498 2576.66,406.092 2575.56,406.092 C2573.61,406.092 2569.63,408.061 2563.6,411.998 C2557.57,415.936 2554.04,418.555 2553,419.858 C2551.96,421.16 2551.44,422.331 2551.44,423.373 C2551.44,424.415 2551.84,425.342 2552.66,426.154 C2553.48,426.967 2554.47,427.373 2555.64,427.373 M2574.59,402.967 C2580.19,402.967 2582.98,405.373 2582.98,410.186 C2582.98,412.529 2582.3,415.248 2580.94,418.342 C2579.57,421.436 2577.75,423.795 2575.47,425.42 C2570.46,428.805 2564.17,430.498 2556.62,430.498 C2551.02,430.498 2548.22,428.092 2548.22,423.279 C2548.22,421.134 2548.88,418.464 2550.22,415.272 C2551.55,412.079 2553.39,409.67 2555.73,408.045 C2560.75,404.66 2567.04,402.967 2574.59,402.967"/>
<path class="Note" d="M2274.14,402.373 C2276.02,402.373 2279.98,400.42 2286,396.514 C2292.03,392.608 2295.58,389.988 2296.65,388.654 C2297.72,387.321 2298.26,386.134 2298.26,385.092 C2298.26,384.05 2297.84,383.123 2296.99,382.311 C2296.14,381.498 2295.16,381.092 2294.06,381.092 C2292.11,381.092 2288.12,383.061 2282.1,386.998 C2276.07,390.936 2272.54,393.555 2271.5,394.858 C2270.45,396.16 2269.93,397.331 2269.93,398.373 C2269.93,399.415 2270.34,400.342 2271.16,401.154 C2271.98,401.967 2272.97,402.373 2274.14,402.373 M2293.09,377.967 C2298.68,377.967 2301.48,380.373 2301.48,385.186 C2301.48,387.529 2300.8,390.248 2299.43,393.342 C2298.07,396.436 2296.25,398.795 2293.96,400.42 C2288.95,403.805 2282.67,405.498 2275.12,405.498 C2269.52,405.498 2266.71,403.092 2266.71,398.279 C2266.71,396.134 2267.38,393.464 2268.71,390.272 C2270.05,387.079 2271.89,384.67 2274.23,383.045 C2279.25,379.66 2285.54,377.967 2293.09,377.967"/>
<path class="Note" d="M2399.94,414.873 C2401.82,414.873 2405.78,412.92 2411.8,409.014 C2417.83,405.108 2421.38,402.488 2422.45,401.154 C2423.52,399.821 2424.06,398.634 2424.06,397.592 C2424.06,396.55 2423.64,395.623 2422.79,394.811 C2421.94,393.998 2420.96,393.592 2419.86,393.592 C2417.91,393.592 2413.92,395.561 2407.9,399.498 C2401.87,403.436 2398.34,406.055 2397.3,407.358 C2396.25,408.66 2395.73,409.831 2395.73,410.873 C2395.73,411.915 2396.14,412.842 2396.96,413.654 C2397.78,414.467 2398.77,414.873 2399.94,414.873 M2418.89,390.467 C2424.48,390.467 2427.28,392.873 2427.28,397.686 C2427.28,400.029 2426.6,402.748 2425.23,405.842 C2423.87,408.936 2422.05,411.295 2419.76,412.92 C2414.75,416.305 2408.47,417.998 2400.92,417.998 C2395.32,417.998 2392.51,415.592 2392.51,410.779 C2392.51,408.634 2393.18,405.964 2394.51,402.772 C2395.85,399.579 2397.69,397.17 2400.03,395.545 C2405.05,392.16 2411.34,390.467 2418.89,390.467"/>
<path class="Note" d="M346.393,439.873 C348.278,439.873 352.234,437.92 358.26,434.014 C364.286,430.108 367.835,427.488 368.908,426.154 C369.981,424.821 370.518,423.634 370.518,422.592 C370.518,421.55 370.093,420.623 369.244,419.811 C368.395,418.998 367.419,418.592 366.315,418.592 C364.367,418.592 360.38,420.561 354.354,424.498 C348.328,428.436 344.794,431.055 343.752,432.358 C342.71,433.66 342.19,434.831 342.19,435.873 C342.19,436.915 342.598,437.842 343.416,438.654 C344.234,439.467 345.226,439.873 346.393,439.873 M365.346,415.467 C370.94,415.467 373.736,417.873 373.736,422.686 C373.736,425.029 373.054,427.748 371.69,430.842 C370.325,433.936 368.502,436.295 366.221,437.92 C361.21,441.305 354.929,442.998 347.377,442.998 C341.773,442.998 338.971,440.592 338.971,435.779 C338.971,433.634 339.637,430.964 340.971,427.772 C342.304,424.579 344.143,422.17 346.486,420.545 C351.507,417.16 357.794,415.467 365.346,415.467"/>
<path class="Note" d="M2681.44,439.873 C2683.32,439.873 2687.28,437.92 2693.31,434.014 C2699.33,430.108 2702.88,427.488 2703.95,426.154 C2705.03,424.821 2705.56,423.634 2705.56,422.592 C2705.56,421.55 2705.14,420.623 2704.29,419.811 C2703.44,418.998 2702.46,418.592 2701.36,418.592 C2699.41,418.592 2695.42,420.561 2689.4,424.498 C2683.37,428.436 2679.84,431.055 2678.8,432.358 C2677.76,433.66 2677.23,434.831 2677.23,435.873 C2677.23,436.915 2677.64,437.842 2678.46,438.654 C2679.28,439.467 2680.27,439.873 2681.44,439.873 M2700.39,415.467 C2705.98,415.467 2708.78,417.873 2708.78,422.686 C2708.78,425.029 2708.1,427.748 2706.73,430.842 C2705.37,433.936 2703.55,436.295 2701.27,437.92 C2696.26,441.305 2689.97,442.998 2682.42,442.998 C2676.82,442.998 2674.02,440.592 2674.02,435.779 C2674.02,433.634 2674.68,430.964 2676.02,427.772 C2677.35,424.579 2679.19,422.17 2681.53,420.545 C2686.55,417.16 2692.84,415.467 2700.39,415.467"/>
<path class="Note" d="M2118.43,389.873 C2120.32,389.873 2124.28,387.92 2130.3,384.014 C2136.33,380.108 2139.88,377.488 2140.95,376.154 C2142.02,374.821 2142.56,373.634 2142.56,372.592 C2142.56,371.55 2142.13,370.623 2141.29,369.811 C2140.44,368.998 2139.46,368.592 2138.36,368.592 C2136.41,368.592 2132.42,370.561 2126.39,374.498 C2120.37,378.436 2116.83,381.055 2115.79,382.358 C2114.75,383.66 2114.23,384.831 2114.23,385.873 C2114.23,386.915 2114.64,387.842 2115.46,388.654 C2116.28,389.467 2117.27,389.873 2118.43,389.873 M2137.39,365.467 C2142.98,365.467 2145.78,367.873 2145.78,372.686 C2145.78,375.029 2145.1,377.748 2143.73,380.842 C2142.37,383.936 2140.54,386.295 2138.26,387.92 C2133.25,391.305 2126.97,392.998 2119.42,392.998 C2113.81,392.998 2111.01,390.592 2111.01,385.779 C2111.01,383.634 2111.68,380.964 2113.01,377.772 C2114.35,374.579 2116.18,372.17 2118.53,370.545 C2123.55,367.16 2129.83,365.467 2137.39,365.467"/>
<path class="Note" d="M472.192,427.373 C474.078,427.373 478.034,425.42 484.06,421.514 C490.086,417.608 493.635,414.988 494.708,413.654 C495.781,412.321 496.317,411.134 496.317,410.092 C496.317,409.05 495.893,408.123 495.044,407.311 C494.195,406.498 493.219,406.092 492.114,406.092 C490.166,406.092 486.179,408.061 480.153,411.998 C474.127,415.936 470.594,418.555 469.552,419.858 C468.51,421.16 467.989,422.331 467.989,423.373 C467.989,424.415 468.398,425.342 469.216,426.154 C470.034,426.967 471.026,427.373 472.192,427.373 M491.146,402.967 C496.739,402.967 499.536,405.373 499.536,410.186 C499.536,412.529 498.854,415.248 497.489,418.342 C496.125,421.436 494.302,423.795 492.021,425.42 C487.01,428.805 480.729,430.498 473.177,430.498 C467.573,430.498 464.771,428.092 464.771,423.279 C464.771,421.134 465.437,418.464 466.771,415.272 C468.104,412.079 469.942,409.67 472.286,408.045 C477.307,404.66 483.594,402.967 491.146,402.967"/>
<path class="Note" d="M1992.63,377.373 C1994.52,377.373 1998.48,375.42 2004.5,371.514 C2010.53,367.608 2014.08,364.988 2015.15,363.654 C2016.22,362.321 2016.76,361.134 2016.76,360.092 C2016.76,359.05 2016.33,358.123 2015.49,357.311 C2014.64,356.498 2013.66,356.092 2012.56,356.092 C2010.61,356.092 2006.62,358.061 2000.59,361.998 C1994.57,365.936 1991.04,368.555 1989.99,369.858 C1988.95,371.16 1988.43,372.331 1988.43,373.373 C1988.43,374.415 1988.84,375.342 1989.66,376.154 C1990.48,376.967 1991.47,377.373 1992.63,377.373 M2011.59,352.967 C2017.18,352.967 2019.98,355.373 2019.98,360.186 C2019.98,362.529 2019.3,365.248 2017.93,368.342 C2016.57,371.436 2014.74,373.795 2012.46,375.42 C2007.45,378.805 2001.17,380.498 1993.62,380.498 C1988.01,380.498 1985.21,378.092 1985.21,373.279 C1985.21,371.134 1985.88,368.464 1987.21,365.272 C1988.55,362.079 1990.38,359.67 1992.73,358.045 C1997.75,354.66 2004.04,352.967 2011.59,352.967"/>
<path class="Note" d="M627.895,414.873 C629.78,414.873 633.736,412.92 639.762,409.014 C645.788,405.108 649.337,402.488 650.41,401.154 C651.483,399.821 652.02,398.634 652.02,397.592 C652.02,396.55 651.595,395.623 650.746,394.811 C649.897,393.998 648.921,393.592 647.817,393.592 C645.869,393.592 641.882,395.561 635.856,399.498 C629.83,403.436 626.296,406.055 625.254,407.358 C624.212,408.66 623.692,409.831 623.692,410.873 C623.692,411.915 624.1,412.842 624.918,413.654 C625.736,414.467 626.728,414.873 627.895,414.873 M646.848,390.467 C652.442,390.467 655.238,392.873 655.238,397.686 C655.238,400.029 654.556,402.748 653.192,405.842 C651.827,408.936 650.004,411.295 647.723,412.92 C642.712,416.305 636.431,417.998 628.879,417.998 C623.275,417.998 620.473,415.592 620.473,410.779 C620.473,408.634 621.139,405.964 622.473,402.772 C623.806,399.579 625.645,397.17 627.988,395.545 C633.009,392.16 639.296,390.467 646.848,390.467"/>
<path class="Note" d="M1826.42,352.373 C1828.3,352.373 1832.26,350.42 1838.28,346.514 C1844.31,342.607 1847.86,339.988 1848.93,338.654 C1850,337.321 1850.54,336.134 1850.54,335.092 C1850.54,334.05 1850.12,333.123 1849.27,332.311 C1848.42,331.498 1847.44,331.092 1846.34,331.092 C1844.39,331.092 1840.4,333.061 1834.38,336.998 C1828.35,340.936 1824.82,343.555 1823.78,344.857 C1822.73,346.16 1822.21,347.331 1822.21,348.373 C1822.21,349.415 1822.62,350.342 1823.44,351.154 C1824.26,351.967 1825.25,352.373 1826.42,352.373 M1845.37,327.967 C1850.96,327.967 1853.76,330.373 1853.76,335.186 C1853.76,337.529 1853.08,340.248 1851.71,343.342 C1850.35,346.436 1848.53,348.795 1846.24,350.42 C1841.23,353.805 1834.95,355.498 1827.4,355.498 C1821.8,355.498 1818.99,353.092 1818.99,348.279 C1818.99,346.134 1819.66,343.464 1820.99,340.272 C1822.33,337.079 1824.17,334.67 1826.51,333.045 C1831.53,329.66 1837.82,327.967 1845.37,327.967"/>
<path class="Note" d="M1700.62,352.373 C1702.5,352.373 1706.46,350.42 1712.48,346.514 C1718.51,342.607 1722.06,339.988 1723.13,338.654 C1724.2,337.321 1724.74,336.134 1724.74,335.092 C1724.74,334.05 1724.32,333.123 1723.47,332.311 C1722.62,331.498 1721.64,331.092 1720.54,331.092 C1718.59,331.092 1714.6,333.061 1708.58,336.998 C1702.55,340.936 1699.02,343.555 1697.98,344.857 C1696.93,346.16 1696.41,347.331 1696.41,348.373 C1696.41,349.415 1696.82,350.342 1697.64,351.154 C1698.46,351.967 1699.45,352.373 1700.62,352.373 M1719.57,327.967 C1725.16,327.967 1727.96,330.373 1727.96,335.186 C1727.96,337.529 1727.28,340.248 1725.91,343.342 C1724.55,346.436 1722.73,348.795 1720.44,350.42 C1715.43,353.805 1709.15,355.498 1701.6,355.498 C1696,355.498 1693.19,353.092 1693.19,348.279 C1693.19,346.134 1693.86,343.464 1695.19,340.272 C1696.53,337.079 1698.37,334.67 1700.71,333.045 C1705.73,329.66 1712.02,327.967 1719.57,327.967"/>
<path class="Note" d="M753.695,402.373 C755.58,402.373 759.536,400.42 765.562,396.514 C771.588,392.608 775.137,389.988 776.21,388.654 C777.283,387.321 777.82,386.134 777.82,385.092 C777.82,384.05 777.395,383.123 776.546,382.311 C775.697,381.498 774.721,381.092 773.616,381.092 C771.669,381.092 767.682,383.061 761.655,386.998 C755.629,390.936 752.096,393.555 751.054,394.858 C750.012,396.16 749.491,397.331 749.491,398.373 C749.491,399.415 749.9,400.342 750.718,401.154 C751.536,401.967 752.528,402.373 753.695,402.373 M772.648,377.967 C778.241,377.967 781.038,380.373 781.038,385.186 C781.038,387.529 780.356,390.248 778.991,393.342 C777.627,396.436 775.804,398.795 773.523,400.42 C768.512,403.805 762.231,405.498 754.679,405.498 C749.075,405.498 746.273,403.092 746.273,398.279 C746.273,396.134 746.939,393.464 748.273,390.272 C749.606,387.079 751.445,384.67 753.788,383.045 C758.809,379.66 765.096,377.967 772.648,377.967"/>
<path class="Note" d="M909.397,389.873 C911.282,389.873 915.238,387.92 921.264,384.014 C927.29,380.108 930.839,377.488 931.912,376.154 C932.985,374.821 933.522,373.634 933.522,372.592 C933.522,371.55 933.097,370.623 932.248,369.811 C931.399,368.998 930.423,368.592 929.319,368.592 C927.371,368.592 923.384,370.561 917.358,374.498 C911.332,378.436 907.798,381.055 906.756,382.358 C905.714,383.66 905.194,384.831 905.194,385.873 C905.194,386.915 905.603,387.842 906.42,388.654 C907.238,389.467 908.23,389.873 909.397,389.873 M928.35,365.467 C933.944,365.467 936.741,367.873 936.741,372.686 C936.741,375.029 936.058,377.748 934.694,380.842 C933.329,383.936 931.506,386.295 929.225,387.92 C924.214,391.305 917.933,392.998 910.381,392.998 C904.777,392.998 901.975,390.592 901.975,385.779 C901.975,383.634 902.642,380.964 903.975,377.772 C905.308,374.579 907.147,372.17 909.491,370.545 C914.511,367.16 920.798,365.467 928.35,365.467"/>
<path class="Note" d="M1327.21,352.373 C1329.1,352.373 1333.06,350.42 1339.08,346.514 C1345.11,342.607 1348.66,339.988 1349.73,338.654 C1350.8,337.321 1351.34,336.134 1351.34,335.092 C1351.34,334.05 1350.91,333.123 1350.07,332.311 C1349.22,331.498 1348.24,331.092 1347.14,331.092 C1345.19,331.092 1341.2,333.061 1335.18,336.998 C1329.15,340.936 1325.62,343.555 1324.57,344.857 C1323.53,346.16 1323.01,347.331 1323.01,348.373 C1323.01,349.415 1323.42,350.342 1324.24,351.154 C1325.06,351.967 1326.05,352.373 1327.21,352.373 M1346.17,327.967 C1351.76,327.967 1354.56,330.373 1354.56,335.186 C1354.56,337.529 1353.88,340.248 1352.51,343.342 C1351.15,346.436 1349.32,348.795 1347.04,350.42 C1342.03,353.805 1335.75,355.498 1328.2,355.498 C1322.59,355.498 1319.79,353.092 1319.79,348.279 C1319.79,346.134 1320.46,343.464 1321.79,340.272 C1323.13,337.079 1324.96,334.67 1327.31,333.045 C1332.33,329.66 1338.62,327.967 1346.17,327.967"/>
<path class="Note" d="M1035.2,377.373 C1037.08,377.373 1041.04,375.42 1047.06,371.514 C1053.09,367.608 1056.64,364.988 1057.71,363.654 C1058.79,362.321 1059.32,361.134 1059.32,360.092 C1059.32,359.05 1058.9,358.123 1058.05,357.311 C1057.2,356.498 1056.22,356.092 1055.12,356.092 C1053.17,356.092 1049.18,358.061 1043.16,361.998 C1037.13,365.936 1033.6,368.555 1032.56,369.858 C1031.51,371.16 1030.99,372.331 1030.99,373.373 C1030.99,374.415 1031.4,375.342 1032.22,376.154 C1033.04,376.967 1034.03,377.373 1035.2,377.373 M1054.15,352.967 C1059.74,352.967 1062.54,355.373 1062.54,360.186 C1062.54,362.529 1061.86,365.248 1060.49,368.342 C1059.13,371.436 1057.31,373.795 1055.02,375.42 C1050.01,378.805 1043.73,380.498 1036.18,380.498 C1030.58,380.498 1027.77,378.092 1027.77,373.279 C1027.77,371.134 1028.44,368.464 1029.77,365.272 C1031.11,362.079 1032.95,359.67 1035.29,358.045 C1040.31,354.66 1046.6,352.967 1054.15,352.967"/>
<path class="Note" d="M1201.41,352.373 C1203.3,352.373 1207.26,350.42 1213.28,346.514 C1219.31,342.607 1222.86,339.988 1223.93,338.654 C1225,337.321 1225.54,336.134 1225.54,335.092 C1225.54,334.05 1225.11,333.123 1224.27,332.311 C1223.42,331.498 1222.44,331.092 1221.34,331.092 C1219.39,331.092 1215.4,333.061 1209.38,336.998 C1203.35,340.936 1199.82,343.555 1198.77,344.857 C1197.73,346.16 1197.21,347.331 1197.21,348.373 C1197.21,349.415 1197.62,350.342 1198.44,351.154 C1199.26,351.967 1200.25,352.373 1201.41,352.373 M1220.37,327.967 C1225.96,327.967 1228.76,330.373 1228.76,335.186 C1228.76,337.529 1228.08,340.248 1226.71,343.342 C1225.35,346.436 1223.52,348.795 1221.24,350.42 C1216.23,353.805 1209.95,355.498 1202.4,355.498 C1196.79,355.498 1193.99,353.092 1193.99,348.279 C1193.99,346.134 1194.66,343.464 1195.99,340.272 C1197.33,337.079 1199.16,334.67 1201.51,333.045 C1206.53,329.66 1212.82,327.967 1220.37,327.967"/>
<path class="Clef" d="M203.623,423.858 L203.623,421.717 C203.56,420.613 203.399,418.889 203.139,416.545 C199.889,417.066 196.993,417.326 194.451,417.326 C185.337,417.326 177.605,413.727 171.256,406.529 C164.907,399.331 161.732,390.753 161.732,380.795 C161.732,378.128 162.253,374.923 163.295,371.178 C164.337,367.433 165.297,364.925 166.178,363.654 C167.058,362.384 168.378,360.154 170.139,356.967 C170.659,355.988 172.352,353.837 175.217,350.514 C175.738,349.805 176.193,349.222 176.584,348.764 C176.975,348.305 177.607,347.49 178.482,346.318 C179.357,345.147 180.3,344.055 181.31,343.045 C182.321,342.035 183.217,341.058 183.998,340.115 C184.779,339.173 185.498,338.378 186.154,337.733 C183.81,329.983 182.378,324.024 181.857,319.858 C181.337,315.691 181.076,310.579 181.076,304.522 C181.076,298.464 182.378,292.962 184.982,288.014 C187.514,282.878 191.06,278.68 195.623,275.42 C195.883,275.222 196.225,275.123 196.646,275.123 C197.068,275.123 197.378,275.222 197.576,275.42 C201.087,279.649 204.128,285.149 206.701,291.92 C209.274,298.691 210.56,305.024 210.56,310.92 C210.56,316.816 209.066,322.498 206.076,327.967 C202.691,333.759 198.326,339.748 192.982,345.936 C194.347,350.227 196.17,356.962 198.451,366.139 L199.045,366.139 C199.305,366.076 199.529,366.045 199.717,366.045 C207.081,366.045 213.089,368.634 217.74,373.811 C222.391,378.988 224.717,384.962 224.717,391.733 C224.717,400.128 221.238,406.899 214.279,412.045 C212.258,413.545 209.878,414.717 207.139,415.561 C207.472,419.79 207.639,422.605 207.639,424.006 C207.639,425.407 207.571,427.899 207.435,431.483 C207.373,437.597 205.29,442.837 201.185,447.201 C197.081,451.566 192.394,453.748 187.123,453.748 C181.852,453.748 177.36,451.876 173.646,448.131 C169.933,444.386 168.076,439.847 168.076,434.514 C168.076,431.712 169.154,429.331 171.31,427.373 C173.519,425.425 176.006,424.451 178.771,424.451 C181.537,424.451 183.8,425.462 185.56,427.483 C187.383,429.368 188.295,431.644 188.295,434.311 C188.295,436.977 187.383,439.222 185.56,441.045 C183.738,442.868 181.555,443.779 179.014,443.779 C177.972,443.779 176.967,443.587 175.998,443.201 C178.863,447.43 182.54,449.545 187.029,449.545 C191.519,449.545 195.36,447.691 198.553,443.983 C201.745,440.274 203.342,435.91 203.342,430.889 L203.623,423.858 M206.748,411.561 C210.133,410.321 212.821,408.123 214.81,404.967 C216.8,401.811 217.795,398.67 217.795,395.545 C217.795,390.92 216.199,386.785 213.006,383.139 C209.813,379.493 205.774,377.441 200.889,376.983 C203.691,390.722 205.644,402.248 206.748,411.561 M168.967,388.998 C168.967,395.446 171.537,401.079 176.678,405.897 C181.818,410.714 187.842,413.123 194.748,413.123 C197.477,413.123 200.144,412.925 202.748,412.529 C201.706,402.634 199.654,390.785 196.592,376.983 C192.758,377.378 189.782,378.699 187.662,380.943 C185.542,383.188 184.482,385.743 184.482,388.608 C184.482,393.555 187.123,397.561 192.404,400.623 C192.852,400.884 193.076,401.324 193.076,401.943 C193.076,402.563 192.865,403.1 192.443,403.553 C192.021,404.006 191.649,404.233 191.326,404.233 C191.003,404.233 190.581,404.17 190.06,404.045 C182.435,399.878 178.623,393.592 178.623,385.186 C178.623,381.217 180.024,377.41 182.826,373.764 C185.753,370.118 189.56,367.774 194.248,366.733 C192.425,359.441 190.93,353.743 189.764,349.639 C180.847,359.67 175.31,367.092 173.154,371.904 C170.363,378.154 168.967,383.852 168.967,388.998 M201.576,289.686 C196.691,292.092 192.834,295.574 190.006,300.131 C187.178,304.688 185.764,309.472 185.764,314.483 C185.764,319.493 186.935,325.972 189.279,333.92 C193.967,328.253 197.514,322.946 199.92,317.998 C202.326,313.05 203.529,308.152 203.529,303.303 C203.529,298.454 202.878,293.915 201.576,289.686"/>
<path class="TimeSig" d="M273.021,317.912 C274.516,317.912 275.949,317.686 277.318,317.232 C278.688,316.779 279.665,316.553 280.248,316.553 C280.831,316.553 281.222,316.907 281.42,317.615 C281.42,317.688 281.352,317.886 281.217,318.209 L252.811,351.225 L269.498,351.225 L269.498,338.131 C269.498,336.506 270.446,335.334 272.342,334.615 C274.29,333.897 276.503,331.001 278.982,325.928 C279.17,325.532 279.462,325.334 279.857,325.334 C280.639,325.334 281.092,325.792 281.217,326.709 L281.217,351.225 L288.357,351.225 C289.264,351.225 289.751,351.712 289.818,352.686 C289.886,353.66 289.399,354.147 288.357,354.147 L281.217,354.147 L281.217,354.928 C281.217,357.532 281.868,359.746 283.17,361.568 C284.67,363.391 286.43,364.303 288.451,364.303 C289.232,364.303 289.623,364.693 289.623,365.475 C289.623,366.256 289.087,366.647 288.014,366.647 C286.941,366.647 284.938,366.436 282.006,366.014 C279.074,365.592 276.811,365.381 275.217,365.381 C273.623,365.381 271.41,365.592 268.576,366.014 C265.743,366.436 263.613,366.647 262.186,366.647 C261.404,366.647 261.014,366.256 261.014,365.475 C261.014,364.693 261.404,364.303 262.186,364.303 C264.196,364.303 265.951,363.391 267.451,361.568 C268.816,359.683 269.498,357.469 269.498,354.928 L269.498,354.147 L252.811,354.147 C251.956,354.147 251.219,353.92 250.6,353.467 C249.98,353.014 249.67,352.592 249.67,352.201 C249.67,351.811 250.485,350.639 252.115,348.686 C253.745,346.732 256.074,342.972 259.1,337.404 C262.126,331.837 263.639,325.438 263.639,318.209 C263.639,317.167 264.097,316.647 265.014,316.647 C265.212,316.647 265.521,316.712 265.943,316.842 C266.365,316.972 267.277,317.183 268.678,317.475 C270.079,317.766 271.527,317.912 273.021,317.912"/>
<path class="TimeSig" d="M273.021,368.084 C274.516,368.084 275.949,367.858 277.318,367.404 C278.688,366.951 279.665,366.725 280.248,366.725 C280.831,366.725 281.222,367.079 281.42,367.787 C281.42,367.86 281.352,368.058 281.217,368.381 L252.811,401.397 L269.498,401.397 L269.498,388.303 C269.498,386.678 270.446,385.506 272.342,384.787 C274.29,384.068 276.503,381.173 278.982,376.1 C279.17,375.704 279.462,375.506 279.857,375.506 C280.639,375.506 281.092,375.964 281.217,376.881 L281.217,401.397 L288.357,401.397 C289.264,401.397 289.751,401.884 289.818,402.858 C289.886,403.831 289.399,404.318 288.357,404.318 L281.217,404.318 L281.217,405.1 C281.217,407.704 281.868,409.917 283.17,411.74 C284.67,413.563 286.43,414.475 288.451,414.475 C289.232,414.475 289.623,414.865 289.623,415.647 C289.623,416.428 289.087,416.818 288.014,416.818 C286.941,416.818 284.938,416.608 282.006,416.186 C279.074,415.764 276.811,415.553 275.217,415.553 C273.623,415.553 271.41,415.764 268.576,416.186 C265.743,416.608 263.613,416.818 262.186,416.818 C261.404,416.818 261.014,416.428 261.014,415.647 C261.014,414.865 261.404,414.475 262.186,414.475 C264.196,414.475 265.951,413.563 267.451,411.74 C268.816,409.855 269.498,407.641 269.498,405.1 L269.498,404.318 L252.811,404.318 C251.956,404.318 251.219,404.092 250.6,403.639 C249.98,403.186 249.67,402.764 249.67,402.373 C249.67,401.983 250.485,400.811 252.115,398.858 C253.745,396.904 256.074,393.144 259.1,387.576 C262.126,382.009 263.639,375.61 263.639,368.381 C263.639,367.339 264.097,366.818 265.014,366.818 C265.212,366.818 265.521,366.884 265.943,367.014 C266.365,367.144 267.277,367.355 268.678,367.647 C270.079,367.938 271.527,368.084 273.021,368.084"/>
<path class="Rest" d="M1575.13,357.357 L1539.58,357.357 C1538.92,357.357 1538.59,357.035 1538.59,356.389 L1538.59,342.717 C1538.59,342.061 1538.92,341.732 1539.58,341.732 L1575.13,341.732 C1575.77,341.732 1576.09,342.061 1576.09,342.717 L1576.09,356.389 C1576.09,357.035 1575.77,357.357 1575.13,357.357"/>
</svg>
