<?xml version="1.0" encoding="UTF-8" standalone="no"?>
<svg width="2977.2px" height="4208.4px" viewBox="0 0 2977.2 4208.4"
 xmlns="http://www.w3.org/2000/svg" xmlns:xlink="http://www.w3.org/1999/xlink" version="1.2" baseProfile="tiny">
<title>D_Bebop.mscx</title>
<desc>Generated by MuseScore Studio 4.3.1</desc>
<path class="" fill="#ffffff" fill-rule="evenodd" d="M0,0 L2977.2,0 L2977.2,4208.4 L0,4208.4 L0,0 "/>
<polyline class="StaffLines" fill="none" stroke="#000000" stroke-width="2.00" stroke-linejoin="bevel" points="141.732,566.733 2835.47,566.733"/>
<polyline class="StaffLines" fill="none" stroke="#000000" stroke-width="2.00" stroke-linejoin="bevel" points="141.732,591.733 2835.47,591.733"/>
<polyline class="StaffLines" fill="none" stroke="#000000" stroke-width="2.00" stroke-linejoin="bevel" points="141.732,616.733 2835.47,616.733"/>
<polyline class="StaffLines" fill="none" stroke="#000000" stroke-width="2.00" stroke-linejoin="bevel" points="141.732,641.733 2835.47,641.733"/>
<polyline class="StaffLines" fill="none" stroke="#000000" stroke-width="2.00" stroke-linejoin="bevel" points="141.732,666.733 2835.47,666.733"/>
<polyline class="BarLine" fill="none" stroke="#000000" stroke-width="4.00" stroke-linejoin="bevel" points="2802.72,565.733 2802.72,667.733"/>
<polyline class="BarLine" fill="none" stroke="#000000" stroke-width="12.50" stroke-linejoin="bevel" points="2829.22,565.733 2829.22,667.733"/>
<polyline class="BarLine" fill="none" stroke="#000000" stroke-width="4.00" stroke-linejoin="bevel" points="884.726,565.733 884.726,667.733"/>
<polyline class="BarLine" fill="none" stroke="#000000" stroke-width="4.00" stroke-linejoin="bevel" points="1164.8,565.733 1164.8,667.733"/>
<polyline class="BarLine" fill="none" stroke="#000000" stroke-width="4.00" stroke-linejoin="bevel" points="1444.88,565.733 1444.88,667.733"/>
<polyline class="BarLine" fill="none" stroke="#000000" stroke-width="4.00" stroke-linejoin="bevel" points="1724.96,565.733 1724.96,667.733"/>
<polyline class="BarLine" fill="none" stroke="#000000" stroke-width="4.00" stroke-linejoin="bevel" points="592.047,565.733 592.047,667.733"/>
<polyline class="BarLine" fill="none" stroke="#000000" stroke-width="4.00" stroke-linejoin="bevel" points="2005.03,565.733 2005.03,667.733"/>
<polyline class="BarLine" fill="none" stroke="#000000" stroke-width="4.00" stroke-linejoin="bevel" points="2285.11,565.733 2285.11,667.733"/>
<polyline class="BarLine" fill="none" stroke="#000000" stroke-width="4.00" stroke-linejoin="bevel" points="2577.79,565.733 2577.79,667.733"/>
<path class="Accidental" d="M2317.29,632.264 C2318.73,631.868 2319.44,632.222 2319.44,633.326 L2319.44,641.139 C2319.44,641.92 2318.82,642.54 2317.59,642.998 L2314.37,644.264 L2314.37,658.436 L2317.29,657.264 C2318.73,656.868 2319.44,657.227 2319.44,658.342 L2319.44,666.155 C2319.44,666.936 2318.82,667.55 2317.59,667.998 L2314.37,669.28 L2314.37,685.483 C2314.37,686.722 2313.88,687.342 2312.9,687.342 C2311.92,687.342 2311.43,686.722 2311.43,685.483 L2311.43,670.451 L2302.15,674.155 L2302.15,690.264 C2302.15,691.504 2301.66,692.123 2300.69,692.123 C2299.71,692.123 2299.23,691.504 2299.23,690.264 L2299.23,675.326 L2296.68,676.405 C2295.31,676.988 2294.63,676.597 2294.63,675.233 L2294.63,667.514 C2294.63,666.868 2295.22,666.285 2296.4,665.764 L2299.23,664.592 L2299.23,650.326 L2296.68,651.405 C2295.31,651.988 2294.63,651.597 2294.63,650.233 L2294.63,642.514 C2294.63,641.858 2295.22,641.269 2296.4,640.748 L2299.23,639.576 L2299.23,623.467 C2299.23,622.227 2299.71,621.608 2300.69,621.608 C2301.66,621.608 2302.15,622.227 2302.15,623.467 L2302.15,638.405 L2311.43,634.608 L2311.43,618.686 C2311.43,617.446 2311.92,616.826 2312.9,616.826 C2313.88,616.826 2314.37,617.446 2314.37,618.686 L2314.37,633.436 L2317.29,632.264 M2302.15,649.155 L2302.15,663.42 L2311.43,659.608 L2311.43,645.436 L2302.15,649.155 "/>
<path class="Accidental" d="M1589.54,582.264 C1590.98,581.868 1591.7,582.222 1591.7,583.326 L1591.7,591.139 C1591.7,591.92 1591.08,592.54 1589.84,592.998 L1586.62,594.264 L1586.62,608.436 L1589.54,607.264 C1590.98,606.868 1591.7,607.227 1591.7,608.342 L1591.7,616.155 C1591.7,616.936 1591.08,617.55 1589.84,617.998 L1586.62,619.28 L1586.62,635.483 C1586.62,636.722 1586.13,637.342 1585.15,637.342 C1584.17,637.342 1583.68,636.722 1583.68,635.483 L1583.68,620.451 L1574.4,624.155 L1574.4,640.264 C1574.4,641.503 1573.92,642.123 1572.94,642.123 C1571.97,642.123 1571.48,641.503 1571.48,640.264 L1571.48,625.326 L1568.93,626.405 C1567.57,626.988 1566.89,626.597 1566.89,625.233 L1566.89,617.514 C1566.89,616.868 1567.48,616.285 1568.65,615.764 L1571.48,614.592 L1571.48,600.326 L1568.93,601.405 C1567.57,601.988 1566.89,601.597 1566.89,600.233 L1566.89,592.514 C1566.89,591.858 1567.48,591.269 1568.65,590.748 L1571.48,589.576 L1571.48,573.467 C1571.48,572.227 1571.97,571.608 1572.94,571.608 C1573.92,571.608 1574.4,572.227 1574.4,573.467 L1574.4,588.405 L1583.68,584.608 L1583.68,568.686 C1583.68,567.446 1584.17,566.826 1585.15,566.826 C1586.13,566.826 1586.62,567.446 1586.62,568.686 L1586.62,583.436 L1589.54,582.264 M1574.4,599.155 L1574.4,613.42 L1583.68,609.608 L1583.68,595.436 L1574.4,599.155 "/>
<path class="Accidental" d="M1029.39,607.264 C1030.83,606.868 1031.55,607.222 1031.55,608.326 L1031.55,616.139 C1031.55,616.92 1030.93,617.54 1029.69,617.998 L1026.47,619.264 L1026.47,633.436 L1029.39,632.264 C1030.83,631.868 1031.55,632.227 1031.55,633.342 L1031.55,641.155 C1031.55,641.936 1030.93,642.55 1029.69,642.998 L1026.47,644.28 L1026.47,660.483 C1026.47,661.722 1025.98,662.342 1025,662.342 C1024.02,662.342 1023.53,661.722 1023.53,660.483 L1023.53,645.451 L1014.25,649.155 L1014.25,665.264 C1014.25,666.504 1013.76,667.123 1012.79,667.123 C1011.82,667.123 1011.33,666.504 1011.33,665.264 L1011.33,650.326 L1008.78,651.405 C1007.42,651.988 1006.73,651.597 1006.73,650.233 L1006.73,642.514 C1006.73,641.868 1007.32,641.285 1008.5,640.764 L1011.33,639.592 L1011.33,625.326 L1008.78,626.405 C1007.42,626.988 1006.73,626.597 1006.73,625.233 L1006.73,617.514 C1006.73,616.858 1007.32,616.269 1008.5,615.748 L1011.33,614.576 L1011.33,598.467 C1011.33,597.227 1011.82,596.608 1012.79,596.608 C1013.76,596.608 1014.25,597.227 1014.25,598.467 L1014.25,613.405 L1023.53,609.608 L1023.53,593.686 C1023.53,592.446 1024.02,591.826 1025,591.826 C1025.98,591.826 1026.47,592.446 1026.47,593.686 L1026.47,608.436 L1029.39,607.264 M1014.25,624.155 L1014.25,638.42 L1023.53,634.608 L1023.53,620.436 L1014.25,624.155 "/>
<path class="Accidental" d="M624.227,632.264 C625.665,631.868 626.383,632.222 626.383,633.326 L626.383,641.139 C626.383,641.92 625.764,642.54 624.524,642.998 L621.305,644.264 L621.305,658.436 L624.227,657.264 C625.665,656.868 626.383,657.227 626.383,658.342 L626.383,666.155 C626.383,666.936 625.764,667.55 624.524,667.998 L621.305,669.28 L621.305,685.483 C621.305,686.722 620.816,687.342 619.836,687.342 C618.857,687.342 618.368,686.722 618.368,685.483 L618.368,670.451 L609.086,674.155 L609.086,690.264 C609.086,691.504 608.599,692.123 607.625,692.123 C606.652,692.123 606.165,691.504 606.165,690.264 L606.165,675.326 L603.618,676.405 C602.253,676.988 601.571,676.597 601.571,675.233 L601.571,667.514 C601.571,666.868 602.159,666.285 603.336,665.764 L606.165,664.592 L606.165,650.326 L603.618,651.405 C602.253,651.988 601.571,651.597 601.571,650.233 L601.571,642.514 C601.571,641.858 602.159,641.269 603.336,640.748 L606.165,639.576 L606.165,623.467 C606.165,622.227 606.652,621.608 607.625,621.608 C608.599,621.608 609.086,622.227 609.086,623.467 L609.086,638.405 L618.368,634.608 L618.368,618.686 C618.368,617.446 618.857,616.826 619.836,616.826 C620.816,616.826 621.305,617.446 621.305,618.686 L621.305,633.436 L624.227,632.264 M609.086,649.155 L609.086,663.42 L618.368,659.608 L618.368,645.436 L609.086,649.155 "/>
<path class="Accidental" d="M1309.47,582.264 C1310.9,581.868 1311.62,582.222 1311.62,583.326 L1311.62,591.139 C1311.62,591.92 1311,592.54 1309.76,592.998 L1306.55,594.264 L1306.55,608.436 L1309.47,607.264 C1310.9,606.868 1311.62,607.227 1311.62,608.342 L1311.62,616.155 C1311.62,616.936 1311,617.55 1309.76,617.998 L1306.55,619.28 L1306.55,635.483 C1306.55,636.722 1306.06,637.342 1305.08,637.342 C1304.1,637.342 1303.61,636.722 1303.61,635.483 L1303.61,620.451 L1294.33,624.155 L1294.33,640.264 C1294.33,641.503 1293.84,642.123 1292.87,642.123 C1291.89,642.123 1291.4,641.503 1291.4,640.264 L1291.4,625.326 L1288.86,626.405 C1287.49,626.988 1286.81,626.597 1286.81,625.233 L1286.81,617.514 C1286.81,616.868 1287.4,616.285 1288.58,615.764 L1291.4,614.592 L1291.4,600.326 L1288.86,601.405 C1287.49,601.988 1286.81,601.597 1286.81,600.233 L1286.81,592.514 C1286.81,591.858 1287.4,591.269 1288.58,590.748 L1291.4,589.576 L1291.4,573.467 C1291.4,572.227 1291.89,571.608 1292.87,571.608 C1293.84,571.608 1294.33,572.227 1294.33,573.467 L1294.33,588.405 L1303.61,584.608 L1303.61,568.686 C1303.61,567.446 1304.1,566.826 1305.08,566.826 C1306.06,566.826 1306.55,567.446 1306.55,568.686 L1306.55,583.436 L1309.47,582.264 M1294.33,599.155 L1294.33,613.42 L1303.61,609.608 L1303.61,595.436 L1294.33,599.155 "/>
<path class="Accidental" d="M1869.62,607.264 C1871.06,606.868 1871.78,607.222 1871.78,608.326 L1871.78,616.139 C1871.78,616.92 1871.16,617.54 1869.92,617.998 L1866.7,619.264 L1866.7,633.436 L1869.62,632.264 C1871.06,631.868 1871.78,632.227 1871.78,633.342 L1871.78,641.155 C1871.78,641.936 1871.16,642.55 1869.92,642.998 L1866.7,644.28 L1866.7,660.483 C1866.7,661.722 1866.21,662.342 1865.23,662.342 C1864.25,662.342 1863.76,661.722 1863.76,660.483 L1863.76,645.451 L1854.48,649.155 L1854.48,665.264 C1854.48,666.504 1853.99,667.123 1853.02,667.123 C1852.05,667.123 1851.56,666.504 1851.56,665.264 L1851.56,650.326 L1849.01,651.405 C1847.65,651.988 1846.96,651.597 1846.96,650.233 L1846.96,642.514 C1846.96,641.868 1847.55,641.285 1848.73,640.764 L1851.56,639.592 L1851.56,625.326 L1849.01,626.405 C1847.65,626.988 1846.96,626.597 1846.96,625.233 L1846.96,617.514 C1846.96,616.858 1847.55,616.269 1848.73,615.748 L1851.56,614.576 L1851.56,598.467 C1851.56,597.227 1852.05,596.608 1853.02,596.608 C1853.99,596.608 1854.48,597.227 1854.48,598.467 L1854.48,613.405 L1863.76,609.608 L1863.76,593.686 C1863.76,592.446 1864.25,591.826 1865.23,591.826 C1866.21,591.826 1866.7,592.446 1866.7,593.686 L1866.7,608.436 L1869.62,607.264 M1854.48,624.155 L1854.48,638.42 L1863.76,634.608 L1863.76,620.436 L1854.48,624.155 "/>
<polyline class="Stem" fill="none" stroke="#000000" stroke-width="3.25" stroke-linejoin="bevel" points="2065.13,624.433 2065.13,547.983"/>
<polyline class="Stem" fill="none" stroke="#000000" stroke-width="3.25" stroke-linejoin="bevel" points="1598.59,609.133 1598.59,685.483"/>
<polyline class="Stem" fill="none" stroke="#000000" stroke-width="3.25" stroke-linejoin="bevel" points="1753.58,621.633 1753.58,691.733"/>
<polyline class="Stem" fill="none" stroke="#000000" stroke-width="3.25" stroke-linejoin="bevel" points="1910.14,624.433 1910.14,547.983"/>
<polyline class="Stem" fill="none" stroke="#000000" stroke-width="3.25" stroke-linejoin="bevel" points="497.152,661.933 497.152,579.233"/>
<polyline class="Stem" fill="none" stroke="#000000" stroke-width="3.25" stroke-linejoin="bevel" points="944.819,624.433 944.819,547.983"/>
<polyline class="Stem" fill="none" stroke="#000000" stroke-width="3.25" stroke-linejoin="bevel" points="2190.21,636.933 2190.21,554.233"/>
<polyline class="Stem" fill="none" stroke="#000000" stroke-width="3.25" stroke-linejoin="bevel" points="372.065,674.433 372.065,591.733"/>
<polyline class="Stem" fill="none" stroke="#000000" stroke-width="3.25" stroke-linejoin="bevel" points="2357.8,649.433 2357.8,566.733"/>
<polyline class="Stem" fill="none" stroke="#000000" stroke-width="3.25" stroke-linejoin="bevel" points="2482.89,661.933 2482.89,579.233"/>
<polyline class="Stem" fill="none" stroke="#000000" stroke-width="3.25" stroke-linejoin="bevel" points="1473.5,596.633 1473.5,679.233"/>
<polyline class="Stem" fill="none" stroke="#000000" stroke-width="3.25" stroke-linejoin="bevel" points="664.743,649.433 664.743,566.733"/>
<polyline class="Stem" fill="none" stroke="#000000" stroke-width="3.25" stroke-linejoin="bevel" points="1069.91,624.433 1069.91,547.983"/>
<polyline class="Stem" fill="none" stroke="#000000" stroke-width="3.25" stroke-linejoin="bevel" points="1318.51,609.133 1318.51,685.483"/>
<polyline class="Stem" fill="none" stroke="#000000" stroke-width="3.25" stroke-linejoin="bevel" points="1193.43,621.633 1193.43,691.733"/>
<polyline class="Stem" fill="none" stroke="#000000" stroke-width="3.25" stroke-linejoin="bevel" points="789.83,636.933 789.83,554.233"/>
<path class="Note" d="M1604.39,614.873 C1606.27,614.873 1610.23,612.92 1616.26,609.014 C1622.28,605.108 1625.83,602.488 1626.9,601.155 C1627.98,599.821 1628.51,598.634 1628.51,597.592 C1628.51,596.55 1628.09,595.623 1627.24,594.811 C1626.39,593.998 1625.41,593.592 1624.31,593.592 C1622.36,593.592 1618.37,595.561 1612.35,599.498 C1606.32,603.436 1602.79,606.056 1601.75,607.358 C1600.71,608.66 1600.18,609.832 1600.18,610.873 C1600.18,611.915 1600.59,612.842 1601.41,613.655 C1602.23,614.467 1603.22,614.873 1604.39,614.873 M1623.34,590.467 C1628.93,590.467 1631.73,592.873 1631.73,597.686 C1631.73,600.03 1631.05,602.748 1629.68,605.842 C1628.32,608.936 1626.5,611.295 1624.22,612.92 C1619.21,616.306 1612.92,617.998 1605.37,617.998 C1599.77,617.998 1596.97,615.592 1596.97,610.78 C1596.97,608.634 1597.63,605.964 1598.97,602.772 C1600.3,599.579 1602.14,597.17 1604.48,595.545 C1609.5,592.16 1615.79,590.467 1623.34,590.467"/>
<path class="Note" d="M2621.88,684.701 C2624.75,688.545 2628.42,690.467 2632.91,690.467 C2637.4,690.467 2639.65,687.441 2639.65,681.389 C2639.65,678.514 2638.83,675.972 2637.21,673.764 C2634.41,669.92 2630.63,667.998 2625.88,667.998 C2623.8,667.998 2622.2,668.86 2621.1,670.584 C2620,672.308 2619.44,674.54 2619.44,677.28 C2619.44,680.019 2620.26,682.493 2621.88,684.701 M2612.21,669.467 C2617.09,666.8 2622.97,665.467 2629.84,665.467 C2636.71,665.467 2642.51,666.834 2647.22,669.569 C2651.94,672.303 2654.3,675.558 2654.3,679.334 C2654.3,683.11 2651.86,686.332 2646.97,688.998 C2642.09,691.665 2636.25,692.998 2629.44,692.998 C2622.64,692.998 2616.83,691.631 2612.01,688.897 C2607.2,686.162 2604.79,682.876 2604.79,679.037 C2604.79,675.199 2607.26,672.009 2612.21,669.467"/>
<path class="Note" d="M2457.22,677.373 C2459.1,677.373 2463.06,675.42 2469.09,671.514 C2475.11,667.608 2478.66,664.988 2479.73,663.655 C2480.81,662.321 2481.34,661.134 2481.34,660.092 C2481.34,659.05 2480.92,658.123 2480.07,657.311 C2479.22,656.498 2478.25,656.092 2477.14,656.092 C2475.19,656.092 2471.21,658.061 2465.18,661.998 C2459.15,665.936 2455.62,668.556 2454.58,669.858 C2453.54,671.16 2453.02,672.332 2453.02,673.373 C2453.02,674.415 2453.42,675.342 2454.24,676.155 C2455.06,676.967 2456.05,677.373 2457.22,677.373 M2476.17,652.967 C2481.77,652.967 2484.56,655.373 2484.56,660.186 C2484.56,662.53 2483.88,665.248 2482.52,668.342 C2481.15,671.436 2479.33,673.795 2477.05,675.42 C2472.04,678.806 2465.76,680.498 2458.2,680.498 C2452.6,680.498 2449.8,678.092 2449.8,673.28 C2449.8,671.134 2450.46,668.464 2451.8,665.272 C2453.13,662.079 2454.97,659.67 2457.31,658.045 C2462.33,654.66 2468.62,652.967 2476.17,652.967"/>
<path class="Note" d="M764.158,652.373 C766.043,652.373 769.999,650.42 776.025,646.514 C782.051,642.608 785.601,639.988 786.674,638.655 C787.746,637.321 788.283,636.134 788.283,635.092 C788.283,634.05 787.858,633.123 787.01,632.311 C786.161,631.498 785.184,631.092 784.08,631.092 C782.132,631.092 778.145,633.061 772.119,636.998 C766.093,640.936 762.559,643.556 761.517,644.858 C760.476,646.16 759.955,647.332 759.955,648.373 C759.955,649.415 760.364,650.342 761.181,651.155 C761.999,651.967 762.991,652.373 764.158,652.373 M783.111,627.967 C788.705,627.967 791.502,630.373 791.502,635.186 C791.502,637.53 790.819,640.248 789.455,643.342 C788.09,646.436 786.267,648.795 783.986,650.42 C778.976,653.806 772.694,655.498 765.142,655.498 C759.538,655.498 756.736,653.092 756.736,648.28 C756.736,646.134 757.403,643.464 758.736,640.272 C760.069,637.079 761.908,634.67 764.252,633.045 C769.273,629.66 775.559,627.967 783.111,627.967"/>
<path class="Note" d="M919.147,639.873 C921.033,639.873 924.989,637.92 931.015,634.014 C937.041,630.108 940.59,627.488 941.663,626.155 C942.736,624.821 943.272,623.634 943.272,622.592 C943.272,621.55 942.848,620.623 941.999,619.811 C941.15,618.998 940.173,618.592 939.069,618.592 C937.121,618.592 933.134,620.561 927.108,624.498 C921.082,628.436 917.548,631.056 916.507,632.358 C915.465,633.66 914.944,634.832 914.944,635.873 C914.944,636.915 915.353,637.842 916.171,638.655 C916.989,639.467 917.981,639.873 919.147,639.873 M938.101,615.467 C943.694,615.467 946.491,617.873 946.491,622.686 C946.491,625.03 945.809,627.748 944.444,630.842 C943.08,633.936 941.257,636.295 938.976,637.92 C933.965,641.306 927.684,642.998 920.132,642.998 C914.528,642.998 911.726,640.592 911.726,635.78 C911.726,633.634 912.392,630.964 913.726,627.772 C915.059,624.579 916.897,622.17 919.241,620.545 C924.262,617.16 930.548,615.467 938.101,615.467"/>
<path class="Note" d="M2332.13,664.873 C2334.02,664.873 2337.97,662.92 2344,659.014 C2350.03,655.108 2353.57,652.488 2354.65,651.155 C2355.72,649.821 2356.26,648.634 2356.26,647.592 C2356.26,646.55 2355.83,645.623 2354.98,644.811 C2354.13,643.998 2353.16,643.592 2352.05,643.592 C2350.11,643.592 2346.12,645.561 2340.09,649.498 C2334.07,653.436 2330.53,656.056 2329.49,657.358 C2328.45,658.66 2327.93,659.832 2327.93,660.873 C2327.93,661.915 2328.34,662.842 2329.16,663.655 C2329.97,664.467 2330.97,664.873 2332.13,664.873 M2351.09,640.467 C2356.68,640.467 2359.48,642.873 2359.48,647.686 C2359.48,650.03 2358.79,652.748 2357.43,655.842 C2356.06,658.936 2354.24,661.295 2351.96,662.92 C2346.95,666.306 2340.67,667.998 2333.12,667.998 C2327.51,667.998 2324.71,665.592 2324.71,660.78 C2324.71,658.634 2325.38,655.964 2326.71,652.772 C2328.04,649.579 2329.88,647.17 2332.23,645.545 C2337.25,642.16 2343.53,640.467 2351.09,640.467"/>
<path class="Note" d="M1044.23,639.873 C1046.12,639.873 1050.08,637.92 1056.1,634.014 C1062.13,630.108 1065.68,627.488 1066.75,626.155 C1067.82,624.821 1068.36,623.634 1068.36,622.592 C1068.36,621.55 1067.94,620.623 1067.09,619.811 C1066.24,618.998 1065.26,618.592 1064.16,618.592 C1062.21,618.592 1058.22,620.561 1052.2,624.498 C1046.17,628.436 1042.64,631.056 1041.59,632.358 C1040.55,633.66 1040.03,634.832 1040.03,635.873 C1040.03,636.915 1040.44,637.842 1041.26,638.655 C1042.08,639.467 1043.07,639.873 1044.23,639.873 M1063.19,615.467 C1068.78,615.467 1071.58,617.873 1071.58,622.686 C1071.58,625.03 1070.9,627.748 1069.53,630.842 C1068.17,633.936 1066.34,636.295 1064.06,637.92 C1059.05,641.306 1052.77,642.998 1045.22,642.998 C1039.61,642.998 1036.81,640.592 1036.81,635.78 C1036.81,633.634 1037.48,630.964 1038.81,627.772 C1040.15,624.579 1041.98,622.17 1044.33,620.545 C1049.35,617.16 1055.64,615.467 1063.19,615.467"/>
<path class="Note" d="M2164.54,652.373 C2166.43,652.373 2170.38,650.42 2176.41,646.514 C2182.43,642.608 2185.98,639.988 2187.06,638.655 C2188.13,637.321 2188.67,636.134 2188.67,635.092 C2188.67,634.05 2188.24,633.123 2187.39,632.311 C2186.54,631.498 2185.57,631.092 2184.46,631.092 C2182.52,631.092 2178.53,633.061 2172.5,636.998 C2166.48,640.936 2162.94,643.556 2161.9,644.858 C2160.86,646.16 2160.34,647.332 2160.34,648.373 C2160.34,649.415 2160.75,650.342 2161.56,651.155 C2162.38,651.967 2163.37,652.373 2164.54,652.373 M2183.49,627.967 C2189.09,627.967 2191.88,630.373 2191.88,635.186 C2191.88,637.53 2191.2,640.248 2189.84,643.342 C2188.47,646.436 2186.65,648.795 2184.37,650.42 C2179.36,653.806 2173.08,655.498 2165.53,655.498 C2159.92,655.498 2157.12,653.092 2157.12,648.28 C2157.12,646.134 2157.79,643.464 2159.12,640.272 C2160.45,637.079 2162.29,634.67 2164.63,633.045 C2169.66,629.66 2175.94,627.967 2183.49,627.967"/>
<path class="Note" d="M2039.45,639.873 C2041.34,639.873 2045.3,637.92 2051.32,634.014 C2057.35,630.108 2060.9,627.488 2061.97,626.155 C2063.04,624.821 2063.58,623.634 2063.58,622.592 C2063.58,621.55 2063.15,620.623 2062.31,619.811 C2061.46,618.998 2060.48,618.592 2059.38,618.592 C2057.43,618.592 2053.44,620.561 2047.41,624.498 C2041.39,628.436 2037.85,631.056 2036.81,632.358 C2035.77,633.66 2035.25,634.832 2035.25,635.873 C2035.25,636.915 2035.66,637.842 2036.48,638.655 C2037.3,639.467 2038.29,639.873 2039.45,639.873 M2058.41,615.467 C2064,615.467 2066.8,617.873 2066.8,622.686 C2066.8,625.03 2066.12,627.748 2064.75,630.842 C2063.39,633.936 2061.56,636.295 2059.28,637.92 C2054.27,641.306 2047.99,642.998 2040.44,642.998 C2034.83,642.998 2032.03,640.592 2032.03,635.78 C2032.03,633.634 2032.7,630.964 2034.03,627.772 C2035.37,624.579 2037.2,622.17 2039.55,620.545 C2044.57,617.16 2050.85,615.467 2058.41,615.467"/>
<path class="Note" d="M346.393,689.873 C348.278,689.873 352.234,687.92 358.26,684.014 C364.286,680.108 367.835,677.488 368.908,676.155 C369.981,674.821 370.518,673.634 370.518,672.592 C370.518,671.55 370.093,670.623 369.244,669.811 C368.395,668.998 367.419,668.592 366.315,668.592 C364.367,668.592 360.38,670.561 354.354,674.498 C348.328,678.436 344.794,681.056 343.752,682.358 C342.71,683.66 342.19,684.832 342.19,685.873 C342.19,686.915 342.598,687.842 343.416,688.655 C344.234,689.467 345.226,689.873 346.393,689.873 M365.346,665.467 C370.94,665.467 373.736,667.873 373.736,672.686 C373.736,675.03 373.054,677.748 371.69,680.842 C370.325,683.936 368.502,686.295 366.221,687.92 C361.21,691.306 354.929,692.998 347.377,692.998 C341.773,692.998 338.971,690.592 338.971,685.78 C338.971,683.634 339.637,680.964 340.971,677.772 C342.304,674.579 344.143,672.17 346.486,670.545 C351.507,667.16 357.794,665.467 365.346,665.467"/>
<path class="Note" d="M1199.22,627.373 C1201.11,627.373 1205.07,625.42 1211.09,621.514 C1217.12,617.608 1220.67,614.988 1221.74,613.655 C1222.81,612.321 1223.35,611.134 1223.35,610.092 C1223.35,609.05 1222.92,608.123 1222.08,607.311 C1221.23,606.498 1220.25,606.092 1219.15,606.092 C1217.2,606.092 1213.21,608.061 1207.19,611.998 C1201.16,615.936 1197.63,618.556 1196.58,619.858 C1195.54,621.16 1195.02,622.332 1195.02,623.373 C1195.02,624.415 1195.43,625.342 1196.25,626.155 C1197.07,626.967 1198.06,627.373 1199.22,627.373 M1218.18,602.967 C1223.77,602.967 1226.57,605.373 1226.57,610.186 C1226.57,612.53 1225.89,615.248 1224.52,618.342 C1223.16,621.436 1221.33,623.795 1219.05,625.42 C1214.04,628.806 1207.76,630.498 1200.21,630.498 C1194.6,630.498 1191.8,628.092 1191.8,623.28 C1191.8,621.134 1192.47,618.464 1193.8,615.272 C1195.14,612.079 1196.97,609.67 1199.32,608.045 C1204.34,604.66 1210.63,602.967 1218.18,602.967"/>
<path class="Note" d="M1884.46,639.873 C1886.35,639.873 1890.31,637.92 1896.33,634.014 C1902.36,630.108 1905.91,627.488 1906.98,626.155 C1908.05,624.821 1908.59,623.634 1908.59,622.592 C1908.59,621.55 1908.16,620.623 1907.32,619.811 C1906.47,618.998 1905.49,618.592 1904.39,618.592 C1902.44,618.592 1898.45,620.561 1892.43,624.498 C1886.4,628.436 1882.87,631.056 1881.82,632.358 C1880.78,633.66 1880.26,634.832 1880.26,635.873 C1880.26,636.915 1880.67,637.842 1881.49,638.655 C1882.31,639.467 1883.3,639.873 1884.46,639.873 M1903.42,615.467 C1909.01,615.467 1911.81,617.873 1911.81,622.686 C1911.81,625.03 1911.13,627.748 1909.76,630.842 C1908.4,633.936 1906.57,636.295 1904.29,637.92 C1899.28,641.306 1893,642.998 1885.45,642.998 C1879.84,642.998 1877.04,640.592 1877.04,635.78 C1877.04,633.634 1877.71,630.964 1879.04,627.772 C1880.38,624.579 1882.21,622.17 1884.56,620.545 C1889.58,617.16 1895.87,615.467 1903.42,615.467"/>
<path class="Note" d="M1324.31,614.873 C1326.2,614.873 1330.15,612.92 1336.18,609.014 C1342.2,605.108 1345.75,602.488 1346.83,601.155 C1347.9,599.821 1348.44,598.634 1348.44,597.592 C1348.44,596.55 1348.01,595.623 1347.16,594.811 C1346.31,593.998 1345.34,593.592 1344.23,593.592 C1342.29,593.592 1338.3,595.561 1332.27,599.498 C1326.25,603.436 1322.71,606.056 1321.67,607.358 C1320.63,608.66 1320.11,609.832 1320.11,610.873 C1320.11,611.915 1320.52,612.842 1321.33,613.655 C1322.15,614.467 1323.14,614.873 1324.31,614.873 M1343.26,590.467 C1348.86,590.467 1351.65,592.873 1351.65,597.686 C1351.65,600.03 1350.97,602.748 1349.61,605.842 C1348.24,608.936 1346.42,611.295 1344.14,612.92 C1339.13,616.306 1332.85,617.998 1325.3,617.998 C1319.69,617.998 1316.89,615.592 1316.89,610.78 C1316.89,608.634 1317.56,605.964 1318.89,602.772 C1320.22,599.579 1322.06,597.17 1324.4,595.545 C1329.43,592.16 1335.71,590.467 1343.26,590.467"/>
<path class="Note" d="M1759.38,627.373 C1761.26,627.373 1765.22,625.42 1771.24,621.514 C1777.27,617.608 1780.82,614.988 1781.89,613.655 C1782.97,612.321 1783.5,611.134 1783.5,610.092 C1783.5,609.05 1783.08,608.123 1782.23,607.311 C1781.38,606.498 1780.4,606.092 1779.3,606.092 C1777.35,606.092 1773.36,608.061 1767.34,611.998 C1761.31,615.936 1757.78,618.556 1756.74,619.858 C1755.7,621.16 1755.17,622.332 1755.17,623.373 C1755.17,624.415 1755.58,625.342 1756.4,626.155 C1757.22,626.967 1758.21,627.373 1759.38,627.373 M1778.33,602.967 C1783.92,602.967 1786.72,605.373 1786.72,610.186 C1786.72,612.53 1786.04,615.248 1784.67,618.342 C1783.31,621.436 1781.49,623.795 1779.21,625.42 C1774.2,628.806 1767.91,630.498 1760.36,630.498 C1754.76,630.498 1751.96,628.092 1751.96,623.28 C1751.96,621.134 1752.62,618.464 1753.96,615.272 C1755.29,612.079 1757.13,609.67 1759.47,608.045 C1764.49,604.66 1770.78,602.967 1778.33,602.967"/>
<path class="Note" d="M639.071,664.873 C640.956,664.873 644.912,662.92 650.938,659.014 C656.964,655.108 660.514,652.488 661.586,651.155 C662.659,649.821 663.196,648.634 663.196,647.592 C663.196,646.55 662.771,645.623 661.922,644.811 C661.073,643.998 660.097,643.592 658.993,643.592 C657.045,643.592 653.058,645.561 647.032,649.498 C641.006,653.436 637.472,656.056 636.43,657.358 C635.389,658.66 634.868,659.832 634.868,660.873 C634.868,661.915 635.277,662.842 636.094,663.655 C636.912,664.467 637.904,664.873 639.071,664.873 M658.024,640.467 C663.618,640.467 666.415,642.873 666.415,647.686 C666.415,650.03 665.732,652.748 664.368,655.842 C663.003,658.936 661.18,661.295 658.899,662.92 C653.889,666.306 647.607,667.998 640.055,667.998 C634.451,667.998 631.649,665.592 631.649,660.78 C631.649,658.634 632.316,655.964 633.649,652.772 C634.982,649.579 636.821,647.17 639.165,645.545 C644.185,642.16 650.472,640.467 658.024,640.467"/>
<path class="Note" d="M471.48,677.373 C473.365,677.373 477.321,675.42 483.347,671.514 C489.373,667.608 492.922,664.988 493.995,663.655 C495.068,662.321 495.605,661.134 495.605,660.092 C495.605,659.05 495.18,658.123 494.331,657.311 C493.482,656.498 492.506,656.092 491.402,656.092 C489.454,656.092 485.467,658.061 479.441,661.998 C473.415,665.936 469.881,668.556 468.839,669.858 C467.797,671.16 467.277,672.332 467.277,673.373 C467.277,674.415 467.685,675.342 468.503,676.155 C469.321,676.967 470.313,677.373 471.48,677.373 M490.433,652.967 C496.027,652.967 498.824,655.373 498.824,660.186 C498.824,662.53 498.141,665.248 496.777,668.342 C495.412,671.436 493.589,673.795 491.308,675.42 C486.297,678.806 480.016,680.498 472.464,680.498 C466.86,680.498 464.058,678.092 464.058,673.28 C464.058,671.134 464.725,668.464 466.058,665.272 C467.391,662.079 469.23,659.67 471.574,658.045 C476.594,654.66 482.881,652.967 490.433,652.967"/>
<path class="Note" d="M1479.3,602.373 C1481.19,602.373 1485.14,600.42 1491.17,596.514 C1497.19,592.608 1500.74,589.988 1501.82,588.655 C1502.89,587.321 1503.43,586.134 1503.43,585.092 C1503.43,584.05 1503,583.123 1502.15,582.311 C1501.3,581.498 1500.33,581.092 1499.22,581.092 C1497.27,581.092 1493.29,583.061 1487.26,586.998 C1481.24,590.936 1477.7,593.556 1476.66,594.858 C1475.62,596.16 1475.1,597.332 1475.1,598.373 C1475.1,599.415 1475.51,600.342 1476.32,601.155 C1477.14,601.967 1478.13,602.373 1479.3,602.373 M1498.25,577.967 C1503.85,577.967 1506.64,580.373 1506.64,585.186 C1506.64,587.53 1505.96,590.248 1504.6,593.342 C1503.23,596.436 1501.41,598.795 1499.13,600.42 C1494.12,603.806 1487.84,605.498 1480.29,605.498 C1474.68,605.498 1471.88,603.092 1471.88,598.28 C1471.88,596.134 1472.55,593.464 1473.88,590.272 C1475.21,587.079 1477.05,584.67 1479.39,583.045 C1484.42,579.66 1490.7,577.967 1498.25,577.967"/>
<path class="Clef" d="M203.623,673.858 L203.623,671.717 C203.56,670.613 203.399,668.889 203.139,666.545 C199.889,667.066 196.993,667.326 194.451,667.326 C185.337,667.326 177.605,663.727 171.256,656.53 C164.907,649.332 161.732,640.754 161.732,630.795 C161.732,628.129 162.253,624.923 163.295,621.178 C164.337,617.433 165.297,614.925 166.178,613.655 C167.058,612.384 168.378,610.155 170.139,606.967 C170.659,605.988 172.352,603.837 175.217,600.514 C175.738,599.806 176.193,599.222 176.584,598.764 C176.975,598.306 177.607,597.49 178.482,596.319 C179.357,595.147 180.3,594.056 181.31,593.045 C182.321,592.035 183.217,591.058 183.998,590.115 C184.779,589.173 185.498,588.379 186.154,587.733 C183.81,579.983 182.378,574.024 181.857,569.858 C181.337,565.691 181.076,560.579 181.076,554.522 C181.076,548.464 182.378,542.962 184.982,538.014 C187.514,532.879 191.06,528.681 195.623,525.42 C195.883,525.222 196.225,525.123 196.646,525.123 C197.068,525.123 197.378,525.222 197.576,525.42 C201.087,529.649 204.128,535.149 206.701,541.92 C209.274,548.691 210.56,555.024 210.56,560.92 C210.56,566.816 209.066,572.498 206.076,577.967 C202.691,583.759 198.326,589.748 192.982,595.936 C194.347,600.227 196.17,606.962 198.451,616.139 L199.045,616.139 C199.305,616.076 199.529,616.045 199.717,616.045 C207.081,616.045 213.089,618.634 217.74,623.811 C222.391,628.988 224.717,634.962 224.717,641.733 C224.717,650.129 221.238,656.899 214.279,662.045 C212.258,663.545 209.878,664.717 207.139,665.561 C207.472,669.79 207.639,672.605 207.639,674.006 C207.639,675.407 207.571,677.899 207.435,681.483 C207.373,687.597 205.29,692.837 201.185,697.201 C197.081,701.566 192.394,703.748 187.123,703.748 C181.852,703.748 177.36,701.876 173.646,698.131 C169.933,694.386 168.076,689.847 168.076,684.514 C168.076,681.712 169.154,679.332 171.31,677.373 C173.519,675.425 176.006,674.451 178.771,674.451 C181.537,674.451 183.8,675.462 185.56,677.483 C187.383,679.368 188.295,681.644 188.295,684.311 C188.295,686.977 187.383,689.222 185.56,691.045 C183.738,692.868 181.555,693.78 179.014,693.78 C177.972,693.78 176.967,693.587 175.998,693.201 C178.863,697.431 182.54,699.545 187.029,699.545 C191.519,699.545 195.36,697.691 198.553,693.983 C201.745,690.274 203.342,685.91 203.342,680.889 L203.623,673.858 M206.748,661.561 C210.133,660.321 212.821,658.123 214.81,654.967 C216.8,651.811 217.795,648.67 217.795,645.545 C217.795,640.92 216.199,636.785 213.006,633.139 C209.813,629.493 205.774,627.441 200.889,626.983 C203.691,640.722 205.644,652.248 206.748,661.561 M168.967,638.998 C168.967,645.446 171.537,651.079 176.678,655.897 C181.818,660.714 187.842,663.123 194.748,663.123 C197.477,663.123 200.144,662.925 202.748,662.53 C201.706,652.634 199.654,640.785 196.592,626.983 C192.758,627.379 189.782,628.699 187.662,630.944 C185.542,633.188 184.482,635.743 184.482,638.608 C184.482,643.556 187.123,647.561 192.404,650.623 C192.852,650.884 193.076,651.324 193.076,651.944 C193.076,652.563 192.865,653.1 192.443,653.553 C192.021,654.006 191.649,654.233 191.326,654.233 C191.003,654.233 190.581,654.17 190.06,654.045 C182.435,649.879 178.623,643.592 178.623,635.186 C178.623,631.217 180.024,627.41 182.826,623.764 C185.753,620.118 189.56,617.774 194.248,616.733 C192.425,609.441 190.93,603.743 189.764,599.639 C180.847,609.67 175.31,617.092 173.154,621.905 C170.363,628.155 168.967,633.852 168.967,638.998 M201.576,539.686 C196.691,542.092 192.834,545.574 190.006,550.131 C187.178,554.688 185.764,559.472 185.764,564.483 C185.764,569.493 186.935,575.972 189.279,583.92 C193.967,578.254 197.514,572.946 199.92,567.998 C202.326,563.05 203.529,558.152 203.529,553.303 C203.529,548.454 202.878,543.915 201.576,539.686"/>
<path class="TimeSig" d="M273.021,567.912 C274.516,567.912 275.949,567.686 277.318,567.233 C278.688,566.78 279.665,566.553 280.248,566.553 C280.831,566.553 281.222,566.907 281.42,567.615 C281.42,567.688 281.352,567.886 281.217,568.209 L252.811,601.225 L269.498,601.225 L269.498,588.131 C269.498,586.506 270.446,585.334 272.342,584.615 C274.29,583.897 276.503,581.001 278.982,575.928 C279.17,575.532 279.462,575.334 279.857,575.334 C280.639,575.334 281.092,575.793 281.217,576.709 L281.217,601.225 L288.357,601.225 C289.264,601.225 289.751,601.712 289.818,602.686 C289.886,603.66 289.399,604.147 288.357,604.147 L281.217,604.147 L281.217,604.928 C281.217,607.532 281.868,609.746 283.17,611.569 C284.67,613.391 286.43,614.303 288.451,614.303 C289.232,614.303 289.623,614.694 289.623,615.475 C289.623,616.256 289.087,616.647 288.014,616.647 C286.941,616.647 284.938,616.436 282.006,616.014 C279.074,615.592 276.811,615.381 275.217,615.381 C273.623,615.381 271.41,615.592 268.576,616.014 C265.743,616.436 263.613,616.647 262.186,616.647 C261.404,616.647 261.014,616.256 261.014,615.475 C261.014,614.694 261.404,614.303 262.186,614.303 C264.196,614.303 265.951,613.391 267.451,611.569 C268.816,609.683 269.498,607.47 269.498,604.928 L269.498,604.147 L252.811,604.147 C251.956,604.147 251.219,603.92 250.6,603.467 C249.98,603.014 249.67,602.592 249.67,602.201 C249.67,601.811 250.485,600.639 252.115,598.686 C253.745,596.733 256.074,592.972 259.1,587.405 C262.126,581.837 263.639,575.438 263.639,568.209 C263.639,567.168 264.097,566.647 265.014,566.647 C265.212,566.647 265.521,566.712 265.943,566.842 C266.365,566.972 267.277,567.183 268.678,567.475 C270.079,567.766 271.527,567.912 273.021,567.912"/>
<path class="TimeSig" d="M273.021,618.084 C274.516,618.084 275.949,617.858 277.318,617.405 C278.688,616.951 279.665,616.725 280.248,616.725 C280.831,616.725 281.222,617.079 281.42,617.787 C281.42,617.86 281.352,618.058 281.217,618.381 L252.811,651.397 L269.498,651.397 L269.498,638.303 C269.498,636.678 270.446,635.506 272.342,634.787 C274.29,634.069 276.503,631.173 278.982,626.1 C279.17,625.704 279.462,625.506 279.857,625.506 C280.639,625.506 281.092,625.964 281.217,626.881 L281.217,651.397 L288.357,651.397 C289.264,651.397 289.751,651.884 289.818,652.858 C289.886,653.832 289.399,654.319 288.357,654.319 L281.217,654.319 L281.217,655.1 C281.217,657.704 281.868,659.918 283.17,661.74 C284.67,663.563 286.43,664.475 288.451,664.475 C289.232,664.475 289.623,664.865 289.623,665.647 C289.623,666.428 289.087,666.819 288.014,666.819 C286.941,666.819 284.938,666.608 282.006,666.186 C279.074,665.764 276.811,665.553 275.217,665.553 C273.623,665.553 271.41,665.764 268.576,666.186 C265.743,666.608 263.613,666.819 262.186,666.819 C261.404,666.819 261.014,666.428 261.014,665.647 C261.014,664.865 261.404,664.475 262.186,664.475 C264.196,664.475 265.951,663.563 267.451,661.74 C268.816,659.855 269.498,657.642 269.498,655.1 L269.498,654.319 L252.811,654.319 C251.956,654.319 251.219,654.092 250.6,653.639 C249.98,653.186 249.67,652.764 249.67,652.373 C249.67,651.983 250.485,650.811 252.115,648.858 C253.745,646.905 256.074,643.144 259.1,637.576 C262.126,632.009 263.639,625.61 263.639,618.381 C263.639,617.339 264.097,616.819 265.014,616.819 C265.212,616.819 265.521,616.884 265.943,617.014 C266.365,617.144 267.277,617.355 268.678,617.647 C270.079,617.938 271.527,618.084 273.021,618.084"/>
</svg>
