<?xml version="1.0" encoding="UTF-8" standalone="no"?>
<svg width="2977.2px" height="4208.4px" viewBox="0 0 2977.2 4208.4"
 xmlns="http://www.w3.org/2000/svg" xmlns:xlink="http://www.w3.org/1999/xlink" version="1.2" baseProfile="tiny">
<title>Happy_Birthday.mscx</title>
<desc>Generated by MuseScore Studio 4.3.1</desc>
<path class="" fill="#ffffff" fill-rule="evenodd" d="M0,0 L2977.2,0 L2977.2,4208.4 L0,4208.4 L0,0 "/>
<polyline class="StaffLines" fill="none" stroke="#000000" stroke-width="2.00" stroke-linejoin="bevel" points="141.732,566.733 2835.47,566.733"/>
<polyline class="StaffLines" fill="none" stroke="#000000" stroke-width="2.00" stroke-linejoin="bevel" points="141.732,591.733 2835.47,591.733"/>
<polyline class="StaffLines" fill="none" stroke="#000000" stroke-width="2.00" stroke-linejoin="bevel" points="141.732,616.733 2835.47,616.733"/>
<polyline class="StaffLines" fill="none" stroke="#000000" stroke-width="2.00" stroke-linejoin="bevel" points="141.732,641.733 2835.47,641.733"/>
<polyline class="StaffLines" fill="none" stroke="#000000" stroke-width="2.00" stroke-linejoin="bevel" points="141.732,666.733 2835.47,666.733"/>
<polyline class="StaffLines" fill="none" stroke="#000000" stroke-width="2.00" stroke-linejoin="bevel" points="141.732,1041.73 2835.47,1041.73"/>
<polyline class="StaffLines" fill="none" stroke="#000000" stroke-width="2.00" stroke-linejoin="bevel" points="141.732,1066.73 2835.47,1066.73"/>
<polyline class="StaffLines" fill="none" stroke="#000000" stroke-width="2.00" stroke-linejoin="bevel" points="141.732,1091.73 2835.47,1091.73"/>
<polyline class="StaffLines" fill="none" stroke="#000000" stroke-width="2.00" stroke-linejoin="bevel" points="141.732,1116.73 2835.47,1116.73"/>
<polyline class="StaffLines" fill="none" stroke="#000000" stroke-width="2.00" stroke-linejoin="bevel" points="141.732,1141.73 2835.47,1141.73"/>
<polyline class="StaffLines" fill="none" stroke="#000000" stroke-width="2.00" stroke-linejoin="bevel" points="141.732,1516.73 422.147,1516.73"/>
<polyline class="StaffLines" fill="none" stroke="#000000" stroke-width="2.00" stroke-linejoin="bevel" points="141.732,1541.73 422.147,1541.73"/>
<polyline class="StaffLines" fill="none" stroke="#000000" stroke-width="2.00" stroke-linejoin="bevel" points="141.732,1566.73 422.147,1566.73"/>
<polyline class="StaffLines" fill="none" stroke="#000000" stroke-width="2.00" stroke-linejoin="bevel" points="141.732,1591.73 422.147,1591.73"/>
<polyline class="StaffLines" fill="none" stroke="#000000" stroke-width="2.00" stroke-linejoin="bevel" points="141.732,1616.73 422.147,1616.73"/>
<path class="MeasureNumber" d="M127.045,1443.01 C126.566,1443.01 125.607,1443.31 124.17,1443.89 L124.17,1443.34 L131.373,1439.7 L131.685,1439.78 L131.685,1463.78 C131.685,1464.74 131.925,1465.36 132.404,1465.66 C132.883,1465.95 133.909,1466.11 135.482,1466.14 L135.482,1466.73 L124.451,1466.73 L124.451,1466.14 C125.941,1466.08 126.946,1465.85 127.467,1465.47 C127.988,1465.08 128.248,1464.26 128.248,1463.01 L128.248,1444.89 C128.248,1443.64 127.847,1443.01 127.045,1443.01 M156.271,1463.45 C154.62,1466.01 152.435,1467.3 149.717,1467.3 C146.998,1467.3 144.81,1465.99 143.154,1463.37 C141.498,1460.76 140.67,1457.4 140.67,1453.3 C140.67,1449.43 141.498,1446.2 143.154,1443.6 C144.81,1441 147.05,1439.7 149.873,1439.7 C152.488,1439.7 154.62,1440.98 156.271,1443.54 C157.922,1446.1 158.748,1449.43 158.748,1453.53 C158.748,1457.58 157.922,1460.89 156.271,1463.45 M149.748,1440.73 C146.258,1440.73 144.514,1445.04 144.514,1453.66 C144.514,1462.05 146.248,1466.25 149.717,1466.25 C153.185,1466.25 154.92,1462.04 154.92,1453.61 C154.92,1449.43 154.48,1446.24 153.6,1444.04 C152.719,1441.83 151.435,1440.73 149.748,1440.73"/>
<path class="MeasureNumber" d="M142.045,992.295 C139.357,992.295 137.193,991.22 135.553,989.069 C133.912,986.918 133.092,984.077 133.092,980.545 C133.092,979.462 133.199,978.34 133.412,977.178 C133.626,976.017 134.092,974.699 134.81,973.225 C135.529,971.751 136.462,970.428 137.607,969.256 C138.753,968.084 140.36,967.038 142.428,966.116 C144.495,965.194 146.878,964.613 149.576,964.374 L149.654,965.014 C146.508,965.525 143.881,966.801 141.771,968.842 C139.662,970.884 138.342,973.41 137.81,976.42 C139.06,975.702 140.006,975.235 140.646,975.022 C141.287,974.808 142.05,974.702 142.935,974.702 C145.227,974.702 147.053,975.444 148.412,976.928 C149.771,978.413 150.451,980.415 150.451,982.936 C150.451,985.696 149.67,987.946 148.107,989.686 C146.545,991.426 144.524,992.295 142.045,992.295 M141.404,976.452 C139.592,976.452 138.373,976.85 137.748,977.647 C137.123,978.444 136.81,979.624 136.81,981.186 C136.81,984.259 137.318,986.678 138.334,988.444 C139.35,990.209 140.738,991.092 142.498,991.092 C143.904,991.092 144.982,990.501 145.732,989.319 C146.482,988.137 146.857,986.462 146.857,984.295 C146.857,981.795 146.383,979.863 145.435,978.499 C144.488,977.134 143.144,976.452 141.404,976.452"/>
<polyline class="BarLine" fill="none" stroke="#000000" stroke-width="4.00" stroke-linejoin="bevel" points="2285.47,565.733 2285.47,667.733"/>
<polyline class="BarLine" fill="none" stroke="#000000" stroke-width="4.00" stroke-linejoin="bevel" points="1515.34,1040.73 1515.34,1142.73"/>
<polyline class="BarLine" fill="none" stroke="#000000" stroke-width="4.00" stroke-linejoin="bevel" points="1151.3,565.733 1151.3,667.733"/>
<polyline class="BarLine" fill="none" stroke="#000000" stroke-width="4.00" stroke-linejoin="bevel" points="2151.5,1040.73 2151.5,1142.73"/>
<polyline class="BarLine" fill="none" stroke="#000000" stroke-width="4.00" stroke-linejoin="bevel" points="942.199,1040.73 942.199,1142.73"/>
<polyline class="BarLine" fill="none" stroke="#000000" stroke-width="4.00" stroke-linejoin="bevel" points="565.127,565.733 565.127,667.733"/>
<polyline class="BarLine" fill="none" stroke="#000000" stroke-width="4.00" stroke-linejoin="bevel" points="1699.3,565.733 1699.3,667.733"/>
<polyline class="BarLine" fill="none" stroke="#000000" stroke-width="4.00" stroke-linejoin="bevel" points="2833.47,1040.73 2833.47,1142.73"/>
<polyline class="BarLine" fill="none" stroke="#000000" stroke-width="4.00" stroke-linejoin="bevel" points="2833.47,565.733 2833.47,667.733"/>
<polyline class="BarLine" fill="none" stroke="#000000" stroke-width="4.00" stroke-linejoin="bevel" points="389.397,1515.73 389.397,1617.73"/>
<polyline class="BarLine" fill="none" stroke="#000000" stroke-width="12.50" stroke-linejoin="bevel" points="415.897,1515.73 415.897,1617.73"/>
<polyline class="Stem" fill="none" stroke="#000000" stroke-width="3.25" stroke-linejoin="bevel" points="2054.39,1047.6 2054.39,1116.73"/>
<polyline class="Stem" fill="none" stroke="#000000" stroke-width="3.25" stroke-linejoin="bevel" points="970.824,1097.6 970.824,1166.73"/>
<polyline class="Stem" fill="none" stroke="#000000" stroke-width="3.25" stroke-linejoin="bevel" points="724.169,1085.1 724.169,1160.48"/>
<polyline class="Stem" fill="none" stroke="#000000" stroke-width="3.25" stroke-linejoin="bevel" points="506.513,1060.1 506.513,1141.73"/>
<polyline class="Stem" fill="none" stroke="#000000" stroke-width="3.25" stroke-linejoin="bevel" points="288.857,1035.1 288.857,1116.73"/>
<polyline class="Stem" fill="none" stroke="#000000" stroke-width="3.25" stroke-linejoin="bevel" points="1870.45,1047.6 1870.45,1116.73"/>
<polyline class="Stem" fill="none" stroke="#000000" stroke-width="3.25" stroke-linejoin="bevel" points="2180.13,1060.1 2180.13,1141.73"/>
<polyline class="Stem" fill="none" stroke="#000000" stroke-width="3.25" stroke-linejoin="bevel" points="2397.78,1085.1 2397.78,1160.48"/>
<polyline class="Stem" fill="none" stroke="#000000" stroke-width="3.25" stroke-linejoin="bevel" points="2615.44,1072.6 2615.44,1154.23"/>
<polyline class="Stem" fill="none" stroke="#000000" stroke-width="3.25" stroke-linejoin="bevel" points="1219.05,1099.43 1219.05,1022.98"/>
<polyline class="Stem" fill="none" stroke="#000000" stroke-width="3.25" stroke-linejoin="bevel" points="2623.25,635.863 2623.25,566.733"/>
<polyline class="Stem" fill="none" stroke="#000000" stroke-width="3.25" stroke-linejoin="bevel" points="2314.1,609.133 2314.1,685.483"/>
<polyline class="Stem" fill="none" stroke="#000000" stroke-width="3.25" stroke-linejoin="bevel" points="287.955,1559.13 287.955,1635.48"/>
<polyline class="Stem" fill="none" stroke="#000000" stroke-width="3.25" stroke-linejoin="bevel" points="2780.21,635.863 2780.21,566.733"/>
<polyline class="Stem" fill="none" stroke="#000000" stroke-width="3.25" stroke-linejoin="bevel" points="1757.59,623.363 1757.59,547.983"/>
<polyline class="Stem" fill="none" stroke="#000000" stroke-width="3.25" stroke-linejoin="bevel" points="1179.93,621.633 1179.93,691.733"/>
<polyline class="Stem" fill="none" stroke="#000000" stroke-width="3.25" stroke-linejoin="bevel" points="1489.08,635.863 1489.08,566.733"/>
<polyline class="Stem" fill="none" stroke="#000000" stroke-width="3.25" stroke-linejoin="bevel" points="965.203,610.102 965.203,685.483"/>
<polyline class="Stem" fill="none" stroke="#000000" stroke-width="3.25" stroke-linejoin="bevel" points="809.142,635.863 809.142,554.233"/>
<polyline class="Stem" fill="none" stroke="#000000" stroke-width="3.25" stroke-linejoin="bevel" points="1646.04,635.863 1646.04,566.733"/>
<polyline class="Stem" fill="none" stroke="#000000" stroke-width="3.25" stroke-linejoin="bevel" points="623.416,623.363 623.416,547.983"/>
<polyline class="Stem" fill="none" stroke="#000000" stroke-width="3.25" stroke-linejoin="bevel" points="511.871,635.863 511.871,566.733"/>
<polyline class="Stem" fill="none" stroke="#000000" stroke-width="3.25" stroke-linejoin="bevel" points="2099.37,597.602 2099.37,679.233"/>
<polyline class="Stem" fill="none" stroke="#000000" stroke-width="3.25" stroke-linejoin="bevel" points="354.912,635.863 354.912,566.733"/>
<polyline class="Stem" fill="none" stroke="#000000" stroke-width="3.25" stroke-linejoin="bevel" points="1943.31,635.863 1943.31,554.233"/>
<path class="Note" d="M1890.79,1027.97 C1893.92,1027.97 1896.52,1028.75 1898.6,1030.31 C1900.69,1031.87 1901.73,1034.12 1901.73,1037.05 C1901.73,1041.54 1899.4,1045.73 1894.75,1049.64 C1890.1,1053.55 1885.1,1055.5 1879.76,1055.5 C1876.63,1055.5 1874,1054.69 1871.85,1053.06 C1869.83,1051.3 1868.82,1049.09 1868.82,1046.42 C1868.82,1042.06 1871.13,1037.89 1875.76,1033.92 C1880.38,1029.95 1885.39,1027.97 1890.79,1027.97"/>
<path class="Note" d="M293.752,1564.87 C295.637,1564.87 299.593,1562.92 305.619,1559.01 C311.645,1555.11 315.195,1552.49 316.268,1551.16 C317.341,1549.82 317.877,1548.63 317.877,1547.59 C317.877,1546.55 317.453,1545.62 316.604,1544.81 C315.755,1544 314.778,1543.59 313.674,1543.59 C311.726,1543.59 307.739,1545.56 301.713,1549.5 C295.687,1553.44 292.153,1556.06 291.111,1557.36 C290.07,1558.66 289.549,1559.83 289.549,1560.87 C289.549,1561.92 289.958,1562.84 290.775,1563.66 C291.593,1564.47 292.585,1564.87 293.752,1564.87 M312.705,1540.47 C318.299,1540.47 321.096,1542.87 321.096,1547.69 C321.096,1550.03 320.413,1552.75 319.049,1555.84 C317.684,1558.94 315.861,1561.3 313.58,1562.92 C308.57,1566.31 302.288,1568 294.736,1568 C289.132,1568 286.33,1565.59 286.33,1560.78 C286.33,1558.63 286.997,1555.97 288.33,1552.77 C289.663,1549.58 291.502,1547.17 293.846,1545.55 C298.867,1542.16 305.153,1540.47 312.705,1540.47"/>
<path class="Note" d="M991.168,1077.97 C994.293,1077.97 996.897,1078.75 998.981,1080.31 C1001.06,1081.87 1002.11,1084.12 1002.11,1087.05 C1002.11,1091.54 999.78,1095.73 995.129,1099.64 C990.478,1103.55 985.481,1105.5 980.137,1105.5 C977.012,1105.5 974.376,1104.69 972.231,1103.06 C970.21,1101.3 969.199,1099.09 969.199,1096.42 C969.199,1092.06 971.512,1087.89 976.137,1083.92 C980.762,1079.95 985.772,1077.97 991.168,1077.97"/>
<path class="Note" d="M985.547,590.467 C988.672,590.467 991.276,591.248 993.359,592.811 C995.442,594.373 996.484,596.618 996.484,599.545 C996.484,604.035 994.159,608.233 989.508,612.139 C984.856,616.045 979.859,617.998 974.515,617.998 C971.39,617.998 968.755,617.186 966.609,615.561 C964.588,613.8 963.578,611.587 963.578,608.92 C963.578,604.556 965.89,600.389 970.515,596.42 C975.14,592.451 980.151,590.467 985.547,590.467"/>
<path class="Note" d="M2119.72,577.967 C2122.84,577.967 2125.45,578.748 2127.53,580.311 C2129.61,581.873 2130.65,584.118 2130.65,587.045 C2130.65,591.535 2128.33,595.733 2123.68,599.639 C2119.03,603.545 2114.03,605.498 2108.69,605.498 C2105.56,605.498 2102.93,604.686 2100.78,603.061 C2098.76,601.3 2097.75,599.087 2097.75,596.42 C2097.75,592.056 2100.06,587.889 2104.69,583.92 C2109.31,579.951 2114.32,577.967 2119.72,577.967"/>
<path class="Note" d="M799.821,627.967 C802.946,627.967 805.55,628.748 807.634,630.311 C809.717,631.873 810.759,634.118 810.759,637.045 C810.759,641.535 808.433,645.733 803.782,649.639 C799.131,653.545 794.134,655.498 788.79,655.498 C785.665,655.498 783.03,654.686 780.884,653.061 C778.863,651.3 777.852,649.087 777.852,646.42 C777.852,642.056 780.165,637.889 784.79,633.92 C789.415,629.951 794.425,627.967 799.821,627.967"/>
<path class="Note" d="M2200.47,1040.47 C2203.6,1040.47 2206.2,1041.25 2208.28,1042.81 C2210.37,1044.37 2211.41,1046.62 2211.41,1049.55 C2211.41,1054.04 2209.08,1058.23 2204.43,1062.14 C2199.78,1066.05 2194.78,1068 2189.44,1068 C2186.31,1068 2183.68,1067.19 2181.53,1065.56 C2179.51,1063.8 2178.5,1061.59 2178.5,1058.92 C2178.5,1054.56 2180.81,1050.39 2185.44,1046.42 C2190.06,1042.45 2195.07,1040.47 2200.47,1040.47"/>
<path class="Note" d="M614.096,615.467 C617.221,615.467 619.825,616.248 621.908,617.811 C623.992,619.373 625.033,621.618 625.033,624.545 C625.033,629.035 622.708,633.233 618.057,637.139 C613.406,641.045 608.408,642.998 603.064,642.998 C599.939,642.998 597.304,642.186 595.158,640.561 C593.137,638.8 592.127,636.587 592.127,633.92 C592.127,629.556 594.439,625.389 599.064,621.42 C603.689,617.451 608.7,615.467 614.096,615.467"/>
<path class="Note" d="M345.592,627.967 C348.717,627.967 351.321,628.748 353.404,630.311 C355.488,631.873 356.529,634.118 356.529,637.045 C356.529,641.535 354.204,645.733 349.553,649.639 C344.902,653.545 339.904,655.498 334.561,655.498 C331.436,655.498 328.8,654.686 326.654,653.061 C324.634,651.3 323.623,649.087 323.623,646.42 C323.623,642.056 325.936,637.889 330.561,633.92 C335.186,629.951 340.196,627.967 345.592,627.967"/>
<path class="Note" d="M2074.73,1027.97 C2077.86,1027.97 2080.46,1028.75 2082.55,1030.31 C2084.63,1031.87 2085.67,1034.12 2085.67,1037.05 C2085.67,1041.54 2083.35,1045.73 2078.7,1049.64 C2074.04,1053.55 2069.05,1055.5 2063.7,1055.5 C2060.58,1055.5 2057.94,1054.69 2055.8,1053.06 C2053.78,1051.3 2052.77,1049.09 2052.77,1046.42 C2052.77,1042.06 2055.08,1037.89 2059.7,1033.92 C2064.33,1029.95 2069.34,1027.97 2074.73,1027.97"/>
<path class="Note" d="M1193.37,1114.87 C1195.26,1114.87 1199.22,1112.92 1205.24,1109.01 C1211.27,1105.11 1214.82,1102.49 1215.89,1101.15 C1216.96,1099.82 1217.5,1098.63 1217.5,1097.59 C1217.5,1096.55 1217.07,1095.62 1216.23,1094.81 C1215.38,1094 1214.4,1093.59 1213.3,1093.59 C1211.35,1093.59 1207.36,1095.56 1201.34,1099.5 C1195.31,1103.44 1191.78,1106.06 1190.73,1107.36 C1189.69,1108.66 1189.17,1109.83 1189.17,1110.87 C1189.17,1111.92 1189.58,1112.84 1190.4,1113.65 C1191.22,1114.47 1192.21,1114.87 1193.37,1114.87 M1212.33,1090.47 C1217.92,1090.47 1220.72,1092.87 1220.72,1097.69 C1220.72,1100.03 1220.04,1102.75 1218.67,1105.84 C1217.31,1108.94 1215.48,1111.3 1213.2,1112.92 C1208.19,1116.31 1201.91,1118 1194.36,1118 C1188.75,1118 1185.95,1115.59 1185.95,1110.78 C1185.95,1108.63 1186.62,1105.96 1187.95,1102.77 C1189.29,1099.58 1191.12,1097.17 1193.47,1095.55 C1198.49,1092.16 1204.78,1090.47 1212.33,1090.47"/>
<path class="Note" d="M2635.78,1052.97 C2638.91,1052.97 2641.51,1053.75 2643.59,1055.31 C2645.68,1056.87 2646.72,1059.12 2646.72,1062.05 C2646.72,1066.54 2644.39,1070.73 2639.74,1074.64 C2635.09,1078.55 2630.09,1080.5 2624.75,1080.5 C2621.63,1080.5 2618.99,1079.69 2616.84,1078.06 C2614.82,1076.3 2613.81,1074.09 2613.81,1071.42 C2613.81,1067.06 2616.13,1062.89 2620.75,1058.92 C2625.38,1054.95 2630.39,1052.97 2635.78,1052.97"/>
<path class="Note" d="M502.551,627.967 C505.676,627.967 508.28,628.748 510.364,630.311 C512.447,631.873 513.489,634.118 513.489,637.045 C513.489,641.535 511.163,645.733 506.512,649.639 C501.861,653.545 496.864,655.498 491.52,655.498 C488.395,655.498 485.759,654.686 483.614,653.061 C481.593,651.3 480.582,649.087 480.582,646.42 C480.582,642.056 482.895,637.889 487.52,633.92 C492.145,629.951 497.155,627.967 502.551,627.967"/>
<path class="Note" d="M2418.13,1065.47 C2421.25,1065.47 2423.86,1066.25 2425.94,1067.81 C2428.02,1069.37 2429.06,1071.62 2429.06,1074.55 C2429.06,1079.04 2426.74,1083.23 2422.09,1087.14 C2417.44,1091.05 2412.44,1093 2407.09,1093 C2403.97,1093 2401.33,1092.19 2399.19,1090.56 C2397.17,1088.8 2396.16,1086.59 2396.16,1083.92 C2396.16,1079.56 2398.47,1075.39 2403.09,1071.42 C2407.72,1067.45 2412.73,1065.47 2418.13,1065.47"/>
<path class="Note" d="M744.512,1065.47 C747.637,1065.47 750.242,1066.25 752.325,1067.81 C754.408,1069.37 755.45,1071.62 755.45,1074.55 C755.45,1079.04 753.124,1083.23 748.473,1087.14 C743.822,1091.05 738.825,1093 733.481,1093 C730.356,1093 727.721,1092.19 725.575,1090.56 C723.554,1088.8 722.544,1086.59 722.544,1083.92 C722.544,1079.56 724.856,1075.39 729.481,1071.42 C734.106,1067.45 739.117,1065.47 744.512,1065.47"/>
<path class="Note" d="M2613.93,627.967 C2617.06,627.967 2619.66,628.748 2621.75,630.311 C2623.83,631.873 2624.87,634.118 2624.87,637.045 C2624.87,641.535 2622.55,645.733 2617.89,649.639 C2613.24,653.545 2608.25,655.498 2602.9,655.498 C2599.78,655.498 2597.14,654.686 2595,653.061 C2592.97,651.3 2591.96,649.087 2591.96,646.42 C2591.96,642.056 2594.28,637.889 2598.9,633.92 C2603.53,629.951 2608.54,627.967 2613.93,627.967"/>
<path class="Note" d="M1748.27,615.467 C1751.39,615.467 1754,616.248 1756.08,617.811 C1758.16,619.373 1759.2,621.618 1759.2,624.545 C1759.2,629.035 1756.88,633.233 1752.23,637.139 C1747.58,641.045 1742.58,642.998 1737.24,642.998 C1734.11,642.998 1731.47,642.186 1729.33,640.561 C1727.31,638.8 1726.3,636.587 1726.3,633.92 C1726.3,629.556 1728.61,625.389 1733.24,621.42 C1737.86,617.451 1742.87,615.467 1748.27,615.467"/>
<path class="Note" d="M2319.9,614.873 C2321.78,614.873 2325.74,612.92 2331.76,609.014 C2337.79,605.108 2341.34,602.488 2342.41,601.155 C2343.48,599.821 2344.02,598.634 2344.02,597.592 C2344.02,596.55 2343.6,595.623 2342.75,594.811 C2341.9,593.998 2340.92,593.592 2339.82,593.592 C2337.87,593.592 2333.88,595.561 2327.86,599.498 C2321.83,603.436 2318.3,606.056 2317.26,607.358 C2316.21,608.66 2315.69,609.832 2315.69,610.873 C2315.69,611.915 2316.1,612.842 2316.92,613.655 C2317.74,614.467 2318.73,614.873 2319.9,614.873 M2338.85,590.467 C2344.44,590.467 2347.24,592.873 2347.24,597.686 C2347.24,600.03 2346.56,602.748 2345.19,605.842 C2343.83,608.936 2342.01,611.295 2339.72,612.92 C2334.71,616.306 2328.43,617.998 2320.88,617.998 C2315.28,617.998 2312.47,615.592 2312.47,610.78 C2312.47,608.634 2313.14,605.964 2314.47,602.772 C2315.81,599.579 2317.65,597.17 2319.99,595.545 C2325.01,592.16 2331.3,590.467 2338.85,590.467"/>
<path class="Note" d="M1185.73,627.373 C1187.61,627.373 1191.57,625.42 1197.59,621.514 C1203.62,617.608 1207.17,614.988 1208.24,613.655 C1209.31,612.321 1209.85,611.134 1209.85,610.092 C1209.85,609.05 1209.43,608.123 1208.58,607.311 C1207.73,606.498 1206.75,606.092 1205.65,606.092 C1203.7,606.092 1199.71,608.061 1193.69,611.998 C1187.66,615.936 1184.13,618.556 1183.08,619.858 C1182.04,621.16 1181.52,622.332 1181.52,623.373 C1181.52,624.415 1181.93,625.342 1182.75,626.155 C1183.57,626.967 1184.56,627.373 1185.73,627.373 M1204.68,602.967 C1210.27,602.967 1213.07,605.373 1213.07,610.186 C1213.07,612.53 1212.39,615.248 1211.02,618.342 C1209.66,621.436 1207.83,623.795 1205.55,625.42 C1200.54,628.806 1194.26,630.498 1186.71,630.498 C1181.11,630.498 1178.3,628.092 1178.3,623.28 C1178.3,621.134 1178.97,618.464 1180.3,615.272 C1181.64,612.079 1183.48,609.67 1185.82,608.045 C1190.84,604.66 1197.13,602.967 1204.68,602.967"/>
<path class="Note" d="M1933.99,627.967 C1937.12,627.967 1939.72,628.748 1941.8,630.311 C1943.89,631.873 1944.93,634.118 1944.93,637.045 C1944.93,641.535 1942.6,645.733 1937.95,649.639 C1933.3,653.545 1928.3,655.498 1922.96,655.498 C1919.84,655.498 1917.2,654.686 1915.05,653.061 C1913.03,651.3 1912.02,649.087 1912.02,646.42 C1912.02,642.056 1914.34,637.889 1918.96,633.92 C1923.59,629.951 1928.6,627.967 1933.99,627.967"/>
<path class="Note" d="M2770.89,627.967 C2774.02,627.967 2776.62,628.748 2778.7,630.311 C2780.79,631.873 2781.83,634.118 2781.83,637.045 C2781.83,641.535 2779.5,645.733 2774.85,649.639 C2770.2,653.545 2765.2,655.498 2759.86,655.498 C2756.74,655.498 2754.1,654.686 2751.95,653.061 C2749.93,651.3 2748.92,649.087 2748.92,646.42 C2748.92,642.056 2751.24,637.889 2755.86,633.92 C2760.49,629.951 2765.5,627.967 2770.89,627.967"/>
<path class="Note" d="M1636.72,627.967 C1639.85,627.967 1642.45,628.748 1644.53,630.311 C1646.62,631.873 1647.66,634.118 1647.66,637.045 C1647.66,641.535 1645.33,645.733 1640.68,649.639 C1636.03,653.545 1631.03,655.498 1625.69,655.498 C1622.57,655.498 1619.93,654.686 1617.78,653.061 C1615.76,651.3 1614.75,649.087 1614.75,646.42 C1614.75,642.056 1617.07,637.889 1621.69,633.92 C1626.32,629.951 1631.33,627.967 1636.72,627.967"/>
<path class="Note" d="M309.201,1015.47 C312.326,1015.47 314.93,1016.25 317.014,1017.81 C319.097,1019.37 320.139,1021.62 320.139,1024.55 C320.139,1029.04 317.813,1033.23 313.162,1037.14 C308.511,1041.05 303.514,1043 298.17,1043 C295.045,1043 292.41,1042.19 290.264,1040.56 C288.243,1038.8 287.232,1036.59 287.232,1033.92 C287.232,1029.56 289.545,1025.39 294.17,1021.42 C298.795,1017.45 303.805,1015.47 309.201,1015.47"/>
<path class="Note" d="M526.857,1040.47 C529.982,1040.47 532.586,1041.25 534.669,1042.81 C536.753,1044.37 537.794,1046.62 537.794,1049.55 C537.794,1054.04 535.469,1058.23 530.818,1062.14 C526.167,1066.05 521.169,1068 515.826,1068 C512.701,1068 510.065,1067.19 507.919,1065.56 C505.898,1063.8 504.888,1061.59 504.888,1058.92 C504.888,1054.56 507.201,1050.39 511.826,1046.42 C516.451,1042.45 521.461,1040.47 526.857,1040.47"/>
<path class="Note" d="M1479.76,627.967 C1482.89,627.967 1485.49,628.748 1487.58,630.311 C1489.66,631.873 1490.7,634.118 1490.7,637.045 C1490.7,641.535 1488.37,645.733 1483.72,649.639 C1479.07,653.545 1474.08,655.498 1468.73,655.498 C1465.61,655.498 1462.97,654.686 1460.83,653.061 C1458.8,651.3 1457.79,649.087 1457.79,646.42 C1457.79,642.056 1460.11,637.889 1464.73,633.92 C1469.36,629.951 1474.37,627.967 1479.76,627.967"/>
<path class="Clef" d="M203.623,1623.86 L203.623,1621.72 C203.56,1620.61 203.399,1618.89 203.139,1616.55 C199.889,1617.07 196.993,1617.33 194.451,1617.33 C185.337,1617.33 177.605,1613.73 171.256,1606.53 C164.907,1599.33 161.732,1590.75 161.732,1580.8 C161.732,1578.13 162.253,1574.92 163.295,1571.18 C164.337,1567.43 165.297,1564.93 166.178,1563.66 C167.058,1562.38 168.378,1560.16 170.139,1556.97 C170.659,1555.99 172.352,1553.84 175.217,1550.51 C175.738,1549.81 176.193,1549.22 176.584,1548.76 C176.975,1548.31 177.607,1547.49 178.482,1546.32 C179.357,1545.15 180.3,1544.06 181.31,1543.05 C182.321,1542.04 183.217,1541.06 183.998,1540.12 C184.779,1539.17 185.498,1538.38 186.154,1537.73 C183.81,1529.98 182.378,1524.02 181.857,1519.86 C181.337,1515.69 181.076,1510.58 181.076,1504.52 C181.076,1498.47 182.378,1492.96 184.982,1488.01 C187.514,1482.88 191.06,1478.68 195.623,1475.42 C195.883,1475.22 196.225,1475.12 196.646,1475.12 C197.068,1475.12 197.378,1475.22 197.576,1475.42 C201.087,1479.65 204.128,1485.15 206.701,1491.92 C209.274,1498.69 210.56,1505.02 210.56,1510.92 C210.56,1516.82 209.066,1522.5 206.076,1527.97 C202.691,1533.76 198.326,1539.75 192.982,1545.94 C194.347,1550.23 196.17,1556.96 198.451,1566.14 L199.045,1566.14 C199.305,1566.08 199.529,1566.05 199.717,1566.05 C207.081,1566.05 213.089,1568.63 217.74,1573.81 C222.391,1578.99 224.717,1584.96 224.717,1591.73 C224.717,1600.13 221.238,1606.9 214.279,1612.05 C212.258,1613.55 209.878,1614.72 207.139,1615.56 C207.472,1619.79 207.639,1622.61 207.639,1624.01 C207.639,1625.41 207.571,1627.9 207.435,1631.48 C207.373,1637.6 205.29,1642.84 201.185,1647.2 C197.081,1651.57 192.394,1653.75 187.123,1653.75 C181.852,1653.75 177.36,1651.88 173.646,1648.13 C169.933,1644.39 168.076,1639.85 168.076,1634.51 C168.076,1631.71 169.154,1629.33 171.31,1627.37 C173.519,1625.43 176.006,1624.45 178.771,1624.45 C181.537,1624.45 183.8,1625.46 185.56,1627.48 C187.383,1629.37 188.295,1631.64 188.295,1634.31 C188.295,1636.98 187.383,1639.22 185.56,1641.05 C183.738,1642.87 181.555,1643.78 179.014,1643.78 C177.972,1643.78 176.967,1643.59 175.998,1643.2 C178.863,1647.43 182.54,1649.55 187.029,1649.55 C191.519,1649.55 195.36,1647.69 198.553,1643.98 C201.745,1640.27 203.342,1635.91 203.342,1630.89 L203.623,1623.86 M206.748,1611.56 C210.133,1610.32 212.821,1608.12 214.81,1604.97 C216.8,1601.81 217.795,1598.67 217.795,1595.55 C217.795,1590.92 216.199,1586.79 213.006,1583.14 C209.813,1579.49 205.774,1577.44 200.889,1576.98 C203.691,1590.72 205.644,1602.25 206.748,1611.56 M168.967,1589 C168.967,1595.45 171.537,1601.08 176.678,1605.9 C181.818,1610.72 187.842,1613.12 194.748,1613.12 C197.477,1613.12 200.144,1612.93 202.748,1612.53 C201.706,1602.63 199.654,1590.79 196.592,1576.98 C192.758,1577.38 189.782,1578.7 187.662,1580.94 C185.542,1583.19 184.482,1585.74 184.482,1588.61 C184.482,1593.56 187.123,1597.56 192.404,1600.62 C192.852,1600.88 193.076,1601.32 193.076,1601.94 C193.076,1602.56 192.865,1603.1 192.443,1603.55 C192.021,1604.01 191.649,1604.23 191.326,1604.23 C191.003,1604.23 190.581,1604.17 190.06,1604.05 C182.435,1599.88 178.623,1593.59 178.623,1585.19 C178.623,1581.22 180.024,1577.41 182.826,1573.76 C185.753,1570.12 189.56,1567.77 194.248,1566.73 C192.425,1559.44 190.93,1553.74 189.764,1549.64 C180.847,1559.67 175.31,1567.09 173.154,1571.91 C170.363,1578.16 168.967,1583.85 168.967,1589 M201.576,1489.69 C196.691,1492.09 192.834,1495.57 190.006,1500.13 C187.178,1504.69 185.764,1509.47 185.764,1514.48 C185.764,1519.49 186.935,1525.97 189.279,1533.92 C193.967,1528.25 197.514,1522.95 199.92,1518 C202.326,1513.05 203.529,1508.15 203.529,1503.3 C203.529,1498.45 202.878,1493.92 201.576,1489.69"/>
<path class="Clef" d="M203.623,1148.86 L203.623,1146.72 C203.56,1145.61 203.399,1143.89 203.139,1141.55 C199.889,1142.07 196.993,1142.33 194.451,1142.33 C185.337,1142.33 177.605,1138.73 171.256,1131.53 C164.907,1124.33 161.732,1115.75 161.732,1105.8 C161.732,1103.13 162.253,1099.92 163.295,1096.18 C164.337,1092.43 165.297,1089.93 166.178,1088.65 C167.058,1087.38 168.378,1085.15 170.139,1081.97 C170.659,1080.99 172.352,1078.84 175.217,1075.51 C175.738,1074.81 176.193,1074.22 176.584,1073.76 C176.975,1073.31 177.607,1072.49 178.482,1071.32 C179.357,1070.15 180.3,1069.06 181.31,1068.05 C182.321,1067.04 183.217,1066.06 183.998,1065.12 C184.779,1064.17 185.498,1063.38 186.154,1062.73 C183.81,1054.98 182.378,1049.02 181.857,1044.86 C181.337,1040.69 181.076,1035.58 181.076,1029.52 C181.076,1023.46 182.378,1017.96 184.982,1013.01 C187.514,1007.88 191.06,1003.68 195.623,1000.42 C195.883,1000.22 196.225,1000.12 196.646,1000.12 C197.068,1000.12 197.378,1000.22 197.576,1000.42 C201.087,1004.65 204.128,1010.15 206.701,1016.92 C209.274,1023.69 210.56,1030.02 210.56,1035.92 C210.56,1041.82 209.066,1047.5 206.076,1052.97 C202.691,1058.76 198.326,1064.75 192.982,1070.94 C194.347,1075.23 196.17,1081.96 198.451,1091.14 L199.045,1091.14 C199.305,1091.08 199.529,1091.05 199.717,1091.05 C207.081,1091.05 213.089,1093.63 217.74,1098.81 C222.391,1103.99 224.717,1109.96 224.717,1116.73 C224.717,1125.13 221.238,1131.9 214.279,1137.05 C212.258,1138.55 209.878,1139.72 207.139,1140.56 C207.472,1144.79 207.639,1147.61 207.639,1149.01 C207.639,1150.41 207.571,1152.9 207.435,1156.48 C207.373,1162.6 205.29,1167.84 201.185,1172.2 C197.081,1176.57 192.394,1178.75 187.123,1178.75 C181.852,1178.75 177.36,1176.88 173.646,1173.13 C169.933,1169.39 168.076,1164.85 168.076,1159.51 C168.076,1156.71 169.154,1154.33 171.31,1152.37 C173.519,1150.43 176.006,1149.45 178.771,1149.45 C181.537,1149.45 183.8,1150.46 185.56,1152.48 C187.383,1154.37 188.295,1156.64 188.295,1159.31 C188.295,1161.98 187.383,1164.22 185.56,1166.05 C183.738,1167.87 181.555,1168.78 179.014,1168.78 C177.972,1168.78 176.967,1168.59 175.998,1168.2 C178.863,1172.43 182.54,1174.55 187.029,1174.55 C191.519,1174.55 195.36,1172.69 198.553,1168.98 C201.745,1165.27 203.342,1160.91 203.342,1155.89 L203.623,1148.86 M206.748,1136.56 C210.133,1135.32 212.821,1133.12 214.81,1129.97 C216.8,1126.81 217.795,1123.67 217.795,1120.55 C217.795,1115.92 216.199,1111.79 213.006,1108.14 C209.813,1104.49 205.774,1102.44 200.889,1101.98 C203.691,1115.72 205.644,1127.25 206.748,1136.56 M168.967,1114 C168.967,1120.45 171.537,1126.08 176.678,1130.9 C181.818,1135.71 187.842,1138.12 194.748,1138.12 C197.477,1138.12 200.144,1137.93 202.748,1137.53 C201.706,1127.63 199.654,1115.79 196.592,1101.98 C192.758,1102.38 189.782,1103.7 187.662,1105.94 C185.542,1108.19 184.482,1110.74 184.482,1113.61 C184.482,1118.56 187.123,1122.56 192.404,1125.62 C192.852,1125.88 193.076,1126.32 193.076,1126.94 C193.076,1127.56 192.865,1128.1 192.443,1128.55 C192.021,1129.01 191.649,1129.23 191.326,1129.23 C191.003,1129.23 190.581,1129.17 190.06,1129.05 C182.435,1124.88 178.623,1118.59 178.623,1110.19 C178.623,1106.22 180.024,1102.41 182.826,1098.76 C185.753,1095.12 189.56,1092.77 194.248,1091.73 C192.425,1084.44 190.93,1078.74 189.764,1074.64 C180.847,1084.67 175.31,1092.09 173.154,1096.9 C170.363,1103.15 168.967,1108.85 168.967,1114 M201.576,1014.69 C196.691,1017.09 192.834,1020.57 190.006,1025.13 C187.178,1029.69 185.764,1034.47 185.764,1039.48 C185.764,1044.49 186.935,1050.97 189.279,1058.92 C193.967,1053.25 197.514,1047.95 199.92,1043 C202.326,1038.05 203.529,1033.15 203.529,1028.3 C203.529,1023.45 202.878,1018.92 201.576,1014.69"/>
<path class="Clef" d="M203.623,673.858 L203.623,671.717 C203.56,670.613 203.399,668.889 203.139,666.545 C199.889,667.066 196.993,667.326 194.451,667.326 C185.337,667.326 177.605,663.727 171.256,656.53 C164.907,649.332 161.732,640.754 161.732,630.795 C161.732,628.129 162.253,624.923 163.295,621.178 C164.337,617.433 165.297,614.925 166.178,613.655 C167.058,612.384 168.378,610.155 170.139,606.967 C170.659,605.988 172.352,603.837 175.217,600.514 C175.738,599.806 176.193,599.222 176.584,598.764 C176.975,598.306 177.607,597.49 178.482,596.319 C179.357,595.147 180.3,594.056 181.31,593.045 C182.321,592.035 183.217,591.058 183.998,590.115 C184.779,589.173 185.498,588.379 186.154,587.733 C183.81,579.983 182.378,574.024 181.857,569.858 C181.337,565.691 181.076,560.579 181.076,554.522 C181.076,548.464 182.378,542.962 184.982,538.014 C187.514,532.879 191.06,528.681 195.623,525.42 C195.883,525.222 196.225,525.123 196.646,525.123 C197.068,525.123 197.378,525.222 197.576,525.42 C201.087,529.649 204.128,535.149 206.701,541.92 C209.274,548.691 210.56,555.024 210.56,560.92 C210.56,566.816 209.066,572.498 206.076,577.967 C202.691,583.759 198.326,589.748 192.982,595.936 C194.347,600.227 196.17,606.962 198.451,616.139 L199.045,616.139 C199.305,616.076 199.529,616.045 199.717,616.045 C207.081,616.045 213.089,618.634 217.74,623.811 C222.391,628.988 224.717,634.962 224.717,641.733 C224.717,650.129 221.238,656.899 214.279,662.045 C212.258,663.545 209.878,664.717 207.139,665.561 C207.472,669.79 207.639,672.605 207.639,674.006 C207.639,675.407 207.571,677.899 207.435,681.483 C207.373,687.597 205.29,692.837 201.185,697.201 C197.081,701.566 192.394,703.748 187.123,703.748 C181.852,703.748 177.36,701.876 173.646,698.131 C169.933,694.386 168.076,689.847 168.076,684.514 C168.076,681.712 169.154,679.332 171.31,677.373 C173.519,675.425 176.006,674.451 178.771,674.451 C181.537,674.451 183.8,675.462 185.56,677.483 C187.383,679.368 188.295,681.644 188.295,684.311 C188.295,686.977 187.383,689.222 185.56,691.045 C183.738,692.868 181.555,693.78 179.014,693.78 C177.972,693.78 176.967,693.587 175.998,693.201 C178.863,697.431 182.54,699.545 187.029,699.545 C191.519,699.545 195.36,697.691 198.553,693.983 C201.745,690.274 203.342,685.91 203.342,680.889 L203.623,673.858 M206.748,661.561 C210.133,660.321 212.821,658.123 214.81,654.967 C216.8,651.811 217.795,648.67 217.795,645.545 C217.795,640.92 216.199,636.785 213.006,633.139 C209.813,629.493 205.774,627.441 200.889,626.983 C203.691,640.722 205.644,652.248 206.748,661.561 M168.967,638.998 C168.967,645.446 171.537,651.079 176.678,655.897 C181.818,660.714 187.842,663.123 194.748,663.123 C197.477,663.123 200.144,662.925 202.748,662.53 C201.706,652.634 199.654,640.785 196.592,626.983 C192.758,627.379 189.782,628.699 187.662,630.944 C185.542,633.188 184.482,635.743 184.482,638.608 C184.482,643.556 187.123,647.561 192.404,650.623 C192.852,650.884 193.076,651.324 193.076,651.944 C193.076,652.563 192.865,653.1 192.443,653.553 C192.021,654.006 191.649,654.233 191.326,654.233 C191.003,654.233 190.581,654.17 190.06,654.045 C182.435,649.879 178.623,643.592 178.623,635.186 C178.623,631.217 180.024,627.41 182.826,623.764 C185.753,620.118 189.56,617.774 194.248,616.733 C192.425,609.441 190.93,603.743 189.764,599.639 C180.847,609.67 175.31,617.092 173.154,621.905 C170.363,628.155 168.967,633.852 168.967,638.998 M201.576,539.686 C196.691,542.092 192.834,545.574 190.006,550.131 C187.178,554.688 185.764,559.472 185.764,564.483 C185.764,569.493 186.935,575.972 189.279,583.92 C193.967,578.254 197.514,572.946 199.92,567.998 C202.326,563.05 203.529,558.152 203.529,553.303 C203.529,548.454 202.878,543.915 201.576,539.686"/>
<path class="TimeSig" d="M268.686,614.389 C272.852,614.389 274.936,610.514 274.936,602.764 L274.936,601.108 C274.936,599.222 274.87,597.644 274.74,596.373 C274.61,595.102 274.17,594.011 273.42,593.1 C272.67,592.188 271.514,591.733 269.951,591.733 L261.936,591.733 C261.029,591.733 260.576,591.277 260.576,590.365 C260.576,589.454 261.029,588.931 261.936,588.795 L269.951,588.795 C271.774,588.795 273.042,588.274 273.756,587.233 C274.469,586.191 274.863,584.498 274.936,582.155 L274.936,578.155 C274.936,572.102 272.722,569.076 268.295,569.076 C264.316,569.076 262.326,570.149 262.326,572.295 C262.326,573.014 262.93,573.795 264.139,574.639 C265.347,575.483 265.951,576.264 265.951,576.983 C265.951,578.608 265.381,579.99 264.24,581.131 C263.1,582.272 261.732,582.842 260.139,582.842 C258.545,582.842 257.193,582.256 256.084,581.084 C254.975,579.912 254.42,578.545 254.42,576.983 C254.42,573.92 255.79,571.415 258.529,569.467 C261.394,567.644 264.956,566.733 269.217,566.733 C273.477,566.733 277.204,567.66 280.396,569.514 C283.589,571.368 285.186,574.248 285.186,578.155 C285.186,580.957 284.891,583.089 284.303,584.553 C283.714,586.016 283.066,586.91 282.357,587.233 C280.462,588.014 279.514,589.024 279.514,590.264 C279.514,591.108 280.686,592.316 283.029,593.889 C283.811,594.337 284.592,595.36 285.373,596.959 C286.154,598.558 286.545,600.493 286.545,602.764 C286.545,607.264 284.87,610.717 281.521,613.123 C278.173,615.53 274.136,616.733 269.412,616.733 C264.688,616.733 260.863,615.691 257.936,613.608 C254.811,611.66 253.248,608.925 253.248,605.405 C253.248,603.717 253.899,602.155 255.201,600.717 C256.566,599.477 258.144,598.858 259.936,598.858 C261.727,598.858 263.212,599.509 264.389,600.811 C265.691,602.05 266.342,603.582 266.342,605.405 C266.342,606.248 265.691,607.16 264.389,608.139 C263.014,609.056 262.326,610.035 262.326,611.076 C262.326,612.118 262.946,612.931 264.186,613.514 C265.425,614.097 266.925,614.389 268.686,614.389"/>
<path class="TimeSig" d="M273.021,618.084 C274.516,618.084 275.949,617.858 277.318,617.405 C278.688,616.951 279.665,616.725 280.248,616.725 C280.831,616.725 281.222,617.079 281.42,617.787 C281.42,617.86 281.352,618.058 281.217,618.381 L252.811,651.397 L269.498,651.397 L269.498,638.303 C269.498,636.678 270.446,635.506 272.342,634.787 C274.29,634.069 276.503,631.173 278.982,626.1 C279.17,625.704 279.462,625.506 279.857,625.506 C280.639,625.506 281.092,625.964 281.217,626.881 L281.217,651.397 L288.357,651.397 C289.264,651.397 289.751,651.884 289.818,652.858 C289.886,653.832 289.399,654.319 288.357,654.319 L281.217,654.319 L281.217,655.1 C281.217,657.704 281.868,659.918 283.17,661.74 C284.67,663.563 286.43,664.475 288.451,664.475 C289.232,664.475 289.623,664.865 289.623,665.647 C289.623,666.428 289.087,666.819 288.014,666.819 C286.941,666.819 284.938,666.608 282.006,666.186 C279.074,665.764 276.811,665.553 275.217,665.553 C273.623,665.553 271.41,665.764 268.576,666.186 C265.743,666.608 263.613,666.819 262.186,666.819 C261.404,666.819 261.014,666.428 261.014,665.647 C261.014,664.865 261.404,664.475 262.186,664.475 C264.196,664.475 265.951,663.563 267.451,661.74 C268.816,659.855 269.498,657.642 269.498,655.1 L269.498,654.319 L252.811,654.319 C251.956,654.319 251.219,654.092 250.6,653.639 C249.98,653.186 249.67,652.764 249.67,652.373 C249.67,651.983 250.485,650.811 252.115,648.858 C253.745,646.905 256.074,643.144 259.1,637.576 C262.126,632.009 263.639,625.61 263.639,618.381 C263.639,617.339 264.097,616.819 265.014,616.819 C265.212,616.819 265.521,616.884 265.943,617.014 C266.365,617.144 267.277,617.355 268.678,617.647 C270.079,617.938 271.527,618.084 273.021,618.084"/>
<path class="Rest" d="M1578.87,1091.73 L1543.32,1091.73 C1542.67,1091.73 1542.34,1091.4 1542.34,1090.75 L1542.34,1077.08 C1542.34,1076.43 1542.67,1076.11 1543.32,1076.11 L1578.87,1076.11 C1579.52,1076.11 1579.84,1076.43 1579.84,1077.08 L1579.84,1090.75 C1579.84,1091.4 1579.52,1091.73 1578.87,1091.73"/>
<path class="Beam" fill-rule="evenodd" d="M2621.63,560.483 L2781.84,560.483 L2781.84,572.983 L2621.63,572.983 L2621.63,560.483 "/>
<path class="Beam" fill-rule="evenodd" d="M2781.84,579.233 L2748.84,579.233 L2748.84,591.733 L2781.84,591.733 L2781.84,579.233 "/>
<path class="Beam" fill-rule="evenodd" d="M353.287,560.483 L513.496,560.483 L513.496,572.983 L353.287,572.983 L353.287,560.483 "/>
<path class="Beam" fill-rule="evenodd" d="M513.496,579.233 L480.496,579.233 L480.496,591.733 L513.496,591.733 L513.496,579.233 "/>
<path class="Beam" fill-rule="evenodd" d="M1868.82,1110.48 L2056.02,1110.48 L2056.02,1122.98 L1868.82,1122.98 L1868.82,1110.48 "/>
<path class="Beam" fill-rule="evenodd" d="M2056.02,1091.73 L2023.02,1091.73 L2023.02,1104.23 L2056.02,1104.23 L2056.02,1091.73 "/>
<path class="Beam" fill-rule="evenodd" d="M1487.46,560.483 L1647.67,560.483 L1647.67,572.983 L1487.46,572.983 L1487.46,560.483 "/>
<path class="Beam" fill-rule="evenodd" d="M1647.67,579.233 L1614.67,579.233 L1614.67,591.733 L1647.67,591.733 L1647.67,579.233 "/>
<path class="NoteDot" d="M366.951,633.24 C365.842,632.131 365.287,630.795 365.287,629.233 C365.287,627.67 365.842,626.334 366.951,625.225 C368.061,624.115 369.397,623.561 370.959,623.561 C372.522,623.561 373.855,624.115 374.959,625.225 C376.063,626.334 376.615,627.67 376.615,629.233 C376.615,630.795 376.063,632.131 374.959,633.24 C373.855,634.35 372.522,634.905 370.959,634.905 C369.397,634.905 368.061,634.35 366.951,633.24"/>
<path class="NoteDot" d="M2635.29,633.24 C2634.18,632.131 2633.63,630.795 2633.63,629.233 C2633.63,627.67 2634.18,626.334 2635.29,625.225 C2636.4,624.115 2637.74,623.561 2639.3,623.561 C2640.86,623.561 2642.2,624.115 2643.3,625.225 C2644.4,626.334 2644.96,627.67 2644.96,629.233 C2644.96,630.795 2644.4,632.131 2643.3,633.24 C2642.2,634.35 2640.86,634.905 2639.3,634.905 C2637.74,634.905 2636.4,634.35 2635.29,633.24"/>
<path class="NoteDot" d="M1912.15,1033.24 C1911.04,1032.13 1910.49,1030.8 1910.49,1029.23 C1910.49,1027.67 1911.04,1026.33 1912.15,1025.23 C1913.26,1024.12 1914.6,1023.56 1916.16,1023.56 C1917.72,1023.56 1919.05,1024.12 1920.16,1025.23 C1921.26,1026.33 1921.81,1027.67 1921.81,1029.23 C1921.81,1030.8 1921.26,1032.13 1920.16,1033.24 C1919.05,1034.35 1917.72,1034.9 1916.16,1034.9 C1914.6,1034.9 1913.26,1034.35 1912.15,1033.24"/>
<path class="NoteDot" d="M331.463,1558.24 C330.354,1557.13 329.799,1555.8 329.799,1554.23 C329.799,1552.67 330.354,1551.33 331.463,1550.23 C332.572,1549.12 333.908,1548.56 335.471,1548.56 C337.033,1548.56 338.367,1549.12 339.471,1550.23 C340.575,1551.33 341.127,1552.67 341.127,1554.23 C341.127,1555.8 340.575,1557.13 339.471,1558.24 C338.367,1559.35 337.033,1559.91 335.471,1559.91 C333.908,1559.91 332.572,1559.35 331.463,1558.24"/>
<path class="NoteDot" d="M1501.12,633.24 C1500.01,632.131 1499.46,630.795 1499.46,629.233 C1499.46,627.67 1500.01,626.334 1501.12,625.225 C1502.23,624.115 1503.57,623.561 1505.13,623.561 C1506.69,623.561 1508.03,624.115 1509.13,625.225 C1510.23,626.334 1510.79,627.67 1510.79,629.233 C1510.79,630.795 1510.23,632.131 1509.13,633.24 C1508.03,634.35 1506.69,634.905 1505.13,634.905 C1503.57,634.905 1502.23,634.35 1501.12,633.24"/>
<path class="Page" d="M1390.23,3976.58 C1390.23,3977.27 1390.15,3977.93 1389.99,3978.56 C1389.83,3979.19 1389.52,3979.86 1389.05,3980.57 C1388.58,3981.29 1387.96,3981.9 1387.19,3982.41 C1386.42,3982.92 1385.36,3983.35 1384.03,3983.69 C1382.7,3984.04 1381.15,3984.21 1379.39,3984.21 C1378.59,3984.21 1377.67,3984.17 1376.63,3984.08 L1376.63,3991.41 C1376.63,3992.89 1376.86,3993.85 1377.33,3994.29 C1377.8,3994.74 1378.82,3994.98 1380.39,3995.04 L1380.39,3995.8 L1369.19,3995.8 L1369.19,3995.04 C1370.71,3994.91 1371.65,3994.63 1372.01,3994.18 C1372.37,3993.74 1372.55,3992.68 1372.55,3991 L1372.55,3973.69 C1372.55,3972.24 1372.36,3971.32 1371.99,3970.93 C1371.62,3970.53 1370.69,3970.25 1369.19,3970.08 L1369.19,3969.33 L1379.75,3969.33 C1380.95,3969.33 1382.11,3969.44 1383.23,3969.67 C1384.35,3969.89 1385.46,3970.26 1386.57,3970.77 C1387.68,3971.28 1388.57,3972.03 1389.23,3973.02 C1389.9,3974.01 1390.23,3975.2 1390.23,3976.58 M1376.63,3972.21 L1376.63,3982.57 C1377.56,3982.64 1378.32,3982.68 1378.91,3982.68 C1383.55,3982.68 1385.88,3980.72 1385.88,3976.82 C1385.88,3974.78 1385.23,3973.27 1383.95,3972.3 C1382.67,3971.33 1380.68,3970.85 1377.98,3970.85 C1377.45,3970.85 1377.09,3970.94 1376.91,3971.13 C1376.72,3971.32 1376.63,3971.68 1376.63,3972.21 M1410.83,3993.72 L1410.83,3994.29 C1408.74,3994.87 1406.92,3995.49 1405.34,3996.16 L1405.19,3996.08 L1405.19,3992.69 C1405.1,3992.76 1404.87,3993 1404.48,3993.4 C1404.1,3993.8 1403.83,3994.08 1403.66,3994.23 C1403.5,3994.38 1403.23,3994.62 1402.84,3994.93 C1402.46,3995.25 1402.12,3995.48 1401.83,3995.62 C1401.54,3995.76 1401.16,3995.9 1400.71,3996.02 C1400.26,3996.15 1399.8,3996.21 1399.34,3996.21 C1397.88,3996.21 1396.7,3995.73 1395.82,3994.77 C1394.94,3993.81 1394.5,3992.54 1394.5,3990.94 L1394.5,3980.91 C1394.5,3979.98 1394.33,3979.34 1393.98,3978.98 C1393.64,3978.62 1392.99,3978.42 1392.03,3978.36 L1392.03,3977.8 L1397.86,3977.8 L1397.86,3990.77 C1397.86,3991.59 1398.14,3992.3 1398.7,3992.9 C1399.27,3993.5 1399.93,3993.8 1400.7,3993.8 C1400.99,3993.8 1401.34,3993.76 1401.74,3993.68 C1402.14,3993.61 1402.6,3993.45 1403.13,3993.22 C1403.65,3992.99 1404.09,3992.63 1404.45,3992.15 C1404.8,3991.66 1404.98,3991.05 1404.98,3990.33 L1404.98,3980.99 C1404.98,3980.01 1404.8,3979.36 1404.45,3979.04 C1404.09,3978.73 1403.28,3978.54 1402.02,3978.49 L1402.02,3977.8 L1408.34,3977.8 L1408.34,3991.46 C1408.34,3992.38 1408.49,3992.99 1408.78,3993.29 C1409.07,3993.58 1409.69,3993.72 1410.63,3993.72 L1410.83,3993.72 M1417.03,3968.57 L1417.03,3980.69 C1417.43,3979.74 1418.15,3978.96 1419.19,3978.34 C1420.23,3977.72 1421.36,3977.41 1422.58,3977.41 C1424.58,3977.41 1426.25,3978.24 1427.6,3979.9 C1428.95,3981.55 1429.63,3983.6 1429.63,3986.05 C1429.63,3988.91 1428.72,3991.31 1426.92,3993.27 C1425.12,3995.23 1422.9,3996.21 1420.27,3996.21 C1418.66,3996.21 1417.16,3995.94 1415.77,3995.4 C1414.37,3994.87 1413.67,3994.3 1413.67,3993.71 L1413.67,3972.88 C1413.67,3972.06 1413.54,3971.51 1413.29,3971.25 C1413.03,3970.98 1412.51,3970.85 1411.7,3970.85 C1411.41,3970.85 1411.19,3970.86 1411.03,3970.88 L1411.03,3970.24 C1413.08,3969.74 1415.02,3969.16 1416.83,3968.49 L1417.03,3968.57 M1417.03,3982.85 L1417.03,3993.05 C1417.03,3993.57 1417.42,3994.03 1418.19,3994.42 C1418.96,3994.81 1419.86,3995 1420.91,3995 C1422.56,3995 1423.84,3994.38 1424.75,3993.14 C1425.66,3991.89 1426.11,3990.15 1426.11,3987.91 C1426.11,3985.45 1425.65,3983.49 1424.73,3982.01 C1423.8,3980.54 1422.56,3979.8 1420.98,3979.8 C1419.94,3979.8 1419.02,3980.11 1418.23,3980.73 C1417.43,3981.35 1417.03,3982.06 1417.03,3982.85 M1430.61,3970.88 L1430.61,3970.24 C1433.24,3969.6 1435.36,3969.02 1436.97,3968.49 L1437.13,3968.57 L1437.13,3992.44 C1437.13,3993.54 1437.3,3994.25 1437.66,3994.58 C1438.02,3994.92 1438.84,3995.12 1440.13,3995.21 L1440.13,3995.8 L1430.69,3995.8 L1430.69,3995.21 C1431.94,3995.09 1432.76,3994.85 1433.16,3994.48 C1433.57,3994.11 1433.77,3993.39 1433.77,3992.32 L1433.77,3973.24 C1433.77,3972.31 1433.65,3971.67 1433.41,3971.32 C1433.17,3970.98 1432.72,3970.8 1432.08,3970.8 C1431.55,3970.8 1431.06,3970.83 1430.61,3970.88 M1443,3980.08 C1442.41,3980.08 1441.84,3980.12 1441.31,3980.21 L1441.31,3979.6 C1443.18,3979.07 1445.24,3978.34 1447.52,3977.41 L1447.67,3977.52 L1447.67,3991.72 C1447.67,3993.16 1447.84,3994.07 1448.17,3994.46 C1448.51,3994.84 1449.33,3995.09 1450.64,3995.21 L1450.64,3995.8 L1441.16,3995.8 L1441.16,3995.21 C1442.54,3995.12 1443.41,3994.88 1443.77,3994.48 C1444.13,3994.08 1444.31,3993.16 1444.31,3991.72 L1444.31,3982.44 C1444.31,3981.57 1444.21,3980.96 1444.02,3980.61 C1443.82,3980.26 1443.48,3980.08 1443,3980.08 M1445.64,3968.49 C1446.22,3968.49 1446.72,3968.69 1447.12,3969.09 C1447.52,3969.49 1447.72,3969.97 1447.72,3970.52 C1447.72,3971.11 1447.52,3971.6 1447.12,3971.99 C1446.72,3972.37 1446.22,3972.57 1445.64,3972.57 C1445.08,3972.57 1444.6,3972.37 1444.22,3971.97 C1443.83,3971.56 1443.64,3971.09 1443.64,3970.53 C1443.64,3969.97 1443.84,3969.49 1444.23,3969.09 C1444.63,3968.69 1445.1,3968.49 1445.64,3968.49 M1451.83,3987.27 C1451.83,3984.31 1452.7,3981.93 1454.45,3980.12 C1456.19,3978.31 1458.24,3977.41 1460.59,3977.41 C1462.27,3977.41 1463.72,3977.82 1464.93,3978.63 C1466.14,3979.44 1466.75,3980.41 1466.75,3981.52 C1466.75,3981.98 1466.56,3982.37 1466.19,3982.71 C1465.81,3983.04 1465.36,3983.21 1464.83,3983.21 C1463.92,3983.21 1463.3,3982.6 1462.95,3981.38 L1462.7,3980.5 C1462.49,3979.76 1462.23,3979.26 1461.91,3979 C1461.58,3978.73 1461.06,3978.6 1460.34,3978.6 C1458.72,3978.6 1457.41,3979.24 1456.41,3980.53 C1455.41,3981.81 1454.91,3983.48 1454.91,3985.52 C1454.91,3987.8 1455.49,3989.67 1456.65,3991.11 C1457.81,3992.56 1459.3,3993.29 1461.11,3993.29 C1462.26,3993.29 1463.24,3993.01 1464.07,3992.45 C1464.9,3991.89 1465.79,3990.92 1466.75,3989.54 L1467.31,3989.9 C1467.04,3990.44 1466.81,3990.88 1466.61,3991.22 C1466.41,3991.57 1466.05,3992.09 1465.53,3992.79 C1465.01,3993.48 1464.49,3994.05 1463.98,3994.47 C1463.47,3994.9 1462.81,3995.3 1461.98,3995.66 C1461.16,3996.03 1460.31,3996.21 1459.42,3996.21 C1457.21,3996.21 1455.4,3995.37 1453.97,3993.7 C1452.54,3992.03 1451.83,3989.88 1451.83,3987.27 M1505.92,3982.44 C1505.92,3983.64 1505.79,3984.81 1505.52,3985.96 C1505.26,3987.1 1504.76,3988.29 1504.04,3989.52 C1503.32,3990.75 1502.39,3991.81 1501.27,3992.7 C1500.15,3993.59 1498.67,3994.33 1496.82,3994.92 C1494.97,3995.51 1492.87,3995.8 1490.52,3995.8 L1479.16,3995.8 L1479.16,3995.04 C1480.68,3994.93 1481.65,3994.67 1482.06,3994.24 C1482.48,3993.81 1482.69,3992.88 1482.69,3991.44 L1482.69,3973.69 C1482.69,3972.22 1482.49,3971.29 1482.1,3970.9 C1481.71,3970.5 1480.73,3970.23 1479.16,3970.08 L1479.16,3969.33 L1489.95,3969.33 C1492.38,3969.33 1494.55,3969.61 1496.45,3970.15 C1498.36,3970.7 1499.89,3971.41 1501.05,3972.27 C1502.22,3973.13 1503.18,3974.16 1503.94,3975.35 C1504.7,3976.54 1505.22,3977.7 1505.5,3978.85 C1505.78,3979.99 1505.92,3981.19 1505.92,3982.44 M1501.56,3982.72 C1501.56,3981.58 1501.45,3980.48 1501.22,3979.43 C1500.99,3978.39 1500.58,3977.32 1500,3976.25 C1499.42,3975.17 1498.66,3974.24 1497.72,3973.47 C1496.78,3972.7 1495.55,3972.07 1494.04,3971.58 C1492.52,3971.09 1490.79,3970.85 1488.84,3970.85 C1488.01,3970.85 1487.46,3970.96 1487.18,3971.17 C1486.9,3971.38 1486.77,3971.79 1486.77,3972.4 L1486.77,3992.65 C1486.77,3993.28 1486.91,3993.71 1487.2,3993.94 C1487.49,3994.17 1488.04,3994.29 1488.84,3994.29 C1497.32,3994.29 1501.56,3990.43 1501.56,3982.72 M1517.16,3977.41 C1519.71,3977.41 1521.81,3978.26 1523.47,3979.97 C1525.13,3981.67 1525.95,3983.83 1525.95,3986.44 C1525.95,3989.21 1525.1,3991.53 1523.39,3993.4 C1521.68,3995.27 1519.58,3996.21 1517.07,3996.21 C1514.57,3996.21 1512.48,3995.31 1510.81,3993.5 C1509.15,3991.7 1508.31,3989.46 1508.31,3986.77 C1508.31,3984.02 1509.13,3981.77 1510.77,3980.03 C1512.41,3978.28 1514.54,3977.41 1517.16,3977.41 M1511.91,3984.82 C1511.91,3987.65 1512.43,3990.06 1513.47,3992.04 C1514.51,3994.01 1515.87,3995 1517.55,3995 C1519.05,3995 1520.22,3994.37 1521.07,3993.1 C1521.92,3991.83 1522.34,3990.07 1522.34,3987.83 C1522.34,3985.11 1521.81,3982.9 1520.75,3981.18 C1519.69,3979.46 1518.31,3978.6 1516.63,3978.6 C1515.22,3978.6 1514.08,3979.17 1513.21,3980.3 C1512.34,3981.44 1511.91,3982.94 1511.91,3984.82 M1527.05,3979.96 L1527.05,3979.29 C1528.97,3978.72 1530.84,3978.1 1532.66,3977.41 L1532.94,3977.49 L1532.94,3980.57 C1534.58,3979.28 1535.81,3978.43 1536.61,3978.02 C1537.41,3977.61 1538.25,3977.41 1539.13,3977.41 C1541.23,3977.41 1542.65,3978.55 1543.38,3980.83 C1545.45,3978.55 1547.62,3977.41 1549.89,3977.41 C1552.98,3977.41 1554.53,3979.8 1554.53,3984.58 L1554.53,3992.77 C1554.53,3994.26 1555.1,3995.05 1556.25,3995.13 L1557.28,3995.21 L1557.28,3995.8 L1548.53,3995.8 L1548.53,3995.21 C1549.7,3995.07 1550.43,3994.85 1550.73,3994.53 C1551.02,3994.21 1551.17,3993.48 1551.17,3992.33 L1551.17,3983.94 C1551.17,3982.3 1550.96,3981.16 1550.53,3980.52 C1550.1,3979.88 1549.32,3979.57 1548.17,3979.57 C1546.41,3979.57 1544.96,3980.37 1543.81,3981.99 L1543.81,3992.02 C1543.81,3993.27 1544.01,3994.11 1544.39,3994.53 C1544.78,3994.95 1545.54,3995.18 1546.69,3995.21 L1546.69,3995.8 L1537.73,3995.8 L1537.73,3995.21 C1538.88,3995.12 1539.62,3994.91 1539.95,3994.57 C1540.29,3994.22 1540.45,3993.49 1540.45,3992.38 L1540.45,3983.74 C1540.45,3980.96 1539.57,3979.57 1537.81,3979.57 C1537.06,3979.57 1536.23,3979.75 1535.31,3980.12 C1534.4,3980.49 1533.66,3981.09 1533.09,3981.91 L1533.09,3993.13 C1533.09,3993.9 1533.28,3994.43 1533.65,3994.71 C1534.02,3994.99 1534.74,3995.16 1535.81,3995.21 L1535.81,3995.8 L1526.94,3995.8 L1526.94,3995.21 C1528.05,3995.18 1528.8,3994.98 1529.17,3994.61 C1529.55,3994.24 1529.73,3993.5 1529.73,3992.41 L1529.73,3982.35 C1529.73,3981.39 1529.63,3980.73 1529.43,3980.36 C1529.23,3979.99 1528.86,3979.8 1528.33,3979.8 C1527.93,3979.8 1527.51,3979.85 1527.05,3979.96 M1558.48,3991.85 C1558.48,3991.37 1558.54,3990.92 1558.64,3990.51 C1558.74,3990.1 1558.93,3989.72 1559.2,3989.36 C1559.47,3989.01 1559.73,3988.69 1559.97,3988.4 C1560.21,3988.1 1560.57,3987.8 1561.05,3987.5 C1561.53,3987.19 1561.92,3986.94 1562.24,3986.74 C1562.56,3986.54 1563.05,3986.3 1563.7,3986.02 C1564.36,3985.74 1564.86,3985.53 1565.2,3985.38 C1565.55,3985.23 1566.09,3985.01 1566.84,3984.72 C1567.59,3984.43 1568.14,3984.22 1568.48,3984.1 L1568.48,3981.66 C1568.48,3979.46 1567.47,3978.36 1565.44,3978.36 C1564.65,3978.36 1563.97,3978.56 1563.41,3978.94 C1562.84,3979.33 1562.56,3979.79 1562.56,3980.32 C1562.56,3980.54 1562.6,3980.83 1562.66,3981.21 C1562.73,3981.58 1562.77,3981.82 1562.77,3981.93 C1562.77,3982.37 1562.59,3982.76 1562.23,3983.1 C1561.87,3983.43 1561.45,3983.6 1560.97,3983.6 C1560.51,3983.6 1560.11,3983.43 1559.77,3983.08 C1559.42,3982.74 1559.25,3982.34 1559.25,3981.88 C1559.25,3980.63 1559.9,3979.57 1561.19,3978.71 C1562.48,3977.84 1564.07,3977.41 1565.97,3977.41 C1568.16,3977.41 1569.66,3977.93 1570.48,3978.98 C1571.31,3980.03 1571.72,3981.62 1571.72,3983.77 L1571.72,3991.54 C1571.72,3992.41 1571.8,3993.01 1571.98,3993.35 C1572.15,3993.68 1572.46,3993.85 1572.92,3993.85 C1573.48,3993.85 1574.07,3993.59 1574.69,3993.08 L1574.69,3994.13 C1573.99,3994.93 1573.38,3995.48 1572.86,3995.77 C1572.34,3996.06 1571.74,3996.21 1571.08,3996.21 C1570.26,3996.21 1569.65,3995.97 1569.27,3995.5 C1568.88,3995.04 1568.63,3994.27 1568.52,3993.21 C1566.22,3995.21 1564.28,3996.21 1562.69,3996.21 C1561.46,3996.21 1560.45,3995.8 1559.66,3994.99 C1558.88,3994.18 1558.48,3993.13 1558.48,3991.85 M1568.48,3990.82 L1568.48,3985.05 C1566.09,3985.93 1564.41,3986.78 1563.45,3987.6 C1562.48,3988.42 1562,3989.42 1562,3990.58 C1562,3991.67 1562.27,3992.47 1562.8,3993 C1563.34,3993.54 1563.91,3993.8 1564.52,3993.8 C1565.43,3993.8 1566.41,3993.49 1567.44,3992.88 C1567.86,3992.65 1568.15,3992.4 1568.28,3992.14 C1568.42,3991.87 1568.48,3991.43 1568.48,3990.82 M1577.16,3980.08 C1576.56,3980.08 1576,3980.12 1575.47,3980.21 L1575.47,3979.6 C1577.33,3979.07 1579.4,3978.34 1581.67,3977.41 L1581.83,3977.52 L1581.83,3991.72 C1581.83,3993.16 1581.99,3994.07 1582.33,3994.46 C1582.66,3994.84 1583.48,3995.09 1584.8,3995.21 L1584.8,3995.8 L1575.31,3995.8 L1575.31,3995.21 C1576.7,3995.12 1577.57,3994.88 1577.93,3994.48 C1578.29,3994.08 1578.47,3993.16 1578.47,3991.72 L1578.47,3982.44 C1578.47,3981.57 1578.37,3980.96 1578.17,3980.61 C1577.97,3980.26 1577.64,3980.08 1577.16,3980.08 M1579.8,3968.49 C1580.38,3968.49 1580.87,3968.69 1581.27,3969.09 C1581.67,3969.49 1581.88,3969.97 1581.88,3970.52 C1581.88,3971.11 1581.67,3971.6 1581.27,3971.99 C1580.87,3972.37 1580.38,3972.57 1579.8,3972.57 C1579.23,3972.57 1578.76,3972.37 1578.38,3971.97 C1577.99,3971.56 1577.8,3971.09 1577.8,3970.53 C1577.8,3969.97 1577.99,3969.49 1578.39,3969.09 C1578.79,3968.69 1579.26,3968.49 1579.8,3968.49 M1585.78,3979.85 L1585.78,3979.16 C1587.75,3978.59 1589.59,3978 1591.3,3977.41 L1591.58,3977.49 L1591.58,3980.6 C1592.93,3979.34 1594,3978.49 1594.79,3978.06 C1595.58,3977.63 1596.44,3977.41 1597.38,3977.41 C1598.84,3977.41 1600,3977.93 1600.84,3978.98 C1601.67,3980.03 1602.09,3981.49 1602.09,3983.38 L1602.09,3992.55 C1602.09,3993.54 1602.25,3994.2 1602.57,3994.54 C1602.89,3994.87 1603.54,3995.09 1604.53,3995.21 L1604.53,3995.8 L1596.22,3995.8 L1596.22,3995.21 C1597.23,3995.12 1597.9,3994.86 1598.23,3994.4 C1598.57,3993.95 1598.73,3993.09 1598.73,3991.83 L1598.73,3983.46 C1598.73,3980.86 1597.76,3979.57 1595.81,3979.57 C1595.15,3979.57 1594.53,3979.72 1593.98,3980.03 C1593.42,3980.34 1592.66,3980.94 1591.69,3981.85 L1591.69,3993.11 C1591.69,3993.83 1591.88,3994.34 1592.25,3994.64 C1592.63,3994.93 1593.32,3995.12 1594.33,3995.21 L1594.33,3995.8 L1585.86,3995.8 L1585.86,3995.21 C1586.87,3995.12 1587.53,3994.89 1587.85,3994.5 C1588.17,3994.12 1588.33,3993.35 1588.33,3992.19 L1588.33,3982.25 C1588.33,3981.26 1588.22,3980.59 1588.01,3980.22 C1587.79,3979.86 1587.41,3979.68 1586.86,3979.68 C1586.35,3979.68 1585.99,3979.73 1585.78,3979.85"/>
</svg>
