<?xml version="1.0" encoding="UTF-8" standalone="no"?>
<svg width="2977.2px" height="4208.4px" viewBox="0 0 2977.2 4208.4"
 xmlns="http://www.w3.org/2000/svg" xmlns:xlink="http://www.w3.org/1999/xlink" version="1.2" baseProfile="tiny">
<title>If_You_Are_Happy_And_You_Know_It.mscx</title>
<desc>Generated by MuseScore Studio 4.3.1</desc>
<path class="" fill="#ffffff" fill-rule="evenodd" d="M0,0 L2977.2,0 L2977.2,4208.4 L0,4208.4 L0,0 "/>
<polyline class="StaffLines" fill="none" stroke="#000000" stroke-width="2.00" stroke-linejoin="bevel" points="141.732,316.732 2835.47,316.732"/>
<polyline class="StaffLines" fill="none" stroke="#000000" stroke-width="2.00" stroke-linejoin="bevel" points="141.732,341.732 2835.47,341.732"/>
<polyline class="StaffLines" fill="none" stroke="#000000" stroke-width="2.00" stroke-linejoin="bevel" points="141.732,366.733 2835.47,366.733"/>
<polyline class="StaffLines" fill="none" stroke="#000000" stroke-width="2.00" stroke-linejoin="bevel" points="141.732,391.733 2835.47,391.733"/>
<polyline class="StaffLines" fill="none" stroke="#000000" stroke-width="2.00" stroke-linejoin="bevel" points="141.732,416.733 2835.47,416.733"/>
<polyline class="StaffLines" fill="none" stroke="#000000" stroke-width="2.00" stroke-linejoin="bevel" points="141.732,791.733 2835.47,791.733"/>
<polyline class="StaffLines" fill="none" stroke="#000000" stroke-width="2.00" stroke-linejoin="bevel" points="141.732,816.733 2835.47,816.733"/>
<polyline class="StaffLines" fill="none" stroke="#000000" stroke-width="2.00" stroke-linejoin="bevel" points="141.732,841.733 2835.47,841.733"/>
<polyline class="StaffLines" fill="none" stroke="#000000" stroke-width="2.00" stroke-linejoin="bevel" points="141.732,866.733 2835.47,866.733"/>
<polyline class="StaffLines" fill="none" stroke="#000000" stroke-width="2.00" stroke-linejoin="bevel" points="141.732,891.733 2835.47,891.733"/>
<polyline class="StaffLines" fill="none" stroke="#000000" stroke-width="2.00" stroke-linejoin="bevel" points="141.732,1266.73 2835.47,1266.73"/>
<polyline class="StaffLines" fill="none" stroke="#000000" stroke-width="2.00" stroke-linejoin="bevel" points="141.732,1291.73 2835.47,1291.73"/>
<polyline class="StaffLines" fill="none" stroke="#000000" stroke-width="2.00" stroke-linejoin="bevel" points="141.732,1316.73 2835.47,1316.73"/>
<polyline class="StaffLines" fill="none" stroke="#000000" stroke-width="2.00" stroke-linejoin="bevel" points="141.732,1341.73 2835.47,1341.73"/>
<polyline class="StaffLines" fill="none" stroke="#000000" stroke-width="2.00" stroke-linejoin="bevel" points="141.732,1366.73 2835.47,1366.73"/>
<polyline class="StaffLines" fill="none" stroke="#000000" stroke-width="2.00" stroke-linejoin="bevel" points="141.732,1741.73 2835.47,1741.73"/>
<polyline class="StaffLines" fill="none" stroke="#000000" stroke-width="2.00" stroke-linejoin="bevel" points="141.732,1766.73 2835.47,1766.73"/>
<polyline class="StaffLines" fill="none" stroke="#000000" stroke-width="2.00" stroke-linejoin="bevel" points="141.732,1791.73 2835.47,1791.73"/>
<polyline class="StaffLines" fill="none" stroke="#000000" stroke-width="2.00" stroke-linejoin="bevel" points="141.732,1816.73 2835.47,1816.73"/>
<polyline class="StaffLines" fill="none" stroke="#000000" stroke-width="2.00" stroke-linejoin="bevel" points="141.732,1841.73 2835.47,1841.73"/>
<path class="MeasureNumber" d="M142.045,1217.3 C139.357,1217.3 137.193,1216.22 135.553,1214.07 C133.912,1211.92 133.092,1209.08 133.092,1205.55 C133.092,1204.46 133.199,1203.34 133.412,1202.18 C133.626,1201.02 134.092,1199.7 134.81,1198.23 C135.529,1196.75 136.462,1195.43 137.607,1194.26 C138.753,1193.08 140.36,1192.04 142.428,1191.12 C144.495,1190.19 146.878,1189.61 149.576,1189.37 L149.654,1190.01 C146.508,1190.52 143.881,1191.8 141.771,1193.84 C139.662,1195.88 138.342,1198.41 137.81,1201.42 C139.06,1200.7 140.006,1200.24 140.646,1200.02 C141.287,1199.81 142.05,1199.7 142.935,1199.7 C145.227,1199.7 147.053,1200.44 148.412,1201.93 C149.771,1203.41 150.451,1205.42 150.451,1207.94 C150.451,1210.7 149.67,1212.95 148.107,1214.69 C146.545,1216.43 144.524,1217.3 142.045,1217.3 M141.404,1201.45 C139.592,1201.45 138.373,1201.85 137.748,1202.65 C137.123,1203.44 136.81,1204.62 136.81,1206.19 C136.81,1209.26 137.318,1211.68 138.334,1213.44 C139.35,1215.21 140.738,1216.09 142.498,1216.09 C143.904,1216.09 144.982,1215.5 145.732,1214.32 C146.482,1213.14 146.857,1211.46 146.857,1209.3 C146.857,1206.8 146.383,1204.86 145.435,1203.5 C144.488,1202.13 143.144,1201.45 141.404,1201.45"/>
<path class="MeasureNumber" d="M151.107,732.655 L151.107,735.061 L147.029,735.061 L147.029,741.733 L143.951,741.733 L143.951,735.061 L132.717,735.061 L132.717,732.655 L145.264,714.701 L147.029,714.701 L147.029,732.655 L151.107,732.655 M143.904,732.655 L143.904,718.936 L134.31,732.655 L143.904,732.655 "/>
<path class="MeasureNumber" d="M143.326,1676.86 C145.732,1678.64 147.368,1680.13 148.232,1681.34 C149.097,1682.55 149.529,1683.93 149.529,1685.47 C149.529,1687.54 148.816,1689.2 147.389,1690.44 C145.962,1691.68 144.05,1692.3 141.654,1692.3 C139.383,1692.3 137.534,1691.68 136.107,1690.44 C134.68,1689.2 133.967,1687.6 133.967,1685.64 C133.967,1684.28 134.295,1683.13 134.951,1682.22 C135.607,1681.3 137.014,1680.04 139.17,1678.42 C137.066,1676.59 135.714,1675.22 135.115,1674.31 C134.516,1673.41 134.217,1672.3 134.217,1671 C134.217,1669.17 134.935,1667.64 136.373,1666.44 C137.81,1665.23 139.623,1664.62 141.81,1664.62 C143.81,1664.62 145.456,1665.16 146.748,1666.24 C148.04,1667.32 148.685,1668.69 148.685,1670.36 C148.685,1671.71 148.287,1672.87 147.49,1673.83 C146.693,1674.79 145.305,1675.8 143.326,1676.86 M140.217,1679.22 C139.04,1680.14 138.212,1681.07 137.732,1682.01 C137.253,1682.94 137.014,1684.04 137.014,1685.31 C137.014,1687.04 137.48,1688.44 138.412,1689.5 C139.344,1690.56 140.571,1691.09 142.092,1691.09 C143.394,1691.09 144.451,1690.69 145.264,1689.87 C146.076,1689.06 146.482,1688 146.482,1686.7 C146.482,1686.29 146.438,1685.89 146.35,1685.51 C146.261,1685.14 146.17,1684.81 146.076,1684.54 C145.982,1684.26 145.795,1683.95 145.514,1683.6 C145.232,1683.25 145.006,1682.98 144.834,1682.78 C144.662,1682.58 144.35,1682.3 143.896,1681.92 C143.443,1681.55 143.102,1681.28 142.873,1681.12 C142.644,1680.97 142.217,1680.66 141.592,1680.21 C140.967,1679.76 140.508,1679.43 140.217,1679.22 M142.17,1676.14 C142.201,1676.12 142.383,1675.99 142.717,1675.76 C143.05,1675.54 143.29,1675.36 143.435,1675.23 C143.581,1675.1 143.808,1674.89 144.115,1674.61 C144.422,1674.33 144.654,1674.06 144.81,1673.81 C144.967,1673.56 145.146,1673.26 145.35,1672.9 C145.553,1672.54 145.701,1672.14 145.795,1671.7 C145.889,1671.26 145.935,1670.81 145.935,1670.33 C145.935,1668.94 145.534,1667.84 144.732,1667.03 C143.93,1666.22 142.852,1665.81 141.498,1665.81 C140.238,1665.81 139.201,1666.18 138.389,1666.93 C137.576,1667.67 137.17,1668.62 137.17,1669.76 C137.17,1670.88 137.558,1671.93 138.334,1672.91 C139.11,1673.9 140.389,1674.97 142.17,1676.14"/>
<polyline class="BarLine" fill="none" stroke="#000000" stroke-width="4.00" stroke-linejoin="bevel" points="650.901,315.732 650.901,417.733"/>
<polyline class="BarLine" fill="none" stroke="#000000" stroke-width="4.00" stroke-linejoin="bevel" points="2833.47,790.733 2833.47,892.733"/>
<polyline class="BarLine" fill="none" stroke="#000000" stroke-width="4.00" stroke-linejoin="bevel" points="2833.47,1265.73 2833.47,1367.73"/>
<polyline class="BarLine" fill="none" stroke="#000000" stroke-width="4.00" stroke-linejoin="bevel" points="1676.95,790.733 1676.95,892.733"/>
<polyline class="BarLine" fill="none" stroke="#000000" stroke-width="4.00" stroke-linejoin="bevel" points="2833.47,315.732 2833.47,417.733"/>
<polyline class="BarLine" fill="none" stroke="#000000" stroke-width="4.00" stroke-linejoin="bevel" points="1527.98,1265.73 1527.98,1367.73"/>
<polyline class="BarLine" fill="none" stroke="#000000" stroke-width="4.00" stroke-linejoin="bevel" points="1916.01,315.732 1916.01,417.733"/>
<polyline class="BarLine" fill="none" stroke="#000000" stroke-width="4.00" stroke-linejoin="bevel" points="2802.72,1740.73 2802.72,1842.73"/>
<polyline class="BarLine" fill="none" stroke="#000000" stroke-width="12.50" stroke-linejoin="bevel" points="2829.22,1740.73 2829.22,1842.73"/>
<polyline class="BarLine" fill="none" stroke="#000000" stroke-width="4.00" stroke-linejoin="bevel" points="1968.75,1740.73 1968.75,1842.73"/>
<polyline class="LedgerLine" fill="none" stroke="#000000" stroke-width="4.00" stroke-linejoin="bevel" points="399.544,1191.73 451.458,1191.73"/>
<polyline class="LedgerLine" fill="none" stroke="#000000" stroke-width="4.00" stroke-linejoin="bevel" points="718.667,1191.73 770.581,1191.73"/>
<polyline class="LedgerLine" fill="none" stroke="#000000" stroke-width="4.00" stroke-linejoin="bevel" points="1145.06,741.733 1196.97,741.733"/>
<polyline class="LedgerLine" fill="none" stroke="#000000" stroke-width="4.00" stroke-linejoin="bevel" points="2475.04,741.733 2526.95,741.733"/>
<polyline class="LedgerLine" fill="none" stroke="#000000" stroke-width="4.00" stroke-linejoin="bevel" points="1318.52,766.733 1370.43,766.733"/>
<polyline class="LedgerLine" fill="none" stroke="#000000" stroke-width="4.00" stroke-linejoin="bevel" points="1318.52,741.733 1370.43,741.733"/>
<polyline class="LedgerLine" fill="none" stroke="#000000" stroke-width="4.00" stroke-linejoin="bevel" points="718.667,1216.73 770.581,1216.73"/>
<polyline class="LedgerLine" fill="none" stroke="#000000" stroke-width="4.00" stroke-linejoin="bevel" points="718.667,1241.73 770.581,1241.73"/>
<polyline class="LedgerLine" fill="none" stroke="#000000" stroke-width="4.00" stroke-linejoin="bevel" points="559.106,1191.73 611.02,1191.73"/>
<polyline class="LedgerLine" fill="none" stroke="#000000" stroke-width="4.00" stroke-linejoin="bevel" points="559.106,1216.73 611.02,1216.73"/>
<polyline class="LedgerLine" fill="none" stroke="#000000" stroke-width="4.00" stroke-linejoin="bevel" points="559.106,1241.73 611.02,1241.73"/>
<polyline class="LedgerLine" fill="none" stroke="#000000" stroke-width="4.00" stroke-linejoin="bevel" points="1491.98,766.733 1543.9,766.733"/>
<polyline class="LedgerLine" fill="none" stroke="#000000" stroke-width="4.00" stroke-linejoin="bevel" points="1491.98,741.733 1543.9,741.733"/>
<polyline class="LedgerLine" fill="none" stroke="#000000" stroke-width="4.00" stroke-linejoin="bevel" points="1313.27,1716.73 1365.19,1716.73"/>
<polyline class="LedgerLine" fill="none" stroke="#000000" stroke-width="4.00" stroke-linejoin="bevel" points="399.544,1216.73 451.458,1216.73"/>
<polyline class="LedgerLine" fill="none" stroke="#000000" stroke-width="4.00" stroke-linejoin="bevel" points="399.544,1241.73 451.458,1241.73"/>
<polyline class="LedgerLine" fill="none" stroke="#000000" stroke-width="4.00" stroke-linejoin="bevel" points="239.982,1191.73 291.897,1191.73"/>
<polyline class="LedgerLine" fill="none" stroke="#000000" stroke-width="4.00" stroke-linejoin="bevel" points="239.982,1216.73 291.897,1216.73"/>
<polyline class="LedgerLine" fill="none" stroke="#000000" stroke-width="4.00" stroke-linejoin="bevel" points="239.982,1241.73 291.897,1241.73"/>
<polyline class="LedgerLine" fill="none" stroke="#000000" stroke-width="4.00" stroke-linejoin="bevel" points="1098.62,1716.73 1150.53,1716.73"/>
<polyline class="LedgerLine" fill="none" stroke="#000000" stroke-width="4.00" stroke-linejoin="bevel" points="1694.45,766.733 1746.36,766.733"/>
<polyline class="LedgerLine" fill="none" stroke="#000000" stroke-width="4.00" stroke-linejoin="bevel" points="1694.45,741.733 1746.36,741.733"/>
<polyline class="LedgerLine" fill="none" stroke="#000000" stroke-width="4.00" stroke-linejoin="bevel" points="1694.45,716.733 1746.36,716.733"/>
<polyline class="LedgerLine" fill="none" stroke="#000000" stroke-width="4.00" stroke-linejoin="bevel" points="2648.5,716.733 2700.42,716.733"/>
<polyline class="LedgerLine" fill="none" stroke="#000000" stroke-width="4.00" stroke-linejoin="bevel" points="2648.5,741.733 2700.42,741.733"/>
<polyline class="LedgerLine" fill="none" stroke="#000000" stroke-width="4.00" stroke-linejoin="bevel" points="2648.5,766.733 2700.42,766.733"/>
<polyline class="LedgerLine" fill="none" stroke="#000000" stroke-width="4.00" stroke-linejoin="bevel" points="2475.04,716.733 2526.95,716.733"/>
<polyline class="LedgerLine" fill="none" stroke="#000000" stroke-width="4.00" stroke-linejoin="bevel" points="2475.04,766.733 2526.95,766.733"/>
<polyline class="LedgerLine" fill="none" stroke="#000000" stroke-width="4.00" stroke-linejoin="bevel" points="2662.41,1241.73 2714.32,1241.73"/>
<polyline class="LedgerLine" fill="none" stroke="#000000" stroke-width="4.00" stroke-linejoin="bevel" points="2024.16,1241.73 2076.07,1241.73"/>
<polyline class="LedgerLine" fill="none" stroke="#000000" stroke-width="4.00" stroke-linejoin="bevel" points="2024.16,1216.73 2076.07,1216.73"/>
<polyline class="LedgerLine" fill="none" stroke="#000000" stroke-width="4.00" stroke-linejoin="bevel" points="2183.72,1241.73 2235.64,1241.73"/>
<polyline class="LedgerLine" fill="none" stroke="#000000" stroke-width="4.00" stroke-linejoin="bevel" points="2183.72,1216.73 2235.64,1216.73"/>
<polyline class="LedgerLine" fill="none" stroke="#000000" stroke-width="4.00" stroke-linejoin="bevel" points="2343.28,1241.73 2395.2,1241.73"/>
<polyline class="LedgerLine" fill="none" stroke="#000000" stroke-width="4.00" stroke-linejoin="bevel" points="2343.28,1216.73 2395.2,1216.73"/>
<polyline class="LedgerLine" fill="none" stroke="#000000" stroke-width="4.00" stroke-linejoin="bevel" points="2502.85,1241.73 2554.76,1241.73"/>
<polyline class="LedgerLine" fill="none" stroke="#000000" stroke-width="4.00" stroke-linejoin="bevel" points="2502.85,1216.73 2554.76,1216.73"/>
<polyline class="LedgerLine" fill="none" stroke="#000000" stroke-width="4.00" stroke-linejoin="bevel" points="2502.85,1191.73 2554.76,1191.73"/>
<polyline class="LedgerLine" fill="none" stroke="#000000" stroke-width="4.00" stroke-linejoin="bevel" points="1864.6,1191.73 1916.51,1191.73"/>
<polyline class="LedgerLine" fill="none" stroke="#000000" stroke-width="4.00" stroke-linejoin="bevel" points="2662.41,1216.73 2714.32,1216.73"/>
<polyline class="LedgerLine" fill="none" stroke="#000000" stroke-width="4.00" stroke-linejoin="bevel" points="2662.41,1191.73 2714.32,1191.73"/>
<polyline class="LedgerLine" fill="none" stroke="#000000" stroke-width="4.00" stroke-linejoin="bevel" points="669.299,1691.73 721.213,1691.73"/>
<polyline class="LedgerLine" fill="none" stroke="#000000" stroke-width="4.00" stroke-linejoin="bevel" points="239.982,1716.73 291.897,1716.73"/>
<polyline class="LedgerLine" fill="none" stroke="#000000" stroke-width="4.00" stroke-linejoin="bevel" points="239.982,1691.73 291.897,1691.73"/>
<polyline class="LedgerLine" fill="none" stroke="#000000" stroke-width="4.00" stroke-linejoin="bevel" points="669.299,1716.73 721.213,1716.73"/>
<polyline class="LedgerLine" fill="none" stroke="#000000" stroke-width="4.00" stroke-linejoin="bevel" points="454.641,1716.73 506.555,1716.73"/>
<polyline class="LedgerLine" fill="none" stroke="#000000" stroke-width="4.00" stroke-linejoin="bevel" points="454.641,1691.73 506.555,1691.73"/>
<polyline class="LedgerLine" fill="none" stroke="#000000" stroke-width="4.00" stroke-linejoin="bevel" points="1545.48,1241.73 1597.39,1241.73"/>
<polyline class="LedgerLine" fill="none" stroke="#000000" stroke-width="4.00" stroke-linejoin="bevel" points="1037.79,1241.73 1089.7,1241.73"/>
<polyline class="LedgerLine" fill="none" stroke="#000000" stroke-width="4.00" stroke-linejoin="bevel" points="1197.35,1241.73 1249.27,1241.73"/>
<polyline class="LedgerLine" fill="none" stroke="#000000" stroke-width="4.00" stroke-linejoin="bevel" points="1197.35,1216.73 1249.27,1216.73"/>
<polyline class="LedgerLine" fill="none" stroke="#000000" stroke-width="4.00" stroke-linejoin="bevel" points="1197.35,1191.73 1249.27,1191.73"/>
<polyline class="LedgerLine" fill="none" stroke="#000000" stroke-width="4.00" stroke-linejoin="bevel" points="1356.91,1241.73 1408.83,1241.73"/>
<polyline class="LedgerLine" fill="none" stroke="#000000" stroke-width="4.00" stroke-linejoin="bevel" points="1356.91,1216.73 1408.83,1216.73"/>
<polyline class="LedgerLine" fill="none" stroke="#000000" stroke-width="4.00" stroke-linejoin="bevel" points="1356.91,1191.73 1408.83,1191.73"/>
<polyline class="LedgerLine" fill="none" stroke="#000000" stroke-width="4.00" stroke-linejoin="bevel" points="883.958,1691.73 935.872,1691.73"/>
<polyline class="LedgerLine" fill="none" stroke="#000000" stroke-width="4.00" stroke-linejoin="bevel" points="878.229,1241.73 930.143,1241.73"/>
<polyline class="LedgerLine" fill="none" stroke="#000000" stroke-width="4.00" stroke-linejoin="bevel" points="1545.48,1216.73 1597.39,1216.73"/>
<polyline class="LedgerLine" fill="none" stroke="#000000" stroke-width="4.00" stroke-linejoin="bevel" points="1545.48,1191.73 1597.39,1191.73"/>
<polyline class="LedgerLine" fill="none" stroke="#000000" stroke-width="4.00" stroke-linejoin="bevel" points="883.958,1716.73 935.872,1716.73"/>
<polyline class="LedgerLine" fill="none" stroke="#000000" stroke-width="4.00" stroke-linejoin="bevel" points="1705.04,1241.73 1756.95,1241.73"/>
<polyline class="LedgerLine" fill="none" stroke="#000000" stroke-width="4.00" stroke-linejoin="bevel" points="1705.04,1216.73 1756.95,1216.73"/>
<polyline class="LedgerLine" fill="none" stroke="#000000" stroke-width="4.00" stroke-linejoin="bevel" points="1705.04,1191.73 1756.95,1191.73"/>
<polyline class="LedgerLine" fill="none" stroke="#000000" stroke-width="4.00" stroke-linejoin="bevel" points="1864.6,1241.73 1916.51,1241.73"/>
<polyline class="LedgerLine" fill="none" stroke="#000000" stroke-width="4.00" stroke-linejoin="bevel" points="1864.6,1216.73 1916.51,1216.73"/>
<polyline class="LedgerLine" fill="none" stroke="#000000" stroke-width="4.00" stroke-linejoin="bevel" points="1131.94,291.732 1183.86,291.732"/>
<polyline class="LedgerLine" fill="none" stroke="#000000" stroke-width="4.00" stroke-linejoin="bevel" points="822.915,266.732 874.829,266.732"/>
<polyline class="LedgerLine" fill="none" stroke="#000000" stroke-width="4.00" stroke-linejoin="bevel" points="1595.48,291.732 1647.4,291.732"/>
<polyline class="LedgerLine" fill="none" stroke="#000000" stroke-width="4.00" stroke-linejoin="bevel" points="977.429,291.732 1029.34,291.732"/>
<polyline class="LedgerLine" fill="none" stroke="#000000" stroke-width="4.00" stroke-linejoin="bevel" points="624.662,741.733 676.576,741.733"/>
<polyline class="LedgerLine" fill="none" stroke="#000000" stroke-width="4.00" stroke-linejoin="bevel" points="977.429,266.732 1029.34,266.732"/>
<polyline class="LedgerLine" fill="none" stroke="#000000" stroke-width="4.00" stroke-linejoin="bevel" points="624.662,766.733 676.576,766.733"/>
<polyline class="LedgerLine" fill="none" stroke="#000000" stroke-width="4.00" stroke-linejoin="bevel" points="1440.97,266.732 1492.89,266.732"/>
<polyline class="LedgerLine" fill="none" stroke="#000000" stroke-width="4.00" stroke-linejoin="bevel" points="1742.59,1716.73 1794.51,1716.73"/>
<polyline class="LedgerLine" fill="none" stroke="#000000" stroke-width="4.00" stroke-linejoin="bevel" points="1933.51,266.732 1985.43,266.732"/>
<polyline class="LedgerLine" fill="none" stroke="#000000" stroke-width="4.00" stroke-linejoin="bevel" points="451.197,741.733 503.111,741.733"/>
<polyline class="LedgerLine" fill="none" stroke="#000000" stroke-width="4.00" stroke-linejoin="bevel" points="451.197,766.733 503.111,766.733"/>
<polyline class="LedgerLine" fill="none" stroke="#000000" stroke-width="4.00" stroke-linejoin="bevel" points="1440.97,291.732 1492.89,291.732"/>
<polyline class="LedgerLine" fill="none" stroke="#000000" stroke-width="4.00" stroke-linejoin="bevel" points="1131.94,266.732 1183.86,266.732"/>
<polyline class="LedgerLine" fill="none" stroke="#000000" stroke-width="4.00" stroke-linejoin="bevel" points="1286.46,291.732 1338.37,291.732"/>
<polyline class="LedgerLine" fill="none" stroke="#000000" stroke-width="4.00" stroke-linejoin="bevel" points="277.732,741.733 329.647,741.733"/>
<polyline class="LedgerLine" fill="none" stroke="#000000" stroke-width="4.00" stroke-linejoin="bevel" points="277.732,766.733 329.647,766.733"/>
<polyline class="LedgerLine" fill="none" stroke="#000000" stroke-width="4.00" stroke-linejoin="bevel" points="1286.46,266.732 1338.37,266.732"/>
<polyline class="LedgerLine" fill="none" stroke="#000000" stroke-width="4.00" stroke-linejoin="bevel" points="1750,291.732 1801.91,291.732"/>
<polyline class="LedgerLine" fill="none" stroke="#000000" stroke-width="4.00" stroke-linejoin="bevel" points="1933.51,291.732 1985.43,291.732"/>
<polyline class="LedgerLine" fill="none" stroke="#000000" stroke-width="4.00" stroke-linejoin="bevel" points="1527.93,1716.73 1579.85,1716.73"/>
<polyline class="LedgerLine" fill="none" stroke="#000000" stroke-width="4.00" stroke-linejoin="bevel" points="1986.25,1691.73 2038.16,1691.73"/>
<polyline class="LedgerLine" fill="none" stroke="#000000" stroke-width="4.00" stroke-linejoin="bevel" points="1145.06,766.733 1196.97,766.733"/>
<polyline class="LedgerLine" fill="none" stroke="#000000" stroke-width="4.00" stroke-linejoin="bevel" points="971.591,741.733 1023.5,741.733"/>
<polyline class="LedgerLine" fill="none" stroke="#000000" stroke-width="4.00" stroke-linejoin="bevel" points="1750,266.732 1801.91,266.732"/>
<polyline class="LedgerLine" fill="none" stroke="#000000" stroke-width="4.00" stroke-linejoin="bevel" points="971.591,766.733 1023.5,766.733"/>
<polyline class="LedgerLine" fill="none" stroke="#000000" stroke-width="4.00" stroke-linejoin="bevel" points="668.401,291.732 720.315,291.732"/>
<polyline class="LedgerLine" fill="none" stroke="#000000" stroke-width="4.00" stroke-linejoin="bevel" points="668.401,266.732 720.315,266.732"/>
<polyline class="LedgerLine" fill="none" stroke="#000000" stroke-width="4.00" stroke-linejoin="bevel" points="1986.25,1716.73 2038.16,1716.73"/>
<polyline class="LedgerLine" fill="none" stroke="#000000" stroke-width="4.00" stroke-linejoin="bevel" points="798.126,741.733 850.04,741.733"/>
<polyline class="LedgerLine" fill="none" stroke="#000000" stroke-width="4.00" stroke-linejoin="bevel" points="798.126,766.733 850.04,766.733"/>
<polyline class="LedgerLine" fill="none" stroke="#000000" stroke-width="4.00" stroke-linejoin="bevel" points="822.915,291.732 874.829,291.732"/>
<polyline class="Stem" fill="none" stroke="#000000" stroke-width="3.25" stroke-linejoin="bevel" points="1556.6,1197.6 1556.6,1310.5"/>
<polyline class="Stem" fill="none" stroke="#000000" stroke-width="3.25" stroke-linejoin="bevel" points="1606.61,285.102 1606.61,360.482"/>
<polyline class="Stem" fill="none" stroke="#000000" stroke-width="3.25" stroke-linejoin="bevel" points="1368.04,1185.1 1368.04,1310.5"/>
<polyline class="Stem" fill="none" stroke="#000000" stroke-width="3.25" stroke-linejoin="bevel" points="1208.48,1185.1 1208.48,1312.57"/>
<polyline class="Stem" fill="none" stroke="#000000" stroke-width="3.25" stroke-linejoin="bevel" points="1452.1,272.602 1452.1,360.482"/>
<polyline class="Stem" fill="none" stroke="#000000" stroke-width="3.25" stroke-linejoin="bevel" points="1997.37,1697.6 1997.37,1791.73"/>
<polyline class="Stem" fill="none" stroke="#000000" stroke-width="3.25" stroke-linejoin="bevel" points="1761.12,272.602 1761.12,360.482"/>
<polyline class="Stem" fill="none" stroke="#000000" stroke-width="3.25" stroke-linejoin="bevel" points="1048.92,1247.6 1048.92,1314.64"/>
<polyline class="Stem" fill="none" stroke="#000000" stroke-width="3.25" stroke-linejoin="bevel" points="1143.07,272.602 1143.07,360.482"/>
<polyline class="Stem" fill="none" stroke="#000000" stroke-width="3.25" stroke-linejoin="bevel" points="2513.97,1197.6 2513.97,1312.57"/>
<polyline class="Stem" fill="none" stroke="#000000" stroke-width="3.25" stroke-linejoin="bevel" points="680.424,1685.1 680.424,1789.64"/>
<polyline class="Stem" fill="none" stroke="#000000" stroke-width="3.25" stroke-linejoin="bevel" points="341.498,310.102 341.498,385.483"/>
<polyline class="Stem" fill="none" stroke="#000000" stroke-width="3.25" stroke-linejoin="bevel" points="465.766,1685.1 465.766,1787.57"/>
<polyline class="Stem" fill="none" stroke="#000000" stroke-width="3.25" stroke-linejoin="bevel" points="496.012,310.102 496.012,385.483"/>
<polyline class="Stem" fill="none" stroke="#000000" stroke-width="3.25" stroke-linejoin="bevel" points="251.107,1685.1 251.107,1785.5"/>
<polyline class="Stem" fill="none" stroke="#000000" stroke-width="3.25" stroke-linejoin="bevel" points="679.526,272.602 679.526,360.482"/>
<polyline class="Stem" fill="none" stroke="#000000" stroke-width="3.25" stroke-linejoin="bevel" points="834.04,272.602 834.04,360.482"/>
<polyline class="Stem" fill="none" stroke="#000000" stroke-width="3.25" stroke-linejoin="bevel" points="2673.53,1197.6 2673.53,1310.5"/>
<polyline class="Stem" fill="none" stroke="#000000" stroke-width="3.25" stroke-linejoin="bevel" points="1716.16,1197.6 1716.16,1312.57"/>
<polyline class="Stem" fill="none" stroke="#000000" stroke-width="3.25" stroke-linejoin="bevel" points="988.554,272.602 988.554,360.482"/>
<polyline class="Stem" fill="none" stroke="#000000" stroke-width="3.25" stroke-linejoin="bevel" points="2354.41,1222.6 2354.41,1314.64"/>
<polyline class="Stem" fill="none" stroke="#000000" stroke-width="3.25" stroke-linejoin="bevel" points="895.083,1697.6 895.083,1791.72"/>
<polyline class="Stem" fill="none" stroke="#000000" stroke-width="3.25" stroke-linejoin="bevel" points="2194.85,1222.6 2194.85,1316.71"/>
<polyline class="Stem" fill="none" stroke="#000000" stroke-width="3.25" stroke-linejoin="bevel" points="1944.64,260.102 1944.64,366.733"/>
<polyline class="Stem" fill="none" stroke="#000000" stroke-width="3.25" stroke-linejoin="bevel" points="2035.29,1210.1 2035.29,1316.71"/>
<polyline class="Stem" fill="none" stroke="#000000" stroke-width="3.25" stroke-linejoin="bevel" points="1297.58,272.602 1297.58,360.482"/>
<polyline class="Stem" fill="none" stroke="#000000" stroke-width="3.25" stroke-linejoin="bevel" points="1875.72,1197.6 1875.72,1314.64"/>
<polyline class="Stem" fill="none" stroke="#000000" stroke-width="3.25" stroke-linejoin="bevel" points="288.857,735.102 288.857,835.483"/>
<polyline class="Stem" fill="none" stroke="#000000" stroke-width="3.25" stroke-linejoin="bevel" points="1324.4,1710.1 1324.4,1791.73"/>
<polyline class="Stem" fill="none" stroke="#000000" stroke-width="3.25" stroke-linejoin="bevel" points="2659.63,722.602 2659.63,835.483"/>
<polyline class="Stem" fill="none" stroke="#000000" stroke-width="3.25" stroke-linejoin="bevel" points="635.787,735.102 635.787,835.483"/>
<polyline class="Stem" fill="none" stroke="#000000" stroke-width="3.25" stroke-linejoin="bevel" points="2486.16,722.602 2486.16,835.483"/>
<polyline class="Stem" fill="none" stroke="#000000" stroke-width="3.25" stroke-linejoin="bevel" points="462.322,735.102 462.322,835.483"/>
<polyline class="Stem" fill="none" stroke="#000000" stroke-width="3.25" stroke-linejoin="bevel" points="809.251,735.102 809.251,835.483"/>
<polyline class="Stem" fill="none" stroke="#000000" stroke-width="3.25" stroke-linejoin="bevel" points="251.107,1185.1 251.107,1310.48"/>
<polyline class="Stem" fill="none" stroke="#000000" stroke-width="3.25" stroke-linejoin="bevel" points="1705.57,722.602 1705.57,841.733"/>
<polyline class="Stem" fill="none" stroke="#000000" stroke-width="3.25" stroke-linejoin="bevel" points="1109.74,1710.1 1109.74,1791.73"/>
<polyline class="Stem" fill="none" stroke="#000000" stroke-width="3.25" stroke-linejoin="bevel" points="410.669,1185.1 410.669,1310.48"/>
<polyline class="Stem" fill="none" stroke="#000000" stroke-width="3.25" stroke-linejoin="bevel" points="982.716,735.102 982.716,835.483"/>
<polyline class="Stem" fill="none" stroke="#000000" stroke-width="3.25" stroke-linejoin="bevel" points="1753.72,1710.1 1753.72,1791.73"/>
<polyline class="Stem" fill="none" stroke="#000000" stroke-width="3.25" stroke-linejoin="bevel" points="1539.06,1722.6 1539.06,1791.73"/>
<polyline class="Stem" fill="none" stroke="#000000" stroke-width="3.25" stroke-linejoin="bevel" points="570.231,1185.1 570.231,1310.48"/>
<polyline class="Stem" fill="none" stroke="#000000" stroke-width="3.25" stroke-linejoin="bevel" points="2678.58,310.102 2678.58,385.483"/>
<polyline class="Stem" fill="none" stroke="#000000" stroke-width="3.25" stroke-linejoin="bevel" points="889.354,1247.6 889.354,1316.71"/>
<polyline class="Stem" fill="none" stroke="#000000" stroke-width="3.25" stroke-linejoin="bevel" points="1503.11,735.102 1503.11,835.483"/>
<polyline class="Stem" fill="none" stroke="#000000" stroke-width="3.25" stroke-linejoin="bevel" points="729.792,1185.1 729.792,1310.48"/>
<polyline class="Stem" fill="none" stroke="#000000" stroke-width="3.25" stroke-linejoin="bevel" points="1329.64,747.602 1329.64,835.483"/>
<polyline class="Stem" fill="none" stroke="#000000" stroke-width="3.25" stroke-linejoin="bevel" points="2524.07,310.102 2524.07,385.483"/>
<polyline class="Stem" fill="none" stroke="#000000" stroke-width="3.25" stroke-linejoin="bevel" points="1156.18,735.102 1156.18,835.483"/>
<path class="Note" d="M1176.52,715.467 C1179.65,715.467 1182.25,716.248 1184.34,717.811 C1186.42,719.373 1187.46,721.618 1187.46,724.545 C1187.46,729.035 1185.14,733.233 1180.48,737.139 C1175.83,741.045 1170.84,742.998 1165.49,742.998 C1162.37,742.998 1159.73,742.186 1157.59,740.561 C1155.57,738.8 1154.56,736.587 1154.56,733.92 C1154.56,729.556 1156.87,725.389 1161.49,721.42 C1166.12,717.451 1171.13,715.467 1176.52,715.467"/>
<path class="Note" d="M2506.51,702.967 C2509.63,702.967 2512.24,703.748 2514.32,705.311 C2516.4,706.873 2517.45,709.118 2517.45,712.045 C2517.45,716.535 2515.12,720.733 2510.47,724.639 C2505.82,728.545 2500.82,730.498 2495.48,730.498 C2492.35,730.498 2489.72,729.686 2487.57,728.061 C2485.55,726.3 2484.54,724.087 2484.54,721.42 C2484.54,717.056 2486.85,712.889 2491.48,708.92 C2496.1,704.951 2501.11,702.967 2506.51,702.967"/>
<path class="Note" d="M656.13,715.467 C659.255,715.467 661.859,716.248 663.943,717.811 C666.026,719.373 667.068,721.618 667.068,724.545 C667.068,729.035 664.742,733.233 660.091,737.139 C655.44,741.045 650.443,742.998 645.099,742.998 C641.974,742.998 639.339,742.186 637.193,740.561 C635.172,738.8 634.162,736.587 634.162,733.92 C634.162,729.556 636.474,725.389 641.099,721.42 C645.724,717.451 650.734,715.467 656.13,715.467"/>
<path class="Note" d="M486.11,1665.47 C489.235,1665.47 491.839,1666.25 493.922,1667.81 C496.005,1669.37 497.047,1671.62 497.047,1674.55 C497.047,1679.04 494.722,1683.23 490.07,1687.14 C485.419,1691.05 480.422,1693 475.078,1693 C471.953,1693 469.318,1692.19 467.172,1690.56 C465.151,1688.8 464.141,1686.59 464.141,1683.92 C464.141,1679.56 466.453,1675.39 471.078,1671.42 C475.703,1667.45 480.714,1665.47 486.11,1665.47"/>
<path class="Note" d="M2374.75,1202.97 C2377.88,1202.97 2380.48,1203.75 2382.56,1205.31 C2384.65,1206.87 2385.69,1209.12 2385.69,1212.05 C2385.69,1216.54 2383.36,1220.73 2378.71,1224.64 C2374.06,1228.55 2369.06,1230.5 2363.72,1230.5 C2360.6,1230.5 2357.96,1229.69 2355.81,1228.06 C2353.79,1226.3 2352.78,1224.09 2352.78,1221.42 C2352.78,1217.06 2355.1,1212.89 2359.72,1208.92 C2364.35,1204.95 2369.36,1202.97 2374.75,1202.97"/>
<path class="Note" d="M2017.72,1677.97 C2020.84,1677.97 2023.45,1678.75 2025.53,1680.31 C2027.61,1681.87 2028.66,1684.12 2028.66,1687.05 C2028.66,1691.54 2026.33,1695.73 2021.68,1699.64 C2017.03,1703.55 2012.03,1705.5 2006.69,1705.5 C2003.56,1705.5 2000.93,1704.69 1998.78,1703.06 C1996.76,1701.3 1995.75,1699.09 1995.75,1696.42 C1995.75,1692.06 1998.06,1687.89 2002.69,1683.92 C2007.31,1679.95 2012.32,1677.97 2017.72,1677.97"/>
<path class="Note" d="M854.384,252.967 C857.509,252.967 860.113,253.748 862.196,255.311 C864.28,256.873 865.321,259.118 865.321,262.045 C865.321,266.535 862.996,270.732 858.345,274.639 C853.694,278.545 848.696,280.498 843.353,280.498 C840.228,280.498 837.592,279.686 835.446,278.061 C833.425,276.3 832.415,274.087 832.415,271.42 C832.415,267.055 834.728,262.889 839.353,258.92 C843.978,254.951 848.988,252.967 854.384,252.967"/>
<path class="Note" d="M1344.74,1690.47 C1347.87,1690.47 1350.47,1691.25 1352.56,1692.81 C1354.64,1694.37 1355.68,1696.62 1355.68,1699.55 C1355.68,1704.04 1353.36,1708.23 1348.7,1712.14 C1344.05,1716.05 1339.06,1718 1333.71,1718 C1330.59,1718 1327.95,1717.19 1325.81,1715.56 C1323.78,1713.8 1322.77,1711.59 1322.77,1708.92 C1322.77,1704.56 1325.09,1700.39 1329.71,1696.42 C1334.34,1692.45 1339.35,1690.47 1344.74,1690.47"/>
<path class="Note" d="M2534.31,1177.97 C2537.44,1177.97 2540.04,1178.75 2542.13,1180.31 C2544.21,1181.87 2545.25,1184.12 2545.25,1187.05 C2545.25,1191.54 2542.93,1195.73 2538.27,1199.64 C2533.62,1203.55 2528.63,1205.5 2523.28,1205.5 C2520.16,1205.5 2517.52,1204.69 2515.38,1203.06 C2513.36,1201.3 2512.35,1199.09 2512.35,1196.42 C2512.35,1192.06 2514.66,1187.89 2519.28,1183.92 C2523.91,1179.95 2528.92,1177.97 2534.31,1177.97"/>
<path class="Note" d="M1725.92,702.967 C1729.04,702.967 1731.65,703.748 1733.73,705.311 C1735.81,706.873 1736.86,709.118 1736.86,712.045 C1736.86,716.535 1734.53,720.733 1729.88,724.639 C1725.23,728.545 1720.23,730.498 1714.89,730.498 C1711.76,730.498 1709.13,729.686 1706.98,728.061 C1704.96,726.3 1703.95,724.087 1703.95,721.42 C1703.95,717.056 1706.26,712.889 1710.89,708.92 C1715.51,704.951 1720.52,702.967 1725.92,702.967"/>
<path class="Note" d="M829.595,715.467 C832.72,715.467 835.324,716.248 837.407,717.811 C839.491,719.373 840.532,721.618 840.532,724.545 C840.532,729.035 838.207,733.233 833.556,737.139 C828.905,741.045 823.907,742.998 818.564,742.998 C815.439,742.998 812.803,742.186 810.657,740.561 C808.637,738.8 807.626,736.587 807.626,733.92 C807.626,729.556 809.939,725.389 814.564,721.42 C819.189,717.451 824.199,715.467 829.595,715.467"/>
<path class="Note" d="M361.842,290.467 C364.967,290.467 367.571,291.248 369.654,292.811 C371.738,294.373 372.779,296.618 372.779,299.545 C372.779,304.035 370.454,308.232 365.803,312.139 C361.152,316.045 356.154,317.998 350.811,317.998 C347.686,317.998 345.05,317.186 342.904,315.561 C340.884,313.8 339.873,311.587 339.873,308.92 C339.873,304.555 342.186,300.389 346.811,296.42 C351.436,292.451 356.446,290.467 361.842,290.467"/>
<path class="Note" d="M699.87,252.967 C702.995,252.967 705.599,253.748 707.682,255.311 C709.766,256.873 710.807,259.118 710.807,262.045 C710.807,266.535 708.482,270.732 703.831,274.639 C699.18,278.545 694.182,280.498 688.839,280.498 C685.714,280.498 683.078,279.686 680.932,278.061 C678.912,276.3 677.901,274.087 677.901,271.42 C677.901,267.055 680.214,262.889 684.839,258.92 C689.464,254.951 694.474,252.967 699.87,252.967"/>
<path class="Note" d="M2693.88,1177.97 C2697,1177.97 2699.6,1178.75 2701.69,1180.31 C2703.77,1181.87 2704.81,1184.12 2704.81,1187.05 C2704.81,1191.54 2702.49,1195.73 2697.84,1199.64 C2693.19,1203.55 2688.19,1205.5 2682.84,1205.5 C2679.72,1205.5 2677.08,1204.69 2674.94,1203.06 C2672.92,1201.3 2671.91,1199.09 2671.91,1196.42 C2671.91,1192.06 2674.22,1187.89 2678.84,1183.92 C2683.47,1179.95 2688.48,1177.97 2693.88,1177.97"/>
<path class="Note" d="M271.451,1665.47 C274.576,1665.47 277.18,1666.25 279.264,1667.81 C281.347,1669.37 282.389,1671.62 282.389,1674.55 C282.389,1679.04 280.063,1683.23 275.412,1687.14 C270.761,1691.05 265.764,1693 260.42,1693 C257.295,1693 254.66,1692.19 252.514,1690.56 C250.493,1688.8 249.482,1686.59 249.482,1683.92 C249.482,1679.56 251.795,1675.39 256.42,1671.42 C261.045,1667.45 266.055,1665.47 271.451,1665.47"/>
<path class="Note" d="M1349.99,727.967 C1353.11,727.967 1355.72,728.748 1357.8,730.311 C1359.88,731.873 1360.93,734.118 1360.93,737.045 C1360.93,741.535 1358.6,745.733 1353.95,749.639 C1349.3,753.545 1344.3,755.498 1338.96,755.498 C1335.83,755.498 1333.2,754.686 1331.05,753.061 C1329.03,751.3 1328.02,749.087 1328.02,746.42 C1328.02,742.056 1330.33,737.889 1334.96,733.92 C1339.58,729.951 1344.59,727.967 1349.99,727.967"/>
<path class="Note" d="M482.666,715.467 C485.791,715.467 488.395,716.248 490.478,717.811 C492.562,719.373 493.603,721.618 493.603,724.545 C493.603,729.035 491.278,733.233 486.627,737.139 C481.976,741.045 476.978,742.998 471.634,742.998 C468.509,742.998 465.874,742.186 463.728,740.561 C461.707,738.8 460.697,736.587 460.697,733.92 C460.697,729.556 463.009,725.389 467.634,721.42 C472.259,717.451 477.27,715.467 482.666,715.467"/>
<path class="Note" d="M1003.06,715.467 C1006.18,715.467 1008.79,716.248 1010.87,717.811 C1012.96,719.373 1014,721.618 1014,724.545 C1014,729.035 1011.67,733.233 1007.02,737.139 C1002.37,741.045 997.372,742.998 992.028,742.998 C988.903,742.998 986.268,742.186 984.122,740.561 C982.101,738.8 981.091,736.587 981.091,733.92 C981.091,729.556 983.403,725.389 988.028,721.42 C992.653,717.451 997.664,715.467 1003.06,715.467"/>
<path class="Note" d="M516.356,290.467 C519.481,290.467 522.085,291.248 524.168,292.811 C526.252,294.373 527.293,296.618 527.293,299.545 C527.293,304.035 524.968,308.232 520.317,312.139 C515.666,316.045 510.668,317.998 505.325,317.998 C502.2,317.998 499.564,317.186 497.418,315.561 C495.398,313.8 494.387,311.587 494.387,308.92 C494.387,304.555 496.7,300.389 501.325,296.42 C505.95,292.451 510.96,290.467 516.356,290.467"/>
<path class="Note" d="M1523.45,715.467 C1526.58,715.467 1529.18,716.248 1531.27,717.811 C1533.35,719.373 1534.39,721.618 1534.39,724.545 C1534.39,729.035 1532.06,733.233 1527.41,737.139 C1522.76,741.045 1517.77,742.998 1512.42,742.998 C1509.3,742.998 1506.66,742.186 1504.52,740.561 C1502.49,738.8 1501.48,736.587 1501.48,733.92 C1501.48,729.556 1503.8,725.389 1508.42,721.42 C1513.05,717.451 1518.06,715.467 1523.45,715.467"/>
<path class="Note" d="M700.768,1665.47 C703.893,1665.47 706.497,1666.25 708.58,1667.81 C710.664,1669.37 711.705,1671.62 711.705,1674.55 C711.705,1679.04 709.38,1683.23 704.729,1687.14 C700.078,1691.05 695.08,1693 689.737,1693 C686.612,1693 683.976,1692.19 681.83,1690.56 C679.81,1688.8 678.799,1686.59 678.799,1683.92 C678.799,1679.56 681.112,1675.39 685.737,1671.42 C690.362,1667.45 695.372,1665.47 700.768,1665.47"/>
<path class="Note" d="M1576.94,1177.97 C1580.07,1177.97 1582.67,1178.75 1584.76,1180.31 C1586.84,1181.87 1587.88,1184.12 1587.88,1187.05 C1587.88,1191.54 1585.56,1195.73 1580.91,1199.64 C1576.25,1203.55 1571.26,1205.5 1565.91,1205.5 C1562.79,1205.5 1560.15,1204.69 1558.01,1203.06 C1555.99,1201.3 1554.98,1199.09 1554.98,1196.42 C1554.98,1192.06 1557.29,1187.89 1561.91,1183.92 C1566.54,1179.95 1571.55,1177.97 1576.94,1177.97"/>
<path class="Note" d="M915.426,1677.97 C918.551,1677.97 921.155,1678.75 923.239,1680.31 C925.322,1681.87 926.364,1684.12 926.364,1687.05 C926.364,1691.54 924.038,1695.73 919.387,1699.64 C914.736,1703.55 909.739,1705.5 904.395,1705.5 C901.27,1705.5 898.635,1704.69 896.489,1703.06 C894.468,1701.3 893.458,1699.09 893.458,1696.42 C893.458,1692.06 895.77,1687.89 900.395,1683.92 C905.02,1679.95 910.03,1677.97 915.426,1677.97"/>
<path class="Note" d="M750.136,1165.47 C753.261,1165.47 755.865,1166.25 757.949,1167.81 C760.032,1169.37 761.074,1171.62 761.074,1174.55 C761.074,1179.04 758.748,1183.23 754.097,1187.14 C749.446,1191.05 744.449,1193 739.105,1193 C735.98,1193 733.344,1192.19 731.199,1190.56 C729.178,1188.8 728.167,1186.59 728.167,1183.92 C728.167,1179.56 730.48,1175.39 735.105,1171.42 C739.73,1167.45 744.74,1165.47 750.136,1165.47"/>
<path class="Note" d="M1069.26,1227.97 C1072.38,1227.97 1074.99,1228.75 1077.07,1230.31 C1079.16,1231.87 1080.2,1234.12 1080.2,1237.05 C1080.2,1241.54 1077.87,1245.73 1073.22,1249.64 C1068.57,1253.55 1063.57,1255.5 1058.23,1255.5 C1055.1,1255.5 1052.47,1254.69 1050.32,1253.06 C1048.3,1251.3 1047.29,1249.09 1047.29,1246.42 C1047.29,1242.06 1049.6,1237.89 1054.23,1233.92 C1058.85,1229.95 1063.86,1227.97 1069.26,1227.97"/>
<path class="Note" d="M1964.98,240.467 C1968.11,240.467 1970.71,241.248 1972.79,242.811 C1974.88,244.373 1975.92,246.618 1975.92,249.545 C1975.92,254.035 1973.59,258.232 1968.94,262.139 C1964.29,266.045 1959.29,267.998 1953.95,267.998 C1950.83,267.998 1948.19,267.186 1946.04,265.561 C1944.02,263.8 1943.01,261.587 1943.01,258.92 C1943.01,254.555 1945.33,250.389 1949.95,246.42 C1954.58,242.451 1959.59,240.467 1964.98,240.467"/>
<path class="Note" d="M1781.47,252.967 C1784.59,252.967 1787.2,253.748 1789.28,255.311 C1791.36,256.873 1792.41,259.118 1792.41,262.045 C1792.41,266.535 1790.08,270.732 1785.43,274.639 C1780.78,278.545 1775.78,280.498 1770.44,280.498 C1767.31,280.498 1764.68,279.686 1762.53,278.061 C1760.51,276.3 1759.5,274.087 1759.5,271.42 C1759.5,267.055 1761.81,262.889 1766.44,258.92 C1771.06,254.951 1776.07,252.967 1781.47,252.967"/>
<path class="Note" d="M2544.41,290.467 C2547.53,290.467 2550.14,291.248 2552.22,292.811 C2554.3,294.373 2555.35,296.618 2555.35,299.545 C2555.35,304.035 2553.02,308.232 2548.37,312.139 C2543.72,316.045 2538.72,317.998 2533.38,317.998 C2530.25,317.998 2527.62,317.186 2525.47,315.561 C2523.45,313.8 2522.44,311.587 2522.44,308.92 C2522.44,304.555 2524.75,300.389 2529.38,296.42 C2534,292.451 2539.01,290.467 2544.41,290.467"/>
<path class="Note" d="M1228.82,1165.47 C1231.95,1165.47 1234.55,1166.25 1236.63,1167.81 C1238.72,1169.37 1239.76,1171.62 1239.76,1174.55 C1239.76,1179.04 1237.43,1183.23 1232.78,1187.14 C1228.13,1191.05 1223.13,1193 1217.79,1193 C1214.66,1193 1212.03,1192.19 1209.88,1190.56 C1207.86,1188.8 1206.85,1186.59 1206.85,1183.92 C1206.85,1179.56 1209.16,1175.39 1213.79,1171.42 C1218.41,1167.45 1223.43,1165.47 1228.82,1165.47"/>
<path class="Note" d="M590.574,1165.47 C593.699,1165.47 596.304,1166.25 598.387,1167.81 C600.47,1169.37 601.512,1171.62 601.512,1174.55 C601.512,1179.04 599.186,1183.23 594.535,1187.14 C589.884,1191.05 584.887,1193 579.543,1193 C576.418,1193 573.783,1192.19 571.637,1190.56 C569.616,1188.8 568.606,1186.59 568.606,1183.92 C568.606,1179.56 570.918,1175.39 575.543,1171.42 C580.168,1167.45 585.179,1165.47 590.574,1165.47"/>
<path class="Note" d="M1774.06,1690.47 C1777.18,1690.47 1779.79,1691.25 1781.87,1692.81 C1783.96,1694.37 1785,1696.62 1785,1699.55 C1785,1704.04 1782.67,1708.23 1778.02,1712.14 C1773.37,1716.05 1768.37,1718 1763.03,1718 C1759.9,1718 1757.27,1717.19 1755.12,1715.56 C1753.1,1713.8 1752.09,1711.59 1752.09,1708.92 C1752.09,1704.56 1754.4,1700.39 1759.03,1696.42 C1763.65,1692.45 1768.66,1690.47 1774.06,1690.47"/>
<path class="Note" d="M1626.95,265.467 C1630.08,265.467 1632.68,266.248 1634.77,267.811 C1636.85,269.373 1637.89,271.618 1637.89,274.545 C1637.89,279.035 1635.57,283.232 1630.91,287.139 C1626.26,291.045 1621.27,292.998 1615.92,292.998 C1612.8,292.998 1610.16,292.186 1608.02,290.561 C1606,288.8 1604.98,286.587 1604.98,283.92 C1604.98,279.555 1607.3,275.389 1611.92,271.42 C1616.55,267.451 1621.56,265.467 1626.95,265.467"/>
<path class="Note" d="M1388.38,1165.47 C1391.51,1165.47 1394.11,1166.25 1396.2,1167.81 C1398.28,1169.37 1399.32,1171.62 1399.32,1174.55 C1399.32,1179.04 1396.99,1183.23 1392.34,1187.14 C1387.69,1191.05 1382.7,1193 1377.35,1193 C1374.23,1193 1371.59,1192.19 1369.45,1190.56 C1367.42,1188.8 1366.41,1186.59 1366.41,1183.92 C1366.41,1179.56 1368.73,1175.39 1373.35,1171.42 C1377.98,1167.45 1382.99,1165.47 1388.38,1165.47"/>
<path class="Note" d="M2698.92,290.467 C2702.05,290.467 2704.65,291.248 2706.74,292.811 C2708.82,294.373 2709.86,296.618 2709.86,299.545 C2709.86,304.035 2707.54,308.232 2702.88,312.139 C2698.23,316.045 2693.24,317.998 2687.89,317.998 C2684.77,317.998 2682.13,317.186 2679.99,315.561 C2677.96,313.8 2676.95,311.587 2676.95,308.92 C2676.95,304.555 2679.27,300.389 2683.89,296.42 C2688.52,292.451 2693.53,290.467 2698.92,290.467"/>
<path class="Note" d="M1472.44,252.967 C1475.56,252.967 1478.17,253.748 1480.25,255.311 C1482.34,256.873 1483.38,259.118 1483.38,262.045 C1483.38,266.535 1481.05,270.732 1476.4,274.639 C1471.75,278.545 1466.75,280.498 1461.41,280.498 C1458.28,280.498 1455.65,279.686 1453.5,278.061 C1451.48,276.3 1450.47,274.087 1450.47,271.42 C1450.47,267.055 1452.78,262.889 1457.41,258.92 C1462.03,254.951 1467.04,252.967 1472.44,252.967"/>
<path class="Note" d="M431.013,1165.47 C434.138,1165.47 436.742,1166.25 438.825,1167.81 C440.909,1169.37 441.95,1171.62 441.95,1174.55 C441.95,1179.04 439.625,1183.23 434.974,1187.14 C430.323,1191.05 425.325,1193 419.982,1193 C416.857,1193 414.221,1192.19 412.075,1190.56 C410.054,1188.8 409.044,1186.59 409.044,1183.92 C409.044,1179.56 411.357,1175.39 415.982,1171.42 C420.607,1167.45 425.617,1165.47 431.013,1165.47"/>
<path class="Note" d="M2215.19,1202.97 C2218.32,1202.97 2220.92,1203.75 2223,1205.31 C2225.09,1206.87 2226.13,1209.12 2226.13,1212.05 C2226.13,1216.54 2223.8,1220.73 2219.15,1224.64 C2214.5,1228.55 2209.5,1230.5 2204.16,1230.5 C2201.03,1230.5 2198.4,1229.69 2196.25,1228.06 C2194.23,1226.3 2193.22,1224.09 2193.22,1221.42 C2193.22,1217.06 2195.53,1212.89 2200.16,1208.92 C2204.78,1204.95 2209.79,1202.97 2215.19,1202.97"/>
<path class="Note" d="M1317.93,252.967 C1321.05,252.967 1323.65,253.748 1325.74,255.311 C1327.82,256.873 1328.86,259.118 1328.86,262.045 C1328.86,266.535 1326.54,270.732 1321.89,274.639 C1317.24,278.545 1312.24,280.498 1306.89,280.498 C1303.77,280.498 1301.13,279.686 1298.99,278.061 C1296.97,276.3 1295.96,274.087 1295.96,271.42 C1295.96,267.055 1298.27,262.889 1302.89,258.92 C1307.52,254.951 1312.53,252.967 1317.93,252.967"/>
<path class="Note" d="M271.451,1165.47 C274.576,1165.47 277.18,1166.25 279.264,1167.81 C281.347,1169.37 282.389,1171.62 282.389,1174.55 C282.389,1179.04 280.063,1183.23 275.412,1187.14 C270.761,1191.05 265.764,1193 260.42,1193 C257.295,1193 254.66,1192.19 252.514,1190.56 C250.493,1188.8 249.482,1186.59 249.482,1183.92 C249.482,1179.56 251.795,1175.39 256.42,1171.42 C261.045,1167.45 266.055,1165.47 271.451,1165.47"/>
<path class="Note" d="M309.201,715.467 C312.326,715.467 314.93,716.248 317.014,717.811 C319.097,719.373 320.139,721.618 320.139,724.545 C320.139,729.035 317.813,733.233 313.162,737.139 C308.511,741.045 303.514,742.998 298.17,742.998 C295.045,742.998 292.41,742.186 290.264,740.561 C288.243,738.8 287.232,736.587 287.232,733.92 C287.232,729.556 289.545,725.389 294.17,721.42 C298.795,717.451 303.805,715.467 309.201,715.467"/>
<path class="Note" d="M1736.51,1177.97 C1739.63,1177.97 1742.23,1178.75 1744.32,1180.31 C1746.4,1181.87 1747.44,1184.12 1747.44,1187.05 C1747.44,1191.54 1745.12,1195.73 1740.47,1199.64 C1735.82,1203.55 1730.82,1205.5 1725.47,1205.5 C1722.35,1205.5 1719.71,1204.69 1717.57,1203.06 C1715.55,1201.3 1714.54,1199.09 1714.54,1196.42 C1714.54,1192.06 1716.85,1187.89 1721.47,1183.92 C1726.1,1179.95 1731.11,1177.97 1736.51,1177.97"/>
<path class="Note" d="M1559.4,1702.97 C1562.53,1702.97 1565.13,1703.75 1567.21,1705.31 C1569.3,1706.87 1570.34,1709.12 1570.34,1712.05 C1570.34,1716.54 1568.01,1720.73 1563.36,1724.64 C1558.71,1728.55 1553.71,1730.5 1548.37,1730.5 C1545.25,1730.5 1542.61,1729.69 1540.46,1728.06 C1538.44,1726.3 1537.43,1724.09 1537.43,1721.42 C1537.43,1717.06 1539.75,1712.89 1544.37,1708.92 C1549,1704.95 1554.01,1702.97 1559.4,1702.97"/>
<path class="Note" d="M1163.41,252.967 C1166.54,252.967 1169.14,253.748 1171.22,255.311 C1173.31,256.873 1174.35,259.118 1174.35,262.045 C1174.35,266.535 1172.02,270.732 1167.37,274.639 C1162.72,278.545 1157.72,280.498 1152.38,280.498 C1149.26,280.498 1146.62,279.686 1144.47,278.061 C1142.45,276.3 1141.44,274.087 1141.44,271.42 C1141.44,267.055 1143.76,262.889 1148.38,258.92 C1153.01,254.951 1158.02,252.967 1163.41,252.967"/>
<path class="Note" d="M1130.08,1690.47 C1133.21,1690.47 1135.81,1691.25 1137.9,1692.81 C1139.98,1694.37 1141.02,1696.62 1141.02,1699.55 C1141.02,1704.04 1138.7,1708.23 1134.05,1712.14 C1129.39,1716.05 1124.4,1718 1119.05,1718 C1115.93,1718 1113.29,1717.19 1111.15,1715.56 C1109.13,1713.8 1108.12,1711.59 1108.12,1708.92 C1108.12,1704.56 1110.43,1700.39 1115.05,1696.42 C1119.68,1692.45 1124.69,1690.47 1130.08,1690.47"/>
<path class="Note" d="M1896.07,1177.97 C1899.19,1177.97 1901.8,1178.75 1903.88,1180.31 C1905.96,1181.87 1907,1184.12 1907,1187.05 C1907,1191.54 1904.68,1195.73 1900.03,1199.64 C1895.38,1203.55 1890.38,1205.5 1885.04,1205.5 C1881.91,1205.5 1879.28,1204.69 1877.13,1203.06 C1875.11,1201.3 1874.1,1199.09 1874.1,1196.42 C1874.1,1192.06 1876.41,1187.89 1881.04,1183.92 C1885.66,1179.95 1890.67,1177.97 1896.07,1177.97"/>
<path class="Note" d="M2679.97,702.967 C2683.1,702.967 2685.7,703.748 2687.79,705.311 C2689.87,706.873 2690.91,709.118 2690.91,712.045 C2690.91,716.535 2688.58,720.733 2683.93,724.639 C2679.28,728.545 2674.29,730.498 2668.94,730.498 C2665.82,730.498 2663.18,729.686 2661.04,728.061 C2659.01,726.3 2658,724.087 2658,721.42 C2658,717.056 2660.32,712.889 2664.94,708.92 C2669.57,704.951 2674.58,702.967 2679.97,702.967"/>
<path class="Note" d="M909.698,1227.97 C912.823,1227.97 915.427,1228.75 917.51,1230.31 C919.593,1231.87 920.635,1234.12 920.635,1237.05 C920.635,1241.54 918.31,1245.73 913.659,1249.64 C909.008,1253.55 904.01,1255.5 898.666,1255.5 C895.541,1255.5 892.906,1254.69 890.76,1253.06 C888.739,1251.3 887.729,1249.09 887.729,1246.42 C887.729,1242.06 890.041,1237.89 894.666,1233.92 C899.291,1229.95 904.302,1227.97 909.698,1227.97"/>
<path class="Note" d="M2055.63,1190.47 C2058.75,1190.47 2061.36,1191.25 2063.44,1192.81 C2065.52,1194.37 2066.57,1196.62 2066.57,1199.55 C2066.57,1204.04 2064.24,1208.23 2059.59,1212.14 C2054.94,1216.05 2049.94,1218 2044.6,1218 C2041.47,1218 2038.84,1217.19 2036.69,1215.56 C2034.67,1213.8 2033.66,1211.59 2033.66,1208.92 C2033.66,1204.56 2035.97,1200.39 2040.6,1196.42 C2045.22,1192.45 2050.23,1190.47 2055.63,1190.47"/>
<path class="Note" d="M1008.9,252.967 C1012.02,252.967 1014.63,253.748 1016.71,255.311 C1018.79,256.873 1019.84,259.118 1019.84,262.045 C1019.84,266.535 1017.51,270.732 1012.86,274.639 C1008.21,278.545 1003.21,280.498 997.867,280.498 C994.742,280.498 992.106,279.686 989.96,278.061 C987.939,276.3 986.929,274.087 986.929,271.42 C986.929,267.055 989.242,262.889 993.867,258.92 C998.492,254.951 1003.5,252.967 1008.9,252.967"/>
<path class="Clef" d="M203.623,423.858 L203.623,421.717 C203.56,420.613 203.399,418.889 203.139,416.545 C199.889,417.066 196.993,417.326 194.451,417.326 C185.337,417.326 177.605,413.727 171.256,406.529 C164.907,399.331 161.732,390.753 161.732,380.795 C161.732,378.128 162.253,374.923 163.295,371.178 C164.337,367.433 165.297,364.925 166.178,363.654 C167.058,362.384 168.378,360.154 170.139,356.967 C170.659,355.988 172.352,353.837 175.217,350.514 C175.738,349.805 176.193,349.222 176.584,348.764 C176.975,348.305 177.607,347.49 178.482,346.318 C179.357,345.147 180.3,344.055 181.31,343.045 C182.321,342.035 183.217,341.058 183.998,340.115 C184.779,339.173 185.498,338.378 186.154,337.733 C183.81,329.983 182.378,324.024 181.857,319.858 C181.337,315.691 181.076,310.579 181.076,304.522 C181.076,298.464 182.378,292.962 184.982,288.014 C187.514,282.878 191.06,278.68 195.623,275.42 C195.883,275.222 196.225,275.123 196.646,275.123 C197.068,275.123 197.378,275.222 197.576,275.42 C201.087,279.649 204.128,285.149 206.701,291.92 C209.274,298.691 210.56,305.024 210.56,310.92 C210.56,316.816 209.066,322.498 206.076,327.967 C202.691,333.759 198.326,339.748 192.982,345.936 C194.347,350.227 196.17,356.962 198.451,366.139 L199.045,366.139 C199.305,366.076 199.529,366.045 199.717,366.045 C207.081,366.045 213.089,368.634 217.74,373.811 C222.391,378.988 224.717,384.962 224.717,391.733 C224.717,400.128 221.238,406.899 214.279,412.045 C212.258,413.545 209.878,414.717 207.139,415.561 C207.472,419.79 207.639,422.605 207.639,424.006 C207.639,425.407 207.571,427.899 207.435,431.483 C207.373,437.597 205.29,442.837 201.185,447.201 C197.081,451.566 192.394,453.748 187.123,453.748 C181.852,453.748 177.36,451.876 173.646,448.131 C169.933,444.386 168.076,439.847 168.076,434.514 C168.076,431.712 169.154,429.331 171.31,427.373 C173.519,425.425 176.006,424.451 178.771,424.451 C181.537,424.451 183.8,425.462 185.56,427.483 C187.383,429.368 188.295,431.644 188.295,434.311 C188.295,436.977 187.383,439.222 185.56,441.045 C183.738,442.868 181.555,443.779 179.014,443.779 C177.972,443.779 176.967,443.587 175.998,443.201 C178.863,447.43 182.54,449.545 187.029,449.545 C191.519,449.545 195.36,447.691 198.553,443.983 C201.745,440.274 203.342,435.91 203.342,430.889 L203.623,423.858 M206.748,411.561 C210.133,410.321 212.821,408.123 214.81,404.967 C216.8,401.811 217.795,398.67 217.795,395.545 C217.795,390.92 216.199,386.785 213.006,383.139 C209.813,379.493 205.774,377.441 200.889,376.983 C203.691,390.722 205.644,402.248 206.748,411.561 M168.967,388.998 C168.967,395.446 171.537,401.079 176.678,405.897 C181.818,410.714 187.842,413.123 194.748,413.123 C197.477,413.123 200.144,412.925 202.748,412.529 C201.706,402.634 199.654,390.785 196.592,376.983 C192.758,377.378 189.782,378.699 187.662,380.943 C185.542,383.188 184.482,385.743 184.482,388.608 C184.482,393.555 187.123,397.561 192.404,400.623 C192.852,400.884 193.076,401.324 193.076,401.943 C193.076,402.563 192.865,403.1 192.443,403.553 C192.021,404.006 191.649,404.233 191.326,404.233 C191.003,404.233 190.581,404.17 190.06,404.045 C182.435,399.878 178.623,393.592 178.623,385.186 C178.623,381.217 180.024,377.41 182.826,373.764 C185.753,370.118 189.56,367.774 194.248,366.733 C192.425,359.441 190.93,353.743 189.764,349.639 C180.847,359.67 175.31,367.092 173.154,371.904 C170.363,378.154 168.967,383.852 168.967,388.998 M201.576,289.686 C196.691,292.092 192.834,295.574 190.006,300.131 C187.178,304.688 185.764,309.472 185.764,314.483 C185.764,319.493 186.935,325.972 189.279,333.92 C193.967,328.253 197.514,322.946 199.92,317.998 C202.326,313.05 203.529,308.152 203.529,303.303 C203.529,298.454 202.878,293.915 201.576,289.686"/>
<path class="Clef" d="M203.623,1848.86 L203.623,1846.72 C203.56,1845.61 203.399,1843.89 203.139,1841.55 C199.889,1842.07 196.993,1842.33 194.451,1842.33 C185.337,1842.33 177.605,1838.73 171.256,1831.53 C164.907,1824.33 161.732,1815.75 161.732,1805.8 C161.732,1803.13 162.253,1799.92 163.295,1796.18 C164.337,1792.43 165.297,1789.93 166.178,1788.66 C167.058,1787.38 168.378,1785.16 170.139,1781.97 C170.659,1780.99 172.352,1778.84 175.217,1775.51 C175.738,1774.81 176.193,1774.22 176.584,1773.76 C176.975,1773.31 177.607,1772.49 178.482,1771.32 C179.357,1770.15 180.3,1769.06 181.31,1768.05 C182.321,1767.04 183.217,1766.06 183.998,1765.12 C184.779,1764.17 185.498,1763.38 186.154,1762.73 C183.81,1754.98 182.378,1749.03 181.857,1744.86 C181.337,1740.69 181.076,1735.58 181.076,1729.52 C181.076,1723.47 182.378,1717.96 184.982,1713.01 C187.514,1707.88 191.06,1703.68 195.623,1700.42 C195.883,1700.22 196.225,1700.12 196.646,1700.12 C197.068,1700.12 197.378,1700.22 197.576,1700.42 C201.087,1704.65 204.128,1710.15 206.701,1716.92 C209.274,1723.69 210.56,1730.03 210.56,1735.92 C210.56,1741.82 209.066,1747.5 206.076,1752.97 C202.691,1758.76 198.326,1764.75 192.982,1770.94 C194.347,1775.23 196.17,1781.96 198.451,1791.14 L199.045,1791.14 C199.305,1791.08 199.529,1791.05 199.717,1791.05 C207.081,1791.05 213.089,1793.63 217.74,1798.81 C222.391,1803.99 224.717,1809.96 224.717,1816.73 C224.717,1825.13 221.238,1831.9 214.279,1837.05 C212.258,1838.55 209.878,1839.72 207.139,1840.56 C207.472,1844.79 207.639,1847.61 207.639,1849.01 C207.639,1850.41 207.571,1852.9 207.435,1856.48 C207.373,1862.6 205.29,1867.84 201.185,1872.2 C197.081,1876.57 192.394,1878.75 187.123,1878.75 C181.852,1878.75 177.36,1876.88 173.646,1873.13 C169.933,1869.39 168.076,1864.85 168.076,1859.51 C168.076,1856.71 169.154,1854.33 171.31,1852.37 C173.519,1850.43 176.006,1849.45 178.771,1849.45 C181.537,1849.45 183.8,1850.46 185.56,1852.48 C187.383,1854.37 188.295,1856.64 188.295,1859.31 C188.295,1861.98 187.383,1864.22 185.56,1866.05 C183.738,1867.87 181.555,1868.78 179.014,1868.78 C177.972,1868.78 176.967,1868.59 175.998,1868.2 C178.863,1872.43 182.54,1874.55 187.029,1874.55 C191.519,1874.55 195.36,1872.69 198.553,1868.98 C201.745,1865.28 203.342,1860.91 203.342,1855.89 L203.623,1848.86 M206.748,1836.56 C210.133,1835.32 212.821,1833.12 214.81,1829.97 C216.8,1826.81 217.795,1823.67 217.795,1820.55 C217.795,1815.92 216.199,1811.79 213.006,1808.14 C209.813,1804.49 205.774,1802.44 200.889,1801.98 C203.691,1815.72 205.644,1827.25 206.748,1836.56 M168.967,1814 C168.967,1820.45 171.537,1826.08 176.678,1830.9 C181.818,1835.72 187.842,1838.12 194.748,1838.12 C197.477,1838.12 200.144,1837.93 202.748,1837.53 C201.706,1827.63 199.654,1815.79 196.592,1801.98 C192.758,1802.38 189.782,1803.7 187.662,1805.94 C185.542,1808.19 184.482,1810.74 184.482,1813.61 C184.482,1818.56 187.123,1822.56 192.404,1825.62 C192.852,1825.88 193.076,1826.32 193.076,1826.94 C193.076,1827.56 192.865,1828.1 192.443,1828.55 C192.021,1829.01 191.649,1829.23 191.326,1829.23 C191.003,1829.23 190.581,1829.17 190.06,1829.05 C182.435,1824.88 178.623,1818.59 178.623,1810.19 C178.623,1806.22 180.024,1802.41 182.826,1798.76 C185.753,1795.12 189.56,1792.78 194.248,1791.73 C192.425,1784.44 190.93,1778.74 189.764,1774.64 C180.847,1784.67 175.31,1792.09 173.154,1796.91 C170.363,1803.16 168.967,1808.85 168.967,1814 M201.576,1714.69 C196.691,1717.09 192.834,1720.57 190.006,1725.13 C187.178,1729.69 185.764,1734.47 185.764,1739.48 C185.764,1744.49 186.935,1750.97 189.279,1758.92 C193.967,1753.25 197.514,1747.95 199.92,1743 C202.326,1738.05 203.529,1733.15 203.529,1728.3 C203.529,1723.45 202.878,1718.92 201.576,1714.69"/>
<path class="Clef" d="M203.623,898.858 L203.623,896.717 C203.56,895.613 203.399,893.889 203.139,891.545 C199.889,892.066 196.993,892.327 194.451,892.327 C185.337,892.327 177.605,888.728 171.256,881.53 C164.907,874.332 161.732,865.754 161.732,855.795 C161.732,853.129 162.253,849.923 163.295,846.178 C164.337,842.433 165.297,839.926 166.178,838.655 C167.058,837.384 168.378,835.155 170.139,831.967 C170.659,830.988 172.352,828.837 175.217,825.514 C175.738,824.806 176.193,824.222 176.584,823.764 C176.975,823.306 177.607,822.491 178.482,821.319 C179.357,820.147 180.3,819.056 181.31,818.045 C182.321,817.035 183.217,816.058 183.998,815.116 C184.779,814.173 185.498,813.379 186.154,812.733 C183.81,804.983 182.378,799.024 181.857,794.858 C181.337,790.691 181.076,785.579 181.076,779.522 C181.076,773.465 182.378,767.962 184.982,763.014 C187.514,757.879 191.06,753.681 195.623,750.42 C195.883,750.222 196.225,750.123 196.646,750.123 C197.068,750.123 197.378,750.222 197.576,750.42 C201.087,754.649 204.128,760.149 206.701,766.92 C209.274,773.691 210.56,780.024 210.56,785.92 C210.56,791.816 209.066,797.498 206.076,802.967 C202.691,808.759 198.326,814.748 192.982,820.936 C194.347,825.228 196.17,831.962 198.451,841.139 L199.045,841.139 C199.305,841.077 199.529,841.045 199.717,841.045 C207.081,841.045 213.089,843.634 217.74,848.811 C222.391,853.988 224.717,859.962 224.717,866.733 C224.717,875.129 221.238,881.899 214.279,887.045 C212.258,888.545 209.878,889.717 207.139,890.561 C207.472,894.79 207.639,897.605 207.639,899.006 C207.639,900.407 207.571,902.899 207.435,906.483 C207.373,912.597 205.29,917.837 201.185,922.202 C197.081,926.566 192.394,928.748 187.123,928.748 C181.852,928.748 177.36,926.876 173.646,923.131 C169.933,919.386 168.076,914.847 168.076,909.514 C168.076,906.712 169.154,904.332 171.31,902.373 C173.519,900.426 176.006,899.452 178.771,899.452 C181.537,899.452 183.8,900.462 185.56,902.483 C187.383,904.368 188.295,906.644 188.295,909.311 C188.295,911.978 187.383,914.222 185.56,916.045 C183.738,917.868 181.555,918.78 179.014,918.78 C177.972,918.78 176.967,918.587 175.998,918.202 C178.863,922.431 182.54,924.545 187.029,924.545 C191.519,924.545 195.36,922.691 198.553,918.983 C201.745,915.274 203.342,910.91 203.342,905.889 L203.623,898.858 M206.748,886.561 C210.133,885.321 212.821,883.123 214.81,879.967 C216.8,876.811 217.795,873.67 217.795,870.545 C217.795,865.92 216.199,861.785 213.006,858.139 C209.813,854.493 205.774,852.441 200.889,851.983 C203.691,865.722 205.644,877.248 206.748,886.561 M168.967,863.998 C168.967,870.446 171.537,876.079 176.678,880.897 C181.818,885.715 187.842,888.123 194.748,888.123 C197.477,888.123 200.144,887.926 202.748,887.53 C201.706,877.634 199.654,865.785 196.592,851.983 C192.758,852.379 189.782,853.699 187.662,855.944 C185.542,858.189 184.482,860.743 184.482,863.608 C184.482,868.556 187.123,872.561 192.404,875.623 C192.852,875.884 193.076,876.324 193.076,876.944 C193.076,877.564 192.865,878.1 192.443,878.553 C192.021,879.006 191.649,879.233 191.326,879.233 C191.003,879.233 190.581,879.17 190.06,879.045 C182.435,874.879 178.623,868.592 178.623,860.186 C178.623,856.217 180.024,852.41 182.826,848.764 C185.753,845.118 189.56,842.774 194.248,841.733 C192.425,834.441 190.93,828.743 189.764,824.639 C180.847,834.67 175.31,842.092 173.154,846.905 C170.363,853.155 168.967,858.853 168.967,863.998 M201.576,764.686 C196.691,767.092 192.834,770.574 190.006,775.131 C187.178,779.689 185.764,784.472 185.764,789.483 C185.764,794.493 186.935,800.972 189.279,808.92 C193.967,803.254 197.514,797.946 199.92,792.998 C202.326,788.051 203.529,783.152 203.529,778.303 C203.529,773.454 202.878,768.915 201.576,764.686"/>
<path class="Clef" d="M203.623,1373.86 L203.623,1371.72 C203.56,1370.61 203.399,1368.89 203.139,1366.55 C199.889,1367.07 196.993,1367.33 194.451,1367.33 C185.337,1367.33 177.605,1363.73 171.256,1356.53 C164.907,1349.33 161.732,1340.75 161.732,1330.8 C161.732,1328.13 162.253,1324.92 163.295,1321.18 C164.337,1317.43 165.297,1314.93 166.178,1313.65 C167.058,1312.38 168.378,1310.15 170.139,1306.97 C170.659,1305.99 172.352,1303.84 175.217,1300.51 C175.738,1299.81 176.193,1299.22 176.584,1298.76 C176.975,1298.31 177.607,1297.49 178.482,1296.32 C179.357,1295.15 180.3,1294.06 181.31,1293.05 C182.321,1292.04 183.217,1291.06 183.998,1290.12 C184.779,1289.17 185.498,1288.38 186.154,1287.73 C183.81,1279.98 182.378,1274.02 181.857,1269.86 C181.337,1265.69 181.076,1260.58 181.076,1254.52 C181.076,1248.46 182.378,1242.96 184.982,1238.01 C187.514,1232.88 191.06,1228.68 195.623,1225.42 C195.883,1225.22 196.225,1225.12 196.646,1225.12 C197.068,1225.12 197.378,1225.22 197.576,1225.42 C201.087,1229.65 204.128,1235.15 206.701,1241.92 C209.274,1248.69 210.56,1255.02 210.56,1260.92 C210.56,1266.82 209.066,1272.5 206.076,1277.97 C202.691,1283.76 198.326,1289.75 192.982,1295.94 C194.347,1300.23 196.17,1306.96 198.451,1316.14 L199.045,1316.14 C199.305,1316.08 199.529,1316.05 199.717,1316.05 C207.081,1316.05 213.089,1318.63 217.74,1323.81 C222.391,1328.99 224.717,1334.96 224.717,1341.73 C224.717,1350.13 221.238,1356.9 214.279,1362.05 C212.258,1363.55 209.878,1364.72 207.139,1365.56 C207.472,1369.79 207.639,1372.61 207.639,1374.01 C207.639,1375.41 207.571,1377.9 207.435,1381.48 C207.373,1387.6 205.29,1392.84 201.185,1397.2 C197.081,1401.57 192.394,1403.75 187.123,1403.75 C181.852,1403.75 177.36,1401.88 173.646,1398.13 C169.933,1394.39 168.076,1389.85 168.076,1384.51 C168.076,1381.71 169.154,1379.33 171.31,1377.37 C173.519,1375.43 176.006,1374.45 178.771,1374.45 C181.537,1374.45 183.8,1375.46 185.56,1377.48 C187.383,1379.37 188.295,1381.64 188.295,1384.31 C188.295,1386.98 187.383,1389.22 185.56,1391.05 C183.738,1392.87 181.555,1393.78 179.014,1393.78 C177.972,1393.78 176.967,1393.59 175.998,1393.2 C178.863,1397.43 182.54,1399.55 187.029,1399.55 C191.519,1399.55 195.36,1397.69 198.553,1393.98 C201.745,1390.27 203.342,1385.91 203.342,1380.89 L203.623,1373.86 M206.748,1361.56 C210.133,1360.32 212.821,1358.12 214.81,1354.97 C216.8,1351.81 217.795,1348.67 217.795,1345.55 C217.795,1340.92 216.199,1336.79 213.006,1333.14 C209.813,1329.49 205.774,1327.44 200.889,1326.98 C203.691,1340.72 205.644,1352.25 206.748,1361.56 M168.967,1339 C168.967,1345.45 171.537,1351.08 176.678,1355.9 C181.818,1360.71 187.842,1363.12 194.748,1363.12 C197.477,1363.12 200.144,1362.93 202.748,1362.53 C201.706,1352.63 199.654,1340.79 196.592,1326.98 C192.758,1327.38 189.782,1328.7 187.662,1330.94 C185.542,1333.19 184.482,1335.74 184.482,1338.61 C184.482,1343.56 187.123,1347.56 192.404,1350.62 C192.852,1350.88 193.076,1351.32 193.076,1351.94 C193.076,1352.56 192.865,1353.1 192.443,1353.55 C192.021,1354.01 191.649,1354.23 191.326,1354.23 C191.003,1354.23 190.581,1354.17 190.06,1354.05 C182.435,1349.88 178.623,1343.59 178.623,1335.19 C178.623,1331.22 180.024,1327.41 182.826,1323.76 C185.753,1320.12 189.56,1317.77 194.248,1316.73 C192.425,1309.44 190.93,1303.74 189.764,1299.64 C180.847,1309.67 175.31,1317.09 173.154,1321.9 C170.363,1328.15 168.967,1333.85 168.967,1339 M201.576,1239.69 C196.691,1242.09 192.834,1245.57 190.006,1250.13 C187.178,1254.69 185.764,1259.47 185.764,1264.48 C185.764,1269.49 186.935,1275.97 189.279,1283.92 C193.967,1278.25 197.514,1272.95 199.92,1268 C202.326,1263.05 203.529,1258.15 203.529,1253.3 C203.529,1248.45 202.878,1243.92 201.576,1239.69"/>
<path class="TimeSig" d="M273.021,317.912 C274.516,317.912 275.949,317.686 277.318,317.232 C278.688,316.779 279.665,316.553 280.248,316.553 C280.831,316.553 281.222,316.907 281.42,317.615 C281.42,317.688 281.352,317.886 281.217,318.209 L252.811,351.225 L269.498,351.225 L269.498,338.131 C269.498,336.506 270.446,335.334 272.342,334.615 C274.29,333.897 276.503,331.001 278.982,325.928 C279.17,325.532 279.462,325.334 279.857,325.334 C280.639,325.334 281.092,325.792 281.217,326.709 L281.217,351.225 L288.357,351.225 C289.264,351.225 289.751,351.712 289.818,352.686 C289.886,353.66 289.399,354.147 288.357,354.147 L281.217,354.147 L281.217,354.928 C281.217,357.532 281.868,359.746 283.17,361.568 C284.67,363.391 286.43,364.303 288.451,364.303 C289.232,364.303 289.623,364.693 289.623,365.475 C289.623,366.256 289.087,366.647 288.014,366.647 C286.941,366.647 284.938,366.436 282.006,366.014 C279.074,365.592 276.811,365.381 275.217,365.381 C273.623,365.381 271.41,365.592 268.576,366.014 C265.743,366.436 263.613,366.647 262.186,366.647 C261.404,366.647 261.014,366.256 261.014,365.475 C261.014,364.693 261.404,364.303 262.186,364.303 C264.196,364.303 265.951,363.391 267.451,361.568 C268.816,359.683 269.498,357.469 269.498,354.928 L269.498,354.147 L252.811,354.147 C251.956,354.147 251.219,353.92 250.6,353.467 C249.98,353.014 249.67,352.592 249.67,352.201 C249.67,351.811 250.485,350.639 252.115,348.686 C253.745,346.732 256.074,342.972 259.1,337.404 C262.126,331.837 263.639,325.438 263.639,318.209 C263.639,317.167 264.097,316.647 265.014,316.647 C265.212,316.647 265.521,316.712 265.943,316.842 C266.365,316.972 267.277,317.183 268.678,317.475 C270.079,317.766 271.527,317.912 273.021,317.912"/>
<path class="TimeSig" d="M273.021,368.084 C274.516,368.084 275.949,367.858 277.318,367.404 C278.688,366.951 279.665,366.725 280.248,366.725 C280.831,366.725 281.222,367.079 281.42,367.787 C281.42,367.86 281.352,368.058 281.217,368.381 L252.811,401.397 L269.498,401.397 L269.498,388.303 C269.498,386.678 270.446,385.506 272.342,384.787 C274.29,384.068 276.503,381.173 278.982,376.1 C279.17,375.704 279.462,375.506 279.857,375.506 C280.639,375.506 281.092,375.964 281.217,376.881 L281.217,401.397 L288.357,401.397 C289.264,401.397 289.751,401.884 289.818,402.858 C289.886,403.831 289.399,404.318 288.357,404.318 L281.217,404.318 L281.217,405.1 C281.217,407.704 281.868,409.917 283.17,411.74 C284.67,413.563 286.43,414.475 288.451,414.475 C289.232,414.475 289.623,414.865 289.623,415.647 C289.623,416.428 289.087,416.818 288.014,416.818 C286.941,416.818 284.938,416.608 282.006,416.186 C279.074,415.764 276.811,415.553 275.217,415.553 C273.623,415.553 271.41,415.764 268.576,416.186 C265.743,416.608 263.613,416.818 262.186,416.818 C261.404,416.818 261.014,416.428 261.014,415.647 C261.014,414.865 261.404,414.475 262.186,414.475 C264.196,414.475 265.951,413.563 267.451,411.74 C268.816,409.855 269.498,407.641 269.498,405.1 L269.498,404.318 L252.811,404.318 C251.956,404.318 251.219,404.092 250.6,403.639 C249.98,403.186 249.67,402.764 249.67,402.373 C249.67,401.983 250.485,400.811 252.115,398.858 C253.745,396.904 256.074,393.144 259.1,387.576 C262.126,382.009 263.639,375.61 263.639,368.381 C263.639,367.339 264.097,366.818 265.014,366.818 C265.212,366.818 265.521,366.884 265.943,367.014 C266.365,367.144 267.277,367.355 268.678,367.647 C270.079,367.938 271.527,368.084 273.021,368.084"/>
<path class="Rest" d="M2354.27,1791.73 L2318.72,1791.73 C2318.07,1791.73 2317.74,1791.41 2317.74,1790.75 L2317.74,1777.08 C2317.74,1776.43 2318.07,1776.11 2318.72,1776.11 L2354.27,1776.11 C2354.91,1776.11 2355.24,1776.43 2355.24,1777.08 L2355.24,1790.75 C2355.24,1791.41 2354.91,1791.73 2354.27,1791.73"/>
<path class="Rest" d="M2211.32,366.733 L2175.77,366.733 C2175.11,366.733 2174.78,366.404 2174.78,365.748 L2174.78,352.076 C2174.78,351.43 2175.11,351.108 2175.77,351.108 L2211.32,351.108 C2211.96,351.108 2212.28,351.43 2212.28,352.076 L2212.28,365.748 C2212.28,366.404 2211.96,366.733 2211.32,366.733"/>
<path class="Rest" d="M2224.73,836.452 C2224.08,835.608 2223.75,834.696 2223.75,833.717 C2223.75,831.967 2225.84,829.53 2230.01,826.405 C2234.11,823.207 2236.15,819.561 2236.15,815.467 C2236.15,813.051 2235.31,810.837 2233.62,808.827 L2230.11,804.623 C2229.85,804.363 2229.72,804.037 2229.72,803.647 C2229.72,803.256 2229.91,802.899 2230.3,802.577 C2230.75,802.243 2231.18,802.077 2231.57,802.077 C2231.96,802.077 2232.29,802.274 2232.55,802.67 L2247.69,820.639 C2248.33,821.483 2248.65,822.41 2248.65,823.42 C2248.65,824.431 2248.12,825.522 2247.05,826.694 C2245.97,827.866 2244.46,829.233 2242.51,830.795 C2241.01,831.702 2239.6,833.131 2238.26,835.084 C2236.93,837.037 2236.26,839.254 2236.26,841.733 C2236.26,844.212 2237.05,846.394 2238.61,848.28 L2247,858.139 C2247.2,858.337 2247.33,858.662 2247.39,859.116 C2247.45,859.569 2247.29,859.959 2246.9,860.287 C2246.51,860.616 2246.2,860.78 2245.98,860.78 C2245.75,860.78 2245.17,860.405 2244.22,859.655 C2243.27,858.905 2241.93,858.173 2240.21,857.459 C2238.49,856.746 2236.78,856.389 2235.08,856.389 C2233.39,856.389 2232.06,856.845 2231.08,857.756 C2230.11,858.668 2229.62,860.767 2229.62,864.053 C2229.62,867.34 2230.57,870.123 2232.45,872.405 C2232.65,872.665 2232.68,872.957 2232.55,873.28 C2232.42,873.603 2232.16,873.764 2231.77,873.764 C2231.38,873.764 2230.39,872.561 2228.79,870.155 C2227.19,867.748 2225.66,864.899 2224.19,861.608 C2222.73,858.316 2222,855.566 2222,853.358 C2222,850.556 2223.43,849.155 2226.3,849.155 C2229.16,849.155 2233.04,850.196 2237.92,852.28 L2224.73,836.452 "/>
<path class="Rest" d="M1964.54,836.452 C1963.88,835.608 1963.55,834.696 1963.55,833.717 C1963.55,831.967 1965.64,829.53 1969.82,826.405 C1973.91,823.207 1975.96,819.561 1975.96,815.467 C1975.96,813.051 1975.11,810.837 1973.43,808.827 L1969.91,804.623 C1969.65,804.363 1969.52,804.037 1969.52,803.647 C1969.52,803.256 1969.71,802.899 1970.1,802.577 C1970.56,802.243 1970.98,802.077 1971.37,802.077 C1971.76,802.077 1972.09,802.274 1972.35,802.67 L1987.49,820.639 C1988.14,821.483 1988.46,822.41 1988.46,823.42 C1988.46,824.431 1987.92,825.522 1986.85,826.694 C1985.78,827.866 1984.27,829.233 1982.32,830.795 C1980.82,831.702 1979.4,833.131 1978.07,835.084 C1976.73,837.037 1976.07,839.254 1976.07,841.733 C1976.07,844.212 1976.85,846.394 1978.41,848.28 L1986.8,858.139 C1987,858.337 1987.13,858.662 1987.19,859.116 C1987.26,859.569 1987.09,859.959 1986.7,860.287 C1986.31,860.616 1986,860.78 1985.78,860.78 C1985.55,860.78 1984.97,860.405 1984.02,859.655 C1983.07,858.905 1981.74,858.173 1980.01,857.459 C1978.29,856.746 1976.58,856.389 1974.89,856.389 C1973.2,856.389 1971.86,856.845 1970.89,857.756 C1969.91,858.668 1969.43,860.767 1969.43,864.053 C1969.43,867.34 1970.37,870.123 1972.26,872.405 C1972.45,872.665 1972.49,872.957 1972.36,873.28 C1972.23,873.603 1971.97,873.764 1971.58,873.764 C1971.18,873.764 1970.19,872.561 1968.59,870.155 C1966.99,867.748 1965.46,864.899 1964,861.608 C1962.53,858.316 1961.8,855.566 1961.8,853.358 C1961.8,850.556 1963.23,849.155 1966.1,849.155 C1968.96,849.155 1972.84,850.196 1977.72,852.28 L1964.54,836.452 "/>
<path class="Beam" fill-rule="evenodd" d="M339.873,379.233 L497.637,379.233 L497.637,391.733 L339.873,391.733 L339.873,379.233 "/>
<path class="Beam" fill-rule="evenodd" d="M677.901,354.232 L1144.69,354.232 L1144.69,366.733 L677.901,366.733 L677.901,354.232 "/>
<path class="Beam" fill-rule="evenodd" d="M981.091,829.233 L1504.73,829.233 L1504.73,841.733 L981.091,841.733 L981.091,829.233 "/>
<path class="Beam" fill-rule="evenodd" d="M1295.96,354.232 L1762.75,354.232 L1762.75,366.733 L1295.96,366.733 L1295.96,354.232 "/>
<path class="Beam" fill-rule="evenodd" d="M2522.44,379.233 L2680.2,379.233 L2680.2,391.733 L2522.44,391.733 L2522.44,379.233 "/>
<path class="Beam" fill-rule="evenodd" d="M287.232,829.233 L810.876,829.233 L810.876,841.733 L287.232,841.733 L287.232,829.233 "/>
<path class="Beam" fill-rule="evenodd" d="M249.482,1779.23 L896.708,1785.48 L896.708,1797.98 L249.482,1791.73 L249.482,1779.23 "/>
<path class="Beam" fill-rule="evenodd" d="M2484.54,829.233 L2661.25,829.233 L2661.25,841.733 L2484.54,841.733 L2484.54,829.233 "/>
<path class="Beam" fill-rule="evenodd" d="M1108.12,1785.48 L1755.34,1785.48 L1755.34,1797.98 L1108.12,1797.98 L1108.12,1785.48 "/>
<path class="Beam" fill-rule="evenodd" d="M249.482,1304.23 L731.417,1304.23 L731.417,1316.73 L249.482,1316.73 L249.482,1304.23 "/>
<path class="Beam" fill-rule="evenodd" d="M887.729,1310.48 L1369.66,1304.23 L1369.66,1316.73 L887.729,1322.98 L887.729,1310.48 "/>
<path class="Beam" fill-rule="evenodd" d="M1554.98,1304.23 L2036.91,1310.48 L2036.91,1322.98 L1554.98,1316.73 L1554.98,1304.23 "/>
<path class="Beam" fill-rule="evenodd" d="M2193.22,1310.48 L2675.16,1304.23 L2675.16,1316.73 L2193.22,1322.98 L2193.22,1310.48 "/>
</svg>
