<?xml version="1.0" encoding="UTF-8" standalone="no"?>
<svg width="2977.2px" height="4208.4px" viewBox="0 0 2977.2 4208.4"
 xmlns="http://www.w3.org/2000/svg" xmlns:xlink="http://www.w3.org/1999/xlink" version="1.2" baseProfile="tiny">
<title>C_Major_Scale_Patterns_12.mscx</title>
<desc>Generated by MuseScore Studio 4.3.1</desc>
<path class="" fill="#ffffff" fill-rule="evenodd" d="M0,0 L2977.2,0 L2977.2,4208.4 L0,4208.4 L0,0 "/>
<polyline class="StaffLines" fill="none" stroke="#000000" stroke-width="2.00" stroke-linejoin="bevel" points="141.732,566.733 2835.47,566.733"/>
<polyline class="StaffLines" fill="none" stroke="#000000" stroke-width="2.00" stroke-linejoin="bevel" points="141.732,591.733 2835.47,591.733"/>
<polyline class="StaffLines" fill="none" stroke="#000000" stroke-width="2.00" stroke-linejoin="bevel" points="141.732,616.733 2835.47,616.733"/>
<polyline class="StaffLines" fill="none" stroke="#000000" stroke-width="2.00" stroke-linejoin="bevel" points="141.732,641.733 2835.47,641.733"/>
<polyline class="StaffLines" fill="none" stroke="#000000" stroke-width="2.00" stroke-linejoin="bevel" points="141.732,666.733 2835.47,666.733"/>
<polyline class="BarLine" fill="none" stroke="#000000" stroke-width="4.00" stroke-linejoin="bevel" points="2180.03,565.733 2180.03,667.733"/>
<polyline class="BarLine" fill="none" stroke="#000000" stroke-width="4.00" stroke-linejoin="bevel" points="934.658,565.733 934.658,667.733"/>
<polyline class="BarLine" fill="none" stroke="#000000" stroke-width="4.00" stroke-linejoin="bevel" points="727.095,565.733 727.095,667.733"/>
<polyline class="BarLine" fill="none" stroke="#000000" stroke-width="4.00" stroke-linejoin="bevel" points="1972.47,565.733 1972.47,667.733"/>
<polyline class="BarLine" fill="none" stroke="#000000" stroke-width="4.00" stroke-linejoin="bevel" points="1764.91,565.733 1764.91,667.733"/>
<polyline class="BarLine" fill="none" stroke="#000000" stroke-width="4.00" stroke-linejoin="bevel" points="1142.22,565.733 1142.22,667.733"/>
<polyline class="BarLine" fill="none" stroke="#000000" stroke-width="4.00" stroke-linejoin="bevel" points="519.533,565.733 519.533,667.733"/>
<polyline class="BarLine" fill="none" stroke="#000000" stroke-width="4.00" stroke-linejoin="bevel" points="2387.59,565.733 2387.59,667.733"/>
<polyline class="BarLine" fill="none" stroke="#000000" stroke-width="4.00" stroke-linejoin="bevel" points="1557.34,565.733 1557.34,667.733"/>
<polyline class="BarLine" fill="none" stroke="#000000" stroke-width="4.00" stroke-linejoin="bevel" points="2595.16,565.733 2595.16,667.733"/>
<polyline class="BarLine" fill="none" stroke="#000000" stroke-width="4.00" stroke-linejoin="bevel" points="2802.72,565.733 2802.72,667.733"/>
<polyline class="BarLine" fill="none" stroke="#000000" stroke-width="12.50" stroke-linejoin="bevel" points="2829.22,565.733 2829.22,667.733"/>
<polyline class="BarLine" fill="none" stroke="#000000" stroke-width="4.00" stroke-linejoin="bevel" points="1349.78,565.733 1349.78,667.733"/>
<polyline class="LedgerLine" fill="none" stroke="#000000" stroke-width="4.00" stroke-linejoin="bevel" points="1574.84,541.733 1628.56,541.733"/>
<polyline class="LedgerLine" fill="none" stroke="#000000" stroke-width="4.00" stroke-linejoin="bevel" points="1367.28,541.733 1421,541.733"/>
<polyline class="LedgerLine" fill="none" stroke="#000000" stroke-width="4.00" stroke-linejoin="bevel" points="1367.28,516.733 1421,516.733"/>
<polyline class="LedgerLine" fill="none" stroke="#000000" stroke-width="4.00" stroke-linejoin="bevel" points="1367.28,491.733 1421,491.733"/>
<polyline class="LedgerLine" fill="none" stroke="#000000" stroke-width="4.00" stroke-linejoin="bevel" points="1456.11,541.733 1509.83,541.733"/>
<polyline class="LedgerLine" fill="none" stroke="#000000" stroke-width="4.00" stroke-linejoin="bevel" points="1456.11,516.733 1509.83,516.733"/>
<polyline class="LedgerLine" fill="none" stroke="#000000" stroke-width="4.00" stroke-linejoin="bevel" points="1456.11,466.733 1509.83,466.733"/>
<polyline class="LedgerLine" fill="none" stroke="#000000" stroke-width="4.00" stroke-linejoin="bevel" points="2078.8,541.733 2132.52,541.733"/>
<polyline class="LedgerLine" fill="none" stroke="#000000" stroke-width="4.00" stroke-linejoin="bevel" points="1871.24,516.733 1924.96,516.733"/>
<polyline class="LedgerLine" fill="none" stroke="#000000" stroke-width="4.00" stroke-linejoin="bevel" points="1574.84,516.733 1628.56,516.733"/>
<polyline class="LedgerLine" fill="none" stroke="#000000" stroke-width="4.00" stroke-linejoin="bevel" points="1574.84,491.733 1628.56,491.733"/>
<polyline class="LedgerLine" fill="none" stroke="#000000" stroke-width="4.00" stroke-linejoin="bevel" points="1663.67,541.733 1717.39,541.733"/>
<polyline class="LedgerLine" fill="none" stroke="#000000" stroke-width="4.00" stroke-linejoin="bevel" points="1663.67,516.733 1717.39,516.733"/>
<polyline class="LedgerLine" fill="none" stroke="#000000" stroke-width="4.00" stroke-linejoin="bevel" points="1663.67,491.733 1717.39,491.733"/>
<polyline class="LedgerLine" fill="none" stroke="#000000" stroke-width="4.00" stroke-linejoin="bevel" points="1989.97,541.733 2043.69,541.733"/>
<polyline class="LedgerLine" fill="none" stroke="#000000" stroke-width="4.00" stroke-linejoin="bevel" points="1456.11,491.733 1509.83,491.733"/>
<polyline class="LedgerLine" fill="none" stroke="#000000" stroke-width="4.00" stroke-linejoin="bevel" points="1782.41,541.733 1836.13,541.733"/>
<polyline class="LedgerLine" fill="none" stroke="#000000" stroke-width="4.00" stroke-linejoin="bevel" points="1782.41,516.733 1836.13,516.733"/>
<polyline class="LedgerLine" fill="none" stroke="#000000" stroke-width="4.00" stroke-linejoin="bevel" points="1871.24,541.733 1924.96,541.733"/>
<polyline class="LedgerLine" fill="none" stroke="#000000" stroke-width="4.00" stroke-linejoin="bevel" points="1248.55,491.733 1302.27,491.733"/>
<polyline class="LedgerLine" fill="none" stroke="#000000" stroke-width="4.00" stroke-linejoin="bevel" points="1248.55,516.733 1302.27,516.733"/>
<polyline class="LedgerLine" fill="none" stroke="#000000" stroke-width="4.00" stroke-linejoin="bevel" points="1248.55,541.733 1302.27,541.733"/>
<polyline class="LedgerLine" fill="none" stroke="#000000" stroke-width="4.00" stroke-linejoin="bevel" points="833.425,541.733 887.144,541.733"/>
<polyline class="LedgerLine" fill="none" stroke="#000000" stroke-width="4.00" stroke-linejoin="bevel" points="952.158,541.733 1005.88,541.733"/>
<polyline class="LedgerLine" fill="none" stroke="#000000" stroke-width="4.00" stroke-linejoin="bevel" points="1159.72,516.733 1213.44,516.733"/>
<polyline class="LedgerLine" fill="none" stroke="#000000" stroke-width="4.00" stroke-linejoin="bevel" points="1159.72,541.733 1213.44,541.733"/>
<polyline class="LedgerLine" fill="none" stroke="#000000" stroke-width="4.00" stroke-linejoin="bevel" points="1040.99,541.733 1094.71,541.733"/>
<polyline class="LedgerLine" fill="none" stroke="#000000" stroke-width="4.00" stroke-linejoin="bevel" points="1040.99,516.733 1094.71,516.733"/>
<polyline class="Stem" fill="none" stroke="#000000" stroke-width="3.25" stroke-linejoin="bevel" points="1793.53,509.133 1793.53,616.733"/>
<polyline class="Stem" fill="none" stroke="#000000" stroke-width="3.25" stroke-linejoin="bevel" points="1378.41,484.133 1378.41,616.733"/>
<polyline class="Stem" fill="none" stroke="#000000" stroke-width="3.25" stroke-linejoin="bevel" points="844.55,546.633 844.55,629.233"/>
<polyline class="Stem" fill="none" stroke="#000000" stroke-width="3.25" stroke-linejoin="bevel" points="1882.36,521.633 1882.36,616.733"/>
<polyline class="Stem" fill="none" stroke="#000000" stroke-width="3.25" stroke-linejoin="bevel" points="755.72,559.133 755.72,641.733"/>
<polyline class="Stem" fill="none" stroke="#000000" stroke-width="3.25" stroke-linejoin="bevel" points="636.988,571.633 636.988,654.233"/>
<polyline class="Stem" fill="none" stroke="#000000" stroke-width="3.25" stroke-linejoin="bevel" points="2001.09,534.133 2001.09,616.733"/>
<polyline class="Stem" fill="none" stroke="#000000" stroke-width="3.25" stroke-linejoin="bevel" points="2089.92,546.633 2089.92,629.233"/>
<polyline class="Stem" fill="none" stroke="#000000" stroke-width="3.25" stroke-linejoin="bevel" points="548.158,584.133 548.158,666.733"/>
<polyline class="Stem" fill="none" stroke="#000000" stroke-width="3.25" stroke-linejoin="bevel" points="429.426,596.633 429.426,679.233"/>
<polyline class="Stem" fill="none" stroke="#000000" stroke-width="3.25" stroke-linejoin="bevel" points="2208.66,559.133 2208.66,641.733"/>
<polyline class="Stem" fill="none" stroke="#000000" stroke-width="3.25" stroke-linejoin="bevel" points="2297.49,571.633 2297.49,654.233"/>
<polyline class="Stem" fill="none" stroke="#000000" stroke-width="3.25" stroke-linejoin="bevel" points="340.596,609.133 340.596,685.483"/>
<polyline class="Stem" fill="none" stroke="#000000" stroke-width="3.25" stroke-linejoin="bevel" points="2416.22,584.133 2416.22,666.733"/>
<polyline class="Stem" fill="none" stroke="#000000" stroke-width="3.25" stroke-linejoin="bevel" points="2505.05,596.633 2505.05,679.233"/>
<polyline class="Stem" fill="none" stroke="#000000" stroke-width="3.25" stroke-linejoin="bevel" points="2623.78,609.133 2623.78,685.483"/>
<polyline class="Stem" fill="none" stroke="#000000" stroke-width="3.25" stroke-linejoin="bevel" points="963.283,534.133 963.283,616.733"/>
<polyline class="Stem" fill="none" stroke="#000000" stroke-width="3.25" stroke-linejoin="bevel" points="1170.84,509.133 1170.84,616.733"/>
<polyline class="Stem" fill="none" stroke="#000000" stroke-width="3.25" stroke-linejoin="bevel" points="1585.97,484.133 1585.97,616.733"/>
<polyline class="Stem" fill="none" stroke="#000000" stroke-width="3.25" stroke-linejoin="bevel" points="1259.67,496.633 1259.67,616.733"/>
<polyline class="Stem" fill="none" stroke="#000000" stroke-width="3.25" stroke-linejoin="bevel" points="1467.24,471.633 1467.24,616.733"/>
<polyline class="Stem" fill="none" stroke="#000000" stroke-width="3.25" stroke-linejoin="bevel" points="1674.8,496.633 1674.8,616.733"/>
<polyline class="Stem" fill="none" stroke="#000000" stroke-width="3.25" stroke-linejoin="bevel" points="1052.11,521.633 1052.11,616.733"/>
<path class="Note" d="M1384.2,489.873 C1386.09,489.873 1390.05,487.92 1396.07,484.014 C1402.1,480.108 1405.65,477.488 1406.72,476.154 C1407.79,474.821 1408.33,473.634 1408.33,472.592 C1408.33,471.55 1407.9,470.623 1407.06,469.811 C1406.21,468.998 1405.23,468.592 1404.13,468.592 C1402.18,468.592 1398.19,470.561 1392.17,474.498 C1386.14,478.436 1382.61,481.055 1381.56,482.358 C1380.52,483.66 1380,484.832 1380,485.873 C1380,486.915 1380.41,487.842 1381.23,488.654 C1382.05,489.467 1383.04,489.873 1384.2,489.873 M1403.16,465.467 C1408.75,465.467 1411.55,467.873 1411.55,472.686 C1411.55,475.029 1410.87,477.748 1409.5,480.842 C1408.14,483.936 1406.31,486.295 1404.03,487.92 C1399.02,491.305 1392.74,492.998 1385.19,492.998 C1379.58,492.998 1376.78,490.592 1376.78,485.779 C1376.78,483.634 1377.45,480.964 1378.78,477.772 C1380.12,474.579 1381.95,472.17 1384.3,470.545 C1389.32,467.16 1395.61,465.467 1403.16,465.467"/>
<path class="Note" d="M2422.02,589.873 C2423.9,589.873 2427.86,587.92 2433.88,584.014 C2439.91,580.108 2443.46,577.488 2444.53,576.155 C2445.6,574.821 2446.14,573.634 2446.14,572.592 C2446.14,571.55 2445.72,570.623 2444.87,569.811 C2444.02,568.998 2443.04,568.592 2441.94,568.592 C2439.99,568.592 2436,570.561 2429.98,574.498 C2423.95,578.436 2420.42,581.056 2419.38,582.358 C2418.33,583.66 2417.81,584.832 2417.81,585.873 C2417.81,586.915 2418.22,587.842 2419.04,588.655 C2419.86,589.467 2420.85,589.873 2422.02,589.873 M2440.97,565.467 C2446.56,565.467 2449.36,567.873 2449.36,572.686 C2449.36,575.03 2448.68,577.748 2447.31,580.842 C2445.95,583.936 2444.13,586.295 2441.84,587.92 C2436.83,591.306 2430.55,592.998 2423,592.998 C2417.4,592.998 2414.59,590.592 2414.59,585.78 C2414.59,583.634 2415.26,580.964 2416.59,577.772 C2417.93,574.579 2419.77,572.17 2422.11,570.545 C2427.13,567.16 2433.42,565.467 2440.97,565.467"/>
<path class="Note" d="M2510.85,602.373 C2512.73,602.373 2516.69,600.42 2522.71,596.514 C2528.74,592.608 2532.29,589.988 2533.36,588.655 C2534.43,587.321 2534.97,586.134 2534.97,585.092 C2534.97,584.05 2534.55,583.123 2533.7,582.311 C2532.85,581.498 2531.87,581.092 2530.77,581.092 C2528.82,581.092 2524.83,583.061 2518.81,586.998 C2512.78,590.936 2509.25,593.556 2508.2,594.858 C2507.16,596.16 2506.64,597.332 2506.64,598.373 C2506.64,599.415 2507.05,600.342 2507.87,601.155 C2508.69,601.967 2509.68,602.373 2510.85,602.373 M2529.8,577.967 C2535.39,577.967 2538.19,580.373 2538.19,585.186 C2538.19,587.53 2537.51,590.248 2536.14,593.342 C2534.78,596.436 2532.95,598.795 2530.67,600.42 C2525.66,603.806 2519.38,605.498 2511.83,605.498 C2506.23,605.498 2503.42,603.092 2503.42,598.28 C2503.42,596.134 2504.09,593.464 2505.42,590.272 C2506.76,587.079 2508.6,584.67 2510.94,583.045 C2515.96,579.66 2522.25,577.967 2529.8,577.967"/>
<path class="Note" d="M1265.47,502.373 C1267.36,502.373 1271.31,500.42 1277.34,496.514 C1283.37,492.608 1286.91,489.988 1287.99,488.654 C1289.06,487.321 1289.6,486.134 1289.6,485.092 C1289.6,484.05 1289.17,483.123 1288.32,482.311 C1287.47,481.498 1286.5,481.092 1285.39,481.092 C1283.45,481.092 1279.46,483.061 1273.43,486.998 C1267.41,490.936 1263.87,493.555 1262.83,494.858 C1261.79,496.16 1261.27,497.332 1261.27,498.373 C1261.27,499.415 1261.68,500.342 1262.5,501.154 C1263.31,501.967 1264.31,502.373 1265.47,502.373 M1284.42,477.967 C1290.02,477.967 1292.82,480.373 1292.82,485.186 C1292.82,487.529 1292.13,490.248 1290.77,493.342 C1289.4,496.436 1287.58,498.795 1285.3,500.42 C1280.29,503.805 1274.01,505.498 1266.46,505.498 C1260.85,505.498 1258.05,503.092 1258.05,498.279 C1258.05,496.134 1258.72,493.464 1260.05,490.272 C1261.38,487.079 1263.22,484.67 1265.57,483.045 C1270.59,479.66 1276.87,477.967 1284.42,477.967"/>
<path class="Note" d="M346.393,614.873 C348.278,614.873 352.234,612.92 358.26,609.014 C364.286,605.108 367.835,602.488 368.908,601.155 C369.981,599.821 370.518,598.634 370.518,597.592 C370.518,596.55 370.093,595.623 369.244,594.811 C368.395,593.998 367.419,593.592 366.315,593.592 C364.367,593.592 360.38,595.561 354.354,599.498 C348.328,603.436 344.794,606.056 343.752,607.358 C342.71,608.66 342.19,609.832 342.19,610.873 C342.19,611.915 342.598,612.842 343.416,613.655 C344.234,614.467 345.226,614.873 346.393,614.873 M365.346,590.467 C370.94,590.467 373.736,592.873 373.736,597.686 C373.736,600.03 373.054,602.748 371.69,605.842 C370.325,608.936 368.502,611.295 366.221,612.92 C361.21,616.306 354.929,617.998 347.377,617.998 C341.773,617.998 338.971,615.592 338.971,610.78 C338.971,608.634 339.637,605.964 340.971,602.772 C342.304,599.579 344.143,597.17 346.486,595.545 C351.507,592.16 357.794,590.467 365.346,590.467"/>
<path class="Note" d="M2303.28,577.373 C2305.17,577.373 2309.12,575.42 2315.15,571.514 C2321.18,567.608 2324.73,564.988 2325.8,563.655 C2326.87,562.321 2327.41,561.134 2327.41,560.092 C2327.41,559.05 2326.98,558.123 2326.13,557.311 C2325.29,556.498 2324.31,556.092 2323.21,556.092 C2321.26,556.092 2317.27,558.061 2311.24,561.998 C2305.22,565.936 2301.68,568.556 2300.64,569.858 C2299.6,571.16 2299.08,572.332 2299.08,573.373 C2299.08,574.415 2299.49,575.342 2300.31,576.155 C2301.12,576.967 2302.12,577.373 2303.28,577.373 M2322.24,552.967 C2327.83,552.967 2330.63,555.373 2330.63,560.186 C2330.63,562.53 2329.94,565.248 2328.58,568.342 C2327.22,571.436 2325.39,573.795 2323.11,575.42 C2318.1,578.806 2311.82,580.498 2304.27,580.498 C2298.66,580.498 2295.86,578.092 2295.86,573.28 C2295.86,571.134 2296.53,568.464 2297.86,565.272 C2299.19,562.079 2301.03,559.67 2303.38,558.045 C2308.4,554.66 2314.68,552.967 2322.24,552.967"/>
<path class="Note" d="M1176.64,514.873 C1178.53,514.873 1182.48,512.92 1188.51,509.014 C1194.54,505.108 1198.08,502.488 1199.16,501.154 C1200.23,499.821 1200.77,498.634 1200.77,497.592 C1200.77,496.55 1200.34,495.623 1199.49,494.811 C1198.64,493.998 1197.67,493.592 1196.56,493.592 C1194.62,493.592 1190.63,495.561 1184.6,499.498 C1178.58,503.436 1175.04,506.056 1174,507.358 C1172.96,508.66 1172.44,509.832 1172.44,510.873 C1172.44,511.915 1172.85,512.842 1173.67,513.654 C1174.48,514.467 1175.48,514.873 1176.64,514.873 M1195.59,490.467 C1201.19,490.467 1203.99,492.873 1203.99,497.686 C1203.99,500.029 1203.3,502.748 1201.94,505.842 C1200.57,508.936 1198.75,511.295 1196.47,512.92 C1191.46,516.306 1185.18,517.998 1177.63,517.998 C1172.02,517.998 1169.22,515.592 1169.22,510.779 C1169.22,508.634 1169.89,505.964 1171.22,502.772 C1172.55,499.579 1174.39,497.17 1176.74,495.545 C1181.76,492.16 1188.04,490.467 1195.59,490.467"/>
<path class="Note" d="M2629.58,614.873 C2631.46,614.873 2635.42,612.92 2641.45,609.014 C2647.47,605.108 2651.02,602.488 2652.09,601.155 C2653.17,599.821 2653.7,598.634 2653.7,597.592 C2653.7,596.55 2653.28,595.623 2652.43,594.811 C2651.58,593.998 2650.6,593.592 2649.5,593.592 C2647.55,593.592 2643.56,595.561 2637.54,599.498 C2631.51,603.436 2627.98,606.056 2626.94,607.358 C2625.9,608.66 2625.37,609.832 2625.37,610.873 C2625.37,611.915 2625.78,612.842 2626.6,613.655 C2627.42,614.467 2628.41,614.873 2629.58,614.873 M2648.53,590.467 C2654.12,590.467 2656.92,592.873 2656.92,597.686 C2656.92,600.03 2656.24,602.748 2654.87,605.842 C2653.51,608.936 2651.69,611.295 2649.41,612.92 C2644.4,616.306 2638.11,617.998 2630.56,617.998 C2624.96,617.998 2622.16,615.592 2622.16,610.78 C2622.16,608.634 2622.82,605.964 2624.16,602.772 C2625.49,599.579 2627.33,597.17 2629.67,595.545 C2634.69,592.16 2640.98,590.467 2648.53,590.467"/>
<path class="Note" d="M1473.03,477.373 C1474.92,477.373 1478.88,475.42 1484.9,471.514 C1490.93,467.608 1494.48,464.988 1495.55,463.654 C1496.62,462.321 1497.16,461.134 1497.16,460.092 C1497.16,459.05 1496.73,458.123 1495.89,457.311 C1495.04,456.498 1494.06,456.092 1492.96,456.092 C1491.01,456.092 1487.02,458.061 1481,461.998 C1474.97,465.936 1471.44,468.555 1470.39,469.858 C1469.35,471.16 1468.83,472.332 1468.83,473.373 C1468.83,474.415 1469.24,475.342 1470.06,476.154 C1470.88,476.967 1471.87,477.373 1473.03,477.373 M1491.99,452.967 C1497.58,452.967 1500.38,455.373 1500.38,460.186 C1500.38,462.529 1499.7,465.248 1498.33,468.342 C1496.97,471.436 1495.14,473.795 1492.86,475.42 C1487.85,478.805 1481.57,480.498 1474.02,480.498 C1468.41,480.498 1465.61,478.092 1465.61,473.279 C1465.61,471.134 1466.28,468.464 1467.61,465.272 C1468.95,462.079 1470.78,459.67 1473.13,458.045 C1478.15,454.66 1484.44,452.967 1491.99,452.967"/>
<path class="Note" d="M2214.45,564.873 C2216.34,564.873 2220.29,562.92 2226.32,559.014 C2232.35,555.108 2235.9,552.488 2236.97,551.154 C2238.04,549.821 2238.58,548.634 2238.58,547.592 C2238.58,546.55 2238.15,545.623 2237.3,544.811 C2236.46,543.998 2235.48,543.592 2234.38,543.592 C2232.43,543.592 2228.44,545.561 2222.41,549.498 C2216.39,553.436 2212.85,556.056 2211.81,557.358 C2210.77,558.66 2210.25,559.832 2210.25,560.873 C2210.25,561.915 2210.66,562.842 2211.48,563.654 C2212.29,564.467 2213.29,564.873 2214.45,564.873 M2233.41,540.467 C2239,540.467 2241.8,542.873 2241.8,547.686 C2241.8,550.029 2241.11,552.748 2239.75,555.842 C2238.39,558.936 2236.56,561.295 2234.28,562.92 C2229.27,566.306 2222.99,567.998 2215.44,567.998 C2209.83,567.998 2207.03,565.592 2207.03,560.779 C2207.03,558.634 2207.7,555.964 2209.03,552.772 C2210.36,549.579 2212.2,547.17 2214.55,545.545 C2219.57,542.16 2225.85,540.467 2233.41,540.467"/>
<path class="Note" d="M850.347,552.373 C852.233,552.373 856.188,550.42 862.214,546.514 C868.24,542.608 871.79,539.988 872.863,538.654 C873.936,537.321 874.472,536.134 874.472,535.092 C874.472,534.05 874.048,533.123 873.199,532.311 C872.35,531.498 871.373,531.092 870.269,531.092 C868.321,531.092 864.334,533.061 858.308,536.998 C852.282,540.936 848.748,543.556 847.707,544.858 C846.665,546.16 846.144,547.332 846.144,548.373 C846.144,549.415 846.553,550.342 847.371,551.154 C848.188,551.967 849.181,552.373 850.347,552.373 M869.3,527.967 C874.894,527.967 877.691,530.373 877.691,535.186 C877.691,537.529 877.009,540.248 875.644,543.342 C874.279,546.436 872.457,548.795 870.175,550.42 C865.165,553.806 858.884,555.498 851.332,555.498 C845.727,555.498 842.925,553.092 842.925,548.279 C842.925,546.134 843.592,543.464 844.925,540.272 C846.259,537.079 848.097,534.67 850.441,533.045 C855.462,529.66 861.748,527.967 869.3,527.967"/>
<path class="Note" d="M435.223,602.373 C437.108,602.373 441.064,600.42 447.09,596.514 C453.116,592.608 456.665,589.988 457.738,588.655 C458.811,587.321 459.348,586.134 459.348,585.092 C459.348,584.05 458.923,583.123 458.074,582.311 C457.225,581.498 456.249,581.092 455.144,581.092 C453.197,581.092 449.21,583.061 443.184,586.998 C437.158,590.936 433.624,593.556 432.582,594.858 C431.54,596.16 431.019,597.332 431.019,598.373 C431.019,599.415 431.428,600.342 432.246,601.155 C433.064,601.967 434.056,602.373 435.223,602.373 M454.176,577.967 C459.769,577.967 462.566,580.373 462.566,585.186 C462.566,587.53 461.884,590.248 460.519,593.342 C459.155,596.436 457.332,598.795 455.051,600.42 C450.04,603.806 443.759,605.498 436.207,605.498 C430.603,605.498 427.801,603.092 427.801,598.28 C427.801,596.134 428.467,593.464 429.801,590.272 C431.134,587.079 432.973,584.67 435.316,583.045 C440.337,579.66 446.624,577.967 454.176,577.967"/>
<path class="Note" d="M1680.6,502.373 C1682.48,502.373 1686.44,500.42 1692.46,496.514 C1698.49,492.608 1702.04,489.988 1703.11,488.654 C1704.18,487.321 1704.72,486.134 1704.72,485.092 C1704.72,484.05 1704.3,483.123 1703.45,482.311 C1702.6,481.498 1701.62,481.092 1700.52,481.092 C1698.57,481.092 1694.58,483.061 1688.56,486.998 C1682.53,490.936 1679,493.555 1677.96,494.858 C1676.91,496.16 1676.39,497.332 1676.39,498.373 C1676.39,499.415 1676.8,500.342 1677.62,501.154 C1678.44,501.967 1679.43,502.373 1680.6,502.373 M1699.55,477.967 C1705.14,477.967 1707.94,480.373 1707.94,485.186 C1707.94,487.529 1707.26,490.248 1705.89,493.342 C1704.53,496.436 1702.71,498.795 1700.42,500.42 C1695.41,503.805 1689.13,505.498 1681.58,505.498 C1675.98,505.498 1673.17,503.092 1673.17,498.279 C1673.17,496.134 1673.84,493.464 1675.17,490.272 C1676.51,487.079 1678.35,484.67 1680.69,483.045 C1685.71,479.66 1692,477.967 1699.55,477.967"/>
<path class="Note" d="M969.08,539.873 C970.965,539.873 974.921,537.92 980.947,534.014 C986.973,530.108 990.522,527.488 991.595,526.154 C992.668,524.821 993.205,523.634 993.205,522.592 C993.205,521.55 992.78,520.623 991.931,519.811 C991.082,518.998 990.106,518.592 989.001,518.592 C987.053,518.592 983.067,520.561 977.04,524.498 C971.014,528.436 967.481,531.056 966.439,532.358 C965.397,533.66 964.876,534.832 964.876,535.873 C964.876,536.915 965.285,537.842 966.103,538.654 C966.921,539.467 967.913,539.873 969.08,539.873 M988.033,515.467 C993.626,515.467 996.423,517.873 996.423,522.686 C996.423,525.029 995.741,527.748 994.376,530.842 C993.012,533.936 991.189,536.295 988.908,537.92 C983.897,541.306 977.616,542.998 970.064,542.998 C964.46,542.998 961.658,540.592 961.658,535.779 C961.658,533.634 962.324,530.964 963.658,527.772 C964.991,524.579 966.83,522.17 969.173,520.545 C974.194,517.16 980.481,515.467 988.033,515.467"/>
<path class="Note" d="M1799.33,514.873 C1801.21,514.873 1805.17,512.92 1811.2,509.014 C1817.22,505.108 1820.77,502.488 1821.84,501.154 C1822.92,499.821 1823.45,498.634 1823.45,497.592 C1823.45,496.55 1823.03,495.623 1822.18,494.811 C1821.33,493.998 1820.35,493.592 1819.25,493.592 C1817.3,493.592 1813.32,495.561 1807.29,499.498 C1801.26,503.436 1797.73,506.056 1796.69,507.358 C1795.65,508.66 1795.13,509.832 1795.13,510.873 C1795.13,511.915 1795.53,512.842 1796.35,513.654 C1797.17,514.467 1798.16,514.873 1799.33,514.873 M1818.28,490.467 C1823.88,490.467 1826.67,492.873 1826.67,497.686 C1826.67,500.029 1825.99,502.748 1824.63,505.842 C1823.26,508.936 1821.44,511.295 1819.16,512.92 C1814.15,516.306 1807.87,517.998 1800.31,517.998 C1794.71,517.998 1791.91,515.592 1791.91,510.779 C1791.91,508.634 1792.57,505.964 1793.91,502.772 C1795.24,499.579 1797.08,497.17 1799.42,495.545 C1804.44,492.16 1810.73,490.467 1818.28,490.467"/>
<path class="Note" d="M761.517,564.873 C763.403,564.873 767.358,562.92 773.384,559.014 C779.41,555.108 782.96,552.488 784.033,551.154 C785.106,549.821 785.642,548.634 785.642,547.592 C785.642,546.55 785.218,545.623 784.369,544.811 C783.52,543.998 782.543,543.592 781.439,543.592 C779.491,543.592 775.504,545.561 769.478,549.498 C763.452,553.436 759.918,556.056 758.877,557.358 C757.835,558.66 757.314,559.832 757.314,560.873 C757.314,561.915 757.723,562.842 758.541,563.654 C759.358,564.467 760.351,564.873 761.517,564.873 M780.47,540.467 C786.064,540.467 788.861,542.873 788.861,547.686 C788.861,550.029 788.179,552.748 786.814,555.842 C785.45,558.936 783.627,561.295 781.345,562.92 C776.335,566.306 770.054,567.998 762.502,567.998 C756.897,567.998 754.095,565.592 754.095,560.779 C754.095,558.634 754.762,555.964 756.095,552.772 C757.429,549.579 759.267,547.17 761.611,545.545 C766.632,542.16 772.918,540.467 780.47,540.467"/>
<path class="Note" d="M1888.16,527.373 C1890.04,527.373 1894,525.42 1900.03,521.514 C1906.05,517.608 1909.6,514.988 1910.67,513.654 C1911.75,512.321 1912.28,511.134 1912.28,510.092 C1912.28,509.05 1911.86,508.123 1911.01,507.311 C1910.16,506.498 1909.18,506.092 1908.08,506.092 C1906.13,506.092 1902.15,508.061 1896.12,511.998 C1890.09,515.936 1886.56,518.556 1885.52,519.858 C1884.48,521.16 1883.96,522.332 1883.96,523.373 C1883.96,524.415 1884.36,525.342 1885.18,526.154 C1886,526.967 1886.99,527.373 1888.16,527.373 M1907.11,502.967 C1912.71,502.967 1915.5,505.373 1915.5,510.186 C1915.5,512.529 1914.82,515.248 1913.46,518.342 C1912.09,521.436 1910.27,523.795 1907.99,525.42 C1902.98,528.806 1896.7,530.498 1889.14,530.498 C1883.54,530.498 1880.74,528.092 1880.74,523.279 C1880.74,521.134 1881.4,518.464 1882.74,515.272 C1884.07,512.079 1885.91,509.67 1888.25,508.045 C1893.27,504.66 1899.56,502.967 1907.11,502.967"/>
<path class="Note" d="M642.785,577.373 C644.67,577.373 648.626,575.42 654.652,571.514 C660.678,567.608 664.228,564.988 665.301,563.655 C666.373,562.321 666.91,561.134 666.91,560.092 C666.91,559.05 666.485,558.123 665.636,557.311 C664.788,556.498 663.811,556.092 662.707,556.092 C660.759,556.092 656.772,558.061 650.746,561.998 C644.72,565.936 641.186,568.556 640.144,569.858 C639.103,571.16 638.582,572.332 638.582,573.373 C638.582,574.415 638.991,575.342 639.808,576.155 C640.626,576.967 641.618,577.373 642.785,577.373 M661.738,552.967 C667.332,552.967 670.129,555.373 670.129,560.186 C670.129,562.53 669.446,565.248 668.082,568.342 C666.717,571.436 664.894,573.795 662.613,575.42 C657.603,578.806 651.321,580.498 643.769,580.498 C638.165,580.498 635.363,578.092 635.363,573.28 C635.363,571.134 636.03,568.464 637.363,565.272 C638.696,562.079 640.535,559.67 642.879,558.045 C647.899,554.66 654.186,552.967 661.738,552.967"/>
<path class="Note" d="M1591.77,489.873 C1593.65,489.873 1597.61,487.92 1603.63,484.014 C1609.66,480.108 1613.21,477.488 1614.28,476.154 C1615.35,474.821 1615.89,473.634 1615.89,472.592 C1615.89,471.55 1615.47,470.623 1614.62,469.811 C1613.77,468.998 1612.79,468.592 1611.69,468.592 C1609.74,468.592 1605.75,470.561 1599.73,474.498 C1593.7,478.436 1590.17,481.055 1589.13,482.358 C1588.08,483.66 1587.56,484.832 1587.56,485.873 C1587.56,486.915 1587.97,487.842 1588.79,488.654 C1589.61,489.467 1590.6,489.873 1591.77,489.873 M1610.72,465.467 C1616.31,465.467 1619.11,467.873 1619.11,472.686 C1619.11,475.029 1618.43,477.748 1617.06,480.842 C1615.7,483.936 1613.88,486.295 1611.59,487.92 C1606.58,491.305 1600.3,492.998 1592.75,492.998 C1587.15,492.998 1584.34,490.592 1584.34,485.779 C1584.34,483.634 1585.01,480.964 1586.34,477.772 C1587.68,474.579 1589.52,472.17 1591.86,470.545 C1596.88,467.16 1603.17,465.467 1610.72,465.467"/>
<path class="Note" d="M1057.91,527.373 C1059.79,527.373 1063.75,525.42 1069.78,521.514 C1075.8,517.608 1079.35,514.988 1080.43,513.654 C1081.5,512.321 1082.03,511.134 1082.03,510.092 C1082.03,509.05 1081.61,508.123 1080.76,507.311 C1079.91,506.498 1078.94,506.092 1077.83,506.092 C1075.88,506.092 1071.9,508.061 1065.87,511.998 C1059.84,515.936 1056.31,518.556 1055.27,519.858 C1054.23,521.16 1053.71,522.332 1053.71,523.373 C1053.71,524.415 1054.12,525.342 1054.93,526.154 C1055.75,526.967 1056.74,527.373 1057.91,527.373 M1076.86,502.967 C1082.46,502.967 1085.25,505.373 1085.25,510.186 C1085.25,512.529 1084.57,515.248 1083.21,518.342 C1081.84,521.436 1080.02,523.795 1077.74,525.42 C1072.73,528.806 1066.45,530.498 1058.89,530.498 C1053.29,530.498 1050.49,528.092 1050.49,523.279 C1050.49,521.134 1051.15,518.464 1052.49,515.272 C1053.82,512.079 1055.66,509.67 1058,508.045 C1063.02,504.66 1069.31,502.967 1076.86,502.967"/>
<path class="Note" d="M553.955,589.873 C555.84,589.873 559.796,587.92 565.822,584.014 C571.848,580.108 575.398,577.488 576.471,576.155 C577.543,574.821 578.08,573.634 578.08,572.592 C578.08,571.55 577.655,570.623 576.807,569.811 C575.958,568.998 574.981,568.592 573.877,568.592 C571.929,568.592 567.942,570.561 561.916,574.498 C555.89,578.436 552.356,581.056 551.314,582.358 C550.273,583.66 549.752,584.832 549.752,585.873 C549.752,586.915 550.161,587.842 550.978,588.655 C551.796,589.467 552.788,589.873 553.955,589.873 M572.908,565.467 C578.502,565.467 581.299,567.873 581.299,572.686 C581.299,575.03 580.616,577.748 579.252,580.842 C577.887,583.936 576.064,586.295 573.783,587.92 C568.773,591.306 562.491,592.998 554.939,592.998 C549.335,592.998 546.533,590.592 546.533,585.78 C546.533,583.634 547.2,580.964 548.533,577.772 C549.866,574.579 551.705,572.17 554.049,570.545 C559.07,567.16 565.356,565.467 572.908,565.467"/>
<path class="Note" d="M2006.89,539.873 C2008.78,539.873 2012.73,537.92 2018.76,534.014 C2024.78,530.108 2028.33,527.488 2029.41,526.154 C2030.48,524.821 2031.02,523.634 2031.02,522.592 C2031.02,521.55 2030.59,520.623 2029.74,519.811 C2028.89,518.998 2027.92,518.592 2026.81,518.592 C2024.86,518.592 2020.88,520.561 2014.85,524.498 C2008.83,528.436 2005.29,531.056 2004.25,532.358 C2003.21,533.66 2002.69,534.832 2002.69,535.873 C2002.69,536.915 2003.1,537.842 2003.91,538.654 C2004.73,539.467 2005.72,539.873 2006.89,539.873 M2025.84,515.467 C2031.44,515.467 2034.23,517.873 2034.23,522.686 C2034.23,525.029 2033.55,527.748 2032.19,530.842 C2030.82,533.936 2029,536.295 2026.72,537.92 C2021.71,541.306 2015.43,542.998 2007.88,542.998 C2002.27,542.998 1999.47,540.592 1999.47,535.779 C1999.47,533.634 2000.14,530.964 2001.47,527.772 C2002.8,524.579 2004.64,522.17 2006.98,520.545 C2012.01,517.16 2018.29,515.467 2025.84,515.467"/>
<path class="Note" d="M2095.72,552.373 C2097.61,552.373 2101.56,550.42 2107.59,546.514 C2113.61,542.608 2117.16,539.988 2118.24,538.654 C2119.31,537.321 2119.85,536.134 2119.85,535.092 C2119.85,534.05 2119.42,533.123 2118.57,532.311 C2117.72,531.498 2116.75,531.092 2115.64,531.092 C2113.69,531.092 2109.71,533.061 2103.68,536.998 C2097.66,540.936 2094.12,543.556 2093.08,544.858 C2092.04,546.16 2091.52,547.332 2091.52,548.373 C2091.52,549.415 2091.93,550.342 2092.74,551.154 C2093.56,551.967 2094.55,552.373 2095.72,552.373 M2114.67,527.967 C2120.27,527.967 2123.06,530.373 2123.06,535.186 C2123.06,537.529 2122.38,540.248 2121.02,543.342 C2119.65,546.436 2117.83,548.795 2115.55,550.42 C2110.54,553.806 2104.26,555.498 2096.71,555.498 C2091.1,555.498 2088.3,553.092 2088.3,548.279 C2088.3,546.134 2088.97,543.464 2090.3,540.272 C2091.63,537.079 2093.47,534.67 2095.81,533.045 C2100.84,529.66 2107.12,527.967 2114.67,527.967"/>
<path class="Clef" d="M203.623,673.858 L203.623,671.717 C203.56,670.613 203.399,668.889 203.139,666.545 C199.889,667.066 196.993,667.326 194.451,667.326 C185.337,667.326 177.605,663.727 171.256,656.53 C164.907,649.332 161.732,640.754 161.732,630.795 C161.732,628.129 162.253,624.923 163.295,621.178 C164.337,617.433 165.297,614.925 166.178,613.655 C167.058,612.384 168.378,610.155 170.139,606.967 C170.659,605.988 172.352,603.837 175.217,600.514 C175.738,599.806 176.193,599.222 176.584,598.764 C176.975,598.306 177.607,597.49 178.482,596.319 C179.357,595.147 180.3,594.056 181.31,593.045 C182.321,592.035 183.217,591.058 183.998,590.115 C184.779,589.173 185.498,588.379 186.154,587.733 C183.81,579.983 182.378,574.024 181.857,569.858 C181.337,565.691 181.076,560.579 181.076,554.522 C181.076,548.464 182.378,542.962 184.982,538.014 C187.514,532.879 191.06,528.681 195.623,525.42 C195.883,525.222 196.225,525.123 196.646,525.123 C197.068,525.123 197.378,525.222 197.576,525.42 C201.087,529.649 204.128,535.149 206.701,541.92 C209.274,548.691 210.56,555.024 210.56,560.92 C210.56,566.816 209.066,572.498 206.076,577.967 C202.691,583.759 198.326,589.748 192.982,595.936 C194.347,600.227 196.17,606.962 198.451,616.139 L199.045,616.139 C199.305,616.076 199.529,616.045 199.717,616.045 C207.081,616.045 213.089,618.634 217.74,623.811 C222.391,628.988 224.717,634.962 224.717,641.733 C224.717,650.129 221.238,656.899 214.279,662.045 C212.258,663.545 209.878,664.717 207.139,665.561 C207.472,669.79 207.639,672.605 207.639,674.006 C207.639,675.407 207.571,677.899 207.435,681.483 C207.373,687.597 205.29,692.837 201.185,697.201 C197.081,701.566 192.394,703.748 187.123,703.748 C181.852,703.748 177.36,701.876 173.646,698.131 C169.933,694.386 168.076,689.847 168.076,684.514 C168.076,681.712 169.154,679.332 171.31,677.373 C173.519,675.425 176.006,674.451 178.771,674.451 C181.537,674.451 183.8,675.462 185.56,677.483 C187.383,679.368 188.295,681.644 188.295,684.311 C188.295,686.977 187.383,689.222 185.56,691.045 C183.738,692.868 181.555,693.78 179.014,693.78 C177.972,693.78 176.967,693.587 175.998,693.201 C178.863,697.431 182.54,699.545 187.029,699.545 C191.519,699.545 195.36,697.691 198.553,693.983 C201.745,690.274 203.342,685.91 203.342,680.889 L203.623,673.858 M206.748,661.561 C210.133,660.321 212.821,658.123 214.81,654.967 C216.8,651.811 217.795,648.67 217.795,645.545 C217.795,640.92 216.199,636.785 213.006,633.139 C209.813,629.493 205.774,627.441 200.889,626.983 C203.691,640.722 205.644,652.248 206.748,661.561 M168.967,638.998 C168.967,645.446 171.537,651.079 176.678,655.897 C181.818,660.714 187.842,663.123 194.748,663.123 C197.477,663.123 200.144,662.925 202.748,662.53 C201.706,652.634 199.654,640.785 196.592,626.983 C192.758,627.379 189.782,628.699 187.662,630.944 C185.542,633.188 184.482,635.743 184.482,638.608 C184.482,643.556 187.123,647.561 192.404,650.623 C192.852,650.884 193.076,651.324 193.076,651.944 C193.076,652.563 192.865,653.1 192.443,653.553 C192.021,654.006 191.649,654.233 191.326,654.233 C191.003,654.233 190.581,654.17 190.06,654.045 C182.435,649.879 178.623,643.592 178.623,635.186 C178.623,631.217 180.024,627.41 182.826,623.764 C185.753,620.118 189.56,617.774 194.248,616.733 C192.425,609.441 190.93,603.743 189.764,599.639 C180.847,609.67 175.31,617.092 173.154,621.905 C170.363,628.155 168.967,633.852 168.967,638.998 M201.576,539.686 C196.691,542.092 192.834,545.574 190.006,550.131 C187.178,554.688 185.764,559.472 185.764,564.483 C185.764,569.493 186.935,575.972 189.279,583.92 C193.967,578.254 197.514,572.946 199.92,567.998 C202.326,563.05 203.529,558.152 203.529,553.303 C203.529,548.454 202.878,543.915 201.576,539.686"/>
<path class="TimeSig" d="M273.021,567.912 C274.516,567.912 275.949,567.686 277.318,567.233 C278.688,566.78 279.665,566.553 280.248,566.553 C280.831,566.553 281.222,566.907 281.42,567.615 C281.42,567.688 281.352,567.886 281.217,568.209 L252.811,601.225 L269.498,601.225 L269.498,588.131 C269.498,586.506 270.446,585.334 272.342,584.615 C274.29,583.897 276.503,581.001 278.982,575.928 C279.17,575.532 279.462,575.334 279.857,575.334 C280.639,575.334 281.092,575.793 281.217,576.709 L281.217,601.225 L288.357,601.225 C289.264,601.225 289.751,601.712 289.818,602.686 C289.886,603.66 289.399,604.147 288.357,604.147 L281.217,604.147 L281.217,604.928 C281.217,607.532 281.868,609.746 283.17,611.569 C284.67,613.391 286.43,614.303 288.451,614.303 C289.232,614.303 289.623,614.694 289.623,615.475 C289.623,616.256 289.087,616.647 288.014,616.647 C286.941,616.647 284.938,616.436 282.006,616.014 C279.074,615.592 276.811,615.381 275.217,615.381 C273.623,615.381 271.41,615.592 268.576,616.014 C265.743,616.436 263.613,616.647 262.186,616.647 C261.404,616.647 261.014,616.256 261.014,615.475 C261.014,614.694 261.404,614.303 262.186,614.303 C264.196,614.303 265.951,613.391 267.451,611.569 C268.816,609.683 269.498,607.47 269.498,604.928 L269.498,604.147 L252.811,604.147 C251.956,604.147 251.219,603.92 250.6,603.467 C249.98,603.014 249.67,602.592 249.67,602.201 C249.67,601.811 250.485,600.639 252.115,598.686 C253.745,596.733 256.074,592.972 259.1,587.405 C262.126,581.837 263.639,575.438 263.639,568.209 C263.639,567.168 264.097,566.647 265.014,566.647 C265.212,566.647 265.521,566.712 265.943,566.842 C266.365,566.972 267.277,567.183 268.678,567.475 C270.079,567.766 271.527,567.912 273.021,567.912"/>
<path class="TimeSig" d="M273.021,618.084 C274.516,618.084 275.949,617.858 277.318,617.405 C278.688,616.951 279.665,616.725 280.248,616.725 C280.831,616.725 281.222,617.079 281.42,617.787 C281.42,617.86 281.352,618.058 281.217,618.381 L252.811,651.397 L269.498,651.397 L269.498,638.303 C269.498,636.678 270.446,635.506 272.342,634.787 C274.29,634.069 276.503,631.173 278.982,626.1 C279.17,625.704 279.462,625.506 279.857,625.506 C280.639,625.506 281.092,625.964 281.217,626.881 L281.217,651.397 L288.357,651.397 C289.264,651.397 289.751,651.884 289.818,652.858 C289.886,653.832 289.399,654.319 288.357,654.319 L281.217,654.319 L281.217,655.1 C281.217,657.704 281.868,659.918 283.17,661.74 C284.67,663.563 286.43,664.475 288.451,664.475 C289.232,664.475 289.623,664.865 289.623,665.647 C289.623,666.428 289.087,666.819 288.014,666.819 C286.941,666.819 284.938,666.608 282.006,666.186 C279.074,665.764 276.811,665.553 275.217,665.553 C273.623,665.553 271.41,665.764 268.576,666.186 C265.743,666.608 263.613,666.819 262.186,666.819 C261.404,666.819 261.014,666.428 261.014,665.647 C261.014,664.865 261.404,664.475 262.186,664.475 C264.196,664.475 265.951,663.563 267.451,661.74 C268.816,659.855 269.498,657.642 269.498,655.1 L269.498,654.319 L252.811,654.319 C251.956,654.319 251.219,654.092 250.6,653.639 C249.98,653.186 249.67,652.764 249.67,652.373 C249.67,651.983 250.485,650.811 252.115,648.858 C253.745,646.905 256.074,643.144 259.1,637.576 C262.126,632.009 263.639,625.61 263.639,618.381 C263.639,617.339 264.097,616.819 265.014,616.819 C265.212,616.819 265.521,616.884 265.943,617.014 C266.365,617.144 267.277,617.355 268.678,617.647 C270.079,617.938 271.527,618.084 273.021,618.084"/>
<path class="Rest" d="M2748.42,616.733 L2712.87,616.733 C2712.22,616.733 2711.89,616.405 2711.89,615.748 L2711.89,602.076 C2711.89,601.431 2712.22,601.108 2712.87,601.108 L2748.42,601.108 C2749.07,601.108 2749.39,601.431 2749.39,602.076 L2749.39,615.748 C2749.39,616.405 2749.07,616.733 2748.42,616.733"/>
</svg>
