<?xml version="1.0" encoding="UTF-8" standalone="no"?>
<svg width="2977.2px" height="4208.4px" viewBox="0 0 2977.2 4208.4"
 xmlns="http://www.w3.org/2000/svg" xmlns:xlink="http://www.w3.org/1999/xlink" version="1.2" baseProfile="tiny">
<title>A_Dim_7.mscx</title>
<desc>Generated by MuseScore Studio 4.3.1</desc>
<path class="" fill="#ffffff" fill-rule="evenodd" d="M0,0 L2977.2,0 L2977.2,4208.4 L0,4208.4 L0,0 "/>
<polyline class="StaffLines" fill="none" stroke="#000000" stroke-width="2.00" stroke-linejoin="bevel" points="141.732,566.733 2835.47,566.733"/>
<polyline class="StaffLines" fill="none" stroke="#000000" stroke-width="2.00" stroke-linejoin="bevel" points="141.732,591.733 2835.47,591.733"/>
<polyline class="StaffLines" fill="none" stroke="#000000" stroke-width="2.00" stroke-linejoin="bevel" points="141.732,616.733 2835.47,616.733"/>
<polyline class="StaffLines" fill="none" stroke="#000000" stroke-width="2.00" stroke-linejoin="bevel" points="141.732,641.733 2835.47,641.733"/>
<polyline class="StaffLines" fill="none" stroke="#000000" stroke-width="2.00" stroke-linejoin="bevel" points="141.732,666.733 2835.47,666.733"/>
<polyline class="BarLine" fill="none" stroke="#000000" stroke-width="4.00" stroke-linejoin="bevel" points="2348.32,565.733 2348.32,667.733"/>
<polyline class="BarLine" fill="none" stroke="#000000" stroke-width="4.00" stroke-linejoin="bevel" points="1552.54,565.733 1552.54,667.733"/>
<polyline class="BarLine" fill="none" stroke="#000000" stroke-width="4.00" stroke-linejoin="bevel" points="2802.72,565.733 2802.72,667.733"/>
<polyline class="BarLine" fill="none" stroke="#000000" stroke-width="12.50" stroke-linejoin="bevel" points="2829.22,565.733 2829.22,667.733"/>
<polyline class="BarLine" fill="none" stroke="#000000" stroke-width="4.00" stroke-linejoin="bevel" points="1098.14,565.733 1098.14,667.733"/>
<path class="Accidental" d="M1563.43,571.811 L1562.16,509.701 C1562.16,508.722 1562.93,508.233 1564.46,508.233 C1565.99,508.233 1566.76,508.722 1566.76,509.701 L1565.98,543.592 C1567.74,541.832 1569.25,540.61 1570.51,539.928 C1571.78,539.246 1573.5,538.904 1575.69,538.904 C1577.87,538.904 1579.89,539.912 1581.74,541.928 C1583.6,543.944 1584.52,546.451 1584.52,549.451 C1584.52,553.941 1579.8,560.16 1570.37,568.108 C1566.86,571.295 1565.03,572.889 1564.9,572.889 L1564.32,572.889 C1563.73,572.889 1563.43,572.529 1563.43,571.811 M1565.88,546.717 L1565.58,568.889 C1567.61,566.993 1569.66,563.847 1571.74,559.451 C1573.82,555.056 1574.87,551.295 1574.87,548.17 C1574.87,546.608 1574.61,545.175 1574.08,543.873 C1573.56,542.571 1572.75,541.92 1571.64,541.92 C1570.53,541.92 1569.54,542.311 1568.66,543.092 C1567.77,543.873 1566.85,545.082 1565.88,546.717"/>
<path class="Accidental" d="M691.381,596.811 L690.115,534.701 C690.115,533.722 690.881,533.233 692.412,533.233 C693.943,533.233 694.709,533.722 694.709,534.701 L693.928,568.592 C695.688,566.832 697.201,565.61 698.467,564.928 C699.732,564.246 701.456,563.905 703.639,563.905 C705.821,563.905 707.839,564.912 709.693,566.928 C711.547,568.944 712.475,571.451 712.475,574.451 C712.475,578.941 707.756,585.16 698.318,593.108 C694.808,596.295 692.985,597.889 692.85,597.889 L692.271,597.889 C691.678,597.889 691.381,597.53 691.381,596.811 M693.834,571.717 L693.537,593.889 C695.558,591.993 697.61,588.847 699.693,584.451 C701.777,580.056 702.818,576.295 702.818,573.17 C702.818,571.608 702.558,570.175 702.037,568.873 C701.516,567.571 700.701,566.92 699.592,566.92 C698.482,566.92 697.488,567.311 696.607,568.092 C695.727,568.873 694.803,570.082 693.834,571.717"/>
<path class="Accidental" d="M1752.49,596.811 L1751.23,534.701 C1751.23,533.722 1751.99,533.233 1753.53,533.233 C1755.06,533.233 1755.82,533.722 1755.82,534.701 L1755.04,568.592 C1756.8,566.832 1758.32,565.61 1759.58,564.928 C1760.85,564.246 1762.57,563.905 1764.75,563.905 C1766.93,563.905 1768.95,564.912 1770.81,566.928 C1772.66,568.944 1773.59,571.451 1773.59,574.451 C1773.59,578.941 1768.87,585.16 1759.43,593.108 C1755.92,596.295 1754.1,597.889 1753.96,597.889 L1753.39,597.889 C1752.79,597.889 1752.49,597.53 1752.49,596.811 M1754.95,571.717 L1754.65,593.889 C1756.67,591.993 1758.72,588.847 1760.81,584.451 C1762.89,580.056 1763.93,576.295 1763.93,573.17 C1763.93,571.608 1763.67,570.175 1763.15,568.873 C1762.63,567.571 1761.82,566.92 1760.71,566.92 C1759.6,566.92 1758.6,567.311 1757.72,568.092 C1756.84,568.873 1755.92,570.082 1754.95,571.717"/>
<path class="Accidental" d="M880.447,571.811 L879.182,509.701 C879.182,508.722 879.947,508.233 881.478,508.233 C883.01,508.233 883.775,508.722 883.775,509.701 L882.994,543.592 C884.754,541.832 886.267,540.61 887.533,539.928 C888.799,539.246 890.523,538.904 892.705,538.904 C894.887,538.904 896.906,539.912 898.76,541.928 C900.614,543.944 901.541,546.451 901.541,549.451 C901.541,553.941 896.822,560.16 887.385,568.108 C883.874,571.295 882.051,572.889 881.916,572.889 L881.338,572.889 C880.744,572.889 880.447,572.529 880.447,571.811 M882.9,546.717 L882.603,568.889 C884.624,566.993 886.676,563.847 888.76,559.451 C890.843,555.056 891.885,551.295 891.885,548.17 C891.885,546.608 891.624,545.175 891.103,543.873 C890.583,542.571 889.767,541.92 888.658,541.92 C887.549,541.92 886.554,542.311 885.674,543.092 C884.794,543.873 883.869,545.082 882.9,546.717"/>
<polyline class="Stem" fill="none" stroke="#000000" stroke-width="3.25" stroke-linejoin="bevel" points="2188.54,623.363 2188.54,547.983"/>
<polyline class="Stem" fill="none" stroke="#000000" stroke-width="3.25" stroke-linejoin="bevel" points="1780.74,585.102 1780.74,666.733"/>
<polyline class="Stem" fill="none" stroke="#000000" stroke-width="3.25" stroke-linejoin="bevel" points="1591.68,560.102 1591.68,641.733"/>
<polyline class="Stem" fill="none" stroke="#000000" stroke-width="3.25" stroke-linejoin="bevel" points="1969.81,610.102 1969.81,685.483"/>
<polyline class="Stem" fill="none" stroke="#000000" stroke-width="3.25" stroke-linejoin="bevel" points="371.162,623.363 371.162,547.983"/>
<polyline class="Stem" fill="none" stroke="#000000" stroke-width="3.25" stroke-linejoin="bevel" points="908.697,560.102 908.697,641.733"/>
<polyline class="Stem" fill="none" stroke="#000000" stroke-width="3.25" stroke-linejoin="bevel" points="719.631,585.102 719.631,666.733"/>
<polyline class="Stem" fill="none" stroke="#000000" stroke-width="3.25" stroke-linejoin="bevel" points="530.564,610.102 530.564,685.483"/>
<path class="Note" d="M1990.16,590.467 C1993.28,590.467 1995.88,591.248 1997.97,592.811 C2000.05,594.373 2001.09,596.618 2001.09,599.545 C2001.09,604.035 1998.77,608.233 1994.12,612.139 C1989.46,616.045 1984.47,617.998 1979.12,617.998 C1976,617.998 1973.36,617.186 1971.22,615.561 C1969.2,613.8 1968.19,611.587 1968.19,608.92 C1968.19,604.556 1970.5,600.389 1975.12,596.42 C1979.75,592.451 1984.76,590.467 1990.16,590.467"/>
<path class="Note" d="M550.908,590.467 C554.033,590.467 556.637,591.248 558.721,592.811 C560.804,594.373 561.846,596.618 561.846,599.545 C561.846,604.035 559.52,608.233 554.869,612.139 C550.218,616.045 545.221,617.998 539.877,617.998 C536.752,617.998 534.117,617.186 531.971,615.561 C529.95,613.8 528.939,611.587 528.939,608.92 C528.939,604.556 531.252,600.389 535.877,596.42 C540.502,592.451 545.512,590.467 550.908,590.467"/>
<path class="Note" d="M2179.22,615.467 C2182.35,615.467 2184.95,616.248 2187.03,617.811 C2189.12,619.373 2190.16,621.618 2190.16,624.545 C2190.16,629.035 2187.83,633.233 2183.18,637.139 C2178.53,641.045 2173.53,642.998 2168.19,642.998 C2165.07,642.998 2162.43,642.186 2160.28,640.561 C2158.26,638.8 2157.25,636.587 2157.25,633.92 C2157.25,629.556 2159.57,625.389 2164.19,621.42 C2168.82,617.451 2173.83,615.467 2179.22,615.467"/>
<path class="Note" d="M1801.09,565.467 C1804.21,565.467 1806.82,566.248 1808.9,567.811 C1810.98,569.373 1812.03,571.618 1812.03,574.545 C1812.03,579.035 1809.7,583.233 1805.05,587.139 C1800.4,591.045 1795.4,592.998 1790.06,592.998 C1786.93,592.998 1784.3,592.186 1782.15,590.561 C1780.13,588.8 1779.12,586.587 1779.12,583.92 C1779.12,579.556 1781.43,575.389 1786.06,571.42 C1790.68,567.451 1795.69,565.467 1801.09,565.467"/>
<path class="Note" d="M1612.02,540.467 C1615.15,540.467 1617.75,541.248 1619.83,542.811 C1621.92,544.373 1622.96,546.618 1622.96,549.545 C1622.96,554.035 1620.63,558.233 1615.98,562.139 C1611.33,566.045 1606.33,567.998 1600.99,567.998 C1597.87,567.998 1595.23,567.186 1593.08,565.561 C1591.06,563.8 1590.05,561.587 1590.05,558.92 C1590.05,554.556 1592.37,550.389 1596.99,546.42 C1601.62,542.451 1606.63,540.467 1612.02,540.467"/>
<path class="Note" d="M361.842,615.467 C364.967,615.467 367.571,616.248 369.654,617.811 C371.738,619.373 372.779,621.618 372.779,624.545 C372.779,629.035 370.454,633.233 365.803,637.139 C361.152,641.045 356.154,642.998 350.811,642.998 C347.686,642.998 345.05,642.186 342.904,640.561 C340.884,638.8 339.873,636.587 339.873,633.92 C339.873,629.556 342.186,625.389 346.811,621.42 C351.436,617.451 356.446,615.467 361.842,615.467"/>
<path class="Note" d="M929.041,540.467 C932.166,540.467 934.77,541.248 936.853,542.811 C938.937,544.373 939.978,546.618 939.978,549.545 C939.978,554.035 937.653,558.233 933.002,562.139 C928.351,566.045 923.353,567.998 918.01,567.998 C914.885,567.998 912.249,567.186 910.103,565.561 C908.083,563.8 907.072,561.587 907.072,558.92 C907.072,554.556 909.385,550.389 914.01,546.42 C918.635,542.451 923.645,540.467 929.041,540.467"/>
<path class="Note" d="M739.975,565.467 C743.1,565.467 745.704,566.248 747.787,567.811 C749.87,569.373 750.912,571.618 750.912,574.545 C750.912,579.035 748.587,583.233 743.936,587.139 C739.284,591.045 734.287,592.998 728.943,592.998 C725.818,592.998 723.183,592.186 721.037,590.561 C719.016,588.8 718.006,586.587 718.006,583.92 C718.006,579.556 720.318,575.389 724.943,571.42 C729.568,567.451 734.579,565.467 739.975,565.467"/>
<path class="Clef" d="M203.623,673.858 L203.623,671.717 C203.56,670.613 203.399,668.889 203.139,666.545 C199.889,667.066 196.993,667.326 194.451,667.326 C185.337,667.326 177.605,663.727 171.256,656.53 C164.907,649.332 161.732,640.754 161.732,630.795 C161.732,628.129 162.253,624.923 163.295,621.178 C164.337,617.433 165.297,614.925 166.178,613.655 C167.058,612.384 168.378,610.155 170.139,606.967 C170.659,605.988 172.352,603.837 175.217,600.514 C175.738,599.806 176.193,599.222 176.584,598.764 C176.975,598.306 177.607,597.49 178.482,596.319 C179.357,595.147 180.3,594.056 181.31,593.045 C182.321,592.035 183.217,591.058 183.998,590.115 C184.779,589.173 185.498,588.379 186.154,587.733 C183.81,579.983 182.378,574.024 181.857,569.858 C181.337,565.691 181.076,560.579 181.076,554.522 C181.076,548.464 182.378,542.962 184.982,538.014 C187.514,532.879 191.06,528.681 195.623,525.42 C195.883,525.222 196.225,525.123 196.646,525.123 C197.068,525.123 197.378,525.222 197.576,525.42 C201.087,529.649 204.128,535.149 206.701,541.92 C209.274,548.691 210.56,555.024 210.56,560.92 C210.56,566.816 209.066,572.498 206.076,577.967 C202.691,583.759 198.326,589.748 192.982,595.936 C194.347,600.227 196.17,606.962 198.451,616.139 L199.045,616.139 C199.305,616.076 199.529,616.045 199.717,616.045 C207.081,616.045 213.089,618.634 217.74,623.811 C222.391,628.988 224.717,634.962 224.717,641.733 C224.717,650.129 221.238,656.899 214.279,662.045 C212.258,663.545 209.878,664.717 207.139,665.561 C207.472,669.79 207.639,672.605 207.639,674.006 C207.639,675.407 207.571,677.899 207.435,681.483 C207.373,687.597 205.29,692.837 201.185,697.201 C197.081,701.566 192.394,703.748 187.123,703.748 C181.852,703.748 177.36,701.876 173.646,698.131 C169.933,694.386 168.076,689.847 168.076,684.514 C168.076,681.712 169.154,679.332 171.31,677.373 C173.519,675.425 176.006,674.451 178.771,674.451 C181.537,674.451 183.8,675.462 185.56,677.483 C187.383,679.368 188.295,681.644 188.295,684.311 C188.295,686.977 187.383,689.222 185.56,691.045 C183.738,692.868 181.555,693.78 179.014,693.78 C177.972,693.78 176.967,693.587 175.998,693.201 C178.863,697.431 182.54,699.545 187.029,699.545 C191.519,699.545 195.36,697.691 198.553,693.983 C201.745,690.274 203.342,685.91 203.342,680.889 L203.623,673.858 M206.748,661.561 C210.133,660.321 212.821,658.123 214.81,654.967 C216.8,651.811 217.795,648.67 217.795,645.545 C217.795,640.92 216.199,636.785 213.006,633.139 C209.813,629.493 205.774,627.441 200.889,626.983 C203.691,640.722 205.644,652.248 206.748,661.561 M168.967,638.998 C168.967,645.446 171.537,651.079 176.678,655.897 C181.818,660.714 187.842,663.123 194.748,663.123 C197.477,663.123 200.144,662.925 202.748,662.53 C201.706,652.634 199.654,640.785 196.592,626.983 C192.758,627.379 189.782,628.699 187.662,630.944 C185.542,633.188 184.482,635.743 184.482,638.608 C184.482,643.556 187.123,647.561 192.404,650.623 C192.852,650.884 193.076,651.324 193.076,651.944 C193.076,652.563 192.865,653.1 192.443,653.553 C192.021,654.006 191.649,654.233 191.326,654.233 C191.003,654.233 190.581,654.17 190.06,654.045 C182.435,649.879 178.623,643.592 178.623,635.186 C178.623,631.217 180.024,627.41 182.826,623.764 C185.753,620.118 189.56,617.774 194.248,616.733 C192.425,609.441 190.93,603.743 189.764,599.639 C180.847,609.67 175.31,617.092 173.154,621.905 C170.363,628.155 168.967,633.852 168.967,638.998 M201.576,539.686 C196.691,542.092 192.834,545.574 190.006,550.131 C187.178,554.688 185.764,559.472 185.764,564.483 C185.764,569.493 186.935,575.972 189.279,583.92 C193.967,578.254 197.514,572.946 199.92,567.998 C202.326,563.05 203.529,558.152 203.529,553.303 C203.529,548.454 202.878,543.915 201.576,539.686"/>
<path class="TimeSig" d="M273.021,567.912 C274.516,567.912 275.949,567.686 277.318,567.233 C278.688,566.78 279.665,566.553 280.248,566.553 C280.831,566.553 281.222,566.907 281.42,567.615 C281.42,567.688 281.352,567.886 281.217,568.209 L252.811,601.225 L269.498,601.225 L269.498,588.131 C269.498,586.506 270.446,585.334 272.342,584.615 C274.29,583.897 276.503,581.001 278.982,575.928 C279.17,575.532 279.462,575.334 279.857,575.334 C280.639,575.334 281.092,575.793 281.217,576.709 L281.217,601.225 L288.357,601.225 C289.264,601.225 289.751,601.712 289.818,602.686 C289.886,603.66 289.399,604.147 288.357,604.147 L281.217,604.147 L281.217,604.928 C281.217,607.532 281.868,609.746 283.17,611.569 C284.67,613.391 286.43,614.303 288.451,614.303 C289.232,614.303 289.623,614.694 289.623,615.475 C289.623,616.256 289.087,616.647 288.014,616.647 C286.941,616.647 284.938,616.436 282.006,616.014 C279.074,615.592 276.811,615.381 275.217,615.381 C273.623,615.381 271.41,615.592 268.576,616.014 C265.743,616.436 263.613,616.647 262.186,616.647 C261.404,616.647 261.014,616.256 261.014,615.475 C261.014,614.694 261.404,614.303 262.186,614.303 C264.196,614.303 265.951,613.391 267.451,611.569 C268.816,609.683 269.498,607.47 269.498,604.928 L269.498,604.147 L252.811,604.147 C251.956,604.147 251.219,603.92 250.6,603.467 C249.98,603.014 249.67,602.592 249.67,602.201 C249.67,601.811 250.485,600.639 252.115,598.686 C253.745,596.733 256.074,592.972 259.1,587.405 C262.126,581.837 263.639,575.438 263.639,568.209 C263.639,567.168 264.097,566.647 265.014,566.647 C265.212,566.647 265.521,566.712 265.943,566.842 C266.365,566.972 267.277,567.183 268.678,567.475 C270.079,567.766 271.527,567.912 273.021,567.912"/>
<path class="TimeSig" d="M273.021,618.084 C274.516,618.084 275.949,617.858 277.318,617.405 C278.688,616.951 279.665,616.725 280.248,616.725 C280.831,616.725 281.222,617.079 281.42,617.787 C281.42,617.86 281.352,618.058 281.217,618.381 L252.811,651.397 L269.498,651.397 L269.498,638.303 C269.498,636.678 270.446,635.506 272.342,634.787 C274.29,634.069 276.503,631.173 278.982,626.1 C279.17,625.704 279.462,625.506 279.857,625.506 C280.639,625.506 281.092,625.964 281.217,626.881 L281.217,651.397 L288.357,651.397 C289.264,651.397 289.751,651.884 289.818,652.858 C289.886,653.832 289.399,654.319 288.357,654.319 L281.217,654.319 L281.217,655.1 C281.217,657.704 281.868,659.918 283.17,661.74 C284.67,663.563 286.43,664.475 288.451,664.475 C289.232,664.475 289.623,664.865 289.623,665.647 C289.623,666.428 289.087,666.819 288.014,666.819 C286.941,666.819 284.938,666.608 282.006,666.186 C279.074,665.764 276.811,665.553 275.217,665.553 C273.623,665.553 271.41,665.764 268.576,666.186 C265.743,666.608 263.613,666.819 262.186,666.819 C261.404,666.819 261.014,666.428 261.014,665.647 C261.014,664.865 261.404,664.475 262.186,664.475 C264.196,664.475 265.951,663.563 267.451,661.74 C268.816,659.855 269.498,657.642 269.498,655.1 L269.498,654.319 L252.811,654.319 C251.956,654.319 251.219,654.092 250.6,653.639 C249.98,653.186 249.67,652.764 249.67,652.373 C249.67,651.983 250.485,650.811 252.115,648.858 C253.745,646.905 256.074,643.144 259.1,637.576 C262.126,632.009 263.639,625.61 263.639,618.381 C263.639,617.339 264.097,616.819 265.014,616.819 C265.212,616.819 265.521,616.884 265.943,617.014 C266.365,617.144 267.277,617.355 268.678,617.647 C270.079,617.938 271.527,618.084 273.021,618.084"/>
<path class="Rest" d="M1343.12,607.358 L1307.57,607.358 C1306.92,607.358 1306.59,607.035 1306.59,606.389 L1306.59,592.717 C1306.59,592.061 1306.92,591.733 1307.57,591.733 L1343.12,591.733 C1343.77,591.733 1344.09,592.061 1344.09,592.717 L1344.09,606.389 C1344.09,607.035 1343.77,607.358 1343.12,607.358"/>
<path class="Rest" d="M2593.3,607.358 L2557.75,607.358 C2557.1,607.358 2556.77,607.035 2556.77,606.389 L2556.77,592.717 C2556.77,592.061 2557.1,591.733 2557.75,591.733 L2593.3,591.733 C2593.95,591.733 2594.27,592.061 2594.27,592.717 L2594.27,606.389 C2594.27,607.035 2593.95,607.358 2593.3,607.358"/>
</svg>
