<?xml version="1.0" encoding="UTF-8" standalone="no"?>
<svg width="2977.2px" height="4208.4px" viewBox="0 0 2977.2 4208.4"
 xmlns="http://www.w3.org/2000/svg" xmlns:xlink="http://www.w3.org/1999/xlink" version="1.2" baseProfile="tiny">
<title>D_Minor.mscx</title>
<desc>Generated by MuseScore Studio 4.3.1</desc>
<path class="" fill="#ffffff" fill-rule="evenodd" d="M0,0 L2977.2,0 L2977.2,4208.4 L0,4208.4 L0,0 "/>
<polyline class="StaffLines" fill="none" stroke="#000000" stroke-width="2.00" stroke-linejoin="bevel" points="141.732,316.732 2835.47,316.732"/>
<polyline class="StaffLines" fill="none" stroke="#000000" stroke-width="2.00" stroke-linejoin="bevel" points="141.732,341.732 2835.47,341.732"/>
<polyline class="StaffLines" fill="none" stroke="#000000" stroke-width="2.00" stroke-linejoin="bevel" points="141.732,366.733 2835.47,366.733"/>
<polyline class="StaffLines" fill="none" stroke="#000000" stroke-width="2.00" stroke-linejoin="bevel" points="141.732,391.733 2835.47,391.733"/>
<polyline class="StaffLines" fill="none" stroke="#000000" stroke-width="2.00" stroke-linejoin="bevel" points="141.732,416.733 2835.47,416.733"/>
<polyline class="BarLine" fill="none" stroke="#000000" stroke-width="4.00" stroke-linejoin="bevel" points="1160.08,315.732 1160.08,417.733"/>
<polyline class="BarLine" fill="none" stroke="#000000" stroke-width="4.00" stroke-linejoin="bevel" points="2802.72,315.732 2802.72,417.733"/>
<polyline class="BarLine" fill="none" stroke="#000000" stroke-width="12.50" stroke-linejoin="bevel" points="2829.22,315.732 2829.22,417.733"/>
<polyline class="BarLine" fill="none" stroke="#000000" stroke-width="4.00" stroke-linejoin="bevel" points="1944.09,315.732 1944.09,417.733"/>
<polyline class="BarLine" fill="none" stroke="#000000" stroke-width="4.00" stroke-linejoin="bevel" points="2520.01,315.732 2520.01,417.733"/>
<polyline class="BarLine" fill="none" stroke="#000000" stroke-width="4.00" stroke-linejoin="bevel" points="594.675,315.732 594.675,417.733"/>
<polyline class="BarLine" fill="none" stroke="#000000" stroke-width="4.00" stroke-linejoin="bevel" points="877.378,315.732 877.378,417.733"/>
<polyline class="BarLine" fill="none" stroke="#000000" stroke-width="4.00" stroke-linejoin="bevel" points="1661.39,315.732 1661.39,417.733"/>
<polyline class="BarLine" fill="none" stroke="#000000" stroke-width="4.00" stroke-linejoin="bevel" points="2237.31,315.732 2237.31,417.733"/>
<polyline class="BarLine" fill="none" stroke="#000000" stroke-width="4.00" stroke-linejoin="bevel" points="1442.79,315.732 1442.79,417.733"/>
<path class="Accidental" d="M1954.98,384.311 L1953.72,322.201 C1953.72,321.222 1954.48,320.733 1956.01,320.733 C1957.54,320.733 1958.31,321.222 1958.31,322.201 L1957.53,356.092 C1959.29,354.331 1960.8,353.11 1962.07,352.428 C1963.33,351.746 1965.06,351.404 1967.24,351.404 C1969.42,351.404 1971.44,352.412 1973.29,354.428 C1975.15,356.443 1976.08,358.951 1976.08,361.951 C1976.08,366.441 1971.36,372.66 1961.92,380.608 C1958.41,383.795 1956.59,385.389 1956.45,385.389 L1955.87,385.389 C1955.28,385.389 1954.98,385.029 1954.98,384.311 M1957.43,359.217 L1957.14,381.389 C1959.16,379.493 1961.21,376.347 1963.29,371.951 C1965.38,367.555 1966.42,363.795 1966.42,360.67 C1966.42,359.108 1966.16,357.675 1965.64,356.373 C1965.12,355.071 1964.3,354.42 1963.19,354.42 C1962.08,354.42 1961.09,354.811 1960.21,355.592 C1959.33,356.373 1958.4,357.581 1957.43,359.217"/>
<path class="Accidental" d="M1004.15,384.311 L1002.89,322.201 C1002.89,321.222 1003.65,320.733 1005.19,320.733 C1006.72,320.733 1007.48,321.222 1007.48,322.201 L1006.7,356.092 C1008.46,354.331 1009.97,353.11 1011.24,352.428 C1012.51,351.746 1014.23,351.404 1016.41,351.404 C1018.59,351.404 1020.61,352.412 1022.47,354.428 C1024.32,356.443 1025.25,358.951 1025.25,361.951 C1025.25,366.441 1020.53,372.66 1011.09,380.608 C1007.58,383.795 1005.76,385.389 1005.62,385.389 L1005.04,385.389 C1004.45,385.389 1004.15,385.029 1004.15,384.311 M1006.61,359.217 L1006.31,381.389 C1008.33,379.493 1010.38,376.347 1012.47,371.951 C1014.55,367.555 1015.59,363.795 1015.59,360.67 C1015.59,359.108 1015.33,357.675 1014.81,356.373 C1014.29,355.071 1013.47,354.42 1012.37,354.42 C1011.26,354.42 1010.26,354.811 1009.38,355.592 C1008.5,356.373 1007.58,357.581 1006.61,359.217"/>
<polyline class="Stem" fill="none" stroke="#000000" stroke-width="3.25" stroke-linejoin="bevel" points="1032.4,371.633 1032.4,441.733"/>
<polyline class="Stem" fill="none" stroke="#000000" stroke-width="3.25" stroke-linejoin="bevel" points="1983.23,371.633 1983.23,441.733"/>
<polyline class="Stem" fill="none" stroke="#000000" stroke-width="3.25" stroke-linejoin="bevel" points="2580.11,411.933 2580.11,329.232"/>
<polyline class="Stem" fill="none" stroke="#000000" stroke-width="3.25" stroke-linejoin="bevel" points="372.065,424.433 372.065,341.732"/>
<polyline class="Stem" fill="none" stroke="#000000" stroke-width="3.25" stroke-linejoin="bevel" points="2141.1,374.433 2141.1,297.982"/>
<polyline class="Stem" fill="none" stroke="#000000" stroke-width="3.25" stroke-linejoin="bevel" points="1816.41,359.132 1816.41,435.483"/>
<polyline class="Stem" fill="none" stroke="#000000" stroke-width="3.25" stroke-linejoin="bevel" points="1690.01,346.632 1690.01,429.233"/>
<polyline class="Stem" fill="none" stroke="#000000" stroke-width="3.25" stroke-linejoin="bevel" points="498.465,411.933 498.465,329.232"/>
<polyline class="Stem" fill="none" stroke="#000000" stroke-width="3.25" stroke-linejoin="bevel" points="654.768,399.433 654.768,316.732"/>
<polyline class="Stem" fill="none" stroke="#000000" stroke-width="3.25" stroke-linejoin="bevel" points="2706.51,424.433 2706.51,341.732"/>
<polyline class="Stem" fill="none" stroke="#000000" stroke-width="3.25" stroke-linejoin="bevel" points="781.169,386.933 781.169,304.232"/>
<polyline class="Stem" fill="none" stroke="#000000" stroke-width="3.25" stroke-linejoin="bevel" points="2423.81,399.433 2423.81,316.732"/>
<polyline class="Stem" fill="none" stroke="#000000" stroke-width="3.25" stroke-linejoin="bevel" points="1315.11,346.632 1315.11,429.233"/>
<polyline class="Stem" fill="none" stroke="#000000" stroke-width="3.25" stroke-linejoin="bevel" points="937.472,374.433 937.472,297.982"/>
<polyline class="Stem" fill="none" stroke="#000000" stroke-width="3.25" stroke-linejoin="bevel" points="1188.71,359.132 1188.71,435.483"/>
<polyline class="Stem" fill="none" stroke="#000000" stroke-width="3.25" stroke-linejoin="bevel" points="2297.4,386.933 2297.4,304.232"/>
<path class="Note" d="M2398.13,414.873 C2400.02,414.873 2403.97,412.92 2410,409.014 C2416.03,405.108 2419.58,402.488 2420.65,401.154 C2421.72,399.821 2422.26,398.634 2422.26,397.592 C2422.26,396.55 2421.83,395.623 2420.98,394.811 C2420.14,393.998 2419.16,393.592 2418.06,393.592 C2416.11,393.592 2412.12,395.561 2406.09,399.498 C2400.07,403.436 2396.53,406.055 2395.49,407.358 C2394.45,408.66 2393.93,409.831 2393.93,410.873 C2393.93,411.915 2394.34,412.842 2395.16,413.654 C2395.97,414.467 2396.97,414.873 2398.13,414.873 M2417.09,390.467 C2422.68,390.467 2425.48,392.873 2425.48,397.686 C2425.48,400.029 2424.79,402.748 2423.43,405.842 C2422.07,408.936 2420.24,411.295 2417.96,412.92 C2412.95,416.305 2406.67,417.998 2399.12,417.998 C2393.51,417.998 2390.71,415.592 2390.71,410.779 C2390.71,408.634 2391.38,405.964 2392.71,402.772 C2394.04,399.579 2395.88,397.17 2398.23,395.545 C2403.25,392.16 2409.53,390.467 2417.09,390.467"/>
<path class="Note" d="M2115.43,389.873 C2117.31,389.873 2121.27,387.92 2127.3,384.014 C2133.32,380.108 2136.87,377.488 2137.95,376.154 C2139.02,374.821 2139.55,373.634 2139.55,372.592 C2139.55,371.55 2139.13,370.623 2138.28,369.811 C2137.43,368.998 2136.46,368.592 2135.35,368.592 C2133.4,368.592 2129.42,370.561 2123.39,374.498 C2117.36,378.436 2113.83,381.055 2112.79,382.358 C2111.75,383.66 2111.23,384.831 2111.23,385.873 C2111.23,386.915 2111.64,387.842 2112.45,388.654 C2113.27,389.467 2114.26,389.873 2115.43,389.873 M2134.38,365.467 C2139.98,365.467 2142.77,367.873 2142.77,372.686 C2142.77,375.029 2142.09,377.748 2140.73,380.842 C2139.36,383.936 2137.54,386.295 2135.26,387.92 C2130.25,391.305 2123.97,392.998 2116.41,392.998 C2110.81,392.998 2108.01,390.592 2108.01,385.779 C2108.01,383.634 2108.67,380.964 2110.01,377.772 C2111.34,374.579 2113.18,372.17 2115.52,370.545 C2120.54,367.16 2126.83,365.467 2134.38,365.467"/>
<path class="Note" d="M2271.73,402.373 C2273.62,402.373 2277.57,400.42 2283.6,396.514 C2289.63,392.608 2293.18,389.988 2294.25,388.654 C2295.32,387.321 2295.86,386.134 2295.86,385.092 C2295.86,384.05 2295.43,383.123 2294.58,382.311 C2293.74,381.498 2292.76,381.092 2291.65,381.092 C2289.71,381.092 2285.72,383.061 2279.69,386.998 C2273.67,390.936 2270.13,393.555 2269.09,394.858 C2268.05,396.16 2267.53,397.331 2267.53,398.373 C2267.53,399.415 2267.94,400.342 2268.76,401.154 C2269.57,401.967 2270.57,402.373 2271.73,402.373 M2290.69,377.967 C2296.28,377.967 2299.08,380.373 2299.08,385.186 C2299.08,387.529 2298.39,390.248 2297.03,393.342 C2295.66,396.436 2293.84,398.795 2291.56,400.42 C2286.55,403.805 2280.27,405.498 2272.72,405.498 C2267.11,405.498 2264.31,403.092 2264.31,398.279 C2264.31,396.134 2264.98,393.464 2266.31,390.272 C2267.64,387.079 2269.48,384.67 2271.83,383.045 C2276.85,379.66 2283.13,377.967 2290.69,377.967"/>
<path class="Note" d="M2554.44,427.373 C2556.32,427.373 2560.28,425.42 2566.3,421.514 C2572.33,417.608 2575.88,414.988 2576.95,413.654 C2578.02,412.321 2578.56,411.134 2578.56,410.092 C2578.56,409.05 2578.14,408.123 2577.29,407.311 C2576.44,406.498 2575.46,406.092 2574.36,406.092 C2572.41,406.092 2568.42,408.061 2562.4,411.998 C2556.37,415.936 2552.84,418.555 2551.8,419.858 C2550.75,421.16 2550.23,422.331 2550.23,423.373 C2550.23,424.415 2550.64,425.342 2551.46,426.154 C2552.28,426.967 2553.27,427.373 2554.44,427.373 M2573.39,402.967 C2578.98,402.967 2581.78,405.373 2581.78,410.186 C2581.78,412.529 2581.1,415.248 2579.73,418.342 C2578.37,421.436 2576.55,423.795 2574.26,425.42 C2569.25,428.805 2562.97,430.498 2555.42,430.498 C2549.82,430.498 2547.01,428.092 2547.01,423.279 C2547.01,421.134 2547.68,418.464 2549.01,415.272 C2550.35,412.079 2552.19,409.67 2554.53,408.045 C2559.55,404.66 2565.84,402.967 2573.39,402.967"/>
<path class="Note" d="M1989.03,377.373 C1990.91,377.373 1994.87,375.42 2000.9,371.514 C2006.92,367.608 2010.47,364.988 2011.54,363.654 C2012.62,362.321 2013.15,361.134 2013.15,360.092 C2013.15,359.05 2012.73,358.123 2011.88,357.311 C2011.03,356.498 2010.05,356.092 2008.95,356.092 C2007,356.092 2003.02,358.061 1996.99,361.998 C1990.96,365.936 1987.43,368.555 1986.39,369.858 C1985.35,371.16 1984.83,372.331 1984.83,373.373 C1984.83,374.415 1985.23,375.342 1986.05,376.154 C1986.87,376.967 1987.86,377.373 1989.03,377.373 M2007.98,352.967 C2013.58,352.967 2016.37,355.373 2016.37,360.186 C2016.37,362.529 2015.69,365.248 2014.33,368.342 C2012.96,371.436 2011.14,373.795 2008.86,375.42 C2003.85,378.805 1997.57,380.498 1990.01,380.498 C1984.41,380.498 1981.61,378.092 1981.61,373.279 C1981.61,371.134 1982.27,368.464 1983.61,365.272 C1984.94,362.079 1986.78,359.67 1989.12,358.045 C1994.14,354.66 2000.43,352.967 2007.98,352.967"/>
<path class="Note" d="M1822.21,364.873 C1824.1,364.873 1828.05,362.92 1834.08,359.014 C1840.1,355.107 1843.65,352.488 1844.73,351.154 C1845.8,349.821 1846.33,348.634 1846.33,347.592 C1846.33,346.55 1845.91,345.623 1845.06,344.811 C1844.21,343.998 1843.24,343.592 1842.13,343.592 C1840.18,343.592 1836.2,345.561 1830.17,349.498 C1824.14,353.436 1820.61,356.055 1819.57,357.357 C1818.53,358.66 1818.01,359.831 1818.01,360.873 C1818.01,361.915 1818.42,362.842 1819.23,363.654 C1820.05,364.467 1821.04,364.873 1822.21,364.873 M1841.16,340.467 C1846.76,340.467 1849.55,342.873 1849.55,347.686 C1849.55,350.029 1848.87,352.748 1847.51,355.842 C1846.14,358.936 1844.32,361.295 1842.04,362.92 C1837.03,366.305 1830.75,367.998 1823.19,367.998 C1817.59,367.998 1814.79,365.592 1814.79,360.779 C1814.79,358.634 1815.45,355.964 1816.79,352.772 C1818.12,349.579 1819.96,347.17 1822.3,345.545 C1827.32,342.16 1833.61,340.467 1841.16,340.467"/>
<path class="Note" d="M1695.81,352.373 C1697.69,352.373 1701.65,350.42 1707.68,346.514 C1713.7,342.607 1717.25,339.988 1718.32,338.654 C1719.4,337.321 1719.93,336.134 1719.93,335.092 C1719.93,334.05 1719.51,333.123 1718.66,332.311 C1717.81,331.498 1716.84,331.092 1715.73,331.092 C1713.78,331.092 1709.8,333.061 1703.77,336.998 C1697.74,340.936 1694.21,343.555 1693.17,344.857 C1692.13,346.16 1691.61,347.331 1691.61,348.373 C1691.61,349.415 1692.01,350.342 1692.83,351.154 C1693.65,351.967 1694.64,352.373 1695.81,352.373 M1714.76,327.967 C1720.36,327.967 1723.15,330.373 1723.15,335.186 C1723.15,337.529 1722.47,340.248 1721.11,343.342 C1719.74,346.436 1717.92,348.795 1715.64,350.42 C1710.63,353.805 1704.35,355.498 1696.79,355.498 C1691.19,355.498 1688.39,353.092 1688.39,348.279 C1688.39,346.134 1689.05,343.464 1690.39,340.272 C1691.72,337.079 1693.56,334.67 1695.9,333.045 C1700.92,329.66 1707.21,327.967 1714.76,327.967"/>
<path class="Note" d="M1320.9,352.373 C1322.79,352.373 1326.75,350.42 1332.77,346.514 C1338.8,342.607 1342.35,339.988 1343.42,338.654 C1344.49,337.321 1345.03,336.134 1345.03,335.092 C1345.03,334.05 1344.61,333.123 1343.76,332.311 C1342.91,331.498 1341.93,331.092 1340.83,331.092 C1338.88,331.092 1334.89,333.061 1328.87,336.998 C1322.84,340.936 1319.31,343.555 1318.26,344.857 C1317.22,346.16 1316.7,347.331 1316.7,348.373 C1316.7,349.415 1317.11,350.342 1317.93,351.154 C1318.75,351.967 1319.74,352.373 1320.9,352.373 M1339.86,327.967 C1345.45,327.967 1348.25,330.373 1348.25,335.186 C1348.25,337.529 1347.57,340.248 1346.2,343.342 C1344.84,346.436 1343.01,348.795 1340.73,350.42 C1335.72,353.805 1329.44,355.498 1321.89,355.498 C1316.29,355.498 1313.48,353.092 1313.48,348.279 C1313.48,346.134 1314.15,343.464 1315.48,340.272 C1316.82,337.079 1318.65,334.67 1321,333.045 C1326.02,329.66 1332.31,327.967 1339.86,327.967"/>
<path class="Note" d="M1194.5,364.873 C1196.39,364.873 1200.35,362.92 1206.37,359.014 C1212.4,355.107 1215.95,352.488 1217.02,351.154 C1218.09,349.821 1218.63,348.634 1218.63,347.592 C1218.63,346.55 1218.2,345.623 1217.36,344.811 C1216.51,343.998 1215.53,343.592 1214.43,343.592 C1212.48,343.592 1208.49,345.561 1202.47,349.498 C1196.44,353.436 1192.91,356.055 1191.86,357.357 C1190.82,358.66 1190.3,359.831 1190.3,360.873 C1190.3,361.915 1190.71,362.842 1191.53,363.654 C1192.35,364.467 1193.34,364.873 1194.5,364.873 M1213.46,340.467 C1219.05,340.467 1221.85,342.873 1221.85,347.686 C1221.85,350.029 1221.17,352.748 1219.8,355.842 C1218.44,358.936 1216.61,361.295 1214.33,362.92 C1209.32,366.305 1203.04,367.998 1195.49,367.998 C1189.88,367.998 1187.08,365.592 1187.08,360.779 C1187.08,358.634 1187.75,355.964 1189.08,352.772 C1190.42,349.579 1192.25,347.17 1194.6,345.545 C1199.62,342.16 1205.91,340.467 1213.46,340.467"/>
<path class="Note" d="M1038.2,377.373 C1040.09,377.373 1044.04,375.42 1050.07,371.514 C1056.09,367.608 1059.64,364.988 1060.72,363.654 C1061.79,362.321 1062.33,361.134 1062.33,360.092 C1062.33,359.05 1061.9,358.123 1061.05,357.311 C1060.2,356.498 1059.23,356.092 1058.12,356.092 C1056.18,356.092 1052.19,358.061 1046.16,361.998 C1040.14,365.936 1036.6,368.555 1035.56,369.858 C1034.52,371.16 1034,372.331 1034,373.373 C1034,374.415 1034.41,375.342 1035.22,376.154 C1036.04,376.967 1037.03,377.373 1038.2,377.373 M1057.15,352.967 C1062.75,352.967 1065.54,355.373 1065.54,360.186 C1065.54,362.529 1064.86,365.248 1063.5,368.342 C1062.13,371.436 1060.31,373.795 1058.03,375.42 C1053.02,378.805 1046.74,380.498 1039.19,380.498 C1033.58,380.498 1030.78,378.092 1030.78,373.279 C1030.78,371.134 1031.45,368.464 1032.78,365.272 C1034.11,362.079 1035.95,359.67 1038.29,358.045 C1043.32,354.66 1049.6,352.967 1057.15,352.967"/>
<path class="Note" d="M911.8,389.873 C913.686,389.873 917.641,387.92 923.668,384.014 C929.694,380.108 933.243,377.488 934.316,376.154 C935.389,374.821 935.925,373.634 935.925,372.592 C935.925,371.55 935.501,370.623 934.652,369.811 C933.803,368.998 932.826,368.592 931.722,368.592 C929.774,368.592 925.787,370.561 919.761,374.498 C913.735,378.436 910.201,381.055 909.16,382.358 C908.118,383.66 907.597,384.831 907.597,385.873 C907.597,386.915 908.006,387.842 908.824,388.654 C909.641,389.467 910.634,389.873 911.8,389.873 M930.753,365.467 C936.347,365.467 939.144,367.873 939.144,372.686 C939.144,375.029 938.462,377.748 937.097,380.842 C935.733,383.936 933.91,386.295 931.628,387.92 C926.618,391.305 920.337,392.998 912.785,392.998 C907.181,392.998 904.378,390.592 904.378,385.779 C904.378,383.634 905.045,380.964 906.378,377.772 C907.712,374.579 909.55,372.17 911.894,370.545 C916.915,367.16 923.201,365.467 930.753,365.467"/>
<path class="Note" d="M755.497,402.373 C757.383,402.373 761.338,400.42 767.364,396.514 C773.39,392.608 776.94,389.988 778.013,388.654 C779.086,387.321 779.622,386.134 779.622,385.092 C779.622,384.05 779.198,383.123 778.349,382.311 C777.5,381.498 776.523,381.092 775.419,381.092 C773.471,381.092 769.484,383.061 763.458,386.998 C757.432,390.936 753.898,393.555 752.857,394.858 C751.815,396.16 751.294,397.331 751.294,398.373 C751.294,399.415 751.703,400.342 752.521,401.154 C753.338,401.967 754.331,402.373 755.497,402.373 M774.45,377.967 C780.044,377.967 782.841,380.373 782.841,385.186 C782.841,387.529 782.159,390.248 780.794,393.342 C779.43,396.436 777.607,398.795 775.325,400.42 C770.315,403.805 764.034,405.498 756.482,405.498 C750.877,405.498 748.075,403.092 748.075,398.279 C748.075,396.134 748.742,393.464 750.075,390.272 C751.409,387.079 753.247,384.67 755.591,383.045 C760.612,379.66 766.898,377.967 774.45,377.967"/>
<path class="Note" d="M629.096,414.873 C630.982,414.873 634.938,412.92 640.964,409.014 C646.99,405.108 650.539,402.488 651.612,401.154 C652.685,399.821 653.221,398.634 653.221,397.592 C653.221,396.55 652.797,395.623 651.948,394.811 C651.099,393.998 650.123,393.592 649.018,393.592 C647.07,393.592 643.083,395.561 637.057,399.498 C631.031,403.436 627.498,406.055 626.456,407.358 C625.414,408.66 624.893,409.831 624.893,410.873 C624.893,411.915 625.302,412.842 626.12,413.654 C626.938,414.467 627.93,414.873 629.096,414.873 M648.05,390.467 C653.643,390.467 656.44,392.873 656.44,397.686 C656.44,400.029 655.758,402.748 654.393,405.842 C653.029,408.936 651.206,411.295 648.925,412.92 C643.914,416.305 637.633,417.998 630.081,417.998 C624.477,417.998 621.675,415.592 621.675,410.779 C621.675,408.634 622.341,405.964 623.675,402.772 C625.008,399.579 626.846,397.17 629.19,395.545 C634.211,392.16 640.498,390.467 648.05,390.467"/>
<path class="Note" d="M472.793,427.373 C474.679,427.373 478.635,425.42 484.661,421.514 C490.687,417.608 494.236,414.988 495.309,413.654 C496.382,412.321 496.918,411.134 496.918,410.092 C496.918,409.05 496.494,408.123 495.645,407.311 C494.796,406.498 493.819,406.092 492.715,406.092 C490.767,406.092 486.78,408.061 480.754,411.998 C474.728,415.936 471.194,418.555 470.153,419.858 C469.111,421.16 468.59,422.331 468.59,423.373 C468.59,424.415 468.999,425.342 469.817,426.154 C470.635,426.967 471.627,427.373 472.793,427.373 M491.747,402.967 C497.34,402.967 500.137,405.373 500.137,410.186 C500.137,412.529 499.455,415.248 498.09,418.342 C496.726,421.436 494.903,423.795 492.622,425.42 C487.611,428.805 481.33,430.498 473.778,430.498 C468.174,430.498 465.372,428.092 465.372,423.279 C465.372,421.134 466.038,418.464 467.372,415.272 C468.705,412.079 470.543,409.67 472.887,408.045 C477.908,404.66 484.194,402.967 491.747,402.967"/>
<path class="Note" d="M346.393,439.873 C348.278,439.873 352.234,437.92 358.26,434.014 C364.286,430.108 367.835,427.488 368.908,426.154 C369.981,424.821 370.518,423.634 370.518,422.592 C370.518,421.55 370.093,420.623 369.244,419.811 C368.395,418.998 367.419,418.592 366.315,418.592 C364.367,418.592 360.38,420.561 354.354,424.498 C348.328,428.436 344.794,431.055 343.752,432.358 C342.71,433.66 342.19,434.831 342.19,435.873 C342.19,436.915 342.598,437.842 343.416,438.654 C344.234,439.467 345.226,439.873 346.393,439.873 M365.346,415.467 C370.94,415.467 373.736,417.873 373.736,422.686 C373.736,425.029 373.054,427.748 371.69,430.842 C370.325,433.936 368.502,436.295 366.221,437.92 C361.21,441.305 354.929,442.998 347.377,442.998 C341.773,442.998 338.971,440.592 338.971,435.779 C338.971,433.634 339.637,430.964 340.971,427.772 C342.304,424.579 344.143,422.17 346.486,420.545 C351.507,417.16 357.794,415.467 365.346,415.467"/>
<path class="Note" d="M2680.84,439.873 C2682.72,439.873 2686.68,437.92 2692.7,434.014 C2698.73,430.108 2702.28,427.488 2703.35,426.154 C2704.43,424.821 2704.96,423.634 2704.96,422.592 C2704.96,421.55 2704.54,420.623 2703.69,419.811 C2702.84,418.998 2701.86,418.592 2700.76,418.592 C2698.81,418.592 2694.82,420.561 2688.8,424.498 C2682.77,428.436 2679.24,431.055 2678.2,432.358 C2677.15,433.66 2676.63,434.831 2676.63,435.873 C2676.63,436.915 2677.04,437.842 2677.86,438.654 C2678.68,439.467 2679.67,439.873 2680.84,439.873 M2699.79,415.467 C2705.38,415.467 2708.18,417.873 2708.18,422.686 C2708.18,425.029 2707.5,427.748 2706.13,430.842 C2704.77,433.936 2702.95,436.295 2700.67,437.92 C2695.65,441.305 2689.37,442.998 2681.82,442.998 C2676.22,442.998 2673.42,440.592 2673.42,435.779 C2673.42,433.634 2674.08,430.964 2675.42,427.772 C2676.75,424.579 2678.59,422.17 2680.93,420.545 C2685.95,417.16 2692.24,415.467 2699.79,415.467"/>
<path class="Clef" d="M203.623,423.858 L203.623,421.717 C203.56,420.613 203.399,418.889 203.139,416.545 C199.889,417.066 196.993,417.326 194.451,417.326 C185.337,417.326 177.605,413.727 171.256,406.529 C164.907,399.331 161.732,390.753 161.732,380.795 C161.732,378.128 162.253,374.923 163.295,371.178 C164.337,367.433 165.297,364.925 166.178,363.654 C167.058,362.384 168.378,360.154 170.139,356.967 C170.659,355.988 172.352,353.837 175.217,350.514 C175.738,349.805 176.193,349.222 176.584,348.764 C176.975,348.305 177.607,347.49 178.482,346.318 C179.357,345.147 180.3,344.055 181.31,343.045 C182.321,342.035 183.217,341.058 183.998,340.115 C184.779,339.173 185.498,338.378 186.154,337.733 C183.81,329.983 182.378,324.024 181.857,319.858 C181.337,315.691 181.076,310.579 181.076,304.522 C181.076,298.464 182.378,292.962 184.982,288.014 C187.514,282.878 191.06,278.68 195.623,275.42 C195.883,275.222 196.225,275.123 196.646,275.123 C197.068,275.123 197.378,275.222 197.576,275.42 C201.087,279.649 204.128,285.149 206.701,291.92 C209.274,298.691 210.56,305.024 210.56,310.92 C210.56,316.816 209.066,322.498 206.076,327.967 C202.691,333.759 198.326,339.748 192.982,345.936 C194.347,350.227 196.17,356.962 198.451,366.139 L199.045,366.139 C199.305,366.076 199.529,366.045 199.717,366.045 C207.081,366.045 213.089,368.634 217.74,373.811 C222.391,378.988 224.717,384.962 224.717,391.733 C224.717,400.128 221.238,406.899 214.279,412.045 C212.258,413.545 209.878,414.717 207.139,415.561 C207.472,419.79 207.639,422.605 207.639,424.006 C207.639,425.407 207.571,427.899 207.435,431.483 C207.373,437.597 205.29,442.837 201.185,447.201 C197.081,451.566 192.394,453.748 187.123,453.748 C181.852,453.748 177.36,451.876 173.646,448.131 C169.933,444.386 168.076,439.847 168.076,434.514 C168.076,431.712 169.154,429.331 171.31,427.373 C173.519,425.425 176.006,424.451 178.771,424.451 C181.537,424.451 183.8,425.462 185.56,427.483 C187.383,429.368 188.295,431.644 188.295,434.311 C188.295,436.977 187.383,439.222 185.56,441.045 C183.738,442.868 181.555,443.779 179.014,443.779 C177.972,443.779 176.967,443.587 175.998,443.201 C178.863,447.43 182.54,449.545 187.029,449.545 C191.519,449.545 195.36,447.691 198.553,443.983 C201.745,440.274 203.342,435.91 203.342,430.889 L203.623,423.858 M206.748,411.561 C210.133,410.321 212.821,408.123 214.81,404.967 C216.8,401.811 217.795,398.67 217.795,395.545 C217.795,390.92 216.199,386.785 213.006,383.139 C209.813,379.493 205.774,377.441 200.889,376.983 C203.691,390.722 205.644,402.248 206.748,411.561 M168.967,388.998 C168.967,395.446 171.537,401.079 176.678,405.897 C181.818,410.714 187.842,413.123 194.748,413.123 C197.477,413.123 200.144,412.925 202.748,412.529 C201.706,402.634 199.654,390.785 196.592,376.983 C192.758,377.378 189.782,378.699 187.662,380.943 C185.542,383.188 184.482,385.743 184.482,388.608 C184.482,393.555 187.123,397.561 192.404,400.623 C192.852,400.884 193.076,401.324 193.076,401.943 C193.076,402.563 192.865,403.1 192.443,403.553 C192.021,404.006 191.649,404.233 191.326,404.233 C191.003,404.233 190.581,404.17 190.06,404.045 C182.435,399.878 178.623,393.592 178.623,385.186 C178.623,381.217 180.024,377.41 182.826,373.764 C185.753,370.118 189.56,367.774 194.248,366.733 C192.425,359.441 190.93,353.743 189.764,349.639 C180.847,359.67 175.31,367.092 173.154,371.904 C170.363,378.154 168.967,383.852 168.967,388.998 M201.576,289.686 C196.691,292.092 192.834,295.574 190.006,300.131 C187.178,304.688 185.764,309.472 185.764,314.483 C185.764,319.493 186.935,325.972 189.279,333.92 C193.967,328.253 197.514,322.946 199.92,317.998 C202.326,313.05 203.529,308.152 203.529,303.303 C203.529,298.454 202.878,293.915 201.576,289.686"/>
<path class="TimeSig" d="M273.021,317.912 C274.516,317.912 275.949,317.686 277.318,317.232 C278.688,316.779 279.665,316.553 280.248,316.553 C280.831,316.553 281.222,316.907 281.42,317.615 C281.42,317.688 281.352,317.886 281.217,318.209 L252.811,351.225 L269.498,351.225 L269.498,338.131 C269.498,336.506 270.446,335.334 272.342,334.615 C274.29,333.897 276.503,331.001 278.982,325.928 C279.17,325.532 279.462,325.334 279.857,325.334 C280.639,325.334 281.092,325.792 281.217,326.709 L281.217,351.225 L288.357,351.225 C289.264,351.225 289.751,351.712 289.818,352.686 C289.886,353.66 289.399,354.147 288.357,354.147 L281.217,354.147 L281.217,354.928 C281.217,357.532 281.868,359.746 283.17,361.568 C284.67,363.391 286.43,364.303 288.451,364.303 C289.232,364.303 289.623,364.693 289.623,365.475 C289.623,366.256 289.087,366.647 288.014,366.647 C286.941,366.647 284.938,366.436 282.006,366.014 C279.074,365.592 276.811,365.381 275.217,365.381 C273.623,365.381 271.41,365.592 268.576,366.014 C265.743,366.436 263.613,366.647 262.186,366.647 C261.404,366.647 261.014,366.256 261.014,365.475 C261.014,364.693 261.404,364.303 262.186,364.303 C264.196,364.303 265.951,363.391 267.451,361.568 C268.816,359.683 269.498,357.469 269.498,354.928 L269.498,354.147 L252.811,354.147 C251.956,354.147 251.219,353.92 250.6,353.467 C249.98,353.014 249.67,352.592 249.67,352.201 C249.67,351.811 250.485,350.639 252.115,348.686 C253.745,346.732 256.074,342.972 259.1,337.404 C262.126,331.837 263.639,325.438 263.639,318.209 C263.639,317.167 264.097,316.647 265.014,316.647 C265.212,316.647 265.521,316.712 265.943,316.842 C266.365,316.972 267.277,317.183 268.678,317.475 C270.079,317.766 271.527,317.912 273.021,317.912"/>
<path class="TimeSig" d="M273.021,368.084 C274.516,368.084 275.949,367.858 277.318,367.404 C278.688,366.951 279.665,366.725 280.248,366.725 C280.831,366.725 281.222,367.079 281.42,367.787 C281.42,367.86 281.352,368.058 281.217,368.381 L252.811,401.397 L269.498,401.397 L269.498,388.303 C269.498,386.678 270.446,385.506 272.342,384.787 C274.29,384.068 276.503,381.173 278.982,376.1 C279.17,375.704 279.462,375.506 279.857,375.506 C280.639,375.506 281.092,375.964 281.217,376.881 L281.217,401.397 L288.357,401.397 C289.264,401.397 289.751,401.884 289.818,402.858 C289.886,403.831 289.399,404.318 288.357,404.318 L281.217,404.318 L281.217,405.1 C281.217,407.704 281.868,409.917 283.17,411.74 C284.67,413.563 286.43,414.475 288.451,414.475 C289.232,414.475 289.623,414.865 289.623,415.647 C289.623,416.428 289.087,416.818 288.014,416.818 C286.941,416.818 284.938,416.608 282.006,416.186 C279.074,415.764 276.811,415.553 275.217,415.553 C273.623,415.553 271.41,415.764 268.576,416.186 C265.743,416.608 263.613,416.818 262.186,416.818 C261.404,416.818 261.014,416.428 261.014,415.647 C261.014,414.865 261.404,414.475 262.186,414.475 C264.196,414.475 265.951,413.563 267.451,411.74 C268.816,409.855 269.498,407.641 269.498,405.1 L269.498,404.318 L252.811,404.318 C251.956,404.318 251.219,404.092 250.6,403.639 C249.98,403.186 249.67,402.764 249.67,402.373 C249.67,401.983 250.485,400.811 252.115,398.858 C253.745,396.904 256.074,393.144 259.1,387.576 C262.126,382.009 263.639,375.61 263.639,368.381 C263.639,367.339 264.097,366.818 265.014,366.818 C265.212,366.818 265.521,366.884 265.943,367.014 C266.365,367.144 267.277,367.355 268.678,367.647 C270.079,367.938 271.527,368.084 273.021,368.084"/>
<path class="Rest" d="M1569.87,357.357 L1534.32,357.357 C1533.66,357.357 1533.34,357.035 1533.34,356.389 L1533.34,342.717 C1533.34,342.061 1533.66,341.732 1534.32,341.732 L1569.87,341.732 C1570.51,341.732 1570.84,342.061 1570.84,342.717 L1570.84,356.389 C1570.84,357.035 1570.51,357.357 1569.87,357.357"/>
</svg>
