<?xml version="1.0" encoding="UTF-8" standalone="no"?>
<svg width="2977.2px" height="4208.4px" viewBox="0 0 2977.2 4208.4"
 xmlns="http://www.w3.org/2000/svg" xmlns:xlink="http://www.w3.org/1999/xlink" version="1.2" baseProfile="tiny">
<title>B_Dim_7.mscx</title>
<desc>Generated by MuseScore Studio 4.3.1</desc>
<path class="" fill="#ffffff" fill-rule="evenodd" d="M0,0 L2977.2,0 L2977.2,4208.4 L0,4208.4 L0,0 "/>
<polyline class="StaffLines" fill="none" stroke="#000000" stroke-width="2.00" stroke-linejoin="bevel" points="141.732,566.733 2835.47,566.733"/>
<polyline class="StaffLines" fill="none" stroke="#000000" stroke-width="2.00" stroke-linejoin="bevel" points="141.732,591.733 2835.47,591.733"/>
<polyline class="StaffLines" fill="none" stroke="#000000" stroke-width="2.00" stroke-linejoin="bevel" points="141.732,616.733 2835.47,616.733"/>
<polyline class="StaffLines" fill="none" stroke="#000000" stroke-width="2.00" stroke-linejoin="bevel" points="141.732,641.733 2835.47,641.733"/>
<polyline class="StaffLines" fill="none" stroke="#000000" stroke-width="2.00" stroke-linejoin="bevel" points="141.732,666.733 2835.47,666.733"/>
<polyline class="BarLine" fill="none" stroke="#000000" stroke-width="4.00" stroke-linejoin="bevel" points="2350.03,565.733 2350.03,667.733"/>
<polyline class="BarLine" fill="none" stroke="#000000" stroke-width="4.00" stroke-linejoin="bevel" points="1547.79,565.733 1547.79,667.733"/>
<polyline class="BarLine" fill="none" stroke="#000000" stroke-width="4.00" stroke-linejoin="bevel" points="2802.72,565.733 2802.72,667.733"/>
<polyline class="BarLine" fill="none" stroke="#000000" stroke-width="12.50" stroke-linejoin="bevel" points="2829.22,565.733 2829.22,667.733"/>
<polyline class="BarLine" fill="none" stroke="#000000" stroke-width="4.00" stroke-linejoin="bevel" points="1095.1,565.733 1095.1,667.733"/>
<path class="Accidental" d="M1558.68,559.311 L1557.41,497.201 C1557.41,496.222 1558.18,495.733 1559.71,495.733 C1561.24,495.733 1562.01,496.222 1562.01,497.201 L1561.23,531.092 C1562.99,529.332 1564.5,528.11 1565.76,527.428 C1567.03,526.746 1568.75,526.404 1570.94,526.404 C1573.12,526.404 1575.14,527.412 1576.99,529.428 C1578.85,531.444 1579.77,533.951 1579.77,536.951 C1579.77,541.441 1575.05,547.66 1565.62,555.608 C1562.11,558.795 1560.28,560.389 1560.15,560.389 L1559.57,560.389 C1558.98,560.389 1558.68,560.029 1558.68,559.311 M1561.13,534.217 L1560.83,556.389 C1562.86,554.493 1564.91,551.347 1566.99,546.951 C1569.07,542.556 1570.12,538.795 1570.12,535.67 C1570.12,534.108 1569.86,532.675 1569.33,531.373 C1568.81,530.071 1568,529.42 1566.89,529.42 C1565.78,529.42 1564.79,529.811 1563.91,530.592 C1563.02,531.373 1562.1,532.582 1561.13,534.217"/>
<path class="Accidental" d="M868.667,559.311 L867.402,497.201 C867.402,496.222 868.167,495.733 869.698,495.733 C871.23,495.733 871.995,496.222 871.995,497.201 L871.214,531.092 C872.974,529.332 874.487,528.11 875.753,527.428 C877.019,526.746 878.743,526.404 880.925,526.404 C883.107,526.404 885.126,527.412 886.98,529.428 C888.834,531.444 889.761,533.951 889.761,536.951 C889.761,541.441 885.042,547.66 875.605,555.608 C872.094,558.795 870.271,560.389 870.136,560.389 L869.558,560.389 C868.964,560.389 868.667,560.029 868.667,559.311 M871.12,534.217 L870.823,556.389 C872.844,554.493 874.896,551.347 876.98,546.951 C879.063,542.556 880.105,538.795 880.105,535.67 C880.105,534.108 879.844,532.675 879.323,531.373 C878.803,530.071 877.987,529.42 876.878,529.42 C875.769,529.42 874.774,529.811 873.894,530.592 C873.014,531.373 872.089,532.582 871.12,534.217"/>
<polyline class="LedgerLine" fill="none" stroke="#000000" stroke-width="4.00" stroke-linejoin="bevel" points="1585.3,541.733 1637.22,541.733"/>
<polyline class="LedgerLine" fill="none" stroke="#000000" stroke-width="4.00" stroke-linejoin="bevel" points="895.292,541.733 947.206,541.733"/>
<polyline class="Stem" fill="none" stroke="#000000" stroke-width="3.25" stroke-linejoin="bevel" points="2161.35,622.602 2161.35,691.733"/>
<polyline class="Stem" fill="none" stroke="#000000" stroke-width="3.25" stroke-linejoin="bevel" points="1784.73,572.602 1784.73,654.233"/>
<polyline class="Stem" fill="none" stroke="#000000" stroke-width="3.25" stroke-linejoin="bevel" points="1596.43,547.602 1596.43,629.233"/>
<polyline class="Stem" fill="none" stroke="#000000" stroke-width="3.25" stroke-linejoin="bevel" points="1973.04,597.602 1973.04,679.233"/>
<polyline class="Stem" fill="none" stroke="#000000" stroke-width="3.25" stroke-linejoin="bevel" points="341.498,622.602 341.498,691.733"/>
<polyline class="Stem" fill="none" stroke="#000000" stroke-width="3.25" stroke-linejoin="bevel" points="906.417,547.602 906.417,629.233"/>
<polyline class="Stem" fill="none" stroke="#000000" stroke-width="3.25" stroke-linejoin="bevel" points="718.111,572.602 718.111,654.233"/>
<polyline class="Stem" fill="none" stroke="#000000" stroke-width="3.25" stroke-linejoin="bevel" points="529.804,597.602 529.804,679.233"/>
<path class="Note" d="M1993.39,577.967 C1996.51,577.967 1999.11,578.748 2001.2,580.311 C2003.28,581.873 2004.32,584.118 2004.32,587.045 C2004.32,591.535 2002,595.733 1997.35,599.639 C1992.69,603.545 1987.7,605.498 1982.35,605.498 C1979.23,605.498 1976.59,604.686 1974.45,603.061 C1972.43,601.3 1971.42,599.087 1971.42,596.42 C1971.42,592.056 1973.73,587.889 1978.35,583.92 C1982.98,579.951 1987.99,577.967 1993.39,577.967"/>
<path class="Note" d="M550.148,577.967 C553.273,577.967 555.877,578.748 557.961,580.311 C560.044,581.873 561.086,584.118 561.086,587.045 C561.086,591.535 558.76,595.733 554.109,599.639 C549.458,603.545 544.461,605.498 539.117,605.498 C535.992,605.498 533.357,604.686 531.211,603.061 C529.19,601.3 528.179,599.087 528.179,596.42 C528.179,592.056 530.492,587.889 535.117,583.92 C539.742,579.951 544.752,577.967 550.148,577.967"/>
<path class="Note" d="M1805.08,552.967 C1808.2,552.967 1810.81,553.748 1812.89,555.311 C1814.97,556.873 1816.02,559.118 1816.02,562.045 C1816.02,566.535 1813.69,570.733 1809.04,574.639 C1804.39,578.545 1799.39,580.498 1794.05,580.498 C1790.92,580.498 1788.29,579.686 1786.14,578.061 C1784.12,576.3 1783.11,574.087 1783.11,571.42 C1783.11,567.056 1785.42,562.889 1790.05,558.92 C1794.67,554.951 1799.68,552.967 1805.08,552.967"/>
<path class="Note" d="M2181.69,602.967 C2184.82,602.967 2187.42,603.748 2189.5,605.311 C2191.59,606.873 2192.63,609.118 2192.63,612.045 C2192.63,616.535 2190.3,620.733 2185.65,624.639 C2181,628.545 2176,630.498 2170.66,630.498 C2167.54,630.498 2164.9,629.686 2162.75,628.061 C2160.73,626.3 2159.72,624.087 2159.72,621.42 C2159.72,617.056 2162.04,612.889 2166.66,608.92 C2171.29,604.951 2176.3,602.967 2181.69,602.967"/>
<path class="Note" d="M1616.77,527.967 C1619.9,527.967 1622.5,528.748 1624.58,530.311 C1626.67,531.873 1627.71,534.118 1627.71,537.045 C1627.71,541.535 1625.38,545.733 1620.73,549.639 C1616.08,553.545 1611.08,555.498 1605.74,555.498 C1602.62,555.498 1599.98,554.686 1597.83,553.061 C1595.81,551.3 1594.8,549.087 1594.8,546.42 C1594.8,542.056 1597.12,537.889 1601.74,533.92 C1606.37,529.951 1611.38,527.967 1616.77,527.967"/>
<path class="Note" d="M361.842,602.967 C364.967,602.967 367.571,603.748 369.654,605.311 C371.738,606.873 372.779,609.118 372.779,612.045 C372.779,616.535 370.454,620.733 365.803,624.639 C361.152,628.545 356.154,630.498 350.811,630.498 C347.686,630.498 345.05,629.686 342.904,628.061 C340.884,626.3 339.873,624.087 339.873,621.42 C339.873,617.056 342.186,612.889 346.811,608.92 C351.436,604.951 356.446,602.967 361.842,602.967"/>
<path class="Note" d="M926.761,527.967 C929.886,527.967 932.49,528.748 934.573,530.311 C936.657,531.873 937.698,534.118 937.698,537.045 C937.698,541.535 935.373,545.733 930.722,549.639 C926.071,553.545 921.073,555.498 915.73,555.498 C912.605,555.498 909.969,554.686 907.823,553.061 C905.803,551.3 904.792,549.087 904.792,546.42 C904.792,542.056 907.105,537.889 911.73,533.92 C916.355,529.951 921.365,527.967 926.761,527.967"/>
<path class="Note" d="M738.455,552.967 C741.58,552.967 744.184,553.748 746.267,555.311 C748.35,556.873 749.392,559.118 749.392,562.045 C749.392,566.535 747.067,570.733 742.416,574.639 C737.764,578.545 732.767,580.498 727.423,580.498 C724.298,580.498 721.663,579.686 719.517,578.061 C717.496,576.3 716.486,574.087 716.486,571.42 C716.486,567.056 718.798,562.889 723.423,558.92 C728.048,554.951 733.059,552.967 738.455,552.967"/>
<path class="Clef" d="M203.623,673.858 L203.623,671.717 C203.56,670.613 203.399,668.889 203.139,666.545 C199.889,667.066 196.993,667.326 194.451,667.326 C185.337,667.326 177.605,663.727 171.256,656.53 C164.907,649.332 161.732,640.754 161.732,630.795 C161.732,628.129 162.253,624.923 163.295,621.178 C164.337,617.433 165.297,614.925 166.178,613.655 C167.058,612.384 168.378,610.155 170.139,606.967 C170.659,605.988 172.352,603.837 175.217,600.514 C175.738,599.806 176.193,599.222 176.584,598.764 C176.975,598.306 177.607,597.49 178.482,596.319 C179.357,595.147 180.3,594.056 181.31,593.045 C182.321,592.035 183.217,591.058 183.998,590.115 C184.779,589.173 185.498,588.379 186.154,587.733 C183.81,579.983 182.378,574.024 181.857,569.858 C181.337,565.691 181.076,560.579 181.076,554.522 C181.076,548.464 182.378,542.962 184.982,538.014 C187.514,532.879 191.06,528.681 195.623,525.42 C195.883,525.222 196.225,525.123 196.646,525.123 C197.068,525.123 197.378,525.222 197.576,525.42 C201.087,529.649 204.128,535.149 206.701,541.92 C209.274,548.691 210.56,555.024 210.56,560.92 C210.56,566.816 209.066,572.498 206.076,577.967 C202.691,583.759 198.326,589.748 192.982,595.936 C194.347,600.227 196.17,606.962 198.451,616.139 L199.045,616.139 C199.305,616.076 199.529,616.045 199.717,616.045 C207.081,616.045 213.089,618.634 217.74,623.811 C222.391,628.988 224.717,634.962 224.717,641.733 C224.717,650.129 221.238,656.899 214.279,662.045 C212.258,663.545 209.878,664.717 207.139,665.561 C207.472,669.79 207.639,672.605 207.639,674.006 C207.639,675.407 207.571,677.899 207.435,681.483 C207.373,687.597 205.29,692.837 201.185,697.201 C197.081,701.566 192.394,703.748 187.123,703.748 C181.852,703.748 177.36,701.876 173.646,698.131 C169.933,694.386 168.076,689.847 168.076,684.514 C168.076,681.712 169.154,679.332 171.31,677.373 C173.519,675.425 176.006,674.451 178.771,674.451 C181.537,674.451 183.8,675.462 185.56,677.483 C187.383,679.368 188.295,681.644 188.295,684.311 C188.295,686.977 187.383,689.222 185.56,691.045 C183.738,692.868 181.555,693.78 179.014,693.78 C177.972,693.78 176.967,693.587 175.998,693.201 C178.863,697.431 182.54,699.545 187.029,699.545 C191.519,699.545 195.36,697.691 198.553,693.983 C201.745,690.274 203.342,685.91 203.342,680.889 L203.623,673.858 M206.748,661.561 C210.133,660.321 212.821,658.123 214.81,654.967 C216.8,651.811 217.795,648.67 217.795,645.545 C217.795,640.92 216.199,636.785 213.006,633.139 C209.813,629.493 205.774,627.441 200.889,626.983 C203.691,640.722 205.644,652.248 206.748,661.561 M168.967,638.998 C168.967,645.446 171.537,651.079 176.678,655.897 C181.818,660.714 187.842,663.123 194.748,663.123 C197.477,663.123 200.144,662.925 202.748,662.53 C201.706,652.634 199.654,640.785 196.592,626.983 C192.758,627.379 189.782,628.699 187.662,630.944 C185.542,633.188 184.482,635.743 184.482,638.608 C184.482,643.556 187.123,647.561 192.404,650.623 C192.852,650.884 193.076,651.324 193.076,651.944 C193.076,652.563 192.865,653.1 192.443,653.553 C192.021,654.006 191.649,654.233 191.326,654.233 C191.003,654.233 190.581,654.17 190.06,654.045 C182.435,649.879 178.623,643.592 178.623,635.186 C178.623,631.217 180.024,627.41 182.826,623.764 C185.753,620.118 189.56,617.774 194.248,616.733 C192.425,609.441 190.93,603.743 189.764,599.639 C180.847,609.67 175.31,617.092 173.154,621.905 C170.363,628.155 168.967,633.852 168.967,638.998 M201.576,539.686 C196.691,542.092 192.834,545.574 190.006,550.131 C187.178,554.688 185.764,559.472 185.764,564.483 C185.764,569.493 186.935,575.972 189.279,583.92 C193.967,578.254 197.514,572.946 199.92,567.998 C202.326,563.05 203.529,558.152 203.529,553.303 C203.529,548.454 202.878,543.915 201.576,539.686"/>
<path class="TimeSig" d="M273.021,567.912 C274.516,567.912 275.949,567.686 277.318,567.233 C278.688,566.78 279.665,566.553 280.248,566.553 C280.831,566.553 281.222,566.907 281.42,567.615 C281.42,567.688 281.352,567.886 281.217,568.209 L252.811,601.225 L269.498,601.225 L269.498,588.131 C269.498,586.506 270.446,585.334 272.342,584.615 C274.29,583.897 276.503,581.001 278.982,575.928 C279.17,575.532 279.462,575.334 279.857,575.334 C280.639,575.334 281.092,575.793 281.217,576.709 L281.217,601.225 L288.357,601.225 C289.264,601.225 289.751,601.712 289.818,602.686 C289.886,603.66 289.399,604.147 288.357,604.147 L281.217,604.147 L281.217,604.928 C281.217,607.532 281.868,609.746 283.17,611.569 C284.67,613.391 286.43,614.303 288.451,614.303 C289.232,614.303 289.623,614.694 289.623,615.475 C289.623,616.256 289.087,616.647 288.014,616.647 C286.941,616.647 284.938,616.436 282.006,616.014 C279.074,615.592 276.811,615.381 275.217,615.381 C273.623,615.381 271.41,615.592 268.576,616.014 C265.743,616.436 263.613,616.647 262.186,616.647 C261.404,616.647 261.014,616.256 261.014,615.475 C261.014,614.694 261.404,614.303 262.186,614.303 C264.196,614.303 265.951,613.391 267.451,611.569 C268.816,609.683 269.498,607.47 269.498,604.928 L269.498,604.147 L252.811,604.147 C251.956,604.147 251.219,603.92 250.6,603.467 C249.98,603.014 249.67,602.592 249.67,602.201 C249.67,601.811 250.485,600.639 252.115,598.686 C253.745,596.733 256.074,592.972 259.1,587.405 C262.126,581.837 263.639,575.438 263.639,568.209 C263.639,567.168 264.097,566.647 265.014,566.647 C265.212,566.647 265.521,566.712 265.943,566.842 C266.365,566.972 267.277,567.183 268.678,567.475 C270.079,567.766 271.527,567.912 273.021,567.912"/>
<path class="TimeSig" d="M273.021,618.084 C274.516,618.084 275.949,617.858 277.318,617.405 C278.688,616.951 279.665,616.725 280.248,616.725 C280.831,616.725 281.222,617.079 281.42,617.787 C281.42,617.86 281.352,618.058 281.217,618.381 L252.811,651.397 L269.498,651.397 L269.498,638.303 C269.498,636.678 270.446,635.506 272.342,634.787 C274.29,634.069 276.503,631.173 278.982,626.1 C279.17,625.704 279.462,625.506 279.857,625.506 C280.639,625.506 281.092,625.964 281.217,626.881 L281.217,651.397 L288.357,651.397 C289.264,651.397 289.751,651.884 289.818,652.858 C289.886,653.832 289.399,654.319 288.357,654.319 L281.217,654.319 L281.217,655.1 C281.217,657.704 281.868,659.918 283.17,661.74 C284.67,663.563 286.43,664.475 288.451,664.475 C289.232,664.475 289.623,664.865 289.623,665.647 C289.623,666.428 289.087,666.819 288.014,666.819 C286.941,666.819 284.938,666.608 282.006,666.186 C279.074,665.764 276.811,665.553 275.217,665.553 C273.623,665.553 271.41,665.764 268.576,666.186 C265.743,666.608 263.613,666.819 262.186,666.819 C261.404,666.819 261.014,666.428 261.014,665.647 C261.014,664.865 261.404,664.475 262.186,664.475 C264.196,664.475 265.951,663.563 267.451,661.74 C268.816,659.855 269.498,657.642 269.498,655.1 L269.498,654.319 L252.811,654.319 C251.956,654.319 251.219,654.092 250.6,653.639 C249.98,653.186 249.67,652.764 249.67,652.373 C249.67,651.983 250.485,650.811 252.115,648.858 C253.745,646.905 256.074,643.144 259.1,637.576 C262.126,632.009 263.639,625.61 263.639,618.381 C263.639,617.339 264.097,616.819 265.014,616.819 C265.212,616.819 265.521,616.884 265.943,617.014 C266.365,617.144 267.277,617.355 268.678,617.647 C270.079,617.938 271.527,618.084 273.021,618.084"/>
<path class="Rest" d="M1339.22,607.358 L1303.68,607.358 C1303.02,607.358 1302.69,607.035 1302.69,606.389 L1302.69,592.717 C1302.69,592.061 1303.02,591.733 1303.68,591.733 L1339.22,591.733 C1339.87,591.733 1340.19,592.061 1340.19,592.717 L1340.19,606.389 C1340.19,607.035 1339.87,607.358 1339.22,607.358"/>
<path class="Rest" d="M2594.15,607.358 L2558.61,607.358 C2557.95,607.358 2557.62,607.035 2557.62,606.389 L2557.62,592.717 C2557.62,592.061 2557.95,591.733 2558.61,591.733 L2594.15,591.733 C2594.8,591.733 2595.12,592.061 2595.12,592.717 L2595.12,606.389 C2595.12,607.035 2594.8,607.358 2594.15,607.358"/>
</svg>
