<?xml version="1.0" encoding="UTF-8" standalone="no"?>
<svg width="2977.2px" height="4208.4px" viewBox="0 0 2977.2 4208.4"
 xmlns="http://www.w3.org/2000/svg" xmlns:xlink="http://www.w3.org/1999/xlink" version="1.2" baseProfile="tiny">
<title>Itsy_Bitsy_Spider.mscx</title>
<desc>Generated by MuseScore Studio 4.3.1</desc>
<path class="" fill="#ffffff" fill-rule="evenodd" d="M0,0 L2977.2,0 L2977.2,4208.4 L0,4208.4 L0,0 "/>
<polyline class="StaffLines" fill="none" stroke="#000000" stroke-width="2.00" stroke-linejoin="bevel" points="141.732,316.732 2835.47,316.732"/>
<polyline class="StaffLines" fill="none" stroke="#000000" stroke-width="2.00" stroke-linejoin="bevel" points="141.732,341.732 2835.47,341.732"/>
<polyline class="StaffLines" fill="none" stroke="#000000" stroke-width="2.00" stroke-linejoin="bevel" points="141.732,366.733 2835.47,366.733"/>
<polyline class="StaffLines" fill="none" stroke="#000000" stroke-width="2.00" stroke-linejoin="bevel" points="141.732,391.733 2835.47,391.733"/>
<polyline class="StaffLines" fill="none" stroke="#000000" stroke-width="2.00" stroke-linejoin="bevel" points="141.732,416.733 2835.47,416.733"/>
<polyline class="StaffLines" fill="none" stroke="#000000" stroke-width="2.00" stroke-linejoin="bevel" points="141.732,791.733 2835.47,791.733"/>
<polyline class="StaffLines" fill="none" stroke="#000000" stroke-width="2.00" stroke-linejoin="bevel" points="141.732,816.733 2835.47,816.733"/>
<polyline class="StaffLines" fill="none" stroke="#000000" stroke-width="2.00" stroke-linejoin="bevel" points="141.732,841.733 2835.47,841.733"/>
<polyline class="StaffLines" fill="none" stroke="#000000" stroke-width="2.00" stroke-linejoin="bevel" points="141.732,866.733 2835.47,866.733"/>
<polyline class="StaffLines" fill="none" stroke="#000000" stroke-width="2.00" stroke-linejoin="bevel" points="141.732,891.733 2835.47,891.733"/>
<polyline class="StaffLines" fill="none" stroke="#000000" stroke-width="2.00" stroke-linejoin="bevel" points="141.732,1266.73 2835.47,1266.73"/>
<polyline class="StaffLines" fill="none" stroke="#000000" stroke-width="2.00" stroke-linejoin="bevel" points="141.732,1291.73 2835.47,1291.73"/>
<polyline class="StaffLines" fill="none" stroke="#000000" stroke-width="2.00" stroke-linejoin="bevel" points="141.732,1316.73 2835.47,1316.73"/>
<polyline class="StaffLines" fill="none" stroke="#000000" stroke-width="2.00" stroke-linejoin="bevel" points="141.732,1341.73 2835.47,1341.73"/>
<polyline class="StaffLines" fill="none" stroke="#000000" stroke-width="2.00" stroke-linejoin="bevel" points="141.732,1366.73 2835.47,1366.73"/>
<polyline class="StaffLines" fill="none" stroke="#000000" stroke-width="2.00" stroke-linejoin="bevel" points="141.732,1741.73 2835.47,1741.73"/>
<polyline class="StaffLines" fill="none" stroke="#000000" stroke-width="2.00" stroke-linejoin="bevel" points="141.732,1766.73 2835.47,1766.73"/>
<polyline class="StaffLines" fill="none" stroke="#000000" stroke-width="2.00" stroke-linejoin="bevel" points="141.732,1791.73 2835.47,1791.73"/>
<polyline class="StaffLines" fill="none" stroke="#000000" stroke-width="2.00" stroke-linejoin="bevel" points="141.732,1816.73 2835.47,1816.73"/>
<polyline class="StaffLines" fill="none" stroke="#000000" stroke-width="2.00" stroke-linejoin="bevel" points="141.732,1841.73 2835.47,1841.73"/>
<path class="MeasureNumber" d="M128.045,1668.01 C127.566,1668.01 126.607,1668.31 125.17,1668.89 L125.17,1668.34 L132.373,1664.7 L132.685,1664.78 L132.685,1688.78 C132.685,1689.74 132.925,1690.36 133.404,1690.66 C133.883,1690.95 134.909,1691.11 136.482,1691.14 L136.482,1691.73 L125.451,1691.73 L125.451,1691.14 C126.941,1691.08 127.946,1690.85 128.467,1690.47 C128.988,1690.08 129.248,1689.26 129.248,1688.01 L129.248,1669.89 C129.248,1668.64 128.847,1668.01 128.045,1668.01 M154.998,1683.87 C154.998,1682.45 154.683,1681.18 154.053,1680.08 C153.422,1678.97 152.662,1678.12 151.771,1677.51 C150.881,1676.91 149.883,1676.41 148.779,1676.02 C147.675,1675.63 146.714,1675.38 145.896,1675.26 C145.079,1675.14 144.368,1675.08 143.764,1675.08 C143.441,1675.08 143.279,1674.97 143.279,1674.75 C143.279,1674.68 143.29,1674.61 143.31,1674.56 L147.67,1665.26 L156.029,1665.26 C156.456,1665.26 156.797,1665.2 157.053,1665.06 C157.308,1664.93 157.581,1664.64 157.873,1664.22 L158.232,1664.5 L156.717,1667.84 C156.613,1668.06 156.305,1668.17 155.795,1668.17 L147.951,1668.17 L146.279,1671.61 C150.165,1672.31 153.055,1673.44 154.951,1675.01 C156.847,1676.59 157.795,1678.89 157.795,1681.94 C157.795,1683.53 157.547,1684.95 157.053,1686.19 C156.558,1687.43 155.93,1688.42 155.17,1689.18 C154.409,1689.93 153.529,1690.55 152.529,1691.04 C151.529,1691.52 150.571,1691.85 149.654,1692.03 C148.738,1692.21 147.81,1692.3 146.873,1692.3 C145.383,1692.3 144.199,1692.07 143.318,1691.63 C142.438,1691.19 141.998,1690.58 141.998,1689.81 C141.998,1688.82 142.571,1688.33 143.717,1688.33 C144.467,1688.33 145.433,1688.74 146.615,1689.55 C147.797,1690.37 148.738,1690.78 149.435,1690.78 C151.008,1690.78 152.329,1690.11 153.396,1688.78 C154.464,1687.45 154.998,1685.81 154.998,1683.87"/>
<path class="MeasureNumber" d="M142.045,742.295 C139.357,742.295 137.193,741.22 135.553,739.069 C133.912,736.918 133.092,734.076 133.092,730.545 C133.092,729.462 133.199,728.34 133.412,727.178 C133.626,726.017 134.092,724.699 134.81,723.225 C135.529,721.751 136.462,720.428 137.607,719.256 C138.753,718.084 140.36,717.037 142.428,716.116 C144.495,715.194 146.878,714.613 149.576,714.373 L149.654,715.014 C146.508,715.524 143.881,716.8 141.771,718.842 C139.662,720.884 138.342,723.41 137.81,726.42 C139.06,725.701 140.006,725.235 140.646,725.022 C141.287,724.808 142.05,724.701 142.935,724.701 C145.227,724.701 147.053,725.444 148.412,726.928 C149.771,728.412 150.451,730.415 150.451,732.936 C150.451,735.696 149.67,737.946 148.107,739.686 C146.545,741.425 144.524,742.295 142.045,742.295 M141.404,726.451 C139.592,726.451 138.373,726.85 137.748,727.647 C137.123,728.444 136.81,729.623 136.81,731.186 C136.81,734.259 137.318,736.678 138.334,738.444 C139.35,740.209 140.738,741.092 142.498,741.092 C143.904,741.092 144.982,740.501 145.732,739.319 C146.482,738.136 146.857,736.462 146.857,734.295 C146.857,731.795 146.383,729.863 145.435,728.498 C144.488,727.134 143.144,726.451 141.404,726.451"/>
<path class="MeasureNumber" d="M129.045,1193.01 C128.566,1193.01 127.607,1193.31 126.17,1193.89 L126.17,1193.34 L133.373,1189.7 L133.685,1189.78 L133.685,1213.78 C133.685,1214.74 133.925,1215.36 134.404,1215.65 C134.883,1215.95 135.909,1216.11 137.482,1216.14 L137.482,1216.73 L126.451,1216.73 L126.451,1216.14 C127.941,1216.08 128.946,1215.85 129.467,1215.47 C129.988,1215.08 130.248,1214.26 130.248,1213.01 L130.248,1194.89 C130.248,1193.64 129.847,1193.01 129.045,1193.01 M149.029,1193.01 C148.55,1193.01 147.592,1193.31 146.154,1193.89 L146.154,1193.34 L153.357,1189.7 L153.67,1189.78 L153.67,1213.78 C153.67,1214.74 153.909,1215.36 154.389,1215.65 C154.868,1215.95 155.894,1216.11 157.467,1216.14 L157.467,1216.73 L146.435,1216.73 L146.435,1216.14 C147.925,1216.08 148.93,1215.85 149.451,1215.47 C149.972,1215.08 150.232,1214.26 150.232,1213.01 L150.232,1194.89 C150.232,1193.64 149.831,1193.01 149.029,1193.01"/>
<polyline class="BarLine" fill="none" stroke="#000000" stroke-width="4.00" stroke-linejoin="bevel" points="2833.47,790.733 2833.47,892.733"/>
<polyline class="BarLine" fill="none" stroke="#000000" stroke-width="4.00" stroke-linejoin="bevel" points="802.561,1265.73 802.561,1367.73"/>
<polyline class="BarLine" fill="none" stroke="#000000" stroke-width="4.00" stroke-linejoin="bevel" points="1751.84,315.732 1751.84,417.733"/>
<polyline class="BarLine" fill="none" stroke="#000000" stroke-width="4.00" stroke-linejoin="bevel" points="1913.92,790.733 1913.92,892.733"/>
<polyline class="BarLine" fill="none" stroke="#000000" stroke-width="4.00" stroke-linejoin="bevel" points="1170.91,1740.73 1170.91,1842.73"/>
<polyline class="BarLine" fill="none" stroke="#000000" stroke-width="4.00" stroke-linejoin="bevel" points="1506.46,1265.73 1506.46,1367.73"/>
<polyline class="BarLine" fill="none" stroke="#000000" stroke-width="4.00" stroke-linejoin="bevel" points="2282.24,790.733 2282.24,892.733"/>
<polyline class="BarLine" fill="none" stroke="#000000" stroke-width="4.00" stroke-linejoin="bevel" points="1149.56,315.732 1149.56,417.733"/>
<polyline class="BarLine" fill="none" stroke="#000000" stroke-width="4.00" stroke-linejoin="bevel" points="2129.57,1265.73 2129.57,1367.73"/>
<polyline class="BarLine" fill="none" stroke="#000000" stroke-width="4.00" stroke-linejoin="bevel" points="811.462,790.733 811.462,892.733"/>
<polyline class="BarLine" fill="none" stroke="#000000" stroke-width="4.00" stroke-linejoin="bevel" points="2833.47,315.732 2833.47,417.733"/>
<polyline class="BarLine" fill="none" stroke="#000000" stroke-width="4.00" stroke-linejoin="bevel" points="1291.68,790.733 1291.68,892.733"/>
<polyline class="BarLine" fill="none" stroke="#000000" stroke-width="4.00" stroke-linejoin="bevel" points="2432.07,315.732 2432.07,417.733"/>
<polyline class="BarLine" fill="none" stroke="#000000" stroke-width="4.00" stroke-linejoin="bevel" points="469.33,315.732 469.33,417.733"/>
<polyline class="BarLine" fill="none" stroke="#000000" stroke-width="4.00" stroke-linejoin="bevel" points="2833.47,1265.73 2833.47,1367.73"/>
<polyline class="BarLine" fill="none" stroke="#000000" stroke-width="4.00" stroke-linejoin="bevel" points="2201.47,1740.73 2201.47,1842.73"/>
<polyline class="BarLine" fill="none" stroke="#000000" stroke-width="4.00" stroke-linejoin="bevel" points="2802.72,1740.73 2802.72,1842.73"/>
<polyline class="BarLine" fill="none" stroke="#000000" stroke-width="12.50" stroke-linejoin="bevel" points="2829.22,1740.73 2829.22,1842.73"/>
<polyline class="Stem" fill="none" stroke="#000000" stroke-width="3.25" stroke-linejoin="bevel" points="1320.31,797.602 1320.31,879.233"/>
<polyline class="Stem" fill="none" stroke="#000000" stroke-width="3.25" stroke-linejoin="bevel" points="1065.7,785.102 1065.7,866.733"/>
<polyline class="Stem" fill="none" stroke="#000000" stroke-width="3.25" stroke-linejoin="bevel" points="669.753,1760.1 669.753,1841.73"/>
<polyline class="Stem" fill="none" stroke="#000000" stroke-width="3.25" stroke-linejoin="bevel" points="1700.32,1772.6 1700.32,1854.23"/>
<polyline class="Stem" fill="none" stroke="#000000" stroke-width="3.25" stroke-linejoin="bevel" points="1498.28,810.102 1498.28,892.333"/>
<polyline class="Stem" fill="none" stroke="#000000" stroke-width="3.25" stroke-linejoin="bevel" points="1616.93,797.602 1616.93,879.233"/>
<polyline class="Stem" fill="none" stroke="#000000" stroke-width="3.25" stroke-linejoin="bevel" points="1500,1785.1 1500,1861.08"/>
<polyline class="Stem" fill="none" stroke="#000000" stroke-width="3.25" stroke-linejoin="bevel" points="1794.9,785.102 1794.9,867.333"/>
<polyline class="Stem" fill="none" stroke="#000000" stroke-width="3.25" stroke-linejoin="bevel" points="1942.55,809.133 1942.55,891.733"/>
<polyline class="Stem" fill="none" stroke="#000000" stroke-width="3.25" stroke-linejoin="bevel" points="1371.1,1285.1 1371.1,1367.33"/>
<polyline class="Stem" fill="none" stroke="#000000" stroke-width="3.25" stroke-linejoin="bevel" points="288.857,1760.1 288.857,1841.73"/>
<polyline class="Stem" fill="none" stroke="#000000" stroke-width="3.25" stroke-linejoin="bevel" points="2698.11,1297.6 2698.11,1379.83"/>
<polyline class="Stem" fill="none" stroke="#000000" stroke-width="3.25" stroke-linejoin="bevel" points="2495.64,1310.1 2495.64,1385.48"/>
<polyline class="Stem" fill="none" stroke="#000000" stroke-width="3.25" stroke-linejoin="bevel" points="2360.67,1310.1 2360.67,1386.08"/>
<polyline class="Stem" fill="none" stroke="#000000" stroke-width="3.25" stroke-linejoin="bevel" points="2158.2,1310.1 2158.2,1385.48"/>
<polyline class="Stem" fill="none" stroke="#000000" stroke-width="3.25" stroke-linejoin="bevel" points="970.222,1760.1 970.222,1842.33"/>
<polyline class="Stem" fill="none" stroke="#000000" stroke-width="3.25" stroke-linejoin="bevel" points="2023.88,1335.86 2023.88,1253.53"/>
<polyline class="Stem" fill="none" stroke="#000000" stroke-width="3.25" stroke-linejoin="bevel" points="1821.41,1335.86 1821.41,1254.23"/>
<polyline class="Stem" fill="none" stroke="#000000" stroke-width="3.25" stroke-linejoin="bevel" points="1535.08,1310.1 1535.08,1385.48"/>
<polyline class="Stem" fill="none" stroke="#000000" stroke-width="3.25" stroke-linejoin="bevel" points="2310.86,835.102 2310.86,910.483"/>
<polyline class="Stem" fill="none" stroke="#000000" stroke-width="3.25" stroke-linejoin="bevel" points="1168.63,1297.6 1168.63,1379.23"/>
<polyline class="Stem" fill="none" stroke="#000000" stroke-width="3.25" stroke-linejoin="bevel" points="1033.66,1310.1 1033.66,1386.08"/>
<polyline class="Stem" fill="none" stroke="#000000" stroke-width="3.25" stroke-linejoin="bevel" points="831.186,1297.6 831.186,1379.23"/>
<polyline class="Stem" fill="none" stroke="#000000" stroke-width="3.25" stroke-linejoin="bevel" points="545.522,1285.1 545.522,1366.73"/>
<polyline class="Stem" fill="none" stroke="#000000" stroke-width="3.25" stroke-linejoin="bevel" points="288.857,1285.1 288.857,1366.73"/>
<polyline class="Stem" fill="none" stroke="#000000" stroke-width="3.25" stroke-linejoin="bevel" points="1199.53,1772.6 1199.53,1854.23"/>
<polyline class="Stem" fill="none" stroke="#000000" stroke-width="3.25" stroke-linejoin="bevel" points="2714.45,822.602 2714.45,904.833"/>
<polyline class="Stem" fill="none" stroke="#000000" stroke-width="3.25" stroke-linejoin="bevel" points="2536.47,835.102 2536.47,910.483"/>
<polyline class="Stem" fill="none" stroke="#000000" stroke-width="3.25" stroke-linejoin="bevel" points="1178.19,335.102 1178.19,416.733"/>
<polyline class="Stem" fill="none" stroke="#000000" stroke-width="3.25" stroke-linejoin="bevel" points="1780.46,347.602 1780.46,429.233"/>
<polyline class="Stem" fill="none" stroke="#000000" stroke-width="3.25" stroke-linejoin="bevel" points="1975.83,360.102 1975.83,436.083"/>
<polyline class="Stem" fill="none" stroke="#000000" stroke-width="3.25" stroke-linejoin="bevel" points="1621.22,335.102 1621.22,417.333"/>
<polyline class="Stem" fill="none" stroke="#000000" stroke-width="3.25" stroke-linejoin="bevel" points="823.57,360.102 823.57,435.483"/>
<polyline class="Stem" fill="none" stroke="#000000" stroke-width="3.25" stroke-linejoin="bevel" points="2106.08,347.602 2106.08,429.233"/>
<polyline class="Stem" fill="none" stroke="#000000" stroke-width="3.25" stroke-linejoin="bevel" points="693.324,360.102 693.324,436.083"/>
<polyline class="Stem" fill="none" stroke="#000000" stroke-width="3.25" stroke-linejoin="bevel" points="2301.45,335.102 2301.45,417.333"/>
<polyline class="Stem" fill="none" stroke="#000000" stroke-width="3.25" stroke-linejoin="bevel" points="1018.94,347.602 1018.94,429.833"/>
<polyline class="Stem" fill="none" stroke="#000000" stroke-width="3.25" stroke-linejoin="bevel" points="2460.7,359.132 2460.7,435.483"/>
<polyline class="Stem" fill="none" stroke="#000000" stroke-width="3.25" stroke-linejoin="bevel" points="2000.78,1760.1 2000.78,1842.33"/>
<polyline class="Stem" fill="none" stroke="#000000" stroke-width="3.25" stroke-linejoin="bevel" points="288.857,810.102 288.857,891.733"/>
<polyline class="Stem" fill="none" stroke="#000000" stroke-width="3.25" stroke-linejoin="bevel" points="497.955,360.102 497.955,435.483"/>
<polyline class="Stem" fill="none" stroke="#000000" stroke-width="3.25" stroke-linejoin="bevel" points="1425.85,335.102 1425.85,416.733"/>
<polyline class="Stem" fill="none" stroke="#000000" stroke-width="3.25" stroke-linejoin="bevel" points="514.467,810.102 514.467,891.733"/>
<polyline class="Stem" fill="none" stroke="#000000" stroke-width="3.25" stroke-linejoin="bevel" points="2230.1,1784.13 2230.1,1860.48"/>
<polyline class="Stem" fill="none" stroke="#000000" stroke-width="3.25" stroke-linejoin="bevel" points="368.373,385.863 368.373,303.532"/>
<polyline class="Stem" fill="none" stroke="#000000" stroke-width="3.25" stroke-linejoin="bevel" points="840.087,785.102 840.087,866.733"/>
<polyline class="Stem" fill="none" stroke="#000000" stroke-width="3.25" stroke-linejoin="bevel" points="692.439,797.602 692.439,879.833"/>
<path class="Hook" d="M2021.91,1769.37 C2023.41,1769.37 2024.99,1771.8 2026.65,1776.65 C2028.31,1781.5 2029.14,1785.94 2029.14,1789.98 C2029.14,1794.01 2028.22,1797.92 2026.36,1801.69 C2024.51,1805.47 2022.28,1808.79 2019.68,1811.66 L2011.66,1820.64 C2009.19,1823.5 2007.01,1826.79 2005.12,1830.5 C2003.23,1834.21 2002.28,1837.95 2002.28,1841.73 L1999.16,1841.73 L1999.16,1816.73 L2002.28,1816.73 C2013.22,1809.83 2020.09,1803.71 2022.89,1798.37 C2024.26,1795.77 2024.94,1793.13 2024.94,1790.47 C2024.94,1784.28 2023.15,1778.12 2019.57,1772 L2019.57,1771.61 C2019.57,1771.03 2019.8,1770.51 2020.25,1770.05 C2020.71,1769.6 2021.26,1769.37 2021.91,1769.37"/>
<path class="Hook" d="M2022.26,1279.23 L2022.26,1254.23 L2025.38,1254.23 C2025.38,1257.94 2026.13,1261.73 2027.63,1265.61 C2029.13,1269.48 2030.69,1272.71 2032.32,1275.28 C2033.94,1277.85 2035.96,1281.09 2038.37,1285 C2043.65,1293.53 2046.29,1301.12 2046.29,1307.76 C2046.29,1314.4 2044.89,1321.23 2042.08,1328.26 C2041.56,1329.05 2040.96,1329.44 2040.28,1329.44 C2039.6,1329.44 2039.03,1329.21 2038.57,1328.75 C2038.11,1328.29 2037.88,1327.77 2037.88,1327.19 L2037.88,1326.7 C2040.68,1320.25 2042.08,1313.87 2042.08,1307.56 C2042.08,1304.3 2041.09,1300.75 2039.11,1296.91 C2037.12,1293.07 2035.07,1289.93 2032.95,1287.49 C2030.83,1285.05 2028.31,1282.3 2025.38,1279.23 L2022.26,1279.23 "/>
<path class="Hook" d="M1040.06,356.873 C1041.56,356.873 1043.15,359.298 1044.81,364.147 C1046.47,368.996 1047.3,373.438 1047.3,377.475 C1047.3,381.511 1046.37,385.417 1044.52,389.193 C1042.66,392.97 1040.43,396.29 1037.83,399.154 L1029.81,408.139 C1027.35,411.003 1025.17,414.29 1023.28,417.998 C1021.38,421.706 1020.44,425.451 1020.44,429.233 L1017.31,429.233 L1017.31,404.233 L1020.44,404.233 C1031.38,397.326 1038.25,391.206 1041.05,385.873 C1042.41,383.269 1043.1,380.634 1043.1,377.967 C1043.1,371.779 1041.3,365.623 1037.72,359.498 L1037.72,359.108 C1037.72,358.524 1037.95,358.006 1038.41,357.553 C1038.87,357.1 1039.42,356.873 1040.06,356.873"/>
<path class="Hook" d="M1996.96,363.123 C1998.46,363.123 2000.04,365.548 2001.7,370.397 C2003.36,375.246 2004.19,379.688 2004.19,383.725 C2004.19,387.761 2003.27,391.667 2001.41,395.443 C1999.56,399.22 1997.33,402.54 1994.72,405.404 L1986.71,414.389 C1984.24,417.253 1982.06,420.54 1980.17,424.248 C1978.28,427.957 1977.33,431.701 1977.33,435.483 L1974.21,435.483 L1974.21,410.483 L1977.33,410.483 C1988.27,403.576 1995.14,397.457 1997.94,392.123 C1999.31,389.519 1999.99,386.884 1999.99,384.217 C1999.99,378.029 1998.2,371.873 1994.62,365.748 L1994.62,365.358 C1994.62,364.774 1994.84,364.256 1995.3,363.803 C1995.76,363.35 1996.31,363.123 1996.96,363.123"/>
<path class="Hook" d="M1392.23,1294.37 C1393.73,1294.37 1395.31,1296.8 1396.97,1301.65 C1398.63,1306.5 1399.46,1310.94 1399.46,1314.98 C1399.46,1319.01 1398.54,1322.92 1396.68,1326.69 C1394.83,1330.47 1392.6,1333.79 1389.99,1336.66 L1381.98,1345.64 C1379.51,1348.5 1377.33,1351.79 1375.44,1355.5 C1373.55,1359.21 1372.6,1362.95 1372.6,1366.73 L1369.48,1366.73 L1369.48,1341.73 L1372.6,1341.73 C1383.54,1334.83 1390.41,1328.71 1393.21,1323.37 C1394.58,1320.77 1395.26,1318.13 1395.26,1315.47 C1395.26,1309.28 1393.47,1303.12 1389.89,1297 L1389.89,1296.61 C1389.89,1296.02 1390.11,1295.51 1390.57,1295.05 C1391.03,1294.6 1391.58,1294.37 1392.23,1294.37"/>
<path class="Hook" d="M1642.34,344.373 C1643.84,344.373 1645.42,346.798 1647.09,351.647 C1648.75,356.496 1649.58,360.938 1649.58,364.975 C1649.58,369.011 1648.65,372.917 1646.8,376.693 C1644.94,380.47 1642.71,383.79 1640.11,386.654 L1632.09,395.639 C1629.62,398.503 1627.45,401.79 1625.55,405.498 C1623.66,409.206 1622.72,412.951 1622.72,416.733 L1619.59,416.733 L1619.59,391.733 L1622.72,391.733 C1633.66,384.826 1640.53,378.706 1643.33,373.373 C1644.69,370.769 1645.37,368.134 1645.37,365.467 C1645.37,359.279 1643.58,353.123 1640,346.998 L1640,346.608 C1640,346.024 1640.23,345.506 1640.69,345.053 C1641.15,344.6 1641.7,344.373 1642.34,344.373"/>
<path class="Hook" d="M2322.57,344.373 C2324.07,344.373 2325.65,346.798 2327.32,351.647 C2328.98,356.496 2329.81,360.938 2329.81,364.975 C2329.81,369.011 2328.88,372.917 2327.03,376.693 C2325.17,380.47 2322.94,383.79 2320.34,386.654 L2312.32,395.639 C2309.86,398.503 2307.68,401.79 2305.78,405.498 C2303.89,409.206 2302.95,412.951 2302.95,416.733 L2299.82,416.733 L2299.82,391.733 L2302.95,391.733 C2313.89,384.826 2320.76,378.706 2323.56,373.373 C2324.92,370.769 2325.61,368.134 2325.61,365.467 C2325.61,359.279 2323.81,353.123 2320.23,346.998 L2320.23,346.608 C2320.23,346.024 2320.46,345.506 2320.92,345.053 C2321.38,344.6 2321.93,344.373 2322.57,344.373"/>
<path class="Hook" d="M991.347,1769.37 C992.847,1769.37 994.428,1771.8 996.089,1776.65 C997.751,1781.5 998.581,1785.94 998.581,1789.98 C998.581,1794.01 997.654,1797.92 995.8,1801.69 C993.946,1805.47 991.717,1808.79 989.113,1811.66 L981.097,1820.64 C978.628,1823.5 976.449,1826.79 974.558,1830.5 C972.667,1834.21 971.722,1837.95 971.722,1841.73 L968.597,1841.73 L968.597,1816.73 L971.722,1816.73 C982.66,1809.83 989.529,1803.71 992.331,1798.37 C993.696,1795.77 994.378,1793.13 994.378,1790.47 C994.378,1784.28 992.587,1778.12 989.003,1772 L989.003,1771.61 C989.003,1771.03 989.232,1770.51 989.691,1770.05 C990.149,1769.6 990.701,1769.37 991.347,1769.37"/>
<path class="Hook" d="M1519.4,819.373 C1520.9,819.373 1522.48,821.798 1524.15,826.647 C1525.81,831.496 1526.64,835.939 1526.64,839.975 C1526.64,844.011 1525.71,847.918 1523.86,851.694 C1522,855.47 1519.77,858.79 1517.17,861.655 L1509.15,870.639 C1506.69,873.504 1504.51,876.79 1502.61,880.498 C1500.72,884.207 1499.78,887.952 1499.78,891.733 L1496.65,891.733 L1496.65,866.733 L1499.78,866.733 C1510.72,859.827 1517.59,853.707 1520.39,848.373 C1521.75,845.769 1522.44,843.134 1522.44,840.467 C1522.44,834.28 1520.64,828.123 1517.06,821.998 L1517.06,821.608 C1517.06,821.024 1517.29,820.506 1517.75,820.053 C1518.21,819.6 1518.76,819.373 1519.4,819.373"/>
<path class="Hook" d="M2735.57,831.873 C2737.07,831.873 2738.65,834.298 2740.31,839.147 C2741.97,843.996 2742.8,848.439 2742.8,852.475 C2742.8,856.511 2741.88,860.418 2740.02,864.194 C2738.17,867.97 2735.94,871.29 2733.34,874.155 L2725.32,883.139 C2722.85,886.004 2720.67,889.29 2718.78,892.998 C2716.89,896.707 2715.95,900.452 2715.95,904.233 L2712.82,904.233 L2712.82,879.233 L2715.95,879.233 C2726.88,872.327 2733.75,866.207 2736.55,860.873 C2737.92,858.269 2738.6,855.634 2738.6,852.967 C2738.6,846.78 2736.81,840.623 2733.23,834.498 L2733.23,834.108 C2733.23,833.525 2733.46,833.006 2733.91,832.553 C2734.37,832.1 2734.92,831.873 2735.57,831.873"/>
<path class="Hook" d="M713.564,806.873 C715.064,806.873 716.645,809.298 718.306,814.147 C719.968,818.996 720.799,823.439 720.799,827.475 C720.799,831.511 719.871,835.418 718.017,839.194 C716.163,842.97 713.934,846.29 711.33,849.155 L703.314,858.139 C700.845,861.004 698.666,864.29 696.775,867.998 C694.885,871.707 693.939,875.452 693.939,879.233 L690.814,879.233 L690.814,854.233 L693.939,854.233 C704.877,847.327 711.746,841.207 714.549,835.873 C715.913,833.269 716.595,830.634 716.595,827.967 C716.595,821.78 714.804,815.623 711.22,809.498 L711.22,809.108 C711.22,808.524 711.45,808.006 711.908,807.553 C712.366,807.1 712.918,806.873 713.564,806.873"/>
<path class="Hook" d="M2381.79,1313.12 C2383.29,1313.12 2384.87,1315.55 2386.53,1320.4 C2388.19,1325.25 2389.02,1329.69 2389.02,1333.73 C2389.02,1337.76 2388.1,1341.67 2386.24,1345.44 C2384.39,1349.22 2382.16,1352.54 2379.56,1355.41 L2371.54,1364.39 C2369.07,1367.25 2366.89,1370.54 2365,1374.25 C2363.11,1377.96 2362.17,1381.7 2362.17,1385.48 L2359.04,1385.48 L2359.04,1360.48 L2362.17,1360.48 C2373.1,1353.58 2379.97,1347.46 2382.77,1342.12 C2384.14,1339.52 2384.82,1336.88 2384.82,1334.22 C2384.82,1328.03 2383.03,1321.87 2379.45,1315.75 L2379.45,1315.36 C2379.45,1314.77 2379.68,1314.26 2380.13,1313.8 C2380.59,1313.35 2381.14,1313.12 2381.79,1313.12"/>
<path class="Hook" d="M1521.13,1788.12 C1522.63,1788.12 1524.21,1790.55 1525.87,1795.4 C1527.53,1800.25 1528.36,1804.69 1528.36,1808.73 C1528.36,1812.76 1527.44,1816.67 1525.58,1820.44 C1523.73,1824.22 1521.5,1827.54 1518.89,1830.41 L1510.88,1839.39 C1508.41,1842.25 1506.23,1845.54 1504.34,1849.25 C1502.45,1852.96 1501.5,1856.7 1501.5,1860.48 L1498.38,1860.48 L1498.38,1835.48 L1501.5,1835.48 C1512.44,1828.58 1519.31,1822.46 1522.11,1817.12 C1523.48,1814.52 1524.16,1811.88 1524.16,1809.22 C1524.16,1803.03 1522.37,1796.87 1518.78,1790.75 L1518.78,1790.36 C1518.78,1789.78 1519.01,1789.26 1519.47,1788.8 C1519.93,1788.35 1520.48,1788.12 1521.13,1788.12"/>
<path class="Hook" d="M714.449,363.123 C715.949,363.123 717.53,365.548 719.191,370.397 C720.853,375.246 721.684,379.688 721.684,383.725 C721.684,387.761 720.757,391.667 718.902,395.443 C717.048,399.22 714.819,402.54 712.215,405.404 L704.199,414.389 C701.731,417.253 699.551,420.54 697.66,424.248 C695.77,427.957 694.824,431.701 694.824,435.483 L691.699,435.483 L691.699,410.483 L694.824,410.483 C705.762,403.576 712.632,397.457 715.434,392.123 C716.798,389.519 717.481,386.884 717.481,384.217 C717.481,378.029 715.689,371.873 712.106,365.748 L712.106,365.358 C712.106,364.774 712.335,364.256 712.793,363.803 C713.251,363.35 713.803,363.123 714.449,363.123"/>
<path class="Hook" d="M366.748,329.232 L366.748,304.232 L369.873,304.232 C369.873,307.941 370.623,311.732 372.123,315.607 C373.623,319.482 375.186,322.706 376.811,325.279 C378.436,327.852 380.451,331.092 382.858,334.998 C388.139,343.529 390.779,351.115 390.779,357.756 C390.779,364.397 389.378,371.232 386.576,378.264 C386.055,379.045 385.454,379.436 384.772,379.436 C384.089,379.436 383.519,379.206 383.061,378.748 C382.602,378.29 382.373,377.769 382.373,377.186 L382.373,376.701 C385.175,370.253 386.576,363.873 386.576,357.561 C386.576,354.3 385.584,350.751 383.6,346.912 C381.615,343.074 379.563,339.933 377.443,337.49 C375.324,335.048 372.8,332.295 369.873,329.232 L366.748,329.232 "/>
<path class="Hook" d="M1054.78,1313.12 C1056.28,1313.12 1057.86,1315.55 1059.52,1320.4 C1061.18,1325.25 1062.01,1329.69 1062.01,1333.73 C1062.01,1337.76 1061.09,1341.67 1059.23,1345.44 C1057.38,1349.22 1055.15,1352.54 1052.55,1355.41 L1044.53,1364.39 C1042.06,1367.25 1039.88,1370.54 1037.99,1374.25 C1036.1,1377.96 1035.16,1381.7 1035.16,1385.48 L1032.03,1385.48 L1032.03,1360.48 L1035.16,1360.48 C1046.09,1353.58 1052.96,1347.46 1055.76,1342.12 C1057.13,1339.52 1057.81,1336.88 1057.81,1334.22 C1057.81,1328.03 1056.02,1321.87 1052.44,1315.75 L1052.44,1315.36 C1052.44,1314.77 1052.67,1314.26 1053.12,1313.8 C1053.58,1313.35 1054.13,1313.12 1054.78,1313.12"/>
<path class="Hook" d="M2719.24,1306.87 C2720.74,1306.87 2722.32,1309.3 2723.98,1314.15 C2725.64,1319 2726.47,1323.44 2726.47,1327.48 C2726.47,1331.51 2725.55,1335.42 2723.69,1339.19 C2721.84,1342.97 2719.61,1346.29 2717,1349.16 L2708.99,1358.14 C2706.52,1361 2704.34,1364.29 2702.45,1368 C2700.56,1371.71 2699.61,1375.45 2699.61,1379.23 L2696.49,1379.23 L2696.49,1354.23 L2699.61,1354.23 C2710.55,1347.33 2717.42,1341.21 2720.22,1335.87 C2721.59,1333.27 2722.27,1330.63 2722.27,1327.97 C2722.27,1321.78 2720.48,1315.62 2716.9,1309.5 L2716.9,1309.11 C2716.9,1308.52 2717.12,1308.01 2717.58,1307.55 C2718.04,1307.1 2718.59,1306.87 2719.24,1306.87"/>
<path class="Hook" d="M1816.02,794.373 C1817.52,794.373 1819.1,796.798 1820.77,801.647 C1822.43,806.496 1823.26,810.939 1823.26,814.975 C1823.26,819.011 1822.33,822.918 1820.48,826.694 C1818.62,830.47 1816.39,833.79 1813.79,836.655 L1805.77,845.639 C1803.3,848.504 1801.13,851.79 1799.23,855.498 C1797.34,859.207 1796.4,862.952 1796.4,866.733 L1793.27,866.733 L1793.27,841.733 L1796.4,841.733 C1807.34,834.827 1814.21,828.707 1817.01,823.373 C1818.37,820.769 1819.05,818.134 1819.05,815.467 C1819.05,809.28 1817.26,803.123 1813.68,796.998 L1813.68,796.608 C1813.68,796.024 1813.91,795.506 1814.37,795.053 C1814.83,794.6 1815.38,794.373 1816.02,794.373"/>
<path class="Note" d="M990.566,1740.47 C993.691,1740.47 996.295,1741.25 998.378,1742.81 C1000.46,1744.37 1001.5,1746.62 1001.5,1749.55 C1001.5,1754.04 999.178,1758.23 994.527,1762.14 C989.876,1766.05 984.878,1768 979.535,1768 C976.41,1768 973.774,1767.19 971.628,1765.56 C969.607,1763.8 968.597,1761.59 968.597,1758.92 C968.597,1754.56 970.91,1750.39 975.535,1746.42 C980.16,1742.45 985.17,1740.47 990.566,1740.47"/>
<path class="Note" d="M1555.43,1290.47 C1558.55,1290.47 1561.16,1291.25 1563.24,1292.81 C1565.32,1294.37 1566.36,1296.62 1566.36,1299.55 C1566.36,1304.04 1564.04,1308.23 1559.39,1312.14 C1554.74,1316.05 1549.74,1318 1544.4,1318 C1541.27,1318 1538.64,1317.19 1536.49,1315.56 C1534.47,1313.8 1533.46,1311.59 1533.46,1308.92 C1533.46,1304.56 1535.77,1300.39 1540.4,1296.42 C1545.02,1292.45 1550.03,1290.47 1555.43,1290.47"/>
<path class="Note" d="M1812.09,1327.97 C1815.22,1327.97 1817.82,1328.75 1819.9,1330.31 C1821.99,1331.87 1823.03,1334.12 1823.03,1337.05 C1823.03,1341.54 1820.7,1345.73 1816.05,1349.64 C1811.4,1353.55 1806.4,1355.5 1801.06,1355.5 C1797.94,1355.5 1795.3,1354.69 1793.15,1353.06 C1791.13,1351.3 1790.12,1349.09 1790.12,1346.42 C1790.12,1342.06 1792.44,1337.89 1797.06,1333.92 C1801.69,1329.95 1806.7,1327.97 1812.09,1327.97"/>
<path class="Note" d="M1039.28,327.967 C1042.41,327.967 1045.01,328.748 1047.1,330.311 C1049.18,331.873 1050.22,334.118 1050.22,337.045 C1050.22,341.535 1047.9,345.732 1043.24,349.639 C1038.59,353.545 1033.6,355.498 1028.25,355.498 C1025.13,355.498 1022.49,354.686 1020.35,353.061 C1018.32,351.3 1017.31,349.087 1017.31,346.42 C1017.31,342.055 1019.63,337.889 1024.25,333.92 C1028.88,329.951 1033.89,327.967 1039.28,327.967"/>
<path class="Note" d="M2178.54,1290.47 C2181.67,1290.47 2184.27,1291.25 2186.35,1292.81 C2188.44,1294.37 2189.48,1296.62 2189.48,1299.55 C2189.48,1304.04 2187.15,1308.23 2182.5,1312.14 C2177.85,1316.05 2172.85,1318 2167.51,1318 C2164.38,1318 2161.75,1317.19 2159.6,1315.56 C2157.58,1313.8 2156.57,1311.59 2156.57,1308.92 C2156.57,1304.56 2158.88,1300.39 2163.51,1296.42 C2168.13,1292.45 2173.14,1290.47 2178.54,1290.47"/>
<path class="Note" d="M2014.56,1327.97 C2017.69,1327.97 2020.29,1328.75 2022.37,1330.31 C2024.46,1331.87 2025.5,1334.12 2025.5,1337.05 C2025.5,1341.54 2023.17,1345.73 2018.52,1349.64 C2013.87,1353.55 2008.87,1355.5 2003.53,1355.5 C2000.4,1355.5 1997.77,1354.69 1995.62,1353.06 C1993.6,1351.3 1992.59,1349.09 1992.59,1346.42 C1992.59,1342.06 1994.9,1337.89 1999.53,1333.92 C2004.15,1329.95 2009.16,1327.97 2014.56,1327.97"/>
<path class="Note" d="M843.914,340.467 C847.039,340.467 849.643,341.248 851.727,342.811 C853.81,344.373 854.852,346.618 854.852,349.545 C854.852,354.035 852.526,358.232 847.875,362.139 C843.224,366.045 838.227,367.998 832.883,367.998 C829.758,367.998 827.122,367.186 824.977,365.561 C822.956,363.8 821.945,361.587 821.945,358.92 C821.945,354.555 824.258,350.389 828.883,346.42 C833.508,342.451 838.518,340.467 843.914,340.467"/>
<path class="Note" d="M713.668,340.467 C716.793,340.467 719.397,341.248 721.481,342.811 C723.564,344.373 724.606,346.618 724.606,349.545 C724.606,354.035 722.28,358.232 717.629,362.139 C712.978,366.045 707.981,367.998 702.637,367.998 C699.512,367.998 696.876,367.186 694.731,365.561 C692.71,363.8 691.699,361.587 691.699,358.92 C691.699,354.555 694.012,350.389 698.637,346.42 C703.262,342.451 708.272,340.467 713.668,340.467"/>
<path class="Note" d="M1086.04,765.467 C1089.17,765.467 1091.77,766.248 1093.85,767.811 C1095.94,769.373 1096.98,771.618 1096.98,774.545 C1096.98,779.035 1094.65,783.233 1090,787.139 C1085.35,791.045 1080.35,792.998 1075.01,792.998 C1071.88,792.998 1069.25,792.186 1067.1,790.561 C1065.08,788.8 1064.07,786.587 1064.07,783.92 C1064.07,779.556 1066.38,775.389 1071.01,771.42 C1075.63,767.452 1080.64,765.467 1086.04,765.467"/>
<path class="Note" d="M2381.01,1290.47 C2384.13,1290.47 2386.74,1291.25 2388.82,1292.81 C2390.9,1294.37 2391.95,1296.62 2391.95,1299.55 C2391.95,1304.04 2389.62,1308.23 2384.97,1312.14 C2380.32,1316.05 2375.32,1318 2369.98,1318 C2366.85,1318 2364.22,1317.19 2362.07,1315.56 C2360.05,1313.8 2359.04,1311.59 2359.04,1308.92 C2359.04,1304.56 2361.35,1300.39 2365.98,1296.42 C2370.6,1292.45 2375.61,1290.47 2381.01,1290.47"/>
<path class="Note" d="M518.299,340.467 C521.424,340.467 524.028,341.248 526.111,342.811 C528.195,344.373 529.236,346.618 529.236,349.545 C529.236,354.035 526.911,358.232 522.26,362.139 C517.609,366.045 512.611,367.998 507.268,367.998 C504.143,367.998 501.507,367.186 499.361,365.561 C497.341,363.8 496.33,361.587 496.33,358.92 C496.33,354.555 498.643,350.389 503.268,346.42 C507.893,342.451 512.903,340.467 518.299,340.467"/>
<path class="Note" d="M2515.99,1290.47 C2519.11,1290.47 2521.72,1291.25 2523.8,1292.81 C2525.88,1294.37 2526.93,1296.62 2526.93,1299.55 C2526.93,1304.04 2524.6,1308.23 2519.95,1312.14 C2515.3,1316.05 2510.3,1318 2504.96,1318 C2501.83,1318 2499.2,1317.19 2497.05,1315.56 C2495.03,1313.8 2494.02,1311.59 2494.02,1308.92 C2494.02,1304.56 2496.33,1300.39 2500.96,1296.42 C2505.58,1292.45 2510.59,1290.47 2515.99,1290.47"/>
<path class="Note" d="M2718.46,1277.97 C2721.58,1277.97 2724.19,1278.75 2726.27,1280.31 C2728.35,1281.87 2729.4,1284.12 2729.4,1287.05 C2729.4,1291.54 2727.07,1295.73 2722.42,1299.64 C2717.77,1303.55 2712.77,1305.5 2707.43,1305.5 C2704.3,1305.5 2701.67,1304.69 2699.52,1303.06 C2697.5,1301.3 2696.49,1299.09 2696.49,1296.42 C2696.49,1292.06 2698.8,1287.89 2703.43,1283.92 C2708.05,1279.95 2713.06,1277.97 2718.46,1277.97"/>
<path class="Note" d="M359.053,377.967 C362.178,377.967 364.782,378.748 366.865,380.311 C368.949,381.873 369.99,384.118 369.99,387.045 C369.99,391.535 367.665,395.733 363.014,399.639 C358.363,403.545 353.365,405.498 348.022,405.498 C344.897,405.498 342.261,404.686 340.115,403.061 C338.094,401.3 337.084,399.087 337.084,396.42 C337.084,392.055 339.397,387.889 344.022,383.92 C348.647,379.951 353.657,377.967 359.053,377.967"/>
<path class="Note" d="M690.097,1740.47 C693.222,1740.47 695.826,1741.25 697.909,1742.81 C699.993,1744.37 701.034,1746.62 701.034,1749.55 C701.034,1754.04 698.709,1758.23 694.058,1762.14 C689.407,1766.05 684.409,1768 679.066,1768 C675.941,1768 673.305,1767.19 671.159,1765.56 C669.139,1763.8 668.128,1761.59 668.128,1758.92 C668.128,1754.56 670.441,1750.39 675.066,1746.42 C679.691,1742.45 684.701,1740.47 690.097,1740.47"/>
<path class="Note" d="M2235.89,1789.87 C2237.78,1789.87 2241.74,1787.92 2247.76,1784.01 C2253.79,1780.11 2257.34,1777.49 2258.41,1776.16 C2259.48,1774.82 2260.02,1773.63 2260.02,1772.59 C2260.02,1771.55 2259.59,1770.62 2258.75,1769.81 C2257.9,1769 2256.92,1768.59 2255.82,1768.59 C2253.87,1768.59 2249.88,1770.56 2243.86,1774.5 C2237.83,1778.44 2234.3,1781.06 2233.25,1782.36 C2232.21,1783.66 2231.69,1784.83 2231.69,1785.87 C2231.69,1786.92 2232.1,1787.84 2232.92,1788.66 C2233.74,1789.47 2234.73,1789.87 2235.89,1789.87 M2254.85,1765.47 C2260.44,1765.47 2263.24,1767.87 2263.24,1772.69 C2263.24,1775.03 2262.56,1777.75 2261.19,1780.84 C2259.83,1783.94 2258,1786.3 2255.72,1787.92 C2250.71,1791.31 2244.43,1793 2236.88,1793 C2231.27,1793 2228.47,1790.59 2228.47,1785.78 C2228.47,1783.63 2229.14,1780.97 2230.47,1777.77 C2231.81,1774.58 2233.64,1772.17 2235.99,1770.55 C2241.01,1767.16 2247.3,1765.47 2254.85,1765.47"/>
<path class="Note" d="M309.201,1740.47 C312.326,1740.47 314.93,1741.25 317.014,1742.81 C319.097,1744.37 320.139,1746.62 320.139,1749.55 C320.139,1754.04 317.813,1758.23 313.162,1762.14 C308.511,1766.05 303.514,1768 298.17,1768 C295.045,1768 292.41,1767.19 290.264,1765.56 C288.243,1763.8 287.232,1761.59 287.232,1758.92 C287.232,1754.56 289.545,1750.39 294.17,1746.42 C298.795,1742.45 303.805,1740.47 309.201,1740.47"/>
<path class="Note" d="M1391.45,1265.47 C1394.57,1265.47 1397.18,1266.25 1399.26,1267.81 C1401.34,1269.37 1402.39,1271.62 1402.39,1274.55 C1402.39,1279.04 1400.06,1283.23 1395.41,1287.14 C1390.76,1291.05 1385.76,1293 1380.42,1293 C1377.29,1293 1374.66,1292.19 1372.51,1290.56 C1370.49,1288.8 1369.48,1286.59 1369.48,1283.92 C1369.48,1279.56 1371.79,1275.39 1376.42,1271.42 C1381.04,1267.45 1386.05,1265.47 1391.45,1265.47"/>
<path class="Note" d="M1720.66,1752.97 C1723.78,1752.97 1726.39,1753.75 1728.47,1755.31 C1730.56,1756.87 1731.6,1759.12 1731.6,1762.05 C1731.6,1766.54 1729.27,1770.73 1724.62,1774.64 C1719.97,1778.55 1714.97,1780.5 1709.63,1780.5 C1706.5,1780.5 1703.87,1779.69 1701.72,1778.06 C1699.7,1776.3 1698.69,1774.09 1698.69,1771.42 C1698.69,1767.06 1701,1762.89 1705.63,1758.92 C1710.25,1754.95 1715.26,1752.97 1720.66,1752.97"/>
<path class="Note" d="M860.431,765.467 C863.556,765.467 866.16,766.248 868.243,767.811 C870.327,769.373 871.368,771.618 871.368,774.545 C871.368,779.035 869.043,783.233 864.392,787.139 C859.741,791.045 854.743,792.998 849.4,792.998 C846.275,792.998 843.639,792.186 841.493,790.561 C839.473,788.8 838.462,786.587 838.462,783.92 C838.462,779.556 840.775,775.389 845.4,771.42 C850.025,767.452 855.035,765.467 860.431,765.467"/>
<path class="Note" d="M712.783,777.967 C715.908,777.967 718.512,778.748 720.595,780.311 C722.679,781.873 723.72,784.118 723.72,787.045 C723.72,791.535 721.395,795.733 716.744,799.639 C712.093,803.545 707.095,805.498 701.752,805.498 C698.627,805.498 695.991,804.686 693.845,803.061 C691.825,801.3 690.814,799.087 690.814,796.42 C690.814,792.056 693.127,787.889 697.752,783.92 C702.377,779.952 707.387,777.967 712.783,777.967"/>
<path class="Note" d="M1340.65,777.967 C1343.78,777.967 1346.38,778.748 1348.46,780.311 C1350.55,781.873 1351.59,784.118 1351.59,787.045 C1351.59,791.535 1349.26,795.733 1344.61,799.639 C1339.96,803.545 1334.96,805.498 1329.62,805.498 C1326.49,805.498 1323.86,804.686 1321.71,803.061 C1319.69,801.3 1318.68,799.087 1318.68,796.42 C1318.68,792.056 1320.99,787.889 1325.62,783.92 C1330.24,779.952 1335.25,777.967 1340.65,777.967"/>
<path class="Note" d="M1518.62,790.467 C1521.75,790.467 1524.35,791.248 1526.44,792.811 C1528.52,794.373 1529.56,796.618 1529.56,799.545 C1529.56,804.035 1527.23,808.233 1522.58,812.139 C1517.93,816.045 1512.94,817.998 1507.59,817.998 C1504.47,817.998 1501.83,817.186 1499.69,815.561 C1497.66,813.8 1496.65,811.587 1496.65,808.92 C1496.65,804.556 1498.97,800.389 1503.59,796.42 C1508.22,792.452 1513.23,790.467 1518.62,790.467"/>
<path class="Note" d="M534.811,790.467 C537.936,790.467 540.54,791.248 542.624,792.811 C544.707,794.373 545.749,796.618 545.749,799.545 C545.749,804.035 543.423,808.233 538.772,812.139 C534.121,816.045 529.124,817.998 523.78,817.998 C520.655,817.998 518.019,817.186 515.874,815.561 C513.853,813.8 512.842,811.587 512.842,808.92 C512.842,804.556 515.155,800.389 519.78,796.42 C524.405,792.452 529.415,790.467 534.811,790.467"/>
<path class="Note" d="M1637.27,777.967 C1640.4,777.967 1643,778.748 1645.08,780.311 C1647.17,781.873 1648.21,784.118 1648.21,787.045 C1648.21,791.535 1645.88,795.733 1641.23,799.639 C1636.58,803.545 1631.58,805.498 1626.24,805.498 C1623.11,805.498 1620.48,804.686 1618.33,803.061 C1616.31,801.3 1615.3,799.087 1615.3,796.42 C1615.3,792.056 1617.61,787.889 1622.24,783.92 C1626.86,779.952 1631.87,777.967 1637.27,777.967"/>
<path class="Note" d="M1815.24,765.467 C1818.37,765.467 1820.97,766.248 1823.05,767.811 C1825.14,769.373 1826.18,771.618 1826.18,774.545 C1826.18,779.035 1823.85,783.233 1819.2,787.139 C1814.55,791.045 1809.55,792.998 1804.21,792.998 C1801.09,792.998 1798.45,792.186 1796.3,790.561 C1794.28,788.8 1793.27,786.587 1793.27,783.92 C1793.27,779.556 1795.59,775.389 1800.21,771.42 C1804.84,767.452 1809.85,765.467 1815.24,765.467"/>
<path class="Note" d="M309.201,790.467 C312.326,790.467 314.93,791.248 317.014,792.811 C319.097,794.373 320.139,796.618 320.139,799.545 C320.139,804.035 317.813,808.233 313.162,812.139 C308.511,816.045 303.514,817.998 298.17,817.998 C295.045,817.998 292.41,817.186 290.264,815.561 C288.243,813.8 287.232,811.587 287.232,808.92 C287.232,804.556 289.545,800.389 294.17,796.42 C298.795,792.452 303.805,790.467 309.201,790.467"/>
<path class="Note" d="M1948.34,814.873 C1950.23,814.873 1954.18,812.92 1960.21,809.014 C1966.24,805.108 1969.79,802.488 1970.86,801.155 C1971.93,799.821 1972.47,798.634 1972.47,797.592 C1972.47,796.55 1972.04,795.623 1971.19,794.811 C1970.35,793.998 1969.37,793.592 1968.27,793.592 C1966.32,793.592 1962.33,795.561 1956.3,799.498 C1950.28,803.436 1946.74,806.056 1945.7,807.358 C1944.66,808.66 1944.14,809.832 1944.14,810.873 C1944.14,811.915 1944.55,812.842 1945.37,813.655 C1946.18,814.467 1947.18,814.873 1948.34,814.873 M1967.3,790.467 C1972.89,790.467 1975.69,792.873 1975.69,797.686 C1975.69,800.03 1975,802.748 1973.64,805.842 C1972.28,808.936 1970.45,811.295 1968.17,812.92 C1963.16,816.306 1956.88,817.998 1949.33,817.998 C1943.72,817.998 1940.92,815.592 1940.92,810.78 C1940.92,808.634 1941.59,805.965 1942.92,802.772 C1944.25,799.579 1946.09,797.17 1948.44,795.545 C1953.46,792.16 1959.74,790.467 1967.3,790.467"/>
<path class="Note" d="M1520.35,1765.47 C1523.47,1765.47 1526.08,1766.25 1528.16,1767.81 C1530.24,1769.37 1531.28,1771.62 1531.28,1774.55 C1531.28,1779.04 1528.96,1783.23 1524.31,1787.14 C1519.66,1791.05 1514.66,1793 1509.32,1793 C1506.19,1793 1503.56,1792.19 1501.41,1790.56 C1499.39,1788.8 1498.38,1786.59 1498.38,1783.92 C1498.38,1779.56 1500.69,1775.39 1505.32,1771.42 C1509.94,1767.45 1514.95,1765.47 1520.35,1765.47"/>
<path class="Note" d="M2021.13,1740.47 C2024.25,1740.47 2026.86,1741.25 2028.94,1742.81 C2031.02,1744.37 2032.07,1746.62 2032.07,1749.55 C2032.07,1754.04 2029.74,1758.23 2025.09,1762.14 C2020.44,1766.05 2015.44,1768 2010.1,1768 C2006.97,1768 2004.34,1767.19 2002.19,1765.56 C2000.17,1763.8 1999.16,1761.59 1999.16,1758.92 C1999.16,1754.56 2001.47,1750.39 2006.1,1746.42 C2010.72,1742.45 2015.73,1740.47 2021.13,1740.47"/>
<path class="Note" d="M2466.49,364.873 C2468.38,364.873 2472.33,362.92 2478.36,359.014 C2484.39,355.107 2487.93,352.488 2489.01,351.154 C2490.08,349.821 2490.62,348.634 2490.62,347.592 C2490.62,346.55 2490.19,345.623 2489.34,344.811 C2488.49,343.998 2487.52,343.592 2486.41,343.592 C2484.47,343.592 2480.48,345.561 2474.45,349.498 C2468.43,353.436 2464.89,356.055 2463.85,357.357 C2462.81,358.66 2462.29,359.831 2462.29,360.873 C2462.29,361.915 2462.7,362.842 2463.52,363.654 C2464.33,364.467 2465.33,364.873 2466.49,364.873 M2485.45,340.467 C2491.04,340.467 2493.84,342.873 2493.84,347.686 C2493.84,350.029 2493.15,352.748 2491.79,355.842 C2490.42,358.936 2488.6,361.295 2486.32,362.92 C2481.31,366.305 2475.03,367.998 2467.48,367.998 C2461.87,367.998 2459.07,365.592 2459.07,360.779 C2459.07,358.634 2459.74,355.964 2461.07,352.772 C2462.4,349.579 2464.24,347.17 2466.59,345.545 C2471.61,342.16 2477.89,340.467 2485.45,340.467"/>
<path class="Note" d="M2331.21,815.467 C2334.33,815.467 2336.94,816.248 2339.02,817.811 C2341.1,819.373 2342.14,821.618 2342.14,824.545 C2342.14,829.035 2339.82,833.233 2335.17,837.139 C2330.52,841.045 2325.52,842.998 2320.18,842.998 C2317.05,842.998 2314.42,842.186 2312.27,840.561 C2310.25,838.801 2309.24,836.587 2309.24,833.92 C2309.24,829.556 2311.55,825.389 2316.18,821.42 C2320.8,817.452 2325.81,815.467 2331.21,815.467"/>
<path class="Note" d="M2321.79,315.467 C2324.92,315.467 2327.52,316.248 2329.61,317.811 C2331.69,319.373 2332.73,321.618 2332.73,324.545 C2332.73,329.035 2330.4,333.232 2325.75,337.139 C2321.1,341.045 2316.11,342.998 2310.76,342.998 C2307.64,342.998 2305,342.186 2302.86,340.561 C2300.83,338.8 2299.82,336.587 2299.82,333.92 C2299.82,329.555 2302.14,325.389 2306.76,321.42 C2311.39,317.451 2316.4,315.467 2321.79,315.467"/>
<path class="Note" d="M2556.82,815.467 C2559.94,815.467 2562.55,816.248 2564.63,817.811 C2566.71,819.373 2567.75,821.618 2567.75,824.545 C2567.75,829.035 2565.43,833.233 2560.78,837.139 C2556.13,841.045 2551.13,842.998 2545.79,842.998 C2542.66,842.998 2540.03,842.186 2537.88,840.561 C2535.86,838.801 2534.85,836.587 2534.85,833.92 C2534.85,829.556 2537.16,825.389 2541.79,821.42 C2546.41,817.452 2551.42,815.467 2556.82,815.467"/>
<path class="Note" d="M2734.79,802.967 C2737.91,802.967 2740.52,803.748 2742.6,805.311 C2744.69,806.873 2745.73,809.118 2745.73,812.045 C2745.73,816.535 2743.4,820.733 2738.75,824.639 C2734.1,828.545 2729.1,830.498 2723.76,830.498 C2720.63,830.498 2718,829.686 2715.85,828.061 C2713.83,826.3 2712.82,824.087 2712.82,821.42 C2712.82,817.056 2715.13,812.889 2719.76,808.92 C2724.38,804.952 2729.39,802.967 2734.79,802.967"/>
<path class="Note" d="M2126.42,327.967 C2129.55,327.967 2132.15,328.748 2134.24,330.311 C2136.32,331.873 2137.36,334.118 2137.36,337.045 C2137.36,341.535 2135.04,345.732 2130.38,349.639 C2125.73,353.545 2120.74,355.498 2115.39,355.498 C2112.27,355.498 2109.63,354.686 2107.49,353.061 C2105.47,351.3 2104.45,349.087 2104.45,346.42 C2104.45,342.055 2106.77,337.889 2111.39,333.92 C2116.02,329.951 2121.03,327.967 2126.42,327.967"/>
<path class="Note" d="M1219.88,1752.97 C1223,1752.97 1225.61,1753.75 1227.69,1755.31 C1229.77,1756.87 1230.82,1759.12 1230.82,1762.05 C1230.82,1766.54 1228.49,1770.73 1223.84,1774.64 C1219.19,1778.55 1214.19,1780.5 1208.85,1780.5 C1205.72,1780.5 1203.09,1779.69 1200.94,1778.06 C1198.92,1776.3 1197.91,1774.09 1197.91,1771.42 C1197.91,1767.06 1200.22,1762.89 1204.85,1758.92 C1209.47,1754.95 1214.48,1752.97 1219.88,1752.97"/>
<path class="Note" d="M1996.18,340.467 C1999.3,340.467 2001.91,341.248 2003.99,342.811 C2006.07,344.373 2007.12,346.618 2007.12,349.545 C2007.12,354.035 2004.79,358.232 2000.14,362.139 C1995.49,366.045 1990.49,367.998 1985.15,367.998 C1982.02,367.998 1979.39,367.186 1977.24,365.561 C1975.22,363.8 1974.21,361.587 1974.21,358.92 C1974.21,354.555 1976.52,350.389 1981.15,346.42 C1985.77,342.451 1990.78,340.467 1996.18,340.467"/>
<path class="Note" d="M309.201,1265.47 C312.326,1265.47 314.93,1266.25 317.014,1267.81 C319.097,1269.37 320.139,1271.62 320.139,1274.55 C320.139,1279.04 317.813,1283.23 313.162,1287.14 C308.511,1291.05 303.514,1293 298.17,1293 C295.045,1293 292.41,1292.19 290.264,1290.56 C288.243,1288.8 287.232,1286.59 287.232,1283.92 C287.232,1279.56 289.545,1275.39 294.17,1271.42 C298.795,1267.45 303.805,1265.47 309.201,1265.47"/>
<path class="Note" d="M1800.81,327.967 C1803.93,327.967 1806.54,328.748 1808.62,330.311 C1810.7,331.873 1811.75,334.118 1811.75,337.045 C1811.75,341.535 1809.42,345.732 1804.77,349.639 C1800.12,353.545 1795.12,355.498 1789.78,355.498 C1786.65,355.498 1784.02,354.686 1781.87,353.061 C1779.85,351.3 1778.84,349.087 1778.84,346.42 C1778.84,342.055 1781.15,337.889 1785.78,333.92 C1790.4,329.951 1795.41,327.967 1800.81,327.967"/>
<path class="Note" d="M565.866,1265.47 C568.991,1265.47 571.595,1266.25 573.678,1267.81 C575.761,1269.37 576.803,1271.62 576.803,1274.55 C576.803,1279.04 574.478,1283.23 569.827,1287.14 C565.175,1291.05 560.178,1293 554.834,1293 C551.709,1293 549.074,1292.19 546.928,1290.56 C544.907,1288.8 543.897,1286.59 543.897,1283.92 C543.897,1279.56 546.209,1275.39 550.834,1271.42 C555.459,1267.45 560.47,1265.47 565.866,1265.47"/>
<path class="Note" d="M1641.56,315.467 C1644.69,315.467 1647.29,316.248 1649.37,317.811 C1651.46,319.373 1652.5,321.618 1652.5,324.545 C1652.5,329.035 1650.17,333.232 1645.52,337.139 C1640.87,341.045 1635.87,342.998 1630.53,342.998 C1627.41,342.998 1624.77,342.186 1622.62,340.561 C1620.6,338.8 1619.59,336.587 1619.59,333.92 C1619.59,329.555 1621.91,325.389 1626.53,321.42 C1631.16,317.451 1636.17,315.467 1641.56,315.467"/>
<path class="Note" d="M851.53,1277.97 C854.655,1277.97 857.259,1278.75 859.342,1280.31 C861.426,1281.87 862.467,1284.12 862.467,1287.05 C862.467,1291.54 860.142,1295.73 855.491,1299.64 C850.84,1303.55 845.842,1305.5 840.499,1305.5 C837.374,1305.5 834.738,1304.69 832.592,1303.06 C830.572,1301.3 829.561,1299.09 829.561,1296.42 C829.561,1292.06 831.874,1287.89 836.499,1283.92 C841.124,1279.95 846.134,1277.97 851.53,1277.97"/>
<path class="Note" d="M1446.19,315.467 C1449.32,315.467 1451.92,316.248 1454.01,317.811 C1456.09,319.373 1457.13,321.618 1457.13,324.545 C1457.13,329.035 1454.81,333.232 1450.15,337.139 C1445.5,341.045 1440.51,342.998 1435.16,342.998 C1432.04,342.998 1429.4,342.186 1427.26,340.561 C1425.23,338.8 1424.22,336.587 1424.22,333.92 C1424.22,329.555 1426.54,325.389 1431.16,321.42 C1435.79,317.451 1440.8,315.467 1446.19,315.467"/>
<path class="Note" d="M1054,1290.47 C1057.12,1290.47 1059.73,1291.25 1061.81,1292.81 C1063.89,1294.37 1064.94,1296.62 1064.94,1299.55 C1064.94,1304.04 1062.61,1308.23 1057.96,1312.14 C1053.31,1316.05 1048.31,1318 1042.97,1318 C1039.84,1318 1037.21,1317.19 1035.06,1315.56 C1033.04,1313.8 1032.03,1311.59 1032.03,1308.92 C1032.03,1304.56 1034.34,1300.39 1038.97,1296.42 C1043.59,1292.45 1048.6,1290.47 1054,1290.47"/>
<path class="Note" d="M1188.98,1277.97 C1192.1,1277.97 1194.71,1278.75 1196.79,1280.31 C1198.87,1281.87 1199.92,1284.12 1199.92,1287.05 C1199.92,1291.54 1197.59,1295.73 1192.94,1299.64 C1188.29,1303.55 1183.29,1305.5 1177.95,1305.5 C1174.82,1305.5 1172.19,1304.69 1170.04,1303.06 C1168.02,1301.3 1167.01,1299.09 1167.01,1296.42 C1167.01,1292.06 1169.32,1287.89 1173.95,1283.92 C1178.57,1279.95 1183.58,1277.97 1188.98,1277.97"/>
<path class="Note" d="M1198.53,315.467 C1201.65,315.467 1204.26,316.248 1206.34,317.811 C1208.43,319.373 1209.47,321.618 1209.47,324.545 C1209.47,329.035 1207.14,333.232 1202.49,337.139 C1197.84,341.045 1192.84,342.998 1187.5,342.998 C1184.37,342.998 1181.74,342.186 1179.59,340.561 C1177.57,338.8 1176.56,336.587 1176.56,333.92 C1176.56,329.555 1178.87,325.389 1183.5,321.42 C1188.12,317.451 1193.13,315.467 1198.53,315.467"/>
<path class="Clef" d="M203.623,423.858 L203.623,421.717 C203.56,420.613 203.399,418.889 203.139,416.545 C199.889,417.066 196.993,417.326 194.451,417.326 C185.337,417.326 177.605,413.727 171.256,406.529 C164.907,399.331 161.732,390.753 161.732,380.795 C161.732,378.128 162.253,374.923 163.295,371.178 C164.337,367.433 165.297,364.925 166.178,363.654 C167.058,362.384 168.378,360.154 170.139,356.967 C170.659,355.988 172.352,353.837 175.217,350.514 C175.738,349.805 176.193,349.222 176.584,348.764 C176.975,348.305 177.607,347.49 178.482,346.318 C179.357,345.147 180.3,344.055 181.31,343.045 C182.321,342.035 183.217,341.058 183.998,340.115 C184.779,339.173 185.498,338.378 186.154,337.733 C183.81,329.983 182.378,324.024 181.857,319.858 C181.337,315.691 181.076,310.579 181.076,304.522 C181.076,298.464 182.378,292.962 184.982,288.014 C187.514,282.878 191.06,278.68 195.623,275.42 C195.883,275.222 196.225,275.123 196.646,275.123 C197.068,275.123 197.378,275.222 197.576,275.42 C201.087,279.649 204.128,285.149 206.701,291.92 C209.274,298.691 210.56,305.024 210.56,310.92 C210.56,316.816 209.066,322.498 206.076,327.967 C202.691,333.759 198.326,339.748 192.982,345.936 C194.347,350.227 196.17,356.962 198.451,366.139 L199.045,366.139 C199.305,366.076 199.529,366.045 199.717,366.045 C207.081,366.045 213.089,368.634 217.74,373.811 C222.391,378.988 224.717,384.962 224.717,391.733 C224.717,400.128 221.238,406.899 214.279,412.045 C212.258,413.545 209.878,414.717 207.139,415.561 C207.472,419.79 207.639,422.605 207.639,424.006 C207.639,425.407 207.571,427.899 207.435,431.483 C207.373,437.597 205.29,442.837 201.185,447.201 C197.081,451.566 192.394,453.748 187.123,453.748 C181.852,453.748 177.36,451.876 173.646,448.131 C169.933,444.386 168.076,439.847 168.076,434.514 C168.076,431.712 169.154,429.331 171.31,427.373 C173.519,425.425 176.006,424.451 178.771,424.451 C181.537,424.451 183.8,425.462 185.56,427.483 C187.383,429.368 188.295,431.644 188.295,434.311 C188.295,436.977 187.383,439.222 185.56,441.045 C183.738,442.868 181.555,443.779 179.014,443.779 C177.972,443.779 176.967,443.587 175.998,443.201 C178.863,447.43 182.54,449.545 187.029,449.545 C191.519,449.545 195.36,447.691 198.553,443.983 C201.745,440.274 203.342,435.91 203.342,430.889 L203.623,423.858 M206.748,411.561 C210.133,410.321 212.821,408.123 214.81,404.967 C216.8,401.811 217.795,398.67 217.795,395.545 C217.795,390.92 216.199,386.785 213.006,383.139 C209.813,379.493 205.774,377.441 200.889,376.983 C203.691,390.722 205.644,402.248 206.748,411.561 M168.967,388.998 C168.967,395.446 171.537,401.079 176.678,405.897 C181.818,410.714 187.842,413.123 194.748,413.123 C197.477,413.123 200.144,412.925 202.748,412.529 C201.706,402.634 199.654,390.785 196.592,376.983 C192.758,377.378 189.782,378.699 187.662,380.943 C185.542,383.188 184.482,385.743 184.482,388.608 C184.482,393.555 187.123,397.561 192.404,400.623 C192.852,400.884 193.076,401.324 193.076,401.943 C193.076,402.563 192.865,403.1 192.443,403.553 C192.021,404.006 191.649,404.233 191.326,404.233 C191.003,404.233 190.581,404.17 190.06,404.045 C182.435,399.878 178.623,393.592 178.623,385.186 C178.623,381.217 180.024,377.41 182.826,373.764 C185.753,370.118 189.56,367.774 194.248,366.733 C192.425,359.441 190.93,353.743 189.764,349.639 C180.847,359.67 175.31,367.092 173.154,371.904 C170.363,378.154 168.967,383.852 168.967,388.998 M201.576,289.686 C196.691,292.092 192.834,295.574 190.006,300.131 C187.178,304.688 185.764,309.472 185.764,314.483 C185.764,319.493 186.935,325.972 189.279,333.92 C193.967,328.253 197.514,322.946 199.92,317.998 C202.326,313.05 203.529,308.152 203.529,303.303 C203.529,298.454 202.878,293.915 201.576,289.686"/>
<path class="Clef" d="M203.623,1848.86 L203.623,1846.72 C203.56,1845.61 203.399,1843.89 203.139,1841.55 C199.889,1842.07 196.993,1842.33 194.451,1842.33 C185.337,1842.33 177.605,1838.73 171.256,1831.53 C164.907,1824.33 161.732,1815.75 161.732,1805.8 C161.732,1803.13 162.253,1799.92 163.295,1796.18 C164.337,1792.43 165.297,1789.93 166.178,1788.66 C167.058,1787.38 168.378,1785.16 170.139,1781.97 C170.659,1780.99 172.352,1778.84 175.217,1775.51 C175.738,1774.81 176.193,1774.22 176.584,1773.76 C176.975,1773.31 177.607,1772.49 178.482,1771.32 C179.357,1770.15 180.3,1769.06 181.31,1768.05 C182.321,1767.04 183.217,1766.06 183.998,1765.12 C184.779,1764.17 185.498,1763.38 186.154,1762.73 C183.81,1754.98 182.378,1749.03 181.857,1744.86 C181.337,1740.69 181.076,1735.58 181.076,1729.52 C181.076,1723.47 182.378,1717.96 184.982,1713.01 C187.514,1707.88 191.06,1703.68 195.623,1700.42 C195.883,1700.22 196.225,1700.12 196.646,1700.12 C197.068,1700.12 197.378,1700.22 197.576,1700.42 C201.087,1704.65 204.128,1710.15 206.701,1716.92 C209.274,1723.69 210.56,1730.03 210.56,1735.92 C210.56,1741.82 209.066,1747.5 206.076,1752.97 C202.691,1758.76 198.326,1764.75 192.982,1770.94 C194.347,1775.23 196.17,1781.96 198.451,1791.14 L199.045,1791.14 C199.305,1791.08 199.529,1791.05 199.717,1791.05 C207.081,1791.05 213.089,1793.63 217.74,1798.81 C222.391,1803.99 224.717,1809.96 224.717,1816.73 C224.717,1825.13 221.238,1831.9 214.279,1837.05 C212.258,1838.55 209.878,1839.72 207.139,1840.56 C207.472,1844.79 207.639,1847.61 207.639,1849.01 C207.639,1850.41 207.571,1852.9 207.435,1856.48 C207.373,1862.6 205.29,1867.84 201.185,1872.2 C197.081,1876.57 192.394,1878.75 187.123,1878.75 C181.852,1878.75 177.36,1876.88 173.646,1873.13 C169.933,1869.39 168.076,1864.85 168.076,1859.51 C168.076,1856.71 169.154,1854.33 171.31,1852.37 C173.519,1850.43 176.006,1849.45 178.771,1849.45 C181.537,1849.45 183.8,1850.46 185.56,1852.48 C187.383,1854.37 188.295,1856.64 188.295,1859.31 C188.295,1861.98 187.383,1864.22 185.56,1866.05 C183.738,1867.87 181.555,1868.78 179.014,1868.78 C177.972,1868.78 176.967,1868.59 175.998,1868.2 C178.863,1872.43 182.54,1874.55 187.029,1874.55 C191.519,1874.55 195.36,1872.69 198.553,1868.98 C201.745,1865.28 203.342,1860.91 203.342,1855.89 L203.623,1848.86 M206.748,1836.56 C210.133,1835.32 212.821,1833.12 214.81,1829.97 C216.8,1826.81 217.795,1823.67 217.795,1820.55 C217.795,1815.92 216.199,1811.79 213.006,1808.14 C209.813,1804.49 205.774,1802.44 200.889,1801.98 C203.691,1815.72 205.644,1827.25 206.748,1836.56 M168.967,1814 C168.967,1820.45 171.537,1826.08 176.678,1830.9 C181.818,1835.72 187.842,1838.12 194.748,1838.12 C197.477,1838.12 200.144,1837.93 202.748,1837.53 C201.706,1827.63 199.654,1815.79 196.592,1801.98 C192.758,1802.38 189.782,1803.7 187.662,1805.94 C185.542,1808.19 184.482,1810.74 184.482,1813.61 C184.482,1818.56 187.123,1822.56 192.404,1825.62 C192.852,1825.88 193.076,1826.32 193.076,1826.94 C193.076,1827.56 192.865,1828.1 192.443,1828.55 C192.021,1829.01 191.649,1829.23 191.326,1829.23 C191.003,1829.23 190.581,1829.17 190.06,1829.05 C182.435,1824.88 178.623,1818.59 178.623,1810.19 C178.623,1806.22 180.024,1802.41 182.826,1798.76 C185.753,1795.12 189.56,1792.78 194.248,1791.73 C192.425,1784.44 190.93,1778.74 189.764,1774.64 C180.847,1784.67 175.31,1792.09 173.154,1796.91 C170.363,1803.16 168.967,1808.85 168.967,1814 M201.576,1714.69 C196.691,1717.09 192.834,1720.57 190.006,1725.13 C187.178,1729.69 185.764,1734.47 185.764,1739.48 C185.764,1744.49 186.935,1750.97 189.279,1758.92 C193.967,1753.25 197.514,1747.95 199.92,1743 C202.326,1738.05 203.529,1733.15 203.529,1728.3 C203.529,1723.45 202.878,1718.92 201.576,1714.69"/>
<path class="Clef" d="M203.623,1373.86 L203.623,1371.72 C203.56,1370.61 203.399,1368.89 203.139,1366.55 C199.889,1367.07 196.993,1367.33 194.451,1367.33 C185.337,1367.33 177.605,1363.73 171.256,1356.53 C164.907,1349.33 161.732,1340.75 161.732,1330.8 C161.732,1328.13 162.253,1324.92 163.295,1321.18 C164.337,1317.43 165.297,1314.93 166.178,1313.65 C167.058,1312.38 168.378,1310.15 170.139,1306.97 C170.659,1305.99 172.352,1303.84 175.217,1300.51 C175.738,1299.81 176.193,1299.22 176.584,1298.76 C176.975,1298.31 177.607,1297.49 178.482,1296.32 C179.357,1295.15 180.3,1294.06 181.31,1293.05 C182.321,1292.04 183.217,1291.06 183.998,1290.12 C184.779,1289.17 185.498,1288.38 186.154,1287.73 C183.81,1279.98 182.378,1274.02 181.857,1269.86 C181.337,1265.69 181.076,1260.58 181.076,1254.52 C181.076,1248.46 182.378,1242.96 184.982,1238.01 C187.514,1232.88 191.06,1228.68 195.623,1225.42 C195.883,1225.22 196.225,1225.12 196.646,1225.12 C197.068,1225.12 197.378,1225.22 197.576,1225.42 C201.087,1229.65 204.128,1235.15 206.701,1241.92 C209.274,1248.69 210.56,1255.02 210.56,1260.92 C210.56,1266.82 209.066,1272.5 206.076,1277.97 C202.691,1283.76 198.326,1289.75 192.982,1295.94 C194.347,1300.23 196.17,1306.96 198.451,1316.14 L199.045,1316.14 C199.305,1316.08 199.529,1316.05 199.717,1316.05 C207.081,1316.05 213.089,1318.63 217.74,1323.81 C222.391,1328.99 224.717,1334.96 224.717,1341.73 C224.717,1350.13 221.238,1356.9 214.279,1362.05 C212.258,1363.55 209.878,1364.72 207.139,1365.56 C207.472,1369.79 207.639,1372.61 207.639,1374.01 C207.639,1375.41 207.571,1377.9 207.435,1381.48 C207.373,1387.6 205.29,1392.84 201.185,1397.2 C197.081,1401.57 192.394,1403.75 187.123,1403.75 C181.852,1403.75 177.36,1401.88 173.646,1398.13 C169.933,1394.39 168.076,1389.85 168.076,1384.51 C168.076,1381.71 169.154,1379.33 171.31,1377.37 C173.519,1375.43 176.006,1374.45 178.771,1374.45 C181.537,1374.45 183.8,1375.46 185.56,1377.48 C187.383,1379.37 188.295,1381.64 188.295,1384.31 C188.295,1386.98 187.383,1389.22 185.56,1391.05 C183.738,1392.87 181.555,1393.78 179.014,1393.78 C177.972,1393.78 176.967,1393.59 175.998,1393.2 C178.863,1397.43 182.54,1399.55 187.029,1399.55 C191.519,1399.55 195.36,1397.69 198.553,1393.98 C201.745,1390.27 203.342,1385.91 203.342,1380.89 L203.623,1373.86 M206.748,1361.56 C210.133,1360.32 212.821,1358.12 214.81,1354.97 C216.8,1351.81 217.795,1348.67 217.795,1345.55 C217.795,1340.92 216.199,1336.79 213.006,1333.14 C209.813,1329.49 205.774,1327.44 200.889,1326.98 C203.691,1340.72 205.644,1352.25 206.748,1361.56 M168.967,1339 C168.967,1345.45 171.537,1351.08 176.678,1355.9 C181.818,1360.71 187.842,1363.12 194.748,1363.12 C197.477,1363.12 200.144,1362.93 202.748,1362.53 C201.706,1352.63 199.654,1340.79 196.592,1326.98 C192.758,1327.38 189.782,1328.7 187.662,1330.94 C185.542,1333.19 184.482,1335.74 184.482,1338.61 C184.482,1343.56 187.123,1347.56 192.404,1350.62 C192.852,1350.88 193.076,1351.32 193.076,1351.94 C193.076,1352.56 192.865,1353.1 192.443,1353.55 C192.021,1354.01 191.649,1354.23 191.326,1354.23 C191.003,1354.23 190.581,1354.17 190.06,1354.05 C182.435,1349.88 178.623,1343.59 178.623,1335.19 C178.623,1331.22 180.024,1327.41 182.826,1323.76 C185.753,1320.12 189.56,1317.77 194.248,1316.73 C192.425,1309.44 190.93,1303.74 189.764,1299.64 C180.847,1309.67 175.31,1317.09 173.154,1321.9 C170.363,1328.15 168.967,1333.85 168.967,1339 M201.576,1239.69 C196.691,1242.09 192.834,1245.57 190.006,1250.13 C187.178,1254.69 185.764,1259.47 185.764,1264.48 C185.764,1269.49 186.935,1275.97 189.279,1283.92 C193.967,1278.25 197.514,1272.95 199.92,1268 C202.326,1263.05 203.529,1258.15 203.529,1253.3 C203.529,1248.45 202.878,1243.92 201.576,1239.69"/>
<path class="Clef" d="M203.623,898.858 L203.623,896.717 C203.56,895.613 203.399,893.889 203.139,891.545 C199.889,892.066 196.993,892.327 194.451,892.327 C185.337,892.327 177.605,888.728 171.256,881.53 C164.907,874.332 161.732,865.754 161.732,855.795 C161.732,853.129 162.253,849.923 163.295,846.178 C164.337,842.433 165.297,839.926 166.178,838.655 C167.058,837.384 168.378,835.155 170.139,831.967 C170.659,830.988 172.352,828.837 175.217,825.514 C175.738,824.806 176.193,824.222 176.584,823.764 C176.975,823.306 177.607,822.491 178.482,821.319 C179.357,820.147 180.3,819.056 181.31,818.045 C182.321,817.035 183.217,816.058 183.998,815.116 C184.779,814.173 185.498,813.379 186.154,812.733 C183.81,804.983 182.378,799.024 181.857,794.858 C181.337,790.691 181.076,785.579 181.076,779.522 C181.076,773.465 182.378,767.962 184.982,763.014 C187.514,757.879 191.06,753.681 195.623,750.42 C195.883,750.222 196.225,750.123 196.646,750.123 C197.068,750.123 197.378,750.222 197.576,750.42 C201.087,754.649 204.128,760.149 206.701,766.92 C209.274,773.691 210.56,780.024 210.56,785.92 C210.56,791.816 209.066,797.498 206.076,802.967 C202.691,808.759 198.326,814.748 192.982,820.936 C194.347,825.228 196.17,831.962 198.451,841.139 L199.045,841.139 C199.305,841.077 199.529,841.045 199.717,841.045 C207.081,841.045 213.089,843.634 217.74,848.811 C222.391,853.988 224.717,859.962 224.717,866.733 C224.717,875.129 221.238,881.899 214.279,887.045 C212.258,888.545 209.878,889.717 207.139,890.561 C207.472,894.79 207.639,897.605 207.639,899.006 C207.639,900.407 207.571,902.899 207.435,906.483 C207.373,912.597 205.29,917.837 201.185,922.202 C197.081,926.566 192.394,928.748 187.123,928.748 C181.852,928.748 177.36,926.876 173.646,923.131 C169.933,919.386 168.076,914.847 168.076,909.514 C168.076,906.712 169.154,904.332 171.31,902.373 C173.519,900.426 176.006,899.452 178.771,899.452 C181.537,899.452 183.8,900.462 185.56,902.483 C187.383,904.368 188.295,906.644 188.295,909.311 C188.295,911.978 187.383,914.222 185.56,916.045 C183.738,917.868 181.555,918.78 179.014,918.78 C177.972,918.78 176.967,918.587 175.998,918.202 C178.863,922.431 182.54,924.545 187.029,924.545 C191.519,924.545 195.36,922.691 198.553,918.983 C201.745,915.274 203.342,910.91 203.342,905.889 L203.623,898.858 M206.748,886.561 C210.133,885.321 212.821,883.123 214.81,879.967 C216.8,876.811 217.795,873.67 217.795,870.545 C217.795,865.92 216.199,861.785 213.006,858.139 C209.813,854.493 205.774,852.441 200.889,851.983 C203.691,865.722 205.644,877.248 206.748,886.561 M168.967,863.998 C168.967,870.446 171.537,876.079 176.678,880.897 C181.818,885.715 187.842,888.123 194.748,888.123 C197.477,888.123 200.144,887.926 202.748,887.53 C201.706,877.634 199.654,865.785 196.592,851.983 C192.758,852.379 189.782,853.699 187.662,855.944 C185.542,858.189 184.482,860.743 184.482,863.608 C184.482,868.556 187.123,872.561 192.404,875.623 C192.852,875.884 193.076,876.324 193.076,876.944 C193.076,877.564 192.865,878.1 192.443,878.553 C192.021,879.006 191.649,879.233 191.326,879.233 C191.003,879.233 190.581,879.17 190.06,879.045 C182.435,874.879 178.623,868.592 178.623,860.186 C178.623,856.217 180.024,852.41 182.826,848.764 C185.753,845.118 189.56,842.774 194.248,841.733 C192.425,834.441 190.93,828.743 189.764,824.639 C180.847,834.67 175.31,842.092 173.154,846.905 C170.363,853.155 168.967,858.853 168.967,863.998 M201.576,764.686 C196.691,767.092 192.834,770.574 190.006,775.131 C187.178,779.689 185.764,784.472 185.764,789.483 C185.764,794.493 186.935,800.972 189.279,808.92 C193.967,803.254 197.514,797.946 199.92,792.998 C202.326,788.051 203.529,783.152 203.529,778.303 C203.529,773.454 202.878,768.915 201.576,764.686"/>
<path class="TimeSig" d="M273.482,344.076 C272.701,342.118 271.04,341.139 268.498,341.139 C265.956,341.139 264.394,342.118 263.811,344.076 C263.352,345.514 263.123,347.925 263.123,351.311 L263.123,354.232 C263.123,357.618 263.352,360.029 263.811,361.467 C264.394,363.415 265.988,364.389 268.592,364.389 C271.196,364.389 272.839,363.282 273.521,361.068 C274.204,358.855 274.545,355.959 274.545,352.381 C274.545,348.803 274.191,346.035 273.482,344.076 M263.123,340.17 C265.081,339.389 266.842,338.93 268.404,338.795 C273.613,338.795 277.779,339.972 280.904,342.326 C283.894,344.732 285.389,348.199 285.389,352.725 C285.389,357.251 283.86,360.717 280.803,363.123 C277.745,365.529 273.579,366.732 268.303,366.732 C263.027,366.732 258.891,364.259 255.896,359.311 C252.902,354.363 251.404,348.535 251.404,341.826 C251.404,335.118 253.165,329.227 256.686,324.154 C260.258,319.206 264.847,316.732 270.451,316.732 C274.097,316.732 277.303,317.675 280.068,319.561 C282.834,321.446 284.217,323.92 284.217,326.982 C284.217,328.868 283.566,330.43 282.264,331.67 C281.097,332.972 279.602,333.623 277.779,333.623 C275.956,333.623 274.394,332.972 273.092,331.67 C271.79,330.368 271.139,328.805 271.139,326.982 C271.139,326.264 271.79,325.451 273.092,324.545 C274.394,323.764 275.045,322.933 275.045,322.053 C275.045,321.173 274.587,320.441 273.67,319.857 C272.628,319.337 271.555,319.076 270.451,319.076 C267.451,319.076 265.467,320.279 264.498,322.686 C263.456,325.029 262.936,328.446 262.936,332.936 C262.936,334.238 262.967,335.443 263.029,336.553 C263.092,337.662 263.123,338.868 263.123,340.17"/>
<path class="TimeSig" d="M275.607,387.92 C278.868,384.337 280.498,381.081 280.498,378.154 C280.498,375.227 279.376,372.983 277.131,371.42 C274.886,369.858 272.378,369.076 269.607,369.076 C266.837,369.076 264.769,369.792 263.404,371.225 C262.04,372.657 261.357,374.399 261.357,376.451 C261.357,378.503 262.368,380.144 264.389,381.373 L275.607,387.92 M251.201,380.592 C251.201,376.686 252.795,373.399 255.982,370.733 C259.17,368.066 263.173,366.733 267.99,366.733 C272.808,366.733 276.813,367.693 280.006,369.615 C283.199,371.537 284.795,374.238 284.795,377.717 C284.795,381.196 282.743,385.149 278.639,389.576 C284.17,392.774 286.936,397.04 286.936,402.373 C286.936,406.352 285.277,409.74 281.959,412.537 C278.641,415.334 274.214,416.733 268.678,416.733 C263.141,416.733 258.649,415.43 255.201,412.826 C251.555,410.222 249.732,406.868 249.732,402.764 C249.732,401.274 250.191,399.748 251.107,398.186 C251.889,396.425 253.972,393.946 257.357,390.748 C253.253,387.884 251.201,384.498 251.201,380.592 M260.373,392.514 C256.279,396.16 254.232,399.626 254.232,402.912 C254.232,406.199 255.581,408.933 258.279,411.115 C260.977,413.298 263.938,414.389 267.162,414.389 C270.386,414.389 272.748,413.545 274.248,411.858 C275.811,410.295 276.592,408.243 276.592,405.701 C276.592,403.16 275.451,401.238 273.17,399.936 L260.373,392.514 "/>
<path class="NoteDot" d="M1107.4,783.241 C1106.29,782.131 1105.74,780.795 1105.74,779.233 C1105.74,777.67 1106.29,776.334 1107.4,775.225 C1108.51,774.116 1109.85,773.561 1111.41,773.561 C1112.97,773.561 1114.3,774.116 1115.41,775.225 C1116.51,776.334 1117.06,777.67 1117.06,779.233 C1117.06,780.795 1116.51,782.131 1115.41,783.241 C1114.3,784.35 1112.97,784.905 1111.41,784.905 C1109.85,784.905 1108.51,784.35 1107.4,783.241"/>
<path class="NoteDot" d="M2273.61,1783.24 C2272.5,1782.13 2271.94,1780.8 2271.94,1779.23 C2271.94,1777.67 2272.5,1776.33 2273.61,1775.23 C2274.71,1774.12 2276.05,1773.56 2277.61,1773.56 C2279.18,1773.56 2280.51,1774.12 2281.61,1775.23 C2282.72,1776.33 2283.27,1777.67 2283.27,1779.23 C2283.27,1780.8 2282.72,1782.13 2281.61,1783.24 C2280.51,1784.35 2279.18,1784.91 2277.61,1784.91 C2276.05,1784.91 2274.71,1784.35 2273.61,1783.24"/>
<path class="NoteDot" d="M1219.89,333.24 C1218.78,332.131 1218.22,330.795 1218.22,329.232 C1218.22,327.67 1218.78,326.334 1219.89,325.225 C1221,324.115 1222.33,323.561 1223.9,323.561 C1225.46,323.561 1226.79,324.115 1227.9,325.225 C1229,326.334 1229.55,327.67 1229.55,329.232 C1229.55,330.795 1229,332.131 1227.9,333.24 C1226.79,334.35 1225.46,334.904 1223.9,334.904 C1222.33,334.904 1221,334.35 1219.89,333.24"/>
<path class="NoteDot" d="M2504.2,358.24 C2503.09,357.131 2502.54,355.795 2502.54,354.232 C2502.54,352.67 2503.09,351.334 2504.2,350.225 C2505.31,349.115 2506.65,348.561 2508.21,348.561 C2509.77,348.561 2511.11,349.115 2512.21,350.225 C2513.31,351.334 2513.87,352.67 2513.87,354.232 C2513.87,355.795 2513.31,357.131 2512.21,358.24 C2511.11,359.35 2509.77,359.904 2508.21,359.904 C2506.65,359.904 2505.31,359.35 2504.2,358.24"/>
<path class="NoteDot" d="M330.561,808.241 C329.451,807.131 328.897,805.795 328.897,804.233 C328.897,802.67 329.451,801.334 330.561,800.225 C331.67,799.116 333.006,798.561 334.568,798.561 C336.131,798.561 337.464,799.116 338.568,800.225 C339.673,801.334 340.225,802.67 340.225,804.233 C340.225,805.795 339.673,807.131 338.568,808.241 C337.464,809.35 336.131,809.905 334.568,809.905 C333.006,809.905 331.67,809.35 330.561,808.241"/>
<path class="NoteDot" d="M881.79,783.241 C880.681,782.131 880.126,780.795 880.126,779.233 C880.126,777.67 880.681,776.334 881.79,775.225 C882.9,774.116 884.236,773.561 885.798,773.561 C887.361,773.561 888.694,774.116 889.798,775.225 C890.902,776.334 891.454,777.67 891.454,779.233 C891.454,780.795 890.902,782.131 889.798,783.241 C888.694,784.35 887.361,784.905 885.798,784.905 C884.236,784.905 882.9,784.35 881.79,783.241"/>
<path class="NoteDot" d="M330.561,1758.24 C329.451,1757.13 328.897,1755.8 328.897,1754.23 C328.897,1752.67 329.451,1751.33 330.561,1750.23 C331.67,1749.12 333.006,1748.56 334.568,1748.56 C336.131,1748.56 337.464,1749.12 338.568,1750.23 C339.673,1751.33 340.225,1752.67 340.225,1754.23 C340.225,1755.8 339.673,1757.13 338.568,1758.24 C337.464,1759.35 336.131,1759.91 334.568,1759.91 C333.006,1759.91 331.67,1759.35 330.561,1758.24"/>
<path class="NoteDot" d="M1986.05,808.241 C1984.94,807.131 1984.39,805.795 1984.39,804.233 C1984.39,802.67 1984.94,801.334 1986.05,800.225 C1987.16,799.116 1988.5,798.561 1990.06,798.561 C1991.62,798.561 1992.96,799.116 1994.06,800.225 C1995.17,801.334 1995.72,802.67 1995.72,804.233 C1995.72,805.795 1995.17,807.131 1994.06,808.241 C1992.96,809.35 1991.62,809.905 1990.06,809.905 C1988.5,809.905 1987.16,809.35 1986.05,808.241"/>
<path class="NoteDot" d="M2352.57,833.241 C2351.46,832.131 2350.9,830.795 2350.9,829.233 C2350.9,827.67 2351.46,826.334 2352.57,825.225 C2353.68,824.116 2355.01,823.561 2356.57,823.561 C2358.14,823.561 2359.47,824.116 2360.57,825.225 C2361.68,826.334 2362.23,827.67 2362.23,829.233 C2362.23,830.795 2361.68,832.131 2360.57,833.241 C2359.47,834.35 2358.14,834.905 2356.57,834.905 C2355.01,834.905 2353.68,834.35 2352.57,833.241"/>
<path class="NoteDot" d="M330.561,1283.24 C329.451,1282.13 328.897,1280.8 328.897,1279.23 C328.897,1277.67 329.451,1276.33 330.561,1275.23 C331.67,1274.12 333.006,1273.56 334.568,1273.56 C336.131,1273.56 337.464,1274.12 338.568,1275.23 C339.673,1276.33 340.225,1277.67 340.225,1279.23 C340.225,1280.8 339.673,1282.13 338.568,1283.24 C337.464,1284.35 336.131,1284.9 334.568,1284.9 C333.006,1284.9 331.67,1284.35 330.561,1283.24"/>
<path class="NoteDot" d="M587.225,1283.24 C586.116,1282.13 585.561,1280.8 585.561,1279.23 C585.561,1277.67 586.116,1276.33 587.225,1275.23 C588.334,1274.12 589.67,1273.56 591.233,1273.56 C592.795,1273.56 594.129,1274.12 595.233,1275.23 C596.337,1276.33 596.889,1277.67 596.889,1279.23 C596.889,1280.8 596.337,1282.13 595.233,1283.24 C594.129,1284.35 592.795,1284.9 591.233,1284.9 C589.67,1284.9 588.334,1284.35 587.225,1283.24"/>
<path class="NoteDot" d="M1576.79,1308.24 C1575.68,1307.13 1575.12,1305.8 1575.12,1304.23 C1575.12,1302.67 1575.68,1301.33 1576.79,1300.23 C1577.9,1299.12 1579.23,1298.56 1580.79,1298.56 C1582.36,1298.56 1583.69,1299.12 1584.79,1300.23 C1585.9,1301.33 1586.45,1302.67 1586.45,1304.23 C1586.45,1305.8 1585.9,1307.13 1584.79,1308.24 C1583.69,1309.35 1582.36,1309.9 1580.79,1309.9 C1579.23,1309.9 1577.9,1309.35 1576.79,1308.24"/>
</svg>
