<?xml version="1.0" encoding="UTF-8" standalone="no"?>
<svg width="2977.2px" height="4208.4px" viewBox="0 0 2977.2 4208.4"
 xmlns="http://www.w3.org/2000/svg" xmlns:xlink="http://www.w3.org/1999/xlink" version="1.2" baseProfile="tiny">
<title>Wheels_On_The_Bus.mscx</title>
<desc>Generated by MuseScore Studio 4.3.1</desc>
<path class="" fill="#ffffff" fill-rule="evenodd" d="M0,0 L2977.2,0 L2977.2,4208.4 L0,4208.4 L0,0 "/>
<polyline class="StaffLines" fill="none" stroke="#000000" stroke-width="2.00" stroke-linejoin="bevel" points="141.732,316.732 2835.47,316.732"/>
<polyline class="StaffLines" fill="none" stroke="#000000" stroke-width="2.00" stroke-linejoin="bevel" points="141.732,341.732 2835.47,341.732"/>
<polyline class="StaffLines" fill="none" stroke="#000000" stroke-width="2.00" stroke-linejoin="bevel" points="141.732,366.733 2835.47,366.733"/>
<polyline class="StaffLines" fill="none" stroke="#000000" stroke-width="2.00" stroke-linejoin="bevel" points="141.732,391.733 2835.47,391.733"/>
<polyline class="StaffLines" fill="none" stroke="#000000" stroke-width="2.00" stroke-linejoin="bevel" points="141.732,416.733 2835.47,416.733"/>
<polyline class="StaffLines" fill="none" stroke="#000000" stroke-width="2.00" stroke-linejoin="bevel" points="141.732,791.733 2835.47,791.733"/>
<polyline class="StaffLines" fill="none" stroke="#000000" stroke-width="2.00" stroke-linejoin="bevel" points="141.732,816.733 2835.47,816.733"/>
<polyline class="StaffLines" fill="none" stroke="#000000" stroke-width="2.00" stroke-linejoin="bevel" points="141.732,841.733 2835.47,841.733"/>
<polyline class="StaffLines" fill="none" stroke="#000000" stroke-width="2.00" stroke-linejoin="bevel" points="141.732,866.733 2835.47,866.733"/>
<polyline class="StaffLines" fill="none" stroke="#000000" stroke-width="2.00" stroke-linejoin="bevel" points="141.732,891.733 2835.47,891.733"/>
<polyline class="StaffLines" fill="none" stroke="#000000" stroke-width="2.00" stroke-linejoin="bevel" points="141.732,1266.73 2835.47,1266.73"/>
<polyline class="StaffLines" fill="none" stroke="#000000" stroke-width="2.00" stroke-linejoin="bevel" points="141.732,1291.73 2835.47,1291.73"/>
<polyline class="StaffLines" fill="none" stroke="#000000" stroke-width="2.00" stroke-linejoin="bevel" points="141.732,1316.73 2835.47,1316.73"/>
<polyline class="StaffLines" fill="none" stroke="#000000" stroke-width="2.00" stroke-linejoin="bevel" points="141.732,1341.73 2835.47,1341.73"/>
<polyline class="StaffLines" fill="none" stroke="#000000" stroke-width="2.00" stroke-linejoin="bevel" points="141.732,1366.73 2835.47,1366.73"/>
<polyline class="StaffLines" fill="none" stroke="#000000" stroke-width="2.00" stroke-linejoin="bevel" points="141.732,1741.73 703.347,1741.73"/>
<polyline class="StaffLines" fill="none" stroke="#000000" stroke-width="2.00" stroke-linejoin="bevel" points="141.732,1766.73 703.347,1766.73"/>
<polyline class="StaffLines" fill="none" stroke="#000000" stroke-width="2.00" stroke-linejoin="bevel" points="141.732,1791.73 703.347,1791.73"/>
<polyline class="StaffLines" fill="none" stroke="#000000" stroke-width="2.00" stroke-linejoin="bevel" points="141.732,1816.73 703.347,1816.73"/>
<polyline class="StaffLines" fill="none" stroke="#000000" stroke-width="2.00" stroke-linejoin="bevel" points="141.732,1841.73 703.347,1841.73"/>
<path class="MeasureNumber" d="M128.045,1668.01 C127.566,1668.01 126.607,1668.31 125.17,1668.89 L125.17,1668.34 L132.373,1664.7 L132.685,1664.78 L132.685,1688.78 C132.685,1689.74 132.925,1690.36 133.404,1690.66 C133.883,1690.95 134.909,1691.11 136.482,1691.14 L136.482,1691.73 L125.451,1691.73 L125.451,1691.14 C126.941,1691.08 127.946,1690.85 128.467,1690.47 C128.988,1690.08 129.248,1689.26 129.248,1688.01 L129.248,1669.89 C129.248,1668.64 128.847,1668.01 128.045,1668.01 M154.998,1683.87 C154.998,1682.45 154.683,1681.18 154.053,1680.08 C153.422,1678.97 152.662,1678.12 151.771,1677.51 C150.881,1676.91 149.883,1676.41 148.779,1676.02 C147.675,1675.63 146.714,1675.38 145.896,1675.26 C145.079,1675.14 144.368,1675.08 143.764,1675.08 C143.441,1675.08 143.279,1674.97 143.279,1674.75 C143.279,1674.68 143.29,1674.61 143.31,1674.56 L147.67,1665.26 L156.029,1665.26 C156.456,1665.26 156.797,1665.2 157.053,1665.06 C157.308,1664.93 157.581,1664.64 157.873,1664.22 L158.232,1664.5 L156.717,1667.84 C156.613,1668.06 156.305,1668.17 155.795,1668.17 L147.951,1668.17 L146.279,1671.61 C150.165,1672.31 153.055,1673.44 154.951,1675.01 C156.847,1676.59 157.795,1678.89 157.795,1681.94 C157.795,1683.53 157.547,1684.95 157.053,1686.19 C156.558,1687.43 155.93,1688.42 155.17,1689.18 C154.409,1689.93 153.529,1690.55 152.529,1691.04 C151.529,1691.52 150.571,1691.85 149.654,1692.03 C148.738,1692.21 147.81,1692.3 146.873,1692.3 C145.383,1692.3 144.199,1692.07 143.318,1691.63 C142.438,1691.19 141.998,1690.58 141.998,1689.81 C141.998,1688.82 142.571,1688.33 143.717,1688.33 C144.467,1688.33 145.433,1688.74 146.615,1689.55 C147.797,1690.37 148.738,1690.78 149.435,1690.78 C151.008,1690.78 152.329,1690.11 153.396,1688.78 C154.464,1687.45 154.998,1685.81 154.998,1683.87"/>
<path class="MeasureNumber" d="M142.045,742.295 C139.357,742.295 137.193,741.22 135.553,739.069 C133.912,736.918 133.092,734.076 133.092,730.545 C133.092,729.462 133.199,728.34 133.412,727.178 C133.626,726.017 134.092,724.699 134.81,723.225 C135.529,721.751 136.462,720.428 137.607,719.256 C138.753,718.084 140.36,717.037 142.428,716.116 C144.495,715.194 146.878,714.613 149.576,714.373 L149.654,715.014 C146.508,715.524 143.881,716.8 141.771,718.842 C139.662,720.884 138.342,723.41 137.81,726.42 C139.06,725.701 140.006,725.235 140.646,725.022 C141.287,724.808 142.05,724.701 142.935,724.701 C145.227,724.701 147.053,725.444 148.412,726.928 C149.771,728.412 150.451,730.415 150.451,732.936 C150.451,735.696 149.67,737.946 148.107,739.686 C146.545,741.425 144.524,742.295 142.045,742.295 M141.404,726.451 C139.592,726.451 138.373,726.85 137.748,727.647 C137.123,728.444 136.81,729.623 136.81,731.186 C136.81,734.259 137.318,736.678 138.334,738.444 C139.35,740.209 140.738,741.092 142.498,741.092 C143.904,741.092 144.982,740.501 145.732,739.319 C146.482,738.136 146.857,736.462 146.857,734.295 C146.857,731.795 146.383,729.863 145.435,728.498 C144.488,727.134 143.144,726.451 141.404,726.451"/>
<path class="MeasureNumber" d="M129.045,1193.01 C128.566,1193.01 127.607,1193.31 126.17,1193.89 L126.17,1193.34 L133.373,1189.7 L133.685,1189.78 L133.685,1213.78 C133.685,1214.74 133.925,1215.36 134.404,1215.65 C134.883,1215.95 135.909,1216.11 137.482,1216.14 L137.482,1216.73 L126.451,1216.73 L126.451,1216.14 C127.941,1216.08 128.946,1215.85 129.467,1215.47 C129.988,1215.08 130.248,1214.26 130.248,1213.01 L130.248,1194.89 C130.248,1193.64 129.847,1193.01 129.045,1193.01 M149.029,1193.01 C148.55,1193.01 147.592,1193.31 146.154,1193.89 L146.154,1193.34 L153.357,1189.7 L153.67,1189.78 L153.67,1213.78 C153.67,1214.74 153.909,1215.36 154.389,1215.65 C154.868,1215.95 155.894,1216.11 157.467,1216.14 L157.467,1216.73 L146.435,1216.73 L146.435,1216.14 C147.925,1216.08 148.93,1215.85 149.451,1215.47 C149.972,1215.08 150.232,1214.26 150.232,1213.01 L150.232,1194.89 C150.232,1193.64 149.831,1193.01 149.029,1193.01"/>
<polyline class="BarLine" fill="none" stroke="#000000" stroke-width="4.00" stroke-linejoin="bevel" points="556.846,1740.73 556.846,1842.73"/>
<polyline class="BarLine" fill="none" stroke="#000000" stroke-width="4.00" stroke-linejoin="bevel" points="1247.03,790.733 1247.03,892.733"/>
<polyline class="BarLine" fill="none" stroke="#000000" stroke-width="4.00" stroke-linejoin="bevel" points="1852.48,315.732 1852.48,417.733"/>
<polyline class="BarLine" fill="none" stroke="#000000" stroke-width="4.00" stroke-linejoin="bevel" points="1789.81,790.733 1789.81,892.733"/>
<polyline class="BarLine" fill="none" stroke="#000000" stroke-width="4.00" stroke-linejoin="bevel" points="831.784,790.733 831.784,892.733"/>
<polyline class="BarLine" fill="none" stroke="#000000" stroke-width="4.00" stroke-linejoin="bevel" points="2205.05,790.733 2205.05,892.733"/>
<polyline class="BarLine" fill="none" stroke="#000000" stroke-width="4.00" stroke-linejoin="bevel" points="431.846,1740.73 431.846,1842.73"/>
<polyline class="BarLine" fill="none" stroke="#000000" stroke-width="4.00" stroke-linejoin="bevel" points="2833.47,790.733 2833.47,892.733"/>
<polyline class="BarLine" fill="none" stroke="#000000" stroke-width="4.00" stroke-linejoin="bevel" points="1296.57,315.732 1296.57,417.733"/>
<polyline class="BarLine" fill="none" stroke="#000000" stroke-width="4.00" stroke-linejoin="bevel" points="1024.72,1265.73 1024.72,1367.73"/>
<polyline class="BarLine" fill="none" stroke="#000000" stroke-width="4.00" stroke-linejoin="bevel" points="1741.7,1265.73 1741.7,1367.73"/>
<polyline class="BarLine" fill="none" stroke="#000000" stroke-width="4.00" stroke-linejoin="bevel" points="2833.47,315.732 2833.47,417.733"/>
<polyline class="BarLine" fill="none" stroke="#000000" stroke-width="4.00" stroke-linejoin="bevel" points="2287.58,1265.73 2287.58,1367.73"/>
<polyline class="BarLine" fill="none" stroke="#000000" stroke-width="4.00" stroke-linejoin="bevel" points="652.843,315.732 652.843,417.733"/>
<polyline class="BarLine" fill="none" stroke="#000000" stroke-width="4.00" stroke-linejoin="bevel" points="2408.38,315.732 2408.38,417.733"/>
<polyline class="BarLine" fill="none" stroke="#000000" stroke-width="4.00" stroke-linejoin="bevel" points="2833.47,1265.73 2833.47,1367.73"/>
<polyline class="BarLine" fill="none" stroke="#000000" stroke-width="4.00" stroke-linejoin="bevel" points="670.597,1740.73 670.597,1842.73"/>
<polyline class="BarLine" fill="none" stroke="#000000" stroke-width="12.50" stroke-linejoin="bevel" points="697.097,1740.73 697.097,1842.73"/>
<polyline class="LedgerLine" fill="none" stroke="#000000" stroke-width="4.00" stroke-linejoin="bevel" points="1042.22,1241.73 1094.14,1241.73"/>
<polyline class="LedgerLine" fill="none" stroke="#000000" stroke-width="4.00" stroke-linejoin="bevel" points="1264.53,741.733 1316.44,741.733"/>
<polyline class="LedgerLine" fill="none" stroke="#000000" stroke-width="4.00" stroke-linejoin="bevel" points="1264.53,766.733 1316.44,766.733"/>
<polyline class="LedgerLine" fill="none" stroke="#000000" stroke-width="4.00" stroke-linejoin="bevel" points="1521.42,766.733 1573.33,766.733"/>
<polyline class="LedgerLine" fill="none" stroke="#000000" stroke-width="4.00" stroke-linejoin="bevel" points="669.236,1241.73 721.15,1241.73"/>
<polyline class="LedgerLine" fill="none" stroke="#000000" stroke-width="4.00" stroke-linejoin="bevel" points="1869.98,291.732 1921.89,291.732"/>
<polyline class="LedgerLine" fill="none" stroke="#000000" stroke-width="4.00" stroke-linejoin="bevel" points="1869.98,266.732 1921.89,266.732"/>
<polyline class="LedgerLine" fill="none" stroke="#000000" stroke-width="4.00" stroke-linejoin="bevel" points="1042.22,1216.73 1094.14,1216.73"/>
<polyline class="LedgerLine" fill="none" stroke="#000000" stroke-width="4.00" stroke-linejoin="bevel" points="1577.52,291.732 1629.44,291.732"/>
<polyline class="LedgerLine" fill="none" stroke="#000000" stroke-width="4.00" stroke-linejoin="bevel" points="1386.21,1241.73 1438.13,1241.73"/>
<polyline class="LedgerLine" fill="none" stroke="#000000" stroke-width="4.00" stroke-linejoin="bevel" points="2133.43,291.732 2185.35,291.732"/>
<polyline class="Stem" fill="none" stroke="#000000" stroke-width="3.25" stroke-linejoin="bevel" points="1325.19,322.602 1325.19,404.233"/>
<polyline class="Stem" fill="none" stroke="#000000" stroke-width="3.25" stroke-linejoin="bevel" points="1120.56,322.602 1120.56,391.733"/>
<polyline class="Stem" fill="none" stroke="#000000" stroke-width="3.25" stroke-linejoin="bevel" points="2661.83,797.602 2661.83,866.733"/>
<polyline class="Stem" fill="none" stroke="#000000" stroke-width="3.25" stroke-linejoin="bevel" points="2490.57,797.602 2490.57,866.733"/>
<polyline class="Stem" fill="none" stroke="#000000" stroke-width="3.25" stroke-linejoin="bevel" points="2233.68,797.602 2233.68,879.233"/>
<polyline class="Stem" fill="none" stroke="#000000" stroke-width="3.25" stroke-linejoin="bevel" points="2437.01,321.632 2437.01,404.233"/>
<polyline class="Stem" fill="none" stroke="#000000" stroke-width="3.25" stroke-linejoin="bevel" points="335.471,1784.13 335.471,1860.48"/>
<polyline class="Stem" fill="none" stroke="#000000" stroke-width="3.25" stroke-linejoin="bevel" points="336.373,1272.6 336.373,1354.23"/>
<polyline class="Stem" fill="none" stroke="#000000" stroke-width="3.25" stroke-linejoin="bevel" points="680.361,1247.6 680.361,1329.23"/>
<polyline class="Stem" fill="none" stroke="#000000" stroke-width="3.25" stroke-linejoin="bevel" points="944.922,322.602 944.922,391.733"/>
<polyline class="Stem" fill="none" stroke="#000000" stroke-width="3.25" stroke-linejoin="bevel" points="1053.35,1222.6 1053.35,1316.73"/>
<polyline class="Stem" fill="none" stroke="#000000" stroke-width="3.25" stroke-linejoin="bevel" points="1397.34,1247.6 1397.34,1329.23"/>
<polyline class="Stem" fill="none" stroke="#000000" stroke-width="3.25" stroke-linejoin="bevel" points="681.468,322.602 681.468,404.233"/>
<polyline class="Stem" fill="none" stroke="#000000" stroke-width="3.25" stroke-linejoin="bevel" points="1770.32,1271.63 1770.32,1354.23"/>
<polyline class="Stem" fill="none" stroke="#000000" stroke-width="3.25" stroke-linejoin="bevel" points="389.014,360.102 389.014,435.483"/>
<polyline class="Stem" fill="none" stroke="#000000" stroke-width="3.25" stroke-linejoin="bevel" points="2316.21,1259.13 2316.21,1341.73"/>
<polyline class="Stem" fill="none" stroke="#000000" stroke-width="3.25" stroke-linejoin="bevel" points="1532.54,772.602 1532.54,854.233"/>
<polyline class="Stem" fill="none" stroke="#000000" stroke-width="3.25" stroke-linejoin="bevel" points="574.516,810.102 574.516,891.733"/>
<polyline class="Stem" fill="none" stroke="#000000" stroke-width="3.25" stroke-linejoin="bevel" points="860.409,834.133 860.409,910.483"/>
<polyline class="Stem" fill="none" stroke="#000000" stroke-width="3.25" stroke-linejoin="bevel" points="317.623,785.102 317.623,866.733"/>
<polyline class="Stem" fill="none" stroke="#000000" stroke-width="3.25" stroke-linejoin="bevel" points="1881.1,272.602 1881.1,366.733"/>
<polyline class="Stem" fill="none" stroke="#000000" stroke-width="3.25" stroke-linejoin="bevel" points="1275.65,747.602 1275.65,841.733"/>
<polyline class="Stem" fill="none" stroke="#000000" stroke-width="3.25" stroke-linejoin="bevel" points="460.471,1746.63 460.471,1829.23"/>
<polyline class="Stem" fill="none" stroke="#000000" stroke-width="3.25" stroke-linejoin="bevel" points="2144.56,297.602 2144.56,379.233"/>
<polyline class="Stem" fill="none" stroke="#000000" stroke-width="3.25" stroke-linejoin="bevel" points="1818.44,796.633 1818.44,879.233"/>
<polyline class="Stem" fill="none" stroke="#000000" stroke-width="3.25" stroke-linejoin="bevel" points="1588.65,297.602 1588.65,379.233"/>
<path class="Note" d="M409.358,340.467 C412.483,340.467 415.087,341.248 417.17,342.811 C419.253,344.373 420.295,346.618 420.295,349.545 C420.295,354.035 417.969,358.232 413.318,362.139 C408.667,366.045 403.67,367.998 398.326,367.998 C395.201,367.998 392.566,367.186 390.42,365.561 C388.399,363.8 387.389,361.587 387.389,358.92 C387.389,354.555 389.701,350.389 394.326,346.42 C398.951,342.451 403.962,340.467 409.358,340.467"/>
<path class="Note" d="M1776.12,1277.37 C1778.01,1277.37 1781.96,1275.42 1787.99,1271.51 C1794.01,1267.61 1797.56,1264.99 1798.64,1263.65 C1799.71,1262.32 1800.25,1261.13 1800.25,1260.09 C1800.25,1259.05 1799.82,1258.12 1798.97,1257.31 C1798.12,1256.5 1797.15,1256.09 1796.04,1256.09 C1794.1,1256.09 1790.11,1258.06 1784.08,1262 C1778.06,1265.94 1774.52,1268.56 1773.48,1269.86 C1772.44,1271.16 1771.92,1272.33 1771.92,1273.37 C1771.92,1274.42 1772.33,1275.34 1773.15,1276.15 C1773.96,1276.97 1774.96,1277.37 1776.12,1277.37 M1795.07,1252.97 C1800.67,1252.97 1803.47,1255.37 1803.47,1260.19 C1803.47,1262.53 1802.78,1265.25 1801.42,1268.34 C1800.05,1271.44 1798.23,1273.8 1795.95,1275.42 C1790.94,1278.81 1784.66,1280.5 1777.11,1280.5 C1771.5,1280.5 1768.7,1278.09 1768.7,1273.28 C1768.7,1271.13 1769.37,1268.46 1770.7,1265.27 C1772.03,1262.08 1773.87,1259.67 1776.22,1258.05 C1781.24,1254.66 1787.52,1252.97 1795.07,1252.97"/>
<path class="Note" d="M866.205,839.873 C868.091,839.873 872.047,837.92 878.073,834.014 C884.099,830.108 887.648,827.488 888.721,826.155 C889.794,824.821 890.33,823.634 890.33,822.592 C890.33,821.551 889.906,820.623 889.057,819.811 C888.208,818.998 887.231,818.592 886.127,818.592 C884.179,818.592 880.192,820.561 874.166,824.498 C868.14,828.436 864.606,831.056 863.565,832.358 C862.523,833.66 862.002,834.832 862.002,835.873 C862.002,836.915 862.411,837.842 863.229,838.655 C864.047,839.467 865.039,839.873 866.205,839.873 M885.159,815.467 C890.752,815.467 893.549,817.873 893.549,822.686 C893.549,825.03 892.867,827.748 891.502,830.842 C890.138,833.936 888.315,836.295 886.034,837.92 C881.023,841.306 874.742,842.998 867.19,842.998 C861.586,842.998 858.784,840.592 858.784,835.78 C858.784,833.634 859.45,830.965 860.784,827.772 C862.117,824.579 863.955,822.17 866.299,820.545 C871.32,817.16 877.606,815.467 885.159,815.467"/>
<path class="Note" d="M1901.45,252.967 C1904.57,252.967 1907.17,253.748 1909.26,255.311 C1911.34,256.873 1912.38,259.118 1912.38,262.045 C1912.38,266.535 1910.06,270.732 1905.41,274.639 C1900.76,278.545 1895.76,280.498 1890.41,280.498 C1887.29,280.498 1884.65,279.686 1882.51,278.061 C1880.49,276.3 1879.48,274.087 1879.48,271.42 C1879.48,267.055 1881.79,262.889 1886.41,258.92 C1891.04,254.951 1896.05,252.967 1901.45,252.967"/>
<path class="Note" d="M701.812,302.967 C704.937,302.967 707.541,303.748 709.624,305.311 C711.707,306.873 712.749,309.118 712.749,312.045 C712.749,316.535 710.424,320.732 705.772,324.639 C701.121,328.545 696.124,330.498 690.78,330.498 C687.655,330.498 685.02,329.686 682.874,328.061 C680.853,326.3 679.843,324.087 679.843,321.42 C679.843,317.055 682.155,312.889 686.78,308.92 C691.405,304.951 696.416,302.967 701.812,302.967"/>
<path class="Note" d="M1417.68,1227.97 C1420.81,1227.97 1423.41,1228.75 1425.49,1230.31 C1427.58,1231.87 1428.62,1234.12 1428.62,1237.05 C1428.62,1241.54 1426.29,1245.73 1421.64,1249.64 C1416.99,1253.55 1411.99,1255.5 1406.65,1255.5 C1403.52,1255.5 1400.89,1254.69 1398.74,1253.06 C1396.72,1251.3 1395.71,1249.09 1395.71,1246.42 C1395.71,1242.06 1398.02,1237.89 1402.65,1233.92 C1407.27,1229.95 1412.28,1227.97 1417.68,1227.97"/>
<path class="Note" d="M2164.9,277.967 C2168.02,277.967 2170.63,278.748 2172.71,280.311 C2174.8,281.873 2175.84,284.118 2175.84,287.045 C2175.84,291.535 2173.51,295.732 2168.86,299.639 C2164.21,303.545 2159.21,305.498 2153.87,305.498 C2150.74,305.498 2148.11,304.686 2145.96,303.061 C2143.94,301.3 2142.93,299.087 2142.93,296.42 C2142.93,292.055 2145.24,287.889 2149.87,283.92 C2154.49,279.951 2159.5,277.967 2164.9,277.967"/>
<path class="Note" d="M2442.81,327.373 C2444.69,327.373 2448.65,325.42 2454.67,321.514 C2460.7,317.607 2464.25,314.988 2465.32,313.654 C2466.4,312.321 2466.93,311.134 2466.93,310.092 C2466.93,309.05 2466.51,308.123 2465.66,307.311 C2464.81,306.498 2463.83,306.092 2462.73,306.092 C2460.78,306.092 2456.79,308.061 2450.77,311.998 C2444.74,315.936 2441.21,318.555 2440.17,319.857 C2439.12,321.16 2438.6,322.331 2438.6,323.373 C2438.6,324.415 2439.01,325.342 2439.83,326.154 C2440.65,326.967 2441.64,327.373 2442.81,327.373 M2461.76,302.967 C2467.35,302.967 2470.15,305.373 2470.15,310.186 C2470.15,312.529 2469.47,315.248 2468.1,318.342 C2466.74,321.436 2464.92,323.795 2462.63,325.42 C2457.62,328.805 2451.34,330.498 2443.79,330.498 C2438.19,330.498 2435.38,328.092 2435.38,323.279 C2435.38,321.134 2436.05,318.464 2437.38,315.272 C2438.72,312.079 2440.56,309.67 2442.9,308.045 C2447.92,304.66 2454.21,302.967 2461.76,302.967"/>
<path class="Note" d="M2322.01,1264.87 C2323.89,1264.87 2327.85,1262.92 2333.87,1259.01 C2339.9,1255.11 2343.45,1252.49 2344.52,1251.15 C2345.59,1249.82 2346.13,1248.63 2346.13,1247.59 C2346.13,1246.55 2345.71,1245.62 2344.86,1244.81 C2344.01,1244 2343.03,1243.59 2341.93,1243.59 C2339.98,1243.59 2335.99,1245.56 2329.97,1249.5 C2323.94,1253.44 2320.41,1256.06 2319.37,1257.36 C2318.32,1258.66 2317.8,1259.83 2317.8,1260.87 C2317.8,1261.92 2318.21,1262.84 2319.03,1263.65 C2319.85,1264.47 2320.84,1264.87 2322.01,1264.87 M2340.96,1240.47 C2346.55,1240.47 2349.35,1242.87 2349.35,1247.69 C2349.35,1250.03 2348.67,1252.75 2347.3,1255.84 C2345.94,1258.94 2344.12,1261.3 2341.83,1262.92 C2336.82,1266.31 2330.54,1268 2322.99,1268 C2317.39,1268 2314.58,1265.59 2314.58,1260.78 C2314.58,1258.63 2315.25,1255.96 2316.58,1252.77 C2317.92,1249.58 2319.76,1247.17 2322.1,1245.55 C2327.12,1242.16 2333.41,1240.47 2340.96,1240.47"/>
<path class="Note" d="M337.967,765.467 C341.092,765.467 343.696,766.248 345.779,767.811 C347.863,769.373 348.904,771.618 348.904,774.545 C348.904,779.035 346.579,783.233 341.928,787.139 C337.277,791.045 332.279,792.998 326.936,792.998 C323.811,792.998 321.175,792.186 319.029,790.561 C317.009,788.8 315.998,786.587 315.998,783.92 C315.998,779.556 318.311,775.389 322.936,771.42 C327.561,767.452 332.571,765.467 337.967,765.467"/>
<path class="Note" d="M1073.69,1202.97 C1076.82,1202.97 1079.42,1203.75 1081.51,1205.31 C1083.59,1206.87 1084.63,1209.12 1084.63,1212.05 C1084.63,1216.54 1082.3,1220.73 1077.65,1224.64 C1073,1228.55 1068.01,1230.5 1062.66,1230.5 C1059.54,1230.5 1056.9,1229.69 1054.76,1228.06 C1052.73,1226.3 1051.72,1224.09 1051.72,1221.42 C1051.72,1217.06 1054.04,1212.89 1058.66,1208.92 C1063.29,1204.95 1068.3,1202.97 1073.69,1202.97"/>
<path class="Note" d="M466.268,1752.37 C468.153,1752.37 472.109,1750.42 478.135,1746.51 C484.161,1742.61 487.71,1739.99 488.783,1738.66 C489.856,1737.32 490.393,1736.13 490.393,1735.09 C490.393,1734.05 489.968,1733.12 489.119,1732.31 C488.27,1731.5 487.294,1731.09 486.19,1731.09 C484.242,1731.09 480.255,1733.06 474.229,1737 C468.203,1740.94 464.669,1743.56 463.627,1744.86 C462.585,1746.16 462.065,1747.33 462.065,1748.37 C462.065,1749.42 462.473,1750.34 463.291,1751.16 C464.109,1751.97 465.101,1752.37 466.268,1752.37 M485.221,1727.97 C490.815,1727.97 493.611,1730.37 493.611,1735.19 C493.611,1737.53 492.929,1740.25 491.565,1743.34 C490.2,1746.44 488.377,1748.8 486.096,1750.42 C481.085,1753.81 474.804,1755.5 467.252,1755.5 C461.648,1755.5 458.846,1753.09 458.846,1748.28 C458.846,1746.13 459.513,1743.47 460.846,1740.27 C462.179,1737.08 464.018,1734.67 466.361,1733.05 C471.382,1729.66 477.669,1727.97 485.221,1727.97"/>
<path class="Note" d="M594.86,790.467 C597.985,790.467 600.589,791.248 602.672,792.811 C604.755,794.373 605.797,796.618 605.797,799.545 C605.797,804.035 603.472,808.233 598.821,812.139 C594.169,816.045 589.172,817.998 583.828,817.998 C580.703,817.998 578.068,817.186 575.922,815.561 C573.901,813.8 572.891,811.587 572.891,808.92 C572.891,804.556 575.203,800.389 579.828,796.42 C584.453,792.452 589.464,790.467 594.86,790.467"/>
<path class="Note" d="M1345.54,302.967 C1348.66,302.967 1351.27,303.748 1353.35,305.311 C1355.43,306.873 1356.48,309.118 1356.48,312.045 C1356.48,316.535 1354.15,320.732 1349.5,324.639 C1344.85,328.545 1339.85,330.498 1334.51,330.498 C1331.38,330.498 1328.75,329.686 1326.6,328.061 C1324.58,326.3 1323.57,324.087 1323.57,321.42 C1323.57,317.055 1325.88,312.889 1330.51,308.92 C1335.13,304.951 1340.14,302.967 1345.54,302.967"/>
<path class="Note" d="M965.266,302.967 C968.391,302.967 970.995,303.748 973.078,305.311 C975.161,306.873 976.203,309.118 976.203,312.045 C976.203,316.535 973.878,320.732 969.227,324.639 C964.575,328.545 959.578,330.498 954.234,330.498 C951.109,330.498 948.474,329.686 946.328,328.061 C944.307,326.3 943.297,324.087 943.297,321.42 C943.297,317.055 945.609,312.889 950.234,308.92 C954.859,304.951 959.87,302.967 965.266,302.967"/>
<path class="Note" d="M700.705,1227.97 C703.83,1227.97 706.434,1228.75 708.517,1230.31 C710.601,1231.87 711.642,1234.12 711.642,1237.05 C711.642,1241.54 709.317,1245.73 704.666,1249.64 C700.015,1253.55 695.017,1255.5 689.674,1255.5 C686.549,1255.5 683.913,1254.69 681.767,1253.06 C679.746,1251.3 678.736,1249.09 678.736,1246.42 C678.736,1242.06 681.049,1237.89 685.674,1233.92 C690.299,1229.95 695.309,1227.97 700.705,1227.97"/>
<path class="Note" d="M356.717,1252.97 C359.842,1252.97 362.446,1253.75 364.529,1255.31 C366.613,1256.87 367.654,1259.12 367.654,1262.05 C367.654,1266.54 365.329,1270.73 360.678,1274.64 C356.027,1278.55 351.029,1280.5 345.686,1280.5 C342.561,1280.5 339.925,1279.69 337.779,1278.06 C335.759,1276.3 334.748,1274.09 334.748,1271.42 C334.748,1267.06 337.061,1262.89 341.686,1258.92 C346.311,1254.95 351.321,1252.97 356.717,1252.97"/>
<path class="Note" d="M1295.99,727.967 C1299.12,727.967 1301.72,728.748 1303.81,730.311 C1305.89,731.873 1306.93,734.118 1306.93,737.045 C1306.93,741.535 1304.61,745.733 1299.95,749.639 C1295.3,753.545 1290.31,755.498 1284.96,755.498 C1281.84,755.498 1279.2,754.686 1277.06,753.061 C1275.04,751.3 1274.03,749.087 1274.03,746.42 C1274.03,742.056 1276.34,737.889 1280.96,733.92 C1285.59,729.951 1290.6,727.967 1295.99,727.967"/>
<path class="Note" d="M1552.89,752.967 C1556.01,752.967 1558.62,753.748 1560.7,755.311 C1562.78,756.873 1563.82,759.118 1563.82,762.045 C1563.82,766.535 1561.5,770.733 1556.85,774.639 C1552.2,778.545 1547.2,780.498 1541.86,780.498 C1538.73,780.498 1536.09,779.686 1533.95,778.061 C1531.93,776.3 1530.92,774.087 1530.92,771.42 C1530.92,767.056 1533.23,762.889 1537.86,758.92 C1542.48,754.952 1547.49,752.967 1552.89,752.967"/>
<path class="Note" d="M1140.9,302.967 C1144.03,302.967 1146.63,303.748 1148.71,305.311 C1150.8,306.873 1151.84,309.118 1151.84,312.045 C1151.84,316.535 1149.51,320.732 1144.86,324.639 C1140.21,328.545 1135.21,330.498 1129.87,330.498 C1126.75,330.498 1124.11,329.686 1121.96,328.061 C1119.94,326.3 1118.93,324.087 1118.93,321.42 C1118.93,317.055 1121.25,312.889 1125.87,308.92 C1130.5,304.951 1135.51,302.967 1140.9,302.967"/>
<path class="Note" d="M1608.99,277.967 C1612.12,277.967 1614.72,278.748 1616.8,280.311 C1618.89,281.873 1619.93,284.118 1619.93,287.045 C1619.93,291.535 1617.6,295.732 1612.95,299.639 C1608.3,303.545 1603.3,305.498 1597.96,305.498 C1594.84,305.498 1592.2,304.686 1590.05,303.061 C1588.03,301.3 1587.02,299.087 1587.02,296.42 C1587.02,292.055 1589.34,287.889 1593.96,283.92 C1598.59,279.951 1603.6,277.967 1608.99,277.967"/>
<path class="Note" d="M2682.18,777.967 C2685.3,777.967 2687.9,778.748 2689.99,780.311 C2692.07,781.873 2693.11,784.118 2693.11,787.045 C2693.11,791.535 2690.79,795.733 2686.14,799.639 C2681.49,803.545 2676.49,805.498 2671.14,805.498 C2668.02,805.498 2665.38,804.686 2663.24,803.061 C2661.22,801.3 2660.21,799.087 2660.21,796.42 C2660.21,792.056 2662.52,787.889 2667.14,783.92 C2671.77,779.952 2676.78,777.967 2682.18,777.967"/>
<path class="Note" d="M341.268,1789.87 C343.153,1789.87 347.109,1787.92 353.135,1784.01 C359.161,1780.11 362.71,1777.49 363.783,1776.16 C364.856,1774.82 365.393,1773.63 365.393,1772.59 C365.393,1771.55 364.968,1770.62 364.119,1769.81 C363.27,1769 362.294,1768.59 361.19,1768.59 C359.242,1768.59 355.255,1770.56 349.229,1774.5 C343.203,1778.44 339.669,1781.06 338.627,1782.36 C337.585,1783.66 337.065,1784.83 337.065,1785.87 C337.065,1786.92 337.473,1787.84 338.291,1788.66 C339.109,1789.47 340.101,1789.87 341.268,1789.87 M360.221,1765.47 C365.815,1765.47 368.611,1767.87 368.611,1772.69 C368.611,1775.03 367.929,1777.75 366.565,1780.84 C365.2,1783.94 363.377,1786.3 361.096,1787.92 C356.085,1791.31 349.804,1793 342.252,1793 C336.648,1793 333.846,1790.59 333.846,1785.78 C333.846,1783.63 334.512,1780.97 335.846,1777.77 C337.179,1774.58 339.018,1772.17 341.361,1770.55 C346.382,1767.16 352.669,1765.47 360.221,1765.47"/>
<path class="Note" d="M2510.91,777.967 C2514.04,777.967 2516.64,778.748 2518.73,780.311 C2520.81,781.873 2521.85,784.118 2521.85,787.045 C2521.85,791.535 2519.53,795.733 2514.87,799.639 C2510.22,803.545 2505.23,805.498 2499.88,805.498 C2496.76,805.498 2494.12,804.686 2491.98,803.061 C2489.96,801.3 2488.94,799.087 2488.94,796.42 C2488.94,792.056 2491.26,787.889 2495.88,783.92 C2500.51,779.952 2505.52,777.967 2510.91,777.967"/>
<path class="Note" d="M1824.23,802.373 C1826.12,802.373 1830.07,800.42 1836.1,796.514 C1842.13,792.608 1845.68,789.988 1846.75,788.655 C1847.82,787.321 1848.36,786.134 1848.36,785.092 C1848.36,784.05 1847.93,783.123 1847.08,782.311 C1846.24,781.498 1845.26,781.092 1844.15,781.092 C1842.21,781.092 1838.22,783.061 1832.19,786.998 C1826.17,790.936 1822.63,793.556 1821.59,794.858 C1820.55,796.16 1820.03,797.332 1820.03,798.373 C1820.03,799.415 1820.44,800.342 1821.26,801.155 C1822.07,801.967 1823.07,802.373 1824.23,802.373 M1843.19,777.967 C1848.78,777.967 1851.58,780.373 1851.58,785.186 C1851.58,787.53 1850.89,790.248 1849.53,793.342 C1848.16,796.436 1846.34,798.795 1844.06,800.42 C1839.05,803.806 1832.77,805.498 1825.22,805.498 C1819.61,805.498 1816.81,803.092 1816.81,798.28 C1816.81,796.134 1817.48,793.465 1818.81,790.272 C1820.14,787.079 1821.98,784.67 1824.33,783.045 C1829.35,779.66 1835.63,777.967 1843.19,777.967"/>
<path class="Note" d="M2254.02,777.967 C2257.15,777.967 2259.75,778.748 2261.83,780.311 C2263.92,781.873 2264.96,784.118 2264.96,787.045 C2264.96,791.535 2262.63,795.733 2257.98,799.639 C2253.33,803.545 2248.33,805.498 2242.99,805.498 C2239.86,805.498 2237.23,804.686 2235.08,803.061 C2233.06,801.3 2232.05,799.087 2232.05,796.42 C2232.05,792.056 2234.36,787.889 2238.99,783.92 C2243.61,779.952 2248.62,777.967 2254.02,777.967"/>
<path class="Clef" d="M203.623,1848.86 L203.623,1846.72 C203.56,1845.61 203.399,1843.89 203.139,1841.55 C199.889,1842.07 196.993,1842.33 194.451,1842.33 C185.337,1842.33 177.605,1838.73 171.256,1831.53 C164.907,1824.33 161.732,1815.75 161.732,1805.8 C161.732,1803.13 162.253,1799.92 163.295,1796.18 C164.337,1792.43 165.297,1789.93 166.178,1788.66 C167.058,1787.38 168.378,1785.16 170.139,1781.97 C170.659,1780.99 172.352,1778.84 175.217,1775.51 C175.738,1774.81 176.193,1774.22 176.584,1773.76 C176.975,1773.31 177.607,1772.49 178.482,1771.32 C179.357,1770.15 180.3,1769.06 181.31,1768.05 C182.321,1767.04 183.217,1766.06 183.998,1765.12 C184.779,1764.17 185.498,1763.38 186.154,1762.73 C183.81,1754.98 182.378,1749.03 181.857,1744.86 C181.337,1740.69 181.076,1735.58 181.076,1729.52 C181.076,1723.47 182.378,1717.96 184.982,1713.01 C187.514,1707.88 191.06,1703.68 195.623,1700.42 C195.883,1700.22 196.225,1700.12 196.646,1700.12 C197.068,1700.12 197.378,1700.22 197.576,1700.42 C201.087,1704.65 204.128,1710.15 206.701,1716.92 C209.274,1723.69 210.56,1730.03 210.56,1735.92 C210.56,1741.82 209.066,1747.5 206.076,1752.97 C202.691,1758.76 198.326,1764.75 192.982,1770.94 C194.347,1775.23 196.17,1781.96 198.451,1791.14 L199.045,1791.14 C199.305,1791.08 199.529,1791.05 199.717,1791.05 C207.081,1791.05 213.089,1793.63 217.74,1798.81 C222.391,1803.99 224.717,1809.96 224.717,1816.73 C224.717,1825.13 221.238,1831.9 214.279,1837.05 C212.258,1838.55 209.878,1839.72 207.139,1840.56 C207.472,1844.79 207.639,1847.61 207.639,1849.01 C207.639,1850.41 207.571,1852.9 207.435,1856.48 C207.373,1862.6 205.29,1867.84 201.185,1872.2 C197.081,1876.57 192.394,1878.75 187.123,1878.75 C181.852,1878.75 177.36,1876.88 173.646,1873.13 C169.933,1869.39 168.076,1864.85 168.076,1859.51 C168.076,1856.71 169.154,1854.33 171.31,1852.37 C173.519,1850.43 176.006,1849.45 178.771,1849.45 C181.537,1849.45 183.8,1850.46 185.56,1852.48 C187.383,1854.37 188.295,1856.64 188.295,1859.31 C188.295,1861.98 187.383,1864.22 185.56,1866.05 C183.738,1867.87 181.555,1868.78 179.014,1868.78 C177.972,1868.78 176.967,1868.59 175.998,1868.2 C178.863,1872.43 182.54,1874.55 187.029,1874.55 C191.519,1874.55 195.36,1872.69 198.553,1868.98 C201.745,1865.28 203.342,1860.91 203.342,1855.89 L203.623,1848.86 M206.748,1836.56 C210.133,1835.32 212.821,1833.12 214.81,1829.97 C216.8,1826.81 217.795,1823.67 217.795,1820.55 C217.795,1815.92 216.199,1811.79 213.006,1808.14 C209.813,1804.49 205.774,1802.44 200.889,1801.98 C203.691,1815.72 205.644,1827.25 206.748,1836.56 M168.967,1814 C168.967,1820.45 171.537,1826.08 176.678,1830.9 C181.818,1835.72 187.842,1838.12 194.748,1838.12 C197.477,1838.12 200.144,1837.93 202.748,1837.53 C201.706,1827.63 199.654,1815.79 196.592,1801.98 C192.758,1802.38 189.782,1803.7 187.662,1805.94 C185.542,1808.19 184.482,1810.74 184.482,1813.61 C184.482,1818.56 187.123,1822.56 192.404,1825.62 C192.852,1825.88 193.076,1826.32 193.076,1826.94 C193.076,1827.56 192.865,1828.1 192.443,1828.55 C192.021,1829.01 191.649,1829.23 191.326,1829.23 C191.003,1829.23 190.581,1829.17 190.06,1829.05 C182.435,1824.88 178.623,1818.59 178.623,1810.19 C178.623,1806.22 180.024,1802.41 182.826,1798.76 C185.753,1795.12 189.56,1792.78 194.248,1791.73 C192.425,1784.44 190.93,1778.74 189.764,1774.64 C180.847,1784.67 175.31,1792.09 173.154,1796.91 C170.363,1803.16 168.967,1808.85 168.967,1814 M201.576,1714.69 C196.691,1717.09 192.834,1720.57 190.006,1725.13 C187.178,1729.69 185.764,1734.47 185.764,1739.48 C185.764,1744.49 186.935,1750.97 189.279,1758.92 C193.967,1753.25 197.514,1747.95 199.92,1743 C202.326,1738.05 203.529,1733.15 203.529,1728.3 C203.529,1723.45 202.878,1718.92 201.576,1714.69"/>
<path class="Clef" d="M203.623,423.858 L203.623,421.717 C203.56,420.613 203.399,418.889 203.139,416.545 C199.889,417.066 196.993,417.326 194.451,417.326 C185.337,417.326 177.605,413.727 171.256,406.529 C164.907,399.331 161.732,390.753 161.732,380.795 C161.732,378.128 162.253,374.923 163.295,371.178 C164.337,367.433 165.297,364.925 166.178,363.654 C167.058,362.384 168.378,360.154 170.139,356.967 C170.659,355.988 172.352,353.837 175.217,350.514 C175.738,349.805 176.193,349.222 176.584,348.764 C176.975,348.305 177.607,347.49 178.482,346.318 C179.357,345.147 180.3,344.055 181.31,343.045 C182.321,342.035 183.217,341.058 183.998,340.115 C184.779,339.173 185.498,338.378 186.154,337.733 C183.81,329.983 182.378,324.024 181.857,319.858 C181.337,315.691 181.076,310.579 181.076,304.522 C181.076,298.464 182.378,292.962 184.982,288.014 C187.514,282.878 191.06,278.68 195.623,275.42 C195.883,275.222 196.225,275.123 196.646,275.123 C197.068,275.123 197.378,275.222 197.576,275.42 C201.087,279.649 204.128,285.149 206.701,291.92 C209.274,298.691 210.56,305.024 210.56,310.92 C210.56,316.816 209.066,322.498 206.076,327.967 C202.691,333.759 198.326,339.748 192.982,345.936 C194.347,350.227 196.17,356.962 198.451,366.139 L199.045,366.139 C199.305,366.076 199.529,366.045 199.717,366.045 C207.081,366.045 213.089,368.634 217.74,373.811 C222.391,378.988 224.717,384.962 224.717,391.733 C224.717,400.128 221.238,406.899 214.279,412.045 C212.258,413.545 209.878,414.717 207.139,415.561 C207.472,419.79 207.639,422.605 207.639,424.006 C207.639,425.407 207.571,427.899 207.435,431.483 C207.373,437.597 205.29,442.837 201.185,447.201 C197.081,451.566 192.394,453.748 187.123,453.748 C181.852,453.748 177.36,451.876 173.646,448.131 C169.933,444.386 168.076,439.847 168.076,434.514 C168.076,431.712 169.154,429.331 171.31,427.373 C173.519,425.425 176.006,424.451 178.771,424.451 C181.537,424.451 183.8,425.462 185.56,427.483 C187.383,429.368 188.295,431.644 188.295,434.311 C188.295,436.977 187.383,439.222 185.56,441.045 C183.738,442.868 181.555,443.779 179.014,443.779 C177.972,443.779 176.967,443.587 175.998,443.201 C178.863,447.43 182.54,449.545 187.029,449.545 C191.519,449.545 195.36,447.691 198.553,443.983 C201.745,440.274 203.342,435.91 203.342,430.889 L203.623,423.858 M206.748,411.561 C210.133,410.321 212.821,408.123 214.81,404.967 C216.8,401.811 217.795,398.67 217.795,395.545 C217.795,390.92 216.199,386.785 213.006,383.139 C209.813,379.493 205.774,377.441 200.889,376.983 C203.691,390.722 205.644,402.248 206.748,411.561 M168.967,388.998 C168.967,395.446 171.537,401.079 176.678,405.897 C181.818,410.714 187.842,413.123 194.748,413.123 C197.477,413.123 200.144,412.925 202.748,412.529 C201.706,402.634 199.654,390.785 196.592,376.983 C192.758,377.378 189.782,378.699 187.662,380.943 C185.542,383.188 184.482,385.743 184.482,388.608 C184.482,393.555 187.123,397.561 192.404,400.623 C192.852,400.884 193.076,401.324 193.076,401.943 C193.076,402.563 192.865,403.1 192.443,403.553 C192.021,404.006 191.649,404.233 191.326,404.233 C191.003,404.233 190.581,404.17 190.06,404.045 C182.435,399.878 178.623,393.592 178.623,385.186 C178.623,381.217 180.024,377.41 182.826,373.764 C185.753,370.118 189.56,367.774 194.248,366.733 C192.425,359.441 190.93,353.743 189.764,349.639 C180.847,359.67 175.31,367.092 173.154,371.904 C170.363,378.154 168.967,383.852 168.967,388.998 M201.576,289.686 C196.691,292.092 192.834,295.574 190.006,300.131 C187.178,304.688 185.764,309.472 185.764,314.483 C185.764,319.493 186.935,325.972 189.279,333.92 C193.967,328.253 197.514,322.946 199.92,317.998 C202.326,313.05 203.529,308.152 203.529,303.303 C203.529,298.454 202.878,293.915 201.576,289.686"/>
<path class="Clef" d="M203.623,1373.86 L203.623,1371.72 C203.56,1370.61 203.399,1368.89 203.139,1366.55 C199.889,1367.07 196.993,1367.33 194.451,1367.33 C185.337,1367.33 177.605,1363.73 171.256,1356.53 C164.907,1349.33 161.732,1340.75 161.732,1330.8 C161.732,1328.13 162.253,1324.92 163.295,1321.18 C164.337,1317.43 165.297,1314.93 166.178,1313.65 C167.058,1312.38 168.378,1310.15 170.139,1306.97 C170.659,1305.99 172.352,1303.84 175.217,1300.51 C175.738,1299.81 176.193,1299.22 176.584,1298.76 C176.975,1298.31 177.607,1297.49 178.482,1296.32 C179.357,1295.15 180.3,1294.06 181.31,1293.05 C182.321,1292.04 183.217,1291.06 183.998,1290.12 C184.779,1289.17 185.498,1288.38 186.154,1287.73 C183.81,1279.98 182.378,1274.02 181.857,1269.86 C181.337,1265.69 181.076,1260.58 181.076,1254.52 C181.076,1248.46 182.378,1242.96 184.982,1238.01 C187.514,1232.88 191.06,1228.68 195.623,1225.42 C195.883,1225.22 196.225,1225.12 196.646,1225.12 C197.068,1225.12 197.378,1225.22 197.576,1225.42 C201.087,1229.65 204.128,1235.15 206.701,1241.92 C209.274,1248.69 210.56,1255.02 210.56,1260.92 C210.56,1266.82 209.066,1272.5 206.076,1277.97 C202.691,1283.76 198.326,1289.75 192.982,1295.94 C194.347,1300.23 196.17,1306.96 198.451,1316.14 L199.045,1316.14 C199.305,1316.08 199.529,1316.05 199.717,1316.05 C207.081,1316.05 213.089,1318.63 217.74,1323.81 C222.391,1328.99 224.717,1334.96 224.717,1341.73 C224.717,1350.13 221.238,1356.9 214.279,1362.05 C212.258,1363.55 209.878,1364.72 207.139,1365.56 C207.472,1369.79 207.639,1372.61 207.639,1374.01 C207.639,1375.41 207.571,1377.9 207.435,1381.48 C207.373,1387.6 205.29,1392.84 201.185,1397.2 C197.081,1401.57 192.394,1403.75 187.123,1403.75 C181.852,1403.75 177.36,1401.88 173.646,1398.13 C169.933,1394.39 168.076,1389.85 168.076,1384.51 C168.076,1381.71 169.154,1379.33 171.31,1377.37 C173.519,1375.43 176.006,1374.45 178.771,1374.45 C181.537,1374.45 183.8,1375.46 185.56,1377.48 C187.383,1379.37 188.295,1381.64 188.295,1384.31 C188.295,1386.98 187.383,1389.22 185.56,1391.05 C183.738,1392.87 181.555,1393.78 179.014,1393.78 C177.972,1393.78 176.967,1393.59 175.998,1393.2 C178.863,1397.43 182.54,1399.55 187.029,1399.55 C191.519,1399.55 195.36,1397.69 198.553,1393.98 C201.745,1390.27 203.342,1385.91 203.342,1380.89 L203.623,1373.86 M206.748,1361.56 C210.133,1360.32 212.821,1358.12 214.81,1354.97 C216.8,1351.81 217.795,1348.67 217.795,1345.55 C217.795,1340.92 216.199,1336.79 213.006,1333.14 C209.813,1329.49 205.774,1327.44 200.889,1326.98 C203.691,1340.72 205.644,1352.25 206.748,1361.56 M168.967,1339 C168.967,1345.45 171.537,1351.08 176.678,1355.9 C181.818,1360.71 187.842,1363.12 194.748,1363.12 C197.477,1363.12 200.144,1362.93 202.748,1362.53 C201.706,1352.63 199.654,1340.79 196.592,1326.98 C192.758,1327.38 189.782,1328.7 187.662,1330.94 C185.542,1333.19 184.482,1335.74 184.482,1338.61 C184.482,1343.56 187.123,1347.56 192.404,1350.62 C192.852,1350.88 193.076,1351.32 193.076,1351.94 C193.076,1352.56 192.865,1353.1 192.443,1353.55 C192.021,1354.01 191.649,1354.23 191.326,1354.23 C191.003,1354.23 190.581,1354.17 190.06,1354.05 C182.435,1349.88 178.623,1343.59 178.623,1335.19 C178.623,1331.22 180.024,1327.41 182.826,1323.76 C185.753,1320.12 189.56,1317.77 194.248,1316.73 C192.425,1309.44 190.93,1303.74 189.764,1299.64 C180.847,1309.67 175.31,1317.09 173.154,1321.9 C170.363,1328.15 168.967,1333.85 168.967,1339 M201.576,1239.69 C196.691,1242.09 192.834,1245.57 190.006,1250.13 C187.178,1254.69 185.764,1259.47 185.764,1264.48 C185.764,1269.49 186.935,1275.97 189.279,1283.92 C193.967,1278.25 197.514,1272.95 199.92,1268 C202.326,1263.05 203.529,1258.15 203.529,1253.3 C203.529,1248.45 202.878,1243.92 201.576,1239.69"/>
<path class="Clef" d="M203.623,898.858 L203.623,896.717 C203.56,895.613 203.399,893.889 203.139,891.545 C199.889,892.066 196.993,892.327 194.451,892.327 C185.337,892.327 177.605,888.728 171.256,881.53 C164.907,874.332 161.732,865.754 161.732,855.795 C161.732,853.129 162.253,849.923 163.295,846.178 C164.337,842.433 165.297,839.926 166.178,838.655 C167.058,837.384 168.378,835.155 170.139,831.967 C170.659,830.988 172.352,828.837 175.217,825.514 C175.738,824.806 176.193,824.222 176.584,823.764 C176.975,823.306 177.607,822.491 178.482,821.319 C179.357,820.147 180.3,819.056 181.31,818.045 C182.321,817.035 183.217,816.058 183.998,815.116 C184.779,814.173 185.498,813.379 186.154,812.733 C183.81,804.983 182.378,799.024 181.857,794.858 C181.337,790.691 181.076,785.579 181.076,779.522 C181.076,773.465 182.378,767.962 184.982,763.014 C187.514,757.879 191.06,753.681 195.623,750.42 C195.883,750.222 196.225,750.123 196.646,750.123 C197.068,750.123 197.378,750.222 197.576,750.42 C201.087,754.649 204.128,760.149 206.701,766.92 C209.274,773.691 210.56,780.024 210.56,785.92 C210.56,791.816 209.066,797.498 206.076,802.967 C202.691,808.759 198.326,814.748 192.982,820.936 C194.347,825.228 196.17,831.962 198.451,841.139 L199.045,841.139 C199.305,841.077 199.529,841.045 199.717,841.045 C207.081,841.045 213.089,843.634 217.74,848.811 C222.391,853.988 224.717,859.962 224.717,866.733 C224.717,875.129 221.238,881.899 214.279,887.045 C212.258,888.545 209.878,889.717 207.139,890.561 C207.472,894.79 207.639,897.605 207.639,899.006 C207.639,900.407 207.571,902.899 207.435,906.483 C207.373,912.597 205.29,917.837 201.185,922.202 C197.081,926.566 192.394,928.748 187.123,928.748 C181.852,928.748 177.36,926.876 173.646,923.131 C169.933,919.386 168.076,914.847 168.076,909.514 C168.076,906.712 169.154,904.332 171.31,902.373 C173.519,900.426 176.006,899.452 178.771,899.452 C181.537,899.452 183.8,900.462 185.56,902.483 C187.383,904.368 188.295,906.644 188.295,909.311 C188.295,911.978 187.383,914.222 185.56,916.045 C183.738,917.868 181.555,918.78 179.014,918.78 C177.972,918.78 176.967,918.587 175.998,918.202 C178.863,922.431 182.54,924.545 187.029,924.545 C191.519,924.545 195.36,922.691 198.553,918.983 C201.745,915.274 203.342,910.91 203.342,905.889 L203.623,898.858 M206.748,886.561 C210.133,885.321 212.821,883.123 214.81,879.967 C216.8,876.811 217.795,873.67 217.795,870.545 C217.795,865.92 216.199,861.785 213.006,858.139 C209.813,854.493 205.774,852.441 200.889,851.983 C203.691,865.722 205.644,877.248 206.748,886.561 M168.967,863.998 C168.967,870.446 171.537,876.079 176.678,880.897 C181.818,885.715 187.842,888.123 194.748,888.123 C197.477,888.123 200.144,887.926 202.748,887.53 C201.706,877.634 199.654,865.785 196.592,851.983 C192.758,852.379 189.782,853.699 187.662,855.944 C185.542,858.189 184.482,860.743 184.482,863.608 C184.482,868.556 187.123,872.561 192.404,875.623 C192.852,875.884 193.076,876.324 193.076,876.944 C193.076,877.564 192.865,878.1 192.443,878.553 C192.021,879.006 191.649,879.233 191.326,879.233 C191.003,879.233 190.581,879.17 190.06,879.045 C182.435,874.879 178.623,868.592 178.623,860.186 C178.623,856.217 180.024,852.41 182.826,848.764 C185.753,845.118 189.56,842.774 194.248,841.733 C192.425,834.441 190.93,828.743 189.764,824.639 C180.847,834.67 175.31,842.092 173.154,846.905 C170.363,853.155 168.967,858.853 168.967,863.998 M201.576,764.686 C196.691,767.092 192.834,770.574 190.006,775.131 C187.178,779.689 185.764,784.472 185.764,789.483 C185.764,794.493 186.935,800.972 189.279,808.92 C193.967,803.254 197.514,797.946 199.92,792.998 C202.326,788.051 203.529,783.152 203.529,778.303 C203.529,773.454 202.878,768.915 201.576,764.686"/>
<path class="KeySig" d="M251.123,1334.31 L249.857,1272.2 C249.857,1271.22 250.623,1270.73 252.154,1270.73 C253.686,1270.73 254.451,1271.22 254.451,1272.2 L253.67,1306.09 C255.43,1304.33 256.943,1303.11 258.209,1302.43 C259.475,1301.75 261.199,1301.4 263.381,1301.4 C265.563,1301.4 267.581,1302.41 269.436,1304.43 C271.29,1306.44 272.217,1308.95 272.217,1311.95 C272.217,1316.44 267.498,1322.66 258.061,1330.61 C254.55,1333.8 252.727,1335.39 252.592,1335.39 L252.014,1335.39 C251.42,1335.39 251.123,1335.03 251.123,1334.31 M253.576,1309.22 L253.279,1331.39 C255.3,1329.49 257.352,1326.35 259.436,1321.95 C261.519,1317.56 262.561,1313.8 262.561,1310.67 C262.561,1309.11 262.3,1307.68 261.779,1306.37 C261.258,1305.07 260.443,1304.42 259.334,1304.42 C258.225,1304.42 257.23,1304.81 256.35,1305.59 C255.469,1306.37 254.545,1307.58 253.576,1309.22"/>
<path class="KeySig" d="M251.123,1809.31 L249.857,1747.2 C249.857,1746.22 250.623,1745.73 252.154,1745.73 C253.686,1745.73 254.451,1746.22 254.451,1747.2 L253.67,1781.09 C255.43,1779.33 256.943,1778.11 258.209,1777.43 C259.475,1776.75 261.199,1776.41 263.381,1776.41 C265.563,1776.41 267.581,1777.41 269.436,1779.43 C271.29,1781.44 272.217,1783.95 272.217,1786.95 C272.217,1791.44 267.498,1797.66 258.061,1805.61 C254.55,1808.8 252.727,1810.39 252.592,1810.39 L252.014,1810.39 C251.42,1810.39 251.123,1810.03 251.123,1809.31 M253.576,1784.22 L253.279,1806.39 C255.3,1804.49 257.352,1801.35 259.436,1796.95 C261.519,1792.56 262.561,1788.8 262.561,1785.67 C262.561,1784.11 262.3,1782.68 261.779,1781.37 C261.258,1780.07 260.443,1779.42 259.334,1779.42 C258.225,1779.42 257.23,1779.81 256.35,1780.59 C255.469,1781.37 254.545,1782.58 253.576,1784.22"/>
<path class="KeySig" d="M251.123,859.311 L249.857,797.202 C249.857,796.222 250.623,795.733 252.154,795.733 C253.686,795.733 254.451,796.222 254.451,797.202 L253.67,831.092 C255.43,829.332 256.943,828.11 258.209,827.428 C259.475,826.746 261.199,826.405 263.381,826.405 C265.563,826.405 267.581,827.412 269.436,829.428 C271.29,831.444 272.217,833.952 272.217,836.952 C272.217,841.441 267.498,847.66 258.061,855.608 C254.55,858.795 252.727,860.389 252.592,860.389 L252.014,860.389 C251.42,860.389 251.123,860.03 251.123,859.311 M253.576,834.217 L253.279,856.389 C255.3,854.493 257.352,851.347 259.436,846.952 C261.519,842.556 262.561,838.795 262.561,835.67 C262.561,834.108 262.3,832.676 261.779,831.373 C261.258,830.071 260.443,829.42 259.334,829.42 C258.225,829.42 257.23,829.811 256.35,830.592 C255.469,831.373 254.545,832.582 253.576,834.217"/>
<path class="KeySig" d="M251.123,384.311 L249.857,322.201 C249.857,321.222 250.623,320.733 252.154,320.733 C253.686,320.733 254.451,321.222 254.451,322.201 L253.67,356.092 C255.43,354.331 256.943,353.11 258.209,352.428 C259.475,351.746 261.199,351.404 263.381,351.404 C265.563,351.404 267.581,352.412 269.436,354.428 C271.29,356.443 272.217,358.951 272.217,361.951 C272.217,366.441 267.498,372.66 258.061,380.608 C254.55,383.795 252.727,385.389 252.592,385.389 L252.014,385.389 C251.42,385.389 251.123,385.029 251.123,384.311 M253.576,359.217 L253.279,381.389 C255.3,379.493 257.352,376.347 259.436,371.951 C261.519,367.555 262.561,363.795 262.561,360.67 C262.561,359.108 262.3,357.675 261.779,356.373 C261.258,355.071 260.443,354.42 259.334,354.42 C258.225,354.42 257.23,354.811 256.35,355.592 C255.469,356.373 254.545,357.581 253.576,359.217"/>
<path class="TimeSig" d="M321.998,366.732 C320.04,366.732 318.279,366.376 316.717,365.662 C315.154,364.949 313.982,364.134 313.201,363.217 C311.441,361.134 309.649,360.092 307.826,360.092 C306.003,360.092 304.524,360.597 303.389,361.607 C302.253,362.618 301.618,363.967 301.482,365.654 C301.357,366.373 300.936,366.732 300.217,366.732 C299.498,366.732 299.139,366.373 299.139,365.654 C299.139,361.165 301.16,357.165 305.201,353.654 C307.149,351.956 308.873,350.555 310.373,349.451 C311.873,348.347 313.696,346.884 315.842,345.061 C320.394,341.144 322.67,336.519 322.67,331.186 C322.67,327.863 322.118,324.998 321.014,322.592 C319.847,320.248 318.055,319.076 315.639,319.076 C314.149,319.076 312.93,319.402 311.982,320.053 C311.035,320.704 310.561,321.535 310.561,322.545 C310.561,323.555 311.147,324.743 312.318,326.107 C313.49,327.472 314.076,328.613 314.076,329.529 C314.076,331.477 313.41,333.118 312.076,334.451 C310.743,335.785 309.115,336.451 307.193,336.451 C305.272,336.451 303.628,335.769 302.264,334.404 C300.962,332.977 300.311,331.352 300.311,329.529 C300.311,325.811 301.808,322.748 304.803,320.342 C307.798,317.936 311.607,316.732 316.232,316.732 C320.857,316.732 325.024,318.066 328.732,320.732 C332.441,323.399 334.295,326.884 334.295,331.186 C334.295,337.113 332.311,341.347 328.342,343.889 C324.894,346.097 321.248,347.967 317.404,349.498 C313.561,351.029 310.889,352.285 309.389,353.264 C310.243,353.066 311.123,352.967 312.029,352.967 C314.956,352.967 318.081,353.943 321.404,355.897 C324.727,357.85 327.365,358.826 329.318,358.826 C331.272,358.826 332.509,358.191 333.029,356.92 C333.55,355.649 334.102,355.014 334.686,355.014 C335.467,355.014 335.857,355.404 335.857,356.186 C335.857,358.009 334.571,360.222 331.998,362.826 C329.425,365.43 326.092,366.732 321.998,366.732"/>
<path class="TimeSig" d="M320.537,368.084 C322.032,368.084 323.464,367.858 324.834,367.404 C326.204,366.951 327.18,366.725 327.764,366.725 C328.347,366.725 328.738,367.079 328.936,367.787 C328.936,367.86 328.868,368.058 328.732,368.381 L300.326,401.397 L317.014,401.397 L317.014,388.303 C317.014,386.678 317.962,385.506 319.857,384.787 C321.805,384.068 324.019,381.173 326.498,376.1 C326.686,375.704 326.977,375.506 327.373,375.506 C328.154,375.506 328.607,375.964 328.732,376.881 L328.732,401.397 L335.873,401.397 C336.779,401.397 337.266,401.884 337.334,402.858 C337.402,403.831 336.915,404.318 335.873,404.318 L328.732,404.318 L328.732,405.1 C328.732,407.704 329.383,409.917 330.686,411.74 C332.186,413.563 333.946,414.475 335.967,414.475 C336.748,414.475 337.139,414.865 337.139,415.647 C337.139,416.428 336.602,416.818 335.529,416.818 C334.456,416.818 332.454,416.608 329.522,416.186 C326.589,415.764 324.326,415.553 322.732,415.553 C321.139,415.553 318.925,415.764 316.092,416.186 C313.258,416.608 311.128,416.818 309.701,416.818 C308.92,416.818 308.529,416.428 308.529,415.647 C308.529,414.865 308.92,414.475 309.701,414.475 C311.712,414.475 313.467,413.563 314.967,411.74 C316.331,409.855 317.014,407.641 317.014,405.1 L317.014,404.318 L300.326,404.318 C299.472,404.318 298.735,404.092 298.115,403.639 C297.495,403.186 297.186,402.764 297.186,402.373 C297.186,401.983 298.001,400.811 299.631,398.858 C301.261,396.904 303.589,393.144 306.615,387.576 C309.641,382.009 311.154,375.61 311.154,368.381 C311.154,367.339 311.613,366.818 312.529,366.818 C312.727,366.818 313.037,366.884 313.459,367.014 C313.881,367.144 314.792,367.355 316.193,367.647 C317.594,367.938 319.042,368.084 320.537,368.084"/>
<path class="Rest" d="M631.502,1782.36 L595.956,1782.36 C595.299,1782.36 594.971,1782.04 594.971,1781.39 L594.971,1767.72 C594.971,1767.06 595.299,1766.73 595.956,1766.73 L631.502,1766.73 C632.148,1766.73 632.471,1767.06 632.471,1767.72 L632.471,1781.39 C632.471,1782.04 632.148,1782.36 631.502,1782.36"/>
<path class="Beam" fill-rule="evenodd" d="M2488.94,860.483 L2663.46,860.483 L2663.46,872.983 L2488.94,872.983 L2488.94,860.483 "/>
<path class="Beam" fill-rule="evenodd" d="M943.297,385.483 L1122.18,385.483 L1122.18,397.983 L943.297,397.983 L943.297,385.483 "/>
</svg>
