<?xml version="1.0" encoding="UTF-8" standalone="no"?>
<svg width="2977.2px" height="4208.4px" viewBox="0 0 2977.2 4208.4"
 xmlns="http://www.w3.org/2000/svg" xmlns:xlink="http://www.w3.org/1999/xlink" version="1.2" baseProfile="tiny">
<title>Db_Harmonic_Minor.mscx</title>
<desc>Generated by MuseScore Studio 4.3.1</desc>
<path class="" fill="#ffffff" fill-rule="evenodd" d="M0,0 L2977.2,0 L2977.2,4208.4 L0,4208.4 L0,0 "/>
<polyline class="StaffLines" fill="none" stroke="#000000" stroke-width="2.00" stroke-linejoin="bevel" points="141.732,316.732 2835.47,316.732"/>
<polyline class="StaffLines" fill="none" stroke="#000000" stroke-width="2.00" stroke-linejoin="bevel" points="141.732,341.732 2835.47,341.732"/>
<polyline class="StaffLines" fill="none" stroke="#000000" stroke-width="2.00" stroke-linejoin="bevel" points="141.732,366.733 2835.47,366.733"/>
<polyline class="StaffLines" fill="none" stroke="#000000" stroke-width="2.00" stroke-linejoin="bevel" points="141.732,391.733 2835.47,391.733"/>
<polyline class="StaffLines" fill="none" stroke="#000000" stroke-width="2.00" stroke-linejoin="bevel" points="141.732,416.733 2835.47,416.733"/>
<polyline class="BarLine" fill="none" stroke="#000000" stroke-width="4.00" stroke-linejoin="bevel" points="1170.57,315.732 1170.57,417.733"/>
<polyline class="BarLine" fill="none" stroke="#000000" stroke-width="4.00" stroke-linejoin="bevel" points="2802.72,315.732 2802.72,417.733"/>
<polyline class="BarLine" fill="none" stroke="#000000" stroke-width="12.50" stroke-linejoin="bevel" points="2829.22,315.732 2829.22,417.733"/>
<polyline class="BarLine" fill="none" stroke="#000000" stroke-width="4.00" stroke-linejoin="bevel" points="1447.79,315.732 1447.79,417.733"/>
<polyline class="BarLine" fill="none" stroke="#000000" stroke-width="4.00" stroke-linejoin="bevel" points="2514.98,315.732 2514.98,417.733"/>
<polyline class="BarLine" fill="none" stroke="#000000" stroke-width="4.00" stroke-linejoin="bevel" points="2227.24,315.732 2227.24,417.733"/>
<polyline class="BarLine" fill="none" stroke="#000000" stroke-width="4.00" stroke-linejoin="bevel" points="882.833,315.732 882.833,417.733"/>
<polyline class="BarLine" fill="none" stroke="#000000" stroke-width="4.00" stroke-linejoin="bevel" points="605.611,315.732 605.611,417.733"/>
<polyline class="BarLine" fill="none" stroke="#000000" stroke-width="4.00" stroke-linejoin="bevel" points="1662.28,315.732 1662.28,417.733"/>
<polyline class="BarLine" fill="none" stroke="#000000" stroke-width="4.00" stroke-linejoin="bevel" points="1950.02,315.732 1950.02,417.733"/>
<path class="Accidental" d="M1673.17,359.311 L1671.91,297.201 C1671.91,296.222 1672.67,295.732 1674.2,295.732 C1675.74,295.732 1676.5,296.222 1676.5,297.201 L1675.72,331.092 C1677.48,329.331 1678.99,328.11 1680.26,327.428 C1681.53,326.746 1683.25,326.404 1685.43,326.404 C1687.61,326.404 1689.63,327.412 1691.49,329.428 C1693.34,331.443 1694.27,333.951 1694.27,336.951 C1694.27,341.441 1689.55,347.66 1680.11,355.607 C1676.6,358.795 1674.78,360.389 1674.64,360.389 L1674.06,360.389 C1673.47,360.389 1673.17,360.029 1673.17,359.311 M1675.63,334.217 L1675.33,356.389 C1677.35,354.493 1679.4,351.347 1681.49,346.951 C1683.57,342.555 1684.61,338.795 1684.61,335.67 C1684.61,334.107 1684.35,332.675 1683.83,331.373 C1683.31,330.071 1682.49,329.42 1681.38,329.42 C1680.28,329.42 1679.28,329.811 1678.4,330.592 C1677.52,331.373 1676.6,332.581 1675.63,334.217"/>
<path class="Accidental" d="M2074.06,396.811 L2072.79,334.701 C2072.79,333.722 2073.56,333.233 2075.09,333.233 C2076.62,333.233 2077.38,333.722 2077.38,334.701 L2076.6,368.592 C2078.36,366.831 2079.88,365.61 2081.14,364.928 C2082.41,364.246 2084.13,363.904 2086.31,363.904 C2088.5,363.904 2090.51,364.912 2092.37,366.928 C2094.22,368.943 2095.15,371.451 2095.15,374.451 C2095.15,378.941 2090.43,385.16 2080.99,393.108 C2077.48,396.295 2075.66,397.889 2075.52,397.889 L2074.95,397.889 C2074.35,397.889 2074.06,397.529 2074.06,396.811 M2076.51,371.717 L2076.21,393.889 C2078.23,391.993 2080.28,388.847 2082.37,384.451 C2084.45,380.055 2085.49,376.295 2085.49,373.17 C2085.49,371.608 2085.23,370.175 2084.71,368.873 C2084.19,367.571 2083.38,366.92 2082.27,366.92 C2081.16,366.92 2080.16,367.311 2079.28,368.092 C2078.4,368.873 2077.48,370.081 2076.51,371.717"/>
<path class="Accidental" d="M2238.13,409.311 L2236.87,347.201 C2236.87,346.222 2237.63,345.733 2239.16,345.733 C2240.7,345.733 2241.46,346.222 2241.46,347.201 L2240.68,381.092 C2242.44,379.331 2243.95,378.11 2245.22,377.428 C2246.48,376.746 2248.21,376.404 2250.39,376.404 C2252.57,376.404 2254.59,377.412 2256.45,379.428 C2258.3,381.443 2259.23,383.951 2259.23,386.951 C2259.23,391.441 2254.51,397.66 2245.07,405.608 C2241.56,408.795 2239.74,410.389 2239.6,410.389 L2239.02,410.389 C2238.43,410.389 2238.13,410.029 2238.13,409.311 M2240.59,384.217 L2240.29,406.389 C2242.31,404.493 2244.36,401.347 2246.45,396.951 C2248.53,392.555 2249.57,388.795 2249.57,385.67 C2249.57,384.108 2249.31,382.675 2248.79,381.373 C2248.27,380.071 2247.45,379.42 2246.34,379.42 C2245.23,379.42 2244.24,379.811 2243.36,380.592 C2242.48,381.373 2241.56,382.581 2240.59,384.217"/>
<path class="Accidental" d="M2525.87,434.311 L2524.61,372.201 C2524.61,371.222 2525.37,370.733 2526.9,370.733 C2528.43,370.733 2529.2,371.222 2529.2,372.201 L2528.42,406.092 C2530.18,404.331 2531.69,403.11 2532.96,402.428 C2534.22,401.746 2535.95,401.404 2538.13,401.404 C2540.31,401.404 2542.33,402.412 2544.18,404.428 C2546.04,406.443 2546.96,408.951 2546.96,411.951 C2546.96,416.441 2542.25,422.66 2532.81,430.608 C2529.3,433.795 2527.48,435.389 2527.34,435.389 L2526.76,435.389 C2526.17,435.389 2525.87,435.029 2525.87,434.311 M2528.32,409.217 L2528.03,431.389 C2530.05,429.493 2532.1,426.347 2534.18,421.951 C2536.27,417.555 2537.31,413.795 2537.31,410.67 C2537.31,409.108 2537.05,407.675 2536.53,406.373 C2536.01,405.071 2535.19,404.42 2534.08,404.42 C2532.97,404.42 2531.98,404.811 2531.1,405.592 C2530.22,406.373 2529.29,407.581 2528.32,409.217"/>
<path class="Accidental" d="M1294.61,359.311 L1293.34,297.201 C1293.34,296.222 1294.11,295.732 1295.64,295.732 C1297.17,295.732 1297.93,296.222 1297.93,297.201 L1297.15,331.092 C1298.91,329.331 1300.43,328.11 1301.69,327.428 C1302.96,326.746 1304.68,326.404 1306.86,326.404 C1309.05,326.404 1311.06,327.412 1312.92,329.428 C1314.77,331.443 1315.7,333.951 1315.7,336.951 C1315.7,341.441 1310.98,347.66 1301.54,355.607 C1298.03,358.795 1296.21,360.389 1296.07,360.389 L1295.5,360.389 C1294.9,360.389 1294.61,360.029 1294.61,359.311 M1297.06,334.217 L1296.76,356.389 C1298.78,354.493 1300.83,351.347 1302.92,346.951 C1305,342.555 1306.04,338.795 1306.04,335.67 C1306.04,334.107 1305.78,332.675 1305.26,331.373 C1304.74,330.071 1303.93,329.42 1302.82,329.42 C1301.71,329.42 1300.71,329.811 1299.83,330.592 C1298.95,331.373 1298.03,332.581 1297.06,334.217"/>
<path class="Accidental" d="M1023.77,399.545 C1022.6,399.868 1022.01,399.415 1022.01,398.186 L1022.01,343.483 C1022.01,342.118 1022.53,341.436 1023.57,341.436 C1024.61,341.436 1025.13,342.118 1025.13,343.483 L1025.13,363.311 L1036.66,358.92 C1037.83,358.597 1038.41,359.05 1038.41,360.279 L1038.41,414.983 C1038.41,416.347 1037.89,417.029 1036.85,417.029 C1035.81,417.029 1035.29,416.347 1035.29,414.983 L1035.29,395.154 L1023.77,399.545 M1025.13,388.311 L1035.29,384.404 L1035.29,370.154 L1025.13,374.061 L1025.13,388.311 "/>
<path class="Accidental" d="M893.724,396.811 L892.458,334.701 C892.458,333.722 893.224,333.233 894.755,333.233 C896.286,333.233 897.052,333.722 897.052,334.701 L896.271,368.592 C898.031,366.831 899.544,365.61 900.81,364.928 C902.075,364.246 903.799,363.904 905.981,363.904 C908.164,363.904 910.182,364.912 912.036,366.928 C913.89,368.943 914.817,371.451 914.817,374.451 C914.817,378.941 910.099,385.16 900.661,393.108 C897.151,396.295 895.328,397.889 895.192,397.889 L894.614,397.889 C894.021,397.889 893.724,397.529 893.724,396.811 M896.177,371.717 L895.88,393.889 C897.901,391.993 899.953,388.847 902.036,384.451 C904.119,380.055 905.161,376.295 905.161,373.17 C905.161,371.608 904.901,370.175 904.38,368.873 C903.859,367.571 903.044,366.92 901.935,366.92 C900.825,366.92 899.83,367.311 898.95,368.092 C898.07,368.873 897.146,370.081 896.177,371.717"/>
<path class="Accidental" d="M2649.53,446.811 L2648.27,384.701 C2648.27,383.722 2649.03,383.233 2650.56,383.233 C2652.09,383.233 2652.86,383.722 2652.86,384.701 L2652.08,418.592 C2653.84,416.831 2655.35,415.61 2656.62,414.928 C2657.88,414.246 2659.61,413.904 2661.79,413.904 C2663.97,413.904 2665.99,414.912 2667.84,416.928 C2669.7,418.943 2670.62,421.451 2670.62,424.451 C2670.62,428.941 2665.91,435.16 2656.47,443.108 C2652.96,446.295 2651.14,447.889 2651,447.889 L2650.42,447.889 C2649.83,447.889 2649.53,447.529 2649.53,446.811 M2651.98,421.717 L2651.69,443.889 C2653.71,441.993 2655.76,438.847 2657.84,434.451 C2659.93,430.055 2660.97,426.295 2660.97,423.17 C2660.97,421.608 2660.71,420.175 2660.19,418.873 C2659.67,417.571 2658.85,416.92 2657.74,416.92 C2656.63,416.92 2655.64,417.311 2654.76,418.092 C2653.88,418.873 2652.95,420.081 2651.98,421.717"/>
<path class="Accidental" d="M328.764,446.811 L327.498,384.701 C327.498,383.722 328.264,383.233 329.795,383.233 C331.326,383.233 332.092,383.722 332.092,384.701 L331.311,418.592 C333.071,416.831 334.584,415.61 335.85,414.928 C337.115,414.246 338.839,413.904 341.022,413.904 C343.204,413.904 345.222,414.912 347.076,416.928 C348.93,418.943 349.857,421.451 349.857,424.451 C349.857,428.941 345.139,435.16 335.701,443.108 C332.191,446.295 330.368,447.889 330.232,447.889 L329.654,447.889 C329.061,447.889 328.764,447.529 328.764,446.811 M331.217,421.717 L330.92,443.889 C332.941,441.993 334.993,438.847 337.076,434.451 C339.16,430.055 340.201,426.295 340.201,423.17 C340.201,421.608 339.941,420.175 339.42,418.873 C338.899,417.571 338.084,416.92 336.975,416.92 C335.865,416.92 334.87,417.311 333.99,418.092 C333.11,418.873 332.186,420.081 331.217,421.717"/>
<path class="Accidental" d="M452.424,434.311 L451.158,372.201 C451.158,371.222 451.924,370.733 453.455,370.733 C454.986,370.733 455.752,371.222 455.752,372.201 L454.97,406.092 C456.731,404.331 458.244,403.11 459.51,402.428 C460.775,401.746 462.499,401.404 464.681,401.404 C466.864,401.404 468.882,402.412 470.736,404.428 C472.59,406.443 473.517,408.951 473.517,411.951 C473.517,416.441 468.799,422.66 459.361,430.608 C455.851,433.795 454.028,435.389 453.892,435.389 L453.314,435.389 C452.72,435.389 452.424,435.029 452.424,434.311 M454.877,409.217 L454.58,431.389 C456.601,429.493 458.653,426.347 460.736,421.951 C462.819,417.555 463.861,413.795 463.861,410.67 C463.861,409.108 463.601,407.675 463.08,406.373 C462.559,405.071 461.744,404.42 460.635,404.42 C459.525,404.42 458.53,404.811 457.65,405.592 C456.77,406.373 455.845,407.581 454.877,409.217"/>
<path class="Accidental" d="M729.646,409.311 L728.38,347.201 C728.38,346.222 729.146,345.733 730.677,345.733 C732.208,345.733 732.974,346.222 732.974,347.201 L732.193,381.092 C733.953,379.331 735.466,378.11 736.732,377.428 C737.997,376.746 739.721,376.404 741.904,376.404 C744.086,376.404 746.104,377.412 747.958,379.428 C749.812,381.443 750.74,383.951 750.74,386.951 C750.74,391.441 746.021,397.66 736.583,405.608 C733.073,408.795 731.25,410.389 731.115,410.389 L730.536,410.389 C729.943,410.389 729.646,410.029 729.646,409.311 M732.099,384.217 L731.802,406.389 C733.823,404.493 735.875,401.347 737.958,396.951 C740.042,392.555 741.083,388.795 741.083,385.67 C741.083,384.108 740.823,382.675 740.302,381.373 C739.781,380.071 738.966,379.42 737.857,379.42 C736.747,379.42 735.753,379.811 734.872,380.592 C733.992,381.373 733.068,382.581 732.099,384.217"/>
<polyline class="Stem" fill="none" stroke="#000000" stroke-width="3.25" stroke-linejoin="bevel" points="665.705,411.933 665.705,329.232"/>
<polyline class="Stem" fill="none" stroke="#000000" stroke-width="3.25" stroke-linejoin="bevel" points="2709.25,424.433 2709.25,341.732"/>
<polyline class="Stem" fill="none" stroke="#000000" stroke-width="3.25" stroke-linejoin="bevel" points="2585.59,411.933 2585.59,329.232"/>
<polyline class="Stem" fill="none" stroke="#000000" stroke-width="3.25" stroke-linejoin="bevel" points="388.483,424.433 388.483,341.732"/>
<polyline class="Stem" fill="none" stroke="#000000" stroke-width="3.25" stroke-linejoin="bevel" points="2421.51,411.933 2421.51,329.232"/>
<polyline class="Stem" fill="none" stroke="#000000" stroke-width="3.25" stroke-linejoin="bevel" points="2297.85,386.933 2297.85,304.232"/>
<polyline class="Stem" fill="none" stroke="#000000" stroke-width="3.25" stroke-linejoin="bevel" points="512.142,411.933 512.142,329.232"/>
<polyline class="Stem" fill="none" stroke="#000000" stroke-width="3.25" stroke-linejoin="bevel" points="2133.77,374.433 2133.77,297.982"/>
<polyline class="Stem" fill="none" stroke="#000000" stroke-width="3.25" stroke-linejoin="bevel" points="2010.11,374.433 2010.11,297.982"/>
<polyline class="Stem" fill="none" stroke="#000000" stroke-width="3.25" stroke-linejoin="bevel" points="1825.08,359.132 1825.08,435.483"/>
<polyline class="Stem" fill="none" stroke="#000000" stroke-width="3.25" stroke-linejoin="bevel" points="953.442,374.433 953.442,297.982"/>
<polyline class="Stem" fill="none" stroke="#000000" stroke-width="3.25" stroke-linejoin="bevel" points="1077.1,374.433 1077.1,297.982"/>
<polyline class="Stem" fill="none" stroke="#000000" stroke-width="3.25" stroke-linejoin="bevel" points="1199.2,359.132 1199.2,435.483"/>
<polyline class="Stem" fill="none" stroke="#000000" stroke-width="3.25" stroke-linejoin="bevel" points="1322.86,346.632 1322.86,429.233"/>
<polyline class="Stem" fill="none" stroke="#000000" stroke-width="3.25" stroke-linejoin="bevel" points="789.365,386.933 789.365,304.232"/>
<polyline class="Stem" fill="none" stroke="#000000" stroke-width="3.25" stroke-linejoin="bevel" points="1701.42,346.632 1701.42,429.233"/>
<path class="Note" d="M1984.44,389.873 C1986.33,389.873 1990.28,387.92 1996.31,384.014 C2002.34,380.108 2005.89,377.488 2006.96,376.154 C2008.03,374.821 2008.57,373.634 2008.57,372.592 C2008.57,371.55 2008.14,370.623 2007.29,369.811 C2006.45,368.998 2005.47,368.592 2004.36,368.592 C2002.42,368.592 1998.43,370.561 1992.4,374.498 C1986.38,378.436 1982.84,381.055 1981.8,382.358 C1980.76,383.66 1980.24,384.831 1980.24,385.873 C1980.24,386.915 1980.65,387.842 1981.47,388.654 C1982.28,389.467 1983.28,389.873 1984.44,389.873 M2003.4,365.467 C2008.99,365.467 2011.79,367.873 2011.79,372.686 C2011.79,375.029 2011.1,377.748 2009.74,380.842 C2008.37,383.936 2006.55,386.295 2004.27,387.92 C1999.26,391.305 1992.98,392.998 1985.43,392.998 C1979.82,392.998 1977.02,390.592 1977.02,385.779 C1977.02,383.634 1977.69,380.964 1979.02,377.772 C1980.35,374.579 1982.19,372.17 1984.54,370.545 C1989.56,367.16 1995.84,365.467 2003.4,365.467"/>
<path class="Note" d="M1707.22,352.373 C1709.11,352.373 1713.06,350.42 1719.09,346.514 C1725.11,342.607 1728.66,339.988 1729.74,338.654 C1730.81,337.321 1731.35,336.134 1731.35,335.092 C1731.35,334.05 1730.92,333.123 1730.07,332.311 C1729.22,331.498 1728.25,331.092 1727.14,331.092 C1725.19,331.092 1721.21,333.061 1715.18,336.998 C1709.16,340.936 1705.62,343.555 1704.58,344.857 C1703.54,346.16 1703.02,347.331 1703.02,348.373 C1703.02,349.415 1703.43,350.342 1704.24,351.154 C1705.06,351.967 1706.05,352.373 1707.22,352.373 M1726.17,327.967 C1731.77,327.967 1734.56,330.373 1734.56,335.186 C1734.56,337.529 1733.88,340.248 1732.52,343.342 C1731.15,346.436 1729.33,348.795 1727.05,350.42 C1722.04,353.805 1715.76,355.498 1708.2,355.498 C1702.6,355.498 1699.8,353.092 1699.8,348.279 C1699.8,346.134 1700.47,343.464 1701.8,340.272 C1703.13,337.079 1704.97,334.67 1707.31,333.045 C1712.33,329.66 1718.62,327.967 1726.17,327.967"/>
<path class="Note" d="M1830.88,364.873 C1832.77,364.873 1836.72,362.92 1842.75,359.014 C1848.77,355.107 1852.32,352.488 1853.4,351.154 C1854.47,349.821 1855.01,348.634 1855.01,347.592 C1855.01,346.55 1854.58,345.623 1853.73,344.811 C1852.88,343.998 1851.91,343.592 1850.8,343.592 C1848.85,343.592 1844.87,345.561 1838.84,349.498 C1832.82,353.436 1829.28,356.055 1828.24,357.357 C1827.2,358.66 1826.68,359.831 1826.68,360.873 C1826.68,361.915 1827.09,362.842 1827.9,363.654 C1828.72,364.467 1829.71,364.873 1830.88,364.873 M1849.83,340.467 C1855.43,340.467 1858.22,342.873 1858.22,347.686 C1858.22,350.029 1857.54,352.748 1856.18,355.842 C1854.81,358.936 1852.99,361.295 1850.71,362.92 C1845.7,366.305 1839.42,367.998 1831.86,367.998 C1826.26,367.998 1823.46,365.592 1823.46,360.779 C1823.46,358.634 1824.13,355.964 1825.46,352.772 C1826.79,349.579 1828.63,347.17 1830.97,345.545 C1835.99,342.16 1842.28,340.467 1849.83,340.467"/>
<path class="Note" d="M2559.92,427.373 C2561.8,427.373 2565.76,425.42 2571.79,421.514 C2577.81,417.608 2581.36,414.988 2582.43,413.654 C2583.51,412.321 2584.04,411.134 2584.04,410.092 C2584.04,409.05 2583.62,408.123 2582.77,407.311 C2581.92,406.498 2580.94,406.092 2579.84,406.092 C2577.89,406.092 2573.91,408.061 2567.88,411.998 C2561.85,415.936 2558.32,418.555 2557.28,419.858 C2556.24,421.16 2555.71,422.331 2555.71,423.373 C2555.71,424.415 2556.12,425.342 2556.94,426.154 C2557.76,426.967 2558.75,427.373 2559.92,427.373 M2578.87,402.967 C2584.46,402.967 2587.26,405.373 2587.26,410.186 C2587.26,412.529 2586.58,415.248 2585.21,418.342 C2583.85,421.436 2582.03,423.795 2579.75,425.42 C2574.74,428.805 2568.45,430.498 2560.9,430.498 C2555.3,430.498 2552.5,428.092 2552.5,423.279 C2552.5,421.134 2553.16,418.464 2554.5,415.272 C2555.83,412.079 2557.67,409.67 2560.01,408.045 C2565.03,404.66 2571.32,402.967 2578.87,402.967"/>
<path class="Note" d="M1204.99,364.873 C1206.88,364.873 1210.83,362.92 1216.86,359.014 C1222.89,355.107 1226.44,352.488 1227.51,351.154 C1228.58,349.821 1229.12,348.634 1229.12,347.592 C1229.12,346.55 1228.69,345.623 1227.84,344.811 C1227,343.998 1226.02,343.592 1224.91,343.592 C1222.97,343.592 1218.98,345.561 1212.95,349.498 C1206.93,353.436 1203.39,356.055 1202.35,357.357 C1201.31,358.66 1200.79,359.831 1200.79,360.873 C1200.79,361.915 1201.2,362.842 1202.02,363.654 C1202.83,364.467 1203.83,364.873 1204.99,364.873 M1223.95,340.467 C1229.54,340.467 1232.34,342.873 1232.34,347.686 C1232.34,350.029 1231.65,352.748 1230.29,355.842 C1228.93,358.936 1227.1,361.295 1224.82,362.92 C1219.81,366.305 1213.53,367.998 1205.98,367.998 C1200.37,367.998 1197.57,365.592 1197.57,360.779 C1197.57,358.634 1198.24,355.964 1199.57,352.772 C1200.9,349.579 1202.74,347.17 1205.09,345.545 C1210.11,342.16 1216.39,340.467 1223.95,340.467"/>
<path class="Note" d="M640.033,427.373 C641.918,427.373 645.874,425.42 651.9,421.514 C657.926,417.608 661.475,414.988 662.548,413.654 C663.621,412.321 664.158,411.134 664.158,410.092 C664.158,409.05 663.733,408.123 662.884,407.311 C662.035,406.498 661.059,406.092 659.955,406.092 C658.007,406.092 654.02,408.061 647.994,411.998 C641.968,415.936 638.434,418.555 637.392,419.858 C636.35,421.16 635.83,422.331 635.83,423.373 C635.83,424.415 636.239,425.342 637.056,426.154 C637.874,426.967 638.866,427.373 640.033,427.373 M658.986,402.967 C664.58,402.967 667.377,405.373 667.377,410.186 C667.377,412.529 666.694,415.248 665.33,418.342 C663.965,421.436 662.142,423.795 659.861,425.42 C654.85,428.805 648.569,430.498 641.017,430.498 C635.413,430.498 632.611,428.092 632.611,423.279 C632.611,421.134 633.278,418.464 634.611,415.272 C635.944,412.079 637.783,409.67 640.127,408.045 C645.147,404.66 651.434,402.967 658.986,402.967"/>
<path class="Note" d="M362.811,439.873 C364.696,439.873 368.652,437.92 374.678,434.014 C380.704,430.108 384.253,427.488 385.326,426.154 C386.399,424.821 386.936,423.634 386.936,422.592 C386.936,421.55 386.511,420.623 385.662,419.811 C384.813,418.998 383.837,418.592 382.732,418.592 C380.785,418.592 376.798,420.561 370.772,424.498 C364.746,428.436 361.212,431.055 360.17,432.358 C359.128,433.66 358.607,434.831 358.607,435.873 C358.607,436.915 359.016,437.842 359.834,438.654 C360.652,439.467 361.644,439.873 362.811,439.873 M381.764,415.467 C387.357,415.467 390.154,417.873 390.154,422.686 C390.154,425.029 389.472,427.748 388.107,430.842 C386.743,433.936 384.92,436.295 382.639,437.92 C377.628,441.305 371.347,442.998 363.795,442.998 C358.191,442.998 355.389,440.592 355.389,435.779 C355.389,433.634 356.055,430.964 357.389,427.772 C358.722,424.579 360.561,422.17 362.904,420.545 C367.925,417.16 374.212,415.467 381.764,415.467"/>
<path class="Note" d="M2395.84,427.373 C2397.73,427.373 2401.68,425.42 2407.71,421.514 C2413.73,417.608 2417.28,414.988 2418.36,413.654 C2419.43,412.321 2419.97,411.134 2419.97,410.092 C2419.97,409.05 2419.54,408.123 2418.69,407.311 C2417.84,406.498 2416.87,406.092 2415.76,406.092 C2413.81,406.092 2409.83,408.061 2403.8,411.998 C2397.78,415.936 2394.24,418.555 2393.2,419.858 C2392.16,421.16 2391.64,422.331 2391.64,423.373 C2391.64,424.415 2392.05,425.342 2392.86,426.154 C2393.68,426.967 2394.67,427.373 2395.84,427.373 M2414.79,402.967 C2420.39,402.967 2423.18,405.373 2423.18,410.186 C2423.18,412.529 2422.5,415.248 2421.14,418.342 C2419.77,421.436 2417.95,423.795 2415.67,425.42 C2410.66,428.805 2404.38,430.498 2396.82,430.498 C2391.22,430.498 2388.42,428.092 2388.42,423.279 C2388.42,421.134 2389.08,418.464 2390.42,415.272 C2391.75,412.079 2393.59,409.67 2395.93,408.045 C2400.95,404.66 2407.24,402.967 2414.79,402.967"/>
<path class="Note" d="M1328.65,352.373 C1330.54,352.373 1334.49,350.42 1340.52,346.514 C1346.55,342.607 1350.1,339.988 1351.17,338.654 C1352.24,337.321 1352.78,336.134 1352.78,335.092 C1352.78,334.05 1352.35,333.123 1351.5,332.311 C1350.66,331.498 1349.68,331.092 1348.57,331.092 C1346.63,331.092 1342.64,333.061 1336.61,336.998 C1330.59,340.936 1327.05,343.555 1326.01,344.857 C1324.97,346.16 1324.45,347.331 1324.45,348.373 C1324.45,349.415 1324.86,350.342 1325.68,351.154 C1326.49,351.967 1327.49,352.373 1328.65,352.373 M1347.61,327.967 C1353.2,327.967 1356,330.373 1356,335.186 C1356,337.529 1355.31,340.248 1353.95,343.342 C1352.58,346.436 1350.76,348.795 1348.48,350.42 C1343.47,353.805 1337.19,355.498 1329.64,355.498 C1324.03,355.498 1321.23,353.092 1321.23,348.279 C1321.23,346.134 1321.9,343.464 1323.23,340.272 C1324.56,337.079 1326.4,334.67 1328.75,333.045 C1333.77,329.66 1340.05,327.967 1347.61,327.967"/>
<path class="Note" d="M2272.18,402.373 C2274.07,402.373 2278.02,400.42 2284.05,396.514 C2290.07,392.608 2293.62,389.988 2294.7,388.654 C2295.77,387.321 2296.31,386.134 2296.31,385.092 C2296.31,384.05 2295.88,383.123 2295.03,382.311 C2294.18,381.498 2293.21,381.092 2292.1,381.092 C2290.15,381.092 2286.17,383.061 2280.14,386.998 C2274.12,390.936 2270.58,393.555 2269.54,394.858 C2268.5,396.16 2267.98,397.331 2267.98,398.373 C2267.98,399.415 2268.39,400.342 2269.2,401.154 C2270.02,401.967 2271.01,402.373 2272.18,402.373 M2291.13,377.967 C2296.73,377.967 2299.52,380.373 2299.52,385.186 C2299.52,387.529 2298.84,390.248 2297.48,393.342 C2296.11,396.436 2294.29,398.795 2292.01,400.42 C2287,403.805 2280.72,405.498 2273.16,405.498 C2267.56,405.498 2264.76,403.092 2264.76,398.279 C2264.76,396.134 2265.43,393.464 2266.76,390.272 C2268.09,387.079 2269.93,384.67 2272.27,383.045 C2277.29,379.66 2283.58,377.967 2291.13,377.967"/>
<path class="Note" d="M927.771,389.873 C929.656,389.873 933.612,387.92 939.638,384.014 C945.664,380.108 949.213,377.488 950.286,376.154 C951.359,374.821 951.896,373.634 951.896,372.592 C951.896,371.55 951.471,370.623 950.622,369.811 C949.773,368.998 948.797,368.592 947.692,368.592 C945.745,368.592 941.758,370.561 935.731,374.498 C929.705,378.436 926.172,381.055 925.13,382.358 C924.088,383.66 923.567,384.831 923.567,385.873 C923.567,386.915 923.976,387.842 924.794,388.654 C925.612,389.467 926.604,389.873 927.771,389.873 M946.724,365.467 C952.317,365.467 955.114,367.873 955.114,372.686 C955.114,375.029 954.432,377.748 953.067,380.842 C951.703,383.936 949.88,386.295 947.599,387.92 C942.588,391.305 936.307,392.998 928.755,392.998 C923.151,392.998 920.349,390.592 920.349,385.779 C920.349,383.634 921.015,380.964 922.349,377.772 C923.682,374.579 925.521,372.17 927.864,370.545 C932.885,367.16 939.172,365.467 946.724,365.467"/>
<path class="Note" d="M1051.43,389.873 C1053.32,389.873 1057.27,387.92 1063.3,384.014 C1069.32,380.108 1072.87,377.488 1073.95,376.154 C1075.02,374.821 1075.56,373.634 1075.56,372.592 C1075.56,371.55 1075.13,370.623 1074.28,369.811 C1073.43,368.998 1072.46,368.592 1071.35,368.592 C1069.4,368.592 1065.42,370.561 1059.39,374.498 C1053.37,378.436 1049.83,381.055 1048.79,382.358 C1047.75,383.66 1047.23,384.831 1047.23,385.873 C1047.23,386.915 1047.64,387.842 1048.45,388.654 C1049.27,389.467 1050.26,389.873 1051.43,389.873 M1070.38,365.467 C1075.98,365.467 1078.77,367.873 1078.77,372.686 C1078.77,375.029 1078.09,377.748 1076.73,380.842 C1075.36,383.936 1073.54,386.295 1071.26,387.92 C1066.25,391.305 1059.97,392.998 1052.41,392.998 C1046.81,392.998 1044.01,390.592 1044.01,385.779 C1044.01,383.634 1044.68,380.964 1046.01,377.772 C1047.34,374.579 1049.18,372.17 1051.52,370.545 C1056.55,367.16 1062.83,365.467 1070.38,365.467"/>
<path class="Note" d="M486.471,427.373 C488.356,427.373 492.312,425.42 498.338,421.514 C504.364,417.608 507.913,414.988 508.986,413.654 C510.059,412.321 510.596,411.134 510.596,410.092 C510.596,409.05 510.171,408.123 509.322,407.311 C508.473,406.498 507.497,406.092 506.392,406.092 C504.444,406.092 500.457,408.061 494.431,411.998 C488.405,415.936 484.872,418.555 483.83,419.858 C482.788,421.16 482.267,422.331 482.267,423.373 C482.267,424.415 482.676,425.342 483.494,426.154 C484.312,426.967 485.304,427.373 486.471,427.373 M505.424,402.967 C511.017,402.967 513.814,405.373 513.814,410.186 C513.814,412.529 513.132,415.248 511.767,418.342 C510.403,421.436 508.58,423.795 506.299,425.42 C501.288,428.805 495.007,430.498 487.455,430.498 C481.851,430.498 479.049,428.092 479.049,423.279 C479.049,421.134 479.715,418.464 481.049,415.272 C482.382,412.079 484.221,409.67 486.564,408.045 C491.585,404.66 497.872,402.967 505.424,402.967"/>
<path class="Note" d="M2683.58,439.873 C2685.46,439.873 2689.42,437.92 2695.45,434.014 C2701.47,430.108 2705.02,427.488 2706.09,426.154 C2707.17,424.821 2707.7,423.634 2707.7,422.592 C2707.7,421.55 2707.28,420.623 2706.43,419.811 C2705.58,418.998 2704.6,418.592 2703.5,418.592 C2701.55,418.592 2697.56,420.561 2691.54,424.498 C2685.51,428.436 2681.98,431.055 2680.94,432.358 C2679.9,433.66 2679.37,434.831 2679.37,435.873 C2679.37,436.915 2679.78,437.842 2680.6,438.654 C2681.42,439.467 2682.41,439.873 2683.58,439.873 M2702.53,415.467 C2708.12,415.467 2710.92,417.873 2710.92,422.686 C2710.92,425.029 2710.24,427.748 2708.87,430.842 C2707.51,433.936 2705.69,436.295 2703.41,437.92 C2698.4,441.305 2692.11,442.998 2684.56,442.998 C2678.96,442.998 2676.16,440.592 2676.16,435.779 C2676.16,433.634 2676.82,430.964 2678.16,427.772 C2679.49,424.579 2681.33,422.17 2683.67,420.545 C2688.69,417.16 2694.98,415.467 2702.53,415.467"/>
<path class="Note" d="M2108.1,389.873 C2109.99,389.873 2113.94,387.92 2119.97,384.014 C2126,380.108 2129.55,377.488 2130.62,376.154 C2131.69,374.821 2132.23,373.634 2132.23,372.592 C2132.23,371.55 2131.8,370.623 2130.95,369.811 C2130.11,368.998 2129.13,368.592 2128.02,368.592 C2126.08,368.592 2122.09,370.561 2116.06,374.498 C2110.04,378.436 2106.5,381.055 2105.46,382.358 C2104.42,383.66 2103.9,384.831 2103.9,385.873 C2103.9,386.915 2104.31,387.842 2105.13,388.654 C2105.94,389.467 2106.94,389.873 2108.1,389.873 M2127.06,365.467 C2132.65,365.467 2135.45,367.873 2135.45,372.686 C2135.45,375.029 2134.76,377.748 2133.4,380.842 C2132.03,383.936 2130.21,386.295 2127.93,387.92 C2122.92,391.305 2116.64,392.998 2109.09,392.998 C2103.48,392.998 2100.68,390.592 2100.68,385.779 C2100.68,383.634 2101.35,380.964 2102.68,377.772 C2104.01,374.579 2105.85,372.17 2108.2,370.545 C2113.22,367.16 2119.5,365.467 2127.06,365.467"/>
<path class="Note" d="M763.693,402.373 C765.578,402.373 769.534,400.42 775.56,396.514 C781.586,392.608 785.135,389.988 786.208,388.654 C787.281,387.321 787.818,386.134 787.818,385.092 C787.818,384.05 787.393,383.123 786.544,382.311 C785.695,381.498 784.719,381.092 783.615,381.092 C781.667,381.092 777.68,383.061 771.654,386.998 C765.628,390.936 762.094,393.555 761.052,394.858 C760.01,396.16 759.49,397.331 759.49,398.373 C759.49,399.415 759.898,400.342 760.716,401.154 C761.534,401.967 762.526,402.373 763.693,402.373 M782.646,377.967 C788.24,377.967 791.036,380.373 791.036,385.186 C791.036,387.529 790.354,390.248 788.99,393.342 C787.625,396.436 785.802,398.795 783.521,400.42 C778.51,403.805 772.229,405.498 764.677,405.498 C759.073,405.498 756.271,403.092 756.271,398.279 C756.271,396.134 756.937,393.464 758.271,390.272 C759.604,387.079 761.443,384.67 763.786,383.045 C768.807,379.66 775.094,377.967 782.646,377.967"/>
<path class="Clef" d="M203.623,423.858 L203.623,421.717 C203.56,420.613 203.399,418.889 203.139,416.545 C199.889,417.066 196.993,417.326 194.451,417.326 C185.337,417.326 177.605,413.727 171.256,406.529 C164.907,399.331 161.732,390.753 161.732,380.795 C161.732,378.128 162.253,374.923 163.295,371.178 C164.337,367.433 165.297,364.925 166.178,363.654 C167.058,362.384 168.378,360.154 170.139,356.967 C170.659,355.988 172.352,353.837 175.217,350.514 C175.738,349.805 176.193,349.222 176.584,348.764 C176.975,348.305 177.607,347.49 178.482,346.318 C179.357,345.147 180.3,344.055 181.31,343.045 C182.321,342.035 183.217,341.058 183.998,340.115 C184.779,339.173 185.498,338.378 186.154,337.733 C183.81,329.983 182.378,324.024 181.857,319.858 C181.337,315.691 181.076,310.579 181.076,304.522 C181.076,298.464 182.378,292.962 184.982,288.014 C187.514,282.878 191.06,278.68 195.623,275.42 C195.883,275.222 196.225,275.123 196.646,275.123 C197.068,275.123 197.378,275.222 197.576,275.42 C201.087,279.649 204.128,285.149 206.701,291.92 C209.274,298.691 210.56,305.024 210.56,310.92 C210.56,316.816 209.066,322.498 206.076,327.967 C202.691,333.759 198.326,339.748 192.982,345.936 C194.347,350.227 196.17,356.962 198.451,366.139 L199.045,366.139 C199.305,366.076 199.529,366.045 199.717,366.045 C207.081,366.045 213.089,368.634 217.74,373.811 C222.391,378.988 224.717,384.962 224.717,391.733 C224.717,400.128 221.238,406.899 214.279,412.045 C212.258,413.545 209.878,414.717 207.139,415.561 C207.472,419.79 207.639,422.605 207.639,424.006 C207.639,425.407 207.571,427.899 207.435,431.483 C207.373,437.597 205.29,442.837 201.185,447.201 C197.081,451.566 192.394,453.748 187.123,453.748 C181.852,453.748 177.36,451.876 173.646,448.131 C169.933,444.386 168.076,439.847 168.076,434.514 C168.076,431.712 169.154,429.331 171.31,427.373 C173.519,425.425 176.006,424.451 178.771,424.451 C181.537,424.451 183.8,425.462 185.56,427.483 C187.383,429.368 188.295,431.644 188.295,434.311 C188.295,436.977 187.383,439.222 185.56,441.045 C183.738,442.868 181.555,443.779 179.014,443.779 C177.972,443.779 176.967,443.587 175.998,443.201 C178.863,447.43 182.54,449.545 187.029,449.545 C191.519,449.545 195.36,447.691 198.553,443.983 C201.745,440.274 203.342,435.91 203.342,430.889 L203.623,423.858 M206.748,411.561 C210.133,410.321 212.821,408.123 214.81,404.967 C216.8,401.811 217.795,398.67 217.795,395.545 C217.795,390.92 216.199,386.785 213.006,383.139 C209.813,379.493 205.774,377.441 200.889,376.983 C203.691,390.722 205.644,402.248 206.748,411.561 M168.967,388.998 C168.967,395.446 171.537,401.079 176.678,405.897 C181.818,410.714 187.842,413.123 194.748,413.123 C197.477,413.123 200.144,412.925 202.748,412.529 C201.706,402.634 199.654,390.785 196.592,376.983 C192.758,377.378 189.782,378.699 187.662,380.943 C185.542,383.188 184.482,385.743 184.482,388.608 C184.482,393.555 187.123,397.561 192.404,400.623 C192.852,400.884 193.076,401.324 193.076,401.943 C193.076,402.563 192.865,403.1 192.443,403.553 C192.021,404.006 191.649,404.233 191.326,404.233 C191.003,404.233 190.581,404.17 190.06,404.045 C182.435,399.878 178.623,393.592 178.623,385.186 C178.623,381.217 180.024,377.41 182.826,373.764 C185.753,370.118 189.56,367.774 194.248,366.733 C192.425,359.441 190.93,353.743 189.764,349.639 C180.847,359.67 175.31,367.092 173.154,371.904 C170.363,378.154 168.967,383.852 168.967,388.998 M201.576,289.686 C196.691,292.092 192.834,295.574 190.006,300.131 C187.178,304.688 185.764,309.472 185.764,314.483 C185.764,319.493 186.935,325.972 189.279,333.92 C193.967,328.253 197.514,322.946 199.92,317.998 C202.326,313.05 203.529,308.152 203.529,303.303 C203.529,298.454 202.878,293.915 201.576,289.686"/>
<path class="TimeSig" d="M273.021,317.912 C274.516,317.912 275.949,317.686 277.318,317.232 C278.688,316.779 279.665,316.553 280.248,316.553 C280.831,316.553 281.222,316.907 281.42,317.615 C281.42,317.688 281.352,317.886 281.217,318.209 L252.811,351.225 L269.498,351.225 L269.498,338.131 C269.498,336.506 270.446,335.334 272.342,334.615 C274.29,333.897 276.503,331.001 278.982,325.928 C279.17,325.532 279.462,325.334 279.857,325.334 C280.639,325.334 281.092,325.792 281.217,326.709 L281.217,351.225 L288.357,351.225 C289.264,351.225 289.751,351.712 289.818,352.686 C289.886,353.66 289.399,354.147 288.357,354.147 L281.217,354.147 L281.217,354.928 C281.217,357.532 281.868,359.746 283.17,361.568 C284.67,363.391 286.43,364.303 288.451,364.303 C289.232,364.303 289.623,364.693 289.623,365.475 C289.623,366.256 289.087,366.647 288.014,366.647 C286.941,366.647 284.938,366.436 282.006,366.014 C279.074,365.592 276.811,365.381 275.217,365.381 C273.623,365.381 271.41,365.592 268.576,366.014 C265.743,366.436 263.613,366.647 262.186,366.647 C261.404,366.647 261.014,366.256 261.014,365.475 C261.014,364.693 261.404,364.303 262.186,364.303 C264.196,364.303 265.951,363.391 267.451,361.568 C268.816,359.683 269.498,357.469 269.498,354.928 L269.498,354.147 L252.811,354.147 C251.956,354.147 251.219,353.92 250.6,353.467 C249.98,353.014 249.67,352.592 249.67,352.201 C249.67,351.811 250.485,350.639 252.115,348.686 C253.745,346.732 256.074,342.972 259.1,337.404 C262.126,331.837 263.639,325.438 263.639,318.209 C263.639,317.167 264.097,316.647 265.014,316.647 C265.212,316.647 265.521,316.712 265.943,316.842 C266.365,316.972 267.277,317.183 268.678,317.475 C270.079,317.766 271.527,317.912 273.021,317.912"/>
<path class="TimeSig" d="M273.021,368.084 C274.516,368.084 275.949,367.858 277.318,367.404 C278.688,366.951 279.665,366.725 280.248,366.725 C280.831,366.725 281.222,367.079 281.42,367.787 C281.42,367.86 281.352,368.058 281.217,368.381 L252.811,401.397 L269.498,401.397 L269.498,388.303 C269.498,386.678 270.446,385.506 272.342,384.787 C274.29,384.068 276.503,381.173 278.982,376.1 C279.17,375.704 279.462,375.506 279.857,375.506 C280.639,375.506 281.092,375.964 281.217,376.881 L281.217,401.397 L288.357,401.397 C289.264,401.397 289.751,401.884 289.818,402.858 C289.886,403.831 289.399,404.318 288.357,404.318 L281.217,404.318 L281.217,405.1 C281.217,407.704 281.868,409.917 283.17,411.74 C284.67,413.563 286.43,414.475 288.451,414.475 C289.232,414.475 289.623,414.865 289.623,415.647 C289.623,416.428 289.087,416.818 288.014,416.818 C286.941,416.818 284.938,416.608 282.006,416.186 C279.074,415.764 276.811,415.553 275.217,415.553 C273.623,415.553 271.41,415.764 268.576,416.186 C265.743,416.608 263.613,416.818 262.186,416.818 C261.404,416.818 261.014,416.428 261.014,415.647 C261.014,414.865 261.404,414.475 262.186,414.475 C264.196,414.475 265.951,413.563 267.451,411.74 C268.816,409.855 269.498,407.641 269.498,405.1 L269.498,404.318 L252.811,404.318 C251.956,404.318 251.219,404.092 250.6,403.639 C249.98,403.186 249.67,402.764 249.67,402.373 C249.67,401.983 250.485,400.811 252.115,398.858 C253.745,396.904 256.074,393.144 259.1,387.576 C262.126,382.009 263.639,375.61 263.639,368.381 C263.639,367.339 264.097,366.818 265.014,366.818 C265.212,366.818 265.521,366.884 265.943,367.014 C266.365,367.144 267.277,367.355 268.678,367.647 C270.079,367.938 271.527,368.084 273.021,368.084"/>
<path class="Rest" d="M1572.82,357.357 L1537.27,357.357 C1536.62,357.357 1536.29,357.035 1536.29,356.389 L1536.29,342.717 C1536.29,342.061 1536.62,341.732 1537.27,341.732 L1572.82,341.732 C1573.46,341.732 1573.79,342.061 1573.79,342.717 L1573.79,356.389 C1573.79,357.035 1573.46,357.357 1572.82,357.357"/>
</svg>
