<?xml version="1.0" encoding="UTF-8" standalone="no"?>
<svg width="2977.2px" height="4208.4px" viewBox="0 0 2977.2 4208.4"
 xmlns="http://www.w3.org/2000/svg" xmlns:xlink="http://www.w3.org/1999/xlink" version="1.2" baseProfile="tiny">
<title>F_Harmonic_Minor.mscx</title>
<desc>Generated by MuseScore Studio 4.3.1</desc>
<path class="" fill="#ffffff" fill-rule="evenodd" d="M0,0 L2977.2,0 L2977.2,4208.4 L0,4208.4 L0,0 "/>
<polyline class="StaffLines" fill="none" stroke="#000000" stroke-width="2.00" stroke-linejoin="bevel" points="141.732,316.732 2835.47,316.732"/>
<polyline class="StaffLines" fill="none" stroke="#000000" stroke-width="2.00" stroke-linejoin="bevel" points="141.732,341.732 2835.47,341.732"/>
<polyline class="StaffLines" fill="none" stroke="#000000" stroke-width="2.00" stroke-linejoin="bevel" points="141.732,366.733 2835.47,366.733"/>
<polyline class="StaffLines" fill="none" stroke="#000000" stroke-width="2.00" stroke-linejoin="bevel" points="141.732,391.733 2835.47,391.733"/>
<polyline class="StaffLines" fill="none" stroke="#000000" stroke-width="2.00" stroke-linejoin="bevel" points="141.732,416.733 2835.47,416.733"/>
<polyline class="BarLine" fill="none" stroke="#000000" stroke-width="4.00" stroke-linejoin="bevel" points="1163.39,315.732 1163.39,417.733"/>
<polyline class="BarLine" fill="none" stroke="#000000" stroke-width="4.00" stroke-linejoin="bevel" points="2802.72,315.732 2802.72,417.733"/>
<polyline class="BarLine" fill="none" stroke="#000000" stroke-width="12.50" stroke-linejoin="bevel" points="2829.22,315.732 2829.22,417.733"/>
<polyline class="BarLine" fill="none" stroke="#000000" stroke-width="4.00" stroke-linejoin="bevel" points="883.087,315.732 883.087,417.733"/>
<polyline class="BarLine" fill="none" stroke="#000000" stroke-width="4.00" stroke-linejoin="bevel" points="1940.79,315.732 1940.79,417.733"/>
<polyline class="BarLine" fill="none" stroke="#000000" stroke-width="4.00" stroke-linejoin="bevel" points="2522.42,315.732 2522.42,417.733"/>
<polyline class="BarLine" fill="none" stroke="#000000" stroke-width="4.00" stroke-linejoin="bevel" points="592.271,315.732 592.271,417.733"/>
<polyline class="BarLine" fill="none" stroke="#000000" stroke-width="4.00" stroke-linejoin="bevel" points="1443.69,315.732 1443.69,417.733"/>
<polyline class="BarLine" fill="none" stroke="#000000" stroke-width="4.00" stroke-linejoin="bevel" points="2231.6,315.732 2231.6,417.733"/>
<polyline class="BarLine" fill="none" stroke="#000000" stroke-width="4.00" stroke-linejoin="bevel" points="1660.49,315.732 1660.49,417.733"/>
<path class="Accidental" d="M1951.68,359.311 L1950.41,297.201 C1950.41,296.222 1951.18,295.732 1952.71,295.732 C1954.24,295.732 1955,296.222 1955,297.201 L1954.22,331.092 C1955.98,329.331 1957.5,328.11 1958.76,327.428 C1960.03,326.746 1961.75,326.404 1963.93,326.404 C1966.12,326.404 1968.14,327.412 1969.99,329.428 C1971.84,331.443 1972.77,333.951 1972.77,336.951 C1972.77,341.441 1968.05,347.66 1958.61,355.607 C1955.1,358.795 1953.28,360.389 1953.15,360.389 L1952.57,360.389 C1951.97,360.389 1951.68,360.029 1951.68,359.311 M1954.13,334.217 L1953.83,356.389 C1955.85,354.493 1957.91,351.347 1959.99,346.951 C1962.07,342.555 1963.11,338.795 1963.11,335.67 C1963.11,334.107 1962.85,332.675 1962.33,331.373 C1961.81,330.071 1961,329.42 1959.89,329.42 C1958.78,329.42 1957.78,329.811 1956.9,330.592 C1956.02,331.373 1955.1,332.581 1954.13,334.217"/>
<path class="Accidental" d="M1008.66,359.311 L1007.4,297.201 C1007.4,296.222 1008.16,295.732 1009.69,295.732 C1011.22,295.732 1011.99,296.222 1011.99,297.201 L1011.21,331.092 C1012.97,329.331 1014.48,328.11 1015.75,327.428 C1017.01,326.746 1018.74,326.404 1020.92,326.404 C1023.1,326.404 1025.12,327.412 1026.97,329.428 C1028.83,331.443 1029.75,333.951 1029.75,336.951 C1029.75,341.441 1025.04,347.66 1015.6,355.607 C1012.09,358.795 1010.27,360.389 1010.13,360.389 L1009.55,360.389 C1008.96,360.389 1008.66,360.029 1008.66,359.311 M1011.11,334.217 L1010.82,356.389 C1012.84,354.493 1014.89,351.347 1016.97,346.951 C1019.06,342.555 1020.1,338.795 1020.1,335.67 C1020.1,334.107 1019.84,332.675 1019.32,331.373 C1018.8,330.071 1017.98,329.42 1016.87,329.42 C1015.76,329.42 1014.77,329.811 1013.89,330.592 C1013.01,331.373 1012.08,332.581 1011.11,334.217"/>
<path class="Accidental" d="M2242.49,384.311 L2241.23,322.201 C2241.23,321.222 2241.99,320.733 2243.52,320.733 C2245.06,320.733 2245.82,321.222 2245.82,322.201 L2245.04,356.092 C2246.8,354.331 2248.31,353.11 2249.58,352.428 C2250.84,351.746 2252.57,351.404 2254.75,351.404 C2256.93,351.404 2258.95,352.412 2260.81,354.428 C2262.66,356.443 2263.59,358.951 2263.59,361.951 C2263.59,366.441 2258.87,372.66 2249.43,380.608 C2245.92,383.795 2244.1,385.389 2243.96,385.389 L2243.38,385.389 C2242.79,385.389 2242.49,385.029 2242.49,384.311 M2244.95,359.217 L2244.65,381.389 C2246.67,379.493 2248.72,376.347 2250.81,371.951 C2252.89,367.555 2253.93,363.795 2253.93,360.67 C2253.93,359.108 2253.67,357.675 2253.15,356.373 C2252.63,355.071 2251.81,354.42 2250.7,354.42 C2249.59,354.42 2248.6,354.811 2247.72,355.592 C2246.84,356.373 2245.91,357.581 2244.95,359.217"/>
<path class="Accidental" d="M728.361,384.311 L727.095,322.201 C727.095,321.222 727.861,320.733 729.392,320.733 C730.923,320.733 731.689,321.222 731.689,322.201 L730.907,356.092 C732.668,354.331 734.181,353.11 735.447,352.428 C736.712,351.746 738.436,351.404 740.618,351.404 C742.801,351.404 744.819,352.412 746.673,354.428 C748.527,356.443 749.454,358.951 749.454,361.951 C749.454,366.441 744.736,372.66 735.298,380.608 C731.788,383.795 729.965,385.389 729.829,385.389 L729.251,385.389 C728.657,385.389 728.361,385.029 728.361,384.311 M730.814,359.217 L730.517,381.389 C732.538,379.493 734.59,376.347 736.673,371.951 C738.756,367.555 739.798,363.795 739.798,360.67 C739.798,359.108 739.538,357.675 739.017,356.373 C738.496,355.071 737.681,354.42 736.572,354.42 C735.462,354.42 734.467,354.811 733.587,355.592 C732.707,356.373 731.782,357.581 730.814,359.217"/>
<path class="Accidental" d="M2367.69,396.811 L2366.43,334.701 C2366.43,333.722 2367.19,333.233 2368.72,333.233 C2370.25,333.233 2371.02,333.722 2371.02,334.701 L2370.24,368.592 C2372,366.831 2373.51,365.61 2374.78,364.928 C2376.04,364.246 2377.77,363.904 2379.95,363.904 C2382.13,363.904 2384.15,364.912 2386,366.928 C2387.86,368.943 2388.79,371.451 2388.79,374.451 C2388.79,378.941 2384.07,385.16 2374.63,393.108 C2371.12,396.295 2369.3,397.889 2369.16,397.889 L2368.58,397.889 C2367.99,397.889 2367.69,397.529 2367.69,396.811 M2370.14,371.717 L2369.85,393.889 C2371.87,391.993 2373.92,388.847 2376,384.451 C2378.09,380.055 2379.13,376.295 2379.13,373.17 C2379.13,371.608 2378.87,370.175 2378.35,368.873 C2377.83,367.571 2377.01,366.92 2375.9,366.92 C2374.79,366.92 2373.8,367.311 2372.92,368.092 C2372.04,368.873 2371.11,370.081 2370.14,371.717"/>
<path class="Accidental" d="M603.162,396.811 L601.896,334.701 C601.896,333.722 602.662,333.233 604.193,333.233 C605.724,333.233 606.49,333.722 606.49,334.701 L605.709,368.592 C607.469,366.831 608.982,365.61 610.248,364.928 C611.513,364.246 613.237,363.904 615.419,363.904 C617.602,363.904 619.62,364.912 621.474,366.928 C623.328,368.943 624.255,371.451 624.255,374.451 C624.255,378.941 619.537,385.16 610.099,393.108 C606.589,396.295 604.766,397.889 604.63,397.889 L604.052,397.889 C603.459,397.889 603.162,397.529 603.162,396.811 M605.615,371.717 L605.318,393.889 C607.339,391.993 609.391,388.847 611.474,384.451 C613.557,380.055 614.599,376.295 614.599,373.17 C614.599,371.608 614.339,370.175 613.818,368.873 C613.297,367.571 612.482,366.92 611.373,366.92 C610.263,366.92 609.268,367.311 608.388,368.092 C607.508,368.873 606.584,370.081 605.615,371.717"/>
<polyline class="Stem" fill="none" stroke="#000000" stroke-width="3.25" stroke-linejoin="bevel" points="756.611,371.633 756.611,441.733"/>
<polyline class="Stem" fill="none" stroke="#000000" stroke-width="3.25" stroke-linejoin="bevel" points="2105.13,359.132 2105.13,435.483"/>
<polyline class="Stem" fill="none" stroke="#000000" stroke-width="3.25" stroke-linejoin="bevel" points="2582.51,386.933 2582.51,304.232"/>
<polyline class="Stem" fill="none" stroke="#000000" stroke-width="3.25" stroke-linejoin="bevel" points="1979.93,346.632 1979.93,429.233"/>
<polyline class="Stem" fill="none" stroke="#000000" stroke-width="3.25" stroke-linejoin="bevel" points="372.065,399.433 372.065,316.732"/>
<polyline class="Stem" fill="none" stroke="#000000" stroke-width="3.25" stroke-linejoin="bevel" points="497.263,386.933 497.263,304.232"/>
<polyline class="Stem" fill="none" stroke="#000000" stroke-width="3.25" stroke-linejoin="bevel" points="662.88,374.433 662.88,297.982"/>
<polyline class="Stem" fill="none" stroke="#000000" stroke-width="3.25" stroke-linejoin="bevel" points="1814.31,334.132 1814.31,416.733"/>
<polyline class="Stem" fill="none" stroke="#000000" stroke-width="3.25" stroke-linejoin="bevel" points="1689.11,321.632 1689.11,404.233"/>
<polyline class="Stem" fill="none" stroke="#000000" stroke-width="3.25" stroke-linejoin="bevel" points="1036.91,346.632 1036.91,429.233"/>
<polyline class="Stem" fill="none" stroke="#000000" stroke-width="3.25" stroke-linejoin="bevel" points="2707.71,399.433 2707.71,316.732"/>
<polyline class="Stem" fill="none" stroke="#000000" stroke-width="3.25" stroke-linejoin="bevel" points="2270.74,371.633 2270.74,441.733"/>
<polyline class="Stem" fill="none" stroke="#000000" stroke-width="3.25" stroke-linejoin="bevel" points="1317.21,321.632 1317.21,404.233"/>
<polyline class="Stem" fill="none" stroke="#000000" stroke-width="3.25" stroke-linejoin="bevel" points="1192.01,334.132 1192.01,416.733"/>
<polyline class="Stem" fill="none" stroke="#000000" stroke-width="3.25" stroke-linejoin="bevel" points="911.712,359.132 911.712,435.483"/>
<polyline class="Stem" fill="none" stroke="#000000" stroke-width="3.25" stroke-linejoin="bevel" points="2427.41,374.433 2427.41,297.982"/>
<path class="Note" d="M2401.74,389.873 C2403.62,389.873 2407.58,387.92 2413.61,384.014 C2419.63,380.108 2423.18,377.488 2424.25,376.154 C2425.33,374.821 2425.86,373.634 2425.86,372.592 C2425.86,371.55 2425.44,370.623 2424.59,369.811 C2423.74,368.998 2422.76,368.592 2421.66,368.592 C2419.71,368.592 2415.73,370.561 2409.7,374.498 C2403.67,378.436 2400.14,381.055 2399.1,382.358 C2398.06,383.66 2397.54,384.831 2397.54,385.873 C2397.54,386.915 2397.94,387.842 2398.76,388.654 C2399.58,389.467 2400.57,389.873 2401.74,389.873 M2420.69,365.467 C2426.29,365.467 2429.08,367.873 2429.08,372.686 C2429.08,375.029 2428.4,377.748 2427.04,380.842 C2425.67,383.936 2423.85,386.295 2421.57,387.92 C2416.56,391.305 2410.28,392.998 2402.72,392.998 C2397.12,392.998 2394.32,390.592 2394.32,385.779 C2394.32,383.634 2394.98,380.964 2396.32,377.772 C2397.65,374.579 2399.49,372.17 2401.83,370.545 C2406.85,367.16 2413.14,365.467 2420.69,365.467"/>
<path class="Note" d="M2276.54,377.373 C2278.43,377.373 2282.38,375.42 2288.41,371.514 C2294.43,367.608 2297.98,364.988 2299.06,363.654 C2300.13,362.321 2300.66,361.134 2300.66,360.092 C2300.66,359.05 2300.24,358.123 2299.39,357.311 C2298.54,356.498 2297.57,356.092 2296.46,356.092 C2294.51,356.092 2290.53,358.061 2284.5,361.998 C2278.47,365.936 2274.94,368.555 2273.9,369.858 C2272.86,371.16 2272.34,372.331 2272.34,373.373 C2272.34,374.415 2272.75,375.342 2273.56,376.154 C2274.38,376.967 2275.37,377.373 2276.54,377.373 M2295.49,352.967 C2301.09,352.967 2303.88,355.373 2303.88,360.186 C2303.88,362.529 2303.2,365.248 2301.84,368.342 C2300.47,371.436 2298.65,373.795 2296.37,375.42 C2291.36,378.805 2285.08,380.498 2277.52,380.498 C2271.92,380.498 2269.12,378.092 2269.12,373.279 C2269.12,371.134 2269.78,368.464 2271.12,365.272 C2272.45,362.079 2274.29,359.67 2276.63,358.045 C2281.65,354.66 2287.94,352.967 2295.49,352.967"/>
<path class="Note" d="M2110.92,364.873 C2112.81,364.873 2116.76,362.92 2122.79,359.014 C2128.82,355.107 2132.37,352.488 2133.44,351.154 C2134.51,349.821 2135.05,348.634 2135.05,347.592 C2135.05,346.55 2134.62,345.623 2133.77,344.811 C2132.93,343.998 2131.95,343.592 2130.84,343.592 C2128.9,343.592 2124.91,345.561 2118.88,349.498 C2112.86,353.436 2109.32,356.055 2108.28,357.357 C2107.24,358.66 2106.72,359.831 2106.72,360.873 C2106.72,361.915 2107.13,362.842 2107.95,363.654 C2108.76,364.467 2109.76,364.873 2110.92,364.873 M2129.88,340.467 C2135.47,340.467 2138.27,342.873 2138.27,347.686 C2138.27,350.029 2137.58,352.748 2136.22,355.842 C2134.86,358.936 2133.03,361.295 2130.75,362.92 C2125.74,366.305 2119.46,367.998 2111.91,367.998 C2106.3,367.998 2103.5,365.592 2103.5,360.779 C2103.5,358.634 2104.17,355.964 2105.5,352.772 C2106.83,349.579 2108.67,347.17 2111.02,345.545 C2116.04,342.16 2122.32,340.467 2129.88,340.467"/>
<path class="Note" d="M2556.84,402.373 C2558.73,402.373 2562.68,400.42 2568.71,396.514 C2574.73,392.608 2578.28,389.988 2579.36,388.654 C2580.43,387.321 2580.96,386.134 2580.96,385.092 C2580.96,384.05 2580.54,383.123 2579.69,382.311 C2578.84,381.498 2577.87,381.092 2576.76,381.092 C2574.81,381.092 2570.83,383.061 2564.8,386.998 C2558.77,390.936 2555.24,393.555 2554.2,394.858 C2553.16,396.16 2552.64,397.331 2552.64,398.373 C2552.64,399.415 2553.05,400.342 2553.86,401.154 C2554.68,401.967 2555.67,402.373 2556.84,402.373 M2575.79,377.967 C2581.39,377.967 2584.18,380.373 2584.18,385.186 C2584.18,387.529 2583.5,390.248 2582.14,393.342 C2580.77,396.436 2578.95,398.795 2576.67,400.42 C2571.66,403.805 2565.38,405.498 2557.82,405.498 C2552.22,405.498 2549.42,403.092 2549.42,398.279 C2549.42,396.134 2550.08,393.464 2551.42,390.272 C2552.75,387.079 2554.59,384.67 2556.93,383.045 C2561.95,379.66 2568.24,377.967 2575.79,377.967"/>
<path class="Note" d="M1985.72,352.373 C1987.61,352.373 1991.56,350.42 1997.59,346.514 C2003.62,342.607 2007.17,339.988 2008.24,338.654 C2009.31,337.321 2009.85,336.134 2009.85,335.092 C2009.85,334.05 2009.42,333.123 2008.58,332.311 C2007.73,331.498 2006.75,331.092 2005.65,331.092 C2003.7,331.092 1999.71,333.061 1993.68,336.998 C1987.66,340.936 1984.12,343.555 1983.08,344.857 C1982.04,346.16 1981.52,347.331 1981.52,348.373 C1981.52,349.415 1981.93,350.342 1982.75,351.154 C1983.56,351.967 1984.56,352.373 1985.72,352.373 M2004.68,327.967 C2010.27,327.967 2013.07,330.373 2013.07,335.186 C2013.07,337.529 2012.39,340.248 2011.02,343.342 C2009.66,346.436 2007.83,348.795 2005.55,350.42 C2000.54,353.805 1994.26,355.498 1986.71,355.498 C1981.1,355.498 1978.3,353.092 1978.3,348.279 C1978.3,346.134 1978.97,343.464 1980.3,340.272 C1981.64,337.079 1983.47,334.67 1985.82,333.045 C1990.84,329.66 1997.12,327.967 2004.68,327.967"/>
<path class="Note" d="M1820.11,339.873 C1821.99,339.873 1825.95,337.92 1831.97,334.014 C1838,330.107 1841.55,327.488 1842.62,326.154 C1843.7,324.821 1844.23,323.634 1844.23,322.592 C1844.23,321.55 1843.81,320.623 1842.96,319.811 C1842.11,318.998 1841.13,318.592 1840.03,318.592 C1838.08,318.592 1834.09,320.561 1828.07,324.498 C1822.04,328.436 1818.51,331.055 1817.47,332.357 C1816.42,333.66 1815.9,334.831 1815.9,335.873 C1815.9,336.915 1816.31,337.842 1817.13,338.654 C1817.95,339.467 1818.94,339.873 1820.11,339.873 M1839.06,315.467 C1844.65,315.467 1847.45,317.873 1847.45,322.686 C1847.45,325.029 1846.77,327.748 1845.4,330.842 C1844.04,333.936 1842.22,336.295 1839.93,337.92 C1834.92,341.305 1828.64,342.998 1821.09,342.998 C1815.49,342.998 1812.68,340.592 1812.68,335.779 C1812.68,333.634 1813.35,330.964 1814.68,327.772 C1816.02,324.579 1817.86,322.17 1820.2,320.545 C1825.22,317.16 1831.51,315.467 1839.06,315.467"/>
<path class="Note" d="M1694.91,327.373 C1696.79,327.373 1700.75,325.42 1706.78,321.514 C1712.8,317.607 1716.35,314.988 1717.42,313.654 C1718.5,312.321 1719.03,311.134 1719.03,310.092 C1719.03,309.05 1718.61,308.123 1717.76,307.311 C1716.91,306.498 1715.93,306.092 1714.83,306.092 C1712.88,306.092 1708.89,308.061 1702.87,311.998 C1696.84,315.936 1693.31,318.555 1692.27,319.857 C1691.23,321.16 1690.7,322.331 1690.7,323.373 C1690.7,324.415 1691.11,325.342 1691.93,326.154 C1692.75,326.967 1693.74,327.373 1694.91,327.373 M1713.86,302.967 C1719.45,302.967 1722.25,305.373 1722.25,310.186 C1722.25,312.529 1721.57,315.248 1720.2,318.342 C1718.84,321.436 1717.02,323.795 1714.74,325.42 C1709.73,328.805 1703.44,330.498 1695.89,330.498 C1690.29,330.498 1687.49,328.092 1687.49,323.279 C1687.49,321.134 1688.15,318.464 1689.49,315.272 C1690.82,312.079 1692.66,309.67 1695,308.045 C1700.02,304.66 1706.31,302.967 1713.86,302.967"/>
<path class="Note" d="M1323.01,327.373 C1324.89,327.373 1328.85,325.42 1334.88,321.514 C1340.9,317.607 1344.45,314.988 1345.52,313.654 C1346.6,312.321 1347.13,311.134 1347.13,310.092 C1347.13,309.05 1346.71,308.123 1345.86,307.311 C1345.01,306.498 1344.03,306.092 1342.93,306.092 C1340.98,306.092 1337,308.061 1330.97,311.998 C1324.94,315.936 1321.41,318.555 1320.37,319.857 C1319.33,321.16 1318.8,322.331 1318.8,323.373 C1318.8,324.415 1319.21,325.342 1320.03,326.154 C1320.85,326.967 1321.84,327.373 1323.01,327.373 M1341.96,302.967 C1347.55,302.967 1350.35,305.373 1350.35,310.186 C1350.35,312.529 1349.67,315.248 1348.3,318.342 C1346.94,321.436 1345.12,323.795 1342.84,325.42 C1337.83,328.805 1331.54,330.498 1323.99,330.498 C1318.39,330.498 1315.59,328.092 1315.59,323.279 C1315.59,321.134 1316.25,318.464 1317.59,315.272 C1318.92,312.079 1320.76,309.67 1323.1,308.045 C1328.12,304.66 1334.41,302.967 1341.96,302.967"/>
<path class="Note" d="M1197.81,339.873 C1199.69,339.873 1203.65,337.92 1209.68,334.014 C1215.7,330.107 1219.25,327.488 1220.32,326.154 C1221.4,324.821 1221.93,323.634 1221.93,322.592 C1221.93,321.55 1221.51,320.623 1220.66,319.811 C1219.81,318.998 1218.84,318.592 1217.73,318.592 C1215.78,318.592 1211.8,320.561 1205.77,324.498 C1199.74,328.436 1196.21,331.055 1195.17,332.357 C1194.13,333.66 1193.61,334.831 1193.61,335.873 C1193.61,336.915 1194.01,337.842 1194.83,338.654 C1195.65,339.467 1196.64,339.873 1197.81,339.873 M1216.76,315.467 C1222.36,315.467 1225.15,317.873 1225.15,322.686 C1225.15,325.029 1224.47,327.748 1223.11,330.842 C1221.74,333.936 1219.92,336.295 1217.64,337.92 C1212.63,341.305 1206.35,342.998 1198.79,342.998 C1193.19,342.998 1190.39,340.592 1190.39,335.779 C1190.39,333.634 1191.05,330.964 1192.39,327.772 C1193.72,324.579 1195.56,322.17 1197.9,320.545 C1202.92,317.16 1209.21,315.467 1216.76,315.467"/>
<path class="Note" d="M1042.71,352.373 C1044.59,352.373 1048.55,350.42 1054.57,346.514 C1060.6,342.607 1064.15,339.988 1065.22,338.654 C1066.3,337.321 1066.83,336.134 1066.83,335.092 C1066.83,334.05 1066.41,333.123 1065.56,332.311 C1064.71,331.498 1063.73,331.092 1062.63,331.092 C1060.68,331.092 1056.69,333.061 1050.67,336.998 C1044.64,340.936 1041.11,343.555 1040.07,344.857 C1039.03,346.16 1038.5,347.331 1038.5,348.373 C1038.5,349.415 1038.91,350.342 1039.73,351.154 C1040.55,351.967 1041.54,352.373 1042.71,352.373 M1061.66,327.967 C1067.25,327.967 1070.05,330.373 1070.05,335.186 C1070.05,337.529 1069.37,340.248 1068,343.342 C1066.64,346.436 1064.82,348.795 1062.54,350.42 C1057.53,353.805 1051.24,355.498 1043.69,355.498 C1038.09,355.498 1035.29,353.092 1035.29,348.279 C1035.29,346.134 1035.95,343.464 1037.29,340.272 C1038.62,337.079 1040.46,334.67 1042.8,333.045 C1047.82,329.66 1054.11,327.967 1061.66,327.967"/>
<path class="Note" d="M917.509,364.873 C919.394,364.873 923.35,362.92 929.376,359.014 C935.402,355.107 938.952,352.488 940.024,351.154 C941.097,349.821 941.634,348.634 941.634,347.592 C941.634,346.55 941.209,345.623 940.36,344.811 C939.511,343.998 938.535,343.592 937.431,343.592 C935.483,343.592 931.496,345.561 925.47,349.498 C919.444,353.436 915.91,356.055 914.868,357.357 C913.827,358.66 913.306,359.831 913.306,360.873 C913.306,361.915 913.715,362.842 914.532,363.654 C915.35,364.467 916.342,364.873 917.509,364.873 M936.462,340.467 C942.056,340.467 944.853,342.873 944.853,347.686 C944.853,350.029 944.17,352.748 942.806,355.842 C941.441,358.936 939.618,361.295 937.337,362.92 C932.327,366.305 926.045,367.998 918.493,367.998 C912.889,367.998 910.087,365.592 910.087,360.779 C910.087,358.634 910.754,355.964 912.087,352.772 C913.42,349.579 915.259,347.17 917.603,345.545 C922.623,342.16 928.91,340.467 936.462,340.467"/>
<path class="Note" d="M762.408,377.373 C764.293,377.373 768.249,375.42 774.275,371.514 C780.301,367.608 783.85,364.988 784.923,363.654 C785.996,362.321 786.533,361.134 786.533,360.092 C786.533,359.05 786.108,358.123 785.259,357.311 C784.41,356.498 783.434,356.092 782.329,356.092 C780.381,356.092 776.394,358.061 770.368,361.998 C764.342,365.936 760.809,368.555 759.767,369.858 C758.725,371.16 758.204,372.331 758.204,373.373 C758.204,374.415 758.613,375.342 759.431,376.154 C760.249,376.967 761.241,377.373 762.408,377.373 M781.361,352.967 C786.954,352.967 789.751,355.373 789.751,360.186 C789.751,362.529 789.069,365.248 787.704,368.342 C786.34,371.436 784.517,373.795 782.236,375.42 C777.225,378.805 770.944,380.498 763.392,380.498 C757.788,380.498 754.986,378.092 754.986,373.279 C754.986,371.134 755.652,368.464 756.986,365.272 C758.319,362.079 760.158,359.67 762.501,358.045 C767.522,354.66 773.809,352.967 781.361,352.967"/>
<path class="Note" d="M637.209,389.873 C639.094,389.873 643.05,387.92 649.076,384.014 C655.102,380.108 658.651,377.488 659.724,376.154 C660.797,374.821 661.334,373.634 661.334,372.592 C661.334,371.55 660.909,370.623 660.06,369.811 C659.211,368.998 658.235,368.592 657.13,368.592 C655.183,368.592 651.196,370.561 645.169,374.498 C639.143,378.436 635.61,381.055 634.568,382.358 C633.526,383.66 633.005,384.831 633.005,385.873 C633.005,386.915 633.414,387.842 634.232,388.654 C635.05,389.467 636.042,389.873 637.209,389.873 M656.162,365.467 C661.755,365.467 664.552,367.873 664.552,372.686 C664.552,375.029 663.87,377.748 662.505,380.842 C661.141,383.936 659.318,386.295 657.037,387.92 C652.026,391.305 645.745,392.998 638.193,392.998 C632.589,392.998 629.787,390.592 629.787,385.779 C629.787,383.634 630.453,380.964 631.787,377.772 C633.12,374.579 634.959,372.17 637.302,370.545 C642.323,367.16 648.61,365.467 656.162,365.467"/>
<path class="Note" d="M471.592,402.373 C473.477,402.373 477.433,400.42 483.459,396.514 C489.485,392.608 493.034,389.988 494.107,388.654 C495.18,387.321 495.717,386.134 495.717,385.092 C495.717,384.05 495.292,383.123 494.443,382.311 C493.594,381.498 492.618,381.092 491.513,381.092 C489.566,381.092 485.579,383.061 479.553,386.998 C473.526,390.936 469.993,393.555 468.951,394.858 C467.909,396.16 467.388,397.331 467.388,398.373 C467.388,399.415 467.797,400.342 468.615,401.154 C469.433,401.967 470.425,402.373 471.592,402.373 M490.545,377.967 C496.138,377.967 498.935,380.373 498.935,385.186 C498.935,387.529 498.253,390.248 496.888,393.342 C495.524,396.436 493.701,398.795 491.42,400.42 C486.409,403.805 480.128,405.498 472.576,405.498 C466.972,405.498 464.17,403.092 464.17,398.279 C464.17,396.134 464.836,393.464 466.17,390.272 C467.503,387.079 469.342,384.67 471.685,383.045 C476.706,379.66 482.993,377.967 490.545,377.967"/>
<path class="Note" d="M346.393,414.873 C348.278,414.873 352.234,412.92 358.26,409.014 C364.286,405.108 367.835,402.488 368.908,401.154 C369.981,399.821 370.518,398.634 370.518,397.592 C370.518,396.55 370.093,395.623 369.244,394.811 C368.395,393.998 367.419,393.592 366.315,393.592 C364.367,393.592 360.38,395.561 354.354,399.498 C348.328,403.436 344.794,406.055 343.752,407.358 C342.71,408.66 342.19,409.831 342.19,410.873 C342.19,411.915 342.598,412.842 343.416,413.654 C344.234,414.467 345.226,414.873 346.393,414.873 M365.346,390.467 C370.94,390.467 373.736,392.873 373.736,397.686 C373.736,400.029 373.054,402.748 371.69,405.842 C370.325,408.936 368.502,411.295 366.221,412.92 C361.21,416.305 354.929,417.998 347.377,417.998 C341.773,417.998 338.971,415.592 338.971,410.779 C338.971,408.634 339.637,405.964 340.971,402.772 C342.304,399.579 344.143,397.17 346.486,395.545 C351.507,392.16 357.794,390.467 365.346,390.467"/>
<path class="Note" d="M2682.04,414.873 C2683.92,414.873 2687.88,412.92 2693.91,409.014 C2699.93,405.108 2703.48,402.488 2704.55,401.154 C2705.63,399.821 2706.16,398.634 2706.16,397.592 C2706.16,396.55 2705.74,395.623 2704.89,394.811 C2704.04,393.998 2703.06,393.592 2701.96,393.592 C2700.01,393.592 2696.03,395.561 2690,399.498 C2683.97,403.436 2680.44,406.055 2679.4,407.358 C2678.36,408.66 2677.84,409.831 2677.84,410.873 C2677.84,411.915 2678.24,412.842 2679.06,413.654 C2679.88,414.467 2680.87,414.873 2682.04,414.873 M2700.99,390.467 C2706.59,390.467 2709.38,392.873 2709.38,397.686 C2709.38,400.029 2708.7,402.748 2707.34,405.842 C2705.97,408.936 2704.15,411.295 2701.87,412.92 C2696.86,416.305 2690.58,417.998 2683.02,417.998 C2677.42,417.998 2674.62,415.592 2674.62,410.779 C2674.62,408.634 2675.28,405.964 2676.62,402.772 C2677.95,399.579 2679.79,397.17 2682.13,395.545 C2687.15,392.16 2693.44,390.467 2700.99,390.467"/>
<path class="Clef" d="M203.623,423.858 L203.623,421.717 C203.56,420.613 203.399,418.889 203.139,416.545 C199.889,417.066 196.993,417.326 194.451,417.326 C185.337,417.326 177.605,413.727 171.256,406.529 C164.907,399.331 161.732,390.753 161.732,380.795 C161.732,378.128 162.253,374.923 163.295,371.178 C164.337,367.433 165.297,364.925 166.178,363.654 C167.058,362.384 168.378,360.154 170.139,356.967 C170.659,355.988 172.352,353.837 175.217,350.514 C175.738,349.805 176.193,349.222 176.584,348.764 C176.975,348.305 177.607,347.49 178.482,346.318 C179.357,345.147 180.3,344.055 181.31,343.045 C182.321,342.035 183.217,341.058 183.998,340.115 C184.779,339.173 185.498,338.378 186.154,337.733 C183.81,329.983 182.378,324.024 181.857,319.858 C181.337,315.691 181.076,310.579 181.076,304.522 C181.076,298.464 182.378,292.962 184.982,288.014 C187.514,282.878 191.06,278.68 195.623,275.42 C195.883,275.222 196.225,275.123 196.646,275.123 C197.068,275.123 197.378,275.222 197.576,275.42 C201.087,279.649 204.128,285.149 206.701,291.92 C209.274,298.691 210.56,305.024 210.56,310.92 C210.56,316.816 209.066,322.498 206.076,327.967 C202.691,333.759 198.326,339.748 192.982,345.936 C194.347,350.227 196.17,356.962 198.451,366.139 L199.045,366.139 C199.305,366.076 199.529,366.045 199.717,366.045 C207.081,366.045 213.089,368.634 217.74,373.811 C222.391,378.988 224.717,384.962 224.717,391.733 C224.717,400.128 221.238,406.899 214.279,412.045 C212.258,413.545 209.878,414.717 207.139,415.561 C207.472,419.79 207.639,422.605 207.639,424.006 C207.639,425.407 207.571,427.899 207.435,431.483 C207.373,437.597 205.29,442.837 201.185,447.201 C197.081,451.566 192.394,453.748 187.123,453.748 C181.852,453.748 177.36,451.876 173.646,448.131 C169.933,444.386 168.076,439.847 168.076,434.514 C168.076,431.712 169.154,429.331 171.31,427.373 C173.519,425.425 176.006,424.451 178.771,424.451 C181.537,424.451 183.8,425.462 185.56,427.483 C187.383,429.368 188.295,431.644 188.295,434.311 C188.295,436.977 187.383,439.222 185.56,441.045 C183.738,442.868 181.555,443.779 179.014,443.779 C177.972,443.779 176.967,443.587 175.998,443.201 C178.863,447.43 182.54,449.545 187.029,449.545 C191.519,449.545 195.36,447.691 198.553,443.983 C201.745,440.274 203.342,435.91 203.342,430.889 L203.623,423.858 M206.748,411.561 C210.133,410.321 212.821,408.123 214.81,404.967 C216.8,401.811 217.795,398.67 217.795,395.545 C217.795,390.92 216.199,386.785 213.006,383.139 C209.813,379.493 205.774,377.441 200.889,376.983 C203.691,390.722 205.644,402.248 206.748,411.561 M168.967,388.998 C168.967,395.446 171.537,401.079 176.678,405.897 C181.818,410.714 187.842,413.123 194.748,413.123 C197.477,413.123 200.144,412.925 202.748,412.529 C201.706,402.634 199.654,390.785 196.592,376.983 C192.758,377.378 189.782,378.699 187.662,380.943 C185.542,383.188 184.482,385.743 184.482,388.608 C184.482,393.555 187.123,397.561 192.404,400.623 C192.852,400.884 193.076,401.324 193.076,401.943 C193.076,402.563 192.865,403.1 192.443,403.553 C192.021,404.006 191.649,404.233 191.326,404.233 C191.003,404.233 190.581,404.17 190.06,404.045 C182.435,399.878 178.623,393.592 178.623,385.186 C178.623,381.217 180.024,377.41 182.826,373.764 C185.753,370.118 189.56,367.774 194.248,366.733 C192.425,359.441 190.93,353.743 189.764,349.639 C180.847,359.67 175.31,367.092 173.154,371.904 C170.363,378.154 168.967,383.852 168.967,388.998 M201.576,289.686 C196.691,292.092 192.834,295.574 190.006,300.131 C187.178,304.688 185.764,309.472 185.764,314.483 C185.764,319.493 186.935,325.972 189.279,333.92 C193.967,328.253 197.514,322.946 199.92,317.998 C202.326,313.05 203.529,308.152 203.529,303.303 C203.529,298.454 202.878,293.915 201.576,289.686"/>
<path class="TimeSig" d="M273.021,317.912 C274.516,317.912 275.949,317.686 277.318,317.232 C278.688,316.779 279.665,316.553 280.248,316.553 C280.831,316.553 281.222,316.907 281.42,317.615 C281.42,317.688 281.352,317.886 281.217,318.209 L252.811,351.225 L269.498,351.225 L269.498,338.131 C269.498,336.506 270.446,335.334 272.342,334.615 C274.29,333.897 276.503,331.001 278.982,325.928 C279.17,325.532 279.462,325.334 279.857,325.334 C280.639,325.334 281.092,325.792 281.217,326.709 L281.217,351.225 L288.357,351.225 C289.264,351.225 289.751,351.712 289.818,352.686 C289.886,353.66 289.399,354.147 288.357,354.147 L281.217,354.147 L281.217,354.928 C281.217,357.532 281.868,359.746 283.17,361.568 C284.67,363.391 286.43,364.303 288.451,364.303 C289.232,364.303 289.623,364.693 289.623,365.475 C289.623,366.256 289.087,366.647 288.014,366.647 C286.941,366.647 284.938,366.436 282.006,366.014 C279.074,365.592 276.811,365.381 275.217,365.381 C273.623,365.381 271.41,365.592 268.576,366.014 C265.743,366.436 263.613,366.647 262.186,366.647 C261.404,366.647 261.014,366.256 261.014,365.475 C261.014,364.693 261.404,364.303 262.186,364.303 C264.196,364.303 265.951,363.391 267.451,361.568 C268.816,359.683 269.498,357.469 269.498,354.928 L269.498,354.147 L252.811,354.147 C251.956,354.147 251.219,353.92 250.6,353.467 C249.98,353.014 249.67,352.592 249.67,352.201 C249.67,351.811 250.485,350.639 252.115,348.686 C253.745,346.732 256.074,342.972 259.1,337.404 C262.126,331.837 263.639,325.438 263.639,318.209 C263.639,317.167 264.097,316.647 265.014,316.647 C265.212,316.647 265.521,316.712 265.943,316.842 C266.365,316.972 267.277,317.183 268.678,317.475 C270.079,317.766 271.527,317.912 273.021,317.912"/>
<path class="TimeSig" d="M273.021,368.084 C274.516,368.084 275.949,367.858 277.318,367.404 C278.688,366.951 279.665,366.725 280.248,366.725 C280.831,366.725 281.222,367.079 281.42,367.787 C281.42,367.86 281.352,368.058 281.217,368.381 L252.811,401.397 L269.498,401.397 L269.498,388.303 C269.498,386.678 270.446,385.506 272.342,384.787 C274.29,384.068 276.503,381.173 278.982,376.1 C279.17,375.704 279.462,375.506 279.857,375.506 C280.639,375.506 281.092,375.964 281.217,376.881 L281.217,401.397 L288.357,401.397 C289.264,401.397 289.751,401.884 289.818,402.858 C289.886,403.831 289.399,404.318 288.357,404.318 L281.217,404.318 L281.217,405.1 C281.217,407.704 281.868,409.917 283.17,411.74 C284.67,413.563 286.43,414.475 288.451,414.475 C289.232,414.475 289.623,414.865 289.623,415.647 C289.623,416.428 289.087,416.818 288.014,416.818 C286.941,416.818 284.938,416.608 282.006,416.186 C279.074,415.764 276.811,415.553 275.217,415.553 C273.623,415.553 271.41,415.764 268.576,416.186 C265.743,416.608 263.613,416.818 262.186,416.818 C261.404,416.818 261.014,416.428 261.014,415.647 C261.014,414.865 261.404,414.475 262.186,414.475 C264.196,414.475 265.951,413.563 267.451,411.74 C268.816,409.855 269.498,407.641 269.498,405.1 L269.498,404.318 L252.811,404.318 C251.956,404.318 251.219,404.092 250.6,403.639 C249.98,403.186 249.67,402.764 249.67,402.373 C249.67,401.983 250.485,400.811 252.115,398.858 C253.745,396.904 256.074,393.144 259.1,387.576 C262.126,382.009 263.639,375.61 263.639,368.381 C263.639,367.339 264.097,366.818 265.014,366.818 C265.212,366.818 265.521,366.884 265.943,367.014 C266.365,367.144 267.277,367.355 268.678,367.647 C270.079,367.938 271.527,368.084 273.021,368.084"/>
<path class="Rest" d="M1569.87,357.357 L1534.32,357.357 C1533.66,357.357 1533.34,357.035 1533.34,356.389 L1533.34,342.717 C1533.34,342.061 1533.66,341.732 1534.32,341.732 L1569.87,341.732 C1570.51,341.732 1570.84,342.061 1570.84,342.717 L1570.84,356.389 C1570.84,357.035 1570.51,357.357 1569.87,357.357"/>
</svg>
