<?xml version="1.0" encoding="UTF-8" standalone="no"?>
<svg width="2977.2px" height="4208.4px" viewBox="0 0 2977.2 4208.4"
 xmlns="http://www.w3.org/2000/svg" xmlns:xlink="http://www.w3.org/1999/xlink" version="1.2" baseProfile="tiny">
<title>Bb_Min7.mscx</title>
<desc>Generated by MuseScore Studio 4.3.1</desc>
<path class="" fill="#ffffff" fill-rule="evenodd" d="M0,0 L2977.2,0 L2977.2,4208.4 L0,4208.4 L0,0 "/>
<polyline class="StaffLines" fill="none" stroke="#000000" stroke-width="2.00" stroke-linejoin="bevel" points="141.732,566.733 2835.47,566.733"/>
<polyline class="StaffLines" fill="none" stroke="#000000" stroke-width="2.00" stroke-linejoin="bevel" points="141.732,591.733 2835.47,591.733"/>
<polyline class="StaffLines" fill="none" stroke="#000000" stroke-width="2.00" stroke-linejoin="bevel" points="141.732,616.733 2835.47,616.733"/>
<polyline class="StaffLines" fill="none" stroke="#000000" stroke-width="2.00" stroke-linejoin="bevel" points="141.732,641.733 2835.47,641.733"/>
<polyline class="StaffLines" fill="none" stroke="#000000" stroke-width="2.00" stroke-linejoin="bevel" points="141.732,666.733 2835.47,666.733"/>
<polyline class="BarLine" fill="none" stroke="#000000" stroke-width="4.00" stroke-linejoin="bevel" points="2352.82,565.733 2352.82,667.733"/>
<polyline class="BarLine" fill="none" stroke="#000000" stroke-width="4.00" stroke-linejoin="bevel" points="1555.55,565.733 1555.55,667.733"/>
<polyline class="BarLine" fill="none" stroke="#000000" stroke-width="4.00" stroke-linejoin="bevel" points="2802.72,565.733 2802.72,667.733"/>
<polyline class="BarLine" fill="none" stroke="#000000" stroke-width="12.50" stroke-linejoin="bevel" points="2829.22,565.733 2829.22,667.733"/>
<polyline class="BarLine" fill="none" stroke="#000000" stroke-width="4.00" stroke-linejoin="bevel" points="1105.65,565.733 1105.65,667.733"/>
<path class="Accidental" d="M328.764,634.311 L327.498,572.201 C327.498,571.222 328.264,570.733 329.795,570.733 C331.326,570.733 332.092,571.222 332.092,572.201 L331.311,606.092 C333.071,604.332 334.584,603.11 335.85,602.428 C337.115,601.746 338.839,601.405 341.022,601.405 C343.204,601.405 345.222,602.412 347.076,604.428 C348.93,606.444 349.857,608.951 349.857,611.951 C349.857,616.441 345.139,622.66 335.701,630.608 C332.191,633.795 330.368,635.389 330.232,635.389 L329.654,635.389 C329.061,635.389 328.764,635.03 328.764,634.311 M331.217,609.217 L330.92,631.389 C332.941,629.493 334.993,626.347 337.076,621.951 C339.16,617.556 340.201,613.795 340.201,610.67 C340.201,609.108 339.941,607.675 339.42,606.373 C338.899,605.071 338.084,604.42 336.975,604.42 C335.865,604.42 334.87,604.811 333.99,605.592 C333.11,606.373 332.186,607.582 331.217,609.217"/>
<path class="Accidental" d="M515.829,609.311 L514.563,547.201 C514.563,546.222 515.329,545.733 516.86,545.733 C518.391,545.733 519.157,546.222 519.157,547.201 L518.376,581.092 C520.136,579.332 521.649,578.11 522.915,577.428 C524.18,576.746 525.904,576.405 528.087,576.405 C530.269,576.405 532.287,577.412 534.141,579.428 C535.996,581.444 536.923,583.951 536.923,586.951 C536.923,591.441 532.204,597.66 522.766,605.608 C519.256,608.795 517.433,610.389 517.298,610.389 L516.719,610.389 C516.126,610.389 515.829,610.03 515.829,609.311 M518.282,584.217 L517.985,606.389 C520.006,604.493 522.058,601.347 524.141,596.951 C526.225,592.556 527.266,588.795 527.266,585.67 C527.266,584.108 527.006,582.675 526.485,581.373 C525.964,580.071 525.149,579.42 524.04,579.42 C522.93,579.42 521.936,579.811 521.055,580.592 C520.175,581.373 519.251,582.582 518.282,584.217"/>
<path class="Accidental" d="M2137.13,634.311 L2135.87,572.201 C2135.87,571.222 2136.63,570.733 2138.16,570.733 C2139.69,570.733 2140.46,571.222 2140.46,572.201 L2139.68,606.092 C2141.44,604.332 2142.95,603.11 2144.22,602.428 C2145.48,601.746 2147.21,601.405 2149.39,601.405 C2151.57,601.405 2153.59,602.412 2155.44,604.428 C2157.3,606.444 2158.23,608.951 2158.23,611.951 C2158.23,616.441 2153.51,622.66 2144.07,630.608 C2140.56,633.795 2138.74,635.389 2138.6,635.389 L2138.02,635.389 C2137.43,635.389 2137.13,635.03 2137.13,634.311 M2139.58,609.217 L2139.29,631.389 C2141.31,629.493 2143.36,626.347 2145.44,621.951 C2147.53,617.556 2148.57,613.795 2148.57,610.67 C2148.57,609.108 2148.31,607.675 2147.79,606.373 C2147.27,605.071 2146.45,604.42 2145.34,604.42 C2144.23,604.42 2143.24,604.811 2142.36,605.592 C2141.48,606.373 2140.55,607.582 2139.58,609.217"/>
<path class="Accidental" d="M1950.07,609.311 L1948.8,547.201 C1948.8,546.222 1949.57,545.733 1951.1,545.733 C1952.63,545.733 1953.39,546.222 1953.39,547.201 L1952.61,581.092 C1954.37,579.332 1955.89,578.11 1957.15,577.428 C1958.42,576.746 1960.14,576.405 1962.32,576.405 C1964.51,576.405 1966.52,577.412 1968.38,579.428 C1970.23,581.444 1971.16,583.951 1971.16,586.951 C1971.16,591.441 1966.44,597.66 1957,605.608 C1953.49,608.795 1951.67,610.389 1951.54,610.389 L1950.96,610.389 C1950.36,610.389 1950.07,610.03 1950.07,609.311 M1952.52,584.217 L1952.22,606.389 C1954.24,604.493 1956.3,601.347 1958.38,596.951 C1960.46,592.556 1961.5,588.795 1961.5,585.67 C1961.5,584.108 1961.24,582.675 1960.72,581.373 C1960.2,580.071 1959.39,579.42 1958.28,579.42 C1957.17,579.42 1956.17,579.811 1955.29,580.592 C1954.41,581.373 1953.49,582.582 1952.52,584.217"/>
<path class="Accidental" d="M880.459,559.311 L879.193,497.201 C879.193,496.222 879.959,495.733 881.49,495.733 C883.022,495.733 883.787,496.222 883.787,497.201 L883.006,531.092 C884.766,529.332 886.279,528.11 887.545,527.428 C888.811,526.746 890.535,526.404 892.717,526.404 C894.899,526.404 896.917,527.412 898.772,529.428 C900.626,531.444 901.553,533.951 901.553,536.951 C901.553,541.441 896.834,547.66 887.397,555.608 C883.886,558.795 882.063,560.389 881.928,560.389 L881.35,560.389 C880.756,560.389 880.459,560.029 880.459,559.311 M882.912,534.217 L882.615,556.389 C884.636,554.493 886.688,551.347 888.772,546.951 C890.855,542.556 891.897,538.795 891.897,535.67 C891.897,534.108 891.636,532.675 891.115,531.373 C890.594,530.071 889.779,529.42 888.67,529.42 C887.561,529.42 886.566,529.811 885.686,530.592 C884.805,531.373 883.881,532.582 882.912,534.217"/>
<path class="Accidental" d="M1566.44,559.311 L1565.17,497.201 C1565.17,496.222 1565.94,495.733 1567.47,495.733 C1569,495.733 1569.76,496.222 1569.76,497.201 L1568.98,531.092 C1570.74,529.332 1572.26,528.11 1573.52,527.428 C1574.79,526.746 1576.51,526.404 1578.69,526.404 C1580.88,526.404 1582.89,527.412 1584.75,529.428 C1586.6,531.444 1587.53,533.951 1587.53,536.951 C1587.53,541.441 1582.81,547.66 1573.37,555.608 C1569.86,558.795 1568.04,560.389 1567.91,560.389 L1567.33,560.389 C1566.73,560.389 1566.44,560.029 1566.44,559.311 M1568.89,534.217 L1568.59,556.389 C1570.61,554.493 1572.67,551.347 1574.75,546.951 C1576.83,542.556 1577.87,538.795 1577.87,535.67 C1577.87,534.108 1577.61,532.675 1577.09,531.373 C1576.57,530.071 1575.76,529.42 1574.65,529.42 C1573.54,529.42 1572.54,529.811 1571.66,530.592 C1570.78,531.373 1569.86,532.582 1568.89,534.217"/>
<polyline class="LedgerLine" fill="none" stroke="#000000" stroke-width="4.00" stroke-linejoin="bevel" points="907.084,541.733 958.998,541.733"/>
<polyline class="LedgerLine" fill="none" stroke="#000000" stroke-width="4.00" stroke-linejoin="bevel" points="1593.06,541.733 1644.98,541.733"/>
<polyline class="Stem" fill="none" stroke="#000000" stroke-width="3.25" stroke-linejoin="bevel" points="544.079,597.602 544.079,679.233"/>
<polyline class="Stem" fill="none" stroke="#000000" stroke-width="3.25" stroke-linejoin="bevel" points="2165.38,622.602 2165.38,691.733"/>
<polyline class="Stem" fill="none" stroke="#000000" stroke-width="3.25" stroke-linejoin="bevel" points="1978.32,597.602 1978.32,679.233"/>
<polyline class="Stem" fill="none" stroke="#000000" stroke-width="3.25" stroke-linejoin="bevel" points="1791.25,572.602 1791.25,654.233"/>
<polyline class="Stem" fill="none" stroke="#000000" stroke-width="3.25" stroke-linejoin="bevel" points="1604.19,547.602 1604.19,629.233"/>
<polyline class="Stem" fill="none" stroke="#000000" stroke-width="3.25" stroke-linejoin="bevel" points="357.014,622.602 357.014,691.733"/>
<polyline class="Stem" fill="none" stroke="#000000" stroke-width="3.25" stroke-linejoin="bevel" points="918.209,547.602 918.209,629.233"/>
<polyline class="Stem" fill="none" stroke="#000000" stroke-width="3.25" stroke-linejoin="bevel" points="731.144,572.602 731.144,654.233"/>
<path class="Note" d="M1624.53,527.967 C1627.66,527.967 1630.26,528.748 1632.34,530.311 C1634.43,531.873 1635.47,534.118 1635.47,537.045 C1635.47,541.535 1633.14,545.733 1628.49,549.639 C1623.84,553.545 1618.84,555.498 1613.5,555.498 C1610.37,555.498 1607.74,554.686 1605.59,553.061 C1603.57,551.3 1602.56,549.087 1602.56,546.42 C1602.56,542.056 1604.87,537.889 1609.5,533.92 C1614.12,529.951 1619.13,527.967 1624.53,527.967"/>
<path class="Note" d="M377.357,602.967 C380.482,602.967 383.087,603.748 385.17,605.311 C387.253,606.873 388.295,609.118 388.295,612.045 C388.295,616.535 385.969,620.733 381.318,624.639 C376.667,628.545 371.67,630.498 366.326,630.498 C363.201,630.498 360.566,629.686 358.42,628.061 C356.399,626.3 355.389,624.087 355.389,621.42 C355.389,617.056 357.701,612.889 362.326,608.92 C366.951,604.951 371.962,602.967 377.357,602.967"/>
<path class="Note" d="M1811.6,552.967 C1814.72,552.967 1817.32,553.748 1819.41,555.311 C1821.49,556.873 1822.53,559.118 1822.53,562.045 C1822.53,566.535 1820.21,570.733 1815.56,574.639 C1810.91,578.545 1805.91,580.498 1800.56,580.498 C1797.44,580.498 1794.8,579.686 1792.66,578.061 C1790.64,576.3 1789.63,574.087 1789.63,571.42 C1789.63,567.056 1791.94,562.889 1796.56,558.92 C1801.19,554.951 1806.2,552.967 1811.6,552.967"/>
<path class="Note" d="M938.553,527.967 C941.678,527.967 944.282,528.748 946.365,530.311 C948.449,531.873 949.49,534.118 949.49,537.045 C949.49,541.535 947.165,545.733 942.514,549.639 C937.863,553.545 932.865,555.498 927.522,555.498 C924.397,555.498 921.761,554.686 919.615,553.061 C917.594,551.3 916.584,549.087 916.584,546.42 C916.584,542.056 918.897,537.889 923.522,533.92 C928.147,529.951 933.157,527.967 938.553,527.967"/>
<path class="Note" d="M1998.66,577.967 C2001.79,577.967 2004.39,578.748 2006.47,580.311 C2008.56,581.873 2009.6,584.118 2009.6,587.045 C2009.6,591.535 2007.27,595.733 2002.62,599.639 C1997.97,603.545 1992.97,605.498 1987.63,605.498 C1984.5,605.498 1981.87,604.686 1979.72,603.061 C1977.7,601.3 1976.69,599.087 1976.69,596.42 C1976.69,592.056 1979,587.889 1983.63,583.92 C1988.25,579.951 1993.26,577.967 1998.66,577.967"/>
<path class="Note" d="M751.488,552.967 C754.613,552.967 757.217,553.748 759.3,555.311 C761.384,556.873 762.425,559.118 762.425,562.045 C762.425,566.535 760.1,570.733 755.449,574.639 C750.798,578.545 745.8,580.498 740.456,580.498 C737.331,580.498 734.696,579.686 732.55,578.061 C730.529,576.3 729.519,574.087 729.519,571.42 C729.519,567.056 731.831,562.889 736.456,558.92 C741.081,554.951 746.092,552.967 751.488,552.967"/>
<path class="Note" d="M2185.73,602.967 C2188.85,602.967 2191.45,603.748 2193.54,605.311 C2195.62,606.873 2196.66,609.118 2196.66,612.045 C2196.66,616.535 2194.34,620.733 2189.69,624.639 C2185.04,628.545 2180.04,630.498 2174.69,630.498 C2171.57,630.498 2168.93,629.686 2166.79,628.061 C2164.77,626.3 2163.76,624.087 2163.76,621.42 C2163.76,617.056 2166.07,612.889 2170.69,608.92 C2175.32,604.951 2180.33,602.967 2185.73,602.967"/>
<path class="Note" d="M564.423,577.967 C567.548,577.967 570.152,578.748 572.235,580.311 C574.318,581.873 575.36,584.118 575.36,587.045 C575.36,591.535 573.035,595.733 568.384,599.639 C563.733,603.545 558.735,605.498 553.391,605.498 C550.266,605.498 547.631,604.686 545.485,603.061 C543.464,601.3 542.454,599.087 542.454,596.42 C542.454,592.056 544.766,587.889 549.391,583.92 C554.016,579.951 559.027,577.967 564.423,577.967"/>
<path class="Clef" d="M203.623,673.858 L203.623,671.717 C203.56,670.613 203.399,668.889 203.139,666.545 C199.889,667.066 196.993,667.326 194.451,667.326 C185.337,667.326 177.605,663.727 171.256,656.53 C164.907,649.332 161.732,640.754 161.732,630.795 C161.732,628.129 162.253,624.923 163.295,621.178 C164.337,617.433 165.297,614.925 166.178,613.655 C167.058,612.384 168.378,610.155 170.139,606.967 C170.659,605.988 172.352,603.837 175.217,600.514 C175.738,599.806 176.193,599.222 176.584,598.764 C176.975,598.306 177.607,597.49 178.482,596.319 C179.357,595.147 180.3,594.056 181.31,593.045 C182.321,592.035 183.217,591.058 183.998,590.115 C184.779,589.173 185.498,588.379 186.154,587.733 C183.81,579.983 182.378,574.024 181.857,569.858 C181.337,565.691 181.076,560.579 181.076,554.522 C181.076,548.464 182.378,542.962 184.982,538.014 C187.514,532.879 191.06,528.681 195.623,525.42 C195.883,525.222 196.225,525.123 196.646,525.123 C197.068,525.123 197.378,525.222 197.576,525.42 C201.087,529.649 204.128,535.149 206.701,541.92 C209.274,548.691 210.56,555.024 210.56,560.92 C210.56,566.816 209.066,572.498 206.076,577.967 C202.691,583.759 198.326,589.748 192.982,595.936 C194.347,600.227 196.17,606.962 198.451,616.139 L199.045,616.139 C199.305,616.076 199.529,616.045 199.717,616.045 C207.081,616.045 213.089,618.634 217.74,623.811 C222.391,628.988 224.717,634.962 224.717,641.733 C224.717,650.129 221.238,656.899 214.279,662.045 C212.258,663.545 209.878,664.717 207.139,665.561 C207.472,669.79 207.639,672.605 207.639,674.006 C207.639,675.407 207.571,677.899 207.435,681.483 C207.373,687.597 205.29,692.837 201.185,697.201 C197.081,701.566 192.394,703.748 187.123,703.748 C181.852,703.748 177.36,701.876 173.646,698.131 C169.933,694.386 168.076,689.847 168.076,684.514 C168.076,681.712 169.154,679.332 171.31,677.373 C173.519,675.425 176.006,674.451 178.771,674.451 C181.537,674.451 183.8,675.462 185.56,677.483 C187.383,679.368 188.295,681.644 188.295,684.311 C188.295,686.977 187.383,689.222 185.56,691.045 C183.738,692.868 181.555,693.78 179.014,693.78 C177.972,693.78 176.967,693.587 175.998,693.201 C178.863,697.431 182.54,699.545 187.029,699.545 C191.519,699.545 195.36,697.691 198.553,693.983 C201.745,690.274 203.342,685.91 203.342,680.889 L203.623,673.858 M206.748,661.561 C210.133,660.321 212.821,658.123 214.81,654.967 C216.8,651.811 217.795,648.67 217.795,645.545 C217.795,640.92 216.199,636.785 213.006,633.139 C209.813,629.493 205.774,627.441 200.889,626.983 C203.691,640.722 205.644,652.248 206.748,661.561 M168.967,638.998 C168.967,645.446 171.537,651.079 176.678,655.897 C181.818,660.714 187.842,663.123 194.748,663.123 C197.477,663.123 200.144,662.925 202.748,662.53 C201.706,652.634 199.654,640.785 196.592,626.983 C192.758,627.379 189.782,628.699 187.662,630.944 C185.542,633.188 184.482,635.743 184.482,638.608 C184.482,643.556 187.123,647.561 192.404,650.623 C192.852,650.884 193.076,651.324 193.076,651.944 C193.076,652.563 192.865,653.1 192.443,653.553 C192.021,654.006 191.649,654.233 191.326,654.233 C191.003,654.233 190.581,654.17 190.06,654.045 C182.435,649.879 178.623,643.592 178.623,635.186 C178.623,631.217 180.024,627.41 182.826,623.764 C185.753,620.118 189.56,617.774 194.248,616.733 C192.425,609.441 190.93,603.743 189.764,599.639 C180.847,609.67 175.31,617.092 173.154,621.905 C170.363,628.155 168.967,633.852 168.967,638.998 M201.576,539.686 C196.691,542.092 192.834,545.574 190.006,550.131 C187.178,554.688 185.764,559.472 185.764,564.483 C185.764,569.493 186.935,575.972 189.279,583.92 C193.967,578.254 197.514,572.946 199.92,567.998 C202.326,563.05 203.529,558.152 203.529,553.303 C203.529,548.454 202.878,543.915 201.576,539.686"/>
<path class="TimeSig" d="M273.021,567.912 C274.516,567.912 275.949,567.686 277.318,567.233 C278.688,566.78 279.665,566.553 280.248,566.553 C280.831,566.553 281.222,566.907 281.42,567.615 C281.42,567.688 281.352,567.886 281.217,568.209 L252.811,601.225 L269.498,601.225 L269.498,588.131 C269.498,586.506 270.446,585.334 272.342,584.615 C274.29,583.897 276.503,581.001 278.982,575.928 C279.17,575.532 279.462,575.334 279.857,575.334 C280.639,575.334 281.092,575.793 281.217,576.709 L281.217,601.225 L288.357,601.225 C289.264,601.225 289.751,601.712 289.818,602.686 C289.886,603.66 289.399,604.147 288.357,604.147 L281.217,604.147 L281.217,604.928 C281.217,607.532 281.868,609.746 283.17,611.569 C284.67,613.391 286.43,614.303 288.451,614.303 C289.232,614.303 289.623,614.694 289.623,615.475 C289.623,616.256 289.087,616.647 288.014,616.647 C286.941,616.647 284.938,616.436 282.006,616.014 C279.074,615.592 276.811,615.381 275.217,615.381 C273.623,615.381 271.41,615.592 268.576,616.014 C265.743,616.436 263.613,616.647 262.186,616.647 C261.404,616.647 261.014,616.256 261.014,615.475 C261.014,614.694 261.404,614.303 262.186,614.303 C264.196,614.303 265.951,613.391 267.451,611.569 C268.816,609.683 269.498,607.47 269.498,604.928 L269.498,604.147 L252.811,604.147 C251.956,604.147 251.219,603.92 250.6,603.467 C249.98,603.014 249.67,602.592 249.67,602.201 C249.67,601.811 250.485,600.639 252.115,598.686 C253.745,596.733 256.074,592.972 259.1,587.405 C262.126,581.837 263.639,575.438 263.639,568.209 C263.639,567.168 264.097,566.647 265.014,566.647 C265.212,566.647 265.521,566.712 265.943,566.842 C266.365,566.972 267.277,567.183 268.678,567.475 C270.079,567.766 271.527,567.912 273.021,567.912"/>
<path class="TimeSig" d="M273.021,618.084 C274.516,618.084 275.949,617.858 277.318,617.405 C278.688,616.951 279.665,616.725 280.248,616.725 C280.831,616.725 281.222,617.079 281.42,617.787 C281.42,617.86 281.352,618.058 281.217,618.381 L252.811,651.397 L269.498,651.397 L269.498,638.303 C269.498,636.678 270.446,635.506 272.342,634.787 C274.29,634.069 276.503,631.173 278.982,626.1 C279.17,625.704 279.462,625.506 279.857,625.506 C280.639,625.506 281.092,625.964 281.217,626.881 L281.217,651.397 L288.357,651.397 C289.264,651.397 289.751,651.884 289.818,652.858 C289.886,653.832 289.399,654.319 288.357,654.319 L281.217,654.319 L281.217,655.1 C281.217,657.704 281.868,659.918 283.17,661.74 C284.67,663.563 286.43,664.475 288.451,664.475 C289.232,664.475 289.623,664.865 289.623,665.647 C289.623,666.428 289.087,666.819 288.014,666.819 C286.941,666.819 284.938,666.608 282.006,666.186 C279.074,665.764 276.811,665.553 275.217,665.553 C273.623,665.553 271.41,665.764 268.576,666.186 C265.743,666.608 263.613,666.819 262.186,666.819 C261.404,666.819 261.014,666.428 261.014,665.647 C261.014,664.865 261.404,664.475 262.186,664.475 C264.196,664.475 265.951,663.563 267.451,661.74 C268.816,659.855 269.498,657.642 269.498,655.1 L269.498,654.319 L252.811,654.319 C251.956,654.319 251.219,654.092 250.6,653.639 C249.98,653.186 249.67,652.764 249.67,652.373 C249.67,651.983 250.485,650.811 252.115,648.858 C253.745,646.905 256.074,643.144 259.1,637.576 C262.126,632.009 263.639,625.61 263.639,618.381 C263.639,617.339 264.097,616.819 265.014,616.819 C265.212,616.819 265.521,616.884 265.943,617.014 C266.365,617.144 267.277,617.355 268.678,617.647 C270.079,617.938 271.527,618.084 273.021,618.084"/>
<path class="Rest" d="M1348.38,607.358 L1312.83,607.358 C1312.18,607.358 1311.85,607.035 1311.85,606.389 L1311.85,592.717 C1311.85,592.061 1312.18,591.733 1312.83,591.733 L1348.38,591.733 C1349.02,591.733 1349.35,592.061 1349.35,592.717 L1349.35,606.389 C1349.35,607.035 1349.02,607.358 1348.38,607.358"/>
<path class="Rest" d="M2595.55,607.358 L2560,607.358 C2559.35,607.358 2559.02,607.035 2559.02,606.389 L2559.02,592.717 C2559.02,592.061 2559.35,591.733 2560,591.733 L2595.55,591.733 C2596.2,591.733 2596.52,592.061 2596.52,592.717 L2596.52,606.389 C2596.52,607.035 2596.2,607.358 2595.55,607.358"/>
</svg>
