<?xml version="1.0" encoding="UTF-8" standalone="no"?>
<svg width="2977.2px" height="4208.4px" viewBox="0 0 2977.2 4208.4"
 xmlns="http://www.w3.org/2000/svg" xmlns:xlink="http://www.w3.org/1999/xlink" version="1.2" baseProfile="tiny">
<title>E_Phrygian_Scale_1.mscx</title>
<desc>Generated by MuseScore Studio 4.3.1</desc>
<path class="" fill="#ffffff" fill-rule="evenodd" d="M0,0 L2977.2,0 L2977.2,4208.4 L0,4208.4 L0,0 "/>
<polyline class="StaffLines" fill="none" stroke="#000000" stroke-width="2.00" stroke-linejoin="bevel" points="141.732,566.733 2835.47,566.733"/>
<polyline class="StaffLines" fill="none" stroke="#000000" stroke-width="2.00" stroke-linejoin="bevel" points="141.732,591.733 2835.47,591.733"/>
<polyline class="StaffLines" fill="none" stroke="#000000" stroke-width="2.00" stroke-linejoin="bevel" points="141.732,616.733 2835.47,616.733"/>
<polyline class="StaffLines" fill="none" stroke="#000000" stroke-width="2.00" stroke-linejoin="bevel" points="141.732,641.733 2835.47,641.733"/>
<polyline class="StaffLines" fill="none" stroke="#000000" stroke-width="2.00" stroke-linejoin="bevel" points="141.732,666.733 2835.47,666.733"/>
<polyline class="BarLine" fill="none" stroke="#000000" stroke-width="4.00" stroke-linejoin="bevel" points="2802.72,565.733 2802.72,667.733"/>
<polyline class="BarLine" fill="none" stroke="#000000" stroke-width="12.50" stroke-linejoin="bevel" points="2829.22,565.733 2829.22,667.733"/>
<polyline class="BarLine" fill="none" stroke="#000000" stroke-width="4.00" stroke-linejoin="bevel" points="2180.26,565.733 2180.26,667.733"/>
<polyline class="BarLine" fill="none" stroke="#000000" stroke-width="4.00" stroke-linejoin="bevel" points="935.334,565.733 935.334,667.733"/>
<polyline class="BarLine" fill="none" stroke="#000000" stroke-width="4.00" stroke-linejoin="bevel" points="1557.8,565.733 1557.8,667.733"/>
<polyline class="LedgerLine" fill="none" stroke="#000000" stroke-width="4.00" stroke-linejoin="bevel" points="2197.76,541.733 2249.67,541.733"/>
<polyline class="LedgerLine" fill="none" stroke="#000000" stroke-width="4.00" stroke-linejoin="bevel" points="1249.57,541.733 1301.48,541.733"/>
<polyline class="LedgerLine" fill="none" stroke="#000000" stroke-width="4.00" stroke-linejoin="bevel" points="1249.57,516.733 1301.48,516.733"/>
<polyline class="LedgerLine" fill="none" stroke="#000000" stroke-width="4.00" stroke-linejoin="bevel" points="1397.93,541.733 1449.84,541.733"/>
<polyline class="LedgerLine" fill="none" stroke="#000000" stroke-width="4.00" stroke-linejoin="bevel" points="1397.93,516.733 1449.84,516.733"/>
<polyline class="LedgerLine" fill="none" stroke="#000000" stroke-width="4.00" stroke-linejoin="bevel" points="1397.93,491.733 1449.84,491.733"/>
<polyline class="LedgerLine" fill="none" stroke="#000000" stroke-width="4.00" stroke-linejoin="bevel" points="1575.3,541.733 1627.21,541.733"/>
<polyline class="LedgerLine" fill="none" stroke="#000000" stroke-width="4.00" stroke-linejoin="bevel" points="1575.3,516.733 1627.21,516.733"/>
<polyline class="LedgerLine" fill="none" stroke="#000000" stroke-width="4.00" stroke-linejoin="bevel" points="1575.3,491.733 1627.21,491.733"/>
<polyline class="LedgerLine" fill="none" stroke="#000000" stroke-width="4.00" stroke-linejoin="bevel" points="1723.66,541.733 1775.58,541.733"/>
<polyline class="LedgerLine" fill="none" stroke="#000000" stroke-width="4.00" stroke-linejoin="bevel" points="1723.66,516.733 1775.58,516.733"/>
<polyline class="LedgerLine" fill="none" stroke="#000000" stroke-width="4.00" stroke-linejoin="bevel" points="1872.03,541.733 1923.94,541.733"/>
<polyline class="LedgerLine" fill="none" stroke="#000000" stroke-width="4.00" stroke-linejoin="bevel" points="1872.03,516.733 1923.94,516.733"/>
<polyline class="LedgerLine" fill="none" stroke="#000000" stroke-width="4.00" stroke-linejoin="bevel" points="2020.39,541.733 2072.31,541.733"/>
<polyline class="LedgerLine" fill="none" stroke="#000000" stroke-width="4.00" stroke-linejoin="bevel" points="1101.2,541.733 1153.11,541.733"/>
<polyline class="LedgerLine" fill="none" stroke="#000000" stroke-width="4.00" stroke-linejoin="bevel" points="952.834,541.733 1004.75,541.733"/>
<polyline class="LedgerLine" fill="none" stroke="#000000" stroke-width="4.00" stroke-linejoin="bevel" points="775.469,541.733 827.383,541.733"/>
<polyline class="LedgerLine" fill="none" stroke="#000000" stroke-width="4.00" stroke-linejoin="bevel" points="1101.2,516.733 1153.11,516.733"/>
<polyline class="Stem" fill="none" stroke="#000000" stroke-width="3.25" stroke-linejoin="bevel" points="786.594,547.602 786.594,629.233"/>
<polyline class="Stem" fill="none" stroke="#000000" stroke-width="3.25" stroke-linejoin="bevel" points="2031.52,535.102 2031.52,616.733"/>
<polyline class="Stem" fill="none" stroke="#000000" stroke-width="3.25" stroke-linejoin="bevel" points="2653.98,585.102 2653.98,666.733"/>
<polyline class="Stem" fill="none" stroke="#000000" stroke-width="3.25" stroke-linejoin="bevel" points="341.498,585.102 341.498,666.733"/>
<polyline class="Stem" fill="none" stroke="#000000" stroke-width="3.25" stroke-linejoin="bevel" points="1883.15,522.602 1883.15,616.733"/>
<polyline class="Stem" fill="none" stroke="#000000" stroke-width="3.25" stroke-linejoin="bevel" points="489.863,572.602 489.863,654.233"/>
<polyline class="Stem" fill="none" stroke="#000000" stroke-width="3.25" stroke-linejoin="bevel" points="1734.79,510.102 1734.79,616.733"/>
<polyline class="Stem" fill="none" stroke="#000000" stroke-width="3.25" stroke-linejoin="bevel" points="2505.61,572.602 2505.61,654.233"/>
<polyline class="Stem" fill="none" stroke="#000000" stroke-width="3.25" stroke-linejoin="bevel" points="638.229,560.102 638.229,641.733"/>
<polyline class="Stem" fill="none" stroke="#000000" stroke-width="3.25" stroke-linejoin="bevel" points="1586.42,497.602 1586.42,616.733"/>
<polyline class="Stem" fill="none" stroke="#000000" stroke-width="3.25" stroke-linejoin="bevel" points="2357.25,560.102 2357.25,641.733"/>
<polyline class="Stem" fill="none" stroke="#000000" stroke-width="3.25" stroke-linejoin="bevel" points="963.959,535.102 963.959,616.733"/>
<polyline class="Stem" fill="none" stroke="#000000" stroke-width="3.25" stroke-linejoin="bevel" points="1112.32,522.602 1112.32,616.733"/>
<polyline class="Stem" fill="none" stroke="#000000" stroke-width="3.25" stroke-linejoin="bevel" points="1409.06,497.602 1409.06,616.733"/>
<polyline class="Stem" fill="none" stroke="#000000" stroke-width="3.25" stroke-linejoin="bevel" points="2208.88,547.602 2208.88,629.233"/>
<polyline class="Stem" fill="none" stroke="#000000" stroke-width="3.25" stroke-linejoin="bevel" points="1260.69,510.102 1260.69,616.733"/>
<path class="Note" d="M2377.59,540.467 C2380.72,540.467 2383.32,541.248 2385.4,542.811 C2387.49,544.373 2388.53,546.618 2388.53,549.545 C2388.53,554.035 2386.2,558.233 2381.55,562.139 C2376.9,566.045 2371.9,567.998 2366.56,567.998 C2363.43,567.998 2360.8,567.186 2358.65,565.561 C2356.63,563.8 2355.62,561.587 2355.62,558.92 C2355.62,554.556 2357.93,550.389 2362.56,546.42 C2367.18,542.451 2372.2,540.467 2377.59,540.467"/>
<path class="Note" d="M2229.23,527.967 C2232.35,527.967 2234.95,528.748 2237.04,530.311 C2239.12,531.873 2240.16,534.118 2240.16,537.045 C2240.16,541.535 2237.84,545.733 2233.19,549.639 C2228.54,553.545 2223.54,555.498 2218.19,555.498 C2215.07,555.498 2212.43,554.686 2210.29,553.061 C2208.27,551.3 2207.26,549.087 2207.26,546.42 C2207.26,542.056 2209.57,537.889 2214.19,533.92 C2218.82,529.951 2223.83,527.967 2229.23,527.967"/>
<path class="Note" d="M2525.96,552.967 C2529.08,552.967 2531.69,553.748 2533.77,555.311 C2535.85,556.873 2536.89,559.118 2536.89,562.045 C2536.89,566.535 2534.57,570.733 2529.92,574.639 C2525.27,578.545 2520.27,580.498 2514.93,580.498 C2511.8,580.498 2509.16,579.686 2507.02,578.061 C2505,576.3 2503.99,574.087 2503.99,571.42 C2503.99,567.056 2506.3,562.889 2510.93,558.92 C2515.55,554.951 2520.56,552.967 2525.96,552.967"/>
<path class="Note" d="M2051.86,515.467 C2054.99,515.467 2057.59,516.248 2059.67,517.811 C2061.76,519.373 2062.8,521.618 2062.8,524.545 C2062.8,529.035 2060.47,533.233 2055.82,537.139 C2051.17,541.045 2046.17,542.998 2040.83,542.998 C2037.7,542.998 2035.07,542.186 2032.92,540.561 C2030.9,538.8 2029.89,536.587 2029.89,533.92 C2029.89,529.556 2032.2,525.389 2036.83,521.42 C2041.45,517.451 2046.46,515.467 2051.86,515.467"/>
<path class="Note" d="M1429.4,477.967 C1432.52,477.967 1435.13,478.748 1437.21,480.311 C1439.29,481.873 1440.34,484.118 1440.34,487.045 C1440.34,491.535 1438.01,495.733 1433.36,499.639 C1428.71,503.545 1423.71,505.498 1418.37,505.498 C1415.24,505.498 1412.61,504.686 1410.46,503.061 C1408.44,501.3 1407.43,499.087 1407.43,496.42 C1407.43,492.055 1409.74,487.889 1414.37,483.92 C1418.99,479.951 1424,477.967 1429.4,477.967"/>
<path class="Note" d="M2674.32,565.467 C2677.45,565.467 2680.05,566.248 2682.13,567.811 C2684.22,569.373 2685.26,571.618 2685.26,574.545 C2685.26,579.035 2682.93,583.233 2678.28,587.139 C2673.63,591.045 2668.63,592.998 2663.29,592.998 C2660.17,592.998 2657.53,592.186 2655.38,590.561 C2653.36,588.8 2652.35,586.587 2652.35,583.92 C2652.35,579.556 2654.67,575.389 2659.29,571.42 C2663.92,567.451 2668.93,565.467 2674.32,565.467"/>
<path class="Note" d="M1903.5,502.967 C1906.62,502.967 1909.22,503.748 1911.31,505.311 C1913.39,506.873 1914.43,509.118 1914.43,512.045 C1914.43,516.535 1912.11,520.733 1907.46,524.639 C1902.81,528.545 1897.81,530.498 1892.46,530.498 C1889.34,530.498 1886.7,529.686 1884.56,528.061 C1882.54,526.3 1881.53,524.087 1881.53,521.42 C1881.53,517.056 1883.84,512.889 1888.46,508.92 C1893.09,504.951 1898.1,502.967 1903.5,502.967"/>
<path class="Note" d="M1755.13,490.467 C1758.25,490.467 1760.86,491.248 1762.94,492.811 C1765.03,494.373 1766.07,496.618 1766.07,499.545 C1766.07,504.035 1763.74,508.233 1759.09,512.139 C1754.44,516.045 1749.44,517.998 1744.1,517.998 C1740.97,517.998 1738.34,517.186 1736.19,515.561 C1734.17,513.8 1733.16,511.587 1733.16,508.92 C1733.16,504.556 1735.47,500.389 1740.1,496.42 C1744.72,492.451 1749.73,490.467 1755.13,490.467"/>
<path class="Note" d="M1606.76,477.967 C1609.89,477.967 1612.49,478.748 1614.58,480.311 C1616.66,481.873 1617.7,484.118 1617.7,487.045 C1617.7,491.535 1615.38,495.733 1610.73,499.639 C1606.07,503.545 1601.08,505.498 1595.73,505.498 C1592.61,505.498 1589.97,504.686 1587.83,503.061 C1585.81,501.3 1584.8,499.087 1584.8,496.42 C1584.8,492.055 1587.11,487.889 1591.73,483.92 C1596.36,479.951 1601.37,477.967 1606.76,477.967"/>
<path class="Note" d="M1281.03,490.467 C1284.16,490.467 1286.76,491.248 1288.85,492.811 C1290.93,494.373 1291.97,496.618 1291.97,499.545 C1291.97,504.035 1289.65,508.233 1284.99,512.139 C1280.34,516.045 1275.35,517.998 1270,517.998 C1266.88,517.998 1264.24,517.186 1262.1,515.561 C1260.08,513.8 1259.07,511.587 1259.07,508.92 C1259.07,504.556 1261.38,500.389 1266,496.42 C1270.63,492.451 1275.64,490.467 1281.03,490.467"/>
<path class="Note" d="M1132.67,502.967 C1135.79,502.967 1138.4,503.748 1140.48,505.311 C1142.56,506.873 1143.61,509.118 1143.61,512.045 C1143.61,516.535 1141.28,520.733 1136.63,524.639 C1131.98,528.545 1126.98,530.498 1121.64,530.498 C1118.51,530.498 1115.88,529.686 1113.73,528.061 C1111.71,526.3 1110.7,524.087 1110.7,521.42 C1110.7,517.056 1113.01,512.889 1117.64,508.92 C1122.26,504.951 1127.27,502.967 1132.67,502.967"/>
<path class="Note" d="M984.303,515.467 C987.428,515.467 990.032,516.248 992.116,517.811 C994.199,519.373 995.241,521.618 995.241,524.545 C995.241,529.035 992.915,533.233 988.264,537.139 C983.613,541.045 978.616,542.998 973.272,542.998 C970.147,542.998 967.512,542.186 965.366,540.561 C963.345,538.8 962.334,536.587 962.334,533.92 C962.334,529.556 964.647,525.389 969.272,521.42 C973.897,517.451 978.907,515.467 984.303,515.467"/>
<path class="Note" d="M806.938,527.967 C810.063,527.967 812.667,528.748 814.75,530.311 C816.834,531.873 817.875,534.118 817.875,537.045 C817.875,541.535 815.55,545.733 810.899,549.639 C806.248,553.545 801.25,555.498 795.907,555.498 C792.782,555.498 790.146,554.686 788,553.061 C785.979,551.3 784.969,549.087 784.969,546.42 C784.969,542.056 787.282,537.889 791.907,533.92 C796.532,529.951 801.542,527.967 806.938,527.967"/>
<path class="Note" d="M658.573,540.467 C661.698,540.467 664.302,541.248 666.385,542.811 C668.468,544.373 669.51,546.618 669.51,549.545 C669.51,554.035 667.184,558.233 662.533,562.139 C657.882,566.045 652.885,567.998 647.541,567.998 C644.416,567.998 641.781,567.186 639.635,565.561 C637.614,563.8 636.604,561.587 636.604,558.92 C636.604,554.556 638.916,550.389 643.541,546.42 C648.166,542.451 653.177,540.467 658.573,540.467"/>
<path class="Note" d="M510.207,552.967 C513.332,552.967 515.936,553.748 518.02,555.311 C520.103,556.873 521.145,559.118 521.145,562.045 C521.145,566.535 518.819,570.733 514.168,574.639 C509.517,578.545 504.52,580.498 499.176,580.498 C496.051,580.498 493.416,579.686 491.27,578.061 C489.249,576.3 488.238,574.087 488.238,571.42 C488.238,567.056 490.551,562.889 495.176,558.92 C499.801,554.951 504.811,552.967 510.207,552.967"/>
<path class="Note" d="M361.842,565.467 C364.967,565.467 367.571,566.248 369.654,567.811 C371.738,569.373 372.779,571.618 372.779,574.545 C372.779,579.035 370.454,583.233 365.803,587.139 C361.152,591.045 356.154,592.998 350.811,592.998 C347.686,592.998 345.05,592.186 342.904,590.561 C340.884,588.8 339.873,586.587 339.873,583.92 C339.873,579.556 342.186,575.389 346.811,571.42 C351.436,567.451 356.446,565.467 361.842,565.467"/>
<path class="Clef" d="M203.623,673.858 L203.623,671.717 C203.56,670.613 203.399,668.889 203.139,666.545 C199.889,667.066 196.993,667.326 194.451,667.326 C185.337,667.326 177.605,663.727 171.256,656.53 C164.907,649.332 161.732,640.754 161.732,630.795 C161.732,628.129 162.253,624.923 163.295,621.178 C164.337,617.433 165.297,614.925 166.178,613.655 C167.058,612.384 168.378,610.155 170.139,606.967 C170.659,605.988 172.352,603.837 175.217,600.514 C175.738,599.806 176.193,599.222 176.584,598.764 C176.975,598.306 177.607,597.49 178.482,596.319 C179.357,595.147 180.3,594.056 181.31,593.045 C182.321,592.035 183.217,591.058 183.998,590.115 C184.779,589.173 185.498,588.379 186.154,587.733 C183.81,579.983 182.378,574.024 181.857,569.858 C181.337,565.691 181.076,560.579 181.076,554.522 C181.076,548.464 182.378,542.962 184.982,538.014 C187.514,532.879 191.06,528.681 195.623,525.42 C195.883,525.222 196.225,525.123 196.646,525.123 C197.068,525.123 197.378,525.222 197.576,525.42 C201.087,529.649 204.128,535.149 206.701,541.92 C209.274,548.691 210.56,555.024 210.56,560.92 C210.56,566.816 209.066,572.498 206.076,577.967 C202.691,583.759 198.326,589.748 192.982,595.936 C194.347,600.227 196.17,606.962 198.451,616.139 L199.045,616.139 C199.305,616.076 199.529,616.045 199.717,616.045 C207.081,616.045 213.089,618.634 217.74,623.811 C222.391,628.988 224.717,634.962 224.717,641.733 C224.717,650.129 221.238,656.899 214.279,662.045 C212.258,663.545 209.878,664.717 207.139,665.561 C207.472,669.79 207.639,672.605 207.639,674.006 C207.639,675.407 207.571,677.899 207.435,681.483 C207.373,687.597 205.29,692.837 201.185,697.201 C197.081,701.566 192.394,703.748 187.123,703.748 C181.852,703.748 177.36,701.876 173.646,698.131 C169.933,694.386 168.076,689.847 168.076,684.514 C168.076,681.712 169.154,679.332 171.31,677.373 C173.519,675.425 176.006,674.451 178.771,674.451 C181.537,674.451 183.8,675.462 185.56,677.483 C187.383,679.368 188.295,681.644 188.295,684.311 C188.295,686.977 187.383,689.222 185.56,691.045 C183.738,692.868 181.555,693.78 179.014,693.78 C177.972,693.78 176.967,693.587 175.998,693.201 C178.863,697.431 182.54,699.545 187.029,699.545 C191.519,699.545 195.36,697.691 198.553,693.983 C201.745,690.274 203.342,685.91 203.342,680.889 L203.623,673.858 M206.748,661.561 C210.133,660.321 212.821,658.123 214.81,654.967 C216.8,651.811 217.795,648.67 217.795,645.545 C217.795,640.92 216.199,636.785 213.006,633.139 C209.813,629.493 205.774,627.441 200.889,626.983 C203.691,640.722 205.644,652.248 206.748,661.561 M168.967,638.998 C168.967,645.446 171.537,651.079 176.678,655.897 C181.818,660.714 187.842,663.123 194.748,663.123 C197.477,663.123 200.144,662.925 202.748,662.53 C201.706,652.634 199.654,640.785 196.592,626.983 C192.758,627.379 189.782,628.699 187.662,630.944 C185.542,633.188 184.482,635.743 184.482,638.608 C184.482,643.556 187.123,647.561 192.404,650.623 C192.852,650.884 193.076,651.324 193.076,651.944 C193.076,652.563 192.865,653.1 192.443,653.553 C192.021,654.006 191.649,654.233 191.326,654.233 C191.003,654.233 190.581,654.17 190.06,654.045 C182.435,649.879 178.623,643.592 178.623,635.186 C178.623,631.217 180.024,627.41 182.826,623.764 C185.753,620.118 189.56,617.774 194.248,616.733 C192.425,609.441 190.93,603.743 189.764,599.639 C180.847,609.67 175.31,617.092 173.154,621.905 C170.363,628.155 168.967,633.852 168.967,638.998 M201.576,539.686 C196.691,542.092 192.834,545.574 190.006,550.131 C187.178,554.688 185.764,559.472 185.764,564.483 C185.764,569.493 186.935,575.972 189.279,583.92 C193.967,578.254 197.514,572.946 199.92,567.998 C202.326,563.05 203.529,558.152 203.529,553.303 C203.529,548.454 202.878,543.915 201.576,539.686"/>
<path class="TimeSig" d="M273.021,567.912 C274.516,567.912 275.949,567.686 277.318,567.233 C278.688,566.78 279.665,566.553 280.248,566.553 C280.831,566.553 281.222,566.907 281.42,567.615 C281.42,567.688 281.352,567.886 281.217,568.209 L252.811,601.225 L269.498,601.225 L269.498,588.131 C269.498,586.506 270.446,585.334 272.342,584.615 C274.29,583.897 276.503,581.001 278.982,575.928 C279.17,575.532 279.462,575.334 279.857,575.334 C280.639,575.334 281.092,575.793 281.217,576.709 L281.217,601.225 L288.357,601.225 C289.264,601.225 289.751,601.712 289.818,602.686 C289.886,603.66 289.399,604.147 288.357,604.147 L281.217,604.147 L281.217,604.928 C281.217,607.532 281.868,609.746 283.17,611.569 C284.67,613.391 286.43,614.303 288.451,614.303 C289.232,614.303 289.623,614.694 289.623,615.475 C289.623,616.256 289.087,616.647 288.014,616.647 C286.941,616.647 284.938,616.436 282.006,616.014 C279.074,615.592 276.811,615.381 275.217,615.381 C273.623,615.381 271.41,615.592 268.576,616.014 C265.743,616.436 263.613,616.647 262.186,616.647 C261.404,616.647 261.014,616.256 261.014,615.475 C261.014,614.694 261.404,614.303 262.186,614.303 C264.196,614.303 265.951,613.391 267.451,611.569 C268.816,609.683 269.498,607.47 269.498,604.928 L269.498,604.147 L252.811,604.147 C251.956,604.147 251.219,603.92 250.6,603.467 C249.98,603.014 249.67,602.592 249.67,602.201 C249.67,601.811 250.485,600.639 252.115,598.686 C253.745,596.733 256.074,592.972 259.1,587.405 C262.126,581.837 263.639,575.438 263.639,568.209 C263.639,567.168 264.097,566.647 265.014,566.647 C265.212,566.647 265.521,566.712 265.943,566.842 C266.365,566.972 267.277,567.183 268.678,567.475 C270.079,567.766 271.527,567.912 273.021,567.912"/>
<path class="TimeSig" d="M273.021,618.084 C274.516,618.084 275.949,617.858 277.318,617.405 C278.688,616.951 279.665,616.725 280.248,616.725 C280.831,616.725 281.222,617.079 281.42,617.787 C281.42,617.86 281.352,618.058 281.217,618.381 L252.811,651.397 L269.498,651.397 L269.498,638.303 C269.498,636.678 270.446,635.506 272.342,634.787 C274.29,634.069 276.503,631.173 278.982,626.1 C279.17,625.704 279.462,625.506 279.857,625.506 C280.639,625.506 281.092,625.964 281.217,626.881 L281.217,651.397 L288.357,651.397 C289.264,651.397 289.751,651.884 289.818,652.858 C289.886,653.832 289.399,654.319 288.357,654.319 L281.217,654.319 L281.217,655.1 C281.217,657.704 281.868,659.918 283.17,661.74 C284.67,663.563 286.43,664.475 288.451,664.475 C289.232,664.475 289.623,664.865 289.623,665.647 C289.623,666.428 289.087,666.819 288.014,666.819 C286.941,666.819 284.938,666.608 282.006,666.186 C279.074,665.764 276.811,665.553 275.217,665.553 C273.623,665.553 271.41,665.764 268.576,666.186 C265.743,666.608 263.613,666.819 262.186,666.819 C261.404,666.819 261.014,666.428 261.014,665.647 C261.014,664.865 261.404,664.475 262.186,664.475 C264.196,664.475 265.951,663.563 267.451,661.74 C268.816,659.855 269.498,657.642 269.498,655.1 L269.498,654.319 L252.811,654.319 C251.956,654.319 251.219,654.092 250.6,653.639 C249.98,653.186 249.67,652.764 249.67,652.373 C249.67,651.983 250.485,650.811 252.115,648.858 C253.745,646.905 256.074,643.144 259.1,637.576 C262.126,632.009 263.639,625.61 263.639,618.381 C263.639,617.339 264.097,616.819 265.014,616.819 C265.212,616.819 265.521,616.884 265.943,617.014 C266.365,617.144 267.277,617.355 268.678,617.647 C270.079,617.938 271.527,618.084 273.021,618.084"/>
</svg>
