<?xml version="1.0" encoding="UTF-8" standalone="no"?>
<svg width="2977.2px" height="4208.4px" viewBox="0 0 2977.2 4208.4"
 xmlns="http://www.w3.org/2000/svg" xmlns:xlink="http://www.w3.org/1999/xlink" version="1.2" baseProfile="tiny">
<title>C_Maj_Pentatonic.mscx</title>
<desc>Generated by MuseScore Studio 4.3.1</desc>
<path class="" fill="#ffffff" fill-rule="evenodd" d="M0,0 L2977.2,0 L2977.2,4208.4 L0,4208.4 L0,0 "/>
<polyline class="StaffLines" fill="none" stroke="#000000" stroke-width="2.00" stroke-linejoin="bevel" points="141.732,316.732 2835.47,316.732"/>
<polyline class="StaffLines" fill="none" stroke="#000000" stroke-width="2.00" stroke-linejoin="bevel" points="141.732,341.732 2835.47,341.732"/>
<polyline class="StaffLines" fill="none" stroke="#000000" stroke-width="2.00" stroke-linejoin="bevel" points="141.732,366.733 2835.47,366.733"/>
<polyline class="StaffLines" fill="none" stroke="#000000" stroke-width="2.00" stroke-linejoin="bevel" points="141.732,391.733 2835.47,391.733"/>
<polyline class="StaffLines" fill="none" stroke="#000000" stroke-width="2.00" stroke-linejoin="bevel" points="141.732,416.733 2835.47,416.733"/>
<polyline class="BarLine" fill="none" stroke="#000000" stroke-width="4.00" stroke-linejoin="bevel" points="1059.2,315.732 1059.2,417.733"/>
<polyline class="BarLine" fill="none" stroke="#000000" stroke-width="4.00" stroke-linejoin="bevel" points="2802.72,315.732 2802.72,417.733"/>
<polyline class="BarLine" fill="none" stroke="#000000" stroke-width="12.50" stroke-linejoin="bevel" points="2829.22,315.732 2829.22,417.733"/>
<polyline class="BarLine" fill="none" stroke="#000000" stroke-width="4.00" stroke-linejoin="bevel" points="2553.64,315.732 2553.64,417.733"/>
<polyline class="BarLine" fill="none" stroke="#000000" stroke-width="4.00" stroke-linejoin="bevel" points="2304.57,315.732 2304.57,417.733"/>
<polyline class="BarLine" fill="none" stroke="#000000" stroke-width="4.00" stroke-linejoin="bevel" points="1308.27,315.732 1308.27,417.733"/>
<polyline class="BarLine" fill="none" stroke="#000000" stroke-width="4.00" stroke-linejoin="bevel" points="2055.49,315.732 2055.49,417.733"/>
<polyline class="BarLine" fill="none" stroke="#000000" stroke-width="4.00" stroke-linejoin="bevel" points="561.046,315.732 561.046,417.733"/>
<polyline class="BarLine" fill="none" stroke="#000000" stroke-width="4.00" stroke-linejoin="bevel" points="810.12,315.732 810.12,417.733"/>
<polyline class="BarLine" fill="none" stroke="#000000" stroke-width="4.00" stroke-linejoin="bevel" points="1806.42,315.732 1806.42,417.733"/>
<polyline class="BarLine" fill="none" stroke="#000000" stroke-width="4.00" stroke-linejoin="bevel" points="1557.34,315.732 1557.34,417.733"/>
<polyline class="LedgerLine" fill="none" stroke="#000000" stroke-width="4.00" stroke-linejoin="bevel" points="827.62,291.732 881.339,291.732"/>
<polyline class="LedgerLine" fill="none" stroke="#000000" stroke-width="4.00" stroke-linejoin="bevel" points="2072.99,291.732 2126.71,291.732"/>
<polyline class="Stem" fill="none" stroke="#000000" stroke-width="3.25" stroke-linejoin="bevel" points="948.331,309.132 948.331,391.733"/>
<polyline class="Stem" fill="none" stroke="#000000" stroke-width="3.25" stroke-linejoin="bevel" points="2442.78,346.632 2442.78,429.233"/>
<polyline class="Stem" fill="none" stroke="#000000" stroke-width="3.25" stroke-linejoin="bevel" points="2333.19,334.132 2333.19,416.733"/>
<polyline class="Stem" fill="none" stroke="#000000" stroke-width="3.25" stroke-linejoin="bevel" points="340.596,359.132 340.596,435.483"/>
<polyline class="Stem" fill="none" stroke="#000000" stroke-width="3.25" stroke-linejoin="bevel" points="2193.71,309.132 2193.71,391.733"/>
<polyline class="Stem" fill="none" stroke="#000000" stroke-width="3.25" stroke-linejoin="bevel" points="2084.12,296.632 2084.12,379.233"/>
<polyline class="Stem" fill="none" stroke="#000000" stroke-width="3.25" stroke-linejoin="bevel" points="450.182,346.632 450.182,429.233"/>
<polyline class="Stem" fill="none" stroke="#000000" stroke-width="3.25" stroke-linejoin="bevel" points="1944.63,309.132 1944.63,391.733"/>
<polyline class="Stem" fill="none" stroke="#000000" stroke-width="3.25" stroke-linejoin="bevel" points="1835.04,334.132 1835.04,416.733"/>
<polyline class="Stem" fill="none" stroke="#000000" stroke-width="3.25" stroke-linejoin="bevel" points="589.671,334.132 589.671,416.733"/>
<polyline class="Stem" fill="none" stroke="#000000" stroke-width="3.25" stroke-linejoin="bevel" points="1695.56,346.632 1695.56,429.233"/>
<polyline class="Stem" fill="none" stroke="#000000" stroke-width="3.25" stroke-linejoin="bevel" points="1585.97,359.132 1585.97,435.483"/>
<polyline class="Stem" fill="none" stroke="#000000" stroke-width="3.25" stroke-linejoin="bevel" points="699.257,309.132 699.257,391.733"/>
<polyline class="Stem" fill="none" stroke="#000000" stroke-width="3.25" stroke-linejoin="bevel" points="2582.27,359.132 2582.27,435.483"/>
<polyline class="Stem" fill="none" stroke="#000000" stroke-width="3.25" stroke-linejoin="bevel" points="1336.89,359.132 1336.89,435.483"/>
<polyline class="Stem" fill="none" stroke="#000000" stroke-width="3.25" stroke-linejoin="bevel" points="838.745,296.632 838.745,379.233"/>
<polyline class="Stem" fill="none" stroke="#000000" stroke-width="3.25" stroke-linejoin="bevel" points="1197.41,346.632 1197.41,429.233"/>
<polyline class="Stem" fill="none" stroke="#000000" stroke-width="3.25" stroke-linejoin="bevel" points="1087.82,334.132 1087.82,416.733"/>
<path class="Note" d="M1591.77,364.873 C1593.65,364.873 1597.61,362.92 1603.63,359.014 C1609.66,355.107 1613.21,352.488 1614.28,351.154 C1615.35,349.821 1615.89,348.634 1615.89,347.592 C1615.89,346.55 1615.47,345.623 1614.62,344.811 C1613.77,343.998 1612.79,343.592 1611.69,343.592 C1609.74,343.592 1605.75,345.561 1599.73,349.498 C1593.7,353.436 1590.17,356.055 1589.13,357.357 C1588.08,358.66 1587.56,359.831 1587.56,360.873 C1587.56,361.915 1587.97,362.842 1588.79,363.654 C1589.61,364.467 1590.6,364.873 1591.77,364.873 M1610.72,340.467 C1616.31,340.467 1619.11,342.873 1619.11,347.686 C1619.11,350.029 1618.43,352.748 1617.06,355.842 C1615.7,358.936 1613.88,361.295 1611.59,362.92 C1606.58,366.305 1600.3,367.998 1592.75,367.998 C1587.15,367.998 1584.34,365.592 1584.34,360.779 C1584.34,358.634 1585.01,355.964 1586.34,352.772 C1587.68,349.579 1589.52,347.17 1591.86,345.545 C1596.88,342.16 1603.17,340.467 1610.72,340.467"/>
<path class="Note" d="M2588.07,364.873 C2589.95,364.873 2593.91,362.92 2599.93,359.014 C2605.96,355.107 2609.51,352.488 2610.58,351.154 C2611.65,349.821 2612.19,348.634 2612.19,347.592 C2612.19,346.55 2611.77,345.623 2610.92,344.811 C2610.07,343.998 2609.09,343.592 2607.99,343.592 C2606.04,343.592 2602.05,345.561 2596.03,349.498 C2590,353.436 2586.47,356.055 2585.42,357.357 C2584.38,358.66 2583.86,359.831 2583.86,360.873 C2583.86,361.915 2584.27,362.842 2585.09,363.654 C2585.91,364.467 2586.9,364.873 2588.07,364.873 M2607.02,340.467 C2612.61,340.467 2615.41,342.873 2615.41,347.686 C2615.41,350.029 2614.73,352.748 2613.36,355.842 C2612,358.936 2610.17,361.295 2607.89,362.92 C2602.88,366.305 2596.6,367.998 2589.05,367.998 C2583.45,367.998 2580.64,365.592 2580.64,360.779 C2580.64,358.634 2581.31,355.964 2582.64,352.772 C2583.98,349.579 2585.82,347.17 2588.16,345.545 C2593.18,342.16 2599.47,340.467 2607.02,340.467"/>
<path class="Note" d="M2448.58,352.373 C2450.46,352.373 2454.42,350.42 2460.44,346.514 C2466.47,342.607 2470.02,339.988 2471.09,338.654 C2472.17,337.321 2472.7,336.134 2472.7,335.092 C2472.7,334.05 2472.28,333.123 2471.43,332.311 C2470.58,331.498 2469.6,331.092 2468.5,331.092 C2466.55,331.092 2462.56,333.061 2456.54,336.998 C2450.51,340.936 2446.98,343.555 2445.94,344.857 C2444.89,346.16 2444.37,347.331 2444.37,348.373 C2444.37,349.415 2444.78,350.342 2445.6,351.154 C2446.42,351.967 2447.41,352.373 2448.58,352.373 M2467.53,327.967 C2473.12,327.967 2475.92,330.373 2475.92,335.186 C2475.92,337.529 2475.24,340.248 2473.87,343.342 C2472.51,346.436 2470.69,348.795 2468.41,350.42 C2463.39,353.805 2457.11,355.498 2449.56,355.498 C2443.96,355.498 2441.16,353.092 2441.16,348.279 C2441.16,346.134 2441.82,343.464 2443.16,340.272 C2444.49,337.079 2446.33,334.67 2448.67,333.045 C2453.69,329.66 2459.98,327.967 2467.53,327.967"/>
<path class="Note" d="M844.542,302.373 C846.428,302.373 850.383,300.42 856.409,296.514 C862.435,292.607 865.985,289.988 867.058,288.654 C868.131,287.321 868.667,286.133 868.667,285.092 C868.667,284.05 868.243,283.123 867.394,282.311 C866.545,281.498 865.568,281.092 864.464,281.092 C862.516,281.092 858.529,283.061 852.503,286.998 C846.477,290.936 842.943,293.555 841.902,294.857 C840.86,296.16 840.339,297.331 840.339,298.373 C840.339,299.415 840.748,300.342 841.566,301.154 C842.383,301.967 843.375,302.373 844.542,302.373 M863.495,277.967 C869.089,277.967 871.886,280.373 871.886,285.186 C871.886,287.529 871.204,290.248 869.839,293.342 C868.474,296.436 866.652,298.795 864.37,300.42 C859.36,303.805 853.079,305.498 845.527,305.498 C839.922,305.498 837.12,303.092 837.12,298.279 C837.12,296.133 837.787,293.464 839.12,290.272 C840.454,287.079 842.292,284.67 844.636,283.045 C849.657,279.66 855.943,277.967 863.495,277.967"/>
<path class="Note" d="M2338.99,339.873 C2340.88,339.873 2344.83,337.92 2350.86,334.014 C2356.88,330.107 2360.43,327.488 2361.51,326.154 C2362.58,324.821 2363.12,323.634 2363.12,322.592 C2363.12,321.55 2362.69,320.623 2361.84,319.811 C2360.99,318.998 2360.02,318.592 2358.91,318.592 C2356.96,318.592 2352.98,320.561 2346.95,324.498 C2340.93,328.436 2337.39,331.055 2336.35,332.357 C2335.31,333.66 2334.79,334.831 2334.79,335.873 C2334.79,336.915 2335.2,337.842 2336.01,338.654 C2336.83,339.467 2337.82,339.873 2338.99,339.873 M2357.94,315.467 C2363.54,315.467 2366.33,317.873 2366.33,322.686 C2366.33,325.029 2365.65,327.748 2364.29,330.842 C2362.92,333.936 2361.1,336.295 2358.82,337.92 C2353.81,341.305 2347.53,342.998 2339.98,342.998 C2334.37,342.998 2331.57,340.592 2331.57,335.779 C2331.57,333.634 2332.24,330.964 2333.57,327.772 C2334.9,324.579 2336.74,322.17 2339.08,320.545 C2344.11,317.16 2350.39,315.467 2357.94,315.467"/>
<path class="Note" d="M954.128,314.873 C956.014,314.873 959.97,312.92 965.996,309.014 C972.022,305.107 975.571,302.488 976.644,301.154 C977.717,299.821 978.253,298.634 978.253,297.592 C978.253,296.55 977.829,295.623 976.98,294.811 C976.131,293.998 975.154,293.592 974.05,293.592 C972.102,293.592 968.115,295.561 962.089,299.498 C956.063,303.436 952.529,306.055 951.488,307.357 C950.446,308.66 949.925,309.831 949.925,310.873 C949.925,311.915 950.334,312.842 951.152,313.654 C951.97,314.467 952.962,314.873 954.128,314.873 M973.081,290.467 C978.675,290.467 981.472,292.873 981.472,297.686 C981.472,300.029 980.79,302.748 979.425,305.842 C978.061,308.936 976.238,311.295 973.956,312.92 C968.946,316.305 962.665,317.998 955.113,317.998 C949.509,317.998 946.706,315.592 946.706,310.779 C946.706,308.634 947.373,305.964 948.706,302.772 C950.04,299.579 951.878,297.17 954.222,295.545 C959.243,292.16 965.529,290.467 973.081,290.467"/>
<path class="Note" d="M346.393,364.873 C348.278,364.873 352.234,362.92 358.26,359.014 C364.286,355.107 367.835,352.488 368.908,351.154 C369.981,349.821 370.518,348.634 370.518,347.592 C370.518,346.55 370.093,345.623 369.244,344.811 C368.395,343.998 367.419,343.592 366.315,343.592 C364.367,343.592 360.38,345.561 354.354,349.498 C348.328,353.436 344.794,356.055 343.752,357.357 C342.71,358.66 342.19,359.831 342.19,360.873 C342.19,361.915 342.598,362.842 343.416,363.654 C344.234,364.467 345.226,364.873 346.393,364.873 M365.346,340.467 C370.94,340.467 373.736,342.873 373.736,347.686 C373.736,350.029 373.054,352.748 371.69,355.842 C370.325,358.936 368.502,361.295 366.221,362.92 C361.21,366.305 354.929,367.998 347.377,367.998 C341.773,367.998 338.971,365.592 338.971,360.779 C338.971,358.634 339.637,355.964 340.971,352.772 C342.304,349.579 344.143,347.17 346.486,345.545 C351.507,342.16 357.794,340.467 365.346,340.467"/>
<path class="Note" d="M2199.5,314.873 C2201.39,314.873 2205.34,312.92 2211.37,309.014 C2217.4,305.107 2220.94,302.488 2222.02,301.154 C2223.09,299.821 2223.63,298.634 2223.63,297.592 C2223.63,296.55 2223.2,295.623 2222.35,294.811 C2221.5,293.998 2220.53,293.592 2219.42,293.592 C2217.48,293.592 2213.49,295.561 2207.46,299.498 C2201.44,303.436 2197.9,306.055 2196.86,307.357 C2195.82,308.66 2195.3,309.831 2195.3,310.873 C2195.3,311.915 2195.71,312.842 2196.53,313.654 C2197.34,314.467 2198.34,314.873 2199.5,314.873 M2218.46,290.467 C2224.05,290.467 2226.85,292.873 2226.85,297.686 C2226.85,300.029 2226.16,302.748 2224.8,305.842 C2223.43,308.936 2221.61,311.295 2219.33,312.92 C2214.32,316.305 2208.04,317.998 2200.49,317.998 C2194.88,317.998 2192.08,315.592 2192.08,310.779 C2192.08,308.634 2192.75,305.964 2194.08,302.772 C2195.41,299.579 2197.25,297.17 2199.6,295.545 C2204.62,292.16 2210.9,290.467 2218.46,290.467"/>
<path class="Note" d="M2089.92,302.373 C2091.8,302.373 2095.76,300.42 2101.78,296.514 C2107.81,292.607 2111.36,289.988 2112.43,288.654 C2113.5,287.321 2114.04,286.133 2114.04,285.092 C2114.04,284.05 2113.62,283.123 2112.77,282.311 C2111.92,281.498 2110.94,281.092 2109.84,281.092 C2107.89,281.092 2103.9,283.061 2097.88,286.998 C2091.85,290.936 2088.32,293.555 2087.28,294.857 C2086.23,296.16 2085.71,297.331 2085.71,298.373 C2085.71,299.415 2086.12,300.342 2086.94,301.154 C2087.76,301.967 2088.75,302.373 2089.92,302.373 M2108.87,277.967 C2114.46,277.967 2117.26,280.373 2117.26,285.186 C2117.26,287.529 2116.58,290.248 2115.21,293.342 C2113.85,296.436 2112.03,298.795 2109.74,300.42 C2104.73,303.805 2098.45,305.498 2090.9,305.498 C2085.3,305.498 2082.49,303.092 2082.49,298.279 C2082.49,296.133 2083.16,293.464 2084.49,290.272 C2085.83,287.079 2087.67,284.67 2090.01,283.045 C2095.03,279.66 2101.32,277.967 2108.87,277.967"/>
<path class="Note" d="M1093.62,339.873 C1095.5,339.873 1099.46,337.92 1105.48,334.014 C1111.51,330.107 1115.06,327.488 1116.13,326.154 C1117.21,324.821 1117.74,323.634 1117.74,322.592 C1117.74,321.55 1117.32,320.623 1116.47,319.811 C1115.62,318.998 1114.64,318.592 1113.54,318.592 C1111.59,318.592 1107.6,320.561 1101.58,324.498 C1095.55,328.436 1092.02,331.055 1090.98,332.357 C1089.93,333.66 1089.41,334.831 1089.41,335.873 C1089.41,336.915 1089.82,337.842 1090.64,338.654 C1091.46,339.467 1092.45,339.873 1093.62,339.873 M1112.57,315.467 C1118.16,315.467 1120.96,317.873 1120.96,322.686 C1120.96,325.029 1120.28,327.748 1118.91,330.842 C1117.55,333.936 1115.73,336.295 1113.45,337.92 C1108.43,341.305 1102.15,342.998 1094.6,342.998 C1089,342.998 1086.2,340.592 1086.2,335.779 C1086.2,333.634 1086.86,330.964 1088.2,327.772 C1089.53,324.579 1091.37,322.17 1093.71,320.545 C1098.73,317.16 1105.02,315.467 1112.57,315.467"/>
<path class="Note" d="M1203.2,352.373 C1205.09,352.373 1209.04,350.42 1215.07,346.514 C1221.1,342.607 1224.65,339.988 1225.72,338.654 C1226.79,337.321 1227.33,336.134 1227.33,335.092 C1227.33,334.05 1226.9,333.123 1226.05,332.311 C1225.21,331.498 1224.23,331.092 1223.12,331.092 C1221.18,331.092 1217.19,333.061 1211.16,336.998 C1205.14,340.936 1201.6,343.555 1200.56,344.857 C1199.52,346.16 1199,347.331 1199,348.373 C1199,349.415 1199.41,350.342 1200.23,351.154 C1201.04,351.967 1202.04,352.373 1203.2,352.373 M1222.16,327.967 C1227.75,327.967 1230.55,330.373 1230.55,335.186 C1230.55,337.529 1229.86,340.248 1228.5,343.342 C1227.14,346.436 1225.31,348.795 1223.03,350.42 C1218.02,353.805 1211.74,355.498 1204.19,355.498 C1198.58,355.498 1195.78,353.092 1195.78,348.279 C1195.78,346.134 1196.45,343.464 1197.78,340.272 C1199.11,337.079 1200.95,334.67 1203.3,333.045 C1208.32,329.66 1214.6,327.967 1222.16,327.967"/>
<path class="Note" d="M455.979,352.373 C457.864,352.373 461.82,350.42 467.846,346.514 C473.872,342.607 477.422,339.988 478.494,338.654 C479.567,337.321 480.104,336.134 480.104,335.092 C480.104,334.05 479.679,333.123 478.83,332.311 C477.981,331.498 477.005,331.092 475.901,331.092 C473.953,331.092 469.966,333.061 463.94,336.998 C457.914,340.936 454.38,343.555 453.338,344.857 C452.297,346.16 451.776,347.331 451.776,348.373 C451.776,349.415 452.185,350.342 453.002,351.154 C453.82,351.967 454.812,352.373 455.979,352.373 M474.932,327.967 C480.526,327.967 483.323,330.373 483.323,335.186 C483.323,337.529 482.64,340.248 481.276,343.342 C479.911,346.436 478.088,348.795 475.807,350.42 C470.797,353.805 464.515,355.498 456.963,355.498 C451.359,355.498 448.557,353.092 448.557,348.279 C448.557,346.134 449.224,343.464 450.557,340.272 C451.89,337.079 453.729,334.67 456.073,333.045 C461.093,329.66 467.38,327.967 474.932,327.967"/>
<path class="Note" d="M1950.43,314.873 C1952.31,314.873 1956.27,312.92 1962.29,309.014 C1968.32,305.107 1971.87,302.488 1972.94,301.154 C1974.02,299.821 1974.55,298.634 1974.55,297.592 C1974.55,296.55 1974.13,295.623 1973.28,294.811 C1972.43,293.998 1971.45,293.592 1970.35,293.592 C1968.4,293.592 1964.41,295.561 1958.39,299.498 C1952.36,303.436 1948.83,306.055 1947.79,307.357 C1946.75,308.66 1946.22,309.831 1946.22,310.873 C1946.22,311.915 1946.63,312.842 1947.45,313.654 C1948.27,314.467 1949.26,314.873 1950.43,314.873 M1969.38,290.467 C1974.97,290.467 1977.77,292.873 1977.77,297.686 C1977.77,300.029 1977.09,302.748 1975.72,305.842 C1974.36,308.936 1972.54,311.295 1970.26,312.92 C1965.25,316.305 1958.96,317.998 1951.41,317.998 C1945.81,317.998 1943.01,315.592 1943.01,310.779 C1943.01,308.634 1943.67,305.964 1945.01,302.772 C1946.34,299.579 1948.18,297.17 1950.52,295.545 C1955.54,292.16 1961.83,290.467 1969.38,290.467"/>
<path class="Note" d="M705.054,314.873 C706.939,314.873 710.895,312.92 716.921,309.014 C722.947,305.107 726.496,302.488 727.569,301.154 C728.642,299.821 729.179,298.634 729.179,297.592 C729.179,296.55 728.754,295.623 727.905,294.811 C727.056,293.998 726.08,293.592 724.975,293.592 C723.028,293.592 719.041,295.561 713.015,299.498 C706.988,303.436 703.455,306.055 702.413,307.357 C701.371,308.66 700.85,309.831 700.85,310.873 C700.85,311.915 701.259,312.842 702.077,313.654 C702.895,314.467 703.887,314.873 705.054,314.873 M724.007,290.467 C729.6,290.467 732.397,292.873 732.397,297.686 C732.397,300.029 731.715,302.748 730.35,305.842 C728.986,308.936 727.163,311.295 724.882,312.92 C719.871,316.305 713.59,317.998 706.038,317.998 C700.434,317.998 697.632,315.592 697.632,310.779 C697.632,308.634 698.298,305.964 699.632,302.772 C700.965,299.579 702.804,297.17 705.147,295.545 C710.168,292.16 716.455,290.467 724.007,290.467"/>
<path class="Note" d="M1840.84,339.873 C1842.73,339.873 1846.68,337.92 1852.71,334.014 C1858.73,330.107 1862.28,327.488 1863.36,326.154 C1864.43,324.821 1864.97,323.634 1864.97,322.592 C1864.97,321.55 1864.54,320.623 1863.69,319.811 C1862.84,318.998 1861.87,318.592 1860.76,318.592 C1858.82,318.592 1854.83,320.561 1848.8,324.498 C1842.78,328.436 1839.24,331.055 1838.2,332.357 C1837.16,333.66 1836.64,334.831 1836.64,335.873 C1836.64,336.915 1837.05,337.842 1837.86,338.654 C1838.68,339.467 1839.67,339.873 1840.84,339.873 M1859.79,315.467 C1865.39,315.467 1868.18,317.873 1868.18,322.686 C1868.18,325.029 1867.5,327.748 1866.14,330.842 C1864.77,333.936 1862.95,336.295 1860.67,337.92 C1855.66,341.305 1849.38,342.998 1841.83,342.998 C1836.22,342.998 1833.42,340.592 1833.42,335.779 C1833.42,333.634 1834.09,330.964 1835.42,327.772 C1836.75,324.579 1838.59,322.17 1840.93,320.545 C1845.96,317.16 1852.24,315.467 1859.79,315.467"/>
<path class="Note" d="M1342.69,364.873 C1344.58,364.873 1348.53,362.92 1354.56,359.014 C1360.58,355.107 1364.13,352.488 1365.21,351.154 C1366.28,349.821 1366.82,348.634 1366.82,347.592 C1366.82,346.55 1366.39,345.623 1365.54,344.811 C1364.69,343.998 1363.72,343.592 1362.61,343.592 C1360.67,343.592 1356.68,345.561 1350.65,349.498 C1344.63,353.436 1341.09,356.055 1340.05,357.357 C1339.01,358.66 1338.49,359.831 1338.49,360.873 C1338.49,361.915 1338.9,362.842 1339.72,363.654 C1340.53,364.467 1341.53,364.873 1342.69,364.873 M1361.64,340.467 C1367.24,340.467 1370.04,342.873 1370.04,347.686 C1370.04,350.029 1369.35,352.748 1367.99,355.842 C1366.62,358.936 1364.8,361.295 1362.52,362.92 C1357.51,366.305 1351.23,367.998 1343.68,367.998 C1338.07,367.998 1335.27,365.592 1335.27,360.779 C1335.27,358.634 1335.94,355.964 1337.27,352.772 C1338.6,349.579 1340.44,347.17 1342.79,345.545 C1347.81,342.16 1354.09,340.467 1361.64,340.467"/>
<path class="Note" d="M1701.35,352.373 C1703.24,352.373 1707.19,350.42 1713.22,346.514 C1719.25,342.607 1722.8,339.988 1723.87,338.654 C1724.94,337.321 1725.48,336.134 1725.48,335.092 C1725.48,334.05 1725.05,333.123 1724.2,332.311 C1723.36,331.498 1722.38,331.092 1721.27,331.092 C1719.33,331.092 1715.34,333.061 1709.31,336.998 C1703.29,340.936 1699.75,343.555 1698.71,344.857 C1697.67,346.16 1697.15,347.331 1697.15,348.373 C1697.15,349.415 1697.56,350.342 1698.38,351.154 C1699.19,351.967 1700.19,352.373 1701.35,352.373 M1720.31,327.967 C1725.9,327.967 1728.7,330.373 1728.7,335.186 C1728.7,337.529 1728.01,340.248 1726.65,343.342 C1725.28,346.436 1723.46,348.795 1721.18,350.42 C1716.17,353.805 1709.89,355.498 1702.34,355.498 C1696.73,355.498 1693.93,353.092 1693.93,348.279 C1693.93,346.134 1694.6,343.464 1695.93,340.272 C1697.26,337.079 1699.1,334.67 1701.45,333.045 C1706.47,329.66 1712.75,327.967 1720.31,327.967"/>
<path class="Note" d="M595.467,339.873 C597.353,339.873 601.309,337.92 607.335,334.014 C613.361,330.107 616.91,327.488 617.983,326.154 C619.056,324.821 619.592,323.634 619.592,322.592 C619.592,321.55 619.168,320.623 618.319,319.811 C617.47,318.998 616.493,318.592 615.389,318.592 C613.441,318.592 609.454,320.561 603.428,324.498 C597.402,328.436 593.868,331.055 592.827,332.357 C591.785,333.66 591.264,334.831 591.264,335.873 C591.264,336.915 591.673,337.842 592.491,338.654 C593.309,339.467 594.301,339.873 595.467,339.873 M614.421,315.467 C620.014,315.467 622.811,317.873 622.811,322.686 C622.811,325.029 622.129,327.748 620.764,330.842 C619.4,333.936 617.577,336.295 615.296,337.92 C610.285,341.305 604.004,342.998 596.452,342.998 C590.848,342.998 588.046,340.592 588.046,335.779 C588.046,333.634 588.712,330.964 590.046,327.772 C591.379,324.579 593.217,322.17 595.561,320.545 C600.582,317.16 606.868,315.467 614.421,315.467"/>
<path class="Clef" d="M203.623,423.858 L203.623,421.717 C203.56,420.613 203.399,418.889 203.139,416.545 C199.889,417.066 196.993,417.326 194.451,417.326 C185.337,417.326 177.605,413.727 171.256,406.529 C164.907,399.331 161.732,390.753 161.732,380.795 C161.732,378.128 162.253,374.923 163.295,371.178 C164.337,367.433 165.297,364.925 166.178,363.654 C167.058,362.384 168.378,360.154 170.139,356.967 C170.659,355.988 172.352,353.837 175.217,350.514 C175.738,349.805 176.193,349.222 176.584,348.764 C176.975,348.305 177.607,347.49 178.482,346.318 C179.357,345.147 180.3,344.055 181.31,343.045 C182.321,342.035 183.217,341.058 183.998,340.115 C184.779,339.173 185.498,338.378 186.154,337.733 C183.81,329.983 182.378,324.024 181.857,319.858 C181.337,315.691 181.076,310.579 181.076,304.522 C181.076,298.464 182.378,292.962 184.982,288.014 C187.514,282.878 191.06,278.68 195.623,275.42 C195.883,275.222 196.225,275.123 196.646,275.123 C197.068,275.123 197.378,275.222 197.576,275.42 C201.087,279.649 204.128,285.149 206.701,291.92 C209.274,298.691 210.56,305.024 210.56,310.92 C210.56,316.816 209.066,322.498 206.076,327.967 C202.691,333.759 198.326,339.748 192.982,345.936 C194.347,350.227 196.17,356.962 198.451,366.139 L199.045,366.139 C199.305,366.076 199.529,366.045 199.717,366.045 C207.081,366.045 213.089,368.634 217.74,373.811 C222.391,378.988 224.717,384.962 224.717,391.733 C224.717,400.128 221.238,406.899 214.279,412.045 C212.258,413.545 209.878,414.717 207.139,415.561 C207.472,419.79 207.639,422.605 207.639,424.006 C207.639,425.407 207.571,427.899 207.435,431.483 C207.373,437.597 205.29,442.837 201.185,447.201 C197.081,451.566 192.394,453.748 187.123,453.748 C181.852,453.748 177.36,451.876 173.646,448.131 C169.933,444.386 168.076,439.847 168.076,434.514 C168.076,431.712 169.154,429.331 171.31,427.373 C173.519,425.425 176.006,424.451 178.771,424.451 C181.537,424.451 183.8,425.462 185.56,427.483 C187.383,429.368 188.295,431.644 188.295,434.311 C188.295,436.977 187.383,439.222 185.56,441.045 C183.738,442.868 181.555,443.779 179.014,443.779 C177.972,443.779 176.967,443.587 175.998,443.201 C178.863,447.43 182.54,449.545 187.029,449.545 C191.519,449.545 195.36,447.691 198.553,443.983 C201.745,440.274 203.342,435.91 203.342,430.889 L203.623,423.858 M206.748,411.561 C210.133,410.321 212.821,408.123 214.81,404.967 C216.8,401.811 217.795,398.67 217.795,395.545 C217.795,390.92 216.199,386.785 213.006,383.139 C209.813,379.493 205.774,377.441 200.889,376.983 C203.691,390.722 205.644,402.248 206.748,411.561 M168.967,388.998 C168.967,395.446 171.537,401.079 176.678,405.897 C181.818,410.714 187.842,413.123 194.748,413.123 C197.477,413.123 200.144,412.925 202.748,412.529 C201.706,402.634 199.654,390.785 196.592,376.983 C192.758,377.378 189.782,378.699 187.662,380.943 C185.542,383.188 184.482,385.743 184.482,388.608 C184.482,393.555 187.123,397.561 192.404,400.623 C192.852,400.884 193.076,401.324 193.076,401.943 C193.076,402.563 192.865,403.1 192.443,403.553 C192.021,404.006 191.649,404.233 191.326,404.233 C191.003,404.233 190.581,404.17 190.06,404.045 C182.435,399.878 178.623,393.592 178.623,385.186 C178.623,381.217 180.024,377.41 182.826,373.764 C185.753,370.118 189.56,367.774 194.248,366.733 C192.425,359.441 190.93,353.743 189.764,349.639 C180.847,359.67 175.31,367.092 173.154,371.904 C170.363,378.154 168.967,383.852 168.967,388.998 M201.576,289.686 C196.691,292.092 192.834,295.574 190.006,300.131 C187.178,304.688 185.764,309.472 185.764,314.483 C185.764,319.493 186.935,325.972 189.279,333.92 C193.967,328.253 197.514,322.946 199.92,317.998 C202.326,313.05 203.529,308.152 203.529,303.303 C203.529,298.454 202.878,293.915 201.576,289.686"/>
<path class="TimeSig" d="M273.021,317.912 C274.516,317.912 275.949,317.686 277.318,317.232 C278.688,316.779 279.665,316.553 280.248,316.553 C280.831,316.553 281.222,316.907 281.42,317.615 C281.42,317.688 281.352,317.886 281.217,318.209 L252.811,351.225 L269.498,351.225 L269.498,338.131 C269.498,336.506 270.446,335.334 272.342,334.615 C274.29,333.897 276.503,331.001 278.982,325.928 C279.17,325.532 279.462,325.334 279.857,325.334 C280.639,325.334 281.092,325.792 281.217,326.709 L281.217,351.225 L288.357,351.225 C289.264,351.225 289.751,351.712 289.818,352.686 C289.886,353.66 289.399,354.147 288.357,354.147 L281.217,354.147 L281.217,354.928 C281.217,357.532 281.868,359.746 283.17,361.568 C284.67,363.391 286.43,364.303 288.451,364.303 C289.232,364.303 289.623,364.693 289.623,365.475 C289.623,366.256 289.087,366.647 288.014,366.647 C286.941,366.647 284.938,366.436 282.006,366.014 C279.074,365.592 276.811,365.381 275.217,365.381 C273.623,365.381 271.41,365.592 268.576,366.014 C265.743,366.436 263.613,366.647 262.186,366.647 C261.404,366.647 261.014,366.256 261.014,365.475 C261.014,364.693 261.404,364.303 262.186,364.303 C264.196,364.303 265.951,363.391 267.451,361.568 C268.816,359.683 269.498,357.469 269.498,354.928 L269.498,354.147 L252.811,354.147 C251.956,354.147 251.219,353.92 250.6,353.467 C249.98,353.014 249.67,352.592 249.67,352.201 C249.67,351.811 250.485,350.639 252.115,348.686 C253.745,346.732 256.074,342.972 259.1,337.404 C262.126,331.837 263.639,325.438 263.639,318.209 C263.639,317.167 264.097,316.647 265.014,316.647 C265.212,316.647 265.521,316.712 265.943,316.842 C266.365,316.972 267.277,317.183 268.678,317.475 C270.079,317.766 271.527,317.912 273.021,317.912"/>
<path class="TimeSig" d="M273.021,368.084 C274.516,368.084 275.949,367.858 277.318,367.404 C278.688,366.951 279.665,366.725 280.248,366.725 C280.831,366.725 281.222,367.079 281.42,367.787 C281.42,367.86 281.352,368.058 281.217,368.381 L252.811,401.397 L269.498,401.397 L269.498,388.303 C269.498,386.678 270.446,385.506 272.342,384.787 C274.29,384.068 276.503,381.173 278.982,376.1 C279.17,375.704 279.462,375.506 279.857,375.506 C280.639,375.506 281.092,375.964 281.217,376.881 L281.217,401.397 L288.357,401.397 C289.264,401.397 289.751,401.884 289.818,402.858 C289.886,403.831 289.399,404.318 288.357,404.318 L281.217,404.318 L281.217,405.1 C281.217,407.704 281.868,409.917 283.17,411.74 C284.67,413.563 286.43,414.475 288.451,414.475 C289.232,414.475 289.623,414.865 289.623,415.647 C289.623,416.428 289.087,416.818 288.014,416.818 C286.941,416.818 284.938,416.608 282.006,416.186 C279.074,415.764 276.811,415.553 275.217,415.553 C273.623,415.553 271.41,415.764 268.576,416.186 C265.743,416.608 263.613,416.818 262.186,416.818 C261.404,416.818 261.014,416.428 261.014,415.647 C261.014,414.865 261.404,414.475 262.186,414.475 C264.196,414.475 265.951,413.563 267.451,411.74 C268.816,409.855 269.498,407.641 269.498,405.1 L269.498,404.318 L252.811,404.318 C251.956,404.318 251.219,404.092 250.6,403.639 C249.98,403.186 249.67,402.764 249.67,402.373 C249.67,401.983 250.485,400.811 252.115,398.858 C253.745,396.904 256.074,393.144 259.1,387.576 C262.126,382.009 263.639,375.61 263.639,368.381 C263.639,367.339 264.097,366.818 265.014,366.818 C265.212,366.818 265.521,366.884 265.943,367.014 C266.365,367.144 267.277,367.355 268.678,367.647 C270.079,367.938 271.527,368.084 273.021,368.084"/>
<path class="Rest" d="M1482.29,366.733 L1446.74,366.733 C1446.09,366.733 1445.76,366.404 1445.76,365.748 L1445.76,352.076 C1445.76,351.43 1446.09,351.108 1446.74,351.108 L1482.29,351.108 C1482.94,351.108 1483.26,351.43 1483.26,352.076 L1483.26,365.748 C1483.26,366.404 1482.94,366.733 1482.29,366.733"/>
<path class="Rest" d="M2727.66,366.733 L2692.12,366.733 C2691.46,366.733 2691.13,366.404 2691.13,365.748 L2691.13,352.076 C2691.13,351.43 2691.46,351.108 2692.12,351.108 L2727.66,351.108 C2728.31,351.108 2728.63,351.43 2728.63,352.076 L2728.63,365.748 C2728.63,366.404 2728.31,366.733 2727.66,366.733"/>
</svg>
