<?xml version="1.0" encoding="UTF-8" standalone="no"?>
<svg width="2977.2px" height="4208.4px" viewBox="0 0 2977.2 4208.4"
 xmlns="http://www.w3.org/2000/svg" xmlns:xlink="http://www.w3.org/1999/xlink" version="1.2" baseProfile="tiny">
<title>G_Pentatonic_Scale_1.mscx</title>
<desc>Generated by MuseScore Studio 4.3.1</desc>
<path class="" fill="#ffffff" fill-rule="evenodd" d="M0,0 L2977.2,0 L2977.2,4208.4 L0,4208.4 L0,0 "/>
<polyline class="StaffLines" fill="none" stroke="#000000" stroke-width="2.00" stroke-linejoin="bevel" points="141.732,566.733 2835.47,566.733"/>
<polyline class="StaffLines" fill="none" stroke="#000000" stroke-width="2.00" stroke-linejoin="bevel" points="141.732,591.733 2835.47,591.733"/>
<polyline class="StaffLines" fill="none" stroke="#000000" stroke-width="2.00" stroke-linejoin="bevel" points="141.732,616.733 2835.47,616.733"/>
<polyline class="StaffLines" fill="none" stroke="#000000" stroke-width="2.00" stroke-linejoin="bevel" points="141.732,641.733 2835.47,641.733"/>
<polyline class="StaffLines" fill="none" stroke="#000000" stroke-width="2.00" stroke-linejoin="bevel" points="141.732,666.733 2835.47,666.733"/>
<polyline class="BarLine" fill="none" stroke="#000000" stroke-width="4.00" stroke-linejoin="bevel" points="2802.72,565.733 2802.72,667.733"/>
<polyline class="BarLine" fill="none" stroke="#000000" stroke-width="12.50" stroke-linejoin="bevel" points="2829.22,565.733 2829.22,667.733"/>
<polyline class="BarLine" fill="none" stroke="#000000" stroke-width="4.00" stroke-linejoin="bevel" points="1972.77,565.733 1972.77,667.733"/>
<polyline class="BarLine" fill="none" stroke="#000000" stroke-width="4.00" stroke-linejoin="bevel" points="1142.82,565.733 1142.82,667.733"/>
<polyline class="LedgerLine" fill="none" stroke="#000000" stroke-width="4.00" stroke-linejoin="bevel" points="1160.32,491.733 1212.24,491.733"/>
<polyline class="LedgerLine" fill="none" stroke="#000000" stroke-width="4.00" stroke-linejoin="bevel" points="1360.56,466.733 1412.47,466.733"/>
<polyline class="LedgerLine" fill="none" stroke="#000000" stroke-width="4.00" stroke-linejoin="bevel" points="1360.56,541.733 1412.47,541.733"/>
<polyline class="LedgerLine" fill="none" stroke="#000000" stroke-width="4.00" stroke-linejoin="bevel" points="1360.56,516.733 1412.47,516.733"/>
<polyline class="LedgerLine" fill="none" stroke="#000000" stroke-width="4.00" stroke-linejoin="bevel" points="1360.56,491.733 1412.47,491.733"/>
<polyline class="LedgerLine" fill="none" stroke="#000000" stroke-width="4.00" stroke-linejoin="bevel" points="1560.8,541.733 1612.71,541.733"/>
<polyline class="LedgerLine" fill="none" stroke="#000000" stroke-width="4.00" stroke-linejoin="bevel" points="1560.8,516.733 1612.71,516.733"/>
<polyline class="LedgerLine" fill="none" stroke="#000000" stroke-width="4.00" stroke-linejoin="bevel" points="1560.8,491.733 1612.71,491.733"/>
<polyline class="LedgerLine" fill="none" stroke="#000000" stroke-width="4.00" stroke-linejoin="bevel" points="1560.8,466.733 1612.71,466.733"/>
<polyline class="LedgerLine" fill="none" stroke="#000000" stroke-width="4.00" stroke-linejoin="bevel" points="1761.03,541.733 1812.95,541.733"/>
<polyline class="LedgerLine" fill="none" stroke="#000000" stroke-width="4.00" stroke-linejoin="bevel" points="1761.03,516.733 1812.95,516.733"/>
<polyline class="LedgerLine" fill="none" stroke="#000000" stroke-width="4.00" stroke-linejoin="bevel" points="1761.03,491.733 1812.95,491.733"/>
<polyline class="LedgerLine" fill="none" stroke="#000000" stroke-width="4.00" stroke-linejoin="bevel" points="1990.27,541.733 2042.18,541.733"/>
<polyline class="LedgerLine" fill="none" stroke="#000000" stroke-width="4.00" stroke-linejoin="bevel" points="1990.27,516.733 2042.18,516.733"/>
<polyline class="LedgerLine" fill="none" stroke="#000000" stroke-width="4.00" stroke-linejoin="bevel" points="2190.51,541.733 2242.42,541.733"/>
<polyline class="LedgerLine" fill="none" stroke="#000000" stroke-width="4.00" stroke-linejoin="bevel" points="2390.74,541.733 2442.66,541.733"/>
<polyline class="LedgerLine" fill="none" stroke="#000000" stroke-width="4.00" stroke-linejoin="bevel" points="1160.32,516.733 1212.24,516.733"/>
<polyline class="LedgerLine" fill="none" stroke="#000000" stroke-width="4.00" stroke-linejoin="bevel" points="1160.32,541.733 1212.24,541.733"/>
<polyline class="LedgerLine" fill="none" stroke="#000000" stroke-width="4.00" stroke-linejoin="bevel" points="530.61,541.733 582.524,541.733"/>
<polyline class="LedgerLine" fill="none" stroke="#000000" stroke-width="4.00" stroke-linejoin="bevel" points="730.847,541.733 782.761,541.733"/>
<polyline class="LedgerLine" fill="none" stroke="#000000" stroke-width="4.00" stroke-linejoin="bevel" points="931.084,516.733 982.998,516.733"/>
<polyline class="LedgerLine" fill="none" stroke="#000000" stroke-width="4.00" stroke-linejoin="bevel" points="931.084,541.733 982.998,541.733"/>
<polyline class="Stem" fill="none" stroke="#000000" stroke-width="3.25" stroke-linejoin="bevel" points="341.498,560.102 341.498,641.733"/>
<polyline class="Stem" fill="none" stroke="#000000" stroke-width="3.25" stroke-linejoin="bevel" points="2001.39,510.102 2001.39,616.733"/>
<polyline class="Stem" fill="none" stroke="#000000" stroke-width="3.25" stroke-linejoin="bevel" points="541.735,547.602 541.735,629.233"/>
<polyline class="Stem" fill="none" stroke="#000000" stroke-width="3.25" stroke-linejoin="bevel" points="2201.63,535.102 2201.63,616.733"/>
<polyline class="Stem" fill="none" stroke="#000000" stroke-width="3.25" stroke-linejoin="bevel" points="741.972,535.102 741.972,616.733"/>
<polyline class="Stem" fill="none" stroke="#000000" stroke-width="3.25" stroke-linejoin="bevel" points="1772.16,497.602 1772.16,616.733"/>
<polyline class="Stem" fill="none" stroke="#000000" stroke-width="3.25" stroke-linejoin="bevel" points="2401.87,547.602 2401.87,629.233"/>
<polyline class="Stem" fill="none" stroke="#000000" stroke-width="3.25" stroke-linejoin="bevel" points="942.209,510.102 942.209,616.733"/>
<polyline class="Stem" fill="none" stroke="#000000" stroke-width="3.25" stroke-linejoin="bevel" points="1571.92,472.602 1571.92,616.733"/>
<polyline class="Stem" fill="none" stroke="#000000" stroke-width="3.25" stroke-linejoin="bevel" points="2602.11,560.102 2602.11,641.733"/>
<polyline class="Stem" fill="none" stroke="#000000" stroke-width="3.25" stroke-linejoin="bevel" points="1171.45,497.602 1171.45,616.733"/>
<polyline class="Stem" fill="none" stroke="#000000" stroke-width="3.25" stroke-linejoin="bevel" points="1371.68,472.602 1371.68,616.733"/>
<path class="Note" d="M2221.98,515.467 C2225.1,515.467 2227.7,516.248 2229.79,517.811 C2231.87,519.373 2232.91,521.618 2232.91,524.545 C2232.91,529.035 2230.59,533.233 2225.94,537.139 C2221.29,541.045 2216.29,542.998 2210.94,542.998 C2207.82,542.998 2205.18,542.186 2203.04,540.561 C2201.02,538.8 2200.01,536.587 2200.01,533.92 C2200.01,529.556 2202.32,525.389 2206.94,521.42 C2211.57,517.451 2216.58,515.467 2221.98,515.467"/>
<path class="Note" d="M2422.21,527.967 C2425.34,527.967 2427.94,528.748 2430.03,530.311 C2432.11,531.873 2433.15,534.118 2433.15,537.045 C2433.15,541.535 2430.82,545.733 2426.17,549.639 C2421.52,553.545 2416.53,555.498 2411.18,555.498 C2408.06,555.498 2405.42,554.686 2403.28,553.061 C2401.25,551.3 2400.24,549.087 2400.24,546.42 C2400.24,542.056 2402.56,537.889 2407.18,533.92 C2411.81,529.951 2416.82,527.967 2422.21,527.967"/>
<path class="Note" d="M2021.74,490.467 C2024.86,490.467 2027.47,491.248 2029.55,492.811 C2031.63,494.373 2032.68,496.618 2032.68,499.545 C2032.68,504.035 2030.35,508.233 2025.7,512.139 C2021.05,516.045 2016.05,517.998 2010.71,517.998 C2007.58,517.998 2004.95,517.186 2002.8,515.561 C2000.78,513.8 1999.77,511.587 1999.77,508.92 C1999.77,504.556 2002.08,500.389 2006.71,496.42 C2011.33,492.451 2016.34,490.467 2021.74,490.467"/>
<path class="Note" d="M2622.45,540.467 C2625.57,540.467 2628.18,541.248 2630.26,542.811 C2632.35,544.373 2633.39,546.618 2633.39,549.545 C2633.39,554.035 2631.06,558.233 2626.41,562.139 C2621.76,566.045 2616.76,567.998 2611.42,567.998 C2608.29,567.998 2605.66,567.186 2603.51,565.561 C2601.49,563.8 2600.48,561.587 2600.48,558.92 C2600.48,554.556 2602.79,550.389 2607.42,546.42 C2612.04,542.451 2617.05,540.467 2622.45,540.467"/>
<path class="Note" d="M1191.79,477.967 C1194.92,477.967 1197.52,478.748 1199.6,480.311 C1201.69,481.873 1202.73,484.118 1202.73,487.045 C1202.73,491.535 1200.4,495.733 1195.75,499.639 C1191.1,503.545 1186.1,505.498 1180.76,505.498 C1177.63,505.498 1175,504.686 1172.85,503.061 C1170.83,501.3 1169.82,499.087 1169.82,496.42 C1169.82,492.055 1172.13,487.889 1176.76,483.92 C1181.38,479.951 1186.39,477.967 1191.79,477.967"/>
<path class="Note" d="M361.842,540.467 C364.967,540.467 367.571,541.248 369.654,542.811 C371.738,544.373 372.779,546.618 372.779,549.545 C372.779,554.035 370.454,558.233 365.803,562.139 C361.152,566.045 356.154,567.998 350.811,567.998 C347.686,567.998 345.05,567.186 342.904,565.561 C340.884,563.8 339.873,561.587 339.873,558.92 C339.873,554.556 342.186,550.389 346.811,546.42 C351.436,542.451 356.446,540.467 361.842,540.467"/>
<path class="Note" d="M1792.5,477.967 C1795.63,477.967 1798.23,478.748 1800.31,480.311 C1802.4,481.873 1803.44,484.118 1803.44,487.045 C1803.44,491.535 1801.11,495.733 1796.46,499.639 C1791.81,503.545 1786.81,505.498 1781.47,505.498 C1778.35,505.498 1775.71,504.686 1773.56,503.061 C1771.54,501.3 1770.53,499.087 1770.53,496.42 C1770.53,492.055 1772.85,487.889 1777.47,483.92 C1782.1,479.951 1787.11,477.967 1792.5,477.967"/>
<path class="Note" d="M562.079,527.967 C565.204,527.967 567.808,528.748 569.891,530.311 C571.975,531.873 573.016,534.118 573.016,537.045 C573.016,541.535 570.691,545.733 566.04,549.639 C561.389,553.545 556.391,555.498 551.048,555.498 C547.923,555.498 545.287,554.686 543.141,553.061 C541.121,551.3 540.11,549.087 540.11,546.42 C540.11,542.056 542.423,537.889 547.048,533.92 C551.673,529.951 556.683,527.967 562.079,527.967"/>
<path class="Note" d="M1592.26,452.967 C1595.39,452.967 1597.99,453.748 1600.08,455.311 C1602.16,456.873 1603.2,459.118 1603.2,462.045 C1603.2,466.535 1600.88,470.733 1596.23,474.639 C1591.57,478.545 1586.58,480.498 1581.23,480.498 C1578.11,480.498 1575.47,479.686 1573.33,478.061 C1571.31,476.3 1570.3,474.087 1570.3,471.42 C1570.3,467.055 1572.61,462.889 1577.23,458.92 C1581.86,454.951 1586.87,452.967 1592.26,452.967"/>
<path class="Note" d="M762.316,515.467 C765.441,515.467 768.045,516.248 770.129,517.811 C772.212,519.373 773.254,521.618 773.254,524.545 C773.254,529.035 770.928,533.233 766.277,537.139 C761.626,541.045 756.629,542.998 751.285,542.998 C748.16,542.998 745.524,542.186 743.379,540.561 C741.358,538.8 740.347,536.587 740.347,533.92 C740.347,529.556 742.66,525.389 747.285,521.42 C751.91,517.451 756.92,515.467 762.316,515.467"/>
<path class="Note" d="M1392.03,452.967 C1395.15,452.967 1397.76,453.748 1399.84,455.311 C1401.92,456.873 1402.96,459.118 1402.96,462.045 C1402.96,466.535 1400.64,470.733 1395.99,474.639 C1391.34,478.545 1386.34,480.498 1381,480.498 C1377.87,480.498 1375.24,479.686 1373.09,478.061 C1371.07,476.3 1370.06,474.087 1370.06,471.42 C1370.06,467.055 1372.37,462.889 1377,458.92 C1381.62,454.951 1386.63,452.967 1392.03,452.967"/>
<path class="Note" d="M962.553,490.467 C965.678,490.467 968.282,491.248 970.366,492.811 C972.449,494.373 973.491,496.618 973.491,499.545 C973.491,504.035 971.165,508.233 966.514,512.139 C961.863,516.045 956.866,517.998 951.522,517.998 C948.397,517.998 945.761,517.186 943.616,515.561 C941.595,513.8 940.584,511.587 940.584,508.92 C940.584,504.556 942.897,500.389 947.522,496.42 C952.147,492.451 957.157,490.467 962.553,490.467"/>
<path class="Clef" d="M203.623,673.858 L203.623,671.717 C203.56,670.613 203.399,668.889 203.139,666.545 C199.889,667.066 196.993,667.326 194.451,667.326 C185.337,667.326 177.605,663.727 171.256,656.53 C164.907,649.332 161.732,640.754 161.732,630.795 C161.732,628.129 162.253,624.923 163.295,621.178 C164.337,617.433 165.297,614.925 166.178,613.655 C167.058,612.384 168.378,610.155 170.139,606.967 C170.659,605.988 172.352,603.837 175.217,600.514 C175.738,599.806 176.193,599.222 176.584,598.764 C176.975,598.306 177.607,597.49 178.482,596.319 C179.357,595.147 180.3,594.056 181.31,593.045 C182.321,592.035 183.217,591.058 183.998,590.115 C184.779,589.173 185.498,588.379 186.154,587.733 C183.81,579.983 182.378,574.024 181.857,569.858 C181.337,565.691 181.076,560.579 181.076,554.522 C181.076,548.464 182.378,542.962 184.982,538.014 C187.514,532.879 191.06,528.681 195.623,525.42 C195.883,525.222 196.225,525.123 196.646,525.123 C197.068,525.123 197.378,525.222 197.576,525.42 C201.087,529.649 204.128,535.149 206.701,541.92 C209.274,548.691 210.56,555.024 210.56,560.92 C210.56,566.816 209.066,572.498 206.076,577.967 C202.691,583.759 198.326,589.748 192.982,595.936 C194.347,600.227 196.17,606.962 198.451,616.139 L199.045,616.139 C199.305,616.076 199.529,616.045 199.717,616.045 C207.081,616.045 213.089,618.634 217.74,623.811 C222.391,628.988 224.717,634.962 224.717,641.733 C224.717,650.129 221.238,656.899 214.279,662.045 C212.258,663.545 209.878,664.717 207.139,665.561 C207.472,669.79 207.639,672.605 207.639,674.006 C207.639,675.407 207.571,677.899 207.435,681.483 C207.373,687.597 205.29,692.837 201.185,697.201 C197.081,701.566 192.394,703.748 187.123,703.748 C181.852,703.748 177.36,701.876 173.646,698.131 C169.933,694.386 168.076,689.847 168.076,684.514 C168.076,681.712 169.154,679.332 171.31,677.373 C173.519,675.425 176.006,674.451 178.771,674.451 C181.537,674.451 183.8,675.462 185.56,677.483 C187.383,679.368 188.295,681.644 188.295,684.311 C188.295,686.977 187.383,689.222 185.56,691.045 C183.738,692.868 181.555,693.78 179.014,693.78 C177.972,693.78 176.967,693.587 175.998,693.201 C178.863,697.431 182.54,699.545 187.029,699.545 C191.519,699.545 195.36,697.691 198.553,693.983 C201.745,690.274 203.342,685.91 203.342,680.889 L203.623,673.858 M206.748,661.561 C210.133,660.321 212.821,658.123 214.81,654.967 C216.8,651.811 217.795,648.67 217.795,645.545 C217.795,640.92 216.199,636.785 213.006,633.139 C209.813,629.493 205.774,627.441 200.889,626.983 C203.691,640.722 205.644,652.248 206.748,661.561 M168.967,638.998 C168.967,645.446 171.537,651.079 176.678,655.897 C181.818,660.714 187.842,663.123 194.748,663.123 C197.477,663.123 200.144,662.925 202.748,662.53 C201.706,652.634 199.654,640.785 196.592,626.983 C192.758,627.379 189.782,628.699 187.662,630.944 C185.542,633.188 184.482,635.743 184.482,638.608 C184.482,643.556 187.123,647.561 192.404,650.623 C192.852,650.884 193.076,651.324 193.076,651.944 C193.076,652.563 192.865,653.1 192.443,653.553 C192.021,654.006 191.649,654.233 191.326,654.233 C191.003,654.233 190.581,654.17 190.06,654.045 C182.435,649.879 178.623,643.592 178.623,635.186 C178.623,631.217 180.024,627.41 182.826,623.764 C185.753,620.118 189.56,617.774 194.248,616.733 C192.425,609.441 190.93,603.743 189.764,599.639 C180.847,609.67 175.31,617.092 173.154,621.905 C170.363,628.155 168.967,633.852 168.967,638.998 M201.576,539.686 C196.691,542.092 192.834,545.574 190.006,550.131 C187.178,554.688 185.764,559.472 185.764,564.483 C185.764,569.493 186.935,575.972 189.279,583.92 C193.967,578.254 197.514,572.946 199.92,567.998 C202.326,563.05 203.529,558.152 203.529,553.303 C203.529,548.454 202.878,543.915 201.576,539.686"/>
<path class="TimeSig" d="M273.021,567.912 C274.516,567.912 275.949,567.686 277.318,567.233 C278.688,566.78 279.665,566.553 280.248,566.553 C280.831,566.553 281.222,566.907 281.42,567.615 C281.42,567.688 281.352,567.886 281.217,568.209 L252.811,601.225 L269.498,601.225 L269.498,588.131 C269.498,586.506 270.446,585.334 272.342,584.615 C274.29,583.897 276.503,581.001 278.982,575.928 C279.17,575.532 279.462,575.334 279.857,575.334 C280.639,575.334 281.092,575.793 281.217,576.709 L281.217,601.225 L288.357,601.225 C289.264,601.225 289.751,601.712 289.818,602.686 C289.886,603.66 289.399,604.147 288.357,604.147 L281.217,604.147 L281.217,604.928 C281.217,607.532 281.868,609.746 283.17,611.569 C284.67,613.391 286.43,614.303 288.451,614.303 C289.232,614.303 289.623,614.694 289.623,615.475 C289.623,616.256 289.087,616.647 288.014,616.647 C286.941,616.647 284.938,616.436 282.006,616.014 C279.074,615.592 276.811,615.381 275.217,615.381 C273.623,615.381 271.41,615.592 268.576,616.014 C265.743,616.436 263.613,616.647 262.186,616.647 C261.404,616.647 261.014,616.256 261.014,615.475 C261.014,614.694 261.404,614.303 262.186,614.303 C264.196,614.303 265.951,613.391 267.451,611.569 C268.816,609.683 269.498,607.47 269.498,604.928 L269.498,604.147 L252.811,604.147 C251.956,604.147 251.219,603.92 250.6,603.467 C249.98,603.014 249.67,602.592 249.67,602.201 C249.67,601.811 250.485,600.639 252.115,598.686 C253.745,596.733 256.074,592.972 259.1,587.405 C262.126,581.837 263.639,575.438 263.639,568.209 C263.639,567.168 264.097,566.647 265.014,566.647 C265.212,566.647 265.521,566.712 265.943,566.842 C266.365,566.972 267.277,567.183 268.678,567.475 C270.079,567.766 271.527,567.912 273.021,567.912"/>
<path class="TimeSig" d="M273.021,618.084 C274.516,618.084 275.949,617.858 277.318,617.405 C278.688,616.951 279.665,616.725 280.248,616.725 C280.831,616.725 281.222,617.079 281.42,617.787 C281.42,617.86 281.352,618.058 281.217,618.381 L252.811,651.397 L269.498,651.397 L269.498,638.303 C269.498,636.678 270.446,635.506 272.342,634.787 C274.29,634.069 276.503,631.173 278.982,626.1 C279.17,625.704 279.462,625.506 279.857,625.506 C280.639,625.506 281.092,625.964 281.217,626.881 L281.217,651.397 L288.357,651.397 C289.264,651.397 289.751,651.884 289.818,652.858 C289.886,653.832 289.399,654.319 288.357,654.319 L281.217,654.319 L281.217,655.1 C281.217,657.704 281.868,659.918 283.17,661.74 C284.67,663.563 286.43,664.475 288.451,664.475 C289.232,664.475 289.623,664.865 289.623,665.647 C289.623,666.428 289.087,666.819 288.014,666.819 C286.941,666.819 284.938,666.608 282.006,666.186 C279.074,665.764 276.811,665.553 275.217,665.553 C273.623,665.553 271.41,665.764 268.576,666.186 C265.743,666.608 263.613,666.819 262.186,666.819 C261.404,666.819 261.014,666.428 261.014,665.647 C261.014,664.865 261.404,664.475 262.186,664.475 C264.196,664.475 265.951,663.563 267.451,661.74 C268.816,659.855 269.498,657.642 269.498,655.1 L269.498,654.319 L252.811,654.319 C251.956,654.319 251.219,654.092 250.6,653.639 C249.98,653.186 249.67,652.764 249.67,652.373 C249.67,651.983 250.485,650.811 252.115,648.858 C253.745,646.905 256.074,643.144 259.1,637.576 C262.126,632.009 263.639,625.61 263.639,618.381 C263.639,617.339 264.097,616.819 265.014,616.819 C265.212,616.819 265.521,616.884 265.943,617.014 C266.365,617.144 267.277,617.355 268.678,617.647 C270.079,617.938 271.527,618.084 273.021,618.084"/>
</svg>
