<?xml version="1.0" encoding="UTF-8" standalone="no"?>
<svg width="2977.2px" height="4208.4px" viewBox="0 0 2977.2 4208.4"
 xmlns="http://www.w3.org/2000/svg" xmlns:xlink="http://www.w3.org/1999/xlink" version="1.2" baseProfile="tiny">
<title>Ode_To_Joy.mscx</title>
<desc>Generated by MuseScore Studio 4.3.1</desc>
<path class="" fill="#ffffff" fill-rule="evenodd" d="M0,0 L2977.2,0 L2977.2,4208.4 L0,4208.4 L0,0 "/>
<polyline class="StaffLines" fill="none" stroke="#000000" stroke-width="2.00" stroke-linejoin="bevel" points="141.732,316.732 2835.47,316.732"/>
<polyline class="StaffLines" fill="none" stroke="#000000" stroke-width="2.00" stroke-linejoin="bevel" points="141.732,341.732 2835.47,341.732"/>
<polyline class="StaffLines" fill="none" stroke="#000000" stroke-width="2.00" stroke-linejoin="bevel" points="141.732,366.733 2835.47,366.733"/>
<polyline class="StaffLines" fill="none" stroke="#000000" stroke-width="2.00" stroke-linejoin="bevel" points="141.732,391.733 2835.47,391.733"/>
<polyline class="StaffLines" fill="none" stroke="#000000" stroke-width="2.00" stroke-linejoin="bevel" points="141.732,416.733 2835.47,416.733"/>
<polyline class="StaffLines" fill="none" stroke="#000000" stroke-width="2.00" stroke-linejoin="bevel" points="141.732,791.733 2835.47,791.733"/>
<polyline class="StaffLines" fill="none" stroke="#000000" stroke-width="2.00" stroke-linejoin="bevel" points="141.732,816.733 2835.47,816.733"/>
<polyline class="StaffLines" fill="none" stroke="#000000" stroke-width="2.00" stroke-linejoin="bevel" points="141.732,841.733 2835.47,841.733"/>
<polyline class="StaffLines" fill="none" stroke="#000000" stroke-width="2.00" stroke-linejoin="bevel" points="141.732,866.733 2835.47,866.733"/>
<polyline class="StaffLines" fill="none" stroke="#000000" stroke-width="2.00" stroke-linejoin="bevel" points="141.732,891.733 2835.47,891.733"/>
<polyline class="StaffLines" fill="none" stroke="#000000" stroke-width="2.00" stroke-linejoin="bevel" points="141.732,1266.73 2835.47,1266.73"/>
<polyline class="StaffLines" fill="none" stroke="#000000" stroke-width="2.00" stroke-linejoin="bevel" points="141.732,1291.73 2835.47,1291.73"/>
<polyline class="StaffLines" fill="none" stroke="#000000" stroke-width="2.00" stroke-linejoin="bevel" points="141.732,1316.73 2835.47,1316.73"/>
<polyline class="StaffLines" fill="none" stroke="#000000" stroke-width="2.00" stroke-linejoin="bevel" points="141.732,1341.73 2835.47,1341.73"/>
<polyline class="StaffLines" fill="none" stroke="#000000" stroke-width="2.00" stroke-linejoin="bevel" points="141.732,1366.73 2835.47,1366.73"/>
<polyline class="StaffLines" fill="none" stroke="#000000" stroke-width="2.00" stroke-linejoin="bevel" points="141.732,1741.73 2835.47,1741.73"/>
<polyline class="StaffLines" fill="none" stroke="#000000" stroke-width="2.00" stroke-linejoin="bevel" points="141.732,1766.73 2835.47,1766.73"/>
<polyline class="StaffLines" fill="none" stroke="#000000" stroke-width="2.00" stroke-linejoin="bevel" points="141.732,1791.73 2835.47,1791.73"/>
<polyline class="StaffLines" fill="none" stroke="#000000" stroke-width="2.00" stroke-linejoin="bevel" points="141.732,1816.73 2835.47,1816.73"/>
<polyline class="StaffLines" fill="none" stroke="#000000" stroke-width="2.00" stroke-linejoin="bevel" points="141.732,1841.73 2835.47,1841.73"/>
<path class="MeasureNumber" d="M146.514,733.873 C146.514,732.446 146.199,731.181 145.568,730.076 C144.938,728.972 144.178,728.118 143.287,727.514 C142.396,726.91 141.399,726.412 140.295,726.022 C139.191,725.631 138.23,725.376 137.412,725.256 C136.594,725.136 135.883,725.076 135.279,725.076 C134.956,725.076 134.795,724.967 134.795,724.748 C134.795,724.675 134.805,724.613 134.826,724.561 L139.185,715.264 L147.545,715.264 C147.972,715.264 148.313,715.196 148.568,715.061 C148.824,714.925 149.097,714.644 149.389,714.217 L149.748,714.498 L148.232,717.842 C148.128,718.061 147.821,718.17 147.31,718.17 L139.467,718.17 L137.795,721.608 C141.68,722.306 144.571,723.441 146.467,725.014 C148.363,726.587 149.31,728.894 149.31,731.936 C149.31,733.53 149.063,734.946 148.568,736.186 C148.074,737.425 147.446,738.423 146.685,739.178 C145.925,739.933 145.045,740.553 144.045,741.037 C143.045,741.522 142.087,741.853 141.17,742.03 C140.253,742.207 139.326,742.295 138.389,742.295 C136.899,742.295 135.714,742.074 134.834,741.631 C133.954,741.188 133.514,740.582 133.514,739.811 C133.514,738.821 134.087,738.326 135.232,738.326 C135.982,738.326 136.949,738.735 138.131,739.553 C139.313,740.371 140.253,740.78 140.951,740.78 C142.524,740.78 143.844,740.113 144.912,738.78 C145.98,737.446 146.514,735.811 146.514,733.873"/>
<path class="MeasureNumber" d="M128.045,1668.01 C127.566,1668.01 126.607,1668.31 125.17,1668.89 L125.17,1668.34 L132.373,1664.7 L132.685,1664.78 L132.685,1688.78 C132.685,1689.74 132.925,1690.36 133.404,1690.66 C133.883,1690.95 134.909,1691.11 136.482,1691.14 L136.482,1691.73 L125.451,1691.73 L125.451,1691.14 C126.941,1691.08 127.946,1690.85 128.467,1690.47 C128.988,1690.08 129.248,1689.26 129.248,1688.01 L129.248,1669.89 C129.248,1668.64 128.847,1668.01 128.045,1668.01 M143.951,1688.61 C144.566,1688.61 145.48,1688.97 146.693,1689.69 C147.907,1690.42 148.967,1690.78 149.873,1690.78 C151.342,1690.78 152.581,1690.21 153.592,1689.07 C154.602,1687.93 155.107,1686.53 155.107,1684.86 C155.107,1683.82 154.928,1682.9 154.568,1682.11 C154.209,1681.32 153.751,1680.7 153.193,1680.26 C152.636,1679.83 151.969,1679.47 151.193,1679.19 C150.417,1678.92 149.691,1678.74 149.014,1678.66 C148.337,1678.57 147.613,1678.53 146.842,1678.53 L146.842,1678.01 C147.748,1677.69 148.527,1677.38 149.178,1677.07 C149.829,1676.76 150.514,1676.35 151.232,1675.83 C151.951,1675.32 152.506,1674.69 152.896,1673.94 C153.287,1673.19 153.482,1672.33 153.482,1671.37 C153.482,1670.12 153.074,1669.1 152.256,1668.3 C151.438,1667.49 150.378,1667.09 149.076,1667.09 C147.826,1667.09 146.727,1667.43 145.779,1668.12 C144.831,1668.8 143.946,1669.87 143.123,1671.34 L142.514,1671.17 C143.212,1669.29 144.154,1667.74 145.342,1666.52 C146.529,1665.31 148.212,1664.7 150.389,1664.7 C152.232,1664.7 153.735,1665.21 154.896,1666.22 C156.058,1667.23 156.639,1668.55 156.639,1670.17 C156.639,1671.26 156.357,1672.23 155.795,1673.05 C155.232,1673.88 154.258,1674.76 152.873,1675.7 C154.477,1676.39 155.732,1677.27 156.639,1678.34 C157.545,1679.42 157.998,1680.95 157.998,1682.95 C157.998,1685.79 156.951,1688.05 154.857,1689.75 C152.764,1691.45 150.128,1692.3 146.951,1692.3 C145.566,1692.3 144.467,1692.09 143.654,1691.67 C142.842,1691.25 142.435,1690.7 142.435,1690.01 C142.435,1689.59 142.576,1689.25 142.857,1688.99 C143.139,1688.74 143.503,1688.61 143.951,1688.61"/>
<path class="MeasureNumber" d="M134.092,1217.61 L133.967,1216.81 C137.008,1216.28 139.589,1214.98 141.709,1212.92 C143.829,1210.86 145.3,1208.2 146.123,1204.94 C144.154,1206.48 142.159,1207.25 140.139,1207.25 C137.972,1207.25 136.23,1206.5 134.912,1205.01 C133.594,1203.51 132.935,1201.55 132.935,1199.11 C132.935,1196.4 133.727,1194.14 135.31,1192.33 C136.894,1190.53 138.873,1189.62 141.248,1189.62 C143.831,1189.62 145.951,1190.68 147.607,1192.8 C149.264,1194.91 150.092,1197.63 150.092,1200.95 C150.092,1202.01 149.998,1203.11 149.81,1204.23 C149.623,1205.36 149.188,1206.69 148.506,1208.23 C147.824,1209.76 146.938,1211.14 145.85,1212.35 C144.761,1213.56 143.204,1214.67 141.178,1215.65 C139.152,1216.64 136.79,1217.3 134.092,1217.61 M141.576,1205.5 C142.076,1205.5 142.646,1205.43 143.287,1205.28 C143.928,1205.13 144.576,1204.81 145.232,1204.32 C145.889,1203.82 146.217,1203.22 146.217,1202.5 L146.217,1200.95 C146.217,1194.19 144.456,1190.81 140.935,1190.81 C140.102,1190.81 139.394,1191.03 138.81,1191.48 C138.227,1191.92 137.782,1192.5 137.475,1193.21 C137.167,1193.92 136.946,1194.65 136.81,1195.4 C136.675,1196.14 136.607,1196.93 136.607,1197.76 C136.607,1200.13 137.055,1202.01 137.951,1203.4 C138.847,1204.8 140.055,1205.5 141.576,1205.5"/>
<path class="TieSegment" stroke="#000000" stroke-width="1.75" stroke-linecap="round" stroke-linejoin="round" fill-rule="evenodd" d="M249.732,1735.46 C260.024,1718.24 290.898,1718.24 301.189,1735.46 C290.898,1722.24 260.024,1722.24 249.732,1735.46"/>
<path class="TieSegment" stroke="#000000" stroke-width="1.75" stroke-linecap="round" stroke-linejoin="round" fill-rule="evenodd" d="M2700.44,1260.46 C2725.4,1235.98 2800.26,1235.98 2825.22,1260.46 C2800.26,1239.98 2725.4,1239.98 2700.44,1260.46"/>
<polyline class="BarLine" fill="none" stroke="#000000" stroke-width="4.00" stroke-linejoin="bevel" points="2233.79,1740.73 2233.79,1842.73"/>
<polyline class="BarLine" fill="none" stroke="#000000" stroke-width="4.00" stroke-linejoin="bevel" points="2833.47,1265.73 2833.47,1367.73"/>
<polyline class="BarLine" fill="none" stroke="#000000" stroke-width="4.00" stroke-linejoin="bevel" points="2269.42,315.732 2269.42,417.733"/>
<polyline class="BarLine" fill="none" stroke="#000000" stroke-width="4.00" stroke-linejoin="bevel" points="1617.23,315.732 1617.23,417.733"/>
<polyline class="BarLine" fill="none" stroke="#000000" stroke-width="4.00" stroke-linejoin="bevel" points="926.056,790.733 926.056,892.733"/>
<polyline class="BarLine" fill="none" stroke="#000000" stroke-width="4.00" stroke-linejoin="bevel" points="2833.47,790.733 2833.47,892.733"/>
<polyline class="BarLine" fill="none" stroke="#000000" stroke-width="4.00" stroke-linejoin="bevel" points="2204.53,1265.73 2204.53,1367.73"/>
<polyline class="BarLine" fill="none" stroke="#000000" stroke-width="4.00" stroke-linejoin="bevel" points="918.086,1740.73 918.086,1842.73"/>
<polyline class="BarLine" fill="none" stroke="#000000" stroke-width="4.00" stroke-linejoin="bevel" points="846.669,1265.73 846.669,1367.73"/>
<polyline class="BarLine" fill="none" stroke="#000000" stroke-width="4.00" stroke-linejoin="bevel" points="965.054,315.732 965.054,417.733"/>
<polyline class="BarLine" fill="none" stroke="#000000" stroke-width="4.00" stroke-linejoin="bevel" points="1591.88,790.733 1591.88,892.733"/>
<polyline class="BarLine" fill="none" stroke="#000000" stroke-width="4.00" stroke-linejoin="bevel" points="1525.6,1265.73 1525.6,1367.73"/>
<polyline class="BarLine" fill="none" stroke="#000000" stroke-width="4.00" stroke-linejoin="bevel" points="2833.47,315.732 2833.47,417.733"/>
<polyline class="BarLine" fill="none" stroke="#000000" stroke-width="4.00" stroke-linejoin="bevel" points="1575.94,1740.73 1575.94,1842.73"/>
<polyline class="BarLine" fill="none" stroke="#000000" stroke-width="4.00" stroke-linejoin="bevel" points="2257.7,790.733 2257.7,892.733"/>
<polyline class="BarLine" fill="none" stroke="#000000" stroke-width="4.00" stroke-linejoin="bevel" points="2802.72,1740.73 2802.72,1842.73"/>
<polyline class="BarLine" fill="none" stroke="#000000" stroke-width="12.50" stroke-linejoin="bevel" points="2829.22,1740.73 2829.22,1842.73"/>
<polyline class="Stem" fill="none" stroke="#000000" stroke-width="3.25" stroke-linejoin="bevel" points="2593.38,834.133 2593.38,910.483"/>
<polyline class="Stem" fill="none" stroke="#000000" stroke-width="3.25" stroke-linejoin="bevel" points="546.326,1285.1 546.326,1366.73"/>
<polyline class="Stem" fill="none" stroke="#000000" stroke-width="3.25" stroke-linejoin="bevel" points="696.31,1310.1 696.31,1385.48"/>
<polyline class="Stem" fill="none" stroke="#000000" stroke-width="3.25" stroke-linejoin="bevel" points="246.357,1297.6 246.357,1379.23"/>
<polyline class="Stem" fill="none" stroke="#000000" stroke-width="3.25" stroke-linejoin="bevel" points="2262.42,1772.6 2262.42,1854.23"/>
<polyline class="Stem" fill="none" stroke="#000000" stroke-width="3.25" stroke-linejoin="bevel" points="875.294,1297.6 875.294,1379.23"/>
<polyline class="Stem" fill="none" stroke="#000000" stroke-width="3.25" stroke-linejoin="bevel" points="2286.33,822.602 2286.33,904.233"/>
<polyline class="Stem" fill="none" stroke="#000000" stroke-width="3.25" stroke-linejoin="bevel" points="2098.12,810.102 2098.12,891.733"/>
<polyline class="Stem" fill="none" stroke="#000000" stroke-width="3.25" stroke-linejoin="bevel" points="2488.15,835.102 2488.15,911.083"/>
<polyline class="Stem" fill="none" stroke="#000000" stroke-width="3.25" stroke-linejoin="bevel" points="1025.28,1285.1 1025.28,1347.88"/>
<polyline class="Stem" fill="none" stroke="#000000" stroke-width="3.25" stroke-linejoin="bevel" points="396.342,1297.6 396.342,1379.23"/>
<polyline class="Stem" fill="none" stroke="#000000" stroke-width="3.25" stroke-linejoin="bevel" points="2683.11,1285.1 2683.11,1366.73"/>
<polyline class="Stem" fill="none" stroke="#000000" stroke-width="3.25" stroke-linejoin="bevel" points="1761.78,1785.1 1761.78,1860.48"/>
<polyline class="Stem" fill="none" stroke="#000000" stroke-width="3.25" stroke-linejoin="bevel" points="1604.57,1785.1 1604.57,1860.48"/>
<polyline class="Stem" fill="none" stroke="#000000" stroke-width="3.25" stroke-linejoin="bevel" points="1418.35,1772.6 1418.35,1854.23"/>
<polyline class="Stem" fill="none" stroke="#000000" stroke-width="3.25" stroke-linejoin="bevel" points="1261.14,1760.1 1261.14,1841.73"/>
<polyline class="Stem" fill="none" stroke="#000000" stroke-width="3.25" stroke-linejoin="bevel" points="1103.92,1747.6 1103.92,1829.23"/>
<polyline class="Stem" fill="none" stroke="#000000" stroke-width="3.25" stroke-linejoin="bevel" points="946.711,1735.1 946.711,1816.73"/>
<polyline class="Stem" fill="none" stroke="#000000" stroke-width="3.25" stroke-linejoin="bevel" points="760.498,1735.1 760.498,1816.73"/>
<polyline class="Stem" fill="none" stroke="#000000" stroke-width="3.25" stroke-linejoin="bevel" points="603.284,1747.6 603.284,1829.23"/>
<polyline class="Stem" fill="none" stroke="#000000" stroke-width="3.25" stroke-linejoin="bevel" points="446.071,1760.1 446.071,1841.73"/>
<polyline class="Stem" fill="none" stroke="#000000" stroke-width="3.25" stroke-linejoin="bevel" points="288.857,1760.1 288.857,1841.73"/>
<polyline class="Stem" fill="none" stroke="#000000" stroke-width="3.25" stroke-linejoin="bevel" points="1918.99,1772.6 1918.99,1854.23"/>
<polyline class="Stem" fill="none" stroke="#000000" stroke-width="3.25" stroke-linejoin="bevel" points="1125.27,1272.6 1125.27,1341.83"/>
<polyline class="Stem" fill="none" stroke="#000000" stroke-width="3.25" stroke-linejoin="bevel" points="2562.79,1335.86 2562.79,1254.23"/>
<polyline class="Stem" fill="none" stroke="#000000" stroke-width="3.25" stroke-linejoin="bevel" points="2383.14,1297.6 2383.14,1379.23"/>
<polyline class="Stem" fill="none" stroke="#000000" stroke-width="3.25" stroke-linejoin="bevel" points="2233.16,1310.1 2233.16,1385.48"/>
<polyline class="Stem" fill="none" stroke="#000000" stroke-width="3.25" stroke-linejoin="bevel" points="2076.21,1760.1 2076.21,1841.73"/>
<polyline class="Stem" fill="none" stroke="#000000" stroke-width="3.25" stroke-linejoin="bevel" points="2054.17,1297.6 2054.17,1379.23"/>
<polyline class="Stem" fill="none" stroke="#000000" stroke-width="3.25" stroke-linejoin="bevel" points="1904.19,1285.1 1904.19,1366.73"/>
<polyline class="Stem" fill="none" stroke="#000000" stroke-width="3.25" stroke-linejoin="bevel" points="1804.2,1272.6 1804.2,1341.83"/>
<polyline class="Stem" fill="none" stroke="#000000" stroke-width="3.25" stroke-linejoin="bevel" points="1704.21,1285.1 1704.21,1347.88"/>
<polyline class="Stem" fill="none" stroke="#000000" stroke-width="3.25" stroke-linejoin="bevel" points="1554.23,1297.6 1554.23,1379.23"/>
<polyline class="Stem" fill="none" stroke="#000000" stroke-width="3.25" stroke-linejoin="bevel" points="1375.24,1310.1 1375.24,1385.48"/>
<polyline class="Stem" fill="none" stroke="#000000" stroke-width="3.25" stroke-linejoin="bevel" points="1225.26,1285.1 1225.26,1366.73"/>
<polyline class="Stem" fill="none" stroke="#000000" stroke-width="3.25" stroke-linejoin="bevel" points="1645.86,360.102 1645.86,435.483"/>
<polyline class="Stem" fill="none" stroke="#000000" stroke-width="3.25" stroke-linejoin="bevel" points="954.681,785.102 954.681,866.733"/>
<polyline class="Stem" fill="none" stroke="#000000" stroke-width="3.25" stroke-linejoin="bevel" points="993.679,310.102 993.679,391.733"/>
<polyline class="Stem" fill="none" stroke="#000000" stroke-width="3.25" stroke-linejoin="bevel" points="766.475,785.102 766.475,866.733"/>
<polyline class="Stem" fill="none" stroke="#000000" stroke-width="3.25" stroke-linejoin="bevel" points="1149.47,322.602 1149.47,404.233"/>
<polyline class="Stem" fill="none" stroke="#000000" stroke-width="3.25" stroke-linejoin="bevel" points="448.063,810.102 448.063,891.733"/>
<polyline class="Stem" fill="none" stroke="#000000" stroke-width="3.25" stroke-linejoin="bevel" points="1305.27,335.102 1305.27,416.733"/>
<polyline class="Stem" fill="none" stroke="#000000" stroke-width="3.25" stroke-linejoin="bevel" points="288.857,810.102 288.857,891.733"/>
<polyline class="Stem" fill="none" stroke="#000000" stroke-width="3.25" stroke-linejoin="bevel" points="2461.71,1785.1 2461.71,1861.08"/>
<polyline class="Stem" fill="none" stroke="#000000" stroke-width="3.25" stroke-linejoin="bevel" points="1461.06,347.602 1461.06,429.233"/>
<polyline class="Stem" fill="none" stroke="#000000" stroke-width="3.25" stroke-linejoin="bevel" points="607.269,797.602 607.269,879.233"/>
<polyline class="Stem" fill="none" stroke="#000000" stroke-width="3.25" stroke-linejoin="bevel" points="2598.5,346.632 2598.5,429.233"/>
<polyline class="Stem" fill="none" stroke="#000000" stroke-width="3.25" stroke-linejoin="bevel" points="1801.65,360.102 1801.65,435.483"/>
<polyline class="Stem" fill="none" stroke="#000000" stroke-width="3.25" stroke-linejoin="bevel" points="2495.54,347.602 2495.54,429.833"/>
<polyline class="Stem" fill="none" stroke="#000000" stroke-width="3.25" stroke-linejoin="bevel" points="1938.92,822.602 1938.92,904.233"/>
<polyline class="Stem" fill="none" stroke="#000000" stroke-width="3.25" stroke-linejoin="bevel" points="2565.62,1784.13 2565.62,1860.48"/>
<polyline class="Stem" fill="none" stroke="#000000" stroke-width="3.25" stroke-linejoin="bevel" points="1957.45,347.602 1957.45,429.233"/>
<polyline class="Stem" fill="none" stroke="#000000" stroke-width="3.25" stroke-linejoin="bevel" points="2298.04,335.102 2298.04,416.733"/>
<polyline class="Stem" fill="none" stroke="#000000" stroke-width="3.25" stroke-linejoin="bevel" points="2113.24,335.102 2113.24,416.733"/>
<polyline class="Stem" fill="none" stroke="#000000" stroke-width="3.25" stroke-linejoin="bevel" points="1779.71,835.102 1779.71,910.483"/>
<polyline class="Stem" fill="none" stroke="#000000" stroke-width="3.25" stroke-linejoin="bevel" points="497.293,335.102 497.293,416.733"/>
<polyline class="Stem" fill="none" stroke="#000000" stroke-width="3.25" stroke-linejoin="bevel" points="1620.5,835.102 1620.5,910.483"/>
<polyline class="Stem" fill="none" stroke="#000000" stroke-width="3.25" stroke-linejoin="bevel" points="653.088,322.602 653.088,404.233"/>
<polyline class="Stem" fill="none" stroke="#000000" stroke-width="3.25" stroke-linejoin="bevel" points="1432.3,822.602 1432.3,904.233"/>
<polyline class="Stem" fill="none" stroke="#000000" stroke-width="3.25" stroke-linejoin="bevel" points="341.498,335.102 341.498,416.733"/>
<polyline class="Stem" fill="none" stroke="#000000" stroke-width="3.25" stroke-linejoin="bevel" points="1273.09,810.102 1273.09,891.733"/>
<polyline class="Stem" fill="none" stroke="#000000" stroke-width="3.25" stroke-linejoin="bevel" points="808.884,310.102 808.884,391.733"/>
<polyline class="Stem" fill="none" stroke="#000000" stroke-width="3.25" stroke-linejoin="bevel" points="1113.89,797.602 1113.89,879.233"/>
<path class="Hook" d="M2516.66,356.873 C2518.16,356.873 2519.74,359.298 2521.4,364.147 C2523.07,368.996 2523.9,373.438 2523.9,377.475 C2523.9,381.511 2522.97,385.417 2521.12,389.193 C2519.26,392.97 2517.03,396.29 2514.43,399.154 L2506.41,408.139 C2503.94,411.003 2501.76,414.29 2499.87,417.998 C2497.98,421.706 2497.04,425.451 2497.04,429.233 L2493.91,429.233 L2493.91,404.233 L2497.04,404.233 C2507.97,397.326 2514.84,391.206 2517.65,385.873 C2519.01,383.269 2519.69,380.634 2519.69,377.967 C2519.69,371.779 2517.9,365.623 2514.32,359.498 L2514.32,359.108 C2514.32,358.524 2514.55,358.006 2515.01,357.553 C2515.46,357.1 2516.02,356.873 2516.66,356.873"/>
<path class="Hook" d="M2482.84,1788.12 C2484.34,1788.12 2485.92,1790.55 2487.58,1795.4 C2489.24,1800.25 2490.07,1804.69 2490.07,1808.73 C2490.07,1812.76 2489.15,1816.67 2487.29,1820.44 C2485.44,1824.22 2483.21,1827.54 2480.6,1830.41 L2472.59,1839.39 C2470.12,1842.25 2467.94,1845.54 2466.05,1849.25 C2464.16,1852.96 2463.21,1856.7 2463.21,1860.48 L2460.09,1860.48 L2460.09,1835.48 L2463.21,1835.48 C2474.15,1828.58 2481.02,1822.46 2483.82,1817.12 C2485.19,1814.52 2485.87,1811.88 2485.87,1809.22 C2485.87,1803.03 2484.08,1796.87 2480.5,1790.75 L2480.5,1790.36 C2480.5,1789.78 2480.72,1789.26 2481.18,1788.8 C2481.64,1788.35 2482.19,1788.12 2482.84,1788.12"/>
<path class="Hook" d="M2509.27,838.123 C2510.77,838.123 2512.35,840.548 2514.01,845.397 C2515.68,850.246 2516.51,854.689 2516.51,858.725 C2516.51,862.761 2515.58,866.668 2513.73,870.444 C2511.87,874.22 2509.64,877.54 2507.04,880.405 L2499.02,889.389 C2496.55,892.254 2494.37,895.54 2492.48,899.248 C2490.59,902.957 2489.65,906.702 2489.65,910.483 L2486.52,910.483 L2486.52,885.483 L2489.65,885.483 C2500.59,878.577 2507.45,872.457 2510.26,867.123 C2511.62,864.519 2512.3,861.884 2512.3,859.217 C2512.3,853.03 2510.51,846.873 2506.93,840.748 L2506.93,840.358 C2506.93,839.775 2507.16,839.256 2507.62,838.803 C2508.07,838.35 2508.63,838.123 2509.27,838.123"/>
<path class="Note" d="M1977.79,327.967 C1980.92,327.967 1983.52,328.748 1985.61,330.311 C1987.69,331.873 1988.73,334.118 1988.73,337.045 C1988.73,341.535 1986.41,345.732 1981.75,349.639 C1977.1,353.545 1972.11,355.498 1966.76,355.498 C1963.64,355.498 1961,354.686 1958.86,353.061 C1956.84,351.3 1955.82,349.087 1955.82,346.42 C1955.82,342.055 1958.14,337.889 1962.76,333.92 C1967.39,329.951 1972.4,327.967 1977.79,327.967"/>
<path class="Note" d="M2403.48,1277.97 C2406.61,1277.97 2409.21,1278.75 2411.3,1280.31 C2413.38,1281.87 2414.42,1284.12 2414.42,1287.05 C2414.42,1291.54 2412.1,1295.73 2407.45,1299.64 C2402.79,1303.55 2397.8,1305.5 2392.45,1305.5 C2389.33,1305.5 2386.69,1304.69 2384.55,1303.06 C2382.53,1301.3 2381.52,1299.09 2381.52,1296.42 C2381.52,1292.06 2383.83,1287.89 2388.45,1283.92 C2393.08,1279.95 2398.09,1277.97 2403.48,1277.97"/>
<path class="Note" d="M1624.91,1765.47 C1628.03,1765.47 1630.64,1766.25 1632.72,1767.81 C1634.8,1769.37 1635.85,1771.62 1635.85,1774.55 C1635.85,1779.04 1633.52,1783.23 1628.87,1787.14 C1624.22,1791.05 1619.22,1793 1613.88,1793 C1610.75,1793 1608.12,1792.19 1605.97,1790.56 C1603.95,1788.8 1602.94,1786.59 1602.94,1783.92 C1602.94,1779.56 1605.25,1775.39 1609.88,1771.42 C1614.5,1767.45 1619.51,1765.47 1624.91,1765.47"/>
<path class="Note" d="M2553.47,1327.97 C2556.59,1327.97 2559.2,1328.75 2561.28,1330.31 C2563.36,1331.87 2564.41,1334.12 2564.41,1337.05 C2564.41,1341.54 2562.08,1345.73 2557.43,1349.64 C2552.78,1353.55 2547.78,1355.5 2542.44,1355.5 C2539.31,1355.5 2536.68,1354.69 2534.53,1353.06 C2532.51,1351.3 2531.5,1349.09 2531.5,1346.42 C2531.5,1342.06 2533.81,1337.89 2538.44,1333.92 C2543.06,1329.95 2548.07,1327.97 2553.47,1327.97"/>
<path class="Note" d="M1782.12,1765.47 C1785.25,1765.47 1787.85,1766.25 1789.93,1767.81 C1792.02,1769.37 1793.06,1771.62 1793.06,1774.55 C1793.06,1779.04 1790.73,1783.23 1786.08,1787.14 C1781.43,1791.05 1776.43,1793 1771.09,1793 C1767.97,1793 1765.33,1792.19 1763.18,1790.56 C1761.16,1788.8 1760.15,1786.59 1760.15,1783.92 C1760.15,1779.56 1762.47,1775.39 1767.09,1771.42 C1771.72,1767.45 1776.73,1765.47 1782.12,1765.47"/>
<path class="Note" d="M1822,340.467 C1825.12,340.467 1827.73,341.248 1829.81,342.811 C1831.89,344.373 1832.94,346.618 1832.94,349.545 C1832.94,354.035 1830.61,358.232 1825.96,362.139 C1821.31,366.045 1816.31,367.998 1810.97,367.998 C1807.84,367.998 1805.21,367.186 1803.06,365.561 C1801.04,363.8 1800.03,361.587 1800.03,358.92 C1800.03,354.555 1802.34,350.389 1806.97,346.42 C1811.59,342.451 1816.6,340.467 1822,340.467"/>
<path class="Note" d="M2703.45,1265.47 C2706.58,1265.47 2709.18,1266.25 2711.27,1267.81 C2713.35,1269.37 2714.39,1271.62 2714.39,1274.55 C2714.39,1279.04 2712.06,1283.23 2707.41,1287.14 C2702.76,1291.05 2697.77,1293 2692.42,1293 C2689.3,1293 2686.66,1292.19 2684.52,1290.56 C2682.49,1288.8 2681.48,1286.59 2681.48,1283.92 C2681.48,1279.56 2683.8,1275.39 2688.42,1271.42 C2693.05,1267.45 2698.06,1265.47 2703.45,1265.47"/>
<path class="Note" d="M361.842,315.467 C364.967,315.467 367.571,316.248 369.654,317.811 C371.738,319.373 372.779,321.618 372.779,324.545 C372.779,329.035 370.454,333.232 365.803,337.139 C361.152,341.045 356.154,342.998 350.811,342.998 C347.686,342.998 345.05,342.186 342.904,340.561 C340.884,338.8 339.873,336.587 339.873,333.92 C339.873,329.555 342.186,325.389 346.811,321.42 C351.436,317.451 356.446,315.467 361.842,315.467"/>
<path class="Note" d="M2253.5,1290.47 C2256.63,1290.47 2259.23,1291.25 2261.31,1292.81 C2263.4,1294.37 2264.44,1296.62 2264.44,1299.55 C2264.44,1304.04 2262.11,1308.23 2257.46,1312.14 C2252.81,1316.05 2247.81,1318 2242.47,1318 C2239.34,1318 2236.71,1317.19 2234.56,1315.56 C2232.54,1313.8 2231.53,1311.59 2231.53,1308.92 C2231.53,1304.56 2233.84,1300.39 2238.47,1296.42 C2243.09,1292.45 2248.1,1290.47 2253.5,1290.47"/>
<path class="Note" d="M1666.2,340.467 C1669.33,340.467 1671.93,341.248 1674.02,342.811 C1676.1,344.373 1677.14,346.618 1677.14,349.545 C1677.14,354.035 1674.82,358.232 1670.16,362.139 C1665.51,366.045 1660.52,367.998 1655.17,367.998 C1652.05,367.998 1649.41,367.186 1647.27,365.561 C1645.24,363.8 1644.23,361.587 1644.23,358.92 C1644.23,354.555 1646.55,350.389 1651.17,346.42 C1655.8,342.451 1660.81,340.467 1666.2,340.467"/>
<path class="Note" d="M466.415,1740.47 C469.54,1740.47 472.144,1741.25 474.227,1742.81 C476.311,1744.37 477.352,1746.62 477.352,1749.55 C477.352,1754.04 475.027,1758.23 470.376,1762.14 C465.725,1766.05 460.727,1768 455.383,1768 C452.258,1768 449.623,1767.19 447.477,1765.56 C445.456,1763.8 444.446,1761.59 444.446,1758.92 C444.446,1754.56 446.758,1750.39 451.383,1746.42 C456.008,1742.45 461.019,1740.47 466.415,1740.47"/>
<path class="Note" d="M967.055,1715.47 C970.18,1715.47 972.784,1716.25 974.868,1717.81 C976.951,1719.37 977.993,1721.62 977.993,1724.55 C977.993,1729.04 975.667,1733.23 971.016,1737.14 C966.365,1741.05 961.368,1743 956.024,1743 C952.899,1743 950.263,1742.19 948.118,1740.56 C946.097,1738.8 945.086,1736.59 945.086,1733.92 C945.086,1729.56 947.399,1725.39 952.024,1721.42 C956.649,1717.45 961.659,1715.47 967.055,1715.47"/>
<path class="Note" d="M829.227,290.467 C832.352,290.467 834.957,291.248 837.04,292.811 C839.123,294.373 840.165,296.618 840.165,299.545 C840.165,304.035 837.839,308.232 833.188,312.139 C828.537,316.045 823.54,317.998 818.196,317.998 C815.071,317.998 812.436,317.186 810.29,315.561 C808.269,313.8 807.259,311.587 807.259,308.92 C807.259,304.555 809.571,300.389 814.196,296.42 C818.821,292.451 823.832,290.467 829.227,290.467"/>
<path class="Note" d="M1014.02,290.467 C1017.15,290.467 1019.75,291.248 1021.84,292.811 C1023.92,294.373 1024.96,296.618 1024.96,299.545 C1024.96,304.035 1022.63,308.232 1017.98,312.139 C1013.33,316.045 1008.34,317.998 1002.99,317.998 C999.866,317.998 997.231,317.186 995.085,315.561 C993.064,313.8 992.054,311.587 992.054,308.92 C992.054,304.555 994.366,300.389 998.991,296.42 C1003.62,292.451 1008.63,290.467 1014.02,290.467"/>
<path class="Note" d="M780.842,1715.47 C783.967,1715.47 786.571,1716.25 788.654,1717.81 C790.737,1719.37 791.779,1721.62 791.779,1724.55 C791.779,1729.04 789.454,1733.23 784.803,1737.14 C780.151,1741.05 775.154,1743 769.81,1743 C766.685,1743 764.05,1742.19 761.904,1740.56 C759.883,1738.8 758.873,1736.59 758.873,1733.92 C758.873,1729.56 761.185,1725.39 765.81,1721.42 C770.435,1717.45 775.446,1715.47 780.842,1715.47"/>
<path class="Note" d="M1124.27,1727.97 C1127.39,1727.97 1130,1728.75 1132.08,1730.31 C1134.16,1731.87 1135.21,1734.12 1135.21,1737.05 C1135.21,1741.54 1132.88,1745.73 1128.23,1749.64 C1123.58,1753.55 1118.58,1755.5 1113.24,1755.5 C1110.11,1755.5 1107.48,1754.69 1105.33,1753.06 C1103.31,1751.3 1102.3,1749.09 1102.3,1746.42 C1102.3,1742.06 1104.61,1737.89 1109.24,1733.92 C1113.86,1729.95 1118.87,1727.97 1124.27,1727.97"/>
<path class="Note" d="M623.628,1727.97 C626.753,1727.97 629.357,1728.75 631.441,1730.31 C633.524,1731.87 634.566,1734.12 634.566,1737.05 C634.566,1741.54 632.24,1745.73 627.589,1749.64 C622.938,1753.55 617.941,1755.5 612.597,1755.5 C609.472,1755.5 606.836,1754.69 604.691,1753.06 C602.67,1751.3 601.659,1749.09 601.659,1746.42 C601.659,1742.06 603.972,1737.89 608.597,1733.92 C613.222,1729.95 618.232,1727.97 623.628,1727.97"/>
<path class="Note" d="M2096.55,1740.47 C2099.67,1740.47 2102.28,1741.25 2104.36,1742.81 C2106.45,1744.37 2107.49,1746.62 2107.49,1749.55 C2107.49,1754.04 2105.16,1758.23 2100.51,1762.14 C2095.86,1766.05 2090.86,1768 2085.52,1768 C2082.39,1768 2079.76,1767.19 2077.61,1765.56 C2075.59,1763.8 2074.58,1761.59 2074.58,1758.92 C2074.58,1754.56 2076.89,1750.39 2081.52,1746.42 C2086.14,1742.45 2091.15,1740.47 2096.55,1740.47"/>
<path class="Note" d="M1169.82,302.967 C1172.94,302.967 1175.55,303.748 1177.63,305.311 C1179.71,306.873 1180.76,309.118 1180.76,312.045 C1180.76,316.535 1178.43,320.732 1173.78,324.639 C1169.13,328.545 1164.13,330.498 1158.79,330.498 C1155.66,330.498 1153.03,329.686 1150.88,328.061 C1148.86,326.3 1147.85,324.087 1147.85,321.42 C1147.85,317.055 1150.16,312.889 1154.79,308.92 C1159.41,304.951 1164.42,302.967 1169.82,302.967"/>
<path class="Note" d="M517.637,315.467 C520.762,315.467 523.366,316.248 525.45,317.811 C527.533,319.373 528.575,321.618 528.575,324.545 C528.575,329.035 526.249,333.232 521.598,337.139 C516.947,341.045 511.95,342.998 506.606,342.998 C503.481,342.998 500.845,342.186 498.7,340.561 C496.679,338.8 495.668,336.587 495.668,333.92 C495.668,329.555 497.981,325.389 502.606,321.42 C507.231,317.451 512.241,315.467 517.637,315.467"/>
<path class="Note" d="M673.432,302.967 C676.557,302.967 679.161,303.748 681.245,305.311 C683.328,306.873 684.37,309.118 684.37,312.045 C684.37,316.535 682.044,320.732 677.393,324.639 C672.742,328.545 667.745,330.498 662.401,330.498 C659.276,330.498 656.641,329.686 654.495,328.061 C652.474,326.3 651.463,324.087 651.463,321.42 C651.463,317.055 653.776,312.889 658.401,308.92 C663.026,304.951 668.036,302.967 673.432,302.967"/>
<path class="Note" d="M1281.48,1740.47 C1284.61,1740.47 1287.21,1741.25 1289.29,1742.81 C1291.38,1744.37 1292.42,1746.62 1292.42,1749.55 C1292.42,1754.04 1290.09,1758.23 1285.44,1762.14 C1280.79,1766.05 1275.79,1768 1270.45,1768 C1267.33,1768 1264.69,1767.19 1262.54,1765.56 C1260.52,1763.8 1259.51,1761.59 1259.51,1758.92 C1259.51,1754.56 1261.83,1750.39 1266.45,1746.42 C1271.08,1742.45 1276.09,1740.47 1281.48,1740.47"/>
<path class="Note" d="M309.201,1740.47 C312.326,1740.47 314.93,1741.25 317.014,1742.81 C319.097,1744.37 320.139,1746.62 320.139,1749.55 C320.139,1754.04 317.813,1758.23 313.162,1762.14 C308.511,1766.05 303.514,1768 298.17,1768 C295.045,1768 292.41,1767.19 290.264,1765.56 C288.243,1763.8 287.232,1761.59 287.232,1758.92 C287.232,1754.56 289.545,1750.39 294.17,1746.42 C298.795,1742.45 303.805,1740.47 309.201,1740.47"/>
<path class="Note" d="M1325.61,315.467 C1328.74,315.467 1331.34,316.248 1333.43,317.811 C1335.51,319.373 1336.55,321.618 1336.55,324.545 C1336.55,329.035 1334.22,333.232 1329.57,337.139 C1324.92,341.045 1319.93,342.998 1314.58,342.998 C1311.46,342.998 1308.82,342.186 1306.68,340.561 C1304.65,338.8 1303.64,336.587 1303.64,333.92 C1303.64,329.555 1305.96,325.389 1310.58,321.42 C1315.21,317.451 1320.22,315.467 1325.61,315.467"/>
<path class="Note" d="M1438.7,1752.97 C1441.82,1752.97 1444.42,1753.75 1446.51,1755.31 C1448.59,1756.87 1449.63,1759.12 1449.63,1762.05 C1449.63,1766.54 1447.31,1770.73 1442.66,1774.64 C1438.01,1778.55 1433.01,1780.5 1427.66,1780.5 C1424.54,1780.5 1421.9,1779.69 1419.76,1778.06 C1417.74,1776.3 1416.73,1774.09 1416.73,1771.42 C1416.73,1767.06 1419.04,1762.89 1423.66,1758.92 C1428.29,1754.95 1433.3,1752.97 1438.7,1752.97"/>
<path class="Note" d="M1939.34,1752.97 C1942.46,1752.97 1945.07,1753.75 1947.15,1755.31 C1949.23,1756.87 1950.27,1759.12 1950.27,1762.05 C1950.27,1766.54 1947.95,1770.73 1943.3,1774.64 C1938.65,1778.55 1933.65,1780.5 1928.3,1780.5 C1925.18,1780.5 1922.54,1779.69 1920.4,1778.06 C1918.38,1776.3 1917.37,1774.09 1917.37,1771.42 C1917.37,1767.06 1919.68,1762.89 1924.3,1758.92 C1928.93,1754.95 1933.94,1752.97 1939.34,1752.97"/>
<path class="Note" d="M1481.41,327.967 C1484.53,327.967 1487.14,328.748 1489.22,330.311 C1491.3,331.873 1492.35,334.118 1492.35,337.045 C1492.35,341.535 1490.02,345.732 1485.37,349.639 C1480.72,353.545 1475.72,355.498 1470.38,355.498 C1467.25,355.498 1464.62,354.686 1462.47,353.061 C1460.45,351.3 1459.44,349.087 1459.44,346.42 C1459.44,342.055 1461.75,337.889 1466.38,333.92 C1471,329.951 1476.01,327.967 1481.41,327.967"/>
<path class="Note" d="M2599.18,839.873 C2601.06,839.873 2605.02,837.92 2611.05,834.014 C2617.07,830.108 2620.62,827.488 2621.69,826.155 C2622.77,824.821 2623.3,823.634 2623.3,822.592 C2623.3,821.551 2622.88,820.623 2622.03,819.811 C2621.18,818.998 2620.21,818.592 2619.1,818.592 C2617.15,818.592 2613.17,820.561 2607.14,824.498 C2601.11,828.436 2597.58,831.056 2596.54,832.358 C2595.5,833.66 2594.98,834.832 2594.98,835.873 C2594.98,836.915 2595.38,837.842 2596.2,838.655 C2597.02,839.467 2598.01,839.873 2599.18,839.873 M2618.13,815.467 C2623.73,815.467 2626.52,817.873 2626.52,822.686 C2626.52,825.03 2625.84,827.748 2624.48,830.842 C2623.11,833.936 2621.29,836.295 2619.01,837.92 C2614,841.306 2607.72,842.998 2600.16,842.998 C2594.56,842.998 2591.76,840.592 2591.76,835.78 C2591.76,833.634 2592.42,830.965 2593.76,827.772 C2595.09,824.579 2596.93,822.17 2599.27,820.545 C2604.29,817.16 2610.58,815.467 2618.13,815.467"/>
<path class="Note" d="M716.654,1290.47 C719.779,1290.47 722.383,1291.25 724.466,1292.81 C726.549,1294.37 727.591,1296.62 727.591,1299.55 C727.591,1304.04 725.266,1308.23 720.615,1312.14 C715.964,1316.05 710.966,1318 705.622,1318 C702.497,1318 699.862,1317.19 697.716,1315.56 C695.695,1313.8 694.685,1311.59 694.685,1308.92 C694.685,1304.56 696.997,1300.39 701.622,1296.42 C706.247,1292.45 711.258,1290.47 716.654,1290.47"/>
<path class="Note" d="M566.669,1265.47 C569.794,1265.47 572.399,1266.25 574.482,1267.81 C576.565,1269.37 577.607,1271.62 577.607,1274.55 C577.607,1279.04 575.281,1283.23 570.63,1287.14 C565.979,1291.05 560.982,1293 555.638,1293 C552.513,1293 549.878,1292.19 547.732,1290.56 C545.711,1288.8 544.701,1286.59 544.701,1283.92 C544.701,1279.56 547.013,1275.39 551.638,1271.42 C556.263,1267.45 561.274,1265.47 566.669,1265.47"/>
<path class="Note" d="M786.819,765.467 C789.944,765.467 792.548,766.248 794.631,767.811 C796.714,769.373 797.756,771.618 797.756,774.545 C797.756,779.035 795.431,783.233 790.779,787.139 C786.128,791.045 781.131,792.998 775.787,792.998 C772.662,792.998 770.027,792.186 767.881,790.561 C765.86,788.8 764.85,786.587 764.85,783.92 C764.85,779.556 767.162,775.389 771.787,771.42 C776.412,767.452 781.423,765.467 786.819,765.467"/>
<path class="Note" d="M416.685,1277.97 C419.81,1277.97 422.414,1278.75 424.498,1280.31 C426.581,1281.87 427.623,1284.12 427.623,1287.05 C427.623,1291.54 425.297,1295.73 420.646,1299.64 C415.995,1303.55 410.998,1305.5 405.654,1305.5 C402.529,1305.5 399.894,1304.69 397.748,1303.06 C395.727,1301.3 394.717,1299.09 394.717,1296.42 C394.717,1292.06 397.029,1287.89 401.654,1283.92 C406.279,1279.95 411.289,1277.97 416.685,1277.97"/>
<path class="Note" d="M266.701,1277.97 C269.826,1277.97 272.43,1278.75 274.514,1280.31 C276.597,1281.87 277.639,1284.12 277.639,1287.05 C277.639,1291.54 275.313,1295.73 270.662,1299.64 C266.011,1303.55 261.014,1305.5 255.67,1305.5 C252.545,1305.5 249.91,1304.69 247.764,1303.06 C245.743,1301.3 244.732,1299.09 244.732,1296.42 C244.732,1292.06 247.045,1287.89 251.67,1283.92 C256.295,1279.95 261.305,1277.97 266.701,1277.97"/>
<path class="Note" d="M975.024,765.467 C978.149,765.467 980.754,766.248 982.837,767.811 C984.92,769.373 985.962,771.618 985.962,774.545 C985.962,779.035 983.636,783.233 978.985,787.139 C974.334,791.045 969.337,792.998 963.993,792.998 C960.868,792.998 958.233,792.186 956.087,790.561 C954.066,788.8 953.056,786.587 953.056,783.92 C953.056,779.556 955.368,775.389 959.993,771.42 C964.618,767.452 969.629,765.467 975.024,765.467"/>
<path class="Note" d="M1134.23,777.967 C1137.36,777.967 1139.96,778.748 1142.04,780.311 C1144.13,781.873 1145.17,784.118 1145.17,787.045 C1145.17,791.535 1142.84,795.733 1138.19,799.639 C1133.54,803.545 1128.54,805.498 1123.2,805.498 C1120.07,805.498 1117.44,804.686 1115.29,803.061 C1113.27,801.3 1112.26,799.087 1112.26,796.42 C1112.26,792.056 1114.57,787.889 1119.2,783.92 C1123.82,779.952 1128.83,777.967 1134.23,777.967"/>
<path class="Note" d="M1293.44,790.467 C1296.56,790.467 1299.17,791.248 1301.25,792.811 C1303.33,794.373 1304.37,796.618 1304.37,799.545 C1304.37,804.035 1302.05,808.233 1297.4,812.139 C1292.75,816.045 1287.75,817.998 1282.4,817.998 C1279.28,817.998 1276.64,817.186 1274.5,815.561 C1272.48,813.8 1271.47,811.587 1271.47,808.92 C1271.47,804.556 1273.78,800.389 1278.4,796.42 C1283.03,792.452 1288.04,790.467 1293.44,790.467"/>
<path class="Note" d="M627.613,777.967 C630.738,777.967 633.342,778.748 635.425,780.311 C637.509,781.873 638.55,784.118 638.55,787.045 C638.55,791.535 636.225,795.733 631.574,799.639 C626.923,803.545 621.925,805.498 616.582,805.498 C613.457,805.498 610.821,804.686 608.675,803.061 C606.654,801.3 605.644,799.087 605.644,796.42 C605.644,792.056 607.957,787.889 612.582,783.92 C617.207,779.952 622.217,777.967 627.613,777.967"/>
<path class="Note" d="M1452.64,802.967 C1455.77,802.967 1458.37,803.748 1460.45,805.311 C1462.54,806.873 1463.58,809.118 1463.58,812.045 C1463.58,816.535 1461.25,820.733 1456.6,824.639 C1451.95,828.545 1446.95,830.498 1441.61,830.498 C1438.49,830.498 1435.85,829.686 1433.7,828.061 C1431.68,826.3 1430.67,824.087 1430.67,821.42 C1430.67,817.056 1432.99,812.889 1437.61,808.92 C1442.24,804.952 1447.25,802.967 1452.64,802.967"/>
<path class="Note" d="M2508.49,815.467 C2511.62,815.467 2514.22,816.248 2516.3,817.811 C2518.39,819.373 2519.43,821.618 2519.43,824.545 C2519.43,829.035 2517.1,833.233 2512.45,837.139 C2507.8,841.045 2502.8,842.998 2497.46,842.998 C2494.34,842.998 2491.7,842.186 2489.55,840.561 C2487.53,838.801 2486.52,836.587 2486.52,833.92 C2486.52,829.556 2488.84,825.389 2493.46,821.42 C2498.09,817.452 2503.1,815.467 2508.49,815.467"/>
<path class="Note" d="M2282.76,1752.97 C2285.89,1752.97 2288.49,1753.75 2290.58,1755.31 C2292.66,1756.87 2293.7,1759.12 2293.7,1762.05 C2293.7,1766.54 2291.37,1770.73 2286.72,1774.64 C2282.07,1778.55 2277.08,1780.5 2271.73,1780.5 C2268.61,1780.5 2265.97,1779.69 2263.83,1778.06 C2261.8,1776.3 2260.79,1774.09 2260.79,1771.42 C2260.79,1767.06 2263.11,1762.89 2267.73,1758.92 C2272.36,1754.95 2277.37,1752.97 2282.76,1752.97"/>
<path class="Note" d="M2306.67,802.967 C2309.8,802.967 2312.4,803.748 2314.48,805.311 C2316.57,806.873 2317.61,809.118 2317.61,812.045 C2317.61,816.535 2315.28,820.733 2310.63,824.639 C2305.98,828.545 2300.98,830.498 2295.64,830.498 C2292.51,830.498 2289.88,829.686 2287.73,828.061 C2285.71,826.3 2284.7,824.087 2284.7,821.42 C2284.7,817.056 2287.01,812.889 2291.64,808.92 C2296.26,804.952 2301.27,802.967 2306.67,802.967"/>
<path class="Note" d="M1640.85,815.467 C1643.97,815.467 1646.58,816.248 1648.66,817.811 C1650.74,819.373 1651.78,821.618 1651.78,824.545 C1651.78,829.035 1649.46,833.233 1644.81,837.139 C1640.16,841.045 1635.16,842.998 1629.82,842.998 C1626.69,842.998 1624.06,842.186 1621.91,840.561 C1619.89,838.801 1618.88,836.587 1618.88,833.92 C1618.88,829.556 1621.19,825.389 1625.82,821.42 C1630.44,817.452 1635.45,815.467 1640.85,815.467"/>
<path class="Note" d="M2118.46,790.467 C2121.59,790.467 2124.19,791.248 2126.28,792.811 C2128.36,794.373 2129.4,796.618 2129.4,799.545 C2129.4,804.035 2127.08,808.233 2122.43,812.139 C2117.77,816.045 2112.78,817.998 2107.43,817.998 C2104.31,817.998 2101.67,817.186 2099.53,815.561 C2097.51,813.8 2096.5,811.587 2096.5,808.92 C2096.5,804.556 2098.81,800.389 2103.43,796.42 C2108.06,792.452 2113.07,790.467 2118.46,790.467"/>
<path class="Note" d="M1800.05,815.467 C1803.18,815.467 1805.78,816.248 1807.87,817.811 C1809.95,819.373 1810.99,821.618 1810.99,824.545 C1810.99,829.035 1808.67,833.233 1804.01,837.139 C1799.36,841.045 1794.37,842.998 1789.02,842.998 C1785.9,842.998 1783.26,842.186 1781.12,840.561 C1779.09,838.801 1778.08,836.587 1778.08,833.92 C1778.08,829.556 1780.4,825.389 1785.02,821.42 C1789.65,817.452 1794.66,815.467 1800.05,815.467"/>
<path class="Note" d="M1959.26,802.967 C1962.38,802.967 1964.99,803.748 1967.07,805.311 C1969.15,806.873 1970.2,809.118 1970.2,812.045 C1970.2,816.535 1967.87,820.733 1963.22,824.639 C1958.57,828.545 1953.57,830.498 1948.23,830.498 C1945.1,830.498 1942.47,829.686 1940.32,828.061 C1938.3,826.3 1937.29,824.087 1937.29,821.42 C1937.29,817.056 1939.6,812.889 1944.23,808.92 C1948.85,804.952 1953.86,802.967 1959.26,802.967"/>
<path class="Note" d="M2604.3,352.373 C2606.18,352.373 2610.14,350.42 2616.16,346.514 C2622.19,342.607 2625.74,339.988 2626.81,338.654 C2627.88,337.321 2628.42,336.134 2628.42,335.092 C2628.42,334.05 2628,333.123 2627.15,332.311 C2626.3,331.498 2625.32,331.092 2624.22,331.092 C2622.27,331.092 2618.28,333.061 2612.26,336.998 C2606.23,340.936 2602.7,343.555 2601.65,344.857 C2600.61,346.16 2600.09,347.331 2600.09,348.373 C2600.09,349.415 2600.5,350.342 2601.32,351.154 C2602.14,351.967 2603.13,352.373 2604.3,352.373 M2623.25,327.967 C2628.84,327.967 2631.64,330.373 2631.64,335.186 C2631.64,337.529 2630.96,340.248 2629.59,343.342 C2628.23,346.436 2626.4,348.795 2624.12,350.42 C2619.11,353.805 2612.83,355.498 2605.28,355.498 C2599.68,355.498 2596.87,353.092 2596.87,348.279 C2596.87,346.134 2597.54,343.464 2598.87,340.272 C2600.21,337.079 2602.05,334.67 2604.39,333.045 C2609.41,329.66 2615.7,327.967 2623.25,327.967"/>
<path class="Note" d="M2571.42,1789.87 C2573.3,1789.87 2577.26,1787.92 2583.28,1784.01 C2589.31,1780.11 2592.86,1777.49 2593.93,1776.16 C2595.01,1774.82 2595.54,1773.63 2595.54,1772.59 C2595.54,1771.55 2595.12,1770.62 2594.27,1769.81 C2593.42,1769 2592.44,1768.59 2591.34,1768.59 C2589.39,1768.59 2585.4,1770.56 2579.38,1774.5 C2573.35,1778.44 2569.82,1781.06 2568.78,1782.36 C2567.74,1783.66 2567.21,1784.83 2567.21,1785.87 C2567.21,1786.92 2567.62,1787.84 2568.44,1788.66 C2569.26,1789.47 2570.25,1789.87 2571.42,1789.87 M2590.37,1765.47 C2595.96,1765.47 2598.76,1767.87 2598.76,1772.69 C2598.76,1775.03 2598.08,1777.75 2596.71,1780.84 C2595.35,1783.94 2593.53,1786.3 2591.25,1787.92 C2586.24,1791.31 2579.95,1793 2572.4,1793 C2566.8,1793 2564,1790.59 2564,1785.78 C2564,1783.63 2564.66,1780.97 2566,1777.77 C2567.33,1774.58 2569.17,1772.17 2571.51,1770.55 C2576.53,1767.16 2582.82,1765.47 2590.37,1765.47"/>
<path class="Note" d="M2074.52,1277.97 C2077.64,1277.97 2080.25,1278.75 2082.33,1280.31 C2084.41,1281.87 2085.45,1284.12 2085.45,1287.05 C2085.45,1291.54 2083.13,1295.73 2078.48,1299.64 C2073.83,1303.55 2068.83,1305.5 2063.49,1305.5 C2060.36,1305.5 2057.72,1304.69 2055.58,1303.06 C2053.56,1301.3 2052.55,1299.09 2052.55,1296.42 C2052.55,1292.06 2054.86,1287.89 2059.49,1283.92 C2064.11,1279.95 2069.12,1277.97 2074.52,1277.97"/>
<path class="Note" d="M2318.38,315.467 C2321.51,315.467 2324.11,316.248 2326.2,317.811 C2328.28,319.373 2329.32,321.618 2329.32,324.545 C2329.32,329.035 2327,333.232 2322.34,337.139 C2317.69,341.045 2312.7,342.998 2307.35,342.998 C2304.23,342.998 2301.59,342.186 2299.45,340.561 C2297.43,338.8 2296.42,336.587 2296.42,333.92 C2296.42,329.555 2298.73,325.389 2303.35,321.42 C2307.98,317.451 2312.99,315.467 2318.38,315.467"/>
<path class="Note" d="M1924.53,1265.47 C1927.66,1265.47 1930.26,1266.25 1932.34,1267.81 C1934.43,1269.37 1935.47,1271.62 1935.47,1274.55 C1935.47,1279.04 1933.14,1283.23 1928.49,1287.14 C1923.84,1291.05 1918.84,1293 1913.5,1293 C1910.38,1293 1907.74,1292.19 1905.59,1290.56 C1903.57,1288.8 1902.56,1286.59 1902.56,1283.92 C1902.56,1279.56 1904.88,1275.39 1909.5,1271.42 C1914.13,1267.45 1919.14,1265.47 1924.53,1265.47"/>
<path class="Note" d="M1824.54,1252.97 C1827.67,1252.97 1830.27,1253.75 1832.36,1255.31 C1834.44,1256.87 1835.48,1259.12 1835.48,1262.05 C1835.48,1266.54 1833.15,1270.73 1828.5,1274.64 C1823.85,1278.55 1818.86,1280.5 1813.51,1280.5 C1810.39,1280.5 1807.75,1279.69 1805.61,1278.06 C1803.58,1276.3 1802.57,1274.09 1802.57,1271.42 C1802.57,1267.06 1804.89,1262.89 1809.51,1258.92 C1814.14,1254.95 1819.15,1252.97 1824.54,1252.97"/>
<path class="Note" d="M1724.55,1265.47 C1727.68,1265.47 1730.28,1266.25 1732.37,1267.81 C1734.45,1269.37 1735.49,1271.62 1735.49,1274.55 C1735.49,1279.04 1733.17,1283.23 1728.51,1287.14 C1723.86,1291.05 1718.87,1293 1713.52,1293 C1710.4,1293 1707.76,1292.19 1705.62,1290.56 C1703.59,1288.8 1702.58,1286.59 1702.58,1283.92 C1702.58,1279.56 1704.9,1275.39 1709.52,1271.42 C1714.15,1267.45 1719.16,1265.47 1724.55,1265.47"/>
<path class="Note" d="M1574.57,1277.97 C1577.69,1277.97 1580.3,1278.75 1582.38,1280.31 C1584.46,1281.87 1585.51,1284.12 1585.51,1287.05 C1585.51,1291.54 1583.18,1295.73 1578.53,1299.64 C1573.88,1303.55 1568.88,1305.5 1563.54,1305.5 C1560.41,1305.5 1557.78,1304.69 1555.63,1303.06 C1553.61,1301.3 1552.6,1299.09 1552.6,1296.42 C1552.6,1292.06 1554.91,1287.89 1559.54,1283.92 C1564.16,1279.95 1569.17,1277.97 1574.57,1277.97"/>
<path class="Note" d="M2515.88,327.967 C2519.01,327.967 2521.61,328.748 2523.69,330.311 C2525.78,331.873 2526.82,334.118 2526.82,337.045 C2526.82,341.535 2524.49,345.732 2519.84,349.639 C2515.19,353.545 2510.19,355.498 2504.85,355.498 C2501.72,355.498 2499.09,354.686 2496.94,353.061 C2494.92,351.3 2493.91,349.087 2493.91,346.42 C2493.91,342.055 2496.22,337.889 2500.85,333.92 C2505.47,329.951 2510.49,327.967 2515.88,327.967"/>
<path class="Note" d="M2133.59,315.467 C2136.71,315.467 2139.32,316.248 2141.4,317.811 C2143.48,319.373 2144.53,321.618 2144.53,324.545 C2144.53,329.035 2142.2,333.232 2137.55,337.139 C2132.9,341.045 2127.9,342.998 2122.56,342.998 C2119.43,342.998 2116.8,342.186 2114.65,340.561 C2112.63,338.8 2111.62,336.587 2111.62,333.92 C2111.62,329.555 2113.93,325.389 2118.56,321.42 C2123.18,317.451 2128.19,315.467 2133.59,315.467"/>
<path class="Note" d="M1395.58,1290.47 C1398.71,1290.47 1401.31,1291.25 1403.4,1292.81 C1405.48,1294.37 1406.52,1296.62 1406.52,1299.55 C1406.52,1304.04 1404.2,1308.23 1399.55,1312.14 C1394.89,1316.05 1389.9,1318 1384.55,1318 C1381.43,1318 1378.79,1317.19 1376.65,1315.56 C1374.63,1313.8 1373.62,1311.59 1373.62,1308.92 C1373.62,1304.56 1375.93,1300.39 1380.55,1296.42 C1385.18,1292.45 1390.19,1290.47 1395.58,1290.47"/>
<path class="Note" d="M2482.06,1765.47 C2485.18,1765.47 2487.79,1766.25 2489.87,1767.81 C2491.95,1769.37 2493,1771.62 2493,1774.55 C2493,1779.04 2490.67,1783.23 2486.02,1787.14 C2481.37,1791.05 2476.37,1793 2471.03,1793 C2467.9,1793 2465.27,1792.19 2463.12,1790.56 C2461.1,1788.8 2460.09,1786.59 2460.09,1783.92 C2460.09,1779.56 2462.4,1775.39 2467.03,1771.42 C2471.65,1767.45 2476.66,1765.47 2482.06,1765.47"/>
<path class="Note" d="M1245.6,1265.47 C1248.73,1265.47 1251.33,1266.25 1253.41,1267.81 C1255.5,1269.37 1256.54,1271.62 1256.54,1274.55 C1256.54,1279.04 1254.21,1283.23 1249.56,1287.14 C1244.91,1291.05 1239.91,1293 1234.57,1293 C1231.44,1293 1228.81,1292.19 1226.66,1290.56 C1224.64,1288.8 1223.63,1286.59 1223.63,1283.92 C1223.63,1279.56 1225.94,1275.39 1230.57,1271.42 C1235.19,1267.45 1240.2,1265.47 1245.6,1265.47"/>
<path class="Note" d="M1145.61,1252.97 C1148.74,1252.97 1151.34,1253.75 1153.42,1255.31 C1155.51,1256.87 1156.55,1259.12 1156.55,1262.05 C1156.55,1266.54 1154.22,1270.73 1149.57,1274.64 C1144.92,1278.55 1139.92,1280.5 1134.58,1280.5 C1131.46,1280.5 1128.82,1279.69 1126.67,1278.06 C1124.65,1276.3 1123.64,1274.09 1123.64,1271.42 C1123.64,1267.06 1125.96,1262.89 1130.58,1258.92 C1135.21,1254.95 1140.22,1252.97 1145.61,1252.97"/>
<path class="Note" d="M309.201,790.467 C312.326,790.467 314.93,791.248 317.014,792.811 C319.097,794.373 320.139,796.618 320.139,799.545 C320.139,804.035 317.813,808.233 313.162,812.139 C308.511,816.045 303.514,817.998 298.17,817.998 C295.045,817.998 292.41,817.186 290.264,815.561 C288.243,813.8 287.232,811.587 287.232,808.92 C287.232,804.556 289.545,800.389 294.17,796.42 C298.795,792.452 303.805,790.467 309.201,790.467"/>
<path class="Note" d="M1045.62,1265.47 C1048.75,1265.47 1051.35,1266.25 1053.43,1267.81 C1055.52,1269.37 1056.56,1271.62 1056.56,1274.55 C1056.56,1279.04 1054.23,1283.23 1049.58,1287.14 C1044.93,1291.05 1039.93,1293 1034.59,1293 C1031.47,1293 1028.83,1292.19 1026.68,1290.56 C1024.66,1288.8 1023.65,1286.59 1023.65,1283.92 C1023.65,1279.56 1025.97,1275.39 1030.59,1271.42 C1035.22,1267.45 1040.23,1265.47 1045.62,1265.47"/>
<path class="Note" d="M895.638,1277.97 C898.763,1277.97 901.367,1278.75 903.45,1280.31 C905.534,1281.87 906.575,1284.12 906.575,1287.05 C906.575,1291.54 904.25,1295.73 899.599,1299.64 C894.948,1303.55 889.95,1305.5 884.607,1305.5 C881.482,1305.5 878.846,1304.69 876.7,1303.06 C874.679,1301.3 873.669,1299.09 873.669,1296.42 C873.669,1292.06 875.982,1287.89 880.607,1283.92 C885.232,1279.95 890.242,1277.97 895.638,1277.97"/>
<path class="Note" d="M468.407,790.467 C471.532,790.467 474.136,791.248 476.219,792.811 C478.303,794.373 479.344,796.618 479.344,799.545 C479.344,804.035 477.019,808.233 472.368,812.139 C467.717,816.045 462.719,817.998 457.376,817.998 C454.251,817.998 451.615,817.186 449.469,815.561 C447.449,813.8 446.438,811.587 446.438,808.92 C446.438,804.556 448.751,800.389 453.376,796.42 C458.001,792.452 463.011,790.467 468.407,790.467"/>
<path class="Clef" d="M203.623,423.858 L203.623,421.717 C203.56,420.613 203.399,418.889 203.139,416.545 C199.889,417.066 196.993,417.326 194.451,417.326 C185.337,417.326 177.605,413.727 171.256,406.529 C164.907,399.331 161.732,390.753 161.732,380.795 C161.732,378.128 162.253,374.923 163.295,371.178 C164.337,367.433 165.297,364.925 166.178,363.654 C167.058,362.384 168.378,360.154 170.139,356.967 C170.659,355.988 172.352,353.837 175.217,350.514 C175.738,349.805 176.193,349.222 176.584,348.764 C176.975,348.305 177.607,347.49 178.482,346.318 C179.357,345.147 180.3,344.055 181.31,343.045 C182.321,342.035 183.217,341.058 183.998,340.115 C184.779,339.173 185.498,338.378 186.154,337.733 C183.81,329.983 182.378,324.024 181.857,319.858 C181.337,315.691 181.076,310.579 181.076,304.522 C181.076,298.464 182.378,292.962 184.982,288.014 C187.514,282.878 191.06,278.68 195.623,275.42 C195.883,275.222 196.225,275.123 196.646,275.123 C197.068,275.123 197.378,275.222 197.576,275.42 C201.087,279.649 204.128,285.149 206.701,291.92 C209.274,298.691 210.56,305.024 210.56,310.92 C210.56,316.816 209.066,322.498 206.076,327.967 C202.691,333.759 198.326,339.748 192.982,345.936 C194.347,350.227 196.17,356.962 198.451,366.139 L199.045,366.139 C199.305,366.076 199.529,366.045 199.717,366.045 C207.081,366.045 213.089,368.634 217.74,373.811 C222.391,378.988 224.717,384.962 224.717,391.733 C224.717,400.128 221.238,406.899 214.279,412.045 C212.258,413.545 209.878,414.717 207.139,415.561 C207.472,419.79 207.639,422.605 207.639,424.006 C207.639,425.407 207.571,427.899 207.435,431.483 C207.373,437.597 205.29,442.837 201.185,447.201 C197.081,451.566 192.394,453.748 187.123,453.748 C181.852,453.748 177.36,451.876 173.646,448.131 C169.933,444.386 168.076,439.847 168.076,434.514 C168.076,431.712 169.154,429.331 171.31,427.373 C173.519,425.425 176.006,424.451 178.771,424.451 C181.537,424.451 183.8,425.462 185.56,427.483 C187.383,429.368 188.295,431.644 188.295,434.311 C188.295,436.977 187.383,439.222 185.56,441.045 C183.738,442.868 181.555,443.779 179.014,443.779 C177.972,443.779 176.967,443.587 175.998,443.201 C178.863,447.43 182.54,449.545 187.029,449.545 C191.519,449.545 195.36,447.691 198.553,443.983 C201.745,440.274 203.342,435.91 203.342,430.889 L203.623,423.858 M206.748,411.561 C210.133,410.321 212.821,408.123 214.81,404.967 C216.8,401.811 217.795,398.67 217.795,395.545 C217.795,390.92 216.199,386.785 213.006,383.139 C209.813,379.493 205.774,377.441 200.889,376.983 C203.691,390.722 205.644,402.248 206.748,411.561 M168.967,388.998 C168.967,395.446 171.537,401.079 176.678,405.897 C181.818,410.714 187.842,413.123 194.748,413.123 C197.477,413.123 200.144,412.925 202.748,412.529 C201.706,402.634 199.654,390.785 196.592,376.983 C192.758,377.378 189.782,378.699 187.662,380.943 C185.542,383.188 184.482,385.743 184.482,388.608 C184.482,393.555 187.123,397.561 192.404,400.623 C192.852,400.884 193.076,401.324 193.076,401.943 C193.076,402.563 192.865,403.1 192.443,403.553 C192.021,404.006 191.649,404.233 191.326,404.233 C191.003,404.233 190.581,404.17 190.06,404.045 C182.435,399.878 178.623,393.592 178.623,385.186 C178.623,381.217 180.024,377.41 182.826,373.764 C185.753,370.118 189.56,367.774 194.248,366.733 C192.425,359.441 190.93,353.743 189.764,349.639 C180.847,359.67 175.31,367.092 173.154,371.904 C170.363,378.154 168.967,383.852 168.967,388.998 M201.576,289.686 C196.691,292.092 192.834,295.574 190.006,300.131 C187.178,304.688 185.764,309.472 185.764,314.483 C185.764,319.493 186.935,325.972 189.279,333.92 C193.967,328.253 197.514,322.946 199.92,317.998 C202.326,313.05 203.529,308.152 203.529,303.303 C203.529,298.454 202.878,293.915 201.576,289.686"/>
<path class="Clef" d="M203.623,1848.86 L203.623,1846.72 C203.56,1845.61 203.399,1843.89 203.139,1841.55 C199.889,1842.07 196.993,1842.33 194.451,1842.33 C185.337,1842.33 177.605,1838.73 171.256,1831.53 C164.907,1824.33 161.732,1815.75 161.732,1805.8 C161.732,1803.13 162.253,1799.92 163.295,1796.18 C164.337,1792.43 165.297,1789.93 166.178,1788.66 C167.058,1787.38 168.378,1785.16 170.139,1781.97 C170.659,1780.99 172.352,1778.84 175.217,1775.51 C175.738,1774.81 176.193,1774.22 176.584,1773.76 C176.975,1773.31 177.607,1772.49 178.482,1771.32 C179.357,1770.15 180.3,1769.06 181.31,1768.05 C182.321,1767.04 183.217,1766.06 183.998,1765.12 C184.779,1764.17 185.498,1763.38 186.154,1762.73 C183.81,1754.98 182.378,1749.03 181.857,1744.86 C181.337,1740.69 181.076,1735.58 181.076,1729.52 C181.076,1723.47 182.378,1717.96 184.982,1713.01 C187.514,1707.88 191.06,1703.68 195.623,1700.42 C195.883,1700.22 196.225,1700.12 196.646,1700.12 C197.068,1700.12 197.378,1700.22 197.576,1700.42 C201.087,1704.65 204.128,1710.15 206.701,1716.92 C209.274,1723.69 210.56,1730.03 210.56,1735.92 C210.56,1741.82 209.066,1747.5 206.076,1752.97 C202.691,1758.76 198.326,1764.75 192.982,1770.94 C194.347,1775.23 196.17,1781.96 198.451,1791.14 L199.045,1791.14 C199.305,1791.08 199.529,1791.05 199.717,1791.05 C207.081,1791.05 213.089,1793.63 217.74,1798.81 C222.391,1803.99 224.717,1809.96 224.717,1816.73 C224.717,1825.13 221.238,1831.9 214.279,1837.05 C212.258,1838.55 209.878,1839.72 207.139,1840.56 C207.472,1844.79 207.639,1847.61 207.639,1849.01 C207.639,1850.41 207.571,1852.9 207.435,1856.48 C207.373,1862.6 205.29,1867.84 201.185,1872.2 C197.081,1876.57 192.394,1878.75 187.123,1878.75 C181.852,1878.75 177.36,1876.88 173.646,1873.13 C169.933,1869.39 168.076,1864.85 168.076,1859.51 C168.076,1856.71 169.154,1854.33 171.31,1852.37 C173.519,1850.43 176.006,1849.45 178.771,1849.45 C181.537,1849.45 183.8,1850.46 185.56,1852.48 C187.383,1854.37 188.295,1856.64 188.295,1859.31 C188.295,1861.98 187.383,1864.22 185.56,1866.05 C183.738,1867.87 181.555,1868.78 179.014,1868.78 C177.972,1868.78 176.967,1868.59 175.998,1868.2 C178.863,1872.43 182.54,1874.55 187.029,1874.55 C191.519,1874.55 195.36,1872.69 198.553,1868.98 C201.745,1865.28 203.342,1860.91 203.342,1855.89 L203.623,1848.86 M206.748,1836.56 C210.133,1835.32 212.821,1833.12 214.81,1829.97 C216.8,1826.81 217.795,1823.67 217.795,1820.55 C217.795,1815.92 216.199,1811.79 213.006,1808.14 C209.813,1804.49 205.774,1802.44 200.889,1801.98 C203.691,1815.72 205.644,1827.25 206.748,1836.56 M168.967,1814 C168.967,1820.45 171.537,1826.08 176.678,1830.9 C181.818,1835.72 187.842,1838.12 194.748,1838.12 C197.477,1838.12 200.144,1837.93 202.748,1837.53 C201.706,1827.63 199.654,1815.79 196.592,1801.98 C192.758,1802.38 189.782,1803.7 187.662,1805.94 C185.542,1808.19 184.482,1810.74 184.482,1813.61 C184.482,1818.56 187.123,1822.56 192.404,1825.62 C192.852,1825.88 193.076,1826.32 193.076,1826.94 C193.076,1827.56 192.865,1828.1 192.443,1828.55 C192.021,1829.01 191.649,1829.23 191.326,1829.23 C191.003,1829.23 190.581,1829.17 190.06,1829.05 C182.435,1824.88 178.623,1818.59 178.623,1810.19 C178.623,1806.22 180.024,1802.41 182.826,1798.76 C185.753,1795.12 189.56,1792.78 194.248,1791.73 C192.425,1784.44 190.93,1778.74 189.764,1774.64 C180.847,1784.67 175.31,1792.09 173.154,1796.91 C170.363,1803.16 168.967,1808.85 168.967,1814 M201.576,1714.69 C196.691,1717.09 192.834,1720.57 190.006,1725.13 C187.178,1729.69 185.764,1734.47 185.764,1739.48 C185.764,1744.49 186.935,1750.97 189.279,1758.92 C193.967,1753.25 197.514,1747.95 199.92,1743 C202.326,1738.05 203.529,1733.15 203.529,1728.3 C203.529,1723.45 202.878,1718.92 201.576,1714.69"/>
<path class="Clef" d="M203.623,1373.86 L203.623,1371.72 C203.56,1370.61 203.399,1368.89 203.139,1366.55 C199.889,1367.07 196.993,1367.33 194.451,1367.33 C185.337,1367.33 177.605,1363.73 171.256,1356.53 C164.907,1349.33 161.732,1340.75 161.732,1330.8 C161.732,1328.13 162.253,1324.92 163.295,1321.18 C164.337,1317.43 165.297,1314.93 166.178,1313.65 C167.058,1312.38 168.378,1310.15 170.139,1306.97 C170.659,1305.99 172.352,1303.84 175.217,1300.51 C175.738,1299.81 176.193,1299.22 176.584,1298.76 C176.975,1298.31 177.607,1297.49 178.482,1296.32 C179.357,1295.15 180.3,1294.06 181.31,1293.05 C182.321,1292.04 183.217,1291.06 183.998,1290.12 C184.779,1289.17 185.498,1288.38 186.154,1287.73 C183.81,1279.98 182.378,1274.02 181.857,1269.86 C181.337,1265.69 181.076,1260.58 181.076,1254.52 C181.076,1248.46 182.378,1242.96 184.982,1238.01 C187.514,1232.88 191.06,1228.68 195.623,1225.42 C195.883,1225.22 196.225,1225.12 196.646,1225.12 C197.068,1225.12 197.378,1225.22 197.576,1225.42 C201.087,1229.65 204.128,1235.15 206.701,1241.92 C209.274,1248.69 210.56,1255.02 210.56,1260.92 C210.56,1266.82 209.066,1272.5 206.076,1277.97 C202.691,1283.76 198.326,1289.75 192.982,1295.94 C194.347,1300.23 196.17,1306.96 198.451,1316.14 L199.045,1316.14 C199.305,1316.08 199.529,1316.05 199.717,1316.05 C207.081,1316.05 213.089,1318.63 217.74,1323.81 C222.391,1328.99 224.717,1334.96 224.717,1341.73 C224.717,1350.13 221.238,1356.9 214.279,1362.05 C212.258,1363.55 209.878,1364.72 207.139,1365.56 C207.472,1369.79 207.639,1372.61 207.639,1374.01 C207.639,1375.41 207.571,1377.9 207.435,1381.48 C207.373,1387.6 205.29,1392.84 201.185,1397.2 C197.081,1401.57 192.394,1403.75 187.123,1403.75 C181.852,1403.75 177.36,1401.88 173.646,1398.13 C169.933,1394.39 168.076,1389.85 168.076,1384.51 C168.076,1381.71 169.154,1379.33 171.31,1377.37 C173.519,1375.43 176.006,1374.45 178.771,1374.45 C181.537,1374.45 183.8,1375.46 185.56,1377.48 C187.383,1379.37 188.295,1381.64 188.295,1384.31 C188.295,1386.98 187.383,1389.22 185.56,1391.05 C183.738,1392.87 181.555,1393.78 179.014,1393.78 C177.972,1393.78 176.967,1393.59 175.998,1393.2 C178.863,1397.43 182.54,1399.55 187.029,1399.55 C191.519,1399.55 195.36,1397.69 198.553,1393.98 C201.745,1390.27 203.342,1385.91 203.342,1380.89 L203.623,1373.86 M206.748,1361.56 C210.133,1360.32 212.821,1358.12 214.81,1354.97 C216.8,1351.81 217.795,1348.67 217.795,1345.55 C217.795,1340.92 216.199,1336.79 213.006,1333.14 C209.813,1329.49 205.774,1327.44 200.889,1326.98 C203.691,1340.72 205.644,1352.25 206.748,1361.56 M168.967,1339 C168.967,1345.45 171.537,1351.08 176.678,1355.9 C181.818,1360.71 187.842,1363.12 194.748,1363.12 C197.477,1363.12 200.144,1362.93 202.748,1362.53 C201.706,1352.63 199.654,1340.79 196.592,1326.98 C192.758,1327.38 189.782,1328.7 187.662,1330.94 C185.542,1333.19 184.482,1335.74 184.482,1338.61 C184.482,1343.56 187.123,1347.56 192.404,1350.62 C192.852,1350.88 193.076,1351.32 193.076,1351.94 C193.076,1352.56 192.865,1353.1 192.443,1353.55 C192.021,1354.01 191.649,1354.23 191.326,1354.23 C191.003,1354.23 190.581,1354.17 190.06,1354.05 C182.435,1349.88 178.623,1343.59 178.623,1335.19 C178.623,1331.22 180.024,1327.41 182.826,1323.76 C185.753,1320.12 189.56,1317.77 194.248,1316.73 C192.425,1309.44 190.93,1303.74 189.764,1299.64 C180.847,1309.67 175.31,1317.09 173.154,1321.9 C170.363,1328.15 168.967,1333.85 168.967,1339 M201.576,1239.69 C196.691,1242.09 192.834,1245.57 190.006,1250.13 C187.178,1254.69 185.764,1259.47 185.764,1264.48 C185.764,1269.49 186.935,1275.97 189.279,1283.92 C193.967,1278.25 197.514,1272.95 199.92,1268 C202.326,1263.05 203.529,1258.15 203.529,1253.3 C203.529,1248.45 202.878,1243.92 201.576,1239.69"/>
<path class="Clef" d="M203.623,898.858 L203.623,896.717 C203.56,895.613 203.399,893.889 203.139,891.545 C199.889,892.066 196.993,892.327 194.451,892.327 C185.337,892.327 177.605,888.728 171.256,881.53 C164.907,874.332 161.732,865.754 161.732,855.795 C161.732,853.129 162.253,849.923 163.295,846.178 C164.337,842.433 165.297,839.926 166.178,838.655 C167.058,837.384 168.378,835.155 170.139,831.967 C170.659,830.988 172.352,828.837 175.217,825.514 C175.738,824.806 176.193,824.222 176.584,823.764 C176.975,823.306 177.607,822.491 178.482,821.319 C179.357,820.147 180.3,819.056 181.31,818.045 C182.321,817.035 183.217,816.058 183.998,815.116 C184.779,814.173 185.498,813.379 186.154,812.733 C183.81,804.983 182.378,799.024 181.857,794.858 C181.337,790.691 181.076,785.579 181.076,779.522 C181.076,773.465 182.378,767.962 184.982,763.014 C187.514,757.879 191.06,753.681 195.623,750.42 C195.883,750.222 196.225,750.123 196.646,750.123 C197.068,750.123 197.378,750.222 197.576,750.42 C201.087,754.649 204.128,760.149 206.701,766.92 C209.274,773.691 210.56,780.024 210.56,785.92 C210.56,791.816 209.066,797.498 206.076,802.967 C202.691,808.759 198.326,814.748 192.982,820.936 C194.347,825.228 196.17,831.962 198.451,841.139 L199.045,841.139 C199.305,841.077 199.529,841.045 199.717,841.045 C207.081,841.045 213.089,843.634 217.74,848.811 C222.391,853.988 224.717,859.962 224.717,866.733 C224.717,875.129 221.238,881.899 214.279,887.045 C212.258,888.545 209.878,889.717 207.139,890.561 C207.472,894.79 207.639,897.605 207.639,899.006 C207.639,900.407 207.571,902.899 207.435,906.483 C207.373,912.597 205.29,917.837 201.185,922.202 C197.081,926.566 192.394,928.748 187.123,928.748 C181.852,928.748 177.36,926.876 173.646,923.131 C169.933,919.386 168.076,914.847 168.076,909.514 C168.076,906.712 169.154,904.332 171.31,902.373 C173.519,900.426 176.006,899.452 178.771,899.452 C181.537,899.452 183.8,900.462 185.56,902.483 C187.383,904.368 188.295,906.644 188.295,909.311 C188.295,911.978 187.383,914.222 185.56,916.045 C183.738,917.868 181.555,918.78 179.014,918.78 C177.972,918.78 176.967,918.587 175.998,918.202 C178.863,922.431 182.54,924.545 187.029,924.545 C191.519,924.545 195.36,922.691 198.553,918.983 C201.745,915.274 203.342,910.91 203.342,905.889 L203.623,898.858 M206.748,886.561 C210.133,885.321 212.821,883.123 214.81,879.967 C216.8,876.811 217.795,873.67 217.795,870.545 C217.795,865.92 216.199,861.785 213.006,858.139 C209.813,854.493 205.774,852.441 200.889,851.983 C203.691,865.722 205.644,877.248 206.748,886.561 M168.967,863.998 C168.967,870.446 171.537,876.079 176.678,880.897 C181.818,885.715 187.842,888.123 194.748,888.123 C197.477,888.123 200.144,887.926 202.748,887.53 C201.706,877.634 199.654,865.785 196.592,851.983 C192.758,852.379 189.782,853.699 187.662,855.944 C185.542,858.189 184.482,860.743 184.482,863.608 C184.482,868.556 187.123,872.561 192.404,875.623 C192.852,875.884 193.076,876.324 193.076,876.944 C193.076,877.564 192.865,878.1 192.443,878.553 C192.021,879.006 191.649,879.233 191.326,879.233 C191.003,879.233 190.581,879.17 190.06,879.045 C182.435,874.879 178.623,868.592 178.623,860.186 C178.623,856.217 180.024,852.41 182.826,848.764 C185.753,845.118 189.56,842.774 194.248,841.733 C192.425,834.441 190.93,828.743 189.764,824.639 C180.847,834.67 175.31,842.092 173.154,846.905 C170.363,853.155 168.967,858.853 168.967,863.998 M201.576,764.686 C196.691,767.092 192.834,770.574 190.006,775.131 C187.178,779.689 185.764,784.472 185.764,789.483 C185.764,794.493 186.935,800.972 189.279,808.92 C193.967,803.254 197.514,797.946 199.92,792.998 C202.326,788.051 203.529,783.152 203.529,778.303 C203.529,773.454 202.878,768.915 201.576,764.686"/>
<path class="TimeSig" d="M273.021,317.912 C274.516,317.912 275.949,317.686 277.318,317.232 C278.688,316.779 279.665,316.553 280.248,316.553 C280.831,316.553 281.222,316.907 281.42,317.615 C281.42,317.688 281.352,317.886 281.217,318.209 L252.811,351.225 L269.498,351.225 L269.498,338.131 C269.498,336.506 270.446,335.334 272.342,334.615 C274.29,333.897 276.503,331.001 278.982,325.928 C279.17,325.532 279.462,325.334 279.857,325.334 C280.639,325.334 281.092,325.792 281.217,326.709 L281.217,351.225 L288.357,351.225 C289.264,351.225 289.751,351.712 289.818,352.686 C289.886,353.66 289.399,354.147 288.357,354.147 L281.217,354.147 L281.217,354.928 C281.217,357.532 281.868,359.746 283.17,361.568 C284.67,363.391 286.43,364.303 288.451,364.303 C289.232,364.303 289.623,364.693 289.623,365.475 C289.623,366.256 289.087,366.647 288.014,366.647 C286.941,366.647 284.938,366.436 282.006,366.014 C279.074,365.592 276.811,365.381 275.217,365.381 C273.623,365.381 271.41,365.592 268.576,366.014 C265.743,366.436 263.613,366.647 262.186,366.647 C261.404,366.647 261.014,366.256 261.014,365.475 C261.014,364.693 261.404,364.303 262.186,364.303 C264.196,364.303 265.951,363.391 267.451,361.568 C268.816,359.683 269.498,357.469 269.498,354.928 L269.498,354.147 L252.811,354.147 C251.956,354.147 251.219,353.92 250.6,353.467 C249.98,353.014 249.67,352.592 249.67,352.201 C249.67,351.811 250.485,350.639 252.115,348.686 C253.745,346.732 256.074,342.972 259.1,337.404 C262.126,331.837 263.639,325.438 263.639,318.209 C263.639,317.167 264.097,316.647 265.014,316.647 C265.212,316.647 265.521,316.712 265.943,316.842 C266.365,316.972 267.277,317.183 268.678,317.475 C270.079,317.766 271.527,317.912 273.021,317.912"/>
<path class="TimeSig" d="M273.021,368.084 C274.516,368.084 275.949,367.858 277.318,367.404 C278.688,366.951 279.665,366.725 280.248,366.725 C280.831,366.725 281.222,367.079 281.42,367.787 C281.42,367.86 281.352,368.058 281.217,368.381 L252.811,401.397 L269.498,401.397 L269.498,388.303 C269.498,386.678 270.446,385.506 272.342,384.787 C274.29,384.068 276.503,381.173 278.982,376.1 C279.17,375.704 279.462,375.506 279.857,375.506 C280.639,375.506 281.092,375.964 281.217,376.881 L281.217,401.397 L288.357,401.397 C289.264,401.397 289.751,401.884 289.818,402.858 C289.886,403.831 289.399,404.318 288.357,404.318 L281.217,404.318 L281.217,405.1 C281.217,407.704 281.868,409.917 283.17,411.74 C284.67,413.563 286.43,414.475 288.451,414.475 C289.232,414.475 289.623,414.865 289.623,415.647 C289.623,416.428 289.087,416.818 288.014,416.818 C286.941,416.818 284.938,416.608 282.006,416.186 C279.074,415.764 276.811,415.553 275.217,415.553 C273.623,415.553 271.41,415.764 268.576,416.186 C265.743,416.608 263.613,416.818 262.186,416.818 C261.404,416.818 261.014,416.428 261.014,415.647 C261.014,414.865 261.404,414.475 262.186,414.475 C264.196,414.475 265.951,413.563 267.451,411.74 C268.816,409.855 269.498,407.641 269.498,405.1 L269.498,404.318 L252.811,404.318 C251.956,404.318 251.219,404.092 250.6,403.639 C249.98,403.186 249.67,402.764 249.67,402.373 C249.67,401.983 250.485,400.811 252.115,398.858 C253.745,396.904 256.074,393.144 259.1,387.576 C262.126,382.009 263.639,375.61 263.639,368.381 C263.639,367.339 264.097,366.818 265.014,366.818 C265.212,366.818 265.521,366.884 265.943,367.014 C266.365,367.144 267.277,367.355 268.678,367.647 C270.079,367.938 271.527,368.084 273.021,368.084"/>
<path class="Beam" fill-rule="evenodd" d="M1702.58,1341.72 L1805.82,1335.47 L1805.82,1347.99 L1702.58,1354.24 L1702.58,1341.72 "/>
<path class="Beam" fill-rule="evenodd" d="M1023.65,1341.72 L1126.89,1335.47 L1126.89,1347.99 L1023.65,1354.24 L1023.65,1341.72 "/>
<path class="NoteDot" d="M2304.12,1758.24 C2303.01,1757.13 2302.46,1755.8 2302.46,1754.23 C2302.46,1752.67 2303.01,1751.33 2304.12,1750.23 C2305.23,1749.12 2306.57,1748.56 2308.13,1748.56 C2309.69,1748.56 2311.03,1749.12 2312.13,1750.23 C2313.23,1751.33 2313.79,1752.67 2313.79,1754.23 C2313.79,1755.8 2313.23,1757.13 2312.13,1758.24 C2311.03,1759.35 2309.69,1759.91 2308.13,1759.91 C2306.57,1759.91 2305.23,1759.35 2304.12,1758.24"/>
<path class="NoteDot" d="M2339.74,333.24 C2338.63,332.131 2338.08,330.795 2338.08,329.232 C2338.08,327.67 2338.63,326.334 2339.74,325.225 C2340.85,324.115 2342.19,323.561 2343.75,323.561 C2345.31,323.561 2346.65,324.115 2347.75,325.225 C2348.86,326.334 2349.41,327.67 2349.41,329.232 C2349.41,330.795 2348.86,332.131 2347.75,333.24 C2346.65,334.35 2345.31,334.904 2343.75,334.904 C2342.19,334.904 2340.85,334.35 2339.74,333.24"/>
<path class="NoteDot" d="M2328.03,808.241 C2326.92,807.131 2326.37,805.795 2326.37,804.233 C2326.37,802.67 2326.92,801.334 2328.03,800.225 C2329.14,799.116 2330.48,798.561 2332.04,798.561 C2333.6,798.561 2334.93,799.116 2336.04,800.225 C2337.14,801.334 2337.69,802.67 2337.69,804.233 C2337.69,805.795 2337.14,807.131 2336.04,808.241 C2334.93,809.35 2333.6,809.905 2332.04,809.905 C2330.48,809.905 2329.14,809.35 2328.03,808.241"/>
</svg>
