<?xml version="1.0" encoding="UTF-8" standalone="no"?>
<svg width="2977.2px" height="4208.4px" viewBox="0 0 2977.2 4208.4"
 xmlns="http://www.w3.org/2000/svg" xmlns:xlink="http://www.w3.org/1999/xlink" version="1.2" baseProfile="tiny">
<title>Scarborough_Fair.mscx (1)</title>
<desc>Generated by MuseScore Studio 4.3.1</desc>
<path class="" fill="#ffffff" fill-rule="evenodd" d="M0,0 L2977.2,0 L2977.2,4208.4 L0,4208.4 L0,0 "/>
<polyline class="StaffLines" fill="none" stroke="#000000" stroke-width="2.00" stroke-linejoin="bevel" points="141.732,566.733 2835.47,566.733"/>
<polyline class="StaffLines" fill="none" stroke="#000000" stroke-width="2.00" stroke-linejoin="bevel" points="141.732,591.733 2835.47,591.733"/>
<polyline class="StaffLines" fill="none" stroke="#000000" stroke-width="2.00" stroke-linejoin="bevel" points="141.732,616.733 2835.47,616.733"/>
<polyline class="StaffLines" fill="none" stroke="#000000" stroke-width="2.00" stroke-linejoin="bevel" points="141.732,641.733 2835.47,641.733"/>
<polyline class="StaffLines" fill="none" stroke="#000000" stroke-width="2.00" stroke-linejoin="bevel" points="141.732,666.733 2835.47,666.733"/>
<polyline class="StaffLines" fill="none" stroke="#000000" stroke-width="2.00" stroke-linejoin="bevel" points="141.732,1041.73 2835.47,1041.73"/>
<polyline class="StaffLines" fill="none" stroke="#000000" stroke-width="2.00" stroke-linejoin="bevel" points="141.732,1066.73 2835.47,1066.73"/>
<polyline class="StaffLines" fill="none" stroke="#000000" stroke-width="2.00" stroke-linejoin="bevel" points="141.732,1091.73 2835.47,1091.73"/>
<polyline class="StaffLines" fill="none" stroke="#000000" stroke-width="2.00" stroke-linejoin="bevel" points="141.732,1116.73 2835.47,1116.73"/>
<polyline class="StaffLines" fill="none" stroke="#000000" stroke-width="2.00" stroke-linejoin="bevel" points="141.732,1141.73 2835.47,1141.73"/>
<polyline class="StaffLines" fill="none" stroke="#000000" stroke-width="2.00" stroke-linejoin="bevel" points="141.732,1516.73 2835.47,1516.73"/>
<polyline class="StaffLines" fill="none" stroke="#000000" stroke-width="2.00" stroke-linejoin="bevel" points="141.732,1541.73 2835.47,1541.73"/>
<polyline class="StaffLines" fill="none" stroke="#000000" stroke-width="2.00" stroke-linejoin="bevel" points="141.732,1566.73 2835.47,1566.73"/>
<polyline class="StaffLines" fill="none" stroke="#000000" stroke-width="2.00" stroke-linejoin="bevel" points="141.732,1591.73 2835.47,1591.73"/>
<polyline class="StaffLines" fill="none" stroke="#000000" stroke-width="2.00" stroke-linejoin="bevel" points="141.732,1616.73 2835.47,1616.73"/>
<path class="MeasureNumber" d="M142.045,992.295 C139.357,992.295 137.193,991.22 135.553,989.069 C133.912,986.918 133.092,984.077 133.092,980.545 C133.092,979.462 133.199,978.34 133.412,977.178 C133.626,976.017 134.092,974.699 134.81,973.225 C135.529,971.751 136.462,970.428 137.607,969.256 C138.753,968.084 140.36,967.038 142.428,966.116 C144.495,965.194 146.878,964.613 149.576,964.374 L149.654,965.014 C146.508,965.525 143.881,966.801 141.771,968.842 C139.662,970.884 138.342,973.41 137.81,976.42 C139.06,975.702 140.006,975.235 140.646,975.022 C141.287,974.808 142.05,974.702 142.935,974.702 C145.227,974.702 147.053,975.444 148.412,976.928 C149.771,978.413 150.451,980.415 150.451,982.936 C150.451,985.696 149.67,987.946 148.107,989.686 C146.545,991.426 144.524,992.295 142.045,992.295 M141.404,976.452 C139.592,976.452 138.373,976.85 137.748,977.647 C137.123,978.444 136.81,979.624 136.81,981.186 C136.81,984.259 137.318,986.678 138.334,988.444 C139.35,990.209 140.738,991.092 142.498,991.092 C143.904,991.092 144.982,990.501 145.732,989.319 C146.482,988.137 146.857,986.462 146.857,984.295 C146.857,981.795 146.383,979.863 145.435,978.499 C144.488,977.134 143.144,976.452 141.404,976.452"/>
<path class="MeasureNumber" d="M129.045,1443.01 C128.566,1443.01 127.607,1443.31 126.17,1443.89 L126.17,1443.34 L133.373,1439.7 L133.685,1439.78 L133.685,1463.78 C133.685,1464.74 133.925,1465.36 134.404,1465.66 C134.883,1465.95 135.909,1466.11 137.482,1466.14 L137.482,1466.73 L126.451,1466.73 L126.451,1466.14 C127.941,1466.08 128.946,1465.85 129.467,1465.47 C129.988,1465.08 130.248,1464.26 130.248,1463.01 L130.248,1444.89 C130.248,1443.64 129.847,1443.01 129.045,1443.01 M149.029,1443.01 C148.55,1443.01 147.592,1443.31 146.154,1443.89 L146.154,1443.34 L153.357,1439.7 L153.67,1439.78 L153.67,1463.78 C153.67,1464.74 153.909,1465.36 154.389,1465.66 C154.868,1465.95 155.894,1466.11 157.467,1466.14 L157.467,1466.73 L146.435,1466.73 L146.435,1466.14 C147.925,1466.08 148.93,1465.85 149.451,1465.47 C149.972,1465.08 150.232,1464.26 150.232,1463.01 L150.232,1444.89 C150.232,1443.64 149.831,1443.01 149.029,1443.01"/>
<polyline class="BarLine" fill="none" stroke="#000000" stroke-width="4.00" stroke-linejoin="bevel" points="2833.47,1515.73 2833.47,1617.73"/>
<polyline class="BarLine" fill="none" stroke="#000000" stroke-width="4.00" stroke-linejoin="bevel" points="2255.39,565.733 2255.39,667.733"/>
<polyline class="BarLine" fill="none" stroke="#000000" stroke-width="4.00" stroke-linejoin="bevel" points="1878.94,565.733 1878.94,667.733"/>
<polyline class="BarLine" fill="none" stroke="#000000" stroke-width="4.00" stroke-linejoin="bevel" points="2833.47,565.733 2833.47,667.733"/>
<polyline class="BarLine" fill="none" stroke="#000000" stroke-width="4.00" stroke-linejoin="bevel" points="816.128,1040.73 816.128,1142.73"/>
<polyline class="BarLine" fill="none" stroke="#000000" stroke-width="4.00" stroke-linejoin="bevel" points="1420.38,1040.73 1420.38,1142.73"/>
<polyline class="BarLine" fill="none" stroke="#000000" stroke-width="4.00" stroke-linejoin="bevel" points="1814.9,1040.73 1814.9,1142.73"/>
<polyline class="BarLine" fill="none" stroke="#000000" stroke-width="4.00" stroke-linejoin="bevel" points="1315.17,565.733 1315.17,667.733"/>
<polyline class="BarLine" fill="none" stroke="#000000" stroke-width="4.00" stroke-linejoin="bevel" points="2324.19,1040.73 2324.19,1142.73"/>
<polyline class="BarLine" fill="none" stroke="#000000" stroke-width="4.00" stroke-linejoin="bevel" points="2833.47,1040.73 2833.47,1142.73"/>
<polyline class="BarLine" fill="none" stroke="#000000" stroke-width="4.00" stroke-linejoin="bevel" points="889.71,1515.73 889.71,1617.73"/>
<polyline class="BarLine" fill="none" stroke="#000000" stroke-width="4.00" stroke-linejoin="bevel" points="829.656,565.733 829.656,667.733"/>
<polyline class="BarLine" fill="none" stroke="#000000" stroke-width="4.00" stroke-linejoin="bevel" points="1270.1,1515.73 1270.1,1617.73"/>
<polyline class="BarLine" fill="none" stroke="#000000" stroke-width="4.00" stroke-linejoin="bevel" points="2251.51,1515.73 2251.51,1617.73"/>
<polyline class="BarLine" fill="none" stroke="#000000" stroke-width="4.00" stroke-linejoin="bevel" points="1760.8,1515.73 1760.8,1617.73"/>
<path class="Accidental" d="M1005.15,1024.55 C1003.97,1024.87 1003.38,1024.42 1003.38,1023.19 L1003.38,968.483 C1003.38,967.118 1003.9,966.436 1004.94,966.436 C1005.98,966.436 1006.5,967.118 1006.5,968.483 L1006.5,988.311 L1018.04,983.92 C1019.2,983.597 1019.79,984.051 1019.79,985.28 L1019.79,1039.98 C1019.79,1041.35 1019.27,1042.03 1018.22,1042.03 C1017.18,1042.03 1016.66,1041.35 1016.66,1039.98 L1016.66,1020.15 L1005.15,1024.55 M1006.5,1013.31 L1016.66,1009.4 L1016.66,995.155 L1006.5,999.061 L1006.5,1013.31 "/>
<polyline class="LedgerLine" fill="none" stroke="#000000" stroke-width="4.00" stroke-linejoin="bevel" points="1832.4,991.733 1886.12,991.733"/>
<polyline class="LedgerLine" fill="none" stroke="#000000" stroke-width="4.00" stroke-linejoin="bevel" points="324.346,991.733 378.065,991.733"/>
<polyline class="LedgerLine" fill="none" stroke="#000000" stroke-width="4.00" stroke-linejoin="bevel" points="612.876,1016.73 664.79,1016.73"/>
<polyline class="LedgerLine" fill="none" stroke="#000000" stroke-width="4.00" stroke-linejoin="bevel" points="612.876,991.733 664.79,991.733"/>
<polyline class="LedgerLine" fill="none" stroke="#000000" stroke-width="4.00" stroke-linejoin="bevel" points="833.628,1016.73 885.542,1016.73"/>
<polyline class="LedgerLine" fill="none" stroke="#000000" stroke-width="4.00" stroke-linejoin="bevel" points="1564.98,1491.73 1616.9,1491.73"/>
<polyline class="LedgerLine" fill="none" stroke="#000000" stroke-width="4.00" stroke-linejoin="bevel" points="1025.38,1016.73 1077.29,1016.73"/>
<polyline class="LedgerLine" fill="none" stroke="#000000" stroke-width="4.00" stroke-linejoin="bevel" points="1437.88,1016.73 1491.6,1016.73"/>
<polyline class="LedgerLine" fill="none" stroke="#000000" stroke-width="4.00" stroke-linejoin="bevel" points="1832.4,1016.73 1886.12,1016.73"/>
<polyline class="LedgerLine" fill="none" stroke="#000000" stroke-width="4.00" stroke-linejoin="bevel" points="325.248,1491.73 377.162,1491.73"/>
<polyline class="LedgerLine" fill="none" stroke="#000000" stroke-width="4.00" stroke-linejoin="bevel" points="2120.93,1016.73 2172.85,1016.73"/>
<polyline class="LedgerLine" fill="none" stroke="#000000" stroke-width="4.00" stroke-linejoin="bevel" points="2120.93,991.733 2172.85,991.733"/>
<polyline class="LedgerLine" fill="none" stroke="#000000" stroke-width="4.00" stroke-linejoin="bevel" points="1121.43,541.733 1173.34,541.733"/>
<polyline class="LedgerLine" fill="none" stroke="#000000" stroke-width="4.00" stroke-linejoin="bevel" points="2341.69,1016.73 2395.4,1016.73"/>
<polyline class="LedgerLine" fill="none" stroke="#000000" stroke-width="4.00" stroke-linejoin="bevel" points="2341.69,991.733 2395.4,991.733"/>
<polyline class="LedgerLine" fill="none" stroke="#000000" stroke-width="4.00" stroke-linejoin="bevel" points="2630.22,1016.73 2682.13,1016.73"/>
<polyline class="LedgerLine" fill="none" stroke="#000000" stroke-width="4.00" stroke-linejoin="bevel" points="847.156,541.733 900.874,541.733"/>
<polyline class="LedgerLine" fill="none" stroke="#000000" stroke-width="4.00" stroke-linejoin="bevel" points="324.346,1016.73 378.065,1016.73"/>
<polyline class="LedgerLine" fill="none" stroke="#000000" stroke-width="4.00" stroke-linejoin="bevel" points="2639.72,516.733 2691.64,516.733"/>
<polyline class="LedgerLine" fill="none" stroke="#000000" stroke-width="4.00" stroke-linejoin="bevel" points="2639.72,541.733 2691.64,541.733"/>
<polyline class="LedgerLine" fill="none" stroke="#000000" stroke-width="4.00" stroke-linejoin="bevel" points="2457.48,541.733 2509.39,541.733"/>
<polyline class="Stem" fill="none" stroke="#000000" stroke-width="3.25" stroke-linejoin="bevel" points="647.035,597.602 647.035,679.233"/>
<polyline class="Stem" fill="none" stroke="#000000" stroke-width="3.25" stroke-linejoin="bevel" points="1789.43,1509.13 1789.43,1591.73"/>
<polyline class="Stem" fill="none" stroke="#000000" stroke-width="3.25" stroke-linejoin="bevel" points="1843.53,984.133 1843.53,1091.73"/>
<polyline class="Stem" fill="none" stroke="#000000" stroke-width="3.25" stroke-linejoin="bevel" points="2650.85,522.602 2650.85,616.733"/>
<polyline class="Stem" fill="none" stroke="#000000" stroke-width="3.25" stroke-linejoin="bevel" points="918.335,1534.13 918.335,1616.73"/>
<polyline class="Stem" fill="none" stroke="#000000" stroke-width="3.25" stroke-linejoin="bevel" points="2132.06,985.102 2132.06,1091.73"/>
<polyline class="Stem" fill="none" stroke="#000000" stroke-width="3.25" stroke-linejoin="bevel" points="2468.6,547.602 2468.6,629.233"/>
<polyline class="Stem" fill="none" stroke="#000000" stroke-width="3.25" stroke-linejoin="bevel" points="2464.45,1547.6 2464.45,1629.23"/>
<polyline class="Stem" fill="none" stroke="#000000" stroke-width="3.25" stroke-linejoin="bevel" points="1132.55,547.602 1132.55,629.233"/>
<polyline class="Stem" fill="none" stroke="#000000" stroke-width="3.25" stroke-linejoin="bevel" points="2352.81,996.633 2352.81,1091.73"/>
<polyline class="Stem" fill="none" stroke="#000000" stroke-width="3.25" stroke-linejoin="bevel" points="2648.77,1560.1 2648.77,1635.48"/>
<polyline class="Stem" fill="none" stroke="#000000" stroke-width="3.25" stroke-linejoin="bevel" points="2641.34,1022.6 2641.34,1104.23"/>
<polyline class="Stem" fill="none" stroke="#000000" stroke-width="3.25" stroke-linejoin="bevel" points="705.014,1522.6 705.014,1604.23"/>
<polyline class="Stem" fill="none" stroke="#000000" stroke-width="3.25" stroke-linejoin="bevel" points="1907.57,596.633 1907.57,679.233"/>
<polyline class="Stem" fill="none" stroke="#000000" stroke-width="3.25" stroke-linejoin="bevel" points="858.281,546.633 858.281,629.233"/>
<polyline class="Stem" fill="none" stroke="#000000" stroke-width="3.25" stroke-linejoin="bevel" points="520.694,1510.1 520.694,1591.73"/>
<polyline class="Stem" fill="none" stroke="#000000" stroke-width="3.25" stroke-linejoin="bevel" points="336.373,1497.6 336.373,1579.23"/>
<polyline class="Stem" fill="none" stroke="#000000" stroke-width="3.25" stroke-linejoin="bevel" points="2280.13,1535.1 2280.13,1616.73"/>
<polyline class="Stem" fill="none" stroke="#000000" stroke-width="3.25" stroke-linejoin="bevel" points="624.001,997.602 624.001,1091.73"/>
<polyline class="Stem" fill="none" stroke="#000000" stroke-width="3.25" stroke-linejoin="bevel" points="335.471,984.133 335.471,1091.73"/>
<polyline class="Stem" fill="none" stroke="#000000" stroke-width="3.25" stroke-linejoin="bevel" points="372.764,596.633 372.764,679.233"/>
<polyline class="Stem" fill="none" stroke="#000000" stroke-width="3.25" stroke-linejoin="bevel" points="844.753,1022.6 844.753,1104.23"/>
<polyline class="Stem" fill="none" stroke="#000000" stroke-width="3.25" stroke-linejoin="bevel" points="2066.81,1522.6 2066.81,1604.23"/>
<polyline class="Stem" fill="none" stroke="#000000" stroke-width="3.25" stroke-linejoin="bevel" points="1574.83,572.602 1574.83,654.833"/>
<polyline class="Stem" fill="none" stroke="#000000" stroke-width="3.25" stroke-linejoin="bevel" points="1036.5,1010.1 1036.5,1091.73"/>
<polyline class="Stem" fill="none" stroke="#000000" stroke-width="3.25" stroke-linejoin="bevel" points="1576.11,1497.6 1576.11,1579.23"/>
<polyline class="Stem" fill="none" stroke="#000000" stroke-width="3.25" stroke-linejoin="bevel" points="1696.32,585.102 1696.32,666.733"/>
<polyline class="Stem" fill="none" stroke="#000000" stroke-width="3.25" stroke-linejoin="bevel" points="1228.26,1035.1 1228.26,1116.73"/>
<polyline class="Stem" fill="none" stroke="#000000" stroke-width="3.25" stroke-linejoin="bevel" points="1298.72,1546.63 1298.72,1629.23"/>
<polyline class="Stem" fill="none" stroke="#000000" stroke-width="3.25" stroke-linejoin="bevel" points="1449.01,1021.63 1449.01,1104.23"/>
<polyline class="Stem" fill="none" stroke="#000000" stroke-width="3.25" stroke-linejoin="bevel" points="1343.8,585.102 1343.8,666.733"/>
<path class="Hook" d="M1595.95,581.873 C1597.45,581.873 1599.03,584.298 1600.69,589.147 C1602.35,593.996 1603.18,598.438 1603.18,602.475 C1603.18,606.511 1602.26,610.418 1600.4,614.194 C1598.55,617.97 1596.32,621.29 1593.72,624.155 L1585.7,633.139 C1583.23,636.004 1581.05,639.29 1579.16,642.998 C1577.27,646.707 1576.33,650.451 1576.33,654.233 L1573.2,654.233 L1573.2,629.233 L1576.33,629.233 C1587.26,622.326 1594.13,616.207 1596.93,610.873 C1598.3,608.269 1598.98,605.634 1598.98,602.967 C1598.98,596.78 1597.19,590.623 1593.61,584.498 L1593.61,584.108 C1593.61,583.524 1593.84,583.006 1594.29,582.553 C1594.75,582.1 1595.3,581.873 1595.95,581.873"/>
<path class="Note" d="M1913.37,602.373 C1915.25,602.373 1919.21,600.42 1925.23,596.514 C1931.26,592.608 1934.81,589.988 1935.88,588.655 C1936.95,587.321 1937.49,586.134 1937.49,585.092 C1937.49,584.05 1937.07,583.123 1936.22,582.311 C1935.37,581.498 1934.39,581.092 1933.29,581.092 C1931.34,581.092 1927.35,583.061 1921.33,586.998 C1915.3,590.936 1911.77,593.556 1910.72,594.858 C1909.68,596.16 1909.16,597.332 1909.16,598.373 C1909.16,599.415 1909.57,600.342 1910.39,601.155 C1911.21,601.967 1912.2,602.373 1913.37,602.373 M1932.32,577.967 C1937.91,577.967 1940.71,580.373 1940.71,585.186 C1940.71,587.53 1940.03,590.248 1938.66,593.342 C1937.3,596.436 1935.47,598.795 1933.19,600.42 C1928.18,603.806 1921.9,605.498 1914.35,605.498 C1908.75,605.498 1905.94,603.092 1905.94,598.28 C1905.94,596.134 1906.61,593.464 1907.94,590.272 C1909.28,587.079 1911.12,584.67 1913.46,583.045 C1918.48,579.66 1924.77,577.967 1932.32,577.967"/>
<path class="Note" d="M2300.48,1515.47 C2303.6,1515.47 2306.2,1516.25 2308.29,1517.81 C2310.37,1519.37 2311.41,1521.62 2311.41,1524.55 C2311.41,1529.04 2309.09,1533.23 2304.44,1537.14 C2299.79,1541.05 2294.79,1543 2289.44,1543 C2286.32,1543 2283.68,1542.19 2281.54,1540.56 C2279.52,1538.8 2278.51,1536.59 2278.51,1533.92 C2278.51,1529.56 2280.82,1525.39 2285.44,1521.42 C2290.07,1517.45 2295.08,1515.47 2300.48,1515.47"/>
<path class="Note" d="M378.561,602.373 C380.446,602.373 384.402,600.42 390.428,596.514 C396.454,592.608 400.003,589.988 401.076,588.655 C402.149,587.321 402.686,586.134 402.686,585.092 C402.686,584.05 402.261,583.123 401.412,582.311 C400.563,581.498 399.587,581.092 398.483,581.092 C396.535,581.092 392.548,583.061 386.522,586.998 C380.496,590.936 376.962,593.556 375.92,594.858 C374.878,596.16 374.358,597.332 374.358,598.373 C374.358,599.415 374.766,600.342 375.584,601.155 C376.402,601.967 377.394,602.373 378.561,602.373 M397.514,577.967 C403.108,577.967 405.904,580.373 405.904,585.186 C405.904,587.53 405.222,590.248 403.858,593.342 C402.493,596.436 400.67,598.795 398.389,600.42 C393.378,603.806 387.097,605.498 379.545,605.498 C373.941,605.498 371.139,603.092 371.139,598.28 C371.139,596.134 371.805,593.464 373.139,590.272 C374.472,587.079 376.311,584.67 378.654,583.045 C383.675,579.66 389.962,577.967 397.514,577.967"/>
<path class="Note" d="M356.717,1477.97 C359.842,1477.97 362.446,1478.75 364.529,1480.31 C366.613,1481.87 367.654,1484.12 367.654,1487.05 C367.654,1491.54 365.329,1495.73 360.678,1499.64 C356.027,1503.55 351.029,1505.5 345.686,1505.5 C342.561,1505.5 339.925,1504.69 337.779,1503.06 C335.759,1501.3 334.748,1499.09 334.748,1496.42 C334.748,1492.06 337.061,1487.89 341.686,1483.92 C346.311,1479.95 351.321,1477.97 356.717,1477.97"/>
<path class="Note" d="M1795.22,1514.87 C1797.11,1514.87 1801.07,1512.92 1807.09,1509.01 C1813.12,1505.11 1816.67,1502.49 1817.74,1501.16 C1818.81,1499.82 1819.35,1498.63 1819.35,1497.59 C1819.35,1496.55 1818.93,1495.62 1818.08,1494.81 C1817.23,1494 1816.25,1493.59 1815.15,1493.59 C1813.2,1493.59 1809.21,1495.56 1803.19,1499.5 C1797.16,1503.44 1793.63,1506.06 1792.58,1507.36 C1791.54,1508.66 1791.02,1509.83 1791.02,1510.87 C1791.02,1511.92 1791.43,1512.84 1792.25,1513.66 C1793.07,1514.47 1794.06,1514.87 1795.22,1514.87 M1814.18,1490.47 C1819.77,1490.47 1822.57,1492.87 1822.57,1497.69 C1822.57,1500.03 1821.89,1502.75 1820.52,1505.84 C1819.16,1508.94 1817.33,1511.3 1815.05,1512.92 C1810.04,1516.31 1803.76,1518 1796.21,1518 C1790.6,1518 1787.8,1515.59 1787.8,1510.78 C1787.8,1508.63 1788.47,1505.96 1789.8,1502.77 C1791.14,1499.58 1792.97,1497.17 1795.32,1495.55 C1800.34,1492.16 1806.63,1490.47 1814.18,1490.47"/>
<path class="Note" d="M924.132,1539.87 C926.017,1539.87 929.973,1537.92 935.999,1534.01 C942.025,1530.11 945.574,1527.49 946.647,1526.16 C947.72,1524.82 948.257,1523.63 948.257,1522.59 C948.257,1521.55 947.832,1520.62 946.983,1519.81 C946.134,1519 945.158,1518.59 944.054,1518.59 C942.106,1518.59 938.119,1520.56 932.093,1524.5 C926.067,1528.44 922.533,1531.06 921.491,1532.36 C920.449,1533.66 919.929,1534.83 919.929,1535.87 C919.929,1536.92 920.337,1537.84 921.155,1538.66 C921.973,1539.47 922.965,1539.87 924.132,1539.87 M943.085,1515.47 C948.679,1515.47 951.475,1517.87 951.475,1522.69 C951.475,1525.03 950.793,1527.75 949.429,1530.84 C948.064,1533.94 946.241,1536.3 943.96,1537.92 C938.949,1541.31 932.668,1543 925.116,1543 C919.512,1543 916.71,1540.59 916.71,1535.78 C916.71,1533.63 917.376,1530.97 918.71,1527.77 C920.043,1524.58 921.882,1522.17 924.225,1520.55 C929.246,1517.16 935.533,1515.47 943.085,1515.47"/>
<path class="Note" d="M541.037,1490.47 C544.162,1490.47 546.767,1491.25 548.85,1492.81 C550.933,1494.37 551.975,1496.62 551.975,1499.55 C551.975,1504.04 549.649,1508.23 544.998,1512.14 C540.347,1516.05 535.35,1518 530.006,1518 C526.881,1518 524.246,1517.19 522.1,1515.56 C520.079,1513.8 519.069,1511.59 519.069,1508.92 C519.069,1504.56 521.381,1500.39 526.006,1496.42 C530.631,1492.45 535.642,1490.47 541.037,1490.47"/>
<path class="Note" d="M2669.12,1540.47 C2672.24,1540.47 2674.85,1541.25 2676.93,1542.81 C2679.01,1544.37 2680.05,1546.62 2680.05,1549.55 C2680.05,1554.04 2677.73,1558.23 2673.08,1562.14 C2668.43,1566.05 2663.43,1568 2658.09,1568 C2654.96,1568 2652.32,1567.19 2650.18,1565.56 C2648.16,1563.8 2647.15,1561.59 2647.15,1558.92 C2647.15,1554.56 2649.46,1550.39 2654.09,1546.42 C2658.71,1542.45 2663.72,1540.47 2669.12,1540.47"/>
<path class="Note" d="M1596.45,1477.97 C1599.58,1477.97 1602.18,1478.75 1604.26,1480.31 C1606.35,1481.87 1607.39,1484.12 1607.39,1487.05 C1607.39,1491.54 1605.06,1495.73 1600.41,1499.64 C1595.76,1503.55 1590.76,1505.5 1585.42,1505.5 C1582.29,1505.5 1579.66,1504.69 1577.51,1503.06 C1575.49,1501.3 1574.48,1499.09 1574.48,1496.42 C1574.48,1492.06 1576.79,1487.89 1581.42,1483.92 C1586.04,1479.95 1591.06,1477.97 1596.45,1477.97"/>
<path class="Note" d="M725.358,1502.97 C728.483,1502.97 731.087,1503.75 733.17,1505.31 C735.254,1506.87 736.295,1509.12 736.295,1512.05 C736.295,1516.54 733.97,1520.73 729.319,1524.64 C724.668,1528.55 719.67,1530.5 714.327,1530.5 C711.202,1530.5 708.566,1529.69 706.42,1528.06 C704.4,1526.3 703.389,1524.09 703.389,1521.42 C703.389,1517.06 705.702,1512.89 710.327,1508.92 C714.952,1504.95 719.962,1502.97 725.358,1502.97"/>
<path class="Note" d="M2484.8,1527.97 C2487.92,1527.97 2490.53,1528.75 2492.61,1530.31 C2494.69,1531.87 2495.73,1534.12 2495.73,1537.05 C2495.73,1541.54 2493.41,1545.73 2488.76,1549.64 C2484.11,1553.55 2479.11,1555.5 2473.76,1555.5 C2470.64,1555.5 2468,1554.69 2465.86,1553.06 C2463.84,1551.3 2462.83,1549.09 2462.83,1546.42 C2462.83,1542.06 2465.14,1537.89 2469.76,1533.92 C2474.39,1529.95 2479.4,1527.97 2484.8,1527.97"/>
<path class="Note" d="M1304.52,1552.37 C1306.41,1552.37 1310.36,1550.42 1316.39,1546.51 C1322.41,1542.61 1325.96,1539.99 1327.04,1538.66 C1328.11,1537.32 1328.65,1536.13 1328.65,1535.09 C1328.65,1534.05 1328.22,1533.12 1327.37,1532.31 C1326.52,1531.5 1325.55,1531.09 1324.44,1531.09 C1322.49,1531.09 1318.51,1533.06 1312.48,1537 C1306.46,1540.94 1302.92,1543.56 1301.88,1544.86 C1300.84,1546.16 1300.32,1547.33 1300.32,1548.37 C1300.32,1549.42 1300.73,1550.34 1301.54,1551.16 C1302.36,1551.97 1303.35,1552.37 1304.52,1552.37 M1323.47,1527.97 C1329.07,1527.97 1331.86,1530.37 1331.86,1535.19 C1331.86,1537.53 1331.18,1540.25 1329.82,1543.34 C1328.45,1546.44 1326.63,1548.8 1324.35,1550.42 C1319.34,1553.81 1313.06,1555.5 1305.51,1555.5 C1299.9,1555.5 1297.1,1553.09 1297.1,1548.28 C1297.1,1546.13 1297.77,1543.47 1299.1,1540.27 C1300.43,1537.08 1302.27,1534.67 1304.61,1533.05 C1309.64,1529.66 1315.92,1527.97 1323.47,1527.97"/>
<path class="Note" d="M2087.15,1502.97 C2090.28,1502.97 2092.88,1503.75 2094.97,1505.31 C2097.05,1506.87 2098.09,1509.12 2098.09,1512.05 C2098.09,1516.54 2095.77,1520.73 2091.12,1524.64 C2086.46,1528.55 2081.47,1530.5 2076.12,1530.5 C2073,1530.5 2070.36,1529.69 2068.22,1528.06 C2066.2,1526.3 2065.19,1524.09 2065.19,1521.42 C2065.19,1517.06 2067.5,1512.89 2072.12,1508.92 C2076.75,1504.95 2081.76,1502.97 2087.15,1502.97"/>
<path class="Note" d="M667.379,577.967 C670.504,577.967 673.108,578.748 675.191,580.311 C677.274,581.873 678.316,584.118 678.316,587.045 C678.316,591.535 675.99,595.733 671.339,599.639 C666.688,603.545 661.691,605.498 656.347,605.498 C653.222,605.498 650.587,604.686 648.441,603.061 C646.42,601.3 645.41,599.087 645.41,596.42 C645.41,592.056 647.722,587.889 652.347,583.92 C656.972,579.951 661.983,577.967 667.379,577.967"/>
<path class="Note" d="M1716.67,565.467 C1719.79,565.467 1722.4,566.248 1724.48,567.811 C1726.56,569.373 1727.6,571.618 1727.6,574.545 C1727.6,579.035 1725.28,583.233 1720.63,587.139 C1715.98,591.045 1710.98,592.998 1705.63,592.998 C1702.51,592.998 1699.87,592.186 1697.73,590.561 C1695.71,588.8 1694.7,586.587 1694.7,583.92 C1694.7,579.556 1697.01,575.389 1701.63,571.42 C1706.26,567.451 1711.27,565.467 1716.67,565.467"/>
<path class="Note" d="M341.268,989.874 C343.153,989.874 347.109,987.92 353.135,984.014 C359.161,980.108 362.71,977.488 363.783,976.155 C364.856,974.821 365.393,973.634 365.393,972.592 C365.393,971.551 364.968,970.624 364.119,969.811 C363.27,968.999 362.294,968.592 361.19,968.592 C359.242,968.592 355.255,970.561 349.229,974.499 C343.203,978.436 339.669,981.056 338.627,982.358 C337.585,983.66 337.065,984.832 337.065,985.874 C337.065,986.915 337.473,987.842 338.291,988.655 C339.109,989.467 340.101,989.874 341.268,989.874 M360.221,965.467 C365.815,965.467 368.611,967.874 368.611,972.686 C368.611,975.03 367.929,977.749 366.565,980.842 C365.2,983.936 363.377,986.295 361.096,987.92 C356.085,991.306 349.804,992.999 342.252,992.999 C336.648,992.999 333.846,990.592 333.846,985.78 C333.846,983.634 334.512,980.965 335.846,977.772 C337.179,974.579 339.018,972.17 341.361,970.545 C346.382,967.16 352.669,965.467 360.221,965.467"/>
<path class="Note" d="M644.345,977.967 C647.47,977.967 650.074,978.749 652.157,980.311 C654.241,981.874 655.282,984.118 655.282,987.045 C655.282,991.535 652.957,995.733 648.306,999.639 C643.655,1003.55 638.657,1005.5 633.314,1005.5 C630.189,1005.5 627.553,1004.69 625.407,1003.06 C623.386,1001.3 622.376,999.087 622.376,996.42 C622.376,992.056 624.689,987.889 629.314,983.92 C633.939,979.952 638.949,977.967 644.345,977.967"/>
<path class="Note" d="M1595.17,552.967 C1598.29,552.967 1600.9,553.748 1602.98,555.311 C1605.06,556.873 1606.11,559.118 1606.11,562.045 C1606.11,566.535 1603.78,570.733 1599.13,574.639 C1594.48,578.545 1589.48,580.498 1584.14,580.498 C1581.01,580.498 1578.38,579.686 1576.23,578.061 C1574.21,576.3 1573.2,574.087 1573.2,571.42 C1573.2,567.056 1575.51,562.889 1580.14,558.92 C1584.76,554.951 1589.77,552.967 1595.17,552.967"/>
<path class="Note" d="M865.097,1002.97 C868.222,1002.97 870.826,1003.75 872.909,1005.31 C874.993,1006.87 876.034,1009.12 876.034,1012.05 C876.034,1016.53 873.709,1020.73 869.058,1024.64 C864.407,1028.55 859.409,1030.5 854.065,1030.5 C850.94,1030.5 848.305,1029.69 846.159,1028.06 C844.138,1026.3 843.128,1024.09 843.128,1021.42 C843.128,1017.06 845.44,1012.89 850.065,1008.92 C854.69,1004.95 859.701,1002.97 865.097,1002.97"/>
<path class="Note" d="M1056.85,990.467 C1059.97,990.467 1062.58,991.249 1064.66,992.811 C1066.74,994.374 1067.79,996.618 1067.79,999.545 C1067.79,1004.03 1065.46,1008.23 1060.81,1012.14 C1056.16,1016.05 1051.16,1018 1045.82,1018 C1042.69,1018 1040.06,1017.19 1037.91,1015.56 C1035.89,1013.8 1034.88,1011.59 1034.88,1008.92 C1034.88,1004.56 1037.19,1000.39 1041.82,996.42 C1046.44,992.452 1051.45,990.467 1056.85,990.467"/>
<path class="Note" d="M1248.6,1015.47 C1251.73,1015.47 1254.33,1016.25 1256.41,1017.81 C1258.5,1019.37 1259.54,1021.62 1259.54,1024.55 C1259.54,1029.04 1257.21,1033.23 1252.56,1037.14 C1247.91,1041.05 1242.91,1043 1237.57,1043 C1234.44,1043 1231.81,1042.19 1229.66,1040.56 C1227.64,1038.8 1226.63,1036.59 1226.63,1033.92 C1226.63,1029.56 1228.94,1025.39 1233.57,1021.42 C1238.19,1017.45 1243.2,1015.47 1248.6,1015.47"/>
<path class="Note" d="M1364.14,565.467 C1367.27,565.467 1369.87,566.248 1371.95,567.811 C1374.04,569.373 1375.08,571.618 1375.08,574.545 C1375.08,579.035 1372.75,583.233 1368.1,587.139 C1363.45,591.045 1358.45,592.998 1353.11,592.998 C1349.98,592.998 1347.35,592.186 1345.2,590.561 C1343.18,588.8 1342.17,586.587 1342.17,583.92 C1342.17,579.556 1344.48,575.389 1349.11,571.42 C1353.73,567.451 1358.75,565.467 1364.14,565.467"/>
<path class="Note" d="M1454.81,1027.37 C1456.69,1027.37 1460.65,1025.42 1466.67,1021.51 C1472.7,1017.61 1476.25,1014.99 1477.32,1013.65 C1478.39,1012.32 1478.93,1011.13 1478.93,1010.09 C1478.93,1009.05 1478.51,1008.12 1477.66,1007.31 C1476.81,1006.5 1475.83,1006.09 1474.73,1006.09 C1472.78,1006.09 1468.79,1008.06 1462.77,1012 C1456.74,1015.94 1453.21,1018.56 1452.17,1019.86 C1451.12,1021.16 1450.6,1022.33 1450.6,1023.37 C1450.6,1024.42 1451.01,1025.34 1451.83,1026.15 C1452.65,1026.97 1453.64,1027.37 1454.81,1027.37 M1473.76,1002.97 C1479.35,1002.97 1482.15,1005.37 1482.15,1010.19 C1482.15,1012.53 1481.47,1015.25 1480.1,1018.34 C1478.74,1021.44 1476.92,1023.8 1474.63,1025.42 C1469.62,1028.81 1463.34,1030.5 1455.79,1030.5 C1450.19,1030.5 1447.38,1028.09 1447.38,1023.28 C1447.38,1021.13 1448.05,1018.46 1449.38,1015.27 C1450.72,1012.08 1452.56,1009.67 1454.9,1008.05 C1459.92,1004.66 1466.21,1002.97 1473.76,1002.97"/>
<path class="Note" d="M2671.19,502.967 C2674.32,502.967 2676.92,503.748 2679,505.311 C2681.09,506.873 2682.13,509.118 2682.13,512.045 C2682.13,516.535 2679.8,520.733 2675.15,524.639 C2670.5,528.545 2665.5,530.498 2660.16,530.498 C2657.04,530.498 2654.4,529.686 2652.25,528.061 C2650.23,526.3 2649.22,524.087 2649.22,521.42 C2649.22,517.056 2651.54,512.889 2656.16,508.92 C2660.79,504.951 2665.8,502.967 2671.19,502.967"/>
<path class="Note" d="M1152.9,527.967 C1156.02,527.967 1158.62,528.748 1160.71,530.311 C1162.79,531.873 1163.83,534.118 1163.83,537.045 C1163.83,541.535 1161.51,545.733 1156.86,549.639 C1152.21,553.545 1147.21,555.498 1141.86,555.498 C1138.74,555.498 1136.1,554.686 1133.96,553.061 C1131.94,551.3 1130.93,549.087 1130.93,546.42 C1130.93,542.056 1133.24,537.889 1137.86,533.92 C1142.49,529.951 1147.5,527.967 1152.9,527.967"/>
<path class="Note" d="M1849.33,989.874 C1851.21,989.874 1855.17,987.92 1861.19,984.014 C1867.22,980.108 1870.77,977.488 1871.84,976.155 C1872.91,974.821 1873.45,973.634 1873.45,972.592 C1873.45,971.551 1873.03,970.624 1872.18,969.811 C1871.33,968.999 1870.35,968.592 1869.25,968.592 C1867.3,968.592 1863.31,970.561 1857.29,974.499 C1851.26,978.436 1847.73,981.056 1846.69,982.358 C1845.64,983.66 1845.12,984.832 1845.12,985.874 C1845.12,986.915 1845.53,987.842 1846.35,988.655 C1847.17,989.467 1848.16,989.874 1849.33,989.874 M1868.28,965.467 C1873.87,965.467 1876.67,967.874 1876.67,972.686 C1876.67,975.03 1875.99,977.749 1874.62,980.842 C1873.26,983.936 1871.44,986.295 1869.15,987.92 C1864.14,991.306 1857.86,992.999 1850.31,992.999 C1844.71,992.999 1841.9,990.592 1841.9,985.78 C1841.9,983.634 1842.57,980.965 1843.9,977.772 C1845.24,974.579 1847.08,972.17 1849.42,970.545 C1854.44,967.16 1860.73,965.467 1868.28,965.467"/>
<path class="Note" d="M2152.4,965.467 C2155.53,965.467 2158.13,966.249 2160.22,967.811 C2162.3,969.374 2163.34,971.618 2163.34,974.545 C2163.34,979.035 2161.01,983.233 2156.36,987.139 C2151.71,991.045 2146.72,992.999 2141.37,992.999 C2138.25,992.999 2135.61,992.186 2133.47,990.561 C2131.44,988.801 2130.43,986.587 2130.43,983.92 C2130.43,979.556 2132.75,975.389 2137.37,971.42 C2142,967.452 2147.01,965.467 2152.4,965.467"/>
<path class="Note" d="M2488.95,527.967 C2492.07,527.967 2494.67,528.748 2496.76,530.311 C2498.84,531.873 2499.88,534.118 2499.88,537.045 C2499.88,541.535 2497.56,545.733 2492.91,549.639 C2488.26,553.545 2483.26,555.498 2477.91,555.498 C2474.79,555.498 2472.15,554.686 2470.01,553.061 C2467.99,551.3 2466.98,549.087 2466.98,546.42 C2466.98,542.056 2469.29,537.889 2473.91,533.92 C2478.54,529.951 2483.55,527.967 2488.95,527.967"/>
<path class="Note" d="M2358.61,1002.37 C2360.49,1002.37 2364.45,1000.42 2370.48,996.514 C2376.5,992.608 2380.05,989.988 2381.12,988.655 C2382.2,987.321 2382.73,986.134 2382.73,985.092 C2382.73,984.051 2382.31,983.124 2381.46,982.311 C2380.61,981.499 2379.63,981.092 2378.53,981.092 C2376.58,981.092 2372.6,983.061 2366.57,986.999 C2360.54,990.936 2357.01,993.556 2355.97,994.858 C2354.93,996.16 2354.4,997.332 2354.4,998.374 C2354.4,999.415 2354.81,1000.34 2355.63,1001.15 C2356.45,1001.97 2357.44,1002.37 2358.61,1002.37 M2377.56,977.967 C2383.15,977.967 2385.95,980.374 2385.95,985.186 C2385.95,987.53 2385.27,990.249 2383.9,993.342 C2382.54,996.436 2380.72,998.795 2378.44,1000.42 C2373.43,1003.81 2367.14,1005.5 2359.59,1005.5 C2353.99,1005.5 2351.19,1003.09 2351.19,998.28 C2351.19,996.134 2351.85,993.465 2353.19,990.272 C2354.52,987.079 2356.36,984.67 2358.7,983.045 C2363.72,979.66 2370.01,977.967 2377.56,977.967"/>
<path class="Note" d="M2661.69,1002.97 C2664.81,1002.97 2667.41,1003.75 2669.5,1005.31 C2671.58,1006.87 2672.62,1009.12 2672.62,1012.05 C2672.62,1016.53 2670.3,1020.73 2665.65,1024.64 C2661,1028.55 2656,1030.5 2650.65,1030.5 C2647.53,1030.5 2644.89,1029.69 2642.75,1028.06 C2640.73,1026.3 2639.72,1024.09 2639.72,1021.42 C2639.72,1017.06 2642.03,1012.89 2646.65,1008.92 C2651.28,1004.95 2656.29,1002.97 2661.69,1002.97"/>
<path class="Note" d="M864.077,552.373 C865.963,552.373 869.919,550.42 875.945,546.514 C881.971,542.608 885.52,539.988 886.593,538.654 C887.666,537.321 888.202,536.134 888.202,535.092 C888.202,534.05 887.778,533.123 886.929,532.311 C886.08,531.498 885.103,531.092 883.999,531.092 C882.051,531.092 878.064,533.061 872.038,536.998 C866.012,540.936 862.478,543.556 861.437,544.858 C860.395,546.16 859.874,547.332 859.874,548.373 C859.874,549.415 860.283,550.342 861.101,551.154 C861.919,551.967 862.911,552.373 864.077,552.373 M883.031,527.967 C888.624,527.967 891.421,530.373 891.421,535.186 C891.421,537.529 890.739,540.248 889.374,543.342 C888.01,546.436 886.187,548.795 883.906,550.42 C878.895,553.806 872.614,555.498 865.062,555.498 C859.458,555.498 856.656,553.092 856.656,548.279 C856.656,546.134 857.322,543.464 858.656,540.272 C859.989,537.079 861.827,534.67 864.171,533.045 C869.192,529.66 875.478,527.967 883.031,527.967"/>
<path class="Clef" d="M203.623,673.858 L203.623,671.717 C203.56,670.613 203.399,668.889 203.139,666.545 C199.889,667.066 196.993,667.326 194.451,667.326 C185.337,667.326 177.605,663.727 171.256,656.53 C164.907,649.332 161.732,640.754 161.732,630.795 C161.732,628.129 162.253,624.923 163.295,621.178 C164.337,617.433 165.297,614.925 166.178,613.655 C167.058,612.384 168.378,610.155 170.139,606.967 C170.659,605.988 172.352,603.837 175.217,600.514 C175.738,599.806 176.193,599.222 176.584,598.764 C176.975,598.306 177.607,597.49 178.482,596.319 C179.357,595.147 180.3,594.056 181.31,593.045 C182.321,592.035 183.217,591.058 183.998,590.115 C184.779,589.173 185.498,588.379 186.154,587.733 C183.81,579.983 182.378,574.024 181.857,569.858 C181.337,565.691 181.076,560.579 181.076,554.522 C181.076,548.464 182.378,542.962 184.982,538.014 C187.514,532.879 191.06,528.681 195.623,525.42 C195.883,525.222 196.225,525.123 196.646,525.123 C197.068,525.123 197.378,525.222 197.576,525.42 C201.087,529.649 204.128,535.149 206.701,541.92 C209.274,548.691 210.56,555.024 210.56,560.92 C210.56,566.816 209.066,572.498 206.076,577.967 C202.691,583.759 198.326,589.748 192.982,595.936 C194.347,600.227 196.17,606.962 198.451,616.139 L199.045,616.139 C199.305,616.076 199.529,616.045 199.717,616.045 C207.081,616.045 213.089,618.634 217.74,623.811 C222.391,628.988 224.717,634.962 224.717,641.733 C224.717,650.129 221.238,656.899 214.279,662.045 C212.258,663.545 209.878,664.717 207.139,665.561 C207.472,669.79 207.639,672.605 207.639,674.006 C207.639,675.407 207.571,677.899 207.435,681.483 C207.373,687.597 205.29,692.837 201.185,697.201 C197.081,701.566 192.394,703.748 187.123,703.748 C181.852,703.748 177.36,701.876 173.646,698.131 C169.933,694.386 168.076,689.847 168.076,684.514 C168.076,681.712 169.154,679.332 171.31,677.373 C173.519,675.425 176.006,674.451 178.771,674.451 C181.537,674.451 183.8,675.462 185.56,677.483 C187.383,679.368 188.295,681.644 188.295,684.311 C188.295,686.977 187.383,689.222 185.56,691.045 C183.738,692.868 181.555,693.78 179.014,693.78 C177.972,693.78 176.967,693.587 175.998,693.201 C178.863,697.431 182.54,699.545 187.029,699.545 C191.519,699.545 195.36,697.691 198.553,693.983 C201.745,690.274 203.342,685.91 203.342,680.889 L203.623,673.858 M206.748,661.561 C210.133,660.321 212.821,658.123 214.81,654.967 C216.8,651.811 217.795,648.67 217.795,645.545 C217.795,640.92 216.199,636.785 213.006,633.139 C209.813,629.493 205.774,627.441 200.889,626.983 C203.691,640.722 205.644,652.248 206.748,661.561 M168.967,638.998 C168.967,645.446 171.537,651.079 176.678,655.897 C181.818,660.714 187.842,663.123 194.748,663.123 C197.477,663.123 200.144,662.925 202.748,662.53 C201.706,652.634 199.654,640.785 196.592,626.983 C192.758,627.379 189.782,628.699 187.662,630.944 C185.542,633.188 184.482,635.743 184.482,638.608 C184.482,643.556 187.123,647.561 192.404,650.623 C192.852,650.884 193.076,651.324 193.076,651.944 C193.076,652.563 192.865,653.1 192.443,653.553 C192.021,654.006 191.649,654.233 191.326,654.233 C191.003,654.233 190.581,654.17 190.06,654.045 C182.435,649.879 178.623,643.592 178.623,635.186 C178.623,631.217 180.024,627.41 182.826,623.764 C185.753,620.118 189.56,617.774 194.248,616.733 C192.425,609.441 190.93,603.743 189.764,599.639 C180.847,609.67 175.31,617.092 173.154,621.905 C170.363,628.155 168.967,633.852 168.967,638.998 M201.576,539.686 C196.691,542.092 192.834,545.574 190.006,550.131 C187.178,554.688 185.764,559.472 185.764,564.483 C185.764,569.493 186.935,575.972 189.279,583.92 C193.967,578.254 197.514,572.946 199.92,567.998 C202.326,563.05 203.529,558.152 203.529,553.303 C203.529,548.454 202.878,543.915 201.576,539.686"/>
<path class="Clef" d="M203.623,1148.86 L203.623,1146.72 C203.56,1145.61 203.399,1143.89 203.139,1141.55 C199.889,1142.07 196.993,1142.33 194.451,1142.33 C185.337,1142.33 177.605,1138.73 171.256,1131.53 C164.907,1124.33 161.732,1115.75 161.732,1105.8 C161.732,1103.13 162.253,1099.92 163.295,1096.18 C164.337,1092.43 165.297,1089.93 166.178,1088.65 C167.058,1087.38 168.378,1085.15 170.139,1081.97 C170.659,1080.99 172.352,1078.84 175.217,1075.51 C175.738,1074.81 176.193,1074.22 176.584,1073.76 C176.975,1073.31 177.607,1072.49 178.482,1071.32 C179.357,1070.15 180.3,1069.06 181.31,1068.05 C182.321,1067.04 183.217,1066.06 183.998,1065.12 C184.779,1064.17 185.498,1063.38 186.154,1062.73 C183.81,1054.98 182.378,1049.02 181.857,1044.86 C181.337,1040.69 181.076,1035.58 181.076,1029.52 C181.076,1023.46 182.378,1017.96 184.982,1013.01 C187.514,1007.88 191.06,1003.68 195.623,1000.42 C195.883,1000.22 196.225,1000.12 196.646,1000.12 C197.068,1000.12 197.378,1000.22 197.576,1000.42 C201.087,1004.65 204.128,1010.15 206.701,1016.92 C209.274,1023.69 210.56,1030.02 210.56,1035.92 C210.56,1041.82 209.066,1047.5 206.076,1052.97 C202.691,1058.76 198.326,1064.75 192.982,1070.94 C194.347,1075.23 196.17,1081.96 198.451,1091.14 L199.045,1091.14 C199.305,1091.08 199.529,1091.05 199.717,1091.05 C207.081,1091.05 213.089,1093.63 217.74,1098.81 C222.391,1103.99 224.717,1109.96 224.717,1116.73 C224.717,1125.13 221.238,1131.9 214.279,1137.05 C212.258,1138.55 209.878,1139.72 207.139,1140.56 C207.472,1144.79 207.639,1147.61 207.639,1149.01 C207.639,1150.41 207.571,1152.9 207.435,1156.48 C207.373,1162.6 205.29,1167.84 201.185,1172.2 C197.081,1176.57 192.394,1178.75 187.123,1178.75 C181.852,1178.75 177.36,1176.88 173.646,1173.13 C169.933,1169.39 168.076,1164.85 168.076,1159.51 C168.076,1156.71 169.154,1154.33 171.31,1152.37 C173.519,1150.43 176.006,1149.45 178.771,1149.45 C181.537,1149.45 183.8,1150.46 185.56,1152.48 C187.383,1154.37 188.295,1156.64 188.295,1159.31 C188.295,1161.98 187.383,1164.22 185.56,1166.05 C183.738,1167.87 181.555,1168.78 179.014,1168.78 C177.972,1168.78 176.967,1168.59 175.998,1168.2 C178.863,1172.43 182.54,1174.55 187.029,1174.55 C191.519,1174.55 195.36,1172.69 198.553,1168.98 C201.745,1165.27 203.342,1160.91 203.342,1155.89 L203.623,1148.86 M206.748,1136.56 C210.133,1135.32 212.821,1133.12 214.81,1129.97 C216.8,1126.81 217.795,1123.67 217.795,1120.55 C217.795,1115.92 216.199,1111.79 213.006,1108.14 C209.813,1104.49 205.774,1102.44 200.889,1101.98 C203.691,1115.72 205.644,1127.25 206.748,1136.56 M168.967,1114 C168.967,1120.45 171.537,1126.08 176.678,1130.9 C181.818,1135.71 187.842,1138.12 194.748,1138.12 C197.477,1138.12 200.144,1137.93 202.748,1137.53 C201.706,1127.63 199.654,1115.79 196.592,1101.98 C192.758,1102.38 189.782,1103.7 187.662,1105.94 C185.542,1108.19 184.482,1110.74 184.482,1113.61 C184.482,1118.56 187.123,1122.56 192.404,1125.62 C192.852,1125.88 193.076,1126.32 193.076,1126.94 C193.076,1127.56 192.865,1128.1 192.443,1128.55 C192.021,1129.01 191.649,1129.23 191.326,1129.23 C191.003,1129.23 190.581,1129.17 190.06,1129.05 C182.435,1124.88 178.623,1118.59 178.623,1110.19 C178.623,1106.22 180.024,1102.41 182.826,1098.76 C185.753,1095.12 189.56,1092.77 194.248,1091.73 C192.425,1084.44 190.93,1078.74 189.764,1074.64 C180.847,1084.67 175.31,1092.09 173.154,1096.9 C170.363,1103.15 168.967,1108.85 168.967,1114 M201.576,1014.69 C196.691,1017.09 192.834,1020.57 190.006,1025.13 C187.178,1029.69 185.764,1034.47 185.764,1039.48 C185.764,1044.49 186.935,1050.97 189.279,1058.92 C193.967,1053.25 197.514,1047.95 199.92,1043 C202.326,1038.05 203.529,1033.15 203.529,1028.3 C203.529,1023.45 202.878,1018.92 201.576,1014.69"/>
<path class="Clef" d="M203.623,1623.86 L203.623,1621.72 C203.56,1620.61 203.399,1618.89 203.139,1616.55 C199.889,1617.07 196.993,1617.33 194.451,1617.33 C185.337,1617.33 177.605,1613.73 171.256,1606.53 C164.907,1599.33 161.732,1590.75 161.732,1580.8 C161.732,1578.13 162.253,1574.92 163.295,1571.18 C164.337,1567.43 165.297,1564.93 166.178,1563.66 C167.058,1562.38 168.378,1560.16 170.139,1556.97 C170.659,1555.99 172.352,1553.84 175.217,1550.51 C175.738,1549.81 176.193,1549.22 176.584,1548.76 C176.975,1548.31 177.607,1547.49 178.482,1546.32 C179.357,1545.15 180.3,1544.06 181.31,1543.05 C182.321,1542.04 183.217,1541.06 183.998,1540.12 C184.779,1539.17 185.498,1538.38 186.154,1537.73 C183.81,1529.98 182.378,1524.02 181.857,1519.86 C181.337,1515.69 181.076,1510.58 181.076,1504.52 C181.076,1498.47 182.378,1492.96 184.982,1488.01 C187.514,1482.88 191.06,1478.68 195.623,1475.42 C195.883,1475.22 196.225,1475.12 196.646,1475.12 C197.068,1475.12 197.378,1475.22 197.576,1475.42 C201.087,1479.65 204.128,1485.15 206.701,1491.92 C209.274,1498.69 210.56,1505.02 210.56,1510.92 C210.56,1516.82 209.066,1522.5 206.076,1527.97 C202.691,1533.76 198.326,1539.75 192.982,1545.94 C194.347,1550.23 196.17,1556.96 198.451,1566.14 L199.045,1566.14 C199.305,1566.08 199.529,1566.05 199.717,1566.05 C207.081,1566.05 213.089,1568.63 217.74,1573.81 C222.391,1578.99 224.717,1584.96 224.717,1591.73 C224.717,1600.13 221.238,1606.9 214.279,1612.05 C212.258,1613.55 209.878,1614.72 207.139,1615.56 C207.472,1619.79 207.639,1622.61 207.639,1624.01 C207.639,1625.41 207.571,1627.9 207.435,1631.48 C207.373,1637.6 205.29,1642.84 201.185,1647.2 C197.081,1651.57 192.394,1653.75 187.123,1653.75 C181.852,1653.75 177.36,1651.88 173.646,1648.13 C169.933,1644.39 168.076,1639.85 168.076,1634.51 C168.076,1631.71 169.154,1629.33 171.31,1627.37 C173.519,1625.43 176.006,1624.45 178.771,1624.45 C181.537,1624.45 183.8,1625.46 185.56,1627.48 C187.383,1629.37 188.295,1631.64 188.295,1634.31 C188.295,1636.98 187.383,1639.22 185.56,1641.05 C183.738,1642.87 181.555,1643.78 179.014,1643.78 C177.972,1643.78 176.967,1643.59 175.998,1643.2 C178.863,1647.43 182.54,1649.55 187.029,1649.55 C191.519,1649.55 195.36,1647.69 198.553,1643.98 C201.745,1640.27 203.342,1635.91 203.342,1630.89 L203.623,1623.86 M206.748,1611.56 C210.133,1610.32 212.821,1608.12 214.81,1604.97 C216.8,1601.81 217.795,1598.67 217.795,1595.55 C217.795,1590.92 216.199,1586.79 213.006,1583.14 C209.813,1579.49 205.774,1577.44 200.889,1576.98 C203.691,1590.72 205.644,1602.25 206.748,1611.56 M168.967,1589 C168.967,1595.45 171.537,1601.08 176.678,1605.9 C181.818,1610.72 187.842,1613.12 194.748,1613.12 C197.477,1613.12 200.144,1612.93 202.748,1612.53 C201.706,1602.63 199.654,1590.79 196.592,1576.98 C192.758,1577.38 189.782,1578.7 187.662,1580.94 C185.542,1583.19 184.482,1585.74 184.482,1588.61 C184.482,1593.56 187.123,1597.56 192.404,1600.62 C192.852,1600.88 193.076,1601.32 193.076,1601.94 C193.076,1602.56 192.865,1603.1 192.443,1603.55 C192.021,1604.01 191.649,1604.23 191.326,1604.23 C191.003,1604.23 190.581,1604.17 190.06,1604.05 C182.435,1599.88 178.623,1593.59 178.623,1585.19 C178.623,1581.22 180.024,1577.41 182.826,1573.76 C185.753,1570.12 189.56,1567.77 194.248,1566.73 C192.425,1559.44 190.93,1553.74 189.764,1549.64 C180.847,1559.67 175.31,1567.09 173.154,1571.91 C170.363,1578.16 168.967,1583.85 168.967,1589 M201.576,1489.69 C196.691,1492.09 192.834,1495.57 190.006,1500.13 C187.178,1504.69 185.764,1509.47 185.764,1514.48 C185.764,1519.49 186.935,1525.97 189.279,1533.92 C193.967,1528.25 197.514,1522.95 199.92,1518 C202.326,1513.05 203.529,1508.15 203.529,1503.3 C203.529,1498.45 202.878,1493.92 201.576,1489.69"/>
<path class="KeySig" d="M251.123,1109.31 L249.857,1047.2 C249.857,1046.22 250.623,1045.73 252.154,1045.73 C253.686,1045.73 254.451,1046.22 254.451,1047.2 L253.67,1081.09 C255.43,1079.33 256.943,1078.11 258.209,1077.43 C259.475,1076.75 261.199,1076.4 263.381,1076.4 C265.563,1076.4 267.581,1077.41 269.436,1079.43 C271.29,1081.44 272.217,1083.95 272.217,1086.95 C272.217,1091.44 267.498,1097.66 258.061,1105.61 C254.55,1108.8 252.727,1110.39 252.592,1110.39 L252.014,1110.39 C251.42,1110.39 251.123,1110.03 251.123,1109.31 M253.576,1084.22 L253.279,1106.39 C255.3,1104.49 257.352,1101.35 259.436,1096.95 C261.519,1092.56 262.561,1088.8 262.561,1085.67 C262.561,1084.11 262.3,1082.68 261.779,1081.37 C261.258,1080.07 260.443,1079.42 259.334,1079.42 C258.225,1079.42 257.23,1079.81 256.35,1080.59 C255.469,1081.37 254.545,1082.58 253.576,1084.22"/>
<path class="KeySig" d="M251.123,634.311 L249.857,572.201 C249.857,571.222 250.623,570.733 252.154,570.733 C253.686,570.733 254.451,571.222 254.451,572.201 L253.67,606.092 C255.43,604.332 256.943,603.11 258.209,602.428 C259.475,601.746 261.199,601.405 263.381,601.405 C265.563,601.405 267.581,602.412 269.436,604.428 C271.29,606.444 272.217,608.951 272.217,611.951 C272.217,616.441 267.498,622.66 258.061,630.608 C254.55,633.795 252.727,635.389 252.592,635.389 L252.014,635.389 C251.42,635.389 251.123,635.03 251.123,634.311 M253.576,609.217 L253.279,631.389 C255.3,629.493 257.352,626.347 259.436,621.951 C261.519,617.556 262.561,613.795 262.561,610.67 C262.561,609.108 262.3,607.675 261.779,606.373 C261.258,605.071 260.443,604.42 259.334,604.42 C258.225,604.42 257.23,604.811 256.35,605.592 C255.469,606.373 254.545,607.582 253.576,609.217"/>
<path class="KeySig" d="M251.123,1584.31 L249.857,1522.2 C249.857,1521.22 250.623,1520.73 252.154,1520.73 C253.686,1520.73 254.451,1521.22 254.451,1522.2 L253.67,1556.09 C255.43,1554.33 256.943,1553.11 258.209,1552.43 C259.475,1551.75 261.199,1551.41 263.381,1551.41 C265.563,1551.41 267.581,1552.41 269.436,1554.43 C271.29,1556.44 272.217,1558.95 272.217,1561.95 C272.217,1566.44 267.498,1572.66 258.061,1580.61 C254.55,1583.8 252.727,1585.39 252.592,1585.39 L252.014,1585.39 C251.42,1585.39 251.123,1585.03 251.123,1584.31 M253.576,1559.22 L253.279,1581.39 C255.3,1579.49 257.352,1576.35 259.436,1571.95 C261.519,1567.56 262.561,1563.8 262.561,1560.67 C262.561,1559.11 262.3,1557.68 261.779,1556.37 C261.258,1555.07 260.443,1554.42 259.334,1554.42 C258.225,1554.42 257.23,1554.81 256.35,1555.59 C255.469,1556.37 254.545,1557.58 253.576,1559.22"/>
<path class="TimeSig" d="M316.201,614.389 C320.368,614.389 322.451,610.514 322.451,602.764 L322.451,601.108 C322.451,599.222 322.386,597.644 322.256,596.373 C322.126,595.102 321.686,594.011 320.936,593.1 C320.186,592.188 319.029,591.733 317.467,591.733 L309.451,591.733 C308.545,591.733 308.092,591.277 308.092,590.365 C308.092,589.454 308.545,588.931 309.451,588.795 L317.467,588.795 C319.29,588.795 320.558,588.274 321.272,587.233 C321.985,586.191 322.378,584.498 322.451,582.155 L322.451,578.155 C322.451,572.102 320.238,569.076 315.811,569.076 C311.831,569.076 309.842,570.149 309.842,572.295 C309.842,573.014 310.446,573.795 311.654,574.639 C312.863,575.483 313.467,576.264 313.467,576.983 C313.467,578.608 312.897,579.99 311.756,581.131 C310.615,582.272 309.248,582.842 307.654,582.842 C306.061,582.842 304.709,582.256 303.6,581.084 C302.49,579.912 301.936,578.545 301.936,576.983 C301.936,573.92 303.305,571.415 306.045,569.467 C308.91,567.644 312.472,566.733 316.732,566.733 C320.993,566.733 324.719,567.66 327.912,569.514 C331.105,571.368 332.701,574.248 332.701,578.155 C332.701,580.957 332.407,583.089 331.818,584.553 C331.23,586.016 330.581,586.91 329.873,587.233 C327.977,588.014 327.029,589.024 327.029,590.264 C327.029,591.108 328.201,592.316 330.545,593.889 C331.326,594.337 332.107,595.36 332.889,596.959 C333.67,598.558 334.061,600.493 334.061,602.764 C334.061,607.264 332.386,610.717 329.037,613.123 C325.688,615.53 321.652,616.733 316.928,616.733 C312.204,616.733 308.378,615.691 305.451,613.608 C302.326,611.66 300.764,608.925 300.764,605.405 C300.764,603.717 301.415,602.155 302.717,600.717 C304.081,599.477 305.66,598.858 307.451,598.858 C309.243,598.858 310.727,599.509 311.904,600.811 C313.206,602.05 313.857,603.582 313.857,605.405 C313.857,606.248 313.206,607.16 311.904,608.139 C310.529,609.056 309.842,610.035 309.842,611.076 C309.842,612.118 310.462,612.931 311.701,613.514 C312.941,614.097 314.441,614.389 316.201,614.389"/>
<path class="TimeSig" d="M320.537,618.084 C322.032,618.084 323.464,617.858 324.834,617.405 C326.204,616.951 327.18,616.725 327.764,616.725 C328.347,616.725 328.738,617.079 328.936,617.787 C328.936,617.86 328.868,618.058 328.732,618.381 L300.326,651.397 L317.014,651.397 L317.014,638.303 C317.014,636.678 317.962,635.506 319.857,634.787 C321.805,634.069 324.019,631.173 326.498,626.1 C326.686,625.704 326.977,625.506 327.373,625.506 C328.154,625.506 328.607,625.964 328.732,626.881 L328.732,651.397 L335.873,651.397 C336.779,651.397 337.266,651.884 337.334,652.858 C337.402,653.832 336.915,654.319 335.873,654.319 L328.732,654.319 L328.732,655.1 C328.732,657.704 329.383,659.918 330.686,661.74 C332.186,663.563 333.946,664.475 335.967,664.475 C336.748,664.475 337.139,664.865 337.139,665.647 C337.139,666.428 336.602,666.819 335.529,666.819 C334.456,666.819 332.454,666.608 329.522,666.186 C326.589,665.764 324.326,665.553 322.732,665.553 C321.139,665.553 318.925,665.764 316.092,666.186 C313.258,666.608 311.128,666.819 309.701,666.819 C308.92,666.819 308.529,666.428 308.529,665.647 C308.529,664.865 308.92,664.475 309.701,664.475 C311.712,664.475 313.467,663.563 314.967,661.74 C316.331,659.855 317.014,657.642 317.014,655.1 L317.014,654.319 L300.326,654.319 C299.472,654.319 298.735,654.092 298.115,653.639 C297.495,653.186 297.186,652.764 297.186,652.373 C297.186,651.983 298.001,650.811 299.631,648.858 C301.261,646.905 303.589,643.144 306.615,637.576 C309.641,632.009 311.154,625.61 311.154,618.381 C311.154,617.339 311.613,616.819 312.529,616.819 C312.727,616.819 313.037,616.884 313.459,617.014 C313.881,617.144 314.792,617.355 316.193,617.647 C317.594,617.938 319.042,618.084 320.537,618.084"/>
<path class="Rest" d="M2285.12,611.451 C2284.47,610.608 2284.14,609.696 2284.14,608.717 C2284.14,606.967 2286.23,604.53 2290.4,601.405 C2294.5,598.207 2296.54,594.561 2296.54,590.467 C2296.54,588.05 2295.7,585.837 2294.01,583.826 L2290.5,579.623 C2290.24,579.363 2290.11,579.037 2290.11,578.647 C2290.11,578.256 2290.3,577.899 2290.68,577.576 C2291.14,577.243 2291.57,577.076 2291.96,577.076 C2292.35,577.076 2292.67,577.274 2292.93,577.67 L2308.07,595.639 C2308.72,596.483 2309.04,597.41 2309.04,598.42 C2309.04,599.431 2308.51,600.522 2307.43,601.694 C2306.36,602.865 2304.85,604.233 2302.9,605.795 C2301.4,606.701 2299.99,608.131 2298.65,610.084 C2297.32,612.037 2296.65,614.253 2296.65,616.733 C2296.65,619.212 2297.43,621.394 2299,623.28 L2307.39,633.139 C2307.59,633.337 2307.72,633.662 2307.78,634.115 C2307.84,634.569 2307.68,634.959 2307.29,635.287 C2306.9,635.615 2306.59,635.78 2306.36,635.78 C2306.14,635.78 2305.55,635.405 2304.61,634.655 C2303.66,633.905 2302.32,633.173 2300.6,632.459 C2298.87,631.746 2297.17,631.389 2295.47,631.389 C2293.78,631.389 2292.45,631.845 2291.47,632.756 C2290.5,633.668 2290.01,635.767 2290.01,639.053 C2290.01,642.339 2290.95,645.123 2292.84,647.405 C2293.04,647.665 2293.07,647.957 2292.94,648.28 C2292.81,648.602 2292.55,648.764 2292.16,648.764 C2291.77,648.764 2290.78,647.561 2289.18,645.155 C2287.58,642.748 2286.05,639.899 2284.58,636.608 C2283.12,633.316 2282.39,630.566 2282.39,628.358 C2282.39,625.556 2283.82,624.155 2286.68,624.155 C2289.55,624.155 2293.42,625.196 2298.31,627.28 L2285.12,611.451 "/>
<path class="NoteDot" d="M1385.5,583.24 C1384.39,582.131 1383.84,580.795 1383.84,579.233 C1383.84,577.67 1384.39,576.334 1385.5,575.225 C1386.61,574.115 1387.95,573.561 1389.51,573.561 C1391.07,573.561 1392.4,574.115 1393.51,575.225 C1394.61,576.334 1395.16,577.67 1395.16,579.233 C1395.16,580.795 1394.61,582.131 1393.51,583.24 C1392.4,584.35 1391.07,584.905 1389.51,584.905 C1387.95,584.905 1386.61,584.35 1385.5,583.24"/>
<path class="NoteDot" d="M1492.52,1008.24 C1491.41,1007.13 1490.85,1005.8 1490.85,1004.23 C1490.85,1002.67 1491.41,1001.33 1492.52,1000.23 C1493.63,999.116 1494.96,998.561 1496.52,998.561 C1498.09,998.561 1499.42,999.116 1500.52,1000.23 C1501.63,1001.33 1502.18,1002.67 1502.18,1004.23 C1502.18,1005.8 1501.63,1007.13 1500.52,1008.24 C1499.42,1009.35 1498.09,1009.9 1496.52,1009.9 C1494.96,1009.9 1493.63,1009.35 1492.52,1008.24"/>
<path class="NoteDot" d="M961.843,1533.24 C960.733,1532.13 960.179,1530.8 960.179,1529.23 C960.179,1527.67 960.733,1526.33 961.843,1525.23 C962.952,1524.12 964.288,1523.56 965.85,1523.56 C967.413,1523.56 968.746,1524.12 969.85,1525.23 C970.955,1526.33 971.507,1527.67 971.507,1529.23 C971.507,1530.8 970.955,1532.13 969.85,1533.24 C968.746,1534.35 967.413,1534.91 965.85,1534.91 C964.288,1534.91 962.952,1534.35 961.843,1533.24"/>
<path class="NoteDot" d="M1951.08,583.24 C1949.97,582.131 1949.41,580.795 1949.41,579.233 C1949.41,577.67 1949.97,576.334 1951.08,575.225 C1952.19,574.115 1953.52,573.561 1955.08,573.561 C1956.65,573.561 1957.98,574.115 1959.08,575.225 C1960.19,576.334 1960.74,577.67 1960.74,579.233 C1960.74,580.795 1960.19,582.131 1959.08,583.24 C1957.98,584.35 1956.65,584.905 1955.08,584.905 C1953.52,584.905 1952.19,584.35 1951.08,583.24"/>
</svg>
