<?xml version="1.0" encoding="UTF-8" standalone="no"?>
<svg width="2977.2px" height="4208.4px" viewBox="0 0 2977.2 4208.4"
 xmlns="http://www.w3.org/2000/svg" xmlns:xlink="http://www.w3.org/1999/xlink" version="1.2" baseProfile="tiny">
<title>C_Major_Scale_Patterns_19.mscx</title>
<desc>Generated by MuseScore Studio 4.3.1</desc>
<path class="" fill="#ffffff" fill-rule="evenodd" d="M0,0 L2977.2,0 L2977.2,4208.4 L0,4208.4 L0,0 "/>
<polyline class="StaffLines" fill="none" stroke="#000000" stroke-width="2.00" stroke-linejoin="bevel" points="141.732,566.733 2835.47,566.733"/>
<polyline class="StaffLines" fill="none" stroke="#000000" stroke-width="2.00" stroke-linejoin="bevel" points="141.732,591.733 2835.47,591.733"/>
<polyline class="StaffLines" fill="none" stroke="#000000" stroke-width="2.00" stroke-linejoin="bevel" points="141.732,616.733 2835.47,616.733"/>
<polyline class="StaffLines" fill="none" stroke="#000000" stroke-width="2.00" stroke-linejoin="bevel" points="141.732,641.733 2835.47,641.733"/>
<polyline class="StaffLines" fill="none" stroke="#000000" stroke-width="2.00" stroke-linejoin="bevel" points="141.732,666.733 2835.47,666.733"/>
<polyline class="BarLine" fill="none" stroke="#000000" stroke-width="4.00" stroke-linejoin="bevel" points="1557.34,565.733 1557.34,667.733"/>
<polyline class="BarLine" fill="none" stroke="#000000" stroke-width="4.00" stroke-linejoin="bevel" points="2491.37,565.733 2491.37,667.733"/>
<polyline class="BarLine" fill="none" stroke="#000000" stroke-width="4.00" stroke-linejoin="bevel" points="934.658,565.733 934.658,667.733"/>
<polyline class="BarLine" fill="none" stroke="#000000" stroke-width="4.00" stroke-linejoin="bevel" points="623.314,565.733 623.314,667.733"/>
<polyline class="BarLine" fill="none" stroke="#000000" stroke-width="4.00" stroke-linejoin="bevel" points="1246,565.733 1246,667.733"/>
<polyline class="BarLine" fill="none" stroke="#000000" stroke-width="4.00" stroke-linejoin="bevel" points="2180.03,565.733 2180.03,667.733"/>
<polyline class="BarLine" fill="none" stroke="#000000" stroke-width="4.00" stroke-linejoin="bevel" points="1868.69,565.733 1868.69,667.733"/>
<polyline class="BarLine" fill="none" stroke="#000000" stroke-width="4.00" stroke-linejoin="bevel" points="2802.72,565.733 2802.72,667.733"/>
<polyline class="BarLine" fill="none" stroke="#000000" stroke-width="12.50" stroke-linejoin="bevel" points="2829.22,565.733 2829.22,667.733"/>
<polyline class="LedgerLine" fill="none" stroke="#000000" stroke-width="4.00" stroke-linejoin="bevel" points="952.158,541.733 1005.88,541.733"/>
<polyline class="LedgerLine" fill="none" stroke="#000000" stroke-width="4.00" stroke-linejoin="bevel" points="640.814,541.733 694.533,541.733"/>
<polyline class="LedgerLine" fill="none" stroke="#000000" stroke-width="4.00" stroke-linejoin="bevel" points="329.471,541.733 383.19,541.733"/>
<polyline class="LedgerLine" fill="none" stroke="#000000" stroke-width="4.00" stroke-linejoin="bevel" points="329.471,516.733 383.19,516.733"/>
<polyline class="Stem" fill="none" stroke="#000000" stroke-width="3.25" stroke-linejoin="bevel" points="2069.5,636.933 2069.5,554.233"/>
<polyline class="Stem" fill="none" stroke="#000000" stroke-width="3.25" stroke-linejoin="bevel" points="824.129,636.933 824.129,554.233"/>
<polyline class="Stem" fill="none" stroke="#000000" stroke-width="3.25" stroke-linejoin="bevel" points="1897.31,584.133 1897.31,666.733"/>
<polyline class="Stem" fill="none" stroke="#000000" stroke-width="3.25" stroke-linejoin="bevel" points="2692.19,636.933 2692.19,554.233"/>
<polyline class="Stem" fill="none" stroke="#000000" stroke-width="3.25" stroke-linejoin="bevel" points="340.596,521.633 340.596,616.733"/>
<polyline class="Stem" fill="none" stroke="#000000" stroke-width="3.25" stroke-linejoin="bevel" points="1758.16,636.933 1758.16,554.233"/>
<polyline class="Stem" fill="none" stroke="#000000" stroke-width="3.25" stroke-linejoin="bevel" points="1585.97,571.633 1585.97,654.233"/>
<polyline class="Stem" fill="none" stroke="#000000" stroke-width="3.25" stroke-linejoin="bevel" points="2208.66,596.633 2208.66,679.233"/>
<polyline class="Stem" fill="none" stroke="#000000" stroke-width="3.25" stroke-linejoin="bevel" points="1446.82,636.933 1446.82,554.233"/>
<polyline class="Stem" fill="none" stroke="#000000" stroke-width="3.25" stroke-linejoin="bevel" points="1274.63,559.133 1274.63,641.733"/>
<polyline class="Stem" fill="none" stroke="#000000" stroke-width="3.25" stroke-linejoin="bevel" points="512.785,636.933 512.785,554.233"/>
<polyline class="Stem" fill="none" stroke="#000000" stroke-width="3.25" stroke-linejoin="bevel" points="2520,609.133 2520,685.483"/>
<polyline class="Stem" fill="none" stroke="#000000" stroke-width="3.25" stroke-linejoin="bevel" points="2380.85,636.933 2380.85,554.233"/>
<polyline class="Stem" fill="none" stroke="#000000" stroke-width="3.25" stroke-linejoin="bevel" points="1135.47,636.933 1135.47,554.233"/>
<polyline class="Stem" fill="none" stroke="#000000" stroke-width="3.25" stroke-linejoin="bevel" points="963.283,546.633 963.283,629.233"/>
<polyline class="Stem" fill="none" stroke="#000000" stroke-width="3.25" stroke-linejoin="bevel" points="651.939,534.133 651.939,616.733"/>
<path class="Note" d="M2214.45,602.373 C2216.34,602.373 2220.29,600.42 2226.32,596.514 C2232.35,592.608 2235.9,589.988 2236.97,588.655 C2238.04,587.321 2238.58,586.134 2238.58,585.092 C2238.58,584.05 2238.15,583.123 2237.3,582.311 C2236.46,581.498 2235.48,581.092 2234.38,581.092 C2232.43,581.092 2228.44,583.061 2222.41,586.998 C2216.39,590.936 2212.85,593.556 2211.81,594.858 C2210.77,596.16 2210.25,597.332 2210.25,598.373 C2210.25,599.415 2210.66,600.342 2211.48,601.155 C2212.29,601.967 2213.29,602.373 2214.45,602.373 M2233.41,577.967 C2239,577.967 2241.8,580.373 2241.8,585.186 C2241.8,587.53 2241.11,590.248 2239.75,593.342 C2238.39,596.436 2236.56,598.795 2234.28,600.42 C2229.27,603.806 2222.99,605.498 2215.44,605.498 C2209.83,605.498 2207.03,603.092 2207.03,598.28 C2207.03,596.134 2207.7,593.464 2209.03,590.272 C2210.36,587.079 2212.2,584.67 2214.55,583.045 C2219.57,579.66 2225.85,577.967 2233.41,577.967"/>
<path class="Note" d="M2525.8,614.873 C2527.68,614.873 2531.64,612.92 2537.66,609.014 C2543.69,605.108 2547.24,602.488 2548.31,601.155 C2549.39,599.821 2549.92,598.634 2549.92,597.592 C2549.92,596.55 2549.5,595.623 2548.65,594.811 C2547.8,593.998 2546.82,593.592 2545.72,593.592 C2543.77,593.592 2539.78,595.561 2533.76,599.498 C2527.73,603.436 2524.2,606.056 2523.16,607.358 C2522.11,608.66 2521.59,609.832 2521.59,610.873 C2521.59,611.915 2522,612.842 2522.82,613.655 C2523.64,614.467 2524.63,614.873 2525.8,614.873 M2544.75,590.467 C2550.34,590.467 2553.14,592.873 2553.14,597.686 C2553.14,600.03 2552.46,602.748 2551.09,605.842 C2549.73,608.936 2547.91,611.295 2545.62,612.92 C2540.61,616.306 2534.33,617.998 2526.78,617.998 C2521.18,617.998 2518.37,615.592 2518.37,610.78 C2518.37,608.634 2519.04,605.964 2520.37,602.772 C2521.71,599.579 2523.55,597.17 2525.89,595.545 C2530.91,592.16 2537.2,590.467 2544.75,590.467"/>
<path class="Note" d="M2355.17,652.373 C2357.06,652.373 2361.02,650.42 2367.04,646.514 C2373.07,642.608 2376.62,639.988 2377.69,638.655 C2378.76,637.321 2379.3,636.134 2379.3,635.092 C2379.3,634.05 2378.87,633.123 2378.03,632.311 C2377.18,631.498 2376.2,631.092 2375.1,631.092 C2373.15,631.092 2369.16,633.061 2363.13,636.998 C2357.11,640.936 2353.57,643.556 2352.53,644.858 C2351.49,646.16 2350.97,647.332 2350.97,648.373 C2350.97,649.415 2351.38,650.342 2352.2,651.155 C2353.02,651.967 2354.01,652.373 2355.17,652.373 M2374.13,627.967 C2379.72,627.967 2382.52,630.373 2382.52,635.186 C2382.52,637.53 2381.84,640.248 2380.47,643.342 C2379.11,646.436 2377.28,648.795 2375,650.42 C2369.99,653.806 2363.71,655.498 2356.16,655.498 C2350.55,655.498 2347.75,653.092 2347.75,648.28 C2347.75,646.134 2348.42,643.464 2349.75,640.272 C2351.09,637.079 2352.92,634.67 2355.27,633.045 C2360.29,629.66 2366.57,627.967 2374.13,627.967"/>
<path class="Note" d="M1280.42,564.873 C1282.31,564.873 1286.26,562.92 1292.29,559.014 C1298.32,555.108 1301.87,552.488 1302.94,551.154 C1304.01,549.821 1304.55,548.634 1304.55,547.592 C1304.55,546.55 1304.12,545.623 1303.27,544.811 C1302.43,543.998 1301.45,543.592 1300.34,543.592 C1298.4,543.592 1294.41,545.561 1288.38,549.498 C1282.36,553.436 1278.82,556.056 1277.78,557.358 C1276.74,558.66 1276.22,559.832 1276.22,560.873 C1276.22,561.915 1276.63,562.842 1277.45,563.654 C1278.26,564.467 1279.26,564.873 1280.42,564.873 M1299.38,540.467 C1304.97,540.467 1307.77,542.873 1307.77,547.686 C1307.77,550.029 1307.08,552.748 1305.72,555.842 C1304.36,558.936 1302.53,561.295 1300.25,562.92 C1295.24,566.306 1288.96,567.998 1281.41,567.998 C1275.8,567.998 1273,565.592 1273,560.779 C1273,558.634 1273.67,555.964 1275,552.772 C1276.33,549.579 1278.17,547.17 1280.52,545.545 C1285.54,542.16 1291.82,540.467 1299.38,540.467"/>
<path class="Note" d="M2666.52,652.373 C2668.4,652.373 2672.36,650.42 2678.38,646.514 C2684.41,642.608 2687.96,639.988 2689.03,638.655 C2690.11,637.321 2690.64,636.134 2690.64,635.092 C2690.64,634.05 2690.22,633.123 2689.37,632.311 C2688.52,631.498 2687.54,631.092 2686.44,631.092 C2684.49,631.092 2680.5,633.061 2674.48,636.998 C2668.45,640.936 2664.92,643.556 2663.88,644.858 C2662.84,646.16 2662.31,647.332 2662.31,648.373 C2662.31,649.415 2662.72,650.342 2663.54,651.155 C2664.36,651.967 2665.35,652.373 2666.52,652.373 M2685.47,627.967 C2691.06,627.967 2693.86,630.373 2693.86,635.186 C2693.86,637.53 2693.18,640.248 2691.81,643.342 C2690.45,646.436 2688.63,648.795 2686.35,650.42 C2681.34,653.806 2675.05,655.498 2667.5,655.498 C2661.9,655.498 2659.1,653.092 2659.1,648.28 C2659.1,646.134 2659.76,643.464 2661.1,640.272 C2662.43,637.079 2664.27,634.67 2666.61,633.045 C2671.63,629.66 2677.92,627.967 2685.47,627.967"/>
<path class="Note" d="M2043.83,652.373 C2045.72,652.373 2049.67,650.42 2055.7,646.514 C2061.72,642.608 2065.27,639.988 2066.35,638.655 C2067.42,637.321 2067.96,636.134 2067.96,635.092 C2067.96,634.05 2067.53,633.123 2066.68,632.311 C2065.83,631.498 2064.86,631.092 2063.75,631.092 C2061.8,631.092 2057.82,633.061 2051.79,636.998 C2045.77,640.936 2042.23,643.556 2041.19,644.858 C2040.15,646.16 2039.63,647.332 2039.63,648.373 C2039.63,649.415 2040.04,650.342 2040.85,651.155 C2041.67,651.967 2042.66,652.373 2043.83,652.373 M2062.78,627.967 C2068.38,627.967 2071.17,630.373 2071.17,635.186 C2071.17,637.53 2070.49,640.248 2069.13,643.342 C2067.76,646.436 2065.94,648.795 2063.66,650.42 C2058.65,653.806 2052.37,655.498 2044.81,655.498 C2039.21,655.498 2036.41,653.092 2036.41,648.28 C2036.41,646.134 2037.08,643.464 2038.41,640.272 C2039.74,637.079 2041.58,634.67 2043.92,633.045 C2048.95,629.66 2055.23,627.967 2062.78,627.967"/>
<path class="Note" d="M1903.11,589.873 C1905,589.873 1908.95,587.92 1914.98,584.014 C1921,580.108 1924.55,577.488 1925.63,576.155 C1926.7,574.821 1927.23,573.634 1927.23,572.592 C1927.23,571.55 1926.81,570.623 1925.96,569.811 C1925.11,568.998 1924.14,568.592 1923.03,568.592 C1921.08,568.592 1917.1,570.561 1911.07,574.498 C1905.04,578.436 1901.51,581.056 1900.47,582.358 C1899.43,583.66 1898.91,584.832 1898.91,585.873 C1898.91,586.915 1899.32,587.842 1900.13,588.655 C1900.95,589.467 1901.94,589.873 1903.11,589.873 M1922.06,565.467 C1927.66,565.467 1930.45,567.873 1930.45,572.686 C1930.45,575.03 1929.77,577.748 1928.41,580.842 C1927.04,583.936 1925.22,586.295 1922.94,587.92 C1917.93,591.306 1911.65,592.998 1904.09,592.998 C1898.49,592.998 1895.69,590.592 1895.69,585.78 C1895.69,583.634 1896.35,580.964 1897.69,577.772 C1899.02,574.579 1900.86,572.17 1903.2,570.545 C1908.22,567.16 1914.51,565.467 1922.06,565.467"/>
<path class="Note" d="M1732.49,652.373 C1734.37,652.373 1738.33,650.42 1744.35,646.514 C1750.38,642.608 1753.93,639.988 1755,638.655 C1756.08,637.321 1756.61,636.134 1756.61,635.092 C1756.61,634.05 1756.19,633.123 1755.34,632.311 C1754.49,631.498 1753.51,631.092 1752.41,631.092 C1750.46,631.092 1746.47,633.061 1740.45,636.998 C1734.42,640.936 1730.89,643.556 1729.85,644.858 C1728.8,646.16 1728.28,647.332 1728.28,648.373 C1728.28,649.415 1728.69,650.342 1729.51,651.155 C1730.33,651.967 1731.32,652.373 1732.49,652.373 M1751.44,627.967 C1757.03,627.967 1759.83,630.373 1759.83,635.186 C1759.83,637.53 1759.15,640.248 1757.78,643.342 C1756.42,646.436 1754.6,648.795 1752.32,650.42 C1747.3,653.806 1741.02,655.498 1733.47,655.498 C1727.87,655.498 1725.07,653.092 1725.07,648.28 C1725.07,646.134 1725.73,643.464 1727.07,640.272 C1728.4,637.079 1730.24,634.67 1732.58,633.045 C1737.6,629.66 1743.89,627.967 1751.44,627.967"/>
<path class="Note" d="M1591.77,577.373 C1593.65,577.373 1597.61,575.42 1603.63,571.514 C1609.66,567.608 1613.21,564.988 1614.28,563.655 C1615.35,562.321 1615.89,561.134 1615.89,560.092 C1615.89,559.05 1615.47,558.123 1614.62,557.311 C1613.77,556.498 1612.79,556.092 1611.69,556.092 C1609.74,556.092 1605.75,558.061 1599.73,561.998 C1593.7,565.936 1590.17,568.556 1589.13,569.858 C1588.08,571.16 1587.56,572.332 1587.56,573.373 C1587.56,574.415 1587.97,575.342 1588.79,576.155 C1589.61,576.967 1590.6,577.373 1591.77,577.373 M1610.72,552.967 C1616.31,552.967 1619.11,555.373 1619.11,560.186 C1619.11,562.53 1618.43,565.248 1617.06,568.342 C1615.7,571.436 1613.88,573.795 1611.59,575.42 C1606.58,578.806 1600.3,580.498 1592.75,580.498 C1587.15,580.498 1584.34,578.092 1584.34,573.28 C1584.34,571.134 1585.01,568.464 1586.34,565.272 C1587.68,562.079 1589.52,559.67 1591.86,558.045 C1596.88,554.66 1603.17,552.967 1610.72,552.967"/>
<path class="Note" d="M1421.14,652.373 C1423.03,652.373 1426.98,650.42 1433.01,646.514 C1439.04,642.608 1442.59,639.988 1443.66,638.655 C1444.73,637.321 1445.27,636.134 1445.27,635.092 C1445.27,634.05 1444.84,633.123 1444,632.311 C1443.15,631.498 1442.17,631.092 1441.07,631.092 C1439.12,631.092 1435.13,633.061 1429.1,636.998 C1423.08,640.936 1419.54,643.556 1418.5,644.858 C1417.46,646.16 1416.94,647.332 1416.94,648.373 C1416.94,649.415 1417.35,650.342 1418.17,651.155 C1418.98,651.967 1419.98,652.373 1421.14,652.373 M1440.1,627.967 C1445.69,627.967 1448.49,630.373 1448.49,635.186 C1448.49,637.53 1447.8,640.248 1446.44,643.342 C1445.08,646.436 1443.25,648.795 1440.97,650.42 C1435.96,653.806 1429.68,655.498 1422.13,655.498 C1416.52,655.498 1413.72,653.092 1413.72,648.28 C1413.72,646.134 1414.39,643.464 1415.72,640.272 C1417.05,637.079 1418.89,634.67 1421.24,633.045 C1426.26,629.66 1432.54,627.967 1440.1,627.967"/>
<path class="Note" d="M1109.8,652.373 C1111.69,652.373 1115.64,650.42 1121.67,646.514 C1127.69,642.608 1131.24,639.988 1132.32,638.655 C1133.39,637.321 1133.93,636.134 1133.93,635.092 C1133.93,634.05 1133.5,633.123 1132.65,632.311 C1131.8,631.498 1130.83,631.092 1129.72,631.092 C1127.77,631.092 1123.79,633.061 1117.76,636.998 C1111.73,640.936 1108.2,643.556 1107.16,644.858 C1106.12,646.16 1105.6,647.332 1105.6,648.373 C1105.6,649.415 1106.01,650.342 1106.82,651.155 C1107.64,651.967 1108.63,652.373 1109.8,652.373 M1128.75,627.967 C1134.35,627.967 1137.14,630.373 1137.14,635.186 C1137.14,637.53 1136.46,640.248 1135.1,643.342 C1133.73,646.436 1131.91,648.795 1129.63,650.42 C1124.62,653.806 1118.34,655.498 1110.78,655.498 C1105.18,655.498 1102.38,653.092 1102.38,648.28 C1102.38,646.134 1103.04,643.464 1104.38,640.272 C1105.71,637.079 1107.55,634.67 1109.89,633.045 C1114.91,629.66 1121.2,627.967 1128.75,627.967"/>
<path class="Note" d="M969.08,552.373 C970.965,552.373 974.921,550.42 980.947,546.514 C986.973,542.608 990.522,539.988 991.595,538.654 C992.668,537.321 993.205,536.134 993.205,535.092 C993.205,534.05 992.78,533.123 991.931,532.311 C991.082,531.498 990.106,531.092 989.001,531.092 C987.053,531.092 983.067,533.061 977.04,536.998 C971.014,540.936 967.481,543.556 966.439,544.858 C965.397,546.16 964.876,547.332 964.876,548.373 C964.876,549.415 965.285,550.342 966.103,551.154 C966.921,551.967 967.913,552.373 969.08,552.373 M988.033,527.967 C993.626,527.967 996.423,530.373 996.423,535.186 C996.423,537.529 995.741,540.248 994.376,543.342 C993.012,546.436 991.189,548.795 988.908,550.42 C983.897,553.806 977.616,555.498 970.064,555.498 C964.46,555.498 961.658,553.092 961.658,548.279 C961.658,546.134 962.324,543.464 963.658,540.272 C964.991,537.079 966.83,534.67 969.173,533.045 C974.194,529.66 980.481,527.967 988.033,527.967"/>
<path class="Note" d="M798.457,652.373 C800.342,652.373 804.298,650.42 810.324,646.514 C816.35,642.608 819.899,639.988 820.972,638.655 C822.045,637.321 822.582,636.134 822.582,635.092 C822.582,634.05 822.157,633.123 821.308,632.311 C820.459,631.498 819.483,631.092 818.379,631.092 C816.431,631.092 812.444,633.061 806.418,636.998 C800.392,640.936 796.858,643.556 795.816,644.858 C794.774,646.16 794.254,647.332 794.254,648.373 C794.254,649.415 794.662,650.342 795.48,651.155 C796.298,651.967 797.29,652.373 798.457,652.373 M817.41,627.967 C823.004,627.967 825.8,630.373 825.8,635.186 C825.8,637.53 825.118,640.248 823.754,643.342 C822.389,646.436 820.566,648.795 818.285,650.42 C813.274,653.806 806.993,655.498 799.441,655.498 C793.837,655.498 791.035,653.092 791.035,648.28 C791.035,646.134 791.701,643.464 793.035,640.272 C794.368,637.079 796.207,634.67 798.55,633.045 C803.571,629.66 809.858,627.967 817.41,627.967"/>
<path class="Note" d="M657.736,539.873 C659.622,539.873 663.577,537.92 669.603,534.014 C675.629,530.108 679.179,527.488 680.252,526.154 C681.325,524.821 681.861,523.634 681.861,522.592 C681.861,521.55 681.437,520.623 680.588,519.811 C679.739,518.998 678.762,518.592 677.658,518.592 C675.71,518.592 671.723,520.561 665.697,524.498 C659.671,528.436 656.137,531.056 655.095,532.358 C654.054,533.66 653.533,534.832 653.533,535.873 C653.533,536.915 653.942,537.842 654.76,538.654 C655.577,539.467 656.569,539.873 657.736,539.873 M676.689,515.467 C682.283,515.467 685.08,517.873 685.08,522.686 C685.08,525.029 684.398,527.748 683.033,530.842 C681.668,533.936 679.845,536.295 677.564,537.92 C672.554,541.306 666.273,542.998 658.72,542.998 C653.116,542.998 650.314,540.592 650.314,535.779 C650.314,533.634 650.981,530.964 652.314,527.772 C653.648,524.579 655.486,522.17 657.83,520.545 C662.851,517.16 669.137,515.467 676.689,515.467"/>
<path class="Note" d="M487.113,652.373 C488.999,652.373 492.954,650.42 498.98,646.514 C505.006,642.608 508.556,639.988 509.629,638.655 C510.702,637.321 511.238,636.134 511.238,635.092 C511.238,634.05 510.814,633.123 509.965,632.311 C509.116,631.498 508.139,631.092 507.035,631.092 C505.087,631.092 501.1,633.061 495.074,636.998 C489.048,640.936 485.514,643.556 484.473,644.858 C483.431,646.16 482.91,647.332 482.91,648.373 C482.91,649.415 483.319,650.342 484.137,651.155 C484.954,651.967 485.947,652.373 487.113,652.373 M506.066,627.967 C511.66,627.967 514.457,630.373 514.457,635.186 C514.457,637.53 513.775,640.248 512.41,643.342 C511.045,646.436 509.223,648.795 506.941,650.42 C501.931,653.806 495.65,655.498 488.098,655.498 C482.493,655.498 479.691,653.092 479.691,648.28 C479.691,646.134 480.358,643.464 481.691,640.272 C483.025,637.079 484.863,634.67 487.207,633.045 C492.228,629.66 498.514,627.967 506.066,627.967"/>
<path class="Note" d="M346.393,527.373 C348.278,527.373 352.234,525.42 358.26,521.514 C364.286,517.608 367.835,514.988 368.908,513.654 C369.981,512.321 370.518,511.134 370.518,510.092 C370.518,509.05 370.093,508.123 369.244,507.311 C368.395,506.498 367.419,506.092 366.315,506.092 C364.367,506.092 360.38,508.061 354.354,511.998 C348.328,515.936 344.794,518.556 343.752,519.858 C342.71,521.16 342.19,522.332 342.19,523.373 C342.19,524.415 342.598,525.342 343.416,526.154 C344.234,526.967 345.226,527.373 346.393,527.373 M365.346,502.967 C370.94,502.967 373.736,505.373 373.736,510.186 C373.736,512.529 373.054,515.248 371.69,518.342 C370.325,521.436 368.502,523.795 366.221,525.42 C361.21,528.806 354.929,530.498 347.377,530.498 C341.773,530.498 338.971,528.092 338.971,523.279 C338.971,521.134 339.637,518.464 340.971,515.272 C342.304,512.079 344.143,509.67 346.486,508.045 C351.507,504.66 357.794,502.967 365.346,502.967"/>
<path class="Clef" d="M203.623,673.858 L203.623,671.717 C203.56,670.613 203.399,668.889 203.139,666.545 C199.889,667.066 196.993,667.326 194.451,667.326 C185.337,667.326 177.605,663.727 171.256,656.53 C164.907,649.332 161.732,640.754 161.732,630.795 C161.732,628.129 162.253,624.923 163.295,621.178 C164.337,617.433 165.297,614.925 166.178,613.655 C167.058,612.384 168.378,610.155 170.139,606.967 C170.659,605.988 172.352,603.837 175.217,600.514 C175.738,599.806 176.193,599.222 176.584,598.764 C176.975,598.306 177.607,597.49 178.482,596.319 C179.357,595.147 180.3,594.056 181.31,593.045 C182.321,592.035 183.217,591.058 183.998,590.115 C184.779,589.173 185.498,588.379 186.154,587.733 C183.81,579.983 182.378,574.024 181.857,569.858 C181.337,565.691 181.076,560.579 181.076,554.522 C181.076,548.464 182.378,542.962 184.982,538.014 C187.514,532.879 191.06,528.681 195.623,525.42 C195.883,525.222 196.225,525.123 196.646,525.123 C197.068,525.123 197.378,525.222 197.576,525.42 C201.087,529.649 204.128,535.149 206.701,541.92 C209.274,548.691 210.56,555.024 210.56,560.92 C210.56,566.816 209.066,572.498 206.076,577.967 C202.691,583.759 198.326,589.748 192.982,595.936 C194.347,600.227 196.17,606.962 198.451,616.139 L199.045,616.139 C199.305,616.076 199.529,616.045 199.717,616.045 C207.081,616.045 213.089,618.634 217.74,623.811 C222.391,628.988 224.717,634.962 224.717,641.733 C224.717,650.129 221.238,656.899 214.279,662.045 C212.258,663.545 209.878,664.717 207.139,665.561 C207.472,669.79 207.639,672.605 207.639,674.006 C207.639,675.407 207.571,677.899 207.435,681.483 C207.373,687.597 205.29,692.837 201.185,697.201 C197.081,701.566 192.394,703.748 187.123,703.748 C181.852,703.748 177.36,701.876 173.646,698.131 C169.933,694.386 168.076,689.847 168.076,684.514 C168.076,681.712 169.154,679.332 171.31,677.373 C173.519,675.425 176.006,674.451 178.771,674.451 C181.537,674.451 183.8,675.462 185.56,677.483 C187.383,679.368 188.295,681.644 188.295,684.311 C188.295,686.977 187.383,689.222 185.56,691.045 C183.738,692.868 181.555,693.78 179.014,693.78 C177.972,693.78 176.967,693.587 175.998,693.201 C178.863,697.431 182.54,699.545 187.029,699.545 C191.519,699.545 195.36,697.691 198.553,693.983 C201.745,690.274 203.342,685.91 203.342,680.889 L203.623,673.858 M206.748,661.561 C210.133,660.321 212.821,658.123 214.81,654.967 C216.8,651.811 217.795,648.67 217.795,645.545 C217.795,640.92 216.199,636.785 213.006,633.139 C209.813,629.493 205.774,627.441 200.889,626.983 C203.691,640.722 205.644,652.248 206.748,661.561 M168.967,638.998 C168.967,645.446 171.537,651.079 176.678,655.897 C181.818,660.714 187.842,663.123 194.748,663.123 C197.477,663.123 200.144,662.925 202.748,662.53 C201.706,652.634 199.654,640.785 196.592,626.983 C192.758,627.379 189.782,628.699 187.662,630.944 C185.542,633.188 184.482,635.743 184.482,638.608 C184.482,643.556 187.123,647.561 192.404,650.623 C192.852,650.884 193.076,651.324 193.076,651.944 C193.076,652.563 192.865,653.1 192.443,653.553 C192.021,654.006 191.649,654.233 191.326,654.233 C191.003,654.233 190.581,654.17 190.06,654.045 C182.435,649.879 178.623,643.592 178.623,635.186 C178.623,631.217 180.024,627.41 182.826,623.764 C185.753,620.118 189.56,617.774 194.248,616.733 C192.425,609.441 190.93,603.743 189.764,599.639 C180.847,609.67 175.31,617.092 173.154,621.905 C170.363,628.155 168.967,633.852 168.967,638.998 M201.576,539.686 C196.691,542.092 192.834,545.574 190.006,550.131 C187.178,554.688 185.764,559.472 185.764,564.483 C185.764,569.493 186.935,575.972 189.279,583.92 C193.967,578.254 197.514,572.946 199.92,567.998 C202.326,563.05 203.529,558.152 203.529,553.303 C203.529,548.454 202.878,543.915 201.576,539.686"/>
<path class="TimeSig" d="M273.021,567.912 C274.516,567.912 275.949,567.686 277.318,567.233 C278.688,566.78 279.665,566.553 280.248,566.553 C280.831,566.553 281.222,566.907 281.42,567.615 C281.42,567.688 281.352,567.886 281.217,568.209 L252.811,601.225 L269.498,601.225 L269.498,588.131 C269.498,586.506 270.446,585.334 272.342,584.615 C274.29,583.897 276.503,581.001 278.982,575.928 C279.17,575.532 279.462,575.334 279.857,575.334 C280.639,575.334 281.092,575.793 281.217,576.709 L281.217,601.225 L288.357,601.225 C289.264,601.225 289.751,601.712 289.818,602.686 C289.886,603.66 289.399,604.147 288.357,604.147 L281.217,604.147 L281.217,604.928 C281.217,607.532 281.868,609.746 283.17,611.569 C284.67,613.391 286.43,614.303 288.451,614.303 C289.232,614.303 289.623,614.694 289.623,615.475 C289.623,616.256 289.087,616.647 288.014,616.647 C286.941,616.647 284.938,616.436 282.006,616.014 C279.074,615.592 276.811,615.381 275.217,615.381 C273.623,615.381 271.41,615.592 268.576,616.014 C265.743,616.436 263.613,616.647 262.186,616.647 C261.404,616.647 261.014,616.256 261.014,615.475 C261.014,614.694 261.404,614.303 262.186,614.303 C264.196,614.303 265.951,613.391 267.451,611.569 C268.816,609.683 269.498,607.47 269.498,604.928 L269.498,604.147 L252.811,604.147 C251.956,604.147 251.219,603.92 250.6,603.467 C249.98,603.014 249.67,602.592 249.67,602.201 C249.67,601.811 250.485,600.639 252.115,598.686 C253.745,596.733 256.074,592.972 259.1,587.405 C262.126,581.837 263.639,575.438 263.639,568.209 C263.639,567.168 264.097,566.647 265.014,566.647 C265.212,566.647 265.521,566.712 265.943,566.842 C266.365,566.972 267.277,567.183 268.678,567.475 C270.079,567.766 271.527,567.912 273.021,567.912"/>
<path class="TimeSig" d="M273.021,618.084 C274.516,618.084 275.949,617.858 277.318,617.405 C278.688,616.951 279.665,616.725 280.248,616.725 C280.831,616.725 281.222,617.079 281.42,617.787 C281.42,617.86 281.352,618.058 281.217,618.381 L252.811,651.397 L269.498,651.397 L269.498,638.303 C269.498,636.678 270.446,635.506 272.342,634.787 C274.29,634.069 276.503,631.173 278.982,626.1 C279.17,625.704 279.462,625.506 279.857,625.506 C280.639,625.506 281.092,625.964 281.217,626.881 L281.217,651.397 L288.357,651.397 C289.264,651.397 289.751,651.884 289.818,652.858 C289.886,653.832 289.399,654.319 288.357,654.319 L281.217,654.319 L281.217,655.1 C281.217,657.704 281.868,659.918 283.17,661.74 C284.67,663.563 286.43,664.475 288.451,664.475 C289.232,664.475 289.623,664.865 289.623,665.647 C289.623,666.428 289.087,666.819 288.014,666.819 C286.941,666.819 284.938,666.608 282.006,666.186 C279.074,665.764 276.811,665.553 275.217,665.553 C273.623,665.553 271.41,665.764 268.576,666.186 C265.743,666.608 263.613,666.819 262.186,666.819 C261.404,666.819 261.014,666.428 261.014,665.647 C261.014,664.865 261.404,664.475 262.186,664.475 C264.196,664.475 265.951,663.563 267.451,661.74 C268.816,659.855 269.498,657.642 269.498,655.1 L269.498,654.319 L252.811,654.319 C251.956,654.319 251.219,654.092 250.6,653.639 C249.98,653.186 249.67,652.764 249.67,652.373 C249.67,651.983 250.485,650.811 252.115,648.858 C253.745,646.905 256.074,643.144 259.1,637.576 C262.126,632.009 263.639,625.61 263.639,618.381 C263.639,617.339 264.097,616.819 265.014,616.819 C265.212,616.819 265.521,616.884 265.943,617.014 C266.365,617.144 267.277,617.355 268.678,617.647 C270.079,617.938 271.527,618.084 273.021,618.084"/>
</svg>
