<?xml version="1.0" encoding="UTF-8" standalone="no"?>
<svg width="2977.2px" height="4208.4px" viewBox="0 0 2977.2 4208.4"
 xmlns="http://www.w3.org/2000/svg" xmlns:xlink="http://www.w3.org/1999/xlink" version="1.2" baseProfile="tiny">
<title>Theme_From_Symphony_N_40_C.mscx (2)</title>
<desc>Generated by MuseScore Studio 4.3.1</desc>
<path class="" fill="#ffffff" fill-rule="evenodd" d="M0,0 L2977.2,0 L2977.2,4208.4 L0,4208.4 L0,0 "/>
<polyline class="StaffLines" fill="none" stroke="#000000" stroke-width="2.00" stroke-linejoin="bevel" points="141.732,316.732 2835.47,316.732"/>
<polyline class="StaffLines" fill="none" stroke="#000000" stroke-width="2.00" stroke-linejoin="bevel" points="141.732,341.732 2835.47,341.732"/>
<polyline class="StaffLines" fill="none" stroke="#000000" stroke-width="2.00" stroke-linejoin="bevel" points="141.732,366.733 2835.47,366.733"/>
<polyline class="StaffLines" fill="none" stroke="#000000" stroke-width="2.00" stroke-linejoin="bevel" points="141.732,391.733 2835.47,391.733"/>
<polyline class="StaffLines" fill="none" stroke="#000000" stroke-width="2.00" stroke-linejoin="bevel" points="141.732,416.733 2835.47,416.733"/>
<path class="MeasureNumber" d="M140.685,240.264 L140.685,240.889 L132.217,267.045 L129.607,267.045 L137.529,243.17 L128.857,243.17 C127.764,243.17 126.93,243.37 126.357,243.772 C125.784,244.173 125.071,245.055 124.217,246.42 L123.529,246.107 L125.889,240.264 L140.685,240.264 M160.67,240.264 L160.67,240.889 L152.201,267.045 L149.592,267.045 L157.514,243.17 L148.842,243.17 C147.748,243.17 146.915,243.37 146.342,243.772 C145.769,244.173 145.055,245.055 144.201,246.42 L143.514,246.107 L145.873,240.264 L160.67,240.264 "/>
<path class="TieSegment" stroke="#000000" stroke-width="1.75" stroke-linecap="round" stroke-linejoin="round" fill-rule="evenodd" d="M899.289,235.459 C918.403,213.358 975.745,213.358 994.858,235.459 C975.745,217.358 918.403,217.358 899.289,235.459"/>
<path class="TieSegment" stroke="#000000" stroke-width="1.75" stroke-linecap="round" stroke-linejoin="round" fill-rule="evenodd" d="M306.189,335.459 C335.36,301.905 422.872,301.905 452.043,335.459 C422.872,305.905 335.36,305.905 306.189,335.459"/>
<polyline class="BarLine" fill="none" stroke="#000000" stroke-width="4.00" stroke-linejoin="bevel" points="2802.72,315.732 2802.72,417.733"/>
<polyline class="BarLine" fill="none" stroke="#000000" stroke-width="12.50" stroke-linejoin="bevel" points="2829.22,315.732 2829.22,417.733"/>
<polyline class="BarLine" fill="none" stroke="#000000" stroke-width="4.00" stroke-linejoin="bevel" points="1217.56,315.732 1217.56,417.733"/>
<polyline class="BarLine" fill="none" stroke="#000000" stroke-width="4.00" stroke-linejoin="bevel" points="2547.44,315.732 2547.44,417.733"/>
<polyline class="BarLine" fill="none" stroke="#000000" stroke-width="4.00" stroke-linejoin="bevel" points="2291.25,315.732 2291.25,417.733"/>
<polyline class="BarLine" fill="none" stroke="#000000" stroke-width="4.00" stroke-linejoin="bevel" points="1718.53,315.732 1718.53,417.733"/>
<polyline class="BarLine" fill="none" stroke="#000000" stroke-width="4.00" stroke-linejoin="bevel" points="719.24,315.732 719.24,417.733"/>
<path class="Accidental" d="M575.726,282.264 C577.164,281.868 577.882,282.222 577.882,283.326 L577.882,291.139 C577.882,291.92 577.262,292.54 576.023,292.998 L572.804,294.264 L572.804,308.436 L575.726,307.264 C577.164,306.868 577.882,307.227 577.882,308.342 L577.882,316.154 C577.882,316.936 577.262,317.55 576.023,317.998 L572.804,319.279 L572.804,335.482 C572.804,336.722 572.315,337.342 571.335,337.342 C570.356,337.342 569.867,336.722 569.867,335.482 L569.867,320.451 L560.585,324.154 L560.585,340.264 C560.585,341.503 560.098,342.123 559.124,342.123 C558.15,342.123 557.664,341.503 557.664,340.264 L557.664,325.326 L555.117,326.404 C553.752,326.988 553.07,326.597 553.07,325.232 L553.07,317.514 C553.07,316.868 553.658,316.285 554.835,315.764 L557.664,314.592 L557.664,300.326 L555.117,301.404 C553.752,301.988 553.07,301.597 553.07,300.232 L553.07,292.514 C553.07,291.857 553.658,291.269 554.835,290.748 L557.664,289.576 L557.664,273.467 C557.664,272.227 558.15,271.607 559.124,271.607 C560.098,271.607 560.585,272.227 560.585,273.467 L560.585,288.404 L569.867,284.607 L569.867,268.686 C569.867,267.446 570.356,266.826 571.335,266.826 C572.315,266.826 572.804,267.446 572.804,268.686 L572.804,283.436 L575.726,282.264 M560.585,299.154 L560.585,313.42 L569.867,309.607 L569.867,295.436 L560.585,299.154 "/>
<path class="Accidental" d="M629.96,324.545 C628.783,324.868 628.194,324.415 628.194,323.186 L628.194,268.482 C628.194,267.118 628.715,266.436 629.756,266.436 C630.798,266.436 631.319,267.118 631.319,268.482 L631.319,288.311 L642.85,283.92 C644.017,283.597 644.6,284.05 644.6,285.279 L644.6,339.982 C644.6,341.347 644.079,342.029 643.038,342.029 C641.996,342.029 641.475,341.347 641.475,339.982 L641.475,320.154 L629.96,324.545 M631.319,313.311 L641.475,309.404 L641.475,295.154 L631.319,299.061 L631.319,313.311 "/>
<path class="Accidental" d="M1879.56,282.264 C1880.99,281.868 1881.71,282.222 1881.71,283.326 L1881.71,291.139 C1881.71,291.92 1881.09,292.54 1879.85,292.998 L1876.63,294.264 L1876.63,308.436 L1879.56,307.264 C1880.99,306.868 1881.71,307.227 1881.71,308.342 L1881.71,316.154 C1881.71,316.936 1881.09,317.55 1879.85,317.998 L1876.63,319.279 L1876.63,335.482 C1876.63,336.722 1876.15,337.342 1875.17,337.342 C1874.19,337.342 1873.7,336.722 1873.7,335.482 L1873.7,320.451 L1864.42,324.154 L1864.42,340.264 C1864.42,341.503 1863.93,342.123 1862.95,342.123 C1861.98,342.123 1861.49,341.503 1861.49,340.264 L1861.49,325.326 L1858.95,326.404 C1857.58,326.988 1856.9,326.597 1856.9,325.232 L1856.9,317.514 C1856.9,316.868 1857.49,316.285 1858.67,315.764 L1861.49,314.592 L1861.49,300.326 L1858.95,301.404 C1857.58,301.988 1856.9,301.597 1856.9,300.232 L1856.9,292.514 C1856.9,291.857 1857.49,291.269 1858.67,290.748 L1861.49,289.576 L1861.49,273.467 C1861.49,272.227 1861.98,271.607 1862.95,271.607 C1863.93,271.607 1864.42,272.227 1864.42,273.467 L1864.42,288.404 L1873.7,284.607 L1873.7,268.686 C1873.7,267.446 1874.19,266.826 1875.17,266.826 C1876.15,266.826 1876.63,267.446 1876.63,268.686 L1876.63,283.436 L1879.56,282.264 M1864.42,299.154 L1864.42,313.42 L1873.7,309.607 L1873.7,295.436 L1864.42,299.154 "/>
<polyline class="LedgerLine" fill="none" stroke="#000000" stroke-width="4.00" stroke-linejoin="bevel" points="1139.02,291.732 1190.93,291.732"/>
<polyline class="LedgerLine" fill="none" stroke="#000000" stroke-width="4.00" stroke-linejoin="bevel" points="2078.62,266.732 2130.53,266.732"/>
<polyline class="LedgerLine" fill="none" stroke="#000000" stroke-width="4.00" stroke-linejoin="bevel" points="1139.02,266.732 1190.93,266.732"/>
<polyline class="LedgerLine" fill="none" stroke="#000000" stroke-width="4.00" stroke-linejoin="bevel" points="2308.75,291.732 2362.47,291.732"/>
<polyline class="LedgerLine" fill="none" stroke="#000000" stroke-width="4.00" stroke-linejoin="bevel" points="1304.75,291.732 1356.66,291.732"/>
<polyline class="LedgerLine" fill="none" stroke="#000000" stroke-width="4.00" stroke-linejoin="bevel" points="1304.75,266.732 1356.66,266.732"/>
<polyline class="LedgerLine" fill="none" stroke="#000000" stroke-width="4.00" stroke-linejoin="bevel" points="1405.32,291.732 1457.23,291.732"/>
<polyline class="LedgerLine" fill="none" stroke="#000000" stroke-width="4.00" stroke-linejoin="bevel" points="1539.41,291.732 1591.32,291.732"/>
<polyline class="LedgerLine" fill="none" stroke="#000000" stroke-width="4.00" stroke-linejoin="bevel" points="1539.41,266.732 1591.32,266.732"/>
<polyline class="LedgerLine" fill="none" stroke="#000000" stroke-width="4.00" stroke-linejoin="bevel" points="1639.98,291.732 1691.89,291.732"/>
<polyline class="LedgerLine" fill="none" stroke="#000000" stroke-width="4.00" stroke-linejoin="bevel" points="1639.98,266.732 1691.89,266.732"/>
<polyline class="LedgerLine" fill="none" stroke="#000000" stroke-width="4.00" stroke-linejoin="bevel" points="2212.71,291.732 2264.62,291.732"/>
<polyline class="LedgerLine" fill="none" stroke="#000000" stroke-width="4.00" stroke-linejoin="bevel" points="2145.66,266.732 2197.58,266.732"/>
<polyline class="LedgerLine" fill="none" stroke="#000000" stroke-width="4.00" stroke-linejoin="bevel" points="1944.52,291.732 1996.44,291.732"/>
<polyline class="LedgerLine" fill="none" stroke="#000000" stroke-width="4.00" stroke-linejoin="bevel" points="2011.57,291.732 2063.48,291.732"/>
<polyline class="LedgerLine" fill="none" stroke="#000000" stroke-width="4.00" stroke-linejoin="bevel" points="2011.57,266.732 2063.48,266.732"/>
<polyline class="LedgerLine" fill="none" stroke="#000000" stroke-width="4.00" stroke-linejoin="bevel" points="1405.32,266.732 1457.23,266.732"/>
<polyline class="LedgerLine" fill="none" stroke="#000000" stroke-width="4.00" stroke-linejoin="bevel" points="2145.66,291.732 2197.58,291.732"/>
<polyline class="LedgerLine" fill="none" stroke="#000000" stroke-width="4.00" stroke-linejoin="bevel" points="2011.57,241.732 2063.48,241.732"/>
<polyline class="LedgerLine" fill="none" stroke="#000000" stroke-width="4.00" stroke-linejoin="bevel" points="2078.62,291.732 2130.53,291.732"/>
<polyline class="LedgerLine" fill="none" stroke="#000000" stroke-width="4.00" stroke-linejoin="bevel" points="971.401,266.732 1023.32,266.732"/>
<polyline class="LedgerLine" fill="none" stroke="#000000" stroke-width="4.00" stroke-linejoin="bevel" points="870.832,266.732 922.746,266.732"/>
<polyline class="LedgerLine" fill="none" stroke="#000000" stroke-width="4.00" stroke-linejoin="bevel" points="495.632,291.732 547.546,291.732"/>
<polyline class="LedgerLine" fill="none" stroke="#000000" stroke-width="4.00" stroke-linejoin="bevel" points="870.832,291.732 922.746,291.732"/>
<polyline class="LedgerLine" fill="none" stroke="#000000" stroke-width="4.00" stroke-linejoin="bevel" points="971.401,291.732 1023.32,291.732"/>
<polyline class="LedgerLine" fill="none" stroke="#000000" stroke-width="4.00" stroke-linejoin="bevel" points="803.786,291.732 855.7,291.732"/>
<polyline class="LedgerLine" fill="none" stroke="#000000" stroke-width="4.00" stroke-linejoin="bevel" points="1038.45,291.732 1090.36,291.732"/>
<polyline class="LedgerLine" fill="none" stroke="#000000" stroke-width="4.00" stroke-linejoin="bevel" points="1038.45,266.732 1090.36,266.732"/>
<polyline class="Stem" fill="none" stroke="#000000" stroke-width="3.25" stroke-linejoin="bevel" points="1955.65,285.102 1955.65,410.554"/>
<polyline class="Stem" fill="none" stroke="#000000" stroke-width="3.25" stroke-linejoin="bevel" points="814.911,297.602 814.911,388.608"/>
<polyline class="Stem" fill="none" stroke="#000000" stroke-width="3.25" stroke-linejoin="bevel" points="651.819,310.102 651.819,410.671"/>
<polyline class="Stem" fill="none" stroke="#000000" stroke-width="3.25" stroke-linejoin="bevel" points="1888.6,310.102 1888.6,413.504"/>
<polyline class="Stem" fill="none" stroke="#000000" stroke-width="3.25" stroke-linejoin="bevel" points="2223.83,285.102 2223.83,366.683"/>
<polyline class="Stem" fill="none" stroke="#000000" stroke-width="3.25" stroke-linejoin="bevel" points="1816.84,335.102 1816.84,416.661"/>
<polyline class="Stem" fill="none" stroke="#000000" stroke-width="3.25" stroke-linejoin="bevel" points="2156.79,272.602 2156.79,364.633"/>
<polyline class="Stem" fill="none" stroke="#000000" stroke-width="3.25" stroke-linejoin="bevel" points="2089.74,260.102 2089.74,362.582"/>
<polyline class="Stem" fill="none" stroke="#000000" stroke-width="3.25" stroke-linejoin="bevel" points="2022.7,247.602 2022.7,360.532"/>
<polyline class="Stem" fill="none" stroke="#000000" stroke-width="3.25" stroke-linejoin="bevel" points="584.773,310.102 584.773,418.454"/>
<polyline class="Stem" fill="none" stroke="#000000" stroke-width="3.25" stroke-linejoin="bevel" points="881.957,260.102 881.957,385.556"/>
<polyline class="Stem" fill="none" stroke="#000000" stroke-width="3.25" stroke-linejoin="bevel" points="1651.1,272.602 1651.1,360.482"/>
<polyline class="Stem" fill="none" stroke="#000000" stroke-width="3.25" stroke-linejoin="bevel" points="747.865,322.602 747.865,391.659"/>
<polyline class="Stem" fill="none" stroke="#000000" stroke-width="3.25" stroke-linejoin="bevel" points="1150.14,260.102 1150.14,360.482"/>
<polyline class="Stem" fill="none" stroke="#000000" stroke-width="3.25" stroke-linejoin="bevel" points="1550.54,272.602 1550.54,360.482"/>
<polyline class="Stem" fill="none" stroke="#000000" stroke-width="3.25" stroke-linejoin="bevel" points="506.757,297.602 506.757,427.511"/>
<polyline class="Stem" fill="none" stroke="#000000" stroke-width="3.25" stroke-linejoin="bevel" points="288.857,360.102 288.857,435.483"/>
<polyline class="Stem" fill="none" stroke="#000000" stroke-width="3.25" stroke-linejoin="bevel" points="982.526,260.102 982.526,360.482"/>
<polyline class="Stem" fill="none" stroke="#000000" stroke-width="3.25" stroke-linejoin="bevel" points="1416.44,272.602 1416.44,360.482"/>
<polyline class="Stem" fill="none" stroke="#000000" stroke-width="3.25" stroke-linejoin="bevel" points="2319.88,296.632 2319.88,379.233"/>
<polyline class="Stem" fill="none" stroke="#000000" stroke-width="3.25" stroke-linejoin="bevel" points="1049.57,260.102 1049.57,360.482"/>
<polyline class="Stem" fill="none" stroke="#000000" stroke-width="3.25" stroke-linejoin="bevel" points="439.711,360.102 439.711,435.294"/>
<polyline class="Stem" fill="none" stroke="#000000" stroke-width="3.25" stroke-linejoin="bevel" points="1315.87,272.602 1315.87,360.482"/>
<path class="Note" d="M2110.09,240.467 C2113.21,240.467 2115.81,241.248 2117.9,242.811 C2119.98,244.373 2121.02,246.618 2121.02,249.545 C2121.02,254.035 2118.7,258.232 2114.05,262.139 C2109.4,266.045 2104.4,267.998 2099.05,267.998 C2095.93,267.998 2093.29,267.186 2091.15,265.561 C2089.13,263.8 2088.12,261.587 2088.12,258.92 C2088.12,254.555 2090.43,250.389 2095.05,246.42 C2099.68,242.451 2104.69,240.467 2110.09,240.467"/>
<path class="Note" d="M672.163,290.467 C675.288,290.467 677.892,291.248 679.975,292.811 C682.059,294.373 683.1,296.618 683.1,299.545 C683.1,304.035 680.775,308.232 676.124,312.139 C671.473,316.045 666.475,317.998 661.131,317.998 C658.006,317.998 655.371,317.186 653.225,315.561 C651.204,313.8 650.194,311.587 650.194,308.92 C650.194,304.555 652.506,300.389 657.131,296.42 C661.756,292.451 666.767,290.467 672.163,290.467"/>
<path class="Note" d="M2043.04,227.967 C2046.16,227.967 2048.77,228.748 2050.85,230.311 C2052.94,231.873 2053.98,234.118 2053.98,237.045 C2053.98,241.535 2051.65,245.732 2047,249.639 C2042.35,253.545 2037.35,255.498 2032.01,255.498 C2028.88,255.498 2026.25,254.686 2024.1,253.061 C2022.08,251.3 2021.07,249.087 2021.07,246.42 C2021.07,242.055 2023.38,237.889 2028.01,233.92 C2032.63,229.951 2037.64,227.967 2043.04,227.967"/>
<path class="Note" d="M309.201,340.467 C312.326,340.467 314.93,341.248 317.014,342.811 C319.097,344.373 320.139,346.618 320.139,349.545 C320.139,354.035 317.813,358.232 313.162,362.139 C308.511,366.045 303.514,367.998 298.17,367.998 C295.045,367.998 292.41,367.186 290.264,365.561 C288.243,363.8 287.232,361.587 287.232,358.92 C287.232,354.555 289.545,350.389 294.17,346.42 C298.795,342.451 303.805,340.467 309.201,340.467"/>
<path class="Note" d="M2325.68,302.373 C2327.56,302.373 2331.52,300.42 2337.54,296.514 C2343.57,292.607 2347.12,289.988 2348.19,288.654 C2349.27,287.321 2349.8,286.133 2349.8,285.092 C2349.8,284.05 2349.38,283.123 2348.53,282.311 C2347.68,281.498 2346.7,281.092 2345.6,281.092 C2343.65,281.092 2339.66,283.061 2333.64,286.998 C2327.61,290.936 2324.08,293.555 2323.04,294.857 C2321.99,296.16 2321.47,297.331 2321.47,298.373 C2321.47,299.415 2321.88,300.342 2322.7,301.154 C2323.52,301.967 2324.51,302.373 2325.68,302.373 M2344.63,277.967 C2350.22,277.967 2353.02,280.373 2353.02,285.186 C2353.02,287.529 2352.34,290.248 2350.97,293.342 C2349.61,296.436 2347.79,298.795 2345.5,300.42 C2340.49,303.805 2334.21,305.498 2326.66,305.498 C2321.06,305.498 2318.25,303.092 2318.25,298.279 C2318.25,296.133 2318.92,293.464 2320.25,290.272 C2321.59,287.079 2323.43,284.67 2325.77,283.045 C2330.79,279.66 2337.08,277.967 2344.63,277.967"/>
<path class="Note" d="M605.117,290.467 C608.242,290.467 610.846,291.248 612.929,292.811 C615.012,294.373 616.054,296.618 616.054,299.545 C616.054,304.035 613.729,308.232 609.078,312.139 C604.427,316.045 599.429,317.998 594.085,317.998 C590.96,317.998 588.325,317.186 586.179,315.561 C584.158,313.8 583.148,311.587 583.148,308.92 C583.148,304.555 585.46,300.389 590.085,296.42 C594.71,292.451 599.721,290.467 605.117,290.467"/>
<path class="Note" d="M1908.95,290.467 C1912.07,290.467 1914.68,291.248 1916.76,292.811 C1918.84,294.373 1919.88,296.618 1919.88,299.545 C1919.88,304.035 1917.56,308.232 1912.91,312.139 C1908.26,316.045 1903.26,317.998 1897.92,317.998 C1894.79,317.998 1892.16,317.186 1890.01,315.561 C1887.99,313.8 1886.98,311.587 1886.98,308.92 C1886.98,304.555 1889.29,300.389 1893.92,296.42 C1898.54,292.451 1903.55,290.467 1908.95,290.467"/>
<path class="Note" d="M460.055,340.467 C463.18,340.467 465.784,341.248 467.867,342.811 C469.951,344.373 470.992,346.618 470.992,349.545 C470.992,354.035 468.667,358.232 464.016,362.139 C459.365,366.045 454.367,367.998 449.024,367.998 C445.899,367.998 443.263,367.186 441.117,365.561 C439.097,363.8 438.086,361.587 438.086,358.92 C438.086,354.555 440.399,350.389 445.024,346.42 C449.649,342.451 454.659,340.467 460.055,340.467"/>
<path class="Note" d="M527.101,277.967 C530.226,277.967 532.83,278.748 534.913,280.311 C536.997,281.873 538.038,284.118 538.038,287.045 C538.038,291.535 535.713,295.732 531.062,299.639 C526.411,303.545 521.413,305.498 516.07,305.498 C512.945,305.498 510.309,304.686 508.163,303.061 C506.143,301.3 505.132,299.087 505.132,296.42 C505.132,292.055 507.445,287.889 512.07,283.92 C516.695,279.951 521.705,277.967 527.101,277.967"/>
<path class="Note" d="M2244.18,265.467 C2247.3,265.467 2249.91,266.248 2251.99,267.811 C2254.07,269.373 2255.12,271.618 2255.12,274.545 C2255.12,279.035 2252.79,283.232 2248.14,287.139 C2243.49,291.045 2238.49,292.998 2233.15,292.998 C2230.02,292.998 2227.39,292.186 2225.24,290.561 C2223.22,288.8 2222.21,286.587 2222.21,283.92 C2222.21,279.555 2224.52,275.389 2229.15,271.42 C2233.77,267.451 2238.78,265.467 2244.18,265.467"/>
<path class="Note" d="M2177.13,252.967 C2180.26,252.967 2182.86,253.748 2184.94,255.311 C2187.03,256.873 2188.07,259.118 2188.07,262.045 C2188.07,266.535 2185.74,270.732 2181.09,274.639 C2176.44,278.545 2171.44,280.498 2166.1,280.498 C2162.98,280.498 2160.34,279.686 2158.19,278.061 C2156.17,276.3 2155.16,274.087 2155.16,271.42 C2155.16,267.055 2157.48,262.889 2162.1,258.92 C2166.73,254.951 2171.74,252.967 2177.13,252.967"/>
<path class="Note" d="M835.255,277.967 C838.38,277.967 840.984,278.748 843.067,280.311 C845.151,281.873 846.192,284.118 846.192,287.045 C846.192,291.535 843.867,295.732 839.216,299.639 C834.565,303.545 829.567,305.498 824.224,305.498 C821.099,305.498 818.463,304.686 816.317,303.061 C814.297,301.3 813.286,299.087 813.286,296.42 C813.286,292.055 815.599,287.889 820.224,283.92 C824.849,279.951 829.859,277.967 835.255,277.967"/>
<path class="Note" d="M1336.22,252.967 C1339.34,252.967 1341.95,253.748 1344.03,255.311 C1346.11,256.873 1347.16,259.118 1347.16,262.045 C1347.16,266.535 1344.83,270.732 1340.18,274.639 C1335.53,278.545 1330.53,280.498 1325.19,280.498 C1322.06,280.498 1319.43,279.686 1317.28,278.061 C1315.26,276.3 1314.25,274.087 1314.25,271.42 C1314.25,267.055 1316.56,262.889 1321.19,258.92 C1325.81,254.951 1330.82,252.967 1336.22,252.967"/>
<path class="Note" d="M1002.87,240.467 C1006,240.467 1008.6,241.248 1010.68,242.811 C1012.77,244.373 1013.81,246.618 1013.81,249.545 C1013.81,254.035 1011.48,258.232 1006.83,262.139 C1002.18,266.045 997.183,267.998 991.839,267.998 C988.714,267.998 986.078,267.186 983.933,265.561 C981.912,263.8 980.901,261.587 980.901,258.92 C980.901,254.555 983.214,250.389 987.839,246.42 C992.464,242.451 997.474,240.467 1002.87,240.467"/>
<path class="Note" d="M1436.79,252.967 C1439.91,252.967 1442.52,253.748 1444.6,255.311 C1446.68,256.873 1447.72,259.118 1447.72,262.045 C1447.72,266.535 1445.4,270.732 1440.75,274.639 C1436.1,278.545 1431.1,280.498 1425.76,280.498 C1422.63,280.498 1420,279.686 1417.85,278.061 C1415.83,276.3 1414.82,274.087 1414.82,271.42 C1414.82,267.055 1417.13,262.889 1421.76,258.92 C1426.38,254.951 1431.39,252.967 1436.79,252.967"/>
<path class="Note" d="M768.209,302.967 C771.334,302.967 773.938,303.748 776.021,305.311 C778.105,306.873 779.146,309.118 779.146,312.045 C779.146,316.535 776.821,320.732 772.17,324.639 C767.519,328.545 762.521,330.498 757.178,330.498 C754.053,330.498 751.417,329.686 749.271,328.061 C747.251,326.3 746.24,324.087 746.24,321.42 C746.24,317.055 748.553,312.889 753.178,308.92 C757.803,304.951 762.813,302.967 768.209,302.967"/>
<path class="Note" d="M902.301,240.467 C905.426,240.467 908.03,241.248 910.114,242.811 C912.197,244.373 913.239,246.618 913.239,249.545 C913.239,254.035 910.913,258.232 906.262,262.139 C901.611,266.045 896.614,267.998 891.27,267.998 C888.145,267.998 885.509,267.186 883.364,265.561 C881.343,263.8 880.332,261.587 880.332,258.92 C880.332,254.555 882.645,250.389 887.27,246.42 C891.895,242.451 896.905,240.467 902.301,240.467"/>
<path class="Note" d="M1570.88,252.967 C1574,252.967 1576.61,253.748 1578.69,255.311 C1580.78,256.873 1581.82,259.118 1581.82,262.045 C1581.82,266.535 1579.49,270.732 1574.84,274.639 C1570.19,278.545 1565.19,280.498 1559.85,280.498 C1556.72,280.498 1554.09,279.686 1551.94,278.061 C1549.92,276.3 1548.91,274.087 1548.91,271.42 C1548.91,267.055 1551.22,262.889 1555.85,258.92 C1560.47,254.951 1565.48,252.967 1570.88,252.967"/>
<path class="Note" d="M1671.45,252.967 C1674.57,252.967 1677.18,253.748 1679.26,255.311 C1681.34,256.873 1682.39,259.118 1682.39,262.045 C1682.39,266.535 1680.06,270.732 1675.41,274.639 C1670.76,278.545 1665.76,280.498 1660.42,280.498 C1657.29,280.498 1654.66,279.686 1652.51,278.061 C1650.49,276.3 1649.48,274.087 1649.48,271.42 C1649.48,267.055 1651.79,262.889 1656.42,258.92 C1661.04,254.951 1666.05,252.967 1671.45,252.967"/>
<path class="Note" d="M1837.18,315.467 C1840.31,315.467 1842.91,316.248 1844.99,317.811 C1847.08,319.373 1848.12,321.618 1848.12,324.545 C1848.12,329.035 1845.79,333.232 1841.14,337.139 C1836.49,341.045 1831.49,342.998 1826.15,342.998 C1823.03,342.998 1820.39,342.186 1818.24,340.561 C1816.22,338.8 1815.21,336.587 1815.21,333.92 C1815.21,329.555 1817.53,325.389 1822.15,321.42 C1826.78,317.451 1831.79,315.467 1837.18,315.467"/>
<path class="Note" d="M1170.49,240.467 C1173.61,240.467 1176.21,241.248 1178.3,242.811 C1180.38,244.373 1181.42,246.618 1181.42,249.545 C1181.42,254.035 1179.1,258.232 1174.45,262.139 C1169.8,266.045 1164.8,267.998 1159.45,267.998 C1156.33,267.998 1153.69,267.186 1151.55,265.561 C1149.53,263.8 1148.52,261.587 1148.52,258.92 C1148.52,254.555 1150.83,250.389 1155.45,246.42 C1160.08,242.451 1165.09,240.467 1170.49,240.467"/>
<path class="Note" d="M1069.92,240.467 C1073.04,240.467 1075.65,241.248 1077.73,242.811 C1079.81,244.373 1080.85,246.618 1080.85,249.545 C1080.85,254.035 1078.53,258.232 1073.88,262.139 C1069.23,266.045 1064.23,267.998 1058.88,267.998 C1055.76,267.998 1053.12,267.186 1050.98,265.561 C1048.96,263.8 1047.95,261.587 1047.95,258.92 C1047.95,254.555 1050.26,250.389 1054.88,246.42 C1059.51,242.451 1064.52,240.467 1069.92,240.467"/>
<path class="Note" d="M1975.99,265.467 C1979.12,265.467 1981.72,266.248 1983.81,267.811 C1985.89,269.373 1986.93,271.618 1986.93,274.545 C1986.93,279.035 1984.61,283.232 1979.95,287.139 C1975.3,291.045 1970.31,292.998 1964.96,292.998 C1961.84,292.998 1959.2,292.186 1957.06,290.561 C1955.03,288.8 1954.02,286.587 1954.02,283.92 C1954.02,279.555 1956.34,275.389 1960.96,271.42 C1965.59,267.451 1970.6,265.467 1975.99,265.467"/>
<path class="Clef" d="M203.623,423.858 L203.623,421.717 C203.56,420.613 203.399,418.889 203.139,416.545 C199.889,417.066 196.993,417.326 194.451,417.326 C185.337,417.326 177.605,413.727 171.256,406.529 C164.907,399.331 161.732,390.753 161.732,380.795 C161.732,378.128 162.253,374.923 163.295,371.178 C164.337,367.433 165.297,364.925 166.178,363.654 C167.058,362.384 168.378,360.154 170.139,356.967 C170.659,355.988 172.352,353.837 175.217,350.514 C175.738,349.805 176.193,349.222 176.584,348.764 C176.975,348.305 177.607,347.49 178.482,346.318 C179.357,345.147 180.3,344.055 181.31,343.045 C182.321,342.035 183.217,341.058 183.998,340.115 C184.779,339.173 185.498,338.378 186.154,337.733 C183.81,329.983 182.378,324.024 181.857,319.858 C181.337,315.691 181.076,310.579 181.076,304.522 C181.076,298.464 182.378,292.962 184.982,288.014 C187.514,282.878 191.06,278.68 195.623,275.42 C195.883,275.222 196.225,275.123 196.646,275.123 C197.068,275.123 197.378,275.222 197.576,275.42 C201.087,279.649 204.128,285.149 206.701,291.92 C209.274,298.691 210.56,305.024 210.56,310.92 C210.56,316.816 209.066,322.498 206.076,327.967 C202.691,333.759 198.326,339.748 192.982,345.936 C194.347,350.227 196.17,356.962 198.451,366.139 L199.045,366.139 C199.305,366.076 199.529,366.045 199.717,366.045 C207.081,366.045 213.089,368.634 217.74,373.811 C222.391,378.988 224.717,384.962 224.717,391.733 C224.717,400.128 221.238,406.899 214.279,412.045 C212.258,413.545 209.878,414.717 207.139,415.561 C207.472,419.79 207.639,422.605 207.639,424.006 C207.639,425.407 207.571,427.899 207.435,431.483 C207.373,437.597 205.29,442.837 201.185,447.201 C197.081,451.566 192.394,453.748 187.123,453.748 C181.852,453.748 177.36,451.876 173.646,448.131 C169.933,444.386 168.076,439.847 168.076,434.514 C168.076,431.712 169.154,429.331 171.31,427.373 C173.519,425.425 176.006,424.451 178.771,424.451 C181.537,424.451 183.8,425.462 185.56,427.483 C187.383,429.368 188.295,431.644 188.295,434.311 C188.295,436.977 187.383,439.222 185.56,441.045 C183.738,442.868 181.555,443.779 179.014,443.779 C177.972,443.779 176.967,443.587 175.998,443.201 C178.863,447.43 182.54,449.545 187.029,449.545 C191.519,449.545 195.36,447.691 198.553,443.983 C201.745,440.274 203.342,435.91 203.342,430.889 L203.623,423.858 M206.748,411.561 C210.133,410.321 212.821,408.123 214.81,404.967 C216.8,401.811 217.795,398.67 217.795,395.545 C217.795,390.92 216.199,386.785 213.006,383.139 C209.813,379.493 205.774,377.441 200.889,376.983 C203.691,390.722 205.644,402.248 206.748,411.561 M168.967,388.998 C168.967,395.446 171.537,401.079 176.678,405.897 C181.818,410.714 187.842,413.123 194.748,413.123 C197.477,413.123 200.144,412.925 202.748,412.529 C201.706,402.634 199.654,390.785 196.592,376.983 C192.758,377.378 189.782,378.699 187.662,380.943 C185.542,383.188 184.482,385.743 184.482,388.608 C184.482,393.555 187.123,397.561 192.404,400.623 C192.852,400.884 193.076,401.324 193.076,401.943 C193.076,402.563 192.865,403.1 192.443,403.553 C192.021,404.006 191.649,404.233 191.326,404.233 C191.003,404.233 190.581,404.17 190.06,404.045 C182.435,399.878 178.623,393.592 178.623,385.186 C178.623,381.217 180.024,377.41 182.826,373.764 C185.753,370.118 189.56,367.774 194.248,366.733 C192.425,359.441 190.93,353.743 189.764,349.639 C180.847,359.67 175.31,367.092 173.154,371.904 C170.363,378.154 168.967,383.852 168.967,388.998 M201.576,289.686 C196.691,292.092 192.834,295.574 190.006,300.131 C187.178,304.688 185.764,309.472 185.764,314.483 C185.764,319.493 186.935,325.972 189.279,333.92 C193.967,328.253 197.514,322.946 199.92,317.998 C202.326,313.05 203.529,308.152 203.529,303.303 C203.529,298.454 202.878,293.915 201.576,289.686"/>
<path class="Rest" d="M1506.18,359.108 C1502.01,360.608 1498.64,361.358 1496.08,361.358 C1493.51,361.358 1491.36,360.626 1489.63,359.162 C1487.9,357.699 1487.04,355.876 1487.04,353.693 C1487.04,351.511 1487.75,349.719 1489.18,348.318 C1490.62,346.917 1492.33,346.217 1494.32,346.217 C1496.31,346.217 1497.74,346.756 1498.61,347.834 C1499.49,348.912 1499.99,349.873 1500.12,350.717 C1500.25,351.561 1500.56,352.649 1501.05,353.983 C1501.54,355.316 1502.21,355.983 1503.06,355.983 C1503.91,355.983 1505.02,355.154 1506.38,353.498 C1507.74,351.842 1508.62,350.639 1509.01,349.889 C1509.4,349.139 1509.91,348.779 1510.53,348.811 C1511.15,348.842 1511.59,349.149 1511.85,349.733 L1493.97,416.733 C1493.33,417.389 1492.42,417.717 1491.25,417.717 C1490.08,417.717 1489.16,417.389 1488.51,416.733 L1498.57,384.014 C1494.2,385.576 1490.75,386.358 1488.22,386.358 C1485.68,386.358 1483.55,385.626 1481.82,384.162 C1480.09,382.699 1479.22,380.876 1479.22,378.693 C1479.22,376.511 1479.92,374.722 1481.33,373.326 C1482.73,371.93 1484.42,371.233 1486.4,371.233 C1488.39,371.233 1489.84,371.769 1490.75,372.842 C1491.66,373.915 1492.21,375.071 1492.41,376.311 C1492.93,379.436 1493.97,380.998 1495.54,380.998 C1496.32,380.998 1497.43,380.087 1498.86,378.264 C1500.35,376.566 1501.27,375.227 1501.6,374.248 L1506.18,359.108 "/>
<path class="Rest" d="M2692.86,357.357 L2657.31,357.357 C2656.66,357.357 2656.33,357.035 2656.33,356.389 L2656.33,342.717 C2656.33,342.061 2656.66,341.732 2657.31,341.732 L2692.86,341.732 C2693.51,341.732 2693.83,342.061 2693.83,342.717 L2693.83,356.389 C2693.83,357.035 2693.51,357.357 2692.86,357.357"/>
<path class="Rest" d="M1271.52,359.108 C1267.35,360.608 1263.98,361.358 1261.41,361.358 C1258.85,361.358 1256.7,360.626 1254.97,359.162 C1253.24,357.699 1252.38,355.876 1252.38,353.693 C1252.38,351.511 1253.09,349.719 1254.52,348.318 C1255.96,346.917 1257.67,346.217 1259.66,346.217 C1261.65,346.217 1263.08,346.756 1263.95,347.834 C1264.83,348.912 1265.33,349.873 1265.46,350.717 C1265.59,351.561 1265.9,352.649 1266.39,353.983 C1266.88,355.316 1267.55,355.983 1268.4,355.983 C1269.25,355.983 1270.35,355.154 1271.72,353.498 C1273.08,351.842 1273.96,350.639 1274.35,349.889 C1274.74,349.139 1275.25,348.779 1275.87,348.811 C1276.49,348.842 1276.93,349.149 1277.19,349.733 L1259.31,416.733 C1258.67,417.389 1257.76,417.717 1256.59,417.717 C1255.41,417.717 1254.5,417.389 1253.84,416.733 L1263.91,384.014 C1259.54,385.576 1256.09,386.358 1253.55,386.358 C1251.02,386.358 1248.89,385.626 1247.16,384.162 C1245.43,382.699 1244.56,380.876 1244.56,378.693 C1244.56,376.511 1245.26,374.722 1246.66,373.326 C1248.07,371.93 1249.76,371.233 1251.74,371.233 C1253.73,371.233 1255.17,371.769 1256.09,372.842 C1257,373.915 1257.55,375.071 1257.75,376.311 C1258.27,379.436 1259.31,380.998 1260.88,380.998 C1261.66,380.998 1262.77,380.087 1264.2,378.264 C1265.69,376.566 1266.6,375.227 1266.94,374.248 L1271.52,359.108 "/>
<path class="Rest" d="M1772.48,359.108 C1768.31,360.608 1764.95,361.358 1762.38,361.358 C1759.81,361.358 1757.66,360.626 1755.93,359.162 C1754.2,357.699 1753.34,355.876 1753.34,353.693 C1753.34,351.511 1754.05,349.719 1755.49,348.318 C1756.92,346.917 1758.63,346.217 1760.62,346.217 C1762.61,346.217 1764.04,346.756 1764.92,347.834 C1765.79,348.912 1766.29,349.873 1766.42,350.717 C1766.55,351.561 1766.86,352.649 1767.35,353.983 C1767.84,355.316 1768.51,355.983 1769.36,355.983 C1770.21,355.983 1771.32,355.154 1772.68,353.498 C1774.05,351.842 1774.92,350.639 1775.32,349.889 C1775.71,349.139 1776.21,348.779 1776.83,348.811 C1777.45,348.842 1777.89,349.149 1778.15,349.733 L1760.28,416.733 C1759.63,417.389 1758.72,417.717 1757.55,417.717 C1756.38,417.717 1755.46,417.389 1754.81,416.733 L1764.87,384.014 C1760.51,385.576 1757.05,386.358 1754.52,386.358 C1751.98,386.358 1749.85,385.626 1748.12,384.162 C1746.39,382.699 1745.53,380.876 1745.53,378.693 C1745.53,376.511 1746.23,374.722 1747.63,373.326 C1749.03,371.93 1750.72,371.233 1752.71,371.233 C1754.69,371.233 1756.14,371.769 1757.05,372.842 C1757.96,373.915 1758.52,375.071 1758.71,376.311 C1759.23,379.436 1760.28,380.998 1761.84,380.998 C1762.62,380.998 1763.73,380.087 1765.17,378.264 C1766.66,376.566 1767.57,375.227 1767.9,374.248 L1772.48,359.108 "/>
<path class="Beam" fill-rule="evenodd" d="M1314.25,354.232 L1418.07,354.232 L1418.07,366.733 L1314.25,366.733 L1314.25,354.232 "/>
<path class="Beam" fill-rule="evenodd" d="M1418.07,335.482 L1385.07,335.482 L1385.07,347.982 L1418.07,347.982 L1418.07,335.482 "/>
<path class="Beam" fill-rule="evenodd" d="M438.086,429.191 L653.444,404.191 L653.444,416.775 L438.086,441.775 L438.086,429.191 "/>
<path class="Beam" fill-rule="evenodd" d="M438.086,410.441 L653.444,385.441 L653.444,398.024 L438.086,423.025 L438.086,410.441 "/>
<path class="Beam" fill-rule="evenodd" d="M1548.91,354.232 L1652.73,354.232 L1652.73,366.733 L1548.91,366.733 L1548.91,354.232 "/>
<path class="Beam" fill-rule="evenodd" d="M1652.73,335.482 L1619.73,335.482 L1619.73,347.982 L1652.73,347.982 L1652.73,335.482 "/>
<path class="Beam" fill-rule="evenodd" d="M980.901,354.232 L1151.77,354.232 L1151.77,366.733 L980.901,366.733 L980.901,354.232 "/>
<path class="Beam" fill-rule="evenodd" d="M980.901,335.482 L1013.9,335.482 L1013.9,347.982 L980.901,347.982 L980.901,335.482 "/>
<path class="Beam" fill-rule="evenodd" d="M1151.77,335.482 L1118.77,335.482 L1118.77,347.982 L1151.77,347.982 L1151.77,335.482 "/>
<path class="Beam" fill-rule="evenodd" d="M1815.21,410.476 L1957.27,404.226 L1957.27,416.739 L1815.21,422.989 L1815.21,410.476 "/>
<path class="Beam" fill-rule="evenodd" d="M1815.21,391.726 L1957.27,385.476 L1957.27,397.989 L1815.21,404.239 L1815.21,391.726 "/>
<path class="Beam" fill-rule="evenodd" d="M746.24,385.476 L883.582,379.226 L883.582,391.739 L746.24,397.989 L746.24,385.476 "/>
<path class="Beam" fill-rule="evenodd" d="M746.24,366.726 L816.536,363.527 L816.536,376.04 L746.24,379.239 L746.24,366.726 "/>
<path class="Beam" fill-rule="evenodd" d="M2021.07,354.23 L2225.46,360.48 L2225.46,372.985 L2021.07,366.735 L2021.07,354.23 "/>
<path class="Beam" fill-rule="evenodd" d="M2021.07,335.48 L2225.46,341.73 L2225.46,354.235 L2021.07,347.985 L2021.07,335.48 "/>
<path class="Page" d="M141.953,3976.75 C142.089,3976.14 142.224,3975.61 142.359,3975.15 C142.495,3974.7 142.781,3974.04 143.219,3973.18 C143.656,3972.31 144.148,3971.59 144.695,3971.02 C145.242,3970.45 146.003,3969.93 146.977,3969.48 C147.951,3969.03 149.052,3968.8 150.281,3968.8 C152.354,3968.8 154.104,3969.48 155.531,3970.84 C156.958,3972.2 157.672,3973.87 157.672,3975.86 C157.672,3978.9 155.969,3982.21 152.563,3985.8 L145.844,3992.88 L155.391,3992.88 C156.297,3992.88 156.971,3992.73 157.414,3992.42 C157.857,3992.11 158.453,3991.38 159.203,3990.22 L159.719,3990.43 L157.516,3995.8 L141.922,3995.8 L141.922,3995.33 L149.031,3987.79 C152.5,3984.11 154.234,3980.65 154.234,3977.4 C154.234,3975.71 153.714,3974.34 152.672,3973.29 C151.63,3972.25 150.271,3971.72 148.594,3971.72 C147.208,3971.72 146.096,3972.11 145.258,3972.87 C144.419,3973.64 143.599,3975 142.797,3976.96 L141.953,3976.75 "/>
</svg>
