<?xml version="1.0" encoding="UTF-8" standalone="no"?>
<svg width="2977.2px" height="4208.4px" viewBox="0 0 2977.2 4208.4"
 xmlns="http://www.w3.org/2000/svg" xmlns:xlink="http://www.w3.org/1999/xlink" version="1.2" baseProfile="tiny">
<title>Wheels_On_The_Bus.mscx</title>
<desc>Generated by MuseScore Studio 4.3.1</desc>
<path class="" fill="#ffffff" fill-rule="evenodd" d="M0,0 L2977.2,0 L2977.2,4208.4 L0,4208.4 L0,0 "/>
<polyline class="StaffLines" fill="none" stroke="#000000" stroke-width="2.00" stroke-linejoin="bevel" points="141.732,316.732 2835.47,316.732"/>
<polyline class="StaffLines" fill="none" stroke="#000000" stroke-width="2.00" stroke-linejoin="bevel" points="141.732,341.732 2835.47,341.732"/>
<polyline class="StaffLines" fill="none" stroke="#000000" stroke-width="2.00" stroke-linejoin="bevel" points="141.732,366.733 2835.47,366.733"/>
<polyline class="StaffLines" fill="none" stroke="#000000" stroke-width="2.00" stroke-linejoin="bevel" points="141.732,391.733 2835.47,391.733"/>
<polyline class="StaffLines" fill="none" stroke="#000000" stroke-width="2.00" stroke-linejoin="bevel" points="141.732,416.733 2835.47,416.733"/>
<polyline class="StaffLines" fill="none" stroke="#000000" stroke-width="2.00" stroke-linejoin="bevel" points="141.732,791.733 578.346,791.733"/>
<polyline class="StaffLines" fill="none" stroke="#000000" stroke-width="2.00" stroke-linejoin="bevel" points="141.732,816.733 578.346,816.733"/>
<polyline class="StaffLines" fill="none" stroke="#000000" stroke-width="2.00" stroke-linejoin="bevel" points="141.732,841.733 578.346,841.733"/>
<polyline class="StaffLines" fill="none" stroke="#000000" stroke-width="2.00" stroke-linejoin="bevel" points="141.732,866.733 578.346,866.733"/>
<polyline class="StaffLines" fill="none" stroke="#000000" stroke-width="2.00" stroke-linejoin="bevel" points="141.732,891.733 578.346,891.733"/>
<path class="MeasureNumber" d="M127.545,718.014 C127.066,718.014 126.107,718.306 124.67,718.889 L124.67,718.342 L131.873,714.701 L132.185,714.78 L132.185,738.78 C132.185,739.738 132.425,740.363 132.904,740.655 C133.383,740.946 134.409,741.108 135.982,741.139 L135.982,741.733 L124.951,741.733 L124.951,741.139 C126.441,741.076 127.446,740.853 127.967,740.467 C128.488,740.082 128.748,739.264 128.748,738.014 L128.748,719.889 C128.748,718.639 128.347,718.014 127.545,718.014 M150.529,742.295 C147.842,742.295 145.678,741.22 144.037,739.069 C142.396,736.918 141.576,734.076 141.576,730.545 C141.576,729.462 141.683,728.34 141.896,727.178 C142.11,726.017 142.576,724.699 143.295,723.225 C144.014,721.751 144.946,720.428 146.092,719.256 C147.238,718.084 148.844,717.037 150.912,716.116 C152.98,715.194 155.363,714.613 158.06,714.373 L158.139,715.014 C154.993,715.524 152.365,716.8 150.256,718.842 C148.146,720.884 146.826,723.41 146.295,726.42 C147.545,725.701 148.49,725.235 149.131,725.022 C149.771,724.808 150.534,724.701 151.42,724.701 C153.712,724.701 155.537,725.444 156.896,726.928 C158.256,728.412 158.935,730.415 158.935,732.936 C158.935,735.696 158.154,737.946 156.592,739.686 C155.029,741.425 153.008,742.295 150.529,742.295 M149.889,726.451 C148.076,726.451 146.857,726.85 146.232,727.647 C145.607,728.444 145.295,729.623 145.295,731.186 C145.295,734.259 145.803,736.678 146.818,738.444 C147.834,740.209 149.222,741.092 150.982,741.092 C152.389,741.092 153.467,740.501 154.217,739.319 C154.967,738.136 155.342,736.462 155.342,734.295 C155.342,731.795 154.868,729.863 153.92,728.498 C152.972,727.134 151.628,726.451 149.889,726.451"/>
<polyline class="BarLine" fill="none" stroke="#000000" stroke-width="4.00" stroke-linejoin="bevel" points="1092.37,315.732 1092.37,417.733"/>
<polyline class="BarLine" fill="none" stroke="#000000" stroke-width="4.00" stroke-linejoin="bevel" points="1231.46,315.732 1231.46,417.733"/>
<polyline class="BarLine" fill="none" stroke="#000000" stroke-width="4.00" stroke-linejoin="bevel" points="1406.04,315.732 1406.04,417.733"/>
<polyline class="BarLine" fill="none" stroke="#000000" stroke-width="4.00" stroke-linejoin="bevel" points="1545.13,315.732 1545.13,417.733"/>
<polyline class="BarLine" fill="none" stroke="#000000" stroke-width="4.00" stroke-linejoin="bevel" points="917.787,315.732 917.787,417.733"/>
<polyline class="BarLine" fill="none" stroke="#000000" stroke-width="4.00" stroke-linejoin="bevel" points="1719.71,315.732 1719.71,417.733"/>
<polyline class="BarLine" fill="none" stroke="#000000" stroke-width="4.00" stroke-linejoin="bevel" points="1858.8,315.732 1858.8,417.733"/>
<polyline class="BarLine" fill="none" stroke="#000000" stroke-width="4.00" stroke-linejoin="bevel" points="2067.04,315.732 2067.04,417.733"/>
<polyline class="BarLine" fill="none" stroke="#000000" stroke-width="4.00" stroke-linejoin="bevel" points="743.204,315.732 743.204,417.733"/>
<polyline class="BarLine" fill="none" stroke="#000000" stroke-width="4.00" stroke-linejoin="bevel" points="2241.62,315.732 2241.62,417.733"/>
<polyline class="BarLine" fill="none" stroke="#000000" stroke-width="4.00" stroke-linejoin="bevel" points="2416.2,315.732 2416.2,417.733"/>
<polyline class="BarLine" fill="none" stroke="#000000" stroke-width="4.00" stroke-linejoin="bevel" points="2555.29,315.732 2555.29,417.733"/>
<polyline class="BarLine" fill="none" stroke="#000000" stroke-width="4.00" stroke-linejoin="bevel" points="545.596,790.733 545.596,892.733"/>
<polyline class="BarLine" fill="none" stroke="#000000" stroke-width="12.50" stroke-linejoin="bevel" points="572.096,790.733 572.096,892.733"/>
<polyline class="BarLine" fill="none" stroke="#000000" stroke-width="4.00" stroke-linejoin="bevel" points="2694.38,315.732 2694.38,417.733"/>
<polyline class="BarLine" fill="none" stroke="#000000" stroke-width="4.00" stroke-linejoin="bevel" points="534.971,315.732 534.971,417.733"/>
<polyline class="BarLine" fill="none" stroke="#000000" stroke-width="4.00" stroke-linejoin="bevel" points="431.846,790.733 431.846,892.733"/>
<polyline class="BarLine" fill="none" stroke="#000000" stroke-width="4.00" stroke-linejoin="bevel" points="2833.47,315.732 2833.47,417.733"/>
<polyline class="LedgerLine" fill="none" stroke="#000000" stroke-width="4.00" stroke-linejoin="bevel" points="1008.08,291.732 1059.99,291.732"/>
<polyline class="LedgerLine" fill="none" stroke="#000000" stroke-width="4.00" stroke-linejoin="bevel" points="833.496,291.732 885.41,291.732"/>
<polyline class="LedgerLine" fill="none" stroke="#000000" stroke-width="4.00" stroke-linejoin="bevel" points="1635.42,291.732 1687.34,291.732"/>
<polyline class="LedgerLine" fill="none" stroke="#000000" stroke-width="4.00" stroke-linejoin="bevel" points="2157.33,291.732 2209.24,291.732"/>
<polyline class="LedgerLine" fill="none" stroke="#000000" stroke-width="4.00" stroke-linejoin="bevel" points="1562.63,266.732 1614.54,266.732"/>
<polyline class="LedgerLine" fill="none" stroke="#000000" stroke-width="4.00" stroke-linejoin="bevel" points="1562.63,291.732 1614.54,291.732"/>
<polyline class="LedgerLine" fill="none" stroke="#000000" stroke-width="4.00" stroke-linejoin="bevel" points="2259.12,291.732 2311.03,291.732"/>
<polyline class="LedgerLine" fill="none" stroke="#000000" stroke-width="4.00" stroke-linejoin="bevel" points="2259.12,266.732 2311.03,266.732"/>
<polyline class="LedgerLine" fill="none" stroke="#000000" stroke-width="4.00" stroke-linejoin="bevel" points="2331.91,291.732 2383.82,291.732"/>
<polyline class="LedgerLine" fill="none" stroke="#000000" stroke-width="4.00" stroke-linejoin="bevel" points="935.287,291.732 987.201,291.732"/>
<polyline class="LedgerLine" fill="none" stroke="#000000" stroke-width="4.00" stroke-linejoin="bevel" points="935.287,266.732 987.201,266.732"/>
<polyline class="Stem" fill="none" stroke="#000000" stroke-width="3.25" stroke-linejoin="bevel" points="1887.43,322.602 1887.43,404.233"/>
<polyline class="Stem" fill="none" stroke="#000000" stroke-width="3.25" stroke-linejoin="bevel" points="1960.22,322.602 1960.22,391.733"/>
<polyline class="Stem" fill="none" stroke="#000000" stroke-width="3.25" stroke-linejoin="bevel" points="2008.75,322.602 2008.75,391.733"/>
<polyline class="Stem" fill="none" stroke="#000000" stroke-width="3.25" stroke-linejoin="bevel" points="335.471,796.633 335.471,879.233"/>
<polyline class="Stem" fill="none" stroke="#000000" stroke-width="3.25" stroke-linejoin="bevel" points="2095.66,322.602 2095.66,404.233"/>
<polyline class="Stem" fill="none" stroke="#000000" stroke-width="3.25" stroke-linejoin="bevel" points="461.805,360.102 461.805,435.483"/>
<polyline class="Stem" fill="none" stroke="#000000" stroke-width="3.25" stroke-linejoin="bevel" points="2168.45,297.602 2168.45,379.233"/>
<polyline class="Stem" fill="none" stroke="#000000" stroke-width="3.25" stroke-linejoin="bevel" points="2723,359.132 2723,435.483"/>
<polyline class="Stem" fill="none" stroke="#000000" stroke-width="3.25" stroke-linejoin="bevel" points="684.915,322.602 684.915,391.733"/>
<polyline class="Stem" fill="none" stroke="#000000" stroke-width="3.25" stroke-linejoin="bevel" points="2583.91,309.132 2583.91,391.733"/>
<polyline class="Stem" fill="none" stroke="#000000" stroke-width="3.25" stroke-linejoin="bevel" points="563.596,322.602 563.596,404.233"/>
<polyline class="Stem" fill="none" stroke="#000000" stroke-width="3.25" stroke-linejoin="bevel" points="2270.24,272.602 2270.24,366.733"/>
<polyline class="Stem" fill="none" stroke="#000000" stroke-width="3.25" stroke-linejoin="bevel" points="2444.83,321.632 2444.83,404.233"/>
<polyline class="Stem" fill="none" stroke="#000000" stroke-width="3.25" stroke-linejoin="bevel" points="636.388,322.602 636.388,391.733"/>
<polyline class="Stem" fill="none" stroke="#000000" stroke-width="3.25" stroke-linejoin="bevel" points="2343.03,297.602 2343.03,379.233"/>
<polyline class="Stem" fill="none" stroke="#000000" stroke-width="3.25" stroke-linejoin="bevel" points="1260.08,310.102 1260.08,391.733"/>
<polyline class="Stem" fill="none" stroke="#000000" stroke-width="3.25" stroke-linejoin="bevel" points="946.412,272.602 946.412,366.733"/>
<polyline class="Stem" fill="none" stroke="#000000" stroke-width="3.25" stroke-linejoin="bevel" points="1434.67,359.132 1434.67,435.483"/>
<polyline class="Stem" fill="none" stroke="#000000" stroke-width="3.25" stroke-linejoin="bevel" points="1332.87,335.102 1332.87,416.733"/>
<polyline class="Stem" fill="none" stroke="#000000" stroke-width="3.25" stroke-linejoin="bevel" points="1573.76,272.602 1573.76,366.733"/>
<polyline class="Stem" fill="none" stroke="#000000" stroke-width="3.25" stroke-linejoin="bevel" points="1646.55,297.602 1646.55,379.233"/>
<polyline class="Stem" fill="none" stroke="#000000" stroke-width="3.25" stroke-linejoin="bevel" points="844.621,297.602 844.621,379.233"/>
<polyline class="Stem" fill="none" stroke="#000000" stroke-width="3.25" stroke-linejoin="bevel" points="1748.34,321.632 1748.34,404.233"/>
<polyline class="Stem" fill="none" stroke="#000000" stroke-width="3.25" stroke-linejoin="bevel" points="1120.99,321.632 1120.99,404.233"/>
<polyline class="Stem" fill="none" stroke="#000000" stroke-width="3.25" stroke-linejoin="bevel" points="1019.2,297.602 1019.2,379.233"/>
<polyline class="Stem" fill="none" stroke="#000000" stroke-width="3.25" stroke-linejoin="bevel" points="771.829,322.602 771.829,404.233"/>
<path class="Note" d="M966.756,252.967 C969.881,252.967 972.485,253.748 974.568,255.311 C976.651,256.873 977.693,259.118 977.693,262.045 C977.693,266.535 975.368,270.732 970.717,274.639 C966.065,278.545 961.068,280.498 955.724,280.498 C952.599,280.498 949.964,279.686 947.818,278.061 C945.797,276.3 944.787,274.087 944.787,271.42 C944.787,267.055 947.099,262.889 951.724,258.92 C956.349,254.951 961.36,252.967 966.756,252.967"/>
<path class="Note" d="M482.149,340.467 C485.274,340.467 487.878,341.248 489.961,342.811 C492.045,344.373 493.086,346.618 493.086,349.545 C493.086,354.035 490.761,358.232 486.11,362.139 C481.459,366.045 476.461,367.998 471.118,367.998 C467.993,367.998 465.357,367.186 463.211,365.561 C461.19,363.8 460.18,361.587 460.18,358.92 C460.18,354.555 462.493,350.389 467.118,346.42 C471.743,342.451 476.753,340.467 482.149,340.467"/>
<path class="Note" d="M2589.71,314.873 C2591.6,314.873 2595.55,312.92 2601.58,309.014 C2607.6,305.107 2611.15,302.488 2612.23,301.154 C2613.3,299.821 2613.84,298.634 2613.84,297.592 C2613.84,296.55 2613.41,295.623 2612.56,294.811 C2611.71,293.998 2610.74,293.592 2609.63,293.592 C2607.69,293.592 2603.7,295.561 2597.67,299.498 C2591.65,303.436 2588.11,306.055 2587.07,307.357 C2586.03,308.66 2585.51,309.831 2585.51,310.873 C2585.51,311.915 2585.92,312.842 2586.74,313.654 C2587.55,314.467 2588.55,314.873 2589.71,314.873 M2608.66,290.467 C2614.26,290.467 2617.06,292.873 2617.06,297.686 C2617.06,300.029 2616.37,302.748 2615.01,305.842 C2613.64,308.936 2611.82,311.295 2609.54,312.92 C2604.53,316.305 2598.25,317.998 2590.7,317.998 C2585.09,317.998 2582.29,315.592 2582.29,310.779 C2582.29,308.634 2582.96,305.964 2584.29,302.772 C2585.62,299.579 2587.46,297.17 2589.81,295.545 C2594.83,292.16 2601.11,290.467 2608.66,290.467"/>
<path class="Note" d="M1907.77,302.967 C1910.9,302.967 1913.5,303.748 1915.58,305.311 C1917.67,306.873 1918.71,309.118 1918.71,312.045 C1918.71,316.535 1916.38,320.732 1911.73,324.639 C1907.08,328.545 1902.08,330.498 1896.74,330.498 C1893.61,330.498 1890.98,329.686 1888.83,328.061 C1886.81,326.3 1885.8,324.087 1885.8,321.42 C1885.8,317.055 1888.11,312.889 1892.74,308.92 C1897.36,304.951 1902.38,302.967 1907.77,302.967"/>
<path class="Note" d="M1126.79,327.373 C1128.68,327.373 1132.63,325.42 1138.66,321.514 C1144.68,317.607 1148.23,314.988 1149.31,313.654 C1150.38,312.321 1150.92,311.134 1150.92,310.092 C1150.92,309.05 1150.49,308.123 1149.64,307.311 C1148.79,306.498 1147.82,306.092 1146.71,306.092 C1144.77,306.092 1140.78,308.061 1134.75,311.998 C1128.73,315.936 1125.19,318.555 1124.15,319.857 C1123.11,321.16 1122.59,322.331 1122.59,323.373 C1122.59,324.415 1123,325.342 1123.81,326.154 C1124.63,326.967 1125.62,327.373 1126.79,327.373 M1145.74,302.967 C1151.34,302.967 1154.14,305.373 1154.14,310.186 C1154.14,312.529 1153.45,315.248 1152.09,318.342 C1150.72,321.436 1148.9,323.795 1146.62,325.42 C1141.61,328.805 1135.33,330.498 1127.78,330.498 C1122.17,330.498 1119.37,328.092 1119.37,323.279 C1119.37,321.134 1120.04,318.464 1121.37,315.272 C1122.7,312.079 1124.54,309.67 1126.89,308.045 C1131.91,304.66 1138.19,302.967 1145.74,302.967"/>
<path class="Note" d="M1280.43,290.467 C1283.55,290.467 1286.16,291.248 1288.24,292.811 C1290.32,294.373 1291.36,296.618 1291.36,299.545 C1291.36,304.035 1289.04,308.232 1284.39,312.139 C1279.74,316.045 1274.74,317.998 1269.4,317.998 C1266.27,317.998 1263.64,317.186 1261.49,315.561 C1259.47,313.8 1258.46,311.587 1258.46,308.92 C1258.46,304.555 1260.77,300.389 1265.4,296.42 C1270.02,292.451 1275.03,290.467 1280.43,290.467"/>
<path class="Note" d="M583.94,302.967 C587.065,302.967 589.669,303.748 591.753,305.311 C593.836,306.873 594.878,309.118 594.878,312.045 C594.878,316.535 592.552,320.732 587.901,324.639 C583.25,328.545 578.253,330.498 572.909,330.498 C569.784,330.498 567.148,329.686 565.003,328.061 C562.982,326.3 561.971,324.087 561.971,321.42 C561.971,317.055 564.284,312.889 568.909,308.92 C573.534,304.951 578.544,302.967 583.94,302.967"/>
<path class="Note" d="M2450.62,327.373 C2452.51,327.373 2456.46,325.42 2462.49,321.514 C2468.52,317.607 2472.07,314.988 2473.14,313.654 C2474.21,312.321 2474.75,311.134 2474.75,310.092 C2474.75,309.05 2474.32,308.123 2473.47,307.311 C2472.63,306.498 2471.65,306.092 2470.54,306.092 C2468.6,306.092 2464.61,308.061 2458.58,311.998 C2452.56,315.936 2449.02,318.555 2447.98,319.857 C2446.94,321.16 2446.42,322.331 2446.42,323.373 C2446.42,324.415 2446.83,325.342 2447.65,326.154 C2448.46,326.967 2449.46,327.373 2450.62,327.373 M2469.58,302.967 C2475.17,302.967 2477.97,305.373 2477.97,310.186 C2477.97,312.529 2477.28,315.248 2475.92,318.342 C2474.55,321.436 2472.73,323.795 2470.45,325.42 C2465.44,328.805 2459.16,330.498 2451.61,330.498 C2446,330.498 2443.2,328.092 2443.2,323.279 C2443.2,321.134 2443.87,318.464 2445.2,315.272 C2446.53,312.079 2448.37,309.67 2450.72,308.045 C2455.74,304.66 2462.02,302.967 2469.58,302.967"/>
<path class="Note" d="M2728.8,364.873 C2730.69,364.873 2734.64,362.92 2740.67,359.014 C2746.69,355.107 2750.24,352.488 2751.32,351.154 C2752.39,349.821 2752.93,348.634 2752.93,347.592 C2752.93,346.55 2752.5,345.623 2751.65,344.811 C2750.8,343.998 2749.83,343.592 2748.72,343.592 C2746.77,343.592 2742.79,345.561 2736.76,349.498 C2730.74,353.436 2727.2,356.055 2726.16,357.357 C2725.12,358.66 2724.6,359.831 2724.6,360.873 C2724.6,361.915 2725.01,362.842 2725.82,363.654 C2726.64,364.467 2727.63,364.873 2728.8,364.873 M2747.75,340.467 C2753.35,340.467 2756.14,342.873 2756.14,347.686 C2756.14,350.029 2755.46,352.748 2754.1,355.842 C2752.73,358.936 2750.91,361.295 2748.63,362.92 C2743.62,366.305 2737.34,367.998 2729.79,367.998 C2724.18,367.998 2721.38,365.592 2721.38,360.779 C2721.38,358.634 2722.05,355.964 2723.38,352.772 C2724.71,349.579 2726.55,347.17 2728.89,345.545 C2733.92,342.16 2740.2,340.467 2747.75,340.467"/>
<path class="Note" d="M1353.22,315.467 C1356.34,315.467 1358.95,316.248 1361.03,317.811 C1363.11,319.373 1364.16,321.618 1364.16,324.545 C1364.16,329.035 1361.83,333.232 1357.18,337.139 C1352.53,341.045 1347.53,342.998 1342.19,342.998 C1339.06,342.998 1336.43,342.186 1334.28,340.561 C1332.26,338.8 1331.25,336.587 1331.25,333.92 C1331.25,329.555 1333.56,325.389 1338.19,321.42 C1342.81,317.451 1347.82,315.467 1353.22,315.467"/>
<path class="Note" d="M656.731,302.967 C659.856,302.967 662.461,303.748 664.544,305.311 C666.627,306.873 667.669,309.118 667.669,312.045 C667.669,316.535 665.343,320.732 660.692,324.639 C656.041,328.545 651.044,330.498 645.7,330.498 C642.575,330.498 639.94,329.686 637.794,328.061 C635.773,326.3 634.763,324.087 634.763,321.42 C634.763,317.055 637.075,312.889 641.7,308.92 C646.325,304.951 651.336,302.967 656.731,302.967"/>
<path class="Note" d="M2363.38,277.967 C2366.5,277.967 2369.11,278.748 2371.19,280.311 C2373.27,281.873 2374.32,284.118 2374.32,287.045 C2374.32,291.535 2371.99,295.732 2367.34,299.639 C2362.69,303.545 2357.69,305.498 2352.35,305.498 C2349.22,305.498 2346.59,304.686 2344.44,303.061 C2342.42,301.3 2341.41,299.087 2341.41,296.42 C2341.41,292.055 2343.72,287.889 2348.35,283.92 C2352.97,279.951 2357.98,277.967 2363.38,277.967"/>
<path class="Note" d="M2290.59,252.967 C2293.71,252.967 2296.32,253.748 2298.4,255.311 C2300.48,256.873 2301.52,259.118 2301.52,262.045 C2301.52,266.535 2299.2,270.732 2294.55,274.639 C2289.9,278.545 2284.9,280.498 2279.56,280.498 C2276.43,280.498 2273.8,279.686 2271.65,278.061 C2269.63,276.3 2268.62,274.087 2268.62,271.42 C2268.62,267.055 2270.93,262.889 2275.56,258.92 C2280.18,254.951 2285.19,252.967 2290.59,252.967"/>
<path class="Note" d="M1440.46,364.873 C1442.35,364.873 1446.3,362.92 1452.33,359.014 C1458.36,355.107 1461.91,352.488 1462.98,351.154 C1464.05,349.821 1464.59,348.634 1464.59,347.592 C1464.59,346.55 1464.16,345.623 1463.31,344.811 C1462.47,343.998 1461.49,343.592 1460.39,343.592 C1458.44,343.592 1454.45,345.561 1448.42,349.498 C1442.4,353.436 1438.86,356.055 1437.82,357.357 C1436.78,358.66 1436.26,359.831 1436.26,360.873 C1436.26,361.915 1436.67,362.842 1437.49,363.654 C1438.3,364.467 1439.3,364.873 1440.46,364.873 M1459.42,340.467 C1465.01,340.467 1467.81,342.873 1467.81,347.686 C1467.81,350.029 1467.12,352.748 1465.76,355.842 C1464.4,358.936 1462.57,361.295 1460.29,362.92 C1455.28,366.305 1449,367.998 1441.45,367.998 C1435.84,367.998 1433.04,365.592 1433.04,360.779 C1433.04,358.634 1433.71,355.964 1435.04,352.772 C1436.37,349.579 1438.21,347.17 1440.56,345.545 C1445.58,342.16 1451.86,340.467 1459.42,340.467"/>
<path class="Note" d="M864.964,277.967 C868.089,277.967 870.693,278.748 872.777,280.311 C874.86,281.873 875.902,284.118 875.902,287.045 C875.902,291.535 873.576,295.732 868.925,299.639 C864.274,303.545 859.277,305.498 853.933,305.498 C850.808,305.498 848.173,304.686 846.027,303.061 C844.006,301.3 842.996,299.087 842.996,296.42 C842.996,292.055 845.308,287.889 849.933,283.92 C854.558,279.951 859.568,277.967 864.964,277.967"/>
<path class="Note" d="M341.268,802.373 C343.153,802.373 347.109,800.42 353.135,796.514 C359.161,792.608 362.71,789.988 363.783,788.655 C364.856,787.321 365.393,786.134 365.393,785.092 C365.393,784.05 364.968,783.123 364.119,782.311 C363.27,781.498 362.294,781.092 361.19,781.092 C359.242,781.092 355.255,783.061 349.229,786.998 C343.203,790.936 339.669,793.556 338.627,794.858 C337.585,796.16 337.065,797.332 337.065,798.373 C337.065,799.415 337.473,800.342 338.291,801.155 C339.109,801.967 340.101,802.373 341.268,802.373 M360.221,777.967 C365.815,777.967 368.611,780.373 368.611,785.186 C368.611,787.53 367.929,790.248 366.565,793.342 C365.2,796.436 363.377,798.795 361.096,800.42 C356.085,803.806 349.804,805.498 342.252,805.498 C336.648,805.498 333.846,803.092 333.846,798.28 C333.846,796.134 334.512,793.465 335.846,790.272 C337.179,787.079 339.018,784.67 341.361,783.045 C346.382,779.66 352.669,777.967 360.221,777.967"/>
<path class="Note" d="M1594.1,252.967 C1597.22,252.967 1599.83,253.748 1601.91,255.311 C1604,256.873 1605.04,259.118 1605.04,262.045 C1605.04,266.535 1602.71,270.732 1598.06,274.639 C1593.41,278.545 1588.41,280.498 1583.07,280.498 C1579.94,280.498 1577.31,279.686 1575.16,278.061 C1573.14,276.3 1572.13,274.087 1572.13,271.42 C1572.13,267.055 1574.44,262.889 1579.07,258.92 C1583.69,254.951 1588.7,252.967 1594.1,252.967"/>
<path class="Note" d="M2188.8,277.967 C2191.92,277.967 2194.52,278.748 2196.61,280.311 C2198.69,281.873 2199.73,284.118 2199.73,287.045 C2199.73,291.535 2197.41,295.732 2192.76,299.639 C2188.11,303.545 2183.11,305.498 2177.76,305.498 C2174.64,305.498 2172,304.686 2169.86,303.061 C2167.84,301.3 2166.83,299.087 2166.83,296.42 C2166.83,292.055 2169.14,287.889 2173.76,283.92 C2178.39,279.951 2183.4,277.967 2188.8,277.967"/>
<path class="Note" d="M1666.89,277.967 C1670.02,277.967 1672.62,278.748 1674.7,280.311 C1676.79,281.873 1677.83,284.118 1677.83,287.045 C1677.83,291.535 1675.5,295.732 1670.85,299.639 C1666.2,303.545 1661.2,305.498 1655.86,305.498 C1652.73,305.498 1650.1,304.686 1647.95,303.061 C1645.93,301.3 1644.92,299.087 1644.92,296.42 C1644.92,292.055 1647.23,287.889 1651.86,283.92 C1656.48,279.951 1661.49,277.967 1666.89,277.967"/>
<path class="Note" d="M2116,302.967 C2119.13,302.967 2121.73,303.748 2123.82,305.311 C2125.9,306.873 2126.94,309.118 2126.94,312.045 C2126.94,316.535 2124.62,320.732 2119.97,324.639 C2115.31,328.545 2110.32,330.498 2104.97,330.498 C2101.85,330.498 2099.21,329.686 2097.07,328.061 C2095.05,326.3 2094.04,324.087 2094.04,321.42 C2094.04,317.055 2096.35,312.889 2100.97,308.92 C2105.6,304.951 2110.61,302.967 2116,302.967"/>
<path class="Note" d="M705.259,302.967 C708.384,302.967 710.988,303.748 713.071,305.311 C715.155,306.873 716.196,309.118 716.196,312.045 C716.196,316.535 713.871,320.732 709.22,324.639 C704.569,328.545 699.571,330.498 694.228,330.498 C691.103,330.498 688.467,329.686 686.321,328.061 C684.301,326.3 683.29,324.087 683.29,321.42 C683.29,317.055 685.603,312.889 690.228,308.92 C694.853,304.951 699.863,302.967 705.259,302.967"/>
<path class="Note" d="M2029.09,302.967 C2032.21,302.967 2034.82,303.748 2036.9,305.311 C2038.99,306.873 2040.03,309.118 2040.03,312.045 C2040.03,316.535 2037.7,320.732 2033.05,324.639 C2028.4,328.545 2023.4,330.498 2018.06,330.498 C2014.93,330.498 2012.3,329.686 2010.15,328.061 C2008.13,326.3 2007.12,324.087 2007.12,321.42 C2007.12,317.055 2009.43,312.889 2014.06,308.92 C2018.68,304.951 2023.69,302.967 2029.09,302.967"/>
<path class="Note" d="M1754.14,327.373 C1756.02,327.373 1759.98,325.42 1766,321.514 C1772.03,317.607 1775.58,314.988 1776.65,313.654 C1777.72,312.321 1778.26,311.134 1778.26,310.092 C1778.26,309.05 1777.84,308.123 1776.99,307.311 C1776.14,306.498 1775.16,306.092 1774.06,306.092 C1772.11,306.092 1768.12,308.061 1762.1,311.998 C1756.07,315.936 1752.54,318.555 1751.49,319.857 C1750.45,321.16 1749.93,322.331 1749.93,323.373 C1749.93,324.415 1750.34,325.342 1751.16,326.154 C1751.98,326.967 1752.97,327.373 1754.14,327.373 M1773.09,302.967 C1778.68,302.967 1781.48,305.373 1781.48,310.186 C1781.48,312.529 1780.8,315.248 1779.43,318.342 C1778.07,321.436 1776.24,323.795 1773.96,325.42 C1768.95,328.805 1762.67,330.498 1755.12,330.498 C1749.52,330.498 1746.71,328.092 1746.71,323.279 C1746.71,321.134 1747.38,318.464 1748.71,315.272 C1750.05,312.079 1751.89,309.67 1754.23,308.045 C1759.25,304.66 1765.54,302.967 1773.09,302.967"/>
<path class="Note" d="M1039.55,277.967 C1042.67,277.967 1045.28,278.748 1047.36,280.311 C1049.44,281.873 1050.48,284.118 1050.48,287.045 C1050.48,291.535 1048.16,295.732 1043.51,299.639 C1038.86,303.545 1033.86,305.498 1028.52,305.498 C1025.39,305.498 1022.76,304.686 1020.61,303.061 C1018.59,301.3 1017.58,299.087 1017.58,296.42 C1017.58,292.055 1019.89,287.889 1024.52,283.92 C1029.14,279.951 1034.15,277.967 1039.55,277.967"/>
<path class="Note" d="M1980.56,302.967 C1983.69,302.967 1986.29,303.748 1988.37,305.311 C1990.46,306.873 1991.5,309.118 1991.5,312.045 C1991.5,316.535 1989.17,320.732 1984.52,324.639 C1979.87,328.545 1974.87,330.498 1969.53,330.498 C1966.41,330.498 1963.77,329.686 1961.62,328.061 C1959.6,326.3 1958.59,324.087 1958.59,321.42 C1958.59,317.055 1960.91,312.889 1965.53,308.92 C1970.16,304.951 1975.17,302.967 1980.56,302.967"/>
<path class="Note" d="M792.173,302.967 C795.298,302.967 797.902,303.748 799.986,305.311 C802.069,306.873 803.111,309.118 803.111,312.045 C803.111,316.535 800.785,320.732 796.134,324.639 C791.483,328.545 786.486,330.498 781.142,330.498 C778.017,330.498 775.381,329.686 773.236,328.061 C771.215,326.3 770.204,324.087 770.204,321.42 C770.204,317.055 772.517,312.889 777.142,308.92 C781.767,304.951 786.777,302.967 792.173,302.967"/>
<path class="Clef" d="M203.623,423.858 L203.623,421.717 C203.56,420.613 203.399,418.889 203.139,416.545 C199.889,417.066 196.993,417.326 194.451,417.326 C185.337,417.326 177.605,413.727 171.256,406.529 C164.907,399.331 161.732,390.753 161.732,380.795 C161.732,378.128 162.253,374.923 163.295,371.178 C164.337,367.433 165.297,364.925 166.178,363.654 C167.058,362.384 168.378,360.154 170.139,356.967 C170.659,355.988 172.352,353.837 175.217,350.514 C175.738,349.805 176.193,349.222 176.584,348.764 C176.975,348.305 177.607,347.49 178.482,346.318 C179.357,345.147 180.3,344.055 181.31,343.045 C182.321,342.035 183.217,341.058 183.998,340.115 C184.779,339.173 185.498,338.378 186.154,337.733 C183.81,329.983 182.378,324.024 181.857,319.858 C181.337,315.691 181.076,310.579 181.076,304.522 C181.076,298.464 182.378,292.962 184.982,288.014 C187.514,282.878 191.06,278.68 195.623,275.42 C195.883,275.222 196.225,275.123 196.646,275.123 C197.068,275.123 197.378,275.222 197.576,275.42 C201.087,279.649 204.128,285.149 206.701,291.92 C209.274,298.691 210.56,305.024 210.56,310.92 C210.56,316.816 209.066,322.498 206.076,327.967 C202.691,333.759 198.326,339.748 192.982,345.936 C194.347,350.227 196.17,356.962 198.451,366.139 L199.045,366.139 C199.305,366.076 199.529,366.045 199.717,366.045 C207.081,366.045 213.089,368.634 217.74,373.811 C222.391,378.988 224.717,384.962 224.717,391.733 C224.717,400.128 221.238,406.899 214.279,412.045 C212.258,413.545 209.878,414.717 207.139,415.561 C207.472,419.79 207.639,422.605 207.639,424.006 C207.639,425.407 207.571,427.899 207.435,431.483 C207.373,437.597 205.29,442.837 201.185,447.201 C197.081,451.566 192.394,453.748 187.123,453.748 C181.852,453.748 177.36,451.876 173.646,448.131 C169.933,444.386 168.076,439.847 168.076,434.514 C168.076,431.712 169.154,429.331 171.31,427.373 C173.519,425.425 176.006,424.451 178.771,424.451 C181.537,424.451 183.8,425.462 185.56,427.483 C187.383,429.368 188.295,431.644 188.295,434.311 C188.295,436.977 187.383,439.222 185.56,441.045 C183.738,442.868 181.555,443.779 179.014,443.779 C177.972,443.779 176.967,443.587 175.998,443.201 C178.863,447.43 182.54,449.545 187.029,449.545 C191.519,449.545 195.36,447.691 198.553,443.983 C201.745,440.274 203.342,435.91 203.342,430.889 L203.623,423.858 M206.748,411.561 C210.133,410.321 212.821,408.123 214.81,404.967 C216.8,401.811 217.795,398.67 217.795,395.545 C217.795,390.92 216.199,386.785 213.006,383.139 C209.813,379.493 205.774,377.441 200.889,376.983 C203.691,390.722 205.644,402.248 206.748,411.561 M168.967,388.998 C168.967,395.446 171.537,401.079 176.678,405.897 C181.818,410.714 187.842,413.123 194.748,413.123 C197.477,413.123 200.144,412.925 202.748,412.529 C201.706,402.634 199.654,390.785 196.592,376.983 C192.758,377.378 189.782,378.699 187.662,380.943 C185.542,383.188 184.482,385.743 184.482,388.608 C184.482,393.555 187.123,397.561 192.404,400.623 C192.852,400.884 193.076,401.324 193.076,401.943 C193.076,402.563 192.865,403.1 192.443,403.553 C192.021,404.006 191.649,404.233 191.326,404.233 C191.003,404.233 190.581,404.17 190.06,404.045 C182.435,399.878 178.623,393.592 178.623,385.186 C178.623,381.217 180.024,377.41 182.826,373.764 C185.753,370.118 189.56,367.774 194.248,366.733 C192.425,359.441 190.93,353.743 189.764,349.639 C180.847,359.67 175.31,367.092 173.154,371.904 C170.363,378.154 168.967,383.852 168.967,388.998 M201.576,289.686 C196.691,292.092 192.834,295.574 190.006,300.131 C187.178,304.688 185.764,309.472 185.764,314.483 C185.764,319.493 186.935,325.972 189.279,333.92 C193.967,328.253 197.514,322.946 199.92,317.998 C202.326,313.05 203.529,308.152 203.529,303.303 C203.529,298.454 202.878,293.915 201.576,289.686"/>
<path class="Clef" d="M203.623,898.858 L203.623,896.717 C203.56,895.613 203.399,893.889 203.139,891.545 C199.889,892.066 196.993,892.327 194.451,892.327 C185.337,892.327 177.605,888.728 171.256,881.53 C164.907,874.332 161.732,865.754 161.732,855.795 C161.732,853.129 162.253,849.923 163.295,846.178 C164.337,842.433 165.297,839.926 166.178,838.655 C167.058,837.384 168.378,835.155 170.139,831.967 C170.659,830.988 172.352,828.837 175.217,825.514 C175.738,824.806 176.193,824.222 176.584,823.764 C176.975,823.306 177.607,822.491 178.482,821.319 C179.357,820.147 180.3,819.056 181.31,818.045 C182.321,817.035 183.217,816.058 183.998,815.116 C184.779,814.173 185.498,813.379 186.154,812.733 C183.81,804.983 182.378,799.024 181.857,794.858 C181.337,790.691 181.076,785.579 181.076,779.522 C181.076,773.465 182.378,767.962 184.982,763.014 C187.514,757.879 191.06,753.681 195.623,750.42 C195.883,750.222 196.225,750.123 196.646,750.123 C197.068,750.123 197.378,750.222 197.576,750.42 C201.087,754.649 204.128,760.149 206.701,766.92 C209.274,773.691 210.56,780.024 210.56,785.92 C210.56,791.816 209.066,797.498 206.076,802.967 C202.691,808.759 198.326,814.748 192.982,820.936 C194.347,825.228 196.17,831.962 198.451,841.139 L199.045,841.139 C199.305,841.077 199.529,841.045 199.717,841.045 C207.081,841.045 213.089,843.634 217.74,848.811 C222.391,853.988 224.717,859.962 224.717,866.733 C224.717,875.129 221.238,881.899 214.279,887.045 C212.258,888.545 209.878,889.717 207.139,890.561 C207.472,894.79 207.639,897.605 207.639,899.006 C207.639,900.407 207.571,902.899 207.435,906.483 C207.373,912.597 205.29,917.837 201.185,922.202 C197.081,926.566 192.394,928.748 187.123,928.748 C181.852,928.748 177.36,926.876 173.646,923.131 C169.933,919.386 168.076,914.847 168.076,909.514 C168.076,906.712 169.154,904.332 171.31,902.373 C173.519,900.426 176.006,899.452 178.771,899.452 C181.537,899.452 183.8,900.462 185.56,902.483 C187.383,904.368 188.295,906.644 188.295,909.311 C188.295,911.978 187.383,914.222 185.56,916.045 C183.738,917.868 181.555,918.78 179.014,918.78 C177.972,918.78 176.967,918.587 175.998,918.202 C178.863,922.431 182.54,924.545 187.029,924.545 C191.519,924.545 195.36,922.691 198.553,918.983 C201.745,915.274 203.342,910.91 203.342,905.889 L203.623,898.858 M206.748,886.561 C210.133,885.321 212.821,883.123 214.81,879.967 C216.8,876.811 217.795,873.67 217.795,870.545 C217.795,865.92 216.199,861.785 213.006,858.139 C209.813,854.493 205.774,852.441 200.889,851.983 C203.691,865.722 205.644,877.248 206.748,886.561 M168.967,863.998 C168.967,870.446 171.537,876.079 176.678,880.897 C181.818,885.715 187.842,888.123 194.748,888.123 C197.477,888.123 200.144,887.926 202.748,887.53 C201.706,877.634 199.654,865.785 196.592,851.983 C192.758,852.379 189.782,853.699 187.662,855.944 C185.542,858.189 184.482,860.743 184.482,863.608 C184.482,868.556 187.123,872.561 192.404,875.623 C192.852,875.884 193.076,876.324 193.076,876.944 C193.076,877.564 192.865,878.1 192.443,878.553 C192.021,879.006 191.649,879.233 191.326,879.233 C191.003,879.233 190.581,879.17 190.06,879.045 C182.435,874.879 178.623,868.592 178.623,860.186 C178.623,856.217 180.024,852.41 182.826,848.764 C185.753,845.118 189.56,842.774 194.248,841.733 C192.425,834.441 190.93,828.743 189.764,824.639 C180.847,834.67 175.31,842.092 173.154,846.905 C170.363,853.155 168.967,858.853 168.967,863.998 M201.576,764.686 C196.691,767.092 192.834,770.574 190.006,775.131 C187.178,779.689 185.764,784.472 185.764,789.483 C185.764,794.493 186.935,800.972 189.279,808.92 C193.967,803.254 197.514,797.946 199.92,792.998 C202.326,788.051 203.529,783.152 203.529,778.303 C203.529,773.454 202.878,768.915 201.576,764.686"/>
<path class="KeySig" d="M251.123,859.311 L249.857,797.202 C249.857,796.222 250.623,795.733 252.154,795.733 C253.686,795.733 254.451,796.222 254.451,797.202 L253.67,831.092 C255.43,829.332 256.943,828.11 258.209,827.428 C259.475,826.746 261.199,826.405 263.381,826.405 C265.563,826.405 267.581,827.412 269.436,829.428 C271.29,831.444 272.217,833.952 272.217,836.952 C272.217,841.441 267.498,847.66 258.061,855.608 C254.55,858.795 252.727,860.389 252.592,860.389 L252.014,860.389 C251.42,860.389 251.123,860.03 251.123,859.311 M253.576,834.217 L253.279,856.389 C255.3,854.493 257.352,851.347 259.436,846.952 C261.519,842.556 262.561,838.795 262.561,835.67 C262.561,834.108 262.3,832.676 261.779,831.373 C261.258,830.071 260.443,829.42 259.334,829.42 C258.225,829.42 257.23,829.811 256.35,830.592 C255.469,831.373 254.545,832.582 253.576,834.217"/>
<path class="KeySig" d="M251.123,384.311 L249.857,322.201 C249.857,321.222 250.623,320.733 252.154,320.733 C253.686,320.733 254.451,321.222 254.451,322.201 L253.67,356.092 C255.43,354.331 256.943,353.11 258.209,352.428 C259.475,351.746 261.199,351.404 263.381,351.404 C265.563,351.404 267.581,352.412 269.436,354.428 C271.29,356.443 272.217,358.951 272.217,361.951 C272.217,366.441 267.498,372.66 258.061,380.608 C254.55,383.795 252.727,385.389 252.592,385.389 L252.014,385.389 C251.42,385.389 251.123,385.029 251.123,384.311 M253.576,359.217 L253.279,381.389 C255.3,379.493 257.352,376.347 259.436,371.951 C261.519,367.555 262.561,363.795 262.561,360.67 C262.561,359.108 262.3,357.675 261.779,356.373 C261.258,355.071 260.443,354.42 259.334,354.42 C258.225,354.42 257.23,354.811 256.35,355.592 C255.469,356.373 254.545,357.581 253.576,359.217"/>
<path class="TimeSig" d="M321.998,366.732 C320.04,366.732 318.279,366.376 316.717,365.662 C315.154,364.949 313.982,364.134 313.201,363.217 C311.441,361.134 309.649,360.092 307.826,360.092 C306.003,360.092 304.524,360.597 303.389,361.607 C302.253,362.618 301.618,363.967 301.482,365.654 C301.357,366.373 300.936,366.732 300.217,366.732 C299.498,366.732 299.139,366.373 299.139,365.654 C299.139,361.165 301.16,357.165 305.201,353.654 C307.149,351.956 308.873,350.555 310.373,349.451 C311.873,348.347 313.696,346.884 315.842,345.061 C320.394,341.144 322.67,336.519 322.67,331.186 C322.67,327.863 322.118,324.998 321.014,322.592 C319.847,320.248 318.055,319.076 315.639,319.076 C314.149,319.076 312.93,319.402 311.982,320.053 C311.035,320.704 310.561,321.535 310.561,322.545 C310.561,323.555 311.147,324.743 312.318,326.107 C313.49,327.472 314.076,328.613 314.076,329.529 C314.076,331.477 313.41,333.118 312.076,334.451 C310.743,335.785 309.115,336.451 307.193,336.451 C305.272,336.451 303.628,335.769 302.264,334.404 C300.962,332.977 300.311,331.352 300.311,329.529 C300.311,325.811 301.808,322.748 304.803,320.342 C307.798,317.936 311.607,316.732 316.232,316.732 C320.857,316.732 325.024,318.066 328.732,320.732 C332.441,323.399 334.295,326.884 334.295,331.186 C334.295,337.113 332.311,341.347 328.342,343.889 C324.894,346.097 321.248,347.967 317.404,349.498 C313.561,351.029 310.889,352.285 309.389,353.264 C310.243,353.066 311.123,352.967 312.029,352.967 C314.956,352.967 318.081,353.943 321.404,355.897 C324.727,357.85 327.365,358.826 329.318,358.826 C331.272,358.826 332.509,358.191 333.029,356.92 C333.55,355.649 334.102,355.014 334.686,355.014 C335.467,355.014 335.857,355.404 335.857,356.186 C335.857,358.009 334.571,360.222 331.998,362.826 C329.425,365.43 326.092,366.732 321.998,366.732"/>
<path class="TimeSig" d="M320.537,368.084 C322.032,368.084 323.464,367.858 324.834,367.404 C326.204,366.951 327.18,366.725 327.764,366.725 C328.347,366.725 328.738,367.079 328.936,367.787 C328.936,367.86 328.868,368.058 328.732,368.381 L300.326,401.397 L317.014,401.397 L317.014,388.303 C317.014,386.678 317.962,385.506 319.857,384.787 C321.805,384.068 324.019,381.173 326.498,376.1 C326.686,375.704 326.977,375.506 327.373,375.506 C328.154,375.506 328.607,375.964 328.732,376.881 L328.732,401.397 L335.873,401.397 C336.779,401.397 337.266,401.884 337.334,402.858 C337.402,403.831 336.915,404.318 335.873,404.318 L328.732,404.318 L328.732,405.1 C328.732,407.704 329.383,409.917 330.686,411.74 C332.186,413.563 333.946,414.475 335.967,414.475 C336.748,414.475 337.139,414.865 337.139,415.647 C337.139,416.428 336.602,416.818 335.529,416.818 C334.456,416.818 332.454,416.608 329.522,416.186 C326.589,415.764 324.326,415.553 322.732,415.553 C321.139,415.553 318.925,415.764 316.092,416.186 C313.258,416.608 311.128,416.818 309.701,416.818 C308.92,416.818 308.529,416.428 308.529,415.647 C308.529,414.865 308.92,414.475 309.701,414.475 C311.712,414.475 313.467,413.563 314.967,411.74 C316.331,409.855 317.014,407.641 317.014,405.1 L317.014,404.318 L300.326,404.318 C299.472,404.318 298.735,404.092 298.115,403.639 C297.495,403.186 297.186,402.764 297.186,402.373 C297.186,401.983 298.001,400.811 299.631,398.858 C301.261,396.904 303.589,393.144 306.615,387.576 C309.641,382.009 311.154,375.61 311.154,368.381 C311.154,367.339 311.613,366.818 312.529,366.818 C312.727,366.818 313.037,366.884 313.459,367.014 C313.881,367.144 314.792,367.355 316.193,367.647 C317.594,367.938 319.042,368.084 320.537,368.084"/>
<path class="Rest" d="M387.779,361.451 C387.123,360.608 386.795,359.696 386.795,358.717 C386.795,356.967 388.884,354.529 393.061,351.404 C397.154,348.206 399.201,344.561 399.201,340.467 C399.201,338.05 398.358,335.837 396.67,333.826 L393.154,329.623 C392.894,329.363 392.764,329.037 392.764,328.647 C392.764,328.256 392.956,327.899 393.342,327.576 C393.8,327.243 394.225,327.076 394.615,327.076 C395.006,327.076 395.331,327.274 395.592,327.67 L410.733,345.639 C411.378,346.483 411.701,347.41 411.701,348.42 C411.701,349.43 411.165,350.522 410.092,351.693 C409.019,352.865 407.509,354.233 405.561,355.795 C404.061,356.701 402.644,358.131 401.311,360.084 C399.977,362.037 399.311,364.253 399.311,366.733 C399.311,369.212 400.092,371.394 401.654,373.279 L410.045,383.139 C410.243,383.337 410.373,383.662 410.436,384.115 C410.498,384.568 410.334,384.959 409.943,385.287 C409.553,385.615 409.246,385.779 409.022,385.779 C408.798,385.779 408.212,385.404 407.264,384.654 C406.316,383.904 404.98,383.173 403.256,382.459 C401.532,381.746 399.824,381.389 398.131,381.389 C396.438,381.389 395.105,381.844 394.131,382.756 C393.157,383.667 392.67,385.766 392.67,389.053 C392.67,392.339 393.613,395.123 395.498,397.404 C395.696,397.665 395.73,397.956 395.6,398.279 C395.469,398.602 395.209,398.764 394.818,398.764 C394.428,398.764 393.433,397.561 391.834,395.154 C390.235,392.748 388.704,389.899 387.24,386.608 C385.777,383.316 385.045,380.566 385.045,378.358 C385.045,375.555 386.477,374.154 389.342,374.154 C392.206,374.154 396.081,375.196 400.967,377.279 L387.779,361.451 "/>
<path class="Rest" d="M506.502,832.358 L470.956,832.358 C470.299,832.358 469.971,832.035 469.971,831.389 L469.971,817.717 C469.971,817.061 470.299,816.733 470.956,816.733 L506.502,816.733 C507.148,816.733 507.471,817.061 507.471,817.717 L507.471,831.389 C507.471,832.035 507.148,832.358 506.502,832.358"/>
<path class="Beam" fill-rule="evenodd" d="M1958.59,385.483 L2010.37,385.483 L2010.37,397.983 L1958.59,397.983 L1958.59,385.483 "/>
<path class="Beam" fill-rule="evenodd" d="M634.763,385.483 L686.54,385.483 L686.54,397.983 L634.763,397.983 L634.763,385.483 "/>
</svg>
