<?xml version="1.0" encoding="UTF-8" standalone="no"?>
<svg width="2977.2px" height="4208.4px" viewBox="0 0 2977.2 4208.4"
 xmlns="http://www.w3.org/2000/svg" xmlns:xlink="http://www.w3.org/1999/xlink" version="1.2" baseProfile="tiny">
<title>F_Blues.mscx</title>
<desc>Generated by MuseScore Studio 4.3.1</desc>
<path class="" fill="#ffffff" fill-rule="evenodd" d="M0,0 L2977.2,0 L2977.2,4208.4 L0,4208.4 L0,0 "/>
<polyline class="StaffLines" fill="none" stroke="#000000" stroke-width="2.00" stroke-linejoin="bevel" points="141.732,566.733 2835.47,566.733"/>
<polyline class="StaffLines" fill="none" stroke="#000000" stroke-width="2.00" stroke-linejoin="bevel" points="141.732,591.733 2835.47,591.733"/>
<polyline class="StaffLines" fill="none" stroke="#000000" stroke-width="2.00" stroke-linejoin="bevel" points="141.732,616.733 2835.47,616.733"/>
<polyline class="StaffLines" fill="none" stroke="#000000" stroke-width="2.00" stroke-linejoin="bevel" points="141.732,641.733 2835.47,641.733"/>
<polyline class="StaffLines" fill="none" stroke="#000000" stroke-width="2.00" stroke-linejoin="bevel" points="141.732,666.733 2835.47,666.733"/>
<polyline class="BarLine" fill="none" stroke="#000000" stroke-width="4.00" stroke-linejoin="bevel" points="1557.34,565.733 1557.34,667.733"/>
<polyline class="BarLine" fill="none" stroke="#000000" stroke-width="4.00" stroke-linejoin="bevel" points="2802.72,565.733 2802.72,667.733"/>
<polyline class="BarLine" fill="none" stroke="#000000" stroke-width="12.50" stroke-linejoin="bevel" points="2829.22,565.733 2829.22,667.733"/>
<polyline class="BarLine" fill="none" stroke="#000000" stroke-width="4.00" stroke-linejoin="bevel" points="2494,565.733 2494,667.733"/>
<polyline class="BarLine" fill="none" stroke="#000000" stroke-width="4.00" stroke-linejoin="bevel" points="1248.63,565.733 1248.63,667.733"/>
<polyline class="BarLine" fill="none" stroke="#000000" stroke-width="4.00" stroke-linejoin="bevel" points="1866.06,565.733 1866.06,667.733"/>
<polyline class="BarLine" fill="none" stroke="#000000" stroke-width="4.00" stroke-linejoin="bevel" points="620.685,565.733 620.685,667.733"/>
<polyline class="BarLine" fill="none" stroke="#000000" stroke-width="4.00" stroke-linejoin="bevel" points="939.915,565.733 939.915,667.733"/>
<polyline class="BarLine" fill="none" stroke="#000000" stroke-width="4.00" stroke-linejoin="bevel" points="2174.77,565.733 2174.77,667.733"/>
<path class="Accidental" d="M631.576,634.311 L630.31,572.201 C630.31,571.222 631.076,570.733 632.607,570.733 C634.138,570.733 634.904,571.222 634.904,572.201 L634.123,606.092 C635.883,604.332 637.396,603.11 638.662,602.428 C639.927,601.746 641.651,601.405 643.834,601.405 C646.016,601.405 648.034,602.412 649.888,604.428 C651.743,606.444 652.67,608.951 652.67,611.951 C652.67,616.441 647.951,622.66 638.513,630.608 C635.003,633.795 633.18,635.389 633.045,635.389 L632.467,635.389 C631.873,635.389 631.576,635.03 631.576,634.311 M634.029,609.217 L633.732,631.389 C635.753,629.493 637.805,626.347 639.888,621.951 C641.972,617.556 643.013,613.795 643.013,610.67 C643.013,609.108 642.753,607.675 642.232,606.373 C641.711,605.071 640.896,604.42 639.787,604.42 C638.677,604.42 637.683,604.811 636.802,605.592 C635.922,606.373 634.998,607.582 634.029,609.217"/>
<path class="Accidental" d="M2325.07,646.811 L2323.8,584.701 C2323.8,583.722 2324.57,583.233 2326.1,583.233 C2327.63,583.233 2328.4,583.722 2328.4,584.701 L2327.62,618.592 C2329.38,616.832 2330.89,615.61 2332.16,614.928 C2333.42,614.246 2335.15,613.905 2337.33,613.905 C2339.51,613.905 2341.53,614.912 2343.38,616.928 C2345.24,618.944 2346.16,621.451 2346.16,624.451 C2346.16,628.941 2341.45,635.16 2332.01,643.108 C2328.5,646.295 2326.67,647.889 2326.54,647.889 L2325.96,647.889 C2325.37,647.889 2325.07,647.53 2325.07,646.811 M2327.52,621.717 L2327.23,643.889 C2329.25,641.993 2331.3,638.847 2333.38,634.451 C2335.47,630.056 2336.51,626.295 2336.51,623.17 C2336.51,621.608 2336.25,620.175 2335.73,618.873 C2335.21,617.571 2334.39,616.92 2333.28,616.92 C2332.17,616.92 2331.18,617.311 2330.3,618.092 C2329.42,618.873 2328.49,620.082 2327.52,621.717"/>
<path class="Accidental" d="M1079.7,596.811 L1078.43,534.701 C1078.43,533.722 1079.2,533.233 1080.73,533.233 C1082.26,533.233 1083.02,533.722 1083.02,534.701 L1082.24,568.592 C1084,566.832 1085.52,565.61 1086.78,564.928 C1088.05,564.246 1089.77,563.905 1091.95,563.905 C1094.14,563.905 1096.15,564.912 1098.01,566.928 C1099.86,568.944 1100.79,571.451 1100.79,574.451 C1100.79,578.941 1096.07,585.16 1086.63,593.108 C1083.12,596.295 1081.3,597.889 1081.17,597.889 L1080.59,597.889 C1079.99,597.889 1079.7,597.53 1079.7,596.811 M1082.15,571.717 L1081.85,593.889 C1083.87,591.993 1085.93,588.847 1088.01,584.451 C1090.09,580.056 1091.13,576.295 1091.13,573.17 C1091.13,571.608 1090.87,570.175 1090.35,568.873 C1089.83,567.571 1089.02,566.92 1087.91,566.92 C1086.8,566.92 1085.8,567.311 1084.92,568.092 C1084.04,568.873 1083.12,570.082 1082.15,571.717"/>
<path class="Accidental" d="M1697.13,596.811 L1695.86,534.701 C1695.86,533.722 1696.63,533.233 1698.16,533.233 C1699.69,533.233 1700.45,533.722 1700.45,534.701 L1699.67,568.592 C1701.43,566.832 1702.95,565.61 1704.21,564.928 C1705.48,564.246 1707.2,563.905 1709.38,563.905 C1711.57,563.905 1713.58,564.912 1715.44,566.928 C1717.29,568.944 1718.22,571.451 1718.22,574.451 C1718.22,578.941 1713.5,585.16 1704.06,593.108 C1700.55,596.295 1698.73,597.889 1698.59,597.889 L1698.02,597.889 C1697.42,597.889 1697.13,597.53 1697.13,596.811 M1699.58,571.717 L1699.28,593.889 C1701.3,591.993 1703.35,588.847 1705.44,584.451 C1707.52,580.056 1708.56,576.295 1708.56,573.17 C1708.56,571.608 1708.3,570.175 1707.78,568.873 C1707.26,567.571 1706.45,566.92 1705.34,566.92 C1704.23,566.92 1703.23,567.311 1702.35,568.092 C1701.47,568.873 1700.55,570.082 1699.58,571.717"/>
<path class="Accidental" d="M2185.66,634.311 L2184.4,572.201 C2184.4,571.222 2185.16,570.733 2186.7,570.733 C2188.23,570.733 2188.99,571.222 2188.99,572.201 L2188.21,606.092 C2189.97,604.332 2191.48,603.11 2192.75,602.428 C2194.02,601.746 2195.74,601.405 2197.92,601.405 C2200.1,601.405 2202.12,602.412 2203.98,604.428 C2205.83,606.444 2206.76,608.951 2206.76,611.951 C2206.76,616.441 2202.04,622.66 2192.6,630.608 C2189.09,633.795 2187.27,635.389 2187.13,635.389 L2186.55,635.389 C2185.96,635.389 2185.66,635.03 2185.66,634.311 M2188.12,609.217 L2187.82,631.389 C2189.84,629.493 2191.89,626.347 2193.98,621.951 C2196.06,617.556 2197.1,613.795 2197.1,610.67 C2197.1,609.108 2196.84,607.675 2196.32,606.373 C2195.8,605.071 2194.98,604.42 2193.88,604.42 C2192.77,604.42 2191.77,604.811 2190.89,605.592 C2190.01,606.373 2189.09,607.582 2188.12,609.217"/>
<path class="Accidental" d="M451.752,646.811 L450.486,584.701 C450.486,583.722 451.252,583.233 452.783,583.233 C454.314,583.233 455.08,583.722 455.08,584.701 L454.299,618.592 C456.059,616.832 457.572,615.61 458.838,614.928 C460.103,614.246 461.827,613.905 464.01,613.905 C466.192,613.905 468.21,614.912 470.064,616.928 C471.919,618.944 472.846,621.451 472.846,624.451 C472.846,628.941 468.127,635.16 458.689,643.108 C455.179,646.295 453.356,647.889 453.221,647.889 L452.642,647.889 C452.049,647.889 451.752,647.53 451.752,646.811 M454.205,621.717 L453.908,643.889 C455.929,641.993 457.981,638.847 460.064,634.451 C462.148,630.056 463.189,626.295 463.189,623.17 C463.189,621.608 462.929,620.175 462.408,618.873 C461.887,617.571 461.072,616.92 459.963,616.92 C458.853,616.92 457.859,617.311 456.978,618.092 C456.098,618.873 455.174,620.082 454.205,621.717"/>
<path class="Accidental" d="M777.373,637.045 C776.196,637.368 775.607,636.915 775.607,635.686 L775.607,580.983 C775.607,579.618 776.128,578.936 777.17,578.936 C778.211,578.936 778.732,579.618 778.732,580.983 L778.732,600.811 L790.263,596.42 C791.43,596.097 792.013,596.55 792.013,597.78 L792.013,652.483 C792.013,653.847 791.492,654.53 790.451,654.53 C789.409,654.53 788.888,653.847 788.888,652.483 L788.888,632.655 L777.373,637.045 M778.732,625.811 L788.888,621.905 L788.888,607.655 L778.732,611.561 L778.732,625.811 "/>
<polyline class="Stem" fill="none" stroke="#000000" stroke-width="3.25" stroke-linejoin="bevel" points="2213.91,621.633 2213.91,691.733"/>
<polyline class="Stem" fill="none" stroke="#000000" stroke-width="3.25" stroke-linejoin="bevel" points="1725.38,584.133 1725.38,666.733"/>
<polyline class="Stem" fill="none" stroke="#000000" stroke-width="3.25" stroke-linejoin="bevel" points="2384.79,624.433 2384.79,547.983"/>
<polyline class="Stem" fill="none" stroke="#000000" stroke-width="3.25" stroke-linejoin="bevel" points="1894.68,609.133 1894.68,685.483"/>
<polyline class="Stem" fill="none" stroke="#000000" stroke-width="3.25" stroke-linejoin="bevel" points="1585.97,571.633 1585.97,654.233"/>
<polyline class="Stem" fill="none" stroke="#000000" stroke-width="3.25" stroke-linejoin="bevel" points="2034.09,621.633 2034.09,691.733"/>
<polyline class="Stem" fill="none" stroke="#000000" stroke-width="3.25" stroke-linejoin="bevel" points="2554.1,649.433 2554.1,566.733"/>
<polyline class="Stem" fill="none" stroke="#000000" stroke-width="3.25" stroke-linejoin="bevel" points="1277.26,571.633 1277.26,654.233"/>
<polyline class="Stem" fill="none" stroke="#000000" stroke-width="3.25" stroke-linejoin="bevel" points="372.065,649.433 372.065,566.733"/>
<polyline class="Stem" fill="none" stroke="#000000" stroke-width="3.25" stroke-linejoin="bevel" points="1107.95,584.133 1107.95,666.733"/>
<polyline class="Stem" fill="none" stroke="#000000" stroke-width="3.25" stroke-linejoin="bevel" points="511.471,624.433 511.471,547.983"/>
<polyline class="Stem" fill="none" stroke="#000000" stroke-width="3.25" stroke-linejoin="bevel" points="968.54,609.133 968.54,685.483"/>
<polyline class="Stem" fill="none" stroke="#000000" stroke-width="3.25" stroke-linejoin="bevel" points="799.232,621.633 799.232,691.733"/>
<polyline class="Stem" fill="none" stroke="#000000" stroke-width="3.25" stroke-linejoin="bevel" points="659.826,621.633 659.826,691.733"/>
<path class="Note" d="M665.623,627.373 C667.508,627.373 671.464,625.42 677.49,621.514 C683.516,617.608 687.066,614.988 688.138,613.655 C689.211,612.321 689.748,611.134 689.748,610.092 C689.748,609.05 689.323,608.123 688.474,607.311 C687.625,606.498 686.649,606.092 685.545,606.092 C683.597,606.092 679.61,608.061 673.584,611.998 C667.558,615.936 664.024,618.556 662.982,619.858 C661.941,621.16 661.42,622.332 661.42,623.373 C661.42,624.415 661.829,625.342 662.646,626.155 C663.464,626.967 664.456,627.373 665.623,627.373 M684.576,602.967 C690.17,602.967 692.967,605.373 692.967,610.186 C692.967,612.53 692.284,615.248 690.92,618.342 C689.555,621.436 687.732,623.795 685.451,625.42 C680.441,628.806 674.159,630.498 666.607,630.498 C661.003,630.498 658.201,628.092 658.201,623.28 C658.201,621.134 658.868,618.464 660.201,615.272 C661.534,612.079 663.373,609.67 665.717,608.045 C670.737,604.66 677.024,602.967 684.576,602.967"/>
<path class="Note" d="M2528.43,664.873 C2530.31,664.873 2534.27,662.92 2540.29,659.014 C2546.32,655.108 2549.87,652.488 2550.94,651.155 C2552.01,649.821 2552.55,648.634 2552.55,647.592 C2552.55,646.55 2552.13,645.623 2551.28,644.811 C2550.43,643.998 2549.45,643.592 2548.35,643.592 C2546.4,643.592 2542.41,645.561 2536.39,649.498 C2530.36,653.436 2526.83,656.056 2525.79,657.358 C2524.74,658.66 2524.22,659.832 2524.22,660.873 C2524.22,661.915 2524.63,662.842 2525.45,663.655 C2526.27,664.467 2527.26,664.873 2528.43,664.873 M2547.38,640.467 C2552.97,640.467 2555.77,642.873 2555.77,647.686 C2555.77,650.03 2555.09,652.748 2553.72,655.842 C2552.36,658.936 2550.54,661.295 2548.25,662.92 C2543.24,666.306 2536.96,667.998 2529.41,667.998 C2523.81,667.998 2521,665.592 2521,660.78 C2521,658.634 2521.67,655.964 2523,652.772 C2524.34,649.579 2526.18,647.17 2528.52,645.545 C2533.54,642.16 2539.83,640.467 2547.38,640.467"/>
<path class="Note" d="M2359.12,639.873 C2361,639.873 2364.96,637.92 2370.98,634.014 C2377.01,630.108 2380.56,627.488 2381.63,626.155 C2382.71,624.821 2383.24,623.634 2383.24,622.592 C2383.24,621.55 2382.82,620.623 2381.97,619.811 C2381.12,618.998 2380.14,618.592 2379.04,618.592 C2377.09,618.592 2373.1,620.561 2367.08,624.498 C2361.05,628.436 2357.52,631.056 2356.48,632.358 C2355.43,633.66 2354.91,634.832 2354.91,635.873 C2354.91,636.915 2355.32,637.842 2356.14,638.655 C2356.96,639.467 2357.95,639.873 2359.12,639.873 M2378.07,615.467 C2383.66,615.467 2386.46,617.873 2386.46,622.686 C2386.46,625.03 2385.78,627.748 2384.41,630.842 C2383.05,633.936 2381.23,636.295 2378.95,637.92 C2373.93,641.306 2367.65,642.998 2360.1,642.998 C2354.5,642.998 2351.7,640.592 2351.7,635.78 C2351.7,633.634 2352.36,630.964 2353.7,627.772 C2355.03,624.579 2356.87,622.17 2359.21,620.545 C2364.23,617.16 2370.52,615.467 2378.07,615.467"/>
<path class="Note" d="M346.393,664.873 C348.278,664.873 352.234,662.92 358.26,659.014 C364.286,655.108 367.835,652.488 368.908,651.155 C369.981,649.821 370.518,648.634 370.518,647.592 C370.518,646.55 370.093,645.623 369.244,644.811 C368.395,643.998 367.419,643.592 366.315,643.592 C364.367,643.592 360.38,645.561 354.354,649.498 C348.328,653.436 344.794,656.056 343.752,657.358 C342.71,658.66 342.19,659.832 342.19,660.873 C342.19,661.915 342.598,662.842 343.416,663.655 C344.234,664.467 345.226,664.873 346.393,664.873 M365.346,640.467 C370.94,640.467 373.736,642.873 373.736,647.686 C373.736,650.03 373.054,652.748 371.69,655.842 C370.325,658.936 368.502,661.295 366.221,662.92 C361.21,666.306 354.929,667.998 347.377,667.998 C341.773,667.998 338.971,665.592 338.971,660.78 C338.971,658.634 339.637,655.964 340.971,652.772 C342.304,649.579 344.143,647.17 346.486,645.545 C351.507,642.16 357.794,640.467 365.346,640.467"/>
<path class="Note" d="M2219.71,627.373 C2221.6,627.373 2225.55,625.42 2231.58,621.514 C2237.6,617.608 2241.15,614.988 2242.23,613.655 C2243.3,612.321 2243.84,611.134 2243.84,610.092 C2243.84,609.05 2243.41,608.123 2242.56,607.311 C2241.71,606.498 2240.74,606.092 2239.63,606.092 C2237.69,606.092 2233.7,608.061 2227.67,611.998 C2221.65,615.936 2218.11,618.556 2217.07,619.858 C2216.03,621.16 2215.51,622.332 2215.51,623.373 C2215.51,624.415 2215.92,625.342 2216.73,626.155 C2217.55,626.967 2218.54,627.373 2219.71,627.373 M2238.66,602.967 C2244.26,602.967 2247.05,605.373 2247.05,610.186 C2247.05,612.53 2246.37,615.248 2245.01,618.342 C2243.64,621.436 2241.82,623.795 2239.54,625.42 C2234.53,628.806 2228.25,630.498 2220.7,630.498 C2215.09,630.498 2212.29,628.092 2212.29,623.28 C2212.29,621.134 2212.96,618.464 2214.29,615.272 C2215.62,612.079 2217.46,609.67 2219.8,608.045 C2224.83,604.66 2231.11,602.967 2238.66,602.967"/>
<path class="Note" d="M485.799,639.873 C487.684,639.873 491.64,637.92 497.666,634.014 C503.692,630.108 507.241,627.488 508.314,626.155 C509.387,624.821 509.924,623.634 509.924,622.592 C509.924,621.55 509.499,620.623 508.65,619.811 C507.801,618.998 506.825,618.592 505.721,618.592 C503.773,618.592 499.786,620.561 493.76,624.498 C487.734,628.436 484.2,631.056 483.158,632.358 C482.116,633.66 481.596,634.832 481.596,635.873 C481.596,636.915 482.004,637.842 482.822,638.655 C483.64,639.467 484.632,639.873 485.799,639.873 M504.752,615.467 C510.346,615.467 513.142,617.873 513.142,622.686 C513.142,625.03 512.46,627.748 511.096,630.842 C509.731,633.936 507.908,636.295 505.627,637.92 C500.616,641.306 494.335,642.998 486.783,642.998 C481.179,642.998 478.377,640.592 478.377,635.78 C478.377,633.634 479.044,630.964 480.377,627.772 C481.71,624.579 483.549,622.17 485.892,620.545 C490.913,617.16 497.2,615.467 504.752,615.467"/>
<path class="Note" d="M1283.05,577.373 C1284.94,577.373 1288.89,575.42 1294.92,571.514 C1300.95,567.608 1304.49,564.988 1305.57,563.655 C1306.64,562.321 1307.18,561.134 1307.18,560.092 C1307.18,559.05 1306.75,558.123 1305.9,557.311 C1305.05,556.498 1304.08,556.092 1302.97,556.092 C1301.03,556.092 1297.04,558.061 1291.01,561.998 C1284.99,565.936 1281.45,568.556 1280.41,569.858 C1279.37,571.16 1278.85,572.332 1278.85,573.373 C1278.85,574.415 1279.26,575.342 1280.08,576.155 C1280.89,576.967 1281.89,577.373 1283.05,577.373 M1302.01,552.967 C1307.6,552.967 1310.4,555.373 1310.4,560.186 C1310.4,562.53 1309.71,565.248 1308.35,568.342 C1306.98,571.436 1305.16,573.795 1302.88,575.42 C1297.87,578.806 1291.59,580.498 1284.04,580.498 C1278.43,580.498 1275.63,578.092 1275.63,573.28 C1275.63,571.134 1276.3,568.464 1277.63,565.272 C1278.96,562.079 1280.8,559.67 1283.15,558.045 C1288.17,554.66 1294.45,552.967 1302.01,552.967"/>
<path class="Note" d="M2039.89,627.373 C2041.77,627.373 2045.73,625.42 2051.75,621.514 C2057.78,617.608 2061.33,614.988 2062.4,613.655 C2063.48,612.321 2064.01,611.134 2064.01,610.092 C2064.01,609.05 2063.59,608.123 2062.74,607.311 C2061.89,606.498 2060.91,606.092 2059.81,606.092 C2057.86,606.092 2053.87,608.061 2047.85,611.998 C2041.82,615.936 2038.29,618.556 2037.25,619.858 C2036.2,621.16 2035.68,622.332 2035.68,623.373 C2035.68,624.415 2036.09,625.342 2036.91,626.155 C2037.73,626.967 2038.72,627.373 2039.89,627.373 M2058.84,602.967 C2064.43,602.967 2067.23,605.373 2067.23,610.186 C2067.23,612.53 2066.55,615.248 2065.18,618.342 C2063.82,621.436 2062,623.795 2059.72,625.42 C2054.7,628.806 2048.42,630.498 2040.87,630.498 C2035.27,630.498 2032.47,628.092 2032.47,623.28 C2032.47,621.134 2033.13,618.464 2034.47,615.272 C2035.8,612.079 2037.64,609.67 2039.98,608.045 C2045,604.66 2051.29,602.967 2058.84,602.967"/>
<path class="Note" d="M1900.48,614.873 C1902.37,614.873 1906.32,612.92 1912.35,609.014 C1918.37,605.108 1921.92,602.488 1923,601.155 C1924.07,599.821 1924.61,598.634 1924.61,597.592 C1924.61,596.55 1924.18,595.623 1923.33,594.811 C1922.48,593.998 1921.51,593.592 1920.4,593.592 C1918.45,593.592 1914.47,595.561 1908.44,599.498 C1902.42,603.436 1898.88,606.056 1897.84,607.358 C1896.8,608.66 1896.28,609.832 1896.28,610.873 C1896.28,611.915 1896.69,612.842 1897.5,613.655 C1898.32,614.467 1899.31,614.873 1900.48,614.873 M1919.43,590.467 C1925.03,590.467 1927.82,592.873 1927.82,597.686 C1927.82,600.03 1927.14,602.748 1925.78,605.842 C1924.41,608.936 1922.59,611.295 1920.31,612.92 C1915.3,616.306 1909.02,617.998 1901.47,617.998 C1895.86,617.998 1893.06,615.592 1893.06,610.78 C1893.06,608.634 1893.73,605.964 1895.06,602.772 C1896.39,599.579 1898.23,597.17 1900.57,595.545 C1905.6,592.16 1911.88,590.467 1919.43,590.467"/>
<path class="Note" d="M805.029,627.373 C806.914,627.373 810.87,625.42 816.896,621.514 C822.922,617.608 826.472,614.988 827.545,613.655 C828.617,612.321 829.154,611.134 829.154,610.092 C829.154,609.05 828.729,608.123 827.88,607.311 C827.032,606.498 826.055,606.092 824.951,606.092 C823.003,606.092 819.016,608.061 812.99,611.998 C806.964,615.936 803.43,618.556 802.388,619.858 C801.347,621.16 800.826,622.332 800.826,623.373 C800.826,624.415 801.235,625.342 802.052,626.155 C802.87,626.967 803.862,627.373 805.029,627.373 M823.982,602.967 C829.576,602.967 832.373,605.373 832.373,610.186 C832.373,612.53 831.69,615.248 830.326,618.342 C828.961,621.436 827.138,623.795 824.857,625.42 C819.847,628.806 813.565,630.498 806.013,630.498 C800.409,630.498 797.607,628.092 797.607,623.28 C797.607,621.134 798.274,618.464 799.607,615.272 C800.94,612.079 802.779,609.67 805.123,608.045 C810.143,604.66 816.43,602.967 823.982,602.967"/>
<path class="Note" d="M974.337,614.873 C976.223,614.873 980.178,612.92 986.205,609.014 C992.231,605.108 995.78,602.488 996.853,601.155 C997.926,599.821 998.462,598.634 998.462,597.592 C998.462,596.55 998.038,595.623 997.189,594.811 C996.34,593.998 995.363,593.592 994.259,593.592 C992.311,593.592 988.324,595.561 982.298,599.498 C976.272,603.436 972.738,606.056 971.697,607.358 C970.655,608.66 970.134,609.832 970.134,610.873 C970.134,611.915 970.543,612.842 971.361,613.655 C972.178,614.467 973.171,614.873 974.337,614.873 M993.29,590.467 C998.884,590.467 1001.68,592.873 1001.68,597.686 C1001.68,600.03 1001,602.748 999.634,605.842 C998.27,608.936 996.447,611.295 994.165,612.92 C989.155,616.306 982.874,617.998 975.322,617.998 C969.718,617.998 966.915,615.592 966.915,610.78 C966.915,608.634 967.582,605.964 968.915,602.772 C970.249,599.579 972.087,597.17 974.431,595.545 C979.452,592.16 985.738,590.467 993.29,590.467"/>
<path class="Note" d="M1731.17,589.873 C1733.06,589.873 1737.01,587.92 1743.04,584.014 C1749.07,580.108 1752.62,577.488 1753.69,576.155 C1754.76,574.821 1755.3,573.634 1755.3,572.592 C1755.3,571.55 1754.87,570.623 1754.02,569.811 C1753.18,568.998 1752.2,568.592 1751.09,568.592 C1749.15,568.592 1745.16,570.561 1739.13,574.498 C1733.11,578.436 1729.57,581.056 1728.53,582.358 C1727.49,583.66 1726.97,584.832 1726.97,585.873 C1726.97,586.915 1727.38,587.842 1728.2,588.655 C1729.01,589.467 1730.01,589.873 1731.17,589.873 M1750.13,565.467 C1755.72,565.467 1758.52,567.873 1758.52,572.686 C1758.52,575.03 1757.83,577.748 1756.47,580.842 C1755.1,583.936 1753.28,586.295 1751,587.92 C1745.99,591.306 1739.71,592.998 1732.16,592.998 C1726.55,592.998 1723.75,590.592 1723.75,585.78 C1723.75,583.634 1724.42,580.964 1725.75,577.772 C1727.08,574.579 1728.92,572.17 1731.27,570.545 C1736.29,567.16 1742.57,565.467 1750.13,565.467"/>
<path class="Note" d="M1113.74,589.873 C1115.63,589.873 1119.58,587.92 1125.61,584.014 C1131.64,580.108 1135.19,577.488 1136.26,576.155 C1137.33,574.821 1137.87,573.634 1137.87,572.592 C1137.87,571.55 1137.44,570.623 1136.6,569.811 C1135.75,568.998 1134.77,568.592 1133.67,568.592 C1131.72,568.592 1127.73,570.561 1121.7,574.498 C1115.68,578.436 1112.14,581.056 1111.1,582.358 C1110.06,583.66 1109.54,584.832 1109.54,585.873 C1109.54,586.915 1109.95,587.842 1110.77,588.655 C1111.58,589.467 1112.58,589.873 1113.74,589.873 M1132.7,565.467 C1138.29,565.467 1141.09,567.873 1141.09,572.686 C1141.09,575.03 1140.4,577.748 1139.04,580.842 C1137.68,583.936 1135.85,586.295 1133.57,587.92 C1128.56,591.306 1122.28,592.998 1114.73,592.998 C1109.12,592.998 1106.32,590.592 1106.32,585.78 C1106.32,583.634 1106.99,580.964 1108.32,577.772 C1109.65,574.579 1111.49,572.17 1113.84,570.545 C1118.86,567.16 1125.14,565.467 1132.7,565.467"/>
<path class="Note" d="M1591.77,577.373 C1593.65,577.373 1597.61,575.42 1603.63,571.514 C1609.66,567.608 1613.21,564.988 1614.28,563.655 C1615.35,562.321 1615.89,561.134 1615.89,560.092 C1615.89,559.05 1615.47,558.123 1614.62,557.311 C1613.77,556.498 1612.79,556.092 1611.69,556.092 C1609.74,556.092 1605.75,558.061 1599.73,561.998 C1593.7,565.936 1590.17,568.556 1589.13,569.858 C1588.08,571.16 1587.56,572.332 1587.56,573.373 C1587.56,574.415 1587.97,575.342 1588.79,576.155 C1589.61,576.967 1590.6,577.373 1591.77,577.373 M1610.72,552.967 C1616.31,552.967 1619.11,555.373 1619.11,560.186 C1619.11,562.53 1618.43,565.248 1617.06,568.342 C1615.7,571.436 1613.88,573.795 1611.59,575.42 C1606.58,578.806 1600.3,580.498 1592.75,580.498 C1587.15,580.498 1584.34,578.092 1584.34,573.28 C1584.34,571.134 1585.01,568.464 1586.34,565.272 C1587.68,562.079 1589.52,559.67 1591.86,558.045 C1596.88,554.66 1603.17,552.967 1610.72,552.967"/>
<path class="Clef" d="M203.623,673.858 L203.623,671.717 C203.56,670.613 203.399,668.889 203.139,666.545 C199.889,667.066 196.993,667.326 194.451,667.326 C185.337,667.326 177.605,663.727 171.256,656.53 C164.907,649.332 161.732,640.754 161.732,630.795 C161.732,628.129 162.253,624.923 163.295,621.178 C164.337,617.433 165.297,614.925 166.178,613.655 C167.058,612.384 168.378,610.155 170.139,606.967 C170.659,605.988 172.352,603.837 175.217,600.514 C175.738,599.806 176.193,599.222 176.584,598.764 C176.975,598.306 177.607,597.49 178.482,596.319 C179.357,595.147 180.3,594.056 181.31,593.045 C182.321,592.035 183.217,591.058 183.998,590.115 C184.779,589.173 185.498,588.379 186.154,587.733 C183.81,579.983 182.378,574.024 181.857,569.858 C181.337,565.691 181.076,560.579 181.076,554.522 C181.076,548.464 182.378,542.962 184.982,538.014 C187.514,532.879 191.06,528.681 195.623,525.42 C195.883,525.222 196.225,525.123 196.646,525.123 C197.068,525.123 197.378,525.222 197.576,525.42 C201.087,529.649 204.128,535.149 206.701,541.92 C209.274,548.691 210.56,555.024 210.56,560.92 C210.56,566.816 209.066,572.498 206.076,577.967 C202.691,583.759 198.326,589.748 192.982,595.936 C194.347,600.227 196.17,606.962 198.451,616.139 L199.045,616.139 C199.305,616.076 199.529,616.045 199.717,616.045 C207.081,616.045 213.089,618.634 217.74,623.811 C222.391,628.988 224.717,634.962 224.717,641.733 C224.717,650.129 221.238,656.899 214.279,662.045 C212.258,663.545 209.878,664.717 207.139,665.561 C207.472,669.79 207.639,672.605 207.639,674.006 C207.639,675.407 207.571,677.899 207.435,681.483 C207.373,687.597 205.29,692.837 201.185,697.201 C197.081,701.566 192.394,703.748 187.123,703.748 C181.852,703.748 177.36,701.876 173.646,698.131 C169.933,694.386 168.076,689.847 168.076,684.514 C168.076,681.712 169.154,679.332 171.31,677.373 C173.519,675.425 176.006,674.451 178.771,674.451 C181.537,674.451 183.8,675.462 185.56,677.483 C187.383,679.368 188.295,681.644 188.295,684.311 C188.295,686.977 187.383,689.222 185.56,691.045 C183.738,692.868 181.555,693.78 179.014,693.78 C177.972,693.78 176.967,693.587 175.998,693.201 C178.863,697.431 182.54,699.545 187.029,699.545 C191.519,699.545 195.36,697.691 198.553,693.983 C201.745,690.274 203.342,685.91 203.342,680.889 L203.623,673.858 M206.748,661.561 C210.133,660.321 212.821,658.123 214.81,654.967 C216.8,651.811 217.795,648.67 217.795,645.545 C217.795,640.92 216.199,636.785 213.006,633.139 C209.813,629.493 205.774,627.441 200.889,626.983 C203.691,640.722 205.644,652.248 206.748,661.561 M168.967,638.998 C168.967,645.446 171.537,651.079 176.678,655.897 C181.818,660.714 187.842,663.123 194.748,663.123 C197.477,663.123 200.144,662.925 202.748,662.53 C201.706,652.634 199.654,640.785 196.592,626.983 C192.758,627.379 189.782,628.699 187.662,630.944 C185.542,633.188 184.482,635.743 184.482,638.608 C184.482,643.556 187.123,647.561 192.404,650.623 C192.852,650.884 193.076,651.324 193.076,651.944 C193.076,652.563 192.865,653.1 192.443,653.553 C192.021,654.006 191.649,654.233 191.326,654.233 C191.003,654.233 190.581,654.17 190.06,654.045 C182.435,649.879 178.623,643.592 178.623,635.186 C178.623,631.217 180.024,627.41 182.826,623.764 C185.753,620.118 189.56,617.774 194.248,616.733 C192.425,609.441 190.93,603.743 189.764,599.639 C180.847,609.67 175.31,617.092 173.154,621.905 C170.363,628.155 168.967,633.852 168.967,638.998 M201.576,539.686 C196.691,542.092 192.834,545.574 190.006,550.131 C187.178,554.688 185.764,559.472 185.764,564.483 C185.764,569.493 186.935,575.972 189.279,583.92 C193.967,578.254 197.514,572.946 199.92,567.998 C202.326,563.05 203.529,558.152 203.529,553.303 C203.529,548.454 202.878,543.915 201.576,539.686"/>
<path class="TimeSig" d="M273.021,567.912 C274.516,567.912 275.949,567.686 277.318,567.233 C278.688,566.78 279.665,566.553 280.248,566.553 C280.831,566.553 281.222,566.907 281.42,567.615 C281.42,567.688 281.352,567.886 281.217,568.209 L252.811,601.225 L269.498,601.225 L269.498,588.131 C269.498,586.506 270.446,585.334 272.342,584.615 C274.29,583.897 276.503,581.001 278.982,575.928 C279.17,575.532 279.462,575.334 279.857,575.334 C280.639,575.334 281.092,575.793 281.217,576.709 L281.217,601.225 L288.357,601.225 C289.264,601.225 289.751,601.712 289.818,602.686 C289.886,603.66 289.399,604.147 288.357,604.147 L281.217,604.147 L281.217,604.928 C281.217,607.532 281.868,609.746 283.17,611.569 C284.67,613.391 286.43,614.303 288.451,614.303 C289.232,614.303 289.623,614.694 289.623,615.475 C289.623,616.256 289.087,616.647 288.014,616.647 C286.941,616.647 284.938,616.436 282.006,616.014 C279.074,615.592 276.811,615.381 275.217,615.381 C273.623,615.381 271.41,615.592 268.576,616.014 C265.743,616.436 263.613,616.647 262.186,616.647 C261.404,616.647 261.014,616.256 261.014,615.475 C261.014,614.694 261.404,614.303 262.186,614.303 C264.196,614.303 265.951,613.391 267.451,611.569 C268.816,609.683 269.498,607.47 269.498,604.928 L269.498,604.147 L252.811,604.147 C251.956,604.147 251.219,603.92 250.6,603.467 C249.98,603.014 249.67,602.592 249.67,602.201 C249.67,601.811 250.485,600.639 252.115,598.686 C253.745,596.733 256.074,592.972 259.1,587.405 C262.126,581.837 263.639,575.438 263.639,568.209 C263.639,567.168 264.097,566.647 265.014,566.647 C265.212,566.647 265.521,566.712 265.943,566.842 C266.365,566.972 267.277,567.183 268.678,567.475 C270.079,567.766 271.527,567.912 273.021,567.912"/>
<path class="TimeSig" d="M273.021,618.084 C274.516,618.084 275.949,617.858 277.318,617.405 C278.688,616.951 279.665,616.725 280.248,616.725 C280.831,616.725 281.222,617.079 281.42,617.787 C281.42,617.86 281.352,618.058 281.217,618.381 L252.811,651.397 L269.498,651.397 L269.498,638.303 C269.498,636.678 270.446,635.506 272.342,634.787 C274.29,634.069 276.503,631.173 278.982,626.1 C279.17,625.704 279.462,625.506 279.857,625.506 C280.639,625.506 281.092,625.964 281.217,626.881 L281.217,651.397 L288.357,651.397 C289.264,651.397 289.751,651.884 289.818,652.858 C289.886,653.832 289.399,654.319 288.357,654.319 L281.217,654.319 L281.217,655.1 C281.217,657.704 281.868,659.918 283.17,661.74 C284.67,663.563 286.43,664.475 288.451,664.475 C289.232,664.475 289.623,664.865 289.623,665.647 C289.623,666.428 289.087,666.819 288.014,666.819 C286.941,666.819 284.938,666.608 282.006,666.186 C279.074,665.764 276.811,665.553 275.217,665.553 C273.623,665.553 271.41,665.764 268.576,666.186 C265.743,666.608 263.613,666.819 262.186,666.819 C261.404,666.819 261.014,666.428 261.014,665.647 C261.014,664.865 261.404,664.475 262.186,664.475 C264.196,664.475 265.951,663.563 267.451,661.74 C268.816,659.855 269.498,657.642 269.498,655.1 L269.498,654.319 L252.811,654.319 C251.956,654.319 251.219,654.092 250.6,653.639 C249.98,653.186 249.67,652.764 249.67,652.373 C249.67,651.983 250.485,650.811 252.115,648.858 C253.745,646.905 256.074,643.144 259.1,637.576 C262.126,632.009 263.639,625.61 263.639,618.381 C263.639,617.339 264.097,616.819 265.014,616.819 C265.212,616.819 265.521,616.884 265.943,617.014 C266.365,617.144 267.277,617.355 268.678,617.647 C270.079,617.938 271.527,618.084 273.021,618.084"/>
<path class="Rest" d="M1452.47,616.733 L1416.92,616.733 C1416.27,616.733 1415.94,616.405 1415.94,615.748 L1415.94,602.076 C1415.94,601.431 1416.27,601.108 1416.92,601.108 L1452.47,601.108 C1453.12,601.108 1453.44,601.431 1453.44,602.076 L1453.44,615.748 C1453.44,616.405 1453.12,616.733 1452.47,616.733"/>
<path class="Rest" d="M2697.84,616.733 L2662.3,616.733 C2661.64,616.733 2661.31,616.405 2661.31,615.748 L2661.31,602.076 C2661.31,601.431 2661.64,601.108 2662.3,601.108 L2697.84,601.108 C2698.49,601.108 2698.81,601.431 2698.81,602.076 L2698.81,615.748 C2698.81,616.405 2698.49,616.733 2697.84,616.733"/>
</svg>
