<?xml version="1.0" encoding="UTF-8" standalone="no"?>
<svg width="2977.2px" height="4208.4px" viewBox="0 0 2977.2 4208.4"
 xmlns="http://www.w3.org/2000/svg" xmlns:xlink="http://www.w3.org/1999/xlink" version="1.2" baseProfile="tiny">
<title>G_Blues.mscx</title>
<desc>Generated by MuseScore Studio 4.3.1</desc>
<path class="" fill="#ffffff" fill-rule="evenodd" d="M0,0 L2977.2,0 L2977.2,4208.4 L0,4208.4 L0,0 "/>
<polyline class="StaffLines" fill="none" stroke="#000000" stroke-width="2.00" stroke-linejoin="bevel" points="141.732,566.733 2835.47,566.733"/>
<polyline class="StaffLines" fill="none" stroke="#000000" stroke-width="2.00" stroke-linejoin="bevel" points="141.732,591.733 2835.47,591.733"/>
<polyline class="StaffLines" fill="none" stroke="#000000" stroke-width="2.00" stroke-linejoin="bevel" points="141.732,616.733 2835.47,616.733"/>
<polyline class="StaffLines" fill="none" stroke="#000000" stroke-width="2.00" stroke-linejoin="bevel" points="141.732,641.733 2835.47,641.733"/>
<polyline class="StaffLines" fill="none" stroke="#000000" stroke-width="2.00" stroke-linejoin="bevel" points="141.732,666.733 2835.47,666.733"/>
<polyline class="BarLine" fill="none" stroke="#000000" stroke-width="4.00" stroke-linejoin="bevel" points="1246,565.733 1246,667.733"/>
<polyline class="BarLine" fill="none" stroke="#000000" stroke-width="4.00" stroke-linejoin="bevel" points="2491.37,565.733 2491.37,667.733"/>
<polyline class="BarLine" fill="none" stroke="#000000" stroke-width="4.00" stroke-linejoin="bevel" points="2180.03,565.733 2180.03,667.733"/>
<polyline class="BarLine" fill="none" stroke="#000000" stroke-width="4.00" stroke-linejoin="bevel" points="2802.72,565.733 2802.72,667.733"/>
<polyline class="BarLine" fill="none" stroke="#000000" stroke-width="12.50" stroke-linejoin="bevel" points="2829.22,565.733 2829.22,667.733"/>
<polyline class="BarLine" fill="none" stroke="#000000" stroke-width="4.00" stroke-linejoin="bevel" points="1868.69,565.733 1868.69,667.733"/>
<polyline class="BarLine" fill="none" stroke="#000000" stroke-width="4.00" stroke-linejoin="bevel" points="934.658,565.733 934.658,667.733"/>
<polyline class="BarLine" fill="none" stroke="#000000" stroke-width="4.00" stroke-linejoin="bevel" points="623.314,565.733 623.314,667.733"/>
<polyline class="BarLine" fill="none" stroke="#000000" stroke-width="4.00" stroke-linejoin="bevel" points="1557.34,565.733 1557.34,667.733"/>
<path class="Accidental" d="M2028.99,582.264 C2030.42,581.868 2031.14,582.222 2031.14,583.326 L2031.14,591.139 C2031.14,591.92 2030.52,592.54 2029.28,592.998 L2026.06,594.264 L2026.06,608.436 L2028.99,607.264 C2030.42,606.868 2031.14,607.227 2031.14,608.342 L2031.14,616.155 C2031.14,616.936 2030.52,617.55 2029.28,617.998 L2026.06,619.28 L2026.06,635.483 C2026.06,636.722 2025.58,637.342 2024.6,637.342 C2023.62,637.342 2023.13,636.722 2023.13,635.483 L2023.13,620.451 L2013.85,624.155 L2013.85,640.264 C2013.85,641.503 2013.36,642.123 2012.39,642.123 C2011.41,642.123 2010.92,641.503 2010.92,640.264 L2010.92,625.326 L2008.38,626.405 C2007.01,626.988 2006.33,626.597 2006.33,625.233 L2006.33,617.514 C2006.33,616.868 2006.92,616.285 2008.1,615.764 L2010.92,614.592 L2010.92,600.326 L2008.38,601.405 C2007.01,601.988 2006.33,601.597 2006.33,600.233 L2006.33,592.514 C2006.33,591.858 2006.92,591.269 2008.1,590.748 L2010.92,589.576 L2010.92,573.467 C2010.92,572.227 2011.41,571.608 2012.39,571.608 C2013.36,571.608 2013.85,572.227 2013.85,573.467 L2013.85,588.405 L2023.13,584.608 L2023.13,568.686 C2023.13,567.446 2023.62,566.826 2024.6,566.826 C2025.58,566.826 2026.06,567.446 2026.06,568.686 L2026.06,583.436 L2028.99,582.264 M2013.85,599.155 L2013.85,613.42 L2023.13,609.608 L2023.13,595.436 L2013.85,599.155 "/>
<path class="Accidental" d="M783.613,582.264 C785.05,581.868 785.769,582.222 785.769,583.326 L785.769,591.139 C785.769,591.92 785.149,592.54 783.91,592.998 L780.691,594.264 L780.691,608.436 L783.613,607.264 C785.05,606.868 785.769,607.227 785.769,608.342 L785.769,616.155 C785.769,616.936 785.149,617.55 783.91,617.998 L780.691,619.28 L780.691,635.483 C780.691,636.722 780.201,637.342 779.222,637.342 C778.243,637.342 777.753,636.722 777.753,635.483 L777.753,620.451 L768.472,624.155 L768.472,640.264 C768.472,641.503 767.985,642.123 767.011,642.123 C766.037,642.123 765.55,641.503 765.55,640.264 L765.55,625.326 L763.003,626.405 C761.639,626.988 760.957,626.597 760.957,625.233 L760.957,617.514 C760.957,616.868 761.545,616.285 762.722,615.764 L765.55,614.592 L765.55,600.326 L763.003,601.405 C761.639,601.988 760.957,601.597 760.957,600.233 L760.957,592.514 C760.957,591.858 761.545,591.269 762.722,590.748 L765.55,589.576 L765.55,573.467 C765.55,572.227 766.037,571.608 767.011,571.608 C767.985,571.608 768.472,572.227 768.472,573.467 L768.472,588.405 L777.753,584.608 L777.753,568.686 C777.753,567.446 778.243,566.826 779.222,566.826 C780.201,566.826 780.691,567.446 780.691,568.686 L780.691,583.436 L783.613,582.264 M768.472,599.155 L768.472,613.42 L777.753,609.608 L777.753,595.436 L768.472,599.155 "/>
<path class="Accidental" d="M472.269,607.264 C473.707,606.868 474.426,607.222 474.426,608.326 L474.426,616.139 C474.426,616.92 473.806,617.54 472.566,617.998 L469.348,619.264 L469.348,633.436 L472.269,632.264 C473.707,631.868 474.426,632.227 474.426,633.342 L474.426,641.155 C474.426,641.936 473.806,642.55 472.566,642.998 L469.348,644.28 L469.348,660.483 C469.348,661.722 468.858,662.342 467.879,662.342 C466.9,662.342 466.41,661.722 466.41,660.483 L466.41,645.451 L457.129,649.155 L457.129,665.264 C457.129,666.504 456.642,667.123 455.668,667.123 C454.694,667.123 454.207,666.504 454.207,665.264 L454.207,650.326 L451.66,651.405 C450.295,651.988 449.613,651.597 449.613,650.233 L449.613,642.514 C449.613,641.868 450.202,641.285 451.379,640.764 L454.207,639.592 L454.207,625.326 L451.66,626.405 C450.295,626.988 449.613,626.597 449.613,625.233 L449.613,617.514 C449.613,616.858 450.202,616.269 451.379,615.748 L454.207,614.576 L454.207,598.467 C454.207,597.227 454.694,596.608 455.668,596.608 C456.642,596.608 457.129,597.227 457.129,598.467 L457.129,613.405 L466.41,609.608 L466.41,593.686 C466.41,592.446 466.9,591.826 467.879,591.826 C468.858,591.826 469.348,592.446 469.348,593.686 L469.348,608.436 L472.269,607.264 M457.129,624.155 L457.129,638.42 L466.41,634.608 L466.41,620.436 L457.129,624.155 "/>
<path class="Accidental" d="M2340.33,607.264 C2341.77,606.868 2342.49,607.222 2342.49,608.326 L2342.49,616.139 C2342.49,616.92 2341.87,617.54 2340.63,617.998 L2337.41,619.264 L2337.41,633.436 L2340.33,632.264 C2341.77,631.868 2342.49,632.227 2342.49,633.342 L2342.49,641.155 C2342.49,641.936 2341.87,642.55 2340.63,642.998 L2337.41,644.28 L2337.41,660.483 C2337.41,661.722 2336.92,662.342 2335.94,662.342 C2334.96,662.342 2334.47,661.722 2334.47,660.483 L2334.47,645.451 L2325.19,649.155 L2325.19,665.264 C2325.19,666.504 2324.7,667.123 2323.73,667.123 C2322.75,667.123 2322.27,666.504 2322.27,665.264 L2322.27,650.326 L2319.72,651.405 C2318.36,651.988 2317.67,651.597 2317.67,650.233 L2317.67,642.514 C2317.67,641.868 2318.26,641.285 2319.44,640.764 L2322.27,639.592 L2322.27,625.326 L2319.72,626.405 C2318.36,626.988 2317.67,626.597 2317.67,625.233 L2317.67,617.514 C2317.67,616.858 2318.26,616.269 2319.44,615.748 L2322.27,614.576 L2322.27,598.467 C2322.27,597.227 2322.75,596.608 2323.73,596.608 C2324.7,596.608 2325.19,597.227 2325.19,598.467 L2325.19,613.405 L2334.47,609.608 L2334.47,593.686 C2334.47,592.446 2334.96,591.826 2335.94,591.826 C2336.92,591.826 2337.41,592.446 2337.41,593.686 L2337.41,608.436 L2340.33,607.264 M2325.19,624.155 L2325.19,638.42 L2334.47,634.608 L2334.47,620.436 L2325.19,624.155 "/>
<polyline class="Stem" fill="none" stroke="#000000" stroke-width="3.25" stroke-linejoin="bevel" points="1585.97,559.133 1585.97,641.733"/>
<polyline class="Stem" fill="none" stroke="#000000" stroke-width="3.25" stroke-linejoin="bevel" points="1726.69,571.633 1726.69,654.233"/>
<polyline class="Stem" fill="none" stroke="#000000" stroke-width="3.25" stroke-linejoin="bevel" points="1274.63,559.133 1274.63,641.733"/>
<polyline class="Stem" fill="none" stroke="#000000" stroke-width="3.25" stroke-linejoin="bevel" points="1897.31,596.633 1897.31,679.233"/>
<polyline class="Stem" fill="none" stroke="#000000" stroke-width="3.25" stroke-linejoin="bevel" points="2038.03,609.133 2038.03,685.483"/>
<polyline class="Stem" fill="none" stroke="#000000" stroke-width="3.25" stroke-linejoin="bevel" points="1104,571.633 1104,654.233"/>
<polyline class="Stem" fill="none" stroke="#000000" stroke-width="3.25" stroke-linejoin="bevel" points="2208.66,609.133 2208.66,685.483"/>
<polyline class="Stem" fill="none" stroke="#000000" stroke-width="3.25" stroke-linejoin="bevel" points="963.283,596.633 963.283,679.233"/>
<polyline class="Stem" fill="none" stroke="#000000" stroke-width="3.25" stroke-linejoin="bevel" points="792.66,609.133 792.66,685.483"/>
<polyline class="Stem" fill="none" stroke="#000000" stroke-width="3.25" stroke-linejoin="bevel" points="2380.85,624.433 2380.85,547.983"/>
<polyline class="Stem" fill="none" stroke="#000000" stroke-width="3.25" stroke-linejoin="bevel" points="651.939,609.133 651.939,685.483"/>
<polyline class="Stem" fill="none" stroke="#000000" stroke-width="3.25" stroke-linejoin="bevel" points="512.785,624.433 512.785,547.983"/>
<polyline class="Stem" fill="none" stroke="#000000" stroke-width="3.25" stroke-linejoin="bevel" points="372.065,636.933 372.065,554.233"/>
<polyline class="Stem" fill="none" stroke="#000000" stroke-width="3.25" stroke-linejoin="bevel" points="2551.47,636.933 2551.47,554.233"/>
<path class="Note" d="M2214.45,614.873 C2216.34,614.873 2220.29,612.92 2226.32,609.014 C2232.35,605.108 2235.9,602.488 2236.97,601.155 C2238.04,599.821 2238.58,598.634 2238.58,597.592 C2238.58,596.55 2238.15,595.623 2237.3,594.811 C2236.46,593.998 2235.48,593.592 2234.38,593.592 C2232.43,593.592 2228.44,595.561 2222.41,599.498 C2216.39,603.436 2212.85,606.056 2211.81,607.358 C2210.77,608.66 2210.25,609.832 2210.25,610.873 C2210.25,611.915 2210.66,612.842 2211.48,613.655 C2212.29,614.467 2213.29,614.873 2214.45,614.873 M2233.41,590.467 C2239,590.467 2241.8,592.873 2241.8,597.686 C2241.8,600.03 2241.11,602.748 2239.75,605.842 C2238.39,608.936 2236.56,611.295 2234.28,612.92 C2229.27,616.306 2222.99,617.998 2215.44,617.998 C2209.83,617.998 2207.03,615.592 2207.03,610.78 C2207.03,608.634 2207.7,605.964 2209.03,602.772 C2210.36,599.579 2212.2,597.17 2214.55,595.545 C2219.57,592.16 2225.85,590.467 2233.41,590.467"/>
<path class="Note" d="M2355.17,639.873 C2357.06,639.873 2361.02,637.92 2367.04,634.014 C2373.07,630.108 2376.62,627.488 2377.69,626.155 C2378.76,624.821 2379.3,623.634 2379.3,622.592 C2379.3,621.55 2378.87,620.623 2378.03,619.811 C2377.18,618.998 2376.2,618.592 2375.1,618.592 C2373.15,618.592 2369.16,620.561 2363.13,624.498 C2357.11,628.436 2353.57,631.056 2352.53,632.358 C2351.49,633.66 2350.97,634.832 2350.97,635.873 C2350.97,636.915 2351.38,637.842 2352.2,638.655 C2353.02,639.467 2354.01,639.873 2355.17,639.873 M2374.13,615.467 C2379.72,615.467 2382.52,617.873 2382.52,622.686 C2382.52,625.03 2381.84,627.748 2380.47,630.842 C2379.11,633.936 2377.28,636.295 2375,637.92 C2369.99,641.306 2363.71,642.998 2356.16,642.998 C2350.55,642.998 2347.75,640.592 2347.75,635.78 C2347.75,633.634 2348.42,630.964 2349.75,627.772 C2351.09,624.579 2352.92,622.17 2355.27,620.545 C2360.29,617.16 2366.57,615.467 2374.13,615.467"/>
<path class="Note" d="M2043.83,614.873 C2045.72,614.873 2049.67,612.92 2055.7,609.014 C2061.72,605.108 2065.27,602.488 2066.35,601.155 C2067.42,599.821 2067.96,598.634 2067.96,597.592 C2067.96,596.55 2067.53,595.623 2066.68,594.811 C2065.83,593.998 2064.86,593.592 2063.75,593.592 C2061.8,593.592 2057.82,595.561 2051.79,599.498 C2045.77,603.436 2042.23,606.056 2041.19,607.358 C2040.15,608.66 2039.63,609.832 2039.63,610.873 C2039.63,611.915 2040.04,612.842 2040.85,613.655 C2041.67,614.467 2042.66,614.873 2043.83,614.873 M2062.78,590.467 C2068.38,590.467 2071.17,592.873 2071.17,597.686 C2071.17,600.03 2070.49,602.748 2069.13,605.842 C2067.76,608.936 2065.94,611.295 2063.66,612.92 C2058.65,616.306 2052.37,617.998 2044.81,617.998 C2039.21,617.998 2036.41,615.592 2036.41,610.78 C2036.41,608.634 2037.08,605.964 2038.41,602.772 C2039.74,599.579 2041.58,597.17 2043.92,595.545 C2048.95,592.16 2055.23,590.467 2062.78,590.467"/>
<path class="Note" d="M2525.8,652.373 C2527.68,652.373 2531.64,650.42 2537.66,646.514 C2543.69,642.608 2547.24,639.988 2548.31,638.655 C2549.39,637.321 2549.92,636.134 2549.92,635.092 C2549.92,634.05 2549.5,633.123 2548.65,632.311 C2547.8,631.498 2546.82,631.092 2545.72,631.092 C2543.77,631.092 2539.78,633.061 2533.76,636.998 C2527.73,640.936 2524.2,643.556 2523.16,644.858 C2522.11,646.16 2521.59,647.332 2521.59,648.373 C2521.59,649.415 2522,650.342 2522.82,651.155 C2523.64,651.967 2524.63,652.373 2525.8,652.373 M2544.75,627.967 C2550.34,627.967 2553.14,630.373 2553.14,635.186 C2553.14,637.53 2552.46,640.248 2551.09,643.342 C2549.73,646.436 2547.91,648.795 2545.62,650.42 C2540.61,653.806 2534.33,655.498 2526.78,655.498 C2521.18,655.498 2518.37,653.092 2518.37,648.28 C2518.37,646.134 2519.04,643.464 2520.37,640.272 C2521.71,637.079 2523.55,634.67 2525.89,633.045 C2530.91,629.66 2537.2,627.967 2544.75,627.967"/>
<path class="Note" d="M1903.11,602.373 C1905,602.373 1908.95,600.42 1914.98,596.514 C1921,592.608 1924.55,589.988 1925.63,588.655 C1926.7,587.321 1927.23,586.134 1927.23,585.092 C1927.23,584.05 1926.81,583.123 1925.96,582.311 C1925.11,581.498 1924.14,581.092 1923.03,581.092 C1921.08,581.092 1917.1,583.061 1911.07,586.998 C1905.04,590.936 1901.51,593.556 1900.47,594.858 C1899.43,596.16 1898.91,597.332 1898.91,598.373 C1898.91,599.415 1899.32,600.342 1900.13,601.155 C1900.95,601.967 1901.94,602.373 1903.11,602.373 M1922.06,577.967 C1927.66,577.967 1930.45,580.373 1930.45,585.186 C1930.45,587.53 1929.77,590.248 1928.41,593.342 C1927.04,596.436 1925.22,598.795 1922.94,600.42 C1917.93,603.806 1911.65,605.498 1904.09,605.498 C1898.49,605.498 1895.69,603.092 1895.69,598.28 C1895.69,596.134 1896.35,593.464 1897.69,590.272 C1899.02,587.079 1900.86,584.67 1903.2,583.045 C1908.22,579.66 1914.51,577.967 1922.06,577.967"/>
<path class="Note" d="M1732.49,577.373 C1734.37,577.373 1738.33,575.42 1744.35,571.514 C1750.38,567.608 1753.93,564.988 1755,563.655 C1756.08,562.321 1756.61,561.134 1756.61,560.092 C1756.61,559.05 1756.19,558.123 1755.34,557.311 C1754.49,556.498 1753.51,556.092 1752.41,556.092 C1750.46,556.092 1746.47,558.061 1740.45,561.998 C1734.42,565.936 1730.89,568.556 1729.85,569.858 C1728.8,571.16 1728.28,572.332 1728.28,573.373 C1728.28,574.415 1728.69,575.342 1729.51,576.155 C1730.33,576.967 1731.32,577.373 1732.49,577.373 M1751.44,552.967 C1757.03,552.967 1759.83,555.373 1759.83,560.186 C1759.83,562.53 1759.15,565.248 1757.78,568.342 C1756.42,571.436 1754.6,573.795 1752.32,575.42 C1747.3,578.806 1741.02,580.498 1733.47,580.498 C1727.87,580.498 1725.07,578.092 1725.07,573.28 C1725.07,571.134 1725.73,568.464 1727.07,565.272 C1728.4,562.079 1730.24,559.67 1732.58,558.045 C1737.6,554.66 1743.89,552.967 1751.44,552.967"/>
<path class="Note" d="M1591.77,564.873 C1593.65,564.873 1597.61,562.92 1603.63,559.014 C1609.66,555.108 1613.21,552.488 1614.28,551.154 C1615.35,549.821 1615.89,548.634 1615.89,547.592 C1615.89,546.55 1615.47,545.623 1614.62,544.811 C1613.77,543.998 1612.79,543.592 1611.69,543.592 C1609.74,543.592 1605.75,545.561 1599.73,549.498 C1593.7,553.436 1590.17,556.056 1589.13,557.358 C1588.08,558.66 1587.56,559.832 1587.56,560.873 C1587.56,561.915 1587.97,562.842 1588.79,563.654 C1589.61,564.467 1590.6,564.873 1591.77,564.873 M1610.72,540.467 C1616.31,540.467 1619.11,542.873 1619.11,547.686 C1619.11,550.029 1618.43,552.748 1617.06,555.842 C1615.7,558.936 1613.88,561.295 1611.59,562.92 C1606.58,566.306 1600.3,567.998 1592.75,567.998 C1587.15,567.998 1584.34,565.592 1584.34,560.779 C1584.34,558.634 1585.01,555.964 1586.34,552.772 C1587.68,549.579 1589.52,547.17 1591.86,545.545 C1596.88,542.16 1603.17,540.467 1610.72,540.467"/>
<path class="Note" d="M1280.42,564.873 C1282.31,564.873 1286.26,562.92 1292.29,559.014 C1298.32,555.108 1301.87,552.488 1302.94,551.154 C1304.01,549.821 1304.55,548.634 1304.55,547.592 C1304.55,546.55 1304.12,545.623 1303.27,544.811 C1302.43,543.998 1301.45,543.592 1300.34,543.592 C1298.4,543.592 1294.41,545.561 1288.38,549.498 C1282.36,553.436 1278.82,556.056 1277.78,557.358 C1276.74,558.66 1276.22,559.832 1276.22,560.873 C1276.22,561.915 1276.63,562.842 1277.45,563.654 C1278.26,564.467 1279.26,564.873 1280.42,564.873 M1299.38,540.467 C1304.97,540.467 1307.77,542.873 1307.77,547.686 C1307.77,550.029 1307.08,552.748 1305.72,555.842 C1304.36,558.936 1302.53,561.295 1300.25,562.92 C1295.24,566.306 1288.96,567.998 1281.41,567.998 C1275.8,567.998 1273,565.592 1273,560.779 C1273,558.634 1273.67,555.964 1275,552.772 C1276.33,549.579 1278.17,547.17 1280.52,545.545 C1285.54,542.16 1291.82,540.467 1299.38,540.467"/>
<path class="Note" d="M1109.8,577.373 C1111.69,577.373 1115.64,575.42 1121.67,571.514 C1127.69,567.608 1131.24,564.988 1132.32,563.655 C1133.39,562.321 1133.93,561.134 1133.93,560.092 C1133.93,559.05 1133.5,558.123 1132.65,557.311 C1131.8,556.498 1130.83,556.092 1129.72,556.092 C1127.77,556.092 1123.79,558.061 1117.76,561.998 C1111.73,565.936 1108.2,568.556 1107.16,569.858 C1106.12,571.16 1105.6,572.332 1105.6,573.373 C1105.6,574.415 1106.01,575.342 1106.82,576.155 C1107.64,576.967 1108.63,577.373 1109.8,577.373 M1128.75,552.967 C1134.35,552.967 1137.14,555.373 1137.14,560.186 C1137.14,562.53 1136.46,565.248 1135.1,568.342 C1133.73,571.436 1131.91,573.795 1129.63,575.42 C1124.62,578.806 1118.34,580.498 1110.78,580.498 C1105.18,580.498 1102.38,578.092 1102.38,573.28 C1102.38,571.134 1103.04,568.464 1104.38,565.272 C1105.71,562.079 1107.55,559.67 1109.89,558.045 C1114.91,554.66 1121.2,552.967 1128.75,552.967"/>
<path class="Note" d="M969.08,602.373 C970.965,602.373 974.921,600.42 980.947,596.514 C986.973,592.608 990.522,589.988 991.595,588.655 C992.668,587.321 993.205,586.134 993.205,585.092 C993.205,584.05 992.78,583.123 991.931,582.311 C991.082,581.498 990.106,581.092 989.001,581.092 C987.053,581.092 983.067,583.061 977.04,586.998 C971.014,590.936 967.481,593.556 966.439,594.858 C965.397,596.16 964.876,597.332 964.876,598.373 C964.876,599.415 965.285,600.342 966.103,601.155 C966.921,601.967 967.913,602.373 969.08,602.373 M988.033,577.967 C993.626,577.967 996.423,580.373 996.423,585.186 C996.423,587.53 995.741,590.248 994.376,593.342 C993.012,596.436 991.189,598.795 988.908,600.42 C983.897,603.806 977.616,605.498 970.064,605.498 C964.46,605.498 961.658,603.092 961.658,598.28 C961.658,596.134 962.324,593.464 963.658,590.272 C964.991,587.079 966.83,584.67 969.173,583.045 C974.194,579.66 980.481,577.967 988.033,577.967"/>
<path class="Note" d="M798.457,614.873 C800.342,614.873 804.298,612.92 810.324,609.014 C816.35,605.108 819.899,602.488 820.972,601.155 C822.045,599.821 822.582,598.634 822.582,597.592 C822.582,596.55 822.157,595.623 821.308,594.811 C820.459,593.998 819.483,593.592 818.379,593.592 C816.431,593.592 812.444,595.561 806.418,599.498 C800.392,603.436 796.858,606.056 795.816,607.358 C794.774,608.66 794.254,609.832 794.254,610.873 C794.254,611.915 794.662,612.842 795.48,613.655 C796.298,614.467 797.29,614.873 798.457,614.873 M817.41,590.467 C823.004,590.467 825.8,592.873 825.8,597.686 C825.8,600.03 825.118,602.748 823.754,605.842 C822.389,608.936 820.566,611.295 818.285,612.92 C813.274,616.306 806.993,617.998 799.441,617.998 C793.837,617.998 791.035,615.592 791.035,610.78 C791.035,608.634 791.701,605.964 793.035,602.772 C794.368,599.579 796.207,597.17 798.55,595.545 C803.571,592.16 809.858,590.467 817.41,590.467"/>
<path class="Note" d="M657.736,614.873 C659.622,614.873 663.577,612.92 669.603,609.014 C675.629,605.108 679.179,602.488 680.252,601.155 C681.325,599.821 681.861,598.634 681.861,597.592 C681.861,596.55 681.437,595.623 680.588,594.811 C679.739,593.998 678.762,593.592 677.658,593.592 C675.71,593.592 671.723,595.561 665.697,599.498 C659.671,603.436 656.137,606.056 655.095,607.358 C654.054,608.66 653.533,609.832 653.533,610.873 C653.533,611.915 653.942,612.842 654.76,613.655 C655.577,614.467 656.569,614.873 657.736,614.873 M676.689,590.467 C682.283,590.467 685.08,592.873 685.08,597.686 C685.08,600.03 684.398,602.748 683.033,605.842 C681.668,608.936 679.845,611.295 677.564,612.92 C672.554,616.306 666.273,617.998 658.72,617.998 C653.116,617.998 650.314,615.592 650.314,610.78 C650.314,608.634 650.981,605.964 652.314,602.772 C653.648,599.579 655.486,597.17 657.83,595.545 C662.851,592.16 669.137,590.467 676.689,590.467"/>
<path class="Note" d="M487.113,639.873 C488.999,639.873 492.954,637.92 498.98,634.014 C505.006,630.108 508.556,627.488 509.629,626.155 C510.702,624.821 511.238,623.634 511.238,622.592 C511.238,621.55 510.814,620.623 509.965,619.811 C509.116,618.998 508.139,618.592 507.035,618.592 C505.087,618.592 501.1,620.561 495.074,624.498 C489.048,628.436 485.514,631.056 484.473,632.358 C483.431,633.66 482.91,634.832 482.91,635.873 C482.91,636.915 483.319,637.842 484.137,638.655 C484.954,639.467 485.947,639.873 487.113,639.873 M506.066,615.467 C511.66,615.467 514.457,617.873 514.457,622.686 C514.457,625.03 513.775,627.748 512.41,630.842 C511.045,633.936 509.223,636.295 506.941,637.92 C501.931,641.306 495.65,642.998 488.098,642.998 C482.493,642.998 479.691,640.592 479.691,635.78 C479.691,633.634 480.358,630.964 481.691,627.772 C483.025,624.579 484.863,622.17 487.207,620.545 C492.228,617.16 498.514,615.467 506.066,615.467"/>
<path class="Note" d="M346.393,652.373 C348.278,652.373 352.234,650.42 358.26,646.514 C364.286,642.608 367.835,639.988 368.908,638.655 C369.981,637.321 370.518,636.134 370.518,635.092 C370.518,634.05 370.093,633.123 369.244,632.311 C368.395,631.498 367.419,631.092 366.315,631.092 C364.367,631.092 360.38,633.061 354.354,636.998 C348.328,640.936 344.794,643.556 343.752,644.858 C342.71,646.16 342.19,647.332 342.19,648.373 C342.19,649.415 342.598,650.342 343.416,651.155 C344.234,651.967 345.226,652.373 346.393,652.373 M365.346,627.967 C370.94,627.967 373.736,630.373 373.736,635.186 C373.736,637.53 373.054,640.248 371.69,643.342 C370.325,646.436 368.502,648.795 366.221,650.42 C361.21,653.806 354.929,655.498 347.377,655.498 C341.773,655.498 338.971,653.092 338.971,648.28 C338.971,646.134 339.637,643.464 340.971,640.272 C342.304,637.079 344.143,634.67 346.486,633.045 C351.507,629.66 357.794,627.967 365.346,627.967"/>
<path class="Clef" d="M203.623,673.858 L203.623,671.717 C203.56,670.613 203.399,668.889 203.139,666.545 C199.889,667.066 196.993,667.326 194.451,667.326 C185.337,667.326 177.605,663.727 171.256,656.53 C164.907,649.332 161.732,640.754 161.732,630.795 C161.732,628.129 162.253,624.923 163.295,621.178 C164.337,617.433 165.297,614.925 166.178,613.655 C167.058,612.384 168.378,610.155 170.139,606.967 C170.659,605.988 172.352,603.837 175.217,600.514 C175.738,599.806 176.193,599.222 176.584,598.764 C176.975,598.306 177.607,597.49 178.482,596.319 C179.357,595.147 180.3,594.056 181.31,593.045 C182.321,592.035 183.217,591.058 183.998,590.115 C184.779,589.173 185.498,588.379 186.154,587.733 C183.81,579.983 182.378,574.024 181.857,569.858 C181.337,565.691 181.076,560.579 181.076,554.522 C181.076,548.464 182.378,542.962 184.982,538.014 C187.514,532.879 191.06,528.681 195.623,525.42 C195.883,525.222 196.225,525.123 196.646,525.123 C197.068,525.123 197.378,525.222 197.576,525.42 C201.087,529.649 204.128,535.149 206.701,541.92 C209.274,548.691 210.56,555.024 210.56,560.92 C210.56,566.816 209.066,572.498 206.076,577.967 C202.691,583.759 198.326,589.748 192.982,595.936 C194.347,600.227 196.17,606.962 198.451,616.139 L199.045,616.139 C199.305,616.076 199.529,616.045 199.717,616.045 C207.081,616.045 213.089,618.634 217.74,623.811 C222.391,628.988 224.717,634.962 224.717,641.733 C224.717,650.129 221.238,656.899 214.279,662.045 C212.258,663.545 209.878,664.717 207.139,665.561 C207.472,669.79 207.639,672.605 207.639,674.006 C207.639,675.407 207.571,677.899 207.435,681.483 C207.373,687.597 205.29,692.837 201.185,697.201 C197.081,701.566 192.394,703.748 187.123,703.748 C181.852,703.748 177.36,701.876 173.646,698.131 C169.933,694.386 168.076,689.847 168.076,684.514 C168.076,681.712 169.154,679.332 171.31,677.373 C173.519,675.425 176.006,674.451 178.771,674.451 C181.537,674.451 183.8,675.462 185.56,677.483 C187.383,679.368 188.295,681.644 188.295,684.311 C188.295,686.977 187.383,689.222 185.56,691.045 C183.738,692.868 181.555,693.78 179.014,693.78 C177.972,693.78 176.967,693.587 175.998,693.201 C178.863,697.431 182.54,699.545 187.029,699.545 C191.519,699.545 195.36,697.691 198.553,693.983 C201.745,690.274 203.342,685.91 203.342,680.889 L203.623,673.858 M206.748,661.561 C210.133,660.321 212.821,658.123 214.81,654.967 C216.8,651.811 217.795,648.67 217.795,645.545 C217.795,640.92 216.199,636.785 213.006,633.139 C209.813,629.493 205.774,627.441 200.889,626.983 C203.691,640.722 205.644,652.248 206.748,661.561 M168.967,638.998 C168.967,645.446 171.537,651.079 176.678,655.897 C181.818,660.714 187.842,663.123 194.748,663.123 C197.477,663.123 200.144,662.925 202.748,662.53 C201.706,652.634 199.654,640.785 196.592,626.983 C192.758,627.379 189.782,628.699 187.662,630.944 C185.542,633.188 184.482,635.743 184.482,638.608 C184.482,643.556 187.123,647.561 192.404,650.623 C192.852,650.884 193.076,651.324 193.076,651.944 C193.076,652.563 192.865,653.1 192.443,653.553 C192.021,654.006 191.649,654.233 191.326,654.233 C191.003,654.233 190.581,654.17 190.06,654.045 C182.435,649.879 178.623,643.592 178.623,635.186 C178.623,631.217 180.024,627.41 182.826,623.764 C185.753,620.118 189.56,617.774 194.248,616.733 C192.425,609.441 190.93,603.743 189.764,599.639 C180.847,609.67 175.31,617.092 173.154,621.905 C170.363,628.155 168.967,633.852 168.967,638.998 M201.576,539.686 C196.691,542.092 192.834,545.574 190.006,550.131 C187.178,554.688 185.764,559.472 185.764,564.483 C185.764,569.493 186.935,575.972 189.279,583.92 C193.967,578.254 197.514,572.946 199.92,567.998 C202.326,563.05 203.529,558.152 203.529,553.303 C203.529,548.454 202.878,543.915 201.576,539.686"/>
<path class="TimeSig" d="M273.021,567.912 C274.516,567.912 275.949,567.686 277.318,567.233 C278.688,566.78 279.665,566.553 280.248,566.553 C280.831,566.553 281.222,566.907 281.42,567.615 C281.42,567.688 281.352,567.886 281.217,568.209 L252.811,601.225 L269.498,601.225 L269.498,588.131 C269.498,586.506 270.446,585.334 272.342,584.615 C274.29,583.897 276.503,581.001 278.982,575.928 C279.17,575.532 279.462,575.334 279.857,575.334 C280.639,575.334 281.092,575.793 281.217,576.709 L281.217,601.225 L288.357,601.225 C289.264,601.225 289.751,601.712 289.818,602.686 C289.886,603.66 289.399,604.147 288.357,604.147 L281.217,604.147 L281.217,604.928 C281.217,607.532 281.868,609.746 283.17,611.569 C284.67,613.391 286.43,614.303 288.451,614.303 C289.232,614.303 289.623,614.694 289.623,615.475 C289.623,616.256 289.087,616.647 288.014,616.647 C286.941,616.647 284.938,616.436 282.006,616.014 C279.074,615.592 276.811,615.381 275.217,615.381 C273.623,615.381 271.41,615.592 268.576,616.014 C265.743,616.436 263.613,616.647 262.186,616.647 C261.404,616.647 261.014,616.256 261.014,615.475 C261.014,614.694 261.404,614.303 262.186,614.303 C264.196,614.303 265.951,613.391 267.451,611.569 C268.816,609.683 269.498,607.47 269.498,604.928 L269.498,604.147 L252.811,604.147 C251.956,604.147 251.219,603.92 250.6,603.467 C249.98,603.014 249.67,602.592 249.67,602.201 C249.67,601.811 250.485,600.639 252.115,598.686 C253.745,596.733 256.074,592.972 259.1,587.405 C262.126,581.837 263.639,575.438 263.639,568.209 C263.639,567.168 264.097,566.647 265.014,566.647 C265.212,566.647 265.521,566.712 265.943,566.842 C266.365,566.972 267.277,567.183 268.678,567.475 C270.079,567.766 271.527,567.912 273.021,567.912"/>
<path class="TimeSig" d="M273.021,618.084 C274.516,618.084 275.949,617.858 277.318,617.405 C278.688,616.951 279.665,616.725 280.248,616.725 C280.831,616.725 281.222,617.079 281.42,617.787 C281.42,617.86 281.352,618.058 281.217,618.381 L252.811,651.397 L269.498,651.397 L269.498,638.303 C269.498,636.678 270.446,635.506 272.342,634.787 C274.29,634.069 276.503,631.173 278.982,626.1 C279.17,625.704 279.462,625.506 279.857,625.506 C280.639,625.506 281.092,625.964 281.217,626.881 L281.217,651.397 L288.357,651.397 C289.264,651.397 289.751,651.884 289.818,652.858 C289.886,653.832 289.399,654.319 288.357,654.319 L281.217,654.319 L281.217,655.1 C281.217,657.704 281.868,659.918 283.17,661.74 C284.67,663.563 286.43,664.475 288.451,664.475 C289.232,664.475 289.623,664.865 289.623,665.647 C289.623,666.428 289.087,666.819 288.014,666.819 C286.941,666.819 284.938,666.608 282.006,666.186 C279.074,665.764 276.811,665.553 275.217,665.553 C273.623,665.553 271.41,665.764 268.576,666.186 C265.743,666.608 263.613,666.819 262.186,666.819 C261.404,666.819 261.014,666.428 261.014,665.647 C261.014,664.865 261.404,664.475 262.186,664.475 C264.196,664.475 265.951,663.563 267.451,661.74 C268.816,659.855 269.498,657.642 269.498,655.1 L269.498,654.319 L252.811,654.319 C251.956,654.319 251.219,654.092 250.6,653.639 C249.98,653.186 249.67,652.764 249.67,652.373 C249.67,651.983 250.485,650.811 252.115,648.858 C253.745,646.905 256.074,643.144 259.1,637.576 C262.126,632.009 263.639,625.61 263.639,618.381 C263.639,617.339 264.097,616.819 265.014,616.819 C265.212,616.819 265.521,616.884 265.943,617.014 C266.365,617.144 267.277,617.355 268.678,617.647 C270.079,617.938 271.527,618.084 273.021,618.084"/>
<path class="Rest" d="M1451.16,616.733 L1415.61,616.733 C1414.95,616.733 1414.62,616.405 1414.62,615.748 L1414.62,602.076 C1414.62,601.431 1414.95,601.108 1415.61,601.108 L1451.16,601.108 C1451.8,601.108 1452.12,601.431 1452.12,602.076 L1452.12,615.748 C1452.12,616.405 1451.8,616.733 1451.16,616.733"/>
<path class="Rest" d="M2696.53,616.733 L2660.98,616.733 C2660.33,616.733 2660,616.405 2660,615.748 L2660,602.076 C2660,601.431 2660.33,601.108 2660.98,601.108 L2696.53,601.108 C2697.17,601.108 2697.5,601.431 2697.5,602.076 L2697.5,615.748 C2697.5,616.405 2697.17,616.733 2696.53,616.733"/>
</svg>
