<?xml version="1.0" encoding="UTF-8" standalone="no"?>
<svg width="2977.2px" height="4208.4px" viewBox="0 0 2977.2 4208.4"
 xmlns="http://www.w3.org/2000/svg" xmlns:xlink="http://www.w3.org/1999/xlink" version="1.2" baseProfile="tiny">
<title>F_Bebop.mscx</title>
<desc>Generated by MuseScore Studio 4.3.1</desc>
<path class="" fill="#ffffff" fill-rule="evenodd" d="M0,0 L2977.2,0 L2977.2,4208.4 L0,4208.4 L0,0 "/>
<polyline class="StaffLines" fill="none" stroke="#000000" stroke-width="2.00" stroke-linejoin="bevel" points="141.732,566.733 2835.47,566.733"/>
<polyline class="StaffLines" fill="none" stroke="#000000" stroke-width="2.00" stroke-linejoin="bevel" points="141.732,591.733 2835.47,591.733"/>
<polyline class="StaffLines" fill="none" stroke="#000000" stroke-width="2.00" stroke-linejoin="bevel" points="141.732,616.733 2835.47,616.733"/>
<polyline class="StaffLines" fill="none" stroke="#000000" stroke-width="2.00" stroke-linejoin="bevel" points="141.732,641.733 2835.47,641.733"/>
<polyline class="StaffLines" fill="none" stroke="#000000" stroke-width="2.00" stroke-linejoin="bevel" points="141.732,666.733 2835.47,666.733"/>
<polyline class="BarLine" fill="none" stroke="#000000" stroke-width="4.00" stroke-linejoin="bevel" points="2802.72,565.733 2802.72,667.733"/>
<polyline class="BarLine" fill="none" stroke="#000000" stroke-width="12.50" stroke-linejoin="bevel" points="2829.22,565.733 2829.22,667.733"/>
<polyline class="BarLine" fill="none" stroke="#000000" stroke-width="4.00" stroke-linejoin="bevel" points="877.885,565.733 877.885,667.733"/>
<polyline class="BarLine" fill="none" stroke="#000000" stroke-width="4.00" stroke-linejoin="bevel" points="1160.84,565.733 1160.84,667.733"/>
<polyline class="BarLine" fill="none" stroke="#000000" stroke-width="4.00" stroke-linejoin="bevel" points="1443.8,565.733 1443.8,667.733"/>
<polyline class="BarLine" fill="none" stroke="#000000" stroke-width="4.00" stroke-linejoin="bevel" points="1726.76,565.733 1726.76,667.733"/>
<polyline class="BarLine" fill="none" stroke="#000000" stroke-width="4.00" stroke-linejoin="bevel" points="594.928,565.733 594.928,667.733"/>
<polyline class="BarLine" fill="none" stroke="#000000" stroke-width="4.00" stroke-linejoin="bevel" points="2009.71,565.733 2009.71,667.733"/>
<polyline class="BarLine" fill="none" stroke="#000000" stroke-width="4.00" stroke-linejoin="bevel" points="2292.67,565.733 2292.67,667.733"/>
<polyline class="BarLine" fill="none" stroke="#000000" stroke-width="4.00" stroke-linejoin="bevel" points="2575.63,565.733 2575.63,667.733"/>
<path class="Accidental" d="M1853.66,609.311 L1852.39,547.201 C1852.39,546.222 1853.16,545.733 1854.69,545.733 C1856.22,545.733 1856.99,546.222 1856.99,547.201 L1856.2,581.092 C1857.97,579.332 1859.48,578.11 1860.74,577.428 C1862.01,576.746 1863.73,576.405 1865.92,576.405 C1868.1,576.405 1870.12,577.412 1871.97,579.428 C1873.82,581.444 1874.75,583.951 1874.75,586.951 C1874.75,591.441 1870.03,597.66 1860.6,605.608 C1857.09,608.795 1855.26,610.389 1855.13,610.389 L1854.55,610.389 C1853.95,610.389 1853.66,610.03 1853.66,609.311 M1856.11,584.217 L1855.81,606.389 C1857.84,604.493 1859.89,601.347 1861.97,596.951 C1864.05,592.556 1865.1,588.795 1865.1,585.67 C1865.1,584.108 1864.84,582.675 1864.31,581.373 C1863.79,580.071 1862.98,579.42 1861.87,579.42 C1860.76,579.42 1859.76,579.811 1858.88,580.592 C1858,581.373 1857.08,582.582 1856.11,584.217"/>
<path class="Accidental" d="M1004.79,609.311 L1003.52,547.201 C1003.52,546.222 1004.29,545.733 1005.82,545.733 C1007.35,545.733 1008.12,546.222 1008.12,547.201 L1007.33,581.092 C1009.09,579.332 1010.61,578.11 1011.87,577.428 C1013.14,576.746 1014.86,576.405 1017.04,576.405 C1019.23,576.405 1021.25,577.412 1023.1,579.428 C1024.95,581.444 1025.88,583.951 1025.88,586.951 C1025.88,591.441 1021.16,597.66 1011.72,605.608 C1008.21,608.795 1006.39,610.389 1006.26,610.389 L1005.68,610.389 C1005.08,610.389 1004.79,610.03 1004.79,609.311 M1007.24,584.217 L1006.94,606.389 C1008.96,604.493 1011.02,601.347 1013.1,596.951 C1015.18,592.556 1016.22,588.795 1016.22,585.67 C1016.22,584.108 1015.96,582.675 1015.44,581.373 C1014.92,580.071 1014.11,579.42 1013,579.42 C1011.89,579.42 1010.89,579.811 1010.01,580.592 C1009.13,581.373 1008.21,582.582 1007.24,584.217"/>
<path class="Accidental" d="M721.83,634.311 L720.564,572.201 C720.564,571.222 721.33,570.733 722.861,570.733 C724.393,570.733 725.158,571.222 725.158,572.201 L724.377,606.092 C726.137,604.332 727.65,603.11 728.916,602.428 C730.182,601.746 731.906,601.405 734.088,601.405 C736.27,601.405 738.288,602.412 740.143,604.428 C741.997,606.444 742.924,608.951 742.924,611.951 C742.924,616.441 738.205,622.66 728.768,630.608 C725.257,633.795 723.434,635.389 723.299,635.389 L722.721,635.389 C722.127,635.389 721.83,635.03 721.83,634.311 M724.283,609.217 L723.986,631.389 C726.007,629.493 728.059,626.347 730.143,621.951 C732.226,617.556 733.268,613.795 733.268,610.67 C733.268,609.108 733.007,607.675 732.486,606.373 C731.965,605.071 731.15,604.42 730.041,604.42 C728.932,604.42 727.937,604.811 727.057,605.592 C726.176,606.373 725.252,607.582 724.283,609.217"/>
<path class="Accidental" d="M2136.61,634.311 L2135.35,572.201 C2135.35,571.222 2136.11,570.733 2137.65,570.733 C2139.18,570.733 2139.94,571.222 2139.94,572.201 L2139.16,606.092 C2140.92,604.332 2142.44,603.11 2143.7,602.428 C2144.97,601.746 2146.69,601.405 2148.87,601.405 C2151.06,601.405 2153.07,602.412 2154.93,604.428 C2156.78,606.444 2157.71,608.951 2157.71,611.951 C2157.71,616.441 2152.99,622.66 2143.55,630.608 C2140.04,633.795 2138.22,635.389 2138.08,635.389 L2137.51,635.389 C2136.91,635.389 2136.61,635.03 2136.61,634.311 M2139.07,609.217 L2138.77,631.389 C2140.79,629.493 2142.84,626.347 2144.93,621.951 C2147.01,617.556 2148.05,613.795 2148.05,610.67 C2148.05,609.108 2147.79,607.675 2147.27,606.373 C2146.75,605.071 2145.94,604.42 2144.83,604.42 C2143.72,604.42 2142.72,604.811 2141.84,605.592 C2140.96,606.373 2140.04,607.582 2139.07,609.217"/>
<polyline class="Stem" fill="none" stroke="#000000" stroke-width="3.25" stroke-linejoin="bevel" points="655.022,624.433 655.022,547.983"/>
<polyline class="Stem" fill="none" stroke="#000000" stroke-width="3.25" stroke-linejoin="bevel" points="2038.34,609.133 2038.34,685.483"/>
<polyline class="Stem" fill="none" stroke="#000000" stroke-width="3.25" stroke-linejoin="bevel" points="498.592,636.933 498.592,554.233"/>
<polyline class="Stem" fill="none" stroke="#000000" stroke-width="3.25" stroke-linejoin="bevel" points="1881.91,596.633 1881.91,679.233"/>
<polyline class="Stem" fill="none" stroke="#000000" stroke-width="3.25" stroke-linejoin="bevel" points="1755.38,596.633 1755.38,679.233"/>
<polyline class="Stem" fill="none" stroke="#000000" stroke-width="3.25" stroke-linejoin="bevel" points="2164.86,621.633 2164.86,691.733"/>
<polyline class="Stem" fill="none" stroke="#000000" stroke-width="3.25" stroke-linejoin="bevel" points="1598.95,584.133 1598.95,666.733"/>
<polyline class="Stem" fill="none" stroke="#000000" stroke-width="3.25" stroke-linejoin="bevel" points="1472.42,571.633 1472.42,654.233"/>
<polyline class="Stem" fill="none" stroke="#000000" stroke-width="3.25" stroke-linejoin="bevel" points="372.065,649.433 372.065,566.733"/>
<polyline class="Stem" fill="none" stroke="#000000" stroke-width="3.25" stroke-linejoin="bevel" points="2352.76,624.433 2352.76,547.983"/>
<polyline class="Stem" fill="none" stroke="#000000" stroke-width="3.25" stroke-linejoin="bevel" points="1315.99,584.133 1315.99,666.733"/>
<polyline class="Stem" fill="none" stroke="#000000" stroke-width="3.25" stroke-linejoin="bevel" points="1189.47,596.633 1189.47,679.233"/>
<polyline class="Stem" fill="none" stroke="#000000" stroke-width="3.25" stroke-linejoin="bevel" points="750.08,621.633 750.08,691.733"/>
<polyline class="Stem" fill="none" stroke="#000000" stroke-width="3.25" stroke-linejoin="bevel" points="2479.29,636.933 2479.29,554.233"/>
<polyline class="Stem" fill="none" stroke="#000000" stroke-width="3.25" stroke-linejoin="bevel" points="1033.04,596.633 1033.04,679.233"/>
<polyline class="Stem" fill="none" stroke="#000000" stroke-width="3.25" stroke-linejoin="bevel" points="906.51,609.133 906.51,685.483"/>
<path class="Note" d="M1761.18,602.373 C1763.06,602.373 1767.02,600.42 1773.04,596.514 C1779.07,592.608 1782.62,589.988 1783.69,588.655 C1784.77,587.321 1785.3,586.134 1785.3,585.092 C1785.3,584.05 1784.88,583.123 1784.03,582.311 C1783.18,581.498 1782.2,581.092 1781.1,581.092 C1779.15,581.092 1775.16,583.061 1769.14,586.998 C1763.11,590.936 1759.58,593.556 1758.54,594.858 C1757.5,596.16 1756.97,597.332 1756.97,598.373 C1756.97,599.415 1757.38,600.342 1758.2,601.155 C1759.02,601.967 1760.01,602.373 1761.18,602.373 M1780.13,577.967 C1785.72,577.967 1788.52,580.373 1788.52,585.186 C1788.52,587.53 1787.84,590.248 1786.47,593.342 C1785.11,596.436 1783.29,598.795 1781.01,600.42 C1776,603.806 1769.71,605.498 1762.16,605.498 C1756.56,605.498 1753.76,603.092 1753.76,598.28 C1753.76,596.134 1754.42,593.464 1755.76,590.272 C1757.09,587.079 1758.93,584.67 1761.27,583.045 C1766.29,579.66 1772.58,577.967 1780.13,577.967"/>
<path class="Note" d="M2170.66,627.373 C2172.55,627.373 2176.5,625.42 2182.53,621.514 C2188.56,617.608 2192.1,614.988 2193.18,613.655 C2194.25,612.321 2194.79,611.134 2194.79,610.092 C2194.79,609.05 2194.36,608.123 2193.51,607.311 C2192.66,606.498 2191.69,606.092 2190.58,606.092 C2188.64,606.092 2184.65,608.061 2178.62,611.998 C2172.6,615.936 2169.06,618.556 2168.02,619.858 C2166.98,621.16 2166.46,622.332 2166.46,623.373 C2166.46,624.415 2166.87,625.342 2167.69,626.155 C2168.5,626.967 2169.5,627.373 2170.66,627.373 M2189.61,602.967 C2195.21,602.967 2198.01,605.373 2198.01,610.186 C2198.01,612.53 2197.32,615.248 2195.96,618.342 C2194.59,621.436 2192.77,623.795 2190.49,625.42 C2185.48,628.806 2179.2,630.498 2171.65,630.498 C2166.04,630.498 2163.24,628.092 2163.24,623.28 C2163.24,621.134 2163.91,618.464 2165.24,615.272 C2166.57,612.079 2168.41,609.67 2170.76,608.045 C2175.78,604.66 2182.06,602.967 2189.61,602.967"/>
<path class="Note" d="M2327.09,639.873 C2328.98,639.873 2332.93,637.92 2338.96,634.014 C2344.98,630.108 2348.53,627.488 2349.61,626.155 C2350.68,624.821 2351.22,623.634 2351.22,622.592 C2351.22,621.55 2350.79,620.623 2349.94,619.811 C2349.09,618.998 2348.12,618.592 2347.01,618.592 C2345.07,618.592 2341.08,620.561 2335.05,624.498 C2329.03,628.436 2325.49,631.056 2324.45,632.358 C2323.41,633.66 2322.89,634.832 2322.89,635.873 C2322.89,636.915 2323.3,637.842 2324.11,638.655 C2324.93,639.467 2325.92,639.873 2327.09,639.873 M2346.04,615.467 C2351.64,615.467 2354.44,617.873 2354.44,622.686 C2354.44,625.03 2353.75,627.748 2352.39,630.842 C2351.02,633.936 2349.2,636.295 2346.92,637.92 C2341.91,641.306 2335.63,642.998 2328.08,642.998 C2322.47,642.998 2319.67,640.592 2319.67,635.78 C2319.67,633.634 2320.34,630.964 2321.67,627.772 C2323,624.579 2324.84,622.17 2327.19,620.545 C2332.21,617.16 2338.49,615.467 2346.04,615.467"/>
<path class="Note" d="M2453.62,652.373 C2455.5,652.373 2459.46,650.42 2465.49,646.514 C2471.51,642.608 2475.06,639.988 2476.13,638.655 C2477.21,637.321 2477.74,636.134 2477.74,635.092 C2477.74,634.05 2477.32,633.123 2476.47,632.311 C2475.62,631.498 2474.64,631.092 2473.54,631.092 C2471.59,631.092 2467.61,633.061 2461.58,636.998 C2455.55,640.936 2452.02,643.556 2450.98,644.858 C2449.94,646.16 2449.42,647.332 2449.42,648.373 C2449.42,649.415 2449.82,650.342 2450.64,651.155 C2451.46,651.967 2452.45,652.373 2453.62,652.373 M2472.57,627.967 C2478.17,627.967 2480.96,630.373 2480.96,635.186 C2480.96,637.53 2480.28,640.248 2478.92,643.342 C2477.55,646.436 2475.73,648.795 2473.45,650.42 C2468.44,653.806 2462.16,655.498 2454.6,655.498 C2449,655.498 2446.2,653.092 2446.2,648.28 C2446.2,646.134 2446.86,643.464 2448.2,640.272 C2449.53,637.079 2451.37,634.67 2453.71,633.045 C2458.73,629.66 2465.02,627.967 2472.57,627.967"/>
<path class="Note" d="M2044.13,614.873 C2046.02,614.873 2049.98,612.92 2056,609.014 C2062.03,605.108 2065.58,602.488 2066.65,601.155 C2067.72,599.821 2068.26,598.634 2068.26,597.592 C2068.26,596.55 2067.84,595.623 2066.99,594.811 C2066.14,593.998 2065.16,593.592 2064.06,593.592 C2062.11,593.592 2058.12,595.561 2052.1,599.498 C2046.07,603.436 2042.54,606.056 2041.49,607.358 C2040.45,608.66 2039.93,609.832 2039.93,610.873 C2039.93,611.915 2040.34,612.842 2041.16,613.655 C2041.98,614.467 2042.97,614.873 2044.13,614.873 M2063.09,590.467 C2068.68,590.467 2071.48,592.873 2071.48,597.686 C2071.48,600.03 2070.8,602.748 2069.43,605.842 C2068.07,608.936 2066.24,611.295 2063.96,612.92 C2058.95,616.306 2052.67,617.998 2045.12,617.998 C2039.51,617.998 2036.71,615.592 2036.71,610.78 C2036.71,608.634 2037.38,605.964 2038.71,602.772 C2040.05,599.579 2041.88,597.17 2044.23,595.545 C2049.25,592.16 2055.54,590.467 2063.09,590.467"/>
<path class="Note" d="M2619.72,659.701 C2622.58,663.545 2626.26,665.467 2630.75,665.467 C2635.24,665.467 2637.49,662.441 2637.49,656.389 C2637.49,653.514 2636.67,650.972 2635.05,648.764 C2632.25,644.92 2628.47,642.998 2623.72,642.998 C2621.64,642.998 2620.04,643.86 2618.94,645.584 C2617.83,647.308 2617.28,649.54 2617.28,652.28 C2617.28,655.019 2618.1,657.493 2619.72,659.701 M2610.05,644.467 C2614.93,641.8 2620.81,640.467 2627.68,640.467 C2634.55,640.467 2640.35,641.834 2645.06,644.569 C2649.78,647.303 2652.14,650.558 2652.14,654.334 C2652.14,658.11 2649.7,661.332 2644.81,663.998 C2639.93,666.665 2634.08,667.998 2627.28,667.998 C2620.48,667.998 2614.67,666.631 2609.85,663.897 C2605.04,661.162 2602.63,657.876 2602.63,654.037 C2602.63,650.199 2605.1,647.009 2610.05,644.467"/>
<path class="Note" d="M346.393,664.873 C348.278,664.873 352.234,662.92 358.26,659.014 C364.286,655.108 367.835,652.488 368.908,651.155 C369.981,649.821 370.518,648.634 370.518,647.592 C370.518,646.55 370.093,645.623 369.244,644.811 C368.395,643.998 367.419,643.592 366.315,643.592 C364.367,643.592 360.38,645.561 354.354,649.498 C348.328,653.436 344.794,656.056 343.752,657.358 C342.71,658.66 342.19,659.832 342.19,660.873 C342.19,661.915 342.598,662.842 343.416,663.655 C344.234,664.467 345.226,664.873 346.393,664.873 M365.346,640.467 C370.94,640.467 373.736,642.873 373.736,647.686 C373.736,650.03 373.054,652.748 371.69,655.842 C370.325,658.936 368.502,661.295 366.221,662.92 C361.21,666.306 354.929,667.998 347.377,667.998 C341.773,667.998 338.971,665.592 338.971,660.78 C338.971,658.634 339.637,655.964 340.971,652.772 C342.304,649.579 344.143,647.17 346.486,645.545 C351.507,642.16 357.794,640.467 365.346,640.467"/>
<path class="Note" d="M1887.7,602.373 C1889.59,602.373 1893.55,600.42 1899.57,596.514 C1905.6,592.608 1909.15,589.988 1910.22,588.655 C1911.29,587.321 1911.83,586.134 1911.83,585.092 C1911.83,584.05 1911.41,583.123 1910.56,582.311 C1909.71,581.498 1908.73,581.092 1907.63,581.092 C1905.68,581.092 1901.69,583.061 1895.67,586.998 C1889.64,590.936 1886.11,593.556 1885.06,594.858 C1884.02,596.16 1883.5,597.332 1883.5,598.373 C1883.5,599.415 1883.91,600.342 1884.73,601.155 C1885.55,601.967 1886.54,602.373 1887.7,602.373 M1906.66,577.967 C1912.25,577.967 1915.05,580.373 1915.05,585.186 C1915.05,587.53 1914.37,590.248 1913,593.342 C1911.64,596.436 1909.81,598.795 1907.53,600.42 C1902.52,603.806 1896.24,605.498 1888.69,605.498 C1883.09,605.498 1880.28,603.092 1880.28,598.28 C1880.28,596.134 1880.95,593.464 1882.28,590.272 C1883.62,587.079 1885.45,584.67 1887.8,583.045 C1892.82,579.66 1899.11,577.967 1906.66,577.967"/>
<path class="Note" d="M472.92,652.373 C474.805,652.373 478.761,650.42 484.787,646.514 C490.813,642.608 494.363,639.988 495.436,638.655 C496.508,637.321 497.045,636.134 497.045,635.092 C497.045,634.05 496.62,633.123 495.772,632.311 C494.923,631.498 493.946,631.092 492.842,631.092 C490.894,631.092 486.907,633.061 480.881,636.998 C474.855,640.936 471.321,643.556 470.279,644.858 C469.238,646.16 468.717,647.332 468.717,648.373 C468.717,649.415 469.126,650.342 469.943,651.155 C470.761,651.967 471.753,652.373 472.92,652.373 M491.873,627.967 C497.467,627.967 500.264,630.373 500.264,635.186 C500.264,637.53 499.581,640.248 498.217,643.342 C496.852,646.436 495.029,648.795 492.748,650.42 C487.738,653.806 481.456,655.498 473.904,655.498 C468.3,655.498 465.498,653.092 465.498,648.28 C465.498,646.134 466.165,643.464 467.498,640.272 C468.831,637.079 470.67,634.67 473.014,633.045 C478.035,629.66 484.321,627.967 491.873,627.967"/>
<path class="Note" d="M1604.75,589.873 C1606.63,589.873 1610.59,587.92 1616.62,584.014 C1622.64,580.108 1626.19,577.488 1627.26,576.155 C1628.34,574.821 1628.87,573.634 1628.87,572.592 C1628.87,571.55 1628.45,570.623 1627.6,569.811 C1626.75,568.998 1625.77,568.592 1624.67,568.592 C1622.72,568.592 1618.73,570.561 1612.71,574.498 C1606.68,578.436 1603.15,581.056 1602.11,582.358 C1601.07,583.66 1600.54,584.832 1600.54,585.873 C1600.54,586.915 1600.95,587.842 1601.77,588.655 C1602.59,589.467 1603.58,589.873 1604.75,589.873 M1623.7,565.467 C1629.29,565.467 1632.09,567.873 1632.09,572.686 C1632.09,575.03 1631.41,577.748 1630.04,580.842 C1628.68,583.936 1626.86,586.295 1624.58,587.92 C1619.57,591.306 1613.28,592.998 1605.73,592.998 C1600.13,592.998 1597.33,590.592 1597.33,585.78 C1597.33,583.634 1597.99,580.964 1599.33,577.772 C1600.66,574.579 1602.5,572.17 1604.84,570.545 C1609.86,567.16 1616.15,565.467 1623.7,565.467"/>
<path class="Note" d="M1478.22,577.373 C1480.11,577.373 1484.06,575.42 1490.09,571.514 C1496.11,567.608 1499.66,564.988 1500.74,563.655 C1501.81,562.321 1502.35,561.134 1502.35,560.092 C1502.35,559.05 1501.92,558.123 1501.07,557.311 C1500.22,556.498 1499.25,556.092 1498.14,556.092 C1496.19,556.092 1492.21,558.061 1486.18,561.998 C1480.16,565.936 1476.62,568.556 1475.58,569.858 C1474.54,571.16 1474.02,572.332 1474.02,573.373 C1474.02,574.415 1474.43,575.342 1475.24,576.155 C1476.06,576.967 1477.05,577.373 1478.22,577.373 M1497.17,552.967 C1502.77,552.967 1505.56,555.373 1505.56,560.186 C1505.56,562.53 1504.88,565.248 1503.52,568.342 C1502.15,571.436 1500.33,573.795 1498.05,575.42 C1493.04,578.806 1486.76,580.498 1479.2,580.498 C1473.6,580.498 1470.8,578.092 1470.8,573.28 C1470.8,571.134 1471.47,568.464 1472.8,565.272 C1474.13,562.079 1475.97,559.67 1478.31,558.045 C1483.34,554.66 1489.62,552.967 1497.17,552.967"/>
<path class="Note" d="M629.35,639.873 C631.235,639.873 635.191,637.92 641.217,634.014 C647.243,630.108 650.792,627.488 651.865,626.155 C652.938,624.821 653.475,623.634 653.475,622.592 C653.475,621.55 653.05,620.623 652.201,619.811 C651.352,618.998 650.376,618.592 649.271,618.592 C647.324,618.592 643.337,620.561 637.311,624.498 C631.285,628.436 627.751,631.056 626.709,632.358 C625.667,633.66 625.146,634.832 625.146,635.873 C625.146,636.915 625.555,637.842 626.373,638.655 C627.191,639.467 628.183,639.873 629.35,639.873 M648.303,615.467 C653.896,615.467 656.693,617.873 656.693,622.686 C656.693,625.03 656.011,627.748 654.646,630.842 C653.282,633.936 651.459,636.295 649.178,637.92 C644.167,641.306 637.886,642.998 630.334,642.998 C624.73,642.998 621.928,640.592 621.928,635.78 C621.928,633.634 622.594,630.964 623.928,627.772 C625.261,624.579 627.1,622.17 629.443,620.545 C634.464,617.16 640.751,615.467 648.303,615.467"/>
<path class="Note" d="M1321.79,589.873 C1323.68,589.873 1327.63,587.92 1333.66,584.014 C1339.68,580.108 1343.23,577.488 1344.31,576.155 C1345.38,574.821 1345.92,573.634 1345.92,572.592 C1345.92,571.55 1345.49,570.623 1344.64,569.811 C1343.79,568.998 1342.82,568.592 1341.71,568.592 C1339.76,568.592 1335.78,570.561 1329.75,574.498 C1323.73,578.436 1320.19,581.056 1319.15,582.358 C1318.11,583.66 1317.59,584.832 1317.59,585.873 C1317.59,586.915 1318,587.842 1318.81,588.655 C1319.63,589.467 1320.62,589.873 1321.79,589.873 M1340.74,565.467 C1346.34,565.467 1349.13,567.873 1349.13,572.686 C1349.13,575.03 1348.45,577.748 1347.09,580.842 C1345.72,583.936 1343.9,586.295 1341.62,587.92 C1336.61,591.306 1330.33,592.998 1322.78,592.998 C1317.17,592.998 1314.37,590.592 1314.37,585.78 C1314.37,583.634 1315.04,580.964 1316.37,577.772 C1317.7,574.579 1319.54,572.17 1321.88,570.545 C1326.91,567.16 1333.19,565.467 1340.74,565.467"/>
<path class="Note" d="M1195.26,602.373 C1197.15,602.373 1201.1,600.42 1207.13,596.514 C1213.16,592.608 1216.71,589.988 1217.78,588.655 C1218.85,587.321 1219.39,586.134 1219.39,585.092 C1219.39,584.05 1218.96,583.123 1218.12,582.311 C1217.27,581.498 1216.29,581.092 1215.19,581.092 C1213.24,581.092 1209.25,583.061 1203.22,586.998 C1197.2,590.936 1193.66,593.556 1192.62,594.858 C1191.58,596.16 1191.06,597.332 1191.06,598.373 C1191.06,599.415 1191.47,600.342 1192.29,601.155 C1193.1,601.967 1194.1,602.373 1195.26,602.373 M1214.22,577.967 C1219.81,577.967 1222.61,580.373 1222.61,585.186 C1222.61,587.53 1221.93,590.248 1220.56,593.342 C1219.2,596.436 1217.37,598.795 1215.09,600.42 C1210.08,603.806 1203.8,605.498 1196.25,605.498 C1190.64,605.498 1187.84,603.092 1187.84,598.28 C1187.84,596.134 1188.51,593.464 1189.84,590.272 C1191.18,587.079 1193.01,584.67 1195.36,583.045 C1200.38,579.66 1206.66,577.967 1214.22,577.967"/>
<path class="Note" d="M755.877,627.373 C757.762,627.373 761.718,625.42 767.744,621.514 C773.77,617.608 777.32,614.988 778.393,613.655 C779.465,612.321 780.002,611.134 780.002,610.092 C780.002,609.05 779.577,608.123 778.728,607.311 C777.88,606.498 776.903,606.092 775.799,606.092 C773.851,606.092 769.864,608.061 763.838,611.998 C757.812,615.936 754.278,618.556 753.236,619.858 C752.195,621.16 751.674,622.332 751.674,623.373 C751.674,624.415 752.083,625.342 752.9,626.155 C753.718,626.967 754.71,627.373 755.877,627.373 M774.83,602.967 C780.424,602.967 783.221,605.373 783.221,610.186 C783.221,612.53 782.538,615.248 781.174,618.342 C779.809,621.436 777.986,623.795 775.705,625.42 C770.695,628.806 764.413,630.498 756.861,630.498 C751.257,630.498 748.455,628.092 748.455,623.28 C748.455,621.134 749.122,618.464 750.455,615.272 C751.788,612.079 753.627,609.67 755.971,608.045 C760.992,604.66 767.278,602.967 774.83,602.967"/>
<path class="Note" d="M1038.83,602.373 C1040.72,602.373 1044.68,600.42 1050.7,596.514 C1056.73,592.608 1060.28,589.988 1061.35,588.655 C1062.42,587.321 1062.96,586.134 1062.96,585.092 C1062.96,584.05 1062.53,583.123 1061.69,582.311 C1060.84,581.498 1059.86,581.092 1058.76,581.092 C1056.81,581.092 1052.82,583.061 1046.79,586.998 C1040.77,590.936 1037.23,593.556 1036.19,594.858 C1035.15,596.16 1034.63,597.332 1034.63,598.373 C1034.63,599.415 1035.04,600.342 1035.86,601.155 C1036.68,601.967 1037.67,602.373 1038.83,602.373 M1057.79,577.967 C1063.38,577.967 1066.18,580.373 1066.18,585.186 C1066.18,587.53 1065.5,590.248 1064.13,593.342 C1062.77,596.436 1060.94,598.795 1058.66,600.42 C1053.65,603.806 1047.37,605.498 1039.82,605.498 C1034.21,605.498 1031.41,603.092 1031.41,598.28 C1031.41,596.134 1032.08,593.464 1033.41,590.272 C1034.75,587.079 1036.58,584.67 1038.93,583.045 C1043.95,579.66 1050.23,577.967 1057.79,577.967"/>
<path class="Note" d="M912.307,614.873 C914.192,614.873 918.148,612.92 924.174,609.014 C930.2,605.108 933.749,602.488 934.822,601.155 C935.895,599.821 936.432,598.634 936.432,597.592 C936.432,596.55 936.007,595.623 935.158,594.811 C934.309,593.998 933.333,593.592 932.228,593.592 C930.281,593.592 926.294,595.561 920.268,599.498 C914.241,603.436 910.708,606.056 909.666,607.358 C908.624,608.66 908.103,609.832 908.103,610.873 C908.103,611.915 908.512,612.842 909.33,613.655 C910.148,614.467 911.14,614.873 912.307,614.873 M931.26,590.467 C936.853,590.467 939.65,592.873 939.65,597.686 C939.65,600.03 938.968,602.748 937.603,605.842 C936.239,608.936 934.416,611.295 932.135,612.92 C927.124,616.306 920.843,617.998 913.291,617.998 C907.687,617.998 904.885,615.592 904.885,610.78 C904.885,608.634 905.551,605.964 906.885,602.772 C908.218,599.579 910.057,597.17 912.4,595.545 C917.421,592.16 923.708,590.467 931.26,590.467"/>
<path class="Clef" d="M203.623,673.858 L203.623,671.717 C203.56,670.613 203.399,668.889 203.139,666.545 C199.889,667.066 196.993,667.326 194.451,667.326 C185.337,667.326 177.605,663.727 171.256,656.53 C164.907,649.332 161.732,640.754 161.732,630.795 C161.732,628.129 162.253,624.923 163.295,621.178 C164.337,617.433 165.297,614.925 166.178,613.655 C167.058,612.384 168.378,610.155 170.139,606.967 C170.659,605.988 172.352,603.837 175.217,600.514 C175.738,599.806 176.193,599.222 176.584,598.764 C176.975,598.306 177.607,597.49 178.482,596.319 C179.357,595.147 180.3,594.056 181.31,593.045 C182.321,592.035 183.217,591.058 183.998,590.115 C184.779,589.173 185.498,588.379 186.154,587.733 C183.81,579.983 182.378,574.024 181.857,569.858 C181.337,565.691 181.076,560.579 181.076,554.522 C181.076,548.464 182.378,542.962 184.982,538.014 C187.514,532.879 191.06,528.681 195.623,525.42 C195.883,525.222 196.225,525.123 196.646,525.123 C197.068,525.123 197.378,525.222 197.576,525.42 C201.087,529.649 204.128,535.149 206.701,541.92 C209.274,548.691 210.56,555.024 210.56,560.92 C210.56,566.816 209.066,572.498 206.076,577.967 C202.691,583.759 198.326,589.748 192.982,595.936 C194.347,600.227 196.17,606.962 198.451,616.139 L199.045,616.139 C199.305,616.076 199.529,616.045 199.717,616.045 C207.081,616.045 213.089,618.634 217.74,623.811 C222.391,628.988 224.717,634.962 224.717,641.733 C224.717,650.129 221.238,656.899 214.279,662.045 C212.258,663.545 209.878,664.717 207.139,665.561 C207.472,669.79 207.639,672.605 207.639,674.006 C207.639,675.407 207.571,677.899 207.435,681.483 C207.373,687.597 205.29,692.837 201.185,697.201 C197.081,701.566 192.394,703.748 187.123,703.748 C181.852,703.748 177.36,701.876 173.646,698.131 C169.933,694.386 168.076,689.847 168.076,684.514 C168.076,681.712 169.154,679.332 171.31,677.373 C173.519,675.425 176.006,674.451 178.771,674.451 C181.537,674.451 183.8,675.462 185.56,677.483 C187.383,679.368 188.295,681.644 188.295,684.311 C188.295,686.977 187.383,689.222 185.56,691.045 C183.738,692.868 181.555,693.78 179.014,693.78 C177.972,693.78 176.967,693.587 175.998,693.201 C178.863,697.431 182.54,699.545 187.029,699.545 C191.519,699.545 195.36,697.691 198.553,693.983 C201.745,690.274 203.342,685.91 203.342,680.889 L203.623,673.858 M206.748,661.561 C210.133,660.321 212.821,658.123 214.81,654.967 C216.8,651.811 217.795,648.67 217.795,645.545 C217.795,640.92 216.199,636.785 213.006,633.139 C209.813,629.493 205.774,627.441 200.889,626.983 C203.691,640.722 205.644,652.248 206.748,661.561 M168.967,638.998 C168.967,645.446 171.537,651.079 176.678,655.897 C181.818,660.714 187.842,663.123 194.748,663.123 C197.477,663.123 200.144,662.925 202.748,662.53 C201.706,652.634 199.654,640.785 196.592,626.983 C192.758,627.379 189.782,628.699 187.662,630.944 C185.542,633.188 184.482,635.743 184.482,638.608 C184.482,643.556 187.123,647.561 192.404,650.623 C192.852,650.884 193.076,651.324 193.076,651.944 C193.076,652.563 192.865,653.1 192.443,653.553 C192.021,654.006 191.649,654.233 191.326,654.233 C191.003,654.233 190.581,654.17 190.06,654.045 C182.435,649.879 178.623,643.592 178.623,635.186 C178.623,631.217 180.024,627.41 182.826,623.764 C185.753,620.118 189.56,617.774 194.248,616.733 C192.425,609.441 190.93,603.743 189.764,599.639 C180.847,609.67 175.31,617.092 173.154,621.905 C170.363,628.155 168.967,633.852 168.967,638.998 M201.576,539.686 C196.691,542.092 192.834,545.574 190.006,550.131 C187.178,554.688 185.764,559.472 185.764,564.483 C185.764,569.493 186.935,575.972 189.279,583.92 C193.967,578.254 197.514,572.946 199.92,567.998 C202.326,563.05 203.529,558.152 203.529,553.303 C203.529,548.454 202.878,543.915 201.576,539.686"/>
<path class="TimeSig" d="M273.021,567.912 C274.516,567.912 275.949,567.686 277.318,567.233 C278.688,566.78 279.665,566.553 280.248,566.553 C280.831,566.553 281.222,566.907 281.42,567.615 C281.42,567.688 281.352,567.886 281.217,568.209 L252.811,601.225 L269.498,601.225 L269.498,588.131 C269.498,586.506 270.446,585.334 272.342,584.615 C274.29,583.897 276.503,581.001 278.982,575.928 C279.17,575.532 279.462,575.334 279.857,575.334 C280.639,575.334 281.092,575.793 281.217,576.709 L281.217,601.225 L288.357,601.225 C289.264,601.225 289.751,601.712 289.818,602.686 C289.886,603.66 289.399,604.147 288.357,604.147 L281.217,604.147 L281.217,604.928 C281.217,607.532 281.868,609.746 283.17,611.569 C284.67,613.391 286.43,614.303 288.451,614.303 C289.232,614.303 289.623,614.694 289.623,615.475 C289.623,616.256 289.087,616.647 288.014,616.647 C286.941,616.647 284.938,616.436 282.006,616.014 C279.074,615.592 276.811,615.381 275.217,615.381 C273.623,615.381 271.41,615.592 268.576,616.014 C265.743,616.436 263.613,616.647 262.186,616.647 C261.404,616.647 261.014,616.256 261.014,615.475 C261.014,614.694 261.404,614.303 262.186,614.303 C264.196,614.303 265.951,613.391 267.451,611.569 C268.816,609.683 269.498,607.47 269.498,604.928 L269.498,604.147 L252.811,604.147 C251.956,604.147 251.219,603.92 250.6,603.467 C249.98,603.014 249.67,602.592 249.67,602.201 C249.67,601.811 250.485,600.639 252.115,598.686 C253.745,596.733 256.074,592.972 259.1,587.405 C262.126,581.837 263.639,575.438 263.639,568.209 C263.639,567.168 264.097,566.647 265.014,566.647 C265.212,566.647 265.521,566.712 265.943,566.842 C266.365,566.972 267.277,567.183 268.678,567.475 C270.079,567.766 271.527,567.912 273.021,567.912"/>
<path class="TimeSig" d="M273.021,618.084 C274.516,618.084 275.949,617.858 277.318,617.405 C278.688,616.951 279.665,616.725 280.248,616.725 C280.831,616.725 281.222,617.079 281.42,617.787 C281.42,617.86 281.352,618.058 281.217,618.381 L252.811,651.397 L269.498,651.397 L269.498,638.303 C269.498,636.678 270.446,635.506 272.342,634.787 C274.29,634.069 276.503,631.173 278.982,626.1 C279.17,625.704 279.462,625.506 279.857,625.506 C280.639,625.506 281.092,625.964 281.217,626.881 L281.217,651.397 L288.357,651.397 C289.264,651.397 289.751,651.884 289.818,652.858 C289.886,653.832 289.399,654.319 288.357,654.319 L281.217,654.319 L281.217,655.1 C281.217,657.704 281.868,659.918 283.17,661.74 C284.67,663.563 286.43,664.475 288.451,664.475 C289.232,664.475 289.623,664.865 289.623,665.647 C289.623,666.428 289.087,666.819 288.014,666.819 C286.941,666.819 284.938,666.608 282.006,666.186 C279.074,665.764 276.811,665.553 275.217,665.553 C273.623,665.553 271.41,665.764 268.576,666.186 C265.743,666.608 263.613,666.819 262.186,666.819 C261.404,666.819 261.014,666.428 261.014,665.647 C261.014,664.865 261.404,664.475 262.186,664.475 C264.196,664.475 265.951,663.563 267.451,661.74 C268.816,659.855 269.498,657.642 269.498,655.1 L269.498,654.319 L252.811,654.319 C251.956,654.319 251.219,654.092 250.6,653.639 C249.98,653.186 249.67,652.764 249.67,652.373 C249.67,651.983 250.485,650.811 252.115,648.858 C253.745,646.905 256.074,643.144 259.1,637.576 C262.126,632.009 263.639,625.61 263.639,618.381 C263.639,617.339 264.097,616.819 265.014,616.819 C265.212,616.819 265.521,616.884 265.943,617.014 C266.365,617.144 267.277,617.355 268.678,617.647 C270.079,617.938 271.527,618.084 273.021,618.084"/>
</svg>
