<?xml version="1.0" encoding="UTF-8" standalone="no"?>
<svg width="2977.2px" height="4208.4px" viewBox="0 0 2977.2 4208.4"
 xmlns="http://www.w3.org/2000/svg" xmlns:xlink="http://www.w3.org/1999/xlink" version="1.2" baseProfile="tiny">
<title>C_Major_Scale_Patterns_7.mscx</title>
<desc>Generated by MuseScore Studio 4.3.1</desc>
<path class="" fill="#ffffff" fill-rule="evenodd" d="M0,0 L2977.2,0 L2977.2,4208.4 L0,4208.4 L0,0 "/>
<polyline class="StaffLines" fill="none" stroke="#000000" stroke-width="2.00" stroke-linejoin="bevel" points="141.732,566.733 2835.47,566.733"/>
<polyline class="StaffLines" fill="none" stroke="#000000" stroke-width="2.00" stroke-linejoin="bevel" points="141.732,591.733 2835.47,591.733"/>
<polyline class="StaffLines" fill="none" stroke="#000000" stroke-width="2.00" stroke-linejoin="bevel" points="141.732,616.733 2835.47,616.733"/>
<polyline class="StaffLines" fill="none" stroke="#000000" stroke-width="2.00" stroke-linejoin="bevel" points="141.732,641.733 2835.47,641.733"/>
<polyline class="StaffLines" fill="none" stroke="#000000" stroke-width="2.00" stroke-linejoin="bevel" points="141.732,666.733 2835.47,666.733"/>
<polyline class="BarLine" fill="none" stroke="#000000" stroke-width="4.00" stroke-linejoin="bevel" points="2180.03,565.733 2180.03,667.733"/>
<polyline class="BarLine" fill="none" stroke="#000000" stroke-width="4.00" stroke-linejoin="bevel" points="1557.34,565.733 1557.34,667.733"/>
<polyline class="BarLine" fill="none" stroke="#000000" stroke-width="4.00" stroke-linejoin="bevel" points="1349.78,565.733 1349.78,667.733"/>
<polyline class="BarLine" fill="none" stroke="#000000" stroke-width="4.00" stroke-linejoin="bevel" points="1764.91,565.733 1764.91,667.733"/>
<polyline class="BarLine" fill="none" stroke="#000000" stroke-width="4.00" stroke-linejoin="bevel" points="1142.22,565.733 1142.22,667.733"/>
<polyline class="BarLine" fill="none" stroke="#000000" stroke-width="4.00" stroke-linejoin="bevel" points="1972.47,565.733 1972.47,667.733"/>
<polyline class="BarLine" fill="none" stroke="#000000" stroke-width="4.00" stroke-linejoin="bevel" points="934.658,565.733 934.658,667.733"/>
<polyline class="BarLine" fill="none" stroke="#000000" stroke-width="4.00" stroke-linejoin="bevel" points="727.095,565.733 727.095,667.733"/>
<polyline class="BarLine" fill="none" stroke="#000000" stroke-width="4.00" stroke-linejoin="bevel" points="2387.59,565.733 2387.59,667.733"/>
<polyline class="BarLine" fill="none" stroke="#000000" stroke-width="4.00" stroke-linejoin="bevel" points="519.533,565.733 519.533,667.733"/>
<polyline class="BarLine" fill="none" stroke="#000000" stroke-width="4.00" stroke-linejoin="bevel" points="2802.72,565.733 2802.72,667.733"/>
<polyline class="BarLine" fill="none" stroke="#000000" stroke-width="12.50" stroke-linejoin="bevel" points="2829.22,565.733 2829.22,667.733"/>
<polyline class="BarLine" fill="none" stroke="#000000" stroke-width="4.00" stroke-linejoin="bevel" points="2595.16,565.733 2595.16,667.733"/>
<polyline class="LedgerLine" fill="none" stroke="#000000" stroke-width="4.00" stroke-linejoin="bevel" points="418.301,541.733 472.02,541.733"/>
<polyline class="LedgerLine" fill="none" stroke="#000000" stroke-width="4.00" stroke-linejoin="bevel" points="329.471,516.733 383.19,516.733"/>
<polyline class="LedgerLine" fill="none" stroke="#000000" stroke-width="4.00" stroke-linejoin="bevel" points="329.471,541.733 383.19,541.733"/>
<polyline class="LedgerLine" fill="none" stroke="#000000" stroke-width="4.00" stroke-linejoin="bevel" points="952.158,541.733 1005.88,541.733"/>
<polyline class="LedgerLine" fill="none" stroke="#000000" stroke-width="4.00" stroke-linejoin="bevel" points="1040.99,541.733 1094.71,541.733"/>
<polyline class="LedgerLine" fill="none" stroke="#000000" stroke-width="4.00" stroke-linejoin="bevel" points="537.033,541.733 590.752,541.733"/>
<polyline class="LedgerLine" fill="none" stroke="#000000" stroke-width="4.00" stroke-linejoin="bevel" points="1574.84,541.733 1628.56,541.733"/>
<polyline class="Stem" fill="none" stroke="#000000" stroke-width="3.25" stroke-linejoin="bevel" points="2297.49,571.633 2297.49,654.233"/>
<polyline class="Stem" fill="none" stroke="#000000" stroke-width="3.25" stroke-linejoin="bevel" points="2416.22,584.133 2416.22,666.733"/>
<polyline class="Stem" fill="none" stroke="#000000" stroke-width="3.25" stroke-linejoin="bevel" points="1585.97,546.633 1585.97,629.233"/>
<polyline class="Stem" fill="none" stroke="#000000" stroke-width="3.25" stroke-linejoin="bevel" points="1674.8,559.133 1674.8,641.733"/>
<polyline class="Stem" fill="none" stroke="#000000" stroke-width="3.25" stroke-linejoin="bevel" points="2623.78,609.133 2623.78,685.483"/>
<polyline class="Stem" fill="none" stroke="#000000" stroke-width="3.25" stroke-linejoin="bevel" points="2505.05,596.633 2505.05,679.233"/>
<polyline class="Stem" fill="none" stroke="#000000" stroke-width="3.25" stroke-linejoin="bevel" points="1793.53,571.633 1793.53,654.233"/>
<polyline class="Stem" fill="none" stroke="#000000" stroke-width="3.25" stroke-linejoin="bevel" points="1882.36,584.133 1882.36,666.733"/>
<polyline class="Stem" fill="none" stroke="#000000" stroke-width="3.25" stroke-linejoin="bevel" points="2208.66,559.133 2208.66,641.733"/>
<polyline class="Stem" fill="none" stroke="#000000" stroke-width="3.25" stroke-linejoin="bevel" points="2001.09,596.633 2001.09,679.233"/>
<polyline class="Stem" fill="none" stroke="#000000" stroke-width="3.25" stroke-linejoin="bevel" points="1378.41,584.133 1378.41,666.733"/>
<polyline class="Stem" fill="none" stroke="#000000" stroke-width="3.25" stroke-linejoin="bevel" points="755.72,571.633 755.72,654.233"/>
<polyline class="Stem" fill="none" stroke="#000000" stroke-width="3.25" stroke-linejoin="bevel" points="340.596,521.633 340.596,616.733"/>
<polyline class="Stem" fill="none" stroke="#000000" stroke-width="3.25" stroke-linejoin="bevel" points="1259.67,571.633 1259.67,654.233"/>
<polyline class="Stem" fill="none" stroke="#000000" stroke-width="3.25" stroke-linejoin="bevel" points="636.988,559.133 636.988,641.733"/>
<polyline class="Stem" fill="none" stroke="#000000" stroke-width="3.25" stroke-linejoin="bevel" points="429.426,534.133 429.426,616.733"/>
<polyline class="Stem" fill="none" stroke="#000000" stroke-width="3.25" stroke-linejoin="bevel" points="1170.84,559.133 1170.84,641.733"/>
<polyline class="Stem" fill="none" stroke="#000000" stroke-width="3.25" stroke-linejoin="bevel" points="963.283,534.133 963.283,616.733"/>
<polyline class="Stem" fill="none" stroke="#000000" stroke-width="3.25" stroke-linejoin="bevel" points="1052.11,546.633 1052.11,629.233"/>
<polyline class="Stem" fill="none" stroke="#000000" stroke-width="3.25" stroke-linejoin="bevel" points="548.158,546.633 548.158,629.233"/>
<path class="Note" d="M435.223,539.873 C437.108,539.873 441.064,537.92 447.09,534.014 C453.116,530.108 456.665,527.488 457.738,526.154 C458.811,524.821 459.348,523.634 459.348,522.592 C459.348,521.55 458.923,520.623 458.074,519.811 C457.225,518.998 456.249,518.592 455.144,518.592 C453.197,518.592 449.21,520.561 443.184,524.498 C437.158,528.436 433.624,531.056 432.582,532.358 C431.54,533.66 431.019,534.832 431.019,535.873 C431.019,536.915 431.428,537.842 432.246,538.654 C433.064,539.467 434.056,539.873 435.223,539.873 M454.176,515.467 C459.769,515.467 462.566,517.873 462.566,522.686 C462.566,525.029 461.884,527.748 460.519,530.842 C459.155,533.936 457.332,536.295 455.051,537.92 C450.04,541.306 443.759,542.998 436.207,542.998 C430.603,542.998 427.801,540.592 427.801,535.779 C427.801,533.634 428.467,530.964 429.801,527.772 C431.134,524.579 432.973,522.17 435.316,520.545 C440.337,517.16 446.624,515.467 454.176,515.467"/>
<path class="Note" d="M642.785,564.873 C644.67,564.873 648.626,562.92 654.652,559.014 C660.678,555.108 664.228,552.488 665.301,551.154 C666.373,549.821 666.91,548.634 666.91,547.592 C666.91,546.55 666.485,545.623 665.636,544.811 C664.788,543.998 663.811,543.592 662.707,543.592 C660.759,543.592 656.772,545.561 650.746,549.498 C644.72,553.436 641.186,556.056 640.144,557.358 C639.103,558.66 638.582,559.832 638.582,560.873 C638.582,561.915 638.991,562.842 639.808,563.654 C640.626,564.467 641.618,564.873 642.785,564.873 M661.738,540.467 C667.332,540.467 670.129,542.873 670.129,547.686 C670.129,550.029 669.446,552.748 668.082,555.842 C666.717,558.936 664.894,561.295 662.613,562.92 C657.603,566.306 651.321,567.998 643.769,567.998 C638.165,567.998 635.363,565.592 635.363,560.779 C635.363,558.634 636.03,555.964 637.363,552.772 C638.696,549.579 640.535,547.17 642.879,545.545 C647.899,542.16 654.186,540.467 661.738,540.467"/>
<path class="Note" d="M2214.45,564.873 C2216.34,564.873 2220.29,562.92 2226.32,559.014 C2232.35,555.108 2235.9,552.488 2236.97,551.154 C2238.04,549.821 2238.58,548.634 2238.58,547.592 C2238.58,546.55 2238.15,545.623 2237.3,544.811 C2236.46,543.998 2235.48,543.592 2234.38,543.592 C2232.43,543.592 2228.44,545.561 2222.41,549.498 C2216.39,553.436 2212.85,556.056 2211.81,557.358 C2210.77,558.66 2210.25,559.832 2210.25,560.873 C2210.25,561.915 2210.66,562.842 2211.48,563.654 C2212.29,564.467 2213.29,564.873 2214.45,564.873 M2233.41,540.467 C2239,540.467 2241.8,542.873 2241.8,547.686 C2241.8,550.029 2241.11,552.748 2239.75,555.842 C2238.39,558.936 2236.56,561.295 2234.28,562.92 C2229.27,566.306 2222.99,567.998 2215.44,567.998 C2209.83,567.998 2207.03,565.592 2207.03,560.779 C2207.03,558.634 2207.7,555.964 2209.03,552.772 C2210.36,549.579 2212.2,547.17 2214.55,545.545 C2219.57,542.16 2225.85,540.467 2233.41,540.467"/>
<path class="Note" d="M553.955,552.373 C555.84,552.373 559.796,550.42 565.822,546.514 C571.848,542.608 575.398,539.988 576.471,538.654 C577.543,537.321 578.08,536.134 578.08,535.092 C578.08,534.05 577.655,533.123 576.807,532.311 C575.958,531.498 574.981,531.092 573.877,531.092 C571.929,531.092 567.942,533.061 561.916,536.998 C555.89,540.936 552.356,543.556 551.314,544.858 C550.273,546.16 549.752,547.332 549.752,548.373 C549.752,549.415 550.161,550.342 550.978,551.154 C551.796,551.967 552.788,552.373 553.955,552.373 M572.908,527.967 C578.502,527.967 581.299,530.373 581.299,535.186 C581.299,537.529 580.616,540.248 579.252,543.342 C577.887,546.436 576.064,548.795 573.783,550.42 C568.773,553.806 562.491,555.498 554.939,555.498 C549.335,555.498 546.533,553.092 546.533,548.279 C546.533,546.134 547.2,543.464 548.533,540.272 C549.866,537.079 551.705,534.67 554.049,533.045 C559.07,529.66 565.356,527.967 572.908,527.967"/>
<path class="Note" d="M2303.28,577.373 C2305.17,577.373 2309.12,575.42 2315.15,571.514 C2321.18,567.608 2324.73,564.988 2325.8,563.655 C2326.87,562.321 2327.41,561.134 2327.41,560.092 C2327.41,559.05 2326.98,558.123 2326.13,557.311 C2325.29,556.498 2324.31,556.092 2323.21,556.092 C2321.26,556.092 2317.27,558.061 2311.24,561.998 C2305.22,565.936 2301.68,568.556 2300.64,569.858 C2299.6,571.16 2299.08,572.332 2299.08,573.373 C2299.08,574.415 2299.49,575.342 2300.31,576.155 C2301.12,576.967 2302.12,577.373 2303.28,577.373 M2322.24,552.967 C2327.83,552.967 2330.63,555.373 2330.63,560.186 C2330.63,562.53 2329.94,565.248 2328.58,568.342 C2327.22,571.436 2325.39,573.795 2323.11,575.42 C2318.1,578.806 2311.82,580.498 2304.27,580.498 C2298.66,580.498 2295.86,578.092 2295.86,573.28 C2295.86,571.134 2296.53,568.464 2297.86,565.272 C2299.19,562.079 2301.03,559.67 2303.38,558.045 C2308.4,554.66 2314.68,552.967 2322.24,552.967"/>
<path class="Note" d="M1384.2,589.873 C1386.09,589.873 1390.05,587.92 1396.07,584.014 C1402.1,580.108 1405.65,577.488 1406.72,576.155 C1407.79,574.821 1408.33,573.634 1408.33,572.592 C1408.33,571.55 1407.9,570.623 1407.06,569.811 C1406.21,568.998 1405.23,568.592 1404.13,568.592 C1402.18,568.592 1398.19,570.561 1392.17,574.498 C1386.14,578.436 1382.61,581.056 1381.56,582.358 C1380.52,583.66 1380,584.832 1380,585.873 C1380,586.915 1380.41,587.842 1381.23,588.655 C1382.05,589.467 1383.04,589.873 1384.2,589.873 M1403.16,565.467 C1408.75,565.467 1411.55,567.873 1411.55,572.686 C1411.55,575.03 1410.87,577.748 1409.5,580.842 C1408.14,583.936 1406.31,586.295 1404.03,587.92 C1399.02,591.306 1392.74,592.998 1385.19,592.998 C1379.58,592.998 1376.78,590.592 1376.78,585.78 C1376.78,583.634 1377.45,580.964 1378.78,577.772 C1380.12,574.579 1381.95,572.17 1384.3,570.545 C1389.32,567.16 1395.61,565.467 1403.16,565.467"/>
<path class="Note" d="M2422.02,589.873 C2423.9,589.873 2427.86,587.92 2433.88,584.014 C2439.91,580.108 2443.46,577.488 2444.53,576.155 C2445.6,574.821 2446.14,573.634 2446.14,572.592 C2446.14,571.55 2445.72,570.623 2444.87,569.811 C2444.02,568.998 2443.04,568.592 2441.94,568.592 C2439.99,568.592 2436,570.561 2429.98,574.498 C2423.95,578.436 2420.42,581.056 2419.38,582.358 C2418.33,583.66 2417.81,584.832 2417.81,585.873 C2417.81,586.915 2418.22,587.842 2419.04,588.655 C2419.86,589.467 2420.85,589.873 2422.02,589.873 M2440.97,565.467 C2446.56,565.467 2449.36,567.873 2449.36,572.686 C2449.36,575.03 2448.68,577.748 2447.31,580.842 C2445.95,583.936 2444.13,586.295 2441.84,587.92 C2436.83,591.306 2430.55,592.998 2423,592.998 C2417.4,592.998 2414.59,590.592 2414.59,585.78 C2414.59,583.634 2415.26,580.964 2416.59,577.772 C2417.93,574.579 2419.77,572.17 2422.11,570.545 C2427.13,567.16 2433.42,565.467 2440.97,565.467"/>
<path class="Note" d="M346.393,527.373 C348.278,527.373 352.234,525.42 358.26,521.514 C364.286,517.608 367.835,514.988 368.908,513.654 C369.981,512.321 370.518,511.134 370.518,510.092 C370.518,509.05 370.093,508.123 369.244,507.311 C368.395,506.498 367.419,506.092 366.315,506.092 C364.367,506.092 360.38,508.061 354.354,511.998 C348.328,515.936 344.794,518.556 343.752,519.858 C342.71,521.16 342.19,522.332 342.19,523.373 C342.19,524.415 342.598,525.342 343.416,526.154 C344.234,526.967 345.226,527.373 346.393,527.373 M365.346,502.967 C370.94,502.967 373.736,505.373 373.736,510.186 C373.736,512.529 373.054,515.248 371.69,518.342 C370.325,521.436 368.502,523.795 366.221,525.42 C361.21,528.806 354.929,530.498 347.377,530.498 C341.773,530.498 338.971,528.092 338.971,523.279 C338.971,521.134 339.637,518.464 340.971,515.272 C342.304,512.079 344.143,509.67 346.486,508.045 C351.507,504.66 357.794,502.967 365.346,502.967"/>
<path class="Note" d="M2510.85,602.373 C2512.73,602.373 2516.69,600.42 2522.71,596.514 C2528.74,592.608 2532.29,589.988 2533.36,588.655 C2534.43,587.321 2534.97,586.134 2534.97,585.092 C2534.97,584.05 2534.55,583.123 2533.7,582.311 C2532.85,581.498 2531.87,581.092 2530.77,581.092 C2528.82,581.092 2524.83,583.061 2518.81,586.998 C2512.78,590.936 2509.25,593.556 2508.2,594.858 C2507.16,596.16 2506.64,597.332 2506.64,598.373 C2506.64,599.415 2507.05,600.342 2507.87,601.155 C2508.69,601.967 2509.68,602.373 2510.85,602.373 M2529.8,577.967 C2535.39,577.967 2538.19,580.373 2538.19,585.186 C2538.19,587.53 2537.51,590.248 2536.14,593.342 C2534.78,596.436 2532.95,598.795 2530.67,600.42 C2525.66,603.806 2519.38,605.498 2511.83,605.498 C2506.23,605.498 2503.42,603.092 2503.42,598.28 C2503.42,596.134 2504.09,593.464 2505.42,590.272 C2506.76,587.079 2508.6,584.67 2510.94,583.045 C2515.96,579.66 2522.25,577.967 2529.8,577.967"/>
<path class="Note" d="M2629.58,614.873 C2631.46,614.873 2635.42,612.92 2641.45,609.014 C2647.47,605.108 2651.02,602.488 2652.09,601.155 C2653.17,599.821 2653.7,598.634 2653.7,597.592 C2653.7,596.55 2653.28,595.623 2652.43,594.811 C2651.58,593.998 2650.6,593.592 2649.5,593.592 C2647.55,593.592 2643.56,595.561 2637.54,599.498 C2631.51,603.436 2627.98,606.056 2626.94,607.358 C2625.9,608.66 2625.37,609.832 2625.37,610.873 C2625.37,611.915 2625.78,612.842 2626.6,613.655 C2627.42,614.467 2628.41,614.873 2629.58,614.873 M2648.53,590.467 C2654.12,590.467 2656.92,592.873 2656.92,597.686 C2656.92,600.03 2656.24,602.748 2654.87,605.842 C2653.51,608.936 2651.69,611.295 2649.41,612.92 C2644.4,616.306 2638.11,617.998 2630.56,617.998 C2624.96,617.998 2622.16,615.592 2622.16,610.78 C2622.16,608.634 2622.82,605.964 2624.16,602.772 C2625.49,599.579 2627.33,597.17 2629.67,595.545 C2634.69,592.16 2640.98,590.467 2648.53,590.467"/>
<path class="Note" d="M2006.89,602.373 C2008.78,602.373 2012.73,600.42 2018.76,596.514 C2024.78,592.608 2028.33,589.988 2029.41,588.655 C2030.48,587.321 2031.02,586.134 2031.02,585.092 C2031.02,584.05 2030.59,583.123 2029.74,582.311 C2028.89,581.498 2027.92,581.092 2026.81,581.092 C2024.86,581.092 2020.88,583.061 2014.85,586.998 C2008.83,590.936 2005.29,593.556 2004.25,594.858 C2003.21,596.16 2002.69,597.332 2002.69,598.373 C2002.69,599.415 2003.1,600.342 2003.91,601.155 C2004.73,601.967 2005.72,602.373 2006.89,602.373 M2025.84,577.967 C2031.44,577.967 2034.23,580.373 2034.23,585.186 C2034.23,587.53 2033.55,590.248 2032.19,593.342 C2030.82,596.436 2029,598.795 2026.72,600.42 C2021.71,603.806 2015.43,605.498 2007.88,605.498 C2002.27,605.498 1999.47,603.092 1999.47,598.28 C1999.47,596.134 2000.14,593.464 2001.47,590.272 C2002.8,587.079 2004.64,584.67 2006.98,583.045 C2012.01,579.66 2018.29,577.967 2025.84,577.967"/>
<path class="Note" d="M1265.47,577.373 C1267.36,577.373 1271.31,575.42 1277.34,571.514 C1283.37,567.608 1286.91,564.988 1287.99,563.655 C1289.06,562.321 1289.6,561.134 1289.6,560.092 C1289.6,559.05 1289.17,558.123 1288.32,557.311 C1287.47,556.498 1286.5,556.092 1285.39,556.092 C1283.45,556.092 1279.46,558.061 1273.43,561.998 C1267.41,565.936 1263.87,568.556 1262.83,569.858 C1261.79,571.16 1261.27,572.332 1261.27,573.373 C1261.27,574.415 1261.68,575.342 1262.5,576.155 C1263.31,576.967 1264.31,577.373 1265.47,577.373 M1284.42,552.967 C1290.02,552.967 1292.82,555.373 1292.82,560.186 C1292.82,562.53 1292.13,565.248 1290.77,568.342 C1289.4,571.436 1287.58,573.795 1285.3,575.42 C1280.29,578.806 1274.01,580.498 1266.46,580.498 C1260.85,580.498 1258.05,578.092 1258.05,573.28 C1258.05,571.134 1258.72,568.464 1260.05,565.272 C1261.38,562.079 1263.22,559.67 1265.57,558.045 C1270.59,554.66 1276.87,552.967 1284.42,552.967"/>
<path class="Note" d="M1591.77,552.373 C1593.65,552.373 1597.61,550.42 1603.63,546.514 C1609.66,542.608 1613.21,539.988 1614.28,538.654 C1615.35,537.321 1615.89,536.134 1615.89,535.092 C1615.89,534.05 1615.47,533.123 1614.62,532.311 C1613.77,531.498 1612.79,531.092 1611.69,531.092 C1609.74,531.092 1605.75,533.061 1599.73,536.998 C1593.7,540.936 1590.17,543.556 1589.13,544.858 C1588.08,546.16 1587.56,547.332 1587.56,548.373 C1587.56,549.415 1587.97,550.342 1588.79,551.154 C1589.61,551.967 1590.6,552.373 1591.77,552.373 M1610.72,527.967 C1616.31,527.967 1619.11,530.373 1619.11,535.186 C1619.11,537.529 1618.43,540.248 1617.06,543.342 C1615.7,546.436 1613.88,548.795 1611.59,550.42 C1606.58,553.806 1600.3,555.498 1592.75,555.498 C1587.15,555.498 1584.34,553.092 1584.34,548.279 C1584.34,546.134 1585.01,543.464 1586.34,540.272 C1587.68,537.079 1589.52,534.67 1591.86,533.045 C1596.88,529.66 1603.17,527.967 1610.72,527.967"/>
<path class="Note" d="M1176.64,564.873 C1178.53,564.873 1182.48,562.92 1188.51,559.014 C1194.54,555.108 1198.08,552.488 1199.16,551.154 C1200.23,549.821 1200.77,548.634 1200.77,547.592 C1200.77,546.55 1200.34,545.623 1199.49,544.811 C1198.64,543.998 1197.67,543.592 1196.56,543.592 C1194.62,543.592 1190.63,545.561 1184.6,549.498 C1178.58,553.436 1175.04,556.056 1174,557.358 C1172.96,558.66 1172.44,559.832 1172.44,560.873 C1172.44,561.915 1172.85,562.842 1173.67,563.654 C1174.48,564.467 1175.48,564.873 1176.64,564.873 M1195.59,540.467 C1201.19,540.467 1203.99,542.873 1203.99,547.686 C1203.99,550.029 1203.3,552.748 1201.94,555.842 C1200.57,558.936 1198.75,561.295 1196.47,562.92 C1191.46,566.306 1185.18,567.998 1177.63,567.998 C1172.02,567.998 1169.22,565.592 1169.22,560.779 C1169.22,558.634 1169.89,555.964 1171.22,552.772 C1172.55,549.579 1174.39,547.17 1176.74,545.545 C1181.76,542.16 1188.04,540.467 1195.59,540.467"/>
<path class="Note" d="M1680.6,564.873 C1682.48,564.873 1686.44,562.92 1692.46,559.014 C1698.49,555.108 1702.04,552.488 1703.11,551.154 C1704.18,549.821 1704.72,548.634 1704.72,547.592 C1704.72,546.55 1704.3,545.623 1703.45,544.811 C1702.6,543.998 1701.62,543.592 1700.52,543.592 C1698.57,543.592 1694.58,545.561 1688.56,549.498 C1682.53,553.436 1679,556.056 1677.96,557.358 C1676.91,558.66 1676.39,559.832 1676.39,560.873 C1676.39,561.915 1676.8,562.842 1677.62,563.654 C1678.44,564.467 1679.43,564.873 1680.6,564.873 M1699.55,540.467 C1705.14,540.467 1707.94,542.873 1707.94,547.686 C1707.94,550.029 1707.26,552.748 1705.89,555.842 C1704.53,558.936 1702.71,561.295 1700.42,562.92 C1695.41,566.306 1689.13,567.998 1681.58,567.998 C1675.98,567.998 1673.17,565.592 1673.17,560.779 C1673.17,558.634 1673.84,555.964 1675.17,552.772 C1676.51,549.579 1678.35,547.17 1680.69,545.545 C1685.71,542.16 1692,540.467 1699.55,540.467"/>
<path class="Note" d="M1057.91,552.373 C1059.79,552.373 1063.75,550.42 1069.78,546.514 C1075.8,542.608 1079.35,539.988 1080.43,538.654 C1081.5,537.321 1082.03,536.134 1082.03,535.092 C1082.03,534.05 1081.61,533.123 1080.76,532.311 C1079.91,531.498 1078.94,531.092 1077.83,531.092 C1075.88,531.092 1071.9,533.061 1065.87,536.998 C1059.84,540.936 1056.31,543.556 1055.27,544.858 C1054.23,546.16 1053.71,547.332 1053.71,548.373 C1053.71,549.415 1054.12,550.342 1054.93,551.154 C1055.75,551.967 1056.74,552.373 1057.91,552.373 M1076.86,527.967 C1082.46,527.967 1085.25,530.373 1085.25,535.186 C1085.25,537.529 1084.57,540.248 1083.21,543.342 C1081.84,546.436 1080.02,548.795 1077.74,550.42 C1072.73,553.806 1066.45,555.498 1058.89,555.498 C1053.29,555.498 1050.49,553.092 1050.49,548.279 C1050.49,546.134 1051.15,543.464 1052.49,540.272 C1053.82,537.079 1055.66,534.67 1058,533.045 C1063.02,529.66 1069.31,527.967 1076.86,527.967"/>
<path class="Note" d="M1799.33,577.373 C1801.21,577.373 1805.17,575.42 1811.2,571.514 C1817.22,567.608 1820.77,564.988 1821.84,563.655 C1822.92,562.321 1823.45,561.134 1823.45,560.092 C1823.45,559.05 1823.03,558.123 1822.18,557.311 C1821.33,556.498 1820.35,556.092 1819.25,556.092 C1817.3,556.092 1813.32,558.061 1807.29,561.998 C1801.26,565.936 1797.73,568.556 1796.69,569.858 C1795.65,571.16 1795.13,572.332 1795.13,573.373 C1795.13,574.415 1795.53,575.342 1796.35,576.155 C1797.17,576.967 1798.16,577.373 1799.33,577.373 M1818.28,552.967 C1823.88,552.967 1826.67,555.373 1826.67,560.186 C1826.67,562.53 1825.99,565.248 1824.63,568.342 C1823.26,571.436 1821.44,573.795 1819.16,575.42 C1814.15,578.806 1807.87,580.498 1800.31,580.498 C1794.71,580.498 1791.91,578.092 1791.91,573.28 C1791.91,571.134 1792.57,568.464 1793.91,565.272 C1795.24,562.079 1797.08,559.67 1799.42,558.045 C1804.44,554.66 1810.73,552.967 1818.28,552.967"/>
<path class="Note" d="M969.08,539.873 C970.965,539.873 974.921,537.92 980.947,534.014 C986.973,530.108 990.522,527.488 991.595,526.154 C992.668,524.821 993.205,523.634 993.205,522.592 C993.205,521.55 992.78,520.623 991.931,519.811 C991.082,518.998 990.106,518.592 989.001,518.592 C987.053,518.592 983.067,520.561 977.04,524.498 C971.014,528.436 967.481,531.056 966.439,532.358 C965.397,533.66 964.876,534.832 964.876,535.873 C964.876,536.915 965.285,537.842 966.103,538.654 C966.921,539.467 967.913,539.873 969.08,539.873 M988.033,515.467 C993.626,515.467 996.423,517.873 996.423,522.686 C996.423,525.029 995.741,527.748 994.376,530.842 C993.012,533.936 991.189,536.295 988.908,537.92 C983.897,541.306 977.616,542.998 970.064,542.998 C964.46,542.998 961.658,540.592 961.658,535.779 C961.658,533.634 962.324,530.964 963.658,527.772 C964.991,524.579 966.83,522.17 969.173,520.545 C974.194,517.16 980.481,515.467 988.033,515.467"/>
<path class="Note" d="M1888.16,589.873 C1890.04,589.873 1894,587.92 1900.03,584.014 C1906.05,580.108 1909.6,577.488 1910.67,576.155 C1911.75,574.821 1912.28,573.634 1912.28,572.592 C1912.28,571.55 1911.86,570.623 1911.01,569.811 C1910.16,568.998 1909.18,568.592 1908.08,568.592 C1906.13,568.592 1902.15,570.561 1896.12,574.498 C1890.09,578.436 1886.56,581.056 1885.52,582.358 C1884.48,583.66 1883.96,584.832 1883.96,585.873 C1883.96,586.915 1884.36,587.842 1885.18,588.655 C1886,589.467 1886.99,589.873 1888.16,589.873 M1907.11,565.467 C1912.71,565.467 1915.5,567.873 1915.5,572.686 C1915.5,575.03 1914.82,577.748 1913.46,580.842 C1912.09,583.936 1910.27,586.295 1907.99,587.92 C1902.98,591.306 1896.7,592.998 1889.14,592.998 C1883.54,592.998 1880.74,590.592 1880.74,585.78 C1880.74,583.634 1881.4,580.964 1882.74,577.772 C1884.07,574.579 1885.91,572.17 1888.25,570.545 C1893.27,567.16 1899.56,565.467 1907.11,565.467"/>
<path class="Note" d="M761.517,577.373 C763.403,577.373 767.358,575.42 773.384,571.514 C779.41,567.608 782.96,564.988 784.033,563.655 C785.106,562.321 785.642,561.134 785.642,560.092 C785.642,559.05 785.218,558.123 784.369,557.311 C783.52,556.498 782.543,556.092 781.439,556.092 C779.491,556.092 775.504,558.061 769.478,561.998 C763.452,565.936 759.918,568.556 758.877,569.858 C757.835,571.16 757.314,572.332 757.314,573.373 C757.314,574.415 757.723,575.342 758.541,576.155 C759.358,576.967 760.351,577.373 761.517,577.373 M780.47,552.967 C786.064,552.967 788.861,555.373 788.861,560.186 C788.861,562.53 788.179,565.248 786.814,568.342 C785.45,571.436 783.627,573.795 781.345,575.42 C776.335,578.806 770.054,580.498 762.502,580.498 C756.897,580.498 754.095,578.092 754.095,573.28 C754.095,571.134 754.762,568.464 756.095,565.272 C757.429,562.079 759.267,559.67 761.611,558.045 C766.632,554.66 772.918,552.967 780.47,552.967"/>
<path class="Clef" d="M203.623,673.858 L203.623,671.717 C203.56,670.613 203.399,668.889 203.139,666.545 C199.889,667.066 196.993,667.326 194.451,667.326 C185.337,667.326 177.605,663.727 171.256,656.53 C164.907,649.332 161.732,640.754 161.732,630.795 C161.732,628.129 162.253,624.923 163.295,621.178 C164.337,617.433 165.297,614.925 166.178,613.655 C167.058,612.384 168.378,610.155 170.139,606.967 C170.659,605.988 172.352,603.837 175.217,600.514 C175.738,599.806 176.193,599.222 176.584,598.764 C176.975,598.306 177.607,597.49 178.482,596.319 C179.357,595.147 180.3,594.056 181.31,593.045 C182.321,592.035 183.217,591.058 183.998,590.115 C184.779,589.173 185.498,588.379 186.154,587.733 C183.81,579.983 182.378,574.024 181.857,569.858 C181.337,565.691 181.076,560.579 181.076,554.522 C181.076,548.464 182.378,542.962 184.982,538.014 C187.514,532.879 191.06,528.681 195.623,525.42 C195.883,525.222 196.225,525.123 196.646,525.123 C197.068,525.123 197.378,525.222 197.576,525.42 C201.087,529.649 204.128,535.149 206.701,541.92 C209.274,548.691 210.56,555.024 210.56,560.92 C210.56,566.816 209.066,572.498 206.076,577.967 C202.691,583.759 198.326,589.748 192.982,595.936 C194.347,600.227 196.17,606.962 198.451,616.139 L199.045,616.139 C199.305,616.076 199.529,616.045 199.717,616.045 C207.081,616.045 213.089,618.634 217.74,623.811 C222.391,628.988 224.717,634.962 224.717,641.733 C224.717,650.129 221.238,656.899 214.279,662.045 C212.258,663.545 209.878,664.717 207.139,665.561 C207.472,669.79 207.639,672.605 207.639,674.006 C207.639,675.407 207.571,677.899 207.435,681.483 C207.373,687.597 205.29,692.837 201.185,697.201 C197.081,701.566 192.394,703.748 187.123,703.748 C181.852,703.748 177.36,701.876 173.646,698.131 C169.933,694.386 168.076,689.847 168.076,684.514 C168.076,681.712 169.154,679.332 171.31,677.373 C173.519,675.425 176.006,674.451 178.771,674.451 C181.537,674.451 183.8,675.462 185.56,677.483 C187.383,679.368 188.295,681.644 188.295,684.311 C188.295,686.977 187.383,689.222 185.56,691.045 C183.738,692.868 181.555,693.78 179.014,693.78 C177.972,693.78 176.967,693.587 175.998,693.201 C178.863,697.431 182.54,699.545 187.029,699.545 C191.519,699.545 195.36,697.691 198.553,693.983 C201.745,690.274 203.342,685.91 203.342,680.889 L203.623,673.858 M206.748,661.561 C210.133,660.321 212.821,658.123 214.81,654.967 C216.8,651.811 217.795,648.67 217.795,645.545 C217.795,640.92 216.199,636.785 213.006,633.139 C209.813,629.493 205.774,627.441 200.889,626.983 C203.691,640.722 205.644,652.248 206.748,661.561 M168.967,638.998 C168.967,645.446 171.537,651.079 176.678,655.897 C181.818,660.714 187.842,663.123 194.748,663.123 C197.477,663.123 200.144,662.925 202.748,662.53 C201.706,652.634 199.654,640.785 196.592,626.983 C192.758,627.379 189.782,628.699 187.662,630.944 C185.542,633.188 184.482,635.743 184.482,638.608 C184.482,643.556 187.123,647.561 192.404,650.623 C192.852,650.884 193.076,651.324 193.076,651.944 C193.076,652.563 192.865,653.1 192.443,653.553 C192.021,654.006 191.649,654.233 191.326,654.233 C191.003,654.233 190.581,654.17 190.06,654.045 C182.435,649.879 178.623,643.592 178.623,635.186 C178.623,631.217 180.024,627.41 182.826,623.764 C185.753,620.118 189.56,617.774 194.248,616.733 C192.425,609.441 190.93,603.743 189.764,599.639 C180.847,609.67 175.31,617.092 173.154,621.905 C170.363,628.155 168.967,633.852 168.967,638.998 M201.576,539.686 C196.691,542.092 192.834,545.574 190.006,550.131 C187.178,554.688 185.764,559.472 185.764,564.483 C185.764,569.493 186.935,575.972 189.279,583.92 C193.967,578.254 197.514,572.946 199.92,567.998 C202.326,563.05 203.529,558.152 203.529,553.303 C203.529,548.454 202.878,543.915 201.576,539.686"/>
<path class="TimeSig" d="M273.021,567.912 C274.516,567.912 275.949,567.686 277.318,567.233 C278.688,566.78 279.665,566.553 280.248,566.553 C280.831,566.553 281.222,566.907 281.42,567.615 C281.42,567.688 281.352,567.886 281.217,568.209 L252.811,601.225 L269.498,601.225 L269.498,588.131 C269.498,586.506 270.446,585.334 272.342,584.615 C274.29,583.897 276.503,581.001 278.982,575.928 C279.17,575.532 279.462,575.334 279.857,575.334 C280.639,575.334 281.092,575.793 281.217,576.709 L281.217,601.225 L288.357,601.225 C289.264,601.225 289.751,601.712 289.818,602.686 C289.886,603.66 289.399,604.147 288.357,604.147 L281.217,604.147 L281.217,604.928 C281.217,607.532 281.868,609.746 283.17,611.569 C284.67,613.391 286.43,614.303 288.451,614.303 C289.232,614.303 289.623,614.694 289.623,615.475 C289.623,616.256 289.087,616.647 288.014,616.647 C286.941,616.647 284.938,616.436 282.006,616.014 C279.074,615.592 276.811,615.381 275.217,615.381 C273.623,615.381 271.41,615.592 268.576,616.014 C265.743,616.436 263.613,616.647 262.186,616.647 C261.404,616.647 261.014,616.256 261.014,615.475 C261.014,614.694 261.404,614.303 262.186,614.303 C264.196,614.303 265.951,613.391 267.451,611.569 C268.816,609.683 269.498,607.47 269.498,604.928 L269.498,604.147 L252.811,604.147 C251.956,604.147 251.219,603.92 250.6,603.467 C249.98,603.014 249.67,602.592 249.67,602.201 C249.67,601.811 250.485,600.639 252.115,598.686 C253.745,596.733 256.074,592.972 259.1,587.405 C262.126,581.837 263.639,575.438 263.639,568.209 C263.639,567.168 264.097,566.647 265.014,566.647 C265.212,566.647 265.521,566.712 265.943,566.842 C266.365,566.972 267.277,567.183 268.678,567.475 C270.079,567.766 271.527,567.912 273.021,567.912"/>
<path class="TimeSig" d="M273.021,618.084 C274.516,618.084 275.949,617.858 277.318,617.405 C278.688,616.951 279.665,616.725 280.248,616.725 C280.831,616.725 281.222,617.079 281.42,617.787 C281.42,617.86 281.352,618.058 281.217,618.381 L252.811,651.397 L269.498,651.397 L269.498,638.303 C269.498,636.678 270.446,635.506 272.342,634.787 C274.29,634.069 276.503,631.173 278.982,626.1 C279.17,625.704 279.462,625.506 279.857,625.506 C280.639,625.506 281.092,625.964 281.217,626.881 L281.217,651.397 L288.357,651.397 C289.264,651.397 289.751,651.884 289.818,652.858 C289.886,653.832 289.399,654.319 288.357,654.319 L281.217,654.319 L281.217,655.1 C281.217,657.704 281.868,659.918 283.17,661.74 C284.67,663.563 286.43,664.475 288.451,664.475 C289.232,664.475 289.623,664.865 289.623,665.647 C289.623,666.428 289.087,666.819 288.014,666.819 C286.941,666.819 284.938,666.608 282.006,666.186 C279.074,665.764 276.811,665.553 275.217,665.553 C273.623,665.553 271.41,665.764 268.576,666.186 C265.743,666.608 263.613,666.819 262.186,666.819 C261.404,666.819 261.014,666.428 261.014,665.647 C261.014,664.865 261.404,664.475 262.186,664.475 C264.196,664.475 265.951,663.563 267.451,661.74 C268.816,659.855 269.498,657.642 269.498,655.1 L269.498,654.319 L252.811,654.319 C251.956,654.319 251.219,654.092 250.6,653.639 C249.98,653.186 249.67,652.764 249.67,652.373 C249.67,651.983 250.485,650.811 252.115,648.858 C253.745,646.905 256.074,643.144 259.1,637.576 C262.126,632.009 263.639,625.61 263.639,618.381 C263.639,617.339 264.097,616.819 265.014,616.819 C265.212,616.819 265.521,616.884 265.943,617.014 C266.365,617.144 267.277,617.355 268.678,617.647 C270.079,617.938 271.527,618.084 273.021,618.084"/>
<path class="Rest" d="M880.359,616.733 L844.812,616.733 C844.156,616.733 843.828,616.405 843.828,615.748 L843.828,602.076 C843.828,601.431 844.156,601.108 844.812,601.108 L880.359,601.108 C881.005,601.108 881.328,601.431 881.328,602.076 L881.328,615.748 C881.328,616.405 881.005,616.733 880.359,616.733"/>
<path class="Rest" d="M2125.73,616.733 L2090.19,616.733 C2089.53,616.733 2089.2,616.405 2089.2,615.748 L2089.2,602.076 C2089.2,601.431 2089.53,601.108 2090.19,601.108 L2125.73,601.108 C2126.38,601.108 2126.7,601.431 2126.7,602.076 L2126.7,615.748 C2126.7,616.405 2126.38,616.733 2125.73,616.733"/>
<path class="Rest" d="M1503.05,616.733 L1467.5,616.733 C1466.84,616.733 1466.51,616.405 1466.51,615.748 L1466.51,602.076 C1466.51,601.431 1466.84,601.108 1467.5,601.108 L1503.05,601.108 C1503.69,601.108 1504.01,601.431 1504.01,602.076 L1504.01,615.748 C1504.01,616.405 1503.69,616.733 1503.05,616.733"/>
<path class="Rest" d="M2748.42,616.733 L2712.87,616.733 C2712.22,616.733 2711.89,616.405 2711.89,615.748 L2711.89,602.076 C2711.89,601.431 2712.22,601.108 2712.87,601.108 L2748.42,601.108 C2749.07,601.108 2749.39,601.431 2749.39,602.076 L2749.39,615.748 C2749.39,616.405 2749.07,616.733 2748.42,616.733"/>
</svg>
