<?xml version="1.0" encoding="UTF-8" standalone="no"?>
<svg width="2977.2px" height="4208.4px" viewBox="0 0 2977.2 4208.4"
 xmlns="http://www.w3.org/2000/svg" xmlns:xlink="http://www.w3.org/1999/xlink" version="1.2" baseProfile="tiny">
<title>All_Minor_7th_Arpeggios_1.mscx (2)</title>
<desc>Generated by MuseScore Studio 4.3.1</desc>
<path class="" fill="#ffffff" fill-rule="evenodd" d="M0,0 L2977.2,0 L2977.2,4208.4 L0,4208.4 L0,0 "/>
<polyline class="StaffLines" fill="none" stroke="#000000" stroke-width="2.00" stroke-linejoin="bevel" points="141.732,316.732 2835.47,316.732"/>
<polyline class="StaffLines" fill="none" stroke="#000000" stroke-width="2.00" stroke-linejoin="bevel" points="141.732,341.732 2835.47,341.732"/>
<polyline class="StaffLines" fill="none" stroke="#000000" stroke-width="2.00" stroke-linejoin="bevel" points="141.732,366.733 2835.47,366.733"/>
<polyline class="StaffLines" fill="none" stroke="#000000" stroke-width="2.00" stroke-linejoin="bevel" points="141.732,391.733 2835.47,391.733"/>
<polyline class="StaffLines" fill="none" stroke="#000000" stroke-width="2.00" stroke-linejoin="bevel" points="141.732,416.733 2835.47,416.733"/>
<path class="MeasureNumber" d="M141.607,257.654 L141.607,260.061 L137.529,260.061 L137.529,266.732 L134.451,266.732 L134.451,260.061 L123.217,260.061 L123.217,257.654 L135.764,239.701 L137.529,239.701 L137.529,257.654 L141.607,257.654 M134.404,257.654 L134.404,243.936 L124.81,257.654 L134.404,257.654 M156.998,258.873 C156.998,257.446 156.683,256.18 156.053,255.076 C155.422,253.972 154.662,253.118 153.771,252.514 C152.881,251.91 151.883,251.412 150.779,251.022 C149.675,250.631 148.714,250.376 147.896,250.256 C147.079,250.136 146.368,250.076 145.764,250.076 C145.441,250.076 145.279,249.967 145.279,249.748 C145.279,249.675 145.29,249.613 145.31,249.561 L149.67,240.264 L158.029,240.264 C158.456,240.264 158.797,240.196 159.053,240.061 C159.308,239.925 159.581,239.644 159.873,239.217 L160.232,239.498 L158.717,242.842 C158.613,243.061 158.305,243.17 157.795,243.17 L149.951,243.17 L148.279,246.607 C152.165,247.305 155.055,248.441 156.951,250.014 C158.847,251.587 159.795,253.894 159.795,256.936 C159.795,258.529 159.547,259.946 159.053,261.186 C158.558,262.425 157.93,263.423 157.17,264.178 C156.409,264.933 155.529,265.553 154.529,266.037 C153.529,266.522 152.571,266.852 151.654,267.029 C150.738,267.206 149.81,267.295 148.873,267.295 C147.383,267.295 146.199,267.074 145.318,266.631 C144.438,266.188 143.998,265.581 143.998,264.811 C143.998,263.821 144.571,263.326 145.717,263.326 C146.467,263.326 147.433,263.735 148.615,264.553 C149.797,265.37 150.738,265.779 151.435,265.779 C153.008,265.779 154.329,265.113 155.396,263.779 C156.464,262.446 156.998,260.811 156.998,258.873"/>
<polyline class="BarLine" fill="none" stroke="#000000" stroke-width="4.00" stroke-linejoin="bevel" points="2802.72,315.732 2802.72,417.733"/>
<polyline class="BarLine" fill="none" stroke="#000000" stroke-width="12.50" stroke-linejoin="bevel" points="2829.22,315.732 2829.22,417.733"/>
<polyline class="BarLine" fill="none" stroke="#000000" stroke-width="4.00" stroke-linejoin="bevel" points="2370.25,315.732 2370.25,417.733"/>
<polyline class="BarLine" fill="none" stroke="#000000" stroke-width="4.00" stroke-linejoin="bevel" points="1056.11,315.732 1056.11,417.733"/>
<polyline class="BarLine" fill="none" stroke="#000000" stroke-width="4.00" stroke-linejoin="bevel" points="1802.39,315.732 1802.39,417.733"/>
<polyline class="Stem" fill="none" stroke="#000000" stroke-width="3.25" stroke-linejoin="bevel" points="1862.48,411.933 1862.48,329.232"/>
<polyline class="Stem" fill="none" stroke="#000000" stroke-width="3.25" stroke-linejoin="bevel" points="697.098,372.602 697.098,441.733"/>
<polyline class="Stem" fill="none" stroke="#000000" stroke-width="3.25" stroke-linejoin="bevel" points="876.417,347.602 876.417,429.233"/>
<polyline class="Stem" fill="none" stroke="#000000" stroke-width="3.25" stroke-linejoin="bevel" points="547.443,385.863 547.443,304.232"/>
<polyline class="Stem" fill="none" stroke="#000000" stroke-width="3.25" stroke-linejoin="bevel" points="368.123,410.863 368.123,329.232"/>
<polyline class="Stem" fill="none" stroke="#000000" stroke-width="3.25" stroke-linejoin="bevel" points="1084.74,335.102 1084.74,416.733"/>
<polyline class="Stem" fill="none" stroke="#000000" stroke-width="3.25" stroke-linejoin="bevel" points="1264.06,347.602 1264.06,429.233"/>
<polyline class="Stem" fill="none" stroke="#000000" stroke-width="3.25" stroke-linejoin="bevel" points="1443.38,372.602 1443.38,441.733"/>
<polyline class="Stem" fill="none" stroke="#000000" stroke-width="3.25" stroke-linejoin="bevel" points="1652.36,385.863 1652.36,304.232"/>
<path class="Note" d="M1105.08,315.467 C1108.21,315.467 1110.81,316.248 1112.89,317.811 C1114.98,319.373 1116.02,321.618 1116.02,324.545 C1116.02,329.035 1113.69,333.232 1109.04,337.139 C1104.39,341.045 1099.39,342.998 1094.05,342.998 C1090.92,342.998 1088.29,342.186 1086.14,340.561 C1084.12,338.8 1083.11,336.587 1083.11,333.92 C1083.11,329.555 1085.42,325.389 1090.05,321.42 C1094.67,317.451 1099.68,315.467 1105.08,315.467"/>
<path class="Note" d="M1836.81,427.373 C1838.7,427.373 1842.65,425.42 1848.68,421.514 C1854.7,417.608 1858.25,414.988 1859.33,413.654 C1860.4,412.321 1860.94,411.134 1860.94,410.092 C1860.94,409.05 1860.51,408.123 1859.66,407.311 C1858.81,406.498 1857.84,406.092 1856.73,406.092 C1854.79,406.092 1850.8,408.061 1844.77,411.998 C1838.75,415.936 1835.21,418.555 1834.17,419.858 C1833.13,421.16 1832.61,422.331 1832.61,423.373 C1832.61,424.415 1833.02,425.342 1833.83,426.154 C1834.65,426.967 1835.64,427.373 1836.81,427.373 M1855.76,402.967 C1861.36,402.967 1864.15,405.373 1864.15,410.186 C1864.15,412.529 1863.47,415.248 1862.11,418.342 C1860.74,421.436 1858.92,423.795 1856.64,425.42 C1851.63,428.805 1845.35,430.498 1837.8,430.498 C1832.19,430.498 1829.39,428.092 1829.39,423.279 C1829.39,421.134 1830.06,418.464 1831.39,415.272 C1832.72,412.079 1834.56,409.67 1836.9,408.045 C1841.93,404.66 1848.21,402.967 1855.76,402.967"/>
<path class="Note" d="M1643.04,377.967 C1646.16,377.967 1648.77,378.748 1650.85,380.311 C1652.93,381.873 1653.98,384.118 1653.98,387.045 C1653.98,391.535 1651.65,395.733 1647,399.639 C1642.35,403.545 1637.35,405.498 1632.01,405.498 C1628.88,405.498 1626.25,404.686 1624.1,403.061 C1622.08,401.3 1621.07,399.087 1621.07,396.42 C1621.07,392.055 1623.38,387.889 1628.01,383.92 C1632.63,379.951 1637.64,377.967 1643.04,377.967"/>
<path class="Note" d="M1463.72,352.967 C1466.84,352.967 1469.45,353.748 1471.53,355.311 C1473.61,356.873 1474.66,359.118 1474.66,362.045 C1474.66,366.535 1472.33,370.733 1467.68,374.639 C1463.03,378.545 1458.03,380.498 1452.69,380.498 C1449.56,380.498 1446.93,379.686 1444.78,378.061 C1442.76,376.3 1441.75,374.087 1441.75,371.42 C1441.75,367.055 1444.06,362.889 1448.69,358.92 C1453.31,354.951 1458.32,352.967 1463.72,352.967"/>
<path class="Note" d="M1284.4,327.967 C1287.52,327.967 1290.13,328.748 1292.21,330.311 C1294.3,331.873 1295.34,334.118 1295.34,337.045 C1295.34,341.535 1293.01,345.732 1288.36,349.639 C1283.71,353.545 1278.71,355.498 1273.37,355.498 C1270.24,355.498 1267.61,354.686 1265.46,353.061 C1263.44,351.3 1262.43,349.087 1262.43,346.42 C1262.43,342.055 1264.74,337.889 1269.37,333.92 C1273.99,329.951 1279,327.967 1284.4,327.967"/>
<path class="Note" d="M896.761,327.967 C899.886,327.967 902.49,328.748 904.573,330.311 C906.657,331.873 907.698,334.118 907.698,337.045 C907.698,341.535 905.373,345.732 900.722,349.639 C896.071,353.545 891.073,355.498 885.73,355.498 C882.605,355.498 879.969,354.686 877.823,353.061 C875.803,351.3 874.792,349.087 874.792,346.42 C874.792,342.055 877.105,337.889 881.73,333.92 C886.355,329.951 891.365,327.967 896.761,327.967"/>
<path class="Note" d="M717.442,352.967 C720.567,352.967 723.171,353.748 725.254,355.311 C727.337,356.873 728.379,359.118 728.379,362.045 C728.379,366.535 726.054,370.733 721.403,374.639 C716.751,378.545 711.754,380.498 706.41,380.498 C703.285,380.498 700.65,379.686 698.504,378.061 C696.483,376.3 695.473,374.087 695.473,371.42 C695.473,367.055 697.785,362.889 702.41,358.92 C707.035,354.951 712.046,352.967 717.442,352.967"/>
<path class="Note" d="M538.122,377.967 C541.247,377.967 543.851,378.748 545.935,380.311 C548.018,381.873 549.06,384.118 549.06,387.045 C549.06,391.535 546.734,395.733 542.083,399.639 C537.432,403.545 532.435,405.498 527.091,405.498 C523.966,405.498 521.331,404.686 519.185,403.061 C517.164,401.3 516.153,399.087 516.153,396.42 C516.153,392.055 518.466,387.889 523.091,383.92 C527.716,379.951 532.726,377.967 538.122,377.967"/>
<path class="Note" d="M358.803,402.967 C361.928,402.967 364.532,403.748 366.615,405.311 C368.699,406.873 369.74,409.118 369.74,412.045 C369.74,416.535 367.415,420.733 362.764,424.639 C358.113,428.545 353.115,430.498 347.772,430.498 C344.647,430.498 342.011,429.686 339.865,428.061 C337.844,426.3 336.834,424.087 336.834,421.42 C336.834,417.055 339.147,412.889 343.772,408.92 C348.397,404.951 353.407,402.967 358.803,402.967"/>
<path class="Clef" d="M203.623,423.858 L203.623,421.717 C203.56,420.613 203.399,418.889 203.139,416.545 C199.889,417.066 196.993,417.326 194.451,417.326 C185.337,417.326 177.605,413.727 171.256,406.529 C164.907,399.331 161.732,390.753 161.732,380.795 C161.732,378.128 162.253,374.923 163.295,371.178 C164.337,367.433 165.297,364.925 166.178,363.654 C167.058,362.384 168.378,360.154 170.139,356.967 C170.659,355.988 172.352,353.837 175.217,350.514 C175.738,349.805 176.193,349.222 176.584,348.764 C176.975,348.305 177.607,347.49 178.482,346.318 C179.357,345.147 180.3,344.055 181.31,343.045 C182.321,342.035 183.217,341.058 183.998,340.115 C184.779,339.173 185.498,338.378 186.154,337.733 C183.81,329.983 182.378,324.024 181.857,319.858 C181.337,315.691 181.076,310.579 181.076,304.522 C181.076,298.464 182.378,292.962 184.982,288.014 C187.514,282.878 191.06,278.68 195.623,275.42 C195.883,275.222 196.225,275.123 196.646,275.123 C197.068,275.123 197.378,275.222 197.576,275.42 C201.087,279.649 204.128,285.149 206.701,291.92 C209.274,298.691 210.56,305.024 210.56,310.92 C210.56,316.816 209.066,322.498 206.076,327.967 C202.691,333.759 198.326,339.748 192.982,345.936 C194.347,350.227 196.17,356.962 198.451,366.139 L199.045,366.139 C199.305,366.076 199.529,366.045 199.717,366.045 C207.081,366.045 213.089,368.634 217.74,373.811 C222.391,378.988 224.717,384.962 224.717,391.733 C224.717,400.128 221.238,406.899 214.279,412.045 C212.258,413.545 209.878,414.717 207.139,415.561 C207.472,419.79 207.639,422.605 207.639,424.006 C207.639,425.407 207.571,427.899 207.435,431.483 C207.373,437.597 205.29,442.837 201.185,447.201 C197.081,451.566 192.394,453.748 187.123,453.748 C181.852,453.748 177.36,451.876 173.646,448.131 C169.933,444.386 168.076,439.847 168.076,434.514 C168.076,431.712 169.154,429.331 171.31,427.373 C173.519,425.425 176.006,424.451 178.771,424.451 C181.537,424.451 183.8,425.462 185.56,427.483 C187.383,429.368 188.295,431.644 188.295,434.311 C188.295,436.977 187.383,439.222 185.56,441.045 C183.738,442.868 181.555,443.779 179.014,443.779 C177.972,443.779 176.967,443.587 175.998,443.201 C178.863,447.43 182.54,449.545 187.029,449.545 C191.519,449.545 195.36,447.691 198.553,443.983 C201.745,440.274 203.342,435.91 203.342,430.889 L203.623,423.858 M206.748,411.561 C210.133,410.321 212.821,408.123 214.81,404.967 C216.8,401.811 217.795,398.67 217.795,395.545 C217.795,390.92 216.199,386.785 213.006,383.139 C209.813,379.493 205.774,377.441 200.889,376.983 C203.691,390.722 205.644,402.248 206.748,411.561 M168.967,388.998 C168.967,395.446 171.537,401.079 176.678,405.897 C181.818,410.714 187.842,413.123 194.748,413.123 C197.477,413.123 200.144,412.925 202.748,412.529 C201.706,402.634 199.654,390.785 196.592,376.983 C192.758,377.378 189.782,378.699 187.662,380.943 C185.542,383.188 184.482,385.743 184.482,388.608 C184.482,393.555 187.123,397.561 192.404,400.623 C192.852,400.884 193.076,401.324 193.076,401.943 C193.076,402.563 192.865,403.1 192.443,403.553 C192.021,404.006 191.649,404.233 191.326,404.233 C191.003,404.233 190.581,404.17 190.06,404.045 C182.435,399.878 178.623,393.592 178.623,385.186 C178.623,381.217 180.024,377.41 182.826,373.764 C185.753,370.118 189.56,367.774 194.248,366.733 C192.425,359.441 190.93,353.743 189.764,349.639 C180.847,359.67 175.31,367.092 173.154,371.904 C170.363,378.154 168.967,383.852 168.967,388.998 M201.576,289.686 C196.691,292.092 192.834,295.574 190.006,300.131 C187.178,304.688 185.764,309.472 185.764,314.483 C185.764,319.493 186.935,325.972 189.279,333.92 C193.967,328.253 197.514,322.946 199.92,317.998 C202.326,313.05 203.529,308.152 203.529,303.303 C203.529,298.454 202.878,293.915 201.576,289.686"/>
<path class="KeySig" d="M272.412,294.764 C273.85,294.368 274.568,294.722 274.568,295.826 L274.568,303.639 C274.568,304.42 273.949,305.04 272.709,305.498 L269.49,306.764 L269.49,320.936 L272.412,319.764 C273.85,319.368 274.568,319.727 274.568,320.842 L274.568,328.654 C274.568,329.436 273.949,330.05 272.709,330.498 L269.49,331.779 L269.49,347.982 C269.49,349.222 269.001,349.842 268.021,349.842 C267.042,349.842 266.553,349.222 266.553,347.982 L266.553,332.951 L257.271,336.654 L257.271,352.764 C257.271,354.003 256.785,354.623 255.811,354.623 C254.837,354.623 254.35,354.003 254.35,352.764 L254.35,337.826 L251.803,338.904 C250.438,339.488 249.756,339.097 249.756,337.732 L249.756,330.014 C249.756,329.368 250.344,328.785 251.521,328.264 L254.35,327.092 L254.35,312.826 L251.803,313.904 C250.438,314.488 249.756,314.097 249.756,312.732 L249.756,305.014 C249.756,304.357 250.344,303.769 251.521,303.248 L254.35,302.076 L254.35,285.967 C254.35,284.727 254.837,284.107 255.811,284.107 C256.785,284.107 257.271,284.727 257.271,285.967 L257.271,300.904 L266.553,297.107 L266.553,281.186 C266.553,279.946 267.042,279.326 268.021,279.326 C269.001,279.326 269.49,279.946 269.49,281.186 L269.49,295.936 L272.412,294.764 M257.271,311.654 L257.271,325.92 L266.553,322.107 L266.553,307.936 L257.271,311.654 "/>
<path class="Rest" d="M2135.8,366.733 L2100.25,366.733 C2099.6,366.733 2099.27,366.404 2099.27,365.748 L2099.27,352.076 C2099.27,351.43 2099.6,351.108 2100.25,351.108 L2135.8,351.108 C2136.45,351.108 2136.77,351.43 2136.77,352.076 L2136.77,365.748 C2136.77,366.404 2136.45,366.733 2135.8,366.733"/>
<path class="Rest" d="M2604.27,357.357 L2568.72,357.357 C2568.06,357.357 2567.73,357.035 2567.73,356.389 L2567.73,342.717 C2567.73,342.061 2568.06,341.732 2568.72,341.732 L2604.27,341.732 C2604.91,341.732 2605.23,342.061 2605.23,342.717 L2605.23,356.389 C2605.23,357.035 2604.91,357.357 2604.27,357.357"/>
<path class="StaffText" d="M300.788,248.094 C300.788,249.25 301.119,249.967 301.78,250.243 C302.442,250.519 304.215,250.657 307.1,250.657 L308.71,250.657 C312.991,250.657 316.051,250.149 317.889,249.133 C319.728,248.118 321.387,245.995 322.866,242.766 L324.554,242.766 L321.85,252.938 L289.46,252.938 L289.46,251.797 C291.658,251.631 293.077,251.217 293.718,250.555 C294.358,249.894 294.679,248.506 294.679,246.391 L294.679,219.75 C294.679,217.636 294.358,216.248 293.718,215.586 C293.077,214.925 291.658,214.516 289.46,214.36 L289.46,213.219 L321.319,213.219 L321.491,221.797 L319.991,221.797 C319.47,219.12 318.671,217.401 317.593,216.641 C316.514,215.881 314.272,215.5 310.866,215.5 L302.772,215.5 C301.97,215.5 301.439,215.628 301.179,215.883 C300.918,216.138 300.788,216.683 300.788,217.516 L300.788,230.672 L310.038,230.672 C312.59,230.672 314.236,230.295 314.975,229.539 C315.715,228.784 316.267,227.323 316.632,225.157 L318.007,225.157 L318.007,238.891 L316.632,238.891 C316.236,236.495 315.658,234.967 314.897,234.305 C314.137,233.644 312.517,233.313 310.038,233.313 L300.788,233.313 L300.788,248.094 M325.929,229.172 L325.929,228.157 C328.804,227.323 331.6,226.386 334.319,225.344 L334.741,225.469 L334.741,230.079 C337.22,228.151 339.061,226.881 340.264,226.266 C341.468,225.651 342.731,225.344 344.054,225.344 C347.21,225.344 349.33,227.058 350.413,230.485 C353.527,227.058 356.783,225.344 360.179,225.344 C364.824,225.344 367.147,228.933 367.147,236.11 L367.147,248.391 C367.147,250.62 368.007,251.797 369.725,251.922 L371.288,252.032 L371.288,252.938 L358.147,252.938 L358.147,252.032 C359.908,251.834 361.007,251.498 361.444,251.024 C361.882,250.55 362.1,249.454 362.1,247.735 L362.1,235.141 C362.1,232.672 361.78,230.961 361.139,230.008 C360.499,229.055 359.319,228.579 357.6,228.579 C354.965,228.579 352.788,229.792 351.069,232.219 L351.069,247.266 C351.069,249.131 351.358,250.383 351.936,251.024 C352.514,251.664 353.663,252 355.382,252.032 L355.382,252.938 L341.944,252.938 L341.944,252.032 C343.663,251.917 344.772,251.602 345.272,251.086 C345.772,250.571 346.022,249.474 346.022,247.797 L346.022,234.844 C346.022,230.667 344.705,228.579 342.069,228.579 C340.944,228.579 339.692,228.857 338.311,229.414 C336.931,229.972 335.824,230.87 334.991,232.11 L334.991,248.938 C334.991,250.094 335.27,250.881 335.827,251.297 C336.384,251.714 337.465,251.959 339.069,252.032 L339.069,252.938 L325.741,252.938 L325.741,252.032 C327.429,252 328.551,251.706 329.108,251.149 C329.665,250.592 329.944,249.495 329.944,247.86 L329.944,232.766 C329.944,231.329 329.796,230.331 329.499,229.774 C329.202,229.217 328.652,228.938 327.85,228.938 C327.246,228.938 326.606,229.016 325.929,229.172 M375.6,229.36 C374.725,229.36 373.887,229.417 373.085,229.532 L373.085,228.641 C375.887,227.839 378.986,226.74 382.382,225.344 L382.616,225.516 L382.616,246.813 C382.616,248.98 382.866,250.352 383.366,250.93 C383.866,251.508 385.095,251.875 387.054,252.032 L387.054,252.938 L372.835,252.938 L372.835,252.032 C374.918,251.917 376.231,251.56 376.772,250.961 C377.314,250.362 377.585,248.98 377.585,246.813 L377.585,232.891 C377.585,231.579 377.434,230.662 377.132,230.141 C376.83,229.62 376.319,229.36 375.6,229.36 M379.569,211.954 C380.444,211.954 381.181,212.256 381.78,212.86 C382.379,213.464 382.679,214.183 382.679,215.016 C382.679,215.901 382.379,216.633 381.78,217.211 C381.181,217.789 380.444,218.079 379.569,218.079 C378.725,218.079 378.014,217.779 377.436,217.18 C376.858,216.581 376.569,215.862 376.569,215.024 C376.569,214.185 376.869,213.464 377.468,212.86 C378.067,212.256 378.767,211.954 379.569,211.954 M388.554,229 L388.554,227.985 C391.522,227.12 394.283,226.24 396.835,225.344 L397.257,225.454 L397.257,230.141 C399.298,228.245 400.91,226.972 402.093,226.321 C403.275,225.67 404.564,225.344 405.96,225.344 C408.158,225.344 409.887,226.128 411.147,227.696 C412.408,229.263 413.038,231.464 413.038,234.297 L413.038,248.063 C413.038,249.553 413.277,250.547 413.757,251.047 C414.236,251.547 415.215,251.875 416.694,252.032 L416.694,252.938 L404.225,252.938 L404.225,252.032 C405.746,251.917 406.757,251.519 407.257,250.836 C407.757,250.154 408.007,248.87 408.007,246.985 L408.007,234.407 C408.007,230.521 406.543,228.579 403.616,228.579 C402.616,228.579 401.697,228.81 400.858,229.274 C400.02,229.737 398.882,230.646 397.444,232 L397.444,248.907 C397.444,249.99 397.723,250.753 398.28,251.196 C398.837,251.638 399.876,251.917 401.397,252.032 L401.397,252.938 L388.679,252.938 L388.679,252.032 C390.199,251.917 391.199,251.568 391.679,250.985 C392.158,250.401 392.397,249.25 392.397,247.532 L392.397,232.61 C392.397,231.12 392.238,230.107 391.921,229.571 C391.603,229.034 391.022,228.766 390.179,228.766 C389.418,228.766 388.876,228.844 388.554,229"/>
<path class="Page" d="M141.953,3976.75 C142.089,3976.14 142.224,3975.61 142.359,3975.15 C142.495,3974.7 142.781,3974.04 143.219,3973.18 C143.656,3972.31 144.148,3971.59 144.695,3971.02 C145.242,3970.45 146.003,3969.93 146.977,3969.48 C147.951,3969.03 149.052,3968.8 150.281,3968.8 C152.354,3968.8 154.104,3969.48 155.531,3970.84 C156.958,3972.2 157.672,3973.87 157.672,3975.86 C157.672,3978.9 155.969,3982.21 152.563,3985.8 L145.844,3992.88 L155.391,3992.88 C156.297,3992.88 156.971,3992.73 157.414,3992.42 C157.857,3992.11 158.453,3991.38 159.203,3990.22 L159.719,3990.43 L157.516,3995.8 L141.922,3995.8 L141.922,3995.33 L149.031,3987.79 C152.5,3984.11 154.234,3980.65 154.234,3977.4 C154.234,3975.71 153.714,3974.34 152.672,3973.29 C151.63,3972.25 150.271,3971.72 148.594,3971.72 C147.208,3971.72 146.096,3972.11 145.258,3972.87 C144.419,3973.64 143.599,3975 142.797,3976.96 L141.953,3976.75 "/>
</svg>
