<?xml version="1.0" encoding="UTF-8" standalone="no"?>
<svg width="2977.2px" height="4208.4px" viewBox="0 0 2977.2 4208.4"
 xmlns="http://www.w3.org/2000/svg" xmlns:xlink="http://www.w3.org/1999/xlink" version="1.2" baseProfile="tiny">
<title>C_Major_Scale_4.mscx</title>
<desc>Generated by MuseScore Studio 4.3.1</desc>
<path class="" fill="#ffffff" fill-rule="evenodd" d="M0,0 L2977.2,0 L2977.2,4208.4 L0,4208.4 L0,0 "/>
<polyline class="StaffLines" fill="none" stroke="#000000" stroke-width="2.00" stroke-linejoin="bevel" points="141.732,566.733 2835.47,566.733"/>
<polyline class="StaffLines" fill="none" stroke="#000000" stroke-width="2.00" stroke-linejoin="bevel" points="141.732,591.733 2835.47,591.733"/>
<polyline class="StaffLines" fill="none" stroke="#000000" stroke-width="2.00" stroke-linejoin="bevel" points="141.732,616.733 2835.47,616.733"/>
<polyline class="StaffLines" fill="none" stroke="#000000" stroke-width="2.00" stroke-linejoin="bevel" points="141.732,641.733 2835.47,641.733"/>
<polyline class="StaffLines" fill="none" stroke="#000000" stroke-width="2.00" stroke-linejoin="bevel" points="141.732,666.733 2835.47,666.733"/>
<polyline class="BarLine" fill="none" stroke="#000000" stroke-width="4.00" stroke-linejoin="bevel" points="1444.13,565.733 1444.13,667.733"/>
<polyline class="BarLine" fill="none" stroke="#000000" stroke-width="4.00" stroke-linejoin="bevel" points="2576.29,565.733 2576.29,667.733"/>
<polyline class="BarLine" fill="none" stroke="#000000" stroke-width="4.00" stroke-linejoin="bevel" points="991.266,565.733 991.266,667.733"/>
<polyline class="BarLine" fill="none" stroke="#000000" stroke-width="4.00" stroke-linejoin="bevel" points="764.834,565.733 764.834,667.733"/>
<polyline class="BarLine" fill="none" stroke="#000000" stroke-width="4.00" stroke-linejoin="bevel" points="1217.7,565.733 1217.7,667.733"/>
<polyline class="BarLine" fill="none" stroke="#000000" stroke-width="4.00" stroke-linejoin="bevel" points="2349.86,565.733 2349.86,667.733"/>
<polyline class="BarLine" fill="none" stroke="#000000" stroke-width="4.00" stroke-linejoin="bevel" points="538.402,565.733 538.402,667.733"/>
<polyline class="BarLine" fill="none" stroke="#000000" stroke-width="4.00" stroke-linejoin="bevel" points="1670.56,565.733 1670.56,667.733"/>
<polyline class="BarLine" fill="none" stroke="#000000" stroke-width="4.00" stroke-linejoin="bevel" points="2123.42,565.733 2123.42,667.733"/>
<polyline class="BarLine" fill="none" stroke="#000000" stroke-width="4.00" stroke-linejoin="bevel" points="1896.99,565.733 1896.99,667.733"/>
<polyline class="BarLine" fill="none" stroke="#000000" stroke-width="4.00" stroke-linejoin="bevel" points="2802.72,565.733 2802.72,667.733"/>
<polyline class="BarLine" fill="none" stroke="#000000" stroke-width="12.50" stroke-linejoin="bevel" points="2829.22,565.733 2829.22,667.733"/>
<polyline class="LedgerLine" fill="none" stroke="#000000" stroke-width="4.00" stroke-linejoin="bevel" points="2692.05,466.733 2745.77,466.733"/>
<polyline class="LedgerLine" fill="none" stroke="#000000" stroke-width="4.00" stroke-linejoin="bevel" points="2239.19,541.733 2292.91,541.733"/>
<polyline class="LedgerLine" fill="none" stroke="#000000" stroke-width="4.00" stroke-linejoin="bevel" points="2140.92,491.733 2194.64,491.733"/>
<polyline class="LedgerLine" fill="none" stroke="#000000" stroke-width="4.00" stroke-linejoin="bevel" points="2140.92,516.733 2194.64,516.733"/>
<polyline class="LedgerLine" fill="none" stroke="#000000" stroke-width="4.00" stroke-linejoin="bevel" points="2692.05,541.733 2745.77,541.733"/>
<polyline class="LedgerLine" fill="none" stroke="#000000" stroke-width="4.00" stroke-linejoin="bevel" points="2692.05,516.733 2745.77,516.733"/>
<polyline class="LedgerLine" fill="none" stroke="#000000" stroke-width="4.00" stroke-linejoin="bevel" points="2140.92,541.733 2194.64,541.733"/>
<polyline class="LedgerLine" fill="none" stroke="#000000" stroke-width="4.00" stroke-linejoin="bevel" points="2692.05,491.733 2745.77,491.733"/>
<polyline class="LedgerLine" fill="none" stroke="#000000" stroke-width="4.00" stroke-linejoin="bevel" points="2593.79,466.733 2647.51,466.733"/>
<polyline class="LedgerLine" fill="none" stroke="#000000" stroke-width="4.00" stroke-linejoin="bevel" points="2012.76,516.733 2066.48,516.733"/>
<polyline class="LedgerLine" fill="none" stroke="#000000" stroke-width="4.00" stroke-linejoin="bevel" points="2012.76,541.733 2066.48,541.733"/>
<polyline class="LedgerLine" fill="none" stroke="#000000" stroke-width="4.00" stroke-linejoin="bevel" points="1914.49,516.733 1968.21,516.733"/>
<polyline class="LedgerLine" fill="none" stroke="#000000" stroke-width="4.00" stroke-linejoin="bevel" points="2692.05,441.733 2745.77,441.733"/>
<polyline class="LedgerLine" fill="none" stroke="#000000" stroke-width="4.00" stroke-linejoin="bevel" points="1914.49,541.733 1968.21,541.733"/>
<polyline class="LedgerLine" fill="none" stroke="#000000" stroke-width="4.00" stroke-linejoin="bevel" points="2239.19,516.733 2292.91,516.733"/>
<polyline class="LedgerLine" fill="none" stroke="#000000" stroke-width="4.00" stroke-linejoin="bevel" points="2593.79,441.733 2647.51,441.733"/>
<polyline class="LedgerLine" fill="none" stroke="#000000" stroke-width="4.00" stroke-linejoin="bevel" points="2465.62,466.733 2519.34,466.733"/>
<polyline class="LedgerLine" fill="none" stroke="#000000" stroke-width="4.00" stroke-linejoin="bevel" points="2239.19,491.733 2292.91,491.733"/>
<polyline class="LedgerLine" fill="none" stroke="#000000" stroke-width="4.00" stroke-linejoin="bevel" points="2593.79,491.733 2647.51,491.733"/>
<polyline class="LedgerLine" fill="none" stroke="#000000" stroke-width="4.00" stroke-linejoin="bevel" points="2367.36,541.733 2421.07,541.733"/>
<polyline class="LedgerLine" fill="none" stroke="#000000" stroke-width="4.00" stroke-linejoin="bevel" points="2593.79,516.733 2647.51,516.733"/>
<polyline class="LedgerLine" fill="none" stroke="#000000" stroke-width="4.00" stroke-linejoin="bevel" points="2593.79,541.733 2647.51,541.733"/>
<polyline class="LedgerLine" fill="none" stroke="#000000" stroke-width="4.00" stroke-linejoin="bevel" points="2367.36,516.733 2421.07,516.733"/>
<polyline class="LedgerLine" fill="none" stroke="#000000" stroke-width="4.00" stroke-linejoin="bevel" points="2367.36,491.733 2421.07,491.733"/>
<polyline class="LedgerLine" fill="none" stroke="#000000" stroke-width="4.00" stroke-linejoin="bevel" points="2367.36,466.733 2421.07,466.733"/>
<polyline class="LedgerLine" fill="none" stroke="#000000" stroke-width="4.00" stroke-linejoin="bevel" points="2465.62,541.733 2519.34,541.733"/>
<polyline class="LedgerLine" fill="none" stroke="#000000" stroke-width="4.00" stroke-linejoin="bevel" points="2465.62,516.733 2519.34,516.733"/>
<polyline class="LedgerLine" fill="none" stroke="#000000" stroke-width="4.00" stroke-linejoin="bevel" points="2465.62,491.733 2519.34,491.733"/>
<polyline class="LedgerLine" fill="none" stroke="#000000" stroke-width="4.00" stroke-linejoin="bevel" points="329.471,691.733 383.19,691.733"/>
<polyline class="LedgerLine" fill="none" stroke="#000000" stroke-width="4.00" stroke-linejoin="bevel" points="1786.32,541.733 1840.04,541.733"/>
<polyline class="LedgerLine" fill="none" stroke="#000000" stroke-width="4.00" stroke-linejoin="bevel" points="1688.06,541.733 1741.78,541.733"/>
<polyline class="Stem" fill="none" stroke="#000000" stroke-width="3.25" stroke-linejoin="bevel" points="1344.59,584.133 1344.59,666.733"/>
<polyline class="Stem" fill="none" stroke="#000000" stroke-width="3.25" stroke-linejoin="bevel" points="1925.62,521.633 1925.62,616.733"/>
<polyline class="Stem" fill="none" stroke="#000000" stroke-width="3.25" stroke-linejoin="bevel" points="2378.48,471.633 2378.48,616.733"/>
<polyline class="Stem" fill="none" stroke="#000000" stroke-width="3.25" stroke-linejoin="bevel" points="1246.32,596.633 1246.32,679.233"/>
<polyline class="Stem" fill="none" stroke="#000000" stroke-width="3.25" stroke-linejoin="bevel" points="1118.16,609.133 1118.16,685.483"/>
<polyline class="Stem" fill="none" stroke="#000000" stroke-width="3.25" stroke-linejoin="bevel" points="2476.74,459.133 2476.74,616.733"/>
<polyline class="Stem" fill="none" stroke="#000000" stroke-width="3.25" stroke-linejoin="bevel" points="1019.89,621.633 1019.89,691.733"/>
<polyline class="Stem" fill="none" stroke="#000000" stroke-width="3.25" stroke-linejoin="bevel" points="923.192,624.433 923.192,547.983"/>
<polyline class="Stem" fill="none" stroke="#000000" stroke-width="3.25" stroke-linejoin="bevel" points="824.928,636.933 824.928,554.233"/>
<polyline class="Stem" fill="none" stroke="#000000" stroke-width="3.25" stroke-linejoin="bevel" points="2604.91,446.633 2604.91,616.733"/>
<polyline class="Stem" fill="none" stroke="#000000" stroke-width="3.25" stroke-linejoin="bevel" points="696.761,649.433 696.761,566.733"/>
<polyline class="Stem" fill="none" stroke="#000000" stroke-width="3.25" stroke-linejoin="bevel" points="598.496,661.933 598.496,579.233"/>
<polyline class="Stem" fill="none" stroke="#000000" stroke-width="3.25" stroke-linejoin="bevel" points="470.329,674.433 470.329,591.733"/>
<polyline class="Stem" fill="none" stroke="#000000" stroke-width="3.25" stroke-linejoin="bevel" points="2703.18,434.133 2703.18,616.733"/>
<polyline class="Stem" fill="none" stroke="#000000" stroke-width="3.25" stroke-linejoin="bevel" points="372.065,686.933 372.065,604.233"/>
<polyline class="Stem" fill="none" stroke="#000000" stroke-width="3.25" stroke-linejoin="bevel" points="2023.88,509.133 2023.88,616.733"/>
<polyline class="Stem" fill="none" stroke="#000000" stroke-width="3.25" stroke-linejoin="bevel" points="2152.05,496.633 2152.05,616.733"/>
<polyline class="Stem" fill="none" stroke="#000000" stroke-width="3.25" stroke-linejoin="bevel" points="1699.19,546.633 1699.19,629.233"/>
<polyline class="Stem" fill="none" stroke="#000000" stroke-width="3.25" stroke-linejoin="bevel" points="1797.45,534.133 1797.45,616.733"/>
<polyline class="Stem" fill="none" stroke="#000000" stroke-width="3.25" stroke-linejoin="bevel" points="1571.02,559.133 1571.02,641.733"/>
<polyline class="Stem" fill="none" stroke="#000000" stroke-width="3.25" stroke-linejoin="bevel" points="2250.31,484.133 2250.31,616.733"/>
<polyline class="Stem" fill="none" stroke="#000000" stroke-width="3.25" stroke-linejoin="bevel" points="1472.75,571.633 1472.75,654.233"/>
<path class="Note" d="M1931.41,527.373 C1933.3,527.373 1937.25,525.42 1943.28,521.514 C1949.31,517.608 1952.86,514.988 1953.93,513.654 C1955,512.321 1955.54,511.134 1955.54,510.092 C1955.54,509.05 1955.11,508.123 1954.27,507.311 C1953.42,506.498 1952.44,506.092 1951.34,506.092 C1949.39,506.092 1945.4,508.061 1939.37,511.998 C1933.35,515.936 1929.81,518.556 1928.77,519.858 C1927.73,521.16 1927.21,522.332 1927.21,523.373 C1927.21,524.415 1927.62,525.342 1928.44,526.154 C1929.25,526.967 1930.25,527.373 1931.41,527.373 M1950.37,502.967 C1955.96,502.967 1958.76,505.373 1958.76,510.186 C1958.76,512.529 1958.08,515.248 1956.71,518.342 C1955.35,521.436 1953.52,523.795 1951.24,525.42 C1946.23,528.806 1939.95,530.498 1932.4,530.498 C1926.79,530.498 1923.99,528.092 1923.99,523.279 C1923.99,521.134 1924.66,518.464 1925.99,515.272 C1927.33,512.079 1929.16,509.67 1931.51,508.045 C1936.53,504.66 1942.81,502.967 1950.37,502.967"/>
<path class="Note" d="M2610.71,452.373 C2612.59,452.373 2616.55,450.42 2622.58,446.514 C2628.6,442.608 2632.15,439.988 2633.22,438.654 C2634.3,437.321 2634.83,436.134 2634.83,435.092 C2634.83,434.05 2634.41,433.123 2633.56,432.311 C2632.71,431.498 2631.73,431.092 2630.63,431.092 C2628.68,431.092 2624.7,433.061 2618.67,436.998 C2612.64,440.936 2609.11,443.555 2608.07,444.858 C2607.03,446.16 2606.51,447.332 2606.51,448.373 C2606.51,449.415 2606.91,450.342 2607.73,451.154 C2608.55,451.967 2609.54,452.373 2610.71,452.373 M2629.66,427.967 C2635.26,427.967 2638.05,430.373 2638.05,435.186 C2638.05,437.529 2637.37,440.248 2636.01,443.342 C2634.64,446.436 2632.82,448.795 2630.54,450.42 C2625.53,453.805 2619.25,455.498 2611.69,455.498 C2606.09,455.498 2603.29,453.092 2603.29,448.279 C2603.29,446.134 2603.95,443.464 2605.29,440.272 C2606.62,437.079 2608.46,434.67 2610.8,433.045 C2615.82,429.66 2622.11,427.967 2629.66,427.967"/>
<path class="Note" d="M2256.11,489.873 C2258,489.873 2261.95,487.92 2267.98,484.014 C2274,480.108 2277.55,477.488 2278.63,476.154 C2279.7,474.821 2280.24,473.634 2280.24,472.592 C2280.24,471.55 2279.81,470.623 2278.96,469.811 C2278.11,468.998 2277.14,468.592 2276.03,468.592 C2274.08,468.592 2270.1,470.561 2264.07,474.498 C2258.04,478.436 2254.51,481.055 2253.47,482.358 C2252.43,483.66 2251.91,484.832 2251.91,485.873 C2251.91,486.915 2252.32,487.842 2253.13,488.654 C2253.95,489.467 2254.94,489.873 2256.11,489.873 M2275.06,465.467 C2280.66,465.467 2283.45,467.873 2283.45,472.686 C2283.45,475.029 2282.77,477.748 2281.41,480.842 C2280.04,483.936 2278.22,486.295 2275.94,487.92 C2270.93,491.305 2264.65,492.998 2257.09,492.998 C2251.49,492.998 2248.69,490.592 2248.69,485.779 C2248.69,483.634 2249.35,480.964 2250.69,477.772 C2252.02,474.579 2253.86,472.17 2256.2,470.545 C2261.22,467.16 2267.51,465.467 2275.06,465.467"/>
<path class="Note" d="M444.657,689.873 C446.543,689.873 450.498,687.92 456.524,684.014 C462.55,680.108 466.1,677.488 467.173,676.155 C468.246,674.821 468.782,673.634 468.782,672.592 C468.782,671.55 468.358,670.623 467.509,669.811 C466.66,668.998 465.683,668.592 464.579,668.592 C462.631,668.592 458.644,670.561 452.618,674.498 C446.592,678.436 443.058,681.056 442.017,682.358 C440.975,683.66 440.454,684.832 440.454,685.873 C440.454,686.915 440.863,687.842 441.681,688.655 C442.498,689.467 443.491,689.873 444.657,689.873 M463.61,665.467 C469.204,665.467 472.001,667.873 472.001,672.686 C472.001,675.03 471.319,677.748 469.954,680.842 C468.59,683.936 466.767,686.295 464.485,687.92 C459.475,691.306 453.194,692.998 445.642,692.998 C440.037,692.998 437.235,690.592 437.235,685.78 C437.235,683.634 437.902,680.964 439.235,677.772 C440.569,674.579 442.407,672.17 444.751,670.545 C449.772,667.16 456.058,665.467 463.61,665.467"/>
<path class="Note" d="M346.393,702.373 C348.278,702.373 352.234,700.42 358.26,696.514 C364.286,692.608 367.835,689.988 368.908,688.655 C369.981,687.321 370.518,686.134 370.518,685.092 C370.518,684.05 370.093,683.123 369.244,682.311 C368.395,681.498 367.419,681.092 366.315,681.092 C364.367,681.092 360.38,683.061 354.354,686.998 C348.328,690.936 344.794,693.556 343.752,694.858 C342.71,696.16 342.19,697.332 342.19,698.373 C342.19,699.415 342.598,700.342 343.416,701.155 C344.234,701.967 345.226,702.373 346.393,702.373 M365.346,677.967 C370.94,677.967 373.736,680.373 373.736,685.186 C373.736,687.53 373.054,690.248 371.69,693.342 C370.325,696.436 368.502,698.795 366.221,700.42 C361.21,703.806 354.929,705.498 347.377,705.498 C341.773,705.498 338.971,703.092 338.971,698.28 C338.971,696.134 339.637,693.464 340.971,690.272 C342.304,687.079 344.143,684.67 346.486,683.045 C351.507,679.66 357.794,677.967 365.346,677.967"/>
<path class="Note" d="M1803.25,539.873 C1805.13,539.873 1809.09,537.92 1815.11,534.014 C1821.14,530.108 1824.69,527.488 1825.76,526.154 C1826.84,524.821 1827.37,523.634 1827.37,522.592 C1827.37,521.55 1826.95,520.623 1826.1,519.811 C1825.25,518.998 1824.27,518.592 1823.17,518.592 C1821.22,518.592 1817.23,520.561 1811.21,524.498 C1805.18,528.436 1801.65,531.056 1800.61,532.358 C1799.56,533.66 1799.04,534.832 1799.04,535.873 C1799.04,536.915 1799.45,537.842 1800.27,538.654 C1801.09,539.467 1802.08,539.873 1803.25,539.873 M1822.2,515.467 C1827.79,515.467 1830.59,517.873 1830.59,522.686 C1830.59,525.029 1829.91,527.748 1828.54,530.842 C1827.18,533.936 1825.36,536.295 1823.07,537.92 C1818.06,541.306 1811.78,542.998 1804.23,542.998 C1798.63,542.998 1795.82,540.592 1795.82,535.779 C1795.82,533.634 1796.49,530.964 1797.82,527.772 C1799.16,524.579 1801,522.17 1803.34,520.545 C1808.36,517.16 1814.65,515.467 1822.2,515.467"/>
<path class="Note" d="M572.824,677.373 C574.71,677.373 578.665,675.42 584.691,671.514 C590.717,667.608 594.267,664.988 595.34,663.655 C596.413,662.321 596.949,661.134 596.949,660.092 C596.949,659.05 596.525,658.123 595.676,657.311 C594.827,656.498 593.85,656.092 592.746,656.092 C590.798,656.092 586.811,658.061 580.785,661.998 C574.759,665.936 571.225,668.556 570.184,669.858 C569.142,671.16 568.621,672.332 568.621,673.373 C568.621,674.415 569.03,675.342 569.848,676.155 C570.665,676.967 571.658,677.373 572.824,677.373 M591.777,652.967 C597.371,652.967 600.168,655.373 600.168,660.186 C600.168,662.53 599.486,665.248 598.121,668.342 C596.757,671.436 594.934,673.795 592.652,675.42 C587.642,678.806 581.361,680.498 573.809,680.498 C568.204,680.498 565.402,678.092 565.402,673.28 C565.402,671.134 566.069,668.464 567.402,665.272 C568.736,662.079 570.574,659.67 572.918,658.045 C577.939,654.66 584.225,652.967 591.777,652.967"/>
<path class="Note" d="M2029.68,514.873 C2031.56,514.873 2035.52,512.92 2041.55,509.014 C2047.57,505.108 2051.12,502.488 2052.19,501.154 C2053.27,499.821 2053.8,498.634 2053.8,497.592 C2053.8,496.55 2053.38,495.623 2052.53,494.811 C2051.68,493.998 2050.7,493.592 2049.6,493.592 C2047.65,493.592 2043.67,495.561 2037.64,499.498 C2031.61,503.436 2028.08,506.056 2027.04,507.358 C2026,508.66 2025.48,509.832 2025.48,510.873 C2025.48,511.915 2025.88,512.842 2026.7,513.654 C2027.52,514.467 2028.51,514.873 2029.68,514.873 M2048.63,490.467 C2054.23,490.467 2057.02,492.873 2057.02,497.686 C2057.02,500.029 2056.34,502.748 2054.98,505.842 C2053.61,508.936 2051.79,511.295 2049.51,512.92 C2044.5,516.306 2038.21,517.998 2030.66,517.998 C2025.06,517.998 2022.26,515.592 2022.26,510.779 C2022.26,508.634 2022.92,505.964 2024.26,502.772 C2025.59,499.579 2027.43,497.17 2029.77,495.545 C2034.79,492.16 2041.08,490.467 2048.63,490.467"/>
<path class="Note" d="M1704.98,552.373 C1706.87,552.373 1710.82,550.42 1716.85,546.514 C1722.88,542.608 1726.42,539.988 1727.5,538.654 C1728.57,537.321 1729.11,536.134 1729.11,535.092 C1729.11,534.05 1728.68,533.123 1727.83,532.311 C1726.98,531.498 1726.01,531.092 1724.9,531.092 C1722.96,531.092 1718.97,533.061 1712.94,536.998 C1706.92,540.936 1703.38,543.556 1702.34,544.858 C1701.3,546.16 1700.78,547.332 1700.78,548.373 C1700.78,549.415 1701.19,550.342 1702.01,551.154 C1702.82,551.967 1703.82,552.373 1704.98,552.373 M1723.94,527.967 C1729.53,527.967 1732.33,530.373 1732.33,535.186 C1732.33,537.529 1731.64,540.248 1730.28,543.342 C1728.91,546.436 1727.09,548.795 1724.81,550.42 C1719.8,553.806 1713.52,555.498 1705.97,555.498 C1700.36,555.498 1697.56,553.092 1697.56,548.279 C1697.56,546.134 1698.23,543.464 1699.56,540.272 C1700.89,537.079 1702.73,534.67 1705.08,533.045 C1710.1,529.66 1716.38,527.967 1723.94,527.967"/>
<path class="Note" d="M2708.97,439.873 C2710.86,439.873 2714.81,437.92 2720.84,434.014 C2726.87,430.108 2730.42,427.488 2731.49,426.154 C2732.56,424.821 2733.1,423.634 2733.1,422.592 C2733.1,421.55 2732.67,420.623 2731.82,419.811 C2730.98,418.998 2730,418.592 2728.9,418.592 C2726.95,418.592 2722.96,420.561 2716.93,424.498 C2710.91,428.436 2707.37,431.055 2706.33,432.358 C2705.29,433.66 2704.77,434.831 2704.77,435.873 C2704.77,436.915 2705.18,437.842 2706,438.654 C2706.81,439.467 2707.81,439.873 2708.97,439.873 M2727.93,415.467 C2733.52,415.467 2736.32,417.873 2736.32,422.686 C2736.32,425.029 2735.63,427.748 2734.27,430.842 C2732.91,433.936 2731.08,436.295 2728.8,437.92 C2723.79,441.305 2717.51,442.998 2709.96,442.998 C2704.35,442.998 2701.55,440.592 2701.55,435.779 C2701.55,433.634 2702.22,430.964 2703.55,427.772 C2704.88,424.579 2706.72,422.17 2709.07,420.545 C2714.09,417.16 2720.37,415.467 2727.93,415.467"/>
<path class="Note" d="M671.089,664.873 C672.974,664.873 676.93,662.92 682.956,659.014 C688.982,655.108 692.532,652.488 693.604,651.155 C694.677,649.821 695.214,648.634 695.214,647.592 C695.214,646.55 694.789,645.623 693.94,644.811 C693.091,643.998 692.115,643.592 691.011,643.592 C689.063,643.592 685.076,645.561 679.05,649.498 C673.024,653.436 669.49,656.056 668.448,657.358 C667.407,658.66 666.886,659.832 666.886,660.873 C666.886,661.915 667.295,662.842 668.112,663.655 C668.93,664.467 669.922,664.873 671.089,664.873 M690.042,640.467 C695.636,640.467 698.433,642.873 698.433,647.686 C698.433,650.03 697.75,652.748 696.386,655.842 C695.021,658.936 693.198,661.295 690.917,662.92 C685.907,666.306 679.625,667.998 672.073,667.998 C666.469,667.998 663.667,665.592 663.667,660.78 C663.667,658.634 664.334,655.964 665.667,652.772 C667,649.579 668.839,647.17 671.183,645.545 C676.203,642.16 682.49,640.467 690.042,640.467"/>
<path class="Note" d="M2482.54,464.873 C2484.43,464.873 2488.38,462.92 2494.41,459.014 C2500.43,455.108 2503.98,452.488 2505.06,451.154 C2506.13,449.821 2506.67,448.634 2506.67,447.592 C2506.67,446.55 2506.24,445.623 2505.39,444.811 C2504.54,443.998 2503.57,443.592 2502.46,443.592 C2500.52,443.592 2496.53,445.561 2490.5,449.498 C2484.48,453.436 2480.94,456.055 2479.9,457.358 C2478.86,458.66 2478.34,459.832 2478.34,460.873 C2478.34,461.915 2478.75,462.842 2479.57,463.654 C2480.38,464.467 2481.37,464.873 2482.54,464.873 M2501.49,440.467 C2507.09,440.467 2509.89,442.873 2509.89,447.686 C2509.89,450.029 2509.2,452.748 2507.84,455.842 C2506.47,458.936 2504.65,461.295 2502.37,462.92 C2497.36,466.305 2491.08,467.998 2483.53,467.998 C2477.92,467.998 2475.12,465.592 2475.12,460.779 C2475.12,458.634 2475.79,455.964 2477.12,452.772 C2478.45,449.579 2480.29,447.17 2482.64,445.545 C2487.66,442.16 2493.94,440.467 2501.49,440.467"/>
<path class="Note" d="M799.256,652.373 C801.141,652.373 805.097,650.42 811.123,646.514 C817.149,642.608 820.699,639.988 821.771,638.655 C822.844,637.321 823.381,636.134 823.381,635.092 C823.381,634.05 822.956,633.123 822.107,632.311 C821.258,631.498 820.282,631.092 819.178,631.092 C817.23,631.092 813.243,633.061 807.217,636.998 C801.191,640.936 797.657,643.556 796.615,644.858 C795.574,646.16 795.053,647.332 795.053,648.373 C795.053,649.415 795.462,650.342 796.279,651.155 C797.097,651.967 798.089,652.373 799.256,652.373 M818.209,627.967 C823.803,627.967 826.6,630.373 826.6,635.186 C826.6,637.53 825.917,640.248 824.553,643.342 C823.188,646.436 821.365,648.795 819.084,650.42 C814.074,653.806 807.792,655.498 800.24,655.498 C794.636,655.498 791.834,653.092 791.834,648.28 C791.834,646.134 792.501,643.464 793.834,640.272 C795.167,637.079 797.006,634.67 799.35,633.045 C804.37,629.66 810.657,627.967 818.209,627.967"/>
<path class="Note" d="M897.52,639.873 C899.406,639.873 903.362,637.92 909.388,634.014 C915.414,630.108 918.963,627.488 920.036,626.155 C921.109,624.821 921.645,623.634 921.645,622.592 C921.645,621.55 921.221,620.623 920.372,619.811 C919.523,618.998 918.546,618.592 917.442,618.592 C915.494,618.592 911.507,620.561 905.481,624.498 C899.455,628.436 895.921,631.056 894.88,632.358 C893.838,633.66 893.317,634.832 893.317,635.873 C893.317,636.915 893.726,637.842 894.544,638.655 C895.362,639.467 896.354,639.873 897.52,639.873 M916.474,615.467 C922.067,615.467 924.864,617.873 924.864,622.686 C924.864,625.03 924.182,627.748 922.817,630.842 C921.453,633.936 919.63,636.295 917.349,637.92 C912.338,641.306 906.057,642.998 898.505,642.998 C892.901,642.998 890.099,640.592 890.099,635.78 C890.099,633.634 890.765,630.964 892.099,627.772 C893.432,624.579 895.27,622.17 897.614,620.545 C902.635,617.16 908.921,615.467 916.474,615.467"/>
<path class="Note" d="M1576.82,564.873 C1578.7,564.873 1582.66,562.92 1588.68,559.014 C1594.71,555.108 1598.26,552.488 1599.33,551.154 C1600.4,549.821 1600.94,548.634 1600.94,547.592 C1600.94,546.55 1600.52,545.623 1599.67,544.811 C1598.82,543.998 1597.84,543.592 1596.74,543.592 C1594.79,543.592 1590.8,545.561 1584.78,549.498 C1578.75,553.436 1575.22,556.056 1574.17,557.358 C1573.13,558.66 1572.61,559.832 1572.61,560.873 C1572.61,561.915 1573.02,562.842 1573.84,563.654 C1574.66,564.467 1575.65,564.873 1576.82,564.873 M1595.77,540.467 C1601.36,540.467 1604.16,542.873 1604.16,547.686 C1604.16,550.029 1603.48,552.748 1602.11,555.842 C1600.75,558.936 1598.92,561.295 1596.64,562.92 C1591.63,566.306 1585.35,567.998 1577.8,567.998 C1572.2,567.998 1569.39,565.592 1569.39,560.779 C1569.39,558.634 1570.06,555.964 1571.39,552.772 C1572.73,549.579 1574.57,547.17 1576.91,545.545 C1581.93,542.16 1588.22,540.467 1595.77,540.467"/>
<path class="Note" d="M2384.28,477.373 C2386.16,477.373 2390.12,475.42 2396.14,471.514 C2402.17,467.608 2405.72,464.988 2406.79,463.654 C2407.87,462.321 2408.4,461.134 2408.4,460.092 C2408.4,459.05 2407.98,458.123 2407.13,457.311 C2406.28,456.498 2405.3,456.092 2404.2,456.092 C2402.25,456.092 2398.26,458.061 2392.24,461.998 C2386.21,465.936 2382.68,468.555 2381.64,469.858 C2380.59,471.16 2380.07,472.332 2380.07,473.373 C2380.07,474.415 2380.48,475.342 2381.3,476.154 C2382.12,476.967 2383.11,477.373 2384.28,477.373 M2403.23,452.967 C2408.82,452.967 2411.62,455.373 2411.62,460.186 C2411.62,462.529 2410.94,465.248 2409.57,468.342 C2408.21,471.436 2406.39,473.795 2404.11,475.42 C2399.09,478.805 2392.81,480.498 2385.26,480.498 C2379.66,480.498 2376.86,478.092 2376.86,473.279 C2376.86,471.134 2377.52,468.464 2378.86,465.272 C2380.19,462.079 2382.03,459.67 2384.37,458.045 C2389.39,454.66 2395.68,452.967 2403.23,452.967"/>
<path class="Note" d="M1025.69,627.373 C1027.57,627.373 1031.53,625.42 1037.55,621.514 C1043.58,617.608 1047.13,614.988 1048.2,613.655 C1049.28,612.321 1049.81,611.134 1049.81,610.092 C1049.81,609.05 1049.39,608.123 1048.54,607.311 C1047.69,606.498 1046.71,606.092 1045.61,606.092 C1043.66,606.092 1039.67,608.061 1033.65,611.998 C1027.62,615.936 1024.09,618.556 1023.05,619.858 C1022.01,621.16 1021.48,622.332 1021.48,623.373 C1021.48,624.415 1021.89,625.342 1022.71,626.155 C1023.53,626.967 1024.52,627.373 1025.69,627.373 M1044.64,602.967 C1050.23,602.967 1053.03,605.373 1053.03,610.186 C1053.03,612.53 1052.35,615.248 1050.98,618.342 C1049.62,621.436 1047.8,623.795 1045.52,625.42 C1040.51,628.806 1034.22,630.498 1026.67,630.498 C1021.07,630.498 1018.27,628.092 1018.27,623.28 C1018.27,621.134 1018.93,618.464 1020.27,615.272 C1021.6,612.079 1023.44,609.67 1025.78,608.045 C1030.8,604.66 1037.09,602.967 1044.64,602.967"/>
<path class="Note" d="M2157.85,502.373 C2159.73,502.373 2163.69,500.42 2169.71,496.514 C2175.74,492.608 2179.29,489.988 2180.36,488.654 C2181.43,487.321 2181.97,486.134 2181.97,485.092 C2181.97,484.05 2181.55,483.123 2180.7,482.311 C2179.85,481.498 2178.87,481.092 2177.77,481.092 C2175.82,481.092 2171.83,483.061 2165.81,486.998 C2159.78,490.936 2156.25,493.555 2155.2,494.858 C2154.16,496.16 2153.64,497.332 2153.64,498.373 C2153.64,499.415 2154.05,500.342 2154.87,501.154 C2155.69,501.967 2156.68,502.373 2157.85,502.373 M2176.8,477.967 C2182.39,477.967 2185.19,480.373 2185.19,485.186 C2185.19,487.529 2184.51,490.248 2183.14,493.342 C2181.78,496.436 2179.95,498.795 2177.67,500.42 C2172.66,503.805 2166.38,505.498 2158.83,505.498 C2153.23,505.498 2150.42,503.092 2150.42,498.279 C2150.42,496.134 2151.09,493.464 2152.42,490.272 C2153.76,487.079 2155.6,484.67 2157.94,483.045 C2162.96,479.66 2169.25,477.967 2176.8,477.967"/>
<path class="Note" d="M1123.95,614.873 C1125.84,614.873 1129.79,612.92 1135.82,609.014 C1141.85,605.108 1145.39,602.488 1146.47,601.155 C1147.54,599.821 1148.08,598.634 1148.08,597.592 C1148.08,596.55 1147.65,595.623 1146.8,594.811 C1145.95,593.998 1144.98,593.592 1143.87,593.592 C1141.93,593.592 1137.94,595.561 1131.91,599.498 C1125.89,603.436 1122.35,606.056 1121.31,607.358 C1120.27,608.66 1119.75,609.832 1119.75,610.873 C1119.75,611.915 1120.16,612.842 1120.98,613.655 C1121.79,614.467 1122.79,614.873 1123.95,614.873 M1142.91,590.467 C1148.5,590.467 1151.3,592.873 1151.3,597.686 C1151.3,600.03 1150.61,602.748 1149.25,605.842 C1147.88,608.936 1146.06,611.295 1143.78,612.92 C1138.77,616.306 1132.49,617.998 1124.94,617.998 C1119.33,617.998 1116.53,615.592 1116.53,610.78 C1116.53,608.634 1117.2,605.964 1118.53,602.772 C1119.86,599.579 1121.7,597.17 1124.05,595.545 C1129.07,592.16 1135.35,590.467 1142.91,590.467"/>
<path class="Note" d="M1478.55,577.373 C1480.44,577.373 1484.39,575.42 1490.42,571.514 C1496.44,567.608 1499.99,564.988 1501.07,563.655 C1502.14,562.321 1502.68,561.134 1502.68,560.092 C1502.68,559.05 1502.25,558.123 1501.4,557.311 C1500.55,556.498 1499.58,556.092 1498.47,556.092 C1496.52,556.092 1492.54,558.061 1486.51,561.998 C1480.49,565.936 1476.95,568.556 1475.91,569.858 C1474.87,571.16 1474.35,572.332 1474.35,573.373 C1474.35,574.415 1474.76,575.342 1475.57,576.155 C1476.39,576.967 1477.38,577.373 1478.55,577.373 M1497.5,552.967 C1503.1,552.967 1505.89,555.373 1505.89,560.186 C1505.89,562.53 1505.21,565.248 1503.85,568.342 C1502.48,571.436 1500.66,573.795 1498.38,575.42 C1493.37,578.806 1487.09,580.498 1479.54,580.498 C1473.93,580.498 1471.13,578.092 1471.13,573.28 C1471.13,571.134 1471.8,568.464 1473.13,565.272 C1474.46,562.079 1476.3,559.67 1478.64,558.045 C1483.67,554.66 1489.95,552.967 1497.5,552.967"/>
<path class="Note" d="M1252.12,602.373 C1254,602.373 1257.96,600.42 1263.99,596.514 C1270.01,592.608 1273.56,589.988 1274.63,588.655 C1275.71,587.321 1276.24,586.134 1276.24,585.092 C1276.24,584.05 1275.82,583.123 1274.97,582.311 C1274.12,581.498 1273.15,581.092 1272.04,581.092 C1270.09,581.092 1266.11,583.061 1260.08,586.998 C1254.05,590.936 1250.52,593.556 1249.48,594.858 C1248.44,596.16 1247.92,597.332 1247.92,598.373 C1247.92,599.415 1248.32,600.342 1249.14,601.155 C1249.96,601.967 1250.95,602.373 1252.12,602.373 M1271.07,577.967 C1276.67,577.967 1279.46,580.373 1279.46,585.186 C1279.46,587.53 1278.78,590.248 1277.42,593.342 C1276.05,596.436 1274.23,598.795 1271.95,600.42 C1266.94,603.806 1260.66,605.498 1253.1,605.498 C1247.5,605.498 1244.7,603.092 1244.7,598.28 C1244.7,596.134 1245.36,593.464 1246.7,590.272 C1248.03,587.079 1249.87,584.67 1252.21,583.045 C1257.23,579.66 1263.52,577.967 1271.07,577.967"/>
<path class="Note" d="M1350.38,589.873 C1352.27,589.873 1356.22,587.92 1362.25,584.014 C1368.28,580.108 1371.83,577.488 1372.9,576.155 C1373.97,574.821 1374.51,573.634 1374.51,572.592 C1374.51,571.55 1374.08,570.623 1373.24,569.811 C1372.39,568.998 1371.41,568.592 1370.31,568.592 C1368.36,568.592 1364.37,570.561 1358.34,574.498 C1352.32,578.436 1348.78,581.056 1347.74,582.358 C1346.7,583.66 1346.18,584.832 1346.18,585.873 C1346.18,586.915 1346.59,587.842 1347.41,588.655 C1348.22,589.467 1349.22,589.873 1350.38,589.873 M1369.34,565.467 C1374.93,565.467 1377.73,567.873 1377.73,572.686 C1377.73,575.03 1377.05,577.748 1375.68,580.842 C1374.32,583.936 1372.49,586.295 1370.21,587.92 C1365.2,591.306 1358.92,592.998 1351.37,592.998 C1345.76,592.998 1342.96,590.592 1342.96,585.78 C1342.96,583.634 1343.63,580.964 1344.96,577.772 C1346.3,574.579 1348.13,572.17 1350.48,570.545 C1355.5,567.16 1361.78,565.467 1369.34,565.467"/>
<path class="Clef" d="M203.623,673.858 L203.623,671.717 C203.56,670.613 203.399,668.889 203.139,666.545 C199.889,667.066 196.993,667.326 194.451,667.326 C185.337,667.326 177.605,663.727 171.256,656.53 C164.907,649.332 161.732,640.754 161.732,630.795 C161.732,628.129 162.253,624.923 163.295,621.178 C164.337,617.433 165.297,614.925 166.178,613.655 C167.058,612.384 168.378,610.155 170.139,606.967 C170.659,605.988 172.352,603.837 175.217,600.514 C175.738,599.806 176.193,599.222 176.584,598.764 C176.975,598.306 177.607,597.49 178.482,596.319 C179.357,595.147 180.3,594.056 181.31,593.045 C182.321,592.035 183.217,591.058 183.998,590.115 C184.779,589.173 185.498,588.379 186.154,587.733 C183.81,579.983 182.378,574.024 181.857,569.858 C181.337,565.691 181.076,560.579 181.076,554.522 C181.076,548.464 182.378,542.962 184.982,538.014 C187.514,532.879 191.06,528.681 195.623,525.42 C195.883,525.222 196.225,525.123 196.646,525.123 C197.068,525.123 197.378,525.222 197.576,525.42 C201.087,529.649 204.128,535.149 206.701,541.92 C209.274,548.691 210.56,555.024 210.56,560.92 C210.56,566.816 209.066,572.498 206.076,577.967 C202.691,583.759 198.326,589.748 192.982,595.936 C194.347,600.227 196.17,606.962 198.451,616.139 L199.045,616.139 C199.305,616.076 199.529,616.045 199.717,616.045 C207.081,616.045 213.089,618.634 217.74,623.811 C222.391,628.988 224.717,634.962 224.717,641.733 C224.717,650.129 221.238,656.899 214.279,662.045 C212.258,663.545 209.878,664.717 207.139,665.561 C207.472,669.79 207.639,672.605 207.639,674.006 C207.639,675.407 207.571,677.899 207.435,681.483 C207.373,687.597 205.29,692.837 201.185,697.201 C197.081,701.566 192.394,703.748 187.123,703.748 C181.852,703.748 177.36,701.876 173.646,698.131 C169.933,694.386 168.076,689.847 168.076,684.514 C168.076,681.712 169.154,679.332 171.31,677.373 C173.519,675.425 176.006,674.451 178.771,674.451 C181.537,674.451 183.8,675.462 185.56,677.483 C187.383,679.368 188.295,681.644 188.295,684.311 C188.295,686.977 187.383,689.222 185.56,691.045 C183.738,692.868 181.555,693.78 179.014,693.78 C177.972,693.78 176.967,693.587 175.998,693.201 C178.863,697.431 182.54,699.545 187.029,699.545 C191.519,699.545 195.36,697.691 198.553,693.983 C201.745,690.274 203.342,685.91 203.342,680.889 L203.623,673.858 M206.748,661.561 C210.133,660.321 212.821,658.123 214.81,654.967 C216.8,651.811 217.795,648.67 217.795,645.545 C217.795,640.92 216.199,636.785 213.006,633.139 C209.813,629.493 205.774,627.441 200.889,626.983 C203.691,640.722 205.644,652.248 206.748,661.561 M168.967,638.998 C168.967,645.446 171.537,651.079 176.678,655.897 C181.818,660.714 187.842,663.123 194.748,663.123 C197.477,663.123 200.144,662.925 202.748,662.53 C201.706,652.634 199.654,640.785 196.592,626.983 C192.758,627.379 189.782,628.699 187.662,630.944 C185.542,633.188 184.482,635.743 184.482,638.608 C184.482,643.556 187.123,647.561 192.404,650.623 C192.852,650.884 193.076,651.324 193.076,651.944 C193.076,652.563 192.865,653.1 192.443,653.553 C192.021,654.006 191.649,654.233 191.326,654.233 C191.003,654.233 190.581,654.17 190.06,654.045 C182.435,649.879 178.623,643.592 178.623,635.186 C178.623,631.217 180.024,627.41 182.826,623.764 C185.753,620.118 189.56,617.774 194.248,616.733 C192.425,609.441 190.93,603.743 189.764,599.639 C180.847,609.67 175.31,617.092 173.154,621.905 C170.363,628.155 168.967,633.852 168.967,638.998 M201.576,539.686 C196.691,542.092 192.834,545.574 190.006,550.131 C187.178,554.688 185.764,559.472 185.764,564.483 C185.764,569.493 186.935,575.972 189.279,583.92 C193.967,578.254 197.514,572.946 199.92,567.998 C202.326,563.05 203.529,558.152 203.529,553.303 C203.529,548.454 202.878,543.915 201.576,539.686"/>
<path class="TimeSig" d="M273.021,567.912 C274.516,567.912 275.949,567.686 277.318,567.233 C278.688,566.78 279.665,566.553 280.248,566.553 C280.831,566.553 281.222,566.907 281.42,567.615 C281.42,567.688 281.352,567.886 281.217,568.209 L252.811,601.225 L269.498,601.225 L269.498,588.131 C269.498,586.506 270.446,585.334 272.342,584.615 C274.29,583.897 276.503,581.001 278.982,575.928 C279.17,575.532 279.462,575.334 279.857,575.334 C280.639,575.334 281.092,575.793 281.217,576.709 L281.217,601.225 L288.357,601.225 C289.264,601.225 289.751,601.712 289.818,602.686 C289.886,603.66 289.399,604.147 288.357,604.147 L281.217,604.147 L281.217,604.928 C281.217,607.532 281.868,609.746 283.17,611.569 C284.67,613.391 286.43,614.303 288.451,614.303 C289.232,614.303 289.623,614.694 289.623,615.475 C289.623,616.256 289.087,616.647 288.014,616.647 C286.941,616.647 284.938,616.436 282.006,616.014 C279.074,615.592 276.811,615.381 275.217,615.381 C273.623,615.381 271.41,615.592 268.576,616.014 C265.743,616.436 263.613,616.647 262.186,616.647 C261.404,616.647 261.014,616.256 261.014,615.475 C261.014,614.694 261.404,614.303 262.186,614.303 C264.196,614.303 265.951,613.391 267.451,611.569 C268.816,609.683 269.498,607.47 269.498,604.928 L269.498,604.147 L252.811,604.147 C251.956,604.147 251.219,603.92 250.6,603.467 C249.98,603.014 249.67,602.592 249.67,602.201 C249.67,601.811 250.485,600.639 252.115,598.686 C253.745,596.733 256.074,592.972 259.1,587.405 C262.126,581.837 263.639,575.438 263.639,568.209 C263.639,567.168 264.097,566.647 265.014,566.647 C265.212,566.647 265.521,566.712 265.943,566.842 C266.365,566.972 267.277,567.183 268.678,567.475 C270.079,567.766 271.527,567.912 273.021,567.912"/>
<path class="TimeSig" d="M273.021,618.084 C274.516,618.084 275.949,617.858 277.318,617.405 C278.688,616.951 279.665,616.725 280.248,616.725 C280.831,616.725 281.222,617.079 281.42,617.787 C281.42,617.86 281.352,618.058 281.217,618.381 L252.811,651.397 L269.498,651.397 L269.498,638.303 C269.498,636.678 270.446,635.506 272.342,634.787 C274.29,634.069 276.503,631.173 278.982,626.1 C279.17,625.704 279.462,625.506 279.857,625.506 C280.639,625.506 281.092,625.964 281.217,626.881 L281.217,651.397 L288.357,651.397 C289.264,651.397 289.751,651.884 289.818,652.858 C289.886,653.832 289.399,654.319 288.357,654.319 L281.217,654.319 L281.217,655.1 C281.217,657.704 281.868,659.918 283.17,661.74 C284.67,663.563 286.43,664.475 288.451,664.475 C289.232,664.475 289.623,664.865 289.623,665.647 C289.623,666.428 289.087,666.819 288.014,666.819 C286.941,666.819 284.938,666.608 282.006,666.186 C279.074,665.764 276.811,665.553 275.217,665.553 C273.623,665.553 271.41,665.764 268.576,666.186 C265.743,666.608 263.613,666.819 262.186,666.819 C261.404,666.819 261.014,666.428 261.014,665.647 C261.014,664.865 261.404,664.475 262.186,664.475 C264.196,664.475 265.951,663.563 267.451,661.74 C268.816,659.855 269.498,657.642 269.498,655.1 L269.498,654.319 L252.811,654.319 C251.956,654.319 251.219,654.092 250.6,653.639 C249.98,653.186 249.67,652.764 249.67,652.373 C249.67,651.983 250.485,650.811 252.115,648.858 C253.745,646.905 256.074,643.144 259.1,637.576 C262.126,632.009 263.639,625.61 263.639,618.381 C263.639,617.339 264.097,616.819 265.014,616.819 C265.212,616.819 265.521,616.884 265.943,617.014 C266.365,617.144 267.277,617.355 268.678,617.647 C270.079,617.938 271.527,618.084 273.021,618.084"/>
</svg>
