<?xml version="1.0" encoding="UTF-8" standalone="no"?>
<svg width="2977.2px" height="4208.4px" viewBox="0 0 2977.2 4208.4"
 xmlns="http://www.w3.org/2000/svg" xmlns:xlink="http://www.w3.org/1999/xlink" version="1.2" baseProfile="tiny">
<title>F_Major_Arpeggio_1.mscx</title>
<desc>Generated by MuseScore Studio 4.3.1</desc>
<path class="" fill="#ffffff" fill-rule="evenodd" d="M0,0 L2977.2,0 L2977.2,4208.4 L0,4208.4 L0,0 "/>
<polyline class="StaffLines" fill="none" stroke="#000000" stroke-width="2.00" stroke-linejoin="bevel" points="141.732,566.733 2835.47,566.733"/>
<polyline class="StaffLines" fill="none" stroke="#000000" stroke-width="2.00" stroke-linejoin="bevel" points="141.732,591.733 2835.47,591.733"/>
<polyline class="StaffLines" fill="none" stroke="#000000" stroke-width="2.00" stroke-linejoin="bevel" points="141.732,616.733 2835.47,616.733"/>
<polyline class="StaffLines" fill="none" stroke="#000000" stroke-width="2.00" stroke-linejoin="bevel" points="141.732,641.733 2835.47,641.733"/>
<polyline class="StaffLines" fill="none" stroke="#000000" stroke-width="2.00" stroke-linejoin="bevel" points="141.732,666.733 2835.47,666.733"/>
<polyline class="BarLine" fill="none" stroke="#000000" stroke-width="4.00" stroke-linejoin="bevel" points="1160.44,565.733 1160.44,667.733"/>
<polyline class="BarLine" fill="none" stroke="#000000" stroke-width="4.00" stroke-linejoin="bevel" points="1557.8,565.733 1557.8,667.733"/>
<polyline class="BarLine" fill="none" stroke="#000000" stroke-width="4.00" stroke-linejoin="bevel" points="2405.36,565.733 2405.36,667.733"/>
<polyline class="BarLine" fill="none" stroke="#000000" stroke-width="4.00" stroke-linejoin="bevel" points="2802.72,565.733 2802.72,667.733"/>
<polyline class="BarLine" fill="none" stroke="#000000" stroke-width="12.50" stroke-linejoin="bevel" points="2829.22,565.733 2829.22,667.733"/>
<polyline class="Stem" fill="none" stroke="#000000" stroke-width="3.25" stroke-linejoin="bevel" points="1695.56,635.102 1695.56,706.265"/>
<polyline class="Stem" fill="none" stroke="#000000" stroke-width="3.25" stroke-linejoin="bevel" points="1586.42,660.102 1586.42,716.579"/>
<polyline class="Stem" fill="none" stroke="#000000" stroke-width="3.25" stroke-linejoin="bevel" points="1804.71,610.102 1804.71,695.951"/>
<polyline class="Stem" fill="none" stroke="#000000" stroke-width="3.25" stroke-linejoin="bevel" points="1913.85,572.602 1913.85,685.636"/>
<polyline class="Stem" fill="none" stroke="#000000" stroke-width="3.25" stroke-linejoin="bevel" points="2022.99,610.102 2022.99,685.663"/>
<polyline class="Stem" fill="none" stroke="#000000" stroke-width="3.25" stroke-linejoin="bevel" points="2132.13,635.102 2132.13,697.802"/>
<polyline class="Stem" fill="none" stroke="#000000" stroke-width="3.25" stroke-linejoin="bevel" points="2270.94,648.363 2270.94,566.733"/>
<polyline class="Stem" fill="none" stroke="#000000" stroke-width="3.25" stroke-linejoin="bevel" points="1026.02,648.363 1026.02,566.733"/>
<polyline class="Stem" fill="none" stroke="#000000" stroke-width="3.25" stroke-linejoin="bevel" points="887.21,635.102 887.21,697.802"/>
<polyline class="Stem" fill="none" stroke="#000000" stroke-width="3.25" stroke-linejoin="bevel" points="778.067,610.102 778.067,685.663"/>
<polyline class="Stem" fill="none" stroke="#000000" stroke-width="3.25" stroke-linejoin="bevel" points="668.925,572.602 668.925,685.636"/>
<polyline class="Stem" fill="none" stroke="#000000" stroke-width="3.25" stroke-linejoin="bevel" points="559.783,610.102 559.783,695.951"/>
<polyline class="Stem" fill="none" stroke="#000000" stroke-width="3.25" stroke-linejoin="bevel" points="341.498,660.102 341.498,716.579"/>
<polyline class="Stem" fill="none" stroke="#000000" stroke-width="3.25" stroke-linejoin="bevel" points="450.64,635.102 450.64,706.265"/>
<path class="Note" d="M907.553,615.467 C910.678,615.467 913.283,616.248 915.366,617.811 C917.449,619.373 918.491,621.618 918.491,624.545 C918.491,629.035 916.165,633.233 911.514,637.139 C906.863,641.045 901.866,642.998 896.522,642.998 C893.397,642.998 890.762,642.186 888.616,640.561 C886.595,638.8 885.585,636.587 885.585,633.92 C885.585,629.556 887.897,625.389 892.522,621.42 C897.147,617.451 902.158,615.467 907.553,615.467"/>
<path class="Note" d="M2152.48,615.467 C2155.6,615.467 2158.21,616.248 2160.29,617.811 C2162.37,619.373 2163.41,621.618 2163.41,624.545 C2163.41,629.035 2161.09,633.233 2156.44,637.139 C2151.79,641.045 2146.79,642.998 2141.44,642.998 C2138.32,642.998 2135.68,642.186 2133.54,640.561 C2131.52,638.8 2130.51,636.587 2130.51,633.92 C2130.51,629.556 2132.82,625.389 2137.44,621.42 C2142.07,617.451 2147.08,615.467 2152.48,615.467"/>
<path class="Note" d="M2261.62,640.467 C2264.74,640.467 2267.35,641.248 2269.43,642.811 C2271.51,644.373 2272.56,646.618 2272.56,649.545 C2272.56,654.035 2270.23,658.233 2265.58,662.139 C2260.93,666.045 2255.93,667.998 2250.59,667.998 C2247.46,667.998 2244.83,667.186 2242.68,665.561 C2240.66,663.8 2239.65,661.587 2239.65,658.92 C2239.65,654.556 2241.96,650.389 2246.59,646.42 C2251.21,642.451 2256.22,640.467 2261.62,640.467"/>
<path class="Note" d="M2043.33,590.467 C2046.46,590.467 2049.06,591.248 2051.15,592.811 C2053.23,594.373 2054.27,596.618 2054.27,599.545 C2054.27,604.035 2051.95,608.233 2047.29,612.139 C2042.64,616.045 2037.65,617.998 2032.3,617.998 C2029.18,617.998 2026.54,617.186 2024.4,615.561 C2022.38,613.8 2021.36,611.587 2021.36,608.92 C2021.36,604.556 2023.68,600.389 2028.3,596.42 C2032.93,592.451 2037.94,590.467 2043.33,590.467"/>
<path class="Note" d="M1934.19,552.967 C1937.32,552.967 1939.92,553.748 1942,555.311 C1944.09,556.873 1945.13,559.118 1945.13,562.045 C1945.13,566.535 1942.8,570.733 1938.15,574.639 C1933.5,578.545 1928.5,580.498 1923.16,580.498 C1920.04,580.498 1917.4,579.686 1915.25,578.061 C1913.23,576.3 1912.22,574.087 1912.22,571.42 C1912.22,567.056 1914.54,562.889 1919.16,558.92 C1923.79,554.951 1928.8,552.967 1934.19,552.967"/>
<path class="Note" d="M1825.05,590.467 C1828.17,590.467 1830.78,591.248 1832.86,592.811 C1834.94,594.373 1835.99,596.618 1835.99,599.545 C1835.99,604.035 1833.66,608.233 1829.01,612.139 C1824.36,616.045 1819.36,617.998 1814.02,617.998 C1810.89,617.998 1808.26,617.186 1806.11,615.561 C1804.09,613.8 1803.08,611.587 1803.08,608.92 C1803.08,604.556 1805.39,600.389 1810.02,596.42 C1814.64,592.451 1819.65,590.467 1825.05,590.467"/>
<path class="Note" d="M1715.91,615.467 C1719.03,615.467 1721.64,616.248 1723.72,617.811 C1725.8,619.373 1726.84,621.618 1726.84,624.545 C1726.84,629.035 1724.52,633.233 1719.87,637.139 C1715.22,641.045 1710.22,642.998 1704.88,642.998 C1701.75,642.998 1699.12,642.186 1696.97,640.561 C1694.95,638.8 1693.94,636.587 1693.94,633.92 C1693.94,629.556 1696.25,625.389 1700.88,621.42 C1705.5,617.451 1710.51,615.467 1715.91,615.467"/>
<path class="Note" d="M361.842,640.467 C364.967,640.467 367.571,641.248 369.654,642.811 C371.738,644.373 372.779,646.618 372.779,649.545 C372.779,654.035 370.454,658.233 365.803,662.139 C361.152,666.045 356.154,667.998 350.811,667.998 C347.686,667.998 345.05,667.186 342.904,665.561 C340.884,663.8 339.873,661.587 339.873,658.92 C339.873,654.556 342.186,650.389 346.811,646.42 C351.436,642.451 356.446,640.467 361.842,640.467"/>
<path class="Note" d="M1606.76,640.467 C1609.89,640.467 1612.49,641.248 1614.58,642.811 C1616.66,644.373 1617.7,646.618 1617.7,649.545 C1617.7,654.035 1615.38,658.233 1610.73,662.139 C1606.07,666.045 1601.08,667.998 1595.73,667.998 C1592.61,667.998 1589.97,667.186 1587.83,665.561 C1585.81,663.8 1584.8,661.587 1584.8,658.92 C1584.8,654.556 1587.11,650.389 1591.73,646.42 C1596.36,642.451 1601.37,640.467 1606.76,640.467"/>
<path class="Note" d="M470.984,615.467 C474.109,615.467 476.713,616.248 478.797,617.811 C480.88,619.373 481.922,621.618 481.922,624.545 C481.922,629.035 479.596,633.233 474.945,637.139 C470.294,641.045 465.297,642.998 459.953,642.998 C456.828,642.998 454.192,642.186 452.047,640.561 C450.026,638.8 449.015,636.587 449.015,633.92 C449.015,629.556 451.328,625.389 455.953,621.42 C460.578,617.451 465.588,615.467 470.984,615.467"/>
<path class="Note" d="M580.126,590.467 C583.251,590.467 585.856,591.248 587.939,592.811 C590.022,594.373 591.064,596.618 591.064,599.545 C591.064,604.035 588.738,608.233 584.087,612.139 C579.436,616.045 574.439,617.998 569.095,617.998 C565.97,617.998 563.335,617.186 561.189,615.561 C559.168,613.8 558.158,611.587 558.158,608.92 C558.158,604.556 560.47,600.389 565.095,596.42 C569.72,592.451 574.731,590.467 580.126,590.467"/>
<path class="Note" d="M689.269,552.967 C692.394,552.967 694.998,553.748 697.081,555.311 C699.165,556.873 700.206,559.118 700.206,562.045 C700.206,566.535 697.881,570.733 693.23,574.639 C688.579,578.545 683.581,580.498 678.238,580.498 C675.113,580.498 672.477,579.686 670.331,578.061 C668.31,576.3 667.3,574.087 667.3,571.42 C667.3,567.056 669.613,562.889 674.238,558.92 C678.863,554.951 683.873,552.967 689.269,552.967"/>
<path class="Note" d="M1016.7,640.467 C1019.82,640.467 1022.42,641.248 1024.51,642.811 C1026.59,644.373 1027.63,646.618 1027.63,649.545 C1027.63,654.035 1025.31,658.233 1020.66,662.139 C1016.01,666.045 1011.01,667.998 1005.66,667.998 C1002.54,667.998 999.904,667.186 997.758,665.561 C995.737,663.8 994.727,661.587 994.727,658.92 C994.727,654.556 997.039,650.389 1001.66,646.42 C1006.29,642.451 1011.3,640.467 1016.7,640.467"/>
<path class="Note" d="M798.411,590.467 C801.536,590.467 804.14,591.248 806.224,592.811 C808.307,594.373 809.349,596.618 809.349,599.545 C809.349,604.035 807.023,608.233 802.372,612.139 C797.721,616.045 792.724,617.998 787.38,617.998 C784.255,617.998 781.619,617.186 779.474,615.561 C777.453,613.8 776.442,611.587 776.442,608.92 C776.442,604.556 778.755,600.389 783.38,596.42 C788.005,592.451 793.015,590.467 798.411,590.467"/>
<path class="Clef" d="M203.623,673.858 L203.623,671.717 C203.56,670.613 203.399,668.889 203.139,666.545 C199.889,667.066 196.993,667.326 194.451,667.326 C185.337,667.326 177.605,663.727 171.256,656.53 C164.907,649.332 161.732,640.754 161.732,630.795 C161.732,628.129 162.253,624.923 163.295,621.178 C164.337,617.433 165.297,614.925 166.178,613.655 C167.058,612.384 168.378,610.155 170.139,606.967 C170.659,605.988 172.352,603.837 175.217,600.514 C175.738,599.806 176.193,599.222 176.584,598.764 C176.975,598.306 177.607,597.49 178.482,596.319 C179.357,595.147 180.3,594.056 181.31,593.045 C182.321,592.035 183.217,591.058 183.998,590.115 C184.779,589.173 185.498,588.379 186.154,587.733 C183.81,579.983 182.378,574.024 181.857,569.858 C181.337,565.691 181.076,560.579 181.076,554.522 C181.076,548.464 182.378,542.962 184.982,538.014 C187.514,532.879 191.06,528.681 195.623,525.42 C195.883,525.222 196.225,525.123 196.646,525.123 C197.068,525.123 197.378,525.222 197.576,525.42 C201.087,529.649 204.128,535.149 206.701,541.92 C209.274,548.691 210.56,555.024 210.56,560.92 C210.56,566.816 209.066,572.498 206.076,577.967 C202.691,583.759 198.326,589.748 192.982,595.936 C194.347,600.227 196.17,606.962 198.451,616.139 L199.045,616.139 C199.305,616.076 199.529,616.045 199.717,616.045 C207.081,616.045 213.089,618.634 217.74,623.811 C222.391,628.988 224.717,634.962 224.717,641.733 C224.717,650.129 221.238,656.899 214.279,662.045 C212.258,663.545 209.878,664.717 207.139,665.561 C207.472,669.79 207.639,672.605 207.639,674.006 C207.639,675.407 207.571,677.899 207.435,681.483 C207.373,687.597 205.29,692.837 201.185,697.201 C197.081,701.566 192.394,703.748 187.123,703.748 C181.852,703.748 177.36,701.876 173.646,698.131 C169.933,694.386 168.076,689.847 168.076,684.514 C168.076,681.712 169.154,679.332 171.31,677.373 C173.519,675.425 176.006,674.451 178.771,674.451 C181.537,674.451 183.8,675.462 185.56,677.483 C187.383,679.368 188.295,681.644 188.295,684.311 C188.295,686.977 187.383,689.222 185.56,691.045 C183.738,692.868 181.555,693.78 179.014,693.78 C177.972,693.78 176.967,693.587 175.998,693.201 C178.863,697.431 182.54,699.545 187.029,699.545 C191.519,699.545 195.36,697.691 198.553,693.983 C201.745,690.274 203.342,685.91 203.342,680.889 L203.623,673.858 M206.748,661.561 C210.133,660.321 212.821,658.123 214.81,654.967 C216.8,651.811 217.795,648.67 217.795,645.545 C217.795,640.92 216.199,636.785 213.006,633.139 C209.813,629.493 205.774,627.441 200.889,626.983 C203.691,640.722 205.644,652.248 206.748,661.561 M168.967,638.998 C168.967,645.446 171.537,651.079 176.678,655.897 C181.818,660.714 187.842,663.123 194.748,663.123 C197.477,663.123 200.144,662.925 202.748,662.53 C201.706,652.634 199.654,640.785 196.592,626.983 C192.758,627.379 189.782,628.699 187.662,630.944 C185.542,633.188 184.482,635.743 184.482,638.608 C184.482,643.556 187.123,647.561 192.404,650.623 C192.852,650.884 193.076,651.324 193.076,651.944 C193.076,652.563 192.865,653.1 192.443,653.553 C192.021,654.006 191.649,654.233 191.326,654.233 C191.003,654.233 190.581,654.17 190.06,654.045 C182.435,649.879 178.623,643.592 178.623,635.186 C178.623,631.217 180.024,627.41 182.826,623.764 C185.753,620.118 189.56,617.774 194.248,616.733 C192.425,609.441 190.93,603.743 189.764,599.639 C180.847,609.67 175.31,617.092 173.154,621.905 C170.363,628.155 168.967,633.852 168.967,638.998 M201.576,539.686 C196.691,542.092 192.834,545.574 190.006,550.131 C187.178,554.688 185.764,559.472 185.764,564.483 C185.764,569.493 186.935,575.972 189.279,583.92 C193.967,578.254 197.514,572.946 199.92,567.998 C202.326,563.05 203.529,558.152 203.529,553.303 C203.529,548.454 202.878,543.915 201.576,539.686"/>
<path class="TimeSig" d="M273.021,567.912 C274.516,567.912 275.949,567.686 277.318,567.233 C278.688,566.78 279.665,566.553 280.248,566.553 C280.831,566.553 281.222,566.907 281.42,567.615 C281.42,567.688 281.352,567.886 281.217,568.209 L252.811,601.225 L269.498,601.225 L269.498,588.131 C269.498,586.506 270.446,585.334 272.342,584.615 C274.29,583.897 276.503,581.001 278.982,575.928 C279.17,575.532 279.462,575.334 279.857,575.334 C280.639,575.334 281.092,575.793 281.217,576.709 L281.217,601.225 L288.357,601.225 C289.264,601.225 289.751,601.712 289.818,602.686 C289.886,603.66 289.399,604.147 288.357,604.147 L281.217,604.147 L281.217,604.928 C281.217,607.532 281.868,609.746 283.17,611.569 C284.67,613.391 286.43,614.303 288.451,614.303 C289.232,614.303 289.623,614.694 289.623,615.475 C289.623,616.256 289.087,616.647 288.014,616.647 C286.941,616.647 284.938,616.436 282.006,616.014 C279.074,615.592 276.811,615.381 275.217,615.381 C273.623,615.381 271.41,615.592 268.576,616.014 C265.743,616.436 263.613,616.647 262.186,616.647 C261.404,616.647 261.014,616.256 261.014,615.475 C261.014,614.694 261.404,614.303 262.186,614.303 C264.196,614.303 265.951,613.391 267.451,611.569 C268.816,609.683 269.498,607.47 269.498,604.928 L269.498,604.147 L252.811,604.147 C251.956,604.147 251.219,603.92 250.6,603.467 C249.98,603.014 249.67,602.592 249.67,602.201 C249.67,601.811 250.485,600.639 252.115,598.686 C253.745,596.733 256.074,592.972 259.1,587.405 C262.126,581.837 263.639,575.438 263.639,568.209 C263.639,567.168 264.097,566.647 265.014,566.647 C265.212,566.647 265.521,566.712 265.943,566.842 C266.365,566.972 267.277,567.183 268.678,567.475 C270.079,567.766 271.527,567.912 273.021,567.912"/>
<path class="TimeSig" d="M273.021,618.084 C274.516,618.084 275.949,617.858 277.318,617.405 C278.688,616.951 279.665,616.725 280.248,616.725 C280.831,616.725 281.222,617.079 281.42,617.787 C281.42,617.86 281.352,618.058 281.217,618.381 L252.811,651.397 L269.498,651.397 L269.498,638.303 C269.498,636.678 270.446,635.506 272.342,634.787 C274.29,634.069 276.503,631.173 278.982,626.1 C279.17,625.704 279.462,625.506 279.857,625.506 C280.639,625.506 281.092,625.964 281.217,626.881 L281.217,651.397 L288.357,651.397 C289.264,651.397 289.751,651.884 289.818,652.858 C289.886,653.832 289.399,654.319 288.357,654.319 L281.217,654.319 L281.217,655.1 C281.217,657.704 281.868,659.918 283.17,661.74 C284.67,663.563 286.43,664.475 288.451,664.475 C289.232,664.475 289.623,664.865 289.623,665.647 C289.623,666.428 289.087,666.819 288.014,666.819 C286.941,666.819 284.938,666.608 282.006,666.186 C279.074,665.764 276.811,665.553 275.217,665.553 C273.623,665.553 271.41,665.764 268.576,666.186 C265.743,666.608 263.613,666.819 262.186,666.819 C261.404,666.819 261.014,666.428 261.014,665.647 C261.014,664.865 261.404,664.475 262.186,664.475 C264.196,664.475 265.951,663.563 267.451,661.74 C268.816,659.855 269.498,657.642 269.498,655.1 L269.498,654.319 L252.811,654.319 C251.956,654.319 251.219,654.092 250.6,653.639 C249.98,653.186 249.67,652.764 249.67,652.373 C249.67,651.983 250.485,650.811 252.115,648.858 C253.745,646.905 256.074,643.144 259.1,637.576 C262.126,632.009 263.639,625.61 263.639,618.381 C263.639,617.339 264.097,616.819 265.014,616.819 C265.212,616.819 265.521,616.884 265.943,617.014 C266.365,617.144 267.277,617.355 268.678,617.647 C270.079,617.938 271.527,618.084 273.021,618.084"/>
<path class="Rest" d="M2621.82,607.358 L2586.28,607.358 C2585.62,607.358 2585.29,607.035 2585.29,606.389 L2585.29,592.717 C2585.29,592.061 2585.62,591.733 2586.28,591.733 L2621.82,591.733 C2622.47,591.733 2622.79,592.061 2622.79,592.717 L2622.79,606.389 C2622.79,607.035 2622.47,607.358 2621.82,607.358"/>
<path class="Rest" d="M1376.9,607.358 L1341.35,607.358 C1340.7,607.358 1340.37,607.035 1340.37,606.389 L1340.37,592.717 C1340.37,592.061 1340.7,591.733 1341.35,591.733 L1376.9,591.733 C1377.55,591.733 1377.87,592.061 1377.87,592.717 L1377.87,606.389 C1377.87,607.035 1377.55,607.358 1376.9,607.358"/>
<path class="Beam" fill-rule="evenodd" d="M2021.36,679.194 L2133.76,691.694 L2133.76,704.271 L2021.36,691.771 L2021.36,679.194 "/>
<path class="Beam" fill-rule="evenodd" d="M1584.8,710.455 L1915.47,679.205 L1915.47,691.761 L1584.8,723.011 L1584.8,710.455 "/>
<path class="Beam" fill-rule="evenodd" d="M776.442,679.194 L888.835,691.694 L888.835,704.271 L776.442,691.771 L776.442,679.194 "/>
<path class="Beam" fill-rule="evenodd" d="M339.873,710.455 L670.55,679.205 L670.55,691.761 L339.873,723.011 L339.873,710.455 "/>
</svg>
