<?xml version="1.0" encoding="UTF-8" standalone="no"?>
<svg width="2977.2px" height="4208.4px" viewBox="0 0 2977.2 4208.4"
 xmlns="http://www.w3.org/2000/svg" xmlns:xlink="http://www.w3.org/1999/xlink" version="1.2" baseProfile="tiny">
<title>A_Bebop.mscx</title>
<desc>Generated by MuseScore Studio 4.3.1</desc>
<path class="" fill="#ffffff" fill-rule="evenodd" d="M0,0 L2977.2,0 L2977.2,4208.4 L0,4208.4 L0,0 "/>
<polyline class="StaffLines" fill="none" stroke="#000000" stroke-width="2.00" stroke-linejoin="bevel" points="141.732,566.733 2835.47,566.733"/>
<polyline class="StaffLines" fill="none" stroke="#000000" stroke-width="2.00" stroke-linejoin="bevel" points="141.732,591.733 2835.47,591.733"/>
<polyline class="StaffLines" fill="none" stroke="#000000" stroke-width="2.00" stroke-linejoin="bevel" points="141.732,616.733 2835.47,616.733"/>
<polyline class="StaffLines" fill="none" stroke="#000000" stroke-width="2.00" stroke-linejoin="bevel" points="141.732,641.733 2835.47,641.733"/>
<polyline class="StaffLines" fill="none" stroke="#000000" stroke-width="2.00" stroke-linejoin="bevel" points="141.732,666.733 2835.47,666.733"/>
<polyline class="BarLine" fill="none" stroke="#000000" stroke-width="4.00" stroke-linejoin="bevel" points="2802.72,565.733 2802.72,667.733"/>
<polyline class="BarLine" fill="none" stroke="#000000" stroke-width="12.50" stroke-linejoin="bevel" points="2829.22,565.733 2829.22,667.733"/>
<polyline class="BarLine" fill="none" stroke="#000000" stroke-width="4.00" stroke-linejoin="bevel" points="1445.96,565.733 1445.96,667.733"/>
<polyline class="BarLine" fill="none" stroke="#000000" stroke-width="4.00" stroke-linejoin="bevel" points="2579.95,565.733 2579.95,667.733"/>
<polyline class="BarLine" fill="none" stroke="#000000" stroke-width="4.00" stroke-linejoin="bevel" points="1723.16,565.733 1723.16,667.733"/>
<polyline class="BarLine" fill="none" stroke="#000000" stroke-width="4.00" stroke-linejoin="bevel" points="1156.16,565.733 1156.16,667.733"/>
<polyline class="BarLine" fill="none" stroke="#000000" stroke-width="4.00" stroke-linejoin="bevel" points="589.167,565.733 589.167,667.733"/>
<polyline class="BarLine" fill="none" stroke="#000000" stroke-width="4.00" stroke-linejoin="bevel" points="2012.95,565.733 2012.95,667.733"/>
<polyline class="BarLine" fill="none" stroke="#000000" stroke-width="4.00" stroke-linejoin="bevel" points="2290.15,565.733 2290.15,667.733"/>
<polyline class="BarLine" fill="none" stroke="#000000" stroke-width="4.00" stroke-linejoin="bevel" points="878.965,565.733 878.965,667.733"/>
<path class="Accidental" d="M621.347,582.264 C622.784,581.868 623.503,582.222 623.503,583.326 L623.503,591.139 C623.503,591.92 622.883,592.54 621.644,592.998 L618.425,594.264 L618.425,608.436 L621.347,607.264 C622.784,606.868 623.503,607.227 623.503,608.342 L623.503,616.155 C623.503,616.936 622.883,617.55 621.644,617.998 L618.425,619.28 L618.425,635.483 C618.425,636.722 617.935,637.342 616.956,637.342 C615.977,637.342 615.487,636.722 615.487,635.483 L615.487,620.451 L606.206,624.155 L606.206,640.264 C606.206,641.503 605.719,642.123 604.745,642.123 C603.771,642.123 603.284,641.503 603.284,640.264 L603.284,625.326 L600.737,626.405 C599.373,626.988 598.69,626.597 598.69,625.233 L598.69,617.514 C598.69,616.868 599.279,616.285 600.456,615.764 L603.284,614.592 L603.284,600.326 L600.737,601.405 C599.373,601.988 598.69,601.597 598.69,600.233 L598.69,592.514 C598.69,591.858 599.279,591.269 600.456,590.748 L603.284,589.576 L603.284,573.467 C603.284,572.227 603.771,571.608 604.745,571.608 C605.719,571.608 606.206,572.227 606.206,573.467 L606.206,588.405 L615.487,584.608 L615.487,568.686 C615.487,567.446 615.977,566.826 616.956,566.826 C617.935,566.826 618.425,567.446 618.425,568.686 L618.425,583.436 L621.347,582.264 M606.206,599.155 L606.206,613.42 L615.487,609.608 L615.487,595.436 L606.206,599.155 "/>
<path class="Accidental" d="M1866.17,587.045 C1864.99,587.368 1864.4,586.915 1864.4,585.686 L1864.4,530.983 C1864.4,529.618 1864.92,528.936 1865.97,528.936 C1867.01,528.936 1867.53,529.618 1867.53,530.983 L1867.53,550.811 L1879.06,546.42 C1880.23,546.097 1880.81,546.55 1880.81,547.78 L1880.81,602.483 C1880.81,603.847 1880.29,604.53 1879.25,604.53 C1878.21,604.53 1877.68,603.847 1877.68,602.483 L1877.68,582.655 L1866.17,587.045 M1867.53,575.811 L1877.68,571.905 L1877.68,557.655 L1867.53,561.561 L1867.53,575.811 "/>
<path class="Accidental" d="M1311.99,532.264 C1313.43,531.868 1314.14,532.222 1314.14,533.326 L1314.14,541.139 C1314.14,541.92 1313.52,542.54 1312.28,542.998 L1309.07,544.264 L1309.07,558.436 L1311.99,557.264 C1313.43,556.868 1314.14,557.227 1314.14,558.342 L1314.14,566.154 C1314.14,566.936 1313.52,567.55 1312.28,567.998 L1309.07,569.279 L1309.07,585.483 C1309.07,586.722 1308.58,587.342 1307.6,587.342 C1306.62,587.342 1306.13,586.722 1306.13,585.483 L1306.13,570.451 L1296.85,574.154 L1296.85,590.264 C1296.85,591.503 1296.36,592.123 1295.39,592.123 C1294.41,592.123 1293.93,591.503 1293.93,590.264 L1293.93,575.326 L1291.38,576.404 C1290.01,576.988 1289.33,576.597 1289.33,575.233 L1289.33,567.514 C1289.33,566.868 1289.92,566.285 1291.1,565.764 L1293.93,564.592 L1293.93,550.326 L1291.38,551.404 C1290.01,551.988 1289.33,551.597 1289.33,550.233 L1289.33,542.514 C1289.33,541.858 1289.92,541.269 1291.1,540.748 L1293.93,539.576 L1293.93,523.467 C1293.93,522.227 1294.41,521.608 1295.39,521.608 C1296.36,521.608 1296.85,522.227 1296.85,523.467 L1296.85,538.404 L1306.13,534.608 L1306.13,518.686 C1306.13,517.446 1306.62,516.826 1307.6,516.826 C1308.58,516.826 1309.07,517.446 1309.07,518.686 L1309.07,533.436 L1311.99,532.264 M1296.85,549.154 L1296.85,563.42 L1306.13,559.608 L1306.13,545.436 L1296.85,549.154 "/>
<path class="Accidental" d="M1755.33,544.764 C1756.77,544.368 1757.49,544.722 1757.49,545.826 L1757.49,553.639 C1757.49,554.42 1756.87,555.04 1755.63,555.498 L1752.41,556.764 L1752.41,570.936 L1755.33,569.764 C1756.77,569.368 1757.49,569.727 1757.49,570.842 L1757.49,578.655 C1757.49,579.436 1756.87,580.05 1755.63,580.498 L1752.41,581.78 L1752.41,597.983 C1752.41,599.222 1751.92,599.842 1750.94,599.842 C1749.97,599.842 1749.48,599.222 1749.48,597.983 L1749.48,582.951 L1740.19,586.655 L1740.19,602.764 C1740.19,604.003 1739.71,604.623 1738.73,604.623 C1737.76,604.623 1737.27,604.003 1737.27,602.764 L1737.27,587.826 L1734.73,588.905 C1733.36,589.488 1732.68,589.097 1732.68,587.733 L1732.68,580.014 C1732.68,579.368 1733.27,578.785 1734.44,578.264 L1737.27,577.092 L1737.27,562.826 L1734.73,563.905 C1733.36,564.488 1732.68,564.097 1732.68,562.733 L1732.68,555.014 C1732.68,554.358 1733.27,553.769 1734.44,553.248 L1737.27,552.076 L1737.27,535.967 C1737.27,534.727 1737.76,534.108 1738.73,534.108 C1739.71,534.108 1740.19,534.727 1740.19,535.967 L1740.19,550.905 L1749.48,547.108 L1749.48,531.186 C1749.48,529.946 1749.97,529.326 1750.94,529.326 C1751.92,529.326 1752.41,529.946 1752.41,531.186 L1752.41,545.936 L1755.33,544.764 M1740.19,561.655 L1740.19,575.92 L1749.48,572.108 L1749.48,557.936 L1740.19,561.655 "/>
<path class="Accidental" d="M1589.18,532.264 C1590.62,531.868 1591.34,532.222 1591.34,533.326 L1591.34,541.139 C1591.34,541.92 1590.72,542.54 1589.48,542.998 L1586.26,544.264 L1586.26,558.436 L1589.18,557.264 C1590.62,556.868 1591.34,557.227 1591.34,558.342 L1591.34,566.154 C1591.34,566.936 1590.72,567.55 1589.48,567.998 L1586.26,569.279 L1586.26,585.483 C1586.26,586.722 1585.77,587.342 1584.79,587.342 C1583.81,587.342 1583.32,586.722 1583.32,585.483 L1583.32,570.451 L1574.04,574.154 L1574.04,590.264 C1574.04,591.503 1573.56,592.123 1572.58,592.123 C1571.61,592.123 1571.12,591.503 1571.12,590.264 L1571.12,575.326 L1568.57,576.404 C1567.21,576.988 1566.53,576.597 1566.53,575.233 L1566.53,567.514 C1566.53,566.868 1567.12,566.285 1568.29,565.764 L1571.12,564.592 L1571.12,550.326 L1568.57,551.404 C1567.21,551.988 1566.53,551.597 1566.53,550.233 L1566.53,542.514 C1566.53,541.858 1567.12,541.269 1568.29,540.748 L1571.12,539.576 L1571.12,523.467 C1571.12,522.227 1571.61,521.608 1572.58,521.608 C1573.56,521.608 1574.04,522.227 1574.04,523.467 L1574.04,538.404 L1583.32,534.608 L1583.32,518.686 C1583.32,517.446 1583.81,516.826 1584.79,516.826 C1585.77,516.826 1586.26,517.446 1586.26,518.686 L1586.26,533.436 L1589.18,532.264 M1574.04,549.154 L1574.04,563.42 L1583.32,559.608 L1583.32,545.436 L1574.04,549.154 "/>
<path class="Accidental" d="M1188.34,544.764 C1189.78,544.368 1190.5,544.722 1190.5,545.826 L1190.5,553.639 C1190.5,554.42 1189.88,555.04 1188.64,555.498 L1185.42,556.764 L1185.42,570.936 L1188.34,569.764 C1189.78,569.368 1190.5,569.727 1190.5,570.842 L1190.5,578.655 C1190.5,579.436 1189.88,580.05 1188.64,580.498 L1185.42,581.78 L1185.42,597.983 C1185.42,599.222 1184.93,599.842 1183.95,599.842 C1182.97,599.842 1182.48,599.222 1182.48,597.983 L1182.48,582.951 L1173.2,586.655 L1173.2,602.764 C1173.2,604.003 1172.71,604.623 1171.74,604.623 C1170.77,604.623 1170.28,604.003 1170.28,602.764 L1170.28,587.826 L1167.73,588.905 C1166.37,589.488 1165.68,589.097 1165.68,587.733 L1165.68,580.014 C1165.68,579.368 1166.27,578.785 1167.45,578.264 L1170.28,577.092 L1170.28,562.826 L1167.73,563.905 C1166.37,564.488 1165.68,564.097 1165.68,562.733 L1165.68,555.014 C1165.68,554.358 1166.27,553.769 1167.45,553.248 L1170.28,552.076 L1170.28,535.967 C1170.28,534.727 1170.77,534.108 1171.74,534.108 C1172.71,534.108 1173.2,534.727 1173.2,535.967 L1173.2,550.905 L1182.48,547.108 L1182.48,531.186 C1182.48,529.946 1182.97,529.326 1183.95,529.326 C1184.93,529.326 1185.42,529.946 1185.42,531.186 L1185.42,545.936 L1188.34,544.764 M1173.2,561.655 L1173.2,575.92 L1182.48,572.108 L1182.48,557.936 L1173.2,561.655 "/>
<path class="Accidental" d="M2322.33,582.264 C2323.77,581.868 2324.49,582.222 2324.49,583.326 L2324.49,591.139 C2324.49,591.92 2323.87,592.54 2322.63,592.998 L2319.41,594.264 L2319.41,608.436 L2322.33,607.264 C2323.77,606.868 2324.49,607.227 2324.49,608.342 L2324.49,616.155 C2324.49,616.936 2323.87,617.55 2322.63,617.998 L2319.41,619.28 L2319.41,635.483 C2319.41,636.722 2318.92,637.342 2317.94,637.342 C2316.96,637.342 2316.47,636.722 2316.47,635.483 L2316.47,620.451 L2307.19,624.155 L2307.19,640.264 C2307.19,641.503 2306.7,642.123 2305.73,642.123 C2304.75,642.123 2304.27,641.503 2304.27,640.264 L2304.27,625.326 L2301.72,626.405 C2300.36,626.988 2299.67,626.597 2299.67,625.233 L2299.67,617.514 C2299.67,616.868 2300.26,616.285 2301.44,615.764 L2304.27,614.592 L2304.27,600.326 L2301.72,601.405 C2300.36,601.988 2299.67,601.597 2299.67,600.233 L2299.67,592.514 C2299.67,591.858 2300.26,591.269 2301.44,590.748 L2304.27,589.576 L2304.27,573.467 C2304.27,572.227 2304.75,571.608 2305.73,571.608 C2306.7,571.608 2307.19,572.227 2307.19,573.467 L2307.19,588.405 L2316.47,584.608 L2316.47,568.686 C2316.47,567.446 2316.96,566.826 2317.94,566.826 C2318.92,566.826 2319.41,567.446 2319.41,568.686 L2319.41,583.436 L2322.33,582.264 M2307.19,599.155 L2307.19,613.42 L2316.47,609.608 L2316.47,595.436 L2307.19,599.155 "/>
<polyline class="LedgerLine" fill="none" stroke="#000000" stroke-width="4.00" stroke-linejoin="bevel" points="1463.46,541.733 1517.18,541.733"/>
<polyline class="Stem" fill="none" stroke="#000000" stroke-width="3.25" stroke-linejoin="bevel" points="1764.38,571.633 1764.38,654.233"/>
<polyline class="Stem" fill="none" stroke="#000000" stroke-width="3.25" stroke-linejoin="bevel" points="2455.02,621.633 2455.02,691.733"/>
<polyline class="Stem" fill="none" stroke="#000000" stroke-width="3.25" stroke-linejoin="bevel" points="2331.38,609.133 2331.38,685.483"/>
<polyline class="Stem" fill="none" stroke="#000000" stroke-width="3.25" stroke-linejoin="bevel" points="1888.03,571.633 1888.03,654.233"/>
<polyline class="Stem" fill="none" stroke="#000000" stroke-width="3.25" stroke-linejoin="bevel" points="2165.22,596.633 2165.22,679.233"/>
<polyline class="Stem" fill="none" stroke="#000000" stroke-width="3.25" stroke-linejoin="bevel" points="1474.58,546.633 1474.58,629.233"/>
<polyline class="Stem" fill="none" stroke="#000000" stroke-width="3.25" stroke-linejoin="bevel" points="1598.23,559.133 1598.23,641.733"/>
<polyline class="Stem" fill="none" stroke="#000000" stroke-width="3.25" stroke-linejoin="bevel" points="2041.58,584.133 2041.58,666.733"/>
<polyline class="Stem" fill="none" stroke="#000000" stroke-width="3.25" stroke-linejoin="bevel" points="372.065,624.433 372.065,547.983"/>
<polyline class="Stem" fill="none" stroke="#000000" stroke-width="3.25" stroke-linejoin="bevel" points="1321.03,559.133 1321.03,641.733"/>
<polyline class="Stem" fill="none" stroke="#000000" stroke-width="3.25" stroke-linejoin="bevel" points="1197.39,571.633 1197.39,654.233"/>
<polyline class="Stem" fill="none" stroke="#000000" stroke-width="3.25" stroke-linejoin="bevel" points="464.243,621.633 464.243,691.733"/>
<polyline class="Stem" fill="none" stroke="#000000" stroke-width="3.25" stroke-linejoin="bevel" points="1031.24,571.633 1031.24,654.233"/>
<polyline class="Stem" fill="none" stroke="#000000" stroke-width="3.25" stroke-linejoin="bevel" points="630.394,609.133 630.394,685.483"/>
<polyline class="Stem" fill="none" stroke="#000000" stroke-width="3.25" stroke-linejoin="bevel" points="907.59,584.133 907.59,666.733"/>
<polyline class="Stem" fill="none" stroke="#000000" stroke-width="3.25" stroke-linejoin="bevel" points="754.041,596.633 754.041,679.233"/>
<path class="Note" d="M1480.38,552.373 C1482.27,552.373 1486.22,550.42 1492.25,546.514 C1498.27,542.608 1501.82,539.988 1502.9,538.654 C1503.97,537.321 1504.51,536.134 1504.51,535.092 C1504.51,534.05 1504.08,533.123 1503.23,532.311 C1502.38,531.498 1501.41,531.092 1500.3,531.092 C1498.35,531.092 1494.37,533.061 1488.34,536.998 C1482.32,540.936 1478.78,543.556 1477.74,544.858 C1476.7,546.16 1476.18,547.332 1476.18,548.373 C1476.18,549.415 1476.59,550.342 1477.4,551.154 C1478.22,551.967 1479.21,552.373 1480.38,552.373 M1499.33,527.967 C1504.93,527.967 1507.72,530.373 1507.72,535.186 C1507.72,537.529 1507.04,540.248 1505.68,543.342 C1504.31,546.436 1502.49,548.795 1500.21,550.42 C1495.2,553.806 1488.92,555.498 1481.37,555.498 C1475.76,555.498 1472.96,553.092 1472.96,548.279 C1472.96,546.134 1473.63,543.464 1474.96,540.272 C1476.29,537.079 1478.13,534.67 1480.47,533.045 C1485.5,529.66 1491.78,527.967 1499.33,527.967"/>
<path class="Note" d="M2624.04,634.701 C2626.91,638.545 2630.58,640.467 2635.07,640.467 C2639.56,640.467 2641.81,637.441 2641.81,631.389 C2641.81,628.514 2640.99,625.972 2639.37,623.764 C2636.57,619.92 2632.79,617.998 2628.04,617.998 C2625.96,617.998 2624.36,618.86 2623.26,620.584 C2622.16,622.308 2621.6,624.54 2621.6,627.28 C2621.6,630.019 2622.42,632.493 2624.04,634.701 M2614.37,619.467 C2619.25,616.8 2625.13,615.467 2632,615.467 C2638.87,615.467 2644.67,616.834 2649.38,619.569 C2654.1,622.303 2656.46,625.558 2656.46,629.334 C2656.46,633.11 2654.02,636.332 2649.13,638.998 C2644.25,641.665 2638.41,642.998 2631.6,642.998 C2624.8,642.998 2618.99,641.631 2614.17,638.897 C2609.36,636.162 2606.95,632.876 2606.95,629.037 C2606.95,625.199 2609.42,622.009 2614.37,619.467"/>
<path class="Note" d="M2460.82,627.373 C2462.71,627.373 2466.66,625.42 2472.69,621.514 C2478.71,617.608 2482.26,614.988 2483.34,613.655 C2484.41,612.321 2484.94,611.134 2484.94,610.092 C2484.94,609.05 2484.52,608.123 2483.67,607.311 C2482.82,606.498 2481.85,606.092 2480.74,606.092 C2478.79,606.092 2474.81,608.061 2468.78,611.998 C2462.75,615.936 2459.22,618.556 2458.18,619.858 C2457.14,621.16 2456.62,622.332 2456.62,623.373 C2456.62,624.415 2457.03,625.342 2457.84,626.155 C2458.66,626.967 2459.65,627.373 2460.82,627.373 M2479.77,602.967 C2485.37,602.967 2488.16,605.373 2488.16,610.186 C2488.16,612.53 2487.48,615.248 2486.12,618.342 C2484.75,621.436 2482.93,623.795 2480.65,625.42 C2475.64,628.806 2469.36,630.498 2461.8,630.498 C2456.2,630.498 2453.4,628.092 2453.4,623.28 C2453.4,621.134 2454.06,618.464 2455.4,615.272 C2456.73,612.079 2458.57,609.67 2460.91,608.045 C2465.93,604.66 2472.22,602.967 2479.77,602.967"/>
<path class="Note" d="M346.393,639.873 C348.278,639.873 352.234,637.92 358.26,634.014 C364.286,630.108 367.835,627.488 368.908,626.155 C369.981,624.821 370.518,623.634 370.518,622.592 C370.518,621.55 370.093,620.623 369.244,619.811 C368.395,618.998 367.419,618.592 366.315,618.592 C364.367,618.592 360.38,620.561 354.354,624.498 C348.328,628.436 344.794,631.056 343.752,632.358 C342.71,633.66 342.19,634.832 342.19,635.873 C342.19,636.915 342.598,637.842 343.416,638.655 C344.234,639.467 345.226,639.873 346.393,639.873 M365.346,615.467 C370.94,615.467 373.736,617.873 373.736,622.686 C373.736,625.03 373.054,627.748 371.69,630.842 C370.325,633.936 368.502,636.295 366.221,637.92 C361.21,641.306 354.929,642.998 347.377,642.998 C341.773,642.998 338.971,640.592 338.971,635.78 C338.971,633.634 339.637,630.964 340.971,627.772 C342.304,624.579 344.143,622.17 346.486,620.545 C351.507,617.16 357.794,615.467 365.346,615.467"/>
<path class="Note" d="M2337.17,614.873 C2339.06,614.873 2343.01,612.92 2349.04,609.014 C2355.07,605.108 2358.62,602.488 2359.69,601.155 C2360.76,599.821 2361.3,598.634 2361.3,597.592 C2361.3,596.55 2360.87,595.623 2360.02,594.811 C2359.18,593.998 2358.2,593.592 2357.09,593.592 C2355.15,593.592 2351.16,595.561 2345.13,599.498 C2339.11,603.436 2335.57,606.056 2334.53,607.358 C2333.49,608.66 2332.97,609.832 2332.97,610.873 C2332.97,611.915 2333.38,612.842 2334.2,613.655 C2335.01,614.467 2336.01,614.873 2337.17,614.873 M2356.13,590.467 C2361.72,590.467 2364.52,592.873 2364.52,597.686 C2364.52,600.03 2363.83,602.748 2362.47,605.842 C2361.11,608.936 2359.28,611.295 2357,612.92 C2351.99,616.306 2345.71,617.998 2338.16,617.998 C2332.55,617.998 2329.75,615.592 2329.75,610.78 C2329.75,608.634 2330.42,605.964 2331.75,602.772 C2333.08,599.579 2334.92,597.17 2337.27,595.545 C2342.29,592.16 2348.57,590.467 2356.13,590.467"/>
<path class="Note" d="M470.04,627.373 C471.925,627.373 475.881,625.42 481.907,621.514 C487.933,617.608 491.482,614.988 492.555,613.655 C493.628,612.321 494.165,611.134 494.165,610.092 C494.165,609.05 493.74,608.123 492.891,607.311 C492.042,606.498 491.066,606.092 489.961,606.092 C488.014,606.092 484.027,608.061 478.001,611.998 C471.974,615.936 468.441,618.556 467.399,619.858 C466.357,621.16 465.836,622.332 465.836,623.373 C465.836,624.415 466.245,625.342 467.063,626.155 C467.881,626.967 468.873,627.373 470.04,627.373 M488.993,602.967 C494.586,602.967 497.383,605.373 497.383,610.186 C497.383,612.53 496.701,615.248 495.336,618.342 C493.972,621.436 492.149,623.795 489.868,625.42 C484.857,628.806 478.576,630.498 471.024,630.498 C465.42,630.498 462.618,628.092 462.618,623.28 C462.618,621.134 463.284,618.464 464.618,615.272 C465.951,612.079 467.79,609.67 470.133,608.045 C475.154,604.66 481.441,602.967 488.993,602.967"/>
<path class="Note" d="M2171.02,602.373 C2172.91,602.373 2176.86,600.42 2182.89,596.514 C2188.92,592.608 2192.46,589.988 2193.54,588.655 C2194.61,587.321 2195.15,586.134 2195.15,585.092 C2195.15,584.05 2194.72,583.123 2193.87,582.311 C2193.02,581.498 2192.05,581.092 2190.94,581.092 C2189,581.092 2185.01,583.061 2178.98,586.998 C2172.96,590.936 2169.42,593.556 2168.38,594.858 C2167.34,596.16 2166.82,597.332 2166.82,598.373 C2166.82,599.415 2167.23,600.342 2168.05,601.155 C2168.86,601.967 2169.86,602.373 2171.02,602.373 M2189.97,577.967 C2195.57,577.967 2198.37,580.373 2198.37,585.186 C2198.37,587.53 2197.68,590.248 2196.32,593.342 C2194.95,596.436 2193.13,598.795 2190.85,600.42 C2185.84,603.806 2179.56,605.498 2172.01,605.498 C2166.4,605.498 2163.6,603.092 2163.6,598.28 C2163.6,596.134 2164.27,593.464 2165.6,590.272 C2166.93,587.079 2168.77,584.67 2171.12,583.045 C2176.14,579.66 2182.42,577.967 2189.97,577.967"/>
<path class="Note" d="M636.19,614.873 C638.076,614.873 642.032,612.92 648.058,609.014 C654.084,605.108 657.633,602.488 658.706,601.155 C659.779,599.821 660.315,598.634 660.315,597.592 C660.315,596.55 659.891,595.623 659.042,594.811 C658.193,593.998 657.217,593.592 656.112,593.592 C654.164,593.592 650.177,595.561 644.151,599.498 C638.125,603.436 634.592,606.056 633.55,607.358 C632.508,608.66 631.987,609.832 631.987,610.873 C631.987,611.915 632.396,612.842 633.214,613.655 C634.032,614.467 635.024,614.873 636.19,614.873 M655.144,590.467 C660.737,590.467 663.534,592.873 663.534,597.686 C663.534,600.03 662.852,602.748 661.487,605.842 C660.123,608.936 658.3,611.295 656.019,612.92 C651.008,616.306 644.727,617.998 637.175,617.998 C631.571,617.998 628.769,615.592 628.769,610.78 C628.769,608.634 629.435,605.964 630.769,602.772 C632.102,599.579 633.94,597.17 636.284,595.545 C641.305,592.16 647.592,590.467 655.144,590.467"/>
<path class="Note" d="M2047.37,589.873 C2049.26,589.873 2053.22,587.92 2059.24,584.014 C2065.27,580.108 2068.82,577.488 2069.89,576.155 C2070.96,574.821 2071.5,573.634 2071.5,572.592 C2071.5,571.55 2071.08,570.623 2070.23,569.811 C2069.38,568.998 2068.4,568.592 2067.3,568.592 C2065.35,568.592 2061.36,570.561 2055.34,574.498 C2049.31,578.436 2045.78,581.056 2044.73,582.358 C2043.69,583.66 2043.17,584.832 2043.17,585.873 C2043.17,586.915 2043.58,587.842 2044.4,588.655 C2045.22,589.467 2046.21,589.873 2047.37,589.873 M2066.33,565.467 C2071.92,565.467 2074.72,567.873 2074.72,572.686 C2074.72,575.03 2074.04,577.748 2072.67,580.842 C2071.31,583.936 2069.48,586.295 2067.2,587.92 C2062.19,591.306 2055.91,592.998 2048.36,592.998 C2042.76,592.998 2039.95,590.592 2039.95,585.78 C2039.95,583.634 2040.62,580.964 2041.95,577.772 C2043.29,574.579 2045.12,572.17 2047.47,570.545 C2052.49,567.16 2058.78,565.467 2066.33,565.467"/>
<path class="Note" d="M759.837,602.373 C761.723,602.373 765.679,600.42 771.705,596.514 C777.731,592.608 781.28,589.988 782.353,588.655 C783.426,587.321 783.962,586.134 783.962,585.092 C783.962,584.05 783.538,583.123 782.689,582.311 C781.84,581.498 780.863,581.092 779.759,581.092 C777.811,581.092 773.824,583.061 767.798,586.998 C761.772,590.936 758.238,593.556 757.197,594.858 C756.155,596.16 755.634,597.332 755.634,598.373 C755.634,599.415 756.043,600.342 756.861,601.155 C757.679,601.967 758.671,602.373 759.837,602.373 M778.791,577.967 C784.384,577.967 787.181,580.373 787.181,585.186 C787.181,587.53 786.499,590.248 785.134,593.342 C783.77,596.436 781.947,598.795 779.666,600.42 C774.655,603.806 768.374,605.498 760.822,605.498 C755.218,605.498 752.416,603.092 752.416,598.28 C752.416,596.134 753.082,593.464 754.416,590.272 C755.749,587.079 757.587,584.67 759.931,583.045 C764.952,579.66 771.238,577.967 778.791,577.967"/>
<path class="Note" d="M913.387,589.873 C915.272,589.873 919.228,587.92 925.254,584.014 C931.28,580.108 934.829,577.488 935.902,576.155 C936.975,574.821 937.512,573.634 937.512,572.592 C937.512,571.55 937.087,570.623 936.238,569.811 C935.389,568.998 934.413,568.592 933.309,568.592 C931.361,568.592 927.374,570.561 921.348,574.498 C915.322,578.436 911.788,581.056 910.746,582.358 C909.704,583.66 909.184,584.832 909.184,585.873 C909.184,586.915 909.592,587.842 910.41,588.655 C911.228,589.467 912.22,589.873 913.387,589.873 M932.34,565.467 C937.934,565.467 940.73,567.873 940.73,572.686 C940.73,575.03 940.048,577.748 938.684,580.842 C937.319,583.936 935.496,586.295 933.215,587.92 C928.204,591.306 921.923,592.998 914.371,592.998 C908.767,592.998 905.965,590.592 905.965,585.78 C905.965,583.634 906.632,580.964 907.965,577.772 C909.298,574.579 911.137,572.17 913.48,570.545 C918.501,567.16 924.788,565.467 932.34,565.467"/>
<path class="Note" d="M1893.83,577.373 C1895.71,577.373 1899.67,575.42 1905.69,571.514 C1911.72,567.608 1915.27,564.988 1916.34,563.655 C1917.41,562.321 1917.95,561.134 1917.95,560.092 C1917.95,559.05 1917.53,558.123 1916.68,557.311 C1915.83,556.498 1914.85,556.092 1913.75,556.092 C1911.8,556.092 1907.81,558.061 1901.79,561.998 C1895.76,565.936 1892.23,568.556 1891.18,569.858 C1890.14,571.16 1889.62,572.332 1889.62,573.373 C1889.62,574.415 1890.03,575.342 1890.85,576.155 C1891.67,576.967 1892.66,577.373 1893.83,577.373 M1912.78,552.967 C1918.37,552.967 1921.17,555.373 1921.17,560.186 C1921.17,562.53 1920.49,565.248 1919.12,568.342 C1917.76,571.436 1915.93,573.795 1913.65,575.42 C1908.64,578.806 1902.36,580.498 1894.81,580.498 C1889.21,580.498 1886.4,578.092 1886.4,573.28 C1886.4,571.134 1887.07,568.464 1888.4,565.272 C1889.74,562.079 1891.58,559.67 1893.92,558.045 C1898.94,554.66 1905.23,552.967 1912.78,552.967"/>
<path class="Note" d="M1037.03,577.373 C1038.92,577.373 1042.87,575.42 1048.9,571.514 C1054.93,567.608 1058.48,564.988 1059.55,563.655 C1060.62,562.321 1061.16,561.134 1061.16,560.092 C1061.16,559.05 1060.73,558.123 1059.89,557.311 C1059.04,556.498 1058.06,556.092 1056.96,556.092 C1055.01,556.092 1051.02,558.061 1044.99,561.998 C1038.97,565.936 1035.43,568.556 1034.39,569.858 C1033.35,571.16 1032.83,572.332 1032.83,573.373 C1032.83,574.415 1033.24,575.342 1034.06,576.155 C1034.87,576.967 1035.87,577.373 1037.03,577.373 M1055.99,552.967 C1061.58,552.967 1064.38,555.373 1064.38,560.186 C1064.38,562.53 1063.7,565.248 1062.33,568.342 C1060.97,571.436 1059.14,573.795 1056.86,575.42 C1051.85,578.806 1045.57,580.498 1038.02,580.498 C1032.41,580.498 1029.61,578.092 1029.61,573.28 C1029.61,571.134 1030.28,568.464 1031.61,565.272 C1032.95,562.079 1034.78,559.67 1037.13,558.045 C1042.15,554.66 1048.43,552.967 1055.99,552.967"/>
<path class="Note" d="M1770.18,577.373 C1772.06,577.373 1776.02,575.42 1782.05,571.514 C1788.07,567.608 1791.62,564.988 1792.69,563.655 C1793.77,562.321 1794.3,561.134 1794.3,560.092 C1794.3,559.05 1793.88,558.123 1793.03,557.311 C1792.18,556.498 1791.2,556.092 1790.1,556.092 C1788.15,556.092 1784.17,558.061 1778.14,561.998 C1772.11,565.936 1768.58,568.556 1767.54,569.858 C1766.5,571.16 1765.98,572.332 1765.98,573.373 C1765.98,574.415 1766.38,575.342 1767.2,576.155 C1768.02,576.967 1769.01,577.373 1770.18,577.373 M1789.13,552.967 C1794.73,552.967 1797.52,555.373 1797.52,560.186 C1797.52,562.53 1796.84,565.248 1795.48,568.342 C1794.11,571.436 1792.29,573.795 1790.01,575.42 C1785,578.806 1778.72,580.498 1771.16,580.498 C1765.56,580.498 1762.76,578.092 1762.76,573.28 C1762.76,571.134 1763.42,568.464 1764.76,565.272 C1766.09,562.079 1767.93,559.67 1770.27,558.045 C1775.29,554.66 1781.58,552.967 1789.13,552.967"/>
<path class="Note" d="M1203.18,577.373 C1205.07,577.373 1209.03,575.42 1215.05,571.514 C1221.08,567.608 1224.63,564.988 1225.7,563.655 C1226.77,562.321 1227.31,561.134 1227.31,560.092 C1227.31,559.05 1226.89,558.123 1226.04,557.311 C1225.19,556.498 1224.21,556.092 1223.11,556.092 C1221.16,556.092 1217.17,558.061 1211.15,561.998 C1205.12,565.936 1201.59,568.556 1200.54,569.858 C1199.5,571.16 1198.98,572.332 1198.98,573.373 C1198.98,574.415 1199.39,575.342 1200.21,576.155 C1201.03,576.967 1202.02,577.373 1203.18,577.373 M1222.14,552.967 C1227.73,552.967 1230.53,555.373 1230.53,560.186 C1230.53,562.53 1229.85,565.248 1228.48,568.342 C1227.12,571.436 1225.29,573.795 1223.01,575.42 C1218,578.806 1211.72,580.498 1204.17,580.498 C1198.56,580.498 1195.76,578.092 1195.76,573.28 C1195.76,571.134 1196.43,568.464 1197.76,565.272 C1199.1,562.079 1200.93,559.67 1203.28,558.045 C1208.3,554.66 1214.59,552.967 1222.14,552.967"/>
<path class="Note" d="M1326.83,564.873 C1328.72,564.873 1332.67,562.92 1338.7,559.014 C1344.72,555.108 1348.27,552.488 1349.35,551.154 C1350.42,549.821 1350.96,548.634 1350.96,547.592 C1350.96,546.55 1350.53,545.623 1349.68,544.811 C1348.83,543.998 1347.86,543.592 1346.75,543.592 C1344.81,543.592 1340.82,545.561 1334.79,549.498 C1328.77,553.436 1325.23,556.056 1324.19,557.358 C1323.15,558.66 1322.63,559.832 1322.63,560.873 C1322.63,561.915 1323.04,562.842 1323.85,563.654 C1324.67,564.467 1325.66,564.873 1326.83,564.873 M1345.78,540.467 C1351.38,540.467 1354.18,542.873 1354.18,547.686 C1354.18,550.029 1353.49,552.748 1352.13,555.842 C1350.76,558.936 1348.94,561.295 1346.66,562.92 C1341.65,566.306 1335.37,567.998 1327.82,567.998 C1322.21,567.998 1319.41,565.592 1319.41,560.779 C1319.41,558.634 1320.08,555.964 1321.41,552.772 C1322.74,549.579 1324.58,547.17 1326.93,545.545 C1331.95,542.16 1338.23,540.467 1345.78,540.467"/>
<path class="Note" d="M1604.03,564.873 C1605.91,564.873 1609.87,562.92 1615.89,559.014 C1621.92,555.108 1625.47,552.488 1626.54,551.154 C1627.62,549.821 1628.15,548.634 1628.15,547.592 C1628.15,546.55 1627.73,545.623 1626.88,544.811 C1626.03,543.998 1625.05,543.592 1623.95,543.592 C1622,543.592 1618.01,545.561 1611.99,549.498 C1605.96,553.436 1602.43,556.056 1601.39,557.358 C1600.35,558.66 1599.82,559.832 1599.82,560.873 C1599.82,561.915 1600.23,562.842 1601.05,563.654 C1601.87,564.467 1602.86,564.873 1604.03,564.873 M1622.98,540.467 C1628.57,540.467 1631.37,542.873 1631.37,547.686 C1631.37,550.029 1630.69,552.748 1629.32,555.842 C1627.96,558.936 1626.14,561.295 1623.86,562.92 C1618.85,566.306 1612.56,567.998 1605.01,567.998 C1599.41,567.998 1596.61,565.592 1596.61,560.779 C1596.61,558.634 1597.27,555.964 1598.61,552.772 C1599.94,549.579 1601.78,547.17 1604.12,545.545 C1609.14,542.16 1615.43,540.467 1622.98,540.467"/>
<path class="Clef" d="M203.623,673.858 L203.623,671.717 C203.56,670.613 203.399,668.889 203.139,666.545 C199.889,667.066 196.993,667.326 194.451,667.326 C185.337,667.326 177.605,663.727 171.256,656.53 C164.907,649.332 161.732,640.754 161.732,630.795 C161.732,628.129 162.253,624.923 163.295,621.178 C164.337,617.433 165.297,614.925 166.178,613.655 C167.058,612.384 168.378,610.155 170.139,606.967 C170.659,605.988 172.352,603.837 175.217,600.514 C175.738,599.806 176.193,599.222 176.584,598.764 C176.975,598.306 177.607,597.49 178.482,596.319 C179.357,595.147 180.3,594.056 181.31,593.045 C182.321,592.035 183.217,591.058 183.998,590.115 C184.779,589.173 185.498,588.379 186.154,587.733 C183.81,579.983 182.378,574.024 181.857,569.858 C181.337,565.691 181.076,560.579 181.076,554.522 C181.076,548.464 182.378,542.962 184.982,538.014 C187.514,532.879 191.06,528.681 195.623,525.42 C195.883,525.222 196.225,525.123 196.646,525.123 C197.068,525.123 197.378,525.222 197.576,525.42 C201.087,529.649 204.128,535.149 206.701,541.92 C209.274,548.691 210.56,555.024 210.56,560.92 C210.56,566.816 209.066,572.498 206.076,577.967 C202.691,583.759 198.326,589.748 192.982,595.936 C194.347,600.227 196.17,606.962 198.451,616.139 L199.045,616.139 C199.305,616.076 199.529,616.045 199.717,616.045 C207.081,616.045 213.089,618.634 217.74,623.811 C222.391,628.988 224.717,634.962 224.717,641.733 C224.717,650.129 221.238,656.899 214.279,662.045 C212.258,663.545 209.878,664.717 207.139,665.561 C207.472,669.79 207.639,672.605 207.639,674.006 C207.639,675.407 207.571,677.899 207.435,681.483 C207.373,687.597 205.29,692.837 201.185,697.201 C197.081,701.566 192.394,703.748 187.123,703.748 C181.852,703.748 177.36,701.876 173.646,698.131 C169.933,694.386 168.076,689.847 168.076,684.514 C168.076,681.712 169.154,679.332 171.31,677.373 C173.519,675.425 176.006,674.451 178.771,674.451 C181.537,674.451 183.8,675.462 185.56,677.483 C187.383,679.368 188.295,681.644 188.295,684.311 C188.295,686.977 187.383,689.222 185.56,691.045 C183.738,692.868 181.555,693.78 179.014,693.78 C177.972,693.78 176.967,693.587 175.998,693.201 C178.863,697.431 182.54,699.545 187.029,699.545 C191.519,699.545 195.36,697.691 198.553,693.983 C201.745,690.274 203.342,685.91 203.342,680.889 L203.623,673.858 M206.748,661.561 C210.133,660.321 212.821,658.123 214.81,654.967 C216.8,651.811 217.795,648.67 217.795,645.545 C217.795,640.92 216.199,636.785 213.006,633.139 C209.813,629.493 205.774,627.441 200.889,626.983 C203.691,640.722 205.644,652.248 206.748,661.561 M168.967,638.998 C168.967,645.446 171.537,651.079 176.678,655.897 C181.818,660.714 187.842,663.123 194.748,663.123 C197.477,663.123 200.144,662.925 202.748,662.53 C201.706,652.634 199.654,640.785 196.592,626.983 C192.758,627.379 189.782,628.699 187.662,630.944 C185.542,633.188 184.482,635.743 184.482,638.608 C184.482,643.556 187.123,647.561 192.404,650.623 C192.852,650.884 193.076,651.324 193.076,651.944 C193.076,652.563 192.865,653.1 192.443,653.553 C192.021,654.006 191.649,654.233 191.326,654.233 C191.003,654.233 190.581,654.17 190.06,654.045 C182.435,649.879 178.623,643.592 178.623,635.186 C178.623,631.217 180.024,627.41 182.826,623.764 C185.753,620.118 189.56,617.774 194.248,616.733 C192.425,609.441 190.93,603.743 189.764,599.639 C180.847,609.67 175.31,617.092 173.154,621.905 C170.363,628.155 168.967,633.852 168.967,638.998 M201.576,539.686 C196.691,542.092 192.834,545.574 190.006,550.131 C187.178,554.688 185.764,559.472 185.764,564.483 C185.764,569.493 186.935,575.972 189.279,583.92 C193.967,578.254 197.514,572.946 199.92,567.998 C202.326,563.05 203.529,558.152 203.529,553.303 C203.529,548.454 202.878,543.915 201.576,539.686"/>
<path class="TimeSig" d="M273.021,567.912 C274.516,567.912 275.949,567.686 277.318,567.233 C278.688,566.78 279.665,566.553 280.248,566.553 C280.831,566.553 281.222,566.907 281.42,567.615 C281.42,567.688 281.352,567.886 281.217,568.209 L252.811,601.225 L269.498,601.225 L269.498,588.131 C269.498,586.506 270.446,585.334 272.342,584.615 C274.29,583.897 276.503,581.001 278.982,575.928 C279.17,575.532 279.462,575.334 279.857,575.334 C280.639,575.334 281.092,575.793 281.217,576.709 L281.217,601.225 L288.357,601.225 C289.264,601.225 289.751,601.712 289.818,602.686 C289.886,603.66 289.399,604.147 288.357,604.147 L281.217,604.147 L281.217,604.928 C281.217,607.532 281.868,609.746 283.17,611.569 C284.67,613.391 286.43,614.303 288.451,614.303 C289.232,614.303 289.623,614.694 289.623,615.475 C289.623,616.256 289.087,616.647 288.014,616.647 C286.941,616.647 284.938,616.436 282.006,616.014 C279.074,615.592 276.811,615.381 275.217,615.381 C273.623,615.381 271.41,615.592 268.576,616.014 C265.743,616.436 263.613,616.647 262.186,616.647 C261.404,616.647 261.014,616.256 261.014,615.475 C261.014,614.694 261.404,614.303 262.186,614.303 C264.196,614.303 265.951,613.391 267.451,611.569 C268.816,609.683 269.498,607.47 269.498,604.928 L269.498,604.147 L252.811,604.147 C251.956,604.147 251.219,603.92 250.6,603.467 C249.98,603.014 249.67,602.592 249.67,602.201 C249.67,601.811 250.485,600.639 252.115,598.686 C253.745,596.733 256.074,592.972 259.1,587.405 C262.126,581.837 263.639,575.438 263.639,568.209 C263.639,567.168 264.097,566.647 265.014,566.647 C265.212,566.647 265.521,566.712 265.943,566.842 C266.365,566.972 267.277,567.183 268.678,567.475 C270.079,567.766 271.527,567.912 273.021,567.912"/>
<path class="TimeSig" d="M273.021,618.084 C274.516,618.084 275.949,617.858 277.318,617.405 C278.688,616.951 279.665,616.725 280.248,616.725 C280.831,616.725 281.222,617.079 281.42,617.787 C281.42,617.86 281.352,618.058 281.217,618.381 L252.811,651.397 L269.498,651.397 L269.498,638.303 C269.498,636.678 270.446,635.506 272.342,634.787 C274.29,634.069 276.503,631.173 278.982,626.1 C279.17,625.704 279.462,625.506 279.857,625.506 C280.639,625.506 281.092,625.964 281.217,626.881 L281.217,651.397 L288.357,651.397 C289.264,651.397 289.751,651.884 289.818,652.858 C289.886,653.832 289.399,654.319 288.357,654.319 L281.217,654.319 L281.217,655.1 C281.217,657.704 281.868,659.918 283.17,661.74 C284.67,663.563 286.43,664.475 288.451,664.475 C289.232,664.475 289.623,664.865 289.623,665.647 C289.623,666.428 289.087,666.819 288.014,666.819 C286.941,666.819 284.938,666.608 282.006,666.186 C279.074,665.764 276.811,665.553 275.217,665.553 C273.623,665.553 271.41,665.764 268.576,666.186 C265.743,666.608 263.613,666.819 262.186,666.819 C261.404,666.819 261.014,666.428 261.014,665.647 C261.014,664.865 261.404,664.475 262.186,664.475 C264.196,664.475 265.951,663.563 267.451,661.74 C268.816,659.855 269.498,657.642 269.498,655.1 L269.498,654.319 L252.811,654.319 C251.956,654.319 251.219,654.092 250.6,653.639 C249.98,653.186 249.67,652.764 249.67,652.373 C249.67,651.983 250.485,650.811 252.115,648.858 C253.745,646.905 256.074,643.144 259.1,637.576 C262.126,632.009 263.639,625.61 263.639,618.381 C263.639,617.339 264.097,616.819 265.014,616.819 C265.212,616.819 265.521,616.884 265.943,617.014 C266.365,617.144 267.277,617.355 268.678,617.647 C270.079,617.938 271.527,618.084 273.021,618.084"/>
</svg>
