<?xml version="1.0" encoding="UTF-8" standalone="no"?>
<svg width="2977.2px" height="4208.4px" viewBox="0 0 2977.2 4208.4"
 xmlns="http://www.w3.org/2000/svg" xmlns:xlink="http://www.w3.org/1999/xlink" version="1.2" baseProfile="tiny">
<title>Kumbayah.mscx</title>
<desc>Generated by MuseScore Studio 4.3.1</desc>
<path class="" fill="#ffffff" fill-rule="evenodd" d="M0,0 L2977.2,0 L2977.2,4208.4 L0,4208.4 L0,0 "/>
<polyline class="StaffLines" fill="none" stroke="#000000" stroke-width="2.00" stroke-linejoin="bevel" points="141.732,316.732 2835.47,316.732"/>
<polyline class="StaffLines" fill="none" stroke="#000000" stroke-width="2.00" stroke-linejoin="bevel" points="141.732,341.732 2835.47,341.732"/>
<polyline class="StaffLines" fill="none" stroke="#000000" stroke-width="2.00" stroke-linejoin="bevel" points="141.732,366.733 2835.47,366.733"/>
<polyline class="StaffLines" fill="none" stroke="#000000" stroke-width="2.00" stroke-linejoin="bevel" points="141.732,391.733 2835.47,391.733"/>
<polyline class="StaffLines" fill="none" stroke="#000000" stroke-width="2.00" stroke-linejoin="bevel" points="141.732,416.733 2835.47,416.733"/>
<polyline class="StaffLines" fill="none" stroke="#000000" stroke-width="2.00" stroke-linejoin="bevel" points="141.732,791.733 2835.47,791.733"/>
<polyline class="StaffLines" fill="none" stroke="#000000" stroke-width="2.00" stroke-linejoin="bevel" points="141.732,816.733 2835.47,816.733"/>
<polyline class="StaffLines" fill="none" stroke="#000000" stroke-width="2.00" stroke-linejoin="bevel" points="141.732,841.733 2835.47,841.733"/>
<polyline class="StaffLines" fill="none" stroke="#000000" stroke-width="2.00" stroke-linejoin="bevel" points="141.732,866.733 2835.47,866.733"/>
<polyline class="StaffLines" fill="none" stroke="#000000" stroke-width="2.00" stroke-linejoin="bevel" points="141.732,891.733 2835.47,891.733"/>
<polyline class="StaffLines" fill="none" stroke="#000000" stroke-width="2.00" stroke-linejoin="bevel" points="141.732,1266.73 2835.47,1266.73"/>
<polyline class="StaffLines" fill="none" stroke="#000000" stroke-width="2.00" stroke-linejoin="bevel" points="141.732,1291.73 2835.47,1291.73"/>
<polyline class="StaffLines" fill="none" stroke="#000000" stroke-width="2.00" stroke-linejoin="bevel" points="141.732,1316.73 2835.47,1316.73"/>
<polyline class="StaffLines" fill="none" stroke="#000000" stroke-width="2.00" stroke-linejoin="bevel" points="141.732,1341.73 2835.47,1341.73"/>
<polyline class="StaffLines" fill="none" stroke="#000000" stroke-width="2.00" stroke-linejoin="bevel" points="141.732,1366.73 2835.47,1366.73"/>
<polyline class="StaffLines" fill="none" stroke="#000000" stroke-width="2.00" stroke-linejoin="bevel" points="141.732,1741.73 491.484,1741.73"/>
<polyline class="StaffLines" fill="none" stroke="#000000" stroke-width="2.00" stroke-linejoin="bevel" points="141.732,1766.73 491.484,1766.73"/>
<polyline class="StaffLines" fill="none" stroke="#000000" stroke-width="2.00" stroke-linejoin="bevel" points="141.732,1791.73 491.484,1791.73"/>
<polyline class="StaffLines" fill="none" stroke="#000000" stroke-width="2.00" stroke-linejoin="bevel" points="141.732,1816.73 491.484,1816.73"/>
<polyline class="StaffLines" fill="none" stroke="#000000" stroke-width="2.00" stroke-linejoin="bevel" points="141.732,1841.73 491.484,1841.73"/>
<path class="MeasureNumber" d="M134.092,1217.61 L133.967,1216.81 C137.008,1216.28 139.589,1214.98 141.709,1212.92 C143.829,1210.86 145.3,1208.2 146.123,1204.94 C144.154,1206.48 142.159,1207.25 140.139,1207.25 C137.972,1207.25 136.23,1206.5 134.912,1205.01 C133.594,1203.51 132.935,1201.55 132.935,1199.11 C132.935,1196.4 133.727,1194.14 135.31,1192.33 C136.894,1190.53 138.873,1189.62 141.248,1189.62 C143.831,1189.62 145.951,1190.68 147.607,1192.8 C149.264,1194.91 150.092,1197.63 150.092,1200.95 C150.092,1202.01 149.998,1203.11 149.81,1204.23 C149.623,1205.36 149.188,1206.69 148.506,1208.23 C147.824,1209.76 146.938,1211.14 145.85,1212.35 C144.761,1213.56 143.204,1214.67 141.178,1215.65 C139.152,1216.64 136.79,1217.3 134.092,1217.61 M141.576,1205.5 C142.076,1205.5 142.646,1205.43 143.287,1205.28 C143.928,1205.13 144.576,1204.81 145.232,1204.32 C145.889,1203.82 146.217,1203.22 146.217,1202.5 L146.217,1200.95 C146.217,1194.19 144.456,1190.81 140.935,1190.81 C140.102,1190.81 139.394,1191.03 138.81,1191.48 C138.227,1191.92 137.782,1192.5 137.475,1193.21 C137.167,1193.92 136.946,1194.65 136.81,1195.4 C136.675,1196.14 136.607,1196.93 136.607,1197.76 C136.607,1200.13 137.055,1202.01 137.951,1203.4 C138.847,1204.8 140.055,1205.5 141.576,1205.5"/>
<path class="MeasureNumber" d="M146.514,733.873 C146.514,732.446 146.199,731.181 145.568,730.076 C144.938,728.972 144.178,728.118 143.287,727.514 C142.396,726.91 141.399,726.412 140.295,726.022 C139.191,725.631 138.23,725.376 137.412,725.256 C136.594,725.136 135.883,725.076 135.279,725.076 C134.956,725.076 134.795,724.967 134.795,724.748 C134.795,724.675 134.805,724.613 134.826,724.561 L139.185,715.264 L147.545,715.264 C147.972,715.264 148.313,715.196 148.568,715.061 C148.824,714.925 149.097,714.644 149.389,714.217 L149.748,714.498 L148.232,717.842 C148.128,718.061 147.821,718.17 147.31,718.17 L139.467,718.17 L137.795,721.608 C141.68,722.306 144.571,723.441 146.467,725.014 C148.363,726.587 149.31,728.894 149.31,731.936 C149.31,733.53 149.063,734.946 148.568,736.186 C148.074,737.425 147.446,738.423 146.685,739.178 C145.925,739.933 145.045,740.553 144.045,741.037 C143.045,741.522 142.087,741.853 141.17,742.03 C140.253,742.207 139.326,742.295 138.389,742.295 C136.899,742.295 135.714,742.074 134.834,741.631 C133.954,741.188 133.514,740.582 133.514,739.811 C133.514,738.821 134.087,738.326 135.232,738.326 C135.982,738.326 136.949,738.735 138.131,739.553 C139.313,740.371 140.253,740.78 140.951,740.78 C142.524,740.78 143.844,740.113 144.912,738.78 C145.98,737.446 146.514,735.811 146.514,733.873"/>
<path class="MeasureNumber" d="M128.045,1668.01 C127.566,1668.01 126.607,1668.31 125.17,1668.89 L125.17,1668.34 L132.373,1664.7 L132.685,1664.78 L132.685,1688.78 C132.685,1689.74 132.925,1690.36 133.404,1690.66 C133.883,1690.95 134.909,1691.11 136.482,1691.14 L136.482,1691.73 L125.451,1691.73 L125.451,1691.14 C126.941,1691.08 127.946,1690.85 128.467,1690.47 C128.988,1690.08 129.248,1689.26 129.248,1688.01 L129.248,1669.89 C129.248,1668.64 128.847,1668.01 128.045,1668.01 M143.951,1688.61 C144.566,1688.61 145.48,1688.97 146.693,1689.69 C147.907,1690.42 148.967,1690.78 149.873,1690.78 C151.342,1690.78 152.581,1690.21 153.592,1689.07 C154.602,1687.93 155.107,1686.53 155.107,1684.86 C155.107,1683.82 154.928,1682.9 154.568,1682.11 C154.209,1681.32 153.751,1680.7 153.193,1680.26 C152.636,1679.83 151.969,1679.47 151.193,1679.19 C150.417,1678.92 149.691,1678.74 149.014,1678.66 C148.337,1678.57 147.613,1678.53 146.842,1678.53 L146.842,1678.01 C147.748,1677.69 148.527,1677.38 149.178,1677.07 C149.829,1676.76 150.514,1676.35 151.232,1675.83 C151.951,1675.32 152.506,1674.69 152.896,1673.94 C153.287,1673.19 153.482,1672.33 153.482,1671.37 C153.482,1670.12 153.074,1669.1 152.256,1668.3 C151.438,1667.49 150.378,1667.09 149.076,1667.09 C147.826,1667.09 146.727,1667.43 145.779,1668.12 C144.831,1668.8 143.946,1669.87 143.123,1671.34 L142.514,1671.17 C143.212,1669.29 144.154,1667.74 145.342,1666.52 C146.529,1665.31 148.212,1664.7 150.389,1664.7 C152.232,1664.7 153.735,1665.21 154.896,1666.22 C156.058,1667.23 156.639,1668.55 156.639,1670.17 C156.639,1671.26 156.357,1672.23 155.795,1673.05 C155.232,1673.88 154.258,1674.76 152.873,1675.7 C154.477,1676.39 155.732,1677.27 156.639,1678.34 C157.545,1679.42 157.998,1680.95 157.998,1682.95 C157.998,1685.79 156.951,1688.05 154.857,1689.75 C152.764,1691.45 150.128,1692.3 146.951,1692.3 C145.566,1692.3 144.467,1692.09 143.654,1691.67 C142.842,1691.25 142.435,1690.7 142.435,1690.01 C142.435,1689.59 142.576,1689.25 142.857,1688.99 C143.139,1688.74 143.503,1688.61 143.951,1688.61"/>
<path class="TieSegment" stroke="#000000" stroke-width="1.75" stroke-linecap="round" stroke-linejoin="round" fill-rule="evenodd" d="M249.732,1760.61 C260.024,1743.39 290.898,1743.39 301.189,1760.61 C290.898,1747.39 260.024,1747.39 249.732,1760.61"/>
<path class="TieSegment" stroke="#000000" stroke-width="1.75" stroke-linecap="round" stroke-linejoin="round" fill-rule="evenodd" d="M1297.69,798.108 C1355.8,764.163 1530.14,764.163 1588.26,798.108 C1530.14,768.163 1355.8,768.163 1297.69,798.108"/>
<path class="TieSegment" stroke="#000000" stroke-width="1.75" stroke-linecap="round" stroke-linejoin="round" fill-rule="evenodd" d="M686.972,1235.61 C749.07,1200.76 935.363,1200.76 997.461,1235.61 C935.363,1204.76 749.07,1204.76 686.972,1235.61"/>
<path class="TieSegment" stroke="#000000" stroke-width="1.75" stroke-linecap="round" stroke-linejoin="round" fill-rule="evenodd" d="M1853.97,285.607 C1916.94,250.569 2105.86,250.569 2168.84,285.607 C2105.86,254.569 1916.94,254.569 1853.97,285.607"/>
<path class="TieSegment" stroke="#000000" stroke-width="1.75" stroke-linecap="round" stroke-linejoin="round" fill-rule="evenodd" d="M2564.84,1285.61 C2616.91,1250.25 2773.14,1250.25 2825.22,1285.61 C2773.14,1254.25 2616.91,1254.25 2564.84,1285.61"/>
<polyline class="BarLine" fill="none" stroke="#000000" stroke-width="4.00" stroke-linejoin="bevel" points="2126.98,315.732 2126.98,417.733"/>
<polyline class="BarLine" fill="none" stroke="#000000" stroke-width="4.00" stroke-linejoin="bevel" points="2833.47,1265.73 2833.47,1367.73"/>
<polyline class="BarLine" fill="none" stroke="#000000" stroke-width="4.00" stroke-linejoin="bevel" points="2833.47,790.733 2833.47,892.733"/>
<polyline class="BarLine" fill="none" stroke="#000000" stroke-width="4.00" stroke-linejoin="bevel" points="2833.47,315.732 2833.47,417.733"/>
<polyline class="BarLine" fill="none" stroke="#000000" stroke-width="4.00" stroke-linejoin="bevel" points="1421.39,315.732 1421.39,417.733"/>
<polyline class="BarLine" fill="none" stroke="#000000" stroke-width="4.00" stroke-linejoin="bevel" points="955.602,1265.73 955.602,1367.73"/>
<polyline class="BarLine" fill="none" stroke="#000000" stroke-width="4.00" stroke-linejoin="bevel" points="1556.68,1265.73 1556.68,1367.73"/>
<polyline class="BarLine" fill="none" stroke="#000000" stroke-width="4.00" stroke-linejoin="bevel" points="2196.2,790.733 2196.2,892.733"/>
<polyline class="BarLine" fill="none" stroke="#000000" stroke-width="4.00" stroke-linejoin="bevel" points="728.495,315.732 728.495,417.733"/>
<polyline class="BarLine" fill="none" stroke="#000000" stroke-width="4.00" stroke-linejoin="bevel" points="2138.1,1265.73 2138.1,1367.73"/>
<polyline class="BarLine" fill="none" stroke="#000000" stroke-width="4.00" stroke-linejoin="bevel" points="897.501,790.733 897.501,892.733"/>
<polyline class="BarLine" fill="none" stroke="#000000" stroke-width="4.00" stroke-linejoin="bevel" points="458.734,1740.73 458.734,1842.73"/>
<polyline class="BarLine" fill="none" stroke="#000000" stroke-width="12.50" stroke-linejoin="bevel" points="485.234,1740.73 485.234,1842.73"/>
<polyline class="BarLine" fill="none" stroke="#000000" stroke-width="4.00" stroke-linejoin="bevel" points="1546.4,790.733 1546.4,892.733"/>
<polyline class="LedgerLine" fill="none" stroke="#000000" stroke-width="4.00" stroke-linejoin="bevel" points="1438.89,291.732 1490.8,291.732"/>
<polyline class="LedgerLine" fill="none" stroke="#000000" stroke-width="4.00" stroke-linejoin="bevel" points="468.124,1241.73 520.038,1241.73"/>
<polyline class="LedgerLine" fill="none" stroke="#000000" stroke-width="4.00" stroke-linejoin="bevel" points="1632.2,291.732 1684.11,291.732"/>
<polyline class="LedgerLine" fill="none" stroke="#000000" stroke-width="4.00" stroke-linejoin="bevel" points="277.732,1241.73 329.647,1241.73"/>
<polyline class="Stem" fill="none" stroke="#000000" stroke-width="3.25" stroke-linejoin="bevel" points="2357.12,1297.6 2357.12,1379.23"/>
<polyline class="Stem" fill="none" stroke="#000000" stroke-width="3.25" stroke-linejoin="bevel" points="2166.72,1297.6 2166.72,1379.23"/>
<polyline class="Stem" fill="none" stroke="#000000" stroke-width="3.25" stroke-linejoin="bevel" points="1279.45,821.633 1279.45,904.233"/>
<polyline class="Stem" fill="none" stroke="#000000" stroke-width="3.25" stroke-linejoin="bevel" points="288.857,1247.6 288.857,1329.23"/>
<polyline class="Stem" fill="none" stroke="#000000" stroke-width="3.25" stroke-linejoin="bevel" points="2546.6,1309.13 2546.6,1385.48"/>
<polyline class="Stem" fill="none" stroke="#000000" stroke-width="3.25" stroke-linejoin="bevel" points="1575.02,821.633 1575.02,904.233"/>
<polyline class="Stem" fill="none" stroke="#000000" stroke-width="3.25" stroke-linejoin="bevel" points="1841.6,835.102 1841.6,910.483"/>
<polyline class="Stem" fill="none" stroke="#000000" stroke-width="3.25" stroke-linejoin="bevel" points="2018.71,810.102 2018.71,891.733"/>
<polyline class="Stem" fill="none" stroke="#000000" stroke-width="3.25" stroke-linejoin="bevel" points="1774.79,1309.13 1774.79,1385.48"/>
<polyline class="Stem" fill="none" stroke="#000000" stroke-width="3.25" stroke-linejoin="bevel" points="1585.3,1285.1 1585.3,1366.73"/>
<polyline class="Stem" fill="none" stroke="#000000" stroke-width="3.25" stroke-linejoin="bevel" points="1269.81,1271.63 1269.81,1354.23"/>
<polyline class="Stem" fill="none" stroke="#000000" stroke-width="3.25" stroke-linejoin="bevel" points="2224.82,785.102 2224.82,866.733"/>
<polyline class="Stem" fill="none" stroke="#000000" stroke-width="3.25" stroke-linejoin="bevel" points="984.227,1259.13 984.227,1341.73"/>
<polyline class="Stem" fill="none" stroke="#000000" stroke-width="3.25" stroke-linejoin="bevel" points="668.738,1259.13 668.738,1341.73"/>
<polyline class="Stem" fill="none" stroke="#000000" stroke-width="3.25" stroke-linejoin="bevel" points="2449.35,785.102 2449.35,867.333"/>
<polyline class="Stem" fill="none" stroke="#000000" stroke-width="3.25" stroke-linejoin="bevel" points="2566.52,784.133 2566.52,866.733"/>
<polyline class="Stem" fill="none" stroke="#000000" stroke-width="3.25" stroke-linejoin="bevel" points="479.249,1247.6 479.249,1329.23"/>
<polyline class="Stem" fill="none" stroke="#000000" stroke-width="3.25" stroke-linejoin="bevel" points="1103.24,810.102 1103.24,891.733"/>
<polyline class="Stem" fill="none" stroke="#000000" stroke-width="3.25" stroke-linejoin="bevel" points="1450.01,297.602 1450.01,379.233"/>
<polyline class="Stem" fill="none" stroke="#000000" stroke-width="3.25" stroke-linejoin="bevel" points="1643.33,297.602 1643.33,379.233"/>
<polyline class="Stem" fill="none" stroke="#000000" stroke-width="3.25" stroke-linejoin="bevel" points="1835.73,309.132 1835.73,391.733"/>
<polyline class="Stem" fill="none" stroke="#000000" stroke-width="3.25" stroke-linejoin="bevel" points="1130.15,309.132 1130.15,391.733"/>
<polyline class="Stem" fill="none" stroke="#000000" stroke-width="3.25" stroke-linejoin="bevel" points="287.955,1784.13 287.955,1860.48"/>
<polyline class="Stem" fill="none" stroke="#000000" stroke-width="3.25" stroke-linejoin="bevel" points="2155.6,309.132 2155.6,391.733"/>
<polyline class="Stem" fill="none" stroke="#000000" stroke-width="3.25" stroke-linejoin="bevel" points="2446.47,360.102 2446.47,435.483"/>
<polyline class="Stem" fill="none" stroke="#000000" stroke-width="3.25" stroke-linejoin="bevel" points="1002.17,310.102 1002.17,392.333"/>
<polyline class="Stem" fill="none" stroke="#000000" stroke-width="3.25" stroke-linejoin="bevel" points="2639.78,335.102 2639.78,416.733"/>
<polyline class="Stem" fill="none" stroke="#000000" stroke-width="3.25" stroke-linejoin="bevel" points="288.857,785.102 288.857,866.733"/>
<polyline class="Stem" fill="none" stroke="#000000" stroke-width="3.25" stroke-linejoin="bevel" points="757.12,310.102 757.12,391.733"/>
<polyline class="Stem" fill="none" stroke="#000000" stroke-width="3.25" stroke-linejoin="bevel" points="513.38,785.102 513.38,867.333"/>
<polyline class="Stem" fill="none" stroke="#000000" stroke-width="3.25" stroke-linejoin="bevel" points="341.498,360.102 341.498,435.483"/>
<polyline class="Stem" fill="none" stroke="#000000" stroke-width="3.25" stroke-linejoin="bevel" points="926.126,797.602 926.126,879.233"/>
<polyline class="Stem" fill="none" stroke="#000000" stroke-width="3.25" stroke-linejoin="bevel" points="534.809,335.102 534.809,416.733"/>
<polyline class="Stem" fill="none" stroke="#000000" stroke-width="3.25" stroke-linejoin="bevel" points="630.553,784.133 630.553,866.733"/>
<path class="Hook" d="M2470.47,794.373 C2471.97,794.373 2473.55,796.798 2475.21,801.647 C2476.88,806.496 2477.71,810.939 2477.71,814.975 C2477.71,819.011 2476.78,822.918 2474.92,826.694 C2473.07,830.47 2470.84,833.79 2468.24,836.655 L2460.22,845.639 C2457.75,848.504 2455.57,851.79 2453.68,855.498 C2451.79,859.207 2450.85,862.952 2450.85,866.733 L2447.72,866.733 L2447.72,841.733 L2450.85,841.733 C2461.78,834.827 2468.65,828.707 2471.46,823.373 C2472.82,820.769 2473.5,818.134 2473.5,815.467 C2473.5,809.28 2471.71,803.123 2468.13,796.998 L2468.13,796.608 C2468.13,796.024 2468.36,795.506 2468.82,795.053 C2469.27,794.6 2469.83,794.373 2470.47,794.373"/>
<path class="Hook" d="M1023.3,319.373 C1024.8,319.373 1026.38,321.798 1028.04,326.647 C1029.7,331.496 1030.53,335.938 1030.53,339.975 C1030.53,344.011 1029.61,347.917 1027.75,351.693 C1025.9,355.469 1023.67,358.79 1021.07,361.654 L1013.05,370.639 C1010.58,373.503 1008.4,376.79 1006.51,380.498 C1004.62,384.206 1003.67,387.951 1003.67,391.733 L1000.55,391.733 L1000.55,366.733 L1003.67,366.733 C1014.61,359.826 1021.48,353.706 1024.28,348.373 C1025.65,345.769 1026.33,343.134 1026.33,340.467 C1026.33,334.279 1024.54,328.123 1020.96,321.998 L1020.96,321.608 C1020.96,321.024 1021.19,320.506 1021.64,320.053 C1022.1,319.6 1022.65,319.373 1023.3,319.373"/>
<path class="Hook" d="M534.505,794.373 C536.005,794.373 537.585,796.798 539.247,801.647 C540.908,806.496 541.739,810.939 541.739,814.975 C541.739,819.011 540.812,822.918 538.958,826.694 C537.104,830.47 534.874,833.79 532.27,836.655 L524.255,845.639 C521.786,848.504 519.606,851.79 517.715,855.498 C515.825,859.207 514.88,862.952 514.88,866.733 L511.755,866.733 L511.755,841.733 L514.88,841.733 C525.817,834.827 532.687,828.707 535.489,823.373 C536.854,820.769 537.536,818.134 537.536,815.467 C537.536,809.28 535.744,803.123 532.161,796.998 L532.161,796.608 C532.161,796.024 532.39,795.506 532.848,795.053 C533.307,794.6 533.859,794.373 534.505,794.373"/>
<path class="Note" d="M2377.46,1277.97 C2380.58,1277.97 2383.19,1278.75 2385.27,1280.31 C2387.35,1281.87 2388.4,1284.12 2388.4,1287.05 C2388.4,1291.54 2386.07,1295.73 2381.42,1299.64 C2376.77,1303.55 2371.77,1305.5 2366.43,1305.5 C2363.3,1305.5 2360.67,1304.69 2358.52,1303.06 C2356.5,1301.3 2355.49,1299.09 2355.49,1296.42 C2355.49,1292.06 2357.8,1287.89 2362.43,1283.92 C2367.05,1279.95 2372.06,1277.97 2377.46,1277.97"/>
<path class="Note" d="M1123.58,790.467 C1126.71,790.467 1129.31,791.248 1131.4,792.811 C1133.48,794.373 1134.52,796.618 1134.52,799.545 C1134.52,804.035 1132.2,808.233 1127.54,812.139 C1122.89,816.045 1117.9,817.998 1112.55,817.998 C1109.43,817.998 1106.79,817.186 1104.65,815.561 C1102.63,813.8 1101.61,811.587 1101.61,808.92 C1101.61,804.556 1103.93,800.389 1108.55,796.42 C1113.18,792.452 1118.19,790.467 1123.58,790.467"/>
<path class="Note" d="M2187.07,1277.97 C2190.19,1277.97 2192.8,1278.75 2194.88,1280.31 C2196.96,1281.87 2198.01,1284.12 2198.01,1287.05 C2198.01,1291.54 2195.68,1295.73 2191.03,1299.64 C2186.38,1303.55 2181.38,1305.5 2176.04,1305.5 C2172.91,1305.5 2170.28,1304.69 2168.13,1303.06 C2166.11,1301.3 2165.1,1299.09 2165.1,1296.42 C2165.1,1292.06 2167.41,1287.89 2172.04,1283.92 C2176.66,1279.95 2181.67,1277.97 2187.07,1277.97"/>
<path class="Note" d="M674.534,1264.87 C676.42,1264.87 680.376,1262.92 686.402,1259.01 C692.428,1255.11 695.977,1252.49 697.05,1251.15 C698.123,1249.82 698.659,1248.63 698.659,1247.59 C698.659,1246.55 698.235,1245.62 697.386,1244.81 C696.537,1244 695.56,1243.59 694.456,1243.59 C692.508,1243.59 688.521,1245.56 682.495,1249.5 C676.469,1253.44 672.935,1256.06 671.894,1257.36 C670.852,1258.66 670.331,1259.83 670.331,1260.87 C670.331,1261.92 670.74,1262.84 671.558,1263.65 C672.376,1264.47 673.368,1264.87 674.534,1264.87 M693.488,1240.47 C699.081,1240.47 701.878,1242.87 701.878,1247.69 C701.878,1250.03 701.196,1252.75 699.831,1255.84 C698.467,1258.94 696.644,1261.3 694.363,1262.92 C689.352,1266.31 683.071,1268 675.519,1268 C669.915,1268 667.113,1265.59 667.113,1260.78 C667.113,1258.63 667.779,1255.96 669.113,1252.77 C670.446,1249.58 672.284,1247.17 674.628,1245.55 C679.649,1242.16 685.935,1240.47 693.488,1240.47"/>
<path class="Note" d="M1135.94,314.873 C1137.83,314.873 1141.78,312.92 1147.81,309.014 C1153.84,305.107 1157.39,302.488 1158.46,301.154 C1159.53,299.821 1160.07,298.634 1160.07,297.592 C1160.07,296.55 1159.64,295.623 1158.79,294.811 C1157.95,293.998 1156.97,293.592 1155.86,293.592 C1153.92,293.592 1149.93,295.561 1143.9,299.498 C1137.88,303.436 1134.34,306.055 1133.3,307.357 C1132.26,308.66 1131.74,309.831 1131.74,310.873 C1131.74,311.915 1132.15,312.842 1132.97,313.654 C1133.78,314.467 1134.78,314.873 1135.94,314.873 M1154.9,290.467 C1160.49,290.467 1163.29,292.873 1163.29,297.686 C1163.29,300.029 1162.6,302.748 1161.24,305.842 C1159.88,308.936 1158.05,311.295 1155.77,312.92 C1150.76,316.305 1144.48,317.998 1136.93,317.998 C1131.32,317.998 1128.52,315.592 1128.52,310.779 C1128.52,308.634 1129.19,305.964 1130.52,302.772 C1131.85,299.579 1133.69,297.17 1136.04,295.545 C1141.06,292.16 1147.34,290.467 1154.9,290.467"/>
<path class="Note" d="M1022.52,290.467 C1025.64,290.467 1028.25,291.248 1030.33,292.811 C1032.41,294.373 1033.46,296.618 1033.46,299.545 C1033.46,304.035 1031.13,308.232 1026.48,312.139 C1021.83,316.045 1016.83,317.998 1011.49,317.998 C1008.36,317.998 1005.73,317.186 1003.58,315.561 C1001.56,313.8 1000.55,311.587 1000.55,308.92 C1000.55,304.555 1002.86,300.389 1007.49,296.42 C1012.11,292.451 1017.12,290.467 1022.52,290.467"/>
<path class="Note" d="M361.842,340.467 C364.967,340.467 367.571,341.248 369.654,342.811 C371.738,344.373 372.779,346.618 372.779,349.545 C372.779,354.035 370.454,358.232 365.803,362.139 C361.152,366.045 356.154,367.998 350.811,367.998 C347.686,367.998 345.05,367.186 342.904,365.561 C340.884,363.8 339.873,361.587 339.873,358.92 C339.873,354.555 342.186,350.389 346.811,346.42 C351.436,342.451 356.446,340.467 361.842,340.467"/>
<path class="Note" d="M990.024,1264.87 C991.909,1264.87 995.865,1262.92 1001.89,1259.01 C1007.92,1255.11 1011.47,1252.49 1012.54,1251.15 C1013.61,1249.82 1014.15,1248.63 1014.15,1247.59 C1014.15,1246.55 1013.72,1245.62 1012.88,1244.81 C1012.03,1244 1011.05,1243.59 1009.95,1243.59 C1008,1243.59 1004.01,1245.56 997.984,1249.5 C991.958,1253.44 988.425,1256.06 987.383,1257.36 C986.341,1258.66 985.82,1259.83 985.82,1260.87 C985.82,1261.92 986.229,1262.84 987.047,1263.65 C987.865,1264.47 988.857,1264.87 990.024,1264.87 M1008.98,1240.47 C1014.57,1240.47 1017.37,1242.87 1017.37,1247.69 C1017.37,1250.03 1016.69,1252.75 1015.32,1255.84 C1013.96,1258.94 1012.13,1261.3 1009.85,1262.92 C1004.84,1266.31 998.56,1268 991.008,1268 C985.404,1268 982.602,1265.59 982.602,1260.78 C982.602,1258.63 983.268,1255.96 984.602,1252.77 C985.935,1249.58 987.774,1247.17 990.117,1245.55 C995.138,1242.16 1001.42,1240.47 1008.98,1240.47"/>
<path class="Note" d="M1275.61,1277.37 C1277.5,1277.37 1281.45,1275.42 1287.48,1271.51 C1293.5,1267.61 1297.05,1264.99 1298.13,1263.65 C1299.2,1262.32 1299.74,1261.13 1299.74,1260.09 C1299.74,1259.05 1299.31,1258.12 1298.46,1257.31 C1297.61,1256.5 1296.64,1256.09 1295.53,1256.09 C1293.58,1256.09 1289.6,1258.06 1283.57,1262 C1277.55,1265.94 1274.01,1268.56 1272.97,1269.86 C1271.93,1271.16 1271.41,1272.33 1271.41,1273.37 C1271.41,1274.42 1271.82,1275.34 1272.63,1276.15 C1273.45,1276.97 1274.44,1277.37 1275.61,1277.37 M1294.56,1252.97 C1300.16,1252.97 1302.95,1255.37 1302.95,1260.19 C1302.95,1262.53 1302.27,1265.25 1300.91,1268.34 C1299.54,1271.44 1297.72,1273.8 1295.44,1275.42 C1290.43,1278.81 1284.15,1280.5 1276.59,1280.5 C1270.99,1280.5 1268.19,1278.09 1268.19,1273.28 C1268.19,1271.13 1268.86,1268.46 1270.19,1265.27 C1271.52,1262.08 1273.36,1259.67 1275.7,1258.05 C1280.72,1254.66 1287.01,1252.97 1294.56,1252.97"/>
<path class="Note" d="M555.153,315.467 C558.278,315.467 560.882,316.248 562.965,317.811 C565.049,319.373 566.09,321.618 566.09,324.545 C566.09,329.035 563.765,333.232 559.114,337.139 C554.463,341.045 549.465,342.998 544.121,342.998 C540.996,342.998 538.361,342.186 536.215,340.561 C534.194,338.8 533.184,336.587 533.184,333.92 C533.184,329.555 535.496,325.389 540.121,321.42 C544.746,317.451 549.757,315.467 555.153,315.467"/>
<path class="Note" d="M293.752,1789.87 C295.637,1789.87 299.593,1787.92 305.619,1784.01 C311.645,1780.11 315.195,1777.49 316.268,1776.16 C317.341,1774.82 317.877,1773.63 317.877,1772.59 C317.877,1771.55 317.453,1770.62 316.604,1769.81 C315.755,1769 314.778,1768.59 313.674,1768.59 C311.726,1768.59 307.739,1770.56 301.713,1774.5 C295.687,1778.44 292.153,1781.06 291.111,1782.36 C290.07,1783.66 289.549,1784.83 289.549,1785.87 C289.549,1786.92 289.958,1787.84 290.775,1788.66 C291.593,1789.47 292.585,1789.87 293.752,1789.87 M312.705,1765.47 C318.299,1765.47 321.096,1767.87 321.096,1772.69 C321.096,1775.03 320.413,1777.75 319.049,1780.84 C317.684,1783.94 315.861,1786.3 313.58,1787.92 C308.57,1791.31 302.288,1793 294.736,1793 C289.132,1793 286.33,1790.59 286.33,1785.78 C286.33,1783.63 286.997,1780.97 288.33,1777.77 C289.663,1774.58 291.502,1772.17 293.846,1770.55 C298.867,1767.16 305.153,1765.47 312.705,1765.47"/>
<path class="Note" d="M777.464,290.467 C780.589,290.467 783.193,291.248 785.276,292.811 C787.359,294.373 788.401,296.618 788.401,299.545 C788.401,304.035 786.076,308.232 781.425,312.139 C776.774,316.045 771.776,317.998 766.432,317.998 C763.307,317.998 760.672,317.186 758.526,315.561 C756.505,313.8 755.495,311.587 755.495,308.92 C755.495,304.555 757.807,300.389 762.432,296.42 C767.057,292.451 772.068,290.467 777.464,290.467"/>
<path class="Note" d="M1605.65,1265.47 C1608.77,1265.47 1611.38,1266.25 1613.46,1267.81 C1615.54,1269.37 1616.58,1271.62 1616.58,1274.55 C1616.58,1279.04 1614.26,1283.23 1609.61,1287.14 C1604.96,1291.05 1599.96,1293 1594.62,1293 C1591.49,1293 1588.85,1292.19 1586.71,1290.56 C1584.69,1288.8 1583.68,1286.59 1583.68,1283.92 C1583.68,1279.56 1585.99,1275.39 1590.62,1271.42 C1595.24,1267.45 1600.25,1265.47 1605.65,1265.47"/>
<path class="Note" d="M1780.59,1314.87 C1782.47,1314.87 1786.43,1312.92 1792.46,1309.01 C1798.48,1305.11 1802.03,1302.49 1803.1,1301.15 C1804.18,1299.82 1804.71,1298.63 1804.71,1297.59 C1804.71,1296.55 1804.29,1295.62 1803.44,1294.81 C1802.59,1294 1801.61,1293.59 1800.51,1293.59 C1798.56,1293.59 1794.58,1295.56 1788.55,1299.5 C1782.52,1303.44 1778.99,1306.06 1777.95,1307.36 C1776.91,1308.66 1776.39,1309.83 1776.39,1310.87 C1776.39,1311.92 1776.79,1312.84 1777.61,1313.65 C1778.43,1314.47 1779.42,1314.87 1780.59,1314.87 M1799.54,1290.47 C1805.14,1290.47 1807.93,1292.87 1807.93,1297.69 C1807.93,1300.03 1807.25,1302.75 1805.89,1305.84 C1804.52,1308.94 1802.7,1311.3 1800.42,1312.92 C1795.41,1316.31 1789.12,1318 1781.57,1318 C1775.97,1318 1773.17,1315.59 1773.17,1310.78 C1773.17,1308.63 1773.83,1305.96 1775.17,1302.77 C1776.5,1299.58 1778.34,1297.17 1780.68,1295.55 C1785.7,1292.16 1791.99,1290.47 1799.54,1290.47"/>
<path class="Note" d="M1470.36,277.967 C1473.48,277.967 1476.09,278.748 1478.17,280.311 C1480.25,281.873 1481.3,284.118 1481.3,287.045 C1481.3,291.535 1478.97,295.732 1474.32,299.639 C1469.67,303.545 1464.67,305.498 1459.33,305.498 C1456.2,305.498 1453.57,304.686 1451.42,303.061 C1449.4,301.3 1448.39,299.087 1448.39,296.42 C1448.39,292.055 1450.7,287.889 1455.33,283.92 C1459.95,279.951 1464.96,277.967 1470.36,277.967"/>
<path class="Note" d="M946.47,777.967 C949.595,777.967 952.199,778.748 954.282,780.311 C956.366,781.873 957.407,784.118 957.407,787.045 C957.407,791.535 955.082,795.733 950.431,799.639 C945.78,803.545 940.782,805.498 935.439,805.498 C932.314,805.498 929.678,804.686 927.532,803.061 C925.511,801.3 924.501,799.087 924.501,796.42 C924.501,792.056 926.814,787.889 931.439,783.92 C936.064,779.952 941.074,777.967 946.47,777.967"/>
<path class="Note" d="M1285.25,827.373 C1287.13,827.373 1291.09,825.42 1297.12,821.514 C1303.14,817.608 1306.69,814.988 1307.76,813.655 C1308.84,812.321 1309.37,811.134 1309.37,810.092 C1309.37,809.05 1308.95,808.123 1308.1,807.311 C1307.25,806.498 1306.27,806.092 1305.17,806.092 C1303.22,806.092 1299.24,808.061 1293.21,811.998 C1287.18,815.936 1283.65,818.556 1282.61,819.858 C1281.57,821.16 1281.04,822.332 1281.04,823.373 C1281.04,824.415 1281.45,825.342 1282.27,826.155 C1283.09,826.967 1284.08,827.373 1285.25,827.373 M1304.2,802.967 C1309.79,802.967 1312.59,805.373 1312.59,810.186 C1312.59,812.53 1311.91,815.248 1310.54,818.342 C1309.18,821.436 1307.36,823.795 1305.08,825.42 C1300.07,828.806 1293.78,830.498 1286.23,830.498 C1280.63,830.498 1277.83,828.092 1277.83,823.28 C1277.83,821.134 1278.49,818.465 1279.83,815.272 C1281.16,812.079 1283,809.67 1285.34,808.045 C1290.36,804.66 1296.65,802.967 1304.2,802.967"/>
<path class="Note" d="M636.35,789.873 C638.235,789.873 642.191,787.92 648.217,784.014 C654.243,780.108 657.793,777.488 658.866,776.155 C659.938,774.821 660.475,773.634 660.475,772.592 C660.475,771.55 660.05,770.623 659.201,769.811 C658.353,768.998 657.376,768.592 656.272,768.592 C654.324,768.592 650.337,770.561 644.311,774.498 C638.285,778.436 634.751,781.056 633.709,782.358 C632.668,783.66 632.147,784.832 632.147,785.873 C632.147,786.915 632.556,787.842 633.373,788.655 C634.191,789.467 635.183,789.873 636.35,789.873 M655.303,765.467 C660.897,765.467 663.694,767.873 663.694,772.686 C663.694,775.03 663.011,777.748 661.647,780.842 C660.282,783.936 658.459,786.295 656.178,787.92 C651.168,791.306 644.886,792.998 637.334,792.998 C631.73,792.998 628.928,790.592 628.928,785.78 C628.928,783.634 629.595,780.965 630.928,777.772 C632.261,774.579 634.1,772.17 636.444,770.545 C641.465,767.16 647.751,765.467 655.303,765.467"/>
<path class="Note" d="M1580.82,827.373 C1582.71,827.373 1586.66,825.42 1592.69,821.514 C1598.71,817.608 1602.26,814.988 1603.34,813.655 C1604.41,812.321 1604.95,811.134 1604.95,810.092 C1604.95,809.05 1604.52,808.123 1603.67,807.311 C1602.82,806.498 1601.85,806.092 1600.74,806.092 C1598.8,806.092 1594.81,808.061 1588.78,811.998 C1582.76,815.936 1579.22,818.556 1578.18,819.858 C1577.14,821.16 1576.62,822.332 1576.62,823.373 C1576.62,824.415 1577.03,825.342 1577.84,826.155 C1578.66,826.967 1579.65,827.373 1580.82,827.373 M1599.77,802.967 C1605.37,802.967 1608.16,805.373 1608.16,810.186 C1608.16,812.53 1607.48,815.248 1606.12,818.342 C1604.75,821.436 1602.93,823.795 1600.65,825.42 C1595.64,828.806 1589.36,830.498 1581.81,830.498 C1576.2,830.498 1573.4,828.092 1573.4,823.28 C1573.4,821.134 1574.07,818.465 1575.4,815.272 C1576.73,812.079 1578.57,809.67 1580.91,808.045 C1585.94,804.66 1592.22,802.967 1599.77,802.967"/>
<path class="Note" d="M533.723,765.467 C536.848,765.467 539.452,766.248 541.536,767.811 C543.619,769.373 544.661,771.618 544.661,774.545 C544.661,779.035 542.335,783.233 537.684,787.139 C533.033,791.045 528.036,792.998 522.692,792.998 C519.567,792.998 516.932,792.186 514.786,790.561 C512.765,788.8 511.755,786.587 511.755,783.92 C511.755,779.556 514.067,775.389 518.692,771.42 C523.317,767.452 528.327,765.467 533.723,765.467"/>
<path class="Note" d="M1861.94,815.467 C1865.07,815.467 1867.67,816.248 1869.75,817.811 C1871.84,819.373 1872.88,821.618 1872.88,824.545 C1872.88,829.035 1870.55,833.233 1865.9,837.139 C1861.25,841.045 1856.25,842.998 1850.91,842.998 C1847.78,842.998 1845.15,842.186 1843,840.561 C1840.98,838.801 1839.97,836.587 1839.97,833.92 C1839.97,829.556 1842.28,825.389 1846.91,821.42 C1851.53,817.452 1856.55,815.467 1861.94,815.467"/>
<path class="Note" d="M2039.05,790.467 C2042.18,790.467 2044.78,791.248 2046.87,792.811 C2048.95,794.373 2049.99,796.618 2049.99,799.545 C2049.99,804.035 2047.67,808.233 2043.02,812.139 C2038.36,816.045 2033.37,817.998 2028.02,817.998 C2024.9,817.998 2022.26,817.186 2020.12,815.561 C2018.1,813.8 2017.09,811.587 2017.09,808.92 C2017.09,804.556 2019.4,800.389 2024.02,796.42 C2028.65,792.452 2033.66,790.467 2039.05,790.467"/>
<path class="Note" d="M309.201,765.467 C312.326,765.467 314.93,766.248 317.014,767.811 C319.097,769.373 320.139,771.618 320.139,774.545 C320.139,779.035 317.813,783.233 313.162,787.139 C308.511,791.045 303.514,792.998 298.17,792.998 C295.045,792.998 292.41,792.186 290.264,790.561 C288.243,788.8 287.232,786.587 287.232,783.92 C287.232,779.556 289.545,775.389 294.17,771.42 C298.795,767.452 303.805,765.467 309.201,765.467"/>
<path class="Note" d="M2245.17,765.467 C2248.29,765.467 2250.9,766.248 2252.98,767.811 C2255.06,769.373 2256.11,771.618 2256.11,774.545 C2256.11,779.035 2253.78,783.233 2249.13,787.139 C2244.48,791.045 2239.48,792.998 2234.14,792.998 C2231.01,792.998 2228.38,792.186 2226.23,790.561 C2224.21,788.8 2223.2,786.587 2223.2,783.92 C2223.2,779.556 2225.51,775.389 2230.14,771.42 C2234.76,767.452 2239.77,765.467 2245.17,765.467"/>
<path class="Note" d="M2660.13,315.467 C2663.25,315.467 2665.86,316.248 2667.94,317.811 C2670.02,319.373 2671.06,321.618 2671.06,324.545 C2671.06,329.035 2668.74,333.232 2664.09,337.139 C2659.44,341.045 2654.44,342.998 2649.09,342.998 C2645.97,342.998 2643.33,342.186 2641.19,340.561 C2639.17,338.8 2638.16,336.587 2638.16,333.92 C2638.16,329.555 2640.47,325.389 2645.09,321.42 C2649.72,317.451 2654.73,315.467 2660.13,315.467"/>
<path class="Note" d="M2469.69,765.467 C2472.82,765.467 2475.42,766.248 2477.5,767.811 C2479.59,769.373 2480.63,771.618 2480.63,774.545 C2480.63,779.035 2478.3,783.233 2473.65,787.139 C2469,791.045 2464,792.998 2458.66,792.998 C2455.53,792.998 2452.9,792.186 2450.75,790.561 C2448.73,788.8 2447.72,786.587 2447.72,783.92 C2447.72,779.556 2450.03,775.389 2454.66,771.42 C2459.28,767.452 2464.29,765.467 2469.69,765.467"/>
<path class="Note" d="M2466.82,340.467 C2469.94,340.467 2472.54,341.248 2474.63,342.811 C2476.71,344.373 2477.75,346.618 2477.75,349.545 C2477.75,354.035 2475.43,358.232 2470.78,362.139 C2466.13,366.045 2461.13,367.998 2455.78,367.998 C2452.66,367.998 2450.02,367.186 2447.88,365.561 C2445.86,363.8 2444.85,361.587 2444.85,358.92 C2444.85,354.555 2447.16,350.389 2451.78,346.42 C2456.41,342.451 2461.42,340.467 2466.82,340.467"/>
<path class="Note" d="M2572.32,789.873 C2574.2,789.873 2578.16,787.92 2584.18,784.014 C2590.21,780.108 2593.76,777.488 2594.83,776.155 C2595.91,774.821 2596.44,773.634 2596.44,772.592 C2596.44,771.55 2596.02,770.623 2595.17,769.811 C2594.32,768.998 2593.34,768.592 2592.24,768.592 C2590.29,768.592 2586.3,770.561 2580.28,774.498 C2574.25,778.436 2570.72,781.056 2569.68,782.358 C2568.63,783.66 2568.11,784.832 2568.11,785.873 C2568.11,786.915 2568.52,787.842 2569.34,788.655 C2570.16,789.467 2571.15,789.873 2572.32,789.873 M2591.27,765.467 C2596.86,765.467 2599.66,767.873 2599.66,772.686 C2599.66,775.03 2598.98,777.748 2597.61,780.842 C2596.25,783.936 2594.43,786.295 2592.15,787.92 C2587.13,791.306 2580.85,792.998 2573.3,792.998 C2567.7,792.998 2564.9,790.592 2564.9,785.78 C2564.9,783.634 2565.56,780.965 2566.9,777.772 C2568.23,774.579 2570.07,772.17 2572.41,770.545 C2577.43,767.16 2583.72,765.467 2591.27,765.467"/>
<path class="Note" d="M2161.4,314.873 C2163.29,314.873 2167.24,312.92 2173.27,309.014 C2179.29,305.107 2182.84,302.488 2183.92,301.154 C2184.99,299.821 2185.52,298.634 2185.52,297.592 C2185.52,296.55 2185.1,295.623 2184.25,294.811 C2183.4,293.998 2182.43,293.592 2181.32,293.592 C2179.37,293.592 2175.39,295.561 2169.36,299.498 C2163.33,303.436 2159.8,306.055 2158.76,307.357 C2157.72,308.66 2157.2,309.831 2157.2,310.873 C2157.2,311.915 2157.61,312.842 2158.42,313.654 C2159.24,314.467 2160.23,314.873 2161.4,314.873 M2180.35,290.467 C2185.95,290.467 2188.74,292.873 2188.74,297.686 C2188.74,300.029 2188.06,302.748 2186.7,305.842 C2185.33,308.936 2183.51,311.295 2181.23,312.92 C2176.22,316.305 2169.94,317.998 2162.38,317.998 C2156.78,317.998 2153.98,315.592 2153.98,310.779 C2153.98,308.634 2154.64,305.964 2155.98,302.772 C2157.31,299.579 2159.15,297.17 2161.49,295.545 C2166.51,292.16 2172.8,290.467 2180.35,290.467"/>
<path class="Note" d="M1841.53,314.873 C1843.42,314.873 1847.37,312.92 1853.4,309.014 C1859.42,305.107 1862.97,302.488 1864.05,301.154 C1865.12,299.821 1865.66,298.634 1865.66,297.592 C1865.66,296.55 1865.23,295.623 1864.38,294.811 C1863.53,293.998 1862.56,293.592 1861.45,293.592 C1859.51,293.592 1855.52,295.561 1849.49,299.498 C1843.47,303.436 1839.93,306.055 1838.89,307.357 C1837.85,308.66 1837.33,309.831 1837.33,310.873 C1837.33,311.915 1837.74,312.842 1838.55,313.654 C1839.37,314.467 1840.36,314.873 1841.53,314.873 M1860.48,290.467 C1866.08,290.467 1868.87,292.873 1868.87,297.686 C1868.87,300.029 1868.19,302.748 1866.83,305.842 C1865.46,308.936 1863.64,311.295 1861.36,312.92 C1856.35,316.305 1850.07,317.998 1842.52,317.998 C1836.91,317.998 1834.11,315.592 1834.11,310.779 C1834.11,308.634 1834.78,305.964 1836.11,302.772 C1837.44,299.579 1839.28,297.17 1841.62,295.545 C1846.65,292.16 1852.93,290.467 1860.48,290.467"/>
<path class="Note" d="M2552.4,1314.87 C2554.29,1314.87 2558.24,1312.92 2564.27,1309.01 C2570.29,1305.11 2573.84,1302.49 2574.92,1301.15 C2575.99,1299.82 2576.53,1298.63 2576.53,1297.59 C2576.53,1296.55 2576.1,1295.62 2575.25,1294.81 C2574.4,1294 2573.43,1293.59 2572.32,1293.59 C2570.38,1293.59 2566.39,1295.56 2560.36,1299.5 C2554.34,1303.44 2550.8,1306.06 2549.76,1307.36 C2548.72,1308.66 2548.2,1309.83 2548.2,1310.87 C2548.2,1311.92 2548.61,1312.84 2549.42,1313.65 C2550.24,1314.47 2551.23,1314.87 2552.4,1314.87 M2571.35,1290.47 C2576.95,1290.47 2579.74,1292.87 2579.74,1297.69 C2579.74,1300.03 2579.06,1302.75 2577.7,1305.84 C2576.33,1308.94 2574.51,1311.3 2572.23,1312.92 C2567.22,1316.31 2560.94,1318 2553.39,1318 C2547.78,1318 2544.98,1315.59 2544.98,1310.78 C2544.98,1308.63 2545.65,1305.96 2546.98,1302.77 C2548.31,1299.58 2550.15,1297.17 2552.49,1295.55 C2557.52,1292.16 2563.8,1290.47 2571.35,1290.47"/>
<path class="Note" d="M1663.67,277.967 C1666.79,277.967 1669.4,278.748 1671.48,280.311 C1673.57,281.873 1674.61,284.118 1674.61,287.045 C1674.61,291.535 1672.28,295.732 1667.63,299.639 C1662.98,303.545 1657.98,305.498 1652.64,305.498 C1649.51,305.498 1646.88,304.686 1644.73,303.061 C1642.71,301.3 1641.7,299.087 1641.7,296.42 C1641.7,292.055 1644.01,287.889 1648.64,283.92 C1653.26,279.951 1658.27,277.967 1663.67,277.967"/>
<path class="Note" d="M309.201,1227.97 C312.326,1227.97 314.93,1228.75 317.014,1230.31 C319.097,1231.87 320.139,1234.12 320.139,1237.05 C320.139,1241.54 317.813,1245.73 313.162,1249.64 C308.511,1253.55 303.514,1255.5 298.17,1255.5 C295.045,1255.5 292.41,1254.69 290.264,1253.06 C288.243,1251.3 287.232,1249.09 287.232,1246.42 C287.232,1242.06 289.545,1237.89 294.17,1233.92 C298.795,1229.95 303.805,1227.97 309.201,1227.97"/>
<path class="Note" d="M499.592,1227.97 C502.717,1227.97 505.322,1228.75 507.405,1230.31 C509.488,1231.87 510.53,1234.12 510.53,1237.05 C510.53,1241.54 508.204,1245.73 503.553,1249.64 C498.902,1253.55 493.905,1255.5 488.561,1255.5 C485.436,1255.5 482.801,1254.69 480.655,1253.06 C478.634,1251.3 477.624,1249.09 477.624,1246.42 C477.624,1242.06 479.936,1237.89 484.561,1233.92 C489.186,1229.95 494.197,1227.97 499.592,1227.97"/>
<path class="Clef" d="M203.623,1848.86 L203.623,1846.72 C203.56,1845.61 203.399,1843.89 203.139,1841.55 C199.889,1842.07 196.993,1842.33 194.451,1842.33 C185.337,1842.33 177.605,1838.73 171.256,1831.53 C164.907,1824.33 161.732,1815.75 161.732,1805.8 C161.732,1803.13 162.253,1799.92 163.295,1796.18 C164.337,1792.43 165.297,1789.93 166.178,1788.66 C167.058,1787.38 168.378,1785.16 170.139,1781.97 C170.659,1780.99 172.352,1778.84 175.217,1775.51 C175.738,1774.81 176.193,1774.22 176.584,1773.76 C176.975,1773.31 177.607,1772.49 178.482,1771.32 C179.357,1770.15 180.3,1769.06 181.31,1768.05 C182.321,1767.04 183.217,1766.06 183.998,1765.12 C184.779,1764.17 185.498,1763.38 186.154,1762.73 C183.81,1754.98 182.378,1749.03 181.857,1744.86 C181.337,1740.69 181.076,1735.58 181.076,1729.52 C181.076,1723.47 182.378,1717.96 184.982,1713.01 C187.514,1707.88 191.06,1703.68 195.623,1700.42 C195.883,1700.22 196.225,1700.12 196.646,1700.12 C197.068,1700.12 197.378,1700.22 197.576,1700.42 C201.087,1704.65 204.128,1710.15 206.701,1716.92 C209.274,1723.69 210.56,1730.03 210.56,1735.92 C210.56,1741.82 209.066,1747.5 206.076,1752.97 C202.691,1758.76 198.326,1764.75 192.982,1770.94 C194.347,1775.23 196.17,1781.96 198.451,1791.14 L199.045,1791.14 C199.305,1791.08 199.529,1791.05 199.717,1791.05 C207.081,1791.05 213.089,1793.63 217.74,1798.81 C222.391,1803.99 224.717,1809.96 224.717,1816.73 C224.717,1825.13 221.238,1831.9 214.279,1837.05 C212.258,1838.55 209.878,1839.72 207.139,1840.56 C207.472,1844.79 207.639,1847.61 207.639,1849.01 C207.639,1850.41 207.571,1852.9 207.435,1856.48 C207.373,1862.6 205.29,1867.84 201.185,1872.2 C197.081,1876.57 192.394,1878.75 187.123,1878.75 C181.852,1878.75 177.36,1876.88 173.646,1873.13 C169.933,1869.39 168.076,1864.85 168.076,1859.51 C168.076,1856.71 169.154,1854.33 171.31,1852.37 C173.519,1850.43 176.006,1849.45 178.771,1849.45 C181.537,1849.45 183.8,1850.46 185.56,1852.48 C187.383,1854.37 188.295,1856.64 188.295,1859.31 C188.295,1861.98 187.383,1864.22 185.56,1866.05 C183.738,1867.87 181.555,1868.78 179.014,1868.78 C177.972,1868.78 176.967,1868.59 175.998,1868.2 C178.863,1872.43 182.54,1874.55 187.029,1874.55 C191.519,1874.55 195.36,1872.69 198.553,1868.98 C201.745,1865.28 203.342,1860.91 203.342,1855.89 L203.623,1848.86 M206.748,1836.56 C210.133,1835.32 212.821,1833.12 214.81,1829.97 C216.8,1826.81 217.795,1823.67 217.795,1820.55 C217.795,1815.92 216.199,1811.79 213.006,1808.14 C209.813,1804.49 205.774,1802.44 200.889,1801.98 C203.691,1815.72 205.644,1827.25 206.748,1836.56 M168.967,1814 C168.967,1820.45 171.537,1826.08 176.678,1830.9 C181.818,1835.72 187.842,1838.12 194.748,1838.12 C197.477,1838.12 200.144,1837.93 202.748,1837.53 C201.706,1827.63 199.654,1815.79 196.592,1801.98 C192.758,1802.38 189.782,1803.7 187.662,1805.94 C185.542,1808.19 184.482,1810.74 184.482,1813.61 C184.482,1818.56 187.123,1822.56 192.404,1825.62 C192.852,1825.88 193.076,1826.32 193.076,1826.94 C193.076,1827.56 192.865,1828.1 192.443,1828.55 C192.021,1829.01 191.649,1829.23 191.326,1829.23 C191.003,1829.23 190.581,1829.17 190.06,1829.05 C182.435,1824.88 178.623,1818.59 178.623,1810.19 C178.623,1806.22 180.024,1802.41 182.826,1798.76 C185.753,1795.12 189.56,1792.78 194.248,1791.73 C192.425,1784.44 190.93,1778.74 189.764,1774.64 C180.847,1784.67 175.31,1792.09 173.154,1796.91 C170.363,1803.16 168.967,1808.85 168.967,1814 M201.576,1714.69 C196.691,1717.09 192.834,1720.57 190.006,1725.13 C187.178,1729.69 185.764,1734.47 185.764,1739.48 C185.764,1744.49 186.935,1750.97 189.279,1758.92 C193.967,1753.25 197.514,1747.95 199.92,1743 C202.326,1738.05 203.529,1733.15 203.529,1728.3 C203.529,1723.45 202.878,1718.92 201.576,1714.69"/>
<path class="Clef" d="M203.623,423.858 L203.623,421.717 C203.56,420.613 203.399,418.889 203.139,416.545 C199.889,417.066 196.993,417.326 194.451,417.326 C185.337,417.326 177.605,413.727 171.256,406.529 C164.907,399.331 161.732,390.753 161.732,380.795 C161.732,378.128 162.253,374.923 163.295,371.178 C164.337,367.433 165.297,364.925 166.178,363.654 C167.058,362.384 168.378,360.154 170.139,356.967 C170.659,355.988 172.352,353.837 175.217,350.514 C175.738,349.805 176.193,349.222 176.584,348.764 C176.975,348.305 177.607,347.49 178.482,346.318 C179.357,345.147 180.3,344.055 181.31,343.045 C182.321,342.035 183.217,341.058 183.998,340.115 C184.779,339.173 185.498,338.378 186.154,337.733 C183.81,329.983 182.378,324.024 181.857,319.858 C181.337,315.691 181.076,310.579 181.076,304.522 C181.076,298.464 182.378,292.962 184.982,288.014 C187.514,282.878 191.06,278.68 195.623,275.42 C195.883,275.222 196.225,275.123 196.646,275.123 C197.068,275.123 197.378,275.222 197.576,275.42 C201.087,279.649 204.128,285.149 206.701,291.92 C209.274,298.691 210.56,305.024 210.56,310.92 C210.56,316.816 209.066,322.498 206.076,327.967 C202.691,333.759 198.326,339.748 192.982,345.936 C194.347,350.227 196.17,356.962 198.451,366.139 L199.045,366.139 C199.305,366.076 199.529,366.045 199.717,366.045 C207.081,366.045 213.089,368.634 217.74,373.811 C222.391,378.988 224.717,384.962 224.717,391.733 C224.717,400.128 221.238,406.899 214.279,412.045 C212.258,413.545 209.878,414.717 207.139,415.561 C207.472,419.79 207.639,422.605 207.639,424.006 C207.639,425.407 207.571,427.899 207.435,431.483 C207.373,437.597 205.29,442.837 201.185,447.201 C197.081,451.566 192.394,453.748 187.123,453.748 C181.852,453.748 177.36,451.876 173.646,448.131 C169.933,444.386 168.076,439.847 168.076,434.514 C168.076,431.712 169.154,429.331 171.31,427.373 C173.519,425.425 176.006,424.451 178.771,424.451 C181.537,424.451 183.8,425.462 185.56,427.483 C187.383,429.368 188.295,431.644 188.295,434.311 C188.295,436.977 187.383,439.222 185.56,441.045 C183.738,442.868 181.555,443.779 179.014,443.779 C177.972,443.779 176.967,443.587 175.998,443.201 C178.863,447.43 182.54,449.545 187.029,449.545 C191.519,449.545 195.36,447.691 198.553,443.983 C201.745,440.274 203.342,435.91 203.342,430.889 L203.623,423.858 M206.748,411.561 C210.133,410.321 212.821,408.123 214.81,404.967 C216.8,401.811 217.795,398.67 217.795,395.545 C217.795,390.92 216.199,386.785 213.006,383.139 C209.813,379.493 205.774,377.441 200.889,376.983 C203.691,390.722 205.644,402.248 206.748,411.561 M168.967,388.998 C168.967,395.446 171.537,401.079 176.678,405.897 C181.818,410.714 187.842,413.123 194.748,413.123 C197.477,413.123 200.144,412.925 202.748,412.529 C201.706,402.634 199.654,390.785 196.592,376.983 C192.758,377.378 189.782,378.699 187.662,380.943 C185.542,383.188 184.482,385.743 184.482,388.608 C184.482,393.555 187.123,397.561 192.404,400.623 C192.852,400.884 193.076,401.324 193.076,401.943 C193.076,402.563 192.865,403.1 192.443,403.553 C192.021,404.006 191.649,404.233 191.326,404.233 C191.003,404.233 190.581,404.17 190.06,404.045 C182.435,399.878 178.623,393.592 178.623,385.186 C178.623,381.217 180.024,377.41 182.826,373.764 C185.753,370.118 189.56,367.774 194.248,366.733 C192.425,359.441 190.93,353.743 189.764,349.639 C180.847,359.67 175.31,367.092 173.154,371.904 C170.363,378.154 168.967,383.852 168.967,388.998 M201.576,289.686 C196.691,292.092 192.834,295.574 190.006,300.131 C187.178,304.688 185.764,309.472 185.764,314.483 C185.764,319.493 186.935,325.972 189.279,333.92 C193.967,328.253 197.514,322.946 199.92,317.998 C202.326,313.05 203.529,308.152 203.529,303.303 C203.529,298.454 202.878,293.915 201.576,289.686"/>
<path class="Clef" d="M203.623,1373.86 L203.623,1371.72 C203.56,1370.61 203.399,1368.89 203.139,1366.55 C199.889,1367.07 196.993,1367.33 194.451,1367.33 C185.337,1367.33 177.605,1363.73 171.256,1356.53 C164.907,1349.33 161.732,1340.75 161.732,1330.8 C161.732,1328.13 162.253,1324.92 163.295,1321.18 C164.337,1317.43 165.297,1314.93 166.178,1313.65 C167.058,1312.38 168.378,1310.15 170.139,1306.97 C170.659,1305.99 172.352,1303.84 175.217,1300.51 C175.738,1299.81 176.193,1299.22 176.584,1298.76 C176.975,1298.31 177.607,1297.49 178.482,1296.32 C179.357,1295.15 180.3,1294.06 181.31,1293.05 C182.321,1292.04 183.217,1291.06 183.998,1290.12 C184.779,1289.17 185.498,1288.38 186.154,1287.73 C183.81,1279.98 182.378,1274.02 181.857,1269.86 C181.337,1265.69 181.076,1260.58 181.076,1254.52 C181.076,1248.46 182.378,1242.96 184.982,1238.01 C187.514,1232.88 191.06,1228.68 195.623,1225.42 C195.883,1225.22 196.225,1225.12 196.646,1225.12 C197.068,1225.12 197.378,1225.22 197.576,1225.42 C201.087,1229.65 204.128,1235.15 206.701,1241.92 C209.274,1248.69 210.56,1255.02 210.56,1260.92 C210.56,1266.82 209.066,1272.5 206.076,1277.97 C202.691,1283.76 198.326,1289.75 192.982,1295.94 C194.347,1300.23 196.17,1306.96 198.451,1316.14 L199.045,1316.14 C199.305,1316.08 199.529,1316.05 199.717,1316.05 C207.081,1316.05 213.089,1318.63 217.74,1323.81 C222.391,1328.99 224.717,1334.96 224.717,1341.73 C224.717,1350.13 221.238,1356.9 214.279,1362.05 C212.258,1363.55 209.878,1364.72 207.139,1365.56 C207.472,1369.79 207.639,1372.61 207.639,1374.01 C207.639,1375.41 207.571,1377.9 207.435,1381.48 C207.373,1387.6 205.29,1392.84 201.185,1397.2 C197.081,1401.57 192.394,1403.75 187.123,1403.75 C181.852,1403.75 177.36,1401.88 173.646,1398.13 C169.933,1394.39 168.076,1389.85 168.076,1384.51 C168.076,1381.71 169.154,1379.33 171.31,1377.37 C173.519,1375.43 176.006,1374.45 178.771,1374.45 C181.537,1374.45 183.8,1375.46 185.56,1377.48 C187.383,1379.37 188.295,1381.64 188.295,1384.31 C188.295,1386.98 187.383,1389.22 185.56,1391.05 C183.738,1392.87 181.555,1393.78 179.014,1393.78 C177.972,1393.78 176.967,1393.59 175.998,1393.2 C178.863,1397.43 182.54,1399.55 187.029,1399.55 C191.519,1399.55 195.36,1397.69 198.553,1393.98 C201.745,1390.27 203.342,1385.91 203.342,1380.89 L203.623,1373.86 M206.748,1361.56 C210.133,1360.32 212.821,1358.12 214.81,1354.97 C216.8,1351.81 217.795,1348.67 217.795,1345.55 C217.795,1340.92 216.199,1336.79 213.006,1333.14 C209.813,1329.49 205.774,1327.44 200.889,1326.98 C203.691,1340.72 205.644,1352.25 206.748,1361.56 M168.967,1339 C168.967,1345.45 171.537,1351.08 176.678,1355.9 C181.818,1360.71 187.842,1363.12 194.748,1363.12 C197.477,1363.12 200.144,1362.93 202.748,1362.53 C201.706,1352.63 199.654,1340.79 196.592,1326.98 C192.758,1327.38 189.782,1328.7 187.662,1330.94 C185.542,1333.19 184.482,1335.74 184.482,1338.61 C184.482,1343.56 187.123,1347.56 192.404,1350.62 C192.852,1350.88 193.076,1351.32 193.076,1351.94 C193.076,1352.56 192.865,1353.1 192.443,1353.55 C192.021,1354.01 191.649,1354.23 191.326,1354.23 C191.003,1354.23 190.581,1354.17 190.06,1354.05 C182.435,1349.88 178.623,1343.59 178.623,1335.19 C178.623,1331.22 180.024,1327.41 182.826,1323.76 C185.753,1320.12 189.56,1317.77 194.248,1316.73 C192.425,1309.44 190.93,1303.74 189.764,1299.64 C180.847,1309.67 175.31,1317.09 173.154,1321.9 C170.363,1328.15 168.967,1333.85 168.967,1339 M201.576,1239.69 C196.691,1242.09 192.834,1245.57 190.006,1250.13 C187.178,1254.69 185.764,1259.47 185.764,1264.48 C185.764,1269.49 186.935,1275.97 189.279,1283.92 C193.967,1278.25 197.514,1272.95 199.92,1268 C202.326,1263.05 203.529,1258.15 203.529,1253.3 C203.529,1248.45 202.878,1243.92 201.576,1239.69"/>
<path class="Clef" d="M203.623,898.858 L203.623,896.717 C203.56,895.613 203.399,893.889 203.139,891.545 C199.889,892.066 196.993,892.327 194.451,892.327 C185.337,892.327 177.605,888.728 171.256,881.53 C164.907,874.332 161.732,865.754 161.732,855.795 C161.732,853.129 162.253,849.923 163.295,846.178 C164.337,842.433 165.297,839.926 166.178,838.655 C167.058,837.384 168.378,835.155 170.139,831.967 C170.659,830.988 172.352,828.837 175.217,825.514 C175.738,824.806 176.193,824.222 176.584,823.764 C176.975,823.306 177.607,822.491 178.482,821.319 C179.357,820.147 180.3,819.056 181.31,818.045 C182.321,817.035 183.217,816.058 183.998,815.116 C184.779,814.173 185.498,813.379 186.154,812.733 C183.81,804.983 182.378,799.024 181.857,794.858 C181.337,790.691 181.076,785.579 181.076,779.522 C181.076,773.465 182.378,767.962 184.982,763.014 C187.514,757.879 191.06,753.681 195.623,750.42 C195.883,750.222 196.225,750.123 196.646,750.123 C197.068,750.123 197.378,750.222 197.576,750.42 C201.087,754.649 204.128,760.149 206.701,766.92 C209.274,773.691 210.56,780.024 210.56,785.92 C210.56,791.816 209.066,797.498 206.076,802.967 C202.691,808.759 198.326,814.748 192.982,820.936 C194.347,825.228 196.17,831.962 198.451,841.139 L199.045,841.139 C199.305,841.077 199.529,841.045 199.717,841.045 C207.081,841.045 213.089,843.634 217.74,848.811 C222.391,853.988 224.717,859.962 224.717,866.733 C224.717,875.129 221.238,881.899 214.279,887.045 C212.258,888.545 209.878,889.717 207.139,890.561 C207.472,894.79 207.639,897.605 207.639,899.006 C207.639,900.407 207.571,902.899 207.435,906.483 C207.373,912.597 205.29,917.837 201.185,922.202 C197.081,926.566 192.394,928.748 187.123,928.748 C181.852,928.748 177.36,926.876 173.646,923.131 C169.933,919.386 168.076,914.847 168.076,909.514 C168.076,906.712 169.154,904.332 171.31,902.373 C173.519,900.426 176.006,899.452 178.771,899.452 C181.537,899.452 183.8,900.462 185.56,902.483 C187.383,904.368 188.295,906.644 188.295,909.311 C188.295,911.978 187.383,914.222 185.56,916.045 C183.738,917.868 181.555,918.78 179.014,918.78 C177.972,918.78 176.967,918.587 175.998,918.202 C178.863,922.431 182.54,924.545 187.029,924.545 C191.519,924.545 195.36,922.691 198.553,918.983 C201.745,915.274 203.342,910.91 203.342,905.889 L203.623,898.858 M206.748,886.561 C210.133,885.321 212.821,883.123 214.81,879.967 C216.8,876.811 217.795,873.67 217.795,870.545 C217.795,865.92 216.199,861.785 213.006,858.139 C209.813,854.493 205.774,852.441 200.889,851.983 C203.691,865.722 205.644,877.248 206.748,886.561 M168.967,863.998 C168.967,870.446 171.537,876.079 176.678,880.897 C181.818,885.715 187.842,888.123 194.748,888.123 C197.477,888.123 200.144,887.926 202.748,887.53 C201.706,877.634 199.654,865.785 196.592,851.983 C192.758,852.379 189.782,853.699 187.662,855.944 C185.542,858.189 184.482,860.743 184.482,863.608 C184.482,868.556 187.123,872.561 192.404,875.623 C192.852,875.884 193.076,876.324 193.076,876.944 C193.076,877.564 192.865,878.1 192.443,878.553 C192.021,879.006 191.649,879.233 191.326,879.233 C191.003,879.233 190.581,879.17 190.06,879.045 C182.435,874.879 178.623,868.592 178.623,860.186 C178.623,856.217 180.024,852.41 182.826,848.764 C185.753,845.118 189.56,842.774 194.248,841.733 C192.425,834.441 190.93,828.743 189.764,824.639 C180.847,834.67 175.31,842.092 173.154,846.905 C170.363,853.155 168.967,858.853 168.967,863.998 M201.576,764.686 C196.691,767.092 192.834,770.574 190.006,775.131 C187.178,779.689 185.764,784.472 185.764,789.483 C185.764,794.493 186.935,800.972 189.279,808.92 C193.967,803.254 197.514,797.946 199.92,792.998 C202.326,788.051 203.529,783.152 203.529,778.303 C203.529,773.454 202.878,768.915 201.576,764.686"/>
<path class="TimeSig" d="M273.021,317.912 C274.516,317.912 275.949,317.686 277.318,317.232 C278.688,316.779 279.665,316.553 280.248,316.553 C280.831,316.553 281.222,316.907 281.42,317.615 C281.42,317.688 281.352,317.886 281.217,318.209 L252.811,351.225 L269.498,351.225 L269.498,338.131 C269.498,336.506 270.446,335.334 272.342,334.615 C274.29,333.897 276.503,331.001 278.982,325.928 C279.17,325.532 279.462,325.334 279.857,325.334 C280.639,325.334 281.092,325.792 281.217,326.709 L281.217,351.225 L288.357,351.225 C289.264,351.225 289.751,351.712 289.818,352.686 C289.886,353.66 289.399,354.147 288.357,354.147 L281.217,354.147 L281.217,354.928 C281.217,357.532 281.868,359.746 283.17,361.568 C284.67,363.391 286.43,364.303 288.451,364.303 C289.232,364.303 289.623,364.693 289.623,365.475 C289.623,366.256 289.087,366.647 288.014,366.647 C286.941,366.647 284.938,366.436 282.006,366.014 C279.074,365.592 276.811,365.381 275.217,365.381 C273.623,365.381 271.41,365.592 268.576,366.014 C265.743,366.436 263.613,366.647 262.186,366.647 C261.404,366.647 261.014,366.256 261.014,365.475 C261.014,364.693 261.404,364.303 262.186,364.303 C264.196,364.303 265.951,363.391 267.451,361.568 C268.816,359.683 269.498,357.469 269.498,354.928 L269.498,354.147 L252.811,354.147 C251.956,354.147 251.219,353.92 250.6,353.467 C249.98,353.014 249.67,352.592 249.67,352.201 C249.67,351.811 250.485,350.639 252.115,348.686 C253.745,346.732 256.074,342.972 259.1,337.404 C262.126,331.837 263.639,325.438 263.639,318.209 C263.639,317.167 264.097,316.647 265.014,316.647 C265.212,316.647 265.521,316.712 265.943,316.842 C266.365,316.972 267.277,317.183 268.678,317.475 C270.079,317.766 271.527,317.912 273.021,317.912"/>
<path class="TimeSig" d="M273.021,368.084 C274.516,368.084 275.949,367.858 277.318,367.404 C278.688,366.951 279.665,366.725 280.248,366.725 C280.831,366.725 281.222,367.079 281.42,367.787 C281.42,367.86 281.352,368.058 281.217,368.381 L252.811,401.397 L269.498,401.397 L269.498,388.303 C269.498,386.678 270.446,385.506 272.342,384.787 C274.29,384.068 276.503,381.173 278.982,376.1 C279.17,375.704 279.462,375.506 279.857,375.506 C280.639,375.506 281.092,375.964 281.217,376.881 L281.217,401.397 L288.357,401.397 C289.264,401.397 289.751,401.884 289.818,402.858 C289.886,403.831 289.399,404.318 288.357,404.318 L281.217,404.318 L281.217,405.1 C281.217,407.704 281.868,409.917 283.17,411.74 C284.67,413.563 286.43,414.475 288.451,414.475 C289.232,414.475 289.623,414.865 289.623,415.647 C289.623,416.428 289.087,416.818 288.014,416.818 C286.941,416.818 284.938,416.608 282.006,416.186 C279.074,415.764 276.811,415.553 275.217,415.553 C273.623,415.553 271.41,415.764 268.576,416.186 C265.743,416.608 263.613,416.818 262.186,416.818 C261.404,416.818 261.014,416.428 261.014,415.647 C261.014,414.865 261.404,414.475 262.186,414.475 C264.196,414.475 265.951,413.563 267.451,411.74 C268.816,409.855 269.498,407.641 269.498,405.1 L269.498,404.318 L252.811,404.318 C251.956,404.318 251.219,404.092 250.6,403.639 C249.98,403.186 249.67,402.764 249.67,402.373 C249.67,401.983 250.485,400.811 252.115,398.858 C253.745,396.904 256.074,393.144 259.1,387.576 C262.126,382.009 263.639,375.61 263.639,368.381 C263.639,367.339 264.097,366.818 265.014,366.818 C265.212,366.818 265.521,366.884 265.943,367.014 C266.365,367.144 267.277,367.355 268.678,367.647 C270.079,367.938 271.527,368.084 273.021,368.084"/>
<path class="Rest" d="M408.514,1791.73 L372.967,1791.73 C372.311,1791.73 371.983,1791.41 371.983,1790.75 L371.983,1777.08 C371.983,1776.43 372.311,1776.11 372.967,1776.11 L408.514,1776.11 C409.16,1776.11 409.483,1776.43 409.483,1777.08 L409.483,1790.75 C409.483,1791.41 409.16,1791.73 408.514,1791.73"/>
<path class="NoteDot" d="M1818.3,1308.24 C1817.19,1307.13 1816.64,1305.8 1816.64,1304.23 C1816.64,1302.67 1817.19,1301.33 1818.3,1300.23 C1819.41,1299.12 1820.74,1298.56 1822.31,1298.56 C1823.87,1298.56 1825.2,1299.12 1826.31,1300.23 C1827.41,1301.33 1827.96,1302.67 1827.96,1304.23 C1827.96,1305.8 1827.41,1307.13 1826.31,1308.24 C1825.2,1309.35 1823.87,1309.9 1822.31,1309.9 C1820.74,1309.9 1819.41,1309.35 1818.3,1308.24"/>
<path class="NoteDot" d="M798.823,308.24 C797.714,307.131 797.159,305.795 797.159,304.232 C797.159,302.67 797.714,301.334 798.823,300.225 C799.932,299.115 801.268,298.561 802.831,298.561 C804.393,298.561 805.727,299.115 806.831,300.225 C807.935,301.334 808.487,302.67 808.487,304.232 C808.487,305.795 807.935,307.131 806.831,308.24 C805.727,309.35 804.393,309.904 802.831,309.904 C801.268,309.904 799.932,309.35 798.823,308.24"/>
<path class="NoteDot" d="M330.561,783.241 C329.451,782.131 328.897,780.795 328.897,779.233 C328.897,777.67 329.451,776.334 330.561,775.225 C331.67,774.116 333.006,773.561 334.568,773.561 C336.131,773.561 337.464,774.116 338.568,775.225 C339.673,776.334 340.225,777.67 340.225,779.233 C340.225,780.795 339.673,782.131 338.568,783.241 C337.464,784.35 336.131,784.905 334.568,784.905 C333.006,784.905 331.67,784.35 330.561,783.241"/>
<path class="NoteDot" d="M2266.53,783.241 C2265.42,782.131 2264.86,780.795 2264.86,779.233 C2264.86,777.67 2265.42,776.334 2266.53,775.225 C2267.64,774.116 2268.97,773.561 2270.54,773.561 C2272.1,773.561 2273.43,774.116 2274.54,775.225 C2275.64,776.334 2276.19,777.67 2276.19,779.233 C2276.19,780.795 2275.64,782.131 2274.54,783.241 C2273.43,784.35 2272.1,784.905 2270.54,784.905 C2268.97,784.905 2267.64,784.35 2266.53,783.241"/>
</svg>
