<?xml version="1.0" encoding="UTF-8" standalone="no"?>
<svg width="2977.2px" height="4208.4px" viewBox="0 0 2977.2 4208.4"
 xmlns="http://www.w3.org/2000/svg" xmlns:xlink="http://www.w3.org/1999/xlink" version="1.2" baseProfile="tiny">
<title>C_Major_Scale_Patterns_18.mscx</title>
<desc>Generated by MuseScore Studio 4.3.1</desc>
<path class="" fill="#ffffff" fill-rule="evenodd" d="M0,0 L2977.2,0 L2977.2,4208.4 L0,4208.4 L0,0 "/>
<polyline class="StaffLines" fill="none" stroke="#000000" stroke-width="2.00" stroke-linejoin="bevel" points="141.732,566.733 2835.47,566.733"/>
<polyline class="StaffLines" fill="none" stroke="#000000" stroke-width="2.00" stroke-linejoin="bevel" points="141.732,591.733 2835.47,591.733"/>
<polyline class="StaffLines" fill="none" stroke="#000000" stroke-width="2.00" stroke-linejoin="bevel" points="141.732,616.733 2835.47,616.733"/>
<polyline class="StaffLines" fill="none" stroke="#000000" stroke-width="2.00" stroke-linejoin="bevel" points="141.732,641.733 2835.47,641.733"/>
<polyline class="StaffLines" fill="none" stroke="#000000" stroke-width="2.00" stroke-linejoin="bevel" points="141.732,666.733 2835.47,666.733"/>
<polyline class="BarLine" fill="none" stroke="#000000" stroke-width="4.00" stroke-linejoin="bevel" points="2802.72,565.733 2802.72,667.733"/>
<polyline class="BarLine" fill="none" stroke="#000000" stroke-width="12.50" stroke-linejoin="bevel" points="2829.22,565.733 2829.22,667.733"/>
<polyline class="BarLine" fill="none" stroke="#000000" stroke-width="4.00" stroke-linejoin="bevel" points="2491.37,565.733 2491.37,667.733"/>
<polyline class="BarLine" fill="none" stroke="#000000" stroke-width="4.00" stroke-linejoin="bevel" points="2180.03,565.733 2180.03,667.733"/>
<polyline class="BarLine" fill="none" stroke="#000000" stroke-width="4.00" stroke-linejoin="bevel" points="1868.69,565.733 1868.69,667.733"/>
<polyline class="BarLine" fill="none" stroke="#000000" stroke-width="4.00" stroke-linejoin="bevel" points="623.314,565.733 623.314,667.733"/>
<polyline class="BarLine" fill="none" stroke="#000000" stroke-width="4.00" stroke-linejoin="bevel" points="1557.34,565.733 1557.34,667.733"/>
<polyline class="BarLine" fill="none" stroke="#000000" stroke-width="4.00" stroke-linejoin="bevel" points="1246,565.733 1246,667.733"/>
<polyline class="BarLine" fill="none" stroke="#000000" stroke-width="4.00" stroke-linejoin="bevel" points="934.658,565.733 934.658,667.733"/>
<polyline class="LedgerLine" fill="none" stroke="#000000" stroke-width="4.00" stroke-linejoin="bevel" points="2026.91,541.733 2080.63,541.733"/>
<polyline class="LedgerLine" fill="none" stroke="#000000" stroke-width="4.00" stroke-linejoin="bevel" points="2649.6,516.733 2703.31,516.733"/>
<polyline class="LedgerLine" fill="none" stroke="#000000" stroke-width="4.00" stroke-linejoin="bevel" points="2649.6,541.733 2703.31,541.733"/>
<polyline class="LedgerLine" fill="none" stroke="#000000" stroke-width="4.00" stroke-linejoin="bevel" points="2338.25,541.733 2391.97,541.733"/>
<polyline class="Stem" fill="none" stroke="#000000" stroke-width="3.25" stroke-linejoin="bevel" points="2551.47,636.933 2551.47,554.233"/>
<polyline class="Stem" fill="none" stroke="#000000" stroke-width="3.25" stroke-linejoin="bevel" points="372.065,636.933 372.065,554.233"/>
<polyline class="Stem" fill="none" stroke="#000000" stroke-width="3.25" stroke-linejoin="bevel" points="2240.13,636.933 2240.13,554.233"/>
<polyline class="Stem" fill="none" stroke="#000000" stroke-width="3.25" stroke-linejoin="bevel" points="2038.03,546.633 2038.03,629.233"/>
<polyline class="Stem" fill="none" stroke="#000000" stroke-width="3.25" stroke-linejoin="bevel" points="1928.78,636.933 1928.78,554.233"/>
<polyline class="Stem" fill="none" stroke="#000000" stroke-width="3.25" stroke-linejoin="bevel" points="2349.38,534.133 2349.38,616.733"/>
<polyline class="Stem" fill="none" stroke="#000000" stroke-width="3.25" stroke-linejoin="bevel" points="481.316,609.133 481.316,685.483"/>
<polyline class="Stem" fill="none" stroke="#000000" stroke-width="3.25" stroke-linejoin="bevel" points="1726.69,559.133 1726.69,641.733"/>
<polyline class="Stem" fill="none" stroke="#000000" stroke-width="3.25" stroke-linejoin="bevel" points="1617.44,636.933 1617.44,554.233"/>
<polyline class="Stem" fill="none" stroke="#000000" stroke-width="3.25" stroke-linejoin="bevel" points="1415.35,571.633 1415.35,654.233"/>
<polyline class="Stem" fill="none" stroke="#000000" stroke-width="3.25" stroke-linejoin="bevel" points="2660.72,521.633 2660.72,616.733"/>
<polyline class="Stem" fill="none" stroke="#000000" stroke-width="3.25" stroke-linejoin="bevel" points="1306.09,636.933 1306.09,554.233"/>
<polyline class="Stem" fill="none" stroke="#000000" stroke-width="3.25" stroke-linejoin="bevel" points="683.408,636.933 683.408,554.233"/>
<polyline class="Stem" fill="none" stroke="#000000" stroke-width="3.25" stroke-linejoin="bevel" points="1104,584.133 1104,666.733"/>
<polyline class="Stem" fill="none" stroke="#000000" stroke-width="3.25" stroke-linejoin="bevel" points="994.751,636.933 994.751,554.233"/>
<polyline class="Stem" fill="none" stroke="#000000" stroke-width="3.25" stroke-linejoin="bevel" points="792.66,596.633 792.66,679.233"/>
<path class="Note" d="M1903.11,652.373 C1905,652.373 1908.95,650.42 1914.98,646.514 C1921,642.608 1924.55,639.988 1925.63,638.655 C1926.7,637.321 1927.23,636.134 1927.23,635.092 C1927.23,634.05 1926.81,633.123 1925.96,632.311 C1925.11,631.498 1924.14,631.092 1923.03,631.092 C1921.08,631.092 1917.1,633.061 1911.07,636.998 C1905.04,640.936 1901.51,643.556 1900.47,644.858 C1899.43,646.16 1898.91,647.332 1898.91,648.373 C1898.91,649.415 1899.32,650.342 1900.13,651.155 C1900.95,651.967 1901.94,652.373 1903.11,652.373 M1922.06,627.967 C1927.66,627.967 1930.45,630.373 1930.45,635.186 C1930.45,637.53 1929.77,640.248 1928.41,643.342 C1927.04,646.436 1925.22,648.795 1922.94,650.42 C1917.93,653.806 1911.65,655.498 1904.09,655.498 C1898.49,655.498 1895.69,653.092 1895.69,648.28 C1895.69,646.134 1896.35,643.464 1897.69,640.272 C1899.02,637.079 1900.86,634.67 1903.2,633.045 C1908.22,629.66 1914.51,627.967 1922.06,627.967"/>
<path class="Note" d="M2355.17,539.873 C2357.06,539.873 2361.02,537.92 2367.04,534.014 C2373.07,530.108 2376.62,527.488 2377.69,526.154 C2378.76,524.821 2379.3,523.634 2379.3,522.592 C2379.3,521.55 2378.87,520.623 2378.03,519.811 C2377.18,518.998 2376.2,518.592 2375.1,518.592 C2373.15,518.592 2369.16,520.561 2363.13,524.498 C2357.11,528.436 2353.57,531.056 2352.53,532.358 C2351.49,533.66 2350.97,534.832 2350.97,535.873 C2350.97,536.915 2351.38,537.842 2352.2,538.654 C2353.02,539.467 2354.01,539.873 2355.17,539.873 M2374.13,515.467 C2379.72,515.467 2382.52,517.873 2382.52,522.686 C2382.52,525.029 2381.84,527.748 2380.47,530.842 C2379.11,533.936 2377.28,536.295 2375,537.92 C2369.99,541.306 2363.71,542.998 2356.16,542.998 C2350.55,542.998 2347.75,540.592 2347.75,535.779 C2347.75,533.634 2348.42,530.964 2349.75,527.772 C2351.09,524.579 2352.92,522.17 2355.27,520.545 C2360.29,517.16 2366.57,515.467 2374.13,515.467"/>
<path class="Note" d="M2525.8,652.373 C2527.68,652.373 2531.64,650.42 2537.66,646.514 C2543.69,642.608 2547.24,639.988 2548.31,638.655 C2549.39,637.321 2549.92,636.134 2549.92,635.092 C2549.92,634.05 2549.5,633.123 2548.65,632.311 C2547.8,631.498 2546.82,631.092 2545.72,631.092 C2543.77,631.092 2539.78,633.061 2533.76,636.998 C2527.73,640.936 2524.2,643.556 2523.16,644.858 C2522.11,646.16 2521.59,647.332 2521.59,648.373 C2521.59,649.415 2522,650.342 2522.82,651.155 C2523.64,651.967 2524.63,652.373 2525.8,652.373 M2544.75,627.967 C2550.34,627.967 2553.14,630.373 2553.14,635.186 C2553.14,637.53 2552.46,640.248 2551.09,643.342 C2549.73,646.436 2547.91,648.795 2545.62,650.42 C2540.61,653.806 2534.33,655.498 2526.78,655.498 C2521.18,655.498 2518.37,653.092 2518.37,648.28 C2518.37,646.134 2519.04,643.464 2520.37,640.272 C2521.71,637.079 2523.55,634.67 2525.89,633.045 C2530.91,629.66 2537.2,627.967 2544.75,627.967"/>
<path class="Note" d="M2214.45,652.373 C2216.34,652.373 2220.29,650.42 2226.32,646.514 C2232.35,642.608 2235.9,639.988 2236.97,638.655 C2238.04,637.321 2238.58,636.134 2238.58,635.092 C2238.58,634.05 2238.15,633.123 2237.3,632.311 C2236.46,631.498 2235.48,631.092 2234.38,631.092 C2232.43,631.092 2228.44,633.061 2222.41,636.998 C2216.39,640.936 2212.85,643.556 2211.81,644.858 C2210.77,646.16 2210.25,647.332 2210.25,648.373 C2210.25,649.415 2210.66,650.342 2211.48,651.155 C2212.29,651.967 2213.29,652.373 2214.45,652.373 M2233.41,627.967 C2239,627.967 2241.8,630.373 2241.8,635.186 C2241.8,637.53 2241.11,640.248 2239.75,643.342 C2238.39,646.436 2236.56,648.795 2234.28,650.42 C2229.27,653.806 2222.99,655.498 2215.44,655.498 C2209.83,655.498 2207.03,653.092 2207.03,648.28 C2207.03,646.134 2207.7,643.464 2209.03,640.272 C2210.36,637.079 2212.2,634.67 2214.55,633.045 C2219.57,629.66 2225.85,627.967 2233.41,627.967"/>
<path class="Note" d="M2666.52,527.373 C2668.4,527.373 2672.36,525.42 2678.38,521.514 C2684.41,517.608 2687.96,514.988 2689.03,513.654 C2690.11,512.321 2690.64,511.134 2690.64,510.092 C2690.64,509.05 2690.22,508.123 2689.37,507.311 C2688.52,506.498 2687.54,506.092 2686.44,506.092 C2684.49,506.092 2680.5,508.061 2674.48,511.998 C2668.45,515.936 2664.92,518.556 2663.88,519.858 C2662.84,521.16 2662.31,522.332 2662.31,523.373 C2662.31,524.415 2662.72,525.342 2663.54,526.154 C2664.36,526.967 2665.35,527.373 2666.52,527.373 M2685.47,502.967 C2691.06,502.967 2693.86,505.373 2693.86,510.186 C2693.86,512.529 2693.18,515.248 2691.81,518.342 C2690.45,521.436 2688.63,523.795 2686.35,525.42 C2681.34,528.806 2675.05,530.498 2667.5,530.498 C2661.9,530.498 2659.1,528.092 2659.1,523.279 C2659.1,521.134 2659.76,518.464 2661.1,515.272 C2662.43,512.079 2664.27,509.67 2666.61,508.045 C2671.63,504.66 2677.92,502.967 2685.47,502.967"/>
<path class="Note" d="M2043.83,552.373 C2045.72,552.373 2049.67,550.42 2055.7,546.514 C2061.72,542.608 2065.27,539.988 2066.35,538.654 C2067.42,537.321 2067.96,536.134 2067.96,535.092 C2067.96,534.05 2067.53,533.123 2066.68,532.311 C2065.83,531.498 2064.86,531.092 2063.75,531.092 C2061.8,531.092 2057.82,533.061 2051.79,536.998 C2045.77,540.936 2042.23,543.556 2041.19,544.858 C2040.15,546.16 2039.63,547.332 2039.63,548.373 C2039.63,549.415 2040.04,550.342 2040.85,551.154 C2041.67,551.967 2042.66,552.373 2043.83,552.373 M2062.78,527.967 C2068.38,527.967 2071.17,530.373 2071.17,535.186 C2071.17,537.529 2070.49,540.248 2069.13,543.342 C2067.76,546.436 2065.94,548.795 2063.66,550.42 C2058.65,553.806 2052.37,555.498 2044.81,555.498 C2039.21,555.498 2036.41,553.092 2036.41,548.279 C2036.41,546.134 2037.08,543.464 2038.41,540.272 C2039.74,537.079 2041.58,534.67 2043.92,533.045 C2048.95,529.66 2055.23,527.967 2062.78,527.967"/>
<path class="Note" d="M798.457,602.373 C800.342,602.373 804.298,600.42 810.324,596.514 C816.35,592.608 819.899,589.988 820.972,588.655 C822.045,587.321 822.582,586.134 822.582,585.092 C822.582,584.05 822.157,583.123 821.308,582.311 C820.459,581.498 819.483,581.092 818.379,581.092 C816.431,581.092 812.444,583.061 806.418,586.998 C800.392,590.936 796.858,593.556 795.816,594.858 C794.774,596.16 794.254,597.332 794.254,598.373 C794.254,599.415 794.662,600.342 795.48,601.155 C796.298,601.967 797.29,602.373 798.457,602.373 M817.41,577.967 C823.004,577.967 825.8,580.373 825.8,585.186 C825.8,587.53 825.118,590.248 823.754,593.342 C822.389,596.436 820.566,598.795 818.285,600.42 C813.274,603.806 806.993,605.498 799.441,605.498 C793.837,605.498 791.035,603.092 791.035,598.28 C791.035,596.134 791.701,593.464 793.035,590.272 C794.368,587.079 796.207,584.67 798.55,583.045 C803.571,579.66 809.858,577.967 817.41,577.967"/>
<path class="Note" d="M346.393,652.373 C348.278,652.373 352.234,650.42 358.26,646.514 C364.286,642.608 367.835,639.988 368.908,638.655 C369.981,637.321 370.518,636.134 370.518,635.092 C370.518,634.05 370.093,633.123 369.244,632.311 C368.395,631.498 367.419,631.092 366.315,631.092 C364.367,631.092 360.38,633.061 354.354,636.998 C348.328,640.936 344.794,643.556 343.752,644.858 C342.71,646.16 342.19,647.332 342.19,648.373 C342.19,649.415 342.598,650.342 343.416,651.155 C344.234,651.967 345.226,652.373 346.393,652.373 M365.346,627.967 C370.94,627.967 373.736,630.373 373.736,635.186 C373.736,637.53 373.054,640.248 371.69,643.342 C370.325,646.436 368.502,648.795 366.221,650.42 C361.21,653.806 354.929,655.498 347.377,655.498 C341.773,655.498 338.971,653.092 338.971,648.28 C338.971,646.134 339.637,643.464 340.971,640.272 C342.304,637.079 344.143,634.67 346.486,633.045 C351.507,629.66 357.794,627.967 365.346,627.967"/>
<path class="Note" d="M1732.49,564.873 C1734.37,564.873 1738.33,562.92 1744.35,559.014 C1750.38,555.108 1753.93,552.488 1755,551.154 C1756.08,549.821 1756.61,548.634 1756.61,547.592 C1756.61,546.55 1756.19,545.623 1755.34,544.811 C1754.49,543.998 1753.51,543.592 1752.41,543.592 C1750.46,543.592 1746.47,545.561 1740.45,549.498 C1734.42,553.436 1730.89,556.056 1729.85,557.358 C1728.8,558.66 1728.28,559.832 1728.28,560.873 C1728.28,561.915 1728.69,562.842 1729.51,563.654 C1730.33,564.467 1731.32,564.873 1732.49,564.873 M1751.44,540.467 C1757.03,540.467 1759.83,542.873 1759.83,547.686 C1759.83,550.029 1759.15,552.748 1757.78,555.842 C1756.42,558.936 1754.6,561.295 1752.32,562.92 C1747.3,566.306 1741.02,567.998 1733.47,567.998 C1727.87,567.998 1725.07,565.592 1725.07,560.779 C1725.07,558.634 1725.73,555.964 1727.07,552.772 C1728.4,549.579 1730.24,547.17 1732.58,545.545 C1737.6,542.16 1743.89,540.467 1751.44,540.467"/>
<path class="Note" d="M1591.77,652.373 C1593.65,652.373 1597.61,650.42 1603.63,646.514 C1609.66,642.608 1613.21,639.988 1614.28,638.655 C1615.35,637.321 1615.89,636.134 1615.89,635.092 C1615.89,634.05 1615.47,633.123 1614.62,632.311 C1613.77,631.498 1612.79,631.092 1611.69,631.092 C1609.74,631.092 1605.75,633.061 1599.73,636.998 C1593.7,640.936 1590.17,643.556 1589.13,644.858 C1588.08,646.16 1587.56,647.332 1587.56,648.373 C1587.56,649.415 1587.97,650.342 1588.79,651.155 C1589.61,651.967 1590.6,652.373 1591.77,652.373 M1610.72,627.967 C1616.31,627.967 1619.11,630.373 1619.11,635.186 C1619.11,637.53 1618.43,640.248 1617.06,643.342 C1615.7,646.436 1613.88,648.795 1611.59,650.42 C1606.58,653.806 1600.3,655.498 1592.75,655.498 C1587.15,655.498 1584.34,653.092 1584.34,648.28 C1584.34,646.134 1585.01,643.464 1586.34,640.272 C1587.68,637.079 1589.52,634.67 1591.86,633.045 C1596.88,629.66 1603.17,627.967 1610.72,627.967"/>
<path class="Note" d="M487.113,614.873 C488.999,614.873 492.954,612.92 498.98,609.014 C505.006,605.108 508.556,602.488 509.629,601.155 C510.702,599.821 511.238,598.634 511.238,597.592 C511.238,596.55 510.814,595.623 509.965,594.811 C509.116,593.998 508.139,593.592 507.035,593.592 C505.087,593.592 501.1,595.561 495.074,599.498 C489.048,603.436 485.514,606.056 484.473,607.358 C483.431,608.66 482.91,609.832 482.91,610.873 C482.91,611.915 483.319,612.842 484.137,613.655 C484.954,614.467 485.947,614.873 487.113,614.873 M506.066,590.467 C511.66,590.467 514.457,592.873 514.457,597.686 C514.457,600.03 513.775,602.748 512.41,605.842 C511.045,608.936 509.223,611.295 506.941,612.92 C501.931,616.306 495.65,617.998 488.098,617.998 C482.493,617.998 479.691,615.592 479.691,610.78 C479.691,608.634 480.358,605.964 481.691,602.772 C483.025,599.579 484.863,597.17 487.207,595.545 C492.228,592.16 498.514,590.467 506.066,590.467"/>
<path class="Note" d="M1421.14,577.373 C1423.03,577.373 1426.98,575.42 1433.01,571.514 C1439.04,567.608 1442.59,564.988 1443.66,563.655 C1444.73,562.321 1445.27,561.134 1445.27,560.092 C1445.27,559.05 1444.84,558.123 1444,557.311 C1443.15,556.498 1442.17,556.092 1441.07,556.092 C1439.12,556.092 1435.13,558.061 1429.1,561.998 C1423.08,565.936 1419.54,568.556 1418.5,569.858 C1417.46,571.16 1416.94,572.332 1416.94,573.373 C1416.94,574.415 1417.35,575.342 1418.17,576.155 C1418.98,576.967 1419.98,577.373 1421.14,577.373 M1440.1,552.967 C1445.69,552.967 1448.49,555.373 1448.49,560.186 C1448.49,562.53 1447.8,565.248 1446.44,568.342 C1445.08,571.436 1443.25,573.795 1440.97,575.42 C1435.96,578.806 1429.68,580.498 1422.13,580.498 C1416.52,580.498 1413.72,578.092 1413.72,573.28 C1413.72,571.134 1414.39,568.464 1415.72,565.272 C1417.05,562.079 1418.89,559.67 1421.24,558.045 C1426.26,554.66 1432.54,552.967 1440.1,552.967"/>
<path class="Note" d="M1280.42,652.373 C1282.31,652.373 1286.26,650.42 1292.29,646.514 C1298.32,642.608 1301.87,639.988 1302.94,638.655 C1304.01,637.321 1304.55,636.134 1304.55,635.092 C1304.55,634.05 1304.12,633.123 1303.27,632.311 C1302.43,631.498 1301.45,631.092 1300.34,631.092 C1298.4,631.092 1294.41,633.061 1288.38,636.998 C1282.36,640.936 1278.82,643.556 1277.78,644.858 C1276.74,646.16 1276.22,647.332 1276.22,648.373 C1276.22,649.415 1276.63,650.342 1277.45,651.155 C1278.26,651.967 1279.26,652.373 1280.42,652.373 M1299.38,627.967 C1304.97,627.967 1307.77,630.373 1307.77,635.186 C1307.77,637.53 1307.08,640.248 1305.72,643.342 C1304.36,646.436 1302.53,648.795 1300.25,650.42 C1295.24,653.806 1288.96,655.498 1281.41,655.498 C1275.8,655.498 1273,653.092 1273,648.28 C1273,646.134 1273.67,643.464 1275,640.272 C1276.33,637.079 1278.17,634.67 1280.52,633.045 C1285.54,629.66 1291.82,627.967 1299.38,627.967"/>
<path class="Note" d="M657.736,652.373 C659.622,652.373 663.577,650.42 669.603,646.514 C675.629,642.608 679.179,639.988 680.252,638.655 C681.325,637.321 681.861,636.134 681.861,635.092 C681.861,634.05 681.437,633.123 680.588,632.311 C679.739,631.498 678.762,631.092 677.658,631.092 C675.71,631.092 671.723,633.061 665.697,636.998 C659.671,640.936 656.137,643.556 655.095,644.858 C654.054,646.16 653.533,647.332 653.533,648.373 C653.533,649.415 653.942,650.342 654.76,651.155 C655.577,651.967 656.569,652.373 657.736,652.373 M676.689,627.967 C682.283,627.967 685.08,630.373 685.08,635.186 C685.08,637.53 684.398,640.248 683.033,643.342 C681.668,646.436 679.845,648.795 677.564,650.42 C672.554,653.806 666.273,655.498 658.72,655.498 C653.116,655.498 650.314,653.092 650.314,648.28 C650.314,646.134 650.981,643.464 652.314,640.272 C653.648,637.079 655.486,634.67 657.83,633.045 C662.851,629.66 669.137,627.967 676.689,627.967"/>
<path class="Note" d="M1109.8,589.873 C1111.69,589.873 1115.64,587.92 1121.67,584.014 C1127.69,580.108 1131.24,577.488 1132.32,576.155 C1133.39,574.821 1133.93,573.634 1133.93,572.592 C1133.93,571.55 1133.5,570.623 1132.65,569.811 C1131.8,568.998 1130.83,568.592 1129.72,568.592 C1127.77,568.592 1123.79,570.561 1117.76,574.498 C1111.73,578.436 1108.2,581.056 1107.16,582.358 C1106.12,583.66 1105.6,584.832 1105.6,585.873 C1105.6,586.915 1106.01,587.842 1106.82,588.655 C1107.64,589.467 1108.63,589.873 1109.8,589.873 M1128.75,565.467 C1134.35,565.467 1137.14,567.873 1137.14,572.686 C1137.14,575.03 1136.46,577.748 1135.1,580.842 C1133.73,583.936 1131.91,586.295 1129.63,587.92 C1124.62,591.306 1118.34,592.998 1110.78,592.998 C1105.18,592.998 1102.38,590.592 1102.38,585.78 C1102.38,583.634 1103.04,580.964 1104.38,577.772 C1105.71,574.579 1107.55,572.17 1109.89,570.545 C1114.91,567.16 1121.2,565.467 1128.75,565.467"/>
<path class="Note" d="M969.08,652.373 C970.965,652.373 974.921,650.42 980.947,646.514 C986.973,642.608 990.522,639.988 991.595,638.655 C992.668,637.321 993.205,636.134 993.205,635.092 C993.205,634.05 992.78,633.123 991.931,632.311 C991.082,631.498 990.106,631.092 989.001,631.092 C987.053,631.092 983.067,633.061 977.04,636.998 C971.014,640.936 967.481,643.556 966.439,644.858 C965.397,646.16 964.876,647.332 964.876,648.373 C964.876,649.415 965.285,650.342 966.103,651.155 C966.921,651.967 967.913,652.373 969.08,652.373 M988.033,627.967 C993.626,627.967 996.423,630.373 996.423,635.186 C996.423,637.53 995.741,640.248 994.376,643.342 C993.012,646.436 991.189,648.795 988.908,650.42 C983.897,653.806 977.616,655.498 970.064,655.498 C964.46,655.498 961.658,653.092 961.658,648.28 C961.658,646.134 962.324,643.464 963.658,640.272 C964.991,637.079 966.83,634.67 969.173,633.045 C974.194,629.66 980.481,627.967 988.033,627.967"/>
<path class="Clef" d="M203.623,673.858 L203.623,671.717 C203.56,670.613 203.399,668.889 203.139,666.545 C199.889,667.066 196.993,667.326 194.451,667.326 C185.337,667.326 177.605,663.727 171.256,656.53 C164.907,649.332 161.732,640.754 161.732,630.795 C161.732,628.129 162.253,624.923 163.295,621.178 C164.337,617.433 165.297,614.925 166.178,613.655 C167.058,612.384 168.378,610.155 170.139,606.967 C170.659,605.988 172.352,603.837 175.217,600.514 C175.738,599.806 176.193,599.222 176.584,598.764 C176.975,598.306 177.607,597.49 178.482,596.319 C179.357,595.147 180.3,594.056 181.31,593.045 C182.321,592.035 183.217,591.058 183.998,590.115 C184.779,589.173 185.498,588.379 186.154,587.733 C183.81,579.983 182.378,574.024 181.857,569.858 C181.337,565.691 181.076,560.579 181.076,554.522 C181.076,548.464 182.378,542.962 184.982,538.014 C187.514,532.879 191.06,528.681 195.623,525.42 C195.883,525.222 196.225,525.123 196.646,525.123 C197.068,525.123 197.378,525.222 197.576,525.42 C201.087,529.649 204.128,535.149 206.701,541.92 C209.274,548.691 210.56,555.024 210.56,560.92 C210.56,566.816 209.066,572.498 206.076,577.967 C202.691,583.759 198.326,589.748 192.982,595.936 C194.347,600.227 196.17,606.962 198.451,616.139 L199.045,616.139 C199.305,616.076 199.529,616.045 199.717,616.045 C207.081,616.045 213.089,618.634 217.74,623.811 C222.391,628.988 224.717,634.962 224.717,641.733 C224.717,650.129 221.238,656.899 214.279,662.045 C212.258,663.545 209.878,664.717 207.139,665.561 C207.472,669.79 207.639,672.605 207.639,674.006 C207.639,675.407 207.571,677.899 207.435,681.483 C207.373,687.597 205.29,692.837 201.185,697.201 C197.081,701.566 192.394,703.748 187.123,703.748 C181.852,703.748 177.36,701.876 173.646,698.131 C169.933,694.386 168.076,689.847 168.076,684.514 C168.076,681.712 169.154,679.332 171.31,677.373 C173.519,675.425 176.006,674.451 178.771,674.451 C181.537,674.451 183.8,675.462 185.56,677.483 C187.383,679.368 188.295,681.644 188.295,684.311 C188.295,686.977 187.383,689.222 185.56,691.045 C183.738,692.868 181.555,693.78 179.014,693.78 C177.972,693.78 176.967,693.587 175.998,693.201 C178.863,697.431 182.54,699.545 187.029,699.545 C191.519,699.545 195.36,697.691 198.553,693.983 C201.745,690.274 203.342,685.91 203.342,680.889 L203.623,673.858 M206.748,661.561 C210.133,660.321 212.821,658.123 214.81,654.967 C216.8,651.811 217.795,648.67 217.795,645.545 C217.795,640.92 216.199,636.785 213.006,633.139 C209.813,629.493 205.774,627.441 200.889,626.983 C203.691,640.722 205.644,652.248 206.748,661.561 M168.967,638.998 C168.967,645.446 171.537,651.079 176.678,655.897 C181.818,660.714 187.842,663.123 194.748,663.123 C197.477,663.123 200.144,662.925 202.748,662.53 C201.706,652.634 199.654,640.785 196.592,626.983 C192.758,627.379 189.782,628.699 187.662,630.944 C185.542,633.188 184.482,635.743 184.482,638.608 C184.482,643.556 187.123,647.561 192.404,650.623 C192.852,650.884 193.076,651.324 193.076,651.944 C193.076,652.563 192.865,653.1 192.443,653.553 C192.021,654.006 191.649,654.233 191.326,654.233 C191.003,654.233 190.581,654.17 190.06,654.045 C182.435,649.879 178.623,643.592 178.623,635.186 C178.623,631.217 180.024,627.41 182.826,623.764 C185.753,620.118 189.56,617.774 194.248,616.733 C192.425,609.441 190.93,603.743 189.764,599.639 C180.847,609.67 175.31,617.092 173.154,621.905 C170.363,628.155 168.967,633.852 168.967,638.998 M201.576,539.686 C196.691,542.092 192.834,545.574 190.006,550.131 C187.178,554.688 185.764,559.472 185.764,564.483 C185.764,569.493 186.935,575.972 189.279,583.92 C193.967,578.254 197.514,572.946 199.92,567.998 C202.326,563.05 203.529,558.152 203.529,553.303 C203.529,548.454 202.878,543.915 201.576,539.686"/>
<path class="TimeSig" d="M273.021,567.912 C274.516,567.912 275.949,567.686 277.318,567.233 C278.688,566.78 279.665,566.553 280.248,566.553 C280.831,566.553 281.222,566.907 281.42,567.615 C281.42,567.688 281.352,567.886 281.217,568.209 L252.811,601.225 L269.498,601.225 L269.498,588.131 C269.498,586.506 270.446,585.334 272.342,584.615 C274.29,583.897 276.503,581.001 278.982,575.928 C279.17,575.532 279.462,575.334 279.857,575.334 C280.639,575.334 281.092,575.793 281.217,576.709 L281.217,601.225 L288.357,601.225 C289.264,601.225 289.751,601.712 289.818,602.686 C289.886,603.66 289.399,604.147 288.357,604.147 L281.217,604.147 L281.217,604.928 C281.217,607.532 281.868,609.746 283.17,611.569 C284.67,613.391 286.43,614.303 288.451,614.303 C289.232,614.303 289.623,614.694 289.623,615.475 C289.623,616.256 289.087,616.647 288.014,616.647 C286.941,616.647 284.938,616.436 282.006,616.014 C279.074,615.592 276.811,615.381 275.217,615.381 C273.623,615.381 271.41,615.592 268.576,616.014 C265.743,616.436 263.613,616.647 262.186,616.647 C261.404,616.647 261.014,616.256 261.014,615.475 C261.014,614.694 261.404,614.303 262.186,614.303 C264.196,614.303 265.951,613.391 267.451,611.569 C268.816,609.683 269.498,607.47 269.498,604.928 L269.498,604.147 L252.811,604.147 C251.956,604.147 251.219,603.92 250.6,603.467 C249.98,603.014 249.67,602.592 249.67,602.201 C249.67,601.811 250.485,600.639 252.115,598.686 C253.745,596.733 256.074,592.972 259.1,587.405 C262.126,581.837 263.639,575.438 263.639,568.209 C263.639,567.168 264.097,566.647 265.014,566.647 C265.212,566.647 265.521,566.712 265.943,566.842 C266.365,566.972 267.277,567.183 268.678,567.475 C270.079,567.766 271.527,567.912 273.021,567.912"/>
<path class="TimeSig" d="M273.021,618.084 C274.516,618.084 275.949,617.858 277.318,617.405 C278.688,616.951 279.665,616.725 280.248,616.725 C280.831,616.725 281.222,617.079 281.42,617.787 C281.42,617.86 281.352,618.058 281.217,618.381 L252.811,651.397 L269.498,651.397 L269.498,638.303 C269.498,636.678 270.446,635.506 272.342,634.787 C274.29,634.069 276.503,631.173 278.982,626.1 C279.17,625.704 279.462,625.506 279.857,625.506 C280.639,625.506 281.092,625.964 281.217,626.881 L281.217,651.397 L288.357,651.397 C289.264,651.397 289.751,651.884 289.818,652.858 C289.886,653.832 289.399,654.319 288.357,654.319 L281.217,654.319 L281.217,655.1 C281.217,657.704 281.868,659.918 283.17,661.74 C284.67,663.563 286.43,664.475 288.451,664.475 C289.232,664.475 289.623,664.865 289.623,665.647 C289.623,666.428 289.087,666.819 288.014,666.819 C286.941,666.819 284.938,666.608 282.006,666.186 C279.074,665.764 276.811,665.553 275.217,665.553 C273.623,665.553 271.41,665.764 268.576,666.186 C265.743,666.608 263.613,666.819 262.186,666.819 C261.404,666.819 261.014,666.428 261.014,665.647 C261.014,664.865 261.404,664.475 262.186,664.475 C264.196,664.475 265.951,663.563 267.451,661.74 C268.816,659.855 269.498,657.642 269.498,655.1 L269.498,654.319 L252.811,654.319 C251.956,654.319 251.219,654.092 250.6,653.639 C249.98,653.186 249.67,652.764 249.67,652.373 C249.67,651.983 250.485,650.811 252.115,648.858 C253.745,646.905 256.074,643.144 259.1,637.576 C262.126,632.009 263.639,625.61 263.639,618.381 C263.639,617.339 264.097,616.819 265.014,616.819 C265.212,616.819 265.521,616.884 265.943,617.014 C266.365,617.144 267.277,617.355 268.678,617.647 C270.079,617.938 271.527,618.084 273.021,618.084"/>
</svg>
