<?xml version="1.0" encoding="UTF-8" standalone="no"?>
<svg width="2977.2px" height="4208.4px" viewBox="0 0 2977.2 4208.4"
 xmlns="http://www.w3.org/2000/svg" xmlns:xlink="http://www.w3.org/1999/xlink" version="1.2" baseProfile="tiny">
<title>Gb_Harmonic_Minor.mscx</title>
<desc>Generated by MuseScore Studio 4.3.1</desc>
<path class="" fill="#ffffff" fill-rule="evenodd" d="M0,0 L2977.2,0 L2977.2,4208.4 L0,4208.4 L0,0 "/>
<polyline class="StaffLines" fill="none" stroke="#000000" stroke-width="2.00" stroke-linejoin="bevel" points="141.732,316.732 2835.47,316.732"/>
<polyline class="StaffLines" fill="none" stroke="#000000" stroke-width="2.00" stroke-linejoin="bevel" points="141.732,341.732 2835.47,341.732"/>
<polyline class="StaffLines" fill="none" stroke="#000000" stroke-width="2.00" stroke-linejoin="bevel" points="141.732,366.733 2835.47,366.733"/>
<polyline class="StaffLines" fill="none" stroke="#000000" stroke-width="2.00" stroke-linejoin="bevel" points="141.732,391.733 2835.47,391.733"/>
<polyline class="StaffLines" fill="none" stroke="#000000" stroke-width="2.00" stroke-linejoin="bevel" points="141.732,416.733 2835.47,416.733"/>
<polyline class="BarLine" fill="none" stroke="#000000" stroke-width="4.00" stroke-linejoin="bevel" points="1174.18,315.732 1174.18,417.733"/>
<polyline class="BarLine" fill="none" stroke="#000000" stroke-width="4.00" stroke-linejoin="bevel" points="2802.72,315.732 2802.72,417.733"/>
<polyline class="BarLine" fill="none" stroke="#000000" stroke-width="12.50" stroke-linejoin="bevel" points="2829.22,315.732 2829.22,417.733"/>
<polyline class="BarLine" fill="none" stroke="#000000" stroke-width="4.00" stroke-linejoin="bevel" points="1452.6,315.732 1452.6,417.733"/>
<polyline class="BarLine" fill="none" stroke="#000000" stroke-width="4.00" stroke-linejoin="bevel" points="2513.78,315.732 2513.78,417.733"/>
<polyline class="BarLine" fill="none" stroke="#000000" stroke-width="4.00" stroke-linejoin="bevel" points="2235.35,315.732 2235.35,417.733"/>
<polyline class="BarLine" fill="none" stroke="#000000" stroke-width="4.00" stroke-linejoin="bevel" points="885.237,315.732 885.237,417.733"/>
<polyline class="BarLine" fill="none" stroke="#000000" stroke-width="4.00" stroke-linejoin="bevel" points="606.813,315.732 606.813,417.733"/>
<polyline class="BarLine" fill="none" stroke="#000000" stroke-width="4.00" stroke-linejoin="bevel" points="1667.99,315.732 1667.99,417.733"/>
<polyline class="BarLine" fill="none" stroke="#000000" stroke-width="4.00" stroke-linejoin="bevel" points="1956.93,315.732 1956.93,417.733"/>
<path class="Accidental" d="M1678.88,321.811 L1677.62,259.701 C1677.62,258.722 1678.38,258.232 1679.91,258.232 C1681.44,258.232 1682.21,258.722 1682.21,259.701 L1681.43,293.592 C1683.19,291.831 1684.7,290.61 1685.97,289.928 C1687.23,289.245 1688.96,288.904 1691.14,288.904 C1693.32,288.904 1695.34,289.912 1697.19,291.928 C1699.05,293.943 1699.98,296.451 1699.98,299.451 C1699.98,303.941 1695.26,310.16 1685.82,318.107 C1682.31,321.295 1680.49,322.889 1680.35,322.889 L1679.77,322.889 C1679.18,322.889 1678.88,322.529 1678.88,321.811 M1681.34,296.717 L1681.04,318.889 C1683.06,316.993 1685.11,313.847 1687.19,309.451 C1689.28,305.055 1690.32,301.295 1690.32,298.17 C1690.32,296.607 1690.06,295.175 1689.54,293.873 C1689.02,292.571 1688.2,291.92 1687.09,291.92 C1685.98,291.92 1684.99,292.311 1684.11,293.092 C1683.23,293.873 1682.3,295.081 1681.34,296.717"/>
<path class="Accidental" d="M2081.57,359.311 L2080.3,297.201 C2080.3,296.222 2081.07,295.732 2082.6,295.732 C2084.13,295.732 2084.89,296.222 2084.89,297.201 L2084.11,331.092 C2085.87,329.331 2087.39,328.11 2088.65,327.428 C2089.92,326.746 2091.64,326.404 2093.82,326.404 C2096.01,326.404 2098.03,327.412 2099.88,329.428 C2101.73,331.443 2102.66,333.951 2102.66,336.951 C2102.66,341.441 2097.94,347.66 2088.5,355.607 C2084.99,358.795 2083.17,360.389 2083.04,360.389 L2082.46,360.389 C2081.86,360.389 2081.57,360.029 2081.57,359.311 M2084.02,334.217 L2083.72,356.389 C2085.74,354.493 2087.8,351.347 2089.88,346.951 C2091.96,342.555 2093,338.795 2093,335.67 C2093,334.107 2092.74,332.675 2092.22,331.373 C2091.7,330.071 2090.89,329.42 2089.78,329.42 C2088.67,329.42 2087.67,329.811 2086.79,330.592 C2085.91,331.373 2084.99,332.581 2084.02,334.217"/>
<path class="Accidental" d="M2524.67,396.811 L2523.4,334.701 C2523.4,333.722 2524.17,333.233 2525.7,333.233 C2527.23,333.233 2528,333.722 2528,334.701 L2527.22,368.592 C2528.98,366.831 2530.49,365.61 2531.76,364.928 C2533.02,364.246 2534.74,363.904 2536.93,363.904 C2539.11,363.904 2541.13,364.912 2542.98,366.928 C2544.84,368.943 2545.76,371.451 2545.76,374.451 C2545.76,378.941 2541.04,385.16 2531.61,393.108 C2528.1,396.295 2526.27,397.889 2526.14,397.889 L2525.56,397.889 C2524.97,397.889 2524.67,397.529 2524.67,396.811 M2527.12,371.717 L2526.83,393.889 C2528.85,391.993 2530.9,388.847 2532.98,384.451 C2535.07,380.055 2536.11,376.295 2536.11,373.17 C2536.11,371.608 2535.85,370.175 2535.33,368.873 C2534.8,367.571 2533.99,366.92 2532.88,366.92 C2531.77,366.92 2530.78,367.311 2529.9,368.092 C2529.02,368.873 2528.09,370.081 2527.12,371.717"/>
<path class="Accidental" d="M1298.81,321.811 L1297.55,259.701 C1297.55,258.722 1298.31,258.232 1299.84,258.232 C1301.37,258.232 1302.14,258.722 1302.14,259.701 L1301.36,293.592 C1303.12,291.831 1304.63,290.61 1305.9,289.928 C1307.16,289.245 1308.89,288.904 1311.07,288.904 C1313.25,288.904 1315.27,289.912 1317.12,291.928 C1318.98,293.943 1319.91,296.451 1319.91,299.451 C1319.91,303.941 1315.19,310.16 1305.75,318.107 C1302.24,321.295 1300.42,322.889 1300.28,322.889 L1299.7,322.889 C1299.11,322.889 1298.81,322.529 1298.81,321.811 M1301.27,296.717 L1300.97,318.889 C1302.99,316.993 1305.04,313.847 1307.12,309.451 C1309.21,305.055 1310.25,301.295 1310.25,298.17 C1310.25,296.607 1309.99,295.175 1309.47,293.873 C1308.95,292.571 1308.13,291.92 1307.02,291.92 C1305.91,291.92 1304.92,292.311 1304.04,293.092 C1303.16,293.873 1302.23,295.081 1301.27,296.717"/>
<path class="Accidental" d="M1026.78,362.045 C1025.6,362.368 1025.01,361.915 1025.01,360.686 L1025.01,305.982 C1025.01,304.618 1025.53,303.936 1026.58,303.936 C1027.62,303.936 1028.14,304.618 1028.14,305.982 L1028.14,325.811 L1039.67,321.42 C1040.84,321.097 1041.42,321.55 1041.42,322.779 L1041.42,377.482 C1041.42,378.847 1040.9,379.529 1039.86,379.529 C1038.82,379.529 1038.29,378.847 1038.29,377.482 L1038.29,357.654 L1026.78,362.045 M1028.14,350.811 L1038.29,346.904 L1038.29,332.654 L1028.14,336.561 L1028.14,350.811 "/>
<path class="Accidental" d="M896.127,359.311 L894.862,297.201 C894.862,296.222 895.627,295.732 897.158,295.732 C898.69,295.732 899.455,296.222 899.455,297.201 L898.674,331.092 C900.435,329.331 901.948,328.11 903.213,327.428 C904.479,326.746 906.203,326.404 908.385,326.404 C910.567,326.404 912.586,327.412 914.44,329.428 C916.294,331.443 917.221,333.951 917.221,336.951 C917.221,341.441 912.502,347.66 903.065,355.607 C899.554,358.795 897.731,360.389 897.596,360.389 L897.018,360.389 C896.424,360.389 896.127,360.029 896.127,359.311 M898.58,334.217 L898.283,356.389 C900.304,354.493 902.356,351.347 904.44,346.951 C906.523,342.555 907.565,338.795 907.565,335.67 C907.565,334.107 907.304,332.675 906.783,331.373 C906.263,330.071 905.448,329.42 904.338,329.42 C903.229,329.42 902.234,329.811 901.354,330.592 C900.474,331.373 899.549,332.581 898.58,334.217"/>
<path class="Accidental" d="M2648.93,409.311 L2647.66,347.201 C2647.66,346.222 2648.43,345.733 2649.96,345.733 C2651.49,345.733 2652.26,346.222 2652.26,347.201 L2651.48,381.092 C2653.24,379.331 2654.75,378.11 2656.02,377.428 C2657.28,376.746 2659.01,376.404 2661.19,376.404 C2663.37,376.404 2665.39,377.412 2667.24,379.428 C2669.1,381.443 2670.02,383.951 2670.02,386.951 C2670.02,391.441 2665.31,397.66 2655.87,405.608 C2652.36,408.795 2650.53,410.389 2650.4,410.389 L2649.82,410.389 C2649.23,410.389 2648.93,410.029 2648.93,409.311 M2651.38,384.217 L2651.09,406.389 C2653.11,404.493 2655.16,401.347 2657.24,396.951 C2659.33,392.555 2660.37,388.795 2660.37,385.67 C2660.37,384.108 2660.11,382.675 2659.59,381.373 C2659.07,380.071 2658.25,379.42 2657.14,379.42 C2656.03,379.42 2655.04,379.811 2654.16,380.592 C2653.28,381.373 2652.35,382.581 2651.38,384.217"/>
<path class="Accidental" d="M328.764,409.311 L327.498,347.201 C327.498,346.222 328.264,345.733 329.795,345.733 C331.326,345.733 332.092,346.222 332.092,347.201 L331.311,381.092 C333.071,379.331 334.584,378.11 335.85,377.428 C337.115,376.746 338.839,376.404 341.022,376.404 C343.204,376.404 345.222,377.412 347.076,379.428 C348.93,381.443 349.857,383.951 349.857,386.951 C349.857,391.441 345.139,397.66 335.701,405.608 C332.191,408.795 330.368,410.389 330.232,410.389 L329.654,410.389 C329.061,410.389 328.764,410.029 328.764,409.311 M331.217,384.217 L330.92,406.389 C332.941,404.493 334.993,401.347 337.076,396.951 C339.16,392.555 340.201,388.795 340.201,385.67 C340.201,384.108 339.941,382.675 339.42,381.373 C338.899,380.071 338.084,379.42 336.975,379.42 C335.865,379.42 334.87,379.811 333.99,380.592 C333.11,381.373 332.186,382.581 331.217,384.217"/>
<path class="Accidental" d="M453.025,396.811 L451.759,334.701 C451.759,333.722 452.525,333.233 454.056,333.233 C455.587,333.233 456.353,333.722 456.353,334.701 L455.571,368.592 C457.332,366.831 458.845,365.61 460.11,364.928 C461.376,364.246 463.1,363.904 465.282,363.904 C467.465,363.904 469.483,364.912 471.337,366.928 C473.191,368.943 474.118,371.451 474.118,374.451 C474.118,378.941 469.4,385.16 459.962,393.108 C456.452,396.295 454.629,397.889 454.493,397.889 L453.915,397.889 C453.321,397.889 453.025,397.529 453.025,396.811 M455.478,371.717 L455.181,393.889 C457.202,391.993 459.254,388.847 461.337,384.451 C463.42,380.055 464.462,376.295 464.462,373.17 C464.462,371.608 464.202,370.175 463.681,368.873 C463.16,367.571 462.345,366.92 461.235,366.92 C460.126,366.92 459.131,367.311 458.251,368.092 C457.371,368.873 456.446,370.081 455.478,371.717"/>
<polyline class="Stem" fill="none" stroke="#000000" stroke-width="3.25" stroke-linejoin="bevel" points="666.906,374.433 666.906,297.982"/>
<polyline class="Stem" fill="none" stroke="#000000" stroke-width="3.25" stroke-linejoin="bevel" points="2708.65,386.933 2708.65,304.232"/>
<polyline class="Stem" fill="none" stroke="#000000" stroke-width="3.25" stroke-linejoin="bevel" points="2584.39,374.433 2584.39,297.982"/>
<polyline class="Stem" fill="none" stroke="#000000" stroke-width="3.25" stroke-linejoin="bevel" points="388.483,386.933 388.483,304.232"/>
<polyline class="Stem" fill="none" stroke="#000000" stroke-width="3.25" stroke-linejoin="bevel" points="2419.71,374.433 2419.71,297.982"/>
<polyline class="Stem" fill="none" stroke="#000000" stroke-width="3.25" stroke-linejoin="bevel" points="2263.98,371.633 2263.98,441.733"/>
<polyline class="Stem" fill="none" stroke="#000000" stroke-width="3.25" stroke-linejoin="bevel" points="512.743,374.433 512.743,297.982"/>
<polyline class="Stem" fill="none" stroke="#000000" stroke-width="3.25" stroke-linejoin="bevel" points="2109.82,346.632 2109.82,429.233"/>
<polyline class="Stem" fill="none" stroke="#000000" stroke-width="3.25" stroke-linejoin="bevel" points="1985.56,346.632 1985.56,429.233"/>
<polyline class="Stem" fill="none" stroke="#000000" stroke-width="3.25" stroke-linejoin="bevel" points="1831.39,321.632 1831.39,404.233"/>
<polyline class="Stem" fill="none" stroke="#000000" stroke-width="3.25" stroke-linejoin="bevel" points="924.377,346.632 924.377,429.233"/>
<polyline class="Stem" fill="none" stroke="#000000" stroke-width="3.25" stroke-linejoin="bevel" points="1048.64,346.632 1048.64,429.233"/>
<polyline class="Stem" fill="none" stroke="#000000" stroke-width="3.25" stroke-linejoin="bevel" points="1202.8,321.632 1202.8,404.233"/>
<polyline class="Stem" fill="none" stroke="#000000" stroke-width="3.25" stroke-linejoin="bevel" points="1327.06,309.132 1327.06,391.733"/>
<polyline class="Stem" fill="none" stroke="#000000" stroke-width="3.25" stroke-linejoin="bevel" points="759.698,371.633 759.698,441.733"/>
<polyline class="Stem" fill="none" stroke="#000000" stroke-width="3.25" stroke-linejoin="bevel" points="1707.13,309.132 1707.13,391.733"/>
<path class="Note" d="M2269.78,377.373 C2271.66,377.373 2275.62,375.42 2281.64,371.514 C2287.67,367.608 2291.22,364.988 2292.29,363.654 C2293.37,362.321 2293.9,361.134 2293.9,360.092 C2293.9,359.05 2293.48,358.123 2292.63,357.311 C2291.78,356.498 2290.8,356.092 2289.7,356.092 C2287.75,356.092 2283.76,358.061 2277.74,361.998 C2271.71,365.936 2268.18,368.555 2267.14,369.858 C2266.09,371.16 2265.57,372.331 2265.57,373.373 C2265.57,374.415 2265.98,375.342 2266.8,376.154 C2267.62,376.967 2268.61,377.373 2269.78,377.373 M2288.73,352.967 C2294.32,352.967 2297.12,355.373 2297.12,360.186 C2297.12,362.529 2296.44,365.248 2295.07,368.342 C2293.71,371.436 2291.89,373.795 2289.6,375.42 C2284.59,378.805 2278.31,380.498 2270.76,380.498 C2265.16,380.498 2262.35,378.092 2262.35,373.279 C2262.35,371.134 2263.02,368.464 2264.35,365.272 C2265.69,362.079 2267.53,359.67 2269.87,358.045 C2274.89,354.66 2281.18,352.967 2288.73,352.967"/>
<path class="Note" d="M641.235,389.873 C643.12,389.873 647.076,387.92 653.102,384.014 C659.128,380.108 662.677,377.488 663.75,376.154 C664.823,374.821 665.36,373.634 665.36,372.592 C665.36,371.55 664.935,370.623 664.086,369.811 C663.237,368.998 662.261,368.592 661.156,368.592 C659.209,368.592 655.222,370.561 649.195,374.498 C643.169,378.436 639.636,381.055 638.594,382.358 C637.552,383.66 637.031,384.831 637.031,385.873 C637.031,386.915 637.44,387.842 638.258,388.654 C639.076,389.467 640.068,389.873 641.235,389.873 M660.188,365.467 C665.781,365.467 668.578,367.873 668.578,372.686 C668.578,375.029 667.896,377.748 666.531,380.842 C665.167,383.936 663.344,386.295 661.063,387.92 C656.052,391.305 649.771,392.998 642.219,392.998 C636.615,392.998 633.813,390.592 633.813,385.779 C633.813,383.634 634.479,380.964 635.813,377.772 C637.146,374.579 638.985,372.17 641.328,370.545 C646.349,367.16 652.636,365.467 660.188,365.467"/>
<path class="Note" d="M2558.72,389.873 C2560.6,389.873 2564.56,387.92 2570.58,384.014 C2576.61,380.108 2580.16,377.488 2581.23,376.154 C2582.3,374.821 2582.84,373.634 2582.84,372.592 C2582.84,371.55 2582.42,370.623 2581.57,369.811 C2580.72,368.998 2579.74,368.592 2578.64,368.592 C2576.69,368.592 2572.7,370.561 2566.68,374.498 C2560.65,378.436 2557.12,381.055 2556.08,382.358 C2555.03,383.66 2554.51,384.831 2554.51,385.873 C2554.51,386.915 2554.92,387.842 2555.74,388.654 C2556.56,389.467 2557.55,389.873 2558.72,389.873 M2577.67,365.467 C2583.26,365.467 2586.06,367.873 2586.06,372.686 C2586.06,375.029 2585.38,377.748 2584.01,380.842 C2582.65,383.936 2580.83,386.295 2578.54,387.92 C2573.53,391.305 2567.25,392.998 2559.7,392.998 C2554.1,392.998 2551.29,390.592 2551.29,385.779 C2551.29,383.634 2551.96,380.964 2553.29,377.772 C2554.63,374.579 2556.47,372.17 2558.81,370.545 C2563.83,367.16 2570.12,365.467 2577.67,365.467"/>
<path class="Note" d="M1208.6,327.373 C1210.48,327.373 1214.44,325.42 1220.47,321.514 C1226.49,317.607 1230.04,314.988 1231.11,313.654 C1232.19,312.321 1232.72,311.134 1232.72,310.092 C1232.72,309.05 1232.3,308.123 1231.45,307.311 C1230.6,306.498 1229.62,306.092 1228.52,306.092 C1226.57,306.092 1222.59,308.061 1216.56,311.998 C1210.53,315.936 1207,318.555 1205.96,319.857 C1204.92,321.16 1204.39,322.331 1204.39,323.373 C1204.39,324.415 1204.8,325.342 1205.62,326.154 C1206.44,326.967 1207.43,327.373 1208.6,327.373 M1227.55,302.967 C1233.14,302.967 1235.94,305.373 1235.94,310.186 C1235.94,312.529 1235.26,315.248 1233.89,318.342 C1232.53,321.436 1230.71,323.795 1228.43,325.42 C1223.42,328.805 1217.13,330.498 1209.58,330.498 C1203.98,330.498 1201.18,328.092 1201.18,323.279 C1201.18,321.134 1201.84,318.464 1203.18,315.272 C1204.51,312.079 1206.35,309.67 1208.69,308.045 C1213.71,304.66 1220,302.967 1227.55,302.967"/>
<path class="Note" d="M1837.19,327.373 C1839.08,327.373 1843.03,325.42 1849.06,321.514 C1855.08,317.607 1858.63,314.988 1859.71,313.654 C1860.78,312.321 1861.31,311.134 1861.31,310.092 C1861.31,309.05 1860.89,308.123 1860.04,307.311 C1859.19,306.498 1858.22,306.092 1857.11,306.092 C1855.16,306.092 1851.18,308.061 1845.15,311.998 C1839.12,315.936 1835.59,318.555 1834.55,319.857 C1833.51,321.16 1832.99,322.331 1832.99,323.373 C1832.99,324.415 1833.4,325.342 1834.21,326.154 C1835.03,326.967 1836.02,327.373 1837.19,327.373 M1856.14,302.967 C1861.74,302.967 1864.53,305.373 1864.53,310.186 C1864.53,312.529 1863.85,315.248 1862.49,318.342 C1861.12,321.436 1859.3,323.795 1857.02,325.42 C1852.01,328.805 1845.73,330.498 1838.17,330.498 C1832.57,330.498 1829.77,328.092 1829.77,323.279 C1829.77,321.134 1830.43,318.464 1831.77,315.272 C1833.1,312.079 1834.94,309.67 1837.28,308.045 C1842.3,304.66 1848.59,302.967 1856.14,302.967"/>
<path class="Note" d="M362.811,402.373 C364.696,402.373 368.652,400.42 374.678,396.514 C380.704,392.608 384.253,389.988 385.326,388.654 C386.399,387.321 386.936,386.134 386.936,385.092 C386.936,384.05 386.511,383.123 385.662,382.311 C384.813,381.498 383.837,381.092 382.732,381.092 C380.785,381.092 376.798,383.061 370.772,386.998 C364.746,390.936 361.212,393.555 360.17,394.858 C359.128,396.16 358.607,397.331 358.607,398.373 C358.607,399.415 359.016,400.342 359.834,401.154 C360.652,401.967 361.644,402.373 362.811,402.373 M381.764,377.967 C387.357,377.967 390.154,380.373 390.154,385.186 C390.154,387.529 389.472,390.248 388.107,393.342 C386.743,396.436 384.92,398.795 382.639,400.42 C377.628,403.805 371.347,405.498 363.795,405.498 C358.191,405.498 355.389,403.092 355.389,398.279 C355.389,396.134 356.055,393.464 357.389,390.272 C358.722,387.079 360.561,384.67 362.904,383.045 C367.925,379.66 374.212,377.967 381.764,377.967"/>
<path class="Note" d="M2394.04,389.873 C2395.92,389.873 2399.88,387.92 2405.9,384.014 C2411.93,380.108 2415.48,377.488 2416.55,376.154 C2417.63,374.821 2418.16,373.634 2418.16,372.592 C2418.16,371.55 2417.74,370.623 2416.89,369.811 C2416.04,368.998 2415.06,368.592 2413.96,368.592 C2412.01,368.592 2408.02,370.561 2402,374.498 C2395.97,378.436 2392.44,381.055 2391.4,382.358 C2390.36,383.66 2389.83,384.831 2389.83,385.873 C2389.83,386.915 2390.24,387.842 2391.06,388.654 C2391.88,389.467 2392.87,389.873 2394.04,389.873 M2412.99,365.467 C2418.58,365.467 2421.38,367.873 2421.38,372.686 C2421.38,375.029 2420.7,377.748 2419.33,380.842 C2417.97,383.936 2416.15,386.295 2413.87,387.92 C2408.86,391.305 2402.57,392.998 2395.02,392.998 C2389.42,392.998 2386.62,390.592 2386.62,385.779 C2386.62,383.634 2387.28,380.964 2388.62,377.772 C2389.95,374.579 2391.79,372.17 2394.13,370.545 C2399.15,367.16 2405.44,365.467 2412.99,365.467"/>
<path class="Note" d="M1332.86,314.873 C1334.74,314.873 1338.7,312.92 1344.73,309.014 C1350.75,305.107 1354.3,302.488 1355.37,301.154 C1356.45,299.821 1356.98,298.634 1356.98,297.592 C1356.98,296.55 1356.56,295.623 1355.71,294.811 C1354.86,293.998 1353.88,293.592 1352.78,293.592 C1350.83,293.592 1346.85,295.561 1340.82,299.498 C1334.79,303.436 1331.26,306.055 1330.22,307.357 C1329.18,308.66 1328.66,309.831 1328.66,310.873 C1328.66,311.915 1329.06,312.842 1329.88,313.654 C1330.7,314.467 1331.69,314.873 1332.86,314.873 M1351.81,290.467 C1357.41,290.467 1360.2,292.873 1360.2,297.686 C1360.2,300.029 1359.52,302.748 1358.16,305.842 C1356.79,308.936 1354.97,311.295 1352.69,312.92 C1347.68,316.305 1341.4,317.998 1333.84,317.998 C1328.24,317.998 1325.44,315.592 1325.44,310.779 C1325.44,308.634 1326.1,305.964 1327.44,302.772 C1328.77,299.579 1330.61,297.17 1332.95,295.545 C1337.97,292.16 1344.26,290.467 1351.81,290.467"/>
<path class="Note" d="M1054.43,352.373 C1056.32,352.373 1060.28,350.42 1066.3,346.514 C1072.33,342.607 1075.88,339.988 1076.95,338.654 C1078.02,337.321 1078.56,336.134 1078.56,335.092 C1078.56,334.05 1078.14,333.123 1077.29,332.311 C1076.44,331.498 1075.46,331.092 1074.36,331.092 C1072.41,331.092 1068.42,333.061 1062.4,336.998 C1056.37,340.936 1052.84,343.555 1051.79,344.857 C1050.75,346.16 1050.23,347.331 1050.23,348.373 C1050.23,349.415 1050.64,350.342 1051.46,351.154 C1052.28,351.967 1053.27,352.373 1054.43,352.373 M1073.39,327.967 C1078.98,327.967 1081.78,330.373 1081.78,335.186 C1081.78,337.529 1081.1,340.248 1079.73,343.342 C1078.37,346.436 1076.54,348.795 1074.26,350.42 C1069.25,353.805 1062.97,355.498 1055.42,355.498 C1049.82,355.498 1047.01,353.092 1047.01,348.279 C1047.01,346.134 1047.68,343.464 1049.01,340.272 C1050.35,337.079 1052.18,334.67 1054.53,333.045 C1059.55,329.66 1065.84,327.967 1073.39,327.967"/>
<path class="Note" d="M930.174,352.373 C932.06,352.373 936.015,350.42 942.041,346.514 C948.067,342.607 951.617,339.988 952.69,338.654 C953.763,337.321 954.299,336.134 954.299,335.092 C954.299,334.05 953.875,333.123 953.026,332.311 C952.177,331.498 951.2,331.092 950.096,331.092 C948.148,331.092 944.161,333.061 938.135,336.998 C932.109,340.936 928.575,343.555 927.534,344.857 C926.492,346.16 925.971,347.331 925.971,348.373 C925.971,349.415 926.38,350.342 927.198,351.154 C928.015,351.967 929.007,352.373 930.174,352.373 M949.127,327.967 C954.721,327.967 957.518,330.373 957.518,335.186 C957.518,337.529 956.836,340.248 955.471,343.342 C954.106,346.436 952.284,348.795 950.002,350.42 C944.992,353.805 938.711,355.498 931.159,355.498 C925.554,355.498 922.752,353.092 922.752,348.279 C922.752,346.134 923.419,343.464 924.752,340.272 C926.086,337.079 927.924,334.67 930.268,333.045 C935.289,329.66 941.575,327.967 949.127,327.967"/>
<path class="Note" d="M1712.93,314.873 C1714.81,314.873 1718.77,312.92 1724.8,309.014 C1730.82,305.107 1734.37,302.488 1735.44,301.154 C1736.52,299.821 1737.05,298.634 1737.05,297.592 C1737.05,296.55 1736.63,295.623 1735.78,294.811 C1734.93,293.998 1733.95,293.592 1732.85,293.592 C1730.9,293.592 1726.92,295.561 1720.89,299.498 C1714.86,303.436 1711.33,306.055 1710.29,307.357 C1709.25,308.66 1708.73,309.831 1708.73,310.873 C1708.73,311.915 1709.13,312.842 1709.95,313.654 C1710.77,314.467 1711.76,314.873 1712.93,314.873 M1731.88,290.467 C1737.48,290.467 1740.27,292.873 1740.27,297.686 C1740.27,300.029 1739.59,302.748 1738.23,305.842 C1736.86,308.936 1735.04,311.295 1732.76,312.92 C1727.75,316.305 1721.47,317.998 1713.91,317.998 C1708.31,317.998 1705.51,315.592 1705.51,310.779 C1705.51,308.634 1706.17,305.964 1707.51,302.772 C1708.84,299.579 1710.68,297.17 1713.02,295.545 C1718.04,292.16 1724.33,290.467 1731.88,290.467"/>
<path class="Note" d="M487.071,389.873 C488.957,389.873 492.913,387.92 498.939,384.014 C504.965,380.108 508.514,377.488 509.587,376.154 C510.66,374.821 511.196,373.634 511.196,372.592 C511.196,371.55 510.772,370.623 509.923,369.811 C509.074,368.998 508.097,368.592 506.993,368.592 C505.045,368.592 501.058,370.561 495.032,374.498 C489.006,378.436 485.472,381.055 484.431,382.358 C483.389,383.66 482.868,384.831 482.868,385.873 C482.868,386.915 483.277,387.842 484.095,388.654 C484.913,389.467 485.905,389.873 487.071,389.873 M506.025,365.467 C511.618,365.467 514.415,367.873 514.415,372.686 C514.415,375.029 513.733,377.748 512.368,380.842 C511.004,383.936 509.181,386.295 506.9,387.92 C501.889,391.305 495.608,392.998 488.056,392.998 C482.452,392.998 479.65,390.592 479.65,385.779 C479.65,383.634 480.316,380.964 481.65,377.772 C482.983,374.579 484.821,372.17 487.165,370.545 C492.186,367.16 498.472,365.467 506.025,365.467"/>
<path class="Note" d="M2115.61,352.373 C2117.5,352.373 2121.45,350.42 2127.48,346.514 C2133.51,342.607 2137.06,339.988 2138.13,338.654 C2139.2,337.321 2139.74,336.134 2139.74,335.092 C2139.74,334.05 2139.31,333.123 2138.47,332.311 C2137.62,331.498 2136.64,331.092 2135.54,331.092 C2133.59,331.092 2129.6,333.061 2123.57,336.998 C2117.55,340.936 2114.01,343.555 2112.97,344.857 C2111.93,346.16 2111.41,347.331 2111.41,348.373 C2111.41,349.415 2111.82,350.342 2112.64,351.154 C2113.45,351.967 2114.45,352.373 2115.61,352.373 M2134.57,327.967 C2140.16,327.967 2142.96,330.373 2142.96,335.186 C2142.96,337.529 2142.28,340.248 2140.91,343.342 C2139.55,346.436 2137.72,348.795 2135.44,350.42 C2130.43,353.805 2124.15,355.498 2116.6,355.498 C2110.99,355.498 2108.19,353.092 2108.19,348.279 C2108.19,346.134 2108.86,343.464 2110.19,340.272 C2111.53,337.079 2113.36,334.67 2115.71,333.045 C2120.73,329.66 2127.01,327.967 2134.57,327.967"/>
<path class="Note" d="M2682.98,402.373 C2684.86,402.373 2688.82,400.42 2694.84,396.514 C2700.87,392.608 2704.42,389.988 2705.49,388.654 C2706.57,387.321 2707.1,386.134 2707.1,385.092 C2707.1,384.05 2706.68,383.123 2705.83,382.311 C2704.98,381.498 2704,381.092 2702.9,381.092 C2700.95,381.092 2696.96,383.061 2690.94,386.998 C2684.91,390.936 2681.38,393.555 2680.34,394.858 C2679.29,396.16 2678.77,397.331 2678.77,398.373 C2678.77,399.415 2679.18,400.342 2680,401.154 C2680.82,401.967 2681.81,402.373 2682.98,402.373 M2701.93,377.967 C2707.52,377.967 2710.32,380.373 2710.32,385.186 C2710.32,387.529 2709.64,390.248 2708.27,393.342 C2706.91,396.436 2705.09,398.795 2702.81,400.42 C2697.79,403.805 2691.51,405.498 2683.96,405.498 C2678.36,405.498 2675.56,403.092 2675.56,398.279 C2675.56,396.134 2676.22,393.464 2677.56,390.272 C2678.89,387.079 2680.73,384.67 2683.07,383.045 C2688.09,379.66 2694.38,377.967 2701.93,377.967"/>
<path class="Note" d="M1991.35,352.373 C1993.24,352.373 1997.19,350.42 2003.22,346.514 C2009.25,342.607 2012.8,339.988 2013.87,338.654 C2014.94,337.321 2015.48,336.134 2015.48,335.092 C2015.48,334.05 2015.05,333.123 2014.2,332.311 C2013.36,331.498 2012.38,331.092 2011.27,331.092 C2009.33,331.092 2005.34,333.061 1999.31,336.998 C1993.29,340.936 1989.75,343.555 1988.71,344.857 C1987.67,346.16 1987.15,347.331 1987.15,348.373 C1987.15,349.415 1987.56,350.342 1988.38,351.154 C1989.19,351.967 1990.19,352.373 1991.35,352.373 M2010.31,327.967 C2015.9,327.967 2018.7,330.373 2018.7,335.186 C2018.7,337.529 2018.01,340.248 2016.65,343.342 C2015.29,346.436 2013.46,348.795 2011.18,350.42 C2006.17,353.805 1999.89,355.498 1992.34,355.498 C1986.73,355.498 1983.93,353.092 1983.93,348.279 C1983.93,346.134 1984.6,343.464 1985.93,340.272 C1987.26,337.079 1989.1,334.67 1991.45,333.045 C1996.47,329.66 2002.75,327.967 2010.31,327.967"/>
<path class="Note" d="M765.495,377.373 C767.381,377.373 771.336,375.42 777.363,371.514 C783.389,367.608 786.938,364.988 788.011,363.654 C789.084,362.321 789.62,361.134 789.62,360.092 C789.62,359.05 789.196,358.123 788.347,357.311 C787.498,356.498 786.521,356.092 785.417,356.092 C783.469,356.092 779.482,358.061 773.456,361.998 C767.43,365.936 763.896,368.555 762.855,369.858 C761.813,371.16 761.292,372.331 761.292,373.373 C761.292,374.415 761.701,375.342 762.519,376.154 C763.336,376.967 764.329,377.373 765.495,377.373 M784.448,352.967 C790.042,352.967 792.839,355.373 792.839,360.186 C792.839,362.529 792.157,365.248 790.792,368.342 C789.428,371.436 787.605,373.795 785.323,375.42 C780.313,378.805 774.032,380.498 766.48,380.498 C760.876,380.498 758.073,378.092 758.073,373.279 C758.073,371.134 758.74,368.464 760.073,365.272 C761.407,362.079 763.245,359.67 765.589,358.045 C770.61,354.66 776.896,352.967 784.448,352.967"/>
<path class="Clef" d="M203.623,423.858 L203.623,421.717 C203.56,420.613 203.399,418.889 203.139,416.545 C199.889,417.066 196.993,417.326 194.451,417.326 C185.337,417.326 177.605,413.727 171.256,406.529 C164.907,399.331 161.732,390.753 161.732,380.795 C161.732,378.128 162.253,374.923 163.295,371.178 C164.337,367.433 165.297,364.925 166.178,363.654 C167.058,362.384 168.378,360.154 170.139,356.967 C170.659,355.988 172.352,353.837 175.217,350.514 C175.738,349.805 176.193,349.222 176.584,348.764 C176.975,348.305 177.607,347.49 178.482,346.318 C179.357,345.147 180.3,344.055 181.31,343.045 C182.321,342.035 183.217,341.058 183.998,340.115 C184.779,339.173 185.498,338.378 186.154,337.733 C183.81,329.983 182.378,324.024 181.857,319.858 C181.337,315.691 181.076,310.579 181.076,304.522 C181.076,298.464 182.378,292.962 184.982,288.014 C187.514,282.878 191.06,278.68 195.623,275.42 C195.883,275.222 196.225,275.123 196.646,275.123 C197.068,275.123 197.378,275.222 197.576,275.42 C201.087,279.649 204.128,285.149 206.701,291.92 C209.274,298.691 210.56,305.024 210.56,310.92 C210.56,316.816 209.066,322.498 206.076,327.967 C202.691,333.759 198.326,339.748 192.982,345.936 C194.347,350.227 196.17,356.962 198.451,366.139 L199.045,366.139 C199.305,366.076 199.529,366.045 199.717,366.045 C207.081,366.045 213.089,368.634 217.74,373.811 C222.391,378.988 224.717,384.962 224.717,391.733 C224.717,400.128 221.238,406.899 214.279,412.045 C212.258,413.545 209.878,414.717 207.139,415.561 C207.472,419.79 207.639,422.605 207.639,424.006 C207.639,425.407 207.571,427.899 207.435,431.483 C207.373,437.597 205.29,442.837 201.185,447.201 C197.081,451.566 192.394,453.748 187.123,453.748 C181.852,453.748 177.36,451.876 173.646,448.131 C169.933,444.386 168.076,439.847 168.076,434.514 C168.076,431.712 169.154,429.331 171.31,427.373 C173.519,425.425 176.006,424.451 178.771,424.451 C181.537,424.451 183.8,425.462 185.56,427.483 C187.383,429.368 188.295,431.644 188.295,434.311 C188.295,436.977 187.383,439.222 185.56,441.045 C183.738,442.868 181.555,443.779 179.014,443.779 C177.972,443.779 176.967,443.587 175.998,443.201 C178.863,447.43 182.54,449.545 187.029,449.545 C191.519,449.545 195.36,447.691 198.553,443.983 C201.745,440.274 203.342,435.91 203.342,430.889 L203.623,423.858 M206.748,411.561 C210.133,410.321 212.821,408.123 214.81,404.967 C216.8,401.811 217.795,398.67 217.795,395.545 C217.795,390.92 216.199,386.785 213.006,383.139 C209.813,379.493 205.774,377.441 200.889,376.983 C203.691,390.722 205.644,402.248 206.748,411.561 M168.967,388.998 C168.967,395.446 171.537,401.079 176.678,405.897 C181.818,410.714 187.842,413.123 194.748,413.123 C197.477,413.123 200.144,412.925 202.748,412.529 C201.706,402.634 199.654,390.785 196.592,376.983 C192.758,377.378 189.782,378.699 187.662,380.943 C185.542,383.188 184.482,385.743 184.482,388.608 C184.482,393.555 187.123,397.561 192.404,400.623 C192.852,400.884 193.076,401.324 193.076,401.943 C193.076,402.563 192.865,403.1 192.443,403.553 C192.021,404.006 191.649,404.233 191.326,404.233 C191.003,404.233 190.581,404.17 190.06,404.045 C182.435,399.878 178.623,393.592 178.623,385.186 C178.623,381.217 180.024,377.41 182.826,373.764 C185.753,370.118 189.56,367.774 194.248,366.733 C192.425,359.441 190.93,353.743 189.764,349.639 C180.847,359.67 175.31,367.092 173.154,371.904 C170.363,378.154 168.967,383.852 168.967,388.998 M201.576,289.686 C196.691,292.092 192.834,295.574 190.006,300.131 C187.178,304.688 185.764,309.472 185.764,314.483 C185.764,319.493 186.935,325.972 189.279,333.92 C193.967,328.253 197.514,322.946 199.92,317.998 C202.326,313.05 203.529,308.152 203.529,303.303 C203.529,298.454 202.878,293.915 201.576,289.686"/>
<path class="TimeSig" d="M273.021,317.912 C274.516,317.912 275.949,317.686 277.318,317.232 C278.688,316.779 279.665,316.553 280.248,316.553 C280.831,316.553 281.222,316.907 281.42,317.615 C281.42,317.688 281.352,317.886 281.217,318.209 L252.811,351.225 L269.498,351.225 L269.498,338.131 C269.498,336.506 270.446,335.334 272.342,334.615 C274.29,333.897 276.503,331.001 278.982,325.928 C279.17,325.532 279.462,325.334 279.857,325.334 C280.639,325.334 281.092,325.792 281.217,326.709 L281.217,351.225 L288.357,351.225 C289.264,351.225 289.751,351.712 289.818,352.686 C289.886,353.66 289.399,354.147 288.357,354.147 L281.217,354.147 L281.217,354.928 C281.217,357.532 281.868,359.746 283.17,361.568 C284.67,363.391 286.43,364.303 288.451,364.303 C289.232,364.303 289.623,364.693 289.623,365.475 C289.623,366.256 289.087,366.647 288.014,366.647 C286.941,366.647 284.938,366.436 282.006,366.014 C279.074,365.592 276.811,365.381 275.217,365.381 C273.623,365.381 271.41,365.592 268.576,366.014 C265.743,366.436 263.613,366.647 262.186,366.647 C261.404,366.647 261.014,366.256 261.014,365.475 C261.014,364.693 261.404,364.303 262.186,364.303 C264.196,364.303 265.951,363.391 267.451,361.568 C268.816,359.683 269.498,357.469 269.498,354.928 L269.498,354.147 L252.811,354.147 C251.956,354.147 251.219,353.92 250.6,353.467 C249.98,353.014 249.67,352.592 249.67,352.201 C249.67,351.811 250.485,350.639 252.115,348.686 C253.745,346.732 256.074,342.972 259.1,337.404 C262.126,331.837 263.639,325.438 263.639,318.209 C263.639,317.167 264.097,316.647 265.014,316.647 C265.212,316.647 265.521,316.712 265.943,316.842 C266.365,316.972 267.277,317.183 268.678,317.475 C270.079,317.766 271.527,317.912 273.021,317.912"/>
<path class="TimeSig" d="M273.021,368.084 C274.516,368.084 275.949,367.858 277.318,367.404 C278.688,366.951 279.665,366.725 280.248,366.725 C280.831,366.725 281.222,367.079 281.42,367.787 C281.42,367.86 281.352,368.058 281.217,368.381 L252.811,401.397 L269.498,401.397 L269.498,388.303 C269.498,386.678 270.446,385.506 272.342,384.787 C274.29,384.068 276.503,381.173 278.982,376.1 C279.17,375.704 279.462,375.506 279.857,375.506 C280.639,375.506 281.092,375.964 281.217,376.881 L281.217,401.397 L288.357,401.397 C289.264,401.397 289.751,401.884 289.818,402.858 C289.886,403.831 289.399,404.318 288.357,404.318 L281.217,404.318 L281.217,405.1 C281.217,407.704 281.868,409.917 283.17,411.74 C284.67,413.563 286.43,414.475 288.451,414.475 C289.232,414.475 289.623,414.865 289.623,415.647 C289.623,416.428 289.087,416.818 288.014,416.818 C286.941,416.818 284.938,416.608 282.006,416.186 C279.074,415.764 276.811,415.553 275.217,415.553 C273.623,415.553 271.41,415.764 268.576,416.186 C265.743,416.608 263.613,416.818 262.186,416.818 C261.404,416.818 261.014,416.428 261.014,415.647 C261.014,414.865 261.404,414.475 262.186,414.475 C264.196,414.475 265.951,413.563 267.451,411.74 C268.816,409.855 269.498,407.641 269.498,405.1 L269.498,404.318 L252.811,404.318 C251.956,404.318 251.219,404.092 250.6,403.639 C249.98,403.186 249.67,402.764 249.67,402.373 C249.67,401.983 250.485,400.811 252.115,398.858 C253.745,396.904 256.074,393.144 259.1,387.576 C262.126,382.009 263.639,375.61 263.639,368.381 C263.639,367.339 264.097,366.818 265.014,366.818 C265.212,366.818 265.521,366.884 265.943,367.014 C266.365,367.144 267.277,367.355 268.678,367.647 C270.079,367.938 271.527,368.084 273.021,368.084"/>
<path class="Rest" d="M1578.08,357.357 L1542.53,357.357 C1541.87,357.357 1541.55,357.035 1541.55,356.389 L1541.55,342.717 C1541.55,342.061 1541.87,341.732 1542.53,341.732 L1578.08,341.732 C1578.72,341.732 1579.05,342.061 1579.05,342.717 L1579.05,356.389 C1579.05,357.035 1578.72,357.357 1578.08,357.357"/>
</svg>
