<?xml version="1.0" encoding="UTF-8" standalone="no"?>
<svg width="2977.2px" height="4208.4px" viewBox="0 0 2977.2 4208.4"
 xmlns="http://www.w3.org/2000/svg" xmlns:xlink="http://www.w3.org/1999/xlink" version="1.2" baseProfile="tiny">
<title>America_The_Beautiful.mscx</title>
<desc>Generated by MuseScore Studio 4.3.1</desc>
<path class="" fill="#ffffff" fill-rule="evenodd" d="M0,0 L2977.2,0 L2977.2,4208.4 L0,4208.4 L0,0 "/>
<polyline class="StaffLines" fill="none" stroke="#000000" stroke-width="2.00" stroke-linejoin="bevel" points="141.732,316.732 2835.47,316.732"/>
<polyline class="StaffLines" fill="none" stroke="#000000" stroke-width="2.00" stroke-linejoin="bevel" points="141.732,341.732 2835.47,341.732"/>
<polyline class="StaffLines" fill="none" stroke="#000000" stroke-width="2.00" stroke-linejoin="bevel" points="141.732,366.733 2835.47,366.733"/>
<polyline class="StaffLines" fill="none" stroke="#000000" stroke-width="2.00" stroke-linejoin="bevel" points="141.732,391.733 2835.47,391.733"/>
<polyline class="StaffLines" fill="none" stroke="#000000" stroke-width="2.00" stroke-linejoin="bevel" points="141.732,416.733 2835.47,416.733"/>
<polyline class="StaffLines" fill="none" stroke="#000000" stroke-width="2.00" stroke-linejoin="bevel" points="141.732,791.733 2835.47,791.733"/>
<polyline class="StaffLines" fill="none" stroke="#000000" stroke-width="2.00" stroke-linejoin="bevel" points="141.732,816.733 2835.47,816.733"/>
<polyline class="StaffLines" fill="none" stroke="#000000" stroke-width="2.00" stroke-linejoin="bevel" points="141.732,841.733 2835.47,841.733"/>
<polyline class="StaffLines" fill="none" stroke="#000000" stroke-width="2.00" stroke-linejoin="bevel" points="141.732,866.733 2835.47,866.733"/>
<polyline class="StaffLines" fill="none" stroke="#000000" stroke-width="2.00" stroke-linejoin="bevel" points="141.732,891.733 2835.47,891.733"/>
<polyline class="StaffLines" fill="none" stroke="#000000" stroke-width="2.00" stroke-linejoin="bevel" points="141.732,1266.73 2835.47,1266.73"/>
<polyline class="StaffLines" fill="none" stroke="#000000" stroke-width="2.00" stroke-linejoin="bevel" points="141.732,1291.73 2835.47,1291.73"/>
<polyline class="StaffLines" fill="none" stroke="#000000" stroke-width="2.00" stroke-linejoin="bevel" points="141.732,1316.73 2835.47,1316.73"/>
<polyline class="StaffLines" fill="none" stroke="#000000" stroke-width="2.00" stroke-linejoin="bevel" points="141.732,1341.73 2835.47,1341.73"/>
<polyline class="StaffLines" fill="none" stroke="#000000" stroke-width="2.00" stroke-linejoin="bevel" points="141.732,1366.73 2835.47,1366.73"/>
<polyline class="StaffLines" fill="none" stroke="#000000" stroke-width="2.00" stroke-linejoin="bevel" points="141.732,1741.73 2835.47,1741.73"/>
<polyline class="StaffLines" fill="none" stroke="#000000" stroke-width="2.00" stroke-linejoin="bevel" points="141.732,1766.73 2835.47,1766.73"/>
<polyline class="StaffLines" fill="none" stroke="#000000" stroke-width="2.00" stroke-linejoin="bevel" points="141.732,1791.73 2835.47,1791.73"/>
<polyline class="StaffLines" fill="none" stroke="#000000" stroke-width="2.00" stroke-linejoin="bevel" points="141.732,1816.73 2835.47,1816.73"/>
<polyline class="StaffLines" fill="none" stroke="#000000" stroke-width="2.00" stroke-linejoin="bevel" points="141.732,1841.73 2835.47,1841.73"/>
<path class="MeasureNumber" d="M134.092,1217.61 L133.967,1216.81 C137.008,1216.28 139.589,1214.98 141.709,1212.92 C143.829,1210.86 145.3,1208.2 146.123,1204.94 C144.154,1206.48 142.159,1207.25 140.139,1207.25 C137.972,1207.25 136.23,1206.5 134.912,1205.01 C133.594,1203.51 132.935,1201.55 132.935,1199.11 C132.935,1196.4 133.727,1194.14 135.31,1192.33 C136.894,1190.53 138.873,1189.62 141.248,1189.62 C143.831,1189.62 145.951,1190.68 147.607,1192.8 C149.264,1194.91 150.092,1197.63 150.092,1200.95 C150.092,1202.01 149.998,1203.11 149.81,1204.23 C149.623,1205.36 149.188,1206.69 148.506,1208.23 C147.824,1209.76 146.938,1211.14 145.85,1212.35 C144.761,1213.56 143.204,1214.67 141.178,1215.65 C139.152,1216.64 136.79,1217.3 134.092,1217.61 M141.576,1205.5 C142.076,1205.5 142.646,1205.43 143.287,1205.28 C143.928,1205.13 144.576,1204.81 145.232,1204.32 C145.889,1203.82 146.217,1203.22 146.217,1202.5 L146.217,1200.95 C146.217,1194.19 144.456,1190.81 140.935,1190.81 C140.102,1190.81 139.394,1191.03 138.81,1191.48 C138.227,1191.92 137.782,1192.5 137.475,1193.21 C137.167,1193.92 136.946,1194.65 136.81,1195.4 C136.675,1196.14 136.607,1196.93 136.607,1197.76 C136.607,1200.13 137.055,1202.01 137.951,1203.4 C138.847,1204.8 140.055,1205.5 141.576,1205.5"/>
<path class="MeasureNumber" d="M146.514,733.873 C146.514,732.446 146.199,731.181 145.568,730.076 C144.938,728.972 144.178,728.118 143.287,727.514 C142.396,726.91 141.399,726.412 140.295,726.022 C139.191,725.631 138.23,725.376 137.412,725.256 C136.594,725.136 135.883,725.076 135.279,725.076 C134.956,725.076 134.795,724.967 134.795,724.748 C134.795,724.675 134.805,724.613 134.826,724.561 L139.185,715.264 L147.545,715.264 C147.972,715.264 148.313,715.196 148.568,715.061 C148.824,714.925 149.097,714.644 149.389,714.217 L149.748,714.498 L148.232,717.842 C148.128,718.061 147.821,718.17 147.31,718.17 L139.467,718.17 L137.795,721.608 C141.68,722.306 144.571,723.441 146.467,725.014 C148.363,726.587 149.31,728.894 149.31,731.936 C149.31,733.53 149.063,734.946 148.568,736.186 C148.074,737.425 147.446,738.423 146.685,739.178 C145.925,739.933 145.045,740.553 144.045,741.037 C143.045,741.522 142.087,741.853 141.17,742.03 C140.253,742.207 139.326,742.295 138.389,742.295 C136.899,742.295 135.714,742.074 134.834,741.631 C133.954,741.188 133.514,740.582 133.514,739.811 C133.514,738.821 134.087,738.326 135.232,738.326 C135.982,738.326 136.949,738.735 138.131,739.553 C139.313,740.371 140.253,740.78 140.951,740.78 C142.524,740.78 143.844,740.113 144.912,738.78 C145.98,737.446 146.514,735.811 146.514,733.873"/>
<path class="MeasureNumber" d="M128.045,1668.01 C127.566,1668.01 126.607,1668.31 125.17,1668.89 L125.17,1668.34 L132.373,1664.7 L132.685,1664.78 L132.685,1688.78 C132.685,1689.74 132.925,1690.36 133.404,1690.66 C133.883,1690.95 134.909,1691.11 136.482,1691.14 L136.482,1691.73 L125.451,1691.73 L125.451,1691.14 C126.941,1691.08 127.946,1690.85 128.467,1690.47 C128.988,1690.08 129.248,1689.26 129.248,1688.01 L129.248,1669.89 C129.248,1668.64 128.847,1668.01 128.045,1668.01 M143.951,1688.61 C144.566,1688.61 145.48,1688.97 146.693,1689.69 C147.907,1690.42 148.967,1690.78 149.873,1690.78 C151.342,1690.78 152.581,1690.21 153.592,1689.07 C154.602,1687.93 155.107,1686.53 155.107,1684.86 C155.107,1683.82 154.928,1682.9 154.568,1682.11 C154.209,1681.32 153.751,1680.7 153.193,1680.26 C152.636,1679.83 151.969,1679.47 151.193,1679.19 C150.417,1678.92 149.691,1678.74 149.014,1678.66 C148.337,1678.57 147.613,1678.53 146.842,1678.53 L146.842,1678.01 C147.748,1677.69 148.527,1677.38 149.178,1677.07 C149.829,1676.76 150.514,1676.35 151.232,1675.83 C151.951,1675.32 152.506,1674.69 152.896,1673.94 C153.287,1673.19 153.482,1672.33 153.482,1671.37 C153.482,1670.12 153.074,1669.1 152.256,1668.3 C151.438,1667.49 150.378,1667.09 149.076,1667.09 C147.826,1667.09 146.727,1667.43 145.779,1668.12 C144.831,1668.8 143.946,1669.87 143.123,1671.34 L142.514,1671.17 C143.212,1669.29 144.154,1667.74 145.342,1666.52 C146.529,1665.31 148.212,1664.7 150.389,1664.7 C152.232,1664.7 153.735,1665.21 154.896,1666.22 C156.058,1667.23 156.639,1668.55 156.639,1670.17 C156.639,1671.26 156.357,1672.23 155.795,1673.05 C155.232,1673.88 154.258,1674.76 152.873,1675.7 C154.477,1676.39 155.732,1677.27 156.639,1678.34 C157.545,1679.42 157.998,1680.95 157.998,1682.95 C157.998,1685.79 156.951,1688.05 154.857,1689.75 C152.764,1691.45 150.128,1692.3 146.951,1692.3 C145.566,1692.3 144.467,1692.09 143.654,1691.67 C142.842,1691.25 142.435,1690.7 142.435,1690.01 C142.435,1689.59 142.576,1689.25 142.857,1688.99 C143.139,1688.74 143.503,1688.61 143.951,1688.61"/>
<polyline class="BarLine" fill="none" stroke="#000000" stroke-width="4.00" stroke-linejoin="bevel" points="1475.17,790.733 1475.17,892.733"/>
<polyline class="BarLine" fill="none" stroke="#000000" stroke-width="4.00" stroke-linejoin="bevel" points="2833.47,790.733 2833.47,892.733"/>
<polyline class="BarLine" fill="none" stroke="#000000" stroke-width="4.00" stroke-linejoin="bevel" points="2457.05,1740.73 2457.05,1842.73"/>
<polyline class="BarLine" fill="none" stroke="#000000" stroke-width="4.00" stroke-linejoin="bevel" points="1879.84,1740.73 1879.84,1842.73"/>
<polyline class="BarLine" fill="none" stroke="#000000" stroke-width="4.00" stroke-linejoin="bevel" points="810.122,1265.73 810.122,1367.73"/>
<polyline class="BarLine" fill="none" stroke="#000000" stroke-width="4.00" stroke-linejoin="bevel" points="2142.69,790.733 2142.69,892.733"/>
<polyline class="BarLine" fill="none" stroke="#000000" stroke-width="4.00" stroke-linejoin="bevel" points="1322.18,315.732 1322.18,417.733"/>
<polyline class="BarLine" fill="none" stroke="#000000" stroke-width="4.00" stroke-linejoin="bevel" points="1481,1265.73 1481,1367.73"/>
<polyline class="BarLine" fill="none" stroke="#000000" stroke-width="4.00" stroke-linejoin="bevel" points="2071.81,315.732 2071.81,417.733"/>
<polyline class="BarLine" fill="none" stroke="#000000" stroke-width="4.00" stroke-linejoin="bevel" points="2151.88,1265.73 2151.88,1367.73"/>
<polyline class="BarLine" fill="none" stroke="#000000" stroke-width="4.00" stroke-linejoin="bevel" points="2833.47,1265.73 2833.47,1367.73"/>
<polyline class="BarLine" fill="none" stroke="#000000" stroke-width="4.00" stroke-linejoin="bevel" points="734.409,1740.73 734.409,1842.73"/>
<polyline class="BarLine" fill="none" stroke="#000000" stroke-width="4.00" stroke-linejoin="bevel" points="807.647,790.733 807.647,892.733"/>
<polyline class="BarLine" fill="none" stroke="#000000" stroke-width="4.00" stroke-linejoin="bevel" points="572.553,315.732 572.553,417.733"/>
<polyline class="BarLine" fill="none" stroke="#000000" stroke-width="4.00" stroke-linejoin="bevel" points="1302.62,1740.73 1302.62,1842.73"/>
<polyline class="BarLine" fill="none" stroke="#000000" stroke-width="4.00" stroke-linejoin="bevel" points="2802.72,1740.73 2802.72,1842.73"/>
<polyline class="BarLine" fill="none" stroke="#000000" stroke-width="12.50" stroke-linejoin="bevel" points="2829.22,1740.73 2829.22,1842.73"/>
<polyline class="BarLine" fill="none" stroke="#000000" stroke-width="4.00" stroke-linejoin="bevel" points="2833.47,315.732 2833.47,417.733"/>
<path class="Accidental" d="M2174.87,769.764 C2176.31,769.368 2177.02,769.722 2177.02,770.827 L2177.02,778.639 C2177.02,779.42 2176.41,780.04 2175.17,780.498 L2171.95,781.764 L2171.95,795.936 L2174.87,794.764 C2176.31,794.368 2177.02,794.728 2177.02,795.842 L2177.02,803.655 C2177.02,804.436 2176.41,805.05 2175.17,805.498 L2171.95,806.78 L2171.95,822.983 C2171.95,824.222 2171.46,824.842 2170.48,824.842 C2169.5,824.842 2169.01,824.222 2169.01,822.983 L2169.01,807.952 L2159.73,811.655 L2159.73,827.764 C2159.73,829.004 2159.24,829.623 2158.27,829.623 C2157.29,829.623 2156.81,829.004 2156.81,827.764 L2156.81,812.827 L2154.26,813.905 C2152.89,814.488 2152.21,814.097 2152.21,812.733 L2152.21,805.014 C2152.21,804.368 2152.8,803.785 2153.98,803.264 L2156.81,802.092 L2156.81,787.827 L2154.26,788.905 C2152.89,789.488 2152.21,789.097 2152.21,787.733 L2152.21,780.014 C2152.21,779.358 2152.8,778.769 2153.98,778.248 L2156.81,777.077 L2156.81,760.967 C2156.81,759.728 2157.29,759.108 2158.27,759.108 C2159.24,759.108 2159.73,759.728 2159.73,760.967 L2159.73,775.905 L2169.01,772.108 L2169.01,756.186 C2169.01,754.946 2169.5,754.327 2170.48,754.327 C2171.46,754.327 2171.95,754.946 2171.95,756.186 L2171.95,770.936 L2174.87,769.764 M2159.73,786.655 L2159.73,800.92 L2169.01,797.108 L2169.01,782.936 L2159.73,786.655 "/>
<polyline class="LedgerLine" fill="none" stroke="#000000" stroke-width="4.00" stroke-linejoin="bevel" points="2497.38,766.733 2549.29,766.733"/>
<polyline class="LedgerLine" fill="none" stroke="#000000" stroke-width="4.00" stroke-linejoin="bevel" points="1034.44,1241.73 1086.35,1241.73"/>
<polyline class="LedgerLine" fill="none" stroke="#000000" stroke-width="4.00" stroke-linejoin="bevel" points="827.622,1241.73 879.536,1241.73"/>
<polyline class="Stem" fill="none" stroke="#000000" stroke-width="3.25" stroke-linejoin="bevel" points="1350.81,360.102 1350.81,435.483"/>
<polyline class="Stem" fill="none" stroke="#000000" stroke-width="3.25" stroke-linejoin="bevel" points="1742.41,1785.1 1742.41,1860.48"/>
<polyline class="Stem" fill="none" stroke="#000000" stroke-width="3.25" stroke-linejoin="bevel" points="1509.63,1272.6 1509.63,1354.23"/>
<polyline class="Stem" fill="none" stroke="#000000" stroke-width="3.25" stroke-linejoin="bevel" points="1138.64,360.102 1138.64,435.483"/>
<polyline class="Stem" fill="none" stroke="#000000" stroke-width="3.25" stroke-linejoin="bevel" points="1317.48,1272.6 1317.48,1354.23"/>
<polyline class="Stem" fill="none" stroke="#000000" stroke-width="3.25" stroke-linejoin="bevel" points="1154.33,1260.1 1154.33,1341.73"/>
<polyline class="Stem" fill="none" stroke="#000000" stroke-width="3.25" stroke-linejoin="bevel" points="1045.56,1247.6 1045.56,1329.83"/>
<polyline class="Stem" fill="none" stroke="#000000" stroke-width="3.25" stroke-linejoin="bevel" points="838.747,1247.6 838.747,1329.23"/>
<polyline class="Stem" fill="none" stroke="#000000" stroke-width="3.25" stroke-linejoin="bevel" points="1716.44,1285.1 1716.44,1367.33"/>
<polyline class="Stem" fill="none" stroke="#000000" stroke-width="3.25" stroke-linejoin="bevel" points="646.6,1310.1 646.6,1385.48"/>
<polyline class="Stem" fill="none" stroke="#000000" stroke-width="3.25" stroke-linejoin="bevel" points="335.471,1259.13 335.471,1341.73"/>
<polyline class="Stem" fill="none" stroke="#000000" stroke-width="3.25" stroke-linejoin="bevel" points="1908.46,1772.6 1908.46,1854.23"/>
<polyline class="Stem" fill="none" stroke="#000000" stroke-width="3.25" stroke-linejoin="bevel" points="1612.66,385.863 1612.66,303.532"/>
<polyline class="Stem" fill="none" stroke="#000000" stroke-width="3.25" stroke-linejoin="bevel" points="1734.77,385.863 1734.77,304.232"/>
<polyline class="Stem" fill="none" stroke="#000000" stroke-width="3.25" stroke-linejoin="bevel" points="2670.8,822.602 2670.8,904.233"/>
<polyline class="Stem" fill="none" stroke="#000000" stroke-width="3.25" stroke-linejoin="bevel" points="2508.5,772.602 2508.5,854.233"/>
<polyline class="Stem" fill="none" stroke="#000000" stroke-width="3.25" stroke-linejoin="bevel" points="2346.21,785.102 2346.21,866.733"/>
<polyline class="Stem" fill="none" stroke="#000000" stroke-width="3.25" stroke-linejoin="bevel" points="335.471,1746.63 335.471,1829.23"/>
<polyline class="Stem" fill="none" stroke="#000000" stroke-width="3.25" stroke-linejoin="bevel" points="1331.25,1747.6 1331.25,1829.23"/>
<polyline class="Stem" fill="none" stroke="#000000" stroke-width="3.25" stroke-linejoin="bevel" points="389.014,360.102 389.014,435.483"/>
<polyline class="Stem" fill="none" stroke="#000000" stroke-width="3.25" stroke-linejoin="bevel" points="1165.19,1747.6 1165.19,1829.23"/>
<polyline class="Stem" fill="none" stroke="#000000" stroke-width="3.25" stroke-linejoin="bevel" points="1028.14,1772.6 1028.14,1854.23"/>
<polyline class="Stem" fill="none" stroke="#000000" stroke-width="3.25" stroke-linejoin="bevel" points="936.772,1772.6 936.772,1854.83"/>
<polyline class="Stem" fill="none" stroke="#000000" stroke-width="3.25" stroke-linejoin="bevel" points="763.034,1747.6 763.034,1829.23"/>
<polyline class="Stem" fill="none" stroke="#000000" stroke-width="3.25" stroke-linejoin="bevel" points="601.178,360.102 601.178,435.483"/>
<polyline class="Stem" fill="none" stroke="#000000" stroke-width="3.25" stroke-linejoin="bevel" points="596.981,1747.6 596.981,1829.23"/>
<polyline class="Stem" fill="none" stroke="#000000" stroke-width="3.25" stroke-linejoin="bevel" points="1468.3,1785.1 1468.3,1860.48"/>
<polyline class="Stem" fill="none" stroke="#000000" stroke-width="3.25" stroke-linejoin="bevel" points="2649.93,335.102 2649.93,416.733"/>
<polyline class="Stem" fill="none" stroke="#000000" stroke-width="3.25" stroke-linejoin="bevel" points="1605.35,1785.1 1605.35,1860.48"/>
<polyline class="Stem" fill="none" stroke="#000000" stroke-width="3.25" stroke-linejoin="bevel" points="863.034,373.363 863.034,297.282"/>
<polyline class="Stem" fill="none" stroke="#000000" stroke-width="3.25" stroke-linejoin="bevel" points="2669.95,1310.1 2669.95,1385.48"/>
<polyline class="Stem" fill="none" stroke="#000000" stroke-width="3.25" stroke-linejoin="bevel" points="2506.8,1297.6 2506.8,1379.23"/>
<polyline class="Stem" fill="none" stroke="#000000" stroke-width="3.25" stroke-linejoin="bevel" points="2343.65,1285.1 2343.65,1366.73"/>
<polyline class="Stem" fill="none" stroke="#000000" stroke-width="3.25" stroke-linejoin="bevel" points="2180.5,1260.1 2180.5,1341.73"/>
<polyline class="Stem" fill="none" stroke="#000000" stroke-width="3.25" stroke-linejoin="bevel" points="985.143,373.363 985.143,297.982"/>
<polyline class="Stem" fill="none" stroke="#000000" stroke-width="3.25" stroke-linejoin="bevel" points="1988.36,1272.6 1988.36,1354.23"/>
<polyline class="Stem" fill="none" stroke="#000000" stroke-width="3.25" stroke-linejoin="bevel" points="1825.21,1285.1 1825.21,1366.73"/>
<polyline class="Stem" fill="none" stroke="#000000" stroke-width="3.25" stroke-linejoin="bevel" points="1503.79,835.102 1503.79,910.483"/>
<polyline class="Stem" fill="none" stroke="#000000" stroke-width="3.25" stroke-linejoin="bevel" points="1739.19,860.864 1739.19,778.533"/>
<polyline class="Stem" fill="none" stroke="#000000" stroke-width="3.25" stroke-linejoin="bevel" points="2319.62,1735.1 2319.62,1816.73"/>
<polyline class="Stem" fill="none" stroke="#000000" stroke-width="3.25" stroke-linejoin="bevel" points="2182.57,1785.1 2182.57,1860.48"/>
<polyline class="Stem" fill="none" stroke="#000000" stroke-width="3.25" stroke-linejoin="bevel" points="2183.92,797.602 2183.92,879.233"/>
<polyline class="Stem" fill="none" stroke="#000000" stroke-width="3.25" stroke-linejoin="bevel" points="1179.87,848.364 1179.87,772.983"/>
<polyline class="Stem" fill="none" stroke="#000000" stroke-width="3.25" stroke-linejoin="bevel" points="1847.39,860.864 1847.39,779.233"/>
<polyline class="Stem" fill="none" stroke="#000000" stroke-width="3.25" stroke-linejoin="bevel" points="2045.51,1747.6 2045.51,1829.23"/>
<polyline class="Stem" fill="none" stroke="#000000" stroke-width="3.25" stroke-linejoin="bevel" points="2283.6,360.102 2283.6,435.483"/>
<polyline class="Stem" fill="none" stroke="#000000" stroke-width="3.25" stroke-linejoin="bevel" points="1980.02,785.102 1980.02,866.733"/>
<polyline class="Stem" fill="none" stroke="#000000" stroke-width="3.25" stroke-linejoin="bevel" points="1071.67,848.364 1071.67,772.283"/>
<polyline class="Stem" fill="none" stroke="#000000" stroke-width="3.25" stroke-linejoin="bevel" points="2100.44,372.602 2100.44,441.733"/>
<polyline class="Stem" fill="none" stroke="#000000" stroke-width="3.25" stroke-linejoin="bevel" points="335.471,834.133 335.471,910.483"/>
<polyline class="Stem" fill="none" stroke="#000000" stroke-width="3.25" stroke-linejoin="bevel" points="1917.94,373.363 1917.94,297.982"/>
<polyline class="Stem" fill="none" stroke="#000000" stroke-width="3.25" stroke-linejoin="bevel" points="2466.77,347.602 2466.77,429.233"/>
<polyline class="Stem" fill="none" stroke="#000000" stroke-width="3.25" stroke-linejoin="bevel" points="1312.5,835.102 1312.5,910.483"/>
<polyline class="Stem" fill="none" stroke="#000000" stroke-width="3.25" stroke-linejoin="bevel" points="836.272,835.102 836.272,910.483"/>
<polyline class="Stem" fill="none" stroke="#000000" stroke-width="3.25" stroke-linejoin="bevel" points="644.977,835.102 644.977,910.483"/>
<path class="Hook" d="M1066.69,1256.87 C1068.19,1256.87 1069.77,1259.3 1071.43,1264.15 C1073.09,1269 1073.92,1273.44 1073.92,1277.48 C1073.92,1281.51 1073,1285.42 1071.14,1289.19 C1069.29,1292.97 1067.06,1296.29 1064.46,1299.15 L1056.44,1308.14 C1053.97,1311 1051.79,1314.29 1049.9,1318 C1048.01,1321.71 1047.06,1325.45 1047.06,1329.23 L1043.94,1329.23 L1043.94,1304.23 L1047.06,1304.23 C1058,1297.33 1064.87,1291.21 1067.67,1285.87 C1069.04,1283.27 1069.72,1280.63 1069.72,1277.97 C1069.72,1271.78 1067.93,1265.62 1064.35,1259.5 L1064.35,1259.11 C1064.35,1258.52 1064.58,1258.01 1065.03,1257.55 C1065.49,1257.1 1066.04,1256.87 1066.69,1256.87"/>
<path class="Hook" d="M1737.57,804.233 L1737.57,779.233 L1740.69,779.233 C1740.69,782.941 1741.44,786.733 1742.94,790.608 C1744.44,794.483 1746.01,797.707 1747.63,800.28 C1749.26,802.853 1751.27,806.092 1753.68,809.998 C1758.96,818.53 1761.6,826.116 1761.6,832.756 C1761.6,839.397 1760.2,846.233 1757.4,853.264 C1756.88,854.045 1756.27,854.436 1755.59,854.436 C1754.91,854.436 1754.34,854.207 1753.88,853.748 C1753.42,853.29 1753.19,852.769 1753.19,852.186 L1753.19,851.702 C1756,845.254 1757.4,838.873 1757.4,832.561 C1757.4,829.3 1756.4,825.751 1754.42,821.912 C1752.44,818.074 1750.38,814.933 1748.26,812.491 C1746.14,810.048 1743.62,807.295 1740.69,804.233 L1737.57,804.233 "/>
<path class="Hook" d="M1737.57,1294.37 C1739.07,1294.37 1740.65,1296.8 1742.31,1301.65 C1743.97,1306.5 1744.8,1310.94 1744.8,1314.98 C1744.8,1319.01 1743.87,1322.92 1742.02,1326.69 C1740.17,1330.47 1737.94,1333.79 1735.33,1336.66 L1727.32,1345.64 C1724.85,1348.5 1722.67,1351.79 1720.78,1355.5 C1718.89,1359.21 1717.94,1362.95 1717.94,1366.73 L1714.82,1366.73 L1714.82,1341.73 L1717.94,1341.73 C1728.88,1334.83 1735.75,1328.71 1738.55,1323.37 C1739.92,1320.77 1740.6,1318.13 1740.6,1315.47 C1740.6,1309.28 1738.81,1303.12 1735.22,1297 L1735.22,1296.61 C1735.22,1296.02 1735.45,1295.51 1735.91,1295.05 C1736.37,1294.6 1736.92,1294.37 1737.57,1294.37"/>
<path class="Hook" d="M1611.04,329.232 L1611.04,304.232 L1614.16,304.232 C1614.16,307.941 1614.91,311.732 1616.41,315.607 C1617.91,319.482 1619.48,322.706 1621.1,325.279 C1622.73,327.852 1624.74,331.092 1627.15,334.998 C1632.43,343.529 1635.07,351.115 1635.07,357.756 C1635.07,364.397 1633.67,371.232 1630.87,378.264 C1630.35,379.045 1629.74,379.436 1629.06,379.436 C1628.38,379.436 1627.81,379.206 1627.35,378.748 C1626.89,378.29 1626.66,377.769 1626.66,377.186 L1626.66,376.701 C1629.47,370.253 1630.87,363.873 1630.87,357.561 C1630.87,354.3 1629.87,350.751 1627.89,346.912 C1625.91,343.074 1623.85,339.933 1621.73,337.49 C1619.61,335.048 1617.09,332.295 1614.16,329.232 L1611.04,329.232 "/>
<path class="Hook" d="M957.897,1781.87 C959.397,1781.87 960.978,1784.3 962.64,1789.15 C964.301,1794 965.132,1798.44 965.132,1802.48 C965.132,1806.51 964.205,1810.42 962.35,1814.19 C960.496,1817.97 958.267,1821.29 955.663,1824.16 L947.647,1833.14 C945.179,1836 942.999,1839.29 941.108,1843 C939.218,1846.71 938.272,1850.45 938.272,1854.23 L935.147,1854.23 L935.147,1829.23 L938.272,1829.23 C949.21,1822.33 956.08,1816.21 958.882,1810.87 C960.246,1808.27 960.929,1805.63 960.929,1802.97 C960.929,1796.78 959.137,1790.62 955.554,1784.5 L955.554,1784.11 C955.554,1783.53 955.783,1783.01 956.241,1782.55 C956.699,1782.1 957.252,1781.87 957.897,1781.87"/>
<path class="Hook" d="M1070.05,797.983 L1070.05,772.983 L1073.17,772.983 C1073.17,776.691 1073.92,780.483 1075.42,784.358 C1076.92,788.233 1078.48,791.457 1080.11,794.03 C1081.73,796.603 1083.75,799.842 1086.16,803.748 C1091.44,812.28 1094.08,819.866 1094.08,826.506 C1094.08,833.147 1092.68,839.983 1089.87,847.014 C1089.35,847.795 1088.75,848.186 1088.07,848.186 C1087.39,848.186 1086.82,847.957 1086.36,847.498 C1085.9,847.04 1085.67,846.519 1085.67,845.936 L1085.67,845.452 C1088.47,839.004 1089.87,832.623 1089.87,826.311 C1089.87,823.05 1088.88,819.501 1086.9,815.662 C1084.91,811.824 1082.86,808.683 1080.74,806.241 C1078.62,803.798 1076.1,801.045 1073.17,797.983 L1070.05,797.983 "/>
<path class="Hook" d="M861.409,322.982 L861.409,297.982 L864.534,297.982 C864.534,301.691 865.284,305.482 866.784,309.357 C868.284,313.232 869.846,316.456 871.471,319.029 C873.096,321.602 875.112,324.842 877.518,328.748 C882.8,337.279 885.44,344.865 885.44,351.506 C885.44,358.147 884.039,364.982 881.237,372.014 C880.716,372.795 880.115,373.186 879.432,373.186 C878.75,373.186 878.18,372.956 877.721,372.498 C877.263,372.04 877.034,371.519 877.034,370.936 L877.034,370.451 C879.836,364.003 881.237,357.623 881.237,351.311 C881.237,348.05 880.245,344.501 878.26,340.662 C876.276,336.824 874.224,333.683 872.104,331.24 C869.984,328.798 867.461,326.045 864.534,322.982 L861.409,322.982 "/>
<path class="Note" d="M665.321,815.467 C668.446,815.467 671.05,816.248 673.133,817.811 C675.217,819.373 676.258,821.618 676.258,824.545 C676.258,829.035 673.933,833.233 669.282,837.139 C664.631,841.045 659.633,842.998 654.29,842.998 C651.165,842.998 648.529,842.186 646.383,840.561 C644.363,838.801 643.352,836.587 643.352,833.92 C643.352,829.556 645.665,825.389 650.29,821.42 C654.915,817.452 659.925,815.467 665.321,815.467"/>
<path class="Note" d="M2527.14,1277.97 C2530.27,1277.97 2532.87,1278.75 2534.95,1280.31 C2537.04,1281.87 2538.08,1284.12 2538.08,1287.05 C2538.08,1291.54 2535.75,1295.73 2531.1,1299.64 C2526.45,1303.55 2521.45,1305.5 2516.11,1305.5 C2512.99,1305.5 2510.35,1304.69 2508.2,1303.06 C2506.18,1301.3 2505.17,1299.09 2505.17,1296.42 C2505.17,1292.06 2507.49,1287.89 2512.11,1283.92 C2516.74,1279.95 2521.75,1277.97 2527.14,1277.97"/>
<path class="Note" d="M2690.29,1290.47 C2693.41,1290.47 2696.02,1291.25 2698.1,1292.81 C2700.19,1294.37 2701.23,1296.62 2701.23,1299.55 C2701.23,1304.04 2698.9,1308.23 2694.25,1312.14 C2689.6,1316.05 2684.6,1318 2679.26,1318 C2676.13,1318 2673.5,1317.19 2671.35,1315.56 C2669.33,1313.8 2668.32,1311.59 2668.32,1308.92 C2668.32,1304.56 2670.63,1300.39 2675.26,1296.42 C2679.88,1292.45 2684.89,1290.47 2690.29,1290.47"/>
<path class="Note" d="M2120.78,352.967 C2123.91,352.967 2126.51,353.748 2128.59,355.311 C2130.68,356.873 2131.72,359.118 2131.72,362.045 C2131.72,366.535 2129.39,370.733 2124.74,374.639 C2120.09,378.545 2115.09,380.498 2109.75,380.498 C2106.62,380.498 2103.99,379.686 2101.84,378.061 C2099.82,376.3 2098.81,374.087 2098.81,371.42 C2098.81,367.055 2101.12,362.889 2105.75,358.92 C2110.37,354.951 2115.38,352.967 2120.78,352.967"/>
<path class="Note" d="M856.615,815.467 C859.74,815.467 862.345,816.248 864.428,817.811 C866.511,819.373 867.553,821.618 867.553,824.545 C867.553,829.035 865.227,833.233 860.576,837.139 C855.925,841.045 850.928,842.998 845.584,842.998 C842.459,842.998 839.824,842.186 837.678,840.561 C835.657,838.801 834.647,836.587 834.647,833.92 C834.647,829.556 836.959,825.389 841.584,821.42 C846.209,817.452 851.22,815.467 856.615,815.467"/>
<path class="Note" d="M2363.99,1265.47 C2367.12,1265.47 2369.72,1266.25 2371.81,1267.81 C2373.89,1269.37 2374.93,1271.62 2374.93,1274.55 C2374.93,1279.04 2372.61,1283.23 2367.96,1287.14 C2363.3,1291.05 2358.31,1293 2352.96,1293 C2349.84,1293 2347.2,1292.19 2345.06,1290.56 C2343.04,1288.8 2342.03,1286.59 2342.03,1283.92 C2342.03,1279.56 2344.34,1275.39 2348.96,1271.42 C2353.59,1267.45 2358.6,1265.47 2363.99,1265.47"/>
<path class="Note" d="M2200.85,1240.47 C2203.97,1240.47 2206.58,1241.25 2208.66,1242.81 C2210.74,1244.37 2211.78,1246.62 2211.78,1249.55 C2211.78,1254.04 2209.46,1258.23 2204.81,1262.14 C2200.16,1266.05 2195.16,1268 2189.82,1268 C2186.69,1268 2184.06,1267.19 2181.91,1265.56 C2179.89,1263.8 2178.88,1261.59 2178.88,1258.92 C2178.88,1254.56 2181.19,1250.39 2185.82,1246.42 C2190.44,1242.45 2195.45,1240.47 2200.85,1240.47"/>
<path class="Note" d="M1736.79,1265.47 C1739.91,1265.47 1742.52,1266.25 1744.6,1267.81 C1746.68,1269.37 1747.72,1271.62 1747.72,1274.55 C1747.72,1279.04 1745.4,1283.23 1740.75,1287.14 C1736.1,1291.05 1731.1,1293 1725.76,1293 C1722.63,1293 1719.99,1292.19 1717.85,1290.56 C1715.83,1288.8 1714.82,1286.59 1714.82,1283.92 C1714.82,1279.56 1717.13,1275.39 1721.76,1271.42 C1726.38,1267.45 1731.39,1265.47 1736.79,1265.47"/>
<path class="Note" d="M621.522,340.467 C624.647,340.467 627.251,341.248 629.334,342.811 C631.417,344.373 632.459,346.618 632.459,349.545 C632.459,354.035 630.134,358.232 625.483,362.139 C620.832,366.045 615.834,367.998 610.49,367.998 C607.365,367.998 604.73,367.186 602.584,365.561 C600.563,363.8 599.553,361.587 599.553,358.92 C599.553,354.555 601.865,350.389 606.49,346.42 C611.115,342.451 616.126,340.467 621.522,340.467"/>
<path class="Note" d="M1488.64,1765.47 C1491.77,1765.47 1494.37,1766.25 1496.46,1767.81 C1498.54,1769.37 1499.58,1771.62 1499.58,1774.55 C1499.58,1779.04 1497.26,1783.23 1492.61,1787.14 C1487.95,1791.05 1482.96,1793 1477.61,1793 C1474.49,1793 1471.85,1792.19 1469.71,1790.56 C1467.69,1788.8 1466.68,1786.59 1466.68,1783.92 C1466.68,1779.56 1468.99,1775.39 1473.61,1771.42 C1478.24,1767.45 1483.25,1765.47 1488.64,1765.47"/>
<path class="Note" d="M341.268,1752.37 C343.153,1752.37 347.109,1750.42 353.135,1746.51 C359.161,1742.61 362.71,1739.99 363.783,1738.66 C364.856,1737.32 365.393,1736.13 365.393,1735.09 C365.393,1734.05 364.968,1733.12 364.119,1732.31 C363.27,1731.5 362.294,1731.09 361.19,1731.09 C359.242,1731.09 355.255,1733.06 349.229,1737 C343.203,1740.94 339.669,1743.56 338.627,1744.86 C337.585,1746.16 337.065,1747.33 337.065,1748.37 C337.065,1749.42 337.473,1750.34 338.291,1751.16 C339.109,1751.97 340.101,1752.37 341.268,1752.37 M360.221,1727.97 C365.815,1727.97 368.611,1730.37 368.611,1735.19 C368.611,1737.53 367.929,1740.25 366.565,1743.34 C365.2,1746.44 363.377,1748.8 361.096,1750.42 C356.085,1753.81 349.804,1755.5 342.252,1755.5 C336.648,1755.5 333.846,1753.09 333.846,1748.28 C333.846,1746.13 334.512,1743.47 335.846,1740.27 C337.179,1737.08 339.018,1734.67 341.361,1733.05 C346.382,1729.66 352.669,1727.97 360.221,1727.97"/>
<path class="Note" d="M341.268,839.873 C343.153,839.873 347.109,837.92 353.135,834.014 C359.161,830.108 362.71,827.488 363.783,826.155 C364.856,824.821 365.393,823.634 365.393,822.592 C365.393,821.551 364.968,820.623 364.119,819.811 C363.27,818.998 362.294,818.592 361.19,818.592 C359.242,818.592 355.255,820.561 349.229,824.498 C343.203,828.436 339.669,831.056 338.627,832.358 C337.585,833.66 337.065,834.832 337.065,835.873 C337.065,836.915 337.473,837.842 338.291,838.655 C339.109,839.467 340.101,839.873 341.268,839.873 M360.221,815.467 C365.815,815.467 368.611,817.873 368.611,822.686 C368.611,825.03 367.929,827.748 366.565,830.842 C365.2,833.936 363.377,836.295 361.096,837.92 C356.085,841.306 349.804,842.998 342.252,842.998 C336.648,842.998 333.846,840.592 333.846,835.78 C333.846,833.634 334.512,830.965 335.846,827.772 C337.179,824.579 339.018,822.17 341.361,820.545 C346.382,817.16 352.669,815.467 360.221,815.467"/>
<path class="Note" d="M617.324,1727.97 C620.449,1727.97 623.054,1728.75 625.137,1730.31 C627.22,1731.87 628.262,1734.12 628.262,1737.05 C628.262,1741.54 625.936,1745.73 621.285,1749.64 C616.634,1753.55 611.637,1755.5 606.293,1755.5 C603.168,1755.5 600.533,1754.69 598.387,1753.06 C596.366,1751.3 595.356,1749.09 595.356,1746.42 C595.356,1742.06 597.668,1737.89 602.293,1733.92 C606.918,1729.95 611.929,1727.97 617.324,1727.97"/>
<path class="Note" d="M2202.91,1765.47 C2206.04,1765.47 2208.64,1766.25 2210.72,1767.81 C2212.81,1769.37 2213.85,1771.62 2213.85,1774.55 C2213.85,1779.04 2211.52,1783.23 2206.87,1787.14 C2202.22,1791.05 2197.22,1793 2191.88,1793 C2188.75,1793 2186.12,1792.19 2183.97,1790.56 C2181.95,1788.8 2180.94,1786.59 2180.94,1783.92 C2180.94,1779.56 2183.25,1775.39 2187.88,1771.42 C2192.5,1767.45 2197.51,1765.47 2202.91,1765.47"/>
<path class="Note" d="M409.358,340.467 C412.483,340.467 415.087,341.248 417.17,342.811 C419.253,344.373 420.295,346.618 420.295,349.545 C420.295,354.035 417.969,358.232 413.318,362.139 C408.667,366.045 403.67,367.998 398.326,367.998 C395.201,367.998 392.566,367.186 390.42,365.561 C388.399,363.8 387.389,361.587 387.389,358.92 C387.389,354.555 389.701,350.389 394.326,346.42 C398.951,342.451 403.962,340.467 409.358,340.467"/>
<path class="Note" d="M783.378,1727.97 C786.503,1727.97 789.107,1728.75 791.19,1730.31 C793.274,1731.87 794.315,1734.12 794.315,1737.05 C794.315,1741.54 791.99,1745.73 787.339,1749.64 C782.688,1753.55 777.69,1755.5 772.346,1755.5 C769.221,1755.5 766.586,1754.69 764.44,1753.06 C762.419,1751.3 761.409,1749.09 761.409,1746.42 C761.409,1742.06 763.721,1737.89 768.346,1733.92 C772.971,1729.95 777.982,1727.97 783.378,1727.97"/>
<path class="Note" d="M1351.59,1727.97 C1354.72,1727.97 1357.32,1728.75 1359.4,1730.31 C1361.49,1731.87 1362.53,1734.12 1362.53,1737.05 C1362.53,1741.54 1360.2,1745.73 1355.55,1749.64 C1350.9,1753.55 1345.9,1755.5 1340.56,1755.5 C1337.43,1755.5 1334.8,1754.69 1332.65,1753.06 C1330.63,1751.3 1329.62,1749.09 1329.62,1746.42 C1329.62,1742.06 1331.93,1737.89 1336.56,1733.92 C1341.18,1729.95 1346.2,1727.97 1351.59,1727.97"/>
<path class="Note" d="M957.116,1752.97 C960.241,1752.97 962.845,1753.75 964.929,1755.31 C967.012,1756.87 968.054,1759.12 968.054,1762.05 C968.054,1766.54 965.728,1770.73 961.077,1774.64 C956.426,1778.55 951.429,1780.5 946.085,1780.5 C942.96,1780.5 940.324,1779.69 938.179,1778.06 C936.158,1776.3 935.147,1774.09 935.147,1771.42 C935.147,1767.06 937.46,1762.89 942.085,1758.92 C946.71,1754.95 951.72,1752.97 957.116,1752.97"/>
<path class="Note" d="M2303.94,340.467 C2307.07,340.467 2309.67,341.248 2311.76,342.811 C2313.84,344.373 2314.88,346.618 2314.88,349.545 C2314.88,354.035 2312.56,358.232 2307.91,362.139 C2303.25,366.045 2298.26,367.998 2292.91,367.998 C2289.79,367.998 2287.15,367.186 2285.01,365.561 C2282.99,363.8 2281.98,361.587 2281.98,358.92 C2281.98,354.555 2284.29,350.389 2288.91,346.42 C2293.54,342.451 2298.55,340.467 2303.94,340.467"/>
<path class="Note" d="M1048.48,1752.97 C1051.61,1752.97 1054.21,1753.75 1056.3,1755.31 C1058.38,1756.87 1059.42,1759.12 1059.42,1762.05 C1059.42,1766.54 1057.1,1770.73 1052.45,1774.64 C1047.79,1778.55 1042.8,1780.5 1037.45,1780.5 C1034.33,1780.5 1031.69,1779.69 1029.55,1778.06 C1027.53,1776.3 1026.52,1774.09 1026.52,1771.42 C1026.52,1767.06 1028.83,1762.89 1033.45,1758.92 C1038.08,1754.95 1043.09,1752.97 1048.48,1752.97"/>
<path class="Note" d="M1185.54,1727.97 C1188.66,1727.97 1191.27,1728.75 1193.35,1730.31 C1195.43,1731.87 1196.48,1734.12 1196.48,1737.05 C1196.48,1741.54 1194.15,1745.73 1189.5,1749.64 C1184.85,1753.55 1179.85,1755.5 1174.51,1755.5 C1171.38,1755.5 1168.75,1754.69 1166.6,1753.06 C1164.58,1751.3 1163.57,1749.09 1163.57,1746.42 C1163.57,1742.06 1165.88,1737.89 1170.51,1733.92 C1175.13,1729.95 1180.14,1727.97 1185.54,1727.97"/>
<path class="Note" d="M2670.27,315.467 C2673.4,315.467 2676,316.248 2678.09,317.811 C2680.17,319.373 2681.21,321.618 2681.21,324.545 C2681.21,329.035 2678.88,333.232 2674.23,337.139 C2669.58,341.045 2664.59,342.998 2659.24,342.998 C2656.12,342.998 2653.48,342.186 2651.34,340.561 C2649.31,338.8 2648.3,336.587 2648.3,333.92 C2648.3,329.555 2650.62,325.389 2655.24,321.42 C2659.87,317.451 2664.88,315.467 2670.27,315.467"/>
<path class="Note" d="M2501.14,1747.2 C2504.01,1751.05 2507.68,1752.97 2512.17,1752.97 C2516.66,1752.97 2518.91,1749.94 2518.91,1743.89 C2518.91,1741.01 2518.09,1738.47 2516.47,1736.26 C2513.67,1732.42 2509.89,1730.5 2505.14,1730.5 C2503.06,1730.5 2501.46,1731.36 2500.36,1733.08 C2499.26,1734.81 2498.7,1737.04 2498.7,1739.78 C2498.7,1742.52 2499.52,1744.99 2501.14,1747.2 M2491.47,1731.97 C2496.36,1729.3 2502.23,1727.97 2509.1,1727.97 C2515.97,1727.97 2521.77,1729.33 2526.49,1732.07 C2531.2,1734.8 2533.56,1738.06 2533.56,1741.83 C2533.56,1745.61 2531.12,1748.83 2526.24,1751.5 C2521.35,1754.17 2515.51,1755.5 2508.7,1755.5 C2501.9,1755.5 2496.09,1754.13 2491.27,1751.4 C2486.46,1748.66 2484.05,1745.38 2484.05,1741.54 C2484.05,1737.7 2486.52,1734.51 2491.47,1731.97"/>
<path class="Note" d="M2487.11,327.967 C2490.23,327.967 2492.84,328.748 2494.92,330.311 C2497,331.873 2498.05,334.118 2498.05,337.045 C2498.05,341.535 2495.72,345.732 2491.07,349.639 C2486.42,353.545 2481.42,355.498 2476.08,355.498 C2472.95,355.498 2470.32,354.686 2468.17,353.061 C2466.15,351.3 2465.14,349.087 2465.14,346.42 C2465.14,342.055 2467.45,337.889 2472.08,333.92 C2476.7,329.951 2481.71,327.967 2487.11,327.967"/>
<path class="Note" d="M859.091,1227.97 C862.216,1227.97 864.82,1228.75 866.903,1230.31 C868.987,1231.87 870.028,1234.12 870.028,1237.05 C870.028,1241.54 867.703,1245.73 863.052,1249.64 C858.401,1253.55 853.403,1255.5 848.06,1255.5 C844.935,1255.5 842.299,1254.69 840.153,1253.06 C838.133,1251.3 837.122,1249.09 837.122,1246.42 C837.122,1242.06 839.435,1237.89 844.06,1233.92 C848.685,1229.95 853.695,1227.97 859.091,1227.97"/>
<path class="Note" d="M2204.26,777.967 C2207.38,777.967 2209.99,778.748 2212.07,780.311 C2214.16,781.873 2215.2,784.118 2215.2,787.045 C2215.2,791.535 2212.87,795.733 2208.22,799.639 C2203.57,803.545 2198.57,805.498 2193.23,805.498 C2190.1,805.498 2187.47,804.686 2185.32,803.061 C2183.3,801.3 2182.29,799.087 2182.29,796.42 C2182.29,792.056 2184.6,787.889 2189.23,783.92 C2193.85,779.952 2198.86,777.967 2204.26,777.967"/>
<path class="Note" d="M1725.45,377.967 C1728.58,377.967 1731.18,378.748 1733.27,380.311 C1735.35,381.873 1736.39,384.118 1736.39,387.045 C1736.39,391.535 1734.06,395.733 1729.41,399.639 C1724.76,403.545 1719.77,405.498 1714.42,405.498 C1711.3,405.498 1708.66,404.686 1706.52,403.061 C1704.49,401.3 1703.48,399.087 1703.48,396.42 C1703.48,392.055 1705.8,387.889 1710.42,383.92 C1715.05,379.951 1720.06,377.967 1725.45,377.967"/>
<path class="Note" d="M2366.55,765.467 C2369.68,765.467 2372.28,766.248 2374.37,767.811 C2376.45,769.373 2377.49,771.618 2377.49,774.545 C2377.49,779.035 2375.17,783.233 2370.51,787.139 C2365.86,791.045 2360.87,792.998 2355.52,792.998 C2352.4,792.998 2349.76,792.186 2347.62,790.561 C2345.6,788.8 2344.59,786.587 2344.59,783.92 C2344.59,779.556 2346.9,775.389 2351.52,771.42 C2356.15,767.452 2361.16,765.467 2366.55,765.467"/>
<path class="Note" d="M1928.8,1752.97 C1931.93,1752.97 1934.53,1753.75 1936.62,1755.31 C1938.7,1756.87 1939.74,1759.12 1939.74,1762.05 C1939.74,1766.54 1937.42,1770.73 1932.76,1774.64 C1928.11,1778.55 1923.12,1780.5 1917.77,1780.5 C1914.65,1780.5 1912.01,1779.69 1909.87,1778.06 C1907.85,1776.3 1906.84,1774.09 1906.84,1771.42 C1906.84,1767.06 1909.15,1762.89 1913.77,1758.92 C1918.4,1754.95 1923.41,1752.97 1928.8,1752.97"/>
<path class="Note" d="M2528.85,752.967 C2531.97,752.967 2534.58,753.748 2536.66,755.311 C2538.74,756.873 2539.79,759.118 2539.79,762.045 C2539.79,766.535 2537.46,770.733 2532.81,774.639 C2528.16,778.545 2523.16,780.498 2517.82,780.498 C2514.69,780.498 2512.06,779.686 2509.91,778.061 C2507.89,776.3 2506.88,774.087 2506.88,771.42 C2506.88,767.056 2509.19,762.889 2513.82,758.92 C2518.44,754.952 2523.45,752.967 2528.85,752.967"/>
<path class="Note" d="M2000.36,765.467 C2003.49,765.467 2006.09,766.248 2008.18,767.811 C2010.26,769.373 2011.3,771.618 2011.3,774.545 C2011.3,779.035 2008.98,783.233 2004.32,787.139 C1999.67,791.045 1994.68,792.998 1989.33,792.998 C1986.21,792.998 1983.57,792.186 1981.43,790.561 C1979.41,788.8 1978.39,786.587 1978.39,783.92 C1978.39,779.556 1980.71,775.389 1985.33,771.42 C1989.96,767.452 1994.97,765.467 2000.36,765.467"/>
<path class="Note" d="M2691.14,802.967 C2694.27,802.967 2696.87,803.748 2698.96,805.311 C2701.04,806.873 2702.08,809.118 2702.08,812.045 C2702.08,816.535 2699.75,820.733 2695.1,824.639 C2690.45,828.545 2685.46,830.498 2680.11,830.498 C2676.99,830.498 2674.35,829.686 2672.21,828.061 C2670.18,826.3 2669.17,824.087 2669.17,821.42 C2669.17,817.056 2671.49,812.889 2676.11,808.92 C2680.74,804.952 2685.75,802.967 2691.14,802.967"/>
<path class="Note" d="M1603.34,377.967 C1606.47,377.967 1609.07,378.748 1611.16,380.311 C1613.24,381.873 1614.28,384.118 1614.28,387.045 C1614.28,391.535 1611.96,395.733 1607.3,399.639 C1602.65,403.545 1597.66,405.498 1592.31,405.498 C1589.19,405.498 1586.55,404.686 1584.41,403.061 C1582.38,401.3 1581.37,399.087 1581.37,396.42 C1581.37,392.055 1583.69,387.889 1588.31,383.92 C1592.94,379.951 1597.95,377.967 1603.34,377.967"/>
<path class="Note" d="M1838.07,852.967 C1841.19,852.967 1843.8,853.748 1845.88,855.311 C1847.96,856.873 1849.01,859.118 1849.01,862.045 C1849.01,866.535 1846.68,870.733 1842.03,874.639 C1837.38,878.545 1832.38,880.498 1827.04,880.498 C1823.91,880.498 1821.28,879.686 1819.13,878.061 C1817.11,876.301 1816.1,874.087 1816.1,871.42 C1816.1,867.056 1818.41,862.889 1823.04,858.92 C1827.66,854.952 1832.67,852.967 1838.07,852.967"/>
<path class="Note" d="M1729.87,852.967 C1733,852.967 1735.6,853.748 1737.69,855.311 C1739.77,856.873 1740.81,859.118 1740.81,862.045 C1740.81,866.535 1738.48,870.733 1733.83,874.639 C1729.18,878.545 1724.19,880.498 1718.84,880.498 C1715.72,880.498 1713.08,879.686 1710.94,878.061 C1708.91,876.301 1707.9,874.087 1707.9,871.42 C1707.9,867.056 1710.22,862.889 1714.84,858.92 C1719.47,854.952 1724.48,852.967 1729.87,852.967"/>
<path class="Note" d="M341.268,1264.87 C343.153,1264.87 347.109,1262.92 353.135,1259.01 C359.161,1255.11 362.71,1252.49 363.783,1251.15 C364.856,1249.82 365.393,1248.63 365.393,1247.59 C365.393,1246.55 364.968,1245.62 364.119,1244.81 C363.27,1244 362.294,1243.59 361.19,1243.59 C359.242,1243.59 355.255,1245.56 349.229,1249.5 C343.203,1253.44 339.669,1256.06 338.627,1257.36 C337.585,1258.66 337.065,1259.83 337.065,1260.87 C337.065,1261.92 337.473,1262.84 338.291,1263.65 C339.109,1264.47 340.101,1264.87 341.268,1264.87 M360.221,1240.47 C365.815,1240.47 368.611,1242.87 368.611,1247.69 C368.611,1250.03 367.929,1252.75 366.565,1255.84 C365.2,1258.94 363.377,1261.3 361.096,1262.92 C356.085,1266.31 349.804,1268 342.252,1268 C336.648,1268 333.846,1265.59 333.846,1260.78 C333.846,1258.63 334.512,1255.96 335.846,1252.77 C337.179,1249.58 339.018,1247.17 341.361,1245.55 C346.382,1242.16 352.669,1240.47 360.221,1240.47"/>
<path class="Note" d="M1371.15,340.467 C1374.28,340.467 1376.88,341.248 1378.96,342.811 C1381.05,344.373 1382.09,346.618 1382.09,349.545 C1382.09,354.035 1379.76,358.232 1375.11,362.139 C1370.46,366.045 1365.46,367.998 1360.12,367.998 C1356.99,367.998 1354.36,367.186 1352.21,365.561 C1350.19,363.8 1349.18,361.587 1349.18,358.92 C1349.18,354.555 1351.49,350.389 1356.12,346.42 C1360.74,342.451 1365.76,340.467 1371.15,340.467"/>
<path class="Note" d="M666.943,1290.47 C670.068,1290.47 672.672,1291.25 674.756,1292.81 C676.839,1294.37 677.881,1296.62 677.881,1299.55 C677.881,1304.04 675.555,1308.23 670.904,1312.14 C666.253,1316.05 661.256,1318 655.912,1318 C652.787,1318 650.152,1317.19 648.006,1315.56 C645.985,1313.8 644.975,1311.59 644.975,1308.92 C644.975,1304.56 647.287,1300.39 651.912,1296.42 C656.537,1292.45 661.547,1290.47 666.943,1290.47"/>
<path class="Note" d="M1158.99,340.467 C1162.11,340.467 1164.72,341.248 1166.8,342.811 C1168.88,344.373 1169.92,346.618 1169.92,349.545 C1169.92,354.035 1167.6,358.232 1162.95,362.139 C1158.3,366.045 1153.3,367.998 1147.96,367.998 C1144.83,367.998 1142.2,367.186 1140.05,365.561 C1138.03,363.8 1137.02,361.587 1137.02,358.92 C1137.02,354.555 1139.33,350.389 1143.96,346.42 C1148.58,342.451 1153.59,340.467 1158.99,340.467"/>
<path class="Note" d="M1524.14,815.467 C1527.26,815.467 1529.87,816.248 1531.95,817.811 C1534.03,819.373 1535.07,821.618 1535.07,824.545 C1535.07,829.035 1532.75,833.233 1528.1,837.139 C1523.45,841.045 1518.45,842.998 1513.11,842.998 C1509.98,842.998 1507.34,842.186 1505.2,840.561 C1503.18,838.801 1502.17,836.587 1502.17,833.92 C1502.17,829.556 1504.48,825.389 1509.11,821.42 C1513.73,817.452 1518.74,815.467 1524.14,815.467"/>
<path class="Note" d="M975.823,365.467 C978.948,365.467 981.552,366.248 983.635,367.811 C985.719,369.373 986.76,371.618 986.76,374.545 C986.76,379.035 984.435,383.233 979.784,387.139 C975.133,391.045 970.135,392.998 964.792,392.998 C961.667,392.998 959.031,392.186 956.885,390.561 C954.865,388.8 953.854,386.587 953.854,383.92 C953.854,379.555 956.167,375.389 960.792,371.42 C965.417,367.451 970.427,365.467 975.823,365.467"/>
<path class="Note" d="M1625.7,1765.47 C1628.82,1765.47 1631.43,1766.25 1633.51,1767.81 C1635.59,1769.37 1636.64,1771.62 1636.64,1774.55 C1636.64,1779.04 1634.31,1783.23 1629.66,1787.14 C1625.01,1791.05 1620.01,1793 1614.67,1793 C1611.54,1793 1608.91,1792.19 1606.76,1790.56 C1604.74,1788.8 1603.73,1786.59 1603.73,1783.92 C1603.73,1779.56 1606.04,1775.39 1610.67,1771.42 C1615.29,1767.45 1620.3,1765.47 1625.7,1765.47"/>
<path class="Note" d="M2065.86,1727.97 C2068.98,1727.97 2071.59,1728.75 2073.67,1730.31 C2075.75,1731.87 2076.79,1734.12 2076.79,1737.05 C2076.79,1741.54 2074.47,1745.73 2069.82,1749.64 C2065.17,1753.55 2060.17,1755.5 2054.83,1755.5 C2051.7,1755.5 2049.07,1754.69 2046.92,1753.06 C2044.9,1751.3 2043.89,1749.09 2043.89,1746.42 C2043.89,1742.06 2046.2,1737.89 2050.83,1733.92 C2055.45,1729.95 2060.46,1727.97 2065.86,1727.97"/>
<path class="Note" d="M2008.7,1252.97 C2011.82,1252.97 2014.43,1253.75 2016.51,1255.31 C2018.59,1256.87 2019.64,1259.12 2019.64,1262.05 C2019.64,1266.54 2017.31,1270.73 2012.66,1274.64 C2008.01,1278.55 2003.01,1280.5 1997.67,1280.5 C1994.54,1280.5 1991.91,1279.69 1989.76,1278.06 C1987.74,1276.3 1986.73,1274.09 1986.73,1271.42 C1986.73,1267.06 1989.04,1262.89 1993.67,1258.92 C1998.29,1254.95 2003.3,1252.97 2008.7,1252.97"/>
<path class="Note" d="M1845.55,1265.47 C1848.68,1265.47 1851.28,1266.25 1853.36,1267.81 C1855.45,1269.37 1856.49,1271.62 1856.49,1274.55 C1856.49,1279.04 1854.16,1283.23 1849.51,1287.14 C1844.86,1291.05 1839.86,1293 1834.52,1293 C1831.4,1293 1828.76,1292.19 1826.61,1290.56 C1824.59,1288.8 1823.58,1286.59 1823.58,1283.92 C1823.58,1279.56 1825.9,1275.39 1830.52,1271.42 C1835.15,1267.45 1840.16,1265.47 1845.55,1265.47"/>
<path class="Note" d="M1062.35,840.467 C1065.48,840.467 1068.08,841.248 1070.16,842.811 C1072.25,844.373 1073.29,846.618 1073.29,849.545 C1073.29,854.035 1070.96,858.233 1066.31,862.139 C1061.66,866.045 1056.66,867.998 1051.32,867.998 C1048.2,867.998 1045.56,867.186 1043.41,865.561 C1041.39,863.801 1040.38,861.587 1040.38,858.92 C1040.38,854.556 1042.7,850.389 1047.32,846.42 C1051.95,842.452 1056.96,840.467 1062.35,840.467"/>
<path class="Note" d="M1529.97,1252.97 C1533.09,1252.97 1535.7,1253.75 1537.78,1255.31 C1539.86,1256.87 1540.91,1259.12 1540.91,1262.05 C1540.91,1266.54 1538.58,1270.73 1533.93,1274.64 C1529.28,1278.55 1524.28,1280.5 1518.94,1280.5 C1515.81,1280.5 1513.18,1279.69 1511.03,1278.06 C1509.01,1276.3 1508,1274.09 1508,1271.42 C1508,1267.06 1510.31,1262.89 1514.94,1258.92 C1519.56,1254.95 1524.57,1252.97 1529.97,1252.97"/>
<path class="Note" d="M1170.55,840.467 C1173.67,840.467 1176.28,841.248 1178.36,842.811 C1180.44,844.373 1181.49,846.618 1181.49,849.545 C1181.49,854.035 1179.16,858.233 1174.51,862.139 C1169.86,866.045 1164.86,867.998 1159.52,867.998 C1156.39,867.998 1153.76,867.186 1151.61,865.561 C1149.59,863.801 1148.58,861.587 1148.58,858.92 C1148.58,854.556 1150.89,850.389 1155.52,846.42 C1160.14,842.452 1165.15,840.467 1170.55,840.467"/>
<path class="Note" d="M853.714,365.467 C856.839,365.467 859.443,366.248 861.526,367.811 C863.609,369.373 864.651,371.618 864.651,374.545 C864.651,379.035 862.326,383.233 857.675,387.139 C853.023,391.045 848.026,392.998 842.682,392.998 C839.557,392.998 836.922,392.186 834.776,390.561 C832.755,388.8 831.745,386.587 831.745,383.92 C831.745,379.555 834.057,375.389 838.682,371.42 C843.307,367.451 848.318,365.467 853.714,365.467"/>
<path class="Note" d="M1337.82,1252.97 C1340.95,1252.97 1343.55,1253.75 1345.63,1255.31 C1347.72,1256.87 1348.76,1259.12 1348.76,1262.05 C1348.76,1266.54 1346.43,1270.73 1341.78,1274.64 C1337.13,1278.55 1332.13,1280.5 1326.79,1280.5 C1323.66,1280.5 1321.03,1279.69 1318.88,1278.06 C1316.86,1276.3 1315.85,1274.09 1315.85,1271.42 C1315.85,1267.06 1318.16,1262.89 1322.79,1258.92 C1327.41,1254.95 1332.43,1252.97 1337.82,1252.97"/>
<path class="Note" d="M1332.84,815.467 C1335.97,815.467 1338.57,816.248 1340.65,817.811 C1342.74,819.373 1343.78,821.618 1343.78,824.545 C1343.78,829.035 1341.45,833.233 1336.8,837.139 C1332.15,841.045 1327.15,842.998 1321.81,842.998 C1318.69,842.998 1316.05,842.186 1313.9,840.561 C1311.88,838.801 1310.87,836.587 1310.87,833.92 C1310.87,829.556 1313.19,825.389 1317.81,821.42 C1322.44,817.452 1327.45,815.467 1332.84,815.467"/>
<path class="Note" d="M1174.67,1240.47 C1177.8,1240.47 1180.4,1241.25 1182.49,1242.81 C1184.57,1244.37 1185.61,1246.62 1185.61,1249.55 C1185.61,1254.04 1183.29,1258.23 1178.63,1262.14 C1173.98,1266.05 1168.99,1268 1163.64,1268 C1160.52,1268 1157.88,1267.19 1155.74,1265.56 C1153.72,1263.8 1152.7,1261.59 1152.7,1258.92 C1152.7,1254.56 1155.02,1250.39 1159.64,1246.42 C1164.27,1242.45 1169.28,1240.47 1174.67,1240.47"/>
<path class="Note" d="M2339.96,1715.47 C2343.09,1715.47 2345.69,1716.25 2347.78,1717.81 C2349.86,1719.37 2350.9,1721.62 2350.9,1724.55 C2350.9,1729.04 2348.58,1733.23 2343.92,1737.14 C2339.27,1741.05 2334.28,1743 2328.93,1743 C2325.81,1743 2323.17,1742.19 2321.03,1740.56 C2319.01,1738.8 2317.99,1736.59 2317.99,1733.92 C2317.99,1729.56 2320.31,1725.39 2324.93,1721.42 C2329.56,1717.45 2334.57,1715.47 2339.96,1715.47"/>
<path class="Note" d="M1065.91,1227.97 C1069.03,1227.97 1071.64,1228.75 1073.72,1230.31 C1075.8,1231.87 1076.85,1234.12 1076.85,1237.05 C1076.85,1241.54 1074.52,1245.73 1069.87,1249.64 C1065.22,1253.55 1060.22,1255.5 1054.88,1255.5 C1051.75,1255.5 1049.12,1254.69 1046.97,1253.06 C1044.95,1251.3 1043.94,1249.09 1043.94,1246.42 C1043.94,1242.06 1046.25,1237.89 1050.88,1233.92 C1055.5,1229.95 1060.51,1227.97 1065.91,1227.97"/>
<path class="Note" d="M1908.62,365.467 C1911.74,365.467 1914.35,366.248 1916.43,367.811 C1918.51,369.373 1919.55,371.618 1919.55,374.545 C1919.55,379.035 1917.23,383.233 1912.58,387.139 C1907.93,391.045 1902.93,392.998 1897.59,392.998 C1894.46,392.998 1891.82,392.186 1889.68,390.561 C1887.66,388.8 1886.65,386.587 1886.65,383.92 C1886.65,379.555 1888.96,375.389 1893.59,371.42 C1898.21,367.451 1903.22,365.467 1908.62,365.467"/>
<path class="Note" d="M1762.75,1765.47 C1765.88,1765.47 1768.48,1766.25 1770.56,1767.81 C1772.65,1769.37 1773.69,1771.62 1773.69,1774.55 C1773.69,1779.04 1771.36,1783.23 1766.71,1787.14 C1762.06,1791.05 1757.06,1793 1751.72,1793 C1748.59,1793 1745.96,1792.19 1743.81,1790.56 C1741.79,1788.8 1740.78,1786.59 1740.78,1783.92 C1740.78,1779.56 1743.09,1775.39 1747.72,1771.42 C1752.34,1767.45 1757.35,1765.47 1762.75,1765.47"/>
<path class="Clef" d="M203.623,423.858 L203.623,421.717 C203.56,420.613 203.399,418.889 203.139,416.545 C199.889,417.066 196.993,417.326 194.451,417.326 C185.337,417.326 177.605,413.727 171.256,406.529 C164.907,399.331 161.732,390.753 161.732,380.795 C161.732,378.128 162.253,374.923 163.295,371.178 C164.337,367.433 165.297,364.925 166.178,363.654 C167.058,362.384 168.378,360.154 170.139,356.967 C170.659,355.988 172.352,353.837 175.217,350.514 C175.738,349.805 176.193,349.222 176.584,348.764 C176.975,348.305 177.607,347.49 178.482,346.318 C179.357,345.147 180.3,344.055 181.31,343.045 C182.321,342.035 183.217,341.058 183.998,340.115 C184.779,339.173 185.498,338.378 186.154,337.733 C183.81,329.983 182.378,324.024 181.857,319.858 C181.337,315.691 181.076,310.579 181.076,304.522 C181.076,298.464 182.378,292.962 184.982,288.014 C187.514,282.878 191.06,278.68 195.623,275.42 C195.883,275.222 196.225,275.123 196.646,275.123 C197.068,275.123 197.378,275.222 197.576,275.42 C201.087,279.649 204.128,285.149 206.701,291.92 C209.274,298.691 210.56,305.024 210.56,310.92 C210.56,316.816 209.066,322.498 206.076,327.967 C202.691,333.759 198.326,339.748 192.982,345.936 C194.347,350.227 196.17,356.962 198.451,366.139 L199.045,366.139 C199.305,366.076 199.529,366.045 199.717,366.045 C207.081,366.045 213.089,368.634 217.74,373.811 C222.391,378.988 224.717,384.962 224.717,391.733 C224.717,400.128 221.238,406.899 214.279,412.045 C212.258,413.545 209.878,414.717 207.139,415.561 C207.472,419.79 207.639,422.605 207.639,424.006 C207.639,425.407 207.571,427.899 207.435,431.483 C207.373,437.597 205.29,442.837 201.185,447.201 C197.081,451.566 192.394,453.748 187.123,453.748 C181.852,453.748 177.36,451.876 173.646,448.131 C169.933,444.386 168.076,439.847 168.076,434.514 C168.076,431.712 169.154,429.331 171.31,427.373 C173.519,425.425 176.006,424.451 178.771,424.451 C181.537,424.451 183.8,425.462 185.56,427.483 C187.383,429.368 188.295,431.644 188.295,434.311 C188.295,436.977 187.383,439.222 185.56,441.045 C183.738,442.868 181.555,443.779 179.014,443.779 C177.972,443.779 176.967,443.587 175.998,443.201 C178.863,447.43 182.54,449.545 187.029,449.545 C191.519,449.545 195.36,447.691 198.553,443.983 C201.745,440.274 203.342,435.91 203.342,430.889 L203.623,423.858 M206.748,411.561 C210.133,410.321 212.821,408.123 214.81,404.967 C216.8,401.811 217.795,398.67 217.795,395.545 C217.795,390.92 216.199,386.785 213.006,383.139 C209.813,379.493 205.774,377.441 200.889,376.983 C203.691,390.722 205.644,402.248 206.748,411.561 M168.967,388.998 C168.967,395.446 171.537,401.079 176.678,405.897 C181.818,410.714 187.842,413.123 194.748,413.123 C197.477,413.123 200.144,412.925 202.748,412.529 C201.706,402.634 199.654,390.785 196.592,376.983 C192.758,377.378 189.782,378.699 187.662,380.943 C185.542,383.188 184.482,385.743 184.482,388.608 C184.482,393.555 187.123,397.561 192.404,400.623 C192.852,400.884 193.076,401.324 193.076,401.943 C193.076,402.563 192.865,403.1 192.443,403.553 C192.021,404.006 191.649,404.233 191.326,404.233 C191.003,404.233 190.581,404.17 190.06,404.045 C182.435,399.878 178.623,393.592 178.623,385.186 C178.623,381.217 180.024,377.41 182.826,373.764 C185.753,370.118 189.56,367.774 194.248,366.733 C192.425,359.441 190.93,353.743 189.764,349.639 C180.847,359.67 175.31,367.092 173.154,371.904 C170.363,378.154 168.967,383.852 168.967,388.998 M201.576,289.686 C196.691,292.092 192.834,295.574 190.006,300.131 C187.178,304.688 185.764,309.472 185.764,314.483 C185.764,319.493 186.935,325.972 189.279,333.92 C193.967,328.253 197.514,322.946 199.92,317.998 C202.326,313.05 203.529,308.152 203.529,303.303 C203.529,298.454 202.878,293.915 201.576,289.686"/>
<path class="Clef" d="M203.623,1848.86 L203.623,1846.72 C203.56,1845.61 203.399,1843.89 203.139,1841.55 C199.889,1842.07 196.993,1842.33 194.451,1842.33 C185.337,1842.33 177.605,1838.73 171.256,1831.53 C164.907,1824.33 161.732,1815.75 161.732,1805.8 C161.732,1803.13 162.253,1799.92 163.295,1796.18 C164.337,1792.43 165.297,1789.93 166.178,1788.66 C167.058,1787.38 168.378,1785.16 170.139,1781.97 C170.659,1780.99 172.352,1778.84 175.217,1775.51 C175.738,1774.81 176.193,1774.22 176.584,1773.76 C176.975,1773.31 177.607,1772.49 178.482,1771.32 C179.357,1770.15 180.3,1769.06 181.31,1768.05 C182.321,1767.04 183.217,1766.06 183.998,1765.12 C184.779,1764.17 185.498,1763.38 186.154,1762.73 C183.81,1754.98 182.378,1749.03 181.857,1744.86 C181.337,1740.69 181.076,1735.58 181.076,1729.52 C181.076,1723.47 182.378,1717.96 184.982,1713.01 C187.514,1707.88 191.06,1703.68 195.623,1700.42 C195.883,1700.22 196.225,1700.12 196.646,1700.12 C197.068,1700.12 197.378,1700.22 197.576,1700.42 C201.087,1704.65 204.128,1710.15 206.701,1716.92 C209.274,1723.69 210.56,1730.03 210.56,1735.92 C210.56,1741.82 209.066,1747.5 206.076,1752.97 C202.691,1758.76 198.326,1764.75 192.982,1770.94 C194.347,1775.23 196.17,1781.96 198.451,1791.14 L199.045,1791.14 C199.305,1791.08 199.529,1791.05 199.717,1791.05 C207.081,1791.05 213.089,1793.63 217.74,1798.81 C222.391,1803.99 224.717,1809.96 224.717,1816.73 C224.717,1825.13 221.238,1831.9 214.279,1837.05 C212.258,1838.55 209.878,1839.72 207.139,1840.56 C207.472,1844.79 207.639,1847.61 207.639,1849.01 C207.639,1850.41 207.571,1852.9 207.435,1856.48 C207.373,1862.6 205.29,1867.84 201.185,1872.2 C197.081,1876.57 192.394,1878.75 187.123,1878.75 C181.852,1878.75 177.36,1876.88 173.646,1873.13 C169.933,1869.39 168.076,1864.85 168.076,1859.51 C168.076,1856.71 169.154,1854.33 171.31,1852.37 C173.519,1850.43 176.006,1849.45 178.771,1849.45 C181.537,1849.45 183.8,1850.46 185.56,1852.48 C187.383,1854.37 188.295,1856.64 188.295,1859.31 C188.295,1861.98 187.383,1864.22 185.56,1866.05 C183.738,1867.87 181.555,1868.78 179.014,1868.78 C177.972,1868.78 176.967,1868.59 175.998,1868.2 C178.863,1872.43 182.54,1874.55 187.029,1874.55 C191.519,1874.55 195.36,1872.69 198.553,1868.98 C201.745,1865.28 203.342,1860.91 203.342,1855.89 L203.623,1848.86 M206.748,1836.56 C210.133,1835.32 212.821,1833.12 214.81,1829.97 C216.8,1826.81 217.795,1823.67 217.795,1820.55 C217.795,1815.92 216.199,1811.79 213.006,1808.14 C209.813,1804.49 205.774,1802.44 200.889,1801.98 C203.691,1815.72 205.644,1827.25 206.748,1836.56 M168.967,1814 C168.967,1820.45 171.537,1826.08 176.678,1830.9 C181.818,1835.72 187.842,1838.12 194.748,1838.12 C197.477,1838.12 200.144,1837.93 202.748,1837.53 C201.706,1827.63 199.654,1815.79 196.592,1801.98 C192.758,1802.38 189.782,1803.7 187.662,1805.94 C185.542,1808.19 184.482,1810.74 184.482,1813.61 C184.482,1818.56 187.123,1822.56 192.404,1825.62 C192.852,1825.88 193.076,1826.32 193.076,1826.94 C193.076,1827.56 192.865,1828.1 192.443,1828.55 C192.021,1829.01 191.649,1829.23 191.326,1829.23 C191.003,1829.23 190.581,1829.17 190.06,1829.05 C182.435,1824.88 178.623,1818.59 178.623,1810.19 C178.623,1806.22 180.024,1802.41 182.826,1798.76 C185.753,1795.12 189.56,1792.78 194.248,1791.73 C192.425,1784.44 190.93,1778.74 189.764,1774.64 C180.847,1784.67 175.31,1792.09 173.154,1796.91 C170.363,1803.16 168.967,1808.85 168.967,1814 M201.576,1714.69 C196.691,1717.09 192.834,1720.57 190.006,1725.13 C187.178,1729.69 185.764,1734.47 185.764,1739.48 C185.764,1744.49 186.935,1750.97 189.279,1758.92 C193.967,1753.25 197.514,1747.95 199.92,1743 C202.326,1738.05 203.529,1733.15 203.529,1728.3 C203.529,1723.45 202.878,1718.92 201.576,1714.69"/>
<path class="Clef" d="M203.623,1373.86 L203.623,1371.72 C203.56,1370.61 203.399,1368.89 203.139,1366.55 C199.889,1367.07 196.993,1367.33 194.451,1367.33 C185.337,1367.33 177.605,1363.73 171.256,1356.53 C164.907,1349.33 161.732,1340.75 161.732,1330.8 C161.732,1328.13 162.253,1324.92 163.295,1321.18 C164.337,1317.43 165.297,1314.93 166.178,1313.65 C167.058,1312.38 168.378,1310.15 170.139,1306.97 C170.659,1305.99 172.352,1303.84 175.217,1300.51 C175.738,1299.81 176.193,1299.22 176.584,1298.76 C176.975,1298.31 177.607,1297.49 178.482,1296.32 C179.357,1295.15 180.3,1294.06 181.31,1293.05 C182.321,1292.04 183.217,1291.06 183.998,1290.12 C184.779,1289.17 185.498,1288.38 186.154,1287.73 C183.81,1279.98 182.378,1274.02 181.857,1269.86 C181.337,1265.69 181.076,1260.58 181.076,1254.52 C181.076,1248.46 182.378,1242.96 184.982,1238.01 C187.514,1232.88 191.06,1228.68 195.623,1225.42 C195.883,1225.22 196.225,1225.12 196.646,1225.12 C197.068,1225.12 197.378,1225.22 197.576,1225.42 C201.087,1229.65 204.128,1235.15 206.701,1241.92 C209.274,1248.69 210.56,1255.02 210.56,1260.92 C210.56,1266.82 209.066,1272.5 206.076,1277.97 C202.691,1283.76 198.326,1289.75 192.982,1295.94 C194.347,1300.23 196.17,1306.96 198.451,1316.14 L199.045,1316.14 C199.305,1316.08 199.529,1316.05 199.717,1316.05 C207.081,1316.05 213.089,1318.63 217.74,1323.81 C222.391,1328.99 224.717,1334.96 224.717,1341.73 C224.717,1350.13 221.238,1356.9 214.279,1362.05 C212.258,1363.55 209.878,1364.72 207.139,1365.56 C207.472,1369.79 207.639,1372.61 207.639,1374.01 C207.639,1375.41 207.571,1377.9 207.435,1381.48 C207.373,1387.6 205.29,1392.84 201.185,1397.2 C197.081,1401.57 192.394,1403.75 187.123,1403.75 C181.852,1403.75 177.36,1401.88 173.646,1398.13 C169.933,1394.39 168.076,1389.85 168.076,1384.51 C168.076,1381.71 169.154,1379.33 171.31,1377.37 C173.519,1375.43 176.006,1374.45 178.771,1374.45 C181.537,1374.45 183.8,1375.46 185.56,1377.48 C187.383,1379.37 188.295,1381.64 188.295,1384.31 C188.295,1386.98 187.383,1389.22 185.56,1391.05 C183.738,1392.87 181.555,1393.78 179.014,1393.78 C177.972,1393.78 176.967,1393.59 175.998,1393.2 C178.863,1397.43 182.54,1399.55 187.029,1399.55 C191.519,1399.55 195.36,1397.69 198.553,1393.98 C201.745,1390.27 203.342,1385.91 203.342,1380.89 L203.623,1373.86 M206.748,1361.56 C210.133,1360.32 212.821,1358.12 214.81,1354.97 C216.8,1351.81 217.795,1348.67 217.795,1345.55 C217.795,1340.92 216.199,1336.79 213.006,1333.14 C209.813,1329.49 205.774,1327.44 200.889,1326.98 C203.691,1340.72 205.644,1352.25 206.748,1361.56 M168.967,1339 C168.967,1345.45 171.537,1351.08 176.678,1355.9 C181.818,1360.71 187.842,1363.12 194.748,1363.12 C197.477,1363.12 200.144,1362.93 202.748,1362.53 C201.706,1352.63 199.654,1340.79 196.592,1326.98 C192.758,1327.38 189.782,1328.7 187.662,1330.94 C185.542,1333.19 184.482,1335.74 184.482,1338.61 C184.482,1343.56 187.123,1347.56 192.404,1350.62 C192.852,1350.88 193.076,1351.32 193.076,1351.94 C193.076,1352.56 192.865,1353.1 192.443,1353.55 C192.021,1354.01 191.649,1354.23 191.326,1354.23 C191.003,1354.23 190.581,1354.17 190.06,1354.05 C182.435,1349.88 178.623,1343.59 178.623,1335.19 C178.623,1331.22 180.024,1327.41 182.826,1323.76 C185.753,1320.12 189.56,1317.77 194.248,1316.73 C192.425,1309.44 190.93,1303.74 189.764,1299.64 C180.847,1309.67 175.31,1317.09 173.154,1321.9 C170.363,1328.15 168.967,1333.85 168.967,1339 M201.576,1239.69 C196.691,1242.09 192.834,1245.57 190.006,1250.13 C187.178,1254.69 185.764,1259.47 185.764,1264.48 C185.764,1269.49 186.935,1275.97 189.279,1283.92 C193.967,1278.25 197.514,1272.95 199.92,1268 C202.326,1263.05 203.529,1258.15 203.529,1253.3 C203.529,1248.45 202.878,1243.92 201.576,1239.69"/>
<path class="Clef" d="M203.623,898.858 L203.623,896.717 C203.56,895.613 203.399,893.889 203.139,891.545 C199.889,892.066 196.993,892.327 194.451,892.327 C185.337,892.327 177.605,888.728 171.256,881.53 C164.907,874.332 161.732,865.754 161.732,855.795 C161.732,853.129 162.253,849.923 163.295,846.178 C164.337,842.433 165.297,839.926 166.178,838.655 C167.058,837.384 168.378,835.155 170.139,831.967 C170.659,830.988 172.352,828.837 175.217,825.514 C175.738,824.806 176.193,824.222 176.584,823.764 C176.975,823.306 177.607,822.491 178.482,821.319 C179.357,820.147 180.3,819.056 181.31,818.045 C182.321,817.035 183.217,816.058 183.998,815.116 C184.779,814.173 185.498,813.379 186.154,812.733 C183.81,804.983 182.378,799.024 181.857,794.858 C181.337,790.691 181.076,785.579 181.076,779.522 C181.076,773.465 182.378,767.962 184.982,763.014 C187.514,757.879 191.06,753.681 195.623,750.42 C195.883,750.222 196.225,750.123 196.646,750.123 C197.068,750.123 197.378,750.222 197.576,750.42 C201.087,754.649 204.128,760.149 206.701,766.92 C209.274,773.691 210.56,780.024 210.56,785.92 C210.56,791.816 209.066,797.498 206.076,802.967 C202.691,808.759 198.326,814.748 192.982,820.936 C194.347,825.228 196.17,831.962 198.451,841.139 L199.045,841.139 C199.305,841.077 199.529,841.045 199.717,841.045 C207.081,841.045 213.089,843.634 217.74,848.811 C222.391,853.988 224.717,859.962 224.717,866.733 C224.717,875.129 221.238,881.899 214.279,887.045 C212.258,888.545 209.878,889.717 207.139,890.561 C207.472,894.79 207.639,897.605 207.639,899.006 C207.639,900.407 207.571,902.899 207.435,906.483 C207.373,912.597 205.29,917.837 201.185,922.202 C197.081,926.566 192.394,928.748 187.123,928.748 C181.852,928.748 177.36,926.876 173.646,923.131 C169.933,919.386 168.076,914.847 168.076,909.514 C168.076,906.712 169.154,904.332 171.31,902.373 C173.519,900.426 176.006,899.452 178.771,899.452 C181.537,899.452 183.8,900.462 185.56,902.483 C187.383,904.368 188.295,906.644 188.295,909.311 C188.295,911.978 187.383,914.222 185.56,916.045 C183.738,917.868 181.555,918.78 179.014,918.78 C177.972,918.78 176.967,918.587 175.998,918.202 C178.863,922.431 182.54,924.545 187.029,924.545 C191.519,924.545 195.36,922.691 198.553,918.983 C201.745,915.274 203.342,910.91 203.342,905.889 L203.623,898.858 M206.748,886.561 C210.133,885.321 212.821,883.123 214.81,879.967 C216.8,876.811 217.795,873.67 217.795,870.545 C217.795,865.92 216.199,861.785 213.006,858.139 C209.813,854.493 205.774,852.441 200.889,851.983 C203.691,865.722 205.644,877.248 206.748,886.561 M168.967,863.998 C168.967,870.446 171.537,876.079 176.678,880.897 C181.818,885.715 187.842,888.123 194.748,888.123 C197.477,888.123 200.144,887.926 202.748,887.53 C201.706,877.634 199.654,865.785 196.592,851.983 C192.758,852.379 189.782,853.699 187.662,855.944 C185.542,858.189 184.482,860.743 184.482,863.608 C184.482,868.556 187.123,872.561 192.404,875.623 C192.852,875.884 193.076,876.324 193.076,876.944 C193.076,877.564 192.865,878.1 192.443,878.553 C192.021,879.006 191.649,879.233 191.326,879.233 C191.003,879.233 190.581,879.17 190.06,879.045 C182.435,874.879 178.623,868.592 178.623,860.186 C178.623,856.217 180.024,852.41 182.826,848.764 C185.753,845.118 189.56,842.774 194.248,841.733 C192.425,834.441 190.93,828.743 189.764,824.639 C180.847,834.67 175.31,842.092 173.154,846.905 C170.363,853.155 168.967,858.853 168.967,863.998 M201.576,764.686 C196.691,767.092 192.834,770.574 190.006,775.131 C187.178,779.689 185.764,784.472 185.764,789.483 C185.764,794.493 186.935,800.972 189.279,808.92 C193.967,803.254 197.514,797.946 199.92,792.998 C202.326,788.051 203.529,783.152 203.529,778.303 C203.529,773.454 202.878,768.915 201.576,764.686"/>
<path class="KeySig" d="M251.123,384.311 L249.857,322.201 C249.857,321.222 250.623,320.733 252.154,320.733 C253.686,320.733 254.451,321.222 254.451,322.201 L253.67,356.092 C255.43,354.331 256.943,353.11 258.209,352.428 C259.475,351.746 261.199,351.404 263.381,351.404 C265.563,351.404 267.581,352.412 269.436,354.428 C271.29,356.443 272.217,358.951 272.217,361.951 C272.217,366.441 267.498,372.66 258.061,380.608 C254.55,383.795 252.727,385.389 252.592,385.389 L252.014,385.389 C251.42,385.389 251.123,385.029 251.123,384.311 M253.576,359.217 L253.279,381.389 C255.3,379.493 257.352,376.347 259.436,371.951 C261.519,367.555 262.561,363.795 262.561,360.67 C262.561,359.108 262.3,357.675 261.779,356.373 C261.258,355.071 260.443,354.42 259.334,354.42 C258.225,354.42 257.23,354.811 256.35,355.592 C255.469,356.373 254.545,357.581 253.576,359.217"/>
<path class="KeySig" d="M251.123,1809.31 L249.857,1747.2 C249.857,1746.22 250.623,1745.73 252.154,1745.73 C253.686,1745.73 254.451,1746.22 254.451,1747.2 L253.67,1781.09 C255.43,1779.33 256.943,1778.11 258.209,1777.43 C259.475,1776.75 261.199,1776.41 263.381,1776.41 C265.563,1776.41 267.581,1777.41 269.436,1779.43 C271.29,1781.44 272.217,1783.95 272.217,1786.95 C272.217,1791.44 267.498,1797.66 258.061,1805.61 C254.55,1808.8 252.727,1810.39 252.592,1810.39 L252.014,1810.39 C251.42,1810.39 251.123,1810.03 251.123,1809.31 M253.576,1784.22 L253.279,1806.39 C255.3,1804.49 257.352,1801.35 259.436,1796.95 C261.519,1792.56 262.561,1788.8 262.561,1785.67 C262.561,1784.11 262.3,1782.68 261.779,1781.37 C261.258,1780.07 260.443,1779.42 259.334,1779.42 C258.225,1779.42 257.23,1779.81 256.35,1780.59 C255.469,1781.37 254.545,1782.58 253.576,1784.22"/>
<path class="KeySig" d="M251.123,1334.31 L249.857,1272.2 C249.857,1271.22 250.623,1270.73 252.154,1270.73 C253.686,1270.73 254.451,1271.22 254.451,1272.2 L253.67,1306.09 C255.43,1304.33 256.943,1303.11 258.209,1302.43 C259.475,1301.75 261.199,1301.4 263.381,1301.4 C265.563,1301.4 267.581,1302.41 269.436,1304.43 C271.29,1306.44 272.217,1308.95 272.217,1311.95 C272.217,1316.44 267.498,1322.66 258.061,1330.61 C254.55,1333.8 252.727,1335.39 252.592,1335.39 L252.014,1335.39 C251.42,1335.39 251.123,1335.03 251.123,1334.31 M253.576,1309.22 L253.279,1331.39 C255.3,1329.49 257.352,1326.35 259.436,1321.95 C261.519,1317.56 262.561,1313.8 262.561,1310.67 C262.561,1309.11 262.3,1307.68 261.779,1306.37 C261.258,1305.07 260.443,1304.42 259.334,1304.42 C258.225,1304.42 257.23,1304.81 256.35,1305.59 C255.469,1306.37 254.545,1307.58 253.576,1309.22"/>
<path class="KeySig" d="M251.123,859.311 L249.857,797.202 C249.857,796.222 250.623,795.733 252.154,795.733 C253.686,795.733 254.451,796.222 254.451,797.202 L253.67,831.092 C255.43,829.332 256.943,828.11 258.209,827.428 C259.475,826.746 261.199,826.405 263.381,826.405 C265.563,826.405 267.581,827.412 269.436,829.428 C271.29,831.444 272.217,833.952 272.217,836.952 C272.217,841.441 267.498,847.66 258.061,855.608 C254.55,858.795 252.727,860.389 252.592,860.389 L252.014,860.389 C251.42,860.389 251.123,860.03 251.123,859.311 M253.576,834.217 L253.279,856.389 C255.3,854.493 257.352,851.347 259.436,846.952 C261.519,842.556 262.561,838.795 262.561,835.67 C262.561,834.108 262.3,832.676 261.779,831.373 C261.258,830.071 260.443,829.42 259.334,829.42 C258.225,829.42 257.23,829.811 256.35,830.592 C255.469,831.373 254.545,832.582 253.576,834.217"/>
<path class="TimeSig" d="M320.537,317.912 C322.032,317.912 323.464,317.686 324.834,317.232 C326.204,316.779 327.18,316.553 327.764,316.553 C328.347,316.553 328.738,316.907 328.936,317.615 C328.936,317.688 328.868,317.886 328.732,318.209 L300.326,351.225 L317.014,351.225 L317.014,338.131 C317.014,336.506 317.962,335.334 319.857,334.615 C321.805,333.897 324.019,331.001 326.498,325.928 C326.686,325.532 326.977,325.334 327.373,325.334 C328.154,325.334 328.607,325.792 328.732,326.709 L328.732,351.225 L335.873,351.225 C336.779,351.225 337.266,351.712 337.334,352.686 C337.402,353.66 336.915,354.147 335.873,354.147 L328.732,354.147 L328.732,354.928 C328.732,357.532 329.383,359.746 330.686,361.568 C332.186,363.391 333.946,364.303 335.967,364.303 C336.748,364.303 337.139,364.693 337.139,365.475 C337.139,366.256 336.602,366.647 335.529,366.647 C334.456,366.647 332.454,366.436 329.522,366.014 C326.589,365.592 324.326,365.381 322.732,365.381 C321.139,365.381 318.925,365.592 316.092,366.014 C313.258,366.436 311.128,366.647 309.701,366.647 C308.92,366.647 308.529,366.256 308.529,365.475 C308.529,364.693 308.92,364.303 309.701,364.303 C311.712,364.303 313.467,363.391 314.967,361.568 C316.331,359.683 317.014,357.469 317.014,354.928 L317.014,354.147 L300.326,354.147 C299.472,354.147 298.735,353.92 298.115,353.467 C297.495,353.014 297.186,352.592 297.186,352.201 C297.186,351.811 298.001,350.639 299.631,348.686 C301.261,346.732 303.589,342.972 306.615,337.404 C309.641,331.837 311.154,325.438 311.154,318.209 C311.154,317.167 311.613,316.647 312.529,316.647 C312.727,316.647 313.037,316.712 313.459,316.842 C313.881,316.972 314.792,317.183 316.193,317.475 C317.594,317.766 319.042,317.912 320.537,317.912"/>
<path class="TimeSig" d="M320.537,368.084 C322.032,368.084 323.464,367.858 324.834,367.404 C326.204,366.951 327.18,366.725 327.764,366.725 C328.347,366.725 328.738,367.079 328.936,367.787 C328.936,367.86 328.868,368.058 328.732,368.381 L300.326,401.397 L317.014,401.397 L317.014,388.303 C317.014,386.678 317.962,385.506 319.857,384.787 C321.805,384.068 324.019,381.173 326.498,376.1 C326.686,375.704 326.977,375.506 327.373,375.506 C328.154,375.506 328.607,375.964 328.732,376.881 L328.732,401.397 L335.873,401.397 C336.779,401.397 337.266,401.884 337.334,402.858 C337.402,403.831 336.915,404.318 335.873,404.318 L328.732,404.318 L328.732,405.1 C328.732,407.704 329.383,409.917 330.686,411.74 C332.186,413.563 333.946,414.475 335.967,414.475 C336.748,414.475 337.139,414.865 337.139,415.647 C337.139,416.428 336.602,416.818 335.529,416.818 C334.456,416.818 332.454,416.608 329.522,416.186 C326.589,415.764 324.326,415.553 322.732,415.553 C321.139,415.553 318.925,415.764 316.092,416.186 C313.258,416.608 311.128,416.818 309.701,416.818 C308.92,416.818 308.529,416.428 308.529,415.647 C308.529,414.865 308.92,414.475 309.701,414.475 C311.712,414.475 313.467,413.563 314.967,411.74 C316.331,409.855 317.014,407.641 317.014,405.1 L317.014,404.318 L300.326,404.318 C299.472,404.318 298.735,404.092 298.115,403.639 C297.495,403.186 297.186,402.764 297.186,402.373 C297.186,401.983 298.001,400.811 299.631,398.858 C301.261,396.904 303.589,393.144 306.615,387.576 C309.641,382.009 311.154,375.61 311.154,368.381 C311.154,367.339 311.613,366.818 312.529,366.818 C312.727,366.818 313.037,366.884 313.459,367.014 C313.881,367.144 314.792,367.355 316.193,367.647 C317.594,367.938 319.042,368.084 320.537,368.084"/>
<path class="NoteDot" d="M378.979,1733.24 C377.869,1732.13 377.315,1730.8 377.315,1729.23 C377.315,1727.67 377.869,1726.33 378.979,1725.23 C380.088,1724.12 381.424,1723.56 382.986,1723.56 C384.549,1723.56 385.882,1724.12 386.986,1725.23 C388.091,1726.33 388.643,1727.67 388.643,1729.23 C388.643,1730.8 388.091,1732.13 386.986,1733.24 C385.882,1734.35 384.549,1734.91 382.986,1734.91 C381.424,1734.91 380.088,1734.35 378.979,1733.24"/>
<path class="NoteDot" d="M642.881,358.24 C641.772,357.131 641.217,355.795 641.217,354.232 C641.217,352.67 641.772,351.334 642.881,350.225 C643.99,349.115 645.326,348.561 646.889,348.561 C648.451,348.561 649.785,349.115 650.889,350.225 C651.993,351.334 652.545,352.67 652.545,354.232 C652.545,355.795 651.993,357.131 650.889,358.24 C649.785,359.35 648.451,359.904 646.889,359.904 C645.326,359.904 643.99,359.35 642.881,358.24"/>
<path class="NoteDot" d="M1392.51,358.24 C1391.4,357.131 1390.85,355.795 1390.85,354.232 C1390.85,352.67 1391.4,351.334 1392.51,350.225 C1393.62,349.115 1394.96,348.561 1396.52,348.561 C1398.08,348.561 1399.41,349.115 1400.52,350.225 C1401.62,351.334 1402.17,352.67 1402.17,354.232 C1402.17,355.795 1401.62,357.131 1400.52,358.24 C1399.41,359.35 1398.08,359.904 1396.52,359.904 C1394.96,359.904 1393.62,359.35 1392.51,358.24"/>
<path class="NoteDot" d="M378.979,833.241 C377.869,832.131 377.315,830.795 377.315,829.233 C377.315,827.67 377.869,826.334 378.979,825.225 C380.088,824.116 381.424,823.561 382.986,823.561 C384.549,823.561 385.882,824.116 386.986,825.225 C388.091,826.334 388.643,827.67 388.643,829.233 C388.643,830.795 388.091,832.131 386.986,833.241 C385.882,834.35 384.549,834.905 382.986,834.905 C381.424,834.905 380.088,834.35 378.979,833.241"/>
<path class="NoteDot" d="M877.975,833.241 C876.865,832.131 876.311,830.795 876.311,829.233 C876.311,827.67 876.865,826.334 877.975,825.225 C879.084,824.116 880.42,823.561 881.983,823.561 C883.545,823.561 884.878,824.116 885.983,825.225 C887.087,826.334 887.639,827.67 887.639,829.233 C887.639,830.795 887.087,832.131 885.983,833.241 C884.878,834.35 883.545,834.905 881.983,834.905 C880.42,834.905 879.084,834.35 877.975,833.241"/>
<path class="NoteDot" d="M1545.5,833.241 C1544.39,832.131 1543.83,830.795 1543.83,829.233 C1543.83,827.67 1544.39,826.334 1545.5,825.225 C1546.61,824.116 1547.94,823.561 1549.5,823.561 C1551.07,823.561 1552.4,824.116 1553.5,825.225 C1554.61,826.334 1555.16,827.67 1555.16,829.233 C1555.16,830.795 1554.61,832.131 1553.5,833.241 C1552.4,834.35 1551.07,834.905 1549.5,834.905 C1547.94,834.905 1546.61,834.35 1545.5,833.241"/>
<path class="NoteDot" d="M378.979,1258.24 C377.869,1257.13 377.315,1255.8 377.315,1254.23 C377.315,1252.67 377.869,1251.33 378.979,1250.23 C380.088,1249.12 381.424,1248.56 382.986,1248.56 C384.549,1248.56 385.882,1249.12 386.986,1250.23 C388.091,1251.33 388.643,1252.67 388.643,1254.23 C388.643,1255.8 388.091,1257.13 386.986,1258.24 C385.882,1259.35 384.549,1259.9 382.986,1259.9 C381.424,1259.9 380.088,1259.35 378.979,1258.24"/>
<path class="NoteDot" d="M880.45,1233.24 C879.341,1232.13 878.786,1230.8 878.786,1229.23 C878.786,1227.67 879.341,1226.33 880.45,1225.23 C881.56,1224.12 882.896,1223.56 884.458,1223.56 C886.021,1223.56 887.354,1224.12 888.458,1225.23 C889.562,1226.33 890.114,1227.67 890.114,1229.23 C890.114,1230.8 889.562,1232.13 888.458,1233.24 C887.354,1234.35 886.021,1234.9 884.458,1234.9 C882.896,1234.9 881.56,1234.35 880.45,1233.24"/>
<path class="NoteDot" d="M1551.33,1258.24 C1550.22,1257.13 1549.66,1255.8 1549.66,1254.23 C1549.66,1252.67 1550.22,1251.33 1551.33,1250.23 C1552.44,1249.12 1553.77,1248.56 1555.34,1248.56 C1556.9,1248.56 1558.23,1249.12 1559.34,1250.23 C1560.44,1251.33 1560.99,1252.67 1560.99,1254.23 C1560.99,1255.8 1560.44,1257.13 1559.34,1258.24 C1558.23,1259.35 1556.9,1259.9 1555.34,1259.9 C1553.77,1259.9 1552.44,1259.35 1551.33,1258.24"/>
<path class="NoteDot" d="M804.737,1733.24 C803.628,1732.13 803.073,1730.8 803.073,1729.23 C803.073,1727.67 803.628,1726.33 804.737,1725.23 C805.846,1724.12 807.182,1723.56 808.745,1723.56 C810.307,1723.56 811.641,1724.12 812.745,1725.23 C813.849,1726.33 814.401,1727.67 814.401,1729.23 C814.401,1730.8 813.849,1732.13 812.745,1733.24 C811.641,1734.35 810.307,1734.91 808.745,1734.91 C807.182,1734.91 805.846,1734.35 804.737,1733.24"/>
</svg>
