<?xml version="1.0" encoding="UTF-8" standalone="no"?>
<svg width="2977.2px" height="4208.4px" viewBox="0 0 2977.2 4208.4"
 xmlns="http://www.w3.org/2000/svg" xmlns:xlink="http://www.w3.org/1999/xlink" version="1.2" baseProfile="tiny">
<title>Gb_Minor_Arpeggio.mscx</title>
<desc>Generated by MuseScore Studio 4.3.1</desc>
<path class="" fill="#ffffff" fill-rule="evenodd" d="M0,0 L2977.2,0 L2977.2,4208.4 L0,4208.4 L0,0 "/>
<polyline class="StaffLines" fill="none" stroke="#000000" stroke-width="2.00" stroke-linejoin="bevel" points="141.732,566.733 2835.47,566.733"/>
<polyline class="StaffLines" fill="none" stroke="#000000" stroke-width="2.00" stroke-linejoin="bevel" points="141.732,591.733 2835.47,591.733"/>
<polyline class="StaffLines" fill="none" stroke="#000000" stroke-width="2.00" stroke-linejoin="bevel" points="141.732,616.733 2835.47,616.733"/>
<polyline class="StaffLines" fill="none" stroke="#000000" stroke-width="2.00" stroke-linejoin="bevel" points="141.732,641.733 2835.47,641.733"/>
<polyline class="StaffLines" fill="none" stroke="#000000" stroke-width="2.00" stroke-linejoin="bevel" points="141.732,666.733 2835.47,666.733"/>
<polyline class="BarLine" fill="none" stroke="#000000" stroke-width="4.00" stroke-linejoin="bevel" points="2181.51,565.733 2181.51,667.733"/>
<polyline class="BarLine" fill="none" stroke="#000000" stroke-width="4.00" stroke-linejoin="bevel" points="1560.3,565.733 1560.3,667.733"/>
<polyline class="BarLine" fill="none" stroke="#000000" stroke-width="4.00" stroke-linejoin="bevel" points="2802.72,565.733 2802.72,667.733"/>
<polyline class="BarLine" fill="none" stroke="#000000" stroke-width="12.50" stroke-linejoin="bevel" points="2829.22,565.733 2829.22,667.733"/>
<polyline class="BarLine" fill="none" stroke="#000000" stroke-width="4.00" stroke-linejoin="bevel" points="939.084,565.733 939.084,667.733"/>
<path class="Accidental" d="M2192.4,659.311 L2191.13,597.201 C2191.13,596.222 2191.9,595.733 2193.43,595.733 C2194.96,595.733 2195.73,596.222 2195.73,597.201 L2194.94,631.092 C2196.7,629.332 2198.22,628.11 2199.48,627.428 C2200.75,626.746 2202.47,626.405 2204.66,626.405 C2206.84,626.405 2208.86,627.412 2210.71,629.428 C2212.56,631.444 2213.49,633.951 2213.49,636.951 C2213.49,641.441 2208.77,647.66 2199.34,655.608 C2195.82,658.795 2194,660.389 2193.87,660.389 L2193.29,660.389 C2192.69,660.389 2192.4,660.03 2192.4,659.311 M2194.85,634.217 L2194.55,656.389 C2196.57,654.493 2198.63,651.347 2200.71,646.951 C2202.79,642.556 2203.84,638.795 2203.84,635.67 C2203.84,634.108 2203.57,632.675 2203.05,631.373 C2202.53,630.071 2201.72,629.42 2200.61,629.42 C2199.5,629.42 2198.5,629.811 2197.62,630.592 C2196.74,631.373 2195.82,632.582 2194.85,634.217"/>
<path class="Accidental" d="M1571.19,609.311 L1569.92,547.201 C1569.92,546.222 1570.69,545.733 1572.22,545.733 C1573.75,545.733 1574.51,546.222 1574.51,547.201 L1573.73,581.092 C1575.49,579.332 1577.01,578.11 1578.27,577.428 C1579.54,576.746 1581.26,576.405 1583.44,576.405 C1585.63,576.405 1587.64,577.412 1589.5,579.428 C1591.35,581.444 1592.28,583.951 1592.28,586.951 C1592.28,591.441 1587.56,597.66 1578.12,605.608 C1574.61,608.795 1572.79,610.389 1572.66,610.389 L1572.08,610.389 C1571.48,610.389 1571.19,610.03 1571.19,609.311 M1573.64,584.217 L1573.34,606.389 C1575.36,604.493 1577.42,601.347 1579.5,596.951 C1581.58,592.556 1582.62,588.795 1582.62,585.67 C1582.62,584.108 1582.36,582.675 1581.84,581.373 C1581.32,580.071 1580.51,579.42 1579.4,579.42 C1578.29,579.42 1577.29,579.811 1576.41,580.592 C1575.53,581.373 1574.61,582.582 1573.64,584.217"/>
<path class="Accidental" d="M949.975,609.311 L948.709,547.201 C948.709,546.222 949.475,545.733 951.006,545.733 C952.538,545.733 953.303,546.222 953.303,547.201 L952.522,581.092 C954.282,579.332 955.795,578.11 957.061,577.428 C958.327,576.746 960.051,576.405 962.233,576.405 C964.415,576.405 966.433,577.412 968.288,579.428 C970.142,581.444 971.069,583.951 971.069,586.951 C971.069,591.441 966.35,597.66 956.913,605.608 C953.402,608.795 951.579,610.389 951.444,610.389 L950.866,610.389 C950.272,610.389 949.975,610.03 949.975,609.311 M952.428,584.217 L952.131,606.389 C954.152,604.493 956.204,601.347 958.288,596.951 C960.371,592.556 961.413,588.795 961.413,585.67 C961.413,584.108 961.152,582.675 960.631,581.373 C960.11,580.071 959.295,579.42 958.186,579.42 C957.077,579.42 956.082,579.811 955.202,580.592 C954.321,581.373 953.397,582.582 952.428,584.217"/>
<path class="Accidental" d="M328.764,659.311 L327.498,597.201 C327.498,596.222 328.264,595.733 329.795,595.733 C331.326,595.733 332.092,596.222 332.092,597.201 L331.311,631.092 C333.071,629.332 334.584,628.11 335.85,627.428 C337.115,626.746 338.839,626.405 341.022,626.405 C343.204,626.405 345.222,627.412 347.076,629.428 C348.93,631.444 349.857,633.951 349.857,636.951 C349.857,641.441 345.139,647.66 335.701,655.608 C332.191,658.795 330.368,660.389 330.232,660.389 L329.654,660.389 C329.061,660.389 328.764,660.03 328.764,659.311 M331.217,634.217 L330.92,656.389 C332.941,654.493 334.993,651.347 337.076,646.951 C339.16,642.556 340.201,638.795 340.201,635.67 C340.201,634.108 339.941,632.675 339.42,631.373 C338.899,630.071 338.084,629.42 336.975,629.42 C335.865,629.42 334.87,629.811 333.99,630.592 C333.11,631.373 332.186,632.582 331.217,634.217"/>
<polyline class="Stem" fill="none" stroke="#000000" stroke-width="3.25" stroke-linejoin="bevel" points="978.225,596.633 978.225,679.233"/>
<polyline class="Stem" fill="none" stroke="#000000" stroke-width="3.25" stroke-linejoin="bevel" points="678.879,624.433 678.879,547.983"/>
<polyline class="Stem" fill="none" stroke="#000000" stroke-width="3.25" stroke-linejoin="bevel" points="2252.12,636.933 2252.12,554.233"/>
<polyline class="Stem" fill="none" stroke="#000000" stroke-width="3.25" stroke-linejoin="bevel" points="388.483,636.933 388.483,554.233"/>
<polyline class="Stem" fill="none" stroke="#000000" stroke-width="3.25" stroke-linejoin="bevel" points="1599.44,596.633 1599.44,679.233"/>
<polyline class="Stem" fill="none" stroke="#000000" stroke-width="3.25" stroke-linejoin="bevel" points="1921.3,624.433 1921.3,547.983"/>
<path class="Note" d="M1605.23,602.373 C1607.12,602.373 1611.07,600.42 1617.1,596.514 C1623.13,592.608 1626.68,589.988 1627.75,588.655 C1628.82,587.321 1629.36,586.134 1629.36,585.092 C1629.36,584.05 1628.93,583.123 1628.08,582.311 C1627.24,581.498 1626.26,581.092 1625.16,581.092 C1623.21,581.092 1619.22,583.061 1613.19,586.998 C1607.17,590.936 1603.63,593.556 1602.59,594.858 C1601.55,596.16 1601.03,597.332 1601.03,598.373 C1601.03,599.415 1601.44,600.342 1602.26,601.155 C1603.07,601.967 1604.07,602.373 1605.23,602.373 M1624.19,577.967 C1629.78,577.967 1632.58,580.373 1632.58,585.186 C1632.58,587.53 1631.89,590.248 1630.53,593.342 C1629.17,596.436 1627.34,598.795 1625.06,600.42 C1620.05,603.806 1613.77,605.498 1606.22,605.498 C1600.61,605.498 1597.81,603.092 1597.81,598.28 C1597.81,596.134 1598.48,593.464 1599.81,590.272 C1601.14,587.079 1602.98,584.67 1605.33,583.045 C1610.35,579.66 1616.63,577.967 1624.19,577.967"/>
<path class="Note" d="M2226.44,652.373 C2228.33,652.373 2232.29,650.42 2238.31,646.514 C2244.34,642.608 2247.89,639.988 2248.96,638.655 C2250.03,637.321 2250.57,636.134 2250.57,635.092 C2250.57,634.05 2250.15,633.123 2249.3,632.311 C2248.45,631.498 2247.47,631.092 2246.37,631.092 C2244.42,631.092 2240.43,633.061 2234.41,636.998 C2228.38,640.936 2224.85,643.556 2223.8,644.858 C2222.76,646.16 2222.24,647.332 2222.24,648.373 C2222.24,649.415 2222.65,650.342 2223.47,651.155 C2224.29,651.967 2225.28,652.373 2226.44,652.373 M2245.4,627.967 C2250.99,627.967 2253.79,630.373 2253.79,635.186 C2253.79,637.53 2253.11,640.248 2251.74,643.342 C2250.38,646.436 2248.55,648.795 2246.27,650.42 C2241.26,653.806 2234.98,655.498 2227.43,655.498 C2221.82,655.498 2219.02,653.092 2219.02,648.28 C2219.02,646.134 2219.69,643.464 2221.02,640.272 C2222.36,637.079 2224.19,634.67 2226.54,633.045 C2231.56,629.66 2237.85,627.967 2245.4,627.967"/>
<path class="Note" d="M1895.63,639.873 C1897.52,639.873 1901.47,637.92 1907.5,634.014 C1913.52,630.108 1917.07,627.488 1918.15,626.155 C1919.22,624.821 1919.75,623.634 1919.75,622.592 C1919.75,621.55 1919.33,620.623 1918.48,619.811 C1917.63,618.998 1916.66,618.592 1915.55,618.592 C1913.6,618.592 1909.62,620.561 1903.59,624.498 C1897.56,628.436 1894.03,631.056 1892.99,632.358 C1891.95,633.66 1891.43,634.832 1891.43,635.873 C1891.43,636.915 1891.84,637.842 1892.65,638.655 C1893.47,639.467 1894.46,639.873 1895.63,639.873 M1914.58,615.467 C1920.18,615.467 1922.97,617.873 1922.97,622.686 C1922.97,625.03 1922.29,627.748 1920.93,630.842 C1919.56,633.936 1917.74,636.295 1915.46,637.92 C1910.45,641.306 1904.17,642.998 1896.61,642.998 C1891.01,642.998 1888.21,640.592 1888.21,635.78 C1888.21,633.634 1888.87,630.964 1890.21,627.772 C1891.54,624.579 1893.38,622.17 1895.72,620.545 C1900.74,617.16 1907.03,615.467 1914.58,615.467"/>
<path class="Note" d="M653.207,639.873 C655.093,639.873 659.048,637.92 665.074,634.014 C671.101,630.108 674.65,627.488 675.723,626.155 C676.796,624.821 677.332,623.634 677.332,622.592 C677.332,621.55 676.908,620.623 676.059,619.811 C675.21,618.998 674.233,618.592 673.129,618.592 C671.181,618.592 667.194,620.561 661.168,624.498 C655.142,628.436 651.608,631.056 650.567,632.358 C649.525,633.66 649.004,634.832 649.004,635.873 C649.004,636.915 649.413,637.842 650.231,638.655 C651.048,639.467 652.041,639.873 653.207,639.873 M672.16,615.467 C677.754,615.467 680.551,617.873 680.551,622.686 C680.551,625.03 679.869,627.748 678.504,630.842 C677.14,633.936 675.317,636.295 673.035,637.92 C668.025,641.306 661.744,642.998 654.192,642.998 C648.587,642.998 645.785,640.592 645.785,635.78 C645.785,633.634 646.452,630.964 647.785,627.772 C649.119,624.579 650.957,622.17 653.301,620.545 C658.322,617.16 664.608,615.467 672.16,615.467"/>
<path class="Note" d="M362.811,652.373 C364.696,652.373 368.652,650.42 374.678,646.514 C380.704,642.608 384.253,639.988 385.326,638.655 C386.399,637.321 386.936,636.134 386.936,635.092 C386.936,634.05 386.511,633.123 385.662,632.311 C384.813,631.498 383.837,631.092 382.732,631.092 C380.785,631.092 376.798,633.061 370.772,636.998 C364.746,640.936 361.212,643.556 360.17,644.858 C359.128,646.16 358.607,647.332 358.607,648.373 C358.607,649.415 359.016,650.342 359.834,651.155 C360.652,651.967 361.644,652.373 362.811,652.373 M381.764,627.967 C387.357,627.967 390.154,630.373 390.154,635.186 C390.154,637.53 389.472,640.248 388.107,643.342 C386.743,646.436 384.92,648.795 382.639,650.42 C377.628,653.806 371.347,655.498 363.795,655.498 C358.191,655.498 355.389,653.092 355.389,648.28 C355.389,646.134 356.055,643.464 357.389,640.272 C358.722,637.079 360.561,634.67 362.904,633.045 C367.925,629.66 374.212,627.967 381.764,627.967"/>
<path class="Note" d="M984.022,602.373 C985.907,602.373 989.863,600.42 995.889,596.514 C1001.92,592.608 1005.46,589.988 1006.54,588.655 C1007.61,587.321 1008.15,586.134 1008.15,585.092 C1008.15,584.05 1007.72,583.123 1006.87,582.311 C1006.02,581.498 1005.05,581.092 1003.94,581.092 C1002,581.092 998.009,583.061 991.983,586.998 C985.957,590.936 982.423,593.556 981.381,594.858 C980.34,596.16 979.819,597.332 979.819,598.373 C979.819,599.415 980.228,600.342 981.045,601.155 C981.863,601.967 982.855,602.373 984.022,602.373 M1002.98,577.967 C1008.57,577.967 1011.37,580.373 1011.37,585.186 C1011.37,587.53 1010.68,590.248 1009.32,593.342 C1007.95,596.436 1006.13,598.795 1003.85,600.42 C998.84,603.806 992.558,605.498 985.006,605.498 C979.402,605.498 976.6,603.092 976.6,598.28 C976.6,596.134 977.267,593.464 978.6,590.272 C979.933,587.079 981.772,584.67 984.116,583.045 C989.137,579.66 995.423,577.967 1002.98,577.967"/>
<path class="Clef" d="M203.623,673.858 L203.623,671.717 C203.56,670.613 203.399,668.889 203.139,666.545 C199.889,667.066 196.993,667.326 194.451,667.326 C185.337,667.326 177.605,663.727 171.256,656.53 C164.907,649.332 161.732,640.754 161.732,630.795 C161.732,628.129 162.253,624.923 163.295,621.178 C164.337,617.433 165.297,614.925 166.178,613.655 C167.058,612.384 168.378,610.155 170.139,606.967 C170.659,605.988 172.352,603.837 175.217,600.514 C175.738,599.806 176.193,599.222 176.584,598.764 C176.975,598.306 177.607,597.49 178.482,596.319 C179.357,595.147 180.3,594.056 181.31,593.045 C182.321,592.035 183.217,591.058 183.998,590.115 C184.779,589.173 185.498,588.379 186.154,587.733 C183.81,579.983 182.378,574.024 181.857,569.858 C181.337,565.691 181.076,560.579 181.076,554.522 C181.076,548.464 182.378,542.962 184.982,538.014 C187.514,532.879 191.06,528.681 195.623,525.42 C195.883,525.222 196.225,525.123 196.646,525.123 C197.068,525.123 197.378,525.222 197.576,525.42 C201.087,529.649 204.128,535.149 206.701,541.92 C209.274,548.691 210.56,555.024 210.56,560.92 C210.56,566.816 209.066,572.498 206.076,577.967 C202.691,583.759 198.326,589.748 192.982,595.936 C194.347,600.227 196.17,606.962 198.451,616.139 L199.045,616.139 C199.305,616.076 199.529,616.045 199.717,616.045 C207.081,616.045 213.089,618.634 217.74,623.811 C222.391,628.988 224.717,634.962 224.717,641.733 C224.717,650.129 221.238,656.899 214.279,662.045 C212.258,663.545 209.878,664.717 207.139,665.561 C207.472,669.79 207.639,672.605 207.639,674.006 C207.639,675.407 207.571,677.899 207.435,681.483 C207.373,687.597 205.29,692.837 201.185,697.201 C197.081,701.566 192.394,703.748 187.123,703.748 C181.852,703.748 177.36,701.876 173.646,698.131 C169.933,694.386 168.076,689.847 168.076,684.514 C168.076,681.712 169.154,679.332 171.31,677.373 C173.519,675.425 176.006,674.451 178.771,674.451 C181.537,674.451 183.8,675.462 185.56,677.483 C187.383,679.368 188.295,681.644 188.295,684.311 C188.295,686.977 187.383,689.222 185.56,691.045 C183.738,692.868 181.555,693.78 179.014,693.78 C177.972,693.78 176.967,693.587 175.998,693.201 C178.863,697.431 182.54,699.545 187.029,699.545 C191.519,699.545 195.36,697.691 198.553,693.983 C201.745,690.274 203.342,685.91 203.342,680.889 L203.623,673.858 M206.748,661.561 C210.133,660.321 212.821,658.123 214.81,654.967 C216.8,651.811 217.795,648.67 217.795,645.545 C217.795,640.92 216.199,636.785 213.006,633.139 C209.813,629.493 205.774,627.441 200.889,626.983 C203.691,640.722 205.644,652.248 206.748,661.561 M168.967,638.998 C168.967,645.446 171.537,651.079 176.678,655.897 C181.818,660.714 187.842,663.123 194.748,663.123 C197.477,663.123 200.144,662.925 202.748,662.53 C201.706,652.634 199.654,640.785 196.592,626.983 C192.758,627.379 189.782,628.699 187.662,630.944 C185.542,633.188 184.482,635.743 184.482,638.608 C184.482,643.556 187.123,647.561 192.404,650.623 C192.852,650.884 193.076,651.324 193.076,651.944 C193.076,652.563 192.865,653.1 192.443,653.553 C192.021,654.006 191.649,654.233 191.326,654.233 C191.003,654.233 190.581,654.17 190.06,654.045 C182.435,649.879 178.623,643.592 178.623,635.186 C178.623,631.217 180.024,627.41 182.826,623.764 C185.753,620.118 189.56,617.774 194.248,616.733 C192.425,609.441 190.93,603.743 189.764,599.639 C180.847,609.67 175.31,617.092 173.154,621.905 C170.363,628.155 168.967,633.852 168.967,638.998 M201.576,539.686 C196.691,542.092 192.834,545.574 190.006,550.131 C187.178,554.688 185.764,559.472 185.764,564.483 C185.764,569.493 186.935,575.972 189.279,583.92 C193.967,578.254 197.514,572.946 199.92,567.998 C202.326,563.05 203.529,558.152 203.529,553.303 C203.529,548.454 202.878,543.915 201.576,539.686"/>
<path class="TimeSig" d="M273.021,567.912 C274.516,567.912 275.949,567.686 277.318,567.233 C278.688,566.78 279.665,566.553 280.248,566.553 C280.831,566.553 281.222,566.907 281.42,567.615 C281.42,567.688 281.352,567.886 281.217,568.209 L252.811,601.225 L269.498,601.225 L269.498,588.131 C269.498,586.506 270.446,585.334 272.342,584.615 C274.29,583.897 276.503,581.001 278.982,575.928 C279.17,575.532 279.462,575.334 279.857,575.334 C280.639,575.334 281.092,575.793 281.217,576.709 L281.217,601.225 L288.357,601.225 C289.264,601.225 289.751,601.712 289.818,602.686 C289.886,603.66 289.399,604.147 288.357,604.147 L281.217,604.147 L281.217,604.928 C281.217,607.532 281.868,609.746 283.17,611.569 C284.67,613.391 286.43,614.303 288.451,614.303 C289.232,614.303 289.623,614.694 289.623,615.475 C289.623,616.256 289.087,616.647 288.014,616.647 C286.941,616.647 284.938,616.436 282.006,616.014 C279.074,615.592 276.811,615.381 275.217,615.381 C273.623,615.381 271.41,615.592 268.576,616.014 C265.743,616.436 263.613,616.647 262.186,616.647 C261.404,616.647 261.014,616.256 261.014,615.475 C261.014,614.694 261.404,614.303 262.186,614.303 C264.196,614.303 265.951,613.391 267.451,611.569 C268.816,609.683 269.498,607.47 269.498,604.928 L269.498,604.147 L252.811,604.147 C251.956,604.147 251.219,603.92 250.6,603.467 C249.98,603.014 249.67,602.592 249.67,602.201 C249.67,601.811 250.485,600.639 252.115,598.686 C253.745,596.733 256.074,592.972 259.1,587.405 C262.126,581.837 263.639,575.438 263.639,568.209 C263.639,567.168 264.097,566.647 265.014,566.647 C265.212,566.647 265.521,566.712 265.943,566.842 C266.365,566.972 267.277,567.183 268.678,567.475 C270.079,567.766 271.527,567.912 273.021,567.912"/>
<path class="TimeSig" d="M273.021,618.084 C274.516,618.084 275.949,617.858 277.318,617.405 C278.688,616.951 279.665,616.725 280.248,616.725 C280.831,616.725 281.222,617.079 281.42,617.787 C281.42,617.86 281.352,618.058 281.217,618.381 L252.811,651.397 L269.498,651.397 L269.498,638.303 C269.498,636.678 270.446,635.506 272.342,634.787 C274.29,634.069 276.503,631.173 278.982,626.1 C279.17,625.704 279.462,625.506 279.857,625.506 C280.639,625.506 281.092,625.964 281.217,626.881 L281.217,651.397 L288.357,651.397 C289.264,651.397 289.751,651.884 289.818,652.858 C289.886,653.832 289.399,654.319 288.357,654.319 L281.217,654.319 L281.217,655.1 C281.217,657.704 281.868,659.918 283.17,661.74 C284.67,663.563 286.43,664.475 288.451,664.475 C289.232,664.475 289.623,664.865 289.623,665.647 C289.623,666.428 289.087,666.819 288.014,666.819 C286.941,666.819 284.938,666.608 282.006,666.186 C279.074,665.764 276.811,665.553 275.217,665.553 C273.623,665.553 271.41,665.764 268.576,666.186 C265.743,666.608 263.613,666.819 262.186,666.819 C261.404,666.819 261.014,666.428 261.014,665.647 C261.014,664.865 261.404,664.475 262.186,664.475 C264.196,664.475 265.951,663.563 267.451,661.74 C268.816,659.855 269.498,657.642 269.498,655.1 L269.498,654.319 L252.811,654.319 C251.956,654.319 251.219,654.092 250.6,653.639 C249.98,653.186 249.67,652.764 249.67,652.373 C249.67,651.983 250.485,650.811 252.115,648.858 C253.745,646.905 256.074,643.144 259.1,637.576 C262.126,632.009 263.639,625.61 263.639,618.381 C263.639,617.339 264.097,616.819 265.014,616.819 C265.212,616.819 265.521,616.884 265.943,617.014 C266.365,617.144 267.277,617.355 268.678,617.647 C270.079,617.938 271.527,618.084 273.021,618.084"/>
<path class="Rest" d="M1304.43,616.733 L1268.88,616.733 C1268.23,616.733 1267.9,616.405 1267.9,615.748 L1267.9,602.076 C1267.9,601.431 1268.23,601.108 1268.88,601.108 L1304.43,601.108 C1305.08,601.108 1305.4,601.431 1305.4,602.076 L1305.4,615.748 C1305.4,616.405 1305.08,616.733 1304.43,616.733"/>
<path class="Rest" d="M2546.85,616.733 L2511.31,616.733 C2510.65,616.733 2510.32,616.405 2510.32,615.748 L2510.32,602.076 C2510.32,601.431 2510.65,601.108 2511.31,601.108 L2546.85,601.108 C2547.5,601.108 2547.82,601.431 2547.82,602.076 L2547.82,615.748 C2547.82,616.405 2547.5,616.733 2546.85,616.733"/>
</svg>
