<?xml version="1.0" encoding="UTF-8" standalone="no"?>
<svg width="2977.2px" height="4208.4px" viewBox="0 0 2977.2 4208.4"
 xmlns="http://www.w3.org/2000/svg" xmlns:xlink="http://www.w3.org/1999/xlink" version="1.2" baseProfile="tiny">
<title>E_Maj7.mscx</title>
<desc>Generated by MuseScore Studio 4.3.1</desc>
<path class="" fill="#ffffff" fill-rule="evenodd" d="M0,0 L2977.2,0 L2977.2,4208.4 L0,4208.4 L0,0 "/>
<polyline class="StaffLines" fill="none" stroke="#000000" stroke-width="2.00" stroke-linejoin="bevel" points="141.732,566.733 2835.47,566.733"/>
<polyline class="StaffLines" fill="none" stroke="#000000" stroke-width="2.00" stroke-linejoin="bevel" points="141.732,591.733 2835.47,591.733"/>
<polyline class="StaffLines" fill="none" stroke="#000000" stroke-width="2.00" stroke-linejoin="bevel" points="141.732,616.733 2835.47,616.733"/>
<polyline class="StaffLines" fill="none" stroke="#000000" stroke-width="2.00" stroke-linejoin="bevel" points="141.732,641.733 2835.47,641.733"/>
<polyline class="StaffLines" fill="none" stroke="#000000" stroke-width="2.00" stroke-linejoin="bevel" points="141.732,666.733 2835.47,666.733"/>
<polyline class="BarLine" fill="none" stroke="#000000" stroke-width="4.00" stroke-linejoin="bevel" points="2348.69,565.733 2348.69,667.733"/>
<polyline class="BarLine" fill="none" stroke="#000000" stroke-width="4.00" stroke-linejoin="bevel" points="1551.49,565.733 1551.49,667.733"/>
<polyline class="BarLine" fill="none" stroke="#000000" stroke-width="4.00" stroke-linejoin="bevel" points="2802.72,565.733 2802.72,667.733"/>
<polyline class="BarLine" fill="none" stroke="#000000" stroke-width="12.50" stroke-linejoin="bevel" points="2829.22,565.733 2829.22,667.733"/>
<polyline class="BarLine" fill="none" stroke="#000000" stroke-width="4.00" stroke-linejoin="bevel" points="1097.47,565.733 1097.47,667.733"/>
<path class="Accidental" d="M521.351,619.764 C522.788,619.368 523.507,619.722 523.507,620.826 L523.507,628.639 C523.507,629.42 522.887,630.04 521.648,630.498 L518.429,631.764 L518.429,645.936 L521.351,644.764 C522.788,644.368 523.507,644.727 523.507,645.842 L523.507,653.655 C523.507,654.436 522.887,655.05 521.648,655.498 L518.429,656.78 L518.429,672.983 C518.429,674.222 517.939,674.842 516.96,674.842 C515.981,674.842 515.491,674.222 515.491,672.983 L515.491,657.951 L506.21,661.655 L506.21,677.764 C506.21,679.004 505.723,679.623 504.749,679.623 C503.775,679.623 503.288,679.004 503.288,677.764 L503.288,662.826 L500.741,663.905 C499.377,664.488 498.694,664.097 498.694,662.733 L498.694,655.014 C498.694,654.368 499.283,653.785 500.46,653.264 L503.288,652.092 L503.288,637.826 L500.741,638.905 C499.377,639.488 498.694,639.097 498.694,637.733 L498.694,630.014 C498.694,629.358 499.283,628.769 500.46,628.248 L503.288,627.076 L503.288,610.967 C503.288,609.727 503.775,609.108 504.749,609.108 C505.723,609.108 506.21,609.727 506.21,610.967 L506.21,625.905 L515.491,622.108 L515.491,606.186 C515.491,604.946 515.981,604.326 516.96,604.326 C517.939,604.326 518.429,604.946 518.429,606.186 L518.429,620.936 L521.351,619.764 M506.21,636.655 L506.21,650.92 L515.491,647.108 L515.491,632.936 L506.21,636.655 "/>
<path class="Accidental" d="M1583.67,569.764 C1585.11,569.368 1585.83,569.722 1585.83,570.826 L1585.83,578.639 C1585.83,579.42 1585.21,580.04 1583.97,580.498 L1580.75,581.764 L1580.75,595.936 L1583.67,594.764 C1585.11,594.368 1585.83,594.727 1585.83,595.842 L1585.83,603.655 C1585.83,604.436 1585.21,605.05 1583.97,605.498 L1580.75,606.78 L1580.75,622.983 C1580.75,624.222 1580.26,624.842 1579.28,624.842 C1578.3,624.842 1577.82,624.222 1577.82,622.983 L1577.82,607.951 L1568.53,611.655 L1568.53,627.764 C1568.53,629.003 1568.05,629.623 1567.07,629.623 C1566.1,629.623 1565.61,629.003 1565.61,627.764 L1565.61,612.826 L1563.07,613.905 C1561.7,614.488 1561.02,614.097 1561.02,612.733 L1561.02,605.014 C1561.02,604.368 1561.61,603.785 1562.78,603.264 L1565.61,602.092 L1565.61,587.826 L1563.07,588.905 C1561.7,589.488 1561.02,589.097 1561.02,587.733 L1561.02,580.014 C1561.02,579.358 1561.61,578.769 1562.78,578.248 L1565.61,577.076 L1565.61,560.967 C1565.61,559.727 1566.1,559.108 1567.07,559.108 C1568.05,559.108 1568.53,559.727 1568.53,560.967 L1568.53,575.905 L1577.82,572.108 L1577.82,556.186 C1577.82,554.946 1578.3,554.326 1579.28,554.326 C1580.26,554.326 1580.75,554.946 1580.75,556.186 L1580.75,570.936 L1583.67,569.764 M1568.53,586.655 L1568.53,600.92 L1577.82,597.108 L1577.82,582.936 L1568.53,586.655 "/>
<path class="Accidental" d="M899.15,569.764 C900.587,569.368 901.306,569.722 901.306,570.826 L901.306,578.639 C901.306,579.42 900.686,580.04 899.447,580.498 L896.228,581.764 L896.228,595.936 L899.15,594.764 C900.587,594.368 901.306,594.727 901.306,595.842 L901.306,603.655 C901.306,604.436 900.686,605.05 899.447,605.498 L896.228,606.78 L896.228,622.983 C896.228,624.222 895.738,624.842 894.759,624.842 C893.78,624.842 893.29,624.222 893.29,622.983 L893.29,607.951 L884.009,611.655 L884.009,627.764 C884.009,629.003 883.522,629.623 882.548,629.623 C881.574,629.623 881.087,629.003 881.087,627.764 L881.087,612.826 L878.54,613.905 C877.176,614.488 876.493,614.097 876.493,612.733 L876.493,605.014 C876.493,604.368 877.082,603.785 878.259,603.264 L881.087,602.092 L881.087,587.826 L878.54,588.905 C877.176,589.488 876.493,589.097 876.493,587.733 L876.493,580.014 C876.493,579.358 877.082,578.769 878.259,578.248 L881.087,577.076 L881.087,560.967 C881.087,559.727 881.574,559.108 882.548,559.108 C883.522,559.108 884.009,559.727 884.009,560.967 L884.009,575.905 L893.29,572.108 L893.29,556.186 C893.29,554.946 893.78,554.326 894.759,554.326 C895.738,554.326 896.228,554.946 896.228,556.186 L896.228,570.936 L899.15,569.764 M884.009,586.655 L884.009,600.92 L893.29,597.108 L893.29,582.936 L884.009,586.655 "/>
<path class="Accidental" d="M1961.47,619.764 C1962.91,619.368 1963.63,619.722 1963.63,620.826 L1963.63,628.639 C1963.63,629.42 1963.01,630.04 1961.77,630.498 L1958.55,631.764 L1958.55,645.936 L1961.47,644.764 C1962.91,644.368 1963.63,644.727 1963.63,645.842 L1963.63,653.655 C1963.63,654.436 1963.01,655.05 1961.77,655.498 L1958.55,656.78 L1958.55,672.983 C1958.55,674.222 1958.06,674.842 1957.08,674.842 C1956.1,674.842 1955.61,674.222 1955.61,672.983 L1955.61,657.951 L1946.33,661.655 L1946.33,677.764 C1946.33,679.004 1945.85,679.623 1944.87,679.623 C1943.9,679.623 1943.41,679.004 1943.41,677.764 L1943.41,662.826 L1940.86,663.905 C1939.5,664.488 1938.82,664.097 1938.82,662.733 L1938.82,655.014 C1938.82,654.368 1939.41,653.785 1940.58,653.264 L1943.41,652.092 L1943.41,637.826 L1940.86,638.905 C1939.5,639.488 1938.82,639.097 1938.82,637.733 L1938.82,630.014 C1938.82,629.358 1939.41,628.769 1940.58,628.248 L1943.41,627.076 L1943.41,610.967 C1943.41,609.727 1943.9,609.108 1944.87,609.108 C1945.85,609.108 1946.33,609.727 1946.33,610.967 L1946.33,625.905 L1955.61,622.108 L1955.61,606.186 C1955.61,604.946 1956.1,604.326 1957.08,604.326 C1958.06,604.326 1958.55,604.946 1958.55,606.186 L1958.55,620.936 L1961.47,619.764 M1946.33,636.655 L1946.33,650.92 L1955.61,647.108 L1955.61,632.936 L1946.33,636.655 "/>
<polyline class="Stem" fill="none" stroke="#000000" stroke-width="3.25" stroke-linejoin="bevel" points="2189.08,660.863 2189.08,579.233"/>
<polyline class="Stem" fill="none" stroke="#000000" stroke-width="3.25" stroke-linejoin="bevel" points="1781.62,622.602 1781.62,691.733"/>
<polyline class="Stem" fill="none" stroke="#000000" stroke-width="3.25" stroke-linejoin="bevel" points="1592.72,597.602 1592.72,679.233"/>
<polyline class="Stem" fill="none" stroke="#000000" stroke-width="3.25" stroke-linejoin="bevel" points="2000.18,635.863 2000.18,554.233"/>
<polyline class="Stem" fill="none" stroke="#000000" stroke-width="3.25" stroke-linejoin="bevel" points="371.162,660.863 371.162,579.233"/>
<polyline class="Stem" fill="none" stroke="#000000" stroke-width="3.25" stroke-linejoin="bevel" points="908.197,597.602 908.197,679.233"/>
<polyline class="Stem" fill="none" stroke="#000000" stroke-width="3.25" stroke-linejoin="bevel" points="719.297,622.602 719.297,691.733"/>
<polyline class="Stem" fill="none" stroke="#000000" stroke-width="3.25" stroke-linejoin="bevel" points="560.062,635.863 560.062,554.233"/>
<path class="Note" d="M550.741,627.967 C553.866,627.967 556.471,628.748 558.554,630.311 C560.637,631.873 561.679,634.118 561.679,637.045 C561.679,641.535 559.353,645.733 554.702,649.639 C550.051,653.545 545.054,655.498 539.71,655.498 C536.585,655.498 533.95,654.686 531.804,653.061 C529.783,651.3 528.773,649.087 528.773,646.42 C528.773,642.056 531.085,637.889 535.71,633.92 C540.335,629.951 545.346,627.967 550.741,627.967"/>
<path class="Note" d="M1990.86,627.967 C1993.99,627.967 1996.59,628.748 1998.68,630.311 C2000.76,631.873 2001.8,634.118 2001.8,637.045 C2001.8,641.535 1999.48,645.733 1994.83,649.639 C1990.17,653.545 1985.18,655.498 1979.83,655.498 C1976.71,655.498 1974.07,654.686 1971.93,653.061 C1969.91,651.3 1968.9,649.087 1968.9,646.42 C1968.9,642.056 1971.21,637.889 1975.83,633.92 C1980.46,629.951 1985.47,627.967 1990.86,627.967"/>
<path class="Note" d="M2179.76,652.967 C2182.89,652.967 2185.49,653.748 2187.58,655.311 C2189.66,656.873 2190.7,659.118 2190.7,662.045 C2190.7,666.535 2188.38,670.733 2183.72,674.639 C2179.07,678.545 2174.08,680.498 2168.73,680.498 C2165.61,680.498 2162.97,679.686 2160.83,678.061 C2158.81,676.3 2157.79,674.087 2157.79,671.42 C2157.79,667.056 2160.11,662.889 2164.73,658.92 C2169.36,654.951 2174.37,652.967 2179.76,652.967"/>
<path class="Note" d="M1801.96,602.967 C1805.09,602.967 1807.69,603.748 1809.78,605.311 C1811.86,606.873 1812.9,609.118 1812.9,612.045 C1812.9,616.535 1810.58,620.733 1805.93,624.639 C1801.27,628.545 1796.28,630.498 1790.93,630.498 C1787.81,630.498 1785.17,629.686 1783.03,628.061 C1781.01,626.3 1780,624.087 1780,621.42 C1780,617.056 1782.31,612.889 1786.93,608.92 C1791.56,604.951 1796.57,602.967 1801.96,602.967"/>
<path class="Note" d="M1613.07,577.967 C1616.19,577.967 1618.79,578.748 1620.88,580.311 C1622.96,581.873 1624,584.118 1624,587.045 C1624,591.535 1621.68,595.733 1617.03,599.639 C1612.38,603.545 1607.38,605.498 1602.03,605.498 C1598.91,605.498 1596.27,604.686 1594.13,603.061 C1592.11,601.3 1591.1,599.087 1591.1,596.42 C1591.1,592.056 1593.41,587.889 1598.03,583.92 C1602.66,579.951 1607.67,577.967 1613.07,577.967"/>
<path class="Note" d="M361.842,652.967 C364.967,652.967 367.571,653.748 369.654,655.311 C371.738,656.873 372.779,659.118 372.779,662.045 C372.779,666.535 370.454,670.733 365.803,674.639 C361.152,678.545 356.154,680.498 350.811,680.498 C347.686,680.498 345.05,679.686 342.904,678.061 C340.884,676.3 339.873,674.087 339.873,671.42 C339.873,667.056 342.186,662.889 346.811,658.92 C351.436,654.951 356.446,652.967 361.842,652.967"/>
<path class="Note" d="M928.54,577.967 C931.665,577.967 934.269,578.748 936.353,580.311 C938.436,581.873 939.478,584.118 939.478,587.045 C939.478,591.535 937.152,595.733 932.501,599.639 C927.85,603.545 922.853,605.498 917.509,605.498 C914.384,605.498 911.749,604.686 909.603,603.061 C907.582,601.3 906.572,599.087 906.572,596.42 C906.572,592.056 908.884,587.889 913.509,583.92 C918.134,579.951 923.144,577.967 928.54,577.967"/>
<path class="Note" d="M739.641,602.967 C742.766,602.967 745.37,603.748 747.453,605.311 C749.537,606.873 750.578,609.118 750.578,612.045 C750.578,616.535 748.253,620.733 743.602,624.639 C738.951,628.545 733.953,630.498 728.61,630.498 C725.485,630.498 722.849,629.686 720.703,628.061 C718.683,626.3 717.672,624.087 717.672,621.42 C717.672,617.056 719.985,612.889 724.61,608.92 C729.235,604.951 734.245,602.967 739.641,602.967"/>
<path class="Clef" d="M203.623,673.858 L203.623,671.717 C203.56,670.613 203.399,668.889 203.139,666.545 C199.889,667.066 196.993,667.326 194.451,667.326 C185.337,667.326 177.605,663.727 171.256,656.53 C164.907,649.332 161.732,640.754 161.732,630.795 C161.732,628.129 162.253,624.923 163.295,621.178 C164.337,617.433 165.297,614.925 166.178,613.655 C167.058,612.384 168.378,610.155 170.139,606.967 C170.659,605.988 172.352,603.837 175.217,600.514 C175.738,599.806 176.193,599.222 176.584,598.764 C176.975,598.306 177.607,597.49 178.482,596.319 C179.357,595.147 180.3,594.056 181.31,593.045 C182.321,592.035 183.217,591.058 183.998,590.115 C184.779,589.173 185.498,588.379 186.154,587.733 C183.81,579.983 182.378,574.024 181.857,569.858 C181.337,565.691 181.076,560.579 181.076,554.522 C181.076,548.464 182.378,542.962 184.982,538.014 C187.514,532.879 191.06,528.681 195.623,525.42 C195.883,525.222 196.225,525.123 196.646,525.123 C197.068,525.123 197.378,525.222 197.576,525.42 C201.087,529.649 204.128,535.149 206.701,541.92 C209.274,548.691 210.56,555.024 210.56,560.92 C210.56,566.816 209.066,572.498 206.076,577.967 C202.691,583.759 198.326,589.748 192.982,595.936 C194.347,600.227 196.17,606.962 198.451,616.139 L199.045,616.139 C199.305,616.076 199.529,616.045 199.717,616.045 C207.081,616.045 213.089,618.634 217.74,623.811 C222.391,628.988 224.717,634.962 224.717,641.733 C224.717,650.129 221.238,656.899 214.279,662.045 C212.258,663.545 209.878,664.717 207.139,665.561 C207.472,669.79 207.639,672.605 207.639,674.006 C207.639,675.407 207.571,677.899 207.435,681.483 C207.373,687.597 205.29,692.837 201.185,697.201 C197.081,701.566 192.394,703.748 187.123,703.748 C181.852,703.748 177.36,701.876 173.646,698.131 C169.933,694.386 168.076,689.847 168.076,684.514 C168.076,681.712 169.154,679.332 171.31,677.373 C173.519,675.425 176.006,674.451 178.771,674.451 C181.537,674.451 183.8,675.462 185.56,677.483 C187.383,679.368 188.295,681.644 188.295,684.311 C188.295,686.977 187.383,689.222 185.56,691.045 C183.738,692.868 181.555,693.78 179.014,693.78 C177.972,693.78 176.967,693.587 175.998,693.201 C178.863,697.431 182.54,699.545 187.029,699.545 C191.519,699.545 195.36,697.691 198.553,693.983 C201.745,690.274 203.342,685.91 203.342,680.889 L203.623,673.858 M206.748,661.561 C210.133,660.321 212.821,658.123 214.81,654.967 C216.8,651.811 217.795,648.67 217.795,645.545 C217.795,640.92 216.199,636.785 213.006,633.139 C209.813,629.493 205.774,627.441 200.889,626.983 C203.691,640.722 205.644,652.248 206.748,661.561 M168.967,638.998 C168.967,645.446 171.537,651.079 176.678,655.897 C181.818,660.714 187.842,663.123 194.748,663.123 C197.477,663.123 200.144,662.925 202.748,662.53 C201.706,652.634 199.654,640.785 196.592,626.983 C192.758,627.379 189.782,628.699 187.662,630.944 C185.542,633.188 184.482,635.743 184.482,638.608 C184.482,643.556 187.123,647.561 192.404,650.623 C192.852,650.884 193.076,651.324 193.076,651.944 C193.076,652.563 192.865,653.1 192.443,653.553 C192.021,654.006 191.649,654.233 191.326,654.233 C191.003,654.233 190.581,654.17 190.06,654.045 C182.435,649.879 178.623,643.592 178.623,635.186 C178.623,631.217 180.024,627.41 182.826,623.764 C185.753,620.118 189.56,617.774 194.248,616.733 C192.425,609.441 190.93,603.743 189.764,599.639 C180.847,609.67 175.31,617.092 173.154,621.905 C170.363,628.155 168.967,633.852 168.967,638.998 M201.576,539.686 C196.691,542.092 192.834,545.574 190.006,550.131 C187.178,554.688 185.764,559.472 185.764,564.483 C185.764,569.493 186.935,575.972 189.279,583.92 C193.967,578.254 197.514,572.946 199.92,567.998 C202.326,563.05 203.529,558.152 203.529,553.303 C203.529,548.454 202.878,543.915 201.576,539.686"/>
<path class="TimeSig" d="M273.021,567.912 C274.516,567.912 275.949,567.686 277.318,567.233 C278.688,566.78 279.665,566.553 280.248,566.553 C280.831,566.553 281.222,566.907 281.42,567.615 C281.42,567.688 281.352,567.886 281.217,568.209 L252.811,601.225 L269.498,601.225 L269.498,588.131 C269.498,586.506 270.446,585.334 272.342,584.615 C274.29,583.897 276.503,581.001 278.982,575.928 C279.17,575.532 279.462,575.334 279.857,575.334 C280.639,575.334 281.092,575.793 281.217,576.709 L281.217,601.225 L288.357,601.225 C289.264,601.225 289.751,601.712 289.818,602.686 C289.886,603.66 289.399,604.147 288.357,604.147 L281.217,604.147 L281.217,604.928 C281.217,607.532 281.868,609.746 283.17,611.569 C284.67,613.391 286.43,614.303 288.451,614.303 C289.232,614.303 289.623,614.694 289.623,615.475 C289.623,616.256 289.087,616.647 288.014,616.647 C286.941,616.647 284.938,616.436 282.006,616.014 C279.074,615.592 276.811,615.381 275.217,615.381 C273.623,615.381 271.41,615.592 268.576,616.014 C265.743,616.436 263.613,616.647 262.186,616.647 C261.404,616.647 261.014,616.256 261.014,615.475 C261.014,614.694 261.404,614.303 262.186,614.303 C264.196,614.303 265.951,613.391 267.451,611.569 C268.816,609.683 269.498,607.47 269.498,604.928 L269.498,604.147 L252.811,604.147 C251.956,604.147 251.219,603.92 250.6,603.467 C249.98,603.014 249.67,602.592 249.67,602.201 C249.67,601.811 250.485,600.639 252.115,598.686 C253.745,596.733 256.074,592.972 259.1,587.405 C262.126,581.837 263.639,575.438 263.639,568.209 C263.639,567.168 264.097,566.647 265.014,566.647 C265.212,566.647 265.521,566.712 265.943,566.842 C266.365,566.972 267.277,567.183 268.678,567.475 C270.079,567.766 271.527,567.912 273.021,567.912"/>
<path class="TimeSig" d="M273.021,618.084 C274.516,618.084 275.949,617.858 277.318,617.405 C278.688,616.951 279.665,616.725 280.248,616.725 C280.831,616.725 281.222,617.079 281.42,617.787 C281.42,617.86 281.352,618.058 281.217,618.381 L252.811,651.397 L269.498,651.397 L269.498,638.303 C269.498,636.678 270.446,635.506 272.342,634.787 C274.29,634.069 276.503,631.173 278.982,626.1 C279.17,625.704 279.462,625.506 279.857,625.506 C280.639,625.506 281.092,625.964 281.217,626.881 L281.217,651.397 L288.357,651.397 C289.264,651.397 289.751,651.884 289.818,652.858 C289.886,653.832 289.399,654.319 288.357,654.319 L281.217,654.319 L281.217,655.1 C281.217,657.704 281.868,659.918 283.17,661.74 C284.67,663.563 286.43,664.475 288.451,664.475 C289.232,664.475 289.623,664.865 289.623,665.647 C289.623,666.428 289.087,666.819 288.014,666.819 C286.941,666.819 284.938,666.608 282.006,666.186 C279.074,665.764 276.811,665.553 275.217,665.553 C273.623,665.553 271.41,665.764 268.576,666.186 C265.743,666.608 263.613,666.819 262.186,666.819 C261.404,666.819 261.014,666.428 261.014,665.647 C261.014,664.865 261.404,664.475 262.186,664.475 C264.196,664.475 265.951,663.563 267.451,661.74 C268.816,659.855 269.498,657.642 269.498,655.1 L269.498,654.319 L252.811,654.319 C251.956,654.319 251.219,654.092 250.6,653.639 C249.98,653.186 249.67,652.764 249.67,652.373 C249.67,651.983 250.485,650.811 252.115,648.858 C253.745,646.905 256.074,643.144 259.1,637.576 C262.126,632.009 263.639,625.61 263.639,618.381 C263.639,617.339 264.097,616.819 265.014,616.819 C265.212,616.819 265.521,616.884 265.943,617.014 C266.365,617.144 267.277,617.355 268.678,617.647 C270.079,617.938 271.527,618.084 273.021,618.084"/>
<path class="Rest" d="M1342.26,607.358 L1306.72,607.358 C1306.06,607.358 1305.73,607.035 1305.73,606.389 L1305.73,592.717 C1305.73,592.061 1306.06,591.733 1306.72,591.733 L1342.26,591.733 C1342.91,591.733 1343.23,592.061 1343.23,592.717 L1343.23,606.389 C1343.23,607.035 1342.91,607.358 1342.26,607.358"/>
<path class="Rest" d="M2593.49,607.358 L2557.94,607.358 C2557.28,607.358 2556.96,607.035 2556.96,606.389 L2556.96,592.717 C2556.96,592.061 2557.28,591.733 2557.94,591.733 L2593.49,591.733 C2594.13,591.733 2594.46,592.061 2594.46,592.717 L2594.46,606.389 C2594.46,607.035 2594.13,607.358 2593.49,607.358"/>
</svg>
