<?xml version="1.0" encoding="UTF-8" standalone="no"?>
<svg width="2977.2px" height="4208.4px" viewBox="0 0 2977.2 4208.4"
 xmlns="http://www.w3.org/2000/svg" xmlns:xlink="http://www.w3.org/1999/xlink" version="1.2" baseProfile="tiny">
<title>Eb_Dim_7.mscx</title>
<desc>Generated by MuseScore Studio 4.3.1</desc>
<path class="" fill="#ffffff" fill-rule="evenodd" d="M0,0 L2977.2,0 L2977.2,4208.4 L0,4208.4 L0,0 "/>
<polyline class="StaffLines" fill="none" stroke="#000000" stroke-width="2.00" stroke-linejoin="bevel" points="141.732,566.733 2835.47,566.733"/>
<polyline class="StaffLines" fill="none" stroke="#000000" stroke-width="2.00" stroke-linejoin="bevel" points="141.732,591.733 2835.47,591.733"/>
<polyline class="StaffLines" fill="none" stroke="#000000" stroke-width="2.00" stroke-linejoin="bevel" points="141.732,616.733 2835.47,616.733"/>
<polyline class="StaffLines" fill="none" stroke="#000000" stroke-width="2.00" stroke-linejoin="bevel" points="141.732,641.733 2835.47,641.733"/>
<polyline class="StaffLines" fill="none" stroke="#000000" stroke-width="2.00" stroke-linejoin="bevel" points="141.732,666.733 2835.47,666.733"/>
<polyline class="BarLine" fill="none" stroke="#000000" stroke-width="4.00" stroke-linejoin="bevel" points="2349.22,565.733 2349.22,667.733"/>
<polyline class="BarLine" fill="none" stroke="#000000" stroke-width="4.00" stroke-linejoin="bevel" points="1565.55,565.733 1565.55,667.733"/>
<polyline class="BarLine" fill="none" stroke="#000000" stroke-width="4.00" stroke-linejoin="bevel" points="2802.72,565.733 2802.72,667.733"/>
<polyline class="BarLine" fill="none" stroke="#000000" stroke-width="12.50" stroke-linejoin="bevel" points="2829.22,565.733 2829.22,667.733"/>
<polyline class="BarLine" fill="none" stroke="#000000" stroke-width="4.00" stroke-linejoin="bevel" points="1112.05,565.733 1112.05,667.733"/>
<path class="Accidental" d="M328.764,684.311 L327.498,622.201 C327.498,621.222 328.264,620.733 329.795,620.733 C331.326,620.733 332.092,621.222 332.092,622.201 L331.311,656.092 C333.071,654.332 334.584,653.11 335.85,652.428 C337.115,651.746 338.839,651.405 341.022,651.405 C343.204,651.405 345.222,652.412 347.076,654.428 C348.93,656.444 349.857,658.951 349.857,661.951 C349.857,666.441 345.139,672.66 335.701,680.608 C332.191,683.795 330.368,685.389 330.232,685.389 L329.654,685.389 C329.061,685.389 328.764,685.03 328.764,684.311 M331.217,659.217 L330.92,681.389 C332.941,679.493 334.993,676.347 337.076,671.951 C339.16,667.556 340.201,663.795 340.201,660.67 C340.201,659.108 339.941,657.675 339.42,656.373 C338.899,655.071 338.084,654.42 336.975,654.42 C335.865,654.42 334.87,654.811 333.99,655.592 C333.11,656.373 332.186,657.582 331.217,659.217"/>
<path class="Accidental" d="M517.43,659.311 L516.164,597.201 C516.164,596.222 516.93,595.733 518.461,595.733 C519.993,595.733 520.758,596.222 520.758,597.201 L519.977,631.092 C521.737,629.332 523.25,628.11 524.516,627.428 C525.782,626.746 527.506,626.405 529.688,626.405 C531.87,626.405 533.888,627.412 535.743,629.428 C537.597,631.444 538.524,633.951 538.524,636.951 C538.524,641.441 533.805,647.66 524.368,655.608 C520.857,658.795 519.034,660.389 518.899,660.389 L518.321,660.389 C517.727,660.389 517.43,660.03 517.43,659.311 M519.883,634.217 L519.586,656.389 C521.607,654.493 523.659,651.347 525.743,646.951 C527.826,642.556 528.868,638.795 528.868,635.67 C528.868,634.108 528.607,632.675 528.086,631.373 C527.566,630.071 526.75,629.42 525.641,629.42 C524.532,629.42 523.537,629.811 522.657,630.592 C521.776,631.373 520.852,632.582 519.883,634.217"/>
<path class="Accidental" d="M2131.93,684.311 L2130.66,622.201 C2130.66,621.222 2131.43,620.733 2132.96,620.733 C2134.49,620.733 2135.26,621.222 2135.26,622.201 L2134.47,656.092 C2136.23,654.332 2137.75,653.11 2139.01,652.428 C2140.28,651.746 2142,651.405 2144.19,651.405 C2146.37,651.405 2148.39,652.412 2150.24,654.428 C2152.09,656.444 2153.02,658.951 2153.02,661.951 C2153.02,666.441 2148.3,672.66 2138.87,680.608 C2135.35,683.795 2133.53,685.389 2133.4,685.389 L2132.82,685.389 C2132.22,685.389 2131.93,685.03 2131.93,684.311 M2134.38,659.217 L2134.08,681.389 C2136.1,679.493 2138.16,676.347 2140.24,671.951 C2142.32,667.556 2143.37,663.795 2143.37,660.67 C2143.37,659.108 2143.1,657.675 2142.58,656.373 C2142.06,655.071 2141.25,654.42 2140.14,654.42 C2139.03,654.42 2138.03,654.811 2137.15,655.592 C2136.27,656.373 2135.35,657.582 2134.38,659.217"/>
<path class="Accidental" d="M1943.26,659.311 L1942,597.201 C1942,596.222 1942.76,595.733 1944.29,595.733 C1945.82,595.733 1946.59,596.222 1946.59,597.201 L1945.81,631.092 C1947.57,629.332 1949.08,628.11 1950.35,627.428 C1951.61,626.746 1953.34,626.405 1955.52,626.405 C1957.7,626.405 1959.72,627.412 1961.57,629.428 C1963.43,631.444 1964.36,633.951 1964.36,636.951 C1964.36,641.441 1959.64,647.66 1950.2,655.608 C1946.69,658.795 1944.87,660.389 1944.73,660.389 L1944.15,660.389 C1943.56,660.389 1943.26,660.03 1943.26,659.311 M1945.71,634.217 L1945.42,656.389 C1947.44,654.493 1949.49,651.347 1951.57,646.951 C1953.66,642.556 1954.7,638.795 1954.7,635.67 C1954.7,634.108 1954.44,632.675 1953.92,631.373 C1953.4,630.071 1952.58,629.42 1951.47,629.42 C1950.36,629.42 1949.37,629.811 1948.49,630.592 C1947.61,631.373 1946.68,632.582 1945.71,634.217"/>
<polyline class="Stem" fill="none" stroke="#000000" stroke-width="3.25" stroke-linejoin="bevel" points="575.344,635.863 575.344,554.233"/>
<polyline class="Stem" fill="none" stroke="#000000" stroke-width="3.25" stroke-linejoin="bevel" points="2189.84,660.863 2189.84,579.233"/>
<polyline class="Stem" fill="none" stroke="#000000" stroke-width="3.25" stroke-linejoin="bevel" points="2001.18,635.863 2001.18,554.233"/>
<polyline class="Stem" fill="none" stroke="#000000" stroke-width="3.25" stroke-linejoin="bevel" points="1812.51,623.363 1812.51,547.983"/>
<polyline class="Stem" fill="none" stroke="#000000" stroke-width="3.25" stroke-linejoin="bevel" points="1594.18,610.102 1594.18,685.483"/>
<polyline class="Stem" fill="none" stroke="#000000" stroke-width="3.25" stroke-linejoin="bevel" points="386.678,660.863 386.678,579.233"/>
<polyline class="Stem" fill="none" stroke="#000000" stroke-width="3.25" stroke-linejoin="bevel" points="923.013,610.102 923.013,685.483"/>
<polyline class="Stem" fill="none" stroke="#000000" stroke-width="3.25" stroke-linejoin="bevel" points="764.011,623.363 764.011,547.983"/>
<path class="Note" d="M1614.52,590.467 C1617.65,590.467 1620.25,591.248 1622.33,592.811 C1624.42,594.373 1625.46,596.618 1625.46,599.545 C1625.46,604.035 1623.13,608.233 1618.48,612.139 C1613.83,616.045 1608.83,617.998 1603.49,617.998 C1600.37,617.998 1597.73,617.186 1595.58,615.561 C1593.56,613.8 1592.55,611.587 1592.55,608.92 C1592.55,604.556 1594.87,600.389 1599.49,596.42 C1604.12,592.451 1609.13,590.467 1614.52,590.467"/>
<path class="Note" d="M377.357,652.967 C380.482,652.967 383.087,653.748 385.17,655.311 C387.253,656.873 388.295,659.118 388.295,662.045 C388.295,666.535 385.969,670.733 381.318,674.639 C376.667,678.545 371.67,680.498 366.326,680.498 C363.201,680.498 360.566,679.686 358.42,678.061 C356.399,676.3 355.389,674.087 355.389,671.42 C355.389,667.056 357.701,662.889 362.326,658.92 C366.951,654.951 371.962,652.967 377.357,652.967"/>
<path class="Note" d="M1803.19,615.467 C1806.31,615.467 1808.92,616.248 1811,617.811 C1813.08,619.373 1814.13,621.618 1814.13,624.545 C1814.13,629.035 1811.8,633.233 1807.15,637.139 C1802.5,641.045 1797.5,642.998 1792.16,642.998 C1789.03,642.998 1786.4,642.186 1784.25,640.561 C1782.23,638.8 1781.22,636.587 1781.22,633.92 C1781.22,629.556 1783.53,625.389 1788.16,621.42 C1792.78,617.451 1797.79,615.467 1803.19,615.467"/>
<path class="Note" d="M943.357,590.467 C946.482,590.467 949.086,591.248 951.169,592.811 C953.252,594.373 954.294,596.618 954.294,599.545 C954.294,604.035 951.969,608.233 947.318,612.139 C942.666,616.045 937.669,617.998 932.325,617.998 C929.2,617.998 926.565,617.186 924.419,615.561 C922.398,613.8 921.388,611.587 921.388,608.92 C921.388,604.556 923.7,600.389 928.325,596.42 C932.95,592.451 937.961,590.467 943.357,590.467"/>
<path class="Note" d="M1991.86,627.967 C1994.98,627.967 1997.58,628.748 1999.67,630.311 C2001.75,631.873 2002.79,634.118 2002.79,637.045 C2002.79,641.535 2000.47,645.733 1995.82,649.639 C1991.16,653.545 1986.17,655.498 1980.82,655.498 C1977.7,655.498 1975.06,654.686 1972.92,653.061 C1970.9,651.3 1969.89,649.087 1969.89,646.42 C1969.89,642.056 1972.2,637.889 1976.82,633.92 C1981.45,629.951 1986.46,627.967 1991.86,627.967"/>
<path class="Note" d="M754.69,615.467 C757.815,615.467 760.419,616.248 762.503,617.811 C764.586,619.373 765.628,621.618 765.628,624.545 C765.628,629.035 763.302,633.233 758.651,637.139 C754,641.045 749.003,642.998 743.659,642.998 C740.534,642.998 737.899,642.186 735.753,640.561 C733.732,638.8 732.721,636.587 732.721,633.92 C732.721,629.556 735.034,625.389 739.659,621.42 C744.284,617.451 749.294,615.467 754.69,615.467"/>
<path class="Note" d="M2180.52,652.967 C2183.65,652.967 2186.25,653.748 2188.33,655.311 C2190.42,656.873 2191.46,659.118 2191.46,662.045 C2191.46,666.535 2189.13,670.733 2184.48,674.639 C2179.83,678.545 2174.83,680.498 2169.49,680.498 C2166.37,680.498 2163.73,679.686 2161.58,678.061 C2159.56,676.3 2158.55,674.087 2158.55,671.42 C2158.55,667.056 2160.87,662.889 2165.49,658.92 C2170.12,654.951 2175.13,652.967 2180.52,652.967"/>
<path class="Note" d="M566.024,627.967 C569.149,627.967 571.753,628.748 573.836,630.311 C575.92,631.873 576.961,634.118 576.961,637.045 C576.961,641.535 574.636,645.733 569.985,649.639 C565.334,653.545 560.336,655.498 554.993,655.498 C551.868,655.498 549.232,654.686 547.086,653.061 C545.066,651.3 544.055,649.087 544.055,646.42 C544.055,642.056 546.368,637.889 550.993,633.92 C555.618,629.951 560.628,627.967 566.024,627.967"/>
<path class="Clef" d="M203.623,673.858 L203.623,671.717 C203.56,670.613 203.399,668.889 203.139,666.545 C199.889,667.066 196.993,667.326 194.451,667.326 C185.337,667.326 177.605,663.727 171.256,656.53 C164.907,649.332 161.732,640.754 161.732,630.795 C161.732,628.129 162.253,624.923 163.295,621.178 C164.337,617.433 165.297,614.925 166.178,613.655 C167.058,612.384 168.378,610.155 170.139,606.967 C170.659,605.988 172.352,603.837 175.217,600.514 C175.738,599.806 176.193,599.222 176.584,598.764 C176.975,598.306 177.607,597.49 178.482,596.319 C179.357,595.147 180.3,594.056 181.31,593.045 C182.321,592.035 183.217,591.058 183.998,590.115 C184.779,589.173 185.498,588.379 186.154,587.733 C183.81,579.983 182.378,574.024 181.857,569.858 C181.337,565.691 181.076,560.579 181.076,554.522 C181.076,548.464 182.378,542.962 184.982,538.014 C187.514,532.879 191.06,528.681 195.623,525.42 C195.883,525.222 196.225,525.123 196.646,525.123 C197.068,525.123 197.378,525.222 197.576,525.42 C201.087,529.649 204.128,535.149 206.701,541.92 C209.274,548.691 210.56,555.024 210.56,560.92 C210.56,566.816 209.066,572.498 206.076,577.967 C202.691,583.759 198.326,589.748 192.982,595.936 C194.347,600.227 196.17,606.962 198.451,616.139 L199.045,616.139 C199.305,616.076 199.529,616.045 199.717,616.045 C207.081,616.045 213.089,618.634 217.74,623.811 C222.391,628.988 224.717,634.962 224.717,641.733 C224.717,650.129 221.238,656.899 214.279,662.045 C212.258,663.545 209.878,664.717 207.139,665.561 C207.472,669.79 207.639,672.605 207.639,674.006 C207.639,675.407 207.571,677.899 207.435,681.483 C207.373,687.597 205.29,692.837 201.185,697.201 C197.081,701.566 192.394,703.748 187.123,703.748 C181.852,703.748 177.36,701.876 173.646,698.131 C169.933,694.386 168.076,689.847 168.076,684.514 C168.076,681.712 169.154,679.332 171.31,677.373 C173.519,675.425 176.006,674.451 178.771,674.451 C181.537,674.451 183.8,675.462 185.56,677.483 C187.383,679.368 188.295,681.644 188.295,684.311 C188.295,686.977 187.383,689.222 185.56,691.045 C183.738,692.868 181.555,693.78 179.014,693.78 C177.972,693.78 176.967,693.587 175.998,693.201 C178.863,697.431 182.54,699.545 187.029,699.545 C191.519,699.545 195.36,697.691 198.553,693.983 C201.745,690.274 203.342,685.91 203.342,680.889 L203.623,673.858 M206.748,661.561 C210.133,660.321 212.821,658.123 214.81,654.967 C216.8,651.811 217.795,648.67 217.795,645.545 C217.795,640.92 216.199,636.785 213.006,633.139 C209.813,629.493 205.774,627.441 200.889,626.983 C203.691,640.722 205.644,652.248 206.748,661.561 M168.967,638.998 C168.967,645.446 171.537,651.079 176.678,655.897 C181.818,660.714 187.842,663.123 194.748,663.123 C197.477,663.123 200.144,662.925 202.748,662.53 C201.706,652.634 199.654,640.785 196.592,626.983 C192.758,627.379 189.782,628.699 187.662,630.944 C185.542,633.188 184.482,635.743 184.482,638.608 C184.482,643.556 187.123,647.561 192.404,650.623 C192.852,650.884 193.076,651.324 193.076,651.944 C193.076,652.563 192.865,653.1 192.443,653.553 C192.021,654.006 191.649,654.233 191.326,654.233 C191.003,654.233 190.581,654.17 190.06,654.045 C182.435,649.879 178.623,643.592 178.623,635.186 C178.623,631.217 180.024,627.41 182.826,623.764 C185.753,620.118 189.56,617.774 194.248,616.733 C192.425,609.441 190.93,603.743 189.764,599.639 C180.847,609.67 175.31,617.092 173.154,621.905 C170.363,628.155 168.967,633.852 168.967,638.998 M201.576,539.686 C196.691,542.092 192.834,545.574 190.006,550.131 C187.178,554.688 185.764,559.472 185.764,564.483 C185.764,569.493 186.935,575.972 189.279,583.92 C193.967,578.254 197.514,572.946 199.92,567.998 C202.326,563.05 203.529,558.152 203.529,553.303 C203.529,548.454 202.878,543.915 201.576,539.686"/>
<path class="TimeSig" d="M273.021,567.912 C274.516,567.912 275.949,567.686 277.318,567.233 C278.688,566.78 279.665,566.553 280.248,566.553 C280.831,566.553 281.222,566.907 281.42,567.615 C281.42,567.688 281.352,567.886 281.217,568.209 L252.811,601.225 L269.498,601.225 L269.498,588.131 C269.498,586.506 270.446,585.334 272.342,584.615 C274.29,583.897 276.503,581.001 278.982,575.928 C279.17,575.532 279.462,575.334 279.857,575.334 C280.639,575.334 281.092,575.793 281.217,576.709 L281.217,601.225 L288.357,601.225 C289.264,601.225 289.751,601.712 289.818,602.686 C289.886,603.66 289.399,604.147 288.357,604.147 L281.217,604.147 L281.217,604.928 C281.217,607.532 281.868,609.746 283.17,611.569 C284.67,613.391 286.43,614.303 288.451,614.303 C289.232,614.303 289.623,614.694 289.623,615.475 C289.623,616.256 289.087,616.647 288.014,616.647 C286.941,616.647 284.938,616.436 282.006,616.014 C279.074,615.592 276.811,615.381 275.217,615.381 C273.623,615.381 271.41,615.592 268.576,616.014 C265.743,616.436 263.613,616.647 262.186,616.647 C261.404,616.647 261.014,616.256 261.014,615.475 C261.014,614.694 261.404,614.303 262.186,614.303 C264.196,614.303 265.951,613.391 267.451,611.569 C268.816,609.683 269.498,607.47 269.498,604.928 L269.498,604.147 L252.811,604.147 C251.956,604.147 251.219,603.92 250.6,603.467 C249.98,603.014 249.67,602.592 249.67,602.201 C249.67,601.811 250.485,600.639 252.115,598.686 C253.745,596.733 256.074,592.972 259.1,587.405 C262.126,581.837 263.639,575.438 263.639,568.209 C263.639,567.168 264.097,566.647 265.014,566.647 C265.212,566.647 265.521,566.712 265.943,566.842 C266.365,566.972 267.277,567.183 268.678,567.475 C270.079,567.766 271.527,567.912 273.021,567.912"/>
<path class="TimeSig" d="M273.021,618.084 C274.516,618.084 275.949,617.858 277.318,617.405 C278.688,616.951 279.665,616.725 280.248,616.725 C280.831,616.725 281.222,617.079 281.42,617.787 C281.42,617.86 281.352,618.058 281.217,618.381 L252.811,651.397 L269.498,651.397 L269.498,638.303 C269.498,636.678 270.446,635.506 272.342,634.787 C274.29,634.069 276.503,631.173 278.982,626.1 C279.17,625.704 279.462,625.506 279.857,625.506 C280.639,625.506 281.092,625.964 281.217,626.881 L281.217,651.397 L288.357,651.397 C289.264,651.397 289.751,651.884 289.818,652.858 C289.886,653.832 289.399,654.319 288.357,654.319 L281.217,654.319 L281.217,655.1 C281.217,657.704 281.868,659.918 283.17,661.74 C284.67,663.563 286.43,664.475 288.451,664.475 C289.232,664.475 289.623,664.865 289.623,665.647 C289.623,666.428 289.087,666.819 288.014,666.819 C286.941,666.819 284.938,666.608 282.006,666.186 C279.074,665.764 276.811,665.553 275.217,665.553 C273.623,665.553 271.41,665.764 268.576,666.186 C265.743,666.608 263.613,666.819 262.186,666.819 C261.404,666.819 261.014,666.428 261.014,665.647 C261.014,664.865 261.404,664.475 262.186,664.475 C264.196,664.475 265.951,663.563 267.451,661.74 C268.816,659.855 269.498,657.642 269.498,655.1 L269.498,654.319 L252.811,654.319 C251.956,654.319 251.219,654.092 250.6,653.639 C249.98,653.186 249.67,652.764 249.67,652.373 C249.67,651.983 250.485,650.811 252.115,648.858 C253.745,646.905 256.074,643.144 259.1,637.576 C262.126,632.009 263.639,625.61 263.639,618.381 C263.639,617.339 264.097,616.819 265.014,616.819 C265.212,616.819 265.521,616.884 265.943,617.014 C266.365,617.144 267.277,617.355 268.678,617.647 C270.079,617.938 271.527,618.084 273.021,618.084"/>
<path class="Rest" d="M1356.59,607.358 L1321.04,607.358 C1320.38,607.358 1320.05,607.035 1320.05,606.389 L1320.05,592.717 C1320.05,592.061 1320.38,591.733 1321.04,591.733 L1356.59,591.733 C1357.23,591.733 1357.55,592.061 1357.55,592.717 L1357.55,606.389 C1357.55,607.035 1357.23,607.358 1356.59,607.358"/>
<path class="Rest" d="M2593.75,607.358 L2558.2,607.358 C2557.55,607.358 2557.22,607.035 2557.22,606.389 L2557.22,592.717 C2557.22,592.061 2557.55,591.733 2558.2,591.733 L2593.75,591.733 C2594.4,591.733 2594.72,592.061 2594.72,592.717 L2594.72,606.389 C2594.72,607.035 2594.4,607.358 2593.75,607.358"/>
</svg>
