<?xml version="1.0" encoding="UTF-8" standalone="no"?>
<svg width="2977.2px" height="4208.4px" viewBox="0 0 2977.2 4208.4"
 xmlns="http://www.w3.org/2000/svg" xmlns:xlink="http://www.w3.org/1999/xlink" version="1.2" baseProfile="tiny">
<title>A_Harmonic_Minor.mscx</title>
<desc>Generated by MuseScore Studio 4.3.1</desc>
<path class="" fill="#ffffff" fill-rule="evenodd" d="M0,0 L2977.2,0 L2977.2,4208.4 L0,4208.4 L0,0 "/>
<polyline class="StaffLines" fill="none" stroke="#000000" stroke-width="2.00" stroke-linejoin="bevel" points="141.732,316.732 2835.47,316.732"/>
<polyline class="StaffLines" fill="none" stroke="#000000" stroke-width="2.00" stroke-linejoin="bevel" points="141.732,341.732 2835.47,341.732"/>
<polyline class="StaffLines" fill="none" stroke="#000000" stroke-width="2.00" stroke-linejoin="bevel" points="141.732,366.733 2835.47,366.733"/>
<polyline class="StaffLines" fill="none" stroke="#000000" stroke-width="2.00" stroke-linejoin="bevel" points="141.732,391.733 2835.47,391.733"/>
<polyline class="StaffLines" fill="none" stroke="#000000" stroke-width="2.00" stroke-linejoin="bevel" points="141.732,416.733 2835.47,416.733"/>
<polyline class="BarLine" fill="none" stroke="#000000" stroke-width="4.00" stroke-linejoin="bevel" points="2802.72,315.732 2802.72,417.733"/>
<polyline class="BarLine" fill="none" stroke="#000000" stroke-width="12.50" stroke-linejoin="bevel" points="2829.22,315.732 2829.22,417.733"/>
<polyline class="BarLine" fill="none" stroke="#000000" stroke-width="4.00" stroke-linejoin="bevel" points="1955.32,315.732 1955.32,417.733"/>
<polyline class="BarLine" fill="none" stroke="#000000" stroke-width="4.00" stroke-linejoin="bevel" points="1672.86,315.732 1672.86,417.733"/>
<polyline class="BarLine" fill="none" stroke="#000000" stroke-width="4.00" stroke-linejoin="bevel" points="2520.25,315.732 2520.25,417.733"/>
<polyline class="BarLine" fill="none" stroke="#000000" stroke-width="4.00" stroke-linejoin="bevel" points="594.436,315.732 594.436,417.733"/>
<polyline class="BarLine" fill="none" stroke="#000000" stroke-width="4.00" stroke-linejoin="bevel" points="1454.43,315.732 1454.43,417.733"/>
<polyline class="BarLine" fill="none" stroke="#000000" stroke-width="4.00" stroke-linejoin="bevel" points="2237.79,315.732 2237.79,417.733"/>
<polyline class="BarLine" fill="none" stroke="#000000" stroke-width="4.00" stroke-linejoin="bevel" points="1159.37,315.732 1159.37,417.733"/>
<polyline class="BarLine" fill="none" stroke="#000000" stroke-width="4.00" stroke-linejoin="bevel" points="876.902,315.732 876.902,417.733"/>
<path class="Accidental" d="M1818.72,282.264 C1820.15,281.868 1820.87,282.222 1820.87,283.326 L1820.87,291.139 C1820.87,291.92 1820.25,292.54 1819.01,292.998 L1815.79,294.264 L1815.79,308.436 L1818.72,307.264 C1820.15,306.868 1820.87,307.227 1820.87,308.342 L1820.87,316.154 C1820.87,316.936 1820.25,317.55 1819.01,317.998 L1815.79,319.279 L1815.79,335.482 C1815.79,336.722 1815.3,337.342 1814.33,337.342 C1813.35,337.342 1812.86,336.722 1812.86,335.482 L1812.86,320.451 L1803.58,324.154 L1803.58,340.264 C1803.58,341.503 1803.09,342.123 1802.11,342.123 C1801.14,342.123 1800.65,341.503 1800.65,340.264 L1800.65,325.326 L1798.11,326.404 C1796.74,326.988 1796.06,326.597 1796.06,325.232 L1796.06,317.514 C1796.06,316.868 1796.65,316.285 1797.83,315.764 L1800.65,314.592 L1800.65,300.326 L1798.11,301.404 C1796.74,301.988 1796.06,301.597 1796.06,300.232 L1796.06,292.514 C1796.06,291.857 1796.65,291.269 1797.83,290.748 L1800.65,289.576 L1800.65,273.467 C1800.65,272.227 1801.14,271.607 1802.11,271.607 C1803.09,271.607 1803.58,272.227 1803.58,273.467 L1803.58,288.404 L1812.86,284.607 L1812.86,268.686 C1812.86,267.446 1813.35,266.826 1814.33,266.826 C1815.3,266.826 1815.79,267.446 1815.79,268.686 L1815.79,283.436 L1818.72,282.264 M1803.58,299.154 L1803.58,313.42 L1812.86,309.607 L1812.86,295.436 L1803.58,299.154 "/>
<path class="Accidental" d="M1191.55,282.264 C1192.98,281.868 1193.7,282.222 1193.7,283.326 L1193.7,291.139 C1193.7,291.92 1193.08,292.54 1191.84,292.998 L1188.62,294.264 L1188.62,308.436 L1191.55,307.264 C1192.98,306.868 1193.7,307.227 1193.7,308.342 L1193.7,316.154 C1193.7,316.936 1193.08,317.55 1191.84,317.998 L1188.62,319.279 L1188.62,335.482 C1188.62,336.722 1188.14,337.342 1187.16,337.342 C1186.18,337.342 1185.69,336.722 1185.69,335.482 L1185.69,320.451 L1176.41,324.154 L1176.41,340.264 C1176.41,341.503 1175.92,342.123 1174.95,342.123 C1173.97,342.123 1173.48,341.503 1173.48,340.264 L1173.48,325.326 L1170.94,326.404 C1169.57,326.988 1168.89,326.597 1168.89,325.232 L1168.89,317.514 C1168.89,316.868 1169.48,316.285 1170.66,315.764 L1173.48,314.592 L1173.48,300.326 L1170.94,301.404 C1169.57,301.988 1168.89,301.597 1168.89,300.232 L1168.89,292.514 C1168.89,291.857 1169.48,291.269 1170.66,290.748 L1173.48,289.576 L1173.48,273.467 C1173.48,272.227 1173.97,271.607 1174.95,271.607 C1175.92,271.607 1176.41,272.227 1176.41,273.467 L1176.41,288.404 L1185.69,284.607 L1185.69,268.686 C1185.69,267.446 1186.18,266.826 1187.16,266.826 C1188.14,266.826 1188.62,267.446 1188.62,268.686 L1188.62,283.436 L1191.55,282.264 M1176.41,299.154 L1176.41,313.42 L1185.69,309.607 L1185.69,295.436 L1176.41,299.154 "/>
<polyline class="LedgerLine" fill="none" stroke="#000000" stroke-width="4.00" stroke-linejoin="bevel" points="1690.36,291.732 1744.08,291.732"/>
<polyline class="LedgerLine" fill="none" stroke="#000000" stroke-width="4.00" stroke-linejoin="bevel" points="1315.75,291.732 1369.47,291.732"/>
<polyline class="Stem" fill="none" stroke="#000000" stroke-width="3.25" stroke-linejoin="bevel" points="1983.95,321.632 1983.95,404.233"/>
<polyline class="Stem" fill="none" stroke="#000000" stroke-width="3.25" stroke-linejoin="bevel" points="2548.88,371.633 2548.88,441.733"/>
<polyline class="Stem" fill="none" stroke="#000000" stroke-width="3.25" stroke-linejoin="bevel" points="2110.23,334.132 2110.23,416.733"/>
<polyline class="Stem" fill="none" stroke="#000000" stroke-width="3.25" stroke-linejoin="bevel" points="1827.76,309.132 1827.76,391.733"/>
<polyline class="Stem" fill="none" stroke="#000000" stroke-width="3.25" stroke-linejoin="bevel" points="1701.48,296.632 1701.48,379.233"/>
<polyline class="Stem" fill="none" stroke="#000000" stroke-width="3.25" stroke-linejoin="bevel" points="372.065,374.433 372.065,297.982"/>
<polyline class="Stem" fill="none" stroke="#000000" stroke-width="3.25" stroke-linejoin="bevel" points="2706.63,374.433 2706.63,297.982"/>
<polyline class="Stem" fill="none" stroke="#000000" stroke-width="3.25" stroke-linejoin="bevel" points="466.877,371.633 466.877,441.733"/>
<polyline class="Stem" fill="none" stroke="#000000" stroke-width="3.25" stroke-linejoin="bevel" points="623.061,359.132 623.061,435.483"/>
<polyline class="Stem" fill="none" stroke="#000000" stroke-width="3.25" stroke-linejoin="bevel" points="1326.88,296.632 1326.88,379.233"/>
<polyline class="Stem" fill="none" stroke="#000000" stroke-width="3.25" stroke-linejoin="bevel" points="1200.59,309.132 1200.59,391.733"/>
<polyline class="Stem" fill="none" stroke="#000000" stroke-width="3.25" stroke-linejoin="bevel" points="749.343,346.632 749.343,429.233"/>
<polyline class="Stem" fill="none" stroke="#000000" stroke-width="3.25" stroke-linejoin="bevel" points="2392.69,359.132 2392.69,435.483"/>
<polyline class="Stem" fill="none" stroke="#000000" stroke-width="3.25" stroke-linejoin="bevel" points="2266.41,346.632 2266.41,429.233"/>
<polyline class="Stem" fill="none" stroke="#000000" stroke-width="3.25" stroke-linejoin="bevel" points="1031.81,321.632 1031.81,404.233"/>
<polyline class="Stem" fill="none" stroke="#000000" stroke-width="3.25" stroke-linejoin="bevel" points="905.527,334.132 905.527,416.733"/>
<path class="Note" d="M2398.49,364.873 C2400.38,364.873 2404.33,362.92 2410.36,359.014 C2416.38,355.107 2419.93,352.488 2421.01,351.154 C2422.08,349.821 2422.62,348.634 2422.62,347.592 C2422.62,346.55 2422.19,345.623 2421.34,344.811 C2420.49,343.998 2419.52,343.592 2418.41,343.592 C2416.46,343.592 2412.48,345.561 2406.45,349.498 C2400.43,353.436 2396.89,356.055 2395.85,357.357 C2394.81,358.66 2394.29,359.831 2394.29,360.873 C2394.29,361.915 2394.7,362.842 2395.51,363.654 C2396.33,364.467 2397.32,364.873 2398.49,364.873 M2417.44,340.467 C2423.04,340.467 2425.83,342.873 2425.83,347.686 C2425.83,350.029 2425.15,352.748 2423.79,355.842 C2422.42,358.936 2420.6,361.295 2418.32,362.92 C2413.31,366.305 2407.03,367.998 2399.48,367.998 C2393.87,367.998 2391.07,365.592 2391.07,360.779 C2391.07,358.634 2391.74,355.964 2393.07,352.772 C2394.4,349.579 2396.24,347.17 2398.58,345.545 C2403.61,342.16 2409.89,340.467 2417.44,340.467"/>
<path class="Note" d="M2116.03,339.873 C2117.91,339.873 2121.87,337.92 2127.89,334.014 C2133.92,330.107 2137.47,327.488 2138.54,326.154 C2139.61,324.821 2140.15,323.634 2140.15,322.592 C2140.15,321.55 2139.73,320.623 2138.88,319.811 C2138.03,318.998 2137.05,318.592 2135.95,318.592 C2134,318.592 2130.01,320.561 2123.99,324.498 C2117.96,328.436 2114.43,331.055 2113.38,332.357 C2112.34,333.66 2111.82,334.831 2111.82,335.873 C2111.82,336.915 2112.23,337.842 2113.05,338.654 C2113.87,339.467 2114.86,339.873 2116.03,339.873 M2134.98,315.467 C2140.57,315.467 2143.37,317.873 2143.37,322.686 C2143.37,325.029 2142.69,327.748 2141.32,330.842 C2139.96,333.936 2138.13,336.295 2135.85,337.92 C2130.84,341.305 2124.56,342.998 2117.01,342.998 C2111.41,342.998 2108.6,340.592 2108.6,335.779 C2108.6,333.634 2109.27,330.964 2110.6,327.772 C2111.94,324.579 2113.78,322.17 2116.12,320.545 C2121.14,317.16 2127.43,315.467 2134.98,315.467"/>
<path class="Note" d="M2272.21,352.373 C2274.09,352.373 2278.05,350.42 2284.08,346.514 C2290.1,342.607 2293.65,339.988 2294.72,338.654 C2295.8,337.321 2296.33,336.134 2296.33,335.092 C2296.33,334.05 2295.91,333.123 2295.06,332.311 C2294.21,331.498 2293.24,331.092 2292.13,331.092 C2290.18,331.092 2286.2,333.061 2280.17,336.998 C2274.14,340.936 2270.61,343.555 2269.57,344.857 C2268.53,346.16 2268.01,347.331 2268.01,348.373 C2268.01,349.415 2268.42,350.342 2269.23,351.154 C2270.05,351.967 2271.04,352.373 2272.21,352.373 M2291.16,327.967 C2296.76,327.967 2299.55,330.373 2299.55,335.186 C2299.55,337.529 2298.87,340.248 2297.51,343.342 C2296.14,346.436 2294.32,348.795 2292.04,350.42 C2287.03,353.805 2280.75,355.498 2273.19,355.498 C2267.59,355.498 2264.79,353.092 2264.79,348.279 C2264.79,346.134 2265.45,343.464 2266.79,340.272 C2268.12,337.079 2269.96,334.67 2272.3,333.045 C2277.32,329.66 2283.61,327.967 2291.16,327.967"/>
<path class="Note" d="M2554.67,377.373 C2556.56,377.373 2560.52,375.42 2566.54,371.514 C2572.57,367.608 2576.12,364.988 2577.19,363.654 C2578.26,362.321 2578.8,361.134 2578.8,360.092 C2578.8,359.05 2578.38,358.123 2577.53,357.311 C2576.68,356.498 2575.7,356.092 2574.6,356.092 C2572.65,356.092 2568.66,358.061 2562.64,361.998 C2556.61,365.936 2553.08,368.555 2552.03,369.858 C2550.99,371.16 2550.47,372.331 2550.47,373.373 C2550.47,374.415 2550.88,375.342 2551.7,376.154 C2552.52,376.967 2553.51,377.373 2554.67,377.373 M2573.63,352.967 C2579.22,352.967 2582.02,355.373 2582.02,360.186 C2582.02,362.529 2581.34,365.248 2579.97,368.342 C2578.61,371.436 2576.78,373.795 2574.5,375.42 C2569.49,378.805 2563.21,380.498 2555.66,380.498 C2550.05,380.498 2547.25,378.092 2547.25,373.279 C2547.25,371.134 2547.92,368.464 2549.25,365.272 C2550.59,362.079 2552.42,359.67 2554.77,358.045 C2559.79,354.66 2566.08,352.967 2573.63,352.967"/>
<path class="Note" d="M1989.74,327.373 C1991.63,327.373 1995.58,325.42 2001.61,321.514 C2007.64,317.607 2011.19,314.988 2012.26,313.654 C2013.33,312.321 2013.87,311.134 2013.87,310.092 C2013.87,309.05 2013.44,308.123 2012.6,307.311 C2011.75,306.498 2010.77,306.092 2009.67,306.092 C2007.72,306.092 2003.73,308.061 1997.7,311.998 C1991.68,315.936 1988.14,318.555 1987.1,319.857 C1986.06,321.16 1985.54,322.331 1985.54,323.373 C1985.54,324.415 1985.95,325.342 1986.77,326.154 C1987.58,326.967 1988.58,327.373 1989.74,327.373 M2008.7,302.967 C2014.29,302.967 2017.09,305.373 2017.09,310.186 C2017.09,312.529 2016.41,315.248 2015.04,318.342 C2013.68,321.436 2011.85,323.795 2009.57,325.42 C2004.56,328.805 1998.28,330.498 1990.73,330.498 C1985.12,330.498 1982.32,328.092 1982.32,323.279 C1982.32,321.134 1982.99,318.464 1984.32,315.272 C1985.66,312.079 1987.49,309.67 1989.84,308.045 C1994.86,304.66 2001.14,302.967 2008.7,302.967"/>
<path class="Note" d="M1833.56,314.873 C1835.45,314.873 1839.4,312.92 1845.43,309.014 C1851.45,305.107 1855,302.488 1856.08,301.154 C1857.15,299.821 1857.68,298.634 1857.68,297.592 C1857.68,296.55 1857.26,295.623 1856.41,294.811 C1855.56,293.998 1854.59,293.592 1853.48,293.592 C1851.53,293.592 1847.55,295.561 1841.52,299.498 C1835.49,303.436 1831.96,306.055 1830.92,307.357 C1829.88,308.66 1829.36,309.831 1829.36,310.873 C1829.36,311.915 1829.77,312.842 1830.58,313.654 C1831.4,314.467 1832.39,314.873 1833.56,314.873 M1852.51,290.467 C1858.11,290.467 1860.9,292.873 1860.9,297.686 C1860.9,300.029 1860.22,302.748 1858.86,305.842 C1857.49,308.936 1855.67,311.295 1853.39,312.92 C1848.38,316.305 1842.1,317.998 1834.54,317.998 C1828.94,317.998 1826.14,315.592 1826.14,310.779 C1826.14,308.634 1826.8,305.964 1828.14,302.772 C1829.47,299.579 1831.31,297.17 1833.65,295.545 C1838.67,292.16 1844.96,290.467 1852.51,290.467"/>
<path class="Note" d="M1707.28,302.373 C1709.16,302.373 1713.12,300.42 1719.15,296.514 C1725.17,292.607 1728.72,289.988 1729.79,288.654 C1730.87,287.321 1731.4,286.133 1731.4,285.092 C1731.4,284.05 1730.98,283.123 1730.13,282.311 C1729.28,281.498 1728.3,281.092 1727.2,281.092 C1725.25,281.092 1721.27,283.061 1715.24,286.998 C1709.21,290.936 1705.68,293.555 1704.64,294.857 C1703.6,296.16 1703.08,297.331 1703.08,298.373 C1703.08,299.415 1703.48,300.342 1704.3,301.154 C1705.12,301.967 1706.11,302.373 1707.28,302.373 M1726.23,277.967 C1731.83,277.967 1734.62,280.373 1734.62,285.186 C1734.62,287.529 1733.94,290.248 1732.58,293.342 C1731.21,296.436 1729.39,298.795 1727.11,300.42 C1722.1,303.805 1715.81,305.498 1708.26,305.498 C1702.66,305.498 1699.86,303.092 1699.86,298.279 C1699.86,296.133 1700.52,293.464 1701.86,290.272 C1703.19,287.079 1705.03,284.67 1707.37,283.045 C1712.39,279.66 1718.68,277.967 1726.23,277.967"/>
<path class="Note" d="M1332.67,302.373 C1334.56,302.373 1338.51,300.42 1344.54,296.514 C1350.57,292.607 1354.11,289.988 1355.19,288.654 C1356.26,287.321 1356.8,286.133 1356.8,285.092 C1356.8,284.05 1356.37,283.123 1355.52,282.311 C1354.67,281.498 1353.7,281.092 1352.59,281.092 C1350.65,281.092 1346.66,283.061 1340.63,286.998 C1334.61,290.936 1331.07,293.555 1330.03,294.857 C1328.99,296.16 1328.47,297.331 1328.47,298.373 C1328.47,299.415 1328.88,300.342 1329.7,301.154 C1330.51,301.967 1331.51,302.373 1332.67,302.373 M1351.63,277.967 C1357.22,277.967 1360.02,280.373 1360.02,285.186 C1360.02,287.529 1359.33,290.248 1357.97,293.342 C1356.6,296.436 1354.78,298.795 1352.5,300.42 C1347.49,303.805 1341.21,305.498 1333.66,305.498 C1328.05,305.498 1325.25,303.092 1325.25,298.279 C1325.25,296.133 1325.92,293.464 1327.25,290.272 C1328.58,287.079 1330.42,284.67 1332.77,283.045 C1337.79,279.66 1344.07,277.967 1351.63,277.967"/>
<path class="Note" d="M1206.39,314.873 C1208.28,314.873 1212.23,312.92 1218.26,309.014 C1224.28,305.107 1227.83,302.488 1228.91,301.154 C1229.98,299.821 1230.52,298.634 1230.52,297.592 C1230.52,296.55 1230.09,295.623 1229.24,294.811 C1228.39,293.998 1227.42,293.592 1226.31,293.592 C1224.36,293.592 1220.38,295.561 1214.35,299.498 C1208.33,303.436 1204.79,306.055 1203.75,307.357 C1202.71,308.66 1202.19,309.831 1202.19,310.873 C1202.19,311.915 1202.6,312.842 1203.41,313.654 C1204.23,314.467 1205.22,314.873 1206.39,314.873 M1225.34,290.467 C1230.94,290.467 1233.73,292.873 1233.73,297.686 C1233.73,300.029 1233.05,302.748 1231.69,305.842 C1230.32,308.936 1228.5,311.295 1226.22,312.92 C1221.21,316.305 1214.93,317.998 1207.37,317.998 C1201.77,317.998 1198.97,315.592 1198.97,310.779 C1198.97,308.634 1199.64,305.964 1200.97,302.772 C1202.3,299.579 1204.14,297.17 1206.48,295.545 C1211.51,292.16 1217.79,290.467 1225.34,290.467"/>
<path class="Note" d="M1037.61,327.373 C1039.49,327.373 1043.45,325.42 1049.47,321.514 C1055.5,317.607 1059.05,314.988 1060.12,313.654 C1061.19,312.321 1061.73,311.134 1061.73,310.092 C1061.73,309.05 1061.31,308.123 1060.46,307.311 C1059.61,306.498 1058.63,306.092 1057.53,306.092 C1055.58,306.092 1051.59,308.061 1045.57,311.998 C1039.54,315.936 1036.01,318.555 1034.96,319.857 C1033.92,321.16 1033.4,322.331 1033.4,323.373 C1033.4,324.415 1033.81,325.342 1034.63,326.154 C1035.45,326.967 1036.44,327.373 1037.61,327.373 M1056.56,302.967 C1062.15,302.967 1064.95,305.373 1064.95,310.186 C1064.95,312.529 1064.27,315.248 1062.9,318.342 C1061.54,321.436 1059.71,323.795 1057.43,325.42 C1052.42,328.805 1046.14,330.498 1038.59,330.498 C1032.99,330.498 1030.18,328.092 1030.18,323.279 C1030.18,321.134 1030.85,318.464 1032.18,315.272 C1033.52,312.079 1035.36,309.67 1037.7,308.045 C1042.72,304.66 1049.01,302.967 1056.56,302.967"/>
<path class="Note" d="M911.324,339.873 C913.209,339.873 917.165,337.92 923.191,334.014 C929.217,330.107 932.766,327.488 933.839,326.154 C934.912,324.821 935.449,323.634 935.449,322.592 C935.449,321.55 935.024,320.623 934.175,319.811 C933.326,318.998 932.35,318.592 931.245,318.592 C929.298,318.592 925.311,320.561 919.284,324.498 C913.258,328.436 909.725,331.055 908.683,332.357 C907.641,333.66 907.12,334.831 907.12,335.873 C907.12,336.915 907.529,337.842 908.347,338.654 C909.165,339.467 910.157,339.873 911.324,339.873 M930.277,315.467 C935.87,315.467 938.667,317.873 938.667,322.686 C938.667,325.029 937.985,327.748 936.62,330.842 C935.256,333.936 933.433,336.295 931.152,337.92 C926.141,341.305 919.86,342.998 912.308,342.998 C906.704,342.998 903.902,340.592 903.902,335.779 C903.902,333.634 904.568,330.964 905.902,327.772 C907.235,324.579 909.074,322.17 911.417,320.545 C916.438,317.16 922.725,315.467 930.277,315.467"/>
<path class="Note" d="M755.14,352.373 C757.025,352.373 760.981,350.42 767.007,346.514 C773.033,342.607 776.582,339.988 777.655,338.654 C778.728,337.321 779.265,336.134 779.265,335.092 C779.265,334.05 778.84,333.123 777.991,332.311 C777.142,331.498 776.166,331.092 775.062,331.092 C773.114,331.092 769.127,333.061 763.101,336.998 C757.075,340.936 753.541,343.555 752.499,344.857 C751.457,346.16 750.937,347.331 750.937,348.373 C750.937,349.415 751.345,350.342 752.163,351.154 C752.981,351.967 753.973,352.373 755.14,352.373 M774.093,327.967 C779.687,327.967 782.483,330.373 782.483,335.186 C782.483,337.529 781.801,340.248 780.437,343.342 C779.072,346.436 777.249,348.795 774.968,350.42 C769.957,353.805 763.676,355.498 756.124,355.498 C750.52,355.498 747.718,353.092 747.718,348.279 C747.718,346.134 748.384,343.464 749.718,340.272 C751.051,337.079 752.89,334.67 755.233,333.045 C760.254,329.66 766.541,327.967 774.093,327.967"/>
<path class="Note" d="M628.858,364.873 C630.744,364.873 634.699,362.92 640.725,359.014 C646.751,355.107 650.301,352.488 651.374,351.154 C652.447,349.821 652.983,348.634 652.983,347.592 C652.983,346.55 652.559,345.623 651.71,344.811 C650.861,343.998 649.884,343.592 648.78,343.592 C646.832,343.592 642.845,345.561 636.819,349.498 C630.793,353.436 627.259,356.055 626.217,357.357 C625.176,358.66 624.655,359.831 624.655,360.873 C624.655,361.915 625.064,362.842 625.882,363.654 C626.699,364.467 627.691,364.873 628.858,364.873 M647.811,340.467 C653.405,340.467 656.202,342.873 656.202,347.686 C656.202,350.029 655.52,352.748 654.155,355.842 C652.79,358.936 650.967,361.295 648.686,362.92 C643.676,366.305 637.395,367.998 629.842,367.998 C624.238,367.998 621.436,365.592 621.436,360.779 C621.436,358.634 622.103,355.964 623.436,352.772 C624.77,349.579 626.608,347.17 628.952,345.545 C633.973,342.16 640.259,340.467 647.811,340.467"/>
<path class="Note" d="M472.674,377.373 C474.56,377.373 478.515,375.42 484.541,371.514 C490.567,367.608 494.117,364.988 495.19,363.654 C496.263,362.321 496.799,361.134 496.799,360.092 C496.799,359.05 496.375,358.123 495.526,357.311 C494.677,356.498 493.7,356.092 492.596,356.092 C490.648,356.092 486.661,358.061 480.635,361.998 C474.609,365.936 471.075,368.555 470.034,369.858 C468.992,371.16 468.471,372.331 468.471,373.373 C468.471,374.415 468.88,375.342 469.698,376.154 C470.515,376.967 471.508,377.373 472.674,377.373 M491.627,352.967 C497.221,352.967 500.018,355.373 500.018,360.186 C500.018,362.529 499.336,365.248 497.971,368.342 C496.606,371.436 494.784,373.795 492.502,375.42 C487.492,378.805 481.211,380.498 473.659,380.498 C468.054,380.498 465.252,378.092 465.252,373.279 C465.252,371.134 465.919,368.464 467.252,365.272 C468.586,362.079 470.424,359.67 472.768,358.045 C477.789,354.66 484.075,352.967 491.627,352.967"/>
<path class="Note" d="M346.393,389.873 C348.278,389.873 352.234,387.92 358.26,384.014 C364.286,380.108 367.835,377.488 368.908,376.154 C369.981,374.821 370.518,373.634 370.518,372.592 C370.518,371.55 370.093,370.623 369.244,369.811 C368.395,368.998 367.419,368.592 366.315,368.592 C364.367,368.592 360.38,370.561 354.354,374.498 C348.328,378.436 344.794,381.055 343.752,382.358 C342.71,383.66 342.19,384.831 342.19,385.873 C342.19,386.915 342.598,387.842 343.416,388.654 C344.234,389.467 345.226,389.873 346.393,389.873 M365.346,365.467 C370.94,365.467 373.736,367.873 373.736,372.686 C373.736,375.029 373.054,377.748 371.69,380.842 C370.325,383.936 368.502,386.295 366.221,387.92 C361.21,391.305 354.929,392.998 347.377,392.998 C341.773,392.998 338.971,390.592 338.971,385.779 C338.971,383.634 339.637,380.964 340.971,377.772 C342.304,374.579 344.143,372.17 346.486,370.545 C351.507,367.16 357.794,365.467 365.346,365.467"/>
<path class="Note" d="M2680.96,389.873 C2682.84,389.873 2686.8,387.92 2692.82,384.014 C2698.85,380.108 2702.4,377.488 2703.47,376.154 C2704.54,374.821 2705.08,373.634 2705.08,372.592 C2705.08,371.55 2704.66,370.623 2703.81,369.811 C2702.96,368.998 2701.98,368.592 2700.88,368.592 C2698.93,368.592 2694.94,370.561 2688.92,374.498 C2682.89,378.436 2679.36,381.055 2678.32,382.358 C2677.27,383.66 2676.75,384.831 2676.75,385.873 C2676.75,386.915 2677.16,387.842 2677.98,388.654 C2678.8,389.467 2679.79,389.873 2680.96,389.873 M2699.91,365.467 C2705.5,365.467 2708.3,367.873 2708.3,372.686 C2708.3,375.029 2707.62,377.748 2706.25,380.842 C2704.89,383.936 2703.07,386.295 2700.78,387.92 C2695.77,391.305 2689.49,392.998 2681.94,392.998 C2676.34,392.998 2673.53,390.592 2673.53,385.779 C2673.53,383.634 2674.2,380.964 2675.53,377.772 C2676.87,374.579 2678.71,372.17 2681.05,370.545 C2686.07,367.16 2692.36,365.467 2699.91,365.467"/>
<path class="Clef" d="M203.623,423.858 L203.623,421.717 C203.56,420.613 203.399,418.889 203.139,416.545 C199.889,417.066 196.993,417.326 194.451,417.326 C185.337,417.326 177.605,413.727 171.256,406.529 C164.907,399.331 161.732,390.753 161.732,380.795 C161.732,378.128 162.253,374.923 163.295,371.178 C164.337,367.433 165.297,364.925 166.178,363.654 C167.058,362.384 168.378,360.154 170.139,356.967 C170.659,355.988 172.352,353.837 175.217,350.514 C175.738,349.805 176.193,349.222 176.584,348.764 C176.975,348.305 177.607,347.49 178.482,346.318 C179.357,345.147 180.3,344.055 181.31,343.045 C182.321,342.035 183.217,341.058 183.998,340.115 C184.779,339.173 185.498,338.378 186.154,337.733 C183.81,329.983 182.378,324.024 181.857,319.858 C181.337,315.691 181.076,310.579 181.076,304.522 C181.076,298.464 182.378,292.962 184.982,288.014 C187.514,282.878 191.06,278.68 195.623,275.42 C195.883,275.222 196.225,275.123 196.646,275.123 C197.068,275.123 197.378,275.222 197.576,275.42 C201.087,279.649 204.128,285.149 206.701,291.92 C209.274,298.691 210.56,305.024 210.56,310.92 C210.56,316.816 209.066,322.498 206.076,327.967 C202.691,333.759 198.326,339.748 192.982,345.936 C194.347,350.227 196.17,356.962 198.451,366.139 L199.045,366.139 C199.305,366.076 199.529,366.045 199.717,366.045 C207.081,366.045 213.089,368.634 217.74,373.811 C222.391,378.988 224.717,384.962 224.717,391.733 C224.717,400.128 221.238,406.899 214.279,412.045 C212.258,413.545 209.878,414.717 207.139,415.561 C207.472,419.79 207.639,422.605 207.639,424.006 C207.639,425.407 207.571,427.899 207.435,431.483 C207.373,437.597 205.29,442.837 201.185,447.201 C197.081,451.566 192.394,453.748 187.123,453.748 C181.852,453.748 177.36,451.876 173.646,448.131 C169.933,444.386 168.076,439.847 168.076,434.514 C168.076,431.712 169.154,429.331 171.31,427.373 C173.519,425.425 176.006,424.451 178.771,424.451 C181.537,424.451 183.8,425.462 185.56,427.483 C187.383,429.368 188.295,431.644 188.295,434.311 C188.295,436.977 187.383,439.222 185.56,441.045 C183.738,442.868 181.555,443.779 179.014,443.779 C177.972,443.779 176.967,443.587 175.998,443.201 C178.863,447.43 182.54,449.545 187.029,449.545 C191.519,449.545 195.36,447.691 198.553,443.983 C201.745,440.274 203.342,435.91 203.342,430.889 L203.623,423.858 M206.748,411.561 C210.133,410.321 212.821,408.123 214.81,404.967 C216.8,401.811 217.795,398.67 217.795,395.545 C217.795,390.92 216.199,386.785 213.006,383.139 C209.813,379.493 205.774,377.441 200.889,376.983 C203.691,390.722 205.644,402.248 206.748,411.561 M168.967,388.998 C168.967,395.446 171.537,401.079 176.678,405.897 C181.818,410.714 187.842,413.123 194.748,413.123 C197.477,413.123 200.144,412.925 202.748,412.529 C201.706,402.634 199.654,390.785 196.592,376.983 C192.758,377.378 189.782,378.699 187.662,380.943 C185.542,383.188 184.482,385.743 184.482,388.608 C184.482,393.555 187.123,397.561 192.404,400.623 C192.852,400.884 193.076,401.324 193.076,401.943 C193.076,402.563 192.865,403.1 192.443,403.553 C192.021,404.006 191.649,404.233 191.326,404.233 C191.003,404.233 190.581,404.17 190.06,404.045 C182.435,399.878 178.623,393.592 178.623,385.186 C178.623,381.217 180.024,377.41 182.826,373.764 C185.753,370.118 189.56,367.774 194.248,366.733 C192.425,359.441 190.93,353.743 189.764,349.639 C180.847,359.67 175.31,367.092 173.154,371.904 C170.363,378.154 168.967,383.852 168.967,388.998 M201.576,289.686 C196.691,292.092 192.834,295.574 190.006,300.131 C187.178,304.688 185.764,309.472 185.764,314.483 C185.764,319.493 186.935,325.972 189.279,333.92 C193.967,328.253 197.514,322.946 199.92,317.998 C202.326,313.05 203.529,308.152 203.529,303.303 C203.529,298.454 202.878,293.915 201.576,289.686"/>
<path class="TimeSig" d="M273.021,317.912 C274.516,317.912 275.949,317.686 277.318,317.232 C278.688,316.779 279.665,316.553 280.248,316.553 C280.831,316.553 281.222,316.907 281.42,317.615 C281.42,317.688 281.352,317.886 281.217,318.209 L252.811,351.225 L269.498,351.225 L269.498,338.131 C269.498,336.506 270.446,335.334 272.342,334.615 C274.29,333.897 276.503,331.001 278.982,325.928 C279.17,325.532 279.462,325.334 279.857,325.334 C280.639,325.334 281.092,325.792 281.217,326.709 L281.217,351.225 L288.357,351.225 C289.264,351.225 289.751,351.712 289.818,352.686 C289.886,353.66 289.399,354.147 288.357,354.147 L281.217,354.147 L281.217,354.928 C281.217,357.532 281.868,359.746 283.17,361.568 C284.67,363.391 286.43,364.303 288.451,364.303 C289.232,364.303 289.623,364.693 289.623,365.475 C289.623,366.256 289.087,366.647 288.014,366.647 C286.941,366.647 284.938,366.436 282.006,366.014 C279.074,365.592 276.811,365.381 275.217,365.381 C273.623,365.381 271.41,365.592 268.576,366.014 C265.743,366.436 263.613,366.647 262.186,366.647 C261.404,366.647 261.014,366.256 261.014,365.475 C261.014,364.693 261.404,364.303 262.186,364.303 C264.196,364.303 265.951,363.391 267.451,361.568 C268.816,359.683 269.498,357.469 269.498,354.928 L269.498,354.147 L252.811,354.147 C251.956,354.147 251.219,353.92 250.6,353.467 C249.98,353.014 249.67,352.592 249.67,352.201 C249.67,351.811 250.485,350.639 252.115,348.686 C253.745,346.732 256.074,342.972 259.1,337.404 C262.126,331.837 263.639,325.438 263.639,318.209 C263.639,317.167 264.097,316.647 265.014,316.647 C265.212,316.647 265.521,316.712 265.943,316.842 C266.365,316.972 267.277,317.183 268.678,317.475 C270.079,317.766 271.527,317.912 273.021,317.912"/>
<path class="TimeSig" d="M273.021,368.084 C274.516,368.084 275.949,367.858 277.318,367.404 C278.688,366.951 279.665,366.725 280.248,366.725 C280.831,366.725 281.222,367.079 281.42,367.787 C281.42,367.86 281.352,368.058 281.217,368.381 L252.811,401.397 L269.498,401.397 L269.498,388.303 C269.498,386.678 270.446,385.506 272.342,384.787 C274.29,384.068 276.503,381.173 278.982,376.1 C279.17,375.704 279.462,375.506 279.857,375.506 C280.639,375.506 281.092,375.964 281.217,376.881 L281.217,401.397 L288.357,401.397 C289.264,401.397 289.751,401.884 289.818,402.858 C289.886,403.831 289.399,404.318 288.357,404.318 L281.217,404.318 L281.217,405.1 C281.217,407.704 281.868,409.917 283.17,411.74 C284.67,413.563 286.43,414.475 288.451,414.475 C289.232,414.475 289.623,414.865 289.623,415.647 C289.623,416.428 289.087,416.818 288.014,416.818 C286.941,416.818 284.938,416.608 282.006,416.186 C279.074,415.764 276.811,415.553 275.217,415.553 C273.623,415.553 271.41,415.764 268.576,416.186 C265.743,416.608 263.613,416.818 262.186,416.818 C261.404,416.818 261.014,416.428 261.014,415.647 C261.014,414.865 261.404,414.475 262.186,414.475 C264.196,414.475 265.951,413.563 267.451,411.74 C268.816,409.855 269.498,407.641 269.498,405.1 L269.498,404.318 L252.811,404.318 C251.956,404.318 251.219,404.092 250.6,403.639 C249.98,403.186 249.67,402.764 249.67,402.373 C249.67,401.983 250.485,400.811 252.115,398.858 C253.745,396.904 256.074,393.144 259.1,387.576 C262.126,382.009 263.639,375.61 263.639,368.381 C263.639,367.339 264.097,366.818 265.014,366.818 C265.212,366.818 265.521,366.884 265.943,367.014 C266.365,367.144 267.277,367.355 268.678,367.647 C270.079,367.938 271.527,368.084 273.021,368.084"/>
<path class="Rest" d="M1581.43,357.357 L1545.88,357.357 C1545.22,357.357 1544.9,357.035 1544.9,356.389 L1544.9,342.717 C1544.9,342.061 1545.22,341.732 1545.88,341.732 L1581.43,341.732 C1582.07,341.732 1582.4,342.061 1582.4,342.717 L1582.4,356.389 C1582.4,357.035 1582.07,357.357 1581.43,357.357"/>
</svg>
