<?xml version="1.0" encoding="UTF-8" standalone="no"?>
<svg width="2977.2px" height="4208.4px" viewBox="0 0 2977.2 4208.4"
 xmlns="http://www.w3.org/2000/svg" xmlns:xlink="http://www.w3.org/1999/xlink" version="1.2" baseProfile="tiny">
<title>Happy_Birthday.mscx</title>
<desc>Generated by MuseScore Studio 4.3.1</desc>
<path class="" fill="#ffffff" fill-rule="evenodd" d="M0,0 L2977.2,0 L2977.2,4208.4 L0,4208.4 L0,0 "/>
<polyline class="StaffLines" fill="none" stroke="#000000" stroke-width="2.00" stroke-linejoin="bevel" points="141.732,566.733 2835.47,566.733"/>
<polyline class="StaffLines" fill="none" stroke="#000000" stroke-width="2.00" stroke-linejoin="bevel" points="141.732,591.733 2835.47,591.733"/>
<polyline class="StaffLines" fill="none" stroke="#000000" stroke-width="2.00" stroke-linejoin="bevel" points="141.732,616.733 2835.47,616.733"/>
<polyline class="StaffLines" fill="none" stroke="#000000" stroke-width="2.00" stroke-linejoin="bevel" points="141.732,641.733 2835.47,641.733"/>
<polyline class="StaffLines" fill="none" stroke="#000000" stroke-width="2.00" stroke-linejoin="bevel" points="141.732,666.733 2835.47,666.733"/>
<polyline class="StaffLines" fill="none" stroke="#000000" stroke-width="2.00" stroke-linejoin="bevel" points="141.732,1041.73 2835.47,1041.73"/>
<polyline class="StaffLines" fill="none" stroke="#000000" stroke-width="2.00" stroke-linejoin="bevel" points="141.732,1066.73 2835.47,1066.73"/>
<polyline class="StaffLines" fill="none" stroke="#000000" stroke-width="2.00" stroke-linejoin="bevel" points="141.732,1091.73 2835.47,1091.73"/>
<polyline class="StaffLines" fill="none" stroke="#000000" stroke-width="2.00" stroke-linejoin="bevel" points="141.732,1116.73 2835.47,1116.73"/>
<polyline class="StaffLines" fill="none" stroke="#000000" stroke-width="2.00" stroke-linejoin="bevel" points="141.732,1141.73 2835.47,1141.73"/>
<polyline class="StaffLines" fill="none" stroke="#000000" stroke-width="2.00" stroke-linejoin="bevel" points="141.732,1516.73 668.829,1516.73"/>
<polyline class="StaffLines" fill="none" stroke="#000000" stroke-width="2.00" stroke-linejoin="bevel" points="141.732,1541.73 668.829,1541.73"/>
<polyline class="StaffLines" fill="none" stroke="#000000" stroke-width="2.00" stroke-linejoin="bevel" points="141.732,1566.73 668.829,1566.73"/>
<polyline class="StaffLines" fill="none" stroke="#000000" stroke-width="2.00" stroke-linejoin="bevel" points="141.732,1591.73 668.829,1591.73"/>
<polyline class="StaffLines" fill="none" stroke="#000000" stroke-width="2.00" stroke-linejoin="bevel" points="141.732,1616.73 668.829,1616.73"/>
<path class="MeasureNumber" d="M134.092,1467.61 L133.967,1466.81 C137.008,1466.28 139.589,1464.98 141.709,1462.92 C143.829,1460.86 145.3,1458.2 146.123,1454.94 C144.154,1456.48 142.159,1457.25 140.139,1457.25 C137.972,1457.25 136.23,1456.5 134.912,1455.01 C133.594,1453.51 132.935,1451.55 132.935,1449.11 C132.935,1446.4 133.727,1444.14 135.31,1442.33 C136.894,1440.53 138.873,1439.62 141.248,1439.62 C143.831,1439.62 145.951,1440.68 147.607,1442.8 C149.264,1444.91 150.092,1447.63 150.092,1450.95 C150.092,1452.01 149.998,1453.11 149.81,1454.23 C149.623,1455.36 149.188,1456.69 148.506,1458.23 C147.824,1459.76 146.938,1461.14 145.85,1462.35 C144.761,1463.56 143.204,1464.67 141.178,1465.66 C139.152,1466.64 136.79,1467.3 134.092,1467.61 M141.576,1455.5 C142.076,1455.5 142.646,1455.43 143.287,1455.28 C143.928,1455.13 144.576,1454.81 145.232,1454.32 C145.889,1453.82 146.217,1453.22 146.217,1452.5 L146.217,1450.95 C146.217,1444.19 144.456,1440.81 140.935,1440.81 C140.102,1440.81 139.394,1441.03 138.81,1441.48 C138.227,1441.92 137.782,1442.5 137.475,1443.21 C137.167,1443.92 136.946,1444.65 136.81,1445.4 C136.675,1446.14 136.607,1446.93 136.607,1447.76 C136.607,1450.13 137.055,1452.01 137.951,1453.41 C138.847,1454.8 140.055,1455.5 141.576,1455.5"/>
<path class="MeasureNumber" d="M146.514,983.874 C146.514,982.446 146.199,981.181 145.568,980.077 C144.938,978.972 144.178,978.118 143.287,977.514 C142.396,976.91 141.399,976.413 140.295,976.022 C139.191,975.631 138.23,975.376 137.412,975.256 C136.594,975.137 135.883,975.077 135.279,975.077 C134.956,975.077 134.795,974.967 134.795,974.749 C134.795,974.676 134.805,974.613 134.826,974.561 L139.185,965.264 L147.545,965.264 C147.972,965.264 148.313,965.196 148.568,965.061 C148.824,964.926 149.097,964.644 149.389,964.217 L149.748,964.499 L148.232,967.842 C148.128,968.061 147.821,968.17 147.31,968.17 L139.467,968.17 L137.795,971.608 C141.68,972.306 144.571,973.441 146.467,975.014 C148.363,976.587 149.31,978.894 149.31,981.936 C149.31,983.53 149.063,984.946 148.568,986.186 C148.074,987.426 147.446,988.423 146.685,989.178 C145.925,989.933 145.045,990.553 144.045,991.038 C143.045,991.522 142.087,991.853 141.17,992.03 C140.253,992.207 139.326,992.295 138.389,992.295 C136.899,992.295 135.714,992.074 134.834,991.631 C133.954,991.189 133.514,990.582 133.514,989.811 C133.514,988.821 134.087,988.327 135.232,988.327 C135.982,988.327 136.949,988.735 138.131,989.553 C139.313,990.371 140.253,990.78 140.951,990.78 C142.524,990.78 143.844,990.113 144.912,988.78 C145.98,987.446 146.514,985.811 146.514,983.874"/>
<polyline class="BarLine" fill="none" stroke="#000000" stroke-width="4.00" stroke-linejoin="bevel" points="1602.3,1040.73 1602.3,1142.73"/>
<polyline class="BarLine" fill="none" stroke="#000000" stroke-width="4.00" stroke-linejoin="bevel" points="2084.18,565.733 2084.18,667.733"/>
<polyline class="BarLine" fill="none" stroke="#000000" stroke-width="4.00" stroke-linejoin="bevel" points="2185.77,1040.73 2185.77,1142.73"/>
<polyline class="BarLine" fill="none" stroke="#000000" stroke-width="4.00" stroke-linejoin="bevel" points="1384.52,565.733 1384.52,667.733"/>
<polyline class="BarLine" fill="none" stroke="#000000" stroke-width="4.00" stroke-linejoin="bevel" points="2833.47,1040.73 2833.47,1142.73"/>
<polyline class="BarLine" fill="none" stroke="#000000" stroke-width="4.00" stroke-linejoin="bevel" points="635.239,565.733 635.239,667.733"/>
<polyline class="BarLine" fill="none" stroke="#000000" stroke-width="4.00" stroke-linejoin="bevel" points="907.928,1040.73 907.928,1142.73"/>
<polyline class="BarLine" fill="none" stroke="#000000" stroke-width="4.00" stroke-linejoin="bevel" points="483.22,1515.73 483.22,1617.73"/>
<polyline class="BarLine" fill="none" stroke="#000000" stroke-width="4.00" stroke-linejoin="bevel" points="2833.47,565.733 2833.47,667.733"/>
<polyline class="BarLine" fill="none" stroke="#000000" stroke-width="4.00" stroke-linejoin="bevel" points="636.079,1515.73 636.079,1617.73"/>
<polyline class="BarLine" fill="none" stroke="#000000" stroke-width="12.50" stroke-linejoin="bevel" points="662.579,1515.73 662.579,1617.73"/>
<polyline class="LedgerLine" fill="none" stroke="#000000" stroke-width="4.00" stroke-linejoin="bevel" points="276.83,1016.73 330.549,1016.73"/>
<polyline class="LedgerLine" fill="none" stroke="#000000" stroke-width="4.00" stroke-linejoin="bevel" points="1369.01,991.733 1420.92,991.733"/>
<polyline class="LedgerLine" fill="none" stroke="#000000" stroke-width="4.00" stroke-linejoin="bevel" points="1369.01,1016.73 1420.92,1016.73"/>
<polyline class="LedgerLine" fill="none" stroke="#000000" stroke-width="4.00" stroke-linejoin="bevel" points="1147.22,966.733 1199.13,966.733"/>
<polyline class="LedgerLine" fill="none" stroke="#000000" stroke-width="4.00" stroke-linejoin="bevel" points="925.428,991.733 977.342,991.733"/>
<polyline class="LedgerLine" fill="none" stroke="#000000" stroke-width="4.00" stroke-linejoin="bevel" points="1147.22,991.733 1199.13,991.733"/>
<polyline class="LedgerLine" fill="none" stroke="#000000" stroke-width="4.00" stroke-linejoin="bevel" points="1147.22,1016.73 1199.13,1016.73"/>
<polyline class="LedgerLine" fill="none" stroke="#000000" stroke-width="4.00" stroke-linejoin="bevel" points="925.428,941.733 977.342,941.733"/>
<polyline class="LedgerLine" fill="none" stroke="#000000" stroke-width="4.00" stroke-linejoin="bevel" points="276.83,991.733 330.549,991.733"/>
<polyline class="LedgerLine" fill="none" stroke="#000000" stroke-width="4.00" stroke-linejoin="bevel" points="925.428,966.733 977.342,966.733"/>
<polyline class="LedgerLine" fill="none" stroke="#000000" stroke-width="4.00" stroke-linejoin="bevel" points="925.428,1016.73 977.342,1016.73"/>
<polyline class="LedgerLine" fill="none" stroke="#000000" stroke-width="4.00" stroke-linejoin="bevel" points="277.732,1491.73 329.647,1491.73"/>
<polyline class="LedgerLine" fill="none" stroke="#000000" stroke-width="4.00" stroke-linejoin="bevel" points="500.72,1466.73 554.439,1466.73"/>
<polyline class="LedgerLine" fill="none" stroke="#000000" stroke-width="4.00" stroke-linejoin="bevel" points="500.72,1491.73 554.439,1491.73"/>
<polyline class="LedgerLine" fill="none" stroke="#000000" stroke-width="4.00" stroke-linejoin="bevel" points="407.058,1466.73 458.972,1466.73"/>
<polyline class="LedgerLine" fill="none" stroke="#000000" stroke-width="4.00" stroke-linejoin="bevel" points="407.058,1491.73 458.972,1491.73"/>
<polyline class="LedgerLine" fill="none" stroke="#000000" stroke-width="4.00" stroke-linejoin="bevel" points="342.395,1466.73 394.309,1466.73"/>
<polyline class="LedgerLine" fill="none" stroke="#000000" stroke-width="4.00" stroke-linejoin="bevel" points="342.395,1491.73 394.309,1491.73"/>
<polyline class="LedgerLine" fill="none" stroke="#000000" stroke-width="4.00" stroke-linejoin="bevel" points="277.732,1441.73 329.647,1441.73"/>
<polyline class="LedgerLine" fill="none" stroke="#000000" stroke-width="4.00" stroke-linejoin="bevel" points="277.732,1466.73 329.647,1466.73"/>
<polyline class="LedgerLine" fill="none" stroke="#000000" stroke-width="4.00" stroke-linejoin="bevel" points="1619.8,1016.73 1671.71,1016.73"/>
<polyline class="LedgerLine" fill="none" stroke="#000000" stroke-width="4.00" stroke-linejoin="bevel" points="2723.4,966.733 2775.31,966.733"/>
<polyline class="LedgerLine" fill="none" stroke="#000000" stroke-width="4.00" stroke-linejoin="bevel" points="2723.4,991.733 2775.31,991.733"/>
<polyline class="LedgerLine" fill="none" stroke="#000000" stroke-width="4.00" stroke-linejoin="bevel" points="2723.4,1016.73 2775.31,1016.73"/>
<polyline class="LedgerLine" fill="none" stroke="#000000" stroke-width="4.00" stroke-linejoin="bevel" points="2535.96,966.733 2587.87,966.733"/>
<polyline class="LedgerLine" fill="none" stroke="#000000" stroke-width="4.00" stroke-linejoin="bevel" points="2535.96,991.733 2587.87,991.733"/>
<polyline class="LedgerLine" fill="none" stroke="#000000" stroke-width="4.00" stroke-linejoin="bevel" points="2535.96,1016.73 2587.87,1016.73"/>
<polyline class="LedgerLine" fill="none" stroke="#000000" stroke-width="4.00" stroke-linejoin="bevel" points="1840.69,1016.73 1894.4,1016.73"/>
<polyline class="LedgerLine" fill="none" stroke="#000000" stroke-width="4.00" stroke-linejoin="bevel" points="652.739,541.733 704.653,541.733"/>
<polyline class="LedgerLine" fill="none" stroke="#000000" stroke-width="4.00" stroke-linejoin="bevel" points="2101.68,541.733 2153.6,541.733"/>
<polyline class="LedgerLine" fill="none" stroke="#000000" stroke-width="4.00" stroke-linejoin="bevel" points="1132.93,541.733 1184.84,541.733"/>
<polyline class="LedgerLine" fill="none" stroke="#000000" stroke-width="4.00" stroke-linejoin="bevel" points="1132.93,516.733 1184.84,516.733"/>
<polyline class="LedgerLine" fill="none" stroke="#000000" stroke-width="4.00" stroke-linejoin="bevel" points="2581.87,516.733 2633.79,516.733"/>
<polyline class="LedgerLine" fill="none" stroke="#000000" stroke-width="4.00" stroke-linejoin="bevel" points="2581.87,541.733 2633.79,541.733"/>
<polyline class="LedgerLine" fill="none" stroke="#000000" stroke-width="4.00" stroke-linejoin="bevel" points="1402.02,541.733 1455.74,541.733"/>
<polyline class="Stem" fill="none" stroke="#000000" stroke-width="3.25" stroke-linejoin="bevel" points="1413.15,534.133 1413.15,616.733"/>
<polyline class="Stem" fill="none" stroke="#000000" stroke-width="3.25" stroke-linejoin="bevel" points="511.845,1471.63 511.845,1566.73"/>
<polyline class="Stem" fill="none" stroke="#000000" stroke-width="3.25" stroke-linejoin="bevel" points="2006.76,548.363 2006.76,479.233"/>
<polyline class="Stem" fill="none" stroke="#000000" stroke-width="3.25" stroke-linejoin="bevel" points="1630.92,1010.1 1630.92,1091.73"/>
<polyline class="Stem" fill="none" stroke="#000000" stroke-width="3.25" stroke-linejoin="bevel" points="354.912,548.363 354.912,479.233"/>
<polyline class="Stem" fill="none" stroke="#000000" stroke-width="3.25" stroke-linejoin="bevel" points="1851.81,1021.63 1851.81,1104.23"/>
<polyline class="Stem" fill="none" stroke="#000000" stroke-width="3.25" stroke-linejoin="bevel" points="1803.86,548.363 1803.86,479.233"/>
<polyline class="Stem" fill="none" stroke="#000000" stroke-width="3.25" stroke-linejoin="bevel" points="418.183,1460.1 418.183,1566.73"/>
<polyline class="Stem" fill="none" stroke="#000000" stroke-width="3.25" stroke-linejoin="bevel" points="2547.08,960.102 2547.08,1085.48"/>
<polyline class="Stem" fill="none" stroke="#000000" stroke-width="3.25" stroke-linejoin="bevel" points="287.955,996.633 287.955,1091.73"/>
<polyline class="Stem" fill="none" stroke="#000000" stroke-width="3.25" stroke-linejoin="bevel" points="557.82,548.363 557.82,479.233"/>
<polyline class="Stem" fill="none" stroke="#000000" stroke-width="3.25" stroke-linejoin="bevel" points="2734.52,960.102 2734.52,1085.48"/>
<polyline class="Stem" fill="none" stroke="#000000" stroke-width="3.25" stroke-linejoin="bevel" points="1144.05,522.602 1144.05,616.733"/>
<polyline class="Stem" fill="none" stroke="#000000" stroke-width="3.25" stroke-linejoin="bevel" points="933.623,548.363 933.623,491.733"/>
<polyline class="Stem" fill="none" stroke="#000000" stroke-width="3.25" stroke-linejoin="bevel" points="288.857,1447.6 288.857,1566.73"/>
<polyline class="Stem" fill="none" stroke="#000000" stroke-width="3.25" stroke-linejoin="bevel" points="693.528,535.863 693.528,479.233"/>
<polyline class="Stem" fill="none" stroke="#000000" stroke-width="3.25" stroke-linejoin="bevel" points="353.52,1472.6 353.52,1566.73"/>
<polyline class="Stem" fill="none" stroke="#000000" stroke-width="3.25" stroke-linejoin="bevel" points="1380.13,997.602 1380.13,1091.73"/>
<polyline class="Stem" fill="none" stroke="#000000" stroke-width="3.25" stroke-linejoin="bevel" points="2142.47,535.863 2142.47,479.233"/>
<polyline class="Stem" fill="none" stroke="#000000" stroke-width="3.25" stroke-linejoin="bevel" points="936.553,947.602 936.553,1091.73"/>
<polyline class="Stem" fill="none" stroke="#000000" stroke-width="3.25" stroke-linejoin="bevel" points="2593,510.102 2593,616.733"/>
<polyline class="Stem" fill="none" stroke="#000000" stroke-width="3.25" stroke-linejoin="bevel" points="838.644,1023.36 838.644,954.233"/>
<polyline class="Stem" fill="none" stroke="#000000" stroke-width="3.25" stroke-linejoin="bevel" points="1158.34,972.602 1158.34,1091.73"/>
<polyline class="Stem" fill="none" stroke="#000000" stroke-width="3.25" stroke-linejoin="bevel" points="2382.57,548.363 2382.57,491.733"/>
<polyline class="Stem" fill="none" stroke="#000000" stroke-width="3.25" stroke-linejoin="bevel" points="651.206,1023.36 651.206,954.233"/>
<path class="Note" d="M548.499,540.467 C551.624,540.467 554.229,541.248 556.312,542.811 C558.395,544.373 559.437,546.618 559.437,549.545 C559.437,554.035 557.111,558.233 552.46,562.139 C547.809,566.045 542.812,567.998 537.468,567.998 C534.343,567.998 531.708,567.186 529.562,565.561 C527.541,563.8 526.531,561.587 526.531,558.92 C526.531,554.556 528.843,550.389 533.468,546.42 C538.093,542.451 543.104,540.467 548.499,540.467"/>
<path class="Note" d="M641.886,1015.47 C645.011,1015.47 647.615,1016.25 649.698,1017.81 C651.782,1019.37 652.823,1021.62 652.823,1024.55 C652.823,1029.04 650.498,1033.23 645.847,1037.14 C641.196,1041.05 636.198,1043 630.855,1043 C627.73,1043 625.094,1042.19 622.948,1040.56 C620.928,1038.8 619.917,1036.59 619.917,1033.92 C619.917,1029.56 622.23,1025.39 626.855,1021.42 C631.48,1017.45 636.49,1015.47 641.886,1015.47"/>
<path class="Note" d="M924.303,540.467 C927.428,540.467 930.032,541.248 932.115,542.811 C934.199,544.373 935.24,546.618 935.24,549.545 C935.24,554.035 932.915,558.233 928.264,562.139 C923.613,566.045 918.615,567.998 913.272,567.998 C910.147,567.998 907.511,567.186 905.365,565.561 C903.345,563.8 902.334,561.587 902.334,558.92 C902.334,554.556 904.647,550.389 909.272,546.42 C913.897,542.451 918.907,540.467 924.303,540.467"/>
<path class="Note" d="M2754.86,940.467 C2757.99,940.467 2760.59,941.248 2762.68,942.811 C2764.76,944.373 2765.8,946.618 2765.8,949.545 C2765.8,954.035 2763.48,958.233 2758.82,962.139 C2754.17,966.045 2749.18,967.998 2743.83,967.998 C2740.71,967.998 2738.07,967.186 2735.93,965.561 C2733.91,963.801 2732.9,961.587 2732.9,958.92 C2732.9,954.556 2735.21,950.389 2739.83,946.42 C2744.46,942.452 2749.47,940.467 2754.86,940.467"/>
<path class="Note" d="M517.642,1477.37 C519.527,1477.37 523.483,1475.42 529.509,1471.51 C535.535,1467.61 539.085,1464.99 540.158,1463.66 C541.231,1462.32 541.767,1461.13 541.767,1460.09 C541.767,1459.05 541.342,1458.12 540.494,1457.31 C539.645,1456.5 538.668,1456.09 537.564,1456.09 C535.616,1456.09 531.629,1458.06 525.603,1462 C519.577,1465.94 516.043,1468.56 515.001,1469.86 C513.96,1471.16 513.439,1472.33 513.439,1473.37 C513.439,1474.42 513.848,1475.34 514.665,1476.16 C515.483,1476.97 516.475,1477.37 517.642,1477.37 M536.595,1452.97 C542.189,1452.97 544.986,1455.37 544.986,1460.19 C544.986,1462.53 544.303,1465.25 542.939,1468.34 C541.574,1471.44 539.751,1473.8 537.47,1475.42 C532.46,1478.81 526.178,1480.5 518.626,1480.5 C513.022,1480.5 510.22,1478.09 510.22,1473.28 C510.22,1471.13 510.887,1468.46 512.22,1465.27 C513.553,1462.08 515.392,1459.67 517.736,1458.05 C522.757,1454.66 529.043,1452.97 536.595,1452.97"/>
<path class="Note" d="M684.208,527.967 C687.333,527.967 689.937,528.748 692.021,530.311 C694.104,531.873 695.146,534.118 695.146,537.045 C695.146,541.535 692.82,545.733 688.169,549.639 C683.518,553.545 678.521,555.498 673.177,555.498 C670.052,555.498 667.416,554.686 665.271,553.061 C663.25,551.3 662.239,549.087 662.239,546.42 C662.239,542.056 664.552,537.889 669.177,533.92 C673.802,529.951 678.812,527.967 684.208,527.967"/>
<path class="Note" d="M1164.4,502.967 C1167.52,502.967 1170.13,503.748 1172.21,505.311 C1174.29,506.873 1175.34,509.118 1175.34,512.045 C1175.34,516.535 1173.01,520.733 1168.36,524.639 C1163.71,528.545 1158.71,530.498 1153.37,530.498 C1150.24,530.498 1147.61,529.686 1145.46,528.061 C1143.44,526.3 1142.43,524.087 1142.43,521.42 C1142.43,517.056 1144.74,512.889 1149.37,508.92 C1153.99,504.951 1159,502.967 1164.4,502.967"/>
<path class="Note" d="M293.752,1002.37 C295.637,1002.37 299.593,1000.42 305.619,996.514 C311.645,992.608 315.195,989.988 316.268,988.655 C317.341,987.321 317.877,986.134 317.877,985.092 C317.877,984.051 317.453,983.124 316.604,982.311 C315.755,981.499 314.778,981.092 313.674,981.092 C311.726,981.092 307.739,983.061 301.713,986.999 C295.687,990.936 292.153,993.556 291.111,994.858 C290.07,996.16 289.549,997.332 289.549,998.374 C289.549,999.415 289.958,1000.34 290.775,1001.15 C291.593,1001.97 292.585,1002.37 293.752,1002.37 M312.705,977.967 C318.299,977.967 321.096,980.374 321.096,985.186 C321.096,987.53 320.413,990.249 319.049,993.342 C317.684,996.436 315.861,998.795 313.58,1000.42 C308.57,1003.81 302.288,1005.5 294.736,1005.5 C289.132,1005.5 286.33,1003.09 286.33,998.28 C286.33,996.134 286.997,993.465 288.33,990.272 C289.663,987.079 291.502,984.67 293.846,983.045 C298.867,979.66 305.153,977.967 312.705,977.967"/>
<path class="Note" d="M829.324,1015.47 C832.449,1015.47 835.053,1016.25 837.136,1017.81 C839.22,1019.37 840.261,1021.62 840.261,1024.55 C840.261,1029.04 837.936,1033.23 833.285,1037.14 C828.634,1041.05 823.636,1043 818.293,1043 C815.168,1043 812.532,1042.19 810.386,1040.56 C808.365,1038.8 807.355,1036.59 807.355,1033.92 C807.355,1029.56 809.668,1025.39 814.293,1021.42 C818.918,1017.45 823.928,1015.47 829.324,1015.47"/>
<path class="Note" d="M2613.34,490.467 C2616.47,490.467 2619.07,491.248 2621.15,492.811 C2623.24,494.373 2624.28,496.618 2624.28,499.545 C2624.28,504.035 2621.95,508.233 2617.3,512.139 C2612.65,516.045 2607.65,517.998 2602.31,517.998 C2599.19,517.998 2596.55,517.186 2594.4,515.561 C2592.38,513.8 2591.37,511.587 2591.37,508.92 C2591.37,504.556 2593.69,500.389 2598.31,496.42 C2602.94,492.451 2607.95,490.467 2613.34,490.467"/>
<path class="Note" d="M309.201,1427.97 C312.326,1427.97 314.93,1428.75 317.014,1430.31 C319.097,1431.87 320.139,1434.12 320.139,1437.05 C320.139,1441.54 317.813,1445.73 313.162,1449.64 C308.511,1453.55 303.514,1455.5 298.17,1455.5 C295.045,1455.5 292.41,1454.69 290.264,1453.06 C288.243,1451.3 287.232,1449.09 287.232,1446.42 C287.232,1442.06 289.545,1437.89 294.17,1433.92 C298.795,1429.95 303.805,1427.97 309.201,1427.97"/>
<path class="Note" d="M2567.43,940.467 C2570.55,940.467 2573.16,941.248 2575.24,942.811 C2577.32,944.373 2578.36,946.618 2578.36,949.545 C2578.36,954.035 2576.04,958.233 2571.39,962.139 C2566.74,966.045 2561.74,967.998 2556.39,967.998 C2553.27,967.998 2550.63,967.186 2548.49,965.561 C2546.47,963.801 2545.46,961.587 2545.46,958.92 C2545.46,954.556 2547.77,950.389 2552.39,946.42 C2557.02,942.452 2562.03,940.467 2567.43,940.467"/>
<path class="Note" d="M1857.61,1027.37 C1859.49,1027.37 1863.45,1025.42 1869.47,1021.51 C1875.5,1017.61 1879.05,1014.99 1880.12,1013.65 C1881.2,1012.32 1881.73,1011.13 1881.73,1010.09 C1881.73,1009.05 1881.31,1008.12 1880.46,1007.31 C1879.61,1006.5 1878.63,1006.09 1877.53,1006.09 C1875.58,1006.09 1871.59,1008.06 1865.57,1012 C1859.54,1015.94 1856.01,1018.56 1854.97,1019.86 C1853.92,1021.16 1853.4,1022.33 1853.4,1023.37 C1853.4,1024.42 1853.81,1025.34 1854.63,1026.15 C1855.45,1026.97 1856.44,1027.37 1857.61,1027.37 M1876.56,1002.97 C1882.15,1002.97 1884.95,1005.37 1884.95,1010.19 C1884.95,1012.53 1884.27,1015.25 1882.9,1018.34 C1881.54,1021.44 1879.72,1023.8 1877.44,1025.42 C1872.42,1028.81 1866.14,1030.5 1858.59,1030.5 C1852.99,1030.5 1850.19,1028.09 1850.19,1023.28 C1850.19,1021.13 1850.85,1018.46 1852.19,1015.27 C1853.52,1012.08 1855.36,1009.67 1857.7,1008.05 C1862.72,1004.66 1869.01,1002.97 1876.56,1002.97"/>
<path class="Note" d="M1400.48,977.967 C1403.6,977.967 1406.21,978.749 1408.29,980.311 C1410.37,981.874 1411.41,984.118 1411.41,987.045 C1411.41,991.535 1409.09,995.733 1404.44,999.639 C1399.79,1003.55 1394.79,1005.5 1389.45,1005.5 C1386.32,1005.5 1383.69,1004.69 1381.54,1003.06 C1379.52,1001.3 1378.51,999.087 1378.51,996.42 C1378.51,992.056 1380.82,987.889 1385.45,983.92 C1390.07,979.952 1395.08,977.967 1400.48,977.967"/>
<path class="Note" d="M1997.44,540.467 C2000.57,540.467 2003.17,541.248 2005.26,542.811 C2007.34,544.373 2008.38,546.618 2008.38,549.545 C2008.38,554.035 2006.06,558.233 2001.41,562.139 C1996.75,566.045 1991.76,567.998 1986.41,567.998 C1983.29,567.998 1980.65,567.186 1978.51,565.561 C1976.49,563.8 1975.48,561.587 1975.48,558.92 C1975.48,554.556 1977.79,550.389 1982.41,546.42 C1987.04,542.451 1992.05,540.467 1997.44,540.467"/>
<path class="Note" d="M1178.69,952.967 C1181.81,952.967 1184.42,953.749 1186.5,955.311 C1188.58,956.874 1189.62,959.118 1189.62,962.045 C1189.62,966.535 1187.3,970.733 1182.65,974.639 C1178,978.545 1173,980.499 1167.66,980.499 C1164.53,980.499 1161.9,979.686 1159.75,978.061 C1157.73,976.301 1156.72,974.087 1156.72,971.42 C1156.72,967.056 1159.03,962.889 1163.66,958.92 C1168.28,954.952 1173.29,952.967 1178.69,952.967"/>
<path class="Note" d="M2133.15,527.967 C2136.28,527.967 2138.88,528.748 2140.97,530.311 C2143.05,531.873 2144.09,534.118 2144.09,537.045 C2144.09,541.535 2141.76,545.733 2137.11,549.639 C2132.46,553.545 2127.47,555.498 2122.12,555.498 C2119,555.498 2116.36,554.686 2114.22,553.061 C2112.19,551.3 2111.18,549.087 2111.18,546.42 C2111.18,542.056 2113.5,537.889 2118.12,533.92 C2122.75,529.951 2127.76,527.967 2133.15,527.967"/>
<path class="Note" d="M1651.27,990.467 C1654.39,990.467 1657,991.249 1659.08,992.811 C1661.16,994.374 1662.2,996.618 1662.2,999.545 C1662.2,1004.03 1659.88,1008.23 1655.23,1012.14 C1650.58,1016.05 1645.58,1018 1640.24,1018 C1637.11,1018 1634.47,1017.19 1632.33,1015.56 C1630.31,1013.8 1629.3,1011.59 1629.3,1008.92 C1629.3,1004.56 1631.61,1000.39 1636.24,996.42 C1640.86,992.452 1645.87,990.467 1651.27,990.467"/>
<path class="Note" d="M345.592,540.467 C348.717,540.467 351.321,541.248 353.404,542.811 C355.488,544.373 356.529,546.618 356.529,549.545 C356.529,554.035 354.204,558.233 349.553,562.139 C344.902,566.045 339.904,567.998 334.561,567.998 C331.436,567.998 328.8,567.186 326.654,565.561 C324.634,563.8 323.623,561.587 323.623,558.92 C323.623,554.556 325.936,550.389 330.561,546.42 C335.186,542.451 340.196,540.467 345.592,540.467"/>
<path class="Note" d="M1794.54,540.467 C1797.66,540.467 1800.27,541.248 1802.35,542.811 C1804.43,544.373 1805.47,546.618 1805.47,549.545 C1805.47,554.035 1803.15,558.233 1798.5,562.139 C1793.85,566.045 1788.85,567.998 1783.51,567.998 C1780.38,567.998 1777.75,567.186 1775.6,565.561 C1773.58,563.8 1772.57,561.587 1772.57,558.92 C1772.57,554.556 1774.88,550.389 1779.51,546.42 C1784.13,542.451 1789.14,540.467 1794.54,540.467"/>
<path class="Note" d="M438.526,1440.47 C441.651,1440.47 444.255,1441.25 446.339,1442.81 C448.422,1444.37 449.464,1446.62 449.464,1449.55 C449.464,1454.04 447.138,1458.23 442.487,1462.14 C437.836,1466.05 432.839,1468 427.495,1468 C424.37,1468 421.735,1467.19 419.589,1465.56 C417.568,1463.8 416.558,1461.59 416.558,1458.92 C416.558,1454.56 418.87,1450.39 423.495,1446.42 C428.12,1442.45 433.13,1440.47 438.526,1440.47"/>
<path class="Note" d="M956.897,927.967 C960.022,927.967 962.626,928.748 964.71,930.311 C966.793,931.873 967.835,934.118 967.835,937.045 C967.835,941.535 965.509,945.733 960.858,949.639 C956.207,953.545 951.21,955.498 945.866,955.498 C942.741,955.498 940.105,954.686 937.96,953.061 C935.939,951.301 934.928,949.087 934.928,946.42 C934.928,942.056 937.241,937.889 941.866,933.92 C946.491,929.952 951.501,927.967 956.897,927.967"/>
<path class="Note" d="M2373.25,540.467 C2376.37,540.467 2378.98,541.248 2381.06,542.811 C2383.14,544.373 2384.19,546.618 2384.19,549.545 C2384.19,554.035 2381.86,558.233 2377.21,562.139 C2372.56,566.045 2367.56,567.998 2362.22,567.998 C2359.09,567.998 2356.46,567.186 2354.31,565.561 C2352.29,563.8 2351.28,561.587 2351.28,558.92 C2351.28,554.556 2353.59,550.389 2358.22,546.42 C2362.84,542.451 2367.85,540.467 2373.25,540.467"/>
<path class="Note" d="M1418.95,539.873 C1420.83,539.873 1424.79,537.92 1430.81,534.014 C1436.84,530.108 1440.39,527.488 1441.46,526.154 C1442.53,524.821 1443.07,523.634 1443.07,522.592 C1443.07,521.55 1442.65,520.623 1441.8,519.811 C1440.95,518.998 1439.97,518.592 1438.87,518.592 C1436.92,518.592 1432.93,520.561 1426.91,524.498 C1420.88,528.436 1417.35,531.056 1416.3,532.358 C1415.26,533.66 1414.74,534.832 1414.74,535.873 C1414.74,536.915 1415.15,537.842 1415.97,538.654 C1416.79,539.467 1417.78,539.873 1418.95,539.873 M1437.9,515.467 C1443.49,515.467 1446.29,517.873 1446.29,522.686 C1446.29,525.029 1445.61,527.748 1444.24,530.842 C1442.88,533.936 1441.05,536.295 1438.77,537.92 C1433.76,541.306 1427.48,542.998 1419.93,542.998 C1414.33,542.998 1411.52,540.592 1411.52,535.779 C1411.52,533.634 1412.19,530.964 1413.52,527.772 C1414.86,524.579 1416.7,522.17 1419.04,520.545 C1424.06,517.16 1430.35,515.467 1437.9,515.467"/>
<path class="Note" d="M373.864,1452.97 C376.989,1452.97 379.593,1453.75 381.676,1455.31 C383.76,1456.87 384.801,1459.12 384.801,1462.05 C384.801,1466.54 382.476,1470.73 377.825,1474.64 C373.174,1478.55 368.176,1480.5 362.832,1480.5 C359.707,1480.5 357.072,1479.69 354.926,1478.06 C352.905,1476.3 351.895,1474.09 351.895,1471.42 C351.895,1467.06 354.207,1462.89 358.832,1458.92 C363.457,1454.95 368.468,1452.97 373.864,1452.97"/>
<path class="Clef" d="M203.623,673.858 L203.623,671.717 C203.56,670.613 203.399,668.889 203.139,666.545 C199.889,667.066 196.993,667.326 194.451,667.326 C185.337,667.326 177.605,663.727 171.256,656.53 C164.907,649.332 161.732,640.754 161.732,630.795 C161.732,628.129 162.253,624.923 163.295,621.178 C164.337,617.433 165.297,614.925 166.178,613.655 C167.058,612.384 168.378,610.155 170.139,606.967 C170.659,605.988 172.352,603.837 175.217,600.514 C175.738,599.806 176.193,599.222 176.584,598.764 C176.975,598.306 177.607,597.49 178.482,596.319 C179.357,595.147 180.3,594.056 181.31,593.045 C182.321,592.035 183.217,591.058 183.998,590.115 C184.779,589.173 185.498,588.379 186.154,587.733 C183.81,579.983 182.378,574.024 181.857,569.858 C181.337,565.691 181.076,560.579 181.076,554.522 C181.076,548.464 182.378,542.962 184.982,538.014 C187.514,532.879 191.06,528.681 195.623,525.42 C195.883,525.222 196.225,525.123 196.646,525.123 C197.068,525.123 197.378,525.222 197.576,525.42 C201.087,529.649 204.128,535.149 206.701,541.92 C209.274,548.691 210.56,555.024 210.56,560.92 C210.56,566.816 209.066,572.498 206.076,577.967 C202.691,583.759 198.326,589.748 192.982,595.936 C194.347,600.227 196.17,606.962 198.451,616.139 L199.045,616.139 C199.305,616.076 199.529,616.045 199.717,616.045 C207.081,616.045 213.089,618.634 217.74,623.811 C222.391,628.988 224.717,634.962 224.717,641.733 C224.717,650.129 221.238,656.899 214.279,662.045 C212.258,663.545 209.878,664.717 207.139,665.561 C207.472,669.79 207.639,672.605 207.639,674.006 C207.639,675.407 207.571,677.899 207.435,681.483 C207.373,687.597 205.29,692.837 201.185,697.201 C197.081,701.566 192.394,703.748 187.123,703.748 C181.852,703.748 177.36,701.876 173.646,698.131 C169.933,694.386 168.076,689.847 168.076,684.514 C168.076,681.712 169.154,679.332 171.31,677.373 C173.519,675.425 176.006,674.451 178.771,674.451 C181.537,674.451 183.8,675.462 185.56,677.483 C187.383,679.368 188.295,681.644 188.295,684.311 C188.295,686.977 187.383,689.222 185.56,691.045 C183.738,692.868 181.555,693.78 179.014,693.78 C177.972,693.78 176.967,693.587 175.998,693.201 C178.863,697.431 182.54,699.545 187.029,699.545 C191.519,699.545 195.36,697.691 198.553,693.983 C201.745,690.274 203.342,685.91 203.342,680.889 L203.623,673.858 M206.748,661.561 C210.133,660.321 212.821,658.123 214.81,654.967 C216.8,651.811 217.795,648.67 217.795,645.545 C217.795,640.92 216.199,636.785 213.006,633.139 C209.813,629.493 205.774,627.441 200.889,626.983 C203.691,640.722 205.644,652.248 206.748,661.561 M168.967,638.998 C168.967,645.446 171.537,651.079 176.678,655.897 C181.818,660.714 187.842,663.123 194.748,663.123 C197.477,663.123 200.144,662.925 202.748,662.53 C201.706,652.634 199.654,640.785 196.592,626.983 C192.758,627.379 189.782,628.699 187.662,630.944 C185.542,633.188 184.482,635.743 184.482,638.608 C184.482,643.556 187.123,647.561 192.404,650.623 C192.852,650.884 193.076,651.324 193.076,651.944 C193.076,652.563 192.865,653.1 192.443,653.553 C192.021,654.006 191.649,654.233 191.326,654.233 C191.003,654.233 190.581,654.17 190.06,654.045 C182.435,649.879 178.623,643.592 178.623,635.186 C178.623,631.217 180.024,627.41 182.826,623.764 C185.753,620.118 189.56,617.774 194.248,616.733 C192.425,609.441 190.93,603.743 189.764,599.639 C180.847,609.67 175.31,617.092 173.154,621.905 C170.363,628.155 168.967,633.852 168.967,638.998 M201.576,539.686 C196.691,542.092 192.834,545.574 190.006,550.131 C187.178,554.688 185.764,559.472 185.764,564.483 C185.764,569.493 186.935,575.972 189.279,583.92 C193.967,578.254 197.514,572.946 199.92,567.998 C202.326,563.05 203.529,558.152 203.529,553.303 C203.529,548.454 202.878,543.915 201.576,539.686"/>
<path class="Clef" d="M203.623,1623.86 L203.623,1621.72 C203.56,1620.61 203.399,1618.89 203.139,1616.55 C199.889,1617.07 196.993,1617.33 194.451,1617.33 C185.337,1617.33 177.605,1613.73 171.256,1606.53 C164.907,1599.33 161.732,1590.75 161.732,1580.8 C161.732,1578.13 162.253,1574.92 163.295,1571.18 C164.337,1567.43 165.297,1564.93 166.178,1563.66 C167.058,1562.38 168.378,1560.16 170.139,1556.97 C170.659,1555.99 172.352,1553.84 175.217,1550.51 C175.738,1549.81 176.193,1549.22 176.584,1548.76 C176.975,1548.31 177.607,1547.49 178.482,1546.32 C179.357,1545.15 180.3,1544.06 181.31,1543.05 C182.321,1542.04 183.217,1541.06 183.998,1540.12 C184.779,1539.17 185.498,1538.38 186.154,1537.73 C183.81,1529.98 182.378,1524.02 181.857,1519.86 C181.337,1515.69 181.076,1510.58 181.076,1504.52 C181.076,1498.47 182.378,1492.96 184.982,1488.01 C187.514,1482.88 191.06,1478.68 195.623,1475.42 C195.883,1475.22 196.225,1475.12 196.646,1475.12 C197.068,1475.12 197.378,1475.22 197.576,1475.42 C201.087,1479.65 204.128,1485.15 206.701,1491.92 C209.274,1498.69 210.56,1505.02 210.56,1510.92 C210.56,1516.82 209.066,1522.5 206.076,1527.97 C202.691,1533.76 198.326,1539.75 192.982,1545.94 C194.347,1550.23 196.17,1556.96 198.451,1566.14 L199.045,1566.14 C199.305,1566.08 199.529,1566.05 199.717,1566.05 C207.081,1566.05 213.089,1568.63 217.74,1573.81 C222.391,1578.99 224.717,1584.96 224.717,1591.73 C224.717,1600.13 221.238,1606.9 214.279,1612.05 C212.258,1613.55 209.878,1614.72 207.139,1615.56 C207.472,1619.79 207.639,1622.61 207.639,1624.01 C207.639,1625.41 207.571,1627.9 207.435,1631.48 C207.373,1637.6 205.29,1642.84 201.185,1647.2 C197.081,1651.57 192.394,1653.75 187.123,1653.75 C181.852,1653.75 177.36,1651.88 173.646,1648.13 C169.933,1644.39 168.076,1639.85 168.076,1634.51 C168.076,1631.71 169.154,1629.33 171.31,1627.37 C173.519,1625.43 176.006,1624.45 178.771,1624.45 C181.537,1624.45 183.8,1625.46 185.56,1627.48 C187.383,1629.37 188.295,1631.64 188.295,1634.31 C188.295,1636.98 187.383,1639.22 185.56,1641.05 C183.738,1642.87 181.555,1643.78 179.014,1643.78 C177.972,1643.78 176.967,1643.59 175.998,1643.2 C178.863,1647.43 182.54,1649.55 187.029,1649.55 C191.519,1649.55 195.36,1647.69 198.553,1643.98 C201.745,1640.27 203.342,1635.91 203.342,1630.89 L203.623,1623.86 M206.748,1611.56 C210.133,1610.32 212.821,1608.12 214.81,1604.97 C216.8,1601.81 217.795,1598.67 217.795,1595.55 C217.795,1590.92 216.199,1586.79 213.006,1583.14 C209.813,1579.49 205.774,1577.44 200.889,1576.98 C203.691,1590.72 205.644,1602.25 206.748,1611.56 M168.967,1589 C168.967,1595.45 171.537,1601.08 176.678,1605.9 C181.818,1610.72 187.842,1613.12 194.748,1613.12 C197.477,1613.12 200.144,1612.93 202.748,1612.53 C201.706,1602.63 199.654,1590.79 196.592,1576.98 C192.758,1577.38 189.782,1578.7 187.662,1580.94 C185.542,1583.19 184.482,1585.74 184.482,1588.61 C184.482,1593.56 187.123,1597.56 192.404,1600.62 C192.852,1600.88 193.076,1601.32 193.076,1601.94 C193.076,1602.56 192.865,1603.1 192.443,1603.55 C192.021,1604.01 191.649,1604.23 191.326,1604.23 C191.003,1604.23 190.581,1604.17 190.06,1604.05 C182.435,1599.88 178.623,1593.59 178.623,1585.19 C178.623,1581.22 180.024,1577.41 182.826,1573.76 C185.753,1570.12 189.56,1567.77 194.248,1566.73 C192.425,1559.44 190.93,1553.74 189.764,1549.64 C180.847,1559.67 175.31,1567.09 173.154,1571.91 C170.363,1578.16 168.967,1583.85 168.967,1589 M201.576,1489.69 C196.691,1492.09 192.834,1495.57 190.006,1500.13 C187.178,1504.69 185.764,1509.47 185.764,1514.48 C185.764,1519.49 186.935,1525.97 189.279,1533.92 C193.967,1528.25 197.514,1522.95 199.92,1518 C202.326,1513.05 203.529,1508.15 203.529,1503.3 C203.529,1498.45 202.878,1493.92 201.576,1489.69"/>
<path class="Clef" d="M203.623,1148.86 L203.623,1146.72 C203.56,1145.61 203.399,1143.89 203.139,1141.55 C199.889,1142.07 196.993,1142.33 194.451,1142.33 C185.337,1142.33 177.605,1138.73 171.256,1131.53 C164.907,1124.33 161.732,1115.75 161.732,1105.8 C161.732,1103.13 162.253,1099.92 163.295,1096.18 C164.337,1092.43 165.297,1089.93 166.178,1088.65 C167.058,1087.38 168.378,1085.15 170.139,1081.97 C170.659,1080.99 172.352,1078.84 175.217,1075.51 C175.738,1074.81 176.193,1074.22 176.584,1073.76 C176.975,1073.31 177.607,1072.49 178.482,1071.32 C179.357,1070.15 180.3,1069.06 181.31,1068.05 C182.321,1067.04 183.217,1066.06 183.998,1065.12 C184.779,1064.17 185.498,1063.38 186.154,1062.73 C183.81,1054.98 182.378,1049.02 181.857,1044.86 C181.337,1040.69 181.076,1035.58 181.076,1029.52 C181.076,1023.46 182.378,1017.96 184.982,1013.01 C187.514,1007.88 191.06,1003.68 195.623,1000.42 C195.883,1000.22 196.225,1000.12 196.646,1000.12 C197.068,1000.12 197.378,1000.22 197.576,1000.42 C201.087,1004.65 204.128,1010.15 206.701,1016.92 C209.274,1023.69 210.56,1030.02 210.56,1035.92 C210.56,1041.82 209.066,1047.5 206.076,1052.97 C202.691,1058.76 198.326,1064.75 192.982,1070.94 C194.347,1075.23 196.17,1081.96 198.451,1091.14 L199.045,1091.14 C199.305,1091.08 199.529,1091.05 199.717,1091.05 C207.081,1091.05 213.089,1093.63 217.74,1098.81 C222.391,1103.99 224.717,1109.96 224.717,1116.73 C224.717,1125.13 221.238,1131.9 214.279,1137.05 C212.258,1138.55 209.878,1139.72 207.139,1140.56 C207.472,1144.79 207.639,1147.61 207.639,1149.01 C207.639,1150.41 207.571,1152.9 207.435,1156.48 C207.373,1162.6 205.29,1167.84 201.185,1172.2 C197.081,1176.57 192.394,1178.75 187.123,1178.75 C181.852,1178.75 177.36,1176.88 173.646,1173.13 C169.933,1169.39 168.076,1164.85 168.076,1159.51 C168.076,1156.71 169.154,1154.33 171.31,1152.37 C173.519,1150.43 176.006,1149.45 178.771,1149.45 C181.537,1149.45 183.8,1150.46 185.56,1152.48 C187.383,1154.37 188.295,1156.64 188.295,1159.31 C188.295,1161.98 187.383,1164.22 185.56,1166.05 C183.738,1167.87 181.555,1168.78 179.014,1168.78 C177.972,1168.78 176.967,1168.59 175.998,1168.2 C178.863,1172.43 182.54,1174.55 187.029,1174.55 C191.519,1174.55 195.36,1172.69 198.553,1168.98 C201.745,1165.27 203.342,1160.91 203.342,1155.89 L203.623,1148.86 M206.748,1136.56 C210.133,1135.32 212.821,1133.12 214.81,1129.97 C216.8,1126.81 217.795,1123.67 217.795,1120.55 C217.795,1115.92 216.199,1111.79 213.006,1108.14 C209.813,1104.49 205.774,1102.44 200.889,1101.98 C203.691,1115.72 205.644,1127.25 206.748,1136.56 M168.967,1114 C168.967,1120.45 171.537,1126.08 176.678,1130.9 C181.818,1135.71 187.842,1138.12 194.748,1138.12 C197.477,1138.12 200.144,1137.93 202.748,1137.53 C201.706,1127.63 199.654,1115.79 196.592,1101.98 C192.758,1102.38 189.782,1103.7 187.662,1105.94 C185.542,1108.19 184.482,1110.74 184.482,1113.61 C184.482,1118.56 187.123,1122.56 192.404,1125.62 C192.852,1125.88 193.076,1126.32 193.076,1126.94 C193.076,1127.56 192.865,1128.1 192.443,1128.55 C192.021,1129.01 191.649,1129.23 191.326,1129.23 C191.003,1129.23 190.581,1129.17 190.06,1129.05 C182.435,1124.88 178.623,1118.59 178.623,1110.19 C178.623,1106.22 180.024,1102.41 182.826,1098.76 C185.753,1095.12 189.56,1092.77 194.248,1091.73 C192.425,1084.44 190.93,1078.74 189.764,1074.64 C180.847,1084.67 175.31,1092.09 173.154,1096.9 C170.363,1103.15 168.967,1108.85 168.967,1114 M201.576,1014.69 C196.691,1017.09 192.834,1020.57 190.006,1025.13 C187.178,1029.69 185.764,1034.47 185.764,1039.48 C185.764,1044.49 186.935,1050.97 189.279,1058.92 C193.967,1053.25 197.514,1047.95 199.92,1043 C202.326,1038.05 203.529,1033.15 203.529,1028.3 C203.529,1023.45 202.878,1018.92 201.576,1014.69"/>
<path class="TimeSig" d="M268.686,614.389 C272.852,614.389 274.936,610.514 274.936,602.764 L274.936,601.108 C274.936,599.222 274.87,597.644 274.74,596.373 C274.61,595.102 274.17,594.011 273.42,593.1 C272.67,592.188 271.514,591.733 269.951,591.733 L261.936,591.733 C261.029,591.733 260.576,591.277 260.576,590.365 C260.576,589.454 261.029,588.931 261.936,588.795 L269.951,588.795 C271.774,588.795 273.042,588.274 273.756,587.233 C274.469,586.191 274.863,584.498 274.936,582.155 L274.936,578.155 C274.936,572.102 272.722,569.076 268.295,569.076 C264.316,569.076 262.326,570.149 262.326,572.295 C262.326,573.014 262.93,573.795 264.139,574.639 C265.347,575.483 265.951,576.264 265.951,576.983 C265.951,578.608 265.381,579.99 264.24,581.131 C263.1,582.272 261.732,582.842 260.139,582.842 C258.545,582.842 257.193,582.256 256.084,581.084 C254.975,579.912 254.42,578.545 254.42,576.983 C254.42,573.92 255.79,571.415 258.529,569.467 C261.394,567.644 264.956,566.733 269.217,566.733 C273.477,566.733 277.204,567.66 280.396,569.514 C283.589,571.368 285.186,574.248 285.186,578.155 C285.186,580.957 284.891,583.089 284.303,584.553 C283.714,586.016 283.066,586.91 282.357,587.233 C280.462,588.014 279.514,589.024 279.514,590.264 C279.514,591.108 280.686,592.316 283.029,593.889 C283.811,594.337 284.592,595.36 285.373,596.959 C286.154,598.558 286.545,600.493 286.545,602.764 C286.545,607.264 284.87,610.717 281.521,613.123 C278.173,615.53 274.136,616.733 269.412,616.733 C264.688,616.733 260.863,615.691 257.936,613.608 C254.811,611.66 253.248,608.925 253.248,605.405 C253.248,603.717 253.899,602.155 255.201,600.717 C256.566,599.477 258.144,598.858 259.936,598.858 C261.727,598.858 263.212,599.509 264.389,600.811 C265.691,602.05 266.342,603.582 266.342,605.405 C266.342,606.248 265.691,607.16 264.389,608.139 C263.014,609.056 262.326,610.035 262.326,611.076 C262.326,612.118 262.946,612.931 264.186,613.514 C265.425,614.097 266.925,614.389 268.686,614.389"/>
<path class="TimeSig" d="M273.021,618.084 C274.516,618.084 275.949,617.858 277.318,617.405 C278.688,616.951 279.665,616.725 280.248,616.725 C280.831,616.725 281.222,617.079 281.42,617.787 C281.42,617.86 281.352,618.058 281.217,618.381 L252.811,651.397 L269.498,651.397 L269.498,638.303 C269.498,636.678 270.446,635.506 272.342,634.787 C274.29,634.069 276.503,631.173 278.982,626.1 C279.17,625.704 279.462,625.506 279.857,625.506 C280.639,625.506 281.092,625.964 281.217,626.881 L281.217,651.397 L288.357,651.397 C289.264,651.397 289.751,651.884 289.818,652.858 C289.886,653.832 289.399,654.319 288.357,654.319 L281.217,654.319 L281.217,655.1 C281.217,657.704 281.868,659.918 283.17,661.74 C284.67,663.563 286.43,664.475 288.451,664.475 C289.232,664.475 289.623,664.865 289.623,665.647 C289.623,666.428 289.087,666.819 288.014,666.819 C286.941,666.819 284.938,666.608 282.006,666.186 C279.074,665.764 276.811,665.553 275.217,665.553 C273.623,665.553 271.41,665.764 268.576,666.186 C265.743,666.608 263.613,666.819 262.186,666.819 C261.404,666.819 261.014,666.428 261.014,665.647 C261.014,664.865 261.404,664.475 262.186,664.475 C264.196,664.475 265.951,663.563 267.451,661.74 C268.816,659.855 269.498,657.642 269.498,655.1 L269.498,654.319 L252.811,654.319 C251.956,654.319 251.219,654.092 250.6,653.639 C249.98,653.186 249.67,652.764 249.67,652.373 C249.67,651.983 250.485,650.811 252.115,648.858 C253.745,646.905 256.074,643.144 259.1,637.576 C262.126,632.009 263.639,625.61 263.639,618.381 C263.639,617.339 264.097,616.819 265.014,616.819 C265.212,616.819 265.521,616.884 265.943,617.014 C266.365,617.144 267.277,617.355 268.678,617.647 C270.079,617.938 271.527,618.084 273.021,618.084"/>
<path class="Rest" d="M2249.3,1091.73 L2213.76,1091.73 C2213.1,1091.73 2212.77,1091.4 2212.77,1090.75 L2212.77,1077.08 C2212.77,1076.43 2213.1,1076.11 2213.76,1076.11 L2249.3,1076.11 C2249.95,1076.11 2250.27,1076.43 2250.27,1077.08 L2250.27,1090.75 C2250.27,1091.4 2249.95,1091.73 2249.3,1091.73"/>
<path class="Beam" fill-rule="evenodd" d="M2545.46,1079.23 L2736.15,1079.23 L2736.15,1091.73 L2545.46,1091.73 L2545.46,1079.23 "/>
<path class="Beam" fill-rule="evenodd" d="M2736.15,1060.48 L2703.15,1060.48 L2703.15,1072.98 L2736.15,1072.98 L2736.15,1060.48 "/>
<path class="Beam" fill-rule="evenodd" d="M353.287,472.983 L559.445,472.983 L559.445,485.483 L353.287,485.483 L353.287,472.983 "/>
<path class="Beam" fill-rule="evenodd" d="M559.445,491.733 L526.445,491.733 L526.445,504.233 L559.445,504.233 L559.445,491.733 "/>
<path class="Beam" fill-rule="evenodd" d="M1802.23,472.983 L2008.39,472.983 L2008.39,485.483 L1802.23,485.483 L1802.23,472.983 "/>
<path class="Beam" fill-rule="evenodd" d="M2008.39,491.733 L1975.39,491.733 L1975.39,504.233 L2008.39,504.233 L2008.39,491.733 "/>
<path class="Beam" fill-rule="evenodd" d="M649.581,947.983 L840.269,947.983 L840.269,960.483 L649.581,960.483 L649.581,947.983 "/>
<path class="Beam" fill-rule="evenodd" d="M840.269,966.733 L807.269,966.733 L807.269,979.233 L840.269,979.233 L840.269,966.733 "/>
<path class="NoteDot" d="M2588.79,958.241 C2587.68,957.131 2587.12,955.795 2587.12,954.233 C2587.12,952.67 2587.68,951.334 2588.79,950.225 C2589.89,949.116 2591.23,948.561 2592.79,948.561 C2594.36,948.561 2595.69,949.116 2596.79,950.225 C2597.9,951.334 2598.45,952.67 2598.45,954.233 C2598.45,955.795 2597.9,957.131 2596.79,958.241 C2595.69,959.35 2594.36,959.905 2592.79,959.905 C2591.23,959.905 2589.89,959.35 2588.79,958.241"/>
<path class="NoteDot" d="M366.951,558.24 C365.842,557.131 365.287,555.795 365.287,554.233 C365.287,552.67 365.842,551.334 366.951,550.225 C368.061,549.115 369.397,548.561 370.959,548.561 C372.522,548.561 373.855,549.115 374.959,550.225 C376.063,551.334 376.615,552.67 376.615,554.233 C376.615,555.795 376.063,557.131 374.959,558.24 C373.855,559.35 372.522,559.904 370.959,559.904 C369.397,559.904 368.061,559.35 366.951,558.24"/>
<path class="NoteDot" d="M1815.9,558.24 C1814.79,557.131 1814.23,555.795 1814.23,554.233 C1814.23,552.67 1814.79,551.334 1815.9,550.225 C1817.01,549.115 1818.34,548.561 1819.9,548.561 C1821.47,548.561 1822.8,549.115 1823.9,550.225 C1825.01,551.334 1825.56,552.67 1825.56,554.233 C1825.56,555.795 1825.01,557.131 1823.9,558.24 C1822.8,559.35 1821.47,559.904 1819.9,559.904 C1818.34,559.904 1817.01,559.35 1815.9,558.24"/>
<path class="NoteDot" d="M555.353,1458.24 C554.244,1457.13 553.689,1455.8 553.689,1454.23 C553.689,1452.67 554.244,1451.33 555.353,1450.23 C556.462,1449.12 557.798,1448.56 559.361,1448.56 C560.923,1448.56 562.257,1449.12 563.361,1450.23 C564.465,1451.33 565.017,1452.67 565.017,1454.23 C565.017,1455.8 564.465,1457.13 563.361,1458.24 C562.257,1459.35 560.923,1459.91 559.361,1459.91 C557.798,1459.91 556.462,1459.35 555.353,1458.24"/>
<path class="NoteDot" d="M663.245,1033.24 C662.136,1032.13 661.581,1030.8 661.581,1029.23 C661.581,1027.67 662.136,1026.33 663.245,1025.23 C664.355,1024.12 665.691,1023.56 667.253,1023.56 C668.816,1023.56 670.149,1024.12 671.253,1025.23 C672.357,1026.33 672.909,1027.67 672.909,1029.23 C672.909,1030.8 672.357,1032.13 671.253,1033.24 C670.149,1034.35 668.816,1034.9 667.253,1034.9 C665.691,1034.9 664.355,1034.35 663.245,1033.24"/>
<path class="Page" d="M1390.23,3976.58 C1390.23,3977.27 1390.15,3977.93 1389.99,3978.56 C1389.83,3979.19 1389.52,3979.86 1389.05,3980.57 C1388.58,3981.29 1387.96,3981.9 1387.19,3982.41 C1386.42,3982.92 1385.36,3983.35 1384.03,3983.69 C1382.7,3984.04 1381.15,3984.21 1379.39,3984.21 C1378.59,3984.21 1377.67,3984.17 1376.63,3984.08 L1376.63,3991.41 C1376.63,3992.89 1376.86,3993.85 1377.33,3994.29 C1377.8,3994.74 1378.82,3994.98 1380.39,3995.04 L1380.39,3995.8 L1369.19,3995.8 L1369.19,3995.04 C1370.71,3994.91 1371.65,3994.63 1372.01,3994.18 C1372.37,3993.74 1372.55,3992.68 1372.55,3991 L1372.55,3973.69 C1372.55,3972.24 1372.36,3971.32 1371.99,3970.93 C1371.62,3970.53 1370.69,3970.25 1369.19,3970.08 L1369.19,3969.33 L1379.75,3969.33 C1380.95,3969.33 1382.11,3969.44 1383.23,3969.67 C1384.35,3969.89 1385.46,3970.26 1386.57,3970.77 C1387.68,3971.28 1388.57,3972.03 1389.23,3973.02 C1389.9,3974.01 1390.23,3975.2 1390.23,3976.58 M1376.63,3972.21 L1376.63,3982.57 C1377.56,3982.64 1378.32,3982.68 1378.91,3982.68 C1383.55,3982.68 1385.88,3980.72 1385.88,3976.82 C1385.88,3974.78 1385.23,3973.27 1383.95,3972.3 C1382.67,3971.33 1380.68,3970.85 1377.98,3970.85 C1377.45,3970.85 1377.09,3970.94 1376.91,3971.13 C1376.72,3971.32 1376.63,3971.68 1376.63,3972.21 M1410.83,3993.72 L1410.83,3994.29 C1408.74,3994.87 1406.92,3995.49 1405.34,3996.16 L1405.19,3996.08 L1405.19,3992.69 C1405.1,3992.76 1404.87,3993 1404.48,3993.4 C1404.1,3993.8 1403.83,3994.08 1403.66,3994.23 C1403.5,3994.38 1403.23,3994.62 1402.84,3994.93 C1402.46,3995.25 1402.12,3995.48 1401.83,3995.62 C1401.54,3995.76 1401.16,3995.9 1400.71,3996.02 C1400.26,3996.15 1399.8,3996.21 1399.34,3996.21 C1397.88,3996.21 1396.7,3995.73 1395.82,3994.77 C1394.94,3993.81 1394.5,3992.54 1394.5,3990.94 L1394.5,3980.91 C1394.5,3979.98 1394.33,3979.34 1393.98,3978.98 C1393.64,3978.62 1392.99,3978.42 1392.03,3978.36 L1392.03,3977.8 L1397.86,3977.8 L1397.86,3990.77 C1397.86,3991.59 1398.14,3992.3 1398.7,3992.9 C1399.27,3993.5 1399.93,3993.8 1400.7,3993.8 C1400.99,3993.8 1401.34,3993.76 1401.74,3993.68 C1402.14,3993.61 1402.6,3993.45 1403.13,3993.22 C1403.65,3992.99 1404.09,3992.63 1404.45,3992.15 C1404.8,3991.66 1404.98,3991.05 1404.98,3990.33 L1404.98,3980.99 C1404.98,3980.01 1404.8,3979.36 1404.45,3979.04 C1404.09,3978.73 1403.28,3978.54 1402.02,3978.49 L1402.02,3977.8 L1408.34,3977.8 L1408.34,3991.46 C1408.34,3992.38 1408.49,3992.99 1408.78,3993.29 C1409.07,3993.58 1409.69,3993.72 1410.63,3993.72 L1410.83,3993.72 M1417.03,3968.57 L1417.03,3980.69 C1417.43,3979.74 1418.15,3978.96 1419.19,3978.34 C1420.23,3977.72 1421.36,3977.41 1422.58,3977.41 C1424.58,3977.41 1426.25,3978.24 1427.6,3979.9 C1428.95,3981.55 1429.63,3983.6 1429.63,3986.05 C1429.63,3988.91 1428.72,3991.31 1426.92,3993.27 C1425.12,3995.23 1422.9,3996.21 1420.27,3996.21 C1418.66,3996.21 1417.16,3995.94 1415.77,3995.4 C1414.37,3994.87 1413.67,3994.3 1413.67,3993.71 L1413.67,3972.88 C1413.67,3972.06 1413.54,3971.51 1413.29,3971.25 C1413.03,3970.98 1412.51,3970.85 1411.7,3970.85 C1411.41,3970.85 1411.19,3970.86 1411.03,3970.88 L1411.03,3970.24 C1413.08,3969.74 1415.02,3969.16 1416.83,3968.49 L1417.03,3968.57 M1417.03,3982.85 L1417.03,3993.05 C1417.03,3993.57 1417.42,3994.03 1418.19,3994.42 C1418.96,3994.81 1419.86,3995 1420.91,3995 C1422.56,3995 1423.84,3994.38 1424.75,3993.14 C1425.66,3991.89 1426.11,3990.15 1426.11,3987.91 C1426.11,3985.45 1425.65,3983.49 1424.73,3982.01 C1423.8,3980.54 1422.56,3979.8 1420.98,3979.8 C1419.94,3979.8 1419.02,3980.11 1418.23,3980.73 C1417.43,3981.35 1417.03,3982.06 1417.03,3982.85 M1430.61,3970.88 L1430.61,3970.24 C1433.24,3969.6 1435.36,3969.02 1436.97,3968.49 L1437.13,3968.57 L1437.13,3992.44 C1437.13,3993.54 1437.3,3994.25 1437.66,3994.58 C1438.02,3994.92 1438.84,3995.12 1440.13,3995.21 L1440.13,3995.8 L1430.69,3995.8 L1430.69,3995.21 C1431.94,3995.09 1432.76,3994.85 1433.16,3994.48 C1433.57,3994.11 1433.77,3993.39 1433.77,3992.32 L1433.77,3973.24 C1433.77,3972.31 1433.65,3971.67 1433.41,3971.32 C1433.17,3970.98 1432.72,3970.8 1432.08,3970.8 C1431.55,3970.8 1431.06,3970.83 1430.61,3970.88 M1443,3980.08 C1442.41,3980.08 1441.84,3980.12 1441.31,3980.21 L1441.31,3979.6 C1443.18,3979.07 1445.24,3978.34 1447.52,3977.41 L1447.67,3977.52 L1447.67,3991.72 C1447.67,3993.16 1447.84,3994.07 1448.17,3994.46 C1448.51,3994.84 1449.33,3995.09 1450.64,3995.21 L1450.64,3995.8 L1441.16,3995.8 L1441.16,3995.21 C1442.54,3995.12 1443.41,3994.88 1443.77,3994.48 C1444.13,3994.08 1444.31,3993.16 1444.31,3991.72 L1444.31,3982.44 C1444.31,3981.57 1444.21,3980.96 1444.02,3980.61 C1443.82,3980.26 1443.48,3980.08 1443,3980.08 M1445.64,3968.49 C1446.22,3968.49 1446.72,3968.69 1447.12,3969.09 C1447.52,3969.49 1447.72,3969.97 1447.72,3970.52 C1447.72,3971.11 1447.52,3971.6 1447.12,3971.99 C1446.72,3972.37 1446.22,3972.57 1445.64,3972.57 C1445.08,3972.57 1444.6,3972.37 1444.22,3971.97 C1443.83,3971.56 1443.64,3971.09 1443.64,3970.53 C1443.64,3969.97 1443.84,3969.49 1444.23,3969.09 C1444.63,3968.69 1445.1,3968.49 1445.64,3968.49 M1451.83,3987.27 C1451.83,3984.31 1452.7,3981.93 1454.45,3980.12 C1456.19,3978.31 1458.24,3977.41 1460.59,3977.41 C1462.27,3977.41 1463.72,3977.82 1464.93,3978.63 C1466.14,3979.44 1466.75,3980.41 1466.75,3981.52 C1466.75,3981.98 1466.56,3982.37 1466.19,3982.71 C1465.81,3983.04 1465.36,3983.21 1464.83,3983.21 C1463.92,3983.21 1463.3,3982.6 1462.95,3981.38 L1462.7,3980.5 C1462.49,3979.76 1462.23,3979.26 1461.91,3979 C1461.58,3978.73 1461.06,3978.6 1460.34,3978.6 C1458.72,3978.6 1457.41,3979.24 1456.41,3980.53 C1455.41,3981.81 1454.91,3983.48 1454.91,3985.52 C1454.91,3987.8 1455.49,3989.67 1456.65,3991.11 C1457.81,3992.56 1459.3,3993.29 1461.11,3993.29 C1462.26,3993.29 1463.24,3993.01 1464.07,3992.45 C1464.9,3991.89 1465.79,3990.92 1466.75,3989.54 L1467.31,3989.9 C1467.04,3990.44 1466.81,3990.88 1466.61,3991.22 C1466.41,3991.57 1466.05,3992.09 1465.53,3992.79 C1465.01,3993.48 1464.49,3994.05 1463.98,3994.47 C1463.47,3994.9 1462.81,3995.3 1461.98,3995.66 C1461.16,3996.03 1460.31,3996.21 1459.42,3996.21 C1457.21,3996.21 1455.4,3995.37 1453.97,3993.7 C1452.54,3992.03 1451.83,3989.88 1451.83,3987.27 M1505.92,3982.44 C1505.92,3983.64 1505.79,3984.81 1505.52,3985.96 C1505.26,3987.1 1504.76,3988.29 1504.04,3989.52 C1503.32,3990.75 1502.39,3991.81 1501.27,3992.7 C1500.15,3993.59 1498.67,3994.33 1496.82,3994.92 C1494.97,3995.51 1492.87,3995.8 1490.52,3995.8 L1479.16,3995.8 L1479.16,3995.04 C1480.68,3994.93 1481.65,3994.67 1482.06,3994.24 C1482.48,3993.81 1482.69,3992.88 1482.69,3991.44 L1482.69,3973.69 C1482.69,3972.22 1482.49,3971.29 1482.1,3970.9 C1481.71,3970.5 1480.73,3970.23 1479.16,3970.08 L1479.16,3969.33 L1489.95,3969.33 C1492.38,3969.33 1494.55,3969.61 1496.45,3970.15 C1498.36,3970.7 1499.89,3971.41 1501.05,3972.27 C1502.22,3973.13 1503.18,3974.16 1503.94,3975.35 C1504.7,3976.54 1505.22,3977.7 1505.5,3978.85 C1505.78,3979.99 1505.92,3981.19 1505.92,3982.44 M1501.56,3982.72 C1501.56,3981.58 1501.45,3980.48 1501.22,3979.43 C1500.99,3978.39 1500.58,3977.32 1500,3976.25 C1499.42,3975.17 1498.66,3974.24 1497.72,3973.47 C1496.78,3972.7 1495.55,3972.07 1494.04,3971.58 C1492.52,3971.09 1490.79,3970.85 1488.84,3970.85 C1488.01,3970.85 1487.46,3970.96 1487.18,3971.17 C1486.9,3971.38 1486.77,3971.79 1486.77,3972.4 L1486.77,3992.65 C1486.77,3993.28 1486.91,3993.71 1487.2,3993.94 C1487.49,3994.17 1488.04,3994.29 1488.84,3994.29 C1497.32,3994.29 1501.56,3990.43 1501.56,3982.72 M1517.16,3977.41 C1519.71,3977.41 1521.81,3978.26 1523.47,3979.97 C1525.13,3981.67 1525.95,3983.83 1525.95,3986.44 C1525.95,3989.21 1525.1,3991.53 1523.39,3993.4 C1521.68,3995.27 1519.58,3996.21 1517.07,3996.21 C1514.57,3996.21 1512.48,3995.31 1510.81,3993.5 C1509.15,3991.7 1508.31,3989.46 1508.31,3986.77 C1508.31,3984.02 1509.13,3981.77 1510.77,3980.03 C1512.41,3978.28 1514.54,3977.41 1517.16,3977.41 M1511.91,3984.82 C1511.91,3987.65 1512.43,3990.06 1513.47,3992.04 C1514.51,3994.01 1515.87,3995 1517.55,3995 C1519.05,3995 1520.22,3994.37 1521.07,3993.1 C1521.92,3991.83 1522.34,3990.07 1522.34,3987.83 C1522.34,3985.11 1521.81,3982.9 1520.75,3981.18 C1519.69,3979.46 1518.31,3978.6 1516.63,3978.6 C1515.22,3978.6 1514.08,3979.17 1513.21,3980.3 C1512.34,3981.44 1511.91,3982.94 1511.91,3984.82 M1527.05,3979.96 L1527.05,3979.29 C1528.97,3978.72 1530.84,3978.1 1532.66,3977.41 L1532.94,3977.49 L1532.94,3980.57 C1534.58,3979.28 1535.81,3978.43 1536.61,3978.02 C1537.41,3977.61 1538.25,3977.41 1539.13,3977.41 C1541.23,3977.41 1542.65,3978.55 1543.38,3980.83 C1545.45,3978.55 1547.62,3977.41 1549.89,3977.41 C1552.98,3977.41 1554.53,3979.8 1554.53,3984.58 L1554.53,3992.77 C1554.53,3994.26 1555.1,3995.05 1556.25,3995.13 L1557.28,3995.21 L1557.28,3995.8 L1548.53,3995.8 L1548.53,3995.21 C1549.7,3995.07 1550.43,3994.85 1550.73,3994.53 C1551.02,3994.21 1551.17,3993.48 1551.17,3992.33 L1551.17,3983.94 C1551.17,3982.3 1550.96,3981.16 1550.53,3980.52 C1550.1,3979.88 1549.32,3979.57 1548.17,3979.57 C1546.41,3979.57 1544.96,3980.37 1543.81,3981.99 L1543.81,3992.02 C1543.81,3993.27 1544.01,3994.11 1544.39,3994.53 C1544.78,3994.95 1545.54,3995.18 1546.69,3995.21 L1546.69,3995.8 L1537.73,3995.8 L1537.73,3995.21 C1538.88,3995.12 1539.62,3994.91 1539.95,3994.57 C1540.29,3994.22 1540.45,3993.49 1540.45,3992.38 L1540.45,3983.74 C1540.45,3980.96 1539.57,3979.57 1537.81,3979.57 C1537.06,3979.57 1536.23,3979.75 1535.31,3980.12 C1534.4,3980.49 1533.66,3981.09 1533.09,3981.91 L1533.09,3993.13 C1533.09,3993.9 1533.28,3994.43 1533.65,3994.71 C1534.02,3994.99 1534.74,3995.16 1535.81,3995.21 L1535.81,3995.8 L1526.94,3995.8 L1526.94,3995.21 C1528.05,3995.18 1528.8,3994.98 1529.17,3994.61 C1529.55,3994.24 1529.73,3993.5 1529.73,3992.41 L1529.73,3982.35 C1529.73,3981.39 1529.63,3980.73 1529.43,3980.36 C1529.23,3979.99 1528.86,3979.8 1528.33,3979.8 C1527.93,3979.8 1527.51,3979.85 1527.05,3979.96 M1558.48,3991.85 C1558.48,3991.37 1558.54,3990.92 1558.64,3990.51 C1558.74,3990.1 1558.93,3989.72 1559.2,3989.36 C1559.47,3989.01 1559.73,3988.69 1559.97,3988.4 C1560.21,3988.1 1560.57,3987.8 1561.05,3987.5 C1561.53,3987.19 1561.92,3986.94 1562.24,3986.74 C1562.56,3986.54 1563.05,3986.3 1563.7,3986.02 C1564.36,3985.74 1564.86,3985.53 1565.2,3985.38 C1565.55,3985.23 1566.09,3985.01 1566.84,3984.72 C1567.59,3984.43 1568.14,3984.22 1568.48,3984.1 L1568.48,3981.66 C1568.48,3979.46 1567.47,3978.36 1565.44,3978.36 C1564.65,3978.36 1563.97,3978.56 1563.41,3978.94 C1562.84,3979.33 1562.56,3979.79 1562.56,3980.32 C1562.56,3980.54 1562.6,3980.83 1562.66,3981.21 C1562.73,3981.58 1562.77,3981.82 1562.77,3981.93 C1562.77,3982.37 1562.59,3982.76 1562.23,3983.1 C1561.87,3983.43 1561.45,3983.6 1560.97,3983.6 C1560.51,3983.6 1560.11,3983.43 1559.77,3983.08 C1559.42,3982.74 1559.25,3982.34 1559.25,3981.88 C1559.25,3980.63 1559.9,3979.57 1561.19,3978.71 C1562.48,3977.84 1564.07,3977.41 1565.97,3977.41 C1568.16,3977.41 1569.66,3977.93 1570.48,3978.98 C1571.31,3980.03 1571.72,3981.62 1571.72,3983.77 L1571.72,3991.54 C1571.72,3992.41 1571.8,3993.01 1571.98,3993.35 C1572.15,3993.68 1572.46,3993.85 1572.92,3993.85 C1573.48,3993.85 1574.07,3993.59 1574.69,3993.08 L1574.69,3994.13 C1573.99,3994.93 1573.38,3995.48 1572.86,3995.77 C1572.34,3996.06 1571.74,3996.21 1571.08,3996.21 C1570.26,3996.21 1569.65,3995.97 1569.27,3995.5 C1568.88,3995.04 1568.63,3994.27 1568.52,3993.21 C1566.22,3995.21 1564.28,3996.21 1562.69,3996.21 C1561.46,3996.21 1560.45,3995.8 1559.66,3994.99 C1558.88,3994.18 1558.48,3993.13 1558.48,3991.85 M1568.48,3990.82 L1568.48,3985.05 C1566.09,3985.93 1564.41,3986.78 1563.45,3987.6 C1562.48,3988.42 1562,3989.42 1562,3990.58 C1562,3991.67 1562.27,3992.47 1562.8,3993 C1563.34,3993.54 1563.91,3993.8 1564.52,3993.8 C1565.43,3993.8 1566.41,3993.49 1567.44,3992.88 C1567.86,3992.65 1568.15,3992.4 1568.28,3992.14 C1568.42,3991.87 1568.48,3991.43 1568.48,3990.82 M1577.16,3980.08 C1576.56,3980.08 1576,3980.12 1575.47,3980.21 L1575.47,3979.6 C1577.33,3979.07 1579.4,3978.34 1581.67,3977.41 L1581.83,3977.52 L1581.83,3991.72 C1581.83,3993.16 1581.99,3994.07 1582.33,3994.46 C1582.66,3994.84 1583.48,3995.09 1584.8,3995.21 L1584.8,3995.8 L1575.31,3995.8 L1575.31,3995.21 C1576.7,3995.12 1577.57,3994.88 1577.93,3994.48 C1578.29,3994.08 1578.47,3993.16 1578.47,3991.72 L1578.47,3982.44 C1578.47,3981.57 1578.37,3980.96 1578.17,3980.61 C1577.97,3980.26 1577.64,3980.08 1577.16,3980.08 M1579.8,3968.49 C1580.38,3968.49 1580.87,3968.69 1581.27,3969.09 C1581.67,3969.49 1581.88,3969.97 1581.88,3970.52 C1581.88,3971.11 1581.67,3971.6 1581.27,3971.99 C1580.87,3972.37 1580.38,3972.57 1579.8,3972.57 C1579.23,3972.57 1578.76,3972.37 1578.38,3971.97 C1577.99,3971.56 1577.8,3971.09 1577.8,3970.53 C1577.8,3969.97 1577.99,3969.49 1578.39,3969.09 C1578.79,3968.69 1579.26,3968.49 1579.8,3968.49 M1585.78,3979.85 L1585.78,3979.16 C1587.75,3978.59 1589.59,3978 1591.3,3977.41 L1591.58,3977.49 L1591.58,3980.6 C1592.93,3979.34 1594,3978.49 1594.79,3978.06 C1595.58,3977.63 1596.44,3977.41 1597.38,3977.41 C1598.84,3977.41 1600,3977.93 1600.84,3978.98 C1601.67,3980.03 1602.09,3981.49 1602.09,3983.38 L1602.09,3992.55 C1602.09,3993.54 1602.25,3994.2 1602.57,3994.54 C1602.89,3994.87 1603.54,3995.09 1604.53,3995.21 L1604.53,3995.8 L1596.22,3995.8 L1596.22,3995.21 C1597.23,3995.12 1597.9,3994.86 1598.23,3994.4 C1598.57,3993.95 1598.73,3993.09 1598.73,3991.83 L1598.73,3983.46 C1598.73,3980.86 1597.76,3979.57 1595.81,3979.57 C1595.15,3979.57 1594.53,3979.72 1593.98,3980.03 C1593.42,3980.34 1592.66,3980.94 1591.69,3981.85 L1591.69,3993.11 C1591.69,3993.83 1591.88,3994.34 1592.25,3994.64 C1592.63,3994.93 1593.32,3995.12 1594.33,3995.21 L1594.33,3995.8 L1585.86,3995.8 L1585.86,3995.21 C1586.87,3995.12 1587.53,3994.89 1587.85,3994.5 C1588.17,3994.12 1588.33,3993.35 1588.33,3992.19 L1588.33,3982.25 C1588.33,3981.26 1588.22,3980.59 1588.01,3980.22 C1587.79,3979.86 1587.41,3979.68 1586.86,3979.68 C1586.35,3979.68 1585.99,3979.73 1585.78,3979.85"/>
</svg>
