<?xml version="1.0" encoding="UTF-8" standalone="no"?>
<svg width="2977.2px" height="4208.4px" viewBox="0 0 2977.2 4208.4"
 xmlns="http://www.w3.org/2000/svg" xmlns:xlink="http://www.w3.org/1999/xlink" version="1.2" baseProfile="tiny">
<title>Db_Min7.mscx</title>
<desc>Generated by MuseScore Studio 4.3.1</desc>
<path class="" fill="#ffffff" fill-rule="evenodd" d="M0,0 L2977.2,0 L2977.2,4208.4 L0,4208.4 L0,0 "/>
<polyline class="StaffLines" fill="none" stroke="#000000" stroke-width="2.00" stroke-linejoin="bevel" points="141.732,566.733 2835.47,566.733"/>
<polyline class="StaffLines" fill="none" stroke="#000000" stroke-width="2.00" stroke-linejoin="bevel" points="141.732,591.733 2835.47,591.733"/>
<polyline class="StaffLines" fill="none" stroke="#000000" stroke-width="2.00" stroke-linejoin="bevel" points="141.732,616.733 2835.47,616.733"/>
<polyline class="StaffLines" fill="none" stroke="#000000" stroke-width="2.00" stroke-linejoin="bevel" points="141.732,641.733 2835.47,641.733"/>
<polyline class="StaffLines" fill="none" stroke="#000000" stroke-width="2.00" stroke-linejoin="bevel" points="141.732,666.733 2835.47,666.733"/>
<polyline class="BarLine" fill="none" stroke="#000000" stroke-width="4.00" stroke-linejoin="bevel" points="2349.22,565.733 2349.22,667.733"/>
<polyline class="BarLine" fill="none" stroke="#000000" stroke-width="4.00" stroke-linejoin="bevel" points="1565.55,565.733 1565.55,667.733"/>
<polyline class="BarLine" fill="none" stroke="#000000" stroke-width="4.00" stroke-linejoin="bevel" points="2802.72,565.733 2802.72,667.733"/>
<polyline class="BarLine" fill="none" stroke="#000000" stroke-width="12.50" stroke-linejoin="bevel" points="2829.22,565.733 2829.22,667.733"/>
<polyline class="BarLine" fill="none" stroke="#000000" stroke-width="4.00" stroke-linejoin="bevel" points="1112.05,565.733 1112.05,667.733"/>
<path class="Accidental" d="M328.764,696.811 L327.498,634.701 C327.498,633.722 328.264,633.233 329.795,633.233 C331.326,633.233 332.092,633.722 332.092,634.701 L331.311,668.592 C333.071,666.832 334.584,665.61 335.85,664.928 C337.115,664.246 338.839,663.905 341.022,663.905 C343.204,663.905 345.222,664.912 347.076,666.928 C348.93,668.944 349.857,671.451 349.857,674.451 C349.857,678.941 345.139,685.16 335.701,693.108 C332.191,696.295 330.368,697.889 330.232,697.889 L329.654,697.889 C329.061,697.889 328.764,697.53 328.764,696.811 M331.217,671.717 L330.92,693.889 C332.941,691.993 334.993,688.847 337.076,684.451 C339.16,680.056 340.201,676.295 340.201,673.17 C340.201,671.608 339.941,670.175 339.42,668.873 C338.899,667.571 338.084,666.92 336.975,666.92 C335.865,666.92 334.87,667.311 333.99,668.092 C333.11,668.873 332.186,670.082 331.217,671.717"/>
<path class="Accidental" d="M2131.93,696.811 L2130.66,634.701 C2130.66,633.722 2131.43,633.233 2132.96,633.233 C2134.49,633.233 2135.26,633.722 2135.26,634.701 L2134.47,668.592 C2136.23,666.832 2137.75,665.61 2139.01,664.928 C2140.28,664.246 2142,663.905 2144.19,663.905 C2146.37,663.905 2148.39,664.912 2150.24,666.928 C2152.09,668.944 2153.02,671.451 2153.02,674.451 C2153.02,678.941 2148.3,685.16 2138.87,693.108 C2135.35,696.295 2133.53,697.889 2133.4,697.889 L2132.82,697.889 C2132.22,697.889 2131.93,697.53 2131.93,696.811 M2134.38,671.717 L2134.08,693.889 C2136.1,691.993 2138.16,688.847 2140.24,684.451 C2142.32,680.056 2143.37,676.295 2143.37,673.17 C2143.37,671.608 2143.1,670.175 2142.58,668.873 C2142.06,667.571 2141.25,666.92 2140.14,666.92 C2139.03,666.92 2138.03,667.311 2137.15,668.092 C2136.27,668.873 2135.35,670.082 2134.38,671.717"/>
<path class="Accidental" d="M706.096,646.811 L704.831,584.701 C704.831,583.722 705.596,583.233 707.128,583.233 C708.659,583.233 709.425,583.722 709.425,584.701 L708.643,618.592 C710.404,616.832 711.917,615.61 713.182,614.928 C714.448,614.246 716.172,613.905 718.354,613.905 C720.537,613.905 722.555,614.912 724.409,616.928 C726.263,618.944 727.19,621.451 727.19,624.451 C727.19,628.941 722.471,635.16 713.034,643.108 C709.524,646.295 707.701,647.889 707.565,647.889 L706.987,647.889 C706.393,647.889 706.096,647.53 706.096,646.811 M708.55,621.717 L708.253,643.889 C710.274,641.993 712.326,638.847 714.409,634.451 C716.492,630.056 717.534,626.295 717.534,623.17 C717.534,621.608 717.274,620.175 716.753,618.873 C716.232,617.571 715.417,616.92 714.307,616.92 C713.198,616.92 712.203,617.311 711.323,618.092 C710.443,618.873 709.518,620.082 708.55,621.717"/>
<path class="Accidental" d="M1754.59,646.811 L1753.33,584.701 C1753.33,583.722 1754.09,583.233 1755.63,583.233 C1757.16,583.233 1757.92,583.722 1757.92,584.701 L1757.14,618.592 C1758.9,616.832 1760.42,615.61 1761.68,614.928 C1762.95,614.246 1764.67,613.905 1766.85,613.905 C1769.04,613.905 1771.05,614.912 1772.91,616.928 C1774.76,618.944 1775.69,621.451 1775.69,624.451 C1775.69,628.941 1770.97,635.16 1761.53,643.108 C1758.02,646.295 1756.2,647.889 1756.06,647.889 L1755.49,647.889 C1754.89,647.889 1754.59,647.53 1754.59,646.811 M1757.05,621.717 L1756.75,643.889 C1758.77,641.993 1760.82,638.847 1762.91,634.451 C1764.99,630.056 1766.03,626.295 1766.03,623.17 C1766.03,621.608 1765.77,620.175 1765.25,618.873 C1764.73,617.571 1763.92,616.92 1762.81,616.92 C1761.7,616.92 1760.7,617.311 1759.82,618.092 C1758.94,618.873 1758.02,620.082 1757.05,621.717"/>
<polyline class="Stem" fill="none" stroke="#000000" stroke-width="3.25" stroke-linejoin="bevel" points="575.344,660.863 575.344,579.233"/>
<polyline class="Stem" fill="none" stroke="#000000" stroke-width="3.25" stroke-linejoin="bevel" points="2189.84,673.364 2189.84,591.733"/>
<polyline class="Stem" fill="none" stroke="#000000" stroke-width="3.25" stroke-linejoin="bevel" points="2001.18,660.863 2001.18,579.233"/>
<polyline class="Stem" fill="none" stroke="#000000" stroke-width="3.25" stroke-linejoin="bevel" points="1812.51,623.363 1812.51,547.983"/>
<polyline class="Stem" fill="none" stroke="#000000" stroke-width="3.25" stroke-linejoin="bevel" points="1594.18,622.602 1594.18,691.733"/>
<polyline class="Stem" fill="none" stroke="#000000" stroke-width="3.25" stroke-linejoin="bevel" points="386.678,673.364 386.678,591.733"/>
<polyline class="Stem" fill="none" stroke="#000000" stroke-width="3.25" stroke-linejoin="bevel" points="923.013,622.602 923.013,691.733"/>
<polyline class="Stem" fill="none" stroke="#000000" stroke-width="3.25" stroke-linejoin="bevel" points="764.011,623.363 764.011,547.983"/>
<path class="Note" d="M1614.52,602.967 C1617.65,602.967 1620.25,603.748 1622.33,605.311 C1624.42,606.873 1625.46,609.118 1625.46,612.045 C1625.46,616.535 1623.13,620.733 1618.48,624.639 C1613.83,628.545 1608.83,630.498 1603.49,630.498 C1600.37,630.498 1597.73,629.686 1595.58,628.061 C1593.56,626.3 1592.55,624.087 1592.55,621.42 C1592.55,617.056 1594.87,612.889 1599.49,608.92 C1604.12,604.951 1609.13,602.967 1614.52,602.967"/>
<path class="Note" d="M377.357,665.467 C380.482,665.467 383.087,666.248 385.17,667.811 C387.253,669.373 388.295,671.618 388.295,674.545 C388.295,679.035 385.969,683.233 381.318,687.139 C376.667,691.045 371.67,692.998 366.326,692.998 C363.201,692.998 360.566,692.186 358.42,690.561 C356.399,688.8 355.389,686.587 355.389,683.92 C355.389,679.556 357.701,675.389 362.326,671.42 C366.951,667.451 371.962,665.467 377.357,665.467"/>
<path class="Note" d="M1803.19,615.467 C1806.31,615.467 1808.92,616.248 1811,617.811 C1813.08,619.373 1814.13,621.618 1814.13,624.545 C1814.13,629.035 1811.8,633.233 1807.15,637.139 C1802.5,641.045 1797.5,642.998 1792.16,642.998 C1789.03,642.998 1786.4,642.186 1784.25,640.561 C1782.23,638.8 1781.22,636.587 1781.22,633.92 C1781.22,629.556 1783.53,625.389 1788.16,621.42 C1792.78,617.451 1797.79,615.467 1803.19,615.467"/>
<path class="Note" d="M943.357,602.967 C946.482,602.967 949.086,603.748 951.169,605.311 C953.252,606.873 954.294,609.118 954.294,612.045 C954.294,616.535 951.969,620.733 947.318,624.639 C942.666,628.545 937.669,630.498 932.325,630.498 C929.2,630.498 926.565,629.686 924.419,628.061 C922.398,626.3 921.388,624.087 921.388,621.42 C921.388,617.056 923.7,612.889 928.325,608.92 C932.95,604.951 937.961,602.967 943.357,602.967"/>
<path class="Note" d="M1991.86,652.967 C1994.98,652.967 1997.58,653.748 1999.67,655.311 C2001.75,656.873 2002.79,659.118 2002.79,662.045 C2002.79,666.535 2000.47,670.733 1995.82,674.639 C1991.16,678.545 1986.17,680.498 1980.82,680.498 C1977.7,680.498 1975.06,679.686 1972.92,678.061 C1970.9,676.3 1969.89,674.087 1969.89,671.42 C1969.89,667.056 1972.2,662.889 1976.82,658.92 C1981.45,654.951 1986.46,652.967 1991.86,652.967"/>
<path class="Note" d="M754.69,615.467 C757.815,615.467 760.419,616.248 762.503,617.811 C764.586,619.373 765.628,621.618 765.628,624.545 C765.628,629.035 763.302,633.233 758.651,637.139 C754,641.045 749.003,642.998 743.659,642.998 C740.534,642.998 737.899,642.186 735.753,640.561 C733.732,638.8 732.721,636.587 732.721,633.92 C732.721,629.556 735.034,625.389 739.659,621.42 C744.284,617.451 749.294,615.467 754.69,615.467"/>
<path class="Note" d="M2180.52,665.467 C2183.65,665.467 2186.25,666.248 2188.33,667.811 C2190.42,669.373 2191.46,671.618 2191.46,674.545 C2191.46,679.035 2189.13,683.233 2184.48,687.139 C2179.83,691.045 2174.83,692.998 2169.49,692.998 C2166.37,692.998 2163.73,692.186 2161.58,690.561 C2159.56,688.8 2158.55,686.587 2158.55,683.92 C2158.55,679.556 2160.87,675.389 2165.49,671.42 C2170.12,667.451 2175.13,665.467 2180.52,665.467"/>
<path class="Note" d="M566.024,652.967 C569.149,652.967 571.753,653.748 573.836,655.311 C575.92,656.873 576.961,659.118 576.961,662.045 C576.961,666.535 574.636,670.733 569.985,674.639 C565.334,678.545 560.336,680.498 554.993,680.498 C551.868,680.498 549.232,679.686 547.086,678.061 C545.066,676.3 544.055,674.087 544.055,671.42 C544.055,667.056 546.368,662.889 550.993,658.92 C555.618,654.951 560.628,652.967 566.024,652.967"/>
<path class="Clef" d="M203.623,673.858 L203.623,671.717 C203.56,670.613 203.399,668.889 203.139,666.545 C199.889,667.066 196.993,667.326 194.451,667.326 C185.337,667.326 177.605,663.727 171.256,656.53 C164.907,649.332 161.732,640.754 161.732,630.795 C161.732,628.129 162.253,624.923 163.295,621.178 C164.337,617.433 165.297,614.925 166.178,613.655 C167.058,612.384 168.378,610.155 170.139,606.967 C170.659,605.988 172.352,603.837 175.217,600.514 C175.738,599.806 176.193,599.222 176.584,598.764 C176.975,598.306 177.607,597.49 178.482,596.319 C179.357,595.147 180.3,594.056 181.31,593.045 C182.321,592.035 183.217,591.058 183.998,590.115 C184.779,589.173 185.498,588.379 186.154,587.733 C183.81,579.983 182.378,574.024 181.857,569.858 C181.337,565.691 181.076,560.579 181.076,554.522 C181.076,548.464 182.378,542.962 184.982,538.014 C187.514,532.879 191.06,528.681 195.623,525.42 C195.883,525.222 196.225,525.123 196.646,525.123 C197.068,525.123 197.378,525.222 197.576,525.42 C201.087,529.649 204.128,535.149 206.701,541.92 C209.274,548.691 210.56,555.024 210.56,560.92 C210.56,566.816 209.066,572.498 206.076,577.967 C202.691,583.759 198.326,589.748 192.982,595.936 C194.347,600.227 196.17,606.962 198.451,616.139 L199.045,616.139 C199.305,616.076 199.529,616.045 199.717,616.045 C207.081,616.045 213.089,618.634 217.74,623.811 C222.391,628.988 224.717,634.962 224.717,641.733 C224.717,650.129 221.238,656.899 214.279,662.045 C212.258,663.545 209.878,664.717 207.139,665.561 C207.472,669.79 207.639,672.605 207.639,674.006 C207.639,675.407 207.571,677.899 207.435,681.483 C207.373,687.597 205.29,692.837 201.185,697.201 C197.081,701.566 192.394,703.748 187.123,703.748 C181.852,703.748 177.36,701.876 173.646,698.131 C169.933,694.386 168.076,689.847 168.076,684.514 C168.076,681.712 169.154,679.332 171.31,677.373 C173.519,675.425 176.006,674.451 178.771,674.451 C181.537,674.451 183.8,675.462 185.56,677.483 C187.383,679.368 188.295,681.644 188.295,684.311 C188.295,686.977 187.383,689.222 185.56,691.045 C183.738,692.868 181.555,693.78 179.014,693.78 C177.972,693.78 176.967,693.587 175.998,693.201 C178.863,697.431 182.54,699.545 187.029,699.545 C191.519,699.545 195.36,697.691 198.553,693.983 C201.745,690.274 203.342,685.91 203.342,680.889 L203.623,673.858 M206.748,661.561 C210.133,660.321 212.821,658.123 214.81,654.967 C216.8,651.811 217.795,648.67 217.795,645.545 C217.795,640.92 216.199,636.785 213.006,633.139 C209.813,629.493 205.774,627.441 200.889,626.983 C203.691,640.722 205.644,652.248 206.748,661.561 M168.967,638.998 C168.967,645.446 171.537,651.079 176.678,655.897 C181.818,660.714 187.842,663.123 194.748,663.123 C197.477,663.123 200.144,662.925 202.748,662.53 C201.706,652.634 199.654,640.785 196.592,626.983 C192.758,627.379 189.782,628.699 187.662,630.944 C185.542,633.188 184.482,635.743 184.482,638.608 C184.482,643.556 187.123,647.561 192.404,650.623 C192.852,650.884 193.076,651.324 193.076,651.944 C193.076,652.563 192.865,653.1 192.443,653.553 C192.021,654.006 191.649,654.233 191.326,654.233 C191.003,654.233 190.581,654.17 190.06,654.045 C182.435,649.879 178.623,643.592 178.623,635.186 C178.623,631.217 180.024,627.41 182.826,623.764 C185.753,620.118 189.56,617.774 194.248,616.733 C192.425,609.441 190.93,603.743 189.764,599.639 C180.847,609.67 175.31,617.092 173.154,621.905 C170.363,628.155 168.967,633.852 168.967,638.998 M201.576,539.686 C196.691,542.092 192.834,545.574 190.006,550.131 C187.178,554.688 185.764,559.472 185.764,564.483 C185.764,569.493 186.935,575.972 189.279,583.92 C193.967,578.254 197.514,572.946 199.92,567.998 C202.326,563.05 203.529,558.152 203.529,553.303 C203.529,548.454 202.878,543.915 201.576,539.686"/>
<path class="TimeSig" d="M273.021,567.912 C274.516,567.912 275.949,567.686 277.318,567.233 C278.688,566.78 279.665,566.553 280.248,566.553 C280.831,566.553 281.222,566.907 281.42,567.615 C281.42,567.688 281.352,567.886 281.217,568.209 L252.811,601.225 L269.498,601.225 L269.498,588.131 C269.498,586.506 270.446,585.334 272.342,584.615 C274.29,583.897 276.503,581.001 278.982,575.928 C279.17,575.532 279.462,575.334 279.857,575.334 C280.639,575.334 281.092,575.793 281.217,576.709 L281.217,601.225 L288.357,601.225 C289.264,601.225 289.751,601.712 289.818,602.686 C289.886,603.66 289.399,604.147 288.357,604.147 L281.217,604.147 L281.217,604.928 C281.217,607.532 281.868,609.746 283.17,611.569 C284.67,613.391 286.43,614.303 288.451,614.303 C289.232,614.303 289.623,614.694 289.623,615.475 C289.623,616.256 289.087,616.647 288.014,616.647 C286.941,616.647 284.938,616.436 282.006,616.014 C279.074,615.592 276.811,615.381 275.217,615.381 C273.623,615.381 271.41,615.592 268.576,616.014 C265.743,616.436 263.613,616.647 262.186,616.647 C261.404,616.647 261.014,616.256 261.014,615.475 C261.014,614.694 261.404,614.303 262.186,614.303 C264.196,614.303 265.951,613.391 267.451,611.569 C268.816,609.683 269.498,607.47 269.498,604.928 L269.498,604.147 L252.811,604.147 C251.956,604.147 251.219,603.92 250.6,603.467 C249.98,603.014 249.67,602.592 249.67,602.201 C249.67,601.811 250.485,600.639 252.115,598.686 C253.745,596.733 256.074,592.972 259.1,587.405 C262.126,581.837 263.639,575.438 263.639,568.209 C263.639,567.168 264.097,566.647 265.014,566.647 C265.212,566.647 265.521,566.712 265.943,566.842 C266.365,566.972 267.277,567.183 268.678,567.475 C270.079,567.766 271.527,567.912 273.021,567.912"/>
<path class="TimeSig" d="M273.021,618.084 C274.516,618.084 275.949,617.858 277.318,617.405 C278.688,616.951 279.665,616.725 280.248,616.725 C280.831,616.725 281.222,617.079 281.42,617.787 C281.42,617.86 281.352,618.058 281.217,618.381 L252.811,651.397 L269.498,651.397 L269.498,638.303 C269.498,636.678 270.446,635.506 272.342,634.787 C274.29,634.069 276.503,631.173 278.982,626.1 C279.17,625.704 279.462,625.506 279.857,625.506 C280.639,625.506 281.092,625.964 281.217,626.881 L281.217,651.397 L288.357,651.397 C289.264,651.397 289.751,651.884 289.818,652.858 C289.886,653.832 289.399,654.319 288.357,654.319 L281.217,654.319 L281.217,655.1 C281.217,657.704 281.868,659.918 283.17,661.74 C284.67,663.563 286.43,664.475 288.451,664.475 C289.232,664.475 289.623,664.865 289.623,665.647 C289.623,666.428 289.087,666.819 288.014,666.819 C286.941,666.819 284.938,666.608 282.006,666.186 C279.074,665.764 276.811,665.553 275.217,665.553 C273.623,665.553 271.41,665.764 268.576,666.186 C265.743,666.608 263.613,666.819 262.186,666.819 C261.404,666.819 261.014,666.428 261.014,665.647 C261.014,664.865 261.404,664.475 262.186,664.475 C264.196,664.475 265.951,663.563 267.451,661.74 C268.816,659.855 269.498,657.642 269.498,655.1 L269.498,654.319 L252.811,654.319 C251.956,654.319 251.219,654.092 250.6,653.639 C249.98,653.186 249.67,652.764 249.67,652.373 C249.67,651.983 250.485,650.811 252.115,648.858 C253.745,646.905 256.074,643.144 259.1,637.576 C262.126,632.009 263.639,625.61 263.639,618.381 C263.639,617.339 264.097,616.819 265.014,616.819 C265.212,616.819 265.521,616.884 265.943,617.014 C266.365,617.144 267.277,617.355 268.678,617.647 C270.079,617.938 271.527,618.084 273.021,618.084"/>
<path class="Rest" d="M1356.59,607.358 L1321.04,607.358 C1320.38,607.358 1320.05,607.035 1320.05,606.389 L1320.05,592.717 C1320.05,592.061 1320.38,591.733 1321.04,591.733 L1356.59,591.733 C1357.23,591.733 1357.55,592.061 1357.55,592.717 L1357.55,606.389 C1357.55,607.035 1357.23,607.358 1356.59,607.358"/>
<path class="Rest" d="M2593.75,607.358 L2558.2,607.358 C2557.55,607.358 2557.22,607.035 2557.22,606.389 L2557.22,592.717 C2557.22,592.061 2557.55,591.733 2558.2,591.733 L2593.75,591.733 C2594.4,591.733 2594.72,592.061 2594.72,592.717 L2594.72,606.389 C2594.72,607.035 2594.4,607.358 2593.75,607.358"/>
</svg>
