<?xml version="1.0" encoding="UTF-8" standalone="no"?>
<svg width="2977.2px" height="4208.4px" viewBox="0 0 2977.2 4208.4"
 xmlns="http://www.w3.org/2000/svg" xmlns:xlink="http://www.w3.org/1999/xlink" version="1.2" baseProfile="tiny">
<title>E_Bebop.mscx</title>
<desc>Generated by MuseScore Studio 4.3.1</desc>
<path class="" fill="#ffffff" fill-rule="evenodd" d="M0,0 L2977.2,0 L2977.2,4208.4 L0,4208.4 L0,0 "/>
<polyline class="StaffLines" fill="none" stroke="#000000" stroke-width="2.00" stroke-linejoin="bevel" points="141.732,566.733 2835.47,566.733"/>
<polyline class="StaffLines" fill="none" stroke="#000000" stroke-width="2.00" stroke-linejoin="bevel" points="141.732,591.733 2835.47,591.733"/>
<polyline class="StaffLines" fill="none" stroke="#000000" stroke-width="2.00" stroke-linejoin="bevel" points="141.732,616.733 2835.47,616.733"/>
<polyline class="StaffLines" fill="none" stroke="#000000" stroke-width="2.00" stroke-linejoin="bevel" points="141.732,641.733 2835.47,641.733"/>
<polyline class="StaffLines" fill="none" stroke="#000000" stroke-width="2.00" stroke-linejoin="bevel" points="141.732,666.733 2835.47,666.733"/>
<polyline class="BarLine" fill="none" stroke="#000000" stroke-width="4.00" stroke-linejoin="bevel" points="2802.72,565.733 2802.72,667.733"/>
<polyline class="BarLine" fill="none" stroke="#000000" stroke-width="12.50" stroke-linejoin="bevel" points="2829.22,565.733 2829.22,667.733"/>
<polyline class="BarLine" fill="none" stroke="#000000" stroke-width="4.00" stroke-linejoin="bevel" points="878.965,565.733 878.965,667.733"/>
<polyline class="BarLine" fill="none" stroke="#000000" stroke-width="4.00" stroke-linejoin="bevel" points="1156.16,565.733 1156.16,667.733"/>
<polyline class="BarLine" fill="none" stroke="#000000" stroke-width="4.00" stroke-linejoin="bevel" points="1445.96,565.733 1445.96,667.733"/>
<polyline class="BarLine" fill="none" stroke="#000000" stroke-width="4.00" stroke-linejoin="bevel" points="589.167,565.733 589.167,667.733"/>
<polyline class="BarLine" fill="none" stroke="#000000" stroke-width="4.00" stroke-linejoin="bevel" points="1723.16,565.733 1723.16,667.733"/>
<polyline class="BarLine" fill="none" stroke="#000000" stroke-width="4.00" stroke-linejoin="bevel" points="2012.95,565.733 2012.95,667.733"/>
<polyline class="BarLine" fill="none" stroke="#000000" stroke-width="4.00" stroke-linejoin="bevel" points="2290.15,565.733 2290.15,667.733"/>
<polyline class="BarLine" fill="none" stroke="#000000" stroke-width="4.00" stroke-linejoin="bevel" points="2579.95,565.733 2579.95,667.733"/>
<path class="Accidental" d="M1589.18,569.764 C1590.62,569.368 1591.34,569.722 1591.34,570.826 L1591.34,578.639 C1591.34,579.42 1590.72,580.04 1589.48,580.498 L1586.26,581.764 L1586.26,595.936 L1589.18,594.764 C1590.62,594.368 1591.34,594.727 1591.34,595.842 L1591.34,603.655 C1591.34,604.436 1590.72,605.05 1589.48,605.498 L1586.26,606.78 L1586.26,622.983 C1586.26,624.222 1585.77,624.842 1584.79,624.842 C1583.81,624.842 1583.32,624.222 1583.32,622.983 L1583.32,607.951 L1574.04,611.655 L1574.04,627.764 C1574.04,629.003 1573.56,629.623 1572.58,629.623 C1571.61,629.623 1571.12,629.003 1571.12,627.764 L1571.12,612.826 L1568.57,613.905 C1567.21,614.488 1566.53,614.097 1566.53,612.733 L1566.53,605.014 C1566.53,604.368 1567.12,603.785 1568.29,603.264 L1571.12,602.092 L1571.12,587.826 L1568.57,588.905 C1567.21,589.488 1566.53,589.097 1566.53,587.733 L1566.53,580.014 C1566.53,579.358 1567.12,578.769 1568.29,578.248 L1571.12,577.076 L1571.12,560.967 C1571.12,559.727 1571.61,559.108 1572.58,559.108 C1573.56,559.108 1574.04,559.727 1574.04,560.967 L1574.04,575.905 L1583.32,572.108 L1583.32,556.186 C1583.32,554.946 1583.81,554.326 1584.79,554.326 C1585.77,554.326 1586.26,554.946 1586.26,556.186 L1586.26,570.936 L1589.18,569.764 M1574.04,586.655 L1574.04,600.92 L1583.32,597.108 L1583.32,582.936 L1574.04,586.655 "/>
<path class="Accidental" d="M1866.17,624.545 C1864.99,624.868 1864.4,624.415 1864.4,623.186 L1864.4,568.483 C1864.4,567.118 1864.92,566.436 1865.97,566.436 C1867.01,566.436 1867.53,567.118 1867.53,568.483 L1867.53,588.311 L1879.06,583.92 C1880.23,583.597 1880.81,584.05 1880.81,585.28 L1880.81,639.983 C1880.81,641.347 1880.29,642.03 1879.25,642.03 C1878.21,642.03 1877.68,641.347 1877.68,639.983 L1877.68,620.155 L1866.17,624.545 M1867.53,613.311 L1877.68,609.405 L1877.68,595.155 L1867.53,599.061 L1867.53,613.311 "/>
<path class="Accidental" d="M2445.98,632.264 C2447.41,631.868 2448.13,632.222 2448.13,633.326 L2448.13,641.139 C2448.13,641.92 2447.51,642.54 2446.27,642.998 L2443.05,644.264 L2443.05,658.436 L2445.98,657.264 C2447.41,656.868 2448.13,657.227 2448.13,658.342 L2448.13,666.155 C2448.13,666.936 2447.51,667.55 2446.27,667.998 L2443.05,669.28 L2443.05,685.483 C2443.05,686.722 2442.56,687.342 2441.59,687.342 C2440.61,687.342 2440.12,686.722 2440.12,685.483 L2440.12,670.451 L2430.84,674.155 L2430.84,690.264 C2430.84,691.504 2430.35,692.123 2429.37,692.123 C2428.4,692.123 2427.91,691.504 2427.91,690.264 L2427.91,675.326 L2425.37,676.405 C2424,676.988 2423.32,676.597 2423.32,675.233 L2423.32,667.514 C2423.32,666.868 2423.91,666.285 2425.09,665.764 L2427.91,664.592 L2427.91,650.326 L2425.37,651.405 C2424,651.988 2423.32,651.597 2423.32,650.233 L2423.32,642.514 C2423.32,641.858 2423.91,641.269 2425.09,640.748 L2427.91,639.576 L2427.91,623.467 C2427.91,622.227 2428.4,621.608 2429.37,621.608 C2430.35,621.608 2430.84,622.227 2430.84,623.467 L2430.84,638.405 L2440.12,634.608 L2440.12,618.686 C2440.12,617.446 2440.61,616.826 2441.59,616.826 C2442.56,616.826 2443.05,617.446 2443.05,618.686 L2443.05,633.436 L2445.98,632.264 M2430.84,649.155 L2430.84,663.42 L2440.12,659.608 L2440.12,645.436 L2430.84,649.155 "/>
<path class="Accidental" d="M621.347,619.764 C622.784,619.368 623.503,619.722 623.503,620.826 L623.503,628.639 C623.503,629.42 622.883,630.04 621.644,630.498 L618.425,631.764 L618.425,645.936 L621.347,644.764 C622.784,644.368 623.503,644.727 623.503,645.842 L623.503,653.655 C623.503,654.436 622.883,655.05 621.644,655.498 L618.425,656.78 L618.425,672.983 C618.425,674.222 617.935,674.842 616.956,674.842 C615.977,674.842 615.487,674.222 615.487,672.983 L615.487,657.951 L606.206,661.655 L606.206,677.764 C606.206,679.004 605.719,679.623 604.745,679.623 C603.771,679.623 603.284,679.004 603.284,677.764 L603.284,662.826 L600.737,663.905 C599.373,664.488 598.69,664.097 598.69,662.733 L598.69,655.014 C598.69,654.368 599.279,653.785 600.456,653.264 L603.284,652.092 L603.284,637.826 L600.737,638.905 C599.373,639.488 598.69,639.097 598.69,637.733 L598.69,630.014 C598.69,629.358 599.279,628.769 600.456,628.248 L603.284,627.076 L603.284,610.967 C603.284,609.727 603.771,609.108 604.745,609.108 C605.719,609.108 606.206,609.727 606.206,610.967 L606.206,625.905 L615.487,622.108 L615.487,606.186 C615.487,604.946 615.977,604.326 616.956,604.326 C617.935,604.326 618.425,604.946 618.425,606.186 L618.425,620.936 L621.347,619.764 M606.206,636.655 L606.206,650.92 L615.487,647.108 L615.487,632.936 L606.206,636.655 "/>
<path class="Accidental" d="M455.196,632.264 C456.633,631.868 457.352,632.222 457.352,633.326 L457.352,641.139 C457.352,641.92 456.732,642.54 455.493,642.998 L452.274,644.264 L452.274,658.436 L455.196,657.264 C456.633,656.868 457.352,657.227 457.352,658.342 L457.352,666.155 C457.352,666.936 456.732,667.55 455.493,667.998 L452.274,669.28 L452.274,685.483 C452.274,686.722 451.784,687.342 450.805,687.342 C449.826,687.342 449.336,686.722 449.336,685.483 L449.336,670.451 L440.055,674.155 L440.055,690.264 C440.055,691.504 439.568,692.123 438.594,692.123 C437.62,692.123 437.133,691.504 437.133,690.264 L437.133,675.326 L434.586,676.405 C433.222,676.988 432.54,676.597 432.54,675.233 L432.54,667.514 C432.54,666.868 433.128,666.285 434.305,665.764 L437.133,664.592 L437.133,650.326 L434.586,651.405 C433.222,651.988 432.54,651.597 432.54,650.233 L432.54,642.514 C432.54,641.858 433.128,641.269 434.305,640.748 L437.133,639.576 L437.133,623.467 C437.133,622.227 437.62,621.608 438.594,621.608 C439.568,621.608 440.055,622.227 440.055,623.467 L440.055,638.405 L449.336,634.608 L449.336,618.686 C449.336,617.446 449.826,616.826 450.805,616.826 C451.784,616.826 452.274,617.446 452.274,618.686 L452.274,633.436 L455.196,632.264 M440.055,649.155 L440.055,663.42 L449.336,659.608 L449.336,645.436 L440.055,649.155 "/>
<path class="Accidental" d="M1755.33,582.264 C1756.77,581.868 1757.49,582.222 1757.49,583.326 L1757.49,591.139 C1757.49,591.92 1756.87,592.54 1755.63,592.998 L1752.41,594.264 L1752.41,608.436 L1755.33,607.264 C1756.77,606.868 1757.49,607.227 1757.49,608.342 L1757.49,616.155 C1757.49,616.936 1756.87,617.55 1755.63,617.998 L1752.41,619.28 L1752.41,635.483 C1752.41,636.722 1751.92,637.342 1750.94,637.342 C1749.97,637.342 1749.48,636.722 1749.48,635.483 L1749.48,620.451 L1740.19,624.155 L1740.19,640.264 C1740.19,641.503 1739.71,642.123 1738.73,642.123 C1737.76,642.123 1737.27,641.503 1737.27,640.264 L1737.27,625.326 L1734.73,626.405 C1733.36,626.988 1732.68,626.597 1732.68,625.233 L1732.68,617.514 C1732.68,616.868 1733.27,616.285 1734.44,615.764 L1737.27,614.592 L1737.27,600.326 L1734.73,601.405 C1733.36,601.988 1732.68,601.597 1732.68,600.233 L1732.68,592.514 C1732.68,591.858 1733.27,591.269 1734.44,590.748 L1737.27,589.576 L1737.27,573.467 C1737.27,572.227 1737.76,571.608 1738.73,571.608 C1739.71,571.608 1740.19,572.227 1740.19,573.467 L1740.19,588.405 L1749.48,584.608 L1749.48,568.686 C1749.48,567.446 1749.97,566.826 1750.94,566.826 C1751.92,566.826 1752.41,567.446 1752.41,568.686 L1752.41,583.436 L1755.33,582.264 M1740.19,599.155 L1740.19,613.42 L1749.48,609.608 L1749.48,595.436 L1740.19,599.155 "/>
<path class="Accidental" d="M1311.99,569.764 C1313.43,569.368 1314.14,569.722 1314.14,570.826 L1314.14,578.639 C1314.14,579.42 1313.52,580.04 1312.28,580.498 L1309.07,581.764 L1309.07,595.936 L1311.99,594.764 C1313.43,594.368 1314.14,594.727 1314.14,595.842 L1314.14,603.655 C1314.14,604.436 1313.52,605.05 1312.28,605.498 L1309.07,606.78 L1309.07,622.983 C1309.07,624.222 1308.58,624.842 1307.6,624.842 C1306.62,624.842 1306.13,624.222 1306.13,622.983 L1306.13,607.951 L1296.85,611.655 L1296.85,627.764 C1296.85,629.003 1296.36,629.623 1295.39,629.623 C1294.41,629.623 1293.93,629.003 1293.93,627.764 L1293.93,612.826 L1291.38,613.905 C1290.01,614.488 1289.33,614.097 1289.33,612.733 L1289.33,605.014 C1289.33,604.368 1289.92,603.785 1291.1,603.264 L1293.93,602.092 L1293.93,587.826 L1291.38,588.905 C1290.01,589.488 1289.33,589.097 1289.33,587.733 L1289.33,580.014 C1289.33,579.358 1289.92,578.769 1291.1,578.248 L1293.93,577.076 L1293.93,560.967 C1293.93,559.727 1294.41,559.108 1295.39,559.108 C1296.36,559.108 1296.85,559.727 1296.85,560.967 L1296.85,575.905 L1306.13,572.108 L1306.13,556.186 C1306.13,554.946 1306.62,554.326 1307.6,554.326 C1308.58,554.326 1309.07,554.946 1309.07,556.186 L1309.07,570.936 L1311.99,569.764 M1296.85,586.655 L1296.85,600.92 L1306.13,597.108 L1306.13,582.936 L1296.85,586.655 "/>
<path class="Accidental" d="M1188.34,582.264 C1189.78,581.868 1190.5,582.222 1190.5,583.326 L1190.5,591.139 C1190.5,591.92 1189.88,592.54 1188.64,592.998 L1185.42,594.264 L1185.42,608.436 L1188.34,607.264 C1189.78,606.868 1190.5,607.227 1190.5,608.342 L1190.5,616.155 C1190.5,616.936 1189.88,617.55 1188.64,617.998 L1185.42,619.28 L1185.42,635.483 C1185.42,636.722 1184.93,637.342 1183.95,637.342 C1182.97,637.342 1182.48,636.722 1182.48,635.483 L1182.48,620.451 L1173.2,624.155 L1173.2,640.264 C1173.2,641.503 1172.71,642.123 1171.74,642.123 C1170.77,642.123 1170.28,641.503 1170.28,640.264 L1170.28,625.326 L1167.73,626.405 C1166.37,626.988 1165.68,626.597 1165.68,625.233 L1165.68,617.514 C1165.68,616.868 1166.27,616.285 1167.45,615.764 L1170.28,614.592 L1170.28,600.326 L1167.73,601.405 C1166.37,601.988 1165.68,601.597 1165.68,600.233 L1165.68,592.514 C1165.68,591.858 1166.27,591.269 1167.45,590.748 L1170.28,589.576 L1170.28,573.467 C1170.28,572.227 1170.77,571.608 1171.74,571.608 C1172.71,571.608 1173.2,572.227 1173.2,573.467 L1173.2,588.405 L1182.48,584.608 L1182.48,568.686 C1182.48,567.446 1182.97,566.826 1183.95,566.826 C1184.93,566.826 1185.42,567.446 1185.42,568.686 L1185.42,583.436 L1188.34,582.264 M1173.2,599.155 L1173.2,613.42 L1182.48,609.608 L1182.48,595.436 L1173.2,599.155 "/>
<path class="Accidental" d="M2322.33,619.764 C2323.77,619.368 2324.49,619.722 2324.49,620.826 L2324.49,628.639 C2324.49,629.42 2323.87,630.04 2322.63,630.498 L2319.41,631.764 L2319.41,645.936 L2322.33,644.764 C2323.77,644.368 2324.49,644.727 2324.49,645.842 L2324.49,653.655 C2324.49,654.436 2323.87,655.05 2322.63,655.498 L2319.41,656.78 L2319.41,672.983 C2319.41,674.222 2318.92,674.842 2317.94,674.842 C2316.96,674.842 2316.47,674.222 2316.47,672.983 L2316.47,657.951 L2307.19,661.655 L2307.19,677.764 C2307.19,679.004 2306.7,679.623 2305.73,679.623 C2304.75,679.623 2304.27,679.004 2304.27,677.764 L2304.27,662.826 L2301.72,663.905 C2300.36,664.488 2299.67,664.097 2299.67,662.733 L2299.67,655.014 C2299.67,654.368 2300.26,653.785 2301.44,653.264 L2304.27,652.092 L2304.27,637.826 L2301.72,638.905 C2300.36,639.488 2299.67,639.097 2299.67,637.733 L2299.67,630.014 C2299.67,629.358 2300.26,628.769 2301.44,628.248 L2304.27,627.076 L2304.27,610.967 C2304.27,609.727 2304.75,609.108 2305.73,609.108 C2306.7,609.108 2307.19,609.727 2307.19,610.967 L2307.19,625.905 L2316.47,622.108 L2316.47,606.186 C2316.47,604.946 2316.96,604.326 2317.94,604.326 C2318.92,604.326 2319.41,604.946 2319.41,606.186 L2319.41,620.936 L2322.33,619.764 M2307.19,636.655 L2307.19,650.92 L2316.47,647.108 L2316.47,632.936 L2307.19,636.655 "/>
<polyline class="Stem" fill="none" stroke="#000000" stroke-width="3.25" stroke-linejoin="bevel" points="1764.38,609.133 1764.38,685.483"/>
<polyline class="Stem" fill="none" stroke="#000000" stroke-width="3.25" stroke-linejoin="bevel" points="2362.84,636.933 2362.84,554.233"/>
<polyline class="Stem" fill="none" stroke="#000000" stroke-width="3.25" stroke-linejoin="bevel" points="372.065,661.933 372.065,579.233"/>
<polyline class="Stem" fill="none" stroke="#000000" stroke-width="3.25" stroke-linejoin="bevel" points="1474.58,584.133 1474.58,666.733"/>
<polyline class="Stem" fill="none" stroke="#000000" stroke-width="3.25" stroke-linejoin="bevel" points="1888.03,609.133 1888.03,685.483"/>
<polyline class="Stem" fill="none" stroke="#000000" stroke-width="3.25" stroke-linejoin="bevel" points="2196.69,624.433 2196.69,547.983"/>
<polyline class="Stem" fill="none" stroke="#000000" stroke-width="3.25" stroke-linejoin="bevel" points="495.711,649.433 495.711,566.733"/>
<polyline class="Stem" fill="none" stroke="#000000" stroke-width="3.25" stroke-linejoin="bevel" points="2041.58,621.633 2041.58,691.733"/>
<polyline class="Stem" fill="none" stroke="#000000" stroke-width="3.25" stroke-linejoin="bevel" points="1598.23,596.633 1598.23,679.233"/>
<polyline class="Stem" fill="none" stroke="#000000" stroke-width="3.25" stroke-linejoin="bevel" points="661.862,636.933 661.862,554.233"/>
<polyline class="Stem" fill="none" stroke="#000000" stroke-width="3.25" stroke-linejoin="bevel" points="1321.03,596.633 1321.03,679.233"/>
<polyline class="Stem" fill="none" stroke="#000000" stroke-width="3.25" stroke-linejoin="bevel" points="2486.49,649.433 2486.49,566.733"/>
<polyline class="Stem" fill="none" stroke="#000000" stroke-width="3.25" stroke-linejoin="bevel" points="1197.39,609.133 1197.39,685.483"/>
<polyline class="Stem" fill="none" stroke="#000000" stroke-width="3.25" stroke-linejoin="bevel" points="1031.24,609.133 1031.24,685.483"/>
<polyline class="Stem" fill="none" stroke="#000000" stroke-width="3.25" stroke-linejoin="bevel" points="907.59,621.633 907.59,691.733"/>
<polyline class="Stem" fill="none" stroke="#000000" stroke-width="3.25" stroke-linejoin="bevel" points="785.509,624.433 785.509,547.983"/>
<path class="Note" d="M2337.17,652.373 C2339.06,652.373 2343.01,650.42 2349.04,646.514 C2355.07,642.608 2358.62,639.988 2359.69,638.655 C2360.76,637.321 2361.3,636.134 2361.3,635.092 C2361.3,634.05 2360.87,633.123 2360.02,632.311 C2359.18,631.498 2358.2,631.092 2357.09,631.092 C2355.15,631.092 2351.16,633.061 2345.13,636.998 C2339.11,640.936 2335.57,643.556 2334.53,644.858 C2333.49,646.16 2332.97,647.332 2332.97,648.373 C2332.97,649.415 2333.38,650.342 2334.2,651.155 C2335.01,651.967 2336.01,652.373 2337.17,652.373 M2356.13,627.967 C2361.72,627.967 2364.52,630.373 2364.52,635.186 C2364.52,637.53 2363.83,640.248 2362.47,643.342 C2361.11,646.436 2359.28,648.795 2357,650.42 C2351.99,653.806 2345.71,655.498 2338.16,655.498 C2332.55,655.498 2329.75,653.092 2329.75,648.28 C2329.75,646.134 2330.42,643.464 2331.75,640.272 C2333.08,637.079 2334.92,634.67 2337.27,633.045 C2342.29,629.66 2348.57,627.967 2356.13,627.967"/>
<path class="Note" d="M1770.18,614.873 C1772.06,614.873 1776.02,612.92 1782.05,609.014 C1788.07,605.108 1791.62,602.488 1792.69,601.155 C1793.77,599.821 1794.3,598.634 1794.3,597.592 C1794.3,596.55 1793.88,595.623 1793.03,594.811 C1792.18,593.998 1791.2,593.592 1790.1,593.592 C1788.15,593.592 1784.17,595.561 1778.14,599.498 C1772.11,603.436 1768.58,606.056 1767.54,607.358 C1766.5,608.66 1765.98,609.832 1765.98,610.873 C1765.98,611.915 1766.38,612.842 1767.2,613.655 C1768.02,614.467 1769.01,614.873 1770.18,614.873 M1789.13,590.467 C1794.73,590.467 1797.52,592.873 1797.52,597.686 C1797.52,600.03 1796.84,602.748 1795.48,605.842 C1794.11,608.936 1792.29,611.295 1790.01,612.92 C1785,616.306 1778.72,617.998 1771.16,617.998 C1765.56,617.998 1762.76,615.592 1762.76,610.78 C1762.76,608.634 1763.42,605.964 1764.76,602.772 C1766.09,599.579 1767.93,597.17 1770.27,595.545 C1775.29,592.16 1781.58,590.467 1789.13,590.467"/>
<path class="Note" d="M2171.02,639.873 C2172.91,639.873 2176.86,637.92 2182.89,634.014 C2188.92,630.108 2192.46,627.488 2193.54,626.155 C2194.61,624.821 2195.15,623.634 2195.15,622.592 C2195.15,621.55 2194.72,620.623 2193.87,619.811 C2193.02,618.998 2192.05,618.592 2190.94,618.592 C2189,618.592 2185.01,620.561 2178.98,624.498 C2172.96,628.436 2169.42,631.056 2168.38,632.358 C2167.34,633.66 2166.82,634.832 2166.82,635.873 C2166.82,636.915 2167.23,637.842 2168.05,638.655 C2168.86,639.467 2169.86,639.873 2171.02,639.873 M2189.97,615.467 C2195.57,615.467 2198.37,617.873 2198.37,622.686 C2198.37,625.03 2197.68,627.748 2196.32,630.842 C2194.95,633.936 2193.13,636.295 2190.85,637.92 C2185.84,641.306 2179.56,642.998 2172.01,642.998 C2166.4,642.998 2163.6,640.592 2163.6,635.78 C2163.6,633.634 2164.27,630.964 2165.6,627.772 C2166.93,624.579 2168.77,622.17 2171.12,620.545 C2176.14,617.16 2182.42,615.467 2189.97,615.467"/>
<path class="Note" d="M2460.82,664.873 C2462.71,664.873 2466.66,662.92 2472.69,659.014 C2478.71,655.108 2482.26,652.488 2483.34,651.155 C2484.41,649.821 2484.94,648.634 2484.94,647.592 C2484.94,646.55 2484.52,645.623 2483.67,644.811 C2482.82,643.998 2481.85,643.592 2480.74,643.592 C2478.79,643.592 2474.81,645.561 2468.78,649.498 C2462.75,653.436 2459.22,656.056 2458.18,657.358 C2457.14,658.66 2456.62,659.832 2456.62,660.873 C2456.62,661.915 2457.03,662.842 2457.84,663.655 C2458.66,664.467 2459.65,664.873 2460.82,664.873 M2479.77,640.467 C2485.37,640.467 2488.16,642.873 2488.16,647.686 C2488.16,650.03 2487.48,652.748 2486.12,655.842 C2484.75,658.936 2482.93,661.295 2480.65,662.92 C2475.64,666.306 2469.36,667.998 2461.8,667.998 C2456.2,667.998 2453.4,665.592 2453.4,660.78 C2453.4,658.634 2454.06,655.964 2455.4,652.772 C2456.73,649.579 2458.57,647.17 2460.91,645.545 C2465.93,642.16 2472.22,640.467 2479.77,640.467"/>
<path class="Note" d="M2624.04,672.201 C2626.91,676.045 2630.58,677.967 2635.07,677.967 C2639.56,677.967 2641.81,674.941 2641.81,668.889 C2641.81,666.014 2640.99,663.472 2639.37,661.264 C2636.57,657.42 2632.79,655.498 2628.04,655.498 C2625.96,655.498 2624.36,656.36 2623.26,658.084 C2622.16,659.808 2621.6,662.04 2621.6,664.78 C2621.6,667.519 2622.42,669.993 2624.04,672.201 M2614.37,656.967 C2619.25,654.3 2625.13,652.967 2632,652.967 C2638.87,652.967 2644.67,654.334 2649.38,657.069 C2654.1,659.803 2656.46,663.058 2656.46,666.834 C2656.46,670.61 2654.02,673.832 2649.13,676.498 C2644.25,679.165 2638.41,680.498 2631.6,680.498 C2624.8,680.498 2618.99,679.131 2614.17,676.397 C2609.36,673.662 2606.95,670.376 2606.95,666.537 C2606.95,662.699 2609.42,659.509 2614.37,656.967"/>
<path class="Note" d="M2047.37,627.373 C2049.26,627.373 2053.22,625.42 2059.24,621.514 C2065.27,617.608 2068.82,614.988 2069.89,613.655 C2070.96,612.321 2071.5,611.134 2071.5,610.092 C2071.5,609.05 2071.08,608.123 2070.23,607.311 C2069.38,606.498 2068.4,606.092 2067.3,606.092 C2065.35,606.092 2061.36,608.061 2055.34,611.998 C2049.31,615.936 2045.78,618.556 2044.73,619.858 C2043.69,621.16 2043.17,622.332 2043.17,623.373 C2043.17,624.415 2043.58,625.342 2044.4,626.155 C2045.22,626.967 2046.21,627.373 2047.37,627.373 M2066.33,602.967 C2071.92,602.967 2074.72,605.373 2074.72,610.186 C2074.72,612.53 2074.04,615.248 2072.67,618.342 C2071.31,621.436 2069.48,623.795 2067.2,625.42 C2062.19,628.806 2055.91,630.498 2048.36,630.498 C2042.76,630.498 2039.95,628.092 2039.95,623.28 C2039.95,621.134 2040.62,618.464 2041.95,615.272 C2043.29,612.079 2045.12,609.67 2047.47,608.045 C2052.49,604.66 2058.78,602.967 2066.33,602.967"/>
<path class="Note" d="M346.393,677.373 C348.278,677.373 352.234,675.42 358.26,671.514 C364.286,667.608 367.835,664.988 368.908,663.655 C369.981,662.321 370.518,661.134 370.518,660.092 C370.518,659.05 370.093,658.123 369.244,657.311 C368.395,656.498 367.419,656.092 366.315,656.092 C364.367,656.092 360.38,658.061 354.354,661.998 C348.328,665.936 344.794,668.556 343.752,669.858 C342.71,671.16 342.19,672.332 342.19,673.373 C342.19,674.415 342.598,675.342 343.416,676.155 C344.234,676.967 345.226,677.373 346.393,677.373 M365.346,652.967 C370.94,652.967 373.736,655.373 373.736,660.186 C373.736,662.53 373.054,665.248 371.69,668.342 C370.325,671.436 368.502,673.795 366.221,675.42 C361.21,678.806 354.929,680.498 347.377,680.498 C341.773,680.498 338.971,678.092 338.971,673.28 C338.971,671.134 339.637,668.464 340.971,665.272 C342.304,662.079 344.143,659.67 346.486,658.045 C351.507,654.66 357.794,652.967 365.346,652.967"/>
<path class="Note" d="M1893.83,614.873 C1895.71,614.873 1899.67,612.92 1905.69,609.014 C1911.72,605.108 1915.27,602.488 1916.34,601.155 C1917.41,599.821 1917.95,598.634 1917.95,597.592 C1917.95,596.55 1917.53,595.623 1916.68,594.811 C1915.83,593.998 1914.85,593.592 1913.75,593.592 C1911.8,593.592 1907.81,595.561 1901.79,599.498 C1895.76,603.436 1892.23,606.056 1891.18,607.358 C1890.14,608.66 1889.62,609.832 1889.62,610.873 C1889.62,611.915 1890.03,612.842 1890.85,613.655 C1891.67,614.467 1892.66,614.873 1893.83,614.873 M1912.78,590.467 C1918.37,590.467 1921.17,592.873 1921.17,597.686 C1921.17,600.03 1920.49,602.748 1919.12,605.842 C1917.76,608.936 1915.93,611.295 1913.65,612.92 C1908.64,616.306 1902.36,617.998 1894.81,617.998 C1889.21,617.998 1886.4,615.592 1886.4,610.78 C1886.4,608.634 1887.07,605.964 1888.4,602.772 C1889.74,599.579 1891.58,597.17 1893.92,595.545 C1898.94,592.16 1905.23,590.467 1912.78,590.467"/>
<path class="Note" d="M759.837,639.873 C761.723,639.873 765.679,637.92 771.705,634.014 C777.731,630.108 781.28,627.488 782.353,626.155 C783.426,624.821 783.962,623.634 783.962,622.592 C783.962,621.55 783.538,620.623 782.689,619.811 C781.84,618.998 780.863,618.592 779.759,618.592 C777.811,618.592 773.824,620.561 767.798,624.498 C761.772,628.436 758.238,631.056 757.197,632.358 C756.155,633.66 755.634,634.832 755.634,635.873 C755.634,636.915 756.043,637.842 756.861,638.655 C757.679,639.467 758.671,639.873 759.837,639.873 M778.791,615.467 C784.384,615.467 787.181,617.873 787.181,622.686 C787.181,625.03 786.499,627.748 785.134,630.842 C783.77,633.936 781.947,636.295 779.666,637.92 C774.655,641.306 768.374,642.998 760.822,642.998 C755.218,642.998 752.416,640.592 752.416,635.78 C752.416,633.634 753.082,630.964 754.416,627.772 C755.749,624.579 757.587,622.17 759.931,620.545 C764.952,617.16 771.238,615.467 778.791,615.467"/>
<path class="Note" d="M470.04,664.873 C471.925,664.873 475.881,662.92 481.907,659.014 C487.933,655.108 491.482,652.488 492.555,651.155 C493.628,649.821 494.165,648.634 494.165,647.592 C494.165,646.55 493.74,645.623 492.891,644.811 C492.042,643.998 491.066,643.592 489.961,643.592 C488.014,643.592 484.027,645.561 478.001,649.498 C471.974,653.436 468.441,656.056 467.399,657.358 C466.357,658.66 465.836,659.832 465.836,660.873 C465.836,661.915 466.245,662.842 467.063,663.655 C467.881,664.467 468.873,664.873 470.04,664.873 M488.993,640.467 C494.586,640.467 497.383,642.873 497.383,647.686 C497.383,650.03 496.701,652.748 495.336,655.842 C493.972,658.936 492.149,661.295 489.868,662.92 C484.857,666.306 478.576,667.998 471.024,667.998 C465.42,667.998 462.618,665.592 462.618,660.78 C462.618,658.634 463.284,655.964 464.618,652.772 C465.951,649.579 467.79,647.17 470.133,645.545 C475.154,642.16 481.441,640.467 488.993,640.467"/>
<path class="Note" d="M1604.03,602.373 C1605.91,602.373 1609.87,600.42 1615.89,596.514 C1621.92,592.608 1625.47,589.988 1626.54,588.655 C1627.62,587.321 1628.15,586.134 1628.15,585.092 C1628.15,584.05 1627.73,583.123 1626.88,582.311 C1626.03,581.498 1625.05,581.092 1623.95,581.092 C1622,581.092 1618.01,583.061 1611.99,586.998 C1605.96,590.936 1602.43,593.556 1601.39,594.858 C1600.35,596.16 1599.82,597.332 1599.82,598.373 C1599.82,599.415 1600.23,600.342 1601.05,601.155 C1601.87,601.967 1602.86,602.373 1604.03,602.373 M1622.98,577.967 C1628.57,577.967 1631.37,580.373 1631.37,585.186 C1631.37,587.53 1630.69,590.248 1629.32,593.342 C1627.96,596.436 1626.14,598.795 1623.86,600.42 C1618.85,603.806 1612.56,605.498 1605.01,605.498 C1599.41,605.498 1596.61,603.092 1596.61,598.28 C1596.61,596.134 1597.27,593.464 1598.61,590.272 C1599.94,587.079 1601.78,584.67 1604.12,583.045 C1609.14,579.66 1615.43,577.967 1622.98,577.967"/>
<path class="Note" d="M1480.38,589.873 C1482.27,589.873 1486.22,587.92 1492.25,584.014 C1498.27,580.108 1501.82,577.488 1502.9,576.155 C1503.97,574.821 1504.51,573.634 1504.51,572.592 C1504.51,571.55 1504.08,570.623 1503.23,569.811 C1502.38,568.998 1501.41,568.592 1500.3,568.592 C1498.35,568.592 1494.37,570.561 1488.34,574.498 C1482.32,578.436 1478.78,581.056 1477.74,582.358 C1476.7,583.66 1476.18,584.832 1476.18,585.873 C1476.18,586.915 1476.59,587.842 1477.4,588.655 C1478.22,589.467 1479.21,589.873 1480.38,589.873 M1499.33,565.467 C1504.93,565.467 1507.72,567.873 1507.72,572.686 C1507.72,575.03 1507.04,577.748 1505.68,580.842 C1504.31,583.936 1502.49,586.295 1500.21,587.92 C1495.2,591.306 1488.92,592.998 1481.37,592.998 C1475.76,592.998 1472.96,590.592 1472.96,585.78 C1472.96,583.634 1473.63,580.964 1474.96,577.772 C1476.29,574.579 1478.13,572.17 1480.47,570.545 C1485.5,567.16 1491.78,565.467 1499.33,565.467"/>
<path class="Note" d="M1326.83,602.373 C1328.72,602.373 1332.67,600.42 1338.7,596.514 C1344.72,592.608 1348.27,589.988 1349.35,588.655 C1350.42,587.321 1350.96,586.134 1350.96,585.092 C1350.96,584.05 1350.53,583.123 1349.68,582.311 C1348.83,581.498 1347.86,581.092 1346.75,581.092 C1344.81,581.092 1340.82,583.061 1334.79,586.998 C1328.77,590.936 1325.23,593.556 1324.19,594.858 C1323.15,596.16 1322.63,597.332 1322.63,598.373 C1322.63,599.415 1323.04,600.342 1323.85,601.155 C1324.67,601.967 1325.66,602.373 1326.83,602.373 M1345.78,577.967 C1351.38,577.967 1354.18,580.373 1354.18,585.186 C1354.18,587.53 1353.49,590.248 1352.13,593.342 C1350.76,596.436 1348.94,598.795 1346.66,600.42 C1341.65,603.806 1335.37,605.498 1327.82,605.498 C1322.21,605.498 1319.41,603.092 1319.41,598.28 C1319.41,596.134 1320.08,593.464 1321.41,590.272 C1322.74,587.079 1324.58,584.67 1326.93,583.045 C1331.95,579.66 1338.23,577.967 1345.78,577.967"/>
<path class="Note" d="M1203.18,614.873 C1205.07,614.873 1209.03,612.92 1215.05,609.014 C1221.08,605.108 1224.63,602.488 1225.7,601.155 C1226.77,599.821 1227.31,598.634 1227.31,597.592 C1227.31,596.55 1226.89,595.623 1226.04,594.811 C1225.19,593.998 1224.21,593.592 1223.11,593.592 C1221.16,593.592 1217.17,595.561 1211.15,599.498 C1205.12,603.436 1201.59,606.056 1200.54,607.358 C1199.5,608.66 1198.98,609.832 1198.98,610.873 C1198.98,611.915 1199.39,612.842 1200.21,613.655 C1201.03,614.467 1202.02,614.873 1203.18,614.873 M1222.14,590.467 C1227.73,590.467 1230.53,592.873 1230.53,597.686 C1230.53,600.03 1229.85,602.748 1228.48,605.842 C1227.12,608.936 1225.29,611.295 1223.01,612.92 C1218,616.306 1211.72,617.998 1204.17,617.998 C1198.56,617.998 1195.76,615.592 1195.76,610.78 C1195.76,608.634 1196.43,605.964 1197.76,602.772 C1199.1,599.579 1200.93,597.17 1203.28,595.545 C1208.3,592.16 1214.59,590.467 1222.14,590.467"/>
<path class="Note" d="M636.19,652.373 C638.076,652.373 642.032,650.42 648.058,646.514 C654.084,642.608 657.633,639.988 658.706,638.655 C659.779,637.321 660.315,636.134 660.315,635.092 C660.315,634.05 659.891,633.123 659.042,632.311 C658.193,631.498 657.217,631.092 656.112,631.092 C654.164,631.092 650.177,633.061 644.151,636.998 C638.125,640.936 634.592,643.556 633.55,644.858 C632.508,646.16 631.987,647.332 631.987,648.373 C631.987,649.415 632.396,650.342 633.214,651.155 C634.032,651.967 635.024,652.373 636.19,652.373 M655.144,627.967 C660.737,627.967 663.534,630.373 663.534,635.186 C663.534,637.53 662.852,640.248 661.487,643.342 C660.123,646.436 658.3,648.795 656.019,650.42 C651.008,653.806 644.727,655.498 637.175,655.498 C631.571,655.498 628.769,653.092 628.769,648.28 C628.769,646.134 629.435,643.464 630.769,640.272 C632.102,637.079 633.94,634.67 636.284,633.045 C641.305,629.66 647.592,627.967 655.144,627.967"/>
<path class="Note" d="M1037.03,614.873 C1038.92,614.873 1042.87,612.92 1048.9,609.014 C1054.93,605.108 1058.48,602.488 1059.55,601.155 C1060.62,599.821 1061.16,598.634 1061.16,597.592 C1061.16,596.55 1060.73,595.623 1059.89,594.811 C1059.04,593.998 1058.06,593.592 1056.96,593.592 C1055.01,593.592 1051.02,595.561 1044.99,599.498 C1038.97,603.436 1035.43,606.056 1034.39,607.358 C1033.35,608.66 1032.83,609.832 1032.83,610.873 C1032.83,611.915 1033.24,612.842 1034.06,613.655 C1034.87,614.467 1035.87,614.873 1037.03,614.873 M1055.99,590.467 C1061.58,590.467 1064.38,592.873 1064.38,597.686 C1064.38,600.03 1063.7,602.748 1062.33,605.842 C1060.97,608.936 1059.14,611.295 1056.86,612.92 C1051.85,616.306 1045.57,617.998 1038.02,617.998 C1032.41,617.998 1029.61,615.592 1029.61,610.78 C1029.61,608.634 1030.28,605.964 1031.61,602.772 C1032.95,599.579 1034.78,597.17 1037.13,595.545 C1042.15,592.16 1048.43,590.467 1055.99,590.467"/>
<path class="Note" d="M913.387,627.373 C915.272,627.373 919.228,625.42 925.254,621.514 C931.28,617.608 934.829,614.988 935.902,613.655 C936.975,612.321 937.512,611.134 937.512,610.092 C937.512,609.05 937.087,608.123 936.238,607.311 C935.389,606.498 934.413,606.092 933.309,606.092 C931.361,606.092 927.374,608.061 921.348,611.998 C915.322,615.936 911.788,618.556 910.746,619.858 C909.704,621.16 909.184,622.332 909.184,623.373 C909.184,624.415 909.592,625.342 910.41,626.155 C911.228,626.967 912.22,627.373 913.387,627.373 M932.34,602.967 C937.934,602.967 940.73,605.373 940.73,610.186 C940.73,612.53 940.048,615.248 938.684,618.342 C937.319,621.436 935.496,623.795 933.215,625.42 C928.204,628.806 921.923,630.498 914.371,630.498 C908.767,630.498 905.965,628.092 905.965,623.28 C905.965,621.134 906.632,618.464 907.965,615.272 C909.298,612.079 911.137,609.67 913.48,608.045 C918.501,604.66 924.788,602.967 932.34,602.967"/>
<path class="Clef" d="M203.623,673.858 L203.623,671.717 C203.56,670.613 203.399,668.889 203.139,666.545 C199.889,667.066 196.993,667.326 194.451,667.326 C185.337,667.326 177.605,663.727 171.256,656.53 C164.907,649.332 161.732,640.754 161.732,630.795 C161.732,628.129 162.253,624.923 163.295,621.178 C164.337,617.433 165.297,614.925 166.178,613.655 C167.058,612.384 168.378,610.155 170.139,606.967 C170.659,605.988 172.352,603.837 175.217,600.514 C175.738,599.806 176.193,599.222 176.584,598.764 C176.975,598.306 177.607,597.49 178.482,596.319 C179.357,595.147 180.3,594.056 181.31,593.045 C182.321,592.035 183.217,591.058 183.998,590.115 C184.779,589.173 185.498,588.379 186.154,587.733 C183.81,579.983 182.378,574.024 181.857,569.858 C181.337,565.691 181.076,560.579 181.076,554.522 C181.076,548.464 182.378,542.962 184.982,538.014 C187.514,532.879 191.06,528.681 195.623,525.42 C195.883,525.222 196.225,525.123 196.646,525.123 C197.068,525.123 197.378,525.222 197.576,525.42 C201.087,529.649 204.128,535.149 206.701,541.92 C209.274,548.691 210.56,555.024 210.56,560.92 C210.56,566.816 209.066,572.498 206.076,577.967 C202.691,583.759 198.326,589.748 192.982,595.936 C194.347,600.227 196.17,606.962 198.451,616.139 L199.045,616.139 C199.305,616.076 199.529,616.045 199.717,616.045 C207.081,616.045 213.089,618.634 217.74,623.811 C222.391,628.988 224.717,634.962 224.717,641.733 C224.717,650.129 221.238,656.899 214.279,662.045 C212.258,663.545 209.878,664.717 207.139,665.561 C207.472,669.79 207.639,672.605 207.639,674.006 C207.639,675.407 207.571,677.899 207.435,681.483 C207.373,687.597 205.29,692.837 201.185,697.201 C197.081,701.566 192.394,703.748 187.123,703.748 C181.852,703.748 177.36,701.876 173.646,698.131 C169.933,694.386 168.076,689.847 168.076,684.514 C168.076,681.712 169.154,679.332 171.31,677.373 C173.519,675.425 176.006,674.451 178.771,674.451 C181.537,674.451 183.8,675.462 185.56,677.483 C187.383,679.368 188.295,681.644 188.295,684.311 C188.295,686.977 187.383,689.222 185.56,691.045 C183.738,692.868 181.555,693.78 179.014,693.78 C177.972,693.78 176.967,693.587 175.998,693.201 C178.863,697.431 182.54,699.545 187.029,699.545 C191.519,699.545 195.36,697.691 198.553,693.983 C201.745,690.274 203.342,685.91 203.342,680.889 L203.623,673.858 M206.748,661.561 C210.133,660.321 212.821,658.123 214.81,654.967 C216.8,651.811 217.795,648.67 217.795,645.545 C217.795,640.92 216.199,636.785 213.006,633.139 C209.813,629.493 205.774,627.441 200.889,626.983 C203.691,640.722 205.644,652.248 206.748,661.561 M168.967,638.998 C168.967,645.446 171.537,651.079 176.678,655.897 C181.818,660.714 187.842,663.123 194.748,663.123 C197.477,663.123 200.144,662.925 202.748,662.53 C201.706,652.634 199.654,640.785 196.592,626.983 C192.758,627.379 189.782,628.699 187.662,630.944 C185.542,633.188 184.482,635.743 184.482,638.608 C184.482,643.556 187.123,647.561 192.404,650.623 C192.852,650.884 193.076,651.324 193.076,651.944 C193.076,652.563 192.865,653.1 192.443,653.553 C192.021,654.006 191.649,654.233 191.326,654.233 C191.003,654.233 190.581,654.17 190.06,654.045 C182.435,649.879 178.623,643.592 178.623,635.186 C178.623,631.217 180.024,627.41 182.826,623.764 C185.753,620.118 189.56,617.774 194.248,616.733 C192.425,609.441 190.93,603.743 189.764,599.639 C180.847,609.67 175.31,617.092 173.154,621.905 C170.363,628.155 168.967,633.852 168.967,638.998 M201.576,539.686 C196.691,542.092 192.834,545.574 190.006,550.131 C187.178,554.688 185.764,559.472 185.764,564.483 C185.764,569.493 186.935,575.972 189.279,583.92 C193.967,578.254 197.514,572.946 199.92,567.998 C202.326,563.05 203.529,558.152 203.529,553.303 C203.529,548.454 202.878,543.915 201.576,539.686"/>
<path class="TimeSig" d="M273.021,567.912 C274.516,567.912 275.949,567.686 277.318,567.233 C278.688,566.78 279.665,566.553 280.248,566.553 C280.831,566.553 281.222,566.907 281.42,567.615 C281.42,567.688 281.352,567.886 281.217,568.209 L252.811,601.225 L269.498,601.225 L269.498,588.131 C269.498,586.506 270.446,585.334 272.342,584.615 C274.29,583.897 276.503,581.001 278.982,575.928 C279.17,575.532 279.462,575.334 279.857,575.334 C280.639,575.334 281.092,575.793 281.217,576.709 L281.217,601.225 L288.357,601.225 C289.264,601.225 289.751,601.712 289.818,602.686 C289.886,603.66 289.399,604.147 288.357,604.147 L281.217,604.147 L281.217,604.928 C281.217,607.532 281.868,609.746 283.17,611.569 C284.67,613.391 286.43,614.303 288.451,614.303 C289.232,614.303 289.623,614.694 289.623,615.475 C289.623,616.256 289.087,616.647 288.014,616.647 C286.941,616.647 284.938,616.436 282.006,616.014 C279.074,615.592 276.811,615.381 275.217,615.381 C273.623,615.381 271.41,615.592 268.576,616.014 C265.743,616.436 263.613,616.647 262.186,616.647 C261.404,616.647 261.014,616.256 261.014,615.475 C261.014,614.694 261.404,614.303 262.186,614.303 C264.196,614.303 265.951,613.391 267.451,611.569 C268.816,609.683 269.498,607.47 269.498,604.928 L269.498,604.147 L252.811,604.147 C251.956,604.147 251.219,603.92 250.6,603.467 C249.98,603.014 249.67,602.592 249.67,602.201 C249.67,601.811 250.485,600.639 252.115,598.686 C253.745,596.733 256.074,592.972 259.1,587.405 C262.126,581.837 263.639,575.438 263.639,568.209 C263.639,567.168 264.097,566.647 265.014,566.647 C265.212,566.647 265.521,566.712 265.943,566.842 C266.365,566.972 267.277,567.183 268.678,567.475 C270.079,567.766 271.527,567.912 273.021,567.912"/>
<path class="TimeSig" d="M273.021,618.084 C274.516,618.084 275.949,617.858 277.318,617.405 C278.688,616.951 279.665,616.725 280.248,616.725 C280.831,616.725 281.222,617.079 281.42,617.787 C281.42,617.86 281.352,618.058 281.217,618.381 L252.811,651.397 L269.498,651.397 L269.498,638.303 C269.498,636.678 270.446,635.506 272.342,634.787 C274.29,634.069 276.503,631.173 278.982,626.1 C279.17,625.704 279.462,625.506 279.857,625.506 C280.639,625.506 281.092,625.964 281.217,626.881 L281.217,651.397 L288.357,651.397 C289.264,651.397 289.751,651.884 289.818,652.858 C289.886,653.832 289.399,654.319 288.357,654.319 L281.217,654.319 L281.217,655.1 C281.217,657.704 281.868,659.918 283.17,661.74 C284.67,663.563 286.43,664.475 288.451,664.475 C289.232,664.475 289.623,664.865 289.623,665.647 C289.623,666.428 289.087,666.819 288.014,666.819 C286.941,666.819 284.938,666.608 282.006,666.186 C279.074,665.764 276.811,665.553 275.217,665.553 C273.623,665.553 271.41,665.764 268.576,666.186 C265.743,666.608 263.613,666.819 262.186,666.819 C261.404,666.819 261.014,666.428 261.014,665.647 C261.014,664.865 261.404,664.475 262.186,664.475 C264.196,664.475 265.951,663.563 267.451,661.74 C268.816,659.855 269.498,657.642 269.498,655.1 L269.498,654.319 L252.811,654.319 C251.956,654.319 251.219,654.092 250.6,653.639 C249.98,653.186 249.67,652.764 249.67,652.373 C249.67,651.983 250.485,650.811 252.115,648.858 C253.745,646.905 256.074,643.144 259.1,637.576 C262.126,632.009 263.639,625.61 263.639,618.381 C263.639,617.339 264.097,616.819 265.014,616.819 C265.212,616.819 265.521,616.884 265.943,617.014 C266.365,617.144 267.277,617.355 268.678,617.647 C270.079,617.938 271.527,618.084 273.021,618.084"/>
</svg>
