<?xml version="1.0" encoding="UTF-8" standalone="no"?>
<svg width="2977.2px" height="4208.4px" viewBox="0 0 2977.2 4208.4"
 xmlns="http://www.w3.org/2000/svg" xmlns:xlink="http://www.w3.org/1999/xlink" version="1.2" baseProfile="tiny">
<title>Dbmaj_Scale.mscx</title>
<desc>Generated by MuseScore Studio 4.3.1</desc>
<path class="" fill="#ffffff" fill-rule="evenodd" d="M0,0 L2977.2,0 L2977.2,4208.4 L0,4208.4 L0,0 "/>
<polyline class="StaffLines" fill="none" stroke="#000000" stroke-width="2.00" stroke-linejoin="bevel" points="141.732,566.733 2835.47,566.733"/>
<polyline class="StaffLines" fill="none" stroke="#000000" stroke-width="2.00" stroke-linejoin="bevel" points="141.732,591.733 2835.47,591.733"/>
<polyline class="StaffLines" fill="none" stroke="#000000" stroke-width="2.00" stroke-linejoin="bevel" points="141.732,616.733 2835.47,616.733"/>
<polyline class="StaffLines" fill="none" stroke="#000000" stroke-width="2.00" stroke-linejoin="bevel" points="141.732,641.733 2835.47,641.733"/>
<polyline class="StaffLines" fill="none" stroke="#000000" stroke-width="2.00" stroke-linejoin="bevel" points="141.732,666.733 2835.47,666.733"/>
<polyline class="BarLine" fill="none" stroke="#000000" stroke-width="4.00" stroke-linejoin="bevel" points="1591.71,565.733 1591.71,667.733"/>
<polyline class="BarLine" fill="none" stroke="#000000" stroke-width="4.00" stroke-linejoin="bevel" points="2802.72,565.733 2802.72,667.733"/>
<polyline class="BarLine" fill="none" stroke="#000000" stroke-width="12.50" stroke-linejoin="bevel" points="2829.22,565.733 2829.22,667.733"/>
<polyline class="BarLine" fill="none" stroke="#000000" stroke-width="4.00" stroke-linejoin="bevel" points="1280.89,565.733 1280.89,667.733"/>
<polyline class="BarLine" fill="none" stroke="#000000" stroke-width="4.00" stroke-linejoin="bevel" points="2544.21,565.733 2544.21,667.733"/>
<polyline class="BarLine" fill="none" stroke="#000000" stroke-width="4.00" stroke-linejoin="bevel" points="1902.54,565.733 1902.54,667.733"/>
<polyline class="BarLine" fill="none" stroke="#000000" stroke-width="4.00" stroke-linejoin="bevel" points="2233.38,565.733 2233.38,667.733"/>
<polyline class="BarLine" fill="none" stroke="#000000" stroke-width="4.00" stroke-linejoin="bevel" points="950.043,565.733 950.043,667.733"/>
<polyline class="BarLine" fill="none" stroke="#000000" stroke-width="4.00" stroke-linejoin="bevel" points="639.216,565.733 639.216,667.733"/>
<path class="Accidental" d="M1913.43,559.311 L1912.16,497.201 C1912.16,496.222 1912.93,495.733 1914.46,495.733 C1915.99,495.733 1916.76,496.222 1916.76,497.201 L1915.98,531.092 C1917.74,529.332 1919.25,528.11 1920.52,527.428 C1921.78,526.746 1923.51,526.404 1925.69,526.404 C1927.87,526.404 1929.89,527.412 1931.74,529.428 C1933.6,531.444 1934.52,533.951 1934.52,536.951 C1934.52,541.441 1929.8,547.66 1920.37,555.608 C1916.86,558.795 1915.03,560.389 1914.9,560.389 L1914.32,560.389 C1913.73,560.389 1913.43,560.029 1913.43,559.311 M1915.88,534.217 L1915.59,556.389 C1917.61,554.493 1919.66,551.347 1921.74,546.951 C1923.83,542.556 1924.87,538.795 1924.87,535.67 C1924.87,534.108 1924.61,532.675 1924.09,531.373 C1923.57,530.071 1922.75,529.42 1921.64,529.42 C1920.53,529.42 1919.54,529.811 1918.66,530.592 C1917.78,531.373 1916.85,532.582 1915.88,534.217"/>
<path class="Accidental" d="M1412.22,521.811 L1410.96,459.701 C1410.96,458.722 1411.72,458.233 1413.25,458.233 C1414.78,458.233 1415.55,458.722 1415.55,459.701 L1414.77,493.592 C1416.53,491.832 1418.04,490.61 1419.31,489.928 C1420.57,489.246 1422.3,488.904 1424.48,488.904 C1426.66,488.904 1428.68,489.912 1430.53,491.928 C1432.39,493.944 1433.32,496.451 1433.32,499.451 C1433.32,503.941 1428.6,510.16 1419.16,518.108 C1415.65,521.295 1413.83,522.889 1413.69,522.889 L1413.11,522.889 C1412.52,522.889 1412.22,522.529 1412.22,521.811 M1414.68,496.717 L1414.38,518.889 C1416.4,516.993 1418.45,513.847 1420.53,509.451 C1422.62,505.056 1423.66,501.295 1423.66,498.17 C1423.66,496.608 1423.4,495.175 1422.88,493.873 C1422.36,492.571 1421.54,491.92 1420.43,491.92 C1419.32,491.92 1418.33,492.311 1417.45,493.092 C1416.57,493.873 1415.64,495.082 1414.68,496.717"/>
<path class="Accidental" d="M2555.1,609.311 L2553.83,547.201 C2553.83,546.222 2554.6,545.733 2556.13,545.733 C2557.66,545.733 2558.43,546.222 2558.43,547.201 L2557.65,581.092 C2559.41,579.332 2560.92,578.11 2562.19,577.428 C2563.45,576.746 2565.17,576.405 2567.36,576.405 C2569.54,576.405 2571.56,577.412 2573.41,579.428 C2575.27,581.444 2576.19,583.951 2576.19,586.951 C2576.19,591.441 2571.47,597.66 2562.04,605.608 C2558.53,608.795 2556.7,610.389 2556.57,610.389 L2555.99,610.389 C2555.4,610.389 2555.1,610.03 2555.1,609.311 M2557.55,584.217 L2557.26,606.389 C2559.28,604.493 2561.33,601.347 2563.41,596.951 C2565.49,592.556 2566.54,588.795 2566.54,585.67 C2566.54,584.108 2566.28,582.675 2565.76,581.373 C2565.23,580.071 2564.42,579.42 2563.31,579.42 C2562.2,579.42 2561.21,579.811 2560.33,580.592 C2559.45,581.373 2558.52,582.582 2557.55,584.217"/>
<path class="Accidental" d="M1101.4,546.811 L1100.13,484.701 C1100.13,483.722 1100.9,483.233 1102.43,483.233 C1103.96,483.233 1104.72,483.722 1104.72,484.701 L1103.94,518.592 C1105.7,516.832 1107.22,515.61 1108.48,514.928 C1109.75,514.246 1111.47,513.904 1113.65,513.904 C1115.84,513.904 1117.85,514.912 1119.71,516.928 C1121.56,518.944 1122.49,521.451 1122.49,524.451 C1122.49,528.941 1117.77,535.16 1108.33,543.108 C1104.82,546.295 1103,547.889 1102.86,547.889 L1102.29,547.889 C1101.69,547.889 1101.4,547.529 1101.4,546.811 M1103.85,521.717 L1103.55,543.889 C1105.57,541.993 1107.62,538.847 1109.71,534.451 C1111.79,530.056 1112.83,526.295 1112.83,523.17 C1112.83,521.608 1112.57,520.175 1112.05,518.873 C1111.53,517.571 1110.72,516.92 1109.61,516.92 C1108.5,516.92 1107.5,517.311 1106.62,518.092 C1105.74,518.873 1104.82,520.082 1103.85,521.717"/>
<path class="Accidental" d="M2374.22,596.811 L2372.95,534.701 C2372.95,533.722 2373.72,533.233 2375.25,533.233 C2376.78,533.233 2377.55,533.722 2377.55,534.701 L2376.77,568.592 C2378.53,566.832 2380.04,565.61 2381.3,564.928 C2382.57,564.246 2384.29,563.905 2386.48,563.905 C2388.66,563.905 2390.68,564.912 2392.53,566.928 C2394.39,568.944 2395.31,571.451 2395.31,574.451 C2395.31,578.941 2390.59,585.16 2381.16,593.108 C2377.65,596.295 2375.82,597.889 2375.69,597.889 L2375.11,597.889 C2374.52,597.889 2374.22,597.53 2374.22,596.811 M2376.67,571.717 L2376.38,593.889 C2378.4,591.993 2380.45,588.847 2382.53,584.451 C2384.61,580.056 2385.66,576.295 2385.66,573.17 C2385.66,571.608 2385.4,570.175 2384.88,568.873 C2384.35,567.571 2383.54,566.92 2382.43,566.92 C2381.32,566.92 2380.33,567.311 2379.45,568.092 C2378.57,568.873 2377.64,570.082 2376.67,571.717"/>
<path class="Accidental" d="M960.933,559.311 L959.668,497.201 C959.668,496.222 960.433,495.733 961.964,495.733 C963.496,495.733 964.261,496.222 964.261,497.201 L963.48,531.092 C965.241,529.332 966.754,528.11 968.019,527.428 C969.285,526.746 971.009,526.404 973.191,526.404 C975.373,526.404 977.392,527.412 979.246,529.428 C981.1,531.444 982.027,533.951 982.027,536.951 C982.027,541.441 977.308,547.66 967.871,555.608 C964.36,558.795 962.537,560.389 962.402,560.389 L961.824,560.389 C961.23,560.389 960.933,560.029 960.933,559.311 M963.386,534.217 L963.089,556.389 C965.11,554.493 967.162,551.347 969.246,546.951 C971.329,542.556 972.371,538.795 972.371,535.67 C972.371,534.108 972.11,532.675 971.589,531.373 C971.069,530.071 970.254,529.42 969.144,529.42 C968.035,529.42 967.04,529.811 966.16,530.592 C965.28,531.373 964.355,532.582 963.386,534.217"/>
<path class="Accidental" d="M1723.05,546.811 L1721.78,484.701 C1721.78,483.722 1722.55,483.233 1724.08,483.233 C1725.61,483.233 1726.38,483.722 1726.38,484.701 L1725.6,518.592 C1727.36,516.832 1728.87,515.61 1730.14,514.928 C1731.4,514.246 1733.12,513.904 1735.31,513.904 C1737.49,513.904 1739.51,514.912 1741.36,516.928 C1743.22,518.944 1744.14,521.451 1744.14,524.451 C1744.14,528.941 1739.42,535.16 1729.99,543.108 C1726.48,546.295 1724.65,547.889 1724.52,547.889 L1723.94,547.889 C1723.35,547.889 1723.05,547.529 1723.05,546.811 M1725.5,521.717 L1725.21,543.889 C1727.23,541.993 1729.28,538.847 1731.36,534.451 C1733.45,530.056 1734.49,526.295 1734.49,523.17 C1734.49,521.608 1734.23,520.175 1733.71,518.873 C1733.18,517.571 1732.37,516.92 1731.26,516.92 C1730.15,516.92 1729.16,517.311 1728.28,518.092 C1727.4,518.873 1726.47,520.082 1725.5,521.717"/>
<path class="Accidental" d="M328.764,609.311 L327.498,547.201 C327.498,546.222 328.264,545.733 329.795,545.733 C331.326,545.733 332.092,546.222 332.092,547.201 L331.311,581.092 C333.071,579.332 334.584,578.11 335.85,577.428 C337.115,576.746 338.839,576.405 341.022,576.405 C343.204,576.405 345.222,577.412 347.076,579.428 C348.93,581.444 349.857,583.951 349.857,586.951 C349.857,591.441 345.139,597.66 335.701,605.608 C332.191,608.795 330.368,610.389 330.232,610.389 L329.654,610.389 C329.061,610.389 328.764,610.03 328.764,609.311 M331.217,584.217 L330.92,606.389 C332.941,604.493 334.993,601.347 337.076,596.951 C339.16,592.556 340.201,588.795 340.201,585.67 C340.201,584.108 339.941,582.675 339.42,581.373 C338.899,580.071 338.084,579.42 336.975,579.42 C335.865,579.42 334.87,579.811 333.99,580.592 C333.11,581.373 332.186,582.582 331.217,584.217"/>
<path class="Accidental" d="M469.226,596.811 L467.96,534.701 C467.96,533.722 468.726,533.233 470.257,533.233 C471.789,533.233 472.554,533.722 472.554,534.701 L471.773,568.592 C473.533,566.832 475.046,565.61 476.312,564.928 C477.578,564.246 479.302,563.905 481.484,563.905 C483.666,563.905 485.684,564.912 487.539,566.928 C489.393,568.944 490.32,571.451 490.32,574.451 C490.32,578.941 485.601,585.16 476.164,593.108 C472.653,596.295 470.83,597.889 470.695,597.889 L470.117,597.889 C469.523,597.889 469.226,597.53 469.226,596.811 M471.679,571.717 L471.382,593.889 C473.403,591.993 475.455,588.847 477.539,584.451 C479.622,580.056 480.664,576.295 480.664,573.17 C480.664,571.608 480.403,570.175 479.882,568.873 C479.361,567.571 478.546,566.92 477.437,566.92 C476.328,566.92 475.333,567.311 474.453,568.092 C473.572,568.873 472.648,570.082 471.679,571.717"/>
<path class="Accidental" d="M780.053,571.811 L778.787,509.701 C778.787,508.722 779.553,508.233 781.084,508.233 C782.615,508.233 783.381,508.722 783.381,509.701 L782.6,543.592 C784.36,541.832 785.873,540.61 787.139,539.928 C788.404,539.246 790.128,538.904 792.311,538.904 C794.493,538.904 796.511,539.912 798.365,541.928 C800.22,543.944 801.147,546.451 801.147,549.451 C801.147,553.941 796.428,560.16 786.99,568.108 C783.48,571.295 781.657,572.889 781.522,572.889 L780.944,572.889 C780.35,572.889 780.053,572.529 780.053,571.811 M782.506,546.717 L782.209,568.889 C784.23,566.993 786.282,563.847 788.365,559.451 C790.449,555.056 791.49,551.295 791.49,548.17 C791.49,546.608 791.23,545.175 790.709,543.873 C790.188,542.571 789.373,541.92 788.264,541.92 C787.154,541.92 786.16,542.311 785.279,543.092 C784.399,543.873 783.475,545.082 782.506,546.717"/>
<path class="Accidental" d="M2063.39,571.811 L2062.13,509.701 C2062.13,508.722 2062.89,508.233 2064.42,508.233 C2065.95,508.233 2066.72,508.722 2066.72,509.701 L2065.94,543.592 C2067.7,541.832 2069.21,540.61 2070.48,539.928 C2071.74,539.246 2073.47,538.904 2075.65,538.904 C2077.83,538.904 2079.85,539.912 2081.7,541.928 C2083.56,543.944 2084.49,546.451 2084.49,549.451 C2084.49,553.941 2079.77,560.16 2070.33,568.108 C2066.82,571.295 2065,572.889 2064.86,572.889 L2064.28,572.889 C2063.69,572.889 2063.39,572.529 2063.39,571.811 M2065.85,546.717 L2065.55,568.889 C2067.57,566.993 2069.62,563.847 2071.7,559.451 C2073.79,555.056 2074.83,551.295 2074.83,548.17 C2074.83,546.608 2074.57,545.175 2074.05,543.873 C2073.53,542.571 2072.71,541.92 2071.6,541.92 C2070.49,541.92 2069.5,542.311 2068.62,543.092 C2067.74,543.873 2066.81,545.082 2065.85,546.717"/>
<polyline class="LedgerLine" fill="none" stroke="#000000" stroke-width="4.00" stroke-linejoin="bevel" points="1749.67,541.733 1803.39,541.733"/>
<polyline class="LedgerLine" fill="none" stroke="#000000" stroke-width="4.00" stroke-linejoin="bevel" points="1609.21,516.733 1662.93,516.733"/>
<polyline class="LedgerLine" fill="none" stroke="#000000" stroke-width="4.00" stroke-linejoin="bevel" points="1609.21,541.733 1662.93,541.733"/>
<polyline class="LedgerLine" fill="none" stroke="#000000" stroke-width="4.00" stroke-linejoin="bevel" points="1940.05,541.733 1993.77,541.733"/>
<polyline class="LedgerLine" fill="none" stroke="#000000" stroke-width="4.00" stroke-linejoin="bevel" points="1438.85,541.733 1492.57,541.733"/>
<polyline class="LedgerLine" fill="none" stroke="#000000" stroke-width="4.00" stroke-linejoin="bevel" points="1438.85,516.733 1492.57,516.733"/>
<polyline class="LedgerLine" fill="none" stroke="#000000" stroke-width="4.00" stroke-linejoin="bevel" points="1298.39,516.733 1352.1,516.733"/>
<polyline class="LedgerLine" fill="none" stroke="#000000" stroke-width="4.00" stroke-linejoin="bevel" points="1298.39,541.733 1352.1,541.733"/>
<polyline class="LedgerLine" fill="none" stroke="#000000" stroke-width="4.00" stroke-linejoin="bevel" points="1128.02,541.733 1181.74,541.733"/>
<polyline class="LedgerLine" fill="none" stroke="#000000" stroke-width="4.00" stroke-linejoin="bevel" points="987.558,541.733 1041.28,541.733"/>
<polyline class="Stem" fill="none" stroke="#000000" stroke-width="3.25" stroke-linejoin="bevel" points="1449.97,509.133 1449.97,616.733"/>
<polyline class="Stem" fill="none" stroke="#000000" stroke-width="3.25" stroke-linejoin="bevel" points="357.014,596.633 357.014,679.233"/>
<polyline class="Stem" fill="none" stroke="#000000" stroke-width="3.25" stroke-linejoin="bevel" points="2402.47,584.133 2402.47,666.733"/>
<polyline class="Stem" fill="none" stroke="#000000" stroke-width="3.25" stroke-linejoin="bevel" points="2262.01,571.633 2262.01,654.233"/>
<polyline class="Stem" fill="none" stroke="#000000" stroke-width="3.25" stroke-linejoin="bevel" points="497.476,584.133 497.476,666.733"/>
<polyline class="Stem" fill="none" stroke="#000000" stroke-width="3.25" stroke-linejoin="bevel" points="667.841,571.633 667.841,654.233"/>
<polyline class="Stem" fill="none" stroke="#000000" stroke-width="3.25" stroke-linejoin="bevel" points="2091.64,559.133 2091.64,641.733"/>
<polyline class="Stem" fill="none" stroke="#000000" stroke-width="3.25" stroke-linejoin="bevel" points="808.303,559.133 808.303,641.733"/>
<polyline class="Stem" fill="none" stroke="#000000" stroke-width="3.25" stroke-linejoin="bevel" points="1951.18,546.633 1951.18,629.233"/>
<polyline class="Stem" fill="none" stroke="#000000" stroke-width="3.25" stroke-linejoin="bevel" points="998.683,546.633 998.683,629.233"/>
<polyline class="Stem" fill="none" stroke="#000000" stroke-width="3.25" stroke-linejoin="bevel" points="1760.8,534.133 1760.8,616.733"/>
<polyline class="Stem" fill="none" stroke="#000000" stroke-width="3.25" stroke-linejoin="bevel" points="1139.15,534.133 1139.15,616.733"/>
<polyline class="Stem" fill="none" stroke="#000000" stroke-width="3.25" stroke-linejoin="bevel" points="1620.34,521.633 1620.34,616.733"/>
<polyline class="Stem" fill="none" stroke="#000000" stroke-width="3.25" stroke-linejoin="bevel" points="1309.51,521.633 1309.51,616.733"/>
<path class="Note" d="M1004.48,552.373 C1006.37,552.373 1010.32,550.42 1016.35,546.514 C1022.37,542.608 1025.92,539.988 1027,538.654 C1028.07,537.321 1028.61,536.134 1028.61,535.092 C1028.61,534.05 1028.18,533.123 1027.33,532.311 C1026.48,531.498 1025.51,531.092 1024.4,531.092 C1022.45,531.092 1018.47,533.061 1012.44,536.998 C1006.42,540.936 1002.88,543.556 1001.84,544.858 C1000.8,546.16 1000.28,547.332 1000.28,548.373 C1000.28,549.415 1000.69,550.342 1001.5,551.154 C1002.32,551.967 1003.31,552.373 1004.48,552.373 M1023.43,527.967 C1029.03,527.967 1031.82,530.373 1031.82,535.186 C1031.82,537.529 1031.14,540.248 1029.78,543.342 C1028.41,546.436 1026.59,548.795 1024.31,550.42 C1019.3,553.806 1013.02,555.498 1005.46,555.498 C999.86,555.498 997.058,553.092 997.058,548.279 C997.058,546.134 997.725,543.464 999.058,540.272 C1000.39,537.079 1002.23,534.67 1004.57,533.045 C1009.59,529.66 1015.88,527.967 1023.43,527.967"/>
<path class="Note" d="M2598.82,597.201 C2601.68,601.045 2605.36,602.967 2609.85,602.967 C2614.34,602.967 2616.58,599.941 2616.58,593.889 C2616.58,591.014 2615.77,588.472 2614.15,586.264 C2611.34,582.42 2607.57,580.498 2602.82,580.498 C2600.73,580.498 2599.14,581.36 2598.04,583.084 C2596.93,584.808 2596.38,587.04 2596.38,589.78 C2596.38,592.519 2597.19,594.993 2598.82,597.201 M2589.15,581.967 C2594.03,579.3 2599.91,577.967 2606.78,577.967 C2613.65,577.967 2619.44,579.334 2624.16,582.069 C2628.88,584.803 2631.24,588.058 2631.24,591.834 C2631.24,595.61 2628.8,598.832 2623.91,601.498 C2619.03,604.165 2613.18,605.498 2606.38,605.498 C2599.58,605.498 2593.77,604.131 2588.95,601.397 C2584.13,598.662 2581.72,595.376 2581.72,591.537 C2581.72,587.699 2584.2,584.509 2589.15,581.967"/>
<path class="Note" d="M1315.31,527.373 C1317.19,527.373 1321.15,525.42 1327.17,521.514 C1333.2,517.608 1336.75,514.988 1337.82,513.654 C1338.9,512.321 1339.43,511.134 1339.43,510.092 C1339.43,509.05 1339.01,508.123 1338.16,507.311 C1337.31,506.498 1336.33,506.092 1335.23,506.092 C1333.28,506.092 1329.29,508.061 1323.27,511.998 C1317.24,515.936 1313.71,518.556 1312.67,519.858 C1311.62,521.16 1311.1,522.332 1311.1,523.373 C1311.1,524.415 1311.51,525.342 1312.33,526.154 C1313.15,526.967 1314.14,527.373 1315.31,527.373 M1334.26,502.967 C1339.85,502.967 1342.65,505.373 1342.65,510.186 C1342.65,512.529 1341.97,515.248 1340.6,518.342 C1339.24,521.436 1337.42,523.795 1335.14,525.42 C1330.12,528.806 1323.84,530.498 1316.29,530.498 C1310.69,530.498 1307.89,528.092 1307.89,523.279 C1307.89,521.134 1308.55,518.464 1309.89,515.272 C1311.22,512.079 1313.06,509.67 1315.4,508.045 C1320.42,504.66 1326.71,502.967 1334.26,502.967"/>
<path class="Note" d="M362.811,602.373 C364.696,602.373 368.652,600.42 374.678,596.514 C380.704,592.608 384.253,589.988 385.326,588.655 C386.399,587.321 386.936,586.134 386.936,585.092 C386.936,584.05 386.511,583.123 385.662,582.311 C384.813,581.498 383.837,581.092 382.732,581.092 C380.785,581.092 376.798,583.061 370.772,586.998 C364.746,590.936 361.212,593.556 360.17,594.858 C359.128,596.16 358.607,597.332 358.607,598.373 C358.607,599.415 359.016,600.342 359.834,601.155 C360.652,601.967 361.644,602.373 362.811,602.373 M381.764,577.967 C387.357,577.967 390.154,580.373 390.154,585.186 C390.154,587.53 389.472,590.248 388.107,593.342 C386.743,596.436 384.92,598.795 382.639,600.42 C377.628,603.806 371.347,605.498 363.795,605.498 C358.191,605.498 355.389,603.092 355.389,598.28 C355.389,596.134 356.055,593.464 357.389,590.272 C358.722,587.079 360.561,584.67 362.904,583.045 C367.925,579.66 374.212,577.967 381.764,577.967"/>
<path class="Note" d="M2408.27,589.873 C2410.15,589.873 2414.11,587.92 2420.13,584.014 C2426.16,580.108 2429.71,577.488 2430.78,576.155 C2431.85,574.821 2432.39,573.634 2432.39,572.592 C2432.39,571.55 2431.97,570.623 2431.12,569.811 C2430.27,568.998 2429.29,568.592 2428.19,568.592 C2426.24,568.592 2422.25,570.561 2416.23,574.498 C2410.2,578.436 2406.67,581.056 2405.63,582.358 C2404.58,583.66 2404.06,584.832 2404.06,585.873 C2404.06,586.915 2404.47,587.842 2405.29,588.655 C2406.11,589.467 2407.1,589.873 2408.27,589.873 M2427.22,565.467 C2432.81,565.467 2435.61,567.873 2435.61,572.686 C2435.61,575.03 2434.93,577.748 2433.56,580.842 C2432.2,583.936 2430.38,586.295 2428.09,587.92 C2423.08,591.306 2416.8,592.998 2409.25,592.998 C2403.65,592.998 2400.84,590.592 2400.84,585.78 C2400.84,583.634 2401.51,580.964 2402.84,577.772 C2404.18,574.579 2406.02,572.17 2408.36,570.545 C2413.38,567.16 2419.67,565.467 2427.22,565.467"/>
<path class="Note" d="M2267.8,577.373 C2269.69,577.373 2273.64,575.42 2279.67,571.514 C2285.7,567.608 2289.25,564.988 2290.32,563.655 C2291.39,562.321 2291.93,561.134 2291.93,560.092 C2291.93,559.05 2291.5,558.123 2290.66,557.311 C2289.81,556.498 2288.83,556.092 2287.73,556.092 C2285.78,556.092 2281.79,558.061 2275.76,561.998 C2269.74,565.936 2266.2,568.556 2265.16,569.858 C2264.12,571.16 2263.6,572.332 2263.6,573.373 C2263.6,574.415 2264.01,575.342 2264.83,576.155 C2265.64,576.967 2266.64,577.373 2267.8,577.373 M2286.76,552.967 C2292.35,552.967 2295.15,555.373 2295.15,560.186 C2295.15,562.53 2294.46,565.248 2293.1,568.342 C2291.74,571.436 2289.91,573.795 2287.63,575.42 C2282.62,578.806 2276.34,580.498 2268.79,580.498 C2263.18,580.498 2260.38,578.092 2260.38,573.28 C2260.38,571.134 2261.05,568.464 2262.38,565.272 C2263.71,562.079 2265.55,559.67 2267.9,558.045 C2272.92,554.66 2279.2,552.967 2286.76,552.967"/>
<path class="Note" d="M1455.77,514.873 C1457.65,514.873 1461.61,512.92 1467.64,509.014 C1473.66,505.108 1477.21,502.488 1478.28,501.154 C1479.36,499.821 1479.89,498.634 1479.89,497.592 C1479.89,496.55 1479.47,495.623 1478.62,494.811 C1477.77,493.998 1476.8,493.592 1475.69,493.592 C1473.74,493.592 1469.76,495.561 1463.73,499.498 C1457.7,503.436 1454.17,506.056 1453.13,507.358 C1452.09,508.66 1451.57,509.832 1451.57,510.873 C1451.57,511.915 1451.98,512.842 1452.79,513.654 C1453.61,514.467 1454.6,514.873 1455.77,514.873 M1474.72,490.467 C1480.32,490.467 1483.11,492.873 1483.11,497.686 C1483.11,500.029 1482.43,502.748 1481.07,505.842 C1479.7,508.936 1477.88,511.295 1475.6,512.92 C1470.59,516.306 1464.31,517.998 1456.75,517.998 C1451.15,517.998 1448.35,515.592 1448.35,510.779 C1448.35,508.634 1449.01,505.964 1450.35,502.772 C1451.68,499.579 1453.52,497.17 1455.86,495.545 C1460.88,492.16 1467.17,490.467 1474.72,490.467"/>
<path class="Note" d="M503.273,589.873 C505.158,589.873 509.114,587.92 515.14,584.014 C521.166,580.108 524.716,577.488 525.789,576.155 C526.861,574.821 527.398,573.634 527.398,572.592 C527.398,571.55 526.973,570.623 526.124,569.811 C525.276,568.998 524.299,568.592 523.195,568.592 C521.247,568.592 517.26,570.561 511.234,574.498 C505.208,578.436 501.674,581.056 500.632,582.358 C499.591,583.66 499.07,584.832 499.07,585.873 C499.07,586.915 499.479,587.842 500.296,588.655 C501.114,589.467 502.106,589.873 503.273,589.873 M522.226,565.467 C527.82,565.467 530.617,567.873 530.617,572.686 C530.617,575.03 529.934,577.748 528.57,580.842 C527.205,583.936 525.382,586.295 523.101,587.92 C518.091,591.306 511.809,592.998 504.257,592.998 C498.653,592.998 495.851,590.592 495.851,585.78 C495.851,583.634 496.518,580.964 497.851,577.772 C499.184,574.579 501.023,572.17 503.367,570.545 C508.387,567.16 514.674,565.467 522.226,565.467"/>
<path class="Note" d="M1144.94,539.873 C1146.83,539.873 1150.78,537.92 1156.81,534.014 C1162.84,530.108 1166.39,527.488 1167.46,526.154 C1168.53,524.821 1169.07,523.634 1169.07,522.592 C1169.07,521.55 1168.64,520.623 1167.79,519.811 C1166.94,518.998 1165.97,518.592 1164.86,518.592 C1162.92,518.592 1158.93,520.561 1152.9,524.498 C1146.88,528.436 1143.34,531.056 1142.3,532.358 C1141.26,533.66 1140.74,534.832 1140.74,535.873 C1140.74,536.915 1141.15,537.842 1141.97,538.654 C1142.78,539.467 1143.78,539.873 1144.94,539.873 M1163.9,515.467 C1169.49,515.467 1172.29,517.873 1172.29,522.686 C1172.29,525.029 1171.6,527.748 1170.24,530.842 C1168.87,533.936 1167.05,536.295 1164.77,537.92 C1159.76,541.306 1153.48,542.998 1145.93,542.998 C1140.32,542.998 1137.52,540.592 1137.52,535.779 C1137.52,533.634 1138.19,530.964 1139.52,527.772 C1140.85,524.579 1142.69,522.17 1145.04,520.545 C1150.06,517.16 1156.34,515.467 1163.9,515.467"/>
<path class="Note" d="M2097.44,564.873 C2099.32,564.873 2103.28,562.92 2109.31,559.014 C2115.33,555.108 2118.88,552.488 2119.95,551.154 C2121.03,549.821 2121.56,548.634 2121.56,547.592 C2121.56,546.55 2121.14,545.623 2120.29,544.811 C2119.44,543.998 2118.46,543.592 2117.36,543.592 C2115.41,543.592 2111.43,545.561 2105.4,549.498 C2099.37,553.436 2095.84,556.056 2094.8,557.358 C2093.76,558.66 2093.24,559.832 2093.24,560.873 C2093.24,561.915 2093.64,562.842 2094.46,563.654 C2095.28,564.467 2096.27,564.873 2097.44,564.873 M2116.39,540.467 C2121.99,540.467 2124.78,542.873 2124.78,547.686 C2124.78,550.029 2124.1,552.748 2122.74,555.842 C2121.37,558.936 2119.55,561.295 2117.27,562.92 C2112.26,566.306 2105.98,567.998 2098.42,567.998 C2092.82,567.998 2090.02,565.592 2090.02,560.779 C2090.02,558.634 2090.68,555.964 2092.02,552.772 C2093.35,549.579 2095.19,547.17 2097.53,545.545 C2102.55,542.16 2108.84,540.467 2116.39,540.467"/>
<path class="Note" d="M673.638,577.373 C675.523,577.373 679.479,575.42 685.505,571.514 C691.531,567.608 695.08,564.988 696.153,563.655 C697.226,562.321 697.763,561.134 697.763,560.092 C697.763,559.05 697.338,558.123 696.489,557.311 C695.64,556.498 694.664,556.092 693.559,556.092 C691.612,556.092 687.625,558.061 681.598,561.998 C675.572,565.936 672.039,568.556 670.997,569.858 C669.955,571.16 669.434,572.332 669.434,573.373 C669.434,574.415 669.843,575.342 670.661,576.155 C671.479,576.967 672.471,577.373 673.638,577.373 M692.591,552.967 C698.184,552.967 700.981,555.373 700.981,560.186 C700.981,562.53 700.299,565.248 698.934,568.342 C697.57,571.436 695.747,573.795 693.466,575.42 C688.455,578.806 682.174,580.498 674.622,580.498 C669.018,580.498 666.216,578.092 666.216,573.28 C666.216,571.134 666.882,568.464 668.216,565.272 C669.549,562.079 671.388,559.67 673.731,558.045 C678.752,554.66 685.039,552.967 692.591,552.967"/>
<path class="Note" d="M1956.98,552.373 C1958.86,552.373 1962.82,550.42 1968.84,546.514 C1974.87,542.608 1978.42,539.988 1979.49,538.654 C1980.57,537.321 1981.1,536.134 1981.1,535.092 C1981.1,534.05 1980.68,533.123 1979.83,532.311 C1978.98,531.498 1978,531.092 1976.9,531.092 C1974.95,531.092 1970.96,533.061 1964.94,536.998 C1958.91,540.936 1955.38,543.556 1954.34,544.858 C1953.29,546.16 1952.77,547.332 1952.77,548.373 C1952.77,549.415 1953.18,550.342 1954,551.154 C1954.82,551.967 1955.81,552.373 1956.98,552.373 M1975.93,527.967 C1981.52,527.967 1984.32,530.373 1984.32,535.186 C1984.32,537.529 1983.64,540.248 1982.27,543.342 C1980.91,546.436 1979.09,548.795 1976.8,550.42 C1971.79,553.806 1965.51,555.498 1957.96,555.498 C1952.36,555.498 1949.55,553.092 1949.55,548.279 C1949.55,546.134 1950.22,543.464 1951.55,540.272 C1952.89,537.079 1954.73,534.67 1957.07,533.045 C1962.09,529.66 1968.38,527.967 1975.93,527.967"/>
<path class="Note" d="M1626.13,527.373 C1628.02,527.373 1631.98,525.42 1638,521.514 C1644.03,517.608 1647.58,514.988 1648.65,513.654 C1649.72,512.321 1650.26,511.134 1650.26,510.092 C1650.26,509.05 1649.83,508.123 1648.99,507.311 C1648.14,506.498 1647.16,506.092 1646.06,506.092 C1644.11,506.092 1640.12,508.061 1634.09,511.998 C1628.07,515.936 1624.54,518.556 1623.49,519.858 C1622.45,521.16 1621.93,522.332 1621.93,523.373 C1621.93,524.415 1622.34,525.342 1623.16,526.154 C1623.98,526.967 1624.97,527.373 1626.13,527.373 M1645.09,502.967 C1650.68,502.967 1653.48,505.373 1653.48,510.186 C1653.48,512.529 1652.8,515.248 1651.43,518.342 C1650.07,521.436 1648.24,523.795 1645.96,525.42 C1640.95,528.806 1634.67,530.498 1627.12,530.498 C1621.51,530.498 1618.71,528.092 1618.71,523.279 C1618.71,521.134 1619.38,518.464 1620.71,515.272 C1622.05,512.079 1623.88,509.67 1626.23,508.045 C1631.25,504.66 1637.54,502.967 1645.09,502.967"/>
<path class="Note" d="M814.1,564.873 C815.985,564.873 819.941,562.92 825.967,559.014 C831.993,555.108 835.543,552.488 836.615,551.154 C837.688,549.821 838.225,548.634 838.225,547.592 C838.225,546.55 837.8,545.623 836.951,544.811 C836.102,543.998 835.126,543.592 834.022,543.592 C832.074,543.592 828.087,545.561 822.061,549.498 C816.035,553.436 812.501,556.056 811.459,557.358 C810.418,558.66 809.897,559.832 809.897,560.873 C809.897,561.915 810.306,562.842 811.123,563.654 C811.941,564.467 812.933,564.873 814.1,564.873 M833.053,540.467 C838.647,540.467 841.444,542.873 841.444,547.686 C841.444,550.029 840.761,552.748 839.397,555.842 C838.032,558.936 836.209,561.295 833.928,562.92 C828.918,566.306 822.636,567.998 815.084,567.998 C809.48,567.998 806.678,565.592 806.678,560.779 C806.678,558.634 807.345,555.964 808.678,552.772 C810.011,549.579 811.85,547.17 814.194,545.545 C819.214,542.16 825.501,540.467 833.053,540.467"/>
<path class="Note" d="M1766.6,539.873 C1768.48,539.873 1772.44,537.92 1778.46,534.014 C1784.49,530.108 1788.04,527.488 1789.11,526.154 C1790.18,524.821 1790.72,523.634 1790.72,522.592 C1790.72,521.55 1790.3,520.623 1789.45,519.811 C1788.6,518.998 1787.62,518.592 1786.52,518.592 C1784.57,518.592 1780.58,520.561 1774.56,524.498 C1768.53,528.436 1765,531.056 1763.96,532.358 C1762.91,533.66 1762.39,534.832 1762.39,535.873 C1762.39,536.915 1762.8,537.842 1763.62,538.654 C1764.44,539.467 1765.43,539.873 1766.6,539.873 M1785.55,515.467 C1791.14,515.467 1793.94,517.873 1793.94,522.686 C1793.94,525.029 1793.26,527.748 1791.89,530.842 C1790.53,533.936 1788.71,536.295 1786.42,537.92 C1781.41,541.306 1775.13,542.998 1767.58,542.998 C1761.98,542.998 1759.17,540.592 1759.17,535.779 C1759.17,533.634 1759.84,530.964 1761.17,527.772 C1762.51,524.579 1764.35,522.17 1766.69,520.545 C1771.71,517.16 1778,515.467 1785.55,515.467"/>
<path class="Clef" d="M203.623,673.858 L203.623,671.717 C203.56,670.613 203.399,668.889 203.139,666.545 C199.889,667.066 196.993,667.326 194.451,667.326 C185.337,667.326 177.605,663.727 171.256,656.53 C164.907,649.332 161.732,640.754 161.732,630.795 C161.732,628.129 162.253,624.923 163.295,621.178 C164.337,617.433 165.297,614.925 166.178,613.655 C167.058,612.384 168.378,610.155 170.139,606.967 C170.659,605.988 172.352,603.837 175.217,600.514 C175.738,599.806 176.193,599.222 176.584,598.764 C176.975,598.306 177.607,597.49 178.482,596.319 C179.357,595.147 180.3,594.056 181.31,593.045 C182.321,592.035 183.217,591.058 183.998,590.115 C184.779,589.173 185.498,588.379 186.154,587.733 C183.81,579.983 182.378,574.024 181.857,569.858 C181.337,565.691 181.076,560.579 181.076,554.522 C181.076,548.464 182.378,542.962 184.982,538.014 C187.514,532.879 191.06,528.681 195.623,525.42 C195.883,525.222 196.225,525.123 196.646,525.123 C197.068,525.123 197.378,525.222 197.576,525.42 C201.087,529.649 204.128,535.149 206.701,541.92 C209.274,548.691 210.56,555.024 210.56,560.92 C210.56,566.816 209.066,572.498 206.076,577.967 C202.691,583.759 198.326,589.748 192.982,595.936 C194.347,600.227 196.17,606.962 198.451,616.139 L199.045,616.139 C199.305,616.076 199.529,616.045 199.717,616.045 C207.081,616.045 213.089,618.634 217.74,623.811 C222.391,628.988 224.717,634.962 224.717,641.733 C224.717,650.129 221.238,656.899 214.279,662.045 C212.258,663.545 209.878,664.717 207.139,665.561 C207.472,669.79 207.639,672.605 207.639,674.006 C207.639,675.407 207.571,677.899 207.435,681.483 C207.373,687.597 205.29,692.837 201.185,697.201 C197.081,701.566 192.394,703.748 187.123,703.748 C181.852,703.748 177.36,701.876 173.646,698.131 C169.933,694.386 168.076,689.847 168.076,684.514 C168.076,681.712 169.154,679.332 171.31,677.373 C173.519,675.425 176.006,674.451 178.771,674.451 C181.537,674.451 183.8,675.462 185.56,677.483 C187.383,679.368 188.295,681.644 188.295,684.311 C188.295,686.977 187.383,689.222 185.56,691.045 C183.738,692.868 181.555,693.78 179.014,693.78 C177.972,693.78 176.967,693.587 175.998,693.201 C178.863,697.431 182.54,699.545 187.029,699.545 C191.519,699.545 195.36,697.691 198.553,693.983 C201.745,690.274 203.342,685.91 203.342,680.889 L203.623,673.858 M206.748,661.561 C210.133,660.321 212.821,658.123 214.81,654.967 C216.8,651.811 217.795,648.67 217.795,645.545 C217.795,640.92 216.199,636.785 213.006,633.139 C209.813,629.493 205.774,627.441 200.889,626.983 C203.691,640.722 205.644,652.248 206.748,661.561 M168.967,638.998 C168.967,645.446 171.537,651.079 176.678,655.897 C181.818,660.714 187.842,663.123 194.748,663.123 C197.477,663.123 200.144,662.925 202.748,662.53 C201.706,652.634 199.654,640.785 196.592,626.983 C192.758,627.379 189.782,628.699 187.662,630.944 C185.542,633.188 184.482,635.743 184.482,638.608 C184.482,643.556 187.123,647.561 192.404,650.623 C192.852,650.884 193.076,651.324 193.076,651.944 C193.076,652.563 192.865,653.1 192.443,653.553 C192.021,654.006 191.649,654.233 191.326,654.233 C191.003,654.233 190.581,654.17 190.06,654.045 C182.435,649.879 178.623,643.592 178.623,635.186 C178.623,631.217 180.024,627.41 182.826,623.764 C185.753,620.118 189.56,617.774 194.248,616.733 C192.425,609.441 190.93,603.743 189.764,599.639 C180.847,609.67 175.31,617.092 173.154,621.905 C170.363,628.155 168.967,633.852 168.967,638.998 M201.576,539.686 C196.691,542.092 192.834,545.574 190.006,550.131 C187.178,554.688 185.764,559.472 185.764,564.483 C185.764,569.493 186.935,575.972 189.279,583.92 C193.967,578.254 197.514,572.946 199.92,567.998 C202.326,563.05 203.529,558.152 203.529,553.303 C203.529,548.454 202.878,543.915 201.576,539.686"/>
<path class="TimeSig" d="M273.021,567.912 C274.516,567.912 275.949,567.686 277.318,567.233 C278.688,566.78 279.665,566.553 280.248,566.553 C280.831,566.553 281.222,566.907 281.42,567.615 C281.42,567.688 281.352,567.886 281.217,568.209 L252.811,601.225 L269.498,601.225 L269.498,588.131 C269.498,586.506 270.446,585.334 272.342,584.615 C274.29,583.897 276.503,581.001 278.982,575.928 C279.17,575.532 279.462,575.334 279.857,575.334 C280.639,575.334 281.092,575.793 281.217,576.709 L281.217,601.225 L288.357,601.225 C289.264,601.225 289.751,601.712 289.818,602.686 C289.886,603.66 289.399,604.147 288.357,604.147 L281.217,604.147 L281.217,604.928 C281.217,607.532 281.868,609.746 283.17,611.569 C284.67,613.391 286.43,614.303 288.451,614.303 C289.232,614.303 289.623,614.694 289.623,615.475 C289.623,616.256 289.087,616.647 288.014,616.647 C286.941,616.647 284.938,616.436 282.006,616.014 C279.074,615.592 276.811,615.381 275.217,615.381 C273.623,615.381 271.41,615.592 268.576,616.014 C265.743,616.436 263.613,616.647 262.186,616.647 C261.404,616.647 261.014,616.256 261.014,615.475 C261.014,614.694 261.404,614.303 262.186,614.303 C264.196,614.303 265.951,613.391 267.451,611.569 C268.816,609.683 269.498,607.47 269.498,604.928 L269.498,604.147 L252.811,604.147 C251.956,604.147 251.219,603.92 250.6,603.467 C249.98,603.014 249.67,602.592 249.67,602.201 C249.67,601.811 250.485,600.639 252.115,598.686 C253.745,596.733 256.074,592.972 259.1,587.405 C262.126,581.837 263.639,575.438 263.639,568.209 C263.639,567.168 264.097,566.647 265.014,566.647 C265.212,566.647 265.521,566.712 265.943,566.842 C266.365,566.972 267.277,567.183 268.678,567.475 C270.079,567.766 271.527,567.912 273.021,567.912"/>
<path class="TimeSig" d="M273.021,618.084 C274.516,618.084 275.949,617.858 277.318,617.405 C278.688,616.951 279.665,616.725 280.248,616.725 C280.831,616.725 281.222,617.079 281.42,617.787 C281.42,617.86 281.352,618.058 281.217,618.381 L252.811,651.397 L269.498,651.397 L269.498,638.303 C269.498,636.678 270.446,635.506 272.342,634.787 C274.29,634.069 276.503,631.173 278.982,626.1 C279.17,625.704 279.462,625.506 279.857,625.506 C280.639,625.506 281.092,625.964 281.217,626.881 L281.217,651.397 L288.357,651.397 C289.264,651.397 289.751,651.884 289.818,652.858 C289.886,653.832 289.399,654.319 288.357,654.319 L281.217,654.319 L281.217,655.1 C281.217,657.704 281.868,659.918 283.17,661.74 C284.67,663.563 286.43,664.475 288.451,664.475 C289.232,664.475 289.623,664.865 289.623,665.647 C289.623,666.428 289.087,666.819 288.014,666.819 C286.941,666.819 284.938,666.608 282.006,666.186 C279.074,665.764 276.811,665.553 275.217,665.553 C273.623,665.553 271.41,665.764 268.576,666.186 C265.743,666.608 263.613,666.819 262.186,666.819 C261.404,666.819 261.014,666.428 261.014,665.647 C261.014,664.865 261.404,664.475 262.186,664.475 C264.196,664.475 265.951,663.563 267.451,661.74 C268.816,659.855 269.498,657.642 269.498,655.1 L269.498,654.319 L252.811,654.319 C251.956,654.319 251.219,654.092 250.6,653.639 C249.98,653.186 249.67,652.764 249.67,652.373 C249.67,651.983 250.485,650.811 252.115,648.858 C253.745,646.905 256.074,643.144 259.1,637.576 C262.126,632.009 263.639,625.61 263.639,618.381 C263.639,617.339 264.097,616.819 265.014,616.819 C265.212,616.819 265.521,616.884 265.943,617.014 C266.365,617.144 267.277,617.355 268.678,617.647 C270.079,617.938 271.527,618.084 273.021,618.084"/>
</svg>
