<?xml version="1.0" encoding="UTF-8" standalone="no"?>
<svg width="2977.2px" height="4208.4px" viewBox="0 0 2977.2 4208.4"
 xmlns="http://www.w3.org/2000/svg" xmlns:xlink="http://www.w3.org/1999/xlink" version="1.2" baseProfile="tiny">
<title>Fur_Elise.mscx (2)</title>
<desc>Generated by MuseScore Studio 4.3.1</desc>
<path class="" fill="#ffffff" fill-rule="evenodd" d="M0,0 L2977.2,0 L2977.2,4208.4 L0,4208.4 L0,0 "/>
<polyline class="StaffLines" fill="none" stroke="#000000" stroke-width="2.00" stroke-linejoin="bevel" points="141.732,316.732 2835.47,316.732"/>
<polyline class="StaffLines" fill="none" stroke="#000000" stroke-width="2.00" stroke-linejoin="bevel" points="141.732,341.732 2835.47,341.732"/>
<polyline class="StaffLines" fill="none" stroke="#000000" stroke-width="2.00" stroke-linejoin="bevel" points="141.732,366.733 2835.47,366.733"/>
<polyline class="StaffLines" fill="none" stroke="#000000" stroke-width="2.00" stroke-linejoin="bevel" points="141.732,391.733 2835.47,391.733"/>
<polyline class="StaffLines" fill="none" stroke="#000000" stroke-width="2.00" stroke-linejoin="bevel" points="141.732,416.733 2835.47,416.733"/>
<path class="MeasureNumber" d="M142.607,257.654 L142.607,260.061 L138.529,260.061 L138.529,266.732 L135.451,266.732 L135.451,260.061 L124.217,260.061 L124.217,257.654 L136.764,239.701 L138.529,239.701 L138.529,257.654 L142.607,257.654 M135.404,257.654 L135.404,243.936 L125.81,257.654 L135.404,257.654 M151.029,243.014 C150.55,243.014 149.592,243.305 148.154,243.889 L148.154,243.342 L155.357,239.701 L155.67,239.779 L155.67,263.779 C155.67,264.738 155.909,265.363 156.389,265.654 C156.868,265.946 157.894,266.107 159.467,266.139 L159.467,266.732 L148.435,266.732 L148.435,266.139 C149.925,266.076 150.93,265.852 151.451,265.467 C151.972,265.081 152.232,264.264 152.232,263.014 L152.232,244.889 C152.232,243.639 151.831,243.014 151.029,243.014"/>
<polyline class="BarLine" fill="none" stroke="#000000" stroke-width="4.00" stroke-linejoin="bevel" points="2802.72,315.732 2802.72,417.733"/>
<polyline class="BarLine" fill="none" stroke="#000000" stroke-width="12.50" stroke-linejoin="bevel" points="2829.22,315.732 2829.22,417.733"/>
<polyline class="BarLine" fill="none" stroke="#000000" stroke-width="4.00" stroke-linejoin="bevel" points="2438.82,315.732 2438.82,417.733"/>
<polyline class="BarLine" fill="none" stroke="#000000" stroke-width="4.00" stroke-linejoin="bevel" points="1916.48,315.732 1916.48,417.733"/>
<polyline class="BarLine" fill="none" stroke="#000000" stroke-width="4.00" stroke-linejoin="bevel" points="1397.61,315.732 1397.61,417.733"/>
<polyline class="BarLine" fill="none" stroke="#000000" stroke-width="4.00" stroke-linejoin="bevel" points="834.215,315.732 834.215,417.733"/>
<path class="Accidental" d="M1630.36,419.764 C1631.8,419.368 1632.51,419.722 1632.51,420.826 L1632.51,428.639 C1632.51,429.42 1631.89,430.04 1630.65,430.498 L1627.44,431.764 L1627.44,445.936 L1630.36,444.764 C1631.8,444.368 1632.51,444.727 1632.51,445.842 L1632.51,453.654 C1632.51,454.436 1631.89,455.05 1630.65,455.498 L1627.44,456.779 L1627.44,472.983 C1627.44,474.222 1626.95,474.842 1625.97,474.842 C1624.99,474.842 1624.5,474.222 1624.5,472.983 L1624.5,457.951 L1615.22,461.654 L1615.22,477.764 C1615.22,479.003 1614.73,479.623 1613.76,479.623 C1612.78,479.623 1612.3,479.003 1612.3,477.764 L1612.3,462.826 L1609.75,463.904 C1608.38,464.488 1607.7,464.097 1607.7,462.733 L1607.7,455.014 C1607.7,454.368 1608.29,453.785 1609.47,453.264 L1612.3,452.092 L1612.3,437.826 L1609.75,438.904 C1608.38,439.488 1607.7,439.097 1607.7,437.733 L1607.7,430.014 C1607.7,429.358 1608.29,428.769 1609.47,428.248 L1612.3,427.076 L1612.3,410.967 C1612.3,409.727 1612.78,409.108 1613.76,409.108 C1614.73,409.108 1615.22,409.727 1615.22,410.967 L1615.22,425.904 L1624.5,422.108 L1624.5,406.186 C1624.5,404.946 1624.99,404.326 1625.97,404.326 C1626.95,404.326 1627.44,404.946 1627.44,406.186 L1627.44,420.936 L1630.36,419.764 M1615.22,436.654 L1615.22,450.92 L1624.5,447.108 L1624.5,432.936 L1615.22,436.654 "/>
<path class="Accidental" d="M334.928,332.264 C336.365,331.868 337.084,332.222 337.084,333.326 L337.084,341.139 C337.084,341.92 336.464,342.54 335.225,342.998 L332.006,344.264 L332.006,358.436 L334.928,357.264 C336.365,356.868 337.084,357.227 337.084,358.342 L337.084,366.154 C337.084,366.936 336.464,367.55 335.225,367.998 L332.006,369.279 L332.006,385.482 C332.006,386.722 331.516,387.342 330.537,387.342 C329.558,387.342 329.068,386.722 329.068,385.482 L329.068,370.451 L319.787,374.154 L319.787,390.264 C319.787,391.503 319.3,392.123 318.326,392.123 C317.352,392.123 316.865,391.503 316.865,390.264 L316.865,375.326 L314.318,376.404 C312.954,376.988 312.272,376.597 312.272,375.232 L312.272,367.514 C312.272,366.868 312.86,366.285 314.037,365.764 L316.865,364.592 L316.865,350.326 L314.318,351.404 C312.954,351.988 312.272,351.597 312.272,350.232 L312.272,342.514 C312.272,341.857 312.86,341.269 314.037,340.748 L316.865,339.576 L316.865,323.467 C316.865,322.227 317.352,321.607 318.326,321.607 C319.3,321.607 319.787,322.227 319.787,323.467 L319.787,338.404 L329.068,334.607 L329.068,318.686 C329.068,317.446 329.558,316.826 330.537,316.826 C331.516,316.826 332.006,317.446 332.006,318.686 L332.006,333.436 L334.928,332.264 M319.787,349.154 L319.787,363.42 L329.068,359.607 L329.068,345.436 L319.787,349.154 "/>
<path class="Accidental" d="M2327.52,374.545 C2326.34,374.868 2325.75,374.415 2325.75,373.186 L2325.75,318.482 C2325.75,317.118 2326.27,316.436 2327.31,316.436 C2328.35,316.436 2328.88,317.118 2328.88,318.482 L2328.88,338.311 L2340.41,333.92 C2341.57,333.597 2342.16,334.05 2342.16,335.279 L2342.16,389.982 C2342.16,391.347 2341.64,392.029 2340.59,392.029 C2339.55,392.029 2339.03,391.347 2339.03,389.982 L2339.03,370.154 L2327.52,374.545 M2328.88,363.311 L2339.03,359.404 L2339.03,345.154 L2328.88,349.061 L2328.88,363.311 "/>
<path class="Accidental" d="M1299.13,332.264 C1300.56,331.868 1301.28,332.222 1301.28,333.326 L1301.28,341.139 C1301.28,341.92 1300.66,342.54 1299.42,342.998 L1296.2,344.264 L1296.2,358.436 L1299.13,357.264 C1300.56,356.868 1301.28,357.227 1301.28,358.342 L1301.28,366.154 C1301.28,366.936 1300.66,367.55 1299.42,367.998 L1296.2,369.279 L1296.2,385.482 C1296.2,386.722 1295.71,387.342 1294.73,387.342 C1293.76,387.342 1293.27,386.722 1293.27,385.482 L1293.27,370.451 L1283.98,374.154 L1283.98,390.264 C1283.98,391.503 1283.5,392.123 1282.52,392.123 C1281.55,392.123 1281.06,391.503 1281.06,390.264 L1281.06,375.326 L1278.52,376.404 C1277.15,376.988 1276.47,376.597 1276.47,375.232 L1276.47,367.514 C1276.47,366.868 1277.06,366.285 1278.23,365.764 L1281.06,364.592 L1281.06,350.326 L1278.52,351.404 C1277.15,351.988 1276.47,351.597 1276.47,350.232 L1276.47,342.514 C1276.47,341.857 1277.06,341.269 1278.23,340.748 L1281.06,339.576 L1281.06,323.467 C1281.06,322.227 1281.55,321.607 1282.52,321.607 C1283.5,321.607 1283.98,322.227 1283.98,323.467 L1283.98,338.404 L1293.27,334.607 L1293.27,318.686 C1293.27,317.446 1293.76,316.826 1294.73,316.826 C1295.71,316.826 1296.2,317.446 1296.2,318.686 L1296.2,333.436 L1299.13,332.264 M1283.98,349.154 L1283.98,363.42 L1293.27,359.607 L1293.27,345.436 L1283.98,349.154 "/>
<path class="Accidental" d="M2251.26,332.264 C2252.7,331.868 2253.42,332.222 2253.42,333.326 L2253.42,341.139 C2253.42,341.92 2252.8,342.54 2251.56,342.998 L2248.34,344.264 L2248.34,358.436 L2251.26,357.264 C2252.7,356.868 2253.42,357.227 2253.42,358.342 L2253.42,366.154 C2253.42,366.936 2252.8,367.55 2251.56,367.998 L2248.34,369.279 L2248.34,385.482 C2248.34,386.722 2247.85,387.342 2246.87,387.342 C2245.89,387.342 2245.4,386.722 2245.4,385.482 L2245.4,370.451 L2236.12,374.154 L2236.12,390.264 C2236.12,391.503 2235.63,392.123 2234.66,392.123 C2233.69,392.123 2233.2,391.503 2233.2,390.264 L2233.2,375.326 L2230.65,376.404 C2229.29,376.988 2228.61,376.597 2228.61,375.232 L2228.61,367.514 C2228.61,366.868 2229.19,366.285 2230.37,365.764 L2233.2,364.592 L2233.2,350.326 L2230.65,351.404 C2229.29,351.988 2228.61,351.597 2228.61,350.232 L2228.61,342.514 C2228.61,341.857 2229.19,341.269 2230.37,340.748 L2233.2,339.576 L2233.2,323.467 C2233.2,322.227 2233.69,321.607 2234.66,321.607 C2235.63,321.607 2236.12,322.227 2236.12,323.467 L2236.12,338.404 L2245.4,334.607 L2245.4,318.686 C2245.4,317.446 2245.89,316.826 2246.87,316.826 C2247.85,316.826 2248.34,317.446 2248.34,318.686 L2248.34,333.436 L2251.26,332.264 M2236.12,349.154 L2236.12,363.42 L2245.4,359.607 L2245.4,345.436 L2236.12,349.154 "/>
<path class="Accidental" d="M1210.06,319.764 C1211.5,319.368 1212.22,319.722 1212.22,320.826 L1212.22,328.639 C1212.22,329.42 1211.6,330.04 1210.36,330.498 L1207.14,331.764 L1207.14,345.936 L1210.06,344.764 C1211.5,344.368 1212.22,344.727 1212.22,345.842 L1212.22,353.654 C1212.22,354.436 1211.6,355.05 1210.36,355.498 L1207.14,356.779 L1207.14,372.982 C1207.14,374.222 1206.65,374.842 1205.67,374.842 C1204.69,374.842 1204.2,374.222 1204.2,372.982 L1204.2,357.951 L1194.92,361.654 L1194.92,377.764 C1194.92,379.003 1194.43,379.623 1193.46,379.623 C1192.48,379.623 1192,379.003 1192,377.764 L1192,362.826 L1189.45,363.904 C1188.08,364.488 1187.4,364.097 1187.4,362.732 L1187.4,355.014 C1187.4,354.368 1187.99,353.785 1189.17,353.264 L1192,352.092 L1192,337.826 L1189.45,338.904 C1188.08,339.488 1187.4,339.097 1187.4,337.732 L1187.4,330.014 C1187.4,329.357 1187.99,328.769 1189.17,328.248 L1192,327.076 L1192,310.967 C1192,309.727 1192.48,309.107 1193.46,309.107 C1194.43,309.107 1194.92,309.727 1194.92,310.967 L1194.92,325.904 L1204.2,322.107 L1204.2,306.186 C1204.2,304.946 1204.69,304.326 1205.67,304.326 C1206.65,304.326 1207.14,304.946 1207.14,306.186 L1207.14,320.936 L1210.06,319.764 M1194.92,336.654 L1194.92,350.92 L1204.2,347.107 L1204.2,332.936 L1194.92,336.654 "/>
<polyline class="LedgerLine" fill="none" stroke="#000000" stroke-width="4.00" stroke-linejoin="bevel" points="1637.78,441.733 1689.69,441.733"/>
<polyline class="Stem" fill="none" stroke="#000000" stroke-width="3.25" stroke-linejoin="bevel" points="655.707,322.602 655.707,391.843"/>
<polyline class="Stem" fill="none" stroke="#000000" stroke-width="3.25" stroke-linejoin="bevel" points="1856.7,360.863 1856.7,298.092"/>
<polyline class="Stem" fill="none" stroke="#000000" stroke-width="3.25" stroke-linejoin="bevel" points="1767.64,398.363 1767.64,304.122"/>
<polyline class="Stem" fill="none" stroke="#000000" stroke-width="3.25" stroke-linejoin="bevel" points="1678.57,435.863 1678.57,353.532"/>
<polyline class="Stem" fill="none" stroke="#000000" stroke-width="3.25" stroke-linejoin="bevel" points="1945.1,360.102 1945.1,435.483"/>
<polyline class="Stem" fill="none" stroke="#000000" stroke-width="3.25" stroke-linejoin="bevel" points="1455.9,360.863 1455.9,291.732"/>
<polyline class="Stem" fill="none" stroke="#000000" stroke-width="3.25" stroke-linejoin="bevel" points="1308.17,360.102 1308.17,422.873"/>
<polyline class="Stem" fill="none" stroke="#000000" stroke-width="3.25" stroke-linejoin="bevel" points="2197.43,398.363 2197.43,316.032"/>
<polyline class="Stem" fill="none" stroke="#000000" stroke-width="3.25" stroke-linejoin="bevel" points="1219.11,347.602 1219.11,416.843"/>
<polyline class="Stem" fill="none" stroke="#000000" stroke-width="3.25" stroke-linejoin="bevel" points="1130.04,360.102 1130.04,422.763"/>
<polyline class="Stem" fill="none" stroke="#000000" stroke-width="3.25" stroke-linejoin="bevel" points="2260.31,360.102 2260.31,422.983"/>
<polyline class="Stem" fill="none" stroke="#000000" stroke-width="3.25" stroke-linejoin="bevel" points="1040.97,322.602 1040.97,410.703"/>
<polyline class="Stem" fill="none" stroke="#000000" stroke-width="3.25" stroke-linejoin="bevel" points="2349.38,360.102 2349.38,422.983"/>
<polyline class="Stem" fill="none" stroke="#000000" stroke-width="3.25" stroke-linejoin="bevel" points="951.906,335.102 951.906,397.873"/>
<polyline class="Stem" fill="none" stroke="#000000" stroke-width="3.25" stroke-linejoin="bevel" points="744.774,335.102 744.774,397.873"/>
<polyline class="Stem" fill="none" stroke="#000000" stroke-width="3.25" stroke-linejoin="bevel" points="862.84,322.602 862.84,391.843"/>
<polyline class="Stem" fill="none" stroke="#000000" stroke-width="3.25" stroke-linejoin="bevel" points="2498.91,361.932 2498.91,291.732"/>
<polyline class="Stem" fill="none" stroke="#000000" stroke-width="3.25" stroke-linejoin="bevel" points="596.305,398.363 596.305,316.032"/>
<polyline class="Stem" fill="none" stroke="#000000" stroke-width="3.25" stroke-linejoin="bevel" points="343.975,360.102 343.975,435.483"/>
<path class="Hook" d="M2195.81,341.732 L2195.81,316.732 L2198.93,316.732 C2198.93,320.441 2199.68,324.232 2201.18,328.107 C2202.68,331.982 2204.25,335.206 2205.87,337.779 C2207.5,340.352 2209.51,343.592 2211.92,347.498 C2217.2,356.029 2219.84,363.615 2219.84,370.256 C2219.84,376.897 2218.44,383.732 2215.64,390.764 C2215.12,391.545 2214.51,391.936 2213.83,391.936 C2213.15,391.936 2212.58,391.706 2212.12,391.248 C2211.66,390.79 2211.43,390.269 2211.43,389.686 L2211.43,389.201 C2214.24,382.753 2215.64,376.373 2215.64,370.061 C2215.64,366.8 2214.64,363.251 2212.66,359.412 C2210.68,355.574 2208.62,352.433 2206.5,349.99 C2204.38,347.548 2201.86,344.795 2198.93,341.732 L2195.81,341.732 "/>
<path class="Hook" d="M594.68,341.732 L594.68,316.732 L597.805,316.732 C597.805,320.441 598.555,324.232 600.055,328.107 C601.555,331.982 603.117,335.206 604.742,337.779 C606.367,340.352 608.383,343.592 610.789,347.498 C616.07,356.029 618.711,363.615 618.711,370.256 C618.711,376.897 617.31,383.732 614.508,390.764 C613.987,391.545 613.386,391.936 612.703,391.936 C612.021,391.936 611.451,391.706 610.992,391.248 C610.534,390.79 610.305,390.269 610.305,389.686 L610.305,389.201 C613.107,382.753 614.508,376.373 614.508,370.061 C614.508,366.8 613.516,363.251 611.531,359.412 C609.547,355.574 607.495,352.433 605.375,349.99 C603.255,347.548 600.732,344.795 597.805,341.732 L594.68,341.732 "/>
<path class="Hook" d="M1676.94,379.232 L1676.94,354.232 L1680.07,354.232 C1680.07,357.941 1680.82,361.732 1682.32,365.607 C1683.82,369.482 1685.38,372.706 1687.01,375.279 C1688.63,377.852 1690.65,381.092 1693.05,384.998 C1698.33,393.529 1700.97,401.115 1700.97,407.756 C1700.97,414.397 1699.57,421.232 1696.77,428.264 C1696.25,429.045 1695.65,429.436 1694.97,429.436 C1694.28,429.436 1693.71,429.206 1693.26,428.748 C1692.8,428.29 1692.57,427.769 1692.57,427.186 L1692.57,426.701 C1695.37,420.253 1696.77,413.873 1696.77,407.561 C1696.77,404.3 1695.78,400.751 1693.8,396.912 C1691.81,393.074 1689.76,389.933 1687.64,387.49 C1685.52,385.048 1683,382.295 1680.07,379.232 L1676.94,379.232 "/>
<path class="Note" d="M676.051,302.967 C679.176,302.967 681.78,303.748 683.863,305.311 C685.947,306.873 686.988,309.118 686.988,312.045 C686.988,316.535 684.663,320.732 680.012,324.639 C675.361,328.545 670.363,330.498 665.02,330.498 C661.895,330.498 659.259,329.686 657.113,328.061 C655.093,326.3 654.082,324.087 654.082,321.42 C654.082,317.055 656.395,312.889 661.02,308.92 C665.645,304.951 670.655,302.967 676.051,302.967"/>
<path class="Note" d="M1847.38,352.967 C1850.51,352.967 1853.11,353.748 1855.19,355.311 C1857.28,356.873 1858.32,359.118 1858.32,362.045 C1858.32,366.535 1855.99,370.733 1851.34,374.639 C1846.69,378.545 1841.69,380.498 1836.35,380.498 C1833.22,380.498 1830.59,379.686 1828.44,378.061 C1826.42,376.3 1825.41,374.087 1825.41,371.42 C1825.41,367.055 1827.72,362.889 1832.35,358.92 C1836.97,354.951 1841.99,352.967 1847.38,352.967"/>
<path class="Note" d="M2473.24,377.373 C2475.12,377.373 2479.08,375.42 2485.11,371.514 C2491.13,367.608 2494.68,364.988 2495.75,363.654 C2496.83,362.321 2497.36,361.134 2497.36,360.092 C2497.36,359.05 2496.94,358.123 2496.09,357.311 C2495.24,356.498 2494.26,356.092 2493.16,356.092 C2491.21,356.092 2487.23,358.061 2481.2,361.998 C2475.17,365.936 2471.64,368.555 2470.6,369.858 C2469.56,371.16 2469.04,372.331 2469.04,373.373 C2469.04,374.415 2469.44,375.342 2470.26,376.154 C2471.08,376.967 2472.07,377.373 2473.24,377.373 M2492.19,352.967 C2497.79,352.967 2500.58,355.373 2500.58,360.186 C2500.58,362.529 2499.9,365.248 2498.54,368.342 C2497.17,371.436 2495.35,373.795 2493.07,375.42 C2488.06,378.805 2481.78,380.498 2474.22,380.498 C2468.62,380.498 2465.82,378.092 2465.82,373.279 C2465.82,371.134 2466.48,368.464 2467.82,365.272 C2469.15,362.079 2470.99,359.67 2473.33,358.045 C2478.35,354.66 2484.64,352.967 2492.19,352.967"/>
<path class="Note" d="M364.318,340.467 C367.443,340.467 370.048,341.248 372.131,342.811 C374.214,344.373 375.256,346.618 375.256,349.545 C375.256,354.035 372.93,358.232 368.279,362.139 C363.628,366.045 358.631,367.998 353.287,367.998 C350.162,367.998 347.527,367.186 345.381,365.561 C343.36,363.8 342.35,361.587 342.35,358.92 C342.35,354.555 344.662,350.389 349.287,346.42 C353.912,342.451 358.923,340.467 364.318,340.467"/>
<path class="Note" d="M2369.72,340.467 C2372.84,340.467 2375.45,341.248 2377.53,342.811 C2379.62,344.373 2380.66,346.618 2380.66,349.545 C2380.66,354.035 2378.33,358.232 2373.68,362.139 C2369.03,366.045 2364.03,367.998 2358.69,367.998 C2355.56,367.998 2352.93,367.186 2350.78,365.561 C2348.76,363.8 2347.75,361.587 2347.75,358.92 C2347.75,354.555 2350.06,350.389 2354.69,346.42 C2359.31,342.451 2364.32,340.467 2369.72,340.467"/>
<path class="Note" d="M1965.45,340.467 C1968.57,340.467 1971.18,341.248 1973.26,342.811 C1975.34,344.373 1976.39,346.618 1976.39,349.545 C1976.39,354.035 1974.06,358.232 1969.41,362.139 C1964.76,366.045 1959.76,367.998 1954.42,367.998 C1951.29,367.998 1948.66,367.186 1946.51,365.561 C1944.49,363.8 1943.48,361.587 1943.48,358.92 C1943.48,354.555 1945.79,350.389 1950.42,346.42 C1955.04,342.451 1960.05,340.467 1965.45,340.467"/>
<path class="Note" d="M2280.65,340.467 C2283.78,340.467 2286.38,341.248 2288.47,342.811 C2290.55,344.373 2291.59,346.618 2291.59,349.545 C2291.59,354.035 2289.26,358.232 2284.61,362.139 C2279.96,366.045 2274.97,367.998 2269.62,367.998 C2266.5,367.998 2263.86,367.186 2261.72,365.561 C2259.69,363.8 2258.68,361.587 2258.68,358.92 C2258.68,354.555 2261,350.389 2265.62,346.42 C2270.25,342.451 2275.26,340.467 2280.65,340.467"/>
<path class="Note" d="M2188.11,390.467 C2191.24,390.467 2193.84,391.248 2195.93,392.811 C2198.01,394.373 2199.05,396.618 2199.05,399.545 C2199.05,404.035 2196.73,408.233 2192.07,412.139 C2187.42,416.045 2182.43,417.998 2177.08,417.998 C2173.96,417.998 2171.32,417.186 2169.18,415.561 C2167.16,413.8 2166.14,411.587 2166.14,408.92 C2166.14,404.555 2168.46,400.389 2173.08,396.42 C2177.71,392.451 2182.72,390.467 2188.11,390.467"/>
<path class="Note" d="M1758.31,390.467 C1761.44,390.467 1764.04,391.248 1766.13,392.811 C1768.21,394.373 1769.25,396.618 1769.25,399.545 C1769.25,404.035 1766.93,408.233 1762.28,412.139 C1757.62,416.045 1752.63,417.998 1747.28,417.998 C1744.16,417.998 1741.52,417.186 1739.38,415.561 C1737.36,413.8 1736.35,411.587 1736.35,408.92 C1736.35,404.555 1738.66,400.389 1743.28,396.42 C1747.91,392.451 1752.92,390.467 1758.31,390.467"/>
<path class="Note" d="M765.117,315.467 C768.242,315.467 770.846,316.248 772.93,317.811 C775.013,319.373 776.055,321.618 776.055,324.545 C776.055,329.035 773.729,333.232 769.078,337.139 C764.427,341.045 759.43,342.998 754.086,342.998 C750.961,342.998 748.326,342.186 746.18,340.561 C744.159,338.8 743.149,336.587 743.149,333.92 C743.149,329.555 745.461,325.389 750.086,321.42 C754.711,317.451 759.721,315.467 765.117,315.467"/>
<path class="Note" d="M586.984,390.467 C590.109,390.467 592.714,391.248 594.797,392.811 C596.88,394.373 597.922,396.618 597.922,399.545 C597.922,404.035 595.596,408.233 590.945,412.139 C586.294,416.045 581.297,417.998 575.953,417.998 C572.828,417.998 570.193,417.186 568.047,415.561 C566.026,413.8 565.016,411.587 565.016,408.92 C565.016,404.555 567.328,400.389 571.953,396.42 C576.578,392.451 581.589,390.467 586.984,390.467"/>
<path class="Note" d="M883.184,302.967 C886.309,302.967 888.913,303.748 890.996,305.311 C893.08,306.873 894.121,309.118 894.121,312.045 C894.121,316.535 891.796,320.732 887.145,324.639 C882.494,328.545 877.496,330.498 872.153,330.498 C869.028,330.498 866.392,329.686 864.246,328.061 C862.225,326.3 861.215,324.087 861.215,321.42 C861.215,317.055 863.528,312.889 868.153,308.92 C872.778,304.951 877.788,302.967 883.184,302.967"/>
<path class="Note" d="M972.25,315.467 C975.375,315.467 977.979,316.248 980.063,317.811 C982.146,319.373 983.188,321.618 983.188,324.545 C983.188,329.035 980.862,333.232 976.211,337.139 C971.56,341.045 966.563,342.998 961.219,342.998 C958.094,342.998 955.459,342.186 953.313,340.561 C951.292,338.8 950.281,336.587 950.281,333.92 C950.281,329.555 952.594,325.389 957.219,321.42 C961.844,317.451 966.854,315.467 972.25,315.467"/>
<path class="Note" d="M1061.32,302.967 C1064.44,302.967 1067.05,303.748 1069.13,305.311 C1071.21,306.873 1072.25,309.118 1072.25,312.045 C1072.25,316.535 1069.93,320.732 1065.28,324.639 C1060.63,328.545 1055.63,330.498 1050.29,330.498 C1047.16,330.498 1044.52,329.686 1042.38,328.061 C1040.36,326.3 1039.35,324.087 1039.35,321.42 C1039.35,317.055 1041.66,312.889 1046.29,308.92 C1050.91,304.951 1055.92,302.967 1061.32,302.967"/>
<path class="Note" d="M1150.38,340.467 C1153.51,340.467 1156.11,341.248 1158.2,342.811 C1160.28,344.373 1161.32,346.618 1161.32,349.545 C1161.32,354.035 1158.99,358.232 1154.34,362.139 C1149.69,366.045 1144.7,367.998 1139.35,367.998 C1136.23,367.998 1133.59,367.186 1131.45,365.561 C1129.42,363.8 1128.41,361.587 1128.41,358.92 C1128.41,354.555 1130.73,350.389 1135.35,346.42 C1139.98,342.451 1144.99,340.467 1150.38,340.467"/>
<path class="Note" d="M1239.45,327.967 C1242.57,327.967 1245.18,328.748 1247.26,330.311 C1249.35,331.873 1250.39,334.118 1250.39,337.045 C1250.39,341.535 1248.06,345.732 1243.41,349.639 C1238.76,353.545 1233.76,355.498 1228.42,355.498 C1225.29,355.498 1222.66,354.686 1220.51,353.061 C1218.49,351.3 1217.48,349.087 1217.48,346.42 C1217.48,342.055 1219.79,337.889 1224.42,333.92 C1229.04,329.951 1234.05,327.967 1239.45,327.967"/>
<path class="Note" d="M1328.52,340.467 C1331.64,340.467 1334.25,341.248 1336.33,342.811 C1338.41,344.373 1339.45,346.618 1339.45,349.545 C1339.45,354.035 1337.13,358.232 1332.48,362.139 C1327.83,366.045 1322.83,367.998 1317.48,367.998 C1314.36,367.998 1311.72,367.186 1309.58,365.561 C1307.56,363.8 1306.55,361.587 1306.55,358.92 C1306.55,354.555 1308.86,350.389 1313.48,346.42 C1318.11,342.451 1323.12,340.467 1328.52,340.467"/>
<path class="Note" d="M1446.58,352.967 C1449.71,352.967 1452.31,353.748 1454.39,355.311 C1456.48,356.873 1457.52,359.118 1457.52,362.045 C1457.52,366.535 1455.19,370.733 1450.54,374.639 C1445.89,378.545 1440.89,380.498 1435.55,380.498 C1432.43,380.498 1429.79,379.686 1427.64,378.061 C1425.62,376.3 1424.61,374.087 1424.61,371.42 C1424.61,367.055 1426.93,362.889 1431.55,358.92 C1436.18,354.951 1441.19,352.967 1446.58,352.967"/>
<path class="Note" d="M1669.25,427.967 C1672.37,427.967 1674.98,428.748 1677.06,430.311 C1679.14,431.873 1680.19,434.118 1680.19,437.045 C1680.19,441.535 1677.86,445.733 1673.21,449.639 C1668.56,453.545 1663.56,455.498 1658.22,455.498 C1655.09,455.498 1652.46,454.686 1650.31,453.061 C1648.29,451.3 1647.28,449.087 1647.28,446.42 C1647.28,442.055 1649.59,437.889 1654.22,433.92 C1658.84,429.951 1663.85,427.967 1669.25,427.967"/>
<path class="Clef" d="M203.623,423.858 L203.623,421.717 C203.56,420.613 203.399,418.889 203.139,416.545 C199.889,417.066 196.993,417.326 194.451,417.326 C185.337,417.326 177.605,413.727 171.256,406.529 C164.907,399.331 161.732,390.753 161.732,380.795 C161.732,378.128 162.253,374.923 163.295,371.178 C164.337,367.433 165.297,364.925 166.178,363.654 C167.058,362.384 168.378,360.154 170.139,356.967 C170.659,355.988 172.352,353.837 175.217,350.514 C175.738,349.805 176.193,349.222 176.584,348.764 C176.975,348.305 177.607,347.49 178.482,346.318 C179.357,345.147 180.3,344.055 181.31,343.045 C182.321,342.035 183.217,341.058 183.998,340.115 C184.779,339.173 185.498,338.378 186.154,337.733 C183.81,329.983 182.378,324.024 181.857,319.858 C181.337,315.691 181.076,310.579 181.076,304.522 C181.076,298.464 182.378,292.962 184.982,288.014 C187.514,282.878 191.06,278.68 195.623,275.42 C195.883,275.222 196.225,275.123 196.646,275.123 C197.068,275.123 197.378,275.222 197.576,275.42 C201.087,279.649 204.128,285.149 206.701,291.92 C209.274,298.691 210.56,305.024 210.56,310.92 C210.56,316.816 209.066,322.498 206.076,327.967 C202.691,333.759 198.326,339.748 192.982,345.936 C194.347,350.227 196.17,356.962 198.451,366.139 L199.045,366.139 C199.305,366.076 199.529,366.045 199.717,366.045 C207.081,366.045 213.089,368.634 217.74,373.811 C222.391,378.988 224.717,384.962 224.717,391.733 C224.717,400.128 221.238,406.899 214.279,412.045 C212.258,413.545 209.878,414.717 207.139,415.561 C207.472,419.79 207.639,422.605 207.639,424.006 C207.639,425.407 207.571,427.899 207.435,431.483 C207.373,437.597 205.29,442.837 201.185,447.201 C197.081,451.566 192.394,453.748 187.123,453.748 C181.852,453.748 177.36,451.876 173.646,448.131 C169.933,444.386 168.076,439.847 168.076,434.514 C168.076,431.712 169.154,429.331 171.31,427.373 C173.519,425.425 176.006,424.451 178.771,424.451 C181.537,424.451 183.8,425.462 185.56,427.483 C187.383,429.368 188.295,431.644 188.295,434.311 C188.295,436.977 187.383,439.222 185.56,441.045 C183.738,442.868 181.555,443.779 179.014,443.779 C177.972,443.779 176.967,443.587 175.998,443.201 C178.863,447.43 182.54,449.545 187.029,449.545 C191.519,449.545 195.36,447.691 198.553,443.983 C201.745,440.274 203.342,435.91 203.342,430.889 L203.623,423.858 M206.748,411.561 C210.133,410.321 212.821,408.123 214.81,404.967 C216.8,401.811 217.795,398.67 217.795,395.545 C217.795,390.92 216.199,386.785 213.006,383.139 C209.813,379.493 205.774,377.441 200.889,376.983 C203.691,390.722 205.644,402.248 206.748,411.561 M168.967,388.998 C168.967,395.446 171.537,401.079 176.678,405.897 C181.818,410.714 187.842,413.123 194.748,413.123 C197.477,413.123 200.144,412.925 202.748,412.529 C201.706,402.634 199.654,390.785 196.592,376.983 C192.758,377.378 189.782,378.699 187.662,380.943 C185.542,383.188 184.482,385.743 184.482,388.608 C184.482,393.555 187.123,397.561 192.404,400.623 C192.852,400.884 193.076,401.324 193.076,401.943 C193.076,402.563 192.865,403.1 192.443,403.553 C192.021,404.006 191.649,404.233 191.326,404.233 C191.003,404.233 190.581,404.17 190.06,404.045 C182.435,399.878 178.623,393.592 178.623,385.186 C178.623,381.217 180.024,377.41 182.826,373.764 C185.753,370.118 189.56,367.774 194.248,366.733 C192.425,359.441 190.93,353.743 189.764,349.639 C180.847,359.67 175.31,367.092 173.154,371.904 C170.363,378.154 168.967,383.852 168.967,388.998 M201.576,289.686 C196.691,292.092 192.834,295.574 190.006,300.131 C187.178,304.688 185.764,309.472 185.764,314.483 C185.764,319.493 186.935,325.972 189.279,333.92 C193.967,328.253 197.514,322.946 199.92,317.998 C202.326,313.05 203.529,308.152 203.529,303.303 C203.529,298.454 202.878,293.915 201.576,289.686"/>
<path class="KeySig" d="M251.123,384.311 L249.857,322.201 C249.857,321.222 250.623,320.733 252.154,320.733 C253.686,320.733 254.451,321.222 254.451,322.201 L253.67,356.092 C255.43,354.331 256.943,353.11 258.209,352.428 C259.475,351.746 261.199,351.404 263.381,351.404 C265.563,351.404 267.581,352.412 269.436,354.428 C271.29,356.443 272.217,358.951 272.217,361.951 C272.217,366.441 267.498,372.66 258.061,380.608 C254.55,383.795 252.727,385.389 252.592,385.389 L252.014,385.389 C251.42,385.389 251.123,385.029 251.123,384.311 M253.576,359.217 L253.279,381.389 C255.3,379.493 257.352,376.347 259.436,371.951 C261.519,367.555 262.561,363.795 262.561,360.67 C262.561,359.108 262.3,357.675 261.779,356.373 C261.258,355.071 260.443,354.42 259.334,354.42 C258.225,354.42 257.23,354.811 256.35,355.592 C255.469,356.373 254.545,357.581 253.576,359.217"/>
<path class="Rest" d="M2096.03,359.108 C2091.86,360.608 2088.48,361.358 2085.88,361.358 C2083.27,361.358 2081.1,360.626 2079.38,359.162 C2077.65,357.699 2076.78,355.876 2076.78,353.693 C2076.78,351.511 2077.5,349.719 2078.93,348.318 C2080.36,346.917 2082.06,346.217 2084.01,346.217 C2085.96,346.217 2087.43,346.772 2088.41,347.881 C2089.39,348.99 2089.92,350.05 2090.02,351.061 C2090.12,352.071 2090.43,353.191 2090.95,354.42 C2091.54,355.462 2092.23,355.983 2093.05,355.983 C2093.86,355.983 2094.95,355.219 2096.32,353.693 C2097.69,352.167 2098.6,350.964 2099.06,350.084 C2099.51,349.204 2100.06,348.779 2100.71,348.811 C2101.36,348.842 2101.82,349.149 2102.08,349.733 L2089.78,391.733 C2089.13,392.389 2088.21,392.717 2087.04,392.717 C2085.87,392.717 2084.96,392.389 2084.31,391.733 L2096.03,359.108 "/>
<path class="Rest" d="M494.902,359.108 C490.736,360.608 487.35,361.358 484.746,361.358 C482.142,361.358 479.975,360.626 478.246,359.162 C476.517,357.699 475.652,355.876 475.652,353.693 C475.652,351.511 476.369,349.719 477.801,348.318 C479.233,346.917 480.926,346.217 482.879,346.217 C484.832,346.217 486.298,346.772 487.277,347.881 C488.257,348.99 488.796,350.05 488.895,351.061 C488.994,352.071 489.303,353.191 489.824,354.42 C490.408,355.462 491.106,355.983 491.918,355.983 C492.731,355.983 493.822,355.219 495.191,353.693 C496.561,352.167 497.473,350.964 497.926,350.084 C498.379,349.204 498.931,348.779 499.582,348.811 C500.233,348.842 500.689,349.149 500.949,349.733 L488.652,391.733 C487.996,392.389 487.082,392.717 485.91,392.717 C484.738,392.717 483.83,392.389 483.184,391.733 L494.902,359.108 "/>
<path class="Rest" d="M1577.17,359.108 C1573,360.608 1569.61,361.358 1567.01,361.358 C1564.41,361.358 1562.24,360.626 1560.51,359.162 C1558.78,357.699 1557.92,355.876 1557.92,353.693 C1557.92,351.511 1558.63,349.719 1560.06,348.318 C1561.5,346.917 1563.19,346.217 1565.14,346.217 C1567.1,346.217 1568.56,346.772 1569.54,347.881 C1570.52,348.99 1571.06,350.05 1571.16,351.061 C1571.26,352.071 1571.57,353.191 1572.09,354.42 C1572.67,355.462 1573.37,355.983 1574.18,355.983 C1574.99,355.983 1576.09,355.219 1577.46,353.693 C1578.83,352.167 1579.74,350.964 1580.19,350.084 C1580.64,349.204 1581.19,348.779 1581.85,348.811 C1582.5,348.842 1582.95,349.149 1583.21,349.733 L1570.92,391.733 C1570.26,392.389 1569.35,392.717 1568.17,392.717 C1567,392.717 1566.09,392.389 1565.45,391.733 L1577.17,359.108 "/>
<path class="Rest" d="M2667.51,361.451 C2666.85,360.608 2666.52,359.696 2666.52,358.717 C2666.52,356.967 2668.61,354.529 2672.79,351.404 C2676.88,348.206 2678.93,344.561 2678.93,340.467 C2678.93,338.05 2678.09,335.837 2676.4,333.826 L2672.88,329.623 C2672.62,329.363 2672.49,329.037 2672.49,328.647 C2672.49,328.256 2672.69,327.899 2673.07,327.576 C2673.53,327.243 2673.95,327.076 2674.35,327.076 C2674.74,327.076 2675.06,327.274 2675.32,327.67 L2690.46,345.639 C2691.11,346.483 2691.43,347.41 2691.43,348.42 C2691.43,349.43 2690.89,350.522 2689.82,351.693 C2688.75,352.865 2687.24,354.233 2685.29,355.795 C2683.79,356.701 2682.37,358.131 2681.04,360.084 C2679.71,362.037 2679.04,364.253 2679.04,366.733 C2679.04,369.212 2679.82,371.394 2681.38,373.279 L2689.77,383.139 C2689.97,383.337 2690.1,383.662 2690.17,384.115 C2690.23,384.568 2690.06,384.959 2689.67,385.287 C2689.28,385.615 2688.98,385.779 2688.75,385.779 C2688.53,385.779 2687.94,385.404 2686.99,384.654 C2686.05,383.904 2684.71,383.173 2682.99,382.459 C2681.26,381.746 2679.55,381.389 2677.86,381.389 C2676.17,381.389 2674.83,381.844 2673.86,382.756 C2672.89,383.667 2672.4,385.766 2672.4,389.053 C2672.4,392.339 2673.34,395.123 2675.23,397.404 C2675.43,397.665 2675.46,397.956 2675.33,398.279 C2675.2,398.602 2674.94,398.764 2674.55,398.764 C2674.16,398.764 2673.16,397.561 2671.56,395.154 C2669.97,392.748 2668.43,389.899 2666.97,386.608 C2665.51,383.316 2664.77,380.566 2664.77,378.358 C2664.77,375.555 2666.21,374.154 2669.07,374.154 C2671.94,374.154 2675.81,375.196 2680.7,377.279 L2667.51,361.451 "/>
<path class="Beam" fill-rule="evenodd" d="M1217.48,410.468 L1309.8,416.718 L1309.8,429.247 L1217.48,422.997 L1217.48,410.468 "/>
<path class="Beam" fill-rule="evenodd" d="M1039.35,404.175 L1131.66,416.675 L1131.66,429.29 L1039.35,416.79 L1039.35,404.175 "/>
<path class="Beam" fill-rule="evenodd" d="M2258.68,416.733 L2351,416.733 L2351,429.233 L2258.68,429.233 L2258.68,416.733 "/>
<path class="Beam" fill-rule="evenodd" d="M861.215,385.468 L953.531,391.718 L953.531,404.247 L861.215,397.997 L861.215,385.468 "/>
<path class="Beam" fill-rule="evenodd" d="M1766.01,297.968 L1858.33,291.718 L1858.33,304.247 L1766.01,310.497 L1766.01,297.968 "/>
<path class="Beam" fill-rule="evenodd" d="M654.082,385.468 L746.399,391.718 L746.399,404.247 L654.082,397.997 L654.082,385.468 "/>
<path class="Page" d="M141.953,3976.75 C142.089,3976.14 142.224,3975.61 142.359,3975.15 C142.495,3974.7 142.781,3974.04 143.219,3973.18 C143.656,3972.31 144.148,3971.59 144.695,3971.02 C145.242,3970.45 146.003,3969.93 146.977,3969.48 C147.951,3969.03 149.052,3968.8 150.281,3968.8 C152.354,3968.8 154.104,3969.48 155.531,3970.84 C156.958,3972.2 157.672,3973.87 157.672,3975.86 C157.672,3978.9 155.969,3982.21 152.563,3985.8 L145.844,3992.88 L155.391,3992.88 C156.297,3992.88 156.971,3992.73 157.414,3992.42 C157.857,3992.11 158.453,3991.38 159.203,3990.22 L159.719,3990.43 L157.516,3995.8 L141.922,3995.8 L141.922,3995.33 L149.031,3987.79 C152.5,3984.11 154.234,3980.65 154.234,3977.4 C154.234,3975.71 153.714,3974.34 152.672,3973.29 C151.63,3972.25 150.271,3971.72 148.594,3971.72 C147.208,3971.72 146.096,3972.11 145.258,3972.87 C144.419,3973.64 143.599,3975 142.797,3976.96 L141.953,3976.75 "/>
</svg>
