<?xml version="1.0" encoding="UTF-8" standalone="no"?>
<svg width="2977.2px" height="4208.4px" viewBox="0 0 2977.2 4208.4"
 xmlns="http://www.w3.org/2000/svg" xmlns:xlink="http://www.w3.org/1999/xlink" version="1.2" baseProfile="tiny">
<title>Oh_When_The_Saints.mscx</title>
<desc>Generated by MuseScore Studio 4.3.1</desc>
<path class="" fill="#ffffff" fill-rule="evenodd" d="M0,0 L2977.2,0 L2977.2,4208.4 L0,4208.4 L0,0 "/>
<polyline class="StaffLines" fill="none" stroke="#000000" stroke-width="2.00" stroke-linejoin="bevel" points="141.732,316.732 2835.47,316.732"/>
<polyline class="StaffLines" fill="none" stroke="#000000" stroke-width="2.00" stroke-linejoin="bevel" points="141.732,341.732 2835.47,341.732"/>
<polyline class="StaffLines" fill="none" stroke="#000000" stroke-width="2.00" stroke-linejoin="bevel" points="141.732,366.733 2835.47,366.733"/>
<polyline class="StaffLines" fill="none" stroke="#000000" stroke-width="2.00" stroke-linejoin="bevel" points="141.732,391.733 2835.47,391.733"/>
<polyline class="StaffLines" fill="none" stroke="#000000" stroke-width="2.00" stroke-linejoin="bevel" points="141.732,416.733 2835.47,416.733"/>
<polyline class="StaffLines" fill="none" stroke="#000000" stroke-width="2.00" stroke-linejoin="bevel" points="141.732,791.733 2835.47,791.733"/>
<polyline class="StaffLines" fill="none" stroke="#000000" stroke-width="2.00" stroke-linejoin="bevel" points="141.732,816.733 2835.47,816.733"/>
<polyline class="StaffLines" fill="none" stroke="#000000" stroke-width="2.00" stroke-linejoin="bevel" points="141.732,841.733 2835.47,841.733"/>
<polyline class="StaffLines" fill="none" stroke="#000000" stroke-width="2.00" stroke-linejoin="bevel" points="141.732,866.733 2835.47,866.733"/>
<polyline class="StaffLines" fill="none" stroke="#000000" stroke-width="2.00" stroke-linejoin="bevel" points="141.732,891.733 2835.47,891.733"/>
<polyline class="StaffLines" fill="none" stroke="#000000" stroke-width="2.00" stroke-linejoin="bevel" points="141.732,1266.73 2835.47,1266.73"/>
<polyline class="StaffLines" fill="none" stroke="#000000" stroke-width="2.00" stroke-linejoin="bevel" points="141.732,1291.73 2835.47,1291.73"/>
<polyline class="StaffLines" fill="none" stroke="#000000" stroke-width="2.00" stroke-linejoin="bevel" points="141.732,1316.73 2835.47,1316.73"/>
<polyline class="StaffLines" fill="none" stroke="#000000" stroke-width="2.00" stroke-linejoin="bevel" points="141.732,1341.73 2835.47,1341.73"/>
<polyline class="StaffLines" fill="none" stroke="#000000" stroke-width="2.00" stroke-linejoin="bevel" points="141.732,1366.73 2835.47,1366.73"/>
<polyline class="StaffLines" fill="none" stroke="#000000" stroke-width="2.00" stroke-linejoin="bevel" points="141.732,1741.73 2835.47,1741.73"/>
<polyline class="StaffLines" fill="none" stroke="#000000" stroke-width="2.00" stroke-linejoin="bevel" points="141.732,1766.73 2835.47,1766.73"/>
<polyline class="StaffLines" fill="none" stroke="#000000" stroke-width="2.00" stroke-linejoin="bevel" points="141.732,1791.73 2835.47,1791.73"/>
<polyline class="StaffLines" fill="none" stroke="#000000" stroke-width="2.00" stroke-linejoin="bevel" points="141.732,1816.73 2835.47,1816.73"/>
<polyline class="StaffLines" fill="none" stroke="#000000" stroke-width="2.00" stroke-linejoin="bevel" points="141.732,1841.73 2835.47,1841.73"/>
<path class="MeasureNumber" d="M127.545,1668.01 C127.066,1668.01 126.107,1668.31 124.67,1668.89 L124.67,1668.34 L131.873,1664.7 L132.185,1664.78 L132.185,1688.78 C132.185,1689.74 132.425,1690.36 132.904,1690.66 C133.383,1690.95 134.409,1691.11 135.982,1691.14 L135.982,1691.73 L124.951,1691.73 L124.951,1691.14 C126.441,1691.08 127.446,1690.85 127.967,1690.47 C128.488,1690.08 128.748,1689.26 128.748,1688.01 L128.748,1669.89 C128.748,1668.64 128.347,1668.01 127.545,1668.01 M159.092,1682.66 L159.092,1685.06 L155.014,1685.06 L155.014,1691.73 L151.935,1691.73 L151.935,1685.06 L140.701,1685.06 L140.701,1682.66 L153.248,1664.7 L155.014,1664.7 L155.014,1682.66 L159.092,1682.66 M151.889,1682.66 L151.889,1668.94 L142.295,1682.66 L151.889,1682.66 "/>
<path class="MeasureNumber" d="M142.045,742.295 C139.357,742.295 137.193,741.22 135.553,739.069 C133.912,736.918 133.092,734.076 133.092,730.545 C133.092,729.462 133.199,728.34 133.412,727.178 C133.626,726.017 134.092,724.699 134.81,723.225 C135.529,721.751 136.462,720.428 137.607,719.256 C138.753,718.084 140.36,717.037 142.428,716.116 C144.495,715.194 146.878,714.613 149.576,714.373 L149.654,715.014 C146.508,715.524 143.881,716.8 141.771,718.842 C139.662,720.884 138.342,723.41 137.81,726.42 C139.06,725.701 140.006,725.235 140.646,725.022 C141.287,724.808 142.05,724.701 142.935,724.701 C145.227,724.701 147.053,725.444 148.412,726.928 C149.771,728.412 150.451,730.415 150.451,732.936 C150.451,735.696 149.67,737.946 148.107,739.686 C146.545,741.425 144.524,742.295 142.045,742.295 M141.404,726.451 C139.592,726.451 138.373,726.85 137.748,727.647 C137.123,728.444 136.81,729.623 136.81,731.186 C136.81,734.259 137.318,736.678 138.334,738.444 C139.35,740.209 140.738,741.092 142.498,741.092 C143.904,741.092 144.982,740.501 145.732,739.319 C146.482,738.136 146.857,736.462 146.857,734.295 C146.857,731.795 146.383,729.863 145.435,728.498 C144.488,727.134 143.144,726.451 141.404,726.451"/>
<path class="MeasureNumber" d="M127.045,1193.01 C126.566,1193.01 125.607,1193.31 124.17,1193.89 L124.17,1193.34 L131.373,1189.7 L131.685,1189.78 L131.685,1213.78 C131.685,1214.74 131.925,1215.36 132.404,1215.65 C132.883,1215.95 133.909,1216.11 135.482,1216.14 L135.482,1216.73 L124.451,1216.73 L124.451,1216.14 C125.941,1216.08 126.946,1215.85 127.467,1215.47 C127.988,1215.08 128.248,1214.26 128.248,1213.01 L128.248,1194.89 C128.248,1193.64 127.847,1193.01 127.045,1193.01 M156.271,1213.45 C154.62,1216.01 152.435,1217.3 149.717,1217.3 C146.998,1217.3 144.81,1215.99 143.154,1213.37 C141.498,1210.76 140.67,1207.4 140.67,1203.3 C140.67,1199.43 141.498,1196.2 143.154,1193.6 C144.81,1191 147.05,1189.7 149.873,1189.7 C152.488,1189.7 154.62,1190.98 156.271,1193.54 C157.922,1196.1 158.748,1199.43 158.748,1203.53 C158.748,1207.58 157.922,1210.89 156.271,1213.45 M149.748,1190.73 C146.258,1190.73 144.514,1195.04 144.514,1203.65 C144.514,1212.05 146.248,1216.25 149.717,1216.25 C153.185,1216.25 154.92,1212.04 154.92,1203.61 C154.92,1199.43 154.48,1196.24 153.6,1194.04 C152.719,1191.83 151.435,1190.73 149.748,1190.73"/>
<polyline class="BarLine" fill="none" stroke="#000000" stroke-width="4.00" stroke-linejoin="bevel" points="2194.56,315.732 2194.56,417.733"/>
<polyline class="BarLine" fill="none" stroke="#000000" stroke-width="4.00" stroke-linejoin="bevel" points="1517.02,790.733 1517.02,892.733"/>
<polyline class="BarLine" fill="none" stroke="#000000" stroke-width="4.00" stroke-linejoin="bevel" points="2003.53,790.733 2003.53,892.733"/>
<polyline class="BarLine" fill="none" stroke="#000000" stroke-width="4.00" stroke-linejoin="bevel" points="888.177,790.733 888.177,892.733"/>
<polyline class="BarLine" fill="none" stroke="#000000" stroke-width="4.00" stroke-linejoin="bevel" points="2833.47,790.733 2833.47,892.733"/>
<polyline class="BarLine" fill="none" stroke="#000000" stroke-width="4.00" stroke-linejoin="bevel" points="1700.44,1740.73 1700.44,1842.73"/>
<polyline class="BarLine" fill="none" stroke="#000000" stroke-width="4.00" stroke-linejoin="bevel" points="2833.47,315.732 2833.47,417.733"/>
<polyline class="BarLine" fill="none" stroke="#000000" stroke-width="4.00" stroke-linejoin="bevel" points="743.619,1265.73 743.619,1367.73"/>
<polyline class="BarLine" fill="none" stroke="#000000" stroke-width="4.00" stroke-linejoin="bevel" points="1379.37,1265.73 1379.37,1367.73"/>
<polyline class="BarLine" fill="none" stroke="#000000" stroke-width="4.00" stroke-linejoin="bevel" points="1815.51,315.732 1815.51,417.733"/>
<polyline class="BarLine" fill="none" stroke="#000000" stroke-width="4.00" stroke-linejoin="bevel" points="979.885,1740.73 979.885,1842.73"/>
<polyline class="BarLine" fill="none" stroke="#000000" stroke-width="4.00" stroke-linejoin="bevel" points="1994.33,1265.73 1994.33,1367.73"/>
<polyline class="BarLine" fill="none" stroke="#000000" stroke-width="4.00" stroke-linejoin="bevel" points="2255.73,1740.73 2255.73,1842.73"/>
<polyline class="BarLine" fill="none" stroke="#000000" stroke-width="4.00" stroke-linejoin="bevel" points="1176.6,315.732 1176.6,417.733"/>
<polyline class="BarLine" fill="none" stroke="#000000" stroke-width="4.00" stroke-linejoin="bevel" points="2802.72,1740.73 2802.72,1842.73"/>
<polyline class="BarLine" fill="none" stroke="#000000" stroke-width="12.50" stroke-linejoin="bevel" points="2829.22,1740.73 2829.22,1842.73"/>
<polyline class="BarLine" fill="none" stroke="#000000" stroke-width="4.00" stroke-linejoin="bevel" points="2833.47,1265.73 2833.47,1367.73"/>
<polyline class="BarLine" fill="none" stroke="#000000" stroke-width="4.00" stroke-linejoin="bevel" points="797.545,315.732 797.545,417.733"/>
<polyline class="Stem" fill="none" stroke="#000000" stroke-width="3.25" stroke-linejoin="bevel" points="2429.19,1285.1 2429.19,1366.73"/>
<polyline class="Stem" fill="none" stroke="#000000" stroke-width="3.25" stroke-linejoin="bevel" points="2631.14,1272.6 2631.14,1354.23"/>
<polyline class="Stem" fill="none" stroke="#000000" stroke-width="3.25" stroke-linejoin="bevel" points="1075.17,1259.13 1075.17,1341.73"/>
<polyline class="Stem" fill="none" stroke="#000000" stroke-width="3.25" stroke-linejoin="bevel" points="287.955,1734.13 287.955,1816.73"/>
<polyline class="Stem" fill="none" stroke="#000000" stroke-width="3.25" stroke-linejoin="bevel" points="2227.25,1272.6 2227.25,1354.23"/>
<polyline class="Stem" fill="none" stroke="#000000" stroke-width="3.25" stroke-linejoin="bevel" points="2633.45,822.602 2633.45,904.233"/>
<polyline class="Stem" fill="none" stroke="#000000" stroke-width="3.25" stroke-linejoin="bevel" points="2433.8,810.102 2433.8,891.733"/>
<polyline class="Stem" fill="none" stroke="#000000" stroke-width="3.25" stroke-linejoin="bevel" points="2234.15,810.102 2234.15,891.733"/>
<polyline class="Stem" fill="none" stroke="#000000" stroke-width="3.25" stroke-linejoin="bevel" points="1008.51,1784.13 1008.51,1860.48"/>
<polyline class="Stem" fill="none" stroke="#000000" stroke-width="3.25" stroke-linejoin="bevel" points="633.281,1759.13 633.281,1841.73"/>
<polyline class="Stem" fill="none" stroke="#000000" stroke-width="3.25" stroke-linejoin="bevel" points="1353.84,1771.63 1353.84,1854.23"/>
<polyline class="Stem" fill="none" stroke="#000000" stroke-width="3.25" stroke-linejoin="bevel" points="1407.99,1260.1 1407.99,1341.73"/>
<polyline class="Stem" fill="none" stroke="#000000" stroke-width="3.25" stroke-linejoin="bevel" points="1609.04,1271.63 1609.04,1354.23"/>
<polyline class="Stem" fill="none" stroke="#000000" stroke-width="3.25" stroke-linejoin="bevel" points="772.244,1284.13 772.244,1366.73"/>
<polyline class="Stem" fill="none" stroke="#000000" stroke-width="3.25" stroke-linejoin="bevel" points="1663.24,322.602 1663.24,404.233"/>
<polyline class="Stem" fill="none" stroke="#000000" stroke-width="3.25" stroke-linejoin="bevel" points="2529.31,335.102 2529.31,416.733"/>
<polyline class="Stem" fill="none" stroke="#000000" stroke-width="3.25" stroke-linejoin="bevel" points="1359.46,360.102 1359.46,435.483"/>
<polyline class="Stem" fill="none" stroke="#000000" stroke-width="3.25" stroke-linejoin="bevel" points="2681.2,322.602 2681.2,404.233"/>
<polyline class="Stem" fill="none" stroke="#000000" stroke-width="3.25" stroke-linejoin="bevel" points="2377.42,360.102 2377.42,435.483"/>
<polyline class="Stem" fill="none" stroke="#000000" stroke-width="3.25" stroke-linejoin="bevel" points="287.955,784.133 287.955,866.733"/>
<polyline class="Stem" fill="none" stroke="#000000" stroke-width="3.25" stroke-linejoin="bevel" points="645.28,322.602 645.28,404.233"/>
<polyline class="Stem" fill="none" stroke="#000000" stroke-width="3.25" stroke-linejoin="bevel" points="1511.35,335.102 1511.35,416.733"/>
<polyline class="Stem" fill="none" stroke="#000000" stroke-width="3.25" stroke-linejoin="bevel" points="587.427,809.133 587.427,891.733"/>
<polyline class="Stem" fill="none" stroke="#000000" stroke-width="3.25" stroke-linejoin="bevel" points="493.389,335.102 493.389,416.733"/>
<polyline class="Stem" fill="none" stroke="#000000" stroke-width="3.25" stroke-linejoin="bevel" points="916.802,834.133 916.802,910.483"/>
<polyline class="Stem" fill="none" stroke="#000000" stroke-width="3.25" stroke-linejoin="bevel" points="341.498,360.102 341.498,435.483"/>
<polyline class="Stem" fill="none" stroke="#000000" stroke-width="3.25" stroke-linejoin="bevel" points="1216.27,809.133 1216.27,891.733"/>
<path class="Note" d="M1614.84,1277.37 C1616.72,1277.37 1620.68,1275.42 1626.71,1271.51 C1632.73,1267.61 1636.28,1264.99 1637.35,1263.65 C1638.43,1262.32 1638.96,1261.13 1638.96,1260.09 C1638.96,1259.05 1638.54,1258.12 1637.69,1257.31 C1636.84,1256.5 1635.86,1256.09 1634.76,1256.09 C1632.81,1256.09 1628.83,1258.06 1622.8,1262 C1616.77,1265.94 1613.24,1268.56 1612.2,1269.86 C1611.16,1271.16 1610.64,1272.33 1610.64,1273.37 C1610.64,1274.42 1611.04,1275.34 1611.86,1276.15 C1612.68,1276.97 1613.67,1277.37 1614.84,1277.37 M1633.79,1252.97 C1639.39,1252.97 1642.18,1255.37 1642.18,1260.19 C1642.18,1262.53 1641.5,1265.25 1640.14,1268.34 C1638.77,1271.44 1636.95,1273.8 1634.67,1275.42 C1629.66,1278.81 1623.37,1280.5 1615.82,1280.5 C1610.22,1280.5 1607.42,1278.09 1607.42,1273.28 C1607.42,1271.13 1608.08,1268.46 1609.42,1265.27 C1610.75,1262.08 1612.59,1259.67 1614.93,1258.05 C1619.95,1254.66 1626.24,1252.97 1633.79,1252.97"/>
<path class="Note" d="M1531.69,315.467 C1534.82,315.467 1537.42,316.248 1539.51,317.811 C1541.59,319.373 1542.63,321.618 1542.63,324.545 C1542.63,329.035 1540.31,333.232 1535.66,337.139 C1531,341.045 1526.01,342.998 1520.66,342.998 C1517.54,342.998 1514.9,342.186 1512.76,340.561 C1510.74,338.8 1509.73,336.587 1509.73,333.92 C1509.73,329.555 1512.04,325.389 1516.66,321.42 C1521.29,317.451 1526.3,315.467 1531.69,315.467"/>
<path class="Note" d="M1428.34,1240.47 C1431.46,1240.47 1434.07,1241.25 1436.15,1242.81 C1438.23,1244.37 1439.28,1246.62 1439.28,1249.55 C1439.28,1254.04 1436.95,1258.23 1432.3,1262.14 C1427.65,1266.05 1422.65,1268 1417.31,1268 C1414.18,1268 1411.55,1267.19 1409.4,1265.56 C1407.38,1263.8 1406.37,1261.59 1406.37,1258.92 C1406.37,1254.56 1408.68,1250.39 1413.31,1246.42 C1417.93,1242.45 1422.94,1240.47 1428.34,1240.47"/>
<path class="Note" d="M1379.8,340.467 C1382.93,340.467 1385.53,341.248 1387.62,342.811 C1389.7,344.373 1390.74,346.618 1390.74,349.545 C1390.74,354.035 1388.42,358.232 1383.76,362.139 C1379.11,366.045 1374.12,367.998 1368.77,367.998 C1365.65,367.998 1363.01,367.186 1360.87,365.561 C1358.85,363.8 1357.83,361.587 1357.83,358.92 C1357.83,354.555 1360.15,350.389 1364.77,346.42 C1369.4,342.451 1374.41,340.467 1379.8,340.467"/>
<path class="Note" d="M639.078,1764.87 C640.963,1764.87 644.919,1762.92 650.945,1759.01 C656.971,1755.11 660.521,1752.49 661.594,1751.16 C662.667,1749.82 663.203,1748.63 663.203,1747.59 C663.203,1746.55 662.779,1745.62 661.93,1744.81 C661.081,1744 660.104,1743.59 659,1743.59 C657.052,1743.59 653.065,1745.56 647.039,1749.5 C641.013,1753.44 637.479,1756.06 636.437,1757.36 C635.396,1758.66 634.875,1759.83 634.875,1760.87 C634.875,1761.92 635.284,1762.84 636.102,1763.66 C636.919,1764.47 637.911,1764.87 639.078,1764.87 M658.031,1740.47 C663.625,1740.47 666.422,1742.87 666.422,1747.69 C666.422,1750.03 665.74,1752.75 664.375,1755.84 C663.01,1758.94 661.187,1761.3 658.906,1762.92 C653.896,1766.31 647.615,1768 640.062,1768 C634.458,1768 631.656,1765.59 631.656,1760.78 C631.656,1758.63 632.323,1755.97 633.656,1752.77 C634.99,1749.58 636.828,1747.17 639.172,1745.55 C644.193,1742.16 650.479,1740.47 658.031,1740.47"/>
<path class="Note" d="M2247.59,1252.97 C2250.71,1252.97 2253.32,1253.75 2255.4,1255.31 C2257.48,1256.87 2258.53,1259.12 2258.53,1262.05 C2258.53,1266.54 2256.2,1270.73 2251.55,1274.64 C2246.9,1278.55 2241.9,1280.5 2236.56,1280.5 C2233.43,1280.5 2230.8,1279.69 2228.65,1278.06 C2226.63,1276.3 2225.62,1274.09 2225.62,1271.42 C2225.62,1267.06 2227.93,1262.89 2232.56,1258.92 C2237.18,1254.95 2242.19,1252.97 2247.59,1252.97"/>
<path class="Note" d="M841.639,309.701 C844.504,313.545 848.181,315.467 852.67,315.467 C857.16,315.467 859.405,312.441 859.405,306.389 C859.405,303.514 858.592,300.972 856.967,298.764 C854.165,294.92 850.389,292.998 845.639,292.998 C843.556,292.998 841.962,293.86 840.858,295.584 C839.754,297.308 839.202,299.54 839.202,302.279 C839.202,305.019 840.014,307.493 841.639,309.701 M831.967,294.467 C836.853,291.8 842.73,290.467 849.6,290.467 C856.47,290.467 862.264,291.834 866.983,294.568 C871.702,297.303 874.061,300.558 874.061,304.334 C874.061,308.11 871.618,311.331 866.733,313.998 C861.847,316.665 856.004,317.998 849.202,317.998 C842.399,317.998 836.59,316.631 831.772,313.897 C826.954,311.162 824.545,307.876 824.545,304.037 C824.545,300.199 827.019,297.009 831.967,294.467"/>
<path class="Note" d="M665.623,302.967 C668.748,302.967 671.352,303.748 673.436,305.311 C675.519,306.873 676.561,309.118 676.561,312.045 C676.561,316.535 674.235,320.732 669.584,324.639 C664.933,328.545 659.936,330.498 654.592,330.498 C651.467,330.498 648.832,329.686 646.686,328.061 C644.665,326.3 643.655,324.087 643.655,321.42 C643.655,317.055 645.967,312.889 650.592,308.92 C655.217,304.951 660.227,302.967 665.623,302.967"/>
<path class="Note" d="M1561.12,822.202 C1563.98,826.045 1567.66,827.967 1572.15,827.967 C1576.64,827.967 1578.88,824.941 1578.88,818.889 C1578.88,816.014 1578.07,813.472 1576.45,811.264 C1573.64,807.42 1569.87,805.498 1565.12,805.498 C1563.03,805.498 1561.44,806.36 1560.34,808.084 C1559.23,809.808 1558.68,812.04 1558.68,814.78 C1558.68,817.519 1559.49,819.993 1561.12,822.202 M1551.45,806.967 C1556.33,804.3 1562.21,802.967 1569.08,802.967 C1575.95,802.967 1581.74,804.334 1586.46,807.069 C1591.18,809.803 1593.54,813.058 1593.54,816.834 C1593.54,820.61 1591.1,823.832 1586.21,826.498 C1581.33,829.165 1575.48,830.498 1568.68,830.498 C1561.88,830.498 1556.07,829.131 1551.25,826.397 C1546.43,823.662 1544.02,820.376 1544.02,816.537 C1544.02,812.699 1546.5,809.509 1551.45,806.967"/>
<path class="Note" d="M2449.54,1265.47 C2452.66,1265.47 2455.27,1266.25 2457.35,1267.81 C2459.43,1269.37 2460.48,1271.62 2460.48,1274.55 C2460.48,1279.04 2458.15,1283.23 2453.5,1287.14 C2448.85,1291.05 2443.85,1293 2438.51,1293 C2435.38,1293 2432.75,1292.19 2430.6,1290.56 C2428.58,1288.8 2427.57,1286.59 2427.57,1283.92 C2427.57,1279.56 2429.88,1275.39 2434.51,1271.42 C2439.13,1267.45 2444.14,1265.47 2449.54,1265.47"/>
<path class="Note" d="M513.733,315.467 C516.858,315.467 519.462,316.248 521.545,317.811 C523.628,319.373 524.67,321.618 524.67,324.545 C524.67,329.035 522.345,333.232 517.694,337.139 C513.042,341.045 508.045,342.998 502.701,342.998 C499.576,342.998 496.941,342.186 494.795,340.561 C492.774,338.8 491.764,336.587 491.764,333.92 C491.764,329.555 494.076,325.389 498.701,321.42 C503.326,317.451 508.337,315.467 513.733,315.467"/>
<path class="Note" d="M2651.49,1252.97 C2654.61,1252.97 2657.22,1253.75 2659.3,1255.31 C2661.38,1256.87 2662.43,1259.12 2662.43,1262.05 C2662.43,1266.54 2660.1,1270.73 2655.45,1274.64 C2650.8,1278.55 2645.8,1280.5 2640.46,1280.5 C2637.33,1280.5 2634.7,1279.69 2632.55,1278.06 C2630.53,1276.3 2629.52,1274.09 2629.52,1271.42 C2629.52,1267.06 2631.83,1262.89 2636.46,1258.92 C2641.08,1254.95 2646.09,1252.97 2651.49,1252.97"/>
<path class="Note" d="M361.842,340.467 C364.967,340.467 367.571,341.248 369.654,342.811 C371.738,344.373 372.779,346.618 372.779,349.545 C372.779,354.035 370.454,358.232 365.803,362.139 C361.152,366.045 356.154,367.998 350.811,367.998 C347.686,367.998 345.05,367.186 342.904,365.561 C340.884,363.8 339.873,361.587 339.873,358.92 C339.873,354.555 342.186,350.389 346.811,346.42 C351.436,342.451 356.446,340.467 361.842,340.467"/>
<path class="Note" d="M293.752,1739.87 C295.637,1739.87 299.593,1737.92 305.619,1734.01 C311.645,1730.11 315.195,1727.49 316.268,1726.16 C317.341,1724.82 317.877,1723.63 317.877,1722.59 C317.877,1721.55 317.453,1720.62 316.604,1719.81 C315.755,1719 314.778,1718.59 313.674,1718.59 C311.726,1718.59 307.739,1720.56 301.713,1724.5 C295.687,1728.44 292.153,1731.06 291.111,1732.36 C290.07,1733.66 289.549,1734.83 289.549,1735.87 C289.549,1736.92 289.958,1737.84 290.775,1738.66 C291.593,1739.47 292.585,1739.87 293.752,1739.87 M312.705,1715.47 C318.299,1715.47 321.096,1717.87 321.096,1722.69 C321.096,1725.03 320.413,1727.75 319.049,1730.84 C317.684,1733.94 315.861,1736.3 313.58,1737.92 C308.57,1741.31 302.288,1743 294.736,1743 C289.132,1743 286.33,1740.59 286.33,1735.78 C286.33,1733.63 286.997,1730.97 288.33,1727.77 C289.663,1724.58 291.502,1722.17 293.846,1720.55 C298.867,1717.16 305.153,1715.47 312.705,1715.47"/>
<path class="Note" d="M1859.6,309.701 C1862.47,313.545 1866.14,315.467 1870.63,315.467 C1875.12,315.467 1877.37,312.441 1877.37,306.389 C1877.37,303.514 1876.55,300.972 1874.93,298.764 C1872.13,294.92 1868.35,292.998 1863.6,292.998 C1861.52,292.998 1859.92,293.86 1858.82,295.584 C1857.72,297.308 1857.16,299.54 1857.16,302.279 C1857.16,305.019 1857.98,307.493 1859.6,309.701 M1849.93,294.467 C1854.81,291.8 1860.69,290.467 1867.56,290.467 C1874.43,290.467 1880.23,291.834 1884.94,294.568 C1889.66,297.303 1892.02,300.558 1892.02,304.334 C1892.02,308.11 1889.58,311.331 1884.69,313.998 C1879.81,316.665 1873.97,317.998 1867.16,317.998 C1860.36,317.998 1854.55,316.631 1849.73,313.897 C1844.92,311.162 1842.51,307.876 1842.51,304.037 C1842.51,300.199 1844.98,297.009 1849.93,294.467"/>
<path class="Note" d="M1222.07,814.873 C1223.96,814.873 1227.91,812.92 1233.94,809.014 C1239.96,805.108 1243.51,802.488 1244.59,801.155 C1245.66,799.821 1246.2,798.634 1246.2,797.592 C1246.2,796.55 1245.77,795.623 1244.92,794.811 C1244.07,793.998 1243.1,793.592 1241.99,793.592 C1240.04,793.592 1236.06,795.561 1230.03,799.498 C1224.01,803.436 1220.47,806.056 1219.43,807.358 C1218.39,808.66 1217.87,809.832 1217.87,810.873 C1217.87,811.915 1218.28,812.842 1219.09,813.655 C1219.91,814.467 1220.9,814.873 1222.07,814.873 M1241.02,790.467 C1246.62,790.467 1249.41,792.873 1249.41,797.686 C1249.41,800.03 1248.73,802.748 1247.37,805.842 C1246,808.936 1244.18,811.295 1241.9,812.92 C1236.89,816.306 1230.61,817.998 1223.06,817.998 C1217.45,817.998 1214.65,815.592 1214.65,810.78 C1214.65,808.634 1215.32,805.965 1216.65,802.772 C1217.98,799.579 1219.82,797.17 1222.16,795.545 C1227.19,792.16 1233.47,790.467 1241.02,790.467"/>
<path class="Note" d="M922.599,839.873 C924.484,839.873 928.44,837.92 934.466,834.014 C940.492,830.108 944.041,827.488 945.114,826.155 C946.187,824.821 946.724,823.634 946.724,822.592 C946.724,821.551 946.299,820.623 945.45,819.811 C944.601,818.998 943.625,818.592 942.52,818.592 C940.573,818.592 936.586,820.561 930.56,824.498 C924.533,828.436 921,831.056 919.958,832.358 C918.916,833.66 918.395,834.832 918.395,835.873 C918.395,836.915 918.804,837.842 919.622,838.655 C920.44,839.467 921.432,839.873 922.599,839.873 M941.552,815.467 C947.145,815.467 949.942,817.873 949.942,822.686 C949.942,825.03 949.26,827.748 947.895,830.842 C946.531,833.936 944.708,836.295 942.427,837.92 C937.416,841.306 931.135,842.998 923.583,842.998 C917.979,842.998 915.177,840.592 915.177,835.78 C915.177,833.634 915.843,830.965 917.177,827.772 C918.51,824.579 920.349,822.17 922.692,820.545 C927.713,817.16 934,815.467 941.552,815.467"/>
<path class="Note" d="M1014.31,1789.87 C1016.19,1789.87 1020.15,1787.92 1026.17,1784.01 C1032.2,1780.11 1035.75,1777.49 1036.82,1776.16 C1037.9,1774.82 1038.43,1773.63 1038.43,1772.59 C1038.43,1771.55 1038.01,1770.62 1037.16,1769.81 C1036.31,1769 1035.33,1768.59 1034.23,1768.59 C1032.28,1768.59 1028.29,1770.56 1022.27,1774.5 C1016.24,1778.44 1012.71,1781.06 1011.67,1782.36 C1010.62,1783.66 1010.1,1784.83 1010.1,1785.87 C1010.1,1786.92 1010.51,1787.84 1011.33,1788.66 C1012.15,1789.47 1013.14,1789.87 1014.31,1789.87 M1033.26,1765.47 C1038.85,1765.47 1041.65,1767.87 1041.65,1772.69 C1041.65,1775.03 1040.97,1777.75 1039.6,1780.84 C1038.24,1783.94 1036.42,1786.3 1034.13,1787.92 C1029.12,1791.31 1022.84,1793 1015.29,1793 C1009.69,1793 1006.88,1790.59 1006.88,1785.78 C1006.88,1783.63 1007.55,1780.97 1008.88,1777.77 C1010.22,1774.58 1012.06,1772.17 1014.4,1770.55 C1019.42,1767.16 1025.71,1765.47 1033.26,1765.47"/>
<path class="Note" d="M593.224,814.873 C595.11,814.873 599.065,812.92 605.091,809.014 C611.117,805.108 614.667,802.488 615.74,801.155 C616.813,799.821 617.349,798.634 617.349,797.592 C617.349,796.55 616.925,795.623 616.076,794.811 C615.227,793.998 614.25,793.592 613.146,793.592 C611.198,793.592 607.211,795.561 601.185,799.498 C595.159,803.436 591.625,806.056 590.583,807.358 C589.542,808.66 589.021,809.832 589.021,810.873 C589.021,811.915 589.43,812.842 590.248,813.655 C591.065,814.467 592.057,814.873 593.224,814.873 M612.177,790.467 C617.771,790.467 620.568,792.873 620.568,797.686 C620.568,800.03 619.886,802.748 618.521,805.842 C617.156,808.936 615.333,811.295 613.052,812.92 C608.042,816.306 601.761,817.998 594.208,817.998 C588.604,817.998 585.802,815.592 585.802,810.78 C585.802,808.634 586.469,805.965 587.802,802.772 C589.136,799.579 590.974,797.17 593.318,795.545 C598.339,792.16 604.625,790.467 612.177,790.467"/>
<path class="Note" d="M2254.49,790.467 C2257.62,790.467 2260.22,791.248 2262.31,792.811 C2264.39,794.373 2265.43,796.618 2265.43,799.545 C2265.43,804.035 2263.1,808.233 2258.45,812.139 C2253.8,816.045 2248.81,817.998 2243.46,817.998 C2240.34,817.998 2237.7,817.186 2235.56,815.561 C2233.53,813.8 2232.52,811.587 2232.52,808.92 C2232.52,804.556 2234.84,800.389 2239.46,796.42 C2244.09,792.452 2249.1,790.467 2254.49,790.467"/>
<path class="Note" d="M2454.14,790.467 C2457.27,790.467 2459.87,791.248 2461.95,792.811 C2464.04,794.373 2465.08,796.618 2465.08,799.545 C2465.08,804.035 2462.75,808.233 2458.1,812.139 C2453.45,816.045 2448.45,817.998 2443.11,817.998 C2439.98,817.998 2437.35,817.186 2435.2,815.561 C2433.18,813.8 2432.17,811.587 2432.17,808.92 C2432.17,804.556 2434.48,800.389 2439.11,796.42 C2443.73,792.452 2448.75,790.467 2454.14,790.467"/>
<path class="Note" d="M293.752,789.873 C295.637,789.873 299.593,787.92 305.619,784.014 C311.645,780.108 315.195,777.488 316.268,776.155 C317.341,774.821 317.877,773.634 317.877,772.592 C317.877,771.55 317.453,770.623 316.604,769.811 C315.755,768.998 314.778,768.592 313.674,768.592 C311.726,768.592 307.739,770.561 301.713,774.498 C295.687,778.436 292.153,781.056 291.111,782.358 C290.07,783.66 289.549,784.832 289.549,785.873 C289.549,786.915 289.958,787.842 290.775,788.655 C291.593,789.467 292.585,789.873 293.752,789.873 M312.705,765.467 C318.299,765.467 321.096,767.873 321.096,772.686 C321.096,775.03 320.413,777.748 319.049,780.842 C317.684,783.936 315.861,786.295 313.58,787.92 C308.57,791.306 302.288,792.998 294.736,792.998 C289.132,792.998 286.33,790.592 286.33,785.78 C286.33,783.634 286.997,780.965 288.33,777.772 C289.663,774.579 291.502,772.17 293.846,770.545 C298.867,767.16 305.153,765.467 312.705,765.467"/>
<path class="Note" d="M2653.79,802.967 C2656.91,802.967 2659.52,803.748 2661.6,805.311 C2663.68,806.873 2664.73,809.118 2664.73,812.045 C2664.73,816.535 2662.4,820.733 2657.75,824.639 C2653.1,828.545 2648.1,830.498 2642.76,830.498 C2639.63,830.498 2637,829.686 2634.85,828.061 C2632.83,826.3 2631.82,824.087 2631.82,821.42 C2631.82,817.056 2634.13,812.889 2638.76,808.92 C2643.38,804.952 2648.39,802.967 2653.79,802.967"/>
<path class="Note" d="M1359.63,1777.37 C1361.52,1777.37 1365.47,1775.42 1371.5,1771.51 C1377.53,1767.61 1381.08,1764.99 1382.15,1763.66 C1383.22,1762.32 1383.76,1761.13 1383.76,1760.09 C1383.76,1759.05 1383.33,1758.12 1382.48,1757.31 C1381.64,1756.5 1380.66,1756.09 1379.55,1756.09 C1377.61,1756.09 1373.62,1758.06 1367.59,1762 C1361.57,1765.94 1358.03,1768.56 1356.99,1769.86 C1355.95,1771.16 1355.43,1772.33 1355.43,1773.37 C1355.43,1774.42 1355.84,1775.34 1356.66,1776.16 C1357.47,1776.97 1358.47,1777.37 1359.63,1777.37 M1378.59,1752.97 C1384.18,1752.97 1386.98,1755.37 1386.98,1760.19 C1386.98,1762.53 1386.29,1765.25 1384.93,1768.34 C1383.56,1771.44 1381.74,1773.8 1379.46,1775.42 C1374.45,1778.81 1368.17,1780.5 1360.62,1780.5 C1355.01,1780.5 1352.21,1778.09 1352.21,1773.28 C1352.21,1771.13 1352.88,1768.47 1354.21,1765.27 C1355.54,1762.08 1357.38,1759.67 1359.73,1758.05 C1364.75,1754.66 1371.03,1752.97 1378.59,1752.97"/>
<path class="Note" d="M2701.55,302.967 C2704.67,302.967 2707.28,303.748 2709.36,305.311 C2711.44,306.873 2712.48,309.118 2712.48,312.045 C2712.48,316.535 2710.16,320.732 2705.51,324.639 C2700.86,328.545 2695.86,330.498 2690.52,330.498 C2687.39,330.498 2684.75,329.686 2682.61,328.061 C2680.59,326.3 2679.58,324.087 2679.58,321.42 C2679.58,317.055 2681.89,312.889 2686.52,308.92 C2691.14,304.951 2696.15,302.967 2701.55,302.967"/>
<path class="Note" d="M2549.66,315.467 C2552.78,315.467 2555.38,316.248 2557.47,317.811 C2559.55,319.373 2560.59,321.618 2560.59,324.545 C2560.59,329.035 2558.27,333.232 2553.62,337.139 C2548.97,341.045 2543.97,342.998 2538.62,342.998 C2535.5,342.998 2532.86,342.186 2530.72,340.561 C2528.7,338.8 2527.69,336.587 2527.69,333.92 C2527.69,329.555 2530,325.389 2534.62,321.42 C2539.25,317.451 2544.26,315.467 2549.66,315.467"/>
<path class="Note" d="M296.025,1309.7 C298.89,1313.55 302.567,1315.47 307.057,1315.47 C311.546,1315.47 313.791,1312.44 313.791,1306.39 C313.791,1303.51 312.979,1300.97 311.354,1298.76 C308.551,1294.92 304.775,1293 300.025,1293 C297.942,1293 296.348,1293.86 295.244,1295.58 C294.14,1297.31 293.588,1299.54 293.588,1302.28 C293.588,1305.02 294.4,1307.49 296.025,1309.7 M286.354,1294.47 C291.239,1291.8 297.117,1290.47 303.986,1290.47 C310.856,1290.47 316.65,1291.83 321.369,1294.57 C326.088,1297.3 328.447,1300.56 328.447,1304.33 C328.447,1308.11 326.005,1311.33 321.119,1314 C316.234,1316.67 310.39,1318 303.588,1318 C296.786,1318 290.976,1316.63 286.158,1313.9 C281.341,1311.16 278.932,1307.88 278.932,1304.04 C278.932,1300.2 281.406,1297.01 286.354,1294.47"/>
<path class="Note" d="M2397.76,340.467 C2400.89,340.467 2403.49,341.248 2405.58,342.811 C2407.66,344.373 2408.7,346.618 2408.7,349.545 C2408.7,354.035 2406.38,358.232 2401.73,362.139 C2397.07,366.045 2392.08,367.998 2386.73,367.998 C2383.61,367.998 2380.97,367.186 2378.83,365.561 C2376.81,363.8 2375.8,361.587 2375.8,358.92 C2375.8,354.555 2378.11,350.389 2382.73,346.42 C2387.36,342.451 2392.37,340.467 2397.76,340.467"/>
<path class="Note" d="M778.041,1289.87 C779.926,1289.87 783.882,1287.92 789.908,1284.01 C795.934,1280.11 799.483,1277.49 800.556,1276.15 C801.629,1274.82 802.166,1273.63 802.166,1272.59 C802.166,1271.55 801.741,1270.62 800.892,1269.81 C800.043,1269 799.067,1268.59 797.962,1268.59 C796.014,1268.59 792.027,1270.56 786.001,1274.5 C779.975,1278.44 776.442,1281.06 775.4,1282.36 C774.358,1283.66 773.837,1284.83 773.837,1285.87 C773.837,1286.92 774.246,1287.84 775.064,1288.65 C775.882,1289.47 776.874,1289.87 778.041,1289.87 M796.994,1265.47 C802.587,1265.47 805.384,1267.87 805.384,1272.69 C805.384,1275.03 804.702,1277.75 803.337,1280.84 C801.973,1283.94 800.15,1286.3 797.869,1287.92 C792.858,1291.31 786.577,1293 779.025,1293 C773.421,1293 770.619,1290.59 770.619,1285.78 C770.619,1283.63 771.285,1280.96 772.619,1277.77 C773.952,1274.58 775.791,1272.17 778.134,1270.55 C783.155,1267.16 789.442,1265.47 796.994,1265.47"/>
<path class="Note" d="M1744.53,1784.7 C1747.4,1788.55 1751.07,1790.47 1755.56,1790.47 C1760.05,1790.47 1762.3,1787.44 1762.3,1781.39 C1762.3,1778.51 1761.49,1775.97 1759.86,1773.76 C1757.06,1769.92 1753.28,1768 1748.53,1768 C1746.45,1768 1744.86,1768.86 1743.75,1770.58 C1742.65,1772.31 1742.1,1774.54 1742.1,1777.28 C1742.1,1780.02 1742.91,1782.49 1744.53,1784.7 M1734.86,1769.47 C1739.75,1766.8 1745.62,1765.47 1752.49,1765.47 C1759.36,1765.47 1765.16,1766.83 1769.88,1769.57 C1774.6,1772.3 1776.95,1775.56 1776.95,1779.33 C1776.95,1783.11 1774.51,1786.33 1769.63,1789 C1764.74,1791.67 1758.9,1793 1752.1,1793 C1745.29,1793 1739.48,1791.63 1734.67,1788.9 C1729.85,1786.16 1727.44,1782.88 1727.44,1779.04 C1727.44,1775.2 1729.91,1772.01 1734.86,1769.47"/>
<path class="Note" d="M1080.96,1264.87 C1082.85,1264.87 1086.81,1262.92 1092.83,1259.01 C1098.86,1255.11 1102.41,1252.49 1103.48,1251.15 C1104.55,1249.82 1105.09,1248.63 1105.09,1247.59 C1105.09,1246.55 1104.67,1245.62 1103.82,1244.81 C1102.97,1244 1101.99,1243.59 1100.89,1243.59 C1098.94,1243.59 1094.95,1245.56 1088.93,1249.5 C1082.9,1253.44 1079.37,1256.06 1078.32,1257.36 C1077.28,1258.66 1076.76,1259.83 1076.76,1260.87 C1076.76,1261.92 1077.17,1262.84 1077.99,1263.65 C1078.81,1264.47 1079.8,1264.87 1080.96,1264.87 M1099.92,1240.47 C1105.51,1240.47 1108.31,1242.87 1108.31,1247.69 C1108.31,1250.03 1107.63,1252.75 1106.26,1255.84 C1104.9,1258.94 1103.07,1261.3 1100.79,1262.92 C1095.78,1266.31 1089.5,1268 1081.95,1268 C1076.34,1268 1073.54,1265.59 1073.54,1260.78 C1073.54,1258.63 1074.21,1255.96 1075.54,1252.77 C1076.88,1249.58 1078.71,1247.17 1081.06,1245.55 C1086.08,1242.16 1092.37,1240.47 1099.92,1240.47"/>
<path class="Note" d="M1683.58,302.967 C1686.71,302.967 1689.31,303.748 1691.4,305.311 C1693.48,306.873 1694.52,309.118 1694.52,312.045 C1694.52,316.535 1692.2,320.732 1687.55,324.639 C1682.89,328.545 1677.9,330.498 1672.55,330.498 C1669.43,330.498 1666.79,329.686 1664.65,328.061 C1662.63,326.3 1661.62,324.087 1661.62,321.42 C1661.62,317.055 1663.93,312.889 1668.55,308.92 C1673.18,304.951 1678.19,302.967 1683.58,302.967"/>
<path class="Clef" d="M203.623,423.858 L203.623,421.717 C203.56,420.613 203.399,418.889 203.139,416.545 C199.889,417.066 196.993,417.326 194.451,417.326 C185.337,417.326 177.605,413.727 171.256,406.529 C164.907,399.331 161.732,390.753 161.732,380.795 C161.732,378.128 162.253,374.923 163.295,371.178 C164.337,367.433 165.297,364.925 166.178,363.654 C167.058,362.384 168.378,360.154 170.139,356.967 C170.659,355.988 172.352,353.837 175.217,350.514 C175.738,349.805 176.193,349.222 176.584,348.764 C176.975,348.305 177.607,347.49 178.482,346.318 C179.357,345.147 180.3,344.055 181.31,343.045 C182.321,342.035 183.217,341.058 183.998,340.115 C184.779,339.173 185.498,338.378 186.154,337.733 C183.81,329.983 182.378,324.024 181.857,319.858 C181.337,315.691 181.076,310.579 181.076,304.522 C181.076,298.464 182.378,292.962 184.982,288.014 C187.514,282.878 191.06,278.68 195.623,275.42 C195.883,275.222 196.225,275.123 196.646,275.123 C197.068,275.123 197.378,275.222 197.576,275.42 C201.087,279.649 204.128,285.149 206.701,291.92 C209.274,298.691 210.56,305.024 210.56,310.92 C210.56,316.816 209.066,322.498 206.076,327.967 C202.691,333.759 198.326,339.748 192.982,345.936 C194.347,350.227 196.17,356.962 198.451,366.139 L199.045,366.139 C199.305,366.076 199.529,366.045 199.717,366.045 C207.081,366.045 213.089,368.634 217.74,373.811 C222.391,378.988 224.717,384.962 224.717,391.733 C224.717,400.128 221.238,406.899 214.279,412.045 C212.258,413.545 209.878,414.717 207.139,415.561 C207.472,419.79 207.639,422.605 207.639,424.006 C207.639,425.407 207.571,427.899 207.435,431.483 C207.373,437.597 205.29,442.837 201.185,447.201 C197.081,451.566 192.394,453.748 187.123,453.748 C181.852,453.748 177.36,451.876 173.646,448.131 C169.933,444.386 168.076,439.847 168.076,434.514 C168.076,431.712 169.154,429.331 171.31,427.373 C173.519,425.425 176.006,424.451 178.771,424.451 C181.537,424.451 183.8,425.462 185.56,427.483 C187.383,429.368 188.295,431.644 188.295,434.311 C188.295,436.977 187.383,439.222 185.56,441.045 C183.738,442.868 181.555,443.779 179.014,443.779 C177.972,443.779 176.967,443.587 175.998,443.201 C178.863,447.43 182.54,449.545 187.029,449.545 C191.519,449.545 195.36,447.691 198.553,443.983 C201.745,440.274 203.342,435.91 203.342,430.889 L203.623,423.858 M206.748,411.561 C210.133,410.321 212.821,408.123 214.81,404.967 C216.8,401.811 217.795,398.67 217.795,395.545 C217.795,390.92 216.199,386.785 213.006,383.139 C209.813,379.493 205.774,377.441 200.889,376.983 C203.691,390.722 205.644,402.248 206.748,411.561 M168.967,388.998 C168.967,395.446 171.537,401.079 176.678,405.897 C181.818,410.714 187.842,413.123 194.748,413.123 C197.477,413.123 200.144,412.925 202.748,412.529 C201.706,402.634 199.654,390.785 196.592,376.983 C192.758,377.378 189.782,378.699 187.662,380.943 C185.542,383.188 184.482,385.743 184.482,388.608 C184.482,393.555 187.123,397.561 192.404,400.623 C192.852,400.884 193.076,401.324 193.076,401.943 C193.076,402.563 192.865,403.1 192.443,403.553 C192.021,404.006 191.649,404.233 191.326,404.233 C191.003,404.233 190.581,404.17 190.06,404.045 C182.435,399.878 178.623,393.592 178.623,385.186 C178.623,381.217 180.024,377.41 182.826,373.764 C185.753,370.118 189.56,367.774 194.248,366.733 C192.425,359.441 190.93,353.743 189.764,349.639 C180.847,359.67 175.31,367.092 173.154,371.904 C170.363,378.154 168.967,383.852 168.967,388.998 M201.576,289.686 C196.691,292.092 192.834,295.574 190.006,300.131 C187.178,304.688 185.764,309.472 185.764,314.483 C185.764,319.493 186.935,325.972 189.279,333.92 C193.967,328.253 197.514,322.946 199.92,317.998 C202.326,313.05 203.529,308.152 203.529,303.303 C203.529,298.454 202.878,293.915 201.576,289.686"/>
<path class="Clef" d="M203.623,1848.86 L203.623,1846.72 C203.56,1845.61 203.399,1843.89 203.139,1841.55 C199.889,1842.07 196.993,1842.33 194.451,1842.33 C185.337,1842.33 177.605,1838.73 171.256,1831.53 C164.907,1824.33 161.732,1815.75 161.732,1805.8 C161.732,1803.13 162.253,1799.92 163.295,1796.18 C164.337,1792.43 165.297,1789.93 166.178,1788.66 C167.058,1787.38 168.378,1785.16 170.139,1781.97 C170.659,1780.99 172.352,1778.84 175.217,1775.51 C175.738,1774.81 176.193,1774.22 176.584,1773.76 C176.975,1773.31 177.607,1772.49 178.482,1771.32 C179.357,1770.15 180.3,1769.06 181.31,1768.05 C182.321,1767.04 183.217,1766.06 183.998,1765.12 C184.779,1764.17 185.498,1763.38 186.154,1762.73 C183.81,1754.98 182.378,1749.03 181.857,1744.86 C181.337,1740.69 181.076,1735.58 181.076,1729.52 C181.076,1723.47 182.378,1717.96 184.982,1713.01 C187.514,1707.88 191.06,1703.68 195.623,1700.42 C195.883,1700.22 196.225,1700.12 196.646,1700.12 C197.068,1700.12 197.378,1700.22 197.576,1700.42 C201.087,1704.65 204.128,1710.15 206.701,1716.92 C209.274,1723.69 210.56,1730.03 210.56,1735.92 C210.56,1741.82 209.066,1747.5 206.076,1752.97 C202.691,1758.76 198.326,1764.75 192.982,1770.94 C194.347,1775.23 196.17,1781.96 198.451,1791.14 L199.045,1791.14 C199.305,1791.08 199.529,1791.05 199.717,1791.05 C207.081,1791.05 213.089,1793.63 217.74,1798.81 C222.391,1803.99 224.717,1809.96 224.717,1816.73 C224.717,1825.13 221.238,1831.9 214.279,1837.05 C212.258,1838.55 209.878,1839.72 207.139,1840.56 C207.472,1844.79 207.639,1847.61 207.639,1849.01 C207.639,1850.41 207.571,1852.9 207.435,1856.48 C207.373,1862.6 205.29,1867.84 201.185,1872.2 C197.081,1876.57 192.394,1878.75 187.123,1878.75 C181.852,1878.75 177.36,1876.88 173.646,1873.13 C169.933,1869.39 168.076,1864.85 168.076,1859.51 C168.076,1856.71 169.154,1854.33 171.31,1852.37 C173.519,1850.43 176.006,1849.45 178.771,1849.45 C181.537,1849.45 183.8,1850.46 185.56,1852.48 C187.383,1854.37 188.295,1856.64 188.295,1859.31 C188.295,1861.98 187.383,1864.22 185.56,1866.05 C183.738,1867.87 181.555,1868.78 179.014,1868.78 C177.972,1868.78 176.967,1868.59 175.998,1868.2 C178.863,1872.43 182.54,1874.55 187.029,1874.55 C191.519,1874.55 195.36,1872.69 198.553,1868.98 C201.745,1865.28 203.342,1860.91 203.342,1855.89 L203.623,1848.86 M206.748,1836.56 C210.133,1835.32 212.821,1833.12 214.81,1829.97 C216.8,1826.81 217.795,1823.67 217.795,1820.55 C217.795,1815.92 216.199,1811.79 213.006,1808.14 C209.813,1804.49 205.774,1802.44 200.889,1801.98 C203.691,1815.72 205.644,1827.25 206.748,1836.56 M168.967,1814 C168.967,1820.45 171.537,1826.08 176.678,1830.9 C181.818,1835.72 187.842,1838.12 194.748,1838.12 C197.477,1838.12 200.144,1837.93 202.748,1837.53 C201.706,1827.63 199.654,1815.79 196.592,1801.98 C192.758,1802.38 189.782,1803.7 187.662,1805.94 C185.542,1808.19 184.482,1810.74 184.482,1813.61 C184.482,1818.56 187.123,1822.56 192.404,1825.62 C192.852,1825.88 193.076,1826.32 193.076,1826.94 C193.076,1827.56 192.865,1828.1 192.443,1828.55 C192.021,1829.01 191.649,1829.23 191.326,1829.23 C191.003,1829.23 190.581,1829.17 190.06,1829.05 C182.435,1824.88 178.623,1818.59 178.623,1810.19 C178.623,1806.22 180.024,1802.41 182.826,1798.76 C185.753,1795.12 189.56,1792.78 194.248,1791.73 C192.425,1784.44 190.93,1778.74 189.764,1774.64 C180.847,1784.67 175.31,1792.09 173.154,1796.91 C170.363,1803.16 168.967,1808.85 168.967,1814 M201.576,1714.69 C196.691,1717.09 192.834,1720.57 190.006,1725.13 C187.178,1729.69 185.764,1734.47 185.764,1739.48 C185.764,1744.49 186.935,1750.97 189.279,1758.92 C193.967,1753.25 197.514,1747.95 199.92,1743 C202.326,1738.05 203.529,1733.15 203.529,1728.3 C203.529,1723.45 202.878,1718.92 201.576,1714.69"/>
<path class="Clef" d="M203.623,898.858 L203.623,896.717 C203.56,895.613 203.399,893.889 203.139,891.545 C199.889,892.066 196.993,892.327 194.451,892.327 C185.337,892.327 177.605,888.728 171.256,881.53 C164.907,874.332 161.732,865.754 161.732,855.795 C161.732,853.129 162.253,849.923 163.295,846.178 C164.337,842.433 165.297,839.926 166.178,838.655 C167.058,837.384 168.378,835.155 170.139,831.967 C170.659,830.988 172.352,828.837 175.217,825.514 C175.738,824.806 176.193,824.222 176.584,823.764 C176.975,823.306 177.607,822.491 178.482,821.319 C179.357,820.147 180.3,819.056 181.31,818.045 C182.321,817.035 183.217,816.058 183.998,815.116 C184.779,814.173 185.498,813.379 186.154,812.733 C183.81,804.983 182.378,799.024 181.857,794.858 C181.337,790.691 181.076,785.579 181.076,779.522 C181.076,773.465 182.378,767.962 184.982,763.014 C187.514,757.879 191.06,753.681 195.623,750.42 C195.883,750.222 196.225,750.123 196.646,750.123 C197.068,750.123 197.378,750.222 197.576,750.42 C201.087,754.649 204.128,760.149 206.701,766.92 C209.274,773.691 210.56,780.024 210.56,785.92 C210.56,791.816 209.066,797.498 206.076,802.967 C202.691,808.759 198.326,814.748 192.982,820.936 C194.347,825.228 196.17,831.962 198.451,841.139 L199.045,841.139 C199.305,841.077 199.529,841.045 199.717,841.045 C207.081,841.045 213.089,843.634 217.74,848.811 C222.391,853.988 224.717,859.962 224.717,866.733 C224.717,875.129 221.238,881.899 214.279,887.045 C212.258,888.545 209.878,889.717 207.139,890.561 C207.472,894.79 207.639,897.605 207.639,899.006 C207.639,900.407 207.571,902.899 207.435,906.483 C207.373,912.597 205.29,917.837 201.185,922.202 C197.081,926.566 192.394,928.748 187.123,928.748 C181.852,928.748 177.36,926.876 173.646,923.131 C169.933,919.386 168.076,914.847 168.076,909.514 C168.076,906.712 169.154,904.332 171.31,902.373 C173.519,900.426 176.006,899.452 178.771,899.452 C181.537,899.452 183.8,900.462 185.56,902.483 C187.383,904.368 188.295,906.644 188.295,909.311 C188.295,911.978 187.383,914.222 185.56,916.045 C183.738,917.868 181.555,918.78 179.014,918.78 C177.972,918.78 176.967,918.587 175.998,918.202 C178.863,922.431 182.54,924.545 187.029,924.545 C191.519,924.545 195.36,922.691 198.553,918.983 C201.745,915.274 203.342,910.91 203.342,905.889 L203.623,898.858 M206.748,886.561 C210.133,885.321 212.821,883.123 214.81,879.967 C216.8,876.811 217.795,873.67 217.795,870.545 C217.795,865.92 216.199,861.785 213.006,858.139 C209.813,854.493 205.774,852.441 200.889,851.983 C203.691,865.722 205.644,877.248 206.748,886.561 M168.967,863.998 C168.967,870.446 171.537,876.079 176.678,880.897 C181.818,885.715 187.842,888.123 194.748,888.123 C197.477,888.123 200.144,887.926 202.748,887.53 C201.706,877.634 199.654,865.785 196.592,851.983 C192.758,852.379 189.782,853.699 187.662,855.944 C185.542,858.189 184.482,860.743 184.482,863.608 C184.482,868.556 187.123,872.561 192.404,875.623 C192.852,875.884 193.076,876.324 193.076,876.944 C193.076,877.564 192.865,878.1 192.443,878.553 C192.021,879.006 191.649,879.233 191.326,879.233 C191.003,879.233 190.581,879.17 190.06,879.045 C182.435,874.879 178.623,868.592 178.623,860.186 C178.623,856.217 180.024,852.41 182.826,848.764 C185.753,845.118 189.56,842.774 194.248,841.733 C192.425,834.441 190.93,828.743 189.764,824.639 C180.847,834.67 175.31,842.092 173.154,846.905 C170.363,853.155 168.967,858.853 168.967,863.998 M201.576,764.686 C196.691,767.092 192.834,770.574 190.006,775.131 C187.178,779.689 185.764,784.472 185.764,789.483 C185.764,794.493 186.935,800.972 189.279,808.92 C193.967,803.254 197.514,797.946 199.92,792.998 C202.326,788.051 203.529,783.152 203.529,778.303 C203.529,773.454 202.878,768.915 201.576,764.686"/>
<path class="Clef" d="M203.623,1373.86 L203.623,1371.72 C203.56,1370.61 203.399,1368.89 203.139,1366.55 C199.889,1367.07 196.993,1367.33 194.451,1367.33 C185.337,1367.33 177.605,1363.73 171.256,1356.53 C164.907,1349.33 161.732,1340.75 161.732,1330.8 C161.732,1328.13 162.253,1324.92 163.295,1321.18 C164.337,1317.43 165.297,1314.93 166.178,1313.65 C167.058,1312.38 168.378,1310.15 170.139,1306.97 C170.659,1305.99 172.352,1303.84 175.217,1300.51 C175.738,1299.81 176.193,1299.22 176.584,1298.76 C176.975,1298.31 177.607,1297.49 178.482,1296.32 C179.357,1295.15 180.3,1294.06 181.31,1293.05 C182.321,1292.04 183.217,1291.06 183.998,1290.12 C184.779,1289.17 185.498,1288.38 186.154,1287.73 C183.81,1279.98 182.378,1274.02 181.857,1269.86 C181.337,1265.69 181.076,1260.58 181.076,1254.52 C181.076,1248.46 182.378,1242.96 184.982,1238.01 C187.514,1232.88 191.06,1228.68 195.623,1225.42 C195.883,1225.22 196.225,1225.12 196.646,1225.12 C197.068,1225.12 197.378,1225.22 197.576,1225.42 C201.087,1229.65 204.128,1235.15 206.701,1241.92 C209.274,1248.69 210.56,1255.02 210.56,1260.92 C210.56,1266.82 209.066,1272.5 206.076,1277.97 C202.691,1283.76 198.326,1289.75 192.982,1295.94 C194.347,1300.23 196.17,1306.96 198.451,1316.14 L199.045,1316.14 C199.305,1316.08 199.529,1316.05 199.717,1316.05 C207.081,1316.05 213.089,1318.63 217.74,1323.81 C222.391,1328.99 224.717,1334.96 224.717,1341.73 C224.717,1350.13 221.238,1356.9 214.279,1362.05 C212.258,1363.55 209.878,1364.72 207.139,1365.56 C207.472,1369.79 207.639,1372.61 207.639,1374.01 C207.639,1375.41 207.571,1377.9 207.435,1381.48 C207.373,1387.6 205.29,1392.84 201.185,1397.2 C197.081,1401.57 192.394,1403.75 187.123,1403.75 C181.852,1403.75 177.36,1401.88 173.646,1398.13 C169.933,1394.39 168.076,1389.85 168.076,1384.51 C168.076,1381.71 169.154,1379.33 171.31,1377.37 C173.519,1375.43 176.006,1374.45 178.771,1374.45 C181.537,1374.45 183.8,1375.46 185.56,1377.48 C187.383,1379.37 188.295,1381.64 188.295,1384.31 C188.295,1386.98 187.383,1389.22 185.56,1391.05 C183.738,1392.87 181.555,1393.78 179.014,1393.78 C177.972,1393.78 176.967,1393.59 175.998,1393.2 C178.863,1397.43 182.54,1399.55 187.029,1399.55 C191.519,1399.55 195.36,1397.69 198.553,1393.98 C201.745,1390.27 203.342,1385.91 203.342,1380.89 L203.623,1373.86 M206.748,1361.56 C210.133,1360.32 212.821,1358.12 214.81,1354.97 C216.8,1351.81 217.795,1348.67 217.795,1345.55 C217.795,1340.92 216.199,1336.79 213.006,1333.14 C209.813,1329.49 205.774,1327.44 200.889,1326.98 C203.691,1340.72 205.644,1352.25 206.748,1361.56 M168.967,1339 C168.967,1345.45 171.537,1351.08 176.678,1355.9 C181.818,1360.71 187.842,1363.12 194.748,1363.12 C197.477,1363.12 200.144,1362.93 202.748,1362.53 C201.706,1352.63 199.654,1340.79 196.592,1326.98 C192.758,1327.38 189.782,1328.7 187.662,1330.94 C185.542,1333.19 184.482,1335.74 184.482,1338.61 C184.482,1343.56 187.123,1347.56 192.404,1350.62 C192.852,1350.88 193.076,1351.32 193.076,1351.94 C193.076,1352.56 192.865,1353.1 192.443,1353.55 C192.021,1354.01 191.649,1354.23 191.326,1354.23 C191.003,1354.23 190.581,1354.17 190.06,1354.05 C182.435,1349.88 178.623,1343.59 178.623,1335.19 C178.623,1331.22 180.024,1327.41 182.826,1323.76 C185.753,1320.12 189.56,1317.77 194.248,1316.73 C192.425,1309.44 190.93,1303.74 189.764,1299.64 C180.847,1309.67 175.31,1317.09 173.154,1321.9 C170.363,1328.15 168.967,1333.85 168.967,1339 M201.576,1239.69 C196.691,1242.09 192.834,1245.57 190.006,1250.13 C187.178,1254.69 185.764,1259.47 185.764,1264.48 C185.764,1269.49 186.935,1275.97 189.279,1283.92 C193.967,1278.25 197.514,1272.95 199.92,1268 C202.326,1263.05 203.529,1258.15 203.529,1253.3 C203.529,1248.45 202.878,1243.92 201.576,1239.69"/>
<path class="TimeSig" d="M273.021,317.912 C274.516,317.912 275.949,317.686 277.318,317.232 C278.688,316.779 279.665,316.553 280.248,316.553 C280.831,316.553 281.222,316.907 281.42,317.615 C281.42,317.688 281.352,317.886 281.217,318.209 L252.811,351.225 L269.498,351.225 L269.498,338.131 C269.498,336.506 270.446,335.334 272.342,334.615 C274.29,333.897 276.503,331.001 278.982,325.928 C279.17,325.532 279.462,325.334 279.857,325.334 C280.639,325.334 281.092,325.792 281.217,326.709 L281.217,351.225 L288.357,351.225 C289.264,351.225 289.751,351.712 289.818,352.686 C289.886,353.66 289.399,354.147 288.357,354.147 L281.217,354.147 L281.217,354.928 C281.217,357.532 281.868,359.746 283.17,361.568 C284.67,363.391 286.43,364.303 288.451,364.303 C289.232,364.303 289.623,364.693 289.623,365.475 C289.623,366.256 289.087,366.647 288.014,366.647 C286.941,366.647 284.938,366.436 282.006,366.014 C279.074,365.592 276.811,365.381 275.217,365.381 C273.623,365.381 271.41,365.592 268.576,366.014 C265.743,366.436 263.613,366.647 262.186,366.647 C261.404,366.647 261.014,366.256 261.014,365.475 C261.014,364.693 261.404,364.303 262.186,364.303 C264.196,364.303 265.951,363.391 267.451,361.568 C268.816,359.683 269.498,357.469 269.498,354.928 L269.498,354.147 L252.811,354.147 C251.956,354.147 251.219,353.92 250.6,353.467 C249.98,353.014 249.67,352.592 249.67,352.201 C249.67,351.811 250.485,350.639 252.115,348.686 C253.745,346.732 256.074,342.972 259.1,337.404 C262.126,331.837 263.639,325.438 263.639,318.209 C263.639,317.167 264.097,316.647 265.014,316.647 C265.212,316.647 265.521,316.712 265.943,316.842 C266.365,316.972 267.277,317.183 268.678,317.475 C270.079,317.766 271.527,317.912 273.021,317.912"/>
<path class="TimeSig" d="M273.021,368.084 C274.516,368.084 275.949,367.858 277.318,367.404 C278.688,366.951 279.665,366.725 280.248,366.725 C280.831,366.725 281.222,367.079 281.42,367.787 C281.42,367.86 281.352,368.058 281.217,368.381 L252.811,401.397 L269.498,401.397 L269.498,388.303 C269.498,386.678 270.446,385.506 272.342,384.787 C274.29,384.068 276.503,381.173 278.982,376.1 C279.17,375.704 279.462,375.506 279.857,375.506 C280.639,375.506 281.092,375.964 281.217,376.881 L281.217,401.397 L288.357,401.397 C289.264,401.397 289.751,401.884 289.818,402.858 C289.886,403.831 289.399,404.318 288.357,404.318 L281.217,404.318 L281.217,405.1 C281.217,407.704 281.868,409.917 283.17,411.74 C284.67,413.563 286.43,414.475 288.451,414.475 C289.232,414.475 289.623,414.865 289.623,415.647 C289.623,416.428 289.087,416.818 288.014,416.818 C286.941,416.818 284.938,416.608 282.006,416.186 C279.074,415.764 276.811,415.553 275.217,415.553 C273.623,415.553 271.41,415.764 268.576,416.186 C265.743,416.608 263.613,416.818 262.186,416.818 C261.404,416.818 261.014,416.428 261.014,415.647 C261.014,414.865 261.404,414.475 262.186,414.475 C264.196,414.475 265.951,413.563 267.451,411.74 C268.816,409.855 269.498,407.641 269.498,405.1 L269.498,404.318 L252.811,404.318 C251.956,404.318 251.219,404.092 250.6,403.639 C249.98,403.186 249.67,402.764 249.67,402.373 C249.67,401.983 250.485,400.811 252.115,398.858 C253.745,396.904 256.074,393.144 259.1,387.576 C262.126,382.009 263.639,375.61 263.639,368.381 C263.639,367.339 264.097,366.818 265.014,366.818 C265.212,366.818 265.521,366.884 265.943,367.014 C266.365,367.144 267.277,367.355 268.678,367.647 C270.079,367.938 271.527,368.084 273.021,368.084"/>
<path class="Rest" d="M2033.27,836.452 C2032.61,835.608 2032.28,834.696 2032.28,833.717 C2032.28,831.967 2034.37,829.53 2038.55,826.405 C2042.64,823.207 2044.69,819.561 2044.69,815.467 C2044.69,813.051 2043.84,810.837 2042.16,808.827 L2038.64,804.623 C2038.38,804.363 2038.25,804.037 2038.25,803.647 C2038.25,803.256 2038.44,802.899 2038.83,802.577 C2039.29,802.243 2039.71,802.077 2040.1,802.077 C2040.49,802.077 2040.82,802.274 2041.08,802.67 L2056.22,820.639 C2056.87,821.483 2057.19,822.41 2057.19,823.42 C2057.19,824.431 2056.65,825.522 2055.58,826.694 C2054.51,827.866 2053,829.233 2051.05,830.795 C2049.55,831.702 2048.13,833.131 2046.8,835.084 C2045.46,837.037 2044.8,839.254 2044.8,841.733 C2044.8,844.212 2045.58,846.394 2047.14,848.28 L2055.53,858.139 C2055.73,858.337 2055.86,858.662 2055.92,859.116 C2055.99,859.569 2055.82,859.959 2055.43,860.287 C2055.04,860.616 2054.73,860.78 2054.51,860.78 C2054.28,860.78 2053.7,860.405 2052.75,859.655 C2051.8,858.905 2050.47,858.173 2048.74,857.459 C2047.02,856.746 2045.31,856.389 2043.62,856.389 C2041.93,856.389 2040.59,856.845 2039.62,857.756 C2038.64,858.668 2038.16,860.767 2038.16,864.053 C2038.16,867.34 2039.1,870.123 2040.99,872.405 C2041.18,872.665 2041.22,872.957 2041.09,873.28 C2040.96,873.603 2040.7,873.764 2040.31,873.764 C2039.92,873.764 2038.92,872.561 2037.32,870.155 C2035.72,867.748 2034.19,864.899 2032.73,861.608 C2031.26,858.316 2030.53,855.566 2030.53,853.358 C2030.53,850.556 2031.96,849.155 2034.83,849.155 C2037.69,849.155 2041.57,850.196 2046.45,852.28 L2033.27,836.452 "/>
<path class="Rest" d="M2224.3,361.451 C2223.64,360.608 2223.31,359.696 2223.31,358.717 C2223.31,356.967 2225.4,354.529 2229.58,351.404 C2233.67,348.206 2235.72,344.561 2235.72,340.467 C2235.72,338.05 2234.87,335.837 2233.19,333.826 L2229.67,329.623 C2229.41,329.363 2229.28,329.037 2229.28,328.647 C2229.28,328.256 2229.47,327.899 2229.86,327.576 C2230.32,327.243 2230.74,327.076 2231.13,327.076 C2231.52,327.076 2231.85,327.274 2232.11,327.67 L2247.25,345.639 C2247.9,346.483 2248.22,347.41 2248.22,348.42 C2248.22,349.43 2247.68,350.522 2246.61,351.693 C2245.54,352.865 2244.03,354.233 2242.08,355.795 C2240.58,356.701 2239.16,358.131 2237.83,360.084 C2236.49,362.037 2235.83,364.253 2235.83,366.733 C2235.83,369.212 2236.61,371.394 2238.17,373.279 L2246.56,383.139 C2246.76,383.337 2246.89,383.662 2246.95,384.115 C2247.01,384.568 2246.85,384.959 2246.46,385.287 C2246.07,385.615 2245.76,385.779 2245.54,385.779 C2245.31,385.779 2244.73,385.404 2243.78,384.654 C2242.83,383.904 2241.5,383.173 2239.77,382.459 C2238.05,381.746 2236.34,381.389 2234.65,381.389 C2232.95,381.389 2231.62,381.844 2230.65,382.756 C2229.67,383.667 2229.19,385.766 2229.19,389.053 C2229.19,392.339 2230.13,395.123 2232.01,397.404 C2232.21,397.665 2232.25,397.956 2232.12,398.279 C2231.99,398.602 2231.73,398.764 2231.34,398.764 C2230.94,398.764 2229.95,397.561 2228.35,395.154 C2226.75,392.748 2225.22,389.899 2223.76,386.608 C2222.29,383.316 2221.56,380.566 2221.56,378.358 C2221.56,375.555 2222.99,374.154 2225.86,374.154 C2228.72,374.154 2232.6,375.196 2237.48,377.279 L2224.3,361.451 "/>
<path class="Rest" d="M1206.33,361.451 C1205.68,360.608 1205.35,359.696 1205.35,358.717 C1205.35,356.967 1207.44,354.529 1211.62,351.404 C1215.71,348.206 1217.76,344.561 1217.76,340.467 C1217.76,338.05 1216.91,335.837 1215.23,333.826 L1211.71,329.623 C1211.45,329.363 1211.32,329.037 1211.32,328.647 C1211.32,328.256 1211.51,327.899 1211.9,327.576 C1212.36,327.243 1212.78,327.076 1213.17,327.076 C1213.56,327.076 1213.89,327.274 1214.15,327.67 L1229.29,345.639 C1229.93,346.483 1230.26,347.41 1230.26,348.42 C1230.26,349.43 1229.72,350.522 1228.65,351.693 C1227.57,352.865 1226.06,354.233 1224.12,355.795 C1222.62,356.701 1221.2,358.131 1219.87,360.084 C1218.53,362.037 1217.87,364.253 1217.87,366.733 C1217.87,369.212 1218.65,371.394 1220.21,373.279 L1228.6,383.139 C1228.8,383.337 1228.93,383.662 1228.99,384.115 C1229.05,384.568 1228.89,384.959 1228.5,385.287 C1228.11,385.615 1227.8,385.779 1227.58,385.779 C1227.35,385.779 1226.77,385.404 1225.82,384.654 C1224.87,383.904 1223.54,383.173 1221.81,382.459 C1220.09,381.746 1218.38,381.389 1216.69,381.389 C1214.99,381.389 1213.66,381.844 1212.69,382.756 C1211.71,383.667 1211.23,385.766 1211.23,389.053 C1211.23,392.339 1212.17,395.123 1214.05,397.404 C1214.25,397.665 1214.29,397.956 1214.15,398.279 C1214.02,398.602 1213.76,398.764 1213.37,398.764 C1212.98,398.764 1211.99,397.561 1210.39,395.154 C1208.79,392.748 1207.26,389.899 1205.8,386.608 C1204.33,383.316 1203.6,380.566 1203.6,378.358 C1203.6,375.555 1205.03,374.154 1207.9,374.154 C1210.76,374.154 1214.64,375.196 1219.52,377.279 L1206.33,361.451 "/>
<path class="Rest" d="M2547,1782.36 L2511.46,1782.36 C2510.8,1782.36 2510.47,1782.04 2510.47,1781.39 L2510.47,1767.72 C2510.47,1767.06 2510.8,1766.73 2511.46,1766.73 L2547,1766.73 C2547.65,1766.73 2547.97,1767.06 2547.97,1767.72 L2547.97,1781.39 C2547.97,1782.04 2547.65,1782.36 2547,1782.36"/>
<path class="Rest" d="M2024.06,1311.45 C2023.41,1310.61 2023.08,1309.7 2023.08,1308.72 C2023.08,1306.97 2025.17,1304.53 2029.34,1301.4 C2033.44,1298.21 2035.48,1294.56 2035.48,1290.47 C2035.48,1288.05 2034.64,1285.84 2032.95,1283.83 L2029.44,1279.62 C2029.18,1279.36 2029.05,1279.04 2029.05,1278.65 C2029.05,1278.26 2029.24,1277.9 2029.62,1277.58 C2030.08,1277.24 2030.51,1277.08 2030.9,1277.08 C2031.29,1277.08 2031.61,1277.27 2031.87,1277.67 L2047.01,1295.64 C2047.66,1296.48 2047.98,1297.41 2047.98,1298.42 C2047.98,1299.43 2047.45,1300.52 2046.37,1301.69 C2045.3,1302.87 2043.79,1304.23 2041.84,1305.8 C2040.34,1306.7 2038.93,1308.13 2037.59,1310.08 C2036.26,1312.04 2035.59,1314.25 2035.59,1316.73 C2035.59,1319.21 2036.37,1321.39 2037.94,1323.28 L2046.33,1333.14 C2046.52,1333.34 2046.66,1333.66 2046.72,1334.12 C2046.78,1334.57 2046.62,1334.96 2046.23,1335.29 C2045.83,1335.62 2045.53,1335.78 2045.3,1335.78 C2045.08,1335.78 2044.49,1335.4 2043.55,1334.65 C2042.6,1333.9 2041.26,1333.17 2039.54,1332.46 C2037.81,1331.75 2036.11,1331.39 2034.41,1331.39 C2032.72,1331.39 2031.39,1331.85 2030.41,1332.76 C2029.44,1333.67 2028.95,1335.77 2028.95,1339.05 C2028.95,1342.34 2029.89,1345.12 2031.78,1347.4 C2031.98,1347.67 2032.01,1347.96 2031.88,1348.28 C2031.75,1348.6 2031.49,1348.76 2031.1,1348.76 C2030.71,1348.76 2029.71,1347.56 2028.12,1345.15 C2026.52,1342.75 2024.99,1339.9 2023.52,1336.61 C2022.06,1333.32 2021.33,1330.57 2021.33,1328.36 C2021.33,1325.56 2022.76,1324.15 2025.62,1324.15 C2028.49,1324.15 2032.36,1325.2 2037.25,1327.28 L2024.06,1311.45 "/>
<path class="NoteDot" d="M1652.55,1258.24 C1651.44,1257.13 1650.89,1255.8 1650.89,1254.23 C1650.89,1252.67 1651.44,1251.33 1652.55,1250.23 C1653.66,1249.12 1654.99,1248.56 1656.56,1248.56 C1658.12,1248.56 1659.45,1249.12 1660.56,1250.23 C1661.66,1251.33 1662.21,1252.67 1662.21,1254.23 C1662.21,1255.8 1661.66,1257.13 1660.56,1258.24 C1659.45,1259.35 1658.12,1259.9 1656.56,1259.9 C1654.99,1259.9 1653.66,1259.35 1652.55,1258.24"/>
</svg>
