<?xml version="1.0" encoding="UTF-8" standalone="no"?>
<svg width="2977.2px" height="4208.4px" viewBox="0 0 2977.2 4208.4"
 xmlns="http://www.w3.org/2000/svg" xmlns:xlink="http://www.w3.org/1999/xlink" version="1.2" baseProfile="tiny">
<title>Bb_Minor_Arpeggio.mscx</title>
<desc>Generated by MuseScore Studio 4.3.1</desc>
<path class="" fill="#ffffff" fill-rule="evenodd" d="M0,0 L2977.2,0 L2977.2,4208.4 L0,4208.4 L0,0 "/>
<polyline class="StaffLines" fill="none" stroke="#000000" stroke-width="2.00" stroke-linejoin="bevel" points="141.732,566.733 2835.47,566.733"/>
<polyline class="StaffLines" fill="none" stroke="#000000" stroke-width="2.00" stroke-linejoin="bevel" points="141.732,591.733 2835.47,591.733"/>
<polyline class="StaffLines" fill="none" stroke="#000000" stroke-width="2.00" stroke-linejoin="bevel" points="141.732,616.733 2835.47,616.733"/>
<polyline class="StaffLines" fill="none" stroke="#000000" stroke-width="2.00" stroke-linejoin="bevel" points="141.732,641.733 2835.47,641.733"/>
<polyline class="StaffLines" fill="none" stroke="#000000" stroke-width="2.00" stroke-linejoin="bevel" points="141.732,666.733 2835.47,666.733"/>
<polyline class="BarLine" fill="none" stroke="#000000" stroke-width="4.00" stroke-linejoin="bevel" points="2176.25,565.733 2176.25,667.733"/>
<polyline class="BarLine" fill="none" stroke="#000000" stroke-width="4.00" stroke-linejoin="bevel" points="1560.3,565.733 1560.3,667.733"/>
<polyline class="BarLine" fill="none" stroke="#000000" stroke-width="4.00" stroke-linejoin="bevel" points="2802.72,565.733 2802.72,667.733"/>
<polyline class="BarLine" fill="none" stroke="#000000" stroke-width="12.50" stroke-linejoin="bevel" points="2829.22,565.733 2829.22,667.733"/>
<polyline class="BarLine" fill="none" stroke="#000000" stroke-width="4.00" stroke-linejoin="bevel" points="944.342,565.733 944.342,667.733"/>
<path class="Accidental" d="M2187.14,634.311 L2185.87,572.201 C2185.87,571.222 2186.64,570.733 2188.17,570.733 C2189.7,570.733 2190.47,571.222 2190.47,572.201 L2189.69,606.092 C2191.45,604.332 2192.96,603.11 2194.23,602.428 C2195.49,601.746 2197.22,601.405 2199.4,601.405 C2201.58,601.405 2203.6,602.412 2205.45,604.428 C2207.31,606.444 2208.23,608.951 2208.23,611.951 C2208.23,616.441 2203.51,622.66 2194.08,630.608 C2190.57,633.795 2188.74,635.389 2188.61,635.389 L2188.03,635.389 C2187.44,635.389 2187.14,635.03 2187.14,634.311 M2189.59,609.217 L2189.3,631.389 C2191.32,629.493 2193.37,626.347 2195.45,621.951 C2197.54,617.556 2198.58,613.795 2198.58,610.67 C2198.58,609.108 2198.32,607.675 2197.8,606.373 C2197.28,605.071 2196.46,604.42 2195.35,604.42 C2194.24,604.42 2193.25,604.811 2192.37,605.592 C2191.49,606.373 2190.56,607.582 2189.59,609.217"/>
<path class="Accidental" d="M1853.7,609.311 L1852.43,547.201 C1852.43,546.222 1853.2,545.733 1854.73,545.733 C1856.26,545.733 1857.02,546.222 1857.02,547.201 L1856.24,581.092 C1858,579.332 1859.52,578.11 1860.78,577.428 C1862.05,576.746 1863.77,576.405 1865.95,576.405 C1868.14,576.405 1870.15,577.412 1872.01,579.428 C1873.86,581.444 1874.79,583.951 1874.79,586.951 C1874.79,591.441 1870.07,597.66 1860.63,605.608 C1857.12,608.795 1855.3,610.389 1855.17,610.389 L1854.59,610.389 C1853.99,610.389 1853.7,610.03 1853.7,609.311 M1856.15,584.217 L1855.85,606.389 C1857.87,604.493 1859.93,601.347 1862.01,596.951 C1864.09,592.556 1865.13,588.795 1865.13,585.67 C1865.13,584.108 1864.87,582.675 1864.35,581.373 C1863.83,580.071 1863.02,579.42 1861.91,579.42 C1860.8,579.42 1859.8,579.811 1858.92,580.592 C1858.04,581.373 1857.12,582.582 1856.15,584.217"/>
<path class="Accidental" d="M621.789,609.311 L620.524,547.201 C620.524,546.222 621.289,545.733 622.821,545.733 C624.352,545.733 625.117,546.222 625.117,547.201 L624.336,581.092 C626.097,579.332 627.61,578.11 628.875,577.428 C630.141,576.746 631.865,576.405 634.047,576.405 C636.229,576.405 638.248,577.412 640.102,579.428 C641.956,581.444 642.883,583.951 642.883,586.951 C642.883,591.441 638.164,597.66 628.727,605.608 C625.216,608.795 623.393,610.389 623.258,610.389 L622.68,610.389 C622.086,610.389 621.789,610.03 621.789,609.311 M624.242,584.217 L623.946,606.389 C625.966,604.493 628.018,601.347 630.102,596.951 C632.185,592.556 633.227,588.795 633.227,585.67 C633.227,584.108 632.966,582.675 632.446,581.373 C631.925,580.071 631.11,579.42 630,579.42 C628.891,579.42 627.896,579.811 627.016,580.592 C626.136,581.373 625.211,582.582 624.242,584.217"/>
<path class="Accidental" d="M328.764,634.311 L327.498,572.201 C327.498,571.222 328.264,570.733 329.795,570.733 C331.326,570.733 332.092,571.222 332.092,572.201 L331.311,606.092 C333.071,604.332 334.584,603.11 335.85,602.428 C337.115,601.746 338.839,601.405 341.022,601.405 C343.204,601.405 345.222,602.412 347.076,604.428 C348.93,606.444 349.857,608.951 349.857,611.951 C349.857,616.441 345.139,622.66 335.701,630.608 C332.191,633.795 330.368,635.389 330.232,635.389 L329.654,635.389 C329.061,635.389 328.764,635.03 328.764,634.311 M331.217,609.217 L330.92,631.389 C332.941,629.493 334.993,626.347 337.076,621.951 C339.16,617.556 340.201,613.795 340.201,610.67 C340.201,609.108 339.941,607.675 339.42,606.373 C338.899,605.071 338.084,604.42 336.975,604.42 C335.865,604.42 334.87,604.811 333.99,605.592 C333.11,606.373 332.186,607.582 331.217,609.217"/>
<polyline class="Stem" fill="none" stroke="#000000" stroke-width="3.25" stroke-linejoin="bevel" points="650.039,596.633 650.039,679.233"/>
<polyline class="Stem" fill="none" stroke="#000000" stroke-width="3.25" stroke-linejoin="bevel" points="972.967,571.633 972.967,654.233"/>
<polyline class="Stem" fill="none" stroke="#000000" stroke-width="3.25" stroke-linejoin="bevel" points="2215.39,621.633 2215.39,691.733"/>
<polyline class="Stem" fill="none" stroke="#000000" stroke-width="3.25" stroke-linejoin="bevel" points="357.014,621.633 357.014,691.733"/>
<polyline class="Stem" fill="none" stroke="#000000" stroke-width="3.25" stroke-linejoin="bevel" points="1588.92,571.633 1588.92,654.233"/>
<polyline class="Stem" fill="none" stroke="#000000" stroke-width="3.25" stroke-linejoin="bevel" points="1881.95,596.633 1881.95,679.233"/>
<path class="Note" d="M655.836,602.373 C657.722,602.373 661.677,600.42 667.703,596.514 C673.729,592.608 677.279,589.988 678.352,588.655 C679.425,587.321 679.961,586.134 679.961,585.092 C679.961,584.05 679.537,583.123 678.688,582.311 C677.839,581.498 676.862,581.092 675.758,581.092 C673.81,581.092 669.823,583.061 663.797,586.998 C657.771,590.936 654.237,593.556 653.196,594.858 C652.154,596.16 651.633,597.332 651.633,598.373 C651.633,599.415 652.042,600.342 652.86,601.155 C653.677,601.967 654.67,602.373 655.836,602.373 M674.789,577.967 C680.383,577.967 683.18,580.373 683.18,585.186 C683.18,587.53 682.498,590.248 681.133,593.342 C679.768,596.436 677.946,598.795 675.664,600.42 C670.654,603.806 664.373,605.498 656.821,605.498 C651.216,605.498 648.414,603.092 648.414,598.28 C648.414,596.134 649.081,593.464 650.414,590.272 C651.748,587.079 653.586,584.67 655.93,583.045 C660.951,579.66 667.237,577.967 674.789,577.967"/>
<path class="Note" d="M2221.19,627.373 C2223.07,627.373 2227.03,625.42 2233.05,621.514 C2239.08,617.608 2242.63,614.988 2243.7,613.655 C2244.78,612.321 2245.31,611.134 2245.31,610.092 C2245.31,609.05 2244.89,608.123 2244.04,607.311 C2243.19,606.498 2242.21,606.092 2241.11,606.092 C2239.16,606.092 2235.17,608.061 2229.15,611.998 C2223.12,615.936 2219.59,618.556 2218.55,619.858 C2217.5,621.16 2216.98,622.332 2216.98,623.373 C2216.98,624.415 2217.39,625.342 2218.21,626.155 C2219.03,626.967 2220.02,627.373 2221.19,627.373 M2240.14,602.967 C2245.73,602.967 2248.53,605.373 2248.53,610.186 C2248.53,612.53 2247.85,615.248 2246.48,618.342 C2245.12,621.436 2243.3,623.795 2241.01,625.42 C2236,628.806 2229.72,630.498 2222.17,630.498 C2216.57,630.498 2213.76,628.092 2213.76,623.28 C2213.76,621.134 2214.43,618.464 2215.76,615.272 C2217.1,612.079 2218.94,609.67 2221.28,608.045 C2226.3,604.66 2232.59,602.967 2240.14,602.967"/>
<path class="Note" d="M1887.74,602.373 C1889.63,602.373 1893.58,600.42 1899.61,596.514 C1905.64,592.608 1909.19,589.988 1910.26,588.655 C1911.33,587.321 1911.87,586.134 1911.87,585.092 C1911.87,584.05 1911.44,583.123 1910.59,582.311 C1909.75,581.498 1908.77,581.092 1907.67,581.092 C1905.72,581.092 1901.73,583.061 1895.7,586.998 C1889.68,590.936 1886.14,593.556 1885.1,594.858 C1884.06,596.16 1883.54,597.332 1883.54,598.373 C1883.54,599.415 1883.95,600.342 1884.77,601.155 C1885.58,601.967 1886.58,602.373 1887.74,602.373 M1906.7,577.967 C1912.29,577.967 1915.09,580.373 1915.09,585.186 C1915.09,587.53 1914.4,590.248 1913.04,593.342 C1911.68,596.436 1909.85,598.795 1907.57,600.42 C1902.56,603.806 1896.28,605.498 1888.73,605.498 C1883.12,605.498 1880.32,603.092 1880.32,598.28 C1880.32,596.134 1880.99,593.464 1882.32,590.272 C1883.65,587.079 1885.49,584.67 1887.84,583.045 C1892.86,579.66 1899.14,577.967 1906.7,577.967"/>
<path class="Note" d="M1594.72,577.373 C1596.6,577.373 1600.56,575.42 1606.58,571.514 C1612.61,567.608 1616.16,564.988 1617.23,563.655 C1618.31,562.321 1618.84,561.134 1618.84,560.092 C1618.84,559.05 1618.42,558.123 1617.57,557.311 C1616.72,556.498 1615.74,556.092 1614.64,556.092 C1612.69,556.092 1608.7,558.061 1602.68,561.998 C1596.65,565.936 1593.12,568.556 1592.08,569.858 C1591.04,571.16 1590.51,572.332 1590.51,573.373 C1590.51,574.415 1590.92,575.342 1591.74,576.155 C1592.56,576.967 1593.55,577.373 1594.72,577.373 M1613.67,552.967 C1619.26,552.967 1622.06,555.373 1622.06,560.186 C1622.06,562.53 1621.38,565.248 1620.01,568.342 C1618.65,571.436 1616.83,573.795 1614.55,575.42 C1609.54,578.806 1603.25,580.498 1595.7,580.498 C1590.1,580.498 1587.3,578.092 1587.3,573.28 C1587.3,571.134 1587.96,568.464 1589.3,565.272 C1590.63,562.079 1592.47,559.67 1594.81,558.045 C1599.83,554.66 1606.12,552.967 1613.67,552.967"/>
<path class="Note" d="M362.811,627.373 C364.696,627.373 368.652,625.42 374.678,621.514 C380.704,617.608 384.253,614.988 385.326,613.655 C386.399,612.321 386.936,611.134 386.936,610.092 C386.936,609.05 386.511,608.123 385.662,607.311 C384.813,606.498 383.837,606.092 382.732,606.092 C380.785,606.092 376.798,608.061 370.772,611.998 C364.746,615.936 361.212,618.556 360.17,619.858 C359.128,621.16 358.607,622.332 358.607,623.373 C358.607,624.415 359.016,625.342 359.834,626.155 C360.652,626.967 361.644,627.373 362.811,627.373 M381.764,602.967 C387.357,602.967 390.154,605.373 390.154,610.186 C390.154,612.53 389.472,615.248 388.107,618.342 C386.743,621.436 384.92,623.795 382.639,625.42 C377.628,628.806 371.347,630.498 363.795,630.498 C358.191,630.498 355.389,628.092 355.389,623.28 C355.389,621.134 356.055,618.464 357.389,615.272 C358.722,612.079 360.561,609.67 362.904,608.045 C367.925,604.66 374.212,602.967 381.764,602.967"/>
<path class="Note" d="M978.764,577.373 C980.65,577.373 984.605,575.42 990.631,571.514 C996.657,567.608 1000.21,564.988 1001.28,563.655 C1002.35,562.321 1002.89,561.134 1002.89,560.092 C1002.89,559.05 1002.46,558.123 1001.62,557.311 C1000.77,556.498 999.79,556.092 998.686,556.092 C996.738,556.092 992.751,558.061 986.725,561.998 C980.699,565.936 977.165,568.556 976.123,569.858 C975.082,571.16 974.561,572.332 974.561,573.373 C974.561,574.415 974.97,575.342 975.788,576.155 C976.605,576.967 977.597,577.373 978.764,577.373 M997.717,552.967 C1003.31,552.967 1006.11,555.373 1006.11,560.186 C1006.11,562.53 1005.43,565.248 1004.06,568.342 C1002.7,571.436 1000.87,573.795 998.592,575.42 C993.582,578.806 987.301,580.498 979.748,580.498 C974.144,580.498 971.342,578.092 971.342,573.28 C971.342,571.134 972.009,568.464 973.342,565.272 C974.676,562.079 976.514,559.67 978.858,558.045 C983.879,554.66 990.165,552.967 997.717,552.967"/>
<path class="Clef" d="M203.623,673.858 L203.623,671.717 C203.56,670.613 203.399,668.889 203.139,666.545 C199.889,667.066 196.993,667.326 194.451,667.326 C185.337,667.326 177.605,663.727 171.256,656.53 C164.907,649.332 161.732,640.754 161.732,630.795 C161.732,628.129 162.253,624.923 163.295,621.178 C164.337,617.433 165.297,614.925 166.178,613.655 C167.058,612.384 168.378,610.155 170.139,606.967 C170.659,605.988 172.352,603.837 175.217,600.514 C175.738,599.806 176.193,599.222 176.584,598.764 C176.975,598.306 177.607,597.49 178.482,596.319 C179.357,595.147 180.3,594.056 181.31,593.045 C182.321,592.035 183.217,591.058 183.998,590.115 C184.779,589.173 185.498,588.379 186.154,587.733 C183.81,579.983 182.378,574.024 181.857,569.858 C181.337,565.691 181.076,560.579 181.076,554.522 C181.076,548.464 182.378,542.962 184.982,538.014 C187.514,532.879 191.06,528.681 195.623,525.42 C195.883,525.222 196.225,525.123 196.646,525.123 C197.068,525.123 197.378,525.222 197.576,525.42 C201.087,529.649 204.128,535.149 206.701,541.92 C209.274,548.691 210.56,555.024 210.56,560.92 C210.56,566.816 209.066,572.498 206.076,577.967 C202.691,583.759 198.326,589.748 192.982,595.936 C194.347,600.227 196.17,606.962 198.451,616.139 L199.045,616.139 C199.305,616.076 199.529,616.045 199.717,616.045 C207.081,616.045 213.089,618.634 217.74,623.811 C222.391,628.988 224.717,634.962 224.717,641.733 C224.717,650.129 221.238,656.899 214.279,662.045 C212.258,663.545 209.878,664.717 207.139,665.561 C207.472,669.79 207.639,672.605 207.639,674.006 C207.639,675.407 207.571,677.899 207.435,681.483 C207.373,687.597 205.29,692.837 201.185,697.201 C197.081,701.566 192.394,703.748 187.123,703.748 C181.852,703.748 177.36,701.876 173.646,698.131 C169.933,694.386 168.076,689.847 168.076,684.514 C168.076,681.712 169.154,679.332 171.31,677.373 C173.519,675.425 176.006,674.451 178.771,674.451 C181.537,674.451 183.8,675.462 185.56,677.483 C187.383,679.368 188.295,681.644 188.295,684.311 C188.295,686.977 187.383,689.222 185.56,691.045 C183.738,692.868 181.555,693.78 179.014,693.78 C177.972,693.78 176.967,693.587 175.998,693.201 C178.863,697.431 182.54,699.545 187.029,699.545 C191.519,699.545 195.36,697.691 198.553,693.983 C201.745,690.274 203.342,685.91 203.342,680.889 L203.623,673.858 M206.748,661.561 C210.133,660.321 212.821,658.123 214.81,654.967 C216.8,651.811 217.795,648.67 217.795,645.545 C217.795,640.92 216.199,636.785 213.006,633.139 C209.813,629.493 205.774,627.441 200.889,626.983 C203.691,640.722 205.644,652.248 206.748,661.561 M168.967,638.998 C168.967,645.446 171.537,651.079 176.678,655.897 C181.818,660.714 187.842,663.123 194.748,663.123 C197.477,663.123 200.144,662.925 202.748,662.53 C201.706,652.634 199.654,640.785 196.592,626.983 C192.758,627.379 189.782,628.699 187.662,630.944 C185.542,633.188 184.482,635.743 184.482,638.608 C184.482,643.556 187.123,647.561 192.404,650.623 C192.852,650.884 193.076,651.324 193.076,651.944 C193.076,652.563 192.865,653.1 192.443,653.553 C192.021,654.006 191.649,654.233 191.326,654.233 C191.003,654.233 190.581,654.17 190.06,654.045 C182.435,649.879 178.623,643.592 178.623,635.186 C178.623,631.217 180.024,627.41 182.826,623.764 C185.753,620.118 189.56,617.774 194.248,616.733 C192.425,609.441 190.93,603.743 189.764,599.639 C180.847,609.67 175.31,617.092 173.154,621.905 C170.363,628.155 168.967,633.852 168.967,638.998 M201.576,539.686 C196.691,542.092 192.834,545.574 190.006,550.131 C187.178,554.688 185.764,559.472 185.764,564.483 C185.764,569.493 186.935,575.972 189.279,583.92 C193.967,578.254 197.514,572.946 199.92,567.998 C202.326,563.05 203.529,558.152 203.529,553.303 C203.529,548.454 202.878,543.915 201.576,539.686"/>
<path class="TimeSig" d="M273.021,567.912 C274.516,567.912 275.949,567.686 277.318,567.233 C278.688,566.78 279.665,566.553 280.248,566.553 C280.831,566.553 281.222,566.907 281.42,567.615 C281.42,567.688 281.352,567.886 281.217,568.209 L252.811,601.225 L269.498,601.225 L269.498,588.131 C269.498,586.506 270.446,585.334 272.342,584.615 C274.29,583.897 276.503,581.001 278.982,575.928 C279.17,575.532 279.462,575.334 279.857,575.334 C280.639,575.334 281.092,575.793 281.217,576.709 L281.217,601.225 L288.357,601.225 C289.264,601.225 289.751,601.712 289.818,602.686 C289.886,603.66 289.399,604.147 288.357,604.147 L281.217,604.147 L281.217,604.928 C281.217,607.532 281.868,609.746 283.17,611.569 C284.67,613.391 286.43,614.303 288.451,614.303 C289.232,614.303 289.623,614.694 289.623,615.475 C289.623,616.256 289.087,616.647 288.014,616.647 C286.941,616.647 284.938,616.436 282.006,616.014 C279.074,615.592 276.811,615.381 275.217,615.381 C273.623,615.381 271.41,615.592 268.576,616.014 C265.743,616.436 263.613,616.647 262.186,616.647 C261.404,616.647 261.014,616.256 261.014,615.475 C261.014,614.694 261.404,614.303 262.186,614.303 C264.196,614.303 265.951,613.391 267.451,611.569 C268.816,609.683 269.498,607.47 269.498,604.928 L269.498,604.147 L252.811,604.147 C251.956,604.147 251.219,603.92 250.6,603.467 C249.98,603.014 249.67,602.592 249.67,602.201 C249.67,601.811 250.485,600.639 252.115,598.686 C253.745,596.733 256.074,592.972 259.1,587.405 C262.126,581.837 263.639,575.438 263.639,568.209 C263.639,567.168 264.097,566.647 265.014,566.647 C265.212,566.647 265.521,566.712 265.943,566.842 C266.365,566.972 267.277,567.183 268.678,567.475 C270.079,567.766 271.527,567.912 273.021,567.912"/>
<path class="TimeSig" d="M273.021,618.084 C274.516,618.084 275.949,617.858 277.318,617.405 C278.688,616.951 279.665,616.725 280.248,616.725 C280.831,616.725 281.222,617.079 281.42,617.787 C281.42,617.86 281.352,618.058 281.217,618.381 L252.811,651.397 L269.498,651.397 L269.498,638.303 C269.498,636.678 270.446,635.506 272.342,634.787 C274.29,634.069 276.503,631.173 278.982,626.1 C279.17,625.704 279.462,625.506 279.857,625.506 C280.639,625.506 281.092,625.964 281.217,626.881 L281.217,651.397 L288.357,651.397 C289.264,651.397 289.751,651.884 289.818,652.858 C289.886,653.832 289.399,654.319 288.357,654.319 L281.217,654.319 L281.217,655.1 C281.217,657.704 281.868,659.918 283.17,661.74 C284.67,663.563 286.43,664.475 288.451,664.475 C289.232,664.475 289.623,664.865 289.623,665.647 C289.623,666.428 289.087,666.819 288.014,666.819 C286.941,666.819 284.938,666.608 282.006,666.186 C279.074,665.764 276.811,665.553 275.217,665.553 C273.623,665.553 271.41,665.764 268.576,666.186 C265.743,666.608 263.613,666.819 262.186,666.819 C261.404,666.819 261.014,666.428 261.014,665.647 C261.014,664.865 261.404,664.475 262.186,664.475 C264.196,664.475 265.951,663.563 267.451,661.74 C268.816,659.855 269.498,657.642 269.498,655.1 L269.498,654.319 L252.811,654.319 C251.956,654.319 251.219,654.092 250.6,653.639 C249.98,653.186 249.67,652.764 249.67,652.373 C249.67,651.983 250.485,650.811 252.115,648.858 C253.745,646.905 256.074,643.144 259.1,637.576 C262.126,632.009 263.639,625.61 263.639,618.381 C263.639,617.339 264.097,616.819 265.014,616.819 C265.212,616.819 265.521,616.884 265.943,617.014 C266.365,617.144 267.277,617.355 268.678,617.647 C270.079,617.938 271.527,618.084 273.021,618.084"/>
<path class="Rest" d="M1301.8,616.733 L1266.25,616.733 C1265.6,616.733 1265.27,616.405 1265.27,615.748 L1265.27,602.076 C1265.27,601.431 1265.6,601.108 1266.25,601.108 L1301.8,601.108 C1302.45,601.108 1302.77,601.431 1302.77,602.076 L1302.77,615.748 C1302.77,616.405 1302.45,616.733 1301.8,616.733"/>
<path class="Rest" d="M2544.22,616.733 L2508.68,616.733 C2508.02,616.733 2507.69,616.405 2507.69,615.748 L2507.69,602.076 C2507.69,601.431 2508.02,601.108 2508.68,601.108 L2544.22,601.108 C2544.87,601.108 2545.19,601.431 2545.19,602.076 L2545.19,615.748 C2545.19,616.405 2544.87,616.733 2544.22,616.733"/>
</svg>
