<?xml version="1.0" encoding="UTF-8" standalone="no"?>
<svg width="2977.2px" height="4208.4px" viewBox="0 0 2977.2 4208.4"
 xmlns="http://www.w3.org/2000/svg" xmlns:xlink="http://www.w3.org/1999/xlink" version="1.2" baseProfile="tiny">
<title>God_Save_The_Queen.mscx</title>
<desc>Generated by MuseScore Studio 4.3.1</desc>
<path class="" fill="#ffffff" fill-rule="evenodd" d="M0,0 L2977.2,0 L2977.2,4208.4 L0,4208.4 L0,0 "/>
<polyline class="StaffLines" fill="none" stroke="#000000" stroke-width="2.00" stroke-linejoin="bevel" points="141.732,316.732 2835.47,316.732"/>
<polyline class="StaffLines" fill="none" stroke="#000000" stroke-width="2.00" stroke-linejoin="bevel" points="141.732,341.732 2835.47,341.732"/>
<polyline class="StaffLines" fill="none" stroke="#000000" stroke-width="2.00" stroke-linejoin="bevel" points="141.732,366.733 2835.47,366.733"/>
<polyline class="StaffLines" fill="none" stroke="#000000" stroke-width="2.00" stroke-linejoin="bevel" points="141.732,391.733 2835.47,391.733"/>
<polyline class="StaffLines" fill="none" stroke="#000000" stroke-width="2.00" stroke-linejoin="bevel" points="141.732,416.733 2835.47,416.733"/>
<polyline class="StaffLines" fill="none" stroke="#000000" stroke-width="2.00" stroke-linejoin="bevel" points="141.732,791.733 2835.47,791.733"/>
<polyline class="StaffLines" fill="none" stroke="#000000" stroke-width="2.00" stroke-linejoin="bevel" points="141.732,816.733 2835.47,816.733"/>
<polyline class="StaffLines" fill="none" stroke="#000000" stroke-width="2.00" stroke-linejoin="bevel" points="141.732,841.733 2835.47,841.733"/>
<polyline class="StaffLines" fill="none" stroke="#000000" stroke-width="2.00" stroke-linejoin="bevel" points="141.732,866.733 2835.47,866.733"/>
<polyline class="StaffLines" fill="none" stroke="#000000" stroke-width="2.00" stroke-linejoin="bevel" points="141.732,891.733 2835.47,891.733"/>
<polyline class="StaffLines" fill="none" stroke="#000000" stroke-width="2.00" stroke-linejoin="bevel" points="141.732,1266.73 2835.47,1266.73"/>
<polyline class="StaffLines" fill="none" stroke="#000000" stroke-width="2.00" stroke-linejoin="bevel" points="141.732,1291.73 2835.47,1291.73"/>
<polyline class="StaffLines" fill="none" stroke="#000000" stroke-width="2.00" stroke-linejoin="bevel" points="141.732,1316.73 2835.47,1316.73"/>
<polyline class="StaffLines" fill="none" stroke="#000000" stroke-width="2.00" stroke-linejoin="bevel" points="141.732,1341.73 2835.47,1341.73"/>
<polyline class="StaffLines" fill="none" stroke="#000000" stroke-width="2.00" stroke-linejoin="bevel" points="141.732,1366.73 2835.47,1366.73"/>
<polyline class="StaffLines" fill="none" stroke="#000000" stroke-width="2.00" stroke-linejoin="bevel" points="141.732,1741.73 471.749,1741.73"/>
<polyline class="StaffLines" fill="none" stroke="#000000" stroke-width="2.00" stroke-linejoin="bevel" points="141.732,1766.73 471.749,1766.73"/>
<polyline class="StaffLines" fill="none" stroke="#000000" stroke-width="2.00" stroke-linejoin="bevel" points="141.732,1791.73 471.749,1791.73"/>
<polyline class="StaffLines" fill="none" stroke="#000000" stroke-width="2.00" stroke-linejoin="bevel" points="141.732,1816.73 471.749,1816.73"/>
<polyline class="StaffLines" fill="none" stroke="#000000" stroke-width="2.00" stroke-linejoin="bevel" points="141.732,1841.73 471.749,1841.73"/>
<path class="MeasureNumber" d="M127.545,1668.01 C127.066,1668.01 126.107,1668.31 124.67,1668.89 L124.67,1668.34 L131.873,1664.7 L132.185,1664.78 L132.185,1688.78 C132.185,1689.74 132.425,1690.36 132.904,1690.66 C133.383,1690.95 134.409,1691.11 135.982,1691.14 L135.982,1691.73 L124.951,1691.73 L124.951,1691.14 C126.441,1691.08 127.446,1690.85 127.967,1690.47 C128.488,1690.08 128.748,1689.26 128.748,1688.01 L128.748,1669.89 C128.748,1668.64 128.347,1668.01 127.545,1668.01 M159.092,1682.66 L159.092,1685.06 L155.014,1685.06 L155.014,1691.73 L151.935,1691.73 L151.935,1685.06 L140.701,1685.06 L140.701,1682.66 L153.248,1664.7 L155.014,1664.7 L155.014,1682.66 L159.092,1682.66 M151.889,1682.66 L151.889,1668.94 L142.295,1682.66 L151.889,1682.66 "/>
<path class="MeasureNumber" d="M146.514,733.873 C146.514,732.446 146.199,731.181 145.568,730.076 C144.938,728.972 144.178,728.118 143.287,727.514 C142.396,726.91 141.399,726.412 140.295,726.022 C139.191,725.631 138.23,725.376 137.412,725.256 C136.594,725.136 135.883,725.076 135.279,725.076 C134.956,725.076 134.795,724.967 134.795,724.748 C134.795,724.675 134.805,724.613 134.826,724.561 L139.185,715.264 L147.545,715.264 C147.972,715.264 148.313,715.196 148.568,715.061 C148.824,714.925 149.097,714.644 149.389,714.217 L149.748,714.498 L148.232,717.842 C148.128,718.061 147.821,718.17 147.31,718.17 L139.467,718.17 L137.795,721.608 C141.68,722.306 144.571,723.441 146.467,725.014 C148.363,726.587 149.31,728.894 149.31,731.936 C149.31,733.53 149.063,734.946 148.568,736.186 C148.074,737.425 147.446,738.423 146.685,739.178 C145.925,739.933 145.045,740.553 144.045,741.037 C143.045,741.522 142.087,741.853 141.17,742.03 C140.253,742.207 139.326,742.295 138.389,742.295 C136.899,742.295 135.714,742.074 134.834,741.631 C133.954,741.188 133.514,740.582 133.514,739.811 C133.514,738.821 134.087,738.326 135.232,738.326 C135.982,738.326 136.949,738.735 138.131,739.553 C139.313,740.371 140.253,740.78 140.951,740.78 C142.524,740.78 143.844,740.113 144.912,738.78 C145.98,737.446 146.514,735.811 146.514,733.873"/>
<path class="MeasureNumber" d="M127.045,1193.01 C126.566,1193.01 125.607,1193.31 124.17,1193.89 L124.17,1193.34 L131.373,1189.7 L131.685,1189.78 L131.685,1213.78 C131.685,1214.74 131.925,1215.36 132.404,1215.65 C132.883,1215.95 133.909,1216.11 135.482,1216.14 L135.482,1216.73 L124.451,1216.73 L124.451,1216.14 C125.941,1216.08 126.946,1215.85 127.467,1215.47 C127.988,1215.08 128.248,1214.26 128.248,1213.01 L128.248,1194.89 C128.248,1193.64 127.847,1193.01 127.045,1193.01 M156.271,1213.45 C154.62,1216.01 152.435,1217.3 149.717,1217.3 C146.998,1217.3 144.81,1215.99 143.154,1213.37 C141.498,1210.76 140.67,1207.4 140.67,1203.3 C140.67,1199.43 141.498,1196.2 143.154,1193.6 C144.81,1191 147.05,1189.7 149.873,1189.7 C152.488,1189.7 154.62,1190.98 156.271,1193.54 C157.922,1196.1 158.748,1199.43 158.748,1203.53 C158.748,1207.58 157.922,1210.89 156.271,1213.45 M149.748,1190.73 C146.258,1190.73 144.514,1195.04 144.514,1203.65 C144.514,1212.05 146.248,1216.25 149.717,1216.25 C153.185,1216.25 154.92,1212.04 154.92,1203.61 C154.92,1199.43 154.48,1196.24 153.6,1194.04 C152.719,1191.83 151.435,1190.73 149.748,1190.73"/>
<polyline class="BarLine" fill="none" stroke="#000000" stroke-width="4.00" stroke-linejoin="bevel" points="2180.83,1265.73 2180.83,1367.73"/>
<polyline class="BarLine" fill="none" stroke="#000000" stroke-width="4.00" stroke-linejoin="bevel" points="2222.23,315.732 2222.23,417.733"/>
<polyline class="BarLine" fill="none" stroke="#000000" stroke-width="4.00" stroke-linejoin="bevel" points="2833.47,315.732 2833.47,417.733"/>
<polyline class="BarLine" fill="none" stroke="#000000" stroke-width="4.00" stroke-linejoin="bevel" points="2833.47,1265.73 2833.47,1367.73"/>
<polyline class="BarLine" fill="none" stroke="#000000" stroke-width="4.00" stroke-linejoin="bevel" points="1597.97,315.732 1597.97,417.733"/>
<polyline class="BarLine" fill="none" stroke="#000000" stroke-width="4.00" stroke-linejoin="bevel" points="833.204,790.733 833.204,892.733"/>
<polyline class="BarLine" fill="none" stroke="#000000" stroke-width="4.00" stroke-linejoin="bevel" points="1274.18,790.733 1274.18,892.733"/>
<polyline class="BarLine" fill="none" stroke="#000000" stroke-width="4.00" stroke-linejoin="bevel" points="1797.55,790.733 1797.55,892.733"/>
<polyline class="BarLine" fill="none" stroke="#000000" stroke-width="4.00" stroke-linejoin="bevel" points="2310.1,790.733 2310.1,892.733"/>
<polyline class="BarLine" fill="none" stroke="#000000" stroke-width="4.00" stroke-linejoin="bevel" points="2833.47,790.733 2833.47,892.733"/>
<polyline class="BarLine" fill="none" stroke="#000000" stroke-width="4.00" stroke-linejoin="bevel" points="986.737,315.732 986.737,417.733"/>
<polyline class="BarLine" fill="none" stroke="#000000" stroke-width="4.00" stroke-linejoin="bevel" points="438.999,1740.73 438.999,1842.73"/>
<polyline class="BarLine" fill="none" stroke="#000000" stroke-width="12.50" stroke-linejoin="bevel" points="465.499,1740.73 465.499,1842.73"/>
<polyline class="BarLine" fill="none" stroke="#000000" stroke-width="4.00" stroke-linejoin="bevel" points="887.827,1265.73 887.827,1367.73"/>
<polyline class="BarLine" fill="none" stroke="#000000" stroke-width="4.00" stroke-linejoin="bevel" points="1602.83,1265.73 1602.83,1367.73"/>
<polyline class="Stem" fill="none" stroke="#000000" stroke-width="3.25" stroke-linejoin="bevel" points="1045.03,398.363 1045.03,316.732"/>
<polyline class="Stem" fill="none" stroke="#000000" stroke-width="3.25" stroke-linejoin="bevel" points="1296.56,385.863 1296.56,303.532"/>
<polyline class="Stem" fill="none" stroke="#000000" stroke-width="3.25" stroke-linejoin="bevel" points="1302.8,822.602 1302.8,904.233"/>
<polyline class="Stem" fill="none" stroke="#000000" stroke-width="3.25" stroke-linejoin="bevel" points="1467.59,822.602 1467.59,904.233"/>
<polyline class="Stem" fill="none" stroke="#000000" stroke-width="3.25" stroke-linejoin="bevel" points="1632.38,822.602 1632.38,904.233"/>
<polyline class="Stem" fill="none" stroke="#000000" stroke-width="3.25" stroke-linejoin="bevel" points="369.025,1811.93 369.025,1729.23"/>
<polyline class="Stem" fill="none" stroke="#000000" stroke-width="3.25" stroke-linejoin="bevel" points="1826.17,822.602 1826.17,904.233"/>
<polyline class="Stem" fill="none" stroke="#000000" stroke-width="3.25" stroke-linejoin="bevel" points="1228.27,1322.6 1228.27,1385.4"/>
<polyline class="Stem" fill="none" stroke="#000000" stroke-width="3.25" stroke-linejoin="bevel" points="2675.66,1323.36 2675.66,1247.98"/>
<polyline class="Stem" fill="none" stroke="#000000" stroke-width="3.25" stroke-linejoin="bevel" points="2035.07,835.102 2035.07,911.083"/>
<polyline class="Stem" fill="none" stroke="#000000" stroke-width="3.25" stroke-linejoin="bevel" points="2144.93,847.602 2144.93,916.733"/>
<polyline class="Stem" fill="none" stroke="#000000" stroke-width="3.25" stroke-linejoin="bevel" points="1103.54,1310.1 1103.54,1379.31"/>
<polyline class="Stem" fill="none" stroke="#000000" stroke-width="3.25" stroke-linejoin="bevel" points="1382.67,1323.36 1382.67,1260.56"/>
<polyline class="Stem" fill="none" stroke="#000000" stroke-width="3.25" stroke-linejoin="bevel" points="2338.72,835.102 2338.72,910.483"/>
<polyline class="Stem" fill="none" stroke="#000000" stroke-width="3.25" stroke-linejoin="bevel" points="916.452,1322.6 916.452,1391.73"/>
<polyline class="Stem" fill="none" stroke="#000000" stroke-width="3.25" stroke-linejoin="bevel" points="2503.51,835.102 2503.51,910.483"/>
<polyline class="Stem" fill="none" stroke="#000000" stroke-width="3.25" stroke-linejoin="bevel" points="619.185,385.863 619.185,304.232"/>
<polyline class="Stem" fill="none" stroke="#000000" stroke-width="3.25" stroke-linejoin="bevel" points="2668.3,835.102 2668.3,910.483"/>
<polyline class="Stem" fill="none" stroke="#000000" stroke-width="3.25" stroke-linejoin="bevel" points="817.606,373.363 817.606,297.982"/>
<polyline class="Stem" fill="none" stroke="#000000" stroke-width="3.25" stroke-linejoin="bevel" points="2458.91,1322.6 2458.91,1391.73"/>
<polyline class="Stem" fill="none" stroke="#000000" stroke-width="3.25" stroke-linejoin="bevel" points="730.024,1323.36 730.024,1247.98"/>
<polyline class="Stem" fill="none" stroke="#000000" stroke-width="3.25" stroke-linejoin="bevel" points="338.459,1310.1 338.459,1385.48"/>
<polyline class="Stem" fill="none" stroke="#000000" stroke-width="3.25" stroke-linejoin="bevel" points="2334.18,1310.1 2334.18,1372.82"/>
<polyline class="Stem" fill="none" stroke="#000000" stroke-width="3.25" stroke-linejoin="bevel" points="575.631,1322.6 575.631,1398.58"/>
<polyline class="Stem" fill="none" stroke="#000000" stroke-width="3.25" stroke-linejoin="bevel" points="1507.39,1335.86 1507.39,1266.65"/>
<polyline class="Stem" fill="none" stroke="#000000" stroke-width="3.25" stroke-linejoin="bevel" points="2250.86,372.602 2250.86,441.733"/>
<polyline class="Stem" fill="none" stroke="#000000" stroke-width="3.25" stroke-linejoin="bevel" points="1993.36,1297.6 1993.36,1379.23"/>
<polyline class="Stem" fill="none" stroke="#000000" stroke-width="3.25" stroke-linejoin="bevel" points="2023.44,360.102 2023.44,435.483"/>
<polyline class="Stem" fill="none" stroke="#000000" stroke-width="3.25" stroke-linejoin="bevel" points="2532.06,373.363 2532.06,297.282"/>
<polyline class="Stem" fill="none" stroke="#000000" stroke-width="3.25" stroke-linejoin="bevel" points="2664.34,385.863 2664.34,304.232"/>
<polyline class="Stem" fill="none" stroke="#000000" stroke-width="3.25" stroke-linejoin="bevel" points="1868.63,1310.1 1868.63,1386.08"/>
<polyline class="Stem" fill="none" stroke="#000000" stroke-width="3.25" stroke-linejoin="bevel" points="1825.02,372.602 1825.02,441.733"/>
<polyline class="Stem" fill="none" stroke="#000000" stroke-width="3.25" stroke-linejoin="bevel" points="1626.6,372.602 1626.6,441.733"/>
<polyline class="Stem" fill="none" stroke="#000000" stroke-width="3.25" stroke-linejoin="bevel" points="368.123,848.364 368.123,772.983"/>
<polyline class="Stem" fill="none" stroke="#000000" stroke-width="3.25" stroke-linejoin="bevel" points="532.913,860.864 532.913,779.233"/>
<polyline class="Stem" fill="none" stroke="#000000" stroke-width="3.25" stroke-linejoin="bevel" points="1631.46,1322.6 1631.46,1391.73"/>
<polyline class="Stem" fill="none" stroke="#000000" stroke-width="3.25" stroke-linejoin="bevel" points="697.703,873.364 697.703,791.733"/>
<polyline class="Stem" fill="none" stroke="#000000" stroke-width="3.25" stroke-linejoin="bevel" points="420.764,385.863 420.764,304.232"/>
<polyline class="Stem" fill="none" stroke="#000000" stroke-width="3.25" stroke-linejoin="bevel" points="2209.45,1285.1 2209.45,1360.64"/>
<polyline class="Stem" fill="none" stroke="#000000" stroke-width="3.25" stroke-linejoin="bevel" points="891.493,860.864 891.493,779.233"/>
<polyline class="Stem" fill="none" stroke="#000000" stroke-width="3.25" stroke-linejoin="bevel" points="1428.84,373.363 1428.84,297.982"/>
<path class="Hook" d="M2056.2,838.123 C2057.7,838.123 2059.28,840.548 2060.94,845.397 C2062.6,850.246 2063.43,854.689 2063.43,858.725 C2063.43,862.761 2062.51,866.668 2060.65,870.444 C2058.8,874.22 2056.57,877.54 2053.96,880.405 L2045.95,889.389 C2043.48,892.254 2041.3,895.54 2039.41,899.248 C2037.52,902.957 2036.57,906.702 2036.57,910.483 L2033.45,910.483 L2033.45,885.483 L2036.57,885.483 C2047.51,878.577 2054.38,872.457 2057.18,867.123 C2058.55,864.519 2059.23,861.884 2059.23,859.217 C2059.23,853.03 2057.44,846.873 2053.85,840.748 L2053.85,840.358 C2053.85,839.775 2054.08,839.256 2054.54,838.803 C2055,838.35 2055.55,838.123 2056.2,838.123"/>
<path class="Hook" d="M596.756,1325.62 C598.256,1325.62 599.837,1328.05 601.498,1332.9 C603.16,1337.75 603.99,1342.19 603.99,1346.23 C603.99,1350.26 603.063,1354.17 601.209,1357.94 C599.355,1361.72 597.126,1365.04 594.522,1367.91 L586.506,1376.89 C584.037,1379.75 581.858,1383.04 579.967,1386.75 C578.076,1390.46 577.131,1394.2 577.131,1397.98 L574.006,1397.98 L574.006,1372.98 L577.131,1372.98 C588.069,1366.08 594.938,1359.96 597.74,1354.62 C599.105,1352.02 599.787,1349.38 599.787,1346.72 C599.787,1340.53 597.996,1334.37 594.412,1328.25 L594.412,1327.86 C594.412,1327.27 594.641,1326.76 595.1,1326.3 C595.558,1325.85 596.11,1325.62 596.756,1325.62"/>
<path class="Hook" d="M2530.43,322.982 L2530.43,297.982 L2533.56,297.982 C2533.56,301.691 2534.31,305.482 2535.81,309.357 C2537.31,313.232 2538.87,316.456 2540.49,319.029 C2542.12,321.602 2544.13,324.842 2546.54,328.748 C2551.82,337.279 2554.46,344.865 2554.46,351.506 C2554.46,358.147 2553.06,364.982 2550.26,372.014 C2549.74,372.795 2549.14,373.186 2548.45,373.186 C2547.77,373.186 2547.2,372.956 2546.74,372.498 C2546.29,372.04 2546.06,371.519 2546.06,370.936 L2546.06,370.451 C2548.86,364.003 2550.26,357.623 2550.26,351.311 C2550.26,348.05 2549.27,344.501 2547.28,340.662 C2545.3,336.824 2543.25,333.683 2541.13,331.24 C2539.01,328.798 2536.48,326.045 2533.56,322.982 L2530.43,322.982 "/>
<path class="Hook" d="M1889.76,1313.12 C1891.26,1313.12 1892.84,1315.55 1894.5,1320.4 C1896.16,1325.25 1896.99,1329.69 1896.99,1333.73 C1896.99,1337.76 1896.06,1341.67 1894.21,1345.44 C1892.35,1349.22 1890.13,1352.54 1887.52,1355.41 L1879.51,1364.39 C1877.04,1367.25 1874.86,1370.54 1872.97,1374.25 C1871.08,1377.96 1870.13,1381.7 1870.13,1385.48 L1867.01,1385.48 L1867.01,1360.48 L1870.13,1360.48 C1881.07,1353.58 1887.94,1347.46 1890.74,1342.12 C1892.1,1339.52 1892.79,1336.88 1892.79,1334.22 C1892.79,1328.03 1890.99,1321.87 1887.41,1315.75 L1887.41,1315.36 C1887.41,1314.77 1887.64,1314.26 1888.1,1313.8 C1888.56,1313.35 1889.11,1313.12 1889.76,1313.12"/>
<path class="Hook" d="M1294.93,329.232 L1294.93,304.232 L1298.06,304.232 C1298.06,307.941 1298.81,311.732 1300.31,315.607 C1301.81,319.482 1303.37,322.706 1305,325.279 C1306.62,327.852 1308.64,331.092 1311.04,334.998 C1316.32,343.529 1318.97,351.115 1318.97,357.756 C1318.97,364.397 1317.56,371.232 1314.76,378.264 C1314.24,379.045 1313.64,379.436 1312.96,379.436 C1312.28,379.436 1311.7,379.206 1311.25,378.748 C1310.79,378.29 1310.56,377.769 1310.56,377.186 L1310.56,376.701 C1313.36,370.253 1314.76,363.873 1314.76,357.561 C1314.76,354.3 1313.77,350.751 1311.79,346.912 C1309.8,343.074 1307.75,339.933 1305.63,337.49 C1303.51,335.048 1300.99,332.295 1298.06,329.232 L1294.93,329.232 "/>
<path class="Note" d="M343.354,1827.37 C345.239,1827.37 349.195,1825.42 355.221,1821.51 C361.247,1817.61 364.796,1814.99 365.869,1813.66 C366.942,1812.32 367.479,1811.13 367.479,1810.09 C367.479,1809.05 367.054,1808.12 366.205,1807.31 C365.356,1806.5 364.38,1806.09 363.275,1806.09 C361.328,1806.09 357.341,1808.06 351.315,1812 C345.288,1815.94 341.755,1818.56 340.713,1819.86 C339.671,1821.16 339.15,1822.33 339.15,1823.37 C339.15,1824.42 339.559,1825.34 340.377,1826.16 C341.195,1826.97 342.187,1827.37 343.354,1827.37 M362.307,1802.97 C367.9,1802.97 370.697,1805.37 370.697,1810.19 C370.697,1812.53 370.015,1815.25 368.65,1818.34 C367.286,1821.44 365.463,1823.8 363.182,1825.42 C358.171,1828.81 351.89,1830.5 344.338,1830.5 C338.734,1830.5 335.932,1828.09 335.932,1823.28 C335.932,1821.13 336.598,1818.47 337.932,1815.27 C339.265,1812.08 341.104,1809.67 343.447,1808.05 C348.468,1804.66 354.755,1802.97 362.307,1802.97"/>
<path class="Note" d="M1248.62,1302.97 C1251.74,1302.97 1254.35,1303.75 1256.43,1305.31 C1258.51,1306.87 1259.55,1309.12 1259.55,1312.05 C1259.55,1316.54 1257.23,1320.73 1252.58,1324.64 C1247.93,1328.55 1242.93,1330.5 1237.59,1330.5 C1234.46,1330.5 1231.83,1329.69 1229.68,1328.06 C1227.66,1326.3 1226.65,1324.09 1226.65,1321.42 C1226.65,1317.06 1228.96,1312.89 1233.59,1308.92 C1238.21,1304.95 1243.22,1302.97 1248.62,1302.97"/>
<path class="Note" d="M936.796,1302.97 C939.921,1302.97 942.525,1303.75 944.608,1305.31 C946.692,1306.87 947.733,1309.12 947.733,1312.05 C947.733,1316.54 945.408,1320.73 940.757,1324.64 C936.106,1328.55 931.108,1330.5 925.765,1330.5 C922.64,1330.5 920.004,1329.69 917.858,1328.06 C915.837,1326.3 914.827,1324.09 914.827,1321.42 C914.827,1317.06 917.14,1312.89 921.765,1308.92 C926.39,1304.95 931.4,1302.97 936.796,1302.97"/>
<path class="Note" d="M2043.78,340.467 C2046.91,340.467 2049.51,341.248 2051.59,342.811 C2053.68,344.373 2054.72,346.618 2054.72,349.545 C2054.72,354.035 2052.39,358.232 2047.74,362.139 C2043.09,366.045 2038.09,367.998 2032.75,367.998 C2029.63,367.998 2026.99,367.186 2024.84,365.561 C2022.82,363.8 2021.81,361.587 2021.81,358.92 C2021.81,354.555 2024.13,350.389 2028.75,346.42 C2033.38,342.451 2038.39,340.467 2043.78,340.467"/>
<path class="Note" d="M609.864,377.967 C612.989,377.967 615.594,378.748 617.677,380.311 C619.76,381.873 620.802,384.118 620.802,387.045 C620.802,391.535 618.476,395.733 613.825,399.639 C609.174,403.545 604.177,405.498 598.833,405.498 C595.708,405.498 593.073,404.686 590.927,403.061 C588.906,401.3 587.896,399.087 587.896,396.42 C587.896,392.055 590.208,387.889 594.833,383.92 C599.458,379.951 604.469,377.967 609.864,377.967"/>
<path class="Note" d="M1888.97,1290.47 C1892.1,1290.47 1894.7,1291.25 1896.79,1292.81 C1898.87,1294.37 1899.91,1296.62 1899.91,1299.55 C1899.91,1304.04 1897.59,1308.23 1892.93,1312.14 C1888.28,1316.05 1883.29,1318 1877.94,1318 C1874.82,1318 1872.18,1317.19 1870.04,1315.56 C1868.02,1313.8 1867.01,1311.59 1867.01,1308.92 C1867.01,1304.56 1869.32,1300.39 1873.94,1296.42 C1878.57,1292.45 1883.58,1290.47 1888.97,1290.47"/>
<path class="Note" d="M720.703,1315.47 C723.828,1315.47 726.432,1316.25 728.516,1317.81 C730.599,1319.37 731.641,1321.62 731.641,1324.55 C731.641,1329.04 729.315,1333.23 724.664,1337.14 C720.013,1341.05 715.016,1343 709.672,1343 C706.547,1343 703.912,1342.19 701.766,1340.56 C699.745,1338.8 698.734,1336.59 698.734,1333.92 C698.734,1329.56 701.047,1325.39 705.672,1321.42 C710.297,1317.45 715.307,1315.47 720.703,1315.47"/>
<path class="Note" d="M411.443,377.967 C414.568,377.967 417.173,378.748 419.256,380.311 C421.339,381.873 422.381,384.118 422.381,387.045 C422.381,391.535 420.055,395.733 415.404,399.639 C410.753,403.545 405.756,405.498 400.412,405.498 C397.287,405.498 394.652,404.686 392.506,403.061 C390.485,401.3 389.475,399.087 389.475,396.42 C389.475,392.055 391.787,387.889 396.412,383.92 C401.037,379.951 406.048,377.967 411.443,377.967"/>
<path class="Note" d="M1123.89,1290.47 C1127.01,1290.47 1129.62,1291.25 1131.7,1292.81 C1133.78,1294.37 1134.83,1296.62 1134.83,1299.55 C1134.83,1304.04 1132.5,1308.23 1127.85,1312.14 C1123.2,1316.05 1118.2,1318 1112.86,1318 C1109.73,1318 1107.1,1317.19 1104.95,1315.56 C1102.93,1313.8 1101.92,1311.59 1101.92,1308.92 C1101.92,1304.56 1104.23,1300.39 1108.86,1296.42 C1113.48,1292.45 1118.49,1290.47 1123.89,1290.47"/>
<path class="Note" d="M1373.35,1315.47 C1376.47,1315.47 1379.07,1316.25 1381.16,1317.81 C1383.24,1319.37 1384.28,1321.62 1384.28,1324.55 C1384.28,1329.04 1381.96,1333.23 1377.31,1337.14 C1372.66,1341.05 1367.66,1343 1362.31,1343 C1359.19,1343 1356.55,1342.19 1354.41,1340.56 C1352.39,1338.8 1351.38,1336.59 1351.38,1333.92 C1351.38,1329.56 1353.69,1325.39 1358.31,1321.42 C1362.94,1317.45 1367.95,1315.47 1373.35,1315.47"/>
<path class="Note" d="M1498.07,1327.97 C1501.2,1327.97 1503.8,1328.75 1505.89,1330.31 C1507.97,1331.87 1509.01,1334.12 1509.01,1337.05 C1509.01,1341.54 1506.69,1345.73 1502.03,1349.64 C1497.38,1353.55 1492.39,1355.5 1487.04,1355.5 C1483.92,1355.5 1481.28,1354.69 1479.14,1353.06 C1477.12,1351.3 1476.1,1349.09 1476.1,1346.42 C1476.1,1342.06 1478.42,1337.89 1483.04,1333.92 C1487.67,1329.95 1492.68,1327.97 1498.07,1327.97"/>
<path class="Note" d="M595.975,1302.97 C599.1,1302.97 601.704,1303.75 603.787,1305.31 C605.871,1306.87 606.912,1309.12 606.912,1312.05 C606.912,1316.54 604.587,1320.73 599.936,1324.64 C595.285,1328.55 590.287,1330.5 584.944,1330.5 C581.819,1330.5 579.183,1329.69 577.037,1328.06 C575.016,1326.3 574.006,1324.09 574.006,1321.42 C574.006,1317.06 576.319,1312.89 580.944,1308.92 C585.569,1304.95 590.579,1302.97 595.975,1302.97"/>
<path class="Note" d="M1651.8,1302.97 C1654.93,1302.97 1657.53,1303.75 1659.61,1305.31 C1661.7,1306.87 1662.74,1309.12 1662.74,1312.05 C1662.74,1316.54 1660.41,1320.73 1655.76,1324.64 C1651.11,1328.55 1646.11,1330.5 1640.77,1330.5 C1637.65,1330.5 1635.01,1329.69 1632.86,1328.06 C1630.84,1326.3 1629.83,1324.09 1629.83,1321.42 C1629.83,1317.06 1632.15,1312.89 1636.77,1308.92 C1641.4,1304.95 1646.41,1302.97 1651.8,1302.97"/>
<path class="Note" d="M2229.8,1265.47 C2232.92,1265.47 2235.52,1266.25 2237.61,1267.81 C2239.69,1269.37 2240.73,1271.62 2240.73,1274.55 C2240.73,1279.04 2238.41,1283.23 2233.76,1287.14 C2229.1,1291.05 2224.11,1293 2218.76,1293 C2215.64,1293 2213,1292.19 2210.86,1290.56 C2208.84,1288.8 2207.83,1286.59 2207.83,1283.92 C2207.83,1279.56 2210.14,1275.39 2214.76,1271.42 C2219.39,1267.45 2224.4,1265.47 2229.8,1265.47"/>
<path class="Note" d="M2013.7,1277.97 C2016.83,1277.97 2019.43,1278.75 2021.51,1280.31 C2023.6,1281.87 2024.64,1284.12 2024.64,1287.05 C2024.64,1291.54 2022.31,1295.73 2017.66,1299.64 C2013.01,1303.55 2008.01,1305.5 2002.67,1305.5 C1999.55,1305.5 1996.91,1304.69 1994.76,1303.06 C1992.74,1301.3 1991.73,1299.09 1991.73,1296.42 C1991.73,1292.06 1994.05,1287.89 1998.67,1283.92 C2003.3,1279.95 2008.31,1277.97 2013.7,1277.97"/>
<path class="Note" d="M2354.52,1290.47 C2357.65,1290.47 2360.25,1291.25 2362.34,1292.81 C2364.42,1294.37 2365.46,1296.62 2365.46,1299.55 C2365.46,1304.04 2363.14,1308.23 2358.48,1312.14 C2353.83,1316.05 2348.84,1318 2343.49,1318 C2340.37,1318 2337.73,1317.19 2335.59,1315.56 C2333.57,1313.8 2332.55,1311.59 2332.55,1308.92 C2332.55,1304.56 2334.87,1300.39 2339.49,1296.42 C2344.12,1292.45 2349.13,1290.47 2354.52,1290.47"/>
<path class="Note" d="M2271.2,352.967 C2274.33,352.967 2276.93,353.748 2279.02,355.311 C2281.1,356.873 2282.14,359.118 2282.14,362.045 C2282.14,366.535 2279.82,370.733 2275.16,374.639 C2270.51,378.545 2265.52,380.498 2260.17,380.498 C2257.05,380.498 2254.41,379.686 2252.27,378.061 C2250.24,376.3 2249.23,374.087 2249.23,371.42 C2249.23,367.055 2251.55,362.889 2256.17,358.92 C2260.8,354.951 2265.81,352.967 2271.2,352.967"/>
<path class="Note" d="M2522.74,365.467 C2525.86,365.467 2528.46,366.248 2530.55,367.811 C2532.63,369.373 2533.67,371.618 2533.67,374.545 C2533.67,379.035 2531.35,383.233 2526.7,387.139 C2522.05,391.045 2517.05,392.998 2511.7,392.998 C2508.58,392.998 2505.94,392.186 2503.8,390.561 C2501.78,388.8 2500.77,386.587 2500.77,383.92 C2500.77,379.555 2503.08,375.389 2507.7,371.42 C2512.33,367.451 2517.34,365.467 2522.74,365.467"/>
<path class="Note" d="M2655.02,377.967 C2658.14,377.967 2660.75,378.748 2662.83,380.311 C2664.91,381.873 2665.95,384.118 2665.95,387.045 C2665.95,391.535 2663.63,395.733 2658.98,399.639 C2654.33,403.545 2649.33,405.498 2643.98,405.498 C2640.86,405.498 2638.22,404.686 2636.08,403.061 C2634.06,401.3 2633.05,399.087 2633.05,396.42 C2633.05,392.055 2635.36,387.889 2639.98,383.92 C2644.61,379.951 2649.62,377.967 2655.02,377.967"/>
<path class="Note" d="M1845.36,352.967 C1848.49,352.967 1851.09,353.748 1853.17,355.311 C1855.26,356.873 1856.3,359.118 1856.3,362.045 C1856.3,366.535 1853.97,370.733 1849.32,374.639 C1844.67,378.545 1839.67,380.498 1834.33,380.498 C1831.2,380.498 1828.57,379.686 1826.42,378.061 C1824.4,376.3 1823.39,374.087 1823.39,371.42 C1823.39,367.055 1825.7,362.889 1830.33,358.92 C1834.95,354.951 1839.97,352.967 1845.36,352.967"/>
<path class="Note" d="M1646.94,352.967 C1650.07,352.967 1652.67,353.748 1654.75,355.311 C1656.84,356.873 1657.88,359.118 1657.88,362.045 C1657.88,366.535 1655.55,370.733 1650.9,374.639 C1646.25,378.545 1641.25,380.498 1635.91,380.498 C1632.78,380.498 1630.15,379.686 1628,378.061 C1625.98,376.3 1624.97,374.087 1624.97,371.42 C1624.97,367.055 1627.28,362.889 1631.91,358.92 C1636.53,354.951 1641.54,352.967 1646.94,352.967"/>
<path class="Note" d="M358.803,840.467 C361.928,840.467 364.532,841.248 366.615,842.811 C368.699,844.373 369.74,846.618 369.74,849.545 C369.74,854.035 367.415,858.233 362.764,862.139 C358.113,866.045 353.115,867.998 347.772,867.998 C344.647,867.998 342.011,867.186 339.865,865.561 C337.844,863.801 336.834,861.587 336.834,858.92 C336.834,854.556 339.147,850.389 343.772,846.42 C348.397,842.452 353.407,840.467 358.803,840.467"/>
<path class="Note" d="M523.593,852.967 C526.718,852.967 529.322,853.748 531.405,855.311 C533.489,856.873 534.53,859.118 534.53,862.045 C534.53,866.535 532.205,870.733 527.554,874.639 C522.903,878.545 517.905,880.498 512.562,880.498 C509.437,880.498 506.801,879.686 504.655,878.061 C502.634,876.301 501.624,874.087 501.624,871.42 C501.624,867.056 503.937,862.889 508.562,858.92 C513.187,854.952 518.197,852.967 523.593,852.967"/>
<path class="Note" d="M688.383,865.467 C691.508,865.467 694.112,866.248 696.195,867.811 C698.279,869.373 699.32,871.618 699.32,874.545 C699.32,879.035 696.995,883.233 692.344,887.139 C687.693,891.045 682.695,892.998 677.351,892.998 C674.226,892.998 671.591,892.186 669.445,890.561 C667.424,888.801 666.414,886.587 666.414,883.92 C666.414,879.556 668.726,875.389 673.351,871.42 C677.976,867.452 682.987,865.467 688.383,865.467"/>
<path class="Note" d="M1419.52,365.467 C1422.64,365.467 1425.25,366.248 1427.33,367.811 C1429.42,369.373 1430.46,371.618 1430.46,374.545 C1430.46,379.035 1428.13,383.233 1423.48,387.139 C1418.83,391.045 1413.83,392.998 1408.49,392.998 C1405.36,392.998 1402.73,392.186 1400.58,390.561 C1398.56,388.8 1397.55,386.587 1397.55,383.92 C1397.55,379.555 1399.86,375.389 1404.49,371.42 C1409.11,367.451 1414.12,365.467 1419.52,365.467"/>
<path class="Note" d="M882.173,852.967 C885.298,852.967 887.902,853.748 889.985,855.311 C892.069,856.873 893.11,859.118 893.11,862.045 C893.11,866.535 890.785,870.733 886.134,874.639 C881.483,878.545 876.485,880.498 871.141,880.498 C868.016,880.498 865.381,879.686 863.235,878.061 C861.214,876.301 860.204,874.087 860.204,871.42 C860.204,867.056 862.516,862.889 867.141,858.92 C871.766,854.952 876.777,852.967 882.173,852.967"/>
<path class="Note" d="M2666.34,1315.47 C2669.47,1315.47 2672.07,1316.25 2674.16,1317.81 C2676.24,1319.37 2677.28,1321.62 2677.28,1324.55 C2677.28,1329.04 2674.96,1333.23 2670.31,1337.14 C2665.65,1341.05 2660.66,1343 2655.31,1343 C2652.19,1343 2649.55,1342.19 2647.41,1340.56 C2645.39,1338.8 2644.38,1336.59 2644.38,1333.92 C2644.38,1329.56 2646.69,1325.39 2651.31,1321.42 C2655.94,1317.45 2660.95,1315.47 2666.34,1315.47"/>
<path class="Note" d="M1287.24,377.967 C1290.36,377.967 1292.97,378.748 1295.05,380.311 C1297.13,381.873 1298.18,384.118 1298.18,387.045 C1298.18,391.535 1295.85,395.733 1291.2,399.639 C1286.55,403.545 1281.55,405.498 1276.21,405.498 C1273.08,405.498 1270.45,404.686 1268.3,403.061 C1266.28,401.3 1265.27,399.087 1265.27,396.42 C1265.27,392.055 1267.58,387.889 1272.21,383.92 C1276.83,379.951 1281.84,377.967 1287.24,377.967"/>
<path class="Note" d="M1323.15,802.967 C1326.27,802.967 1328.88,803.748 1330.96,805.311 C1333.04,806.873 1334.09,809.118 1334.09,812.045 C1334.09,816.535 1331.76,820.733 1327.11,824.639 C1322.46,828.545 1317.46,830.498 1312.12,830.498 C1308.99,830.498 1306.36,829.686 1304.21,828.061 C1302.19,826.3 1301.18,824.087 1301.18,821.42 C1301.18,817.056 1303.49,812.889 1308.12,808.92 C1312.74,804.952 1317.75,802.967 1323.15,802.967"/>
<path class="Note" d="M1487.94,802.967 C1491.06,802.967 1493.67,803.748 1495.75,805.311 C1497.83,806.873 1498.88,809.118 1498.88,812.045 C1498.88,816.535 1496.55,820.733 1491.9,824.639 C1487.25,828.545 1482.25,830.498 1476.91,830.498 C1473.78,830.498 1471.15,829.686 1469,828.061 C1466.98,826.3 1465.97,824.087 1465.97,821.42 C1465.97,817.056 1468.28,812.889 1472.91,808.92 C1477.53,804.952 1482.54,802.967 1487.94,802.967"/>
<path class="Note" d="M1652.73,802.967 C1655.85,802.967 1658.46,803.748 1660.54,805.311 C1662.62,806.873 1663.67,809.118 1663.67,812.045 C1663.67,816.535 1661.34,820.733 1656.69,824.639 C1652.04,828.545 1647.04,830.498 1641.7,830.498 C1638.57,830.498 1635.94,829.686 1633.79,828.061 C1631.77,826.3 1630.76,824.087 1630.76,821.42 C1630.76,817.056 1633.07,812.889 1637.7,808.92 C1642.32,804.952 1647.33,802.967 1652.73,802.967"/>
<path class="Note" d="M1846.52,802.967 C1849.64,802.967 1852.25,803.748 1854.33,805.311 C1856.41,806.873 1857.46,809.118 1857.46,812.045 C1857.46,816.535 1855.13,820.733 1850.48,824.639 C1845.83,828.545 1840.83,830.498 1835.49,830.498 C1832.36,830.498 1829.73,829.686 1827.58,828.061 C1825.56,826.3 1824.55,824.087 1824.55,821.42 C1824.55,817.056 1826.86,812.889 1831.49,808.92 C1836.11,804.952 1841.12,802.967 1846.52,802.967"/>
<path class="Note" d="M2055.42,815.467 C2058.54,815.467 2061.15,816.248 2063.23,817.811 C2065.31,819.373 2066.35,821.618 2066.35,824.545 C2066.35,829.035 2064.03,833.233 2059.38,837.139 C2054.73,841.045 2049.73,842.998 2044.39,842.998 C2041.26,842.998 2038.63,842.186 2036.48,840.561 C2034.46,838.801 2033.45,836.587 2033.45,833.92 C2033.45,829.556 2035.76,825.389 2040.39,821.42 C2045.01,817.452 2050.02,815.467 2055.42,815.467"/>
<path class="Note" d="M2165.28,827.967 C2168.4,827.967 2171.01,828.748 2173.09,830.311 C2175.17,831.873 2176.21,834.118 2176.21,837.045 C2176.21,841.535 2173.89,845.733 2169.24,849.639 C2164.59,853.545 2159.59,855.498 2154.25,855.498 C2151.12,855.498 2148.49,854.686 2146.34,853.061 C2144.32,851.301 2143.31,849.087 2143.31,846.42 C2143.31,842.056 2145.62,837.889 2150.25,833.92 C2154.87,829.952 2159.88,827.967 2165.28,827.967"/>
<path class="Note" d="M1035.71,390.467 C1038.83,390.467 1041.44,391.248 1043.52,392.811 C1045.6,394.373 1046.64,396.618 1046.64,399.545 C1046.64,404.035 1044.32,408.233 1039.67,412.139 C1035.02,416.045 1030.02,417.998 1024.67,417.998 C1021.55,417.998 1018.91,417.186 1016.77,415.561 C1014.75,413.8 1013.74,411.587 1013.74,408.92 C1013.74,404.555 1016.05,400.389 1020.67,396.42 C1025.3,392.451 1030.31,390.467 1035.71,390.467"/>
<path class="Note" d="M2479.25,1302.97 C2482.38,1302.97 2484.98,1303.75 2487.06,1305.31 C2489.15,1306.87 2490.19,1309.12 2490.19,1312.05 C2490.19,1316.54 2487.86,1320.73 2483.21,1324.64 C2478.56,1328.55 2473.56,1330.5 2468.22,1330.5 C2465.1,1330.5 2462.46,1329.69 2460.31,1328.06 C2458.29,1326.3 2457.28,1324.09 2457.28,1321.42 C2457.28,1317.06 2459.6,1312.89 2464.22,1308.92 C2468.85,1304.95 2473.86,1302.97 2479.25,1302.97"/>
<path class="Note" d="M2359.07,815.467 C2362.19,815.467 2364.8,816.248 2366.88,817.811 C2368.96,819.373 2370,821.618 2370,824.545 C2370,829.035 2367.68,833.233 2363.03,837.139 C2358.38,841.045 2353.38,842.998 2348.04,842.998 C2344.91,842.998 2342.28,842.186 2340.13,840.561 C2338.11,838.801 2337.1,836.587 2337.1,833.92 C2337.1,829.556 2339.41,825.389 2344.04,821.42 C2348.66,817.452 2353.67,815.467 2359.07,815.467"/>
<path class="Note" d="M2523.86,815.467 C2526.98,815.467 2529.59,816.248 2531.67,817.811 C2533.75,819.373 2534.79,821.618 2534.79,824.545 C2534.79,829.035 2532.47,833.233 2527.82,837.139 C2523.17,841.045 2518.17,842.998 2512.83,842.998 C2509.7,842.998 2507.07,842.186 2504.92,840.561 C2502.9,838.801 2501.89,836.587 2501.89,833.92 C2501.89,829.556 2504.2,825.389 2508.83,821.42 C2513.45,817.452 2518.46,815.467 2523.86,815.467"/>
<path class="Note" d="M2688.65,815.467 C2691.77,815.467 2694.38,816.248 2696.46,817.811 C2698.54,819.373 2699.58,821.618 2699.58,824.545 C2699.58,829.035 2697.26,833.233 2692.61,837.139 C2687.96,841.045 2682.96,842.998 2677.62,842.998 C2674.49,842.998 2671.86,842.186 2669.71,840.561 C2667.69,838.801 2666.68,836.587 2666.68,833.92 C2666.68,829.556 2668.99,825.389 2673.62,821.42 C2678.24,817.452 2683.25,815.467 2688.65,815.467"/>
<path class="Note" d="M808.285,365.467 C811.41,365.467 814.014,366.248 816.098,367.811 C818.181,369.373 819.223,371.618 819.223,374.545 C819.223,379.035 816.897,383.233 812.246,387.139 C807.595,391.045 802.598,392.998 797.254,392.998 C794.129,392.998 791.494,392.186 789.348,390.561 C787.327,388.8 786.317,386.587 786.317,383.92 C786.317,379.555 788.629,375.389 793.254,371.42 C797.879,367.451 802.889,365.467 808.285,365.467"/>
<path class="Note" d="M358.803,1290.47 C361.928,1290.47 364.532,1291.25 366.615,1292.81 C368.699,1294.37 369.74,1296.62 369.74,1299.55 C369.74,1304.04 367.415,1308.23 362.764,1312.14 C358.113,1316.05 353.115,1318 347.772,1318 C344.647,1318 342.011,1317.19 339.865,1315.56 C337.844,1313.8 336.834,1311.59 336.834,1308.92 C336.834,1304.56 339.147,1300.39 343.772,1296.42 C348.397,1292.45 353.407,1290.47 358.803,1290.47"/>
<path class="Clef" d="M203.623,1848.86 L203.623,1846.72 C203.56,1845.61 203.399,1843.89 203.139,1841.55 C199.889,1842.07 196.993,1842.33 194.451,1842.33 C185.337,1842.33 177.605,1838.73 171.256,1831.53 C164.907,1824.33 161.732,1815.75 161.732,1805.8 C161.732,1803.13 162.253,1799.92 163.295,1796.18 C164.337,1792.43 165.297,1789.93 166.178,1788.66 C167.058,1787.38 168.378,1785.16 170.139,1781.97 C170.659,1780.99 172.352,1778.84 175.217,1775.51 C175.738,1774.81 176.193,1774.22 176.584,1773.76 C176.975,1773.31 177.607,1772.49 178.482,1771.32 C179.357,1770.15 180.3,1769.06 181.31,1768.05 C182.321,1767.04 183.217,1766.06 183.998,1765.12 C184.779,1764.17 185.498,1763.38 186.154,1762.73 C183.81,1754.98 182.378,1749.03 181.857,1744.86 C181.337,1740.69 181.076,1735.58 181.076,1729.52 C181.076,1723.47 182.378,1717.96 184.982,1713.01 C187.514,1707.88 191.06,1703.68 195.623,1700.42 C195.883,1700.22 196.225,1700.12 196.646,1700.12 C197.068,1700.12 197.378,1700.22 197.576,1700.42 C201.087,1704.65 204.128,1710.15 206.701,1716.92 C209.274,1723.69 210.56,1730.03 210.56,1735.92 C210.56,1741.82 209.066,1747.5 206.076,1752.97 C202.691,1758.76 198.326,1764.75 192.982,1770.94 C194.347,1775.23 196.17,1781.96 198.451,1791.14 L199.045,1791.14 C199.305,1791.08 199.529,1791.05 199.717,1791.05 C207.081,1791.05 213.089,1793.63 217.74,1798.81 C222.391,1803.99 224.717,1809.96 224.717,1816.73 C224.717,1825.13 221.238,1831.9 214.279,1837.05 C212.258,1838.55 209.878,1839.72 207.139,1840.56 C207.472,1844.79 207.639,1847.61 207.639,1849.01 C207.639,1850.41 207.571,1852.9 207.435,1856.48 C207.373,1862.6 205.29,1867.84 201.185,1872.2 C197.081,1876.57 192.394,1878.75 187.123,1878.75 C181.852,1878.75 177.36,1876.88 173.646,1873.13 C169.933,1869.39 168.076,1864.85 168.076,1859.51 C168.076,1856.71 169.154,1854.33 171.31,1852.37 C173.519,1850.43 176.006,1849.45 178.771,1849.45 C181.537,1849.45 183.8,1850.46 185.56,1852.48 C187.383,1854.37 188.295,1856.64 188.295,1859.31 C188.295,1861.98 187.383,1864.22 185.56,1866.05 C183.738,1867.87 181.555,1868.78 179.014,1868.78 C177.972,1868.78 176.967,1868.59 175.998,1868.2 C178.863,1872.43 182.54,1874.55 187.029,1874.55 C191.519,1874.55 195.36,1872.69 198.553,1868.98 C201.745,1865.28 203.342,1860.91 203.342,1855.89 L203.623,1848.86 M206.748,1836.56 C210.133,1835.32 212.821,1833.12 214.81,1829.97 C216.8,1826.81 217.795,1823.67 217.795,1820.55 C217.795,1815.92 216.199,1811.79 213.006,1808.14 C209.813,1804.49 205.774,1802.44 200.889,1801.98 C203.691,1815.72 205.644,1827.25 206.748,1836.56 M168.967,1814 C168.967,1820.45 171.537,1826.08 176.678,1830.9 C181.818,1835.72 187.842,1838.12 194.748,1838.12 C197.477,1838.12 200.144,1837.93 202.748,1837.53 C201.706,1827.63 199.654,1815.79 196.592,1801.98 C192.758,1802.38 189.782,1803.7 187.662,1805.94 C185.542,1808.19 184.482,1810.74 184.482,1813.61 C184.482,1818.56 187.123,1822.56 192.404,1825.62 C192.852,1825.88 193.076,1826.32 193.076,1826.94 C193.076,1827.56 192.865,1828.1 192.443,1828.55 C192.021,1829.01 191.649,1829.23 191.326,1829.23 C191.003,1829.23 190.581,1829.17 190.06,1829.05 C182.435,1824.88 178.623,1818.59 178.623,1810.19 C178.623,1806.22 180.024,1802.41 182.826,1798.76 C185.753,1795.12 189.56,1792.78 194.248,1791.73 C192.425,1784.44 190.93,1778.74 189.764,1774.64 C180.847,1784.67 175.31,1792.09 173.154,1796.91 C170.363,1803.16 168.967,1808.85 168.967,1814 M201.576,1714.69 C196.691,1717.09 192.834,1720.57 190.006,1725.13 C187.178,1729.69 185.764,1734.47 185.764,1739.48 C185.764,1744.49 186.935,1750.97 189.279,1758.92 C193.967,1753.25 197.514,1747.95 199.92,1743 C202.326,1738.05 203.529,1733.15 203.529,1728.3 C203.529,1723.45 202.878,1718.92 201.576,1714.69"/>
<path class="Clef" d="M203.623,423.858 L203.623,421.717 C203.56,420.613 203.399,418.889 203.139,416.545 C199.889,417.066 196.993,417.326 194.451,417.326 C185.337,417.326 177.605,413.727 171.256,406.529 C164.907,399.331 161.732,390.753 161.732,380.795 C161.732,378.128 162.253,374.923 163.295,371.178 C164.337,367.433 165.297,364.925 166.178,363.654 C167.058,362.384 168.378,360.154 170.139,356.967 C170.659,355.988 172.352,353.837 175.217,350.514 C175.738,349.805 176.193,349.222 176.584,348.764 C176.975,348.305 177.607,347.49 178.482,346.318 C179.357,345.147 180.3,344.055 181.31,343.045 C182.321,342.035 183.217,341.058 183.998,340.115 C184.779,339.173 185.498,338.378 186.154,337.733 C183.81,329.983 182.378,324.024 181.857,319.858 C181.337,315.691 181.076,310.579 181.076,304.522 C181.076,298.464 182.378,292.962 184.982,288.014 C187.514,282.878 191.06,278.68 195.623,275.42 C195.883,275.222 196.225,275.123 196.646,275.123 C197.068,275.123 197.378,275.222 197.576,275.42 C201.087,279.649 204.128,285.149 206.701,291.92 C209.274,298.691 210.56,305.024 210.56,310.92 C210.56,316.816 209.066,322.498 206.076,327.967 C202.691,333.759 198.326,339.748 192.982,345.936 C194.347,350.227 196.17,356.962 198.451,366.139 L199.045,366.139 C199.305,366.076 199.529,366.045 199.717,366.045 C207.081,366.045 213.089,368.634 217.74,373.811 C222.391,378.988 224.717,384.962 224.717,391.733 C224.717,400.128 221.238,406.899 214.279,412.045 C212.258,413.545 209.878,414.717 207.139,415.561 C207.472,419.79 207.639,422.605 207.639,424.006 C207.639,425.407 207.571,427.899 207.435,431.483 C207.373,437.597 205.29,442.837 201.185,447.201 C197.081,451.566 192.394,453.748 187.123,453.748 C181.852,453.748 177.36,451.876 173.646,448.131 C169.933,444.386 168.076,439.847 168.076,434.514 C168.076,431.712 169.154,429.331 171.31,427.373 C173.519,425.425 176.006,424.451 178.771,424.451 C181.537,424.451 183.8,425.462 185.56,427.483 C187.383,429.368 188.295,431.644 188.295,434.311 C188.295,436.977 187.383,439.222 185.56,441.045 C183.738,442.868 181.555,443.779 179.014,443.779 C177.972,443.779 176.967,443.587 175.998,443.201 C178.863,447.43 182.54,449.545 187.029,449.545 C191.519,449.545 195.36,447.691 198.553,443.983 C201.745,440.274 203.342,435.91 203.342,430.889 L203.623,423.858 M206.748,411.561 C210.133,410.321 212.821,408.123 214.81,404.967 C216.8,401.811 217.795,398.67 217.795,395.545 C217.795,390.92 216.199,386.785 213.006,383.139 C209.813,379.493 205.774,377.441 200.889,376.983 C203.691,390.722 205.644,402.248 206.748,411.561 M168.967,388.998 C168.967,395.446 171.537,401.079 176.678,405.897 C181.818,410.714 187.842,413.123 194.748,413.123 C197.477,413.123 200.144,412.925 202.748,412.529 C201.706,402.634 199.654,390.785 196.592,376.983 C192.758,377.378 189.782,378.699 187.662,380.943 C185.542,383.188 184.482,385.743 184.482,388.608 C184.482,393.555 187.123,397.561 192.404,400.623 C192.852,400.884 193.076,401.324 193.076,401.943 C193.076,402.563 192.865,403.1 192.443,403.553 C192.021,404.006 191.649,404.233 191.326,404.233 C191.003,404.233 190.581,404.17 190.06,404.045 C182.435,399.878 178.623,393.592 178.623,385.186 C178.623,381.217 180.024,377.41 182.826,373.764 C185.753,370.118 189.56,367.774 194.248,366.733 C192.425,359.441 190.93,353.743 189.764,349.639 C180.847,359.67 175.31,367.092 173.154,371.904 C170.363,378.154 168.967,383.852 168.967,388.998 M201.576,289.686 C196.691,292.092 192.834,295.574 190.006,300.131 C187.178,304.688 185.764,309.472 185.764,314.483 C185.764,319.493 186.935,325.972 189.279,333.92 C193.967,328.253 197.514,322.946 199.92,317.998 C202.326,313.05 203.529,308.152 203.529,303.303 C203.529,298.454 202.878,293.915 201.576,289.686"/>
<path class="Clef" d="M203.623,1373.86 L203.623,1371.72 C203.56,1370.61 203.399,1368.89 203.139,1366.55 C199.889,1367.07 196.993,1367.33 194.451,1367.33 C185.337,1367.33 177.605,1363.73 171.256,1356.53 C164.907,1349.33 161.732,1340.75 161.732,1330.8 C161.732,1328.13 162.253,1324.92 163.295,1321.18 C164.337,1317.43 165.297,1314.93 166.178,1313.65 C167.058,1312.38 168.378,1310.15 170.139,1306.97 C170.659,1305.99 172.352,1303.84 175.217,1300.51 C175.738,1299.81 176.193,1299.22 176.584,1298.76 C176.975,1298.31 177.607,1297.49 178.482,1296.32 C179.357,1295.15 180.3,1294.06 181.31,1293.05 C182.321,1292.04 183.217,1291.06 183.998,1290.12 C184.779,1289.17 185.498,1288.38 186.154,1287.73 C183.81,1279.98 182.378,1274.02 181.857,1269.86 C181.337,1265.69 181.076,1260.58 181.076,1254.52 C181.076,1248.46 182.378,1242.96 184.982,1238.01 C187.514,1232.88 191.06,1228.68 195.623,1225.42 C195.883,1225.22 196.225,1225.12 196.646,1225.12 C197.068,1225.12 197.378,1225.22 197.576,1225.42 C201.087,1229.65 204.128,1235.15 206.701,1241.92 C209.274,1248.69 210.56,1255.02 210.56,1260.92 C210.56,1266.82 209.066,1272.5 206.076,1277.97 C202.691,1283.76 198.326,1289.75 192.982,1295.94 C194.347,1300.23 196.17,1306.96 198.451,1316.14 L199.045,1316.14 C199.305,1316.08 199.529,1316.05 199.717,1316.05 C207.081,1316.05 213.089,1318.63 217.74,1323.81 C222.391,1328.99 224.717,1334.96 224.717,1341.73 C224.717,1350.13 221.238,1356.9 214.279,1362.05 C212.258,1363.55 209.878,1364.72 207.139,1365.56 C207.472,1369.79 207.639,1372.61 207.639,1374.01 C207.639,1375.41 207.571,1377.9 207.435,1381.48 C207.373,1387.6 205.29,1392.84 201.185,1397.2 C197.081,1401.57 192.394,1403.75 187.123,1403.75 C181.852,1403.75 177.36,1401.88 173.646,1398.13 C169.933,1394.39 168.076,1389.85 168.076,1384.51 C168.076,1381.71 169.154,1379.33 171.31,1377.37 C173.519,1375.43 176.006,1374.45 178.771,1374.45 C181.537,1374.45 183.8,1375.46 185.56,1377.48 C187.383,1379.37 188.295,1381.64 188.295,1384.31 C188.295,1386.98 187.383,1389.22 185.56,1391.05 C183.738,1392.87 181.555,1393.78 179.014,1393.78 C177.972,1393.78 176.967,1393.59 175.998,1393.2 C178.863,1397.43 182.54,1399.55 187.029,1399.55 C191.519,1399.55 195.36,1397.69 198.553,1393.98 C201.745,1390.27 203.342,1385.91 203.342,1380.89 L203.623,1373.86 M206.748,1361.56 C210.133,1360.32 212.821,1358.12 214.81,1354.97 C216.8,1351.81 217.795,1348.67 217.795,1345.55 C217.795,1340.92 216.199,1336.79 213.006,1333.14 C209.813,1329.49 205.774,1327.44 200.889,1326.98 C203.691,1340.72 205.644,1352.25 206.748,1361.56 M168.967,1339 C168.967,1345.45 171.537,1351.08 176.678,1355.9 C181.818,1360.71 187.842,1363.12 194.748,1363.12 C197.477,1363.12 200.144,1362.93 202.748,1362.53 C201.706,1352.63 199.654,1340.79 196.592,1326.98 C192.758,1327.38 189.782,1328.7 187.662,1330.94 C185.542,1333.19 184.482,1335.74 184.482,1338.61 C184.482,1343.56 187.123,1347.56 192.404,1350.62 C192.852,1350.88 193.076,1351.32 193.076,1351.94 C193.076,1352.56 192.865,1353.1 192.443,1353.55 C192.021,1354.01 191.649,1354.23 191.326,1354.23 C191.003,1354.23 190.581,1354.17 190.06,1354.05 C182.435,1349.88 178.623,1343.59 178.623,1335.19 C178.623,1331.22 180.024,1327.41 182.826,1323.76 C185.753,1320.12 189.56,1317.77 194.248,1316.73 C192.425,1309.44 190.93,1303.74 189.764,1299.64 C180.847,1309.67 175.31,1317.09 173.154,1321.9 C170.363,1328.15 168.967,1333.85 168.967,1339 M201.576,1239.69 C196.691,1242.09 192.834,1245.57 190.006,1250.13 C187.178,1254.69 185.764,1259.47 185.764,1264.48 C185.764,1269.49 186.935,1275.97 189.279,1283.92 C193.967,1278.25 197.514,1272.95 199.92,1268 C202.326,1263.05 203.529,1258.15 203.529,1253.3 C203.529,1248.45 202.878,1243.92 201.576,1239.69"/>
<path class="Clef" d="M203.623,898.858 L203.623,896.717 C203.56,895.613 203.399,893.889 203.139,891.545 C199.889,892.066 196.993,892.327 194.451,892.327 C185.337,892.327 177.605,888.728 171.256,881.53 C164.907,874.332 161.732,865.754 161.732,855.795 C161.732,853.129 162.253,849.923 163.295,846.178 C164.337,842.433 165.297,839.926 166.178,838.655 C167.058,837.384 168.378,835.155 170.139,831.967 C170.659,830.988 172.352,828.837 175.217,825.514 C175.738,824.806 176.193,824.222 176.584,823.764 C176.975,823.306 177.607,822.491 178.482,821.319 C179.357,820.147 180.3,819.056 181.31,818.045 C182.321,817.035 183.217,816.058 183.998,815.116 C184.779,814.173 185.498,813.379 186.154,812.733 C183.81,804.983 182.378,799.024 181.857,794.858 C181.337,790.691 181.076,785.579 181.076,779.522 C181.076,773.465 182.378,767.962 184.982,763.014 C187.514,757.879 191.06,753.681 195.623,750.42 C195.883,750.222 196.225,750.123 196.646,750.123 C197.068,750.123 197.378,750.222 197.576,750.42 C201.087,754.649 204.128,760.149 206.701,766.92 C209.274,773.691 210.56,780.024 210.56,785.92 C210.56,791.816 209.066,797.498 206.076,802.967 C202.691,808.759 198.326,814.748 192.982,820.936 C194.347,825.228 196.17,831.962 198.451,841.139 L199.045,841.139 C199.305,841.077 199.529,841.045 199.717,841.045 C207.081,841.045 213.089,843.634 217.74,848.811 C222.391,853.988 224.717,859.962 224.717,866.733 C224.717,875.129 221.238,881.899 214.279,887.045 C212.258,888.545 209.878,889.717 207.139,890.561 C207.472,894.79 207.639,897.605 207.639,899.006 C207.639,900.407 207.571,902.899 207.435,906.483 C207.373,912.597 205.29,917.837 201.185,922.202 C197.081,926.566 192.394,928.748 187.123,928.748 C181.852,928.748 177.36,926.876 173.646,923.131 C169.933,919.386 168.076,914.847 168.076,909.514 C168.076,906.712 169.154,904.332 171.31,902.373 C173.519,900.426 176.006,899.452 178.771,899.452 C181.537,899.452 183.8,900.462 185.56,902.483 C187.383,904.368 188.295,906.644 188.295,909.311 C188.295,911.978 187.383,914.222 185.56,916.045 C183.738,917.868 181.555,918.78 179.014,918.78 C177.972,918.78 176.967,918.587 175.998,918.202 C178.863,922.431 182.54,924.545 187.029,924.545 C191.519,924.545 195.36,922.691 198.553,918.983 C201.745,915.274 203.342,910.91 203.342,905.889 L203.623,898.858 M206.748,886.561 C210.133,885.321 212.821,883.123 214.81,879.967 C216.8,876.811 217.795,873.67 217.795,870.545 C217.795,865.92 216.199,861.785 213.006,858.139 C209.813,854.493 205.774,852.441 200.889,851.983 C203.691,865.722 205.644,877.248 206.748,886.561 M168.967,863.998 C168.967,870.446 171.537,876.079 176.678,880.897 C181.818,885.715 187.842,888.123 194.748,888.123 C197.477,888.123 200.144,887.926 202.748,887.53 C201.706,877.634 199.654,865.785 196.592,851.983 C192.758,852.379 189.782,853.699 187.662,855.944 C185.542,858.189 184.482,860.743 184.482,863.608 C184.482,868.556 187.123,872.561 192.404,875.623 C192.852,875.884 193.076,876.324 193.076,876.944 C193.076,877.564 192.865,878.1 192.443,878.553 C192.021,879.006 191.649,879.233 191.326,879.233 C191.003,879.233 190.581,879.17 190.06,879.045 C182.435,874.879 178.623,868.592 178.623,860.186 C178.623,856.217 180.024,852.41 182.826,848.764 C185.753,845.118 189.56,842.774 194.248,841.733 C192.425,834.441 190.93,828.743 189.764,824.639 C180.847,834.67 175.31,842.092 173.154,846.905 C170.363,853.155 168.967,858.853 168.967,863.998 M201.576,764.686 C196.691,767.092 192.834,770.574 190.006,775.131 C187.178,779.689 185.764,784.472 185.764,789.483 C185.764,794.493 186.935,800.972 189.279,808.92 C193.967,803.254 197.514,797.946 199.92,792.998 C202.326,788.051 203.529,783.152 203.529,778.303 C203.529,773.454 202.878,768.915 201.576,764.686"/>
<path class="KeySig" d="M272.412,294.764 C273.85,294.368 274.568,294.722 274.568,295.826 L274.568,303.639 C274.568,304.42 273.949,305.04 272.709,305.498 L269.49,306.764 L269.49,320.936 L272.412,319.764 C273.85,319.368 274.568,319.727 274.568,320.842 L274.568,328.654 C274.568,329.436 273.949,330.05 272.709,330.498 L269.49,331.779 L269.49,347.982 C269.49,349.222 269.001,349.842 268.021,349.842 C267.042,349.842 266.553,349.222 266.553,347.982 L266.553,332.951 L257.271,336.654 L257.271,352.764 C257.271,354.003 256.785,354.623 255.811,354.623 C254.837,354.623 254.35,354.003 254.35,352.764 L254.35,337.826 L251.803,338.904 C250.438,339.488 249.756,339.097 249.756,337.732 L249.756,330.014 C249.756,329.368 250.344,328.785 251.521,328.264 L254.35,327.092 L254.35,312.826 L251.803,313.904 C250.438,314.488 249.756,314.097 249.756,312.732 L249.756,305.014 C249.756,304.357 250.344,303.769 251.521,303.248 L254.35,302.076 L254.35,285.967 C254.35,284.727 254.837,284.107 255.811,284.107 C256.785,284.107 257.271,284.727 257.271,285.967 L257.271,300.904 L266.553,297.107 L266.553,281.186 C266.553,279.946 267.042,279.326 268.021,279.326 C269.001,279.326 269.49,279.946 269.49,281.186 L269.49,295.936 L272.412,294.764 M257.271,311.654 L257.271,325.92 L266.553,322.107 L266.553,307.936 L257.271,311.654 "/>
<path class="KeySig" d="M272.412,1244.76 C273.85,1244.37 274.568,1244.72 274.568,1245.83 L274.568,1253.64 C274.568,1254.42 273.949,1255.04 272.709,1255.5 L269.49,1256.76 L269.49,1270.94 L272.412,1269.76 C273.85,1269.37 274.568,1269.73 274.568,1270.84 L274.568,1278.65 C274.568,1279.44 273.949,1280.05 272.709,1280.5 L269.49,1281.78 L269.49,1297.98 C269.49,1299.22 269.001,1299.84 268.021,1299.84 C267.042,1299.84 266.553,1299.22 266.553,1297.98 L266.553,1282.95 L257.271,1286.65 L257.271,1302.76 C257.271,1304 256.785,1304.62 255.811,1304.62 C254.837,1304.62 254.35,1304 254.35,1302.76 L254.35,1287.83 L251.803,1288.9 C250.438,1289.49 249.756,1289.1 249.756,1287.73 L249.756,1280.01 C249.756,1279.37 250.344,1278.79 251.521,1278.26 L254.35,1277.09 L254.35,1262.83 L251.803,1263.9 C250.438,1264.49 249.756,1264.1 249.756,1262.73 L249.756,1255.01 C249.756,1254.36 250.344,1253.77 251.521,1253.25 L254.35,1252.08 L254.35,1235.97 C254.35,1234.73 254.837,1234.11 255.811,1234.11 C256.785,1234.11 257.271,1234.73 257.271,1235.97 L257.271,1250.9 L266.553,1247.11 L266.553,1231.19 C266.553,1229.95 267.042,1229.33 268.021,1229.33 C269.001,1229.33 269.49,1229.95 269.49,1231.19 L269.49,1245.94 L272.412,1244.76 M257.271,1261.65 L257.271,1275.92 L266.553,1272.11 L266.553,1257.94 L257.271,1261.65 "/>
<path class="KeySig" d="M272.412,769.764 C273.85,769.368 274.568,769.722 274.568,770.827 L274.568,778.639 C274.568,779.42 273.949,780.04 272.709,780.498 L269.49,781.764 L269.49,795.936 L272.412,794.764 C273.85,794.368 274.568,794.728 274.568,795.842 L274.568,803.655 C274.568,804.436 273.949,805.05 272.709,805.498 L269.49,806.78 L269.49,822.983 C269.49,824.222 269.001,824.842 268.021,824.842 C267.042,824.842 266.553,824.222 266.553,822.983 L266.553,807.952 L257.271,811.655 L257.271,827.764 C257.271,829.004 256.785,829.623 255.811,829.623 C254.837,829.623 254.35,829.004 254.35,827.764 L254.35,812.827 L251.803,813.905 C250.438,814.488 249.756,814.097 249.756,812.733 L249.756,805.014 C249.756,804.368 250.344,803.785 251.521,803.264 L254.35,802.092 L254.35,787.827 L251.803,788.905 C250.438,789.488 249.756,789.097 249.756,787.733 L249.756,780.014 C249.756,779.358 250.344,778.769 251.521,778.248 L254.35,777.077 L254.35,760.967 C254.35,759.728 254.837,759.108 255.811,759.108 C256.785,759.108 257.271,759.728 257.271,760.967 L257.271,775.905 L266.553,772.108 L266.553,756.186 C266.553,754.946 267.042,754.327 268.021,754.327 C269.001,754.327 269.49,754.946 269.49,756.186 L269.49,770.936 L272.412,769.764 M257.271,786.655 L257.271,800.92 L266.553,797.108 L266.553,782.936 L257.271,786.655 "/>
<path class="KeySig" d="M272.412,1719.76 C273.85,1719.37 274.568,1719.72 274.568,1720.83 L274.568,1728.64 C274.568,1729.42 273.949,1730.04 272.709,1730.5 L269.49,1731.76 L269.49,1745.94 L272.412,1744.76 C273.85,1744.37 274.568,1744.73 274.568,1745.84 L274.568,1753.66 C274.568,1754.44 273.949,1755.05 272.709,1755.5 L269.49,1756.78 L269.49,1772.98 C269.49,1774.22 269.001,1774.84 268.021,1774.84 C267.042,1774.84 266.553,1774.22 266.553,1772.98 L266.553,1757.95 L257.271,1761.66 L257.271,1777.76 C257.271,1779 256.785,1779.62 255.811,1779.62 C254.837,1779.62 254.35,1779 254.35,1777.76 L254.35,1762.83 L251.803,1763.91 C250.438,1764.49 249.756,1764.1 249.756,1762.73 L249.756,1755.01 C249.756,1754.37 250.344,1753.79 251.521,1753.26 L254.35,1752.09 L254.35,1737.83 L251.803,1738.91 C250.438,1739.49 249.756,1739.1 249.756,1737.73 L249.756,1730.01 C249.756,1729.36 250.344,1728.77 251.521,1728.25 L254.35,1727.08 L254.35,1710.97 C254.35,1709.73 254.837,1709.11 255.811,1709.11 C256.785,1709.11 257.271,1709.73 257.271,1710.97 L257.271,1725.91 L266.553,1722.11 L266.553,1706.19 C266.553,1704.95 267.042,1704.33 268.021,1704.33 C269.001,1704.33 269.49,1704.95 269.49,1706.19 L269.49,1720.94 L272.412,1719.76 M257.271,1736.66 L257.271,1750.92 L266.553,1747.11 L266.553,1732.94 L257.271,1736.66 "/>
<path class="TimeSig" d="M318.287,364.389 C322.454,364.389 324.537,360.514 324.537,352.764 L324.537,351.107 C324.537,349.222 324.472,347.644 324.342,346.373 C324.212,345.102 323.772,344.011 323.022,343.1 C322.272,342.188 321.115,341.732 319.553,341.732 L311.537,341.732 C310.631,341.732 310.178,341.277 310.178,340.365 C310.178,339.454 310.631,338.93 311.537,338.795 L319.553,338.795 C321.376,338.795 322.644,338.274 323.357,337.232 C324.071,336.191 324.464,334.498 324.537,332.154 L324.537,328.154 C324.537,322.102 322.324,319.076 317.897,319.076 C313.917,319.076 311.928,320.149 311.928,322.295 C311.928,323.014 312.532,323.795 313.74,324.639 C314.949,325.482 315.553,326.264 315.553,326.982 C315.553,328.607 314.982,329.99 313.842,331.131 C312.701,332.272 311.334,332.842 309.74,332.842 C308.147,332.842 306.795,332.256 305.686,331.084 C304.576,329.912 304.022,328.545 304.022,326.982 C304.022,323.92 305.391,321.415 308.131,319.467 C310.995,317.644 314.558,316.732 318.818,316.732 C323.079,316.732 326.805,317.66 329.998,319.514 C333.191,321.368 334.787,324.248 334.787,328.154 C334.787,330.956 334.493,333.089 333.904,334.553 C333.316,336.016 332.667,336.91 331.959,337.232 C330.063,338.014 329.115,339.024 329.115,340.264 C329.115,341.107 330.287,342.316 332.631,343.889 C333.412,344.337 334.193,345.36 334.975,346.959 C335.756,348.558 336.147,350.493 336.147,352.764 C336.147,357.264 334.472,360.717 331.123,363.123 C327.774,365.529 323.738,366.732 319.014,366.732 C314.29,366.732 310.464,365.691 307.537,363.607 C304.412,361.66 302.85,358.925 302.85,355.404 C302.85,353.717 303.501,352.154 304.803,350.717 C306.167,349.477 307.745,348.857 309.537,348.857 C311.329,348.857 312.813,349.509 313.99,350.811 C315.292,352.05 315.943,353.581 315.943,355.404 C315.943,356.248 315.292,357.16 313.99,358.139 C312.615,359.055 311.928,360.035 311.928,361.076 C311.928,362.118 312.548,362.93 313.787,363.514 C315.027,364.097 316.527,364.389 318.287,364.389"/>
<path class="TimeSig" d="M322.623,368.084 C324.118,368.084 325.55,367.858 326.92,367.404 C328.29,366.951 329.266,366.725 329.85,366.725 C330.433,366.725 330.824,367.079 331.022,367.787 C331.022,367.86 330.954,368.058 330.818,368.381 L302.412,401.397 L319.1,401.397 L319.1,388.303 C319.1,386.678 320.048,385.506 321.943,384.787 C323.891,384.068 326.105,381.173 328.584,376.1 C328.772,375.704 329.063,375.506 329.459,375.506 C330.24,375.506 330.693,375.964 330.818,376.881 L330.818,401.397 L337.959,401.397 C338.865,401.397 339.352,401.884 339.42,402.858 C339.488,403.831 339.001,404.318 337.959,404.318 L330.818,404.318 L330.818,405.1 C330.818,407.704 331.469,409.917 332.772,411.74 C334.272,413.563 336.032,414.475 338.053,414.475 C338.834,414.475 339.225,414.865 339.225,415.647 C339.225,416.428 338.688,416.818 337.615,416.818 C336.542,416.818 334.54,416.608 331.607,416.186 C328.675,415.764 326.412,415.553 324.818,415.553 C323.225,415.553 321.011,415.764 318.178,416.186 C315.344,416.608 313.214,416.818 311.787,416.818 C311.006,416.818 310.615,416.428 310.615,415.647 C310.615,414.865 311.006,414.475 311.787,414.475 C313.798,414.475 315.553,413.563 317.053,411.74 C318.417,409.855 319.1,407.641 319.1,405.1 L319.1,404.318 L302.412,404.318 C301.558,404.318 300.821,404.092 300.201,403.639 C299.581,403.186 299.272,402.764 299.272,402.373 C299.272,401.983 300.087,400.811 301.717,398.858 C303.347,396.904 305.675,393.144 308.701,387.576 C311.727,382.009 313.24,375.61 313.24,368.381 C313.24,367.339 313.699,366.818 314.615,366.818 C314.813,366.818 315.123,366.884 315.545,367.014 C315.967,367.144 316.878,367.355 318.279,367.647 C319.68,367.938 321.128,368.084 322.623,368.084"/>
<path class="Rest" d="M1061.53,841.733 L1025.98,841.733 C1025.32,841.733 1024.99,841.405 1024.99,840.748 L1024.99,827.077 C1024.99,826.431 1025.32,826.108 1025.98,826.108 L1061.53,826.108 C1062.17,826.108 1062.49,826.431 1062.49,827.077 L1062.49,840.748 C1062.49,841.405 1062.17,841.733 1061.53,841.733"/>
<path class="Beam" fill-rule="evenodd" d="M1381.04,1254.23 L1509.02,1260.48 L1509.02,1272.99 L1381.04,1266.74 L1381.04,1254.23 "/>
<path class="Beam" fill-rule="evenodd" d="M1101.92,1372.98 L1229.9,1379.23 L1229.9,1391.74 L1101.92,1385.49 L1101.92,1372.98 "/>
<path class="Beam" fill-rule="evenodd" d="M2207.83,1354.2 L2335.8,1366.7 L2335.8,1379.26 L2207.83,1366.76 L2207.83,1354.2 "/>
<path class="NoteDot" d="M1673.16,1308.24 C1672.05,1307.13 1671.5,1305.8 1671.5,1304.23 C1671.5,1302.67 1672.05,1301.33 1673.16,1300.23 C1674.27,1299.12 1675.61,1298.56 1677.17,1298.56 C1678.73,1298.56 1680.07,1299.12 1681.17,1300.23 C1682.27,1301.33 1682.83,1302.67 1682.83,1304.23 C1682.83,1305.8 1682.27,1307.13 1681.17,1308.24 C1680.07,1309.35 1678.73,1309.9 1677.17,1309.9 C1675.61,1309.9 1674.27,1309.35 1673.16,1308.24"/>
<path class="NoteDot" d="M381.065,1808.24 C379.955,1807.13 379.4,1805.8 379.4,1804.23 C379.4,1802.67 379.955,1801.33 381.065,1800.23 C382.174,1799.12 383.51,1798.56 385.072,1798.56 C386.635,1798.56 387.968,1799.12 389.072,1800.23 C390.177,1801.33 390.729,1802.67 390.729,1804.23 C390.729,1805.8 390.177,1807.13 389.072,1808.24 C387.968,1809.35 386.635,1809.91 385.072,1809.91 C383.51,1809.91 382.174,1809.35 381.065,1808.24"/>
<path class="NoteDot" d="M1057.07,408.24 C1055.96,407.131 1055.4,405.795 1055.4,404.233 C1055.4,402.67 1055.96,401.334 1057.07,400.225 C1058.17,399.115 1059.51,398.561 1061.07,398.561 C1062.64,398.561 1063.97,399.115 1065.07,400.225 C1066.18,401.334 1066.73,402.67 1066.73,404.233 C1066.73,405.795 1066.18,407.131 1065.07,408.24 C1063.97,409.35 1062.64,409.904 1061.07,409.904 C1059.51,409.904 1058.17,409.35 1057.07,408.24"/>
<path class="NoteDot" d="M2292.56,358.24 C2291.45,357.131 2290.9,355.795 2290.9,354.232 C2290.9,352.67 2291.45,351.334 2292.56,350.225 C2293.67,349.115 2295.01,348.561 2296.57,348.561 C2298.13,348.561 2299.47,349.115 2300.57,350.225 C2301.67,351.334 2302.23,352.67 2302.23,354.232 C2302.23,355.795 2301.67,357.131 2300.57,358.24 C2299.47,359.35 2298.13,359.904 2296.57,359.904 C2295.01,359.904 2293.67,359.35 2292.56,358.24"/>
<path class="NoteDot" d="M1867.88,808.241 C1866.77,807.131 1866.21,805.795 1866.21,804.233 C1866.21,802.67 1866.77,801.334 1867.88,800.225 C1868.99,799.116 1870.32,798.561 1871.88,798.561 C1873.45,798.561 1874.78,799.116 1875.88,800.225 C1876.99,801.334 1877.54,802.67 1877.54,804.233 C1877.54,805.795 1876.99,807.131 1875.88,808.241 C1874.78,809.35 1873.45,809.905 1871.88,809.905 C1870.32,809.905 1868.99,809.35 1867.88,808.241"/>
<path class="NoteDot" d="M380.162,1308.24 C379.053,1307.13 378.498,1305.8 378.498,1304.23 C378.498,1302.67 379.053,1301.33 380.162,1300.23 C381.272,1299.12 382.608,1298.56 384.17,1298.56 C385.733,1298.56 387.066,1299.12 388.17,1300.23 C389.274,1301.33 389.826,1302.67 389.826,1304.23 C389.826,1305.8 389.274,1307.13 388.17,1308.24 C387.066,1309.35 385.733,1309.9 384.17,1309.9 C382.608,1309.9 381.272,1309.35 380.162,1308.24"/>
</svg>
