<?xml version="1.0" encoding="UTF-8" standalone="no"?>
<svg width="2977.2px" height="4208.4px" viewBox="0 0 2977.2 4208.4"
 xmlns="http://www.w3.org/2000/svg" xmlns:xlink="http://www.w3.org/1999/xlink" version="1.2" baseProfile="tiny">
<title>Hot_Cross_Buns.mscx</title>
<desc>Generated by MuseScore Studio 4.3.1</desc>
<path class="" fill="#ffffff" fill-rule="evenodd" d="M0,0 L2977.2,0 L2977.2,4208.4 L0,4208.4 L0,0 "/>
<polyline class="StaffLines" fill="none" stroke="#000000" stroke-width="2.00" stroke-linejoin="bevel" points="141.732,316.732 2835.47,316.732"/>
<polyline class="StaffLines" fill="none" stroke="#000000" stroke-width="2.00" stroke-linejoin="bevel" points="141.732,341.732 2835.47,341.732"/>
<polyline class="StaffLines" fill="none" stroke="#000000" stroke-width="2.00" stroke-linejoin="bevel" points="141.732,366.733 2835.47,366.733"/>
<polyline class="StaffLines" fill="none" stroke="#000000" stroke-width="2.00" stroke-linejoin="bevel" points="141.732,391.733 2835.47,391.733"/>
<polyline class="StaffLines" fill="none" stroke="#000000" stroke-width="2.00" stroke-linejoin="bevel" points="141.732,416.733 2835.47,416.733"/>
<polyline class="StaffLines" fill="none" stroke="#000000" stroke-width="2.00" stroke-linejoin="bevel" points="141.732,791.733 2835.47,791.733"/>
<polyline class="StaffLines" fill="none" stroke="#000000" stroke-width="2.00" stroke-linejoin="bevel" points="141.732,816.733 2835.47,816.733"/>
<polyline class="StaffLines" fill="none" stroke="#000000" stroke-width="2.00" stroke-linejoin="bevel" points="141.732,841.733 2835.47,841.733"/>
<polyline class="StaffLines" fill="none" stroke="#000000" stroke-width="2.00" stroke-linejoin="bevel" points="141.732,866.733 2835.47,866.733"/>
<polyline class="StaffLines" fill="none" stroke="#000000" stroke-width="2.00" stroke-linejoin="bevel" points="141.732,891.733 2835.47,891.733"/>
<path class="MeasureNumber" d="M146.514,733.873 C146.514,732.446 146.199,731.181 145.568,730.076 C144.938,728.972 144.178,728.118 143.287,727.514 C142.396,726.91 141.399,726.412 140.295,726.022 C139.191,725.631 138.23,725.376 137.412,725.256 C136.594,725.136 135.883,725.076 135.279,725.076 C134.956,725.076 134.795,724.967 134.795,724.748 C134.795,724.675 134.805,724.613 134.826,724.561 L139.185,715.264 L147.545,715.264 C147.972,715.264 148.313,715.196 148.568,715.061 C148.824,714.925 149.097,714.644 149.389,714.217 L149.748,714.498 L148.232,717.842 C148.128,718.061 147.821,718.17 147.31,718.17 L139.467,718.17 L137.795,721.608 C141.68,722.306 144.571,723.441 146.467,725.014 C148.363,726.587 149.31,728.894 149.31,731.936 C149.31,733.53 149.063,734.946 148.568,736.186 C148.074,737.425 147.446,738.423 146.685,739.178 C145.925,739.933 145.045,740.553 144.045,741.037 C143.045,741.522 142.087,741.853 141.17,742.03 C140.253,742.207 139.326,742.295 138.389,742.295 C136.899,742.295 135.714,742.074 134.834,741.631 C133.954,741.188 133.514,740.582 133.514,739.811 C133.514,738.821 134.087,738.326 135.232,738.326 C135.982,738.326 136.949,738.735 138.131,739.553 C139.313,740.371 140.253,740.78 140.951,740.78 C142.524,740.78 143.844,740.113 144.912,738.78 C145.98,737.446 146.514,735.811 146.514,733.873"/>
<polyline class="BarLine" fill="none" stroke="#000000" stroke-width="4.00" stroke-linejoin="bevel" points="2802.72,790.733 2802.72,892.733"/>
<polyline class="BarLine" fill="none" stroke="#000000" stroke-width="12.50" stroke-linejoin="bevel" points="2829.22,790.733 2829.22,892.733"/>
<polyline class="BarLine" fill="none" stroke="#000000" stroke-width="4.00" stroke-linejoin="bevel" points="2237.34,790.733 2237.34,892.733"/>
<polyline class="BarLine" fill="none" stroke="#000000" stroke-width="4.00" stroke-linejoin="bevel" points="1390.99,790.733 1390.99,892.733"/>
<polyline class="BarLine" fill="none" stroke="#000000" stroke-width="4.00" stroke-linejoin="bevel" points="825.614,790.733 825.614,892.733"/>
<polyline class="BarLine" fill="none" stroke="#000000" stroke-width="4.00" stroke-linejoin="bevel" points="2833.47,315.732 2833.47,417.733"/>
<polyline class="BarLine" fill="none" stroke="#000000" stroke-width="4.00" stroke-linejoin="bevel" points="873.415,315.732 873.415,417.733"/>
<polyline class="BarLine" fill="none" stroke="#000000" stroke-width="4.00" stroke-linejoin="bevel" points="2272.93,315.732 2272.93,417.733"/>
<polyline class="BarLine" fill="none" stroke="#000000" stroke-width="4.00" stroke-linejoin="bevel" points="1433.96,315.732 1433.96,417.733"/>
<polyline class="LedgerLine" fill="none" stroke="#000000" stroke-width="4.00" stroke-linejoin="bevel" points="330.373,291.732 382.287,291.732"/>
<polyline class="LedgerLine" fill="none" stroke="#000000" stroke-width="4.00" stroke-linejoin="bevel" points="2442.3,291.732 2494.21,291.732"/>
<polyline class="LedgerLine" fill="none" stroke="#000000" stroke-width="4.00" stroke-linejoin="bevel" points="1817.17,766.733 1869.08,766.733"/>
<polyline class="LedgerLine" fill="none" stroke="#000000" stroke-width="4.00" stroke-linejoin="bevel" points="2290.43,291.732 2342.34,291.732"/>
<polyline class="LedgerLine" fill="none" stroke="#000000" stroke-width="4.00" stroke-linejoin="bevel" points="2408.09,766.733 2460,766.733"/>
<polyline class="LedgerLine" fill="none" stroke="#000000" stroke-width="4.00" stroke-linejoin="bevel" points="2160.18,291.732 2212.09,291.732"/>
<polyline class="LedgerLine" fill="none" stroke="#000000" stroke-width="4.00" stroke-linejoin="bevel" points="482.242,291.732 534.156,291.732"/>
<polyline class="LedgerLine" fill="none" stroke="#000000" stroke-width="4.00" stroke-linejoin="bevel" points="2058.93,291.732 2110.85,291.732"/>
<polyline class="LedgerLine" fill="none" stroke="#000000" stroke-width="4.00" stroke-linejoin="bevel" points="1919.33,766.733 1971.25,766.733"/>
<polyline class="LedgerLine" fill="none" stroke="#000000" stroke-width="4.00" stroke-linejoin="bevel" points="1957.69,291.732 2009.6,291.732"/>
<polyline class="LedgerLine" fill="none" stroke="#000000" stroke-width="4.00" stroke-linejoin="bevel" points="277.732,766.733 329.647,766.733"/>
<polyline class="LedgerLine" fill="none" stroke="#000000" stroke-width="4.00" stroke-linejoin="bevel" points="1856.44,291.732 1908.36,291.732"/>
<polyline class="LedgerLine" fill="none" stroke="#000000" stroke-width="4.00" stroke-linejoin="bevel" points="430.984,766.733 482.898,766.733"/>
<polyline class="LedgerLine" fill="none" stroke="#000000" stroke-width="4.00" stroke-linejoin="bevel" points="2021.5,766.733 2073.42,766.733"/>
<polyline class="LedgerLine" fill="none" stroke="#000000" stroke-width="4.00" stroke-linejoin="bevel" points="2254.84,766.733 2306.75,766.733"/>
<polyline class="LedgerLine" fill="none" stroke="#000000" stroke-width="4.00" stroke-linejoin="bevel" points="1042.78,291.732 1094.7,291.732"/>
<polyline class="LedgerLine" fill="none" stroke="#000000" stroke-width="4.00" stroke-linejoin="bevel" points="843.114,766.733 895.028,766.733"/>
<polyline class="LedgerLine" fill="none" stroke="#000000" stroke-width="4.00" stroke-linejoin="bevel" points="2123.67,766.733 2175.58,766.733"/>
<polyline class="LedgerLine" fill="none" stroke="#000000" stroke-width="4.00" stroke-linejoin="bevel" points="996.365,766.733 1048.28,766.733"/>
<polyline class="LedgerLine" fill="none" stroke="#000000" stroke-width="4.00" stroke-linejoin="bevel" points="890.915,291.732 942.829,291.732"/>
<polyline class="Stem" fill="none" stroke="#000000" stroke-width="3.25" stroke-linejoin="bevel" points="2419.21,772.602 2419.21,854.233"/>
<polyline class="Stem" fill="none" stroke="#000000" stroke-width="3.25" stroke-linejoin="bevel" points="1053.91,297.602 1053.91,379.233"/>
<polyline class="Stem" fill="none" stroke="#000000" stroke-width="3.25" stroke-linejoin="bevel" points="1828.29,772.602 1828.29,841.733"/>
<polyline class="Stem" fill="none" stroke="#000000" stroke-width="3.25" stroke-linejoin="bevel" points="341.498,285.102 341.498,366.733"/>
<polyline class="Stem" fill="none" stroke="#000000" stroke-width="3.25" stroke-linejoin="bevel" points="2604.39,309.132 2604.39,391.733"/>
<polyline class="Stem" fill="none" stroke="#000000" stroke-width="3.25" stroke-linejoin="bevel" points="644.334,309.132 644.334,391.733"/>
<polyline class="Stem" fill="none" stroke="#000000" stroke-width="3.25" stroke-linejoin="bevel" points="1159.84,784.133 1159.84,866.733"/>
<polyline class="Stem" fill="none" stroke="#000000" stroke-width="3.25" stroke-linejoin="bevel" points="1419.62,785.102 1419.62,860.483"/>
<polyline class="Stem" fill="none" stroke="#000000" stroke-width="3.25" stroke-linejoin="bevel" points="1726.12,785.102 1726.12,860.483"/>
<polyline class="Stem" fill="none" stroke="#000000" stroke-width="3.25" stroke-linejoin="bevel" points="594.459,784.133 594.459,866.733"/>
<polyline class="Stem" fill="none" stroke="#000000" stroke-width="3.25" stroke-linejoin="bevel" points="1007.49,772.602 1007.49,854.233"/>
<polyline class="Stem" fill="none" stroke="#000000" stroke-width="3.25" stroke-linejoin="bevel" points="288.857,760.102 288.857,841.733"/>
<polyline class="Stem" fill="none" stroke="#000000" stroke-width="3.25" stroke-linejoin="bevel" points="854.239,760.102 854.239,841.733"/>
<polyline class="Stem" fill="none" stroke="#000000" stroke-width="3.25" stroke-linejoin="bevel" points="1623.96,785.102 1623.96,860.483"/>
<polyline class="Stem" fill="none" stroke="#000000" stroke-width="3.25" stroke-linejoin="bevel" points="442.109,772.602 442.109,854.233"/>
<polyline class="Stem" fill="none" stroke="#000000" stroke-width="3.25" stroke-linejoin="bevel" points="493.367,297.602 493.367,379.233"/>
<polyline class="Stem" fill="none" stroke="#000000" stroke-width="3.25" stroke-linejoin="bevel" points="1521.79,785.102 1521.79,860.483"/>
<polyline class="Stem" fill="none" stroke="#000000" stroke-width="3.25" stroke-linejoin="bevel" points="2301.55,285.102 2301.55,366.733"/>
<polyline class="Stem" fill="none" stroke="#000000" stroke-width="3.25" stroke-linejoin="bevel" points="2571.56,784.133 2571.56,866.733"/>
<polyline class="Stem" fill="none" stroke="#000000" stroke-width="3.25" stroke-linejoin="bevel" points="1563.83,310.102 1563.83,385.483"/>
<polyline class="Stem" fill="none" stroke="#000000" stroke-width="3.25" stroke-linejoin="bevel" points="2134.79,772.602 2134.79,841.733"/>
<polyline class="Stem" fill="none" stroke="#000000" stroke-width="3.25" stroke-linejoin="bevel" points="1665.07,310.102 1665.07,385.483"/>
<polyline class="Stem" fill="none" stroke="#000000" stroke-width="3.25" stroke-linejoin="bevel" points="1462.58,310.102 1462.58,385.483"/>
<polyline class="Stem" fill="none" stroke="#000000" stroke-width="3.25" stroke-linejoin="bevel" points="1766.32,310.102 1766.32,385.483"/>
<polyline class="Stem" fill="none" stroke="#000000" stroke-width="3.25" stroke-linejoin="bevel" points="902.04,285.102 902.04,366.733"/>
<polyline class="Stem" fill="none" stroke="#000000" stroke-width="3.25" stroke-linejoin="bevel" points="1867.57,297.602 1867.57,366.733"/>
<polyline class="Stem" fill="none" stroke="#000000" stroke-width="3.25" stroke-linejoin="bevel" points="2032.63,772.602 2032.63,841.733"/>
<polyline class="Stem" fill="none" stroke="#000000" stroke-width="3.25" stroke-linejoin="bevel" points="1968.81,297.602 1968.81,366.733"/>
<polyline class="Stem" fill="none" stroke="#000000" stroke-width="3.25" stroke-linejoin="bevel" points="2070.06,297.602 2070.06,366.733"/>
<polyline class="Stem" fill="none" stroke="#000000" stroke-width="3.25" stroke-linejoin="bevel" points="1204.88,309.132 1204.88,391.733"/>
<polyline class="Stem" fill="none" stroke="#000000" stroke-width="3.25" stroke-linejoin="bevel" points="1930.46,772.602 1930.46,841.733"/>
<polyline class="Stem" fill="none" stroke="#000000" stroke-width="3.25" stroke-linejoin="bevel" points="2171.31,297.602 2171.31,366.733"/>
<polyline class="Stem" fill="none" stroke="#000000" stroke-width="3.25" stroke-linejoin="bevel" points="2265.96,760.102 2265.96,841.733"/>
<polyline class="Stem" fill="none" stroke="#000000" stroke-width="3.25" stroke-linejoin="bevel" points="2453.42,297.602 2453.42,379.233"/>
<path class="Note" d="M2155.14,752.967 C2158.26,752.967 2160.87,753.748 2162.95,755.311 C2165.03,756.873 2166.08,759.118 2166.08,762.045 C2166.08,766.535 2163.75,770.733 2159.1,774.639 C2154.45,778.545 2149.45,780.498 2144.11,780.498 C2140.98,780.498 2138.35,779.686 2136.2,778.061 C2134.18,776.3 2133.17,774.087 2133.17,771.42 C2133.17,767.056 2135.48,762.889 2140.11,758.92 C2144.73,754.952 2149.74,752.967 2155.14,752.967"/>
<path class="Note" d="M2577.36,789.873 C2579.25,789.873 2583.2,787.92 2589.23,784.014 C2595.25,780.108 2598.8,777.488 2599.88,776.155 C2600.95,774.821 2601.49,773.634 2601.49,772.592 C2601.49,771.55 2601.06,770.623 2600.21,769.811 C2599.36,768.998 2598.39,768.592 2597.28,768.592 C2595.33,768.592 2591.35,770.561 2585.32,774.498 C2579.3,778.436 2575.76,781.056 2574.72,782.358 C2573.68,783.66 2573.16,784.832 2573.16,785.873 C2573.16,786.915 2573.57,787.842 2574.38,788.655 C2575.2,789.467 2576.19,789.873 2577.36,789.873 M2596.31,765.467 C2601.91,765.467 2604.7,767.873 2604.7,772.686 C2604.7,775.03 2604.02,777.748 2602.66,780.842 C2601.29,783.936 2599.47,786.295 2597.19,787.92 C2592.18,791.306 2585.9,792.998 2578.34,792.998 C2572.74,792.998 2569.94,790.592 2569.94,785.78 C2569.94,783.634 2570.61,780.965 2571.94,777.772 C2573.27,774.579 2575.11,772.17 2577.45,770.545 C2582.47,767.16 2588.76,765.467 2596.31,765.467"/>
<path class="Note" d="M2286.31,740.467 C2289.43,740.467 2292.04,741.248 2294.12,742.811 C2296.2,744.373 2297.24,746.618 2297.24,749.545 C2297.24,754.035 2294.92,758.233 2290.27,762.139 C2285.62,766.045 2280.62,767.998 2275.27,767.998 C2272.15,767.998 2269.51,767.186 2267.37,765.561 C2265.35,763.8 2264.34,761.587 2264.34,758.92 C2264.34,754.556 2266.65,750.389 2271.27,746.42 C2275.9,742.451 2280.91,740.467 2286.31,740.467"/>
<path class="Note" d="M1439.96,765.467 C1443.09,765.467 1445.69,766.248 1447.78,767.811 C1449.86,769.373 1450.9,771.618 1450.9,774.545 C1450.9,779.035 1448.58,783.233 1443.92,787.139 C1439.27,791.045 1434.28,792.998 1428.93,792.998 C1425.81,792.998 1423.17,792.186 1421.03,790.561 C1419.01,788.8 1417.99,786.587 1417.99,783.92 C1417.99,779.556 1420.31,775.389 1424.93,771.42 C1429.56,767.452 1434.57,765.467 1439.96,765.467"/>
<path class="Note" d="M2052.97,752.967 C2056.1,752.967 2058.7,753.748 2060.78,755.311 C2062.87,756.873 2063.91,759.118 2063.91,762.045 C2063.91,766.535 2061.58,770.733 2056.93,774.639 C2052.28,778.545 2047.28,780.498 2041.94,780.498 C2038.81,780.498 2036.18,779.686 2034.03,778.061 C2032.01,776.3 2031,774.087 2031,771.42 C2031,767.056 2033.31,762.889 2037.94,758.92 C2042.56,754.952 2047.57,752.967 2052.97,752.967"/>
<path class="Note" d="M1542.13,765.467 C1545.26,765.467 1547.86,766.248 1549.94,767.811 C1552.03,769.373 1553.07,771.618 1553.07,774.545 C1553.07,779.035 1550.74,783.233 1546.09,787.139 C1541.44,791.045 1536.44,792.998 1531.1,792.998 C1527.97,792.998 1525.34,792.186 1523.19,790.561 C1521.17,788.8 1520.16,786.587 1520.16,783.92 C1520.16,779.556 1522.47,775.389 1527.1,771.42 C1531.72,767.452 1536.74,765.467 1542.13,765.467"/>
<path class="Note" d="M1950.8,752.967 C1953.93,752.967 1956.53,753.748 1958.62,755.311 C1960.7,756.873 1961.74,759.118 1961.74,762.045 C1961.74,766.535 1959.41,770.733 1954.76,774.639 C1950.11,778.545 1945.12,780.498 1939.77,780.498 C1936.65,780.498 1934.01,779.686 1931.87,778.061 C1929.84,776.3 1928.83,774.087 1928.83,771.42 C1928.83,767.056 1931.15,762.889 1935.77,758.92 C1940.4,754.952 1945.41,752.967 1950.8,752.967"/>
<path class="Note" d="M1644.3,765.467 C1647.42,765.467 1650.03,766.248 1652.11,767.811 C1654.19,769.373 1655.24,771.618 1655.24,774.545 C1655.24,779.035 1652.91,783.233 1648.26,787.139 C1643.61,791.045 1638.61,792.998 1633.27,792.998 C1630.14,792.998 1627.51,792.186 1625.36,790.561 C1623.34,788.8 1622.33,786.587 1622.33,783.92 C1622.33,779.556 1624.64,775.389 1629.27,771.42 C1633.89,767.452 1638.9,765.467 1644.3,765.467"/>
<path class="Note" d="M1848.63,752.967 C1851.76,752.967 1854.36,753.748 1856.45,755.311 C1858.53,756.873 1859.57,759.118 1859.57,762.045 C1859.57,766.535 1857.25,770.733 1852.6,774.639 C1847.94,778.545 1842.95,780.498 1837.6,780.498 C1834.48,780.498 1831.84,779.686 1829.7,778.061 C1827.68,776.3 1826.67,774.087 1826.67,771.42 C1826.67,767.056 1828.98,762.889 1833.6,758.92 C1838.23,754.952 1843.24,752.967 1848.63,752.967"/>
<path class="Note" d="M1746.47,765.467 C1749.59,765.467 1752.2,766.248 1754.28,767.811 C1756.36,769.373 1757.4,771.618 1757.4,774.545 C1757.4,779.035 1755.08,783.233 1750.43,787.139 C1745.78,791.045 1740.78,792.998 1735.44,792.998 C1732.31,792.998 1729.68,792.186 1727.53,790.561 C1725.51,788.8 1724.5,786.587 1724.5,783.92 C1724.5,779.556 1726.81,775.389 1731.44,771.42 C1736.06,767.452 1741.07,765.467 1746.47,765.467"/>
<path class="Note" d="M1027.83,752.967 C1030.96,752.967 1033.56,753.748 1035.65,755.311 C1037.73,756.873 1038.77,759.118 1038.77,762.045 C1038.77,766.535 1036.45,770.733 1031.79,774.639 C1027.14,778.545 1022.15,780.498 1016.8,780.498 C1013.68,780.498 1011.04,779.686 1008.9,778.061 C1006.88,776.3 1005.87,774.087 1005.87,771.42 C1005.87,767.056 1008.18,762.889 1012.8,758.92 C1017.43,754.952 1022.44,752.967 1027.83,752.967"/>
<path class="Note" d="M1074.25,277.967 C1077.38,277.967 1079.98,278.748 1082.07,280.311 C1084.15,281.873 1085.19,284.118 1085.19,287.045 C1085.19,291.535 1082.87,295.732 1078.21,299.639 C1073.56,303.545 1068.57,305.498 1063.22,305.498 C1060.1,305.498 1057.46,304.686 1055.32,303.061 C1053.29,301.3 1052.28,299.087 1052.28,296.42 C1052.28,292.055 1054.6,287.889 1059.22,283.92 C1063.85,279.951 1068.86,277.967 1074.25,277.967"/>
<path class="Note" d="M1210.67,314.873 C1212.56,314.873 1216.51,312.92 1222.54,309.014 C1228.57,305.107 1232.12,302.488 1233.19,301.154 C1234.26,299.821 1234.8,298.634 1234.8,297.592 C1234.8,296.55 1234.37,295.623 1233.52,294.811 C1232.68,293.998 1231.7,293.592 1230.59,293.592 C1228.65,293.592 1224.66,295.561 1218.63,299.498 C1212.61,303.436 1209.07,306.055 1208.03,307.357 C1206.99,308.66 1206.47,309.831 1206.47,310.873 C1206.47,311.915 1206.88,312.842 1207.7,313.654 C1208.51,314.467 1209.51,314.873 1210.67,314.873 M1229.63,290.467 C1235.22,290.467 1238.02,292.873 1238.02,297.686 C1238.02,300.029 1237.33,302.748 1235.97,305.842 C1234.61,308.936 1232.78,311.295 1230.5,312.92 C1225.49,316.305 1219.21,317.998 1211.66,317.998 C1206.05,317.998 1203.25,315.592 1203.25,310.779 C1203.25,308.634 1203.92,305.964 1205.25,302.772 C1206.58,299.579 1208.42,297.17 1210.77,295.545 C1215.79,292.16 1222.07,290.467 1229.63,290.467"/>
<path class="Note" d="M1482.93,290.467 C1486.05,290.467 1488.66,291.248 1490.74,292.811 C1492.82,294.373 1493.86,296.618 1493.86,299.545 C1493.86,304.035 1491.54,308.232 1486.89,312.139 C1482.24,316.045 1477.24,317.998 1471.89,317.998 C1468.77,317.998 1466.13,317.186 1463.99,315.561 C1461.97,313.8 1460.96,311.587 1460.96,308.92 C1460.96,304.555 1463.27,300.389 1467.89,296.42 C1472.52,292.451 1477.53,290.467 1482.93,290.467"/>
<path class="Note" d="M1584.17,290.467 C1587.3,290.467 1589.9,291.248 1591.98,292.811 C1594.07,294.373 1595.11,296.618 1595.11,299.545 C1595.11,304.035 1592.78,308.232 1588.13,312.139 C1583.48,316.045 1578.48,317.998 1573.14,317.998 C1570.02,317.998 1567.38,317.186 1565.23,315.561 C1563.21,313.8 1562.2,311.587 1562.2,308.92 C1562.2,304.555 1564.52,300.389 1569.14,296.42 C1573.77,292.451 1578.78,290.467 1584.17,290.467"/>
<path class="Note" d="M1685.42,290.467 C1688.54,290.467 1691.15,291.248 1693.23,292.811 C1695.31,294.373 1696.36,296.618 1696.36,299.545 C1696.36,304.035 1694.03,308.232 1689.38,312.139 C1684.73,316.045 1679.73,317.998 1674.39,317.998 C1671.26,317.998 1668.63,317.186 1666.48,315.561 C1664.46,313.8 1663.45,311.587 1663.45,308.92 C1663.45,304.555 1665.76,300.389 1670.39,296.42 C1675.01,292.451 1680.02,290.467 1685.42,290.467"/>
<path class="Note" d="M1786.66,290.467 C1789.79,290.467 1792.39,291.248 1794.48,292.811 C1796.56,294.373 1797.6,296.618 1797.6,299.545 C1797.6,304.035 1795.28,308.232 1790.63,312.139 C1785.97,316.045 1780.98,317.998 1775.63,317.998 C1772.51,317.998 1769.87,317.186 1767.73,315.561 C1765.71,313.8 1764.7,311.587 1764.7,308.92 C1764.7,304.555 1767.01,300.389 1771.63,296.42 C1776.26,292.451 1781.27,290.467 1786.66,290.467"/>
<path class="Note" d="M1887.91,277.967 C1891.04,277.967 1893.64,278.748 1895.72,280.311 C1897.81,281.873 1898.85,284.118 1898.85,287.045 C1898.85,291.535 1896.52,295.732 1891.87,299.639 C1887.22,303.545 1882.22,305.498 1876.88,305.498 C1873.75,305.498 1871.12,304.686 1868.97,303.061 C1866.95,301.3 1865.94,299.087 1865.94,296.42 C1865.94,292.055 1868.25,287.889 1872.88,283.92 C1877.5,279.951 1882.51,277.967 1887.91,277.967"/>
<path class="Note" d="M2439.56,752.967 C2442.68,752.967 2445.29,753.748 2447.37,755.311 C2449.45,756.873 2450.5,759.118 2450.5,762.045 C2450.5,766.535 2448.17,770.733 2443.52,774.639 C2438.87,778.545 2433.87,780.498 2428.53,780.498 C2425.4,780.498 2422.77,779.686 2420.62,778.061 C2418.6,776.3 2417.59,774.087 2417.59,771.42 C2417.59,767.056 2419.9,762.889 2424.53,758.92 C2429.15,754.952 2434.16,752.967 2439.56,752.967"/>
<path class="Note" d="M1989.16,277.967 C1992.28,277.967 1994.89,278.748 1996.97,280.311 C1999.05,281.873 2000.09,284.118 2000.09,287.045 C2000.09,291.535 1997.77,295.732 1993.12,299.639 C1988.47,303.545 1983.47,305.498 1978.13,305.498 C1975,305.498 1972.36,304.686 1970.22,303.061 C1968.2,301.3 1967.19,299.087 1967.19,296.42 C1967.19,292.055 1969.5,287.889 1974.13,283.92 C1978.75,279.951 1983.76,277.967 1989.16,277.967"/>
<path class="Note" d="M2090.4,277.967 C2093.53,277.967 2096.13,278.748 2098.22,280.311 C2100.3,281.873 2101.34,284.118 2101.34,287.045 C2101.34,291.535 2099.01,295.732 2094.36,299.639 C2089.71,303.545 2084.72,305.498 2079.37,305.498 C2076.25,305.498 2073.61,304.686 2071.47,303.061 C2069.44,301.3 2068.43,299.087 2068.43,296.42 C2068.43,292.055 2070.75,287.889 2075.37,283.92 C2080,279.951 2085.01,277.967 2090.4,277.967"/>
<path class="Note" d="M2191.65,277.967 C2194.77,277.967 2197.38,278.748 2199.46,280.311 C2201.54,281.873 2202.59,284.118 2202.59,287.045 C2202.59,291.535 2200.26,295.732 2195.61,299.639 C2190.96,303.545 2185.96,305.498 2180.62,305.498 C2177.49,305.498 2174.86,304.686 2172.71,303.061 C2170.69,301.3 2169.68,299.087 2169.68,296.42 C2169.68,292.055 2171.99,287.889 2176.62,283.92 C2181.24,279.951 2186.25,277.967 2191.65,277.967"/>
<path class="Note" d="M650.131,314.873 C652.016,314.873 655.972,312.92 661.998,309.014 C668.024,305.107 671.574,302.488 672.647,301.154 C673.72,299.821 674.256,298.634 674.256,297.592 C674.256,296.55 673.832,295.623 672.983,294.811 C672.134,293.998 671.157,293.592 670.053,293.592 C668.105,293.592 664.118,295.561 658.092,299.498 C652.066,303.436 648.532,306.055 647.49,307.357 C646.449,308.66 645.928,309.831 645.928,310.873 C645.928,311.915 646.337,312.842 647.154,313.654 C647.972,314.467 648.964,314.873 650.131,314.873 M669.084,290.467 C674.678,290.467 677.475,292.873 677.475,297.686 C677.475,300.029 676.792,302.748 675.428,305.842 C674.063,308.936 672.24,311.295 669.959,312.92 C664.949,316.305 658.667,317.998 651.115,317.998 C645.511,317.998 642.709,315.592 642.709,310.779 C642.709,308.634 643.376,305.964 644.709,302.772 C646.042,299.579 647.881,297.17 650.225,295.545 C655.246,292.16 661.532,290.467 669.084,290.467"/>
<path class="Note" d="M2321.9,265.467 C2325.02,265.467 2327.62,266.248 2329.71,267.811 C2331.79,269.373 2332.83,271.618 2332.83,274.545 C2332.83,279.035 2330.51,283.232 2325.86,287.139 C2321.2,291.045 2316.21,292.998 2310.86,292.998 C2307.74,292.998 2305.1,292.186 2302.96,290.561 C2300.94,288.8 2299.93,286.587 2299.93,283.92 C2299.93,279.555 2302.24,275.389 2306.86,271.42 C2311.49,267.451 2316.5,265.467 2321.9,265.467"/>
<path class="Note" d="M2473.76,277.967 C2476.89,277.967 2479.49,278.748 2481.58,280.311 C2483.66,281.873 2484.7,284.118 2484.7,287.045 C2484.7,291.535 2482.38,295.732 2477.73,299.639 C2473.07,303.545 2468.08,305.498 2462.73,305.498 C2459.61,305.498 2456.97,304.686 2454.83,303.061 C2452.81,301.3 2451.8,299.087 2451.8,296.42 C2451.8,292.055 2454.11,287.889 2458.73,283.92 C2463.36,279.951 2468.37,277.967 2473.76,277.967"/>
<path class="Note" d="M2610.18,314.873 C2612.07,314.873 2616.03,312.92 2622.05,309.014 C2628.08,305.107 2631.63,302.488 2632.7,301.154 C2633.77,299.821 2634.31,298.634 2634.31,297.592 C2634.31,296.55 2633.88,295.623 2633.04,294.811 C2632.19,293.998 2631.21,293.592 2630.11,293.592 C2628.16,293.592 2624.17,295.561 2618.15,299.498 C2612.12,303.436 2608.59,306.055 2607.54,307.357 C2606.5,308.66 2605.98,309.831 2605.98,310.873 C2605.98,311.915 2606.39,312.842 2607.21,313.654 C2608.03,314.467 2609.02,314.873 2610.18,314.873 M2629.14,290.467 C2634.73,290.467 2637.53,292.873 2637.53,297.686 C2637.53,300.029 2636.85,302.748 2635.48,305.842 C2634.12,308.936 2632.29,311.295 2630.01,312.92 C2625,316.305 2618.72,317.998 2611.17,317.998 C2605.56,317.998 2602.76,315.592 2602.76,310.779 C2602.76,308.634 2603.43,305.964 2604.76,302.772 C2606.1,299.579 2607.93,297.17 2610.28,295.545 C2615.3,292.16 2621.59,290.467 2629.14,290.467"/>
<path class="Note" d="M513.711,277.967 C516.836,277.967 519.44,278.748 521.524,280.311 C523.607,281.873 524.649,284.118 524.649,287.045 C524.649,291.535 522.323,295.732 517.672,299.639 C513.021,303.545 508.024,305.498 502.68,305.498 C499.555,305.498 496.919,304.686 494.774,303.061 C492.753,301.3 491.742,299.087 491.742,296.42 C491.742,292.055 494.055,287.889 498.68,283.92 C503.305,279.951 508.315,277.967 513.711,277.967"/>
<path class="Note" d="M922.384,265.467 C925.509,265.467 928.113,266.248 930.196,267.811 C932.28,269.373 933.321,271.618 933.321,274.545 C933.321,279.035 930.996,283.232 926.345,287.139 C921.694,291.045 916.696,292.998 911.353,292.998 C908.228,292.998 905.592,292.186 903.446,290.561 C901.426,288.8 900.415,286.587 900.415,283.92 C900.415,279.555 902.728,275.389 907.353,271.42 C911.978,267.451 916.988,265.467 922.384,265.467"/>
<path class="Note" d="M309.201,740.467 C312.326,740.467 314.93,741.248 317.014,742.811 C319.097,744.373 320.139,746.618 320.139,749.545 C320.139,754.035 317.813,758.233 313.162,762.139 C308.511,766.045 303.514,767.998 298.17,767.998 C295.045,767.998 292.41,767.186 290.264,765.561 C288.243,763.8 287.232,761.587 287.232,758.92 C287.232,754.556 289.545,750.389 294.17,746.42 C298.795,742.451 303.805,740.467 309.201,740.467"/>
<path class="Note" d="M462.453,752.967 C465.578,752.967 468.182,753.748 470.265,755.311 C472.349,756.873 473.39,759.118 473.39,762.045 C473.39,766.535 471.065,770.733 466.414,774.639 C461.763,778.545 456.765,780.498 451.422,780.498 C448.297,780.498 445.661,779.686 443.515,778.061 C441.495,776.3 440.484,774.087 440.484,771.42 C440.484,767.056 442.797,762.889 447.422,758.92 C452.047,754.952 457.057,752.967 462.453,752.967"/>
<path class="Note" d="M600.255,789.873 C602.141,789.873 606.097,787.92 612.123,784.014 C618.149,780.108 621.698,777.488 622.771,776.155 C623.844,774.821 624.38,773.634 624.38,772.592 C624.38,771.55 623.956,770.623 623.107,769.811 C622.258,768.998 621.281,768.592 620.177,768.592 C618.229,768.592 614.242,770.561 608.216,774.498 C602.19,778.436 598.656,781.056 597.615,782.358 C596.573,783.66 596.052,784.832 596.052,785.873 C596.052,786.915 596.461,787.842 597.279,788.655 C598.097,789.467 599.089,789.873 600.255,789.873 M619.209,765.467 C624.802,765.467 627.599,767.873 627.599,772.686 C627.599,775.03 626.917,777.748 625.552,780.842 C624.188,783.936 622.365,786.295 620.084,787.92 C615.073,791.306 608.792,792.998 601.24,792.998 C595.636,792.998 592.834,790.592 592.834,785.78 C592.834,783.634 593.5,780.965 594.834,777.772 C596.167,774.579 598.005,772.17 600.349,770.545 C605.37,767.16 611.656,765.467 619.209,765.467"/>
<path class="Note" d="M361.842,265.467 C364.967,265.467 367.571,266.248 369.654,267.811 C371.738,269.373 372.779,271.618 372.779,274.545 C372.779,279.035 370.454,283.232 365.803,287.139 C361.152,291.045 356.154,292.998 350.811,292.998 C347.686,292.998 345.05,292.186 342.904,290.561 C340.884,288.8 339.873,286.587 339.873,283.92 C339.873,279.555 342.186,275.389 346.811,271.42 C351.436,267.451 356.446,265.467 361.842,265.467"/>
<path class="Note" d="M874.582,740.467 C877.707,740.467 880.311,741.248 882.395,742.811 C884.478,744.373 885.52,746.618 885.52,749.545 C885.52,754.035 883.194,758.233 878.543,762.139 C873.892,766.045 868.895,767.998 863.551,767.998 C860.426,767.998 857.791,767.186 855.645,765.561 C853.624,763.8 852.614,761.587 852.614,758.92 C852.614,754.556 854.926,750.389 859.551,746.42 C864.176,742.451 869.186,740.467 874.582,740.467"/>
<path class="Note" d="M1165.64,789.873 C1167.52,789.873 1171.48,787.92 1177.5,784.014 C1183.53,780.108 1187.08,777.488 1188.15,776.155 C1189.23,774.821 1189.76,773.634 1189.76,772.592 C1189.76,771.55 1189.34,770.623 1188.49,769.811 C1187.64,768.998 1186.66,768.592 1185.56,768.592 C1183.61,768.592 1179.62,770.561 1173.6,774.498 C1167.57,778.436 1164.04,781.056 1163,782.358 C1161.95,783.66 1161.43,784.832 1161.43,785.873 C1161.43,786.915 1161.84,787.842 1162.66,788.655 C1163.48,789.467 1164.47,789.873 1165.64,789.873 M1184.59,765.467 C1190.18,765.467 1192.98,767.873 1192.98,772.686 C1192.98,775.03 1192.3,777.748 1190.93,780.842 C1189.57,783.936 1187.75,786.295 1185.46,787.92 C1180.45,791.306 1174.17,792.998 1166.62,792.998 C1161.02,792.998 1158.21,790.592 1158.21,785.78 C1158.21,783.634 1158.88,780.965 1160.21,777.772 C1161.55,774.579 1163.39,772.17 1165.73,770.545 C1170.75,767.16 1177.04,765.467 1184.59,765.467"/>
<path class="Clef" d="M203.623,423.858 L203.623,421.717 C203.56,420.613 203.399,418.889 203.139,416.545 C199.889,417.066 196.993,417.326 194.451,417.326 C185.337,417.326 177.605,413.727 171.256,406.529 C164.907,399.331 161.732,390.753 161.732,380.795 C161.732,378.128 162.253,374.923 163.295,371.178 C164.337,367.433 165.297,364.925 166.178,363.654 C167.058,362.384 168.378,360.154 170.139,356.967 C170.659,355.988 172.352,353.837 175.217,350.514 C175.738,349.805 176.193,349.222 176.584,348.764 C176.975,348.305 177.607,347.49 178.482,346.318 C179.357,345.147 180.3,344.055 181.31,343.045 C182.321,342.035 183.217,341.058 183.998,340.115 C184.779,339.173 185.498,338.378 186.154,337.733 C183.81,329.983 182.378,324.024 181.857,319.858 C181.337,315.691 181.076,310.579 181.076,304.522 C181.076,298.464 182.378,292.962 184.982,288.014 C187.514,282.878 191.06,278.68 195.623,275.42 C195.883,275.222 196.225,275.123 196.646,275.123 C197.068,275.123 197.378,275.222 197.576,275.42 C201.087,279.649 204.128,285.149 206.701,291.92 C209.274,298.691 210.56,305.024 210.56,310.92 C210.56,316.816 209.066,322.498 206.076,327.967 C202.691,333.759 198.326,339.748 192.982,345.936 C194.347,350.227 196.17,356.962 198.451,366.139 L199.045,366.139 C199.305,366.076 199.529,366.045 199.717,366.045 C207.081,366.045 213.089,368.634 217.74,373.811 C222.391,378.988 224.717,384.962 224.717,391.733 C224.717,400.128 221.238,406.899 214.279,412.045 C212.258,413.545 209.878,414.717 207.139,415.561 C207.472,419.79 207.639,422.605 207.639,424.006 C207.639,425.407 207.571,427.899 207.435,431.483 C207.373,437.597 205.29,442.837 201.185,447.201 C197.081,451.566 192.394,453.748 187.123,453.748 C181.852,453.748 177.36,451.876 173.646,448.131 C169.933,444.386 168.076,439.847 168.076,434.514 C168.076,431.712 169.154,429.331 171.31,427.373 C173.519,425.425 176.006,424.451 178.771,424.451 C181.537,424.451 183.8,425.462 185.56,427.483 C187.383,429.368 188.295,431.644 188.295,434.311 C188.295,436.977 187.383,439.222 185.56,441.045 C183.738,442.868 181.555,443.779 179.014,443.779 C177.972,443.779 176.967,443.587 175.998,443.201 C178.863,447.43 182.54,449.545 187.029,449.545 C191.519,449.545 195.36,447.691 198.553,443.983 C201.745,440.274 203.342,435.91 203.342,430.889 L203.623,423.858 M206.748,411.561 C210.133,410.321 212.821,408.123 214.81,404.967 C216.8,401.811 217.795,398.67 217.795,395.545 C217.795,390.92 216.199,386.785 213.006,383.139 C209.813,379.493 205.774,377.441 200.889,376.983 C203.691,390.722 205.644,402.248 206.748,411.561 M168.967,388.998 C168.967,395.446 171.537,401.079 176.678,405.897 C181.818,410.714 187.842,413.123 194.748,413.123 C197.477,413.123 200.144,412.925 202.748,412.529 C201.706,402.634 199.654,390.785 196.592,376.983 C192.758,377.378 189.782,378.699 187.662,380.943 C185.542,383.188 184.482,385.743 184.482,388.608 C184.482,393.555 187.123,397.561 192.404,400.623 C192.852,400.884 193.076,401.324 193.076,401.943 C193.076,402.563 192.865,403.1 192.443,403.553 C192.021,404.006 191.649,404.233 191.326,404.233 C191.003,404.233 190.581,404.17 190.06,404.045 C182.435,399.878 178.623,393.592 178.623,385.186 C178.623,381.217 180.024,377.41 182.826,373.764 C185.753,370.118 189.56,367.774 194.248,366.733 C192.425,359.441 190.93,353.743 189.764,349.639 C180.847,359.67 175.31,367.092 173.154,371.904 C170.363,378.154 168.967,383.852 168.967,388.998 M201.576,289.686 C196.691,292.092 192.834,295.574 190.006,300.131 C187.178,304.688 185.764,309.472 185.764,314.483 C185.764,319.493 186.935,325.972 189.279,333.92 C193.967,328.253 197.514,322.946 199.92,317.998 C202.326,313.05 203.529,308.152 203.529,303.303 C203.529,298.454 202.878,293.915 201.576,289.686"/>
<path class="Clef" d="M203.623,898.858 L203.623,896.717 C203.56,895.613 203.399,893.889 203.139,891.545 C199.889,892.066 196.993,892.327 194.451,892.327 C185.337,892.327 177.605,888.728 171.256,881.53 C164.907,874.332 161.732,865.754 161.732,855.795 C161.732,853.129 162.253,849.923 163.295,846.178 C164.337,842.433 165.297,839.926 166.178,838.655 C167.058,837.384 168.378,835.155 170.139,831.967 C170.659,830.988 172.352,828.837 175.217,825.514 C175.738,824.806 176.193,824.222 176.584,823.764 C176.975,823.306 177.607,822.491 178.482,821.319 C179.357,820.147 180.3,819.056 181.31,818.045 C182.321,817.035 183.217,816.058 183.998,815.116 C184.779,814.173 185.498,813.379 186.154,812.733 C183.81,804.983 182.378,799.024 181.857,794.858 C181.337,790.691 181.076,785.579 181.076,779.522 C181.076,773.465 182.378,767.962 184.982,763.014 C187.514,757.879 191.06,753.681 195.623,750.42 C195.883,750.222 196.225,750.123 196.646,750.123 C197.068,750.123 197.378,750.222 197.576,750.42 C201.087,754.649 204.128,760.149 206.701,766.92 C209.274,773.691 210.56,780.024 210.56,785.92 C210.56,791.816 209.066,797.498 206.076,802.967 C202.691,808.759 198.326,814.748 192.982,820.936 C194.347,825.228 196.17,831.962 198.451,841.139 L199.045,841.139 C199.305,841.077 199.529,841.045 199.717,841.045 C207.081,841.045 213.089,843.634 217.74,848.811 C222.391,853.988 224.717,859.962 224.717,866.733 C224.717,875.129 221.238,881.899 214.279,887.045 C212.258,888.545 209.878,889.717 207.139,890.561 C207.472,894.79 207.639,897.605 207.639,899.006 C207.639,900.407 207.571,902.899 207.435,906.483 C207.373,912.597 205.29,917.837 201.185,922.202 C197.081,926.566 192.394,928.748 187.123,928.748 C181.852,928.748 177.36,926.876 173.646,923.131 C169.933,919.386 168.076,914.847 168.076,909.514 C168.076,906.712 169.154,904.332 171.31,902.373 C173.519,900.426 176.006,899.452 178.771,899.452 C181.537,899.452 183.8,900.462 185.56,902.483 C187.383,904.368 188.295,906.644 188.295,909.311 C188.295,911.978 187.383,914.222 185.56,916.045 C183.738,917.868 181.555,918.78 179.014,918.78 C177.972,918.78 176.967,918.587 175.998,918.202 C178.863,922.431 182.54,924.545 187.029,924.545 C191.519,924.545 195.36,922.691 198.553,918.983 C201.745,915.274 203.342,910.91 203.342,905.889 L203.623,898.858 M206.748,886.561 C210.133,885.321 212.821,883.123 214.81,879.967 C216.8,876.811 217.795,873.67 217.795,870.545 C217.795,865.92 216.199,861.785 213.006,858.139 C209.813,854.493 205.774,852.441 200.889,851.983 C203.691,865.722 205.644,877.248 206.748,886.561 M168.967,863.998 C168.967,870.446 171.537,876.079 176.678,880.897 C181.818,885.715 187.842,888.123 194.748,888.123 C197.477,888.123 200.144,887.926 202.748,887.53 C201.706,877.634 199.654,865.785 196.592,851.983 C192.758,852.379 189.782,853.699 187.662,855.944 C185.542,858.189 184.482,860.743 184.482,863.608 C184.482,868.556 187.123,872.561 192.404,875.623 C192.852,875.884 193.076,876.324 193.076,876.944 C193.076,877.564 192.865,878.1 192.443,878.553 C192.021,879.006 191.649,879.233 191.326,879.233 C191.003,879.233 190.581,879.17 190.06,879.045 C182.435,874.879 178.623,868.592 178.623,860.186 C178.623,856.217 180.024,852.41 182.826,848.764 C185.753,845.118 189.56,842.774 194.248,841.733 C192.425,834.441 190.93,828.743 189.764,824.639 C180.847,834.67 175.31,842.092 173.154,846.905 C170.363,853.155 168.967,858.853 168.967,863.998 M201.576,764.686 C196.691,767.092 192.834,770.574 190.006,775.131 C187.178,779.689 185.764,784.472 185.764,789.483 C185.764,794.493 186.935,800.972 189.279,808.92 C193.967,803.254 197.514,797.946 199.92,792.998 C202.326,788.051 203.529,783.152 203.529,778.303 C203.529,773.454 202.878,768.915 201.576,764.686"/>
<path class="TimeSig" d="M273.021,317.912 C274.516,317.912 275.949,317.686 277.318,317.232 C278.688,316.779 279.665,316.553 280.248,316.553 C280.831,316.553 281.222,316.907 281.42,317.615 C281.42,317.688 281.352,317.886 281.217,318.209 L252.811,351.225 L269.498,351.225 L269.498,338.131 C269.498,336.506 270.446,335.334 272.342,334.615 C274.29,333.897 276.503,331.001 278.982,325.928 C279.17,325.532 279.462,325.334 279.857,325.334 C280.639,325.334 281.092,325.792 281.217,326.709 L281.217,351.225 L288.357,351.225 C289.264,351.225 289.751,351.712 289.818,352.686 C289.886,353.66 289.399,354.147 288.357,354.147 L281.217,354.147 L281.217,354.928 C281.217,357.532 281.868,359.746 283.17,361.568 C284.67,363.391 286.43,364.303 288.451,364.303 C289.232,364.303 289.623,364.693 289.623,365.475 C289.623,366.256 289.087,366.647 288.014,366.647 C286.941,366.647 284.938,366.436 282.006,366.014 C279.074,365.592 276.811,365.381 275.217,365.381 C273.623,365.381 271.41,365.592 268.576,366.014 C265.743,366.436 263.613,366.647 262.186,366.647 C261.404,366.647 261.014,366.256 261.014,365.475 C261.014,364.693 261.404,364.303 262.186,364.303 C264.196,364.303 265.951,363.391 267.451,361.568 C268.816,359.683 269.498,357.469 269.498,354.928 L269.498,354.147 L252.811,354.147 C251.956,354.147 251.219,353.92 250.6,353.467 C249.98,353.014 249.67,352.592 249.67,352.201 C249.67,351.811 250.485,350.639 252.115,348.686 C253.745,346.732 256.074,342.972 259.1,337.404 C262.126,331.837 263.639,325.438 263.639,318.209 C263.639,317.167 264.097,316.647 265.014,316.647 C265.212,316.647 265.521,316.712 265.943,316.842 C266.365,316.972 267.277,317.183 268.678,317.475 C270.079,317.766 271.527,317.912 273.021,317.912"/>
<path class="TimeSig" d="M273.021,368.084 C274.516,368.084 275.949,367.858 277.318,367.404 C278.688,366.951 279.665,366.725 280.248,366.725 C280.831,366.725 281.222,367.079 281.42,367.787 C281.42,367.86 281.352,368.058 281.217,368.381 L252.811,401.397 L269.498,401.397 L269.498,388.303 C269.498,386.678 270.446,385.506 272.342,384.787 C274.29,384.068 276.503,381.173 278.982,376.1 C279.17,375.704 279.462,375.506 279.857,375.506 C280.639,375.506 281.092,375.964 281.217,376.881 L281.217,401.397 L288.357,401.397 C289.264,401.397 289.751,401.884 289.818,402.858 C289.886,403.831 289.399,404.318 288.357,404.318 L281.217,404.318 L281.217,405.1 C281.217,407.704 281.868,409.917 283.17,411.74 C284.67,413.563 286.43,414.475 288.451,414.475 C289.232,414.475 289.623,414.865 289.623,415.647 C289.623,416.428 289.087,416.818 288.014,416.818 C286.941,416.818 284.938,416.608 282.006,416.186 C279.074,415.764 276.811,415.553 275.217,415.553 C273.623,415.553 271.41,415.764 268.576,416.186 C265.743,416.608 263.613,416.818 262.186,416.818 C261.404,416.818 261.014,416.428 261.014,415.647 C261.014,414.865 261.404,414.475 262.186,414.475 C264.196,414.475 265.951,413.563 267.451,411.74 C268.816,409.855 269.498,407.641 269.498,405.1 L269.498,404.318 L252.811,404.318 C251.956,404.318 251.219,404.092 250.6,403.639 C249.98,403.186 249.67,402.764 249.67,402.373 C249.67,401.983 250.485,400.811 252.115,398.858 C253.745,396.904 256.074,393.144 259.1,387.576 C262.126,382.009 263.639,375.61 263.639,368.381 C263.639,367.339 264.097,366.818 265.014,366.818 C265.212,366.818 265.521,366.884 265.943,367.014 C266.365,367.144 267.277,367.355 268.678,367.647 C270.079,367.938 271.527,368.084 273.021,368.084"/>
<path class="Beam" fill-rule="evenodd" d="M1826.67,835.483 L2136.42,835.483 L2136.42,847.983 L1826.67,847.983 L1826.67,835.483 "/>
<path class="Beam" fill-rule="evenodd" d="M1417.99,854.233 L1727.75,854.233 L1727.75,866.733 L1417.99,866.733 L1417.99,854.233 "/>
<path class="Beam" fill-rule="evenodd" d="M1865.94,360.482 L2172.93,360.482 L2172.93,372.983 L1865.94,372.983 L1865.94,360.482 "/>
<path class="Beam" fill-rule="evenodd" d="M1460.96,379.233 L1767.95,379.233 L1767.95,391.733 L1460.96,391.733 L1460.96,379.233 "/>
</svg>
